ISO-10303-21;
HEADER;
/* Generated by software containing HOOPS Exchange Step
 * from HOOPS Exchange, Inc. (www.tiangong.cloud) 
 */

FILE_DESCRIPTION(
/* description */ ('Unknown'),
/* implementation_level */ '2;1');

FILE_NAME(
/* name */ '\X2\6DF16C9F74038F74627F\X0\F 60000-2Z\X2\578B\X0\',
/* time_stamp */ '2025-08-08T11:48:07+08:00',
/* author */ ('Unknown'),
/* organization */ ('Unknown'),
/* preprocessor_version */ 'ST-DEVELOPER v19.4',
/* originating_system */ 'TianGong',
/* authorisation */ 'Unknown');

FILE_SCHEMA (('AUTOMOTIVE_DESIGN {1 0 10303 214 3 1 1}'));
ENDSEC;

DATA;
#10=PROPERTY_DEFINITION_REPRESENTATION(#14,#12);
#11=PROPERTY_DEFINITION_REPRESENTATION(#15,#13);
#12=REPRESENTATION('',(#16),#1550);
#13=REPRESENTATION('',(#17),#1550);
#14=PROPERTY_DEFINITION('pmi validation property','',#1555);
#15=PROPERTY_DEFINITION('pmi validation property','',#1555);
#16=VALUE_REPRESENTATION_ITEM('number of annotations',COUNT_MEASURE(0.));
#17=VALUE_REPRESENTATION_ITEM('number of views',COUNT_MEASURE(0.));
#18=VERTEX_LOOP('',#303);
#19=VERTEX_LOOP('',#304);
#20=VERTEX_LOOP('',#305);
#21=VERTEX_LOOP('',#306);
#22=VERTEX_LOOP('',#307);
#23=VERTEX_LOOP('',#308);
#24=VERTEX_LOOP('',#309);
#25=VERTEX_LOOP('',#310);
#26=VERTEX_LOOP('',#311);
#27=VERTEX_LOOP('',#312);
#28=VERTEX_LOOP('',#313);
#29=VERTEX_LOOP('',#314);
#30=VERTEX_LOOP('',#315);
#31=VERTEX_LOOP('',#316);
#32=SPHERICAL_SURFACE('',#983,0.554555555555555);
#33=SPHERICAL_SURFACE('',#984,0.554555555555555);
#34=SPHERICAL_SURFACE('',#985,0.554555555555555);
#35=SPHERICAL_SURFACE('',#986,0.554555555555555);
#36=SPHERICAL_SURFACE('',#987,0.554555555555555);
#37=SPHERICAL_SURFACE('',#988,0.554555555555555);
#38=SPHERICAL_SURFACE('',#989,0.554555555555555);
#39=SPHERICAL_SURFACE('',#990,0.554555555555555);
#40=SPHERICAL_SURFACE('',#991,0.554555555555555);
#41=SPHERICAL_SURFACE('',#992,0.554555555555555);
#42=SPHERICAL_SURFACE('',#993,0.554555555555555);
#43=SPHERICAL_SURFACE('',#994,0.554555555555555);
#44=SPHERICAL_SURFACE('',#995,0.554555555555555);
#45=SPHERICAL_SURFACE('',#996,0.554555555555555);
#46=SHAPE_REPRESENTATION_RELATIONSHIP('','',#925,#47);
#47=ADVANCED_BREP_SHAPE_REPRESENTATION('',(#906,#907,#908,#909,#910,#911,
#912,#913,#914,#915,#916,#917,#918,#919,#920,#921,#922,#923),#1550);
#48=TOROIDAL_SURFACE('',#948,4.52576054523292,0.0878227881004142);
#49=TOROIDAL_SURFACE('',#952,4.52576054523292,0.119072788100414);
#50=TOROIDAL_SURFACE('',#976,4.52576054523292,0.0878227881004142);
#51=TOROIDAL_SURFACE('',#980,4.52576054523292,0.119072788100414);
#52=TOROIDAL_SURFACE('',#1014,4.,0.555555555555555);
#53=TOROIDAL_SURFACE('',#1022,3.1,0.1);
#54=TOROIDAL_SURFACE('',#1023,3.1,0.1);
#55=TOROIDAL_SURFACE('',#1053,4.,0.555555555555555);
#56=TOROIDAL_SURFACE('',#1054,4.9,0.1);
#57=CYLINDRICAL_SURFACE('',#934,3.68229166666666);
#58=CYLINDRICAL_SURFACE('',#938,3.65104166666666);
#59=CYLINDRICAL_SURFACE('',#946,4.61358333333333);
#60=CYLINDRICAL_SURFACE('',#954,4.64483333333333);
#61=CYLINDRICAL_SURFACE('',#962,3.68229166666666);
#62=CYLINDRICAL_SURFACE('',#966,3.65104166666666);
#63=CYLINDRICAL_SURFACE('',#974,4.61358333333333);
#64=CYLINDRICAL_SURFACE('',#982,4.64483333333333);
#65=CYLINDRICAL_SURFACE('',#997,3.66666666666666);
#66=CYLINDRICAL_SURFACE('',#1000,3.35416666666667);
#67=CYLINDRICAL_SURFACE('',#1006,3.66666666666666);
#68=CYLINDRICAL_SURFACE('',#1011,3.66666666666666);
#69=CYLINDRICAL_SURFACE('',#1016,3.66666666666666);
#70=CYLINDRICAL_SURFACE('',#1019,3.);
#71=CYLINDRICAL_SURFACE('',#1028,3.35416666666667);
#72=CYLINDRICAL_SURFACE('',#1029,5.);
#73=CYLINDRICAL_SURFACE('',#1032,4.33333333333333);
#74=CYLINDRICAL_SURFACE('',#1037,4.64583333333333);
#75=CYLINDRICAL_SURFACE('',#1041,4.33333333333333);
#76=CYLINDRICAL_SURFACE('',#1044,4.33333333333333);
#77=CYLINDRICAL_SURFACE('',#1051,4.33333333333333);
#78=CYLINDRICAL_SURFACE('',#1057,4.64583333333333);
#79=CYLINDRICAL_SURFACE('',#1060,5.6);
#80=CONICAL_SURFACE('',#930,4.33333333333333,0.5235987755983);
#81=CONICAL_SURFACE('',#942,4.25214345172854,0.523598775598297);
#82=CONICAL_SURFACE('',#958,4.33333333333333,0.5235987755983);
#83=CONICAL_SURFACE('',#970,4.25214345172854,0.523598775598297);
#84=CONICAL_SURFACE('',#1003,3.66666666666666,1.32581766366803);
#85=CONICAL_SURFACE('',#1004,3.35416666666667,1.32581766366803);
#86=CONICAL_SURFACE('',#1024,3.35416666666667,1.32581766366803);
#87=CONICAL_SURFACE('',#1026,3.66666666666666,1.32581766366803);
#88=CONICAL_SURFACE('',#1035,4.33333333333333,1.32581766366803);
#89=CONICAL_SURFACE('',#1039,4.64583333333333,1.32581766366803);
#90=CONICAL_SURFACE('',#1055,4.33333333333333,1.32581766366803);
#91=CONICAL_SURFACE('',#1059,4.64583333333333,1.32581766366803);
#92=ORIENTED_EDGE('',*,*,#214,.T.);
#93=ORIENTED_EDGE('',*,*,#215,.F.);
#94=ORIENTED_EDGE('',*,*,#216,.T.);
#95=ORIENTED_EDGE('',*,*,#214,.F.);
#96=ORIENTED_EDGE('',*,*,#217,.T.);
#97=ORIENTED_EDGE('',*,*,#216,.F.);
#98=ORIENTED_EDGE('',*,*,#218,.T.);
#99=ORIENTED_EDGE('',*,*,#217,.F.);
#100=ORIENTED_EDGE('',*,*,#219,.T.);
#101=ORIENTED_EDGE('',*,*,#218,.F.);
#102=ORIENTED_EDGE('',*,*,#220,.T.);
#103=ORIENTED_EDGE('',*,*,#219,.F.);
#104=ORIENTED_EDGE('',*,*,#221,.T.);
#105=ORIENTED_EDGE('',*,*,#220,.F.);
#106=ORIENTED_EDGE('',*,*,#222,.T.);
#107=ORIENTED_EDGE('',*,*,#221,.F.);
#108=ORIENTED_EDGE('',*,*,#223,.T.);
#109=ORIENTED_EDGE('',*,*,#222,.F.);
#110=ORIENTED_EDGE('',*,*,#224,.T.);
#111=ORIENTED_EDGE('',*,*,#223,.F.);
#112=ORIENTED_EDGE('',*,*,#225,.T.);
#113=ORIENTED_EDGE('',*,*,#224,.F.);
#114=ORIENTED_EDGE('',*,*,#226,.T.);
#115=ORIENTED_EDGE('',*,*,#225,.F.);
#116=ORIENTED_EDGE('',*,*,#227,.T.);
#117=ORIENTED_EDGE('',*,*,#226,.F.);
#118=ORIENTED_EDGE('',*,*,#215,.T.);
#119=ORIENTED_EDGE('',*,*,#227,.F.);
#120=ORIENTED_EDGE('',*,*,#228,.F.);
#121=ORIENTED_EDGE('',*,*,#229,.T.);
#122=ORIENTED_EDGE('',*,*,#230,.F.);
#123=ORIENTED_EDGE('',*,*,#228,.T.);
#124=ORIENTED_EDGE('',*,*,#231,.F.);
#125=ORIENTED_EDGE('',*,*,#230,.T.);
#126=ORIENTED_EDGE('',*,*,#232,.F.);
#127=ORIENTED_EDGE('',*,*,#231,.T.);
#128=ORIENTED_EDGE('',*,*,#233,.F.);
#129=ORIENTED_EDGE('',*,*,#232,.T.);
#130=ORIENTED_EDGE('',*,*,#234,.F.);
#131=ORIENTED_EDGE('',*,*,#233,.T.);
#132=ORIENTED_EDGE('',*,*,#235,.F.);
#133=ORIENTED_EDGE('',*,*,#234,.T.);
#134=ORIENTED_EDGE('',*,*,#236,.F.);
#135=ORIENTED_EDGE('',*,*,#235,.T.);
#136=ORIENTED_EDGE('',*,*,#237,.F.);
#137=ORIENTED_EDGE('',*,*,#236,.T.);
#138=ORIENTED_EDGE('',*,*,#238,.F.);
#139=ORIENTED_EDGE('',*,*,#237,.T.);
#140=ORIENTED_EDGE('',*,*,#239,.F.);
#141=ORIENTED_EDGE('',*,*,#238,.T.);
#142=ORIENTED_EDGE('',*,*,#240,.F.);
#143=ORIENTED_EDGE('',*,*,#239,.T.);
#144=ORIENTED_EDGE('',*,*,#241,.F.);
#145=ORIENTED_EDGE('',*,*,#240,.T.);
#146=ORIENTED_EDGE('',*,*,#229,.F.);
#147=ORIENTED_EDGE('',*,*,#241,.T.);
#148=ORIENTED_EDGE('',*,*,#242,.F.);
#149=ORIENTED_EDGE('',*,*,#243,.T.);
#150=ORIENTED_EDGE('',*,*,#244,.T.);
#151=ORIENTED_EDGE('',*,*,#245,.F.);
#152=ORIENTED_EDGE('',*,*,#245,.T.);
#153=ORIENTED_EDGE('',*,*,#243,.F.);
#154=ORIENTED_EDGE('',*,*,#246,.T.);
#155=ORIENTED_EDGE('',*,*,#244,.F.);
#156=ORIENTED_EDGE('',*,*,#247,.F.);
#157=ORIENTED_EDGE('',*,*,#248,.T.);
#158=ORIENTED_EDGE('',*,*,#249,.T.);
#159=ORIENTED_EDGE('',*,*,#248,.F.);
#160=ORIENTED_EDGE('',*,*,#250,.T.);
#161=ORIENTED_EDGE('',*,*,#251,.F.);
#162=ORIENTED_EDGE('',*,*,#252,.F.);
#163=ORIENTED_EDGE('',*,*,#251,.T.);
#164=ORIENTED_EDGE('',*,*,#246,.F.);
#165=ORIENTED_EDGE('',*,*,#252,.T.);
#166=ORIENTED_EDGE('',*,*,#253,.T.);
#167=ORIENTED_EDGE('',*,*,#242,.T.);
#168=ORIENTED_EDGE('',*,*,#254,.T.);
#169=ORIENTED_EDGE('',*,*,#255,.T.);
#170=ORIENTED_EDGE('',*,*,#255,.F.);
#171=ORIENTED_EDGE('',*,*,#249,.F.);
#172=ORIENTED_EDGE('',*,*,#253,.F.);
#173=ORIENTED_EDGE('',*,*,#254,.F.);
#174=ORIENTED_EDGE('',*,*,#250,.F.);
#175=ORIENTED_EDGE('',*,*,#256,.T.);
#176=ORIENTED_EDGE('',*,*,#257,.F.);
#177=ORIENTED_EDGE('',*,*,#247,.T.);
#178=ORIENTED_EDGE('',*,*,#256,.F.);
#179=ORIENTED_EDGE('',*,*,#257,.T.);
#180=ORIENTED_EDGE('',*,*,#258,.T.);
#181=ORIENTED_EDGE('',*,*,#259,.F.);
#182=ORIENTED_EDGE('',*,*,#260,.T.);
#183=ORIENTED_EDGE('',*,*,#261,.F.);
#184=ORIENTED_EDGE('',*,*,#262,.F.);
#185=ORIENTED_EDGE('',*,*,#261,.T.);
#186=ORIENTED_EDGE('',*,*,#263,.F.);
#187=ORIENTED_EDGE('',*,*,#262,.T.);
#188=ORIENTED_EDGE('',*,*,#264,.F.);
#189=ORIENTED_EDGE('',*,*,#263,.T.);
#190=ORIENTED_EDGE('',*,*,#265,.F.);
#191=ORIENTED_EDGE('',*,*,#266,.T.);
#192=ORIENTED_EDGE('',*,*,#267,.T.);
#193=ORIENTED_EDGE('',*,*,#268,.F.);
#194=ORIENTED_EDGE('',*,*,#269,.F.);
#195=ORIENTED_EDGE('',*,*,#265,.T.);
#196=ORIENTED_EDGE('',*,*,#270,.T.);
#197=ORIENTED_EDGE('',*,*,#260,.F.);
#198=ORIENTED_EDGE('',*,*,#264,.T.);
#199=ORIENTED_EDGE('',*,*,#271,.F.);
#200=ORIENTED_EDGE('',*,*,#267,.F.);
#201=ORIENTED_EDGE('',*,*,#271,.T.);
#202=ORIENTED_EDGE('',*,*,#258,.F.);
#203=ORIENTED_EDGE('',*,*,#270,.F.);
#204=ORIENTED_EDGE('',*,*,#272,.T.);
#205=ORIENTED_EDGE('',*,*,#266,.F.);
#206=ORIENTED_EDGE('',*,*,#273,.T.);
#207=ORIENTED_EDGE('',*,*,#272,.F.);
#208=ORIENTED_EDGE('',*,*,#268,.T.);
#209=ORIENTED_EDGE('',*,*,#273,.F.);
#210=ORIENTED_EDGE('',*,*,#274,.F.);
#211=ORIENTED_EDGE('',*,*,#269,.T.);
#212=ORIENTED_EDGE('',*,*,#259,.T.);
#213=ORIENTED_EDGE('',*,*,#274,.T.);
#214=EDGE_CURVE('',#275,#275,#350,.T.);
#215=EDGE_CURVE('',#276,#276,#351,.T.);
#216=EDGE_CURVE('',#277,#277,#352,.T.);
#217=EDGE_CURVE('',#278,#278,#353,.T.);
#218=EDGE_CURVE('',#279,#279,#354,.T.);
#219=EDGE_CURVE('',#280,#280,#355,.T.);
#220=EDGE_CURVE('',#281,#281,#356,.T.);
#221=EDGE_CURVE('',#282,#282,#357,.T.);
#222=EDGE_CURVE('',#283,#283,#358,.T.);
#223=EDGE_CURVE('',#284,#284,#359,.T.);
#224=EDGE_CURVE('',#285,#285,#360,.T.);
#225=EDGE_CURVE('',#286,#286,#361,.T.);
#226=EDGE_CURVE('',#287,#287,#362,.T.);
#227=EDGE_CURVE('',#288,#288,#363,.T.);
#228=EDGE_CURVE('',#289,#289,#364,.T.);
#229=EDGE_CURVE('',#290,#290,#365,.T.);
#230=EDGE_CURVE('',#291,#291,#366,.T.);
#231=EDGE_CURVE('',#292,#292,#367,.T.);
#232=EDGE_CURVE('',#293,#293,#368,.T.);
#233=EDGE_CURVE('',#294,#294,#369,.T.);
#234=EDGE_CURVE('',#295,#295,#370,.T.);
#235=EDGE_CURVE('',#296,#296,#371,.T.);
#236=EDGE_CURVE('',#297,#297,#372,.T.);
#237=EDGE_CURVE('',#298,#298,#373,.T.);
#238=EDGE_CURVE('',#299,#299,#374,.T.);
#239=EDGE_CURVE('',#300,#300,#375,.T.);
#240=EDGE_CURVE('',#301,#301,#376,.T.);
#241=EDGE_CURVE('',#302,#302,#377,.T.);
#242=EDGE_CURVE('',#317,#317,#378,.T.);
#243=EDGE_CURVE('',#318,#318,#379,.T.);
#244=EDGE_CURVE('',#319,#319,#380,.T.);
#245=EDGE_CURVE('',#320,#320,#381,.T.);
#246=EDGE_CURVE('',#321,#321,#382,.T.);
#247=EDGE_CURVE('',#322,#322,#383,.T.);
#248=EDGE_CURVE('',#323,#323,#384,.T.);
#249=EDGE_CURVE('',#324,#324,#385,.T.);
#250=EDGE_CURVE('',#325,#325,#386,.T.);
#251=EDGE_CURVE('',#326,#326,#387,.T.);
#252=EDGE_CURVE('',#327,#327,#388,.T.);
#253=EDGE_CURVE('',#328,#328,#389,.T.);
#254=EDGE_CURVE('',#329,#329,#390,.F.);
#255=EDGE_CURVE('',#330,#330,#391,.F.);
#256=EDGE_CURVE('',#331,#331,#392,.T.);
#257=EDGE_CURVE('',#332,#332,#393,.T.);
#258=EDGE_CURVE('',#333,#333,#394,.T.);
#259=EDGE_CURVE('',#334,#334,#395,.T.);
#260=EDGE_CURVE('',#335,#335,#396,.T.);
#261=EDGE_CURVE('',#336,#336,#397,.T.);
#262=EDGE_CURVE('',#337,#337,#398,.T.);
#263=EDGE_CURVE('',#338,#338,#399,.T.);
#264=EDGE_CURVE('',#339,#339,#400,.T.);
#265=EDGE_CURVE('',#340,#340,#401,.T.);
#266=EDGE_CURVE('',#341,#341,#402,.T.);
#267=EDGE_CURVE('',#342,#342,#403,.T.);
#268=EDGE_CURVE('',#343,#343,#404,.T.);
#269=EDGE_CURVE('',#344,#344,#405,.T.);
#270=EDGE_CURVE('',#345,#345,#406,.F.);
#271=EDGE_CURVE('',#346,#346,#407,.T.);
#272=EDGE_CURVE('',#347,#347,#408,.T.);
#273=EDGE_CURVE('',#348,#348,#409,.T.);
#274=EDGE_CURVE('',#349,#349,#410,.T.);
#275=VERTEX_POINT('',#1340);
#276=VERTEX_POINT('',#1342);
#277=VERTEX_POINT('',#1345);
#278=VERTEX_POINT('',#1348);
#279=VERTEX_POINT('',#1351);
#280=VERTEX_POINT('',#1354);
#281=VERTEX_POINT('',#1357);
#282=VERTEX_POINT('',#1360);
#283=VERTEX_POINT('',#1363);
#284=VERTEX_POINT('',#1366);
#285=VERTEX_POINT('',#1369);
#286=VERTEX_POINT('',#1372);
#287=VERTEX_POINT('',#1375);
#288=VERTEX_POINT('',#1378);
#289=VERTEX_POINT('',#1382);
#290=VERTEX_POINT('',#1384);
#291=VERTEX_POINT('',#1387);
#292=VERTEX_POINT('',#1390);
#293=VERTEX_POINT('',#1393);
#294=VERTEX_POINT('',#1396);
#295=VERTEX_POINT('',#1399);
#296=VERTEX_POINT('',#1402);
#297=VERTEX_POINT('',#1405);
#298=VERTEX_POINT('',#1408);
#299=VERTEX_POINT('',#1411);
#300=VERTEX_POINT('',#1414);
#301=VERTEX_POINT('',#1417);
#302=VERTEX_POINT('',#1420);
#303=VERTEX_POINT('',#1423);
#304=VERTEX_POINT('',#1425);
#305=VERTEX_POINT('',#1427);
#306=VERTEX_POINT('',#1429);
#307=VERTEX_POINT('',#1431);
#308=VERTEX_POINT('',#1433);
#309=VERTEX_POINT('',#1435);
#310=VERTEX_POINT('',#1437);
#311=VERTEX_POINT('',#1439);
#312=VERTEX_POINT('',#1441);
#313=VERTEX_POINT('',#1443);
#314=VERTEX_POINT('',#1445);
#315=VERTEX_POINT('',#1447);
#316=VERTEX_POINT('',#1449);
#317=VERTEX_POINT('',#1452);
#318=VERTEX_POINT('',#1454);
#319=VERTEX_POINT('',#1457);
#320=VERTEX_POINT('',#1459);
#321=VERTEX_POINT('',#1463);
#322=VERTEX_POINT('',#1466);
#323=VERTEX_POINT('',#1468);
#324=VERTEX_POINT('',#1471);
#325=VERTEX_POINT('',#1474);
#326=VERTEX_POINT('',#1476);
#327=VERTEX_POINT('',#1479);
#328=VERTEX_POINT('',#1483);
#329=VERTEX_POINT('',#1486);
#330=VERTEX_POINT('',#1488);
#331=VERTEX_POINT('',#1493);
#332=VERTEX_POINT('',#1496);
#333=VERTEX_POINT('',#1500);
#334=VERTEX_POINT('',#1502);
#335=VERTEX_POINT('',#1505);
#336=VERTEX_POINT('',#1507);
#337=VERTEX_POINT('',#1510);
#338=VERTEX_POINT('',#1513);
#339=VERTEX_POINT('',#1516);
#340=VERTEX_POINT('',#1519);
#341=VERTEX_POINT('',#1521);
#342=VERTEX_POINT('',#1524);
#343=VERTEX_POINT('',#1526);
#344=VERTEX_POINT('',#1529);
#345=VERTEX_POINT('',#1532);
#346=VERTEX_POINT('',#1535);
#347=VERTEX_POINT('',#1540);
#348=VERTEX_POINT('',#1543);
#349=VERTEX_POINT('',#1547);
#350=CIRCLE('',#928,4.33333333333333);
#351=CIRCLE('',#929,4.64483333333333);
#352=CIRCLE('',#931,4.23410125581637);
#353=CIRCLE('',#933,3.68229166666666);
#354=CIRCLE('',#935,3.68229166666666);
#355=CIRCLE('',#937,3.65104166666666);
#356=CIRCLE('',#939,3.65104166666666);
#357=CIRCLE('',#941,4.25214345172854);
#358=CIRCLE('',#943,4.35137552924551);
#359=CIRCLE('',#945,4.61358333333333);
#360=CIRCLE('',#947,4.61358333333333);
#361=CIRCLE('',#949,4.4379377571325);
#362=CIRCLE('',#951,4.4066877571325);
#363=CIRCLE('',#953,4.64483333333333);
#364=CIRCLE('',#956,4.33333333333333);
#365=CIRCLE('',#957,4.64483333333333);
#366=CIRCLE('',#959,4.23410125581637);
#367=CIRCLE('',#961,3.68229166666666);
#368=CIRCLE('',#963,3.68229166666666);
#369=CIRCLE('',#965,3.65104166666666);
#370=CIRCLE('',#967,3.65104166666666);
#371=CIRCLE('',#969,4.25214345172854);
#372=CIRCLE('',#971,4.35137552924551);
#373=CIRCLE('',#973,4.61358333333333);
#374=CIRCLE('',#975,4.61358333333333);
#375=CIRCLE('',#977,4.4379377571325);
#376=CIRCLE('',#979,4.4066877571325);
#377=CIRCLE('',#981,4.64483333333333);
#378=CIRCLE('',#998,3.66666666666666);
#379=CIRCLE('',#999,3.66666666666666);
#380=CIRCLE('',#1001,3.35416666666667);
#381=CIRCLE('',#1002,3.35416666666667);
#382=CIRCLE('',#1005,3.66666666666666);
#383=CIRCLE('',#1007,3.66666666666666);
#384=CIRCLE('',#1008,3.66666666666666);
#385=CIRCLE('',#1010,3.1);
#386=CIRCLE('',#1012,3.66666666666666);
#387=CIRCLE('',#1013,3.66666666666666);
#388=CIRCLE('',#1015,3.66666666666666);
#389=CIRCLE('',#1018,3.1);
#390=CIRCLE('',#1020,3.);
#391=CIRCLE('',#1021,3.);
#392=CIRCLE('',#1025,3.35416666666667);
#393=CIRCLE('',#1027,3.35416666666667);
#394=CIRCLE('',#1030,5.);
#395=CIRCLE('',#1031,5.);
#396=CIRCLE('',#1033,4.33333333333333);
#397=CIRCLE('',#1034,4.33333333333333);
#398=CIRCLE('',#1036,4.64583333333333);
#399=CIRCLE('',#1038,4.64583333333333);
#400=CIRCLE('',#1040,4.33333333333333);
#401=CIRCLE('',#1042,4.33333333333333);
#402=CIRCLE('',#1043,4.33333333333333);
#403=CIRCLE('',#1045,4.33333333333333);
#404=CIRCLE('',#1046,4.33333333333333);
#405=CIRCLE('',#1048,5.6);
#406=CIRCLE('',#1050,4.9);
#407=CIRCLE('',#1052,4.33333333333333);
#408=CIRCLE('',#1056,4.64583333333333);
#409=CIRCLE('',#1058,4.64583333333333);
#410=CIRCLE('',#1061,5.6);
#411=EDGE_LOOP('',(#92));
#412=EDGE_LOOP('',(#93));
#413=EDGE_LOOP('',(#94));
#414=EDGE_LOOP('',(#95));
#415=EDGE_LOOP('',(#96));
#416=EDGE_LOOP('',(#97));
#417=EDGE_LOOP('',(#98));
#418=EDGE_LOOP('',(#99));
#419=EDGE_LOOP('',(#100));
#420=EDGE_LOOP('',(#101));
#421=EDGE_LOOP('',(#102));
#422=EDGE_LOOP('',(#103));
#423=EDGE_LOOP('',(#104));
#424=EDGE_LOOP('',(#105));
#425=EDGE_LOOP('',(#106));
#426=EDGE_LOOP('',(#107));
#427=EDGE_LOOP('',(#108));
#428=EDGE_LOOP('',(#109));
#429=EDGE_LOOP('',(#110));
#430=EDGE_LOOP('',(#111));
#431=EDGE_LOOP('',(#112));
#432=EDGE_LOOP('',(#113));
#433=EDGE_LOOP('',(#114));
#434=EDGE_LOOP('',(#115));
#435=EDGE_LOOP('',(#116));
#436=EDGE_LOOP('',(#117));
#437=EDGE_LOOP('',(#118));
#438=EDGE_LOOP('',(#119));
#439=EDGE_LOOP('',(#120));
#440=EDGE_LOOP('',(#121));
#441=EDGE_LOOP('',(#122));
#442=EDGE_LOOP('',(#123));
#443=EDGE_LOOP('',(#124));
#444=EDGE_LOOP('',(#125));
#445=EDGE_LOOP('',(#126));
#446=EDGE_LOOP('',(#127));
#447=EDGE_LOOP('',(#128));
#448=EDGE_LOOP('',(#129));
#449=EDGE_LOOP('',(#130));
#450=EDGE_LOOP('',(#131));
#451=EDGE_LOOP('',(#132));
#452=EDGE_LOOP('',(#133));
#453=EDGE_LOOP('',(#134));
#454=EDGE_LOOP('',(#135));
#455=EDGE_LOOP('',(#136));
#456=EDGE_LOOP('',(#137));
#457=EDGE_LOOP('',(#138));
#458=EDGE_LOOP('',(#139));
#459=EDGE_LOOP('',(#140));
#460=EDGE_LOOP('',(#141));
#461=EDGE_LOOP('',(#142));
#462=EDGE_LOOP('',(#143));
#463=EDGE_LOOP('',(#144));
#464=EDGE_LOOP('',(#145));
#465=EDGE_LOOP('',(#146));
#466=EDGE_LOOP('',(#147));
#467=EDGE_LOOP('',(#148));
#468=EDGE_LOOP('',(#149));
#469=EDGE_LOOP('',(#150));
#470=EDGE_LOOP('',(#151));
#471=EDGE_LOOP('',(#152));
#472=EDGE_LOOP('',(#153));
#473=EDGE_LOOP('',(#154));
#474=EDGE_LOOP('',(#155));
#475=EDGE_LOOP('',(#156));
#476=EDGE_LOOP('',(#157));
#477=EDGE_LOOP('',(#158));
#478=EDGE_LOOP('',(#159));
#479=EDGE_LOOP('',(#160));
#480=EDGE_LOOP('',(#161));
#481=EDGE_LOOP('',(#162));
#482=EDGE_LOOP('',(#163));
#483=EDGE_LOOP('',(#164));
#484=EDGE_LOOP('',(#165));
#485=EDGE_LOOP('',(#166));
#486=EDGE_LOOP('',(#167));
#487=EDGE_LOOP('',(#168));
#488=EDGE_LOOP('',(#169));
#489=EDGE_LOOP('',(#170));
#490=EDGE_LOOP('',(#171));
#491=EDGE_LOOP('',(#172));
#492=EDGE_LOOP('',(#173));
#493=EDGE_LOOP('',(#174));
#494=EDGE_LOOP('',(#175));
#495=EDGE_LOOP('',(#176));
#496=EDGE_LOOP('',(#177));
#497=EDGE_LOOP('',(#178));
#498=EDGE_LOOP('',(#179));
#499=EDGE_LOOP('',(#180));
#500=EDGE_LOOP('',(#181));
#501=EDGE_LOOP('',(#182));
#502=EDGE_LOOP('',(#183));
#503=EDGE_LOOP('',(#184));
#504=EDGE_LOOP('',(#185));
#505=EDGE_LOOP('',(#186));
#506=EDGE_LOOP('',(#187));
#507=EDGE_LOOP('',(#188));
#508=EDGE_LOOP('',(#189));
#509=EDGE_LOOP('',(#190));
#510=EDGE_LOOP('',(#191));
#511=EDGE_LOOP('',(#192));
#512=EDGE_LOOP('',(#193));
#513=EDGE_LOOP('',(#194));
#514=EDGE_LOOP('',(#195));
#515=EDGE_LOOP('',(#196));
#516=EDGE_LOOP('',(#197));
#517=EDGE_LOOP('',(#198));
#518=EDGE_LOOP('',(#199));
#519=EDGE_LOOP('',(#200));
#520=EDGE_LOOP('',(#201));
#521=EDGE_LOOP('',(#202));
#522=EDGE_LOOP('',(#203));
#523=EDGE_LOOP('',(#204));
#524=EDGE_LOOP('',(#205));
#525=EDGE_LOOP('',(#206));
#526=EDGE_LOOP('',(#207));
#527=EDGE_LOOP('',(#208));
#528=EDGE_LOOP('',(#209));
#529=EDGE_LOOP('',(#210));
#530=EDGE_LOOP('',(#211));
#531=EDGE_LOOP('',(#212));
#532=EDGE_LOOP('',(#213));
#533=FACE_BOUND('',#411,.T.);
#534=FACE_BOUND('',#412,.T.);
#535=FACE_BOUND('',#413,.T.);
#536=FACE_BOUND('',#414,.T.);
#537=FACE_BOUND('',#415,.T.);
#538=FACE_BOUND('',#416,.T.);
#539=FACE_BOUND('',#417,.T.);
#540=FACE_BOUND('',#418,.T.);
#541=FACE_BOUND('',#419,.T.);
#542=FACE_BOUND('',#420,.T.);
#543=FACE_BOUND('',#421,.T.);
#544=FACE_BOUND('',#422,.T.);
#545=FACE_BOUND('',#423,.T.);
#546=FACE_BOUND('',#424,.T.);
#547=FACE_BOUND('',#425,.T.);
#548=FACE_BOUND('',#426,.T.);
#549=FACE_BOUND('',#427,.T.);
#550=FACE_BOUND('',#428,.T.);
#551=FACE_BOUND('',#429,.T.);
#552=FACE_BOUND('',#430,.T.);
#553=FACE_BOUND('',#431,.T.);
#554=FACE_BOUND('',#432,.T.);
#555=FACE_BOUND('',#433,.T.);
#556=FACE_BOUND('',#434,.T.);
#557=FACE_BOUND('',#435,.T.);
#558=FACE_BOUND('',#436,.T.);
#559=FACE_BOUND('',#437,.T.);
#560=FACE_BOUND('',#438,.T.);
#561=FACE_BOUND('',#439,.T.);
#562=FACE_BOUND('',#440,.T.);
#563=FACE_BOUND('',#441,.T.);
#564=FACE_BOUND('',#442,.T.);
#565=FACE_BOUND('',#443,.T.);
#566=FACE_BOUND('',#444,.T.);
#567=FACE_BOUND('',#445,.T.);
#568=FACE_BOUND('',#446,.T.);
#569=FACE_BOUND('',#447,.T.);
#570=FACE_BOUND('',#448,.T.);
#571=FACE_BOUND('',#449,.T.);
#572=FACE_BOUND('',#450,.T.);
#573=FACE_BOUND('',#451,.T.);
#574=FACE_BOUND('',#452,.T.);
#575=FACE_BOUND('',#453,.T.);
#576=FACE_BOUND('',#454,.T.);
#577=FACE_BOUND('',#455,.T.);
#578=FACE_BOUND('',#456,.T.);
#579=FACE_BOUND('',#457,.T.);
#580=FACE_BOUND('',#458,.T.);
#581=FACE_BOUND('',#459,.T.);
#582=FACE_BOUND('',#460,.T.);
#583=FACE_BOUND('',#461,.T.);
#584=FACE_BOUND('',#462,.T.);
#585=FACE_BOUND('',#463,.T.);
#586=FACE_BOUND('',#464,.T.);
#587=FACE_BOUND('',#465,.T.);
#588=FACE_BOUND('',#466,.T.);
#589=FACE_BOUND('',#18,.T.);
#590=FACE_BOUND('',#19,.T.);
#591=FACE_BOUND('',#20,.T.);
#592=FACE_BOUND('',#21,.T.);
#593=FACE_BOUND('',#22,.T.);
#594=FACE_BOUND('',#23,.T.);
#595=FACE_BOUND('',#24,.T.);
#596=FACE_BOUND('',#25,.T.);
#597=FACE_BOUND('',#26,.T.);
#598=FACE_BOUND('',#27,.T.);
#599=FACE_BOUND('',#28,.T.);
#600=FACE_BOUND('',#29,.T.);
#601=FACE_BOUND('',#30,.T.);
#602=FACE_BOUND('',#31,.T.);
#603=FACE_BOUND('',#467,.T.);
#604=FACE_BOUND('',#468,.T.);
#605=FACE_BOUND('',#469,.T.);
#606=FACE_BOUND('',#470,.T.);
#607=FACE_BOUND('',#471,.T.);
#608=FACE_BOUND('',#472,.T.);
#609=FACE_BOUND('',#473,.T.);
#610=FACE_BOUND('',#474,.T.);
#611=FACE_BOUND('',#475,.T.);
#612=FACE_BOUND('',#476,.T.);
#613=FACE_BOUND('',#477,.T.);
#614=FACE_BOUND('',#478,.T.);
#615=FACE_BOUND('',#479,.T.);
#616=FACE_BOUND('',#480,.T.);
#617=FACE_BOUND('',#481,.T.);
#618=FACE_BOUND('',#482,.T.);
#619=FACE_BOUND('',#483,.T.);
#620=FACE_BOUND('',#484,.T.);
#621=FACE_BOUND('',#485,.T.);
#622=FACE_BOUND('',#486,.T.);
#623=FACE_BOUND('',#487,.T.);
#624=FACE_BOUND('',#488,.T.);
#625=FACE_BOUND('',#489,.T.);
#626=FACE_BOUND('',#490,.T.);
#627=FACE_BOUND('',#491,.T.);
#628=FACE_BOUND('',#492,.T.);
#629=FACE_BOUND('',#493,.T.);
#630=FACE_BOUND('',#494,.T.);
#631=FACE_BOUND('',#495,.T.);
#632=FACE_BOUND('',#496,.T.);
#633=FACE_BOUND('',#497,.T.);
#634=FACE_BOUND('',#498,.T.);
#635=FACE_BOUND('',#499,.T.);
#636=FACE_BOUND('',#500,.T.);
#637=FACE_BOUND('',#501,.T.);
#638=FACE_BOUND('',#502,.T.);
#639=FACE_BOUND('',#503,.T.);
#640=FACE_BOUND('',#504,.T.);
#641=FACE_BOUND('',#505,.T.);
#642=FACE_BOUND('',#506,.T.);
#643=FACE_BOUND('',#507,.T.);
#644=FACE_BOUND('',#508,.T.);
#645=FACE_BOUND('',#509,.T.);
#646=FACE_BOUND('',#510,.T.);
#647=FACE_BOUND('',#511,.T.);
#648=FACE_BOUND('',#512,.T.);
#649=FACE_BOUND('',#513,.T.);
#650=FACE_BOUND('',#514,.T.);
#651=FACE_BOUND('',#515,.T.);
#652=FACE_BOUND('',#516,.T.);
#653=FACE_BOUND('',#517,.T.);
#654=FACE_BOUND('',#518,.T.);
#655=FACE_BOUND('',#519,.T.);
#656=FACE_BOUND('',#520,.T.);
#657=FACE_BOUND('',#521,.T.);
#658=FACE_BOUND('',#522,.T.);
#659=FACE_BOUND('',#523,.T.);
#660=FACE_BOUND('',#524,.T.);
#661=FACE_BOUND('',#525,.T.);
#662=FACE_BOUND('',#526,.T.);
#663=FACE_BOUND('',#527,.T.);
#664=FACE_BOUND('',#528,.T.);
#665=FACE_BOUND('',#529,.T.);
#666=FACE_BOUND('',#530,.T.);
#667=FACE_BOUND('',#531,.T.);
#668=FACE_BOUND('',#532,.T.);
#669=PLANE('',#927);
#670=PLANE('',#932);
#671=PLANE('',#936);
#672=PLANE('',#940);
#673=PLANE('',#944);
#674=PLANE('',#950);
#675=PLANE('',#955);
#676=PLANE('',#960);
#677=PLANE('',#964);
#678=PLANE('',#968);
#679=PLANE('',#972);
#680=PLANE('',#978);
#681=PLANE('',#1009);
#682=PLANE('',#1017);
#683=PLANE('',#1047);
#684=PLANE('',#1049);
#685=PLANE('',#1062);
#686=ADVANCED_FACE('',(#533,#534),#669,.F.);
#687=ADVANCED_FACE('',(#535,#536),#80,.F.);
#688=ADVANCED_FACE('',(#537,#538),#670,.F.);
#689=ADVANCED_FACE('',(#539,#540),#57,.T.);
#690=ADVANCED_FACE('',(#541,#542),#671,.F.);
#691=ADVANCED_FACE('',(#543,#544),#58,.F.);
#692=ADVANCED_FACE('',(#545,#546),#672,.F.);
#693=ADVANCED_FACE('',(#547,#548),#81,.T.);
#694=ADVANCED_FACE('',(#549,#550),#673,.F.);
#695=ADVANCED_FACE('',(#551,#552),#59,.F.);
#696=ADVANCED_FACE('',(#553,#554),#48,.F.);
#697=ADVANCED_FACE('',(#555,#556),#674,.F.);
#698=ADVANCED_FACE('',(#557,#558),#49,.T.);
#699=ADVANCED_FACE('',(#559,#560),#60,.T.);
#700=ADVANCED_FACE('',(#561,#562),#675,.F.);
#701=ADVANCED_FACE('',(#563,#564),#82,.F.);
#702=ADVANCED_FACE('',(#565,#566),#676,.F.);
#703=ADVANCED_FACE('',(#567,#568),#61,.T.);
#704=ADVANCED_FACE('',(#569,#570),#677,.F.);
#705=ADVANCED_FACE('',(#571,#572),#62,.F.);
#706=ADVANCED_FACE('',(#573,#574),#678,.F.);
#707=ADVANCED_FACE('',(#575,#576),#83,.T.);
#708=ADVANCED_FACE('',(#577,#578),#679,.F.);
#709=ADVANCED_FACE('',(#579,#580),#63,.F.);
#710=ADVANCED_FACE('',(#581,#582),#50,.F.);
#711=ADVANCED_FACE('',(#583,#584),#680,.F.);
#712=ADVANCED_FACE('',(#585,#586),#51,.T.);
#713=ADVANCED_FACE('',(#587,#588),#64,.T.);
#714=ADVANCED_FACE('',(#589),#32,.T.);
#715=ADVANCED_FACE('',(#590),#33,.T.);
#716=ADVANCED_FACE('',(#591),#34,.T.);
#717=ADVANCED_FACE('',(#592),#35,.T.);
#718=ADVANCED_FACE('',(#593),#36,.T.);
#719=ADVANCED_FACE('',(#594),#37,.T.);
#720=ADVANCED_FACE('',(#595),#38,.T.);
#721=ADVANCED_FACE('',(#596),#39,.T.);
#722=ADVANCED_FACE('',(#597),#40,.T.);
#723=ADVANCED_FACE('',(#598),#41,.T.);
#724=ADVANCED_FACE('',(#599),#42,.T.);
#725=ADVANCED_FACE('',(#600),#43,.T.);
#726=ADVANCED_FACE('',(#601),#44,.T.);
#727=ADVANCED_FACE('',(#602),#45,.T.);
#728=ADVANCED_FACE('',(#603,#604),#65,.T.);
#729=ADVANCED_FACE('',(#605,#606),#66,.T.);
#730=ADVANCED_FACE('',(#607,#608),#84,.T.);
#731=ADVANCED_FACE('',(#609,#610),#85,.T.);
#732=ADVANCED_FACE('',(#611,#612),#67,.T.);
#733=ADVANCED_FACE('',(#613,#614),#681,.F.);
#734=ADVANCED_FACE('',(#615,#616),#68,.T.);
#735=ADVANCED_FACE('',(#617,#618),#52,.F.);
#736=ADVANCED_FACE('',(#619,#620),#69,.T.);
#737=ADVANCED_FACE('',(#621,#622),#682,.F.);
#738=ADVANCED_FACE('',(#623,#624),#70,.F.);
#739=ADVANCED_FACE('',(#625,#626),#53,.T.);
#740=ADVANCED_FACE('',(#627,#628),#54,.T.);
#741=ADVANCED_FACE('',(#629,#630),#86,.T.);
#742=ADVANCED_FACE('',(#631,#632),#87,.T.);
#743=ADVANCED_FACE('',(#633,#634),#71,.T.);
#744=ADVANCED_FACE('',(#635,#636),#72,.T.);
#745=ADVANCED_FACE('',(#637,#638),#73,.F.);
#746=ADVANCED_FACE('',(#639,#640),#88,.F.);
#747=ADVANCED_FACE('',(#641,#642),#74,.F.);
#748=ADVANCED_FACE('',(#643,#644),#89,.F.);
#749=ADVANCED_FACE('',(#645,#646),#75,.F.);
#750=ADVANCED_FACE('',(#647,#648),#76,.F.);
#751=ADVANCED_FACE('',(#649,#650),#683,.F.);
#752=ADVANCED_FACE('',(#651,#652),#684,.F.);
#753=ADVANCED_FACE('',(#653,#654),#77,.F.);
#754=ADVANCED_FACE('',(#655,#656),#55,.F.);
#755=ADVANCED_FACE('',(#657,#658),#56,.T.);
#756=ADVANCED_FACE('',(#659,#660),#90,.F.);
#757=ADVANCED_FACE('',(#661,#662),#78,.F.);
#758=ADVANCED_FACE('',(#663,#664),#91,.F.);
#759=ADVANCED_FACE('',(#665,#666),#79,.T.);
#760=ADVANCED_FACE('',(#667,#668),#685,.F.);
#761=CLOSED_SHELL('',(#686,#687,#688,#689,#690,#691,#692,#693,#694,#695,
#696,#697,#698,#699));
#762=CLOSED_SHELL('',(#700,#701,#702,#703,#704,#705,#706,#707,#708,#709,
#710,#711,#712,#713));
#763=CLOSED_SHELL('',(#714));
#764=CLOSED_SHELL('',(#715));
#765=CLOSED_SHELL('',(#716));
#766=CLOSED_SHELL('',(#717));
#767=CLOSED_SHELL('',(#718));
#768=CLOSED_SHELL('',(#719));
#769=CLOSED_SHELL('',(#720));
#770=CLOSED_SHELL('',(#721));
#771=CLOSED_SHELL('',(#722));
#772=CLOSED_SHELL('',(#723));
#773=CLOSED_SHELL('',(#724));
#774=CLOSED_SHELL('',(#725));
#775=CLOSED_SHELL('',(#726));
#776=CLOSED_SHELL('',(#727));
#777=CLOSED_SHELL('',(#728,#729,#730,#731,#732,#733,#734,#735,#736,#737,
#738,#739,#740,#741,#742,#743));
#778=CLOSED_SHELL('',(#744,#745,#746,#747,#748,#749,#750,#751,#752,#753,
#754,#755,#756,#757,#758,#759,#760));
#779=STYLED_ITEM('',(#797),#906);
#780=STYLED_ITEM('',(#798),#907);
#781=STYLED_ITEM('',(#799),#908);
#782=STYLED_ITEM('',(#800),#909);
#783=STYLED_ITEM('',(#801),#910);
#784=STYLED_ITEM('',(#802),#911);
#785=STYLED_ITEM('',(#803),#912);
#786=STYLED_ITEM('',(#804),#913);
#787=STYLED_ITEM('',(#805),#914);
#788=STYLED_ITEM('',(#806),#915);
#789=STYLED_ITEM('',(#807),#916);
#790=STYLED_ITEM('',(#808),#917);
#791=STYLED_ITEM('',(#809),#918);
#792=STYLED_ITEM('',(#810),#919);
#793=STYLED_ITEM('',(#811),#920);
#794=STYLED_ITEM('',(#812),#921);
#795=STYLED_ITEM('',(#813),#922);
#796=STYLED_ITEM('',(#814),#923);
#797=PRESENTATION_STYLE_ASSIGNMENT((#815));
#798=PRESENTATION_STYLE_ASSIGNMENT((#816));
#799=PRESENTATION_STYLE_ASSIGNMENT((#817));
#800=PRESENTATION_STYLE_ASSIGNMENT((#818));
#801=PRESENTATION_STYLE_ASSIGNMENT((#819));
#802=PRESENTATION_STYLE_ASSIGNMENT((#820));
#803=PRESENTATION_STYLE_ASSIGNMENT((#821));
#804=PRESENTATION_STYLE_ASSIGNMENT((#822));
#805=PRESENTATION_STYLE_ASSIGNMENT((#823));
#806=PRESENTATION_STYLE_ASSIGNMENT((#824));
#807=PRESENTATION_STYLE_ASSIGNMENT((#825));
#808=PRESENTATION_STYLE_ASSIGNMENT((#826));
#809=PRESENTATION_STYLE_ASSIGNMENT((#827));
#810=PRESENTATION_STYLE_ASSIGNMENT((#828));
#811=PRESENTATION_STYLE_ASSIGNMENT((#829));
#812=PRESENTATION_STYLE_ASSIGNMENT((#830));
#813=PRESENTATION_STYLE_ASSIGNMENT((#831));
#814=PRESENTATION_STYLE_ASSIGNMENT((#832));
#815=SURFACE_STYLE_USAGE(.BOTH.,#833);
#816=SURFACE_STYLE_USAGE(.BOTH.,#834);
#817=SURFACE_STYLE_USAGE(.BOTH.,#835);
#818=SURFACE_STYLE_USAGE(.BOTH.,#836);
#819=SURFACE_STYLE_USAGE(.BOTH.,#837);
#820=SURFACE_STYLE_USAGE(.BOTH.,#838);
#821=SURFACE_STYLE_USAGE(.BOTH.,#839);
#822=SURFACE_STYLE_USAGE(.BOTH.,#840);
#823=SURFACE_STYLE_USAGE(.BOTH.,#841);
#824=SURFACE_STYLE_USAGE(.BOTH.,#842);
#825=SURFACE_STYLE_USAGE(.BOTH.,#843);
#826=SURFACE_STYLE_USAGE(.BOTH.,#844);
#827=SURFACE_STYLE_USAGE(.BOTH.,#845);
#828=SURFACE_STYLE_USAGE(.BOTH.,#846);
#829=SURFACE_STYLE_USAGE(.BOTH.,#847);
#830=SURFACE_STYLE_USAGE(.BOTH.,#848);
#831=SURFACE_STYLE_USAGE(.BOTH.,#849);
#832=SURFACE_STYLE_USAGE(.BOTH.,#850);
#833=SURFACE_SIDE_STYLE('',(#851));
#834=SURFACE_SIDE_STYLE('',(#852));
#835=SURFACE_SIDE_STYLE('',(#853));
#836=SURFACE_SIDE_STYLE('',(#854));
#837=SURFACE_SIDE_STYLE('',(#855));
#838=SURFACE_SIDE_STYLE('',(#856));
#839=SURFACE_SIDE_STYLE('',(#857));
#840=SURFACE_SIDE_STYLE('',(#858));
#841=SURFACE_SIDE_STYLE('',(#859));
#842=SURFACE_SIDE_STYLE('',(#860));
#843=SURFACE_SIDE_STYLE('',(#861));
#844=SURFACE_SIDE_STYLE('',(#862));
#845=SURFACE_SIDE_STYLE('',(#863));
#846=SURFACE_SIDE_STYLE('',(#864));
#847=SURFACE_SIDE_STYLE('',(#865));
#848=SURFACE_SIDE_STYLE('',(#866));
#849=SURFACE_SIDE_STYLE('',(#867));
#850=SURFACE_SIDE_STYLE('',(#868));
#851=SURFACE_STYLE_FILL_AREA(#869);
#852=SURFACE_STYLE_FILL_AREA(#870);
#853=SURFACE_STYLE_FILL_AREA(#871);
#854=SURFACE_STYLE_FILL_AREA(#872);
#855=SURFACE_STYLE_FILL_AREA(#873);
#856=SURFACE_STYLE_FILL_AREA(#874);
#857=SURFACE_STYLE_FILL_AREA(#875);
#858=SURFACE_STYLE_FILL_AREA(#876);
#859=SURFACE_STYLE_FILL_AREA(#877);
#860=SURFACE_STYLE_FILL_AREA(#878);
#861=SURFACE_STYLE_FILL_AREA(#879);
#862=SURFACE_STYLE_FILL_AREA(#880);
#863=SURFACE_STYLE_FILL_AREA(#881);
#864=SURFACE_STYLE_FILL_AREA(#882);
#865=SURFACE_STYLE_FILL_AREA(#883);
#866=SURFACE_STYLE_FILL_AREA(#884);
#867=SURFACE_STYLE_FILL_AREA(#885);
#868=SURFACE_STYLE_FILL_AREA(#886);
#869=FILL_AREA_STYLE('',(#887));
#870=FILL_AREA_STYLE('',(#888));
#871=FILL_AREA_STYLE('',(#889));
#872=FILL_AREA_STYLE('',(#890));
#873=FILL_AREA_STYLE('',(#891));
#874=FILL_AREA_STYLE('',(#892));
#875=FILL_AREA_STYLE('',(#893));
#876=FILL_AREA_STYLE('',(#894));
#877=FILL_AREA_STYLE('',(#895));
#878=FILL_AREA_STYLE('',(#896));
#879=FILL_AREA_STYLE('',(#897));
#880=FILL_AREA_STYLE('',(#898));
#881=FILL_AREA_STYLE('',(#899));
#882=FILL_AREA_STYLE('',(#900));
#883=FILL_AREA_STYLE('',(#901));
#884=FILL_AREA_STYLE('',(#902));
#885=FILL_AREA_STYLE('',(#903));
#886=FILL_AREA_STYLE('',(#904));
#887=FILL_AREA_STYLE_COLOUR('',#905);
#888=FILL_AREA_STYLE_COLOUR('',#905);
#889=FILL_AREA_STYLE_COLOUR('',#905);
#890=FILL_AREA_STYLE_COLOUR('',#905);
#891=FILL_AREA_STYLE_COLOUR('',#905);
#892=FILL_AREA_STYLE_COLOUR('',#905);
#893=FILL_AREA_STYLE_COLOUR('',#905);
#894=FILL_AREA_STYLE_COLOUR('',#905);
#895=FILL_AREA_STYLE_COLOUR('',#905);
#896=FILL_AREA_STYLE_COLOUR('',#905);
#897=FILL_AREA_STYLE_COLOUR('',#905);
#898=FILL_AREA_STYLE_COLOUR('',#905);
#899=FILL_AREA_STYLE_COLOUR('',#905);
#900=FILL_AREA_STYLE_COLOUR('',#905);
#901=FILL_AREA_STYLE_COLOUR('',#905);
#902=FILL_AREA_STYLE_COLOUR('',#905);
#903=FILL_AREA_STYLE_COLOUR('',#905);
#904=FILL_AREA_STYLE_COLOUR('',#905);
#905=COLOUR_RGB('',0.506983280181885,0.531564235687256,0.550000011920929);
#906=MANIFOLD_SOLID_BREP('',#761);
#907=MANIFOLD_SOLID_BREP('',#762);
#908=MANIFOLD_SOLID_BREP('',#763);
#909=MANIFOLD_SOLID_BREP('',#764);
#910=MANIFOLD_SOLID_BREP('',#765);
#911=MANIFOLD_SOLID_BREP('',#766);
#912=MANIFOLD_SOLID_BREP('',#767);
#913=MANIFOLD_SOLID_BREP('',#768);
#914=MANIFOLD_SOLID_BREP('',#769);
#915=MANIFOLD_SOLID_BREP('',#770);
#916=MANIFOLD_SOLID_BREP('',#771);
#917=MANIFOLD_SOLID_BREP('',#772);
#918=MANIFOLD_SOLID_BREP('',#773);
#919=MANIFOLD_SOLID_BREP('',#774);
#920=MANIFOLD_SOLID_BREP('',#775);
#921=MANIFOLD_SOLID_BREP('',#776);
#922=MANIFOLD_SOLID_BREP('',#777);
#923=MANIFOLD_SOLID_BREP('',#778);
#924=SHAPE_DEFINITION_REPRESENTATION(#1555,#925);
#925=SHAPE_REPRESENTATION('\X2\6DF16C9F74038F74627F\X0\F 60000-2Z\X2\578B\X0\',
(#926),#1550);
#926=AXIS2_PLACEMENT_3D('',#1337,#1063,#1064);
#927=AXIS2_PLACEMENT_3D('',#1338,#1065,#1066);
#928=AXIS2_PLACEMENT_3D('',#1339,#1067,#1068);
#929=AXIS2_PLACEMENT_3D('',#1341,#1069,#1070);
#930=AXIS2_PLACEMENT_3D('',#1343,#1071,#1072);
#931=AXIS2_PLACEMENT_3D('',#1344,#1073,#1074);
#932=AXIS2_PLACEMENT_3D('',#1346,#1075,#1076);
#933=AXIS2_PLACEMENT_3D('',#1347,#1077,#1078);
#934=AXIS2_PLACEMENT_3D('',#1349,#1079,#1080);
#935=AXIS2_PLACEMENT_3D('',#1350,#1081,#1082);
#936=AXIS2_PLACEMENT_3D('',#1352,#1083,#1084);
#937=AXIS2_PLACEMENT_3D('',#1353,#1085,#1086);
#938=AXIS2_PLACEMENT_3D('',#1355,#1087,#1088);
#939=AXIS2_PLACEMENT_3D('',#1356,#1089,#1090);
#940=AXIS2_PLACEMENT_3D('',#1358,#1091,#1092);
#941=AXIS2_PLACEMENT_3D('',#1359,#1093,#1094);
#942=AXIS2_PLACEMENT_3D('',#1361,#1095,#1096);
#943=AXIS2_PLACEMENT_3D('',#1362,#1097,#1098);
#944=AXIS2_PLACEMENT_3D('',#1364,#1099,#1100);
#945=AXIS2_PLACEMENT_3D('',#1365,#1101,#1102);
#946=AXIS2_PLACEMENT_3D('',#1367,#1103,#1104);
#947=AXIS2_PLACEMENT_3D('',#1368,#1105,#1106);
#948=AXIS2_PLACEMENT_3D('',#1370,#1107,#1108);
#949=AXIS2_PLACEMENT_3D('',#1371,#1109,#1110);
#950=AXIS2_PLACEMENT_3D('',#1373,#1111,#1112);
#951=AXIS2_PLACEMENT_3D('',#1374,#1113,#1114);
#952=AXIS2_PLACEMENT_3D('',#1376,#1115,#1116);
#953=AXIS2_PLACEMENT_3D('',#1377,#1117,#1118);
#954=AXIS2_PLACEMENT_3D('',#1379,#1119,#1120);
#955=AXIS2_PLACEMENT_3D('',#1380,#1121,#1122);
#956=AXIS2_PLACEMENT_3D('',#1381,#1123,#1124);
#957=AXIS2_PLACEMENT_3D('',#1383,#1125,#1126);
#958=AXIS2_PLACEMENT_3D('',#1385,#1127,#1128);
#959=AXIS2_PLACEMENT_3D('',#1386,#1129,#1130);
#960=AXIS2_PLACEMENT_3D('',#1388,#1131,#1132);
#961=AXIS2_PLACEMENT_3D('',#1389,#1133,#1134);
#962=AXIS2_PLACEMENT_3D('',#1391,#1135,#1136);
#963=AXIS2_PLACEMENT_3D('',#1392,#1137,#1138);
#964=AXIS2_PLACEMENT_3D('',#1394,#1139,#1140);
#965=AXIS2_PLACEMENT_3D('',#1395,#1141,#1142);
#966=AXIS2_PLACEMENT_3D('',#1397,#1143,#1144);
#967=AXIS2_PLACEMENT_3D('',#1398,#1145,#1146);
#968=AXIS2_PLACEMENT_3D('',#1400,#1147,#1148);
#969=AXIS2_PLACEMENT_3D('',#1401,#1149,#1150);
#970=AXIS2_PLACEMENT_3D('',#1403,#1151,#1152);
#971=AXIS2_PLACEMENT_3D('',#1404,#1153,#1154);
#972=AXIS2_PLACEMENT_3D('',#1406,#1155,#1156);
#973=AXIS2_PLACEMENT_3D('',#1407,#1157,#1158);
#974=AXIS2_PLACEMENT_3D('',#1409,#1159,#1160);
#975=AXIS2_PLACEMENT_3D('',#1410,#1161,#1162);
#976=AXIS2_PLACEMENT_3D('',#1412,#1163,#1164);
#977=AXIS2_PLACEMENT_3D('',#1413,#1165,#1166);
#978=AXIS2_PLACEMENT_3D('',#1415,#1167,#1168);
#979=AXIS2_PLACEMENT_3D('',#1416,#1169,#1170);
#980=AXIS2_PLACEMENT_3D('',#1418,#1171,#1172);
#981=AXIS2_PLACEMENT_3D('',#1419,#1173,#1174);
#982=AXIS2_PLACEMENT_3D('',#1421,#1175,#1176);
#983=AXIS2_PLACEMENT_3D('',#1422,#1177,#1178);
#984=AXIS2_PLACEMENT_3D('',#1424,#1179,#1180);
#985=AXIS2_PLACEMENT_3D('',#1426,#1181,#1182);
#986=AXIS2_PLACEMENT_3D('',#1428,#1183,#1184);
#987=AXIS2_PLACEMENT_3D('',#1430,#1185,#1186);
#988=AXIS2_PLACEMENT_3D('',#1432,#1187,#1188);
#989=AXIS2_PLACEMENT_3D('',#1434,#1189,#1190);
#990=AXIS2_PLACEMENT_3D('',#1436,#1191,#1192);
#991=AXIS2_PLACEMENT_3D('',#1438,#1193,#1194);
#992=AXIS2_PLACEMENT_3D('',#1440,#1195,#1196);
#993=AXIS2_PLACEMENT_3D('',#1442,#1197,#1198);
#994=AXIS2_PLACEMENT_3D('',#1444,#1199,#1200);
#995=AXIS2_PLACEMENT_3D('',#1446,#1201,#1202);
#996=AXIS2_PLACEMENT_3D('',#1448,#1203,#1204);
#997=AXIS2_PLACEMENT_3D('',#1450,#1205,#1206);
#998=AXIS2_PLACEMENT_3D('',#1451,#1207,#1208);
#999=AXIS2_PLACEMENT_3D('',#1453,#1209,#1210);
#1000=AXIS2_PLACEMENT_3D('',#1455,#1211,#1212);
#1001=AXIS2_PLACEMENT_3D('',#1456,#1213,#1214);
#1002=AXIS2_PLACEMENT_3D('',#1458,#1215,#1216);
#1003=AXIS2_PLACEMENT_3D('',#1460,#1217,#1218);
#1004=AXIS2_PLACEMENT_3D('',#1461,#1219,#1220);
#1005=AXIS2_PLACEMENT_3D('',#1462,#1221,#1222);
#1006=AXIS2_PLACEMENT_3D('',#1464,#1223,#1224);
#1007=AXIS2_PLACEMENT_3D('',#1465,#1225,#1226);
#1008=AXIS2_PLACEMENT_3D('',#1467,#1227,#1228);
#1009=AXIS2_PLACEMENT_3D('',#1469,#1229,#1230);
#1010=AXIS2_PLACEMENT_3D('',#1470,#1231,#1232);
#1011=AXIS2_PLACEMENT_3D('',#1472,#1233,#1234);
#1012=AXIS2_PLACEMENT_3D('',#1473,#1235,#1236);
#1013=AXIS2_PLACEMENT_3D('',#1475,#1237,#1238);
#1014=AXIS2_PLACEMENT_3D('',#1477,#1239,#1240);
#1015=AXIS2_PLACEMENT_3D('',#1478,#1241,#1242);
#1016=AXIS2_PLACEMENT_3D('',#1480,#1243,#1244);
#1017=AXIS2_PLACEMENT_3D('',#1481,#1245,#1246);
#1018=AXIS2_PLACEMENT_3D('',#1482,#1247,#1248);
#1019=AXIS2_PLACEMENT_3D('',#1484,#1249,#1250);
#1020=AXIS2_PLACEMENT_3D('',#1485,#1251,#1252);
#1021=AXIS2_PLACEMENT_3D('',#1487,#1253,#1254);
#1022=AXIS2_PLACEMENT_3D('',#1489,#1255,#1256);
#1023=AXIS2_PLACEMENT_3D('',#1490,#1257,#1258);
#1024=AXIS2_PLACEMENT_3D('',#1491,#1259,#1260);
#1025=AXIS2_PLACEMENT_3D('',#1492,#1261,#1262);
#1026=AXIS2_PLACEMENT_3D('',#1494,#1263,#1264);
#1027=AXIS2_PLACEMENT_3D('',#1495,#1265,#1266);
#1028=AXIS2_PLACEMENT_3D('',#1497,#1267,#1268);
#1029=AXIS2_PLACEMENT_3D('',#1498,#1269,#1270);
#1030=AXIS2_PLACEMENT_3D('',#1499,#1271,#1272);
#1031=AXIS2_PLACEMENT_3D('',#1501,#1273,#1274);
#1032=AXIS2_PLACEMENT_3D('',#1503,#1275,#1276);
#1033=AXIS2_PLACEMENT_3D('',#1504,#1277,#1278);
#1034=AXIS2_PLACEMENT_3D('',#1506,#1279,#1280);
#1035=AXIS2_PLACEMENT_3D('',#1508,#1281,#1282);
#1036=AXIS2_PLACEMENT_3D('',#1509,#1283,#1284);
#1037=AXIS2_PLACEMENT_3D('',#1511,#1285,#1286);
#1038=AXIS2_PLACEMENT_3D('',#1512,#1287,#1288);
#1039=AXIS2_PLACEMENT_3D('',#1514,#1289,#1290);
#1040=AXIS2_PLACEMENT_3D('',#1515,#1291,#1292);
#1041=AXIS2_PLACEMENT_3D('',#1517,#1293,#1294);
#1042=AXIS2_PLACEMENT_3D('',#1518,#1295,#1296);
#1043=AXIS2_PLACEMENT_3D('',#1520,#1297,#1298);
#1044=AXIS2_PLACEMENT_3D('',#1522,#1299,#1300);
#1045=AXIS2_PLACEMENT_3D('',#1523,#1301,#1302);
#1046=AXIS2_PLACEMENT_3D('',#1525,#1303,#1304);
#1047=AXIS2_PLACEMENT_3D('',#1527,#1305,#1306);
#1048=AXIS2_PLACEMENT_3D('',#1528,#1307,#1308);
#1049=AXIS2_PLACEMENT_3D('',#1530,#1309,#1310);
#1050=AXIS2_PLACEMENT_3D('',#1531,#1311,#1312);
#1051=AXIS2_PLACEMENT_3D('',#1533,#1313,#1314);
#1052=AXIS2_PLACEMENT_3D('',#1534,#1315,#1316);
#1053=AXIS2_PLACEMENT_3D('',#1536,#1317,#1318);
#1054=AXIS2_PLACEMENT_3D('',#1537,#1319,#1320);
#1055=AXIS2_PLACEMENT_3D('',#1538,#1321,#1322);
#1056=AXIS2_PLACEMENT_3D('',#1539,#1323,#1324);
#1057=AXIS2_PLACEMENT_3D('',#1541,#1325,#1326);
#1058=AXIS2_PLACEMENT_3D('',#1542,#1327,#1328);
#1059=AXIS2_PLACEMENT_3D('',#1544,#1329,#1330);
#1060=AXIS2_PLACEMENT_3D('',#1545,#1331,#1332);
#1061=AXIS2_PLACEMENT_3D('',#1546,#1333,#1334);
#1062=AXIS2_PLACEMENT_3D('',#1548,#1335,#1336);
#1063=DIRECTION('',(0.,0.,1.));
#1064=DIRECTION('',(1.,0.,0.));
#1065=DIRECTION('',(6.12303176911189E-17,-1.,0.));
#1066=DIRECTION('',(-1.,-6.12303176911189E-17,0.));
#1067=DIRECTION('',(6.12303176911189E-17,-1.,0.));
#1068=DIRECTION('',(1.,6.12303176911189E-17,0.));
#1069=DIRECTION('',(6.12303176911189E-17,-1.,0.));
#1070=DIRECTION('',(1.,6.12303176911189E-17,0.));
#1071=DIRECTION('',(-6.12303176911189E-17,1.,0.));
#1072=DIRECTION('',(1.,6.12303176911189E-17,0.));
#1073=DIRECTION('',(6.12303176911189E-17,-1.,0.));
#1074=DIRECTION('',(1.,6.12303176911189E-17,0.));
#1075=DIRECTION('',(6.12303176911189E-17,-1.,0.));
#1076=DIRECTION('',(-1.,-6.12303176911189E-17,0.));
#1077=DIRECTION('',(6.12303176911189E-17,-1.,0.));
#1078=DIRECTION('',(1.,6.12303176911189E-17,0.));
#1079=DIRECTION('',(-6.12303176911189E-17,1.,0.));
#1080=DIRECTION('',(1.,6.12303176911189E-17,0.));
#1081=DIRECTION('',(6.12303176911189E-17,-1.,0.));
#1082=DIRECTION('',(1.,6.12303176911189E-17,0.));
#1083=DIRECTION('',(6.12303176911189E-17,-1.,0.));
#1084=DIRECTION('',(-1.,-6.12303176911189E-17,0.));
#1085=DIRECTION('',(6.12303176911189E-17,-1.,0.));
#1086=DIRECTION('',(1.,6.12303176911189E-17,0.));
#1087=DIRECTION('',(-6.12303176911189E-17,1.,0.));
#1088=DIRECTION('',(1.,6.12303176911189E-17,0.));
#1089=DIRECTION('',(6.12303176911189E-17,-1.,0.));
#1090=DIRECTION('',(1.,6.12303176911189E-17,0.));
#1091=DIRECTION('',(-6.12303176911189E-17,1.,0.));
#1092=DIRECTION('',(1.,6.12303176911189E-17,0.));
#1093=DIRECTION('',(6.12303176911189E-17,-1.,0.));
#1094=DIRECTION('',(1.,6.12303176911189E-17,0.));
#1095=DIRECTION('',(-6.12303176911189E-17,1.,0.));
#1096=DIRECTION('',(1.,6.12303176911189E-17,0.));
#1097=DIRECTION('',(6.12303176911189E-17,-1.,0.));
#1098=DIRECTION('',(1.,6.12303176911189E-17,0.));
#1099=DIRECTION('',(-6.12303176911189E-17,1.,0.));
#1100=DIRECTION('',(1.,6.12303176911189E-17,0.));
#1101=DIRECTION('',(6.12303176911189E-17,-1.,0.));
#1102=DIRECTION('',(1.,6.12303176911189E-17,0.));
#1103=DIRECTION('',(-6.12303176911189E-17,1.,0.));
#1104=DIRECTION('',(1.,6.12303176911189E-17,0.));
#1105=DIRECTION('',(6.12303176911189E-17,-1.,0.));
#1106=DIRECTION('',(1.,6.12303176911189E-17,0.));
#1107=DIRECTION('',(-6.12303176911189E-17,1.,0.));
#1108=DIRECTION('',(1.,6.12303176911189E-17,0.));
#1109=DIRECTION('',(6.12303176911189E-17,-1.,0.));
#1110=DIRECTION('',(1.,6.12303176911189E-17,0.));
#1111=DIRECTION('',(6.12303176911189E-17,-1.,0.));
#1112=DIRECTION('',(-1.,-6.12303176911189E-17,0.));
#1113=DIRECTION('',(6.12303176911189E-17,-1.,0.));
#1114=DIRECTION('',(1.,6.12303176911189E-17,0.));
#1115=DIRECTION('',(-6.12303176911189E-17,1.,0.));
#1116=DIRECTION('',(1.,6.12303176911189E-17,0.));
#1117=DIRECTION('',(6.12303176911189E-17,-1.,0.));
#1118=DIRECTION('',(1.,6.12303176911189E-17,0.));
#1119=DIRECTION('',(-6.12303176911189E-17,1.,0.));
#1120=DIRECTION('',(1.,6.12303176911189E-17,0.));
#1121=DIRECTION('',(6.12303176911189E-17,1.,0.));
#1122=DIRECTION('',(-1.,6.12303176911189E-17,0.));
#1123=DIRECTION('',(-6.12303176911189E-17,-1.,0.));
#1124=DIRECTION('',(1.,-6.12303176911189E-17,0.));
#1125=DIRECTION('',(-6.12303176911189E-17,-1.,0.));
#1126=DIRECTION('',(1.,-6.12303176911189E-17,0.));
#1127=DIRECTION('',(-6.12303176911189E-17,-1.,0.));
#1128=DIRECTION('',(1.,-6.12303176911189E-17,0.));
#1129=DIRECTION('',(-6.12303176911189E-17,-1.,0.));
#1130=DIRECTION('',(1.,-6.12303176911189E-17,0.));
#1131=DIRECTION('',(6.12303176911189E-17,1.,0.));
#1132=DIRECTION('',(-1.,6.12303176911189E-17,0.));
#1133=DIRECTION('',(-6.12303176911189E-17,-1.,0.));
#1134=DIRECTION('',(1.,-6.12303176911189E-17,0.));
#1135=DIRECTION('',(-6.12303176911189E-17,-1.,0.));
#1136=DIRECTION('',(1.,-6.12303176911189E-17,0.));
#1137=DIRECTION('',(-6.12303176911189E-17,-1.,0.));
#1138=DIRECTION('',(1.,-6.12303176911189E-17,0.));
#1139=DIRECTION('',(6.12303176911189E-17,1.,0.));
#1140=DIRECTION('',(-1.,6.12303176911189E-17,0.));
#1141=DIRECTION('',(-6.12303176911189E-17,-1.,0.));
#1142=DIRECTION('',(1.,-6.12303176911189E-17,0.));
#1143=DIRECTION('',(-6.12303176911189E-17,-1.,0.));
#1144=DIRECTION('',(1.,-6.12303176911189E-17,0.));
#1145=DIRECTION('',(-6.12303176911189E-17,-1.,0.));
#1146=DIRECTION('',(1.,-6.12303176911189E-17,0.));
#1147=DIRECTION('',(-6.12303176911189E-17,-1.,0.));
#1148=DIRECTION('',(1.,-6.12303176911189E-17,0.));
#1149=DIRECTION('',(-6.12303176911189E-17,-1.,0.));
#1150=DIRECTION('',(1.,-6.12303176911189E-17,0.));
#1151=DIRECTION('',(-6.12303176911189E-17,-1.,0.));
#1152=DIRECTION('',(1.,-6.12303176911189E-17,0.));
#1153=DIRECTION('',(-6.12303176911189E-17,-1.,0.));
#1154=DIRECTION('',(1.,-6.12303176911189E-17,0.));
#1155=DIRECTION('',(-6.12303176911189E-17,-1.,0.));
#1156=DIRECTION('',(1.,-6.12303176911189E-17,0.));
#1157=DIRECTION('',(-6.12303176911189E-17,-1.,0.));
#1158=DIRECTION('',(1.,-6.12303176911189E-17,0.));
#1159=DIRECTION('',(-6.12303176911189E-17,-1.,0.));
#1160=DIRECTION('',(1.,-6.12303176911189E-17,0.));
#1161=DIRECTION('',(-6.12303176911189E-17,-1.,0.));
#1162=DIRECTION('',(1.,-6.12303176911189E-17,0.));
#1163=DIRECTION('',(-6.12303176911189E-17,-1.,0.));
#1164=DIRECTION('',(1.,-6.12303176911189E-17,0.));
#1165=DIRECTION('',(-6.12303176911189E-17,-1.,0.));
#1166=DIRECTION('',(1.,-6.12303176911189E-17,0.));
#1167=DIRECTION('',(6.12303176911189E-17,1.,0.));
#1168=DIRECTION('',(-1.,6.12303176911189E-17,0.));
#1169=DIRECTION('',(-6.12303176911189E-17,-1.,0.));
#1170=DIRECTION('',(1.,-6.12303176911189E-17,0.));
#1171=DIRECTION('',(-6.12303176911189E-17,-1.,0.));
#1172=DIRECTION('',(1.,-6.12303176911189E-17,0.));
#1173=DIRECTION('',(-6.12303176911189E-17,-1.,0.));
#1174=DIRECTION('',(1.,-6.12303176911189E-17,0.));
#1175=DIRECTION('',(-6.12303176911189E-17,-1.,0.));
#1176=DIRECTION('',(1.,-6.12303176911189E-17,0.));
#1177=DIRECTION('',(-0.433883739117558,-9.58978407275567E-17,0.900968867902419));
#1178=DIRECTION('',(-8.09488445987857E-18,-1.,-1.10336864020811E-16));
#1179=DIRECTION('',(-0.78183148246803,-7.45928898622994E-17,-0.623489801858734));
#1180=DIRECTION('',(3.45164245565914E-17,-1.,7.63554790147316E-17));
#1181=DIRECTION('',(0.433883739117558,-1.49031519101914E-16,-0.900968867902419));
#1182=DIRECTION('',(-1.14365750922359E-16,-1.,1.10336864020811E-16));
#1183=DIRECTION('',(0.78183148246803,-1.70336469967171E-16,0.623489801858733));
#1184=DIRECTION('',(-1.56977059938829E-16,-1.,-7.63554790147315E-17));
#1185=DIRECTION('',(-0.78183148246803,-7.45928898622994E-17,0.623489801858733));
#1186=DIRECTION('',(3.45164245565914E-17,-1.,-7.63554790147315E-17));
#1187=DIRECTION('',(-0.974927912181824,-6.2769534125903E-17,0.222520933956314));
#1188=DIRECTION('',(5.81639170141693E-17,-1.,-2.7250954951288E-17));
#1189=DIRECTION('',(-0.974927912181824,-6.2769534125903E-17,-0.222520933956315));
#1190=DIRECTION('',(5.81639170141693E-17,-1.,2.7250954951288E-17));
#1191=DIRECTION('',(-0.433883739117558,-9.58978407275567E-17,-0.900968867902419));
#1192=DIRECTION('',(-8.09488445987859E-18,-1.,1.10336864020811E-16));
#1193=DIRECTION('',(-1.22464679914735E-16,-1.22464679914735E-16,-1.));
#1194=DIRECTION('',(-6.12303176911189E-17,-1.,1.22464679914735E-16));
#1195=DIRECTION('',(0.78183148246803,-1.70336469967171E-16,-0.623489801858734));
#1196=DIRECTION('',(-1.56977059938829E-16,-1.,7.63554790147316E-17));
#1197=DIRECTION('',(0.974927912181824,-1.82159825703568E-16,-0.222520933956315));
#1198=DIRECTION('',(-1.80624552396407E-16,-1.,2.7250954951288E-17));
#1199=DIRECTION('',(0.974927912181824,-1.82159825703568E-16,0.222520933956314));
#1200=DIRECTION('',(-1.80624552396407E-16,-1.,-2.7250954951288E-17));
#1201=DIRECTION('',(0.433883739117558,-1.49031519101914E-16,0.900968867902419));
#1202=DIRECTION('',(-1.14365750922359E-16,-1.,-1.10336864020811E-16));
#1203=DIRECTION('',(-7.49855125712043E-33,-1.22464679914735E-16,1.));
#1204=DIRECTION('',(-6.12303176911189E-17,-1.,-1.22464679914735E-16));
#1205=DIRECTION('',(-6.12303176911189E-17,-1.,0.));
#1206=DIRECTION('',(1.,-6.12303176911189E-17,0.));
#1207=DIRECTION('',(-6.12303176911189E-17,-1.,0.));
#1208=DIRECTION('',(1.,-6.12303176911189E-17,0.));
#1209=DIRECTION('',(6.12303176911189E-17,-1.,0.));
#1210=DIRECTION('',(1.,6.12303176911189E-17,0.));
#1211=DIRECTION('',(-6.12303176911189E-17,1.,0.));
#1212=DIRECTION('',(1.,6.12303176911189E-17,0.));
#1213=DIRECTION('',(6.12303176911189E-17,-1.,0.));
#1214=DIRECTION('',(1.,6.12303176911189E-17,0.));
#1215=DIRECTION('',(6.12303176911189E-17,-1.,0.));
#1216=DIRECTION('',(1.,6.12303176911189E-17,0.));
#1217=DIRECTION('',(6.12303176911189E-17,-1.,0.));
#1218=DIRECTION('',(-1.,-6.12303176911189E-17,0.));
#1219=DIRECTION('',(-6.12303176911189E-17,1.,0.));
#1220=DIRECTION('',(1.,6.12303176911189E-17,0.));
#1221=DIRECTION('',(6.12303176911189E-17,-1.,0.));
#1222=DIRECTION('',(1.,6.12303176911189E-17,0.));
#1223=DIRECTION('',(-6.12303176911189E-17,-1.,0.));
#1224=DIRECTION('',(1.,-6.12303176911189E-17,0.));
#1225=DIRECTION('',(-6.12303176911189E-17,-1.,0.));
#1226=DIRECTION('',(1.,-6.12303176911189E-17,0.));
#1227=DIRECTION('',(-6.12303176911189E-17,-1.,0.));
#1228=DIRECTION('',(1.,-6.12303176911189E-17,0.));
#1229=DIRECTION('',(-6.12303176911189E-17,-1.,0.));
#1230=DIRECTION('',(1.,-6.12303176911189E-17,0.));
#1231=DIRECTION('',(-6.12303176911189E-17,-1.,0.));
#1232=DIRECTION('',(1.,-6.12303176911189E-17,0.));
#1233=DIRECTION('',(-6.12303176911189E-17,-1.,0.));
#1234=DIRECTION('',(1.,-6.12303176911189E-17,0.));
#1235=DIRECTION('',(-6.12303176911189E-17,-1.,0.));
#1236=DIRECTION('',(1.,-6.12303176911189E-17,0.));
#1237=DIRECTION('',(-6.12303176911189E-17,-1.,0.));
#1238=DIRECTION('',(1.,-6.12303176911189E-17,0.));
#1239=DIRECTION('',(-6.12303176911189E-17,-1.,0.));
#1240=DIRECTION('',(1.,-6.12303176911189E-17,0.));
#1241=DIRECTION('',(-6.12303176911189E-17,-1.,0.));
#1242=DIRECTION('',(1.,-6.12303176911189E-17,0.));
#1243=DIRECTION('',(-6.12303176911189E-17,-1.,0.));
#1244=DIRECTION('',(1.,-6.12303176911189E-17,0.));
#1245=DIRECTION('',(6.12303176911189E-17,1.,0.));
#1246=DIRECTION('',(-1.,6.12303176911189E-17,0.));
#1247=DIRECTION('',(6.12303176911189E-17,1.,0.));
#1248=DIRECTION('',(-1.,6.12303176911189E-17,0.));
#1249=DIRECTION('',(-6.12303176911189E-17,-1.,0.));
#1250=DIRECTION('',(1.,-6.12303176911189E-17,0.));
#1251=DIRECTION('',(6.12303176911189E-17,1.,0.));
#1252=DIRECTION('',(-1.,6.12303176911189E-17,0.));
#1253=DIRECTION('',(-6.12303176911189E-17,-1.,0.));
#1254=DIRECTION('',(1.,-6.12303176911189E-17,0.));
#1255=DIRECTION('',(-6.12303176911189E-17,-1.,0.));
#1256=DIRECTION('',(1.,-6.12303176911189E-17,0.));
#1257=DIRECTION('',(6.12303176911189E-17,1.,0.));
#1258=DIRECTION('',(-1.,6.12303176911189E-17,0.));
#1259=DIRECTION('',(-6.12303176911189E-17,-1.,0.));
#1260=DIRECTION('',(1.,-6.12303176911189E-17,0.));
#1261=DIRECTION('',(-6.12303176911189E-17,-1.,0.));
#1262=DIRECTION('',(1.,-6.12303176911189E-17,0.));
#1263=DIRECTION('',(6.12303176911189E-17,1.,0.));
#1264=DIRECTION('',(-1.,6.12303176911189E-17,0.));
#1265=DIRECTION('',(-6.12303176911189E-17,-1.,0.));
#1266=DIRECTION('',(1.,-6.12303176911189E-17,0.));
#1267=DIRECTION('',(-6.12303176911189E-17,-1.,0.));
#1268=DIRECTION('',(1.,-6.12303176911189E-17,0.));
#1269=DIRECTION('',(-6.12303176911189E-17,-1.,0.));
#1270=DIRECTION('',(1.,-6.12303176911189E-17,0.));
#1271=DIRECTION('',(6.12303176911189E-17,1.,0.));
#1272=DIRECTION('',(-1.,6.12303176911189E-17,0.));
#1273=DIRECTION('',(6.12303176911189E-17,1.,0.));
#1274=DIRECTION('',(-1.,6.12303176911189E-17,0.));
#1275=DIRECTION('',(-6.12303176911189E-17,-1.,0.));
#1276=DIRECTION('',(1.,-6.12303176911189E-17,0.));
#1277=DIRECTION('',(-6.12303176911189E-17,-1.,0.));
#1278=DIRECTION('',(1.,-6.12303176911189E-17,0.));
#1279=DIRECTION('',(6.12303176911189E-17,-1.,0.));
#1280=DIRECTION('',(1.,6.12303176911189E-17,0.));
#1281=DIRECTION('',(-6.12303176911189E-17,1.,0.));
#1282=DIRECTION('',(1.,6.12303176911189E-17,0.));
#1283=DIRECTION('',(6.12303176911189E-17,-1.,0.));
#1284=DIRECTION('',(1.,6.12303176911189E-17,0.));
#1285=DIRECTION('',(-6.12303176911189E-17,1.,0.));
#1286=DIRECTION('',(1.,6.12303176911189E-17,0.));
#1287=DIRECTION('',(6.12303176911189E-17,-1.,0.));
#1288=DIRECTION('',(1.,6.12303176911189E-17,0.));
#1289=DIRECTION('',(6.12303176911189E-17,-1.,0.));
#1290=DIRECTION('',(-1.,-6.12303176911189E-17,0.));
#1291=DIRECTION('',(6.12303176911189E-17,-1.,0.));
#1292=DIRECTION('',(1.,6.12303176911189E-17,0.));
#1293=DIRECTION('',(-6.12303176911189E-17,-1.,0.));
#1294=DIRECTION('',(1.,-6.12303176911189E-17,0.));
#1295=DIRECTION('',(-6.12303176911189E-17,-1.,0.));
#1296=DIRECTION('',(1.,-6.12303176911189E-17,0.));
#1297=DIRECTION('',(-6.12303176911189E-17,-1.,0.));
#1298=DIRECTION('',(1.,-6.12303176911189E-17,0.));
#1299=DIRECTION('',(-6.12303176911189E-17,-1.,0.));
#1300=DIRECTION('',(1.,-6.12303176911189E-17,0.));
#1301=DIRECTION('',(-6.12303176911189E-17,-1.,0.));
#1302=DIRECTION('',(1.,-6.12303176911189E-17,0.));
#1303=DIRECTION('',(-6.12303176911189E-17,-1.,0.));
#1304=DIRECTION('',(1.,-6.12303176911189E-17,0.));
#1305=DIRECTION('',(-6.12303176911189E-17,-1.,0.));
#1306=DIRECTION('',(1.,-6.12303176911189E-17,0.));
#1307=DIRECTION('',(-6.12303176911189E-17,-1.,0.));
#1308=DIRECTION('',(1.,-6.12303176911189E-17,0.));
#1309=DIRECTION('',(6.12303176911189E-17,1.,0.));
#1310=DIRECTION('',(-1.,6.12303176911189E-17,0.));
#1311=DIRECTION('',(6.12303176911189E-17,1.,0.));
#1312=DIRECTION('',(-1.,6.12303176911189E-17,0.));
#1313=DIRECTION('',(-6.12303176911189E-17,-1.,0.));
#1314=DIRECTION('',(1.,-6.12303176911189E-17,0.));
#1315=DIRECTION('',(-6.12303176911189E-17,-1.,0.));
#1316=DIRECTION('',(1.,-6.12303176911189E-17,0.));
#1317=DIRECTION('',(-6.12303176911189E-17,-1.,0.));
#1318=DIRECTION('',(1.,-6.12303176911189E-17,0.));
#1319=DIRECTION('',(6.12303176911189E-17,1.,0.));
#1320=DIRECTION('',(-1.,6.12303176911189E-17,0.));
#1321=DIRECTION('',(-6.12303176911189E-17,-1.,0.));
#1322=DIRECTION('',(1.,-6.12303176911189E-17,0.));
#1323=DIRECTION('',(-6.12303176911189E-17,-1.,0.));
#1324=DIRECTION('',(1.,-6.12303176911189E-17,0.));
#1325=DIRECTION('',(-6.12303176911189E-17,-1.,0.));
#1326=DIRECTION('',(1.,-6.12303176911189E-17,0.));
#1327=DIRECTION('',(-6.12303176911189E-17,-1.,0.));
#1328=DIRECTION('',(1.,-6.12303176911189E-17,0.));
#1329=DIRECTION('',(6.12303176911189E-17,1.,0.));
#1330=DIRECTION('',(-1.,6.12303176911189E-17,0.));
#1331=DIRECTION('',(-6.12303176911189E-17,-1.,0.));
#1332=DIRECTION('',(1.,-6.12303176911189E-17,0.));
#1333=DIRECTION('',(-6.12303176911189E-17,-1.,0.));
#1334=DIRECTION('',(1.,-6.12303176911189E-17,0.));
#1335=DIRECTION('',(6.12303176911189E-17,1.,0.));
#1336=DIRECTION('',(-1.,6.12303176911189E-17,0.));
#1337=CARTESIAN_POINT('',(0.,0.,0.));
#1338=CARTESIAN_POINT('',(6.02735939771951E-17,-0.984375,4.33333333333333));
#1339=CARTESIAN_POINT('',(6.02735939771951E-17,-0.984375,0.));
#1340=CARTESIAN_POINT('',(4.33333333333333,-0.984374999999999,0.));
#1341=CARTESIAN_POINT('',(6.02735939771951E-17,-0.984375,0.));
#1342=CARTESIAN_POINT('',(4.64483333333333,-0.984374999999999,0.));
#1343=CARTESIAN_POINT('',(6.02735939771951E-17,-0.984375,0.));
#1344=CARTESIAN_POINT('',(7.07975548303561E-17,-1.15625,0.));
#1345=CARTESIAN_POINT('',(4.23410125581637,-1.15625,0.));
#1346=CARTESIAN_POINT('',(7.07975548303561E-17,-1.15625,4.23410125581637));
#1347=CARTESIAN_POINT('',(7.07975548303561E-17,-1.15625,0.));
#1348=CARTESIAN_POINT('',(3.68229166666666,-1.15625,0.));
#1349=CARTESIAN_POINT('',(0.,0.,0.));
#1350=CARTESIAN_POINT('',(6.50572125468138E-17,-1.0625,0.));
#1351=CARTESIAN_POINT('',(3.68229166666666,-1.0625,0.));
#1352=CARTESIAN_POINT('',(6.50572125468138E-17,-1.0625,3.68229166666666));
#1353=CARTESIAN_POINT('',(6.50572125468138E-17,-1.0625,0.));
#1354=CARTESIAN_POINT('',(3.65104166666666,-1.0625,0.));
#1355=CARTESIAN_POINT('',(0.,0.,0.));
#1356=CARTESIAN_POINT('',(7.27110022582036E-17,-1.1875,0.));
#1357=CARTESIAN_POINT('',(3.65104166666666,-1.1875,0.));
#1358=CARTESIAN_POINT('',(7.27110022582036E-17,-1.1875,3.65104166666666));
#1359=CARTESIAN_POINT('',(7.27110022582036E-17,-1.1875,0.));
#1360=CARTESIAN_POINT('',(4.25214345172854,-1.1875,0.));
#1361=CARTESIAN_POINT('',(7.27110022582036E-17,-1.1875,0.));
#1362=CARTESIAN_POINT('',(6.21870414050426E-17,-1.015625,0.));
#1363=CARTESIAN_POINT('',(4.35137552924551,-1.015625,0.));
#1364=CARTESIAN_POINT('',(6.21870414050426E-17,-1.015625,4.35137552924551));
#1365=CARTESIAN_POINT('',(6.21870414050426E-17,-1.015625,0.));
#1366=CARTESIAN_POINT('',(4.61358333333333,-1.015625,0.));
#1367=CARTESIAN_POINT('',(0.,0.,0.));
#1368=CARTESIAN_POINT('',(6.410048883289E-17,-1.046875,0.));
#1369=CARTESIAN_POINT('',(4.61358333333333,-1.046875,0.));
#1370=CARTESIAN_POINT('',(6.410048883289E-17,-1.046875,0.));
#1371=CARTESIAN_POINT('',(6.410048883289E-17,-1.046875,0.));
#1372=CARTESIAN_POINT('',(4.4379377571325,-1.046875,0.));
#1373=CARTESIAN_POINT('',(6.410048883289E-17,-1.046875,4.4379377571325));
#1374=CARTESIAN_POINT('',(6.410048883289E-17,-1.046875,0.));
#1375=CARTESIAN_POINT('',(4.4066877571325,-1.046875,0.));
#1376=CARTESIAN_POINT('',(6.410048883289E-17,-1.046875,0.));
#1377=CARTESIAN_POINT('',(6.410048883289E-17,-1.046875,0.));
#1378=CARTESIAN_POINT('',(4.64483333333333,-1.046875,0.));
#1379=CARTESIAN_POINT('',(0.,0.,0.));
#1380=CARTESIAN_POINT('',(6.02735939771951E-17,0.984375,4.33333333333333));
#1381=CARTESIAN_POINT('',(6.02735939771951E-17,0.984375,0.));
#1382=CARTESIAN_POINT('',(4.33333333333333,0.984374999999999,0.));
#1383=CARTESIAN_POINT('',(6.02735939771951E-17,0.984375,0.));
#1384=CARTESIAN_POINT('',(4.64483333333333,0.984374999999999,0.));
#1385=CARTESIAN_POINT('',(6.02735939771951E-17,0.984375,0.));
#1386=CARTESIAN_POINT('',(7.07975548303561E-17,1.15625,0.));
#1387=CARTESIAN_POINT('',(4.23410125581637,1.15625,0.));
#1388=CARTESIAN_POINT('',(7.07975548303561E-17,1.15625,4.23410125581637));
#1389=CARTESIAN_POINT('',(7.07975548303561E-17,1.15625,0.));
#1390=CARTESIAN_POINT('',(3.68229166666666,1.15625,0.));
#1391=CARTESIAN_POINT('',(0.,0.,0.));
#1392=CARTESIAN_POINT('',(6.50572125468138E-17,1.0625,0.));
#1393=CARTESIAN_POINT('',(3.68229166666666,1.0625,0.));
#1394=CARTESIAN_POINT('',(6.50572125468138E-17,1.0625,3.68229166666666));
#1395=CARTESIAN_POINT('',(6.50572125468138E-17,1.0625,0.));
#1396=CARTESIAN_POINT('',(3.65104166666666,1.0625,0.));
#1397=CARTESIAN_POINT('',(0.,0.,0.));
#1398=CARTESIAN_POINT('',(7.27110022582036E-17,1.1875,0.));
#1399=CARTESIAN_POINT('',(3.65104166666666,1.1875,0.));
#1400=CARTESIAN_POINT('',(7.27110022582036E-17,1.1875,3.65104166666666));
#1401=CARTESIAN_POINT('',(7.27110022582036E-17,1.1875,0.));
#1402=CARTESIAN_POINT('',(4.25214345172854,1.1875,0.));
#1403=CARTESIAN_POINT('',(7.27110022582036E-17,1.1875,0.));
#1404=CARTESIAN_POINT('',(6.21870414050426E-17,1.015625,0.));
#1405=CARTESIAN_POINT('',(4.35137552924551,1.015625,0.));
#1406=CARTESIAN_POINT('',(6.21870414050426E-17,1.015625,4.35137552924551));
#1407=CARTESIAN_POINT('',(6.21870414050426E-17,1.015625,0.));
#1408=CARTESIAN_POINT('',(4.61358333333333,1.015625,0.));
#1409=CARTESIAN_POINT('',(0.,0.,0.));
#1410=CARTESIAN_POINT('',(6.410048883289E-17,1.046875,0.));
#1411=CARTESIAN_POINT('',(4.61358333333333,1.046875,0.));
#1412=CARTESIAN_POINT('',(6.410048883289E-17,1.046875,0.));
#1413=CARTESIAN_POINT('',(6.410048883289E-17,1.046875,0.));
#1414=CARTESIAN_POINT('',(4.4379377571325,1.046875,0.));
#1415=CARTESIAN_POINT('',(6.410048883289E-17,1.046875,4.4379377571325));
#1416=CARTESIAN_POINT('',(6.410048883289E-17,1.046875,0.));
#1417=CARTESIAN_POINT('',(4.4066877571325,1.046875,0.));
#1418=CARTESIAN_POINT('',(6.410048883289E-17,1.046875,0.));
#1419=CARTESIAN_POINT('',(6.410048883289E-17,1.046875,0.));
#1420=CARTESIAN_POINT('',(4.64483333333333,1.046875,0.));
#1421=CARTESIAN_POINT('',(0.,0.,0.));
#1422=CARTESIAN_POINT('',(-1.73553495647023,6.54457967771361E-17,3.60387547160967));
#1423=CARTESIAN_POINT('',(-1.49492231847737,8.46697428153598E-17,3.10423818053179));
#1424=CARTESIAN_POINT('',(-3.12732592987212,1.50665600238165E-16,-2.49395920743493));
#1425=CARTESIAN_POINT('',(-2.69375693776124,1.58074767413222E-16,-2.14819947398194));
#1426=CARTESIAN_POINT('',(1.73553495647023,-1.47088916720293E-16,-3.60387547160968));
#1427=CARTESIAN_POINT('',(1.49492231847737,-9.83993941524673E-17,-3.10423818053179));
#1428=CARTESIAN_POINT('',(3.12732592987212,-2.32308720181322E-16,2.49395920743493));
#1429=CARTESIAN_POINT('',(2.69375693776124,-1.7180441875033E-16,2.14819947398194));
#1430=CARTESIAN_POINT('',(-3.12732592987212,1.50665600238165E-16,2.49395920743493));
#1431=CARTESIAN_POINT('',(-2.69375693776124,1.58074767413222E-16,2.14819947398194));
#1432=CARTESIAN_POINT('',(-3.89971164872729,1.97959023183751E-16,0.890083735825257));
#1433=CARTESIAN_POINT('',(-3.35905995876068,1.9881148274988E-16,0.766683515672372));
#1434=CARTESIAN_POINT('',(-3.89971164872729,1.97959023183751E-16,-0.890083735825258));
#1435=CARTESIAN_POINT('',(-3.35905995876068,1.9881148274988E-16,-0.766683515672373));
#1436=CARTESIAN_POINT('',(-1.73553495647023,6.54457967771361E-17,-3.60387547160967));
#1437=CARTESIAN_POINT('',(-1.49492231847737,8.46697428153597E-17,-3.10423818053179));
#1438=CARTESIAN_POINT('',(-4.89858719658941E-16,-4.08215599715784E-17,-4.));
#1439=CARTESIAN_POINT('',(-4.21945251052892E-16,-6.86482566855378E-18,-3.44544444444444));
#1440=CARTESIAN_POINT('',(3.12732592987212,-2.32308720181322E-16,-2.49395920743493));
#1441=CARTESIAN_POINT('',(2.69375693776124,-1.7180441875033E-16,-2.14819947398194));
#1442=CARTESIAN_POINT('',(3.89971164872729,-2.79602143126907E-16,-0.890083735825258));
#1443=CARTESIAN_POINT('',(3.35905995876068,-2.12541134086987E-16,-0.766683515672373));
#1444=CARTESIAN_POINT('',(3.89971164872729,-2.79602143126907E-16,0.890083735825257));
#1445=CARTESIAN_POINT('',(3.35905995876068,-2.12541134086987E-16,0.766683515672372));
#1446=CARTESIAN_POINT('',(1.73553495647023,-1.47088916720293E-16,3.60387547160967));
#1447=CARTESIAN_POINT('',(1.49492231847737,-9.83993941524674E-17,3.10423818053179));
#1448=CARTESIAN_POINT('',(-2.49951708570681E-33,-4.08215599715784E-17,4.));
#1449=CARTESIAN_POINT('',(-4.20335456579697E-34,-6.86482566855381E-18,3.44544444444444));
#1450=CARTESIAN_POINT('',(0.,0.,0.));
#1451=CARTESIAN_POINT('',(-7.65378971138986E-17,-1.25,0.));
#1452=CARTESIAN_POINT('',(3.66666666666666,-1.25,0.));
#1453=CARTESIAN_POINT('',(7.46244496860511E-17,-1.21875,0.));
#1454=CARTESIAN_POINT('',(3.66666666666666,-1.21875,0.));
#1455=CARTESIAN_POINT('',(0.,0.,0.));
#1456=CARTESIAN_POINT('',(6.02735939771951E-17,-0.984375,0.));
#1457=CARTESIAN_POINT('',(3.35416666666667,-0.984374999999999,0.));
#1458=CARTESIAN_POINT('',(6.98408311164324E-17,-1.140625,0.));
#1459=CARTESIAN_POINT('',(3.35416666666667,-1.140625,0.));
#1460=CARTESIAN_POINT('',(7.46244496860511E-17,-1.21875,0.));
#1461=CARTESIAN_POINT('',(6.02735939771951E-17,-0.984375,0.));
#1462=CARTESIAN_POINT('',(5.54899754075765E-17,-0.90625,0.));
#1463=CARTESIAN_POINT('',(3.66666666666666,-0.90625,0.));
#1464=CARTESIAN_POINT('',(0.,0.,0.));
#1465=CARTESIAN_POINT('',(7.46244496860511E-17,1.21875,0.));
#1466=CARTESIAN_POINT('',(3.66666666666666,1.21875,0.));
#1467=CARTESIAN_POINT('',(7.65378971138986E-17,1.25,0.));
#1468=CARTESIAN_POINT('',(3.66666666666666,1.25,0.));
#1469=CARTESIAN_POINT('',(7.65378971138986E-17,1.25,3.));
#1470=CARTESIAN_POINT('',(7.65378971138986E-17,1.25,0.));
#1471=CARTESIAN_POINT('',(3.1,1.25,0.));
#1472=CARTESIAN_POINT('',(0.,0.,0.));
#1473=CARTESIAN_POINT('',(5.54899754075765E-17,0.90625,0.));
#1474=CARTESIAN_POINT('',(3.66666666666666,0.90625,0.));
#1475=CARTESIAN_POINT('',(2.72134745293861E-17,0.444444444444443,0.));
#1476=CARTESIAN_POINT('',(3.66666666666666,0.444444444444443,0.));
#1477=CARTESIAN_POINT('',(-2.49951708570681E-33,-4.08215599715784E-17,0.));
#1478=CARTESIAN_POINT('',(-2.72134745293861E-17,-0.444444444444443,0.));
#1479=CARTESIAN_POINT('',(3.66666666666666,-0.444444444444444,0.));
#1480=CARTESIAN_POINT('',(0.,0.,0.));
#1481=CARTESIAN_POINT('',(-7.65378971138986E-17,-1.25,3.66666666666666));
#1482=CARTESIAN_POINT('',(-7.65378971138986E-17,-1.25,0.));
#1483=CARTESIAN_POINT('',(-3.1,-1.25,0.));
#1484=CARTESIAN_POINT('',(0.,0.,0.));
#1485=CARTESIAN_POINT('',(-7.04148653447867E-17,-1.15,0.));
#1486=CARTESIAN_POINT('',(-3.,-1.15,0.));
#1487=CARTESIAN_POINT('',(7.04148653447867E-17,1.15,0.));
#1488=CARTESIAN_POINT('',(3.,1.15,0.));
#1489=CARTESIAN_POINT('',(7.04148653447867E-17,1.15,0.));
#1490=CARTESIAN_POINT('',(-7.04148653447867E-17,-1.15,0.));
#1491=CARTESIAN_POINT('',(6.02735939771951E-17,0.984375,0.));
#1492=CARTESIAN_POINT('',(6.02735939771951E-17,0.984375,0.));
#1493=CARTESIAN_POINT('',(3.35416666666667,0.984374999999999,0.));
#1494=CARTESIAN_POINT('',(7.46244496860511E-17,1.21875,0.));
#1495=CARTESIAN_POINT('',(6.98408311164324E-17,1.140625,0.));
#1496=CARTESIAN_POINT('',(3.35416666666667,1.140625,0.));
#1497=CARTESIAN_POINT('',(0.,0.,0.));
#1498=CARTESIAN_POINT('',(0.,0.,0.));
#1499=CARTESIAN_POINT('',(-7.04148653447867E-17,-1.15,0.));
#1500=CARTESIAN_POINT('',(-5.,-1.15,0.));
#1501=CARTESIAN_POINT('',(3.97997064992272E-17,0.649999999999999,0.));
#1502=CARTESIAN_POINT('',(-5.,0.65,0.));
#1503=CARTESIAN_POINT('',(0.,0.,0.));
#1504=CARTESIAN_POINT('',(-7.65378971138986E-17,-1.25,0.));
#1505=CARTESIAN_POINT('',(4.33333333333333,-1.25,0.));
#1506=CARTESIAN_POINT('',(7.46244496860511E-17,-1.21875,0.));
#1507=CARTESIAN_POINT('',(4.33333333333333,-1.21875,0.));
#1508=CARTESIAN_POINT('',(7.46244496860511E-17,-1.21875,0.));
#1509=CARTESIAN_POINT('',(6.98408311164324E-17,-1.140625,0.));
#1510=CARTESIAN_POINT('',(4.64583333333333,-1.140625,0.));
#1511=CARTESIAN_POINT('',(0.,0.,0.));
#1512=CARTESIAN_POINT('',(6.02735939771951E-17,-0.984374999999999,0.));
#1513=CARTESIAN_POINT('',(4.64583333333333,-0.984374999999999,0.));
#1514=CARTESIAN_POINT('',(6.02735939771951E-17,-0.984374999999999,0.));
#1515=CARTESIAN_POINT('',(5.54899754075764E-17,-0.90625,0.));
#1516=CARTESIAN_POINT('',(4.33333333333333,-0.906249999999999,0.));
#1517=CARTESIAN_POINT('',(0.,0.,0.));
#1518=CARTESIAN_POINT('',(7.65378971138986E-17,1.25,0.));
#1519=CARTESIAN_POINT('',(4.33333333333333,1.25,0.));
#1520=CARTESIAN_POINT('',(7.46244496860511E-17,1.21875,0.));
#1521=CARTESIAN_POINT('',(4.33333333333333,1.21875,0.));
#1522=CARTESIAN_POINT('',(0.,0.,0.));
#1523=CARTESIAN_POINT('',(2.72134745293861E-17,0.444444444444443,0.));
#1524=CARTESIAN_POINT('',(4.33333333333333,0.444444444444443,0.));
#1525=CARTESIAN_POINT('',(5.54899754075764E-17,0.90625,0.));
#1526=CARTESIAN_POINT('',(4.33333333333333,0.906249999999999,0.));
#1527=CARTESIAN_POINT('',(7.65378971138985E-17,1.25,4.33333333333333));
#1528=CARTESIAN_POINT('',(7.65378971138985E-17,1.25,0.));
#1529=CARTESIAN_POINT('',(5.6,1.25,0.));
#1530=CARTESIAN_POINT('',(-7.65378971138986E-17,-1.25,5.));
#1531=CARTESIAN_POINT('',(-7.65378971138986E-17,-1.25,0.));
#1532=CARTESIAN_POINT('',(-4.9,-1.25,0.));
#1533=CARTESIAN_POINT('',(0.,0.,0.));
#1534=CARTESIAN_POINT('',(-2.72134745293861E-17,-0.444444444444444,0.));
#1535=CARTESIAN_POINT('',(4.33333333333333,-0.444444444444444,0.));
#1536=CARTESIAN_POINT('',(-2.49951708570681E-33,-4.08215599715784E-17,0.));
#1537=CARTESIAN_POINT('',(-7.04148653447867E-17,-1.15,0.));
#1538=CARTESIAN_POINT('',(7.46244496860511E-17,1.21875,0.));
#1539=CARTESIAN_POINT('',(6.98408311164324E-17,1.140625,0.));
#1540=CARTESIAN_POINT('',(4.64583333333333,1.140625,0.));
#1541=CARTESIAN_POINT('',(0.,0.,0.));
#1542=CARTESIAN_POINT('',(6.02735939771951E-17,0.984374999999999,0.));
#1543=CARTESIAN_POINT('',(4.64583333333333,0.984374999999999,0.));
#1544=CARTESIAN_POINT('',(6.02735939771951E-17,0.984374999999999,0.));
#1545=CARTESIAN_POINT('',(0.,0.,0.));
#1546=CARTESIAN_POINT('',(3.97997064992272E-17,0.649999999999999,0.));
#1547=CARTESIAN_POINT('',(5.6,0.649999999999999,0.));
#1548=CARTESIAN_POINT('',(3.97997064992272E-17,0.649999999999999,5.6));
#1549=MECHANICAL_DESIGN_GEOMETRIC_PRESENTATION_REPRESENTATION('',(#779,
#780,#781,#782,#783,#784,#785,#786,#787,#788,#789,#790,#791,#792,#793,#794,
#795,#796),#1550);
#1550=(
GEOMETRIC_REPRESENTATION_CONTEXT(3)
GLOBAL_UNCERTAINTY_ASSIGNED_CONTEXT((#1551))
GLOBAL_UNIT_ASSIGNED_CONTEXT((#1554,#1553,#1552))
REPRESENTATION_CONTEXT('\X2\6DF16C9F74038F74627F\X0\F 60000-2Z\X2\578B\X0\',
'TOP_LEVEL_ASSEMBLY_PART')
);
#1551=UNCERTAINTY_MEASURE_WITH_UNIT(LENGTH_MEASURE(0.005),#1554,
'DISTANCE_ACCURACY_VALUE','Maximum Tolerance applied to model');
#1552=(
NAMED_UNIT(*)
SI_UNIT($,.STERADIAN.)
SOLID_ANGLE_UNIT()
);
#1553=(
NAMED_UNIT(*)
PLANE_ANGLE_UNIT()
SI_UNIT($,.RADIAN.)
);
#1554=(
LENGTH_UNIT()
NAMED_UNIT(*)
SI_UNIT(.MILLI.,.METRE.)
);
#1555=PRODUCT_DEFINITION_SHAPE('','',#1556);
#1556=PRODUCT_DEFINITION('','',#1558,#1557);
#1557=PRODUCT_DEFINITION_CONTEXT('',#1564,'design');
#1558=PRODUCT_DEFINITION_FORMATION_WITH_SPECIFIED_SOURCE('','',#1560,
 .NOT_KNOWN.);
#1559=PRODUCT_RELATED_PRODUCT_CATEGORY('','',(#1560));
#1560=PRODUCT('\X2\6DF16C9F74038F74627F\X0\F 60000-2Z\X2\578B\X0\',
'\X2\6DF16C9F74038F74627F\X0\F 60000-2Z\X2\578B\X0\',
'\X2\6DF16C9F74038F74627F\X0\F 60000-2Z\X2\578B\X0\',(#1562));
#1561=PRODUCT_CATEGORY('','');
#1562=PRODUCT_CONTEXT('',#1564,'mechanical');
#1563=APPLICATION_PROTOCOL_DEFINITION('international standard',
'automotive_design',2010,#1564);
#1564=APPLICATION_CONTEXT(
'core data for automotive mechanical design processes');
ENDSEC;
END-ISO-10303-21;
