ISO-10303-21;
HEADER;
/* Generated by software containing HOOPS Exchange Step
 * from HOOPS Exchange, Inc. (www.tiangong.cloud) 
 */

FILE_DESCRIPTION(
/* description */ ('Unknown'),
/* implementation_level */ '2;1');

FILE_NAME(
/* name */ 'tmp27D5.tmp',
/* time_stamp */ '2025-01-07T10:52:15+08:00',
/* author */ ('Unknown'),
/* organization */ ('Unknown'),
/* preprocessor_version */ 'ST-DEVELOPER v18.104',
/* originating_system */ 'TianGong',
/* authorisation */ 'Unknown');

FILE_SCHEMA (('AUTOMOTIVE_DESIGN {1 0 10303 214 3 1 1}'));
ENDSEC;

DATA;
#10=PROPERTY_DEFINITION_REPRESENTATION(#14,#12);
#11=PROPERTY_DEFINITION_REPRESENTATION(#15,#13);
#12=REPRESENTATION('',(#16),#1842);
#13=REPRESENTATION('',(#17),#1842);
#14=PROPERTY_DEFINITION('pmi validation property','',#1847);
#15=PROPERTY_DEFINITION('pmi validation property','',#1847);
#16=VALUE_REPRESENTATION_ITEM('number of annotations',COUNT_MEASURE(0.));
#17=VALUE_REPRESENTATION_ITEM('number of views',COUNT_MEASURE(0.));
#18=SHAPE_REPRESENTATION_RELATIONSHIP('','',#952,#19);
#19=ADVANCED_BREP_SHAPE_REPRESENTATION('',(#949,#950),#1842);
#20=(
BOUNDED_SURFACE()
B_SPLINE_SURFACE(3,2,((#1639,#1640,#1641),(#1642,#1643,#1644),(#1645,#1646,
#1647),(#1648,#1649,#1650),(#1651,#1652,#1653),(#1654,#1655,#1656)),
 .UNSPECIFIED.,.F.,.F.,.F.)
B_SPLINE_SURFACE_WITH_KNOTS((4,1,1,4),(3,3),(0.,0.00278330191184675,0.00556660382369351,
0.011133207647387),(0.,1.),.UNSPECIFIED.)
GEOMETRIC_REPRESENTATION_ITEM()
RATIONAL_B_SPLINE_SURFACE(((1.,0.707106781186549,1.),(1.,0.762839651782119,
1.),(1.,0.851414223168489,1.),(1.,0.968553409719625,1.),(1.,1.0000000000001,
1.),(1.,1.,1.)))
REPRESENTATION_ITEM('')
SURFACE()
);
#21=(
BOUNDED_SURFACE()
B_SPLINE_SURFACE(3,2,((#1665,#1666,#1667),(#1668,#1669,#1670),(#1671,#1672,
#1673),(#1674,#1675,#1676),(#1677,#1678,#1679)),.UNSPECIFIED.,.F.,.F.,.F.)
B_SPLINE_SURFACE_WITH_KNOTS((4,1,4),(3,3),(-8.67361737988404E-19,0.00162517077836572,
0.00325034155673145),(0.,1.),.UNSPECIFIED.)
GEOMETRIC_REPRESENTATION_ITEM()
RATIONAL_B_SPLINE_SURFACE(((1.,0.841205752859588,1.),(1.,0.841205750971533,
1.),(1.,0.806427263722287,1.),(1.,0.738717420468904,1.),(1.,0.707106781186548,
1.)))
REPRESENTATION_ITEM('')
SURFACE()
);
#22=(
BOUNDED_SURFACE()
B_SPLINE_SURFACE(3,2,((#1683,#1684,#1685),(#1686,#1687,#1688),(#1689,#1690,
#1691),(#1692,#1693,#1694),(#1695,#1696,#1697)),.UNSPECIFIED.,.F.,.F.,.F.)
B_SPLINE_SURFACE_WITH_KNOTS((4,1,4),(3,3),(0.,0.00162529046486707,0.00325058092973414),
(0.,1.),.UNSPECIFIED.)
GEOMETRIC_REPRESENTATION_ITEM()
RATIONAL_B_SPLINE_SURFACE(((1.,0.707106781186547,1.),(1.,0.738757849720473,
1.),(1.,0.806308202280743,1.),(1.,0.841205752020287,1.),(1.,0.841205752859589,
1.)))
REPRESENTATION_ITEM('')
SURFACE()
);
#23=(
BOUNDED_SURFACE()
B_SPLINE_SURFACE(3,2,((#1706,#1707,#1708),(#1709,#1710,#1711),(#1712,#1713,
#1714),(#1715,#1716,#1717),(#1718,#1719,#1720),(#1721,#1722,#1723)),
 .UNSPECIFIED.,.F.,.F.,.F.)
B_SPLINE_SURFACE_WITH_KNOTS((4,1,1,4),(3,3),(0.,0.00278330191184678,0.00556660382369356,
0.0111332076473871),(0.,1.),.UNSPECIFIED.)
GEOMETRIC_REPRESENTATION_ITEM()
RATIONAL_B_SPLINE_SURFACE(((1.,0.707106781186549,1.),(1.,0.762839651782119,
1.),(1.,0.851414223168492,1.),(1.,0.968553409719626,1.),(1.,1.0000000000001,
1.),(1.,1.,1.)))
REPRESENTATION_ITEM('')
SURFACE()
);
#24=(
BOUNDED_SURFACE()
B_SPLINE_SURFACE(3,2,((#1736,#1737,#1738),(#1739,#1740,#1741),(#1742,#1743,
#1744),(#1745,#1746,#1747),(#1748,#1749,#1750),(#1751,#1752,#1753)),
 .UNSPECIFIED.,.F.,.F.,.F.)
B_SPLINE_SURFACE_WITH_KNOTS((4,1,1,4),(3,3),(0.,0.00278330191184681,0.00556660382369361,
0.0111332076473872),(0.,1.),.UNSPECIFIED.)
GEOMETRIC_REPRESENTATION_ITEM()
RATIONAL_B_SPLINE_SURFACE(((1.,0.707106781186548,1.),(1.,0.762839651782792,
1.),(1.,0.851414223168186,1.),(1.,0.968553409719813,1.),(1.,1.0000000000001,
1.),(1.,1.,1.)))
REPRESENTATION_ITEM('')
SURFACE()
);
#25=(
BOUNDED_SURFACE()
B_SPLINE_SURFACE(3,2,((#1762,#1763,#1764),(#1765,#1766,#1767),(#1768,#1769,
#1770),(#1771,#1772,#1773),(#1774,#1775,#1776)),.UNSPECIFIED.,.F.,.F.,.F.)
B_SPLINE_SURFACE_WITH_KNOTS((4,1,4),(3,3),(0.,0.00162517077836572,0.00325034155673145),
(0.,1.),.UNSPECIFIED.)
GEOMETRIC_REPRESENTATION_ITEM()
RATIONAL_B_SPLINE_SURFACE(((1.,0.841205752859588,1.),(1.,0.841205750972998,
1.),(1.,0.806427263721677,1.),(1.,0.73871742046866,1.),(1.,0.707106781186548,
1.)))
REPRESENTATION_ITEM('')
SURFACE()
);
#26=(
BOUNDED_SURFACE()
B_SPLINE_SURFACE(3,2,((#1780,#1781,#1782),(#1783,#1784,#1785),(#1786,#1787,
#1788),(#1789,#1790,#1791),(#1792,#1793,#1794)),.UNSPECIFIED.,.F.,.F.,.F.)
B_SPLINE_SURFACE_WITH_KNOTS((4,1,4),(3,3),(0.,0.00162529046486707,0.00325058092973414),
(0.,1.),.UNSPECIFIED.)
GEOMETRIC_REPRESENTATION_ITEM()
RATIONAL_B_SPLINE_SURFACE(((1.,0.707106781186549,1.),(1.,0.738757849719467,
1.),(1.,0.806308202281429,1.),(1.,0.84120575201992,1.),(1.,0.841205752859589,
1.)))
REPRESENTATION_ITEM('')
SURFACE()
);
#27=(
BOUNDED_SURFACE()
B_SPLINE_SURFACE(3,2,((#1803,#1804,#1805),(#1806,#1807,#1808),(#1809,#1810,
#1811),(#1812,#1813,#1814),(#1815,#1816,#1817),(#1818,#1819,#1820)),
 .UNSPECIFIED.,.F.,.F.,.F.)
B_SPLINE_SURFACE_WITH_KNOTS((4,1,1,4),(3,3),(0.,0.00278330191184679,0.00556660382369359,
0.0111332076473872),(0.,1.),.UNSPECIFIED.)
GEOMETRIC_REPRESENTATION_ITEM()
RATIONAL_B_SPLINE_SURFACE(((1.,0.707106781186548,1.),(1.,0.762839651782948,
1.),(1.,0.851414223168115,1.),(1.,0.968553409719853,1.),(1.,1.0000000000001,
1.),(1.,1.,1.)))
REPRESENTATION_ITEM('')
SURFACE()
);
#28=SPHERICAL_SURFACE('',#986,20.);
#29=TOROIDAL_SURFACE('',#984,18.7349939951952,0.5);
#30=TOROIDAL_SURFACE('',#988,18.7349939951952,0.5);
#31=TOROIDAL_SURFACE('',#1016,27.5,1.);
#32=TOROIDAL_SURFACE('',#1019,10.25,1.);
#33=TOROIDAL_SURFACE('',#1024,10.25,1.);
#34=TOROIDAL_SURFACE('',#1029,29.5,1.);
#35=TOROIDAL_SURFACE('',#1033,29.5,1.);
#36=TOROIDAL_SURFACE('',#1037,29.5,1.);
#37=TOROIDAL_SURFACE('',#1042,29.5,1.);
#38=TOROIDAL_SURFACE('',#1046,29.5,1.);
#39=TOROIDAL_SURFACE('',#1050,29.5,1.);
#40=B_SPLINE_CURVE_WITH_KNOTS('',3,(#1357,#1358,#1359,#1360,#1361,#1362,
#1363,#1364,#1365,#1366,#1367),.UNSPECIFIED.,.T.,.F.,(1,1,1,1,1,1,1,1,1,
1,1,1,1,1,1),(-0.00351746966158215,-0.0023449797743881,-0.00117248988719405,
0.,0.00117248988719405,0.0023449797743881,0.00351746966158215,0.0046899595487762,
0.00586244943597025,0.0070349393231643,0.00820742921035835,0.0093799190975524,
0.0105524089847464,0.0117248988719405,0.0128973887591345),.UNSPECIFIED.);
#41=B_SPLINE_CURVE_WITH_KNOTS('',3,(#1374,#1375,#1376,#1377,#1378),
 .UNSPECIFIED.,.F.,.F.,(4,1,4),(0.,0.00537885406910079,0.0107577081382016),
 .UNSPECIFIED.);
#42=B_SPLINE_CURVE_WITH_KNOTS('',3,(#1386,#1387,#1388,#1389,#1390),
 .UNSPECIFIED.,.F.,.F.,(4,1,4),(0.,0.00537885406910086,0.0107577081382017),
 .UNSPECIFIED.);
#43=B_SPLINE_CURVE_WITH_KNOTS('',3,(#1394,#1395,#1396,#1397,#1398),
 .UNSPECIFIED.,.F.,.F.,(4,1,4),(0.,0.00161757946942012,0.00323515893884024),
 .UNSPECIFIED.);
#44=B_SPLINE_CURVE_WITH_KNOTS('',3,(#1402,#1403,#1404,#1405,#1406),
 .UNSPECIFIED.,.F.,.F.,(4,1,4),(0.,0.00160089587378836,0.00320179174757671),
 .UNSPECIFIED.);
#45=B_SPLINE_CURVE_WITH_KNOTS('',3,(#1410,#1411,#1412,#1413,#1414),
 .UNSPECIFIED.,.F.,.F.,(4,1,4),(0.,0.00537885406910087,0.0107577081382017),
 .UNSPECIFIED.);
#46=B_SPLINE_CURVE_WITH_KNOTS('',3,(#1422,#1423,#1424,#1425,#1426),
 .UNSPECIFIED.,.F.,.F.,(4,1,4),(0.,0.00537885406910084,0.0107577081382017),
 .UNSPECIFIED.);
#47=B_SPLINE_CURVE_WITH_KNOTS('',3,(#1430,#1431,#1432,#1433,#1434),
 .UNSPECIFIED.,.F.,.F.,(4,1,4),(0.,0.00161757946942012,0.00323515893884024),
 .UNSPECIFIED.);
#48=B_SPLINE_CURVE_WITH_KNOTS('',3,(#1438,#1439,#1440,#1441,#1442),
 .UNSPECIFIED.,.F.,.F.,(4,1,4),(0.,0.00160089587378835,0.00320179174757671),
 .UNSPECIFIED.);
#49=B_SPLINE_CURVE_WITH_KNOTS('',3,(#1467,#1468,#1469,#1470,#1471,#1472,
#1473,#1474,#1475,#1476,#1477),.UNSPECIFIED.,.T.,.F.,(1,1,1,1,1,1,1,1,1,
1,1,1,1,1,1),(-0.0035306048594104,-0.00235373657294027,-0.00117686828647013,
0.,0.00117686828647013,0.00235373657294026,0.0035306048594104,0.00470747314588053,
0.00588434143235066,0.00706120971882079,0.00823807800529093,0.00941494629176106,
0.0105918145782312,0.0117686828647013,0.0129455511511715),.UNSPECIFIED.);
#50=B_SPLINE_CURVE_WITH_KNOTS('',3,(#1500,#1501,#1502,#1503,#1504),
 .UNSPECIFIED.,.F.,.F.,(4,1,4),(0.,0.0024437567981104,0.0048875135962208),
 .UNSPECIFIED.);
#51=B_SPLINE_CURVE_WITH_KNOTS('',3,(#1509,#1510,#1511,#1512,#1513),
 .UNSPECIFIED.,.F.,.F.,(4,1,4),(0.,0.00244375679811039,0.00488751359622078),
 .UNSPECIFIED.);
#52=B_SPLINE_CURVE_WITH_KNOTS('',3,(#1527,#1528,#1529,#1530,#1531),
 .UNSPECIFIED.,.F.,.F.,(4,1,4),(0.,0.00244375679811039,0.00488751359622079),
 .UNSPECIFIED.);
#53=B_SPLINE_CURVE_WITH_KNOTS('',3,(#1536,#1537,#1538,#1539,#1540),
 .UNSPECIFIED.,.F.,.F.,(4,1,4),(0.,0.00244375679811054,0.00488751359622108),
 .UNSPECIFIED.);
#54=B_SPLINE_CURVE_WITH_KNOTS('',3,(#1558,#1559,#1560,#1561),
 .UNSPECIFIED.,.F.,.F.,(4,4),(0.,0.000442361163836335),.UNSPECIFIED.);
#55=B_SPLINE_CURVE_WITH_KNOTS('',3,(#1570,#1571,#1572,#1573),
 .UNSPECIFIED.,.F.,.F.,(4,4),(0.,0.000442361163836339),.UNSPECIFIED.);
#56=B_SPLINE_CURVE_WITH_KNOTS('',3,(#1588,#1589,#1590,#1591),
 .UNSPECIFIED.,.F.,.F.,(4,4),(0.,0.000442361163836339),.UNSPECIFIED.);
#57=B_SPLINE_CURVE_WITH_KNOTS('',3,(#1594,#1595,#1596,#1597),
 .UNSPECIFIED.,.F.,.F.,(4,4),(0.,0.000442361163836335),.UNSPECIFIED.);
#58=B_SPLINE_CURVE_WITH_KNOTS('',3,(#1604,#1605,#1606,#1607,#1608),
 .UNSPECIFIED.,.F.,.F.,(4,1,4),(0.,0.000898645461425515,0.00179729092285103),
 .UNSPECIFIED.);
#59=B_SPLINE_CURVE_WITH_KNOTS('',3,(#1613,#1614,#1615,#1616,#1617),
 .UNSPECIFIED.,.F.,.F.,(4,1,4),(0.,0.000898473888702087,0.00179694777740417),
 .UNSPECIFIED.);
#60=B_SPLINE_CURVE_WITH_KNOTS('',3,(#1619,#1620,#1621,#1622,#1623),
 .UNSPECIFIED.,.F.,.F.,(4,1,4),(8.67361737988404E-19,0.000898473888702087,
0.00179694777740417),.UNSPECIFIED.);
#61=B_SPLINE_CURVE_WITH_KNOTS('',3,(#1628,#1629,#1630,#1631,#1632),
 .UNSPECIFIED.,.F.,.F.,(4,1,4),(0.,0.000898645461425514,0.00179729092285103),
 .UNSPECIFIED.);
#62=B_SPLINE_CURVE_WITH_KNOTS('',3,(#1634,#1635,#1636,#1637,#1638),
 .UNSPECIFIED.,.F.,.F.,(4,1,4),(0.,0.00539462229670506,0.0107892445934101),
 .UNSPECIFIED.);
#63=B_SPLINE_CURVE_WITH_KNOTS('',3,(#1659,#1660,#1661,#1662),
 .UNSPECIFIED.,.F.,.F.,(4,4),(0.,0.00146923650479686),.UNSPECIFIED.);
#64=B_SPLINE_CURVE_WITH_KNOTS('',3,(#1700,#1701,#1702,#1703),
 .UNSPECIFIED.,.F.,.F.,(4,4),(0.,0.00146923650479686),.UNSPECIFIED.);
#65=B_SPLINE_CURVE_WITH_KNOTS('',3,(#1724,#1725,#1726,#1727,#1728),
 .UNSPECIFIED.,.F.,.F.,(4,1,4),(0.,0.00539462229670511,0.0107892445934102),
 .UNSPECIFIED.);
#66=B_SPLINE_CURVE_WITH_KNOTS('',3,(#1731,#1732,#1733,#1734,#1735),
 .UNSPECIFIED.,.F.,.F.,(4,1,4),(0.,0.00539462229670514,0.0107892445934103),
 .UNSPECIFIED.);
#67=B_SPLINE_CURVE_WITH_KNOTS('',3,(#1756,#1757,#1758,#1759),
 .UNSPECIFIED.,.F.,.F.,(4,4),(0.,0.00146923650479686),.UNSPECIFIED.);
#68=B_SPLINE_CURVE_WITH_KNOTS('',3,(#1797,#1798,#1799,#1800),
 .UNSPECIFIED.,.F.,.F.,(4,4),(0.,0.00146923650479686),.UNSPECIFIED.);
#69=B_SPLINE_CURVE_WITH_KNOTS('',3,(#1821,#1822,#1823,#1824,#1825),
 .UNSPECIFIED.,.F.,.F.,(4,1,4),(0.,0.00539462229670513,0.0107892445934103),
 .UNSPECIFIED.);
#70=CYLINDRICAL_SURFACE('',#966,28.5);
#71=CYLINDRICAL_SURFACE('',#982,19.2349939951952);
#72=CYLINDRICAL_SURFACE('',#990,19.2349939951952);
#73=CYLINDRICAL_SURFACE('',#994,11.25);
#74=CYLINDRICAL_SURFACE('',#998,5.75);
#75=CYLINDRICAL_SURFACE('',#1000,11.25);
#76=CYLINDRICAL_SURFACE('',#1004,5.75);
#77=CYLINDRICAL_SURFACE('',#1017,1.);
#78=CYLINDRICAL_SURFACE('',#1021,1.);
#79=CYLINDRICAL_SURFACE('',#1022,1.);
#80=CYLINDRICAL_SURFACE('',#1026,1.);
#81=CYLINDRICAL_SURFACE('',#1027,1.);
#82=CYLINDRICAL_SURFACE('',#1030,1.);
#83=CYLINDRICAL_SURFACE('',#1036,1.);
#84=CYLINDRICAL_SURFACE('',#1039,1.);
#85=CYLINDRICAL_SURFACE('',#1040,1.);
#86=CYLINDRICAL_SURFACE('',#1043,1.);
#87=CYLINDRICAL_SURFACE('',#1049,1.);
#88=CYLINDRICAL_SURFACE('',#1052,1.);
#89=CYLINDRICAL_SURFACE('',#1053,1.5);
#90=CYLINDRICAL_SURFACE('',#1054,2.5);
#91=CYLINDRICAL_SURFACE('',#1060,1.45);
#92=LINE('',#1328,#132);
#93=LINE('',#1332,#133);
#94=LINE('',#1334,#134);
#95=LINE('',#1339,#135);
#96=LINE('',#1346,#136);
#97=LINE('',#1350,#137);
#98=LINE('',#1380,#138);
#99=LINE('',#1384,#139);
#100=LINE('',#1416,#140);
#101=LINE('',#1420,#141);
#102=LINE('',#1444,#142);
#103=LINE('',#1448,#143);
#104=LINE('',#1449,#144);
#105=LINE('',#1453,#145);
#106=LINE('',#1489,#146);
#107=LINE('',#1493,#147);
#108=LINE('',#1495,#148);
#109=LINE('',#1499,#149);
#110=LINE('',#1506,#150);
#111=LINE('',#1507,#151);
#112=LINE('',#1515,#152);
#113=LINE('',#1517,#153);
#114=LINE('',#1522,#154);
#115=LINE('',#1526,#155);
#116=LINE('',#1533,#156);
#117=LINE('',#1534,#157);
#118=LINE('',#1542,#158);
#119=LINE('',#1544,#159);
#120=LINE('',#1549,#160);
#121=LINE('',#1554,#161);
#122=LINE('',#1563,#162);
#123=LINE('',#1565,#163);
#124=LINE('',#1567,#164);
#125=LINE('',#1574,#165);
#126=LINE('',#1576,#166);
#127=LINE('',#1581,#167);
#128=LINE('',#1585,#168);
#129=LINE('',#1592,#169);
#130=LINE('',#1599,#170);
#131=LINE('',#1601,#171);
#132=VECTOR('',#1069,1000.);
#133=VECTOR('',#1072,1000.);
#134=VECTOR('',#1075,1000.);
#135=VECTOR('',#1078,1000.);
#136=VECTOR('',#1085,1000.);
#137=VECTOR('',#1088,1000.);
#138=VECTOR('',#1101,1000.);
#139=VECTOR('',#1104,1000.);
#140=VECTOR('',#1111,1000.);
#141=VECTOR('',#1114,1000.);
#142=VECTOR('',#1121,1000.);
#143=VECTOR('',#1124,1000.);
#144=VECTOR('',#1125,1000.);
#145=VECTOR('',#1128,1000.);
#146=VECTOR('',#1157,1000.);
#147=VECTOR('',#1160,1000.);
#148=VECTOR('',#1163,1000.);
#149=VECTOR('',#1166,1000.);
#150=VECTOR('',#1167,1000.);
#151=VECTOR('',#1168,1000.);
#152=VECTOR('',#1171,1000.);
#153=VECTOR('',#1174,1000.);
#154=VECTOR('',#1181,1000.);
#155=VECTOR('',#1184,1000.);
#156=VECTOR('',#1185,1000.);
#157=VECTOR('',#1186,1000.);
#158=VECTOR('',#1189,1000.);
#159=VECTOR('',#1192,1000.);
#160=VECTOR('',#1199,1000.);
#161=VECTOR('',#1202,1000.);
#162=VECTOR('',#1207,1000.);
#163=VECTOR('',#1208,1000.);
#164=VECTOR('',#1211,1000.);
#165=VECTOR('',#1212,1000.);
#166=VECTOR('',#1215,1000.);
#167=VECTOR('',#1218,1000.);
#168=VECTOR('',#1223,1000.);
#169=VECTOR('',#1224,1000.);
#170=VECTOR('',#1227,1000.);
#171=VECTOR('',#1228,1000.);
#172=ORIENTED_EDGE('',*,*,#424,.T.);
#173=ORIENTED_EDGE('',*,*,#425,.T.);
#174=ORIENTED_EDGE('',*,*,#426,.F.);
#175=ORIENTED_EDGE('',*,*,#427,.F.);
#176=ORIENTED_EDGE('',*,*,#428,.T.);
#177=ORIENTED_EDGE('',*,*,#429,.T.);
#178=ORIENTED_EDGE('',*,*,#430,.T.);
#179=ORIENTED_EDGE('',*,*,#431,.T.);
#180=ORIENTED_EDGE('',*,*,#432,.T.);
#181=ORIENTED_EDGE('',*,*,#433,.T.);
#182=ORIENTED_EDGE('',*,*,#434,.T.);
#183=ORIENTED_EDGE('',*,*,#435,.T.);
#184=ORIENTED_EDGE('',*,*,#436,.T.);
#185=ORIENTED_EDGE('',*,*,#437,.F.);
#186=ORIENTED_EDGE('',*,*,#438,.F.);
#187=ORIENTED_EDGE('',*,*,#439,.T.);
#188=ORIENTED_EDGE('',*,*,#440,.T.);
#189=ORIENTED_EDGE('',*,*,#441,.T.);
#190=ORIENTED_EDGE('',*,*,#442,.T.);
#191=ORIENTED_EDGE('',*,*,#443,.T.);
#192=ORIENTED_EDGE('',*,*,#444,.F.);
#193=ORIENTED_EDGE('',*,*,#445,.T.);
#194=ORIENTED_EDGE('',*,*,#446,.T.);
#195=ORIENTED_EDGE('',*,*,#447,.T.);
#196=ORIENTED_EDGE('',*,*,#448,.T.);
#197=ORIENTED_EDGE('',*,*,#449,.T.);
#198=ORIENTED_EDGE('',*,*,#450,.T.);
#199=ORIENTED_EDGE('',*,*,#451,.T.);
#200=ORIENTED_EDGE('',*,*,#452,.T.);
#201=ORIENTED_EDGE('',*,*,#453,.T.);
#202=ORIENTED_EDGE('',*,*,#454,.F.);
#203=ORIENTED_EDGE('',*,*,#455,.T.);
#204=ORIENTED_EDGE('',*,*,#456,.T.);
#205=ORIENTED_EDGE('',*,*,#457,.T.);
#206=ORIENTED_EDGE('',*,*,#458,.T.);
#207=ORIENTED_EDGE('',*,*,#459,.T.);
#208=ORIENTED_EDGE('',*,*,#460,.F.);
#209=ORIENTED_EDGE('',*,*,#461,.F.);
#210=ORIENTED_EDGE('',*,*,#462,.F.);
#211=ORIENTED_EDGE('',*,*,#453,.F.);
#212=ORIENTED_EDGE('',*,*,#463,.F.);
#213=ORIENTED_EDGE('',*,*,#464,.F.);
#214=ORIENTED_EDGE('',*,*,#465,.F.);
#215=ORIENTED_EDGE('',*,*,#443,.F.);
#216=ORIENTED_EDGE('',*,*,#466,.T.);
#217=ORIENTED_EDGE('',*,*,#467,.T.);
#218=ORIENTED_EDGE('',*,*,#468,.F.);
#219=ORIENTED_EDGE('',*,*,#469,.T.);
#220=ORIENTED_EDGE('',*,*,#467,.F.);
#221=ORIENTED_EDGE('',*,*,#470,.T.);
#222=ORIENTED_EDGE('',*,*,#469,.F.);
#223=ORIENTED_EDGE('',*,*,#471,.F.);
#224=ORIENTED_EDGE('',*,*,#472,.T.);
#225=ORIENTED_EDGE('',*,*,#470,.F.);
#226=ORIENTED_EDGE('',*,*,#473,.T.);
#227=ORIENTED_EDGE('',*,*,#472,.F.);
#228=ORIENTED_EDGE('',*,*,#437,.T.);
#229=ORIENTED_EDGE('',*,*,#473,.F.);
#230=ORIENTED_EDGE('',*,*,#474,.F.);
#231=ORIENTED_EDGE('',*,*,#475,.T.);
#232=ORIENTED_EDGE('',*,*,#476,.T.);
#233=ORIENTED_EDGE('',*,*,#477,.F.);
#234=ORIENTED_EDGE('',*,*,#478,.F.);
#235=ORIENTED_EDGE('',*,*,#479,.T.);
#236=ORIENTED_EDGE('',*,*,#480,.T.);
#237=ORIENTED_EDGE('',*,*,#426,.T.);
#238=ORIENTED_EDGE('',*,*,#481,.T.);
#239=ORIENTED_EDGE('',*,*,#482,.T.);
#240=ORIENTED_EDGE('',*,*,#461,.T.);
#241=ORIENTED_EDGE('',*,*,#483,.F.);
#242=ORIENTED_EDGE('',*,*,#484,.T.);
#243=ORIENTED_EDGE('',*,*,#474,.T.);
#244=ORIENTED_EDGE('',*,*,#442,.F.);
#245=ORIENTED_EDGE('',*,*,#485,.T.);
#246=ORIENTED_EDGE('',*,*,#483,.T.);
#247=ORIENTED_EDGE('',*,*,#460,.T.);
#248=ORIENTED_EDGE('',*,*,#482,.F.);
#249=ORIENTED_EDGE('',*,*,#486,.T.);
#250=ORIENTED_EDGE('',*,*,#454,.T.);
#251=ORIENTED_EDGE('',*,*,#462,.T.);
#252=ORIENTED_EDGE('',*,*,#468,.T.);
#253=ORIENTED_EDGE('',*,*,#487,.T.);
#254=ORIENTED_EDGE('',*,*,#488,.F.);
#255=ORIENTED_EDGE('',*,*,#489,.T.);
#256=ORIENTED_EDGE('',*,*,#490,.T.);
#257=ORIENTED_EDGE('',*,*,#434,.F.);
#258=ORIENTED_EDGE('',*,*,#491,.T.);
#259=ORIENTED_EDGE('',*,*,#492,.T.);
#260=ORIENTED_EDGE('',*,*,#464,.T.);
#261=ORIENTED_EDGE('',*,*,#493,.F.);
#262=ORIENTED_EDGE('',*,*,#494,.T.);
#263=ORIENTED_EDGE('',*,*,#431,.F.);
#264=ORIENTED_EDGE('',*,*,#452,.F.);
#265=ORIENTED_EDGE('',*,*,#495,.T.);
#266=ORIENTED_EDGE('',*,*,#493,.T.);
#267=ORIENTED_EDGE('',*,*,#463,.T.);
#268=ORIENTED_EDGE('',*,*,#492,.F.);
#269=ORIENTED_EDGE('',*,*,#496,.T.);
#270=ORIENTED_EDGE('',*,*,#444,.T.);
#271=ORIENTED_EDGE('',*,*,#465,.T.);
#272=ORIENTED_EDGE('',*,*,#466,.F.);
#273=ORIENTED_EDGE('',*,*,#497,.F.);
#274=ORIENTED_EDGE('',*,*,#497,.T.);
#275=ORIENTED_EDGE('',*,*,#498,.T.);
#276=ORIENTED_EDGE('',*,*,#499,.T.);
#277=ORIENTED_EDGE('',*,*,#500,.T.);
#278=ORIENTED_EDGE('',*,*,#501,.T.);
#279=ORIENTED_EDGE('',*,*,#502,.T.);
#280=ORIENTED_EDGE('',*,*,#503,.T.);
#281=ORIENTED_EDGE('',*,*,#504,.T.);
#282=ORIENTED_EDGE('',*,*,#488,.T.);
#283=ORIENTED_EDGE('',*,*,#430,.F.);
#284=ORIENTED_EDGE('',*,*,#505,.T.);
#285=ORIENTED_EDGE('',*,*,#506,.T.);
#286=ORIENTED_EDGE('',*,*,#435,.F.);
#287=ORIENTED_EDGE('',*,*,#490,.F.);
#288=ORIENTED_EDGE('',*,*,#507,.T.);
#289=ORIENTED_EDGE('',*,*,#487,.F.);
#290=ORIENTED_EDGE('',*,*,#508,.T.);
#291=ORIENTED_EDGE('',*,*,#509,.T.);
#292=ORIENTED_EDGE('',*,*,#510,.T.);
#293=ORIENTED_EDGE('',*,*,#511,.T.);
#294=ORIENTED_EDGE('',*,*,#512,.T.);
#295=ORIENTED_EDGE('',*,*,#513,.T.);
#296=ORIENTED_EDGE('',*,*,#427,.T.);
#297=ORIENTED_EDGE('',*,*,#480,.F.);
#298=ORIENTED_EDGE('',*,*,#514,.T.);
#299=ORIENTED_EDGE('',*,*,#515,.T.);
#300=ORIENTED_EDGE('',*,*,#516,.T.);
#301=ORIENTED_EDGE('',*,*,#517,.T.);
#302=ORIENTED_EDGE('',*,*,#478,.T.);
#303=ORIENTED_EDGE('',*,*,#477,.T.);
#304=ORIENTED_EDGE('',*,*,#439,.F.);
#305=ORIENTED_EDGE('',*,*,#436,.F.);
#306=ORIENTED_EDGE('',*,*,#500,.F.);
#307=ORIENTED_EDGE('',*,*,#518,.T.);
#308=ORIENTED_EDGE('',*,*,#507,.F.);
#309=ORIENTED_EDGE('',*,*,#519,.F.);
#310=ORIENTED_EDGE('',*,*,#519,.T.);
#311=ORIENTED_EDGE('',*,*,#489,.F.);
#312=ORIENTED_EDGE('',*,*,#520,.F.);
#313=ORIENTED_EDGE('',*,*,#501,.F.);
#314=ORIENTED_EDGE('',*,*,#504,.F.);
#315=ORIENTED_EDGE('',*,*,#521,.T.);
#316=ORIENTED_EDGE('',*,*,#498,.F.);
#317=ORIENTED_EDGE('',*,*,#520,.T.);
#318=ORIENTED_EDGE('',*,*,#517,.F.);
#319=ORIENTED_EDGE('',*,*,#522,.T.);
#320=ORIENTED_EDGE('',*,*,#508,.F.);
#321=ORIENTED_EDGE('',*,*,#523,.F.);
#322=ORIENTED_EDGE('',*,*,#523,.T.);
#323=ORIENTED_EDGE('',*,*,#511,.F.);
#324=ORIENTED_EDGE('',*,*,#524,.F.);
#325=ORIENTED_EDGE('',*,*,#479,.F.);
#326=ORIENTED_EDGE('',*,*,#510,.F.);
#327=ORIENTED_EDGE('',*,*,#525,.T.);
#328=ORIENTED_EDGE('',*,*,#514,.F.);
#329=ORIENTED_EDGE('',*,*,#524,.T.);
#330=ORIENTED_EDGE('',*,*,#484,.F.);
#331=ORIENTED_EDGE('',*,*,#485,.F.);
#332=ORIENTED_EDGE('',*,*,#526,.F.);
#333=ORIENTED_EDGE('',*,*,#475,.F.);
#334=ORIENTED_EDGE('',*,*,#526,.T.);
#335=ORIENTED_EDGE('',*,*,#441,.F.);
#336=ORIENTED_EDGE('',*,*,#527,.F.);
#337=ORIENTED_EDGE('',*,*,#528,.F.);
#338=ORIENTED_EDGE('',*,*,#515,.F.);
#339=ORIENTED_EDGE('',*,*,#476,.F.);
#340=ORIENTED_EDGE('',*,*,#527,.T.);
#341=ORIENTED_EDGE('',*,*,#440,.F.);
#342=ORIENTED_EDGE('',*,*,#516,.F.);
#343=ORIENTED_EDGE('',*,*,#528,.T.);
#344=ORIENTED_EDGE('',*,*,#529,.F.);
#345=ORIENTED_EDGE('',*,*,#529,.T.);
#346=ORIENTED_EDGE('',*,*,#459,.F.);
#347=ORIENTED_EDGE('',*,*,#530,.F.);
#348=ORIENTED_EDGE('',*,*,#522,.F.);
#349=ORIENTED_EDGE('',*,*,#530,.T.);
#350=ORIENTED_EDGE('',*,*,#458,.F.);
#351=ORIENTED_EDGE('',*,*,#531,.F.);
#352=ORIENTED_EDGE('',*,*,#509,.F.);
#353=ORIENTED_EDGE('',*,*,#532,.F.);
#354=ORIENTED_EDGE('',*,*,#525,.F.);
#355=ORIENTED_EDGE('',*,*,#531,.T.);
#356=ORIENTED_EDGE('',*,*,#457,.F.);
#357=ORIENTED_EDGE('',*,*,#512,.F.);
#358=ORIENTED_EDGE('',*,*,#532,.T.);
#359=ORIENTED_EDGE('',*,*,#533,.F.);
#360=ORIENTED_EDGE('',*,*,#533,.T.);
#361=ORIENTED_EDGE('',*,*,#456,.F.);
#362=ORIENTED_EDGE('',*,*,#534,.F.);
#363=ORIENTED_EDGE('',*,*,#424,.F.);
#364=ORIENTED_EDGE('',*,*,#513,.F.);
#365=ORIENTED_EDGE('',*,*,#534,.T.);
#366=ORIENTED_EDGE('',*,*,#455,.F.);
#367=ORIENTED_EDGE('',*,*,#535,.F.);
#368=ORIENTED_EDGE('',*,*,#535,.T.);
#369=ORIENTED_EDGE('',*,*,#486,.F.);
#370=ORIENTED_EDGE('',*,*,#481,.F.);
#371=ORIENTED_EDGE('',*,*,#425,.F.);
#372=ORIENTED_EDGE('',*,*,#494,.F.);
#373=ORIENTED_EDGE('',*,*,#495,.F.);
#374=ORIENTED_EDGE('',*,*,#536,.F.);
#375=ORIENTED_EDGE('',*,*,#428,.F.);
#376=ORIENTED_EDGE('',*,*,#536,.T.);
#377=ORIENTED_EDGE('',*,*,#451,.F.);
#378=ORIENTED_EDGE('',*,*,#537,.F.);
#379=ORIENTED_EDGE('',*,*,#538,.F.);
#380=ORIENTED_EDGE('',*,*,#502,.F.);
#381=ORIENTED_EDGE('',*,*,#429,.F.);
#382=ORIENTED_EDGE('',*,*,#537,.T.);
#383=ORIENTED_EDGE('',*,*,#450,.F.);
#384=ORIENTED_EDGE('',*,*,#503,.F.);
#385=ORIENTED_EDGE('',*,*,#538,.T.);
#386=ORIENTED_EDGE('',*,*,#539,.F.);
#387=ORIENTED_EDGE('',*,*,#539,.T.);
#388=ORIENTED_EDGE('',*,*,#449,.F.);
#389=ORIENTED_EDGE('',*,*,#540,.F.);
#390=ORIENTED_EDGE('',*,*,#521,.F.);
#391=ORIENTED_EDGE('',*,*,#540,.T.);
#392=ORIENTED_EDGE('',*,*,#448,.F.);
#393=ORIENTED_EDGE('',*,*,#541,.F.);
#394=ORIENTED_EDGE('',*,*,#499,.F.);
#395=ORIENTED_EDGE('',*,*,#542,.F.);
#396=ORIENTED_EDGE('',*,*,#518,.F.);
#397=ORIENTED_EDGE('',*,*,#541,.T.);
#398=ORIENTED_EDGE('',*,*,#447,.F.);
#399=ORIENTED_EDGE('',*,*,#505,.F.);
#400=ORIENTED_EDGE('',*,*,#542,.T.);
#401=ORIENTED_EDGE('',*,*,#543,.F.);
#402=ORIENTED_EDGE('',*,*,#543,.T.);
#403=ORIENTED_EDGE('',*,*,#446,.F.);
#404=ORIENTED_EDGE('',*,*,#544,.F.);
#405=ORIENTED_EDGE('',*,*,#432,.F.);
#406=ORIENTED_EDGE('',*,*,#506,.F.);
#407=ORIENTED_EDGE('',*,*,#544,.T.);
#408=ORIENTED_EDGE('',*,*,#445,.F.);
#409=ORIENTED_EDGE('',*,*,#545,.F.);
#410=ORIENTED_EDGE('',*,*,#545,.T.);
#411=ORIENTED_EDGE('',*,*,#496,.F.);
#412=ORIENTED_EDGE('',*,*,#491,.F.);
#413=ORIENTED_EDGE('',*,*,#433,.F.);
#414=ORIENTED_EDGE('',*,*,#471,.T.);
#415=ORIENTED_EDGE('',*,*,#438,.T.);
#416=ORIENTED_EDGE('',*,*,#546,.F.);
#417=ORIENTED_EDGE('',*,*,#547,.T.);
#418=ORIENTED_EDGE('',*,*,#546,.T.);
#419=ORIENTED_EDGE('',*,*,#548,.F.);
#420=ORIENTED_EDGE('',*,*,#549,.F.);
#421=ORIENTED_EDGE('',*,*,#548,.T.);
#422=ORIENTED_EDGE('',*,*,#547,.F.);
#423=ORIENTED_EDGE('',*,*,#549,.T.);
#424=EDGE_CURVE('',#550,#551,#632,.F.);
#425=EDGE_CURVE('',#551,#552,#92,.T.);
#426=EDGE_CURVE('',#553,#552,#633,.T.);
#427=EDGE_CURVE('',#550,#553,#93,.T.);
#428=EDGE_CURVE('',#554,#555,#94,.T.);
#429=EDGE_CURVE('',#555,#556,#634,.F.);
#430=EDGE_CURVE('',#556,#557,#95,.T.);
#431=EDGE_CURVE('',#557,#554,#635,.F.);
#432=EDGE_CURVE('',#558,#559,#636,.F.);
#433=EDGE_CURVE('',#559,#560,#96,.T.);
#434=EDGE_CURVE('',#560,#561,#637,.F.);
#435=EDGE_CURVE('',#561,#558,#97,.T.);
#436=EDGE_CURVE('',#562,#562,#638,.T.);
#437=EDGE_CURVE('',#563,#563,#639,.T.);
#438=EDGE_CURVE('',#564,#564,#40,.T.);
#439=EDGE_CURVE('',#565,#565,#640,.F.);
#440=EDGE_CURVE('',#566,#567,#641,.T.);
#441=EDGE_CURVE('',#567,#568,#41,.T.);
#442=EDGE_CURVE('',#568,#569,#98,.T.);
#443=EDGE_CURVE('',#569,#570,#642,.T.);
#444=EDGE_CURVE('',#571,#570,#99,.T.);
#445=EDGE_CURVE('',#571,#572,#42,.F.);
#446=EDGE_CURVE('',#572,#573,#643,.T.);
#447=EDGE_CURVE('',#573,#574,#43,.T.);
#448=EDGE_CURVE('',#574,#575,#644,.T.);
#449=EDGE_CURVE('',#575,#576,#44,.T.);
#450=EDGE_CURVE('',#576,#577,#645,.T.);
#451=EDGE_CURVE('',#577,#578,#45,.T.);
#452=EDGE_CURVE('',#578,#579,#100,.T.);
#453=EDGE_CURVE('',#579,#580,#646,.T.);
#454=EDGE_CURVE('',#581,#580,#101,.T.);
#455=EDGE_CURVE('',#581,#582,#46,.F.);
#456=EDGE_CURVE('',#582,#583,#647,.T.);
#457=EDGE_CURVE('',#583,#584,#47,.T.);
#458=EDGE_CURVE('',#584,#585,#648,.F.);
#459=EDGE_CURVE('',#585,#566,#48,.T.);
#460=EDGE_CURVE('',#586,#569,#102,.T.);
#461=EDGE_CURVE('',#587,#586,#649,.T.);
#462=EDGE_CURVE('',#580,#587,#103,.T.);
#463=EDGE_CURVE('',#588,#579,#104,.T.);
#464=EDGE_CURVE('',#589,#588,#650,.T.);
#465=EDGE_CURVE('',#570,#589,#105,.T.);
#466=EDGE_CURVE('',#590,#590,#651,.T.);
#467=EDGE_CURVE('',#591,#591,#652,.T.);
#468=EDGE_CURVE('',#592,#592,#653,.T.);
#469=EDGE_CURVE('',#593,#593,#654,.T.);
#470=EDGE_CURVE('',#594,#594,#655,.T.);
#471=EDGE_CURVE('',#595,#595,#49,.T.);
#472=EDGE_CURVE('',#596,#596,#656,.T.);
#473=EDGE_CURVE('',#597,#597,#657,.T.);
#474=EDGE_CURVE('',#598,#599,#658,.T.);
#475=EDGE_CURVE('',#598,#600,#106,.T.);
#476=EDGE_CURVE('',#600,#601,#659,.F.);
#477=EDGE_CURVE('',#599,#601,#107,.T.);
#478=EDGE_CURVE('',#602,#599,#108,.T.);
#479=EDGE_CURVE('',#602,#603,#660,.T.);
#480=EDGE_CURVE('',#603,#553,#109,.T.);
#481=EDGE_CURVE('',#552,#604,#50,.T.);
#482=EDGE_CURVE('',#604,#587,#110,.T.);
#483=EDGE_CURVE('',#605,#586,#111,.T.);
#484=EDGE_CURVE('',#605,#598,#51,.F.);
#485=EDGE_CURVE('',#568,#605,#112,.F.);
#486=EDGE_CURVE('',#604,#581,#113,.F.);
#487=EDGE_CURVE('',#606,#606,#661,.T.);
#488=EDGE_CURVE('',#607,#557,#114,.T.);
#489=EDGE_CURVE('',#607,#608,#662,.F.);
#490=EDGE_CURVE('',#608,#561,#115,.T.);
#491=EDGE_CURVE('',#560,#609,#52,.T.);
#492=EDGE_CURVE('',#609,#589,#116,.T.);
#493=EDGE_CURVE('',#610,#588,#117,.T.);
#494=EDGE_CURVE('',#610,#554,#53,.F.);
#495=EDGE_CURVE('',#578,#610,#118,.F.);
#496=EDGE_CURVE('',#609,#571,#119,.F.);
#497=EDGE_CURVE('',#611,#611,#663,.T.);
#498=EDGE_CURVE('',#612,#613,#120,.T.);
#499=EDGE_CURVE('',#613,#614,#664,.F.);
#500=EDGE_CURVE('',#614,#615,#121,.T.);
#501=EDGE_CURVE('',#615,#612,#665,.T.);
#502=EDGE_CURVE('',#556,#616,#54,.T.);
#503=EDGE_CURVE('',#616,#617,#122,.T.);
#504=EDGE_CURVE('',#617,#607,#123,.F.);
#505=EDGE_CURVE('',#618,#619,#124,.F.);
#506=EDGE_CURVE('',#619,#558,#55,.T.);
#507=EDGE_CURVE('',#608,#618,#125,.F.);
#508=EDGE_CURVE('',#620,#621,#126,.F.);
#509=EDGE_CURVE('',#621,#622,#666,.T.);
#510=EDGE_CURVE('',#622,#623,#127,.F.);
#511=EDGE_CURVE('',#623,#620,#667,.F.);
#512=EDGE_CURVE('',#624,#625,#128,.T.);
#513=EDGE_CURVE('',#625,#550,#56,.T.);
#514=EDGE_CURVE('',#603,#624,#129,.T.);
#515=EDGE_CURVE('',#601,#626,#57,.T.);
#516=EDGE_CURVE('',#626,#627,#130,.F.);
#517=EDGE_CURVE('',#627,#602,#131,.T.);
#518=EDGE_CURVE('',#614,#618,#58,.T.);
#519=EDGE_CURVE('',#615,#608,#668,.T.);
#520=EDGE_CURVE('',#612,#607,#669,.T.);
#521=EDGE_CURVE('',#617,#613,#59,.T.);
#522=EDGE_CURVE('',#627,#621,#60,.T.);
#523=EDGE_CURVE('',#602,#620,#670,.T.);
#524=EDGE_CURVE('',#603,#623,#671,.T.);
#525=EDGE_CURVE('',#622,#624,#61,.T.);
#526=EDGE_CURVE('',#600,#568,#62,.T.);
#527=EDGE_CURVE('',#600,#567,#672,.T.);
#528=EDGE_CURVE('',#626,#566,#63,.T.);
#529=EDGE_CURVE('',#627,#566,#673,.T.);
#530=EDGE_CURVE('',#621,#585,#674,.T.);
#531=EDGE_CURVE('',#622,#584,#675,.T.);
#532=EDGE_CURVE('',#624,#583,#676,.T.);
#533=EDGE_CURVE('',#625,#583,#64,.T.);
#534=EDGE_CURVE('',#551,#582,#677,.T.);
#535=EDGE_CURVE('',#551,#581,#65,.T.);
#536=EDGE_CURVE('',#555,#578,#66,.T.);
#537=EDGE_CURVE('',#555,#577,#678,.T.);
#538=EDGE_CURVE('',#616,#576,#67,.T.);
#539=EDGE_CURVE('',#617,#576,#679,.T.);
#540=EDGE_CURVE('',#613,#575,#680,.T.);
#541=EDGE_CURVE('',#614,#574,#681,.T.);
#542=EDGE_CURVE('',#618,#573,#682,.T.);
#543=EDGE_CURVE('',#619,#573,#68,.T.);
#544=EDGE_CURVE('',#559,#572,#683,.T.);
#545=EDGE_CURVE('',#559,#571,#69,.T.);
#546=EDGE_CURVE('',#628,#628,#684,.T.);
#547=EDGE_CURVE('',#629,#629,#685,.T.);
#548=EDGE_CURVE('',#630,#630,#686,.T.);
#549=EDGE_CURVE('',#631,#631,#687,.T.);
#550=VERTEX_POINT('',#1326);
#551=VERTEX_POINT('',#1327);
#552=VERTEX_POINT('',#1329);
#553=VERTEX_POINT('',#1331);
#554=VERTEX_POINT('',#1335);
#555=VERTEX_POINT('',#1336);
#556=VERTEX_POINT('',#1338);
#557=VERTEX_POINT('',#1340);
#558=VERTEX_POINT('',#1344);
#559=VERTEX_POINT('',#1345);
#560=VERTEX_POINT('',#1347);
#561=VERTEX_POINT('',#1349);
#562=VERTEX_POINT('',#1353);
#563=VERTEX_POINT('',#1355);
#564=VERTEX_POINT('',#1368);
#565=VERTEX_POINT('',#1370);
#566=VERTEX_POINT('',#1372);
#567=VERTEX_POINT('',#1373);
#568=VERTEX_POINT('',#1379);
#569=VERTEX_POINT('',#1381);
#570=VERTEX_POINT('',#1383);
#571=VERTEX_POINT('',#1385);
#572=VERTEX_POINT('',#1391);
#573=VERTEX_POINT('',#1393);
#574=VERTEX_POINT('',#1399);
#575=VERTEX_POINT('',#1401);
#576=VERTEX_POINT('',#1407);
#577=VERTEX_POINT('',#1409);
#578=VERTEX_POINT('',#1415);
#579=VERTEX_POINT('',#1417);
#580=VERTEX_POINT('',#1419);
#581=VERTEX_POINT('',#1421);
#582=VERTEX_POINT('',#1427);
#583=VERTEX_POINT('',#1429);
#584=VERTEX_POINT('',#1435);
#585=VERTEX_POINT('',#1437);
#586=VERTEX_POINT('',#1445);
#587=VERTEX_POINT('',#1447);
#588=VERTEX_POINT('',#1450);
#589=VERTEX_POINT('',#1452);
#590=VERTEX_POINT('',#1455);
#591=VERTEX_POINT('',#1457);
#592=VERTEX_POINT('',#1459);
#593=VERTEX_POINT('',#1462);
#594=VERTEX_POINT('',#1465);
#595=VERTEX_POINT('',#1478);
#596=VERTEX_POINT('',#1480);
#597=VERTEX_POINT('',#1483);
#598=VERTEX_POINT('',#1487);
#599=VERTEX_POINT('',#1488);
#600=VERTEX_POINT('',#1490);
#601=VERTEX_POINT('',#1492);
#602=VERTEX_POINT('',#1496);
#603=VERTEX_POINT('',#1498);
#604=VERTEX_POINT('',#1505);
#605=VERTEX_POINT('',#1508);
#606=VERTEX_POINT('',#1520);
#607=VERTEX_POINT('',#1523);
#608=VERTEX_POINT('',#1525);
#609=VERTEX_POINT('',#1532);
#610=VERTEX_POINT('',#1535);
#611=VERTEX_POINT('',#1547);
#612=VERTEX_POINT('',#1550);
#613=VERTEX_POINT('',#1551);
#614=VERTEX_POINT('',#1553);
#615=VERTEX_POINT('',#1555);
#616=VERTEX_POINT('',#1562);
#617=VERTEX_POINT('',#1564);
#618=VERTEX_POINT('',#1568);
#619=VERTEX_POINT('',#1569);
#620=VERTEX_POINT('',#1577);
#621=VERTEX_POINT('',#1578);
#622=VERTEX_POINT('',#1580);
#623=VERTEX_POINT('',#1582);
#624=VERTEX_POINT('',#1586);
#625=VERTEX_POINT('',#1587);
#626=VERTEX_POINT('',#1598);
#627=VERTEX_POINT('',#1600);
#628=VERTEX_POINT('',#1830);
#629=VERTEX_POINT('',#1832);
#630=VERTEX_POINT('',#1836);
#631=VERTEX_POINT('',#1839);
#632=CIRCLE('',#955,29.5);
#633=CIRCLE('',#956,11.25);
#634=CIRCLE('',#958,29.5);
#635=CIRCLE('',#959,11.25);
#636=CIRCLE('',#961,29.5);
#637=CIRCLE('',#962,11.25);
#638=CIRCLE('',#964,27.5);
#639=CIRCLE('',#965,19.2349939951952);
#640=CIRCLE('',#967,28.5);
#641=CIRCLE('',#968,28.5);
#642=CIRCLE('',#969,28.5);
#643=CIRCLE('',#970,28.5);
#644=CIRCLE('',#971,28.5);
#645=CIRCLE('',#972,28.5);
#646=CIRCLE('',#973,28.5);
#647=CIRCLE('',#974,28.5);
#648=CIRCLE('',#975,28.5);
#649=CIRCLE('',#977,11.25);
#650=CIRCLE('',#978,11.25);
#651=CIRCLE('',#979,5.75);
#652=CIRCLE('',#980,19.2349939951952);
#653=CIRCLE('',#981,5.75);
#654=CIRCLE('',#983,19.2349939951952);
#655=CIRCLE('',#985,18.734993995195);
#656=CIRCLE('',#987,18.7349939951952);
#657=CIRCLE('',#989,19.2349939951952);
#658=CIRCLE('',#992,11.25);
#659=CIRCLE('',#993,29.5);
#660=CIRCLE('',#995,11.25);
#661=CIRCLE('',#999,5.75);
#662=CIRCLE('',#1001,11.25);
#663=CIRCLE('',#1005,5.75);
#664=CIRCLE('',#1007,29.5);
#665=CIRCLE('',#1008,10.25);
#666=CIRCLE('',#1012,29.5);
#667=CIRCLE('',#1013,10.25);
#668=CIRCLE('',#1018,1.);
#669=CIRCLE('',#1020,1.);
#670=CIRCLE('',#1023,1.);
#671=CIRCLE('',#1025,1.);
#672=CIRCLE('',#1028,1.);
#673=CIRCLE('',#1031,1.);
#674=CIRCLE('',#1032,1.);
#675=CIRCLE('',#1034,1.);
#676=CIRCLE('',#1035,1.);
#677=CIRCLE('',#1038,1.);
#678=CIRCLE('',#1041,1.);
#679=CIRCLE('',#1044,1.);
#680=CIRCLE('',#1045,1.);
#681=CIRCLE('',#1047,1.);
#682=CIRCLE('',#1048,1.);
#683=CIRCLE('',#1051,1.);
#684=CIRCLE('',#1055,2.5);
#685=CIRCLE('',#1056,2.5);
#686=CIRCLE('',#1059,1.45);
#687=CIRCLE('',#1061,1.45);
#688=EDGE_LOOP('',(#172,#173,#174,#175));
#689=EDGE_LOOP('',(#176,#177,#178,#179));
#690=EDGE_LOOP('',(#180,#181,#182,#183));
#691=EDGE_LOOP('',(#184));
#692=EDGE_LOOP('',(#185));
#693=EDGE_LOOP('',(#186));
#694=EDGE_LOOP('',(#187));
#695=EDGE_LOOP('',(#188,#189,#190,#191,#192,#193,#194,#195,#196,#197,#198,
#199,#200,#201,#202,#203,#204,#205,#206,#207));
#696=EDGE_LOOP('',(#208,#209,#210,#211,#212,#213,#214,#215));
#697=EDGE_LOOP('',(#216));
#698=EDGE_LOOP('',(#217));
#699=EDGE_LOOP('',(#218));
#700=EDGE_LOOP('',(#219));
#701=EDGE_LOOP('',(#220));
#702=EDGE_LOOP('',(#221));
#703=EDGE_LOOP('',(#222));
#704=EDGE_LOOP('',(#223));
#705=EDGE_LOOP('',(#224));
#706=EDGE_LOOP('',(#225));
#707=EDGE_LOOP('',(#226));
#708=EDGE_LOOP('',(#227));
#709=EDGE_LOOP('',(#228));
#710=EDGE_LOOP('',(#229));
#711=EDGE_LOOP('',(#230,#231,#232,#233));
#712=EDGE_LOOP('',(#234,#235,#236,#237,#238,#239,#240,#241,#242,#243));
#713=EDGE_LOOP('',(#244,#245,#246,#247));
#714=EDGE_LOOP('',(#248,#249,#250,#251));
#715=EDGE_LOOP('',(#252));
#716=EDGE_LOOP('',(#253));
#717=EDGE_LOOP('',(#254,#255,#256,#257,#258,#259,#260,#261,#262,#263));
#718=EDGE_LOOP('',(#264,#265,#266,#267));
#719=EDGE_LOOP('',(#268,#269,#270,#271));
#720=EDGE_LOOP('',(#272));
#721=EDGE_LOOP('',(#273));
#722=EDGE_LOOP('',(#274));
#723=EDGE_LOOP('',(#275,#276,#277,#278));
#724=EDGE_LOOP('',(#279,#280,#281,#282,#283));
#725=EDGE_LOOP('',(#284,#285,#286,#287,#288));
#726=EDGE_LOOP('',(#289));
#727=EDGE_LOOP('',(#290,#291,#292,#293));
#728=EDGE_LOOP('',(#294,#295,#296,#297,#298));
#729=EDGE_LOOP('',(#299,#300,#301,#302,#303));
#730=EDGE_LOOP('',(#304));
#731=EDGE_LOOP('',(#305));
#732=EDGE_LOOP('',(#306,#307,#308,#309));
#733=EDGE_LOOP('',(#310,#311,#312,#313));
#734=EDGE_LOOP('',(#314,#315,#316,#317));
#735=EDGE_LOOP('',(#318,#319,#320,#321));
#736=EDGE_LOOP('',(#322,#323,#324,#325));
#737=EDGE_LOOP('',(#326,#327,#328,#329));
#738=EDGE_LOOP('',(#330,#331,#332,#333));
#739=EDGE_LOOP('',(#334,#335,#336));
#740=EDGE_LOOP('',(#337,#338,#339,#340,#341));
#741=EDGE_LOOP('',(#342,#343,#344));
#742=EDGE_LOOP('',(#345,#346,#347,#348));
#743=EDGE_LOOP('',(#349,#350,#351,#352));
#744=EDGE_LOOP('',(#353,#354,#355,#356));
#745=EDGE_LOOP('',(#357,#358,#359));
#746=EDGE_LOOP('',(#360,#361,#362,#363,#364));
#747=EDGE_LOOP('',(#365,#366,#367));
#748=EDGE_LOOP('',(#368,#369,#370,#371));
#749=EDGE_LOOP('',(#372,#373,#374,#375));
#750=EDGE_LOOP('',(#376,#377,#378));
#751=EDGE_LOOP('',(#379,#380,#381,#382,#383));
#752=EDGE_LOOP('',(#384,#385,#386));
#753=EDGE_LOOP('',(#387,#388,#389,#390));
#754=EDGE_LOOP('',(#391,#392,#393,#394));
#755=EDGE_LOOP('',(#395,#396,#397,#398));
#756=EDGE_LOOP('',(#399,#400,#401));
#757=EDGE_LOOP('',(#402,#403,#404,#405,#406));
#758=EDGE_LOOP('',(#407,#408,#409));
#759=EDGE_LOOP('',(#410,#411,#412,#413));
#760=EDGE_LOOP('',(#414));
#761=EDGE_LOOP('',(#415));
#762=EDGE_LOOP('',(#416));
#763=EDGE_LOOP('',(#417));
#764=EDGE_LOOP('',(#418));
#765=EDGE_LOOP('',(#419));
#766=EDGE_LOOP('',(#420));
#767=EDGE_LOOP('',(#421));
#768=EDGE_LOOP('',(#422));
#769=EDGE_LOOP('',(#423));
#770=FACE_BOUND('',#688,.T.);
#771=FACE_BOUND('',#689,.T.);
#772=FACE_BOUND('',#690,.T.);
#773=FACE_BOUND('',#691,.T.);
#774=FACE_BOUND('',#692,.T.);
#775=FACE_BOUND('',#693,.T.);
#776=FACE_BOUND('',#694,.T.);
#777=FACE_BOUND('',#695,.T.);
#778=FACE_BOUND('',#696,.T.);
#779=FACE_BOUND('',#697,.T.);
#780=FACE_BOUND('',#698,.T.);
#781=FACE_BOUND('',#699,.T.);
#782=FACE_BOUND('',#700,.T.);
#783=FACE_BOUND('',#701,.T.);
#784=FACE_BOUND('',#702,.T.);
#785=FACE_BOUND('',#703,.T.);
#786=FACE_BOUND('',#704,.T.);
#787=FACE_BOUND('',#705,.T.);
#788=FACE_BOUND('',#706,.T.);
#789=FACE_BOUND('',#707,.T.);
#790=FACE_BOUND('',#708,.T.);
#791=FACE_BOUND('',#709,.T.);
#792=FACE_BOUND('',#710,.T.);
#793=FACE_BOUND('',#711,.T.);
#794=FACE_BOUND('',#712,.T.);
#795=FACE_BOUND('',#713,.T.);
#796=FACE_BOUND('',#714,.T.);
#797=FACE_BOUND('',#715,.T.);
#798=FACE_BOUND('',#716,.T.);
#799=FACE_BOUND('',#717,.T.);
#800=FACE_BOUND('',#718,.T.);
#801=FACE_BOUND('',#719,.T.);
#802=FACE_BOUND('',#720,.T.);
#803=FACE_BOUND('',#721,.T.);
#804=FACE_BOUND('',#722,.T.);
#805=FACE_BOUND('',#723,.T.);
#806=FACE_BOUND('',#724,.T.);
#807=FACE_BOUND('',#725,.T.);
#808=FACE_BOUND('',#726,.T.);
#809=FACE_BOUND('',#727,.T.);
#810=FACE_BOUND('',#728,.T.);
#811=FACE_BOUND('',#729,.T.);
#812=FACE_BOUND('',#730,.T.);
#813=FACE_BOUND('',#731,.T.);
#814=FACE_BOUND('',#732,.T.);
#815=FACE_BOUND('',#733,.T.);
#816=FACE_BOUND('',#734,.T.);
#817=FACE_BOUND('',#735,.T.);
#818=FACE_BOUND('',#736,.T.);
#819=FACE_BOUND('',#737,.T.);
#820=FACE_BOUND('',#738,.T.);
#821=FACE_BOUND('',#739,.T.);
#822=FACE_BOUND('',#740,.T.);
#823=FACE_BOUND('',#741,.T.);
#824=FACE_BOUND('',#742,.T.);
#825=FACE_BOUND('',#743,.T.);
#826=FACE_BOUND('',#744,.T.);
#827=FACE_BOUND('',#745,.T.);
#828=FACE_BOUND('',#746,.T.);
#829=FACE_BOUND('',#747,.T.);
#830=FACE_BOUND('',#748,.T.);
#831=FACE_BOUND('',#749,.T.);
#832=FACE_BOUND('',#750,.T.);
#833=FACE_BOUND('',#751,.T.);
#834=FACE_BOUND('',#752,.T.);
#835=FACE_BOUND('',#753,.T.);
#836=FACE_BOUND('',#754,.T.);
#837=FACE_BOUND('',#755,.T.);
#838=FACE_BOUND('',#756,.T.);
#839=FACE_BOUND('',#757,.T.);
#840=FACE_BOUND('',#758,.T.);
#841=FACE_BOUND('',#759,.T.);
#842=FACE_BOUND('',#760,.T.);
#843=FACE_BOUND('',#761,.T.);
#844=FACE_BOUND('',#762,.T.);
#845=FACE_BOUND('',#763,.T.);
#846=FACE_BOUND('',#764,.T.);
#847=FACE_BOUND('',#765,.T.);
#848=FACE_BOUND('',#766,.T.);
#849=FACE_BOUND('',#767,.T.);
#850=FACE_BOUND('',#768,.T.);
#851=FACE_BOUND('',#769,.T.);
#852=PLANE('',#954);
#853=PLANE('',#957);
#854=PLANE('',#960);
#855=PLANE('',#963);
#856=PLANE('',#976);
#857=PLANE('',#991);
#858=PLANE('',#996);
#859=PLANE('',#997);
#860=PLANE('',#1002);
#861=PLANE('',#1003);
#862=PLANE('',#1006);
#863=PLANE('',#1009);
#864=PLANE('',#1010);
#865=PLANE('',#1011);
#866=PLANE('',#1014);
#867=PLANE('',#1015);
#868=PLANE('',#1057);
#869=PLANE('',#1058);
#870=PLANE('',#1062);
#871=ADVANCED_FACE('',(#770),#852,.T.);
#872=ADVANCED_FACE('',(#771),#853,.T.);
#873=ADVANCED_FACE('',(#772),#854,.T.);
#874=ADVANCED_FACE('',(#773,#774),#855,.T.);
#875=ADVANCED_FACE('',(#775,#776,#777),#70,.T.);
#876=ADVANCED_FACE('',(#778,#779,#780,#781),#856,.T.);
#877=ADVANCED_FACE('',(#782,#783),#71,.F.);
#878=ADVANCED_FACE('',(#784,#785),#29,.F.);
#879=ADVANCED_FACE('',(#786,#787,#788),#28,.F.);
#880=ADVANCED_FACE('',(#789,#790),#30,.F.);
#881=ADVANCED_FACE('',(#791,#792),#72,.F.);
#882=ADVANCED_FACE('',(#793),#857,.T.);
#883=ADVANCED_FACE('',(#794),#73,.T.);
#884=ADVANCED_FACE('',(#795),#858,.F.);
#885=ADVANCED_FACE('',(#796),#859,.F.);
#886=ADVANCED_FACE('',(#797,#798),#74,.F.);
#887=ADVANCED_FACE('',(#799),#75,.T.);
#888=ADVANCED_FACE('',(#800),#860,.F.);
#889=ADVANCED_FACE('',(#801),#861,.F.);
#890=ADVANCED_FACE('',(#802,#803),#76,.F.);
#891=ADVANCED_FACE('',(#804,#805),#862,.T.);
#892=ADVANCED_FACE('',(#806),#863,.F.);
#893=ADVANCED_FACE('',(#807),#864,.F.);
#894=ADVANCED_FACE('',(#808,#809),#865,.F.);
#895=ADVANCED_FACE('',(#810),#866,.T.);
#896=ADVANCED_FACE('',(#811),#867,.T.);
#897=ADVANCED_FACE('',(#812,#813),#31,.T.);
#898=ADVANCED_FACE('',(#814),#77,.T.);
#899=ADVANCED_FACE('',(#815),#32,.T.);
#900=ADVANCED_FACE('',(#816),#78,.T.);
#901=ADVANCED_FACE('',(#817),#79,.T.);
#902=ADVANCED_FACE('',(#818),#33,.T.);
#903=ADVANCED_FACE('',(#819),#80,.T.);
#904=ADVANCED_FACE('',(#820),#81,.T.);
#905=ADVANCED_FACE('',(#821),#20,.F.);
#906=ADVANCED_FACE('',(#822),#34,.F.);
#907=ADVANCED_FACE('',(#823),#82,.F.);
#908=ADVANCED_FACE('',(#824),#21,.F.);
#909=ADVANCED_FACE('',(#825),#35,.F.);
#910=ADVANCED_FACE('',(#826),#22,.F.);
#911=ADVANCED_FACE('',(#827),#83,.F.);
#912=ADVANCED_FACE('',(#828),#36,.F.);
#913=ADVANCED_FACE('',(#829),#23,.F.);
#914=ADVANCED_FACE('',(#830),#84,.T.);
#915=ADVANCED_FACE('',(#831),#85,.T.);
#916=ADVANCED_FACE('',(#832),#24,.F.);
#917=ADVANCED_FACE('',(#833),#37,.F.);
#918=ADVANCED_FACE('',(#834),#86,.F.);
#919=ADVANCED_FACE('',(#835),#25,.F.);
#920=ADVANCED_FACE('',(#836),#38,.F.);
#921=ADVANCED_FACE('',(#837),#26,.F.);
#922=ADVANCED_FACE('',(#838),#87,.F.);
#923=ADVANCED_FACE('',(#839),#39,.F.);
#924=ADVANCED_FACE('',(#840),#27,.F.);
#925=ADVANCED_FACE('',(#841),#88,.T.);
#926=ADVANCED_FACE('',(#842,#843),#89,.F.);
#927=ADVANCED_FACE('',(#844,#845),#90,.T.);
#928=ADVANCED_FACE('',(#846),#868,.F.);
#929=ADVANCED_FACE('',(#847),#869,.F.);
#930=ADVANCED_FACE('',(#848,#849),#91,.T.);
#931=ADVANCED_FACE('',(#850,#851),#870,.F.);
#932=CLOSED_SHELL('',(#871,#872,#873,#874,#875,#876,#877,#878,#879,#880,
#881,#882,#883,#884,#885,#886,#887,#888,#889,#890,#891,#892,#893,#894,#895,
#896,#897,#898,#899,#900,#901,#902,#903,#904,#905,#906,#907,#908,#909,#910,
#911,#912,#913,#914,#915,#916,#917,#918,#919,#920,#921,#922,#923,#924,#925,
#926));
#933=CLOSED_SHELL('',(#927,#928,#929,#930,#931));
#934=STYLED_ITEM('',(#936),#949);
#935=STYLED_ITEM('',(#937),#950);
#936=PRESENTATION_STYLE_ASSIGNMENT((#938));
#937=PRESENTATION_STYLE_ASSIGNMENT((#939));
#938=SURFACE_STYLE_USAGE(.BOTH.,#940);
#939=SURFACE_STYLE_USAGE(.BOTH.,#941);
#940=SURFACE_SIDE_STYLE('',(#942));
#941=SURFACE_SIDE_STYLE('',(#943));
#942=SURFACE_STYLE_FILL_AREA(#944);
#943=SURFACE_STYLE_FILL_AREA(#945);
#944=FILL_AREA_STYLE('',(#946));
#945=FILL_AREA_STYLE('',(#947));
#946=FILL_AREA_STYLE_COLOUR('',#948);
#947=FILL_AREA_STYLE_COLOUR('',#948);
#948=COLOUR_RGB('',0.506983280181885,0.531564235687256,0.550000011920929);
#949=MANIFOLD_SOLID_BREP('',#932);
#950=MANIFOLD_SOLID_BREP('',#933);
#951=SHAPE_DEFINITION_REPRESENTATION(#1847,#952);
#952=SHAPE_REPRESENTATION('FL\X2\94F8902051F87F185EA783F15F62\X0\',(#953),
#1842);
#953=AXIS2_PLACEMENT_3D('',#1323,#1063,#1064);
#954=AXIS2_PLACEMENT_3D('',#1324,#1065,#1066);
#955=AXIS2_PLACEMENT_3D('',#1325,#1067,#1068);
#956=AXIS2_PLACEMENT_3D('',#1330,#1070,#1071);
#957=AXIS2_PLACEMENT_3D('',#1333,#1073,#1074);
#958=AXIS2_PLACEMENT_3D('',#1337,#1076,#1077);
#959=AXIS2_PLACEMENT_3D('',#1341,#1079,#1080);
#960=AXIS2_PLACEMENT_3D('',#1342,#1081,#1082);
#961=AXIS2_PLACEMENT_3D('',#1343,#1083,#1084);
#962=AXIS2_PLACEMENT_3D('',#1348,#1086,#1087);
#963=AXIS2_PLACEMENT_3D('',#1351,#1089,#1090);
#964=AXIS2_PLACEMENT_3D('',#1352,#1091,#1092);
#965=AXIS2_PLACEMENT_3D('',#1354,#1093,#1094);
#966=AXIS2_PLACEMENT_3D('',#1356,#1095,#1096);
#967=AXIS2_PLACEMENT_3D('',#1369,#1097,#1098);
#968=AXIS2_PLACEMENT_3D('',#1371,#1099,#1100);
#969=AXIS2_PLACEMENT_3D('',#1382,#1102,#1103);
#970=AXIS2_PLACEMENT_3D('',#1392,#1105,#1106);
#971=AXIS2_PLACEMENT_3D('',#1400,#1107,#1108);
#972=AXIS2_PLACEMENT_3D('',#1408,#1109,#1110);
#973=AXIS2_PLACEMENT_3D('',#1418,#1112,#1113);
#974=AXIS2_PLACEMENT_3D('',#1428,#1115,#1116);
#975=AXIS2_PLACEMENT_3D('',#1436,#1117,#1118);
#976=AXIS2_PLACEMENT_3D('',#1443,#1119,#1120);
#977=AXIS2_PLACEMENT_3D('',#1446,#1122,#1123);
#978=AXIS2_PLACEMENT_3D('',#1451,#1126,#1127);
#979=AXIS2_PLACEMENT_3D('',#1454,#1129,#1130);
#980=AXIS2_PLACEMENT_3D('',#1456,#1131,#1132);
#981=AXIS2_PLACEMENT_3D('',#1458,#1133,#1134);
#982=AXIS2_PLACEMENT_3D('',#1460,#1135,#1136);
#983=AXIS2_PLACEMENT_3D('',#1461,#1137,#1138);
#984=AXIS2_PLACEMENT_3D('',#1463,#1139,#1140);
#985=AXIS2_PLACEMENT_3D('',#1464,#1141,#1142);
#986=AXIS2_PLACEMENT_3D('',#1466,#1143,#1144);
#987=AXIS2_PLACEMENT_3D('',#1479,#1145,#1146);
#988=AXIS2_PLACEMENT_3D('',#1481,#1147,#1148);
#989=AXIS2_PLACEMENT_3D('',#1482,#1149,#1150);
#990=AXIS2_PLACEMENT_3D('',#1484,#1151,#1152);
#991=AXIS2_PLACEMENT_3D('',#1485,#1153,#1154);
#992=AXIS2_PLACEMENT_3D('',#1486,#1155,#1156);
#993=AXIS2_PLACEMENT_3D('',#1491,#1158,#1159);
#994=AXIS2_PLACEMENT_3D('',#1494,#1161,#1162);
#995=AXIS2_PLACEMENT_3D('',#1497,#1164,#1165);
#996=AXIS2_PLACEMENT_3D('',#1514,#1169,#1170);
#997=AXIS2_PLACEMENT_3D('',#1516,#1172,#1173);
#998=AXIS2_PLACEMENT_3D('',#1518,#1175,#1176);
#999=AXIS2_PLACEMENT_3D('',#1519,#1177,#1178);
#1000=AXIS2_PLACEMENT_3D('',#1521,#1179,#1180);
#1001=AXIS2_PLACEMENT_3D('',#1524,#1182,#1183);
#1002=AXIS2_PLACEMENT_3D('',#1541,#1187,#1188);
#1003=AXIS2_PLACEMENT_3D('',#1543,#1190,#1191);
#1004=AXIS2_PLACEMENT_3D('',#1545,#1193,#1194);
#1005=AXIS2_PLACEMENT_3D('',#1546,#1195,#1196);
#1006=AXIS2_PLACEMENT_3D('',#1548,#1197,#1198);
#1007=AXIS2_PLACEMENT_3D('',#1552,#1200,#1201);
#1008=AXIS2_PLACEMENT_3D('',#1556,#1203,#1204);
#1009=AXIS2_PLACEMENT_3D('',#1557,#1205,#1206);
#1010=AXIS2_PLACEMENT_3D('',#1566,#1209,#1210);
#1011=AXIS2_PLACEMENT_3D('',#1575,#1213,#1214);
#1012=AXIS2_PLACEMENT_3D('',#1579,#1216,#1217);
#1013=AXIS2_PLACEMENT_3D('',#1583,#1219,#1220);
#1014=AXIS2_PLACEMENT_3D('',#1584,#1221,#1222);
#1015=AXIS2_PLACEMENT_3D('',#1593,#1225,#1226);
#1016=AXIS2_PLACEMENT_3D('',#1602,#1229,#1230);
#1017=AXIS2_PLACEMENT_3D('',#1603,#1231,#1232);
#1018=AXIS2_PLACEMENT_3D('',#1609,#1233,#1234);
#1019=AXIS2_PLACEMENT_3D('',#1610,#1235,#1236);
#1020=AXIS2_PLACEMENT_3D('',#1611,#1237,#1238);
#1021=AXIS2_PLACEMENT_3D('',#1612,#1239,#1240);
#1022=AXIS2_PLACEMENT_3D('',#1618,#1241,#1242);
#1023=AXIS2_PLACEMENT_3D('',#1624,#1243,#1244);
#1024=AXIS2_PLACEMENT_3D('',#1625,#1245,#1246);
#1025=AXIS2_PLACEMENT_3D('',#1626,#1247,#1248);
#1026=AXIS2_PLACEMENT_3D('',#1627,#1249,#1250);
#1027=AXIS2_PLACEMENT_3D('',#1633,#1251,#1252);
#1028=AXIS2_PLACEMENT_3D('',#1657,#1253,#1254);
#1029=AXIS2_PLACEMENT_3D('',#1658,#1255,#1256);
#1030=AXIS2_PLACEMENT_3D('',#1663,#1257,#1258);
#1031=AXIS2_PLACEMENT_3D('',#1664,#1259,#1260);
#1032=AXIS2_PLACEMENT_3D('',#1680,#1261,#1262);
#1033=AXIS2_PLACEMENT_3D('',#1681,#1263,#1264);
#1034=AXIS2_PLACEMENT_3D('',#1682,#1265,#1266);
#1035=AXIS2_PLACEMENT_3D('',#1698,#1267,#1268);
#1036=AXIS2_PLACEMENT_3D('',#1699,#1269,#1270);
#1037=AXIS2_PLACEMENT_3D('',#1704,#1271,#1272);
#1038=AXIS2_PLACEMENT_3D('',#1705,#1273,#1274);
#1039=AXIS2_PLACEMENT_3D('',#1729,#1275,#1276);
#1040=AXIS2_PLACEMENT_3D('',#1730,#1277,#1278);
#1041=AXIS2_PLACEMENT_3D('',#1754,#1279,#1280);
#1042=AXIS2_PLACEMENT_3D('',#1755,#1281,#1282);
#1043=AXIS2_PLACEMENT_3D('',#1760,#1283,#1284);
#1044=AXIS2_PLACEMENT_3D('',#1761,#1285,#1286);
#1045=AXIS2_PLACEMENT_3D('',#1777,#1287,#1288);
#1046=AXIS2_PLACEMENT_3D('',#1778,#1289,#1290);
#1047=AXIS2_PLACEMENT_3D('',#1779,#1291,#1292);
#1048=AXIS2_PLACEMENT_3D('',#1795,#1293,#1294);
#1049=AXIS2_PLACEMENT_3D('',#1796,#1295,#1296);
#1050=AXIS2_PLACEMENT_3D('',#1801,#1297,#1298);
#1051=AXIS2_PLACEMENT_3D('',#1802,#1299,#1300);
#1052=AXIS2_PLACEMENT_3D('',#1826,#1301,#1302);
#1053=AXIS2_PLACEMENT_3D('',#1827,#1303,#1304);
#1054=AXIS2_PLACEMENT_3D('',#1828,#1305,#1306);
#1055=AXIS2_PLACEMENT_3D('',#1829,#1307,#1308);
#1056=AXIS2_PLACEMENT_3D('',#1831,#1309,#1310);
#1057=AXIS2_PLACEMENT_3D('',#1833,#1311,#1312);
#1058=AXIS2_PLACEMENT_3D('',#1834,#1313,#1314);
#1059=AXIS2_PLACEMENT_3D('',#1835,#1315,#1316);
#1060=AXIS2_PLACEMENT_3D('',#1837,#1317,#1318);
#1061=AXIS2_PLACEMENT_3D('',#1838,#1319,#1320);
#1062=AXIS2_PLACEMENT_3D('',#1840,#1321,#1322);
#1063=DIRECTION('',(0.,0.,1.));
#1064=DIRECTION('',(1.,0.,0.));
#1065=DIRECTION('',(-6.08674903851512E-17,-1.,0.));
#1066=DIRECTION('',(1.,-6.08674903851512E-17,0.));
#1067=DIRECTION('',(-6.08674903851512E-17,-1.,0.));
#1068=DIRECTION('',(1.,-6.08674903851512E-17,0.));
#1069=DIRECTION('',(0.450980392156862,-2.74500446834995E-17,-0.892533856999298));
#1070=DIRECTION('',(-6.08674903851512E-17,-1.,0.));
#1071=DIRECTION('',(1.,-6.08674903851512E-17,0.));
#1072=DIRECTION('',(0.,0.,-1.));
#1073=DIRECTION('',(-6.08674903851512E-17,-1.,0.));
#1074=DIRECTION('',(1.,-6.08674903851512E-17,0.));
#1075=DIRECTION('',(-0.450980392156863,2.74500446834996E-17,-0.892533856999297));
#1076=DIRECTION('',(-6.08674903851512E-17,-1.,0.));
#1077=DIRECTION('',(1.,-6.08674903851512E-17,0.));
#1078=DIRECTION('',(1.43789045666177E-16,-8.75207835457608E-33,1.));
#1079=DIRECTION('',(-6.08674903851512E-17,-1.,0.));
#1080=DIRECTION('',(1.,-6.08674903851512E-17,0.));
#1081=DIRECTION('',(-6.08674903851512E-17,-1.,0.));
#1082=DIRECTION('',(1.,-6.08674903851512E-17,0.));
#1083=DIRECTION('',(-6.08674903851512E-17,-1.,0.));
#1084=DIRECTION('',(1.,-6.08674903851512E-17,0.));
#1085=DIRECTION('',(-0.450980392156862,2.74500446834995E-17,0.892533856999298));
#1086=DIRECTION('',(-6.08674903851512E-17,-1.,0.));
#1087=DIRECTION('',(1.,-6.08674903851512E-17,0.));
#1088=DIRECTION('',(-4.3136713699853E-16,2.62562350637283E-32,-1.));
#1089=DIRECTION('',(-6.12303176911189E-17,-1.,0.));
#1090=DIRECTION('',(1.,-6.12303176911189E-17,0.));
#1091=DIRECTION('',(-6.12303176911189E-17,-1.,0.));
#1092=DIRECTION('',(1.,-6.12303176911189E-17,0.));
#1093=DIRECTION('',(-6.12303176911189E-17,-1.,0.));
#1094=DIRECTION('',(1.,-6.12303176911189E-17,0.));
#1095=DIRECTION('',(-6.12303176911189E-17,-1.,0.));
#1096=DIRECTION('',(1.,-6.12303176911189E-17,0.));
#1097=DIRECTION('',(-6.12303176911189E-17,-1.,0.));
#1098=DIRECTION('',(1.,-6.12303176911189E-17,0.));
#1099=DIRECTION('',(-6.08674903851512E-17,-1.,0.));
#1100=DIRECTION('',(1.,-6.08674903851512E-17,0.));
#1101=DIRECTION('',(6.12303176911189E-17,1.,0.));
#1102=DIRECTION('',(-6.12303176911189E-17,-1.,0.));
#1103=DIRECTION('',(1.,-6.12303176911189E-17,0.));
#1104=DIRECTION('',(6.12303176911189E-17,1.,0.));
#1105=DIRECTION('',(-6.08674903851512E-17,-1.,0.));
#1106=DIRECTION('',(1.,-6.08674903851512E-17,0.));
#1107=DIRECTION('',(0.,-1.,0.));
#1108=DIRECTION('',(0.,0.,-1.));
#1109=DIRECTION('',(-6.08674903851512E-17,-1.,0.));
#1110=DIRECTION('',(1.,-6.08674903851512E-17,0.));
#1111=DIRECTION('',(6.12303176911189E-17,1.,0.));
#1112=DIRECTION('',(-6.12303176911189E-17,-1.,0.));
#1113=DIRECTION('',(1.,-6.12303176911189E-17,0.));
#1114=DIRECTION('',(6.12303176911189E-17,1.,0.));
#1115=DIRECTION('',(-6.08674903851512E-17,-1.,0.));
#1116=DIRECTION('',(1.,-6.08674903851512E-17,0.));
#1117=DIRECTION('',(0.,1.,0.));
#1118=DIRECTION('',(0.,0.,1.));
#1119=DIRECTION('',(6.12303176911189E-17,1.,0.));
#1120=DIRECTION('',(-1.,6.12303176911189E-17,0.));
#1121=DIRECTION('',(0.450980392156862,-2.74500446834995E-17,0.892533856999298));
#1122=DIRECTION('',(-6.08674903851512E-17,-1.,0.));
#1123=DIRECTION('',(-1.,6.08674903851512E-17,0.));
#1124=DIRECTION('',(0.450980392156862,-2.74500446834995E-17,-0.892533856999298));
#1125=DIRECTION('',(-0.450980392156863,2.74500446834996E-17,-0.892533856999297));
#1126=DIRECTION('',(-6.08674903851512E-17,-1.,0.));
#1127=DIRECTION('',(-1.,6.08674903851512E-17,0.));
#1128=DIRECTION('',(-0.450980392156862,2.74500446834995E-17,0.892533856999298));
#1129=DIRECTION('',(-6.08674903851512E-17,-1.,0.));
#1130=DIRECTION('',(-1.,6.08674903851512E-17,0.));
#1131=DIRECTION('',(-6.12303176911189E-17,-1.,0.));
#1132=DIRECTION('',(1.,-6.12303176911189E-17,0.));
#1133=DIRECTION('',(6.08674903851512E-17,1.,0.));
#1134=DIRECTION('',(-1.,6.08674903851512E-17,0.));
#1135=DIRECTION('',(-6.12303176911189E-17,-1.,0.));
#1136=DIRECTION('',(1.,-6.12303176911189E-17,0.));
#1137=DIRECTION('',(-6.12303176911189E-17,-1.,0.));
#1138=DIRECTION('',(1.,-6.12303176911189E-17,0.));
#1139=DIRECTION('',(-6.12303176911189E-17,-1.,0.));
#1140=DIRECTION('',(1.,-6.12303176911189E-17,0.));
#1141=DIRECTION('',(-6.12303176911189E-17,-1.,0.));
#1142=DIRECTION('',(1.,-6.12303176911189E-17,0.));
#1143=DIRECTION('',(-6.12303176911189E-17,-1.,0.));
#1144=DIRECTION('',(0.,0.,1.));
#1145=DIRECTION('',(-6.12303176911189E-17,-1.,0.));
#1146=DIRECTION('',(1.,-6.12303176911189E-17,0.));
#1147=DIRECTION('',(-6.12303176911189E-17,-1.,0.));
#1148=DIRECTION('',(1.,-6.12303176911189E-17,0.));
#1149=DIRECTION('',(-6.12303176911189E-17,-1.,0.));
#1150=DIRECTION('',(1.,-6.12303176911189E-17,0.));
#1151=DIRECTION('',(-6.12303176911189E-17,-1.,0.));
#1152=DIRECTION('',(1.,-6.12303176911189E-17,0.));
#1153=DIRECTION('',(-6.08674903851512E-17,-1.,0.));
#1154=DIRECTION('',(1.,-6.08674903851512E-17,0.));
#1155=DIRECTION('',(-6.08674903851512E-17,-1.,0.));
#1156=DIRECTION('',(1.,-6.08674903851512E-17,0.));
#1157=DIRECTION('',(0.450980392156862,-2.74500446834995E-17,0.892533856999298));
#1158=DIRECTION('',(-6.08674903851512E-17,-1.,0.));
#1159=DIRECTION('',(1.,-6.08674903851512E-17,0.));
#1160=DIRECTION('',(1.43789045666177E-16,-8.75207835457608E-33,1.));
#1161=DIRECTION('',(6.12303176911189E-17,1.,0.));
#1162=DIRECTION('',(-1.,6.12303176911189E-17,0.));
#1163=DIRECTION('',(0.,1.,0.));
#1164=DIRECTION('',(0.,1.,0.));
#1165=DIRECTION('',(0.,0.,1.));
#1166=DIRECTION('',(0.,1.,0.));
#1167=DIRECTION('',(6.12303176911189E-17,1.,0.));
#1168=DIRECTION('',(6.12303176911189E-17,1.,0.));
#1169=DIRECTION('',(-0.892533856999298,5.46501316141467E-17,0.450980392156862));
#1170=DIRECTION('',(0.450980392156862,0.,0.892533856999298));
#1171=DIRECTION('',(0.450980392156862,-2.74500446834995E-17,0.892533856999298));
#1172=DIRECTION('',(0.892533856999298,-5.46501316141467E-17,0.450980392156862));
#1173=DIRECTION('',(0.450980392156862,0.,-0.892533856999298));
#1174=DIRECTION('',(0.450980392156862,-2.74500446834995E-17,-0.892533856999298));
#1175=DIRECTION('',(6.12303176911189E-17,1.,0.));
#1176=DIRECTION('',(-1.,6.12303176911189E-17,0.));
#1177=DIRECTION('',(0.,-1.,0.));
#1178=DIRECTION('',(1.,0.,0.));
#1179=DIRECTION('',(6.12303176911189E-17,1.,0.));
#1180=DIRECTION('',(-1.,6.12303176911189E-17,0.));
#1181=DIRECTION('',(0.,1.,0.));
#1182=DIRECTION('',(0.,-1.,0.));
#1183=DIRECTION('',(0.,0.,-1.));
#1184=DIRECTION('',(0.,1.,0.));
#1185=DIRECTION('',(6.12303176911189E-17,1.,0.));
#1186=DIRECTION('',(6.12303176911189E-17,1.,0.));
#1187=DIRECTION('',(0.892533856999297,-5.46501316141466E-17,-0.450980392156863));
#1188=DIRECTION('',(-0.450980392156863,0.,-0.892533856999297));
#1189=DIRECTION('',(-0.450980392156863,2.74500446834996E-17,-0.892533856999297));
#1190=DIRECTION('',(-0.892533856999298,5.46501316141467E-17,-0.450980392156862));
#1191=DIRECTION('',(-0.450980392156862,0.,0.892533856999298));
#1192=DIRECTION('',(-0.450980392156862,2.74500446834995E-17,0.892533856999298));
#1193=DIRECTION('',(6.12303176911189E-17,1.,0.));
#1194=DIRECTION('',(-1.,6.12303176911189E-17,0.));
#1195=DIRECTION('',(0.,1.,0.));
#1196=DIRECTION('',(1.,0.,0.));
#1197=DIRECTION('',(0.,-1.,0.));
#1198=DIRECTION('',(0.,0.,-1.));
#1199=DIRECTION('',(-1.43789045666177E-16,0.,-1.));
#1200=DIRECTION('',(0.,-1.,0.));
#1201=DIRECTION('',(0.,0.,-1.));
#1202=DIRECTION('',(4.3136713699853E-16,0.,1.));
#1203=DIRECTION('',(0.,-1.,0.));
#1204=DIRECTION('',(0.,0.,-1.));
#1205=DIRECTION('',(1.,0.,-1.43789045666177E-16));
#1206=DIRECTION('',(-1.43789045666177E-16,0.,-1.));
#1207=DIRECTION('',(-1.26595455384521E-48,-1.,-8.8042489466428E-33));
#1208=DIRECTION('',(-1.43789045666177E-16,0.,-1.));
#1209=DIRECTION('',(-1.,0.,4.3136713699853E-16));
#1210=DIRECTION('',(4.3136713699853E-16,0.,1.));
#1211=DIRECTION('',(-1.13935909846069E-47,-1.,-2.64127468399284E-32));
#1212=DIRECTION('',(4.3136713699853E-16,0.,1.));
#1213=DIRECTION('',(0.,1.,0.));
#1214=DIRECTION('',(0.,0.,1.));
#1215=DIRECTION('',(-1.43789045666177E-16,0.,-1.));
#1216=DIRECTION('',(0.,1.,0.));
#1217=DIRECTION('',(0.,0.,1.));
#1218=DIRECTION('',(0.,0.,1.));
#1219=DIRECTION('',(0.,1.,0.));
#1220=DIRECTION('',(0.,0.,1.));
#1221=DIRECTION('',(-1.,0.,0.));
#1222=DIRECTION('',(0.,0.,1.));
#1223=DIRECTION('',(0.,1.,0.));
#1224=DIRECTION('',(0.,0.,1.));
#1225=DIRECTION('',(1.,0.,-1.43789045666177E-16));
#1226=DIRECTION('',(-1.43789045666177E-16,0.,-1.));
#1227=DIRECTION('',(1.26595455384521E-48,1.,8.8042489466428E-33));
#1228=DIRECTION('',(-1.43789045666177E-16,0.,-1.));
#1229=DIRECTION('',(-6.12303176911189E-17,-1.,0.));
#1230=DIRECTION('',(1.,-6.12303176911189E-17,0.));
#1231=DIRECTION('',(-4.3136713699853E-16,0.,-1.));
#1232=DIRECTION('',(-1.,0.,4.3136713699853E-16));
#1233=DIRECTION('',(0.,0.,1.));
#1234=DIRECTION('',(1.,0.,0.));
#1235=DIRECTION('',(0.,-1.,0.));
#1236=DIRECTION('',(0.,0.,-1.));
#1237=DIRECTION('',(0.,0.,-1.));
#1238=DIRECTION('',(-1.,0.,0.));
#1239=DIRECTION('',(1.43789045666177E-16,0.,1.));
#1240=DIRECTION('',(1.,0.,-1.43789045666177E-16));
#1241=DIRECTION('',(1.43789045666177E-16,0.,1.));
#1242=DIRECTION('',(1.,0.,-1.43789045666177E-16));
#1243=DIRECTION('',(0.,0.,-1.));
#1244=DIRECTION('',(-1.,0.,0.));
#1245=DIRECTION('',(0.,1.,0.));
#1246=DIRECTION('',(0.,0.,1.));
#1247=DIRECTION('',(0.,0.,1.));
#1248=DIRECTION('',(1.,0.,0.));
#1249=DIRECTION('',(0.,0.,-1.));
#1250=DIRECTION('',(-1.,0.,0.));
#1251=DIRECTION('',(-0.450980392156862,2.74500446834995E-17,-0.892533856999298));
#1252=DIRECTION('',(-0.892533856999298,0.,0.450980392156862));
#1253=DIRECTION('',(0.743444563324833,0.,0.668797563738647));
#1254=DIRECTION('',(0.668797563738647,0.,-0.743444563324833));
#1255=DIRECTION('',(-6.08674903851512E-17,-1.,0.));
#1256=DIRECTION('',(1.,-6.08674903851512E-17,0.));
#1257=DIRECTION('',(-6.12303176911189E-17,-1.,0.));
#1258=DIRECTION('',(1.,-6.12303176911189E-17,0.));
#1259=DIRECTION('',(0.,1.,0.));
#1260=DIRECTION('',(0.,0.,1.));
#1261=DIRECTION('',(0.937695684834414,0.,0.347457627118645));
#1262=DIRECTION('',(0.347457627118645,0.,-0.937695684834414));
#1263=DIRECTION('',(0.,1.,0.));
#1264=DIRECTION('',(0.,0.,1.));
#1265=DIRECTION('',(0.937695684834414,0.,-0.347457627118645));
#1266=DIRECTION('',(-0.347457627118645,0.,-0.937695684834414));
#1267=DIRECTION('',(0.,-1.,0.));
#1268=DIRECTION('',(0.,0.,-1.));
#1269=DIRECTION('',(-6.12303176911189E-17,-1.,0.));
#1270=DIRECTION('',(1.,-6.12303176911189E-17,0.));
#1271=DIRECTION('',(-6.08674903851512E-17,-1.,0.));
#1272=DIRECTION('',(1.,-6.08674903851512E-17,0.));
#1273=DIRECTION('',(0.743444563324832,0.,-0.668797563738647));
#1274=DIRECTION('',(-0.668797563738647,0.,-0.743444563324832));
#1275=DIRECTION('',(-0.450980392156862,2.74500446834995E-17,0.892533856999298));
#1276=DIRECTION('',(0.892533856999298,0.,0.450980392156862));
#1277=DIRECTION('',(0.450980392156863,-2.74500446834996E-17,0.892533856999297));
#1278=DIRECTION('',(0.892533856999297,0.,-0.450980392156863));
#1279=DIRECTION('',(-0.743444563324834,0.,-0.668797563738645));
#1280=DIRECTION('',(-0.668797563738645,0.,0.743444563324834));
#1281=DIRECTION('',(-6.08674903851512E-17,-1.,0.));
#1282=DIRECTION('',(1.,-6.08674903851512E-17,0.));
#1283=DIRECTION('',(-6.12303176911189E-17,-1.,0.));
#1284=DIRECTION('',(1.,-6.12303176911189E-17,0.));
#1285=DIRECTION('',(0.,1.,0.));
#1286=DIRECTION('',(0.,0.,1.));
#1287=DIRECTION('',(-0.937695684834414,0.,-0.347457627118645));
#1288=DIRECTION('',(-0.347457627118645,0.,0.937695684834414));
#1289=DIRECTION('',(0.,-1.,0.));
#1290=DIRECTION('',(0.,0.,-1.));
#1291=DIRECTION('',(-0.937695684834414,0.,0.347457627118644));
#1292=DIRECTION('',(0.347457627118644,0.,0.937695684834414));
#1293=DIRECTION('',(0.,-1.,0.));
#1294=DIRECTION('',(0.,0.,-1.));
#1295=DIRECTION('',(-6.12303176911189E-17,-1.,0.));
#1296=DIRECTION('',(1.,-6.12303176911189E-17,0.));
#1297=DIRECTION('',(-6.08674903851512E-17,-1.,0.));
#1298=DIRECTION('',(1.,-6.08674903851512E-17,0.));
#1299=DIRECTION('',(-0.743444563324834,0.,0.668797563738645));
#1300=DIRECTION('',(0.668797563738645,0.,0.743444563324834));
#1301=DIRECTION('',(0.450980392156862,-2.74500446834995E-17,-0.892533856999298));
#1302=DIRECTION('',(-0.892533856999298,0.,-0.450980392156862));
#1303=DIRECTION('',(0.,0.,1.));
#1304=DIRECTION('',(1.,0.,0.));
#1305=DIRECTION('',(-5.84683748139567E-33,-9.54892560069752E-17,1.));
#1306=DIRECTION('',(0.,-1.,-9.54892560069752E-17));
#1307=DIRECTION('',(-5.84683748139567E-33,-9.54892560069752E-17,1.));
#1308=DIRECTION('',(0.,-1.,-9.54892560069752E-17));
#1309=DIRECTION('',(-5.84683748139567E-33,-9.54892560069752E-17,1.));
#1310=DIRECTION('',(0.,-1.,-9.54892560069752E-17));
#1311=DIRECTION('',(5.84683748139567E-33,9.54892560069752E-17,-1.));
#1312=DIRECTION('',(0.,1.,9.54892560069752E-17));
#1313=DIRECTION('',(-5.84683748139567E-33,-9.54892560069752E-17,1.));
#1314=DIRECTION('',(0.,-1.,-9.54892560069752E-17));
#1315=DIRECTION('',(-5.84683748139567E-33,-9.54892560069752E-17,1.));
#1316=DIRECTION('',(0.,-1.,-9.54892560069752E-17));
#1317=DIRECTION('',(-5.84683748139567E-33,-9.54892560069752E-17,1.));
#1318=DIRECTION('',(0.,-1.,-9.54892560069752E-17));
#1319=DIRECTION('',(-5.84683748139567E-33,-9.54892560069752E-17,1.));
#1320=DIRECTION('',(0.,-1.,-9.54892560069752E-17));
#1321=DIRECTION('',(-5.84683748139567E-33,-9.54892560069752E-17,1.));
#1322=DIRECTION('',(0.,-1.,-9.54892560069752E-17));
#1323=CARTESIAN_POINT('',(0.,0.,0.));
#1324=CARTESIAN_POINT('',(-2.93905524917371E-15,6.,-38.25));
#1325=CARTESIAN_POINT('',(3.67019078840746E-16,6.,0.));
#1326=CARTESIAN_POINT('',(-11.25,6.,-27.270634389394));
#1327=CARTESIAN_POINT('',(-19.7295281302901,6.,-21.9316146180826));
#1328=CARTESIAN_POINT('',(-9.1484720342428,6.,-42.8725490196078));
#1329=CARTESIAN_POINT('',(-11.2395820871487,6.,-38.7340397775454));
#1330=CARTESIAN_POINT('',(-2.38798238995364E-15,6.,-38.25));
#1331=CARTESIAN_POINT('',(-11.25,6.,-38.25));
#1332=CARTESIAN_POINT('',(-11.25,6.,-38.25));
#1333=CARTESIAN_POINT('',(-2.93905524917371E-15,6.,38.25));
#1334=CARTESIAN_POINT('',(-24.5446810674807,6.,12.4019607843137));
#1335=CARTESIAN_POINT('',(-11.2395820871487,6.,38.7340397775453));
#1336=CARTESIAN_POINT('',(-19.72952813029,6.,21.9316146180826));
#1337=CARTESIAN_POINT('',(3.67019078840746E-16,6.,0.));
#1338=CARTESIAN_POINT('',(-11.25,6.,27.270634389394));
#1339=CARTESIAN_POINT('',(-11.25,6.,38.25));
#1340=CARTESIAN_POINT('',(-11.25,6.,38.25));
#1341=CARTESIAN_POINT('',(-2.38798238995364E-15,6.,38.25));
#1342=CARTESIAN_POINT('',(-2.93905524917371E-15,6.,38.25));
#1343=CARTESIAN_POINT('',(3.67019078840746E-16,6.,0.));
#1344=CARTESIAN_POINT('',(11.25,6.,27.270634389394));
#1345=CARTESIAN_POINT('',(19.72952813029,6.,21.9316146180826));
#1346=CARTESIAN_POINT('',(9.1484720342428,6.,42.8725490196078));
#1347=CARTESIAN_POINT('',(11.2395820871487,6.,38.7340397775454));
#1348=CARTESIAN_POINT('',(-2.38798238995364E-15,6.,38.25));
#1349=CARTESIAN_POINT('',(11.25,6.,38.25));
#1350=CARTESIAN_POINT('',(11.25,6.,38.25));
#1351=CARTESIAN_POINT('',(-5.81688018065629E-16,-9.5,19.2349939951952));
#1352=CARTESIAN_POINT('',(-5.81688018065629E-16,-9.5,0.));
#1353=CARTESIAN_POINT('',(27.5,-9.5,0.));
#1354=CARTESIAN_POINT('',(-5.81688018065629E-16,-9.5,0.));
#1355=CARTESIAN_POINT('',(19.2349939951952,-9.5,0.));
#1356=CARTESIAN_POINT('',(0.,0.,0.));
#1357=CARTESIAN_POINT('',(1.17449376004803,-3.67674792552859,28.4803136455524));
#1358=CARTESIAN_POINT('',(1.66265934049065,-2.49969982714372,28.4506011990929));
#1359=CARTESIAN_POINT('',(1.17486887798936,-1.32445276589653,28.4802752071685));
#1360=CARTESIAN_POINT('',(0.00123444122114744,-0.83793639659762,28.5098579230727));
#1361=CARTESIAN_POINT('',(-1.17498921526209,-1.32380293702468,28.4802930326822));
#1362=CARTESIAN_POINT('',(-1.66211035675305,-2.49976410748817,28.4506243342233));
#1363=CARTESIAN_POINT('',(-1.17656878299335,-3.67392424035778,28.4802033098083));
#1364=CARTESIAN_POINT('',(-0.00173870316932548,-4.16233082605685,28.5098707015561));
#1365=CARTESIAN_POINT('',(1.17449376004803,-3.67674792552859,28.4803136455524));
#1366=CARTESIAN_POINT('',(1.66265934049065,-2.49969982714372,28.4506011990929));
#1367=CARTESIAN_POINT('',(1.17486887798936,-1.32445276589653,28.4802752071685));
#1368=CARTESIAN_POINT('',(1.5,-2.5,28.4604989415154));
#1369=CARTESIAN_POINT('',(-5.2045770037451E-16,-8.5,0.));
#1370=CARTESIAN_POINT('',(28.5,-8.5,0.));
#1371=CARTESIAN_POINT('',(3.06151588455594E-16,5.,0.));
#1372=CARTESIAN_POINT('',(11.8347457627119,5.,-25.9266039567849));
#1373=CARTESIAN_POINT('',(19.0607305665514,5.,-21.1881700547577));
#1374=CARTESIAN_POINT('',(19.0607305665514,5.,-21.1881700547577));
#1375=CARTESIAN_POINT('',(20.403720070926,5.,-19.9800260276693));
#1376=CARTESIAN_POINT('',(22.8134480811037,5.60322625531963,-17.3502350090643));
#1377=CARTESIAN_POINT('',(24.656486908852,6.5334241318445,-14.39807750429));
#1378=CARTESIAN_POINT('',(25.4372149244799,7.,-12.8529411764707));
#1379=CARTESIAN_POINT('',(25.43721492448,7.,-12.8529411764706));
#1380=CARTESIAN_POINT('',(25.43721492448,6.,-12.8529411764706));
#1381=CARTESIAN_POINT('',(25.43721492448,15.,-12.8529411764706));
#1382=CARTESIAN_POINT('',(9.18454765366783E-16,15.,0.));
#1383=CARTESIAN_POINT('',(25.43721492448,15.,12.8529411764706));
#1384=CARTESIAN_POINT('',(25.43721492448,6.,12.8529411764706));
#1385=CARTESIAN_POINT('',(25.43721492448,7.,12.8529411764706));
#1386=CARTESIAN_POINT('',(19.0607305665514,5.,21.1881700547578));
#1387=CARTESIAN_POINT('',(20.403720070926,5.,19.9800260276693));
#1388=CARTESIAN_POINT('',(22.8134480811065,5.60322625529725,17.3502350090589));
#1389=CARTESIAN_POINT('',(24.6564869088466,6.5334241318893,14.3980775043007));
#1390=CARTESIAN_POINT('',(25.43721492448,7.,12.8529411764706));
#1391=CARTESIAN_POINT('',(19.0607305665514,5.,21.1881700547578));
#1392=CARTESIAN_POINT('',(3.06151588455594E-16,5.,0.));
#1393=CARTESIAN_POINT('',(11.8347457627119,5.,25.9266039567849));
#1394=CARTESIAN_POINT('',(11.8347457627119,5.,25.9266039567849));
#1395=CARTESIAN_POINT('',(11.8347457627119,4.4592936861642,25.9266039567849));
#1396=CARTESIAN_POINT('',(11.3910726443289,3.41656048417518,26.1340764722744));
#1397=CARTESIAN_POINT('',(10.4089199870988,3.,26.5366917677657));
#1398=CARTESIAN_POINT('',(9.90254237288135,3.,26.7243270177808));
#1399=CARTESIAN_POINT('',(9.90254237288135,3.,26.7243270177808));
#1400=CARTESIAN_POINT('',(1.83690953073357E-16,3.,0.));
#1401=CARTESIAN_POINT('',(-9.90254237288136,3.,26.7243270177808));
#1402=CARTESIAN_POINT('',(-9.90254237288136,3.,26.7243270177808));
#1403=CARTESIAN_POINT('',(-10.408185529953,3.,26.5369639165462));
#1404=CARTESIAN_POINT('',(-11.3926265576787,3.41731294185993,26.1334302062107));
#1405=CARTESIAN_POINT('',(-11.8347457627119,4.46020258685813,25.9266039567849));
#1406=CARTESIAN_POINT('',(-11.8347457627119,5.,25.9266039567849));
#1407=CARTESIAN_POINT('',(-11.8347457627119,5.,25.9266039567849));
#1408=CARTESIAN_POINT('',(3.06151588455594E-16,5.,0.));
#1409=CARTESIAN_POINT('',(-19.0607305665514,5.,21.1881700547578));
#1410=CARTESIAN_POINT('',(-19.0607305665514,5.,21.1881700547578));
#1411=CARTESIAN_POINT('',(-20.403720070926,5.00000000000001,19.9800260276693));
#1412=CARTESIAN_POINT('',(-22.8134480811077,5.6032262552874,17.3502350090565));
#1413=CARTESIAN_POINT('',(-24.6564869088442,6.53342413190903,14.3980775043055));
#1414=CARTESIAN_POINT('',(-25.43721492448,7.,12.8529411764706));
#1415=CARTESIAN_POINT('',(-25.43721492448,7.,12.8529411764706));
#1416=CARTESIAN_POINT('',(-25.43721492448,6.,12.8529411764706));
#1417=CARTESIAN_POINT('',(-25.43721492448,15.,12.8529411764706));
#1418=CARTESIAN_POINT('',(9.18454765366783E-16,15.,0.));
#1419=CARTESIAN_POINT('',(-25.43721492448,15.,-12.8529411764706));
#1420=CARTESIAN_POINT('',(-25.43721492448,6.,-12.8529411764706));
#1421=CARTESIAN_POINT('',(-25.43721492448,7.,-12.8529411764706));
#1422=CARTESIAN_POINT('',(-19.0607305665514,5.,-21.1881700547577));
#1423=CARTESIAN_POINT('',(-20.403720070926,5.,-19.9800260276693));
#1424=CARTESIAN_POINT('',(-22.81344808111,5.60322625526859,-17.350235009052));
#1425=CARTESIAN_POINT('',(-24.6564869088397,6.53342413194663,-14.3980775043145));
#1426=CARTESIAN_POINT('',(-25.43721492448,7.,-12.8529411764706));
#1427=CARTESIAN_POINT('',(-19.0607305665514,5.,-21.1881700547577));
#1428=CARTESIAN_POINT('',(3.06151588455594E-16,5.,0.));
#1429=CARTESIAN_POINT('',(-11.8347457627119,5.,-25.9266039567849));
#1430=CARTESIAN_POINT('',(-11.8347457627119,5.,-25.9266039567849));
#1431=CARTESIAN_POINT('',(-11.8347457627119,4.4592936861642,-25.9266039567849));
#1432=CARTESIAN_POINT('',(-11.3910726443289,3.41656048417518,-26.1340764722744));
#1433=CARTESIAN_POINT('',(-10.4089199870988,3.,-26.5366917677657));
#1434=CARTESIAN_POINT('',(-9.90254237288136,3.,-26.7243270177808));
#1435=CARTESIAN_POINT('',(-9.90254237288136,3.,-26.7243270177808));
#1436=CARTESIAN_POINT('',(1.83690953073357E-16,3.,0.));
#1437=CARTESIAN_POINT('',(9.90254237288136,3.,-26.7243270177808));
#1438=CARTESIAN_POINT('',(9.90254237288136,3.,-26.7243270177808));
#1439=CARTESIAN_POINT('',(10.408185529953,3.,-26.5369639165462));
#1440=CARTESIAN_POINT('',(11.3926265576787,3.41731294185993,-26.1334302062107));
#1441=CARTESIAN_POINT('',(11.8347457627119,4.46020258685813,-25.9266039567849));
#1442=CARTESIAN_POINT('',(11.8347457627119,5.,-25.9266039567849));
#1443=CARTESIAN_POINT('',(9.18454765366783E-16,15.,28.5));
#1444=CARTESIAN_POINT('',(10.0410058912421,15.,-43.3235294117647));
#1445=CARTESIAN_POINT('',(10.0410058912421,15.,-43.3235294117647));
#1446=CARTESIAN_POINT('',(-2.38798238995364E-15,15.,-38.25));
#1447=CARTESIAN_POINT('',(-10.0410058912421,15.,-43.3235294117647));
#1448=CARTESIAN_POINT('',(-10.0410058912421,15.,-43.3235294117647));
#1449=CARTESIAN_POINT('',(-10.0410058912421,15.,43.3235294117647));
#1450=CARTESIAN_POINT('',(-10.0410058912421,15.,43.3235294117647));
#1451=CARTESIAN_POINT('',(-2.38798238995364E-15,15.,38.25));
#1452=CARTESIAN_POINT('',(10.0410058912421,15.,43.3235294117647));
#1453=CARTESIAN_POINT('',(10.0410058912421,15.,43.3235294117647));
#1454=CARTESIAN_POINT('',(-2.38798238995364E-15,15.,38.25));
#1455=CARTESIAN_POINT('',(-5.75,15.,38.25));
#1456=CARTESIAN_POINT('',(9.18454765366783E-16,15.,0.));
#1457=CARTESIAN_POINT('',(19.2349939951952,15.,0.));
#1458=CARTESIAN_POINT('',(-2.38798238995364E-15,15.,-38.25));
#1459=CARTESIAN_POINT('',(-5.75,15.,-38.25));
#1460=CARTESIAN_POINT('',(0.,0.,0.));
#1461=CARTESIAN_POINT('',(4.59227382683392E-16,7.5,0.));
#1462=CARTESIAN_POINT('',(19.2349939951952,7.5,0.));
#1463=CARTESIAN_POINT('',(4.59227382683392E-16,7.5,0.));
#1464=CARTESIAN_POINT('',(4.28612223837832E-16,7.,0.));
#1465=CARTESIAN_POINT('',(18.734993995195,7.,0.));
#1466=CARTESIAN_POINT('',(0.,0.,-1.73472347597681E-15));
#1467=CARTESIAN_POINT('',(0.0314728422460731,-4.16417575674291,19.574942027951));
#1468=CARTESIAN_POINT('',(-1.15852528345957,-3.69265452836857,19.6351913419101));
#1469=CARTESIAN_POINT('',(-1.65995437969497,-2.52895568289193,19.7829249688542));
#1470=CARTESIAN_POINT('',(-1.2002528169459,-1.35050979104116,19.931172745278));
#1471=CARTESIAN_POINT('',(-0.0312632605480796,-0.835951021477597,19.9954870388013));
#1472=CARTESIAN_POINT('',(1.15792721570295,-1.30724268044562,19.9365904186437));
#1473=CARTESIAN_POINT('',(1.65986535283555,-2.46912846220361,19.7904837069196));
#1474=CARTESIAN_POINT('',(1.20105856216196,-3.64906636988422,19.6407492715291));
#1475=CARTESIAN_POINT('',(0.0314728422460731,-4.16417575674291,19.574942027951));
#1476=CARTESIAN_POINT('',(-1.15852528345957,-3.69265452836857,19.6351913419101));
#1477=CARTESIAN_POINT('',(-1.65995437969497,-2.52895568289193,19.7829249688542));
#1478=CARTESIAN_POINT('',(-1.04376377854786,-3.57729159218486,19.6497720607409));
#1479=CARTESIAN_POINT('',(-4.28612223837833E-16,-7.00000000000002,0.));
#1480=CARTESIAN_POINT('',(18.7349939951952,-7.00000000000002,0.));
#1481=CARTESIAN_POINT('',(-4.59227382683392E-16,-7.5,0.));
#1482=CARTESIAN_POINT('',(-4.59227382683392E-16,-7.5,0.));
#1483=CARTESIAN_POINT('',(19.2349939951952,-7.5,0.));
#1484=CARTESIAN_POINT('',(0.,0.,0.));
#1485=CARTESIAN_POINT('',(-2.93905524917371E-15,6.,-38.25));
#1486=CARTESIAN_POINT('',(-2.38798238995364E-15,6.,-38.25));
#1487=CARTESIAN_POINT('',(11.2395820871487,6.,-38.7340397775454));
#1488=CARTESIAN_POINT('',(11.25,6.,-38.25));
#1489=CARTESIAN_POINT('',(24.5446810674807,6.,-12.4019607843137));
#1490=CARTESIAN_POINT('',(19.7295281302901,6.,-21.9316146180826));
#1491=CARTESIAN_POINT('',(3.67019078840746E-16,6.,0.));
#1492=CARTESIAN_POINT('',(11.25,6.,-27.270634389394));
#1493=CARTESIAN_POINT('',(11.25,6.,-38.25));
#1494=CARTESIAN_POINT('',(-2.93905524917371E-15,6.,-38.25));
#1495=CARTESIAN_POINT('',(11.25,4.,-38.25));
#1496=CARTESIAN_POINT('',(11.25,5.,-38.25));
#1497=CARTESIAN_POINT('',(-3.00028556686482E-15,5.,-38.25));
#1498=CARTESIAN_POINT('',(-11.25,5.,-38.25));
#1499=CARTESIAN_POINT('',(-11.25,4.,-38.25));
#1500=CARTESIAN_POINT('',(-11.2395820871487,6.,-38.7340397775454));
#1501=CARTESIAN_POINT('',(-11.2041225864189,6.,-39.5574224574626));
#1502=CARTESIAN_POINT('',(-10.9544720806283,6.30280469886945,-41.1571845624554));
#1503=CARTESIAN_POINT('',(-10.3930547299502,6.76726206430783,-42.6267906769353));
#1504=CARTESIAN_POINT('',(-10.0410058912421,7.,-43.3235294117647));
#1505=CARTESIAN_POINT('',(-10.0410058912421,7.,-43.3235294117647));
#1506=CARTESIAN_POINT('',(-10.0410058912421,6.,-43.3235294117647));
#1507=CARTESIAN_POINT('',(10.0410058912421,6.,-43.3235294117647));
#1508=CARTESIAN_POINT('',(10.0410058912421,7.,-43.3235294117647));
#1509=CARTESIAN_POINT('',(11.2395820871487,6.,-38.7340397775454));
#1510=CARTESIAN_POINT('',(11.2041225864189,6.,-39.5574224574626));
#1511=CARTESIAN_POINT('',(10.9544720806299,6.30280469888166,-41.1571845624521));
#1512=CARTESIAN_POINT('',(10.3930547299469,6.76726206428339,-42.6267906769418));
#1513=CARTESIAN_POINT('',(10.0410058912421,7.,-43.3235294117647));
#1514=CARTESIAN_POINT('',(10.0410058912421,6.,-43.3235294117647));
#1515=CARTESIAN_POINT('',(10.0410058912421,7.,-43.3235294117647));
#1516=CARTESIAN_POINT('',(-10.0410058912421,6.,-43.3235294117647));
#1517=CARTESIAN_POINT('',(-25.43721492448,7.,-12.8529411764706));
#1518=CARTESIAN_POINT('',(-2.93905524917371E-15,6.,-38.25));
#1519=CARTESIAN_POINT('',(-2.38798238995364E-15,4.,-38.25));
#1520=CARTESIAN_POINT('',(5.75,4.,-38.25));
#1521=CARTESIAN_POINT('',(-2.93905524917371E-15,6.,38.25));
#1522=CARTESIAN_POINT('',(-11.25,4.,38.25));
#1523=CARTESIAN_POINT('',(-11.25,5.,38.25));
#1524=CARTESIAN_POINT('',(-3.00028556686482E-15,5.,38.25));
#1525=CARTESIAN_POINT('',(11.25,5.,38.25));
#1526=CARTESIAN_POINT('',(11.25,4.,38.25));
#1527=CARTESIAN_POINT('',(11.2395820871487,6.,38.7340397775454));
#1528=CARTESIAN_POINT('',(11.2041225864189,6.,39.5574224574626));
#1529=CARTESIAN_POINT('',(10.9544720806293,6.30280469887754,41.1571845624532));
#1530=CARTESIAN_POINT('',(10.393054729948,6.76726206429162,42.6267906769396));
#1531=CARTESIAN_POINT('',(10.0410058912421,7.,43.3235294117647));
#1532=CARTESIAN_POINT('',(10.0410058912421,7.,43.3235294117647));
#1533=CARTESIAN_POINT('',(10.0410058912421,6.,43.3235294117647));
#1534=CARTESIAN_POINT('',(-10.0410058912421,6.,43.3235294117647));
#1535=CARTESIAN_POINT('',(-10.0410058912421,7.,43.3235294117647));
#1536=CARTESIAN_POINT('',(-11.2395820871487,6.,38.7340397775453));
#1537=CARTESIAN_POINT('',(-11.2041225864189,6.,39.5574224574625));
#1538=CARTESIAN_POINT('',(-10.9544720806112,6.30280469874281,41.1571845624892));
#1539=CARTESIAN_POINT('',(-10.3930547299843,6.76726206456132,42.6267906768678));
#1540=CARTESIAN_POINT('',(-10.0410058912421,7.,43.3235294117647));
#1541=CARTESIAN_POINT('',(-10.0410058912421,6.,43.3235294117647));
#1542=CARTESIAN_POINT('',(-10.0410058912421,7.,43.3235294117647));
#1543=CARTESIAN_POINT('',(10.0410058912421,6.,43.3235294117647));
#1544=CARTESIAN_POINT('',(25.43721492448,7.,12.8529411764706));
#1545=CARTESIAN_POINT('',(-2.93905524917371E-15,6.,38.25));
#1546=CARTESIAN_POINT('',(-2.38798238995364E-15,4.,38.25));
#1547=CARTESIAN_POINT('',(5.75,4.,38.25));
#1548=CARTESIAN_POINT('',(-2.2655217545714E-15,4.,38.25));
#1549=CARTESIAN_POINT('',(-10.25,4.,26.1856353751441));
#1550=CARTESIAN_POINT('',(-10.25,4.,38.25));
#1551=CARTESIAN_POINT('',(-10.25,4.,27.6620227026152));
#1552=CARTESIAN_POINT('',(1.83690953073357E-16,4.,0.));
#1553=CARTESIAN_POINT('',(10.25,4.,27.6620227026152));
#1554=CARTESIAN_POINT('',(10.25,4.,38.25));
#1555=CARTESIAN_POINT('',(10.25,4.,38.25));
#1556=CARTESIAN_POINT('',(-3.00028556686482E-15,4.,38.25));
#1557=CARTESIAN_POINT('',(-11.25,4.,38.25));
#1558=CARTESIAN_POINT('',(-11.25,6.,27.270634389394));
#1559=CARTESIAN_POINT('',(-11.25,6.,27.1204523939786));
#1560=CARTESIAN_POINT('',(-11.25,5.97230983895953,26.9756216612469));
#1561=CARTESIAN_POINT('',(-11.25,5.91606450661102,26.8363093587773));
#1562=CARTESIAN_POINT('',(-11.25,5.91606450661102,26.8363093587773));
#1563=CARTESIAN_POINT('',(-11.25,4.,26.8363093587773));
#1564=CARTESIAN_POINT('',(-11.25,5.,26.8363093587773));
#1565=CARTESIAN_POINT('',(-11.25,5.,38.25));
#1566=CARTESIAN_POINT('',(11.25,4.,38.25));
#1567=CARTESIAN_POINT('',(11.25,4.,26.8363093587773));
#1568=CARTESIAN_POINT('',(11.25,5.,26.8363093587773));
#1569=CARTESIAN_POINT('',(11.25,5.91606450661102,26.8363093587773));
#1570=CARTESIAN_POINT('',(11.25,5.91606450661102,26.8363093587773));
#1571=CARTESIAN_POINT('',(11.25,5.97230983895953,26.9756216612469));
#1572=CARTESIAN_POINT('',(11.25,6.,27.1204523939786));
#1573=CARTESIAN_POINT('',(11.25,6.,27.270634389394));
#1574=CARTESIAN_POINT('',(11.25,5.,26.1856353751441));
#1575=CARTESIAN_POINT('',(-2.2655217545714E-15,4.,-38.25));
#1576=CARTESIAN_POINT('',(10.25,4.,-26.1856353751441));
#1577=CARTESIAN_POINT('',(10.25,4.,-38.25));
#1578=CARTESIAN_POINT('',(10.25,4.,-27.6620227026152));
#1579=CARTESIAN_POINT('',(1.83690953073357E-16,4.,0.));
#1580=CARTESIAN_POINT('',(-10.25,4.,-27.6620227026152));
#1581=CARTESIAN_POINT('',(-10.25,4.,-38.25));
#1582=CARTESIAN_POINT('',(-10.25,4.,-38.25));
#1583=CARTESIAN_POINT('',(-3.00028556686482E-15,4.,-38.25));
#1584=CARTESIAN_POINT('',(-11.25,4.,-38.25));
#1585=CARTESIAN_POINT('',(-11.25,6.,-26.8363093587773));
#1586=CARTESIAN_POINT('',(-11.25,5.,-26.8363093587773));
#1587=CARTESIAN_POINT('',(-11.25,5.91606450661102,-26.8363093587773));
#1588=CARTESIAN_POINT('',(-11.25,5.91606450661102,-26.8363093587773));
#1589=CARTESIAN_POINT('',(-11.25,5.97230983895953,-26.9756216612469));
#1590=CARTESIAN_POINT('',(-11.25,6.,-27.1204523939786));
#1591=CARTESIAN_POINT('',(-11.25,6.,-27.270634389394));
#1592=CARTESIAN_POINT('',(-11.25,5.,-26.1856353751441));
#1593=CARTESIAN_POINT('',(11.25,4.,-38.25));
#1594=CARTESIAN_POINT('',(11.25,6.,-27.270634389394));
#1595=CARTESIAN_POINT('',(11.25,6.,-27.1204523939786));
#1596=CARTESIAN_POINT('',(11.25,5.97230983895953,-26.9756216612469));
#1597=CARTESIAN_POINT('',(11.25,5.91606450661102,-26.8363093587773));
#1598=CARTESIAN_POINT('',(11.25,5.91606450661102,-26.8363093587773));
#1599=CARTESIAN_POINT('',(11.25,5.,-26.8363093587773));
#1600=CARTESIAN_POINT('',(11.25,5.,-26.8363093587773));
#1601=CARTESIAN_POINT('',(11.25,5.,-38.25));
#1602=CARTESIAN_POINT('',(-5.2045770037451E-16,-8.5,0.));
#1603=CARTESIAN_POINT('',(10.25,5.,38.25));
#1604=CARTESIAN_POINT('',(10.25,4.,27.6620227026152));
#1605=CARTESIAN_POINT('',(10.4931866758827,4.,27.4817999145281));
#1606=CARTESIAN_POINT('',(10.9601956652539,4.16025306250778,27.1037194717713));
#1607=CARTESIAN_POINT('',(11.2500000000001,4.69531020036384,26.8363093587774));
#1608=CARTESIAN_POINT('',(11.2500000000001,5.,26.8363093587774));
#1609=CARTESIAN_POINT('',(10.25,5.,38.25));
#1610=CARTESIAN_POINT('',(-3.00028556686482E-15,5.,38.25));
#1611=CARTESIAN_POINT('',(-10.25,5.,38.25));
#1612=CARTESIAN_POINT('',(-10.25,5.,38.25));
#1613=CARTESIAN_POINT('',(-11.25,5.,26.8363093587773));
#1614=CARTESIAN_POINT('',(-11.25,4.69534700579655,26.8363093587773));
#1615=CARTESIAN_POINT('',(-10.9623085174198,4.16213738659244,27.101913630082));
#1616=CARTESIAN_POINT('',(-10.4932183535779,4.,27.4817764385604));
#1617=CARTESIAN_POINT('',(-10.25,4.,27.6620227026152));
#1618=CARTESIAN_POINT('',(10.25,5.,-38.25));
#1619=CARTESIAN_POINT('',(11.25,5.,-26.8363093587773));
#1620=CARTESIAN_POINT('',(11.25,4.69534700579655,-26.8363093587773));
#1621=CARTESIAN_POINT('',(10.9623085174198,4.16213738659244,-27.101913630082));
#1622=CARTESIAN_POINT('',(10.4932183535779,4.,-27.4817764385604));
#1623=CARTESIAN_POINT('',(10.25,4.,-27.6620227026152));
#1624=CARTESIAN_POINT('',(10.25,5.,-38.25));
#1625=CARTESIAN_POINT('',(-3.00028556686482E-15,5.,-38.25));
#1626=CARTESIAN_POINT('',(-10.25,5.,-38.25));
#1627=CARTESIAN_POINT('',(-10.25,5.,-38.25));
#1628=CARTESIAN_POINT('',(-10.25,4.,-27.6620227026152));
#1629=CARTESIAN_POINT('',(-10.4931866758827,4.,-27.4817999145281));
#1630=CARTESIAN_POINT('',(-10.9601956652539,4.16025306250779,-27.1037194717713));
#1631=CARTESIAN_POINT('',(-11.2500000000001,4.69531020036384,-26.8363093587774));
#1632=CARTESIAN_POINT('',(-11.2500000000001,5.,-26.8363093587774));
#1633=CARTESIAN_POINT('',(9.1484720342428,7.,-42.8725490196078));
#1634=CARTESIAN_POINT('',(19.7295281302901,6.,-21.9316146180826));
#1635=CARTESIAN_POINT('',(20.8336725351827,5.99999999999999,-20.5077861995791));
#1636=CARTESIAN_POINT('',(22.8806049889936,6.30589141982308,-17.5566423901296));
#1637=CARTESIAN_POINT('',(24.6330449321072,6.7678529338076,-14.4444714457641));
#1638=CARTESIAN_POINT('',(25.4372149244799,7.,-12.8529411764707));
#1639=CARTESIAN_POINT('',(19.0607305665514,5.,-21.1881700547577));
#1640=CARTESIAN_POINT('',(19.0607305665514,5.99999999999999,-21.1881700547577));
#1641=CARTESIAN_POINT('',(19.7295281302901,6.,-21.9316146180826));
#1642=CARTESIAN_POINT('',(19.7318761752872,5.00000000587886,-20.5844121282366));
#1643=CARTESIAN_POINT('',(19.6406653843734,5.85388050806842,-20.6664647260515));
#1644=CARTESIAN_POINT('',(20.2732944938038,6.,-21.230411045223));
#1645=CARTESIAN_POINT('',(21.0014782400575,5.16218551522641,-19.3279303876605));
#1646=CARTESIAN_POINT('',(20.8601920233253,5.76891010945867,-19.4813078924331));
#1647=CARTESIAN_POINT('',(21.3257566915308,6.08109275894933,-19.797616603799));
#1648=CARTESIAN_POINT('',(23.2788528337868,5.82968308398193,-16.6063505316443));
#1649=CARTESIAN_POINT('',(23.1392896808723,6.09678206785642,-16.7965866280268));
#1650=CARTESIAN_POINT('',(23.3110715158295,6.41484154118921,-16.7925945347357));
#1651=CARTESIAN_POINT('',(24.654857121086,6.53245011290033,-14.4013030120641));
#1652=CARTESIAN_POINT('',(24.641131542189,6.64933758318967,-14.4284672614523));
#1653=CARTESIAN_POINT('',(24.6274059700868,6.76622505645057,-14.4556314975294));
#1654=CARTESIAN_POINT('',(25.4372149244799,7.,-12.8529411764707));
#1655=CARTESIAN_POINT('',(25.4372149244799,7.,-12.8529411764707));
#1656=CARTESIAN_POINT('',(25.4372149244799,7.,-12.8529411764707));
#1657=CARTESIAN_POINT('',(19.7295281302901,5.,-21.9316146180826));
#1658=CARTESIAN_POINT('',(3.06151588455594E-16,5.,0.));
#1659=CARTESIAN_POINT('',(11.25,5.91606450661102,-26.8363093587773));
#1660=CARTESIAN_POINT('',(11.25,5.72935753979025,-26.3738607190619));
#1661=CARTESIAN_POINT('',(11.5224398363964,5.34927536385923,-26.0691625905455));
#1662=CARTESIAN_POINT('',(11.8347457627119,5.,-25.9266039567849));
#1663=CARTESIAN_POINT('',(12.25,2.36273548403796E-31,-26.8363093587773));
#1664=CARTESIAN_POINT('',(12.25,5.,-26.8363093587773));
#1665=CARTESIAN_POINT('',(11.25,5.,-26.8363093587773));
#1666=CARTESIAN_POINT('',(11.25,5.,-26.1935235058725));
#1667=CARTESIAN_POINT('',(11.8347457627119,5.,-25.9266039567849));
#1668=CARTESIAN_POINT('',(11.25,4.72504744964529,-26.8363093707902));
#1669=CARTESIAN_POINT('',(11.2499999791097,4.64437271670743,-26.1935235147155));
#1670=CARTESIAN_POINT('',(11.8347457372995,4.45009489929152,-25.9266039683849));
#1671=CARTESIAN_POINT('',(11.0113308662744,4.1994487979662,-27.0591184697074));
#1672=CARTESIAN_POINT('',(10.8276873695113,3.95303196999462,-26.3741660463695));
#1673=CARTESIAN_POINT('',(11.3735884659912,3.39889758696762,-26.1418602159768));
#1674=CARTESIAN_POINT('',(10.5073217025024,4.00000000000001,-27.4713246111535));
#1675=CARTESIAN_POINT('',(10.1618902324482,3.91441748761656,-26.6282271951352));
#1676=CARTESIAN_POINT('',(10.3997402391209,3.0000000179301,-26.5400932694485));
#1677=CARTESIAN_POINT('',(10.25,4.,-27.6620227026152));
#1678=CARTESIAN_POINT('',(9.90254237288136,4.,-26.7243270177808));
#1679=CARTESIAN_POINT('',(9.90254237288136,3.,-26.7243270177808));
#1680=CARTESIAN_POINT('',(10.25,3.,-27.6620227026152));
#1681=CARTESIAN_POINT('',(1.83690953073357E-16,3.,0.));
#1682=CARTESIAN_POINT('',(-10.25,3.,-27.6620227026152));
#1683=CARTESIAN_POINT('',(-10.25,4.,-27.6620227026152));
#1684=CARTESIAN_POINT('',(-9.90254237288136,4.,-26.7243270177808));
#1685=CARTESIAN_POINT('',(-9.90254237288136,3.,-26.7243270177808));
#1686=CARTESIAN_POINT('',(-10.5076508104764,4.,-27.4710807128465));
#1687=CARTESIAN_POINT('',(-10.1622077222187,3.9143127208092,-26.6281095511517));
#1688=CARTESIAN_POINT('',(-10.400376142743,3.0000000211031,-26.5398576390973));
#1689=CARTESIAN_POINT('',(-11.0104517870317,4.19899783423281,-27.0598540591933));
#1690=CARTESIAN_POINT('',(-10.8265323929354,3.95269071143061,-26.3746266553682));
#1691=CARTESIAN_POINT('',(-11.3718898990028,3.39799565791385,-26.1425708701153));
#1692=CARTESIAN_POINT('',(-11.25,4.72456874890918,-26.8363093641172));
#1693=CARTESIAN_POINT('',(-11.2499999906968,4.64375355924887,-26.1935235098176));
#1694=CARTESIAN_POINT('',(-11.8347457514128,4.44913749781908,-25.9266039619426));
#1695=CARTESIAN_POINT('',(-11.25,5.,-26.8363093587773));
#1696=CARTESIAN_POINT('',(-11.25,5.,-26.1935235058725));
#1697=CARTESIAN_POINT('',(-11.8347457627119,5.,-25.9266039567849));
#1698=CARTESIAN_POINT('',(-12.25,5.,-26.8363093587773));
#1699=CARTESIAN_POINT('',(-12.25,0.,-26.8363093587773));
#1700=CARTESIAN_POINT('',(-11.25,5.91606450661102,-26.8363093587773));
#1701=CARTESIAN_POINT('',(-11.25,5.72935753979025,-26.3738607190619));
#1702=CARTESIAN_POINT('',(-11.5224398363513,5.34927536381047,-26.0691625905661));
#1703=CARTESIAN_POINT('',(-11.8347457627119,5.,-25.9266039567849));
#1704=CARTESIAN_POINT('',(3.06151588455594E-16,5.,0.));
#1705=CARTESIAN_POINT('',(-19.7295281302901,5.,-21.9316146180826));
#1706=CARTESIAN_POINT('',(-19.7295281302901,6.,-21.9316146180826));
#1707=CARTESIAN_POINT('',(-19.0607305665514,6.,-21.1881700547577));
#1708=CARTESIAN_POINT('',(-19.0607305665514,5.,-21.1881700547577));
#1709=CARTESIAN_POINT('',(-20.2732944938102,6.,-21.230411045223));
#1710=CARTESIAN_POINT('',(-19.6406653843819,5.8538805080663,-20.6664647260515));
#1711=CARTESIAN_POINT('',(-19.7318761752908,5.00000000587765,-20.5844121282334));
#1712=CARTESIAN_POINT('',(-21.3257566915277,6.08109275894992,-19.7976166037992));
#1713=CARTESIAN_POINT('',(-20.8601920233248,5.76891010946039,-19.4813078924347));
#1714=CARTESIAN_POINT('',(-21.0014782400558,5.16218551522807,-19.327930387662));
#1715=CARTESIAN_POINT('',(-23.3110715158318,6.41484154118629,-16.7925945347345));
#1716=CARTESIAN_POINT('',(-23.1392896808613,6.09678206785221,-16.7965866280196));
#1717=CARTESIAN_POINT('',(-23.278852833788,5.82968308397613,-16.6063505316431));
#1718=CARTESIAN_POINT('',(-24.6274059700843,6.76622505646344,-14.4556314975343));
#1719=CARTESIAN_POINT('',(-24.6411315422438,6.64933758320576,-14.4284672614828));
#1720=CARTESIAN_POINT('',(-24.6548571210855,6.53245011292447,-14.4013030120651));
#1721=CARTESIAN_POINT('',(-25.43721492448,7.,-12.8529411764706));
#1722=CARTESIAN_POINT('',(-25.43721492448,7.,-12.8529411764706));
#1723=CARTESIAN_POINT('',(-25.43721492448,7.,-12.8529411764706));
#1724=CARTESIAN_POINT('',(-19.7295281302901,6.,-21.9316146180826));
#1725=CARTESIAN_POINT('',(-20.8336725351827,6.,-20.507786199579));
#1726=CARTESIAN_POINT('',(-22.8806049889936,6.3058914198232,-17.5566423901295));
#1727=CARTESIAN_POINT('',(-24.6330449321073,6.76785293380739,-14.4444714457641));
#1728=CARTESIAN_POINT('',(-25.43721492448,7.,-12.8529411764706));
#1729=CARTESIAN_POINT('',(-9.14847203424281,7.,-42.8725490196078));
#1730=CARTESIAN_POINT('',(-9.14847203424277,7.,42.8725490196078));
#1731=CARTESIAN_POINT('',(-19.72952813029,6.,21.9316146180826));
#1732=CARTESIAN_POINT('',(-20.8336725351827,6.,20.5077861995791));
#1733=CARTESIAN_POINT('',(-22.8806049889951,6.30589141979761,17.5566423901266));
#1734=CARTESIAN_POINT('',(-24.6330449321043,6.7678529338586,14.44447144577));
#1735=CARTESIAN_POINT('',(-25.43721492448,7.,12.8529411764706));
#1736=CARTESIAN_POINT('',(-19.0607305665514,5.,21.1881700547578));
#1737=CARTESIAN_POINT('',(-19.0607305665514,6.,21.1881700547578));
#1738=CARTESIAN_POINT('',(-19.72952813029,6.,21.9316146180826));
#1739=CARTESIAN_POINT('',(-19.7318761752887,5.00000000587765,20.5844121282353));
#1740=CARTESIAN_POINT('',(-19.6406653843773,5.85388050806379,20.6664647260471));
#1741=CARTESIAN_POINT('',(-20.2732944938037,6.,21.2304110452181));
#1742=CARTESIAN_POINT('',(-21.0014782400564,5.16218551523088,19.3279303876618));
#1743=CARTESIAN_POINT('',(-20.8601920233252,5.76891010946396,19.481307892436));
#1744=CARTESIAN_POINT('',(-21.3257566915305,6.08109275895134,19.7976166038018));
#1745=CARTESIAN_POINT('',(-23.2788528337891,5.82968308396208,16.6063505316404));
#1746=CARTESIAN_POINT('',(-23.139289680868,6.09678206784031,16.7965866280201));
#1747=CARTESIAN_POINT('',(-23.311071515831,6.41484154117918,16.7925945347314));
#1748=CARTESIAN_POINT('',(-24.6548571210783,6.53245011298643,14.4013030120794));
#1749=CARTESIAN_POINT('',(-24.6411315422084,6.64933758325405,14.4284672614795));
#1750=CARTESIAN_POINT('',(-24.6274059700803,6.76622505649483,14.4556314975421));
#1751=CARTESIAN_POINT('',(-25.43721492448,7.,12.8529411764706));
#1752=CARTESIAN_POINT('',(-25.43721492448,7.,12.8529411764706));
#1753=CARTESIAN_POINT('',(-25.43721492448,7.,12.8529411764706));
#1754=CARTESIAN_POINT('',(-19.72952813029,5.,21.9316146180826));
#1755=CARTESIAN_POINT('',(3.06151588455594E-16,5.,0.));
#1756=CARTESIAN_POINT('',(-11.25,5.91606450661102,26.8363093587773));
#1757=CARTESIAN_POINT('',(-11.25,5.72935753979025,26.3738607190619));
#1758=CARTESIAN_POINT('',(-11.5224398363583,5.34927536381805,26.0691625905629));
#1759=CARTESIAN_POINT('',(-11.8347457627119,5.,25.9266039567849));
#1760=CARTESIAN_POINT('',(-12.25,-2.36273548403796E-31,26.8363093587773));
#1761=CARTESIAN_POINT('',(-12.25,5.,26.8363093587773));
#1762=CARTESIAN_POINT('',(-11.25,5.,26.8363093587773));
#1763=CARTESIAN_POINT('',(-11.25,5.,26.1935235058725));
#1764=CARTESIAN_POINT('',(-11.8347457627119,5.,25.9266039567849));
#1765=CARTESIAN_POINT('',(-11.25,4.72504744964457,26.8363093707912));
#1766=CARTESIAN_POINT('',(-11.2499999791134,4.64437271670728,26.1935235147244));
#1767=CARTESIAN_POINT('',(-11.8347457372975,4.45009489929009,25.9266039683858));
#1768=CARTESIAN_POINT('',(-11.0113308662742,4.19944879796656,27.0591184697055));
#1769=CARTESIAN_POINT('',(-10.82768736951,3.95303196999406,26.3741660463641));
#1770=CARTESIAN_POINT('',(-11.3735884659933,3.39889758696834,26.1418602159759));
#1771=CARTESIAN_POINT('',(-10.5073217025029,4.,27.4713246111563));
#1772=CARTESIAN_POINT('',(-10.1618902324457,3.91441748761656,26.6282271951376));
#1773=CARTESIAN_POINT('',(-10.3997402391187,3.0000000179301,26.5400932694494));
#1774=CARTESIAN_POINT('',(-10.25,4.,27.6620227026152));
#1775=CARTESIAN_POINT('',(-9.90254237288136,4.,26.7243270177808));
#1776=CARTESIAN_POINT('',(-9.90254237288137,3.,26.7243270177808));
#1777=CARTESIAN_POINT('',(-10.25,3.,27.6620227026152));
#1778=CARTESIAN_POINT('',(1.83690953073357E-16,3.,0.));
#1779=CARTESIAN_POINT('',(10.25,3.,27.6620227026152));
#1780=CARTESIAN_POINT('',(10.25,4.,27.6620227026152));
#1781=CARTESIAN_POINT('',(9.90254237288135,4.,26.7243270177808));
#1782=CARTESIAN_POINT('',(9.90254237288135,3.,26.7243270177808));
#1783=CARTESIAN_POINT('',(10.5076508104759,4.,27.4710807128427));
#1784=CARTESIAN_POINT('',(10.1622077222177,3.91431272081115,26.6281095511441));
#1785=CARTESIAN_POINT('',(10.4003761427438,3.0000000211031,26.539857639097));
#1786=CARTESIAN_POINT('',(11.010451787032,4.19899783423233,27.0598540591952));
#1787=CARTESIAN_POINT('',(10.8265323929359,3.95269071142939,26.3746266553753));
#1788=CARTESIAN_POINT('',(11.3718898990026,3.39799565791349,26.1425708701154));
#1789=CARTESIAN_POINT('',(11.25,4.72456874891014,26.8363093641172));
#1790=CARTESIAN_POINT('',(11.249999990696,4.64375355924975,26.1935235098109));
#1791=CARTESIAN_POINT('',(11.8347457514124,4.44913749781979,25.9266039619428));
#1792=CARTESIAN_POINT('',(11.25,5.,26.8363093587773));
#1793=CARTESIAN_POINT('',(11.25,5.,26.1935235058725));
#1794=CARTESIAN_POINT('',(11.8347457627119,5.,25.9266039567849));
#1795=CARTESIAN_POINT('',(12.25,5.,26.8363093587773));
#1796=CARTESIAN_POINT('',(12.25,-7.08820645211388E-31,26.8363093587773));
#1797=CARTESIAN_POINT('',(11.25,5.91606450661102,26.8363093587773));
#1798=CARTESIAN_POINT('',(11.25,5.72935753979025,26.3738607190619));
#1799=CARTESIAN_POINT('',(11.5224398363443,5.34927536380284,26.0691625905693));
#1800=CARTESIAN_POINT('',(11.8347457627119,5.,25.9266039567849));
#1801=CARTESIAN_POINT('',(3.06151588455594E-16,5.,0.));
#1802=CARTESIAN_POINT('',(19.72952813029,5.,21.9316146180826));
#1803=CARTESIAN_POINT('',(19.72952813029,6.,21.9316146180826));
#1804=CARTESIAN_POINT('',(19.0607305665514,6.,21.1881700547578));
#1805=CARTESIAN_POINT('',(19.0607305665514,5.,21.1881700547578));
#1806=CARTESIAN_POINT('',(20.2732944938086,6.,21.2304110452181));
#1807=CARTESIAN_POINT('',(19.6406653843829,5.85388050806631,20.6664647260471));
#1808=CARTESIAN_POINT('',(19.7318761752855,5.00000000587886,20.5844121282381));
#1809=CARTESIAN_POINT('',(21.3257566915289,6.08109275895025,19.7976166038006));
#1810=CARTESIAN_POINT('',(20.8601920233256,5.76891010946121,19.4813078924358));
#1811=CARTESIAN_POINT('',(21.0014782400583,5.16218551522843,19.3279303876597));
#1812=CARTESIAN_POINT('',(23.3110715158295,6.41484154118465,16.792594534737));
#1813=CARTESIAN_POINT('',(23.1392896808577,6.09678206784838,16.7965866280206));
#1814=CARTESIAN_POINT('',(23.2788528337862,5.8296830839719,16.606350531645));
#1815=CARTESIAN_POINT('',(24.6274059700928,6.76622505647068,14.4556314975175));
#1816=CARTESIAN_POINT('',(24.6411315422567,6.64933758322185,14.4284672614779));
#1817=CARTESIAN_POINT('',(24.6548571210869,6.53245011294458,14.4013030120625));
#1818=CARTESIAN_POINT('',(25.43721492448,7.,12.8529411764706));
#1819=CARTESIAN_POINT('',(25.43721492448,7.,12.8529411764706));
#1820=CARTESIAN_POINT('',(25.43721492448,7.,12.8529411764706));
#1821=CARTESIAN_POINT('',(19.72952813029,6.,21.9316146180826));
#1822=CARTESIAN_POINT('',(20.8336725351827,6.,20.507786199579));
#1823=CARTESIAN_POINT('',(22.8806049889942,6.30589141981372,17.5566423901284));
#1824=CARTESIAN_POINT('',(24.6330449321062,6.76785293382635,14.4444714457662));
#1825=CARTESIAN_POINT('',(25.43721492448,7.,12.8529411764706));
#1826=CARTESIAN_POINT('',(9.1484720342428,7.,42.8725490196078));
#1827=CARTESIAN_POINT('',(0.,-2.5,-88.3342843518117));
#1828=CARTESIAN_POINT('',(-1.53075794227797E-16,-2.5,33.6));
#1829=CARTESIAN_POINT('',(-1.53075794227797E-16,-2.5,31.6));
#1830=CARTESIAN_POINT('',(-1.53075794227797E-16,-5.,31.6));
#1831=CARTESIAN_POINT('',(-1.53075794227797E-16,-2.5,28.6));
#1832=CARTESIAN_POINT('',(-1.53075794227797E-16,-5.,28.6));
#1833=CARTESIAN_POINT('',(-6.97887701365212E-49,-1.13977475159571E-32,31.6));
#1834=CARTESIAN_POINT('',(-1.53075794227797E-16,-2.5,19.9749843554382));
#1835=CARTESIAN_POINT('',(-1.53075794227797E-16,-2.5,19.9749843554382));
#1836=CARTESIAN_POINT('',(-1.53075794227797E-16,-3.95,19.9749843554382));
#1837=CARTESIAN_POINT('',(-1.53075794227797E-16,-2.5,33.6));
#1838=CARTESIAN_POINT('',(-1.53075794227797E-16,-2.5,28.6));
#1839=CARTESIAN_POINT('',(-1.53075794227797E-16,-3.95,28.6));
#1840=CARTESIAN_POINT('',(-6.42918335756748E-17,-1.05,28.6));
#1841=MECHANICAL_DESIGN_GEOMETRIC_PRESENTATION_REPRESENTATION('',(#934,
#935),#1842);
#1842=(
GEOMETRIC_REPRESENTATION_CONTEXT(3)
GLOBAL_UNCERTAINTY_ASSIGNED_CONTEXT((#1843))
GLOBAL_UNIT_ASSIGNED_CONTEXT((#1846,#1845,#1844))
REPRESENTATION_CONTEXT('FL\X2\94F8902051F87F185EA783F15F62\X0\',
'TOP_LEVEL_ASSEMBLY_PART')
);
#1843=UNCERTAINTY_MEASURE_WITH_UNIT(LENGTH_MEASURE(0.005),#1846,
'DISTANCE_ACCURACY_VALUE','Maximum Tolerance applied to model');
#1844=(
NAMED_UNIT(*)
SI_UNIT($,.STERADIAN.)
SOLID_ANGLE_UNIT()
);
#1845=(
NAMED_UNIT(*)
PLANE_ANGLE_UNIT()
SI_UNIT($,.RADIAN.)
);
#1846=(
LENGTH_UNIT()
NAMED_UNIT(*)
SI_UNIT(.MILLI.,.METRE.)
);
#1847=PRODUCT_DEFINITION_SHAPE('','',#1848);
#1848=PRODUCT_DEFINITION('','',#1850,#1849);
#1849=PRODUCT_DEFINITION_CONTEXT('',#1856,'design');
#1850=PRODUCT_DEFINITION_FORMATION_WITH_SPECIFIED_SOURCE('','',#1852,
 .NOT_KNOWN.);
#1851=PRODUCT_RELATED_PRODUCT_CATEGORY('','',(#1852));
#1852=PRODUCT('FL\X2\94F8902051F87F185EA783F15F62\X0\',
'FL\X2\94F8902051F87F185EA783F15F62\X0\','FL\X2\94F8902051F87F185EA783F15F62\X0\',
(#1854));
#1853=PRODUCT_CATEGORY('','');
#1854=PRODUCT_CONTEXT('',#1856,'mechanical');
#1855=APPLICATION_PROTOCOL_DEFINITION('international standard',
'automotive_design',2010,#1856);
#1856=APPLICATION_CONTEXT(
'core data for automotive mechanical design processes');
ENDSEC;
END-ISO-10303-21;
