ISO-10303-21;
HEADER;
/* Generated by software containing HOOPS Exchange Step
 * from HOOPS Exchange, Inc. (www.tiangong.cloud) 
 */

FILE_DESCRIPTION(
/* description */ ('Unknown'),
/* implementation_level */ '2;1');

FILE_NAME(
/* name */ '\X2\570667F15B548C035FC374038F74627F\X0\10000\X2\578B\X0\',

/* time_stamp */ '2025-10-13T02:54:14+08:00',
/* author */ ('Unknown'),
/* organization */ ('Unknown'),
/* preprocessor_version */ 'ST-DEVELOPER v19.4',
/* originating_system */ 'TianGong',
/* authorisation */ 'Unknown');

FILE_SCHEMA (('AUTOMOTIVE_DESIGN {1 0 10303 214 3 1 1}'));
ENDSEC;

DATA;
#10=PROPERTY_DEFINITION_REPRESENTATION(#14,#12);
#11=PROPERTY_DEFINITION_REPRESENTATION(#15,#13);
#12=REPRESENTATION('',(#16),#2038);
#13=REPRESENTATION('',(#17),#2038);
#14=PROPERTY_DEFINITION('pmi validation property','',#2043);
#15=PROPERTY_DEFINITION('pmi validation property','',#2043);
#16=VALUE_REPRESENTATION_ITEM('number of annotations',COUNT_MEASURE(0.));
#17=VALUE_REPRESENTATION_ITEM('number of views',COUNT_MEASURE(0.));
#18=TOROIDAL_SURFACE('',#1548,121.134568366387,8.56313979495829);
#19=TOROIDAL_SURFACE('',#1552,121.134568366387,8.56313979495829);
#20=TOROIDAL_SURFACE('',#1555,102.1,2.1);
#21=TOROIDAL_SURFACE('',#1556,102.1,2.1);
#22=TOROIDAL_SURFACE('',#1567,137.9,2.1);
#23=TOROIDAL_SURFACE('',#1568,137.9,2.1);
#24=CYLINDRICAL_SURFACE('',#1540,100.);
#25=CYLINDRICAL_SURFACE('',#1546,114.285714285714);
#26=CYLINDRICAL_SURFACE('',#1550,114.285714285714);
#27=CYLINDRICAL_SURFACE('',#1554,114.285714285714);
#28=CYLINDRICAL_SURFACE('',#1562,140.);
#29=ORIENTED_EDGE('',*,*,#61,.T.);
#30=ORIENTED_EDGE('',*,*,#62,.T.);
#31=ORIENTED_EDGE('',*,*,#63,.T.);
#32=ORIENTED_EDGE('',*,*,#64,.T.);
#33=ORIENTED_EDGE('',*,*,#65,.T.);
#34=ORIENTED_EDGE('',*,*,#66,.F.);
#35=ORIENTED_EDGE('',*,*,#67,.F.);
#36=ORIENTED_EDGE('',*,*,#66,.T.);
#37=ORIENTED_EDGE('',*,*,#68,.F.);
#38=ORIENTED_EDGE('',*,*,#67,.T.);
#39=ORIENTED_EDGE('',*,*,#69,.F.);
#40=ORIENTED_EDGE('',*,*,#68,.T.);
#41=ORIENTED_EDGE('',*,*,#70,.F.);
#42=ORIENTED_EDGE('',*,*,#69,.T.);
#43=ORIENTED_EDGE('',*,*,#62,.F.);
#44=ORIENTED_EDGE('',*,*,#70,.T.);
#45=ORIENTED_EDGE('',*,*,#64,.F.);
#46=ORIENTED_EDGE('',*,*,#65,.F.);
#47=ORIENTED_EDGE('',*,*,#61,.F.);
#48=ORIENTED_EDGE('',*,*,#63,.F.);
#49=ORIENTED_EDGE('',*,*,#71,.F.);
#50=ORIENTED_EDGE('',*,*,#72,.T.);
#51=ORIENTED_EDGE('',*,*,#73,.T.);
#52=ORIENTED_EDGE('',*,*,#71,.T.);
#53=ORIENTED_EDGE('',*,*,#74,.T.);
#54=ORIENTED_EDGE('',*,*,#75,.T.);
#55=ORIENTED_EDGE('',*,*,#76,.T.);
#56=ORIENTED_EDGE('',*,*,#72,.F.);
#57=ORIENTED_EDGE('',*,*,#75,.F.);
#58=ORIENTED_EDGE('',*,*,#76,.F.);
#59=ORIENTED_EDGE('',*,*,#73,.F.);
#60=ORIENTED_EDGE('',*,*,#74,.F.);
#61=EDGE_CURVE('',#218,#218,#77,.T.);
#62=EDGE_CURVE('',#219,#219,#78,.T.);
#63=EDGE_CURVE('',#220,#220,#79,.F.);
#64=EDGE_CURVE('',#221,#221,#80,.F.);
#65=EDGE_CURVE('',#222,#222,#81,.T.);
#66=EDGE_CURVE('',#223,#223,#82,.T.);
#67=EDGE_CURVE('',#224,#224,#83,.T.);
#68=EDGE_CURVE('',#225,#225,#84,.T.);
#69=EDGE_CURVE('',#226,#226,#85,.T.);
#70=EDGE_CURVE('',#227,#227,#86,.T.);
#71=EDGE_CURVE('',#228,#228,#87,.T.);
#72=EDGE_CURVE('',#229,#229,#88,.T.);
#73=EDGE_CURVE('',#230,#230,#89,.F.);
#74=EDGE_CURVE('',#231,#231,#90,.T.);
#75=EDGE_CURVE('',#232,#232,#91,.T.);
#76=EDGE_CURVE('',#233,#233,#92,.F.);
#77=CIRCLE('',#1538,102.1);
#78=CIRCLE('',#1539,114.285714285714);
#79=CIRCLE('',#1541,100.);
#80=CIRCLE('',#1542,100.);
#81=CIRCLE('',#1544,102.1);
#82=CIRCLE('',#1545,114.285714285714);
#83=CIRCLE('',#1547,114.285714285714);
#84=CIRCLE('',#1549,114.285714285714);
#85=CIRCLE('',#1551,114.285714285714);
#86=CIRCLE('',#1553,114.285714285714);
#87=CIRCLE('',#1558,126.491106406735);
#88=CIRCLE('',#1559,126.491106406735);
#89=CIRCLE('',#1561,137.9);
#90=CIRCLE('',#1563,140.);
#91=CIRCLE('',#1564,140.);
#92=CIRCLE('',#1566,137.9);
#93=EDGE_LOOP('',(#29));
#94=EDGE_LOOP('',(#30));
#95=EDGE_LOOP('',(#31));
#96=EDGE_LOOP('',(#32));
#97=EDGE_LOOP('',(#33));
#98=EDGE_LOOP('',(#34));
#99=EDGE_LOOP('',(#35));
#100=EDGE_LOOP('',(#36));
#101=EDGE_LOOP('',(#37));
#102=EDGE_LOOP('',(#38));
#103=EDGE_LOOP('',(#39));
#104=EDGE_LOOP('',(#40));
#105=EDGE_LOOP('',(#41));
#106=EDGE_LOOP('',(#42));
#107=EDGE_LOOP('',(#43));
#108=EDGE_LOOP('',(#44));
#109=EDGE_LOOP('',(#45));
#110=EDGE_LOOP('',(#46));
#111=EDGE_LOOP('',(#47));
#112=EDGE_LOOP('',(#48));
#113=EDGE_LOOP('',(#49));
#114=EDGE_LOOP('',(#50));
#115=EDGE_LOOP('',(#51));
#116=EDGE_LOOP('',(#52));
#117=EDGE_LOOP('',(#53));
#118=EDGE_LOOP('',(#54));
#119=EDGE_LOOP('',(#55));
#120=EDGE_LOOP('',(#56));
#121=EDGE_LOOP('',(#57));
#122=EDGE_LOOP('',(#58));
#123=EDGE_LOOP('',(#59));
#124=EDGE_LOOP('',(#60));
#125=PLANE('',#1537);
#126=PLANE('',#1543);
#127=PLANE('',#1560);
#128=PLANE('',#1565);
#129=SHAPE_REPRESENTATION_RELATIONSHIP('','',#1448,#130);
#130=ADVANCED_BREP_SHAPE_REPRESENTATION('',(#1357,#1358,#1359,#1360,#1361,
#1362,#1363,#1364,#1365,#1366,#1367,#1368,#1369,#1370,#1371,#1372,#1373,
#1374,#1375,#1376,#1377,#1378,#1379,#1380,#1381,#1382,#1383,#1384,#1385,
#1386,#1387,#1388,#1389,#1390,#1391,#1392,#1393,#1394,#1395,#1396,#1397,
#1398,#1399,#1400,#1401,#1402,#1403,#1404,#1405,#1406,#1407,#1408,#1409,
#1410,#1411,#1412,#1413,#1414,#1415,#1416,#1417,#1418,#1419,#1420,#1421,
#1422,#1423,#1424,#1425,#1426,#1427,#1428,#1429,#1430,#1431,#1432,#1433,
#1434,#1435,#1436,#1437,#1438,#1439,#1440,#1441,#1442,#1443,#1444,#1445,
#1446),#2038);
#131=VERTEX_POINT('',#1814);
#132=VERTEX_POINT('',#1816);
#133=VERTEX_POINT('',#1818);
#134=VERTEX_POINT('',#1820);
#135=VERTEX_POINT('',#1822);
#136=VERTEX_POINT('',#1824);
#137=VERTEX_POINT('',#1826);
#138=VERTEX_POINT('',#1828);
#139=VERTEX_POINT('',#1830);
#140=VERTEX_POINT('',#1832);
#141=VERTEX_POINT('',#1834);
#142=VERTEX_POINT('',#1836);
#143=VERTEX_POINT('',#1838);
#144=VERTEX_POINT('',#1840);
#145=VERTEX_POINT('',#1842);
#146=VERTEX_POINT('',#1844);
#147=VERTEX_POINT('',#1846);
#148=VERTEX_POINT('',#1848);
#149=VERTEX_POINT('',#1850);
#150=VERTEX_POINT('',#1852);
#151=VERTEX_POINT('',#1854);
#152=VERTEX_POINT('',#1856);
#153=VERTEX_POINT('',#1858);
#154=VERTEX_POINT('',#1860);
#155=VERTEX_POINT('',#1862);
#156=VERTEX_POINT('',#1864);
#157=VERTEX_POINT('',#1866);
#158=VERTEX_POINT('',#1868);
#159=VERTEX_POINT('',#1870);
#160=VERTEX_POINT('',#1872);
#161=VERTEX_POINT('',#1874);
#162=VERTEX_POINT('',#1876);
#163=VERTEX_POINT('',#1878);
#164=VERTEX_POINT('',#1880);
#165=VERTEX_POINT('',#1882);
#166=VERTEX_POINT('',#1884);
#167=VERTEX_POINT('',#1886);
#168=VERTEX_POINT('',#1888);
#169=VERTEX_POINT('',#1890);
#170=VERTEX_POINT('',#1892);
#171=VERTEX_POINT('',#1894);
#172=VERTEX_POINT('',#1896);
#173=VERTEX_POINT('',#1898);
#174=VERTEX_POINT('',#1900);
#175=VERTEX_POINT('',#1902);
#176=VERTEX_POINT('',#1904);
#177=VERTEX_POINT('',#1906);
#178=VERTEX_POINT('',#1908);
#179=VERTEX_POINT('',#1910);
#180=VERTEX_POINT('',#1912);
#181=VERTEX_POINT('',#1914);
#182=VERTEX_POINT('',#1916);
#183=VERTEX_POINT('',#1918);
#184=VERTEX_POINT('',#1920);
#185=VERTEX_POINT('',#1922);
#186=VERTEX_POINT('',#1924);
#187=VERTEX_POINT('',#1926);
#188=VERTEX_POINT('',#1928);
#189=VERTEX_POINT('',#1930);
#190=VERTEX_POINT('',#1932);
#191=VERTEX_POINT('',#1934);
#192=VERTEX_POINT('',#1936);
#193=VERTEX_POINT('',#1938);
#194=VERTEX_POINT('',#1940);
#195=VERTEX_POINT('',#1942);
#196=VERTEX_POINT('',#1944);
#197=VERTEX_POINT('',#1946);
#198=VERTEX_POINT('',#1948);
#199=VERTEX_POINT('',#1950);
#200=VERTEX_POINT('',#1952);
#201=VERTEX_POINT('',#1954);
#202=VERTEX_POINT('',#1956);
#203=VERTEX_POINT('',#1958);
#204=VERTEX_POINT('',#1960);
#205=VERTEX_POINT('',#1962);
#206=VERTEX_POINT('',#1964);
#207=VERTEX_POINT('',#1966);
#208=VERTEX_POINT('',#1968);
#209=VERTEX_POINT('',#1970);
#210=VERTEX_POINT('',#1972);
#211=VERTEX_POINT('',#1974);
#212=VERTEX_POINT('',#1976);
#213=VERTEX_POINT('',#1978);
#214=VERTEX_POINT('',#1980);
#215=VERTEX_POINT('',#1982);
#216=VERTEX_POINT('',#1984);
#217=VERTEX_POINT('',#1986);
#218=VERTEX_POINT('',#1989);
#219=VERTEX_POINT('',#1991);
#220=VERTEX_POINT('',#1994);
#221=VERTEX_POINT('',#1996);
#222=VERTEX_POINT('',#1999);
#223=VERTEX_POINT('',#2001);
#224=VERTEX_POINT('',#2004);
#225=VERTEX_POINT('',#2007);
#226=VERTEX_POINT('',#2010);
#227=VERTEX_POINT('',#2013);
#228=VERTEX_POINT('',#2019);
#229=VERTEX_POINT('',#2021);
#230=VERTEX_POINT('',#2024);
#231=VERTEX_POINT('',#2027);
#232=VERTEX_POINT('',#2029);
#233=VERTEX_POINT('',#2032);
#234=VERTEX_POINT('',#2036);
#235=VERTEX_LOOP('',#131);
#236=VERTEX_LOOP('',#132);
#237=VERTEX_LOOP('',#133);
#238=VERTEX_LOOP('',#134);
#239=VERTEX_LOOP('',#135);
#240=VERTEX_LOOP('',#136);
#241=VERTEX_LOOP('',#137);
#242=VERTEX_LOOP('',#138);
#243=VERTEX_LOOP('',#139);
#244=VERTEX_LOOP('',#140);
#245=VERTEX_LOOP('',#141);
#246=VERTEX_LOOP('',#142);
#247=VERTEX_LOOP('',#143);
#248=VERTEX_LOOP('',#144);
#249=VERTEX_LOOP('',#145);
#250=VERTEX_LOOP('',#146);
#251=VERTEX_LOOP('',#147);
#252=VERTEX_LOOP('',#148);
#253=VERTEX_LOOP('',#149);
#254=VERTEX_LOOP('',#150);
#255=VERTEX_LOOP('',#151);
#256=VERTEX_LOOP('',#152);
#257=VERTEX_LOOP('',#153);
#258=VERTEX_LOOP('',#154);
#259=VERTEX_LOOP('',#155);
#260=VERTEX_LOOP('',#156);
#261=VERTEX_LOOP('',#157);
#262=VERTEX_LOOP('',#158);
#263=VERTEX_LOOP('',#159);
#264=VERTEX_LOOP('',#160);
#265=VERTEX_LOOP('',#161);
#266=VERTEX_LOOP('',#162);
#267=VERTEX_LOOP('',#163);
#268=VERTEX_LOOP('',#164);
#269=VERTEX_LOOP('',#165);
#270=VERTEX_LOOP('',#166);
#271=VERTEX_LOOP('',#167);
#272=VERTEX_LOOP('',#168);
#273=VERTEX_LOOP('',#169);
#274=VERTEX_LOOP('',#170);
#275=VERTEX_LOOP('',#171);
#276=VERTEX_LOOP('',#172);
#277=VERTEX_LOOP('',#173);
#278=VERTEX_LOOP('',#174);
#279=VERTEX_LOOP('',#175);
#280=VERTEX_LOOP('',#176);
#281=VERTEX_LOOP('',#177);
#282=VERTEX_LOOP('',#178);
#283=VERTEX_LOOP('',#179);
#284=VERTEX_LOOP('',#180);
#285=VERTEX_LOOP('',#181);
#286=VERTEX_LOOP('',#182);
#287=VERTEX_LOOP('',#183);
#288=VERTEX_LOOP('',#184);
#289=VERTEX_LOOP('',#185);
#290=VERTEX_LOOP('',#186);
#291=VERTEX_LOOP('',#187);
#292=VERTEX_LOOP('',#188);
#293=VERTEX_LOOP('',#189);
#294=VERTEX_LOOP('',#190);
#295=VERTEX_LOOP('',#191);
#296=VERTEX_LOOP('',#192);
#297=VERTEX_LOOP('',#193);
#298=VERTEX_LOOP('',#194);
#299=VERTEX_LOOP('',#195);
#300=VERTEX_LOOP('',#196);
#301=VERTEX_LOOP('',#197);
#302=VERTEX_LOOP('',#198);
#303=VERTEX_LOOP('',#199);
#304=VERTEX_LOOP('',#200);
#305=VERTEX_LOOP('',#201);
#306=VERTEX_LOOP('',#202);
#307=VERTEX_LOOP('',#203);
#308=VERTEX_LOOP('',#204);
#309=VERTEX_LOOP('',#205);
#310=VERTEX_LOOP('',#206);
#311=VERTEX_LOOP('',#207);
#312=VERTEX_LOOP('',#208);
#313=VERTEX_LOOP('',#209);
#314=VERTEX_LOOP('',#210);
#315=VERTEX_LOOP('',#211);
#316=VERTEX_LOOP('',#212);
#317=VERTEX_LOOP('',#213);
#318=VERTEX_LOOP('',#214);
#319=VERTEX_LOOP('',#215);
#320=VERTEX_LOOP('',#216);
#321=VERTEX_LOOP('',#217);
#322=VERTEX_LOOP('',#234);
#323=FACE_BOUND('',#235,.T.);
#324=FACE_BOUND('',#236,.T.);
#325=FACE_BOUND('',#237,.T.);
#326=FACE_BOUND('',#238,.T.);
#327=FACE_BOUND('',#239,.T.);
#328=FACE_BOUND('',#240,.T.);
#329=FACE_BOUND('',#241,.T.);
#330=FACE_BOUND('',#242,.T.);
#331=FACE_BOUND('',#243,.T.);
#332=FACE_BOUND('',#244,.T.);
#333=FACE_BOUND('',#245,.T.);
#334=FACE_BOUND('',#246,.T.);
#335=FACE_BOUND('',#247,.T.);
#336=FACE_BOUND('',#248,.T.);
#337=FACE_BOUND('',#249,.T.);
#338=FACE_BOUND('',#250,.T.);
#339=FACE_BOUND('',#251,.T.);
#340=FACE_BOUND('',#252,.T.);
#341=FACE_BOUND('',#253,.T.);
#342=FACE_BOUND('',#254,.T.);
#343=FACE_BOUND('',#255,.T.);
#344=FACE_BOUND('',#256,.T.);
#345=FACE_BOUND('',#257,.T.);
#346=FACE_BOUND('',#258,.T.);
#347=FACE_BOUND('',#259,.T.);
#348=FACE_BOUND('',#260,.T.);
#349=FACE_BOUND('',#261,.T.);
#350=FACE_BOUND('',#262,.T.);
#351=FACE_BOUND('',#263,.T.);
#352=FACE_BOUND('',#264,.T.);
#353=FACE_BOUND('',#265,.T.);
#354=FACE_BOUND('',#266,.T.);
#355=FACE_BOUND('',#267,.T.);
#356=FACE_BOUND('',#268,.T.);
#357=FACE_BOUND('',#269,.T.);
#358=FACE_BOUND('',#270,.T.);
#359=FACE_BOUND('',#271,.T.);
#360=FACE_BOUND('',#272,.T.);
#361=FACE_BOUND('',#273,.T.);
#362=FACE_BOUND('',#274,.T.);
#363=FACE_BOUND('',#275,.T.);
#364=FACE_BOUND('',#276,.T.);
#365=FACE_BOUND('',#277,.T.);
#366=FACE_BOUND('',#278,.T.);
#367=FACE_BOUND('',#279,.T.);
#368=FACE_BOUND('',#280,.T.);
#369=FACE_BOUND('',#281,.T.);
#370=FACE_BOUND('',#282,.T.);
#371=FACE_BOUND('',#283,.T.);
#372=FACE_BOUND('',#284,.T.);
#373=FACE_BOUND('',#285,.T.);
#374=FACE_BOUND('',#286,.T.);
#375=FACE_BOUND('',#287,.T.);
#376=FACE_BOUND('',#288,.T.);
#377=FACE_BOUND('',#289,.T.);
#378=FACE_BOUND('',#290,.T.);
#379=FACE_BOUND('',#291,.T.);
#380=FACE_BOUND('',#292,.T.);
#381=FACE_BOUND('',#293,.T.);
#382=FACE_BOUND('',#294,.T.);
#383=FACE_BOUND('',#295,.T.);
#384=FACE_BOUND('',#296,.T.);
#385=FACE_BOUND('',#297,.T.);
#386=FACE_BOUND('',#298,.T.);
#387=FACE_BOUND('',#299,.T.);
#388=FACE_BOUND('',#300,.T.);
#389=FACE_BOUND('',#301,.T.);
#390=FACE_BOUND('',#302,.T.);
#391=FACE_BOUND('',#303,.T.);
#392=FACE_BOUND('',#304,.T.);
#393=FACE_BOUND('',#305,.T.);
#394=FACE_BOUND('',#306,.T.);
#395=FACE_BOUND('',#307,.T.);
#396=FACE_BOUND('',#308,.T.);
#397=FACE_BOUND('',#309,.T.);
#398=FACE_BOUND('',#310,.T.);
#399=FACE_BOUND('',#311,.T.);
#400=FACE_BOUND('',#312,.T.);
#401=FACE_BOUND('',#313,.T.);
#402=FACE_BOUND('',#314,.T.);
#403=FACE_BOUND('',#315,.T.);
#404=FACE_BOUND('',#316,.T.);
#405=FACE_BOUND('',#317,.T.);
#406=FACE_BOUND('',#318,.T.);
#407=FACE_BOUND('',#319,.T.);
#408=FACE_BOUND('',#320,.T.);
#409=FACE_BOUND('',#321,.T.);
#410=FACE_BOUND('',#93,.T.);
#411=FACE_BOUND('',#94,.T.);
#412=FACE_BOUND('',#95,.T.);
#413=FACE_BOUND('',#96,.T.);
#414=FACE_BOUND('',#97,.T.);
#415=FACE_BOUND('',#98,.T.);
#416=FACE_BOUND('',#99,.T.);
#417=FACE_BOUND('',#100,.T.);
#418=FACE_BOUND('',#101,.T.);
#419=FACE_BOUND('',#102,.T.);
#420=FACE_BOUND('',#103,.T.);
#421=FACE_BOUND('',#104,.T.);
#422=FACE_BOUND('',#105,.T.);
#423=FACE_BOUND('',#106,.T.);
#424=FACE_BOUND('',#107,.T.);
#425=FACE_BOUND('',#108,.T.);
#426=FACE_BOUND('',#109,.T.);
#427=FACE_BOUND('',#110,.T.);
#428=FACE_BOUND('',#111,.T.);
#429=FACE_BOUND('',#112,.T.);
#430=FACE_BOUND('',#113,.T.);
#431=FACE_BOUND('',#114,.T.);
#432=FACE_BOUND('',#115,.T.);
#433=FACE_BOUND('',#116,.T.);
#434=FACE_BOUND('',#117,.T.);
#435=FACE_BOUND('',#118,.T.);
#436=FACE_BOUND('',#119,.T.);
#437=FACE_BOUND('',#120,.T.);
#438=FACE_BOUND('',#121,.T.);
#439=FACE_BOUND('',#122,.T.);
#440=FACE_BOUND('',#123,.T.);
#441=FACE_BOUND('',#124,.T.);
#442=FACE_BOUND('',#322,.T.);
#443=SPHERICAL_SURFACE('',#1450,8.55313979495828);
#444=SPHERICAL_SURFACE('',#1451,8.55313979495828);
#445=SPHERICAL_SURFACE('',#1452,8.55313979495828);
#446=SPHERICAL_SURFACE('',#1453,8.55313979495828);
#447=SPHERICAL_SURFACE('',#1454,8.55313979495828);
#448=SPHERICAL_SURFACE('',#1455,8.55313979495828);
#449=SPHERICAL_SURFACE('',#1456,8.55313979495828);
#450=SPHERICAL_SURFACE('',#1457,8.55313979495828);
#451=SPHERICAL_SURFACE('',#1458,8.55313979495828);
#452=SPHERICAL_SURFACE('',#1459,8.55313979495828);
#453=SPHERICAL_SURFACE('',#1460,8.55313979495828);
#454=SPHERICAL_SURFACE('',#1461,8.55313979495828);
#455=SPHERICAL_SURFACE('',#1462,8.55313979495828);
#456=SPHERICAL_SURFACE('',#1463,8.55313979495828);
#457=SPHERICAL_SURFACE('',#1464,8.55313979495828);
#458=SPHERICAL_SURFACE('',#1465,8.55313979495828);
#459=SPHERICAL_SURFACE('',#1466,8.55313979495828);
#460=SPHERICAL_SURFACE('',#1467,8.55313979495828);
#461=SPHERICAL_SURFACE('',#1468,8.55313979495828);
#462=SPHERICAL_SURFACE('',#1469,8.55313979495828);
#463=SPHERICAL_SURFACE('',#1470,8.55313979495828);
#464=SPHERICAL_SURFACE('',#1471,8.55313979495828);
#465=SPHERICAL_SURFACE('',#1472,8.55313979495828);
#466=SPHERICAL_SURFACE('',#1473,8.55313979495828);
#467=SPHERICAL_SURFACE('',#1474,8.55313979495828);
#468=SPHERICAL_SURFACE('',#1475,8.55313979495828);
#469=SPHERICAL_SURFACE('',#1476,8.55313979495828);
#470=SPHERICAL_SURFACE('',#1477,8.55313979495828);
#471=SPHERICAL_SURFACE('',#1478,8.55313979495828);
#472=SPHERICAL_SURFACE('',#1479,8.55313979495828);
#473=SPHERICAL_SURFACE('',#1480,8.55313979495828);
#474=SPHERICAL_SURFACE('',#1481,8.55313979495828);
#475=SPHERICAL_SURFACE('',#1482,8.55313979495828);
#476=SPHERICAL_SURFACE('',#1483,8.55313979495828);
#477=SPHERICAL_SURFACE('',#1484,8.55313979495828);
#478=SPHERICAL_SURFACE('',#1485,8.55313979495828);
#479=SPHERICAL_SURFACE('',#1486,8.55313979495828);
#480=SPHERICAL_SURFACE('',#1487,8.55313979495828);
#481=SPHERICAL_SURFACE('',#1488,8.55313979495828);
#482=SPHERICAL_SURFACE('',#1489,8.55313979495828);
#483=SPHERICAL_SURFACE('',#1490,8.55313979495828);
#484=SPHERICAL_SURFACE('',#1491,8.55313979495828);
#485=SPHERICAL_SURFACE('',#1492,8.55313979495828);
#486=SPHERICAL_SURFACE('',#1493,8.55313979495828);
#487=SPHERICAL_SURFACE('',#1494,8.55313979495828);
#488=SPHERICAL_SURFACE('',#1495,8.55313979495828);
#489=SPHERICAL_SURFACE('',#1496,8.55313979495828);
#490=SPHERICAL_SURFACE('',#1497,8.55313979495828);
#491=SPHERICAL_SURFACE('',#1498,8.55313979495828);
#492=SPHERICAL_SURFACE('',#1499,8.55313979495828);
#493=SPHERICAL_SURFACE('',#1500,8.55313979495828);
#494=SPHERICAL_SURFACE('',#1501,8.55313979495828);
#495=SPHERICAL_SURFACE('',#1502,8.55313979495828);
#496=SPHERICAL_SURFACE('',#1503,8.55313979495828);
#497=SPHERICAL_SURFACE('',#1504,8.55313979495828);
#498=SPHERICAL_SURFACE('',#1505,8.55313979495828);
#499=SPHERICAL_SURFACE('',#1506,8.55313979495828);
#500=SPHERICAL_SURFACE('',#1507,8.55313979495828);
#501=SPHERICAL_SURFACE('',#1508,8.55313979495828);
#502=SPHERICAL_SURFACE('',#1509,8.55313979495828);
#503=SPHERICAL_SURFACE('',#1510,8.55313979495828);
#504=SPHERICAL_SURFACE('',#1511,8.55313979495828);
#505=SPHERICAL_SURFACE('',#1512,8.55313979495828);
#506=SPHERICAL_SURFACE('',#1513,8.55313979495828);
#507=SPHERICAL_SURFACE('',#1514,8.55313979495828);
#508=SPHERICAL_SURFACE('',#1515,8.55313979495828);
#509=SPHERICAL_SURFACE('',#1516,8.55313979495828);
#510=SPHERICAL_SURFACE('',#1517,8.55313979495828);
#511=SPHERICAL_SURFACE('',#1518,8.55313979495828);
#512=SPHERICAL_SURFACE('',#1519,8.55313979495828);
#513=SPHERICAL_SURFACE('',#1520,8.55313979495828);
#514=SPHERICAL_SURFACE('',#1521,8.55313979495828);
#515=SPHERICAL_SURFACE('',#1522,8.55313979495828);
#516=SPHERICAL_SURFACE('',#1523,8.55313979495828);
#517=SPHERICAL_SURFACE('',#1524,8.55313979495828);
#518=SPHERICAL_SURFACE('',#1525,8.55313979495828);
#519=SPHERICAL_SURFACE('',#1526,8.55313979495828);
#520=SPHERICAL_SURFACE('',#1527,8.55313979495828);
#521=SPHERICAL_SURFACE('',#1528,8.55313979495828);
#522=SPHERICAL_SURFACE('',#1529,8.55313979495828);
#523=SPHERICAL_SURFACE('',#1530,8.55313979495828);
#524=SPHERICAL_SURFACE('',#1531,8.55313979495828);
#525=SPHERICAL_SURFACE('',#1532,8.55313979495828);
#526=SPHERICAL_SURFACE('',#1533,8.55313979495828);
#527=SPHERICAL_SURFACE('',#1534,8.55313979495828);
#528=SPHERICAL_SURFACE('',#1535,8.55313979495828);
#529=SPHERICAL_SURFACE('',#1536,8.55313979495828);
#530=SPHERICAL_SURFACE('',#1557,130.);
#531=SPHERICAL_SURFACE('',#1569,8.55313979495828);
#532=ADVANCED_FACE('',(#323),#443,.T.);
#533=ADVANCED_FACE('',(#324),#444,.T.);
#534=ADVANCED_FACE('',(#325),#445,.T.);
#535=ADVANCED_FACE('',(#326),#446,.T.);
#536=ADVANCED_FACE('',(#327),#447,.T.);
#537=ADVANCED_FACE('',(#328),#448,.T.);
#538=ADVANCED_FACE('',(#329),#449,.T.);
#539=ADVANCED_FACE('',(#330),#450,.T.);
#540=ADVANCED_FACE('',(#331),#451,.T.);
#541=ADVANCED_FACE('',(#332),#452,.T.);
#542=ADVANCED_FACE('',(#333),#453,.T.);
#543=ADVANCED_FACE('',(#334),#454,.T.);
#544=ADVANCED_FACE('',(#335),#455,.T.);
#545=ADVANCED_FACE('',(#336),#456,.T.);
#546=ADVANCED_FACE('',(#337),#457,.T.);
#547=ADVANCED_FACE('',(#338),#458,.T.);
#548=ADVANCED_FACE('',(#339),#459,.T.);
#549=ADVANCED_FACE('',(#340),#460,.T.);
#550=ADVANCED_FACE('',(#341),#461,.T.);
#551=ADVANCED_FACE('',(#342),#462,.T.);
#552=ADVANCED_FACE('',(#343),#463,.T.);
#553=ADVANCED_FACE('',(#344),#464,.T.);
#554=ADVANCED_FACE('',(#345),#465,.T.);
#555=ADVANCED_FACE('',(#346),#466,.T.);
#556=ADVANCED_FACE('',(#347),#467,.T.);
#557=ADVANCED_FACE('',(#348),#468,.T.);
#558=ADVANCED_FACE('',(#349),#469,.T.);
#559=ADVANCED_FACE('',(#350),#470,.T.);
#560=ADVANCED_FACE('',(#351),#471,.T.);
#561=ADVANCED_FACE('',(#352),#472,.T.);
#562=ADVANCED_FACE('',(#353),#473,.T.);
#563=ADVANCED_FACE('',(#354),#474,.T.);
#564=ADVANCED_FACE('',(#355),#475,.T.);
#565=ADVANCED_FACE('',(#356),#476,.T.);
#566=ADVANCED_FACE('',(#357),#477,.T.);
#567=ADVANCED_FACE('',(#358),#478,.T.);
#568=ADVANCED_FACE('',(#359),#479,.T.);
#569=ADVANCED_FACE('',(#360),#480,.T.);
#570=ADVANCED_FACE('',(#361),#481,.T.);
#571=ADVANCED_FACE('',(#362),#482,.T.);
#572=ADVANCED_FACE('',(#363),#483,.T.);
#573=ADVANCED_FACE('',(#364),#484,.T.);
#574=ADVANCED_FACE('',(#365),#485,.T.);
#575=ADVANCED_FACE('',(#366),#486,.T.);
#576=ADVANCED_FACE('',(#367),#487,.T.);
#577=ADVANCED_FACE('',(#368),#488,.T.);
#578=ADVANCED_FACE('',(#369),#489,.T.);
#579=ADVANCED_FACE('',(#370),#490,.T.);
#580=ADVANCED_FACE('',(#371),#491,.T.);
#581=ADVANCED_FACE('',(#372),#492,.T.);
#582=ADVANCED_FACE('',(#373),#493,.T.);
#583=ADVANCED_FACE('',(#374),#494,.T.);
#584=ADVANCED_FACE('',(#375),#495,.T.);
#585=ADVANCED_FACE('',(#376),#496,.T.);
#586=ADVANCED_FACE('',(#377),#497,.T.);
#587=ADVANCED_FACE('',(#378),#498,.T.);
#588=ADVANCED_FACE('',(#379),#499,.T.);
#589=ADVANCED_FACE('',(#380),#500,.T.);
#590=ADVANCED_FACE('',(#381),#501,.T.);
#591=ADVANCED_FACE('',(#382),#502,.T.);
#592=ADVANCED_FACE('',(#383),#503,.T.);
#593=ADVANCED_FACE('',(#384),#504,.T.);
#594=ADVANCED_FACE('',(#385),#505,.T.);
#595=ADVANCED_FACE('',(#386),#506,.T.);
#596=ADVANCED_FACE('',(#387),#507,.T.);
#597=ADVANCED_FACE('',(#388),#508,.T.);
#598=ADVANCED_FACE('',(#389),#509,.T.);
#599=ADVANCED_FACE('',(#390),#510,.T.);
#600=ADVANCED_FACE('',(#391),#511,.T.);
#601=ADVANCED_FACE('',(#392),#512,.T.);
#602=ADVANCED_FACE('',(#393),#513,.T.);
#603=ADVANCED_FACE('',(#394),#514,.T.);
#604=ADVANCED_FACE('',(#395),#515,.T.);
#605=ADVANCED_FACE('',(#396),#516,.T.);
#606=ADVANCED_FACE('',(#397),#517,.T.);
#607=ADVANCED_FACE('',(#398),#518,.T.);
#608=ADVANCED_FACE('',(#399),#519,.T.);
#609=ADVANCED_FACE('',(#400),#520,.T.);
#610=ADVANCED_FACE('',(#401),#521,.T.);
#611=ADVANCED_FACE('',(#402),#522,.T.);
#612=ADVANCED_FACE('',(#403),#523,.T.);
#613=ADVANCED_FACE('',(#404),#524,.T.);
#614=ADVANCED_FACE('',(#405),#525,.T.);
#615=ADVANCED_FACE('',(#406),#526,.T.);
#616=ADVANCED_FACE('',(#407),#527,.T.);
#617=ADVANCED_FACE('',(#408),#528,.T.);
#618=ADVANCED_FACE('',(#409),#529,.T.);
#619=ADVANCED_FACE('',(#410,#411),#125,.F.);
#620=ADVANCED_FACE('',(#412,#413),#24,.F.);
#621=ADVANCED_FACE('',(#414,#415),#126,.F.);
#622=ADVANCED_FACE('',(#416,#417),#25,.T.);
#623=ADVANCED_FACE('',(#418,#419),#18,.F.);
#624=ADVANCED_FACE('',(#420,#421),#26,.T.);
#625=ADVANCED_FACE('',(#422,#423),#19,.F.);
#626=ADVANCED_FACE('',(#424,#425),#27,.T.);
#627=ADVANCED_FACE('',(#426,#427),#20,.T.);
#628=ADVANCED_FACE('',(#428,#429),#21,.T.);
#629=ADVANCED_FACE('',(#430,#431),#530,.F.);
#630=ADVANCED_FACE('',(#432,#433),#127,.F.);
#631=ADVANCED_FACE('',(#434,#435),#28,.T.);
#632=ADVANCED_FACE('',(#436,#437),#128,.F.);
#633=ADVANCED_FACE('',(#438,#439),#22,.T.);
#634=ADVANCED_FACE('',(#440,#441),#23,.T.);
#635=ADVANCED_FACE('',(#442),#531,.T.);
#636=CLOSED_SHELL('',(#532));
#637=CLOSED_SHELL('',(#533));
#638=CLOSED_SHELL('',(#534));
#639=CLOSED_SHELL('',(#535));
#640=CLOSED_SHELL('',(#536));
#641=CLOSED_SHELL('',(#537));
#642=CLOSED_SHELL('',(#538));
#643=CLOSED_SHELL('',(#539));
#644=CLOSED_SHELL('',(#540));
#645=CLOSED_SHELL('',(#541));
#646=CLOSED_SHELL('',(#542));
#647=CLOSED_SHELL('',(#543));
#648=CLOSED_SHELL('',(#544));
#649=CLOSED_SHELL('',(#545));
#650=CLOSED_SHELL('',(#546));
#651=CLOSED_SHELL('',(#547));
#652=CLOSED_SHELL('',(#548));
#653=CLOSED_SHELL('',(#549));
#654=CLOSED_SHELL('',(#550));
#655=CLOSED_SHELL('',(#551));
#656=CLOSED_SHELL('',(#552));
#657=CLOSED_SHELL('',(#553));
#658=CLOSED_SHELL('',(#554));
#659=CLOSED_SHELL('',(#555));
#660=CLOSED_SHELL('',(#556));
#661=CLOSED_SHELL('',(#557));
#662=CLOSED_SHELL('',(#558));
#663=CLOSED_SHELL('',(#559));
#664=CLOSED_SHELL('',(#560));
#665=CLOSED_SHELL('',(#561));
#666=CLOSED_SHELL('',(#562));
#667=CLOSED_SHELL('',(#563));
#668=CLOSED_SHELL('',(#564));
#669=CLOSED_SHELL('',(#565));
#670=CLOSED_SHELL('',(#566));
#671=CLOSED_SHELL('',(#567));
#672=CLOSED_SHELL('',(#568));
#673=CLOSED_SHELL('',(#569));
#674=CLOSED_SHELL('',(#570));
#675=CLOSED_SHELL('',(#571));
#676=CLOSED_SHELL('',(#572));
#677=CLOSED_SHELL('',(#573));
#678=CLOSED_SHELL('',(#574));
#679=CLOSED_SHELL('',(#575));
#680=CLOSED_SHELL('',(#576));
#681=CLOSED_SHELL('',(#577));
#682=CLOSED_SHELL('',(#578));
#683=CLOSED_SHELL('',(#579));
#684=CLOSED_SHELL('',(#580));
#685=CLOSED_SHELL('',(#581));
#686=CLOSED_SHELL('',(#582));
#687=CLOSED_SHELL('',(#583));
#688=CLOSED_SHELL('',(#584));
#689=CLOSED_SHELL('',(#585));
#690=CLOSED_SHELL('',(#586));
#691=CLOSED_SHELL('',(#587));
#692=CLOSED_SHELL('',(#588));
#693=CLOSED_SHELL('',(#589));
#694=CLOSED_SHELL('',(#590));
#695=CLOSED_SHELL('',(#591));
#696=CLOSED_SHELL('',(#592));
#697=CLOSED_SHELL('',(#593));
#698=CLOSED_SHELL('',(#594));
#699=CLOSED_SHELL('',(#595));
#700=CLOSED_SHELL('',(#596));
#701=CLOSED_SHELL('',(#597));
#702=CLOSED_SHELL('',(#598));
#703=CLOSED_SHELL('',(#599));
#704=CLOSED_SHELL('',(#600));
#705=CLOSED_SHELL('',(#601));
#706=CLOSED_SHELL('',(#602));
#707=CLOSED_SHELL('',(#603));
#708=CLOSED_SHELL('',(#604));
#709=CLOSED_SHELL('',(#605));
#710=CLOSED_SHELL('',(#606));
#711=CLOSED_SHELL('',(#607));
#712=CLOSED_SHELL('',(#608));
#713=CLOSED_SHELL('',(#609));
#714=CLOSED_SHELL('',(#610));
#715=CLOSED_SHELL('',(#611));
#716=CLOSED_SHELL('',(#612));
#717=CLOSED_SHELL('',(#613));
#718=CLOSED_SHELL('',(#614));
#719=CLOSED_SHELL('',(#615));
#720=CLOSED_SHELL('',(#616));
#721=CLOSED_SHELL('',(#617));
#722=CLOSED_SHELL('',(#618));
#723=CLOSED_SHELL('',(#619,#620,#621,#622,#623,#624,#625,#626,#627,#628));
#724=CLOSED_SHELL('',(#629,#630,#631,#632,#633,#634));
#725=CLOSED_SHELL('',(#635));
#726=STYLED_ITEM('',(#816),#1357);
#727=STYLED_ITEM('',(#817),#1358);
#728=STYLED_ITEM('',(#818),#1359);
#729=STYLED_ITEM('',(#819),#1360);
#730=STYLED_ITEM('',(#820),#1361);
#731=STYLED_ITEM('',(#821),#1362);
#732=STYLED_ITEM('',(#822),#1363);
#733=STYLED_ITEM('',(#823),#1364);
#734=STYLED_ITEM('',(#824),#1365);
#735=STYLED_ITEM('',(#825),#1366);
#736=STYLED_ITEM('',(#826),#1367);
#737=STYLED_ITEM('',(#827),#1368);
#738=STYLED_ITEM('',(#828),#1369);
#739=STYLED_ITEM('',(#829),#1370);
#740=STYLED_ITEM('',(#830),#1371);
#741=STYLED_ITEM('',(#831),#1372);
#742=STYLED_ITEM('',(#832),#1373);
#743=STYLED_ITEM('',(#833),#1374);
#744=STYLED_ITEM('',(#834),#1375);
#745=STYLED_ITEM('',(#835),#1376);
#746=STYLED_ITEM('',(#836),#1377);
#747=STYLED_ITEM('',(#837),#1378);
#748=STYLED_ITEM('',(#838),#1379);
#749=STYLED_ITEM('',(#839),#1380);
#750=STYLED_ITEM('',(#840),#1381);
#751=STYLED_ITEM('',(#841),#1382);
#752=STYLED_ITEM('',(#842),#1383);
#753=STYLED_ITEM('',(#843),#1384);
#754=STYLED_ITEM('',(#844),#1385);
#755=STYLED_ITEM('',(#845),#1386);
#756=STYLED_ITEM('',(#846),#1387);
#757=STYLED_ITEM('',(#847),#1388);
#758=STYLED_ITEM('',(#848),#1389);
#759=STYLED_ITEM('',(#849),#1390);
#760=STYLED_ITEM('',(#850),#1391);
#761=STYLED_ITEM('',(#851),#1392);
#762=STYLED_ITEM('',(#852),#1393);
#763=STYLED_ITEM('',(#853),#1394);
#764=STYLED_ITEM('',(#854),#1395);
#765=STYLED_ITEM('',(#855),#1396);
#766=STYLED_ITEM('',(#856),#1397);
#767=STYLED_ITEM('',(#857),#1398);
#768=STYLED_ITEM('',(#858),#1399);
#769=STYLED_ITEM('',(#859),#1400);
#770=STYLED_ITEM('',(#860),#1401);
#771=STYLED_ITEM('',(#861),#1402);
#772=STYLED_ITEM('',(#862),#1403);
#773=STYLED_ITEM('',(#863),#1404);
#774=STYLED_ITEM('',(#864),#1405);
#775=STYLED_ITEM('',(#865),#1406);
#776=STYLED_ITEM('',(#866),#1407);
#777=STYLED_ITEM('',(#867),#1408);
#778=STYLED_ITEM('',(#868),#1409);
#779=STYLED_ITEM('',(#869),#1410);
#780=STYLED_ITEM('',(#870),#1411);
#781=STYLED_ITEM('',(#871),#1412);
#782=STYLED_ITEM('',(#872),#1413);
#783=STYLED_ITEM('',(#873),#1414);
#784=STYLED_ITEM('',(#874),#1415);
#785=STYLED_ITEM('',(#875),#1416);
#786=STYLED_ITEM('',(#876),#1417);
#787=STYLED_ITEM('',(#877),#1418);
#788=STYLED_ITEM('',(#878),#1419);
#789=STYLED_ITEM('',(#879),#1420);
#790=STYLED_ITEM('',(#880),#1421);
#791=STYLED_ITEM('',(#881),#1422);
#792=STYLED_ITEM('',(#882),#1423);
#793=STYLED_ITEM('',(#883),#1424);
#794=STYLED_ITEM('',(#884),#1425);
#795=STYLED_ITEM('',(#885),#1426);
#796=STYLED_ITEM('',(#886),#1427);
#797=STYLED_ITEM('',(#887),#1428);
#798=STYLED_ITEM('',(#888),#1429);
#799=STYLED_ITEM('',(#889),#1430);
#800=STYLED_ITEM('',(#890),#1431);
#801=STYLED_ITEM('',(#891),#1432);
#802=STYLED_ITEM('',(#892),#1433);
#803=STYLED_ITEM('',(#893),#1434);
#804=STYLED_ITEM('',(#894),#1435);
#805=STYLED_ITEM('',(#895),#1436);
#806=STYLED_ITEM('',(#896),#1437);
#807=STYLED_ITEM('',(#897),#1438);
#808=STYLED_ITEM('',(#898),#1439);
#809=STYLED_ITEM('',(#899),#1440);
#810=STYLED_ITEM('',(#900),#1441);
#811=STYLED_ITEM('',(#901),#1442);
#812=STYLED_ITEM('',(#902),#1443);
#813=STYLED_ITEM('',(#903),#1444);
#814=STYLED_ITEM('',(#904),#1445);
#815=STYLED_ITEM('',(#905),#1446);
#816=PRESENTATION_STYLE_ASSIGNMENT((#906));
#817=PRESENTATION_STYLE_ASSIGNMENT((#907));
#818=PRESENTATION_STYLE_ASSIGNMENT((#908));
#819=PRESENTATION_STYLE_ASSIGNMENT((#909));
#820=PRESENTATION_STYLE_ASSIGNMENT((#910));
#821=PRESENTATION_STYLE_ASSIGNMENT((#911));
#822=PRESENTATION_STYLE_ASSIGNMENT((#912));
#823=PRESENTATION_STYLE_ASSIGNMENT((#913));
#824=PRESENTATION_STYLE_ASSIGNMENT((#914));
#825=PRESENTATION_STYLE_ASSIGNMENT((#915));
#826=PRESENTATION_STYLE_ASSIGNMENT((#916));
#827=PRESENTATION_STYLE_ASSIGNMENT((#917));
#828=PRESENTATION_STYLE_ASSIGNMENT((#918));
#829=PRESENTATION_STYLE_ASSIGNMENT((#919));
#830=PRESENTATION_STYLE_ASSIGNMENT((#920));
#831=PRESENTATION_STYLE_ASSIGNMENT((#921));
#832=PRESENTATION_STYLE_ASSIGNMENT((#922));
#833=PRESENTATION_STYLE_ASSIGNMENT((#923));
#834=PRESENTATION_STYLE_ASSIGNMENT((#924));
#835=PRESENTATION_STYLE_ASSIGNMENT((#925));
#836=PRESENTATION_STYLE_ASSIGNMENT((#926));
#837=PRESENTATION_STYLE_ASSIGNMENT((#927));
#838=PRESENTATION_STYLE_ASSIGNMENT((#928));
#839=PRESENTATION_STYLE_ASSIGNMENT((#929));
#840=PRESENTATION_STYLE_ASSIGNMENT((#930));
#841=PRESENTATION_STYLE_ASSIGNMENT((#931));
#842=PRESENTATION_STYLE_ASSIGNMENT((#932));
#843=PRESENTATION_STYLE_ASSIGNMENT((#933));
#844=PRESENTATION_STYLE_ASSIGNMENT((#934));
#845=PRESENTATION_STYLE_ASSIGNMENT((#935));
#846=PRESENTATION_STYLE_ASSIGNMENT((#936));
#847=PRESENTATION_STYLE_ASSIGNMENT((#937));
#848=PRESENTATION_STYLE_ASSIGNMENT((#938));
#849=PRESENTATION_STYLE_ASSIGNMENT((#939));
#850=PRESENTATION_STYLE_ASSIGNMENT((#940));
#851=PRESENTATION_STYLE_ASSIGNMENT((#941));
#852=PRESENTATION_STYLE_ASSIGNMENT((#942));
#853=PRESENTATION_STYLE_ASSIGNMENT((#943));
#854=PRESENTATION_STYLE_ASSIGNMENT((#944));
#855=PRESENTATION_STYLE_ASSIGNMENT((#945));
#856=PRESENTATION_STYLE_ASSIGNMENT((#946));
#857=PRESENTATION_STYLE_ASSIGNMENT((#947));
#858=PRESENTATION_STYLE_ASSIGNMENT((#948));
#859=PRESENTATION_STYLE_ASSIGNMENT((#949));
#860=PRESENTATION_STYLE_ASSIGNMENT((#950));
#861=PRESENTATION_STYLE_ASSIGNMENT((#951));
#862=PRESENTATION_STYLE_ASSIGNMENT((#952));
#863=PRESENTATION_STYLE_ASSIGNMENT((#953));
#864=PRESENTATION_STYLE_ASSIGNMENT((#954));
#865=PRESENTATION_STYLE_ASSIGNMENT((#955));
#866=PRESENTATION_STYLE_ASSIGNMENT((#956));
#867=PRESENTATION_STYLE_ASSIGNMENT((#957));
#868=PRESENTATION_STYLE_ASSIGNMENT((#958));
#869=PRESENTATION_STYLE_ASSIGNMENT((#959));
#870=PRESENTATION_STYLE_ASSIGNMENT((#960));
#871=PRESENTATION_STYLE_ASSIGNMENT((#961));
#872=PRESENTATION_STYLE_ASSIGNMENT((#962));
#873=PRESENTATION_STYLE_ASSIGNMENT((#963));
#874=PRESENTATION_STYLE_ASSIGNMENT((#964));
#875=PRESENTATION_STYLE_ASSIGNMENT((#965));
#876=PRESENTATION_STYLE_ASSIGNMENT((#966));
#877=PRESENTATION_STYLE_ASSIGNMENT((#967));
#878=PRESENTATION_STYLE_ASSIGNMENT((#968));
#879=PRESENTATION_STYLE_ASSIGNMENT((#969));
#880=PRESENTATION_STYLE_ASSIGNMENT((#970));
#881=PRESENTATION_STYLE_ASSIGNMENT((#971));
#882=PRESENTATION_STYLE_ASSIGNMENT((#972));
#883=PRESENTATION_STYLE_ASSIGNMENT((#973));
#884=PRESENTATION_STYLE_ASSIGNMENT((#974));
#885=PRESENTATION_STYLE_ASSIGNMENT((#975));
#886=PRESENTATION_STYLE_ASSIGNMENT((#976));
#887=PRESENTATION_STYLE_ASSIGNMENT((#977));
#888=PRESENTATION_STYLE_ASSIGNMENT((#978));
#889=PRESENTATION_STYLE_ASSIGNMENT((#979));
#890=PRESENTATION_STYLE_ASSIGNMENT((#980));
#891=PRESENTATION_STYLE_ASSIGNMENT((#981));
#892=PRESENTATION_STYLE_ASSIGNMENT((#982));
#893=PRESENTATION_STYLE_ASSIGNMENT((#983));
#894=PRESENTATION_STYLE_ASSIGNMENT((#984));
#895=PRESENTATION_STYLE_ASSIGNMENT((#985));
#896=PRESENTATION_STYLE_ASSIGNMENT((#986));
#897=PRESENTATION_STYLE_ASSIGNMENT((#987));
#898=PRESENTATION_STYLE_ASSIGNMENT((#988));
#899=PRESENTATION_STYLE_ASSIGNMENT((#989));
#900=PRESENTATION_STYLE_ASSIGNMENT((#990));
#901=PRESENTATION_STYLE_ASSIGNMENT((#991));
#902=PRESENTATION_STYLE_ASSIGNMENT((#992));
#903=PRESENTATION_STYLE_ASSIGNMENT((#993));
#904=PRESENTATION_STYLE_ASSIGNMENT((#994));
#905=PRESENTATION_STYLE_ASSIGNMENT((#995));
#906=SURFACE_STYLE_USAGE(.BOTH.,#996);
#907=SURFACE_STYLE_USAGE(.BOTH.,#997);
#908=SURFACE_STYLE_USAGE(.BOTH.,#998);
#909=SURFACE_STYLE_USAGE(.BOTH.,#999);
#910=SURFACE_STYLE_USAGE(.BOTH.,#1000);
#911=SURFACE_STYLE_USAGE(.BOTH.,#1001);
#912=SURFACE_STYLE_USAGE(.BOTH.,#1002);
#913=SURFACE_STYLE_USAGE(.BOTH.,#1003);
#914=SURFACE_STYLE_USAGE(.BOTH.,#1004);
#915=SURFACE_STYLE_USAGE(.BOTH.,#1005);
#916=SURFACE_STYLE_USAGE(.BOTH.,#1006);
#917=SURFACE_STYLE_USAGE(.BOTH.,#1007);
#918=SURFACE_STYLE_USAGE(.BOTH.,#1008);
#919=SURFACE_STYLE_USAGE(.BOTH.,#1009);
#920=SURFACE_STYLE_USAGE(.BOTH.,#1010);
#921=SURFACE_STYLE_USAGE(.BOTH.,#1011);
#922=SURFACE_STYLE_USAGE(.BOTH.,#1012);
#923=SURFACE_STYLE_USAGE(.BOTH.,#1013);
#924=SURFACE_STYLE_USAGE(.BOTH.,#1014);
#925=SURFACE_STYLE_USAGE(.BOTH.,#1015);
#926=SURFACE_STYLE_USAGE(.BOTH.,#1016);
#927=SURFACE_STYLE_USAGE(.BOTH.,#1017);
#928=SURFACE_STYLE_USAGE(.BOTH.,#1018);
#929=SURFACE_STYLE_USAGE(.BOTH.,#1019);
#930=SURFACE_STYLE_USAGE(.BOTH.,#1020);
#931=SURFACE_STYLE_USAGE(.BOTH.,#1021);
#932=SURFACE_STYLE_USAGE(.BOTH.,#1022);
#933=SURFACE_STYLE_USAGE(.BOTH.,#1023);
#934=SURFACE_STYLE_USAGE(.BOTH.,#1024);
#935=SURFACE_STYLE_USAGE(.BOTH.,#1025);
#936=SURFACE_STYLE_USAGE(.BOTH.,#1026);
#937=SURFACE_STYLE_USAGE(.BOTH.,#1027);
#938=SURFACE_STYLE_USAGE(.BOTH.,#1028);
#939=SURFACE_STYLE_USAGE(.BOTH.,#1029);
#940=SURFACE_STYLE_USAGE(.BOTH.,#1030);
#941=SURFACE_STYLE_USAGE(.BOTH.,#1031);
#942=SURFACE_STYLE_USAGE(.BOTH.,#1032);
#943=SURFACE_STYLE_USAGE(.BOTH.,#1033);
#944=SURFACE_STYLE_USAGE(.BOTH.,#1034);
#945=SURFACE_STYLE_USAGE(.BOTH.,#1035);
#946=SURFACE_STYLE_USAGE(.BOTH.,#1036);
#947=SURFACE_STYLE_USAGE(.BOTH.,#1037);
#948=SURFACE_STYLE_USAGE(.BOTH.,#1038);
#949=SURFACE_STYLE_USAGE(.BOTH.,#1039);
#950=SURFACE_STYLE_USAGE(.BOTH.,#1040);
#951=SURFACE_STYLE_USAGE(.BOTH.,#1041);
#952=SURFACE_STYLE_USAGE(.BOTH.,#1042);
#953=SURFACE_STYLE_USAGE(.BOTH.,#1043);
#954=SURFACE_STYLE_USAGE(.BOTH.,#1044);
#955=SURFACE_STYLE_USAGE(.BOTH.,#1045);
#956=SURFACE_STYLE_USAGE(.BOTH.,#1046);
#957=SURFACE_STYLE_USAGE(.BOTH.,#1047);
#958=SURFACE_STYLE_USAGE(.BOTH.,#1048);
#959=SURFACE_STYLE_USAGE(.BOTH.,#1049);
#960=SURFACE_STYLE_USAGE(.BOTH.,#1050);
#961=SURFACE_STYLE_USAGE(.BOTH.,#1051);
#962=SURFACE_STYLE_USAGE(.BOTH.,#1052);
#963=SURFACE_STYLE_USAGE(.BOTH.,#1053);
#964=SURFACE_STYLE_USAGE(.BOTH.,#1054);
#965=SURFACE_STYLE_USAGE(.BOTH.,#1055);
#966=SURFACE_STYLE_USAGE(.BOTH.,#1056);
#967=SURFACE_STYLE_USAGE(.BOTH.,#1057);
#968=SURFACE_STYLE_USAGE(.BOTH.,#1058);
#969=SURFACE_STYLE_USAGE(.BOTH.,#1059);
#970=SURFACE_STYLE_USAGE(.BOTH.,#1060);
#971=SURFACE_STYLE_USAGE(.BOTH.,#1061);
#972=SURFACE_STYLE_USAGE(.BOTH.,#1062);
#973=SURFACE_STYLE_USAGE(.BOTH.,#1063);
#974=SURFACE_STYLE_USAGE(.BOTH.,#1064);
#975=SURFACE_STYLE_USAGE(.BOTH.,#1065);
#976=SURFACE_STYLE_USAGE(.BOTH.,#1066);
#977=SURFACE_STYLE_USAGE(.BOTH.,#1067);
#978=SURFACE_STYLE_USAGE(.BOTH.,#1068);
#979=SURFACE_STYLE_USAGE(.BOTH.,#1069);
#980=SURFACE_STYLE_USAGE(.BOTH.,#1070);
#981=SURFACE_STYLE_USAGE(.BOTH.,#1071);
#982=SURFACE_STYLE_USAGE(.BOTH.,#1072);
#983=SURFACE_STYLE_USAGE(.BOTH.,#1073);
#984=SURFACE_STYLE_USAGE(.BOTH.,#1074);
#985=SURFACE_STYLE_USAGE(.BOTH.,#1075);
#986=SURFACE_STYLE_USAGE(.BOTH.,#1076);
#987=SURFACE_STYLE_USAGE(.BOTH.,#1077);
#988=SURFACE_STYLE_USAGE(.BOTH.,#1078);
#989=SURFACE_STYLE_USAGE(.BOTH.,#1079);
#990=SURFACE_STYLE_USAGE(.BOTH.,#1080);
#991=SURFACE_STYLE_USAGE(.BOTH.,#1081);
#992=SURFACE_STYLE_USAGE(.BOTH.,#1082);
#993=SURFACE_STYLE_USAGE(.BOTH.,#1083);
#994=SURFACE_STYLE_USAGE(.BOTH.,#1084);
#995=SURFACE_STYLE_USAGE(.BOTH.,#1085);
#996=SURFACE_SIDE_STYLE('',(#1086));
#997=SURFACE_SIDE_STYLE('',(#1087));
#998=SURFACE_SIDE_STYLE('',(#1088));
#999=SURFACE_SIDE_STYLE('',(#1089));
#1000=SURFACE_SIDE_STYLE('',(#1090));
#1001=SURFACE_SIDE_STYLE('',(#1091));
#1002=SURFACE_SIDE_STYLE('',(#1092));
#1003=SURFACE_SIDE_STYLE('',(#1093));
#1004=SURFACE_SIDE_STYLE('',(#1094));
#1005=SURFACE_SIDE_STYLE('',(#1095));
#1006=SURFACE_SIDE_STYLE('',(#1096));
#1007=SURFACE_SIDE_STYLE('',(#1097));
#1008=SURFACE_SIDE_STYLE('',(#1098));
#1009=SURFACE_SIDE_STYLE('',(#1099));
#1010=SURFACE_SIDE_STYLE('',(#1100));
#1011=SURFACE_SIDE_STYLE('',(#1101));
#1012=SURFACE_SIDE_STYLE('',(#1102));
#1013=SURFACE_SIDE_STYLE('',(#1103));
#1014=SURFACE_SIDE_STYLE('',(#1104));
#1015=SURFACE_SIDE_STYLE('',(#1105));
#1016=SURFACE_SIDE_STYLE('',(#1106));
#1017=SURFACE_SIDE_STYLE('',(#1107));
#1018=SURFACE_SIDE_STYLE('',(#1108));
#1019=SURFACE_SIDE_STYLE('',(#1109));
#1020=SURFACE_SIDE_STYLE('',(#1110));
#1021=SURFACE_SIDE_STYLE('',(#1111));
#1022=SURFACE_SIDE_STYLE('',(#1112));
#1023=SURFACE_SIDE_STYLE('',(#1113));
#1024=SURFACE_SIDE_STYLE('',(#1114));
#1025=SURFACE_SIDE_STYLE('',(#1115));
#1026=SURFACE_SIDE_STYLE('',(#1116));
#1027=SURFACE_SIDE_STYLE('',(#1117));
#1028=SURFACE_SIDE_STYLE('',(#1118));
#1029=SURFACE_SIDE_STYLE('',(#1119));
#1030=SURFACE_SIDE_STYLE('',(#1120));
#1031=SURFACE_SIDE_STYLE('',(#1121));
#1032=SURFACE_SIDE_STYLE('',(#1122));
#1033=SURFACE_SIDE_STYLE('',(#1123));
#1034=SURFACE_SIDE_STYLE('',(#1124));
#1035=SURFACE_SIDE_STYLE('',(#1125));
#1036=SURFACE_SIDE_STYLE('',(#1126));
#1037=SURFACE_SIDE_STYLE('',(#1127));
#1038=SURFACE_SIDE_STYLE('',(#1128));
#1039=SURFACE_SIDE_STYLE('',(#1129));
#1040=SURFACE_SIDE_STYLE('',(#1130));
#1041=SURFACE_SIDE_STYLE('',(#1131));
#1042=SURFACE_SIDE_STYLE('',(#1132));
#1043=SURFACE_SIDE_STYLE('',(#1133));
#1044=SURFACE_SIDE_STYLE('',(#1134));
#1045=SURFACE_SIDE_STYLE('',(#1135));
#1046=SURFACE_SIDE_STYLE('',(#1136));
#1047=SURFACE_SIDE_STYLE('',(#1137));
#1048=SURFACE_SIDE_STYLE('',(#1138));
#1049=SURFACE_SIDE_STYLE('',(#1139));
#1050=SURFACE_SIDE_STYLE('',(#1140));
#1051=SURFACE_SIDE_STYLE('',(#1141));
#1052=SURFACE_SIDE_STYLE('',(#1142));
#1053=SURFACE_SIDE_STYLE('',(#1143));
#1054=SURFACE_SIDE_STYLE('',(#1144));
#1055=SURFACE_SIDE_STYLE('',(#1145));
#1056=SURFACE_SIDE_STYLE('',(#1146));
#1057=SURFACE_SIDE_STYLE('',(#1147));
#1058=SURFACE_SIDE_STYLE('',(#1148));
#1059=SURFACE_SIDE_STYLE('',(#1149));
#1060=SURFACE_SIDE_STYLE('',(#1150));
#1061=SURFACE_SIDE_STYLE('',(#1151));
#1062=SURFACE_SIDE_STYLE('',(#1152));
#1063=SURFACE_SIDE_STYLE('',(#1153));
#1064=SURFACE_SIDE_STYLE('',(#1154));
#1065=SURFACE_SIDE_STYLE('',(#1155));
#1066=SURFACE_SIDE_STYLE('',(#1156));
#1067=SURFACE_SIDE_STYLE('',(#1157));
#1068=SURFACE_SIDE_STYLE('',(#1158));
#1069=SURFACE_SIDE_STYLE('',(#1159));
#1070=SURFACE_SIDE_STYLE('',(#1160));
#1071=SURFACE_SIDE_STYLE('',(#1161));
#1072=SURFACE_SIDE_STYLE('',(#1162));
#1073=SURFACE_SIDE_STYLE('',(#1163));
#1074=SURFACE_SIDE_STYLE('',(#1164));
#1075=SURFACE_SIDE_STYLE('',(#1165));
#1076=SURFACE_SIDE_STYLE('',(#1166));
#1077=SURFACE_SIDE_STYLE('',(#1167));
#1078=SURFACE_SIDE_STYLE('',(#1168));
#1079=SURFACE_SIDE_STYLE('',(#1169));
#1080=SURFACE_SIDE_STYLE('',(#1170));
#1081=SURFACE_SIDE_STYLE('',(#1171));
#1082=SURFACE_SIDE_STYLE('',(#1172));
#1083=SURFACE_SIDE_STYLE('',(#1173));
#1084=SURFACE_SIDE_STYLE('',(#1174));
#1085=SURFACE_SIDE_STYLE('',(#1175));
#1086=SURFACE_STYLE_FILL_AREA(#1176);
#1087=SURFACE_STYLE_FILL_AREA(#1177);
#1088=SURFACE_STYLE_FILL_AREA(#1178);
#1089=SURFACE_STYLE_FILL_AREA(#1179);
#1090=SURFACE_STYLE_FILL_AREA(#1180);
#1091=SURFACE_STYLE_FILL_AREA(#1181);
#1092=SURFACE_STYLE_FILL_AREA(#1182);
#1093=SURFACE_STYLE_FILL_AREA(#1183);
#1094=SURFACE_STYLE_FILL_AREA(#1184);
#1095=SURFACE_STYLE_FILL_AREA(#1185);
#1096=SURFACE_STYLE_FILL_AREA(#1186);
#1097=SURFACE_STYLE_FILL_AREA(#1187);
#1098=SURFACE_STYLE_FILL_AREA(#1188);
#1099=SURFACE_STYLE_FILL_AREA(#1189);
#1100=SURFACE_STYLE_FILL_AREA(#1190);
#1101=SURFACE_STYLE_FILL_AREA(#1191);
#1102=SURFACE_STYLE_FILL_AREA(#1192);
#1103=SURFACE_STYLE_FILL_AREA(#1193);
#1104=SURFACE_STYLE_FILL_AREA(#1194);
#1105=SURFACE_STYLE_FILL_AREA(#1195);
#1106=SURFACE_STYLE_FILL_AREA(#1196);
#1107=SURFACE_STYLE_FILL_AREA(#1197);
#1108=SURFACE_STYLE_FILL_AREA(#1198);
#1109=SURFACE_STYLE_FILL_AREA(#1199);
#1110=SURFACE_STYLE_FILL_AREA(#1200);
#1111=SURFACE_STYLE_FILL_AREA(#1201);
#1112=SURFACE_STYLE_FILL_AREA(#1202);
#1113=SURFACE_STYLE_FILL_AREA(#1203);
#1114=SURFACE_STYLE_FILL_AREA(#1204);
#1115=SURFACE_STYLE_FILL_AREA(#1205);
#1116=SURFACE_STYLE_FILL_AREA(#1206);
#1117=SURFACE_STYLE_FILL_AREA(#1207);
#1118=SURFACE_STYLE_FILL_AREA(#1208);
#1119=SURFACE_STYLE_FILL_AREA(#1209);
#1120=SURFACE_STYLE_FILL_AREA(#1210);
#1121=SURFACE_STYLE_FILL_AREA(#1211);
#1122=SURFACE_STYLE_FILL_AREA(#1212);
#1123=SURFACE_STYLE_FILL_AREA(#1213);
#1124=SURFACE_STYLE_FILL_AREA(#1214);
#1125=SURFACE_STYLE_FILL_AREA(#1215);
#1126=SURFACE_STYLE_FILL_AREA(#1216);
#1127=SURFACE_STYLE_FILL_AREA(#1217);
#1128=SURFACE_STYLE_FILL_AREA(#1218);
#1129=SURFACE_STYLE_FILL_AREA(#1219);
#1130=SURFACE_STYLE_FILL_AREA(#1220);
#1131=SURFACE_STYLE_FILL_AREA(#1221);
#1132=SURFACE_STYLE_FILL_AREA(#1222);
#1133=SURFACE_STYLE_FILL_AREA(#1223);
#1134=SURFACE_STYLE_FILL_AREA(#1224);
#1135=SURFACE_STYLE_FILL_AREA(#1225);
#1136=SURFACE_STYLE_FILL_AREA(#1226);
#1137=SURFACE_STYLE_FILL_AREA(#1227);
#1138=SURFACE_STYLE_FILL_AREA(#1228);
#1139=SURFACE_STYLE_FILL_AREA(#1229);
#1140=SURFACE_STYLE_FILL_AREA(#1230);
#1141=SURFACE_STYLE_FILL_AREA(#1231);
#1142=SURFACE_STYLE_FILL_AREA(#1232);
#1143=SURFACE_STYLE_FILL_AREA(#1233);
#1144=SURFACE_STYLE_FILL_AREA(#1234);
#1145=SURFACE_STYLE_FILL_AREA(#1235);
#1146=SURFACE_STYLE_FILL_AREA(#1236);
#1147=SURFACE_STYLE_FILL_AREA(#1237);
#1148=SURFACE_STYLE_FILL_AREA(#1238);
#1149=SURFACE_STYLE_FILL_AREA(#1239);
#1150=SURFACE_STYLE_FILL_AREA(#1240);
#1151=SURFACE_STYLE_FILL_AREA(#1241);
#1152=SURFACE_STYLE_FILL_AREA(#1242);
#1153=SURFACE_STYLE_FILL_AREA(#1243);
#1154=SURFACE_STYLE_FILL_AREA(#1244);
#1155=SURFACE_STYLE_FILL_AREA(#1245);
#1156=SURFACE_STYLE_FILL_AREA(#1246);
#1157=SURFACE_STYLE_FILL_AREA(#1247);
#1158=SURFACE_STYLE_FILL_AREA(#1248);
#1159=SURFACE_STYLE_FILL_AREA(#1249);
#1160=SURFACE_STYLE_FILL_AREA(#1250);
#1161=SURFACE_STYLE_FILL_AREA(#1251);
#1162=SURFACE_STYLE_FILL_AREA(#1252);
#1163=SURFACE_STYLE_FILL_AREA(#1253);
#1164=SURFACE_STYLE_FILL_AREA(#1254);
#1165=SURFACE_STYLE_FILL_AREA(#1255);
#1166=SURFACE_STYLE_FILL_AREA(#1256);
#1167=SURFACE_STYLE_FILL_AREA(#1257);
#1168=SURFACE_STYLE_FILL_AREA(#1258);
#1169=SURFACE_STYLE_FILL_AREA(#1259);
#1170=SURFACE_STYLE_FILL_AREA(#1260);
#1171=SURFACE_STYLE_FILL_AREA(#1261);
#1172=SURFACE_STYLE_FILL_AREA(#1262);
#1173=SURFACE_STYLE_FILL_AREA(#1263);
#1174=SURFACE_STYLE_FILL_AREA(#1264);
#1175=SURFACE_STYLE_FILL_AREA(#1265);
#1176=FILL_AREA_STYLE('',(#1266));
#1177=FILL_AREA_STYLE('',(#1267));
#1178=FILL_AREA_STYLE('',(#1268));
#1179=FILL_AREA_STYLE('',(#1269));
#1180=FILL_AREA_STYLE('',(#1270));
#1181=FILL_AREA_STYLE('',(#1271));
#1182=FILL_AREA_STYLE('',(#1272));
#1183=FILL_AREA_STYLE('',(#1273));
#1184=FILL_AREA_STYLE('',(#1274));
#1185=FILL_AREA_STYLE('',(#1275));
#1186=FILL_AREA_STYLE('',(#1276));
#1187=FILL_AREA_STYLE('',(#1277));
#1188=FILL_AREA_STYLE('',(#1278));
#1189=FILL_AREA_STYLE('',(#1279));
#1190=FILL_AREA_STYLE('',(#1280));
#1191=FILL_AREA_STYLE('',(#1281));
#1192=FILL_AREA_STYLE('',(#1282));
#1193=FILL_AREA_STYLE('',(#1283));
#1194=FILL_AREA_STYLE('',(#1284));
#1195=FILL_AREA_STYLE('',(#1285));
#1196=FILL_AREA_STYLE('',(#1286));
#1197=FILL_AREA_STYLE('',(#1287));
#1198=FILL_AREA_STYLE('',(#1288));
#1199=FILL_AREA_STYLE('',(#1289));
#1200=FILL_AREA_STYLE('',(#1290));
#1201=FILL_AREA_STYLE('',(#1291));
#1202=FILL_AREA_STYLE('',(#1292));
#1203=FILL_AREA_STYLE('',(#1293));
#1204=FILL_AREA_STYLE('',(#1294));
#1205=FILL_AREA_STYLE('',(#1295));
#1206=FILL_AREA_STYLE('',(#1296));
#1207=FILL_AREA_STYLE('',(#1297));
#1208=FILL_AREA_STYLE('',(#1298));
#1209=FILL_AREA_STYLE('',(#1299));
#1210=FILL_AREA_STYLE('',(#1300));
#1211=FILL_AREA_STYLE('',(#1301));
#1212=FILL_AREA_STYLE('',(#1302));
#1213=FILL_AREA_STYLE('',(#1303));
#1214=FILL_AREA_STYLE('',(#1304));
#1215=FILL_AREA_STYLE('',(#1305));
#1216=FILL_AREA_STYLE('',(#1306));
#1217=FILL_AREA_STYLE('',(#1307));
#1218=FILL_AREA_STYLE('',(#1308));
#1219=FILL_AREA_STYLE('',(#1309));
#1220=FILL_AREA_STYLE('',(#1310));
#1221=FILL_AREA_STYLE('',(#1311));
#1222=FILL_AREA_STYLE('',(#1312));
#1223=FILL_AREA_STYLE('',(#1313));
#1224=FILL_AREA_STYLE('',(#1314));
#1225=FILL_AREA_STYLE('',(#1315));
#1226=FILL_AREA_STYLE('',(#1316));
#1227=FILL_AREA_STYLE('',(#1317));
#1228=FILL_AREA_STYLE('',(#1318));
#1229=FILL_AREA_STYLE('',(#1319));
#1230=FILL_AREA_STYLE('',(#1320));
#1231=FILL_AREA_STYLE('',(#1321));
#1232=FILL_AREA_STYLE('',(#1322));
#1233=FILL_AREA_STYLE('',(#1323));
#1234=FILL_AREA_STYLE('',(#1324));
#1235=FILL_AREA_STYLE('',(#1325));
#1236=FILL_AREA_STYLE('',(#1326));
#1237=FILL_AREA_STYLE('',(#1327));
#1238=FILL_AREA_STYLE('',(#1328));
#1239=FILL_AREA_STYLE('',(#1329));
#1240=FILL_AREA_STYLE('',(#1330));
#1241=FILL_AREA_STYLE('',(#1331));
#1242=FILL_AREA_STYLE('',(#1332));
#1243=FILL_AREA_STYLE('',(#1333));
#1244=FILL_AREA_STYLE('',(#1334));
#1245=FILL_AREA_STYLE('',(#1335));
#1246=FILL_AREA_STYLE('',(#1336));
#1247=FILL_AREA_STYLE('',(#1337));
#1248=FILL_AREA_STYLE('',(#1338));
#1249=FILL_AREA_STYLE('',(#1339));
#1250=FILL_AREA_STYLE('',(#1340));
#1251=FILL_AREA_STYLE('',(#1341));
#1252=FILL_AREA_STYLE('',(#1342));
#1253=FILL_AREA_STYLE('',(#1343));
#1254=FILL_AREA_STYLE('',(#1344));
#1255=FILL_AREA_STYLE('',(#1345));
#1256=FILL_AREA_STYLE('',(#1346));
#1257=FILL_AREA_STYLE('',(#1347));
#1258=FILL_AREA_STYLE('',(#1348));
#1259=FILL_AREA_STYLE('',(#1349));
#1260=FILL_AREA_STYLE('',(#1350));
#1261=FILL_AREA_STYLE('',(#1351));
#1262=FILL_AREA_STYLE('',(#1352));
#1263=FILL_AREA_STYLE('',(#1353));
#1264=FILL_AREA_STYLE('',(#1354));
#1265=FILL_AREA_STYLE('',(#1355));
#1266=FILL_AREA_STYLE_COLOUR('',#1356);
#1267=FILL_AREA_STYLE_COLOUR('',#1356);
#1268=FILL_AREA_STYLE_COLOUR('',#1356);
#1269=FILL_AREA_STYLE_COLOUR('',#1356);
#1270=FILL_AREA_STYLE_COLOUR('',#1356);
#1271=FILL_AREA_STYLE_COLOUR('',#1356);
#1272=FILL_AREA_STYLE_COLOUR('',#1356);
#1273=FILL_AREA_STYLE_COLOUR('',#1356);
#1274=FILL_AREA_STYLE_COLOUR('',#1356);
#1275=FILL_AREA_STYLE_COLOUR('',#1356);
#1276=FILL_AREA_STYLE_COLOUR('',#1356);
#1277=FILL_AREA_STYLE_COLOUR('',#1356);
#1278=FILL_AREA_STYLE_COLOUR('',#1356);
#1279=FILL_AREA_STYLE_COLOUR('',#1356);
#1280=FILL_AREA_STYLE_COLOUR('',#1356);
#1281=FILL_AREA_STYLE_COLOUR('',#1356);
#1282=FILL_AREA_STYLE_COLOUR('',#1356);
#1283=FILL_AREA_STYLE_COLOUR('',#1356);
#1284=FILL_AREA_STYLE_COLOUR('',#1356);
#1285=FILL_AREA_STYLE_COLOUR('',#1356);
#1286=FILL_AREA_STYLE_COLOUR('',#1356);
#1287=FILL_AREA_STYLE_COLOUR('',#1356);
#1288=FILL_AREA_STYLE_COLOUR('',#1356);
#1289=FILL_AREA_STYLE_COLOUR('',#1356);
#1290=FILL_AREA_STYLE_COLOUR('',#1356);
#1291=FILL_AREA_STYLE_COLOUR('',#1356);
#1292=FILL_AREA_STYLE_COLOUR('',#1356);
#1293=FILL_AREA_STYLE_COLOUR('',#1356);
#1294=FILL_AREA_STYLE_COLOUR('',#1356);
#1295=FILL_AREA_STYLE_COLOUR('',#1356);
#1296=FILL_AREA_STYLE_COLOUR('',#1356);
#1297=FILL_AREA_STYLE_COLOUR('',#1356);
#1298=FILL_AREA_STYLE_COLOUR('',#1356);
#1299=FILL_AREA_STYLE_COLOUR('',#1356);
#1300=FILL_AREA_STYLE_COLOUR('',#1356);
#1301=FILL_AREA_STYLE_COLOUR('',#1356);
#1302=FILL_AREA_STYLE_COLOUR('',#1356);
#1303=FILL_AREA_STYLE_COLOUR('',#1356);
#1304=FILL_AREA_STYLE_COLOUR('',#1356);
#1305=FILL_AREA_STYLE_COLOUR('',#1356);
#1306=FILL_AREA_STYLE_COLOUR('',#1356);
#1307=FILL_AREA_STYLE_COLOUR('',#1356);
#1308=FILL_AREA_STYLE_COLOUR('',#1356);
#1309=FILL_AREA_STYLE_COLOUR('',#1356);
#1310=FILL_AREA_STYLE_COLOUR('',#1356);
#1311=FILL_AREA_STYLE_COLOUR('',#1356);
#1312=FILL_AREA_STYLE_COLOUR('',#1356);
#1313=FILL_AREA_STYLE_COLOUR('',#1356);
#1314=FILL_AREA_STYLE_COLOUR('',#1356);
#1315=FILL_AREA_STYLE_COLOUR('',#1356);
#1316=FILL_AREA_STYLE_COLOUR('',#1356);
#1317=FILL_AREA_STYLE_COLOUR('',#1356);
#1318=FILL_AREA_STYLE_COLOUR('',#1356);
#1319=FILL_AREA_STYLE_COLOUR('',#1356);
#1320=FILL_AREA_STYLE_COLOUR('',#1356);
#1321=FILL_AREA_STYLE_COLOUR('',#1356);
#1322=FILL_AREA_STYLE_COLOUR('',#1356);
#1323=FILL_AREA_STYLE_COLOUR('',#1356);
#1324=FILL_AREA_STYLE_COLOUR('',#1356);
#1325=FILL_AREA_STYLE_COLOUR('',#1356);
#1326=FILL_AREA_STYLE_COLOUR('',#1356);
#1327=FILL_AREA_STYLE_COLOUR('',#1356);
#1328=FILL_AREA_STYLE_COLOUR('',#1356);
#1329=FILL_AREA_STYLE_COLOUR('',#1356);
#1330=FILL_AREA_STYLE_COLOUR('',#1356);
#1331=FILL_AREA_STYLE_COLOUR('',#1356);
#1332=FILL_AREA_STYLE_COLOUR('',#1356);
#1333=FILL_AREA_STYLE_COLOUR('',#1356);
#1334=FILL_AREA_STYLE_COLOUR('',#1356);
#1335=FILL_AREA_STYLE_COLOUR('',#1356);
#1336=FILL_AREA_STYLE_COLOUR('',#1356);
#1337=FILL_AREA_STYLE_COLOUR('',#1356);
#1338=FILL_AREA_STYLE_COLOUR('',#1356);
#1339=FILL_AREA_STYLE_COLOUR('',#1356);
#1340=FILL_AREA_STYLE_COLOUR('',#1356);
#1341=FILL_AREA_STYLE_COLOUR('',#1356);
#1342=FILL_AREA_STYLE_COLOUR('',#1356);
#1343=FILL_AREA_STYLE_COLOUR('',#1356);
#1344=FILL_AREA_STYLE_COLOUR('',#1356);
#1345=FILL_AREA_STYLE_COLOUR('',#1356);
#1346=FILL_AREA_STYLE_COLOUR('',#1356);
#1347=FILL_AREA_STYLE_COLOUR('',#1356);
#1348=FILL_AREA_STYLE_COLOUR('',#1356);
#1349=FILL_AREA_STYLE_COLOUR('',#1356);
#1350=FILL_AREA_STYLE_COLOUR('',#1356);
#1351=FILL_AREA_STYLE_COLOUR('',#1356);
#1352=FILL_AREA_STYLE_COLOUR('',#1356);
#1353=FILL_AREA_STYLE_COLOUR('',#1356);
#1354=FILL_AREA_STYLE_COLOUR('',#1356);
#1355=FILL_AREA_STYLE_COLOUR('',#1356);
#1356=COLOUR_RGB('',0.506983280181885,0.531564235687256,0.550000011920929);
#1357=MANIFOLD_SOLID_BREP('',#636);
#1358=MANIFOLD_SOLID_BREP('',#637);
#1359=MANIFOLD_SOLID_BREP('',#638);
#1360=MANIFOLD_SOLID_BREP('',#639);
#1361=MANIFOLD_SOLID_BREP('',#640);
#1362=MANIFOLD_SOLID_BREP('',#641);
#1363=MANIFOLD_SOLID_BREP('',#642);
#1364=MANIFOLD_SOLID_BREP('',#643);
#1365=MANIFOLD_SOLID_BREP('',#644);
#1366=MANIFOLD_SOLID_BREP('',#645);
#1367=MANIFOLD_SOLID_BREP('',#646);
#1368=MANIFOLD_SOLID_BREP('',#647);
#1369=MANIFOLD_SOLID_BREP('',#648);
#1370=MANIFOLD_SOLID_BREP('',#649);
#1371=MANIFOLD_SOLID_BREP('',#650);
#1372=MANIFOLD_SOLID_BREP('',#651);
#1373=MANIFOLD_SOLID_BREP('',#652);
#1374=MANIFOLD_SOLID_BREP('',#653);
#1375=MANIFOLD_SOLID_BREP('',#654);
#1376=MANIFOLD_SOLID_BREP('',#655);
#1377=MANIFOLD_SOLID_BREP('',#656);
#1378=MANIFOLD_SOLID_BREP('',#657);
#1379=MANIFOLD_SOLID_BREP('',#658);
#1380=MANIFOLD_SOLID_BREP('',#659);
#1381=MANIFOLD_SOLID_BREP('',#660);
#1382=MANIFOLD_SOLID_BREP('',#661);
#1383=MANIFOLD_SOLID_BREP('',#662);
#1384=MANIFOLD_SOLID_BREP('',#663);
#1385=MANIFOLD_SOLID_BREP('',#664);
#1386=MANIFOLD_SOLID_BREP('',#665);
#1387=MANIFOLD_SOLID_BREP('',#666);
#1388=MANIFOLD_SOLID_BREP('',#667);
#1389=MANIFOLD_SOLID_BREP('',#668);
#1390=MANIFOLD_SOLID_BREP('',#669);
#1391=MANIFOLD_SOLID_BREP('',#670);
#1392=MANIFOLD_SOLID_BREP('',#671);
#1393=MANIFOLD_SOLID_BREP('',#672);
#1394=MANIFOLD_SOLID_BREP('',#673);
#1395=MANIFOLD_SOLID_BREP('',#674);
#1396=MANIFOLD_SOLID_BREP('',#675);
#1397=MANIFOLD_SOLID_BREP('',#676);
#1398=MANIFOLD_SOLID_BREP('',#677);
#1399=MANIFOLD_SOLID_BREP('',#678);
#1400=MANIFOLD_SOLID_BREP('',#679);
#1401=MANIFOLD_SOLID_BREP('',#680);
#1402=MANIFOLD_SOLID_BREP('',#681);
#1403=MANIFOLD_SOLID_BREP('',#682);
#1404=MANIFOLD_SOLID_BREP('',#683);
#1405=MANIFOLD_SOLID_BREP('',#684);
#1406=MANIFOLD_SOLID_BREP('',#685);
#1407=MANIFOLD_SOLID_BREP('',#686);
#1408=MANIFOLD_SOLID_BREP('',#687);
#1409=MANIFOLD_SOLID_BREP('',#688);
#1410=MANIFOLD_SOLID_BREP('',#689);
#1411=MANIFOLD_SOLID_BREP('',#690);
#1412=MANIFOLD_SOLID_BREP('',#691);
#1413=MANIFOLD_SOLID_BREP('',#692);
#1414=MANIFOLD_SOLID_BREP('',#693);
#1415=MANIFOLD_SOLID_BREP('',#694);
#1416=MANIFOLD_SOLID_BREP('',#695);
#1417=MANIFOLD_SOLID_BREP('',#696);
#1418=MANIFOLD_SOLID_BREP('',#697);
#1419=MANIFOLD_SOLID_BREP('',#698);
#1420=MANIFOLD_SOLID_BREP('',#699);
#1421=MANIFOLD_SOLID_BREP('',#700);
#1422=MANIFOLD_SOLID_BREP('',#701);
#1423=MANIFOLD_SOLID_BREP('',#702);
#1424=MANIFOLD_SOLID_BREP('',#703);
#1425=MANIFOLD_SOLID_BREP('',#704);
#1426=MANIFOLD_SOLID_BREP('',#705);
#1427=MANIFOLD_SOLID_BREP('',#706);
#1428=MANIFOLD_SOLID_BREP('',#707);
#1429=MANIFOLD_SOLID_BREP('',#708);
#1430=MANIFOLD_SOLID_BREP('',#709);
#1431=MANIFOLD_SOLID_BREP('',#710);
#1432=MANIFOLD_SOLID_BREP('',#711);
#1433=MANIFOLD_SOLID_BREP('',#712);
#1434=MANIFOLD_SOLID_BREP('',#713);
#1435=MANIFOLD_SOLID_BREP('',#714);
#1436=MANIFOLD_SOLID_BREP('',#715);
#1437=MANIFOLD_SOLID_BREP('',#716);
#1438=MANIFOLD_SOLID_BREP('',#717);
#1439=MANIFOLD_SOLID_BREP('',#718);
#1440=MANIFOLD_SOLID_BREP('',#719);
#1441=MANIFOLD_SOLID_BREP('',#720);
#1442=MANIFOLD_SOLID_BREP('',#721);
#1443=MANIFOLD_SOLID_BREP('',#722);
#1444=MANIFOLD_SOLID_BREP('',#723);
#1445=MANIFOLD_SOLID_BREP('',#724);
#1446=MANIFOLD_SOLID_BREP('',#725);
#1447=SHAPE_DEFINITION_REPRESENTATION(#2043,#1448);
#1448=SHAPE_REPRESENTATION('\X2\570667F15B548C035FC374038F74627F\X0\10
000\X2\578B\X0\',(#1449),#2038);
#1449=AXIS2_PLACEMENT_3D('',#1812,#1570,#1571);
#1450=AXIS2_PLACEMENT_3D('',#1813,#1572,#1573);
#1451=AXIS2_PLACEMENT_3D('',#1815,#1574,#1575);
#1452=AXIS2_PLACEMENT_3D('',#1817,#1576,#1577);
#1453=AXIS2_PLACEMENT_3D('',#1819,#1578,#1579);
#1454=AXIS2_PLACEMENT_3D('',#1821,#1580,#1581);
#1455=AXIS2_PLACEMENT_3D('',#1823,#1582,#1583);
#1456=AXIS2_PLACEMENT_3D('',#1825,#1584,#1585);
#1457=AXIS2_PLACEMENT_3D('',#1827,#1586,#1587);
#1458=AXIS2_PLACEMENT_3D('',#1829,#1588,#1589);
#1459=AXIS2_PLACEMENT_3D('',#1831,#1590,#1591);
#1460=AXIS2_PLACEMENT_3D('',#1833,#1592,#1593);
#1461=AXIS2_PLACEMENT_3D('',#1835,#1594,#1595);
#1462=AXIS2_PLACEMENT_3D('',#1837,#1596,#1597);
#1463=AXIS2_PLACEMENT_3D('',#1839,#1598,#1599);
#1464=AXIS2_PLACEMENT_3D('',#1841,#1600,#1601);
#1465=AXIS2_PLACEMENT_3D('',#1843,#1602,#1603);
#1466=AXIS2_PLACEMENT_3D('',#1845,#1604,#1605);
#1467=AXIS2_PLACEMENT_3D('',#1847,#1606,#1607);
#1468=AXIS2_PLACEMENT_3D('',#1849,#1608,#1609);
#1469=AXIS2_PLACEMENT_3D('',#1851,#1610,#1611);
#1470=AXIS2_PLACEMENT_3D('',#1853,#1612,#1613);
#1471=AXIS2_PLACEMENT_3D('',#1855,#1614,#1615);
#1472=AXIS2_PLACEMENT_3D('',#1857,#1616,#1617);
#1473=AXIS2_PLACEMENT_3D('',#1859,#1618,#1619);
#1474=AXIS2_PLACEMENT_3D('',#1861,#1620,#1621);
#1475=AXIS2_PLACEMENT_3D('',#1863,#1622,#1623);
#1476=AXIS2_PLACEMENT_3D('',#1865,#1624,#1625);
#1477=AXIS2_PLACEMENT_3D('',#1867,#1626,#1627);
#1478=AXIS2_PLACEMENT_3D('',#1869,#1628,#1629);
#1479=AXIS2_PLACEMENT_3D('',#1871,#1630,#1631);
#1480=AXIS2_PLACEMENT_3D('',#1873,#1632,#1633);
#1481=AXIS2_PLACEMENT_3D('',#1875,#1634,#1635);
#1482=AXIS2_PLACEMENT_3D('',#1877,#1636,#1637);
#1483=AXIS2_PLACEMENT_3D('',#1879,#1638,#1639);
#1484=AXIS2_PLACEMENT_3D('',#1881,#1640,#1641);
#1485=AXIS2_PLACEMENT_3D('',#1883,#1642,#1643);
#1486=AXIS2_PLACEMENT_3D('',#1885,#1644,#1645);
#1487=AXIS2_PLACEMENT_3D('',#1887,#1646,#1647);
#1488=AXIS2_PLACEMENT_3D('',#1889,#1648,#1649);
#1489=AXIS2_PLACEMENT_3D('',#1891,#1650,#1651);
#1490=AXIS2_PLACEMENT_3D('',#1893,#1652,#1653);
#1491=AXIS2_PLACEMENT_3D('',#1895,#1654,#1655);
#1492=AXIS2_PLACEMENT_3D('',#1897,#1656,#1657);
#1493=AXIS2_PLACEMENT_3D('',#1899,#1658,#1659);
#1494=AXIS2_PLACEMENT_3D('',#1901,#1660,#1661);
#1495=AXIS2_PLACEMENT_3D('',#1903,#1662,#1663);
#1496=AXIS2_PLACEMENT_3D('',#1905,#1664,#1665);
#1497=AXIS2_PLACEMENT_3D('',#1907,#1666,#1667);
#1498=AXIS2_PLACEMENT_3D('',#1909,#1668,#1669);
#1499=AXIS2_PLACEMENT_3D('',#1911,#1670,#1671);
#1500=AXIS2_PLACEMENT_3D('',#1913,#1672,#1673);
#1501=AXIS2_PLACEMENT_3D('',#1915,#1674,#1675);
#1502=AXIS2_PLACEMENT_3D('',#1917,#1676,#1677);
#1503=AXIS2_PLACEMENT_3D('',#1919,#1678,#1679);
#1504=AXIS2_PLACEMENT_3D('',#1921,#1680,#1681);
#1505=AXIS2_PLACEMENT_3D('',#1923,#1682,#1683);
#1506=AXIS2_PLACEMENT_3D('',#1925,#1684,#1685);
#1507=AXIS2_PLACEMENT_3D('',#1927,#1686,#1687);
#1508=AXIS2_PLACEMENT_3D('',#1929,#1688,#1689);
#1509=AXIS2_PLACEMENT_3D('',#1931,#1690,#1691);
#1510=AXIS2_PLACEMENT_3D('',#1933,#1692,#1693);
#1511=AXIS2_PLACEMENT_3D('',#1935,#1694,#1695);
#1512=AXIS2_PLACEMENT_3D('',#1937,#1696,#1697);
#1513=AXIS2_PLACEMENT_3D('',#1939,#1698,#1699);
#1514=AXIS2_PLACEMENT_3D('',#1941,#1700,#1701);
#1515=AXIS2_PLACEMENT_3D('',#1943,#1702,#1703);
#1516=AXIS2_PLACEMENT_3D('',#1945,#1704,#1705);
#1517=AXIS2_PLACEMENT_3D('',#1947,#1706,#1707);
#1518=AXIS2_PLACEMENT_3D('',#1949,#1708,#1709);
#1519=AXIS2_PLACEMENT_3D('',#1951,#1710,#1711);
#1520=AXIS2_PLACEMENT_3D('',#1953,#1712,#1713);
#1521=AXIS2_PLACEMENT_3D('',#1955,#1714,#1715);
#1522=AXIS2_PLACEMENT_3D('',#1957,#1716,#1717);
#1523=AXIS2_PLACEMENT_3D('',#1959,#1718,#1719);
#1524=AXIS2_PLACEMENT_3D('',#1961,#1720,#1721);
#1525=AXIS2_PLACEMENT_3D('',#1963,#1722,#1723);
#1526=AXIS2_PLACEMENT_3D('',#1965,#1724,#1725);
#1527=AXIS2_PLACEMENT_3D('',#1967,#1726,#1727);
#1528=AXIS2_PLACEMENT_3D('',#1969,#1728,#1729);
#1529=AXIS2_PLACEMENT_3D('',#1971,#1730,#1731);
#1530=AXIS2_PLACEMENT_3D('',#1973,#1732,#1733);
#1531=AXIS2_PLACEMENT_3D('',#1975,#1734,#1735);
#1532=AXIS2_PLACEMENT_3D('',#1977,#1736,#1737);
#1533=AXIS2_PLACEMENT_3D('',#1979,#1738,#1739);
#1534=AXIS2_PLACEMENT_3D('',#1981,#1740,#1741);
#1535=AXIS2_PLACEMENT_3D('',#1983,#1742,#1743);
#1536=AXIS2_PLACEMENT_3D('',#1985,#1744,#1745);
#1537=AXIS2_PLACEMENT_3D('',#1987,#1746,#1747);
#1538=AXIS2_PLACEMENT_3D('',#1988,#1748,#1749);
#1539=AXIS2_PLACEMENT_3D('',#1990,#1750,#1751);
#1540=AXIS2_PLACEMENT_3D('',#1992,#1752,#1753);
#1541=AXIS2_PLACEMENT_3D('',#1993,#1754,#1755);
#1542=AXIS2_PLACEMENT_3D('',#1995,#1756,#1757);
#1543=AXIS2_PLACEMENT_3D('',#1997,#1758,#1759);
#1544=AXIS2_PLACEMENT_3D('',#1998,#1760,#1761);
#1545=AXIS2_PLACEMENT_3D('',#2000,#1762,#1763);
#1546=AXIS2_PLACEMENT_3D('',#2002,#1764,#1765);
#1547=AXIS2_PLACEMENT_3D('',#2003,#1766,#1767);
#1548=AXIS2_PLACEMENT_3D('',#2005,#1768,#1769);
#1549=AXIS2_PLACEMENT_3D('',#2006,#1770,#1771);
#1550=AXIS2_PLACEMENT_3D('',#2008,#1772,#1773);
#1551=AXIS2_PLACEMENT_3D('',#2009,#1774,#1775);
#1552=AXIS2_PLACEMENT_3D('',#2011,#1776,#1777);
#1553=AXIS2_PLACEMENT_3D('',#2012,#1778,#1779);
#1554=AXIS2_PLACEMENT_3D('',#2014,#1780,#1781);
#1555=AXIS2_PLACEMENT_3D('',#2015,#1782,#1783);
#1556=AXIS2_PLACEMENT_3D('',#2016,#1784,#1785);
#1557=AXIS2_PLACEMENT_3D('',#2017,#1786,#1787);
#1558=AXIS2_PLACEMENT_3D('',#2018,#1788,#1789);
#1559=AXIS2_PLACEMENT_3D('',#2020,#1790,#1791);
#1560=AXIS2_PLACEMENT_3D('',#2022,#1792,#1793);
#1561=AXIS2_PLACEMENT_3D('',#2023,#1794,#1795);
#1562=AXIS2_PLACEMENT_3D('',#2025,#1796,#1797);
#1563=AXIS2_PLACEMENT_3D('',#2026,#1798,#1799);
#1564=AXIS2_PLACEMENT_3D('',#2028,#1800,#1801);
#1565=AXIS2_PLACEMENT_3D('',#2030,#1802,#1803);
#1566=AXIS2_PLACEMENT_3D('',#2031,#1804,#1805);
#1567=AXIS2_PLACEMENT_3D('',#2033,#1806,#1807);
#1568=AXIS2_PLACEMENT_3D('',#2034,#1808,#1809);
#1569=AXIS2_PLACEMENT_3D('',#2035,#1810,#1811);
#1570=DIRECTION('',(0.,0.,1.));
#1571=DIRECTION('',(1.,0.,0.));
#1572=DIRECTION('',(4.0563430916898E-16,0.142314838273287,-0.989821441880932));
#1573=DIRECTION('',(-1.,5.772778110748E-17,-4.01505536778016E-16));
#1574=DIRECTION('',(-4.0563430916898E-16,0.142314838273287,-0.989821441880932));
#1575=DIRECTION('',(1.,5.772778110748E-17,-4.01505536778016E-16));
#1576=DIRECTION('',(4.0563430916898E-16,0.415415013001888,-0.909631995354518));
#1577=DIRECTION('',(-1.,1.68506581817444E-16,-3.68977946033631E-16));
#1578=DIRECTION('',(-4.0563430916898E-16,0.415415013001888,-0.909631995354518));
#1579=DIRECTION('',(1.,1.68506581817444E-16,-3.68977946033631E-16));
#1580=DIRECTION('',(4.0563430916898E-16,0.654860733945286,-0.755749574354257));
#1581=DIRECTION('',(-1.,2.65633981415788E-16,-3.0655795649794E-16));
#1582=DIRECTION('',(-4.0563430916898E-16,0.654860733945286,-0.755749574354257));
#1583=DIRECTION('',(1.,2.65633981415788E-16,-3.0655795649794E-16));
#1584=DIRECTION('',(4.0563430916898E-16,0.841253532831182,-0.540640817455596));
#1585=DIRECTION('',(-1.,3.41241295625941E-16,-2.19302464497154E-16));
#1586=DIRECTION('',(-4.0563430916898E-16,0.841253532831182,-0.540640817455596));
#1587=DIRECTION('',(1.,3.41241295625941E-16,-2.19302464497154E-16));
#1588=DIRECTION('',(4.0563430916898E-16,0.959492973614498,-0.281732556841429));
#1589=DIRECTION('',(-1.,3.89203269504608E-16,-1.14280391064783E-16));
#1590=DIRECTION('',(-4.0563430916898E-16,0.959492973614498,-0.281732556841429));
#1591=DIRECTION('',(1.,3.89203269504608E-16,-1.14280391064783E-16));
#1592=DIRECTION('',(4.0563430916898E-16,1.,1.04899068466779E-15));
#1593=DIRECTION('',(-1.,4.0563430916898E-16,4.25506611699914E-31));
#1594=DIRECTION('',(-4.0563430916898E-16,1.,1.04899068466779E-15));
#1595=DIRECTION('',(1.,4.0563430916898E-16,4.25506611699914E-31));
#1596=DIRECTION('',(4.0563430916898E-16,0.959492973614497,0.281732556841431));
#1597=DIRECTION('',(-1.,3.89203269504607E-16,1.14280391064784E-16));
#1598=DIRECTION('',(-4.0563430916898E-16,0.959492973614497,0.281732556841431));
#1599=DIRECTION('',(1.,3.89203269504607E-16,1.14280391064784E-16));
#1600=DIRECTION('',(4.0563430916898E-16,0.841253532831181,0.540640817455598));
#1601=DIRECTION('',(-1.,3.4124129562594E-16,2.19302464497154E-16));
#1602=DIRECTION('',(-4.0563430916898E-16,0.841253532831181,0.540640817455598));
#1603=DIRECTION('',(1.,3.4124129562594E-16,2.19302464497154E-16));
#1604=DIRECTION('',(4.0563430916898E-16,0.654860733945285,0.755749574354259));
#1605=DIRECTION('',(-1.,2.65633981415787E-16,3.06557956497941E-16));
#1606=DIRECTION('',(-4.0563430916898E-16,0.654860733945285,0.755749574354259));
#1607=DIRECTION('',(1.,2.65633981415787E-16,3.06557956497941E-16));
#1608=DIRECTION('',(4.0563430916898E-16,0.415415013001886,0.909631995354519));
#1609=DIRECTION('',(-1.,1.68506581817443E-16,3.68977946033631E-16));
#1610=DIRECTION('',(-4.0563430916898E-16,0.415415013001886,0.909631995354519));
#1611=DIRECTION('',(1.,1.68506581817443E-16,3.68977946033631E-16));
#1612=DIRECTION('',(4.0563430916898E-16,0.142314838273285,0.989821441880933));
#1613=DIRECTION('',(-1.,5.7727781107479E-17,4.01505536778016E-16));
#1614=DIRECTION('',(-4.0563430916898E-16,0.142314838273285,0.989821441880933));
#1615=DIRECTION('',(1.,5.7727781107479E-17,4.01505536778016E-16));
#1616=DIRECTION('',(4.0563430916898E-16,-0.142314838273285,0.989821441880933));
#1617=DIRECTION('',(-1.,-5.77277811074791E-17,4.01505536778016E-16));
#1618=DIRECTION('',(-4.0563430916898E-16,-0.142314838273285,0.989821441880933));
#1619=DIRECTION('',(1.,-5.77277811074791E-17,4.01505536778016E-16));
#1620=DIRECTION('',(4.0563430916898E-16,-0.415415013001886,0.909631995354519));
#1621=DIRECTION('',(-1.,-1.68506581817443E-16,3.68977946033631E-16));
#1622=DIRECTION('',(-4.0563430916898E-16,-0.415415013001886,0.909631995354519));
#1623=DIRECTION('',(1.,-1.68506581817443E-16,3.68977946033631E-16));
#1624=DIRECTION('',(4.0563430916898E-16,-0.654860733945285,0.755749574354258));
#1625=DIRECTION('',(-1.,-2.65633981415787E-16,3.06557956497941E-16));
#1626=DIRECTION('',(-4.0563430916898E-16,-0.654860733945285,0.755749574354258));
#1627=DIRECTION('',(1.,-2.65633981415787E-16,3.06557956497941E-16));
#1628=DIRECTION('',(4.0563430916898E-16,-0.841253532831181,0.540640817455597));
#1629=DIRECTION('',(-1.,-3.4124129562594E-16,2.19302464497154E-16));
#1630=DIRECTION('',(-4.0563430916898E-16,-0.841253532831181,0.540640817455597));
#1631=DIRECTION('',(1.,-3.4124129562594E-16,2.19302464497154E-16));
#1632=DIRECTION('',(4.0563430916898E-16,-0.959492973614497,0.28173255684143));
#1633=DIRECTION('',(-1.,-3.89203269504607E-16,1.14280391064784E-16));
#1634=DIRECTION('',(-4.0563430916898E-16,-0.959492973614497,0.28173255684143));
#1635=DIRECTION('',(1.,-3.89203269504607E-16,1.14280391064784E-16));
#1636=DIRECTION('',(4.0563430916898E-16,-1.,1.83697019872103E-16));
#1637=DIRECTION('',(-1.,-4.0563430916898E-16,7.4513813752221E-32));
#1638=DIRECTION('',(-4.0563430916898E-16,-1.,1.83697019872103E-16));
#1639=DIRECTION('',(1.,-4.0563430916898E-16,7.4513813752221E-32));
#1640=DIRECTION('',(4.0563430916898E-16,-0.959492973614497,-0.281732556841429));
#1641=DIRECTION('',(-1.,-3.89203269504607E-16,-1.14280391064784E-16));
#1642=DIRECTION('',(-4.0563430916898E-16,-0.959492973614497,-0.281732556841429));
#1643=DIRECTION('',(1.,-3.89203269504607E-16,-1.14280391064784E-16));
#1644=DIRECTION('',(4.0563430916898E-16,-0.841253532831181,-0.540640817455597));
#1645=DIRECTION('',(-1.,-3.4124129562594E-16,-2.19302464497154E-16));
#1646=DIRECTION('',(-4.0563430916898E-16,-0.841253532831181,-0.540640817455597));
#1647=DIRECTION('',(1.,-3.4124129562594E-16,-2.19302464497154E-16));
#1648=DIRECTION('',(4.0563430916898E-16,-0.654860733945285,-0.755749574354258));
#1649=DIRECTION('',(-1.,-2.65633981415787E-16,-3.06557956497941E-16));
#1650=DIRECTION('',(-4.0563430916898E-16,-0.654860733945285,-0.755749574354258));
#1651=DIRECTION('',(1.,-2.65633981415787E-16,-3.06557956497941E-16));
#1652=DIRECTION('',(4.0563430916898E-16,-0.415415013001886,-0.909631995354518));
#1653=DIRECTION('',(-1.,-1.68506581817443E-16,-3.68977946033631E-16));
#1654=DIRECTION('',(-4.0563430916898E-16,-0.415415013001886,-0.909631995354518));
#1655=DIRECTION('',(1.,-1.68506581817443E-16,-3.68977946033631E-16));
#1656=DIRECTION('',(4.0563430916898E-16,-0.142314838273285,-0.989821441880933));
#1657=DIRECTION('',(-1.,-5.77277811074793E-17,-4.01505536778016E-16));
#1658=DIRECTION('',(-4.0563430916898E-16,-0.142314838273285,-0.989821441880933));
#1659=DIRECTION('',(1.,-5.77277811074793E-17,-4.01505536778016E-16));
#1660=DIRECTION('',(4.0563430916898E-16,0.281732556841431,-0.959492973614497));
#1661=DIRECTION('',(-1.,1.14280391064785E-16,-3.89203269504607E-16));
#1662=DIRECTION('',(-4.0563430916898E-16,0.281732556841431,-0.959492973614497));
#1663=DIRECTION('',(1.,1.14280391064785E-16,-3.89203269504607E-16));
#1664=DIRECTION('',(4.0563430916898E-16,0.540640817455599,-0.84125353283118));
#1665=DIRECTION('',(-1.,2.19302464497155E-16,-3.4124129562594E-16));
#1666=DIRECTION('',(-4.0563430916898E-16,0.540640817455599,-0.84125353283118));
#1667=DIRECTION('',(1.,2.19302464497155E-16,-3.4124129562594E-16));
#1668=DIRECTION('',(4.0563430916898E-16,0.755749574354259,-0.654860733945284));
#1669=DIRECTION('',(-1.,3.06557956497941E-16,-2.65633981415787E-16));
#1670=DIRECTION('',(-4.0563430916898E-16,0.755749574354259,-0.654860733945284));
#1671=DIRECTION('',(1.,3.06557956497941E-16,-2.65633981415787E-16));
#1672=DIRECTION('',(4.0563430916898E-16,0.909631995354519,-0.415415013001885));
#1673=DIRECTION('',(-1.,3.68977946033631E-16,-1.68506581817443E-16));
#1674=DIRECTION('',(-4.0563430916898E-16,0.909631995354519,-0.415415013001885));
#1675=DIRECTION('',(1.,3.68977946033631E-16,-1.68506581817443E-16));
#1676=DIRECTION('',(4.0563430916898E-16,0.989821441880933,-0.142314838273284));
#1677=DIRECTION('',(-1.,4.01505536778016E-16,-5.77277811074787E-17));
#1678=DIRECTION('',(-4.0563430916898E-16,0.989821441880933,-0.142314838273284));
#1679=DIRECTION('',(1.,4.01505536778016E-16,-5.77277811074787E-17));
#1680=DIRECTION('',(4.0563430916898E-16,0.989821441880933,0.142314838273286));
#1681=DIRECTION('',(-1.,4.01505536778016E-16,5.77277811074796E-17));
#1682=DIRECTION('',(-4.0563430916898E-16,0.989821441880933,0.142314838273286));
#1683=DIRECTION('',(1.,4.01505536778016E-16,5.77277811074796E-17));
#1684=DIRECTION('',(4.0563430916898E-16,0.909631995354518,0.415415013001887));
#1685=DIRECTION('',(-1.,3.68977946033631E-16,1.68506581817444E-16));
#1686=DIRECTION('',(-4.0563430916898E-16,0.909631995354518,0.415415013001887));
#1687=DIRECTION('',(1.,3.68977946033631E-16,1.68506581817444E-16));
#1688=DIRECTION('',(4.0563430916898E-16,0.755749574354258,0.654860733945286));
#1689=DIRECTION('',(-1.,3.0655795649794E-16,2.65633981415787E-16));
#1690=DIRECTION('',(-4.0563430916898E-16,0.755749574354258,0.654860733945286));
#1691=DIRECTION('',(1.,3.0655795649794E-16,2.65633981415787E-16));
#1692=DIRECTION('',(4.0563430916898E-16,0.540640817455597,0.841253532831181));
#1693=DIRECTION('',(-1.,2.19302464497154E-16,3.4124129562594E-16));
#1694=DIRECTION('',(-4.0563430916898E-16,0.540640817455597,0.841253532831181));
#1695=DIRECTION('',(1.,2.19302464497154E-16,3.4124129562594E-16));
#1696=DIRECTION('',(4.0563430916898E-16,0.281732556841429,0.959492973614497));
#1697=DIRECTION('',(-1.,1.14280391064784E-16,3.89203269504607E-16));
#1698=DIRECTION('',(-4.0563430916898E-16,0.281732556841429,0.959492973614497));
#1699=DIRECTION('',(1.,1.14280391064784E-16,3.89203269504607E-16));
#1700=DIRECTION('',(4.0563430916898E-16,1.22464679914735E-16,1.));
#1701=DIRECTION('',(-1.,4.9675875834814E-32,4.0563430916898E-16));
#1702=DIRECTION('',(-4.0563430916898E-16,1.22464679914735E-16,1.));
#1703=DIRECTION('',(1.,4.9675875834814E-32,4.0563430916898E-16));
#1704=DIRECTION('',(4.0563430916898E-16,-0.281732556841429,0.959492973614497));
#1705=DIRECTION('',(-1.,-1.14280391064784E-16,3.89203269504607E-16));
#1706=DIRECTION('',(-4.0563430916898E-16,-0.281732556841429,0.959492973614497));
#1707=DIRECTION('',(1.,-1.14280391064784E-16,3.89203269504607E-16));
#1708=DIRECTION('',(4.0563430916898E-16,-0.540640817455597,0.841253532831181));
#1709=DIRECTION('',(-1.,-2.19302464497154E-16,3.4124129562594E-16));
#1710=DIRECTION('',(-4.0563430916898E-16,-0.540640817455597,0.841253532831181));
#1711=DIRECTION('',(1.,-2.19302464497154E-16,3.4124129562594E-16));
#1712=DIRECTION('',(4.0563430916898E-16,-0.755749574354258,0.654860733945285));
#1713=DIRECTION('',(-1.,-3.0655795649794E-16,2.65633981415787E-16));
#1714=DIRECTION('',(-4.0563430916898E-16,-0.755749574354258,0.654860733945285));
#1715=DIRECTION('',(1.,-3.0655795649794E-16,2.65633981415787E-16));
#1716=DIRECTION('',(4.0563430916898E-16,-0.909631995354518,0.415415013001886));
#1717=DIRECTION('',(-1.,-3.68977946033631E-16,1.68506581817443E-16));
#1718=DIRECTION('',(-4.0563430916898E-16,-0.909631995354518,0.415415013001886));
#1719=DIRECTION('',(1.,-3.68977946033631E-16,1.68506581817443E-16));
#1720=DIRECTION('',(4.0563430916898E-16,-0.989821441880933,0.142314838273285));
#1721=DIRECTION('',(-1.,-4.01505536778016E-16,5.77277811074792E-17));
#1722=DIRECTION('',(-4.0563430916898E-16,-0.989821441880933,0.142314838273285));
#1723=DIRECTION('',(1.,-4.01505536778016E-16,5.77277811074792E-17));
#1724=DIRECTION('',(4.0563430916898E-16,-0.989821441880933,-0.142314838273285));
#1725=DIRECTION('',(-1.,-4.01505536778016E-16,-5.77277811074791E-17));
#1726=DIRECTION('',(-4.0563430916898E-16,-0.989821441880933,-0.142314838273285));
#1727=DIRECTION('',(1.,-4.01505536778016E-16,-5.77277811074791E-17));
#1728=DIRECTION('',(4.0563430916898E-16,-0.909631995354518,-0.415415013001887));
#1729=DIRECTION('',(-1.,-3.68977946033631E-16,-1.68506581817443E-16));
#1730=DIRECTION('',(-4.0563430916898E-16,-0.909631995354518,-0.415415013001887));
#1731=DIRECTION('',(1.,-3.68977946033631E-16,-1.68506581817443E-16));
#1732=DIRECTION('',(4.0563430916898E-16,-0.755749574354258,-0.654860733945285));
#1733=DIRECTION('',(-1.,-3.0655795649794E-16,-2.65633981415787E-16));
#1734=DIRECTION('',(-4.0563430916898E-16,-0.755749574354258,-0.654860733945285));
#1735=DIRECTION('',(1.,-3.0655795649794E-16,-2.65633981415787E-16));
#1736=DIRECTION('',(4.0563430916898E-16,-0.540640817455597,-0.841253532831181));
#1737=DIRECTION('',(-1.,-2.19302464497154E-16,-3.4124129562594E-16));
#1738=DIRECTION('',(-4.0563430916898E-16,-0.540640817455597,-0.841253532831181));
#1739=DIRECTION('',(1.,-2.19302464497154E-16,-3.4124129562594E-16));
#1740=DIRECTION('',(4.0563430916898E-16,-0.28173255684143,-0.959492973614497));
#1741=DIRECTION('',(-1.,-1.14280391064784E-16,-3.89203269504607E-16));
#1742=DIRECTION('',(-4.0563430916898E-16,-0.28173255684143,-0.959492973614497));
#1743=DIRECTION('',(1.,-1.14280391064784E-16,-3.89203269504607E-16));
#1744=DIRECTION('',(-4.0563430916898E-16,0.,-1.));
#1745=DIRECTION('',(1.,0.,-4.0563430916898E-16));
#1746=DIRECTION('',(1.,0.,0.));
#1747=DIRECTION('',(0.,0.,-1.));
#1748=DIRECTION('',(1.,0.,0.));
#1749=DIRECTION('',(0.,0.,-1.));
#1750=DIRECTION('',(-1.,0.,0.));
#1751=DIRECTION('',(0.,0.,1.));
#1752=DIRECTION('',(-1.,0.,0.));
#1753=DIRECTION('',(0.,0.,1.));
#1754=DIRECTION('',(1.,0.,0.));
#1755=DIRECTION('',(0.,0.,-1.));
#1756=DIRECTION('',(-1.,0.,0.));
#1757=DIRECTION('',(0.,0.,1.));
#1758=DIRECTION('',(-1.,0.,0.));
#1759=DIRECTION('',(0.,0.,1.));
#1760=DIRECTION('',(-1.,0.,0.));
#1761=DIRECTION('',(0.,0.,1.));
#1762=DIRECTION('',(-1.,0.,0.));
#1763=DIRECTION('',(0.,0.,1.));
#1764=DIRECTION('',(-1.,0.,0.));
#1765=DIRECTION('',(0.,0.,1.));
#1766=DIRECTION('',(-1.,0.,0.));
#1767=DIRECTION('',(0.,0.,1.));
#1768=DIRECTION('',(-1.,0.,0.));
#1769=DIRECTION('',(0.,0.,1.));
#1770=DIRECTION('',(-1.,0.,0.));
#1771=DIRECTION('',(0.,0.,1.));
#1772=DIRECTION('',(-1.,0.,0.));
#1773=DIRECTION('',(0.,0.,1.));
#1774=DIRECTION('',(-1.,0.,0.));
#1775=DIRECTION('',(0.,0.,1.));
#1776=DIRECTION('',(-1.,0.,0.));
#1777=DIRECTION('',(0.,0.,1.));
#1778=DIRECTION('',(-1.,0.,0.));
#1779=DIRECTION('',(0.,0.,1.));
#1780=DIRECTION('',(-1.,0.,0.));
#1781=DIRECTION('',(0.,0.,1.));
#1782=DIRECTION('',(-1.,0.,0.));
#1783=DIRECTION('',(0.,0.,1.));
#1784=DIRECTION('',(1.,0.,0.));
#1785=DIRECTION('',(0.,0.,-1.));
#1786=DIRECTION('',(-1.,0.,0.));
#1787=DIRECTION('',(0.,0.,1.));
#1788=DIRECTION('',(-1.,0.,0.));
#1789=DIRECTION('',(0.,0.,1.));
#1790=DIRECTION('',(-1.,0.,0.));
#1791=DIRECTION('',(0.,0.,1.));
#1792=DIRECTION('',(-1.,0.,0.));
#1793=DIRECTION('',(0.,0.,1.));
#1794=DIRECTION('',(-1.,0.,0.));
#1795=DIRECTION('',(0.,0.,1.));
#1796=DIRECTION('',(-1.,0.,0.));
#1797=DIRECTION('',(0.,0.,1.));
#1798=DIRECTION('',(-1.,0.,0.));
#1799=DIRECTION('',(0.,0.,1.));
#1800=DIRECTION('',(1.,0.,0.));
#1801=DIRECTION('',(0.,0.,-1.));
#1802=DIRECTION('',(1.,0.,0.));
#1803=DIRECTION('',(0.,0.,-1.));
#1804=DIRECTION('',(1.,0.,0.));
#1805=DIRECTION('',(0.,0.,-1.));
#1806=DIRECTION('',(1.,0.,0.));
#1807=DIRECTION('',(0.,0.,-1.));
#1808=DIRECTION('',(-1.,0.,0.));
#1809=DIRECTION('',(0.,0.,1.));
#1810=DIRECTION('',(4.0563430916898E-16,0.,-1.));
#1811=DIRECTION('',(-1.,0.,-4.0563430916898E-16));
#1812=CARTESIAN_POINT('',(0.,0.,0.));
#1813=CARTESIAN_POINT('',(-8.56313979495826,-17.2392465063668,119.901593122041));
#1814=CARTESIAN_POINT('',(-8.56313979495827,-18.4564852130151,128.367674286496));
#1815=CARTESIAN_POINT('',(8.56313979495826,-17.2392465063668,119.901593122041));
#1816=CARTESIAN_POINT('',(8.56313979495827,-18.4564852130151,128.367674286496));
#1817=CARTESIAN_POINT('',(-8.56313979495826,-50.3211182929007,110.187879129525));
#1818=CARTESIAN_POINT('',(-8.56313979495827,-53.8742209720302,117.968088747759));
#1819=CARTESIAN_POINT('',(8.56313979495826,-50.3211182929007,110.187879129525));
#1820=CARTESIAN_POINT('',(8.56313979495827,-53.8742209720302,117.968088747759));
#1821=CARTESIAN_POINT('',(-8.56313979495826,-79.3262723465575,91.5473984824835));
#1822=CARTESIAN_POINT('',(-8.56313979495827,-84.9273877502205,98.0114302419157));
#1823=CARTESIAN_POINT('',(8.56313979495826,-79.3262723465575,91.5473984824835));
#1824=CARTESIAN_POINT('',(8.56313979495827,-84.9273877502205,98.0114302419157));
#1825=CARTESIAN_POINT('',(-8.56313979495826,-101.904883586203,65.4902920637342));
#1826=CARTESIAN_POINT('',(-8.56313979495827,-109.100242655511,70.1144685542924));
#1827=CARTESIAN_POINT('',(8.56313979495826,-101.904883586203,65.4902920637342));
#1828=CARTESIAN_POINT('',(8.56313979495827,-109.100242655511,70.1144685542924));
#1829=CARTESIAN_POINT('',(-8.56313979495826,-116.227767209373,34.127551667745));
#1830=CARTESIAN_POINT('',(-8.56313979495827,-124.434444744978,36.5372496112007));
#1831=CARTESIAN_POINT('',(8.56313979495826,-116.227767209373,34.127551667745));
#1832=CARTESIAN_POINT('',(8.56313979495827,-124.434444744978,36.5372496112007));
#1833=CARTESIAN_POINT('',(-8.56313979495826,-121.134568366387,-1.27069033807593E-13));
#1834=CARTESIAN_POINT('',(-8.56313979495827,-129.687708161345,-1.36041197777166E-13));
#1835=CARTESIAN_POINT('',(8.56313979495826,-121.134568366387,-1.27069033807593E-13));
#1836=CARTESIAN_POINT('',(8.56313979495827,-129.687708161345,-1.36041197777166E-13));
#1837=CARTESIAN_POINT('',(-8.56313979495826,-116.227767209373,-34.1275516677452));
#1838=CARTESIAN_POINT('',(-8.56313979495827,-124.434444744978,-36.537249611201));
#1839=CARTESIAN_POINT('',(8.56313979495826,-116.227767209373,-34.1275516677452));
#1840=CARTESIAN_POINT('',(8.56313979495827,-124.434444744978,-36.537249611201));
#1841=CARTESIAN_POINT('',(-8.56313979495826,-101.904883586203,-65.4902920637344));
#1842=CARTESIAN_POINT('',(-8.56313979495827,-109.100242655511,-70.1144685542927));
#1843=CARTESIAN_POINT('',(8.56313979495826,-101.904883586203,-65.4902920637344));
#1844=CARTESIAN_POINT('',(8.56313979495827,-109.100242655511,-70.1144685542927));
#1845=CARTESIAN_POINT('',(-8.56313979495826,-79.3262723465573,-91.5473984824837));
#1846=CARTESIAN_POINT('',(-8.56313979495826,-84.9273877502203,-98.0114302419159));
#1847=CARTESIAN_POINT('',(8.56313979495826,-79.3262723465573,-91.5473984824837));
#1848=CARTESIAN_POINT('',(8.56313979495826,-84.9273877502203,-98.0114302419159));
#1849=CARTESIAN_POINT('',(-8.56313979495826,-50.3211182929004,-110.187879129525));
#1850=CARTESIAN_POINT('',(-8.56313979495827,-53.87422097203,-117.968088747759));
#1851=CARTESIAN_POINT('',(8.56313979495826,-50.3211182929004,-110.187879129525));
#1852=CARTESIAN_POINT('',(8.56313979495827,-53.87422097203,-117.968088747759));
#1853=CARTESIAN_POINT('',(-8.56313979495826,-17.2392465063665,-119.901593122041));
#1854=CARTESIAN_POINT('',(-8.56313979495827,-18.4564852130148,-128.367674286496));
#1855=CARTESIAN_POINT('',(8.56313979495826,-17.2392465063665,-119.901593122041));
#1856=CARTESIAN_POINT('',(8.56313979495827,-18.4564852130148,-128.367674286496));
#1857=CARTESIAN_POINT('',(-8.56313979495826,17.2392465063665,-119.901593122041));
#1858=CARTESIAN_POINT('',(-8.56313979495827,18.4564852130148,-128.367674286496));
#1859=CARTESIAN_POINT('',(8.56313979495826,17.2392465063665,-119.901593122041));
#1860=CARTESIAN_POINT('',(8.56313979495827,18.4564852130148,-128.367674286496));
#1861=CARTESIAN_POINT('',(-8.56313979495826,50.3211182929004,-110.187879129525));
#1862=CARTESIAN_POINT('',(-8.56313979495826,53.87422097203,-117.968088747759));
#1863=CARTESIAN_POINT('',(8.56313979495826,50.3211182929004,-110.187879129525));
#1864=CARTESIAN_POINT('',(8.56313979495826,53.87422097203,-117.968088747759));
#1865=CARTESIAN_POINT('',(-8.56313979495826,79.3262723465574,-91.5473984824837));
#1866=CARTESIAN_POINT('',(-8.56313979495827,84.9273877502204,-98.0114302419159));
#1867=CARTESIAN_POINT('',(8.56313979495826,79.3262723465574,-91.5473984824837));
#1868=CARTESIAN_POINT('',(8.56313979495827,84.9273877502204,-98.0114302419159));
#1869=CARTESIAN_POINT('',(-8.56313979495826,101.904883586203,-65.4902920637343));
#1870=CARTESIAN_POINT('',(-8.56313979495827,109.100242655511,-70.1144685542926));
#1871=CARTESIAN_POINT('',(8.56313979495826,101.904883586203,-65.4902920637343));
#1872=CARTESIAN_POINT('',(8.56313979495827,109.100242655511,-70.1144685542926));
#1873=CARTESIAN_POINT('',(-8.56313979495826,116.227767209373,-34.1275516677451));
#1874=CARTESIAN_POINT('',(-8.56313979495827,124.434444744978,-36.5372496112009));
#1875=CARTESIAN_POINT('',(8.56313979495826,116.227767209373,-34.1275516677451));
#1876=CARTESIAN_POINT('',(8.56313979495827,124.434444744978,-36.5372496112009));
#1877=CARTESIAN_POINT('',(-8.56313979495826,121.134568366387,-2.22520592123988E-14));
#1878=CARTESIAN_POINT('',(-8.56313979495827,129.687708161345,-2.38232455032821E-14));
#1879=CARTESIAN_POINT('',(8.56313979495826,121.134568366387,-2.22520592123988E-14));
#1880=CARTESIAN_POINT('',(8.56313979495827,129.687708161345,-2.38232455032821E-14));
#1881=CARTESIAN_POINT('',(-8.56313979495826,116.227767209373,34.1275516677451));
#1882=CARTESIAN_POINT('',(-8.56313979495827,124.434444744978,36.5372496112009));
#1883=CARTESIAN_POINT('',(8.56313979495826,116.227767209373,34.1275516677451));
#1884=CARTESIAN_POINT('',(8.56313979495827,124.434444744978,36.5372496112009));
#1885=CARTESIAN_POINT('',(-8.56313979495826,101.904883586203,65.4902920637343));
#1886=CARTESIAN_POINT('',(-8.56313979495827,109.100242655511,70.1144685542925));
#1887=CARTESIAN_POINT('',(8.56313979495826,101.904883586203,65.4902920637343));
#1888=CARTESIAN_POINT('',(8.56313979495827,109.100242655511,70.1144685542925));
#1889=CARTESIAN_POINT('',(-8.56313979495826,79.3262723465574,91.5473984824837));
#1890=CARTESIAN_POINT('',(-8.56313979495827,84.9273877502204,98.0114302419159));
#1891=CARTESIAN_POINT('',(8.56313979495826,79.3262723465574,91.5473984824837));
#1892=CARTESIAN_POINT('',(8.56313979495827,84.9273877502204,98.0114302419159));
#1893=CARTESIAN_POINT('',(-8.56313979495826,50.3211182929005,110.187879129525));
#1894=CARTESIAN_POINT('',(-8.56313979495827,53.87422097203,117.968088747759));
#1895=CARTESIAN_POINT('',(8.56313979495826,50.3211182929005,110.187879129525));
#1896=CARTESIAN_POINT('',(8.56313979495827,53.87422097203,117.968088747759));
#1897=CARTESIAN_POINT('',(-8.56313979495826,17.2392465063666,119.901593122041));
#1898=CARTESIAN_POINT('',(-8.56313979495827,18.4564852130149,128.367674286496));
#1899=CARTESIAN_POINT('',(8.56313979495826,17.2392465063666,119.901593122041));
#1900=CARTESIAN_POINT('',(8.56313979495827,18.4564852130149,128.367674286496));
#1901=CARTESIAN_POINT('',(-8.56313979495826,-34.1275516677453,116.227767209373));
#1902=CARTESIAN_POINT('',(-8.56313979495827,-36.5372496112011,124.434444744978));
#1903=CARTESIAN_POINT('',(8.56313979495826,-34.1275516677453,116.227767209373));
#1904=CARTESIAN_POINT('',(8.56313979495827,-36.5372496112011,124.434444744978));
#1905=CARTESIAN_POINT('',(-8.56313979495826,-65.4902920637345,101.904883586203));
#1906=CARTESIAN_POINT('',(-8.56313979495827,-70.1144685542928,109.100242655511));
#1907=CARTESIAN_POINT('',(8.56313979495826,-65.4902920637345,101.904883586203));
#1908=CARTESIAN_POINT('',(8.56313979495827,-70.1144685542928,109.100242655511));
#1909=CARTESIAN_POINT('',(-8.56313979495826,-91.5473984824838,79.3262723465572));
#1910=CARTESIAN_POINT('',(-8.56313979495827,-98.011430241916,84.9273877502202));
#1911=CARTESIAN_POINT('',(8.56313979495826,-91.5473984824838,79.3262723465572));
#1912=CARTESIAN_POINT('',(8.56313979495827,-98.011430241916,84.9273877502202));
#1913=CARTESIAN_POINT('',(-8.56313979495826,-110.187879129525,50.3211182929003));
#1914=CARTESIAN_POINT('',(-8.56313979495827,-117.968088747759,53.8742209720299));
#1915=CARTESIAN_POINT('',(8.56313979495826,-110.187879129525,50.3211182929003));
#1916=CARTESIAN_POINT('',(8.56313979495827,-117.968088747759,53.8742209720299));
#1917=CARTESIAN_POINT('',(-8.56313979495826,-119.901593122041,17.2392465063664));
#1918=CARTESIAN_POINT('',(-8.56313979495827,-128.367674286496,18.4564852130147));
#1919=CARTESIAN_POINT('',(8.56313979495826,-119.901593122041,17.2392465063664));
#1920=CARTESIAN_POINT('',(8.56313979495827,-128.367674286496,18.4564852130147));
#1921=CARTESIAN_POINT('',(-8.56313979495826,-119.901593122041,-17.2392465063667));
#1922=CARTESIAN_POINT('',(-8.56313979495827,-128.367674286496,-18.456485213015));
#1923=CARTESIAN_POINT('',(8.56313979495826,-119.901593122041,-17.2392465063667));
#1924=CARTESIAN_POINT('',(8.56313979495827,-128.367674286496,-18.456485213015));
#1925=CARTESIAN_POINT('',(-8.56313979495826,-110.187879129525,-50.3211182929006));
#1926=CARTESIAN_POINT('',(-8.56313979495827,-117.968088747759,-53.8742209720301));
#1927=CARTESIAN_POINT('',(8.56313979495826,-110.187879129525,-50.3211182929006));
#1928=CARTESIAN_POINT('',(8.56313979495827,-117.968088747759,-53.8742209720301));
#1929=CARTESIAN_POINT('',(-8.56313979495826,-91.5473984824836,-79.3262723465575));
#1930=CARTESIAN_POINT('',(-8.56313979495827,-98.0114302419158,-84.9273877502205));
#1931=CARTESIAN_POINT('',(8.56313979495826,-91.5473984824836,-79.3262723465575));
#1932=CARTESIAN_POINT('',(8.56313979495827,-98.0114302419158,-84.9273877502205));
#1933=CARTESIAN_POINT('',(-8.56313979495826,-65.4902920637343,-101.904883586203));
#1934=CARTESIAN_POINT('',(-8.56313979495827,-70.1144685542926,-109.100242655511));
#1935=CARTESIAN_POINT('',(8.56313979495826,-65.4902920637343,-101.904883586203));
#1936=CARTESIAN_POINT('',(8.56313979495827,-70.1144685542926,-109.100242655511));
#1937=CARTESIAN_POINT('',(-8.56313979495826,-34.1275516677451,-116.227767209373));
#1938=CARTESIAN_POINT('',(-8.56313979495827,-36.5372496112008,-124.434444744978));
#1939=CARTESIAN_POINT('',(8.56313979495826,-34.1275516677451,-116.227767209373));
#1940=CARTESIAN_POINT('',(8.56313979495827,-36.5372496112008,-124.434444744978));
#1941=CARTESIAN_POINT('',(-8.56313979495826,-1.48347061415992E-14,-121.134568366387));
#1942=CARTESIAN_POINT('',(-8.56313979495827,-1.58821636688547E-14,-129.687708161345));
#1943=CARTESIAN_POINT('',(8.56313979495826,-1.48347061415992E-14,-121.134568366387));
#1944=CARTESIAN_POINT('',(8.56313979495827,-1.58821636688547E-14,-129.687708161345));
#1945=CARTESIAN_POINT('',(-8.56313979495826,34.1275516677451,-116.227767209373));
#1946=CARTESIAN_POINT('',(-8.56313979495827,36.5372496112009,-124.434444744978));
#1947=CARTESIAN_POINT('',(8.56313979495826,34.1275516677451,-116.227767209373));
#1948=CARTESIAN_POINT('',(8.56313979495827,36.5372496112009,-124.434444744978));
#1949=CARTESIAN_POINT('',(-8.56313979495826,65.4902920637343,-101.904883586203));
#1950=CARTESIAN_POINT('',(-8.56313979495827,70.1144685542925,-109.100242655511));
#1951=CARTESIAN_POINT('',(8.56313979495826,65.4902920637343,-101.904883586203));
#1952=CARTESIAN_POINT('',(8.56313979495827,70.1144685542925,-109.100242655511));
#1953=CARTESIAN_POINT('',(-8.56313979495826,91.5473984824836,-79.3262723465574));
#1954=CARTESIAN_POINT('',(-8.56313979495827,98.0114302419158,-84.9273877502204));
#1955=CARTESIAN_POINT('',(8.56313979495826,91.5473984824836,-79.3262723465574));
#1956=CARTESIAN_POINT('',(8.56313979495827,98.0114302419158,-84.9273877502204));
#1957=CARTESIAN_POINT('',(-8.56313979495826,110.187879129525,-50.3211182929005));
#1958=CARTESIAN_POINT('',(-8.56313979495827,117.968088747759,-53.87422097203));
#1959=CARTESIAN_POINT('',(8.56313979495826,110.187879129525,-50.3211182929005));
#1960=CARTESIAN_POINT('',(8.56313979495827,117.968088747759,-53.87422097203));
#1961=CARTESIAN_POINT('',(-8.56313979495826,119.901593122041,-17.2392465063666));
#1962=CARTESIAN_POINT('',(-8.56313979495827,128.367674286496,-18.4564852130148));
#1963=CARTESIAN_POINT('',(8.56313979495826,119.901593122041,-17.2392465063666));
#1964=CARTESIAN_POINT('',(8.56313979495827,128.367674286496,-18.4564852130148));
#1965=CARTESIAN_POINT('',(-8.56313979495826,119.901593122041,17.2392465063665));
#1966=CARTESIAN_POINT('',(-8.56313979495827,128.367674286496,18.4564852130148));
#1967=CARTESIAN_POINT('',(8.56313979495826,119.901593122041,17.2392465063665));
#1968=CARTESIAN_POINT('',(8.56313979495827,128.367674286496,18.4564852130148));
#1969=CARTESIAN_POINT('',(-8.56313979495826,110.187879129525,50.3211182929005));
#1970=CARTESIAN_POINT('',(-8.56313979495827,117.968088747759,53.8742209720301));
#1971=CARTESIAN_POINT('',(8.56313979495826,110.187879129525,50.3211182929005));
#1972=CARTESIAN_POINT('',(8.56313979495827,117.968088747759,53.8742209720301));
#1973=CARTESIAN_POINT('',(-8.56313979495826,91.5473984824836,79.3262723465574));
#1974=CARTESIAN_POINT('',(-8.56313979495827,98.0114302419158,84.9273877502204));
#1975=CARTESIAN_POINT('',(8.56313979495826,91.5473984824836,79.3262723465574));
#1976=CARTESIAN_POINT('',(8.56313979495827,98.0114302419158,84.9273877502204));
#1977=CARTESIAN_POINT('',(-8.56313979495826,65.4902920637343,101.904883586203));
#1978=CARTESIAN_POINT('',(-8.56313979495827,70.1144685542926,109.100242655511));
#1979=CARTESIAN_POINT('',(8.56313979495826,65.4902920637343,101.904883586203));
#1980=CARTESIAN_POINT('',(8.56313979495827,70.1144685542926,109.100242655511));
#1981=CARTESIAN_POINT('',(-8.56313979495826,34.1275516677451,116.227767209373));
#1982=CARTESIAN_POINT('',(-8.56313979495827,36.5372496112009,124.434444744978));
#1983=CARTESIAN_POINT('',(8.56313979495826,34.1275516677451,116.227767209373));
#1984=CARTESIAN_POINT('',(8.56313979495827,36.5372496112009,124.434444744978));
#1985=CARTESIAN_POINT('',(8.56313979495826,0.,121.134568366387));
#1986=CARTESIAN_POINT('',(8.56313979495827,0.,129.687708161345));
#1987=CARTESIAN_POINT('',(-30.,0.,114.285714285714));
#1988=CARTESIAN_POINT('',(-30.,0.,0.));
#1989=CARTESIAN_POINT('',(-30.,0.,-102.1));
#1990=CARTESIAN_POINT('',(-30.,0.,0.));
#1991=CARTESIAN_POINT('',(-30.,0.,114.285714285714));
#1992=CARTESIAN_POINT('',(0.,0.,0.));
#1993=CARTESIAN_POINT('',(-27.9,0.,0.));
#1994=CARTESIAN_POINT('',(-27.9,0.,-100.));
#1995=CARTESIAN_POINT('',(27.9,0.,0.));
#1996=CARTESIAN_POINT('',(27.9,0.,100.));
#1997=CARTESIAN_POINT('',(30.,0.,100.));
#1998=CARTESIAN_POINT('',(30.,0.,0.));
#1999=CARTESIAN_POINT('',(30.,0.,102.1));
#2000=CARTESIAN_POINT('',(30.,0.,0.));
#2001=CARTESIAN_POINT('',(30.,0.,114.285714285714));
#2002=CARTESIAN_POINT('',(0.,0.,0.));
#2003=CARTESIAN_POINT('',(13.7032332697555,0.,0.));
#2004=CARTESIAN_POINT('',(13.7032332697555,0.,114.285714285714));
#2005=CARTESIAN_POINT('',(8.56313979495826,0.,0.));
#2006=CARTESIAN_POINT('',(3.423046320161,0.,0.));
#2007=CARTESIAN_POINT('',(3.423046320161,0.,114.285714285714));
#2008=CARTESIAN_POINT('',(0.,0.,0.));
#2009=CARTESIAN_POINT('',(-3.423046320161,0.,0.));
#2010=CARTESIAN_POINT('',(-3.423046320161,0.,114.285714285714));
#2011=CARTESIAN_POINT('',(-8.56313979495826,0.,0.));
#2012=CARTESIAN_POINT('',(-13.7032332697555,0.,0.));
#2013=CARTESIAN_POINT('',(-13.7032332697555,0.,114.285714285714));
#2014=CARTESIAN_POINT('',(0.,0.,0.));
#2015=CARTESIAN_POINT('',(27.9,0.,0.));
#2016=CARTESIAN_POINT('',(-27.9,0.,0.));
#2017=CARTESIAN_POINT('',(0.,0.,0.));
#2018=CARTESIAN_POINT('',(29.9999999999999,0.,0.));
#2019=CARTESIAN_POINT('',(29.9999999999999,0.,126.491106406735));
#2020=CARTESIAN_POINT('',(-30.,0.,0.));
#2021=CARTESIAN_POINT('',(-30.,0.,126.491106406735));
#2022=CARTESIAN_POINT('',(30.,0.,126.491106406735));
#2023=CARTESIAN_POINT('',(30.,0.,0.));
#2024=CARTESIAN_POINT('',(30.,0.,137.9));
#2025=CARTESIAN_POINT('',(0.,0.,0.));
#2026=CARTESIAN_POINT('',(27.8999999999999,0.,0.));
#2027=CARTESIAN_POINT('',(27.8999999999999,0.,140.));
#2028=CARTESIAN_POINT('',(-27.9,0.,0.));
#2029=CARTESIAN_POINT('',(-27.9,0.,-140.));
#2030=CARTESIAN_POINT('',(-30.,0.,140.));
#2031=CARTESIAN_POINT('',(-30.,0.,0.));
#2032=CARTESIAN_POINT('',(-30.,0.,-137.9));
#2033=CARTESIAN_POINT('',(-27.9,0.,0.));
#2034=CARTESIAN_POINT('',(27.8999999999999,0.,0.));
#2035=CARTESIAN_POINT('',(-8.56313979495826,0.,121.134568366387));
#2036=CARTESIAN_POINT('',(-8.56313979495827,0.,129.687708161345));
#2037=MECHANICAL_DESIGN_GEOMETRIC_PRESENTATION_REPRESENTATION('',(#726,
#727,#728,#729,#730,#731,#732,#733,#734,#735,#736,#737,#738,#739,#740,#741,
#742,#743,#744,#745,#746,#747,#748,#749,#750,#751,#752,#753,#754,#755,#756,
#757,#758,#759,#760,#761,#762,#763,#764,#765,#766,#767,#768,#769,#770,#771,
#772,#773,#774,#775,#776,#777,#778,#779,#780,#781,#782,#783,#784,#785,#786,
#787,#788,#789,#790,#791,#792,#793,#794,#795,#796,#797,#798,#799,#800,#801,
#802,#803,#804,#805,#806,#807,#808,#809,#810,#811,#812,#813,#814,#815),
#2038);
#2038=(
GEOMETRIC_REPRESENTATION_CONTEXT(3)
GLOBAL_UNCERTAINTY_ASSIGNED_CONTEXT((#2039))
GLOBAL_UNIT_ASSIGNED_CONTEXT((#2042,#2041,#2040))
REPRESENTATION_CONTEXT('\X2\570667F15B548C035FC374038F74627F\X0\10000\X2\578B\X0\',
'TOP_LEVEL_ASSEMBLY_PART')
);
#2039=UNCERTAINTY_MEASURE_WITH_UNIT(LENGTH_MEASURE(0.005),#2042,
'DISTANCE_ACCURACY_VALUE','Maximum Tolerance applied to model');
#2040=(
NAMED_UNIT(*)
SI_UNIT($,.STERADIAN.)
SOLID_ANGLE_UNIT()
);
#2041=(
NAMED_UNIT(*)
PLANE_ANGLE_UNIT()
SI_UNIT($,.RADIAN.)
);
#2042=(
LENGTH_UNIT()
NAMED_UNIT(*)
SI_UNIT(.MILLI.,.METRE.)
);
#2043=PRODUCT_DEFINITION_SHAPE('','',#2044);
#2044=PRODUCT_DEFINITION('','',#2046,#2045);
#2045=PRODUCT_DEFINITION_CONTEXT('',#2052,'design');
#2046=PRODUCT_DEFINITION_FORMATION_WITH_SPECIFIED_SOURCE('','',#2048,
 .NOT_KNOWN.);
#2047=PRODUCT_RELATED_PRODUCT_CATEGORY('','',(#2048));
#2048=PRODUCT('\X2\570667F15B548C035FC374038F74627F\X0\10000\X2\578B\X0\',
'\X2\570667F15B548C035FC374038F74627F\X0\10000\X2\578B\X0\',
'\X2\570667F15B548C035FC374038F74627F\X0\10000\X2\578B\X0\',(#2050));
#2049=PRODUCT_CATEGORY('','');
#2050=PRODUCT_CONTEXT('',#2052,'mechanical');
#2051=APPLICATION_PROTOCOL_DEFINITION('international standard',
'automotive_design',2010,#2052);
#2052=APPLICATION_CONTEXT(
'core data for automotive mechanical design processes');
ENDSEC;
END-ISO-10303-21;
