ISO-10303-21;
HEADER;
/* Generated by software containing HOOPS Exchange Step
 * from HOOPS Exchange, Inc. (www.tiangong.cloud) 
 */

FILE_DESCRIPTION(
/* description */ ('Unknown'),
/* implementation_level */ '2;1');

FILE_NAME(
/* name */ 'FLU\X2\94F8902051F87F185EA783F15F62\X0\',
/* time_stamp */ '2025-12-27T15:53:45+08:00',
/* author */ ('Unknown'),
/* organization */ ('Unknown'),
/* preprocessor_version */ 'ST-DEVELOPER v19.4',
/* originating_system */ 'TianGong',
/* authorisation */ 'Unknown');

FILE_SCHEMA (('FEATURE_BASED_PROCESS_PLANNING','AUTOMOTIVE_DESIGN {1 0 10303 214 3 1 1}'));
ENDSEC;

DATA;
#10=PROPERTY_DEFINITION_REPRESENTATION(#14,#12);
#11=PROPERTY_DEFINITION_REPRESENTATION(#15,#13);
#12=REPRESENTATION('',(#16),#1866);
#13=REPRESENTATION('',(#17),#1866);
#14=PROPERTY_DEFINITION('pmi validation property','',#1871);
#15=PROPERTY_DEFINITION('pmi validation property','',#1871);
#16=VALUE_REPRESENTATION_ITEM('number of annotations',COUNT_MEASURE(0.));
#17=VALUE_REPRESENTATION_ITEM('number of views',COUNT_MEASURE(0.));
#18=SHAPE_REPRESENTATION_RELATIONSHIP('','',#952,#19);
#19=ADVANCED_BREP_SHAPE_REPRESENTATION('',(#949,#950),#1866);
#20=(
BOUNDED_SURFACE()
B_SPLINE_SURFACE(3,2,((#1647,#1648,#1649),(#1650,#1651,#1652),(#1653,#1654,
#1655),(#1656,#1657,#1658),(#1659,#1660,#1661),(#1662,#1663,#1664),(#1665,
#1666,#1667)),.UNSPECIFIED.,.F.,.F.,.F.)
B_SPLINE_SURFACE_WITH_KNOTS((4,1,1,1,4),(3,3),(0.,0.00570323997178548,0.011406479943571,
0.0171097199153564,0.0228129598871419),(0.,1.),.UNSPECIFIED.)
GEOMETRIC_REPRESENTATION_ITEM()
RATIONAL_B_SPLINE_SURFACE(((1.,0.707106781186548,1.),(1.,0.762581231224609,
1.),(1.,0.850949666448476,1.),(1.,0.939187129458774,1.),(1.,0.988990838648595,
1.),(1.,0.999999999999789,1.),(1.,1.,1.)))
REPRESENTATION_ITEM('')
SURFACE()
);
#21=(
BOUNDED_SURFACE()
B_SPLINE_SURFACE(3,2,((#1677,#1678,#1679),(#1680,#1681,#1682),(#1683,#1684,
#1685),(#1686,#1687,#1688),(#1689,#1690,#1691)),.UNSPECIFIED.,.F.,.F.,.F.)
B_SPLINE_SURFACE_WITH_KNOTS((4,1,4),(3,3),(0.,0.00338213392610786,0.00676426785221571),
(0.,1.),.UNSPECIFIED.)
GEOMETRIC_REPRESENTATION_ITEM()
RATIONAL_B_SPLINE_SURFACE(((1.,0.808556393123085,1.),(1.,0.80855639280581,
1.),(1.,0.780847073316213,1.),(1.,0.728772624665224,1.),(1.,0.707106781186548,
1.)))
REPRESENTATION_ITEM('')
SURFACE()
);
#22=(
BOUNDED_SURFACE()
B_SPLINE_SURFACE(3,2,((#1695,#1696,#1697),(#1698,#1699,#1700),(#1701,#1702,
#1703),(#1704,#1705,#1706),(#1707,#1708,#1709)),.UNSPECIFIED.,.F.,.F.,.F.)
B_SPLINE_SURFACE_WITH_KNOTS((4,1,4),(3,3),(0.,0.00338220479747714,0.00676440959495427),
(0.,1.),.UNSPECIFIED.)
GEOMETRIC_REPRESENTATION_ITEM()
RATIONAL_B_SPLINE_SURFACE(((1.,0.707106781186548,1.),(1.,0.728787383480742,
1.),(1.,0.780747485729986,1.),(1.,0.808556392944567,1.),(1.,0.808556393123086,
1.)))
REPRESENTATION_ITEM('')
SURFACE()
);
#23=(
BOUNDED_SURFACE()
B_SPLINE_SURFACE(3,2,((#1719,#1720,#1721),(#1722,#1723,#1724),(#1725,#1726,
#1727),(#1728,#1729,#1730),(#1731,#1732,#1733),(#1734,#1735,#1736),(#1737,
#1738,#1739)),.UNSPECIFIED.,.F.,.F.,.F.)
B_SPLINE_SURFACE_WITH_KNOTS((4,1,1,1,4),(3,3),(0.,0.00570323997178547,0.0114064799435709,
0.0171097199153564,0.0228129598871419),(0.,1.),.UNSPECIFIED.)
GEOMETRIC_REPRESENTATION_ITEM()
RATIONAL_B_SPLINE_SURFACE(((1.,0.707106781186548,1.),(1.,0.762581231226523,
1.),(1.,0.850949666447587,1.),(1.,0.939187129459012,1.),(1.,0.988990838648528,
1.),(1.,0.999999999999789,1.),(1.,1.,1.)))
REPRESENTATION_ITEM('')
SURFACE()
);
#24=(
BOUNDED_SURFACE()
B_SPLINE_SURFACE(3,2,((#1752,#1753,#1754),(#1755,#1756,#1757),(#1758,#1759,
#1760),(#1761,#1762,#1763),(#1764,#1765,#1766),(#1767,#1768,#1769),(#1770,
#1771,#1772)),.UNSPECIFIED.,.F.,.F.,.F.)
B_SPLINE_SURFACE_WITH_KNOTS((4,1,1,1,4),(3,3),(0.,0.00570323997178553,0.0114064799435711,
0.0171097199153566,0.0228129598871421),(0.,1.),.UNSPECIFIED.)
GEOMETRIC_REPRESENTATION_ITEM()
RATIONAL_B_SPLINE_SURFACE(((1.,0.707106781186548,1.),(1.,0.762581231222907,
1.),(1.,0.850949666449266,1.),(1.,0.939187129458563,1.),(1.,0.988990838648658,
1.),(1.,0.999999999999789,1.),(1.,1.,1.)))
REPRESENTATION_ITEM('')
SURFACE()
);
#25=(
BOUNDED_SURFACE()
B_SPLINE_SURFACE(3,2,((#1782,#1783,#1784),(#1785,#1786,#1787),(#1788,#1789,
#1790),(#1791,#1792,#1793),(#1794,#1795,#1796)),.UNSPECIFIED.,.F.,.F.,.F.)
B_SPLINE_SURFACE_WITH_KNOTS((4,1,4),(3,3),(0.,0.00338213392610786,0.00676426785221571),
(0.,1.),.UNSPECIFIED.)
GEOMETRIC_REPRESENTATION_ITEM()
RATIONAL_B_SPLINE_SURFACE(((1.,0.808556393123085,1.),(1.,0.80855639280581,
1.),(1.,0.780847073316183,1.),(1.,0.728772624665287,1.),(1.,0.707106781186548,
1.)))
REPRESENTATION_ITEM('')
SURFACE()
);
#26=(
BOUNDED_SURFACE()
B_SPLINE_SURFACE(3,2,((#1800,#1801,#1802),(#1803,#1804,#1805),(#1806,#1807,
#1808),(#1809,#1810,#1811),(#1812,#1813,#1814)),.UNSPECIFIED.,.F.,.F.,.F.)
B_SPLINE_SURFACE_WITH_KNOTS((4,1,4),(3,3),(0.,0.00338220479747714,0.00676440959495427),
(0.,1.),.UNSPECIFIED.)
GEOMETRIC_REPRESENTATION_ITEM()
RATIONAL_B_SPLINE_SURFACE(((1.,0.707106781186549,1.),(1.,0.728787383478838,
1.),(1.,0.780747485732049,1.),(1.,0.808556392942343,1.),(1.,0.808556393123086,
1.)))
REPRESENTATION_ITEM('')
SURFACE()
);
#27=(
BOUNDED_SURFACE()
B_SPLINE_SURFACE(3,2,((#1824,#1825,#1826),(#1827,#1828,#1829),(#1830,#1831,
#1832),(#1833,#1834,#1835),(#1836,#1837,#1838),(#1839,#1840,#1841),(#1842,
#1843,#1844)),.UNSPECIFIED.,.F.,.F.,.F.)
B_SPLINE_SURFACE_WITH_KNOTS((4,1,1,1,4),(3,3),(0.,0.00570323997178543,0.0114064799435709,
0.0171097199153563,0.0228129598871417),(0.,1.),.UNSPECIFIED.)
GEOMETRIC_REPRESENTATION_ITEM()
RATIONAL_B_SPLINE_SURFACE(((1.,0.707106781186547,1.),(1.,0.762581231230671,
1.),(1.,0.850949666445659,1.),(1.,0.939187129459531,1.),(1.,0.988990838648378,
1.),(1.,0.999999999999789,1.),(1.,1.,1.)))
REPRESENTATION_ITEM('')
SURFACE()
);
#28=SPHERICAL_SURFACE('',#989,42.5);
#29=TOROIDAL_SURFACE('',#987,41.424630354416,4.25);
#30=TOROIDAL_SURFACE('',#991,41.424630354416,4.25);
#31=TOROIDAL_SURFACE('',#1016,53.875,2.125);
#32=TOROIDAL_SURFACE('',#1019,13.625,2.125);
#33=TOROIDAL_SURFACE('',#1024,13.625,2.125);
#34=TOROIDAL_SURFACE('',#1029,58.125,2.125);
#35=TOROIDAL_SURFACE('',#1033,58.125,2.125);
#36=TOROIDAL_SURFACE('',#1037,58.125,2.125);
#37=TOROIDAL_SURFACE('',#1042,58.125,2.125);
#38=TOROIDAL_SURFACE('',#1046,58.125,2.125);
#39=TOROIDAL_SURFACE('',#1050,58.125,2.125);
#40=B_SPLINE_CURVE_WITH_KNOTS('',3,(#1366,#1367,#1368,#1369,#1370,#1371,
#1372,#1373,#1374,#1375,#1376),.UNSPECIFIED.,.T.,.F.,(1,1,1,1,1,1,1,1,1,
1,1,1,1,1,1),(-0.00351702340858659,-0.00234468227239106,-0.00117234113619553,
0.,0.00117234113619553,0.00234468227239106,0.00351702340858659,0.00468936454478212,
0.00586170568097765,0.00703404681717318,0.00820638795336871,0.00937872908956424,
0.0105510702257598,0.0117234113619553,0.0128957524981508),.UNSPECIFIED.);
#41=B_SPLINE_CURVE_WITH_KNOTS('',3,(#1383,#1384,#1385,#1386,#1387,#1388,
#1389),.UNSPECIFIED.,.F.,.F.,(4,1,1,1,4),(0.,0.00549641053508521,0.0109928210701704,
0.0164892316052556,0.0219856421403408),.UNSPECIFIED.);
#42=B_SPLINE_CURVE_WITH_KNOTS('',3,(#1397,#1398,#1399,#1400,#1401,#1402,
#1403),.UNSPECIFIED.,.F.,.F.,(4,1,1,1,4),(0.,0.00549641053508513,0.0109928210701703,
0.0164892316052554,0.0219856421403405),.UNSPECIFIED.);
#43=B_SPLINE_CURVE_WITH_KNOTS('',3,(#1407,#1408,#1409,#1410,#1411),
 .UNSPECIFIED.,.F.,.F.,(4,1,4),(0.,0.00335401514550067,0.00670803029100134),
 .UNSPECIFIED.);
#44=B_SPLINE_CURVE_WITH_KNOTS('',3,(#1415,#1416,#1417,#1418,#1419),
 .UNSPECIFIED.,.F.,.F.,(4,1,4),(0.,0.00333728566208718,0.00667457132417437),
 .UNSPECIFIED.);
#45=B_SPLINE_CURVE_WITH_KNOTS('',3,(#1423,#1424,#1425,#1426,#1427,#1428,
#1429),.UNSPECIFIED.,.F.,.F.,(4,1,1,1,4),(0.,0.00549641053508514,0.0109928210701703,
0.0164892316052554,0.0219856421403406),.UNSPECIFIED.);
#46=B_SPLINE_CURVE_WITH_KNOTS('',3,(#1437,#1438,#1439,#1440,#1441,#1442,
#1443),.UNSPECIFIED.,.F.,.F.,(4,1,1,1,4),(0.,0.00549641053508511,0.0109928210701702,
0.0164892316052553,0.0219856421403404),.UNSPECIFIED.);
#47=B_SPLINE_CURVE_WITH_KNOTS('',3,(#1447,#1448,#1449,#1450,#1451),
 .UNSPECIFIED.,.F.,.F.,(4,1,4),(0.,0.00335401514550067,0.00670803029100133),
 .UNSPECIFIED.);
#48=B_SPLINE_CURVE_WITH_KNOTS('',3,(#1455,#1456,#1457,#1458,#1459),
 .UNSPECIFIED.,.F.,.F.,(4,1,4),(0.,0.00333728566208718,0.00667457132417437),
 .UNSPECIFIED.);
#49=B_SPLINE_CURVE_WITH_KNOTS('',3,(#1484,#1485,#1486,#1487,#1488,#1489,
#1490,#1491,#1492,#1493,#1494),.UNSPECIFIED.,.T.,.F.,(1,1,1,1,1,1,1,1,1,
1,1,1,1,1,1),(-0.00351986739373966,-0.00234657826249311,-0.00117328913124655,
0.,0.00117328913124655,0.00234657826249311,0.00351986739373966,0.00469315652498621,
0.00586644565623277,0.00703973478747932,0.00821302391872588,0.00938631304997243,
0.010559602181219,0.0117328913124655,0.0129061804437121),.UNSPECIFIED.);
#50=B_SPLINE_CURVE_WITH_KNOTS('',3,(#1512,#1513,#1514,#1515,#1516),
 .UNSPECIFIED.,.F.,.F.,(4,1,4),(0.,0.00428983588205706,0.00857967176411412),
 .UNSPECIFIED.);
#51=B_SPLINE_CURVE_WITH_KNOTS('',3,(#1519,#1520,#1521,#1522,#1523),
 .UNSPECIFIED.,.F.,.F.,(4,1,4),(0.,0.00428983588205702,0.00857967176411405),
 .UNSPECIFIED.);
#52=B_SPLINE_CURVE_WITH_KNOTS('',3,(#1543,#1544,#1545,#1546,#1547),
 .UNSPECIFIED.,.F.,.F.,(4,1,4),(0.,0.00428983588205703,0.00857967176411406),
 .UNSPECIFIED.);
#53=B_SPLINE_CURVE_WITH_KNOTS('',3,(#1548,#1549,#1550,#1551,#1552),
 .UNSPECIFIED.,.F.,.F.,(4,1,4),(0.,0.00428983588205748,0.00857967176411495),
 .UNSPECIFIED.);
#54=B_SPLINE_CURVE_WITH_KNOTS('',3,(#1566,#1567,#1568,#1569),
 .UNSPECIFIED.,.F.,.F.,(4,4),(0.,0.00064875718664905),.UNSPECIFIED.);
#55=B_SPLINE_CURVE_WITH_KNOTS('',3,(#1578,#1579,#1580,#1581),
 .UNSPECIFIED.,.F.,.F.,(4,4),(0.,0.00064875718664905),.UNSPECIFIED.);
#56=B_SPLINE_CURVE_WITH_KNOTS('',3,(#1596,#1597,#1598,#1599),
 .UNSPECIFIED.,.F.,.F.,(4,4),(0.,0.000648757186649057),.UNSPECIFIED.);
#57=B_SPLINE_CURVE_WITH_KNOTS('',3,(#1602,#1603,#1604,#1605),
 .UNSPECIFIED.,.F.,.F.,(4,4),(0.,0.000648757186649057),.UNSPECIFIED.);
#58=B_SPLINE_CURVE_WITH_KNOTS('',3,(#1612,#1613,#1614,#1615,#1616),
 .UNSPECIFIED.,.F.,.F.,(4,1,4),(0.,0.00178228086064435,0.0035645617212887),
 .UNSPECIFIED.);
#59=B_SPLINE_CURVE_WITH_KNOTS('',3,(#1621,#1622,#1623,#1624,#1625),
 .UNSPECIFIED.,.F.,.F.,(4,1,4),(0.,0.00177698808868682,0.00355397617737364),
 .UNSPECIFIED.);
#60=B_SPLINE_CURVE_WITH_KNOTS('',3,(#1627,#1628,#1629,#1630,#1631),
 .UNSPECIFIED.,.F.,.F.,(4,1,4),(0.,0.00178228086064435,0.0035645617212887),
 .UNSPECIFIED.);
#61=B_SPLINE_CURVE_WITH_KNOTS('',3,(#1636,#1637,#1638,#1639,#1640),
 .UNSPECIFIED.,.F.,.F.,(4,1,4),(0.,0.00177698808868682,0.00355397617737364),
 .UNSPECIFIED.);
#62=B_SPLINE_CURVE_WITH_KNOTS('',3,(#1642,#1643,#1644,#1645,#1646),
 .UNSPECIFIED.,.F.,.F.,(4,1,4),(0.,0.0110312806862051,0.0220625613724103),
 .UNSPECIFIED.);
#63=B_SPLINE_CURVE_WITH_KNOTS('',3,(#1670,#1671,#1672,#1673,#1674),
 .UNSPECIFIED.,.F.,.F.,(4,1,4),(0.,0.00168971410585997,0.00337942821171993),
 .UNSPECIFIED.);
#64=B_SPLINE_CURVE_WITH_KNOTS('',3,(#1712,#1713,#1714,#1715,#1716),
 .UNSPECIFIED.,.F.,.F.,(4,1,4),(0.,0.00168971410585997,0.00337942821171993),
 .UNSPECIFIED.);
#65=B_SPLINE_CURVE_WITH_KNOTS('',3,(#1740,#1741,#1742,#1743,#1744),
 .UNSPECIFIED.,.F.,.F.,(4,1,4),(0.,0.0110312806862051,0.0220625613724102),
 .UNSPECIFIED.);
#66=B_SPLINE_CURVE_WITH_KNOTS('',3,(#1747,#1748,#1749,#1750,#1751),
 .UNSPECIFIED.,.F.,.F.,(4,1,4),(0.,0.0110312806862053,0.0220625613724105),
 .UNSPECIFIED.);
#67=B_SPLINE_CURVE_WITH_KNOTS('',3,(#1775,#1776,#1777,#1778,#1779),
 .UNSPECIFIED.,.F.,.F.,(4,1,4),(0.,0.00168971410585997,0.00337942821171993),
 .UNSPECIFIED.);
#68=B_SPLINE_CURVE_WITH_KNOTS('',3,(#1817,#1818,#1819,#1820,#1821),
 .UNSPECIFIED.,.F.,.F.,(4,1,4),(0.,0.00168971410585997,0.00337942821171994),
 .UNSPECIFIED.);
#69=B_SPLINE_CURVE_WITH_KNOTS('',3,(#1845,#1846,#1847,#1848,#1849),
 .UNSPECIFIED.,.F.,.F.,(4,1,4),(0.,0.0110312806862051,0.0220625613724101),
 .UNSPECIFIED.);
#70=CYLINDRICAL_SURFACE('',#969,56.);
#71=CYLINDRICAL_SURFACE('',#985,45.674630354416);
#72=CYLINDRICAL_SURFACE('',#993,45.674630354416);
#73=CYLINDRICAL_SURFACE('',#995,15.75);
#74=CYLINDRICAL_SURFACE('',#998,6.5);
#75=CYLINDRICAL_SURFACE('',#1002,15.75);
#76=CYLINDRICAL_SURFACE('',#1004,6.5);
#77=CYLINDRICAL_SURFACE('',#1017,2.125);
#78=CYLINDRICAL_SURFACE('',#1021,2.125);
#79=CYLINDRICAL_SURFACE('',#1022,2.125);
#80=CYLINDRICAL_SURFACE('',#1026,2.125);
#81=CYLINDRICAL_SURFACE('',#1027,2.125);
#82=CYLINDRICAL_SURFACE('',#1030,2.125);
#83=CYLINDRICAL_SURFACE('',#1036,2.125);
#84=CYLINDRICAL_SURFACE('',#1039,2.125);
#85=CYLINDRICAL_SURFACE('',#1040,2.125);
#86=CYLINDRICAL_SURFACE('',#1043,2.125);
#87=CYLINDRICAL_SURFACE('',#1049,2.125);
#88=CYLINDRICAL_SURFACE('',#1052,2.125);
#89=CYLINDRICAL_SURFACE('',#1053,1.5);
#90=CYLINDRICAL_SURFACE('',#1054,2.5);
#91=CYLINDRICAL_SURFACE('',#1060,1.45);
#92=LINE('',#1328,#132);
#93=LINE('',#1332,#133);
#94=LINE('',#1337,#134);
#95=LINE('',#1341,#135);
#96=LINE('',#1343,#136);
#97=LINE('',#1348,#137);
#98=LINE('',#1355,#138);
#99=LINE('',#1359,#139);
#100=LINE('',#1391,#140);
#101=LINE('',#1395,#141);
#102=LINE('',#1431,#142);
#103=LINE('',#1435,#143);
#104=LINE('',#1464,#144);
#105=LINE('',#1465,#145);
#106=LINE('',#1469,#146);
#107=LINE('',#1470,#147);
#108=LINE('',#1503,#148);
#109=LINE('',#1505,#149);
#110=LINE('',#1507,#150);
#111=LINE('',#1511,#151);
#112=LINE('',#1517,#152);
#113=LINE('',#1525,#153);
#114=LINE('',#1530,#154);
#115=LINE('',#1532,#155);
#116=LINE('',#1534,#156);
#117=LINE('',#1536,#157);
#118=LINE('',#1538,#158);
#119=LINE('',#1542,#159);
#120=LINE('',#1557,#160);
#121=LINE('',#1562,#161);
#122=LINE('',#1571,#162);
#123=LINE('',#1573,#163);
#124=LINE('',#1575,#164);
#125=LINE('',#1582,#165);
#126=LINE('',#1584,#166);
#127=LINE('',#1589,#167);
#128=LINE('',#1593,#168);
#129=LINE('',#1600,#169);
#130=LINE('',#1607,#170);
#131=LINE('',#1609,#171);
#132=VECTOR('',#1069,1000.);
#133=VECTOR('',#1072,1000.);
#134=VECTOR('',#1077,1000.);
#135=VECTOR('',#1080,1000.);
#136=VECTOR('',#1083,1000.);
#137=VECTOR('',#1086,1000.);
#138=VECTOR('',#1093,1000.);
#139=VECTOR('',#1096,1000.);
#140=VECTOR('',#1109,1000.);
#141=VECTOR('',#1112,1000.);
#142=VECTOR('',#1119,1000.);
#143=VECTOR('',#1122,1000.);
#144=VECTOR('',#1131,1000.);
#145=VECTOR('',#1132,1000.);
#146=VECTOR('',#1135,1000.);
#147=VECTOR('',#1136,1000.);
#148=VECTOR('',#1163,1000.);
#149=VECTOR('',#1164,1000.);
#150=VECTOR('',#1167,1000.);
#151=VECTOR('',#1170,1000.);
#152=VECTOR('',#1171,1000.);
#153=VECTOR('',#1174,1000.);
#154=VECTOR('',#1181,1000.);
#155=VECTOR('',#1182,1000.);
#156=VECTOR('',#1185,1000.);
#157=VECTOR('',#1186,1000.);
#158=VECTOR('',#1189,1000.);
#159=VECTOR('',#1192,1000.);
#160=VECTOR('',#1199,1000.);
#161=VECTOR('',#1202,1000.);
#162=VECTOR('',#1207,1000.);
#163=VECTOR('',#1208,1000.);
#164=VECTOR('',#1211,1000.);
#165=VECTOR('',#1212,1000.);
#166=VECTOR('',#1215,1000.);
#167=VECTOR('',#1218,1000.);
#168=VECTOR('',#1223,1000.);
#169=VECTOR('',#1224,1000.);
#170=VECTOR('',#1227,1000.);
#171=VECTOR('',#1228,1000.);
#172=ORIENTED_EDGE('',*,*,#424,.T.);
#173=ORIENTED_EDGE('',*,*,#425,.T.);
#174=ORIENTED_EDGE('',*,*,#426,.T.);
#175=ORIENTED_EDGE('',*,*,#427,.T.);
#176=ORIENTED_EDGE('',*,*,#428,.T.);
#177=ORIENTED_EDGE('',*,*,#429,.T.);
#178=ORIENTED_EDGE('',*,*,#430,.T.);
#179=ORIENTED_EDGE('',*,*,#431,.T.);
#180=ORIENTED_EDGE('',*,*,#432,.T.);
#181=ORIENTED_EDGE('',*,*,#433,.T.);
#182=ORIENTED_EDGE('',*,*,#434,.T.);
#183=ORIENTED_EDGE('',*,*,#435,.T.);
#184=ORIENTED_EDGE('',*,*,#436,.T.);
#185=ORIENTED_EDGE('',*,*,#437,.T.);
#186=ORIENTED_EDGE('',*,*,#438,.T.);
#187=ORIENTED_EDGE('',*,*,#439,.T.);
#188=ORIENTED_EDGE('',*,*,#440,.T.);
#189=ORIENTED_EDGE('',*,*,#441,.F.);
#190=ORIENTED_EDGE('',*,*,#442,.F.);
#191=ORIENTED_EDGE('',*,*,#443,.T.);
#192=ORIENTED_EDGE('',*,*,#444,.T.);
#193=ORIENTED_EDGE('',*,*,#445,.T.);
#194=ORIENTED_EDGE('',*,*,#446,.T.);
#195=ORIENTED_EDGE('',*,*,#447,.T.);
#196=ORIENTED_EDGE('',*,*,#448,.F.);
#197=ORIENTED_EDGE('',*,*,#449,.T.);
#198=ORIENTED_EDGE('',*,*,#450,.T.);
#199=ORIENTED_EDGE('',*,*,#451,.T.);
#200=ORIENTED_EDGE('',*,*,#452,.T.);
#201=ORIENTED_EDGE('',*,*,#453,.T.);
#202=ORIENTED_EDGE('',*,*,#454,.T.);
#203=ORIENTED_EDGE('',*,*,#455,.T.);
#204=ORIENTED_EDGE('',*,*,#456,.T.);
#205=ORIENTED_EDGE('',*,*,#457,.T.);
#206=ORIENTED_EDGE('',*,*,#458,.F.);
#207=ORIENTED_EDGE('',*,*,#459,.T.);
#208=ORIENTED_EDGE('',*,*,#460,.T.);
#209=ORIENTED_EDGE('',*,*,#461,.T.);
#210=ORIENTED_EDGE('',*,*,#462,.T.);
#211=ORIENTED_EDGE('',*,*,#463,.T.);
#212=ORIENTED_EDGE('',*,*,#464,.F.);
#213=ORIENTED_EDGE('',*,*,#465,.F.);
#214=ORIENTED_EDGE('',*,*,#457,.F.);
#215=ORIENTED_EDGE('',*,*,#466,.F.);
#216=ORIENTED_EDGE('',*,*,#467,.F.);
#217=ORIENTED_EDGE('',*,*,#468,.F.);
#218=ORIENTED_EDGE('',*,*,#447,.F.);
#219=ORIENTED_EDGE('',*,*,#469,.F.);
#220=ORIENTED_EDGE('',*,*,#470,.F.);
#221=ORIENTED_EDGE('',*,*,#471,.T.);
#222=ORIENTED_EDGE('',*,*,#472,.T.);
#223=ORIENTED_EDGE('',*,*,#473,.T.);
#224=ORIENTED_EDGE('',*,*,#471,.F.);
#225=ORIENTED_EDGE('',*,*,#474,.T.);
#226=ORIENTED_EDGE('',*,*,#473,.F.);
#227=ORIENTED_EDGE('',*,*,#475,.F.);
#228=ORIENTED_EDGE('',*,*,#476,.T.);
#229=ORIENTED_EDGE('',*,*,#474,.F.);
#230=ORIENTED_EDGE('',*,*,#477,.T.);
#231=ORIENTED_EDGE('',*,*,#476,.F.);
#232=ORIENTED_EDGE('',*,*,#441,.T.);
#233=ORIENTED_EDGE('',*,*,#477,.F.);
#234=ORIENTED_EDGE('',*,*,#478,.F.);
#235=ORIENTED_EDGE('',*,*,#479,.T.);
#236=ORIENTED_EDGE('',*,*,#448,.T.);
#237=ORIENTED_EDGE('',*,*,#468,.T.);
#238=ORIENTED_EDGE('',*,*,#480,.F.);
#239=ORIENTED_EDGE('',*,*,#481,.T.);
#240=ORIENTED_EDGE('',*,*,#482,.T.);
#241=ORIENTED_EDGE('',*,*,#426,.F.);
#242=ORIENTED_EDGE('',*,*,#483,.T.);
#243=ORIENTED_EDGE('',*,*,#478,.T.);
#244=ORIENTED_EDGE('',*,*,#467,.T.);
#245=ORIENTED_EDGE('',*,*,#484,.F.);
#246=ORIENTED_EDGE('',*,*,#485,.T.);
#247=ORIENTED_EDGE('',*,*,#428,.F.);
#248=ORIENTED_EDGE('',*,*,#456,.F.);
#249=ORIENTED_EDGE('',*,*,#486,.T.);
#250=ORIENTED_EDGE('',*,*,#484,.T.);
#251=ORIENTED_EDGE('',*,*,#466,.T.);
#252=ORIENTED_EDGE('',*,*,#470,.T.);
#253=ORIENTED_EDGE('',*,*,#487,.T.);
#254=ORIENTED_EDGE('',*,*,#446,.F.);
#255=ORIENTED_EDGE('',*,*,#488,.T.);
#256=ORIENTED_EDGE('',*,*,#489,.T.);
#257=ORIENTED_EDGE('',*,*,#469,.T.);
#258=ORIENTED_EDGE('',*,*,#490,.F.);
#259=ORIENTED_EDGE('',*,*,#491,.T.);
#260=ORIENTED_EDGE('',*,*,#458,.T.);
#261=ORIENTED_EDGE('',*,*,#465,.T.);
#262=ORIENTED_EDGE('',*,*,#492,.F.);
#263=ORIENTED_EDGE('',*,*,#493,.T.);
#264=ORIENTED_EDGE('',*,*,#494,.T.);
#265=ORIENTED_EDGE('',*,*,#438,.F.);
#266=ORIENTED_EDGE('',*,*,#495,.T.);
#267=ORIENTED_EDGE('',*,*,#490,.T.);
#268=ORIENTED_EDGE('',*,*,#464,.T.);
#269=ORIENTED_EDGE('',*,*,#489,.F.);
#270=ORIENTED_EDGE('',*,*,#496,.T.);
#271=ORIENTED_EDGE('',*,*,#435,.F.);
#272=ORIENTED_EDGE('',*,*,#472,.F.);
#273=ORIENTED_EDGE('',*,*,#497,.T.);
#274=ORIENTED_EDGE('',*,*,#497,.F.);
#275=ORIENTED_EDGE('',*,*,#498,.T.);
#276=ORIENTED_EDGE('',*,*,#499,.T.);
#277=ORIENTED_EDGE('',*,*,#500,.T.);
#278=ORIENTED_EDGE('',*,*,#501,.T.);
#279=ORIENTED_EDGE('',*,*,#502,.T.);
#280=ORIENTED_EDGE('',*,*,#503,.T.);
#281=ORIENTED_EDGE('',*,*,#504,.T.);
#282=ORIENTED_EDGE('',*,*,#492,.T.);
#283=ORIENTED_EDGE('',*,*,#434,.F.);
#284=ORIENTED_EDGE('',*,*,#505,.T.);
#285=ORIENTED_EDGE('',*,*,#506,.T.);
#286=ORIENTED_EDGE('',*,*,#439,.F.);
#287=ORIENTED_EDGE('',*,*,#494,.F.);
#288=ORIENTED_EDGE('',*,*,#507,.T.);
#289=ORIENTED_EDGE('',*,*,#487,.F.);
#290=ORIENTED_EDGE('',*,*,#508,.T.);
#291=ORIENTED_EDGE('',*,*,#509,.T.);
#292=ORIENTED_EDGE('',*,*,#510,.T.);
#293=ORIENTED_EDGE('',*,*,#511,.T.);
#294=ORIENTED_EDGE('',*,*,#512,.T.);
#295=ORIENTED_EDGE('',*,*,#513,.T.);
#296=ORIENTED_EDGE('',*,*,#427,.F.);
#297=ORIENTED_EDGE('',*,*,#482,.F.);
#298=ORIENTED_EDGE('',*,*,#514,.T.);
#299=ORIENTED_EDGE('',*,*,#515,.T.);
#300=ORIENTED_EDGE('',*,*,#516,.T.);
#301=ORIENTED_EDGE('',*,*,#517,.T.);
#302=ORIENTED_EDGE('',*,*,#480,.T.);
#303=ORIENTED_EDGE('',*,*,#431,.F.);
#304=ORIENTED_EDGE('',*,*,#443,.F.);
#305=ORIENTED_EDGE('',*,*,#440,.F.);
#306=ORIENTED_EDGE('',*,*,#500,.F.);
#307=ORIENTED_EDGE('',*,*,#518,.T.);
#308=ORIENTED_EDGE('',*,*,#507,.F.);
#309=ORIENTED_EDGE('',*,*,#519,.F.);
#310=ORIENTED_EDGE('',*,*,#519,.T.);
#311=ORIENTED_EDGE('',*,*,#493,.F.);
#312=ORIENTED_EDGE('',*,*,#520,.F.);
#313=ORIENTED_EDGE('',*,*,#501,.F.);
#314=ORIENTED_EDGE('',*,*,#504,.F.);
#315=ORIENTED_EDGE('',*,*,#521,.T.);
#316=ORIENTED_EDGE('',*,*,#498,.F.);
#317=ORIENTED_EDGE('',*,*,#520,.T.);
#318=ORIENTED_EDGE('',*,*,#510,.F.);
#319=ORIENTED_EDGE('',*,*,#522,.T.);
#320=ORIENTED_EDGE('',*,*,#514,.F.);
#321=ORIENTED_EDGE('',*,*,#523,.F.);
#322=ORIENTED_EDGE('',*,*,#523,.T.);
#323=ORIENTED_EDGE('',*,*,#481,.F.);
#324=ORIENTED_EDGE('',*,*,#524,.F.);
#325=ORIENTED_EDGE('',*,*,#511,.F.);
#326=ORIENTED_EDGE('',*,*,#517,.F.);
#327=ORIENTED_EDGE('',*,*,#525,.T.);
#328=ORIENTED_EDGE('',*,*,#508,.F.);
#329=ORIENTED_EDGE('',*,*,#524,.T.);
#330=ORIENTED_EDGE('',*,*,#485,.F.);
#331=ORIENTED_EDGE('',*,*,#486,.F.);
#332=ORIENTED_EDGE('',*,*,#526,.F.);
#333=ORIENTED_EDGE('',*,*,#429,.F.);
#334=ORIENTED_EDGE('',*,*,#526,.T.);
#335=ORIENTED_EDGE('',*,*,#455,.F.);
#336=ORIENTED_EDGE('',*,*,#527,.F.);
#337=ORIENTED_EDGE('',*,*,#528,.F.);
#338=ORIENTED_EDGE('',*,*,#515,.F.);
#339=ORIENTED_EDGE('',*,*,#430,.F.);
#340=ORIENTED_EDGE('',*,*,#527,.T.);
#341=ORIENTED_EDGE('',*,*,#454,.F.);
#342=ORIENTED_EDGE('',*,*,#516,.F.);
#343=ORIENTED_EDGE('',*,*,#528,.T.);
#344=ORIENTED_EDGE('',*,*,#529,.F.);
#345=ORIENTED_EDGE('',*,*,#529,.T.);
#346=ORIENTED_EDGE('',*,*,#453,.F.);
#347=ORIENTED_EDGE('',*,*,#530,.F.);
#348=ORIENTED_EDGE('',*,*,#525,.F.);
#349=ORIENTED_EDGE('',*,*,#530,.T.);
#350=ORIENTED_EDGE('',*,*,#452,.F.);
#351=ORIENTED_EDGE('',*,*,#531,.F.);
#352=ORIENTED_EDGE('',*,*,#509,.F.);
#353=ORIENTED_EDGE('',*,*,#532,.F.);
#354=ORIENTED_EDGE('',*,*,#522,.F.);
#355=ORIENTED_EDGE('',*,*,#531,.T.);
#356=ORIENTED_EDGE('',*,*,#451,.F.);
#357=ORIENTED_EDGE('',*,*,#512,.F.);
#358=ORIENTED_EDGE('',*,*,#532,.T.);
#359=ORIENTED_EDGE('',*,*,#533,.F.);
#360=ORIENTED_EDGE('',*,*,#533,.T.);
#361=ORIENTED_EDGE('',*,*,#450,.F.);
#362=ORIENTED_EDGE('',*,*,#534,.F.);
#363=ORIENTED_EDGE('',*,*,#424,.F.);
#364=ORIENTED_EDGE('',*,*,#513,.F.);
#365=ORIENTED_EDGE('',*,*,#534,.T.);
#366=ORIENTED_EDGE('',*,*,#449,.F.);
#367=ORIENTED_EDGE('',*,*,#535,.F.);
#368=ORIENTED_EDGE('',*,*,#535,.T.);
#369=ORIENTED_EDGE('',*,*,#479,.F.);
#370=ORIENTED_EDGE('',*,*,#483,.F.);
#371=ORIENTED_EDGE('',*,*,#425,.F.);
#372=ORIENTED_EDGE('',*,*,#496,.F.);
#373=ORIENTED_EDGE('',*,*,#488,.F.);
#374=ORIENTED_EDGE('',*,*,#536,.F.);
#375=ORIENTED_EDGE('',*,*,#432,.F.);
#376=ORIENTED_EDGE('',*,*,#536,.T.);
#377=ORIENTED_EDGE('',*,*,#445,.F.);
#378=ORIENTED_EDGE('',*,*,#537,.F.);
#379=ORIENTED_EDGE('',*,*,#538,.F.);
#380=ORIENTED_EDGE('',*,*,#502,.F.);
#381=ORIENTED_EDGE('',*,*,#433,.F.);
#382=ORIENTED_EDGE('',*,*,#537,.T.);
#383=ORIENTED_EDGE('',*,*,#444,.F.);
#384=ORIENTED_EDGE('',*,*,#503,.F.);
#385=ORIENTED_EDGE('',*,*,#538,.T.);
#386=ORIENTED_EDGE('',*,*,#539,.F.);
#387=ORIENTED_EDGE('',*,*,#539,.T.);
#388=ORIENTED_EDGE('',*,*,#463,.F.);
#389=ORIENTED_EDGE('',*,*,#540,.F.);
#390=ORIENTED_EDGE('',*,*,#521,.F.);
#391=ORIENTED_EDGE('',*,*,#540,.T.);
#392=ORIENTED_EDGE('',*,*,#462,.F.);
#393=ORIENTED_EDGE('',*,*,#541,.F.);
#394=ORIENTED_EDGE('',*,*,#499,.F.);
#395=ORIENTED_EDGE('',*,*,#542,.F.);
#396=ORIENTED_EDGE('',*,*,#518,.F.);
#397=ORIENTED_EDGE('',*,*,#541,.T.);
#398=ORIENTED_EDGE('',*,*,#461,.F.);
#399=ORIENTED_EDGE('',*,*,#505,.F.);
#400=ORIENTED_EDGE('',*,*,#542,.T.);
#401=ORIENTED_EDGE('',*,*,#543,.F.);
#402=ORIENTED_EDGE('',*,*,#543,.T.);
#403=ORIENTED_EDGE('',*,*,#460,.F.);
#404=ORIENTED_EDGE('',*,*,#544,.F.);
#405=ORIENTED_EDGE('',*,*,#436,.F.);
#406=ORIENTED_EDGE('',*,*,#506,.F.);
#407=ORIENTED_EDGE('',*,*,#544,.T.);
#408=ORIENTED_EDGE('',*,*,#459,.F.);
#409=ORIENTED_EDGE('',*,*,#545,.F.);
#410=ORIENTED_EDGE('',*,*,#545,.T.);
#411=ORIENTED_EDGE('',*,*,#491,.F.);
#412=ORIENTED_EDGE('',*,*,#495,.F.);
#413=ORIENTED_EDGE('',*,*,#437,.F.);
#414=ORIENTED_EDGE('',*,*,#475,.T.);
#415=ORIENTED_EDGE('',*,*,#442,.T.);
#416=ORIENTED_EDGE('',*,*,#546,.F.);
#417=ORIENTED_EDGE('',*,*,#547,.T.);
#418=ORIENTED_EDGE('',*,*,#546,.T.);
#419=ORIENTED_EDGE('',*,*,#548,.F.);
#420=ORIENTED_EDGE('',*,*,#549,.F.);
#421=ORIENTED_EDGE('',*,*,#548,.T.);
#422=ORIENTED_EDGE('',*,*,#547,.F.);
#423=ORIENTED_EDGE('',*,*,#549,.T.);
#424=EDGE_CURVE('',#550,#551,#632,.F.);
#425=EDGE_CURVE('',#551,#552,#92,.T.);
#426=EDGE_CURVE('',#552,#553,#633,.F.);
#427=EDGE_CURVE('',#553,#550,#93,.T.);
#428=EDGE_CURVE('',#554,#555,#634,.F.);
#429=EDGE_CURVE('',#555,#556,#94,.T.);
#430=EDGE_CURVE('',#556,#557,#635,.F.);
#431=EDGE_CURVE('',#557,#554,#95,.T.);
#432=EDGE_CURVE('',#558,#559,#96,.T.);
#433=EDGE_CURVE('',#559,#560,#636,.F.);
#434=EDGE_CURVE('',#560,#561,#97,.T.);
#435=EDGE_CURVE('',#561,#558,#637,.F.);
#436=EDGE_CURVE('',#562,#563,#638,.F.);
#437=EDGE_CURVE('',#563,#564,#98,.T.);
#438=EDGE_CURVE('',#564,#565,#639,.F.);
#439=EDGE_CURVE('',#565,#562,#99,.T.);
#440=EDGE_CURVE('',#566,#566,#640,.T.);
#441=EDGE_CURVE('',#567,#567,#641,.T.);
#442=EDGE_CURVE('',#568,#568,#40,.T.);
#443=EDGE_CURVE('',#569,#569,#642,.F.);
#444=EDGE_CURVE('',#570,#571,#643,.T.);
#445=EDGE_CURVE('',#571,#572,#41,.T.);
#446=EDGE_CURVE('',#572,#573,#100,.T.);
#447=EDGE_CURVE('',#573,#574,#644,.T.);
#448=EDGE_CURVE('',#575,#574,#101,.T.);
#449=EDGE_CURVE('',#575,#576,#42,.F.);
#450=EDGE_CURVE('',#576,#577,#645,.T.);
#451=EDGE_CURVE('',#577,#578,#43,.T.);
#452=EDGE_CURVE('',#578,#579,#646,.T.);
#453=EDGE_CURVE('',#579,#580,#44,.T.);
#454=EDGE_CURVE('',#580,#581,#647,.T.);
#455=EDGE_CURVE('',#581,#582,#45,.T.);
#456=EDGE_CURVE('',#582,#583,#102,.T.);
#457=EDGE_CURVE('',#583,#584,#648,.T.);
#458=EDGE_CURVE('',#585,#584,#103,.T.);
#459=EDGE_CURVE('',#585,#586,#46,.F.);
#460=EDGE_CURVE('',#586,#587,#649,.T.);
#461=EDGE_CURVE('',#587,#588,#47,.T.);
#462=EDGE_CURVE('',#588,#589,#650,.T.);
#463=EDGE_CURVE('',#589,#570,#48,.T.);
#464=EDGE_CURVE('',#590,#591,#651,.T.);
#465=EDGE_CURVE('',#584,#590,#104,.T.);
#466=EDGE_CURVE('',#592,#583,#105,.T.);
#467=EDGE_CURVE('',#593,#592,#652,.T.);
#468=EDGE_CURVE('',#574,#593,#106,.T.);
#469=EDGE_CURVE('',#591,#573,#107,.T.);
#470=EDGE_CURVE('',#594,#594,#653,.T.);
#471=EDGE_CURVE('',#595,#595,#654,.T.);
#472=EDGE_CURVE('',#596,#596,#655,.T.);
#473=EDGE_CURVE('',#597,#597,#656,.T.);
#474=EDGE_CURVE('',#598,#598,#657,.T.);
#475=EDGE_CURVE('',#599,#599,#49,.T.);
#476=EDGE_CURVE('',#600,#600,#658,.T.);
#477=EDGE_CURVE('',#601,#601,#659,.T.);
#478=EDGE_CURVE('',#602,#593,#108,.T.);
#479=EDGE_CURVE('',#602,#575,#109,.F.);
#480=EDGE_CURVE('',#603,#554,#110,.T.);
#481=EDGE_CURVE('',#603,#604,#660,.F.);
#482=EDGE_CURVE('',#604,#553,#111,.T.);
#483=EDGE_CURVE('',#552,#602,#50,.T.);
#484=EDGE_CURVE('',#605,#592,#112,.T.);
#485=EDGE_CURVE('',#605,#555,#51,.F.);
#486=EDGE_CURVE('',#582,#605,#113,.F.);
#487=EDGE_CURVE('',#606,#606,#661,.T.);
#488=EDGE_CURVE('',#572,#607,#114,.F.);
#489=EDGE_CURVE('',#607,#591,#115,.T.);
#490=EDGE_CURVE('',#608,#590,#116,.T.);
#491=EDGE_CURVE('',#608,#585,#117,.F.);
#492=EDGE_CURVE('',#609,#561,#118,.T.);
#493=EDGE_CURVE('',#609,#610,#662,.F.);
#494=EDGE_CURVE('',#610,#565,#119,.T.);
#495=EDGE_CURVE('',#564,#608,#52,.T.);
#496=EDGE_CURVE('',#607,#558,#53,.F.);
#497=EDGE_CURVE('',#611,#611,#663,.T.);
#498=EDGE_CURVE('',#612,#613,#120,.T.);
#499=EDGE_CURVE('',#613,#614,#664,.F.);
#500=EDGE_CURVE('',#614,#615,#121,.T.);
#501=EDGE_CURVE('',#615,#612,#665,.T.);
#502=EDGE_CURVE('',#560,#616,#54,.T.);
#503=EDGE_CURVE('',#616,#617,#122,.T.);
#504=EDGE_CURVE('',#617,#609,#123,.F.);
#505=EDGE_CURVE('',#618,#619,#124,.F.);
#506=EDGE_CURVE('',#619,#562,#55,.T.);
#507=EDGE_CURVE('',#610,#618,#125,.F.);
#508=EDGE_CURVE('',#620,#621,#126,.T.);
#509=EDGE_CURVE('',#621,#622,#666,.F.);
#510=EDGE_CURVE('',#622,#623,#127,.T.);
#511=EDGE_CURVE('',#623,#620,#667,.T.);
#512=EDGE_CURVE('',#624,#625,#128,.F.);
#513=EDGE_CURVE('',#625,#550,#56,.T.);
#514=EDGE_CURVE('',#604,#624,#129,.F.);
#515=EDGE_CURVE('',#557,#626,#57,.T.);
#516=EDGE_CURVE('',#626,#627,#130,.T.);
#517=EDGE_CURVE('',#627,#603,#131,.F.);
#518=EDGE_CURVE('',#614,#618,#58,.T.);
#519=EDGE_CURVE('',#615,#610,#668,.T.);
#520=EDGE_CURVE('',#612,#609,#669,.T.);
#521=EDGE_CURVE('',#617,#613,#59,.T.);
#522=EDGE_CURVE('',#622,#624,#60,.T.);
#523=EDGE_CURVE('',#623,#604,#670,.T.);
#524=EDGE_CURVE('',#620,#603,#671,.T.);
#525=EDGE_CURVE('',#627,#621,#61,.T.);
#526=EDGE_CURVE('',#556,#582,#62,.T.);
#527=EDGE_CURVE('',#556,#581,#672,.T.);
#528=EDGE_CURVE('',#626,#580,#63,.T.);
#529=EDGE_CURVE('',#627,#580,#673,.T.);
#530=EDGE_CURVE('',#621,#579,#674,.T.);
#531=EDGE_CURVE('',#622,#578,#675,.T.);
#532=EDGE_CURVE('',#624,#577,#676,.T.);
#533=EDGE_CURVE('',#625,#577,#64,.T.);
#534=EDGE_CURVE('',#551,#576,#677,.T.);
#535=EDGE_CURVE('',#551,#575,#65,.T.);
#536=EDGE_CURVE('',#559,#572,#66,.T.);
#537=EDGE_CURVE('',#559,#571,#678,.T.);
#538=EDGE_CURVE('',#616,#570,#67,.T.);
#539=EDGE_CURVE('',#617,#570,#679,.T.);
#540=EDGE_CURVE('',#613,#589,#680,.T.);
#541=EDGE_CURVE('',#614,#588,#681,.T.);
#542=EDGE_CURVE('',#618,#587,#682,.T.);
#543=EDGE_CURVE('',#619,#587,#68,.T.);
#544=EDGE_CURVE('',#563,#586,#683,.T.);
#545=EDGE_CURVE('',#563,#585,#69,.T.);
#546=EDGE_CURVE('',#628,#628,#684,.T.);
#547=EDGE_CURVE('',#629,#629,#685,.T.);
#548=EDGE_CURVE('',#630,#630,#686,.T.);
#549=EDGE_CURVE('',#631,#631,#687,.T.);
#550=VERTEX_POINT('',#1326);
#551=VERTEX_POINT('',#1327);
#552=VERTEX_POINT('',#1329);
#553=VERTEX_POINT('',#1331);
#554=VERTEX_POINT('',#1335);
#555=VERTEX_POINT('',#1336);
#556=VERTEX_POINT('',#1338);
#557=VERTEX_POINT('',#1340);
#558=VERTEX_POINT('',#1344);
#559=VERTEX_POINT('',#1345);
#560=VERTEX_POINT('',#1347);
#561=VERTEX_POINT('',#1349);
#562=VERTEX_POINT('',#1353);
#563=VERTEX_POINT('',#1354);
#564=VERTEX_POINT('',#1356);
#565=VERTEX_POINT('',#1358);
#566=VERTEX_POINT('',#1362);
#567=VERTEX_POINT('',#1364);
#568=VERTEX_POINT('',#1377);
#569=VERTEX_POINT('',#1379);
#570=VERTEX_POINT('',#1381);
#571=VERTEX_POINT('',#1382);
#572=VERTEX_POINT('',#1390);
#573=VERTEX_POINT('',#1392);
#574=VERTEX_POINT('',#1394);
#575=VERTEX_POINT('',#1396);
#576=VERTEX_POINT('',#1404);
#577=VERTEX_POINT('',#1406);
#578=VERTEX_POINT('',#1412);
#579=VERTEX_POINT('',#1414);
#580=VERTEX_POINT('',#1420);
#581=VERTEX_POINT('',#1422);
#582=VERTEX_POINT('',#1430);
#583=VERTEX_POINT('',#1432);
#584=VERTEX_POINT('',#1434);
#585=VERTEX_POINT('',#1436);
#586=VERTEX_POINT('',#1444);
#587=VERTEX_POINT('',#1446);
#588=VERTEX_POINT('',#1452);
#589=VERTEX_POINT('',#1454);
#590=VERTEX_POINT('',#1462);
#591=VERTEX_POINT('',#1463);
#592=VERTEX_POINT('',#1466);
#593=VERTEX_POINT('',#1468);
#594=VERTEX_POINT('',#1472);
#595=VERTEX_POINT('',#1474);
#596=VERTEX_POINT('',#1476);
#597=VERTEX_POINT('',#1479);
#598=VERTEX_POINT('',#1482);
#599=VERTEX_POINT('',#1495);
#600=VERTEX_POINT('',#1497);
#601=VERTEX_POINT('',#1500);
#602=VERTEX_POINT('',#1504);
#603=VERTEX_POINT('',#1508);
#604=VERTEX_POINT('',#1510);
#605=VERTEX_POINT('',#1518);
#606=VERTEX_POINT('',#1528);
#607=VERTEX_POINT('',#1531);
#608=VERTEX_POINT('',#1535);
#609=VERTEX_POINT('',#1539);
#610=VERTEX_POINT('',#1541);
#611=VERTEX_POINT('',#1555);
#612=VERTEX_POINT('',#1558);
#613=VERTEX_POINT('',#1559);
#614=VERTEX_POINT('',#1561);
#615=VERTEX_POINT('',#1563);
#616=VERTEX_POINT('',#1570);
#617=VERTEX_POINT('',#1572);
#618=VERTEX_POINT('',#1576);
#619=VERTEX_POINT('',#1577);
#620=VERTEX_POINT('',#1585);
#621=VERTEX_POINT('',#1586);
#622=VERTEX_POINT('',#1588);
#623=VERTEX_POINT('',#1590);
#624=VERTEX_POINT('',#1594);
#625=VERTEX_POINT('',#1595);
#626=VERTEX_POINT('',#1606);
#627=VERTEX_POINT('',#1608);
#628=VERTEX_POINT('',#1854);
#629=VERTEX_POINT('',#1856);
#630=VERTEX_POINT('',#1860);
#631=VERTEX_POINT('',#1863);
#632=CIRCLE('',#955,58.125);
#633=CIRCLE('',#956,15.75);
#634=CIRCLE('',#958,15.75);
#635=CIRCLE('',#959,58.125);
#636=CIRCLE('',#961,58.125);
#637=CIRCLE('',#962,15.75);
#638=CIRCLE('',#964,58.125);
#639=CIRCLE('',#965,15.75);
#640=CIRCLE('',#967,53.875);
#641=CIRCLE('',#968,45.674630354416);
#642=CIRCLE('',#970,56.);
#643=CIRCLE('',#971,56.);
#644=CIRCLE('',#972,56.);
#645=CIRCLE('',#973,56.);
#646=CIRCLE('',#974,56.);
#647=CIRCLE('',#975,56.);
#648=CIRCLE('',#976,56.);
#649=CIRCLE('',#977,56.);
#650=CIRCLE('',#978,56.);
#651=CIRCLE('',#980,15.75);
#652=CIRCLE('',#981,15.75);
#653=CIRCLE('',#982,6.5);
#654=CIRCLE('',#983,45.674630354416);
#655=CIRCLE('',#984,6.5);
#656=CIRCLE('',#986,45.674630354416);
#657=CIRCLE('',#988,41.424630354416);
#658=CIRCLE('',#990,41.424630354416);
#659=CIRCLE('',#992,45.674630354416);
#660=CIRCLE('',#996,15.75);
#661=CIRCLE('',#999,6.5);
#662=CIRCLE('',#1003,15.75);
#663=CIRCLE('',#1005,6.5);
#664=CIRCLE('',#1007,58.125);
#665=CIRCLE('',#1008,13.625);
#666=CIRCLE('',#1012,58.125);
#667=CIRCLE('',#1013,13.625);
#668=CIRCLE('',#1018,2.125);
#669=CIRCLE('',#1020,2.125);
#670=CIRCLE('',#1023,2.125);
#671=CIRCLE('',#1025,2.125);
#672=CIRCLE('',#1028,2.125);
#673=CIRCLE('',#1031,2.125);
#674=CIRCLE('',#1032,2.125);
#675=CIRCLE('',#1034,2.125);
#676=CIRCLE('',#1035,2.125);
#677=CIRCLE('',#1038,2.125);
#678=CIRCLE('',#1041,2.125);
#679=CIRCLE('',#1044,2.125);
#680=CIRCLE('',#1045,2.125);
#681=CIRCLE('',#1047,2.125);
#682=CIRCLE('',#1048,2.125);
#683=CIRCLE('',#1051,2.125);
#684=CIRCLE('',#1055,2.5);
#685=CIRCLE('',#1056,2.5);
#686=CIRCLE('',#1059,1.45);
#687=CIRCLE('',#1061,1.45);
#688=EDGE_LOOP('',(#172,#173,#174,#175));
#689=EDGE_LOOP('',(#176,#177,#178,#179));
#690=EDGE_LOOP('',(#180,#181,#182,#183));
#691=EDGE_LOOP('',(#184,#185,#186,#187));
#692=EDGE_LOOP('',(#188));
#693=EDGE_LOOP('',(#189));
#694=EDGE_LOOP('',(#190));
#695=EDGE_LOOP('',(#191));
#696=EDGE_LOOP('',(#192,#193,#194,#195,#196,#197,#198,#199,#200,#201,#202,
#203,#204,#205,#206,#207,#208,#209,#210,#211));
#697=EDGE_LOOP('',(#212,#213,#214,#215,#216,#217,#218,#219));
#698=EDGE_LOOP('',(#220));
#699=EDGE_LOOP('',(#221));
#700=EDGE_LOOP('',(#222));
#701=EDGE_LOOP('',(#223));
#702=EDGE_LOOP('',(#224));
#703=EDGE_LOOP('',(#225));
#704=EDGE_LOOP('',(#226));
#705=EDGE_LOOP('',(#227));
#706=EDGE_LOOP('',(#228));
#707=EDGE_LOOP('',(#229));
#708=EDGE_LOOP('',(#230));
#709=EDGE_LOOP('',(#231));
#710=EDGE_LOOP('',(#232));
#711=EDGE_LOOP('',(#233));
#712=EDGE_LOOP('',(#234,#235,#236,#237));
#713=EDGE_LOOP('',(#238,#239,#240,#241,#242,#243,#244,#245,#246,#247));
#714=EDGE_LOOP('',(#248,#249,#250,#251));
#715=EDGE_LOOP('',(#252));
#716=EDGE_LOOP('',(#253));
#717=EDGE_LOOP('',(#254,#255,#256,#257));
#718=EDGE_LOOP('',(#258,#259,#260,#261));
#719=EDGE_LOOP('',(#262,#263,#264,#265,#266,#267,#268,#269,#270,#271));
#720=EDGE_LOOP('',(#272));
#721=EDGE_LOOP('',(#273));
#722=EDGE_LOOP('',(#274));
#723=EDGE_LOOP('',(#275,#276,#277,#278));
#724=EDGE_LOOP('',(#279,#280,#281,#282,#283));
#725=EDGE_LOOP('',(#284,#285,#286,#287,#288));
#726=EDGE_LOOP('',(#289));
#727=EDGE_LOOP('',(#290,#291,#292,#293));
#728=EDGE_LOOP('',(#294,#295,#296,#297,#298));
#729=EDGE_LOOP('',(#299,#300,#301,#302,#303));
#730=EDGE_LOOP('',(#304));
#731=EDGE_LOOP('',(#305));
#732=EDGE_LOOP('',(#306,#307,#308,#309));
#733=EDGE_LOOP('',(#310,#311,#312,#313));
#734=EDGE_LOOP('',(#314,#315,#316,#317));
#735=EDGE_LOOP('',(#318,#319,#320,#321));
#736=EDGE_LOOP('',(#322,#323,#324,#325));
#737=EDGE_LOOP('',(#326,#327,#328,#329));
#738=EDGE_LOOP('',(#330,#331,#332,#333));
#739=EDGE_LOOP('',(#334,#335,#336));
#740=EDGE_LOOP('',(#337,#338,#339,#340,#341));
#741=EDGE_LOOP('',(#342,#343,#344));
#742=EDGE_LOOP('',(#345,#346,#347,#348));
#743=EDGE_LOOP('',(#349,#350,#351,#352));
#744=EDGE_LOOP('',(#353,#354,#355,#356));
#745=EDGE_LOOP('',(#357,#358,#359));
#746=EDGE_LOOP('',(#360,#361,#362,#363,#364));
#747=EDGE_LOOP('',(#365,#366,#367));
#748=EDGE_LOOP('',(#368,#369,#370,#371));
#749=EDGE_LOOP('',(#372,#373,#374,#375));
#750=EDGE_LOOP('',(#376,#377,#378));
#751=EDGE_LOOP('',(#379,#380,#381,#382,#383));
#752=EDGE_LOOP('',(#384,#385,#386));
#753=EDGE_LOOP('',(#387,#388,#389,#390));
#754=EDGE_LOOP('',(#391,#392,#393,#394));
#755=EDGE_LOOP('',(#395,#396,#397,#398));
#756=EDGE_LOOP('',(#399,#400,#401));
#757=EDGE_LOOP('',(#402,#403,#404,#405,#406));
#758=EDGE_LOOP('',(#407,#408,#409));
#759=EDGE_LOOP('',(#410,#411,#412,#413));
#760=EDGE_LOOP('',(#414));
#761=EDGE_LOOP('',(#415));
#762=EDGE_LOOP('',(#416));
#763=EDGE_LOOP('',(#417));
#764=EDGE_LOOP('',(#418));
#765=EDGE_LOOP('',(#419));
#766=EDGE_LOOP('',(#420));
#767=EDGE_LOOP('',(#421));
#768=EDGE_LOOP('',(#422));
#769=EDGE_LOOP('',(#423));
#770=FACE_BOUND('',#688,.T.);
#771=FACE_BOUND('',#689,.T.);
#772=FACE_BOUND('',#690,.T.);
#773=FACE_BOUND('',#691,.T.);
#774=FACE_BOUND('',#692,.T.);
#775=FACE_BOUND('',#693,.T.);
#776=FACE_BOUND('',#694,.T.);
#777=FACE_BOUND('',#695,.T.);
#778=FACE_BOUND('',#696,.T.);
#779=FACE_BOUND('',#697,.T.);
#780=FACE_BOUND('',#698,.T.);
#781=FACE_BOUND('',#699,.T.);
#782=FACE_BOUND('',#700,.T.);
#783=FACE_BOUND('',#701,.T.);
#784=FACE_BOUND('',#702,.T.);
#785=FACE_BOUND('',#703,.T.);
#786=FACE_BOUND('',#704,.T.);
#787=FACE_BOUND('',#705,.T.);
#788=FACE_BOUND('',#706,.T.);
#789=FACE_BOUND('',#707,.T.);
#790=FACE_BOUND('',#708,.T.);
#791=FACE_BOUND('',#709,.T.);
#792=FACE_BOUND('',#710,.T.);
#793=FACE_BOUND('',#711,.T.);
#794=FACE_BOUND('',#712,.T.);
#795=FACE_BOUND('',#713,.T.);
#796=FACE_BOUND('',#714,.T.);
#797=FACE_BOUND('',#715,.T.);
#798=FACE_BOUND('',#716,.T.);
#799=FACE_BOUND('',#717,.T.);
#800=FACE_BOUND('',#718,.T.);
#801=FACE_BOUND('',#719,.T.);
#802=FACE_BOUND('',#720,.T.);
#803=FACE_BOUND('',#721,.T.);
#804=FACE_BOUND('',#722,.T.);
#805=FACE_BOUND('',#723,.T.);
#806=FACE_BOUND('',#724,.T.);
#807=FACE_BOUND('',#725,.T.);
#808=FACE_BOUND('',#726,.T.);
#809=FACE_BOUND('',#727,.T.);
#810=FACE_BOUND('',#728,.T.);
#811=FACE_BOUND('',#729,.T.);
#812=FACE_BOUND('',#730,.T.);
#813=FACE_BOUND('',#731,.T.);
#814=FACE_BOUND('',#732,.T.);
#815=FACE_BOUND('',#733,.T.);
#816=FACE_BOUND('',#734,.T.);
#817=FACE_BOUND('',#735,.T.);
#818=FACE_BOUND('',#736,.T.);
#819=FACE_BOUND('',#737,.T.);
#820=FACE_BOUND('',#738,.T.);
#821=FACE_BOUND('',#739,.T.);
#822=FACE_BOUND('',#740,.T.);
#823=FACE_BOUND('',#741,.T.);
#824=FACE_BOUND('',#742,.T.);
#825=FACE_BOUND('',#743,.T.);
#826=FACE_BOUND('',#744,.T.);
#827=FACE_BOUND('',#745,.T.);
#828=FACE_BOUND('',#746,.T.);
#829=FACE_BOUND('',#747,.T.);
#830=FACE_BOUND('',#748,.T.);
#831=FACE_BOUND('',#749,.T.);
#832=FACE_BOUND('',#750,.T.);
#833=FACE_BOUND('',#751,.T.);
#834=FACE_BOUND('',#752,.T.);
#835=FACE_BOUND('',#753,.T.);
#836=FACE_BOUND('',#754,.T.);
#837=FACE_BOUND('',#755,.T.);
#838=FACE_BOUND('',#756,.T.);
#839=FACE_BOUND('',#757,.T.);
#840=FACE_BOUND('',#758,.T.);
#841=FACE_BOUND('',#759,.T.);
#842=FACE_BOUND('',#760,.T.);
#843=FACE_BOUND('',#761,.T.);
#844=FACE_BOUND('',#762,.T.);
#845=FACE_BOUND('',#763,.T.);
#846=FACE_BOUND('',#764,.T.);
#847=FACE_BOUND('',#765,.T.);
#848=FACE_BOUND('',#766,.T.);
#849=FACE_BOUND('',#767,.T.);
#850=FACE_BOUND('',#768,.T.);
#851=FACE_BOUND('',#769,.T.);
#852=PLANE('',#954);
#853=PLANE('',#957);
#854=PLANE('',#960);
#855=PLANE('',#963);
#856=PLANE('',#966);
#857=PLANE('',#979);
#858=PLANE('',#994);
#859=PLANE('',#997);
#860=PLANE('',#1000);
#861=PLANE('',#1001);
#862=PLANE('',#1006);
#863=PLANE('',#1009);
#864=PLANE('',#1010);
#865=PLANE('',#1011);
#866=PLANE('',#1014);
#867=PLANE('',#1015);
#868=PLANE('',#1057);
#869=PLANE('',#1058);
#870=PLANE('',#1062);
#871=ADVANCED_FACE('',(#770),#852,.T.);
#872=ADVANCED_FACE('',(#771),#853,.T.);
#873=ADVANCED_FACE('',(#772),#854,.T.);
#874=ADVANCED_FACE('',(#773),#855,.T.);
#875=ADVANCED_FACE('',(#774,#775),#856,.T.);
#876=ADVANCED_FACE('',(#776,#777,#778),#70,.T.);
#877=ADVANCED_FACE('',(#779,#780,#781,#782),#857,.T.);
#878=ADVANCED_FACE('',(#783,#784),#71,.F.);
#879=ADVANCED_FACE('',(#785,#786),#29,.F.);
#880=ADVANCED_FACE('',(#787,#788,#789),#28,.F.);
#881=ADVANCED_FACE('',(#790,#791),#30,.F.);
#882=ADVANCED_FACE('',(#792,#793),#72,.F.);
#883=ADVANCED_FACE('',(#794),#858,.F.);
#884=ADVANCED_FACE('',(#795),#73,.T.);
#885=ADVANCED_FACE('',(#796),#859,.F.);
#886=ADVANCED_FACE('',(#797,#798),#74,.F.);
#887=ADVANCED_FACE('',(#799),#860,.F.);
#888=ADVANCED_FACE('',(#800),#861,.F.);
#889=ADVANCED_FACE('',(#801),#75,.T.);
#890=ADVANCED_FACE('',(#802,#803),#76,.F.);
#891=ADVANCED_FACE('',(#804,#805),#862,.T.);
#892=ADVANCED_FACE('',(#806),#863,.F.);
#893=ADVANCED_FACE('',(#807),#864,.F.);
#894=ADVANCED_FACE('',(#808,#809),#865,.T.);
#895=ADVANCED_FACE('',(#810),#866,.F.);
#896=ADVANCED_FACE('',(#811),#867,.F.);
#897=ADVANCED_FACE('',(#812,#813),#31,.T.);
#898=ADVANCED_FACE('',(#814),#77,.T.);
#899=ADVANCED_FACE('',(#815),#32,.T.);
#900=ADVANCED_FACE('',(#816),#78,.T.);
#901=ADVANCED_FACE('',(#817),#79,.T.);
#902=ADVANCED_FACE('',(#818),#33,.T.);
#903=ADVANCED_FACE('',(#819),#80,.T.);
#904=ADVANCED_FACE('',(#820),#81,.T.);
#905=ADVANCED_FACE('',(#821),#20,.F.);
#906=ADVANCED_FACE('',(#822),#34,.F.);
#907=ADVANCED_FACE('',(#823),#82,.F.);
#908=ADVANCED_FACE('',(#824),#21,.F.);
#909=ADVANCED_FACE('',(#825),#35,.F.);
#910=ADVANCED_FACE('',(#826),#22,.F.);
#911=ADVANCED_FACE('',(#827),#83,.F.);
#912=ADVANCED_FACE('',(#828),#36,.F.);
#913=ADVANCED_FACE('',(#829),#23,.F.);
#914=ADVANCED_FACE('',(#830),#84,.T.);
#915=ADVANCED_FACE('',(#831),#85,.T.);
#916=ADVANCED_FACE('',(#832),#24,.F.);
#917=ADVANCED_FACE('',(#833),#37,.F.);
#918=ADVANCED_FACE('',(#834),#86,.F.);
#919=ADVANCED_FACE('',(#835),#25,.F.);
#920=ADVANCED_FACE('',(#836),#38,.F.);
#921=ADVANCED_FACE('',(#837),#26,.F.);
#922=ADVANCED_FACE('',(#838),#87,.F.);
#923=ADVANCED_FACE('',(#839),#39,.F.);
#924=ADVANCED_FACE('',(#840),#27,.F.);
#925=ADVANCED_FACE('',(#841),#88,.T.);
#926=ADVANCED_FACE('',(#842,#843),#89,.F.);
#927=ADVANCED_FACE('',(#844,#845),#90,.T.);
#928=ADVANCED_FACE('',(#846),#868,.F.);
#929=ADVANCED_FACE('',(#847),#869,.F.);
#930=ADVANCED_FACE('',(#848,#849),#91,.T.);
#931=ADVANCED_FACE('',(#850,#851),#870,.F.);
#932=CLOSED_SHELL('',(#871,#872,#873,#874,#875,#876,#877,#878,#879,#880,
#881,#882,#883,#884,#885,#886,#887,#888,#889,#890,#891,#892,#893,#894,#895,
#896,#897,#898,#899,#900,#901,#902,#903,#904,#905,#906,#907,#908,#909,#910,
#911,#912,#913,#914,#915,#916,#917,#918,#919,#920,#921,#922,#923,#924,#925,
#926));
#933=CLOSED_SHELL('',(#927,#928,#929,#930,#931));
#934=STYLED_ITEM('',(#936),#949);
#935=STYLED_ITEM('',(#937),#950);
#936=PRESENTATION_STYLE_ASSIGNMENT((#938));
#937=PRESENTATION_STYLE_ASSIGNMENT((#939));
#938=SURFACE_STYLE_USAGE(.BOTH.,#940);
#939=SURFACE_STYLE_USAGE(.BOTH.,#941);
#940=SURFACE_SIDE_STYLE('',(#942));
#941=SURFACE_SIDE_STYLE('',(#943));
#942=SURFACE_STYLE_FILL_AREA(#944);
#943=SURFACE_STYLE_FILL_AREA(#945);
#944=FILL_AREA_STYLE('',(#946));
#945=FILL_AREA_STYLE('',(#947));
#946=FILL_AREA_STYLE_COLOUR('',#948);
#947=FILL_AREA_STYLE_COLOUR('',#948);
#948=COLOUR_RGB('',0.506983280181885,0.531564235687256,0.550000011920929);
#949=MANIFOLD_SOLID_BREP('',#932);
#950=MANIFOLD_SOLID_BREP('',#933);
#951=SHAPE_DEFINITION_REPRESENTATION(#1871,#952);
#952=SHAPE_REPRESENTATION('FLU\X2\94F8902051F87F185EA783F15F62\X0\',(#953),
#1866);
#953=AXIS2_PLACEMENT_3D('',#1323,#1063,#1064);
#954=AXIS2_PLACEMENT_3D('',#1324,#1065,#1066);
#955=AXIS2_PLACEMENT_3D('',#1325,#1067,#1068);
#956=AXIS2_PLACEMENT_3D('',#1330,#1070,#1071);
#957=AXIS2_PLACEMENT_3D('',#1333,#1073,#1074);
#958=AXIS2_PLACEMENT_3D('',#1334,#1075,#1076);
#959=AXIS2_PLACEMENT_3D('',#1339,#1078,#1079);
#960=AXIS2_PLACEMENT_3D('',#1342,#1081,#1082);
#961=AXIS2_PLACEMENT_3D('',#1346,#1084,#1085);
#962=AXIS2_PLACEMENT_3D('',#1350,#1087,#1088);
#963=AXIS2_PLACEMENT_3D('',#1351,#1089,#1090);
#964=AXIS2_PLACEMENT_3D('',#1352,#1091,#1092);
#965=AXIS2_PLACEMENT_3D('',#1357,#1094,#1095);
#966=AXIS2_PLACEMENT_3D('',#1360,#1097,#1098);
#967=AXIS2_PLACEMENT_3D('',#1361,#1099,#1100);
#968=AXIS2_PLACEMENT_3D('',#1363,#1101,#1102);
#969=AXIS2_PLACEMENT_3D('',#1365,#1103,#1104);
#970=AXIS2_PLACEMENT_3D('',#1378,#1105,#1106);
#971=AXIS2_PLACEMENT_3D('',#1380,#1107,#1108);
#972=AXIS2_PLACEMENT_3D('',#1393,#1110,#1111);
#973=AXIS2_PLACEMENT_3D('',#1405,#1113,#1114);
#974=AXIS2_PLACEMENT_3D('',#1413,#1115,#1116);
#975=AXIS2_PLACEMENT_3D('',#1421,#1117,#1118);
#976=AXIS2_PLACEMENT_3D('',#1433,#1120,#1121);
#977=AXIS2_PLACEMENT_3D('',#1445,#1123,#1124);
#978=AXIS2_PLACEMENT_3D('',#1453,#1125,#1126);
#979=AXIS2_PLACEMENT_3D('',#1460,#1127,#1128);
#980=AXIS2_PLACEMENT_3D('',#1461,#1129,#1130);
#981=AXIS2_PLACEMENT_3D('',#1467,#1133,#1134);
#982=AXIS2_PLACEMENT_3D('',#1471,#1137,#1138);
#983=AXIS2_PLACEMENT_3D('',#1473,#1139,#1140);
#984=AXIS2_PLACEMENT_3D('',#1475,#1141,#1142);
#985=AXIS2_PLACEMENT_3D('',#1477,#1143,#1144);
#986=AXIS2_PLACEMENT_3D('',#1478,#1145,#1146);
#987=AXIS2_PLACEMENT_3D('',#1480,#1147,#1148);
#988=AXIS2_PLACEMENT_3D('',#1481,#1149,#1150);
#989=AXIS2_PLACEMENT_3D('',#1483,#1151,#1152);
#990=AXIS2_PLACEMENT_3D('',#1496,#1153,#1154);
#991=AXIS2_PLACEMENT_3D('',#1498,#1155,#1156);
#992=AXIS2_PLACEMENT_3D('',#1499,#1157,#1158);
#993=AXIS2_PLACEMENT_3D('',#1501,#1159,#1160);
#994=AXIS2_PLACEMENT_3D('',#1502,#1161,#1162);
#995=AXIS2_PLACEMENT_3D('',#1506,#1165,#1166);
#996=AXIS2_PLACEMENT_3D('',#1509,#1168,#1169);
#997=AXIS2_PLACEMENT_3D('',#1524,#1172,#1173);
#998=AXIS2_PLACEMENT_3D('',#1526,#1175,#1176);
#999=AXIS2_PLACEMENT_3D('',#1527,#1177,#1178);
#1000=AXIS2_PLACEMENT_3D('',#1529,#1179,#1180);
#1001=AXIS2_PLACEMENT_3D('',#1533,#1183,#1184);
#1002=AXIS2_PLACEMENT_3D('',#1537,#1187,#1188);
#1003=AXIS2_PLACEMENT_3D('',#1540,#1190,#1191);
#1004=AXIS2_PLACEMENT_3D('',#1553,#1193,#1194);
#1005=AXIS2_PLACEMENT_3D('',#1554,#1195,#1196);
#1006=AXIS2_PLACEMENT_3D('',#1556,#1197,#1198);
#1007=AXIS2_PLACEMENT_3D('',#1560,#1200,#1201);
#1008=AXIS2_PLACEMENT_3D('',#1564,#1203,#1204);
#1009=AXIS2_PLACEMENT_3D('',#1565,#1205,#1206);
#1010=AXIS2_PLACEMENT_3D('',#1574,#1209,#1210);
#1011=AXIS2_PLACEMENT_3D('',#1583,#1213,#1214);
#1012=AXIS2_PLACEMENT_3D('',#1587,#1216,#1217);
#1013=AXIS2_PLACEMENT_3D('',#1591,#1219,#1220);
#1014=AXIS2_PLACEMENT_3D('',#1592,#1221,#1222);
#1015=AXIS2_PLACEMENT_3D('',#1601,#1225,#1226);
#1016=AXIS2_PLACEMENT_3D('',#1610,#1229,#1230);
#1017=AXIS2_PLACEMENT_3D('',#1611,#1231,#1232);
#1018=AXIS2_PLACEMENT_3D('',#1617,#1233,#1234);
#1019=AXIS2_PLACEMENT_3D('',#1618,#1235,#1236);
#1020=AXIS2_PLACEMENT_3D('',#1619,#1237,#1238);
#1021=AXIS2_PLACEMENT_3D('',#1620,#1239,#1240);
#1022=AXIS2_PLACEMENT_3D('',#1626,#1241,#1242);
#1023=AXIS2_PLACEMENT_3D('',#1632,#1243,#1244);
#1024=AXIS2_PLACEMENT_3D('',#1633,#1245,#1246);
#1025=AXIS2_PLACEMENT_3D('',#1634,#1247,#1248);
#1026=AXIS2_PLACEMENT_3D('',#1635,#1249,#1250);
#1027=AXIS2_PLACEMENT_3D('',#1641,#1251,#1252);
#1028=AXIS2_PLACEMENT_3D('',#1668,#1253,#1254);
#1029=AXIS2_PLACEMENT_3D('',#1669,#1255,#1256);
#1030=AXIS2_PLACEMENT_3D('',#1675,#1257,#1258);
#1031=AXIS2_PLACEMENT_3D('',#1676,#1259,#1260);
#1032=AXIS2_PLACEMENT_3D('',#1692,#1261,#1262);
#1033=AXIS2_PLACEMENT_3D('',#1693,#1263,#1264);
#1034=AXIS2_PLACEMENT_3D('',#1694,#1265,#1266);
#1035=AXIS2_PLACEMENT_3D('',#1710,#1267,#1268);
#1036=AXIS2_PLACEMENT_3D('',#1711,#1269,#1270);
#1037=AXIS2_PLACEMENT_3D('',#1717,#1271,#1272);
#1038=AXIS2_PLACEMENT_3D('',#1718,#1273,#1274);
#1039=AXIS2_PLACEMENT_3D('',#1745,#1275,#1276);
#1040=AXIS2_PLACEMENT_3D('',#1746,#1277,#1278);
#1041=AXIS2_PLACEMENT_3D('',#1773,#1279,#1280);
#1042=AXIS2_PLACEMENT_3D('',#1774,#1281,#1282);
#1043=AXIS2_PLACEMENT_3D('',#1780,#1283,#1284);
#1044=AXIS2_PLACEMENT_3D('',#1781,#1285,#1286);
#1045=AXIS2_PLACEMENT_3D('',#1797,#1287,#1288);
#1046=AXIS2_PLACEMENT_3D('',#1798,#1289,#1290);
#1047=AXIS2_PLACEMENT_3D('',#1799,#1291,#1292);
#1048=AXIS2_PLACEMENT_3D('',#1815,#1293,#1294);
#1049=AXIS2_PLACEMENT_3D('',#1816,#1295,#1296);
#1050=AXIS2_PLACEMENT_3D('',#1822,#1297,#1298);
#1051=AXIS2_PLACEMENT_3D('',#1823,#1299,#1300);
#1052=AXIS2_PLACEMENT_3D('',#1850,#1301,#1302);
#1053=AXIS2_PLACEMENT_3D('',#1851,#1303,#1304);
#1054=AXIS2_PLACEMENT_3D('',#1852,#1305,#1306);
#1055=AXIS2_PLACEMENT_3D('',#1853,#1307,#1308);
#1056=AXIS2_PLACEMENT_3D('',#1855,#1309,#1310);
#1057=AXIS2_PLACEMENT_3D('',#1857,#1311,#1312);
#1058=AXIS2_PLACEMENT_3D('',#1858,#1313,#1314);
#1059=AXIS2_PLACEMENT_3D('',#1859,#1315,#1316);
#1060=AXIS2_PLACEMENT_3D('',#1861,#1317,#1318);
#1061=AXIS2_PLACEMENT_3D('',#1862,#1319,#1320);
#1062=AXIS2_PLACEMENT_3D('',#1864,#1321,#1322);
#1063=DIRECTION('',(0.,0.,1.));
#1064=DIRECTION('',(1.,0.,0.));
#1065=DIRECTION('',(-6.19544098563145E-17,-1.,0.));
#1066=DIRECTION('',(1.,-6.19544098563145E-17,0.));
#1067=DIRECTION('',(-6.19544098563145E-17,-1.,0.));
#1068=DIRECTION('',(1.,-6.19544098563145E-17,0.));
#1069=DIRECTION('',(0.542087542087541,-3.35847137604937E-17,-0.840322019652876));
#1070=DIRECTION('',(-6.19544098563145E-17,-1.,0.));
#1071=DIRECTION('',(1.,-6.19544098563145E-17,0.));
#1072=DIRECTION('',(0.,0.,1.));
#1073=DIRECTION('',(-6.19544098563145E-17,-1.,0.));
#1074=DIRECTION('',(1.,-6.19544098563145E-17,0.));
#1075=DIRECTION('',(-6.19544098563145E-17,-1.,0.));
#1076=DIRECTION('',(1.,-6.19544098563145E-17,0.));
#1077=DIRECTION('',(0.542087542087541,-3.35847137604937E-17,0.840322019652876));
#1078=DIRECTION('',(-6.19544098563145E-17,-1.,0.));
#1079=DIRECTION('',(1.,-6.19544098563145E-17,0.));
#1080=DIRECTION('',(-1.69154953820866E-16,1.04798953382439E-32,-1.));
#1081=DIRECTION('',(-6.19544098563145E-17,-1.,0.));
#1082=DIRECTION('',(1.,-6.19544098563145E-17,0.));
#1083=DIRECTION('',(-0.542087542087542,3.35847137604937E-17,-0.840322019652875));
#1084=DIRECTION('',(-6.19544098563145E-17,-1.,0.));
#1085=DIRECTION('',(1.,-6.19544098563145E-17,0.));
#1086=DIRECTION('',(-1.69154953820866E-16,1.04798953382439E-32,1.));
#1087=DIRECTION('',(-6.19544098563145E-17,-1.,0.));
#1088=DIRECTION('',(1.,-6.19544098563145E-17,0.));
#1089=DIRECTION('',(-6.19544098563145E-17,-1.,0.));
#1090=DIRECTION('',(1.,-6.19544098563145E-17,0.));
#1091=DIRECTION('',(-6.19544098563145E-17,-1.,0.));
#1092=DIRECTION('',(1.,-6.19544098563145E-17,0.));
#1093=DIRECTION('',(-0.542087542087541,3.35847137604937E-17,0.840322019652876));
#1094=DIRECTION('',(-6.19544098563145E-17,-1.,0.));
#1095=DIRECTION('',(1.,-6.19544098563145E-17,0.));
#1096=DIRECTION('',(-1.35323963056693E-15,8.38391627059512E-32,-1.));
#1097=DIRECTION('',(-6.12303176911189E-17,-1.,0.));
#1098=DIRECTION('',(1.,-6.12303176911189E-17,0.));
#1099=DIRECTION('',(-6.12303176911189E-17,-1.,0.));
#1100=DIRECTION('',(1.,-6.12303176911189E-17,0.));
#1101=DIRECTION('',(-6.12303176911189E-17,-1.,0.));
#1102=DIRECTION('',(1.,-6.12303176911189E-17,0.));
#1103=DIRECTION('',(-6.12303176911189E-17,-1.,0.));
#1104=DIRECTION('',(1.,-6.12303176911189E-17,0.));
#1105=DIRECTION('',(-6.12303176911189E-17,-1.,0.));
#1106=DIRECTION('',(1.,-6.12303176911189E-17,0.));
#1107=DIRECTION('',(-6.19544098563145E-17,-1.,0.));
#1108=DIRECTION('',(1.,-6.19544098563145E-17,0.));
#1109=DIRECTION('',(6.12303176911189E-17,1.,0.));
#1110=DIRECTION('',(-6.12303176911189E-17,-1.,0.));
#1111=DIRECTION('',(1.,-6.12303176911189E-17,0.));
#1112=DIRECTION('',(6.12303176911189E-17,1.,0.));
#1113=DIRECTION('',(-6.19544098563145E-17,-1.,0.));
#1114=DIRECTION('',(1.,-6.19544098563145E-17,0.));
#1115=DIRECTION('',(0.,-1.,0.));
#1116=DIRECTION('',(0.,0.,-1.));
#1117=DIRECTION('',(-6.19544098563145E-17,-1.,0.));
#1118=DIRECTION('',(1.,-6.19544098563145E-17,0.));
#1119=DIRECTION('',(6.12303176911189E-17,1.,0.));
#1120=DIRECTION('',(-6.12303176911189E-17,-1.,0.));
#1121=DIRECTION('',(1.,-6.12303176911189E-17,0.));
#1122=DIRECTION('',(6.12303176911189E-17,1.,0.));
#1123=DIRECTION('',(-6.19544098563145E-17,-1.,0.));
#1124=DIRECTION('',(1.,-6.19544098563145E-17,0.));
#1125=DIRECTION('',(0.,-1.,0.));
#1126=DIRECTION('',(0.,0.,-1.));
#1127=DIRECTION('',(6.12303176911189E-17,1.,0.));
#1128=DIRECTION('',(-1.,6.12303176911189E-17,0.));
#1129=DIRECTION('',(-6.19544098563145E-17,-1.,0.));
#1130=DIRECTION('',(-1.,6.19544098563145E-17,0.));
#1131=DIRECTION('',(-0.542087542087541,3.35847137604936E-17,0.840322019652876));
#1132=DIRECTION('',(0.542087542087541,-3.35847137604937E-17,0.840322019652876));
#1133=DIRECTION('',(-6.19544098563145E-17,-1.,0.));
#1134=DIRECTION('',(-1.,6.19544098563145E-17,0.));
#1135=DIRECTION('',(0.542087542087541,-3.35847137604936E-17,-0.840322019652876));
#1136=DIRECTION('',(-0.542087542087542,3.35847137604937E-17,-0.840322019652875));
#1137=DIRECTION('',(6.19544098563145E-17,1.,0.));
#1138=DIRECTION('',(-1.,6.19544098563145E-17,0.));
#1139=DIRECTION('',(-6.12303176911189E-17,-1.,0.));
#1140=DIRECTION('',(1.,-6.12303176911189E-17,0.));
#1141=DIRECTION('',(-6.19544098563145E-17,-1.,0.));
#1142=DIRECTION('',(-1.,6.19544098563145E-17,0.));
#1143=DIRECTION('',(-6.12303176911189E-17,-1.,0.));
#1144=DIRECTION('',(1.,-6.12303176911189E-17,0.));
#1145=DIRECTION('',(-6.12303176911189E-17,-1.,0.));
#1146=DIRECTION('',(1.,-6.12303176911189E-17,0.));
#1147=DIRECTION('',(-6.12303176911189E-17,-1.,0.));
#1148=DIRECTION('',(1.,-6.12303176911189E-17,0.));
#1149=DIRECTION('',(-6.12303176911189E-17,-1.,0.));
#1150=DIRECTION('',(1.,-6.12303176911189E-17,0.));
#1151=DIRECTION('',(-6.12303176911189E-17,-1.,0.));
#1152=DIRECTION('',(0.,0.,1.));
#1153=DIRECTION('',(-6.12303176911189E-17,-1.,0.));
#1154=DIRECTION('',(1.,-6.12303176911189E-17,0.));
#1155=DIRECTION('',(-6.12303176911189E-17,-1.,0.));
#1156=DIRECTION('',(1.,-6.12303176911189E-17,0.));
#1157=DIRECTION('',(-6.12303176911189E-17,-1.,0.));
#1158=DIRECTION('',(1.,-6.12303176911189E-17,0.));
#1159=DIRECTION('',(-6.12303176911189E-17,-1.,0.));
#1160=DIRECTION('',(1.,-6.12303176911189E-17,0.));
#1161=DIRECTION('',(0.840322019652876,-5.14531842261882E-17,0.542087542087541));
#1162=DIRECTION('',(0.542087542087541,0.,-0.840322019652876));
#1163=DIRECTION('',(6.12303176911189E-17,1.,0.));
#1164=DIRECTION('',(0.542087542087541,-3.35847137604937E-17,-0.840322019652876));
#1165=DIRECTION('',(6.12303176911189E-17,1.,0.));
#1166=DIRECTION('',(-1.,6.12303176911189E-17,0.));
#1167=DIRECTION('',(0.,1.,0.));
#1168=DIRECTION('',(0.,-1.,0.));
#1169=DIRECTION('',(0.,0.,-1.));
#1170=DIRECTION('',(0.,1.,0.));
#1171=DIRECTION('',(6.12303176911189E-17,1.,0.));
#1172=DIRECTION('',(-0.840322019652876,5.14531842261882E-17,0.542087542087541));
#1173=DIRECTION('',(0.542087542087541,0.,0.840322019652876));
#1174=DIRECTION('',(0.542087542087541,-3.35847137604937E-17,0.840322019652876));
#1175=DIRECTION('',(6.12303176911189E-17,1.,0.));
#1176=DIRECTION('',(-1.,6.12303176911189E-17,0.));
#1177=DIRECTION('',(0.,-1.,0.));
#1178=DIRECTION('',(1.,0.,0.));
#1179=DIRECTION('',(0.840322019652875,-5.14531842261882E-17,-0.542087542087542));
#1180=DIRECTION('',(-0.542087542087542,0.,-0.840322019652875));
#1181=DIRECTION('',(-0.542087542087542,3.35847137604937E-17,-0.840322019652875));
#1182=DIRECTION('',(6.12303176911189E-17,1.,0.));
#1183=DIRECTION('',(-0.840322019652876,5.14531842261882E-17,-0.542087542087541));
#1184=DIRECTION('',(-0.542087542087541,0.,0.840322019652876));
#1185=DIRECTION('',(6.12303176911189E-17,1.,0.));
#1186=DIRECTION('',(-0.542087542087541,3.35847137604937E-17,0.840322019652876));
#1187=DIRECTION('',(6.12303176911189E-17,1.,0.));
#1188=DIRECTION('',(-1.,6.12303176911189E-17,0.));
#1189=DIRECTION('',(0.,1.,0.));
#1190=DIRECTION('',(0.,-1.,0.));
#1191=DIRECTION('',(0.,0.,-1.));
#1192=DIRECTION('',(0.,1.,0.));
#1193=DIRECTION('',(6.12303176911189E-17,1.,0.));
#1194=DIRECTION('',(-1.,6.12303176911189E-17,0.));
#1195=DIRECTION('',(0.,-1.,0.));
#1196=DIRECTION('',(1.,0.,0.));
#1197=DIRECTION('',(0.,-1.,0.));
#1198=DIRECTION('',(0.,0.,-1.));
#1199=DIRECTION('',(1.69154953820866E-16,0.,-1.));
#1200=DIRECTION('',(0.,-1.,0.));
#1201=DIRECTION('',(0.,0.,-1.));
#1202=DIRECTION('',(1.35323963056693E-15,0.,1.));
#1203=DIRECTION('',(0.,-1.,0.));
#1204=DIRECTION('',(0.,0.,-1.));
#1205=DIRECTION('',(1.,0.,1.69154953820866E-16));
#1206=DIRECTION('',(1.69154953820866E-16,0.,-1.));
#1207=DIRECTION('',(-1.75200747438555E-48,-1.,1.03574115614782E-32));
#1208=DIRECTION('',(1.69154953820866E-16,0.,-1.));
#1209=DIRECTION('',(-1.,0.,1.35323963056693E-15));
#1210=DIRECTION('',(1.35323963056693E-15,0.,1.));
#1211=DIRECTION('',(-1.12128478360675E-46,-1.,-8.28592924918255E-32));
#1212=DIRECTION('',(1.35323963056693E-15,0.,1.));
#1213=DIRECTION('',(0.,-1.,0.));
#1214=DIRECTION('',(0.,0.,-1.));
#1215=DIRECTION('',(1.69154953820866E-16,0.,1.));
#1216=DIRECTION('',(0.,-1.,0.));
#1217=DIRECTION('',(0.,0.,-1.));
#1218=DIRECTION('',(0.,0.,-1.));
#1219=DIRECTION('',(0.,-1.,0.));
#1220=DIRECTION('',(0.,0.,-1.));
#1221=DIRECTION('',(1.,0.,0.));
#1222=DIRECTION('',(0.,0.,-1.));
#1223=DIRECTION('',(0.,-1.,0.));
#1224=DIRECTION('',(0.,0.,-1.));
#1225=DIRECTION('',(-1.,0.,1.69154953820866E-16));
#1226=DIRECTION('',(1.69154953820866E-16,0.,1.));
#1227=DIRECTION('',(-1.75200747438555E-48,-1.,-1.03574115614782E-32));
#1228=DIRECTION('',(1.69154953820866E-16,0.,1.));
#1229=DIRECTION('',(-6.12303176911189E-17,-1.,0.));
#1230=DIRECTION('',(1.,-6.12303176911189E-17,0.));
#1231=DIRECTION('',(-1.35323963056693E-15,0.,-1.));
#1232=DIRECTION('',(-1.,0.,1.35323963056693E-15));
#1233=DIRECTION('',(0.,0.,1.));
#1234=DIRECTION('',(1.,0.,0.));
#1235=DIRECTION('',(0.,-1.,0.));
#1236=DIRECTION('',(0.,0.,-1.));
#1237=DIRECTION('',(0.,0.,-1.));
#1238=DIRECTION('',(-1.,0.,0.));
#1239=DIRECTION('',(-1.69154953820866E-16,0.,1.));
#1240=DIRECTION('',(1.,0.,1.69154953820866E-16));
#1241=DIRECTION('',(0.,0.,1.));
#1242=DIRECTION('',(1.,0.,0.));
#1243=DIRECTION('',(0.,0.,-1.));
#1244=DIRECTION('',(-1.,0.,0.));
#1245=DIRECTION('',(0.,-1.,0.));
#1246=DIRECTION('',(0.,0.,-1.));
#1247=DIRECTION('',(0.,0.,1.));
#1248=DIRECTION('',(1.,0.,0.));
#1249=DIRECTION('',(-1.69154953820866E-16,0.,-1.));
#1250=DIRECTION('',(-1.,0.,1.69154953820866E-16));
#1251=DIRECTION('',(-0.542087542087541,3.35847137604937E-17,-0.840322019652876));
#1252=DIRECTION('',(-0.840322019652876,0.,0.542087542087541));
#1253=DIRECTION('',(0.817868874355809,0.,0.575404644020155));
#1254=DIRECTION('',(0.575404644020155,0.,-0.817868874355809));
#1255=DIRECTION('',(-6.19544098563145E-17,-1.,0.));
#1256=DIRECTION('',(1.,-6.19544098563145E-17,0.));
#1257=DIRECTION('',(-6.12303176911189E-17,-1.,0.));
#1258=DIRECTION('',(1.,-6.12303176911189E-17,0.));
#1259=DIRECTION('',(0.,1.,0.));
#1260=DIRECTION('',(0.,0.,1.));
#1261=DIRECTION('',(0.972138162628045,0.,0.234408602150537));
#1262=DIRECTION('',(0.234408602150537,0.,-0.972138162628045));
#1263=DIRECTION('',(0.,-1.,0.));
#1264=DIRECTION('',(0.,0.,-1.));
#1265=DIRECTION('',(0.972138162628045,0.,-0.234408602150537));
#1266=DIRECTION('',(-0.234408602150537,0.,-0.972138162628045));
#1267=DIRECTION('',(0.,-1.,0.));
#1268=DIRECTION('',(0.,0.,-1.));
#1269=DIRECTION('',(-6.12303176911189E-17,-1.,0.));
#1270=DIRECTION('',(1.,-6.12303176911189E-17,0.));
#1271=DIRECTION('',(-6.19544098563145E-17,-1.,0.));
#1272=DIRECTION('',(1.,-6.19544098563145E-17,0.));
#1273=DIRECTION('',(0.817868874355809,0.,-0.575404644020156));
#1274=DIRECTION('',(-0.575404644020156,0.,-0.817868874355809));
#1275=DIRECTION('',(-0.542087542087541,3.35847137604937E-17,0.840322019652876));
#1276=DIRECTION('',(0.840322019652876,0.,0.542087542087541));
#1277=DIRECTION('',(0.542087542087542,-3.35847137604937E-17,0.840322019652875));
#1278=DIRECTION('',(0.840322019652875,0.,-0.542087542087542));
#1279=DIRECTION('',(-0.817868874355809,0.,-0.575404644020156));
#1280=DIRECTION('',(-0.575404644020156,0.,0.817868874355809));
#1281=DIRECTION('',(-6.19544098563145E-17,-1.,0.));
#1282=DIRECTION('',(1.,-6.19544098563145E-17,0.));
#1283=DIRECTION('',(-6.12303176911189E-17,-1.,0.));
#1284=DIRECTION('',(1.,-6.12303176911189E-17,0.));
#1285=DIRECTION('',(0.,1.,0.));
#1286=DIRECTION('',(0.,0.,1.));
#1287=DIRECTION('',(-0.972138162628045,0.,-0.234408602150537));
#1288=DIRECTION('',(-0.234408602150537,0.,0.972138162628045));
#1289=DIRECTION('',(0.,-1.,0.));
#1290=DIRECTION('',(0.,0.,-1.));
#1291=DIRECTION('',(-0.972138162628045,0.,0.234408602150537));
#1292=DIRECTION('',(0.234408602150537,0.,0.972138162628045));
#1293=DIRECTION('',(0.,-1.,0.));
#1294=DIRECTION('',(0.,0.,-1.));
#1295=DIRECTION('',(-6.12303176911189E-17,-1.,0.));
#1296=DIRECTION('',(1.,-6.12303176911189E-17,0.));
#1297=DIRECTION('',(-6.19544098563145E-17,-1.,0.));
#1298=DIRECTION('',(1.,-6.19544098563145E-17,0.));
#1299=DIRECTION('',(-0.817868874355809,0.,0.575404644020155));
#1300=DIRECTION('',(0.575404644020155,0.,0.817868874355809));
#1301=DIRECTION('',(0.542087542087541,-3.35847137604937E-17,-0.840322019652876));
#1302=DIRECTION('',(-0.840322019652876,0.,-0.542087542087541));
#1303=DIRECTION('',(0.,0.,1.));
#1304=DIRECTION('',(1.,0.,0.));
#1305=DIRECTION('',(-5.84683748139567E-33,-9.54892560069752E-17,1.));
#1306=DIRECTION('',(0.,-1.,-9.54892560069752E-17));
#1307=DIRECTION('',(-5.84683748139567E-33,-9.54892560069752E-17,1.));
#1308=DIRECTION('',(0.,-1.,-9.54892560069752E-17));
#1309=DIRECTION('',(-5.84683748139567E-33,-9.54892560069752E-17,1.));
#1310=DIRECTION('',(0.,-1.,-9.54892560069752E-17));
#1311=DIRECTION('',(5.84683748139567E-33,9.54892560069752E-17,-1.));
#1312=DIRECTION('',(0.,1.,9.54892560069752E-17));
#1313=DIRECTION('',(-5.84683748139567E-33,-9.54892560069752E-17,1.));
#1314=DIRECTION('',(0.,-1.,-9.54892560069752E-17));
#1315=DIRECTION('',(-5.84683748139567E-33,-9.54892560069752E-17,1.));
#1316=DIRECTION('',(0.,-1.,-9.54892560069752E-17));
#1317=DIRECTION('',(-5.84683748139567E-33,-9.54892560069752E-17,1.));
#1318=DIRECTION('',(0.,-1.,-9.54892560069752E-17));
#1319=DIRECTION('',(-5.84683748139567E-33,-9.54892560069752E-17,1.));
#1320=DIRECTION('',(0.,-1.,-9.54892560069752E-17));
#1321=DIRECTION('',(-5.84683748139567E-33,-9.54892560069752E-17,1.));
#1322=DIRECTION('',(0.,-1.,-9.54892560069752E-17));
#1323=CARTESIAN_POINT('',(0.,0.,0.));
#1324=CARTESIAN_POINT('',(-2.67882639898645E-15,10.25,-74.25));
#1325=CARTESIAN_POINT('',(6.29149452185009E-16,10.25,0.));
#1326=CARTESIAN_POINT('',(-15.75,10.25,-55.9504524110395));
#1327=CARTESIAN_POINT('',(-33.4453949336716,10.25,-47.5386283219314));
#1328=CARTESIAN_POINT('',(-11.4493875177704,10.25,-81.6359427609427));
#1329=CARTESIAN_POINT('',(-15.7322865042734,10.25,-74.9967672645869));
#1330=CARTESIAN_POINT('',(-1.83690953073357E-15,10.25,-74.25));
#1331=CARTESIAN_POINT('',(-15.75,10.25,-74.25));
#1332=CARTESIAN_POINT('',(-15.75,10.25,-74.25));
#1333=CARTESIAN_POINT('',(-2.67882639898645E-15,10.25,-74.25));
#1334=CARTESIAN_POINT('',(-1.83690953073357E-15,10.25,-74.25));
#1335=CARTESIAN_POINT('',(15.75,10.25,-74.25));
#1336=CARTESIAN_POINT('',(15.7322865042733,10.25,-74.9967672645869));
#1337=CARTESIAN_POINT('',(45.2723488087986,10.25,-29.2049663299662));
#1338=CARTESIAN_POINT('',(33.4453949336716,10.25,-47.5386283219314));
#1339=CARTESIAN_POINT('',(6.29149452185009E-16,10.25,0.));
#1340=CARTESIAN_POINT('',(15.75,10.25,-55.9504524110395));
#1341=CARTESIAN_POINT('',(15.75,10.25,-74.25));
#1342=CARTESIAN_POINT('',(-2.67882639898645E-15,10.25,74.25));
#1343=CARTESIAN_POINT('',(-45.2723488087986,10.25,29.2049663299663));
#1344=CARTESIAN_POINT('',(-15.7322865042734,10.25,74.9967672645867));
#1345=CARTESIAN_POINT('',(-33.4453949336715,10.25,47.5386283219314));
#1346=CARTESIAN_POINT('',(6.29149452185009E-16,10.25,0.));
#1347=CARTESIAN_POINT('',(-15.75,10.25,55.9504524110395));
#1348=CARTESIAN_POINT('',(-15.75,10.25,74.25));
#1349=CARTESIAN_POINT('',(-15.75,10.25,74.25));
#1350=CARTESIAN_POINT('',(-1.83690953073357E-15,10.25,74.25));
#1351=CARTESIAN_POINT('',(-2.67882639898645E-15,10.25,74.25));
#1352=CARTESIAN_POINT('',(6.29149452185009E-16,10.25,0.));
#1353=CARTESIAN_POINT('',(15.75,10.25,55.9504524110395));
#1354=CARTESIAN_POINT('',(33.4453949336716,10.25,47.5386283219314));
#1355=CARTESIAN_POINT('',(11.4493875177704,10.25,81.6359427609427));
#1356=CARTESIAN_POINT('',(15.7322865042733,10.25,74.9967672645869));
#1357=CARTESIAN_POINT('',(-1.83690953073357E-15,10.25,74.25));
#1358=CARTESIAN_POINT('',(15.75,10.25,74.25));
#1359=CARTESIAN_POINT('',(15.75,10.25,74.25));
#1360=CARTESIAN_POINT('',(-1.2858366715135E-15,-21.,45.674630354416));
#1361=CARTESIAN_POINT('',(-1.2858366715135E-15,-21.,0.));
#1362=CARTESIAN_POINT('',(53.875,-21.,0.));
#1363=CARTESIAN_POINT('',(-1.2858366715135E-15,-21.,0.));
#1364=CARTESIAN_POINT('',(45.674630354416,-21.,0.));
#1365=CARTESIAN_POINT('',(0.,0.,0.));
#1366=CARTESIAN_POINT('',(1.17449909615517,-3.67675207316299,55.9899811154005));
#1367=CARTESIAN_POINT('',(1.66265572965578,-2.49969819759415,55.974875024254));
#1368=CARTESIAN_POINT('',(1.17487798522173,-1.32445513646043,55.9899614452132));
#1369=CARTESIAN_POINT('',(0.0012167901283021,-0.837943708109346,56.0050168536075));
#1370=CARTESIAN_POINT('',(-1.17495632588152,-1.32377130514648,55.9899711062308));
#1371=CARTESIAN_POINT('',(-1.66212083951633,-2.49978000310388,55.9748866628489));
#1372=CARTESIAN_POINT('',(-1.17655975057288,-3.6739182835404,55.9899249151557));
#1373=CARTESIAN_POINT('',(-0.00177184474109983,-4.16233124851115,56.0050234612276));
#1374=CARTESIAN_POINT('',(1.17449909615517,-3.67675207316299,55.9899811154005));
#1375=CARTESIAN_POINT('',(1.66265572965578,-2.49969819759415,55.974875024254));
#1376=CARTESIAN_POINT('',(1.17487798522173,-1.32445513646043,55.9899614452132));
#1377=CARTESIAN_POINT('',(1.5,-2.5,55.9799071096049));
#1378=CARTESIAN_POINT('',(-1.15572224641987E-15,-18.875,0.));
#1379=CARTESIAN_POINT('',(56.,-18.875,0.));
#1380=CARTESIAN_POINT('',(4.97496331240341E-16,8.125,0.));
#1381=CARTESIAN_POINT('',(-17.2215053763441,8.125,53.2862060253172));
#1382=CARTESIAN_POINT('',(-32.2226600651287,8.125,45.8006569639253));
#1383=CARTESIAN_POINT('',(-32.2226600651287,8.125,45.8006569639253));
#1384=CARTESIAN_POINT('',(-33.7340869355598,8.125,44.7373055299587));
#1385=CARTESIAN_POINT('',(-36.609194663185,8.47016232867251,42.4934622237976));
#1386=CARTESIAN_POINT('',(-40.5503540274638,9.53386041306877,38.7463298728148));
#1387=CARTESIAN_POINT('',(-44.0338517521136,10.8829364498776,34.7335500437649));
#1388=CARTESIAN_POINT('',(-46.1018029696075,11.8799142091088,31.8392113430145));
#1389=CARTESIAN_POINT('',(-47.0580331005611,12.375,30.3569023569023));
#1390=CARTESIAN_POINT('',(-47.0580331005609,12.375,30.3569023569023));
#1391=CARTESIAN_POINT('',(-47.0580331005609,10.25,30.3569023569023));
#1392=CARTESIAN_POINT('',(-47.058033100561,24.,30.3569023569024));
#1393=CARTESIAN_POINT('',(1.46952762458685E-15,24.,0.));
#1394=CARTESIAN_POINT('',(-47.058033100561,24.,-30.3569023569023));
#1395=CARTESIAN_POINT('',(-47.058033100561,10.25,-30.3569023569023));
#1396=CARTESIAN_POINT('',(-47.058033100561,12.375,-30.3569023569023));
#1397=CARTESIAN_POINT('',(-32.2226600651288,8.125,-45.8006569639253));
#1398=CARTESIAN_POINT('',(-33.7340869355598,8.125,-44.7373055299587));
#1399=CARTESIAN_POINT('',(-36.6091946631853,8.47016232867033,-42.4934622237971));
#1400=CARTESIAN_POINT('',(-40.5503540274626,9.53386041307632,-38.7463298728167));
#1401=CARTESIAN_POINT('',(-44.0338517521178,10.8829364498494,-34.7335500437583));
#1402=CARTESIAN_POINT('',(-46.1018029695982,11.8799142091693,-31.8392113430289));
#1403=CARTESIAN_POINT('',(-47.0580331005609,12.375,-30.3569023569025));
#1404=CARTESIAN_POINT('',(-32.2226600651288,8.125,-45.8006569639253));
#1405=CARTESIAN_POINT('',(4.97496331240341E-16,8.125,0.));
#1406=CARTESIAN_POINT('',(-17.2215053763441,8.125,-53.2862060253172));
#1407=CARTESIAN_POINT('',(-17.2215053763441,8.125,-53.2862060253172));
#1408=CARTESIAN_POINT('',(-17.2215053763441,7.00216378656339,-53.2862060253172));
#1409=CARTESIAN_POINT('',(-16.3301438439932,4.80696909428715,-53.5849356226266));
#1410=CARTESIAN_POINT('',(-14.2185486307223,3.875,-54.1765069159353));
#1411=CARTESIAN_POINT('',(-13.1268817204301,3.875,-54.4397371071705));
#1412=CARTESIAN_POINT('',(-13.1268817204301,3.875,-54.4397371071705));
#1413=CARTESIAN_POINT('',(2.37267481053085E-16,3.875,0.));
#1414=CARTESIAN_POINT('',(13.1268817204301,3.875,-54.4397371071705));
#1415=CARTESIAN_POINT('',(13.1268817204301,3.875,-54.4397371071705));
#1416=CARTESIAN_POINT('',(14.2176337753076,3.875,-54.1767275121296));
#1417=CARTESIAN_POINT('',(16.3338635472391,4.8099343455135,-53.5838509870621));
#1418=CARTESIAN_POINT('',(17.2215053763441,7.00302268158549,-53.2862060253172));
#1419=CARTESIAN_POINT('',(17.2215053763441,8.125,-53.2862060253172));
#1420=CARTESIAN_POINT('',(17.2215053763441,8.125,-53.2862060253172));
#1421=CARTESIAN_POINT('',(4.97496331240341E-16,8.125,0.));
#1422=CARTESIAN_POINT('',(32.2226600651288,8.125,-45.8006569639253));
#1423=CARTESIAN_POINT('',(32.2226600651288,8.125,-45.8006569639253));
#1424=CARTESIAN_POINT('',(33.7340869355598,8.125,-44.7373055299587));
#1425=CARTESIAN_POINT('',(36.609194663185,8.47016232867244,-42.4934622237976));
#1426=CARTESIAN_POINT('',(40.5503540274638,9.53386041306891,-38.7463298728149));
#1427=CARTESIAN_POINT('',(44.0338517521137,10.8829364498769,-34.7335500437648));
#1428=CARTESIAN_POINT('',(46.1018029696072,11.87991420911,-31.8392113430149));
#1429=CARTESIAN_POINT('',(47.058033100561,12.375,-30.3569023569024));
#1430=CARTESIAN_POINT('',(47.0580331005609,12.375,-30.3569023569023));
#1431=CARTESIAN_POINT('',(47.0580331005609,10.25,-30.3569023569023));
#1432=CARTESIAN_POINT('',(47.058033100561,24.,-30.3569023569024));
#1433=CARTESIAN_POINT('',(1.46952762458685E-15,24.,0.));
#1434=CARTESIAN_POINT('',(47.058033100561,24.,30.3569023569023));
#1435=CARTESIAN_POINT('',(47.058033100561,10.25,30.3569023569023));
#1436=CARTESIAN_POINT('',(47.058033100561,12.375,30.3569023569023));
#1437=CARTESIAN_POINT('',(32.2226600651288,8.125,45.8006569639253));
#1438=CARTESIAN_POINT('',(33.7340869355598,8.125,44.7373055299587));
#1439=CARTESIAN_POINT('',(36.6091946631853,8.47016232867039,42.4934622237971));
#1440=CARTESIAN_POINT('',(40.5503540274626,9.53386041307607,38.7463298728167));
#1441=CARTESIAN_POINT('',(44.0338517521176,10.8829364498502,34.7335500437586));
#1442=CARTESIAN_POINT('',(46.1018029695984,11.8799142091674,31.8392113430285));
#1443=CARTESIAN_POINT('',(47.0580331005609,12.375,30.3569023569026));
#1444=CARTESIAN_POINT('',(32.2226600651288,8.125,45.8006569639253));
#1445=CARTESIAN_POINT('',(4.97496331240341E-16,8.125,0.));
#1446=CARTESIAN_POINT('',(17.221505376344,8.125,53.2862060253172));
#1447=CARTESIAN_POINT('',(17.221505376344,8.125,53.2862060253172));
#1448=CARTESIAN_POINT('',(17.221505376344,7.00216378656339,53.2862060253172));
#1449=CARTESIAN_POINT('',(16.3301438439932,4.80696909428716,53.5849356226266));
#1450=CARTESIAN_POINT('',(14.2185486307222,3.875,54.1765069159354));
#1451=CARTESIAN_POINT('',(13.1268817204301,3.875,54.4397371071705));
#1452=CARTESIAN_POINT('',(13.1268817204301,3.875,54.4397371071705));
#1453=CARTESIAN_POINT('',(2.37267481053085E-16,3.875,0.));
#1454=CARTESIAN_POINT('',(-13.1268817204301,3.875,54.4397371071705));
#1455=CARTESIAN_POINT('',(-13.1268817204301,3.875,54.4397371071705));
#1456=CARTESIAN_POINT('',(-14.2176337753076,3.875,54.1767275121296));
#1457=CARTESIAN_POINT('',(-16.3338635472391,4.80993434551351,53.5838509870621));
#1458=CARTESIAN_POINT('',(-17.2215053763441,7.00302268158549,53.2862060253172));
#1459=CARTESIAN_POINT('',(-17.2215053763441,8.125,53.2862060253172));
#1460=CARTESIAN_POINT('',(1.46952762458685E-15,24.,56.));
#1461=CARTESIAN_POINT('',(-1.83690953073357E-15,24.,74.25));
#1462=CARTESIAN_POINT('',(13.2350718095328,24.,82.7878787878788));
#1463=CARTESIAN_POINT('',(-13.2350718095327,24.,82.7878787878787));
#1464=CARTESIAN_POINT('',(13.2350718095328,24.,82.7878787878788));
#1465=CARTESIAN_POINT('',(13.2350718095328,24.,-82.7878787878788));
#1466=CARTESIAN_POINT('',(13.2350718095328,24.,-82.7878787878788));
#1467=CARTESIAN_POINT('',(-1.83690953073357E-15,24.,-74.25));
#1468=CARTESIAN_POINT('',(-13.2350718095328,24.,-82.7878787878788));
#1469=CARTESIAN_POINT('',(-13.2350718095328,24.,-82.7878787878788));
#1470=CARTESIAN_POINT('',(-13.2350718095327,24.,82.7878787878787));
#1471=CARTESIAN_POINT('',(-1.83690953073357E-15,24.,-74.25));
#1472=CARTESIAN_POINT('',(-6.5,24.,-74.25));
#1473=CARTESIAN_POINT('',(1.46952762458685E-15,24.,0.));
#1474=CARTESIAN_POINT('',(45.674630354416,24.,0.));
#1475=CARTESIAN_POINT('',(-1.83690953073357E-15,24.,74.25));
#1476=CARTESIAN_POINT('',(-6.5,24.,74.25));
#1477=CARTESIAN_POINT('',(0.,0.,0.));
#1478=CARTESIAN_POINT('',(8.41916868252884E-16,13.75,0.));
#1479=CARTESIAN_POINT('',(45.674630354416,13.75,0.));
#1480=CARTESIAN_POINT('',(8.41916868252884E-16,13.75,0.));
#1481=CARTESIAN_POINT('',(5.81688018065629E-16,9.5,0.));
#1482=CARTESIAN_POINT('',(41.424630354416,9.5,0.));
#1483=CARTESIAN_POINT('',(0.,0.,-1.73472347597681E-15));
#1484=CARTESIAN_POINT('',(0.024471768503519,-4.1628221010171,42.3017224130137));
#1485=CARTESIAN_POINT('',(-1.16045360165,-3.69071570641152,42.3296266227282));
#1486=CARTESIAN_POINT('',(-1.66145892827082,-2.52231095502099,42.3985895398051));
#1487=CARTESIAN_POINT('',(-1.19287489642312,-1.34269242270744,42.4680757103629));
#1488=CARTESIAN_POINT('',(-0.0239051810389915,-0.837237446415551,42.4978075354168));
#1489=CARTESIAN_POINT('',(1.15974073296445,-1.30927882881892,42.4700419463048));
#1490=CARTESIAN_POINT('',(1.66143911532123,-2.47540793349724,42.4013550402556));
#1491=CARTESIAN_POINT('',(1.19353407127974,-3.65704292254041,42.3316160085135));
#1492=CARTESIAN_POINT('',(0.024471768503519,-4.1628221010171,42.3017224130137));
#1493=CARTESIAN_POINT('',(-1.16045360165,-3.69071570641152,42.3296266227282));
#1494=CARTESIAN_POINT('',(-1.66145892827082,-2.52231095502099,42.3985895398051));
#1495=CARTESIAN_POINT('',(-1.04646692772788,-3.57466598028069,42.3364697406219));
#1496=CARTESIAN_POINT('',(-5.81688018065629E-16,-9.5,0.));
#1497=CARTESIAN_POINT('',(41.424630354416,-9.5,0.));
#1498=CARTESIAN_POINT('',(-8.41916868252884E-16,-13.75,0.));
#1499=CARTESIAN_POINT('',(-8.41916868252884E-16,-13.75,0.));
#1500=CARTESIAN_POINT('',(45.674630354416,-13.75,0.));
#1501=CARTESIAN_POINT('',(0.,0.,0.));
#1502=CARTESIAN_POINT('',(-13.2350718095328,10.25,-82.7878787878788));
#1503=CARTESIAN_POINT('',(-13.2350718095328,10.25,-82.7878787878788));
#1504=CARTESIAN_POINT('',(-13.2350718095328,12.375,-82.7878787878788));
#1505=CARTESIAN_POINT('',(-47.058033100561,12.375,-30.3569023569023));
#1506=CARTESIAN_POINT('',(-2.67882639898645E-15,10.25,-74.25));
#1507=CARTESIAN_POINT('',(15.75,6.,-74.25));
#1508=CARTESIAN_POINT('',(15.75,8.125,-74.25));
#1509=CARTESIAN_POINT('',(-2.80894082408008E-15,8.125,-74.25));
#1510=CARTESIAN_POINT('',(-15.75,8.125,-74.25));
#1511=CARTESIAN_POINT('',(-15.75,6.,-74.25));
#1512=CARTESIAN_POINT('',(-15.7322865042734,10.25,-74.9967672645869));
#1513=CARTESIAN_POINT('',(-15.663496897651,10.25,-76.4459708534691));
#1514=CARTESIAN_POINT('',(-15.1279258844052,10.9049843102314,-79.2340333467738));
#1515=CARTESIAN_POINT('',(-13.9626946041172,11.8819677391815,-81.6599475796904));
#1516=CARTESIAN_POINT('',(-13.2350718095328,12.375,-82.7878787878788));
#1517=CARTESIAN_POINT('',(13.2350718095328,10.25,-82.7878787878788));
#1518=CARTESIAN_POINT('',(13.2350718095328,12.375,-82.7878787878788));
#1519=CARTESIAN_POINT('',(15.7322865042734,10.25,-74.9967672645869));
#1520=CARTESIAN_POINT('',(15.663496897651,10.25,-76.4459708534691));
#1521=CARTESIAN_POINT('',(15.1279258844169,10.9049843102899,-79.2340333467556));
#1522=CARTESIAN_POINT('',(13.9626946040939,11.8819677390644,-81.6599475797265));
#1523=CARTESIAN_POINT('',(13.2350718095328,12.375,-82.7878787878788));
#1524=CARTESIAN_POINT('',(13.2350718095328,10.25,-82.7878787878788));
#1525=CARTESIAN_POINT('',(13.2350718095328,12.375,-82.7878787878788));
#1526=CARTESIAN_POINT('',(-2.67882639898645E-15,10.25,-74.25));
#1527=CARTESIAN_POINT('',(-1.83690953073357E-15,6.,-74.25));
#1528=CARTESIAN_POINT('',(6.5,6.,-74.25));
#1529=CARTESIAN_POINT('',(-13.2350718095327,10.25,82.7878787878787));
#1530=CARTESIAN_POINT('',(-13.2350718095327,12.375,82.7878787878787));
#1531=CARTESIAN_POINT('',(-13.2350718095327,12.375,82.7878787878787));
#1532=CARTESIAN_POINT('',(-13.2350718095327,10.25,82.7878787878787));
#1533=CARTESIAN_POINT('',(13.2350718095328,10.25,82.7878787878788));
#1534=CARTESIAN_POINT('',(13.2350718095328,10.25,82.7878787878788));
#1535=CARTESIAN_POINT('',(13.2350718095328,12.375,82.7878787878788));
#1536=CARTESIAN_POINT('',(47.058033100561,12.375,30.3569023569023));
#1537=CARTESIAN_POINT('',(-2.67882639898645E-15,10.25,74.25));
#1538=CARTESIAN_POINT('',(-15.75,6.,74.25));
#1539=CARTESIAN_POINT('',(-15.75,8.125,74.25));
#1540=CARTESIAN_POINT('',(-2.80894082408008E-15,8.125,74.25));
#1541=CARTESIAN_POINT('',(15.75,8.125,74.25));
#1542=CARTESIAN_POINT('',(15.75,6.,74.25));
#1543=CARTESIAN_POINT('',(15.7322865042734,10.25,74.9967672645869));
#1544=CARTESIAN_POINT('',(15.663496897651,10.25,76.4459708534691));
#1545=CARTESIAN_POINT('',(15.127925884415,10.9049843102806,79.2340333467585));
#1546=CARTESIAN_POINT('',(13.9626946040976,11.8819677390831,81.6599475797208));
#1547=CARTESIAN_POINT('',(13.2350718095328,12.375,82.7878787878788));
#1548=CARTESIAN_POINT('',(-15.7322865042734,10.25,74.9967672645867));
#1549=CARTESIAN_POINT('',(-15.663496897651,10.25,76.4459708534691));
#1550=CARTESIAN_POINT('',(-15.1279258843018,10.9049843097128,79.2340333469343));
#1551=CARTESIAN_POINT('',(-13.9626946043239,11.8819677402193,81.6599475793699));
#1552=CARTESIAN_POINT('',(-13.2350718095328,12.375,82.7878787878788));
#1553=CARTESIAN_POINT('',(-2.67882639898645E-15,10.25,74.25));
#1554=CARTESIAN_POINT('',(-1.83690953073357E-15,6.,74.25));
#1555=CARTESIAN_POINT('',(6.5,6.,74.25));
#1556=CARTESIAN_POINT('',(-1.83690953073357E-15,6.,74.25));
#1557=CARTESIAN_POINT('',(-13.625,6.,53.7395338647443));
#1558=CARTESIAN_POINT('',(-13.625,6.,74.25));
#1559=CARTESIAN_POINT('',(-13.625,6.,56.5055307027551));
#1560=CARTESIAN_POINT('',(2.37267481053085E-16,6.,0.));
#1561=CARTESIAN_POINT('',(13.625,6.,56.5055307027551));
#1562=CARTESIAN_POINT('',(13.625,6.,74.25));
#1563=CARTESIAN_POINT('',(13.625,6.,74.25));
#1564=CARTESIAN_POINT('',(-2.80894082408008E-15,6.,74.25));
#1565=CARTESIAN_POINT('',(-15.75,6.,74.25));
#1566=CARTESIAN_POINT('',(-15.75,10.25,55.9504524110395));
#1567=CARTESIAN_POINT('',(-15.75,10.25,55.7320005327618));
#1568=CARTESIAN_POINT('',(-15.75,10.2194632005574,55.5179150173279));
#1569=CARTESIAN_POINT('',(-15.75,10.1581702014495,55.3082272360993));
#1570=CARTESIAN_POINT('',(-15.75,10.1581702014495,55.3082272360993));
#1571=CARTESIAN_POINT('',(-15.75,6.,55.3082272360993));
#1572=CARTESIAN_POINT('',(-15.75,8.125,55.3082272360993));
#1573=CARTESIAN_POINT('',(-15.75,8.125,74.25));
#1574=CARTESIAN_POINT('',(15.75,6.,74.25));
#1575=CARTESIAN_POINT('',(15.75,6.,55.3082272360993));
#1576=CARTESIAN_POINT('',(15.75,8.125,55.3082272360993));
#1577=CARTESIAN_POINT('',(15.75,10.1581702014495,55.3082272360993));
#1578=CARTESIAN_POINT('',(15.75,10.1581702014495,55.3082272360993));
#1579=CARTESIAN_POINT('',(15.75,10.2194632005574,55.5179150173278));
#1580=CARTESIAN_POINT('',(15.75,10.25,55.7320005327618));
#1581=CARTESIAN_POINT('',(15.75,10.25,55.9504524110395));
#1582=CARTESIAN_POINT('',(15.75,8.125,53.7395338647443));
#1583=CARTESIAN_POINT('',(-1.83690953073357E-15,6.,-74.25));
#1584=CARTESIAN_POINT('',(13.625,6.,-53.7395338647443));
#1585=CARTESIAN_POINT('',(13.625,6.,-74.25));
#1586=CARTESIAN_POINT('',(13.625,6.,-56.5055307027551));
#1587=CARTESIAN_POINT('',(2.37267481053085E-16,6.,0.));
#1588=CARTESIAN_POINT('',(-13.625,6.,-56.5055307027551));
#1589=CARTESIAN_POINT('',(-13.625,6.,-74.25));
#1590=CARTESIAN_POINT('',(-13.625,6.,-74.25));
#1591=CARTESIAN_POINT('',(-2.80894082408008E-15,6.,-74.25));
#1592=CARTESIAN_POINT('',(-15.75,6.,-74.25));
#1593=CARTESIAN_POINT('',(-15.75,6.,-55.3082272360993));
#1594=CARTESIAN_POINT('',(-15.75,8.125,-55.3082272360993));
#1595=CARTESIAN_POINT('',(-15.75,10.1581702014495,-55.3082272360993));
#1596=CARTESIAN_POINT('',(-15.75,10.1581702014495,-55.3082272360993));
#1597=CARTESIAN_POINT('',(-15.75,10.2194632005574,-55.5179150173278));
#1598=CARTESIAN_POINT('',(-15.75,10.25,-55.7320005327618));
#1599=CARTESIAN_POINT('',(-15.75,10.25,-55.9504524110395));
#1600=CARTESIAN_POINT('',(-15.75,8.125,-53.7395338647443));
#1601=CARTESIAN_POINT('',(15.75,6.,-74.25));
#1602=CARTESIAN_POINT('',(15.75,10.25,-55.9504524110395));
#1603=CARTESIAN_POINT('',(15.75,10.25,-55.7320005327618));
#1604=CARTESIAN_POINT('',(15.75,10.2194632005574,-55.5179150173279));
#1605=CARTESIAN_POINT('',(15.75,10.1581702014495,-55.3082272360993));
#1606=CARTESIAN_POINT('',(15.75,10.1581702014495,-55.3082272360993));
#1607=CARTESIAN_POINT('',(15.75,6.,-55.3082272360993));
#1608=CARTESIAN_POINT('',(15.75,8.125,-55.3082272360993));
#1609=CARTESIAN_POINT('',(15.75,8.125,-74.25));
#1610=CARTESIAN_POINT('',(-1.15572224641987E-15,-18.875,0.));
#1611=CARTESIAN_POINT('',(13.625,8.125,74.25));
#1612=CARTESIAN_POINT('',(13.625,6.,56.5055307027551));
#1613=CARTESIAN_POINT('',(14.1667480274374,6.,56.244270724058));
#1614=CARTESIAN_POINT('',(15.2103418736829,6.40014223964238,55.6655939629906));
#1615=CARTESIAN_POINT('',(15.75,7.521172790061,55.3082272360993));
#1616=CARTESIAN_POINT('',(15.75,8.125,55.3082272360993));
#1617=CARTESIAN_POINT('',(13.625,8.125,74.25));
#1618=CARTESIAN_POINT('',(-2.80894082408008E-15,8.125,74.25));
#1619=CARTESIAN_POINT('',(-13.625,8.125,74.25));
#1620=CARTESIAN_POINT('',(-13.625,8.125,74.25));
#1621=CARTESIAN_POINT('',(-15.75,8.125,55.3082272360993));
#1622=CARTESIAN_POINT('',(-15.75,7.52149817520783,55.3082272360993));
#1623=CARTESIAN_POINT('',(-15.2127713977457,6.40217982788818,55.664162616602));
#1624=CARTESIAN_POINT('',(-14.1665431741586,6.,56.2443695153052));
#1625=CARTESIAN_POINT('',(-13.625,6.,56.5055307027551));
#1626=CARTESIAN_POINT('',(-13.625,8.125,-74.25));
#1627=CARTESIAN_POINT('',(-13.625,6.,-56.5055307027551));
#1628=CARTESIAN_POINT('',(-14.1667480274374,6.,-56.244270724058));
#1629=CARTESIAN_POINT('',(-15.2103418736829,6.40014223964238,-55.6655939629906));
#1630=CARTESIAN_POINT('',(-15.75,7.521172790061,-55.3082272360993));
#1631=CARTESIAN_POINT('',(-15.75,8.125,-55.3082272360993));
#1632=CARTESIAN_POINT('',(-13.625,8.125,-74.25));
#1633=CARTESIAN_POINT('',(-2.80894082408008E-15,8.125,-74.25));
#1634=CARTESIAN_POINT('',(13.625,8.125,-74.25));
#1635=CARTESIAN_POINT('',(13.625,8.125,-74.25));
#1636=CARTESIAN_POINT('',(15.75,8.125,-55.3082272360993));
#1637=CARTESIAN_POINT('',(15.75,7.52149817520783,-55.3082272360993));
#1638=CARTESIAN_POINT('',(15.2127713977457,6.40217982788818,-55.664162616602));
#1639=CARTESIAN_POINT('',(14.1665431741586,6.,-56.2443695153052));
#1640=CARTESIAN_POINT('',(13.625,6.,-56.5055307027551));
#1641=CARTESIAN_POINT('',(11.4493875177704,12.375,-81.6359427609427));
#1642=CARTESIAN_POINT('',(33.4453949336716,10.25,-47.5386283219314));
#1643=CARTESIAN_POINT('',(36.0181674393373,10.25,-44.8996739215376));
#1644=CARTESIAN_POINT('',(40.842476983102,10.9016975529165,-39.3640880179153));
#1645=CARTESIAN_POINT('',(45.0826987810904,11.8823327330142,-33.4189851312729));
#1646=CARTESIAN_POINT('',(47.0580331005609,12.375,-30.3569023569024));
#1647=CARTESIAN_POINT('',(32.2226600651288,8.125,-45.8006569639253));
#1648=CARTESIAN_POINT('',(32.2226600651288,10.25,-45.8006569639253));
#1649=CARTESIAN_POINT('',(33.4453949336716,10.25,-47.5386283219314));
#1650=CARTESIAN_POINT('',(33.7329865703556,8.12500000300248,-44.7380796824768));
#1651=CARTESIAN_POINT('',(33.5207179321533,9.940831083177,-44.8874194673262));
#1652=CARTESIAN_POINT('',(34.7107467079667,10.25,-46.2407266902012));
#1653=CARTESIAN_POINT('',(36.6082875222376,8.46985223154655,-42.4943431423723));
#1654=CARTESIAN_POINT('',(36.2740606383506,9.76004214273461,-42.7831381503284));
#1655=CARTESIAN_POINT('',(37.171883125937,10.4224261164703,-43.5742882467583));
#1656=CARTESIAN_POINT('',(40.5524645499347,9.53442835504675,-38.7444240031932));
#1657=CARTESIAN_POINT('',(40.3363509304225,10.2993972840265,-38.9742576192908));
#1658=CARTESIAN_POINT('',(40.7068183661391,10.9547141773357,-39.3215235200401));
#1659=CARTESIAN_POINT('',(44.036772125674,10.8843769059982,-34.7293580784008));
#1660=CARTESIAN_POINT('',(43.9408738421893,11.2450904855211,-34.8575222465965));
#1661=CARTESIAN_POINT('',(43.9956438588095,11.6296884530527,-34.9427031211009));
#1662=CARTESIAN_POINT('',(46.0995793860866,11.8787629380585,-31.8426582515856));
#1663=CARTESIAN_POINT('',(46.0813944373134,12.002822203168,-31.8708478180243));
#1664=CARTESIAN_POINT('',(46.0632094906783,12.1268814690292,-31.8990373815068));
#1665=CARTESIAN_POINT('',(47.0580331005609,12.375,-30.3569023569024));
#1666=CARTESIAN_POINT('',(47.0580331005609,12.375,-30.3569023569024));
#1667=CARTESIAN_POINT('',(47.0580331005609,12.375,-30.3569023569024));
#1668=CARTESIAN_POINT('',(33.4453949336716,8.125,-47.5386283219314));
#1669=CARTESIAN_POINT('',(4.97496331240341E-16,8.125,0.));
#1670=CARTESIAN_POINT('',(15.75,10.1581702014495,-55.3082272360993));
#1671=CARTESIAN_POINT('',(15.75,9.99717417091817,-54.7574481761733));
#1672=CARTESIAN_POINT('',(16.1552498901537,9.33620911226257,-53.8517592966145));
#1673=CARTESIAN_POINT('',(16.8460808586343,8.52696041837249,-53.4075390274656));
#1674=CARTESIAN_POINT('',(17.2215053763441,8.125,-53.2862060253172));
#1675=CARTESIAN_POINT('',(17.875,5.72850072220037E-31,-55.3082272360993));
#1676=CARTESIAN_POINT('',(17.875,8.125,-55.3082272360993));
#1677=CARTESIAN_POINT('',(15.75,8.125,-55.3082272360993));
#1678=CARTESIAN_POINT('',(15.75,8.125,-53.7617800929847));
#1679=CARTESIAN_POINT('',(17.2215053763441,8.125,-53.2862060253172));
#1680=CARTESIAN_POINT('',(15.75,7.55298889308797,-55.3082272397946));
#1681=CARTESIAN_POINT('',(15.7499999915689,7.41845337301753,-53.761780095368));
#1682=CARTESIAN_POINT('',(17.2215053652919,6.98097778617693,-53.2862060288892));
#1683=CARTESIAN_POINT('',(15.2670412537705,6.44557634901509,-55.6310779242607));
#1684=CARTESIAN_POINT('',(14.9599013900957,6.03535821645939,-53.9889610926983));
#1685=CARTESIAN_POINT('',(16.2909010019779,4.76615269391626,-53.5972535697754));
#1686=CARTESIAN_POINT('',(14.180528035619,6.,-56.2376252638634));
#1687=CARTESIAN_POINT('',(13.6561000010155,5.87365079844166,-54.3121283771888));
#1688=CARTESIAN_POINT('',(14.1973185375724,3.87500000822686,-54.1816260611866));
#1689=CARTESIAN_POINT('',(13.625,6.,-56.5055307027551));
#1690=CARTESIAN_POINT('',(13.1268817204301,6.,-54.4397371071705));
#1691=CARTESIAN_POINT('',(13.1268817204301,3.875,-54.4397371071705));
#1692=CARTESIAN_POINT('',(13.625,3.875,-56.5055307027551));
#1693=CARTESIAN_POINT('',(2.37267481053085E-16,3.875,0.));
#1694=CARTESIAN_POINT('',(-13.625,3.875,-56.5055307027551));
#1695=CARTESIAN_POINT('',(-13.625,6.,-56.5055307027551));
#1696=CARTESIAN_POINT('',(-13.1268817204301,6.,-54.4397371071705));
#1697=CARTESIAN_POINT('',(-13.1268817204301,3.875,-54.4397371071705));
#1698=CARTESIAN_POINT('',(-14.1809064617708,6.,-56.2374427662668));
#1699=CARTESIAN_POINT('',(-13.6564497812342,5.87356729082054,-54.3120440357773));
#1700=CARTESIAN_POINT('',(-14.1980477200511,3.87500001071515,-54.1814502357205));
#1701=CARTESIAN_POINT('',(-15.2650501972142,6.44401153683321,-55.6322435337077));
#1702=CARTESIAN_POINT('',(-14.9573720389378,6.03387194218783,-53.989628320445));
#1703=CARTESIAN_POINT('',(-16.287064469042,4.76302306830685,-53.5983765654662));
#1704=CARTESIAN_POINT('',(-15.75,7.55257124092626,-55.3082272381847));
#1705=CARTESIAN_POINT('',(-15.749999995276,7.41793749027565,-53.7617800943173));
#1706=CARTESIAN_POINT('',(-17.221505370154,6.98014248185648,-53.2862060273178));
#1707=CARTESIAN_POINT('',(-15.75,8.125,-55.3082272360993));
#1708=CARTESIAN_POINT('',(-15.75,8.125,-53.7617800929847));
#1709=CARTESIAN_POINT('',(-17.2215053763441,8.125,-53.2862060253172));
#1710=CARTESIAN_POINT('',(-17.875,8.125,-55.3082272360993));
#1711=CARTESIAN_POINT('',(-17.875,0.,-55.3082272360993));
#1712=CARTESIAN_POINT('',(-15.75,10.1581702014495,-55.3082272360993));
#1713=CARTESIAN_POINT('',(-15.75,9.99717417091818,-54.7574481761733));
#1714=CARTESIAN_POINT('',(-16.1552498901275,9.33620911223555,-53.851759296623));
#1715=CARTESIAN_POINT('',(-16.8460808586867,8.52696041842654,-53.4075390274487));
#1716=CARTESIAN_POINT('',(-17.2215053763441,8.125,-53.2862060253172));
#1717=CARTESIAN_POINT('',(4.97496331240341E-16,8.125,0.));
#1718=CARTESIAN_POINT('',(-33.4453949336716,8.125,-47.5386283219314));
#1719=CARTESIAN_POINT('',(-33.4453949336716,10.25,-47.5386283219314));
#1720=CARTESIAN_POINT('',(-32.2226600651288,10.25,-45.8006569639253));
#1721=CARTESIAN_POINT('',(-32.2226600651288,8.125,-45.8006569639253));
#1722=CARTESIAN_POINT('',(-34.7107467079733,10.25,-46.2407266902012));
#1723=CARTESIAN_POINT('',(-33.520717932152,9.94083108316948,-44.8874194673443));
#1724=CARTESIAN_POINT('',(-33.7329865703734,8.12500000300248,-44.7380796824643));
#1725=CARTESIAN_POINT('',(-37.171883125934,10.4224261164699,-43.5742882467582));
#1726=CARTESIAN_POINT('',(-36.2740606383435,9.76004214273701,-42.7831381503121));
#1727=CARTESIAN_POINT('',(-36.6082875222293,8.4698522315458,-42.4943431423783));
#1728=CARTESIAN_POINT('',(-40.7068183661395,10.9547141773369,-39.3215235200406));
#1729=CARTESIAN_POINT('',(-40.336350930454,10.2993972840274,-38.9742576193148));
#1730=CARTESIAN_POINT('',(-40.5524645499372,9.53442835504941,-38.7444240031912));
#1731=CARTESIAN_POINT('',(-43.9956438588104,11.6296884530482,-34.9427031210991));
#1732=CARTESIAN_POINT('',(-43.9408738420723,11.2450904855153,-34.8575222465226));
#1733=CARTESIAN_POINT('',(-44.0367721256724,10.8843769059883,-34.7293580784029));
#1734=CARTESIAN_POINT('',(-46.0632094906757,12.1268814690391,-31.8990373815108));
#1735=CARTESIAN_POINT('',(-46.081394437564,12.0028222031812,-31.8708478181794));
#1736=CARTESIAN_POINT('',(-46.0995793860887,11.8787629380799,-31.8426582515822));
#1737=CARTESIAN_POINT('',(-47.0580331005609,12.375,-30.3569023569024));
#1738=CARTESIAN_POINT('',(-47.0580331005609,12.375,-30.3569023569024));
#1739=CARTESIAN_POINT('',(-47.0580331005609,12.375,-30.3569023569024));
#1740=CARTESIAN_POINT('',(-33.4453949336716,10.25,-47.5386283219314));
#1741=CARTESIAN_POINT('',(-36.0181674393372,10.25,-44.8996739215376));
#1742=CARTESIAN_POINT('',(-40.8424769831029,10.9016975529039,-39.3640880179139));
#1743=CARTESIAN_POINT('',(-45.0826987810885,11.8823327330394,-33.4189851312758));
#1744=CARTESIAN_POINT('',(-47.0580331005609,12.375,-30.3569023569024));
#1745=CARTESIAN_POINT('',(-11.4493875177704,12.375,-81.6359427609427));
#1746=CARTESIAN_POINT('',(-11.4493875177703,12.375,81.6359427609427));
#1747=CARTESIAN_POINT('',(-33.4453949336715,10.25,47.5386283219314));
#1748=CARTESIAN_POINT('',(-36.0181674393372,10.25,44.8996739215376));
#1749=CARTESIAN_POINT('',(-40.8424769831037,10.9016975528933,39.3640880179126));
#1750=CARTESIAN_POINT('',(-45.0826987810871,11.8823327330606,33.418985131278));
#1751=CARTESIAN_POINT('',(-47.058033100561,12.375,30.3569023569022));
#1752=CARTESIAN_POINT('',(-32.2226600651287,8.125,45.8006569639253));
#1753=CARTESIAN_POINT('',(-32.2226600651287,10.25,45.8006569639253));
#1754=CARTESIAN_POINT('',(-33.4453949336715,10.25,47.5386283219314));
#1755=CARTESIAN_POINT('',(-33.7329865703867,8.12500000300248,44.738079682455));
#1756=CARTESIAN_POINT('',(-33.5207179322019,9.94083108318284,44.8874194672695));
#1757=CARTESIAN_POINT('',(-34.7107467080198,10.25,46.2407266901945));
#1758=CARTESIAN_POINT('',(-36.608287522223,8.46985223154815,42.4943431423827));
#1759=CARTESIAN_POINT('',(-36.2740606383249,9.76004214273362,42.7831381503523));
#1760=CARTESIAN_POINT('',(-37.1718831259127,10.4224261164711,43.5742882467606));
#1761=CARTESIAN_POINT('',(-40.552464549939,9.5344283550412,38.7444240031898));
#1762=CARTESIAN_POINT('',(-40.3363509304378,10.2993972840232,38.9742576192889));
#1763=CARTESIAN_POINT('',(-40.706818366144,10.9547141773328,39.3215235200419));
#1764=CARTESIAN_POINT('',(-44.0367721256715,10.884376906019,34.7293580784039));
#1765=CARTESIAN_POINT('',(-43.9408738421564,11.2450904855349,34.85752224658));
#1766=CARTESIAN_POINT('',(-43.9956438588141,11.6296884530635,34.9427031210911));
#1767=CARTESIAN_POINT('',(-46.0995793860899,11.878762938014,31.8426582515804));
#1768=CARTESIAN_POINT('',(-46.0813944373794,12.0028222031383,31.8708478180638));
#1769=CARTESIAN_POINT('',(-46.0632094906645,12.1268814690062,31.8990373815282));
#1770=CARTESIAN_POINT('',(-47.058033100561,12.375,30.3569023569022));
#1771=CARTESIAN_POINT('',(-47.058033100561,12.375,30.3569023569022));
#1772=CARTESIAN_POINT('',(-47.058033100561,12.375,30.3569023569022));
#1773=CARTESIAN_POINT('',(-33.4453949336715,8.125,47.5386283219314));
#1774=CARTESIAN_POINT('',(4.97496331240341E-16,8.125,0.));
#1775=CARTESIAN_POINT('',(-15.75,10.1581702014495,55.3082272360993));
#1776=CARTESIAN_POINT('',(-15.75,9.99717417091818,54.7574481761734));
#1777=CARTESIAN_POINT('',(-16.1552498901223,9.33620911223026,53.8517592966247));
#1778=CARTESIAN_POINT('',(-16.846080858697,8.52696041843715,53.4075390274454));
#1779=CARTESIAN_POINT('',(-17.2215053763441,8.125,53.2862060253172));
#1780=CARTESIAN_POINT('',(-17.875,5.72850072220037E-31,55.3082272360993));
#1781=CARTESIAN_POINT('',(-17.875,8.125,55.3082272360993));
#1782=CARTESIAN_POINT('',(-15.75,8.125,55.3082272360993));
#1783=CARTESIAN_POINT('',(-15.75,8.125,53.7617800929847));
#1784=CARTESIAN_POINT('',(-17.2215053763441,8.125,53.2862060253172));
#1785=CARTESIAN_POINT('',(-15.75,7.55298889308797,55.3082272397946));
#1786=CARTESIAN_POINT('',(-15.7499999915689,7.41845337301753,53.761780095368));
#1787=CARTESIAN_POINT('',(-17.2215053652919,6.98097778617693,53.2862060288892));
#1788=CARTESIAN_POINT('',(-15.2670412537705,6.44557634901509,55.6310779242607));
#1789=CARTESIAN_POINT('',(-14.9599013900931,6.03535821645963,53.9889610927005));
#1790=CARTESIAN_POINT('',(-16.2909010019798,4.76615269391552,53.5972535697749));
#1791=CARTESIAN_POINT('',(-14.180528035619,6.,56.2376252638634));
#1792=CARTESIAN_POINT('',(-13.6561000010211,5.87365079844115,54.3121283771841));
#1793=CARTESIAN_POINT('',(-14.1973185375686,3.87500000822834,54.1816260611875));
#1794=CARTESIAN_POINT('',(-13.625,6.,56.5055307027551));
#1795=CARTESIAN_POINT('',(-13.1268817204301,6.,54.4397371071705));
#1796=CARTESIAN_POINT('',(-13.1268817204301,3.875,54.4397371071705));
#1797=CARTESIAN_POINT('',(-13.625,3.875,56.5055307027551));
#1798=CARTESIAN_POINT('',(2.37267481053085E-16,3.875,0.));
#1799=CARTESIAN_POINT('',(13.625,3.875,56.5055307027551));
#1800=CARTESIAN_POINT('',(13.625,6.,56.5055307027551));
#1801=CARTESIAN_POINT('',(13.1268817204301,5.99999999999999,54.4397371071705));
#1802=CARTESIAN_POINT('',(13.1268817204301,3.875,54.4397371071705));
#1803=CARTESIAN_POINT('',(14.1809064617698,6.,56.2374427662629));
#1804=CARTESIAN_POINT('',(13.6564497812331,5.8735672908318,54.3120440357886));
#1805=CARTESIAN_POINT('',(14.198047720051,3.87500001071514,54.1814502357205));
#1806=CARTESIAN_POINT('',(15.2650501972146,6.44401153683122,55.6322435337077));
#1807=CARTESIAN_POINT('',(14.9573720389465,6.03387194218365,53.9896283204319));
#1808=CARTESIAN_POINT('',(16.2870644690421,4.76302306830685,53.5983765654661));
#1809=CARTESIAN_POINT('',(15.75,7.55257124093022,55.3082272381886));
#1810=CARTESIAN_POINT('',(15.7499999952591,7.41793749027702,53.7617800943326));
#1811=CARTESIAN_POINT('',(17.2215053701538,6.98014248185648,53.2862060273178));
#1812=CARTESIAN_POINT('',(15.75,8.125,55.3082272360993));
#1813=CARTESIAN_POINT('',(15.75,8.125,53.7617800929847));
#1814=CARTESIAN_POINT('',(17.221505376344,8.125,53.2862060253172));
#1815=CARTESIAN_POINT('',(17.875,8.125,55.3082272360993));
#1816=CARTESIAN_POINT('',(17.875,-4.5828005777603E-30,55.3082272360993));
#1817=CARTESIAN_POINT('',(15.75,10.1581702014495,55.3082272360994));
#1818=CARTESIAN_POINT('',(15.75,9.99717417091818,54.7574481761734));
#1819=CARTESIAN_POINT('',(16.1552498901305,9.33620911223874,53.851759296622));
#1820=CARTESIAN_POINT('',(16.8460808586805,8.52696041842016,53.4075390274507));
#1821=CARTESIAN_POINT('',(17.2215053763441,8.125,53.2862060253172));
#1822=CARTESIAN_POINT('',(4.97496331240341E-16,8.125,0.));
#1823=CARTESIAN_POINT('',(33.4453949336716,8.125,47.5386283219314));
#1824=CARTESIAN_POINT('',(33.4453949336716,10.25,47.5386283219314));
#1825=CARTESIAN_POINT('',(32.2226600651288,10.25,45.8006569639253));
#1826=CARTESIAN_POINT('',(32.2226600651288,8.125,45.8006569639253));
#1827=CARTESIAN_POINT('',(34.7107467079733,10.25,46.2407266901812));
#1828=CARTESIAN_POINT('',(33.5207179321527,9.94083108314592,44.8874194673006));
#1829=CARTESIAN_POINT('',(33.7329865703525,8.12500000300248,44.7380796824791));
#1830=CARTESIAN_POINT('',(37.1718831259342,10.4224261164712,43.5742882467671));
#1831=CARTESIAN_POINT('',(36.2740606383485,9.76004214274861,42.7831381503247));
#1832=CARTESIAN_POINT('',(36.6082875222389,8.46985223154819,42.4943431423715));
#1833=CARTESIAN_POINT('',(40.7068183661386,10.9547141773324,39.3215235200395));
#1834=CARTESIAN_POINT('',(40.3363509304529,10.2993972840178,38.9742576193163));
#1835=CARTESIAN_POINT('',(40.5524645499347,9.53442835504097,38.7444240031929));
#1836=CARTESIAN_POINT('',(43.9956438588137,11.629688453065,34.9427031210948));
#1837=CARTESIAN_POINT('',(43.9408738420645,11.2450904855408,34.857522246513));
#1838=CARTESIAN_POINT('',(44.0367721256726,10.8843769060196,34.7293580784032));
#1839=CARTESIAN_POINT('',(46.0632094906686,12.1268814690029,31.8990373815218));
#1840=CARTESIAN_POINT('',(46.0813944375838,12.0028222031284,31.8708478181992));
#1841=CARTESIAN_POINT('',(46.0995793860897,11.8787629380123,31.8426582515806));
#1842=CARTESIAN_POINT('',(47.0580331005608,12.375,30.3569023569025));
#1843=CARTESIAN_POINT('',(47.0580331005608,12.375,30.3569023569025));
#1844=CARTESIAN_POINT('',(47.0580331005608,12.375,30.3569023569025));
#1845=CARTESIAN_POINT('',(33.4453949336716,10.25,47.5386283219314));
#1846=CARTESIAN_POINT('',(36.0181674393372,10.25,44.8996739215376));
#1847=CARTESIAN_POINT('',(40.8424769831026,10.9016975529081,39.3640880179144));
#1848=CARTESIAN_POINT('',(45.0826987810891,11.882332733031,33.4189851312749));
#1849=CARTESIAN_POINT('',(47.0580331005608,12.375,30.3569023569025));
#1850=CARTESIAN_POINT('',(11.4493875177704,12.375,81.6359427609427));
#1851=CARTESIAN_POINT('',(0.,-2.5,-160.723325925014));
#1852=CARTESIAN_POINT('',(-1.53075794227797E-16,-2.5,33.6));
#1853=CARTESIAN_POINT('',(-1.53075794227797E-16,-2.5,59.1));
#1854=CARTESIAN_POINT('',(-1.53075794227797E-16,-5.00000000000001,59.1));
#1855=CARTESIAN_POINT('',(-1.53075794227797E-16,-2.5,56.1));
#1856=CARTESIAN_POINT('',(-1.53075794227797E-16,-5.00000000000001,56.1));
#1857=CARTESIAN_POINT('',(-6.97887701365213E-49,-1.13977475159571E-32,59.1));
#1858=CARTESIAN_POINT('',(-1.53075794227797E-16,-2.5,42.4882336653337));
#1859=CARTESIAN_POINT('',(-1.53075794227797E-16,-2.5,42.4882336653337));
#1860=CARTESIAN_POINT('',(-1.53075794227797E-16,-3.95,42.4882336653337));
#1861=CARTESIAN_POINT('',(-1.53075794227797E-16,-2.5,33.6));
#1862=CARTESIAN_POINT('',(-1.53075794227797E-16,-2.5,56.1));
#1863=CARTESIAN_POINT('',(-1.53075794227797E-16,-3.95000000000001,56.1));
#1864=CARTESIAN_POINT('',(-6.42918335756748E-17,-1.05,56.1));
#1865=MECHANICAL_DESIGN_GEOMETRIC_PRESENTATION_REPRESENTATION('',(#934,
#935),#1866);
#1866=(
GEOMETRIC_REPRESENTATION_CONTEXT(3)
GLOBAL_UNCERTAINTY_ASSIGNED_CONTEXT((#1867))
GLOBAL_UNIT_ASSIGNED_CONTEXT((#1870,#1869,#1868))
REPRESENTATION_CONTEXT('FLU\X2\94F8902051F87F185EA783F15F62\X0\',
'TOP_LEVEL_ASSEMBLY_PART')
);
#1867=UNCERTAINTY_MEASURE_WITH_UNIT(LENGTH_MEASURE(0.005),#1870,
'DISTANCE_ACCURACY_VALUE','Maximum Tolerance applied to model');
#1868=(
NAMED_UNIT(*)
SI_UNIT($,.STERADIAN.)
SOLID_ANGLE_UNIT()
);
#1869=(
NAMED_UNIT(*)
PLANE_ANGLE_UNIT()
SI_UNIT($,.RADIAN.)
);
#1870=(
LENGTH_UNIT()
NAMED_UNIT(*)
SI_UNIT(.MILLI.,.METRE.)
);
#1871=PRODUCT_DEFINITION_SHAPE('','',#1872);
#1872=PRODUCT_DEFINITION('','',#1874,#1873);
#1873=PRODUCT_DEFINITION_CONTEXT('',#1880,'design');
#1874=PRODUCT_DEFINITION_FORMATION_WITH_SPECIFIED_SOURCE('','',#1876,
 .NOT_KNOWN.);
#1875=PRODUCT_RELATED_PRODUCT_CATEGORY('','',(#1876));
#1876=PRODUCT('FLU\X2\94F8902051F87F185EA783F15F62\X0\',
'FLU\X2\94F8902051F87F185EA783F15F62\X0\','FLU\X2\94F8902051F87F185EA783F15F62\X0\',
(#1878));
#1877=PRODUCT_CATEGORY('','');
#1878=PRODUCT_CONTEXT('',#1880,'mechanical');
#1879=APPLICATION_PROTOCOL_DEFINITION('international standard',
'automotive_design',2010,#1880);
#1880=APPLICATION_CONTEXT(
'core data for automotive mechanical design processes');
ENDSEC;
END-ISO-10303-21;
