ISO-10303-21;
HEADER;
/* Generated by software containing HOOPS Exchange Step
 * from HOOPS Exchange, Inc. (www.tiangong.cloud) 
 */

FILE_DESCRIPTION(
/* description */ ('Unknown'),
/* implementation_level */ '2;1');

FILE_NAME(
/* name */ '\X2\51B2538B591657086EE188C56EDA94888F74627F5C0153E3578B\X0\ 
GBT12764-2019',
/* time_stamp */ '2025-12-27T15:28:04+08:00',
/* author */ ('Unknown'),
/* organization */ ('Unknown'),
/* preprocessor_version */ 'ST-DEVELOPER v19.4',
/* originating_system */ 'TianGong',
/* authorisation */ 'Unknown');

FILE_SCHEMA (('AUTOMOTIVE_DESIGN {1 0 10303 214 3 1 1}'));
ENDSEC;

DATA;
#10=PROPERTY_DEFINITION_REPRESENTATION(#14,#12);
#11=PROPERTY_DEFINITION_REPRESENTATION(#15,#13);
#12=REPRESENTATION('',(#16),#1663);
#13=REPRESENTATION('',(#17),#1663);
#14=PROPERTY_DEFINITION('pmi validation property','',#1668);
#15=PROPERTY_DEFINITION('pmi validation property','',#1668);
#16=VALUE_REPRESENTATION_ITEM('number of annotations',COUNT_MEASURE(0.));
#17=VALUE_REPRESENTATION_ITEM('number of views',COUNT_MEASURE(0.));
#18=SHAPE_REPRESENTATION_RELATIONSHIP('','',#914,#19);
#19=ADVANCED_BREP_SHAPE_REPRESENTATION('',(#912),#1663);
#20=TOROIDAL_SURFACE('',#1056,4.09999999999999,0.4);
#21=TOROIDAL_SURFACE('',#1057,4.09999999999999,0.4);
#22=PLANE('',#919);
#23=PLANE('',#925);
#24=PLANE('',#931);
#25=PLANE('',#936);
#26=PLANE('',#942);
#27=PLANE('',#948);
#28=PLANE('',#953);
#29=PLANE('',#959);
#30=PLANE('',#965);
#31=PLANE('',#970);
#32=PLANE('',#976);
#33=PLANE('',#982);
#34=PLANE('',#987);
#35=PLANE('',#993);
#36=PLANE('',#999);
#37=PLANE('',#1004);
#38=PLANE('',#1010);
#39=PLANE('',#1016);
#40=PLANE('',#1018);
#41=PLANE('',#1024);
#42=PLANE('',#1040);
#43=PLANE('',#1046);
#44=PLANE('',#1050);
#45=PLANE('',#1054);
#46=PLANE('',#1055);
#47=LINE('',#1391,#89);
#48=LINE('',#1395,#90);
#49=LINE('',#1406,#91);
#50=LINE('',#1407,#92);
#51=LINE('',#1418,#93);
#52=LINE('',#1419,#94);
#53=LINE('',#1426,#95);
#54=LINE('',#1430,#96);
#55=LINE('',#1441,#97);
#56=LINE('',#1442,#98);
#57=LINE('',#1453,#99);
#58=LINE('',#1454,#100);
#59=LINE('',#1461,#101);
#60=LINE('',#1465,#102);
#61=LINE('',#1476,#103);
#62=LINE('',#1477,#104);
#63=LINE('',#1488,#105);
#64=LINE('',#1489,#106);
#65=LINE('',#1496,#107);
#66=LINE('',#1500,#108);
#67=LINE('',#1511,#109);
#68=LINE('',#1512,#110);
#69=LINE('',#1523,#111);
#70=LINE('',#1524,#112);
#71=LINE('',#1531,#113);
#72=LINE('',#1535,#114);
#73=LINE('',#1546,#115);
#74=LINE('',#1547,#116);
#75=LINE('',#1558,#117);
#76=LINE('',#1559,#118);
#77=LINE('',#1566,#119);
#78=LINE('',#1570,#120);
#79=LINE('',#1581,#121);
#80=LINE('',#1582,#122);
#81=LINE('',#1593,#123);
#82=LINE('',#1594,#124);
#83=LINE('',#1613,#125);
#84=LINE('',#1617,#126);
#85=LINE('',#1621,#127);
#86=LINE('',#1625,#128);
#87=LINE('',#1629,#129);
#88=LINE('',#1633,#130);
#89=VECTOR('',#1064,1000.);
#90=VECTOR('',#1067,1000.);
#91=VECTOR('',#1080,1000.);
#92=VECTOR('',#1081,1000.);
#93=VECTOR('',#1094,1000.);
#94=VECTOR('',#1095,1000.);
#95=VECTOR('',#1104,1000.);
#96=VECTOR('',#1107,1000.);
#97=VECTOR('',#1120,1000.);
#98=VECTOR('',#1121,1000.);
#99=VECTOR('',#1134,1000.);
#100=VECTOR('',#1135,1000.);
#101=VECTOR('',#1144,1000.);
#102=VECTOR('',#1147,1000.);
#103=VECTOR('',#1160,1000.);
#104=VECTOR('',#1161,1000.);
#105=VECTOR('',#1174,1000.);
#106=VECTOR('',#1175,1000.);
#107=VECTOR('',#1184,1000.);
#108=VECTOR('',#1187,1000.);
#109=VECTOR('',#1200,1000.);
#110=VECTOR('',#1201,1000.);
#111=VECTOR('',#1214,1000.);
#112=VECTOR('',#1215,1000.);
#113=VECTOR('',#1224,1000.);
#114=VECTOR('',#1227,1000.);
#115=VECTOR('',#1240,1000.);
#116=VECTOR('',#1241,1000.);
#117=VECTOR('',#1254,1000.);
#118=VECTOR('',#1255,1000.);
#119=VECTOR('',#1264,1000.);
#120=VECTOR('',#1267,1000.);
#121=VECTOR('',#1280,1000.);
#122=VECTOR('',#1281,1000.);
#123=VECTOR('',#1294,1000.);
#124=VECTOR('',#1295,1000.);
#125=VECTOR('',#1320,1000.);
#126=VECTOR('',#1323,1000.);
#127=VECTOR('',#1326,1000.);
#128=VECTOR('',#1329,1000.);
#129=VECTOR('',#1332,1000.);
#130=VECTOR('',#1335,1000.);
#131=ORIENTED_EDGE('',*,*,#397,.F.);
#132=ORIENTED_EDGE('',*,*,#398,.T.);
#133=ORIENTED_EDGE('',*,*,#399,.T.);
#134=ORIENTED_EDGE('',*,*,#400,.T.);
#135=ORIENTED_EDGE('',*,*,#401,.T.);
#136=ORIENTED_EDGE('',*,*,#402,.T.);
#137=ORIENTED_EDGE('',*,*,#399,.F.);
#138=ORIENTED_EDGE('',*,*,#403,.T.);
#139=ORIENTED_EDGE('',*,*,#404,.T.);
#140=ORIENTED_EDGE('',*,*,#405,.T.);
#141=ORIENTED_EDGE('',*,*,#401,.F.);
#142=ORIENTED_EDGE('',*,*,#406,.T.);
#143=ORIENTED_EDGE('',*,*,#407,.T.);
#144=ORIENTED_EDGE('',*,*,#408,.T.);
#145=ORIENTED_EDGE('',*,*,#404,.F.);
#146=ORIENTED_EDGE('',*,*,#409,.T.);
#147=ORIENTED_EDGE('',*,*,#410,.T.);
#148=ORIENTED_EDGE('',*,*,#411,.T.);
#149=ORIENTED_EDGE('',*,*,#407,.F.);
#150=ORIENTED_EDGE('',*,*,#412,.T.);
#151=ORIENTED_EDGE('',*,*,#410,.F.);
#152=ORIENTED_EDGE('',*,*,#413,.T.);
#153=ORIENTED_EDGE('',*,*,#414,.F.);
#154=ORIENTED_EDGE('',*,*,#415,.T.);
#155=ORIENTED_EDGE('',*,*,#416,.T.);
#156=ORIENTED_EDGE('',*,*,#417,.T.);
#157=ORIENTED_EDGE('',*,*,#418,.T.);
#158=ORIENTED_EDGE('',*,*,#419,.T.);
#159=ORIENTED_EDGE('',*,*,#416,.F.);
#160=ORIENTED_EDGE('',*,*,#420,.T.);
#161=ORIENTED_EDGE('',*,*,#421,.T.);
#162=ORIENTED_EDGE('',*,*,#422,.T.);
#163=ORIENTED_EDGE('',*,*,#418,.F.);
#164=ORIENTED_EDGE('',*,*,#423,.T.);
#165=ORIENTED_EDGE('',*,*,#424,.T.);
#166=ORIENTED_EDGE('',*,*,#425,.T.);
#167=ORIENTED_EDGE('',*,*,#421,.F.);
#168=ORIENTED_EDGE('',*,*,#426,.T.);
#169=ORIENTED_EDGE('',*,*,#427,.T.);
#170=ORIENTED_EDGE('',*,*,#428,.T.);
#171=ORIENTED_EDGE('',*,*,#424,.F.);
#172=ORIENTED_EDGE('',*,*,#429,.T.);
#173=ORIENTED_EDGE('',*,*,#427,.F.);
#174=ORIENTED_EDGE('',*,*,#430,.T.);
#175=ORIENTED_EDGE('',*,*,#431,.F.);
#176=ORIENTED_EDGE('',*,*,#432,.T.);
#177=ORIENTED_EDGE('',*,*,#433,.T.);
#178=ORIENTED_EDGE('',*,*,#434,.T.);
#179=ORIENTED_EDGE('',*,*,#435,.T.);
#180=ORIENTED_EDGE('',*,*,#436,.T.);
#181=ORIENTED_EDGE('',*,*,#433,.F.);
#182=ORIENTED_EDGE('',*,*,#437,.T.);
#183=ORIENTED_EDGE('',*,*,#438,.T.);
#184=ORIENTED_EDGE('',*,*,#439,.T.);
#185=ORIENTED_EDGE('',*,*,#435,.F.);
#186=ORIENTED_EDGE('',*,*,#440,.T.);
#187=ORIENTED_EDGE('',*,*,#441,.T.);
#188=ORIENTED_EDGE('',*,*,#442,.T.);
#189=ORIENTED_EDGE('',*,*,#438,.F.);
#190=ORIENTED_EDGE('',*,*,#443,.T.);
#191=ORIENTED_EDGE('',*,*,#444,.T.);
#192=ORIENTED_EDGE('',*,*,#445,.T.);
#193=ORIENTED_EDGE('',*,*,#441,.F.);
#194=ORIENTED_EDGE('',*,*,#446,.T.);
#195=ORIENTED_EDGE('',*,*,#444,.F.);
#196=ORIENTED_EDGE('',*,*,#447,.T.);
#197=ORIENTED_EDGE('',*,*,#448,.F.);
#198=ORIENTED_EDGE('',*,*,#449,.T.);
#199=ORIENTED_EDGE('',*,*,#450,.T.);
#200=ORIENTED_EDGE('',*,*,#451,.T.);
#201=ORIENTED_EDGE('',*,*,#452,.T.);
#202=ORIENTED_EDGE('',*,*,#453,.T.);
#203=ORIENTED_EDGE('',*,*,#450,.F.);
#204=ORIENTED_EDGE('',*,*,#454,.T.);
#205=ORIENTED_EDGE('',*,*,#455,.T.);
#206=ORIENTED_EDGE('',*,*,#456,.T.);
#207=ORIENTED_EDGE('',*,*,#452,.F.);
#208=ORIENTED_EDGE('',*,*,#457,.T.);
#209=ORIENTED_EDGE('',*,*,#458,.T.);
#210=ORIENTED_EDGE('',*,*,#459,.T.);
#211=ORIENTED_EDGE('',*,*,#455,.F.);
#212=ORIENTED_EDGE('',*,*,#460,.T.);
#213=ORIENTED_EDGE('',*,*,#461,.T.);
#214=ORIENTED_EDGE('',*,*,#462,.T.);
#215=ORIENTED_EDGE('',*,*,#458,.F.);
#216=ORIENTED_EDGE('',*,*,#463,.T.);
#217=ORIENTED_EDGE('',*,*,#461,.F.);
#218=ORIENTED_EDGE('',*,*,#464,.T.);
#219=ORIENTED_EDGE('',*,*,#465,.F.);
#220=ORIENTED_EDGE('',*,*,#466,.T.);
#221=ORIENTED_EDGE('',*,*,#467,.T.);
#222=ORIENTED_EDGE('',*,*,#468,.T.);
#223=ORIENTED_EDGE('',*,*,#469,.T.);
#224=ORIENTED_EDGE('',*,*,#470,.T.);
#225=ORIENTED_EDGE('',*,*,#467,.F.);
#226=ORIENTED_EDGE('',*,*,#471,.T.);
#227=ORIENTED_EDGE('',*,*,#472,.T.);
#228=ORIENTED_EDGE('',*,*,#473,.T.);
#229=ORIENTED_EDGE('',*,*,#469,.F.);
#230=ORIENTED_EDGE('',*,*,#474,.T.);
#231=ORIENTED_EDGE('',*,*,#475,.T.);
#232=ORIENTED_EDGE('',*,*,#476,.T.);
#233=ORIENTED_EDGE('',*,*,#472,.F.);
#234=ORIENTED_EDGE('',*,*,#477,.T.);
#235=ORIENTED_EDGE('',*,*,#478,.T.);
#236=ORIENTED_EDGE('',*,*,#479,.T.);
#237=ORIENTED_EDGE('',*,*,#475,.F.);
#238=ORIENTED_EDGE('',*,*,#480,.T.);
#239=ORIENTED_EDGE('',*,*,#478,.F.);
#240=ORIENTED_EDGE('',*,*,#481,.T.);
#241=ORIENTED_EDGE('',*,*,#482,.F.);
#242=ORIENTED_EDGE('',*,*,#483,.T.);
#243=ORIENTED_EDGE('',*,*,#484,.T.);
#244=ORIENTED_EDGE('',*,*,#485,.T.);
#245=ORIENTED_EDGE('',*,*,#486,.T.);
#246=ORIENTED_EDGE('',*,*,#487,.T.);
#247=ORIENTED_EDGE('',*,*,#484,.F.);
#248=ORIENTED_EDGE('',*,*,#488,.T.);
#249=ORIENTED_EDGE('',*,*,#489,.T.);
#250=ORIENTED_EDGE('',*,*,#490,.T.);
#251=ORIENTED_EDGE('',*,*,#486,.F.);
#252=ORIENTED_EDGE('',*,*,#491,.T.);
#253=ORIENTED_EDGE('',*,*,#492,.T.);
#254=ORIENTED_EDGE('',*,*,#493,.T.);
#255=ORIENTED_EDGE('',*,*,#489,.F.);
#256=ORIENTED_EDGE('',*,*,#494,.T.);
#257=ORIENTED_EDGE('',*,*,#495,.T.);
#258=ORIENTED_EDGE('',*,*,#496,.T.);
#259=ORIENTED_EDGE('',*,*,#492,.F.);
#260=ORIENTED_EDGE('',*,*,#497,.T.);
#261=ORIENTED_EDGE('',*,*,#495,.F.);
#262=ORIENTED_EDGE('',*,*,#498,.T.);
#263=ORIENTED_EDGE('',*,*,#499,.T.);
#264=ORIENTED_EDGE('',*,*,#500,.F.);
#265=ORIENTED_EDGE('',*,*,#501,.T.);
#266=ORIENTED_EDGE('',*,*,#502,.T.);
#267=ORIENTED_EDGE('',*,*,#503,.T.);
#268=ORIENTED_EDGE('',*,*,#504,.F.);
#269=ORIENTED_EDGE('',*,*,#505,.F.);
#270=ORIENTED_EDGE('',*,*,#506,.F.);
#271=ORIENTED_EDGE('',*,*,#507,.F.);
#272=ORIENTED_EDGE('',*,*,#508,.F.);
#273=ORIENTED_EDGE('',*,*,#509,.F.);
#274=ORIENTED_EDGE('',*,*,#510,.F.);
#275=ORIENTED_EDGE('',*,*,#511,.F.);
#276=ORIENTED_EDGE('',*,*,#512,.F.);
#277=ORIENTED_EDGE('',*,*,#513,.F.);
#278=ORIENTED_EDGE('',*,*,#514,.F.);
#279=ORIENTED_EDGE('',*,*,#515,.F.);
#280=ORIENTED_EDGE('',*,*,#516,.F.);
#281=ORIENTED_EDGE('',*,*,#400,.F.);
#282=ORIENTED_EDGE('',*,*,#402,.F.);
#283=ORIENTED_EDGE('',*,*,#405,.F.);
#284=ORIENTED_EDGE('',*,*,#408,.F.);
#285=ORIENTED_EDGE('',*,*,#411,.F.);
#286=ORIENTED_EDGE('',*,*,#413,.F.);
#287=ORIENTED_EDGE('',*,*,#412,.F.);
#288=ORIENTED_EDGE('',*,*,#409,.F.);
#289=ORIENTED_EDGE('',*,*,#406,.F.);
#290=ORIENTED_EDGE('',*,*,#403,.F.);
#291=ORIENTED_EDGE('',*,*,#398,.F.);
#292=ORIENTED_EDGE('',*,*,#517,.F.);
#293=ORIENTED_EDGE('',*,*,#417,.F.);
#294=ORIENTED_EDGE('',*,*,#419,.F.);
#295=ORIENTED_EDGE('',*,*,#422,.F.);
#296=ORIENTED_EDGE('',*,*,#425,.F.);
#297=ORIENTED_EDGE('',*,*,#428,.F.);
#298=ORIENTED_EDGE('',*,*,#430,.F.);
#299=ORIENTED_EDGE('',*,*,#429,.F.);
#300=ORIENTED_EDGE('',*,*,#426,.F.);
#301=ORIENTED_EDGE('',*,*,#423,.F.);
#302=ORIENTED_EDGE('',*,*,#420,.F.);
#303=ORIENTED_EDGE('',*,*,#415,.F.);
#304=ORIENTED_EDGE('',*,*,#518,.F.);
#305=ORIENTED_EDGE('',*,*,#434,.F.);
#306=ORIENTED_EDGE('',*,*,#436,.F.);
#307=ORIENTED_EDGE('',*,*,#439,.F.);
#308=ORIENTED_EDGE('',*,*,#442,.F.);
#309=ORIENTED_EDGE('',*,*,#445,.F.);
#310=ORIENTED_EDGE('',*,*,#447,.F.);
#311=ORIENTED_EDGE('',*,*,#446,.F.);
#312=ORIENTED_EDGE('',*,*,#443,.F.);
#313=ORIENTED_EDGE('',*,*,#440,.F.);
#314=ORIENTED_EDGE('',*,*,#437,.F.);
#315=ORIENTED_EDGE('',*,*,#432,.F.);
#316=ORIENTED_EDGE('',*,*,#519,.F.);
#317=ORIENTED_EDGE('',*,*,#451,.F.);
#318=ORIENTED_EDGE('',*,*,#453,.F.);
#319=ORIENTED_EDGE('',*,*,#456,.F.);
#320=ORIENTED_EDGE('',*,*,#459,.F.);
#321=ORIENTED_EDGE('',*,*,#462,.F.);
#322=ORIENTED_EDGE('',*,*,#464,.F.);
#323=ORIENTED_EDGE('',*,*,#463,.F.);
#324=ORIENTED_EDGE('',*,*,#460,.F.);
#325=ORIENTED_EDGE('',*,*,#457,.F.);
#326=ORIENTED_EDGE('',*,*,#454,.F.);
#327=ORIENTED_EDGE('',*,*,#449,.F.);
#328=ORIENTED_EDGE('',*,*,#520,.F.);
#329=ORIENTED_EDGE('',*,*,#468,.F.);
#330=ORIENTED_EDGE('',*,*,#470,.F.);
#331=ORIENTED_EDGE('',*,*,#473,.F.);
#332=ORIENTED_EDGE('',*,*,#476,.F.);
#333=ORIENTED_EDGE('',*,*,#479,.F.);
#334=ORIENTED_EDGE('',*,*,#481,.F.);
#335=ORIENTED_EDGE('',*,*,#480,.F.);
#336=ORIENTED_EDGE('',*,*,#477,.F.);
#337=ORIENTED_EDGE('',*,*,#474,.F.);
#338=ORIENTED_EDGE('',*,*,#471,.F.);
#339=ORIENTED_EDGE('',*,*,#466,.F.);
#340=ORIENTED_EDGE('',*,*,#521,.F.);
#341=ORIENTED_EDGE('',*,*,#485,.F.);
#342=ORIENTED_EDGE('',*,*,#487,.F.);
#343=ORIENTED_EDGE('',*,*,#490,.F.);
#344=ORIENTED_EDGE('',*,*,#493,.F.);
#345=ORIENTED_EDGE('',*,*,#496,.F.);
#346=ORIENTED_EDGE('',*,*,#498,.F.);
#347=ORIENTED_EDGE('',*,*,#497,.F.);
#348=ORIENTED_EDGE('',*,*,#494,.F.);
#349=ORIENTED_EDGE('',*,*,#491,.F.);
#350=ORIENTED_EDGE('',*,*,#488,.F.);
#351=ORIENTED_EDGE('',*,*,#483,.F.);
#352=ORIENTED_EDGE('',*,*,#522,.T.);
#353=ORIENTED_EDGE('',*,*,#523,.T.);
#354=ORIENTED_EDGE('',*,*,#522,.F.);
#355=ORIENTED_EDGE('',*,*,#500,.T.);
#356=ORIENTED_EDGE('',*,*,#523,.F.);
#357=ORIENTED_EDGE('',*,*,#524,.F.);
#358=ORIENTED_EDGE('',*,*,#515,.T.);
#359=ORIENTED_EDGE('',*,*,#525,.T.);
#360=ORIENTED_EDGE('',*,*,#505,.T.);
#361=ORIENTED_EDGE('',*,*,#526,.T.);
#362=ORIENTED_EDGE('',*,*,#506,.T.);
#363=ORIENTED_EDGE('',*,*,#525,.F.);
#364=ORIENTED_EDGE('',*,*,#514,.T.);
#365=ORIENTED_EDGE('',*,*,#527,.T.);
#366=ORIENTED_EDGE('',*,*,#507,.T.);
#367=ORIENTED_EDGE('',*,*,#526,.F.);
#368=ORIENTED_EDGE('',*,*,#513,.T.);
#369=ORIENTED_EDGE('',*,*,#528,.T.);
#370=ORIENTED_EDGE('',*,*,#508,.T.);
#371=ORIENTED_EDGE('',*,*,#527,.F.);
#372=ORIENTED_EDGE('',*,*,#512,.T.);
#373=ORIENTED_EDGE('',*,*,#529,.T.);
#374=ORIENTED_EDGE('',*,*,#509,.T.);
#375=ORIENTED_EDGE('',*,*,#528,.F.);
#376=ORIENTED_EDGE('',*,*,#511,.T.);
#377=ORIENTED_EDGE('',*,*,#529,.F.);
#378=ORIENTED_EDGE('',*,*,#510,.T.);
#379=ORIENTED_EDGE('',*,*,#516,.T.);
#380=ORIENTED_EDGE('',*,*,#524,.T.);
#381=ORIENTED_EDGE('',*,*,#504,.T.);
#382=ORIENTED_EDGE('',*,*,#482,.T.);
#383=ORIENTED_EDGE('',*,*,#521,.T.);
#384=ORIENTED_EDGE('',*,*,#465,.T.);
#385=ORIENTED_EDGE('',*,*,#520,.T.);
#386=ORIENTED_EDGE('',*,*,#448,.T.);
#387=ORIENTED_EDGE('',*,*,#519,.T.);
#388=ORIENTED_EDGE('',*,*,#431,.T.);
#389=ORIENTED_EDGE('',*,*,#518,.T.);
#390=ORIENTED_EDGE('',*,*,#414,.T.);
#391=ORIENTED_EDGE('',*,*,#517,.T.);
#392=ORIENTED_EDGE('',*,*,#397,.T.);
#393=ORIENTED_EDGE('',*,*,#503,.F.);
#394=ORIENTED_EDGE('',*,*,#502,.F.);
#395=ORIENTED_EDGE('',*,*,#501,.F.);
#396=ORIENTED_EDGE('',*,*,#499,.F.);
#397=EDGE_CURVE('',#530,#531,#621,.F.);
#398=EDGE_CURVE('',#530,#532,#47,.F.);
#399=EDGE_CURVE('',#532,#533,#622,.T.);
#400=EDGE_CURVE('',#533,#531,#48,.T.);
#401=EDGE_CURVE('',#534,#535,#623,.T.);
#402=EDGE_CURVE('',#535,#533,#624,.T.);
#403=EDGE_CURVE('',#532,#534,#625,.T.);
#404=EDGE_CURVE('',#536,#537,#626,.T.);
#405=EDGE_CURVE('',#537,#535,#49,.T.);
#406=EDGE_CURVE('',#534,#536,#50,.F.);
#407=EDGE_CURVE('',#538,#539,#627,.T.);
#408=EDGE_CURVE('',#539,#537,#628,.T.);
#409=EDGE_CURVE('',#536,#538,#629,.T.);
#410=EDGE_CURVE('',#540,#541,#630,.T.);
#411=EDGE_CURVE('',#541,#539,#51,.T.);
#412=EDGE_CURVE('',#538,#540,#52,.F.);
#413=EDGE_CURVE('',#540,#541,#631,.T.);
#414=EDGE_CURVE('',#542,#543,#632,.F.);
#415=EDGE_CURVE('',#542,#544,#53,.F.);
#416=EDGE_CURVE('',#544,#545,#633,.T.);
#417=EDGE_CURVE('',#545,#543,#54,.T.);
#418=EDGE_CURVE('',#546,#547,#634,.T.);
#419=EDGE_CURVE('',#547,#545,#635,.T.);
#420=EDGE_CURVE('',#544,#546,#636,.T.);
#421=EDGE_CURVE('',#548,#549,#637,.T.);
#422=EDGE_CURVE('',#549,#547,#55,.T.);
#423=EDGE_CURVE('',#546,#548,#56,.F.);
#424=EDGE_CURVE('',#550,#551,#638,.T.);
#425=EDGE_CURVE('',#551,#549,#639,.T.);
#426=EDGE_CURVE('',#548,#550,#640,.T.);
#427=EDGE_CURVE('',#552,#553,#641,.T.);
#428=EDGE_CURVE('',#553,#551,#57,.T.);
#429=EDGE_CURVE('',#550,#552,#58,.F.);
#430=EDGE_CURVE('',#552,#553,#642,.T.);
#431=EDGE_CURVE('',#554,#555,#643,.F.);
#432=EDGE_CURVE('',#554,#556,#59,.F.);
#433=EDGE_CURVE('',#556,#557,#644,.T.);
#434=EDGE_CURVE('',#557,#555,#60,.T.);
#435=EDGE_CURVE('',#558,#559,#645,.T.);
#436=EDGE_CURVE('',#559,#557,#646,.T.);
#437=EDGE_CURVE('',#556,#558,#647,.T.);
#438=EDGE_CURVE('',#560,#561,#648,.T.);
#439=EDGE_CURVE('',#561,#559,#61,.T.);
#440=EDGE_CURVE('',#558,#560,#62,.F.);
#441=EDGE_CURVE('',#562,#563,#649,.T.);
#442=EDGE_CURVE('',#563,#561,#650,.T.);
#443=EDGE_CURVE('',#560,#562,#651,.T.);
#444=EDGE_CURVE('',#564,#565,#652,.T.);
#445=EDGE_CURVE('',#565,#563,#63,.T.);
#446=EDGE_CURVE('',#562,#564,#64,.F.);
#447=EDGE_CURVE('',#564,#565,#653,.T.);
#448=EDGE_CURVE('',#566,#567,#654,.F.);
#449=EDGE_CURVE('',#566,#568,#65,.F.);
#450=EDGE_CURVE('',#568,#569,#655,.T.);
#451=EDGE_CURVE('',#569,#567,#66,.T.);
#452=EDGE_CURVE('',#570,#571,#656,.T.);
#453=EDGE_CURVE('',#571,#569,#657,.T.);
#454=EDGE_CURVE('',#568,#570,#658,.T.);
#455=EDGE_CURVE('',#572,#573,#659,.T.);
#456=EDGE_CURVE('',#573,#571,#67,.T.);
#457=EDGE_CURVE('',#570,#572,#68,.F.);
#458=EDGE_CURVE('',#574,#575,#660,.T.);
#459=EDGE_CURVE('',#575,#573,#661,.T.);
#460=EDGE_CURVE('',#572,#574,#662,.T.);
#461=EDGE_CURVE('',#576,#577,#663,.T.);
#462=EDGE_CURVE('',#577,#575,#69,.T.);
#463=EDGE_CURVE('',#574,#576,#70,.F.);
#464=EDGE_CURVE('',#576,#577,#664,.T.);
#465=EDGE_CURVE('',#578,#579,#665,.F.);
#466=EDGE_CURVE('',#578,#580,#71,.F.);
#467=EDGE_CURVE('',#580,#581,#666,.T.);
#468=EDGE_CURVE('',#581,#579,#72,.T.);
#469=EDGE_CURVE('',#582,#583,#667,.T.);
#470=EDGE_CURVE('',#583,#581,#668,.T.);
#471=EDGE_CURVE('',#580,#582,#669,.T.);
#472=EDGE_CURVE('',#584,#585,#670,.T.);
#473=EDGE_CURVE('',#585,#583,#73,.T.);
#474=EDGE_CURVE('',#582,#584,#74,.F.);
#475=EDGE_CURVE('',#586,#587,#671,.T.);
#476=EDGE_CURVE('',#587,#585,#672,.T.);
#477=EDGE_CURVE('',#584,#586,#673,.T.);
#478=EDGE_CURVE('',#588,#589,#674,.T.);
#479=EDGE_CURVE('',#589,#587,#75,.T.);
#480=EDGE_CURVE('',#586,#588,#76,.F.);
#481=EDGE_CURVE('',#588,#589,#675,.T.);
#482=EDGE_CURVE('',#590,#591,#676,.F.);
#483=EDGE_CURVE('',#590,#592,#77,.F.);
#484=EDGE_CURVE('',#592,#593,#677,.T.);
#485=EDGE_CURVE('',#593,#591,#78,.T.);
#486=EDGE_CURVE('',#594,#595,#678,.T.);
#487=EDGE_CURVE('',#595,#593,#679,.T.);
#488=EDGE_CURVE('',#592,#594,#680,.T.);
#489=EDGE_CURVE('',#596,#597,#681,.T.);
#490=EDGE_CURVE('',#597,#595,#79,.T.);
#491=EDGE_CURVE('',#594,#596,#80,.F.);
#492=EDGE_CURVE('',#598,#599,#682,.T.);
#493=EDGE_CURVE('',#599,#597,#683,.T.);
#494=EDGE_CURVE('',#596,#598,#684,.T.);
#495=EDGE_CURVE('',#600,#601,#685,.T.);
#496=EDGE_CURVE('',#601,#599,#81,.T.);
#497=EDGE_CURVE('',#598,#600,#82,.F.);
#498=EDGE_CURVE('',#600,#601,#686,.T.);
#499=EDGE_CURVE('',#602,#602,#687,.T.);
#500=EDGE_CURVE('',#603,#603,#688,.T.);
#501=EDGE_CURVE('',#604,#604,#689,.F.);
#502=EDGE_CURVE('',#605,#605,#690,.F.);
#503=EDGE_CURVE('',#606,#606,#691,.T.);
#504=EDGE_CURVE('',#607,#590,#692,.T.);
#505=EDGE_CURVE('',#608,#607,#83,.T.);
#506=EDGE_CURVE('',#609,#608,#693,.T.);
#507=EDGE_CURVE('',#610,#609,#84,.T.);
#508=EDGE_CURVE('',#611,#610,#694,.T.);
#509=EDGE_CURVE('',#612,#611,#85,.T.);
#510=EDGE_CURVE('',#613,#612,#695,.T.);
#511=EDGE_CURVE('',#614,#613,#86,.F.);
#512=EDGE_CURVE('',#615,#614,#696,.T.);
#513=EDGE_CURVE('',#616,#615,#87,.F.);
#514=EDGE_CURVE('',#617,#616,#697,.T.);
#515=EDGE_CURVE('',#618,#617,#88,.F.);
#516=EDGE_CURVE('',#531,#618,#698,.T.);
#517=EDGE_CURVE('',#543,#530,#699,.T.);
#518=EDGE_CURVE('',#555,#542,#700,.T.);
#519=EDGE_CURVE('',#567,#554,#701,.T.);
#520=EDGE_CURVE('',#579,#566,#702,.T.);
#521=EDGE_CURVE('',#591,#578,#703,.T.);
#522=EDGE_CURVE('',#619,#619,#704,.T.);
#523=EDGE_CURVE('',#620,#620,#705,.T.);
#524=EDGE_CURVE('',#618,#607,#706,.F.);
#525=EDGE_CURVE('',#617,#608,#707,.T.);
#526=EDGE_CURVE('',#616,#609,#708,.T.);
#527=EDGE_CURVE('',#615,#610,#709,.T.);
#528=EDGE_CURVE('',#614,#611,#710,.T.);
#529=EDGE_CURVE('',#613,#612,#711,.T.);
#530=VERTEX_POINT('',#1389);
#531=VERTEX_POINT('',#1390);
#532=VERTEX_POINT('',#1392);
#533=VERTEX_POINT('',#1394);
#534=VERTEX_POINT('',#1398);
#535=VERTEX_POINT('',#1399);
#536=VERTEX_POINT('',#1404);
#537=VERTEX_POINT('',#1405);
#538=VERTEX_POINT('',#1410);
#539=VERTEX_POINT('',#1411);
#540=VERTEX_POINT('',#1416);
#541=VERTEX_POINT('',#1417);
#542=VERTEX_POINT('',#1424);
#543=VERTEX_POINT('',#1425);
#544=VERTEX_POINT('',#1427);
#545=VERTEX_POINT('',#1429);
#546=VERTEX_POINT('',#1433);
#547=VERTEX_POINT('',#1434);
#548=VERTEX_POINT('',#1439);
#549=VERTEX_POINT('',#1440);
#550=VERTEX_POINT('',#1445);
#551=VERTEX_POINT('',#1446);
#552=VERTEX_POINT('',#1451);
#553=VERTEX_POINT('',#1452);
#554=VERTEX_POINT('',#1459);
#555=VERTEX_POINT('',#1460);
#556=VERTEX_POINT('',#1462);
#557=VERTEX_POINT('',#1464);
#558=VERTEX_POINT('',#1468);
#559=VERTEX_POINT('',#1469);
#560=VERTEX_POINT('',#1474);
#561=VERTEX_POINT('',#1475);
#562=VERTEX_POINT('',#1480);
#563=VERTEX_POINT('',#1481);
#564=VERTEX_POINT('',#1486);
#565=VERTEX_POINT('',#1487);
#566=VERTEX_POINT('',#1494);
#567=VERTEX_POINT('',#1495);
#568=VERTEX_POINT('',#1497);
#569=VERTEX_POINT('',#1499);
#570=VERTEX_POINT('',#1503);
#571=VERTEX_POINT('',#1504);
#572=VERTEX_POINT('',#1509);
#573=VERTEX_POINT('',#1510);
#574=VERTEX_POINT('',#1515);
#575=VERTEX_POINT('',#1516);
#576=VERTEX_POINT('',#1521);
#577=VERTEX_POINT('',#1522);
#578=VERTEX_POINT('',#1529);
#579=VERTEX_POINT('',#1530);
#580=VERTEX_POINT('',#1532);
#581=VERTEX_POINT('',#1534);
#582=VERTEX_POINT('',#1538);
#583=VERTEX_POINT('',#1539);
#584=VERTEX_POINT('',#1544);
#585=VERTEX_POINT('',#1545);
#586=VERTEX_POINT('',#1550);
#587=VERTEX_POINT('',#1551);
#588=VERTEX_POINT('',#1556);
#589=VERTEX_POINT('',#1557);
#590=VERTEX_POINT('',#1564);
#591=VERTEX_POINT('',#1565);
#592=VERTEX_POINT('',#1567);
#593=VERTEX_POINT('',#1569);
#594=VERTEX_POINT('',#1573);
#595=VERTEX_POINT('',#1574);
#596=VERTEX_POINT('',#1579);
#597=VERTEX_POINT('',#1580);
#598=VERTEX_POINT('',#1585);
#599=VERTEX_POINT('',#1586);
#600=VERTEX_POINT('',#1591);
#601=VERTEX_POINT('',#1592);
#602=VERTEX_POINT('',#1599);
#603=VERTEX_POINT('',#1601);
#604=VERTEX_POINT('',#1604);
#605=VERTEX_POINT('',#1606);
#606=VERTEX_POINT('',#1609);
#607=VERTEX_POINT('',#1612);
#608=VERTEX_POINT('',#1614);
#609=VERTEX_POINT('',#1616);
#610=VERTEX_POINT('',#1618);
#611=VERTEX_POINT('',#1620);
#612=VERTEX_POINT('',#1622);
#613=VERTEX_POINT('',#1624);
#614=VERTEX_POINT('',#1626);
#615=VERTEX_POINT('',#1628);
#616=VERTEX_POINT('',#1630);
#617=VERTEX_POINT('',#1632);
#618=VERTEX_POINT('',#1634);
#619=VERTEX_POINT('',#1642);
#620=VERTEX_POINT('',#1645);
#621=CIRCLE('',#917,0.399999999999999);
#622=CIRCLE('',#918,0.399999999999999);
#623=CIRCLE('',#920,0.799999999999998);
#624=CIRCLE('',#921,3.29999999999999);
#625=CIRCLE('',#922,3.29999999999999);
#626=CIRCLE('',#924,0.799999999999995);
#627=CIRCLE('',#926,0.399999999999998);
#628=CIRCLE('',#927,3.29999999999999);
#629=CIRCLE('',#928,3.29999999999999);
#630=CIRCLE('',#930,0.399999999999998);
#631=CIRCLE('',#932,3.29999999999999);
#632=CIRCLE('',#934,0.399999999999999);
#633=CIRCLE('',#935,0.399999999999999);
#634=CIRCLE('',#937,0.799999999999998);
#635=CIRCLE('',#938,3.29999999999999);
#636=CIRCLE('',#939,3.29999999999999);
#637=CIRCLE('',#941,0.799999999999995);
#638=CIRCLE('',#943,0.399999999999998);
#639=CIRCLE('',#944,3.29999999999999);
#640=CIRCLE('',#945,3.29999999999999);
#641=CIRCLE('',#947,0.399999999999998);
#642=CIRCLE('',#949,3.29999999999999);
#643=CIRCLE('',#951,0.399999999999999);
#644=CIRCLE('',#952,0.399999999999999);
#645=CIRCLE('',#954,0.799999999999998);
#646=CIRCLE('',#955,3.29999999999999);
#647=CIRCLE('',#956,3.29999999999999);
#648=CIRCLE('',#958,0.799999999999995);
#649=CIRCLE('',#960,0.399999999999998);
#650=CIRCLE('',#961,3.29999999999999);
#651=CIRCLE('',#962,3.29999999999999);
#652=CIRCLE('',#964,0.399999999999998);
#653=CIRCLE('',#966,3.29999999999999);
#654=CIRCLE('',#968,0.399999999999999);
#655=CIRCLE('',#969,0.399999999999999);
#656=CIRCLE('',#971,0.799999999999998);
#657=CIRCLE('',#972,3.29999999999999);
#658=CIRCLE('',#973,3.29999999999999);
#659=CIRCLE('',#975,0.799999999999995);
#660=CIRCLE('',#977,0.399999999999998);
#661=CIRCLE('',#978,3.29999999999999);
#662=CIRCLE('',#979,3.29999999999999);
#663=CIRCLE('',#981,0.399999999999998);
#664=CIRCLE('',#983,3.29999999999999);
#665=CIRCLE('',#985,0.399999999999999);
#666=CIRCLE('',#986,0.399999999999999);
#667=CIRCLE('',#988,0.799999999999998);
#668=CIRCLE('',#989,3.29999999999999);
#669=CIRCLE('',#990,3.29999999999999);
#670=CIRCLE('',#992,0.799999999999995);
#671=CIRCLE('',#994,0.399999999999998);
#672=CIRCLE('',#995,3.29999999999999);
#673=CIRCLE('',#996,3.29999999999999);
#674=CIRCLE('',#998,0.399999999999998);
#675=CIRCLE('',#1000,3.29999999999999);
#676=CIRCLE('',#1002,0.399999999999999);
#677=CIRCLE('',#1003,0.399999999999999);
#678=CIRCLE('',#1005,0.799999999999998);
#679=CIRCLE('',#1006,3.29999999999999);
#680=CIRCLE('',#1007,3.29999999999999);
#681=CIRCLE('',#1009,0.799999999999995);
#682=CIRCLE('',#1011,0.399999999999998);
#683=CIRCLE('',#1012,3.29999999999999);
#684=CIRCLE('',#1013,3.29999999999999);
#685=CIRCLE('',#1015,0.399999999999998);
#686=CIRCLE('',#1017,3.29999999999999);
#687=CIRCLE('',#1019,4.09999999999999);
#688=CIRCLE('',#1020,2.49999999999999);
#689=CIRCLE('',#1022,4.49999999999999);
#690=CIRCLE('',#1023,4.49999999999999);
#691=CIRCLE('',#1025,4.09999999999999);
#692=CIRCLE('',#1027,3.29999999999999);
#693=CIRCLE('',#1028,3.29999999999999);
#694=CIRCLE('',#1029,3.29999999999999);
#695=CIRCLE('',#1030,3.29999999999999);
#696=CIRCLE('',#1031,3.29999999999999);
#697=CIRCLE('',#1032,3.29999999999999);
#698=CIRCLE('',#1033,3.29999999999999);
#699=CIRCLE('',#1034,3.29999999999999);
#700=CIRCLE('',#1035,3.29999999999999);
#701=CIRCLE('',#1036,3.29999999999999);
#702=CIRCLE('',#1037,3.29999999999999);
#703=CIRCLE('',#1038,3.29999999999999);
#704=CIRCLE('',#1039,3.29999999999999);
#705=CIRCLE('',#1041,2.49999999999999);
#706=CIRCLE('',#1044,0.399999999999999);
#707=CIRCLE('',#1045,0.399999999999999);
#708=CIRCLE('',#1047,0.799999999999998);
#709=CIRCLE('',#1049,0.799999999999995);
#710=CIRCLE('',#1051,0.399999999999998);
#711=CIRCLE('',#1053,0.399999999999998);
#712=EDGE_LOOP('',(#131,#132,#133,#134));
#713=EDGE_LOOP('',(#135,#136,#137,#138));
#714=EDGE_LOOP('',(#139,#140,#141,#142));
#715=EDGE_LOOP('',(#143,#144,#145,#146));
#716=EDGE_LOOP('',(#147,#148,#149,#150));
#717=EDGE_LOOP('',(#151,#152));
#718=EDGE_LOOP('',(#153,#154,#155,#156));
#719=EDGE_LOOP('',(#157,#158,#159,#160));
#720=EDGE_LOOP('',(#161,#162,#163,#164));
#721=EDGE_LOOP('',(#165,#166,#167,#168));
#722=EDGE_LOOP('',(#169,#170,#171,#172));
#723=EDGE_LOOP('',(#173,#174));
#724=EDGE_LOOP('',(#175,#176,#177,#178));
#725=EDGE_LOOP('',(#179,#180,#181,#182));
#726=EDGE_LOOP('',(#183,#184,#185,#186));
#727=EDGE_LOOP('',(#187,#188,#189,#190));
#728=EDGE_LOOP('',(#191,#192,#193,#194));
#729=EDGE_LOOP('',(#195,#196));
#730=EDGE_LOOP('',(#197,#198,#199,#200));
#731=EDGE_LOOP('',(#201,#202,#203,#204));
#732=EDGE_LOOP('',(#205,#206,#207,#208));
#733=EDGE_LOOP('',(#209,#210,#211,#212));
#734=EDGE_LOOP('',(#213,#214,#215,#216));
#735=EDGE_LOOP('',(#217,#218));
#736=EDGE_LOOP('',(#219,#220,#221,#222));
#737=EDGE_LOOP('',(#223,#224,#225,#226));
#738=EDGE_LOOP('',(#227,#228,#229,#230));
#739=EDGE_LOOP('',(#231,#232,#233,#234));
#740=EDGE_LOOP('',(#235,#236,#237,#238));
#741=EDGE_LOOP('',(#239,#240));
#742=EDGE_LOOP('',(#241,#242,#243,#244));
#743=EDGE_LOOP('',(#245,#246,#247,#248));
#744=EDGE_LOOP('',(#249,#250,#251,#252));
#745=EDGE_LOOP('',(#253,#254,#255,#256));
#746=EDGE_LOOP('',(#257,#258,#259,#260));
#747=EDGE_LOOP('',(#261,#262));
#748=EDGE_LOOP('',(#263));
#749=EDGE_LOOP('',(#264));
#750=EDGE_LOOP('',(#265));
#751=EDGE_LOOP('',(#266));
#752=EDGE_LOOP('',(#267));
#753=EDGE_LOOP('',(#268,#269,#270,#271,#272,#273,#274,#275,#276,#277,#278,
#279,#280,#281,#282,#283,#284,#285,#286,#287,#288,#289,#290,#291,#292,#293,
#294,#295,#296,#297,#298,#299,#300,#301,#302,#303,#304,#305,#306,#307,#308,
#309,#310,#311,#312,#313,#314,#315,#316,#317,#318,#319,#320,#321,#322,#323,
#324,#325,#326,#327,#328,#329,#330,#331,#332,#333,#334,#335,#336,#337,#338,
#339,#340,#341,#342,#343,#344,#345,#346,#347,#348,#349,#350,#351));
#754=EDGE_LOOP('',(#352));
#755=EDGE_LOOP('',(#353));
#756=EDGE_LOOP('',(#354));
#757=EDGE_LOOP('',(#355));
#758=EDGE_LOOP('',(#356));
#759=EDGE_LOOP('',(#357,#358,#359,#360));
#760=EDGE_LOOP('',(#361,#362,#363,#364));
#761=EDGE_LOOP('',(#365,#366,#367,#368));
#762=EDGE_LOOP('',(#369,#370,#371,#372));
#763=EDGE_LOOP('',(#373,#374,#375,#376));
#764=EDGE_LOOP('',(#377,#378));
#765=EDGE_LOOP('',(#379,#380,#381,#382,#383,#384,#385,#386,#387,#388,#389,
#390,#391,#392));
#766=EDGE_LOOP('',(#393));
#767=EDGE_LOOP('',(#394));
#768=EDGE_LOOP('',(#395));
#769=EDGE_LOOP('',(#396));
#770=FACE_BOUND('',#712,.T.);
#771=FACE_BOUND('',#713,.T.);
#772=FACE_BOUND('',#714,.T.);
#773=FACE_BOUND('',#715,.T.);
#774=FACE_BOUND('',#716,.T.);
#775=FACE_BOUND('',#717,.T.);
#776=FACE_BOUND('',#718,.T.);
#777=FACE_BOUND('',#719,.T.);
#778=FACE_BOUND('',#720,.T.);
#779=FACE_BOUND('',#721,.T.);
#780=FACE_BOUND('',#722,.T.);
#781=FACE_BOUND('',#723,.T.);
#782=FACE_BOUND('',#724,.T.);
#783=FACE_BOUND('',#725,.T.);
#784=FACE_BOUND('',#726,.T.);
#785=FACE_BOUND('',#727,.T.);
#786=FACE_BOUND('',#728,.T.);
#787=FACE_BOUND('',#729,.T.);
#788=FACE_BOUND('',#730,.T.);
#789=FACE_BOUND('',#731,.T.);
#790=FACE_BOUND('',#732,.T.);
#791=FACE_BOUND('',#733,.T.);
#792=FACE_BOUND('',#734,.T.);
#793=FACE_BOUND('',#735,.T.);
#794=FACE_BOUND('',#736,.T.);
#795=FACE_BOUND('',#737,.T.);
#796=FACE_BOUND('',#738,.T.);
#797=FACE_BOUND('',#739,.T.);
#798=FACE_BOUND('',#740,.T.);
#799=FACE_BOUND('',#741,.T.);
#800=FACE_BOUND('',#742,.T.);
#801=FACE_BOUND('',#743,.T.);
#802=FACE_BOUND('',#744,.T.);
#803=FACE_BOUND('',#745,.T.);
#804=FACE_BOUND('',#746,.T.);
#805=FACE_BOUND('',#747,.T.);
#806=FACE_BOUND('',#748,.T.);
#807=FACE_BOUND('',#749,.T.);
#808=FACE_BOUND('',#750,.T.);
#809=FACE_BOUND('',#751,.T.);
#810=FACE_BOUND('',#752,.T.);
#811=FACE_BOUND('',#753,.T.);
#812=FACE_BOUND('',#754,.T.);
#813=FACE_BOUND('',#755,.T.);
#814=FACE_BOUND('',#756,.T.);
#815=FACE_BOUND('',#757,.T.);
#816=FACE_BOUND('',#758,.T.);
#817=FACE_BOUND('',#759,.T.);
#818=FACE_BOUND('',#760,.T.);
#819=FACE_BOUND('',#761,.T.);
#820=FACE_BOUND('',#762,.T.);
#821=FACE_BOUND('',#763,.T.);
#822=FACE_BOUND('',#764,.T.);
#823=FACE_BOUND('',#765,.T.);
#824=FACE_BOUND('',#766,.T.);
#825=FACE_BOUND('',#767,.T.);
#826=FACE_BOUND('',#768,.T.);
#827=FACE_BOUND('',#769,.T.);
#828=CYLINDRICAL_SURFACE('',#916,0.399999999999999);
#829=CYLINDRICAL_SURFACE('',#923,0.799999999999996);
#830=CYLINDRICAL_SURFACE('',#929,0.399999999999998);
#831=CYLINDRICAL_SURFACE('',#933,0.399999999999999);
#832=CYLINDRICAL_SURFACE('',#940,0.799999999999996);
#833=CYLINDRICAL_SURFACE('',#946,0.399999999999998);
#834=CYLINDRICAL_SURFACE('',#950,0.399999999999999);
#835=CYLINDRICAL_SURFACE('',#957,0.799999999999996);
#836=CYLINDRICAL_SURFACE('',#963,0.399999999999998);
#837=CYLINDRICAL_SURFACE('',#967,0.399999999999999);
#838=CYLINDRICAL_SURFACE('',#974,0.799999999999996);
#839=CYLINDRICAL_SURFACE('',#980,0.399999999999998);
#840=CYLINDRICAL_SURFACE('',#984,0.399999999999999);
#841=CYLINDRICAL_SURFACE('',#991,0.799999999999996);
#842=CYLINDRICAL_SURFACE('',#997,0.399999999999998);
#843=CYLINDRICAL_SURFACE('',#1001,0.399999999999999);
#844=CYLINDRICAL_SURFACE('',#1008,0.799999999999996);
#845=CYLINDRICAL_SURFACE('',#1014,0.399999999999998);
#846=CYLINDRICAL_SURFACE('',#1021,4.49999999999999);
#847=CYLINDRICAL_SURFACE('',#1026,3.29999999999999);
#848=CYLINDRICAL_SURFACE('',#1042,2.49999999999999);
#849=CYLINDRICAL_SURFACE('',#1043,0.399999999999999);
#850=CYLINDRICAL_SURFACE('',#1048,0.799999999999996);
#851=CYLINDRICAL_SURFACE('',#1052,0.399999999999998);
#852=ADVANCED_FACE('',(#770),#828,.T.);
#853=ADVANCED_FACE('',(#771),#22,.T.);
#854=ADVANCED_FACE('',(#772),#829,.T.);
#855=ADVANCED_FACE('',(#773),#23,.T.);
#856=ADVANCED_FACE('',(#774),#830,.T.);
#857=ADVANCED_FACE('',(#775),#24,.T.);
#858=ADVANCED_FACE('',(#776),#831,.T.);
#859=ADVANCED_FACE('',(#777),#25,.T.);
#860=ADVANCED_FACE('',(#778),#832,.T.);
#861=ADVANCED_FACE('',(#779),#26,.T.);
#862=ADVANCED_FACE('',(#780),#833,.T.);
#863=ADVANCED_FACE('',(#781),#27,.T.);
#864=ADVANCED_FACE('',(#782),#834,.T.);
#865=ADVANCED_FACE('',(#783),#28,.T.);
#866=ADVANCED_FACE('',(#784),#835,.T.);
#867=ADVANCED_FACE('',(#785),#29,.T.);
#868=ADVANCED_FACE('',(#786),#836,.T.);
#869=ADVANCED_FACE('',(#787),#30,.T.);
#870=ADVANCED_FACE('',(#788),#837,.T.);
#871=ADVANCED_FACE('',(#789),#31,.T.);
#872=ADVANCED_FACE('',(#790),#838,.T.);
#873=ADVANCED_FACE('',(#791),#32,.T.);
#874=ADVANCED_FACE('',(#792),#839,.T.);
#875=ADVANCED_FACE('',(#793),#33,.T.);
#876=ADVANCED_FACE('',(#794),#840,.T.);
#877=ADVANCED_FACE('',(#795),#34,.T.);
#878=ADVANCED_FACE('',(#796),#841,.T.);
#879=ADVANCED_FACE('',(#797),#35,.T.);
#880=ADVANCED_FACE('',(#798),#842,.T.);
#881=ADVANCED_FACE('',(#799),#36,.T.);
#882=ADVANCED_FACE('',(#800),#843,.T.);
#883=ADVANCED_FACE('',(#801),#37,.T.);
#884=ADVANCED_FACE('',(#802),#844,.T.);
#885=ADVANCED_FACE('',(#803),#38,.T.);
#886=ADVANCED_FACE('',(#804),#845,.T.);
#887=ADVANCED_FACE('',(#805),#39,.T.);
#888=ADVANCED_FACE('',(#806,#807),#40,.T.);
#889=ADVANCED_FACE('',(#808,#809),#846,.T.);
#890=ADVANCED_FACE('',(#810),#41,.T.);
#891=ADVANCED_FACE('',(#811,#812),#847,.F.);
#892=ADVANCED_FACE('',(#813,#814),#42,.T.);
#893=ADVANCED_FACE('',(#815,#816),#848,.F.);
#894=ADVANCED_FACE('',(#817),#849,.T.);
#895=ADVANCED_FACE('',(#818),#43,.T.);
#896=ADVANCED_FACE('',(#819),#850,.T.);
#897=ADVANCED_FACE('',(#820),#44,.T.);
#898=ADVANCED_FACE('',(#821),#851,.T.);
#899=ADVANCED_FACE('',(#822),#45,.T.);
#900=ADVANCED_FACE('',(#823),#46,.T.);
#901=ADVANCED_FACE('',(#824,#825),#20,.T.);
#902=ADVANCED_FACE('',(#826,#827),#21,.T.);
#903=CLOSED_SHELL('',(#852,#853,#854,#855,#856,#857,#858,#859,#860,#861,
#862,#863,#864,#865,#866,#867,#868,#869,#870,#871,#872,#873,#874,#875,#876,
#877,#878,#879,#880,#881,#882,#883,#884,#885,#886,#887,#888,#889,#890,#891,
#892,#893,#894,#895,#896,#897,#898,#899,#900,#901,#902));
#904=STYLED_ITEM('',(#905),#912);
#905=PRESENTATION_STYLE_ASSIGNMENT((#906));
#906=SURFACE_STYLE_USAGE(.BOTH.,#907);
#907=SURFACE_SIDE_STYLE('',(#908));
#908=SURFACE_STYLE_FILL_AREA(#909);
#909=FILL_AREA_STYLE('',(#910));
#910=FILL_AREA_STYLE_COLOUR('',#911);
#911=COLOUR_RGB('',0.506983280181885,0.531564235687256,0.550000011920929);
#912=MANIFOLD_SOLID_BREP('',#903);
#913=SHAPE_DEFINITION_REPRESENTATION(#1668,#914);
#914=SHAPE_REPRESENTATION(
'\X2\51B2538B591657086EE188C56EDA94888F74627F5C0153E3578B\X0\ GBT12764
-2019',(#915),#1663);
#915=AXIS2_PLACEMENT_3D('',#1386,#1058,#1059);
#916=AXIS2_PLACEMENT_3D('',#1387,#1060,#1061);
#917=AXIS2_PLACEMENT_3D('',#1388,#1062,#1063);
#918=AXIS2_PLACEMENT_3D('',#1393,#1065,#1066);
#919=AXIS2_PLACEMENT_3D('',#1396,#1068,#1069);
#920=AXIS2_PLACEMENT_3D('',#1397,#1070,#1071);
#921=AXIS2_PLACEMENT_3D('',#1400,#1072,#1073);
#922=AXIS2_PLACEMENT_3D('',#1401,#1074,#1075);
#923=AXIS2_PLACEMENT_3D('',#1402,#1076,#1077);
#924=AXIS2_PLACEMENT_3D('',#1403,#1078,#1079);
#925=AXIS2_PLACEMENT_3D('',#1408,#1082,#1083);
#926=AXIS2_PLACEMENT_3D('',#1409,#1084,#1085);
#927=AXIS2_PLACEMENT_3D('',#1412,#1086,#1087);
#928=AXIS2_PLACEMENT_3D('',#1413,#1088,#1089);
#929=AXIS2_PLACEMENT_3D('',#1414,#1090,#1091);
#930=AXIS2_PLACEMENT_3D('',#1415,#1092,#1093);
#931=AXIS2_PLACEMENT_3D('',#1420,#1096,#1097);
#932=AXIS2_PLACEMENT_3D('',#1421,#1098,#1099);
#933=AXIS2_PLACEMENT_3D('',#1422,#1100,#1101);
#934=AXIS2_PLACEMENT_3D('',#1423,#1102,#1103);
#935=AXIS2_PLACEMENT_3D('',#1428,#1105,#1106);
#936=AXIS2_PLACEMENT_3D('',#1431,#1108,#1109);
#937=AXIS2_PLACEMENT_3D('',#1432,#1110,#1111);
#938=AXIS2_PLACEMENT_3D('',#1435,#1112,#1113);
#939=AXIS2_PLACEMENT_3D('',#1436,#1114,#1115);
#940=AXIS2_PLACEMENT_3D('',#1437,#1116,#1117);
#941=AXIS2_PLACEMENT_3D('',#1438,#1118,#1119);
#942=AXIS2_PLACEMENT_3D('',#1443,#1122,#1123);
#943=AXIS2_PLACEMENT_3D('',#1444,#1124,#1125);
#944=AXIS2_PLACEMENT_3D('',#1447,#1126,#1127);
#945=AXIS2_PLACEMENT_3D('',#1448,#1128,#1129);
#946=AXIS2_PLACEMENT_3D('',#1449,#1130,#1131);
#947=AXIS2_PLACEMENT_3D('',#1450,#1132,#1133);
#948=AXIS2_PLACEMENT_3D('',#1455,#1136,#1137);
#949=AXIS2_PLACEMENT_3D('',#1456,#1138,#1139);
#950=AXIS2_PLACEMENT_3D('',#1457,#1140,#1141);
#951=AXIS2_PLACEMENT_3D('',#1458,#1142,#1143);
#952=AXIS2_PLACEMENT_3D('',#1463,#1145,#1146);
#953=AXIS2_PLACEMENT_3D('',#1466,#1148,#1149);
#954=AXIS2_PLACEMENT_3D('',#1467,#1150,#1151);
#955=AXIS2_PLACEMENT_3D('',#1470,#1152,#1153);
#956=AXIS2_PLACEMENT_3D('',#1471,#1154,#1155);
#957=AXIS2_PLACEMENT_3D('',#1472,#1156,#1157);
#958=AXIS2_PLACEMENT_3D('',#1473,#1158,#1159);
#959=AXIS2_PLACEMENT_3D('',#1478,#1162,#1163);
#960=AXIS2_PLACEMENT_3D('',#1479,#1164,#1165);
#961=AXIS2_PLACEMENT_3D('',#1482,#1166,#1167);
#962=AXIS2_PLACEMENT_3D('',#1483,#1168,#1169);
#963=AXIS2_PLACEMENT_3D('',#1484,#1170,#1171);
#964=AXIS2_PLACEMENT_3D('',#1485,#1172,#1173);
#965=AXIS2_PLACEMENT_3D('',#1490,#1176,#1177);
#966=AXIS2_PLACEMENT_3D('',#1491,#1178,#1179);
#967=AXIS2_PLACEMENT_3D('',#1492,#1180,#1181);
#968=AXIS2_PLACEMENT_3D('',#1493,#1182,#1183);
#969=AXIS2_PLACEMENT_3D('',#1498,#1185,#1186);
#970=AXIS2_PLACEMENT_3D('',#1501,#1188,#1189);
#971=AXIS2_PLACEMENT_3D('',#1502,#1190,#1191);
#972=AXIS2_PLACEMENT_3D('',#1505,#1192,#1193);
#973=AXIS2_PLACEMENT_3D('',#1506,#1194,#1195);
#974=AXIS2_PLACEMENT_3D('',#1507,#1196,#1197);
#975=AXIS2_PLACEMENT_3D('',#1508,#1198,#1199);
#976=AXIS2_PLACEMENT_3D('',#1513,#1202,#1203);
#977=AXIS2_PLACEMENT_3D('',#1514,#1204,#1205);
#978=AXIS2_PLACEMENT_3D('',#1517,#1206,#1207);
#979=AXIS2_PLACEMENT_3D('',#1518,#1208,#1209);
#980=AXIS2_PLACEMENT_3D('',#1519,#1210,#1211);
#981=AXIS2_PLACEMENT_3D('',#1520,#1212,#1213);
#982=AXIS2_PLACEMENT_3D('',#1525,#1216,#1217);
#983=AXIS2_PLACEMENT_3D('',#1526,#1218,#1219);
#984=AXIS2_PLACEMENT_3D('',#1527,#1220,#1221);
#985=AXIS2_PLACEMENT_3D('',#1528,#1222,#1223);
#986=AXIS2_PLACEMENT_3D('',#1533,#1225,#1226);
#987=AXIS2_PLACEMENT_3D('',#1536,#1228,#1229);
#988=AXIS2_PLACEMENT_3D('',#1537,#1230,#1231);
#989=AXIS2_PLACEMENT_3D('',#1540,#1232,#1233);
#990=AXIS2_PLACEMENT_3D('',#1541,#1234,#1235);
#991=AXIS2_PLACEMENT_3D('',#1542,#1236,#1237);
#992=AXIS2_PLACEMENT_3D('',#1543,#1238,#1239);
#993=AXIS2_PLACEMENT_3D('',#1548,#1242,#1243);
#994=AXIS2_PLACEMENT_3D('',#1549,#1244,#1245);
#995=AXIS2_PLACEMENT_3D('',#1552,#1246,#1247);
#996=AXIS2_PLACEMENT_3D('',#1553,#1248,#1249);
#997=AXIS2_PLACEMENT_3D('',#1554,#1250,#1251);
#998=AXIS2_PLACEMENT_3D('',#1555,#1252,#1253);
#999=AXIS2_PLACEMENT_3D('',#1560,#1256,#1257);
#1000=AXIS2_PLACEMENT_3D('',#1561,#1258,#1259);
#1001=AXIS2_PLACEMENT_3D('',#1562,#1260,#1261);
#1002=AXIS2_PLACEMENT_3D('',#1563,#1262,#1263);
#1003=AXIS2_PLACEMENT_3D('',#1568,#1265,#1266);
#1004=AXIS2_PLACEMENT_3D('',#1571,#1268,#1269);
#1005=AXIS2_PLACEMENT_3D('',#1572,#1270,#1271);
#1006=AXIS2_PLACEMENT_3D('',#1575,#1272,#1273);
#1007=AXIS2_PLACEMENT_3D('',#1576,#1274,#1275);
#1008=AXIS2_PLACEMENT_3D('',#1577,#1276,#1277);
#1009=AXIS2_PLACEMENT_3D('',#1578,#1278,#1279);
#1010=AXIS2_PLACEMENT_3D('',#1583,#1282,#1283);
#1011=AXIS2_PLACEMENT_3D('',#1584,#1284,#1285);
#1012=AXIS2_PLACEMENT_3D('',#1587,#1286,#1287);
#1013=AXIS2_PLACEMENT_3D('',#1588,#1288,#1289);
#1014=AXIS2_PLACEMENT_3D('',#1589,#1290,#1291);
#1015=AXIS2_PLACEMENT_3D('',#1590,#1292,#1293);
#1016=AXIS2_PLACEMENT_3D('',#1595,#1296,#1297);
#1017=AXIS2_PLACEMENT_3D('',#1596,#1298,#1299);
#1018=AXIS2_PLACEMENT_3D('',#1597,#1300,#1301);
#1019=AXIS2_PLACEMENT_3D('',#1598,#1302,#1303);
#1020=AXIS2_PLACEMENT_3D('',#1600,#1304,#1305);
#1021=AXIS2_PLACEMENT_3D('',#1602,#1306,#1307);
#1022=AXIS2_PLACEMENT_3D('',#1603,#1308,#1309);
#1023=AXIS2_PLACEMENT_3D('',#1605,#1310,#1311);
#1024=AXIS2_PLACEMENT_3D('',#1607,#1312,#1313);
#1025=AXIS2_PLACEMENT_3D('',#1608,#1314,#1315);
#1026=AXIS2_PLACEMENT_3D('',#1610,#1316,#1317);
#1027=AXIS2_PLACEMENT_3D('',#1611,#1318,#1319);
#1028=AXIS2_PLACEMENT_3D('',#1615,#1321,#1322);
#1029=AXIS2_PLACEMENT_3D('',#1619,#1324,#1325);
#1030=AXIS2_PLACEMENT_3D('',#1623,#1327,#1328);
#1031=AXIS2_PLACEMENT_3D('',#1627,#1330,#1331);
#1032=AXIS2_PLACEMENT_3D('',#1631,#1333,#1334);
#1033=AXIS2_PLACEMENT_3D('',#1635,#1336,#1337);
#1034=AXIS2_PLACEMENT_3D('',#1636,#1338,#1339);
#1035=AXIS2_PLACEMENT_3D('',#1637,#1340,#1341);
#1036=AXIS2_PLACEMENT_3D('',#1638,#1342,#1343);
#1037=AXIS2_PLACEMENT_3D('',#1639,#1344,#1345);
#1038=AXIS2_PLACEMENT_3D('',#1640,#1346,#1347);
#1039=AXIS2_PLACEMENT_3D('',#1641,#1348,#1349);
#1040=AXIS2_PLACEMENT_3D('',#1643,#1350,#1351);
#1041=AXIS2_PLACEMENT_3D('',#1644,#1352,#1353);
#1042=AXIS2_PLACEMENT_3D('',#1646,#1354,#1355);
#1043=AXIS2_PLACEMENT_3D('',#1647,#1356,#1357);
#1044=AXIS2_PLACEMENT_3D('',#1648,#1358,#1359);
#1045=AXIS2_PLACEMENT_3D('',#1649,#1360,#1361);
#1046=AXIS2_PLACEMENT_3D('',#1650,#1362,#1363);
#1047=AXIS2_PLACEMENT_3D('',#1651,#1364,#1365);
#1048=AXIS2_PLACEMENT_3D('',#1652,#1366,#1367);
#1049=AXIS2_PLACEMENT_3D('',#1653,#1368,#1369);
#1050=AXIS2_PLACEMENT_3D('',#1654,#1370,#1371);
#1051=AXIS2_PLACEMENT_3D('',#1655,#1372,#1373);
#1052=AXIS2_PLACEMENT_3D('',#1656,#1374,#1375);
#1053=AXIS2_PLACEMENT_3D('',#1657,#1376,#1377);
#1054=AXIS2_PLACEMENT_3D('',#1658,#1378,#1379);
#1055=AXIS2_PLACEMENT_3D('',#1659,#1380,#1381);
#1056=AXIS2_PLACEMENT_3D('',#1660,#1382,#1383);
#1057=AXIS2_PLACEMENT_3D('',#1661,#1384,#1385);
#1058=DIRECTION('',(0.,0.,1.));
#1059=DIRECTION('',(1.,0.,0.));
#1060=DIRECTION('',(1.,-1.21092640888262E-16,9.65725268993865E-17));
#1061=DIRECTION('',(1.54886024640786E-16,0.781817734486384,-0.623507040892545));
#1062=DIRECTION('',(-1.,0.,0.));
#1063=DIRECTION('',(0.,0.,1.));
#1064=DIRECTION('',(1.,-1.21092640888262E-16,9.65725268993865E-17));
#1065=DIRECTION('',(1.,-1.21092640888262E-16,9.65725268993865E-17));
#1066=DIRECTION('',(1.54886024640786E-16,0.781817734486384,-0.623507040892545));
#1067=DIRECTION('',(1.,-1.21092640888262E-16,9.65725268993865E-17));
#1068=DIRECTION('',(1.,-1.21092640888262E-16,9.65725268993865E-17));
#1069=DIRECTION('',(1.54886024640786E-16,0.781817734486384,-0.623507040892545));
#1070=DIRECTION('',(1.,-1.21092640888262E-16,9.65725268993865E-17));
#1071=DIRECTION('',(1.54886024640786E-16,0.781817734486384,-0.623507040892545));
#1072=DIRECTION('',(1.,-1.21092640888262E-16,9.65725268993865E-17));
#1073=DIRECTION('',(1.21092640888262E-16,1.,0.));
#1074=DIRECTION('',(1.,-1.21092640888262E-16,9.65725268993865E-17));
#1075=DIRECTION('',(1.21092640888262E-16,1.,0.));
#1076=DIRECTION('',(1.,-1.21092640888262E-16,9.65725268993865E-17));
#1077=DIRECTION('',(1.54886024640786E-16,0.781817734486384,-0.623507040892545));
#1078=DIRECTION('',(1.,-1.21092640888262E-16,9.65725268993865E-17));
#1079=DIRECTION('',(1.54886024640786E-16,0.781817734486384,-0.623507040892545));
#1080=DIRECTION('',(1.,-1.21092640888262E-16,9.65725268993865E-17));
#1081=DIRECTION('',(1.,-1.21092640888262E-16,9.65725268993865E-17));
#1082=DIRECTION('',(-1.,1.21092640888262E-16,-9.65725268993865E-17));
#1083=DIRECTION('',(-1.54886024640786E-16,-0.781817734486384,0.623507040892545));
#1084=DIRECTION('',(1.,-1.21092640888262E-16,9.65725268993865E-17));
#1085=DIRECTION('',(1.54886024640786E-16,0.781817734486384,-0.623507040892545));
#1086=DIRECTION('',(-1.,1.21092640888262E-16,-9.65725268993865E-17));
#1087=DIRECTION('',(-1.21092640888262E-16,-1.,0.));
#1088=DIRECTION('',(-1.,1.21092640888262E-16,-9.65725268993865E-17));
#1089=DIRECTION('',(-1.21092640888262E-16,-1.,0.));
#1090=DIRECTION('',(1.,-1.21092640888262E-16,9.65725268993865E-17));
#1091=DIRECTION('',(1.54886024640786E-16,0.781817734486384,-0.623507040892545));
#1092=DIRECTION('',(1.,-1.21092640888262E-16,9.65725268993865E-17));
#1093=DIRECTION('',(1.54886024640786E-16,0.781817734486384,-0.623507040892545));
#1094=DIRECTION('',(1.,-1.21092640888262E-16,9.65725268993865E-17));
#1095=DIRECTION('',(1.,-1.21092640888262E-16,9.65725268993865E-17));
#1096=DIRECTION('',(-1.,1.21092640888262E-16,-9.65725268993865E-17));
#1097=DIRECTION('',(-1.54886024640786E-16,-0.781817734486384,0.623507040892545));
#1098=DIRECTION('',(-1.,1.21092640888262E-16,-9.65725268993865E-17));
#1099=DIRECTION('',(-1.21092640888262E-16,-1.,0.));
#1100=DIRECTION('',(1.,-1.5100081147571E-16,-3.44736937780604E-17));
#1101=DIRECTION('',(1.54886024640786E-16,0.974915663475208,0.22257459223976));
#1102=DIRECTION('',(-1.,0.,0.));
#1103=DIRECTION('',(0.,0.,1.));
#1104=DIRECTION('',(1.,-1.5100081147571E-16,-3.44736937780604E-17));
#1105=DIRECTION('',(1.,-1.5100081147571E-16,-3.44736937780604E-17));
#1106=DIRECTION('',(1.54886024640786E-16,0.974915663475208,0.22257459223976));
#1107=DIRECTION('',(1.,-1.5100081147571E-16,-3.44736937780604E-17));
#1108=DIRECTION('',(1.,-1.5100081147571E-16,-3.44736937780604E-17));
#1109=DIRECTION('',(1.54886024640786E-16,0.974915663475208,0.22257459223976));
#1110=DIRECTION('',(1.,-1.5100081147571E-16,-3.44736937780604E-17));
#1111=DIRECTION('',(1.54886024640786E-16,0.974915663475208,0.22257459223976));
#1112=DIRECTION('',(1.,-1.5100081147571E-16,-3.44736937780604E-17));
#1113=DIRECTION('',(1.5100081147571E-16,1.,0.));
#1114=DIRECTION('',(1.,-1.5100081147571E-16,-3.44736937780604E-17));
#1115=DIRECTION('',(1.5100081147571E-16,1.,0.));
#1116=DIRECTION('',(1.,-1.5100081147571E-16,-3.44736937780604E-17));
#1117=DIRECTION('',(1.54886024640786E-16,0.974915663475208,0.22257459223976));
#1118=DIRECTION('',(1.,-1.5100081147571E-16,-3.44736937780604E-17));
#1119=DIRECTION('',(1.54886024640786E-16,0.974915663475208,0.22257459223976));
#1120=DIRECTION('',(1.,-1.5100081147571E-16,-3.44736937780604E-17));
#1121=DIRECTION('',(1.,-1.5100081147571E-16,-3.44736937780604E-17));
#1122=DIRECTION('',(-1.,1.5100081147571E-16,3.44736937780604E-17));
#1123=DIRECTION('',(-1.54886024640786E-16,-0.974915663475208,-0.22257459223976));
#1124=DIRECTION('',(1.,-1.5100081147571E-16,-3.44736937780604E-17));
#1125=DIRECTION('',(1.54886024640786E-16,0.974915663475208,0.22257459223976));
#1126=DIRECTION('',(-1.,1.5100081147571E-16,3.44736937780604E-17));
#1127=DIRECTION('',(-1.5100081147571E-16,-1.,0.));
#1128=DIRECTION('',(-1.,1.5100081147571E-16,3.44736937780604E-17));
#1129=DIRECTION('',(-1.5100081147571E-16,-1.,0.));
#1130=DIRECTION('',(1.,-1.5100081147571E-16,-3.44736937780604E-17));
#1131=DIRECTION('',(1.54886024640786E-16,0.974915663475208,0.22257459223976));
#1132=DIRECTION('',(1.,-1.5100081147571E-16,-3.44736937780604E-17));
#1133=DIRECTION('',(1.54886024640786E-16,0.974915663475208,0.22257459223976));
#1134=DIRECTION('',(1.,-1.5100081147571E-16,-3.44736937780604E-17));
#1135=DIRECTION('',(1.,-1.5100081147571E-16,-3.44736937780604E-17));
#1136=DIRECTION('',(-1.,1.5100081147571E-16,3.44736937780604E-17));
#1137=DIRECTION('',(-1.54886024640786E-16,-0.974915663475208,-0.22257459223976));
#1138=DIRECTION('',(-1.,1.5100081147571E-16,3.44736937780604E-17));
#1139=DIRECTION('',(-1.5100081147571E-16,-1.,0.));
#1140=DIRECTION('',(1.,-6.72102156466231E-17,-1.39543783601279E-16));
#1141=DIRECTION('',(1.54886024640786E-16,0.43393337651023,0.900944962109468));
#1142=DIRECTION('',(-1.,0.,0.));
#1143=DIRECTION('',(0.,0.,1.));
#1144=DIRECTION('',(1.,-6.72102156466231E-17,-1.39543783601279E-16));
#1145=DIRECTION('',(1.,-6.72102156466231E-17,-1.39543783601279E-16));
#1146=DIRECTION('',(1.54886024640786E-16,0.43393337651023,0.900944962109468));
#1147=DIRECTION('',(1.,-6.72102156466231E-17,-1.39543783601279E-16));
#1148=DIRECTION('',(1.,-6.72102156466231E-17,-1.39543783601279E-16));
#1149=DIRECTION('',(1.54886024640786E-16,0.43393337651023,0.900944962109468));
#1150=DIRECTION('',(1.,-6.72102156466231E-17,-1.39543783601279E-16));
#1151=DIRECTION('',(1.54886024640786E-16,0.43393337651023,0.900944962109468));
#1152=DIRECTION('',(1.,-6.72102156466231E-17,-1.39543783601279E-16));
#1153=DIRECTION('',(-1.39543783601279E-16,0.,-1.));
#1154=DIRECTION('',(1.,-6.72102156466231E-17,-1.39543783601279E-16));
#1155=DIRECTION('',(-1.39543783601279E-16,0.,-1.));
#1156=DIRECTION('',(1.,-6.72102156466231E-17,-1.39543783601279E-16));
#1157=DIRECTION('',(1.54886024640786E-16,0.43393337651023,0.900944962109468));
#1158=DIRECTION('',(1.,-6.72102156466231E-17,-1.39543783601279E-16));
#1159=DIRECTION('',(1.54886024640786E-16,0.43393337651023,0.900944962109468));
#1160=DIRECTION('',(1.,-6.72102156466231E-17,-1.39543783601279E-16));
#1161=DIRECTION('',(1.,-6.72102156466231E-17,-1.39543783601279E-16));
#1162=DIRECTION('',(-1.,6.72102156466231E-17,1.39543783601279E-16));
#1163=DIRECTION('',(-1.54886024640786E-16,-0.43393337651023,-0.900944962109468));
#1164=DIRECTION('',(1.,-6.72102156466231E-17,-1.39543783601279E-16));
#1165=DIRECTION('',(1.54886024640786E-16,0.43393337651023,0.900944962109468));
#1166=DIRECTION('',(-1.,6.72102156466231E-17,1.39543783601279E-16));
#1167=DIRECTION('',(1.39543783601279E-16,0.,1.));
#1168=DIRECTION('',(-1.,6.72102156466231E-17,1.39543783601279E-16));
#1169=DIRECTION('',(1.39543783601279E-16,0.,1.));
#1170=DIRECTION('',(1.,-6.72102156466231E-17,-1.39543783601279E-16));
#1171=DIRECTION('',(1.54886024640786E-16,0.43393337651023,0.900944962109468));
#1172=DIRECTION('',(1.,-6.72102156466231E-17,-1.39543783601279E-16));
#1173=DIRECTION('',(1.54886024640786E-16,0.43393337651023,0.900944962109468));
#1174=DIRECTION('',(1.,-6.72102156466231E-17,-1.39543783601279E-16));
#1175=DIRECTION('',(1.,-6.72102156466231E-17,-1.39543783601279E-16));
#1176=DIRECTION('',(-1.,6.72102156466231E-17,1.39543783601279E-16));
#1177=DIRECTION('',(-1.54886024640786E-16,-0.43393337651023,-0.900944962109468));
#1178=DIRECTION('',(-1.,6.72102156466231E-17,1.39543783601279E-16));
#1179=DIRECTION('',(1.39543783601279E-16,0.,1.));
#1180=DIRECTION('',(1.,3.77786612330959E-15,-1.63949255572076E-14));
#1181=DIRECTION('',(1.64102677980615E-14,-0.433933374022931,0.900944963307457));
#1182=DIRECTION('',(-1.,0.,0.));
#1183=DIRECTION('',(0.,0.,1.));
#1184=DIRECTION('',(1.,3.77786612330959E-15,-1.63949255572076E-14));
#1185=DIRECTION('',(1.,3.77786612330959E-15,-1.63949255572076E-14));
#1186=DIRECTION('',(1.64102677980615E-14,-0.433933374022931,0.900944963307457));
#1187=DIRECTION('',(1.,3.77786612330959E-15,-1.63949255572076E-14));
#1188=DIRECTION('',(1.,3.77786612330959E-15,-1.63949255572076E-14));
#1189=DIRECTION('',(1.64102677980615E-14,-0.433933374022931,0.900944963307457));
#1190=DIRECTION('',(1.,3.77786612330959E-15,-1.63949255572076E-14));
#1191=DIRECTION('',(1.64102677980615E-14,-0.433933374022931,0.900944963307457));
#1192=DIRECTION('',(1.,3.77786612330959E-15,-1.63949255572076E-14));
#1193=DIRECTION('',(-1.63949255572076E-14,0.,-1.));
#1194=DIRECTION('',(1.,3.77786612330959E-15,-1.63949255572076E-14));
#1195=DIRECTION('',(-1.63949255572076E-14,0.,-1.));
#1196=DIRECTION('',(1.,3.77786612330959E-15,-1.63949255572076E-14));
#1197=DIRECTION('',(1.64102677980615E-14,-0.433933374022931,0.900944963307457));
#1198=DIRECTION('',(1.,3.77786612330959E-15,-1.63949255572076E-14));
#1199=DIRECTION('',(1.64102677980615E-14,-0.433933374022931,0.900944963307457));
#1200=DIRECTION('',(1.,3.77786612330959E-15,-1.63949255572076E-14));
#1201=DIRECTION('',(1.,3.77786612330959E-15,-1.63949255572076E-14));
#1202=DIRECTION('',(-1.,-3.77786612330959E-15,1.63949255572076E-14));
#1203=DIRECTION('',(-1.64102677980615E-14,0.433933374022931,-0.900944963307457));
#1204=DIRECTION('',(1.,3.77786612330959E-15,-1.63949255572076E-14));
#1205=DIRECTION('',(1.64102677980615E-14,-0.433933374022931,0.900944963307457));
#1206=DIRECTION('',(-1.,-3.77786612330959E-15,1.63949255572076E-14));
#1207=DIRECTION('',(1.63949255572076E-14,0.,1.));
#1208=DIRECTION('',(-1.,-3.77786612330959E-15,1.63949255572076E-14));
#1209=DIRECTION('',(1.63949255572076E-14,0.,1.));
#1210=DIRECTION('',(1.,3.77786612330959E-15,-1.63949255572076E-14));
#1211=DIRECTION('',(1.64102677980615E-14,-0.433933374022931,0.900944963307457));
#1212=DIRECTION('',(1.,3.77786612330959E-15,-1.63949255572076E-14));
#1213=DIRECTION('',(1.64102677980615E-14,-0.433933374022931,0.900944963307457));
#1214=DIRECTION('',(1.,3.77786612330959E-15,-1.63949255572076E-14));
#1215=DIRECTION('',(1.,3.77786612330959E-15,-1.63949255572076E-14));
#1216=DIRECTION('',(-1.,-3.77786612330959E-15,1.63949255572076E-14));
#1217=DIRECTION('',(-1.64102677980615E-14,0.433933374022931,-0.900944963307457));
#1218=DIRECTION('',(-1.,-3.77786612330959E-15,1.63949255572076E-14));
#1219=DIRECTION('',(1.63949255572076E-14,0.,1.));
#1220=DIRECTION('',(1.,-2.94121526606097E-15,3.84326154212786E-15));
#1221=DIRECTION('',(-3.72284921168201E-15,-0.97491566286073,0.222574594931281));
#1222=DIRECTION('',(-1.,0.,0.));
#1223=DIRECTION('',(0.,0.,1.));
#1224=DIRECTION('',(1.,-2.94121526606097E-15,3.84326154212786E-15));
#1225=DIRECTION('',(1.,-2.94121526606097E-15,3.84326154212786E-15));
#1226=DIRECTION('',(-3.72284921168201E-15,-0.97491566286073,0.222574594931281));
#1227=DIRECTION('',(1.,-2.94121526606097E-15,3.84326154212786E-15));
#1228=DIRECTION('',(1.,-2.94121526606097E-15,3.84326154212786E-15));
#1229=DIRECTION('',(-3.72284921168201E-15,-0.97491566286073,0.222574594931281));
#1230=DIRECTION('',(1.,-2.94121526606097E-15,3.84326154212786E-15));
#1231=DIRECTION('',(-3.72284921168201E-15,-0.97491566286073,0.222574594931281));
#1232=DIRECTION('',(1.,-2.94121526606097E-15,3.84326154212786E-15));
#1233=DIRECTION('',(3.84326154212786E-15,0.,-1.));
#1234=DIRECTION('',(1.,-2.94121526606097E-15,3.84326154212786E-15));
#1235=DIRECTION('',(3.84326154212786E-15,0.,-1.));
#1236=DIRECTION('',(1.,-2.94121526606097E-15,3.84326154212786E-15));
#1237=DIRECTION('',(-3.72284921168201E-15,-0.97491566286073,0.222574594931281));
#1238=DIRECTION('',(1.,-2.94121526606097E-15,3.84326154212786E-15));
#1239=DIRECTION('',(-3.72284921168201E-15,-0.97491566286073,0.222574594931281));
#1240=DIRECTION('',(1.,-2.94121526606097E-15,3.84326154212786E-15));
#1241=DIRECTION('',(1.,-2.94121526606097E-15,3.84326154212786E-15));
#1242=DIRECTION('',(-1.,2.94121526606097E-15,-3.84326154212786E-15));
#1243=DIRECTION('',(3.72284921168201E-15,0.97491566286073,-0.222574594931281));
#1244=DIRECTION('',(1.,-2.94121526606097E-15,3.84326154212786E-15));
#1245=DIRECTION('',(-3.72284921168201E-15,-0.97491566286073,0.222574594931281));
#1246=DIRECTION('',(-1.,2.94121526606097E-15,-3.84326154212786E-15));
#1247=DIRECTION('',(-3.84326154212786E-15,0.,1.));
#1248=DIRECTION('',(-1.,2.94121526606097E-15,-3.84326154212786E-15));
#1249=DIRECTION('',(-3.84326154212786E-15,0.,1.));
#1250=DIRECTION('',(1.,-2.94121526606097E-15,3.84326154212786E-15));
#1251=DIRECTION('',(-3.72284921168201E-15,-0.97491566286073,0.222574594931281));
#1252=DIRECTION('',(1.,-2.94121526606097E-15,3.84326154212786E-15));
#1253=DIRECTION('',(-3.72284921168201E-15,-0.97491566286073,0.222574594931281));
#1254=DIRECTION('',(1.,-2.94121526606097E-15,3.84326154212786E-15));
#1255=DIRECTION('',(1.,-2.94121526606097E-15,3.84326154212786E-15));
#1256=DIRECTION('',(-1.,2.94121526606097E-15,-3.84326154212786E-15));
#1257=DIRECTION('',(3.72284921168201E-15,0.97491566286073,-0.222574594931281));
#1258=DIRECTION('',(-1.,2.94121526606097E-15,-3.84326154212786E-15));
#1259=DIRECTION('',(-3.84326154212786E-15,0.,1.));
#1260=DIRECTION('',(1.,4.75940611187654E-15,-2.13705852706373E-15));
#1261=DIRECTION('',(2.38851707826959E-15,-0.781817736207743,-0.623507038734126));
#1262=DIRECTION('',(-1.,0.,0.));
#1263=DIRECTION('',(0.,0.,1.));
#1264=DIRECTION('',(1.,4.75940611187654E-15,-2.13705852706373E-15));
#1265=DIRECTION('',(1.,4.75940611187654E-15,-2.13705852706373E-15));
#1266=DIRECTION('',(2.38851707826959E-15,-0.781817736207743,-0.623507038734126));
#1267=DIRECTION('',(1.,4.75940611187654E-15,-2.13705852706373E-15));
#1268=DIRECTION('',(1.,4.75940611187654E-15,-2.13705852706373E-15));
#1269=DIRECTION('',(2.38851707826959E-15,-0.781817736207743,-0.623507038734126));
#1270=DIRECTION('',(1.,4.75940611187654E-15,-2.13705852706373E-15));
#1271=DIRECTION('',(2.38851707826959E-15,-0.781817736207743,-0.623507038734126));
#1272=DIRECTION('',(1.,4.75940611187654E-15,-2.13705852706373E-15));
#1273=DIRECTION('',(-4.75940611187654E-15,1.,0.));
#1274=DIRECTION('',(1.,4.75940611187654E-15,-2.13705852706373E-15));
#1275=DIRECTION('',(-4.75940611187654E-15,1.,0.));
#1276=DIRECTION('',(1.,4.75940611187654E-15,-2.13705852706373E-15));
#1277=DIRECTION('',(2.38851707826959E-15,-0.781817736207743,-0.623507038734126));
#1278=DIRECTION('',(1.,4.75940611187654E-15,-2.13705852706373E-15));
#1279=DIRECTION('',(2.38851707826959E-15,-0.781817736207743,-0.623507038734126));
#1280=DIRECTION('',(1.,4.75940611187654E-15,-2.13705852706373E-15));
#1281=DIRECTION('',(1.,4.75940611187654E-15,-2.13705852706373E-15));
#1282=DIRECTION('',(-1.,-4.75940611187654E-15,2.13705852706373E-15));
#1283=DIRECTION('',(-2.38851707826959E-15,0.781817736207743,0.623507038734126));
#1284=DIRECTION('',(1.,4.75940611187654E-15,-2.13705852706373E-15));
#1285=DIRECTION('',(2.38851707826959E-15,-0.781817736207743,-0.623507038734126));
#1286=DIRECTION('',(-1.,-4.75940611187654E-15,2.13705852706373E-15));
#1287=DIRECTION('',(4.75940611187654E-15,-1.,0.));
#1288=DIRECTION('',(-1.,-4.75940611187654E-15,2.13705852706373E-15));
#1289=DIRECTION('',(4.75940611187654E-15,-1.,0.));
#1290=DIRECTION('',(1.,4.75940611187654E-15,-2.13705852706373E-15));
#1291=DIRECTION('',(2.38851707826959E-15,-0.781817736207743,-0.623507038734126));
#1292=DIRECTION('',(1.,4.75940611187654E-15,-2.13705852706373E-15));
#1293=DIRECTION('',(2.38851707826959E-15,-0.781817736207743,-0.623507038734126));
#1294=DIRECTION('',(1.,4.75940611187654E-15,-2.13705852706373E-15));
#1295=DIRECTION('',(1.,4.75940611187654E-15,-2.13705852706373E-15));
#1296=DIRECTION('',(-1.,-4.75940611187654E-15,2.13705852706373E-15));
#1297=DIRECTION('',(-2.38851707826959E-15,0.781817736207743,0.623507038734126));
#1298=DIRECTION('',(-1.,-4.75940611187654E-15,2.13705852706373E-15));
#1299=DIRECTION('',(4.75940611187654E-15,-1.,0.));
#1300=DIRECTION('',(-1.,0.,0.));
#1301=DIRECTION('',(0.,0.,1.));
#1302=DIRECTION('',(-1.,0.,0.));
#1303=DIRECTION('',(0.,0.,1.));
#1304=DIRECTION('',(-1.,0.,0.));
#1305=DIRECTION('',(0.,0.,1.));
#1306=DIRECTION('',(-1.,0.,0.));
#1307=DIRECTION('',(0.,0.,1.));
#1308=DIRECTION('',(-1.,0.,0.));
#1309=DIRECTION('',(0.,0.,1.));
#1310=DIRECTION('',(1.,0.,0.));
#1311=DIRECTION('',(0.,0.,-1.));
#1312=DIRECTION('',(1.,0.,0.));
#1313=DIRECTION('',(0.,0.,-1.));
#1314=DIRECTION('',(1.,0.,0.));
#1315=DIRECTION('',(0.,0.,-1.));
#1316=DIRECTION('',(-1.,0.,0.));
#1317=DIRECTION('',(0.,0.,1.));
#1318=DIRECTION('',(-1.,0.,0.));
#1319=DIRECTION('',(0.,0.,1.));
#1320=DIRECTION('',(1.,0.,1.54886024640786E-16));
#1321=DIRECTION('',(1.,0.,1.54886024640786E-16));
#1322=DIRECTION('',(1.54886024640786E-16,0.,-1.));
#1323=DIRECTION('',(1.,0.,1.54886024640786E-16));
#1324=DIRECTION('',(-1.,0.,-1.54886024640786E-16));
#1325=DIRECTION('',(-1.54886024640786E-16,0.,1.));
#1326=DIRECTION('',(1.,0.,1.54886024640786E-16));
#1327=DIRECTION('',(-1.,0.,-1.54886024640786E-16));
#1328=DIRECTION('',(-1.54886024640786E-16,0.,1.));
#1329=DIRECTION('',(1.,0.,1.54886024640786E-16));
#1330=DIRECTION('',(-1.,0.,-1.54886024640786E-16));
#1331=DIRECTION('',(-1.54886024640786E-16,0.,1.));
#1332=DIRECTION('',(1.,0.,1.54886024640786E-16));
#1333=DIRECTION('',(1.,0.,1.54886024640786E-16));
#1334=DIRECTION('',(1.54886024640786E-16,0.,-1.));
#1335=DIRECTION('',(1.,0.,1.54886024640786E-16));
#1336=DIRECTION('',(-1.,0.,0.));
#1337=DIRECTION('',(0.,0.,1.));
#1338=DIRECTION('',(-1.,0.,0.));
#1339=DIRECTION('',(0.,0.,1.));
#1340=DIRECTION('',(-1.,0.,0.));
#1341=DIRECTION('',(0.,0.,1.));
#1342=DIRECTION('',(-1.,0.,0.));
#1343=DIRECTION('',(0.,0.,1.));
#1344=DIRECTION('',(-1.,0.,0.));
#1345=DIRECTION('',(0.,0.,1.));
#1346=DIRECTION('',(-1.,0.,0.));
#1347=DIRECTION('',(0.,0.,1.));
#1348=DIRECTION('',(-1.,0.,0.));
#1349=DIRECTION('',(0.,0.,1.));
#1350=DIRECTION('',(1.,0.,0.));
#1351=DIRECTION('',(0.,0.,-1.));
#1352=DIRECTION('',(-1.,0.,0.));
#1353=DIRECTION('',(0.,0.,1.));
#1354=DIRECTION('',(-1.,0.,0.));
#1355=DIRECTION('',(0.,0.,1.));
#1356=DIRECTION('',(1.,0.,1.54886024640786E-16));
#1357=DIRECTION('',(1.54886024640786E-16,0.,-1.));
#1358=DIRECTION('',(-1.,0.,0.));
#1359=DIRECTION('',(0.,0.,1.));
#1360=DIRECTION('',(1.,0.,1.54886024640786E-16));
#1361=DIRECTION('',(1.54886024640786E-16,0.,-1.));
#1362=DIRECTION('',(1.,0.,1.54886024640786E-16));
#1363=DIRECTION('',(1.54886024640786E-16,0.,-1.));
#1364=DIRECTION('',(1.,0.,1.54886024640786E-16));
#1365=DIRECTION('',(1.54886024640786E-16,0.,-1.));
#1366=DIRECTION('',(1.,0.,1.54886024640786E-16));
#1367=DIRECTION('',(1.54886024640786E-16,0.,-1.));
#1368=DIRECTION('',(1.,0.,1.54886024640786E-16));
#1369=DIRECTION('',(1.54886024640786E-16,0.,-1.));
#1370=DIRECTION('',(-1.,0.,-1.54886024640786E-16));
#1371=DIRECTION('',(-1.54886024640786E-16,0.,1.));
#1372=DIRECTION('',(1.,0.,1.54886024640786E-16));
#1373=DIRECTION('',(1.54886024640786E-16,0.,-1.));
#1374=DIRECTION('',(1.,0.,1.54886024640786E-16));
#1375=DIRECTION('',(1.54886024640786E-16,0.,-1.));
#1376=DIRECTION('',(1.,0.,1.54886024640786E-16));
#1377=DIRECTION('',(1.54886024640786E-16,0.,-1.));
#1378=DIRECTION('',(-1.,0.,-1.54886024640786E-16));
#1379=DIRECTION('',(-1.54886024640786E-16,0.,1.));
#1380=DIRECTION('',(-1.,0.,0.));
#1381=DIRECTION('',(0.,0.,1.));
#1382=DIRECTION('',(1.,0.,0.));
#1383=DIRECTION('',(0.,0.,-1.));
#1384=DIRECTION('',(-1.,0.,0.));
#1385=DIRECTION('',(0.,0.,1.));
#1386=CARTESIAN_POINT('',(0.,0.,0.));
#1387=CARTESIAN_POINT('',(-2.8,-2.58002570022576,2.05752427482439));
#1388=CARTESIAN_POINT('',(2.5,-2.58002570022576,2.05752427482439));
#1389=CARTESIAN_POINT('',(2.5,-2.81001897170039,1.73025818266634));
#1390=CARTESIAN_POINT('',(2.5,-2.31214001186506,2.35457184335763));
#1391=CARTESIAN_POINT('',(2.625,-2.81001897170039,1.73025818266634));
#1392=CARTESIAN_POINT('',(2.45,-2.81001897170039,1.73025818266634));
#1393=CARTESIAN_POINT('',(2.45,-2.58002570022576,2.05752427482439));
#1394=CARTESIAN_POINT('',(2.45,-2.31214001186506,2.35457184335763));
#1395=CARTESIAN_POINT('',(2.625,-2.31214001186506,2.35457184335763));
#1396=CARTESIAN_POINT('',(2.45,-2.26729860643121,1.80812145846737));
#1397=CARTESIAN_POINT('',(2.45,-2.58002570022576,2.05752427482439));
#1398=CARTESIAN_POINT('',(2.45,-2.99933715083475,1.3762182441831));
#1399=CARTESIAN_POINT('',(2.45,-2.00910105211532,2.61792149660548));
#1400=CARTESIAN_POINT('',(2.45,0.,0.));
#1401=CARTESIAN_POINT('',(2.45,0.,0.));
#1402=CARTESIAN_POINT('',(-2.8,-2.58002570022576,2.05752427482439));
#1403=CARTESIAN_POINT('',(-2.45,-2.58002570022576,2.05752427482439));
#1404=CARTESIAN_POINT('',(-2.45,-2.99933715083475,1.37621824418311));
#1405=CARTESIAN_POINT('',(-2.45,-2.00910105211532,2.61792149660547));
#1406=CARTESIAN_POINT('',(-4.33680868994202E-16,-2.00910105211532,2.61792149660548));
#1407=CARTESIAN_POINT('',(-4.33680868994202E-16,-2.99933715083475,1.37621824418311));
#1408=CARTESIAN_POINT('',(-2.45,-2.26729860643121,1.80812145846737));
#1409=CARTESIAN_POINT('',(-2.45,-2.58002570022576,2.05752427482439));
#1410=CARTESIAN_POINT('',(-2.45,-2.81001897170039,1.73025818266634));
#1411=CARTESIAN_POINT('',(-2.45,-2.31214001186506,2.35457184335763));
#1412=CARTESIAN_POINT('',(-2.45,0.,0.));
#1413=CARTESIAN_POINT('',(-2.45,0.,0.));
#1414=CARTESIAN_POINT('',(-2.8,-2.58002570022576,2.05752427482439));
#1415=CARTESIAN_POINT('',(-2.8,-2.58002570022576,2.05752427482439));
#1416=CARTESIAN_POINT('',(-2.8,-2.81001897170039,1.73025818266634));
#1417=CARTESIAN_POINT('',(-2.8,-2.31214001186506,2.35457184335763));
#1418=CARTESIAN_POINT('',(-2.625,-2.31214001186506,2.35457184335763));
#1419=CARTESIAN_POINT('',(-2.625,-2.81001897170039,1.73025818266634));
#1420=CARTESIAN_POINT('',(-2.8,-2.58002570022577,2.05752427482439));
#1421=CARTESIAN_POINT('',(-2.8,0.,0.));
#1422=CARTESIAN_POINT('',(-2.8,-3.2172500832794,-0.73436136112294));
#1423=CARTESIAN_POINT('',(2.5,-3.2172500832794,-0.73436136112294));
#1424=CARTESIAN_POINT('',(2.5,-3.10476781751012,-1.11822037155178));
#1425=CARTESIAN_POINT('',(2.5,-3.28246774528706,-0.339713851866574));
#1426=CARTESIAN_POINT('',(2.625,-3.10476781751012,-1.11822037155178));
#1427=CARTESIAN_POINT('',(2.45,-3.10476781751012,-1.11822037155178));
#1428=CARTESIAN_POINT('',(2.45,-3.2172500832794,-0.73436136112294));
#1429=CARTESIAN_POINT('',(2.45,-3.28246774528706,-0.339713851866574));
#1430=CARTESIAN_POINT('',(2.625,-3.28246774528706,-0.339713851866574));
#1431=CARTESIAN_POINT('',(2.45,-2.82728381788932,-0.645331524227036));
#1432=CARTESIAN_POINT('',(2.45,-3.2172500832794,-0.73436136112294));
#1433=CARTESIAN_POINT('',(2.45,-2.94599957625071,-1.48697225822494));
#1434=CARTESIAN_POINT('',(2.45,-3.29942862119991,0.0614066251049833));
#1435=CARTESIAN_POINT('',(2.45,0.,0.));
#1436=CARTESIAN_POINT('',(2.45,0.,0.));
#1437=CARTESIAN_POINT('',(-2.8,-3.2172500832794,-0.73436136112294));
#1438=CARTESIAN_POINT('',(-2.45,-3.2172500832794,-0.73436136112294));
#1439=CARTESIAN_POINT('',(-2.45,-2.94599957625071,-1.48697225822494));
#1440=CARTESIAN_POINT('',(-2.45,-3.29942862119991,0.0614066251049799));
#1441=CARTESIAN_POINT('',(0.,-3.29942862119991,0.0614066251049816));
#1442=CARTESIAN_POINT('',(0.,-2.94599957625071,-1.48697225822494));
#1443=CARTESIAN_POINT('',(-2.45,-2.82728381788932,-0.645331524227036));
#1444=CARTESIAN_POINT('',(-2.45,-3.2172500832794,-0.73436136112294));
#1445=CARTESIAN_POINT('',(-2.45,-3.10476781751012,-1.11822037155178));
#1446=CARTESIAN_POINT('',(-2.45,-3.28246774528706,-0.339713851866574));
#1447=CARTESIAN_POINT('',(-2.45,0.,0.));
#1448=CARTESIAN_POINT('',(-2.45,0.,0.));
#1449=CARTESIAN_POINT('',(-2.8,-3.2172500832794,-0.73436136112294));
#1450=CARTESIAN_POINT('',(-2.8,-3.2172500832794,-0.73436136112294));
#1451=CARTESIAN_POINT('',(-2.8,-3.10476781751012,-1.11822037155178));
#1452=CARTESIAN_POINT('',(-2.8,-3.28246774528706,-0.339713851866574));
#1453=CARTESIAN_POINT('',(-2.625,-3.28246774528706,-0.339713851866574));
#1454=CARTESIAN_POINT('',(-2.625,-3.10476781751012,-1.11822037155178));
#1455=CARTESIAN_POINT('',(-2.8,-3.2172500832794,-0.73436136112294));
#1456=CARTESIAN_POINT('',(-2.8,0.,0.));
#1457=CARTESIAN_POINT('',(-2.8,-1.43185306218482,-2.97317242926766));
#1458=CARTESIAN_POINT('',(2.5,-1.43185306218482,-2.97317242926766));
#1459=CARTESIAN_POINT('',(2.5,-1.06161403596665,-3.12457607342797));
#1460=CARTESIAN_POINT('',(2.5,-1.7810602692958,-2.77809724760238));
#1461=CARTESIAN_POINT('',(2.625,-1.06161403596665,-3.12457607342797));
#1462=CARTESIAN_POINT('',(2.45,-1.06161403596665,-3.12457607342797));
#1463=CARTESIAN_POINT('',(2.45,-1.43185306218482,-2.97317242926766));
#1464=CARTESIAN_POINT('',(2.45,-1.7810602692958,-2.77809724760238));
#1465=CARTESIAN_POINT('',(2.625,-1.7810602692958,-2.77809724760238));
#1466=CARTESIAN_POINT('',(2.45,-1.25827971158072,-2.61279444442388));
#1467=CARTESIAN_POINT('',(2.45,-1.43185306218482,-2.97317242926766));
#1468=CARTESIAN_POINT('',(2.45,-0.674324379770812,-3.23036942637319));
#1469=CARTESIAN_POINT('',(2.45,-2.10523769840149,-2.54125446054289));
#1470=CARTESIAN_POINT('',(2.45,0.,0.));
#1471=CARTESIAN_POINT('',(2.45,0.,0.));
#1472=CARTESIAN_POINT('',(-2.8,-1.43185306218482,-2.97317242926766));
#1473=CARTESIAN_POINT('',(-2.45,-1.43185306218482,-2.97317242926766));
#1474=CARTESIAN_POINT('',(-2.45,-0.674324379770815,-3.23036942637319));
#1475=CARTESIAN_POINT('',(-2.45,-2.10523769840149,-2.54125446054289));
#1476=CARTESIAN_POINT('',(8.67361737988404E-16,-2.10523769840149,-2.54125446054289));
#1477=CARTESIAN_POINT('',(8.67361737988403E-16,-0.674324379770814,-3.23036942637319));
#1478=CARTESIAN_POINT('',(-2.45,-1.25827971158072,-2.61279444442388));
#1479=CARTESIAN_POINT('',(-2.45,-1.43185306218482,-2.97317242926766));
#1480=CARTESIAN_POINT('',(-2.45,-1.06161403596665,-3.12457607342797));
#1481=CARTESIAN_POINT('',(-2.45,-1.7810602692958,-2.77809724760238));
#1482=CARTESIAN_POINT('',(-2.45,0.,0.));
#1483=CARTESIAN_POINT('',(-2.45,0.,0.));
#1484=CARTESIAN_POINT('',(-2.8,-1.43185306218482,-2.97317242926766));
#1485=CARTESIAN_POINT('',(-2.8,-1.43185306218482,-2.97317242926766));
#1486=CARTESIAN_POINT('',(-2.8,-1.06161403596665,-3.12457607342797));
#1487=CARTESIAN_POINT('',(-2.8,-1.7810602692958,-2.77809724760238));
#1488=CARTESIAN_POINT('',(-2.625,-1.7810602692958,-2.77809724760238));
#1489=CARTESIAN_POINT('',(-2.625,-1.06161403596665,-3.12457607342797));
#1490=CARTESIAN_POINT('',(-2.8,-1.43185306218482,-2.97317242926766));
#1491=CARTESIAN_POINT('',(-2.8,0.,0.));
#1492=CARTESIAN_POINT('',(-2.80000000000001,1.43185305397655,-2.97317243322057));
#1493=CARTESIAN_POINT('',(2.5,1.43185305397657,-2.97317243322066));
#1494=CARTESIAN_POINT('',(2.5,1.78106026162612,-2.77809725251947));
#1495=CARTESIAN_POINT('',(2.5,1.06161402734042,-3.12457607635884));
#1496=CARTESIAN_POINT('',(2.62499999999999,1.78106026162613,-2.77809725251947));
#1497=CARTESIAN_POINT('',(2.44999999999999,1.78106026162613,-2.77809725251947));
#1498=CARTESIAN_POINT('',(2.44999999999999,1.43185305397657,-2.97317243322066));
#1499=CARTESIAN_POINT('',(2.44999999999999,1.06161402734042,-3.12457607635884));
#1500=CARTESIAN_POINT('',(2.62499999999999,1.06161402734042,-3.12457607635884));
#1501=CARTESIAN_POINT('',(2.44999999999999,1.2582797043674,-2.61279444789768));
#1502=CARTESIAN_POINT('',(2.44999999999999,1.43185305397657,-2.97317243322066));
#1503=CARTESIAN_POINT('',(2.44999999999999,2.10523769138568,-2.54125446635496));
#1504=CARTESIAN_POINT('',(2.44999999999999,0.674324370852516,-3.23036942823484));
#1505=CARTESIAN_POINT('',(2.45000000000004,0.,0.));
#1506=CARTESIAN_POINT('',(2.45000000000004,0.,0.));
#1507=CARTESIAN_POINT('',(-2.80000000000001,1.43185305397655,-2.97317243322057));
#1508=CARTESIAN_POINT('',(-2.45000000000001,1.43185305397656,-2.97317243322058));
#1509=CARTESIAN_POINT('',(-2.45000000000001,2.1052376913857,-2.54125446635494));
#1510=CARTESIAN_POINT('',(-2.45000000000001,0.674324370852527,-3.23036942823484));
#1511=CARTESIAN_POINT('',(-1.43114686768087E-14,0.674324370852521,-3.23036942823484));
#1512=CARTESIAN_POINT('',(-8.67361737988404E-15,2.10523769138569,-2.54125446635495));
#1513=CARTESIAN_POINT('',(-2.45000000000001,1.25827970436738,-2.6127944478976));
#1514=CARTESIAN_POINT('',(-2.45000000000001,1.43185305397656,-2.97317243322058));
#1515=CARTESIAN_POINT('',(-2.45000000000001,1.78106026162614,-2.77809725251946));
#1516=CARTESIAN_POINT('',(-2.45000000000001,1.06161402734044,-3.12457607635883));
#1517=CARTESIAN_POINT('',(-2.44999999999996,0.,0.));
#1518=CARTESIAN_POINT('',(-2.44999999999996,0.,0.));
#1519=CARTESIAN_POINT('',(-2.80000000000001,1.43185305397655,-2.97317243322057));
#1520=CARTESIAN_POINT('',(-2.80000000000001,1.43185305397655,-2.97317243322057));
#1521=CARTESIAN_POINT('',(-2.80000000000001,1.78106026162615,-2.77809725251946));
#1522=CARTESIAN_POINT('',(-2.80000000000001,1.06161402734044,-3.12457607635883));
#1523=CARTESIAN_POINT('',(-2.62500000000001,1.06161402734044,-3.12457607635883));
#1524=CARTESIAN_POINT('',(-2.62500000000001,1.78106026162615,-2.77809725251946));
#1525=CARTESIAN_POINT('',(-2.80000000000001,1.43185305397655,-2.97317243322057));
#1526=CARTESIAN_POINT('',(-2.79999999999996,0.,0.));
#1527=CARTESIAN_POINT('',(-2.8,3.21725008125202,-0.734361370005052));
#1528=CARTESIAN_POINT('',(2.5,3.217250081252,-0.734361370005031));
#1529=CARTESIAN_POINT('',(2.5,3.28246774434919,-0.339713860928715));
#1530=CARTESIAN_POINT('',(2.5,3.10476781442297,-1.11822038012333));
#1531=CARTESIAN_POINT('',(2.625,3.28246774434919,-0.339713860928715));
#1532=CARTESIAN_POINT('',(2.45,3.28246774434919,-0.339713860928715));
#1533=CARTESIAN_POINT('',(2.45,3.217250081252,-0.734361370005031));
#1534=CARTESIAN_POINT('',(2.45,3.10476781442297,-1.11822038012333));
#1535=CARTESIAN_POINT('',(2.625,3.10476781442297,-1.11822038012333));
#1536=CARTESIAN_POINT('',(2.45,2.82728381610771,-0.645331532032519));
#1537=CARTESIAN_POINT('',(2.45,3.217250081252,-0.734361370005031));
#1538=CARTESIAN_POINT('',(2.45,3.29942862136944,0.061406615996016));
#1539=CARTESIAN_POINT('',(2.45000000000001,2.94599957214552,-1.48697226635817));
#1540=CARTESIAN_POINT('',(2.44999999999999,0.,0.));
#1541=CARTESIAN_POINT('',(2.44999999999999,0.,0.));
#1542=CARTESIAN_POINT('',(-2.8,3.21725008125202,-0.734361370005052));
#1543=CARTESIAN_POINT('',(-2.45,3.21725008125202,-0.73436137000505));
#1544=CARTESIAN_POINT('',(-2.45,3.29942862136944,0.0614066159959951));
#1545=CARTESIAN_POINT('',(-2.44999999999999,2.94599957214552,-1.48697226635818));
#1546=CARTESIAN_POINT('',(5.63785129692462E-15,2.94599957214552,-1.48697226635817));
#1547=CARTESIAN_POINT('',(8.67361737988404E-16,3.29942862136944,0.0614066159960055));
#1548=CARTESIAN_POINT('',(-2.45,2.82728381610772,-0.645331532032538));
#1549=CARTESIAN_POINT('',(-2.45,3.21725008125202,-0.73436137000505));
#1550=CARTESIAN_POINT('',(-2.45,3.28246774434919,-0.339713860928733));
#1551=CARTESIAN_POINT('',(-2.44999999999999,3.10476781442296,-1.11822038012334));
#1552=CARTESIAN_POINT('',(-2.45000000000001,0.,0.));
#1553=CARTESIAN_POINT('',(-2.45000000000001,0.,0.));
#1554=CARTESIAN_POINT('',(-2.8,3.21725008125202,-0.734361370005052));
#1555=CARTESIAN_POINT('',(-2.8,3.21725008125202,-0.734361370005052));
#1556=CARTESIAN_POINT('',(-2.8,3.28246774434919,-0.339713860928734));
#1557=CARTESIAN_POINT('',(-2.8,3.10476781442296,-1.11822038012335));
#1558=CARTESIAN_POINT('',(-2.625,3.10476781442296,-1.11822038012334));
#1559=CARTESIAN_POINT('',(-2.625,3.28246774434919,-0.339713860928733));
#1560=CARTESIAN_POINT('',(-2.8,3.21725008125202,-0.734361370005052));
#1561=CARTESIAN_POINT('',(-2.80000000000001,0.,0.));
#1562=CARTESIAN_POINT('',(-2.8,2.58002570590609,2.05752426770155));
#1563=CARTESIAN_POINT('',(2.5,2.58002570590611,2.05752426770154));
#1564=CARTESIAN_POINT('',(2.5,2.31214001836549,2.35457183697435));
#1565=CARTESIAN_POINT('',(2.5,2.81001897647723,1.73025817490853));
#1566=CARTESIAN_POINT('',(2.625,2.31214001836549,2.35457183697435));
#1567=CARTESIAN_POINT('',(2.45,2.31214001836549,2.35457183697435));
#1568=CARTESIAN_POINT('',(2.45,2.58002570590611,2.05752426770154));
#1569=CARTESIAN_POINT('',(2.45,2.81001897647723,1.73025817490853));
#1570=CARTESIAN_POINT('',(2.625,2.81001897647723,1.73025817490853));
#1571=CARTESIAN_POINT('',(2.45,2.26729861142302,1.80812145220789));
#1572=CARTESIAN_POINT('',(2.45,2.58002570590611,2.05752426770154));
#1573=CARTESIAN_POINT('',(2.45,2.00910105934279,2.61792149105881));
#1574=CARTESIAN_POINT('',(2.44999999999999,2.99933715463417,1.37621823590263));
#1575=CARTESIAN_POINT('',(2.45000000000001,0.,0.));
#1576=CARTESIAN_POINT('',(2.45000000000001,0.,0.));
#1577=CARTESIAN_POINT('',(-2.8,2.58002570590609,2.05752426770155));
#1578=CARTESIAN_POINT('',(-2.45,2.58002570590609,2.05752426770155));
#1579=CARTESIAN_POINT('',(-2.45,2.00910105934278,2.61792149105883));
#1580=CARTESIAN_POINT('',(-2.45000000000001,2.99933715463416,1.37621823590265));
#1581=CARTESIAN_POINT('',(-5.63785129692462E-15,2.99933715463416,1.37621823590264));
#1582=CARTESIAN_POINT('',(1.73472347597681E-15,2.00910105934279,2.61792149105882));
#1583=CARTESIAN_POINT('',(-2.45,2.26729861142299,1.8081214522079));
#1584=CARTESIAN_POINT('',(-2.45,2.58002570590609,2.05752426770155));
#1585=CARTESIAN_POINT('',(-2.45,2.31214001836547,2.35457183697437));
#1586=CARTESIAN_POINT('',(-2.45,2.81001897647722,1.73025817490855));
#1587=CARTESIAN_POINT('',(-2.44999999999999,0.,0.));
#1588=CARTESIAN_POINT('',(-2.44999999999999,0.,0.));
#1589=CARTESIAN_POINT('',(-2.8,2.58002570590609,2.05752426770155));
#1590=CARTESIAN_POINT('',(-2.8,2.58002570590609,2.05752426770155));
#1591=CARTESIAN_POINT('',(-2.8,2.31214001836547,2.35457183697437));
#1592=CARTESIAN_POINT('',(-2.8,2.81001897647722,1.73025817490855));
#1593=CARTESIAN_POINT('',(-2.625,2.81001897647722,1.73025817490855));
#1594=CARTESIAN_POINT('',(-2.625,2.31214001836547,2.35457183697437));
#1595=CARTESIAN_POINT('',(-2.8,2.58002570590609,2.05752426770155));
#1596=CARTESIAN_POINT('',(-2.79999999999999,0.,0.));
#1597=CARTESIAN_POINT('',(-3.5,0.,4.49999999999999));
#1598=CARTESIAN_POINT('',(-3.5,0.,0.));
#1599=CARTESIAN_POINT('',(-3.5,0.,4.09999999999999));
#1600=CARTESIAN_POINT('',(-3.5,0.,0.));
#1601=CARTESIAN_POINT('',(-3.5,0.,2.49999999999999));
#1602=CARTESIAN_POINT('',(0.,0.,0.));
#1603=CARTESIAN_POINT('',(-3.1,0.,0.));
#1604=CARTESIAN_POINT('',(-3.1,0.,4.49999999999999));
#1605=CARTESIAN_POINT('',(3.1,0.,0.));
#1606=CARTESIAN_POINT('',(3.1,0.,-4.49999999999999));
#1607=CARTESIAN_POINT('',(3.5,0.,4.49999999999999));
#1608=CARTESIAN_POINT('',(3.5,0.,0.));
#1609=CARTESIAN_POINT('',(3.5,0.,-4.09999999999999));
#1610=CARTESIAN_POINT('',(0.,0.,0.));
#1611=CARTESIAN_POINT('',(2.5,0.,0.));
#1612=CARTESIAN_POINT('',(2.5,0.39926470526062,3.27575757575757));
#1613=CARTESIAN_POINT('',(2.625,0.39926470526062,3.27575757575757));
#1614=CARTESIAN_POINT('',(2.45,0.39926470526062,3.27575757575757));
#1615=CARTESIAN_POINT('',(2.45,0.,0.));
#1616=CARTESIAN_POINT('',(2.45,0.794101302019837,3.2030303030303));
#1617=CARTESIAN_POINT('',(1.50192508742578E-17,0.794101302019837,3.2030303030303));
#1618=CARTESIAN_POINT('',(-2.45,0.794101302019835,3.2030303030303));
#1619=CARTESIAN_POINT('',(-2.45,0.,0.));
#1620=CARTESIAN_POINT('',(-2.45,0.399264705260619,3.27575757575757));
#1621=CARTESIAN_POINT('',(-2.625,0.399264705260619,3.27575757575757));
#1622=CARTESIAN_POINT('',(-2.8,0.399264705260619,3.27575757575757));
#1623=CARTESIAN_POINT('',(-2.8,0.,0.));
#1624=CARTESIAN_POINT('',(-2.8,-0.399264705260619,3.27575757575757));
#1625=CARTESIAN_POINT('',(-2.625,-0.399264705260619,3.27575757575757));
#1626=CARTESIAN_POINT('',(-2.45,-0.399264705260619,3.27575757575757));
#1627=CARTESIAN_POINT('',(-2.45,0.,0.));
#1628=CARTESIAN_POINT('',(-2.45,-0.794101302019835,3.2030303030303));
#1629=CARTESIAN_POINT('',(1.50192508742578E-17,-0.794101302019837,3.2030303030303));
#1630=CARTESIAN_POINT('',(2.45,-0.794101302019837,3.2030303030303));
#1631=CARTESIAN_POINT('',(2.45,0.,0.));
#1632=CARTESIAN_POINT('',(2.45,-0.39926470526062,3.27575757575757));
#1633=CARTESIAN_POINT('',(2.625,-0.39926470526062,3.27575757575757));
#1634=CARTESIAN_POINT('',(2.5,-0.39926470526062,3.27575757575757));
#1635=CARTESIAN_POINT('',(2.5,0.,0.));
#1636=CARTESIAN_POINT('',(2.5,0.,0.));
#1637=CARTESIAN_POINT('',(2.5,0.,0.));
#1638=CARTESIAN_POINT('',(2.5,0.,0.));
#1639=CARTESIAN_POINT('',(2.5,0.,0.));
#1640=CARTESIAN_POINT('',(2.5,0.,0.));
#1641=CARTESIAN_POINT('',(-3.15,0.,0.));
#1642=CARTESIAN_POINT('',(-3.15,0.,3.29999999999999));
#1643=CARTESIAN_POINT('',(-3.15,0.,3.29999999999999));
#1644=CARTESIAN_POINT('',(-3.15,0.,0.));
#1645=CARTESIAN_POINT('',(-3.15,0.,2.49999999999999));
#1646=CARTESIAN_POINT('',(0.,0.,0.));
#1647=CARTESIAN_POINT('',(-2.8,0.,3.29999999999999));
#1648=CARTESIAN_POINT('',(2.5,0.,3.29999999999999));
#1649=CARTESIAN_POINT('',(2.45,0.,3.29999999999999));
#1650=CARTESIAN_POINT('',(2.45,0.,2.89999999999999));
#1651=CARTESIAN_POINT('',(2.45,0.,3.29999999999999));
#1652=CARTESIAN_POINT('',(-2.8,0.,3.29999999999999));
#1653=CARTESIAN_POINT('',(-2.45,0.,3.29999999999999));
#1654=CARTESIAN_POINT('',(-2.45,0.,2.89999999999999));
#1655=CARTESIAN_POINT('',(-2.45,0.,3.29999999999999));
#1656=CARTESIAN_POINT('',(-2.8,0.,3.29999999999999));
#1657=CARTESIAN_POINT('',(-2.8,0.,3.29999999999999));
#1658=CARTESIAN_POINT('',(-2.8,0.,3.29999999999999));
#1659=CARTESIAN_POINT('',(2.5,0.,0.));
#1660=CARTESIAN_POINT('',(3.1,0.,0.));
#1661=CARTESIAN_POINT('',(-3.1,0.,0.));
#1662=MECHANICAL_DESIGN_GEOMETRIC_PRESENTATION_REPRESENTATION('',(#904),
#1663);
#1663=(
GEOMETRIC_REPRESENTATION_CONTEXT(3)
GLOBAL_UNCERTAINTY_ASSIGNED_CONTEXT((#1664))
GLOBAL_UNIT_ASSIGNED_CONTEXT((#1667,#1666,#1665))
REPRESENTATION_CONTEXT(
'\X2\51B2538B591657086EE188C56EDA94888F74627F5C0153E3578B\X0\ GBT12764
-2019','TOP_LEVEL_ASSEMBLY_PART')
);
#1664=UNCERTAINTY_MEASURE_WITH_UNIT(LENGTH_MEASURE(0.005),#1667,
'DISTANCE_ACCURACY_VALUE','Maximum Tolerance applied to model');
#1665=(
NAMED_UNIT(*)
SI_UNIT($,.STERADIAN.)
SOLID_ANGLE_UNIT()
);
#1666=(
NAMED_UNIT(*)
PLANE_ANGLE_UNIT()
SI_UNIT($,.RADIAN.)
);
#1667=(
LENGTH_UNIT()
NAMED_UNIT(*)
SI_UNIT(.MILLI.,.METRE.)
);
#1668=PRODUCT_DEFINITION_SHAPE('','',#1669);
#1669=PRODUCT_DEFINITION('','',#1671,#1670);
#1670=PRODUCT_DEFINITION_CONTEXT('',#1677,'design');
#1671=PRODUCT_DEFINITION_FORMATION_WITH_SPECIFIED_SOURCE('','',#1673,
 .NOT_KNOWN.);
#1672=PRODUCT_RELATED_PRODUCT_CATEGORY('','',(#1673));
#1673=PRODUCT('\X2\51B2538B591657086EE188C56EDA94888F74627F5C0153E3578B\X0\ 
GBT12764-2019','\X2\51B2538B591657086EE188C56EDA94888F74627F5C0153E3578B\X0\ 
GBT12764-2019','\X2\51B2538B591657086EE188C56EDA94888F74627F5C0153E3578B\X0\ 
GBT12764-2019',(#1675));
#1674=PRODUCT_CATEGORY('','');
#1675=PRODUCT_CONTEXT('',#1677,'mechanical');
#1676=APPLICATION_PROTOCOL_DEFINITION('international standard',
'automotive_design',2010,#1677);
#1677=APPLICATION_CONTEXT(
'core data for automotive mechanical design processes');
ENDSEC;
END-ISO-10303-21;
