ISO-10303-21;
HEADER;
/* Generated by software containing HOOPS Exchange Step
 * from HOOPS Exchange, Inc. (www.tiangong.cloud) 
 */

FILE_DESCRIPTION(
/* description */ ('Unknown'),
/* implementation_level */ '2;1');

FILE_NAME(
/* name */ '\X2\6DF16C9F74038F74627F\X0\60000-RS\X2\578B\X0\',
/* time_stamp */ '2025-06-23T03:17:12+08:00',
/* author */ ('Unknown'),
/* organization */ ('Unknown'),
/* preprocessor_version */ 'ST-DEVELOPER v19.4',
/* originating_system */ 'TianGong',
/* authorisation */ 'Unknown');

FILE_SCHEMA (('AUTOMOTIVE_DESIGN {1 0 10303 214 3 1 1}'));
ENDSEC;

DATA;
#10=PROPERTY_DEFINITION_REPRESENTATION(#14,#12);
#11=PROPERTY_DEFINITION_REPRESENTATION(#15,#13);
#12=REPRESENTATION('',(#16),#965);
#13=REPRESENTATION('',(#17),#965);
#14=PROPERTY_DEFINITION('pmi validation property','',#970);
#15=PROPERTY_DEFINITION('pmi validation property','',#970);
#16=VALUE_REPRESENTATION_ITEM('number of annotations',COUNT_MEASURE(0.));
#17=VALUE_REPRESENTATION_ITEM('number of views',COUNT_MEASURE(0.));
#18=TOROIDAL_SURFACE('',#627,8.,1.66666666666667);
#19=TOROIDAL_SURFACE('',#636,5.3,0.3);
#20=TOROIDAL_SURFACE('',#637,5.3,0.3);
#21=TOROIDAL_SURFACE('',#659,8.,1.66666666666667);
#22=TOROIDAL_SURFACE('',#660,10.7,0.3);
#23=VERTEX_LOOP('',#186);
#24=VERTEX_LOOP('',#187);
#25=VERTEX_LOOP('',#188);
#26=VERTEX_LOOP('',#189);
#27=VERTEX_LOOP('',#190);
#28=VERTEX_LOOP('',#191);
#29=VERTEX_LOOP('',#192);
#30=VERTEX_LOOP('',#193);
#31=VERTEX_LOOP('',#194);
#32=VERTEX_LOOP('',#195);
#33=SPHERICAL_SURFACE('',#609,1.66566666666667);
#34=SPHERICAL_SURFACE('',#610,1.66566666666667);
#35=SPHERICAL_SURFACE('',#611,1.66566666666667);
#36=SPHERICAL_SURFACE('',#612,1.66566666666667);
#37=SPHERICAL_SURFACE('',#613,1.66566666666667);
#38=SPHERICAL_SURFACE('',#614,1.66566666666667);
#39=SPHERICAL_SURFACE('',#615,1.66566666666667);
#40=SPHERICAL_SURFACE('',#616,1.66566666666667);
#41=SPHERICAL_SURFACE('',#617,1.66566666666667);
#42=SPHERICAL_SURFACE('',#618,1.66566666666667);
#43=SHAPE_REPRESENTATION_RELATIONSHIP('','',#585,#44);
#44=ADVANCED_BREP_SHAPE_REPRESENTATION('',(#571,#572,#573,#574,#575,#576,
#577,#578,#579,#580,#581,#582,#583),#965);
#45=CONICAL_SURFACE('',#592,6.625,0.751066517945602);
#46=CONICAL_SURFACE('',#596,8.925,1.32581766366803);
#47=CONICAL_SURFACE('',#606,7.375,0.605499257398379);
#48=CONICAL_SURFACE('',#638,6.25,1.32581766366803);
#49=CONICAL_SURFACE('',#640,7.,1.32581766366803);
#50=CONICAL_SURFACE('',#661,9.,1.32581766366803);
#51=CONICAL_SURFACE('',#665,9.75,1.32581766366803);
#52=CYLINDRICAL_SURFACE('',#590,6.625);
#53=CYLINDRICAL_SURFACE('',#598,9.749);
#54=CYLINDRICAL_SURFACE('',#602,8.925);
#55=CYLINDRICAL_SURFACE('',#608,7.);
#56=CYLINDRICAL_SURFACE('',#619,7.);
#57=CYLINDRICAL_SURFACE('',#624,7.);
#58=CYLINDRICAL_SURFACE('',#629,7.);
#59=CYLINDRICAL_SURFACE('',#633,5.);
#60=CYLINDRICAL_SURFACE('',#642,6.25);
#61=CYLINDRICAL_SURFACE('',#643,11.);
#62=CYLINDRICAL_SURFACE('',#646,9.);
#63=CYLINDRICAL_SURFACE('',#649,9.);
#64=CYLINDRICAL_SURFACE('',#657,9.);
#65=CYLINDRICAL_SURFACE('',#663,9.75);
#66=CYLINDRICAL_SURFACE('',#668,12.5);
#67=ORIENTED_EDGE('',*,*,#139,.F.);
#68=ORIENTED_EDGE('',*,*,#140,.T.);
#69=ORIENTED_EDGE('',*,*,#141,.F.);
#70=ORIENTED_EDGE('',*,*,#139,.T.);
#71=ORIENTED_EDGE('',*,*,#142,.F.);
#72=ORIENTED_EDGE('',*,*,#141,.T.);
#73=ORIENTED_EDGE('',*,*,#143,.F.);
#74=ORIENTED_EDGE('',*,*,#142,.T.);
#75=ORIENTED_EDGE('',*,*,#144,.F.);
#76=ORIENTED_EDGE('',*,*,#143,.T.);
#77=ORIENTED_EDGE('',*,*,#145,.F.);
#78=ORIENTED_EDGE('',*,*,#144,.T.);
#79=ORIENTED_EDGE('',*,*,#146,.F.);
#80=ORIENTED_EDGE('',*,*,#145,.T.);
#81=ORIENTED_EDGE('',*,*,#147,.F.);
#82=ORIENTED_EDGE('',*,*,#146,.T.);
#83=ORIENTED_EDGE('',*,*,#148,.F.);
#84=ORIENTED_EDGE('',*,*,#147,.T.);
#85=ORIENTED_EDGE('',*,*,#149,.F.);
#86=ORIENTED_EDGE('',*,*,#148,.T.);
#87=ORIENTED_EDGE('',*,*,#140,.F.);
#88=ORIENTED_EDGE('',*,*,#149,.T.);
#89=ORIENTED_EDGE('',*,*,#150,.F.);
#90=ORIENTED_EDGE('',*,*,#151,.T.);
#91=ORIENTED_EDGE('',*,*,#152,.T.);
#92=ORIENTED_EDGE('',*,*,#151,.F.);
#93=ORIENTED_EDGE('',*,*,#153,.T.);
#94=ORIENTED_EDGE('',*,*,#154,.F.);
#95=ORIENTED_EDGE('',*,*,#155,.F.);
#96=ORIENTED_EDGE('',*,*,#154,.T.);
#97=ORIENTED_EDGE('',*,*,#156,.F.);
#98=ORIENTED_EDGE('',*,*,#155,.T.);
#99=ORIENTED_EDGE('',*,*,#157,.T.);
#100=ORIENTED_EDGE('',*,*,#156,.T.);
#101=ORIENTED_EDGE('',*,*,#158,.T.);
#102=ORIENTED_EDGE('',*,*,#159,.T.);
#103=ORIENTED_EDGE('',*,*,#159,.F.);
#104=ORIENTED_EDGE('',*,*,#152,.F.);
#105=ORIENTED_EDGE('',*,*,#157,.F.);
#106=ORIENTED_EDGE('',*,*,#158,.F.);
#107=ORIENTED_EDGE('',*,*,#153,.F.);
#108=ORIENTED_EDGE('',*,*,#160,.T.);
#109=ORIENTED_EDGE('',*,*,#161,.F.);
#110=ORIENTED_EDGE('',*,*,#150,.T.);
#111=ORIENTED_EDGE('',*,*,#160,.F.);
#112=ORIENTED_EDGE('',*,*,#161,.T.);
#113=ORIENTED_EDGE('',*,*,#162,.T.);
#114=ORIENTED_EDGE('',*,*,#163,.F.);
#115=ORIENTED_EDGE('',*,*,#164,.F.);
#116=ORIENTED_EDGE('',*,*,#165,.T.);
#117=ORIENTED_EDGE('',*,*,#166,.T.);
#118=ORIENTED_EDGE('',*,*,#167,.F.);
#119=ORIENTED_EDGE('',*,*,#168,.F.);
#120=ORIENTED_EDGE('',*,*,#164,.T.);
#121=ORIENTED_EDGE('',*,*,#169,.T.);
#122=ORIENTED_EDGE('',*,*,#170,.F.);
#123=ORIENTED_EDGE('',*,*,#171,.F.);
#124=ORIENTED_EDGE('',*,*,#170,.T.);
#125=ORIENTED_EDGE('',*,*,#166,.F.);
#126=ORIENTED_EDGE('',*,*,#171,.T.);
#127=ORIENTED_EDGE('',*,*,#162,.F.);
#128=ORIENTED_EDGE('',*,*,#169,.F.);
#129=ORIENTED_EDGE('',*,*,#172,.T.);
#130=ORIENTED_EDGE('',*,*,#165,.F.);
#131=ORIENTED_EDGE('',*,*,#173,.T.);
#132=ORIENTED_EDGE('',*,*,#172,.F.);
#133=ORIENTED_EDGE('',*,*,#167,.T.);
#134=ORIENTED_EDGE('',*,*,#173,.F.);
#135=ORIENTED_EDGE('',*,*,#163,.T.);
#136=ORIENTED_EDGE('',*,*,#174,.T.);
#137=ORIENTED_EDGE('',*,*,#174,.F.);
#138=ORIENTED_EDGE('',*,*,#168,.T.);
#139=EDGE_CURVE('',#175,#175,#221,.T.);
#140=EDGE_CURVE('',#176,#176,#222,.T.);
#141=EDGE_CURVE('',#177,#177,#223,.T.);
#142=EDGE_CURVE('',#178,#178,#224,.T.);
#143=EDGE_CURVE('',#179,#179,#225,.T.);
#144=EDGE_CURVE('',#180,#180,#226,.T.);
#145=EDGE_CURVE('',#181,#181,#227,.T.);
#146=EDGE_CURVE('',#182,#182,#228,.T.);
#147=EDGE_CURVE('',#183,#183,#229,.T.);
#148=EDGE_CURVE('',#184,#184,#230,.T.);
#149=EDGE_CURVE('',#185,#185,#231,.T.);
#150=EDGE_CURVE('',#196,#196,#232,.T.);
#151=EDGE_CURVE('',#197,#197,#233,.T.);
#152=EDGE_CURVE('',#198,#198,#234,.T.);
#153=EDGE_CURVE('',#199,#199,#235,.T.);
#154=EDGE_CURVE('',#200,#200,#236,.T.);
#155=EDGE_CURVE('',#201,#201,#237,.T.);
#156=EDGE_CURVE('',#202,#202,#238,.T.);
#157=EDGE_CURVE('',#203,#203,#239,.T.);
#158=EDGE_CURVE('',#204,#204,#240,.F.);
#159=EDGE_CURVE('',#205,#205,#241,.F.);
#160=EDGE_CURVE('',#206,#206,#242,.T.);
#161=EDGE_CURVE('',#207,#207,#243,.T.);
#162=EDGE_CURVE('',#208,#208,#244,.T.);
#163=EDGE_CURVE('',#209,#209,#245,.T.);
#164=EDGE_CURVE('',#210,#210,#246,.T.);
#165=EDGE_CURVE('',#211,#211,#247,.T.);
#166=EDGE_CURVE('',#212,#212,#248,.T.);
#167=EDGE_CURVE('',#213,#213,#249,.T.);
#168=EDGE_CURVE('',#214,#214,#250,.T.);
#169=EDGE_CURVE('',#215,#215,#251,.F.);
#170=EDGE_CURVE('',#216,#216,#252,.T.);
#171=EDGE_CURVE('',#217,#217,#253,.T.);
#172=EDGE_CURVE('',#218,#218,#254,.T.);
#173=EDGE_CURVE('',#219,#219,#255,.T.);
#174=EDGE_CURVE('',#220,#220,#256,.T.);
#175=VERTEX_POINT('',#838);
#176=VERTEX_POINT('',#840);
#177=VERTEX_POINT('',#843);
#178=VERTEX_POINT('',#846);
#179=VERTEX_POINT('',#849);
#180=VERTEX_POINT('',#852);
#181=VERTEX_POINT('',#855);
#182=VERTEX_POINT('',#858);
#183=VERTEX_POINT('',#861);
#184=VERTEX_POINT('',#864);
#185=VERTEX_POINT('',#867);
#186=VERTEX_POINT('',#870);
#187=VERTEX_POINT('',#872);
#188=VERTEX_POINT('',#874);
#189=VERTEX_POINT('',#876);
#190=VERTEX_POINT('',#878);
#191=VERTEX_POINT('',#880);
#192=VERTEX_POINT('',#882);
#193=VERTEX_POINT('',#884);
#194=VERTEX_POINT('',#886);
#195=VERTEX_POINT('',#888);
#196=VERTEX_POINT('',#891);
#197=VERTEX_POINT('',#893);
#198=VERTEX_POINT('',#896);
#199=VERTEX_POINT('',#899);
#200=VERTEX_POINT('',#901);
#201=VERTEX_POINT('',#904);
#202=VERTEX_POINT('',#907);
#203=VERTEX_POINT('',#910);
#204=VERTEX_POINT('',#913);
#205=VERTEX_POINT('',#915);
#206=VERTEX_POINT('',#920);
#207=VERTEX_POINT('',#923);
#208=VERTEX_POINT('',#927);
#209=VERTEX_POINT('',#929);
#210=VERTEX_POINT('',#932);
#211=VERTEX_POINT('',#934);
#212=VERTEX_POINT('',#937);
#213=VERTEX_POINT('',#939);
#214=VERTEX_POINT('',#942);
#215=VERTEX_POINT('',#945);
#216=VERTEX_POINT('',#947);
#217=VERTEX_POINT('',#950);
#218=VERTEX_POINT('',#955);
#219=VERTEX_POINT('',#958);
#220=VERTEX_POINT('',#962);
#221=CIRCLE('',#588,6.625);
#222=CIRCLE('',#589,7.);
#223=CIRCLE('',#591,6.625);
#224=CIRCLE('',#593,7.01791056105338);
#225=CIRCLE('',#595,8.925);
#226=CIRCLE('',#597,9.749);
#227=CIRCLE('',#599,9.749);
#228=CIRCLE('',#601,8.925);
#229=CIRCLE('',#603,8.925);
#230=CIRCLE('',#605,7.375);
#231=CIRCLE('',#607,7.);
#232=CIRCLE('',#620,7.);
#233=CIRCLE('',#621,7.);
#234=CIRCLE('',#623,5.3);
#235=CIRCLE('',#625,7.);
#236=CIRCLE('',#626,7.);
#237=CIRCLE('',#628,7.);
#238=CIRCLE('',#630,7.);
#239=CIRCLE('',#632,5.3);
#240=CIRCLE('',#634,5.);
#241=CIRCLE('',#635,5.);
#242=CIRCLE('',#639,6.25);
#243=CIRCLE('',#641,6.25);
#244=CIRCLE('',#644,11.);
#245=CIRCLE('',#645,11.);
#246=CIRCLE('',#647,9.);
#247=CIRCLE('',#648,9.);
#248=CIRCLE('',#650,9.);
#249=CIRCLE('',#651,9.);
#250=CIRCLE('',#653,12.5);
#251=CIRCLE('',#655,10.7);
#252=CIRCLE('',#656,9.);
#253=CIRCLE('',#658,9.);
#254=CIRCLE('',#662,9.75);
#255=CIRCLE('',#664,9.75);
#256=CIRCLE('',#667,12.5);
#257=EDGE_LOOP('',(#67));
#258=EDGE_LOOP('',(#68));
#259=EDGE_LOOP('',(#69));
#260=EDGE_LOOP('',(#70));
#261=EDGE_LOOP('',(#71));
#262=EDGE_LOOP('',(#72));
#263=EDGE_LOOP('',(#73));
#264=EDGE_LOOP('',(#74));
#265=EDGE_LOOP('',(#75));
#266=EDGE_LOOP('',(#76));
#267=EDGE_LOOP('',(#77));
#268=EDGE_LOOP('',(#78));
#269=EDGE_LOOP('',(#79));
#270=EDGE_LOOP('',(#80));
#271=EDGE_LOOP('',(#81));
#272=EDGE_LOOP('',(#82));
#273=EDGE_LOOP('',(#83));
#274=EDGE_LOOP('',(#84));
#275=EDGE_LOOP('',(#85));
#276=EDGE_LOOP('',(#86));
#277=EDGE_LOOP('',(#87));
#278=EDGE_LOOP('',(#88));
#279=EDGE_LOOP('',(#89));
#280=EDGE_LOOP('',(#90));
#281=EDGE_LOOP('',(#91));
#282=EDGE_LOOP('',(#92));
#283=EDGE_LOOP('',(#93));
#284=EDGE_LOOP('',(#94));
#285=EDGE_LOOP('',(#95));
#286=EDGE_LOOP('',(#96));
#287=EDGE_LOOP('',(#97));
#288=EDGE_LOOP('',(#98));
#289=EDGE_LOOP('',(#99));
#290=EDGE_LOOP('',(#100));
#291=EDGE_LOOP('',(#101));
#292=EDGE_LOOP('',(#102));
#293=EDGE_LOOP('',(#103));
#294=EDGE_LOOP('',(#104));
#295=EDGE_LOOP('',(#105));
#296=EDGE_LOOP('',(#106));
#297=EDGE_LOOP('',(#107));
#298=EDGE_LOOP('',(#108));
#299=EDGE_LOOP('',(#109));
#300=EDGE_LOOP('',(#110));
#301=EDGE_LOOP('',(#111));
#302=EDGE_LOOP('',(#112));
#303=EDGE_LOOP('',(#113));
#304=EDGE_LOOP('',(#114));
#305=EDGE_LOOP('',(#115));
#306=EDGE_LOOP('',(#116));
#307=EDGE_LOOP('',(#117));
#308=EDGE_LOOP('',(#118));
#309=EDGE_LOOP('',(#119));
#310=EDGE_LOOP('',(#120));
#311=EDGE_LOOP('',(#121));
#312=EDGE_LOOP('',(#122));
#313=EDGE_LOOP('',(#123));
#314=EDGE_LOOP('',(#124));
#315=EDGE_LOOP('',(#125));
#316=EDGE_LOOP('',(#126));
#317=EDGE_LOOP('',(#127));
#318=EDGE_LOOP('',(#128));
#319=EDGE_LOOP('',(#129));
#320=EDGE_LOOP('',(#130));
#321=EDGE_LOOP('',(#131));
#322=EDGE_LOOP('',(#132));
#323=EDGE_LOOP('',(#133));
#324=EDGE_LOOP('',(#134));
#325=EDGE_LOOP('',(#135));
#326=EDGE_LOOP('',(#136));
#327=EDGE_LOOP('',(#137));
#328=EDGE_LOOP('',(#138));
#329=FACE_BOUND('',#257,.T.);
#330=FACE_BOUND('',#258,.T.);
#331=FACE_BOUND('',#259,.T.);
#332=FACE_BOUND('',#260,.T.);
#333=FACE_BOUND('',#261,.T.);
#334=FACE_BOUND('',#262,.T.);
#335=FACE_BOUND('',#263,.T.);
#336=FACE_BOUND('',#264,.T.);
#337=FACE_BOUND('',#265,.T.);
#338=FACE_BOUND('',#266,.T.);
#339=FACE_BOUND('',#267,.T.);
#340=FACE_BOUND('',#268,.T.);
#341=FACE_BOUND('',#269,.T.);
#342=FACE_BOUND('',#270,.T.);
#343=FACE_BOUND('',#271,.T.);
#344=FACE_BOUND('',#272,.T.);
#345=FACE_BOUND('',#273,.T.);
#346=FACE_BOUND('',#274,.T.);
#347=FACE_BOUND('',#275,.T.);
#348=FACE_BOUND('',#276,.T.);
#349=FACE_BOUND('',#277,.T.);
#350=FACE_BOUND('',#278,.T.);
#351=FACE_BOUND('',#23,.T.);
#352=FACE_BOUND('',#24,.T.);
#353=FACE_BOUND('',#25,.T.);
#354=FACE_BOUND('',#26,.T.);
#355=FACE_BOUND('',#27,.T.);
#356=FACE_BOUND('',#28,.T.);
#357=FACE_BOUND('',#29,.T.);
#358=FACE_BOUND('',#30,.T.);
#359=FACE_BOUND('',#31,.T.);
#360=FACE_BOUND('',#32,.T.);
#361=FACE_BOUND('',#279,.T.);
#362=FACE_BOUND('',#280,.T.);
#363=FACE_BOUND('',#281,.T.);
#364=FACE_BOUND('',#282,.T.);
#365=FACE_BOUND('',#283,.T.);
#366=FACE_BOUND('',#284,.T.);
#367=FACE_BOUND('',#285,.T.);
#368=FACE_BOUND('',#286,.T.);
#369=FACE_BOUND('',#287,.T.);
#370=FACE_BOUND('',#288,.T.);
#371=FACE_BOUND('',#289,.T.);
#372=FACE_BOUND('',#290,.T.);
#373=FACE_BOUND('',#291,.T.);
#374=FACE_BOUND('',#292,.T.);
#375=FACE_BOUND('',#293,.T.);
#376=FACE_BOUND('',#294,.T.);
#377=FACE_BOUND('',#295,.T.);
#378=FACE_BOUND('',#296,.T.);
#379=FACE_BOUND('',#297,.T.);
#380=FACE_BOUND('',#298,.T.);
#381=FACE_BOUND('',#299,.T.);
#382=FACE_BOUND('',#300,.T.);
#383=FACE_BOUND('',#301,.T.);
#384=FACE_BOUND('',#302,.T.);
#385=FACE_BOUND('',#303,.T.);
#386=FACE_BOUND('',#304,.T.);
#387=FACE_BOUND('',#305,.T.);
#388=FACE_BOUND('',#306,.T.);
#389=FACE_BOUND('',#307,.T.);
#390=FACE_BOUND('',#308,.T.);
#391=FACE_BOUND('',#309,.T.);
#392=FACE_BOUND('',#310,.T.);
#393=FACE_BOUND('',#311,.T.);
#394=FACE_BOUND('',#312,.T.);
#395=FACE_BOUND('',#313,.T.);
#396=FACE_BOUND('',#314,.T.);
#397=FACE_BOUND('',#315,.T.);
#398=FACE_BOUND('',#316,.T.);
#399=FACE_BOUND('',#317,.T.);
#400=FACE_BOUND('',#318,.T.);
#401=FACE_BOUND('',#319,.T.);
#402=FACE_BOUND('',#320,.T.);
#403=FACE_BOUND('',#321,.T.);
#404=FACE_BOUND('',#322,.T.);
#405=FACE_BOUND('',#323,.T.);
#406=FACE_BOUND('',#324,.T.);
#407=FACE_BOUND('',#325,.T.);
#408=FACE_BOUND('',#326,.T.);
#409=FACE_BOUND('',#327,.T.);
#410=FACE_BOUND('',#328,.T.);
#411=PLANE('',#587);
#412=PLANE('',#594);
#413=PLANE('',#600);
#414=PLANE('',#604);
#415=PLANE('',#622);
#416=PLANE('',#631);
#417=PLANE('',#652);
#418=PLANE('',#654);
#419=PLANE('',#666);
#420=ADVANCED_FACE('',(#329,#330),#411,.F.);
#421=ADVANCED_FACE('',(#331,#332),#52,.F.);
#422=ADVANCED_FACE('',(#333,#334),#45,.F.);
#423=ADVANCED_FACE('',(#335,#336),#412,.F.);
#424=ADVANCED_FACE('',(#337,#338),#46,.T.);
#425=ADVANCED_FACE('',(#339,#340),#53,.T.);
#426=ADVANCED_FACE('',(#341,#342),#413,.F.);
#427=ADVANCED_FACE('',(#343,#344),#54,.F.);
#428=ADVANCED_FACE('',(#345,#346),#414,.F.);
#429=ADVANCED_FACE('',(#347,#348),#47,.T.);
#430=ADVANCED_FACE('',(#349,#350),#55,.F.);
#431=ADVANCED_FACE('',(#351),#33,.T.);
#432=ADVANCED_FACE('',(#352),#34,.T.);
#433=ADVANCED_FACE('',(#353),#35,.T.);
#434=ADVANCED_FACE('',(#354),#36,.T.);
#435=ADVANCED_FACE('',(#355),#37,.T.);
#436=ADVANCED_FACE('',(#356),#38,.T.);
#437=ADVANCED_FACE('',(#357),#39,.T.);
#438=ADVANCED_FACE('',(#358),#40,.T.);
#439=ADVANCED_FACE('',(#359),#41,.T.);
#440=ADVANCED_FACE('',(#360),#42,.T.);
#441=ADVANCED_FACE('',(#361,#362),#56,.T.);
#442=ADVANCED_FACE('',(#363,#364),#415,.F.);
#443=ADVANCED_FACE('',(#365,#366),#57,.T.);
#444=ADVANCED_FACE('',(#367,#368),#18,.F.);
#445=ADVANCED_FACE('',(#369,#370),#58,.T.);
#446=ADVANCED_FACE('',(#371,#372),#416,.F.);
#447=ADVANCED_FACE('',(#373,#374),#59,.F.);
#448=ADVANCED_FACE('',(#375,#376),#19,.T.);
#449=ADVANCED_FACE('',(#377,#378),#20,.T.);
#450=ADVANCED_FACE('',(#379,#380),#48,.T.);
#451=ADVANCED_FACE('',(#381,#382),#49,.T.);
#452=ADVANCED_FACE('',(#383,#384),#60,.T.);
#453=ADVANCED_FACE('',(#385,#386),#61,.T.);
#454=ADVANCED_FACE('',(#387,#388),#62,.F.);
#455=ADVANCED_FACE('',(#389,#390),#63,.F.);
#456=ADVANCED_FACE('',(#391,#392),#417,.F.);
#457=ADVANCED_FACE('',(#393,#394),#418,.F.);
#458=ADVANCED_FACE('',(#395,#396),#64,.F.);
#459=ADVANCED_FACE('',(#397,#398),#21,.F.);
#460=ADVANCED_FACE('',(#399,#400),#22,.T.);
#461=ADVANCED_FACE('',(#401,#402),#50,.F.);
#462=ADVANCED_FACE('',(#403,#404),#65,.F.);
#463=ADVANCED_FACE('',(#405,#406),#51,.F.);
#464=ADVANCED_FACE('',(#407,#408),#419,.F.);
#465=ADVANCED_FACE('',(#409,#410),#66,.T.);
#466=CLOSED_SHELL('',(#420,#421,#422,#423,#424,#425,#426,#427,#428,#429,
#430));
#467=CLOSED_SHELL('',(#431));
#468=CLOSED_SHELL('',(#432));
#469=CLOSED_SHELL('',(#433));
#470=CLOSED_SHELL('',(#434));
#471=CLOSED_SHELL('',(#435));
#472=CLOSED_SHELL('',(#436));
#473=CLOSED_SHELL('',(#437));
#474=CLOSED_SHELL('',(#438));
#475=CLOSED_SHELL('',(#439));
#476=CLOSED_SHELL('',(#440));
#477=CLOSED_SHELL('',(#441,#442,#443,#444,#445,#446,#447,#448,#449,#450,
#451,#452));
#478=CLOSED_SHELL('',(#453,#454,#455,#456,#457,#458,#459,#460,#461,#462,
#463,#464,#465));
#479=STYLED_ITEM('',(#492),#571);
#480=STYLED_ITEM('',(#493),#572);
#481=STYLED_ITEM('',(#494),#573);
#482=STYLED_ITEM('',(#495),#574);
#483=STYLED_ITEM('',(#496),#575);
#484=STYLED_ITEM('',(#497),#576);
#485=STYLED_ITEM('',(#498),#577);
#486=STYLED_ITEM('',(#499),#578);
#487=STYLED_ITEM('',(#500),#579);
#488=STYLED_ITEM('',(#501),#580);
#489=STYLED_ITEM('',(#502),#581);
#490=STYLED_ITEM('',(#503),#582);
#491=STYLED_ITEM('',(#504),#583);
#492=PRESENTATION_STYLE_ASSIGNMENT((#505));
#493=PRESENTATION_STYLE_ASSIGNMENT((#506));
#494=PRESENTATION_STYLE_ASSIGNMENT((#507));
#495=PRESENTATION_STYLE_ASSIGNMENT((#508));
#496=PRESENTATION_STYLE_ASSIGNMENT((#509));
#497=PRESENTATION_STYLE_ASSIGNMENT((#510));
#498=PRESENTATION_STYLE_ASSIGNMENT((#511));
#499=PRESENTATION_STYLE_ASSIGNMENT((#512));
#500=PRESENTATION_STYLE_ASSIGNMENT((#513));
#501=PRESENTATION_STYLE_ASSIGNMENT((#514));
#502=PRESENTATION_STYLE_ASSIGNMENT((#515));
#503=PRESENTATION_STYLE_ASSIGNMENT((#516));
#504=PRESENTATION_STYLE_ASSIGNMENT((#517));
#505=SURFACE_STYLE_USAGE(.BOTH.,#518);
#506=SURFACE_STYLE_USAGE(.BOTH.,#519);
#507=SURFACE_STYLE_USAGE(.BOTH.,#520);
#508=SURFACE_STYLE_USAGE(.BOTH.,#521);
#509=SURFACE_STYLE_USAGE(.BOTH.,#522);
#510=SURFACE_STYLE_USAGE(.BOTH.,#523);
#511=SURFACE_STYLE_USAGE(.BOTH.,#524);
#512=SURFACE_STYLE_USAGE(.BOTH.,#525);
#513=SURFACE_STYLE_USAGE(.BOTH.,#526);
#514=SURFACE_STYLE_USAGE(.BOTH.,#527);
#515=SURFACE_STYLE_USAGE(.BOTH.,#528);
#516=SURFACE_STYLE_USAGE(.BOTH.,#529);
#517=SURFACE_STYLE_USAGE(.BOTH.,#530);
#518=SURFACE_SIDE_STYLE('',(#531));
#519=SURFACE_SIDE_STYLE('',(#532));
#520=SURFACE_SIDE_STYLE('',(#533));
#521=SURFACE_SIDE_STYLE('',(#534));
#522=SURFACE_SIDE_STYLE('',(#535));
#523=SURFACE_SIDE_STYLE('',(#536));
#524=SURFACE_SIDE_STYLE('',(#537));
#525=SURFACE_SIDE_STYLE('',(#538));
#526=SURFACE_SIDE_STYLE('',(#539));
#527=SURFACE_SIDE_STYLE('',(#540));
#528=SURFACE_SIDE_STYLE('',(#541));
#529=SURFACE_SIDE_STYLE('',(#542));
#530=SURFACE_SIDE_STYLE('',(#543));
#531=SURFACE_STYLE_FILL_AREA(#544);
#532=SURFACE_STYLE_FILL_AREA(#545);
#533=SURFACE_STYLE_FILL_AREA(#546);
#534=SURFACE_STYLE_FILL_AREA(#547);
#535=SURFACE_STYLE_FILL_AREA(#548);
#536=SURFACE_STYLE_FILL_AREA(#549);
#537=SURFACE_STYLE_FILL_AREA(#550);
#538=SURFACE_STYLE_FILL_AREA(#551);
#539=SURFACE_STYLE_FILL_AREA(#552);
#540=SURFACE_STYLE_FILL_AREA(#553);
#541=SURFACE_STYLE_FILL_AREA(#554);
#542=SURFACE_STYLE_FILL_AREA(#555);
#543=SURFACE_STYLE_FILL_AREA(#556);
#544=FILL_AREA_STYLE('',(#557));
#545=FILL_AREA_STYLE('',(#558));
#546=FILL_AREA_STYLE('',(#559));
#547=FILL_AREA_STYLE('',(#560));
#548=FILL_AREA_STYLE('',(#561));
#549=FILL_AREA_STYLE('',(#562));
#550=FILL_AREA_STYLE('',(#563));
#551=FILL_AREA_STYLE('',(#564));
#552=FILL_AREA_STYLE('',(#565));
#553=FILL_AREA_STYLE('',(#566));
#554=FILL_AREA_STYLE('',(#567));
#555=FILL_AREA_STYLE('',(#568));
#556=FILL_AREA_STYLE('',(#569));
#557=FILL_AREA_STYLE_COLOUR('',#570);
#558=FILL_AREA_STYLE_COLOUR('',#570);
#559=FILL_AREA_STYLE_COLOUR('',#570);
#560=FILL_AREA_STYLE_COLOUR('',#570);
#561=FILL_AREA_STYLE_COLOUR('',#570);
#562=FILL_AREA_STYLE_COLOUR('',#570);
#563=FILL_AREA_STYLE_COLOUR('',#570);
#564=FILL_AREA_STYLE_COLOUR('',#570);
#565=FILL_AREA_STYLE_COLOUR('',#570);
#566=FILL_AREA_STYLE_COLOUR('',#570);
#567=FILL_AREA_STYLE_COLOUR('',#570);
#568=FILL_AREA_STYLE_COLOUR('',#570);
#569=FILL_AREA_STYLE_COLOUR('',#570);
#570=COLOUR_RGB('',0.506983280181885,0.531564235687256,0.550000011920929);
#571=MANIFOLD_SOLID_BREP('',#466);
#572=MANIFOLD_SOLID_BREP('',#467);
#573=MANIFOLD_SOLID_BREP('',#468);
#574=MANIFOLD_SOLID_BREP('',#469);
#575=MANIFOLD_SOLID_BREP('',#470);
#576=MANIFOLD_SOLID_BREP('',#471);
#577=MANIFOLD_SOLID_BREP('',#472);
#578=MANIFOLD_SOLID_BREP('',#473);
#579=MANIFOLD_SOLID_BREP('',#474);
#580=MANIFOLD_SOLID_BREP('',#475);
#581=MANIFOLD_SOLID_BREP('',#476);
#582=MANIFOLD_SOLID_BREP('',#477);
#583=MANIFOLD_SOLID_BREP('',#478);
#584=SHAPE_DEFINITION_REPRESENTATION(#970,#585);
#585=SHAPE_REPRESENTATION('\X2\6DF16C9F74038F74627F\X0\60000-RS\X2\578B\X0\',
(#586),#965);
#586=AXIS2_PLACEMENT_3D('',#835,#669,#670);
#587=AXIS2_PLACEMENT_3D('',#836,#671,#672);
#588=AXIS2_PLACEMENT_3D('',#837,#673,#674);
#589=AXIS2_PLACEMENT_3D('',#839,#675,#676);
#590=AXIS2_PLACEMENT_3D('',#841,#677,#678);
#591=AXIS2_PLACEMENT_3D('',#842,#679,#680);
#592=AXIS2_PLACEMENT_3D('',#844,#681,#682);
#593=AXIS2_PLACEMENT_3D('',#845,#683,#684);
#594=AXIS2_PLACEMENT_3D('',#847,#685,#686);
#595=AXIS2_PLACEMENT_3D('',#848,#687,#688);
#596=AXIS2_PLACEMENT_3D('',#850,#689,#690);
#597=AXIS2_PLACEMENT_3D('',#851,#691,#692);
#598=AXIS2_PLACEMENT_3D('',#853,#693,#694);
#599=AXIS2_PLACEMENT_3D('',#854,#695,#696);
#600=AXIS2_PLACEMENT_3D('',#856,#697,#698);
#601=AXIS2_PLACEMENT_3D('',#857,#699,#700);
#602=AXIS2_PLACEMENT_3D('',#859,#701,#702);
#603=AXIS2_PLACEMENT_3D('',#860,#703,#704);
#604=AXIS2_PLACEMENT_3D('',#862,#705,#706);
#605=AXIS2_PLACEMENT_3D('',#863,#707,#708);
#606=AXIS2_PLACEMENT_3D('',#865,#709,#710);
#607=AXIS2_PLACEMENT_3D('',#866,#711,#712);
#608=AXIS2_PLACEMENT_3D('',#868,#713,#714);
#609=AXIS2_PLACEMENT_3D('',#869,#715,#716);
#610=AXIS2_PLACEMENT_3D('',#871,#717,#718);
#611=AXIS2_PLACEMENT_3D('',#873,#719,#720);
#612=AXIS2_PLACEMENT_3D('',#875,#721,#722);
#613=AXIS2_PLACEMENT_3D('',#877,#723,#724);
#614=AXIS2_PLACEMENT_3D('',#879,#725,#726);
#615=AXIS2_PLACEMENT_3D('',#881,#727,#728);
#616=AXIS2_PLACEMENT_3D('',#883,#729,#730);
#617=AXIS2_PLACEMENT_3D('',#885,#731,#732);
#618=AXIS2_PLACEMENT_3D('',#887,#733,#734);
#619=AXIS2_PLACEMENT_3D('',#889,#735,#736);
#620=AXIS2_PLACEMENT_3D('',#890,#737,#738);
#621=AXIS2_PLACEMENT_3D('',#892,#739,#740);
#622=AXIS2_PLACEMENT_3D('',#894,#741,#742);
#623=AXIS2_PLACEMENT_3D('',#895,#743,#744);
#624=AXIS2_PLACEMENT_3D('',#897,#745,#746);
#625=AXIS2_PLACEMENT_3D('',#898,#747,#748);
#626=AXIS2_PLACEMENT_3D('',#900,#749,#750);
#627=AXIS2_PLACEMENT_3D('',#902,#751,#752);
#628=AXIS2_PLACEMENT_3D('',#903,#753,#754);
#629=AXIS2_PLACEMENT_3D('',#905,#755,#756);
#630=AXIS2_PLACEMENT_3D('',#906,#757,#758);
#631=AXIS2_PLACEMENT_3D('',#908,#759,#760);
#632=AXIS2_PLACEMENT_3D('',#909,#761,#762);
#633=AXIS2_PLACEMENT_3D('',#911,#763,#764);
#634=AXIS2_PLACEMENT_3D('',#912,#765,#766);
#635=AXIS2_PLACEMENT_3D('',#914,#767,#768);
#636=AXIS2_PLACEMENT_3D('',#916,#769,#770);
#637=AXIS2_PLACEMENT_3D('',#917,#771,#772);
#638=AXIS2_PLACEMENT_3D('',#918,#773,#774);
#639=AXIS2_PLACEMENT_3D('',#919,#775,#776);
#640=AXIS2_PLACEMENT_3D('',#921,#777,#778);
#641=AXIS2_PLACEMENT_3D('',#922,#779,#780);
#642=AXIS2_PLACEMENT_3D('',#924,#781,#782);
#643=AXIS2_PLACEMENT_3D('',#925,#783,#784);
#644=AXIS2_PLACEMENT_3D('',#926,#785,#786);
#645=AXIS2_PLACEMENT_3D('',#928,#787,#788);
#646=AXIS2_PLACEMENT_3D('',#930,#789,#790);
#647=AXIS2_PLACEMENT_3D('',#931,#791,#792);
#648=AXIS2_PLACEMENT_3D('',#933,#793,#794);
#649=AXIS2_PLACEMENT_3D('',#935,#795,#796);
#650=AXIS2_PLACEMENT_3D('',#936,#797,#798);
#651=AXIS2_PLACEMENT_3D('',#938,#799,#800);
#652=AXIS2_PLACEMENT_3D('',#940,#801,#802);
#653=AXIS2_PLACEMENT_3D('',#941,#803,#804);
#654=AXIS2_PLACEMENT_3D('',#943,#805,#806);
#655=AXIS2_PLACEMENT_3D('',#944,#807,#808);
#656=AXIS2_PLACEMENT_3D('',#946,#809,#810);
#657=AXIS2_PLACEMENT_3D('',#948,#811,#812);
#658=AXIS2_PLACEMENT_3D('',#949,#813,#814);
#659=AXIS2_PLACEMENT_3D('',#951,#815,#816);
#660=AXIS2_PLACEMENT_3D('',#952,#817,#818);
#661=AXIS2_PLACEMENT_3D('',#953,#819,#820);
#662=AXIS2_PLACEMENT_3D('',#954,#821,#822);
#663=AXIS2_PLACEMENT_3D('',#956,#823,#824);
#664=AXIS2_PLACEMENT_3D('',#957,#825,#826);
#665=AXIS2_PLACEMENT_3D('',#959,#827,#828);
#666=AXIS2_PLACEMENT_3D('',#960,#829,#830);
#667=AXIS2_PLACEMENT_3D('',#961,#831,#832);
#668=AXIS2_PLACEMENT_3D('',#963,#833,#834);
#669=DIRECTION('',(0.,0.,1.));
#670=DIRECTION('',(1.,0.,0.));
#671=DIRECTION('',(6.12303176911189E-17,1.,0.));
#672=DIRECTION('',(-1.,6.12303176911189E-17,0.));
#673=DIRECTION('',(-6.12303176911189E-17,-1.,0.));
#674=DIRECTION('',(1.,-6.12303176911189E-17,0.));
#675=DIRECTION('',(-6.12303176911189E-17,-1.,0.));
#676=DIRECTION('',(1.,-6.12303176911189E-17,0.));
#677=DIRECTION('',(-6.12303176911189E-17,-1.,0.));
#678=DIRECTION('',(1.,-6.12303176911189E-17,0.));
#679=DIRECTION('',(-6.12303176911189E-17,-1.,0.));
#680=DIRECTION('',(1.,-6.12303176911189E-17,0.));
#681=DIRECTION('',(6.12303176911189E-17,1.,0.));
#682=DIRECTION('',(-1.,6.12303176911189E-17,0.));
#683=DIRECTION('',(-6.12303176911189E-17,-1.,0.));
#684=DIRECTION('',(1.,-6.12303176911189E-17,0.));
#685=DIRECTION('',(-6.12303176911189E-17,-1.,0.));
#686=DIRECTION('',(1.,-6.12303176911189E-17,0.));
#687=DIRECTION('',(-6.12303176911189E-17,-1.,0.));
#688=DIRECTION('',(1.,-6.12303176911189E-17,0.));
#689=DIRECTION('',(-6.12303176911189E-17,-1.,0.));
#690=DIRECTION('',(1.,-6.12303176911189E-17,0.));
#691=DIRECTION('',(-6.12303176911189E-17,-1.,0.));
#692=DIRECTION('',(1.,-6.12303176911189E-17,0.));
#693=DIRECTION('',(-6.12303176911189E-17,-1.,0.));
#694=DIRECTION('',(1.,-6.12303176911189E-17,0.));
#695=DIRECTION('',(-6.12303176911189E-17,-1.,0.));
#696=DIRECTION('',(1.,-6.12303176911189E-17,0.));
#697=DIRECTION('',(6.12303176911189E-17,1.,0.));
#698=DIRECTION('',(-1.,6.12303176911189E-17,0.));
#699=DIRECTION('',(-6.12303176911189E-17,-1.,0.));
#700=DIRECTION('',(1.,-6.12303176911189E-17,0.));
#701=DIRECTION('',(-6.12303176911189E-17,-1.,0.));
#702=DIRECTION('',(1.,-6.12303176911189E-17,0.));
#703=DIRECTION('',(-6.12303176911189E-17,-1.,0.));
#704=DIRECTION('',(1.,-6.12303176911189E-17,0.));
#705=DIRECTION('',(6.12303176911189E-17,1.,0.));
#706=DIRECTION('',(-1.,6.12303176911189E-17,0.));
#707=DIRECTION('',(-6.12303176911189E-17,-1.,0.));
#708=DIRECTION('',(1.,-6.12303176911189E-17,0.));
#709=DIRECTION('',(6.12303176911189E-17,1.,0.));
#710=DIRECTION('',(-1.,6.12303176911189E-17,0.));
#711=DIRECTION('',(-6.12303176911189E-17,-1.,0.));
#712=DIRECTION('',(1.,-6.12303176911189E-17,0.));
#713=DIRECTION('',(-6.12303176911189E-17,-1.,0.));
#714=DIRECTION('',(1.,-6.12303176911189E-17,0.));
#715=DIRECTION('',(-0.587785252292473,-8.64744021827127E-17,0.809016994374947));
#716=DIRECTION('',(1.07526150894808E-17,-1.,-9.90760072617091E-17));
#717=DIRECTION('',(-0.951056516295154,-6.42311872797743E-17,-0.309016994374948));
#718=DIRECTION('',(5.52405141577904E-17,-1.,3.78436673043415E-17));
#719=DIRECTION('',(0.587785252292473,-1.58454957646758E-16,-0.809016994374947));
#720=DIRECTION('',(-1.33213250471719E-16,-1.,9.90760072617091E-17));
#721=DIRECTION('',(0.951056516295154,-1.80698172549696E-16,0.309016994374947));
#722=DIRECTION('',(-1.77701149540028E-16,-1.,-3.78436673043415E-17));
#723=DIRECTION('',(-0.951056516295154,-6.42311872797743E-17,0.309016994374947));
#724=DIRECTION('',(5.52405141577904E-17,-1.,-3.78436673043415E-17));
#725=DIRECTION('',(-0.587785252292473,-8.64744021827127E-17,-0.809016994374947));
#726=DIRECTION('',(1.07526150894808E-17,-1.,9.90760072617091E-17));
#727=DIRECTION('',(-1.22464679914735E-16,-1.22464679914735E-16,-1.));
#728=DIRECTION('',(-6.12303176911189E-17,-1.,1.22464679914735E-16));
#729=DIRECTION('',(0.951056516295154,-1.80698172549696E-16,-0.309016994374948));
#730=DIRECTION('',(-1.77701149540028E-16,-1.,3.78436673043415E-17));
#731=DIRECTION('',(0.587785252292473,-1.58454957646758E-16,0.809016994374947));
#732=DIRECTION('',(-1.33213250471719E-16,-1.,-9.90760072617091E-17));
#733=DIRECTION('',(-7.49855125712043E-33,-1.22464679914735E-16,1.));
#734=DIRECTION('',(-6.12303176911189E-17,-1.,-1.22464679914735E-16));
#735=DIRECTION('',(-6.12303176911189E-17,-1.,0.));
#736=DIRECTION('',(1.,-6.12303176911189E-17,0.));
#737=DIRECTION('',(-6.12303176911189E-17,-1.,0.));
#738=DIRECTION('',(1.,-6.12303176911189E-17,0.));
#739=DIRECTION('',(-6.12303176911189E-17,-1.,0.));
#740=DIRECTION('',(1.,-6.12303176911189E-17,0.));
#741=DIRECTION('',(-6.12303176911189E-17,-1.,0.));
#742=DIRECTION('',(1.,-6.12303176911189E-17,0.));
#743=DIRECTION('',(-6.12303176911189E-17,-1.,0.));
#744=DIRECTION('',(1.,-6.12303176911189E-17,0.));
#745=DIRECTION('',(-6.12303176911189E-17,-1.,0.));
#746=DIRECTION('',(1.,-6.12303176911189E-17,0.));
#747=DIRECTION('',(-6.12303176911189E-17,-1.,0.));
#748=DIRECTION('',(1.,-6.12303176911189E-17,0.));
#749=DIRECTION('',(-6.12303176911189E-17,-1.,0.));
#750=DIRECTION('',(1.,-6.12303176911189E-17,0.));
#751=DIRECTION('',(-6.12303176911189E-17,-1.,0.));
#752=DIRECTION('',(1.,-6.12303176911189E-17,0.));
#753=DIRECTION('',(-6.12303176911189E-17,-1.,0.));
#754=DIRECTION('',(1.,-6.12303176911189E-17,0.));
#755=DIRECTION('',(-6.12303176911189E-17,-1.,0.));
#756=DIRECTION('',(1.,-6.12303176911189E-17,0.));
#757=DIRECTION('',(-6.12303176911189E-17,-1.,0.));
#758=DIRECTION('',(1.,-6.12303176911189E-17,0.));
#759=DIRECTION('',(6.12303176911189E-17,1.,0.));
#760=DIRECTION('',(-1.,6.12303176911189E-17,0.));
#761=DIRECTION('',(6.12303176911189E-17,1.,0.));
#762=DIRECTION('',(-1.,6.12303176911189E-17,0.));
#763=DIRECTION('',(-6.12303176911189E-17,-1.,0.));
#764=DIRECTION('',(1.,-6.12303176911189E-17,0.));
#765=DIRECTION('',(6.12303176911189E-17,1.,0.));
#766=DIRECTION('',(-1.,6.12303176911189E-17,0.));
#767=DIRECTION('',(-6.12303176911189E-17,-1.,0.));
#768=DIRECTION('',(1.,-6.12303176911189E-17,0.));
#769=DIRECTION('',(-6.12303176911189E-17,-1.,0.));
#770=DIRECTION('',(1.,-6.12303176911189E-17,0.));
#771=DIRECTION('',(6.12303176911189E-17,1.,0.));
#772=DIRECTION('',(-1.,6.12303176911189E-17,0.));
#773=DIRECTION('',(-6.12303176911189E-17,-1.,0.));
#774=DIRECTION('',(1.,-6.12303176911189E-17,0.));
#775=DIRECTION('',(-6.12303176911189E-17,-1.,0.));
#776=DIRECTION('',(1.,-6.12303176911189E-17,0.));
#777=DIRECTION('',(6.12303176911189E-17,1.,0.));
#778=DIRECTION('',(-1.,6.12303176911189E-17,0.));
#779=DIRECTION('',(-6.12303176911189E-17,-1.,0.));
#780=DIRECTION('',(1.,-6.12303176911189E-17,0.));
#781=DIRECTION('',(-6.12303176911189E-17,-1.,0.));
#782=DIRECTION('',(1.,-6.12303176911189E-17,0.));
#783=DIRECTION('',(-6.12303176911189E-17,-1.,0.));
#784=DIRECTION('',(1.,-6.12303176911189E-17,0.));
#785=DIRECTION('',(6.12303176911189E-17,1.,0.));
#786=DIRECTION('',(-1.,6.12303176911189E-17,0.));
#787=DIRECTION('',(6.12303176911189E-17,1.,0.));
#788=DIRECTION('',(-1.,6.12303176911189E-17,0.));
#789=DIRECTION('',(-6.12303176911189E-17,-1.,0.));
#790=DIRECTION('',(1.,-6.12303176911189E-17,0.));
#791=DIRECTION('',(-6.12303176911189E-17,-1.,0.));
#792=DIRECTION('',(1.,-6.12303176911189E-17,0.));
#793=DIRECTION('',(-6.12303176911189E-17,-1.,0.));
#794=DIRECTION('',(1.,-6.12303176911189E-17,0.));
#795=DIRECTION('',(-6.12303176911189E-17,-1.,0.));
#796=DIRECTION('',(1.,-6.12303176911189E-17,0.));
#797=DIRECTION('',(-6.12303176911189E-17,-1.,0.));
#798=DIRECTION('',(1.,-6.12303176911189E-17,0.));
#799=DIRECTION('',(-6.12303176911189E-17,-1.,0.));
#800=DIRECTION('',(1.,-6.12303176911189E-17,0.));
#801=DIRECTION('',(-6.12303176911189E-17,-1.,0.));
#802=DIRECTION('',(1.,-6.12303176911189E-17,0.));
#803=DIRECTION('',(-6.12303176911189E-17,-1.,0.));
#804=DIRECTION('',(1.,-6.12303176911189E-17,0.));
#805=DIRECTION('',(6.12303176911189E-17,1.,0.));
#806=DIRECTION('',(-1.,6.12303176911189E-17,0.));
#807=DIRECTION('',(6.12303176911189E-17,1.,0.));
#808=DIRECTION('',(-1.,6.12303176911189E-17,0.));
#809=DIRECTION('',(-6.12303176911189E-17,-1.,0.));
#810=DIRECTION('',(1.,-6.12303176911189E-17,0.));
#811=DIRECTION('',(-6.12303176911189E-17,-1.,0.));
#812=DIRECTION('',(1.,-6.12303176911189E-17,0.));
#813=DIRECTION('',(-6.12303176911189E-17,-1.,0.));
#814=DIRECTION('',(1.,-6.12303176911189E-17,0.));
#815=DIRECTION('',(-6.12303176911189E-17,-1.,0.));
#816=DIRECTION('',(1.,-6.12303176911189E-17,0.));
#817=DIRECTION('',(6.12303176911189E-17,1.,0.));
#818=DIRECTION('',(-1.,6.12303176911189E-17,0.));
#819=DIRECTION('',(-6.12303176911189E-17,-1.,0.));
#820=DIRECTION('',(1.,-6.12303176911189E-17,0.));
#821=DIRECTION('',(-6.12303176911189E-17,-1.,0.));
#822=DIRECTION('',(1.,-6.12303176911189E-17,0.));
#823=DIRECTION('',(-6.12303176911189E-17,-1.,0.));
#824=DIRECTION('',(1.,-6.12303176911189E-17,0.));
#825=DIRECTION('',(-6.12303176911189E-17,-1.,0.));
#826=DIRECTION('',(1.,-6.12303176911189E-17,0.));
#827=DIRECTION('',(6.12303176911189E-17,1.,0.));
#828=DIRECTION('',(-1.,6.12303176911189E-17,0.));
#829=DIRECTION('',(6.12303176911189E-17,1.,0.));
#830=DIRECTION('',(-1.,6.12303176911189E-17,0.));
#831=DIRECTION('',(-6.12303176911189E-17,-1.,0.));
#832=DIRECTION('',(1.,-6.12303176911189E-17,0.));
#833=DIRECTION('',(-6.12303176911189E-17,-1.,0.));
#834=DIRECTION('',(1.,-6.12303176911189E-17,0.));
#835=CARTESIAN_POINT('',(0.,0.,0.));
#836=CARTESIAN_POINT('',(1.49821991375886E-16,2.4468596117968,7.));
#837=CARTESIAN_POINT('',(1.49821991375886E-16,2.4468596117968,0.));
#838=CARTESIAN_POINT('',(6.625,2.4468596117968,0.));
#839=CARTESIAN_POINT('',(1.49821991375886E-16,2.4468596117968,0.));
#840=CARTESIAN_POINT('',(7.,2.44685961179679,0.));
#841=CARTESIAN_POINT('',(0.,0.,0.));
#842=CARTESIAN_POINT('',(1.54414265202719E-16,2.5218596117968,0.));
#843=CARTESIAN_POINT('',(6.625,2.52185961179679,0.));
#844=CARTESIAN_POINT('',(1.54414265202719E-16,2.5218596117968,0.));
#845=CARTESIAN_POINT('',(1.80183632936398E-16,2.94271922359359,0.));
#846=CARTESIAN_POINT('',(7.01791056105338,2.94271922359359,0.));
#847=CARTESIAN_POINT('',(1.80183632936398E-16,2.94271922359359,7.01791056105338));
#848=CARTESIAN_POINT('',(1.80183632936398E-16,2.94271922359359,0.));
#849=CARTESIAN_POINT('',(8.925,2.94271922359359,0.));
#850=CARTESIAN_POINT('',(1.80183632936398E-16,2.94271922359359,0.));
#851=CARTESIAN_POINT('',(1.67570187492028E-16,2.73671922359359,0.));
#852=CARTESIAN_POINT('',(9.749,2.73671922359359,0.));
#853=CARTESIAN_POINT('',(0.,0.,0.));
#854=CARTESIAN_POINT('',(1.44656625545268E-16,2.3625,0.));
#855=CARTESIAN_POINT('',(9.749,2.3625,0.));
#856=CARTESIAN_POINT('',(1.44656625545268E-16,2.3625,9.749));
#857=CARTESIAN_POINT('',(1.44656625545268E-16,2.3625,0.));
#858=CARTESIAN_POINT('',(8.925,2.3625,0.));
#859=CARTESIAN_POINT('',(0.,0.,0.));
#860=CARTESIAN_POINT('',(1.66406811455896E-16,2.71771922359359,0.));
#861=CARTESIAN_POINT('',(8.925,2.71771922359359,0.));
#862=CARTESIAN_POINT('',(1.66406811455896E-16,2.71771922359359,8.925));
#863=CARTESIAN_POINT('',(1.66406811455896E-16,2.71771922359359,0.));
#864=CARTESIAN_POINT('',(7.375,2.71771922359359,0.));
#865=CARTESIAN_POINT('',(1.66406811455896E-16,2.71771922359359,0.));
#866=CARTESIAN_POINT('',(1.33237171295875E-16,2.176,0.));
#867=CARTESIAN_POINT('',(7.,2.176,0.));
#868=CARTESIAN_POINT('',(0.,0.,0.));
#869=CARTESIAN_POINT('',(-4.70228201833979,2.47100661884602E-16,6.47213595499958));
#870=CARTESIAN_POINT('',(-3.72322771643795,2.89145523531285E-16,5.12458331470237));
#871=CARTESIAN_POINT('',(-7.60845213036123,4.2504638110811E-16,-2.47213595499958));
#872=CARTESIAN_POINT('',(-6.02430899305227,4.30041461131465E-16,-1.95741664803571));
#873=CARTESIAN_POINT('',(4.70228201833978,-3.28743781827759E-16,-6.47213595499958));
#874=CARTESIAN_POINT('',(3.72322771643795,-1.66803308296465E-16,-5.12458331470237));
#875=CARTESIAN_POINT('',(7.60845213036123,-5.06689501051266E-16,2.47213595499958));
#876=CARTESIAN_POINT('',(6.02430899305227,-3.07699245896644E-16,1.95741664803571));
#877=CARTESIAN_POINT('',(-7.60845213036123,4.2504638110811E-16,2.47213595499958));
#878=CARTESIAN_POINT('',(-6.02430899305227,4.30041461131465E-16,1.95741664803571));
#879=CARTESIAN_POINT('',(-4.70228201833979,2.47100661884602E-16,-6.47213595499958));
#880=CARTESIAN_POINT('',(-3.72322771643795,2.89145523531285E-16,-5.12458331470237));
#881=CARTESIAN_POINT('',(-9.79717439317882E-16,-4.08215599715783E-17,-8.));
#882=CARTESIAN_POINT('',(-7.75732104139905E-16,6.11711076174104E-17,-6.33433333333333));
#883=CARTESIAN_POINT('',(7.60845213036123,-5.06689501051266E-16,-2.47213595499958));
#884=CARTESIAN_POINT('',(6.02430899305227,-3.07699245896644E-16,-1.95741664803571));
#885=CARTESIAN_POINT('',(4.70228201833979,-3.28743781827759E-16,6.47213595499958));
#886=CARTESIAN_POINT('',(3.72322771643796,-1.66803308296465E-16,5.12458331470237));
#887=CARTESIAN_POINT('',(-2.49951708570681E-33,-4.08215599715784E-17,8.));
#888=CARTESIAN_POINT('',(3.74552635293166E-33,6.11711076174104E-17,6.33433333333333));
#889=CARTESIAN_POINT('',(0.,0.,0.));
#890=CARTESIAN_POINT('',(1.79098679246523E-16,2.925,0.));
#891=CARTESIAN_POINT('',(7.,2.925,0.));
#892=CARTESIAN_POINT('',(1.83690953073357E-16,3.,0.));
#893=CARTESIAN_POINT('',(7.,3.,0.));
#894=CARTESIAN_POINT('',(1.83690953073357E-16,3.,5.));
#895=CARTESIAN_POINT('',(1.83690953073357E-16,3.,0.));
#896=CARTESIAN_POINT('',(5.3,3.,0.));
#897=CARTESIAN_POINT('',(0.,0.,0.));
#898=CARTESIAN_POINT('',(1.33175940978183E-16,2.175,0.));
#899=CARTESIAN_POINT('',(7.,2.175,0.));
#900=CARTESIAN_POINT('',(8.16404235881586E-17,1.33333333333334,0.));
#901=CARTESIAN_POINT('',(7.,1.33333333333333,0.));
#902=CARTESIAN_POINT('',(-2.49951708570681E-33,-4.08215599715784E-17,0.));
#903=CARTESIAN_POINT('',(-8.16404235881586E-17,-1.33333333333333,0.));
#904=CARTESIAN_POINT('',(7.,-1.33333333333334,0.));
#905=CARTESIAN_POINT('',(0.,0.,0.));
#906=CARTESIAN_POINT('',(-1.83690953073357E-16,-3.,0.));
#907=CARTESIAN_POINT('',(7.,-3.,0.));
#908=CARTESIAN_POINT('',(-1.83690953073357E-16,-3.,7.));
#909=CARTESIAN_POINT('',(-1.83690953073357E-16,-3.,0.));
#910=CARTESIAN_POINT('',(-5.3,-3.,0.));
#911=CARTESIAN_POINT('',(0.,0.,0.));
#912=CARTESIAN_POINT('',(-1.65321857766021E-16,-2.7,0.));
#913=CARTESIAN_POINT('',(-5.,-2.7,0.));
#914=CARTESIAN_POINT('',(1.65321857766021E-16,2.7,0.));
#915=CARTESIAN_POINT('',(5.,2.7,0.));
#916=CARTESIAN_POINT('',(1.65321857766021E-16,2.7,0.));
#917=CARTESIAN_POINT('',(-1.65321857766021E-16,-2.7,0.));
#918=CARTESIAN_POINT('',(1.44656625545268E-16,2.3625,0.));
#919=CARTESIAN_POINT('',(1.44656625545268E-16,2.3625,0.));
#920=CARTESIAN_POINT('',(6.25,2.3625,0.));
#921=CARTESIAN_POINT('',(1.79098679246523E-16,2.925,0.));
#922=CARTESIAN_POINT('',(1.67617994679438E-16,2.7375,0.));
#923=CARTESIAN_POINT('',(6.25,2.7375,0.));
#924=CARTESIAN_POINT('',(0.,0.,0.));
#925=CARTESIAN_POINT('',(0.,0.,0.));
#926=CARTESIAN_POINT('',(-1.65321857766021E-16,-2.7,0.));
#927=CARTESIAN_POINT('',(-11.,-2.7,0.));
#928=CARTESIAN_POINT('',(9.18454765366781E-17,1.5,0.));
#929=CARTESIAN_POINT('',(-11.,1.5,0.));
#930=CARTESIAN_POINT('',(0.,0.,0.));
#931=CARTESIAN_POINT('',(1.83690953073357E-16,3.,0.));
#932=CARTESIAN_POINT('',(9.,3.,0.));
#933=CARTESIAN_POINT('',(1.79098679246523E-16,2.925,0.));
#934=CARTESIAN_POINT('',(9.,2.925,0.));
#935=CARTESIAN_POINT('',(0.,0.,0.));
#936=CARTESIAN_POINT('',(8.16404235881585E-17,1.33333333333333,0.));
#937=CARTESIAN_POINT('',(9.,1.33333333333333,0.));
#938=CARTESIAN_POINT('',(1.33175940978184E-16,2.175,0.));
#939=CARTESIAN_POINT('',(9.,2.175,0.));
#940=CARTESIAN_POINT('',(1.83690953073356E-16,3.,9.));
#941=CARTESIAN_POINT('',(1.83690953073356E-16,3.,0.));
#942=CARTESIAN_POINT('',(12.5,3.,0.));
#943=CARTESIAN_POINT('',(-1.83690953073357E-16,-3.,11.));
#944=CARTESIAN_POINT('',(-1.83690953073357E-16,-3.,0.));
#945=CARTESIAN_POINT('',(-10.7,-3.,0.));
#946=CARTESIAN_POINT('',(-1.83690953073357E-16,-3.,0.));
#947=CARTESIAN_POINT('',(9.,-3.,0.));
#948=CARTESIAN_POINT('',(0.,0.,0.));
#949=CARTESIAN_POINT('',(-8.16404235881586E-17,-1.33333333333334,0.));
#950=CARTESIAN_POINT('',(9.,-1.33333333333334,0.));
#951=CARTESIAN_POINT('',(-2.49951708570681E-33,-4.08215599715784E-17,0.));
#952=CARTESIAN_POINT('',(-1.65321857766021E-16,-2.7,0.));
#953=CARTESIAN_POINT('',(1.79098679246523E-16,2.925,0.));
#954=CARTESIAN_POINT('',(1.67617994679438E-16,2.7375,0.));
#955=CARTESIAN_POINT('',(9.75,2.7375,0.));
#956=CARTESIAN_POINT('',(0.,0.,0.));
#957=CARTESIAN_POINT('',(1.44656625545268E-16,2.3625,0.));
#958=CARTESIAN_POINT('',(9.75,2.3625,0.));
#959=CARTESIAN_POINT('',(1.44656625545268E-16,2.3625,0.));
#960=CARTESIAN_POINT('',(9.18454765366781E-17,1.5,12.5));
#961=CARTESIAN_POINT('',(9.18454765366781E-17,1.5,0.));
#962=CARTESIAN_POINT('',(12.5,1.5,0.));
#963=CARTESIAN_POINT('',(0.,0.,0.));
#964=MECHANICAL_DESIGN_GEOMETRIC_PRESENTATION_REPRESENTATION('',(#479,#480,
#481,#482,#483,#484,#485,#486,#487,#488,#489,#490,#491),#965);
#965=(
GEOMETRIC_REPRESENTATION_CONTEXT(3)
GLOBAL_UNCERTAINTY_ASSIGNED_CONTEXT((#966))
GLOBAL_UNIT_ASSIGNED_CONTEXT((#969,#968,#967))
REPRESENTATION_CONTEXT('\X2\6DF16C9F74038F74627F\X0\60000-RS\X2\578B\X0\',
'TOP_LEVEL_ASSEMBLY_PART')
);
#966=UNCERTAINTY_MEASURE_WITH_UNIT(LENGTH_MEASURE(0.005),#969,
'DISTANCE_ACCURACY_VALUE','Maximum Tolerance applied to model');
#967=(
NAMED_UNIT(*)
SI_UNIT($,.STERADIAN.)
SOLID_ANGLE_UNIT()
);
#968=(
NAMED_UNIT(*)
PLANE_ANGLE_UNIT()
SI_UNIT($,.RADIAN.)
);
#969=(
LENGTH_UNIT()
NAMED_UNIT(*)
SI_UNIT(.MILLI.,.METRE.)
);
#970=PRODUCT_DEFINITION_SHAPE('','',#971);
#971=PRODUCT_DEFINITION('','',#973,#972);
#972=PRODUCT_DEFINITION_CONTEXT('',#979,'design');
#973=PRODUCT_DEFINITION_FORMATION_WITH_SPECIFIED_SOURCE('','',#975,
 .NOT_KNOWN.);
#974=PRODUCT_RELATED_PRODUCT_CATEGORY('','',(#975));
#975=PRODUCT('\X2\6DF16C9F74038F74627F\X0\60000-RS\X2\578B\X0\',
'\X2\6DF16C9F74038F74627F\X0\60000-RS\X2\578B\X0\',
'\X2\6DF16C9F74038F74627F\X0\60000-RS\X2\578B\X0\',(#977));
#976=PRODUCT_CATEGORY('','');
#977=PRODUCT_CONTEXT('',#979,'mechanical');
#978=APPLICATION_PROTOCOL_DEFINITION('international standard',
'automotive_design',2010,#979);
#979=APPLICATION_CONTEXT(
'core data for automotive mechanical design processes');
ENDSEC;
END-ISO-10303-21;
