ISO-10303-21;
HEADER;
/* Generated by software containing HOOPS Exchange Step
 * from HOOPS Exchange, Inc. (www.tiangong.cloud) 
 */

FILE_DESCRIPTION(
/* description */ ('Unknown'),
/* implementation_level */ '2;1');

FILE_NAME(
/* name */ '\X2\6DF16C9F74038F74627F\X0\F 60000\X2\578B\X0\',
/* time_stamp */ '2025-10-13T02:51:21+08:00',
/* author */ ('Unknown'),
/* organization */ ('Unknown'),
/* preprocessor_version */ 'ST-DEVELOPER v19.4',
/* originating_system */ 'TianGong',
/* authorisation */ 'Unknown');

FILE_SCHEMA (('AUTOMOTIVE_DESIGN {1 0 10303 214 3 1 1}'));
ENDSEC;

DATA;
#10=PROPERTY_DEFINITION_REPRESENTATION(#14,#12);
#11=PROPERTY_DEFINITION_REPRESENTATION(#15,#13);
#12=REPRESENTATION('',(#16),#595);
#13=REPRESENTATION('',(#17),#595);
#14=PROPERTY_DEFINITION('pmi validation property','',#600);
#15=PROPERTY_DEFINITION('pmi validation property','',#600);
#16=VALUE_REPRESENTATION_ITEM('number of annotations',COUNT_MEASURE(0.));
#17=VALUE_REPRESENTATION_ITEM('number of views',COUNT_MEASURE(0.));
#18=TOROIDAL_SURFACE('',#399,1.5,0.277777777777778);
#19=TOROIDAL_SURFACE('',#408,1.05,0.05);
#20=TOROIDAL_SURFACE('',#409,1.05,0.05);
#21=TOROIDAL_SURFACE('',#421,1.5,0.277777777777778);
#22=TOROIDAL_SURFACE('',#424,1.95,0.05);
#23=CYLINDRICAL_SURFACE('',#397,1.33333333333333);
#24=CYLINDRICAL_SURFACE('',#401,1.33333333333333);
#25=CYLINDRICAL_SURFACE('',#405,0.999999999999998);
#26=CYLINDRICAL_SURFACE('',#410,2.);
#27=CYLINDRICAL_SURFACE('',#419,1.66666666666667);
#28=CYLINDRICAL_SURFACE('',#423,1.66666666666667);
#29=CYLINDRICAL_SURFACE('',#427,2.4);
#30=ORIENTED_EDGE('',*,*,#64,.T.);
#31=ORIENTED_EDGE('',*,*,#65,.F.);
#32=ORIENTED_EDGE('',*,*,#66,.F.);
#33=ORIENTED_EDGE('',*,*,#65,.T.);
#34=ORIENTED_EDGE('',*,*,#67,.F.);
#35=ORIENTED_EDGE('',*,*,#66,.T.);
#36=ORIENTED_EDGE('',*,*,#68,.F.);
#37=ORIENTED_EDGE('',*,*,#67,.T.);
#38=ORIENTED_EDGE('',*,*,#69,.T.);
#39=ORIENTED_EDGE('',*,*,#68,.T.);
#40=ORIENTED_EDGE('',*,*,#70,.T.);
#41=ORIENTED_EDGE('',*,*,#71,.T.);
#42=ORIENTED_EDGE('',*,*,#71,.F.);
#43=ORIENTED_EDGE('',*,*,#64,.F.);
#44=ORIENTED_EDGE('',*,*,#69,.F.);
#45=ORIENTED_EDGE('',*,*,#70,.F.);
#46=ORIENTED_EDGE('',*,*,#72,.T.);
#47=ORIENTED_EDGE('',*,*,#73,.F.);
#48=ORIENTED_EDGE('',*,*,#74,.F.);
#49=ORIENTED_EDGE('',*,*,#75,.T.);
#50=ORIENTED_EDGE('',*,*,#76,.T.);
#51=ORIENTED_EDGE('',*,*,#77,.F.);
#52=ORIENTED_EDGE('',*,*,#78,.F.);
#53=ORIENTED_EDGE('',*,*,#77,.T.);
#54=ORIENTED_EDGE('',*,*,#79,.F.);
#55=ORIENTED_EDGE('',*,*,#78,.T.);
#56=ORIENTED_EDGE('',*,*,#75,.F.);
#57=ORIENTED_EDGE('',*,*,#79,.T.);
#58=ORIENTED_EDGE('',*,*,#72,.F.);
#59=ORIENTED_EDGE('',*,*,#76,.F.);
#60=ORIENTED_EDGE('',*,*,#73,.T.);
#61=ORIENTED_EDGE('',*,*,#80,.T.);
#62=ORIENTED_EDGE('',*,*,#80,.F.);
#63=ORIENTED_EDGE('',*,*,#74,.T.);
#64=EDGE_CURVE('',#150,#150,#81,.T.);
#65=EDGE_CURVE('',#151,#151,#82,.T.);
#66=EDGE_CURVE('',#152,#152,#83,.T.);
#67=EDGE_CURVE('',#153,#153,#84,.T.);
#68=EDGE_CURVE('',#154,#154,#85,.T.);
#69=EDGE_CURVE('',#155,#155,#86,.T.);
#70=EDGE_CURVE('',#156,#156,#87,.F.);
#71=EDGE_CURVE('',#157,#157,#88,.F.);
#72=EDGE_CURVE('',#158,#158,#89,.T.);
#73=EDGE_CURVE('',#159,#159,#90,.T.);
#74=EDGE_CURVE('',#160,#160,#91,.T.);
#75=EDGE_CURVE('',#161,#161,#92,.T.);
#76=EDGE_CURVE('',#162,#162,#93,.F.);
#77=EDGE_CURVE('',#163,#163,#94,.T.);
#78=EDGE_CURVE('',#164,#164,#95,.T.);
#79=EDGE_CURVE('',#165,#165,#96,.T.);
#80=EDGE_CURVE('',#166,#166,#97,.T.);
#81=CIRCLE('',#395,1.05);
#82=CIRCLE('',#396,1.33333333333333);
#83=CIRCLE('',#398,1.33333333333333);
#84=CIRCLE('',#400,1.33333333333333);
#85=CIRCLE('',#402,1.33333333333333);
#86=CIRCLE('',#404,1.05);
#87=CIRCLE('',#406,0.999999999999998);
#88=CIRCLE('',#407,0.999999999999998);
#89=CIRCLE('',#411,2.);
#90=CIRCLE('',#412,2.);
#91=CIRCLE('',#414,2.4);
#92=CIRCLE('',#415,1.66666666666667);
#93=CIRCLE('',#417,1.95);
#94=CIRCLE('',#418,1.66666666666667);
#95=CIRCLE('',#420,1.66666666666666);
#96=CIRCLE('',#422,1.66666666666667);
#97=CIRCLE('',#426,2.4);
#98=EDGE_LOOP('',(#30));
#99=EDGE_LOOP('',(#31));
#100=EDGE_LOOP('',(#32));
#101=EDGE_LOOP('',(#33));
#102=EDGE_LOOP('',(#34));
#103=EDGE_LOOP('',(#35));
#104=EDGE_LOOP('',(#36));
#105=EDGE_LOOP('',(#37));
#106=EDGE_LOOP('',(#38));
#107=EDGE_LOOP('',(#39));
#108=EDGE_LOOP('',(#40));
#109=EDGE_LOOP('',(#41));
#110=EDGE_LOOP('',(#42));
#111=EDGE_LOOP('',(#43));
#112=EDGE_LOOP('',(#44));
#113=EDGE_LOOP('',(#45));
#114=EDGE_LOOP('',(#46));
#115=EDGE_LOOP('',(#47));
#116=EDGE_LOOP('',(#48));
#117=EDGE_LOOP('',(#49));
#118=EDGE_LOOP('',(#50));
#119=EDGE_LOOP('',(#51));
#120=EDGE_LOOP('',(#52));
#121=EDGE_LOOP('',(#53));
#122=EDGE_LOOP('',(#54));
#123=EDGE_LOOP('',(#55));
#124=EDGE_LOOP('',(#56));
#125=EDGE_LOOP('',(#57));
#126=EDGE_LOOP('',(#58));
#127=EDGE_LOOP('',(#59));
#128=EDGE_LOOP('',(#60));
#129=EDGE_LOOP('',(#61));
#130=EDGE_LOOP('',(#62));
#131=EDGE_LOOP('',(#63));
#132=PLANE('',#394);
#133=PLANE('',#403);
#134=PLANE('',#413);
#135=PLANE('',#416);
#136=PLANE('',#425);
#137=SHAPE_REPRESENTATION_RELATIONSHIP('','',#381,#138);
#138=ADVANCED_BREP_SHAPE_REPRESENTATION('',(#367,#368,#369,#370,#371,#372,
#373,#374,#375,#376,#377,#378,#379),#595);
#139=VERTEX_POINT('',#522);
#140=VERTEX_POINT('',#524);
#141=VERTEX_POINT('',#526);
#142=VERTEX_POINT('',#528);
#143=VERTEX_POINT('',#530);
#144=VERTEX_POINT('',#532);
#145=VERTEX_POINT('',#534);
#146=VERTEX_POINT('',#536);
#147=VERTEX_POINT('',#538);
#148=VERTEX_POINT('',#540);
#149=VERTEX_POINT('',#542);
#150=VERTEX_POINT('',#545);
#151=VERTEX_POINT('',#547);
#152=VERTEX_POINT('',#550);
#153=VERTEX_POINT('',#553);
#154=VERTEX_POINT('',#556);
#155=VERTEX_POINT('',#559);
#156=VERTEX_POINT('',#562);
#157=VERTEX_POINT('',#564);
#158=VERTEX_POINT('',#569);
#159=VERTEX_POINT('',#571);
#160=VERTEX_POINT('',#574);
#161=VERTEX_POINT('',#576);
#162=VERTEX_POINT('',#579);
#163=VERTEX_POINT('',#581);
#164=VERTEX_POINT('',#584);
#165=VERTEX_POINT('',#587);
#166=VERTEX_POINT('',#592);
#167=VERTEX_LOOP('',#139);
#168=VERTEX_LOOP('',#140);
#169=VERTEX_LOOP('',#141);
#170=VERTEX_LOOP('',#142);
#171=VERTEX_LOOP('',#143);
#172=VERTEX_LOOP('',#144);
#173=VERTEX_LOOP('',#145);
#174=VERTEX_LOOP('',#146);
#175=VERTEX_LOOP('',#147);
#176=VERTEX_LOOP('',#148);
#177=VERTEX_LOOP('',#149);
#178=FACE_BOUND('',#167,.T.);
#179=FACE_BOUND('',#168,.T.);
#180=FACE_BOUND('',#169,.T.);
#181=FACE_BOUND('',#170,.T.);
#182=FACE_BOUND('',#171,.T.);
#183=FACE_BOUND('',#172,.T.);
#184=FACE_BOUND('',#173,.T.);
#185=FACE_BOUND('',#174,.T.);
#186=FACE_BOUND('',#175,.T.);
#187=FACE_BOUND('',#176,.T.);
#188=FACE_BOUND('',#177,.T.);
#189=FACE_BOUND('',#98,.T.);
#190=FACE_BOUND('',#99,.T.);
#191=FACE_BOUND('',#100,.T.);
#192=FACE_BOUND('',#101,.T.);
#193=FACE_BOUND('',#102,.T.);
#194=FACE_BOUND('',#103,.T.);
#195=FACE_BOUND('',#104,.T.);
#196=FACE_BOUND('',#105,.T.);
#197=FACE_BOUND('',#106,.T.);
#198=FACE_BOUND('',#107,.T.);
#199=FACE_BOUND('',#108,.T.);
#200=FACE_BOUND('',#109,.T.);
#201=FACE_BOUND('',#110,.T.);
#202=FACE_BOUND('',#111,.T.);
#203=FACE_BOUND('',#112,.T.);
#204=FACE_BOUND('',#113,.T.);
#205=FACE_BOUND('',#114,.T.);
#206=FACE_BOUND('',#115,.T.);
#207=FACE_BOUND('',#116,.T.);
#208=FACE_BOUND('',#117,.T.);
#209=FACE_BOUND('',#118,.T.);
#210=FACE_BOUND('',#119,.T.);
#211=FACE_BOUND('',#120,.T.);
#212=FACE_BOUND('',#121,.T.);
#213=FACE_BOUND('',#122,.T.);
#214=FACE_BOUND('',#123,.T.);
#215=FACE_BOUND('',#124,.T.);
#216=FACE_BOUND('',#125,.T.);
#217=FACE_BOUND('',#126,.T.);
#218=FACE_BOUND('',#127,.T.);
#219=FACE_BOUND('',#128,.T.);
#220=FACE_BOUND('',#129,.T.);
#221=FACE_BOUND('',#130,.T.);
#222=FACE_BOUND('',#131,.T.);
#223=SPHERICAL_SURFACE('',#383,0.276777777777778);
#224=SPHERICAL_SURFACE('',#384,0.276777777777778);
#225=SPHERICAL_SURFACE('',#385,0.276777777777778);
#226=SPHERICAL_SURFACE('',#386,0.276777777777778);
#227=SPHERICAL_SURFACE('',#387,0.276777777777778);
#228=SPHERICAL_SURFACE('',#388,0.276777777777778);
#229=SPHERICAL_SURFACE('',#389,0.276777777777778);
#230=SPHERICAL_SURFACE('',#390,0.276777777777778);
#231=SPHERICAL_SURFACE('',#391,0.276777777777778);
#232=SPHERICAL_SURFACE('',#392,0.276777777777778);
#233=SPHERICAL_SURFACE('',#393,0.276777777777778);
#234=ADVANCED_FACE('',(#178),#223,.T.);
#235=ADVANCED_FACE('',(#179),#224,.T.);
#236=ADVANCED_FACE('',(#180),#225,.T.);
#237=ADVANCED_FACE('',(#181),#226,.T.);
#238=ADVANCED_FACE('',(#182),#227,.T.);
#239=ADVANCED_FACE('',(#183),#228,.T.);
#240=ADVANCED_FACE('',(#184),#229,.T.);
#241=ADVANCED_FACE('',(#185),#230,.T.);
#242=ADVANCED_FACE('',(#186),#231,.T.);
#243=ADVANCED_FACE('',(#187),#232,.T.);
#244=ADVANCED_FACE('',(#188),#233,.T.);
#245=ADVANCED_FACE('',(#189,#190),#132,.F.);
#246=ADVANCED_FACE('',(#191,#192),#23,.T.);
#247=ADVANCED_FACE('',(#193,#194),#18,.F.);
#248=ADVANCED_FACE('',(#195,#196),#24,.T.);
#249=ADVANCED_FACE('',(#197,#198),#133,.F.);
#250=ADVANCED_FACE('',(#199,#200),#25,.F.);
#251=ADVANCED_FACE('',(#201,#202),#19,.T.);
#252=ADVANCED_FACE('',(#203,#204),#20,.T.);
#253=ADVANCED_FACE('',(#205,#206),#26,.T.);
#254=ADVANCED_FACE('',(#207,#208),#134,.F.);
#255=ADVANCED_FACE('',(#209,#210),#135,.F.);
#256=ADVANCED_FACE('',(#211,#212),#27,.F.);
#257=ADVANCED_FACE('',(#213,#214),#21,.F.);
#258=ADVANCED_FACE('',(#215,#216),#28,.F.);
#259=ADVANCED_FACE('',(#217,#218),#22,.T.);
#260=ADVANCED_FACE('',(#219,#220),#136,.F.);
#261=ADVANCED_FACE('',(#221,#222),#29,.T.);
#262=CLOSED_SHELL('',(#234));
#263=CLOSED_SHELL('',(#235));
#264=CLOSED_SHELL('',(#236));
#265=CLOSED_SHELL('',(#237));
#266=CLOSED_SHELL('',(#238));
#267=CLOSED_SHELL('',(#239));
#268=CLOSED_SHELL('',(#240));
#269=CLOSED_SHELL('',(#241));
#270=CLOSED_SHELL('',(#242));
#271=CLOSED_SHELL('',(#243));
#272=CLOSED_SHELL('',(#244));
#273=CLOSED_SHELL('',(#245,#246,#247,#248,#249,#250,#251,#252));
#274=CLOSED_SHELL('',(#253,#254,#255,#256,#257,#258,#259,#260,#261));
#275=STYLED_ITEM('',(#288),#367);
#276=STYLED_ITEM('',(#289),#368);
#277=STYLED_ITEM('',(#290),#369);
#278=STYLED_ITEM('',(#291),#370);
#279=STYLED_ITEM('',(#292),#371);
#280=STYLED_ITEM('',(#293),#372);
#281=STYLED_ITEM('',(#294),#373);
#282=STYLED_ITEM('',(#295),#374);
#283=STYLED_ITEM('',(#296),#375);
#284=STYLED_ITEM('',(#297),#376);
#285=STYLED_ITEM('',(#298),#377);
#286=STYLED_ITEM('',(#299),#378);
#287=STYLED_ITEM('',(#300),#379);
#288=PRESENTATION_STYLE_ASSIGNMENT((#301));
#289=PRESENTATION_STYLE_ASSIGNMENT((#302));
#290=PRESENTATION_STYLE_ASSIGNMENT((#303));
#291=PRESENTATION_STYLE_ASSIGNMENT((#304));
#292=PRESENTATION_STYLE_ASSIGNMENT((#305));
#293=PRESENTATION_STYLE_ASSIGNMENT((#306));
#294=PRESENTATION_STYLE_ASSIGNMENT((#307));
#295=PRESENTATION_STYLE_ASSIGNMENT((#308));
#296=PRESENTATION_STYLE_ASSIGNMENT((#309));
#297=PRESENTATION_STYLE_ASSIGNMENT((#310));
#298=PRESENTATION_STYLE_ASSIGNMENT((#311));
#299=PRESENTATION_STYLE_ASSIGNMENT((#312));
#300=PRESENTATION_STYLE_ASSIGNMENT((#313));
#301=SURFACE_STYLE_USAGE(.BOTH.,#314);
#302=SURFACE_STYLE_USAGE(.BOTH.,#315);
#303=SURFACE_STYLE_USAGE(.BOTH.,#316);
#304=SURFACE_STYLE_USAGE(.BOTH.,#317);
#305=SURFACE_STYLE_USAGE(.BOTH.,#318);
#306=SURFACE_STYLE_USAGE(.BOTH.,#319);
#307=SURFACE_STYLE_USAGE(.BOTH.,#320);
#308=SURFACE_STYLE_USAGE(.BOTH.,#321);
#309=SURFACE_STYLE_USAGE(.BOTH.,#322);
#310=SURFACE_STYLE_USAGE(.BOTH.,#323);
#311=SURFACE_STYLE_USAGE(.BOTH.,#324);
#312=SURFACE_STYLE_USAGE(.BOTH.,#325);
#313=SURFACE_STYLE_USAGE(.BOTH.,#326);
#314=SURFACE_SIDE_STYLE('',(#327));
#315=SURFACE_SIDE_STYLE('',(#328));
#316=SURFACE_SIDE_STYLE('',(#329));
#317=SURFACE_SIDE_STYLE('',(#330));
#318=SURFACE_SIDE_STYLE('',(#331));
#319=SURFACE_SIDE_STYLE('',(#332));
#320=SURFACE_SIDE_STYLE('',(#333));
#321=SURFACE_SIDE_STYLE('',(#334));
#322=SURFACE_SIDE_STYLE('',(#335));
#323=SURFACE_SIDE_STYLE('',(#336));
#324=SURFACE_SIDE_STYLE('',(#337));
#325=SURFACE_SIDE_STYLE('',(#338));
#326=SURFACE_SIDE_STYLE('',(#339));
#327=SURFACE_STYLE_FILL_AREA(#340);
#328=SURFACE_STYLE_FILL_AREA(#341);
#329=SURFACE_STYLE_FILL_AREA(#342);
#330=SURFACE_STYLE_FILL_AREA(#343);
#331=SURFACE_STYLE_FILL_AREA(#344);
#332=SURFACE_STYLE_FILL_AREA(#345);
#333=SURFACE_STYLE_FILL_AREA(#346);
#334=SURFACE_STYLE_FILL_AREA(#347);
#335=SURFACE_STYLE_FILL_AREA(#348);
#336=SURFACE_STYLE_FILL_AREA(#349);
#337=SURFACE_STYLE_FILL_AREA(#350);
#338=SURFACE_STYLE_FILL_AREA(#351);
#339=SURFACE_STYLE_FILL_AREA(#352);
#340=FILL_AREA_STYLE('',(#353));
#341=FILL_AREA_STYLE('',(#354));
#342=FILL_AREA_STYLE('',(#355));
#343=FILL_AREA_STYLE('',(#356));
#344=FILL_AREA_STYLE('',(#357));
#345=FILL_AREA_STYLE('',(#358));
#346=FILL_AREA_STYLE('',(#359));
#347=FILL_AREA_STYLE('',(#360));
#348=FILL_AREA_STYLE('',(#361));
#349=FILL_AREA_STYLE('',(#362));
#350=FILL_AREA_STYLE('',(#363));
#351=FILL_AREA_STYLE('',(#364));
#352=FILL_AREA_STYLE('',(#365));
#353=FILL_AREA_STYLE_COLOUR('',#366);
#354=FILL_AREA_STYLE_COLOUR('',#366);
#355=FILL_AREA_STYLE_COLOUR('',#366);
#356=FILL_AREA_STYLE_COLOUR('',#366);
#357=FILL_AREA_STYLE_COLOUR('',#366);
#358=FILL_AREA_STYLE_COLOUR('',#366);
#359=FILL_AREA_STYLE_COLOUR('',#366);
#360=FILL_AREA_STYLE_COLOUR('',#366);
#361=FILL_AREA_STYLE_COLOUR('',#366);
#362=FILL_AREA_STYLE_COLOUR('',#366);
#363=FILL_AREA_STYLE_COLOUR('',#366);
#364=FILL_AREA_STYLE_COLOUR('',#366);
#365=FILL_AREA_STYLE_COLOUR('',#366);
#366=COLOUR_RGB('',0.506983280181885,0.531564235687256,0.550000011920929);
#367=MANIFOLD_SOLID_BREP('',#262);
#368=MANIFOLD_SOLID_BREP('',#263);
#369=MANIFOLD_SOLID_BREP('',#264);
#370=MANIFOLD_SOLID_BREP('',#265);
#371=MANIFOLD_SOLID_BREP('',#266);
#372=MANIFOLD_SOLID_BREP('',#267);
#373=MANIFOLD_SOLID_BREP('',#268);
#374=MANIFOLD_SOLID_BREP('',#269);
#375=MANIFOLD_SOLID_BREP('',#270);
#376=MANIFOLD_SOLID_BREP('',#271);
#377=MANIFOLD_SOLID_BREP('',#272);
#378=MANIFOLD_SOLID_BREP('',#273);
#379=MANIFOLD_SOLID_BREP('',#274);
#380=SHAPE_DEFINITION_REPRESENTATION(#600,#381);
#381=SHAPE_REPRESENTATION('\X2\6DF16C9F74038F74627F\X0\F 60000\X2\578B\X0\',
(#382),#595);
#382=AXIS2_PLACEMENT_3D('',#520,#428,#429);
#383=AXIS2_PLACEMENT_3D('',#521,#430,#431);
#384=AXIS2_PLACEMENT_3D('',#523,#432,#433);
#385=AXIS2_PLACEMENT_3D('',#525,#434,#435);
#386=AXIS2_PLACEMENT_3D('',#527,#436,#437);
#387=AXIS2_PLACEMENT_3D('',#529,#438,#439);
#388=AXIS2_PLACEMENT_3D('',#531,#440,#441);
#389=AXIS2_PLACEMENT_3D('',#533,#442,#443);
#390=AXIS2_PLACEMENT_3D('',#535,#444,#445);
#391=AXIS2_PLACEMENT_3D('',#537,#446,#447);
#392=AXIS2_PLACEMENT_3D('',#539,#448,#449);
#393=AXIS2_PLACEMENT_3D('',#541,#450,#451);
#394=AXIS2_PLACEMENT_3D('',#543,#452,#453);
#395=AXIS2_PLACEMENT_3D('',#544,#454,#455);
#396=AXIS2_PLACEMENT_3D('',#546,#456,#457);
#397=AXIS2_PLACEMENT_3D('',#548,#458,#459);
#398=AXIS2_PLACEMENT_3D('',#549,#460,#461);
#399=AXIS2_PLACEMENT_3D('',#551,#462,#463);
#400=AXIS2_PLACEMENT_3D('',#552,#464,#465);
#401=AXIS2_PLACEMENT_3D('',#554,#466,#467);
#402=AXIS2_PLACEMENT_3D('',#555,#468,#469);
#403=AXIS2_PLACEMENT_3D('',#557,#470,#471);
#404=AXIS2_PLACEMENT_3D('',#558,#472,#473);
#405=AXIS2_PLACEMENT_3D('',#560,#474,#475);
#406=AXIS2_PLACEMENT_3D('',#561,#476,#477);
#407=AXIS2_PLACEMENT_3D('',#563,#478,#479);
#408=AXIS2_PLACEMENT_3D('',#565,#480,#481);
#409=AXIS2_PLACEMENT_3D('',#566,#482,#483);
#410=AXIS2_PLACEMENT_3D('',#567,#484,#485);
#411=AXIS2_PLACEMENT_3D('',#568,#486,#487);
#412=AXIS2_PLACEMENT_3D('',#570,#488,#489);
#413=AXIS2_PLACEMENT_3D('',#572,#490,#491);
#414=AXIS2_PLACEMENT_3D('',#573,#492,#493);
#415=AXIS2_PLACEMENT_3D('',#575,#494,#495);
#416=AXIS2_PLACEMENT_3D('',#577,#496,#497);
#417=AXIS2_PLACEMENT_3D('',#578,#498,#499);
#418=AXIS2_PLACEMENT_3D('',#580,#500,#501);
#419=AXIS2_PLACEMENT_3D('',#582,#502,#503);
#420=AXIS2_PLACEMENT_3D('',#583,#504,#505);
#421=AXIS2_PLACEMENT_3D('',#585,#506,#507);
#422=AXIS2_PLACEMENT_3D('',#586,#508,#509);
#423=AXIS2_PLACEMENT_3D('',#588,#510,#511);
#424=AXIS2_PLACEMENT_3D('',#589,#512,#513);
#425=AXIS2_PLACEMENT_3D('',#590,#514,#515);
#426=AXIS2_PLACEMENT_3D('',#591,#516,#517);
#427=AXIS2_PLACEMENT_3D('',#593,#518,#519);
#428=DIRECTION('',(0.,0.,1.));
#429=DIRECTION('',(1.,0.,0.));
#430=DIRECTION('',(-0.540640817455597,-8.93610709051429E-17,0.841253532831181));
#431=DIRECTION('',(-4.97908696742172E-18,1.,1.03023844625311E-16));
#432=DIRECTION('',(-0.755749574354258,-7.61898933820962E-17,-0.654860733945285));
#433=DIRECTION('',(-3.13223120278728E-17,1.,-8.0197310171338E-17));
#434=DIRECTION('',(0.281732556841429,-1.39715253874067E-16,-0.959492973614497));
#435=DIRECTION('',(9.57326050862645E-17,1.,-1.17503999894137E-16));
#436=DIRECTION('',(0.909631995354519,-1.78161735972299E-16,0.415415013001886));
#437=DIRECTION('',(1.72628108842412E-16,1.,5.08736665990516E-17));
#438=DIRECTION('',(-0.909631995354518,-6.67676238571718E-17,0.415415013001887));
#439=DIRECTION('',(-5.01674734601742E-17,1.,5.08736665990517E-17));
#440=DIRECTION('',(-0.989821441880933,-6.18575985708845E-17,-0.142314838273284));
#441=DIRECTION('',(-5.99878483615713E-17,1.,-1.74285411162551E-17));
#442=DIRECTION('',(-0.28173255684143,-1.05214105955403E-16,-0.959492973614497));
#443=DIRECTION('',(2.67280302959732E-17,1.,-1.17503999894137E-16));
#444=DIRECTION('',(0.755749574354258,-1.68739466447374E-16,-0.654860733945285));
#445=DIRECTION('',(1.53782947410111E-16,1.,-8.0197310171338E-17));
#446=DIRECTION('',(0.989821441880933,-1.83071761258586E-16,-0.142314838273285));
#447=DIRECTION('',(1.82448483743809E-16,1.,-1.74285411162552E-17));
#448=DIRECTION('',(0.540640817455597,-1.55568288924328E-16,0.841253532831181));
#449=DIRECTION('',(1.27439722349659E-16,1.,1.03023844625311E-16));
#450=DIRECTION('',(-7.49855125712043E-33,-1.22464679914735E-16,1.));
#451=DIRECTION('',(6.12303176911189E-17,1.,1.22464679914735E-16));
#452=DIRECTION('',(-6.12303176911189E-17,-1.,0.));
#453=DIRECTION('',(1.,-6.12303176911189E-17,0.));
#454=DIRECTION('',(-6.12303176911189E-17,-1.,0.));
#455=DIRECTION('',(1.,-6.12303176911189E-17,0.));
#456=DIRECTION('',(-6.12303176911189E-17,-1.,0.));
#457=DIRECTION('',(1.,-6.12303176911189E-17,0.));
#458=DIRECTION('',(-6.12303176911189E-17,-1.,0.));
#459=DIRECTION('',(1.,-6.12303176911189E-17,0.));
#460=DIRECTION('',(-6.12303176911189E-17,-1.,0.));
#461=DIRECTION('',(1.,-6.12303176911189E-17,0.));
#462=DIRECTION('',(-6.12303176911189E-17,-1.,0.));
#463=DIRECTION('',(1.,-6.12303176911189E-17,0.));
#464=DIRECTION('',(-6.12303176911189E-17,-1.,0.));
#465=DIRECTION('',(1.,-6.12303176911189E-17,0.));
#466=DIRECTION('',(-6.12303176911189E-17,-1.,0.));
#467=DIRECTION('',(1.,-6.12303176911189E-17,0.));
#468=DIRECTION('',(-6.12303176911189E-17,-1.,0.));
#469=DIRECTION('',(1.,-6.12303176911189E-17,0.));
#470=DIRECTION('',(6.12303176911189E-17,1.,0.));
#471=DIRECTION('',(-1.,6.12303176911189E-17,0.));
#472=DIRECTION('',(6.12303176911189E-17,1.,0.));
#473=DIRECTION('',(-1.,6.12303176911189E-17,0.));
#474=DIRECTION('',(-6.12303176911189E-17,-1.,0.));
#475=DIRECTION('',(1.,-6.12303176911189E-17,0.));
#476=DIRECTION('',(6.12303176911189E-17,1.,0.));
#477=DIRECTION('',(-1.,6.12303176911189E-17,0.));
#478=DIRECTION('',(-6.12303176911189E-17,-1.,0.));
#479=DIRECTION('',(1.,-6.12303176911189E-17,0.));
#480=DIRECTION('',(-6.12303176911189E-17,-1.,0.));
#481=DIRECTION('',(1.,-6.12303176911189E-17,0.));
#482=DIRECTION('',(6.12303176911189E-17,1.,0.));
#483=DIRECTION('',(-1.,6.12303176911189E-17,0.));
#484=DIRECTION('',(-6.12303176911189E-17,-1.,0.));
#485=DIRECTION('',(1.,-6.12303176911189E-17,0.));
#486=DIRECTION('',(6.12303176911189E-17,1.,0.));
#487=DIRECTION('',(-1.,6.12303176911189E-17,0.));
#488=DIRECTION('',(6.12303176911189E-17,1.,2.89120579329468E-15));
#489=DIRECTION('',(0.,-2.89120579329468E-15,1.));
#490=DIRECTION('',(-6.12303176911189E-17,-1.,0.));
#491=DIRECTION('',(1.,-6.12303176911189E-17,0.));
#492=DIRECTION('',(-6.12303176911189E-17,-1.,-2.89120579329468E-15));
#493=DIRECTION('',(0.,2.89120579329468E-15,-1.));
#494=DIRECTION('',(-6.12303176911189E-17,-1.,0.));
#495=DIRECTION('',(1.,-6.12303176911189E-17,0.));
#496=DIRECTION('',(6.12303176911189E-17,1.,0.));
#497=DIRECTION('',(-1.,6.12303176911189E-17,0.));
#498=DIRECTION('',(6.12303176911189E-17,1.,0.));
#499=DIRECTION('',(-1.,6.12303176911189E-17,0.));
#500=DIRECTION('',(-6.12303176911189E-17,-1.,0.));
#501=DIRECTION('',(1.,-6.12303176911189E-17,0.));
#502=DIRECTION('',(-6.12303176911189E-17,-1.,0.));
#503=DIRECTION('',(1.,-6.12303176911189E-17,0.));
#504=DIRECTION('',(-6.12303176911189E-17,-1.,0.));
#505=DIRECTION('',(1.,-6.12303176911189E-17,0.));
#506=DIRECTION('',(-6.12303176911189E-17,-1.,0.));
#507=DIRECTION('',(1.,-6.12303176911189E-17,0.));
#508=DIRECTION('',(-6.12303176911189E-17,-1.,0.));
#509=DIRECTION('',(1.,-6.12303176911189E-17,0.));
#510=DIRECTION('',(-6.12303176911189E-17,-1.,0.));
#511=DIRECTION('',(1.,-6.12303176911189E-17,0.));
#512=DIRECTION('',(6.12303176911189E-17,1.,0.));
#513=DIRECTION('',(-1.,6.12303176911189E-17,0.));
#514=DIRECTION('',(6.12303176911189E-17,1.,2.89120579329468E-15));
#515=DIRECTION('',(0.,-2.89120579329468E-15,1.));
#516=DIRECTION('',(-6.12303176911189E-17,-1.,-2.89120579329468E-15));
#517=DIRECTION('',(0.,2.89120579329468E-15,-1.));
#518=DIRECTION('',(-6.12303176911189E-17,-1.,-2.89120579329468E-15));
#519=DIRECTION('',(0.,2.89120579329468E-15,-1.));
#520=CARTESIAN_POINT('',(0.,0.,0.));
#521=CARTESIAN_POINT('',(-0.810961226183395,4.14911015200729E-17,1.26188029924677));
#522=CARTESIAN_POINT('',(-0.661323862152074,8.31720111265744E-17,1.02904001588205));
#523=CARTESIAN_POINT('',(-1.13362436153139,6.12478678046429E-17,-0.982291100917926));
#524=CARTESIAN_POINT('',(-0.924449673785113,9.92832881655989E-17,-0.801040202222626));
#525=CARTESIAN_POINT('',(0.422598835262144,-3.40401729333136E-17,-1.43923946042174));
#526=CARTESIAN_POINT('',(0.344621524251921,2.15776555371425E-17,-1.17367312739133));
#527=CARTESIAN_POINT('',(1.36444799303178,-9.17098960806609E-17,0.623122519502828));
#528=CARTESIAN_POINT('',(1.11268207076199,-2.54509357316832E-17,0.50814487534864));
#529=CARTESIAN_POINT('',(-1.36444799303178,7.53812720920295E-17,0.62312251950283));
#530=CARTESIAN_POINT('',(-1.11268207076199,1.10808817632254E-16,0.508144875348641));
#531=CARTESIAN_POINT('',(-1.4847321628214,8.27463100214605E-17,-0.213472257409926));
#532=CARTESIAN_POINT('',(-1.2107715837408,1.16814869674113E-16,-0.174082672727843));
#533=CARTESIAN_POINT('',(-0.422598835262144,1.77115489446822E-17,-1.43923946042174));
#534=CARTESIAN_POINT('',(-0.344621524251922,6.3780226363428E-17,-1.17367312739133));
#535=CARTESIAN_POINT('',(1.13362436153139,-7.75764917932743E-17,-0.982291100917927));
#536=CARTESIAN_POINT('',(0.924449673785113,-1.39254062650284E-17,-0.801040202222626));
#537=CARTESIAN_POINT('',(1.4847321628214,-9.90749340100919E-17,-0.213472257409928));
#538=CARTESIAN_POINT('',(1.2107715837408,-3.14569877735429E-17,-0.174082672727844));
#539=CARTESIAN_POINT('',(0.810961226183395,-5.78197255087043E-17,1.26188029924677));
#540=CARTESIAN_POINT('',(0.661323862152074,2.18587077399608E-18,1.02904001588205));
#541=CARTESIAN_POINT('',(-4.99903417141364E-34,-8.16431199431572E-18,1.5));
#542=CARTESIAN_POINT('',(2.61324511310647E-33,4.26789409502853E-17,1.22322222222222));
#543=CARTESIAN_POINT('',(3.67381906146713E-17,0.6,0.999999999999998));
#544=CARTESIAN_POINT('',(3.67381906146713E-17,0.6,0.));
#545=CARTESIAN_POINT('',(1.05,0.6,0.));
#546=CARTESIAN_POINT('',(3.67381906146713E-17,0.6,0.));
#547=CARTESIAN_POINT('',(1.33333333333333,0.6,0.));
#548=CARTESIAN_POINT('',(0.,0.,0.));
#549=CARTESIAN_POINT('',(1.36067372646931E-17,0.222222222222222,0.));
#550=CARTESIAN_POINT('',(1.33333333333333,0.222222222222222,0.));
#551=CARTESIAN_POINT('',(-4.99903417141364E-34,-8.16431199431572E-18,0.));
#552=CARTESIAN_POINT('',(-1.36067372646931E-17,-0.222222222222222,0.));
#553=CARTESIAN_POINT('',(1.33333333333333,-0.222222222222222,0.));
#554=CARTESIAN_POINT('',(0.,0.,0.));
#555=CARTESIAN_POINT('',(-3.67381906146713E-17,-0.6,0.));
#556=CARTESIAN_POINT('',(1.33333333333333,-0.6,0.));
#557=CARTESIAN_POINT('',(-3.67381906146713E-17,-0.6,1.33333333333333));
#558=CARTESIAN_POINT('',(-3.67381906146713E-17,-0.6,0.));
#559=CARTESIAN_POINT('',(-1.05,-0.6,0.));
#560=CARTESIAN_POINT('',(0.,0.,0.));
#561=CARTESIAN_POINT('',(-3.36766747301154E-17,-0.55,0.));
#562=CARTESIAN_POINT('',(-0.999999999999998,-0.55,0.));
#563=CARTESIAN_POINT('',(3.36766747301154E-17,0.55,0.));
#564=CARTESIAN_POINT('',(0.999999999999998,0.55,0.));
#565=CARTESIAN_POINT('',(3.36766747301154E-17,0.55,0.));
#566=CARTESIAN_POINT('',(-3.36766747301154E-17,-0.55,0.));
#567=CARTESIAN_POINT('',(0.,0.,0.));
#568=CARTESIAN_POINT('',(-3.36766747301154E-17,-0.55,0.));
#569=CARTESIAN_POINT('',(-2.,-0.55,0.));
#570=CARTESIAN_POINT('',(1.53075794227801E-17,0.250000000000006,0.));
#571=CARTESIAN_POINT('',(1.53075794227801E-17,0.25,2.));
#572=CARTESIAN_POINT('',(3.67381906146713E-17,0.6,1.66666666666667));
#573=CARTESIAN_POINT('',(3.67381906146717E-17,0.600000000000006,2.00617702540337E-29));
#574=CARTESIAN_POINT('',(3.67381906146717E-17,0.600000000000013,-2.4));
#575=CARTESIAN_POINT('',(3.67381906146713E-17,0.6,0.));
#576=CARTESIAN_POINT('',(1.66666666666667,0.6,0.));
#577=CARTESIAN_POINT('',(-3.67381906146713E-17,-0.6,2.));
#578=CARTESIAN_POINT('',(-3.67381906146713E-17,-0.6,0.));
#579=CARTESIAN_POINT('',(-1.95,-0.6,0.));
#580=CARTESIAN_POINT('',(-3.67381906146713E-17,-0.6,0.));
#581=CARTESIAN_POINT('',(1.66666666666667,-0.6,0.));
#582=CARTESIAN_POINT('',(0.,0.,0.));
#583=CARTESIAN_POINT('',(-1.36067372646931E-17,-0.222222222222222,0.));
#584=CARTESIAN_POINT('',(1.66666666666666,-0.222222222222222,0.));
#585=CARTESIAN_POINT('',(-4.99903417141364E-34,-8.16431199431572E-18,0.));
#586=CARTESIAN_POINT('',(1.3606737264693E-17,0.222222222222222,0.));
#587=CARTESIAN_POINT('',(1.66666666666667,0.222222222222222,0.));
#588=CARTESIAN_POINT('',(0.,0.,0.));
#589=CARTESIAN_POINT('',(-3.36766747301154E-17,-0.55,0.));
#590=CARTESIAN_POINT('',(1.53075794227797E-17,0.249999999999999,2.4));
#591=CARTESIAN_POINT('',(1.53075794227801E-17,0.250000000000006,-1.01192202765312E-15));
#592=CARTESIAN_POINT('',(1.53075794227801E-17,0.250000000000013,-2.4));
#593=CARTESIAN_POINT('',(3.67381906146713E-17,0.6,0.));
#594=MECHANICAL_DESIGN_GEOMETRIC_PRESENTATION_REPRESENTATION('',(#275,#276,
#277,#278,#279,#280,#281,#282,#283,#284,#285,#286,#287),#595);
#595=(
GEOMETRIC_REPRESENTATION_CONTEXT(3)
GLOBAL_UNCERTAINTY_ASSIGNED_CONTEXT((#596))
GLOBAL_UNIT_ASSIGNED_CONTEXT((#599,#598,#597))
REPRESENTATION_CONTEXT('\X2\6DF16C9F74038F74627F\X0\F 60000\X2\578B\X0\',
'TOP_LEVEL_ASSEMBLY_PART')
);
#596=UNCERTAINTY_MEASURE_WITH_UNIT(LENGTH_MEASURE(0.005),#599,
'DISTANCE_ACCURACY_VALUE','Maximum Tolerance applied to model');
#597=(
NAMED_UNIT(*)
SI_UNIT($,.STERADIAN.)
SOLID_ANGLE_UNIT()
);
#598=(
NAMED_UNIT(*)
PLANE_ANGLE_UNIT()
SI_UNIT($,.RADIAN.)
);
#599=(
LENGTH_UNIT()
NAMED_UNIT(*)
SI_UNIT(.MILLI.,.METRE.)
);
#600=PRODUCT_DEFINITION_SHAPE('','',#601);
#601=PRODUCT_DEFINITION('','',#603,#602);
#602=PRODUCT_DEFINITION_CONTEXT('',#609,'design');
#603=PRODUCT_DEFINITION_FORMATION_WITH_SPECIFIED_SOURCE('','',#605,
 .NOT_KNOWN.);
#604=PRODUCT_RELATED_PRODUCT_CATEGORY('','',(#605));
#605=PRODUCT('\X2\6DF16C9F74038F74627F\X0\F 60000\X2\578B\X0\',
'\X2\6DF16C9F74038F74627F\X0\F 60000\X2\578B\X0\',
'\X2\6DF16C9F74038F74627F\X0\F 60000\X2\578B\X0\',(#607));
#606=PRODUCT_CATEGORY('','');
#607=PRODUCT_CONTEXT('',#609,'mechanical');
#608=APPLICATION_PROTOCOL_DEFINITION('international standard',
'automotive_design',2010,#609);
#609=APPLICATION_CONTEXT(
'core data for automotive mechanical design processes');
ENDSEC;
END-ISO-10303-21;
