ISO-10303-21;
HEADER;
/* Generated by software containing HOOPS Exchange Step
 * from HOOPS Exchange, Inc. (www.tiangong.cloud) 
 */

FILE_DESCRIPTION(
/* description */ ('Unknown'),
/* implementation_level */ '2;1');

FILE_NAME(
/* name */ 'tmp2825.tmp',
/* time_stamp */ '2025-01-11T16:22:37+08:00',
/* author */ ('Unknown'),
/* organization */ ('Unknown'),
/* preprocessor_version */ 'ST-DEVELOPER v18.104',
/* originating_system */ 'TianGong',
/* authorisation */ 'Unknown');

FILE_SCHEMA (('AUTOMOTIVE_DESIGN {1 0 10303 214 3 1 1}'));
ENDSEC;

DATA;
#10=PROPERTY_DEFINITION_REPRESENTATION(#14,#12);
#11=PROPERTY_DEFINITION_REPRESENTATION(#15,#13);
#12=REPRESENTATION('',(#16),#964);
#13=REPRESENTATION('',(#17),#964);
#14=PROPERTY_DEFINITION('pmi validation property','',#969);
#15=PROPERTY_DEFINITION('pmi validation property','',#969);
#16=VALUE_REPRESENTATION_ITEM('number of annotations',COUNT_MEASURE(0.));
#17=VALUE_REPRESENTATION_ITEM('number of views',COUNT_MEASURE(0.));
#18=VERTEX_LOOP('',#192);
#19=VERTEX_LOOP('',#193);
#20=VERTEX_LOOP('',#194);
#21=VERTEX_LOOP('',#195);
#22=VERTEX_LOOP('',#196);
#23=VERTEX_LOOP('',#197);
#24=VERTEX_LOOP('',#198);
#25=VERTEX_LOOP('',#199);
#26=VERTEX_LOOP('',#200);
#27=VERTEX_LOOP('',#201);
#28=VERTEX_LOOP('',#202);
#29=SPHERICAL_SURFACE('',#638,1.249);
#30=SPHERICAL_SURFACE('',#639,1.249);
#31=SPHERICAL_SURFACE('',#640,1.249);
#32=SPHERICAL_SURFACE('',#641,1.249);
#33=SPHERICAL_SURFACE('',#642,1.249);
#34=SPHERICAL_SURFACE('',#643,1.249);
#35=SPHERICAL_SURFACE('',#644,1.249);
#36=SPHERICAL_SURFACE('',#645,1.249);
#37=SPHERICAL_SURFACE('',#646,1.249);
#38=SPHERICAL_SURFACE('',#647,1.249);
#39=SPHERICAL_SURFACE('',#648,1.249);
#40=SHAPE_REPRESENTATION_RELATIONSHIP('','',#588,#41);
#41=ADVANCED_BREP_SHAPE_REPRESENTATION('',(#573,#574,#575,#576,#577,#578,
#579,#580,#581,#582,#583,#584,#585,#586),#964);
#42=CONICAL_SURFACE('',#609,8.,1.32581766366803);
#43=CONICAL_SURFACE('',#613,8.62499999999999,1.32581766366803);
#44=CONICAL_SURFACE('',#633,5.875,1.32581766366803);
#45=CONICAL_SURFACE('',#635,6.5,1.32581766366803);
#46=CONICAL_SURFACE('',#654,6.1875,0.751425950658296);
#47=CONICAL_SURFACE('',#658,7.93750000000001,1.32581766366803);
#48=CONICAL_SURFACE('',#668,6.81249999999999,0.605850307451422);
#49=TOROIDAL_SURFACE('',#606,7.25,1.25);
#50=TOROIDAL_SURFACE('',#607,9.2,0.3);
#51=TOROIDAL_SURFACE('',#608,9.2,0.3);
#52=TOROIDAL_SURFACE('',#622,7.25,1.25);
#53=TOROIDAL_SURFACE('',#631,5.3,0.3);
#54=TOROIDAL_SURFACE('',#632,5.3,0.3);
#55=PLANE('',#596);
#56=PLANE('',#601);
#57=PLANE('',#617);
#58=PLANE('',#626);
#59=PLANE('',#649);
#60=PLANE('',#656);
#61=PLANE('',#662);
#62=PLANE('',#666);
#63=ORIENTED_EDGE('',*,*,#133,.F.);
#64=ORIENTED_EDGE('',*,*,#134,.T.);
#65=ORIENTED_EDGE('',*,*,#135,.T.);
#66=ORIENTED_EDGE('',*,*,#136,.F.);
#67=ORIENTED_EDGE('',*,*,#137,.T.);
#68=ORIENTED_EDGE('',*,*,#133,.T.);
#69=ORIENTED_EDGE('',*,*,#138,.T.);
#70=ORIENTED_EDGE('',*,*,#139,.T.);
#71=ORIENTED_EDGE('',*,*,#140,.T.);
#72=ORIENTED_EDGE('',*,*,#141,.F.);
#73=ORIENTED_EDGE('',*,*,#142,.F.);
#74=ORIENTED_EDGE('',*,*,#141,.T.);
#75=ORIENTED_EDGE('',*,*,#135,.F.);
#76=ORIENTED_EDGE('',*,*,#142,.T.);
#77=ORIENTED_EDGE('',*,*,#139,.F.);
#78=ORIENTED_EDGE('',*,*,#140,.F.);
#79=ORIENTED_EDGE('',*,*,#137,.F.);
#80=ORIENTED_EDGE('',*,*,#138,.F.);
#81=ORIENTED_EDGE('',*,*,#143,.T.);
#82=ORIENTED_EDGE('',*,*,#134,.F.);
#83=ORIENTED_EDGE('',*,*,#144,.T.);
#84=ORIENTED_EDGE('',*,*,#143,.F.);
#85=ORIENTED_EDGE('',*,*,#136,.T.);
#86=ORIENTED_EDGE('',*,*,#144,.F.);
#87=ORIENTED_EDGE('',*,*,#145,.F.);
#88=ORIENTED_EDGE('',*,*,#146,.T.);
#89=ORIENTED_EDGE('',*,*,#147,.T.);
#90=ORIENTED_EDGE('',*,*,#146,.F.);
#91=ORIENTED_EDGE('',*,*,#148,.T.);
#92=ORIENTED_EDGE('',*,*,#149,.F.);
#93=ORIENTED_EDGE('',*,*,#150,.F.);
#94=ORIENTED_EDGE('',*,*,#149,.T.);
#95=ORIENTED_EDGE('',*,*,#151,.F.);
#96=ORIENTED_EDGE('',*,*,#150,.T.);
#97=ORIENTED_EDGE('',*,*,#152,.T.);
#98=ORIENTED_EDGE('',*,*,#151,.T.);
#99=ORIENTED_EDGE('',*,*,#153,.T.);
#100=ORIENTED_EDGE('',*,*,#154,.T.);
#101=ORIENTED_EDGE('',*,*,#154,.F.);
#102=ORIENTED_EDGE('',*,*,#147,.F.);
#103=ORIENTED_EDGE('',*,*,#152,.F.);
#104=ORIENTED_EDGE('',*,*,#153,.F.);
#105=ORIENTED_EDGE('',*,*,#148,.F.);
#106=ORIENTED_EDGE('',*,*,#155,.T.);
#107=ORIENTED_EDGE('',*,*,#156,.F.);
#108=ORIENTED_EDGE('',*,*,#145,.T.);
#109=ORIENTED_EDGE('',*,*,#155,.F.);
#110=ORIENTED_EDGE('',*,*,#156,.T.);
#111=ORIENTED_EDGE('',*,*,#157,.F.);
#112=ORIENTED_EDGE('',*,*,#158,.T.);
#113=ORIENTED_EDGE('',*,*,#159,.F.);
#114=ORIENTED_EDGE('',*,*,#157,.T.);
#115=ORIENTED_EDGE('',*,*,#160,.F.);
#116=ORIENTED_EDGE('',*,*,#159,.T.);
#117=ORIENTED_EDGE('',*,*,#161,.F.);
#118=ORIENTED_EDGE('',*,*,#160,.T.);
#119=ORIENTED_EDGE('',*,*,#162,.F.);
#120=ORIENTED_EDGE('',*,*,#161,.T.);
#121=ORIENTED_EDGE('',*,*,#163,.F.);
#122=ORIENTED_EDGE('',*,*,#162,.T.);
#123=ORIENTED_EDGE('',*,*,#164,.F.);
#124=ORIENTED_EDGE('',*,*,#163,.T.);
#125=ORIENTED_EDGE('',*,*,#165,.F.);
#126=ORIENTED_EDGE('',*,*,#164,.T.);
#127=ORIENTED_EDGE('',*,*,#166,.F.);
#128=ORIENTED_EDGE('',*,*,#165,.T.);
#129=ORIENTED_EDGE('',*,*,#167,.F.);
#130=ORIENTED_EDGE('',*,*,#166,.T.);
#131=ORIENTED_EDGE('',*,*,#158,.F.);
#132=ORIENTED_EDGE('',*,*,#167,.T.);
#133=EDGE_CURVE('',#168,#168,#214,.T.);
#134=EDGE_CURVE('',#169,#169,#215,.T.);
#135=EDGE_CURVE('',#170,#170,#216,.T.);
#136=EDGE_CURVE('',#171,#171,#217,.T.);
#137=EDGE_CURVE('',#172,#172,#218,.F.);
#138=EDGE_CURVE('',#173,#173,#219,.T.);
#139=EDGE_CURVE('',#174,#174,#220,.T.);
#140=EDGE_CURVE('',#175,#175,#221,.F.);
#141=EDGE_CURVE('',#176,#176,#222,.T.);
#142=EDGE_CURVE('',#177,#177,#223,.T.);
#143=EDGE_CURVE('',#178,#178,#224,.T.);
#144=EDGE_CURVE('',#179,#179,#225,.T.);
#145=EDGE_CURVE('',#180,#180,#226,.T.);
#146=EDGE_CURVE('',#181,#181,#227,.T.);
#147=EDGE_CURVE('',#182,#182,#228,.T.);
#148=EDGE_CURVE('',#183,#183,#229,.T.);
#149=EDGE_CURVE('',#184,#184,#230,.T.);
#150=EDGE_CURVE('',#185,#185,#231,.T.);
#151=EDGE_CURVE('',#186,#186,#232,.T.);
#152=EDGE_CURVE('',#187,#187,#233,.T.);
#153=EDGE_CURVE('',#188,#188,#234,.F.);
#154=EDGE_CURVE('',#189,#189,#235,.F.);
#155=EDGE_CURVE('',#190,#190,#236,.T.);
#156=EDGE_CURVE('',#191,#191,#237,.T.);
#157=EDGE_CURVE('',#203,#203,#238,.T.);
#158=EDGE_CURVE('',#204,#204,#239,.T.);
#159=EDGE_CURVE('',#205,#205,#240,.T.);
#160=EDGE_CURVE('',#206,#206,#241,.T.);
#161=EDGE_CURVE('',#207,#207,#242,.T.);
#162=EDGE_CURVE('',#208,#208,#243,.T.);
#163=EDGE_CURVE('',#209,#209,#244,.T.);
#164=EDGE_CURVE('',#210,#210,#245,.T.);
#165=EDGE_CURVE('',#211,#211,#246,.T.);
#166=EDGE_CURVE('',#212,#212,#247,.T.);
#167=EDGE_CURVE('',#213,#213,#248,.T.);
#168=VERTEX_POINT('',#838);
#169=VERTEX_POINT('',#840);
#170=VERTEX_POINT('',#843);
#171=VERTEX_POINT('',#845);
#172=VERTEX_POINT('',#848);
#173=VERTEX_POINT('',#851);
#174=VERTEX_POINT('',#853);
#175=VERTEX_POINT('',#856);
#176=VERTEX_POINT('',#858);
#177=VERTEX_POINT('',#861);
#178=VERTEX_POINT('',#867);
#179=VERTEX_POINT('',#870);
#180=VERTEX_POINT('',#874);
#181=VERTEX_POINT('',#876);
#182=VERTEX_POINT('',#879);
#183=VERTEX_POINT('',#882);
#184=VERTEX_POINT('',#884);
#185=VERTEX_POINT('',#887);
#186=VERTEX_POINT('',#890);
#187=VERTEX_POINT('',#893);
#188=VERTEX_POINT('',#896);
#189=VERTEX_POINT('',#898);
#190=VERTEX_POINT('',#903);
#191=VERTEX_POINT('',#906);
#192=VERTEX_POINT('',#909);
#193=VERTEX_POINT('',#911);
#194=VERTEX_POINT('',#913);
#195=VERTEX_POINT('',#915);
#196=VERTEX_POINT('',#917);
#197=VERTEX_POINT('',#919);
#198=VERTEX_POINT('',#921);
#199=VERTEX_POINT('',#923);
#200=VERTEX_POINT('',#925);
#201=VERTEX_POINT('',#927);
#202=VERTEX_POINT('',#929);
#203=VERTEX_POINT('',#932);
#204=VERTEX_POINT('',#934);
#205=VERTEX_POINT('',#937);
#206=VERTEX_POINT('',#940);
#207=VERTEX_POINT('',#943);
#208=VERTEX_POINT('',#946);
#209=VERTEX_POINT('',#949);
#210=VERTEX_POINT('',#952);
#211=VERTEX_POINT('',#955);
#212=VERTEX_POINT('',#958);
#213=VERTEX_POINT('',#961);
#214=CIRCLE('',#591,8.);
#215=CIRCLE('',#592,8.);
#216=CIRCLE('',#594,8.);
#217=CIRCLE('',#595,8.);
#218=CIRCLE('',#597,9.2);
#219=CIRCLE('',#599,9.5);
#220=CIRCLE('',#600,9.5);
#221=CIRCLE('',#602,9.2);
#222=CIRCLE('',#603,8.);
#223=CIRCLE('',#605,8.);
#224=CIRCLE('',#610,8.625);
#225=CIRCLE('',#612,8.62499999999999);
#226=CIRCLE('',#615,6.5);
#227=CIRCLE('',#616,6.5);
#228=CIRCLE('',#618,5.3);
#229=CIRCLE('',#620,6.5);
#230=CIRCLE('',#621,6.5);
#231=CIRCLE('',#623,6.5);
#232=CIRCLE('',#625,6.5);
#233=CIRCLE('',#627,5.3);
#234=CIRCLE('',#629,5.);
#235=CIRCLE('',#630,5.);
#236=CIRCLE('',#634,5.875);
#237=CIRCLE('',#636,5.875);
#238=CIRCLE('',#650,6.1875);
#239=CIRCLE('',#651,6.5);
#240=CIRCLE('',#653,6.1875);
#241=CIRCLE('',#655,6.51500337085659);
#242=CIRCLE('',#657,7.93750000000001);
#243=CIRCLE('',#659,8.624);
#244=CIRCLE('',#661,8.624);
#245=CIRCLE('',#663,7.93750000000001);
#246=CIRCLE('',#665,7.93750000000001);
#247=CIRCLE('',#667,6.81249999999999);
#248=CIRCLE('',#669,6.49999999999999);
#249=EDGE_LOOP('',(#63));
#250=EDGE_LOOP('',(#64));
#251=EDGE_LOOP('',(#65));
#252=EDGE_LOOP('',(#66));
#253=EDGE_LOOP('',(#67));
#254=EDGE_LOOP('',(#68));
#255=EDGE_LOOP('',(#69));
#256=EDGE_LOOP('',(#70));
#257=EDGE_LOOP('',(#71));
#258=EDGE_LOOP('',(#72));
#259=EDGE_LOOP('',(#73));
#260=EDGE_LOOP('',(#74));
#261=EDGE_LOOP('',(#75));
#262=EDGE_LOOP('',(#76));
#263=EDGE_LOOP('',(#77));
#264=EDGE_LOOP('',(#78));
#265=EDGE_LOOP('',(#79));
#266=EDGE_LOOP('',(#80));
#267=EDGE_LOOP('',(#81));
#268=EDGE_LOOP('',(#82));
#269=EDGE_LOOP('',(#83));
#270=EDGE_LOOP('',(#84));
#271=EDGE_LOOP('',(#85));
#272=EDGE_LOOP('',(#86));
#273=EDGE_LOOP('',(#87));
#274=EDGE_LOOP('',(#88));
#275=EDGE_LOOP('',(#89));
#276=EDGE_LOOP('',(#90));
#277=EDGE_LOOP('',(#91));
#278=EDGE_LOOP('',(#92));
#279=EDGE_LOOP('',(#93));
#280=EDGE_LOOP('',(#94));
#281=EDGE_LOOP('',(#95));
#282=EDGE_LOOP('',(#96));
#283=EDGE_LOOP('',(#97));
#284=EDGE_LOOP('',(#98));
#285=EDGE_LOOP('',(#99));
#286=EDGE_LOOP('',(#100));
#287=EDGE_LOOP('',(#101));
#288=EDGE_LOOP('',(#102));
#289=EDGE_LOOP('',(#103));
#290=EDGE_LOOP('',(#104));
#291=EDGE_LOOP('',(#105));
#292=EDGE_LOOP('',(#106));
#293=EDGE_LOOP('',(#107));
#294=EDGE_LOOP('',(#108));
#295=EDGE_LOOP('',(#109));
#296=EDGE_LOOP('',(#110));
#297=EDGE_LOOP('',(#111));
#298=EDGE_LOOP('',(#112));
#299=EDGE_LOOP('',(#113));
#300=EDGE_LOOP('',(#114));
#301=EDGE_LOOP('',(#115));
#302=EDGE_LOOP('',(#116));
#303=EDGE_LOOP('',(#117));
#304=EDGE_LOOP('',(#118));
#305=EDGE_LOOP('',(#119));
#306=EDGE_LOOP('',(#120));
#307=EDGE_LOOP('',(#121));
#308=EDGE_LOOP('',(#122));
#309=EDGE_LOOP('',(#123));
#310=EDGE_LOOP('',(#124));
#311=EDGE_LOOP('',(#125));
#312=EDGE_LOOP('',(#126));
#313=EDGE_LOOP('',(#127));
#314=EDGE_LOOP('',(#128));
#315=EDGE_LOOP('',(#129));
#316=EDGE_LOOP('',(#130));
#317=EDGE_LOOP('',(#131));
#318=EDGE_LOOP('',(#132));
#319=FACE_BOUND('',#249,.T.);
#320=FACE_BOUND('',#250,.T.);
#321=FACE_BOUND('',#251,.T.);
#322=FACE_BOUND('',#252,.T.);
#323=FACE_BOUND('',#253,.T.);
#324=FACE_BOUND('',#254,.T.);
#325=FACE_BOUND('',#255,.T.);
#326=FACE_BOUND('',#256,.T.);
#327=FACE_BOUND('',#257,.T.);
#328=FACE_BOUND('',#258,.T.);
#329=FACE_BOUND('',#259,.T.);
#330=FACE_BOUND('',#260,.T.);
#331=FACE_BOUND('',#261,.T.);
#332=FACE_BOUND('',#262,.T.);
#333=FACE_BOUND('',#263,.T.);
#334=FACE_BOUND('',#264,.T.);
#335=FACE_BOUND('',#265,.T.);
#336=FACE_BOUND('',#266,.T.);
#337=FACE_BOUND('',#267,.T.);
#338=FACE_BOUND('',#268,.T.);
#339=FACE_BOUND('',#269,.T.);
#340=FACE_BOUND('',#270,.T.);
#341=FACE_BOUND('',#271,.T.);
#342=FACE_BOUND('',#272,.T.);
#343=FACE_BOUND('',#273,.T.);
#344=FACE_BOUND('',#274,.T.);
#345=FACE_BOUND('',#275,.T.);
#346=FACE_BOUND('',#276,.T.);
#347=FACE_BOUND('',#277,.T.);
#348=FACE_BOUND('',#278,.T.);
#349=FACE_BOUND('',#279,.T.);
#350=FACE_BOUND('',#280,.T.);
#351=FACE_BOUND('',#281,.T.);
#352=FACE_BOUND('',#282,.T.);
#353=FACE_BOUND('',#283,.T.);
#354=FACE_BOUND('',#284,.T.);
#355=FACE_BOUND('',#285,.T.);
#356=FACE_BOUND('',#286,.T.);
#357=FACE_BOUND('',#287,.T.);
#358=FACE_BOUND('',#288,.T.);
#359=FACE_BOUND('',#289,.T.);
#360=FACE_BOUND('',#290,.T.);
#361=FACE_BOUND('',#291,.T.);
#362=FACE_BOUND('',#292,.T.);
#363=FACE_BOUND('',#293,.T.);
#364=FACE_BOUND('',#294,.T.);
#365=FACE_BOUND('',#295,.T.);
#366=FACE_BOUND('',#296,.T.);
#367=FACE_BOUND('',#18,.T.);
#368=FACE_BOUND('',#19,.T.);
#369=FACE_BOUND('',#20,.T.);
#370=FACE_BOUND('',#21,.T.);
#371=FACE_BOUND('',#22,.T.);
#372=FACE_BOUND('',#23,.T.);
#373=FACE_BOUND('',#24,.T.);
#374=FACE_BOUND('',#25,.T.);
#375=FACE_BOUND('',#26,.T.);
#376=FACE_BOUND('',#27,.T.);
#377=FACE_BOUND('',#28,.T.);
#378=FACE_BOUND('',#297,.T.);
#379=FACE_BOUND('',#298,.T.);
#380=FACE_BOUND('',#299,.T.);
#381=FACE_BOUND('',#300,.T.);
#382=FACE_BOUND('',#301,.T.);
#383=FACE_BOUND('',#302,.T.);
#384=FACE_BOUND('',#303,.T.);
#385=FACE_BOUND('',#304,.T.);
#386=FACE_BOUND('',#305,.T.);
#387=FACE_BOUND('',#306,.T.);
#388=FACE_BOUND('',#307,.T.);
#389=FACE_BOUND('',#308,.T.);
#390=FACE_BOUND('',#309,.T.);
#391=FACE_BOUND('',#310,.T.);
#392=FACE_BOUND('',#311,.T.);
#393=FACE_BOUND('',#312,.T.);
#394=FACE_BOUND('',#313,.T.);
#395=FACE_BOUND('',#314,.T.);
#396=FACE_BOUND('',#315,.T.);
#397=FACE_BOUND('',#316,.T.);
#398=FACE_BOUND('',#317,.T.);
#399=FACE_BOUND('',#318,.T.);
#400=CYLINDRICAL_SURFACE('',#590,8.);
#401=CYLINDRICAL_SURFACE('',#593,8.);
#402=CYLINDRICAL_SURFACE('',#598,9.5);
#403=CYLINDRICAL_SURFACE('',#604,8.);
#404=CYLINDRICAL_SURFACE('',#611,8.625);
#405=CYLINDRICAL_SURFACE('',#614,6.5);
#406=CYLINDRICAL_SURFACE('',#619,6.5);
#407=CYLINDRICAL_SURFACE('',#624,6.5);
#408=CYLINDRICAL_SURFACE('',#628,5.);
#409=CYLINDRICAL_SURFACE('',#637,5.875);
#410=CYLINDRICAL_SURFACE('',#652,6.1875);
#411=CYLINDRICAL_SURFACE('',#660,8.624);
#412=CYLINDRICAL_SURFACE('',#664,7.93750000000001);
#413=CYLINDRICAL_SURFACE('',#670,6.5);
#414=ADVANCED_FACE('',(#319,#320),#400,.F.);
#415=ADVANCED_FACE('',(#321,#322),#401,.F.);
#416=ADVANCED_FACE('',(#323,#324),#55,.F.);
#417=ADVANCED_FACE('',(#325,#326),#402,.T.);
#418=ADVANCED_FACE('',(#327,#328),#56,.F.);
#419=ADVANCED_FACE('',(#329,#330),#403,.F.);
#420=ADVANCED_FACE('',(#331,#332),#49,.F.);
#421=ADVANCED_FACE('',(#333,#334),#50,.T.);
#422=ADVANCED_FACE('',(#335,#336),#51,.T.);
#423=ADVANCED_FACE('',(#337,#338),#42,.F.);
#424=ADVANCED_FACE('',(#339,#340),#404,.F.);
#425=ADVANCED_FACE('',(#341,#342),#43,.F.);
#426=ADVANCED_FACE('',(#343,#344),#405,.T.);
#427=ADVANCED_FACE('',(#345,#346),#57,.F.);
#428=ADVANCED_FACE('',(#347,#348),#406,.T.);
#429=ADVANCED_FACE('',(#349,#350),#52,.F.);
#430=ADVANCED_FACE('',(#351,#352),#407,.T.);
#431=ADVANCED_FACE('',(#353,#354),#58,.F.);
#432=ADVANCED_FACE('',(#355,#356),#408,.F.);
#433=ADVANCED_FACE('',(#357,#358),#53,.T.);
#434=ADVANCED_FACE('',(#359,#360),#54,.T.);
#435=ADVANCED_FACE('',(#361,#362),#44,.T.);
#436=ADVANCED_FACE('',(#363,#364),#45,.T.);
#437=ADVANCED_FACE('',(#365,#366),#409,.T.);
#438=ADVANCED_FACE('',(#367),#29,.T.);
#439=ADVANCED_FACE('',(#368),#30,.T.);
#440=ADVANCED_FACE('',(#369),#31,.T.);
#441=ADVANCED_FACE('',(#370),#32,.T.);
#442=ADVANCED_FACE('',(#371),#33,.T.);
#443=ADVANCED_FACE('',(#372),#34,.T.);
#444=ADVANCED_FACE('',(#373),#35,.T.);
#445=ADVANCED_FACE('',(#374),#36,.T.);
#446=ADVANCED_FACE('',(#375),#37,.T.);
#447=ADVANCED_FACE('',(#376),#38,.T.);
#448=ADVANCED_FACE('',(#377),#39,.T.);
#449=ADVANCED_FACE('',(#378,#379),#59,.F.);
#450=ADVANCED_FACE('',(#380,#381),#410,.F.);
#451=ADVANCED_FACE('',(#382,#383),#46,.F.);
#452=ADVANCED_FACE('',(#384,#385),#60,.F.);
#453=ADVANCED_FACE('',(#386,#387),#47,.T.);
#454=ADVANCED_FACE('',(#388,#389),#411,.T.);
#455=ADVANCED_FACE('',(#390,#391),#61,.F.);
#456=ADVANCED_FACE('',(#392,#393),#412,.F.);
#457=ADVANCED_FACE('',(#394,#395),#62,.F.);
#458=ADVANCED_FACE('',(#396,#397),#48,.T.);
#459=ADVANCED_FACE('',(#398,#399),#413,.F.);
#460=CLOSED_SHELL('',(#414,#415,#416,#417,#418,#419,#420,#421,#422,#423,
#424,#425));
#461=CLOSED_SHELL('',(#426,#427,#428,#429,#430,#431,#432,#433,#434,#435,
#436,#437));
#462=CLOSED_SHELL('',(#438));
#463=CLOSED_SHELL('',(#439));
#464=CLOSED_SHELL('',(#440));
#465=CLOSED_SHELL('',(#441));
#466=CLOSED_SHELL('',(#442));
#467=CLOSED_SHELL('',(#443));
#468=CLOSED_SHELL('',(#444));
#469=CLOSED_SHELL('',(#445));
#470=CLOSED_SHELL('',(#446));
#471=CLOSED_SHELL('',(#447));
#472=CLOSED_SHELL('',(#448));
#473=CLOSED_SHELL('',(#449,#450,#451,#452,#453,#454,#455,#456,#457,#458,
#459));
#474=STYLED_ITEM('',(#488),#573);
#475=STYLED_ITEM('',(#489),#574);
#476=STYLED_ITEM('',(#490),#575);
#477=STYLED_ITEM('',(#491),#576);
#478=STYLED_ITEM('',(#492),#577);
#479=STYLED_ITEM('',(#493),#578);
#480=STYLED_ITEM('',(#494),#579);
#481=STYLED_ITEM('',(#495),#580);
#482=STYLED_ITEM('',(#496),#581);
#483=STYLED_ITEM('',(#497),#582);
#484=STYLED_ITEM('',(#498),#583);
#485=STYLED_ITEM('',(#499),#584);
#486=STYLED_ITEM('',(#500),#585);
#487=STYLED_ITEM('',(#501),#586);
#488=PRESENTATION_STYLE_ASSIGNMENT((#502));
#489=PRESENTATION_STYLE_ASSIGNMENT((#503));
#490=PRESENTATION_STYLE_ASSIGNMENT((#504));
#491=PRESENTATION_STYLE_ASSIGNMENT((#505));
#492=PRESENTATION_STYLE_ASSIGNMENT((#506));
#493=PRESENTATION_STYLE_ASSIGNMENT((#507));
#494=PRESENTATION_STYLE_ASSIGNMENT((#508));
#495=PRESENTATION_STYLE_ASSIGNMENT((#509));
#496=PRESENTATION_STYLE_ASSIGNMENT((#510));
#497=PRESENTATION_STYLE_ASSIGNMENT((#511));
#498=PRESENTATION_STYLE_ASSIGNMENT((#512));
#499=PRESENTATION_STYLE_ASSIGNMENT((#513));
#500=PRESENTATION_STYLE_ASSIGNMENT((#514));
#501=PRESENTATION_STYLE_ASSIGNMENT((#515));
#502=SURFACE_STYLE_USAGE(.BOTH.,#516);
#503=SURFACE_STYLE_USAGE(.BOTH.,#517);
#504=SURFACE_STYLE_USAGE(.BOTH.,#518);
#505=SURFACE_STYLE_USAGE(.BOTH.,#519);
#506=SURFACE_STYLE_USAGE(.BOTH.,#520);
#507=SURFACE_STYLE_USAGE(.BOTH.,#521);
#508=SURFACE_STYLE_USAGE(.BOTH.,#522);
#509=SURFACE_STYLE_USAGE(.BOTH.,#523);
#510=SURFACE_STYLE_USAGE(.BOTH.,#524);
#511=SURFACE_STYLE_USAGE(.BOTH.,#525);
#512=SURFACE_STYLE_USAGE(.BOTH.,#526);
#513=SURFACE_STYLE_USAGE(.BOTH.,#527);
#514=SURFACE_STYLE_USAGE(.BOTH.,#528);
#515=SURFACE_STYLE_USAGE(.BOTH.,#529);
#516=SURFACE_SIDE_STYLE('',(#530));
#517=SURFACE_SIDE_STYLE('',(#531));
#518=SURFACE_SIDE_STYLE('',(#532));
#519=SURFACE_SIDE_STYLE('',(#533));
#520=SURFACE_SIDE_STYLE('',(#534));
#521=SURFACE_SIDE_STYLE('',(#535));
#522=SURFACE_SIDE_STYLE('',(#536));
#523=SURFACE_SIDE_STYLE('',(#537));
#524=SURFACE_SIDE_STYLE('',(#538));
#525=SURFACE_SIDE_STYLE('',(#539));
#526=SURFACE_SIDE_STYLE('',(#540));
#527=SURFACE_SIDE_STYLE('',(#541));
#528=SURFACE_SIDE_STYLE('',(#542));
#529=SURFACE_SIDE_STYLE('',(#543));
#530=SURFACE_STYLE_FILL_AREA(#544);
#531=SURFACE_STYLE_FILL_AREA(#545);
#532=SURFACE_STYLE_FILL_AREA(#546);
#533=SURFACE_STYLE_FILL_AREA(#547);
#534=SURFACE_STYLE_FILL_AREA(#548);
#535=SURFACE_STYLE_FILL_AREA(#549);
#536=SURFACE_STYLE_FILL_AREA(#550);
#537=SURFACE_STYLE_FILL_AREA(#551);
#538=SURFACE_STYLE_FILL_AREA(#552);
#539=SURFACE_STYLE_FILL_AREA(#553);
#540=SURFACE_STYLE_FILL_AREA(#554);
#541=SURFACE_STYLE_FILL_AREA(#555);
#542=SURFACE_STYLE_FILL_AREA(#556);
#543=SURFACE_STYLE_FILL_AREA(#557);
#544=FILL_AREA_STYLE('',(#558));
#545=FILL_AREA_STYLE('',(#559));
#546=FILL_AREA_STYLE('',(#560));
#547=FILL_AREA_STYLE('',(#561));
#548=FILL_AREA_STYLE('',(#562));
#549=FILL_AREA_STYLE('',(#563));
#550=FILL_AREA_STYLE('',(#564));
#551=FILL_AREA_STYLE('',(#565));
#552=FILL_AREA_STYLE('',(#566));
#553=FILL_AREA_STYLE('',(#567));
#554=FILL_AREA_STYLE('',(#568));
#555=FILL_AREA_STYLE('',(#569));
#556=FILL_AREA_STYLE('',(#570));
#557=FILL_AREA_STYLE('',(#571));
#558=FILL_AREA_STYLE_COLOUR('',#572);
#559=FILL_AREA_STYLE_COLOUR('',#572);
#560=FILL_AREA_STYLE_COLOUR('',#572);
#561=FILL_AREA_STYLE_COLOUR('',#572);
#562=FILL_AREA_STYLE_COLOUR('',#572);
#563=FILL_AREA_STYLE_COLOUR('',#572);
#564=FILL_AREA_STYLE_COLOUR('',#572);
#565=FILL_AREA_STYLE_COLOUR('',#572);
#566=FILL_AREA_STYLE_COLOUR('',#572);
#567=FILL_AREA_STYLE_COLOUR('',#572);
#568=FILL_AREA_STYLE_COLOUR('',#572);
#569=FILL_AREA_STYLE_COLOUR('',#572);
#570=FILL_AREA_STYLE_COLOUR('',#572);
#571=FILL_AREA_STYLE_COLOUR('',#572);
#572=COLOUR_RGB('',0.506983280181885,0.531564235687256,0.550000011920929);
#573=MANIFOLD_SOLID_BREP('',#460);
#574=MANIFOLD_SOLID_BREP('',#461);
#575=MANIFOLD_SOLID_BREP('',#462);
#576=MANIFOLD_SOLID_BREP('',#463);
#577=MANIFOLD_SOLID_BREP('',#464);
#578=MANIFOLD_SOLID_BREP('',#465);
#579=MANIFOLD_SOLID_BREP('',#466);
#580=MANIFOLD_SOLID_BREP('',#467);
#581=MANIFOLD_SOLID_BREP('',#468);
#582=MANIFOLD_SOLID_BREP('',#469);
#583=MANIFOLD_SOLID_BREP('',#470);
#584=MANIFOLD_SOLID_BREP('',#471);
#585=MANIFOLD_SOLID_BREP('',#472);
#586=MANIFOLD_SOLID_BREP('',#473);
#587=SHAPE_DEFINITION_REPRESENTATION(#969,#588);
#588=SHAPE_REPRESENTATION('\X2\6DF16C9F74038F74627F\X0\60000-RS\X2\578B\X0\',
(#589),#964);
#589=AXIS2_PLACEMENT_3D('',#835,#671,#672);
#590=AXIS2_PLACEMENT_3D('',#836,#673,#674);
#591=AXIS2_PLACEMENT_3D('',#837,#675,#676);
#592=AXIS2_PLACEMENT_3D('',#839,#677,#678);
#593=AXIS2_PLACEMENT_3D('',#841,#679,#680);
#594=AXIS2_PLACEMENT_3D('',#842,#681,#682);
#595=AXIS2_PLACEMENT_3D('',#844,#683,#684);
#596=AXIS2_PLACEMENT_3D('',#846,#685,#686);
#597=AXIS2_PLACEMENT_3D('',#847,#687,#688);
#598=AXIS2_PLACEMENT_3D('',#849,#689,#690);
#599=AXIS2_PLACEMENT_3D('',#850,#691,#692);
#600=AXIS2_PLACEMENT_3D('',#852,#693,#694);
#601=AXIS2_PLACEMENT_3D('',#854,#695,#696);
#602=AXIS2_PLACEMENT_3D('',#855,#697,#698);
#603=AXIS2_PLACEMENT_3D('',#857,#699,#700);
#604=AXIS2_PLACEMENT_3D('',#859,#701,#702);
#605=AXIS2_PLACEMENT_3D('',#860,#703,#704);
#606=AXIS2_PLACEMENT_3D('',#862,#705,#706);
#607=AXIS2_PLACEMENT_3D('',#863,#707,#708);
#608=AXIS2_PLACEMENT_3D('',#864,#709,#710);
#609=AXIS2_PLACEMENT_3D('',#865,#711,#712);
#610=AXIS2_PLACEMENT_3D('',#866,#713,#714);
#611=AXIS2_PLACEMENT_3D('',#868,#715,#716);
#612=AXIS2_PLACEMENT_3D('',#869,#717,#718);
#613=AXIS2_PLACEMENT_3D('',#871,#719,#720);
#614=AXIS2_PLACEMENT_3D('',#872,#721,#722);
#615=AXIS2_PLACEMENT_3D('',#873,#723,#724);
#616=AXIS2_PLACEMENT_3D('',#875,#725,#726);
#617=AXIS2_PLACEMENT_3D('',#877,#727,#728);
#618=AXIS2_PLACEMENT_3D('',#878,#729,#730);
#619=AXIS2_PLACEMENT_3D('',#880,#731,#732);
#620=AXIS2_PLACEMENT_3D('',#881,#733,#734);
#621=AXIS2_PLACEMENT_3D('',#883,#735,#736);
#622=AXIS2_PLACEMENT_3D('',#885,#737,#738);
#623=AXIS2_PLACEMENT_3D('',#886,#739,#740);
#624=AXIS2_PLACEMENT_3D('',#888,#741,#742);
#625=AXIS2_PLACEMENT_3D('',#889,#743,#744);
#626=AXIS2_PLACEMENT_3D('',#891,#745,#746);
#627=AXIS2_PLACEMENT_3D('',#892,#747,#748);
#628=AXIS2_PLACEMENT_3D('',#894,#749,#750);
#629=AXIS2_PLACEMENT_3D('',#895,#751,#752);
#630=AXIS2_PLACEMENT_3D('',#897,#753,#754);
#631=AXIS2_PLACEMENT_3D('',#899,#755,#756);
#632=AXIS2_PLACEMENT_3D('',#900,#757,#758);
#633=AXIS2_PLACEMENT_3D('',#901,#759,#760);
#634=AXIS2_PLACEMENT_3D('',#902,#761,#762);
#635=AXIS2_PLACEMENT_3D('',#904,#763,#764);
#636=AXIS2_PLACEMENT_3D('',#905,#765,#766);
#637=AXIS2_PLACEMENT_3D('',#907,#767,#768);
#638=AXIS2_PLACEMENT_3D('',#908,#769,#770);
#639=AXIS2_PLACEMENT_3D('',#910,#771,#772);
#640=AXIS2_PLACEMENT_3D('',#912,#773,#774);
#641=AXIS2_PLACEMENT_3D('',#914,#775,#776);
#642=AXIS2_PLACEMENT_3D('',#916,#777,#778);
#643=AXIS2_PLACEMENT_3D('',#918,#779,#780);
#644=AXIS2_PLACEMENT_3D('',#920,#781,#782);
#645=AXIS2_PLACEMENT_3D('',#922,#783,#784);
#646=AXIS2_PLACEMENT_3D('',#924,#785,#786);
#647=AXIS2_PLACEMENT_3D('',#926,#787,#788);
#648=AXIS2_PLACEMENT_3D('',#928,#789,#790);
#649=AXIS2_PLACEMENT_3D('',#930,#791,#792);
#650=AXIS2_PLACEMENT_3D('',#931,#793,#794);
#651=AXIS2_PLACEMENT_3D('',#933,#795,#796);
#652=AXIS2_PLACEMENT_3D('',#935,#797,#798);
#653=AXIS2_PLACEMENT_3D('',#936,#799,#800);
#654=AXIS2_PLACEMENT_3D('',#938,#801,#802);
#655=AXIS2_PLACEMENT_3D('',#939,#803,#804);
#656=AXIS2_PLACEMENT_3D('',#941,#805,#806);
#657=AXIS2_PLACEMENT_3D('',#942,#807,#808);
#658=AXIS2_PLACEMENT_3D('',#944,#809,#810);
#659=AXIS2_PLACEMENT_3D('',#945,#811,#812);
#660=AXIS2_PLACEMENT_3D('',#947,#813,#814);
#661=AXIS2_PLACEMENT_3D('',#948,#815,#816);
#662=AXIS2_PLACEMENT_3D('',#950,#817,#818);
#663=AXIS2_PLACEMENT_3D('',#951,#819,#820);
#664=AXIS2_PLACEMENT_3D('',#953,#821,#822);
#665=AXIS2_PLACEMENT_3D('',#954,#823,#824);
#666=AXIS2_PLACEMENT_3D('',#956,#825,#826);
#667=AXIS2_PLACEMENT_3D('',#957,#827,#828);
#668=AXIS2_PLACEMENT_3D('',#959,#829,#830);
#669=AXIS2_PLACEMENT_3D('',#960,#831,#832);
#670=AXIS2_PLACEMENT_3D('',#962,#833,#834);
#671=DIRECTION('',(0.,0.,1.));
#672=DIRECTION('',(1.,0.,0.));
#673=DIRECTION('',(-6.12303176911189E-17,-1.,0.));
#674=DIRECTION('',(1.,-6.12303176911189E-17,0.));
#675=DIRECTION('',(-6.12303176911189E-17,-1.,0.));
#676=DIRECTION('',(1.,-6.12303176911189E-17,0.));
#677=DIRECTION('',(-6.12303176911189E-17,-1.,0.));
#678=DIRECTION('',(1.,-6.12303176911189E-17,0.));
#679=DIRECTION('',(-6.12303176911189E-17,-1.,0.));
#680=DIRECTION('',(1.,-6.12303176911189E-17,0.));
#681=DIRECTION('',(-6.12303176911189E-17,-1.,0.));
#682=DIRECTION('',(1.,-6.12303176911189E-17,0.));
#683=DIRECTION('',(-6.12303176911189E-17,-1.,0.));
#684=DIRECTION('',(1.,-6.12303176911189E-17,0.));
#685=DIRECTION('',(-6.12303176911189E-17,-1.,0.));
#686=DIRECTION('',(1.,-6.12303176911189E-17,0.));
#687=DIRECTION('',(-6.12303176911189E-17,-1.,0.));
#688=DIRECTION('',(1.,-6.12303176911189E-17,0.));
#689=DIRECTION('',(-6.12303176911189E-17,-1.,0.));
#690=DIRECTION('',(1.,-6.12303176911189E-17,0.));
#691=DIRECTION('',(-6.12303176911189E-17,-1.,0.));
#692=DIRECTION('',(1.,-6.12303176911189E-17,0.));
#693=DIRECTION('',(6.12303176911189E-17,1.,0.));
#694=DIRECTION('',(-1.,6.12303176911189E-17,0.));
#695=DIRECTION('',(6.12303176911189E-17,1.,0.));
#696=DIRECTION('',(-1.,6.12303176911189E-17,0.));
#697=DIRECTION('',(6.12303176911189E-17,1.,0.));
#698=DIRECTION('',(-1.,6.12303176911189E-17,0.));
#699=DIRECTION('',(-6.12303176911189E-17,-1.,0.));
#700=DIRECTION('',(1.,-6.12303176911189E-17,0.));
#701=DIRECTION('',(-6.12303176911189E-17,-1.,0.));
#702=DIRECTION('',(1.,-6.12303176911189E-17,0.));
#703=DIRECTION('',(-6.12303176911189E-17,-1.,0.));
#704=DIRECTION('',(1.,-6.12303176911189E-17,0.));
#705=DIRECTION('',(-6.12303176911189E-17,-1.,0.));
#706=DIRECTION('',(1.,-6.12303176911189E-17,0.));
#707=DIRECTION('',(6.12303176911189E-17,1.,0.));
#708=DIRECTION('',(-1.,6.12303176911189E-17,0.));
#709=DIRECTION('',(-6.12303176911189E-17,-1.,0.));
#710=DIRECTION('',(1.,-6.12303176911189E-17,0.));
#711=DIRECTION('',(-6.12303176911189E-17,-1.,0.));
#712=DIRECTION('',(1.,-6.12303176911189E-17,0.));
#713=DIRECTION('',(-6.12303176911189E-17,-1.,0.));
#714=DIRECTION('',(1.,-6.12303176911189E-17,0.));
#715=DIRECTION('',(-6.12303176911189E-17,-1.,0.));
#716=DIRECTION('',(1.,-6.12303176911189E-17,0.));
#717=DIRECTION('',(-6.12303176911189E-17,-1.,0.));
#718=DIRECTION('',(1.,-6.12303176911189E-17,0.));
#719=DIRECTION('',(6.12303176911189E-17,1.,0.));
#720=DIRECTION('',(-1.,6.12303176911189E-17,0.));
#721=DIRECTION('',(-6.12303176911189E-17,-1.,0.));
#722=DIRECTION('',(1.,-6.12303176911189E-17,0.));
#723=DIRECTION('',(-6.12303176911189E-17,-1.,0.));
#724=DIRECTION('',(1.,-6.12303176911189E-17,0.));
#725=DIRECTION('',(-6.12303176911189E-17,-1.,0.));
#726=DIRECTION('',(1.,-6.12303176911189E-17,0.));
#727=DIRECTION('',(-6.12303176911189E-17,-1.,0.));
#728=DIRECTION('',(1.,-6.12303176911189E-17,0.));
#729=DIRECTION('',(-6.12303176911189E-17,-1.,0.));
#730=DIRECTION('',(1.,-6.12303176911189E-17,0.));
#731=DIRECTION('',(-6.12303176911189E-17,-1.,0.));
#732=DIRECTION('',(1.,-6.12303176911189E-17,0.));
#733=DIRECTION('',(-6.12303176911189E-17,-1.,0.));
#734=DIRECTION('',(1.,-6.12303176911189E-17,0.));
#735=DIRECTION('',(-6.12303176911189E-17,-1.,0.));
#736=DIRECTION('',(1.,-6.12303176911189E-17,0.));
#737=DIRECTION('',(-6.12303176911189E-17,-1.,0.));
#738=DIRECTION('',(1.,-6.12303176911189E-17,0.));
#739=DIRECTION('',(-6.12303176911189E-17,-1.,0.));
#740=DIRECTION('',(1.,-6.12303176911189E-17,0.));
#741=DIRECTION('',(-6.12303176911189E-17,-1.,0.));
#742=DIRECTION('',(1.,-6.12303176911189E-17,0.));
#743=DIRECTION('',(-6.12303176911189E-17,-1.,0.));
#744=DIRECTION('',(1.,-6.12303176911189E-17,0.));
#745=DIRECTION('',(6.12303176911189E-17,1.,0.));
#746=DIRECTION('',(-1.,6.12303176911189E-17,0.));
#747=DIRECTION('',(6.12303176911189E-17,1.,0.));
#748=DIRECTION('',(-1.,6.12303176911189E-17,0.));
#749=DIRECTION('',(-6.12303176911189E-17,-1.,0.));
#750=DIRECTION('',(1.,-6.12303176911189E-17,0.));
#751=DIRECTION('',(6.12303176911189E-17,1.,0.));
#752=DIRECTION('',(-1.,6.12303176911189E-17,0.));
#753=DIRECTION('',(-6.12303176911189E-17,-1.,0.));
#754=DIRECTION('',(1.,-6.12303176911189E-17,0.));
#755=DIRECTION('',(-6.12303176911189E-17,-1.,0.));
#756=DIRECTION('',(1.,-6.12303176911189E-17,0.));
#757=DIRECTION('',(6.12303176911189E-17,1.,0.));
#758=DIRECTION('',(-1.,6.12303176911189E-17,0.));
#759=DIRECTION('',(-6.12303176911189E-17,-1.,0.));
#760=DIRECTION('',(1.,-6.12303176911189E-17,0.));
#761=DIRECTION('',(-6.12303176911189E-17,-1.,0.));
#762=DIRECTION('',(1.,-6.12303176911189E-17,0.));
#763=DIRECTION('',(6.12303176911189E-17,1.,0.));
#764=DIRECTION('',(-1.,6.12303176911189E-17,0.));
#765=DIRECTION('',(-6.12303176911189E-17,-1.,0.));
#766=DIRECTION('',(1.,-6.12303176911189E-17,0.));
#767=DIRECTION('',(-6.12303176911189E-17,-1.,0.));
#768=DIRECTION('',(1.,-6.12303176911189E-17,0.));
#769=DIRECTION('',(-7.49855125712043E-33,-1.22464679914735E-16,1.));
#770=DIRECTION('',(-6.12303176911189E-17,-1.,-1.22464679914735E-16));
#771=DIRECTION('',(0.540640817455597,-1.55568288924328E-16,0.841253532831181));
#772=DIRECTION('',(-1.27439722349659E-16,-1.,-1.03023844625311E-16));
#773=DIRECTION('',(0.989821441880933,-1.83071761258586E-16,-0.142314838273285));
#774=DIRECTION('',(-1.82448483743809E-16,-1.,1.74285411162552E-17));
#775=DIRECTION('',(0.755749574354258,-1.68739466447374E-16,-0.654860733945285));
#776=DIRECTION('',(-1.53782947410111E-16,-1.,8.0197310171338E-17));
#777=DIRECTION('',(0.281732556841429,-1.39715253874067E-16,-0.959492973614497));
#778=DIRECTION('',(-9.57326050862645E-17,-1.,1.17503999894137E-16));
#779=DIRECTION('',(-0.28173255684143,-1.05214105955403E-16,-0.959492973614497));
#780=DIRECTION('',(-2.67280302959732E-17,-1.,1.17503999894137E-16));
#781=DIRECTION('',(-0.755749574354258,-7.61898933820962E-17,-0.654860733945285));
#782=DIRECTION('',(3.13223120278728E-17,-1.,8.0197310171338E-17));
#783=DIRECTION('',(-0.989821441880933,-6.18575985708844E-17,-0.142314838273284));
#784=DIRECTION('',(5.99878483615713E-17,-1.,1.74285411162551E-17));
#785=DIRECTION('',(-0.909631995354518,-6.67676238571718E-17,0.415415013001887));
#786=DIRECTION('',(5.01674734601742E-17,-1.,-5.08736665990517E-17));
#787=DIRECTION('',(0.909631995354519,-1.78161735972299E-16,0.415415013001886));
#788=DIRECTION('',(-1.72628108842412E-16,-1.,-5.08736665990516E-17));
#789=DIRECTION('',(-0.540640817455597,-8.93610709051429E-17,0.841253532831181));
#790=DIRECTION('',(4.97908696742171E-18,-1.,-1.03023844625311E-16));
#791=DIRECTION('',(6.12303176911189E-17,1.,0.));
#792=DIRECTION('',(-1.,6.12303176911189E-17,0.));
#793=DIRECTION('',(-6.12303176911189E-17,-1.,0.));
#794=DIRECTION('',(1.,-6.12303176911189E-17,0.));
#795=DIRECTION('',(-6.12303176911189E-17,-1.,0.));
#796=DIRECTION('',(1.,-6.12303176911189E-17,0.));
#797=DIRECTION('',(-6.12303176911189E-17,-1.,0.));
#798=DIRECTION('',(1.,-6.12303176911189E-17,0.));
#799=DIRECTION('',(-6.12303176911189E-17,-1.,0.));
#800=DIRECTION('',(1.,-6.12303176911189E-17,0.));
#801=DIRECTION('',(6.12303176911189E-17,1.,0.));
#802=DIRECTION('',(-1.,6.12303176911189E-17,0.));
#803=DIRECTION('',(-6.12303176911189E-17,-1.,0.));
#804=DIRECTION('',(1.,-6.12303176911189E-17,0.));
#805=DIRECTION('',(-6.12303176911189E-17,-1.,0.));
#806=DIRECTION('',(1.,-6.12303176911189E-17,0.));
#807=DIRECTION('',(-6.12303176911189E-17,-1.,0.));
#808=DIRECTION('',(1.,-6.12303176911189E-17,0.));
#809=DIRECTION('',(-6.12303176911189E-17,-1.,0.));
#810=DIRECTION('',(1.,-6.12303176911189E-17,0.));
#811=DIRECTION('',(-6.12303176911189E-17,-1.,0.));
#812=DIRECTION('',(1.,-6.12303176911189E-17,0.));
#813=DIRECTION('',(-6.12303176911189E-17,-1.,0.));
#814=DIRECTION('',(1.,-6.12303176911189E-17,0.));
#815=DIRECTION('',(-6.12303176911189E-17,-1.,0.));
#816=DIRECTION('',(1.,-6.12303176911189E-17,0.));
#817=DIRECTION('',(6.12303176911189E-17,1.,0.));
#818=DIRECTION('',(-1.,6.12303176911189E-17,0.));
#819=DIRECTION('',(-6.12303176911189E-17,-1.,0.));
#820=DIRECTION('',(1.,-6.12303176911189E-17,0.));
#821=DIRECTION('',(-6.12303176911189E-17,-1.,0.));
#822=DIRECTION('',(1.,-6.12303176911189E-17,0.));
#823=DIRECTION('',(-6.12303176911189E-17,-1.,0.));
#824=DIRECTION('',(1.,-6.12303176911189E-17,0.));
#825=DIRECTION('',(6.12303176911189E-17,1.,0.));
#826=DIRECTION('',(-1.,6.12303176911189E-17,0.));
#827=DIRECTION('',(-6.12303176911189E-17,-1.,0.));
#828=DIRECTION('',(1.,-6.12303176911189E-17,0.));
#829=DIRECTION('',(6.12303176911189E-17,1.,0.));
#830=DIRECTION('',(-1.,6.12303176911189E-17,0.));
#831=DIRECTION('',(-6.12303176911189E-17,-1.,0.));
#832=DIRECTION('',(1.,-6.12303176911189E-17,0.));
#833=DIRECTION('',(-6.12303176911189E-17,-1.,0.));
#834=DIRECTION('',(1.,-6.12303176911189E-17,0.));
#835=CARTESIAN_POINT('',(0.,0.,0.));
#836=CARTESIAN_POINT('',(0.,0.,0.));
#837=CARTESIAN_POINT('',(1.53075794227797E-16,2.5,0.));
#838=CARTESIAN_POINT('',(8.,2.5,0.));
#839=CARTESIAN_POINT('',(1.49248899372102E-16,2.4375,0.));
#840=CARTESIAN_POINT('',(8.,2.4375,0.));
#841=CARTESIAN_POINT('',(0.,0.,0.));
#842=CARTESIAN_POINT('',(6.12303176911188E-17,0.999999999999999,0.));
#843=CARTESIAN_POINT('',(8.,0.999999999999998,0.));
#844=CARTESIAN_POINT('',(1.10979950815153E-16,1.8125,0.));
#845=CARTESIAN_POINT('',(8.,1.8125,0.));
#846=CARTESIAN_POINT('',(1.53075794227797E-16,2.5,8.));
#847=CARTESIAN_POINT('',(1.53075794227797E-16,2.5,0.));
#848=CARTESIAN_POINT('',(9.2,2.5,0.));
#849=CARTESIAN_POINT('',(0.,0.,0.));
#850=CARTESIAN_POINT('',(1.34706698920461E-16,2.2,0.));
#851=CARTESIAN_POINT('',(9.5,2.2,0.));
#852=CARTESIAN_POINT('',(-1.34706698920462E-16,-2.2,0.));
#853=CARTESIAN_POINT('',(-9.5,-2.2,0.));
#854=CARTESIAN_POINT('',(-1.53075794227797E-16,-2.5,9.5));
#855=CARTESIAN_POINT('',(-1.53075794227797E-16,-2.5,0.));
#856=CARTESIAN_POINT('',(-9.2,-2.5,0.));
#857=CARTESIAN_POINT('',(-1.53075794227797E-16,-2.5,0.));
#858=CARTESIAN_POINT('',(8.,-2.5,0.));
#859=CARTESIAN_POINT('',(0.,0.,0.));
#860=CARTESIAN_POINT('',(-6.12303176911189E-17,-1.,0.));
#861=CARTESIAN_POINT('',(8.,-1.,0.));
#862=CARTESIAN_POINT('',(-6.12381685998166E-33,-1.00012821930367E-16,0.));
#863=CARTESIAN_POINT('',(-1.34706698920462E-16,-2.2,0.));
#864=CARTESIAN_POINT('',(1.34706698920461E-16,2.2,0.));
#865=CARTESIAN_POINT('',(1.49248899372102E-16,2.4375,0.));
#866=CARTESIAN_POINT('',(1.39681662232865E-16,2.28125,0.));
#867=CARTESIAN_POINT('',(8.625,2.28125,0.));
#868=CARTESIAN_POINT('',(0.,0.,0.));
#869=CARTESIAN_POINT('',(1.2054718795439E-16,1.96875,0.));
#870=CARTESIAN_POINT('',(8.62499999999999,1.96875,0.));
#871=CARTESIAN_POINT('',(1.2054718795439E-16,1.96875,0.));
#872=CARTESIAN_POINT('',(0.,0.,0.));
#873=CARTESIAN_POINT('',(1.49248899372102E-16,2.4375,0.));
#874=CARTESIAN_POINT('',(6.5,2.4375,0.));
#875=CARTESIAN_POINT('',(1.53075794227797E-16,2.5,0.));
#876=CARTESIAN_POINT('',(6.5,2.5,0.));
#877=CARTESIAN_POINT('',(1.53075794227797E-16,2.5,5.));
#878=CARTESIAN_POINT('',(1.53075794227797E-16,2.5,0.));
#879=CARTESIAN_POINT('',(5.3,2.5,0.));
#880=CARTESIAN_POINT('',(0.,0.,0.));
#881=CARTESIAN_POINT('',(1.10979950815153E-16,1.8125,0.));
#882=CARTESIAN_POINT('',(6.5,1.8125,0.));
#883=CARTESIAN_POINT('',(6.12303176911188E-17,0.999999999999999,0.));
#884=CARTESIAN_POINT('',(6.5,0.999999999999999,0.));
#885=CARTESIAN_POINT('',(-6.12381685998166E-33,-1.00012821930367E-16,0.));
#886=CARTESIAN_POINT('',(-6.12303176911189E-17,-1.,0.));
#887=CARTESIAN_POINT('',(6.5,-1.,0.));
#888=CARTESIAN_POINT('',(0.,0.,0.));
#889=CARTESIAN_POINT('',(-1.53075794227797E-16,-2.5,0.));
#890=CARTESIAN_POINT('',(6.5,-2.5,0.));
#891=CARTESIAN_POINT('',(-1.53075794227797E-16,-2.5,6.5));
#892=CARTESIAN_POINT('',(-1.53075794227797E-16,-2.5,0.));
#893=CARTESIAN_POINT('',(-5.3,-2.5,0.));
#894=CARTESIAN_POINT('',(0.,0.,0.));
#895=CARTESIAN_POINT('',(-1.34706698920461E-16,-2.2,0.));
#896=CARTESIAN_POINT('',(-5.,-2.2,0.));
#897=CARTESIAN_POINT('',(1.34706698920461E-16,2.2,0.));
#898=CARTESIAN_POINT('',(5.,2.2,0.));
#899=CARTESIAN_POINT('',(1.34706698920461E-16,2.2,0.));
#900=CARTESIAN_POINT('',(-1.34706698920461E-16,-2.2,0.));
#901=CARTESIAN_POINT('',(1.2054718795439E-16,1.96875,0.));
#902=CARTESIAN_POINT('',(1.2054718795439E-16,1.96875,0.));
#903=CARTESIAN_POINT('',(5.875,1.96875,0.));
#904=CARTESIAN_POINT('',(1.49248899372102E-16,2.4375,0.));
#905=CARTESIAN_POINT('',(1.39681662232865E-16,2.28125,0.));
#906=CARTESIAN_POINT('',(5.875,2.28125,0.));
#907=CARTESIAN_POINT('',(0.,0.,0.));
#908=CARTESIAN_POINT('',(-6.12381685998165E-33,-1.00012821930367E-16,7.25));
#909=CARTESIAN_POINT('',(-1.44097159990995E-33,-2.35336293236145E-17,6.001));
#910=CARTESIAN_POINT('',(3.91964592655308,-3.40013987249912E-16,6.09908811302606));
#911=CARTESIAN_POINT('',(3.24438554555104,-2.22188386990179E-16,5.04836245051992));
#912=CARTESIAN_POINT('',(7.17620545363676,-5.39414161673285E-16,-1.03178257748132));
#913=CARTESIAN_POINT('',(5.93991847272748,-3.87236724468063E-16,-0.854031344477984));
#914=CARTESIAN_POINT('',(5.47918441406837,-4.35505024292E-16,-4.74774032110332));
#915=CARTESIAN_POINT('',(4.5352531956999,-3.01228623305982E-16,-3.92981926440565));
#916=CARTESIAN_POINT('',(2.04256103710036,-2.25079483135523E-16,-6.95632405870511));
#917=CARTESIAN_POINT('',(1.69067707360542,-1.27054323653565E-16,-5.7579173346606));
#918=CARTESIAN_POINT('',(-2.04256103710036,2.50538392747899E-17,-6.9563240587051));
#919=CARTESIAN_POINT('',(-1.69067707360542,7.99870650063365E-17,-5.7579173346606));
#920=CARTESIAN_POINT('',(-5.47918441406837,2.35479380431267E-16,-4.74774032110331));
#921=CARTESIAN_POINT('',(-4.5352531956999,2.54161364658753E-16,-3.92981926440565));
#922=CARTESIAN_POINT('',(-7.17620545363676,3.39388517812552E-16,-1.03178257748131));
#923=CARTESIAN_POINT('',(-5.93991847272748,3.40169465820834E-16,-0.854031344477979));
#924=CARTESIAN_POINT('',(-6.59483196632026,3.03790834486969E-16,3.01175884426368));
#925=CARTESIAN_POINT('',(-5.45870160412246,3.10704404077824E-16,2.49290549302432));
#926=CARTESIAN_POINT('',(6.59483196632026,-5.03816478347702E-16,3.01175884426367));
#927=CARTESIAN_POINT('',(5.45870160412246,-3.57771662725053E-16,2.49290549302432));
#928=CARTESIAN_POINT('',(-3.91964592655308,1.39988343389178E-16,6.09908811302606));
#929=CARTESIAN_POINT('',(-3.24438554555104,1.7512112834295E-16,5.04836245051992));
#930=CARTESIAN_POINT('',(1.24851502442476E-16,2.03904711179679,6.5));
#931=CARTESIAN_POINT('',(1.24851502442476E-16,2.03904711179679,0.));
#932=CARTESIAN_POINT('',(6.1875,2.03904711179679,0.));
#933=CARTESIAN_POINT('',(1.24851502442476E-16,2.03904711179679,0.));
#934=CARTESIAN_POINT('',(6.5,2.03904711179679,0.));
#935=CARTESIAN_POINT('',(0.,0.,0.));
#936=CARTESIAN_POINT('',(1.28678397298171E-16,2.10154711179679,0.));
#937=CARTESIAN_POINT('',(6.1875,2.10154711179679,0.));
#938=CARTESIAN_POINT('',(1.28678397298171E-16,2.10154711179679,0.));
#939=CARTESIAN_POINT('',(1.50142508319193E-16,2.45209422359359,0.));
#940=CARTESIAN_POINT('',(6.51500337085659,2.45209422359359,0.));
#941=CARTESIAN_POINT('',(1.50142508319193E-16,2.45209422359359,6.51500337085659));
#942=CARTESIAN_POINT('',(1.50142508319193E-16,2.45209422359359,0.));
#943=CARTESIAN_POINT('',(7.93750000000001,2.45209422359359,0.));
#944=CARTESIAN_POINT('',(1.50142508319193E-16,2.45209422359359,0.));
#945=CARTESIAN_POINT('',(1.39633855045455E-16,2.28046922359359,0.));
#946=CARTESIAN_POINT('',(8.624,2.28046922359359,0.));
#947=CARTESIAN_POINT('',(0.,0.,0.));
#948=CARTESIAN_POINT('',(1.2054718795439E-16,1.96875,0.));
#949=CARTESIAN_POINT('',(8.624,1.96875,0.));
#950=CARTESIAN_POINT('',(1.2054718795439E-16,1.96875,8.624));
#951=CARTESIAN_POINT('',(1.2054718795439E-16,1.96875,0.));
#952=CARTESIAN_POINT('',(7.93750000000001,1.96875,0.));
#953=CARTESIAN_POINT('',(0.,0.,0.));
#954=CARTESIAN_POINT('',(1.38661823752108E-16,2.26459422359359,0.));
#955=CARTESIAN_POINT('',(7.93750000000001,2.26459422359359,0.));
#956=CARTESIAN_POINT('',(1.38661823752108E-16,2.26459422359359,7.93750000000001));
#957=CARTESIAN_POINT('',(1.38661823752108E-16,2.26459422359359,0.));
#958=CARTESIAN_POINT('',(6.81249999999999,2.26459422359359,0.));
#959=CARTESIAN_POINT('',(1.38661823752108E-16,2.26459422359359,0.));
#960=CARTESIAN_POINT('',(1.11041181132844E-16,1.8135,0.));
#961=CARTESIAN_POINT('',(6.49999999999999,1.8135,0.));
#962=CARTESIAN_POINT('',(0.,0.,0.));
#963=MECHANICAL_DESIGN_GEOMETRIC_PRESENTATION_REPRESENTATION('',(#474,#475,
#476,#477,#478,#479,#480,#481,#482,#483,#484,#485,#486,#487),#964);
#964=(
GEOMETRIC_REPRESENTATION_CONTEXT(3)
GLOBAL_UNCERTAINTY_ASSIGNED_CONTEXT((#965))
GLOBAL_UNIT_ASSIGNED_CONTEXT((#968,#967,#966))
REPRESENTATION_CONTEXT('\X2\6DF16C9F74038F74627F\X0\60000-RS\X2\578B\X0\',
'TOP_LEVEL_ASSEMBLY_PART')
);
#965=UNCERTAINTY_MEASURE_WITH_UNIT(LENGTH_MEASURE(0.005),#968,
'DISTANCE_ACCURACY_VALUE','Maximum Tolerance applied to model');
#966=(
NAMED_UNIT(*)
SI_UNIT($,.STERADIAN.)
SOLID_ANGLE_UNIT()
);
#967=(
NAMED_UNIT(*)
PLANE_ANGLE_UNIT()
SI_UNIT($,.RADIAN.)
);
#968=(
LENGTH_UNIT()
NAMED_UNIT(*)
SI_UNIT(.MILLI.,.METRE.)
);
#969=PRODUCT_DEFINITION_SHAPE('','',#970);
#970=PRODUCT_DEFINITION('','',#972,#971);
#971=PRODUCT_DEFINITION_CONTEXT('',#978,'design');
#972=PRODUCT_DEFINITION_FORMATION_WITH_SPECIFIED_SOURCE('','',#974,
 .NOT_KNOWN.);
#973=PRODUCT_RELATED_PRODUCT_CATEGORY('','',(#974));
#974=PRODUCT('\X2\6DF16C9F74038F74627F\X0\60000-RS\X2\578B\X0\',
'\X2\6DF16C9F74038F74627F\X0\60000-RS\X2\578B\X0\',
'\X2\6DF16C9F74038F74627F\X0\60000-RS\X2\578B\X0\',(#976));
#975=PRODUCT_CATEGORY('','');
#976=PRODUCT_CONTEXT('',#978,'mechanical');
#977=APPLICATION_PROTOCOL_DEFINITION('international standard',
'automotive_design',2010,#978);
#978=APPLICATION_CONTEXT(
'core data for automotive mechanical design processes');
ENDSEC;
END-ISO-10303-21;
