ISO-10303-21;
HEADER;
/* Generated by software containing HOOPS Exchange Step
 * from HOOPS Exchange, Inc. (www.tiangong.cloud) 
 */

FILE_DESCRIPTION(
/* description */ ('Unknown'),
/* implementation_level */ '2;1');

FILE_NAME(
/* name */ '\X2\6DF16C9F74038F74627F\X0\F 60000-Z\X2\578B\X0\',
/* time_stamp */ '2025-10-13T02:51:33+08:00',
/* author */ ('Unknown'),
/* organization */ ('Unknown'),
/* preprocessor_version */ 'ST-DEVELOPER v19.4',
/* originating_system */ 'TianGong',
/* authorisation */ 'Unknown');

FILE_SCHEMA (('AUTOMOTIVE_DESIGN {1 0 10303 214 3 1 1}'));
ENDSEC;

DATA;
#10=PROPERTY_DEFINITION_REPRESENTATION(#14,#12);
#11=PROPERTY_DEFINITION_REPRESENTATION(#15,#13);
#12=REPRESENTATION('',(#16),#1044);
#13=REPRESENTATION('',(#17),#1044);
#14=PROPERTY_DEFINITION('pmi validation property','',#1049);
#15=PROPERTY_DEFINITION('pmi validation property','',#1049);
#16=VALUE_REPRESENTATION_ITEM('number of annotations',COUNT_MEASURE(0.));
#17=VALUE_REPRESENTATION_ITEM('number of views',COUNT_MEASURE(0.));
#18=VERTEX_LOOP('',#201);
#19=VERTEX_LOOP('',#202);
#20=VERTEX_LOOP('',#203);
#21=VERTEX_LOOP('',#204);
#22=VERTEX_LOOP('',#205);
#23=VERTEX_LOOP('',#206);
#24=VERTEX_LOOP('',#207);
#25=VERTEX_LOOP('',#208);
#26=VERTEX_LOOP('',#209);
#27=VERTEX_LOOP('',#210);
#28=VERTEX_LOOP('',#211);
#29=SPHERICAL_SURFACE('',#662,0.415666666666667);
#30=SPHERICAL_SURFACE('',#663,0.415666666666667);
#31=SPHERICAL_SURFACE('',#664,0.415666666666667);
#32=SPHERICAL_SURFACE('',#665,0.415666666666667);
#33=SPHERICAL_SURFACE('',#666,0.415666666666667);
#34=SPHERICAL_SURFACE('',#667,0.415666666666667);
#35=SPHERICAL_SURFACE('',#668,0.415666666666667);
#36=SPHERICAL_SURFACE('',#669,0.415666666666667);
#37=SPHERICAL_SURFACE('',#670,0.415666666666667);
#38=SPHERICAL_SURFACE('',#671,0.415666666666667);
#39=SPHERICAL_SURFACE('',#672,0.415666666666667);
#40=SHAPE_REPRESENTATION_RELATIONSHIP('','',#632,#41);
#41=ADVANCED_BREP_SHAPE_REPRESENTATION('',(#617,#618,#619,#620,#621,#622,
#623,#624,#625,#626,#627,#628,#629,#630),#1044);
#42=TOROIDAL_SURFACE('',#655,2.65394176951967,0.0700582304803317);
#43=TOROIDAL_SURFACE('',#659,2.65394176951967,0.0950582304803316);
#44=TOROIDAL_SURFACE('',#681,2.25,0.416666666666667);
#45=TOROIDAL_SURFACE('',#690,1.58,0.08);
#46=TOROIDAL_SURFACE('',#691,1.58,0.08);
#47=TOROIDAL_SURFACE('',#713,2.25,0.416666666666667);
#48=TOROIDAL_SURFACE('',#714,2.92,0.08);
#49=CYLINDRICAL_SURFACE('',#641,2.0125);
#50=CYLINDRICAL_SURFACE('',#645,1.9875);
#51=CYLINDRICAL_SURFACE('',#653,2.724);
#52=CYLINDRICAL_SURFACE('',#661,2.749);
#53=CYLINDRICAL_SURFACE('',#673,2.);
#54=CYLINDRICAL_SURFACE('',#678,2.);
#55=CYLINDRICAL_SURFACE('',#683,2.);
#56=CYLINDRICAL_SURFACE('',#687,1.5);
#57=CYLINDRICAL_SURFACE('',#696,1.75);
#58=CYLINDRICAL_SURFACE('',#697,3.);
#59=CYLINDRICAL_SURFACE('',#700,2.5);
#60=CYLINDRICAL_SURFACE('',#703,2.5);
#61=CYLINDRICAL_SURFACE('',#711,2.5);
#62=CYLINDRICAL_SURFACE('',#717,2.75);
#63=CYLINDRICAL_SURFACE('',#720,3.6);
#64=CONICAL_SURFACE('',#637,2.5,0.523598775598298);
#65=CONICAL_SURFACE('',#649,2.43504809471617,0.523598775598298);
#66=CONICAL_SURFACE('',#692,1.75,1.32581766366803);
#67=CONICAL_SURFACE('',#694,2.,1.32581766366803);
#68=CONICAL_SURFACE('',#715,2.5,1.32581766366803);
#69=CONICAL_SURFACE('',#719,2.75,1.32581766366803);
#70=ORIENTED_EDGE('',*,*,#148,.F.);
#71=ORIENTED_EDGE('',*,*,#149,.T.);
#72=ORIENTED_EDGE('',*,*,#150,.F.);
#73=ORIENTED_EDGE('',*,*,#148,.T.);
#74=ORIENTED_EDGE('',*,*,#151,.F.);
#75=ORIENTED_EDGE('',*,*,#150,.T.);
#76=ORIENTED_EDGE('',*,*,#152,.F.);
#77=ORIENTED_EDGE('',*,*,#151,.T.);
#78=ORIENTED_EDGE('',*,*,#153,.F.);
#79=ORIENTED_EDGE('',*,*,#152,.T.);
#80=ORIENTED_EDGE('',*,*,#154,.F.);
#81=ORIENTED_EDGE('',*,*,#153,.T.);
#82=ORIENTED_EDGE('',*,*,#155,.F.);
#83=ORIENTED_EDGE('',*,*,#154,.T.);
#84=ORIENTED_EDGE('',*,*,#156,.F.);
#85=ORIENTED_EDGE('',*,*,#155,.T.);
#86=ORIENTED_EDGE('',*,*,#157,.F.);
#87=ORIENTED_EDGE('',*,*,#156,.T.);
#88=ORIENTED_EDGE('',*,*,#158,.F.);
#89=ORIENTED_EDGE('',*,*,#157,.T.);
#90=ORIENTED_EDGE('',*,*,#159,.F.);
#91=ORIENTED_EDGE('',*,*,#158,.T.);
#92=ORIENTED_EDGE('',*,*,#160,.F.);
#93=ORIENTED_EDGE('',*,*,#159,.T.);
#94=ORIENTED_EDGE('',*,*,#161,.F.);
#95=ORIENTED_EDGE('',*,*,#160,.T.);
#96=ORIENTED_EDGE('',*,*,#149,.F.);
#97=ORIENTED_EDGE('',*,*,#161,.T.);
#98=ORIENTED_EDGE('',*,*,#162,.F.);
#99=ORIENTED_EDGE('',*,*,#163,.T.);
#100=ORIENTED_EDGE('',*,*,#164,.T.);
#101=ORIENTED_EDGE('',*,*,#163,.F.);
#102=ORIENTED_EDGE('',*,*,#165,.T.);
#103=ORIENTED_EDGE('',*,*,#166,.F.);
#104=ORIENTED_EDGE('',*,*,#167,.F.);
#105=ORIENTED_EDGE('',*,*,#166,.T.);
#106=ORIENTED_EDGE('',*,*,#168,.F.);
#107=ORIENTED_EDGE('',*,*,#167,.T.);
#108=ORIENTED_EDGE('',*,*,#169,.T.);
#109=ORIENTED_EDGE('',*,*,#168,.T.);
#110=ORIENTED_EDGE('',*,*,#170,.T.);
#111=ORIENTED_EDGE('',*,*,#171,.T.);
#112=ORIENTED_EDGE('',*,*,#171,.F.);
#113=ORIENTED_EDGE('',*,*,#164,.F.);
#114=ORIENTED_EDGE('',*,*,#169,.F.);
#115=ORIENTED_EDGE('',*,*,#170,.F.);
#116=ORIENTED_EDGE('',*,*,#165,.F.);
#117=ORIENTED_EDGE('',*,*,#172,.T.);
#118=ORIENTED_EDGE('',*,*,#173,.F.);
#119=ORIENTED_EDGE('',*,*,#162,.T.);
#120=ORIENTED_EDGE('',*,*,#172,.F.);
#121=ORIENTED_EDGE('',*,*,#173,.T.);
#122=ORIENTED_EDGE('',*,*,#174,.T.);
#123=ORIENTED_EDGE('',*,*,#175,.F.);
#124=ORIENTED_EDGE('',*,*,#176,.F.);
#125=ORIENTED_EDGE('',*,*,#177,.T.);
#126=ORIENTED_EDGE('',*,*,#178,.T.);
#127=ORIENTED_EDGE('',*,*,#179,.F.);
#128=ORIENTED_EDGE('',*,*,#180,.F.);
#129=ORIENTED_EDGE('',*,*,#176,.T.);
#130=ORIENTED_EDGE('',*,*,#181,.T.);
#131=ORIENTED_EDGE('',*,*,#182,.F.);
#132=ORIENTED_EDGE('',*,*,#183,.F.);
#133=ORIENTED_EDGE('',*,*,#182,.T.);
#134=ORIENTED_EDGE('',*,*,#178,.F.);
#135=ORIENTED_EDGE('',*,*,#183,.T.);
#136=ORIENTED_EDGE('',*,*,#174,.F.);
#137=ORIENTED_EDGE('',*,*,#181,.F.);
#138=ORIENTED_EDGE('',*,*,#184,.T.);
#139=ORIENTED_EDGE('',*,*,#177,.F.);
#140=ORIENTED_EDGE('',*,*,#185,.T.);
#141=ORIENTED_EDGE('',*,*,#184,.F.);
#142=ORIENTED_EDGE('',*,*,#179,.T.);
#143=ORIENTED_EDGE('',*,*,#185,.F.);
#144=ORIENTED_EDGE('',*,*,#186,.F.);
#145=ORIENTED_EDGE('',*,*,#180,.T.);
#146=ORIENTED_EDGE('',*,*,#175,.T.);
#147=ORIENTED_EDGE('',*,*,#186,.T.);
#148=EDGE_CURVE('',#187,#187,#237,.T.);
#149=EDGE_CURVE('',#188,#188,#238,.T.);
#150=EDGE_CURVE('',#189,#189,#239,.T.);
#151=EDGE_CURVE('',#190,#190,#240,.T.);
#152=EDGE_CURVE('',#191,#191,#241,.T.);
#153=EDGE_CURVE('',#192,#192,#242,.T.);
#154=EDGE_CURVE('',#193,#193,#243,.T.);
#155=EDGE_CURVE('',#194,#194,#244,.T.);
#156=EDGE_CURVE('',#195,#195,#245,.T.);
#157=EDGE_CURVE('',#196,#196,#246,.T.);
#158=EDGE_CURVE('',#197,#197,#247,.T.);
#159=EDGE_CURVE('',#198,#198,#248,.T.);
#160=EDGE_CURVE('',#199,#199,#249,.T.);
#161=EDGE_CURVE('',#200,#200,#250,.T.);
#162=EDGE_CURVE('',#212,#212,#251,.T.);
#163=EDGE_CURVE('',#213,#213,#252,.T.);
#164=EDGE_CURVE('',#214,#214,#253,.T.);
#165=EDGE_CURVE('',#215,#215,#254,.T.);
#166=EDGE_CURVE('',#216,#216,#255,.T.);
#167=EDGE_CURVE('',#217,#217,#256,.T.);
#168=EDGE_CURVE('',#218,#218,#257,.T.);
#169=EDGE_CURVE('',#219,#219,#258,.T.);
#170=EDGE_CURVE('',#220,#220,#259,.F.);
#171=EDGE_CURVE('',#221,#221,#260,.F.);
#172=EDGE_CURVE('',#222,#222,#261,.T.);
#173=EDGE_CURVE('',#223,#223,#262,.T.);
#174=EDGE_CURVE('',#224,#224,#263,.T.);
#175=EDGE_CURVE('',#225,#225,#264,.T.);
#176=EDGE_CURVE('',#226,#226,#265,.T.);
#177=EDGE_CURVE('',#227,#227,#266,.T.);
#178=EDGE_CURVE('',#228,#228,#267,.T.);
#179=EDGE_CURVE('',#229,#229,#268,.T.);
#180=EDGE_CURVE('',#230,#230,#269,.T.);
#181=EDGE_CURVE('',#231,#231,#270,.F.);
#182=EDGE_CURVE('',#232,#232,#271,.T.);
#183=EDGE_CURVE('',#233,#233,#272,.T.);
#184=EDGE_CURVE('',#234,#234,#273,.T.);
#185=EDGE_CURVE('',#235,#235,#274,.T.);
#186=EDGE_CURVE('',#236,#236,#275,.T.);
#187=VERTEX_POINT('',#906);
#188=VERTEX_POINT('',#908);
#189=VERTEX_POINT('',#911);
#190=VERTEX_POINT('',#914);
#191=VERTEX_POINT('',#917);
#192=VERTEX_POINT('',#920);
#193=VERTEX_POINT('',#923);
#194=VERTEX_POINT('',#926);
#195=VERTEX_POINT('',#929);
#196=VERTEX_POINT('',#932);
#197=VERTEX_POINT('',#935);
#198=VERTEX_POINT('',#938);
#199=VERTEX_POINT('',#941);
#200=VERTEX_POINT('',#944);
#201=VERTEX_POINT('',#947);
#202=VERTEX_POINT('',#949);
#203=VERTEX_POINT('',#951);
#204=VERTEX_POINT('',#953);
#205=VERTEX_POINT('',#955);
#206=VERTEX_POINT('',#957);
#207=VERTEX_POINT('',#959);
#208=VERTEX_POINT('',#961);
#209=VERTEX_POINT('',#963);
#210=VERTEX_POINT('',#965);
#211=VERTEX_POINT('',#967);
#212=VERTEX_POINT('',#970);
#213=VERTEX_POINT('',#972);
#214=VERTEX_POINT('',#975);
#215=VERTEX_POINT('',#978);
#216=VERTEX_POINT('',#980);
#217=VERTEX_POINT('',#983);
#218=VERTEX_POINT('',#986);
#219=VERTEX_POINT('',#989);
#220=VERTEX_POINT('',#992);
#221=VERTEX_POINT('',#994);
#222=VERTEX_POINT('',#999);
#223=VERTEX_POINT('',#1002);
#224=VERTEX_POINT('',#1006);
#225=VERTEX_POINT('',#1008);
#226=VERTEX_POINT('',#1011);
#227=VERTEX_POINT('',#1013);
#228=VERTEX_POINT('',#1016);
#229=VERTEX_POINT('',#1018);
#230=VERTEX_POINT('',#1021);
#231=VERTEX_POINT('',#1024);
#232=VERTEX_POINT('',#1026);
#233=VERTEX_POINT('',#1029);
#234=VERTEX_POINT('',#1034);
#235=VERTEX_POINT('',#1037);
#236=VERTEX_POINT('',#1041);
#237=CIRCLE('',#635,2.5);
#238=CIRCLE('',#636,2.749);
#239=CIRCLE('',#638,2.42061433798643);
#240=CIRCLE('',#640,2.0125);
#241=CIRCLE('',#642,2.0125);
#242=CIRCLE('',#644,1.9875);
#243=CIRCLE('',#646,1.9875);
#244=CIRCLE('',#648,2.43504809471617);
#245=CIRCLE('',#650,2.51443375672974);
#246=CIRCLE('',#652,2.724);
#247=CIRCLE('',#654,2.724);
#248=CIRCLE('',#656,2.58388353903934);
#249=CIRCLE('',#658,2.55888353903934);
#250=CIRCLE('',#660,2.749);
#251=CIRCLE('',#674,2.);
#252=CIRCLE('',#675,2.);
#253=CIRCLE('',#677,1.58);
#254=CIRCLE('',#679,2.);
#255=CIRCLE('',#680,2.);
#256=CIRCLE('',#682,2.);
#257=CIRCLE('',#684,2.);
#258=CIRCLE('',#686,1.58);
#259=CIRCLE('',#688,1.5);
#260=CIRCLE('',#689,1.5);
#261=CIRCLE('',#693,1.75);
#262=CIRCLE('',#695,1.75);
#263=CIRCLE('',#698,3.);
#264=CIRCLE('',#699,3.);
#265=CIRCLE('',#701,2.5);
#266=CIRCLE('',#702,2.5);
#267=CIRCLE('',#704,2.5);
#268=CIRCLE('',#705,2.5);
#269=CIRCLE('',#707,3.6);
#270=CIRCLE('',#709,2.92);
#271=CIRCLE('',#710,2.5);
#272=CIRCLE('',#712,2.5);
#273=CIRCLE('',#716,2.75);
#274=CIRCLE('',#718,2.75);
#275=CIRCLE('',#721,3.6);
#276=EDGE_LOOP('',(#70));
#277=EDGE_LOOP('',(#71));
#278=EDGE_LOOP('',(#72));
#279=EDGE_LOOP('',(#73));
#280=EDGE_LOOP('',(#74));
#281=EDGE_LOOP('',(#75));
#282=EDGE_LOOP('',(#76));
#283=EDGE_LOOP('',(#77));
#284=EDGE_LOOP('',(#78));
#285=EDGE_LOOP('',(#79));
#286=EDGE_LOOP('',(#80));
#287=EDGE_LOOP('',(#81));
#288=EDGE_LOOP('',(#82));
#289=EDGE_LOOP('',(#83));
#290=EDGE_LOOP('',(#84));
#291=EDGE_LOOP('',(#85));
#292=EDGE_LOOP('',(#86));
#293=EDGE_LOOP('',(#87));
#294=EDGE_LOOP('',(#88));
#295=EDGE_LOOP('',(#89));
#296=EDGE_LOOP('',(#90));
#297=EDGE_LOOP('',(#91));
#298=EDGE_LOOP('',(#92));
#299=EDGE_LOOP('',(#93));
#300=EDGE_LOOP('',(#94));
#301=EDGE_LOOP('',(#95));
#302=EDGE_LOOP('',(#96));
#303=EDGE_LOOP('',(#97));
#304=EDGE_LOOP('',(#98));
#305=EDGE_LOOP('',(#99));
#306=EDGE_LOOP('',(#100));
#307=EDGE_LOOP('',(#101));
#308=EDGE_LOOP('',(#102));
#309=EDGE_LOOP('',(#103));
#310=EDGE_LOOP('',(#104));
#311=EDGE_LOOP('',(#105));
#312=EDGE_LOOP('',(#106));
#313=EDGE_LOOP('',(#107));
#314=EDGE_LOOP('',(#108));
#315=EDGE_LOOP('',(#109));
#316=EDGE_LOOP('',(#110));
#317=EDGE_LOOP('',(#111));
#318=EDGE_LOOP('',(#112));
#319=EDGE_LOOP('',(#113));
#320=EDGE_LOOP('',(#114));
#321=EDGE_LOOP('',(#115));
#322=EDGE_LOOP('',(#116));
#323=EDGE_LOOP('',(#117));
#324=EDGE_LOOP('',(#118));
#325=EDGE_LOOP('',(#119));
#326=EDGE_LOOP('',(#120));
#327=EDGE_LOOP('',(#121));
#328=EDGE_LOOP('',(#122));
#329=EDGE_LOOP('',(#123));
#330=EDGE_LOOP('',(#124));
#331=EDGE_LOOP('',(#125));
#332=EDGE_LOOP('',(#126));
#333=EDGE_LOOP('',(#127));
#334=EDGE_LOOP('',(#128));
#335=EDGE_LOOP('',(#129));
#336=EDGE_LOOP('',(#130));
#337=EDGE_LOOP('',(#131));
#338=EDGE_LOOP('',(#132));
#339=EDGE_LOOP('',(#133));
#340=EDGE_LOOP('',(#134));
#341=EDGE_LOOP('',(#135));
#342=EDGE_LOOP('',(#136));
#343=EDGE_LOOP('',(#137));
#344=EDGE_LOOP('',(#138));
#345=EDGE_LOOP('',(#139));
#346=EDGE_LOOP('',(#140));
#347=EDGE_LOOP('',(#141));
#348=EDGE_LOOP('',(#142));
#349=EDGE_LOOP('',(#143));
#350=EDGE_LOOP('',(#144));
#351=EDGE_LOOP('',(#145));
#352=EDGE_LOOP('',(#146));
#353=EDGE_LOOP('',(#147));
#354=FACE_BOUND('',#276,.T.);
#355=FACE_BOUND('',#277,.T.);
#356=FACE_BOUND('',#278,.T.);
#357=FACE_BOUND('',#279,.T.);
#358=FACE_BOUND('',#280,.T.);
#359=FACE_BOUND('',#281,.T.);
#360=FACE_BOUND('',#282,.T.);
#361=FACE_BOUND('',#283,.T.);
#362=FACE_BOUND('',#284,.T.);
#363=FACE_BOUND('',#285,.T.);
#364=FACE_BOUND('',#286,.T.);
#365=FACE_BOUND('',#287,.T.);
#366=FACE_BOUND('',#288,.T.);
#367=FACE_BOUND('',#289,.T.);
#368=FACE_BOUND('',#290,.T.);
#369=FACE_BOUND('',#291,.T.);
#370=FACE_BOUND('',#292,.T.);
#371=FACE_BOUND('',#293,.T.);
#372=FACE_BOUND('',#294,.T.);
#373=FACE_BOUND('',#295,.T.);
#374=FACE_BOUND('',#296,.T.);
#375=FACE_BOUND('',#297,.T.);
#376=FACE_BOUND('',#298,.T.);
#377=FACE_BOUND('',#299,.T.);
#378=FACE_BOUND('',#300,.T.);
#379=FACE_BOUND('',#301,.T.);
#380=FACE_BOUND('',#302,.T.);
#381=FACE_BOUND('',#303,.T.);
#382=FACE_BOUND('',#18,.T.);
#383=FACE_BOUND('',#19,.T.);
#384=FACE_BOUND('',#20,.T.);
#385=FACE_BOUND('',#21,.T.);
#386=FACE_BOUND('',#22,.T.);
#387=FACE_BOUND('',#23,.T.);
#388=FACE_BOUND('',#24,.T.);
#389=FACE_BOUND('',#25,.T.);
#390=FACE_BOUND('',#26,.T.);
#391=FACE_BOUND('',#27,.T.);
#392=FACE_BOUND('',#28,.T.);
#393=FACE_BOUND('',#304,.T.);
#394=FACE_BOUND('',#305,.T.);
#395=FACE_BOUND('',#306,.T.);
#396=FACE_BOUND('',#307,.T.);
#397=FACE_BOUND('',#308,.T.);
#398=FACE_BOUND('',#309,.T.);
#399=FACE_BOUND('',#310,.T.);
#400=FACE_BOUND('',#311,.T.);
#401=FACE_BOUND('',#312,.T.);
#402=FACE_BOUND('',#313,.T.);
#403=FACE_BOUND('',#314,.T.);
#404=FACE_BOUND('',#315,.T.);
#405=FACE_BOUND('',#316,.T.);
#406=FACE_BOUND('',#317,.T.);
#407=FACE_BOUND('',#318,.T.);
#408=FACE_BOUND('',#319,.T.);
#409=FACE_BOUND('',#320,.T.);
#410=FACE_BOUND('',#321,.T.);
#411=FACE_BOUND('',#322,.T.);
#412=FACE_BOUND('',#323,.T.);
#413=FACE_BOUND('',#324,.T.);
#414=FACE_BOUND('',#325,.T.);
#415=FACE_BOUND('',#326,.T.);
#416=FACE_BOUND('',#327,.T.);
#417=FACE_BOUND('',#328,.T.);
#418=FACE_BOUND('',#329,.T.);
#419=FACE_BOUND('',#330,.T.);
#420=FACE_BOUND('',#331,.T.);
#421=FACE_BOUND('',#332,.T.);
#422=FACE_BOUND('',#333,.T.);
#423=FACE_BOUND('',#334,.T.);
#424=FACE_BOUND('',#335,.T.);
#425=FACE_BOUND('',#336,.T.);
#426=FACE_BOUND('',#337,.T.);
#427=FACE_BOUND('',#338,.T.);
#428=FACE_BOUND('',#339,.T.);
#429=FACE_BOUND('',#340,.T.);
#430=FACE_BOUND('',#341,.T.);
#431=FACE_BOUND('',#342,.T.);
#432=FACE_BOUND('',#343,.T.);
#433=FACE_BOUND('',#344,.T.);
#434=FACE_BOUND('',#345,.T.);
#435=FACE_BOUND('',#346,.T.);
#436=FACE_BOUND('',#347,.T.);
#437=FACE_BOUND('',#348,.T.);
#438=FACE_BOUND('',#349,.T.);
#439=FACE_BOUND('',#350,.T.);
#440=FACE_BOUND('',#351,.T.);
#441=FACE_BOUND('',#352,.T.);
#442=FACE_BOUND('',#353,.T.);
#443=PLANE('',#634);
#444=PLANE('',#639);
#445=PLANE('',#643);
#446=PLANE('',#647);
#447=PLANE('',#651);
#448=PLANE('',#657);
#449=PLANE('',#676);
#450=PLANE('',#685);
#451=PLANE('',#706);
#452=PLANE('',#708);
#453=PLANE('',#722);
#454=ADVANCED_FACE('',(#354,#355),#443,.F.);
#455=ADVANCED_FACE('',(#356,#357),#64,.F.);
#456=ADVANCED_FACE('',(#358,#359),#444,.F.);
#457=ADVANCED_FACE('',(#360,#361),#49,.T.);
#458=ADVANCED_FACE('',(#362,#363),#445,.F.);
#459=ADVANCED_FACE('',(#364,#365),#50,.F.);
#460=ADVANCED_FACE('',(#366,#367),#446,.F.);
#461=ADVANCED_FACE('',(#368,#369),#65,.T.);
#462=ADVANCED_FACE('',(#370,#371),#447,.F.);
#463=ADVANCED_FACE('',(#372,#373),#51,.F.);
#464=ADVANCED_FACE('',(#374,#375),#42,.F.);
#465=ADVANCED_FACE('',(#376,#377),#448,.F.);
#466=ADVANCED_FACE('',(#378,#379),#43,.T.);
#467=ADVANCED_FACE('',(#380,#381),#52,.T.);
#468=ADVANCED_FACE('',(#382),#29,.T.);
#469=ADVANCED_FACE('',(#383),#30,.T.);
#470=ADVANCED_FACE('',(#384),#31,.T.);
#471=ADVANCED_FACE('',(#385),#32,.T.);
#472=ADVANCED_FACE('',(#386),#33,.T.);
#473=ADVANCED_FACE('',(#387),#34,.T.);
#474=ADVANCED_FACE('',(#388),#35,.T.);
#475=ADVANCED_FACE('',(#389),#36,.T.);
#476=ADVANCED_FACE('',(#390),#37,.T.);
#477=ADVANCED_FACE('',(#391),#38,.T.);
#478=ADVANCED_FACE('',(#392),#39,.T.);
#479=ADVANCED_FACE('',(#393,#394),#53,.T.);
#480=ADVANCED_FACE('',(#395,#396),#449,.F.);
#481=ADVANCED_FACE('',(#397,#398),#54,.T.);
#482=ADVANCED_FACE('',(#399,#400),#44,.F.);
#483=ADVANCED_FACE('',(#401,#402),#55,.T.);
#484=ADVANCED_FACE('',(#403,#404),#450,.F.);
#485=ADVANCED_FACE('',(#405,#406),#56,.F.);
#486=ADVANCED_FACE('',(#407,#408),#45,.T.);
#487=ADVANCED_FACE('',(#409,#410),#46,.T.);
#488=ADVANCED_FACE('',(#411,#412),#66,.T.);
#489=ADVANCED_FACE('',(#413,#414),#67,.T.);
#490=ADVANCED_FACE('',(#415,#416),#57,.T.);
#491=ADVANCED_FACE('',(#417,#418),#58,.T.);
#492=ADVANCED_FACE('',(#419,#420),#59,.F.);
#493=ADVANCED_FACE('',(#421,#422),#60,.F.);
#494=ADVANCED_FACE('',(#423,#424),#451,.F.);
#495=ADVANCED_FACE('',(#425,#426),#452,.F.);
#496=ADVANCED_FACE('',(#427,#428),#61,.F.);
#497=ADVANCED_FACE('',(#429,#430),#47,.F.);
#498=ADVANCED_FACE('',(#431,#432),#48,.T.);
#499=ADVANCED_FACE('',(#433,#434),#68,.F.);
#500=ADVANCED_FACE('',(#435,#436),#62,.F.);
#501=ADVANCED_FACE('',(#437,#438),#69,.F.);
#502=ADVANCED_FACE('',(#439,#440),#63,.T.);
#503=ADVANCED_FACE('',(#441,#442),#453,.F.);
#504=CLOSED_SHELL('',(#454,#455,#456,#457,#458,#459,#460,#461,#462,#463,
#464,#465,#466,#467));
#505=CLOSED_SHELL('',(#468));
#506=CLOSED_SHELL('',(#469));
#507=CLOSED_SHELL('',(#470));
#508=CLOSED_SHELL('',(#471));
#509=CLOSED_SHELL('',(#472));
#510=CLOSED_SHELL('',(#473));
#511=CLOSED_SHELL('',(#474));
#512=CLOSED_SHELL('',(#475));
#513=CLOSED_SHELL('',(#476));
#514=CLOSED_SHELL('',(#477));
#515=CLOSED_SHELL('',(#478));
#516=CLOSED_SHELL('',(#479,#480,#481,#482,#483,#484,#485,#486,#487,#488,
#489,#490));
#517=CLOSED_SHELL('',(#491,#492,#493,#494,#495,#496,#497,#498,#499,#500,
#501,#502,#503));
#518=STYLED_ITEM('',(#532),#617);
#519=STYLED_ITEM('',(#533),#618);
#520=STYLED_ITEM('',(#534),#619);
#521=STYLED_ITEM('',(#535),#620);
#522=STYLED_ITEM('',(#536),#621);
#523=STYLED_ITEM('',(#537),#622);
#524=STYLED_ITEM('',(#538),#623);
#525=STYLED_ITEM('',(#539),#624);
#526=STYLED_ITEM('',(#540),#625);
#527=STYLED_ITEM('',(#541),#626);
#528=STYLED_ITEM('',(#542),#627);
#529=STYLED_ITEM('',(#543),#628);
#530=STYLED_ITEM('',(#544),#629);
#531=STYLED_ITEM('',(#545),#630);
#532=PRESENTATION_STYLE_ASSIGNMENT((#546));
#533=PRESENTATION_STYLE_ASSIGNMENT((#547));
#534=PRESENTATION_STYLE_ASSIGNMENT((#548));
#535=PRESENTATION_STYLE_ASSIGNMENT((#549));
#536=PRESENTATION_STYLE_ASSIGNMENT((#550));
#537=PRESENTATION_STYLE_ASSIGNMENT((#551));
#538=PRESENTATION_STYLE_ASSIGNMENT((#552));
#539=PRESENTATION_STYLE_ASSIGNMENT((#553));
#540=PRESENTATION_STYLE_ASSIGNMENT((#554));
#541=PRESENTATION_STYLE_ASSIGNMENT((#555));
#542=PRESENTATION_STYLE_ASSIGNMENT((#556));
#543=PRESENTATION_STYLE_ASSIGNMENT((#557));
#544=PRESENTATION_STYLE_ASSIGNMENT((#558));
#545=PRESENTATION_STYLE_ASSIGNMENT((#559));
#546=SURFACE_STYLE_USAGE(.BOTH.,#560);
#547=SURFACE_STYLE_USAGE(.BOTH.,#561);
#548=SURFACE_STYLE_USAGE(.BOTH.,#562);
#549=SURFACE_STYLE_USAGE(.BOTH.,#563);
#550=SURFACE_STYLE_USAGE(.BOTH.,#564);
#551=SURFACE_STYLE_USAGE(.BOTH.,#565);
#552=SURFACE_STYLE_USAGE(.BOTH.,#566);
#553=SURFACE_STYLE_USAGE(.BOTH.,#567);
#554=SURFACE_STYLE_USAGE(.BOTH.,#568);
#555=SURFACE_STYLE_USAGE(.BOTH.,#569);
#556=SURFACE_STYLE_USAGE(.BOTH.,#570);
#557=SURFACE_STYLE_USAGE(.BOTH.,#571);
#558=SURFACE_STYLE_USAGE(.BOTH.,#572);
#559=SURFACE_STYLE_USAGE(.BOTH.,#573);
#560=SURFACE_SIDE_STYLE('',(#574));
#561=SURFACE_SIDE_STYLE('',(#575));
#562=SURFACE_SIDE_STYLE('',(#576));
#563=SURFACE_SIDE_STYLE('',(#577));
#564=SURFACE_SIDE_STYLE('',(#578));
#565=SURFACE_SIDE_STYLE('',(#579));
#566=SURFACE_SIDE_STYLE('',(#580));
#567=SURFACE_SIDE_STYLE('',(#581));
#568=SURFACE_SIDE_STYLE('',(#582));
#569=SURFACE_SIDE_STYLE('',(#583));
#570=SURFACE_SIDE_STYLE('',(#584));
#571=SURFACE_SIDE_STYLE('',(#585));
#572=SURFACE_SIDE_STYLE('',(#586));
#573=SURFACE_SIDE_STYLE('',(#587));
#574=SURFACE_STYLE_FILL_AREA(#588);
#575=SURFACE_STYLE_FILL_AREA(#589);
#576=SURFACE_STYLE_FILL_AREA(#590);
#577=SURFACE_STYLE_FILL_AREA(#591);
#578=SURFACE_STYLE_FILL_AREA(#592);
#579=SURFACE_STYLE_FILL_AREA(#593);
#580=SURFACE_STYLE_FILL_AREA(#594);
#581=SURFACE_STYLE_FILL_AREA(#595);
#582=SURFACE_STYLE_FILL_AREA(#596);
#583=SURFACE_STYLE_FILL_AREA(#597);
#584=SURFACE_STYLE_FILL_AREA(#598);
#585=SURFACE_STYLE_FILL_AREA(#599);
#586=SURFACE_STYLE_FILL_AREA(#600);
#587=SURFACE_STYLE_FILL_AREA(#601);
#588=FILL_AREA_STYLE('',(#602));
#589=FILL_AREA_STYLE('',(#603));
#590=FILL_AREA_STYLE('',(#604));
#591=FILL_AREA_STYLE('',(#605));
#592=FILL_AREA_STYLE('',(#606));
#593=FILL_AREA_STYLE('',(#607));
#594=FILL_AREA_STYLE('',(#608));
#595=FILL_AREA_STYLE('',(#609));
#596=FILL_AREA_STYLE('',(#610));
#597=FILL_AREA_STYLE('',(#611));
#598=FILL_AREA_STYLE('',(#612));
#599=FILL_AREA_STYLE('',(#613));
#600=FILL_AREA_STYLE('',(#614));
#601=FILL_AREA_STYLE('',(#615));
#602=FILL_AREA_STYLE_COLOUR('',#616);
#603=FILL_AREA_STYLE_COLOUR('',#616);
#604=FILL_AREA_STYLE_COLOUR('',#616);
#605=FILL_AREA_STYLE_COLOUR('',#616);
#606=FILL_AREA_STYLE_COLOUR('',#616);
#607=FILL_AREA_STYLE_COLOUR('',#616);
#608=FILL_AREA_STYLE_COLOUR('',#616);
#609=FILL_AREA_STYLE_COLOUR('',#616);
#610=FILL_AREA_STYLE_COLOUR('',#616);
#611=FILL_AREA_STYLE_COLOUR('',#616);
#612=FILL_AREA_STYLE_COLOUR('',#616);
#613=FILL_AREA_STYLE_COLOUR('',#616);
#614=FILL_AREA_STYLE_COLOUR('',#616);
#615=FILL_AREA_STYLE_COLOUR('',#616);
#616=COLOUR_RGB('',0.506983280181885,0.531564235687256,0.550000011920929);
#617=MANIFOLD_SOLID_BREP('',#504);
#618=MANIFOLD_SOLID_BREP('',#505);
#619=MANIFOLD_SOLID_BREP('',#506);
#620=MANIFOLD_SOLID_BREP('',#507);
#621=MANIFOLD_SOLID_BREP('',#508);
#622=MANIFOLD_SOLID_BREP('',#509);
#623=MANIFOLD_SOLID_BREP('',#510);
#624=MANIFOLD_SOLID_BREP('',#511);
#625=MANIFOLD_SOLID_BREP('',#512);
#626=MANIFOLD_SOLID_BREP('',#513);
#627=MANIFOLD_SOLID_BREP('',#514);
#628=MANIFOLD_SOLID_BREP('',#515);
#629=MANIFOLD_SOLID_BREP('',#516);
#630=MANIFOLD_SOLID_BREP('',#517);
#631=SHAPE_DEFINITION_REPRESENTATION(#1049,#632);
#632=SHAPE_REPRESENTATION('\X2\6DF16C9F74038F74627F\X0\F 60000-Z\X2\578B\X0\',
(#633),#1044);
#633=AXIS2_PLACEMENT_3D('',#903,#723,#724);
#634=AXIS2_PLACEMENT_3D('',#904,#725,#726);
#635=AXIS2_PLACEMENT_3D('',#905,#727,#728);
#636=AXIS2_PLACEMENT_3D('',#907,#729,#730);
#637=AXIS2_PLACEMENT_3D('',#909,#731,#732);
#638=AXIS2_PLACEMENT_3D('',#910,#733,#734);
#639=AXIS2_PLACEMENT_3D('',#912,#735,#736);
#640=AXIS2_PLACEMENT_3D('',#913,#737,#738);
#641=AXIS2_PLACEMENT_3D('',#915,#739,#740);
#642=AXIS2_PLACEMENT_3D('',#916,#741,#742);
#643=AXIS2_PLACEMENT_3D('',#918,#743,#744);
#644=AXIS2_PLACEMENT_3D('',#919,#745,#746);
#645=AXIS2_PLACEMENT_3D('',#921,#747,#748);
#646=AXIS2_PLACEMENT_3D('',#922,#749,#750);
#647=AXIS2_PLACEMENT_3D('',#924,#751,#752);
#648=AXIS2_PLACEMENT_3D('',#925,#753,#754);
#649=AXIS2_PLACEMENT_3D('',#927,#755,#756);
#650=AXIS2_PLACEMENT_3D('',#928,#757,#758);
#651=AXIS2_PLACEMENT_3D('',#930,#759,#760);
#652=AXIS2_PLACEMENT_3D('',#931,#761,#762);
#653=AXIS2_PLACEMENT_3D('',#933,#763,#764);
#654=AXIS2_PLACEMENT_3D('',#934,#765,#766);
#655=AXIS2_PLACEMENT_3D('',#936,#767,#768);
#656=AXIS2_PLACEMENT_3D('',#937,#769,#770);
#657=AXIS2_PLACEMENT_3D('',#939,#771,#772);
#658=AXIS2_PLACEMENT_3D('',#940,#773,#774);
#659=AXIS2_PLACEMENT_3D('',#942,#775,#776);
#660=AXIS2_PLACEMENT_3D('',#943,#777,#778);
#661=AXIS2_PLACEMENT_3D('',#945,#779,#780);
#662=AXIS2_PLACEMENT_3D('',#946,#781,#782);
#663=AXIS2_PLACEMENT_3D('',#948,#783,#784);
#664=AXIS2_PLACEMENT_3D('',#950,#785,#786);
#665=AXIS2_PLACEMENT_3D('',#952,#787,#788);
#666=AXIS2_PLACEMENT_3D('',#954,#789,#790);
#667=AXIS2_PLACEMENT_3D('',#956,#791,#792);
#668=AXIS2_PLACEMENT_3D('',#958,#793,#794);
#669=AXIS2_PLACEMENT_3D('',#960,#795,#796);
#670=AXIS2_PLACEMENT_3D('',#962,#797,#798);
#671=AXIS2_PLACEMENT_3D('',#964,#799,#800);
#672=AXIS2_PLACEMENT_3D('',#966,#801,#802);
#673=AXIS2_PLACEMENT_3D('',#968,#803,#804);
#674=AXIS2_PLACEMENT_3D('',#969,#805,#806);
#675=AXIS2_PLACEMENT_3D('',#971,#807,#808);
#676=AXIS2_PLACEMENT_3D('',#973,#809,#810);
#677=AXIS2_PLACEMENT_3D('',#974,#811,#812);
#678=AXIS2_PLACEMENT_3D('',#976,#813,#814);
#679=AXIS2_PLACEMENT_3D('',#977,#815,#816);
#680=AXIS2_PLACEMENT_3D('',#979,#817,#818);
#681=AXIS2_PLACEMENT_3D('',#981,#819,#820);
#682=AXIS2_PLACEMENT_3D('',#982,#821,#822);
#683=AXIS2_PLACEMENT_3D('',#984,#823,#824);
#684=AXIS2_PLACEMENT_3D('',#985,#825,#826);
#685=AXIS2_PLACEMENT_3D('',#987,#827,#828);
#686=AXIS2_PLACEMENT_3D('',#988,#829,#830);
#687=AXIS2_PLACEMENT_3D('',#990,#831,#832);
#688=AXIS2_PLACEMENT_3D('',#991,#833,#834);
#689=AXIS2_PLACEMENT_3D('',#993,#835,#836);
#690=AXIS2_PLACEMENT_3D('',#995,#837,#838);
#691=AXIS2_PLACEMENT_3D('',#996,#839,#840);
#692=AXIS2_PLACEMENT_3D('',#997,#841,#842);
#693=AXIS2_PLACEMENT_3D('',#998,#843,#844);
#694=AXIS2_PLACEMENT_3D('',#1000,#845,#846);
#695=AXIS2_PLACEMENT_3D('',#1001,#847,#848);
#696=AXIS2_PLACEMENT_3D('',#1003,#849,#850);
#697=AXIS2_PLACEMENT_3D('',#1004,#851,#852);
#698=AXIS2_PLACEMENT_3D('',#1005,#853,#854);
#699=AXIS2_PLACEMENT_3D('',#1007,#855,#856);
#700=AXIS2_PLACEMENT_3D('',#1009,#857,#858);
#701=AXIS2_PLACEMENT_3D('',#1010,#859,#860);
#702=AXIS2_PLACEMENT_3D('',#1012,#861,#862);
#703=AXIS2_PLACEMENT_3D('',#1014,#863,#864);
#704=AXIS2_PLACEMENT_3D('',#1015,#865,#866);
#705=AXIS2_PLACEMENT_3D('',#1017,#867,#868);
#706=AXIS2_PLACEMENT_3D('',#1019,#869,#870);
#707=AXIS2_PLACEMENT_3D('',#1020,#871,#872);
#708=AXIS2_PLACEMENT_3D('',#1022,#873,#874);
#709=AXIS2_PLACEMENT_3D('',#1023,#875,#876);
#710=AXIS2_PLACEMENT_3D('',#1025,#877,#878);
#711=AXIS2_PLACEMENT_3D('',#1027,#879,#880);
#712=AXIS2_PLACEMENT_3D('',#1028,#881,#882);
#713=AXIS2_PLACEMENT_3D('',#1030,#883,#884);
#714=AXIS2_PLACEMENT_3D('',#1031,#885,#886);
#715=AXIS2_PLACEMENT_3D('',#1032,#887,#888);
#716=AXIS2_PLACEMENT_3D('',#1033,#889,#890);
#717=AXIS2_PLACEMENT_3D('',#1035,#891,#892);
#718=AXIS2_PLACEMENT_3D('',#1036,#893,#894);
#719=AXIS2_PLACEMENT_3D('',#1038,#895,#896);
#720=AXIS2_PLACEMENT_3D('',#1039,#897,#898);
#721=AXIS2_PLACEMENT_3D('',#1040,#899,#900);
#722=AXIS2_PLACEMENT_3D('',#1042,#901,#902);
#723=DIRECTION('',(0.,0.,1.));
#724=DIRECTION('',(1.,0.,0.));
#725=DIRECTION('',(6.12303176911189E-17,1.,0.));
#726=DIRECTION('',(-1.,6.12303176911189E-17,0.));
#727=DIRECTION('',(-6.12303176911189E-17,-1.,0.));
#728=DIRECTION('',(1.,-6.12303176911189E-17,0.));
#729=DIRECTION('',(-6.12303176911189E-17,-1.,0.));
#730=DIRECTION('',(1.,-6.12303176911189E-17,0.));
#731=DIRECTION('',(-6.12303176911189E-17,-1.,0.));
#732=DIRECTION('',(1.,-6.12303176911189E-17,0.));
#733=DIRECTION('',(-6.12303176911189E-17,-1.,0.));
#734=DIRECTION('',(1.,-6.12303176911189E-17,0.));
#735=DIRECTION('',(6.12303176911189E-17,1.,0.));
#736=DIRECTION('',(-1.,6.12303176911189E-17,0.));
#737=DIRECTION('',(-6.12303176911189E-17,-1.,0.));
#738=DIRECTION('',(1.,-6.12303176911189E-17,0.));
#739=DIRECTION('',(-6.12303176911189E-17,-1.,0.));
#740=DIRECTION('',(1.,-6.12303176911189E-17,0.));
#741=DIRECTION('',(-6.12303176911189E-17,-1.,0.));
#742=DIRECTION('',(1.,-6.12303176911189E-17,0.));
#743=DIRECTION('',(6.12303176911189E-17,1.,0.));
#744=DIRECTION('',(-1.,6.12303176911189E-17,0.));
#745=DIRECTION('',(-6.12303176911189E-17,-1.,0.));
#746=DIRECTION('',(1.,-6.12303176911189E-17,0.));
#747=DIRECTION('',(-6.12303176911189E-17,-1.,0.));
#748=DIRECTION('',(1.,-6.12303176911189E-17,0.));
#749=DIRECTION('',(-6.12303176911189E-17,-1.,0.));
#750=DIRECTION('',(1.,-6.12303176911189E-17,0.));
#751=DIRECTION('',(-6.12303176911189E-17,-1.,0.));
#752=DIRECTION('',(1.,-6.12303176911189E-17,0.));
#753=DIRECTION('',(-6.12303176911189E-17,-1.,0.));
#754=DIRECTION('',(1.,-6.12303176911189E-17,0.));
#755=DIRECTION('',(-6.12303176911189E-17,-1.,0.));
#756=DIRECTION('',(1.,-6.12303176911189E-17,0.));
#757=DIRECTION('',(-6.12303176911189E-17,-1.,0.));
#758=DIRECTION('',(1.,-6.12303176911189E-17,0.));
#759=DIRECTION('',(-6.12303176911189E-17,-1.,0.));
#760=DIRECTION('',(1.,-6.12303176911189E-17,0.));
#761=DIRECTION('',(-6.12303176911189E-17,-1.,0.));
#762=DIRECTION('',(1.,-6.12303176911189E-17,0.));
#763=DIRECTION('',(-6.12303176911189E-17,-1.,0.));
#764=DIRECTION('',(1.,-6.12303176911189E-17,0.));
#765=DIRECTION('',(-6.12303176911189E-17,-1.,0.));
#766=DIRECTION('',(1.,-6.12303176911189E-17,0.));
#767=DIRECTION('',(-6.12303176911189E-17,-1.,0.));
#768=DIRECTION('',(1.,-6.12303176911189E-17,0.));
#769=DIRECTION('',(-6.12303176911189E-17,-1.,0.));
#770=DIRECTION('',(1.,-6.12303176911189E-17,0.));
#771=DIRECTION('',(6.12303176911189E-17,1.,0.));
#772=DIRECTION('',(-1.,6.12303176911189E-17,0.));
#773=DIRECTION('',(-6.12303176911189E-17,-1.,0.));
#774=DIRECTION('',(1.,-6.12303176911189E-17,0.));
#775=DIRECTION('',(-6.12303176911189E-17,-1.,0.));
#776=DIRECTION('',(1.,-6.12303176911189E-17,0.));
#777=DIRECTION('',(-6.12303176911189E-17,-1.,0.));
#778=DIRECTION('',(1.,-6.12303176911189E-17,0.));
#779=DIRECTION('',(-6.12303176911189E-17,-1.,0.));
#780=DIRECTION('',(1.,-6.12303176911189E-17,0.));
#781=DIRECTION('',(-0.540640817455597,-8.93610709051429E-17,0.841253532831181));
#782=DIRECTION('',(-4.97908696742171E-18,1.,1.03023844625311E-16));
#783=DIRECTION('',(-0.755749574354258,-7.61898933820962E-17,-0.654860733945285));
#784=DIRECTION('',(-3.13223120278728E-17,1.,-8.0197310171338E-17));
#785=DIRECTION('',(0.281732556841429,-1.39715253874067E-16,-0.959492973614497));
#786=DIRECTION('',(9.57326050862645E-17,1.,-1.17503999894137E-16));
#787=DIRECTION('',(0.909631995354519,-1.78161735972299E-16,0.415415013001886));
#788=DIRECTION('',(1.72628108842412E-16,1.,5.08736665990516E-17));
#789=DIRECTION('',(-0.909631995354518,-6.67676238571718E-17,0.415415013001887));
#790=DIRECTION('',(-5.01674734601742E-17,1.,5.08736665990517E-17));
#791=DIRECTION('',(-0.989821441880933,-6.18575985708844E-17,-0.142314838273284));
#792=DIRECTION('',(-5.99878483615713E-17,1.,-1.74285411162551E-17));
#793=DIRECTION('',(-0.28173255684143,-1.05214105955403E-16,-0.959492973614497));
#794=DIRECTION('',(2.67280302959732E-17,1.,-1.17503999894137E-16));
#795=DIRECTION('',(0.755749574354258,-1.68739466447374E-16,-0.654860733945285));
#796=DIRECTION('',(1.53782947410111E-16,1.,-8.0197310171338E-17));
#797=DIRECTION('',(0.989821441880933,-1.83071761258586E-16,-0.142314838273285));
#798=DIRECTION('',(1.82448483743809E-16,1.,-1.74285411162552E-17));
#799=DIRECTION('',(0.540640817455597,-1.55568288924328E-16,0.841253532831181));
#800=DIRECTION('',(1.27439722349659E-16,1.,1.03023844625311E-16));
#801=DIRECTION('',(-7.49855125712043E-33,-1.22464679914735E-16,1.));
#802=DIRECTION('',(6.12303176911189E-17,1.,1.22464679914735E-16));
#803=DIRECTION('',(-6.12303176911189E-17,-1.,0.));
#804=DIRECTION('',(1.,-6.12303176911189E-17,0.));
#805=DIRECTION('',(-6.12303176911189E-17,-1.,0.));
#806=DIRECTION('',(1.,-6.12303176911189E-17,0.));
#807=DIRECTION('',(-6.12303176911189E-17,-1.,0.));
#808=DIRECTION('',(1.,-6.12303176911189E-17,0.));
#809=DIRECTION('',(-6.12303176911189E-17,-1.,0.));
#810=DIRECTION('',(1.,-6.12303176911189E-17,0.));
#811=DIRECTION('',(-6.12303176911189E-17,-1.,0.));
#812=DIRECTION('',(1.,-6.12303176911189E-17,0.));
#813=DIRECTION('',(-6.12303176911189E-17,-1.,0.));
#814=DIRECTION('',(1.,-6.12303176911189E-17,0.));
#815=DIRECTION('',(-6.12303176911189E-17,-1.,0.));
#816=DIRECTION('',(1.,-6.12303176911189E-17,0.));
#817=DIRECTION('',(-6.12303176911189E-17,-1.,0.));
#818=DIRECTION('',(1.,-6.12303176911189E-17,0.));
#819=DIRECTION('',(-6.12303176911189E-17,-1.,0.));
#820=DIRECTION('',(1.,-6.12303176911189E-17,0.));
#821=DIRECTION('',(-6.12303176911189E-17,-1.,0.));
#822=DIRECTION('',(1.,-6.12303176911189E-17,0.));
#823=DIRECTION('',(-6.12303176911189E-17,-1.,0.));
#824=DIRECTION('',(1.,-6.12303176911189E-17,0.));
#825=DIRECTION('',(-6.12303176911189E-17,-1.,0.));
#826=DIRECTION('',(1.,-6.12303176911189E-17,0.));
#827=DIRECTION('',(6.12303176911189E-17,1.,0.));
#828=DIRECTION('',(-1.,6.12303176911189E-17,0.));
#829=DIRECTION('',(6.12303176911189E-17,1.,0.));
#830=DIRECTION('',(-1.,6.12303176911189E-17,0.));
#831=DIRECTION('',(-6.12303176911189E-17,-1.,0.));
#832=DIRECTION('',(1.,-6.12303176911189E-17,0.));
#833=DIRECTION('',(6.12303176911189E-17,1.,0.));
#834=DIRECTION('',(-1.,6.12303176911189E-17,0.));
#835=DIRECTION('',(-6.12303176911189E-17,-1.,0.));
#836=DIRECTION('',(1.,-6.12303176911189E-17,0.));
#837=DIRECTION('',(-6.12303176911189E-17,-1.,0.));
#838=DIRECTION('',(1.,-6.12303176911189E-17,0.));
#839=DIRECTION('',(6.12303176911189E-17,1.,0.));
#840=DIRECTION('',(-1.,6.12303176911189E-17,0.));
#841=DIRECTION('',(-6.12303176911189E-17,-1.,0.));
#842=DIRECTION('',(1.,-6.12303176911189E-17,0.));
#843=DIRECTION('',(-6.12303176911189E-17,-1.,0.));
#844=DIRECTION('',(1.,-6.12303176911189E-17,0.));
#845=DIRECTION('',(6.12303176911189E-17,1.,0.));
#846=DIRECTION('',(-1.,6.12303176911189E-17,0.));
#847=DIRECTION('',(-6.12303176911189E-17,-1.,0.));
#848=DIRECTION('',(1.,-6.12303176911189E-17,0.));
#849=DIRECTION('',(-6.12303176911189E-17,-1.,0.));
#850=DIRECTION('',(1.,-6.12303176911189E-17,0.));
#851=DIRECTION('',(-6.12303176911189E-17,-1.,0.));
#852=DIRECTION('',(1.,-6.12303176911189E-17,0.));
#853=DIRECTION('',(6.12303176911189E-17,1.,0.));
#854=DIRECTION('',(-1.,6.12303176911189E-17,0.));
#855=DIRECTION('',(6.12303176911189E-17,1.,0.));
#856=DIRECTION('',(-1.,6.12303176911189E-17,0.));
#857=DIRECTION('',(-6.12303176911189E-17,-1.,0.));
#858=DIRECTION('',(1.,-6.12303176911189E-17,0.));
#859=DIRECTION('',(-6.12303176911189E-17,-1.,0.));
#860=DIRECTION('',(1.,-6.12303176911189E-17,0.));
#861=DIRECTION('',(-6.12303176911189E-17,-1.,0.));
#862=DIRECTION('',(1.,-6.12303176911189E-17,0.));
#863=DIRECTION('',(-6.12303176911189E-17,-1.,0.));
#864=DIRECTION('',(1.,-6.12303176911189E-17,0.));
#865=DIRECTION('',(-6.12303176911189E-17,-1.,0.));
#866=DIRECTION('',(1.,-6.12303176911189E-17,0.));
#867=DIRECTION('',(-6.12303176911189E-17,-1.,0.));
#868=DIRECTION('',(1.,-6.12303176911189E-17,0.));
#869=DIRECTION('',(-6.12303176911189E-17,-1.,0.));
#870=DIRECTION('',(1.,-6.12303176911189E-17,0.));
#871=DIRECTION('',(-6.12303176911189E-17,-1.,0.));
#872=DIRECTION('',(1.,-6.12303176911189E-17,0.));
#873=DIRECTION('',(6.12303176911189E-17,1.,0.));
#874=DIRECTION('',(-1.,6.12303176911189E-17,0.));
#875=DIRECTION('',(6.12303176911189E-17,1.,0.));
#876=DIRECTION('',(-1.,6.12303176911189E-17,0.));
#877=DIRECTION('',(-6.12303176911189E-17,-1.,0.));
#878=DIRECTION('',(1.,-6.12303176911189E-17,0.));
#879=DIRECTION('',(-6.12303176911189E-17,-1.,0.));
#880=DIRECTION('',(1.,-6.12303176911189E-17,0.));
#881=DIRECTION('',(-6.12303176911189E-17,-1.,0.));
#882=DIRECTION('',(1.,-6.12303176911189E-17,0.));
#883=DIRECTION('',(-6.12303176911189E-17,-1.,0.));
#884=DIRECTION('',(1.,-6.12303176911189E-17,0.));
#885=DIRECTION('',(6.12303176911189E-17,1.,0.));
#886=DIRECTION('',(-1.,6.12303176911189E-17,0.));
#887=DIRECTION('',(-6.12303176911189E-17,-1.,0.));
#888=DIRECTION('',(1.,-6.12303176911189E-17,0.));
#889=DIRECTION('',(-6.12303176911189E-17,-1.,0.));
#890=DIRECTION('',(1.,-6.12303176911189E-17,0.));
#891=DIRECTION('',(-6.12303176911189E-17,-1.,0.));
#892=DIRECTION('',(1.,-6.12303176911189E-17,0.));
#893=DIRECTION('',(-6.12303176911189E-17,-1.,0.));
#894=DIRECTION('',(1.,-6.12303176911189E-17,0.));
#895=DIRECTION('',(6.12303176911189E-17,1.,0.));
#896=DIRECTION('',(-1.,6.12303176911189E-17,0.));
#897=DIRECTION('',(-6.12303176911189E-17,-1.,0.));
#898=DIRECTION('',(1.,-6.12303176911189E-17,0.));
#899=DIRECTION('',(-6.12303176911189E-17,-1.,0.));
#900=DIRECTION('',(1.,-6.12303176911189E-17,0.));
#901=DIRECTION('',(6.12303176911189E-17,1.,0.));
#902=DIRECTION('',(-1.,6.12303176911189E-17,0.));
#903=CARTESIAN_POINT('',(0.,0.,0.));
#904=CARTESIAN_POINT('',(4.82188751817561E-17,0.7875,2.5));
#905=CARTESIAN_POINT('',(4.82188751817561E-17,0.7875,0.));
#906=CARTESIAN_POINT('',(2.5,0.7875,0.));
#907=CARTESIAN_POINT('',(4.82188751817561E-17,0.7875,0.));
#908=CARTESIAN_POINT('',(2.749,0.7875,0.));
#909=CARTESIAN_POINT('',(4.82188751817561E-17,0.7875,0.));
#910=CARTESIAN_POINT('',(5.6638043864285E-17,0.925000000000001,0.));
#911=CARTESIAN_POINT('',(2.42061433798643,0.925000000000001,0.));
#912=CARTESIAN_POINT('',(5.6638043864285E-17,0.925000000000001,2.42061433798643));
#913=CARTESIAN_POINT('',(5.6638043864285E-17,0.925000000000001,0.));
#914=CARTESIAN_POINT('',(2.0125,0.925,0.));
#915=CARTESIAN_POINT('',(0.,0.,0.));
#916=CARTESIAN_POINT('',(5.20457700374511E-17,0.85,0.));
#917=CARTESIAN_POINT('',(2.0125,0.85,0.));
#918=CARTESIAN_POINT('',(5.20457700374511E-17,0.85,2.0125));
#919=CARTESIAN_POINT('',(5.20457700374511E-17,0.85,0.));
#920=CARTESIAN_POINT('',(1.9875,0.85,0.));
#921=CARTESIAN_POINT('',(0.,0.,0.));
#922=CARTESIAN_POINT('',(5.81688018065629E-17,0.950000000000001,0.));
#923=CARTESIAN_POINT('',(1.9875,0.95,0.));
#924=CARTESIAN_POINT('',(5.81688018065629E-17,0.950000000000001,1.9875));
#925=CARTESIAN_POINT('',(5.81688018065629E-17,0.95,0.));
#926=CARTESIAN_POINT('',(2.43504809471617,0.95,0.));
#927=CARTESIAN_POINT('',(5.81688018065629E-17,0.95,0.));
#928=CARTESIAN_POINT('',(4.97496331240341E-17,0.8125,0.));
#929=CARTESIAN_POINT('',(2.51443375672974,0.8125,0.));
#930=CARTESIAN_POINT('',(4.97496331240341E-17,0.8125,2.51443375672974));
#931=CARTESIAN_POINT('',(4.97496331240341E-17,0.8125,0.));
#932=CARTESIAN_POINT('',(2.724,0.8125,0.));
#933=CARTESIAN_POINT('',(0.,0.,0.));
#934=CARTESIAN_POINT('',(5.1280391066312E-17,0.8375,0.));
#935=CARTESIAN_POINT('',(2.724,0.8375,0.));
#936=CARTESIAN_POINT('',(5.1280391066312E-17,0.8375,0.));
#937=CARTESIAN_POINT('',(5.12803910663121E-17,0.8375,0.));
#938=CARTESIAN_POINT('',(2.58388353903934,0.8375,0.));
#939=CARTESIAN_POINT('',(5.12803910663121E-17,0.8375,2.58388353903934));
#940=CARTESIAN_POINT('',(5.12803910663121E-17,0.8375,0.));
#941=CARTESIAN_POINT('',(2.55888353903934,0.8375,0.));
#942=CARTESIAN_POINT('',(5.1280391066312E-17,0.8375,0.));
#943=CARTESIAN_POINT('',(5.1280391066312E-17,0.8375,0.));
#944=CARTESIAN_POINT('',(2.749,0.8375,0.));
#945=CARTESIAN_POINT('',(0.,0.,0.));
#946=CARTESIAN_POINT('',(-1.21644183927509,8.46885102644775E-17,1.89282044887016));
#947=CARTESIAN_POINT('',(-0.991715472819383,1.47285171379661E-16,1.54313939705666));
#948=CARTESIAN_POINT('',(-1.70043654229708,1.14323659691332E-16,-1.47343665137689));
#949=CARTESIAN_POINT('',(-1.38629663589049,1.71445501349436E-16,-1.20123287296697));
#950=CARTESIAN_POINT('',(0.633898252893216,-2.86084014156022E-17,-2.15885919063262));
#951=CARTESIAN_POINT('',(0.516791420099462,5.49188150869976E-17,-1.76002994460019));
#952=CARTESIAN_POINT('',(2.04667198954767,-1.15112986136623E-16,0.934683779254243));
#953=CARTESIAN_POINT('',(1.6685682901453,-1.56048485751919E-17,0.762009605516459));
#954=CARTESIAN_POINT('',(-2.04667198954766,1.35523766122412E-16,0.934683779254245));
#955=CARTESIAN_POINT('',(-1.6685682901453,1.88729084414656E-16,0.762009605516461));
#956=CARTESIAN_POINT('',(-2.2270982442321,1.46571323016559E-16,-0.32020838611489));
#957=CARTESIAN_POINT('',(-1.81566246489026,1.97735707464802E-16,-0.261052851672628));
#958=CARTESIAN_POINT('',(-0.633898252893216,4.90191814013914E-17,-2.15885919063262));
#959=CARTESIAN_POINT('',(-0.516791420099462,1.18205420752467E-16,-1.76002994460019));
#960=CARTESIAN_POINT('',(1.70043654229708,-9.39128797055433E-17,-1.47343665137689));
#961=CARTESIAN_POINT('',(1.38629663589049,1.67873449002783E-18,-1.20123287296697));
#962=CARTESIAN_POINT('',(2.2270982442321,-1.2616054303077E-16,-0.320208386114892));
#963=CARTESIAN_POINT('',(1.81566246489026,-2.46114716253383E-17,-0.261052851672629));
#964=CARTESIAN_POINT('',(1.21644183927509,-6.42777302786883E-17,1.89282044887016));
#965=CARTESIAN_POINT('',(0.991715472819383,2.5839064459803E-17,1.54313939705666));
#966=CARTESIAN_POINT('',(6.24879271426702E-34,1.02053899928946E-17,2.25));
#967=CARTESIAN_POINT('',(5.30022598024129E-33,8.65621179197321E-17,1.83433333333333));
#968=CARTESIAN_POINT('',(0.,0.,0.));
#969=CARTESIAN_POINT('',(5.96995597488409E-17,0.975,0.));
#970=CARTESIAN_POINT('',(2.,0.975,0.));
#971=CARTESIAN_POINT('',(6.12303176911189E-17,1.,0.));
#972=CARTESIAN_POINT('',(2.,1.,0.));
#973=CARTESIAN_POINT('',(6.12303176911189E-17,1.,1.5));
#974=CARTESIAN_POINT('',(6.12303176911189E-17,1.,0.));
#975=CARTESIAN_POINT('',(1.58,1.,0.));
#976=CARTESIAN_POINT('',(0.,0.,0.));
#977=CARTESIAN_POINT('',(4.43919803260612E-17,0.725,0.));
#978=CARTESIAN_POINT('',(2.,0.725,0.));
#979=CARTESIAN_POINT('',(2.04101058970396E-17,0.333333333333333,0.));
#980=CARTESIAN_POINT('',(2.,0.333333333333333,0.));
#981=CARTESIAN_POINT('',(6.24879271426702E-34,1.02053899928946E-17,0.));
#982=CARTESIAN_POINT('',(-2.04101058970396E-17,-0.333333333333334,0.));
#983=CARTESIAN_POINT('',(2.,-0.333333333333334,0.));
#984=CARTESIAN_POINT('',(0.,0.,0.));
#985=CARTESIAN_POINT('',(-6.12303176911189E-17,-1.,0.));
#986=CARTESIAN_POINT('',(2.,-1.,0.));
#987=CARTESIAN_POINT('',(-6.12303176911189E-17,-1.,2.));
#988=CARTESIAN_POINT('',(-6.12303176911189E-17,-1.,0.));
#989=CARTESIAN_POINT('',(-1.58,-1.,0.));
#990=CARTESIAN_POINT('',(0.,0.,0.));
#991=CARTESIAN_POINT('',(-5.63318922758293E-17,-0.92,0.));
#992=CARTESIAN_POINT('',(-1.5,-0.92,0.));
#993=CARTESIAN_POINT('',(5.63318922758293E-17,0.92,0.));
#994=CARTESIAN_POINT('',(1.5,0.92,0.));
#995=CARTESIAN_POINT('',(5.63318922758293E-17,0.92,0.));
#996=CARTESIAN_POINT('',(-5.63318922758293E-17,-0.92,0.));
#997=CARTESIAN_POINT('',(4.82188751817561E-17,0.7875,0.));
#998=CARTESIAN_POINT('',(4.82188751817561E-17,0.7875,0.));
#999=CARTESIAN_POINT('',(1.75,0.7875,0.));
#1000=CARTESIAN_POINT('',(5.96995597488409E-17,0.975,0.));
#1001=CARTESIAN_POINT('',(5.5872664893146E-17,0.9125,0.));
#1002=CARTESIAN_POINT('',(1.75,0.9125,0.));
#1003=CARTESIAN_POINT('',(0.,0.,0.));
#1004=CARTESIAN_POINT('',(0.,0.,0.));
#1005=CARTESIAN_POINT('',(-5.63318922758293E-17,-0.92,0.));
#1006=CARTESIAN_POINT('',(-3.,-0.92,0.));
#1007=CARTESIAN_POINT('',(2.44921270764475E-17,0.4,0.));
#1008=CARTESIAN_POINT('',(-3.,0.4,0.));
#1009=CARTESIAN_POINT('',(0.,0.,0.));
#1010=CARTESIAN_POINT('',(6.12303176911189E-17,1.,0.));
#1011=CARTESIAN_POINT('',(2.5,1.,0.));
#1012=CARTESIAN_POINT('',(5.96995597488409E-17,0.975,0.));
#1013=CARTESIAN_POINT('',(2.5,0.975,0.));
#1014=CARTESIAN_POINT('',(0.,0.,0.));
#1015=CARTESIAN_POINT('',(2.04101058970396E-17,0.333333333333334,0.));
#1016=CARTESIAN_POINT('',(2.5,0.333333333333333,0.));
#1017=CARTESIAN_POINT('',(4.43919803260612E-17,0.725,0.));
#1018=CARTESIAN_POINT('',(2.5,0.725,0.));
#1019=CARTESIAN_POINT('',(6.12303176911188E-17,1.,2.5));
#1020=CARTESIAN_POINT('',(6.12303176911188E-17,1.,0.));
#1021=CARTESIAN_POINT('',(3.6,0.999999999999999,0.));
#1022=CARTESIAN_POINT('',(-6.12303176911189E-17,-1.,3.));
#1023=CARTESIAN_POINT('',(-6.12303176911189E-17,-1.,0.));
#1024=CARTESIAN_POINT('',(-2.92,-1.,0.));
#1025=CARTESIAN_POINT('',(-6.12303176911189E-17,-1.,0.));
#1026=CARTESIAN_POINT('',(2.5,-1.,0.));
#1027=CARTESIAN_POINT('',(0.,0.,0.));
#1028=CARTESIAN_POINT('',(-2.04101058970396E-17,-0.333333333333334,0.));
#1029=CARTESIAN_POINT('',(2.5,-0.333333333333334,0.));
#1030=CARTESIAN_POINT('',(6.24879271426702E-34,1.02053899928946E-17,0.));
#1031=CARTESIAN_POINT('',(-5.63318922758293E-17,-0.92,0.));
#1032=CARTESIAN_POINT('',(5.96995597488409E-17,0.975,0.));
#1033=CARTESIAN_POINT('',(5.5872664893146E-17,0.9125,0.));
#1034=CARTESIAN_POINT('',(2.75,0.9125,0.));
#1035=CARTESIAN_POINT('',(0.,0.,0.));
#1036=CARTESIAN_POINT('',(4.82188751817561E-17,0.7875,0.));
#1037=CARTESIAN_POINT('',(2.75,0.7875,0.));
#1038=CARTESIAN_POINT('',(4.82188751817561E-17,0.7875,0.));
#1039=CARTESIAN_POINT('',(0.,0.,0.));
#1040=CARTESIAN_POINT('',(2.44921270764475E-17,0.4,0.));
#1041=CARTESIAN_POINT('',(3.6,0.399999999999999,0.));
#1042=CARTESIAN_POINT('',(2.44921270764475E-17,0.4,3.6));
#1043=MECHANICAL_DESIGN_GEOMETRIC_PRESENTATION_REPRESENTATION('',(#518,
#519,#520,#521,#522,#523,#524,#525,#526,#527,#528,#529,#530,#531),#1044);
#1044=(
GEOMETRIC_REPRESENTATION_CONTEXT(3)
GLOBAL_UNCERTAINTY_ASSIGNED_CONTEXT((#1045))
GLOBAL_UNIT_ASSIGNED_CONTEXT((#1048,#1047,#1046))
REPRESENTATION_CONTEXT('\X2\6DF16C9F74038F74627F\X0\F 60000-Z\X2\578B\X0\',
'TOP_LEVEL_ASSEMBLY_PART')
);
#1045=UNCERTAINTY_MEASURE_WITH_UNIT(LENGTH_MEASURE(0.005),#1048,
'DISTANCE_ACCURACY_VALUE','Maximum Tolerance applied to model');
#1046=(
NAMED_UNIT(*)
SI_UNIT($,.STERADIAN.)
SOLID_ANGLE_UNIT()
);
#1047=(
NAMED_UNIT(*)
PLANE_ANGLE_UNIT()
SI_UNIT($,.RADIAN.)
);
#1048=(
LENGTH_UNIT()
NAMED_UNIT(*)
SI_UNIT(.MILLI.,.METRE.)
);
#1049=PRODUCT_DEFINITION_SHAPE('','',#1050);
#1050=PRODUCT_DEFINITION('','',#1052,#1051);
#1051=PRODUCT_DEFINITION_CONTEXT('',#1058,'design');
#1052=PRODUCT_DEFINITION_FORMATION_WITH_SPECIFIED_SOURCE('','',#1054,
 .NOT_KNOWN.);
#1053=PRODUCT_RELATED_PRODUCT_CATEGORY('','',(#1054));
#1054=PRODUCT('\X2\6DF16C9F74038F74627F\X0\F 60000-Z\X2\578B\X0\',
'\X2\6DF16C9F74038F74627F\X0\F 60000-Z\X2\578B\X0\',
'\X2\6DF16C9F74038F74627F\X0\F 60000-Z\X2\578B\X0\',(#1056));
#1055=PRODUCT_CATEGORY('','');
#1056=PRODUCT_CONTEXT('',#1058,'mechanical');
#1057=APPLICATION_PROTOCOL_DEFINITION('international standard',
'automotive_design',2010,#1058);
#1058=APPLICATION_CONTEXT(
'core data for automotive mechanical design processes');
ENDSEC;
END-ISO-10303-21;
