ISO-10303-21;
HEADER;
/* Generated by software containing HOOPS Exchange Step
 * from HOOPS Exchange, Inc. (www.tiangong.cloud) 
 */

FILE_DESCRIPTION(
/* description */ ('Unknown'),
/* implementation_level */ '2;1');

FILE_NAME(
/* name */ '\X2\6DF16C9F74038F74627F\X0\FSN 70000\X2\578B\X0\',
/* time_stamp */ '2025-10-13T02:51:52+08:00',
/* author */ ('Unknown'),
/* organization */ ('Unknown'),
/* preprocessor_version */ 'ST-DEVELOPER v19.4',
/* originating_system */ 'TianGong',
/* authorisation */ 'Unknown');

FILE_SCHEMA (('AUTOMOTIVE_DESIGN {1 0 10303 214 3 1 1}'));
ENDSEC;

DATA;
#10=PROPERTY_DEFINITION_REPRESENTATION(#14,#12);
#11=PROPERTY_DEFINITION_REPRESENTATION(#15,#13);
#12=REPRESENTATION('',(#16),#538);
#13=REPRESENTATION('',(#17),#538);
#14=PROPERTY_DEFINITION('pmi validation property','',#543);
#15=PROPERTY_DEFINITION('pmi validation property','',#543);
#16=VALUE_REPRESENTATION_ITEM('number of annotations',COUNT_MEASURE(0.));
#17=VALUE_REPRESENTATION_ITEM('number of views',COUNT_MEASURE(0.));
#18=PLANE('',#354);
#19=PLANE('',#359);
#20=PLANE('',#368);
#21=PLANE('',#371);
#22=PLANE('',#380);
#23=CYLINDRICAL_SURFACE('',#352,0.72222222222222);
#24=CYLINDRICAL_SURFACE('',#356,0.499999999999998);
#25=CYLINDRICAL_SURFACE('',#362,0.833333333333332);
#26=CYLINDRICAL_SURFACE('',#365,1.5);
#27=CYLINDRICAL_SURFACE('',#374,1.16666666666667);
#28=CYLINDRICAL_SURFACE('',#378,1.16666666666667);
#29=CYLINDRICAL_SURFACE('',#382,1.9);
#30=ORIENTED_EDGE('',*,*,#64,.F.);
#31=ORIENTED_EDGE('',*,*,#65,.T.);
#32=ORIENTED_EDGE('',*,*,#66,.F.);
#33=ORIENTED_EDGE('',*,*,#64,.T.);
#34=ORIENTED_EDGE('',*,*,#67,.T.);
#35=ORIENTED_EDGE('',*,*,#66,.T.);
#36=ORIENTED_EDGE('',*,*,#68,.T.);
#37=ORIENTED_EDGE('',*,*,#69,.T.);
#38=ORIENTED_EDGE('',*,*,#70,.T.);
#39=ORIENTED_EDGE('',*,*,#71,.F.);
#40=ORIENTED_EDGE('',*,*,#65,.F.);
#41=ORIENTED_EDGE('',*,*,#71,.T.);
#42=ORIENTED_EDGE('',*,*,#69,.F.);
#43=ORIENTED_EDGE('',*,*,#70,.F.);
#44=ORIENTED_EDGE('',*,*,#67,.F.);
#45=ORIENTED_EDGE('',*,*,#68,.F.);
#46=ORIENTED_EDGE('',*,*,#72,.T.);
#47=ORIENTED_EDGE('',*,*,#73,.F.);
#48=ORIENTED_EDGE('',*,*,#74,.F.);
#49=ORIENTED_EDGE('',*,*,#75,.T.);
#50=ORIENTED_EDGE('',*,*,#76,.T.);
#51=ORIENTED_EDGE('',*,*,#77,.F.);
#52=ORIENTED_EDGE('',*,*,#78,.F.);
#53=ORIENTED_EDGE('',*,*,#77,.T.);
#54=ORIENTED_EDGE('',*,*,#79,.F.);
#55=ORIENTED_EDGE('',*,*,#78,.T.);
#56=ORIENTED_EDGE('',*,*,#75,.F.);
#57=ORIENTED_EDGE('',*,*,#79,.T.);
#58=ORIENTED_EDGE('',*,*,#72,.F.);
#59=ORIENTED_EDGE('',*,*,#76,.F.);
#60=ORIENTED_EDGE('',*,*,#73,.T.);
#61=ORIENTED_EDGE('',*,*,#80,.T.);
#62=ORIENTED_EDGE('',*,*,#80,.F.);
#63=ORIENTED_EDGE('',*,*,#74,.T.);
#64=EDGE_CURVE('',#147,#147,#81,.T.);
#65=EDGE_CURVE('',#148,#148,#82,.T.);
#66=EDGE_CURVE('',#149,#149,#83,.T.);
#67=EDGE_CURVE('',#150,#150,#84,.T.);
#68=EDGE_CURVE('',#151,#151,#85,.F.);
#69=EDGE_CURVE('',#152,#152,#86,.F.);
#70=EDGE_CURVE('',#153,#153,#87,.T.);
#71=EDGE_CURVE('',#154,#154,#88,.T.);
#72=EDGE_CURVE('',#155,#155,#89,.T.);
#73=EDGE_CURVE('',#156,#156,#90,.T.);
#74=EDGE_CURVE('',#157,#157,#91,.T.);
#75=EDGE_CURVE('',#158,#158,#92,.T.);
#76=EDGE_CURVE('',#159,#159,#93,.F.);
#77=EDGE_CURVE('',#160,#160,#94,.T.);
#78=EDGE_CURVE('',#161,#161,#95,.T.);
#79=EDGE_CURVE('',#162,#162,#96,.T.);
#80=EDGE_CURVE('',#163,#163,#97,.T.);
#81=CIRCLE('',#350,0.72222222222222);
#82=CIRCLE('',#351,0.833333333333332);
#83=CIRCLE('',#353,0.72222222222222);
#84=CIRCLE('',#355,0.549999999999998);
#85=CIRCLE('',#357,0.499999999999998);
#86=CIRCLE('',#358,0.499999999999998);
#87=CIRCLE('',#360,0.549999999999998);
#88=CIRCLE('',#361,0.833333333333332);
#89=CIRCLE('',#366,1.5);
#90=CIRCLE('',#367,1.5);
#91=CIRCLE('',#369,1.9);
#92=CIRCLE('',#370,1.16666666666667);
#93=CIRCLE('',#372,1.45);
#94=CIRCLE('',#373,1.16666666666667);
#95=CIRCLE('',#375,1.16666666666666);
#96=CIRCLE('',#377,1.16666666666666);
#97=CIRCLE('',#381,1.9);
#98=EDGE_LOOP('',(#30));
#99=EDGE_LOOP('',(#31));
#100=EDGE_LOOP('',(#32));
#101=EDGE_LOOP('',(#33));
#102=EDGE_LOOP('',(#34));
#103=EDGE_LOOP('',(#35));
#104=EDGE_LOOP('',(#36));
#105=EDGE_LOOP('',(#37));
#106=EDGE_LOOP('',(#38));
#107=EDGE_LOOP('',(#39));
#108=EDGE_LOOP('',(#40));
#109=EDGE_LOOP('',(#41));
#110=EDGE_LOOP('',(#42));
#111=EDGE_LOOP('',(#43));
#112=EDGE_LOOP('',(#44));
#113=EDGE_LOOP('',(#45));
#114=EDGE_LOOP('',(#46));
#115=EDGE_LOOP('',(#47));
#116=EDGE_LOOP('',(#48));
#117=EDGE_LOOP('',(#49));
#118=EDGE_LOOP('',(#50));
#119=EDGE_LOOP('',(#51));
#120=EDGE_LOOP('',(#52));
#121=EDGE_LOOP('',(#53));
#122=EDGE_LOOP('',(#54));
#123=EDGE_LOOP('',(#55));
#124=EDGE_LOOP('',(#56));
#125=EDGE_LOOP('',(#57));
#126=EDGE_LOOP('',(#58));
#127=EDGE_LOOP('',(#59));
#128=EDGE_LOOP('',(#60));
#129=EDGE_LOOP('',(#61));
#130=EDGE_LOOP('',(#62));
#131=EDGE_LOOP('',(#63));
#132=TOROIDAL_SURFACE('',#349,0.999999999999998,0.277777777777778);
#133=TOROIDAL_SURFACE('',#363,0.549999999999998,0.05);
#134=TOROIDAL_SURFACE('',#364,0.549999999999998,0.05);
#135=TOROIDAL_SURFACE('',#376,0.999999999999998,0.277777777777778);
#136=TOROIDAL_SURFACE('',#379,1.45,0.05);
#137=SHAPE_REPRESENTATION_RELATIONSHIP('','',#339,#138);
#138=ADVANCED_BREP_SHAPE_REPRESENTATION('',(#328,#329,#330,#331,#332,#333,
#334,#335,#336,#337),#538);
#139=VERTEX_POINT('',#471);
#140=VERTEX_POINT('',#473);
#141=VERTEX_POINT('',#475);
#142=VERTEX_POINT('',#477);
#143=VERTEX_POINT('',#479);
#144=VERTEX_POINT('',#481);
#145=VERTEX_POINT('',#483);
#146=VERTEX_POINT('',#485);
#147=VERTEX_POINT('',#488);
#148=VERTEX_POINT('',#490);
#149=VERTEX_POINT('',#493);
#150=VERTEX_POINT('',#496);
#151=VERTEX_POINT('',#499);
#152=VERTEX_POINT('',#501);
#153=VERTEX_POINT('',#504);
#154=VERTEX_POINT('',#506);
#155=VERTEX_POINT('',#512);
#156=VERTEX_POINT('',#514);
#157=VERTEX_POINT('',#517);
#158=VERTEX_POINT('',#519);
#159=VERTEX_POINT('',#522);
#160=VERTEX_POINT('',#524);
#161=VERTEX_POINT('',#527);
#162=VERTEX_POINT('',#530);
#163=VERTEX_POINT('',#535);
#164=VERTEX_LOOP('',#139);
#165=VERTEX_LOOP('',#140);
#166=VERTEX_LOOP('',#141);
#167=VERTEX_LOOP('',#142);
#168=VERTEX_LOOP('',#143);
#169=VERTEX_LOOP('',#144);
#170=VERTEX_LOOP('',#145);
#171=VERTEX_LOOP('',#146);
#172=FACE_BOUND('',#164,.T.);
#173=FACE_BOUND('',#165,.T.);
#174=FACE_BOUND('',#166,.T.);
#175=FACE_BOUND('',#167,.T.);
#176=FACE_BOUND('',#168,.T.);
#177=FACE_BOUND('',#169,.T.);
#178=FACE_BOUND('',#170,.T.);
#179=FACE_BOUND('',#171,.T.);
#180=FACE_BOUND('',#98,.T.);
#181=FACE_BOUND('',#99,.T.);
#182=FACE_BOUND('',#100,.T.);
#183=FACE_BOUND('',#101,.T.);
#184=FACE_BOUND('',#102,.T.);
#185=FACE_BOUND('',#103,.T.);
#186=FACE_BOUND('',#104,.T.);
#187=FACE_BOUND('',#105,.T.);
#188=FACE_BOUND('',#106,.T.);
#189=FACE_BOUND('',#107,.T.);
#190=FACE_BOUND('',#108,.T.);
#191=FACE_BOUND('',#109,.T.);
#192=FACE_BOUND('',#110,.T.);
#193=FACE_BOUND('',#111,.T.);
#194=FACE_BOUND('',#112,.T.);
#195=FACE_BOUND('',#113,.T.);
#196=FACE_BOUND('',#114,.T.);
#197=FACE_BOUND('',#115,.T.);
#198=FACE_BOUND('',#116,.T.);
#199=FACE_BOUND('',#117,.T.);
#200=FACE_BOUND('',#118,.T.);
#201=FACE_BOUND('',#119,.T.);
#202=FACE_BOUND('',#120,.T.);
#203=FACE_BOUND('',#121,.T.);
#204=FACE_BOUND('',#122,.T.);
#205=FACE_BOUND('',#123,.T.);
#206=FACE_BOUND('',#124,.T.);
#207=FACE_BOUND('',#125,.T.);
#208=FACE_BOUND('',#126,.T.);
#209=FACE_BOUND('',#127,.T.);
#210=FACE_BOUND('',#128,.T.);
#211=FACE_BOUND('',#129,.T.);
#212=FACE_BOUND('',#130,.T.);
#213=FACE_BOUND('',#131,.T.);
#214=SPHERICAL_SURFACE('',#341,0.276777777777778);
#215=SPHERICAL_SURFACE('',#342,0.276777777777778);
#216=SPHERICAL_SURFACE('',#343,0.276777777777778);
#217=SPHERICAL_SURFACE('',#344,0.276777777777778);
#218=SPHERICAL_SURFACE('',#345,0.276777777777778);
#219=SPHERICAL_SURFACE('',#346,0.276777777777778);
#220=SPHERICAL_SURFACE('',#347,0.276777777777778);
#221=SPHERICAL_SURFACE('',#348,0.276777777777778);
#222=ADVANCED_FACE('',(#172),#214,.T.);
#223=ADVANCED_FACE('',(#173),#215,.T.);
#224=ADVANCED_FACE('',(#174),#216,.T.);
#225=ADVANCED_FACE('',(#175),#217,.T.);
#226=ADVANCED_FACE('',(#176),#218,.T.);
#227=ADVANCED_FACE('',(#177),#219,.T.);
#228=ADVANCED_FACE('',(#178),#220,.T.);
#229=ADVANCED_FACE('',(#179),#221,.T.);
#230=ADVANCED_FACE('',(#180,#181),#132,.F.);
#231=ADVANCED_FACE('',(#182,#183),#23,.T.);
#232=ADVANCED_FACE('',(#184,#185),#18,.F.);
#233=ADVANCED_FACE('',(#186,#187),#24,.F.);
#234=ADVANCED_FACE('',(#188,#189),#19,.F.);
#235=ADVANCED_FACE('',(#190,#191),#25,.T.);
#236=ADVANCED_FACE('',(#192,#193),#133,.T.);
#237=ADVANCED_FACE('',(#194,#195),#134,.T.);
#238=ADVANCED_FACE('',(#196,#197),#26,.T.);
#239=ADVANCED_FACE('',(#198,#199),#20,.F.);
#240=ADVANCED_FACE('',(#200,#201),#21,.F.);
#241=ADVANCED_FACE('',(#202,#203),#27,.F.);
#242=ADVANCED_FACE('',(#204,#205),#135,.F.);
#243=ADVANCED_FACE('',(#206,#207),#28,.F.);
#244=ADVANCED_FACE('',(#208,#209),#136,.T.);
#245=ADVANCED_FACE('',(#210,#211),#22,.F.);
#246=ADVANCED_FACE('',(#212,#213),#29,.T.);
#247=CLOSED_SHELL('',(#222));
#248=CLOSED_SHELL('',(#223));
#249=CLOSED_SHELL('',(#224));
#250=CLOSED_SHELL('',(#225));
#251=CLOSED_SHELL('',(#226));
#252=CLOSED_SHELL('',(#227));
#253=CLOSED_SHELL('',(#228));
#254=CLOSED_SHELL('',(#229));
#255=CLOSED_SHELL('',(#230,#231,#232,#233,#234,#235,#236,#237));
#256=CLOSED_SHELL('',(#238,#239,#240,#241,#242,#243,#244,#245,#246));
#257=STYLED_ITEM('',(#267),#328);
#258=STYLED_ITEM('',(#268),#329);
#259=STYLED_ITEM('',(#269),#330);
#260=STYLED_ITEM('',(#270),#331);
#261=STYLED_ITEM('',(#271),#332);
#262=STYLED_ITEM('',(#272),#333);
#263=STYLED_ITEM('',(#273),#334);
#264=STYLED_ITEM('',(#274),#335);
#265=STYLED_ITEM('',(#275),#336);
#266=STYLED_ITEM('',(#276),#337);
#267=PRESENTATION_STYLE_ASSIGNMENT((#277));
#268=PRESENTATION_STYLE_ASSIGNMENT((#278));
#269=PRESENTATION_STYLE_ASSIGNMENT((#279));
#270=PRESENTATION_STYLE_ASSIGNMENT((#280));
#271=PRESENTATION_STYLE_ASSIGNMENT((#281));
#272=PRESENTATION_STYLE_ASSIGNMENT((#282));
#273=PRESENTATION_STYLE_ASSIGNMENT((#283));
#274=PRESENTATION_STYLE_ASSIGNMENT((#284));
#275=PRESENTATION_STYLE_ASSIGNMENT((#285));
#276=PRESENTATION_STYLE_ASSIGNMENT((#286));
#277=SURFACE_STYLE_USAGE(.BOTH.,#287);
#278=SURFACE_STYLE_USAGE(.BOTH.,#288);
#279=SURFACE_STYLE_USAGE(.BOTH.,#289);
#280=SURFACE_STYLE_USAGE(.BOTH.,#290);
#281=SURFACE_STYLE_USAGE(.BOTH.,#291);
#282=SURFACE_STYLE_USAGE(.BOTH.,#292);
#283=SURFACE_STYLE_USAGE(.BOTH.,#293);
#284=SURFACE_STYLE_USAGE(.BOTH.,#294);
#285=SURFACE_STYLE_USAGE(.BOTH.,#295);
#286=SURFACE_STYLE_USAGE(.BOTH.,#296);
#287=SURFACE_SIDE_STYLE('',(#297));
#288=SURFACE_SIDE_STYLE('',(#298));
#289=SURFACE_SIDE_STYLE('',(#299));
#290=SURFACE_SIDE_STYLE('',(#300));
#291=SURFACE_SIDE_STYLE('',(#301));
#292=SURFACE_SIDE_STYLE('',(#302));
#293=SURFACE_SIDE_STYLE('',(#303));
#294=SURFACE_SIDE_STYLE('',(#304));
#295=SURFACE_SIDE_STYLE('',(#305));
#296=SURFACE_SIDE_STYLE('',(#306));
#297=SURFACE_STYLE_FILL_AREA(#307);
#298=SURFACE_STYLE_FILL_AREA(#308);
#299=SURFACE_STYLE_FILL_AREA(#309);
#300=SURFACE_STYLE_FILL_AREA(#310);
#301=SURFACE_STYLE_FILL_AREA(#311);
#302=SURFACE_STYLE_FILL_AREA(#312);
#303=SURFACE_STYLE_FILL_AREA(#313);
#304=SURFACE_STYLE_FILL_AREA(#314);
#305=SURFACE_STYLE_FILL_AREA(#315);
#306=SURFACE_STYLE_FILL_AREA(#316);
#307=FILL_AREA_STYLE('',(#317));
#308=FILL_AREA_STYLE('',(#318));
#309=FILL_AREA_STYLE('',(#319));
#310=FILL_AREA_STYLE('',(#320));
#311=FILL_AREA_STYLE('',(#321));
#312=FILL_AREA_STYLE('',(#322));
#313=FILL_AREA_STYLE('',(#323));
#314=FILL_AREA_STYLE('',(#324));
#315=FILL_AREA_STYLE('',(#325));
#316=FILL_AREA_STYLE('',(#326));
#317=FILL_AREA_STYLE_COLOUR('',#327);
#318=FILL_AREA_STYLE_COLOUR('',#327);
#319=FILL_AREA_STYLE_COLOUR('',#327);
#320=FILL_AREA_STYLE_COLOUR('',#327);
#321=FILL_AREA_STYLE_COLOUR('',#327);
#322=FILL_AREA_STYLE_COLOUR('',#327);
#323=FILL_AREA_STYLE_COLOUR('',#327);
#324=FILL_AREA_STYLE_COLOUR('',#327);
#325=FILL_AREA_STYLE_COLOUR('',#327);
#326=FILL_AREA_STYLE_COLOUR('',#327);
#327=COLOUR_RGB('',0.506983280181885,0.531564235687256,0.550000011920929);
#328=MANIFOLD_SOLID_BREP('',#247);
#329=MANIFOLD_SOLID_BREP('',#248);
#330=MANIFOLD_SOLID_BREP('',#249);
#331=MANIFOLD_SOLID_BREP('',#250);
#332=MANIFOLD_SOLID_BREP('',#251);
#333=MANIFOLD_SOLID_BREP('',#252);
#334=MANIFOLD_SOLID_BREP('',#253);
#335=MANIFOLD_SOLID_BREP('',#254);
#336=MANIFOLD_SOLID_BREP('',#255);
#337=MANIFOLD_SOLID_BREP('',#256);
#338=SHAPE_DEFINITION_REPRESENTATION(#543,#339);
#339=SHAPE_REPRESENTATION('\X2\6DF16C9F74038F74627F\X0\FSN 70000\X2\578B\X0\',
(#340),#538);
#340=AXIS2_PLACEMENT_3D('',#469,#383,#384);
#341=AXIS2_PLACEMENT_3D('',#470,#385,#386);
#342=AXIS2_PLACEMENT_3D('',#472,#387,#388);
#343=AXIS2_PLACEMENT_3D('',#474,#389,#390);
#344=AXIS2_PLACEMENT_3D('',#476,#391,#392);
#345=AXIS2_PLACEMENT_3D('',#478,#393,#394);
#346=AXIS2_PLACEMENT_3D('',#480,#395,#396);
#347=AXIS2_PLACEMENT_3D('',#482,#397,#398);
#348=AXIS2_PLACEMENT_3D('',#484,#399,#400);
#349=AXIS2_PLACEMENT_3D('',#486,#401,#402);
#350=AXIS2_PLACEMENT_3D('',#487,#403,#404);
#351=AXIS2_PLACEMENT_3D('',#489,#405,#406);
#352=AXIS2_PLACEMENT_3D('',#491,#407,#408);
#353=AXIS2_PLACEMENT_3D('',#492,#409,#410);
#354=AXIS2_PLACEMENT_3D('',#494,#411,#412);
#355=AXIS2_PLACEMENT_3D('',#495,#413,#414);
#356=AXIS2_PLACEMENT_3D('',#497,#415,#416);
#357=AXIS2_PLACEMENT_3D('',#498,#417,#418);
#358=AXIS2_PLACEMENT_3D('',#500,#419,#420);
#359=AXIS2_PLACEMENT_3D('',#502,#421,#422);
#360=AXIS2_PLACEMENT_3D('',#503,#423,#424);
#361=AXIS2_PLACEMENT_3D('',#505,#425,#426);
#362=AXIS2_PLACEMENT_3D('',#507,#427,#428);
#363=AXIS2_PLACEMENT_3D('',#508,#429,#430);
#364=AXIS2_PLACEMENT_3D('',#509,#431,#432);
#365=AXIS2_PLACEMENT_3D('',#510,#433,#434);
#366=AXIS2_PLACEMENT_3D('',#511,#435,#436);
#367=AXIS2_PLACEMENT_3D('',#513,#437,#438);
#368=AXIS2_PLACEMENT_3D('',#515,#439,#440);
#369=AXIS2_PLACEMENT_3D('',#516,#441,#442);
#370=AXIS2_PLACEMENT_3D('',#518,#443,#444);
#371=AXIS2_PLACEMENT_3D('',#520,#445,#446);
#372=AXIS2_PLACEMENT_3D('',#521,#447,#448);
#373=AXIS2_PLACEMENT_3D('',#523,#449,#450);
#374=AXIS2_PLACEMENT_3D('',#525,#451,#452);
#375=AXIS2_PLACEMENT_3D('',#526,#453,#454);
#376=AXIS2_PLACEMENT_3D('',#528,#455,#456);
#377=AXIS2_PLACEMENT_3D('',#529,#457,#458);
#378=AXIS2_PLACEMENT_3D('',#531,#459,#460);
#379=AXIS2_PLACEMENT_3D('',#532,#461,#462);
#380=AXIS2_PLACEMENT_3D('',#533,#463,#464);
#381=AXIS2_PLACEMENT_3D('',#534,#465,#466);
#382=AXIS2_PLACEMENT_3D('',#536,#467,#468);
#383=DIRECTION('',(0.,0.,1.));
#384=DIRECTION('',(1.,0.,0.));
#385=DIRECTION('',(-0.707106781186548,-7.91683070611385E-17,0.707106781186547));
#386=DIRECTION('',(-2.53652879324305E-17,1.,8.65956056235493E-17));
#387=DIRECTION('',(-1.,-6.12343622236165E-17,-1.60812264967664E-16));
#388=DIRECTION('',(-6.12343622236165E-17,1.,-1.96938225556285E-32));
#389=DIRECTION('',(-0.707106781186547,-7.91683070611386E-17,-0.707106781186548));
#390=DIRECTION('',(-2.53652879324304E-17,1.,-8.65956056235494E-17));
#391=DIRECTION('',(-1.22464679914735E-16,-1.22464679914735E-16,-1.));
#392=DIRECTION('',(6.12303176911189E-17,1.,-1.22464679914735E-16));
#393=DIRECTION('',(0.707106781186547,-1.65761052768332E-16,-0.707106781186548));
#394=DIRECTION('',(1.47825923314668E-16,1.,-8.65956056235494E-17));
#395=DIRECTION('',(1.,-1.83694997605854E-16,-1.83697019872103E-16));
#396=DIRECTION('',(1.83694997605854E-16,1.,-2.24963967399279E-32));
#397=DIRECTION('',(0.707106781186548,-1.65761052768332E-16,0.707106781186547));
#398=DIRECTION('',(1.47825923314668E-16,1.,8.65956056235493E-17));
#399=DIRECTION('',(-7.49855125712043E-33,-1.22464679914735E-16,1.));
#400=DIRECTION('',(6.12303176911189E-17,1.,1.22464679914735E-16));
#401=DIRECTION('',(-6.12303176911189E-17,-1.,0.));
#402=DIRECTION('',(1.,-6.12303176911189E-17,0.));
#403=DIRECTION('',(-6.12303176911189E-17,-1.,0.));
#404=DIRECTION('',(1.,-6.12303176911189E-17,0.));
#405=DIRECTION('',(-6.12303176911189E-17,-1.,0.));
#406=DIRECTION('',(1.,-6.12303176911189E-17,0.));
#407=DIRECTION('',(-6.12303176911189E-17,-1.,0.));
#408=DIRECTION('',(1.,-6.12303176911189E-17,0.));
#409=DIRECTION('',(-6.12303176911189E-17,-1.,0.));
#410=DIRECTION('',(1.,-6.12303176911189E-17,0.));
#411=DIRECTION('',(6.12303176911189E-17,1.,0.));
#412=DIRECTION('',(-1.,6.12303176911189E-17,0.));
#413=DIRECTION('',(6.12303176911189E-17,1.,0.));
#414=DIRECTION('',(-1.,6.12303176911189E-17,0.));
#415=DIRECTION('',(-6.12303176911189E-17,-1.,0.));
#416=DIRECTION('',(1.,-6.12303176911189E-17,0.));
#417=DIRECTION('',(6.12303176911189E-17,1.,0.));
#418=DIRECTION('',(-1.,6.12303176911189E-17,0.));
#419=DIRECTION('',(-6.12303176911189E-17,-1.,0.));
#420=DIRECTION('',(1.,-6.12303176911189E-17,0.));
#421=DIRECTION('',(-6.12303176911189E-17,-1.,0.));
#422=DIRECTION('',(1.,-6.12303176911189E-17,0.));
#423=DIRECTION('',(-6.12303176911189E-17,-1.,0.));
#424=DIRECTION('',(1.,-6.12303176911189E-17,0.));
#425=DIRECTION('',(-6.12303176911189E-17,-1.,0.));
#426=DIRECTION('',(1.,-6.12303176911189E-17,0.));
#427=DIRECTION('',(-6.12303176911189E-17,-1.,0.));
#428=DIRECTION('',(1.,-6.12303176911189E-17,0.));
#429=DIRECTION('',(-6.12303176911189E-17,-1.,0.));
#430=DIRECTION('',(1.,-6.12303176911189E-17,0.));
#431=DIRECTION('',(6.12303176911189E-17,1.,0.));
#432=DIRECTION('',(-1.,6.12303176911189E-17,0.));
#433=DIRECTION('',(-6.12303176911189E-17,-1.,0.));
#434=DIRECTION('',(1.,-6.12303176911189E-17,0.));
#435=DIRECTION('',(6.12303176911189E-17,1.,0.));
#436=DIRECTION('',(-1.,6.12303176911189E-17,0.));
#437=DIRECTION('',(6.12303176911189E-17,1.,2.89120579329468E-15));
#438=DIRECTION('',(0.,-2.89120579329468E-15,1.));
#439=DIRECTION('',(-6.12303176911189E-17,-1.,0.));
#440=DIRECTION('',(1.,-6.12303176911189E-17,0.));
#441=DIRECTION('',(-6.12303176911189E-17,-1.,-2.89120579329468E-15));
#442=DIRECTION('',(0.,2.89120579329468E-15,-1.));
#443=DIRECTION('',(-6.12303176911189E-17,-1.,0.));
#444=DIRECTION('',(1.,-6.12303176911189E-17,0.));
#445=DIRECTION('',(6.12303176911189E-17,1.,0.));
#446=DIRECTION('',(-1.,6.12303176911189E-17,0.));
#447=DIRECTION('',(6.12303176911189E-17,1.,0.));
#448=DIRECTION('',(-1.,6.12303176911189E-17,0.));
#449=DIRECTION('',(-6.12303176911189E-17,-1.,0.));
#450=DIRECTION('',(1.,-6.12303176911189E-17,0.));
#451=DIRECTION('',(-6.12303176911189E-17,-1.,0.));
#452=DIRECTION('',(1.,-6.12303176911189E-17,0.));
#453=DIRECTION('',(-6.12303176911189E-17,-1.,0.));
#454=DIRECTION('',(1.,-6.12303176911189E-17,0.));
#455=DIRECTION('',(-6.12303176911189E-17,-1.,0.));
#456=DIRECTION('',(1.,-6.12303176911189E-17,0.));
#457=DIRECTION('',(-6.12303176911189E-17,-1.,0.));
#458=DIRECTION('',(1.,-6.12303176911189E-17,0.));
#459=DIRECTION('',(-6.12303176911189E-17,-1.,0.));
#460=DIRECTION('',(1.,-6.12303176911189E-17,0.));
#461=DIRECTION('',(6.12303176911189E-17,1.,0.));
#462=DIRECTION('',(-1.,6.12303176911189E-17,0.));
#463=DIRECTION('',(6.12303176911189E-17,1.,2.89120579329468E-15));
#464=DIRECTION('',(0.,-2.89120579329468E-15,1.));
#465=DIRECTION('',(-6.12303176911189E-17,-1.,-2.89120579329468E-15));
#466=DIRECTION('',(0.,2.89120579329468E-15,-1.));
#467=DIRECTION('',(-6.12303176911189E-17,-1.,-2.89120579329468E-15));
#468=DIRECTION('',(0.,2.89120579329468E-15,-1.));
#469=CARTESIAN_POINT('',(0.,0.,0.));
#470=CARTESIAN_POINT('',(-0.707106781186546,8.41179328251751E-17,0.707106781186546));
#471=CARTESIAN_POINT('',(-0.511395337638136,1.22977711905519E-16,0.511395337638136));
#472=CARTESIAN_POINT('',(-0.999999999999998,1.02051877662697E-16,-1.60812264967663E-16));
#473=CARTESIAN_POINT('',(-0.72322222222222,1.35947939344123E-16,-1.16303003630502E-16));
#474=CARTESIAN_POINT('',(-0.707106781186546,8.41179328251751E-17,-0.707106781186547));
#475=CARTESIAN_POINT('',(-0.511395337638136,1.22977711905519E-16,-0.511395337638136));
#476=CARTESIAN_POINT('',(-1.22464679914735E-16,4.08215599715784E-17,-0.999999999999998));
#477=CARTESIAN_POINT('',(-8.85691779516678E-17,9.16648129161794E-17,-0.72322222222222));
#478=CARTESIAN_POINT('',(0.707106781186546,-2.47481288201827E-18,-0.707106781186546));
#479=CARTESIAN_POINT('',(0.511395337638136,6.03519139268393E-17,-0.511395337638136));
#480=CARTESIAN_POINT('',(0.999999999999998,-2.04087577195403E-17,-1.83697019872103E-16));
#481=CARTESIAN_POINT('',(0.72322222222222,4.73816864882359E-17,-1.32853766927502E-16));
#482=CARTESIAN_POINT('',(0.707106781186546,-2.47481288201828E-18,0.707106781186546));
#483=CARTESIAN_POINT('',(0.511395337638136,6.03519139268393E-17,0.511395337638136));
#484=CARTESIAN_POINT('',(2.49951708570681E-33,4.08215599715784E-17,0.999999999999998));
#485=CARTESIAN_POINT('',(5.61266561595464E-33,9.16648129161794E-17,0.72322222222222));
#486=CARTESIAN_POINT('',(2.49951708570681E-33,4.08215599715784E-17,0.));
#487=CARTESIAN_POINT('',(4.58244799046248E-33,7.48395266145605E-17,0.));
#488=CARTESIAN_POINT('',(0.72222222222222,3.06176305043081E-17,0.));
#489=CARTESIAN_POINT('',(1.36067372646931E-17,0.222222222222222,0.));
#490=CARTESIAN_POINT('',(0.833333333333332,0.222222222222222,0.));
#491=CARTESIAN_POINT('',(0.,0.,0.));
#492=CARTESIAN_POINT('',(-3.06151588455594E-17,-0.5,0.));
#493=CARTESIAN_POINT('',(0.72222222222222,-0.5,0.));
#494=CARTESIAN_POINT('',(-3.06151588455594E-17,-0.5,0.72222222222222));
#495=CARTESIAN_POINT('',(-3.06151588455594E-17,-0.5,0.));
#496=CARTESIAN_POINT('',(-0.549999999999998,-0.5,0.));
#497=CARTESIAN_POINT('',(0.,0.,0.));
#498=CARTESIAN_POINT('',(-2.75536429610035E-17,-0.45,0.));
#499=CARTESIAN_POINT('',(-0.499999999999998,-0.45,0.));
#500=CARTESIAN_POINT('',(2.75536429610035E-17,0.45,0.));
#501=CARTESIAN_POINT('',(0.499999999999998,0.45,0.));
#502=CARTESIAN_POINT('',(3.06151588455594E-17,0.5,0.499999999999998));
#503=CARTESIAN_POINT('',(3.06151588455594E-17,0.5,0.));
#504=CARTESIAN_POINT('',(0.549999999999998,0.5,0.));
#505=CARTESIAN_POINT('',(3.06151588455594E-17,0.5,0.));
#506=CARTESIAN_POINT('',(0.833333333333332,0.5,0.));
#507=CARTESIAN_POINT('',(0.,0.,0.));
#508=CARTESIAN_POINT('',(2.75536429610035E-17,0.45,0.));
#509=CARTESIAN_POINT('',(-2.75536429610035E-17,-0.45,0.));
#510=CARTESIAN_POINT('',(0.,0.,0.));
#511=CARTESIAN_POINT('',(-2.75536429610035E-17,-0.45,0.));
#512=CARTESIAN_POINT('',(-1.5,-0.45,0.));
#513=CARTESIAN_POINT('',(1.22460635382241E-17,0.200000000000005,0.));
#514=CARTESIAN_POINT('',(1.22460635382241E-17,0.2,1.5));
#515=CARTESIAN_POINT('',(3.06151588455594E-17,0.5,1.16666666666667));
#516=CARTESIAN_POINT('',(3.06151588455597E-17,0.500000000000005,-2.89120579329452E-16));
#517=CARTESIAN_POINT('',(3.06151588455597E-17,0.500000000000011,-1.9));
#518=CARTESIAN_POINT('',(3.06151588455594E-17,0.5,0.));
#519=CARTESIAN_POINT('',(1.16666666666667,0.5,0.));
#520=CARTESIAN_POINT('',(-3.06151588455594E-17,-0.5,1.5));
#521=CARTESIAN_POINT('',(-3.06151588455594E-17,-0.5,0.));
#522=CARTESIAN_POINT('',(-1.45,-0.5,0.));
#523=CARTESIAN_POINT('',(-3.06151588455594E-17,-0.5,0.));
#524=CARTESIAN_POINT('',(1.16666666666667,-0.5,0.));
#525=CARTESIAN_POINT('',(0.,0.,0.));
#526=CARTESIAN_POINT('',(-1.36067372646931E-17,-0.222222222222222,0.));
#527=CARTESIAN_POINT('',(1.16666666666666,-0.222222222222222,0.));
#528=CARTESIAN_POINT('',(2.49951708570681E-33,4.08215599715784E-17,0.));
#529=CARTESIAN_POINT('',(1.36067372646931E-17,0.222222222222222,0.));
#530=CARTESIAN_POINT('',(1.16666666666666,0.222222222222222,0.));
#531=CARTESIAN_POINT('',(0.,0.,0.));
#532=CARTESIAN_POINT('',(-2.75536429610035E-17,-0.45,0.));
#533=CARTESIAN_POINT('',(1.22460635382237E-17,0.199999999999999,1.9));
#534=CARTESIAN_POINT('',(1.22460635382241E-17,0.200000000000005,-1.15648231731786E-15));
#535=CARTESIAN_POINT('',(1.22460635382241E-17,0.200000000000011,-1.9));
#536=CARTESIAN_POINT('',(3.67381906146713E-17,0.6,0.));
#537=MECHANICAL_DESIGN_GEOMETRIC_PRESENTATION_REPRESENTATION('',(#257,#258,
#259,#260,#261,#262,#263,#264,#265,#266),#538);
#538=(
GEOMETRIC_REPRESENTATION_CONTEXT(3)
GLOBAL_UNCERTAINTY_ASSIGNED_CONTEXT((#539))
GLOBAL_UNIT_ASSIGNED_CONTEXT((#542,#541,#540))
REPRESENTATION_CONTEXT('\X2\6DF16C9F74038F74627F\X0\FSN 70000\X2\578B\X0\',
'TOP_LEVEL_ASSEMBLY_PART')
);
#539=UNCERTAINTY_MEASURE_WITH_UNIT(LENGTH_MEASURE(0.005),#542,
'DISTANCE_ACCURACY_VALUE','Maximum Tolerance applied to model');
#540=(
NAMED_UNIT(*)
SI_UNIT($,.STERADIAN.)
SOLID_ANGLE_UNIT()
);
#541=(
NAMED_UNIT(*)
PLANE_ANGLE_UNIT()
SI_UNIT($,.RADIAN.)
);
#542=(
LENGTH_UNIT()
NAMED_UNIT(*)
SI_UNIT(.MILLI.,.METRE.)
);
#543=PRODUCT_DEFINITION_SHAPE('','',#544);
#544=PRODUCT_DEFINITION('','',#546,#545);
#545=PRODUCT_DEFINITION_CONTEXT('',#552,'design');
#546=PRODUCT_DEFINITION_FORMATION_WITH_SPECIFIED_SOURCE('','',#548,
 .NOT_KNOWN.);
#547=PRODUCT_RELATED_PRODUCT_CATEGORY('','',(#548));
#548=PRODUCT('\X2\6DF16C9F74038F74627F\X0\FSN 70000\X2\578B\X0\',
'\X2\6DF16C9F74038F74627F\X0\FSN 70000\X2\578B\X0\',
'\X2\6DF16C9F74038F74627F\X0\FSN 70000\X2\578B\X0\',(#550));
#549=PRODUCT_CATEGORY('','');
#550=PRODUCT_CONTEXT('',#552,'mechanical');
#551=APPLICATION_PROTOCOL_DEFINITION('international standard',
'automotive_design',2010,#552);
#552=APPLICATION_CONTEXT(
'core data for automotive mechanical design processes');
ENDSEC;
END-ISO-10303-21;
