ISO-10303-21;
HEADER;
/* Generated by software containing HOOPS Exchange Step
 * from HOOPS Exchange, Inc. (www.tiangong.cloud) 
 */

FILE_DESCRIPTION(
/* description */ ('Unknown'),
/* implementation_level */ '2;1');

FILE_NAME(
/* name */ '\X2\570667F15B548C035FC374038F74627F\X0\10000K+H\X2\578B\X0\',

/* time_stamp */ '2025-07-14T08:34:44+08:00',
/* author */ ('Unknown'),
/* organization */ ('Unknown'),
/* preprocessor_version */ 'ST-DEVELOPER v19.4',
/* originating_system */ 'TianGong',
/* authorisation */ 'Unknown');

FILE_SCHEMA (('AUTOMOTIVE_DESIGN {1 0 10303 214 3 1 1}'));
ENDSEC;

DATA;
#10=PROPERTY_DEFINITION_REPRESENTATION(#14,#12);
#11=PROPERTY_DEFINITION_REPRESENTATION(#15,#13);
#12=REPRESENTATION('',(#16),#1541);
#13=REPRESENTATION('',(#17),#1541);
#14=PROPERTY_DEFINITION('pmi validation property','',#1546);
#15=PROPERTY_DEFINITION('pmi validation property','',#1546);
#16=VALUE_REPRESENTATION_ITEM('number of annotations',COUNT_MEASURE(0.));
#17=VALUE_REPRESENTATION_ITEM('number of views',COUNT_MEASURE(0.));
#18=VERTEX_LOOP('',#229);
#19=VERTEX_LOOP('',#230);
#20=VERTEX_LOOP('',#231);
#21=VERTEX_LOOP('',#232);
#22=VERTEX_LOOP('',#233);
#23=VERTEX_LOOP('',#234);
#24=VERTEX_LOOP('',#235);
#25=VERTEX_LOOP('',#236);
#26=VERTEX_LOOP('',#237);
#27=VERTEX_LOOP('',#238);
#28=VERTEX_LOOP('',#239);
#29=VERTEX_LOOP('',#240);
#30=VERTEX_LOOP('',#241);
#31=VERTEX_LOOP('',#242);
#32=VERTEX_LOOP('',#243);
#33=VERTEX_LOOP('',#244);
#34=VERTEX_LOOP('',#245);
#35=VERTEX_LOOP('',#246);
#36=VERTEX_LOOP('',#247);
#37=VERTEX_LOOP('',#248);
#38=VERTEX_LOOP('',#249);
#39=VERTEX_LOOP('',#250);
#40=VERTEX_LOOP('',#251);
#41=VERTEX_LOOP('',#252);
#42=VERTEX_LOOP('',#253);
#43=VERTEX_LOOP('',#254);
#44=VERTEX_LOOP('',#255);
#45=VERTEX_LOOP('',#256);
#46=VERTEX_LOOP('',#257);
#47=VERTEX_LOOP('',#258);
#48=VERTEX_LOOP('',#259);
#49=VERTEX_LOOP('',#260);
#50=VERTEX_LOOP('',#261);
#51=VERTEX_LOOP('',#262);
#52=VERTEX_LOOP('',#263);
#53=VERTEX_LOOP('',#264);
#54=VERTEX_LOOP('',#265);
#55=VERTEX_LOOP('',#266);
#56=VERTEX_LOOP('',#267);
#57=VERTEX_LOOP('',#268);
#58=VERTEX_LOOP('',#269);
#59=VERTEX_LOOP('',#270);
#60=VERTEX_LOOP('',#271);
#61=VERTEX_LOOP('',#272);
#62=VERTEX_LOOP('',#273);
#63=VERTEX_LOOP('',#274);
#64=VERTEX_LOOP('',#275);
#65=VERTEX_LOOP('',#276);
#66=VERTEX_LOOP('',#277);
#67=VERTEX_LOOP('',#278);
#68=VERTEX_LOOP('',#279);
#69=VERTEX_LOOP('',#280);
#70=VERTEX_LOOP('',#281);
#71=VERTEX_LOOP('',#282);
#72=SPHERICAL_SURFACE('',#1080,62.5);
#73=SPHERICAL_SURFACE('',#1092,6.26440601751715);
#74=SPHERICAL_SURFACE('',#1093,6.26440601751715);
#75=SPHERICAL_SURFACE('',#1094,6.26440601751715);
#76=SPHERICAL_SURFACE('',#1095,6.26440601751715);
#77=SPHERICAL_SURFACE('',#1096,6.26440601751715);
#78=SPHERICAL_SURFACE('',#1097,6.26440601751715);
#79=SPHERICAL_SURFACE('',#1098,6.26440601751715);
#80=SPHERICAL_SURFACE('',#1099,6.26440601751715);
#81=SPHERICAL_SURFACE('',#1100,6.26440601751715);
#82=SPHERICAL_SURFACE('',#1101,6.26440601751715);
#83=SPHERICAL_SURFACE('',#1102,6.26440601751715);
#84=SPHERICAL_SURFACE('',#1103,6.26440601751715);
#85=SPHERICAL_SURFACE('',#1104,6.26440601751715);
#86=SPHERICAL_SURFACE('',#1105,6.26440601751715);
#87=SPHERICAL_SURFACE('',#1106,6.26440601751715);
#88=SPHERICAL_SURFACE('',#1107,6.26440601751715);
#89=SPHERICAL_SURFACE('',#1108,6.26440601751715);
#90=SPHERICAL_SURFACE('',#1109,6.26440601751715);
#91=SPHERICAL_SURFACE('',#1110,6.26440601751715);
#92=SPHERICAL_SURFACE('',#1111,6.26440601751715);
#93=SPHERICAL_SURFACE('',#1112,6.26440601751715);
#94=SPHERICAL_SURFACE('',#1113,6.26440601751715);
#95=SPHERICAL_SURFACE('',#1114,6.26440601751715);
#96=SPHERICAL_SURFACE('',#1115,6.26440601751715);
#97=SPHERICAL_SURFACE('',#1116,6.26440601751715);
#98=SPHERICAL_SURFACE('',#1117,6.26440601751715);
#99=SPHERICAL_SURFACE('',#1118,6.26440601751715);
#100=SPHERICAL_SURFACE('',#1119,6.26440601751715);
#101=SPHERICAL_SURFACE('',#1120,6.26440601751715);
#102=SPHERICAL_SURFACE('',#1121,6.26440601751715);
#103=SPHERICAL_SURFACE('',#1122,6.26440601751715);
#104=SPHERICAL_SURFACE('',#1123,6.26440601751715);
#105=SPHERICAL_SURFACE('',#1124,6.26440601751715);
#106=SPHERICAL_SURFACE('',#1125,6.26440601751715);
#107=SPHERICAL_SURFACE('',#1126,6.26440601751715);
#108=SPHERICAL_SURFACE('',#1127,6.26440601751715);
#109=SPHERICAL_SURFACE('',#1128,6.26440601751715);
#110=SPHERICAL_SURFACE('',#1129,6.26440601751715);
#111=SPHERICAL_SURFACE('',#1130,6.26440601751715);
#112=SPHERICAL_SURFACE('',#1131,6.26440601751715);
#113=SPHERICAL_SURFACE('',#1132,6.26440601751715);
#114=SPHERICAL_SURFACE('',#1133,6.26440601751715);
#115=SPHERICAL_SURFACE('',#1134,6.26440601751715);
#116=SPHERICAL_SURFACE('',#1135,6.26440601751715);
#117=SPHERICAL_SURFACE('',#1136,6.26440601751715);
#118=SPHERICAL_SURFACE('',#1137,6.26440601751715);
#119=SPHERICAL_SURFACE('',#1138,6.26440601751715);
#120=SPHERICAL_SURFACE('',#1139,6.26440601751715);
#121=SPHERICAL_SURFACE('',#1140,6.26440601751715);
#122=SPHERICAL_SURFACE('',#1141,6.26440601751715);
#123=SPHERICAL_SURFACE('',#1142,6.26440601751715);
#124=SPHERICAL_SURFACE('',#1143,6.26440601751715);
#125=SPHERICAL_SURFACE('',#1144,6.26440601751715);
#126=SPHERICAL_SURFACE('',#1145,6.26440601751715);
#127=SHAPE_REPRESENTATION_RELATIONSHIP('','',#1058,#128);
#128=ADVANCED_BREP_SHAPE_REPRESENTATION('',(#1000,#1001,#1002,#1003,#1004,
#1005,#1006,#1007,#1008,#1009,#1010,#1011,#1012,#1013,#1014,#1015,#1016,
#1017,#1018,#1019,#1020,#1021,#1022,#1023,#1024,#1025,#1026,#1027,#1028,
#1029,#1030,#1031,#1032,#1033,#1034,#1035,#1036,#1037,#1038,#1039,#1040,
#1041,#1042,#1043,#1044,#1045,#1046,#1047,#1048,#1049,#1050,#1051,#1052,
#1053,#1054,#1055,#1056),#1541);
#129=CONICAL_SURFACE('',#1075,42.1666666666667,0.0831412318884412);
#130=CONICAL_SURFACE('',#1149,39.99,0.0831412318884416);
#131=TOROIDAL_SURFACE('',#1068,55.8744060175172,6.27440601751715);
#132=TOROIDAL_SURFACE('',#1072,55.8744060175172,6.27440601751715);
#133=TOROIDAL_SURFACE('',#1078,44.0069324297987,2.);
#134=TOROIDAL_SURFACE('',#1079,42.1735990964654,2.);
#135=TOROIDAL_SURFACE('',#1090,68.,2.);
#136=TOROIDAL_SURFACE('',#1091,68.,2.);
#137=TOROIDAL_SURFACE('',#1159,41.3207004517673,1.);
#138=CYLINDRICAL_SURFACE('',#1066,50.8);
#139=CYLINDRICAL_SURFACE('',#1070,50.8);
#140=CYLINDRICAL_SURFACE('',#1074,50.8);
#141=CYLINDRICAL_SURFACE('',#1085,70.);
#142=CYLINDRICAL_SURFACE('',#1154,35.);
#143=CYLINDRICAL_SURFACE('',#1158,52.5);
#144=ORIENTED_EDGE('',*,*,#190,.T.);
#145=ORIENTED_EDGE('',*,*,#191,.T.);
#146=ORIENTED_EDGE('',*,*,#192,.T.);
#147=ORIENTED_EDGE('',*,*,#193,.F.);
#148=ORIENTED_EDGE('',*,*,#194,.F.);
#149=ORIENTED_EDGE('',*,*,#193,.T.);
#150=ORIENTED_EDGE('',*,*,#195,.F.);
#151=ORIENTED_EDGE('',*,*,#194,.T.);
#152=ORIENTED_EDGE('',*,*,#196,.F.);
#153=ORIENTED_EDGE('',*,*,#195,.T.);
#154=ORIENTED_EDGE('',*,*,#197,.F.);
#155=ORIENTED_EDGE('',*,*,#196,.T.);
#156=ORIENTED_EDGE('',*,*,#191,.F.);
#157=ORIENTED_EDGE('',*,*,#197,.T.);
#158=ORIENTED_EDGE('',*,*,#198,.T.);
#159=ORIENTED_EDGE('',*,*,#199,.T.);
#160=ORIENTED_EDGE('',*,*,#199,.F.);
#161=ORIENTED_EDGE('',*,*,#192,.F.);
#162=ORIENTED_EDGE('',*,*,#190,.F.);
#163=ORIENTED_EDGE('',*,*,#198,.F.);
#164=ORIENTED_EDGE('',*,*,#200,.F.);
#165=ORIENTED_EDGE('',*,*,#201,.T.);
#166=ORIENTED_EDGE('',*,*,#202,.T.);
#167=ORIENTED_EDGE('',*,*,#200,.T.);
#168=ORIENTED_EDGE('',*,*,#203,.T.);
#169=ORIENTED_EDGE('',*,*,#204,.T.);
#170=ORIENTED_EDGE('',*,*,#205,.T.);
#171=ORIENTED_EDGE('',*,*,#201,.F.);
#172=ORIENTED_EDGE('',*,*,#204,.F.);
#173=ORIENTED_EDGE('',*,*,#205,.F.);
#174=ORIENTED_EDGE('',*,*,#202,.F.);
#175=ORIENTED_EDGE('',*,*,#203,.F.);
#176=ORIENTED_EDGE('',*,*,#206,.T.);
#177=ORIENTED_EDGE('',*,*,#207,.F.);
#178=ORIENTED_EDGE('',*,*,#208,.T.);
#179=ORIENTED_EDGE('',*,*,#206,.F.);
#180=ORIENTED_EDGE('',*,*,#209,.T.);
#181=ORIENTED_EDGE('',*,*,#210,.T.);
#182=ORIENTED_EDGE('',*,*,#211,.T.);
#183=ORIENTED_EDGE('',*,*,#210,.F.);
#184=ORIENTED_EDGE('',*,*,#212,.T.);
#185=ORIENTED_EDGE('',*,*,#211,.F.);
#186=ORIENTED_EDGE('',*,*,#207,.T.);
#187=ORIENTED_EDGE('',*,*,#212,.F.);
#188=ORIENTED_EDGE('',*,*,#209,.F.);
#189=ORIENTED_EDGE('',*,*,#208,.F.);
#190=EDGE_CURVE('',#213,#213,#290,.T.);
#191=EDGE_CURVE('',#214,#214,#291,.T.);
#192=EDGE_CURVE('',#215,#215,#292,.T.);
#193=EDGE_CURVE('',#216,#216,#293,.T.);
#194=EDGE_CURVE('',#217,#217,#294,.T.);
#195=EDGE_CURVE('',#218,#218,#295,.T.);
#196=EDGE_CURVE('',#219,#219,#296,.T.);
#197=EDGE_CURVE('',#220,#220,#297,.T.);
#198=EDGE_CURVE('',#221,#221,#298,.F.);
#199=EDGE_CURVE('',#222,#222,#299,.T.);
#200=EDGE_CURVE('',#223,#223,#300,.T.);
#201=EDGE_CURVE('',#224,#224,#301,.T.);
#202=EDGE_CURVE('',#225,#225,#302,.F.);
#203=EDGE_CURVE('',#226,#226,#303,.T.);
#204=EDGE_CURVE('',#227,#227,#304,.T.);
#205=EDGE_CURVE('',#228,#228,#305,.F.);
#206=EDGE_CURVE('',#283,#283,#306,.T.);
#207=EDGE_CURVE('',#284,#284,#307,.T.);
#208=EDGE_CURVE('',#285,#285,#308,.T.);
#209=EDGE_CURVE('',#286,#286,#309,.T.);
#210=EDGE_CURVE('',#287,#287,#310,.T.);
#211=EDGE_CURVE('',#288,#288,#311,.T.);
#212=EDGE_CURVE('',#289,#289,#312,.T.);
#213=VERTEX_POINT('',#1365);
#214=VERTEX_POINT('',#1367);
#215=VERTEX_POINT('',#1370);
#216=VERTEX_POINT('',#1372);
#217=VERTEX_POINT('',#1375);
#218=VERTEX_POINT('',#1378);
#219=VERTEX_POINT('',#1381);
#220=VERTEX_POINT('',#1384);
#221=VERTEX_POINT('',#1388);
#222=VERTEX_POINT('',#1390);
#223=VERTEX_POINT('',#1395);
#224=VERTEX_POINT('',#1397);
#225=VERTEX_POINT('',#1400);
#226=VERTEX_POINT('',#1403);
#227=VERTEX_POINT('',#1405);
#228=VERTEX_POINT('',#1408);
#229=VERTEX_POINT('',#1412);
#230=VERTEX_POINT('',#1414);
#231=VERTEX_POINT('',#1416);
#232=VERTEX_POINT('',#1418);
#233=VERTEX_POINT('',#1420);
#234=VERTEX_POINT('',#1422);
#235=VERTEX_POINT('',#1424);
#236=VERTEX_POINT('',#1426);
#237=VERTEX_POINT('',#1428);
#238=VERTEX_POINT('',#1430);
#239=VERTEX_POINT('',#1432);
#240=VERTEX_POINT('',#1434);
#241=VERTEX_POINT('',#1436);
#242=VERTEX_POINT('',#1438);
#243=VERTEX_POINT('',#1440);
#244=VERTEX_POINT('',#1442);
#245=VERTEX_POINT('',#1444);
#246=VERTEX_POINT('',#1446);
#247=VERTEX_POINT('',#1448);
#248=VERTEX_POINT('',#1450);
#249=VERTEX_POINT('',#1452);
#250=VERTEX_POINT('',#1454);
#251=VERTEX_POINT('',#1456);
#252=VERTEX_POINT('',#1458);
#253=VERTEX_POINT('',#1460);
#254=VERTEX_POINT('',#1462);
#255=VERTEX_POINT('',#1464);
#256=VERTEX_POINT('',#1466);
#257=VERTEX_POINT('',#1468);
#258=VERTEX_POINT('',#1470);
#259=VERTEX_POINT('',#1472);
#260=VERTEX_POINT('',#1474);
#261=VERTEX_POINT('',#1476);
#262=VERTEX_POINT('',#1478);
#263=VERTEX_POINT('',#1480);
#264=VERTEX_POINT('',#1482);
#265=VERTEX_POINT('',#1484);
#266=VERTEX_POINT('',#1486);
#267=VERTEX_POINT('',#1488);
#268=VERTEX_POINT('',#1490);
#269=VERTEX_POINT('',#1492);
#270=VERTEX_POINT('',#1494);
#271=VERTEX_POINT('',#1496);
#272=VERTEX_POINT('',#1498);
#273=VERTEX_POINT('',#1500);
#274=VERTEX_POINT('',#1502);
#275=VERTEX_POINT('',#1504);
#276=VERTEX_POINT('',#1506);
#277=VERTEX_POINT('',#1508);
#278=VERTEX_POINT('',#1510);
#279=VERTEX_POINT('',#1512);
#280=VERTEX_POINT('',#1514);
#281=VERTEX_POINT('',#1516);
#282=VERTEX_POINT('',#1518);
#283=VERTEX_POINT('',#1521);
#284=VERTEX_POINT('',#1523);
#285=VERTEX_POINT('',#1526);
#286=VERTEX_POINT('',#1529);
#287=VERTEX_POINT('',#1531);
#288=VERTEX_POINT('',#1534);
#289=VERTEX_POINT('',#1537);
#290=CIRCLE('',#1061,42.1735990964654);
#291=CIRCLE('',#1062,50.8);
#292=CIRCLE('',#1064,44.0069324297987);
#293=CIRCLE('',#1065,50.8);
#294=CIRCLE('',#1067,50.8);
#295=CIRCLE('',#1069,50.8);
#296=CIRCLE('',#1071,50.8);
#297=CIRCLE('',#1073,50.8);
#298=CIRCLE('',#1076,40.1805075799756);
#299=CIRCLE('',#1077,42.013840913309);
#300=CIRCLE('',#1081,61.1330516169445);
#301=CIRCLE('',#1082,61.1330516169445);
#302=CIRCLE('',#1084,68.);
#303=CIRCLE('',#1086,70.);
#304=CIRCLE('',#1087,70.);
#305=CIRCLE('',#1089,68.);
#306=CIRCLE('',#1147,39.99);
#307=CIRCLE('',#1148,52.5);
#308=CIRCLE('',#1150,42.3172462100122);
#309=CIRCLE('',#1152,41.3207004517673);
#310=CIRCLE('',#1153,35.);
#311=CIRCLE('',#1155,35.);
#312=CIRCLE('',#1157,52.5);
#313=EDGE_LOOP('',(#144));
#314=EDGE_LOOP('',(#145));
#315=EDGE_LOOP('',(#146));
#316=EDGE_LOOP('',(#147));
#317=EDGE_LOOP('',(#148));
#318=EDGE_LOOP('',(#149));
#319=EDGE_LOOP('',(#150));
#320=EDGE_LOOP('',(#151));
#321=EDGE_LOOP('',(#152));
#322=EDGE_LOOP('',(#153));
#323=EDGE_LOOP('',(#154));
#324=EDGE_LOOP('',(#155));
#325=EDGE_LOOP('',(#156));
#326=EDGE_LOOP('',(#157));
#327=EDGE_LOOP('',(#158));
#328=EDGE_LOOP('',(#159));
#329=EDGE_LOOP('',(#160));
#330=EDGE_LOOP('',(#161));
#331=EDGE_LOOP('',(#162));
#332=EDGE_LOOP('',(#163));
#333=EDGE_LOOP('',(#164));
#334=EDGE_LOOP('',(#165));
#335=EDGE_LOOP('',(#166));
#336=EDGE_LOOP('',(#167));
#337=EDGE_LOOP('',(#168));
#338=EDGE_LOOP('',(#169));
#339=EDGE_LOOP('',(#170));
#340=EDGE_LOOP('',(#171));
#341=EDGE_LOOP('',(#172));
#342=EDGE_LOOP('',(#173));
#343=EDGE_LOOP('',(#174));
#344=EDGE_LOOP('',(#175));
#345=EDGE_LOOP('',(#176));
#346=EDGE_LOOP('',(#177));
#347=EDGE_LOOP('',(#178));
#348=EDGE_LOOP('',(#179));
#349=EDGE_LOOP('',(#180));
#350=EDGE_LOOP('',(#181));
#351=EDGE_LOOP('',(#182));
#352=EDGE_LOOP('',(#183));
#353=EDGE_LOOP('',(#184));
#354=EDGE_LOOP('',(#185));
#355=EDGE_LOOP('',(#186));
#356=EDGE_LOOP('',(#187));
#357=EDGE_LOOP('',(#188));
#358=EDGE_LOOP('',(#189));
#359=FACE_BOUND('',#313,.T.);
#360=FACE_BOUND('',#314,.T.);
#361=FACE_BOUND('',#315,.T.);
#362=FACE_BOUND('',#316,.T.);
#363=FACE_BOUND('',#317,.T.);
#364=FACE_BOUND('',#318,.T.);
#365=FACE_BOUND('',#319,.T.);
#366=FACE_BOUND('',#320,.T.);
#367=FACE_BOUND('',#321,.T.);
#368=FACE_BOUND('',#322,.T.);
#369=FACE_BOUND('',#323,.T.);
#370=FACE_BOUND('',#324,.T.);
#371=FACE_BOUND('',#325,.T.);
#372=FACE_BOUND('',#326,.T.);
#373=FACE_BOUND('',#327,.T.);
#374=FACE_BOUND('',#328,.T.);
#375=FACE_BOUND('',#329,.T.);
#376=FACE_BOUND('',#330,.T.);
#377=FACE_BOUND('',#331,.T.);
#378=FACE_BOUND('',#332,.T.);
#379=FACE_BOUND('',#333,.T.);
#380=FACE_BOUND('',#334,.T.);
#381=FACE_BOUND('',#335,.T.);
#382=FACE_BOUND('',#336,.T.);
#383=FACE_BOUND('',#337,.T.);
#384=FACE_BOUND('',#338,.T.);
#385=FACE_BOUND('',#339,.T.);
#386=FACE_BOUND('',#340,.T.);
#387=FACE_BOUND('',#341,.T.);
#388=FACE_BOUND('',#342,.T.);
#389=FACE_BOUND('',#343,.T.);
#390=FACE_BOUND('',#344,.T.);
#391=FACE_BOUND('',#18,.T.);
#392=FACE_BOUND('',#19,.T.);
#393=FACE_BOUND('',#20,.T.);
#394=FACE_BOUND('',#21,.T.);
#395=FACE_BOUND('',#22,.T.);
#396=FACE_BOUND('',#23,.T.);
#397=FACE_BOUND('',#24,.T.);
#398=FACE_BOUND('',#25,.T.);
#399=FACE_BOUND('',#26,.T.);
#400=FACE_BOUND('',#27,.T.);
#401=FACE_BOUND('',#28,.T.);
#402=FACE_BOUND('',#29,.T.);
#403=FACE_BOUND('',#30,.T.);
#404=FACE_BOUND('',#31,.T.);
#405=FACE_BOUND('',#32,.T.);
#406=FACE_BOUND('',#33,.T.);
#407=FACE_BOUND('',#34,.T.);
#408=FACE_BOUND('',#35,.T.);
#409=FACE_BOUND('',#36,.T.);
#410=FACE_BOUND('',#37,.T.);
#411=FACE_BOUND('',#38,.T.);
#412=FACE_BOUND('',#39,.T.);
#413=FACE_BOUND('',#40,.T.);
#414=FACE_BOUND('',#41,.T.);
#415=FACE_BOUND('',#42,.T.);
#416=FACE_BOUND('',#43,.T.);
#417=FACE_BOUND('',#44,.T.);
#418=FACE_BOUND('',#45,.T.);
#419=FACE_BOUND('',#46,.T.);
#420=FACE_BOUND('',#47,.T.);
#421=FACE_BOUND('',#48,.T.);
#422=FACE_BOUND('',#49,.T.);
#423=FACE_BOUND('',#50,.T.);
#424=FACE_BOUND('',#51,.T.);
#425=FACE_BOUND('',#52,.T.);
#426=FACE_BOUND('',#53,.T.);
#427=FACE_BOUND('',#54,.T.);
#428=FACE_BOUND('',#55,.T.);
#429=FACE_BOUND('',#56,.T.);
#430=FACE_BOUND('',#57,.T.);
#431=FACE_BOUND('',#58,.T.);
#432=FACE_BOUND('',#59,.T.);
#433=FACE_BOUND('',#60,.T.);
#434=FACE_BOUND('',#61,.T.);
#435=FACE_BOUND('',#62,.T.);
#436=FACE_BOUND('',#63,.T.);
#437=FACE_BOUND('',#64,.T.);
#438=FACE_BOUND('',#65,.T.);
#439=FACE_BOUND('',#66,.T.);
#440=FACE_BOUND('',#67,.T.);
#441=FACE_BOUND('',#68,.T.);
#442=FACE_BOUND('',#69,.T.);
#443=FACE_BOUND('',#70,.T.);
#444=FACE_BOUND('',#71,.T.);
#445=FACE_BOUND('',#345,.T.);
#446=FACE_BOUND('',#346,.T.);
#447=FACE_BOUND('',#347,.T.);
#448=FACE_BOUND('',#348,.T.);
#449=FACE_BOUND('',#349,.T.);
#450=FACE_BOUND('',#350,.T.);
#451=FACE_BOUND('',#351,.T.);
#452=FACE_BOUND('',#352,.T.);
#453=FACE_BOUND('',#353,.T.);
#454=FACE_BOUND('',#354,.T.);
#455=FACE_BOUND('',#355,.T.);
#456=FACE_BOUND('',#356,.T.);
#457=FACE_BOUND('',#357,.T.);
#458=FACE_BOUND('',#358,.T.);
#459=PLANE('',#1060);
#460=PLANE('',#1063);
#461=PLANE('',#1083);
#462=PLANE('',#1088);
#463=PLANE('',#1146);
#464=PLANE('',#1151);
#465=PLANE('',#1156);
#466=ADVANCED_FACE('',(#359,#360),#459,.F.);
#467=ADVANCED_FACE('',(#361,#362),#460,.F.);
#468=ADVANCED_FACE('',(#363,#364),#138,.T.);
#469=ADVANCED_FACE('',(#365,#366),#131,.F.);
#470=ADVANCED_FACE('',(#367,#368),#139,.T.);
#471=ADVANCED_FACE('',(#369,#370),#132,.F.);
#472=ADVANCED_FACE('',(#371,#372),#140,.T.);
#473=ADVANCED_FACE('',(#373,#374),#129,.F.);
#474=ADVANCED_FACE('',(#375,#376),#133,.T.);
#475=ADVANCED_FACE('',(#377,#378),#134,.T.);
#476=ADVANCED_FACE('',(#379,#380),#72,.F.);
#477=ADVANCED_FACE('',(#381,#382),#461,.F.);
#478=ADVANCED_FACE('',(#383,#384),#141,.T.);
#479=ADVANCED_FACE('',(#385,#386),#462,.F.);
#480=ADVANCED_FACE('',(#387,#388),#135,.T.);
#481=ADVANCED_FACE('',(#389,#390),#136,.T.);
#482=ADVANCED_FACE('',(#391),#73,.T.);
#483=ADVANCED_FACE('',(#392),#74,.T.);
#484=ADVANCED_FACE('',(#393),#75,.T.);
#485=ADVANCED_FACE('',(#394),#76,.T.);
#486=ADVANCED_FACE('',(#395),#77,.T.);
#487=ADVANCED_FACE('',(#396),#78,.T.);
#488=ADVANCED_FACE('',(#397),#79,.T.);
#489=ADVANCED_FACE('',(#398),#80,.T.);
#490=ADVANCED_FACE('',(#399),#81,.T.);
#491=ADVANCED_FACE('',(#400),#82,.T.);
#492=ADVANCED_FACE('',(#401),#83,.T.);
#493=ADVANCED_FACE('',(#402),#84,.T.);
#494=ADVANCED_FACE('',(#403),#85,.T.);
#495=ADVANCED_FACE('',(#404),#86,.T.);
#496=ADVANCED_FACE('',(#405),#87,.T.);
#497=ADVANCED_FACE('',(#406),#88,.T.);
#498=ADVANCED_FACE('',(#407),#89,.T.);
#499=ADVANCED_FACE('',(#408),#90,.T.);
#500=ADVANCED_FACE('',(#409),#91,.T.);
#501=ADVANCED_FACE('',(#410),#92,.T.);
#502=ADVANCED_FACE('',(#411),#93,.T.);
#503=ADVANCED_FACE('',(#412),#94,.T.);
#504=ADVANCED_FACE('',(#413),#95,.T.);
#505=ADVANCED_FACE('',(#414),#96,.T.);
#506=ADVANCED_FACE('',(#415),#97,.T.);
#507=ADVANCED_FACE('',(#416),#98,.T.);
#508=ADVANCED_FACE('',(#417),#99,.T.);
#509=ADVANCED_FACE('',(#418),#100,.T.);
#510=ADVANCED_FACE('',(#419),#101,.T.);
#511=ADVANCED_FACE('',(#420),#102,.T.);
#512=ADVANCED_FACE('',(#421),#103,.T.);
#513=ADVANCED_FACE('',(#422),#104,.T.);
#514=ADVANCED_FACE('',(#423),#105,.T.);
#515=ADVANCED_FACE('',(#424),#106,.T.);
#516=ADVANCED_FACE('',(#425),#107,.T.);
#517=ADVANCED_FACE('',(#426),#108,.T.);
#518=ADVANCED_FACE('',(#427),#109,.T.);
#519=ADVANCED_FACE('',(#428),#110,.T.);
#520=ADVANCED_FACE('',(#429),#111,.T.);
#521=ADVANCED_FACE('',(#430),#112,.T.);
#522=ADVANCED_FACE('',(#431),#113,.T.);
#523=ADVANCED_FACE('',(#432),#114,.T.);
#524=ADVANCED_FACE('',(#433),#115,.T.);
#525=ADVANCED_FACE('',(#434),#116,.T.);
#526=ADVANCED_FACE('',(#435),#117,.T.);
#527=ADVANCED_FACE('',(#436),#118,.T.);
#528=ADVANCED_FACE('',(#437),#119,.T.);
#529=ADVANCED_FACE('',(#438),#120,.T.);
#530=ADVANCED_FACE('',(#439),#121,.T.);
#531=ADVANCED_FACE('',(#440),#122,.T.);
#532=ADVANCED_FACE('',(#441),#123,.T.);
#533=ADVANCED_FACE('',(#442),#124,.T.);
#534=ADVANCED_FACE('',(#443),#125,.T.);
#535=ADVANCED_FACE('',(#444),#126,.T.);
#536=ADVANCED_FACE('',(#445,#446),#463,.T.);
#537=ADVANCED_FACE('',(#447,#448),#130,.T.);
#538=ADVANCED_FACE('',(#449,#450),#464,.T.);
#539=ADVANCED_FACE('',(#451,#452),#142,.F.);
#540=ADVANCED_FACE('',(#453,#454),#465,.T.);
#541=ADVANCED_FACE('',(#455,#456),#143,.T.);
#542=ADVANCED_FACE('',(#457,#458),#137,.T.);
#543=CLOSED_SHELL('',(#466,#467,#468,#469,#470,#471,#472,#473,#474,#475));
#544=CLOSED_SHELL('',(#476,#477,#478,#479,#480,#481));
#545=CLOSED_SHELL('',(#482));
#546=CLOSED_SHELL('',(#483));
#547=CLOSED_SHELL('',(#484));
#548=CLOSED_SHELL('',(#485));
#549=CLOSED_SHELL('',(#486));
#550=CLOSED_SHELL('',(#487));
#551=CLOSED_SHELL('',(#488));
#552=CLOSED_SHELL('',(#489));
#553=CLOSED_SHELL('',(#490));
#554=CLOSED_SHELL('',(#491));
#555=CLOSED_SHELL('',(#492));
#556=CLOSED_SHELL('',(#493));
#557=CLOSED_SHELL('',(#494));
#558=CLOSED_SHELL('',(#495));
#559=CLOSED_SHELL('',(#496));
#560=CLOSED_SHELL('',(#497));
#561=CLOSED_SHELL('',(#498));
#562=CLOSED_SHELL('',(#499));
#563=CLOSED_SHELL('',(#500));
#564=CLOSED_SHELL('',(#501));
#565=CLOSED_SHELL('',(#502));
#566=CLOSED_SHELL('',(#503));
#567=CLOSED_SHELL('',(#504));
#568=CLOSED_SHELL('',(#505));
#569=CLOSED_SHELL('',(#506));
#570=CLOSED_SHELL('',(#507));
#571=CLOSED_SHELL('',(#508));
#572=CLOSED_SHELL('',(#509));
#573=CLOSED_SHELL('',(#510));
#574=CLOSED_SHELL('',(#511));
#575=CLOSED_SHELL('',(#512));
#576=CLOSED_SHELL('',(#513));
#577=CLOSED_SHELL('',(#514));
#578=CLOSED_SHELL('',(#515));
#579=CLOSED_SHELL('',(#516));
#580=CLOSED_SHELL('',(#517));
#581=CLOSED_SHELL('',(#518));
#582=CLOSED_SHELL('',(#519));
#583=CLOSED_SHELL('',(#520));
#584=CLOSED_SHELL('',(#521));
#585=CLOSED_SHELL('',(#522));
#586=CLOSED_SHELL('',(#523));
#587=CLOSED_SHELL('',(#524));
#588=CLOSED_SHELL('',(#525));
#589=CLOSED_SHELL('',(#526));
#590=CLOSED_SHELL('',(#527));
#591=CLOSED_SHELL('',(#528));
#592=CLOSED_SHELL('',(#529));
#593=CLOSED_SHELL('',(#530));
#594=CLOSED_SHELL('',(#531));
#595=CLOSED_SHELL('',(#532));
#596=CLOSED_SHELL('',(#533));
#597=CLOSED_SHELL('',(#534));
#598=CLOSED_SHELL('',(#535));
#599=CLOSED_SHELL('',(#536,#537,#538,#539,#540,#541,#542));
#600=STYLED_ITEM('',(#657),#1000);
#601=STYLED_ITEM('',(#658),#1001);
#602=STYLED_ITEM('',(#659),#1002);
#603=STYLED_ITEM('',(#660),#1003);
#604=STYLED_ITEM('',(#661),#1004);
#605=STYLED_ITEM('',(#662),#1005);
#606=STYLED_ITEM('',(#663),#1006);
#607=STYLED_ITEM('',(#664),#1007);
#608=STYLED_ITEM('',(#665),#1008);
#609=STYLED_ITEM('',(#666),#1009);
#610=STYLED_ITEM('',(#667),#1010);
#611=STYLED_ITEM('',(#668),#1011);
#612=STYLED_ITEM('',(#669),#1012);
#613=STYLED_ITEM('',(#670),#1013);
#614=STYLED_ITEM('',(#671),#1014);
#615=STYLED_ITEM('',(#672),#1015);
#616=STYLED_ITEM('',(#673),#1016);
#617=STYLED_ITEM('',(#674),#1017);
#618=STYLED_ITEM('',(#675),#1018);
#619=STYLED_ITEM('',(#676),#1019);
#620=STYLED_ITEM('',(#677),#1020);
#621=STYLED_ITEM('',(#678),#1021);
#622=STYLED_ITEM('',(#679),#1022);
#623=STYLED_ITEM('',(#680),#1023);
#624=STYLED_ITEM('',(#681),#1024);
#625=STYLED_ITEM('',(#682),#1025);
#626=STYLED_ITEM('',(#683),#1026);
#627=STYLED_ITEM('',(#684),#1027);
#628=STYLED_ITEM('',(#685),#1028);
#629=STYLED_ITEM('',(#686),#1029);
#630=STYLED_ITEM('',(#687),#1030);
#631=STYLED_ITEM('',(#688),#1031);
#632=STYLED_ITEM('',(#689),#1032);
#633=STYLED_ITEM('',(#690),#1033);
#634=STYLED_ITEM('',(#691),#1034);
#635=STYLED_ITEM('',(#692),#1035);
#636=STYLED_ITEM('',(#693),#1036);
#637=STYLED_ITEM('',(#694),#1037);
#638=STYLED_ITEM('',(#695),#1038);
#639=STYLED_ITEM('',(#696),#1039);
#640=STYLED_ITEM('',(#697),#1040);
#641=STYLED_ITEM('',(#698),#1041);
#642=STYLED_ITEM('',(#699),#1042);
#643=STYLED_ITEM('',(#700),#1043);
#644=STYLED_ITEM('',(#701),#1044);
#645=STYLED_ITEM('',(#702),#1045);
#646=STYLED_ITEM('',(#703),#1046);
#647=STYLED_ITEM('',(#704),#1047);
#648=STYLED_ITEM('',(#705),#1048);
#649=STYLED_ITEM('',(#706),#1049);
#650=STYLED_ITEM('',(#707),#1050);
#651=STYLED_ITEM('',(#708),#1051);
#652=STYLED_ITEM('',(#709),#1052);
#653=STYLED_ITEM('',(#710),#1053);
#654=STYLED_ITEM('',(#711),#1054);
#655=STYLED_ITEM('',(#712),#1055);
#656=STYLED_ITEM('',(#713),#1056);
#657=PRESENTATION_STYLE_ASSIGNMENT((#714));
#658=PRESENTATION_STYLE_ASSIGNMENT((#715));
#659=PRESENTATION_STYLE_ASSIGNMENT((#716));
#660=PRESENTATION_STYLE_ASSIGNMENT((#717));
#661=PRESENTATION_STYLE_ASSIGNMENT((#718));
#662=PRESENTATION_STYLE_ASSIGNMENT((#719));
#663=PRESENTATION_STYLE_ASSIGNMENT((#720));
#664=PRESENTATION_STYLE_ASSIGNMENT((#721));
#665=PRESENTATION_STYLE_ASSIGNMENT((#722));
#666=PRESENTATION_STYLE_ASSIGNMENT((#723));
#667=PRESENTATION_STYLE_ASSIGNMENT((#724));
#668=PRESENTATION_STYLE_ASSIGNMENT((#725));
#669=PRESENTATION_STYLE_ASSIGNMENT((#726));
#670=PRESENTATION_STYLE_ASSIGNMENT((#727));
#671=PRESENTATION_STYLE_ASSIGNMENT((#728));
#672=PRESENTATION_STYLE_ASSIGNMENT((#729));
#673=PRESENTATION_STYLE_ASSIGNMENT((#730));
#674=PRESENTATION_STYLE_ASSIGNMENT((#731));
#675=PRESENTATION_STYLE_ASSIGNMENT((#732));
#676=PRESENTATION_STYLE_ASSIGNMENT((#733));
#677=PRESENTATION_STYLE_ASSIGNMENT((#734));
#678=PRESENTATION_STYLE_ASSIGNMENT((#735));
#679=PRESENTATION_STYLE_ASSIGNMENT((#736));
#680=PRESENTATION_STYLE_ASSIGNMENT((#737));
#681=PRESENTATION_STYLE_ASSIGNMENT((#738));
#682=PRESENTATION_STYLE_ASSIGNMENT((#739));
#683=PRESENTATION_STYLE_ASSIGNMENT((#740));
#684=PRESENTATION_STYLE_ASSIGNMENT((#741));
#685=PRESENTATION_STYLE_ASSIGNMENT((#742));
#686=PRESENTATION_STYLE_ASSIGNMENT((#743));
#687=PRESENTATION_STYLE_ASSIGNMENT((#744));
#688=PRESENTATION_STYLE_ASSIGNMENT((#745));
#689=PRESENTATION_STYLE_ASSIGNMENT((#746));
#690=PRESENTATION_STYLE_ASSIGNMENT((#747));
#691=PRESENTATION_STYLE_ASSIGNMENT((#748));
#692=PRESENTATION_STYLE_ASSIGNMENT((#749));
#693=PRESENTATION_STYLE_ASSIGNMENT((#750));
#694=PRESENTATION_STYLE_ASSIGNMENT((#751));
#695=PRESENTATION_STYLE_ASSIGNMENT((#752));
#696=PRESENTATION_STYLE_ASSIGNMENT((#753));
#697=PRESENTATION_STYLE_ASSIGNMENT((#754));
#698=PRESENTATION_STYLE_ASSIGNMENT((#755));
#699=PRESENTATION_STYLE_ASSIGNMENT((#756));
#700=PRESENTATION_STYLE_ASSIGNMENT((#757));
#701=PRESENTATION_STYLE_ASSIGNMENT((#758));
#702=PRESENTATION_STYLE_ASSIGNMENT((#759));
#703=PRESENTATION_STYLE_ASSIGNMENT((#760));
#704=PRESENTATION_STYLE_ASSIGNMENT((#761));
#705=PRESENTATION_STYLE_ASSIGNMENT((#762));
#706=PRESENTATION_STYLE_ASSIGNMENT((#763));
#707=PRESENTATION_STYLE_ASSIGNMENT((#764));
#708=PRESENTATION_STYLE_ASSIGNMENT((#765));
#709=PRESENTATION_STYLE_ASSIGNMENT((#766));
#710=PRESENTATION_STYLE_ASSIGNMENT((#767));
#711=PRESENTATION_STYLE_ASSIGNMENT((#768));
#712=PRESENTATION_STYLE_ASSIGNMENT((#769));
#713=PRESENTATION_STYLE_ASSIGNMENT((#770));
#714=SURFACE_STYLE_USAGE(.BOTH.,#771);
#715=SURFACE_STYLE_USAGE(.BOTH.,#772);
#716=SURFACE_STYLE_USAGE(.BOTH.,#773);
#717=SURFACE_STYLE_USAGE(.BOTH.,#774);
#718=SURFACE_STYLE_USAGE(.BOTH.,#775);
#719=SURFACE_STYLE_USAGE(.BOTH.,#776);
#720=SURFACE_STYLE_USAGE(.BOTH.,#777);
#721=SURFACE_STYLE_USAGE(.BOTH.,#778);
#722=SURFACE_STYLE_USAGE(.BOTH.,#779);
#723=SURFACE_STYLE_USAGE(.BOTH.,#780);
#724=SURFACE_STYLE_USAGE(.BOTH.,#781);
#725=SURFACE_STYLE_USAGE(.BOTH.,#782);
#726=SURFACE_STYLE_USAGE(.BOTH.,#783);
#727=SURFACE_STYLE_USAGE(.BOTH.,#784);
#728=SURFACE_STYLE_USAGE(.BOTH.,#785);
#729=SURFACE_STYLE_USAGE(.BOTH.,#786);
#730=SURFACE_STYLE_USAGE(.BOTH.,#787);
#731=SURFACE_STYLE_USAGE(.BOTH.,#788);
#732=SURFACE_STYLE_USAGE(.BOTH.,#789);
#733=SURFACE_STYLE_USAGE(.BOTH.,#790);
#734=SURFACE_STYLE_USAGE(.BOTH.,#791);
#735=SURFACE_STYLE_USAGE(.BOTH.,#792);
#736=SURFACE_STYLE_USAGE(.BOTH.,#793);
#737=SURFACE_STYLE_USAGE(.BOTH.,#794);
#738=SURFACE_STYLE_USAGE(.BOTH.,#795);
#739=SURFACE_STYLE_USAGE(.BOTH.,#796);
#740=SURFACE_STYLE_USAGE(.BOTH.,#797);
#741=SURFACE_STYLE_USAGE(.BOTH.,#798);
#742=SURFACE_STYLE_USAGE(.BOTH.,#799);
#743=SURFACE_STYLE_USAGE(.BOTH.,#800);
#744=SURFACE_STYLE_USAGE(.BOTH.,#801);
#745=SURFACE_STYLE_USAGE(.BOTH.,#802);
#746=SURFACE_STYLE_USAGE(.BOTH.,#803);
#747=SURFACE_STYLE_USAGE(.BOTH.,#804);
#748=SURFACE_STYLE_USAGE(.BOTH.,#805);
#749=SURFACE_STYLE_USAGE(.BOTH.,#806);
#750=SURFACE_STYLE_USAGE(.BOTH.,#807);
#751=SURFACE_STYLE_USAGE(.BOTH.,#808);
#752=SURFACE_STYLE_USAGE(.BOTH.,#809);
#753=SURFACE_STYLE_USAGE(.BOTH.,#810);
#754=SURFACE_STYLE_USAGE(.BOTH.,#811);
#755=SURFACE_STYLE_USAGE(.BOTH.,#812);
#756=SURFACE_STYLE_USAGE(.BOTH.,#813);
#757=SURFACE_STYLE_USAGE(.BOTH.,#814);
#758=SURFACE_STYLE_USAGE(.BOTH.,#815);
#759=SURFACE_STYLE_USAGE(.BOTH.,#816);
#760=SURFACE_STYLE_USAGE(.BOTH.,#817);
#761=SURFACE_STYLE_USAGE(.BOTH.,#818);
#762=SURFACE_STYLE_USAGE(.BOTH.,#819);
#763=SURFACE_STYLE_USAGE(.BOTH.,#820);
#764=SURFACE_STYLE_USAGE(.BOTH.,#821);
#765=SURFACE_STYLE_USAGE(.BOTH.,#822);
#766=SURFACE_STYLE_USAGE(.BOTH.,#823);
#767=SURFACE_STYLE_USAGE(.BOTH.,#824);
#768=SURFACE_STYLE_USAGE(.BOTH.,#825);
#769=SURFACE_STYLE_USAGE(.BOTH.,#826);
#770=SURFACE_STYLE_USAGE(.BOTH.,#827);
#771=SURFACE_SIDE_STYLE('',(#828));
#772=SURFACE_SIDE_STYLE('',(#829));
#773=SURFACE_SIDE_STYLE('',(#830));
#774=SURFACE_SIDE_STYLE('',(#831));
#775=SURFACE_SIDE_STYLE('',(#832));
#776=SURFACE_SIDE_STYLE('',(#833));
#777=SURFACE_SIDE_STYLE('',(#834));
#778=SURFACE_SIDE_STYLE('',(#835));
#779=SURFACE_SIDE_STYLE('',(#836));
#780=SURFACE_SIDE_STYLE('',(#837));
#781=SURFACE_SIDE_STYLE('',(#838));
#782=SURFACE_SIDE_STYLE('',(#839));
#783=SURFACE_SIDE_STYLE('',(#840));
#784=SURFACE_SIDE_STYLE('',(#841));
#785=SURFACE_SIDE_STYLE('',(#842));
#786=SURFACE_SIDE_STYLE('',(#843));
#787=SURFACE_SIDE_STYLE('',(#844));
#788=SURFACE_SIDE_STYLE('',(#845));
#789=SURFACE_SIDE_STYLE('',(#846));
#790=SURFACE_SIDE_STYLE('',(#847));
#791=SURFACE_SIDE_STYLE('',(#848));
#792=SURFACE_SIDE_STYLE('',(#849));
#793=SURFACE_SIDE_STYLE('',(#850));
#794=SURFACE_SIDE_STYLE('',(#851));
#795=SURFACE_SIDE_STYLE('',(#852));
#796=SURFACE_SIDE_STYLE('',(#853));
#797=SURFACE_SIDE_STYLE('',(#854));
#798=SURFACE_SIDE_STYLE('',(#855));
#799=SURFACE_SIDE_STYLE('',(#856));
#800=SURFACE_SIDE_STYLE('',(#857));
#801=SURFACE_SIDE_STYLE('',(#858));
#802=SURFACE_SIDE_STYLE('',(#859));
#803=SURFACE_SIDE_STYLE('',(#860));
#804=SURFACE_SIDE_STYLE('',(#861));
#805=SURFACE_SIDE_STYLE('',(#862));
#806=SURFACE_SIDE_STYLE('',(#863));
#807=SURFACE_SIDE_STYLE('',(#864));
#808=SURFACE_SIDE_STYLE('',(#865));
#809=SURFACE_SIDE_STYLE('',(#866));
#810=SURFACE_SIDE_STYLE('',(#867));
#811=SURFACE_SIDE_STYLE('',(#868));
#812=SURFACE_SIDE_STYLE('',(#869));
#813=SURFACE_SIDE_STYLE('',(#870));
#814=SURFACE_SIDE_STYLE('',(#871));
#815=SURFACE_SIDE_STYLE('',(#872));
#816=SURFACE_SIDE_STYLE('',(#873));
#817=SURFACE_SIDE_STYLE('',(#874));
#818=SURFACE_SIDE_STYLE('',(#875));
#819=SURFACE_SIDE_STYLE('',(#876));
#820=SURFACE_SIDE_STYLE('',(#877));
#821=SURFACE_SIDE_STYLE('',(#878));
#822=SURFACE_SIDE_STYLE('',(#879));
#823=SURFACE_SIDE_STYLE('',(#880));
#824=SURFACE_SIDE_STYLE('',(#881));
#825=SURFACE_SIDE_STYLE('',(#882));
#826=SURFACE_SIDE_STYLE('',(#883));
#827=SURFACE_SIDE_STYLE('',(#884));
#828=SURFACE_STYLE_FILL_AREA(#885);
#829=SURFACE_STYLE_FILL_AREA(#886);
#830=SURFACE_STYLE_FILL_AREA(#887);
#831=SURFACE_STYLE_FILL_AREA(#888);
#832=SURFACE_STYLE_FILL_AREA(#889);
#833=SURFACE_STYLE_FILL_AREA(#890);
#834=SURFACE_STYLE_FILL_AREA(#891);
#835=SURFACE_STYLE_FILL_AREA(#892);
#836=SURFACE_STYLE_FILL_AREA(#893);
#837=SURFACE_STYLE_FILL_AREA(#894);
#838=SURFACE_STYLE_FILL_AREA(#895);
#839=SURFACE_STYLE_FILL_AREA(#896);
#840=SURFACE_STYLE_FILL_AREA(#897);
#841=SURFACE_STYLE_FILL_AREA(#898);
#842=SURFACE_STYLE_FILL_AREA(#899);
#843=SURFACE_STYLE_FILL_AREA(#900);
#844=SURFACE_STYLE_FILL_AREA(#901);
#845=SURFACE_STYLE_FILL_AREA(#902);
#846=SURFACE_STYLE_FILL_AREA(#903);
#847=SURFACE_STYLE_FILL_AREA(#904);
#848=SURFACE_STYLE_FILL_AREA(#905);
#849=SURFACE_STYLE_FILL_AREA(#906);
#850=SURFACE_STYLE_FILL_AREA(#907);
#851=SURFACE_STYLE_FILL_AREA(#908);
#852=SURFACE_STYLE_FILL_AREA(#909);
#853=SURFACE_STYLE_FILL_AREA(#910);
#854=SURFACE_STYLE_FILL_AREA(#911);
#855=SURFACE_STYLE_FILL_AREA(#912);
#856=SURFACE_STYLE_FILL_AREA(#913);
#857=SURFACE_STYLE_FILL_AREA(#914);
#858=SURFACE_STYLE_FILL_AREA(#915);
#859=SURFACE_STYLE_FILL_AREA(#916);
#860=SURFACE_STYLE_FILL_AREA(#917);
#861=SURFACE_STYLE_FILL_AREA(#918);
#862=SURFACE_STYLE_FILL_AREA(#919);
#863=SURFACE_STYLE_FILL_AREA(#920);
#864=SURFACE_STYLE_FILL_AREA(#921);
#865=SURFACE_STYLE_FILL_AREA(#922);
#866=SURFACE_STYLE_FILL_AREA(#923);
#867=SURFACE_STYLE_FILL_AREA(#924);
#868=SURFACE_STYLE_FILL_AREA(#925);
#869=SURFACE_STYLE_FILL_AREA(#926);
#870=SURFACE_STYLE_FILL_AREA(#927);
#871=SURFACE_STYLE_FILL_AREA(#928);
#872=SURFACE_STYLE_FILL_AREA(#929);
#873=SURFACE_STYLE_FILL_AREA(#930);
#874=SURFACE_STYLE_FILL_AREA(#931);
#875=SURFACE_STYLE_FILL_AREA(#932);
#876=SURFACE_STYLE_FILL_AREA(#933);
#877=SURFACE_STYLE_FILL_AREA(#934);
#878=SURFACE_STYLE_FILL_AREA(#935);
#879=SURFACE_STYLE_FILL_AREA(#936);
#880=SURFACE_STYLE_FILL_AREA(#937);
#881=SURFACE_STYLE_FILL_AREA(#938);
#882=SURFACE_STYLE_FILL_AREA(#939);
#883=SURFACE_STYLE_FILL_AREA(#940);
#884=SURFACE_STYLE_FILL_AREA(#941);
#885=FILL_AREA_STYLE('',(#942));
#886=FILL_AREA_STYLE('',(#943));
#887=FILL_AREA_STYLE('',(#944));
#888=FILL_AREA_STYLE('',(#945));
#889=FILL_AREA_STYLE('',(#946));
#890=FILL_AREA_STYLE('',(#947));
#891=FILL_AREA_STYLE('',(#948));
#892=FILL_AREA_STYLE('',(#949));
#893=FILL_AREA_STYLE('',(#950));
#894=FILL_AREA_STYLE('',(#951));
#895=FILL_AREA_STYLE('',(#952));
#896=FILL_AREA_STYLE('',(#953));
#897=FILL_AREA_STYLE('',(#954));
#898=FILL_AREA_STYLE('',(#955));
#899=FILL_AREA_STYLE('',(#956));
#900=FILL_AREA_STYLE('',(#957));
#901=FILL_AREA_STYLE('',(#958));
#902=FILL_AREA_STYLE('',(#959));
#903=FILL_AREA_STYLE('',(#960));
#904=FILL_AREA_STYLE('',(#961));
#905=FILL_AREA_STYLE('',(#962));
#906=FILL_AREA_STYLE('',(#963));
#907=FILL_AREA_STYLE('',(#964));
#908=FILL_AREA_STYLE('',(#965));
#909=FILL_AREA_STYLE('',(#966));
#910=FILL_AREA_STYLE('',(#967));
#911=FILL_AREA_STYLE('',(#968));
#912=FILL_AREA_STYLE('',(#969));
#913=FILL_AREA_STYLE('',(#970));
#914=FILL_AREA_STYLE('',(#971));
#915=FILL_AREA_STYLE('',(#972));
#916=FILL_AREA_STYLE('',(#973));
#917=FILL_AREA_STYLE('',(#974));
#918=FILL_AREA_STYLE('',(#975));
#919=FILL_AREA_STYLE('',(#976));
#920=FILL_AREA_STYLE('',(#977));
#921=FILL_AREA_STYLE('',(#978));
#922=FILL_AREA_STYLE('',(#979));
#923=FILL_AREA_STYLE('',(#980));
#924=FILL_AREA_STYLE('',(#981));
#925=FILL_AREA_STYLE('',(#982));
#926=FILL_AREA_STYLE('',(#983));
#927=FILL_AREA_STYLE('',(#984));
#928=FILL_AREA_STYLE('',(#985));
#929=FILL_AREA_STYLE('',(#986));
#930=FILL_AREA_STYLE('',(#987));
#931=FILL_AREA_STYLE('',(#988));
#932=FILL_AREA_STYLE('',(#989));
#933=FILL_AREA_STYLE('',(#990));
#934=FILL_AREA_STYLE('',(#991));
#935=FILL_AREA_STYLE('',(#992));
#936=FILL_AREA_STYLE('',(#993));
#937=FILL_AREA_STYLE('',(#994));
#938=FILL_AREA_STYLE('',(#995));
#939=FILL_AREA_STYLE('',(#996));
#940=FILL_AREA_STYLE('',(#997));
#941=FILL_AREA_STYLE('',(#998));
#942=FILL_AREA_STYLE_COLOUR('',#999);
#943=FILL_AREA_STYLE_COLOUR('',#999);
#944=FILL_AREA_STYLE_COLOUR('',#999);
#945=FILL_AREA_STYLE_COLOUR('',#999);
#946=FILL_AREA_STYLE_COLOUR('',#999);
#947=FILL_AREA_STYLE_COLOUR('',#999);
#948=FILL_AREA_STYLE_COLOUR('',#999);
#949=FILL_AREA_STYLE_COLOUR('',#999);
#950=FILL_AREA_STYLE_COLOUR('',#999);
#951=FILL_AREA_STYLE_COLOUR('',#999);
#952=FILL_AREA_STYLE_COLOUR('',#999);
#953=FILL_AREA_STYLE_COLOUR('',#999);
#954=FILL_AREA_STYLE_COLOUR('',#999);
#955=FILL_AREA_STYLE_COLOUR('',#999);
#956=FILL_AREA_STYLE_COLOUR('',#999);
#957=FILL_AREA_STYLE_COLOUR('',#999);
#958=FILL_AREA_STYLE_COLOUR('',#999);
#959=FILL_AREA_STYLE_COLOUR('',#999);
#960=FILL_AREA_STYLE_COLOUR('',#999);
#961=FILL_AREA_STYLE_COLOUR('',#999);
#962=FILL_AREA_STYLE_COLOUR('',#999);
#963=FILL_AREA_STYLE_COLOUR('',#999);
#964=FILL_AREA_STYLE_COLOUR('',#999);
#965=FILL_AREA_STYLE_COLOUR('',#999);
#966=FILL_AREA_STYLE_COLOUR('',#999);
#967=FILL_AREA_STYLE_COLOUR('',#999);
#968=FILL_AREA_STYLE_COLOUR('',#999);
#969=FILL_AREA_STYLE_COLOUR('',#999);
#970=FILL_AREA_STYLE_COLOUR('',#999);
#971=FILL_AREA_STYLE_COLOUR('',#999);
#972=FILL_AREA_STYLE_COLOUR('',#999);
#973=FILL_AREA_STYLE_COLOUR('',#999);
#974=FILL_AREA_STYLE_COLOUR('',#999);
#975=FILL_AREA_STYLE_COLOUR('',#999);
#976=FILL_AREA_STYLE_COLOUR('',#999);
#977=FILL_AREA_STYLE_COLOUR('',#999);
#978=FILL_AREA_STYLE_COLOUR('',#999);
#979=FILL_AREA_STYLE_COLOUR('',#999);
#980=FILL_AREA_STYLE_COLOUR('',#999);
#981=FILL_AREA_STYLE_COLOUR('',#999);
#982=FILL_AREA_STYLE_COLOUR('',#999);
#983=FILL_AREA_STYLE_COLOUR('',#999);
#984=FILL_AREA_STYLE_COLOUR('',#999);
#985=FILL_AREA_STYLE_COLOUR('',#999);
#986=FILL_AREA_STYLE_COLOUR('',#999);
#987=FILL_AREA_STYLE_COLOUR('',#999);
#988=FILL_AREA_STYLE_COLOUR('',#999);
#989=FILL_AREA_STYLE_COLOUR('',#999);
#990=FILL_AREA_STYLE_COLOUR('',#999);
#991=FILL_AREA_STYLE_COLOUR('',#999);
#992=FILL_AREA_STYLE_COLOUR('',#999);
#993=FILL_AREA_STYLE_COLOUR('',#999);
#994=FILL_AREA_STYLE_COLOUR('',#999);
#995=FILL_AREA_STYLE_COLOUR('',#999);
#996=FILL_AREA_STYLE_COLOUR('',#999);
#997=FILL_AREA_STYLE_COLOUR('',#999);
#998=FILL_AREA_STYLE_COLOUR('',#999);
#999=COLOUR_RGB('',0.506983280181885,0.531564235687256,0.550000011920929);
#1000=MANIFOLD_SOLID_BREP('',#543);
#1001=MANIFOLD_SOLID_BREP('',#544);
#1002=MANIFOLD_SOLID_BREP('',#545);
#1003=MANIFOLD_SOLID_BREP('',#546);
#1004=MANIFOLD_SOLID_BREP('',#547);
#1005=MANIFOLD_SOLID_BREP('',#548);
#1006=MANIFOLD_SOLID_BREP('',#549);
#1007=MANIFOLD_SOLID_BREP('',#550);
#1008=MANIFOLD_SOLID_BREP('',#551);
#1009=MANIFOLD_SOLID_BREP('',#552);
#1010=MANIFOLD_SOLID_BREP('',#553);
#1011=MANIFOLD_SOLID_BREP('',#554);
#1012=MANIFOLD_SOLID_BREP('',#555);
#1013=MANIFOLD_SOLID_BREP('',#556);
#1014=MANIFOLD_SOLID_BREP('',#557);
#1015=MANIFOLD_SOLID_BREP('',#558);
#1016=MANIFOLD_SOLID_BREP('',#559);
#1017=MANIFOLD_SOLID_BREP('',#560);
#1018=MANIFOLD_SOLID_BREP('',#561);
#1019=MANIFOLD_SOLID_BREP('',#562);
#1020=MANIFOLD_SOLID_BREP('',#563);
#1021=MANIFOLD_SOLID_BREP('',#564);
#1022=MANIFOLD_SOLID_BREP('',#565);
#1023=MANIFOLD_SOLID_BREP('',#566);
#1024=MANIFOLD_SOLID_BREP('',#567);
#1025=MANIFOLD_SOLID_BREP('',#568);
#1026=MANIFOLD_SOLID_BREP('',#569);
#1027=MANIFOLD_SOLID_BREP('',#570);
#1028=MANIFOLD_SOLID_BREP('',#571);
#1029=MANIFOLD_SOLID_BREP('',#572);
#1030=MANIFOLD_SOLID_BREP('',#573);
#1031=MANIFOLD_SOLID_BREP('',#574);
#1032=MANIFOLD_SOLID_BREP('',#575);
#1033=MANIFOLD_SOLID_BREP('',#576);
#1034=MANIFOLD_SOLID_BREP('',#577);
#1035=MANIFOLD_SOLID_BREP('',#578);
#1036=MANIFOLD_SOLID_BREP('',#579);
#1037=MANIFOLD_SOLID_BREP('',#580);
#1038=MANIFOLD_SOLID_BREP('',#581);
#1039=MANIFOLD_SOLID_BREP('',#582);
#1040=MANIFOLD_SOLID_BREP('',#583);
#1041=MANIFOLD_SOLID_BREP('',#584);
#1042=MANIFOLD_SOLID_BREP('',#585);
#1043=MANIFOLD_SOLID_BREP('',#586);
#1044=MANIFOLD_SOLID_BREP('',#587);
#1045=MANIFOLD_SOLID_BREP('',#588);
#1046=MANIFOLD_SOLID_BREP('',#589);
#1047=MANIFOLD_SOLID_BREP('',#590);
#1048=MANIFOLD_SOLID_BREP('',#591);
#1049=MANIFOLD_SOLID_BREP('',#592);
#1050=MANIFOLD_SOLID_BREP('',#593);
#1051=MANIFOLD_SOLID_BREP('',#594);
#1052=MANIFOLD_SOLID_BREP('',#595);
#1053=MANIFOLD_SOLID_BREP('',#596);
#1054=MANIFOLD_SOLID_BREP('',#597);
#1055=MANIFOLD_SOLID_BREP('',#598);
#1056=MANIFOLD_SOLID_BREP('',#599);
#1057=SHAPE_DEFINITION_REPRESENTATION(#1546,#1058);
#1058=SHAPE_REPRESENTATION('\X2\570667F15B548C035FC374038F74627F\X0\10
000K+H\X2\578B\X0\',(#1059),#1541);
#1059=AXIS2_PLACEMENT_3D('',#1362,#1160,#1161);
#1060=AXIS2_PLACEMENT_3D('',#1363,#1162,#1163);
#1061=AXIS2_PLACEMENT_3D('',#1364,#1164,#1165);
#1062=AXIS2_PLACEMENT_3D('',#1366,#1166,#1167);
#1063=AXIS2_PLACEMENT_3D('',#1368,#1168,#1169);
#1064=AXIS2_PLACEMENT_3D('',#1369,#1170,#1171);
#1065=AXIS2_PLACEMENT_3D('',#1371,#1172,#1173);
#1066=AXIS2_PLACEMENT_3D('',#1373,#1174,#1175);
#1067=AXIS2_PLACEMENT_3D('',#1374,#1176,#1177);
#1068=AXIS2_PLACEMENT_3D('',#1376,#1178,#1179);
#1069=AXIS2_PLACEMENT_3D('',#1377,#1180,#1181);
#1070=AXIS2_PLACEMENT_3D('',#1379,#1182,#1183);
#1071=AXIS2_PLACEMENT_3D('',#1380,#1184,#1185);
#1072=AXIS2_PLACEMENT_3D('',#1382,#1186,#1187);
#1073=AXIS2_PLACEMENT_3D('',#1383,#1188,#1189);
#1074=AXIS2_PLACEMENT_3D('',#1385,#1190,#1191);
#1075=AXIS2_PLACEMENT_3D('',#1386,#1192,#1193);
#1076=AXIS2_PLACEMENT_3D('',#1387,#1194,#1195);
#1077=AXIS2_PLACEMENT_3D('',#1389,#1196,#1197);
#1078=AXIS2_PLACEMENT_3D('',#1391,#1198,#1199);
#1079=AXIS2_PLACEMENT_3D('',#1392,#1200,#1201);
#1080=AXIS2_PLACEMENT_3D('',#1393,#1202,#1203);
#1081=AXIS2_PLACEMENT_3D('',#1394,#1204,#1205);
#1082=AXIS2_PLACEMENT_3D('',#1396,#1206,#1207);
#1083=AXIS2_PLACEMENT_3D('',#1398,#1208,#1209);
#1084=AXIS2_PLACEMENT_3D('',#1399,#1210,#1211);
#1085=AXIS2_PLACEMENT_3D('',#1401,#1212,#1213);
#1086=AXIS2_PLACEMENT_3D('',#1402,#1214,#1215);
#1087=AXIS2_PLACEMENT_3D('',#1404,#1216,#1217);
#1088=AXIS2_PLACEMENT_3D('',#1406,#1218,#1219);
#1089=AXIS2_PLACEMENT_3D('',#1407,#1220,#1221);
#1090=AXIS2_PLACEMENT_3D('',#1409,#1222,#1223);
#1091=AXIS2_PLACEMENT_3D('',#1410,#1224,#1225);
#1092=AXIS2_PLACEMENT_3D('',#1411,#1226,#1227);
#1093=AXIS2_PLACEMENT_3D('',#1413,#1228,#1229);
#1094=AXIS2_PLACEMENT_3D('',#1415,#1230,#1231);
#1095=AXIS2_PLACEMENT_3D('',#1417,#1232,#1233);
#1096=AXIS2_PLACEMENT_3D('',#1419,#1234,#1235);
#1097=AXIS2_PLACEMENT_3D('',#1421,#1236,#1237);
#1098=AXIS2_PLACEMENT_3D('',#1423,#1238,#1239);
#1099=AXIS2_PLACEMENT_3D('',#1425,#1240,#1241);
#1100=AXIS2_PLACEMENT_3D('',#1427,#1242,#1243);
#1101=AXIS2_PLACEMENT_3D('',#1429,#1244,#1245);
#1102=AXIS2_PLACEMENT_3D('',#1431,#1246,#1247);
#1103=AXIS2_PLACEMENT_3D('',#1433,#1248,#1249);
#1104=AXIS2_PLACEMENT_3D('',#1435,#1250,#1251);
#1105=AXIS2_PLACEMENT_3D('',#1437,#1252,#1253);
#1106=AXIS2_PLACEMENT_3D('',#1439,#1254,#1255);
#1107=AXIS2_PLACEMENT_3D('',#1441,#1256,#1257);
#1108=AXIS2_PLACEMENT_3D('',#1443,#1258,#1259);
#1109=AXIS2_PLACEMENT_3D('',#1445,#1260,#1261);
#1110=AXIS2_PLACEMENT_3D('',#1447,#1262,#1263);
#1111=AXIS2_PLACEMENT_3D('',#1449,#1264,#1265);
#1112=AXIS2_PLACEMENT_3D('',#1451,#1266,#1267);
#1113=AXIS2_PLACEMENT_3D('',#1453,#1268,#1269);
#1114=AXIS2_PLACEMENT_3D('',#1455,#1270,#1271);
#1115=AXIS2_PLACEMENT_3D('',#1457,#1272,#1273);
#1116=AXIS2_PLACEMENT_3D('',#1459,#1274,#1275);
#1117=AXIS2_PLACEMENT_3D('',#1461,#1276,#1277);
#1118=AXIS2_PLACEMENT_3D('',#1463,#1278,#1279);
#1119=AXIS2_PLACEMENT_3D('',#1465,#1280,#1281);
#1120=AXIS2_PLACEMENT_3D('',#1467,#1282,#1283);
#1121=AXIS2_PLACEMENT_3D('',#1469,#1284,#1285);
#1122=AXIS2_PLACEMENT_3D('',#1471,#1286,#1287);
#1123=AXIS2_PLACEMENT_3D('',#1473,#1288,#1289);
#1124=AXIS2_PLACEMENT_3D('',#1475,#1290,#1291);
#1125=AXIS2_PLACEMENT_3D('',#1477,#1292,#1293);
#1126=AXIS2_PLACEMENT_3D('',#1479,#1294,#1295);
#1127=AXIS2_PLACEMENT_3D('',#1481,#1296,#1297);
#1128=AXIS2_PLACEMENT_3D('',#1483,#1298,#1299);
#1129=AXIS2_PLACEMENT_3D('',#1485,#1300,#1301);
#1130=AXIS2_PLACEMENT_3D('',#1487,#1302,#1303);
#1131=AXIS2_PLACEMENT_3D('',#1489,#1304,#1305);
#1132=AXIS2_PLACEMENT_3D('',#1491,#1306,#1307);
#1133=AXIS2_PLACEMENT_3D('',#1493,#1308,#1309);
#1134=AXIS2_PLACEMENT_3D('',#1495,#1310,#1311);
#1135=AXIS2_PLACEMENT_3D('',#1497,#1312,#1313);
#1136=AXIS2_PLACEMENT_3D('',#1499,#1314,#1315);
#1137=AXIS2_PLACEMENT_3D('',#1501,#1316,#1317);
#1138=AXIS2_PLACEMENT_3D('',#1503,#1318,#1319);
#1139=AXIS2_PLACEMENT_3D('',#1505,#1320,#1321);
#1140=AXIS2_PLACEMENT_3D('',#1507,#1322,#1323);
#1141=AXIS2_PLACEMENT_3D('',#1509,#1324,#1325);
#1142=AXIS2_PLACEMENT_3D('',#1511,#1326,#1327);
#1143=AXIS2_PLACEMENT_3D('',#1513,#1328,#1329);
#1144=AXIS2_PLACEMENT_3D('',#1515,#1330,#1331);
#1145=AXIS2_PLACEMENT_3D('',#1517,#1332,#1333);
#1146=AXIS2_PLACEMENT_3D('',#1519,#1334,#1335);
#1147=AXIS2_PLACEMENT_3D('',#1520,#1336,#1337);
#1148=AXIS2_PLACEMENT_3D('',#1522,#1338,#1339);
#1149=AXIS2_PLACEMENT_3D('',#1524,#1340,#1341);
#1150=AXIS2_PLACEMENT_3D('',#1525,#1342,#1343);
#1151=AXIS2_PLACEMENT_3D('',#1527,#1344,#1345);
#1152=AXIS2_PLACEMENT_3D('',#1528,#1346,#1347);
#1153=AXIS2_PLACEMENT_3D('',#1530,#1348,#1349);
#1154=AXIS2_PLACEMENT_3D('',#1532,#1350,#1351);
#1155=AXIS2_PLACEMENT_3D('',#1533,#1352,#1353);
#1156=AXIS2_PLACEMENT_3D('',#1535,#1354,#1355);
#1157=AXIS2_PLACEMENT_3D('',#1536,#1356,#1357);
#1158=AXIS2_PLACEMENT_3D('',#1538,#1358,#1359);
#1159=AXIS2_PLACEMENT_3D('',#1539,#1360,#1361);
#1160=DIRECTION('',(0.,0.,1.));
#1161=DIRECTION('',(1.,0.,0.));
#1162=DIRECTION('',(1.,0.,0.));
#1163=DIRECTION('',(0.,0.,-1.));
#1164=DIRECTION('',(1.,0.,0.));
#1165=DIRECTION('',(0.,0.,-1.));
#1166=DIRECTION('',(-1.,0.,0.));
#1167=DIRECTION('',(0.,0.,1.));
#1168=DIRECTION('',(-1.,0.,0.));
#1169=DIRECTION('',(0.,0.,1.));
#1170=DIRECTION('',(-1.,0.,0.));
#1171=DIRECTION('',(0.,0.,1.));
#1172=DIRECTION('',(-1.,0.,0.));
#1173=DIRECTION('',(0.,0.,1.));
#1174=DIRECTION('',(-1.,0.,0.));
#1175=DIRECTION('',(0.,0.,1.));
#1176=DIRECTION('',(-1.,0.,0.));
#1177=DIRECTION('',(0.,0.,1.));
#1178=DIRECTION('',(-1.,0.,0.));
#1179=DIRECTION('',(0.,0.,1.));
#1180=DIRECTION('',(-1.,0.,0.));
#1181=DIRECTION('',(0.,0.,1.));
#1182=DIRECTION('',(-1.,0.,0.));
#1183=DIRECTION('',(0.,0.,1.));
#1184=DIRECTION('',(-1.,0.,0.));
#1185=DIRECTION('',(0.,0.,1.));
#1186=DIRECTION('',(-1.,0.,0.));
#1187=DIRECTION('',(0.,0.,1.));
#1188=DIRECTION('',(-1.,0.,0.));
#1189=DIRECTION('',(0.,0.,1.));
#1190=DIRECTION('',(-1.,0.,0.));
#1191=DIRECTION('',(0.,0.,1.));
#1192=DIRECTION('',(1.,0.,0.));
#1193=DIRECTION('',(0.,0.,-1.));
#1194=DIRECTION('',(1.,0.,0.));
#1195=DIRECTION('',(0.,0.,-1.));
#1196=DIRECTION('',(1.,0.,0.));
#1197=DIRECTION('',(0.,0.,-1.));
#1198=DIRECTION('',(-1.,0.,0.));
#1199=DIRECTION('',(0.,0.,1.));
#1200=DIRECTION('',(1.,0.,0.));
#1201=DIRECTION('',(0.,0.,-1.));
#1202=DIRECTION('',(-1.,0.,0.));
#1203=DIRECTION('',(0.,0.,1.));
#1204=DIRECTION('',(-1.,0.,0.));
#1205=DIRECTION('',(0.,0.,1.));
#1206=DIRECTION('',(-1.,0.,0.));
#1207=DIRECTION('',(0.,0.,1.));
#1208=DIRECTION('',(-1.,0.,0.));
#1209=DIRECTION('',(0.,0.,1.));
#1210=DIRECTION('',(-1.,0.,0.));
#1211=DIRECTION('',(0.,0.,1.));
#1212=DIRECTION('',(-1.,0.,0.));
#1213=DIRECTION('',(0.,0.,1.));
#1214=DIRECTION('',(-1.,0.,0.));
#1215=DIRECTION('',(0.,0.,1.));
#1216=DIRECTION('',(1.,0.,0.));
#1217=DIRECTION('',(0.,0.,-1.));
#1218=DIRECTION('',(1.,0.,0.));
#1219=DIRECTION('',(0.,0.,-1.));
#1220=DIRECTION('',(1.,0.,0.));
#1221=DIRECTION('',(0.,0.,-1.));
#1222=DIRECTION('',(1.,0.,0.));
#1223=DIRECTION('',(0.,0.,-1.));
#1224=DIRECTION('',(-1.,0.,0.));
#1225=DIRECTION('',(0.,0.,1.));
#1226=DIRECTION('',(2.76917471684626E-16,0.,-1.));
#1227=DIRECTION('',(-1.,0.,-2.76917471684626E-16));
#1228=DIRECTION('',(-2.76917471684626E-16,0.,-1.));
#1229=DIRECTION('',(1.,0.,-2.76917471684626E-16));
#1230=DIRECTION('',(-2.76917471684626E-16,-0.448799180200462,-0.893632640323412));
#1231=DIRECTION('',(1.,-1.24280334275245E-16,-2.47462491373216E-16));
#1232=DIRECTION('',(2.76917471684626E-16,-0.448799180200462,-0.893632640323412));
#1233=DIRECTION('',(-1.,-1.24280334275245E-16,-2.47462491373216E-16));
#1234=DIRECTION('',(-2.76917471684626E-16,-0.802123192755044,-0.597158591702786));
#1235=DIRECTION('',(1.,-2.22121926517327E-16,-1.65363647409088E-16));
#1236=DIRECTION('',(2.76917471684626E-16,-0.802123192755044,-0.597158591702786));
#1237=DIRECTION('',(-1.,-2.22121926517327E-16,-1.65363647409088E-16));
#1238=DIRECTION('',(-2.76917471684626E-16,-0.984807753012208,-0.17364817766693));
#1239=DIRECTION('',(1.,-2.72710473059559E-16,-4.80862143221691E-17));
#1240=DIRECTION('',(2.76917471684626E-16,-0.984807753012208,-0.17364817766693));
#1241=DIRECTION('',(-1.,-2.72710473059559E-16,-4.80862143221691E-17));
#1242=DIRECTION('',(-2.76917471684626E-16,-0.957989512315489,0.286803232711091));
#1243=DIRECTION('',(1.,-2.65284033650793E-16,7.94208260733328E-17));
#1244=DIRECTION('',(2.76917471684626E-16,-0.957989512315489,0.286803232711091));
#1245=DIRECTION('',(-1.,-2.65284033650793E-16,7.94208260733328E-17));
#1246=DIRECTION('',(-2.76917471684626E-16,-0.727373641573048,0.686241637868734));
#1247=DIRECTION('',(1.,-2.01422469794448E-16,1.90032299323327E-16));
#1248=DIRECTION('',(2.76917471684626E-16,-0.727373641573048,0.686241637868734));
#1249=DIRECTION('',(-1.,-2.01422469794448E-16,1.90032299323327E-16));
#1250=DIRECTION('',(-2.76917471684626E-16,-0.342020143325668,0.939692620785909));
#1251=DIRECTION('',(1.,-9.47113533549576E-17,2.60217304708734E-16));
#1252=DIRECTION('',(2.76917471684626E-16,-0.342020143325668,0.939692620785909));
#1253=DIRECTION('',(-1.,-9.47113533549576E-17,2.60217304708734E-16));
#1254=DIRECTION('',(-2.76917471684626E-16,0.11609291412523,0.993238357741943));
#1255=DIRECTION('',(1.,3.21481562600592E-17,2.75045054806089E-16));
#1256=DIRECTION('',(2.76917471684626E-16,0.11609291412523,0.993238357741943));
#1257=DIRECTION('',(-1.,3.21481562600592E-17,2.75045054806089E-16));
#1258=DIRECTION('',(-2.76917471684626E-16,0.549508978070806,0.835487811412937));
#1259=DIRECTION('',(1.,1.5216863687537E-16,2.31361172359792E-16));
#1260=DIRECTION('',(2.76917471684626E-16,0.549508978070806,0.835487811412937));
#1261=DIRECTION('',(-1.,1.5216863687537E-16,2.31361172359792E-16));
#1262=DIRECTION('',(-2.76917471684626E-16,0.866025403784439,0.5));
#1263=DIRECTION('',(1.,2.39817565230644E-16,1.38458735842313E-16));
#1264=DIRECTION('',(2.76917471684626E-16,0.866025403784439,0.5));
#1265=DIRECTION('',(-1.,2.39817565230644E-16,1.38458735842313E-16));
#1266=DIRECTION('',(-2.76917471684626E-16,0.998308158271268,0.0581448289104753));
#1267=DIRECTION('',(1.,2.76448971150615E-16,1.6101319013424E-17));
#1268=DIRECTION('',(2.76917471684626E-16,0.998308158271268,0.0581448289104753));
#1269=DIRECTION('',(-1.,2.76448971150615E-16,1.6101319013424E-17));
#1270=DIRECTION('',(-2.76917471684626E-16,0.918216106880274,-0.396079766039157));
#1271=DIRECTION('',(1.,2.54270082777386E-16,-1.09681407397002E-16));
#1272=DIRECTION('',(2.76917471684626E-16,0.918216106880274,-0.396079766039157));
#1273=DIRECTION('',(-1.,2.54270082777386E-16,-1.09681407397002E-16));
#1274=DIRECTION('',(-2.76917471684626E-16,0.64278760968654,-0.766044443118978));
#1275=DIRECTION('',(1.,1.77999119704601E-16,-2.12131090386565E-16));
#1276=DIRECTION('',(2.76917471684626E-16,0.64278760968654,-0.766044443118978));
#1277=DIRECTION('',(-1.,1.77999119704601E-16,-2.12131090386565E-16));
#1278=DIRECTION('',(-2.76917471684626E-16,-0.23061587074244,-0.973044870579824));
#1279=DIRECTION('',(1.,-6.38615638563452E-17,-2.69453125396659E-16));
#1280=DIRECTION('',(2.76917471684626E-16,-0.23061587074244,-0.973044870579824));
#1281=DIRECTION('',(-1.,-6.38615638563452E-17,-2.69453125396659E-16));
#1282=DIRECTION('',(-2.76917471684626E-16,-0.64278760968654,-0.766044443118978));
#1283=DIRECTION('',(1.,-1.77999119704601E-16,-2.12131090386565E-16));
#1284=DIRECTION('',(2.76917471684626E-16,-0.64278760968654,-0.766044443118978));
#1285=DIRECTION('',(-1.,-1.77999119704601E-16,-2.12131090386565E-16));
#1286=DIRECTION('',(-2.76917471684626E-16,-0.918216106880274,-0.396079766039157));
#1287=DIRECTION('',(1.,-2.54270082777386E-16,-1.09681407397002E-16));
#1288=DIRECTION('',(2.76917471684626E-16,-0.918216106880274,-0.396079766039157));
#1289=DIRECTION('',(-1.,-2.54270082777386E-16,-1.09681407397002E-16));
#1290=DIRECTION('',(-2.76917471684626E-16,-0.998308158271268,0.0581448289104762));
#1291=DIRECTION('',(1.,-2.76448971150615E-16,1.61013190134243E-17));
#1292=DIRECTION('',(2.76917471684626E-16,-0.998308158271268,0.0581448289104762));
#1293=DIRECTION('',(-1.,-2.76448971150615E-16,1.61013190134243E-17));
#1294=DIRECTION('',(-2.76917471684626E-16,-0.866025403784438,0.5));
#1295=DIRECTION('',(1.,-2.39817565230644E-16,1.38458735842313E-16));
#1296=DIRECTION('',(2.76917471684626E-16,-0.866025403784438,0.5));
#1297=DIRECTION('',(-1.,-2.39817565230644E-16,1.38458735842313E-16));
#1298=DIRECTION('',(-2.76917471684626E-16,-0.549508978070806,0.835487811412937));
#1299=DIRECTION('',(1.,-1.5216863687537E-16,2.31361172359792E-16));
#1300=DIRECTION('',(2.76917471684626E-16,-0.549508978070806,0.835487811412937));
#1301=DIRECTION('',(-1.,-1.5216863687537E-16,2.31361172359792E-16));
#1302=DIRECTION('',(-2.76917471684626E-16,-0.11609291412523,0.993238357741943));
#1303=DIRECTION('',(1.,-3.21481562600591E-17,2.75045054806089E-16));
#1304=DIRECTION('',(2.76917471684626E-16,-0.11609291412523,0.993238357741943));
#1305=DIRECTION('',(-1.,-3.21481562600591E-17,2.75045054806089E-16));
#1306=DIRECTION('',(-2.76917471684626E-16,0.342020143325669,0.939692620785908));
#1307=DIRECTION('',(1.,9.47113533549578E-17,2.60217304708734E-16));
#1308=DIRECTION('',(2.76917471684626E-16,0.342020143325669,0.939692620785908));
#1309=DIRECTION('',(-1.,9.47113533549578E-17,2.60217304708734E-16));
#1310=DIRECTION('',(-2.76917471684626E-16,0.727373641573049,0.686241637868734));
#1311=DIRECTION('',(1.,2.01422469794448E-16,1.90032299323327E-16));
#1312=DIRECTION('',(2.76917471684626E-16,0.727373641573049,0.686241637868734));
#1313=DIRECTION('',(-1.,2.01422469794448E-16,1.90032299323327E-16));
#1314=DIRECTION('',(-2.76917471684626E-16,0.957989512315489,0.286803232711091));
#1315=DIRECTION('',(1.,2.65284033650793E-16,7.94208260733328E-17));
#1316=DIRECTION('',(2.76917471684626E-16,0.957989512315489,0.286803232711091));
#1317=DIRECTION('',(-1.,2.65284033650793E-16,7.94208260733328E-17));
#1318=DIRECTION('',(-2.76917471684626E-16,0.984807753012208,-0.17364817766693));
#1319=DIRECTION('',(1.,2.72710473059559E-16,-4.80862143221691E-17));
#1320=DIRECTION('',(2.76917471684626E-16,0.984807753012208,-0.17364817766693));
#1321=DIRECTION('',(-1.,2.72710473059559E-16,-4.80862143221691E-17));
#1322=DIRECTION('',(-2.76917471684626E-16,0.802123192755044,-0.597158591702786));
#1323=DIRECTION('',(1.,2.22121926517327E-16,-1.65363647409088E-16));
#1324=DIRECTION('',(2.76917471684626E-16,0.802123192755044,-0.597158591702786));
#1325=DIRECTION('',(-1.,2.22121926517327E-16,-1.65363647409088E-16));
#1326=DIRECTION('',(-2.76917471684626E-16,0.448799180200462,-0.893632640323412));
#1327=DIRECTION('',(1.,1.24280334275245E-16,-2.47462491373216E-16));
#1328=DIRECTION('',(2.76917471684626E-16,0.448799180200462,-0.893632640323412));
#1329=DIRECTION('',(-1.,1.24280334275245E-16,-2.47462491373216E-16));
#1330=DIRECTION('',(-2.76917471684626E-16,0.23061587074244,-0.973044870579824));
#1331=DIRECTION('',(1.,6.38615638563452E-17,-2.69453125396659E-16));
#1332=DIRECTION('',(2.76917471684626E-16,0.23061587074244,-0.973044870579824));
#1333=DIRECTION('',(-1.,6.38615638563452E-17,-2.69453125396659E-16));
#1334=DIRECTION('',(1.,0.,0.));
#1335=DIRECTION('',(0.,0.,-1.));
#1336=DIRECTION('',(-1.,0.,0.));
#1337=DIRECTION('',(0.,0.,1.));
#1338=DIRECTION('',(-1.,0.,0.));
#1339=DIRECTION('',(0.,0.,1.));
#1340=DIRECTION('',(1.,0.,0.));
#1341=DIRECTION('',(0.,0.,-1.));
#1342=DIRECTION('',(-1.,0.,0.));
#1343=DIRECTION('',(0.,0.,1.));
#1344=DIRECTION('',(1.,0.,0.));
#1345=DIRECTION('',(0.,0.,-1.));
#1346=DIRECTION('',(1.,0.,0.));
#1347=DIRECTION('',(0.,0.,-1.));
#1348=DIRECTION('',(-1.,0.,0.));
#1349=DIRECTION('',(0.,0.,1.));
#1350=DIRECTION('',(-1.,0.,0.));
#1351=DIRECTION('',(0.,0.,1.));
#1352=DIRECTION('',(-1.,0.,0.));
#1353=DIRECTION('',(0.,0.,1.));
#1354=DIRECTION('',(-1.,0.,0.));
#1355=DIRECTION('',(0.,0.,1.));
#1356=DIRECTION('',(-1.,0.,0.));
#1357=DIRECTION('',(0.,0.,1.));
#1358=DIRECTION('',(-1.,0.,0.));
#1359=DIRECTION('',(0.,0.,1.));
#1360=DIRECTION('',(1.,0.,0.));
#1361=DIRECTION('',(0.,0.,-1.));
#1362=CARTESIAN_POINT('',(0.,0.,0.));
#1363=CARTESIAN_POINT('',(-13.,0.,50.8));
#1364=CARTESIAN_POINT('',(-13.,0.,0.));
#1365=CARTESIAN_POINT('',(-13.,0.,-42.1735990964654));
#1366=CARTESIAN_POINT('',(-13.,0.,0.));
#1367=CARTESIAN_POINT('',(-13.,0.,50.8));
#1368=CARTESIAN_POINT('',(13.,0.,40.));
#1369=CARTESIAN_POINT('',(13.,0.,0.));
#1370=CARTESIAN_POINT('',(13.,0.,44.0069324297987));
#1371=CARTESIAN_POINT('',(13.,0.,0.));
#1372=CARTESIAN_POINT('',(13.,0.,50.8));
#1373=CARTESIAN_POINT('',(0.,0.,0.));
#1374=CARTESIAN_POINT('',(9.964741292535,0.,0.));
#1375=CARTESIAN_POINT('',(9.964741292535,0.,50.8));
#1376=CARTESIAN_POINT('',(6.27440601751715,0.,0.));
#1377=CARTESIAN_POINT('',(2.5840707424993,0.,0.));
#1378=CARTESIAN_POINT('',(2.5840707424993,0.,50.8));
#1379=CARTESIAN_POINT('',(0.,0.,0.));
#1380=CARTESIAN_POINT('',(-2.5840707424993,0.,0.));
#1381=CARTESIAN_POINT('',(-2.5840707424993,0.,50.8));
#1382=CARTESIAN_POINT('',(-6.27440601751715,0.,0.));
#1383=CARTESIAN_POINT('',(-9.964741292535,0.,0.));
#1384=CARTESIAN_POINT('',(-9.964741292535,0.,50.8));
#1385=CARTESIAN_POINT('',(0.,0.,0.));
#1386=CARTESIAN_POINT('',(13.,0.,0.));
#1387=CARTESIAN_POINT('',(-10.8339090402925,0.,0.));
#1388=CARTESIAN_POINT('',(-10.8339090402925,0.,-40.1805075799756));
#1389=CARTESIAN_POINT('',(11.1660909597075,0.,0.));
#1390=CARTESIAN_POINT('',(11.1660909597075,0.,-42.013840913309));
#1391=CARTESIAN_POINT('',(11.,0.,0.));
#1392=CARTESIAN_POINT('',(-11.,0.,0.));
#1393=CARTESIAN_POINT('',(0.,0.,0.));
#1394=CARTESIAN_POINT('',(13.,0.,0.));
#1395=CARTESIAN_POINT('',(13.,0.,61.1330516169445));
#1396=CARTESIAN_POINT('',(-13.,0.,0.));
#1397=CARTESIAN_POINT('',(-13.,0.,61.1330516169445));
#1398=CARTESIAN_POINT('',(13.,0.,61.1330516169445));
#1399=CARTESIAN_POINT('',(13.,0.,0.));
#1400=CARTESIAN_POINT('',(13.,0.,68.));
#1401=CARTESIAN_POINT('',(0.,0.,0.));
#1402=CARTESIAN_POINT('',(11.,0.,0.));
#1403=CARTESIAN_POINT('',(11.,0.,70.));
#1404=CARTESIAN_POINT('',(-11.,0.,0.));
#1405=CARTESIAN_POINT('',(-11.,0.,-70.));
#1406=CARTESIAN_POINT('',(-13.,0.,70.));
#1407=CARTESIAN_POINT('',(-13.,0.,0.));
#1408=CARTESIAN_POINT('',(-13.,0.,-68.));
#1409=CARTESIAN_POINT('',(-11.,0.,0.));
#1410=CARTESIAN_POINT('',(11.,0.,0.));
#1411=CARTESIAN_POINT('',(-6.27440601751715,0.,55.8744060175172));
#1412=CARTESIAN_POINT('',(-6.27440601751715,0.,62.1388120350343));
#1413=CARTESIAN_POINT('',(6.27440601751715,0.,55.8744060175172));
#1414=CARTESIAN_POINT('',(6.27440601751715,0.,62.1388120350343));
#1415=CARTESIAN_POINT('',(6.27440601751715,25.0763876148495,49.9311929759362));
#1416=CARTESIAN_POINT('',(6.27440601751715,27.887847899954,55.5292706654279));
#1417=CARTESIAN_POINT('',(-6.27440601751715,25.0763876148495,49.9311929759362));
#1418=CARTESIAN_POINT('',(-6.27440601751715,27.887847899954,55.5292706654279));
#1419=CARTESIAN_POINT('',(6.27440601751715,44.8181569480625,33.3658816096502));
#1420=CARTESIAN_POINT('',(6.27440601751715,49.8429823035473,37.1067254849252));
#1421=CARTESIAN_POINT('',(-6.27440601751715,44.8181569480625,33.3658816096502));
#1422=CARTESIAN_POINT('',(-6.27440601751715,49.8429823035473,37.1067254849252));
#1423=CARTESIAN_POINT('',(6.27440601751715,55.0255482410029,9.702488783164));
#1424=CARTESIAN_POINT('',(6.27440601751715,61.1947838550701,10.7902914722716));
#1425=CARTESIAN_POINT('',(-6.27440601751715,55.0255482410029,9.702488783164));
#1426=CARTESIAN_POINT('',(-6.27440601751715,61.1947838550701,10.7902914722716));
#1427=CARTESIAN_POINT('',(6.27440601751715,53.5270949716389,-16.0249602716359));
#1428=CARTESIAN_POINT('',(6.27440601751715,59.5283302373063,-17.8216121684747));
#1429=CARTESIAN_POINT('',(-6.27440601751715,53.5270949716389,-16.0249602716359));
#1430=CARTESIAN_POINT('',(-6.27440601751715,59.5283302373063,-17.8216121684747));
#1431=CARTESIAN_POINT('',(6.27440601751715,40.6415701756925,-38.3433439004036));
#1432=CARTESIAN_POINT('',(6.27440601751715,45.1981339929461,-42.6422401461393));
#1433=CARTESIAN_POINT('',(-6.27440601751715,40.6415701756925,-38.3433439004036));
#1434=CARTESIAN_POINT('',(-6.27440601751715,45.1981339929461,-42.6422401461393));
#1435=CARTESIAN_POINT('',(6.27440601751715,19.1101723543478,-52.5047670254566));
#1436=CARTESIAN_POINT('',(6.27440601751715,21.2527253983092,-58.3913831337243));
#1437=CARTESIAN_POINT('',(-6.27440601751715,19.1101723543478,-52.5047670254566));
#1438=CARTESIAN_POINT('',(-6.27440601751715,21.2527253983092,-58.3913831337243));
#1439=CARTESIAN_POINT('',(6.27440601751715,-6.48662261958987,-55.4966032726453));
#1440=CARTESIAN_POINT('',(6.27440601751715,-7.21387576942707,-61.7186516177128));
#1441=CARTESIAN_POINT('',(-6.27440601751715,-6.48662261958987,-55.4966032726453));
#1442=CARTESIAN_POINT('',(-6.27440601751715,-7.21387576942707,-61.7186516177128));
#1443=CARTESIAN_POINT('',(6.27440601751715,-30.7034877509991,-46.6823851975732));
#1444=CARTESIAN_POINT('',(6.27440601751715,-34.1458350999056,-51.9162200709507));
#1445=CARTESIAN_POINT('',(-6.27440601751715,-30.7034877509991,-46.6823851975732));
#1446=CARTESIAN_POINT('',(-6.27440601751715,-34.1458350999056,-51.9162200709507));
#1447=CARTESIAN_POINT('',(6.27440601751715,-48.388655032536,-27.9372030087586));
#1448=CARTESIAN_POINT('',(6.27440601751715,-53.8137897833259,-31.0694060175171));
#1449=CARTESIAN_POINT('',(-6.27440601751715,-48.388655032536,-27.9372030087586));
#1450=CARTESIAN_POINT('',(-6.27440601751715,-53.8137897833259,-31.0694060175171));
#1451=CARTESIAN_POINT('',(6.27440601751715,-55.7798753658486,-3.24880777836297));
#1452=CARTESIAN_POINT('',(6.27440601751715,-62.0336829998596,-3.61305059447725));
#1453=CARTESIAN_POINT('',(-6.27440601751715,-55.7798753658486,-3.24880777836297));
#1454=CARTESIAN_POINT('',(-6.27440601751715,-62.0336829998596,-3.61305059447725));
#1455=CARTESIAN_POINT('',(6.27440601751715,-51.3047795676523,22.1307216629951));
#1456=CARTESIAN_POINT('',(6.27440601751715,-57.0568580729743,24.6119261327876));
#1457=CARTESIAN_POINT('',(-6.27440601751715,-51.3047795676523,22.1307216629951));
#1458=CARTESIAN_POINT('',(-6.27440601751715,-57.0568580729743,24.6119261327876));
#1459=CARTESIAN_POINT('',(6.27440601751715,-35.9153758866551,42.8022782422926));
#1460=CARTESIAN_POINT('',(6.27440601751715,-39.9420584567609,47.6010916614527));
#1461=CARTESIAN_POINT('',(-6.27440601751715,-35.9153758866551,42.8022782422926));
#1462=CARTESIAN_POINT('',(-6.27440601751715,-39.9420584567609,47.6010916614527));
#1463=CARTESIAN_POINT('',(6.27440601751715,12.8855247959464,54.3683041720395));
#1464=CARTESIAN_POINT('',(6.27440601751715,14.3301962443603,60.463852314614));
#1465=CARTESIAN_POINT('',(-6.27440601751715,12.8855247959464,54.3683041720395));
#1466=CARTESIAN_POINT('',(-6.27440601751715,14.3301962443603,60.463852314614));
#1467=CARTESIAN_POINT('',(6.27440601751715,35.9153758866551,42.8022782422926));
#1468=CARTESIAN_POINT('',(6.27440601751715,39.9420584567609,47.6010916614527));
#1469=CARTESIAN_POINT('',(-6.27440601751715,35.9153758866551,42.8022782422926));
#1470=CARTESIAN_POINT('',(-6.27440601751715,39.9420584567609,47.6010916614527));
#1471=CARTESIAN_POINT('',(6.27440601751715,51.3047795676524,22.130721662995));
#1472=CARTESIAN_POINT('',(6.27440601751715,57.0568580729743,24.6119261327875));
#1473=CARTESIAN_POINT('',(-6.27440601751715,51.3047795676524,22.130721662995));
#1474=CARTESIAN_POINT('',(-6.27440601751715,57.0568580729743,24.6119261327875));
#1475=CARTESIAN_POINT('',(6.27440601751715,55.7798753658486,-3.24880777836302));
#1476=CARTESIAN_POINT('',(6.27440601751715,62.0336829998596,-3.61305059447731));
#1477=CARTESIAN_POINT('',(-6.27440601751715,55.7798753658486,-3.24880777836302));
#1478=CARTESIAN_POINT('',(-6.27440601751715,62.0336829998596,-3.61305059447731));
#1479=CARTESIAN_POINT('',(6.27440601751715,48.388655032536,-27.9372030087586));
#1480=CARTESIAN_POINT('',(6.27440601751715,53.8137897833259,-31.0694060175172));
#1481=CARTESIAN_POINT('',(-6.27440601751715,48.388655032536,-27.9372030087586));
#1482=CARTESIAN_POINT('',(-6.27440601751715,53.8137897833259,-31.0694060175172));
#1483=CARTESIAN_POINT('',(6.27440601751715,30.7034877509991,-46.6823851975732));
#1484=CARTESIAN_POINT('',(6.27440601751715,34.1458350999056,-51.9162200709507));
#1485=CARTESIAN_POINT('',(-6.27440601751715,30.7034877509991,-46.6823851975732));
#1486=CARTESIAN_POINT('',(-6.27440601751715,34.1458350999056,-51.9162200709507));
#1487=CARTESIAN_POINT('',(6.27440601751715,6.48662261958984,-55.4966032726453));
#1488=CARTESIAN_POINT('',(6.27440601751715,7.21387576942703,-61.7186516177128));
#1489=CARTESIAN_POINT('',(-6.27440601751715,6.48662261958984,-55.4966032726453));
#1490=CARTESIAN_POINT('',(-6.27440601751715,7.21387576942703,-61.7186516177128));
#1491=CARTESIAN_POINT('',(6.27440601751715,-19.1101723543478,-52.5047670254566));
#1492=CARTESIAN_POINT('',(6.27440601751715,-21.2527253983092,-58.3913831337243));
#1493=CARTESIAN_POINT('',(-6.27440601751715,-19.1101723543478,-52.5047670254566));
#1494=CARTESIAN_POINT('',(-6.27440601751715,-21.2527253983092,-58.3913831337243));
#1495=CARTESIAN_POINT('',(6.27440601751715,-40.6415701756925,-38.3433439004036));
#1496=CARTESIAN_POINT('',(6.27440601751715,-45.1981339929461,-42.6422401461393));
#1497=CARTESIAN_POINT('',(-6.27440601751715,-40.6415701756925,-38.3433439004036));
#1498=CARTESIAN_POINT('',(-6.27440601751715,-45.1981339929461,-42.6422401461393));
#1499=CARTESIAN_POINT('',(6.27440601751715,-53.5270949716389,-16.0249602716359));
#1500=CARTESIAN_POINT('',(6.27440601751715,-59.5283302373063,-17.8216121684747));
#1501=CARTESIAN_POINT('',(-6.27440601751715,-53.5270949716389,-16.0249602716359));
#1502=CARTESIAN_POINT('',(-6.27440601751715,-59.5283302373063,-17.8216121684747));
#1503=CARTESIAN_POINT('',(6.27440601751715,-55.0255482410029,9.702488783164));
#1504=CARTESIAN_POINT('',(6.27440601751715,-61.1947838550701,10.7902914722716));
#1505=CARTESIAN_POINT('',(-6.27440601751715,-55.0255482410029,9.702488783164));
#1506=CARTESIAN_POINT('',(-6.27440601751715,-61.1947838550701,10.7902914722716));
#1507=CARTESIAN_POINT('',(6.27440601751715,-44.8181569480625,33.3658816096502));
#1508=CARTESIAN_POINT('',(6.27440601751715,-49.8429823035473,37.1067254849252));
#1509=CARTESIAN_POINT('',(-6.27440601751715,-44.8181569480625,33.3658816096502));
#1510=CARTESIAN_POINT('',(-6.27440601751715,-49.8429823035473,37.1067254849252));
#1511=CARTESIAN_POINT('',(6.27440601751715,-25.0763876148495,49.9311929759362));
#1512=CARTESIAN_POINT('',(6.27440601751715,-27.887847899954,55.5292706654279));
#1513=CARTESIAN_POINT('',(-6.27440601751715,-25.0763876148495,49.9311929759362));
#1514=CARTESIAN_POINT('',(-6.27440601751715,-27.887847899954,55.5292706654279));
#1515=CARTESIAN_POINT('',(6.27440601751715,-12.8855247959464,54.3683041720395));
#1516=CARTESIAN_POINT('',(6.27440601751715,-14.3301962443603,60.463852314614));
#1517=CARTESIAN_POINT('',(-6.27440601751715,-12.8855247959464,54.3683041720395));
#1518=CARTESIAN_POINT('',(-6.27440601751715,-14.3301962443603,60.463852314614));
#1519=CARTESIAN_POINT('',(-13.01,0.,52.5));
#1520=CARTESIAN_POINT('',(-13.01,0.,0.));
#1521=CARTESIAN_POINT('',(-13.01,0.,39.99));
#1522=CARTESIAN_POINT('',(-13.01,0.,0.));
#1523=CARTESIAN_POINT('',(-13.01,0.,52.5));
#1524=CARTESIAN_POINT('',(-13.01,0.,0.));
#1525=CARTESIAN_POINT('',(14.9169545201462,0.,0.));
#1526=CARTESIAN_POINT('',(14.9169545201462,0.,42.3172462100122));
#1527=CARTESIAN_POINT('',(16.,0.,42.4075));
#1528=CARTESIAN_POINT('',(16.,0.,0.));
#1529=CARTESIAN_POINT('',(16.,0.,-41.3207004517673));
#1530=CARTESIAN_POINT('',(16.,0.,0.));
#1531=CARTESIAN_POINT('',(16.,0.,35.));
#1532=CARTESIAN_POINT('',(0.,0.,0.));
#1533=CARTESIAN_POINT('',(-30.,0.,0.));
#1534=CARTESIAN_POINT('',(-30.,0.,35.));
#1535=CARTESIAN_POINT('',(-30.,0.,35.));
#1536=CARTESIAN_POINT('',(-30.,0.,0.));
#1537=CARTESIAN_POINT('',(-30.,0.,52.5));
#1538=CARTESIAN_POINT('',(0.,0.,0.));
#1539=CARTESIAN_POINT('',(15.,0.,0.));
#1540=MECHANICAL_DESIGN_GEOMETRIC_PRESENTATION_REPRESENTATION('',(#600,
#601,#602,#603,#604,#605,#606,#607,#608,#609,#610,#611,#612,#613,#614,#615,
#616,#617,#618,#619,#620,#621,#622,#623,#624,#625,#626,#627,#628,#629,#630,
#631,#632,#633,#634,#635,#636,#637,#638,#639,#640,#641,#642,#643,#644,#645,
#646,#647,#648,#649,#650,#651,#652,#653,#654,#655,#656),#1541);
#1541=(
GEOMETRIC_REPRESENTATION_CONTEXT(3)
GLOBAL_UNCERTAINTY_ASSIGNED_CONTEXT((#1542))
GLOBAL_UNIT_ASSIGNED_CONTEXT((#1545,#1544,#1543))
REPRESENTATION_CONTEXT('\X2\570667F15B548C035FC374038F74627F\X0\10000K
+H\X2\578B\X0\','TOP_LEVEL_ASSEMBLY_PART')
);
#1542=UNCERTAINTY_MEASURE_WITH_UNIT(LENGTH_MEASURE(0.005),#1545,
'DISTANCE_ACCURACY_VALUE','Maximum Tolerance applied to model');
#1543=(
NAMED_UNIT(*)
SI_UNIT($,.STERADIAN.)
SOLID_ANGLE_UNIT()
);
#1544=(
NAMED_UNIT(*)
PLANE_ANGLE_UNIT()
SI_UNIT($,.RADIAN.)
);
#1545=(
LENGTH_UNIT()
NAMED_UNIT(*)
SI_UNIT(.MILLI.,.METRE.)
);
#1546=PRODUCT_DEFINITION_SHAPE('','',#1547);
#1547=PRODUCT_DEFINITION('','',#1549,#1548);
#1548=PRODUCT_DEFINITION_CONTEXT('',#1555,'design');
#1549=PRODUCT_DEFINITION_FORMATION_WITH_SPECIFIED_SOURCE('','',#1551,
 .NOT_KNOWN.);
#1550=PRODUCT_RELATED_PRODUCT_CATEGORY('','',(#1551));
#1551=PRODUCT('\X2\570667F15B548C035FC374038F74627F\X0\10000K+H\X2\578B\X0\',
'\X2\570667F15B548C035FC374038F74627F\X0\10000K+H\X2\578B\X0\',
'\X2\570667F15B548C035FC374038F74627F\X0\10000K+H\X2\578B\X0\',(#1553));
#1552=PRODUCT_CATEGORY('','');
#1553=PRODUCT_CONTEXT('',#1555,'mechanical');
#1554=APPLICATION_PROTOCOL_DEFINITION('international standard',
'automotive_design',2010,#1555);
#1555=APPLICATION_CONTEXT(
'core data for automotive mechanical design processes');
ENDSEC;
END-ISO-10303-21;
