ISO-10303-21;
HEADER;
/* Generated by software containing HOOPS Exchange Step
 * from HOOPS Exchange, Inc. (www.tiangong.cloud) 
 */

FILE_DESCRIPTION(
/* description */ ('Unknown'),
/* implementation_level */ '2;1');

FILE_NAME(
/* name */ '\X2\6DF16C9F74038F74627F\X0\FSN 70000-Z\X2\578B\X0\',
/* time_stamp */ '2025-10-13T02:52:03+08:00',
/* author */ ('Unknown'),
/* organization */ ('Unknown'),
/* preprocessor_version */ 'ST-DEVELOPER v19.4',
/* originating_system */ 'TianGong',
/* authorisation */ 'Unknown');

FILE_SCHEMA (('AUTOMOTIVE_DESIGN {1 0 10303 214 3 1 1}'));
ENDSEC;

DATA;
#10=PROPERTY_DEFINITION_REPRESENTATION(#14,#12);
#11=PROPERTY_DEFINITION_REPRESENTATION(#15,#13);
#12=REPRESENTATION('',(#16),#987);
#13=REPRESENTATION('',(#17),#987);
#14=PROPERTY_DEFINITION('pmi validation property','',#992);
#15=PROPERTY_DEFINITION('pmi validation property','',#992);
#16=VALUE_REPRESENTATION_ITEM('number of annotations',COUNT_MEASURE(0.));
#17=VALUE_REPRESENTATION_ITEM('number of views',COUNT_MEASURE(0.));
#18=VERTEX_LOOP('',#195);
#19=VERTEX_LOOP('',#196);
#20=VERTEX_LOOP('',#197);
#21=VERTEX_LOOP('',#198);
#22=VERTEX_LOOP('',#199);
#23=VERTEX_LOOP('',#200);
#24=VERTEX_LOOP('',#201);
#25=VERTEX_LOOP('',#202);
#26=SPHERICAL_SURFACE('',#620,0.276777777777778);
#27=SPHERICAL_SURFACE('',#621,0.276777777777778);
#28=SPHERICAL_SURFACE('',#622,0.276777777777778);
#29=SPHERICAL_SURFACE('',#623,0.276777777777778);
#30=SPHERICAL_SURFACE('',#624,0.276777777777778);
#31=SPHERICAL_SURFACE('',#625,0.276777777777778);
#32=SPHERICAL_SURFACE('',#626,0.276777777777778);
#33=SPHERICAL_SURFACE('',#627,0.276777777777778);
#34=SHAPE_REPRESENTATION_RELATIONSHIP('','',#590,#35);
#35=ADVANCED_BREP_SHAPE_REPRESENTATION('',(#578,#579,#580,#581,#582,#583,
#584,#585,#586,#587,#588),#987);
#36=TOROIDAL_SURFACE('',#613,1.2436375514265,0.0345291152401655);
#37=TOROIDAL_SURFACE('',#617,1.2436375514265,0.0470291152401654);
#38=TOROIDAL_SURFACE('',#631,0.999999999999998,0.277777777777778);
#39=TOROIDAL_SURFACE('',#645,0.549999999999998,0.05);
#40=TOROIDAL_SURFACE('',#651,0.549999999999998,0.05);
#41=TOROIDAL_SURFACE('',#668,0.999999999999998,0.277777777777778);
#42=TOROIDAL_SURFACE('',#669,1.45,0.05);
#43=CYLINDRICAL_SURFACE('',#599,0.839583333333331);
#44=CYLINDRICAL_SURFACE('',#603,0.827083333333331);
#45=CYLINDRICAL_SURFACE('',#611,1.27816666666667);
#46=CYLINDRICAL_SURFACE('',#619,1.29066666666667);
#47=CYLINDRICAL_SURFACE('',#628,0.833333333333332);
#48=CYLINDRICAL_SURFACE('',#634,0.72222222222222);
#49=CYLINDRICAL_SURFACE('',#638,0.499999999999998);
#50=CYLINDRICAL_SURFACE('',#643,0.833333333333332);
#51=CYLINDRICAL_SURFACE('',#650,0.708333333333332);
#52=CYLINDRICAL_SURFACE('',#652,1.5);
#53=CYLINDRICAL_SURFACE('',#655,1.16666666666667);
#54=CYLINDRICAL_SURFACE('',#658,1.16666666666667);
#55=CYLINDRICAL_SURFACE('',#666,1.16666666666667);
#56=CYLINDRICAL_SURFACE('',#672,1.29166666666666);
#57=CYLINDRICAL_SURFACE('',#675,1.9);
#58=CONICAL_SURFACE('',#595,1.16666666666667,0.523598775598296);
#59=CONICAL_SURFACE('',#607,1.13419071402475,0.523598775598299);
#60=CONICAL_SURFACE('',#646,0.708333333333332,1.32581766366803);
#61=CONICAL_SURFACE('',#648,0.833333333333332,1.32581766366803);
#62=CONICAL_SURFACE('',#670,1.16666666666666,1.32581766366803);
#63=CONICAL_SURFACE('',#674,1.29166666666666,1.32581766366803);
#64=ORIENTED_EDGE('',*,*,#142,.F.);
#65=ORIENTED_EDGE('',*,*,#143,.T.);
#66=ORIENTED_EDGE('',*,*,#144,.F.);
#67=ORIENTED_EDGE('',*,*,#142,.T.);
#68=ORIENTED_EDGE('',*,*,#145,.F.);
#69=ORIENTED_EDGE('',*,*,#144,.T.);
#70=ORIENTED_EDGE('',*,*,#146,.F.);
#71=ORIENTED_EDGE('',*,*,#145,.T.);
#72=ORIENTED_EDGE('',*,*,#147,.F.);
#73=ORIENTED_EDGE('',*,*,#146,.T.);
#74=ORIENTED_EDGE('',*,*,#148,.F.);
#75=ORIENTED_EDGE('',*,*,#147,.T.);
#76=ORIENTED_EDGE('',*,*,#149,.F.);
#77=ORIENTED_EDGE('',*,*,#148,.T.);
#78=ORIENTED_EDGE('',*,*,#150,.F.);
#79=ORIENTED_EDGE('',*,*,#149,.T.);
#80=ORIENTED_EDGE('',*,*,#151,.F.);
#81=ORIENTED_EDGE('',*,*,#150,.T.);
#82=ORIENTED_EDGE('',*,*,#152,.F.);
#83=ORIENTED_EDGE('',*,*,#151,.T.);
#84=ORIENTED_EDGE('',*,*,#153,.F.);
#85=ORIENTED_EDGE('',*,*,#152,.T.);
#86=ORIENTED_EDGE('',*,*,#154,.F.);
#87=ORIENTED_EDGE('',*,*,#153,.T.);
#88=ORIENTED_EDGE('',*,*,#155,.F.);
#89=ORIENTED_EDGE('',*,*,#154,.T.);
#90=ORIENTED_EDGE('',*,*,#143,.F.);
#91=ORIENTED_EDGE('',*,*,#155,.T.);
#92=ORIENTED_EDGE('',*,*,#156,.F.);
#93=ORIENTED_EDGE('',*,*,#157,.T.);
#94=ORIENTED_EDGE('',*,*,#158,.F.);
#95=ORIENTED_EDGE('',*,*,#159,.T.);
#96=ORIENTED_EDGE('',*,*,#160,.F.);
#97=ORIENTED_EDGE('',*,*,#158,.T.);
#98=ORIENTED_EDGE('',*,*,#161,.T.);
#99=ORIENTED_EDGE('',*,*,#160,.T.);
#100=ORIENTED_EDGE('',*,*,#162,.T.);
#101=ORIENTED_EDGE('',*,*,#163,.T.);
#102=ORIENTED_EDGE('',*,*,#164,.T.);
#103=ORIENTED_EDGE('',*,*,#157,.F.);
#104=ORIENTED_EDGE('',*,*,#165,.T.);
#105=ORIENTED_EDGE('',*,*,#159,.F.);
#106=ORIENTED_EDGE('',*,*,#163,.F.);
#107=ORIENTED_EDGE('',*,*,#164,.F.);
#108=ORIENTED_EDGE('',*,*,#165,.F.);
#109=ORIENTED_EDGE('',*,*,#166,.T.);
#110=ORIENTED_EDGE('',*,*,#167,.F.);
#111=ORIENTED_EDGE('',*,*,#156,.T.);
#112=ORIENTED_EDGE('',*,*,#166,.F.);
#113=ORIENTED_EDGE('',*,*,#167,.T.);
#114=ORIENTED_EDGE('',*,*,#161,.F.);
#115=ORIENTED_EDGE('',*,*,#162,.F.);
#116=ORIENTED_EDGE('',*,*,#168,.T.);
#117=ORIENTED_EDGE('',*,*,#169,.F.);
#118=ORIENTED_EDGE('',*,*,#170,.F.);
#119=ORIENTED_EDGE('',*,*,#171,.T.);
#120=ORIENTED_EDGE('',*,*,#172,.T.);
#121=ORIENTED_EDGE('',*,*,#173,.F.);
#122=ORIENTED_EDGE('',*,*,#174,.F.);
#123=ORIENTED_EDGE('',*,*,#170,.T.);
#124=ORIENTED_EDGE('',*,*,#175,.T.);
#125=ORIENTED_EDGE('',*,*,#176,.F.);
#126=ORIENTED_EDGE('',*,*,#177,.F.);
#127=ORIENTED_EDGE('',*,*,#176,.T.);
#128=ORIENTED_EDGE('',*,*,#172,.F.);
#129=ORIENTED_EDGE('',*,*,#177,.T.);
#130=ORIENTED_EDGE('',*,*,#168,.F.);
#131=ORIENTED_EDGE('',*,*,#175,.F.);
#132=ORIENTED_EDGE('',*,*,#178,.T.);
#133=ORIENTED_EDGE('',*,*,#171,.F.);
#134=ORIENTED_EDGE('',*,*,#179,.T.);
#135=ORIENTED_EDGE('',*,*,#178,.F.);
#136=ORIENTED_EDGE('',*,*,#173,.T.);
#137=ORIENTED_EDGE('',*,*,#179,.F.);
#138=ORIENTED_EDGE('',*,*,#180,.F.);
#139=ORIENTED_EDGE('',*,*,#174,.T.);
#140=ORIENTED_EDGE('',*,*,#169,.T.);
#141=ORIENTED_EDGE('',*,*,#180,.T.);
#142=EDGE_CURVE('',#181,#181,#228,.T.);
#143=EDGE_CURVE('',#182,#182,#229,.T.);
#144=EDGE_CURVE('',#183,#183,#230,.T.);
#145=EDGE_CURVE('',#184,#184,#231,.T.);
#146=EDGE_CURVE('',#185,#185,#232,.T.);
#147=EDGE_CURVE('',#186,#186,#233,.T.);
#148=EDGE_CURVE('',#187,#187,#234,.T.);
#149=EDGE_CURVE('',#188,#188,#235,.T.);
#150=EDGE_CURVE('',#189,#189,#236,.T.);
#151=EDGE_CURVE('',#190,#190,#237,.T.);
#152=EDGE_CURVE('',#191,#191,#238,.T.);
#153=EDGE_CURVE('',#192,#192,#239,.T.);
#154=EDGE_CURVE('',#193,#193,#240,.T.);
#155=EDGE_CURVE('',#194,#194,#241,.T.);
#156=EDGE_CURVE('',#203,#203,#242,.T.);
#157=EDGE_CURVE('',#204,#204,#243,.T.);
#158=EDGE_CURVE('',#205,#205,#244,.T.);
#159=EDGE_CURVE('',#206,#206,#245,.T.);
#160=EDGE_CURVE('',#207,#207,#246,.T.);
#161=EDGE_CURVE('',#208,#208,#247,.T.);
#162=EDGE_CURVE('',#209,#209,#248,.F.);
#163=EDGE_CURVE('',#210,#210,#249,.F.);
#164=EDGE_CURVE('',#211,#211,#250,.T.);
#165=EDGE_CURVE('',#212,#212,#251,.T.);
#166=EDGE_CURVE('',#213,#213,#252,.T.);
#167=EDGE_CURVE('',#214,#214,#253,.T.);
#168=EDGE_CURVE('',#215,#215,#254,.T.);
#169=EDGE_CURVE('',#216,#216,#255,.T.);
#170=EDGE_CURVE('',#217,#217,#256,.T.);
#171=EDGE_CURVE('',#218,#218,#257,.T.);
#172=EDGE_CURVE('',#219,#219,#258,.T.);
#173=EDGE_CURVE('',#220,#220,#259,.T.);
#174=EDGE_CURVE('',#221,#221,#260,.T.);
#175=EDGE_CURVE('',#222,#222,#261,.F.);
#176=EDGE_CURVE('',#223,#223,#262,.T.);
#177=EDGE_CURVE('',#224,#224,#263,.T.);
#178=EDGE_CURVE('',#225,#225,#264,.T.);
#179=EDGE_CURVE('',#226,#226,#265,.T.);
#180=EDGE_CURVE('',#227,#227,#266,.T.);
#181=VERTEX_POINT('',#855);
#182=VERTEX_POINT('',#857);
#183=VERTEX_POINT('',#860);
#184=VERTEX_POINT('',#863);
#185=VERTEX_POINT('',#866);
#186=VERTEX_POINT('',#869);
#187=VERTEX_POINT('',#872);
#188=VERTEX_POINT('',#875);
#189=VERTEX_POINT('',#878);
#190=VERTEX_POINT('',#881);
#191=VERTEX_POINT('',#884);
#192=VERTEX_POINT('',#887);
#193=VERTEX_POINT('',#890);
#194=VERTEX_POINT('',#893);
#195=VERTEX_POINT('',#896);
#196=VERTEX_POINT('',#898);
#197=VERTEX_POINT('',#900);
#198=VERTEX_POINT('',#902);
#199=VERTEX_POINT('',#904);
#200=VERTEX_POINT('',#906);
#201=VERTEX_POINT('',#908);
#202=VERTEX_POINT('',#910);
#203=VERTEX_POINT('',#913);
#204=VERTEX_POINT('',#915);
#205=VERTEX_POINT('',#918);
#206=VERTEX_POINT('',#920);
#207=VERTEX_POINT('',#923);
#208=VERTEX_POINT('',#926);
#209=VERTEX_POINT('',#929);
#210=VERTEX_POINT('',#931);
#211=VERTEX_POINT('',#934);
#212=VERTEX_POINT('',#937);
#213=VERTEX_POINT('',#941);
#214=VERTEX_POINT('',#944);
#215=VERTEX_POINT('',#949);
#216=VERTEX_POINT('',#951);
#217=VERTEX_POINT('',#954);
#218=VERTEX_POINT('',#956);
#219=VERTEX_POINT('',#959);
#220=VERTEX_POINT('',#961);
#221=VERTEX_POINT('',#964);
#222=VERTEX_POINT('',#967);
#223=VERTEX_POINT('',#969);
#224=VERTEX_POINT('',#972);
#225=VERTEX_POINT('',#977);
#226=VERTEX_POINT('',#980);
#227=VERTEX_POINT('',#984);
#228=CIRCLE('',#593,1.16666666666667);
#229=CIRCLE('',#594,1.29066666666667);
#230=CIRCLE('',#596,1.12697383565988);
#231=CIRCLE('',#598,0.839583333333331);
#232=CIRCLE('',#600,0.839583333333332);
#233=CIRCLE('',#602,0.827083333333331);
#234=CIRCLE('',#604,0.827083333333331);
#235=CIRCLE('',#606,1.13419071402475);
#236=CIRCLE('',#608,1.17388354503154);
#237=CIRCLE('',#610,1.27816666666667);
#238=CIRCLE('',#612,1.27816666666667);
#239=CIRCLE('',#614,1.20910843618633);
#240=CIRCLE('',#616,1.19660843618633);
#241=CIRCLE('',#618,1.29066666666667);
#242=CIRCLE('',#629,0.833333333333332);
#243=CIRCLE('',#630,0.833333333333332);
#244=CIRCLE('',#632,0.72222222222222);
#245=CIRCLE('',#633,0.833333333333332);
#246=CIRCLE('',#635,0.72222222222222);
#247=CIRCLE('',#637,0.549999999999998);
#248=CIRCLE('',#639,0.499999999999998);
#249=CIRCLE('',#640,0.499999999999998);
#250=CIRCLE('',#642,0.549999999999998);
#251=CIRCLE('',#644,0.833333333333332);
#252=CIRCLE('',#647,0.708333333333332);
#253=CIRCLE('',#649,0.708333333333332);
#254=CIRCLE('',#653,1.5);
#255=CIRCLE('',#654,1.5);
#256=CIRCLE('',#656,1.16666666666667);
#257=CIRCLE('',#657,1.16666666666666);
#258=CIRCLE('',#659,1.16666666666666);
#259=CIRCLE('',#660,1.16666666666666);
#260=CIRCLE('',#662,1.9);
#261=CIRCLE('',#664,1.45);
#262=CIRCLE('',#665,1.16666666666667);
#263=CIRCLE('',#667,1.16666666666666);
#264=CIRCLE('',#671,1.29166666666666);
#265=CIRCLE('',#673,1.29166666666666);
#266=CIRCLE('',#676,1.9);
#267=EDGE_LOOP('',(#64));
#268=EDGE_LOOP('',(#65));
#269=EDGE_LOOP('',(#66));
#270=EDGE_LOOP('',(#67));
#271=EDGE_LOOP('',(#68));
#272=EDGE_LOOP('',(#69));
#273=EDGE_LOOP('',(#70));
#274=EDGE_LOOP('',(#71));
#275=EDGE_LOOP('',(#72));
#276=EDGE_LOOP('',(#73));
#277=EDGE_LOOP('',(#74));
#278=EDGE_LOOP('',(#75));
#279=EDGE_LOOP('',(#76));
#280=EDGE_LOOP('',(#77));
#281=EDGE_LOOP('',(#78));
#282=EDGE_LOOP('',(#79));
#283=EDGE_LOOP('',(#80));
#284=EDGE_LOOP('',(#81));
#285=EDGE_LOOP('',(#82));
#286=EDGE_LOOP('',(#83));
#287=EDGE_LOOP('',(#84));
#288=EDGE_LOOP('',(#85));
#289=EDGE_LOOP('',(#86));
#290=EDGE_LOOP('',(#87));
#291=EDGE_LOOP('',(#88));
#292=EDGE_LOOP('',(#89));
#293=EDGE_LOOP('',(#90));
#294=EDGE_LOOP('',(#91));
#295=EDGE_LOOP('',(#92));
#296=EDGE_LOOP('',(#93));
#297=EDGE_LOOP('',(#94));
#298=EDGE_LOOP('',(#95));
#299=EDGE_LOOP('',(#96));
#300=EDGE_LOOP('',(#97));
#301=EDGE_LOOP('',(#98));
#302=EDGE_LOOP('',(#99));
#303=EDGE_LOOP('',(#100));
#304=EDGE_LOOP('',(#101));
#305=EDGE_LOOP('',(#102));
#306=EDGE_LOOP('',(#103));
#307=EDGE_LOOP('',(#104));
#308=EDGE_LOOP('',(#105));
#309=EDGE_LOOP('',(#106));
#310=EDGE_LOOP('',(#107));
#311=EDGE_LOOP('',(#108));
#312=EDGE_LOOP('',(#109));
#313=EDGE_LOOP('',(#110));
#314=EDGE_LOOP('',(#111));
#315=EDGE_LOOP('',(#112));
#316=EDGE_LOOP('',(#113));
#317=EDGE_LOOP('',(#114));
#318=EDGE_LOOP('',(#115));
#319=EDGE_LOOP('',(#116));
#320=EDGE_LOOP('',(#117));
#321=EDGE_LOOP('',(#118));
#322=EDGE_LOOP('',(#119));
#323=EDGE_LOOP('',(#120));
#324=EDGE_LOOP('',(#121));
#325=EDGE_LOOP('',(#122));
#326=EDGE_LOOP('',(#123));
#327=EDGE_LOOP('',(#124));
#328=EDGE_LOOP('',(#125));
#329=EDGE_LOOP('',(#126));
#330=EDGE_LOOP('',(#127));
#331=EDGE_LOOP('',(#128));
#332=EDGE_LOOP('',(#129));
#333=EDGE_LOOP('',(#130));
#334=EDGE_LOOP('',(#131));
#335=EDGE_LOOP('',(#132));
#336=EDGE_LOOP('',(#133));
#337=EDGE_LOOP('',(#134));
#338=EDGE_LOOP('',(#135));
#339=EDGE_LOOP('',(#136));
#340=EDGE_LOOP('',(#137));
#341=EDGE_LOOP('',(#138));
#342=EDGE_LOOP('',(#139));
#343=EDGE_LOOP('',(#140));
#344=EDGE_LOOP('',(#141));
#345=FACE_BOUND('',#267,.T.);
#346=FACE_BOUND('',#268,.T.);
#347=FACE_BOUND('',#269,.T.);
#348=FACE_BOUND('',#270,.T.);
#349=FACE_BOUND('',#271,.T.);
#350=FACE_BOUND('',#272,.T.);
#351=FACE_BOUND('',#273,.T.);
#352=FACE_BOUND('',#274,.T.);
#353=FACE_BOUND('',#275,.T.);
#354=FACE_BOUND('',#276,.T.);
#355=FACE_BOUND('',#277,.T.);
#356=FACE_BOUND('',#278,.T.);
#357=FACE_BOUND('',#279,.T.);
#358=FACE_BOUND('',#280,.T.);
#359=FACE_BOUND('',#281,.T.);
#360=FACE_BOUND('',#282,.T.);
#361=FACE_BOUND('',#283,.T.);
#362=FACE_BOUND('',#284,.T.);
#363=FACE_BOUND('',#285,.T.);
#364=FACE_BOUND('',#286,.T.);
#365=FACE_BOUND('',#287,.T.);
#366=FACE_BOUND('',#288,.T.);
#367=FACE_BOUND('',#289,.T.);
#368=FACE_BOUND('',#290,.T.);
#369=FACE_BOUND('',#291,.T.);
#370=FACE_BOUND('',#292,.T.);
#371=FACE_BOUND('',#293,.T.);
#372=FACE_BOUND('',#294,.T.);
#373=FACE_BOUND('',#18,.T.);
#374=FACE_BOUND('',#19,.T.);
#375=FACE_BOUND('',#20,.T.);
#376=FACE_BOUND('',#21,.T.);
#377=FACE_BOUND('',#22,.T.);
#378=FACE_BOUND('',#23,.T.);
#379=FACE_BOUND('',#24,.T.);
#380=FACE_BOUND('',#25,.T.);
#381=FACE_BOUND('',#295,.T.);
#382=FACE_BOUND('',#296,.T.);
#383=FACE_BOUND('',#297,.T.);
#384=FACE_BOUND('',#298,.T.);
#385=FACE_BOUND('',#299,.T.);
#386=FACE_BOUND('',#300,.T.);
#387=FACE_BOUND('',#301,.T.);
#388=FACE_BOUND('',#302,.T.);
#389=FACE_BOUND('',#303,.T.);
#390=FACE_BOUND('',#304,.T.);
#391=FACE_BOUND('',#305,.T.);
#392=FACE_BOUND('',#306,.T.);
#393=FACE_BOUND('',#307,.T.);
#394=FACE_BOUND('',#308,.T.);
#395=FACE_BOUND('',#309,.T.);
#396=FACE_BOUND('',#310,.T.);
#397=FACE_BOUND('',#311,.T.);
#398=FACE_BOUND('',#312,.T.);
#399=FACE_BOUND('',#313,.T.);
#400=FACE_BOUND('',#314,.T.);
#401=FACE_BOUND('',#315,.T.);
#402=FACE_BOUND('',#316,.T.);
#403=FACE_BOUND('',#317,.T.);
#404=FACE_BOUND('',#318,.T.);
#405=FACE_BOUND('',#319,.T.);
#406=FACE_BOUND('',#320,.T.);
#407=FACE_BOUND('',#321,.T.);
#408=FACE_BOUND('',#322,.T.);
#409=FACE_BOUND('',#323,.T.);
#410=FACE_BOUND('',#324,.T.);
#411=FACE_BOUND('',#325,.T.);
#412=FACE_BOUND('',#326,.T.);
#413=FACE_BOUND('',#327,.T.);
#414=FACE_BOUND('',#328,.T.);
#415=FACE_BOUND('',#329,.T.);
#416=FACE_BOUND('',#330,.T.);
#417=FACE_BOUND('',#331,.T.);
#418=FACE_BOUND('',#332,.T.);
#419=FACE_BOUND('',#333,.T.);
#420=FACE_BOUND('',#334,.T.);
#421=FACE_BOUND('',#335,.T.);
#422=FACE_BOUND('',#336,.T.);
#423=FACE_BOUND('',#337,.T.);
#424=FACE_BOUND('',#338,.T.);
#425=FACE_BOUND('',#339,.T.);
#426=FACE_BOUND('',#340,.T.);
#427=FACE_BOUND('',#341,.T.);
#428=FACE_BOUND('',#342,.T.);
#429=FACE_BOUND('',#343,.T.);
#430=FACE_BOUND('',#344,.T.);
#431=PLANE('',#592);
#432=PLANE('',#597);
#433=PLANE('',#601);
#434=PLANE('',#605);
#435=PLANE('',#609);
#436=PLANE('',#615);
#437=PLANE('',#636);
#438=PLANE('',#641);
#439=PLANE('',#661);
#440=PLANE('',#663);
#441=PLANE('',#677);
#442=ADVANCED_FACE('',(#345,#346),#431,.F.);
#443=ADVANCED_FACE('',(#347,#348),#58,.F.);
#444=ADVANCED_FACE('',(#349,#350),#432,.F.);
#445=ADVANCED_FACE('',(#351,#352),#43,.T.);
#446=ADVANCED_FACE('',(#353,#354),#433,.F.);
#447=ADVANCED_FACE('',(#355,#356),#44,.F.);
#448=ADVANCED_FACE('',(#357,#358),#434,.F.);
#449=ADVANCED_FACE('',(#359,#360),#59,.T.);
#450=ADVANCED_FACE('',(#361,#362),#435,.F.);
#451=ADVANCED_FACE('',(#363,#364),#45,.F.);
#452=ADVANCED_FACE('',(#365,#366),#36,.F.);
#453=ADVANCED_FACE('',(#367,#368),#436,.F.);
#454=ADVANCED_FACE('',(#369,#370),#37,.T.);
#455=ADVANCED_FACE('',(#371,#372),#46,.T.);
#456=ADVANCED_FACE('',(#373),#26,.T.);
#457=ADVANCED_FACE('',(#374),#27,.T.);
#458=ADVANCED_FACE('',(#375),#28,.T.);
#459=ADVANCED_FACE('',(#376),#29,.T.);
#460=ADVANCED_FACE('',(#377),#30,.T.);
#461=ADVANCED_FACE('',(#378),#31,.T.);
#462=ADVANCED_FACE('',(#379),#32,.T.);
#463=ADVANCED_FACE('',(#380),#33,.T.);
#464=ADVANCED_FACE('',(#381,#382),#47,.T.);
#465=ADVANCED_FACE('',(#383,#384),#38,.F.);
#466=ADVANCED_FACE('',(#385,#386),#48,.T.);
#467=ADVANCED_FACE('',(#387,#388),#437,.F.);
#468=ADVANCED_FACE('',(#389,#390),#49,.F.);
#469=ADVANCED_FACE('',(#391,#392),#438,.F.);
#470=ADVANCED_FACE('',(#393,#394),#50,.T.);
#471=ADVANCED_FACE('',(#395,#396),#39,.T.);
#472=ADVANCED_FACE('',(#397,#398),#60,.T.);
#473=ADVANCED_FACE('',(#399,#400),#61,.T.);
#474=ADVANCED_FACE('',(#401,#402),#51,.T.);
#475=ADVANCED_FACE('',(#403,#404),#40,.T.);
#476=ADVANCED_FACE('',(#405,#406),#52,.T.);
#477=ADVANCED_FACE('',(#407,#408),#53,.F.);
#478=ADVANCED_FACE('',(#409,#410),#54,.F.);
#479=ADVANCED_FACE('',(#411,#412),#439,.F.);
#480=ADVANCED_FACE('',(#413,#414),#440,.F.);
#481=ADVANCED_FACE('',(#415,#416),#55,.F.);
#482=ADVANCED_FACE('',(#417,#418),#41,.F.);
#483=ADVANCED_FACE('',(#419,#420),#42,.T.);
#484=ADVANCED_FACE('',(#421,#422),#62,.F.);
#485=ADVANCED_FACE('',(#423,#424),#56,.F.);
#486=ADVANCED_FACE('',(#425,#426),#63,.F.);
#487=ADVANCED_FACE('',(#427,#428),#57,.T.);
#488=ADVANCED_FACE('',(#429,#430),#441,.F.);
#489=CLOSED_SHELL('',(#442,#443,#444,#445,#446,#447,#448,#449,#450,#451,
#452,#453,#454,#455));
#490=CLOSED_SHELL('',(#456));
#491=CLOSED_SHELL('',(#457));
#492=CLOSED_SHELL('',(#458));
#493=CLOSED_SHELL('',(#459));
#494=CLOSED_SHELL('',(#460));
#495=CLOSED_SHELL('',(#461));
#496=CLOSED_SHELL('',(#462));
#497=CLOSED_SHELL('',(#463));
#498=CLOSED_SHELL('',(#464,#465,#466,#467,#468,#469,#470,#471,#472,#473,
#474,#475));
#499=CLOSED_SHELL('',(#476,#477,#478,#479,#480,#481,#482,#483,#484,#485,
#486,#487,#488));
#500=STYLED_ITEM('',(#511),#578);
#501=STYLED_ITEM('',(#512),#579);
#502=STYLED_ITEM('',(#513),#580);
#503=STYLED_ITEM('',(#514),#581);
#504=STYLED_ITEM('',(#515),#582);
#505=STYLED_ITEM('',(#516),#583);
#506=STYLED_ITEM('',(#517),#584);
#507=STYLED_ITEM('',(#518),#585);
#508=STYLED_ITEM('',(#519),#586);
#509=STYLED_ITEM('',(#520),#587);
#510=STYLED_ITEM('',(#521),#588);
#511=PRESENTATION_STYLE_ASSIGNMENT((#522));
#512=PRESENTATION_STYLE_ASSIGNMENT((#523));
#513=PRESENTATION_STYLE_ASSIGNMENT((#524));
#514=PRESENTATION_STYLE_ASSIGNMENT((#525));
#515=PRESENTATION_STYLE_ASSIGNMENT((#526));
#516=PRESENTATION_STYLE_ASSIGNMENT((#527));
#517=PRESENTATION_STYLE_ASSIGNMENT((#528));
#518=PRESENTATION_STYLE_ASSIGNMENT((#529));
#519=PRESENTATION_STYLE_ASSIGNMENT((#530));
#520=PRESENTATION_STYLE_ASSIGNMENT((#531));
#521=PRESENTATION_STYLE_ASSIGNMENT((#532));
#522=SURFACE_STYLE_USAGE(.BOTH.,#533);
#523=SURFACE_STYLE_USAGE(.BOTH.,#534);
#524=SURFACE_STYLE_USAGE(.BOTH.,#535);
#525=SURFACE_STYLE_USAGE(.BOTH.,#536);
#526=SURFACE_STYLE_USAGE(.BOTH.,#537);
#527=SURFACE_STYLE_USAGE(.BOTH.,#538);
#528=SURFACE_STYLE_USAGE(.BOTH.,#539);
#529=SURFACE_STYLE_USAGE(.BOTH.,#540);
#530=SURFACE_STYLE_USAGE(.BOTH.,#541);
#531=SURFACE_STYLE_USAGE(.BOTH.,#542);
#532=SURFACE_STYLE_USAGE(.BOTH.,#543);
#533=SURFACE_SIDE_STYLE('',(#544));
#534=SURFACE_SIDE_STYLE('',(#545));
#535=SURFACE_SIDE_STYLE('',(#546));
#536=SURFACE_SIDE_STYLE('',(#547));
#537=SURFACE_SIDE_STYLE('',(#548));
#538=SURFACE_SIDE_STYLE('',(#549));
#539=SURFACE_SIDE_STYLE('',(#550));
#540=SURFACE_SIDE_STYLE('',(#551));
#541=SURFACE_SIDE_STYLE('',(#552));
#542=SURFACE_SIDE_STYLE('',(#553));
#543=SURFACE_SIDE_STYLE('',(#554));
#544=SURFACE_STYLE_FILL_AREA(#555);
#545=SURFACE_STYLE_FILL_AREA(#556);
#546=SURFACE_STYLE_FILL_AREA(#557);
#547=SURFACE_STYLE_FILL_AREA(#558);
#548=SURFACE_STYLE_FILL_AREA(#559);
#549=SURFACE_STYLE_FILL_AREA(#560);
#550=SURFACE_STYLE_FILL_AREA(#561);
#551=SURFACE_STYLE_FILL_AREA(#562);
#552=SURFACE_STYLE_FILL_AREA(#563);
#553=SURFACE_STYLE_FILL_AREA(#564);
#554=SURFACE_STYLE_FILL_AREA(#565);
#555=FILL_AREA_STYLE('',(#566));
#556=FILL_AREA_STYLE('',(#567));
#557=FILL_AREA_STYLE('',(#568));
#558=FILL_AREA_STYLE('',(#569));
#559=FILL_AREA_STYLE('',(#570));
#560=FILL_AREA_STYLE('',(#571));
#561=FILL_AREA_STYLE('',(#572));
#562=FILL_AREA_STYLE('',(#573));
#563=FILL_AREA_STYLE('',(#574));
#564=FILL_AREA_STYLE('',(#575));
#565=FILL_AREA_STYLE('',(#576));
#566=FILL_AREA_STYLE_COLOUR('',#577);
#567=FILL_AREA_STYLE_COLOUR('',#577);
#568=FILL_AREA_STYLE_COLOUR('',#577);
#569=FILL_AREA_STYLE_COLOUR('',#577);
#570=FILL_AREA_STYLE_COLOUR('',#577);
#571=FILL_AREA_STYLE_COLOUR('',#577);
#572=FILL_AREA_STYLE_COLOUR('',#577);
#573=FILL_AREA_STYLE_COLOUR('',#577);
#574=FILL_AREA_STYLE_COLOUR('',#577);
#575=FILL_AREA_STYLE_COLOUR('',#577);
#576=FILL_AREA_STYLE_COLOUR('',#577);
#577=COLOUR_RGB('',0.506983280181885,0.531564235687256,0.550000011920929);
#578=MANIFOLD_SOLID_BREP('',#489);
#579=MANIFOLD_SOLID_BREP('',#490);
#580=MANIFOLD_SOLID_BREP('',#491);
#581=MANIFOLD_SOLID_BREP('',#492);
#582=MANIFOLD_SOLID_BREP('',#493);
#583=MANIFOLD_SOLID_BREP('',#494);
#584=MANIFOLD_SOLID_BREP('',#495);
#585=MANIFOLD_SOLID_BREP('',#496);
#586=MANIFOLD_SOLID_BREP('',#497);
#587=MANIFOLD_SOLID_BREP('',#498);
#588=MANIFOLD_SOLID_BREP('',#499);
#589=SHAPE_DEFINITION_REPRESENTATION(#992,#590);
#590=SHAPE_REPRESENTATION('\X2\6DF16C9F74038F74627F\X0\FSN 70000-Z\X2\578B\X0\',
(#591),#987);
#591=AXIS2_PLACEMENT_3D('',#852,#678,#679);
#592=AXIS2_PLACEMENT_3D('',#853,#680,#681);
#593=AXIS2_PLACEMENT_3D('',#854,#682,#683);
#594=AXIS2_PLACEMENT_3D('',#856,#684,#685);
#595=AXIS2_PLACEMENT_3D('',#858,#686,#687);
#596=AXIS2_PLACEMENT_3D('',#859,#688,#689);
#597=AXIS2_PLACEMENT_3D('',#861,#690,#691);
#598=AXIS2_PLACEMENT_3D('',#862,#692,#693);
#599=AXIS2_PLACEMENT_3D('',#864,#694,#695);
#600=AXIS2_PLACEMENT_3D('',#865,#696,#697);
#601=AXIS2_PLACEMENT_3D('',#867,#698,#699);
#602=AXIS2_PLACEMENT_3D('',#868,#700,#701);
#603=AXIS2_PLACEMENT_3D('',#870,#702,#703);
#604=AXIS2_PLACEMENT_3D('',#871,#704,#705);
#605=AXIS2_PLACEMENT_3D('',#873,#706,#707);
#606=AXIS2_PLACEMENT_3D('',#874,#708,#709);
#607=AXIS2_PLACEMENT_3D('',#876,#710,#711);
#608=AXIS2_PLACEMENT_3D('',#877,#712,#713);
#609=AXIS2_PLACEMENT_3D('',#879,#714,#715);
#610=AXIS2_PLACEMENT_3D('',#880,#716,#717);
#611=AXIS2_PLACEMENT_3D('',#882,#718,#719);
#612=AXIS2_PLACEMENT_3D('',#883,#720,#721);
#613=AXIS2_PLACEMENT_3D('',#885,#722,#723);
#614=AXIS2_PLACEMENT_3D('',#886,#724,#725);
#615=AXIS2_PLACEMENT_3D('',#888,#726,#727);
#616=AXIS2_PLACEMENT_3D('',#889,#728,#729);
#617=AXIS2_PLACEMENT_3D('',#891,#730,#731);
#618=AXIS2_PLACEMENT_3D('',#892,#732,#733);
#619=AXIS2_PLACEMENT_3D('',#894,#734,#735);
#620=AXIS2_PLACEMENT_3D('',#895,#736,#737);
#621=AXIS2_PLACEMENT_3D('',#897,#738,#739);
#622=AXIS2_PLACEMENT_3D('',#899,#740,#741);
#623=AXIS2_PLACEMENT_3D('',#901,#742,#743);
#624=AXIS2_PLACEMENT_3D('',#903,#744,#745);
#625=AXIS2_PLACEMENT_3D('',#905,#746,#747);
#626=AXIS2_PLACEMENT_3D('',#907,#748,#749);
#627=AXIS2_PLACEMENT_3D('',#909,#750,#751);
#628=AXIS2_PLACEMENT_3D('',#911,#752,#753);
#629=AXIS2_PLACEMENT_3D('',#912,#754,#755);
#630=AXIS2_PLACEMENT_3D('',#914,#756,#757);
#631=AXIS2_PLACEMENT_3D('',#916,#758,#759);
#632=AXIS2_PLACEMENT_3D('',#917,#760,#761);
#633=AXIS2_PLACEMENT_3D('',#919,#762,#763);
#634=AXIS2_PLACEMENT_3D('',#921,#764,#765);
#635=AXIS2_PLACEMENT_3D('',#922,#766,#767);
#636=AXIS2_PLACEMENT_3D('',#924,#768,#769);
#637=AXIS2_PLACEMENT_3D('',#925,#770,#771);
#638=AXIS2_PLACEMENT_3D('',#927,#772,#773);
#639=AXIS2_PLACEMENT_3D('',#928,#774,#775);
#640=AXIS2_PLACEMENT_3D('',#930,#776,#777);
#641=AXIS2_PLACEMENT_3D('',#932,#778,#779);
#642=AXIS2_PLACEMENT_3D('',#933,#780,#781);
#643=AXIS2_PLACEMENT_3D('',#935,#782,#783);
#644=AXIS2_PLACEMENT_3D('',#936,#784,#785);
#645=AXIS2_PLACEMENT_3D('',#938,#786,#787);
#646=AXIS2_PLACEMENT_3D('',#939,#788,#789);
#647=AXIS2_PLACEMENT_3D('',#940,#790,#791);
#648=AXIS2_PLACEMENT_3D('',#942,#792,#793);
#649=AXIS2_PLACEMENT_3D('',#943,#794,#795);
#650=AXIS2_PLACEMENT_3D('',#945,#796,#797);
#651=AXIS2_PLACEMENT_3D('',#946,#798,#799);
#652=AXIS2_PLACEMENT_3D('',#947,#800,#801);
#653=AXIS2_PLACEMENT_3D('',#948,#802,#803);
#654=AXIS2_PLACEMENT_3D('',#950,#804,#805);
#655=AXIS2_PLACEMENT_3D('',#952,#806,#807);
#656=AXIS2_PLACEMENT_3D('',#953,#808,#809);
#657=AXIS2_PLACEMENT_3D('',#955,#810,#811);
#658=AXIS2_PLACEMENT_3D('',#957,#812,#813);
#659=AXIS2_PLACEMENT_3D('',#958,#814,#815);
#660=AXIS2_PLACEMENT_3D('',#960,#816,#817);
#661=AXIS2_PLACEMENT_3D('',#962,#818,#819);
#662=AXIS2_PLACEMENT_3D('',#963,#820,#821);
#663=AXIS2_PLACEMENT_3D('',#965,#822,#823);
#664=AXIS2_PLACEMENT_3D('',#966,#824,#825);
#665=AXIS2_PLACEMENT_3D('',#968,#826,#827);
#666=AXIS2_PLACEMENT_3D('',#970,#828,#829);
#667=AXIS2_PLACEMENT_3D('',#971,#830,#831);
#668=AXIS2_PLACEMENT_3D('',#973,#832,#833);
#669=AXIS2_PLACEMENT_3D('',#974,#834,#835);
#670=AXIS2_PLACEMENT_3D('',#975,#836,#837);
#671=AXIS2_PLACEMENT_3D('',#976,#838,#839);
#672=AXIS2_PLACEMENT_3D('',#978,#840,#841);
#673=AXIS2_PLACEMENT_3D('',#979,#842,#843);
#674=AXIS2_PLACEMENT_3D('',#981,#844,#845);
#675=AXIS2_PLACEMENT_3D('',#982,#846,#847);
#676=AXIS2_PLACEMENT_3D('',#983,#848,#849);
#677=AXIS2_PLACEMENT_3D('',#985,#850,#851);
#678=DIRECTION('',(0.,0.,1.));
#679=DIRECTION('',(1.,0.,0.));
#680=DIRECTION('',(6.12303176911189E-17,1.,0.));
#681=DIRECTION('',(-1.,6.12303176911189E-17,0.));
#682=DIRECTION('',(-6.12303176911189E-17,-1.,0.));
#683=DIRECTION('',(1.,-6.12303176911189E-17,0.));
#684=DIRECTION('',(-6.12303176911189E-17,-1.,0.));
#685=DIRECTION('',(1.,-6.12303176911189E-17,0.));
#686=DIRECTION('',(-6.12303176911189E-17,-1.,0.));
#687=DIRECTION('',(1.,-6.12303176911189E-17,0.));
#688=DIRECTION('',(-6.12303176911189E-17,-1.,0.));
#689=DIRECTION('',(1.,-6.12303176911189E-17,0.));
#690=DIRECTION('',(6.12303176911189E-17,1.,0.));
#691=DIRECTION('',(-1.,6.12303176911189E-17,0.));
#692=DIRECTION('',(-6.12303176911189E-17,-1.,0.));
#693=DIRECTION('',(1.,-6.12303176911189E-17,0.));
#694=DIRECTION('',(-6.12303176911189E-17,-1.,0.));
#695=DIRECTION('',(1.,-6.12303176911189E-17,0.));
#696=DIRECTION('',(-6.12303176911189E-17,-1.,0.));
#697=DIRECTION('',(1.,-6.12303176911189E-17,0.));
#698=DIRECTION('',(6.12303176911189E-17,1.,0.));
#699=DIRECTION('',(-1.,6.12303176911189E-17,0.));
#700=DIRECTION('',(-6.12303176911189E-17,-1.,0.));
#701=DIRECTION('',(1.,-6.12303176911189E-17,0.));
#702=DIRECTION('',(-6.12303176911189E-17,-1.,0.));
#703=DIRECTION('',(1.,-6.12303176911189E-17,0.));
#704=DIRECTION('',(-6.12303176911189E-17,-1.,0.));
#705=DIRECTION('',(1.,-6.12303176911189E-17,0.));
#706=DIRECTION('',(-6.12303176911189E-17,-1.,0.));
#707=DIRECTION('',(1.,-6.12303176911189E-17,0.));
#708=DIRECTION('',(-6.12303176911189E-17,-1.,0.));
#709=DIRECTION('',(1.,-6.12303176911189E-17,0.));
#710=DIRECTION('',(-6.12303176911189E-17,-1.,0.));
#711=DIRECTION('',(1.,-6.12303176911189E-17,0.));
#712=DIRECTION('',(-6.12303176911189E-17,-1.,0.));
#713=DIRECTION('',(1.,-6.12303176911189E-17,0.));
#714=DIRECTION('',(-6.12303176911189E-17,-1.,0.));
#715=DIRECTION('',(1.,-6.12303176911189E-17,0.));
#716=DIRECTION('',(-6.12303176911189E-17,-1.,0.));
#717=DIRECTION('',(1.,-6.12303176911189E-17,0.));
#718=DIRECTION('',(-6.12303176911189E-17,-1.,0.));
#719=DIRECTION('',(1.,-6.12303176911189E-17,0.));
#720=DIRECTION('',(-6.12303176911189E-17,-1.,0.));
#721=DIRECTION('',(1.,-6.12303176911189E-17,0.));
#722=DIRECTION('',(-6.12303176911189E-17,-1.,0.));
#723=DIRECTION('',(1.,-6.12303176911189E-17,0.));
#724=DIRECTION('',(-6.12303176911189E-17,-1.,0.));
#725=DIRECTION('',(1.,-6.12303176911189E-17,0.));
#726=DIRECTION('',(6.12303176911189E-17,1.,0.));
#727=DIRECTION('',(-1.,6.12303176911189E-17,0.));
#728=DIRECTION('',(-6.12303176911189E-17,-1.,0.));
#729=DIRECTION('',(1.,-6.12303176911189E-17,0.));
#730=DIRECTION('',(-6.12303176911189E-17,-1.,0.));
#731=DIRECTION('',(1.,-6.12303176911189E-17,0.));
#732=DIRECTION('',(-6.12303176911189E-17,-1.,0.));
#733=DIRECTION('',(1.,-6.12303176911189E-17,0.));
#734=DIRECTION('',(-6.12303176911189E-17,-1.,0.));
#735=DIRECTION('',(1.,-6.12303176911189E-17,0.));
#736=DIRECTION('',(-0.707106781186548,-7.91683070611385E-17,0.707106781186547));
#737=DIRECTION('',(-2.53652879324305E-17,1.,8.65956056235493E-17));
#738=DIRECTION('',(-1.,-6.12343622236164E-17,-1.60812264967664E-16));
#739=DIRECTION('',(-6.12343622236164E-17,1.,-1.96938225556285E-32));
#740=DIRECTION('',(-0.707106781186547,-7.91683070611385E-17,-0.707106781186548));
#741=DIRECTION('',(-2.53652879324304E-17,1.,-8.65956056235493E-17));
#742=DIRECTION('',(-1.22464679914735E-16,-1.22464679914735E-16,-1.));
#743=DIRECTION('',(6.12303176911189E-17,1.,-1.22464679914735E-16));
#744=DIRECTION('',(0.707106781186547,-1.65761052768332E-16,-0.707106781186548));
#745=DIRECTION('',(1.47825923314668E-16,1.,-8.65956056235493E-17));
#746=DIRECTION('',(1.,-1.83694997605854E-16,-1.83697019872103E-16));
#747=DIRECTION('',(1.83694997605854E-16,1.,-2.24963967399279E-32));
#748=DIRECTION('',(0.707106781186548,-1.65761052768332E-16,0.707106781186547));
#749=DIRECTION('',(1.47825923314668E-16,1.,8.65956056235493E-17));
#750=DIRECTION('',(-7.49855125712043E-33,-1.22464679914735E-16,1.));
#751=DIRECTION('',(6.12303176911189E-17,1.,1.22464679914735E-16));
#752=DIRECTION('',(-6.12303176911189E-17,-1.,0.));
#753=DIRECTION('',(1.,-6.12303176911189E-17,0.));
#754=DIRECTION('',(-6.12303176911189E-17,-1.,0.));
#755=DIRECTION('',(1.,-6.12303176911189E-17,0.));
#756=DIRECTION('',(-6.12303176911189E-17,-1.,0.));
#757=DIRECTION('',(1.,-6.12303176911189E-17,0.));
#758=DIRECTION('',(-6.12303176911189E-17,-1.,0.));
#759=DIRECTION('',(1.,-6.12303176911189E-17,0.));
#760=DIRECTION('',(-6.12303176911189E-17,-1.,0.));
#761=DIRECTION('',(1.,-6.12303176911189E-17,0.));
#762=DIRECTION('',(-6.12303176911189E-17,-1.,0.));
#763=DIRECTION('',(1.,-6.12303176911189E-17,0.));
#764=DIRECTION('',(-6.12303176911189E-17,-1.,0.));
#765=DIRECTION('',(1.,-6.12303176911189E-17,0.));
#766=DIRECTION('',(-6.12303176911189E-17,-1.,0.));
#767=DIRECTION('',(1.,-6.12303176911189E-17,0.));
#768=DIRECTION('',(6.12303176911189E-17,1.,0.));
#769=DIRECTION('',(-1.,6.12303176911189E-17,0.));
#770=DIRECTION('',(6.12303176911189E-17,1.,0.));
#771=DIRECTION('',(-1.,6.12303176911189E-17,0.));
#772=DIRECTION('',(-6.12303176911189E-17,-1.,0.));
#773=DIRECTION('',(1.,-6.12303176911189E-17,0.));
#774=DIRECTION('',(6.12303176911189E-17,1.,0.));
#775=DIRECTION('',(-1.,6.12303176911189E-17,0.));
#776=DIRECTION('',(-6.12303176911189E-17,-1.,0.));
#777=DIRECTION('',(1.,-6.12303176911189E-17,0.));
#778=DIRECTION('',(-6.12303176911189E-17,-1.,0.));
#779=DIRECTION('',(1.,-6.12303176911189E-17,0.));
#780=DIRECTION('',(-6.12303176911189E-17,-1.,0.));
#781=DIRECTION('',(1.,-6.12303176911189E-17,0.));
#782=DIRECTION('',(-6.12303176911189E-17,-1.,0.));
#783=DIRECTION('',(1.,-6.12303176911189E-17,0.));
#784=DIRECTION('',(-6.12303176911189E-17,-1.,0.));
#785=DIRECTION('',(1.,-6.12303176911189E-17,0.));
#786=DIRECTION('',(-6.12303176911189E-17,-1.,0.));
#787=DIRECTION('',(1.,-6.12303176911189E-17,0.));
#788=DIRECTION('',(-6.12303176911189E-17,-1.,0.));
#789=DIRECTION('',(1.,-6.12303176911189E-17,0.));
#790=DIRECTION('',(-6.12303176911189E-17,-1.,0.));
#791=DIRECTION('',(1.,-6.12303176911189E-17,0.));
#792=DIRECTION('',(6.12303176911189E-17,1.,0.));
#793=DIRECTION('',(-1.,6.12303176911189E-17,0.));
#794=DIRECTION('',(-6.12303176911189E-17,-1.,0.));
#795=DIRECTION('',(1.,-6.12303176911189E-17,0.));
#796=DIRECTION('',(-6.12303176911189E-17,-1.,0.));
#797=DIRECTION('',(1.,-6.12303176911189E-17,0.));
#798=DIRECTION('',(6.12303176911189E-17,1.,0.));
#799=DIRECTION('',(-1.,6.12303176911189E-17,0.));
#800=DIRECTION('',(-6.12303176911189E-17,-1.,0.));
#801=DIRECTION('',(1.,-6.12303176911189E-17,0.));
#802=DIRECTION('',(6.12303176911189E-17,1.,0.));
#803=DIRECTION('',(-1.,6.12303176911189E-17,0.));
#804=DIRECTION('',(6.12303176911189E-17,1.,0.));
#805=DIRECTION('',(-1.,6.12303176911189E-17,0.));
#806=DIRECTION('',(-6.12303176911189E-17,-1.,0.));
#807=DIRECTION('',(1.,-6.12303176911189E-17,0.));
#808=DIRECTION('',(-6.12303176911189E-17,-1.,0.));
#809=DIRECTION('',(1.,-6.12303176911189E-17,0.));
#810=DIRECTION('',(-6.12303176911189E-17,-1.,0.));
#811=DIRECTION('',(1.,-6.12303176911189E-17,0.));
#812=DIRECTION('',(-6.12303176911189E-17,-1.,0.));
#813=DIRECTION('',(1.,-6.12303176911189E-17,0.));
#814=DIRECTION('',(-6.12303176911189E-17,-1.,0.));
#815=DIRECTION('',(1.,-6.12303176911189E-17,0.));
#816=DIRECTION('',(-6.12303176911189E-17,-1.,0.));
#817=DIRECTION('',(1.,-6.12303176911189E-17,0.));
#818=DIRECTION('',(-6.12303176911189E-17,-1.,0.));
#819=DIRECTION('',(1.,-6.12303176911189E-17,0.));
#820=DIRECTION('',(-6.12303176911189E-17,-1.,0.));
#821=DIRECTION('',(1.,-6.12303176911189E-17,0.));
#822=DIRECTION('',(6.12303176911189E-17,1.,0.));
#823=DIRECTION('',(-1.,6.12303176911189E-17,0.));
#824=DIRECTION('',(6.12303176911189E-17,1.,0.));
#825=DIRECTION('',(-1.,6.12303176911189E-17,0.));
#826=DIRECTION('',(-6.12303176911189E-17,-1.,0.));
#827=DIRECTION('',(1.,-6.12303176911189E-17,0.));
#828=DIRECTION('',(-6.12303176911189E-17,-1.,0.));
#829=DIRECTION('',(1.,-6.12303176911189E-17,0.));
#830=DIRECTION('',(-6.12303176911189E-17,-1.,0.));
#831=DIRECTION('',(1.,-6.12303176911189E-17,0.));
#832=DIRECTION('',(-6.12303176911189E-17,-1.,0.));
#833=DIRECTION('',(1.,-6.12303176911189E-17,0.));
#834=DIRECTION('',(6.12303176911189E-17,1.,0.));
#835=DIRECTION('',(-1.,6.12303176911189E-17,0.));
#836=DIRECTION('',(-6.12303176911189E-17,-1.,0.));
#837=DIRECTION('',(1.,-6.12303176911189E-17,0.));
#838=DIRECTION('',(-6.12303176911189E-17,-1.,0.));
#839=DIRECTION('',(1.,-6.12303176911189E-17,0.));
#840=DIRECTION('',(-6.12303176911189E-17,-1.,0.));
#841=DIRECTION('',(1.,-6.12303176911189E-17,0.));
#842=DIRECTION('',(-6.12303176911189E-17,-1.,0.));
#843=DIRECTION('',(1.,-6.12303176911189E-17,0.));
#844=DIRECTION('',(6.12303176911189E-17,1.,0.));
#845=DIRECTION('',(-1.,6.12303176911189E-17,0.));
#846=DIRECTION('',(-6.12303176911189E-17,-1.,0.));
#847=DIRECTION('',(1.,-6.12303176911189E-17,0.));
#848=DIRECTION('',(-6.12303176911189E-17,-1.,0.));
#849=DIRECTION('',(1.,-6.12303176911189E-17,0.));
#850=DIRECTION('',(6.12303176911189E-17,1.,0.));
#851=DIRECTION('',(-1.,6.12303176911189E-17,0.));
#852=CARTESIAN_POINT('',(0.,0.,0.));
#853=CARTESIAN_POINT('',(2.4109437590878E-17,0.39375,1.16666666666667));
#854=CARTESIAN_POINT('',(2.4109437590878E-17,0.39375,0.));
#855=CARTESIAN_POINT('',(1.16666666666667,0.39375,0.));
#856=CARTESIAN_POINT('',(2.4109437590878E-17,0.39375,0.));
#857=CARTESIAN_POINT('',(1.29066666666667,0.39375,0.));
#858=CARTESIAN_POINT('',(2.4109437590878E-17,0.39375,0.));
#859=CARTESIAN_POINT('',(2.83190219321425E-17,0.4625,0.));
#860=CARTESIAN_POINT('',(1.12697383565988,0.4625,0.));
#861=CARTESIAN_POINT('',(2.83190219321425E-17,0.4625,1.12697383565988));
#862=CARTESIAN_POINT('',(2.83190219321425E-17,0.4625,0.));
#863=CARTESIAN_POINT('',(0.839583333333331,0.4625,0.));
#864=CARTESIAN_POINT('',(0.,0.,0.));
#865=CARTESIAN_POINT('',(2.60228850187255E-17,0.425,0.));
#866=CARTESIAN_POINT('',(0.839583333333332,0.425,0.));
#867=CARTESIAN_POINT('',(2.60228850187255E-17,0.425,0.839583333333332));
#868=CARTESIAN_POINT('',(2.60228850187255E-17,0.425,0.));
#869=CARTESIAN_POINT('',(0.827083333333331,0.425,0.));
#870=CARTESIAN_POINT('',(0.,0.,0.));
#871=CARTESIAN_POINT('',(2.90844009032815E-17,0.475,0.));
#872=CARTESIAN_POINT('',(0.827083333333331,0.475,0.));
#873=CARTESIAN_POINT('',(2.90844009032815E-17,0.475,0.827083333333331));
#874=CARTESIAN_POINT('',(2.90844009032815E-17,0.475,0.));
#875=CARTESIAN_POINT('',(1.13419071402475,0.475,0.));
#876=CARTESIAN_POINT('',(2.90844009032815E-17,0.475,0.));
#877=CARTESIAN_POINT('',(2.4874816562017E-17,0.40625,0.));
#878=CARTESIAN_POINT('',(1.17388354503154,0.40625,0.));
#879=CARTESIAN_POINT('',(2.4874816562017E-17,0.40625,1.17388354503154));
#880=CARTESIAN_POINT('',(2.4874816562017E-17,0.40625,0.));
#881=CARTESIAN_POINT('',(1.27816666666667,0.40625,0.));
#882=CARTESIAN_POINT('',(0.,0.,0.));
#883=CARTESIAN_POINT('',(2.5640195533156E-17,0.41875,0.));
#884=CARTESIAN_POINT('',(1.27816666666667,0.41875,0.));
#885=CARTESIAN_POINT('',(2.5640195533156E-17,0.41875,0.));
#886=CARTESIAN_POINT('',(2.5640195533156E-17,0.41875,0.));
#887=CARTESIAN_POINT('',(1.20910843618633,0.41875,0.));
#888=CARTESIAN_POINT('',(2.5640195533156E-17,0.41875,1.20910843618633));
#889=CARTESIAN_POINT('',(2.5640195533156E-17,0.41875,0.));
#890=CARTESIAN_POINT('',(1.19660843618633,0.41875,0.));
#891=CARTESIAN_POINT('',(2.5640195533156E-17,0.41875,0.));
#892=CARTESIAN_POINT('',(2.5640195533156E-17,0.41875,0.));
#893=CARTESIAN_POINT('',(1.29066666666667,0.41875,0.));
#894=CARTESIAN_POINT('',(0.,0.,0.));
#895=CARTESIAN_POINT('',(-0.707106781186546,8.41179328251751E-17,0.707106781186546));
#896=CARTESIAN_POINT('',(-0.511395337638136,1.22977711905519E-16,0.511395337638136));
#897=CARTESIAN_POINT('',(-0.999999999999998,1.02051877662697E-16,-1.60812264967663E-16));
#898=CARTESIAN_POINT('',(-0.72322222222222,1.35947939344123E-16,-1.16303003630502E-16));
#899=CARTESIAN_POINT('',(-0.707106781186546,8.41179328251751E-17,-0.707106781186547));
#900=CARTESIAN_POINT('',(-0.511395337638136,1.22977711905519E-16,-0.511395337638136));
#901=CARTESIAN_POINT('',(-1.22464679914735E-16,4.08215599715784E-17,-0.999999999999998));
#902=CARTESIAN_POINT('',(-8.85691779516678E-17,9.16648129161794E-17,-0.72322222222222));
#903=CARTESIAN_POINT('',(0.707106781186546,-2.47481288201827E-18,-0.707106781186546));
#904=CARTESIAN_POINT('',(0.511395337638136,6.03519139268393E-17,-0.511395337638136));
#905=CARTESIAN_POINT('',(0.999999999999998,-2.04087577195403E-17,-1.83697019872103E-16));
#906=CARTESIAN_POINT('',(0.72322222222222,4.73816864882359E-17,-1.32853766927502E-16));
#907=CARTESIAN_POINT('',(0.707106781186546,-2.47481288201828E-18,0.707106781186546));
#908=CARTESIAN_POINT('',(0.511395337638136,6.03519139268393E-17,0.511395337638136));
#909=CARTESIAN_POINT('',(2.49951708570681E-33,4.08215599715784E-17,0.999999999999998));
#910=CARTESIAN_POINT('',(5.61266561595464E-33,9.16648129161794E-17,0.72322222222222));
#911=CARTESIAN_POINT('',(0.,0.,0.));
#912=CARTESIAN_POINT('',(2.98497798744204E-17,0.4875,0.));
#913=CARTESIAN_POINT('',(0.833333333333332,0.4875,0.));
#914=CARTESIAN_POINT('',(3.06151588455594E-17,0.5,0.));
#915=CARTESIAN_POINT('',(0.833333333333332,0.5,0.));
#916=CARTESIAN_POINT('',(2.49951708570681E-33,4.08215599715784E-17,0.));
#917=CARTESIAN_POINT('',(4.58244799046248E-33,7.48395266145605E-17,0.));
#918=CARTESIAN_POINT('',(0.72222222222222,3.06176305043081E-17,0.));
#919=CARTESIAN_POINT('',(1.36067372646931E-17,0.222222222222222,0.));
#920=CARTESIAN_POINT('',(0.833333333333332,0.222222222222222,0.));
#921=CARTESIAN_POINT('',(0.,0.,0.));
#922=CARTESIAN_POINT('',(-3.06151588455594E-17,-0.5,0.));
#923=CARTESIAN_POINT('',(0.72222222222222,-0.5,0.));
#924=CARTESIAN_POINT('',(-3.06151588455594E-17,-0.5,0.72222222222222));
#925=CARTESIAN_POINT('',(-3.06151588455594E-17,-0.5,0.));
#926=CARTESIAN_POINT('',(-0.549999999999998,-0.5,0.));
#927=CARTESIAN_POINT('',(0.,0.,0.));
#928=CARTESIAN_POINT('',(-2.75536429610035E-17,-0.45,0.));
#929=CARTESIAN_POINT('',(-0.499999999999998,-0.45,0.));
#930=CARTESIAN_POINT('',(2.75536429610035E-17,0.45,0.));
#931=CARTESIAN_POINT('',(0.499999999999998,0.45,0.));
#932=CARTESIAN_POINT('',(3.06151588455594E-17,0.5,0.499999999999998));
#933=CARTESIAN_POINT('',(3.06151588455594E-17,0.5,0.));
#934=CARTESIAN_POINT('',(0.549999999999998,0.5,0.));
#935=CARTESIAN_POINT('',(0.,0.,0.));
#936=CARTESIAN_POINT('',(2.21959901630306E-17,0.3625,0.));
#937=CARTESIAN_POINT('',(0.833333333333332,0.3625,0.));
#938=CARTESIAN_POINT('',(2.75536429610035E-17,0.45,0.));
#939=CARTESIAN_POINT('',(2.4109437590878E-17,0.39375,0.));
#940=CARTESIAN_POINT('',(2.4109437590878E-17,0.39375,0.));
#941=CARTESIAN_POINT('',(0.708333333333332,0.39375,0.));
#942=CARTESIAN_POINT('',(2.98497798744204E-17,0.4875,0.));
#943=CARTESIAN_POINT('',(2.7936332446573E-17,0.45625,0.));
#944=CARTESIAN_POINT('',(0.708333333333332,0.45625,0.));
#945=CARTESIAN_POINT('',(0.,0.,0.));
#946=CARTESIAN_POINT('',(-2.75536429610035E-17,-0.45,0.));
#947=CARTESIAN_POINT('',(0.,0.,0.));
#948=CARTESIAN_POINT('',(-2.75536429610035E-17,-0.45,0.));
#949=CARTESIAN_POINT('',(-1.5,-0.45,0.));
#950=CARTESIAN_POINT('',(1.22460635382238E-17,0.2,0.));
#951=CARTESIAN_POINT('',(-1.5,0.2,0.));
#952=CARTESIAN_POINT('',(0.,0.,0.));
#953=CARTESIAN_POINT('',(3.06151588455594E-17,0.5,0.));
#954=CARTESIAN_POINT('',(1.16666666666667,0.5,0.));
#955=CARTESIAN_POINT('',(2.98497798744204E-17,0.4875,0.));
#956=CARTESIAN_POINT('',(1.16666666666666,0.4875,0.));
#957=CARTESIAN_POINT('',(0.,0.,0.));
#958=CARTESIAN_POINT('',(1.36067372646931E-17,0.222222222222222,0.));
#959=CARTESIAN_POINT('',(1.16666666666666,0.222222222222222,0.));
#960=CARTESIAN_POINT('',(2.21959901630306E-17,0.3625,0.));
#961=CARTESIAN_POINT('',(1.16666666666666,0.3625,0.));
#962=CARTESIAN_POINT('',(3.06151588455594E-17,0.5,1.16666666666667));
#963=CARTESIAN_POINT('',(3.06151588455594E-17,0.5,0.));
#964=CARTESIAN_POINT('',(1.9,0.499999999999999,0.));
#965=CARTESIAN_POINT('',(-3.06151588455594E-17,-0.5,1.5));
#966=CARTESIAN_POINT('',(-3.06151588455594E-17,-0.5,0.));
#967=CARTESIAN_POINT('',(-1.45,-0.5,0.));
#968=CARTESIAN_POINT('',(-3.06151588455594E-17,-0.5,0.));
#969=CARTESIAN_POINT('',(1.16666666666667,-0.5,0.));
#970=CARTESIAN_POINT('',(0.,0.,0.));
#971=CARTESIAN_POINT('',(-1.36067372646931E-17,-0.222222222222222,0.));
#972=CARTESIAN_POINT('',(1.16666666666666,-0.222222222222222,0.));
#973=CARTESIAN_POINT('',(2.49951708570681E-33,4.08215599715784E-17,0.));
#974=CARTESIAN_POINT('',(-2.75536429610035E-17,-0.45,0.));
#975=CARTESIAN_POINT('',(2.98497798744204E-17,0.4875,0.));
#976=CARTESIAN_POINT('',(2.7936332446573E-17,0.45625,0.));
#977=CARTESIAN_POINT('',(1.29166666666666,0.45625,0.));
#978=CARTESIAN_POINT('',(0.,0.,0.));
#979=CARTESIAN_POINT('',(2.4109437590878E-17,0.39375,0.));
#980=CARTESIAN_POINT('',(1.29166666666666,0.39375,0.));
#981=CARTESIAN_POINT('',(2.4109437590878E-17,0.39375,0.));
#982=CARTESIAN_POINT('',(0.,0.,0.));
#983=CARTESIAN_POINT('',(1.22460635382238E-17,0.2,0.));
#984=CARTESIAN_POINT('',(1.9,0.2,0.));
#985=CARTESIAN_POINT('',(1.22460635382238E-17,0.2,1.9));
#986=MECHANICAL_DESIGN_GEOMETRIC_PRESENTATION_REPRESENTATION('',(#500,#501,
#502,#503,#504,#505,#506,#507,#508,#509,#510),#987);
#987=(
GEOMETRIC_REPRESENTATION_CONTEXT(3)
GLOBAL_UNCERTAINTY_ASSIGNED_CONTEXT((#988))
GLOBAL_UNIT_ASSIGNED_CONTEXT((#991,#990,#989))
REPRESENTATION_CONTEXT('\X2\6DF16C9F74038F74627F\X0\FSN 70000-Z\X2\578B\X0\',
'TOP_LEVEL_ASSEMBLY_PART')
);
#988=UNCERTAINTY_MEASURE_WITH_UNIT(LENGTH_MEASURE(0.005),#991,
'DISTANCE_ACCURACY_VALUE','Maximum Tolerance applied to model');
#989=(
NAMED_UNIT(*)
SI_UNIT($,.STERADIAN.)
SOLID_ANGLE_UNIT()
);
#990=(
NAMED_UNIT(*)
PLANE_ANGLE_UNIT()
SI_UNIT($,.RADIAN.)
);
#991=(
LENGTH_UNIT()
NAMED_UNIT(*)
SI_UNIT(.MILLI.,.METRE.)
);
#992=PRODUCT_DEFINITION_SHAPE('','',#993);
#993=PRODUCT_DEFINITION('','',#995,#994);
#994=PRODUCT_DEFINITION_CONTEXT('',#1001,'design');
#995=PRODUCT_DEFINITION_FORMATION_WITH_SPECIFIED_SOURCE('','',#997,
 .NOT_KNOWN.);
#996=PRODUCT_RELATED_PRODUCT_CATEGORY('','',(#997));
#997=PRODUCT('\X2\6DF16C9F74038F74627F\X0\FSN 70000-Z\X2\578B\X0\',
'\X2\6DF16C9F74038F74627F\X0\FSN 70000-Z\X2\578B\X0\',
'\X2\6DF16C9F74038F74627F\X0\FSN 70000-Z\X2\578B\X0\',(#999));
#998=PRODUCT_CATEGORY('','');
#999=PRODUCT_CONTEXT('',#1001,'mechanical');
#1000=APPLICATION_PROTOCOL_DEFINITION('international standard',
'automotive_design',2010,#1001);
#1001=APPLICATION_CONTEXT(
'core data for automotive mechanical design processes');
ENDSEC;
END-ISO-10303-21;
