ISO-10303-21;
HEADER;
/* Generated by software containing HOOPS Exchange Step
 * from HOOPS Exchange, Inc. (www.tiangong.cloud) 
 */

FILE_DESCRIPTION(
/* description */ ('Unknown'),
/* implementation_level */ '2;1');

FILE_NAME(
/* name */ 'UBPFT\X2\5E2651B2538B4E0989D25F625EA798764E1D59167403976274038F74627F\X0\',

/* time_stamp */ '2025-10-13T02:22:49+08:00',
/* author */ ('Unknown'),
/* organization */ ('Unknown'),
/* preprocessor_version */ 'ST-DEVELOPER v19.4',
/* originating_system */ 'TianGong',
/* authorisation */ 'Unknown');

FILE_SCHEMA (('AUTOMOTIVE_DESIGN {1 0 10303 214 3 1 1}'));
ENDSEC;

DATA;
#10=PROPERTY_DEFINITION_REPRESENTATION(#14,#12);
#11=PROPERTY_DEFINITION_REPRESENTATION(#15,#13);
#12=REPRESENTATION('',(#16),#1567);
#13=REPRESENTATION('',(#17),#1567);
#14=PROPERTY_DEFINITION('pmi validation property','',#1580);
#15=PROPERTY_DEFINITION('pmi validation property','',#1580);
#16=VALUE_REPRESENTATION_ITEM('number of annotations',COUNT_MEASURE(0.));
#17=VALUE_REPRESENTATION_ITEM('number of views',COUNT_MEASURE(0.));
#18=LINE('',#1394,#36);
#19=LINE('',#1399,#37);
#20=LINE('',#1403,#38);
#21=LINE('',#1408,#39);
#22=LINE('',#1415,#40);
#23=LINE('',#1419,#41);
#24=LINE('',#1423,#42);
#25=LINE('',#1433,#43);
#26=LINE('',#1438,#44);
#27=LINE('',#1450,#45);
#28=LINE('',#1455,#46);
#29=LINE('',#1459,#47);
#30=LINE('',#1480,#48);
#31=LINE('',#1481,#49);
#32=LINE('',#1483,#50);
#33=LINE('',#1484,#51);
#34=LINE('',#1486,#52);
#35=LINE('',#1487,#53);
#36=VECTOR('',#1124,1000.);
#37=VECTOR('',#1127,1000.);
#38=VECTOR('',#1132,1000.);
#39=VECTOR('',#1135,1000.);
#40=VECTOR('',#1142,1000.);
#41=VECTOR('',#1145,1000.);
#42=VECTOR('',#1148,1000.);
#43=VECTOR('',#1159,1000.);
#44=VECTOR('',#1162,1000.);
#45=VECTOR('',#1177,1000.);
#46=VECTOR('',#1180,1000.);
#47=VECTOR('',#1183,1000.);
#48=VECTOR('',#1208,1000.);
#49=VECTOR('',#1209,1000.);
#50=VECTOR('',#1212,1000.);
#51=VECTOR('',#1213,1000.);
#52=VECTOR('',#1216,1000.);
#53=VECTOR('',#1217,1000.);
#54=CONTEXT_DEPENDENT_SHAPE_REPRESENTATION(#64,#1583);
#55=CONTEXT_DEPENDENT_SHAPE_REPRESENTATION(#65,#1585);
#56=CONTEXT_DEPENDENT_SHAPE_REPRESENTATION(#66,#1586);
#57=CONTEXT_DEPENDENT_SHAPE_REPRESENTATION(#67,#1587);
#58=CONTEXT_DEPENDENT_SHAPE_REPRESENTATION(#68,#1589);
#59=NEXT_ASSEMBLY_USAGE_OCCURRENCE('UC\X2\941E51AD917193B5\X0\?',
'UC\X2\941E51AD917193B5\X0\?','UC\X2\941E51AD917193B5\X0\?',#1591,#1592,
'');
#60=NEXT_ASSEMBLY_USAGE_OCCURRENCE('\X2\692467357B23\X0\','\X2\692467357B23\X0\',
'\X2\692467357B23\X0\',#1591,#1593,'');
#61=NEXT_ASSEMBLY_USAGE_OCCURRENCE('\X2\692467357B23\X0\','\X2\692467357B23\X0\',
'\X2\692467357B23\X0\',#1591,#1593,'');
#62=NEXT_ASSEMBLY_USAGE_OCCURRENCE('UB\X2\7441547453A46D63\X0\?',
'UB\X2\7441547453A46D63\X0\?','UB\X2\7441547453A46D63\X0\?',#1590,#1591,
'');
#63=NEXT_ASSEMBLY_USAGE_OCCURRENCE('PTF\X2\935063D25E076D93590EE757893032209A87\X0\',
'PTF\X2\935063D25E076D93590EE757893032209A87\X0\',
'PTF\X2\935063D25E076D93590EE757893032209A87\X0\',#1590,#1594,'');
#64=(
REPRESENTATION_RELATIONSHIP(' ',' ',#895,#896)
REPRESENTATION_RELATIONSHIP_WITH_TRANSFORMATION(#69)
SHAPE_REPRESENTATION_RELATIONSHIP()
);
#65=(
REPRESENTATION_RELATIONSHIP(' ',' ',#897,#896)
REPRESENTATION_RELATIONSHIP_WITH_TRANSFORMATION(#70)
SHAPE_REPRESENTATION_RELATIONSHIP()
);
#66=(
REPRESENTATION_RELATIONSHIP(' ',' ',#897,#896)
REPRESENTATION_RELATIONSHIP_WITH_TRANSFORMATION(#71)
SHAPE_REPRESENTATION_RELATIONSHIP()
);
#67=(
REPRESENTATION_RELATIONSHIP(' ',' ',#896,#898)
REPRESENTATION_RELATIONSHIP_WITH_TRANSFORMATION(#72)
SHAPE_REPRESENTATION_RELATIONSHIP()
);
#68=(
REPRESENTATION_RELATIONSHIP(' ',' ',#899,#898)
REPRESENTATION_RELATIONSHIP_WITH_TRANSFORMATION(#73)
SHAPE_REPRESENTATION_RELATIONSHIP()
);
#69=ITEM_DEFINED_TRANSFORMATION(' ',' ',#900,#942);
#70=ITEM_DEFINED_TRANSFORMATION(' ',' ',#900,#952);
#71=ITEM_DEFINED_TRANSFORMATION(' ',' ',#900,#953);
#72=ITEM_DEFINED_TRANSFORMATION(' ',' ',#900,#954);
#73=ITEM_DEFINED_TRANSFORMATION(' ',' ',#900,#1011);
#74=CONICAL_SURFACE('',#938,8.5,0.78539816339745);
#75=CONICAL_SURFACE('',#939,11.6666666666667,0.78539816339745);
#76=CONICAL_SURFACE('',#940,10.6666666666667,0.785398163397449);
#77=CONICAL_SURFACE('',#950,1.5,0.785398163397448);
#78=CONICAL_SURFACE('',#951,2.5,0.785398163397448);
#79=B_SPLINE_CURVE_WITH_KNOTS('',3,(#1288,#1289,#1290,#1291,#1292,#1293,
#1294,#1295,#1296,#1297,#1298),.UNSPECIFIED.,.F.,.F.,(4,1,1,1,1,1,1,1,4),
(0.00491580786361298,0.00662628837006889,0.00833676887652479,0.0100472493829807,
0.0117577298894366,0.0134682103958925,0.0151786909023484,0.0168891714088043,
0.0185996519152602),.UNSPECIFIED.);
#80=B_SPLINE_CURVE_WITH_KNOTS('',3,(#1301,#1302,#1303,#1304),
 .UNSPECIFIED.,.F.,.F.,(4,4),(0.,0.00202159081458157),.UNSPECIFIED.);
#81=B_SPLINE_CURVE_WITH_KNOTS('',3,(#1305,#1306,#1307,#1308,#1309,#1310,
#1311,#1312,#1313,#1314,#1315),.UNSPECIFIED.,.T.,.F.,(1,1,1,1,1,1,1,1,1,
1,1,1,1,1,1),(-0.00590374453187817,-0.00393582968791878,-0.00196791484395939,
0.,0.00196791484395939,0.00393582968791878,0.00590374453187817,0.00787165937583756,
0.00983957421979694,0.0118074890637563,0.0137754039077157,0.0157433187516751,
0.0177112335956345,0.0196791484395939,0.0216470632835533),.UNSPECIFIED.);
#82=B_SPLINE_CURVE_WITH_KNOTS('',3,(#1323,#1324,#1325,#1326,#1327,#1328,
#1329,#1330,#1331,#1332,#1333),.UNSPECIFIED.,.F.,.F.,(4,1,1,1,1,1,1,1,4),
(0.00491580786361298,0.00662628837006889,0.00833676887652479,0.0100472493829807,
0.0117577298894366,0.0134682103958925,0.0151786909023484,0.0168891714088043,
0.0185996519152602),.UNSPECIFIED.);
#83=B_SPLINE_CURVE_WITH_KNOTS('',3,(#1354,#1355,#1356,#1357,#1358,#1359,
#1360,#1361,#1362,#1363,#1364),.UNSPECIFIED.,.T.,.F.,(1,1,1,1,1,1,1,1,1,
1,1,1,1,1,1),(-0.00590374453187817,-0.00393582968791878,-0.00196791484395939,
0.,0.00196791484395939,0.00393582968791878,0.00590374453187817,0.00787165937583756,
0.00983957421979694,0.0118074890637563,0.0137754039077157,0.0157433187516751,
0.0177112335956345,0.0196791484395939,0.0216470632835533),.UNSPECIFIED.);
#84=B_SPLINE_CURVE_WITH_KNOTS('',3,(#1367,#1368,#1369,#1370),
 .UNSPECIFIED.,.F.,.F.,(4,4),(0.,0.00202159081458157),.UNSPECIFIED.);
#85=B_SPLINE_CURVE_WITH_KNOTS('',3,(#1494,#1495,#1496,#1497,#1498),
 .UNSPECIFIED.,.F.,.F.,(4,1,4),(0.,0.000814149693648644,0.00162829938729729),
 .UNSPECIFIED.);
#86=B_SPLINE_CURVE_WITH_KNOTS('',3,(#1499,#1500,#1501,#1502,#1503),
 .UNSPECIFIED.,.F.,.F.,(4,1,4),(0.,0.000814149693648643,0.00162829938729729),
 .UNSPECIFIED.);
#87=B_SPLINE_CURVE_WITH_KNOTS('',3,(#1505,#1506,#1507,#1508,#1509),
 .UNSPECIFIED.,.F.,.F.,(4,1,4),(0.,0.000814149693648654,0.00162829938729731),
 .UNSPECIFIED.);
#88=B_SPLINE_CURVE_WITH_KNOTS('',3,(#1511,#1512,#1513,#1514,#1515),
 .UNSPECIFIED.,.F.,.F.,(4,1,4),(0.,0.000814149693648644,0.00162829938729729),
 .UNSPECIFIED.);
#89=B_SPLINE_CURVE_WITH_KNOTS('',3,(#1517,#1518,#1519,#1520,#1521),
 .UNSPECIFIED.,.F.,.F.,(4,1,4),(0.,0.000814149693648658,0.00162829938729732),
 .UNSPECIFIED.);
#90=B_SPLINE_CURVE_WITH_KNOTS('',3,(#1523,#1524,#1525,#1526,#1527),
 .UNSPECIFIED.,.F.,.F.,(4,1,4),(0.,0.00081414969364866,0.00162829938729732),
 .UNSPECIFIED.);
#91=B_SPLINE_CURVE_WITH_KNOTS('',3,(#1530,#1531,#1532,#1533,#1534),
 .UNSPECIFIED.,.F.,.F.,(4,1,4),(0.,0.000814149693648649,0.0016282993872973),
 .UNSPECIFIED.);
#92=B_SPLINE_CURVE_WITH_KNOTS('',3,(#1535,#1536,#1537,#1538,#1539),
 .UNSPECIFIED.,.F.,.F.,(4,1,4),(0.,0.000814149693648654,0.00162829938729731),
 .UNSPECIFIED.);
#93=B_SPLINE_CURVE_WITH_KNOTS('',3,(#1541,#1542,#1543,#1544,#1545),
 .UNSPECIFIED.,.F.,.F.,(4,1,4),(0.,0.000814149693648645,0.00162829938729729),
 .UNSPECIFIED.);
#94=B_SPLINE_CURVE_WITH_KNOTS('',3,(#1547,#1548,#1549,#1550,#1551),
 .UNSPECIFIED.,.F.,.F.,(4,1,4),(0.,0.000814149693648643,0.00162829938729729),
 .UNSPECIFIED.);
#95=B_SPLINE_CURVE_WITH_KNOTS('',3,(#1553,#1554,#1555,#1556,#1557),
 .UNSPECIFIED.,.F.,.F.,(4,1,4),(0.,0.000814149693648642,0.00162829938729728),
 .UNSPECIFIED.);
#96=B_SPLINE_CURVE_WITH_KNOTS('',3,(#1559,#1560,#1561,#1562,#1563),
 .UNSPECIFIED.,.F.,.F.,(4,1,4),(0.,0.000814149693648656,0.00162829938729731),
 .UNSPECIFIED.);
#97=TOROIDAL_SURFACE('',#917,13.75,3.4216630977873);
#98=TOROIDAL_SURFACE('',#928,13.75,3.4216630977873);
#99=TOROIDAL_SURFACE('',#997,25.2920442036622,1.);
#100=TOROIDAL_SURFACE('',#998,25.2920442036622,1.);
#101=TOROIDAL_SURFACE('',#999,40.,1.);
#102=TOROIDAL_SURFACE('',#1002,40.,1.);
#103=TOROIDAL_SURFACE('',#1003,40.,1.);
#104=TOROIDAL_SURFACE('',#1006,40.,1.);
#105=TOROIDAL_SURFACE('',#1007,40.,1.);
#106=TOROIDAL_SURFACE('',#1010,40.,1.);
#107=CYLINDRICAL_SURFACE('',#915,15.8333333333333);
#108=CYLINDRICAL_SURFACE('',#919,15.8333333333333);
#109=CYLINDRICAL_SURFACE('',#920,2.5);
#110=CYLINDRICAL_SURFACE('',#924,11.6666666666667);
#111=CYLINDRICAL_SURFACE('',#930,11.6666666666667);
#112=CYLINDRICAL_SURFACE('',#935,7.5);
#113=CYLINDRICAL_SURFACE('',#937,2.5);
#114=CYLINDRICAL_SURFACE('',#943,2.5);
#115=CYLINDRICAL_SURFACE('',#955,41.);
#116=CYLINDRICAL_SURFACE('',#958,41.);
#117=CYLINDRICAL_SURFACE('',#969,41.);
#118=CYLINDRICAL_SURFACE('',#994,3.55);
#119=CYLINDRICAL_SURFACE('',#995,3.55);
#120=CYLINDRICAL_SURFACE('',#996,3.55);
#121=CYLINDRICAL_SURFACE('',#1000,1.);
#122=CYLINDRICAL_SURFACE('',#1001,1.);
#123=CYLINDRICAL_SURFACE('',#1004,1.);
#124=CYLINDRICAL_SURFACE('',#1005,1.);
#125=CYLINDRICAL_SURFACE('',#1008,1.);
#126=CYLINDRICAL_SURFACE('',#1009,1.);
#127=ORIENTED_EDGE('',*,*,#291,.F.);
#128=ORIENTED_EDGE('',*,*,#292,.T.);
#129=ORIENTED_EDGE('',*,*,#293,.F.);
#130=ORIENTED_EDGE('',*,*,#291,.T.);
#131=ORIENTED_EDGE('',*,*,#294,.F.);
#132=ORIENTED_EDGE('',*,*,#293,.T.);
#133=ORIENTED_EDGE('',*,*,#295,.F.);
#134=ORIENTED_EDGE('',*,*,#294,.T.);
#135=ORIENTED_EDGE('',*,*,#296,.F.);
#136=ORIENTED_EDGE('',*,*,#295,.T.);
#137=ORIENTED_EDGE('',*,*,#292,.F.);
#138=ORIENTED_EDGE('',*,*,#296,.T.);
#139=ORIENTED_EDGE('',*,*,#297,.T.);
#140=ORIENTED_EDGE('',*,*,#298,.T.);
#141=ORIENTED_EDGE('',*,*,#299,.T.);
#142=ORIENTED_EDGE('',*,*,#300,.T.);
#143=ORIENTED_EDGE('',*,*,#301,.F.);
#144=ORIENTED_EDGE('',*,*,#302,.F.);
#145=ORIENTED_EDGE('',*,*,#303,.T.);
#146=ORIENTED_EDGE('',*,*,#297,.F.);
#147=ORIENTED_EDGE('',*,*,#304,.T.);
#148=ORIENTED_EDGE('',*,*,#305,.T.);
#149=ORIENTED_EDGE('',*,*,#306,.T.);
#150=ORIENTED_EDGE('',*,*,#305,.F.);
#151=ORIENTED_EDGE('',*,*,#307,.T.);
#152=ORIENTED_EDGE('',*,*,#306,.F.);
#153=ORIENTED_EDGE('',*,*,#308,.T.);
#154=ORIENTED_EDGE('',*,*,#309,.T.);
#155=ORIENTED_EDGE('',*,*,#310,.T.);
#156=ORIENTED_EDGE('',*,*,#299,.F.);
#157=ORIENTED_EDGE('',*,*,#311,.F.);
#158=ORIENTED_EDGE('',*,*,#301,.T.);
#159=ORIENTED_EDGE('',*,*,#302,.T.);
#160=ORIENTED_EDGE('',*,*,#312,.T.);
#161=ORIENTED_EDGE('',*,*,#311,.T.);
#162=ORIENTED_EDGE('',*,*,#310,.F.);
#163=ORIENTED_EDGE('',*,*,#308,.F.);
#164=ORIENTED_EDGE('',*,*,#309,.F.);
#165=ORIENTED_EDGE('',*,*,#307,.F.);
#166=ORIENTED_EDGE('',*,*,#298,.F.);
#167=ORIENTED_EDGE('',*,*,#303,.F.);
#168=ORIENTED_EDGE('',*,*,#312,.F.);
#169=ORIENTED_EDGE('',*,*,#304,.F.);
#170=ORIENTED_EDGE('',*,*,#300,.F.);
#171=ORIENTED_EDGE('',*,*,#313,.T.);
#172=ORIENTED_EDGE('',*,*,#314,.T.);
#173=ORIENTED_EDGE('',*,*,#315,.T.);
#174=ORIENTED_EDGE('',*,*,#316,.T.);
#175=ORIENTED_EDGE('',*,*,#313,.F.);
#176=ORIENTED_EDGE('',*,*,#316,.F.);
#177=ORIENTED_EDGE('',*,*,#315,.F.);
#178=ORIENTED_EDGE('',*,*,#314,.F.);
#179=ORIENTED_EDGE('',*,*,#317,.F.);
#180=ORIENTED_EDGE('',*,*,#318,.T.);
#181=ORIENTED_EDGE('',*,*,#319,.T.);
#182=ORIENTED_EDGE('',*,*,#320,.T.);
#183=ORIENTED_EDGE('',*,*,#321,.F.);
#184=ORIENTED_EDGE('',*,*,#322,.T.);
#185=ORIENTED_EDGE('',*,*,#323,.T.);
#186=ORIENTED_EDGE('',*,*,#324,.T.);
#187=ORIENTED_EDGE('',*,*,#325,.T.);
#188=ORIENTED_EDGE('',*,*,#326,.T.);
#189=ORIENTED_EDGE('',*,*,#327,.T.);
#190=ORIENTED_EDGE('',*,*,#328,.T.);
#191=ORIENTED_EDGE('',*,*,#329,.T.);
#192=ORIENTED_EDGE('',*,*,#330,.T.);
#193=ORIENTED_EDGE('',*,*,#331,.T.);
#194=ORIENTED_EDGE('',*,*,#332,.T.);
#195=ORIENTED_EDGE('',*,*,#333,.T.);
#196=ORIENTED_EDGE('',*,*,#334,.T.);
#197=ORIENTED_EDGE('',*,*,#335,.F.);
#198=ORIENTED_EDGE('',*,*,#336,.T.);
#199=ORIENTED_EDGE('',*,*,#337,.F.);
#200=ORIENTED_EDGE('',*,*,#338,.T.);
#201=ORIENTED_EDGE('',*,*,#339,.T.);
#202=ORIENTED_EDGE('',*,*,#340,.F.);
#203=ORIENTED_EDGE('',*,*,#341,.T.);
#204=ORIENTED_EDGE('',*,*,#339,.F.);
#205=ORIENTED_EDGE('',*,*,#342,.T.);
#206=ORIENTED_EDGE('',*,*,#343,.T.);
#207=ORIENTED_EDGE('',*,*,#344,.T.);
#208=ORIENTED_EDGE('',*,*,#345,.T.);
#209=ORIENTED_EDGE('',*,*,#346,.T.);
#210=ORIENTED_EDGE('',*,*,#347,.T.);
#211=ORIENTED_EDGE('',*,*,#348,.T.);
#212=ORIENTED_EDGE('',*,*,#349,.T.);
#213=ORIENTED_EDGE('',*,*,#350,.T.);
#214=ORIENTED_EDGE('',*,*,#351,.T.);
#215=ORIENTED_EDGE('',*,*,#352,.T.);
#216=ORIENTED_EDGE('',*,*,#353,.T.);
#217=ORIENTED_EDGE('',*,*,#354,.T.);
#218=ORIENTED_EDGE('',*,*,#353,.F.);
#219=ORIENTED_EDGE('',*,*,#340,.T.);
#220=ORIENTED_EDGE('',*,*,#354,.F.);
#221=ORIENTED_EDGE('',*,*,#337,.T.);
#222=ORIENTED_EDGE('',*,*,#355,.T.);
#223=ORIENTED_EDGE('',*,*,#317,.T.);
#224=ORIENTED_EDGE('',*,*,#356,.T.);
#225=ORIENTED_EDGE('',*,*,#323,.F.);
#226=ORIENTED_EDGE('',*,*,#357,.T.);
#227=ORIENTED_EDGE('',*,*,#335,.T.);
#228=ORIENTED_EDGE('',*,*,#358,.T.);
#229=ORIENTED_EDGE('',*,*,#319,.F.);
#230=ORIENTED_EDGE('',*,*,#359,.T.);
#231=ORIENTED_EDGE('',*,*,#321,.T.);
#232=ORIENTED_EDGE('',*,*,#360,.T.);
#233=ORIENTED_EDGE('',*,*,#351,.F.);
#234=ORIENTED_EDGE('',*,*,#334,.F.);
#235=ORIENTED_EDGE('',*,*,#350,.F.);
#236=ORIENTED_EDGE('',*,*,#333,.F.);
#237=ORIENTED_EDGE('',*,*,#349,.F.);
#238=ORIENTED_EDGE('',*,*,#332,.F.);
#239=ORIENTED_EDGE('',*,*,#348,.F.);
#240=ORIENTED_EDGE('',*,*,#341,.F.);
#241=ORIENTED_EDGE('',*,*,#352,.F.);
#242=ORIENTED_EDGE('',*,*,#331,.F.);
#243=ORIENTED_EDGE('',*,*,#361,.F.);
#244=ORIENTED_EDGE('',*,*,#320,.F.);
#245=ORIENTED_EDGE('',*,*,#362,.F.);
#246=ORIENTED_EDGE('',*,*,#329,.F.);
#247=ORIENTED_EDGE('',*,*,#362,.T.);
#248=ORIENTED_EDGE('',*,*,#360,.F.);
#249=ORIENTED_EDGE('',*,*,#363,.F.);
#250=ORIENTED_EDGE('',*,*,#330,.F.);
#251=ORIENTED_EDGE('',*,*,#361,.T.);
#252=ORIENTED_EDGE('',*,*,#328,.F.);
#253=ORIENTED_EDGE('',*,*,#364,.F.);
#254=ORIENTED_EDGE('',*,*,#356,.F.);
#255=ORIENTED_EDGE('',*,*,#363,.T.);
#256=ORIENTED_EDGE('',*,*,#324,.F.);
#257=ORIENTED_EDGE('',*,*,#365,.F.);
#258=ORIENTED_EDGE('',*,*,#325,.F.);
#259=ORIENTED_EDGE('',*,*,#364,.T.);
#260=ORIENTED_EDGE('',*,*,#327,.F.);
#261=ORIENTED_EDGE('',*,*,#366,.F.);
#262=ORIENTED_EDGE('',*,*,#338,.F.);
#263=ORIENTED_EDGE('',*,*,#365,.T.);
#264=ORIENTED_EDGE('',*,*,#358,.F.);
#265=ORIENTED_EDGE('',*,*,#366,.T.);
#266=ORIENTED_EDGE('',*,*,#326,.F.);
#267=ORIENTED_EDGE('',*,*,#367,.F.);
#268=ORIENTED_EDGE('',*,*,#359,.F.);
#269=ORIENTED_EDGE('',*,*,#368,.F.);
#270=ORIENTED_EDGE('',*,*,#346,.F.);
#271=ORIENTED_EDGE('',*,*,#368,.T.);
#272=ORIENTED_EDGE('',*,*,#318,.F.);
#273=ORIENTED_EDGE('',*,*,#369,.F.);
#274=ORIENTED_EDGE('',*,*,#347,.F.);
#275=ORIENTED_EDGE('',*,*,#367,.T.);
#276=ORIENTED_EDGE('',*,*,#345,.F.);
#277=ORIENTED_EDGE('',*,*,#370,.F.);
#278=ORIENTED_EDGE('',*,*,#322,.F.);
#279=ORIENTED_EDGE('',*,*,#369,.T.);
#280=ORIENTED_EDGE('',*,*,#355,.F.);
#281=ORIENTED_EDGE('',*,*,#371,.F.);
#282=ORIENTED_EDGE('',*,*,#342,.F.);
#283=ORIENTED_EDGE('',*,*,#370,.T.);
#284=ORIENTED_EDGE('',*,*,#344,.F.);
#285=ORIENTED_EDGE('',*,*,#372,.F.);
#286=ORIENTED_EDGE('',*,*,#357,.F.);
#287=ORIENTED_EDGE('',*,*,#371,.T.);
#288=ORIENTED_EDGE('',*,*,#336,.F.);
#289=ORIENTED_EDGE('',*,*,#372,.T.);
#290=ORIENTED_EDGE('',*,*,#343,.F.);
#291=EDGE_CURVE('',#537,#537,#373,.T.);
#292=EDGE_CURVE('',#538,#538,#374,.T.);
#293=EDGE_CURVE('',#539,#539,#375,.T.);
#294=EDGE_CURVE('',#540,#540,#376,.T.);
#295=EDGE_CURVE('',#541,#541,#377,.T.);
#296=EDGE_CURVE('',#542,#542,#378,.T.);
#297=EDGE_CURVE('',#543,#544,#79,.T.);
#298=EDGE_CURVE('',#544,#543,#80,.T.);
#299=EDGE_CURVE('',#545,#545,#81,.T.);
#300=EDGE_CURVE('',#546,#546,#379,.T.);
#301=EDGE_CURVE('',#547,#547,#380,.T.);
#302=EDGE_CURVE('',#548,#549,#82,.T.);
#303=EDGE_CURVE('',#548,#544,#381,.F.);
#304=EDGE_CURVE('',#543,#549,#382,.F.);
#305=EDGE_CURVE('',#550,#550,#383,.T.);
#306=EDGE_CURVE('',#551,#551,#384,.T.);
#307=EDGE_CURVE('',#552,#552,#385,.F.);
#308=EDGE_CURVE('',#553,#553,#386,.F.);
#309=EDGE_CURVE('',#554,#554,#387,.T.);
#310=EDGE_CURVE('',#555,#555,#388,.T.);
#311=EDGE_CURVE('',#556,#556,#83,.T.);
#312=EDGE_CURVE('',#549,#548,#84,.T.);
#313=EDGE_CURVE('',#558,#558,#389,.F.);
#314=EDGE_CURVE('',#559,#559,#390,.T.);
#315=EDGE_CURVE('',#560,#560,#391,.F.);
#316=EDGE_CURVE('',#561,#561,#392,.T.);
#317=EDGE_CURVE('',#562,#563,#18,.F.);
#318=EDGE_CURVE('',#562,#564,#393,.F.);
#319=EDGE_CURVE('',#564,#565,#19,.T.);
#320=EDGE_CURVE('',#565,#563,#394,.F.);
#321=EDGE_CURVE('',#566,#567,#20,.T.);
#322=EDGE_CURVE('',#566,#568,#395,.F.);
#323=EDGE_CURVE('',#568,#569,#21,.T.);
#324=EDGE_CURVE('',#569,#567,#396,.F.);
#325=EDGE_CURVE('',#570,#571,#397,.T.);
#326=EDGE_CURVE('',#571,#572,#22,.T.);
#327=EDGE_CURVE('',#572,#573,#398,.T.);
#328=EDGE_CURVE('',#573,#574,#23,.T.);
#329=EDGE_CURVE('',#574,#575,#399,.T.);
#330=EDGE_CURVE('',#575,#570,#24,.T.);
#331=EDGE_CURVE('',#576,#576,#400,.F.);
#332=EDGE_CURVE('',#577,#577,#401,.F.);
#333=EDGE_CURVE('',#578,#578,#402,.F.);
#334=EDGE_CURVE('',#579,#579,#403,.F.);
#335=EDGE_CURVE('',#580,#581,#25,.T.);
#336=EDGE_CURVE('',#580,#582,#404,.F.);
#337=EDGE_CURVE('',#583,#582,#26,.T.);
#338=EDGE_CURVE('',#583,#581,#405,.F.);
#339=EDGE_CURVE('',#584,#584,#406,.T.);
#340=EDGE_CURVE('',#585,#585,#407,.T.);
#341=EDGE_CURVE('',#586,#586,#408,.F.);
#342=EDGE_CURVE('',#587,#588,#27,.F.);
#343=EDGE_CURVE('',#588,#589,#409,.T.);
#344=EDGE_CURVE('',#589,#590,#28,.F.);
#345=EDGE_CURVE('',#590,#591,#410,.T.);
#346=EDGE_CURVE('',#591,#592,#29,.F.);
#347=EDGE_CURVE('',#592,#587,#411,.T.);
#348=EDGE_CURVE('',#593,#593,#412,.F.);
#349=EDGE_CURVE('',#594,#594,#413,.T.);
#350=EDGE_CURVE('',#595,#595,#414,.T.);
#351=EDGE_CURVE('',#596,#596,#415,.T.);
#352=EDGE_CURVE('',#597,#597,#416,.F.);
#353=EDGE_CURVE('',#598,#598,#417,.T.);
#354=EDGE_CURVE('',#599,#599,#418,.T.);
#355=EDGE_CURVE('',#582,#562,#30,.T.);
#356=EDGE_CURVE('',#563,#583,#31,.F.);
#357=EDGE_CURVE('',#568,#580,#32,.T.);
#358=EDGE_CURVE('',#581,#569,#33,.F.);
#359=EDGE_CURVE('',#564,#566,#34,.T.);
#360=EDGE_CURVE('',#567,#565,#35,.F.);
#361=EDGE_CURVE('',#563,#574,#85,.T.);
#362=EDGE_CURVE('',#575,#565,#86,.F.);
#363=EDGE_CURVE('',#570,#567,#87,.F.);
#364=EDGE_CURVE('',#583,#573,#88,.T.);
#365=EDGE_CURVE('',#571,#569,#89,.F.);
#366=EDGE_CURVE('',#581,#572,#90,.T.);
#367=EDGE_CURVE('',#566,#591,#91,.T.);
#368=EDGE_CURVE('',#592,#564,#92,.F.);
#369=EDGE_CURVE('',#587,#562,#93,.F.);
#370=EDGE_CURVE('',#568,#590,#94,.T.);
#371=EDGE_CURVE('',#588,#582,#95,.F.);
#372=EDGE_CURVE('',#580,#589,#96,.T.);
#373=CIRCLE('',#909,19.0787840283389);
#374=CIRCLE('',#910,15.8333333333333);
#375=CIRCLE('',#912,19.0787840283389);
#376=CIRCLE('',#914,15.8333333333333);
#377=CIRCLE('',#916,15.8333333333333);
#378=CIRCLE('',#918,15.8333333333333);
#379=CIRCLE('',#922,10.6666666666667);
#380=CIRCLE('',#923,7.5);
#381=CIRCLE('',#925,11.6666666666667);
#382=CIRCLE('',#926,11.6666666666667);
#383=CIRCLE('',#927,11.6666666666667);
#384=CIRCLE('',#929,11.6666666666667);
#385=CIRCLE('',#931,11.6666666666667);
#386=CIRCLE('',#933,8.5);
#387=CIRCLE('',#934,10.6666666666667);
#388=CIRCLE('',#936,7.5);
#389=CIRCLE('',#944,2.5);
#390=CIRCLE('',#945,2.5);
#391=CIRCLE('',#947,1.5);
#392=CIRCLE('',#949,1.5);
#393=CIRCLE('',#956,41.);
#394=CIRCLE('',#957,41.);
#395=CIRCLE('',#959,41.);
#396=CIRCLE('',#960,41.);
#397=CIRCLE('',#962,40.);
#398=CIRCLE('',#963,40.);
#399=CIRCLE('',#964,40.);
#400=CIRCLE('',#965,25.2920442036622);
#401=CIRCLE('',#966,3.55);
#402=CIRCLE('',#967,3.55);
#403=CIRCLE('',#968,3.55);
#404=CIRCLE('',#970,41.);
#405=CIRCLE('',#971,41.);
#406=CIRCLE('',#973,23.3238075793812);
#407=CIRCLE('',#974,18.5404962177392);
#408=CIRCLE('',#976,24.3001993329303);
#409=CIRCLE('',#978,40.);
#410=CIRCLE('',#979,40.);
#411=CIRCLE('',#980,40.);
#412=CIRCLE('',#981,25.2920442036622);
#413=CIRCLE('',#982,3.55);
#414=CIRCLE('',#983,3.55);
#415=CIRCLE('',#984,3.55);
#416=CIRCLE('',#986,24.3001993329303);
#417=CIRCLE('',#987,23.3238075793812);
#418=CIRCLE('',#989,18.5404962177392);
#419=EDGE_LOOP('',(#127));
#420=EDGE_LOOP('',(#128));
#421=EDGE_LOOP('',(#129));
#422=EDGE_LOOP('',(#130));
#423=EDGE_LOOP('',(#131));
#424=EDGE_LOOP('',(#132));
#425=EDGE_LOOP('',(#133));
#426=EDGE_LOOP('',(#134));
#427=EDGE_LOOP('',(#135));
#428=EDGE_LOOP('',(#136));
#429=EDGE_LOOP('',(#137));
#430=EDGE_LOOP('',(#138));
#431=EDGE_LOOP('',(#139,#140));
#432=EDGE_LOOP('',(#141));
#433=EDGE_LOOP('',(#142));
#434=EDGE_LOOP('',(#143));
#435=EDGE_LOOP('',(#144,#145,#146,#147));
#436=EDGE_LOOP('',(#148));
#437=EDGE_LOOP('',(#149));
#438=EDGE_LOOP('',(#150));
#439=EDGE_LOOP('',(#151));
#440=EDGE_LOOP('',(#152));
#441=EDGE_LOOP('',(#153));
#442=EDGE_LOOP('',(#154));
#443=EDGE_LOOP('',(#155));
#444=EDGE_LOOP('',(#156));
#445=EDGE_LOOP('',(#157));
#446=EDGE_LOOP('',(#158));
#447=EDGE_LOOP('',(#159,#160));
#448=EDGE_LOOP('',(#161));
#449=EDGE_LOOP('',(#162));
#450=EDGE_LOOP('',(#163));
#451=EDGE_LOOP('',(#164));
#452=EDGE_LOOP('',(#165));
#453=EDGE_LOOP('',(#166,#167,#168,#169));
#454=EDGE_LOOP('',(#170));
#455=EDGE_LOOP('',(#171));
#456=EDGE_LOOP('',(#172));
#457=EDGE_LOOP('',(#173));
#458=EDGE_LOOP('',(#174));
#459=EDGE_LOOP('',(#175));
#460=EDGE_LOOP('',(#176));
#461=EDGE_LOOP('',(#177));
#462=EDGE_LOOP('',(#178));
#463=EDGE_LOOP('',(#179,#180,#181,#182));
#464=EDGE_LOOP('',(#183,#184,#185,#186));
#465=EDGE_LOOP('',(#187,#188,#189,#190,#191,#192));
#466=EDGE_LOOP('',(#193));
#467=EDGE_LOOP('',(#194));
#468=EDGE_LOOP('',(#195));
#469=EDGE_LOOP('',(#196));
#470=EDGE_LOOP('',(#197,#198,#199,#200));
#471=EDGE_LOOP('',(#201));
#472=EDGE_LOOP('',(#202));
#473=EDGE_LOOP('',(#203));
#474=EDGE_LOOP('',(#204));
#475=EDGE_LOOP('',(#205,#206,#207,#208,#209,#210));
#476=EDGE_LOOP('',(#211));
#477=EDGE_LOOP('',(#212));
#478=EDGE_LOOP('',(#213));
#479=EDGE_LOOP('',(#214));
#480=EDGE_LOOP('',(#215));
#481=EDGE_LOOP('',(#216));
#482=EDGE_LOOP('',(#217));
#483=EDGE_LOOP('',(#218));
#484=EDGE_LOOP('',(#219));
#485=EDGE_LOOP('',(#220));
#486=EDGE_LOOP('',(#221,#222,#223,#224));
#487=EDGE_LOOP('',(#225,#226,#227,#228));
#488=EDGE_LOOP('',(#229,#230,#231,#232));
#489=EDGE_LOOP('',(#233));
#490=EDGE_LOOP('',(#234));
#491=EDGE_LOOP('',(#235));
#492=EDGE_LOOP('',(#236));
#493=EDGE_LOOP('',(#237));
#494=EDGE_LOOP('',(#238));
#495=EDGE_LOOP('',(#239));
#496=EDGE_LOOP('',(#240));
#497=EDGE_LOOP('',(#241));
#498=EDGE_LOOP('',(#242));
#499=EDGE_LOOP('',(#243,#244,#245,#246));
#500=EDGE_LOOP('',(#247,#248,#249,#250));
#501=EDGE_LOOP('',(#251,#252,#253,#254));
#502=EDGE_LOOP('',(#255,#256,#257,#258));
#503=EDGE_LOOP('',(#259,#260,#261,#262));
#504=EDGE_LOOP('',(#263,#264,#265,#266));
#505=EDGE_LOOP('',(#267,#268,#269,#270));
#506=EDGE_LOOP('',(#271,#272,#273,#274));
#507=EDGE_LOOP('',(#275,#276,#277,#278));
#508=EDGE_LOOP('',(#279,#280,#281,#282));
#509=EDGE_LOOP('',(#283,#284,#285,#286));
#510=EDGE_LOOP('',(#287,#288,#289,#290));
#511=PLANE('',#908);
#512=PLANE('',#913);
#513=PLANE('',#921);
#514=PLANE('',#932);
#515=PLANE('',#946);
#516=PLANE('',#948);
#517=PLANE('',#961);
#518=PLANE('',#972);
#519=PLANE('',#977);
#520=PLANE('',#988);
#521=PLANE('',#991);
#522=PLANE('',#992);
#523=PLANE('',#993);
#524=SHAPE_REPRESENTATION_RELATIONSHIP('','',#895,#527);
#525=SHAPE_REPRESENTATION_RELATIONSHIP('','',#897,#528);
#526=SHAPE_REPRESENTATION_RELATIONSHIP('','',#899,#529);
#527=ADVANCED_BREP_SHAPE_REPRESENTATION('',(#878,#879,#880,#881,#882,#883,
#884,#885,#886,#887),#1569);
#528=ADVANCED_BREP_SHAPE_REPRESENTATION('',(#888),#1570);
#529=ADVANCED_BREP_SHAPE_REPRESENTATION('',(#889),#1571);
#530=VERTEX_POINT('',#1256);
#531=VERTEX_POINT('',#1258);
#532=VERTEX_POINT('',#1260);
#533=VERTEX_POINT('',#1262);
#534=VERTEX_POINT('',#1264);
#535=VERTEX_POINT('',#1266);
#536=VERTEX_POINT('',#1268);
#537=VERTEX_POINT('',#1271);
#538=VERTEX_POINT('',#1273);
#539=VERTEX_POINT('',#1276);
#540=VERTEX_POINT('',#1279);
#541=VERTEX_POINT('',#1282);
#542=VERTEX_POINT('',#1285);
#543=VERTEX_POINT('',#1299);
#544=VERTEX_POINT('',#1300);
#545=VERTEX_POINT('',#1316);
#546=VERTEX_POINT('',#1319);
#547=VERTEX_POINT('',#1321);
#548=VERTEX_POINT('',#1334);
#549=VERTEX_POINT('',#1335);
#550=VERTEX_POINT('',#1339);
#551=VERTEX_POINT('',#1342);
#552=VERTEX_POINT('',#1345);
#553=VERTEX_POINT('',#1348);
#554=VERTEX_POINT('',#1350);
#555=VERTEX_POINT('',#1353);
#556=VERTEX_POINT('',#1365);
#557=VERTEX_POINT('',#1375);
#558=VERTEX_POINT('',#1379);
#559=VERTEX_POINT('',#1381);
#560=VERTEX_POINT('',#1384);
#561=VERTEX_POINT('',#1387);
#562=VERTEX_POINT('',#1395);
#563=VERTEX_POINT('',#1396);
#564=VERTEX_POINT('',#1398);
#565=VERTEX_POINT('',#1400);
#566=VERTEX_POINT('',#1404);
#567=VERTEX_POINT('',#1405);
#568=VERTEX_POINT('',#1407);
#569=VERTEX_POINT('',#1409);
#570=VERTEX_POINT('',#1413);
#571=VERTEX_POINT('',#1414);
#572=VERTEX_POINT('',#1416);
#573=VERTEX_POINT('',#1418);
#574=VERTEX_POINT('',#1420);
#575=VERTEX_POINT('',#1422);
#576=VERTEX_POINT('',#1425);
#577=VERTEX_POINT('',#1427);
#578=VERTEX_POINT('',#1429);
#579=VERTEX_POINT('',#1431);
#580=VERTEX_POINT('',#1434);
#581=VERTEX_POINT('',#1435);
#582=VERTEX_POINT('',#1437);
#583=VERTEX_POINT('',#1439);
#584=VERTEX_POINT('',#1443);
#585=VERTEX_POINT('',#1445);
#586=VERTEX_POINT('',#1448);
#587=VERTEX_POINT('',#1451);
#588=VERTEX_POINT('',#1452);
#589=VERTEX_POINT('',#1454);
#590=VERTEX_POINT('',#1456);
#591=VERTEX_POINT('',#1458);
#592=VERTEX_POINT('',#1460);
#593=VERTEX_POINT('',#1463);
#594=VERTEX_POINT('',#1465);
#595=VERTEX_POINT('',#1467);
#596=VERTEX_POINT('',#1469);
#597=VERTEX_POINT('',#1472);
#598=VERTEX_POINT('',#1474);
#599=VERTEX_POINT('',#1477);
#600=VERTEX_LOOP('',#530);
#601=VERTEX_LOOP('',#531);
#602=VERTEX_LOOP('',#532);
#603=VERTEX_LOOP('',#533);
#604=VERTEX_LOOP('',#534);
#605=VERTEX_LOOP('',#535);
#606=VERTEX_LOOP('',#536);
#607=VERTEX_LOOP('',#557);
#608=FACE_BOUND('',#600,.T.);
#609=FACE_BOUND('',#601,.T.);
#610=FACE_BOUND('',#602,.T.);
#611=FACE_BOUND('',#603,.T.);
#612=FACE_BOUND('',#604,.T.);
#613=FACE_BOUND('',#605,.T.);
#614=FACE_BOUND('',#606,.T.);
#615=FACE_BOUND('',#419,.T.);
#616=FACE_BOUND('',#420,.T.);
#617=FACE_BOUND('',#421,.T.);
#618=FACE_BOUND('',#422,.T.);
#619=FACE_BOUND('',#423,.T.);
#620=FACE_BOUND('',#424,.T.);
#621=FACE_BOUND('',#425,.T.);
#622=FACE_BOUND('',#426,.T.);
#623=FACE_BOUND('',#427,.T.);
#624=FACE_BOUND('',#428,.T.);
#625=FACE_BOUND('',#429,.T.);
#626=FACE_BOUND('',#430,.T.);
#627=FACE_BOUND('',#431,.T.);
#628=FACE_BOUND('',#432,.T.);
#629=FACE_BOUND('',#433,.T.);
#630=FACE_BOUND('',#434,.T.);
#631=FACE_BOUND('',#435,.T.);
#632=FACE_BOUND('',#436,.T.);
#633=FACE_BOUND('',#437,.T.);
#634=FACE_BOUND('',#438,.T.);
#635=FACE_BOUND('',#439,.T.);
#636=FACE_BOUND('',#440,.T.);
#637=FACE_BOUND('',#441,.T.);
#638=FACE_BOUND('',#442,.T.);
#639=FACE_BOUND('',#443,.T.);
#640=FACE_BOUND('',#444,.T.);
#641=FACE_BOUND('',#445,.T.);
#642=FACE_BOUND('',#446,.T.);
#643=FACE_BOUND('',#447,.T.);
#644=FACE_BOUND('',#448,.T.);
#645=FACE_BOUND('',#449,.T.);
#646=FACE_BOUND('',#450,.T.);
#647=FACE_BOUND('',#451,.T.);
#648=FACE_BOUND('',#452,.T.);
#649=FACE_BOUND('',#453,.T.);
#650=FACE_BOUND('',#454,.T.);
#651=FACE_BOUND('',#607,.T.);
#652=FACE_BOUND('',#455,.T.);
#653=FACE_BOUND('',#456,.T.);
#654=FACE_BOUND('',#457,.T.);
#655=FACE_BOUND('',#458,.T.);
#656=FACE_BOUND('',#459,.T.);
#657=FACE_BOUND('',#460,.T.);
#658=FACE_BOUND('',#461,.T.);
#659=FACE_BOUND('',#462,.T.);
#660=FACE_BOUND('',#463,.T.);
#661=FACE_BOUND('',#464,.T.);
#662=FACE_BOUND('',#465,.T.);
#663=FACE_BOUND('',#466,.T.);
#664=FACE_BOUND('',#467,.T.);
#665=FACE_BOUND('',#468,.T.);
#666=FACE_BOUND('',#469,.T.);
#667=FACE_BOUND('',#470,.T.);
#668=FACE_BOUND('',#471,.T.);
#669=FACE_BOUND('',#472,.T.);
#670=FACE_BOUND('',#473,.T.);
#671=FACE_BOUND('',#474,.T.);
#672=FACE_BOUND('',#475,.T.);
#673=FACE_BOUND('',#476,.T.);
#674=FACE_BOUND('',#477,.T.);
#675=FACE_BOUND('',#478,.T.);
#676=FACE_BOUND('',#479,.T.);
#677=FACE_BOUND('',#480,.T.);
#678=FACE_BOUND('',#481,.T.);
#679=FACE_BOUND('',#482,.T.);
#680=FACE_BOUND('',#483,.T.);
#681=FACE_BOUND('',#484,.T.);
#682=FACE_BOUND('',#485,.T.);
#683=FACE_BOUND('',#486,.T.);
#684=FACE_BOUND('',#487,.T.);
#685=FACE_BOUND('',#488,.T.);
#686=FACE_BOUND('',#489,.T.);
#687=FACE_BOUND('',#490,.T.);
#688=FACE_BOUND('',#491,.T.);
#689=FACE_BOUND('',#492,.T.);
#690=FACE_BOUND('',#493,.T.);
#691=FACE_BOUND('',#494,.T.);
#692=FACE_BOUND('',#495,.T.);
#693=FACE_BOUND('',#496,.T.);
#694=FACE_BOUND('',#497,.T.);
#695=FACE_BOUND('',#498,.T.);
#696=FACE_BOUND('',#499,.T.);
#697=FACE_BOUND('',#500,.T.);
#698=FACE_BOUND('',#501,.T.);
#699=FACE_BOUND('',#502,.T.);
#700=FACE_BOUND('',#503,.T.);
#701=FACE_BOUND('',#504,.T.);
#702=FACE_BOUND('',#505,.T.);
#703=FACE_BOUND('',#506,.T.);
#704=FACE_BOUND('',#507,.T.);
#705=FACE_BOUND('',#508,.T.);
#706=FACE_BOUND('',#509,.T.);
#707=FACE_BOUND('',#510,.T.);
#708=SPHERICAL_SURFACE('',#901,3.3216630977873);
#709=SPHERICAL_SURFACE('',#902,3.3216630977873);
#710=SPHERICAL_SURFACE('',#903,3.3216630977873);
#711=SPHERICAL_SURFACE('',#904,3.3216630977873);
#712=SPHERICAL_SURFACE('',#905,3.3216630977873);
#713=SPHERICAL_SURFACE('',#906,3.3216630977873);
#714=SPHERICAL_SURFACE('',#907,3.3216630977873);
#715=SPHERICAL_SURFACE('',#911,20.);
#716=SPHERICAL_SURFACE('',#941,3.3216630977873);
#717=SPHERICAL_SURFACE('',#975,24.5);
#718=SPHERICAL_SURFACE('',#985,24.5);
#719=SPHERICAL_SURFACE('',#990,20.);
#720=ADVANCED_FACE('',(#608),#708,.T.);
#721=ADVANCED_FACE('',(#609),#709,.T.);
#722=ADVANCED_FACE('',(#610),#710,.T.);
#723=ADVANCED_FACE('',(#611),#711,.T.);
#724=ADVANCED_FACE('',(#612),#712,.T.);
#725=ADVANCED_FACE('',(#613),#713,.T.);
#726=ADVANCED_FACE('',(#614),#714,.T.);
#727=ADVANCED_FACE('',(#615,#616),#511,.F.);
#728=ADVANCED_FACE('',(#617,#618),#715,.T.);
#729=ADVANCED_FACE('',(#619,#620),#512,.F.);
#730=ADVANCED_FACE('',(#621,#622),#107,.F.);
#731=ADVANCED_FACE('',(#623,#624),#97,.F.);
#732=ADVANCED_FACE('',(#625,#626),#108,.F.);
#733=ADVANCED_FACE('',(#627,#628),#109,.F.);
#734=ADVANCED_FACE('',(#629,#630),#513,.T.);
#735=ADVANCED_FACE('',(#631,#632),#110,.T.);
#736=ADVANCED_FACE('',(#633,#634),#98,.F.);
#737=ADVANCED_FACE('',(#635,#636),#111,.T.);
#738=ADVANCED_FACE('',(#637,#638),#514,.T.);
#739=ADVANCED_FACE('',(#639,#640,#641,#642),#112,.F.);
#740=ADVANCED_FACE('',(#643,#644),#113,.F.);
#741=ADVANCED_FACE('',(#645,#646),#74,.F.);
#742=ADVANCED_FACE('',(#647,#648),#75,.T.);
#743=ADVANCED_FACE('',(#649,#650),#76,.T.);
#744=ADVANCED_FACE('',(#651),#716,.T.);
#745=ADVANCED_FACE('',(#652,#653),#114,.T.);
#746=ADVANCED_FACE('',(#654),#515,.F.);
#747=ADVANCED_FACE('',(#655),#516,.T.);
#748=ADVANCED_FACE('',(#656,#657),#77,.T.);
#749=ADVANCED_FACE('',(#658,#659),#78,.T.);
#750=ADVANCED_FACE('',(#660),#115,.T.);
#751=ADVANCED_FACE('',(#661),#116,.T.);
#752=ADVANCED_FACE('',(#662,#663,#664,#665,#666),#517,.T.);
#753=ADVANCED_FACE('',(#667),#117,.T.);
#754=ADVANCED_FACE('',(#668,#669),#518,.T.);
#755=ADVANCED_FACE('',(#670,#671),#717,.T.);
#756=ADVANCED_FACE('',(#672,#673,#674,#675,#676),#519,.T.);
#757=ADVANCED_FACE('',(#677,#678),#718,.T.);
#758=ADVANCED_FACE('',(#679,#680),#520,.T.);
#759=ADVANCED_FACE('',(#681,#682),#719,.F.);
#760=ADVANCED_FACE('',(#683),#521,.F.);
#761=ADVANCED_FACE('',(#684),#522,.F.);
#762=ADVANCED_FACE('',(#685),#523,.F.);
#763=ADVANCED_FACE('',(#686,#687),#118,.F.);
#764=ADVANCED_FACE('',(#688,#689),#119,.F.);
#765=ADVANCED_FACE('',(#690,#691),#120,.F.);
#766=ADVANCED_FACE('',(#692,#693),#99,.F.);
#767=ADVANCED_FACE('',(#694,#695),#100,.F.);
#768=ADVANCED_FACE('',(#696),#101,.T.);
#769=ADVANCED_FACE('',(#697),#121,.T.);
#770=ADVANCED_FACE('',(#698),#122,.T.);
#771=ADVANCED_FACE('',(#699),#102,.T.);
#772=ADVANCED_FACE('',(#700),#103,.T.);
#773=ADVANCED_FACE('',(#701),#123,.T.);
#774=ADVANCED_FACE('',(#702),#124,.T.);
#775=ADVANCED_FACE('',(#703),#104,.T.);
#776=ADVANCED_FACE('',(#704),#105,.T.);
#777=ADVANCED_FACE('',(#705),#125,.T.);
#778=ADVANCED_FACE('',(#706),#126,.T.);
#779=ADVANCED_FACE('',(#707),#106,.T.);
#780=CLOSED_SHELL('',(#720));
#781=CLOSED_SHELL('',(#721));
#782=CLOSED_SHELL('',(#722));
#783=CLOSED_SHELL('',(#723));
#784=CLOSED_SHELL('',(#724));
#785=CLOSED_SHELL('',(#725));
#786=CLOSED_SHELL('',(#726));
#787=CLOSED_SHELL('',(#727,#728,#729,#730,#731,#732));
#788=CLOSED_SHELL('',(#733,#734,#735,#736,#737,#738,#739,#740,#741,#742,
#743));
#789=CLOSED_SHELL('',(#744));
#790=CLOSED_SHELL('',(#745,#746,#747,#748,#749));
#791=CLOSED_SHELL('',(#750,#751,#752,#753,#754,#755,#756,#757,#758,#759,
#760,#761,#762,#763,#764,#765,#766,#767,#768,#769,#770,#771,#772,#773,#774,
#775,#776,#777,#778,#779));
#792=STYLED_ITEM('',(#804),#878);
#793=STYLED_ITEM('',(#805),#879);
#794=STYLED_ITEM('',(#806),#880);
#795=STYLED_ITEM('',(#807),#881);
#796=STYLED_ITEM('',(#808),#882);
#797=STYLED_ITEM('',(#809),#883);
#798=STYLED_ITEM('',(#810),#884);
#799=STYLED_ITEM('',(#811),#885);
#800=STYLED_ITEM('',(#812),#886);
#801=STYLED_ITEM('',(#813),#887);
#802=STYLED_ITEM('',(#814),#888);
#803=STYLED_ITEM('',(#815),#889);
#804=PRESENTATION_STYLE_ASSIGNMENT((#816));
#805=PRESENTATION_STYLE_ASSIGNMENT((#817));
#806=PRESENTATION_STYLE_ASSIGNMENT((#818));
#807=PRESENTATION_STYLE_ASSIGNMENT((#819));
#808=PRESENTATION_STYLE_ASSIGNMENT((#820));
#809=PRESENTATION_STYLE_ASSIGNMENT((#821));
#810=PRESENTATION_STYLE_ASSIGNMENT((#822));
#811=PRESENTATION_STYLE_ASSIGNMENT((#823));
#812=PRESENTATION_STYLE_ASSIGNMENT((#824));
#813=PRESENTATION_STYLE_ASSIGNMENT((#825));
#814=PRESENTATION_STYLE_ASSIGNMENT((#826));
#815=PRESENTATION_STYLE_ASSIGNMENT((#827));
#816=SURFACE_STYLE_USAGE(.BOTH.,#828);
#817=SURFACE_STYLE_USAGE(.BOTH.,#829);
#818=SURFACE_STYLE_USAGE(.BOTH.,#830);
#819=SURFACE_STYLE_USAGE(.BOTH.,#831);
#820=SURFACE_STYLE_USAGE(.BOTH.,#832);
#821=SURFACE_STYLE_USAGE(.BOTH.,#833);
#822=SURFACE_STYLE_USAGE(.BOTH.,#834);
#823=SURFACE_STYLE_USAGE(.BOTH.,#835);
#824=SURFACE_STYLE_USAGE(.BOTH.,#836);
#825=SURFACE_STYLE_USAGE(.BOTH.,#837);
#826=SURFACE_STYLE_USAGE(.BOTH.,#838);
#827=SURFACE_STYLE_USAGE(.BOTH.,#839);
#828=SURFACE_SIDE_STYLE('',(#840));
#829=SURFACE_SIDE_STYLE('',(#841));
#830=SURFACE_SIDE_STYLE('',(#842));
#831=SURFACE_SIDE_STYLE('',(#843));
#832=SURFACE_SIDE_STYLE('',(#844));
#833=SURFACE_SIDE_STYLE('',(#845));
#834=SURFACE_SIDE_STYLE('',(#846));
#835=SURFACE_SIDE_STYLE('',(#847));
#836=SURFACE_SIDE_STYLE('',(#848));
#837=SURFACE_SIDE_STYLE('',(#849));
#838=SURFACE_SIDE_STYLE('',(#850));
#839=SURFACE_SIDE_STYLE('',(#851));
#840=SURFACE_STYLE_FILL_AREA(#852);
#841=SURFACE_STYLE_FILL_AREA(#853);
#842=SURFACE_STYLE_FILL_AREA(#854);
#843=SURFACE_STYLE_FILL_AREA(#855);
#844=SURFACE_STYLE_FILL_AREA(#856);
#845=SURFACE_STYLE_FILL_AREA(#857);
#846=SURFACE_STYLE_FILL_AREA(#858);
#847=SURFACE_STYLE_FILL_AREA(#859);
#848=SURFACE_STYLE_FILL_AREA(#860);
#849=SURFACE_STYLE_FILL_AREA(#861);
#850=SURFACE_STYLE_FILL_AREA(#862);
#851=SURFACE_STYLE_FILL_AREA(#863);
#852=FILL_AREA_STYLE('',(#864));
#853=FILL_AREA_STYLE('',(#865));
#854=FILL_AREA_STYLE('',(#866));
#855=FILL_AREA_STYLE('',(#867));
#856=FILL_AREA_STYLE('',(#868));
#857=FILL_AREA_STYLE('',(#869));
#858=FILL_AREA_STYLE('',(#870));
#859=FILL_AREA_STYLE('',(#871));
#860=FILL_AREA_STYLE('',(#872));
#861=FILL_AREA_STYLE('',(#873));
#862=FILL_AREA_STYLE('',(#874));
#863=FILL_AREA_STYLE('',(#875));
#864=FILL_AREA_STYLE_COLOUR('',#876);
#865=FILL_AREA_STYLE_COLOUR('',#876);
#866=FILL_AREA_STYLE_COLOUR('',#876);
#867=FILL_AREA_STYLE_COLOUR('',#876);
#868=FILL_AREA_STYLE_COLOUR('',#876);
#869=FILL_AREA_STYLE_COLOUR('',#876);
#870=FILL_AREA_STYLE_COLOUR('',#876);
#871=FILL_AREA_STYLE_COLOUR('',#876);
#872=FILL_AREA_STYLE_COLOUR('',#876);
#873=FILL_AREA_STYLE_COLOUR('',#876);
#874=FILL_AREA_STYLE_COLOUR('',#876);
#875=FILL_AREA_STYLE_COLOUR('',#877);
#876=COLOUR_RGB('',0.331739127635956,0.340869575738907,0.349999994039536);
#877=COLOUR_RGB('',0.506983280181885,0.531564235687256,0.550000011920929);
#878=MANIFOLD_SOLID_BREP('',#780);
#879=MANIFOLD_SOLID_BREP('',#781);
#880=MANIFOLD_SOLID_BREP('',#782);
#881=MANIFOLD_SOLID_BREP('',#783);
#882=MANIFOLD_SOLID_BREP('',#784);
#883=MANIFOLD_SOLID_BREP('',#785);
#884=MANIFOLD_SOLID_BREP('',#786);
#885=MANIFOLD_SOLID_BREP('',#787);
#886=MANIFOLD_SOLID_BREP('',#788);
#887=MANIFOLD_SOLID_BREP('',#789);
#888=MANIFOLD_SOLID_BREP('',#790);
#889=MANIFOLD_SOLID_BREP('',#791);
#890=SHAPE_DEFINITION_REPRESENTATION(#1582,#895);
#891=SHAPE_DEFINITION_REPRESENTATION(#1581,#896);
#892=SHAPE_DEFINITION_REPRESENTATION(#1584,#897);
#893=SHAPE_DEFINITION_REPRESENTATION(#1580,#898);
#894=SHAPE_DEFINITION_REPRESENTATION(#1588,#899);
#895=SHAPE_REPRESENTATION('UC\X2\74038F74627F\X0\',(#900),#1569);
#896=SHAPE_REPRESENTATION('UB\X2\7441547453A46D63\X0\?',(#900,#942,#952,
#953),#1568);
#897=SHAPE_REPRESENTATION('\X2\98764E1D\X0\',(#900),#1570);
#898=SHAPE_REPRESENTATION(
'UBPFT\X2\752FFE40557F93585B297B0174596391823064340447300A6D936FC6E63B941E51AE6F70941E51AD917193B5\X0\?',
(#900,#954,#1011),#1567);
#899=SHAPE_REPRESENTATION('PTF\X2\51B2538B4E0989D25F625EA7\X0\',(#900),
#1571);
#900=AXIS2_PLACEMENT_3D('',#1254,#1012,#1013);
#901=AXIS2_PLACEMENT_3D('',#1255,#1014,#1015);
#902=AXIS2_PLACEMENT_3D('',#1257,#1016,#1017);
#903=AXIS2_PLACEMENT_3D('',#1259,#1018,#1019);
#904=AXIS2_PLACEMENT_3D('',#1261,#1020,#1021);
#905=AXIS2_PLACEMENT_3D('',#1263,#1022,#1023);
#906=AXIS2_PLACEMENT_3D('',#1265,#1024,#1025);
#907=AXIS2_PLACEMENT_3D('',#1267,#1026,#1027);
#908=AXIS2_PLACEMENT_3D('',#1269,#1028,#1029);
#909=AXIS2_PLACEMENT_3D('',#1270,#1030,#1031);
#910=AXIS2_PLACEMENT_3D('',#1272,#1032,#1033);
#911=AXIS2_PLACEMENT_3D('',#1274,#1034,#1035);
#912=AXIS2_PLACEMENT_3D('',#1275,#1036,#1037);
#913=AXIS2_PLACEMENT_3D('',#1277,#1038,#1039);
#914=AXIS2_PLACEMENT_3D('',#1278,#1040,#1041);
#915=AXIS2_PLACEMENT_3D('',#1280,#1042,#1043);
#916=AXIS2_PLACEMENT_3D('',#1281,#1044,#1045);
#917=AXIS2_PLACEMENT_3D('',#1283,#1046,#1047);
#918=AXIS2_PLACEMENT_3D('',#1284,#1048,#1049);
#919=AXIS2_PLACEMENT_3D('',#1286,#1050,#1051);
#920=AXIS2_PLACEMENT_3D('',#1287,#1052,#1053);
#921=AXIS2_PLACEMENT_3D('',#1317,#1054,#1055);
#922=AXIS2_PLACEMENT_3D('',#1318,#1056,#1057);
#923=AXIS2_PLACEMENT_3D('',#1320,#1058,#1059);
#924=AXIS2_PLACEMENT_3D('',#1322,#1060,#1061);
#925=AXIS2_PLACEMENT_3D('',#1336,#1062,#1063);
#926=AXIS2_PLACEMENT_3D('',#1337,#1064,#1065);
#927=AXIS2_PLACEMENT_3D('',#1338,#1066,#1067);
#928=AXIS2_PLACEMENT_3D('',#1340,#1068,#1069);
#929=AXIS2_PLACEMENT_3D('',#1341,#1070,#1071);
#930=AXIS2_PLACEMENT_3D('',#1343,#1072,#1073);
#931=AXIS2_PLACEMENT_3D('',#1344,#1074,#1075);
#932=AXIS2_PLACEMENT_3D('',#1346,#1076,#1077);
#933=AXIS2_PLACEMENT_3D('',#1347,#1078,#1079);
#934=AXIS2_PLACEMENT_3D('',#1349,#1080,#1081);
#935=AXIS2_PLACEMENT_3D('',#1351,#1082,#1083);
#936=AXIS2_PLACEMENT_3D('',#1352,#1084,#1085);
#937=AXIS2_PLACEMENT_3D('',#1366,#1086,#1087);
#938=AXIS2_PLACEMENT_3D('',#1371,#1088,#1089);
#939=AXIS2_PLACEMENT_3D('',#1372,#1090,#1091);
#940=AXIS2_PLACEMENT_3D('',#1373,#1092,#1093);
#941=AXIS2_PLACEMENT_3D('',#1374,#1094,#1095);
#942=AXIS2_PLACEMENT_3D('',#1376,#1096,#1097);
#943=AXIS2_PLACEMENT_3D('',#1377,#1098,#1099);
#944=AXIS2_PLACEMENT_3D('',#1378,#1100,#1101);
#945=AXIS2_PLACEMENT_3D('',#1380,#1102,#1103);
#946=AXIS2_PLACEMENT_3D('',#1382,#1104,#1105);
#947=AXIS2_PLACEMENT_3D('',#1383,#1106,#1107);
#948=AXIS2_PLACEMENT_3D('',#1385,#1108,#1109);
#949=AXIS2_PLACEMENT_3D('',#1386,#1110,#1111);
#950=AXIS2_PLACEMENT_3D('',#1388,#1112,#1113);
#951=AXIS2_PLACEMENT_3D('',#1389,#1114,#1115);
#952=AXIS2_PLACEMENT_3D('',#1390,#1116,#1117);
#953=AXIS2_PLACEMENT_3D('',#1391,#1118,#1119);
#954=AXIS2_PLACEMENT_3D('',#1392,#1120,#1121);
#955=AXIS2_PLACEMENT_3D('',#1393,#1122,#1123);
#956=AXIS2_PLACEMENT_3D('',#1397,#1125,#1126);
#957=AXIS2_PLACEMENT_3D('',#1401,#1128,#1129);
#958=AXIS2_PLACEMENT_3D('',#1402,#1130,#1131);
#959=AXIS2_PLACEMENT_3D('',#1406,#1133,#1134);
#960=AXIS2_PLACEMENT_3D('',#1410,#1136,#1137);
#961=AXIS2_PLACEMENT_3D('',#1411,#1138,#1139);
#962=AXIS2_PLACEMENT_3D('',#1412,#1140,#1141);
#963=AXIS2_PLACEMENT_3D('',#1417,#1143,#1144);
#964=AXIS2_PLACEMENT_3D('',#1421,#1146,#1147);
#965=AXIS2_PLACEMENT_3D('',#1424,#1149,#1150);
#966=AXIS2_PLACEMENT_3D('',#1426,#1151,#1152);
#967=AXIS2_PLACEMENT_3D('',#1428,#1153,#1154);
#968=AXIS2_PLACEMENT_3D('',#1430,#1155,#1156);
#969=AXIS2_PLACEMENT_3D('',#1432,#1157,#1158);
#970=AXIS2_PLACEMENT_3D('',#1436,#1160,#1161);
#971=AXIS2_PLACEMENT_3D('',#1440,#1163,#1164);
#972=AXIS2_PLACEMENT_3D('',#1441,#1165,#1166);
#973=AXIS2_PLACEMENT_3D('',#1442,#1167,#1168);
#974=AXIS2_PLACEMENT_3D('',#1444,#1169,#1170);
#975=AXIS2_PLACEMENT_3D('',#1446,#1171,#1172);
#976=AXIS2_PLACEMENT_3D('',#1447,#1173,#1174);
#977=AXIS2_PLACEMENT_3D('',#1449,#1175,#1176);
#978=AXIS2_PLACEMENT_3D('',#1453,#1178,#1179);
#979=AXIS2_PLACEMENT_3D('',#1457,#1181,#1182);
#980=AXIS2_PLACEMENT_3D('',#1461,#1184,#1185);
#981=AXIS2_PLACEMENT_3D('',#1462,#1186,#1187);
#982=AXIS2_PLACEMENT_3D('',#1464,#1188,#1189);
#983=AXIS2_PLACEMENT_3D('',#1466,#1190,#1191);
#984=AXIS2_PLACEMENT_3D('',#1468,#1192,#1193);
#985=AXIS2_PLACEMENT_3D('',#1470,#1194,#1195);
#986=AXIS2_PLACEMENT_3D('',#1471,#1196,#1197);
#987=AXIS2_PLACEMENT_3D('',#1473,#1198,#1199);
#988=AXIS2_PLACEMENT_3D('',#1475,#1200,#1201);
#989=AXIS2_PLACEMENT_3D('',#1476,#1202,#1203);
#990=AXIS2_PLACEMENT_3D('',#1478,#1204,#1205);
#991=AXIS2_PLACEMENT_3D('',#1479,#1206,#1207);
#992=AXIS2_PLACEMENT_3D('',#1482,#1210,#1211);
#993=AXIS2_PLACEMENT_3D('',#1485,#1214,#1215);
#994=AXIS2_PLACEMENT_3D('',#1488,#1218,#1219);
#995=AXIS2_PLACEMENT_3D('',#1489,#1220,#1221);
#996=AXIS2_PLACEMENT_3D('',#1490,#1222,#1223);
#997=AXIS2_PLACEMENT_3D('',#1491,#1224,#1225);
#998=AXIS2_PLACEMENT_3D('',#1492,#1226,#1227);
#999=AXIS2_PLACEMENT_3D('',#1493,#1228,#1229);
#1000=AXIS2_PLACEMENT_3D('',#1504,#1230,#1231);
#1001=AXIS2_PLACEMENT_3D('',#1510,#1232,#1233);
#1002=AXIS2_PLACEMENT_3D('',#1516,#1234,#1235);
#1003=AXIS2_PLACEMENT_3D('',#1522,#1236,#1237);
#1004=AXIS2_PLACEMENT_3D('',#1528,#1238,#1239);
#1005=AXIS2_PLACEMENT_3D('',#1529,#1240,#1241);
#1006=AXIS2_PLACEMENT_3D('',#1540,#1242,#1243);
#1007=AXIS2_PLACEMENT_3D('',#1546,#1244,#1245);
#1008=AXIS2_PLACEMENT_3D('',#1552,#1246,#1247);
#1009=AXIS2_PLACEMENT_3D('',#1558,#1248,#1249);
#1010=AXIS2_PLACEMENT_3D('',#1564,#1250,#1251);
#1011=AXIS2_PLACEMENT_3D('',#1565,#1252,#1253);
#1012=DIRECTION('',(0.,0.,1.));
#1013=DIRECTION('',(1.,0.,0.));
#1014=DIRECTION('',(-0.707106781186548,-1.22464679914735E-16,0.707106781186547));
#1015=DIRECTION('',(-4.32992327699526E-17,1.,1.29891978477146E-16));
#1016=DIRECTION('',(-1.,-1.22464679914735E-16,-1.60812264967664E-16));
#1017=DIRECTION('',(-1.22464679914735E-16,1.,6.12303176911188E-17));
#1018=DIRECTION('',(-0.707106781186547,-1.22464679914735E-16,-0.707106781186548));
#1019=DIRECTION('',(-1.29891978477146E-16,1.,-4.32992327699527E-17));
#1020=DIRECTION('',(-1.22464679914735E-16,-1.22464679914735E-16,-1.));
#1021=DIRECTION('',(-6.12303176911189E-17,1.,-1.22464679914735E-16));
#1022=DIRECTION('',(0.707106781186547,-1.22464679914735E-16,-0.707106781186548));
#1023=DIRECTION('',(4.32992327699526E-17,1.,-1.29891978477146E-16));
#1024=DIRECTION('',(1.,-1.22464679914735E-16,-1.83697019872103E-16));
#1025=DIRECTION('',(1.22464679914735E-16,1.,-6.12303176911189E-17));
#1026=DIRECTION('',(0.707106781186548,-1.22464679914735E-16,0.707106781186547));
#1027=DIRECTION('',(1.29891978477146E-16,1.,4.32992327699526E-17));
#1028=DIRECTION('',(-6.12303176911189E-17,-1.,0.));
#1029=DIRECTION('',(1.,-6.12303176911189E-17,0.));
#1030=DIRECTION('',(-6.12303176911189E-17,-1.,0.));
#1031=DIRECTION('',(1.,-6.12303176911189E-17,0.));
#1032=DIRECTION('',(-6.12303176911189E-17,-1.,0.));
#1033=DIRECTION('',(1.,-6.12303176911189E-17,0.));
#1034=DIRECTION('',(-6.12303176911189E-17,-1.,0.));
#1035=DIRECTION('',(0.,0.,1.));
#1036=DIRECTION('',(-6.12303176911189E-17,-1.,0.));
#1037=DIRECTION('',(1.,-6.12303176911189E-17,0.));
#1038=DIRECTION('',(6.12303176911189E-17,1.,0.));
#1039=DIRECTION('',(-1.,6.12303176911189E-17,0.));
#1040=DIRECTION('',(-6.12303176911189E-17,-1.,0.));
#1041=DIRECTION('',(1.,-6.12303176911189E-17,0.));
#1042=DIRECTION('',(-6.12303176911189E-17,-1.,0.));
#1043=DIRECTION('',(1.,-6.12303176911189E-17,0.));
#1044=DIRECTION('',(-6.12303176911189E-17,-1.,0.));
#1045=DIRECTION('',(1.,-6.12303176911189E-17,0.));
#1046=DIRECTION('',(-6.12303176911189E-17,-1.,0.));
#1047=DIRECTION('',(1.,-6.12303176911189E-17,0.));
#1048=DIRECTION('',(-6.12303176911189E-17,-1.,0.));
#1049=DIRECTION('',(1.,-6.12303176911189E-17,0.));
#1050=DIRECTION('',(-6.12303176911189E-17,-1.,0.));
#1051=DIRECTION('',(1.,-6.12303176911189E-17,0.));
#1052=DIRECTION('',(-0.866025403784439,5.30270106023007E-17,0.5));
#1053=DIRECTION('',(0.5,-9.18454765366783E-17,0.866025403784439));
#1054=DIRECTION('',(-6.12303176911189E-17,-1.,0.));
#1055=DIRECTION('',(1.,-6.12303176911189E-17,0.));
#1056=DIRECTION('',(-6.12303176911189E-17,-1.,0.));
#1057=DIRECTION('',(1.,-6.12303176911189E-17,0.));
#1058=DIRECTION('',(-6.12303176911189E-17,-1.,0.));
#1059=DIRECTION('',(1.,-6.12303176911189E-17,0.));
#1060=DIRECTION('',(-6.12303176911189E-17,-1.,0.));
#1061=DIRECTION('',(1.,-6.12303176911189E-17,0.));
#1062=DIRECTION('',(-6.12303176911187E-17,-1.,0.));
#1063=DIRECTION('',(1.,-6.12303176911187E-17,0.));
#1064=DIRECTION('',(-6.12303176911187E-17,-1.,0.));
#1065=DIRECTION('',(1.,-6.12303176911187E-17,0.));
#1066=DIRECTION('',(-6.12303176911189E-17,-1.,0.));
#1067=DIRECTION('',(1.,-6.12303176911189E-17,0.));
#1068=DIRECTION('',(-6.12303176911189E-17,-1.,0.));
#1069=DIRECTION('',(1.,-6.12303176911189E-17,0.));
#1070=DIRECTION('',(-6.12303176911189E-17,-1.,0.));
#1071=DIRECTION('',(1.,-6.12303176911189E-17,0.));
#1072=DIRECTION('',(-6.12303176911189E-17,-1.,0.));
#1073=DIRECTION('',(1.,-6.12303176911189E-17,0.));
#1074=DIRECTION('',(6.12303176911186E-17,1.,0.));
#1075=DIRECTION('',(-1.,6.12303176911186E-17,0.));
#1076=DIRECTION('',(6.12303176911189E-17,1.,0.));
#1077=DIRECTION('',(-1.,6.12303176911189E-17,0.));
#1078=DIRECTION('',(6.12303176911189E-17,1.,0.));
#1079=DIRECTION('',(-1.,6.12303176911189E-17,0.));
#1080=DIRECTION('',(6.12303176911189E-17,1.,0.));
#1081=DIRECTION('',(-1.,6.12303176911189E-17,0.));
#1082=DIRECTION('',(-6.12303176911189E-17,-1.,0.));
#1083=DIRECTION('',(1.,-6.12303176911189E-17,0.));
#1084=DIRECTION('',(6.12303176911186E-17,1.,0.));
#1085=DIRECTION('',(-1.,6.12303176911186E-17,0.));
#1086=DIRECTION('',(0.,0.,-1.));
#1087=DIRECTION('',(-1.,0.,0.));
#1088=DIRECTION('',(6.12303176911186E-17,1.,0.));
#1089=DIRECTION('',(-1.,6.12303176911186E-17,0.));
#1090=DIRECTION('',(-6.12303176911186E-17,-1.,0.));
#1091=DIRECTION('',(1.,-6.12303176911186E-17,0.));
#1092=DIRECTION('',(6.12303176911187E-17,1.,0.));
#1093=DIRECTION('',(-1.,6.12303176911187E-17,0.));
#1094=DIRECTION('',(-7.49855125712043E-33,-1.22464679914735E-16,1.));
#1095=DIRECTION('',(6.12303176911189E-17,1.,1.22464679914735E-16));
#1096=DIRECTION('',(0.,0.,1.));
#1097=DIRECTION('',(1.,0.,0.));
#1098=DIRECTION('',(0.,0.,-1.));
#1099=DIRECTION('',(-1.,0.,0.));
#1100=DIRECTION('',(0.,0.,-1.));
#1101=DIRECTION('',(-1.,0.,0.));
#1102=DIRECTION('',(0.,0.,-1.));
#1103=DIRECTION('',(-1.,0.,0.));
#1104=DIRECTION('',(0.,0.,-1.));
#1105=DIRECTION('',(-1.,0.,0.));
#1106=DIRECTION('',(0.,0.,-1.));
#1107=DIRECTION('',(-1.,0.,0.));
#1108=DIRECTION('',(0.,0.,-1.));
#1109=DIRECTION('',(-1.,0.,0.));
#1110=DIRECTION('',(0.,0.,-1.));
#1111=DIRECTION('',(-1.,0.,0.));
#1112=DIRECTION('',(0.,0.,1.));
#1113=DIRECTION('',(1.,0.,0.));
#1114=DIRECTION('',(0.,0.,-1.));
#1115=DIRECTION('',(-1.,0.,0.));
#1116=DIRECTION('',(0.,0.,1.));
#1117=DIRECTION('',(1.,0.,0.));
#1118=DIRECTION('',(0.866025406594013,0.,-0.499999995133675));
#1119=DIRECTION('',(-0.499999995133675,0.,-0.866025406594013));
#1120=DIRECTION('',(0.,0.,1.));
#1121=DIRECTION('',(1.,0.,0.));
#1122=DIRECTION('',(-6.12303176911189E-17,-1.,0.));
#1123=DIRECTION('',(1.,-6.12303176911189E-17,0.));
#1124=DIRECTION('',(-6.12303176911189E-17,-1.,0.));
#1125=DIRECTION('',(-6.12303176911189E-17,-1.,0.));
#1126=DIRECTION('',(1.,-6.12303176911189E-17,0.));
#1127=DIRECTION('',(0.,1.,0.));
#1128=DIRECTION('',(6.12303176911189E-17,1.,0.));
#1129=DIRECTION('',(-1.,6.12303176911189E-17,0.));
#1130=DIRECTION('',(-6.12303176911189E-17,-1.,0.));
#1131=DIRECTION('',(1.,-6.12303176911189E-17,0.));
#1132=DIRECTION('',(0.,1.,0.));
#1133=DIRECTION('',(-6.12303176911189E-17,-1.,0.));
#1134=DIRECTION('',(1.,-6.12303176911189E-17,0.));
#1135=DIRECTION('',(0.,1.,0.));
#1136=DIRECTION('',(6.12303176911189E-17,1.,0.));
#1137=DIRECTION('',(-1.,6.12303176911189E-17,0.));
#1138=DIRECTION('',(6.12303176911189E-17,1.,0.));
#1139=DIRECTION('',(-1.,6.12303176911189E-17,0.));
#1140=DIRECTION('',(6.12303176911189E-17,1.,0.));
#1141=DIRECTION('',(-1.,6.12303176911189E-17,0.));
#1142=DIRECTION('',(-0.500000000000001,3.06151588455595E-17,0.866025403784438));
#1143=DIRECTION('',(6.12303176911189E-17,1.,0.));
#1144=DIRECTION('',(-1.,6.12303176911189E-17,0.));
#1145=DIRECTION('',(1.,-6.12303176911189E-17,3.59121877726275E-16));
#1146=DIRECTION('',(6.12303176911189E-17,1.,0.));
#1147=DIRECTION('',(-1.,6.12303176911189E-17,0.));
#1148=DIRECTION('',(-0.5,3.06151588455594E-17,-0.866025403784439));
#1149=DIRECTION('',(6.12303176911189E-17,1.,0.));
#1150=DIRECTION('',(-1.,6.12303176911189E-17,0.));
#1151=DIRECTION('',(6.12303176911189E-17,1.,0.));
#1152=DIRECTION('',(-1.,6.12303176911189E-17,0.));
#1153=DIRECTION('',(6.12303176911189E-17,1.,0.));
#1154=DIRECTION('',(-1.,6.12303176911189E-17,0.));
#1155=DIRECTION('',(6.12303176911189E-17,1.,0.));
#1156=DIRECTION('',(-1.,6.12303176911189E-17,0.));
#1157=DIRECTION('',(-6.12303176911189E-17,-1.,0.));
#1158=DIRECTION('',(1.,-6.12303176911189E-17,0.));
#1159=DIRECTION('',(0.,1.,0.));
#1160=DIRECTION('',(-6.12303176911189E-17,-1.,0.));
#1161=DIRECTION('',(1.,-6.12303176911189E-17,0.));
#1162=DIRECTION('',(-6.12303176911189E-17,-1.,0.));
#1163=DIRECTION('',(6.12303176911189E-17,1.,0.));
#1164=DIRECTION('',(-1.,6.12303176911189E-17,0.));
#1165=DIRECTION('',(-6.12303176911189E-17,-1.,0.));
#1166=DIRECTION('',(1.,-6.12303176911189E-17,0.));
#1167=DIRECTION('',(-6.12303176911189E-17,-1.,0.));
#1168=DIRECTION('',(1.,-6.12303176911189E-17,0.));
#1169=DIRECTION('',(-6.12303176911189E-17,-1.,0.));
#1170=DIRECTION('',(1.,-6.12303176911189E-17,0.));
#1171=DIRECTION('',(-6.12303176911189E-17,-1.,0.));
#1172=DIRECTION('',(0.,0.,1.));
#1173=DIRECTION('',(6.12303176911189E-17,1.,0.));
#1174=DIRECTION('',(-1.,6.12303176911189E-17,0.));
#1175=DIRECTION('',(-6.12303176911189E-17,-1.,0.));
#1176=DIRECTION('',(1.,-6.12303176911189E-17,0.));
#1177=DIRECTION('',(1.,-6.12303176911189E-17,3.59121877726275E-16));
#1178=DIRECTION('',(-6.12303176911189E-17,-1.,0.));
#1179=DIRECTION('',(1.,-6.12303176911189E-17,0.));
#1180=DIRECTION('',(-0.500000000000001,3.06151588455595E-17,0.866025403784438));
#1181=DIRECTION('',(-6.12303176911189E-17,-1.,0.));
#1182=DIRECTION('',(1.,-6.12303176911189E-17,0.));
#1183=DIRECTION('',(-0.5,3.06151588455594E-17,-0.866025403784439));
#1184=DIRECTION('',(-6.12303176911189E-17,-1.,0.));
#1185=DIRECTION('',(1.,-6.12303176911189E-17,0.));
#1186=DIRECTION('',(-6.12303176911189E-17,-1.,0.));
#1187=DIRECTION('',(1.,-6.12303176911189E-17,0.));
#1188=DIRECTION('',(6.02241566096026E-17,1.,0.));
#1189=DIRECTION('',(1.,-6.02241566096026E-17,0.));
#1190=DIRECTION('',(6.02241566096026E-17,1.,0.));
#1191=DIRECTION('',(1.,-6.02241566096026E-17,0.));
#1192=DIRECTION('',(6.02241566096026E-17,1.,0.));
#1193=DIRECTION('',(1.,-6.02241566096026E-17,0.));
#1194=DIRECTION('',(-6.12303176911189E-17,-1.,0.));
#1195=DIRECTION('',(0.,0.,1.));
#1196=DIRECTION('',(-6.12303176911189E-17,-1.,0.));
#1197=DIRECTION('',(1.,-6.12303176911189E-17,0.));
#1198=DIRECTION('',(-6.12303176911189E-17,-1.,0.));
#1199=DIRECTION('',(1.,-6.12303176911189E-17,0.));
#1200=DIRECTION('',(6.12303176911189E-17,1.,0.));
#1201=DIRECTION('',(-1.,6.12303176911189E-17,0.));
#1202=DIRECTION('',(-6.12303176911189E-17,-1.,0.));
#1203=DIRECTION('',(1.,-6.12303176911189E-17,0.));
#1204=DIRECTION('',(-6.12303176911189E-17,-1.,0.));
#1205=DIRECTION('',(0.,0.,1.));
#1206=DIRECTION('',(3.59121877726275E-16,0.,-1.));
#1207=DIRECTION('',(-1.,0.,-3.59121877726275E-16));
#1208=DIRECTION('',(1.,-6.12303176911189E-17,3.59121877726275E-16));
#1209=DIRECTION('',(1.,-6.12303176911189E-17,3.59121877726275E-16));
#1210=DIRECTION('',(0.866025403784438,0.,0.500000000000001));
#1211=DIRECTION('',(0.500000000000001,0.,-0.866025403784438));
#1212=DIRECTION('',(-0.500000000000001,3.06151588455595E-17,0.866025403784438));
#1213=DIRECTION('',(-0.500000000000001,3.06151588455595E-17,0.866025403784438));
#1214=DIRECTION('',(-0.866025403784439,0.,0.499999999999999));
#1215=DIRECTION('',(0.5,0.,0.866025403784439));
#1216=DIRECTION('',(-0.5,3.06151588455594E-17,-0.866025403784439));
#1217=DIRECTION('',(-0.5,3.06151588455594E-17,-0.866025403784439));
#1218=DIRECTION('',(-5.98536462877124E-17,-1.,0.));
#1219=DIRECTION('',(1.,-5.98536462877124E-17,0.));
#1220=DIRECTION('',(-5.98536462877124E-17,-1.,0.));
#1221=DIRECTION('',(1.,-5.98536462877124E-17,0.));
#1222=DIRECTION('',(-5.98536462877124E-17,-1.,0.));
#1223=DIRECTION('',(1.,-5.98536462877124E-17,0.));
#1224=DIRECTION('',(-6.12303176911189E-17,-1.,0.));
#1225=DIRECTION('',(1.,-6.12303176911189E-17,0.));
#1226=DIRECTION('',(6.12303176911189E-17,1.,0.));
#1227=DIRECTION('',(-1.,6.12303176911189E-17,0.));
#1228=DIRECTION('',(6.12303176911189E-17,1.,0.));
#1229=DIRECTION('',(-1.,6.12303176911189E-17,0.));
#1230=DIRECTION('',(0.5,-3.06151588455594E-17,0.866025403784439));
#1231=DIRECTION('',(0.866025403784439,0.,-0.499999999999999));
#1232=DIRECTION('',(-1.,6.12303176911189E-17,-3.59121877726275E-16));
#1233=DIRECTION('',(-3.59121877726275E-16,0.,1.));
#1234=DIRECTION('',(6.12303176911189E-17,1.,0.));
#1235=DIRECTION('',(-1.,6.12303176911189E-17,0.));
#1236=DIRECTION('',(6.12303176911189E-17,1.,0.));
#1237=DIRECTION('',(-1.,6.12303176911189E-17,0.));
#1238=DIRECTION('',(0.500000000000001,-3.06151588455595E-17,-0.866025403784438));
#1239=DIRECTION('',(-0.866025403784438,0.,-0.500000000000001));
#1240=DIRECTION('',(0.5,-3.06151588455594E-17,0.866025403784439));
#1241=DIRECTION('',(0.866025403784439,0.,-0.499999999999999));
#1242=DIRECTION('',(-6.12303176911189E-17,-1.,0.));
#1243=DIRECTION('',(1.,-6.12303176911189E-17,0.));
#1244=DIRECTION('',(-6.12303176911189E-17,-1.,0.));
#1245=DIRECTION('',(1.,-6.12303176911189E-17,0.));
#1246=DIRECTION('',(-1.,6.12303176911189E-17,-3.59121877726275E-16));
#1247=DIRECTION('',(-3.59121877726275E-16,0.,1.));
#1248=DIRECTION('',(0.500000000000001,-3.06151588455595E-17,-0.866025403784438));
#1249=DIRECTION('',(-0.866025403784438,0.,-0.500000000000001));
#1250=DIRECTION('',(-6.12303176911189E-17,-1.,0.));
#1251=DIRECTION('',(1.,-6.12303176911189E-17,0.));
#1252=DIRECTION('',(-1.11022302462516E-16,-1.81663254699036E-17,1.));
#1253=DIRECTION('',(1.,2.75693551190098E-18,1.11022302462516E-16));
#1254=CARTESIAN_POINT('',(0.,0.,0.));
#1255=CARTESIAN_POINT('',(-9.72271824131504,0.,9.72271824131503));
#1256=CARTESIAN_POINT('',(-7.37394774005252,6.10179612082665E-16,7.37394774005252));
#1257=CARTESIAN_POINT('',(-13.75,0.,-2.21116864330538E-15));
#1258=CARTESIAN_POINT('',(-10.4283369022127,6.10179612082665E-16,-1.6770044770907E-15));
#1259=CARTESIAN_POINT('',(-9.72271824131503,0.,-9.72271824131504));
#1260=CARTESIAN_POINT('',(-7.37394774005252,6.10179612082665E-16,-7.37394774005253));
#1261=CARTESIAN_POINT('',(-1.68388934882761E-15,0.,-13.75));
#1262=CARTESIAN_POINT('',(-1.2771029407725E-15,6.10179612082665E-16,-10.4283369022127));
#1263=CARTESIAN_POINT('',(9.72271824131504,0.,-9.72271824131504));
#1264=CARTESIAN_POINT('',(7.37394774005252,6.10179612082665E-16,-7.37394774005252));
#1265=CARTESIAN_POINT('',(13.75,0.,-2.52583402324142E-15));
#1266=CARTESIAN_POINT('',(10.4283369022127,6.10179612082665E-16,-1.91565441115875E-15));
#1267=CARTESIAN_POINT('',(9.72271824131504,0.,9.72271824131503));
#1268=CARTESIAN_POINT('',(7.37394774005252,6.10179612082665E-16,7.37394774005252));
#1269=CARTESIAN_POINT('',(3.67381906146713E-16,6.,19.0787840283389));
#1270=CARTESIAN_POINT('',(3.67381906146713E-16,6.,0.));
#1271=CARTESIAN_POINT('',(19.0787840283389,6.,0.));
#1272=CARTESIAN_POINT('',(3.67381906146713E-16,6.,0.));
#1273=CARTESIAN_POINT('',(15.8333333333333,6.,0.));
#1274=CARTESIAN_POINT('',(0.,0.,-1.73472347597681E-15));
#1275=CARTESIAN_POINT('',(-3.67381906146713E-16,-6.,0.));
#1276=CARTESIAN_POINT('',(19.0787840283389,-6.,0.));
#1277=CARTESIAN_POINT('',(-3.67381906146713E-16,-6.,19.0787840283389));
#1278=CARTESIAN_POINT('',(-3.67381906146713E-16,-6.,0.));
#1279=CARTESIAN_POINT('',(15.8333333333333,-6.,0.));
#1280=CARTESIAN_POINT('',(-1.53159860666952E-15,-25.0137295448276,0.));
#1281=CARTESIAN_POINT('',(-1.66198309507808E-16,-2.71431401591297,0.));
#1282=CARTESIAN_POINT('',(15.8333333333333,-2.71431401591297,0.));
#1283=CARTESIAN_POINT('',(0.,0.,0.));
#1284=CARTESIAN_POINT('',(1.66198309507808E-16,2.71431401591297,0.));
#1285=CARTESIAN_POINT('',(15.8333333333333,2.71431401591297,0.));
#1286=CARTESIAN_POINT('',(-1.53159860666952E-15,-25.0137295448276,0.));
#1287=CARTESIAN_POINT('',(52.5642464038057,-12.6970802919708,-30.347981810987));
#1288=CARTESIAN_POINT('',(9.58197967258917,-15.,-6.65558236859849));
#1289=CARTESIAN_POINT('',(9.27948338938509,-14.7767657397821,-7.09108343765155));
#1290=CARTESIAN_POINT('',(8.70393971063394,-13.9646103558875,-7.78157834459455));
#1291=CARTESIAN_POINT('',(8.51300368540135,-12.158676721841,-7.9755474769027));
#1292=CARTESIAN_POINT('',(9.16295718706873,-10.6060014818083,-7.26755349904806));
#1293=CARTESIAN_POINT('',(10.1453252288342,-9.99260318468986,-5.8586259406445));
#1294=CARTESIAN_POINT('',(10.8755142066718,-10.6060680677182,-4.30141692588341));
#1295=CARTESIAN_POINT('',(11.1631526182911,-12.1566215187975,-3.38555692807556));
#1296=CARTESIAN_POINT('',(11.0918827614301,-13.9651349394622,-3.64529690218818));
#1297=CARTESIAN_POINT('',(10.7786811132236,-14.7788596500671,-4.49522634579593));
#1298=CARTESIAN_POINT('',(10.5548932444807,-15.,-4.97044663070906));
#1299=CARTESIAN_POINT('',(9.58197967258917,-15.,-6.65558236859849));
#1300=CARTESIAN_POINT('',(10.5548932444807,-15.,-4.97044663070906));
#1301=CARTESIAN_POINT('',(10.5548932444807,-15.,-4.97044663070906));
#1302=CARTESIAN_POINT('',(10.0779389352998,-15.2535609055655,-5.38811357398584));
#1303=CARTESIAN_POINT('',(9.70521980025319,-15.2535755123883,-6.03365852380969));
#1304=CARTESIAN_POINT('',(9.58197967258917,-15.,-6.65558236859849));
#1305=CARTESIAN_POINT('',(7.29437289555373,-14.6560497148264,-1.94942626436412));
#1306=CARTESIAN_POINT('',(7.41351224903012,-12.6971287939453,-1.08077021212876));
#1307=CARTESIAN_POINT('',(7.29392425007345,-10.7379168612173,-1.95031526595068));
#1308=CARTESIAN_POINT('',(6.58699885492474,-9.92626902752678,-3.79925626668862));
#1309=CARTESIAN_POINT('',(5.33420660591877,-10.7394920926165,-5.34402646750005));
#1310=CARTESIAN_POINT('',(4.6434021558177,-12.6953269133729,-5.87903686304904));
#1311=CARTESIAN_POINT('',(5.33453194079671,-14.6554962908843,-5.34340969357439));
#1312=CARTESIAN_POINT('',(6.58544689269291,-15.4677339297558,-3.80198619218172));
#1313=CARTESIAN_POINT('',(7.29437289555373,-14.6560497148264,-1.94942626436412));
#1314=CARTESIAN_POINT('',(7.41351224903012,-12.6971287939453,-1.08077021212876));
#1315=CARTESIAN_POINT('',(7.29392425007345,-10.7379168612173,-1.95031526595068));
#1316=CARTESIAN_POINT('',(7.37372435695794,-12.6970802919708,-1.37047039647164));
#1317=CARTESIAN_POINT('',(-9.79685083057901E-16,-16.,11.6666666666667));
#1318=CARTESIAN_POINT('',(-9.79685083057901E-16,-16.,0.));
#1319=CARTESIAN_POINT('',(10.6666666666667,-16.,0.));
#1320=CARTESIAN_POINT('',(-9.79685083057901E-16,-16.,0.));
#1321=CARTESIAN_POINT('',(7.5,-16.,0.));
#1322=CARTESIAN_POINT('',(-1.53159860666952E-15,-25.0137295448276,0.));
#1323=CARTESIAN_POINT('',(0.972913571891518,-15.,11.6260289993076));
#1324=CARTESIAN_POINT('',(1.50131670266879,-14.7767657397821,11.581810068029));
#1325=CARTESIAN_POINT('',(2.38707467264078,-13.9646103558875,11.4286220747144));
#1326=CARTESIAN_POINT('',(2.65052488138595,-12.158676721841,11.3602511925195));
#1327=CARTESIAN_POINT('',(1.71240736000374,-10.6060014818083,11.5691304473147));
#1328=CARTESIAN_POINT('',(0.00105628145156092,-9.99260318468986,11.7154223481478));
#1329=CARTESIAN_POINT('',(-1.7126207732525,-10.6060680677182,11.569180045138));
#1330=CARTESIAN_POINT('',(-2.64959800347373,-12.1566215187975,11.3603522178007));
#1331=CARTESIAN_POINT('',(-2.38902165908335,-13.9651349394622,11.4285006982912));
#1332=CARTESIAN_POINT('',(-1.49636034539141,-14.7788596500671,11.5822248362411));
#1333=CARTESIAN_POINT('',(-0.972913571891518,-15.,11.6260289993076));
#1334=CARTESIAN_POINT('',(0.972913571891518,-15.,11.6260289993076));
#1335=CARTESIAN_POINT('',(-0.972913571891518,-15.,11.6260289993076));
#1336=CARTESIAN_POINT('',(-9.18454765366782E-16,-15.,0.));
#1337=CARTESIAN_POINT('',(-9.18454765366782E-16,-15.,0.));
#1338=CARTESIAN_POINT('',(-1.66198309507808E-16,-2.71431401591296,0.));
#1339=CARTESIAN_POINT('',(11.6666666666667,-2.71431401591297,0.));
#1340=CARTESIAN_POINT('',(0.,0.,0.));
#1341=CARTESIAN_POINT('',(1.66198309507808E-16,2.71431401591296,0.));
#1342=CARTESIAN_POINT('',(11.6666666666667,2.71431401591296,0.));
#1343=CARTESIAN_POINT('',(-1.53159860666952E-15,-25.0137295448276,0.));
#1344=CARTESIAN_POINT('',(3.06151588455595E-16,5.00000000000001,0.));
#1345=CARTESIAN_POINT('',(-11.6666666666667,5.00000000000001,0.));
#1346=CARTESIAN_POINT('',(3.67381906146714E-16,6.00000000000001,11.6666666666667));
#1347=CARTESIAN_POINT('',(3.67381906146714E-16,6.00000000000001,0.));
#1348=CARTESIAN_POINT('',(-8.5,6.00000000000001,0.));
#1349=CARTESIAN_POINT('',(3.67381906146714E-16,6.00000000000001,0.));
#1350=CARTESIAN_POINT('',(-10.6666666666667,6.00000000000001,0.));
#1351=CARTESIAN_POINT('',(-1.53159860666952E-15,-25.0137295448276,0.));
#1352=CARTESIAN_POINT('',(3.06151588455595E-16,5.00000000000001,0.));
#1353=CARTESIAN_POINT('',(-7.5,5.00000000000001,0.));
#1354=CARTESIAN_POINT('',(-1.95893378003294,-14.6560497148264,7.29182536440825));
#1355=CARTESIAN_POINT('',(-2.77078166515806,-12.6971287939453,6.96067504499158));
#1356=CARTESIAN_POINT('',(-1.95793955933483,-10.7379168612173,7.29188132681831));
#1357=CARTESIAN_POINT('',(-0.00324698502279586,-9.92626902752678,7.60413647640815));
#1358=CARTESIAN_POINT('',(1.96095937639208,-10.7394920926165,7.29157166351045));
#1359=CARTESIAN_POINT('',(2.76969419527679,-12.6953269133729,6.96082265845008));
#1360=CARTESIAN_POINT('',(1.96026256706509,-14.6554962908843,7.29154502481665));
#1361=CARTESIAN_POINT('',(-0.000106819079421193,-15.4677339297558,7.60415740043622));
#1362=CARTESIAN_POINT('',(-1.95893378003294,-14.6560497148264,7.29182536440825));
#1363=CARTESIAN_POINT('',(-2.77078166515806,-12.6971287939453,6.96067504499158));
#1364=CARTESIAN_POINT('',(-1.95793955933483,-10.7379168612173,7.29188132681831));
#1365=CARTESIAN_POINT('',(-2.5,-12.6970802919708,7.07106781186548));
#1366=CARTESIAN_POINT('',(0.,-12.6970802919708,60.6959636219741));
#1367=CARTESIAN_POINT('',(-0.972913571891519,-15.,11.6260289993076));
#1368=CARTESIAN_POINT('',(-0.372726234102391,-15.2535609055655,11.4218079227509));
#1369=CARTESIAN_POINT('',(0.372691659253116,-15.2535755123883,11.4217961582358));
#1370=CARTESIAN_POINT('',(0.972913571891518,-15.,11.6260289993076));
#1371=CARTESIAN_POINT('',(3.67381906146714E-16,6.00000000000001,0.));
#1372=CARTESIAN_POINT('',(3.06151588455595E-16,5.00000000000001,0.));
#1373=CARTESIAN_POINT('',(-9.79685083057901E-16,-16.,0.));
#1374=CARTESIAN_POINT('',(0.,0.,13.75));
#1375=CARTESIAN_POINT('',(3.73614914964652E-32,6.10179612082665E-16,10.4283369022127));
#1376=CARTESIAN_POINT('',(0.,0.,0.));
#1377=CARTESIAN_POINT('',(0.,0.,5.));
#1378=CARTESIAN_POINT('',(0.,0.,1.));
#1379=CARTESIAN_POINT('',(-2.5,0.,1.));
#1380=CARTESIAN_POINT('',(0.,0.,4.));
#1381=CARTESIAN_POINT('',(-2.5,0.,4.));
#1382=CARTESIAN_POINT('',(0.,0.,5.));
#1383=CARTESIAN_POINT('',(0.,0.,5.));
#1384=CARTESIAN_POINT('',(-1.5,0.,5.));
#1385=CARTESIAN_POINT('',(0.,0.,0.));
#1386=CARTESIAN_POINT('',(0.,0.,0.));
#1387=CARTESIAN_POINT('',(-1.5,0.,0.));
#1388=CARTESIAN_POINT('',(0.,0.,0.));
#1389=CARTESIAN_POINT('',(0.,0.,4.));
#1390=CARTESIAN_POINT('',(0.,-12.6970802919708,7.5));
#1391=CARTESIAN_POINT('',(6.49519054946534,-12.6970802919708,-3.74999996350267));
#1392=CARTESIAN_POINT('',(0.,0.,0.));
#1393=CARTESIAN_POINT('',(0.,0.,0.));
#1394=CARTESIAN_POINT('',(28.9827534923789,-1.77462320390174E-15,29.));
#1395=CARTESIAN_POINT('',(28.9827534923789,-1.25000000000001,29.));
#1396=CARTESIAN_POINT('',(28.9827534923789,1.25,29.));
#1397=CARTESIAN_POINT('',(-7.65378971138991E-17,-1.25000000000001,0.));
#1398=CARTESIAN_POINT('',(39.6061134559382,-1.25000000000002,10.5998007960223));
#1399=CARTESIAN_POINT('',(39.6061134559382,-107.806982735218,10.5998007960223));
#1400=CARTESIAN_POINT('',(39.6061134559382,1.25,10.5998007960223));
#1401=CARTESIAN_POINT('',(7.65378971138987E-17,1.25,0.));
#1402=CARTESIAN_POINT('',(0.,0.,0.));
#1403=CARTESIAN_POINT('',(10.6233599635593,-107.806982735218,-39.5998007960223));
#1404=CARTESIAN_POINT('',(10.6233599635593,-1.25000000000002,-39.5998007960223));
#1405=CARTESIAN_POINT('',(10.6233599635593,1.25,-39.5998007960223));
#1406=CARTESIAN_POINT('',(-7.65378971138991E-17,-1.25000000000001,0.));
#1407=CARTESIAN_POINT('',(-10.6233599635592,-1.25000000000002,-39.5998007960223));
#1408=CARTESIAN_POINT('',(-10.6233599635592,-108.853112036358,-39.5998007960223));
#1409=CARTESIAN_POINT('',(-10.6233599635592,1.25,-39.5998007960223));
#1410=CARTESIAN_POINT('',(7.65378971138987E-17,1.25,0.));
#1411=CARTESIAN_POINT('',(1.37768214805018E-16,2.25,24.3964649078509));
#1412=CARTESIAN_POINT('',(1.37768214805018E-16,2.25,0.));
#1413=CARTESIAN_POINT('',(9.96585444887861,2.25,-38.738633753706));
#1414=CARTESIAN_POINT('',(-9.96585444887852,2.25,-38.738633753706));
#1415=CARTESIAN_POINT('',(-38.7400880521537,2.25,11.0998007960222));
#1416=CARTESIAN_POINT('',(-38.53156816305,2.25,10.7386337537059));
#1417=CARTESIAN_POINT('',(1.37768214805018E-16,2.25,0.));
#1418=CARTESIAN_POINT('',(-28.5657137141714,2.25,28.));
#1419=CARTESIAN_POINT('',(28.9827534923789,2.25,28.));
#1420=CARTESIAN_POINT('',(28.5657137141714,2.25,28.));
#1421=CARTESIAN_POINT('',(1.37768214805018E-16,2.25,0.));
#1422=CARTESIAN_POINT('',(38.53156816305,2.25,10.738633753706));
#1423=CARTESIAN_POINT('',(9.75733455977485,2.25,-39.0998007960223));
#1424=CARTESIAN_POINT('',(1.37768214805018E-16,2.25,0.));
#1425=CARTESIAN_POINT('',(-25.2920442036622,2.25,0.));
#1426=CARTESIAN_POINT('',(1.34670704147353E-16,2.25,-31.75));
#1427=CARTESIAN_POINT('',(-3.55,2.25,-31.75));
#1428=CARTESIAN_POINT('',(27.4963065701559,2.25,15.875));
#1429=CARTESIAN_POINT('',(23.9463065701559,2.25,15.875));
#1430=CARTESIAN_POINT('',(-27.4963065701559,2.25,15.875));
#1431=CARTESIAN_POINT('',(-31.0463065701559,2.25,15.875));
#1432=CARTESIAN_POINT('',(0.,0.,0.));
#1433=CARTESIAN_POINT('',(-39.6061134559382,-108.853112036358,10.5998007960222));
#1434=CARTESIAN_POINT('',(-39.6061134559382,-1.25000000000002,10.5998007960222));
#1435=CARTESIAN_POINT('',(-39.6061134559382,1.25,10.5998007960222));
#1436=CARTESIAN_POINT('',(-7.65378971138991E-17,-1.25000000000001,0.));
#1437=CARTESIAN_POINT('',(-28.9827534923789,-1.25000000000001,29.));
#1438=CARTESIAN_POINT('',(-28.9827534923789,1.77462320390174E-15,29.));
#1439=CARTESIAN_POINT('',(-28.9827534923789,1.25,29.));
#1440=CARTESIAN_POINT('',(7.65378971138987E-17,1.25,0.));
#1441=CARTESIAN_POINT('',(-4.59227382683391E-16,-7.5,18.5404962177392));
#1442=CARTESIAN_POINT('',(-4.59227382683391E-16,-7.5,0.));
#1443=CARTESIAN_POINT('',(23.3238075793812,-7.5,0.));
#1444=CARTESIAN_POINT('',(-4.59227382683391E-16,-7.5,0.));
#1445=CARTESIAN_POINT('',(18.5404962177392,-7.5,0.));
#1446=CARTESIAN_POINT('',(0.,0.,0.));
#1447=CARTESIAN_POINT('',(-1.9119466847668E-16,-3.12254901960785,0.));
#1448=CARTESIAN_POINT('',(-24.3001993329303,-3.12254901960785,0.));
#1449=CARTESIAN_POINT('',(-1.37768214805018E-16,-2.25000000000001,24.3964649078509));
#1450=CARTESIAN_POINT('',(-28.9827534923789,-2.25000000000001,28.));
#1451=CARTESIAN_POINT('',(28.5657137141714,-2.25000000000001,28.));
#1452=CARTESIAN_POINT('',(-28.5657137141714,-2.25000000000001,28.));
#1453=CARTESIAN_POINT('',(-1.37768214805018E-16,-2.25000000000001,0.));
#1454=CARTESIAN_POINT('',(-38.53156816305,-2.25000000000001,10.7386337537059));
#1455=CARTESIAN_POINT('',(-9.75733455977478,-2.25000000000001,-39.0998007960223));
#1456=CARTESIAN_POINT('',(-9.96585444887853,-2.25000000000001,-38.738633753706));
#1457=CARTESIAN_POINT('',(-1.37768214805018E-16,-2.25000000000001,0.));
#1458=CARTESIAN_POINT('',(9.96585444887861,-2.25000000000001,-38.738633753706));
#1459=CARTESIAN_POINT('',(38.7400880521537,-2.25000000000001,11.0998007960223));
#1460=CARTESIAN_POINT('',(38.53156816305,-2.25000000000001,10.738633753706));
#1461=CARTESIAN_POINT('',(-1.37768214805018E-16,-2.25000000000001,0.));
#1462=CARTESIAN_POINT('',(-1.37768214805018E-16,-2.25000000000001,0.));
#1463=CARTESIAN_POINT('',(25.2920442036622,-2.25000000000001,0.));
#1464=CARTESIAN_POINT('',(-1.34670704147353E-16,-2.25000000000001,-31.75));
#1465=CARTESIAN_POINT('',(3.55,-2.25000000000001,-31.75));
#1466=CARTESIAN_POINT('',(27.4963065701559,-2.25000000000001,15.875));
#1467=CARTESIAN_POINT('',(31.0463065701559,-2.25000000000001,15.875));
#1468=CARTESIAN_POINT('',(-27.4963065701559,-2.25000000000001,15.875));
#1469=CARTESIAN_POINT('',(-23.9463065701559,-2.25000000000001,15.875));
#1470=CARTESIAN_POINT('',(0.,0.,0.));
#1471=CARTESIAN_POINT('',(1.9119466847668E-16,3.12254901960785,0.));
#1472=CARTESIAN_POINT('',(24.3001993329303,3.12254901960784,0.));
#1473=CARTESIAN_POINT('',(4.59227382683391E-16,7.49999999999999,0.));
#1474=CARTESIAN_POINT('',(23.3238075793812,7.49999999999999,0.));
#1475=CARTESIAN_POINT('',(4.59227382683391E-16,7.5,18.5404962177392));
#1476=CARTESIAN_POINT('',(4.59227382683392E-16,7.5,0.));
#1477=CARTESIAN_POINT('',(18.5404962177392,7.5,0.));
#1478=CARTESIAN_POINT('',(0.,0.,0.));
#1479=CARTESIAN_POINT('',(1.77573785876366E-15,-116.931603940081,29.));
#1480=CARTESIAN_POINT('',(28.9827534923789,-1.25000000000002,29.));
#1481=CARTESIAN_POINT('',(-28.9827534923789,1.25,29.));
#1482=CARTESIAN_POINT('',(-25.1147367097487,-108.853112036358,-14.5));
#1483=CARTESIAN_POINT('',(-39.6061134559382,-1.25000000000001,10.5998007960222));
#1484=CARTESIAN_POINT('',(-10.6233599635592,1.25,-39.5998007960223));
#1485=CARTESIAN_POINT('',(25.1147367097487,-107.806982735218,-14.5));
#1486=CARTESIAN_POINT('',(10.6233599635593,-1.25000000000001,-39.5998007960223));
#1487=CARTESIAN_POINT('',(39.6061134559382,1.25,10.5998007960223));
#1488=CARTESIAN_POINT('',(-27.4963065701559,104.518801118766,15.875));
#1489=CARTESIAN_POINT('',(27.4963065701559,104.518801118766,15.875));
#1490=CARTESIAN_POINT('',(6.25583135257837E-15,104.518801118766,-31.75));
#1491=CARTESIAN_POINT('',(-1.98998532496137E-16,-3.25000000000001,0.));
#1492=CARTESIAN_POINT('',(1.98998532496136E-16,3.25,0.));
#1493=CARTESIAN_POINT('',(7.65378971138987E-17,1.25,0.));
#1494=CARTESIAN_POINT('',(28.9827534923789,1.25,29.));
#1495=CARTESIAN_POINT('',(28.9827534923789,1.52542921071526,29.));
#1496=CARTESIAN_POINT('',(28.8838398834348,2.05439694139678,28.7606509767908));
#1497=CARTESIAN_POINT('',(28.6708159870411,2.25,28.2502061461488));
#1498=CARTESIAN_POINT('',(28.5657137141714,2.25,28.));
#1499=CARTESIAN_POINT('',(39.6061134559382,1.25,10.5998007960223));
#1500=CARTESIAN_POINT('',(39.6061134559382,1.52542921071526,10.5998007960223));
#1501=CARTESIAN_POINT('',(39.3493743169959,2.05439694139677,10.6338136095011));
#1502=CARTESIAN_POINT('',(38.8008041782328,2.25,10.7045519189327));
#1503=CARTESIAN_POINT('',(38.53156816305,2.25,10.738633753706));
#1504=CARTESIAN_POINT('',(34.8126904923315,1.25,4.29734868088819));
#1505=CARTESIAN_POINT('',(10.6233599635593,1.25,-39.5998007960223));
#1506=CARTESIAN_POINT('',(10.6233599635593,1.52542921071527,-39.5998007960223));
#1507=CARTESIAN_POINT('',(10.4655344335612,2.05439694139679,-39.394464586292));
#1508=CARTESIAN_POINT('',(10.1299881911914,2.25000000000001,-38.9547580650811));
#1509=CARTESIAN_POINT('',(9.96585444887861,2.25,-38.7386337537059));
#1510=CARTESIAN_POINT('',(-1.21757039163121E-15,1.25,28.));
#1511=CARTESIAN_POINT('',(-28.9827534923789,1.25,29.));
#1512=CARTESIAN_POINT('',(-28.9827534923789,1.52542921071527,29.));
#1513=CARTESIAN_POINT('',(-28.8838398834348,2.05439694139678,28.7606509767907));
#1514=CARTESIAN_POINT('',(-28.6708159870412,2.25,28.2502061461487));
#1515=CARTESIAN_POINT('',(-28.5657137141714,2.25,28.));
#1516=CARTESIAN_POINT('',(7.65378971138987E-17,1.25,0.));
#1517=CARTESIAN_POINT('',(-10.6233599635592,1.25,-39.5998007960223));
#1518=CARTESIAN_POINT('',(-10.6233599635592,1.52542921071527,-39.5998007960223));
#1519=CARTESIAN_POINT('',(-10.4655344335608,2.0543969413968,-39.3944645862923));
#1520=CARTESIAN_POINT('',(-10.1299881911921,2.25000000000001,-38.9547580650806));
#1521=CARTESIAN_POINT('',(-9.96585444887852,2.25,-38.738633753706));
#1522=CARTESIAN_POINT('',(7.65378971138987E-17,1.25,0.));
#1523=CARTESIAN_POINT('',(-39.6061134559382,1.25,10.5998007960222));
#1524=CARTESIAN_POINT('',(-39.6061134559382,1.52542921071527,10.5998007960222));
#1525=CARTESIAN_POINT('',(-39.349374316996,2.05439694139677,10.633813609502));
#1526=CARTESIAN_POINT('',(-38.8008041782325,2.25000000000001,10.7045519189309));
#1527=CARTESIAN_POINT('',(-38.53156816305,2.25,10.7386337537059));
#1528=CARTESIAN_POINT('',(-34.8126904923315,1.25,4.29734868088811));
#1529=CARTESIAN_POINT('',(24.2487113059643,-1.25000000000002,-14.));
#1530=CARTESIAN_POINT('',(10.6233599635593,-1.25000000000002,-39.5998007960223));
#1531=CARTESIAN_POINT('',(10.6233599635593,-1.52542921071528,-39.5998007960223));
#1532=CARTESIAN_POINT('',(10.4655344335486,-2.0543969413968,-39.3944645863015));
#1533=CARTESIAN_POINT('',(10.1299881912166,-2.25000000000002,-38.954758065062));
#1534=CARTESIAN_POINT('',(9.96585444887861,-2.25000000000001,-38.7386337537059));
#1535=CARTESIAN_POINT('',(39.6061134559382,-1.25000000000002,10.5998007960223));
#1536=CARTESIAN_POINT('',(39.6061134559382,-1.52542921071528,10.5998007960223));
#1537=CARTESIAN_POINT('',(39.3493743169978,-2.0543969413968,10.6338136095167));
#1538=CARTESIAN_POINT('',(38.8008041782288,-2.25000000000002,10.7045519189015));
#1539=CARTESIAN_POINT('',(38.53156816305,-2.25000000000001,10.738633753706));
#1540=CARTESIAN_POINT('',(-7.65378971138991E-17,-1.25000000000001,0.));
#1541=CARTESIAN_POINT('',(28.9827534923789,-1.25000000000001,29.));
#1542=CARTESIAN_POINT('',(28.9827534923789,-1.52542921071527,29.));
#1543=CARTESIAN_POINT('',(28.8838398834542,-2.05439694139679,28.7606509767826));
#1544=CARTESIAN_POINT('',(28.6708159870024,-2.25000000000001,28.2502061461651));
#1545=CARTESIAN_POINT('',(28.5657137141714,-2.25000000000001,28.));
#1546=CARTESIAN_POINT('',(-7.65378971138991E-17,-1.25000000000001,0.));
#1547=CARTESIAN_POINT('',(-10.6233599635592,-1.25000000000002,-39.5998007960223));
#1548=CARTESIAN_POINT('',(-10.6233599635592,-1.52542921071528,-39.5998007960223));
#1549=CARTESIAN_POINT('',(-10.4655344335401,-2.0543969413968,-39.394464586308));
#1550=CARTESIAN_POINT('',(-10.1299881912334,-2.25000000000001,-38.9547580650492));
#1551=CARTESIAN_POINT('',(-9.96585444887853,-2.25000000000001,-38.738633753706));
#1552=CARTESIAN_POINT('',(9.21808109675929E-15,-1.25000000000002,28.));
#1553=CARTESIAN_POINT('',(-28.9827534923789,-1.25000000000001,29.));
#1554=CARTESIAN_POINT('',(-28.9827534923789,-1.52542921071528,29.));
#1555=CARTESIAN_POINT('',(-28.883839883454,-2.05439694139679,28.7606509767827));
#1556=CARTESIAN_POINT('',(-28.6708159870028,-2.25000000000001,28.2502061461649));
#1557=CARTESIAN_POINT('',(-28.5657137141714,-2.25000000000001,28.));
#1558=CARTESIAN_POINT('',(-24.2487113059643,-1.25000000000002,-14.));
#1559=CARTESIAN_POINT('',(-39.6061134559382,-1.25000000000002,10.5998007960222));
#1560=CARTESIAN_POINT('',(-39.6061134559382,-1.52542921071529,10.5998007960221));
#1561=CARTESIAN_POINT('',(-39.3493743169991,-2.05439694139679,10.6338136095268));
#1562=CARTESIAN_POINT('',(-38.8008041782263,-2.25000000000001,10.7045519188813));
#1563=CARTESIAN_POINT('',(-38.53156816305,-2.25000000000001,10.7386337537059));
#1564=CARTESIAN_POINT('',(-7.65378971138991E-17,-1.25000000000001,0.));
#1565=CARTESIAN_POINT('',(0.,0.,-1.73472347597681E-15));
#1566=MECHANICAL_DESIGN_GEOMETRIC_PRESENTATION_REPRESENTATION('',(#792,
#793,#794,#795,#796,#797,#798,#799,#800,#801,#802,#803),#1567);
#1567=(
GEOMETRIC_REPRESENTATION_CONTEXT(3)
GLOBAL_UNCERTAINTY_ASSIGNED_CONTEXT((#1572))
GLOBAL_UNIT_ASSIGNED_CONTEXT((#1579,#1578,#1577))
REPRESENTATION_CONTEXT(
'UBPFT\X2\5E2651B2538B4E0989D25F625EA798764E1D59167403976274038F74627F\X0\',
'TOP_LEVEL_ASSEMBLY_PART')
);
#1568=(
GEOMETRIC_REPRESENTATION_CONTEXT(3)
GLOBAL_UNCERTAINTY_ASSIGNED_CONTEXT((#1573))
GLOBAL_UNIT_ASSIGNED_CONTEXT((#1579,#1578,#1577))
REPRESENTATION_CONTEXT('UB\X2\88C5914D4F53\X0\','COMPONENT_PART')
);
#1569=(
GEOMETRIC_REPRESENTATION_CONTEXT(3)
GLOBAL_UNCERTAINTY_ASSIGNED_CONTEXT((#1574))
GLOBAL_UNIT_ASSIGNED_CONTEXT((#1579,#1578,#1577))
REPRESENTATION_CONTEXT('UC\X2\74038F74627F\X0\','COMPONENT_PART')
);
#1570=(
GEOMETRIC_REPRESENTATION_CONTEXT(3)
GLOBAL_UNCERTAINTY_ASSIGNED_CONTEXT((#1575))
GLOBAL_UNIT_ASSIGNED_CONTEXT((#1579,#1578,#1577))
REPRESENTATION_CONTEXT('\X2\98764E1D\X0\','COMPONENT_PART')
);
#1571=(
GEOMETRIC_REPRESENTATION_CONTEXT(3)
GLOBAL_UNCERTAINTY_ASSIGNED_CONTEXT((#1576))
GLOBAL_UNIT_ASSIGNED_CONTEXT((#1579,#1578,#1577))
REPRESENTATION_CONTEXT('PTF\X2\51B2538B4E0989D25F625EA7\X0\',
'COMPONENT_PART')
);
#1572=UNCERTAINTY_MEASURE_WITH_UNIT(LENGTH_MEASURE(0.005),#1579,
'DISTANCE_ACCURACY_VALUE','Maximum Tolerance applied to model');
#1573=UNCERTAINTY_MEASURE_WITH_UNIT(LENGTH_MEASURE(0.005),#1579,
'DISTANCE_ACCURACY_VALUE','Maximum Tolerance applied to model');
#1574=UNCERTAINTY_MEASURE_WITH_UNIT(LENGTH_MEASURE(0.005),#1579,
'DISTANCE_ACCURACY_VALUE','Maximum Tolerance applied to model');
#1575=UNCERTAINTY_MEASURE_WITH_UNIT(LENGTH_MEASURE(0.005),#1579,
'DISTANCE_ACCURACY_VALUE','Maximum Tolerance applied to model');
#1576=UNCERTAINTY_MEASURE_WITH_UNIT(LENGTH_MEASURE(0.005),#1579,
'DISTANCE_ACCURACY_VALUE','Maximum Tolerance applied to model');
#1577=(
NAMED_UNIT(*)
SI_UNIT($,.STERADIAN.)
SOLID_ANGLE_UNIT()
);
#1578=(
NAMED_UNIT(*)
PLANE_ANGLE_UNIT()
SI_UNIT($,.RADIAN.)
);
#1579=(
LENGTH_UNIT()
NAMED_UNIT(*)
SI_UNIT(.MILLI.,.METRE.)
);
#1580=PRODUCT_DEFINITION_SHAPE('','',#1590);
#1581=PRODUCT_DEFINITION_SHAPE('','',#1591);
#1582=PRODUCT_DEFINITION_SHAPE('','',#1592);
#1583=PRODUCT_DEFINITION_SHAPE(' ','NAUO PRDDFN',#59);
#1584=PRODUCT_DEFINITION_SHAPE('','',#1593);
#1585=PRODUCT_DEFINITION_SHAPE(' ','NAUO PRDDFN',#60);
#1586=PRODUCT_DEFINITION_SHAPE(' ','NAUO PRDDFN',#61);
#1587=PRODUCT_DEFINITION_SHAPE(' ','NAUO PRDDFN',#62);
#1588=PRODUCT_DEFINITION_SHAPE('','',#1594);
#1589=PRODUCT_DEFINITION_SHAPE(' ','NAUO PRDDFN',#63);
#1590=PRODUCT_DEFINITION('','',#1600,#1595);
#1591=PRODUCT_DEFINITION('','',#1601,#1596);
#1592=PRODUCT_DEFINITION('','',#1602,#1597);
#1593=PRODUCT_DEFINITION('','',#1603,#1598);
#1594=PRODUCT_DEFINITION('','',#1604,#1599);
#1595=PRODUCT_DEFINITION_CONTEXT('',#1626,'design');
#1596=PRODUCT_DEFINITION_CONTEXT('',#1626,'design');
#1597=PRODUCT_DEFINITION_CONTEXT('',#1626,'design');
#1598=PRODUCT_DEFINITION_CONTEXT('',#1626,'design');
#1599=PRODUCT_DEFINITION_CONTEXT('',#1626,'design');
#1600=PRODUCT_DEFINITION_FORMATION_WITH_SPECIFIED_SOURCE('','',#1610,
 .NOT_KNOWN.);
#1601=PRODUCT_DEFINITION_FORMATION_WITH_SPECIFIED_SOURCE('','',#1611,
 .NOT_KNOWN.);
#1602=PRODUCT_DEFINITION_FORMATION_WITH_SPECIFIED_SOURCE('','',#1612,
 .NOT_KNOWN.);
#1603=PRODUCT_DEFINITION_FORMATION_WITH_SPECIFIED_SOURCE('','',#1613,
 .NOT_KNOWN.);
#1604=PRODUCT_DEFINITION_FORMATION_WITH_SPECIFIED_SOURCE('','',#1614,
 .NOT_KNOWN.);
#1605=PRODUCT_RELATED_PRODUCT_CATEGORY('','',(#1610));
#1606=PRODUCT_RELATED_PRODUCT_CATEGORY('','',(#1611));
#1607=PRODUCT_RELATED_PRODUCT_CATEGORY('','',(#1612));
#1608=PRODUCT_RELATED_PRODUCT_CATEGORY('','',(#1613));
#1609=PRODUCT_RELATED_PRODUCT_CATEGORY('','',(#1614));
#1610=PRODUCT('UBPFT\X2\5E2651B2538B4E0989D25F625EA798764E1D59167403976274038F74627F\X0\',
'UBPFT\X2\5E2651B2538B4E0989D25F625EA798764E1D59167403976274038F74627F\X0\',
'UBPFT\X2\5E2651B2538B4E0989D25F625EA798764E1D59167403976274038F74627F\X0\',
(#1620));
#1611=PRODUCT('UB\X2\88C5914D4F53\X0\','UB\X2\88C5914D4F53\X0\',
'UB\X2\88C5914D4F53\X0\',(#1621));
#1612=PRODUCT('UC\X2\74038F74627F\X0\','UC\X2\74038F74627F\X0\',
'UC\X2\74038F74627F\X0\',(#1622));
#1613=PRODUCT('\X2\98764E1D\X0\','\X2\98764E1D\X0\','\X2\98764E1D\X0\',
(#1623));
#1614=PRODUCT('PTF\X2\51B2538B4E0989D25F625EA7\X0\',
'PTF\X2\51B2538B4E0989D25F625EA7\X0\','PTF\X2\51B2538B4E0989D25F625EA7\X0\',
(#1624));
#1615=PRODUCT_CATEGORY('','');
#1616=PRODUCT_CATEGORY('','');
#1617=PRODUCT_CATEGORY('','');
#1618=PRODUCT_CATEGORY('','');
#1619=PRODUCT_CATEGORY('','');
#1620=PRODUCT_CONTEXT('',#1626,'mechanical');
#1621=PRODUCT_CONTEXT('',#1626,'mechanical');
#1622=PRODUCT_CONTEXT('',#1626,'mechanical');
#1623=PRODUCT_CONTEXT('',#1626,'mechanical');
#1624=PRODUCT_CONTEXT('',#1626,'mechanical');
#1625=APPLICATION_PROTOCOL_DEFINITION('international standard',
'automotive_design',2010,#1626);
#1626=APPLICATION_CONTEXT(
'core data for automotive mechanical design processes');
ENDSEC;
END-ISO-10303-21;
