ISO-10303-21;
HEADER;
/* Generated by software containing HOOPS Exchange Step
 * from HOOPS Exchange, Inc. (www.tiangong.cloud) 
 */

FILE_DESCRIPTION(
/* description */ ('Unknown'),
/* implementation_level */ '2;1');

FILE_NAME(
/* name */ '\X2\950153E351855708578B89D263A589E674038F74627F\X0\',
/* time_stamp */ '2025-12-05T13:10:10+08:00',
/* author */ ('Unknown'),
/* organization */ ('Unknown'),
/* preprocessor_version */ 'ST-DEVELOPER v19.4',
/* originating_system */ 'TianGong',
/* authorisation */ 'Unknown');

FILE_SCHEMA (('AUTOMOTIVE_DESIGN {1 0 10303 214 3 1 1}'));
ENDSEC;

DATA;
#10=PROPERTY_DEFINITION_REPRESENTATION(#14,#12);
#11=PROPERTY_DEFINITION_REPRESENTATION(#15,#13);
#12=REPRESENTATION('',(#16),#613);
#13=REPRESENTATION('',(#17),#613);
#14=PROPERTY_DEFINITION('pmi validation property','',#618);
#15=PROPERTY_DEFINITION('pmi validation property','',#618);
#16=VALUE_REPRESENTATION_ITEM('number of annotations',COUNT_MEASURE(0.));
#17=VALUE_REPRESENTATION_ITEM('number of views',COUNT_MEASURE(0.));
#18=CYLINDRICAL_SURFACE('',#419,6.33333333333333);
#19=CYLINDRICAL_SURFACE('',#423,4.);
#20=CYLINDRICAL_SURFACE('',#431,8.66666666666667);
#21=CYLINDRICAL_SURFACE('',#435,8.66666666666667);
#22=CYLINDRICAL_SURFACE('',#439,11.);
#23=TOROIDAL_SURFACE('',#417,7.5,1.75);
#24=TOROIDAL_SURFACE('',#426,4.1,0.1);
#25=TOROIDAL_SURFACE('',#427,4.3,0.3);
#26=TOROIDAL_SURFACE('',#433,7.5,1.75);
#27=TOROIDAL_SURFACE('',#442,10.9,0.1);
#28=TOROIDAL_SURFACE('',#443,10.7,0.3);
#29=CONICAL_SURFACE('',#415,4.8,0.412909942055346);
#30=ORIENTED_EDGE('',*,*,#62,.T.);
#31=ORIENTED_EDGE('',*,*,#63,.T.);
#32=ORIENTED_EDGE('',*,*,#64,.T.);
#33=ORIENTED_EDGE('',*,*,#63,.F.);
#34=ORIENTED_EDGE('',*,*,#65,.T.);
#35=ORIENTED_EDGE('',*,*,#64,.F.);
#36=ORIENTED_EDGE('',*,*,#66,.T.);
#37=ORIENTED_EDGE('',*,*,#65,.F.);
#38=ORIENTED_EDGE('',*,*,#67,.T.);
#39=ORIENTED_EDGE('',*,*,#66,.F.);
#40=ORIENTED_EDGE('',*,*,#68,.T.);
#41=ORIENTED_EDGE('',*,*,#69,.T.);
#42=ORIENTED_EDGE('',*,*,#62,.F.);
#43=ORIENTED_EDGE('',*,*,#69,.F.);
#44=ORIENTED_EDGE('',*,*,#68,.F.);
#45=ORIENTED_EDGE('',*,*,#67,.F.);
#46=ORIENTED_EDGE('',*,*,#70,.T.);
#47=ORIENTED_EDGE('',*,*,#71,.F.);
#48=ORIENTED_EDGE('',*,*,#72,.F.);
#49=ORIENTED_EDGE('',*,*,#71,.T.);
#50=ORIENTED_EDGE('',*,*,#73,.F.);
#51=ORIENTED_EDGE('',*,*,#72,.T.);
#52=ORIENTED_EDGE('',*,*,#74,.F.);
#53=ORIENTED_EDGE('',*,*,#73,.T.);
#54=ORIENTED_EDGE('',*,*,#75,.T.);
#55=ORIENTED_EDGE('',*,*,#74,.T.);
#56=ORIENTED_EDGE('',*,*,#76,.T.);
#57=ORIENTED_EDGE('',*,*,#77,.T.);
#58=ORIENTED_EDGE('',*,*,#75,.F.);
#59=ORIENTED_EDGE('',*,*,#77,.F.);
#60=ORIENTED_EDGE('',*,*,#76,.F.);
#61=ORIENTED_EDGE('',*,*,#70,.F.);
#62=EDGE_CURVE('',#144,#144,#78,.F.);
#63=EDGE_CURVE('',#145,#145,#79,.T.);
#64=EDGE_CURVE('',#146,#146,#80,.T.);
#65=EDGE_CURVE('',#147,#147,#81,.T.);
#66=EDGE_CURVE('',#148,#148,#82,.T.);
#67=EDGE_CURVE('',#149,#149,#83,.F.);
#68=EDGE_CURVE('',#150,#150,#84,.T.);
#69=EDGE_CURVE('',#151,#151,#85,.T.);
#70=EDGE_CURVE('',#152,#152,#86,.F.);
#71=EDGE_CURVE('',#153,#153,#87,.T.);
#72=EDGE_CURVE('',#154,#154,#88,.T.);
#73=EDGE_CURVE('',#155,#155,#89,.T.);
#74=EDGE_CURVE('',#156,#156,#90,.T.);
#75=EDGE_CURVE('',#157,#157,#91,.F.);
#76=EDGE_CURVE('',#158,#158,#92,.T.);
#77=EDGE_CURVE('',#159,#159,#93,.T.);
#78=CIRCLE('',#413,4.1);
#79=CIRCLE('',#414,4.8);
#80=CIRCLE('',#416,5.96508741529485);
#81=CIRCLE('',#418,6.33333333333333);
#82=CIRCLE('',#420,6.33333333333333);
#83=CIRCLE('',#422,4.3);
#84=CIRCLE('',#424,4.);
#85=CIRCLE('',#425,4.);
#86=CIRCLE('',#429,10.7);
#87=CIRCLE('',#430,8.66666666666667);
#88=CIRCLE('',#432,8.66666666666667);
#89=CIRCLE('',#434,8.66666666666667);
#90=CIRCLE('',#436,8.66666666666667);
#91=CIRCLE('',#438,10.9);
#92=CIRCLE('',#440,11.);
#93=CIRCLE('',#441,11.);
#94=EDGE_LOOP('',(#30));
#95=EDGE_LOOP('',(#31));
#96=EDGE_LOOP('',(#32));
#97=EDGE_LOOP('',(#33));
#98=EDGE_LOOP('',(#34));
#99=EDGE_LOOP('',(#35));
#100=EDGE_LOOP('',(#36));
#101=EDGE_LOOP('',(#37));
#102=EDGE_LOOP('',(#38));
#103=EDGE_LOOP('',(#39));
#104=EDGE_LOOP('',(#40));
#105=EDGE_LOOP('',(#41));
#106=EDGE_LOOP('',(#42));
#107=EDGE_LOOP('',(#43));
#108=EDGE_LOOP('',(#44));
#109=EDGE_LOOP('',(#45));
#110=EDGE_LOOP('',(#46));
#111=EDGE_LOOP('',(#47));
#112=EDGE_LOOP('',(#48));
#113=EDGE_LOOP('',(#49));
#114=EDGE_LOOP('',(#50));
#115=EDGE_LOOP('',(#51));
#116=EDGE_LOOP('',(#52));
#117=EDGE_LOOP('',(#53));
#118=EDGE_LOOP('',(#54));
#119=EDGE_LOOP('',(#55));
#120=EDGE_LOOP('',(#56));
#121=EDGE_LOOP('',(#57));
#122=EDGE_LOOP('',(#58));
#123=EDGE_LOOP('',(#59));
#124=EDGE_LOOP('',(#60));
#125=EDGE_LOOP('',(#61));
#126=PLANE('',#412);
#127=PLANE('',#421);
#128=PLANE('',#428);
#129=PLANE('',#437);
#130=SHAPE_REPRESENTATION_RELATIONSHIP('','',#398,#131);
#131=ADVANCED_BREP_SHAPE_REPRESENTATION('',(#382,#383,#384,#385,#386,#387,
#388,#389,#390,#391,#392,#393,#394,#395,#396),#613);
#132=VERTEX_POINT('',#539);
#133=VERTEX_POINT('',#541);
#134=VERTEX_POINT('',#543);
#135=VERTEX_POINT('',#545);
#136=VERTEX_POINT('',#547);
#137=VERTEX_POINT('',#549);
#138=VERTEX_POINT('',#551);
#139=VERTEX_POINT('',#553);
#140=VERTEX_POINT('',#555);
#141=VERTEX_POINT('',#557);
#142=VERTEX_POINT('',#559);
#143=VERTEX_POINT('',#561);
#144=VERTEX_POINT('',#564);
#145=VERTEX_POINT('',#566);
#146=VERTEX_POINT('',#569);
#147=VERTEX_POINT('',#572);
#148=VERTEX_POINT('',#575);
#149=VERTEX_POINT('',#578);
#150=VERTEX_POINT('',#581);
#151=VERTEX_POINT('',#583);
#152=VERTEX_POINT('',#588);
#153=VERTEX_POINT('',#590);
#154=VERTEX_POINT('',#593);
#155=VERTEX_POINT('',#596);
#156=VERTEX_POINT('',#599);
#157=VERTEX_POINT('',#602);
#158=VERTEX_POINT('',#605);
#159=VERTEX_POINT('',#607);
#160=VERTEX_POINT('',#611);
#161=VERTEX_LOOP('',#132);
#162=VERTEX_LOOP('',#133);
#163=VERTEX_LOOP('',#134);
#164=VERTEX_LOOP('',#135);
#165=VERTEX_LOOP('',#136);
#166=VERTEX_LOOP('',#137);
#167=VERTEX_LOOP('',#138);
#168=VERTEX_LOOP('',#139);
#169=VERTEX_LOOP('',#140);
#170=VERTEX_LOOP('',#141);
#171=VERTEX_LOOP('',#142);
#172=VERTEX_LOOP('',#143);
#173=VERTEX_LOOP('',#160);
#174=FACE_BOUND('',#161,.T.);
#175=FACE_BOUND('',#162,.T.);
#176=FACE_BOUND('',#163,.T.);
#177=FACE_BOUND('',#164,.T.);
#178=FACE_BOUND('',#165,.T.);
#179=FACE_BOUND('',#166,.T.);
#180=FACE_BOUND('',#167,.T.);
#181=FACE_BOUND('',#168,.T.);
#182=FACE_BOUND('',#169,.T.);
#183=FACE_BOUND('',#170,.T.);
#184=FACE_BOUND('',#171,.T.);
#185=FACE_BOUND('',#172,.T.);
#186=FACE_BOUND('',#94,.T.);
#187=FACE_BOUND('',#95,.T.);
#188=FACE_BOUND('',#96,.T.);
#189=FACE_BOUND('',#97,.T.);
#190=FACE_BOUND('',#98,.T.);
#191=FACE_BOUND('',#99,.T.);
#192=FACE_BOUND('',#100,.T.);
#193=FACE_BOUND('',#101,.T.);
#194=FACE_BOUND('',#102,.T.);
#195=FACE_BOUND('',#103,.T.);
#196=FACE_BOUND('',#104,.T.);
#197=FACE_BOUND('',#105,.T.);
#198=FACE_BOUND('',#106,.T.);
#199=FACE_BOUND('',#107,.T.);
#200=FACE_BOUND('',#108,.T.);
#201=FACE_BOUND('',#109,.T.);
#202=FACE_BOUND('',#110,.T.);
#203=FACE_BOUND('',#111,.T.);
#204=FACE_BOUND('',#112,.T.);
#205=FACE_BOUND('',#113,.T.);
#206=FACE_BOUND('',#114,.T.);
#207=FACE_BOUND('',#115,.T.);
#208=FACE_BOUND('',#116,.T.);
#209=FACE_BOUND('',#117,.T.);
#210=FACE_BOUND('',#118,.T.);
#211=FACE_BOUND('',#119,.T.);
#212=FACE_BOUND('',#120,.T.);
#213=FACE_BOUND('',#121,.T.);
#214=FACE_BOUND('',#122,.T.);
#215=FACE_BOUND('',#123,.T.);
#216=FACE_BOUND('',#124,.T.);
#217=FACE_BOUND('',#125,.T.);
#218=FACE_BOUND('',#173,.T.);
#219=SPHERICAL_SURFACE('',#400,1.74);
#220=SPHERICAL_SURFACE('',#401,1.74);
#221=SPHERICAL_SURFACE('',#402,1.74);
#222=SPHERICAL_SURFACE('',#403,1.74);
#223=SPHERICAL_SURFACE('',#404,1.74);
#224=SPHERICAL_SURFACE('',#405,1.74);
#225=SPHERICAL_SURFACE('',#406,1.74);
#226=SPHERICAL_SURFACE('',#407,1.74);
#227=SPHERICAL_SURFACE('',#408,1.74);
#228=SPHERICAL_SURFACE('',#409,1.74);
#229=SPHERICAL_SURFACE('',#410,1.74);
#230=SPHERICAL_SURFACE('',#411,1.74);
#231=SPHERICAL_SURFACE('',#444,1.74);
#232=ADVANCED_FACE('',(#174),#219,.T.);
#233=ADVANCED_FACE('',(#175),#220,.T.);
#234=ADVANCED_FACE('',(#176),#221,.T.);
#235=ADVANCED_FACE('',(#177),#222,.T.);
#236=ADVANCED_FACE('',(#178),#223,.T.);
#237=ADVANCED_FACE('',(#179),#224,.T.);
#238=ADVANCED_FACE('',(#180),#225,.T.);
#239=ADVANCED_FACE('',(#181),#226,.T.);
#240=ADVANCED_FACE('',(#182),#227,.T.);
#241=ADVANCED_FACE('',(#183),#228,.T.);
#242=ADVANCED_FACE('',(#184),#229,.T.);
#243=ADVANCED_FACE('',(#185),#230,.T.);
#244=ADVANCED_FACE('',(#186,#187),#126,.T.);
#245=ADVANCED_FACE('',(#188,#189),#29,.T.);
#246=ADVANCED_FACE('',(#190,#191),#23,.F.);
#247=ADVANCED_FACE('',(#192,#193),#18,.T.);
#248=ADVANCED_FACE('',(#194,#195),#127,.T.);
#249=ADVANCED_FACE('',(#196,#197),#19,.F.);
#250=ADVANCED_FACE('',(#198,#199),#24,.T.);
#251=ADVANCED_FACE('',(#200,#201),#25,.T.);
#252=ADVANCED_FACE('',(#202,#203),#128,.F.);
#253=ADVANCED_FACE('',(#204,#205),#20,.F.);
#254=ADVANCED_FACE('',(#206,#207),#26,.F.);
#255=ADVANCED_FACE('',(#208,#209),#21,.F.);
#256=ADVANCED_FACE('',(#210,#211),#129,.F.);
#257=ADVANCED_FACE('',(#212,#213),#22,.T.);
#258=ADVANCED_FACE('',(#214,#215),#27,.T.);
#259=ADVANCED_FACE('',(#216,#217),#28,.T.);
#260=ADVANCED_FACE('',(#218),#231,.T.);
#261=CLOSED_SHELL('',(#232));
#262=CLOSED_SHELL('',(#233));
#263=CLOSED_SHELL('',(#234));
#264=CLOSED_SHELL('',(#235));
#265=CLOSED_SHELL('',(#236));
#266=CLOSED_SHELL('',(#237));
#267=CLOSED_SHELL('',(#238));
#268=CLOSED_SHELL('',(#239));
#269=CLOSED_SHELL('',(#240));
#270=CLOSED_SHELL('',(#241));
#271=CLOSED_SHELL('',(#242));
#272=CLOSED_SHELL('',(#243));
#273=CLOSED_SHELL('',(#244,#245,#246,#247,#248,#249,#250,#251));
#274=CLOSED_SHELL('',(#252,#253,#254,#255,#256,#257,#258,#259));
#275=CLOSED_SHELL('',(#260));
#276=STYLED_ITEM('',(#291),#382);
#277=STYLED_ITEM('',(#292),#383);
#278=STYLED_ITEM('',(#293),#384);
#279=STYLED_ITEM('',(#294),#385);
#280=STYLED_ITEM('',(#295),#386);
#281=STYLED_ITEM('',(#296),#387);
#282=STYLED_ITEM('',(#297),#388);
#283=STYLED_ITEM('',(#298),#389);
#284=STYLED_ITEM('',(#299),#390);
#285=STYLED_ITEM('',(#300),#391);
#286=STYLED_ITEM('',(#301),#392);
#287=STYLED_ITEM('',(#302),#393);
#288=STYLED_ITEM('',(#303),#394);
#289=STYLED_ITEM('',(#304),#395);
#290=STYLED_ITEM('',(#305),#396);
#291=PRESENTATION_STYLE_ASSIGNMENT((#306));
#292=PRESENTATION_STYLE_ASSIGNMENT((#307));
#293=PRESENTATION_STYLE_ASSIGNMENT((#308));
#294=PRESENTATION_STYLE_ASSIGNMENT((#309));
#295=PRESENTATION_STYLE_ASSIGNMENT((#310));
#296=PRESENTATION_STYLE_ASSIGNMENT((#311));
#297=PRESENTATION_STYLE_ASSIGNMENT((#312));
#298=PRESENTATION_STYLE_ASSIGNMENT((#313));
#299=PRESENTATION_STYLE_ASSIGNMENT((#314));
#300=PRESENTATION_STYLE_ASSIGNMENT((#315));
#301=PRESENTATION_STYLE_ASSIGNMENT((#316));
#302=PRESENTATION_STYLE_ASSIGNMENT((#317));
#303=PRESENTATION_STYLE_ASSIGNMENT((#318));
#304=PRESENTATION_STYLE_ASSIGNMENT((#319));
#305=PRESENTATION_STYLE_ASSIGNMENT((#320));
#306=SURFACE_STYLE_USAGE(.BOTH.,#321);
#307=SURFACE_STYLE_USAGE(.BOTH.,#322);
#308=SURFACE_STYLE_USAGE(.BOTH.,#323);
#309=SURFACE_STYLE_USAGE(.BOTH.,#324);
#310=SURFACE_STYLE_USAGE(.BOTH.,#325);
#311=SURFACE_STYLE_USAGE(.BOTH.,#326);
#312=SURFACE_STYLE_USAGE(.BOTH.,#327);
#313=SURFACE_STYLE_USAGE(.BOTH.,#328);
#314=SURFACE_STYLE_USAGE(.BOTH.,#329);
#315=SURFACE_STYLE_USAGE(.BOTH.,#330);
#316=SURFACE_STYLE_USAGE(.BOTH.,#331);
#317=SURFACE_STYLE_USAGE(.BOTH.,#332);
#318=SURFACE_STYLE_USAGE(.BOTH.,#333);
#319=SURFACE_STYLE_USAGE(.BOTH.,#334);
#320=SURFACE_STYLE_USAGE(.BOTH.,#335);
#321=SURFACE_SIDE_STYLE('',(#336));
#322=SURFACE_SIDE_STYLE('',(#337));
#323=SURFACE_SIDE_STYLE('',(#338));
#324=SURFACE_SIDE_STYLE('',(#339));
#325=SURFACE_SIDE_STYLE('',(#340));
#326=SURFACE_SIDE_STYLE('',(#341));
#327=SURFACE_SIDE_STYLE('',(#342));
#328=SURFACE_SIDE_STYLE('',(#343));
#329=SURFACE_SIDE_STYLE('',(#344));
#330=SURFACE_SIDE_STYLE('',(#345));
#331=SURFACE_SIDE_STYLE('',(#346));
#332=SURFACE_SIDE_STYLE('',(#347));
#333=SURFACE_SIDE_STYLE('',(#348));
#334=SURFACE_SIDE_STYLE('',(#349));
#335=SURFACE_SIDE_STYLE('',(#350));
#336=SURFACE_STYLE_FILL_AREA(#351);
#337=SURFACE_STYLE_FILL_AREA(#352);
#338=SURFACE_STYLE_FILL_AREA(#353);
#339=SURFACE_STYLE_FILL_AREA(#354);
#340=SURFACE_STYLE_FILL_AREA(#355);
#341=SURFACE_STYLE_FILL_AREA(#356);
#342=SURFACE_STYLE_FILL_AREA(#357);
#343=SURFACE_STYLE_FILL_AREA(#358);
#344=SURFACE_STYLE_FILL_AREA(#359);
#345=SURFACE_STYLE_FILL_AREA(#360);
#346=SURFACE_STYLE_FILL_AREA(#361);
#347=SURFACE_STYLE_FILL_AREA(#362);
#348=SURFACE_STYLE_FILL_AREA(#363);
#349=SURFACE_STYLE_FILL_AREA(#364);
#350=SURFACE_STYLE_FILL_AREA(#365);
#351=FILL_AREA_STYLE('',(#366));
#352=FILL_AREA_STYLE('',(#367));
#353=FILL_AREA_STYLE('',(#368));
#354=FILL_AREA_STYLE('',(#369));
#355=FILL_AREA_STYLE('',(#370));
#356=FILL_AREA_STYLE('',(#371));
#357=FILL_AREA_STYLE('',(#372));
#358=FILL_AREA_STYLE('',(#373));
#359=FILL_AREA_STYLE('',(#374));
#360=FILL_AREA_STYLE('',(#375));
#361=FILL_AREA_STYLE('',(#376));
#362=FILL_AREA_STYLE('',(#377));
#363=FILL_AREA_STYLE('',(#378));
#364=FILL_AREA_STYLE('',(#379));
#365=FILL_AREA_STYLE('',(#380));
#366=FILL_AREA_STYLE_COLOUR('',#381);
#367=FILL_AREA_STYLE_COLOUR('',#381);
#368=FILL_AREA_STYLE_COLOUR('',#381);
#369=FILL_AREA_STYLE_COLOUR('',#381);
#370=FILL_AREA_STYLE_COLOUR('',#381);
#371=FILL_AREA_STYLE_COLOUR('',#381);
#372=FILL_AREA_STYLE_COLOUR('',#381);
#373=FILL_AREA_STYLE_COLOUR('',#381);
#374=FILL_AREA_STYLE_COLOUR('',#381);
#375=FILL_AREA_STYLE_COLOUR('',#381);
#376=FILL_AREA_STYLE_COLOUR('',#381);
#377=FILL_AREA_STYLE_COLOUR('',#381);
#378=FILL_AREA_STYLE_COLOUR('',#381);
#379=FILL_AREA_STYLE_COLOUR('',#381);
#380=FILL_AREA_STYLE_COLOUR('',#381);
#381=COLOUR_RGB('',0.506983280181885,0.531564235687256,0.550000011920929);
#382=MANIFOLD_SOLID_BREP('',#261);
#383=MANIFOLD_SOLID_BREP('',#262);
#384=MANIFOLD_SOLID_BREP('',#263);
#385=MANIFOLD_SOLID_BREP('',#264);
#386=MANIFOLD_SOLID_BREP('',#265);
#387=MANIFOLD_SOLID_BREP('',#266);
#388=MANIFOLD_SOLID_BREP('',#267);
#389=MANIFOLD_SOLID_BREP('',#268);
#390=MANIFOLD_SOLID_BREP('',#269);
#391=MANIFOLD_SOLID_BREP('',#270);
#392=MANIFOLD_SOLID_BREP('',#271);
#393=MANIFOLD_SOLID_BREP('',#272);
#394=MANIFOLD_SOLID_BREP('',#273);
#395=MANIFOLD_SOLID_BREP('',#274);
#396=MANIFOLD_SOLID_BREP('',#275);
#397=SHAPE_DEFINITION_REPRESENTATION(#618,#398);
#398=SHAPE_REPRESENTATION('\X2\950153E351855708578B89D263A589E674038F74627F\X0\',
(#399),#613);
#399=AXIS2_PLACEMENT_3D('',#537,#445,#446);
#400=AXIS2_PLACEMENT_3D('',#538,#447,#448);
#401=AXIS2_PLACEMENT_3D('',#540,#449,#450);
#402=AXIS2_PLACEMENT_3D('',#542,#451,#452);
#403=AXIS2_PLACEMENT_3D('',#544,#453,#454);
#404=AXIS2_PLACEMENT_3D('',#546,#455,#456);
#405=AXIS2_PLACEMENT_3D('',#548,#457,#458);
#406=AXIS2_PLACEMENT_3D('',#550,#459,#460);
#407=AXIS2_PLACEMENT_3D('',#552,#461,#462);
#408=AXIS2_PLACEMENT_3D('',#554,#463,#464);
#409=AXIS2_PLACEMENT_3D('',#556,#465,#466);
#410=AXIS2_PLACEMENT_3D('',#558,#467,#468);
#411=AXIS2_PLACEMENT_3D('',#560,#469,#470);
#412=AXIS2_PLACEMENT_3D('',#562,#471,#472);
#413=AXIS2_PLACEMENT_3D('',#563,#473,#474);
#414=AXIS2_PLACEMENT_3D('',#565,#475,#476);
#415=AXIS2_PLACEMENT_3D('',#567,#477,#478);
#416=AXIS2_PLACEMENT_3D('',#568,#479,#480);
#417=AXIS2_PLACEMENT_3D('',#570,#481,#482);
#418=AXIS2_PLACEMENT_3D('',#571,#483,#484);
#419=AXIS2_PLACEMENT_3D('',#573,#485,#486);
#420=AXIS2_PLACEMENT_3D('',#574,#487,#488);
#421=AXIS2_PLACEMENT_3D('',#576,#489,#490);
#422=AXIS2_PLACEMENT_3D('',#577,#491,#492);
#423=AXIS2_PLACEMENT_3D('',#579,#493,#494);
#424=AXIS2_PLACEMENT_3D('',#580,#495,#496);
#425=AXIS2_PLACEMENT_3D('',#582,#497,#498);
#426=AXIS2_PLACEMENT_3D('',#584,#499,#500);
#427=AXIS2_PLACEMENT_3D('',#585,#501,#502);
#428=AXIS2_PLACEMENT_3D('',#586,#503,#504);
#429=AXIS2_PLACEMENT_3D('',#587,#505,#506);
#430=AXIS2_PLACEMENT_3D('',#589,#507,#508);
#431=AXIS2_PLACEMENT_3D('',#591,#509,#510);
#432=AXIS2_PLACEMENT_3D('',#592,#511,#512);
#433=AXIS2_PLACEMENT_3D('',#594,#513,#514);
#434=AXIS2_PLACEMENT_3D('',#595,#515,#516);
#435=AXIS2_PLACEMENT_3D('',#597,#517,#518);
#436=AXIS2_PLACEMENT_3D('',#598,#519,#520);
#437=AXIS2_PLACEMENT_3D('',#600,#521,#522);
#438=AXIS2_PLACEMENT_3D('',#601,#523,#524);
#439=AXIS2_PLACEMENT_3D('',#603,#525,#526);
#440=AXIS2_PLACEMENT_3D('',#604,#527,#528);
#441=AXIS2_PLACEMENT_3D('',#606,#529,#530);
#442=AXIS2_PLACEMENT_3D('',#608,#531,#532);
#443=AXIS2_PLACEMENT_3D('',#609,#533,#534);
#444=AXIS2_PLACEMENT_3D('',#610,#535,#536);
#445=DIRECTION('',(0.,0.,1.));
#446=DIRECTION('',(1.,0.,0.));
#447=DIRECTION('',(1.83697019872103E-16,0.464723172043769,-0.88545602565321));
#448=DIRECTION('',(-1.,8.5368261769951E-17,-1.62655633140291E-16));
#449=DIRECTION('',(1.83697019872103E-16,0.822983865893657,-0.568064746731156));
#450=DIRECTION('',(-1.,1.51179683567487E-16,-1.04351801068914E-16));
#451=DIRECTION('',(1.83697019872103E-16,0.935016242685415,0.354604887042536));
#452=DIRECTION('',(-1.,1.71759697313322E-16,6.51398609817975E-17));
#453=DIRECTION('',(1.83697019872103E-16,0.239315664287557,0.970941817426052));
#454=DIRECTION('',(-1.,4.39615743383369E-17,1.78359118330369E-16));
#455=DIRECTION('',(1.83697019872103E-16,-0.663122658240795,0.748510748171101));
#456=DIRECTION('',(-1.,-1.21813656128501E-16,1.37499193781269E-16));
#457=DIRECTION('',(1.83697019872103E-16,-0.992708874098054,-0.120536680255322));
#458=DIRECTION('',(-1.,-1.82357661772403E-16,-2.21422289481793E-17));
#459=DIRECTION('',(1.83697019872103E-16,-0.464723172043768,-0.88545602565321));
#460=DIRECTION('',(-1.,-8.53682617699508E-17,-1.62655633140291E-16));
#461=DIRECTION('',(1.83697019872103E-16,0.992708874098054,-0.120536680255322));
#462=DIRECTION('',(-1.,1.82357661772403E-16,-2.21422289481793E-17));
#463=DIRECTION('',(1.83697019872103E-16,0.663122658240795,0.748510748171101));
#464=DIRECTION('',(-1.,1.21813656128501E-16,1.37499193781269E-16));
#465=DIRECTION('',(1.83697019872103E-16,-0.239315664287557,0.970941817426052));
#466=DIRECTION('',(-1.,-4.3961574338337E-17,1.78359118330369E-16));
#467=DIRECTION('',(1.83697019872103E-16,-0.935016242685415,0.354604887042536));
#468=DIRECTION('',(-1.,-1.71759697313322E-16,6.51398609817975E-17));
#469=DIRECTION('',(1.83697019872103E-16,-0.822983865893657,-0.568064746731156));
#470=DIRECTION('',(-1.,-1.51179683567487E-16,-1.04351801068914E-16));
#471=DIRECTION('',(-1.,0.,0.));
#472=DIRECTION('',(0.,0.,1.));
#473=DIRECTION('',(-1.,0.,0.));
#474=DIRECTION('',(0.,0.,1.));
#475=DIRECTION('',(-1.,0.,0.));
#476=DIRECTION('',(0.,0.,1.));
#477=DIRECTION('',(1.,0.,0.));
#478=DIRECTION('',(0.,0.,-1.));
#479=DIRECTION('',(-1.,0.,0.));
#480=DIRECTION('',(0.,0.,1.));
#481=DIRECTION('',(-1.,0.,0.));
#482=DIRECTION('',(0.,0.,1.));
#483=DIRECTION('',(-1.,0.,0.));
#484=DIRECTION('',(0.,0.,1.));
#485=DIRECTION('',(-1.,0.,0.));
#486=DIRECTION('',(0.,0.,1.));
#487=DIRECTION('',(-1.,0.,0.));
#488=DIRECTION('',(0.,0.,1.));
#489=DIRECTION('',(1.,0.,0.));
#490=DIRECTION('',(0.,0.,-1.));
#491=DIRECTION('',(1.,0.,0.));
#492=DIRECTION('',(0.,0.,-1.));
#493=DIRECTION('',(-1.,0.,0.));
#494=DIRECTION('',(0.,0.,1.));
#495=DIRECTION('',(1.,0.,0.));
#496=DIRECTION('',(0.,0.,-1.));
#497=DIRECTION('',(-1.,0.,0.));
#498=DIRECTION('',(0.,0.,1.));
#499=DIRECTION('',(-1.,0.,0.));
#500=DIRECTION('',(0.,0.,1.));
#501=DIRECTION('',(1.,0.,0.));
#502=DIRECTION('',(0.,0.,-1.));
#503=DIRECTION('',(1.,0.,0.));
#504=DIRECTION('',(0.,0.,-1.));
#505=DIRECTION('',(1.,0.,0.));
#506=DIRECTION('',(0.,0.,-1.));
#507=DIRECTION('',(-1.,0.,0.));
#508=DIRECTION('',(0.,0.,1.));
#509=DIRECTION('',(-1.,0.,0.));
#510=DIRECTION('',(0.,0.,1.));
#511=DIRECTION('',(-1.,0.,0.));
#512=DIRECTION('',(0.,0.,1.));
#513=DIRECTION('',(-1.,0.,0.));
#514=DIRECTION('',(0.,0.,1.));
#515=DIRECTION('',(-1.,0.,0.));
#516=DIRECTION('',(0.,0.,1.));
#517=DIRECTION('',(-1.,0.,0.));
#518=DIRECTION('',(0.,0.,1.));
#519=DIRECTION('',(-1.,0.,0.));
#520=DIRECTION('',(0.,0.,1.));
#521=DIRECTION('',(-1.,0.,0.));
#522=DIRECTION('',(0.,0.,1.));
#523=DIRECTION('',(-1.,0.,0.));
#524=DIRECTION('',(0.,0.,1.));
#525=DIRECTION('',(-1.,0.,0.));
#526=DIRECTION('',(0.,0.,1.));
#527=DIRECTION('',(1.,0.,0.));
#528=DIRECTION('',(0.,0.,-1.));
#529=DIRECTION('',(-1.,0.,0.));
#530=DIRECTION('',(0.,0.,1.));
#531=DIRECTION('',(-1.,0.,0.));
#532=DIRECTION('',(0.,0.,1.));
#533=DIRECTION('',(1.,0.,0.));
#534=DIRECTION('',(0.,0.,-1.));
#535=DIRECTION('',(1.83697019872103E-16,0.,-1.));
#536=DIRECTION('',(-1.,0.,-1.83697019872103E-16));
#537=CARTESIAN_POINT('',(0.,0.,0.));
#538=CARTESIAN_POINT('',(4.28626379701574E-16,-3.48542379032827,6.64092019239907));
#539=CARTESIAN_POINT('',(2.44929359829455E-18,-4.29404210968443,8.18161367703566));
#540=CARTESIAN_POINT('',(4.28626379701574E-16,-6.17237899420242,4.26048560048367));
#541=CARTESIAN_POINT('',(2.44929359829455E-18,-7.60437092085739,5.24891825979588));
#542=CARTESIAN_POINT('',(4.28626379701574E-16,-7.01262182014061,-2.65953665281902));
#543=CARTESIAN_POINT('',(2.44929359829455E-18,-8.63955008241323,-3.27654915627303));
#544=CARTESIAN_POINT('',(4.28626379701574E-16,-1.79486748215668,-7.28206363069539));
#545=CARTESIAN_POINT('',(2.4492935982946E-18,-2.21127673801703,-8.97150239301672));
#546=CARTESIAN_POINT('',(4.28626379701574E-16,4.97341993680597,-5.61383061128326));
#547=CARTESIAN_POINT('',(2.44929359829455E-18,6.12725336214495,-6.91623931310097));
#548=CARTESIAN_POINT('',(4.28626379701574E-16,7.44531655573541,0.904025101914917));
#549=CARTESIAN_POINT('',(2.44929359829455E-18,9.17262999666602,1.11375892555918));
#550=CARTESIAN_POINT('',(4.28626379701574E-16,3.48542379032826,6.64092019239907));
#551=CARTESIAN_POINT('',(2.44929359829455E-18,4.29404210968442,8.18161367703566));
#552=CARTESIAN_POINT('',(4.28626379701574E-16,-7.44531655573541,0.904025101914917));
#553=CARTESIAN_POINT('',(2.44929359829455E-18,-9.17262999666602,1.11375892555918));
#554=CARTESIAN_POINT('',(4.28626379701574E-16,-4.97341993680596,-5.61383061128326));
#555=CARTESIAN_POINT('',(2.44929359829455E-18,-6.12725336214494,-6.91623931310098));
#556=CARTESIAN_POINT('',(4.28626379701574E-16,1.79486748215668,-7.28206363069539));
#557=CARTESIAN_POINT('',(2.4492935982946E-18,2.21127673801703,-8.97150239301672));
#558=CARTESIAN_POINT('',(4.28626379701574E-16,7.01262182014061,-2.65953665281902));
#559=CARTESIAN_POINT('',(2.44929359829455E-18,8.63955008241323,-3.27654915627303));
#560=CARTESIAN_POINT('',(4.28626379701574E-16,6.17237899420242,4.26048560048367));
#561=CARTESIAN_POINT('',(2.44929359829455E-18,7.60437092085739,5.24891825979588));
#562=CARTESIAN_POINT('',(-3.5,0.,4.8));
#563=CARTESIAN_POINT('',(-3.5,0.,0.));
#564=CARTESIAN_POINT('',(-3.5,0.,4.1));
#565=CARTESIAN_POINT('',(-3.5,0.,0.));
#566=CARTESIAN_POINT('',(-3.5,0.,4.8));
#567=CARTESIAN_POINT('',(-3.5,0.,0.));
#568=CARTESIAN_POINT('',(-0.840561334653067,0.,0.));
#569=CARTESIAN_POINT('',(-0.840561334653067,0.,5.96508741529485));
#570=CARTESIAN_POINT('',(4.28626379701574E-16,0.,0.));
#571=CARTESIAN_POINT('',(1.30437298687488,0.,0.));
#572=CARTESIAN_POINT('',(1.30437298687488,0.,6.33333333333333));
#573=CARTESIAN_POINT('',(0.,0.,0.));
#574=CARTESIAN_POINT('',(3.5,0.,0.));
#575=CARTESIAN_POINT('',(3.5,0.,6.33333333333333));
#576=CARTESIAN_POINT('',(3.5,0.,4.));
#577=CARTESIAN_POINT('',(3.5,0.,0.));
#578=CARTESIAN_POINT('',(3.5,0.,-4.3));
#579=CARTESIAN_POINT('',(0.,0.,0.));
#580=CARTESIAN_POINT('',(3.2,0.,0.));
#581=CARTESIAN_POINT('',(3.2,0.,-4.));
#582=CARTESIAN_POINT('',(-3.4,0.,0.));
#583=CARTESIAN_POINT('',(-3.4,0.,4.));
#584=CARTESIAN_POINT('',(-3.4,0.,0.));
#585=CARTESIAN_POINT('',(3.2,0.,0.));
#586=CARTESIAN_POINT('',(-3.5,0.,11.));
#587=CARTESIAN_POINT('',(-3.5,0.,0.));
#588=CARTESIAN_POINT('',(-3.5,0.,-10.7));
#589=CARTESIAN_POINT('',(-3.5,0.,0.));
#590=CARTESIAN_POINT('',(-3.5,0.,8.66666666666667));
#591=CARTESIAN_POINT('',(0.,0.,0.));
#592=CARTESIAN_POINT('',(-1.30437298687488,0.,0.));
#593=CARTESIAN_POINT('',(-1.30437298687488,0.,8.66666666666667));
#594=CARTESIAN_POINT('',(4.28626379701574E-16,0.,0.));
#595=CARTESIAN_POINT('',(1.30437298687488,0.,0.));
#596=CARTESIAN_POINT('',(1.30437298687488,0.,8.66666666666667));
#597=CARTESIAN_POINT('',(0.,0.,0.));
#598=CARTESIAN_POINT('',(3.5,0.,0.));
#599=CARTESIAN_POINT('',(3.5,0.,8.66666666666667));
#600=CARTESIAN_POINT('',(3.5,0.,8.66666666666667));
#601=CARTESIAN_POINT('',(3.5,0.,0.));
#602=CARTESIAN_POINT('',(3.5,0.,10.9));
#603=CARTESIAN_POINT('',(0.,0.,0.));
#604=CARTESIAN_POINT('',(-3.2,0.,0.));
#605=CARTESIAN_POINT('',(-3.2,0.,-11.));
#606=CARTESIAN_POINT('',(3.4,0.,0.));
#607=CARTESIAN_POINT('',(3.4,0.,11.));
#608=CARTESIAN_POINT('',(3.4,0.,0.));
#609=CARTESIAN_POINT('',(-3.2,0.,0.));
#610=CARTESIAN_POINT('',(4.28626379701574E-16,0.,7.5));
#611=CARTESIAN_POINT('',(2.44929359829455E-18,0.,9.24));
#612=MECHANICAL_DESIGN_GEOMETRIC_PRESENTATION_REPRESENTATION('',(#276,#277,
#278,#279,#280,#281,#282,#283,#284,#285,#286,#287,#288,#289,#290),#613);
#613=(
GEOMETRIC_REPRESENTATION_CONTEXT(3)
GLOBAL_UNCERTAINTY_ASSIGNED_CONTEXT((#614))
GLOBAL_UNIT_ASSIGNED_CONTEXT((#617,#616,#615))
REPRESENTATION_CONTEXT('\X2\950153E351855708578B89D263A589E674038F74627F\X0\',
'TOP_LEVEL_ASSEMBLY_PART')
);
#614=UNCERTAINTY_MEASURE_WITH_UNIT(LENGTH_MEASURE(0.005),#617,
'DISTANCE_ACCURACY_VALUE','Maximum Tolerance applied to model');
#615=(
NAMED_UNIT(*)
SI_UNIT($,.STERADIAN.)
SOLID_ANGLE_UNIT()
);
#616=(
NAMED_UNIT(*)
PLANE_ANGLE_UNIT()
SI_UNIT($,.RADIAN.)
);
#617=(
LENGTH_UNIT()
NAMED_UNIT(*)
SI_UNIT(.MILLI.,.METRE.)
);
#618=PRODUCT_DEFINITION_SHAPE('','',#619);
#619=PRODUCT_DEFINITION('','',#621,#620);
#620=PRODUCT_DEFINITION_CONTEXT('',#627,'design');
#621=PRODUCT_DEFINITION_FORMATION_WITH_SPECIFIED_SOURCE('','',#623,
 .NOT_KNOWN.);
#622=PRODUCT_RELATED_PRODUCT_CATEGORY('','',(#623));
#623=PRODUCT('\X2\950153E351855708578B89D263A589E674038F74627F\X0\',
'\X2\950153E351855708578B89D263A589E674038F74627F\X0\',
'\X2\950153E351855708578B89D263A589E674038F74627F\X0\',(#625));
#624=PRODUCT_CATEGORY('','');
#625=PRODUCT_CONTEXT('',#627,'mechanical');
#626=APPLICATION_PROTOCOL_DEFINITION('international standard',
'automotive_design',2010,#627);
#627=APPLICATION_CONTEXT(
'core data for automotive mechanical design processes');
ENDSEC;
END-ISO-10303-21;
