ISO-10303-21;
HEADER;
/* Generated by software containing HOOPS Exchange Step
 * from HOOPS Exchange, Inc. (www.tiangong.cloud) 
 */

FILE_DESCRIPTION(
/* description */ ('Unknown'),
/* implementation_level */ '2;1');

FILE_NAME(
/* name */ '\X2\570667F15B548C035FC374038F74627F\X0\10000K\X2\578B\X0\',

/* time_stamp */ '2025-10-13T02:54:03+08:00',
/* author */ ('Unknown'),
/* organization */ ('Unknown'),
/* preprocessor_version */ 'ST-DEVELOPER v19.4',
/* originating_system */ 'TianGong',
/* authorisation */ 'Unknown');

FILE_SCHEMA (('AUTOMOTIVE_DESIGN {1 0 10303 214 3 1 1}'));
ENDSEC;

DATA;
#10=PROPERTY_DEFINITION_REPRESENTATION(#14,#12);
#11=PROPERTY_DEFINITION_REPRESENTATION(#15,#13);
#12=REPRESENTATION('',(#16),#1050);
#13=REPRESENTATION('',(#17),#1050);
#14=PROPERTY_DEFINITION('pmi validation property','',#1055);
#15=PROPERTY_DEFINITION('pmi validation property','',#1055);
#16=VALUE_REPRESENTATION_ITEM('number of annotations',COUNT_MEASURE(0.));
#17=VALUE_REPRESENTATION_ITEM('number of views',COUNT_MEASURE(0.));
#18=CONICAL_SURFACE('',#785,9.5,0.0831412318884413);
#19=TOROIDAL_SURFACE('',#768,19.4,0.6);
#20=TOROIDAL_SURFACE('',#769,19.4,0.6);
#21=TOROIDAL_SURFACE('',#778,14.556165540428,2.37616554042796);
#22=TOROIDAL_SURFACE('',#782,14.556165540428,2.37616554042796);
#23=TOROIDAL_SURFACE('',#788,10.0520797289396,0.6);
#24=TOROIDAL_SURFACE('',#789,9.15207972893961,0.6);
#25=CYLINDRICAL_SURFACE('',#765,20.);
#26=CYLINDRICAL_SURFACE('',#776,12.64);
#27=CYLINDRICAL_SURFACE('',#780,12.64);
#28=CYLINDRICAL_SURFACE('',#784,12.64);
#29=ORIENTED_EDGE('',*,*,#61,.T.);
#30=ORIENTED_EDGE('',*,*,#62,.F.);
#31=ORIENTED_EDGE('',*,*,#63,.F.);
#32=ORIENTED_EDGE('',*,*,#62,.T.);
#33=ORIENTED_EDGE('',*,*,#64,.T.);
#34=ORIENTED_EDGE('',*,*,#63,.T.);
#35=ORIENTED_EDGE('',*,*,#65,.T.);
#36=ORIENTED_EDGE('',*,*,#66,.T.);
#37=ORIENTED_EDGE('',*,*,#66,.F.);
#38=ORIENTED_EDGE('',*,*,#61,.F.);
#39=ORIENTED_EDGE('',*,*,#64,.F.);
#40=ORIENTED_EDGE('',*,*,#65,.F.);
#41=ORIENTED_EDGE('',*,*,#67,.T.);
#42=ORIENTED_EDGE('',*,*,#68,.T.);
#43=ORIENTED_EDGE('',*,*,#69,.T.);
#44=ORIENTED_EDGE('',*,*,#70,.F.);
#45=ORIENTED_EDGE('',*,*,#71,.F.);
#46=ORIENTED_EDGE('',*,*,#70,.T.);
#47=ORIENTED_EDGE('',*,*,#72,.F.);
#48=ORIENTED_EDGE('',*,*,#71,.T.);
#49=ORIENTED_EDGE('',*,*,#73,.F.);
#50=ORIENTED_EDGE('',*,*,#72,.T.);
#51=ORIENTED_EDGE('',*,*,#74,.F.);
#52=ORIENTED_EDGE('',*,*,#73,.T.);
#53=ORIENTED_EDGE('',*,*,#68,.F.);
#54=ORIENTED_EDGE('',*,*,#74,.T.);
#55=ORIENTED_EDGE('',*,*,#75,.T.);
#56=ORIENTED_EDGE('',*,*,#76,.T.);
#57=ORIENTED_EDGE('',*,*,#76,.F.);
#58=ORIENTED_EDGE('',*,*,#69,.F.);
#59=ORIENTED_EDGE('',*,*,#67,.F.);
#60=ORIENTED_EDGE('',*,*,#75,.F.);
#61=EDGE_CURVE('',#167,#167,#77,.F.);
#62=EDGE_CURVE('',#168,#168,#78,.T.);
#63=EDGE_CURVE('',#169,#169,#79,.T.);
#64=EDGE_CURVE('',#170,#170,#80,.F.);
#65=EDGE_CURVE('',#171,#171,#81,.T.);
#66=EDGE_CURVE('',#172,#172,#82,.T.);
#67=EDGE_CURVE('',#173,#173,#83,.T.);
#68=EDGE_CURVE('',#174,#174,#84,.T.);
#69=EDGE_CURVE('',#175,#175,#85,.T.);
#70=EDGE_CURVE('',#176,#176,#86,.T.);
#71=EDGE_CURVE('',#177,#177,#87,.T.);
#72=EDGE_CURVE('',#178,#178,#88,.T.);
#73=EDGE_CURVE('',#179,#179,#89,.T.);
#74=EDGE_CURVE('',#180,#180,#90,.T.);
#75=EDGE_CURVE('',#181,#181,#91,.F.);
#76=EDGE_CURVE('',#182,#182,#92,.T.);
#77=CIRCLE('',#759,19.4);
#78=CIRCLE('',#760,16.0395020184543);
#79=CIRCLE('',#762,16.0395020184543);
#80=CIRCLE('',#764,19.4);
#81=CIRCLE('',#766,20.);
#82=CIRCLE('',#767,20.);
#83=CIRCLE('',#771,9.15207972893961);
#84=CIRCLE('',#772,12.64);
#85=CIRCLE('',#774,10.0520797289396);
#86=CIRCLE('',#775,12.64);
#87=CIRCLE('',#777,12.64);
#88=CIRCLE('',#779,12.64);
#89=CIRCLE('',#781,12.64);
#90=CIRCLE('',#783,12.64);
#91=CIRCLE('',#786,8.55415227399269);
#92=CIRCLE('',#787,9.45415227399269);
#93=EDGE_LOOP('',(#29));
#94=EDGE_LOOP('',(#30));
#95=EDGE_LOOP('',(#31));
#96=EDGE_LOOP('',(#32));
#97=EDGE_LOOP('',(#33));
#98=EDGE_LOOP('',(#34));
#99=EDGE_LOOP('',(#35));
#100=EDGE_LOOP('',(#36));
#101=EDGE_LOOP('',(#37));
#102=EDGE_LOOP('',(#38));
#103=EDGE_LOOP('',(#39));
#104=EDGE_LOOP('',(#40));
#105=EDGE_LOOP('',(#41));
#106=EDGE_LOOP('',(#42));
#107=EDGE_LOOP('',(#43));
#108=EDGE_LOOP('',(#44));
#109=EDGE_LOOP('',(#45));
#110=EDGE_LOOP('',(#46));
#111=EDGE_LOOP('',(#47));
#112=EDGE_LOOP('',(#48));
#113=EDGE_LOOP('',(#49));
#114=EDGE_LOOP('',(#50));
#115=EDGE_LOOP('',(#51));
#116=EDGE_LOOP('',(#52));
#117=EDGE_LOOP('',(#53));
#118=EDGE_LOOP('',(#54));
#119=EDGE_LOOP('',(#55));
#120=EDGE_LOOP('',(#56));
#121=EDGE_LOOP('',(#57));
#122=EDGE_LOOP('',(#58));
#123=EDGE_LOOP('',(#59));
#124=EDGE_LOOP('',(#60));
#125=PLANE('',#758);
#126=PLANE('',#763);
#127=PLANE('',#770);
#128=PLANE('',#773);
#129=SHAPE_REPRESENTATION_RELATIONSHIP('','',#720,#130);
#130=ADVANCED_BREP_SHAPE_REPRESENTATION('',(#681,#682,#683,#684,#685,#686,
#687,#688,#689,#690,#691,#692,#693,#694,#695,#696,#697,#698,#699,#700,#701,
#702,#703,#704,#705,#706,#707,#708,#709,#710,#711,#712,#713,#714,#715,#716,
#717,#718),#1050);
#131=VERTEX_POINT('',#930);
#132=VERTEX_POINT('',#932);
#133=VERTEX_POINT('',#934);
#134=VERTEX_POINT('',#936);
#135=VERTEX_POINT('',#938);
#136=VERTEX_POINT('',#940);
#137=VERTEX_POINT('',#942);
#138=VERTEX_POINT('',#944);
#139=VERTEX_POINT('',#946);
#140=VERTEX_POINT('',#948);
#141=VERTEX_POINT('',#950);
#142=VERTEX_POINT('',#952);
#143=VERTEX_POINT('',#954);
#144=VERTEX_POINT('',#956);
#145=VERTEX_POINT('',#958);
#146=VERTEX_POINT('',#960);
#147=VERTEX_POINT('',#962);
#148=VERTEX_POINT('',#964);
#149=VERTEX_POINT('',#966);
#150=VERTEX_POINT('',#968);
#151=VERTEX_POINT('',#970);
#152=VERTEX_POINT('',#972);
#153=VERTEX_POINT('',#974);
#154=VERTEX_POINT('',#976);
#155=VERTEX_POINT('',#978);
#156=VERTEX_POINT('',#980);
#157=VERTEX_POINT('',#982);
#158=VERTEX_POINT('',#984);
#159=VERTEX_POINT('',#986);
#160=VERTEX_POINT('',#988);
#161=VERTEX_POINT('',#990);
#162=VERTEX_POINT('',#992);
#163=VERTEX_POINT('',#994);
#164=VERTEX_POINT('',#996);
#165=VERTEX_POINT('',#998);
#166=VERTEX_POINT('',#1000);
#167=VERTEX_POINT('',#1003);
#168=VERTEX_POINT('',#1005);
#169=VERTEX_POINT('',#1008);
#170=VERTEX_POINT('',#1011);
#171=VERTEX_POINT('',#1014);
#172=VERTEX_POINT('',#1016);
#173=VERTEX_POINT('',#1021);
#174=VERTEX_POINT('',#1023);
#175=VERTEX_POINT('',#1026);
#176=VERTEX_POINT('',#1028);
#177=VERTEX_POINT('',#1031);
#178=VERTEX_POINT('',#1034);
#179=VERTEX_POINT('',#1037);
#180=VERTEX_POINT('',#1040);
#181=VERTEX_POINT('',#1044);
#182=VERTEX_POINT('',#1046);
#183=VERTEX_LOOP('',#131);
#184=VERTEX_LOOP('',#132);
#185=VERTEX_LOOP('',#133);
#186=VERTEX_LOOP('',#134);
#187=VERTEX_LOOP('',#135);
#188=VERTEX_LOOP('',#136);
#189=VERTEX_LOOP('',#137);
#190=VERTEX_LOOP('',#138);
#191=VERTEX_LOOP('',#139);
#192=VERTEX_LOOP('',#140);
#193=VERTEX_LOOP('',#141);
#194=VERTEX_LOOP('',#142);
#195=VERTEX_LOOP('',#143);
#196=VERTEX_LOOP('',#144);
#197=VERTEX_LOOP('',#145);
#198=VERTEX_LOOP('',#146);
#199=VERTEX_LOOP('',#147);
#200=VERTEX_LOOP('',#148);
#201=VERTEX_LOOP('',#149);
#202=VERTEX_LOOP('',#150);
#203=VERTEX_LOOP('',#151);
#204=VERTEX_LOOP('',#152);
#205=VERTEX_LOOP('',#153);
#206=VERTEX_LOOP('',#154);
#207=VERTEX_LOOP('',#155);
#208=VERTEX_LOOP('',#156);
#209=VERTEX_LOOP('',#157);
#210=VERTEX_LOOP('',#158);
#211=VERTEX_LOOP('',#159);
#212=VERTEX_LOOP('',#160);
#213=VERTEX_LOOP('',#161);
#214=VERTEX_LOOP('',#162);
#215=VERTEX_LOOP('',#163);
#216=VERTEX_LOOP('',#164);
#217=VERTEX_LOOP('',#165);
#218=VERTEX_LOOP('',#166);
#219=FACE_BOUND('',#183,.T.);
#220=FACE_BOUND('',#184,.T.);
#221=FACE_BOUND('',#185,.T.);
#222=FACE_BOUND('',#186,.T.);
#223=FACE_BOUND('',#187,.T.);
#224=FACE_BOUND('',#188,.T.);
#225=FACE_BOUND('',#189,.T.);
#226=FACE_BOUND('',#190,.T.);
#227=FACE_BOUND('',#191,.T.);
#228=FACE_BOUND('',#192,.T.);
#229=FACE_BOUND('',#193,.T.);
#230=FACE_BOUND('',#194,.T.);
#231=FACE_BOUND('',#195,.T.);
#232=FACE_BOUND('',#196,.T.);
#233=FACE_BOUND('',#197,.T.);
#234=FACE_BOUND('',#198,.T.);
#235=FACE_BOUND('',#199,.T.);
#236=FACE_BOUND('',#200,.T.);
#237=FACE_BOUND('',#201,.T.);
#238=FACE_BOUND('',#202,.T.);
#239=FACE_BOUND('',#203,.T.);
#240=FACE_BOUND('',#204,.T.);
#241=FACE_BOUND('',#205,.T.);
#242=FACE_BOUND('',#206,.T.);
#243=FACE_BOUND('',#207,.T.);
#244=FACE_BOUND('',#208,.T.);
#245=FACE_BOUND('',#209,.T.);
#246=FACE_BOUND('',#210,.T.);
#247=FACE_BOUND('',#211,.T.);
#248=FACE_BOUND('',#212,.T.);
#249=FACE_BOUND('',#213,.T.);
#250=FACE_BOUND('',#214,.T.);
#251=FACE_BOUND('',#215,.T.);
#252=FACE_BOUND('',#216,.T.);
#253=FACE_BOUND('',#217,.T.);
#254=FACE_BOUND('',#218,.T.);
#255=FACE_BOUND('',#93,.T.);
#256=FACE_BOUND('',#94,.T.);
#257=FACE_BOUND('',#95,.T.);
#258=FACE_BOUND('',#96,.T.);
#259=FACE_BOUND('',#97,.T.);
#260=FACE_BOUND('',#98,.T.);
#261=FACE_BOUND('',#99,.T.);
#262=FACE_BOUND('',#100,.T.);
#263=FACE_BOUND('',#101,.T.);
#264=FACE_BOUND('',#102,.T.);
#265=FACE_BOUND('',#103,.T.);
#266=FACE_BOUND('',#104,.T.);
#267=FACE_BOUND('',#105,.T.);
#268=FACE_BOUND('',#106,.T.);
#269=FACE_BOUND('',#107,.T.);
#270=FACE_BOUND('',#108,.T.);
#271=FACE_BOUND('',#109,.T.);
#272=FACE_BOUND('',#110,.T.);
#273=FACE_BOUND('',#111,.T.);
#274=FACE_BOUND('',#112,.T.);
#275=FACE_BOUND('',#113,.T.);
#276=FACE_BOUND('',#114,.T.);
#277=FACE_BOUND('',#115,.T.);
#278=FACE_BOUND('',#116,.T.);
#279=FACE_BOUND('',#117,.T.);
#280=FACE_BOUND('',#118,.T.);
#281=FACE_BOUND('',#119,.T.);
#282=FACE_BOUND('',#120,.T.);
#283=FACE_BOUND('',#121,.T.);
#284=FACE_BOUND('',#122,.T.);
#285=FACE_BOUND('',#123,.T.);
#286=FACE_BOUND('',#124,.T.);
#287=SPHERICAL_SURFACE('',#722,2.36616554042796);
#288=SPHERICAL_SURFACE('',#723,2.36616554042796);
#289=SPHERICAL_SURFACE('',#724,2.36616554042796);
#290=SPHERICAL_SURFACE('',#725,2.36616554042796);
#291=SPHERICAL_SURFACE('',#726,2.36616554042796);
#292=SPHERICAL_SURFACE('',#727,2.36616554042796);
#293=SPHERICAL_SURFACE('',#728,2.36616554042796);
#294=SPHERICAL_SURFACE('',#729,2.36616554042796);
#295=SPHERICAL_SURFACE('',#730,2.36616554042796);
#296=SPHERICAL_SURFACE('',#731,2.36616554042796);
#297=SPHERICAL_SURFACE('',#732,2.36616554042796);
#298=SPHERICAL_SURFACE('',#733,2.36616554042796);
#299=SPHERICAL_SURFACE('',#734,2.36616554042796);
#300=SPHERICAL_SURFACE('',#735,2.36616554042796);
#301=SPHERICAL_SURFACE('',#736,2.36616554042796);
#302=SPHERICAL_SURFACE('',#737,2.36616554042796);
#303=SPHERICAL_SURFACE('',#738,2.36616554042796);
#304=SPHERICAL_SURFACE('',#739,2.36616554042796);
#305=SPHERICAL_SURFACE('',#740,2.36616554042796);
#306=SPHERICAL_SURFACE('',#741,2.36616554042796);
#307=SPHERICAL_SURFACE('',#742,2.36616554042796);
#308=SPHERICAL_SURFACE('',#743,2.36616554042796);
#309=SPHERICAL_SURFACE('',#744,2.36616554042796);
#310=SPHERICAL_SURFACE('',#745,2.36616554042796);
#311=SPHERICAL_SURFACE('',#746,2.36616554042796);
#312=SPHERICAL_SURFACE('',#747,2.36616554042796);
#313=SPHERICAL_SURFACE('',#748,2.36616554042796);
#314=SPHERICAL_SURFACE('',#749,2.36616554042796);
#315=SPHERICAL_SURFACE('',#750,2.36616554042796);
#316=SPHERICAL_SURFACE('',#751,2.36616554042796);
#317=SPHERICAL_SURFACE('',#752,2.36616554042796);
#318=SPHERICAL_SURFACE('',#753,2.36616554042796);
#319=SPHERICAL_SURFACE('',#754,2.36616554042796);
#320=SPHERICAL_SURFACE('',#755,2.36616554042796);
#321=SPHERICAL_SURFACE('',#756,2.36616554042796);
#322=SPHERICAL_SURFACE('',#757,2.36616554042796);
#323=SPHERICAL_SURFACE('',#761,17.125);
#324=ADVANCED_FACE('',(#219),#287,.T.);
#325=ADVANCED_FACE('',(#220),#288,.T.);
#326=ADVANCED_FACE('',(#221),#289,.T.);
#327=ADVANCED_FACE('',(#222),#290,.T.);
#328=ADVANCED_FACE('',(#223),#291,.T.);
#329=ADVANCED_FACE('',(#224),#292,.T.);
#330=ADVANCED_FACE('',(#225),#293,.T.);
#331=ADVANCED_FACE('',(#226),#294,.T.);
#332=ADVANCED_FACE('',(#227),#295,.T.);
#333=ADVANCED_FACE('',(#228),#296,.T.);
#334=ADVANCED_FACE('',(#229),#297,.T.);
#335=ADVANCED_FACE('',(#230),#298,.T.);
#336=ADVANCED_FACE('',(#231),#299,.T.);
#337=ADVANCED_FACE('',(#232),#300,.T.);
#338=ADVANCED_FACE('',(#233),#301,.T.);
#339=ADVANCED_FACE('',(#234),#302,.T.);
#340=ADVANCED_FACE('',(#235),#303,.T.);
#341=ADVANCED_FACE('',(#236),#304,.T.);
#342=ADVANCED_FACE('',(#237),#305,.T.);
#343=ADVANCED_FACE('',(#238),#306,.T.);
#344=ADVANCED_FACE('',(#239),#307,.T.);
#345=ADVANCED_FACE('',(#240),#308,.T.);
#346=ADVANCED_FACE('',(#241),#309,.T.);
#347=ADVANCED_FACE('',(#242),#310,.T.);
#348=ADVANCED_FACE('',(#243),#311,.T.);
#349=ADVANCED_FACE('',(#244),#312,.T.);
#350=ADVANCED_FACE('',(#245),#313,.T.);
#351=ADVANCED_FACE('',(#246),#314,.T.);
#352=ADVANCED_FACE('',(#247),#315,.T.);
#353=ADVANCED_FACE('',(#248),#316,.T.);
#354=ADVANCED_FACE('',(#249),#317,.T.);
#355=ADVANCED_FACE('',(#250),#318,.T.);
#356=ADVANCED_FACE('',(#251),#319,.T.);
#357=ADVANCED_FACE('',(#252),#320,.T.);
#358=ADVANCED_FACE('',(#253),#321,.T.);
#359=ADVANCED_FACE('',(#254),#322,.T.);
#360=ADVANCED_FACE('',(#255,#256),#125,.F.);
#361=ADVANCED_FACE('',(#257,#258),#323,.F.);
#362=ADVANCED_FACE('',(#259,#260),#126,.F.);
#363=ADVANCED_FACE('',(#261,#262),#25,.T.);
#364=ADVANCED_FACE('',(#263,#264),#19,.T.);
#365=ADVANCED_FACE('',(#265,#266),#20,.T.);
#366=ADVANCED_FACE('',(#267,#268),#127,.F.);
#367=ADVANCED_FACE('',(#269,#270),#128,.F.);
#368=ADVANCED_FACE('',(#271,#272),#26,.T.);
#369=ADVANCED_FACE('',(#273,#274),#21,.F.);
#370=ADVANCED_FACE('',(#275,#276),#27,.T.);
#371=ADVANCED_FACE('',(#277,#278),#22,.F.);
#372=ADVANCED_FACE('',(#279,#280),#28,.T.);
#373=ADVANCED_FACE('',(#281,#282),#18,.F.);
#374=ADVANCED_FACE('',(#283,#284),#23,.T.);
#375=ADVANCED_FACE('',(#285,#286),#24,.T.);
#376=CLOSED_SHELL('',(#324));
#377=CLOSED_SHELL('',(#325));
#378=CLOSED_SHELL('',(#326));
#379=CLOSED_SHELL('',(#327));
#380=CLOSED_SHELL('',(#328));
#381=CLOSED_SHELL('',(#329));
#382=CLOSED_SHELL('',(#330));
#383=CLOSED_SHELL('',(#331));
#384=CLOSED_SHELL('',(#332));
#385=CLOSED_SHELL('',(#333));
#386=CLOSED_SHELL('',(#334));
#387=CLOSED_SHELL('',(#335));
#388=CLOSED_SHELL('',(#336));
#389=CLOSED_SHELL('',(#337));
#390=CLOSED_SHELL('',(#338));
#391=CLOSED_SHELL('',(#339));
#392=CLOSED_SHELL('',(#340));
#393=CLOSED_SHELL('',(#341));
#394=CLOSED_SHELL('',(#342));
#395=CLOSED_SHELL('',(#343));
#396=CLOSED_SHELL('',(#344));
#397=CLOSED_SHELL('',(#345));
#398=CLOSED_SHELL('',(#346));
#399=CLOSED_SHELL('',(#347));
#400=CLOSED_SHELL('',(#348));
#401=CLOSED_SHELL('',(#349));
#402=CLOSED_SHELL('',(#350));
#403=CLOSED_SHELL('',(#351));
#404=CLOSED_SHELL('',(#352));
#405=CLOSED_SHELL('',(#353));
#406=CLOSED_SHELL('',(#354));
#407=CLOSED_SHELL('',(#355));
#408=CLOSED_SHELL('',(#356));
#409=CLOSED_SHELL('',(#357));
#410=CLOSED_SHELL('',(#358));
#411=CLOSED_SHELL('',(#359));
#412=CLOSED_SHELL('',(#360,#361,#362,#363,#364,#365));
#413=CLOSED_SHELL('',(#366,#367,#368,#369,#370,#371,#372,#373,#374,#375));
#414=STYLED_ITEM('',(#452),#681);
#415=STYLED_ITEM('',(#453),#682);
#416=STYLED_ITEM('',(#454),#683);
#417=STYLED_ITEM('',(#455),#684);
#418=STYLED_ITEM('',(#456),#685);
#419=STYLED_ITEM('',(#457),#686);
#420=STYLED_ITEM('',(#458),#687);
#421=STYLED_ITEM('',(#459),#688);
#422=STYLED_ITEM('',(#460),#689);
#423=STYLED_ITEM('',(#461),#690);
#424=STYLED_ITEM('',(#462),#691);
#425=STYLED_ITEM('',(#463),#692);
#426=STYLED_ITEM('',(#464),#693);
#427=STYLED_ITEM('',(#465),#694);
#428=STYLED_ITEM('',(#466),#695);
#429=STYLED_ITEM('',(#467),#696);
#430=STYLED_ITEM('',(#468),#697);
#431=STYLED_ITEM('',(#469),#698);
#432=STYLED_ITEM('',(#470),#699);
#433=STYLED_ITEM('',(#471),#700);
#434=STYLED_ITEM('',(#472),#701);
#435=STYLED_ITEM('',(#473),#702);
#436=STYLED_ITEM('',(#474),#703);
#437=STYLED_ITEM('',(#475),#704);
#438=STYLED_ITEM('',(#476),#705);
#439=STYLED_ITEM('',(#477),#706);
#440=STYLED_ITEM('',(#478),#707);
#441=STYLED_ITEM('',(#479),#708);
#442=STYLED_ITEM('',(#480),#709);
#443=STYLED_ITEM('',(#481),#710);
#444=STYLED_ITEM('',(#482),#711);
#445=STYLED_ITEM('',(#483),#712);
#446=STYLED_ITEM('',(#484),#713);
#447=STYLED_ITEM('',(#485),#714);
#448=STYLED_ITEM('',(#486),#715);
#449=STYLED_ITEM('',(#487),#716);
#450=STYLED_ITEM('',(#488),#717);
#451=STYLED_ITEM('',(#489),#718);
#452=PRESENTATION_STYLE_ASSIGNMENT((#490));
#453=PRESENTATION_STYLE_ASSIGNMENT((#491));
#454=PRESENTATION_STYLE_ASSIGNMENT((#492));
#455=PRESENTATION_STYLE_ASSIGNMENT((#493));
#456=PRESENTATION_STYLE_ASSIGNMENT((#494));
#457=PRESENTATION_STYLE_ASSIGNMENT((#495));
#458=PRESENTATION_STYLE_ASSIGNMENT((#496));
#459=PRESENTATION_STYLE_ASSIGNMENT((#497));
#460=PRESENTATION_STYLE_ASSIGNMENT((#498));
#461=PRESENTATION_STYLE_ASSIGNMENT((#499));
#462=PRESENTATION_STYLE_ASSIGNMENT((#500));
#463=PRESENTATION_STYLE_ASSIGNMENT((#501));
#464=PRESENTATION_STYLE_ASSIGNMENT((#502));
#465=PRESENTATION_STYLE_ASSIGNMENT((#503));
#466=PRESENTATION_STYLE_ASSIGNMENT((#504));
#467=PRESENTATION_STYLE_ASSIGNMENT((#505));
#468=PRESENTATION_STYLE_ASSIGNMENT((#506));
#469=PRESENTATION_STYLE_ASSIGNMENT((#507));
#470=PRESENTATION_STYLE_ASSIGNMENT((#508));
#471=PRESENTATION_STYLE_ASSIGNMENT((#509));
#472=PRESENTATION_STYLE_ASSIGNMENT((#510));
#473=PRESENTATION_STYLE_ASSIGNMENT((#511));
#474=PRESENTATION_STYLE_ASSIGNMENT((#512));
#475=PRESENTATION_STYLE_ASSIGNMENT((#513));
#476=PRESENTATION_STYLE_ASSIGNMENT((#514));
#477=PRESENTATION_STYLE_ASSIGNMENT((#515));
#478=PRESENTATION_STYLE_ASSIGNMENT((#516));
#479=PRESENTATION_STYLE_ASSIGNMENT((#517));
#480=PRESENTATION_STYLE_ASSIGNMENT((#518));
#481=PRESENTATION_STYLE_ASSIGNMENT((#519));
#482=PRESENTATION_STYLE_ASSIGNMENT((#520));
#483=PRESENTATION_STYLE_ASSIGNMENT((#521));
#484=PRESENTATION_STYLE_ASSIGNMENT((#522));
#485=PRESENTATION_STYLE_ASSIGNMENT((#523));
#486=PRESENTATION_STYLE_ASSIGNMENT((#524));
#487=PRESENTATION_STYLE_ASSIGNMENT((#525));
#488=PRESENTATION_STYLE_ASSIGNMENT((#526));
#489=PRESENTATION_STYLE_ASSIGNMENT((#527));
#490=SURFACE_STYLE_USAGE(.BOTH.,#528);
#491=SURFACE_STYLE_USAGE(.BOTH.,#529);
#492=SURFACE_STYLE_USAGE(.BOTH.,#530);
#493=SURFACE_STYLE_USAGE(.BOTH.,#531);
#494=SURFACE_STYLE_USAGE(.BOTH.,#532);
#495=SURFACE_STYLE_USAGE(.BOTH.,#533);
#496=SURFACE_STYLE_USAGE(.BOTH.,#534);
#497=SURFACE_STYLE_USAGE(.BOTH.,#535);
#498=SURFACE_STYLE_USAGE(.BOTH.,#536);
#499=SURFACE_STYLE_USAGE(.BOTH.,#537);
#500=SURFACE_STYLE_USAGE(.BOTH.,#538);
#501=SURFACE_STYLE_USAGE(.BOTH.,#539);
#502=SURFACE_STYLE_USAGE(.BOTH.,#540);
#503=SURFACE_STYLE_USAGE(.BOTH.,#541);
#504=SURFACE_STYLE_USAGE(.BOTH.,#542);
#505=SURFACE_STYLE_USAGE(.BOTH.,#543);
#506=SURFACE_STYLE_USAGE(.BOTH.,#544);
#507=SURFACE_STYLE_USAGE(.BOTH.,#545);
#508=SURFACE_STYLE_USAGE(.BOTH.,#546);
#509=SURFACE_STYLE_USAGE(.BOTH.,#547);
#510=SURFACE_STYLE_USAGE(.BOTH.,#548);
#511=SURFACE_STYLE_USAGE(.BOTH.,#549);
#512=SURFACE_STYLE_USAGE(.BOTH.,#550);
#513=SURFACE_STYLE_USAGE(.BOTH.,#551);
#514=SURFACE_STYLE_USAGE(.BOTH.,#552);
#515=SURFACE_STYLE_USAGE(.BOTH.,#553);
#516=SURFACE_STYLE_USAGE(.BOTH.,#554);
#517=SURFACE_STYLE_USAGE(.BOTH.,#555);
#518=SURFACE_STYLE_USAGE(.BOTH.,#556);
#519=SURFACE_STYLE_USAGE(.BOTH.,#557);
#520=SURFACE_STYLE_USAGE(.BOTH.,#558);
#521=SURFACE_STYLE_USAGE(.BOTH.,#559);
#522=SURFACE_STYLE_USAGE(.BOTH.,#560);
#523=SURFACE_STYLE_USAGE(.BOTH.,#561);
#524=SURFACE_STYLE_USAGE(.BOTH.,#562);
#525=SURFACE_STYLE_USAGE(.BOTH.,#563);
#526=SURFACE_STYLE_USAGE(.BOTH.,#564);
#527=SURFACE_STYLE_USAGE(.BOTH.,#565);
#528=SURFACE_SIDE_STYLE('',(#566));
#529=SURFACE_SIDE_STYLE('',(#567));
#530=SURFACE_SIDE_STYLE('',(#568));
#531=SURFACE_SIDE_STYLE('',(#569));
#532=SURFACE_SIDE_STYLE('',(#570));
#533=SURFACE_SIDE_STYLE('',(#571));
#534=SURFACE_SIDE_STYLE('',(#572));
#535=SURFACE_SIDE_STYLE('',(#573));
#536=SURFACE_SIDE_STYLE('',(#574));
#537=SURFACE_SIDE_STYLE('',(#575));
#538=SURFACE_SIDE_STYLE('',(#576));
#539=SURFACE_SIDE_STYLE('',(#577));
#540=SURFACE_SIDE_STYLE('',(#578));
#541=SURFACE_SIDE_STYLE('',(#579));
#542=SURFACE_SIDE_STYLE('',(#580));
#543=SURFACE_SIDE_STYLE('',(#581));
#544=SURFACE_SIDE_STYLE('',(#582));
#545=SURFACE_SIDE_STYLE('',(#583));
#546=SURFACE_SIDE_STYLE('',(#584));
#547=SURFACE_SIDE_STYLE('',(#585));
#548=SURFACE_SIDE_STYLE('',(#586));
#549=SURFACE_SIDE_STYLE('',(#587));
#550=SURFACE_SIDE_STYLE('',(#588));
#551=SURFACE_SIDE_STYLE('',(#589));
#552=SURFACE_SIDE_STYLE('',(#590));
#553=SURFACE_SIDE_STYLE('',(#591));
#554=SURFACE_SIDE_STYLE('',(#592));
#555=SURFACE_SIDE_STYLE('',(#593));
#556=SURFACE_SIDE_STYLE('',(#594));
#557=SURFACE_SIDE_STYLE('',(#595));
#558=SURFACE_SIDE_STYLE('',(#596));
#559=SURFACE_SIDE_STYLE('',(#597));
#560=SURFACE_SIDE_STYLE('',(#598));
#561=SURFACE_SIDE_STYLE('',(#599));
#562=SURFACE_SIDE_STYLE('',(#600));
#563=SURFACE_SIDE_STYLE('',(#601));
#564=SURFACE_SIDE_STYLE('',(#602));
#565=SURFACE_SIDE_STYLE('',(#603));
#566=SURFACE_STYLE_FILL_AREA(#604);
#567=SURFACE_STYLE_FILL_AREA(#605);
#568=SURFACE_STYLE_FILL_AREA(#606);
#569=SURFACE_STYLE_FILL_AREA(#607);
#570=SURFACE_STYLE_FILL_AREA(#608);
#571=SURFACE_STYLE_FILL_AREA(#609);
#572=SURFACE_STYLE_FILL_AREA(#610);
#573=SURFACE_STYLE_FILL_AREA(#611);
#574=SURFACE_STYLE_FILL_AREA(#612);
#575=SURFACE_STYLE_FILL_AREA(#613);
#576=SURFACE_STYLE_FILL_AREA(#614);
#577=SURFACE_STYLE_FILL_AREA(#615);
#578=SURFACE_STYLE_FILL_AREA(#616);
#579=SURFACE_STYLE_FILL_AREA(#617);
#580=SURFACE_STYLE_FILL_AREA(#618);
#581=SURFACE_STYLE_FILL_AREA(#619);
#582=SURFACE_STYLE_FILL_AREA(#620);
#583=SURFACE_STYLE_FILL_AREA(#621);
#584=SURFACE_STYLE_FILL_AREA(#622);
#585=SURFACE_STYLE_FILL_AREA(#623);
#586=SURFACE_STYLE_FILL_AREA(#624);
#587=SURFACE_STYLE_FILL_AREA(#625);
#588=SURFACE_STYLE_FILL_AREA(#626);
#589=SURFACE_STYLE_FILL_AREA(#627);
#590=SURFACE_STYLE_FILL_AREA(#628);
#591=SURFACE_STYLE_FILL_AREA(#629);
#592=SURFACE_STYLE_FILL_AREA(#630);
#593=SURFACE_STYLE_FILL_AREA(#631);
#594=SURFACE_STYLE_FILL_AREA(#632);
#595=SURFACE_STYLE_FILL_AREA(#633);
#596=SURFACE_STYLE_FILL_AREA(#634);
#597=SURFACE_STYLE_FILL_AREA(#635);
#598=SURFACE_STYLE_FILL_AREA(#636);
#599=SURFACE_STYLE_FILL_AREA(#637);
#600=SURFACE_STYLE_FILL_AREA(#638);
#601=SURFACE_STYLE_FILL_AREA(#639);
#602=SURFACE_STYLE_FILL_AREA(#640);
#603=SURFACE_STYLE_FILL_AREA(#641);
#604=FILL_AREA_STYLE('',(#642));
#605=FILL_AREA_STYLE('',(#643));
#606=FILL_AREA_STYLE('',(#644));
#607=FILL_AREA_STYLE('',(#645));
#608=FILL_AREA_STYLE('',(#646));
#609=FILL_AREA_STYLE('',(#647));
#610=FILL_AREA_STYLE('',(#648));
#611=FILL_AREA_STYLE('',(#649));
#612=FILL_AREA_STYLE('',(#650));
#613=FILL_AREA_STYLE('',(#651));
#614=FILL_AREA_STYLE('',(#652));
#615=FILL_AREA_STYLE('',(#653));
#616=FILL_AREA_STYLE('',(#654));
#617=FILL_AREA_STYLE('',(#655));
#618=FILL_AREA_STYLE('',(#656));
#619=FILL_AREA_STYLE('',(#657));
#620=FILL_AREA_STYLE('',(#658));
#621=FILL_AREA_STYLE('',(#659));
#622=FILL_AREA_STYLE('',(#660));
#623=FILL_AREA_STYLE('',(#661));
#624=FILL_AREA_STYLE('',(#662));
#625=FILL_AREA_STYLE('',(#663));
#626=FILL_AREA_STYLE('',(#664));
#627=FILL_AREA_STYLE('',(#665));
#628=FILL_AREA_STYLE('',(#666));
#629=FILL_AREA_STYLE('',(#667));
#630=FILL_AREA_STYLE('',(#668));
#631=FILL_AREA_STYLE('',(#669));
#632=FILL_AREA_STYLE('',(#670));
#633=FILL_AREA_STYLE('',(#671));
#634=FILL_AREA_STYLE('',(#672));
#635=FILL_AREA_STYLE('',(#673));
#636=FILL_AREA_STYLE('',(#674));
#637=FILL_AREA_STYLE('',(#675));
#638=FILL_AREA_STYLE('',(#676));
#639=FILL_AREA_STYLE('',(#677));
#640=FILL_AREA_STYLE('',(#678));
#641=FILL_AREA_STYLE('',(#679));
#642=FILL_AREA_STYLE_COLOUR('',#680);
#643=FILL_AREA_STYLE_COLOUR('',#680);
#644=FILL_AREA_STYLE_COLOUR('',#680);
#645=FILL_AREA_STYLE_COLOUR('',#680);
#646=FILL_AREA_STYLE_COLOUR('',#680);
#647=FILL_AREA_STYLE_COLOUR('',#680);
#648=FILL_AREA_STYLE_COLOUR('',#680);
#649=FILL_AREA_STYLE_COLOUR('',#680);
#650=FILL_AREA_STYLE_COLOUR('',#680);
#651=FILL_AREA_STYLE_COLOUR('',#680);
#652=FILL_AREA_STYLE_COLOUR('',#680);
#653=FILL_AREA_STYLE_COLOUR('',#680);
#654=FILL_AREA_STYLE_COLOUR('',#680);
#655=FILL_AREA_STYLE_COLOUR('',#680);
#656=FILL_AREA_STYLE_COLOUR('',#680);
#657=FILL_AREA_STYLE_COLOUR('',#680);
#658=FILL_AREA_STYLE_COLOUR('',#680);
#659=FILL_AREA_STYLE_COLOUR('',#680);
#660=FILL_AREA_STYLE_COLOUR('',#680);
#661=FILL_AREA_STYLE_COLOUR('',#680);
#662=FILL_AREA_STYLE_COLOUR('',#680);
#663=FILL_AREA_STYLE_COLOUR('',#680);
#664=FILL_AREA_STYLE_COLOUR('',#680);
#665=FILL_AREA_STYLE_COLOUR('',#680);
#666=FILL_AREA_STYLE_COLOUR('',#680);
#667=FILL_AREA_STYLE_COLOUR('',#680);
#668=FILL_AREA_STYLE_COLOUR('',#680);
#669=FILL_AREA_STYLE_COLOUR('',#680);
#670=FILL_AREA_STYLE_COLOUR('',#680);
#671=FILL_AREA_STYLE_COLOUR('',#680);
#672=FILL_AREA_STYLE_COLOUR('',#680);
#673=FILL_AREA_STYLE_COLOUR('',#680);
#674=FILL_AREA_STYLE_COLOUR('',#680);
#675=FILL_AREA_STYLE_COLOUR('',#680);
#676=FILL_AREA_STYLE_COLOUR('',#680);
#677=FILL_AREA_STYLE_COLOUR('',#680);
#678=FILL_AREA_STYLE_COLOUR('',#680);
#679=FILL_AREA_STYLE_COLOUR('',#680);
#680=COLOUR_RGB('',0.506983280181885,0.531564235687256,0.550000011920929);
#681=MANIFOLD_SOLID_BREP('',#376);
#682=MANIFOLD_SOLID_BREP('',#377);
#683=MANIFOLD_SOLID_BREP('',#378);
#684=MANIFOLD_SOLID_BREP('',#379);
#685=MANIFOLD_SOLID_BREP('',#380);
#686=MANIFOLD_SOLID_BREP('',#381);
#687=MANIFOLD_SOLID_BREP('',#382);
#688=MANIFOLD_SOLID_BREP('',#383);
#689=MANIFOLD_SOLID_BREP('',#384);
#690=MANIFOLD_SOLID_BREP('',#385);
#691=MANIFOLD_SOLID_BREP('',#386);
#692=MANIFOLD_SOLID_BREP('',#387);
#693=MANIFOLD_SOLID_BREP('',#388);
#694=MANIFOLD_SOLID_BREP('',#389);
#695=MANIFOLD_SOLID_BREP('',#390);
#696=MANIFOLD_SOLID_BREP('',#391);
#697=MANIFOLD_SOLID_BREP('',#392);
#698=MANIFOLD_SOLID_BREP('',#393);
#699=MANIFOLD_SOLID_BREP('',#394);
#700=MANIFOLD_SOLID_BREP('',#395);
#701=MANIFOLD_SOLID_BREP('',#396);
#702=MANIFOLD_SOLID_BREP('',#397);
#703=MANIFOLD_SOLID_BREP('',#398);
#704=MANIFOLD_SOLID_BREP('',#399);
#705=MANIFOLD_SOLID_BREP('',#400);
#706=MANIFOLD_SOLID_BREP('',#401);
#707=MANIFOLD_SOLID_BREP('',#402);
#708=MANIFOLD_SOLID_BREP('',#403);
#709=MANIFOLD_SOLID_BREP('',#404);
#710=MANIFOLD_SOLID_BREP('',#405);
#711=MANIFOLD_SOLID_BREP('',#406);
#712=MANIFOLD_SOLID_BREP('',#407);
#713=MANIFOLD_SOLID_BREP('',#408);
#714=MANIFOLD_SOLID_BREP('',#409);
#715=MANIFOLD_SOLID_BREP('',#410);
#716=MANIFOLD_SOLID_BREP('',#411);
#717=MANIFOLD_SOLID_BREP('',#412);
#718=MANIFOLD_SOLID_BREP('',#413);
#719=SHAPE_DEFINITION_REPRESENTATION(#1055,#720);
#720=SHAPE_REPRESENTATION('\X2\570667F15B548C035FC374038F74627F\X0\100
00K\X2\578B\X0\',(#721),#1050);
#721=AXIS2_PLACEMENT_3D('',#928,#790,#791);
#722=AXIS2_PLACEMENT_3D('',#929,#792,#793);
#723=AXIS2_PLACEMENT_3D('',#931,#794,#795);
#724=AXIS2_PLACEMENT_3D('',#933,#796,#797);
#725=AXIS2_PLACEMENT_3D('',#935,#798,#799);
#726=AXIS2_PLACEMENT_3D('',#937,#800,#801);
#727=AXIS2_PLACEMENT_3D('',#939,#802,#803);
#728=AXIS2_PLACEMENT_3D('',#941,#804,#805);
#729=AXIS2_PLACEMENT_3D('',#943,#806,#807);
#730=AXIS2_PLACEMENT_3D('',#945,#808,#809);
#731=AXIS2_PLACEMENT_3D('',#947,#810,#811);
#732=AXIS2_PLACEMENT_3D('',#949,#812,#813);
#733=AXIS2_PLACEMENT_3D('',#951,#814,#815);
#734=AXIS2_PLACEMENT_3D('',#953,#816,#817);
#735=AXIS2_PLACEMENT_3D('',#955,#818,#819);
#736=AXIS2_PLACEMENT_3D('',#957,#820,#821);
#737=AXIS2_PLACEMENT_3D('',#959,#822,#823);
#738=AXIS2_PLACEMENT_3D('',#961,#824,#825);
#739=AXIS2_PLACEMENT_3D('',#963,#826,#827);
#740=AXIS2_PLACEMENT_3D('',#965,#828,#829);
#741=AXIS2_PLACEMENT_3D('',#967,#830,#831);
#742=AXIS2_PLACEMENT_3D('',#969,#832,#833);
#743=AXIS2_PLACEMENT_3D('',#971,#834,#835);
#744=AXIS2_PLACEMENT_3D('',#973,#836,#837);
#745=AXIS2_PLACEMENT_3D('',#975,#838,#839);
#746=AXIS2_PLACEMENT_3D('',#977,#840,#841);
#747=AXIS2_PLACEMENT_3D('',#979,#842,#843);
#748=AXIS2_PLACEMENT_3D('',#981,#844,#845);
#749=AXIS2_PLACEMENT_3D('',#983,#846,#847);
#750=AXIS2_PLACEMENT_3D('',#985,#848,#849);
#751=AXIS2_PLACEMENT_3D('',#987,#850,#851);
#752=AXIS2_PLACEMENT_3D('',#989,#852,#853);
#753=AXIS2_PLACEMENT_3D('',#991,#854,#855);
#754=AXIS2_PLACEMENT_3D('',#993,#856,#857);
#755=AXIS2_PLACEMENT_3D('',#995,#858,#859);
#756=AXIS2_PLACEMENT_3D('',#997,#860,#861);
#757=AXIS2_PLACEMENT_3D('',#999,#862,#863);
#758=AXIS2_PLACEMENT_3D('',#1001,#864,#865);
#759=AXIS2_PLACEMENT_3D('',#1002,#866,#867);
#760=AXIS2_PLACEMENT_3D('',#1004,#868,#869);
#761=AXIS2_PLACEMENT_3D('',#1006,#870,#871);
#762=AXIS2_PLACEMENT_3D('',#1007,#872,#873);
#763=AXIS2_PLACEMENT_3D('',#1009,#874,#875);
#764=AXIS2_PLACEMENT_3D('',#1010,#876,#877);
#765=AXIS2_PLACEMENT_3D('',#1012,#878,#879);
#766=AXIS2_PLACEMENT_3D('',#1013,#880,#881);
#767=AXIS2_PLACEMENT_3D('',#1015,#882,#883);
#768=AXIS2_PLACEMENT_3D('',#1017,#884,#885);
#769=AXIS2_PLACEMENT_3D('',#1018,#886,#887);
#770=AXIS2_PLACEMENT_3D('',#1019,#888,#889);
#771=AXIS2_PLACEMENT_3D('',#1020,#890,#891);
#772=AXIS2_PLACEMENT_3D('',#1022,#892,#893);
#773=AXIS2_PLACEMENT_3D('',#1024,#894,#895);
#774=AXIS2_PLACEMENT_3D('',#1025,#896,#897);
#775=AXIS2_PLACEMENT_3D('',#1027,#898,#899);
#776=AXIS2_PLACEMENT_3D('',#1029,#900,#901);
#777=AXIS2_PLACEMENT_3D('',#1030,#902,#903);
#778=AXIS2_PLACEMENT_3D('',#1032,#904,#905);
#779=AXIS2_PLACEMENT_3D('',#1033,#906,#907);
#780=AXIS2_PLACEMENT_3D('',#1035,#908,#909);
#781=AXIS2_PLACEMENT_3D('',#1036,#910,#911);
#782=AXIS2_PLACEMENT_3D('',#1038,#912,#913);
#783=AXIS2_PLACEMENT_3D('',#1039,#914,#915);
#784=AXIS2_PLACEMENT_3D('',#1041,#916,#917);
#785=AXIS2_PLACEMENT_3D('',#1042,#918,#919);
#786=AXIS2_PLACEMENT_3D('',#1043,#920,#921);
#787=AXIS2_PLACEMENT_3D('',#1045,#922,#923);
#788=AXIS2_PLACEMENT_3D('',#1047,#924,#925);
#789=AXIS2_PLACEMENT_3D('',#1048,#926,#927);
#790=DIRECTION('',(0.,0.,1.));
#791=DIRECTION('',(1.,0.,0.));
#792=DIRECTION('',(2.74926370271476E-16,0.342020143325669,-0.939692620785908));
#793=DIRECTION('',(-1.,9.40303565642562E-17,-2.5834628140356E-16));
#794=DIRECTION('',(-2.74926370271476E-16,0.342020143325669,-0.939692620785908));
#795=DIRECTION('',(1.,9.40303565642562E-17,-2.5834628140356E-16));
#796=DIRECTION('',(2.74926370271476E-16,0.866025403784439,-0.5));
#797=DIRECTION('',(-1.,2.38093220825345E-16,-1.37463185135738E-16));
#798=DIRECTION('',(-2.74926370271476E-16,0.866025403784439,-0.5));
#799=DIRECTION('',(1.,2.38093220825345E-16,-1.37463185135738E-16));
#800=DIRECTION('',(2.74926370271476E-16,0.984807753012208,0.17364817766693));
#801=DIRECTION('',(-1.,2.70749620950854E-16,4.77404631902255E-17));
#802=DIRECTION('',(-2.74926370271476E-16,0.984807753012208,0.17364817766693));
#803=DIRECTION('',(1.,2.70749620950854E-16,4.77404631902255E-17));
#804=DIRECTION('',(2.74926370271476E-16,0.642787609686539,0.766044443118978));
#805=DIRECTION('',(-1.,1.76719264386598E-16,2.10605818213335E-16));
#806=DIRECTION('',(-2.74926370271476E-16,0.642787609686539,0.766044443118978));
#807=DIRECTION('',(1.,1.76719264386598E-16,2.10605818213335E-16));
#808=DIRECTION('',(2.74926370271476E-16,1.22464679914735E-16,1.));
#809=DIRECTION('',(-1.,3.36687699354163E-32,2.74926370271476E-16));
#810=DIRECTION('',(-2.74926370271476E-16,1.22464679914735E-16,1.));
#811=DIRECTION('',(1.,3.36687699354163E-32,2.74926370271476E-16));
#812=DIRECTION('',(2.74926370271476E-16,-0.642787609686539,0.766044443118978));
#813=DIRECTION('',(-1.,-1.76719264386598E-16,2.10605818213335E-16));
#814=DIRECTION('',(-2.74926370271476E-16,-0.642787609686539,0.766044443118978));
#815=DIRECTION('',(1.,-1.76719264386598E-16,2.10605818213335E-16));
#816=DIRECTION('',(2.74926370271476E-16,-0.984807753012208,0.17364817766693));
#817=DIRECTION('',(-1.,-2.70749620950854E-16,4.77404631902255E-17));
#818=DIRECTION('',(-2.74926370271476E-16,-0.984807753012208,0.17364817766693));
#819=DIRECTION('',(1.,-2.70749620950854E-16,4.77404631902255E-17));
#820=DIRECTION('',(2.74926370271476E-16,-0.866025403784439,-0.499999999999999));
#821=DIRECTION('',(-1.,-2.38093220825345E-16,-1.37463185135738E-16));
#822=DIRECTION('',(-2.74926370271476E-16,-0.866025403784439,-0.499999999999999));
#823=DIRECTION('',(1.,-2.38093220825345E-16,-1.37463185135738E-16));
#824=DIRECTION('',(2.74926370271476E-16,-0.342020143325669,-0.939692620785908));
#825=DIRECTION('',(-1.,-9.40303565642562E-17,-2.5834628140356E-16));
#826=DIRECTION('',(-2.74926370271476E-16,-0.342020143325669,-0.939692620785908));
#827=DIRECTION('',(1.,-9.40303565642562E-17,-2.5834628140356E-16));
#828=DIRECTION('',(2.74926370271476E-16,0.64278760968654,-0.766044443118978));
#829=DIRECTION('',(-1.,1.76719264386598E-16,-2.10605818213335E-16));
#830=DIRECTION('',(-2.74926370271476E-16,0.64278760968654,-0.766044443118978));
#831=DIRECTION('',(1.,1.76719264386598E-16,-2.10605818213335E-16));
#832=DIRECTION('',(2.74926370271476E-16,0.984807753012208,-0.17364817766693));
#833=DIRECTION('',(-1.,2.70749620950854E-16,-4.77404631902254E-17));
#834=DIRECTION('',(-2.74926370271476E-16,0.984807753012208,-0.17364817766693));
#835=DIRECTION('',(1.,2.70749620950854E-16,-4.77404631902254E-17));
#836=DIRECTION('',(2.74926370271476E-16,0.866025403784439,0.5));
#837=DIRECTION('',(-1.,2.38093220825345E-16,1.37463185135738E-16));
#838=DIRECTION('',(-2.74926370271476E-16,0.866025403784439,0.5));
#839=DIRECTION('',(1.,2.38093220825345E-16,1.37463185135738E-16));
#840=DIRECTION('',(2.74926370271476E-16,0.342020143325669,0.939692620785908));
#841=DIRECTION('',(-1.,9.4030356564256E-17,2.5834628140356E-16));
#842=DIRECTION('',(-2.74926370271476E-16,0.342020143325669,0.939692620785908));
#843=DIRECTION('',(1.,9.4030356564256E-17,2.5834628140356E-16));
#844=DIRECTION('',(2.74926370271476E-16,-0.342020143325668,0.939692620785909));
#845=DIRECTION('',(-1.,-9.40303565642559E-17,2.5834628140356E-16));
#846=DIRECTION('',(-2.74926370271476E-16,-0.342020143325668,0.939692620785909));
#847=DIRECTION('',(1.,-9.40303565642559E-17,2.5834628140356E-16));
#848=DIRECTION('',(2.74926370271476E-16,-0.866025403784438,0.5));
#849=DIRECTION('',(-1.,-2.38093220825345E-16,1.37463185135738E-16));
#850=DIRECTION('',(-2.74926370271476E-16,-0.866025403784438,0.5));
#851=DIRECTION('',(1.,-2.38093220825345E-16,1.37463185135738E-16));
#852=DIRECTION('',(2.74926370271476E-16,-0.984807753012208,-0.17364817766693));
#853=DIRECTION('',(-1.,-2.70749620950854E-16,-4.77404631902254E-17));
#854=DIRECTION('',(-2.74926370271476E-16,-0.984807753012208,-0.17364817766693));
#855=DIRECTION('',(1.,-2.70749620950854E-16,-4.77404631902254E-17));
#856=DIRECTION('',(2.74926370271476E-16,-0.64278760968654,-0.766044443118978));
#857=DIRECTION('',(-1.,-1.76719264386598E-16,-2.10605818213335E-16));
#858=DIRECTION('',(-2.74926370271476E-16,-0.64278760968654,-0.766044443118978));
#859=DIRECTION('',(1.,-1.76719264386598E-16,-2.10605818213335E-16));
#860=DIRECTION('',(-2.74926370271476E-16,0.,-1.));
#861=DIRECTION('',(1.,0.,-2.74926370271476E-16));
#862=DIRECTION('',(2.74926370271476E-16,0.,-1.));
#863=DIRECTION('',(-1.,0.,-2.74926370271476E-16));
#864=DIRECTION('',(1.,0.,0.));
#865=DIRECTION('',(0.,0.,-1.));
#866=DIRECTION('',(1.,0.,0.));
#867=DIRECTION('',(0.,0.,-1.));
#868=DIRECTION('',(-1.,0.,0.));
#869=DIRECTION('',(0.,0.,1.));
#870=DIRECTION('',(-1.,0.,0.));
#871=DIRECTION('',(0.,0.,1.));
#872=DIRECTION('',(-1.,0.,0.));
#873=DIRECTION('',(0.,0.,1.));
#874=DIRECTION('',(-1.,0.,0.));
#875=DIRECTION('',(0.,0.,1.));
#876=DIRECTION('',(-1.,0.,0.));
#877=DIRECTION('',(0.,0.,1.));
#878=DIRECTION('',(-1.,0.,0.));
#879=DIRECTION('',(0.,0.,1.));
#880=DIRECTION('',(-1.,0.,0.));
#881=DIRECTION('',(0.,0.,1.));
#882=DIRECTION('',(1.,0.,0.));
#883=DIRECTION('',(0.,0.,-1.));
#884=DIRECTION('',(1.,0.,0.));
#885=DIRECTION('',(0.,0.,-1.));
#886=DIRECTION('',(-1.,0.,0.));
#887=DIRECTION('',(0.,0.,1.));
#888=DIRECTION('',(1.,0.,0.));
#889=DIRECTION('',(0.,0.,-1.));
#890=DIRECTION('',(1.,0.,0.));
#891=DIRECTION('',(0.,0.,-1.));
#892=DIRECTION('',(-1.,0.,0.));
#893=DIRECTION('',(0.,0.,1.));
#894=DIRECTION('',(-1.,0.,0.));
#895=DIRECTION('',(0.,0.,1.));
#896=DIRECTION('',(-1.,0.,0.));
#897=DIRECTION('',(0.,0.,1.));
#898=DIRECTION('',(-1.,0.,0.));
#899=DIRECTION('',(0.,0.,1.));
#900=DIRECTION('',(-1.,0.,0.));
#901=DIRECTION('',(0.,0.,1.));
#902=DIRECTION('',(-1.,0.,0.));
#903=DIRECTION('',(0.,0.,1.));
#904=DIRECTION('',(-1.,0.,0.));
#905=DIRECTION('',(0.,0.,1.));
#906=DIRECTION('',(-1.,0.,0.));
#907=DIRECTION('',(0.,0.,1.));
#908=DIRECTION('',(-1.,0.,0.));
#909=DIRECTION('',(0.,0.,1.));
#910=DIRECTION('',(-1.,0.,0.));
#911=DIRECTION('',(0.,0.,1.));
#912=DIRECTION('',(-1.,0.,0.));
#913=DIRECTION('',(0.,0.,1.));
#914=DIRECTION('',(-1.,0.,0.));
#915=DIRECTION('',(0.,0.,1.));
#916=DIRECTION('',(-1.,0.,0.));
#917=DIRECTION('',(0.,0.,1.));
#918=DIRECTION('',(1.,0.,0.));
#919=DIRECTION('',(0.,0.,-1.));
#920=DIRECTION('',(1.,0.,0.));
#921=DIRECTION('',(0.,0.,-1.));
#922=DIRECTION('',(1.,0.,0.));
#923=DIRECTION('',(0.,0.,-1.));
#924=DIRECTION('',(-1.,0.,0.));
#925=DIRECTION('',(0.,0.,1.));
#926=DIRECTION('',(1.,0.,0.));
#927=DIRECTION('',(0.,0.,-1.));
#928=CARTESIAN_POINT('',(0.,0.,0.));
#929=CARTESIAN_POINT('',(-2.37616554042796,-4.97850182440934,13.6783213452783));
#930=CARTESIAN_POINT('',(-2.37616554042796,-5.78777810167877,15.9017896431763));
#931=CARTESIAN_POINT('',(2.37616554042796,-4.97850182440934,13.6783213452783));
#932=CARTESIAN_POINT('',(2.37616554042796,-5.78777810167877,15.9017896431763));
#933=CARTESIAN_POINT('',(-2.37616554042796,-12.6060091397023,7.27808277021398));
#934=CARTESIAN_POINT('',(-2.37616554042796,-14.6551686072722,8.46116554042796));
#935=CARTESIAN_POINT('',(2.37616554042796,-12.6060091397023,7.27808277021398));
#936=CARTESIAN_POINT('',(2.37616554042796,-14.6551686072722,8.46116554042796));
#937=CARTESIAN_POINT('',(-2.37616554042796,-14.3350246783426,-2.52765161991348));
#938=CARTESIAN_POINT('',(-2.37616554042796,-16.6652428474664,-2.93853195406708));
#939=CARTESIAN_POINT('',(2.37616554042796,-14.3350246783426,-2.52765161991348));
#940=CARTESIAN_POINT('',(2.37616554042796,-16.6652428474664,-2.93853195406708));
#941=CARTESIAN_POINT('',(-2.37616554042796,-9.35652285393326,-11.1506697253648));
#942=CARTESIAN_POINT('',(-2.37616554042796,-10.8774647457876,-12.9632576891092));
#943=CARTESIAN_POINT('',(2.37616554042796,-9.35652285393326,-11.1506697253648));
#944=CARTESIAN_POINT('',(2.37616554042796,-10.8774647457876,-12.9632576891092));
#945=CARTESIAN_POINT('',(-2.37616554042796,-1.78261615369441E-15,-14.556165540428));
#946=CARTESIAN_POINT('',(-2.37616554042796,-2.0723878592282E-15,-16.9223310808559));
#947=CARTESIAN_POINT('',(2.37616554042796,-1.78261615369441E-15,-14.556165540428));
#948=CARTESIAN_POINT('',(2.37616554042796,-2.0723878592282E-15,-16.9223310808559));
#949=CARTESIAN_POINT('',(-2.37616554042796,9.35652285393326,-11.1506697253648));
#950=CARTESIAN_POINT('',(-2.37616554042796,10.8774647457876,-12.9632576891092));
#951=CARTESIAN_POINT('',(2.37616554042796,9.35652285393326,-11.1506697253648));
#952=CARTESIAN_POINT('',(2.37616554042796,10.8774647457876,-12.9632576891092));
#953=CARTESIAN_POINT('',(-2.37616554042796,14.3350246783426,-2.52765161991348));
#954=CARTESIAN_POINT('',(-2.37616554042796,16.6652428474664,-2.93853195406709));
#955=CARTESIAN_POINT('',(2.37616554042796,14.3350246783426,-2.52765161991348));
#956=CARTESIAN_POINT('',(2.37616554042796,16.6652428474664,-2.93853195406709));
#957=CARTESIAN_POINT('',(-2.37616554042796,12.6060091397023,7.27808277021397));
#958=CARTESIAN_POINT('',(-2.37616554042796,14.6551686072722,8.46116554042795));
#959=CARTESIAN_POINT('',(2.37616554042796,12.6060091397023,7.27808277021397));
#960=CARTESIAN_POINT('',(2.37616554042796,14.6551686072722,8.46116554042795));
#961=CARTESIAN_POINT('',(-2.37616554042796,4.97850182440934,13.6783213452783));
#962=CARTESIAN_POINT('',(-2.37616554042796,5.78777810167877,15.9017896431763));
#963=CARTESIAN_POINT('',(2.37616554042796,4.97850182440934,13.6783213452783));
#964=CARTESIAN_POINT('',(2.37616554042796,5.78777810167877,15.9017896431763));
#965=CARTESIAN_POINT('',(-2.37616554042796,-9.35652285393327,11.1506697253648));
#966=CARTESIAN_POINT('',(-2.37616554042796,-10.8774647457876,12.9632576891092));
#967=CARTESIAN_POINT('',(2.37616554042796,-9.35652285393327,11.1506697253648));
#968=CARTESIAN_POINT('',(2.37616554042796,-10.8774647457876,12.9632576891092));
#969=CARTESIAN_POINT('',(-2.37616554042796,-14.3350246783426,2.52765161991348));
#970=CARTESIAN_POINT('',(-2.37616554042796,-16.6652428474664,2.93853195406708));
#971=CARTESIAN_POINT('',(2.37616554042796,-14.3350246783426,2.52765161991348));
#972=CARTESIAN_POINT('',(2.37616554042796,-16.6652428474664,2.93853195406708));
#973=CARTESIAN_POINT('',(-2.37616554042796,-12.6060091397023,-7.27808277021398));
#974=CARTESIAN_POINT('',(-2.37616554042796,-14.6551686072722,-8.46116554042795));
#975=CARTESIAN_POINT('',(2.37616554042796,-12.6060091397023,-7.27808277021398));
#976=CARTESIAN_POINT('',(2.37616554042796,-14.6551686072722,-8.46116554042795));
#977=CARTESIAN_POINT('',(-2.37616554042796,-4.97850182440933,-13.6783213452783));
#978=CARTESIAN_POINT('',(-2.37616554042796,-5.78777810167876,-15.9017896431763));
#979=CARTESIAN_POINT('',(2.37616554042796,-4.97850182440933,-13.6783213452783));
#980=CARTESIAN_POINT('',(2.37616554042796,-5.78777810167876,-15.9017896431763));
#981=CARTESIAN_POINT('',(-2.37616554042796,4.97850182440932,-13.6783213452783));
#982=CARTESIAN_POINT('',(-2.37616554042796,5.78777810167875,-15.9017896431763));
#983=CARTESIAN_POINT('',(2.37616554042796,4.97850182440932,-13.6783213452783));
#984=CARTESIAN_POINT('',(2.37616554042796,5.78777810167875,-15.9017896431763));
#985=CARTESIAN_POINT('',(-2.37616554042796,12.6060091397023,-7.27808277021399));
#986=CARTESIAN_POINT('',(-2.37616554042796,14.6551686072722,-8.46116554042796));
#987=CARTESIAN_POINT('',(2.37616554042796,12.6060091397023,-7.27808277021399));
#988=CARTESIAN_POINT('',(2.37616554042796,14.6551686072722,-8.46116554042796));
#989=CARTESIAN_POINT('',(-2.37616554042796,14.3350246783426,2.52765161991348));
#990=CARTESIAN_POINT('',(-2.37616554042796,16.6652428474664,2.93853195406708));
#991=CARTESIAN_POINT('',(2.37616554042796,14.3350246783426,2.52765161991348));
#992=CARTESIAN_POINT('',(2.37616554042796,16.6652428474664,2.93853195406708));
#993=CARTESIAN_POINT('',(-2.37616554042796,9.35652285393326,11.1506697253648));
#994=CARTESIAN_POINT('',(-2.37616554042796,10.8774647457876,12.9632576891092));
#995=CARTESIAN_POINT('',(2.37616554042796,9.35652285393326,11.1506697253648));
#996=CARTESIAN_POINT('',(2.37616554042796,10.8774647457876,12.9632576891092));
#997=CARTESIAN_POINT('',(2.37616554042796,0.,14.556165540428));
#998=CARTESIAN_POINT('',(2.37616554042796,0.,16.9223310808559));
#999=CARTESIAN_POINT('',(-2.37616554042796,0.,14.556165540428));
#1000=CARTESIAN_POINT('',(-2.37616554042796,0.,16.9223310808559));
#1001=CARTESIAN_POINT('',(-6.,0.,20.));
#1002=CARTESIAN_POINT('',(-6.,0.,0.));
#1003=CARTESIAN_POINT('',(-6.,0.,-19.4));
#1004=CARTESIAN_POINT('',(-6.,0.,0.));
#1005=CARTESIAN_POINT('',(-6.,0.,16.0395020184543));
#1006=CARTESIAN_POINT('',(0.,0.,0.));
#1007=CARTESIAN_POINT('',(5.99999999999999,0.,0.));
#1008=CARTESIAN_POINT('',(5.99999999999999,0.,16.0395020184543));
#1009=CARTESIAN_POINT('',(6.,0.,16.0395020184543));
#1010=CARTESIAN_POINT('',(6.,0.,0.));
#1011=CARTESIAN_POINT('',(6.,0.,19.4));
#1012=CARTESIAN_POINT('',(0.,0.,0.));
#1013=CARTESIAN_POINT('',(5.4,0.,0.));
#1014=CARTESIAN_POINT('',(5.4,0.,20.));
#1015=CARTESIAN_POINT('',(-5.4,0.,0.));
#1016=CARTESIAN_POINT('',(-5.4,0.,-20.));
#1017=CARTESIAN_POINT('',(-5.4,0.,0.));
#1018=CARTESIAN_POINT('',(5.4,0.,0.));
#1019=CARTESIAN_POINT('',(-5.99999999999999,0.,12.64));
#1020=CARTESIAN_POINT('',(-5.99999999999999,0.,0.));
#1021=CARTESIAN_POINT('',(-5.99999999999999,0.,-9.15207972893961));
#1022=CARTESIAN_POINT('',(-6.,0.,0.));
#1023=CARTESIAN_POINT('',(-6.,0.,12.64));
#1024=CARTESIAN_POINT('',(5.99999999999999,0.,8.5));
#1025=CARTESIAN_POINT('',(5.99999999999999,0.,0.));
#1026=CARTESIAN_POINT('',(5.99999999999999,0.,10.0520797289396));
#1027=CARTESIAN_POINT('',(6.,0.,0.));
#1028=CARTESIAN_POINT('',(6.,0.,12.64));
#1029=CARTESIAN_POINT('',(0.,0.,0.));
#1030=CARTESIAN_POINT('',(3.78132471190772,0.,0.));
#1031=CARTESIAN_POINT('',(3.78132471190772,0.,12.64));
#1032=CARTESIAN_POINT('',(2.37616554042796,0.,0.));
#1033=CARTESIAN_POINT('',(0.971006368948188,0.,0.));
#1034=CARTESIAN_POINT('',(0.971006368948188,0.,12.64));
#1035=CARTESIAN_POINT('',(0.,0.,0.));
#1036=CARTESIAN_POINT('',(-0.971006368948188,0.,0.));
#1037=CARTESIAN_POINT('',(-0.971006368948188,0.,12.64));
#1038=CARTESIAN_POINT('',(-2.37616554042796,0.,0.));
#1039=CARTESIAN_POINT('',(-3.78132471190772,0.,0.));
#1040=CARTESIAN_POINT('',(-3.78132471190772,0.,12.64));
#1041=CARTESIAN_POINT('',(0.,0.,0.));
#1042=CARTESIAN_POINT('',(6.,0.,0.));
#1043=CARTESIAN_POINT('',(-5.35017271208775,0.,0.));
#1044=CARTESIAN_POINT('',(-5.35017271208775,0.,-8.55415227399269));
#1045=CARTESIAN_POINT('',(5.44982728791224,0.,0.));
#1046=CARTESIAN_POINT('',(5.44982728791224,0.,-9.45415227399269));
#1047=CARTESIAN_POINT('',(5.4,0.,0.));
#1048=CARTESIAN_POINT('',(-5.4,0.,0.));
#1049=MECHANICAL_DESIGN_GEOMETRIC_PRESENTATION_REPRESENTATION('',(#414,
#415,#416,#417,#418,#419,#420,#421,#422,#423,#424,#425,#426,#427,#428,#429,
#430,#431,#432,#433,#434,#435,#436,#437,#438,#439,#440,#441,#442,#443,#444,
#445,#446,#447,#448,#449,#450,#451),#1050);
#1050=(
GEOMETRIC_REPRESENTATION_CONTEXT(3)
GLOBAL_UNCERTAINTY_ASSIGNED_CONTEXT((#1051))
GLOBAL_UNIT_ASSIGNED_CONTEXT((#1054,#1053,#1052))
REPRESENTATION_CONTEXT('\X2\570667F15B548C035FC374038F74627F\X0\10000K
\X2\578B\X0\','TOP_LEVEL_ASSEMBLY_PART')
);
#1051=UNCERTAINTY_MEASURE_WITH_UNIT(LENGTH_MEASURE(0.005),#1054,
'DISTANCE_ACCURACY_VALUE','Maximum Tolerance applied to model');
#1052=(
NAMED_UNIT(*)
SI_UNIT($,.STERADIAN.)
SOLID_ANGLE_UNIT()
);
#1053=(
NAMED_UNIT(*)
PLANE_ANGLE_UNIT()
SI_UNIT($,.RADIAN.)
);
#1054=(
LENGTH_UNIT()
NAMED_UNIT(*)
SI_UNIT(.MILLI.,.METRE.)
);
#1055=PRODUCT_DEFINITION_SHAPE('','',#1056);
#1056=PRODUCT_DEFINITION('','',#1058,#1057);
#1057=PRODUCT_DEFINITION_CONTEXT('',#1064,'design');
#1058=PRODUCT_DEFINITION_FORMATION_WITH_SPECIFIED_SOURCE('','',#1060,
 .NOT_KNOWN.);
#1059=PRODUCT_RELATED_PRODUCT_CATEGORY('','',(#1060));
#1060=PRODUCT('\X2\570667F15B548C035FC374038F74627F\X0\10000K\X2\578B\X0\',
'\X2\570667F15B548C035FC374038F74627F\X0\10000K\X2\578B\X0\',
'\X2\570667F15B548C035FC374038F74627F\X0\10000K\X2\578B\X0\',(#1062));
#1061=PRODUCT_CATEGORY('','');
#1062=PRODUCT_CONTEXT('',#1064,'mechanical');
#1063=APPLICATION_PROTOCOL_DEFINITION('international standard',
'automotive_design',2010,#1064);
#1064=APPLICATION_CONTEXT(
'core data for automotive mechanical design processes');
ENDSEC;
END-ISO-10303-21;
