ISO-10303-21;
HEADER;
/* Generated by software containing HOOPS Exchange Step
 * from HOOPS Exchange, Inc. (www.tiangong.cloud) 
 */

FILE_DESCRIPTION(
/* description */ ('Unknown'),
/* implementation_level */ '2;1');

FILE_NAME(
/* name */ '\X2\56DB70B963A589E674038F74627F\X0\QJ\X2\578B\X0\ GBT294-
1994',
/* time_stamp */ '2025-09-08T14:12:38+08:00',
/* author */ ('Unknown'),
/* organization */ ('Unknown'),
/* preprocessor_version */ 'ST-DEVELOPER v19.4',
/* originating_system */ 'TianGong',
/* authorisation */ 'Unknown');

FILE_SCHEMA (('AUTOMOTIVE_DESIGN {1 0 10303 214 3 1 1}'));
ENDSEC;

DATA;
#10=PROPERTY_DEFINITION_REPRESENTATION(#14,#12);
#11=PROPERTY_DEFINITION_REPRESENTATION(#15,#13);
#12=REPRESENTATION('',(#16),#1291);
#13=REPRESENTATION('',(#17),#1291);
#14=PROPERTY_DEFINITION('pmi validation property','',#1296);
#15=PROPERTY_DEFINITION('pmi validation property','',#1296);
#16=VALUE_REPRESENTATION_ITEM('number of annotations',COUNT_MEASURE(0.));
#17=VALUE_REPRESENTATION_ITEM('number of views',COUNT_MEASURE(0.));
#18=SHAPE_REPRESENTATION_RELATIONSHIP('','',#665,#19);
#19=ADVANCED_BREP_SHAPE_REPRESENTATION('',(#663),#1291);
#20=PLANE('',#712);
#21=PLANE('',#721);
#22=PLANE('',#724);
#23=PLANE('',#730);
#24=CYLINDRICAL_SURFACE('',#709,4.99999999999999);
#25=CYLINDRICAL_SURFACE('',#715,7.4);
#26=CYLINDRICAL_SURFACE('',#719,7.4);
#27=CYLINDRICAL_SURFACE('',#727,13.);
#28=CYLINDRICAL_SURFACE('',#733,10.6);
#29=CYLINDRICAL_SURFACE('',#737,10.6);
#30=SPHERICAL_SURFACE('',#673,2.41);
#31=SPHERICAL_SURFACE('',#680,2.41);
#32=SPHERICAL_SURFACE('',#687,2.41);
#33=SPHERICAL_SURFACE('',#694,2.41);
#34=SPHERICAL_SURFACE('',#701,2.41);
#35=SPHERICAL_SURFACE('',#708,2.41);
#36=SPHERICAL_SURFACE('',#723,2.41);
#37=B_SPLINE_CURVE_WITH_KNOTS('',3,(#899,#900,#901,#902,#903),
 .UNSPECIFIED.,.F.,.F.,(4,1,4),(2.95780937722945E-7,0.00200924504631508,
0.00401819431169243),.UNSPECIFIED.);
#38=B_SPLINE_CURVE_WITH_KNOTS('',3,(#907,#908,#909,#910,#911),
 .UNSPECIFIED.,.F.,.F.,(4,1,4),(2.95780937906737E-7,0.00200924504631526,
0.00401819431169262),.UNSPECIFIED.);
#39=B_SPLINE_CURVE_WITH_KNOTS('',3,(#916,#917,#918,#919,#920),
 .UNSPECIFIED.,.F.,.F.,(4,1,4),(2.95776314858049E-7,0.00200923059254856,
0.00401816540878226),.UNSPECIFIED.);
#40=B_SPLINE_CURVE_WITH_KNOTS('',3,(#924,#925,#926,#927,#928),
 .UNSPECIFIED.,.F.,.F.,(4,1,4),(2.95776314762321E-7,0.00200923059254829,
0.00401816540878183),.UNSPECIFIED.);
#41=B_SPLINE_CURVE_WITH_KNOTS('',3,(#930,#931,#932,#933),.UNSPECIFIED.,
 .F.,.F.,(4,4),(1.7634005887274E-6,0.000477763275964931),.UNSPECIFIED.);
#42=B_SPLINE_CURVE_WITH_KNOTS('',3,(#935,#936,#937,#938),.UNSPECIFIED.,
 .F.,.F.,(4,4),(1.76340064830295E-6,0.000477763275978059),.UNSPECIFIED.);
#43=B_SPLINE_CURVE_WITH_KNOTS('',3,(#940,#941,#942,#943,#944),
 .UNSPECIFIED.,.F.,.F.,(4,1,4),(2.95776314858728E-7,0.00200923059254856,
0.00401816540878226),.UNSPECIFIED.);
#44=B_SPLINE_CURVE_WITH_KNOTS('',3,(#945,#946,#947,#948),.UNSPECIFIED.,
 .F.,.F.,(4,4),(1.47325572337837E-6,0.000399175396111294),.UNSPECIFIED.);
#45=B_SPLINE_CURVE_WITH_KNOTS('',3,(#950,#951,#952,#953),.UNSPECIFIED.,
 .F.,.F.,(4,4),(1.47325567848093E-6,0.000399175396066381),.UNSPECIFIED.);
#46=B_SPLINE_CURVE_WITH_KNOTS('',3,(#955,#956,#957,#958,#959),
 .UNSPECIFIED.,.F.,.F.,(4,1,4),(2.9578093772344E-7,0.00200924504631508,
0.00401819431169243),.UNSPECIFIED.);
#47=B_SPLINE_CURVE_WITH_KNOTS('',3,(#965,#966,#967,#968,#969),
 .UNSPECIFIED.,.F.,.F.,(4,1,4),(2.95780937907362E-7,0.00200924504631526,
0.00401819431169262),.UNSPECIFIED.);
#48=B_SPLINE_CURVE_WITH_KNOTS('',3,(#975,#976,#977,#978,#979),
 .UNSPECIFIED.,.F.,.F.,(4,1,4),(2.9577631476241E-7,0.00200923059254829,
0.00401816540878182),.UNSPECIFIED.);
#49=B_SPLINE_CURVE_WITH_KNOTS('',3,(#981,#982,#983,#984),.UNSPECIFIED.,
 .F.,.F.,(4,4),(1.76340058872676E-6,0.000477763275964932),.UNSPECIFIED.);
#50=B_SPLINE_CURVE_WITH_KNOTS('',3,(#986,#987,#988,#989),.UNSPECIFIED.,
 .F.,.F.,(4,4),(1.76340064830282E-6,0.000477763275978059),.UNSPECIFIED.);
#51=B_SPLINE_CURVE_WITH_KNOTS('',3,(#991,#992,#993,#994,#995),
 .UNSPECIFIED.,.F.,.F.,(4,1,4),(2.95776314859178E-7,0.00200923059254856,
0.00401816540878226),.UNSPECIFIED.);
#52=B_SPLINE_CURVE_WITH_KNOTS('',3,(#996,#997,#998,#999),.UNSPECIFIED.,
 .F.,.F.,(4,4),(1.47325572337916E-6,0.000399175396111294),.UNSPECIFIED.);
#53=B_SPLINE_CURVE_WITH_KNOTS('',3,(#1001,#1002,#1003,#1004),
 .UNSPECIFIED.,.F.,.F.,(4,4),(1.47325567848027E-6,0.00039917539606638),
 .UNSPECIFIED.);
#54=B_SPLINE_CURVE_WITH_KNOTS('',3,(#1006,#1007,#1008,#1009,#1010),
 .UNSPECIFIED.,.F.,.F.,(4,1,4),(2.95780937723079E-7,0.00200924504631508,
0.00401819431169243),.UNSPECIFIED.);
#55=B_SPLINE_CURVE_WITH_KNOTS('',3,(#1016,#1017,#1018,#1019,#1020),
 .UNSPECIFIED.,.F.,.F.,(4,1,4),(2.95780937906945E-7,0.00200924504631526,
0.00401819431169262),.UNSPECIFIED.);
#56=B_SPLINE_CURVE_WITH_KNOTS('',3,(#1026,#1027,#1028,#1029,#1030),
 .UNSPECIFIED.,.F.,.F.,(4,1,4),(2.95776314761227E-7,0.00200923059254829,
0.00401816540878183),.UNSPECIFIED.);
#57=B_SPLINE_CURVE_WITH_KNOTS('',3,(#1032,#1033,#1034,#1035),
 .UNSPECIFIED.,.F.,.F.,(4,4),(1.76340058872729E-6,0.000477763275964932),
 .UNSPECIFIED.);
#58=B_SPLINE_CURVE_WITH_KNOTS('',3,(#1037,#1038,#1039,#1040),
 .UNSPECIFIED.,.F.,.F.,(4,4),(1.76340064830226E-6,0.000477763275978058),
 .UNSPECIFIED.);
#59=B_SPLINE_CURVE_WITH_KNOTS('',3,(#1042,#1043,#1044,#1045,#1046),
 .UNSPECIFIED.,.F.,.F.,(4,1,4),(2.95776314859154E-7,0.00200923059254856,
0.00401816540878226),.UNSPECIFIED.);
#60=B_SPLINE_CURVE_WITH_KNOTS('',3,(#1047,#1048,#1049,#1050),
 .UNSPECIFIED.,.F.,.F.,(4,4),(1.4732557233794E-6,0.000399175396111294),
 .UNSPECIFIED.);
#61=B_SPLINE_CURVE_WITH_KNOTS('',3,(#1052,#1053,#1054,#1055),
 .UNSPECIFIED.,.F.,.F.,(4,4),(1.47325567848054E-6,0.00039917539606638),
 .UNSPECIFIED.);
#62=B_SPLINE_CURVE_WITH_KNOTS('',3,(#1057,#1058,#1059,#1060,#1061),
 .UNSPECIFIED.,.F.,.F.,(4,1,4),(2.95780937723518E-7,0.00200924504631508,
0.00401819431169243),.UNSPECIFIED.);
#63=B_SPLINE_CURVE_WITH_KNOTS('',3,(#1067,#1068,#1069,#1070,#1071),
 .UNSPECIFIED.,.F.,.F.,(4,1,4),(2.95780937906588E-7,0.00200924504631526,
0.00401819431169262),.UNSPECIFIED.);
#64=B_SPLINE_CURVE_WITH_KNOTS('',3,(#1077,#1078,#1079,#1080,#1081),
 .UNSPECIFIED.,.F.,.F.,(4,1,4),(2.95776314760915E-7,0.00200923059254829,
0.00401816540878183),.UNSPECIFIED.);
#65=B_SPLINE_CURVE_WITH_KNOTS('',3,(#1083,#1084,#1085,#1086),
 .UNSPECIFIED.,.F.,.F.,(4,4),(1.76340058872654E-6,0.000477763275964931),
 .UNSPECIFIED.);
#66=B_SPLINE_CURVE_WITH_KNOTS('',3,(#1088,#1089,#1090,#1091),
 .UNSPECIFIED.,.F.,.F.,(4,4),(1.76340064830384E-6,0.00047776327597806),
 .UNSPECIFIED.);
#67=B_SPLINE_CURVE_WITH_KNOTS('',3,(#1093,#1094,#1095,#1096,#1097),
 .UNSPECIFIED.,.F.,.F.,(4,1,4),(2.95776314857711E-7,0.00200923059254856,
0.00401816540878226),.UNSPECIFIED.);
#68=B_SPLINE_CURVE_WITH_KNOTS('',3,(#1098,#1099,#1100,#1101),
 .UNSPECIFIED.,.F.,.F.,(4,4),(1.47325572337914E-6,0.000399175396111294),
 .UNSPECIFIED.);
#69=B_SPLINE_CURVE_WITH_KNOTS('',3,(#1103,#1104,#1105,#1106),
 .UNSPECIFIED.,.F.,.F.,(4,4),(1.47325567848067E-6,0.000399175396066381),
 .UNSPECIFIED.);
#70=B_SPLINE_CURVE_WITH_KNOTS('',3,(#1108,#1109,#1110,#1111,#1112),
 .UNSPECIFIED.,.F.,.F.,(4,1,4),(2.95780937723489E-7,0.00200924504631508,
0.00401819431169243),.UNSPECIFIED.);
#71=B_SPLINE_CURVE_WITH_KNOTS('',3,(#1118,#1119,#1120,#1121,#1122),
 .UNSPECIFIED.,.F.,.F.,(4,1,4),(2.95780937907428E-7,0.00200924504631526,
0.00401819431169262),.UNSPECIFIED.);
#72=B_SPLINE_CURVE_WITH_KNOTS('',3,(#1128,#1129,#1130,#1131,#1132),
 .UNSPECIFIED.,.F.,.F.,(4,1,4),(2.95776314761831E-7,0.00200923059254829,
0.00401816540878183),.UNSPECIFIED.);
#73=B_SPLINE_CURVE_WITH_KNOTS('',3,(#1134,#1135,#1136,#1137),
 .UNSPECIFIED.,.F.,.F.,(4,4),(1.76340058872668E-6,0.000477763275964932),
 .UNSPECIFIED.);
#74=B_SPLINE_CURVE_WITH_KNOTS('',3,(#1139,#1140,#1141,#1142),
 .UNSPECIFIED.,.F.,.F.,(4,4),(1.76340064830278E-6,0.000477763275978058),
 .UNSPECIFIED.);
#75=B_SPLINE_CURVE_WITH_KNOTS('',3,(#1144,#1145,#1146,#1147,#1148),
 .UNSPECIFIED.,.F.,.F.,(4,1,4),(2.95776314859347E-7,0.00200923059254856,
0.00401816540878226),.UNSPECIFIED.);
#76=B_SPLINE_CURVE_WITH_KNOTS('',3,(#1149,#1150,#1151,#1152),
 .UNSPECIFIED.,.F.,.F.,(4,4),(1.47325572337919E-6,0.000399175396111293),
 .UNSPECIFIED.);
#77=B_SPLINE_CURVE_WITH_KNOTS('',3,(#1154,#1155,#1156,#1157),
 .UNSPECIFIED.,.F.,.F.,(4,4),(1.4732556784807E-6,0.000399175396066381),
 .UNSPECIFIED.);
#78=B_SPLINE_CURVE_WITH_KNOTS('',3,(#1159,#1160,#1161,#1162,#1163),
 .UNSPECIFIED.,.F.,.F.,(4,1,4),(2.95780937723802E-7,0.00200924504631508,
0.00401819431169243),.UNSPECIFIED.);
#79=B_SPLINE_CURVE_WITH_KNOTS('',3,(#1169,#1170,#1171,#1172,#1173),
 .UNSPECIFIED.,.F.,.F.,(4,1,4),(2.95780937906458E-7,0.00200924504631526,
0.00401819431169262),.UNSPECIFIED.);
#80=B_SPLINE_CURVE_WITH_KNOTS('',3,(#1179,#1180,#1181,#1182,#1183),
 .UNSPECIFIED.,.F.,.F.,(4,1,4),(2.957763147602E-7,0.00200923059254829,0.00401816540878183),
 .UNSPECIFIED.);
#81=B_SPLINE_CURVE_WITH_KNOTS('',3,(#1185,#1186,#1187,#1188),
 .UNSPECIFIED.,.F.,.F.,(4,4),(1.763400588727E-6,0.00047776327596493),
 .UNSPECIFIED.);
#82=B_SPLINE_CURVE_WITH_KNOTS('',3,(#1190,#1191,#1192,#1193),
 .UNSPECIFIED.,.F.,.F.,(4,4),(1.76340064830321E-6,0.000477763275978058),
 .UNSPECIFIED.);
#83=B_SPLINE_CURVE_WITH_KNOTS('',3,(#1195,#1196,#1197,#1198,#1199),
 .UNSPECIFIED.,.F.,.F.,(4,1,4),(2.9577631485832E-7,0.00200923059254856,
0.00401816540878226),.UNSPECIFIED.);
#84=B_SPLINE_CURVE_WITH_KNOTS('',3,(#1200,#1201,#1202,#1203),
 .UNSPECIFIED.,.F.,.F.,(4,4),(1.47325572337933E-6,0.000399175396111293),
 .UNSPECIFIED.);
#85=B_SPLINE_CURVE_WITH_KNOTS('',3,(#1205,#1206,#1207,#1208),
 .UNSPECIFIED.,.F.,.F.,(4,4),(1.47325567847945E-6,0.00039917539606638),
 .UNSPECIFIED.);
#86=B_SPLINE_CURVE_WITH_KNOTS('',3,(#1210,#1211,#1212,#1213,#1214),
 .UNSPECIFIED.,.F.,.F.,(4,1,4),(2.95780937722879E-7,0.00200924504631508,
0.00401819431169243),.UNSPECIFIED.);
#87=B_SPLINE_CURVE_WITH_KNOTS('',3,(#1228,#1229,#1230,#1231),
 .UNSPECIFIED.,.F.,.F.,(4,4),(1.47325572337912E-6,0.000399175396111294),
 .UNSPECIFIED.);
#88=B_SPLINE_CURVE_WITH_KNOTS('',3,(#1235,#1236,#1237,#1238,#1239),
 .UNSPECIFIED.,.F.,.F.,(4,1,4),(2.95780937906736E-7,0.00200924504631526,
0.00401819431169262),.UNSPECIFIED.);
#89=B_SPLINE_CURVE_WITH_KNOTS('',3,(#1243,#1244,#1245,#1246),
 .UNSPECIFIED.,.F.,.F.,(4,4),(1.47325567848052E-6,0.00039917539606638),
 .UNSPECIFIED.);
#90=B_SPLINE_CURVE_WITH_KNOTS('',3,(#1251,#1252,#1253,#1254),
 .UNSPECIFIED.,.F.,.F.,(4,4),(1.7634005887268E-6,0.000477763275964931),
 .UNSPECIFIED.);
#91=B_SPLINE_CURVE_WITH_KNOTS('',3,(#1256,#1257,#1258,#1259,#1260),
 .UNSPECIFIED.,.F.,.F.,(4,1,4),(2.95776314761025E-7,0.00200923059254829,
0.00401816540878183),.UNSPECIFIED.);
#92=B_SPLINE_CURVE_WITH_KNOTS('',3,(#1262,#1263,#1264,#1265),
 .UNSPECIFIED.,.F.,.F.,(4,4),(1.76340064830273E-6,0.000477763275978058),
 .UNSPECIFIED.);
#93=ORIENTED_EDGE('',*,*,#285,.T.);
#94=ORIENTED_EDGE('',*,*,#286,.T.);
#95=ORIENTED_EDGE('',*,*,#287,.F.);
#96=ORIENTED_EDGE('',*,*,#288,.T.);
#97=ORIENTED_EDGE('',*,*,#289,.T.);
#98=ORIENTED_EDGE('',*,*,#290,.F.);
#99=ORIENTED_EDGE('',*,*,#291,.F.);
#100=ORIENTED_EDGE('',*,*,#292,.F.);
#101=ORIENTED_EDGE('',*,*,#293,.T.);
#102=ORIENTED_EDGE('',*,*,#292,.T.);
#103=ORIENTED_EDGE('',*,*,#294,.T.);
#104=ORIENTED_EDGE('',*,*,#295,.T.);
#105=ORIENTED_EDGE('',*,*,#296,.F.);
#106=ORIENTED_EDGE('',*,*,#288,.F.);
#107=ORIENTED_EDGE('',*,*,#297,.F.);
#108=ORIENTED_EDGE('',*,*,#298,.F.);
#109=ORIENTED_EDGE('',*,*,#299,.T.);
#110=ORIENTED_EDGE('',*,*,#298,.T.);
#111=ORIENTED_EDGE('',*,*,#300,.F.);
#112=ORIENTED_EDGE('',*,*,#301,.T.);
#113=ORIENTED_EDGE('',*,*,#302,.T.);
#114=ORIENTED_EDGE('',*,*,#295,.F.);
#115=ORIENTED_EDGE('',*,*,#303,.F.);
#116=ORIENTED_EDGE('',*,*,#304,.F.);
#117=ORIENTED_EDGE('',*,*,#305,.T.);
#118=ORIENTED_EDGE('',*,*,#304,.T.);
#119=ORIENTED_EDGE('',*,*,#306,.T.);
#120=ORIENTED_EDGE('',*,*,#307,.T.);
#121=ORIENTED_EDGE('',*,*,#308,.F.);
#122=ORIENTED_EDGE('',*,*,#301,.F.);
#123=ORIENTED_EDGE('',*,*,#309,.F.);
#124=ORIENTED_EDGE('',*,*,#310,.F.);
#125=ORIENTED_EDGE('',*,*,#311,.T.);
#126=ORIENTED_EDGE('',*,*,#310,.T.);
#127=ORIENTED_EDGE('',*,*,#312,.F.);
#128=ORIENTED_EDGE('',*,*,#313,.T.);
#129=ORIENTED_EDGE('',*,*,#314,.T.);
#130=ORIENTED_EDGE('',*,*,#307,.F.);
#131=ORIENTED_EDGE('',*,*,#315,.F.);
#132=ORIENTED_EDGE('',*,*,#316,.F.);
#133=ORIENTED_EDGE('',*,*,#317,.T.);
#134=ORIENTED_EDGE('',*,*,#316,.T.);
#135=ORIENTED_EDGE('',*,*,#318,.T.);
#136=ORIENTED_EDGE('',*,*,#319,.T.);
#137=ORIENTED_EDGE('',*,*,#320,.F.);
#138=ORIENTED_EDGE('',*,*,#313,.F.);
#139=ORIENTED_EDGE('',*,*,#321,.F.);
#140=ORIENTED_EDGE('',*,*,#322,.F.);
#141=ORIENTED_EDGE('',*,*,#323,.T.);
#142=ORIENTED_EDGE('',*,*,#322,.T.);
#143=ORIENTED_EDGE('',*,*,#324,.F.);
#144=ORIENTED_EDGE('',*,*,#325,.T.);
#145=ORIENTED_EDGE('',*,*,#326,.T.);
#146=ORIENTED_EDGE('',*,*,#319,.F.);
#147=ORIENTED_EDGE('',*,*,#327,.F.);
#148=ORIENTED_EDGE('',*,*,#328,.F.);
#149=ORIENTED_EDGE('',*,*,#329,.T.);
#150=ORIENTED_EDGE('',*,*,#328,.T.);
#151=ORIENTED_EDGE('',*,*,#330,.T.);
#152=ORIENTED_EDGE('',*,*,#331,.T.);
#153=ORIENTED_EDGE('',*,*,#332,.F.);
#154=ORIENTED_EDGE('',*,*,#325,.F.);
#155=ORIENTED_EDGE('',*,*,#333,.F.);
#156=ORIENTED_EDGE('',*,*,#334,.F.);
#157=ORIENTED_EDGE('',*,*,#335,.T.);
#158=ORIENTED_EDGE('',*,*,#334,.T.);
#159=ORIENTED_EDGE('',*,*,#336,.F.);
#160=ORIENTED_EDGE('',*,*,#337,.T.);
#161=ORIENTED_EDGE('',*,*,#338,.T.);
#162=ORIENTED_EDGE('',*,*,#331,.F.);
#163=ORIENTED_EDGE('',*,*,#339,.F.);
#164=ORIENTED_EDGE('',*,*,#340,.F.);
#165=ORIENTED_EDGE('',*,*,#341,.T.);
#166=ORIENTED_EDGE('',*,*,#340,.T.);
#167=ORIENTED_EDGE('',*,*,#342,.T.);
#168=ORIENTED_EDGE('',*,*,#343,.T.);
#169=ORIENTED_EDGE('',*,*,#344,.F.);
#170=ORIENTED_EDGE('',*,*,#337,.F.);
#171=ORIENTED_EDGE('',*,*,#345,.F.);
#172=ORIENTED_EDGE('',*,*,#346,.F.);
#173=ORIENTED_EDGE('',*,*,#347,.T.);
#174=ORIENTED_EDGE('',*,*,#346,.T.);
#175=ORIENTED_EDGE('',*,*,#348,.F.);
#176=ORIENTED_EDGE('',*,*,#349,.T.);
#177=ORIENTED_EDGE('',*,*,#350,.T.);
#178=ORIENTED_EDGE('',*,*,#343,.F.);
#179=ORIENTED_EDGE('',*,*,#351,.F.);
#180=ORIENTED_EDGE('',*,*,#352,.F.);
#181=ORIENTED_EDGE('',*,*,#353,.T.);
#182=ORIENTED_EDGE('',*,*,#352,.T.);
#183=ORIENTED_EDGE('',*,*,#354,.T.);
#184=ORIENTED_EDGE('',*,*,#355,.T.);
#185=ORIENTED_EDGE('',*,*,#356,.F.);
#186=ORIENTED_EDGE('',*,*,#349,.F.);
#187=ORIENTED_EDGE('',*,*,#357,.F.);
#188=ORIENTED_EDGE('',*,*,#358,.F.);
#189=ORIENTED_EDGE('',*,*,#359,.T.);
#190=ORIENTED_EDGE('',*,*,#360,.T.);
#191=ORIENTED_EDGE('',*,*,#361,.T.);
#192=ORIENTED_EDGE('',*,*,#362,.F.);
#193=ORIENTED_EDGE('',*,*,#299,.F.);
#194=ORIENTED_EDGE('',*,*,#308,.T.);
#195=ORIENTED_EDGE('',*,*,#311,.F.);
#196=ORIENTED_EDGE('',*,*,#320,.T.);
#197=ORIENTED_EDGE('',*,*,#323,.F.);
#198=ORIENTED_EDGE('',*,*,#332,.T.);
#199=ORIENTED_EDGE('',*,*,#335,.F.);
#200=ORIENTED_EDGE('',*,*,#344,.T.);
#201=ORIENTED_EDGE('',*,*,#347,.F.);
#202=ORIENTED_EDGE('',*,*,#356,.T.);
#203=ORIENTED_EDGE('',*,*,#363,.F.);
#204=ORIENTED_EDGE('',*,*,#364,.T.);
#205=ORIENTED_EDGE('',*,*,#285,.F.);
#206=ORIENTED_EDGE('',*,*,#296,.T.);
#207=ORIENTED_EDGE('',*,*,#362,.T.);
#208=ORIENTED_EDGE('',*,*,#363,.T.);
#209=ORIENTED_EDGE('',*,*,#358,.T.);
#210=ORIENTED_EDGE('',*,*,#365,.F.);
#211=ORIENTED_EDGE('',*,*,#366,.T.);
#212=ORIENTED_EDGE('',*,*,#367,.F.);
#213=ORIENTED_EDGE('',*,*,#300,.T.);
#214=ORIENTED_EDGE('',*,*,#297,.T.);
#215=ORIENTED_EDGE('',*,*,#287,.T.);
#216=ORIENTED_EDGE('',*,*,#368,.T.);
#217=ORIENTED_EDGE('',*,*,#365,.T.);
#218=ORIENTED_EDGE('',*,*,#357,.T.);
#219=ORIENTED_EDGE('',*,*,#348,.T.);
#220=ORIENTED_EDGE('',*,*,#345,.T.);
#221=ORIENTED_EDGE('',*,*,#336,.T.);
#222=ORIENTED_EDGE('',*,*,#333,.T.);
#223=ORIENTED_EDGE('',*,*,#324,.T.);
#224=ORIENTED_EDGE('',*,*,#321,.T.);
#225=ORIENTED_EDGE('',*,*,#312,.T.);
#226=ORIENTED_EDGE('',*,*,#309,.T.);
#227=ORIENTED_EDGE('',*,*,#369,.T.);
#228=ORIENTED_EDGE('',*,*,#367,.T.);
#229=ORIENTED_EDGE('',*,*,#370,.T.);
#230=ORIENTED_EDGE('',*,*,#371,.T.);
#231=ORIENTED_EDGE('',*,*,#372,.T.);
#232=ORIENTED_EDGE('',*,*,#290,.T.);
#233=ORIENTED_EDGE('',*,*,#364,.F.);
#234=ORIENTED_EDGE('',*,*,#366,.F.);
#235=ORIENTED_EDGE('',*,*,#368,.F.);
#236=ORIENTED_EDGE('',*,*,#286,.F.);
#237=ORIENTED_EDGE('',*,*,#373,.T.);
#238=ORIENTED_EDGE('',*,*,#374,.F.);
#239=ORIENTED_EDGE('',*,*,#375,.T.);
#240=ORIENTED_EDGE('',*,*,#376,.T.);
#241=ORIENTED_EDGE('',*,*,#377,.T.);
#242=ORIENTED_EDGE('',*,*,#378,.T.);
#243=ORIENTED_EDGE('',*,*,#303,.T.);
#244=ORIENTED_EDGE('',*,*,#294,.F.);
#245=ORIENTED_EDGE('',*,*,#291,.T.);
#246=ORIENTED_EDGE('',*,*,#372,.F.);
#247=ORIENTED_EDGE('',*,*,#379,.T.);
#248=ORIENTED_EDGE('',*,*,#354,.F.);
#249=ORIENTED_EDGE('',*,*,#351,.T.);
#250=ORIENTED_EDGE('',*,*,#342,.F.);
#251=ORIENTED_EDGE('',*,*,#339,.T.);
#252=ORIENTED_EDGE('',*,*,#330,.F.);
#253=ORIENTED_EDGE('',*,*,#327,.T.);
#254=ORIENTED_EDGE('',*,*,#318,.F.);
#255=ORIENTED_EDGE('',*,*,#315,.T.);
#256=ORIENTED_EDGE('',*,*,#306,.F.);
#257=ORIENTED_EDGE('',*,*,#378,.F.);
#258=ORIENTED_EDGE('',*,*,#380,.T.);
#259=ORIENTED_EDGE('',*,*,#355,.F.);
#260=ORIENTED_EDGE('',*,*,#379,.F.);
#261=ORIENTED_EDGE('',*,*,#371,.F.);
#262=ORIENTED_EDGE('',*,*,#302,.F.);
#263=ORIENTED_EDGE('',*,*,#305,.F.);
#264=ORIENTED_EDGE('',*,*,#314,.F.);
#265=ORIENTED_EDGE('',*,*,#317,.F.);
#266=ORIENTED_EDGE('',*,*,#326,.F.);
#267=ORIENTED_EDGE('',*,*,#329,.F.);
#268=ORIENTED_EDGE('',*,*,#338,.F.);
#269=ORIENTED_EDGE('',*,*,#341,.F.);
#270=ORIENTED_EDGE('',*,*,#350,.F.);
#271=ORIENTED_EDGE('',*,*,#353,.F.);
#272=ORIENTED_EDGE('',*,*,#380,.F.);
#273=ORIENTED_EDGE('',*,*,#370,.F.);
#274=ORIENTED_EDGE('',*,*,#289,.F.);
#275=ORIENTED_EDGE('',*,*,#293,.F.);
#276=ORIENTED_EDGE('',*,*,#374,.T.);
#277=ORIENTED_EDGE('',*,*,#377,.F.);
#278=ORIENTED_EDGE('',*,*,#376,.F.);
#279=ORIENTED_EDGE('',*,*,#369,.F.);
#280=ORIENTED_EDGE('',*,*,#360,.F.);
#281=ORIENTED_EDGE('',*,*,#359,.F.);
#282=ORIENTED_EDGE('',*,*,#361,.F.);
#283=ORIENTED_EDGE('',*,*,#375,.F.);
#284=ORIENTED_EDGE('',*,*,#373,.F.);
#285=EDGE_CURVE('',#381,#382,#449,.T.);
#286=EDGE_CURVE('',#382,#383,#37,.T.);
#287=EDGE_CURVE('',#384,#383,#450,.T.);
#288=EDGE_CURVE('',#384,#381,#38,.T.);
#289=EDGE_CURVE('',#385,#386,#451,.T.);
#290=EDGE_CURVE('',#387,#386,#39,.T.);
#291=EDGE_CURVE('',#388,#387,#452,.T.);
#292=EDGE_CURVE('',#385,#388,#40,.T.);
#293=EDGE_CURVE('',#389,#385,#41,.T.);
#294=EDGE_CURVE('',#388,#390,#42,.T.);
#295=EDGE_CURVE('',#390,#389,#43,.T.);
#296=EDGE_CURVE('',#381,#391,#44,.T.);
#297=EDGE_CURVE('',#392,#384,#45,.T.);
#298=EDGE_CURVE('',#391,#392,#46,.T.);
#299=EDGE_CURVE('',#393,#391,#453,.T.);
#300=EDGE_CURVE('',#394,#392,#454,.T.);
#301=EDGE_CURVE('',#394,#393,#47,.T.);
#302=EDGE_CURVE('',#395,#389,#455,.T.);
#303=EDGE_CURVE('',#396,#390,#456,.T.);
#304=EDGE_CURVE('',#395,#396,#48,.T.);
#305=EDGE_CURVE('',#397,#395,#49,.T.);
#306=EDGE_CURVE('',#396,#398,#50,.T.);
#307=EDGE_CURVE('',#398,#397,#51,.T.);
#308=EDGE_CURVE('',#393,#399,#52,.T.);
#309=EDGE_CURVE('',#400,#394,#53,.T.);
#310=EDGE_CURVE('',#399,#400,#54,.T.);
#311=EDGE_CURVE('',#401,#399,#457,.T.);
#312=EDGE_CURVE('',#402,#400,#458,.T.);
#313=EDGE_CURVE('',#402,#401,#55,.T.);
#314=EDGE_CURVE('',#403,#397,#459,.T.);
#315=EDGE_CURVE('',#404,#398,#460,.T.);
#316=EDGE_CURVE('',#403,#404,#56,.T.);
#317=EDGE_CURVE('',#405,#403,#57,.T.);
#318=EDGE_CURVE('',#404,#406,#58,.T.);
#319=EDGE_CURVE('',#406,#405,#59,.T.);
#320=EDGE_CURVE('',#401,#407,#60,.T.);
#321=EDGE_CURVE('',#408,#402,#61,.T.);
#322=EDGE_CURVE('',#407,#408,#62,.T.);
#323=EDGE_CURVE('',#409,#407,#461,.T.);
#324=EDGE_CURVE('',#410,#408,#462,.T.);
#325=EDGE_CURVE('',#410,#409,#63,.T.);
#326=EDGE_CURVE('',#411,#405,#463,.T.);
#327=EDGE_CURVE('',#412,#406,#464,.T.);
#328=EDGE_CURVE('',#411,#412,#64,.T.);
#329=EDGE_CURVE('',#413,#411,#65,.T.);
#330=EDGE_CURVE('',#412,#414,#66,.T.);
#331=EDGE_CURVE('',#414,#413,#67,.T.);
#332=EDGE_CURVE('',#409,#415,#68,.T.);
#333=EDGE_CURVE('',#416,#410,#69,.T.);
#334=EDGE_CURVE('',#415,#416,#70,.T.);
#335=EDGE_CURVE('',#417,#415,#465,.T.);
#336=EDGE_CURVE('',#418,#416,#466,.T.);
#337=EDGE_CURVE('',#418,#417,#71,.T.);
#338=EDGE_CURVE('',#419,#413,#467,.T.);
#339=EDGE_CURVE('',#420,#414,#468,.T.);
#340=EDGE_CURVE('',#419,#420,#72,.T.);
#341=EDGE_CURVE('',#421,#419,#73,.T.);
#342=EDGE_CURVE('',#420,#422,#74,.T.);
#343=EDGE_CURVE('',#422,#421,#75,.T.);
#344=EDGE_CURVE('',#417,#423,#76,.T.);
#345=EDGE_CURVE('',#424,#418,#77,.T.);
#346=EDGE_CURVE('',#423,#424,#78,.T.);
#347=EDGE_CURVE('',#425,#423,#469,.T.);
#348=EDGE_CURVE('',#426,#424,#470,.T.);
#349=EDGE_CURVE('',#426,#425,#79,.T.);
#350=EDGE_CURVE('',#427,#421,#471,.T.);
#351=EDGE_CURVE('',#428,#422,#472,.T.);
#352=EDGE_CURVE('',#427,#428,#80,.T.);
#353=EDGE_CURVE('',#429,#427,#81,.T.);
#354=EDGE_CURVE('',#428,#430,#82,.T.);
#355=EDGE_CURVE('',#430,#429,#83,.T.);
#356=EDGE_CURVE('',#425,#431,#84,.T.);
#357=EDGE_CURVE('',#432,#426,#85,.T.);
#358=EDGE_CURVE('',#431,#432,#86,.T.);
#359=EDGE_CURVE('',#433,#433,#473,.F.);
#360=EDGE_CURVE('',#434,#434,#474,.F.);
#361=EDGE_CURVE('',#435,#435,#475,.T.);
#362=EDGE_CURVE('',#436,#436,#476,.T.);
#363=EDGE_CURVE('',#437,#431,#477,.T.);
#364=EDGE_CURVE('',#437,#382,#87,.T.);
#365=EDGE_CURVE('',#438,#432,#478,.T.);
#366=EDGE_CURVE('',#438,#437,#88,.T.);
#367=EDGE_CURVE('',#439,#439,#479,.T.);
#368=EDGE_CURVE('',#383,#438,#89,.T.);
#369=EDGE_CURVE('',#440,#440,#480,.T.);
#370=EDGE_CURVE('',#386,#441,#90,.T.);
#371=EDGE_CURVE('',#441,#442,#91,.T.);
#372=EDGE_CURVE('',#442,#387,#92,.T.);
#373=EDGE_CURVE('',#443,#443,#481,.T.);
#374=EDGE_CURVE('',#444,#444,#482,.T.);
#375=EDGE_CURVE('',#445,#445,#483,.F.);
#376=EDGE_CURVE('',#446,#446,#484,.F.);
#377=EDGE_CURVE('',#447,#447,#485,.T.);
#378=EDGE_CURVE('',#448,#448,#486,.T.);
#379=EDGE_CURVE('',#442,#430,#487,.T.);
#380=EDGE_CURVE('',#441,#429,#488,.T.);
#381=VERTEX_POINT('',#897);
#382=VERTEX_POINT('',#898);
#383=VERTEX_POINT('',#904);
#384=VERTEX_POINT('',#906);
#385=VERTEX_POINT('',#914);
#386=VERTEX_POINT('',#915);
#387=VERTEX_POINT('',#921);
#388=VERTEX_POINT('',#923);
#389=VERTEX_POINT('',#934);
#390=VERTEX_POINT('',#939);
#391=VERTEX_POINT('',#949);
#392=VERTEX_POINT('',#954);
#393=VERTEX_POINT('',#962);
#394=VERTEX_POINT('',#964);
#395=VERTEX_POINT('',#972);
#396=VERTEX_POINT('',#974);
#397=VERTEX_POINT('',#985);
#398=VERTEX_POINT('',#990);
#399=VERTEX_POINT('',#1000);
#400=VERTEX_POINT('',#1005);
#401=VERTEX_POINT('',#1013);
#402=VERTEX_POINT('',#1015);
#403=VERTEX_POINT('',#1023);
#404=VERTEX_POINT('',#1025);
#405=VERTEX_POINT('',#1036);
#406=VERTEX_POINT('',#1041);
#407=VERTEX_POINT('',#1051);
#408=VERTEX_POINT('',#1056);
#409=VERTEX_POINT('',#1064);
#410=VERTEX_POINT('',#1066);
#411=VERTEX_POINT('',#1074);
#412=VERTEX_POINT('',#1076);
#413=VERTEX_POINT('',#1087);
#414=VERTEX_POINT('',#1092);
#415=VERTEX_POINT('',#1102);
#416=VERTEX_POINT('',#1107);
#417=VERTEX_POINT('',#1115);
#418=VERTEX_POINT('',#1117);
#419=VERTEX_POINT('',#1125);
#420=VERTEX_POINT('',#1127);
#421=VERTEX_POINT('',#1138);
#422=VERTEX_POINT('',#1143);
#423=VERTEX_POINT('',#1153);
#424=VERTEX_POINT('',#1158);
#425=VERTEX_POINT('',#1166);
#426=VERTEX_POINT('',#1168);
#427=VERTEX_POINT('',#1176);
#428=VERTEX_POINT('',#1178);
#429=VERTEX_POINT('',#1189);
#430=VERTEX_POINT('',#1194);
#431=VERTEX_POINT('',#1204);
#432=VERTEX_POINT('',#1209);
#433=VERTEX_POINT('',#1217);
#434=VERTEX_POINT('',#1219);
#435=VERTEX_POINT('',#1222);
#436=VERTEX_POINT('',#1224);
#437=VERTEX_POINT('',#1227);
#438=VERTEX_POINT('',#1234);
#439=VERTEX_POINT('',#1242);
#440=VERTEX_POINT('',#1249);
#441=VERTEX_POINT('',#1255);
#442=VERTEX_POINT('',#1261);
#443=VERTEX_POINT('',#1268);
#444=VERTEX_POINT('',#1270);
#445=VERTEX_POINT('',#1273);
#446=VERTEX_POINT('',#1275);
#447=VERTEX_POINT('',#1278);
#448=VERTEX_POINT('',#1280);
#449=CIRCLE('',#668,7.4);
#450=CIRCLE('',#669,7.4);
#451=CIRCLE('',#671,10.6);
#452=CIRCLE('',#672,10.6);
#453=CIRCLE('',#675,7.4);
#454=CIRCLE('',#676,7.4);
#455=CIRCLE('',#678,10.6);
#456=CIRCLE('',#679,10.6);
#457=CIRCLE('',#682,7.4);
#458=CIRCLE('',#683,7.4);
#459=CIRCLE('',#685,10.6);
#460=CIRCLE('',#686,10.6);
#461=CIRCLE('',#689,7.4);
#462=CIRCLE('',#690,7.4);
#463=CIRCLE('',#692,10.6);
#464=CIRCLE('',#693,10.6);
#465=CIRCLE('',#696,7.4);
#466=CIRCLE('',#697,7.4);
#467=CIRCLE('',#699,10.6);
#468=CIRCLE('',#700,10.6);
#469=CIRCLE('',#703,7.4);
#470=CIRCLE('',#704,7.4);
#471=CIRCLE('',#706,10.6);
#472=CIRCLE('',#707,10.6);
#473=CIRCLE('',#710,4.99999999999999);
#474=CIRCLE('',#711,4.99999999999999);
#475=CIRCLE('',#713,5.29999999999999);
#476=CIRCLE('',#714,7.4);
#477=CIRCLE('',#716,7.4);
#478=CIRCLE('',#718,7.4);
#479=CIRCLE('',#720,7.39999999999999);
#480=CIRCLE('',#722,5.29999999999999);
#481=CIRCLE('',#725,12.7);
#482=CIRCLE('',#726,10.6);
#483=CIRCLE('',#728,13.);
#484=CIRCLE('',#729,13.);
#485=CIRCLE('',#731,12.7);
#486=CIRCLE('',#732,10.6);
#487=CIRCLE('',#734,10.6);
#488=CIRCLE('',#736,10.6);
#489=EDGE_LOOP('',(#93,#94,#95,#96));
#490=EDGE_LOOP('',(#97,#98,#99,#100));
#491=EDGE_LOOP('',(#101,#102,#103,#104));
#492=EDGE_LOOP('',(#105,#106,#107,#108));
#493=EDGE_LOOP('',(#109,#110,#111,#112));
#494=EDGE_LOOP('',(#113,#114,#115,#116));
#495=EDGE_LOOP('',(#117,#118,#119,#120));
#496=EDGE_LOOP('',(#121,#122,#123,#124));
#497=EDGE_LOOP('',(#125,#126,#127,#128));
#498=EDGE_LOOP('',(#129,#130,#131,#132));
#499=EDGE_LOOP('',(#133,#134,#135,#136));
#500=EDGE_LOOP('',(#137,#138,#139,#140));
#501=EDGE_LOOP('',(#141,#142,#143,#144));
#502=EDGE_LOOP('',(#145,#146,#147,#148));
#503=EDGE_LOOP('',(#149,#150,#151,#152));
#504=EDGE_LOOP('',(#153,#154,#155,#156));
#505=EDGE_LOOP('',(#157,#158,#159,#160));
#506=EDGE_LOOP('',(#161,#162,#163,#164));
#507=EDGE_LOOP('',(#165,#166,#167,#168));
#508=EDGE_LOOP('',(#169,#170,#171,#172));
#509=EDGE_LOOP('',(#173,#174,#175,#176));
#510=EDGE_LOOP('',(#177,#178,#179,#180));
#511=EDGE_LOOP('',(#181,#182,#183,#184));
#512=EDGE_LOOP('',(#185,#186,#187,#188));
#513=EDGE_LOOP('',(#189));
#514=EDGE_LOOP('',(#190));
#515=EDGE_LOOP('',(#191));
#516=EDGE_LOOP('',(#192));
#517=EDGE_LOOP('',(#193,#194,#195,#196,#197,#198,#199,#200,#201,#202,#203,
#204,#205,#206));
#518=EDGE_LOOP('',(#207));
#519=EDGE_LOOP('',(#208,#209,#210,#211));
#520=EDGE_LOOP('',(#212));
#521=EDGE_LOOP('',(#213,#214,#215,#216,#217,#218,#219,#220,#221,#222,#223,
#224,#225,#226));
#522=EDGE_LOOP('',(#227));
#523=EDGE_LOOP('',(#228));
#524=EDGE_LOOP('',(#229,#230,#231,#232));
#525=EDGE_LOOP('',(#233,#234,#235,#236));
#526=EDGE_LOOP('',(#237));
#527=EDGE_LOOP('',(#238));
#528=EDGE_LOOP('',(#239));
#529=EDGE_LOOP('',(#240));
#530=EDGE_LOOP('',(#241));
#531=EDGE_LOOP('',(#242));
#532=EDGE_LOOP('',(#243,#244,#245,#246,#247,#248,#249,#250,#251,#252,#253,
#254,#255,#256));
#533=EDGE_LOOP('',(#257));
#534=EDGE_LOOP('',(#258,#259,#260,#261));
#535=EDGE_LOOP('',(#262,#263,#264,#265,#266,#267,#268,#269,#270,#271,#272,
#273,#274,#275));
#536=EDGE_LOOP('',(#276));
#537=EDGE_LOOP('',(#277));
#538=EDGE_LOOP('',(#278));
#539=EDGE_LOOP('',(#279));
#540=EDGE_LOOP('',(#280));
#541=EDGE_LOOP('',(#281));
#542=EDGE_LOOP('',(#282));
#543=EDGE_LOOP('',(#283));
#544=EDGE_LOOP('',(#284));
#545=FACE_BOUND('',#489,.T.);
#546=FACE_BOUND('',#490,.T.);
#547=FACE_BOUND('',#491,.T.);
#548=FACE_BOUND('',#492,.T.);
#549=FACE_BOUND('',#493,.T.);
#550=FACE_BOUND('',#494,.T.);
#551=FACE_BOUND('',#495,.T.);
#552=FACE_BOUND('',#496,.T.);
#553=FACE_BOUND('',#497,.T.);
#554=FACE_BOUND('',#498,.T.);
#555=FACE_BOUND('',#499,.T.);
#556=FACE_BOUND('',#500,.T.);
#557=FACE_BOUND('',#501,.T.);
#558=FACE_BOUND('',#502,.T.);
#559=FACE_BOUND('',#503,.T.);
#560=FACE_BOUND('',#504,.T.);
#561=FACE_BOUND('',#505,.T.);
#562=FACE_BOUND('',#506,.T.);
#563=FACE_BOUND('',#507,.T.);
#564=FACE_BOUND('',#508,.T.);
#565=FACE_BOUND('',#509,.T.);
#566=FACE_BOUND('',#510,.T.);
#567=FACE_BOUND('',#511,.T.);
#568=FACE_BOUND('',#512,.T.);
#569=FACE_BOUND('',#513,.T.);
#570=FACE_BOUND('',#514,.T.);
#571=FACE_BOUND('',#515,.T.);
#572=FACE_BOUND('',#516,.T.);
#573=FACE_BOUND('',#517,.T.);
#574=FACE_BOUND('',#518,.T.);
#575=FACE_BOUND('',#519,.T.);
#576=FACE_BOUND('',#520,.T.);
#577=FACE_BOUND('',#521,.T.);
#578=FACE_BOUND('',#522,.T.);
#579=FACE_BOUND('',#523,.T.);
#580=FACE_BOUND('',#524,.T.);
#581=FACE_BOUND('',#525,.T.);
#582=FACE_BOUND('',#526,.T.);
#583=FACE_BOUND('',#527,.T.);
#584=FACE_BOUND('',#528,.T.);
#585=FACE_BOUND('',#529,.T.);
#586=FACE_BOUND('',#530,.T.);
#587=FACE_BOUND('',#531,.T.);
#588=FACE_BOUND('',#532,.T.);
#589=FACE_BOUND('',#533,.T.);
#590=FACE_BOUND('',#534,.T.);
#591=FACE_BOUND('',#535,.T.);
#592=FACE_BOUND('',#536,.T.);
#593=FACE_BOUND('',#537,.T.);
#594=FACE_BOUND('',#538,.T.);
#595=FACE_BOUND('',#539,.T.);
#596=FACE_BOUND('',#540,.T.);
#597=FACE_BOUND('',#541,.T.);
#598=FACE_BOUND('',#542,.T.);
#599=FACE_BOUND('',#543,.T.);
#600=FACE_BOUND('',#544,.T.);
#601=TOROIDAL_SURFACE('',#667,8.99999999999999,2.4);
#602=TOROIDAL_SURFACE('',#670,8.99999999999999,2.4);
#603=TOROIDAL_SURFACE('',#674,8.99999999999999,2.4);
#604=TOROIDAL_SURFACE('',#677,8.99999999999999,2.4);
#605=TOROIDAL_SURFACE('',#681,8.99999999999999,2.4);
#606=TOROIDAL_SURFACE('',#684,8.99999999999999,2.4);
#607=TOROIDAL_SURFACE('',#688,8.99999999999999,2.4);
#608=TOROIDAL_SURFACE('',#691,8.99999999999999,2.4);
#609=TOROIDAL_SURFACE('',#695,8.99999999999999,2.4);
#610=TOROIDAL_SURFACE('',#698,8.99999999999999,2.4);
#611=TOROIDAL_SURFACE('',#702,8.99999999999999,2.4);
#612=TOROIDAL_SURFACE('',#705,8.99999999999999,2.4);
#613=TOROIDAL_SURFACE('',#717,8.99999999999999,2.4);
#614=TOROIDAL_SURFACE('',#735,8.99999999999999,2.4);
#615=TOROIDAL_SURFACE('',#738,12.7,0.3);
#616=TOROIDAL_SURFACE('',#739,5.29999999999999,0.3);
#617=TOROIDAL_SURFACE('',#740,5.29999999999999,0.3);
#618=TOROIDAL_SURFACE('',#741,12.7,0.3);
#619=ADVANCED_FACE('',(#545),#601,.F.);
#620=ADVANCED_FACE('',(#546),#602,.F.);
#621=ADVANCED_FACE('',(#547,#548),#30,.T.);
#622=ADVANCED_FACE('',(#549),#603,.F.);
#623=ADVANCED_FACE('',(#550),#604,.F.);
#624=ADVANCED_FACE('',(#551,#552),#31,.T.);
#625=ADVANCED_FACE('',(#553),#605,.F.);
#626=ADVANCED_FACE('',(#554),#606,.F.);
#627=ADVANCED_FACE('',(#555,#556),#32,.T.);
#628=ADVANCED_FACE('',(#557),#607,.F.);
#629=ADVANCED_FACE('',(#558),#608,.F.);
#630=ADVANCED_FACE('',(#559,#560),#33,.T.);
#631=ADVANCED_FACE('',(#561),#609,.F.);
#632=ADVANCED_FACE('',(#562),#610,.F.);
#633=ADVANCED_FACE('',(#563,#564),#34,.T.);
#634=ADVANCED_FACE('',(#565),#611,.F.);
#635=ADVANCED_FACE('',(#566),#612,.F.);
#636=ADVANCED_FACE('',(#567,#568),#35,.T.);
#637=ADVANCED_FACE('',(#569,#570),#24,.F.);
#638=ADVANCED_FACE('',(#571,#572),#20,.F.);
#639=ADVANCED_FACE('',(#573,#574),#25,.T.);
#640=ADVANCED_FACE('',(#575),#613,.F.);
#641=ADVANCED_FACE('',(#576,#577),#26,.T.);
#642=ADVANCED_FACE('',(#578,#579),#21,.F.);
#643=ADVANCED_FACE('',(#580,#581),#36,.T.);
#644=ADVANCED_FACE('',(#582,#583),#22,.T.);
#645=ADVANCED_FACE('',(#584,#585),#27,.T.);
#646=ADVANCED_FACE('',(#586,#587),#23,.T.);
#647=ADVANCED_FACE('',(#588,#589),#28,.F.);
#648=ADVANCED_FACE('',(#590),#614,.F.);
#649=ADVANCED_FACE('',(#591,#592),#29,.F.);
#650=ADVANCED_FACE('',(#593,#594),#615,.T.);
#651=ADVANCED_FACE('',(#595,#596),#616,.T.);
#652=ADVANCED_FACE('',(#597,#598),#617,.T.);
#653=ADVANCED_FACE('',(#599,#600),#618,.T.);
#654=CLOSED_SHELL('',(#619,#620,#621,#622,#623,#624,#625,#626,#627,#628,
#629,#630,#631,#632,#633,#634,#635,#636,#637,#638,#639,#640,#641,#642,#643,
#644,#645,#646,#647,#648,#649,#650,#651,#652,#653));
#655=STYLED_ITEM('',(#656),#663);
#656=PRESENTATION_STYLE_ASSIGNMENT((#657));
#657=SURFACE_STYLE_USAGE(.BOTH.,#658);
#658=SURFACE_SIDE_STYLE('',(#659));
#659=SURFACE_STYLE_FILL_AREA(#660);
#660=FILL_AREA_STYLE('',(#661));
#661=FILL_AREA_STYLE_COLOUR('',#662);
#662=COLOUR_RGB('',0.506983280181885,0.531564235687256,0.550000011920929);
#663=MANIFOLD_SOLID_BREP('',#654);
#664=SHAPE_DEFINITION_REPRESENTATION(#1296,#665);
#665=SHAPE_REPRESENTATION('\X2\56DB70B963A589E674038F74627F\X0\QJ\X2\578B\X0\ 
GBT294-1994',(#666),#1291);
#666=AXIS2_PLACEMENT_3D('',#894,#742,#743);
#667=AXIS2_PLACEMENT_3D('',#895,#744,#745);
#668=AXIS2_PLACEMENT_3D('',#896,#746,#747);
#669=AXIS2_PLACEMENT_3D('',#905,#748,#749);
#670=AXIS2_PLACEMENT_3D('',#912,#750,#751);
#671=AXIS2_PLACEMENT_3D('',#913,#752,#753);
#672=AXIS2_PLACEMENT_3D('',#922,#754,#755);
#673=AXIS2_PLACEMENT_3D('',#929,#756,#757);
#674=AXIS2_PLACEMENT_3D('',#960,#758,#759);
#675=AXIS2_PLACEMENT_3D('',#961,#760,#761);
#676=AXIS2_PLACEMENT_3D('',#963,#762,#763);
#677=AXIS2_PLACEMENT_3D('',#970,#764,#765);
#678=AXIS2_PLACEMENT_3D('',#971,#766,#767);
#679=AXIS2_PLACEMENT_3D('',#973,#768,#769);
#680=AXIS2_PLACEMENT_3D('',#980,#770,#771);
#681=AXIS2_PLACEMENT_3D('',#1011,#772,#773);
#682=AXIS2_PLACEMENT_3D('',#1012,#774,#775);
#683=AXIS2_PLACEMENT_3D('',#1014,#776,#777);
#684=AXIS2_PLACEMENT_3D('',#1021,#778,#779);
#685=AXIS2_PLACEMENT_3D('',#1022,#780,#781);
#686=AXIS2_PLACEMENT_3D('',#1024,#782,#783);
#687=AXIS2_PLACEMENT_3D('',#1031,#784,#785);
#688=AXIS2_PLACEMENT_3D('',#1062,#786,#787);
#689=AXIS2_PLACEMENT_3D('',#1063,#788,#789);
#690=AXIS2_PLACEMENT_3D('',#1065,#790,#791);
#691=AXIS2_PLACEMENT_3D('',#1072,#792,#793);
#692=AXIS2_PLACEMENT_3D('',#1073,#794,#795);
#693=AXIS2_PLACEMENT_3D('',#1075,#796,#797);
#694=AXIS2_PLACEMENT_3D('',#1082,#798,#799);
#695=AXIS2_PLACEMENT_3D('',#1113,#800,#801);
#696=AXIS2_PLACEMENT_3D('',#1114,#802,#803);
#697=AXIS2_PLACEMENT_3D('',#1116,#804,#805);
#698=AXIS2_PLACEMENT_3D('',#1123,#806,#807);
#699=AXIS2_PLACEMENT_3D('',#1124,#808,#809);
#700=AXIS2_PLACEMENT_3D('',#1126,#810,#811);
#701=AXIS2_PLACEMENT_3D('',#1133,#812,#813);
#702=AXIS2_PLACEMENT_3D('',#1164,#814,#815);
#703=AXIS2_PLACEMENT_3D('',#1165,#816,#817);
#704=AXIS2_PLACEMENT_3D('',#1167,#818,#819);
#705=AXIS2_PLACEMENT_3D('',#1174,#820,#821);
#706=AXIS2_PLACEMENT_3D('',#1175,#822,#823);
#707=AXIS2_PLACEMENT_3D('',#1177,#824,#825);
#708=AXIS2_PLACEMENT_3D('',#1184,#826,#827);
#709=AXIS2_PLACEMENT_3D('',#1215,#828,#829);
#710=AXIS2_PLACEMENT_3D('',#1216,#830,#831);
#711=AXIS2_PLACEMENT_3D('',#1218,#832,#833);
#712=AXIS2_PLACEMENT_3D('',#1220,#834,#835);
#713=AXIS2_PLACEMENT_3D('',#1221,#836,#837);
#714=AXIS2_PLACEMENT_3D('',#1223,#838,#839);
#715=AXIS2_PLACEMENT_3D('',#1225,#840,#841);
#716=AXIS2_PLACEMENT_3D('',#1226,#842,#843);
#717=AXIS2_PLACEMENT_3D('',#1232,#844,#845);
#718=AXIS2_PLACEMENT_3D('',#1233,#846,#847);
#719=AXIS2_PLACEMENT_3D('',#1240,#848,#849);
#720=AXIS2_PLACEMENT_3D('',#1241,#850,#851);
#721=AXIS2_PLACEMENT_3D('',#1247,#852,#853);
#722=AXIS2_PLACEMENT_3D('',#1248,#854,#855);
#723=AXIS2_PLACEMENT_3D('',#1250,#856,#857);
#724=AXIS2_PLACEMENT_3D('',#1266,#858,#859);
#725=AXIS2_PLACEMENT_3D('',#1267,#860,#861);
#726=AXIS2_PLACEMENT_3D('',#1269,#862,#863);
#727=AXIS2_PLACEMENT_3D('',#1271,#864,#865);
#728=AXIS2_PLACEMENT_3D('',#1272,#866,#867);
#729=AXIS2_PLACEMENT_3D('',#1274,#868,#869);
#730=AXIS2_PLACEMENT_3D('',#1276,#870,#871);
#731=AXIS2_PLACEMENT_3D('',#1277,#872,#873);
#732=AXIS2_PLACEMENT_3D('',#1279,#874,#875);
#733=AXIS2_PLACEMENT_3D('',#1281,#876,#877);
#734=AXIS2_PLACEMENT_3D('',#1282,#878,#879);
#735=AXIS2_PLACEMENT_3D('',#1283,#880,#881);
#736=AXIS2_PLACEMENT_3D('',#1284,#882,#883);
#737=AXIS2_PLACEMENT_3D('',#1285,#884,#885);
#738=AXIS2_PLACEMENT_3D('',#1286,#886,#887);
#739=AXIS2_PLACEMENT_3D('',#1287,#888,#889);
#740=AXIS2_PLACEMENT_3D('',#1288,#890,#891);
#741=AXIS2_PLACEMENT_3D('',#1289,#892,#893);
#742=DIRECTION('',(0.,0.,1.));
#743=DIRECTION('',(1.,0.,0.));
#744=DIRECTION('',(-1.,0.,0.));
#745=DIRECTION('',(0.,0.,1.));
#746=DIRECTION('',(-1.,0.,0.));
#747=DIRECTION('',(0.,0.,1.));
#748=DIRECTION('',(-1.,0.,0.));
#749=DIRECTION('',(0.,0.,1.));
#750=DIRECTION('',(-1.,0.,0.));
#751=DIRECTION('',(0.,0.,1.));
#752=DIRECTION('',(-1.,0.,0.));
#753=DIRECTION('',(0.,0.,1.));
#754=DIRECTION('',(-1.,0.,0.));
#755=DIRECTION('',(0.,0.,1.));
#756=DIRECTION('',(-1.,0.,0.));
#757=DIRECTION('',(0.,0.78183148246803,-0.623489801858733));
#758=DIRECTION('',(-1.,0.,0.));
#759=DIRECTION('',(0.,0.,1.));
#760=DIRECTION('',(-1.,0.,0.));
#761=DIRECTION('',(0.,0.,1.));
#762=DIRECTION('',(-1.,0.,0.));
#763=DIRECTION('',(0.,0.,1.));
#764=DIRECTION('',(-1.,0.,0.));
#765=DIRECTION('',(0.,0.,1.));
#766=DIRECTION('',(-1.,0.,0.));
#767=DIRECTION('',(0.,0.,1.));
#768=DIRECTION('',(-1.,0.,0.));
#769=DIRECTION('',(0.,0.,1.));
#770=DIRECTION('',(-1.,0.,0.));
#771=DIRECTION('',(0.,0.974927912181824,0.222520933956315));
#772=DIRECTION('',(-1.,0.,0.));
#773=DIRECTION('',(0.,0.,1.));
#774=DIRECTION('',(-1.,0.,0.));
#775=DIRECTION('',(0.,0.,1.));
#776=DIRECTION('',(-1.,0.,0.));
#777=DIRECTION('',(0.,0.,1.));
#778=DIRECTION('',(-1.,0.,0.));
#779=DIRECTION('',(0.,0.,1.));
#780=DIRECTION('',(-1.,0.,0.));
#781=DIRECTION('',(0.,0.,1.));
#782=DIRECTION('',(-1.,0.,0.));
#783=DIRECTION('',(0.,0.,1.));
#784=DIRECTION('',(-1.,0.,0.));
#785=DIRECTION('',(0.,0.433883739117558,0.900968867902419));
#786=DIRECTION('',(-1.,0.,0.));
#787=DIRECTION('',(0.,0.,1.));
#788=DIRECTION('',(-1.,0.,0.));
#789=DIRECTION('',(0.,0.,1.));
#790=DIRECTION('',(-1.,0.,0.));
#791=DIRECTION('',(0.,0.,1.));
#792=DIRECTION('',(-1.,0.,0.));
#793=DIRECTION('',(0.,0.,1.));
#794=DIRECTION('',(-1.,0.,0.));
#795=DIRECTION('',(0.,0.,1.));
#796=DIRECTION('',(-1.,0.,0.));
#797=DIRECTION('',(0.,0.,1.));
#798=DIRECTION('',(-1.,0.,0.));
#799=DIRECTION('',(0.,-0.433883739117558,0.900968867902419));
#800=DIRECTION('',(-1.,0.,0.));
#801=DIRECTION('',(0.,0.,1.));
#802=DIRECTION('',(-1.,0.,0.));
#803=DIRECTION('',(0.,0.,1.));
#804=DIRECTION('',(-1.,0.,0.));
#805=DIRECTION('',(0.,0.,1.));
#806=DIRECTION('',(-1.,0.,0.));
#807=DIRECTION('',(0.,0.,1.));
#808=DIRECTION('',(-1.,0.,0.));
#809=DIRECTION('',(0.,0.,1.));
#810=DIRECTION('',(-1.,0.,0.));
#811=DIRECTION('',(0.,0.,1.));
#812=DIRECTION('',(-1.,0.,0.));
#813=DIRECTION('',(0.,-0.974927912181824,0.222520933956315));
#814=DIRECTION('',(-1.,0.,0.));
#815=DIRECTION('',(0.,0.,1.));
#816=DIRECTION('',(-1.,0.,0.));
#817=DIRECTION('',(0.,0.,1.));
#818=DIRECTION('',(-1.,0.,0.));
#819=DIRECTION('',(0.,0.,1.));
#820=DIRECTION('',(-1.,0.,0.));
#821=DIRECTION('',(0.,0.,1.));
#822=DIRECTION('',(-1.,0.,0.));
#823=DIRECTION('',(0.,0.,1.));
#824=DIRECTION('',(-1.,0.,0.));
#825=DIRECTION('',(0.,0.,1.));
#826=DIRECTION('',(-1.,0.,0.));
#827=DIRECTION('',(0.,-0.78183148246803,-0.623489801858733));
#828=DIRECTION('',(-1.,0.,0.));
#829=DIRECTION('',(0.,0.,1.));
#830=DIRECTION('',(-1.,0.,0.));
#831=DIRECTION('',(0.,0.,1.));
#832=DIRECTION('',(1.,0.,0.));
#833=DIRECTION('',(0.,0.,-1.));
#834=DIRECTION('',(-1.,0.,0.));
#835=DIRECTION('',(0.,0.,1.));
#836=DIRECTION('',(-1.,0.,0.));
#837=DIRECTION('',(0.,0.,1.));
#838=DIRECTION('',(-1.,0.,0.));
#839=DIRECTION('',(0.,0.,1.));
#840=DIRECTION('',(-1.,0.,0.));
#841=DIRECTION('',(0.,0.,1.));
#842=DIRECTION('',(-1.,0.,0.));
#843=DIRECTION('',(0.,0.,1.));
#844=DIRECTION('',(-1.,0.,0.));
#845=DIRECTION('',(0.,0.,1.));
#846=DIRECTION('',(-1.,0.,0.));
#847=DIRECTION('',(0.,0.,1.));
#848=DIRECTION('',(-1.,0.,0.));
#849=DIRECTION('',(0.,0.,1.));
#850=DIRECTION('',(-1.,0.,0.));
#851=DIRECTION('',(0.,0.,1.));
#852=DIRECTION('',(1.,0.,0.));
#853=DIRECTION('',(0.,0.,-1.));
#854=DIRECTION('',(1.,0.,0.));
#855=DIRECTION('',(0.,0.,-1.));
#856=DIRECTION('',(-1.,0.,0.));
#857=DIRECTION('',(0.,0.,-1.));
#858=DIRECTION('',(-1.,0.,0.));
#859=DIRECTION('',(0.,0.,1.));
#860=DIRECTION('',(-1.,0.,0.));
#861=DIRECTION('',(0.,0.,1.));
#862=DIRECTION('',(-1.,0.,0.));
#863=DIRECTION('',(0.,0.,1.));
#864=DIRECTION('',(-1.,0.,0.));
#865=DIRECTION('',(0.,0.,1.));
#866=DIRECTION('',(-1.,0.,0.));
#867=DIRECTION('',(0.,0.,1.));
#868=DIRECTION('',(1.,0.,0.));
#869=DIRECTION('',(0.,0.,-1.));
#870=DIRECTION('',(1.,0.,0.));
#871=DIRECTION('',(0.,0.,-1.));
#872=DIRECTION('',(1.,0.,0.));
#873=DIRECTION('',(0.,0.,-1.));
#874=DIRECTION('',(-1.,0.,0.));
#875=DIRECTION('',(0.,0.,1.));
#876=DIRECTION('',(-1.,0.,0.));
#877=DIRECTION('',(0.,0.,1.));
#878=DIRECTION('',(-1.,0.,0.));
#879=DIRECTION('',(0.,0.,1.));
#880=DIRECTION('',(-1.,0.,0.));
#881=DIRECTION('',(0.,0.,1.));
#882=DIRECTION('',(-1.,0.,0.));
#883=DIRECTION('',(0.,0.,1.));
#884=DIRECTION('',(-1.,0.,0.));
#885=DIRECTION('',(0.,0.,1.));
#886=DIRECTION('',(1.,0.,0.));
#887=DIRECTION('',(0.,0.,-1.));
#888=DIRECTION('',(1.,0.,0.));
#889=DIRECTION('',(0.,0.,-1.));
#890=DIRECTION('',(-1.,0.,0.));
#891=DIRECTION('',(0.,0.,1.));
#892=DIRECTION('',(-1.,0.,0.));
#893=DIRECTION('',(0.,0.,1.));
#894=CARTESIAN_POINT('',(0.,0.,0.));
#895=CARTESIAN_POINT('',(0.,0.,0.));
#896=CARTESIAN_POINT('',(1.78885438199983,0.,0.));
#897=CARTESIAN_POINT('',(1.78885438199983,-5.6594821284473,4.76762645745086));
#898=CARTESIAN_POINT('',(1.78885438199983,-0.198851070193959,7.39732777777777));
#899=CARTESIAN_POINT('',(1.78885438199983,-0.19885107019395,7.39732777777777));
#900=CARTESIAN_POINT('',(1.3360263934962,-0.192047562079316,6.89105069557346));
#901=CARTESIAN_POINT('',(0.00014829464157649,-0.183538341609499,6.30360493937894));
#902=CARTESIAN_POINT('',(-1.33602625556843,-0.192047560007034,6.89105054136553));
#903=CARTESIAN_POINT('',(-1.78885438199983,-0.198851070193961,7.39732777777777));
#904=CARTESIAN_POINT('',(-1.78885438199983,-0.19885107019395,7.39732777777777));
#905=CARTESIAN_POINT('',(-1.78885438199983,0.,0.));
#906=CARTESIAN_POINT('',(-1.78885438199983,-5.65948212844731,4.76762645745086));
#907=CARTESIAN_POINT('',(-1.78885438199983,-5.6594821284473,4.76762645745087));
#908=CARTESIAN_POINT('',(-1.33602639349621,-5.26790068465426,4.44664866294645));
#909=CARTESIAN_POINT('',(-0.00014829464157649,-4.81392251040384,4.07372944835939));
#910=CARTESIAN_POINT('',(1.33602625556843,-5.26790056538169,4.44664856517918));
#911=CARTESIAN_POINT('',(1.78885438199983,-5.6594821284473,4.76762645745087));
#912=CARTESIAN_POINT('',(0.,0.,0.));
#913=CARTESIAN_POINT('',(-1.78885438199983,0.,0.));
#914=CARTESIAN_POINT('',(-1.78885438199983,-8.13693395270813,6.79340164050864));
#915=CARTESIAN_POINT('',(-1.78885438199983,-0.237999937688182,10.5973277777778));
#916=CARTESIAN_POINT('',(1.78885438199983,-0.237999937688024,10.5973277777778));
#917=CARTESIAN_POINT('',(1.33602257344667,-0.243684377338411,11.1036091309273));
#918=CARTESIAN_POINT('',(0.000148519002226774,-0.249953245540814,11.6910463471081));
#919=CARTESIAN_POINT('',(-1.3360224388883,-0.24368437902753,11.1036092813681));
#920=CARTESIAN_POINT('',(-1.78885438199983,-0.23799993768802,10.5973277777778));
#921=CARTESIAN_POINT('',(1.78885438199983,-0.237999937688018,10.5973277777778));
#922=CARTESIAN_POINT('',(1.78885438199983,0.,0.));
#923=CARTESIAN_POINT('',(1.78885438199983,-8.1369339527378,6.7934016404731));
#924=CARTESIAN_POINT('',(-1.78885438199983,-8.13693395270813,6.79340164050864));
#925=CARTESIAN_POINT('',(-1.33602257344671,-8.52921646343562,7.11350717494744));
#926=CARTESIAN_POINT('',(-0.000148519002416726,-8.98458479762572,7.4846694869885));
#927=CARTESIAN_POINT('',(1.33602243888805,-8.52921658000197,7.11350727006649));
#928=CARTESIAN_POINT('',(1.78885438199961,-8.13693395270831,6.79340164050881));
#929=CARTESIAN_POINT('',(0.,-7.03648334221226,5.6114082167286));
#930=CARTESIAN_POINT('',(-1.78885438199982,-8.43371502069122,6.42124995228866));
#931=CARTESIAN_POINT('',(-1.80678245370583,-8.33757398585854,6.54752226618359));
#932=CARTESIAN_POINT('',(-1.80678245370583,-8.23864696319751,6.67157282892358));
#933=CARTESIAN_POINT('',(-1.78885438199983,-8.13693395270813,6.79340164050864));
#934=CARTESIAN_POINT('',(-1.78885438199983,-8.43371502069122,6.42124995228866));
#935=CARTESIAN_POINT('',(1.78885438200506,-8.1369339527378,6.7934016404731));
#936=CARTESIAN_POINT('',(1.80678245370576,-8.23864696321671,6.6715728288995));
#937=CARTESIAN_POINT('',(1.80678245370409,-8.33757398586782,6.54752226617139));
#938=CARTESIAN_POINT('',(1.78885438199983,-8.43371502069112,6.42124995228879));
#939=CARTESIAN_POINT('',(1.78885438199983,-8.43371502069112,6.42124995228879));
#940=CARTESIAN_POINT('',(1.78885438199983,-8.43371502069113,6.42124995228878));
#941=CARTESIAN_POINT('',(1.33602257344667,-8.83308591172124,6.73246693896989));
#942=CARTESIAN_POINT('',(0.00014851900222634,-9.29627139669812,7.09382685397081));
#943=CARTESIAN_POINT('',(-1.3360224388883,-8.83308603039375,6.73246703144761));
#944=CARTESIAN_POINT('',(-1.78885438199983,-8.43371502069112,6.42124995228879));
#945=CARTESIAN_POINT('',(1.78885438199983,-5.65948212844731,4.76762645745086));
#946=CARTESIAN_POINT('',(1.80678343139349,-5.74492267777604,4.66620297843333));
#947=CARTESIAN_POINT('',(1.80678343139356,-5.82757708734581,4.56255762709994));
#948=CARTESIAN_POINT('',(1.78885438199983,-5.90744535715656,4.45669040345067));
#949=CARTESIAN_POINT('',(1.78885438199983,-5.90744535715656,4.45669040345067));
#950=CARTESIAN_POINT('',(-1.78885438199983,-5.90744535715656,4.45669040345068));
#951=CARTESIAN_POINT('',(-1.80678343139356,-5.82757708734581,4.56255762709994));
#952=CARTESIAN_POINT('',(-1.80678343139349,-5.74492267777604,4.66620297843333));
#953=CARTESIAN_POINT('',(-1.78885438199983,-5.65948212844731,4.76762645745086));
#954=CARTESIAN_POINT('',(-1.78885438199983,-5.90744535715656,4.45669040345068));
#955=CARTESIAN_POINT('',(1.78885438199983,-5.90744535715656,4.45669040345068));
#956=CARTESIAN_POINT('',(1.3360263934962,-5.50738007751084,4.14635100261674));
#957=CARTESIAN_POINT('',(0.000148294641575081,-5.04279107889103,3.78673734093882));
#958=CARTESIAN_POINT('',(-1.33602625556843,-5.50737995565416,4.14635090808985));
#959=CARTESIAN_POINT('',(-1.78885438199983,-5.90744535715656,4.45669040345068));
#960=CARTESIAN_POINT('',(0.,0.,0.));
#961=CARTESIAN_POINT('',(1.78885438199983,0.,0.));
#962=CARTESIAN_POINT('',(1.78885438199983,-7.25610985197126,-1.45219482719278));
#963=CARTESIAN_POINT('',(-1.78885438199983,0.,0.));
#964=CARTESIAN_POINT('',(-1.78885438199983,-7.25610985197127,-1.45219482719279));
#965=CARTESIAN_POINT('',(-1.78885438199983,-7.25610985197127,-1.45219482719278));
#966=CARTESIAN_POINT('',(-1.33602639349621,-6.76101227025247,-1.34617050798171));
#967=CARTESIAN_POINT('',(-0.000148294641576924,-6.18640152595947,-1.22374740621159));
#968=CARTESIAN_POINT('',(1.33602625556843,-6.76101211944972,-1.34617047568756));
#969=CARTESIAN_POINT('',(1.78885438199983,-7.25610985197126,-1.45219482719279));
#970=CARTESIAN_POINT('',(0.,0.,0.));
#971=CARTESIAN_POINT('',(-1.78885438199983,0.,0.));
#972=CARTESIAN_POINT('',(-1.78885438199983,-10.3845906135112,-2.12609449220272));
#973=CARTESIAN_POINT('',(1.78885438199983,0.,0.));
#974=CARTESIAN_POINT('',(1.78885438199983,-10.3845906135019,-2.12609449224807));
#975=CARTESIAN_POINT('',(-1.78885438199983,-10.3845906135112,-2.12609449220271));
#976=CARTESIAN_POINT('',(-1.33602257344671,-10.8794433429338,-2.23321077286993));
#977=CARTESIAN_POINT('',(-0.000148519002417702,-11.4535472360501,-2.35781615626689));
#978=CARTESIAN_POINT('',(1.33602243888805,-10.8794434899788,-2.23321080469941));
#979=CARTESIAN_POINT('',(1.78885438199961,-10.3845906135115,-2.12609449220275));
#980=CARTESIAN_POINT('',(0.,-8.77435120963641,-2.00268840560683));
#981=CARTESIAN_POINT('',(-1.78885438199982,-10.2786706766794,-2.59016005690205));
#982=CARTESIAN_POINT('',(-1.80678245370583,-10.3174513922882,-2.43626446914221));
#983=CARTESIAN_POINT('',(-1.80678245370583,-10.3527580378988,-2.28157594757577));
#984=CARTESIAN_POINT('',(-1.78885438199984,-10.3845906135112,-2.12609449220272));
#985=CARTESIAN_POINT('',(-1.78885438199983,-10.2786706766794,-2.59016005690205));
#986=CARTESIAN_POINT('',(1.78885438200506,-10.3845906135019,-2.12609449224807));
#987=CARTESIAN_POINT('',(1.80678245370576,-10.352758037892,-2.2815759476058));
#988=CARTESIAN_POINT('',(1.80678245370409,-10.3174513922845,-2.43626446915707));
#989=CARTESIAN_POINT('',(1.78885438199983,-10.2786706766794,-2.59016005690189));
#990=CARTESIAN_POINT('',(1.78885438199983,-10.2786706766794,-2.59016005690189));
#991=CARTESIAN_POINT('',(1.78885438199983,-10.2786706766794,-2.5901600569019));
#992=CARTESIAN_POINT('',(1.33602257344667,-10.7709935924621,-2.70836017532967));
#993=CARTESIAN_POINT('',(0.000148519002227208,-11.3423075767638,-2.84518894790323));
#994=CARTESIAN_POINT('',(-1.3360224388883,-10.7709937387552,-2.70836021045267));
#995=CARTESIAN_POINT('',(-1.78885438199983,-10.2786706766794,-2.59016005690189));
#996=CARTESIAN_POINT('',(1.78885438199983,-7.25610985197127,-1.45219482719278));
#997=CARTESIAN_POINT('',(1.80678343139349,-7.2300850941856,-1.58223144337382));
#998=CARTESIAN_POINT('',(1.80678343139357,-7.2005860769471,-1.7114750825067));
#999=CARTESIAN_POINT('',(1.78885438199983,-7.16761280025572,-1.83992574459142));
#1000=CARTESIAN_POINT('',(1.78885438199983,-7.16761280025572,-1.83992574459142));
#1001=CARTESIAN_POINT('',(-1.78885438199983,-7.16761280025572,-1.83992574459141));
#1002=CARTESIAN_POINT('',(-1.80678343139356,-7.2005860769471,-1.7114750825067));
#1003=CARTESIAN_POINT('',(-1.80678343139349,-7.2300850941856,-1.58223144337382));
#1004=CARTESIAN_POINT('',(-1.78885438199983,-7.25610985197126,-1.45219482719279));
#1005=CARTESIAN_POINT('',(-1.78885438199983,-7.16761280025572,-1.83992574459141));
#1006=CARTESIAN_POINT('',(1.78885438199983,-7.16761280025572,-1.83992574459141));
#1007=CARTESIAN_POINT('',(1.3360263934962,-6.67554306449662,-1.72063556545691));
#1008=CARTESIAN_POINT('',(0.00014829464157584,-6.104719279576,-1.58162071059289));
#1009=CARTESIAN_POINT('',(-1.33602625556843,-6.67554291461613,-1.72063552912209));
#1010=CARTESIAN_POINT('',(-1.78885438199983,-7.16761280025572,-1.83992574459141));
#1011=CARTESIAN_POINT('',(0.,0.,0.));
#1012=CARTESIAN_POINT('',(1.78885438199983,0.,0.));
#1013=CARTESIAN_POINT('',(1.78885438199983,-3.38873885929423,-6.57848378758427));
#1014=CARTESIAN_POINT('',(-1.78885438199983,0.,0.));
#1015=CARTESIAN_POINT('',(-1.78885438199983,-3.38873885929423,-6.57848378758428));
#1016=CARTESIAN_POINT('',(-1.78885438199983,-3.38873885929424,-6.57848378758428));
#1017=CARTESIAN_POINT('',(-1.33602639349621,-3.1629437168341,-6.12529582952562));
#1018=CARTESIAN_POINT('',(-0.000148294641577357,-2.90039401287423,-5.59971750400737));
#1019=CARTESIAN_POINT('',(1.33602625556843,-3.16294364805871,-6.1252956914882));
#1020=CARTESIAN_POINT('',(1.78885438199983,-3.38873885929423,-6.57848378758427));
#1021=CARTESIAN_POINT('',(0.,0.,0.));
#1022=CARTESIAN_POINT('',(-1.78885438199983,0.,0.));
#1023=CARTESIAN_POINT('',(-1.78885438199983,-4.81243873529621,-9.44459810786147));
#1024=CARTESIAN_POINT('',(1.78885438199983,0.,0.));
#1025=CARTESIAN_POINT('',(1.78885438199983,-4.81243873525496,-9.44459810788249));
#1026=CARTESIAN_POINT('',(-1.78885438199983,-4.8124387352962,-9.44459810786147));
#1027=CARTESIAN_POINT('',(-1.33602257344671,-5.03722748500266,-9.89827545951837));
#1028=CARTESIAN_POINT('',(-0.000148519002418136,-5.2977549959433,-10.4248181431688));
#1029=CARTESIAN_POINT('',(1.33602243888805,-5.03722755179843,-9.89827559432814));
#1030=CARTESIAN_POINT('',(1.78885438199961,-4.81243873529632,-9.44459810786169));
#1031=CARTESIAN_POINT('',(0.,-3.90495365205802,-8.10871981112177));
#1032=CARTESIAN_POINT('',(-1.78885438199982,-4.38357766645681,-9.65112671360919));
#1033=CARTESIAN_POINT('',(-1.80678245370583,-4.52807746267126,-9.58549436846548));
#1034=CARTESIAN_POINT('',(-1.80678245370583,-4.67103115228439,-9.51665149988291));
#1035=CARTESIAN_POINT('',(-1.78885438199983,-4.81243873529621,-9.44459810786147));
#1036=CARTESIAN_POINT('',(-1.78885438199983,-4.38357766645681,-9.65112671360919));
#1037=CARTESIAN_POINT('',(1.78885438200506,-4.81243873525496,-9.44459810788249));
#1038=CARTESIAN_POINT('',(1.80678245370576,-4.67103115225664,-9.51665149989628));
#1039=CARTESIAN_POINT('',(1.80678245370409,-4.52807746265731,-9.58549436847182));
#1040=CARTESIAN_POINT('',(1.78885438199983,-4.38357766645697,-9.65112671360912));
#1041=CARTESIAN_POINT('',(1.78885438199983,-4.38357766645696,-9.65112671360912));
#1042=CARTESIAN_POINT('',(1.78885438199983,-4.38357766645696,-9.65112671360912));
#1043=CARTESIAN_POINT('',(1.33602257344667,-4.5981234098505,-10.1097368371266));
#1044=CARTESIAN_POINT('',(0.000148519002225148,-4.84735481061652,-10.6417194407285));
#1045=CARTESIAN_POINT('',(-1.3360224388883,-4.59812347360249,-10.109736973402));
#1046=CARTESIAN_POINT('',(-1.78885438199983,-4.38357766645696,-9.65112671360912));
#1047=CARTESIAN_POINT('',(1.78885438199983,-3.38873885929423,-6.57848378758428));
#1048=CARTESIAN_POINT('',(1.80678343139349,-3.27084596781508,-6.63921331668093));
#1049=CARTESIAN_POINT('',(1.80678343139357,-3.15140688541919,-6.69673214725647));
#1050=CARTESIAN_POINT('',(1.78885438199983,-3.03042161210656,-6.75104027931084));
#1051=CARTESIAN_POINT('',(1.78885438199983,-3.03042161210656,-6.75104027931084));
#1052=CARTESIAN_POINT('',(-1.78885438199983,-3.03042161210657,-6.75104027931084));
#1053=CARTESIAN_POINT('',(-1.80678343139357,-3.1514068854192,-6.69673214725646));
#1054=CARTESIAN_POINT('',(-1.80678343139349,-3.27084596781508,-6.63921331668093));
#1055=CARTESIAN_POINT('',(-1.78885438199983,-3.38873885929423,-6.57848378758428));
#1056=CARTESIAN_POINT('',(-1.78885438199983,-3.03042161210657,-6.75104027931084));
#1057=CARTESIAN_POINT('',(1.78885438199983,-3.03042161210656,-6.75104027931084));
#1058=CARTESIAN_POINT('',(1.3360263934962,-2.81688596765403,-6.29194845817239));
#1059=CARTESIAN_POINT('',(0.000148294641574972,-2.56966934916105,-5.7589861078653));
#1060=CARTESIAN_POINT('',(-1.33602625556843,-2.81688590261279,-6.29194831833671));
#1061=CARTESIAN_POINT('',(-1.78885438199983,-3.03042161210656,-6.75104027931084));
#1062=CARTESIAN_POINT('',(0.,0.,0.));
#1063=CARTESIAN_POINT('',(1.78885438199983,0.,0.));
#1064=CARTESIAN_POINT('',(1.78885438199983,3.03042161210656,-6.75104027931084));
#1065=CARTESIAN_POINT('',(-1.78885438199983,0.,0.));
#1066=CARTESIAN_POINT('',(-1.78885438199983,3.03042161210657,-6.75104027931084));
#1067=CARTESIAN_POINT('',(-1.78885438199983,3.03042161210656,-6.75104027931084));
#1068=CARTESIAN_POINT('',(-1.33602639349621,2.81688596765404,-6.2919484581724));
#1069=CARTESIAN_POINT('',(-0.000148294641577574,2.56966934916105,-5.75898610786531));
#1070=CARTESIAN_POINT('',(1.33602625556843,2.8168859026128,-6.2919483183367));
#1071=CARTESIAN_POINT('',(1.78885438199983,3.03042161210657,-6.75104027931083));
#1072=CARTESIAN_POINT('',(0.,0.,0.));
#1073=CARTESIAN_POINT('',(-1.78885438199983,0.,0.));
#1074=CARTESIAN_POINT('',(-1.78885438199983,4.38357766645696,-9.65112671360912));
#1075=CARTESIAN_POINT('',(1.78885438199983,0.,0.));
#1076=CARTESIAN_POINT('',(1.78885438199983,4.38357766649911,-9.65112671358998));
#1077=CARTESIAN_POINT('',(-1.78885438199983,4.38357766645695,-9.65112671360913));
#1078=CARTESIAN_POINT('',(-1.33602257344671,4.59812340985048,-10.1097368371266));
#1079=CARTESIAN_POINT('',(-0.000148519002418136,4.84735481061647,-10.6417194407284));
#1080=CARTESIAN_POINT('',(1.33602243888805,4.59812347360254,-10.1097369734022));
#1081=CARTESIAN_POINT('',(1.78885438199961,4.38357766645706,-9.65112671360935));
#1082=CARTESIAN_POINT('',(0.,3.90495365205802,-8.10871981112177));
#1083=CARTESIAN_POINT('',(-1.78885438199982,4.81243873529635,-9.4445981078614));
#1084=CARTESIAN_POINT('',(-1.80678245370583,4.67103115228442,-9.5166514998829));
#1085=CARTESIAN_POINT('',(-1.80678245370583,4.52807746267129,-9.58549436846547));
#1086=CARTESIAN_POINT('',(-1.78885438199983,4.38357766645696,-9.65112671360912));
#1087=CARTESIAN_POINT('',(-1.78885438199983,4.81243873529635,-9.4445981078614));
#1088=CARTESIAN_POINT('',(1.78885438200506,4.38357766649911,-9.65112671358998));
#1089=CARTESIAN_POINT('',(1.80678245370577,4.52807746269904,-9.5854943684521));
#1090=CARTESIAN_POINT('',(1.80678245370409,4.67103115229808,-9.51665149987594));
#1091=CARTESIAN_POINT('',(1.78885438199983,4.8124387352962,-9.44459810786147));
#1092=CARTESIAN_POINT('',(1.78885438199983,4.8124387352962,-9.44459810786147));
#1093=CARTESIAN_POINT('',(1.78885438199983,4.81243873529621,-9.44459810786147));
#1094=CARTESIAN_POINT('',(1.33602257344667,5.03722748500268,-9.8982754595184));
#1095=CARTESIAN_POINT('',(0.000148519002227208,5.29775499594335,-10.4248181431688));
#1096=CARTESIAN_POINT('',(-1.3360224388883,5.03722755179837,-9.89827559432802));
#1097=CARTESIAN_POINT('',(-1.78885438199983,4.81243873529621,-9.44459810786147));
#1098=CARTESIAN_POINT('',(1.78885438199983,3.03042161210656,-6.75104027931084));
#1099=CARTESIAN_POINT('',(1.80678343139349,3.15140688541868,-6.6967321472567));
#1100=CARTESIAN_POINT('',(1.80678343139356,3.27084596781457,-6.63921331668119));
#1101=CARTESIAN_POINT('',(1.78885438199983,3.38873885929423,-6.57848378758428));
#1102=CARTESIAN_POINT('',(1.78885438199983,3.38873885929423,-6.57848378758427));
#1103=CARTESIAN_POINT('',(-1.78885438199983,3.38873885929422,-6.57848378758428));
#1104=CARTESIAN_POINT('',(-1.80678343139356,3.27084596781457,-6.63921331668119));
#1105=CARTESIAN_POINT('',(-1.80678343139349,3.15140688541868,-6.6967321472567));
#1106=CARTESIAN_POINT('',(-1.78885438199983,3.03042161210657,-6.75104027931084));
#1107=CARTESIAN_POINT('',(-1.78885438199983,3.38873885929422,-6.57848378758428));
#1108=CARTESIAN_POINT('',(1.78885438199983,3.38873885929423,-6.57848378758427));
#1109=CARTESIAN_POINT('',(1.3360263934962,3.16294371683409,-6.12529582952561));
#1110=CARTESIAN_POINT('',(0.000148294641574972,2.90039401287422,-5.59971750400738));
#1111=CARTESIAN_POINT('',(-1.33602625556843,3.16294364805871,-6.1252956914882));
#1112=CARTESIAN_POINT('',(-1.78885438199983,3.38873885929423,-6.57848378758428));
#1113=CARTESIAN_POINT('',(0.,0.,0.));
#1114=CARTESIAN_POINT('',(1.78885438199983,0.,0.));
#1115=CARTESIAN_POINT('',(1.78885438199983,7.16761280025572,-1.83992574459141));
#1116=CARTESIAN_POINT('',(-1.78885438199983,0.,0.));
#1117=CARTESIAN_POINT('',(-1.78885438199983,7.16761280025572,-1.83992574459141));
#1118=CARTESIAN_POINT('',(-1.78885438199983,7.16761280025572,-1.83992574459141));
#1119=CARTESIAN_POINT('',(-1.33602639349621,6.67554306449663,-1.72063556545692));
#1120=CARTESIAN_POINT('',(-0.000148294641576599,6.104719279576,-1.58162071059292));
#1121=CARTESIAN_POINT('',(1.33602625556843,6.67554291461613,-1.72063552912208));
#1122=CARTESIAN_POINT('',(1.78885438199983,7.16761280025572,-1.83992574459141));
#1123=CARTESIAN_POINT('',(0.,0.,0.));
#1124=CARTESIAN_POINT('',(-1.78885438199983,0.,0.));
#1125=CARTESIAN_POINT('',(-1.78885438199983,10.2786706766794,-2.59016005690189));
#1126=CARTESIAN_POINT('',(1.78885438199983,0.,0.));
#1127=CARTESIAN_POINT('',(1.78885438199983,10.2786706766908,-2.590160056857));
#1128=CARTESIAN_POINT('',(-1.78885438199983,10.2786706766794,-2.5901600569019));
#1129=CARTESIAN_POINT('',(-1.33602257344671,10.770993592462,-2.70836017532967));
#1130=CARTESIAN_POINT('',(-0.000148519002416943,11.3423075767638,-2.84518894790322));
#1131=CARTESIAN_POINT('',(1.33602243888805,10.7709937387553,-2.70836021045272));
#1132=CARTESIAN_POINT('',(1.78885438199961,10.2786706766797,-2.59016005690197));
#1133=CARTESIAN_POINT('',(0.,8.77435120963641,-2.00268840560683));
#1134=CARTESIAN_POINT('',(-1.78885438199982,10.3845906135112,-2.12609449220256));
#1135=CARTESIAN_POINT('',(-1.80678245370583,10.3527580378988,-2.28157594757573));
#1136=CARTESIAN_POINT('',(-1.80678245370583,10.3174513922882,-2.43626446914217));
#1137=CARTESIAN_POINT('',(-1.78885438199983,10.2786706766794,-2.59016005690189));
#1138=CARTESIAN_POINT('',(-1.78885438199983,10.3845906135112,-2.12609449220256));
#1139=CARTESIAN_POINT('',(1.78885438200506,10.2786706766908,-2.590160056857));
#1140=CARTESIAN_POINT('',(1.80678245370577,10.3174513922951,-2.43626446911214));
#1141=CARTESIAN_POINT('',(1.80678245370409,10.3527580379019,-2.28157594756071));
#1142=CARTESIAN_POINT('',(1.78885438199983,10.3845906135112,-2.12609449220272));
#1143=CARTESIAN_POINT('',(1.78885438199983,10.3845906135112,-2.12609449220272));
#1144=CARTESIAN_POINT('',(1.78885438199983,10.3845906135112,-2.12609449220272));
#1145=CARTESIAN_POINT('',(1.33602257344667,10.8794433429339,-2.23321077286994));
#1146=CARTESIAN_POINT('',(0.000148519002227641,11.4535472360501,-2.35781615626683));
#1147=CARTESIAN_POINT('',(-1.3360224388883,10.8794434899787,-2.23321080469939));
#1148=CARTESIAN_POINT('',(-1.78885438199983,10.3845906135112,-2.12609449220271));
#1149=CARTESIAN_POINT('',(1.78885438199983,7.16761280025572,-1.83992574459141));
#1150=CARTESIAN_POINT('',(1.80678343139349,7.20058607694696,-1.71147508250725));
#1151=CARTESIAN_POINT('',(1.80678343139356,7.23008509418549,-1.58223144337438));
#1152=CARTESIAN_POINT('',(1.78885438199983,7.25610985197126,-1.45219482719278));
#1153=CARTESIAN_POINT('',(1.78885438199983,7.25610985197126,-1.45219482719278));
#1154=CARTESIAN_POINT('',(-1.78885438199983,7.25610985197126,-1.45219482719279));
#1155=CARTESIAN_POINT('',(-1.80678343139356,7.23008509418549,-1.58223144337438));
#1156=CARTESIAN_POINT('',(-1.80678343139349,7.20058607694695,-1.71147508250725));
#1157=CARTESIAN_POINT('',(-1.78885438199983,7.16761280025572,-1.83992574459141));
#1158=CARTESIAN_POINT('',(-1.78885438199983,7.25610985197126,-1.45219482719279));
#1159=CARTESIAN_POINT('',(1.78885438199983,7.25610985197126,-1.45219482719278));
#1160=CARTESIAN_POINT('',(1.3360263934962,6.76101227025246,-1.34617050798171));
#1161=CARTESIAN_POINT('',(0.000148294641576382,6.18640152595947,-1.22374740621161));
#1162=CARTESIAN_POINT('',(-1.33602625556843,6.76101211944971,-1.34617047568756));
#1163=CARTESIAN_POINT('',(-1.78885438199983,7.25610985197126,-1.45219482719279));
#1164=CARTESIAN_POINT('',(0.,0.,0.));
#1165=CARTESIAN_POINT('',(1.78885438199983,0.,0.));
#1166=CARTESIAN_POINT('',(1.78885438199983,5.90744535715656,4.45669040345067));
#1167=CARTESIAN_POINT('',(-1.78885438199983,0.,0.));
#1168=CARTESIAN_POINT('',(-1.78885438199983,5.90744535715656,4.45669040345068));
#1169=CARTESIAN_POINT('',(-1.78885438199983,5.90744535715656,4.45669040345067));
#1170=CARTESIAN_POINT('',(-1.33602639349621,5.50738007751085,4.14635100261674));
#1171=CARTESIAN_POINT('',(-0.0001482946415779,5.04279107889101,3.78673734093883));
#1172=CARTESIAN_POINT('',(1.33602625556843,5.50737995565417,4.14635090808985));
#1173=CARTESIAN_POINT('',(1.78885438199983,5.90744535715656,4.45669040345067));
#1174=CARTESIAN_POINT('',(0.,0.,0.));
#1175=CARTESIAN_POINT('',(-1.78885438199983,0.,0.));
#1176=CARTESIAN_POINT('',(-1.78885438199983,8.43371502069112,6.42124995228879));
#1177=CARTESIAN_POINT('',(1.78885438199983,0.,0.));
#1178=CARTESIAN_POINT('',(1.78885438199983,8.43371502066308,6.42124995232562));
#1179=CARTESIAN_POINT('',(-1.78885438199983,8.43371502069113,6.42124995228878));
#1180=CARTESIAN_POINT('',(-1.33602257344671,8.8330859117212,6.73246693896986));
#1181=CARTESIAN_POINT('',(-0.000148519002417377,9.29627139669808,7.0938268539708));
#1182=CARTESIAN_POINT('',(1.33602243888805,8.83308603039386,6.73246703144769));
#1183=CARTESIAN_POINT('',(1.78885438199961,8.43371502069132,6.42124995228894));
#1184=CARTESIAN_POINT('',(0.,7.03648334221226,5.6114082167286));
#1185=CARTESIAN_POINT('',(-1.78885438199981,8.13693395270803,6.79340164050876));
#1186=CARTESIAN_POINT('',(-1.80678245370583,8.23864696319748,6.67157282892361));
#1187=CARTESIAN_POINT('',(-1.80678245370583,8.33757398585851,6.54752226618362));
#1188=CARTESIAN_POINT('',(-1.78885438199983,8.43371502069112,6.42124995228879));
#1189=CARTESIAN_POINT('',(-1.78885438199983,8.13693395270803,6.79340164050876));
#1190=CARTESIAN_POINT('',(1.78885438200506,8.43371502066308,6.42124995232562));
#1191=CARTESIAN_POINT('',(1.80678245370576,8.33757398583931,6.5475222662077));
#1192=CARTESIAN_POINT('',(1.80678245370409,8.23864696318766,6.67157282893537));
#1193=CARTESIAN_POINT('',(1.78885438199983,8.13693395270814,6.79340164050864));
#1194=CARTESIAN_POINT('',(1.78885438199983,8.13693395270814,6.79340164050864));
#1195=CARTESIAN_POINT('',(1.78885438199983,8.13693395270813,6.79340164050864));
#1196=CARTESIAN_POINT('',(1.33602257344667,8.52921646343565,7.11350717494746));
#1197=CARTESIAN_POINT('',(0.000148519002227208,8.98458479762576,7.48466948698852));
#1198=CARTESIAN_POINT('',(-1.3360224388883,8.52921658000187,7.1135072700664));
#1199=CARTESIAN_POINT('',(-1.78885438199983,8.13693395270813,6.79340164050864));
#1200=CARTESIAN_POINT('',(1.78885438199983,5.90744535715656,4.45669040345067));
#1201=CARTESIAN_POINT('',(1.80678343139349,5.82757708734615,4.56255762709949));
#1202=CARTESIAN_POINT('',(1.80678343139357,5.74492267777641,4.66620297843289));
#1203=CARTESIAN_POINT('',(1.78885438199983,5.6594821284473,4.76762645745086));
#1204=CARTESIAN_POINT('',(1.78885438199983,5.6594821284473,4.76762645745086));
#1205=CARTESIAN_POINT('',(-1.78885438199983,5.65948212844731,4.76762645745086));
#1206=CARTESIAN_POINT('',(-1.80678343139356,5.74492267777641,4.66620297843289));
#1207=CARTESIAN_POINT('',(-1.80678343139349,5.82757708734615,4.56255762709949));
#1208=CARTESIAN_POINT('',(-1.78885438199983,5.90744535715656,4.45669040345068));
#1209=CARTESIAN_POINT('',(-1.78885438199983,5.65948212844731,4.76762645745086));
#1210=CARTESIAN_POINT('',(1.78885438199983,5.6594821284473,4.76762645745087));
#1211=CARTESIAN_POINT('',(1.3360263934962,5.26790068465426,4.44664866294644));
#1212=CARTESIAN_POINT('',(0.000148294641575406,4.81392251040386,4.07372944835937));
#1213=CARTESIAN_POINT('',(-1.33602625556843,5.26790056538169,4.44664856517918));
#1214=CARTESIAN_POINT('',(-1.78885438199983,5.6594821284473,4.76762645745087));
#1215=CARTESIAN_POINT('',(0.,0.,0.));
#1216=CARTESIAN_POINT('',(3.7,0.,0.));
#1217=CARTESIAN_POINT('',(3.7,0.,4.99999999999999));
#1218=CARTESIAN_POINT('',(-3.7,0.,0.));
#1219=CARTESIAN_POINT('',(-3.7,0.,-4.99999999999999));
#1220=CARTESIAN_POINT('',(4.,0.,4.99999999999999));
#1221=CARTESIAN_POINT('',(4.,0.,0.));
#1222=CARTESIAN_POINT('',(4.,0.,5.29999999999999));
#1223=CARTESIAN_POINT('',(4.,0.,0.));
#1224=CARTESIAN_POINT('',(4.,0.,7.4));
#1225=CARTESIAN_POINT('',(0.,0.,0.));
#1226=CARTESIAN_POINT('',(1.78885438199983,0.,0.));
#1227=CARTESIAN_POINT('',(1.78885438199983,0.198851070193956,7.39732777777777));
#1228=CARTESIAN_POINT('',(1.78885438199983,0.198851070193956,7.39732777777777));
#1229=CARTESIAN_POINT('',(1.80678343139349,0.0662836900649352,7.40089138428588));
#1230=CARTESIAN_POINT('',(1.80678343139357,-0.0662836900643696,7.40089138428589));
#1231=CARTESIAN_POINT('',(1.78885438199983,-0.198851070193959,7.39732777777777));
#1232=CARTESIAN_POINT('',(0.,0.,0.));
#1233=CARTESIAN_POINT('',(-1.78885438199983,0.,0.));
#1234=CARTESIAN_POINT('',(-1.78885438199983,0.19885107019395,7.39732777777778));
#1235=CARTESIAN_POINT('',(-1.78885438199983,0.198851070193952,7.39732777777777));
#1236=CARTESIAN_POINT('',(-1.33602639349621,0.192047562079319,6.89105069557347));
#1237=CARTESIAN_POINT('',(-0.00014829464157584,0.183538341609499,6.30360493937894));
#1238=CARTESIAN_POINT('',(1.33602625556843,0.192047560007036,6.89105054136553));
#1239=CARTESIAN_POINT('',(1.78885438199983,0.198851070193963,7.39732777777777));
#1240=CARTESIAN_POINT('',(0.,0.,0.));
#1241=CARTESIAN_POINT('',(-4.,0.,0.));
#1242=CARTESIAN_POINT('',(-4.,0.,7.39999999999999));
#1243=CARTESIAN_POINT('',(-1.78885438199983,-0.19885107019395,7.39732777777777));
#1244=CARTESIAN_POINT('',(-1.80678343139356,-0.0662836900643656,7.40089138428589));
#1245=CARTESIAN_POINT('',(-1.80678343139349,0.0662836900649343,7.40089138428588));
#1246=CARTESIAN_POINT('',(-1.78885438199983,0.19885107019395,7.39732777777777));
#1247=CARTESIAN_POINT('',(-4.,0.,4.99999999999999));
#1248=CARTESIAN_POINT('',(-4.,0.,0.));
#1249=CARTESIAN_POINT('',(-4.,0.,-5.29999999999999));
#1250=CARTESIAN_POINT('',(0.,0.,8.99999999999999));
#1251=CARTESIAN_POINT('',(-1.78885438199982,-0.237999937688182,10.5973277777778));
#1252=CARTESIAN_POINT('',(-1.80678245370583,-0.0793333125627226,10.6008911899591));
#1253=CARTESIAN_POINT('',(-1.80678245370583,0.079333312562679,10.6008911899591));
#1254=CARTESIAN_POINT('',(-1.78885438199983,0.237999937688022,10.5973277777778));
#1255=CARTESIAN_POINT('',(-1.78885438199983,0.237999937688022,10.5973277777778));
#1256=CARTESIAN_POINT('',(-1.78885438199983,0.23799993768802,10.5973277777778));
#1257=CARTESIAN_POINT('',(-1.33602257344671,0.243684377338407,11.1036091309273));
#1258=CARTESIAN_POINT('',(-0.000148519002417377,0.249953245540818,11.691046347108));
#1259=CARTESIAN_POINT('',(1.33602243888805,0.243684379027536,11.1036092813683));
#1260=CARTESIAN_POINT('',(1.78885438199961,0.237999937688027,10.597327777778));
#1261=CARTESIAN_POINT('',(1.78885438199983,0.237999937641738,10.5973277777788));
#1262=CARTESIAN_POINT('',(1.78885438200506,0.237999937641738,10.5973277777788));
#1263=CARTESIAN_POINT('',(1.80678245370576,0.0793333125318776,10.6008911899591));
#1264=CARTESIAN_POINT('',(1.80678245370409,-0.079333312578041,10.6008911899588));
#1265=CARTESIAN_POINT('',(1.78885438199983,-0.237999937688018,10.5973277777778));
#1266=CARTESIAN_POINT('',(-4.,0.,13.));
#1267=CARTESIAN_POINT('',(-4.,0.,0.));
#1268=CARTESIAN_POINT('',(-4.,0.,12.7));
#1269=CARTESIAN_POINT('',(-4.,0.,0.));
#1270=CARTESIAN_POINT('',(-4.,0.,10.6));
#1271=CARTESIAN_POINT('',(0.,0.,0.));
#1272=CARTESIAN_POINT('',(-3.7,0.,0.));
#1273=CARTESIAN_POINT('',(-3.7,0.,13.));
#1274=CARTESIAN_POINT('',(3.7,0.,0.));
#1275=CARTESIAN_POINT('',(3.7,0.,-13.));
#1276=CARTESIAN_POINT('',(4.,0.,13.));
#1277=CARTESIAN_POINT('',(4.,0.,0.));
#1278=CARTESIAN_POINT('',(4.,0.,-12.7));
#1279=CARTESIAN_POINT('',(4.,0.,0.));
#1280=CARTESIAN_POINT('',(4.,0.,10.6));
#1281=CARTESIAN_POINT('',(0.,0.,0.));
#1282=CARTESIAN_POINT('',(1.78885438199983,0.,0.));
#1283=CARTESIAN_POINT('',(0.,0.,0.));
#1284=CARTESIAN_POINT('',(-1.78885438199983,0.,0.));
#1285=CARTESIAN_POINT('',(0.,0.,0.));
#1286=CARTESIAN_POINT('',(3.7,0.,0.));
#1287=CARTESIAN_POINT('',(-3.7,0.,0.));
#1288=CARTESIAN_POINT('',(3.7,0.,0.));
#1289=CARTESIAN_POINT('',(-3.7,0.,0.));
#1290=MECHANICAL_DESIGN_GEOMETRIC_PRESENTATION_REPRESENTATION('',(#655),
#1291);
#1291=(
GEOMETRIC_REPRESENTATION_CONTEXT(3)
GLOBAL_UNCERTAINTY_ASSIGNED_CONTEXT((#1292))
GLOBAL_UNIT_ASSIGNED_CONTEXT((#1295,#1294,#1293))
REPRESENTATION_CONTEXT('\X2\56DB70B963A589E674038F74627F\X0\QJ\X2\578B\X0\ 
GBT294-1994','TOP_LEVEL_ASSEMBLY_PART')
);
#1292=UNCERTAINTY_MEASURE_WITH_UNIT(LENGTH_MEASURE(0.005),#1295,
'DISTANCE_ACCURACY_VALUE','Maximum Tolerance applied to model');
#1293=(
NAMED_UNIT(*)
SI_UNIT($,.STERADIAN.)
SOLID_ANGLE_UNIT()
);
#1294=(
NAMED_UNIT(*)
PLANE_ANGLE_UNIT()
SI_UNIT($,.RADIAN.)
);
#1295=(
LENGTH_UNIT()
NAMED_UNIT(*)
SI_UNIT(.MILLI.,.METRE.)
);
#1296=PRODUCT_DEFINITION_SHAPE('','',#1297);
#1297=PRODUCT_DEFINITION('','',#1299,#1298);
#1298=PRODUCT_DEFINITION_CONTEXT('',#1305,'design');
#1299=PRODUCT_DEFINITION_FORMATION_WITH_SPECIFIED_SOURCE('','',#1301,
 .NOT_KNOWN.);
#1300=PRODUCT_RELATED_PRODUCT_CATEGORY('','',(#1301));
#1301=PRODUCT('\X2\56DB70B963A589E674038F74627F\X0\QJ\X2\578B\X0\ GBT2
94-1994','\X2\56DB70B963A589E674038F74627F\X0\QJ\X2\578B\X0\ GBT294-19
94','\X2\56DB70B963A589E674038F74627F\X0\QJ\X2\578B\X0\ GBT294-1994',(#1303));
#1302=PRODUCT_CATEGORY('','');
#1303=PRODUCT_CONTEXT('',#1305,'mechanical');
#1304=APPLICATION_PROTOCOL_DEFINITION('international standard',
'automotive_design',2010,#1305);
#1305=APPLICATION_CONTEXT(
'core data for automotive mechanical design processes');
ENDSEC;
END-ISO-10303-21;
