ISO-10303-21;
HEADER;
/* Generated by software containing HOOPS Exchange Step
 * from HOOPS Exchange, Inc. (www.tiangong.cloud) 
 */

FILE_DESCRIPTION(
/* description */ ('Unknown'),
/* implementation_level */ '2;1');

FILE_NAME(
/* name */ 'tmp869C.tmp',
/* time_stamp */ '2025-01-09T14:24:49+08:00',
/* author */ ('Unknown'),
/* organization */ ('Unknown'),
/* preprocessor_version */ 'ST-DEVELOPER v18.104',
/* originating_system */ 'TianGong',
/* authorisation */ 'Unknown');

FILE_SCHEMA (('AUTOMOTIVE_DESIGN {1 0 10303 214 3 1 1}'));
ENDSEC;

DATA;
#10=PROPERTY_DEFINITION_REPRESENTATION(#14,#12);
#11=PROPERTY_DEFINITION_REPRESENTATION(#15,#13);
#12=REPRESENTATION('',(#16),#1429);
#13=REPRESENTATION('',(#17),#1429);
#14=PROPERTY_DEFINITION('pmi validation property','',#1434);
#15=PROPERTY_DEFINITION('pmi validation property','',#1434);
#16=VALUE_REPRESENTATION_ITEM('number of annotations',COUNT_MEASURE(0.));
#17=VALUE_REPRESENTATION_ITEM('number of views',COUNT_MEASURE(0.));
#18=VERTEX_LOOP('',#297);
#19=VERTEX_LOOP('',#298);
#20=VERTEX_LOOP('',#299);
#21=VERTEX_LOOP('',#300);
#22=VERTEX_LOOP('',#301);
#23=VERTEX_LOOP('',#302);
#24=VERTEX_LOOP('',#303);
#25=VERTEX_LOOP('',#304);
#26=VERTEX_LOOP('',#305);
#27=VERTEX_LOOP('',#306);
#28=VERTEX_LOOP('',#307);
#29=VERTEX_LOOP('',#308);
#30=VERTEX_LOOP('',#309);
#31=VERTEX_LOOP('',#310);
#32=VERTEX_LOOP('',#311);
#33=SPHERICAL_SURFACE('',#950,1.66566666666667);
#34=SPHERICAL_SURFACE('',#951,1.66566666666667);
#35=SPHERICAL_SURFACE('',#952,1.66566666666667);
#36=SPHERICAL_SURFACE('',#953,1.66566666666667);
#37=SPHERICAL_SURFACE('',#954,1.66566666666667);
#38=SPHERICAL_SURFACE('',#955,1.66566666666667);
#39=SPHERICAL_SURFACE('',#956,1.66566666666667);
#40=SPHERICAL_SURFACE('',#957,1.66566666666667);
#41=SPHERICAL_SURFACE('',#958,1.66566666666667);
#42=SPHERICAL_SURFACE('',#959,1.66566666666667);
#43=SPHERICAL_SURFACE('',#960,1.66566666666667);
#44=SPHERICAL_SURFACE('',#961,1.66566666666667);
#45=SPHERICAL_SURFACE('',#962,1.66566666666667);
#46=SPHERICAL_SURFACE('',#963,1.66566666666667);
#47=SPHERICAL_SURFACE('',#964,1.66566666666667);
#48=TOROIDAL_SURFACE('',#910,13.,1.66666666666667);
#49=TOROIDAL_SURFACE('',#911,15.7,0.3);
#50=TOROIDAL_SURFACE('',#912,15.7,0.3);
#51=TOROIDAL_SURFACE('',#935,13.,1.66666666666667);
#52=TOROIDAL_SURFACE('',#943,10.3,0.3);
#53=TOROIDAL_SURFACE('',#944,10.3,0.3);
#54=SHAPE_REPRESENTATION_RELATIONSHIP('','',#862,#55);
#55=ADVANCED_BREP_SHAPE_REPRESENTATION('',(#842,#843,#844,#845,#846,#847,
#848,#849,#850,#851,#852,#853,#854,#855,#856,#857,#858,#859,#860),#1429);
#56=CONICAL_SURFACE('',#869,11.5625,0.750809778641837);
#57=CONICAL_SURFACE('',#873,13.9125,1.32581766366804);
#58=CONICAL_SURFACE('',#883,12.4375,0.605248725155939);
#59=CONICAL_SURFACE('',#889,14.,1.32581766366803);
#60=CONICAL_SURFACE('',#893,14.875,1.32581766366803);
#61=CONICAL_SURFACE('',#913,14.,1.32581766366803);
#62=CONICAL_SURFACE('',#917,14.875,1.32581766366803);
#63=CONICAL_SURFACE('',#924,12.,1.32581766366804);
#64=CONICAL_SURFACE('',#925,11.125,1.32581766366804);
#65=CONICAL_SURFACE('',#945,11.125,1.32581766366804);
#66=CONICAL_SURFACE('',#947,12.,1.32581766366804);
#67=CONICAL_SURFACE('',#970,11.5625,0.750809778641837);
#68=CONICAL_SURFACE('',#974,13.9125,1.32581766366804);
#69=CONICAL_SURFACE('',#984,12.4375,0.605248725155939);
#70=CYLINDRICAL_SURFACE('',#867,11.5625);
#71=CYLINDRICAL_SURFACE('',#875,14.874);
#72=CYLINDRICAL_SURFACE('',#879,13.9125);
#73=CYLINDRICAL_SURFACE('',#885,12.);
#74=CYLINDRICAL_SURFACE('',#886,14.);
#75=CYLINDRICAL_SURFACE('',#891,14.875);
#76=CYLINDRICAL_SURFACE('',#895,14.);
#77=CYLINDRICAL_SURFACE('',#898,14.);
#78=CYLINDRICAL_SURFACE('',#903,16.);
#79=CYLINDRICAL_SURFACE('',#908,14.);
#80=CYLINDRICAL_SURFACE('',#915,14.875);
#81=CYLINDRICAL_SURFACE('',#918,12.);
#82=CYLINDRICAL_SURFACE('',#921,11.125);
#83=CYLINDRICAL_SURFACE('',#927,12.);
#84=CYLINDRICAL_SURFACE('',#932,12.);
#85=CYLINDRICAL_SURFACE('',#937,12.);
#86=CYLINDRICAL_SURFACE('',#940,10.);
#87=CYLINDRICAL_SURFACE('',#949,11.125);
#88=CYLINDRICAL_SURFACE('',#968,11.5625);
#89=CYLINDRICAL_SURFACE('',#976,14.874);
#90=CYLINDRICAL_SURFACE('',#980,13.9125);
#91=CYLINDRICAL_SURFACE('',#986,12.);
#92=ORIENTED_EDGE('',*,*,#200,.T.);
#93=ORIENTED_EDGE('',*,*,#201,.F.);
#94=ORIENTED_EDGE('',*,*,#202,.T.);
#95=ORIENTED_EDGE('',*,*,#200,.F.);
#96=ORIENTED_EDGE('',*,*,#203,.T.);
#97=ORIENTED_EDGE('',*,*,#202,.F.);
#98=ORIENTED_EDGE('',*,*,#204,.T.);
#99=ORIENTED_EDGE('',*,*,#203,.F.);
#100=ORIENTED_EDGE('',*,*,#205,.T.);
#101=ORIENTED_EDGE('',*,*,#204,.F.);
#102=ORIENTED_EDGE('',*,*,#206,.T.);
#103=ORIENTED_EDGE('',*,*,#205,.F.);
#104=ORIENTED_EDGE('',*,*,#207,.T.);
#105=ORIENTED_EDGE('',*,*,#206,.F.);
#106=ORIENTED_EDGE('',*,*,#208,.T.);
#107=ORIENTED_EDGE('',*,*,#207,.F.);
#108=ORIENTED_EDGE('',*,*,#209,.T.);
#109=ORIENTED_EDGE('',*,*,#208,.F.);
#110=ORIENTED_EDGE('',*,*,#210,.T.);
#111=ORIENTED_EDGE('',*,*,#209,.F.);
#112=ORIENTED_EDGE('',*,*,#201,.T.);
#113=ORIENTED_EDGE('',*,*,#210,.F.);
#114=ORIENTED_EDGE('',*,*,#211,.T.);
#115=ORIENTED_EDGE('',*,*,#212,.F.);
#116=ORIENTED_EDGE('',*,*,#213,.F.);
#117=ORIENTED_EDGE('',*,*,#212,.T.);
#118=ORIENTED_EDGE('',*,*,#214,.F.);
#119=ORIENTED_EDGE('',*,*,#213,.T.);
#120=ORIENTED_EDGE('',*,*,#215,.F.);
#121=ORIENTED_EDGE('',*,*,#214,.T.);
#122=ORIENTED_EDGE('',*,*,#216,.F.);
#123=ORIENTED_EDGE('',*,*,#217,.T.);
#124=ORIENTED_EDGE('',*,*,#218,.T.);
#125=ORIENTED_EDGE('',*,*,#219,.F.);
#126=ORIENTED_EDGE('',*,*,#220,.T.);
#127=ORIENTED_EDGE('',*,*,#216,.T.);
#128=ORIENTED_EDGE('',*,*,#221,.T.);
#129=ORIENTED_EDGE('',*,*,#222,.T.);
#130=ORIENTED_EDGE('',*,*,#223,.T.);
#131=ORIENTED_EDGE('',*,*,#211,.F.);
#132=ORIENTED_EDGE('',*,*,#215,.T.);
#133=ORIENTED_EDGE('',*,*,#224,.F.);
#134=ORIENTED_EDGE('',*,*,#218,.F.);
#135=ORIENTED_EDGE('',*,*,#224,.T.);
#136=ORIENTED_EDGE('',*,*,#222,.F.);
#137=ORIENTED_EDGE('',*,*,#223,.F.);
#138=ORIENTED_EDGE('',*,*,#220,.F.);
#139=ORIENTED_EDGE('',*,*,#221,.F.);
#140=ORIENTED_EDGE('',*,*,#225,.T.);
#141=ORIENTED_EDGE('',*,*,#217,.F.);
#142=ORIENTED_EDGE('',*,*,#226,.T.);
#143=ORIENTED_EDGE('',*,*,#225,.F.);
#144=ORIENTED_EDGE('',*,*,#219,.T.);
#145=ORIENTED_EDGE('',*,*,#226,.F.);
#146=ORIENTED_EDGE('',*,*,#227,.F.);
#147=ORIENTED_EDGE('',*,*,#228,.T.);
#148=ORIENTED_EDGE('',*,*,#229,.T.);
#149=ORIENTED_EDGE('',*,*,#230,.F.);
#150=ORIENTED_EDGE('',*,*,#230,.T.);
#151=ORIENTED_EDGE('',*,*,#228,.F.);
#152=ORIENTED_EDGE('',*,*,#231,.T.);
#153=ORIENTED_EDGE('',*,*,#229,.F.);
#154=ORIENTED_EDGE('',*,*,#232,.F.);
#155=ORIENTED_EDGE('',*,*,#233,.T.);
#156=ORIENTED_EDGE('',*,*,#234,.T.);
#157=ORIENTED_EDGE('',*,*,#233,.F.);
#158=ORIENTED_EDGE('',*,*,#235,.T.);
#159=ORIENTED_EDGE('',*,*,#236,.F.);
#160=ORIENTED_EDGE('',*,*,#237,.F.);
#161=ORIENTED_EDGE('',*,*,#236,.T.);
#162=ORIENTED_EDGE('',*,*,#231,.F.);
#163=ORIENTED_EDGE('',*,*,#237,.T.);
#164=ORIENTED_EDGE('',*,*,#238,.T.);
#165=ORIENTED_EDGE('',*,*,#227,.T.);
#166=ORIENTED_EDGE('',*,*,#239,.T.);
#167=ORIENTED_EDGE('',*,*,#240,.T.);
#168=ORIENTED_EDGE('',*,*,#240,.F.);
#169=ORIENTED_EDGE('',*,*,#234,.F.);
#170=ORIENTED_EDGE('',*,*,#238,.F.);
#171=ORIENTED_EDGE('',*,*,#239,.F.);
#172=ORIENTED_EDGE('',*,*,#235,.F.);
#173=ORIENTED_EDGE('',*,*,#241,.T.);
#174=ORIENTED_EDGE('',*,*,#242,.F.);
#175=ORIENTED_EDGE('',*,*,#232,.T.);
#176=ORIENTED_EDGE('',*,*,#241,.F.);
#177=ORIENTED_EDGE('',*,*,#242,.T.);
#178=ORIENTED_EDGE('',*,*,#243,.F.);
#179=ORIENTED_EDGE('',*,*,#244,.T.);
#180=ORIENTED_EDGE('',*,*,#245,.F.);
#181=ORIENTED_EDGE('',*,*,#243,.T.);
#182=ORIENTED_EDGE('',*,*,#246,.F.);
#183=ORIENTED_EDGE('',*,*,#245,.T.);
#184=ORIENTED_EDGE('',*,*,#247,.F.);
#185=ORIENTED_EDGE('',*,*,#246,.T.);
#186=ORIENTED_EDGE('',*,*,#248,.F.);
#187=ORIENTED_EDGE('',*,*,#247,.T.);
#188=ORIENTED_EDGE('',*,*,#249,.F.);
#189=ORIENTED_EDGE('',*,*,#248,.T.);
#190=ORIENTED_EDGE('',*,*,#250,.F.);
#191=ORIENTED_EDGE('',*,*,#249,.T.);
#192=ORIENTED_EDGE('',*,*,#251,.F.);
#193=ORIENTED_EDGE('',*,*,#250,.T.);
#194=ORIENTED_EDGE('',*,*,#252,.F.);
#195=ORIENTED_EDGE('',*,*,#251,.T.);
#196=ORIENTED_EDGE('',*,*,#253,.F.);
#197=ORIENTED_EDGE('',*,*,#252,.T.);
#198=ORIENTED_EDGE('',*,*,#244,.F.);
#199=ORIENTED_EDGE('',*,*,#253,.T.);
#200=EDGE_CURVE('',#254,#254,#323,.T.);
#201=EDGE_CURVE('',#255,#255,#324,.T.);
#202=EDGE_CURVE('',#256,#256,#325,.T.);
#203=EDGE_CURVE('',#257,#257,#326,.T.);
#204=EDGE_CURVE('',#258,#258,#327,.T.);
#205=EDGE_CURVE('',#259,#259,#328,.T.);
#206=EDGE_CURVE('',#260,#260,#329,.T.);
#207=EDGE_CURVE('',#261,#261,#330,.T.);
#208=EDGE_CURVE('',#262,#262,#331,.T.);
#209=EDGE_CURVE('',#263,#263,#332,.T.);
#210=EDGE_CURVE('',#264,#264,#333,.T.);
#211=EDGE_CURVE('',#265,#265,#334,.T.);
#212=EDGE_CURVE('',#266,#266,#335,.T.);
#213=EDGE_CURVE('',#267,#267,#336,.T.);
#214=EDGE_CURVE('',#268,#268,#337,.T.);
#215=EDGE_CURVE('',#269,#269,#338,.T.);
#216=EDGE_CURVE('',#270,#270,#339,.T.);
#217=EDGE_CURVE('',#271,#271,#340,.T.);
#218=EDGE_CURVE('',#272,#272,#341,.T.);
#219=EDGE_CURVE('',#273,#273,#342,.T.);
#220=EDGE_CURVE('',#274,#274,#343,.F.);
#221=EDGE_CURVE('',#275,#275,#344,.T.);
#222=EDGE_CURVE('',#276,#276,#345,.T.);
#223=EDGE_CURVE('',#277,#277,#346,.F.);
#224=EDGE_CURVE('',#278,#278,#347,.T.);
#225=EDGE_CURVE('',#279,#279,#348,.T.);
#226=EDGE_CURVE('',#280,#280,#349,.T.);
#227=EDGE_CURVE('',#281,#281,#350,.T.);
#228=EDGE_CURVE('',#282,#282,#351,.T.);
#229=EDGE_CURVE('',#283,#283,#352,.T.);
#230=EDGE_CURVE('',#284,#284,#353,.T.);
#231=EDGE_CURVE('',#285,#285,#354,.T.);
#232=EDGE_CURVE('',#286,#286,#355,.T.);
#233=EDGE_CURVE('',#287,#287,#356,.T.);
#234=EDGE_CURVE('',#288,#288,#357,.T.);
#235=EDGE_CURVE('',#289,#289,#358,.T.);
#236=EDGE_CURVE('',#290,#290,#359,.T.);
#237=EDGE_CURVE('',#291,#291,#360,.T.);
#238=EDGE_CURVE('',#292,#292,#361,.T.);
#239=EDGE_CURVE('',#293,#293,#362,.F.);
#240=EDGE_CURVE('',#294,#294,#363,.F.);
#241=EDGE_CURVE('',#295,#295,#364,.T.);
#242=EDGE_CURVE('',#296,#296,#365,.T.);
#243=EDGE_CURVE('',#312,#312,#366,.T.);
#244=EDGE_CURVE('',#313,#313,#367,.T.);
#245=EDGE_CURVE('',#314,#314,#368,.T.);
#246=EDGE_CURVE('',#315,#315,#369,.T.);
#247=EDGE_CURVE('',#316,#316,#370,.T.);
#248=EDGE_CURVE('',#317,#317,#371,.T.);
#249=EDGE_CURVE('',#318,#318,#372,.T.);
#250=EDGE_CURVE('',#319,#319,#373,.T.);
#251=EDGE_CURVE('',#320,#320,#374,.T.);
#252=EDGE_CURVE('',#321,#321,#375,.T.);
#253=EDGE_CURVE('',#322,#322,#376,.T.);
#254=VERTEX_POINT('',#1238);
#255=VERTEX_POINT('',#1240);
#256=VERTEX_POINT('',#1243);
#257=VERTEX_POINT('',#1246);
#258=VERTEX_POINT('',#1249);
#259=VERTEX_POINT('',#1252);
#260=VERTEX_POINT('',#1255);
#261=VERTEX_POINT('',#1258);
#262=VERTEX_POINT('',#1261);
#263=VERTEX_POINT('',#1264);
#264=VERTEX_POINT('',#1267);
#265=VERTEX_POINT('',#1271);
#266=VERTEX_POINT('',#1273);
#267=VERTEX_POINT('',#1276);
#268=VERTEX_POINT('',#1279);
#269=VERTEX_POINT('',#1282);
#270=VERTEX_POINT('',#1285);
#271=VERTEX_POINT('',#1287);
#272=VERTEX_POINT('',#1290);
#273=VERTEX_POINT('',#1292);
#274=VERTEX_POINT('',#1295);
#275=VERTEX_POINT('',#1298);
#276=VERTEX_POINT('',#1300);
#277=VERTEX_POINT('',#1303);
#278=VERTEX_POINT('',#1306);
#279=VERTEX_POINT('',#1312);
#280=VERTEX_POINT('',#1315);
#281=VERTEX_POINT('',#1319);
#282=VERTEX_POINT('',#1321);
#283=VERTEX_POINT('',#1324);
#284=VERTEX_POINT('',#1326);
#285=VERTEX_POINT('',#1330);
#286=VERTEX_POINT('',#1333);
#287=VERTEX_POINT('',#1335);
#288=VERTEX_POINT('',#1338);
#289=VERTEX_POINT('',#1341);
#290=VERTEX_POINT('',#1343);
#291=VERTEX_POINT('',#1346);
#292=VERTEX_POINT('',#1350);
#293=VERTEX_POINT('',#1353);
#294=VERTEX_POINT('',#1355);
#295=VERTEX_POINT('',#1360);
#296=VERTEX_POINT('',#1363);
#297=VERTEX_POINT('',#1366);
#298=VERTEX_POINT('',#1368);
#299=VERTEX_POINT('',#1370);
#300=VERTEX_POINT('',#1372);
#301=VERTEX_POINT('',#1374);
#302=VERTEX_POINT('',#1376);
#303=VERTEX_POINT('',#1378);
#304=VERTEX_POINT('',#1380);
#305=VERTEX_POINT('',#1382);
#306=VERTEX_POINT('',#1384);
#307=VERTEX_POINT('',#1386);
#308=VERTEX_POINT('',#1388);
#309=VERTEX_POINT('',#1390);
#310=VERTEX_POINT('',#1392);
#311=VERTEX_POINT('',#1394);
#312=VERTEX_POINT('',#1397);
#313=VERTEX_POINT('',#1399);
#314=VERTEX_POINT('',#1402);
#315=VERTEX_POINT('',#1405);
#316=VERTEX_POINT('',#1408);
#317=VERTEX_POINT('',#1411);
#318=VERTEX_POINT('',#1414);
#319=VERTEX_POINT('',#1417);
#320=VERTEX_POINT('',#1420);
#321=VERTEX_POINT('',#1423);
#322=VERTEX_POINT('',#1426);
#323=CIRCLE('',#865,11.5625);
#324=CIRCLE('',#866,12.);
#325=CIRCLE('',#868,11.5625);
#326=CIRCLE('',#870,12.0208176902902);
#327=CIRCLE('',#872,13.9125);
#328=CIRCLE('',#874,14.874);
#329=CIRCLE('',#876,14.874);
#330=CIRCLE('',#878,13.9125);
#331=CIRCLE('',#880,13.9125);
#332=CIRCLE('',#882,12.4375);
#333=CIRCLE('',#884,12.);
#334=CIRCLE('',#887,14.);
#335=CIRCLE('',#888,14.);
#336=CIRCLE('',#890,14.875);
#337=CIRCLE('',#892,14.875);
#338=CIRCLE('',#894,14.);
#339=CIRCLE('',#896,14.);
#340=CIRCLE('',#897,14.);
#341=CIRCLE('',#899,14.);
#342=CIRCLE('',#900,14.);
#343=CIRCLE('',#902,15.7);
#344=CIRCLE('',#904,16.);
#345=CIRCLE('',#905,16.);
#346=CIRCLE('',#907,15.7);
#347=CIRCLE('',#909,14.);
#348=CIRCLE('',#914,14.875);
#349=CIRCLE('',#916,14.875);
#350=CIRCLE('',#919,12.);
#351=CIRCLE('',#920,12.);
#352=CIRCLE('',#922,11.125);
#353=CIRCLE('',#923,11.125);
#354=CIRCLE('',#926,12.);
#355=CIRCLE('',#928,12.);
#356=CIRCLE('',#929,12.);
#357=CIRCLE('',#931,10.3);
#358=CIRCLE('',#933,12.);
#359=CIRCLE('',#934,12.);
#360=CIRCLE('',#936,12.);
#361=CIRCLE('',#939,10.3);
#362=CIRCLE('',#941,10.);
#363=CIRCLE('',#942,10.);
#364=CIRCLE('',#946,11.125);
#365=CIRCLE('',#948,11.125);
#366=CIRCLE('',#966,11.5625);
#367=CIRCLE('',#967,12.);
#368=CIRCLE('',#969,11.5625);
#369=CIRCLE('',#971,12.0208176902902);
#370=CIRCLE('',#973,13.9125);
#371=CIRCLE('',#975,14.874);
#372=CIRCLE('',#977,14.874);
#373=CIRCLE('',#979,13.9125);
#374=CIRCLE('',#981,13.9125);
#375=CIRCLE('',#983,12.4375);
#376=CIRCLE('',#985,12.);
#377=EDGE_LOOP('',(#92));
#378=EDGE_LOOP('',(#93));
#379=EDGE_LOOP('',(#94));
#380=EDGE_LOOP('',(#95));
#381=EDGE_LOOP('',(#96));
#382=EDGE_LOOP('',(#97));
#383=EDGE_LOOP('',(#98));
#384=EDGE_LOOP('',(#99));
#385=EDGE_LOOP('',(#100));
#386=EDGE_LOOP('',(#101));
#387=EDGE_LOOP('',(#102));
#388=EDGE_LOOP('',(#103));
#389=EDGE_LOOP('',(#104));
#390=EDGE_LOOP('',(#105));
#391=EDGE_LOOP('',(#106));
#392=EDGE_LOOP('',(#107));
#393=EDGE_LOOP('',(#108));
#394=EDGE_LOOP('',(#109));
#395=EDGE_LOOP('',(#110));
#396=EDGE_LOOP('',(#111));
#397=EDGE_LOOP('',(#112));
#398=EDGE_LOOP('',(#113));
#399=EDGE_LOOP('',(#114));
#400=EDGE_LOOP('',(#115));
#401=EDGE_LOOP('',(#116));
#402=EDGE_LOOP('',(#117));
#403=EDGE_LOOP('',(#118));
#404=EDGE_LOOP('',(#119));
#405=EDGE_LOOP('',(#120));
#406=EDGE_LOOP('',(#121));
#407=EDGE_LOOP('',(#122));
#408=EDGE_LOOP('',(#123));
#409=EDGE_LOOP('',(#124));
#410=EDGE_LOOP('',(#125));
#411=EDGE_LOOP('',(#126));
#412=EDGE_LOOP('',(#127));
#413=EDGE_LOOP('',(#128));
#414=EDGE_LOOP('',(#129));
#415=EDGE_LOOP('',(#130));
#416=EDGE_LOOP('',(#131));
#417=EDGE_LOOP('',(#132));
#418=EDGE_LOOP('',(#133));
#419=EDGE_LOOP('',(#134));
#420=EDGE_LOOP('',(#135));
#421=EDGE_LOOP('',(#136));
#422=EDGE_LOOP('',(#137));
#423=EDGE_LOOP('',(#138));
#424=EDGE_LOOP('',(#139));
#425=EDGE_LOOP('',(#140));
#426=EDGE_LOOP('',(#141));
#427=EDGE_LOOP('',(#142));
#428=EDGE_LOOP('',(#143));
#429=EDGE_LOOP('',(#144));
#430=EDGE_LOOP('',(#145));
#431=EDGE_LOOP('',(#146));
#432=EDGE_LOOP('',(#147));
#433=EDGE_LOOP('',(#148));
#434=EDGE_LOOP('',(#149));
#435=EDGE_LOOP('',(#150));
#436=EDGE_LOOP('',(#151));
#437=EDGE_LOOP('',(#152));
#438=EDGE_LOOP('',(#153));
#439=EDGE_LOOP('',(#154));
#440=EDGE_LOOP('',(#155));
#441=EDGE_LOOP('',(#156));
#442=EDGE_LOOP('',(#157));
#443=EDGE_LOOP('',(#158));
#444=EDGE_LOOP('',(#159));
#445=EDGE_LOOP('',(#160));
#446=EDGE_LOOP('',(#161));
#447=EDGE_LOOP('',(#162));
#448=EDGE_LOOP('',(#163));
#449=EDGE_LOOP('',(#164));
#450=EDGE_LOOP('',(#165));
#451=EDGE_LOOP('',(#166));
#452=EDGE_LOOP('',(#167));
#453=EDGE_LOOP('',(#168));
#454=EDGE_LOOP('',(#169));
#455=EDGE_LOOP('',(#170));
#456=EDGE_LOOP('',(#171));
#457=EDGE_LOOP('',(#172));
#458=EDGE_LOOP('',(#173));
#459=EDGE_LOOP('',(#174));
#460=EDGE_LOOP('',(#175));
#461=EDGE_LOOP('',(#176));
#462=EDGE_LOOP('',(#177));
#463=EDGE_LOOP('',(#178));
#464=EDGE_LOOP('',(#179));
#465=EDGE_LOOP('',(#180));
#466=EDGE_LOOP('',(#181));
#467=EDGE_LOOP('',(#182));
#468=EDGE_LOOP('',(#183));
#469=EDGE_LOOP('',(#184));
#470=EDGE_LOOP('',(#185));
#471=EDGE_LOOP('',(#186));
#472=EDGE_LOOP('',(#187));
#473=EDGE_LOOP('',(#188));
#474=EDGE_LOOP('',(#189));
#475=EDGE_LOOP('',(#190));
#476=EDGE_LOOP('',(#191));
#477=EDGE_LOOP('',(#192));
#478=EDGE_LOOP('',(#193));
#479=EDGE_LOOP('',(#194));
#480=EDGE_LOOP('',(#195));
#481=EDGE_LOOP('',(#196));
#482=EDGE_LOOP('',(#197));
#483=EDGE_LOOP('',(#198));
#484=EDGE_LOOP('',(#199));
#485=FACE_BOUND('',#377,.T.);
#486=FACE_BOUND('',#378,.T.);
#487=FACE_BOUND('',#379,.T.);
#488=FACE_BOUND('',#380,.T.);
#489=FACE_BOUND('',#381,.T.);
#490=FACE_BOUND('',#382,.T.);
#491=FACE_BOUND('',#383,.T.);
#492=FACE_BOUND('',#384,.T.);
#493=FACE_BOUND('',#385,.T.);
#494=FACE_BOUND('',#386,.T.);
#495=FACE_BOUND('',#387,.T.);
#496=FACE_BOUND('',#388,.T.);
#497=FACE_BOUND('',#389,.T.);
#498=FACE_BOUND('',#390,.T.);
#499=FACE_BOUND('',#391,.T.);
#500=FACE_BOUND('',#392,.T.);
#501=FACE_BOUND('',#393,.T.);
#502=FACE_BOUND('',#394,.T.);
#503=FACE_BOUND('',#395,.T.);
#504=FACE_BOUND('',#396,.T.);
#505=FACE_BOUND('',#397,.T.);
#506=FACE_BOUND('',#398,.T.);
#507=FACE_BOUND('',#399,.T.);
#508=FACE_BOUND('',#400,.T.);
#509=FACE_BOUND('',#401,.T.);
#510=FACE_BOUND('',#402,.T.);
#511=FACE_BOUND('',#403,.T.);
#512=FACE_BOUND('',#404,.T.);
#513=FACE_BOUND('',#405,.T.);
#514=FACE_BOUND('',#406,.T.);
#515=FACE_BOUND('',#407,.T.);
#516=FACE_BOUND('',#408,.T.);
#517=FACE_BOUND('',#409,.T.);
#518=FACE_BOUND('',#410,.T.);
#519=FACE_BOUND('',#411,.T.);
#520=FACE_BOUND('',#412,.T.);
#521=FACE_BOUND('',#413,.T.);
#522=FACE_BOUND('',#414,.T.);
#523=FACE_BOUND('',#415,.T.);
#524=FACE_BOUND('',#416,.T.);
#525=FACE_BOUND('',#417,.T.);
#526=FACE_BOUND('',#418,.T.);
#527=FACE_BOUND('',#419,.T.);
#528=FACE_BOUND('',#420,.T.);
#529=FACE_BOUND('',#421,.T.);
#530=FACE_BOUND('',#422,.T.);
#531=FACE_BOUND('',#423,.T.);
#532=FACE_BOUND('',#424,.T.);
#533=FACE_BOUND('',#425,.T.);
#534=FACE_BOUND('',#426,.T.);
#535=FACE_BOUND('',#427,.T.);
#536=FACE_BOUND('',#428,.T.);
#537=FACE_BOUND('',#429,.T.);
#538=FACE_BOUND('',#430,.T.);
#539=FACE_BOUND('',#431,.T.);
#540=FACE_BOUND('',#432,.T.);
#541=FACE_BOUND('',#433,.T.);
#542=FACE_BOUND('',#434,.T.);
#543=FACE_BOUND('',#435,.T.);
#544=FACE_BOUND('',#436,.T.);
#545=FACE_BOUND('',#437,.T.);
#546=FACE_BOUND('',#438,.T.);
#547=FACE_BOUND('',#439,.T.);
#548=FACE_BOUND('',#440,.T.);
#549=FACE_BOUND('',#441,.T.);
#550=FACE_BOUND('',#442,.T.);
#551=FACE_BOUND('',#443,.T.);
#552=FACE_BOUND('',#444,.T.);
#553=FACE_BOUND('',#445,.T.);
#554=FACE_BOUND('',#446,.T.);
#555=FACE_BOUND('',#447,.T.);
#556=FACE_BOUND('',#448,.T.);
#557=FACE_BOUND('',#449,.T.);
#558=FACE_BOUND('',#450,.T.);
#559=FACE_BOUND('',#451,.T.);
#560=FACE_BOUND('',#452,.T.);
#561=FACE_BOUND('',#453,.T.);
#562=FACE_BOUND('',#454,.T.);
#563=FACE_BOUND('',#455,.T.);
#564=FACE_BOUND('',#456,.T.);
#565=FACE_BOUND('',#457,.T.);
#566=FACE_BOUND('',#458,.T.);
#567=FACE_BOUND('',#459,.T.);
#568=FACE_BOUND('',#460,.T.);
#569=FACE_BOUND('',#461,.T.);
#570=FACE_BOUND('',#462,.T.);
#571=FACE_BOUND('',#18,.T.);
#572=FACE_BOUND('',#19,.T.);
#573=FACE_BOUND('',#20,.T.);
#574=FACE_BOUND('',#21,.T.);
#575=FACE_BOUND('',#22,.T.);
#576=FACE_BOUND('',#23,.T.);
#577=FACE_BOUND('',#24,.T.);
#578=FACE_BOUND('',#25,.T.);
#579=FACE_BOUND('',#26,.T.);
#580=FACE_BOUND('',#27,.T.);
#581=FACE_BOUND('',#28,.T.);
#582=FACE_BOUND('',#29,.T.);
#583=FACE_BOUND('',#30,.T.);
#584=FACE_BOUND('',#31,.T.);
#585=FACE_BOUND('',#32,.T.);
#586=FACE_BOUND('',#463,.T.);
#587=FACE_BOUND('',#464,.T.);
#588=FACE_BOUND('',#465,.T.);
#589=FACE_BOUND('',#466,.T.);
#590=FACE_BOUND('',#467,.T.);
#591=FACE_BOUND('',#468,.T.);
#592=FACE_BOUND('',#469,.T.);
#593=FACE_BOUND('',#470,.T.);
#594=FACE_BOUND('',#471,.T.);
#595=FACE_BOUND('',#472,.T.);
#596=FACE_BOUND('',#473,.T.);
#597=FACE_BOUND('',#474,.T.);
#598=FACE_BOUND('',#475,.T.);
#599=FACE_BOUND('',#476,.T.);
#600=FACE_BOUND('',#477,.T.);
#601=FACE_BOUND('',#478,.T.);
#602=FACE_BOUND('',#479,.T.);
#603=FACE_BOUND('',#480,.T.);
#604=FACE_BOUND('',#481,.T.);
#605=FACE_BOUND('',#482,.T.);
#606=FACE_BOUND('',#483,.T.);
#607=FACE_BOUND('',#484,.T.);
#608=PLANE('',#864);
#609=PLANE('',#871);
#610=PLANE('',#877);
#611=PLANE('',#881);
#612=PLANE('',#901);
#613=PLANE('',#906);
#614=PLANE('',#930);
#615=PLANE('',#938);
#616=PLANE('',#965);
#617=PLANE('',#972);
#618=PLANE('',#978);
#619=PLANE('',#982);
#620=ADVANCED_FACE('',(#485,#486),#608,.F.);
#621=ADVANCED_FACE('',(#487,#488),#70,.F.);
#622=ADVANCED_FACE('',(#489,#490),#56,.F.);
#623=ADVANCED_FACE('',(#491,#492),#609,.F.);
#624=ADVANCED_FACE('',(#493,#494),#57,.T.);
#625=ADVANCED_FACE('',(#495,#496),#71,.T.);
#626=ADVANCED_FACE('',(#497,#498),#610,.F.);
#627=ADVANCED_FACE('',(#499,#500),#72,.F.);
#628=ADVANCED_FACE('',(#501,#502),#611,.F.);
#629=ADVANCED_FACE('',(#503,#504),#58,.T.);
#630=ADVANCED_FACE('',(#505,#506),#73,.F.);
#631=ADVANCED_FACE('',(#507,#508),#74,.F.);
#632=ADVANCED_FACE('',(#509,#510),#59,.F.);
#633=ADVANCED_FACE('',(#511,#512),#75,.F.);
#634=ADVANCED_FACE('',(#513,#514),#60,.F.);
#635=ADVANCED_FACE('',(#515,#516),#76,.F.);
#636=ADVANCED_FACE('',(#517,#518),#77,.F.);
#637=ADVANCED_FACE('',(#519,#520),#612,.F.);
#638=ADVANCED_FACE('',(#521,#522),#78,.T.);
#639=ADVANCED_FACE('',(#523,#524),#613,.F.);
#640=ADVANCED_FACE('',(#525,#526),#79,.F.);
#641=ADVANCED_FACE('',(#527,#528),#48,.F.);
#642=ADVANCED_FACE('',(#529,#530),#49,.T.);
#643=ADVANCED_FACE('',(#531,#532),#50,.T.);
#644=ADVANCED_FACE('',(#533,#534),#61,.F.);
#645=ADVANCED_FACE('',(#535,#536),#80,.F.);
#646=ADVANCED_FACE('',(#537,#538),#62,.F.);
#647=ADVANCED_FACE('',(#539,#540),#81,.T.);
#648=ADVANCED_FACE('',(#541,#542),#82,.T.);
#649=ADVANCED_FACE('',(#543,#544),#63,.T.);
#650=ADVANCED_FACE('',(#545,#546),#64,.T.);
#651=ADVANCED_FACE('',(#547,#548),#83,.T.);
#652=ADVANCED_FACE('',(#549,#550),#614,.F.);
#653=ADVANCED_FACE('',(#551,#552),#84,.T.);
#654=ADVANCED_FACE('',(#553,#554),#51,.F.);
#655=ADVANCED_FACE('',(#555,#556),#85,.T.);
#656=ADVANCED_FACE('',(#557,#558),#615,.F.);
#657=ADVANCED_FACE('',(#559,#560),#86,.F.);
#658=ADVANCED_FACE('',(#561,#562),#52,.T.);
#659=ADVANCED_FACE('',(#563,#564),#53,.T.);
#660=ADVANCED_FACE('',(#565,#566),#65,.T.);
#661=ADVANCED_FACE('',(#567,#568),#66,.T.);
#662=ADVANCED_FACE('',(#569,#570),#87,.T.);
#663=ADVANCED_FACE('',(#571),#33,.T.);
#664=ADVANCED_FACE('',(#572),#34,.T.);
#665=ADVANCED_FACE('',(#573),#35,.T.);
#666=ADVANCED_FACE('',(#574),#36,.T.);
#667=ADVANCED_FACE('',(#575),#37,.T.);
#668=ADVANCED_FACE('',(#576),#38,.T.);
#669=ADVANCED_FACE('',(#577),#39,.T.);
#670=ADVANCED_FACE('',(#578),#40,.T.);
#671=ADVANCED_FACE('',(#579),#41,.T.);
#672=ADVANCED_FACE('',(#580),#42,.T.);
#673=ADVANCED_FACE('',(#581),#43,.T.);
#674=ADVANCED_FACE('',(#582),#44,.T.);
#675=ADVANCED_FACE('',(#583),#45,.T.);
#676=ADVANCED_FACE('',(#584),#46,.T.);
#677=ADVANCED_FACE('',(#585),#47,.T.);
#678=ADVANCED_FACE('',(#586,#587),#616,.F.);
#679=ADVANCED_FACE('',(#588,#589),#88,.F.);
#680=ADVANCED_FACE('',(#590,#591),#67,.F.);
#681=ADVANCED_FACE('',(#592,#593),#617,.F.);
#682=ADVANCED_FACE('',(#594,#595),#68,.T.);
#683=ADVANCED_FACE('',(#596,#597),#89,.T.);
#684=ADVANCED_FACE('',(#598,#599),#618,.F.);
#685=ADVANCED_FACE('',(#600,#601),#90,.F.);
#686=ADVANCED_FACE('',(#602,#603),#619,.F.);
#687=ADVANCED_FACE('',(#604,#605),#69,.T.);
#688=ADVANCED_FACE('',(#606,#607),#91,.F.);
#689=CLOSED_SHELL('',(#620,#621,#622,#623,#624,#625,#626,#627,#628,#629,
#630));
#690=CLOSED_SHELL('',(#631,#632,#633,#634,#635,#636,#637,#638,#639,#640,
#641,#642,#643,#644,#645,#646));
#691=CLOSED_SHELL('',(#647,#648,#649,#650,#651,#652,#653,#654,#655,#656,
#657,#658,#659,#660,#661,#662));
#692=CLOSED_SHELL('',(#663));
#693=CLOSED_SHELL('',(#664));
#694=CLOSED_SHELL('',(#665));
#695=CLOSED_SHELL('',(#666));
#696=CLOSED_SHELL('',(#667));
#697=CLOSED_SHELL('',(#668));
#698=CLOSED_SHELL('',(#669));
#699=CLOSED_SHELL('',(#670));
#700=CLOSED_SHELL('',(#671));
#701=CLOSED_SHELL('',(#672));
#702=CLOSED_SHELL('',(#673));
#703=CLOSED_SHELL('',(#674));
#704=CLOSED_SHELL('',(#675));
#705=CLOSED_SHELL('',(#676));
#706=CLOSED_SHELL('',(#677));
#707=CLOSED_SHELL('',(#678,#679,#680,#681,#682,#683,#684,#685,#686,#687,
#688));
#708=STYLED_ITEM('',(#727),#842);
#709=STYLED_ITEM('',(#728),#843);
#710=STYLED_ITEM('',(#729),#844);
#711=STYLED_ITEM('',(#730),#845);
#712=STYLED_ITEM('',(#731),#846);
#713=STYLED_ITEM('',(#732),#847);
#714=STYLED_ITEM('',(#733),#848);
#715=STYLED_ITEM('',(#734),#849);
#716=STYLED_ITEM('',(#735),#850);
#717=STYLED_ITEM('',(#736),#851);
#718=STYLED_ITEM('',(#737),#852);
#719=STYLED_ITEM('',(#738),#853);
#720=STYLED_ITEM('',(#739),#854);
#721=STYLED_ITEM('',(#740),#855);
#722=STYLED_ITEM('',(#741),#856);
#723=STYLED_ITEM('',(#742),#857);
#724=STYLED_ITEM('',(#743),#858);
#725=STYLED_ITEM('',(#744),#859);
#726=STYLED_ITEM('',(#745),#860);
#727=PRESENTATION_STYLE_ASSIGNMENT((#746));
#728=PRESENTATION_STYLE_ASSIGNMENT((#747));
#729=PRESENTATION_STYLE_ASSIGNMENT((#748));
#730=PRESENTATION_STYLE_ASSIGNMENT((#749));
#731=PRESENTATION_STYLE_ASSIGNMENT((#750));
#732=PRESENTATION_STYLE_ASSIGNMENT((#751));
#733=PRESENTATION_STYLE_ASSIGNMENT((#752));
#734=PRESENTATION_STYLE_ASSIGNMENT((#753));
#735=PRESENTATION_STYLE_ASSIGNMENT((#754));
#736=PRESENTATION_STYLE_ASSIGNMENT((#755));
#737=PRESENTATION_STYLE_ASSIGNMENT((#756));
#738=PRESENTATION_STYLE_ASSIGNMENT((#757));
#739=PRESENTATION_STYLE_ASSIGNMENT((#758));
#740=PRESENTATION_STYLE_ASSIGNMENT((#759));
#741=PRESENTATION_STYLE_ASSIGNMENT((#760));
#742=PRESENTATION_STYLE_ASSIGNMENT((#761));
#743=PRESENTATION_STYLE_ASSIGNMENT((#762));
#744=PRESENTATION_STYLE_ASSIGNMENT((#763));
#745=PRESENTATION_STYLE_ASSIGNMENT((#764));
#746=SURFACE_STYLE_USAGE(.BOTH.,#765);
#747=SURFACE_STYLE_USAGE(.BOTH.,#766);
#748=SURFACE_STYLE_USAGE(.BOTH.,#767);
#749=SURFACE_STYLE_USAGE(.BOTH.,#768);
#750=SURFACE_STYLE_USAGE(.BOTH.,#769);
#751=SURFACE_STYLE_USAGE(.BOTH.,#770);
#752=SURFACE_STYLE_USAGE(.BOTH.,#771);
#753=SURFACE_STYLE_USAGE(.BOTH.,#772);
#754=SURFACE_STYLE_USAGE(.BOTH.,#773);
#755=SURFACE_STYLE_USAGE(.BOTH.,#774);
#756=SURFACE_STYLE_USAGE(.BOTH.,#775);
#757=SURFACE_STYLE_USAGE(.BOTH.,#776);
#758=SURFACE_STYLE_USAGE(.BOTH.,#777);
#759=SURFACE_STYLE_USAGE(.BOTH.,#778);
#760=SURFACE_STYLE_USAGE(.BOTH.,#779);
#761=SURFACE_STYLE_USAGE(.BOTH.,#780);
#762=SURFACE_STYLE_USAGE(.BOTH.,#781);
#763=SURFACE_STYLE_USAGE(.BOTH.,#782);
#764=SURFACE_STYLE_USAGE(.BOTH.,#783);
#765=SURFACE_SIDE_STYLE('',(#784));
#766=SURFACE_SIDE_STYLE('',(#785));
#767=SURFACE_SIDE_STYLE('',(#786));
#768=SURFACE_SIDE_STYLE('',(#787));
#769=SURFACE_SIDE_STYLE('',(#788));
#770=SURFACE_SIDE_STYLE('',(#789));
#771=SURFACE_SIDE_STYLE('',(#790));
#772=SURFACE_SIDE_STYLE('',(#791));
#773=SURFACE_SIDE_STYLE('',(#792));
#774=SURFACE_SIDE_STYLE('',(#793));
#775=SURFACE_SIDE_STYLE('',(#794));
#776=SURFACE_SIDE_STYLE('',(#795));
#777=SURFACE_SIDE_STYLE('',(#796));
#778=SURFACE_SIDE_STYLE('',(#797));
#779=SURFACE_SIDE_STYLE('',(#798));
#780=SURFACE_SIDE_STYLE('',(#799));
#781=SURFACE_SIDE_STYLE('',(#800));
#782=SURFACE_SIDE_STYLE('',(#801));
#783=SURFACE_SIDE_STYLE('',(#802));
#784=SURFACE_STYLE_FILL_AREA(#803);
#785=SURFACE_STYLE_FILL_AREA(#804);
#786=SURFACE_STYLE_FILL_AREA(#805);
#787=SURFACE_STYLE_FILL_AREA(#806);
#788=SURFACE_STYLE_FILL_AREA(#807);
#789=SURFACE_STYLE_FILL_AREA(#808);
#790=SURFACE_STYLE_FILL_AREA(#809);
#791=SURFACE_STYLE_FILL_AREA(#810);
#792=SURFACE_STYLE_FILL_AREA(#811);
#793=SURFACE_STYLE_FILL_AREA(#812);
#794=SURFACE_STYLE_FILL_AREA(#813);
#795=SURFACE_STYLE_FILL_AREA(#814);
#796=SURFACE_STYLE_FILL_AREA(#815);
#797=SURFACE_STYLE_FILL_AREA(#816);
#798=SURFACE_STYLE_FILL_AREA(#817);
#799=SURFACE_STYLE_FILL_AREA(#818);
#800=SURFACE_STYLE_FILL_AREA(#819);
#801=SURFACE_STYLE_FILL_AREA(#820);
#802=SURFACE_STYLE_FILL_AREA(#821);
#803=FILL_AREA_STYLE('',(#822));
#804=FILL_AREA_STYLE('',(#823));
#805=FILL_AREA_STYLE('',(#824));
#806=FILL_AREA_STYLE('',(#825));
#807=FILL_AREA_STYLE('',(#826));
#808=FILL_AREA_STYLE('',(#827));
#809=FILL_AREA_STYLE('',(#828));
#810=FILL_AREA_STYLE('',(#829));
#811=FILL_AREA_STYLE('',(#830));
#812=FILL_AREA_STYLE('',(#831));
#813=FILL_AREA_STYLE('',(#832));
#814=FILL_AREA_STYLE('',(#833));
#815=FILL_AREA_STYLE('',(#834));
#816=FILL_AREA_STYLE('',(#835));
#817=FILL_AREA_STYLE('',(#836));
#818=FILL_AREA_STYLE('',(#837));
#819=FILL_AREA_STYLE('',(#838));
#820=FILL_AREA_STYLE('',(#839));
#821=FILL_AREA_STYLE('',(#840));
#822=FILL_AREA_STYLE_COLOUR('',#841);
#823=FILL_AREA_STYLE_COLOUR('',#841);
#824=FILL_AREA_STYLE_COLOUR('',#841);
#825=FILL_AREA_STYLE_COLOUR('',#841);
#826=FILL_AREA_STYLE_COLOUR('',#841);
#827=FILL_AREA_STYLE_COLOUR('',#841);
#828=FILL_AREA_STYLE_COLOUR('',#841);
#829=FILL_AREA_STYLE_COLOUR('',#841);
#830=FILL_AREA_STYLE_COLOUR('',#841);
#831=FILL_AREA_STYLE_COLOUR('',#841);
#832=FILL_AREA_STYLE_COLOUR('',#841);
#833=FILL_AREA_STYLE_COLOUR('',#841);
#834=FILL_AREA_STYLE_COLOUR('',#841);
#835=FILL_AREA_STYLE_COLOUR('',#841);
#836=FILL_AREA_STYLE_COLOUR('',#841);
#837=FILL_AREA_STYLE_COLOUR('',#841);
#838=FILL_AREA_STYLE_COLOUR('',#841);
#839=FILL_AREA_STYLE_COLOUR('',#841);
#840=FILL_AREA_STYLE_COLOUR('',#841);
#841=COLOUR_RGB('',0.506983280181885,0.531564235687256,0.550000011920929);
#842=MANIFOLD_SOLID_BREP('',#689);
#843=MANIFOLD_SOLID_BREP('',#690);
#844=MANIFOLD_SOLID_BREP('',#691);
#845=MANIFOLD_SOLID_BREP('',#692);
#846=MANIFOLD_SOLID_BREP('',#693);
#847=MANIFOLD_SOLID_BREP('',#694);
#848=MANIFOLD_SOLID_BREP('',#695);
#849=MANIFOLD_SOLID_BREP('',#696);
#850=MANIFOLD_SOLID_BREP('',#697);
#851=MANIFOLD_SOLID_BREP('',#698);
#852=MANIFOLD_SOLID_BREP('',#699);
#853=MANIFOLD_SOLID_BREP('',#700);
#854=MANIFOLD_SOLID_BREP('',#701);
#855=MANIFOLD_SOLID_BREP('',#702);
#856=MANIFOLD_SOLID_BREP('',#703);
#857=MANIFOLD_SOLID_BREP('',#704);
#858=MANIFOLD_SOLID_BREP('',#705);
#859=MANIFOLD_SOLID_BREP('',#706);
#860=MANIFOLD_SOLID_BREP('',#707);
#861=SHAPE_DEFINITION_REPRESENTATION(#1434,#862);
#862=SHAPE_REPRESENTATION('\X2\6DF16C9F74038F74627F\X0\60000-2RZ\X2\578B\X0\',
(#863),#1429);
#863=AXIS2_PLACEMENT_3D('',#1235,#987,#988);
#864=AXIS2_PLACEMENT_3D('',#1236,#989,#990);
#865=AXIS2_PLACEMENT_3D('',#1237,#991,#992);
#866=AXIS2_PLACEMENT_3D('',#1239,#993,#994);
#867=AXIS2_PLACEMENT_3D('',#1241,#995,#996);
#868=AXIS2_PLACEMENT_3D('',#1242,#997,#998);
#869=AXIS2_PLACEMENT_3D('',#1244,#999,#1000);
#870=AXIS2_PLACEMENT_3D('',#1245,#1001,#1002);
#871=AXIS2_PLACEMENT_3D('',#1247,#1003,#1004);
#872=AXIS2_PLACEMENT_3D('',#1248,#1005,#1006);
#873=AXIS2_PLACEMENT_3D('',#1250,#1007,#1008);
#874=AXIS2_PLACEMENT_3D('',#1251,#1009,#1010);
#875=AXIS2_PLACEMENT_3D('',#1253,#1011,#1012);
#876=AXIS2_PLACEMENT_3D('',#1254,#1013,#1014);
#877=AXIS2_PLACEMENT_3D('',#1256,#1015,#1016);
#878=AXIS2_PLACEMENT_3D('',#1257,#1017,#1018);
#879=AXIS2_PLACEMENT_3D('',#1259,#1019,#1020);
#880=AXIS2_PLACEMENT_3D('',#1260,#1021,#1022);
#881=AXIS2_PLACEMENT_3D('',#1262,#1023,#1024);
#882=AXIS2_PLACEMENT_3D('',#1263,#1025,#1026);
#883=AXIS2_PLACEMENT_3D('',#1265,#1027,#1028);
#884=AXIS2_PLACEMENT_3D('',#1266,#1029,#1030);
#885=AXIS2_PLACEMENT_3D('',#1268,#1031,#1032);
#886=AXIS2_PLACEMENT_3D('',#1269,#1033,#1034);
#887=AXIS2_PLACEMENT_3D('',#1270,#1035,#1036);
#888=AXIS2_PLACEMENT_3D('',#1272,#1037,#1038);
#889=AXIS2_PLACEMENT_3D('',#1274,#1039,#1040);
#890=AXIS2_PLACEMENT_3D('',#1275,#1041,#1042);
#891=AXIS2_PLACEMENT_3D('',#1277,#1043,#1044);
#892=AXIS2_PLACEMENT_3D('',#1278,#1045,#1046);
#893=AXIS2_PLACEMENT_3D('',#1280,#1047,#1048);
#894=AXIS2_PLACEMENT_3D('',#1281,#1049,#1050);
#895=AXIS2_PLACEMENT_3D('',#1283,#1051,#1052);
#896=AXIS2_PLACEMENT_3D('',#1284,#1053,#1054);
#897=AXIS2_PLACEMENT_3D('',#1286,#1055,#1056);
#898=AXIS2_PLACEMENT_3D('',#1288,#1057,#1058);
#899=AXIS2_PLACEMENT_3D('',#1289,#1059,#1060);
#900=AXIS2_PLACEMENT_3D('',#1291,#1061,#1062);
#901=AXIS2_PLACEMENT_3D('',#1293,#1063,#1064);
#902=AXIS2_PLACEMENT_3D('',#1294,#1065,#1066);
#903=AXIS2_PLACEMENT_3D('',#1296,#1067,#1068);
#904=AXIS2_PLACEMENT_3D('',#1297,#1069,#1070);
#905=AXIS2_PLACEMENT_3D('',#1299,#1071,#1072);
#906=AXIS2_PLACEMENT_3D('',#1301,#1073,#1074);
#907=AXIS2_PLACEMENT_3D('',#1302,#1075,#1076);
#908=AXIS2_PLACEMENT_3D('',#1304,#1077,#1078);
#909=AXIS2_PLACEMENT_3D('',#1305,#1079,#1080);
#910=AXIS2_PLACEMENT_3D('',#1307,#1081,#1082);
#911=AXIS2_PLACEMENT_3D('',#1308,#1083,#1084);
#912=AXIS2_PLACEMENT_3D('',#1309,#1085,#1086);
#913=AXIS2_PLACEMENT_3D('',#1310,#1087,#1088);
#914=AXIS2_PLACEMENT_3D('',#1311,#1089,#1090);
#915=AXIS2_PLACEMENT_3D('',#1313,#1091,#1092);
#916=AXIS2_PLACEMENT_3D('',#1314,#1093,#1094);
#917=AXIS2_PLACEMENT_3D('',#1316,#1095,#1096);
#918=AXIS2_PLACEMENT_3D('',#1317,#1097,#1098);
#919=AXIS2_PLACEMENT_3D('',#1318,#1099,#1100);
#920=AXIS2_PLACEMENT_3D('',#1320,#1101,#1102);
#921=AXIS2_PLACEMENT_3D('',#1322,#1103,#1104);
#922=AXIS2_PLACEMENT_3D('',#1323,#1105,#1106);
#923=AXIS2_PLACEMENT_3D('',#1325,#1107,#1108);
#924=AXIS2_PLACEMENT_3D('',#1327,#1109,#1110);
#925=AXIS2_PLACEMENT_3D('',#1328,#1111,#1112);
#926=AXIS2_PLACEMENT_3D('',#1329,#1113,#1114);
#927=AXIS2_PLACEMENT_3D('',#1331,#1115,#1116);
#928=AXIS2_PLACEMENT_3D('',#1332,#1117,#1118);
#929=AXIS2_PLACEMENT_3D('',#1334,#1119,#1120);
#930=AXIS2_PLACEMENT_3D('',#1336,#1121,#1122);
#931=AXIS2_PLACEMENT_3D('',#1337,#1123,#1124);
#932=AXIS2_PLACEMENT_3D('',#1339,#1125,#1126);
#933=AXIS2_PLACEMENT_3D('',#1340,#1127,#1128);
#934=AXIS2_PLACEMENT_3D('',#1342,#1129,#1130);
#935=AXIS2_PLACEMENT_3D('',#1344,#1131,#1132);
#936=AXIS2_PLACEMENT_3D('',#1345,#1133,#1134);
#937=AXIS2_PLACEMENT_3D('',#1347,#1135,#1136);
#938=AXIS2_PLACEMENT_3D('',#1348,#1137,#1138);
#939=AXIS2_PLACEMENT_3D('',#1349,#1139,#1140);
#940=AXIS2_PLACEMENT_3D('',#1351,#1141,#1142);
#941=AXIS2_PLACEMENT_3D('',#1352,#1143,#1144);
#942=AXIS2_PLACEMENT_3D('',#1354,#1145,#1146);
#943=AXIS2_PLACEMENT_3D('',#1356,#1147,#1148);
#944=AXIS2_PLACEMENT_3D('',#1357,#1149,#1150);
#945=AXIS2_PLACEMENT_3D('',#1358,#1151,#1152);
#946=AXIS2_PLACEMENT_3D('',#1359,#1153,#1154);
#947=AXIS2_PLACEMENT_3D('',#1361,#1155,#1156);
#948=AXIS2_PLACEMENT_3D('',#1362,#1157,#1158);
#949=AXIS2_PLACEMENT_3D('',#1364,#1159,#1160);
#950=AXIS2_PLACEMENT_3D('',#1365,#1161,#1162);
#951=AXIS2_PLACEMENT_3D('',#1367,#1163,#1164);
#952=AXIS2_PLACEMENT_3D('',#1369,#1165,#1166);
#953=AXIS2_PLACEMENT_3D('',#1371,#1167,#1168);
#954=AXIS2_PLACEMENT_3D('',#1373,#1169,#1170);
#955=AXIS2_PLACEMENT_3D('',#1375,#1171,#1172);
#956=AXIS2_PLACEMENT_3D('',#1377,#1173,#1174);
#957=AXIS2_PLACEMENT_3D('',#1379,#1175,#1176);
#958=AXIS2_PLACEMENT_3D('',#1381,#1177,#1178);
#959=AXIS2_PLACEMENT_3D('',#1383,#1179,#1180);
#960=AXIS2_PLACEMENT_3D('',#1385,#1181,#1182);
#961=AXIS2_PLACEMENT_3D('',#1387,#1183,#1184);
#962=AXIS2_PLACEMENT_3D('',#1389,#1185,#1186);
#963=AXIS2_PLACEMENT_3D('',#1391,#1187,#1188);
#964=AXIS2_PLACEMENT_3D('',#1393,#1189,#1190);
#965=AXIS2_PLACEMENT_3D('',#1395,#1191,#1192);
#966=AXIS2_PLACEMENT_3D('',#1396,#1193,#1194);
#967=AXIS2_PLACEMENT_3D('',#1398,#1195,#1196);
#968=AXIS2_PLACEMENT_3D('',#1400,#1197,#1198);
#969=AXIS2_PLACEMENT_3D('',#1401,#1199,#1200);
#970=AXIS2_PLACEMENT_3D('',#1403,#1201,#1202);
#971=AXIS2_PLACEMENT_3D('',#1404,#1203,#1204);
#972=AXIS2_PLACEMENT_3D('',#1406,#1205,#1206);
#973=AXIS2_PLACEMENT_3D('',#1407,#1207,#1208);
#974=AXIS2_PLACEMENT_3D('',#1409,#1209,#1210);
#975=AXIS2_PLACEMENT_3D('',#1410,#1211,#1212);
#976=AXIS2_PLACEMENT_3D('',#1412,#1213,#1214);
#977=AXIS2_PLACEMENT_3D('',#1413,#1215,#1216);
#978=AXIS2_PLACEMENT_3D('',#1415,#1217,#1218);
#979=AXIS2_PLACEMENT_3D('',#1416,#1219,#1220);
#980=AXIS2_PLACEMENT_3D('',#1418,#1221,#1222);
#981=AXIS2_PLACEMENT_3D('',#1419,#1223,#1224);
#982=AXIS2_PLACEMENT_3D('',#1421,#1225,#1226);
#983=AXIS2_PLACEMENT_3D('',#1422,#1227,#1228);
#984=AXIS2_PLACEMENT_3D('',#1424,#1229,#1230);
#985=AXIS2_PLACEMENT_3D('',#1425,#1231,#1232);
#986=AXIS2_PLACEMENT_3D('',#1427,#1233,#1234);
#987=DIRECTION('',(0.,0.,1.));
#988=DIRECTION('',(1.,0.,0.));
#989=DIRECTION('',(6.12303176911189E-17,-1.,0.));
#990=DIRECTION('',(-1.,-6.12303176911189E-17,0.));
#991=DIRECTION('',(6.12303176911189E-17,-1.,0.));
#992=DIRECTION('',(1.,6.12303176911189E-17,0.));
#993=DIRECTION('',(6.12303176911189E-17,-1.,0.));
#994=DIRECTION('',(1.,6.12303176911189E-17,0.));
#995=DIRECTION('',(-6.12303176911189E-17,1.,0.));
#996=DIRECTION('',(1.,6.12303176911189E-17,0.));
#997=DIRECTION('',(6.12303176911189E-17,-1.,0.));
#998=DIRECTION('',(1.,6.12303176911189E-17,0.));
#999=DIRECTION('',(6.12303176911189E-17,-1.,0.));
#1000=DIRECTION('',(-1.,-6.12303176911189E-17,0.));
#1001=DIRECTION('',(6.12303176911189E-17,-1.,0.));
#1002=DIRECTION('',(1.,6.12303176911189E-17,0.));
#1003=DIRECTION('',(-6.12303176911189E-17,1.,0.));
#1004=DIRECTION('',(1.,6.12303176911189E-17,0.));
#1005=DIRECTION('',(6.12303176911189E-17,-1.,0.));
#1006=DIRECTION('',(1.,6.12303176911189E-17,0.));
#1007=DIRECTION('',(-6.12303176911189E-17,1.,0.));
#1008=DIRECTION('',(1.,6.12303176911189E-17,0.));
#1009=DIRECTION('',(6.12303176911189E-17,-1.,0.));
#1010=DIRECTION('',(1.,6.12303176911189E-17,0.));
#1011=DIRECTION('',(-6.12303176911189E-17,1.,0.));
#1012=DIRECTION('',(1.,6.12303176911189E-17,0.));
#1013=DIRECTION('',(6.12303176911189E-17,-1.,0.));
#1014=DIRECTION('',(1.,6.12303176911189E-17,0.));
#1015=DIRECTION('',(6.12303176911189E-17,-1.,0.));
#1016=DIRECTION('',(-1.,-6.12303176911189E-17,0.));
#1017=DIRECTION('',(6.12303176911189E-17,-1.,0.));
#1018=DIRECTION('',(1.,6.12303176911189E-17,0.));
#1019=DIRECTION('',(-6.12303176911189E-17,1.,0.));
#1020=DIRECTION('',(1.,6.12303176911189E-17,0.));
#1021=DIRECTION('',(6.12303176911189E-17,-1.,0.));
#1022=DIRECTION('',(1.,6.12303176911189E-17,0.));
#1023=DIRECTION('',(6.12303176911189E-17,-1.,0.));
#1024=DIRECTION('',(-1.,-6.12303176911189E-17,0.));
#1025=DIRECTION('',(6.12303176911189E-17,-1.,0.));
#1026=DIRECTION('',(1.,6.12303176911189E-17,0.));
#1027=DIRECTION('',(6.12303176911189E-17,-1.,0.));
#1028=DIRECTION('',(-1.,-6.12303176911189E-17,0.));
#1029=DIRECTION('',(6.12303176911189E-17,-1.,0.));
#1030=DIRECTION('',(1.,6.12303176911189E-17,0.));
#1031=DIRECTION('',(-6.12303176911189E-17,1.,0.));
#1032=DIRECTION('',(1.,6.12303176911189E-17,0.));
#1033=DIRECTION('',(-6.12303176911189E-17,-1.,0.));
#1034=DIRECTION('',(1.,-6.12303176911189E-17,0.));
#1035=DIRECTION('',(-6.12303176911189E-17,-1.,0.));
#1036=DIRECTION('',(1.,-6.12303176911189E-17,0.));
#1037=DIRECTION('',(6.12303176911189E-17,-1.,0.));
#1038=DIRECTION('',(1.,6.12303176911189E-17,0.));
#1039=DIRECTION('',(-6.12303176911189E-17,1.,0.));
#1040=DIRECTION('',(1.,6.12303176911189E-17,0.));
#1041=DIRECTION('',(6.12303176911189E-17,-1.,0.));
#1042=DIRECTION('',(1.,6.12303176911189E-17,0.));
#1043=DIRECTION('',(-6.12303176911189E-17,1.,0.));
#1044=DIRECTION('',(1.,6.12303176911189E-17,0.));
#1045=DIRECTION('',(6.12303176911189E-17,-1.,0.));
#1046=DIRECTION('',(1.,6.12303176911189E-17,0.));
#1047=DIRECTION('',(6.12303176911189E-17,-1.,0.));
#1048=DIRECTION('',(-1.,-6.12303176911189E-17,0.));
#1049=DIRECTION('',(6.12303176911189E-17,-1.,0.));
#1050=DIRECTION('',(1.,6.12303176911189E-17,0.));
#1051=DIRECTION('',(-6.12303176911189E-17,-1.,0.));
#1052=DIRECTION('',(1.,-6.12303176911189E-17,0.));
#1053=DIRECTION('',(-6.12303176911189E-17,-1.,0.));
#1054=DIRECTION('',(1.,-6.12303176911189E-17,0.));
#1055=DIRECTION('',(-6.12303176911189E-17,-1.,0.));
#1056=DIRECTION('',(1.,-6.12303176911189E-17,0.));
#1057=DIRECTION('',(-6.12303176911189E-17,-1.,0.));
#1058=DIRECTION('',(1.,-6.12303176911189E-17,0.));
#1059=DIRECTION('',(-6.12303176911189E-17,-1.,0.));
#1060=DIRECTION('',(1.,-6.12303176911189E-17,0.));
#1061=DIRECTION('',(-6.12303176911189E-17,-1.,0.));
#1062=DIRECTION('',(1.,-6.12303176911189E-17,0.));
#1063=DIRECTION('',(-6.12303176911189E-17,-1.,0.));
#1064=DIRECTION('',(1.,-6.12303176911189E-17,0.));
#1065=DIRECTION('',(-6.12303176911189E-17,-1.,0.));
#1066=DIRECTION('',(1.,-6.12303176911189E-17,0.));
#1067=DIRECTION('',(-6.12303176911189E-17,-1.,0.));
#1068=DIRECTION('',(1.,-6.12303176911189E-17,0.));
#1069=DIRECTION('',(-6.12303176911189E-17,-1.,0.));
#1070=DIRECTION('',(1.,-6.12303176911189E-17,0.));
#1071=DIRECTION('',(6.12303176911189E-17,1.,0.));
#1072=DIRECTION('',(-1.,6.12303176911189E-17,0.));
#1073=DIRECTION('',(6.12303176911189E-17,1.,0.));
#1074=DIRECTION('',(-1.,6.12303176911189E-17,0.));
#1075=DIRECTION('',(6.12303176911189E-17,1.,0.));
#1076=DIRECTION('',(-1.,6.12303176911189E-17,0.));
#1077=DIRECTION('',(-6.12303176911189E-17,-1.,0.));
#1078=DIRECTION('',(1.,-6.12303176911189E-17,0.));
#1079=DIRECTION('',(-6.12303176911189E-17,-1.,0.));
#1080=DIRECTION('',(1.,-6.12303176911189E-17,0.));
#1081=DIRECTION('',(-6.12303176911189E-17,-1.,0.));
#1082=DIRECTION('',(1.,-6.12303176911189E-17,0.));
#1083=DIRECTION('',(6.12303176911189E-17,1.,0.));
#1084=DIRECTION('',(-1.,6.12303176911189E-17,0.));
#1085=DIRECTION('',(-6.12303176911189E-17,-1.,0.));
#1086=DIRECTION('',(1.,-6.12303176911189E-17,0.));
#1087=DIRECTION('',(-6.12303176911189E-17,-1.,0.));
#1088=DIRECTION('',(1.,-6.12303176911189E-17,0.));
#1089=DIRECTION('',(-6.12303176911189E-17,-1.,0.));
#1090=DIRECTION('',(1.,-6.12303176911189E-17,0.));
#1091=DIRECTION('',(-6.12303176911189E-17,-1.,0.));
#1092=DIRECTION('',(1.,-6.12303176911189E-17,0.));
#1093=DIRECTION('',(-6.12303176911189E-17,-1.,0.));
#1094=DIRECTION('',(1.,-6.12303176911189E-17,0.));
#1095=DIRECTION('',(6.12303176911189E-17,1.,0.));
#1096=DIRECTION('',(-1.,6.12303176911189E-17,0.));
#1097=DIRECTION('',(-6.12303176911189E-17,-1.,0.));
#1098=DIRECTION('',(1.,-6.12303176911189E-17,0.));
#1099=DIRECTION('',(-6.12303176911189E-17,-1.,0.));
#1100=DIRECTION('',(1.,-6.12303176911189E-17,0.));
#1101=DIRECTION('',(6.12303176911189E-17,-1.,0.));
#1102=DIRECTION('',(1.,6.12303176911189E-17,0.));
#1103=DIRECTION('',(-6.12303176911189E-17,1.,0.));
#1104=DIRECTION('',(1.,6.12303176911189E-17,0.));
#1105=DIRECTION('',(6.12303176911189E-17,-1.,0.));
#1106=DIRECTION('',(1.,6.12303176911189E-17,0.));
#1107=DIRECTION('',(6.12303176911189E-17,-1.,0.));
#1108=DIRECTION('',(1.,6.12303176911189E-17,0.));
#1109=DIRECTION('',(6.12303176911189E-17,-1.,0.));
#1110=DIRECTION('',(-1.,-6.12303176911189E-17,0.));
#1111=DIRECTION('',(-6.12303176911189E-17,1.,0.));
#1112=DIRECTION('',(1.,6.12303176911189E-17,0.));
#1113=DIRECTION('',(6.12303176911189E-17,-1.,0.));
#1114=DIRECTION('',(1.,6.12303176911189E-17,0.));
#1115=DIRECTION('',(-6.12303176911189E-17,-1.,0.));
#1116=DIRECTION('',(1.,-6.12303176911189E-17,0.));
#1117=DIRECTION('',(-6.12303176911189E-17,-1.,0.));
#1118=DIRECTION('',(1.,-6.12303176911189E-17,0.));
#1119=DIRECTION('',(-6.12303176911189E-17,-1.,0.));
#1120=DIRECTION('',(1.,-6.12303176911189E-17,0.));
#1121=DIRECTION('',(-6.12303176911189E-17,-1.,0.));
#1122=DIRECTION('',(1.,-6.12303176911189E-17,0.));
#1123=DIRECTION('',(-6.12303176911189E-17,-1.,0.));
#1124=DIRECTION('',(1.,-6.12303176911189E-17,0.));
#1125=DIRECTION('',(-6.12303176911189E-17,-1.,0.));
#1126=DIRECTION('',(1.,-6.12303176911189E-17,0.));
#1127=DIRECTION('',(-6.12303176911189E-17,-1.,0.));
#1128=DIRECTION('',(1.,-6.12303176911189E-17,0.));
#1129=DIRECTION('',(-6.12303176911189E-17,-1.,0.));
#1130=DIRECTION('',(1.,-6.12303176911189E-17,0.));
#1131=DIRECTION('',(-6.12303176911189E-17,-1.,0.));
#1132=DIRECTION('',(1.,-6.12303176911189E-17,0.));
#1133=DIRECTION('',(-6.12303176911189E-17,-1.,0.));
#1134=DIRECTION('',(1.,-6.12303176911189E-17,0.));
#1135=DIRECTION('',(-6.12303176911189E-17,-1.,0.));
#1136=DIRECTION('',(1.,-6.12303176911189E-17,0.));
#1137=DIRECTION('',(6.12303176911189E-17,1.,0.));
#1138=DIRECTION('',(-1.,6.12303176911189E-17,0.));
#1139=DIRECTION('',(6.12303176911189E-17,1.,0.));
#1140=DIRECTION('',(-1.,6.12303176911189E-17,0.));
#1141=DIRECTION('',(-6.12303176911189E-17,-1.,0.));
#1142=DIRECTION('',(1.,-6.12303176911189E-17,0.));
#1143=DIRECTION('',(6.12303176911189E-17,1.,0.));
#1144=DIRECTION('',(-1.,6.12303176911189E-17,0.));
#1145=DIRECTION('',(-6.12303176911189E-17,-1.,0.));
#1146=DIRECTION('',(1.,-6.12303176911189E-17,0.));
#1147=DIRECTION('',(-6.12303176911189E-17,-1.,0.));
#1148=DIRECTION('',(1.,-6.12303176911189E-17,0.));
#1149=DIRECTION('',(6.12303176911189E-17,1.,0.));
#1150=DIRECTION('',(-1.,6.12303176911189E-17,0.));
#1151=DIRECTION('',(-6.12303176911189E-17,-1.,0.));
#1152=DIRECTION('',(1.,-6.12303176911189E-17,0.));
#1153=DIRECTION('',(-6.12303176911189E-17,-1.,0.));
#1154=DIRECTION('',(1.,-6.12303176911189E-17,0.));
#1155=DIRECTION('',(6.12303176911189E-17,1.,0.));
#1156=DIRECTION('',(-1.,6.12303176911189E-17,0.));
#1157=DIRECTION('',(-6.12303176911189E-17,-1.,0.));
#1158=DIRECTION('',(1.,-6.12303176911189E-17,0.));
#1159=DIRECTION('',(-6.12303176911189E-17,-1.,0.));
#1160=DIRECTION('',(1.,-6.12303176911189E-17,0.));
#1161=DIRECTION('',(-7.49855125712043E-33,-1.22464679914735E-16,1.));
#1162=DIRECTION('',(-6.12303176911189E-17,-1.,-1.22464679914735E-16));
#1163=DIRECTION('',(0.4067366430758,-1.47369293786886E-16,0.913545457642601));
#1164=DIRECTION('',(-1.11041190494991E-16,-1.,-1.11877052057761E-16));
#1165=DIRECTION('',(0.951056516295154,-1.80698172549696E-16,0.309016994374947));
#1166=DIRECTION('',(-1.77701149540028E-16,-1.,-3.78436673043415E-17));
#1167=DIRECTION('',(0.994521895368273,-1.83359571518908E-16,-0.104528463267653));
#1168=DIRECTION('',(-1.8302412327559E-16,-1.,1.28010447960523E-17));
#1169=DIRECTION('',(0.866025403784439,-1.75491690517036E-16,-0.5));
#1170=DIRECTION('',(-1.6728784156361E-16,-1.,6.12323399573676E-17));
#1171=DIRECTION('',(0.20791169081776,-1.35195178795204E-16,-0.978147600733806));
#1172=DIRECTION('',(-8.66921563576472E-17,-1.,1.19788532833232E-16));
#1173=DIRECTION('',(-0.207911690817758,-1.09734181034266E-16,-0.978147600733806));
#1174=DIRECTION('',(-3.57684790245907E-17,-1.,1.19788532833232E-16));
#1175=DIRECTION('',(-0.587785252292473,-8.64744021827127E-17,-0.809016994374948));
#1176=DIRECTION('',(1.07526150894808E-17,-1.,9.90760072617092E-17));
#1177=DIRECTION('',(-0.994521895368273,-6.15697883105622E-17,-0.104528463267654));
#1178=DIRECTION('',(6.05634878933526E-17,-1.,1.28010447960524E-17));
#1179=DIRECTION('',(-0.951056516295154,-6.42311872797743E-17,0.309016994374947));
#1180=DIRECTION('',(5.52405141577904E-17,-1.,-3.78436673043415E-17));
#1181=DIRECTION('',(-0.743144825477394,-7.69616861602434E-17,0.669130606358858));
#1182=DIRECTION('',(2.9778675491262E-17,-1.,-8.19448655288903E-17));
#1183=DIRECTION('',(0.743144825477394,-1.67967673669227E-16,0.669130606358858));
#1184=DIRECTION('',(-1.522393108735E-16,-1.,-8.19448655288903E-17));
#1185=DIRECTION('',(0.587785252292473,-1.58454957646758E-16,-0.809016994374947));
#1186=DIRECTION('',(-1.33213250471719E-16,-1.,9.90760072617091E-17));
#1187=DIRECTION('',(-0.866025403784438,-6.94376693124346E-17,-0.500000000000001));
#1188=DIRECTION('',(4.48272061813718E-17,-1.,6.12323399573677E-17));
#1189=DIRECTION('',(-0.4067366430758,-9.75600660425848E-17,0.913545457642601));
#1190=DIRECTION('',(-1.14194448872471E-17,-1.,-1.11877052057761E-16));
#1191=DIRECTION('',(6.12303176911189E-17,1.,0.));
#1192=DIRECTION('',(-1.,6.12303176911189E-17,0.));
#1193=DIRECTION('',(-6.12303176911189E-17,-1.,0.));
#1194=DIRECTION('',(1.,-6.12303176911189E-17,0.));
#1195=DIRECTION('',(-6.12303176911189E-17,-1.,0.));
#1196=DIRECTION('',(1.,-6.12303176911189E-17,0.));
#1197=DIRECTION('',(-6.12303176911189E-17,-1.,0.));
#1198=DIRECTION('',(1.,-6.12303176911189E-17,0.));
#1199=DIRECTION('',(-6.12303176911189E-17,-1.,0.));
#1200=DIRECTION('',(1.,-6.12303176911189E-17,0.));
#1201=DIRECTION('',(6.12303176911189E-17,1.,0.));
#1202=DIRECTION('',(-1.,6.12303176911189E-17,0.));
#1203=DIRECTION('',(-6.12303176911189E-17,-1.,0.));
#1204=DIRECTION('',(1.,-6.12303176911189E-17,0.));
#1205=DIRECTION('',(-6.12303176911189E-17,-1.,0.));
#1206=DIRECTION('',(1.,-6.12303176911189E-17,0.));
#1207=DIRECTION('',(-6.12303176911189E-17,-1.,0.));
#1208=DIRECTION('',(1.,-6.12303176911189E-17,0.));
#1209=DIRECTION('',(-6.12303176911189E-17,-1.,0.));
#1210=DIRECTION('',(1.,-6.12303176911189E-17,0.));
#1211=DIRECTION('',(-6.12303176911189E-17,-1.,0.));
#1212=DIRECTION('',(1.,-6.12303176911189E-17,0.));
#1213=DIRECTION('',(-6.12303176911189E-17,-1.,0.));
#1214=DIRECTION('',(1.,-6.12303176911189E-17,0.));
#1215=DIRECTION('',(-6.12303176911189E-17,-1.,0.));
#1216=DIRECTION('',(1.,-6.12303176911189E-17,0.));
#1217=DIRECTION('',(6.12303176911189E-17,1.,0.));
#1218=DIRECTION('',(-1.,6.12303176911189E-17,0.));
#1219=DIRECTION('',(-6.12303176911189E-17,-1.,0.));
#1220=DIRECTION('',(1.,-6.12303176911189E-17,0.));
#1221=DIRECTION('',(-6.12303176911189E-17,-1.,0.));
#1222=DIRECTION('',(1.,-6.12303176911189E-17,0.));
#1223=DIRECTION('',(-6.12303176911189E-17,-1.,0.));
#1224=DIRECTION('',(1.,-6.12303176911189E-17,0.));
#1225=DIRECTION('',(6.12303176911189E-17,1.,0.));
#1226=DIRECTION('',(-1.,6.12303176911189E-17,0.));
#1227=DIRECTION('',(-6.12303176911189E-17,-1.,0.));
#1228=DIRECTION('',(1.,-6.12303176911189E-17,0.));
#1229=DIRECTION('',(6.12303176911189E-17,1.,0.));
#1230=DIRECTION('',(-1.,6.12303176911189E-17,0.));
#1231=DIRECTION('',(-6.12303176911189E-17,-1.,0.));
#1232=DIRECTION('',(1.,-6.12303176911189E-17,0.));
#1233=DIRECTION('',(-6.12303176911189E-17,-1.,0.));
#1234=DIRECTION('',(1.,-6.12303176911189E-17,0.));
#1235=CARTESIAN_POINT('',(0.,0.,0.));
#1236=CARTESIAN_POINT('',(1.74792480309295E-16,-2.85467211179679,12.));
#1237=CARTESIAN_POINT('',(1.74792480309295E-16,-2.85467211179679,0.));
#1238=CARTESIAN_POINT('',(11.5625,-2.85467211179679,0.));
#1239=CARTESIAN_POINT('',(1.74792480309295E-16,-2.85467211179679,0.));
#1240=CARTESIAN_POINT('',(12.,-2.85467211179679,0.));
#1241=CARTESIAN_POINT('',(0.,0.,0.));
#1242=CARTESIAN_POINT('',(1.80150133107268E-16,-2.94217211179679,0.));
#1243=CARTESIAN_POINT('',(11.5625,-2.94217211179679,0.));
#1244=CARTESIAN_POINT('',(1.80150133107268E-16,-2.94217211179679,0.));
#1245=CARTESIAN_POINT('',(2.10224757553603E-16,-3.43334422359359,0.));
#1246=CARTESIAN_POINT('',(12.0208176902902,-3.43334422359359,0.));
#1247=CARTESIAN_POINT('',(2.10224757553603E-16,-3.43334422359359,12.0208176902902));
#1248=CARTESIAN_POINT('',(2.10224757553603E-16,-3.43334422359359,0.));
#1249=CARTESIAN_POINT('',(13.9125,-3.43334422359359,0.));
#1250=CARTESIAN_POINT('',(2.10224757553603E-16,-3.43334422359359,0.));
#1251=CARTESIAN_POINT('',(1.95506519938601E-16,-3.19296922359359,0.));
#1252=CARTESIAN_POINT('',(14.874,-3.19296922359359,0.));
#1253=CARTESIAN_POINT('',(0.,0.,0.));
#1254=CARTESIAN_POINT('',(1.68766063136146E-16,-2.75625,0.));
#1255=CARTESIAN_POINT('',(14.874,-2.75625,0.));
#1256=CARTESIAN_POINT('',(1.68766063136146E-16,-2.75625,14.874));
#1257=CARTESIAN_POINT('',(1.68766063136146E-16,-2.75625,0.));
#1258=CARTESIAN_POINT('',(13.9125,-2.75625,0.));
#1259=CARTESIAN_POINT('',(0.,0.,0.));
#1260=CARTESIAN_POINT('',(1.94151799159685E-16,-3.17084422359359,0.));
#1261=CARTESIAN_POINT('',(13.9125,-3.17084422359359,0.));
#1262=CARTESIAN_POINT('',(1.94151799159685E-16,-3.17084422359359,13.9125));
#1263=CARTESIAN_POINT('',(1.94151799159685E-16,-3.17084422359359,0.));
#1264=CARTESIAN_POINT('',(12.4375,-3.17084422359359,0.));
#1265=CARTESIAN_POINT('',(1.94151799159685E-16,-3.17084422359359,0.));
#1266=CARTESIAN_POINT('',(1.55433161458905E-16,-2.5385,0.));
#1267=CARTESIAN_POINT('',(12.,-2.5385,0.));
#1268=CARTESIAN_POINT('',(0.,0.,0.));
#1269=CARTESIAN_POINT('',(0.,0.,0.));
#1270=CARTESIAN_POINT('',(-2.14306111918916E-16,-3.5,0.));
#1271=CARTESIAN_POINT('',(14.,-3.5,0.));
#1272=CARTESIAN_POINT('',(2.08948459120943E-16,-3.4125,0.));
#1273=CARTESIAN_POINT('',(14.,-3.4125,0.));
#1274=CARTESIAN_POINT('',(2.08948459120943E-16,-3.4125,0.));
#1275=CARTESIAN_POINT('',(1.95554327126011E-16,-3.19375,0.));
#1276=CARTESIAN_POINT('',(14.875,-3.19375,0.));
#1277=CARTESIAN_POINT('',(0.,0.,0.));
#1278=CARTESIAN_POINT('',(1.68766063136146E-16,-2.75625,0.));
#1279=CARTESIAN_POINT('',(14.875,-2.75625,0.));
#1280=CARTESIAN_POINT('',(1.68766063136146E-16,-2.75625,0.));
#1281=CARTESIAN_POINT('',(1.55371931141214E-16,-2.5375,0.));
#1282=CARTESIAN_POINT('',(14.,-2.5375,0.));
#1283=CARTESIAN_POINT('',(0.,0.,0.));
#1284=CARTESIAN_POINT('',(2.14306111918916E-16,3.5,0.));
#1285=CARTESIAN_POINT('',(14.,3.5,0.));
#1286=CARTESIAN_POINT('',(2.08948459120943E-16,3.4125,0.));
#1287=CARTESIAN_POINT('',(14.,3.4125,0.));
#1288=CARTESIAN_POINT('',(0.,0.,0.));
#1289=CARTESIAN_POINT('',(8.16404235881582E-17,1.33333333333333,0.));
#1290=CARTESIAN_POINT('',(14.,1.33333333333333,0.));
#1291=CARTESIAN_POINT('',(1.55371931141214E-16,2.5375,0.));
#1292=CARTESIAN_POINT('',(14.,2.5375,0.));
#1293=CARTESIAN_POINT('',(2.14306111918916E-16,3.5,14.));
#1294=CARTESIAN_POINT('',(2.14306111918916E-16,3.5,0.));
#1295=CARTESIAN_POINT('',(15.7,3.5,0.));
#1296=CARTESIAN_POINT('',(0.,0.,0.));
#1297=CARTESIAN_POINT('',(1.9593701661158E-16,3.2,0.));
#1298=CARTESIAN_POINT('',(16.,3.2,0.));
#1299=CARTESIAN_POINT('',(-1.9593701661158E-16,-3.2,0.));
#1300=CARTESIAN_POINT('',(-16.,-3.2,0.));
#1301=CARTESIAN_POINT('',(-2.14306111918916E-16,-3.5,16.));
#1302=CARTESIAN_POINT('',(-2.14306111918916E-16,-3.5,0.));
#1303=CARTESIAN_POINT('',(-15.7,-3.5,0.));
#1304=CARTESIAN_POINT('',(0.,0.,0.));
#1305=CARTESIAN_POINT('',(-8.16404235881584E-17,-1.33333333333333,0.));
#1306=CARTESIAN_POINT('',(14.,-1.33333333333333,0.));
#1307=CARTESIAN_POINT('',(-1.67467644742356E-32,-2.73504451809576E-16,0.));
#1308=CARTESIAN_POINT('',(-1.9593701661158E-16,-3.2,0.));
#1309=CARTESIAN_POINT('',(1.9593701661158E-16,3.2,0.));
#1310=CARTESIAN_POINT('',(2.08948459120943E-16,3.4125,0.));
#1311=CARTESIAN_POINT('',(1.95554327126011E-16,3.19375,0.));
#1312=CARTESIAN_POINT('',(14.875,3.19375,0.));
#1313=CARTESIAN_POINT('',(0.,0.,0.));
#1314=CARTESIAN_POINT('',(1.68766063136146E-16,2.75625,0.));
#1315=CARTESIAN_POINT('',(14.875,2.75625,0.));
#1316=CARTESIAN_POINT('',(1.68766063136146E-16,2.75625,0.));
#1317=CARTESIAN_POINT('',(0.,0.,0.));
#1318=CARTESIAN_POINT('',(-2.14306111918916E-16,-3.5,0.));
#1319=CARTESIAN_POINT('',(12.,-3.5,0.));
#1320=CARTESIAN_POINT('',(2.08948459120943E-16,-3.4125,0.));
#1321=CARTESIAN_POINT('',(12.,-3.4125,0.));
#1322=CARTESIAN_POINT('',(0.,0.,0.));
#1323=CARTESIAN_POINT('',(1.68766063136146E-16,-2.75625,0.));
#1324=CARTESIAN_POINT('',(11.125,-2.75625,0.));
#1325=CARTESIAN_POINT('',(1.95554327126011E-16,-3.19375,0.));
#1326=CARTESIAN_POINT('',(11.125,-3.19375,0.));
#1327=CARTESIAN_POINT('',(2.08948459120943E-16,-3.4125,0.));
#1328=CARTESIAN_POINT('',(1.68766063136146E-16,-2.75625,0.));
#1329=CARTESIAN_POINT('',(1.55371931141214E-16,-2.5375,0.));
#1330=CARTESIAN_POINT('',(12.,-2.5375,0.));
#1331=CARTESIAN_POINT('',(0.,0.,0.));
#1332=CARTESIAN_POINT('',(2.08948459120943E-16,3.4125,0.));
#1333=CARTESIAN_POINT('',(12.,3.4125,0.));
#1334=CARTESIAN_POINT('',(2.14306111918916E-16,3.5,0.));
#1335=CARTESIAN_POINT('',(12.,3.5,0.));
#1336=CARTESIAN_POINT('',(2.14306111918916E-16,3.5,10.));
#1337=CARTESIAN_POINT('',(2.14306111918916E-16,3.5,0.));
#1338=CARTESIAN_POINT('',(10.3,3.5,0.));
#1339=CARTESIAN_POINT('',(0.,0.,0.));
#1340=CARTESIAN_POINT('',(1.55371931141214E-16,2.5375,0.));
#1341=CARTESIAN_POINT('',(12.,2.5375,0.));
#1342=CARTESIAN_POINT('',(8.16404235881584E-17,1.33333333333333,0.));
#1343=CARTESIAN_POINT('',(12.,1.33333333333333,0.));
#1344=CARTESIAN_POINT('',(-1.67467644742356E-32,-2.73504451809576E-16,0.));
#1345=CARTESIAN_POINT('',(-8.16404235881584E-17,-1.33333333333333,0.));
#1346=CARTESIAN_POINT('',(12.,-1.33333333333333,0.));
#1347=CARTESIAN_POINT('',(0.,0.,0.));
#1348=CARTESIAN_POINT('',(-2.14306111918916E-16,-3.5,12.));
#1349=CARTESIAN_POINT('',(-2.14306111918916E-16,-3.5,0.));
#1350=CARTESIAN_POINT('',(-10.3,-3.5,0.));
#1351=CARTESIAN_POINT('',(0.,0.,0.));
#1352=CARTESIAN_POINT('',(-1.9593701661158E-16,-3.2,0.));
#1353=CARTESIAN_POINT('',(-10.,-3.2,0.));
#1354=CARTESIAN_POINT('',(1.9593701661158E-16,3.2,0.));
#1355=CARTESIAN_POINT('',(10.,3.2,0.));
#1356=CARTESIAN_POINT('',(1.9593701661158E-16,3.2,0.));
#1357=CARTESIAN_POINT('',(-1.9593701661158E-16,-3.2,0.));
#1358=CARTESIAN_POINT('',(1.68766063136146E-16,2.75625,0.));
#1359=CARTESIAN_POINT('',(1.68766063136146E-16,2.75625,0.));
#1360=CARTESIAN_POINT('',(11.125,2.75625,0.));
#1361=CARTESIAN_POINT('',(2.08948459120943E-16,3.4125,0.));
#1362=CARTESIAN_POINT('',(1.95554327126011E-16,3.19375,0.));
#1363=CARTESIAN_POINT('',(11.125,3.19375,0.));
#1364=CARTESIAN_POINT('',(0.,0.,0.));
#1365=CARTESIAN_POINT('',(-1.67467644742356E-32,-2.73504451809576E-16,13.));
#1366=CARTESIAN_POINT('',(-1.05017210355972E-32,-1.71511784220587E-16,11.3343333333333));
#1367=CARTESIAN_POINT('',(5.2875763599854,-5.97264432147532E-16,11.8760909493538));
#1368=CARTESIAN_POINT('',(4.61008869150214,-4.53788979385498E-16,10.3544287320738));
#1369=CARTESIAN_POINT('',(12.363734711837,-1.03053985606407E-15,4.01722092687431));
#1370=CARTESIAN_POINT('',(10.779591574528,-8.31549600909447E-16,3.50250161991044));
#1371=CARTESIAN_POINT('',(12.9287846397876,-1.06513804266383E-15,-1.35887002247949));
#1372=CARTESIAN_POINT('',(11.2722426694025,-8.61714783959486E-16,-1.18476044549667));
#1373=CARTESIAN_POINT('',(11.2583302491977,-9.62855589639484E-16,-6.49999999999999));
#1374=CARTESIAN_POINT('',(9.81582060162742,-7.72537598057263E-16,-5.66716666666666));
#1375=CARTESIAN_POINT('',(2.70285198063087,-4.39000937255674E-16,-12.7159188095395));
#1376=CARTESIAN_POINT('',(2.35654040762542,-3.1580350203145E-16,-11.0866509559172));
#1377=CARTESIAN_POINT('',(-2.70285198063086,-1.08007966363478E-16,-12.7159188095395));
#1378=CARTESIAN_POINT('',(-2.35654040762541,-2.72200664097241E-17,-11.0866509559172));
#1379=CARTESIAN_POINT('',(-7.64120827980215,1.94369158706718E-16,-10.5172209268743));
#1380=CARTESIAN_POINT('',(-6.66215397790032,2.36414020353401E-16,-9.16966828657711));
#1381=CARTESIAN_POINT('',(-12.9287846397876,5.18129139044674E-16,-1.3588700224795));
#1382=CARTESIAN_POINT('',(-11.2722426694025,5.18691215518312E-16,-1.18476044549668));
#1383=CARTESIAN_POINT('',(-12.363734711837,4.83530952444918E-16,4.01722092687431));
#1384=CARTESIAN_POINT('',(-10.779591574528,4.88526032468273E-16,3.50250161991044));
#1385=CARTESIAN_POINT('',(-9.66088273120612,3.18034466998819E-16,8.69869788266516));
#1386=CARTESIAN_POINT('',(-8.42305116690261,3.44234314657409E-16,7.58414933600675));
#1387=CARTESIAN_POINT('',(9.66088273120612,-8.65043370617971E-16,8.69869788266516));
#1388=CARTESIAN_POINT('',(8.42305116690261,-6.87257883098583E-16,7.58414933600675));
#1389=CARTESIAN_POINT('',(7.64120827980215,-7.41378062325869E-16,-10.5172209268743));
#1390=CARTESIAN_POINT('',(6.66215397790032,-5.79437588794575E-16,-9.16966828657711));
#1391=CARTESIAN_POINT('',(-11.2583302491977,4.15846686020333E-16,-6.50000000000001));
#1392=CARTESIAN_POINT('',(-9.81582060162742,4.29514029616089E-16,-5.66716666666667));
#1393=CARTESIAN_POINT('',(-5.2875763599854,5.02555285283803E-17,11.8760909493538));
#1394=CARTESIAN_POINT('',(-4.61008869150214,1.10765410944324E-16,10.3544287320738));
#1395=CARTESIAN_POINT('',(1.74792480309295E-16,2.85467211179679,12.));
#1396=CARTESIAN_POINT('',(1.74792480309295E-16,2.85467211179679,0.));
#1397=CARTESIAN_POINT('',(11.5625,2.85467211179679,0.));
#1398=CARTESIAN_POINT('',(1.74792480309295E-16,2.85467211179679,0.));
#1399=CARTESIAN_POINT('',(12.,2.85467211179679,0.));
#1400=CARTESIAN_POINT('',(0.,0.,0.));
#1401=CARTESIAN_POINT('',(1.80150133107268E-16,2.94217211179679,0.));
#1402=CARTESIAN_POINT('',(11.5625,2.94217211179679,0.));
#1403=CARTESIAN_POINT('',(1.80150133107268E-16,2.94217211179679,0.));
#1404=CARTESIAN_POINT('',(2.10224757553603E-16,3.43334422359359,0.));
#1405=CARTESIAN_POINT('',(12.0208176902902,3.43334422359359,0.));
#1406=CARTESIAN_POINT('',(2.10224757553603E-16,3.43334422359359,12.0208176902902));
#1407=CARTESIAN_POINT('',(2.10224757553603E-16,3.43334422359359,0.));
#1408=CARTESIAN_POINT('',(13.9125,3.43334422359359,0.));
#1409=CARTESIAN_POINT('',(2.10224757553603E-16,3.43334422359359,0.));
#1410=CARTESIAN_POINT('',(1.95506519938601E-16,3.19296922359359,0.));
#1411=CARTESIAN_POINT('',(14.874,3.19296922359359,0.));
#1412=CARTESIAN_POINT('',(0.,0.,0.));
#1413=CARTESIAN_POINT('',(1.68766063136146E-16,2.75625,0.));
#1414=CARTESIAN_POINT('',(14.874,2.75625,0.));
#1415=CARTESIAN_POINT('',(1.68766063136146E-16,2.75625,14.874));
#1416=CARTESIAN_POINT('',(1.68766063136146E-16,2.75625,0.));
#1417=CARTESIAN_POINT('',(13.9125,2.75625,0.));
#1418=CARTESIAN_POINT('',(0.,0.,0.));
#1419=CARTESIAN_POINT('',(1.94151799159685E-16,3.17084422359359,0.));
#1420=CARTESIAN_POINT('',(13.9125,3.17084422359359,0.));
#1421=CARTESIAN_POINT('',(1.94151799159685E-16,3.17084422359359,13.9125));
#1422=CARTESIAN_POINT('',(1.94151799159685E-16,3.17084422359359,0.));
#1423=CARTESIAN_POINT('',(12.4375,3.17084422359359,0.));
#1424=CARTESIAN_POINT('',(1.94151799159685E-16,3.17084422359359,0.));
#1425=CARTESIAN_POINT('',(1.55433161458905E-16,2.5385,0.));
#1426=CARTESIAN_POINT('',(12.,2.5385,0.));
#1427=CARTESIAN_POINT('',(0.,0.,0.));
#1428=MECHANICAL_DESIGN_GEOMETRIC_PRESENTATION_REPRESENTATION('',(#708,
#709,#710,#711,#712,#713,#714,#715,#716,#717,#718,#719,#720,#721,#722,#723,
#724,#725,#726),#1429);
#1429=(
GEOMETRIC_REPRESENTATION_CONTEXT(3)
GLOBAL_UNCERTAINTY_ASSIGNED_CONTEXT((#1430))
GLOBAL_UNIT_ASSIGNED_CONTEXT((#1433,#1432,#1431))
REPRESENTATION_CONTEXT('\X2\6DF16C9F74038F74627F\X0\60000-2RZ\X2\578B\X0\',
'TOP_LEVEL_ASSEMBLY_PART')
);
#1430=UNCERTAINTY_MEASURE_WITH_UNIT(LENGTH_MEASURE(0.005),#1433,
'DISTANCE_ACCURACY_VALUE','Maximum Tolerance applied to model');
#1431=(
NAMED_UNIT(*)
SI_UNIT($,.STERADIAN.)
SOLID_ANGLE_UNIT()
);
#1432=(
NAMED_UNIT(*)
PLANE_ANGLE_UNIT()
SI_UNIT($,.RADIAN.)
);
#1433=(
LENGTH_UNIT()
NAMED_UNIT(*)
SI_UNIT(.MILLI.,.METRE.)
);
#1434=PRODUCT_DEFINITION_SHAPE('','',#1435);
#1435=PRODUCT_DEFINITION('','',#1437,#1436);
#1436=PRODUCT_DEFINITION_CONTEXT('',#1443,'design');
#1437=PRODUCT_DEFINITION_FORMATION_WITH_SPECIFIED_SOURCE('','',#1439,
 .NOT_KNOWN.);
#1438=PRODUCT_RELATED_PRODUCT_CATEGORY('','',(#1439));
#1439=PRODUCT('\X2\6DF16C9F74038F74627F\X0\60000-2RZ\X2\578B\X0\',
'\X2\6DF16C9F74038F74627F\X0\60000-2RZ\X2\578B\X0\',
'\X2\6DF16C9F74038F74627F\X0\60000-2RZ\X2\578B\X0\',(#1441));
#1440=PRODUCT_CATEGORY('','');
#1441=PRODUCT_CONTEXT('',#1443,'mechanical');
#1442=APPLICATION_PROTOCOL_DEFINITION('international standard',
'automotive_design',2010,#1443);
#1443=APPLICATION_CONTEXT(
'core data for automotive mechanical design processes');
ENDSEC;
END-ISO-10303-21;
