ISO-10303-21;
HEADER;
/* Generated by software containing HOOPS Exchange Step
 * from HOOPS Exchange, Inc. (www.tiangong.cloud) 
 */

FILE_DESCRIPTION(
/* description */ ('Unknown'),
/* implementation_level */ '2;1');

FILE_NAME(
/* name */ '\X2\63A8529B570667F16EDA5B508F74627F\X0\1 GBT4663-2017',
/* time_stamp */ '2025-04-21T01:43:28+08:00',
/* author */ ('Unknown'),
/* organization */ ('Unknown'),
/* preprocessor_version */ 'ST-DEVELOPER v19.4',
/* originating_system */ 'TianGong',
/* authorisation */ 'Unknown');

FILE_SCHEMA (('AUTOMOTIVE_DESIGN {1 0 10303 214 3 1 1}'));
ENDSEC;

DATA;
#10=PROPERTY_DEFINITION_REPRESENTATION(#14,#12);
#11=PROPERTY_DEFINITION_REPRESENTATION(#15,#13);
#12=REPRESENTATION('',(#16),#1817);
#13=REPRESENTATION('',(#17),#1817);
#14=PROPERTY_DEFINITION('pmi validation property','',#1822);
#15=PROPERTY_DEFINITION('pmi validation property','',#1822);
#16=VALUE_REPRESENTATION_ITEM('number of annotations',COUNT_MEASURE(0.));
#17=VALUE_REPRESENTATION_ITEM('number of views',COUNT_MEASURE(0.));
#18=SHAPE_REPRESENTATION_RELATIONSHIP('','',#1087,#19);
#19=ADVANCED_BREP_SHAPE_REPRESENTATION('',(#1085),#1817);
#20=TOROIDAL_SURFACE('',#1197,12.7,0.3);
#21=TOROIDAL_SURFACE('',#1198,6.8,0.3);
#22=TOROIDAL_SURFACE('',#1199,12.7,0.3);
#23=TOROIDAL_SURFACE('',#1200,6.3,0.3);
#24=CYLINDRICAL_SURFACE('',#1095,1.81000000000001);
#25=CYLINDRICAL_SURFACE('',#1096,1.81000000000001);
#26=CYLINDRICAL_SURFACE('',#1103,1.81000000000001);
#27=CYLINDRICAL_SURFACE('',#1104,1.81000000000001);
#28=CYLINDRICAL_SURFACE('',#1111,1.81000000000001);
#29=CYLINDRICAL_SURFACE('',#1112,1.81000000000001);
#30=CYLINDRICAL_SURFACE('',#1119,1.81000000000001);
#31=CYLINDRICAL_SURFACE('',#1120,1.81000000000001);
#32=CYLINDRICAL_SURFACE('',#1127,1.81000000000001);
#33=CYLINDRICAL_SURFACE('',#1128,1.81000000000001);
#34=CYLINDRICAL_SURFACE('',#1135,1.81000000000001);
#35=CYLINDRICAL_SURFACE('',#1136,1.81000000000001);
#36=CYLINDRICAL_SURFACE('',#1143,1.81000000000001);
#37=CYLINDRICAL_SURFACE('',#1144,1.81000000000001);
#38=CYLINDRICAL_SURFACE('',#1151,1.81000000000001);
#39=CYLINDRICAL_SURFACE('',#1152,1.81000000000001);
#40=CYLINDRICAL_SURFACE('',#1159,1.81000000000001);
#41=CYLINDRICAL_SURFACE('',#1160,1.81000000000001);
#42=CYLINDRICAL_SURFACE('',#1167,1.81000000000001);
#43=CYLINDRICAL_SURFACE('',#1168,1.81000000000001);
#44=CYLINDRICAL_SURFACE('',#1169,6.);
#45=CYLINDRICAL_SURFACE('',#1175,13.);
#46=CYLINDRICAL_SURFACE('',#1185,1.81000000000001);
#47=CYLINDRICAL_SURFACE('',#1186,1.81000000000001);
#48=CYLINDRICAL_SURFACE('',#1190,6.5);
#49=CYLINDRICAL_SURFACE('',#1195,13.);
#50=LINE('',#1520,#138);
#51=LINE('',#1524,#139);
#52=LINE('',#1529,#140);
#53=LINE('',#1533,#141);
#54=LINE('',#1535,#142);
#55=LINE('',#1536,#143);
#56=LINE('',#1538,#144);
#57=LINE('',#1539,#145);
#58=LINE('',#1544,#146);
#59=LINE('',#1548,#147);
#60=LINE('',#1553,#148);
#61=LINE('',#1557,#149);
#62=LINE('',#1559,#150);
#63=LINE('',#1560,#151);
#64=LINE('',#1562,#152);
#65=LINE('',#1563,#153);
#66=LINE('',#1568,#154);
#67=LINE('',#1572,#155);
#68=LINE('',#1577,#156);
#69=LINE('',#1581,#157);
#70=LINE('',#1583,#158);
#71=LINE('',#1584,#159);
#72=LINE('',#1586,#160);
#73=LINE('',#1587,#161);
#74=LINE('',#1592,#162);
#75=LINE('',#1596,#163);
#76=LINE('',#1601,#164);
#77=LINE('',#1605,#165);
#78=LINE('',#1607,#166);
#79=LINE('',#1608,#167);
#80=LINE('',#1610,#168);
#81=LINE('',#1611,#169);
#82=LINE('',#1616,#170);
#83=LINE('',#1620,#171);
#84=LINE('',#1625,#172);
#85=LINE('',#1629,#173);
#86=LINE('',#1631,#174);
#87=LINE('',#1632,#175);
#88=LINE('',#1634,#176);
#89=LINE('',#1635,#177);
#90=LINE('',#1640,#178);
#91=LINE('',#1644,#179);
#92=LINE('',#1649,#180);
#93=LINE('',#1653,#181);
#94=LINE('',#1655,#182);
#95=LINE('',#1656,#183);
#96=LINE('',#1658,#184);
#97=LINE('',#1659,#185);
#98=LINE('',#1664,#186);
#99=LINE('',#1668,#187);
#100=LINE('',#1673,#188);
#101=LINE('',#1677,#189);
#102=LINE('',#1679,#190);
#103=LINE('',#1680,#191);
#104=LINE('',#1682,#192);
#105=LINE('',#1683,#193);
#106=LINE('',#1688,#194);
#107=LINE('',#1692,#195);
#108=LINE('',#1697,#196);
#109=LINE('',#1701,#197);
#110=LINE('',#1703,#198);
#111=LINE('',#1704,#199);
#112=LINE('',#1706,#200);
#113=LINE('',#1707,#201);
#114=LINE('',#1712,#202);
#115=LINE('',#1716,#203);
#116=LINE('',#1721,#204);
#117=LINE('',#1725,#205);
#118=LINE('',#1727,#206);
#119=LINE('',#1728,#207);
#120=LINE('',#1730,#208);
#121=LINE('',#1731,#209);
#122=LINE('',#1736,#210);
#123=LINE('',#1740,#211);
#124=LINE('',#1745,#212);
#125=LINE('',#1749,#213);
#126=LINE('',#1751,#214);
#127=LINE('',#1752,#215);
#128=LINE('',#1754,#216);
#129=LINE('',#1755,#217);
#130=LINE('',#1772,#218);
#131=LINE('',#1775,#219);
#132=LINE('',#1777,#220);
#133=LINE('',#1779,#221);
#134=LINE('',#1783,#222);
#135=LINE('',#1789,#223);
#136=LINE('',#1793,#224);
#137=LINE('',#1795,#225);
#138=VECTOR('',#1207,1000.);
#139=VECTOR('',#1210,1000.);
#140=VECTOR('',#1215,1000.);
#141=VECTOR('',#1218,1000.);
#142=VECTOR('',#1221,1000.);
#143=VECTOR('',#1222,1000.);
#144=VECTOR('',#1225,1000.);
#145=VECTOR('',#1226,1000.);
#146=VECTOR('',#1231,1000.);
#147=VECTOR('',#1234,1000.);
#148=VECTOR('',#1239,1000.);
#149=VECTOR('',#1242,1000.);
#150=VECTOR('',#1245,1000.);
#151=VECTOR('',#1246,1000.);
#152=VECTOR('',#1249,1000.);
#153=VECTOR('',#1250,1000.);
#154=VECTOR('',#1255,1000.);
#155=VECTOR('',#1258,1000.);
#156=VECTOR('',#1263,1000.);
#157=VECTOR('',#1266,1000.);
#158=VECTOR('',#1269,1000.);
#159=VECTOR('',#1270,1000.);
#160=VECTOR('',#1273,1000.);
#161=VECTOR('',#1274,1000.);
#162=VECTOR('',#1279,1000.);
#163=VECTOR('',#1282,1000.);
#164=VECTOR('',#1287,1000.);
#165=VECTOR('',#1290,1000.);
#166=VECTOR('',#1293,1000.);
#167=VECTOR('',#1294,1000.);
#168=VECTOR('',#1297,1000.);
#169=VECTOR('',#1298,1000.);
#170=VECTOR('',#1303,1000.);
#171=VECTOR('',#1306,1000.);
#172=VECTOR('',#1311,1000.);
#173=VECTOR('',#1314,1000.);
#174=VECTOR('',#1317,1000.);
#175=VECTOR('',#1318,1000.);
#176=VECTOR('',#1321,1000.);
#177=VECTOR('',#1322,1000.);
#178=VECTOR('',#1327,1000.);
#179=VECTOR('',#1330,1000.);
#180=VECTOR('',#1335,1000.);
#181=VECTOR('',#1338,1000.);
#182=VECTOR('',#1341,1000.);
#183=VECTOR('',#1342,1000.);
#184=VECTOR('',#1345,1000.);
#185=VECTOR('',#1346,1000.);
#186=VECTOR('',#1351,1000.);
#187=VECTOR('',#1354,1000.);
#188=VECTOR('',#1359,1000.);
#189=VECTOR('',#1362,1000.);
#190=VECTOR('',#1365,1000.);
#191=VECTOR('',#1366,1000.);
#192=VECTOR('',#1369,1000.);
#193=VECTOR('',#1370,1000.);
#194=VECTOR('',#1375,1000.);
#195=VECTOR('',#1378,1000.);
#196=VECTOR('',#1383,1000.);
#197=VECTOR('',#1386,1000.);
#198=VECTOR('',#1389,1000.);
#199=VECTOR('',#1390,1000.);
#200=VECTOR('',#1393,1000.);
#201=VECTOR('',#1394,1000.);
#202=VECTOR('',#1399,1000.);
#203=VECTOR('',#1402,1000.);
#204=VECTOR('',#1407,1000.);
#205=VECTOR('',#1410,1000.);
#206=VECTOR('',#1413,1000.);
#207=VECTOR('',#1414,1000.);
#208=VECTOR('',#1417,1000.);
#209=VECTOR('',#1418,1000.);
#210=VECTOR('',#1423,1000.);
#211=VECTOR('',#1426,1000.);
#212=VECTOR('',#1431,1000.);
#213=VECTOR('',#1434,1000.);
#214=VECTOR('',#1437,1000.);
#215=VECTOR('',#1438,1000.);
#216=VECTOR('',#1441,1000.);
#217=VECTOR('',#1442,1000.);
#218=VECTOR('',#1463,1000.);
#219=VECTOR('',#1464,1000.);
#220=VECTOR('',#1465,1000.);
#221=VECTOR('',#1466,1000.);
#222=VECTOR('',#1471,1000.);
#223=VECTOR('',#1478,1000.);
#224=VECTOR('',#1483,1000.);
#225=VECTOR('',#1486,1000.);
#226=ORIENTED_EDGE('',*,*,#514,.F.);
#227=ORIENTED_EDGE('',*,*,#515,.T.);
#228=ORIENTED_EDGE('',*,*,#516,.F.);
#229=ORIENTED_EDGE('',*,*,#517,.F.);
#230=ORIENTED_EDGE('',*,*,#518,.T.);
#231=ORIENTED_EDGE('',*,*,#519,.T.);
#232=ORIENTED_EDGE('',*,*,#520,.T.);
#233=ORIENTED_EDGE('',*,*,#521,.F.);
#234=ORIENTED_EDGE('',*,*,#516,.T.);
#235=ORIENTED_EDGE('',*,*,#522,.T.);
#236=ORIENTED_EDGE('',*,*,#518,.F.);
#237=ORIENTED_EDGE('',*,*,#523,.F.);
#238=ORIENTED_EDGE('',*,*,#520,.F.);
#239=ORIENTED_EDGE('',*,*,#524,.T.);
#240=ORIENTED_EDGE('',*,*,#514,.T.);
#241=ORIENTED_EDGE('',*,*,#525,.F.);
#242=ORIENTED_EDGE('',*,*,#526,.F.);
#243=ORIENTED_EDGE('',*,*,#527,.T.);
#244=ORIENTED_EDGE('',*,*,#528,.F.);
#245=ORIENTED_EDGE('',*,*,#529,.F.);
#246=ORIENTED_EDGE('',*,*,#530,.T.);
#247=ORIENTED_EDGE('',*,*,#531,.T.);
#248=ORIENTED_EDGE('',*,*,#532,.T.);
#249=ORIENTED_EDGE('',*,*,#533,.F.);
#250=ORIENTED_EDGE('',*,*,#528,.T.);
#251=ORIENTED_EDGE('',*,*,#534,.T.);
#252=ORIENTED_EDGE('',*,*,#530,.F.);
#253=ORIENTED_EDGE('',*,*,#535,.F.);
#254=ORIENTED_EDGE('',*,*,#532,.F.);
#255=ORIENTED_EDGE('',*,*,#536,.T.);
#256=ORIENTED_EDGE('',*,*,#526,.T.);
#257=ORIENTED_EDGE('',*,*,#537,.F.);
#258=ORIENTED_EDGE('',*,*,#538,.F.);
#259=ORIENTED_EDGE('',*,*,#539,.T.);
#260=ORIENTED_EDGE('',*,*,#540,.F.);
#261=ORIENTED_EDGE('',*,*,#541,.F.);
#262=ORIENTED_EDGE('',*,*,#542,.T.);
#263=ORIENTED_EDGE('',*,*,#543,.T.);
#264=ORIENTED_EDGE('',*,*,#544,.T.);
#265=ORIENTED_EDGE('',*,*,#545,.F.);
#266=ORIENTED_EDGE('',*,*,#540,.T.);
#267=ORIENTED_EDGE('',*,*,#546,.T.);
#268=ORIENTED_EDGE('',*,*,#542,.F.);
#269=ORIENTED_EDGE('',*,*,#547,.F.);
#270=ORIENTED_EDGE('',*,*,#544,.F.);
#271=ORIENTED_EDGE('',*,*,#548,.T.);
#272=ORIENTED_EDGE('',*,*,#538,.T.);
#273=ORIENTED_EDGE('',*,*,#549,.F.);
#274=ORIENTED_EDGE('',*,*,#550,.F.);
#275=ORIENTED_EDGE('',*,*,#551,.T.);
#276=ORIENTED_EDGE('',*,*,#552,.F.);
#277=ORIENTED_EDGE('',*,*,#553,.F.);
#278=ORIENTED_EDGE('',*,*,#554,.T.);
#279=ORIENTED_EDGE('',*,*,#555,.T.);
#280=ORIENTED_EDGE('',*,*,#556,.T.);
#281=ORIENTED_EDGE('',*,*,#557,.F.);
#282=ORIENTED_EDGE('',*,*,#552,.T.);
#283=ORIENTED_EDGE('',*,*,#558,.T.);
#284=ORIENTED_EDGE('',*,*,#554,.F.);
#285=ORIENTED_EDGE('',*,*,#559,.F.);
#286=ORIENTED_EDGE('',*,*,#556,.F.);
#287=ORIENTED_EDGE('',*,*,#560,.T.);
#288=ORIENTED_EDGE('',*,*,#550,.T.);
#289=ORIENTED_EDGE('',*,*,#561,.F.);
#290=ORIENTED_EDGE('',*,*,#562,.F.);
#291=ORIENTED_EDGE('',*,*,#563,.T.);
#292=ORIENTED_EDGE('',*,*,#564,.F.);
#293=ORIENTED_EDGE('',*,*,#565,.F.);
#294=ORIENTED_EDGE('',*,*,#566,.T.);
#295=ORIENTED_EDGE('',*,*,#567,.T.);
#296=ORIENTED_EDGE('',*,*,#568,.T.);
#297=ORIENTED_EDGE('',*,*,#569,.F.);
#298=ORIENTED_EDGE('',*,*,#564,.T.);
#299=ORIENTED_EDGE('',*,*,#570,.T.);
#300=ORIENTED_EDGE('',*,*,#566,.F.);
#301=ORIENTED_EDGE('',*,*,#571,.F.);
#302=ORIENTED_EDGE('',*,*,#568,.F.);
#303=ORIENTED_EDGE('',*,*,#572,.T.);
#304=ORIENTED_EDGE('',*,*,#562,.T.);
#305=ORIENTED_EDGE('',*,*,#573,.F.);
#306=ORIENTED_EDGE('',*,*,#574,.F.);
#307=ORIENTED_EDGE('',*,*,#575,.T.);
#308=ORIENTED_EDGE('',*,*,#576,.F.);
#309=ORIENTED_EDGE('',*,*,#577,.F.);
#310=ORIENTED_EDGE('',*,*,#578,.T.);
#311=ORIENTED_EDGE('',*,*,#579,.T.);
#312=ORIENTED_EDGE('',*,*,#580,.T.);
#313=ORIENTED_EDGE('',*,*,#581,.F.);
#314=ORIENTED_EDGE('',*,*,#576,.T.);
#315=ORIENTED_EDGE('',*,*,#582,.T.);
#316=ORIENTED_EDGE('',*,*,#578,.F.);
#317=ORIENTED_EDGE('',*,*,#583,.F.);
#318=ORIENTED_EDGE('',*,*,#580,.F.);
#319=ORIENTED_EDGE('',*,*,#584,.T.);
#320=ORIENTED_EDGE('',*,*,#574,.T.);
#321=ORIENTED_EDGE('',*,*,#585,.F.);
#322=ORIENTED_EDGE('',*,*,#586,.F.);
#323=ORIENTED_EDGE('',*,*,#587,.T.);
#324=ORIENTED_EDGE('',*,*,#588,.F.);
#325=ORIENTED_EDGE('',*,*,#589,.F.);
#326=ORIENTED_EDGE('',*,*,#590,.T.);
#327=ORIENTED_EDGE('',*,*,#591,.T.);
#328=ORIENTED_EDGE('',*,*,#592,.T.);
#329=ORIENTED_EDGE('',*,*,#593,.F.);
#330=ORIENTED_EDGE('',*,*,#588,.T.);
#331=ORIENTED_EDGE('',*,*,#594,.T.);
#332=ORIENTED_EDGE('',*,*,#590,.F.);
#333=ORIENTED_EDGE('',*,*,#595,.F.);
#334=ORIENTED_EDGE('',*,*,#592,.F.);
#335=ORIENTED_EDGE('',*,*,#596,.T.);
#336=ORIENTED_EDGE('',*,*,#586,.T.);
#337=ORIENTED_EDGE('',*,*,#597,.F.);
#338=ORIENTED_EDGE('',*,*,#598,.F.);
#339=ORIENTED_EDGE('',*,*,#599,.T.);
#340=ORIENTED_EDGE('',*,*,#600,.F.);
#341=ORIENTED_EDGE('',*,*,#601,.F.);
#342=ORIENTED_EDGE('',*,*,#602,.T.);
#343=ORIENTED_EDGE('',*,*,#603,.T.);
#344=ORIENTED_EDGE('',*,*,#604,.T.);
#345=ORIENTED_EDGE('',*,*,#605,.F.);
#346=ORIENTED_EDGE('',*,*,#600,.T.);
#347=ORIENTED_EDGE('',*,*,#606,.T.);
#348=ORIENTED_EDGE('',*,*,#602,.F.);
#349=ORIENTED_EDGE('',*,*,#607,.F.);
#350=ORIENTED_EDGE('',*,*,#604,.F.);
#351=ORIENTED_EDGE('',*,*,#608,.T.);
#352=ORIENTED_EDGE('',*,*,#598,.T.);
#353=ORIENTED_EDGE('',*,*,#609,.F.);
#354=ORIENTED_EDGE('',*,*,#610,.F.);
#355=ORIENTED_EDGE('',*,*,#611,.T.);
#356=ORIENTED_EDGE('',*,*,#612,.F.);
#357=ORIENTED_EDGE('',*,*,#613,.F.);
#358=ORIENTED_EDGE('',*,*,#614,.T.);
#359=ORIENTED_EDGE('',*,*,#615,.T.);
#360=ORIENTED_EDGE('',*,*,#616,.T.);
#361=ORIENTED_EDGE('',*,*,#617,.F.);
#362=ORIENTED_EDGE('',*,*,#612,.T.);
#363=ORIENTED_EDGE('',*,*,#618,.T.);
#364=ORIENTED_EDGE('',*,*,#614,.F.);
#365=ORIENTED_EDGE('',*,*,#619,.F.);
#366=ORIENTED_EDGE('',*,*,#616,.F.);
#367=ORIENTED_EDGE('',*,*,#620,.T.);
#368=ORIENTED_EDGE('',*,*,#610,.T.);
#369=ORIENTED_EDGE('',*,*,#621,.F.);
#370=ORIENTED_EDGE('',*,*,#622,.F.);
#371=ORIENTED_EDGE('',*,*,#623,.T.);
#372=ORIENTED_EDGE('',*,*,#624,.F.);
#373=ORIENTED_EDGE('',*,*,#625,.F.);
#374=ORIENTED_EDGE('',*,*,#626,.T.);
#375=ORIENTED_EDGE('',*,*,#627,.T.);
#376=ORIENTED_EDGE('',*,*,#628,.T.);
#377=ORIENTED_EDGE('',*,*,#629,.F.);
#378=ORIENTED_EDGE('',*,*,#624,.T.);
#379=ORIENTED_EDGE('',*,*,#630,.T.);
#380=ORIENTED_EDGE('',*,*,#626,.F.);
#381=ORIENTED_EDGE('',*,*,#631,.F.);
#382=ORIENTED_EDGE('',*,*,#628,.F.);
#383=ORIENTED_EDGE('',*,*,#632,.T.);
#384=ORIENTED_EDGE('',*,*,#622,.T.);
#385=ORIENTED_EDGE('',*,*,#633,.F.);
#386=ORIENTED_EDGE('',*,*,#634,.T.);
#387=ORIENTED_EDGE('',*,*,#635,.T.);
#388=ORIENTED_EDGE('',*,*,#636,.T.);
#389=ORIENTED_EDGE('',*,*,#637,.T.);
#390=ORIENTED_EDGE('',*,*,#638,.T.);
#391=ORIENTED_EDGE('',*,*,#639,.F.);
#392=ORIENTED_EDGE('',*,*,#517,.T.);
#393=ORIENTED_EDGE('',*,*,#523,.T.);
#394=ORIENTED_EDGE('',*,*,#521,.T.);
#395=ORIENTED_EDGE('',*,*,#525,.T.);
#396=ORIENTED_EDGE('',*,*,#529,.T.);
#397=ORIENTED_EDGE('',*,*,#535,.T.);
#398=ORIENTED_EDGE('',*,*,#533,.T.);
#399=ORIENTED_EDGE('',*,*,#537,.T.);
#400=ORIENTED_EDGE('',*,*,#541,.T.);
#401=ORIENTED_EDGE('',*,*,#547,.T.);
#402=ORIENTED_EDGE('',*,*,#545,.T.);
#403=ORIENTED_EDGE('',*,*,#549,.T.);
#404=ORIENTED_EDGE('',*,*,#553,.T.);
#405=ORIENTED_EDGE('',*,*,#559,.T.);
#406=ORIENTED_EDGE('',*,*,#557,.T.);
#407=ORIENTED_EDGE('',*,*,#561,.T.);
#408=ORIENTED_EDGE('',*,*,#565,.T.);
#409=ORIENTED_EDGE('',*,*,#571,.T.);
#410=ORIENTED_EDGE('',*,*,#569,.T.);
#411=ORIENTED_EDGE('',*,*,#573,.T.);
#412=ORIENTED_EDGE('',*,*,#577,.T.);
#413=ORIENTED_EDGE('',*,*,#583,.T.);
#414=ORIENTED_EDGE('',*,*,#581,.T.);
#415=ORIENTED_EDGE('',*,*,#585,.T.);
#416=ORIENTED_EDGE('',*,*,#589,.T.);
#417=ORIENTED_EDGE('',*,*,#595,.T.);
#418=ORIENTED_EDGE('',*,*,#593,.T.);
#419=ORIENTED_EDGE('',*,*,#597,.T.);
#420=ORIENTED_EDGE('',*,*,#601,.T.);
#421=ORIENTED_EDGE('',*,*,#607,.T.);
#422=ORIENTED_EDGE('',*,*,#605,.T.);
#423=ORIENTED_EDGE('',*,*,#609,.T.);
#424=ORIENTED_EDGE('',*,*,#613,.T.);
#425=ORIENTED_EDGE('',*,*,#619,.T.);
#426=ORIENTED_EDGE('',*,*,#617,.T.);
#427=ORIENTED_EDGE('',*,*,#621,.T.);
#428=ORIENTED_EDGE('',*,*,#625,.T.);
#429=ORIENTED_EDGE('',*,*,#631,.T.);
#430=ORIENTED_EDGE('',*,*,#629,.T.);
#431=ORIENTED_EDGE('',*,*,#633,.T.);
#432=ORIENTED_EDGE('',*,*,#640,.T.);
#433=ORIENTED_EDGE('',*,*,#641,.T.);
#434=ORIENTED_EDGE('',*,*,#642,.T.);
#435=ORIENTED_EDGE('',*,*,#643,.T.);
#436=ORIENTED_EDGE('',*,*,#635,.F.);
#437=ORIENTED_EDGE('',*,*,#639,.T.);
#438=ORIENTED_EDGE('',*,*,#644,.F.);
#439=ORIENTED_EDGE('',*,*,#645,.T.);
#440=ORIENTED_EDGE('',*,*,#646,.F.);
#441=ORIENTED_EDGE('',*,*,#640,.F.);
#442=ORIENTED_EDGE('',*,*,#647,.T.);
#443=ORIENTED_EDGE('',*,*,#648,.T.);
#444=ORIENTED_EDGE('',*,*,#649,.T.);
#445=ORIENTED_EDGE('',*,*,#642,.F.);
#446=ORIENTED_EDGE('',*,*,#646,.T.);
#447=ORIENTED_EDGE('',*,*,#650,.T.);
#448=ORIENTED_EDGE('',*,*,#647,.F.);
#449=ORIENTED_EDGE('',*,*,#641,.F.);
#450=ORIENTED_EDGE('',*,*,#649,.F.);
#451=ORIENTED_EDGE('',*,*,#651,.T.);
#452=ORIENTED_EDGE('',*,*,#644,.T.);
#453=ORIENTED_EDGE('',*,*,#643,.F.);
#454=ORIENTED_EDGE('',*,*,#522,.F.);
#455=ORIENTED_EDGE('',*,*,#515,.F.);
#456=ORIENTED_EDGE('',*,*,#524,.F.);
#457=ORIENTED_EDGE('',*,*,#519,.F.);
#458=ORIENTED_EDGE('',*,*,#534,.F.);
#459=ORIENTED_EDGE('',*,*,#527,.F.);
#460=ORIENTED_EDGE('',*,*,#536,.F.);
#461=ORIENTED_EDGE('',*,*,#531,.F.);
#462=ORIENTED_EDGE('',*,*,#546,.F.);
#463=ORIENTED_EDGE('',*,*,#539,.F.);
#464=ORIENTED_EDGE('',*,*,#548,.F.);
#465=ORIENTED_EDGE('',*,*,#543,.F.);
#466=ORIENTED_EDGE('',*,*,#558,.F.);
#467=ORIENTED_EDGE('',*,*,#551,.F.);
#468=ORIENTED_EDGE('',*,*,#560,.F.);
#469=ORIENTED_EDGE('',*,*,#555,.F.);
#470=ORIENTED_EDGE('',*,*,#570,.F.);
#471=ORIENTED_EDGE('',*,*,#563,.F.);
#472=ORIENTED_EDGE('',*,*,#572,.F.);
#473=ORIENTED_EDGE('',*,*,#567,.F.);
#474=ORIENTED_EDGE('',*,*,#582,.F.);
#475=ORIENTED_EDGE('',*,*,#575,.F.);
#476=ORIENTED_EDGE('',*,*,#584,.F.);
#477=ORIENTED_EDGE('',*,*,#579,.F.);
#478=ORIENTED_EDGE('',*,*,#594,.F.);
#479=ORIENTED_EDGE('',*,*,#587,.F.);
#480=ORIENTED_EDGE('',*,*,#596,.F.);
#481=ORIENTED_EDGE('',*,*,#591,.F.);
#482=ORIENTED_EDGE('',*,*,#606,.F.);
#483=ORIENTED_EDGE('',*,*,#599,.F.);
#484=ORIENTED_EDGE('',*,*,#608,.F.);
#485=ORIENTED_EDGE('',*,*,#603,.F.);
#486=ORIENTED_EDGE('',*,*,#618,.F.);
#487=ORIENTED_EDGE('',*,*,#611,.F.);
#488=ORIENTED_EDGE('',*,*,#620,.F.);
#489=ORIENTED_EDGE('',*,*,#615,.F.);
#490=ORIENTED_EDGE('',*,*,#630,.F.);
#491=ORIENTED_EDGE('',*,*,#623,.F.);
#492=ORIENTED_EDGE('',*,*,#632,.F.);
#493=ORIENTED_EDGE('',*,*,#627,.F.);
#494=ORIENTED_EDGE('',*,*,#650,.F.);
#495=ORIENTED_EDGE('',*,*,#645,.F.);
#496=ORIENTED_EDGE('',*,*,#651,.F.);
#497=ORIENTED_EDGE('',*,*,#648,.F.);
#498=ORIENTED_EDGE('',*,*,#652,.T.);
#499=ORIENTED_EDGE('',*,*,#653,.F.);
#500=ORIENTED_EDGE('',*,*,#654,.T.);
#501=ORIENTED_EDGE('',*,*,#652,.F.);
#502=ORIENTED_EDGE('',*,*,#655,.T.);
#503=ORIENTED_EDGE('',*,*,#656,.T.);
#504=ORIENTED_EDGE('',*,*,#657,.T.);
#505=ORIENTED_EDGE('',*,*,#653,.T.);
#506=ORIENTED_EDGE('',*,*,#637,.F.);
#507=ORIENTED_EDGE('',*,*,#638,.F.);
#508=ORIENTED_EDGE('',*,*,#656,.F.);
#509=ORIENTED_EDGE('',*,*,#654,.F.);
#510=ORIENTED_EDGE('',*,*,#657,.F.);
#511=ORIENTED_EDGE('',*,*,#655,.F.);
#512=ORIENTED_EDGE('',*,*,#634,.F.);
#513=ORIENTED_EDGE('',*,*,#636,.F.);
#514=EDGE_CURVE('',#658,#659,#758,.T.);
#515=EDGE_CURVE('',#658,#660,#50,.T.);
#516=EDGE_CURVE('',#661,#660,#759,.T.);
#517=EDGE_CURVE('',#659,#661,#51,.T.);
#518=EDGE_CURVE('',#662,#663,#760,.T.);
#519=EDGE_CURVE('',#663,#664,#52,.T.);
#520=EDGE_CURVE('',#664,#665,#761,.T.);
#521=EDGE_CURVE('',#662,#665,#53,.T.);
#522=EDGE_CURVE('',#660,#663,#54,.T.);
#523=EDGE_CURVE('',#661,#662,#55,.T.);
#524=EDGE_CURVE('',#664,#658,#56,.F.);
#525=EDGE_CURVE('',#665,#659,#57,.F.);
#526=EDGE_CURVE('',#666,#667,#762,.T.);
#527=EDGE_CURVE('',#666,#668,#58,.T.);
#528=EDGE_CURVE('',#669,#668,#763,.T.);
#529=EDGE_CURVE('',#667,#669,#59,.T.);
#530=EDGE_CURVE('',#670,#671,#764,.T.);
#531=EDGE_CURVE('',#671,#672,#60,.T.);
#532=EDGE_CURVE('',#672,#673,#765,.T.);
#533=EDGE_CURVE('',#670,#673,#61,.T.);
#534=EDGE_CURVE('',#668,#671,#62,.T.);
#535=EDGE_CURVE('',#669,#670,#63,.T.);
#536=EDGE_CURVE('',#672,#666,#64,.F.);
#537=EDGE_CURVE('',#673,#667,#65,.F.);
#538=EDGE_CURVE('',#674,#675,#766,.T.);
#539=EDGE_CURVE('',#674,#676,#66,.T.);
#540=EDGE_CURVE('',#677,#676,#767,.T.);
#541=EDGE_CURVE('',#675,#677,#67,.T.);
#542=EDGE_CURVE('',#678,#679,#768,.T.);
#543=EDGE_CURVE('',#679,#680,#68,.T.);
#544=EDGE_CURVE('',#680,#681,#769,.T.);
#545=EDGE_CURVE('',#678,#681,#69,.T.);
#546=EDGE_CURVE('',#676,#679,#70,.T.);
#547=EDGE_CURVE('',#677,#678,#71,.T.);
#548=EDGE_CURVE('',#680,#674,#72,.F.);
#549=EDGE_CURVE('',#681,#675,#73,.F.);
#550=EDGE_CURVE('',#682,#683,#770,.T.);
#551=EDGE_CURVE('',#682,#684,#74,.T.);
#552=EDGE_CURVE('',#685,#684,#771,.T.);
#553=EDGE_CURVE('',#683,#685,#75,.T.);
#554=EDGE_CURVE('',#686,#687,#772,.T.);
#555=EDGE_CURVE('',#687,#688,#76,.T.);
#556=EDGE_CURVE('',#688,#689,#773,.T.);
#557=EDGE_CURVE('',#686,#689,#77,.T.);
#558=EDGE_CURVE('',#684,#687,#78,.T.);
#559=EDGE_CURVE('',#685,#686,#79,.T.);
#560=EDGE_CURVE('',#688,#682,#80,.F.);
#561=EDGE_CURVE('',#689,#683,#81,.F.);
#562=EDGE_CURVE('',#690,#691,#774,.T.);
#563=EDGE_CURVE('',#690,#692,#82,.T.);
#564=EDGE_CURVE('',#693,#692,#775,.T.);
#565=EDGE_CURVE('',#691,#693,#83,.T.);
#566=EDGE_CURVE('',#694,#695,#776,.T.);
#567=EDGE_CURVE('',#695,#696,#84,.T.);
#568=EDGE_CURVE('',#696,#697,#777,.T.);
#569=EDGE_CURVE('',#694,#697,#85,.T.);
#570=EDGE_CURVE('',#692,#695,#86,.T.);
#571=EDGE_CURVE('',#693,#694,#87,.T.);
#572=EDGE_CURVE('',#696,#690,#88,.F.);
#573=EDGE_CURVE('',#697,#691,#89,.F.);
#574=EDGE_CURVE('',#698,#699,#778,.T.);
#575=EDGE_CURVE('',#698,#700,#90,.T.);
#576=EDGE_CURVE('',#701,#700,#779,.T.);
#577=EDGE_CURVE('',#699,#701,#91,.T.);
#578=EDGE_CURVE('',#702,#703,#780,.T.);
#579=EDGE_CURVE('',#703,#704,#92,.T.);
#580=EDGE_CURVE('',#704,#705,#781,.T.);
#581=EDGE_CURVE('',#702,#705,#93,.T.);
#582=EDGE_CURVE('',#700,#703,#94,.T.);
#583=EDGE_CURVE('',#701,#702,#95,.T.);
#584=EDGE_CURVE('',#704,#698,#96,.F.);
#585=EDGE_CURVE('',#705,#699,#97,.F.);
#586=EDGE_CURVE('',#706,#707,#782,.T.);
#587=EDGE_CURVE('',#706,#708,#98,.T.);
#588=EDGE_CURVE('',#709,#708,#783,.T.);
#589=EDGE_CURVE('',#707,#709,#99,.T.);
#590=EDGE_CURVE('',#710,#711,#784,.T.);
#591=EDGE_CURVE('',#711,#712,#100,.T.);
#592=EDGE_CURVE('',#712,#713,#785,.T.);
#593=EDGE_CURVE('',#710,#713,#101,.T.);
#594=EDGE_CURVE('',#708,#711,#102,.T.);
#595=EDGE_CURVE('',#709,#710,#103,.T.);
#596=EDGE_CURVE('',#712,#706,#104,.F.);
#597=EDGE_CURVE('',#713,#707,#105,.F.);
#598=EDGE_CURVE('',#714,#715,#786,.T.);
#599=EDGE_CURVE('',#714,#716,#106,.T.);
#600=EDGE_CURVE('',#717,#716,#787,.T.);
#601=EDGE_CURVE('',#715,#717,#107,.T.);
#602=EDGE_CURVE('',#718,#719,#788,.T.);
#603=EDGE_CURVE('',#719,#720,#108,.T.);
#604=EDGE_CURVE('',#720,#721,#789,.T.);
#605=EDGE_CURVE('',#718,#721,#109,.T.);
#606=EDGE_CURVE('',#716,#719,#110,.T.);
#607=EDGE_CURVE('',#717,#718,#111,.T.);
#608=EDGE_CURVE('',#720,#714,#112,.F.);
#609=EDGE_CURVE('',#721,#715,#113,.F.);
#610=EDGE_CURVE('',#722,#723,#790,.T.);
#611=EDGE_CURVE('',#722,#724,#114,.T.);
#612=EDGE_CURVE('',#725,#724,#791,.T.);
#613=EDGE_CURVE('',#723,#725,#115,.T.);
#614=EDGE_CURVE('',#726,#727,#792,.T.);
#615=EDGE_CURVE('',#727,#728,#116,.T.);
#616=EDGE_CURVE('',#728,#729,#793,.T.);
#617=EDGE_CURVE('',#726,#729,#117,.T.);
#618=EDGE_CURVE('',#724,#727,#118,.T.);
#619=EDGE_CURVE('',#725,#726,#119,.T.);
#620=EDGE_CURVE('',#728,#722,#120,.F.);
#621=EDGE_CURVE('',#729,#723,#121,.F.);
#622=EDGE_CURVE('',#730,#731,#794,.T.);
#623=EDGE_CURVE('',#730,#732,#122,.T.);
#624=EDGE_CURVE('',#733,#732,#795,.T.);
#625=EDGE_CURVE('',#731,#733,#123,.T.);
#626=EDGE_CURVE('',#734,#735,#796,.T.);
#627=EDGE_CURVE('',#735,#736,#124,.T.);
#628=EDGE_CURVE('',#736,#737,#797,.T.);
#629=EDGE_CURVE('',#734,#737,#125,.T.);
#630=EDGE_CURVE('',#732,#735,#126,.T.);
#631=EDGE_CURVE('',#733,#734,#127,.T.);
#632=EDGE_CURVE('',#736,#730,#128,.F.);
#633=EDGE_CURVE('',#737,#731,#129,.F.);
#634=EDGE_CURVE('',#738,#738,#798,.F.);
#635=EDGE_CURVE('',#739,#739,#799,.T.);
#636=EDGE_CURVE('',#740,#740,#800,.T.);
#637=EDGE_CURVE('',#741,#741,#801,.F.);
#638=EDGE_CURVE('',#742,#742,#802,.T.);
#639=EDGE_CURVE('',#743,#743,#803,.T.);
#640=EDGE_CURVE('',#744,#745,#130,.T.);
#641=EDGE_CURVE('',#745,#746,#131,.T.);
#642=EDGE_CURVE('',#746,#747,#132,.T.);
#643=EDGE_CURVE('',#747,#744,#133,.F.);
#644=EDGE_CURVE('',#748,#744,#804,.T.);
#645=EDGE_CURVE('',#748,#749,#134,.T.);
#646=EDGE_CURVE('',#745,#749,#805,.T.);
#647=EDGE_CURVE('',#746,#750,#806,.T.);
#648=EDGE_CURVE('',#750,#751,#135,.T.);
#649=EDGE_CURVE('',#751,#747,#807,.T.);
#650=EDGE_CURVE('',#749,#750,#136,.T.);
#651=EDGE_CURVE('',#751,#748,#137,.F.);
#652=EDGE_CURVE('',#752,#752,#808,.T.);
#653=EDGE_CURVE('',#753,#753,#809,.T.);
#654=EDGE_CURVE('',#754,#754,#810,.T.);
#655=EDGE_CURVE('',#755,#755,#811,.T.);
#656=EDGE_CURVE('',#756,#756,#812,.F.);
#657=EDGE_CURVE('',#757,#757,#813,.F.);
#658=VERTEX_POINT('',#1518);
#659=VERTEX_POINT('',#1519);
#660=VERTEX_POINT('',#1521);
#661=VERTEX_POINT('',#1523);
#662=VERTEX_POINT('',#1527);
#663=VERTEX_POINT('',#1528);
#664=VERTEX_POINT('',#1530);
#665=VERTEX_POINT('',#1532);
#666=VERTEX_POINT('',#1542);
#667=VERTEX_POINT('',#1543);
#668=VERTEX_POINT('',#1545);
#669=VERTEX_POINT('',#1547);
#670=VERTEX_POINT('',#1551);
#671=VERTEX_POINT('',#1552);
#672=VERTEX_POINT('',#1554);
#673=VERTEX_POINT('',#1556);
#674=VERTEX_POINT('',#1566);
#675=VERTEX_POINT('',#1567);
#676=VERTEX_POINT('',#1569);
#677=VERTEX_POINT('',#1571);
#678=VERTEX_POINT('',#1575);
#679=VERTEX_POINT('',#1576);
#680=VERTEX_POINT('',#1578);
#681=VERTEX_POINT('',#1580);
#682=VERTEX_POINT('',#1590);
#683=VERTEX_POINT('',#1591);
#684=VERTEX_POINT('',#1593);
#685=VERTEX_POINT('',#1595);
#686=VERTEX_POINT('',#1599);
#687=VERTEX_POINT('',#1600);
#688=VERTEX_POINT('',#1602);
#689=VERTEX_POINT('',#1604);
#690=VERTEX_POINT('',#1614);
#691=VERTEX_POINT('',#1615);
#692=VERTEX_POINT('',#1617);
#693=VERTEX_POINT('',#1619);
#694=VERTEX_POINT('',#1623);
#695=VERTEX_POINT('',#1624);
#696=VERTEX_POINT('',#1626);
#697=VERTEX_POINT('',#1628);
#698=VERTEX_POINT('',#1638);
#699=VERTEX_POINT('',#1639);
#700=VERTEX_POINT('',#1641);
#701=VERTEX_POINT('',#1643);
#702=VERTEX_POINT('',#1647);
#703=VERTEX_POINT('',#1648);
#704=VERTEX_POINT('',#1650);
#705=VERTEX_POINT('',#1652);
#706=VERTEX_POINT('',#1662);
#707=VERTEX_POINT('',#1663);
#708=VERTEX_POINT('',#1665);
#709=VERTEX_POINT('',#1667);
#710=VERTEX_POINT('',#1671);
#711=VERTEX_POINT('',#1672);
#712=VERTEX_POINT('',#1674);
#713=VERTEX_POINT('',#1676);
#714=VERTEX_POINT('',#1686);
#715=VERTEX_POINT('',#1687);
#716=VERTEX_POINT('',#1689);
#717=VERTEX_POINT('',#1691);
#718=VERTEX_POINT('',#1695);
#719=VERTEX_POINT('',#1696);
#720=VERTEX_POINT('',#1698);
#721=VERTEX_POINT('',#1700);
#722=VERTEX_POINT('',#1710);
#723=VERTEX_POINT('',#1711);
#724=VERTEX_POINT('',#1713);
#725=VERTEX_POINT('',#1715);
#726=VERTEX_POINT('',#1719);
#727=VERTEX_POINT('',#1720);
#728=VERTEX_POINT('',#1722);
#729=VERTEX_POINT('',#1724);
#730=VERTEX_POINT('',#1734);
#731=VERTEX_POINT('',#1735);
#732=VERTEX_POINT('',#1737);
#733=VERTEX_POINT('',#1739);
#734=VERTEX_POINT('',#1743);
#735=VERTEX_POINT('',#1744);
#736=VERTEX_POINT('',#1746);
#737=VERTEX_POINT('',#1748);
#738=VERTEX_POINT('',#1758);
#739=VERTEX_POINT('',#1760);
#740=VERTEX_POINT('',#1763);
#741=VERTEX_POINT('',#1765);
#742=VERTEX_POINT('',#1768);
#743=VERTEX_POINT('',#1770);
#744=VERTEX_POINT('',#1773);
#745=VERTEX_POINT('',#1774);
#746=VERTEX_POINT('',#1776);
#747=VERTEX_POINT('',#1778);
#748=VERTEX_POINT('',#1782);
#749=VERTEX_POINT('',#1784);
#750=VERTEX_POINT('',#1788);
#751=VERTEX_POINT('',#1790);
#752=VERTEX_POINT('',#1798);
#753=VERTEX_POINT('',#1800);
#754=VERTEX_POINT('',#1803);
#755=VERTEX_POINT('',#1806);
#756=VERTEX_POINT('',#1808);
#757=VERTEX_POINT('',#1811);
#758=CIRCLE('',#1090,1.81000000000001);
#759=CIRCLE('',#1091,1.81000000000001);
#760=CIRCLE('',#1093,1.81000000000001);
#761=CIRCLE('',#1094,1.81000000000001);
#762=CIRCLE('',#1098,1.81000000000001);
#763=CIRCLE('',#1099,1.81000000000001);
#764=CIRCLE('',#1101,1.81000000000001);
#765=CIRCLE('',#1102,1.81000000000001);
#766=CIRCLE('',#1106,1.81000000000001);
#767=CIRCLE('',#1107,1.81000000000001);
#768=CIRCLE('',#1109,1.81000000000001);
#769=CIRCLE('',#1110,1.81000000000001);
#770=CIRCLE('',#1114,1.81000000000001);
#771=CIRCLE('',#1115,1.81000000000001);
#772=CIRCLE('',#1117,1.81000000000001);
#773=CIRCLE('',#1118,1.81000000000001);
#774=CIRCLE('',#1122,1.81000000000001);
#775=CIRCLE('',#1123,1.81000000000001);
#776=CIRCLE('',#1125,1.81000000000001);
#777=CIRCLE('',#1126,1.81000000000001);
#778=CIRCLE('',#1130,1.81000000000001);
#779=CIRCLE('',#1131,1.81000000000001);
#780=CIRCLE('',#1133,1.81000000000001);
#781=CIRCLE('',#1134,1.81000000000001);
#782=CIRCLE('',#1138,1.81000000000001);
#783=CIRCLE('',#1139,1.81000000000001);
#784=CIRCLE('',#1141,1.81000000000001);
#785=CIRCLE('',#1142,1.81000000000001);
#786=CIRCLE('',#1146,1.81000000000001);
#787=CIRCLE('',#1147,1.81000000000001);
#788=CIRCLE('',#1149,1.81000000000001);
#789=CIRCLE('',#1150,1.81000000000001);
#790=CIRCLE('',#1154,1.81000000000001);
#791=CIRCLE('',#1155,1.81000000000001);
#792=CIRCLE('',#1157,1.81000000000001);
#793=CIRCLE('',#1158,1.81000000000001);
#794=CIRCLE('',#1162,1.81000000000001);
#795=CIRCLE('',#1163,1.81000000000001);
#796=CIRCLE('',#1165,1.81000000000001);
#797=CIRCLE('',#1166,1.81000000000001);
#798=CIRCLE('',#1170,6.);
#799=CIRCLE('',#1171,6.);
#800=CIRCLE('',#1173,6.3);
#801=CIRCLE('',#1174,12.7);
#802=CIRCLE('',#1176,13.);
#803=CIRCLE('',#1177,13.);
#804=CIRCLE('',#1180,1.81000000000001);
#805=CIRCLE('',#1181,1.81000000000001);
#806=CIRCLE('',#1183,1.81000000000001);
#807=CIRCLE('',#1184,1.81000000000001);
#808=CIRCLE('',#1188,6.5);
#809=CIRCLE('',#1189,13.);
#810=CIRCLE('',#1191,6.5);
#811=CIRCLE('',#1193,12.7);
#812=CIRCLE('',#1194,6.8);
#813=CIRCLE('',#1196,13.);
#814=EDGE_LOOP('',(#226,#227,#228,#229));
#815=EDGE_LOOP('',(#230,#231,#232,#233));
#816=EDGE_LOOP('',(#234,#235,#236,#237));
#817=EDGE_LOOP('',(#238,#239,#240,#241));
#818=EDGE_LOOP('',(#242,#243,#244,#245));
#819=EDGE_LOOP('',(#246,#247,#248,#249));
#820=EDGE_LOOP('',(#250,#251,#252,#253));
#821=EDGE_LOOP('',(#254,#255,#256,#257));
#822=EDGE_LOOP('',(#258,#259,#260,#261));
#823=EDGE_LOOP('',(#262,#263,#264,#265));
#824=EDGE_LOOP('',(#266,#267,#268,#269));
#825=EDGE_LOOP('',(#270,#271,#272,#273));
#826=EDGE_LOOP('',(#274,#275,#276,#277));
#827=EDGE_LOOP('',(#278,#279,#280,#281));
#828=EDGE_LOOP('',(#282,#283,#284,#285));
#829=EDGE_LOOP('',(#286,#287,#288,#289));
#830=EDGE_LOOP('',(#290,#291,#292,#293));
#831=EDGE_LOOP('',(#294,#295,#296,#297));
#832=EDGE_LOOP('',(#298,#299,#300,#301));
#833=EDGE_LOOP('',(#302,#303,#304,#305));
#834=EDGE_LOOP('',(#306,#307,#308,#309));
#835=EDGE_LOOP('',(#310,#311,#312,#313));
#836=EDGE_LOOP('',(#314,#315,#316,#317));
#837=EDGE_LOOP('',(#318,#319,#320,#321));
#838=EDGE_LOOP('',(#322,#323,#324,#325));
#839=EDGE_LOOP('',(#326,#327,#328,#329));
#840=EDGE_LOOP('',(#330,#331,#332,#333));
#841=EDGE_LOOP('',(#334,#335,#336,#337));
#842=EDGE_LOOP('',(#338,#339,#340,#341));
#843=EDGE_LOOP('',(#342,#343,#344,#345));
#844=EDGE_LOOP('',(#346,#347,#348,#349));
#845=EDGE_LOOP('',(#350,#351,#352,#353));
#846=EDGE_LOOP('',(#354,#355,#356,#357));
#847=EDGE_LOOP('',(#358,#359,#360,#361));
#848=EDGE_LOOP('',(#362,#363,#364,#365));
#849=EDGE_LOOP('',(#366,#367,#368,#369));
#850=EDGE_LOOP('',(#370,#371,#372,#373));
#851=EDGE_LOOP('',(#374,#375,#376,#377));
#852=EDGE_LOOP('',(#378,#379,#380,#381));
#853=EDGE_LOOP('',(#382,#383,#384,#385));
#854=EDGE_LOOP('',(#386));
#855=EDGE_LOOP('',(#387));
#856=EDGE_LOOP('',(#388));
#857=EDGE_LOOP('',(#389));
#858=EDGE_LOOP('',(#390));
#859=EDGE_LOOP('',(#391));
#860=EDGE_LOOP('',(#392,#393,#394,#395));
#861=EDGE_LOOP('',(#396,#397,#398,#399));
#862=EDGE_LOOP('',(#400,#401,#402,#403));
#863=EDGE_LOOP('',(#404,#405,#406,#407));
#864=EDGE_LOOP('',(#408,#409,#410,#411));
#865=EDGE_LOOP('',(#412,#413,#414,#415));
#866=EDGE_LOOP('',(#416,#417,#418,#419));
#867=EDGE_LOOP('',(#420,#421,#422,#423));
#868=EDGE_LOOP('',(#424,#425,#426,#427));
#869=EDGE_LOOP('',(#428,#429,#430,#431));
#870=EDGE_LOOP('',(#432,#433,#434,#435));
#871=EDGE_LOOP('',(#436));
#872=EDGE_LOOP('',(#437));
#873=EDGE_LOOP('',(#438,#439,#440,#441));
#874=EDGE_LOOP('',(#442,#443,#444,#445));
#875=EDGE_LOOP('',(#446,#447,#448,#449));
#876=EDGE_LOOP('',(#450,#451,#452,#453));
#877=EDGE_LOOP('',(#454,#455,#456,#457));
#878=EDGE_LOOP('',(#458,#459,#460,#461));
#879=EDGE_LOOP('',(#462,#463,#464,#465));
#880=EDGE_LOOP('',(#466,#467,#468,#469));
#881=EDGE_LOOP('',(#470,#471,#472,#473));
#882=EDGE_LOOP('',(#474,#475,#476,#477));
#883=EDGE_LOOP('',(#478,#479,#480,#481));
#884=EDGE_LOOP('',(#482,#483,#484,#485));
#885=EDGE_LOOP('',(#486,#487,#488,#489));
#886=EDGE_LOOP('',(#490,#491,#492,#493));
#887=EDGE_LOOP('',(#494,#495,#496,#497));
#888=EDGE_LOOP('',(#498));
#889=EDGE_LOOP('',(#499));
#890=EDGE_LOOP('',(#500));
#891=EDGE_LOOP('',(#501));
#892=EDGE_LOOP('',(#502));
#893=EDGE_LOOP('',(#503));
#894=EDGE_LOOP('',(#504));
#895=EDGE_LOOP('',(#505));
#896=EDGE_LOOP('',(#506));
#897=EDGE_LOOP('',(#507));
#898=EDGE_LOOP('',(#508));
#899=EDGE_LOOP('',(#509));
#900=EDGE_LOOP('',(#510));
#901=EDGE_LOOP('',(#511));
#902=EDGE_LOOP('',(#512));
#903=EDGE_LOOP('',(#513));
#904=FACE_BOUND('',#814,.T.);
#905=FACE_BOUND('',#815,.T.);
#906=FACE_BOUND('',#816,.T.);
#907=FACE_BOUND('',#817,.T.);
#908=FACE_BOUND('',#818,.T.);
#909=FACE_BOUND('',#819,.T.);
#910=FACE_BOUND('',#820,.T.);
#911=FACE_BOUND('',#821,.T.);
#912=FACE_BOUND('',#822,.T.);
#913=FACE_BOUND('',#823,.T.);
#914=FACE_BOUND('',#824,.T.);
#915=FACE_BOUND('',#825,.T.);
#916=FACE_BOUND('',#826,.T.);
#917=FACE_BOUND('',#827,.T.);
#918=FACE_BOUND('',#828,.T.);
#919=FACE_BOUND('',#829,.T.);
#920=FACE_BOUND('',#830,.T.);
#921=FACE_BOUND('',#831,.T.);
#922=FACE_BOUND('',#832,.T.);
#923=FACE_BOUND('',#833,.T.);
#924=FACE_BOUND('',#834,.T.);
#925=FACE_BOUND('',#835,.T.);
#926=FACE_BOUND('',#836,.T.);
#927=FACE_BOUND('',#837,.T.);
#928=FACE_BOUND('',#838,.T.);
#929=FACE_BOUND('',#839,.T.);
#930=FACE_BOUND('',#840,.T.);
#931=FACE_BOUND('',#841,.T.);
#932=FACE_BOUND('',#842,.T.);
#933=FACE_BOUND('',#843,.T.);
#934=FACE_BOUND('',#844,.T.);
#935=FACE_BOUND('',#845,.T.);
#936=FACE_BOUND('',#846,.T.);
#937=FACE_BOUND('',#847,.T.);
#938=FACE_BOUND('',#848,.T.);
#939=FACE_BOUND('',#849,.T.);
#940=FACE_BOUND('',#850,.T.);
#941=FACE_BOUND('',#851,.T.);
#942=FACE_BOUND('',#852,.T.);
#943=FACE_BOUND('',#853,.T.);
#944=FACE_BOUND('',#854,.T.);
#945=FACE_BOUND('',#855,.T.);
#946=FACE_BOUND('',#856,.T.);
#947=FACE_BOUND('',#857,.T.);
#948=FACE_BOUND('',#858,.T.);
#949=FACE_BOUND('',#859,.T.);
#950=FACE_BOUND('',#860,.T.);
#951=FACE_BOUND('',#861,.T.);
#952=FACE_BOUND('',#862,.T.);
#953=FACE_BOUND('',#863,.T.);
#954=FACE_BOUND('',#864,.T.);
#955=FACE_BOUND('',#865,.T.);
#956=FACE_BOUND('',#866,.T.);
#957=FACE_BOUND('',#867,.T.);
#958=FACE_BOUND('',#868,.T.);
#959=FACE_BOUND('',#869,.T.);
#960=FACE_BOUND('',#870,.T.);
#961=FACE_BOUND('',#871,.T.);
#962=FACE_BOUND('',#872,.T.);
#963=FACE_BOUND('',#873,.T.);
#964=FACE_BOUND('',#874,.T.);
#965=FACE_BOUND('',#875,.T.);
#966=FACE_BOUND('',#876,.T.);
#967=FACE_BOUND('',#877,.T.);
#968=FACE_BOUND('',#878,.T.);
#969=FACE_BOUND('',#879,.T.);
#970=FACE_BOUND('',#880,.T.);
#971=FACE_BOUND('',#881,.T.);
#972=FACE_BOUND('',#882,.T.);
#973=FACE_BOUND('',#883,.T.);
#974=FACE_BOUND('',#884,.T.);
#975=FACE_BOUND('',#885,.T.);
#976=FACE_BOUND('',#886,.T.);
#977=FACE_BOUND('',#887,.T.);
#978=FACE_BOUND('',#888,.T.);
#979=FACE_BOUND('',#889,.T.);
#980=FACE_BOUND('',#890,.T.);
#981=FACE_BOUND('',#891,.T.);
#982=FACE_BOUND('',#892,.T.);
#983=FACE_BOUND('',#893,.T.);
#984=FACE_BOUND('',#894,.T.);
#985=FACE_BOUND('',#895,.T.);
#986=FACE_BOUND('',#896,.T.);
#987=FACE_BOUND('',#897,.T.);
#988=FACE_BOUND('',#898,.T.);
#989=FACE_BOUND('',#899,.T.);
#990=FACE_BOUND('',#900,.T.);
#991=FACE_BOUND('',#901,.T.);
#992=FACE_BOUND('',#902,.T.);
#993=FACE_BOUND('',#903,.T.);
#994=PLANE('',#1089);
#995=PLANE('',#1092);
#996=PLANE('',#1097);
#997=PLANE('',#1100);
#998=PLANE('',#1105);
#999=PLANE('',#1108);
#1000=PLANE('',#1113);
#1001=PLANE('',#1116);
#1002=PLANE('',#1121);
#1003=PLANE('',#1124);
#1004=PLANE('',#1129);
#1005=PLANE('',#1132);
#1006=PLANE('',#1137);
#1007=PLANE('',#1140);
#1008=PLANE('',#1145);
#1009=PLANE('',#1148);
#1010=PLANE('',#1153);
#1011=PLANE('',#1156);
#1012=PLANE('',#1161);
#1013=PLANE('',#1164);
#1014=PLANE('',#1172);
#1015=PLANE('',#1178);
#1016=PLANE('',#1179);
#1017=PLANE('',#1182);
#1018=PLANE('',#1187);
#1019=PLANE('',#1192);
#1020=ADVANCED_FACE('',(#904),#994,.T.);
#1021=ADVANCED_FACE('',(#905),#995,.T.);
#1022=ADVANCED_FACE('',(#906),#24,.T.);
#1023=ADVANCED_FACE('',(#907),#25,.T.);
#1024=ADVANCED_FACE('',(#908),#996,.T.);
#1025=ADVANCED_FACE('',(#909),#997,.T.);
#1026=ADVANCED_FACE('',(#910),#26,.T.);
#1027=ADVANCED_FACE('',(#911),#27,.T.);
#1028=ADVANCED_FACE('',(#912),#998,.T.);
#1029=ADVANCED_FACE('',(#913),#999,.T.);
#1030=ADVANCED_FACE('',(#914),#28,.T.);
#1031=ADVANCED_FACE('',(#915),#29,.T.);
#1032=ADVANCED_FACE('',(#916),#1000,.T.);
#1033=ADVANCED_FACE('',(#917),#1001,.T.);
#1034=ADVANCED_FACE('',(#918),#30,.T.);
#1035=ADVANCED_FACE('',(#919),#31,.T.);
#1036=ADVANCED_FACE('',(#920),#1002,.T.);
#1037=ADVANCED_FACE('',(#921),#1003,.T.);
#1038=ADVANCED_FACE('',(#922),#32,.T.);
#1039=ADVANCED_FACE('',(#923),#33,.T.);
#1040=ADVANCED_FACE('',(#924),#1004,.T.);
#1041=ADVANCED_FACE('',(#925),#1005,.T.);
#1042=ADVANCED_FACE('',(#926),#34,.T.);
#1043=ADVANCED_FACE('',(#927),#35,.T.);
#1044=ADVANCED_FACE('',(#928),#1006,.T.);
#1045=ADVANCED_FACE('',(#929),#1007,.T.);
#1046=ADVANCED_FACE('',(#930),#36,.T.);
#1047=ADVANCED_FACE('',(#931),#37,.T.);
#1048=ADVANCED_FACE('',(#932),#1008,.T.);
#1049=ADVANCED_FACE('',(#933),#1009,.T.);
#1050=ADVANCED_FACE('',(#934),#38,.T.);
#1051=ADVANCED_FACE('',(#935),#39,.T.);
#1052=ADVANCED_FACE('',(#936),#1010,.T.);
#1053=ADVANCED_FACE('',(#937),#1011,.T.);
#1054=ADVANCED_FACE('',(#938),#40,.T.);
#1055=ADVANCED_FACE('',(#939),#41,.T.);
#1056=ADVANCED_FACE('',(#940),#1012,.T.);
#1057=ADVANCED_FACE('',(#941),#1013,.T.);
#1058=ADVANCED_FACE('',(#942),#42,.T.);
#1059=ADVANCED_FACE('',(#943),#43,.T.);
#1060=ADVANCED_FACE('',(#944,#945),#44,.F.);
#1061=ADVANCED_FACE('',(#946,#947),#1014,.F.);
#1062=ADVANCED_FACE('',(#948,#949),#45,.T.);
#1063=ADVANCED_FACE('',(#950,#951,#952,#953,#954,#955,#956,#957,#958,#959,
#960,#961,#962),#1015,.F.);
#1064=ADVANCED_FACE('',(#963),#1016,.T.);
#1065=ADVANCED_FACE('',(#964),#1017,.T.);
#1066=ADVANCED_FACE('',(#965),#46,.T.);
#1067=ADVANCED_FACE('',(#966),#47,.T.);
#1068=ADVANCED_FACE('',(#967,#968,#969,#970,#971,#972,#973,#974,#975,#976,
#977,#978,#979),#1018,.T.);
#1069=ADVANCED_FACE('',(#980,#981),#48,.F.);
#1070=ADVANCED_FACE('',(#982,#983),#1019,.T.);
#1071=ADVANCED_FACE('',(#984,#985),#49,.T.);
#1072=ADVANCED_FACE('',(#986,#987),#20,.T.);
#1073=ADVANCED_FACE('',(#988,#989),#21,.T.);
#1074=ADVANCED_FACE('',(#990,#991),#22,.T.);
#1075=ADVANCED_FACE('',(#992,#993),#23,.T.);
#1076=CLOSED_SHELL('',(#1020,#1021,#1022,#1023,#1024,#1025,#1026,#1027,
#1028,#1029,#1030,#1031,#1032,#1033,#1034,#1035,#1036,#1037,#1038,#1039,
#1040,#1041,#1042,#1043,#1044,#1045,#1046,#1047,#1048,#1049,#1050,#1051,
#1052,#1053,#1054,#1055,#1056,#1057,#1058,#1059,#1060,#1061,#1062,#1063,
#1064,#1065,#1066,#1067,#1068,#1069,#1070,#1071,#1072,#1073,#1074,#1075));
#1077=STYLED_ITEM('',(#1078),#1085);
#1078=PRESENTATION_STYLE_ASSIGNMENT((#1079));
#1079=SURFACE_STYLE_USAGE(.BOTH.,#1080);
#1080=SURFACE_SIDE_STYLE('',(#1081));
#1081=SURFACE_STYLE_FILL_AREA(#1082);
#1082=FILL_AREA_STYLE('',(#1083));
#1083=FILL_AREA_STYLE_COLOUR('',#1084);
#1084=COLOUR_RGB('',0.506983280181885,0.531564235687256,0.550000011920929);
#1085=MANIFOLD_SOLID_BREP('',#1076);
#1086=SHAPE_DEFINITION_REPRESENTATION(#1822,#1087);
#1087=SHAPE_REPRESENTATION('\X2\63A8529B570667F16EDA5B508F74627F\X0\1 
GBT4663-2017',(#1088),#1817);
#1088=AXIS2_PLACEMENT_3D('',#1515,#1201,#1202);
#1089=AXIS2_PLACEMENT_3D('',#1516,#1203,#1204);
#1090=AXIS2_PLACEMENT_3D('',#1517,#1205,#1206);
#1091=AXIS2_PLACEMENT_3D('',#1522,#1208,#1209);
#1092=AXIS2_PLACEMENT_3D('',#1525,#1211,#1212);
#1093=AXIS2_PLACEMENT_3D('',#1526,#1213,#1214);
#1094=AXIS2_PLACEMENT_3D('',#1531,#1216,#1217);
#1095=AXIS2_PLACEMENT_3D('',#1534,#1219,#1220);
#1096=AXIS2_PLACEMENT_3D('',#1537,#1223,#1224);
#1097=AXIS2_PLACEMENT_3D('',#1540,#1227,#1228);
#1098=AXIS2_PLACEMENT_3D('',#1541,#1229,#1230);
#1099=AXIS2_PLACEMENT_3D('',#1546,#1232,#1233);
#1100=AXIS2_PLACEMENT_3D('',#1549,#1235,#1236);
#1101=AXIS2_PLACEMENT_3D('',#1550,#1237,#1238);
#1102=AXIS2_PLACEMENT_3D('',#1555,#1240,#1241);
#1103=AXIS2_PLACEMENT_3D('',#1558,#1243,#1244);
#1104=AXIS2_PLACEMENT_3D('',#1561,#1247,#1248);
#1105=AXIS2_PLACEMENT_3D('',#1564,#1251,#1252);
#1106=AXIS2_PLACEMENT_3D('',#1565,#1253,#1254);
#1107=AXIS2_PLACEMENT_3D('',#1570,#1256,#1257);
#1108=AXIS2_PLACEMENT_3D('',#1573,#1259,#1260);
#1109=AXIS2_PLACEMENT_3D('',#1574,#1261,#1262);
#1110=AXIS2_PLACEMENT_3D('',#1579,#1264,#1265);
#1111=AXIS2_PLACEMENT_3D('',#1582,#1267,#1268);
#1112=AXIS2_PLACEMENT_3D('',#1585,#1271,#1272);
#1113=AXIS2_PLACEMENT_3D('',#1588,#1275,#1276);
#1114=AXIS2_PLACEMENT_3D('',#1589,#1277,#1278);
#1115=AXIS2_PLACEMENT_3D('',#1594,#1280,#1281);
#1116=AXIS2_PLACEMENT_3D('',#1597,#1283,#1284);
#1117=AXIS2_PLACEMENT_3D('',#1598,#1285,#1286);
#1118=AXIS2_PLACEMENT_3D('',#1603,#1288,#1289);
#1119=AXIS2_PLACEMENT_3D('',#1606,#1291,#1292);
#1120=AXIS2_PLACEMENT_3D('',#1609,#1295,#1296);
#1121=AXIS2_PLACEMENT_3D('',#1612,#1299,#1300);
#1122=AXIS2_PLACEMENT_3D('',#1613,#1301,#1302);
#1123=AXIS2_PLACEMENT_3D('',#1618,#1304,#1305);
#1124=AXIS2_PLACEMENT_3D('',#1621,#1307,#1308);
#1125=AXIS2_PLACEMENT_3D('',#1622,#1309,#1310);
#1126=AXIS2_PLACEMENT_3D('',#1627,#1312,#1313);
#1127=AXIS2_PLACEMENT_3D('',#1630,#1315,#1316);
#1128=AXIS2_PLACEMENT_3D('',#1633,#1319,#1320);
#1129=AXIS2_PLACEMENT_3D('',#1636,#1323,#1324);
#1130=AXIS2_PLACEMENT_3D('',#1637,#1325,#1326);
#1131=AXIS2_PLACEMENT_3D('',#1642,#1328,#1329);
#1132=AXIS2_PLACEMENT_3D('',#1645,#1331,#1332);
#1133=AXIS2_PLACEMENT_3D('',#1646,#1333,#1334);
#1134=AXIS2_PLACEMENT_3D('',#1651,#1336,#1337);
#1135=AXIS2_PLACEMENT_3D('',#1654,#1339,#1340);
#1136=AXIS2_PLACEMENT_3D('',#1657,#1343,#1344);
#1137=AXIS2_PLACEMENT_3D('',#1660,#1347,#1348);
#1138=AXIS2_PLACEMENT_3D('',#1661,#1349,#1350);
#1139=AXIS2_PLACEMENT_3D('',#1666,#1352,#1353);
#1140=AXIS2_PLACEMENT_3D('',#1669,#1355,#1356);
#1141=AXIS2_PLACEMENT_3D('',#1670,#1357,#1358);
#1142=AXIS2_PLACEMENT_3D('',#1675,#1360,#1361);
#1143=AXIS2_PLACEMENT_3D('',#1678,#1363,#1364);
#1144=AXIS2_PLACEMENT_3D('',#1681,#1367,#1368);
#1145=AXIS2_PLACEMENT_3D('',#1684,#1371,#1372);
#1146=AXIS2_PLACEMENT_3D('',#1685,#1373,#1374);
#1147=AXIS2_PLACEMENT_3D('',#1690,#1376,#1377);
#1148=AXIS2_PLACEMENT_3D('',#1693,#1379,#1380);
#1149=AXIS2_PLACEMENT_3D('',#1694,#1381,#1382);
#1150=AXIS2_PLACEMENT_3D('',#1699,#1384,#1385);
#1151=AXIS2_PLACEMENT_3D('',#1702,#1387,#1388);
#1152=AXIS2_PLACEMENT_3D('',#1705,#1391,#1392);
#1153=AXIS2_PLACEMENT_3D('',#1708,#1395,#1396);
#1154=AXIS2_PLACEMENT_3D('',#1709,#1397,#1398);
#1155=AXIS2_PLACEMENT_3D('',#1714,#1400,#1401);
#1156=AXIS2_PLACEMENT_3D('',#1717,#1403,#1404);
#1157=AXIS2_PLACEMENT_3D('',#1718,#1405,#1406);
#1158=AXIS2_PLACEMENT_3D('',#1723,#1408,#1409);
#1159=AXIS2_PLACEMENT_3D('',#1726,#1411,#1412);
#1160=AXIS2_PLACEMENT_3D('',#1729,#1415,#1416);
#1161=AXIS2_PLACEMENT_3D('',#1732,#1419,#1420);
#1162=AXIS2_PLACEMENT_3D('',#1733,#1421,#1422);
#1163=AXIS2_PLACEMENT_3D('',#1738,#1424,#1425);
#1164=AXIS2_PLACEMENT_3D('',#1741,#1427,#1428);
#1165=AXIS2_PLACEMENT_3D('',#1742,#1429,#1430);
#1166=AXIS2_PLACEMENT_3D('',#1747,#1432,#1433);
#1167=AXIS2_PLACEMENT_3D('',#1750,#1435,#1436);
#1168=AXIS2_PLACEMENT_3D('',#1753,#1439,#1440);
#1169=AXIS2_PLACEMENT_3D('',#1756,#1443,#1444);
#1170=AXIS2_PLACEMENT_3D('',#1757,#1445,#1446);
#1171=AXIS2_PLACEMENT_3D('',#1759,#1447,#1448);
#1172=AXIS2_PLACEMENT_3D('',#1761,#1449,#1450);
#1173=AXIS2_PLACEMENT_3D('',#1762,#1451,#1452);
#1174=AXIS2_PLACEMENT_3D('',#1764,#1453,#1454);
#1175=AXIS2_PLACEMENT_3D('',#1766,#1455,#1456);
#1176=AXIS2_PLACEMENT_3D('',#1767,#1457,#1458);
#1177=AXIS2_PLACEMENT_3D('',#1769,#1459,#1460);
#1178=AXIS2_PLACEMENT_3D('',#1771,#1461,#1462);
#1179=AXIS2_PLACEMENT_3D('',#1780,#1467,#1468);
#1180=AXIS2_PLACEMENT_3D('',#1781,#1469,#1470);
#1181=AXIS2_PLACEMENT_3D('',#1785,#1472,#1473);
#1182=AXIS2_PLACEMENT_3D('',#1786,#1474,#1475);
#1183=AXIS2_PLACEMENT_3D('',#1787,#1476,#1477);
#1184=AXIS2_PLACEMENT_3D('',#1791,#1479,#1480);
#1185=AXIS2_PLACEMENT_3D('',#1792,#1481,#1482);
#1186=AXIS2_PLACEMENT_3D('',#1794,#1484,#1485);
#1187=AXIS2_PLACEMENT_3D('',#1796,#1487,#1488);
#1188=AXIS2_PLACEMENT_3D('',#1797,#1489,#1490);
#1189=AXIS2_PLACEMENT_3D('',#1799,#1491,#1492);
#1190=AXIS2_PLACEMENT_3D('',#1801,#1493,#1494);
#1191=AXIS2_PLACEMENT_3D('',#1802,#1495,#1496);
#1192=AXIS2_PLACEMENT_3D('',#1804,#1497,#1498);
#1193=AXIS2_PLACEMENT_3D('',#1805,#1499,#1500);
#1194=AXIS2_PLACEMENT_3D('',#1807,#1501,#1502);
#1195=AXIS2_PLACEMENT_3D('',#1809,#1503,#1504);
#1196=AXIS2_PLACEMENT_3D('',#1810,#1505,#1506);
#1197=AXIS2_PLACEMENT_3D('',#1812,#1507,#1508);
#1198=AXIS2_PLACEMENT_3D('',#1813,#1509,#1510);
#1199=AXIS2_PLACEMENT_3D('',#1814,#1511,#1512);
#1200=AXIS2_PLACEMENT_3D('',#1815,#1513,#1514);
#1201=DIRECTION('',(0.,0.,1.));
#1202=DIRECTION('',(1.,0.,0.));
#1203=DIRECTION('',(0.841257567916406,0.540634538688913,-6.19544098563145E-17));
#1204=DIRECTION('',(-5.21196161574193E-17,-3.34946937924124E-17,-1.));
#1205=DIRECTION('',(-0.841257567916406,-0.540634538688913,6.19544098563145E-17));
#1206=DIRECTION('',(5.21196161574193E-17,3.34946937924124E-17,1.));
#1207=DIRECTION('',(-0.540634538688913,0.841257567916406,0.));
#1208=DIRECTION('',(-0.841257567916406,-0.540634538688913,6.19544098563145E-17));
#1209=DIRECTION('',(5.21196161574193E-17,3.34946937924124E-17,1.));
#1210=DIRECTION('',(-0.540634538688913,0.841257567916406,0.));
#1211=DIRECTION('',(-0.841257567916406,-0.540634538688913,6.19544098563145E-17));
#1212=DIRECTION('',(5.21196161574193E-17,3.34946937924124E-17,1.));
#1213=DIRECTION('',(-0.841257567916406,-0.540634538688913,6.19544098563145E-17));
#1214=DIRECTION('',(5.21196161574193E-17,3.34946937924124E-17,1.));
#1215=DIRECTION('',(0.540634538688913,-0.841257567916406,0.));
#1216=DIRECTION('',(-0.841257567916406,-0.540634538688913,6.19544098563145E-17));
#1217=DIRECTION('',(5.21196161574193E-17,3.34946937924124E-17,1.));
#1218=DIRECTION('',(0.540634538688913,-0.841257567916406,0.));
#1219=DIRECTION('',(-0.841257567916406,-0.540634538688913,6.19544098563145E-17));
#1220=DIRECTION('',(5.21196161574193E-17,3.34946937924124E-17,1.));
#1221=DIRECTION('',(-0.841257567916406,-0.540634538688913,6.19544098563145E-17));
#1222=DIRECTION('',(-0.841257567916406,-0.540634538688913,6.19544098563145E-17));
#1223=DIRECTION('',(-0.841257567916406,-0.540634538688913,6.19544098563145E-17));
#1224=DIRECTION('',(5.21196161574193E-17,3.34946937924124E-17,1.));
#1225=DIRECTION('',(-0.841257567916406,-0.540634538688913,6.19544098563145E-17));
#1226=DIRECTION('',(-0.841257567916406,-0.540634538688913,6.19544098563145E-17));
#1227=DIRECTION('',(-0.654866103552142,0.755744921530033,-6.19544098563145E-17));
#1228=DIRECTION('',(4.05718429804771E-17,-4.68217306152999E-17,-1.));
#1229=DIRECTION('',(0.654866103552142,-0.755744921530033,6.19544098563145E-17));
#1230=DIRECTION('',(-4.05718429804771E-17,4.68217306152999E-17,1.));
#1231=DIRECTION('',(-0.755744921530033,-0.654866103552142,0.));
#1232=DIRECTION('',(0.654866103552142,-0.755744921530033,6.19544098563145E-17));
#1233=DIRECTION('',(-4.05718429804771E-17,4.68217306152999E-17,1.));
#1234=DIRECTION('',(-0.755744921530033,-0.654866103552142,0.));
#1235=DIRECTION('',(0.654866103552142,-0.755744921530033,6.19544098563145E-17));
#1236=DIRECTION('',(-4.05718429804771E-17,4.68217306152999E-17,1.));
#1237=DIRECTION('',(0.654866103552142,-0.755744921530033,6.19544098563145E-17));
#1238=DIRECTION('',(-4.05718429804771E-17,4.68217306152999E-17,1.));
#1239=DIRECTION('',(0.755744921530033,0.654866103552142,0.));
#1240=DIRECTION('',(0.654866103552142,-0.755744921530033,6.19544098563145E-17));
#1241=DIRECTION('',(-4.05718429804771E-17,4.68217306152999E-17,1.));
#1242=DIRECTION('',(0.755744921530033,0.654866103552142,0.));
#1243=DIRECTION('',(0.654866103552142,-0.755744921530033,6.19544098563145E-17));
#1244=DIRECTION('',(-4.05718429804771E-17,4.68217306152999E-17,1.));
#1245=DIRECTION('',(0.654866103552142,-0.755744921530033,6.19544098563145E-17));
#1246=DIRECTION('',(0.654866103552142,-0.755744921530033,6.19544098563145E-17));
#1247=DIRECTION('',(0.654866103552142,-0.755744921530033,6.19544098563145E-17));
#1248=DIRECTION('',(-4.05718429804771E-17,4.68217306152999E-17,1.));
#1249=DIRECTION('',(0.654866103552142,-0.755744921530033,6.19544098563145E-17));
#1250=DIRECTION('',(0.654866103552142,-0.755744921530033,6.19544098563145E-17));
#1251=DIRECTION('',(-0.959494475111978,-0.281727443160211,-6.19544098563145E-17));
#1252=DIRECTION('',(5.94449139659568E-17,1.74542574813193E-17,-1.));
#1253=DIRECTION('',(0.959494475111978,0.281727443160211,6.19544098563145E-17));
#1254=DIRECTION('',(-5.94449139659568E-17,-1.74542574813193E-17,1.));
#1255=DIRECTION('',(0.281727443160211,-0.959494475111978,0.));
#1256=DIRECTION('',(0.959494475111978,0.281727443160211,6.19544098563145E-17));
#1257=DIRECTION('',(-5.94449139659568E-17,-1.74542574813193E-17,1.));
#1258=DIRECTION('',(0.281727443160211,-0.959494475111978,0.));
#1259=DIRECTION('',(0.959494475111978,0.281727443160211,6.19544098563145E-17));
#1260=DIRECTION('',(-5.94449139659568E-17,-1.74542574813193E-17,1.));
#1261=DIRECTION('',(0.959494475111978,0.281727443160211,6.19544098563145E-17));
#1262=DIRECTION('',(-5.94449139659568E-17,-1.74542574813193E-17,1.));
#1263=DIRECTION('',(-0.281727443160211,0.959494475111978,0.));
#1264=DIRECTION('',(0.959494475111978,0.281727443160211,6.19544098563145E-17));
#1265=DIRECTION('',(-5.94449139659568E-17,-1.74542574813193E-17,1.));
#1266=DIRECTION('',(-0.281727443160211,0.959494475111978,0.));
#1267=DIRECTION('',(0.959494475111978,0.281727443160211,6.19544098563145E-17));
#1268=DIRECTION('',(-5.94449139659568E-17,-1.74542574813193E-17,1.));
#1269=DIRECTION('',(0.959494475111978,0.281727443160211,6.19544098563145E-17));
#1270=DIRECTION('',(0.959494475111978,0.281727443160211,6.19544098563145E-17));
#1271=DIRECTION('',(0.959494475111978,0.281727443160211,6.19544098563145E-17));
#1272=DIRECTION('',(-5.94449139659568E-17,-1.74542574813193E-17,1.));
#1273=DIRECTION('',(0.959494475111978,0.281727443160211,6.19544098563145E-17));
#1274=DIRECTION('',(0.959494475111978,0.281727443160211,6.19544098563145E-17));
#1275=DIRECTION('',(0.415419538164935,-0.909629928768195,4.52791039240717E-16));
#1276=DIRECTION('',(-5.40482521426823E-16,-7.44608348139204E-16,-1.));
#1277=DIRECTION('',(-0.415419538164935,0.909629928768195,-4.52791039240717E-16));
#1278=DIRECTION('',(5.40482521426823E-16,7.44608348139204E-16,1.));
#1279=DIRECTION('',(0.909629928768195,0.415419538164935,-8.00963933563679E-16));
#1280=DIRECTION('',(-0.415419538164935,0.909629928768195,-4.52791039240717E-16));
#1281=DIRECTION('',(5.40482521426823E-16,7.44608348139204E-16,1.));
#1282=DIRECTION('',(0.909629928768195,0.415419538164935,-8.00963933563679E-16));
#1283=DIRECTION('',(-0.415419538164935,0.909629928768195,-4.52791039240717E-16));
#1284=DIRECTION('',(5.40482521426823E-16,7.44608348139204E-16,1.));
#1285=DIRECTION('',(-0.415419538164935,0.909629928768195,-4.52791039240717E-16));
#1286=DIRECTION('',(5.40482521426823E-16,7.44608348139204E-16,1.));
#1287=DIRECTION('',(-0.909629928768195,-0.415419538164935,8.00963933563679E-16));
#1288=DIRECTION('',(-0.415419538164935,0.909629928768195,-4.52791039240717E-16));
#1289=DIRECTION('',(5.40482521426823E-16,7.44608348139204E-16,1.));
#1290=DIRECTION('',(-0.909629928768195,-0.415419538164935,8.00963933563679E-16));
#1291=DIRECTION('',(-0.415419538164935,0.909629928768195,-4.52791039240717E-16));
#1292=DIRECTION('',(5.40482521426823E-16,7.44608348139204E-16,1.));
#1293=DIRECTION('',(-0.415419538164935,0.909629928768195,-4.52791039240717E-16));
#1294=DIRECTION('',(-0.415419538164935,0.909629928768195,-4.52791039240717E-16));
#1295=DIRECTION('',(-0.415419538164935,0.909629928768195,-4.52791039240717E-16));
#1296=DIRECTION('',(5.40482521426823E-16,7.44608348139204E-16,1.));
#1297=DIRECTION('',(-0.415419538164935,0.909629928768195,-4.52791039240717E-16));
#1298=DIRECTION('',(-0.415419538164935,0.909629928768195,-4.52791039240717E-16));
#1299=DIRECTION('',(0.41541954067621,0.909629927621319,-6.19544098563145E-17));
#1300=DIRECTION('',(-2.57370724853758E-17,-5.63555853534209E-17,-1.));
#1301=DIRECTION('',(-0.41541954067621,-0.909629927621319,6.19544098563145E-17));
#1302=DIRECTION('',(2.57370724853758E-17,5.63555853534209E-17,1.));
#1303=DIRECTION('',(-0.909629927621319,0.41541954067621,0.));
#1304=DIRECTION('',(-0.41541954067621,-0.909629927621319,6.19544098563145E-17));
#1305=DIRECTION('',(2.57370724853758E-17,5.63555853534209E-17,1.));
#1306=DIRECTION('',(-0.909629927621319,0.41541954067621,0.));
#1307=DIRECTION('',(-0.41541954067621,-0.909629927621319,6.19544098563145E-17));
#1308=DIRECTION('',(2.57370724853758E-17,5.63555853534209E-17,1.));
#1309=DIRECTION('',(-0.41541954067621,-0.909629927621319,6.19544098563145E-17));
#1310=DIRECTION('',(2.57370724853758E-17,5.63555853534209E-17,1.));
#1311=DIRECTION('',(0.909629927621319,-0.41541954067621,0.));
#1312=DIRECTION('',(-0.41541954067621,-0.909629927621319,6.19544098563145E-17));
#1313=DIRECTION('',(2.57370724853758E-17,5.63555853534209E-17,1.));
#1314=DIRECTION('',(0.909629927621319,-0.41541954067621,0.));
#1315=DIRECTION('',(-0.41541954067621,-0.909629927621319,6.19544098563145E-17));
#1316=DIRECTION('',(2.57370724853758E-17,5.63555853534209E-17,1.));
#1317=DIRECTION('',(-0.41541954067621,-0.909629927621319,6.19544098563145E-17));
#1318=DIRECTION('',(-0.41541954067621,-0.909629927621319,6.19544098563145E-17));
#1319=DIRECTION('',(-0.41541954067621,-0.909629927621319,6.19544098563145E-17));
#1320=DIRECTION('',(2.57370724853758E-17,5.63555853534209E-17,1.));
#1321=DIRECTION('',(-0.41541954067621,-0.909629927621319,6.19544098563145E-17));
#1322=DIRECTION('',(-0.41541954067621,-0.909629927621319,6.19544098563145E-17));
#1323=DIRECTION('',(-0.142316595150149,0.989821189278583,-6.19544098563145E-17));
#1324=DIRECTION('',(8.81714066528751E-18,-6.132378764503E-17,-1.));
#1325=DIRECTION('',(0.142316595150149,-0.989821189278583,6.19544098563145E-17));
#1326=DIRECTION('',(-8.81714066528751E-18,6.132378764503E-17,1.));
#1327=DIRECTION('',(-0.989821189278583,-0.142316595150149,0.));
#1328=DIRECTION('',(0.142316595150149,-0.989821189278583,6.19544098563145E-17));
#1329=DIRECTION('',(-8.81714066528751E-18,6.132378764503E-17,1.));
#1330=DIRECTION('',(-0.989821189278583,-0.142316595150149,0.));
#1331=DIRECTION('',(0.142316595150149,-0.989821189278583,6.19544098563145E-17));
#1332=DIRECTION('',(-8.81714066528751E-18,6.132378764503E-17,1.));
#1333=DIRECTION('',(0.142316595150149,-0.989821189278583,6.19544098563145E-17));
#1334=DIRECTION('',(-8.81714066528751E-18,6.132378764503E-17,1.));
#1335=DIRECTION('',(0.989821189278583,0.142316595150149,0.));
#1336=DIRECTION('',(0.142316595150149,-0.989821189278583,6.19544098563145E-17));
#1337=DIRECTION('',(-8.81714066528751E-18,6.132378764503E-17,1.));
#1338=DIRECTION('',(0.989821189278583,0.142316595150149,0.));
#1339=DIRECTION('',(0.142316595150149,-0.989821189278583,6.19544098563145E-17));
#1340=DIRECTION('',(-8.81714066528751E-18,6.132378764503E-17,1.));
#1341=DIRECTION('',(0.142316595150149,-0.989821189278583,6.19544098563145E-17));
#1342=DIRECTION('',(0.142316595150149,-0.989821189278583,6.19544098563145E-17));
#1343=DIRECTION('',(0.142316595150149,-0.989821189278583,6.19544098563145E-17));
#1344=DIRECTION('',(-8.81714066528751E-18,6.132378764503E-17,1.));
#1345=DIRECTION('',(0.142316595150149,-0.989821189278583,6.19544098563145E-17));
#1346=DIRECTION('',(0.142316595150149,-0.989821189278583,6.19544098563145E-17));
#1347=DIRECTION('',(-0.959494474334193,0.281727445809155,-6.19544098563145E-17));
#1348=DIRECTION('',(5.94449139177696E-17,-1.7454257645433E-17,-1.));
#1349=DIRECTION('',(0.959494474334193,-0.281727445809155,6.19544098563145E-17));
#1350=DIRECTION('',(-5.94449139177696E-17,1.7454257645433E-17,1.));
#1351=DIRECTION('',(-0.281727445809155,-0.959494474334193,0.));
#1352=DIRECTION('',(0.959494474334193,-0.281727445809155,6.19544098563145E-17));
#1353=DIRECTION('',(-5.94449139177696E-17,1.7454257645433E-17,1.));
#1354=DIRECTION('',(-0.281727445809155,-0.959494474334193,0.));
#1355=DIRECTION('',(0.959494474334193,-0.281727445809155,6.19544098563145E-17));
#1356=DIRECTION('',(-5.94449139177696E-17,1.7454257645433E-17,1.));
#1357=DIRECTION('',(0.959494474334193,-0.281727445809155,6.19544098563145E-17));
#1358=DIRECTION('',(-5.94449139177696E-17,1.7454257645433E-17,1.));
#1359=DIRECTION('',(0.281727445809155,0.959494474334193,0.));
#1360=DIRECTION('',(0.959494474334193,-0.281727445809155,6.19544098563145E-17));
#1361=DIRECTION('',(-5.94449139177696E-17,1.7454257645433E-17,1.));
#1362=DIRECTION('',(0.281727445809155,0.959494474334193,0.));
#1363=DIRECTION('',(0.959494474334193,-0.281727445809155,6.19544098563145E-17));
#1364=DIRECTION('',(-5.94449139177696E-17,1.7454257645433E-17,1.));
#1365=DIRECTION('',(0.959494474334193,-0.281727445809155,6.19544098563145E-17));
#1366=DIRECTION('',(0.959494474334193,-0.281727445809155,6.19544098563145E-17));
#1367=DIRECTION('',(0.959494474334193,-0.281727445809155,6.19544098563145E-17));
#1368=DIRECTION('',(-5.94449139177696E-17,1.7454257645433E-17,1.));
#1369=DIRECTION('',(0.959494474334193,-0.281727445809155,6.19544098563145E-17));
#1370=DIRECTION('',(0.959494474334193,-0.281727445809155,6.19544098563145E-17));
#1371=DIRECTION('',(-0.654866105638577,-0.7557449197221,-6.19544098563145E-17));
#1372=DIRECTION('',(4.05718431097409E-17,4.68217305032905E-17,-1.));
#1373=DIRECTION('',(0.654866105638577,0.7557449197221,6.19544098563145E-17));
#1374=DIRECTION('',(-4.05718431097409E-17,-4.68217305032905E-17,1.));
#1375=DIRECTION('',(0.7557449197221,-0.654866105638577,0.));
#1376=DIRECTION('',(0.654866105638577,0.7557449197221,6.19544098563145E-17));
#1377=DIRECTION('',(-4.05718431097409E-17,-4.68217305032905E-17,1.));
#1378=DIRECTION('',(0.7557449197221,-0.654866105638577,0.));
#1379=DIRECTION('',(0.654866105638577,0.7557449197221,6.19544098563145E-17));
#1380=DIRECTION('',(-4.05718431097409E-17,-4.68217305032905E-17,1.));
#1381=DIRECTION('',(0.654866105638577,0.7557449197221,6.19544098563145E-17));
#1382=DIRECTION('',(-4.05718431097409E-17,-4.68217305032905E-17,1.));
#1383=DIRECTION('',(-0.7557449197221,0.654866105638577,0.));
#1384=DIRECTION('',(0.654866105638577,0.7557449197221,6.19544098563145E-17));
#1385=DIRECTION('',(-4.05718431097409E-17,-4.68217305032905E-17,1.));
#1386=DIRECTION('',(-0.7557449197221,0.654866105638577,0.));
#1387=DIRECTION('',(0.654866105638577,0.7557449197221,6.19544098563145E-17));
#1388=DIRECTION('',(-4.05718431097409E-17,-4.68217305032905E-17,1.));
#1389=DIRECTION('',(0.654866105638577,0.7557449197221,6.19544098563145E-17));
#1390=DIRECTION('',(0.654866105638577,0.7557449197221,6.19544098563145E-17));
#1391=DIRECTION('',(0.654866105638577,0.7557449197221,6.19544098563145E-17));
#1392=DIRECTION('',(-4.05718431097409E-17,-4.68217305032905E-17,1.));
#1393=DIRECTION('',(0.654866105638577,0.7557449197221,6.19544098563145E-17));
#1394=DIRECTION('',(0.654866105638577,0.7557449197221,6.19544098563145E-17));
#1395=DIRECTION('',(-0.14231659788282,-0.989821188885679,-6.19544098563145E-17));
#1396=DIRECTION('',(8.8171408345885E-18,6.13237876206879E-17,-1.));
#1397=DIRECTION('',(0.14231659788282,0.989821188885679,6.19544098563145E-17));
#1398=DIRECTION('',(-8.8171408345885E-18,-6.13237876206879E-17,1.));
#1399=DIRECTION('',(0.989821188885679,-0.14231659788282,0.));
#1400=DIRECTION('',(0.14231659788282,0.989821188885679,6.19544098563145E-17));
#1401=DIRECTION('',(-8.8171408345885E-18,-6.13237876206879E-17,1.));
#1402=DIRECTION('',(0.989821188885679,-0.14231659788282,0.));
#1403=DIRECTION('',(0.14231659788282,0.989821188885679,6.19544098563145E-17));
#1404=DIRECTION('',(-8.8171408345885E-18,-6.13237876206879E-17,1.));
#1405=DIRECTION('',(0.14231659788282,0.989821188885679,6.19544098563145E-17));
#1406=DIRECTION('',(-8.8171408345885E-18,-6.13237876206879E-17,1.));
#1407=DIRECTION('',(-0.989821188885679,0.14231659788282,0.));
#1408=DIRECTION('',(0.14231659788282,0.989821188885679,6.19544098563145E-17));
#1409=DIRECTION('',(-8.8171408345885E-18,-6.13237876206879E-17,1.));
#1410=DIRECTION('',(-0.989821188885679,0.14231659788282,0.));
#1411=DIRECTION('',(0.14231659788282,0.989821188885679,6.19544098563145E-17));
#1412=DIRECTION('',(-8.8171408345885E-18,-6.13237876206879E-17,1.));
#1413=DIRECTION('',(0.14231659788282,0.989821188885679,6.19544098563145E-17));
#1414=DIRECTION('',(0.14231659788282,0.989821188885679,6.19544098563145E-17));
#1415=DIRECTION('',(0.14231659788282,0.989821188885679,6.19544098563145E-17));
#1416=DIRECTION('',(-8.8171408345885E-18,-6.13237876206879E-17,1.));
#1417=DIRECTION('',(0.14231659788282,0.989821188885679,6.19544098563145E-17));
#1418=DIRECTION('',(0.14231659788282,0.989821188885679,6.19544098563145E-17));
#1419=DIRECTION('',(0.841257566423796,-0.540634541011497,-6.19544098563145E-17));
#1420=DIRECTION('',(-5.21196160649456E-17,3.34946939363068E-17,-1.));
#1421=DIRECTION('',(-0.841257566423796,0.540634541011497,6.19544098563145E-17));
#1422=DIRECTION('',(5.21196160649456E-17,-3.34946939363068E-17,1.));
#1423=DIRECTION('',(0.540634541011497,0.841257566423796,0.));
#1424=DIRECTION('',(-0.841257566423796,0.540634541011497,6.19544098563145E-17));
#1425=DIRECTION('',(5.21196160649456E-17,-3.34946939363068E-17,1.));
#1426=DIRECTION('',(0.540634541011497,0.841257566423796,0.));
#1427=DIRECTION('',(-0.841257566423796,0.540634541011497,6.19544098563145E-17));
#1428=DIRECTION('',(5.21196160649456E-17,-3.34946939363068E-17,1.));
#1429=DIRECTION('',(-0.841257566423796,0.540634541011497,6.19544098563145E-17));
#1430=DIRECTION('',(5.21196160649456E-17,-3.34946939363068E-17,1.));
#1431=DIRECTION('',(-0.540634541011497,-0.841257566423796,0.));
#1432=DIRECTION('',(-0.841257566423796,0.540634541011497,6.19544098563145E-17));
#1433=DIRECTION('',(5.21196160649456E-17,-3.34946939363068E-17,1.));
#1434=DIRECTION('',(-0.540634541011497,-0.841257566423796,0.));
#1435=DIRECTION('',(-0.841257566423796,0.540634541011497,6.19544098563145E-17));
#1436=DIRECTION('',(5.21196160649456E-17,-3.34946939363068E-17,1.));
#1437=DIRECTION('',(-0.841257566423796,0.540634541011497,6.19544098563145E-17));
#1438=DIRECTION('',(-0.841257566423796,0.540634541011497,6.19544098563145E-17));
#1439=DIRECTION('',(-0.841257566423796,0.540634541011497,6.19544098563145E-17));
#1440=DIRECTION('',(5.21196160649456E-17,-3.34946939363068E-17,1.));
#1441=DIRECTION('',(-0.841257566423796,0.540634541011497,6.19544098563145E-17));
#1442=DIRECTION('',(-0.841257566423796,0.540634541011497,6.19544098563145E-17));
#1443=DIRECTION('',(0.,0.,-1.));
#1444=DIRECTION('',(-1.,0.,0.));
#1445=DIRECTION('',(0.,0.,-1.));
#1446=DIRECTION('',(-1.,0.,0.));
#1447=DIRECTION('',(0.,0.,-1.));
#1448=DIRECTION('',(-1.,0.,0.));
#1449=DIRECTION('',(0.,0.,-1.));
#1450=DIRECTION('',(-1.,0.,0.));
#1451=DIRECTION('',(0.,0.,-1.));
#1452=DIRECTION('',(-1.,0.,0.));
#1453=DIRECTION('',(0.,0.,-1.));
#1454=DIRECTION('',(-1.,0.,0.));
#1455=DIRECTION('',(0.,0.,-1.));
#1456=DIRECTION('',(-1.,0.,0.));
#1457=DIRECTION('',(0.,0.,-1.));
#1458=DIRECTION('',(-1.,0.,0.));
#1459=DIRECTION('',(0.,0.,-1.));
#1460=DIRECTION('',(-1.,0.,0.));
#1461=DIRECTION('',(0.,0.,1.));
#1462=DIRECTION('',(1.,0.,0.));
#1463=DIRECTION('',(0.,1.,0.));
#1464=DIRECTION('',(-1.,0.,6.19544098563145E-17));
#1465=DIRECTION('',(0.,-1.,0.));
#1466=DIRECTION('',(-1.,0.,6.19544098563145E-17));
#1467=DIRECTION('',(1.,0.,-6.19544098563145E-17));
#1468=DIRECTION('',(-6.19544098563145E-17,0.,-1.));
#1469=DIRECTION('',(-1.,0.,6.19544098563145E-17));
#1470=DIRECTION('',(6.19544098563145E-17,0.,1.));
#1471=DIRECTION('',(0.,1.,0.));
#1472=DIRECTION('',(-1.,0.,6.19544098563145E-17));
#1473=DIRECTION('',(6.19544098563145E-17,0.,1.));
#1474=DIRECTION('',(-1.,0.,6.19544098563145E-17));
#1475=DIRECTION('',(6.19544098563145E-17,0.,1.));
#1476=DIRECTION('',(-1.,0.,6.19544098563145E-17));
#1477=DIRECTION('',(6.19544098563145E-17,0.,1.));
#1478=DIRECTION('',(0.,-1.,0.));
#1479=DIRECTION('',(-1.,0.,6.19544098563145E-17));
#1480=DIRECTION('',(6.19544098563145E-17,0.,1.));
#1481=DIRECTION('',(-1.,0.,6.19544098563145E-17));
#1482=DIRECTION('',(6.19544098563145E-17,0.,1.));
#1483=DIRECTION('',(-1.,0.,6.19544098563145E-17));
#1484=DIRECTION('',(-1.,0.,6.19544098563145E-17));
#1485=DIRECTION('',(6.19544098563145E-17,0.,1.));
#1486=DIRECTION('',(-1.,0.,6.19544098563145E-17));
#1487=DIRECTION('',(0.,0.,1.));
#1488=DIRECTION('',(1.,0.,0.));
#1489=DIRECTION('',(0.,0.,-1.));
#1490=DIRECTION('',(-1.,0.,0.));
#1491=DIRECTION('',(0.,0.,-1.));
#1492=DIRECTION('',(-1.,0.,0.));
#1493=DIRECTION('',(0.,0.,-1.));
#1494=DIRECTION('',(-1.,0.,0.));
#1495=DIRECTION('',(0.,0.,-1.));
#1496=DIRECTION('',(-1.,0.,0.));
#1497=DIRECTION('',(0.,0.,-1.));
#1498=DIRECTION('',(-1.,0.,0.));
#1499=DIRECTION('',(0.,0.,-1.));
#1500=DIRECTION('',(-1.,0.,0.));
#1501=DIRECTION('',(0.,0.,-1.));
#1502=DIRECTION('',(-1.,0.,0.));
#1503=DIRECTION('',(0.,0.,-1.));
#1504=DIRECTION('',(-1.,0.,0.));
#1505=DIRECTION('',(0.,0.,-1.));
#1506=DIRECTION('',(-1.,0.,0.));
#1507=DIRECTION('',(0.,0.,-1.));
#1508=DIRECTION('',(-1.,0.,0.));
#1509=DIRECTION('',(0.,0.,-1.));
#1510=DIRECTION('',(-1.,0.,0.));
#1511=DIRECTION('',(0.,0.,-1.));
#1512=DIRECTION('',(-1.,0.,0.));
#1513=DIRECTION('',(0.,0.,-1.));
#1514=DIRECTION('',(-1.,0.,0.));
#1515=CARTESIAN_POINT('',(0.,0.,0.));
#1516=CARTESIAN_POINT('',(-6.51969276061731,-4.1899986943134,1.80000000000001));
#1517=CARTESIAN_POINT('',(-6.51969276061731,-4.1899986943134,-1.54886024640786E-16));
#1518=CARTESIAN_POINT('',(-6.41697219826639,-4.34983763221757,-1.8));
#1519=CARTESIAN_POINT('',(-6.41697219826641,-4.34983763221752,1.80000000000001));
#1520=CARTESIAN_POINT('',(-6.51969276061731,-4.1899986943134,-1.8));
#1521=CARTESIAN_POINT('',(-6.62241332296823,-4.03015975640924,-1.8));
#1522=CARTESIAN_POINT('',(-6.51969276061731,-4.1899986943134,-1.54886024640786E-16));
#1523=CARTESIAN_POINT('',(-6.62241332296821,-4.03015975640928,1.80000000000001));
#1524=CARTESIAN_POINT('',(-6.51969276061731,-4.1899986943134,1.80000000000001));
#1525=CARTESIAN_POINT('',(-9.46409424832473,-6.0822195797246,1.80000000000001));
#1526=CARTESIAN_POINT('',(-9.46409424832473,-6.0822195797246,6.19544098563143E-17));
#1527=CARTESIAN_POINT('',(-9.56681481067563,-5.92238064182047,1.80000000000001));
#1528=CARTESIAN_POINT('',(-9.56681481067565,-5.92238064182044,-1.8));
#1529=CARTESIAN_POINT('',(-9.46409424832473,-6.0822195797246,-1.8));
#1530=CARTESIAN_POINT('',(-9.36137368597381,-6.24205851762876,-1.8));
#1531=CARTESIAN_POINT('',(-9.46409424832473,-6.0822195797246,6.19544098563143E-17));
#1532=CARTESIAN_POINT('',(-9.36137368597384,-6.24205851762872,1.80000000000001));
#1533=CARTESIAN_POINT('',(-9.46409424832473,-6.0822195797246,1.80000000000001));
#1534=CARTESIAN_POINT('',(-5.6784351927009,-3.64936415562449,-2.16840434497101E-16));
#1535=CARTESIAN_POINT('',(-5.78115575505183,-3.48952521772032,-1.8));
#1536=CARTESIAN_POINT('',(-5.7811557550518,-3.48952521772037,1.80000000000001));
#1537=CARTESIAN_POINT('',(-5.6784351927009,-3.64936415562449,-2.16840434497101E-16));
#1538=CARTESIAN_POINT('',(-5.57571463034998,-3.80920309352865,-1.8));
#1539=CARTESIAN_POINT('',(-5.57571463035001,-3.80920309352861,1.80000000000001));
#1540=CARTESIAN_POINT('',(5.07514115650599,-5.85708217193517,1.80000000000001));
#1541=CARTESIAN_POINT('',(5.07514115650599,-5.85708217193517,6.19544098563146E-17));
#1542=CARTESIAN_POINT('',(5.21873269159674,-5.73265761226023,-1.8));
#1543=CARTESIAN_POINT('',(5.2187326915967,-5.73265761226026,1.80000000000001));
#1544=CARTESIAN_POINT('',(5.07514115650599,-5.85708217193517,-1.8));
#1545=CARTESIAN_POINT('',(4.93154962141524,-5.98150673161011,-1.8));
#1546=CARTESIAN_POINT('',(5.07514115650599,-5.85708217193517,6.19544098563146E-17));
#1547=CARTESIAN_POINT('',(4.93154962141528,-5.98150673161008,1.80000000000001));
#1548=CARTESIAN_POINT('',(5.07514115650599,-5.85708217193517,1.80000000000001));
#1549=CARTESIAN_POINT('',(7.36717251893849,-8.50218939729028,1.80000000000001));
#1550=CARTESIAN_POINT('',(7.36717251893849,-8.50218939729028,2.78794844353415E-16));
#1551=CARTESIAN_POINT('',(7.22358098384778,-8.62661395696519,1.80000000000001));
#1552=CARTESIAN_POINT('',(7.22358098384774,-8.62661395696522,-1.8));
#1553=CARTESIAN_POINT('',(7.36717251893849,-8.50218939729028,-1.8));
#1554=CARTESIAN_POINT('',(7.51076405402924,-8.37776483761534,-1.8));
#1555=CARTESIAN_POINT('',(7.36717251893849,-8.50218939729028,2.78794844353415E-16));
#1556=CARTESIAN_POINT('',(7.5107640540292,-8.37776483761537,1.80000000000001));
#1557=CARTESIAN_POINT('',(7.36717251893849,-8.50218939729028,1.80000000000001));
#1558=CARTESIAN_POINT('',(4.42027505295385,-5.10133725040514,0.));
#1559=CARTESIAN_POINT('',(4.2766835178631,-5.22576181008008,-1.8));
#1560=CARTESIAN_POINT('',(4.27668351786314,-5.22576181008005,1.80000000000001));
#1561=CARTESIAN_POINT('',(4.42027505295385,-5.10133725040514,0.));
#1562=CARTESIAN_POINT('',(4.5638665880446,-4.97691269073019,-1.8));
#1563=CARTESIAN_POINT('',(4.56386658804456,-4.97691269073023,1.80000000000001));
#1564=CARTESIAN_POINT('',(7.43606233426529,2.18345406159858,1.80000000000001));
#1565=CARTESIAN_POINT('',(7.43606233426529,2.18345406159858,-1.54886024640786E-16));
#1566=CARTESIAN_POINT('',(7.38253412006484,2.36575801186991,-1.8));
#1567=CARTESIAN_POINT('',(7.38253412006485,2.36575801186986,1.80000000000001));
#1568=CARTESIAN_POINT('',(7.43606233426529,2.18345406159858,-1.8));
#1569=CARTESIAN_POINT('',(7.48959054846575,2.00115011132726,-1.8));
#1570=CARTESIAN_POINT('',(7.43606233426529,2.18345406159858,-1.54886024640786E-16));
#1571=CARTESIAN_POINT('',(7.48959054846573,2.0011501113273,1.80000000000001));
#1572=CARTESIAN_POINT('',(7.43606233426529,2.18345406159858,1.80000000000001));
#1573=CARTESIAN_POINT('',(10.7942929971572,3.16950011265932,1.80000000000001));
#1574=CARTESIAN_POINT('',(10.7942929971572,3.16950011265932,6.19544098563143E-17));
#1575=CARTESIAN_POINT('',(10.8478212113577,2.98719616238804,1.80000000000001));
#1576=CARTESIAN_POINT('',(10.8478212113577,2.987196162388,-1.8));
#1577=CARTESIAN_POINT('',(10.7942929971572,3.16950011265932,-1.8));
#1578=CARTESIAN_POINT('',(10.7407647829568,3.35180406293065,-1.8));
#1579=CARTESIAN_POINT('',(10.7942929971572,3.16950011265932,6.19544098563143E-17));
#1580=CARTESIAN_POINT('',(10.7407647829568,3.3518040629306,1.80000000000001));
#1581=CARTESIAN_POINT('',(10.7942929971572,3.16950011265932,1.80000000000001));
#1582=CARTESIAN_POINT('',(6.47656785915331,1.90172661843837,-2.16840434497101E-16));
#1583=CARTESIAN_POINT('',(6.53009607335377,1.71942266816704,-1.8));
#1584=CARTESIAN_POINT('',(6.53009607335376,1.71942266816709,1.80000000000001));
#1585=CARTESIAN_POINT('',(6.47656785915331,1.90172661843837,-2.16840434497101E-16));
#1586=CARTESIAN_POINT('',(6.42303964495286,2.0840305687097,-1.8));
#1587=CARTESIAN_POINT('',(6.42303964495287,2.08403056870965,1.80000000000001));
#1588=CARTESIAN_POINT('',(-3.21944144136421,7.0496563780928,1.80000000000001));
#1589=CARTESIAN_POINT('',(-3.21944144136421,7.0496563780928,2.00551327902446E-15));
#1590=CARTESIAN_POINT('',(-3.39227112783022,6.97072666584144,-1.8));
#1591=CARTESIAN_POINT('',(-3.39227112783017,6.97072666584146,1.80000000000001));
#1592=CARTESIAN_POINT('',(-3.21944144136421,7.04965637809279,-1.8));
#1593=CARTESIAN_POINT('',(-3.04661175489821,7.12858609034416,-1.8));
#1594=CARTESIAN_POINT('',(-3.21944144136421,7.0496563780928,2.00551327902446E-15));
#1595=CARTESIAN_POINT('',(-3.04661175489825,7.12858609034414,1.80000000000001));
#1596=CARTESIAN_POINT('',(-3.21944144136421,7.0496563780928,1.80000000000001));
#1597=CARTESIAN_POINT('',(-4.67340982494148,10.2333611287815,1.80000000000001));
#1598=CARTESIAN_POINT('',(-4.67340982494148,10.2333611287815,4.20744641681949E-16));
#1599=CARTESIAN_POINT('',(-4.50058013847552,10.3122908410328,1.80000000000001));
#1600=CARTESIAN_POINT('',(-4.50058013847548,10.3122908410328,-1.8));
#1601=CARTESIAN_POINT('',(-4.67340982494148,10.2333611287815,-1.8));
#1602=CARTESIAN_POINT('',(-4.84623951140749,10.1544314165301,-1.8));
#1603=CARTESIAN_POINT('',(-4.67340982494148,10.2333611287815,4.20744641681949E-16));
#1604=CARTESIAN_POINT('',(-4.84623951140744,10.1544314165301,1.80000000000001));
#1605=CARTESIAN_POINT('',(-4.67340982494148,10.2333611287815,1.80000000000001));
#1606=CARTESIAN_POINT('',(-2.80402190319928,6.1400264493246,2.45830431826518E-15));
#1607=CARTESIAN_POINT('',(-2.63119221673327,6.21895616157596,-1.8));
#1608=CARTESIAN_POINT('',(-2.63119221673332,6.21895616157594,1.80000000000001));
#1609=CARTESIAN_POINT('',(-2.80402190319928,6.1400264493246,2.45830431826518E-15));
#1610=CARTESIAN_POINT('',(-2.97685158966529,6.06109673707324,-1.8));
#1611=CARTESIAN_POINT('',(-2.97685158966524,6.06109673707326,1.80000000000001));
#1612=CARTESIAN_POINT('',(-3.21944146082672,-7.04965636920464,1.80000000000001));
#1613=CARTESIAN_POINT('',(-3.21944146082672,-7.04965636920464,6.19544098563146E-17));
#1614=CARTESIAN_POINT('',(-3.04661177457862,-7.12858608193314,-1.8));
#1615=CARTESIAN_POINT('',(-3.04661177457867,-7.12858608193312,1.80000000000001));
#1616=CARTESIAN_POINT('',(-3.21944146082672,-7.04965636920464,-1.8));
#1617=CARTESIAN_POINT('',(-3.39227114707483,-6.97072665647613,-1.8));
#1618=CARTESIAN_POINT('',(-3.21944146082672,-7.04965636920464,6.19544098563146E-17));
#1619=CARTESIAN_POINT('',(-3.39227114707478,-6.97072665647616,1.80000000000001));
#1620=CARTESIAN_POINT('',(-3.21944146082672,-7.04965636920464,1.80000000000001));
#1621=CARTESIAN_POINT('',(-4.67340985319346,-10.2333611158793,1.80000000000001));
#1622=CARTESIAN_POINT('',(-4.67340985319346,-10.2333611158793,2.78794844353415E-16));
#1623=CARTESIAN_POINT('',(-4.84623953944151,-10.1544314031508,1.80000000000001));
#1624=CARTESIAN_POINT('',(-4.84623953944156,-10.1544314031508,-1.8));
#1625=CARTESIAN_POINT('',(-4.67340985319346,-10.2333611158793,-1.8));
#1626=CARTESIAN_POINT('',(-4.50058016694536,-10.3122908286078,-1.8));
#1627=CARTESIAN_POINT('',(-4.67340985319346,-10.2333611158793,2.78794844353415E-16));
#1628=CARTESIAN_POINT('',(-4.5005801669454,-10.3122908286077,1.80000000000001));
#1629=CARTESIAN_POINT('',(-4.67340985319346,-10.2333611158793,1.80000000000001));
#1630=CARTESIAN_POINT('',(-2.80402192015051,-6.14002644158332,0.));
#1631=CARTESIAN_POINT('',(-2.97685160639862,-6.06109672885481,-1.8));
#1632=CARTESIAN_POINT('',(-2.97685160639857,-6.06109672885484,1.80000000000001));
#1633=CARTESIAN_POINT('',(-2.80402192015051,-6.14002644158332,0.));
#1634=CARTESIAN_POINT('',(-2.63119223390241,-6.21895615431182,-1.8));
#1635=CARTESIAN_POINT('',(-2.63119223390246,-6.2189561543118,1.80000000000001));
#1636=CARTESIAN_POINT('',(1.10293029572031,-7.67111444470887,1.80000000000001));
#1637=CARTESIAN_POINT('',(1.10293029572031,-7.67111444470887,-1.54886024640786E-16));
#1638=CARTESIAN_POINT('',(1.2909963216833,-7.64407429163033,-1.8));
#1639=CARTESIAN_POINT('',(1.29099632168325,-7.64407429163034,1.80000000000001));
#1640=CARTESIAN_POINT('',(1.10293029572031,-7.67111444470887,-1.8));
#1641=CARTESIAN_POINT('',(0.914864269757328,-7.6981545977874,-1.8));
#1642=CARTESIAN_POINT('',(1.10293029572031,-7.67111444470887,-1.54886024640786E-16));
#1643=CARTESIAN_POINT('',(0.914864269757378,-7.6981545977874,1.80000000000001));
#1644=CARTESIAN_POINT('',(1.10293029572031,-7.67111444470887,1.80000000000001));
#1645=CARTESIAN_POINT('',(1.60103837874583,-11.1354886071839,1.80000000000001));
#1646=CARTESIAN_POINT('',(1.60103837874583,-11.1354886071839,6.19544098563143E-17));
#1647=CARTESIAN_POINT('',(1.4129723527829,-11.1625287602624,1.80000000000001));
#1648=CARTESIAN_POINT('',(1.41297235278285,-11.1625287602624,-1.8));
#1649=CARTESIAN_POINT('',(1.60103837874583,-11.1354886071839,-1.8));
#1650=CARTESIAN_POINT('',(1.78910440470882,-11.1084484541054,-1.8));
#1651=CARTESIAN_POINT('',(1.60103837874583,-11.1354886071839,6.19544098563143E-17));
#1652=CARTESIAN_POINT('',(1.78910440470877,-11.1084484541054,1.80000000000001));
#1653=CARTESIAN_POINT('',(1.60103837874583,-11.1354886071839,1.80000000000001));
#1654=CARTESIAN_POINT('',(0.960613700570164,-6.68129325543028,-2.16840434497101E-16));
#1655=CARTESIAN_POINT('',(0.772547674607178,-6.70833340850882,-1.8));
#1656=CARTESIAN_POINT('',(0.772547674607229,-6.70833340850881,1.80000000000001));
#1657=CARTESIAN_POINT('',(0.960613700570164,-6.68129325543028,-2.16840434497101E-16));
#1658=CARTESIAN_POINT('',(1.14867972653315,-6.65425310235175,-1.8));
#1659=CARTESIAN_POINT('',(1.1486797265331,-6.65425310235175,1.80000000000001));
#1660=CARTESIAN_POINT('',(7.43606232823729,-2.18345408212782,1.80000000000001));
#1661=CARTESIAN_POINT('',(7.43606232823729,-2.18345408212782,-3.71726459137887E-16));
#1662=CARTESIAN_POINT('',(7.48959054294104,-2.00115013200428,-1.8));
#1663=CARTESIAN_POINT('',(7.48959054294103,-2.00115013200432,1.8));
#1664=CARTESIAN_POINT('',(7.43606232823729,-2.18345408212782,-1.8));
#1665=CARTESIAN_POINT('',(7.38253411353353,-2.36575803225137,-1.8));
#1666=CARTESIAN_POINT('',(7.43606232823729,-2.18345408212782,-3.71726459137887E-16));
#1667=CARTESIAN_POINT('',(7.38253411353354,-2.36575803225133,1.8));
#1668=CARTESIAN_POINT('',(7.43606232823729,-2.18345408212782,1.8));
#1669=CARTESIAN_POINT('',(10.794292988407,-3.16950014245987,1.80000000000001));
#1670=CARTESIAN_POINT('',(10.794292988407,-3.16950014245987,-1.54886024640787E-16));
#1671=CARTESIAN_POINT('',(10.7407647737032,-3.35180409258337,1.8));
#1672=CARTESIAN_POINT('',(10.7407647737032,-3.35180409258341,-1.8));
#1673=CARTESIAN_POINT('',(10.794292988407,-3.16950014245987,-1.8));
#1674=CARTESIAN_POINT('',(10.8478212031107,-2.98719619233632,-1.8));
#1675=CARTESIAN_POINT('',(10.794292988407,-3.16950014245987,-1.54886024640787E-16));
#1676=CARTESIAN_POINT('',(10.8478212031107,-2.98719619233637,1.8));
#1677=CARTESIAN_POINT('',(10.794292988407,-3.16950014245987,1.8));
#1678=CARTESIAN_POINT('',(6.47656785390309,-1.90172663631867,-4.33680868994202E-16));
#1679=CARTESIAN_POINT('',(6.42303963919934,-2.08403058644222,-1.8));
#1680=CARTESIAN_POINT('',(6.42303963919935,-2.08403058644217,1.8));
#1681=CARTESIAN_POINT('',(6.47656785390309,-1.90172663631867,-4.33680868994202E-16));
#1682=CARTESIAN_POINT('',(6.53009606860685,-1.71942268619512,-1.8));
#1683=CARTESIAN_POINT('',(6.53009606860683,-1.71942268619517,1.8));
#1684=CARTESIAN_POINT('',(5.07514117267605,5.85708215792387,1.80000000000001));
#1685=CARTESIAN_POINT('',(5.07514117267605,5.85708215792387,-1.54886024640786E-16));
#1686=CARTESIAN_POINT('',(4.93154963792881,5.98150671799524,-1.8));
#1687=CARTESIAN_POINT('',(4.93154963792885,5.98150671799521,1.80000000000001));
#1688=CARTESIAN_POINT('',(5.07514117267605,5.85708215792387,-1.8));
#1689=CARTESIAN_POINT('',(5.21873270742329,5.73265759785251,-1.8));
#1690=CARTESIAN_POINT('',(5.07514117267605,5.85708215792387,-1.54886024640786E-16));
#1691=CARTESIAN_POINT('',(5.21873270742325,5.73265759785254,1.80000000000001));
#1692=CARTESIAN_POINT('',(5.07514117267605,5.85708215792387,1.80000000000001));
#1693=CARTESIAN_POINT('',(7.36717254241107,8.50218937695123,1.80000000000001));
#1694=CARTESIAN_POINT('',(7.36717254241107,8.50218937695123,6.19544098563143E-17));
#1695=CARTESIAN_POINT('',(7.51076407715827,8.37776481687989,1.80000000000001));
#1696=CARTESIAN_POINT('',(7.51076407715831,8.37776481687986,-1.8));
#1697=CARTESIAN_POINT('',(7.36717254241107,8.50218937695123,-1.8));
#1698=CARTESIAN_POINT('',(7.22358100766383,8.62661393702259,-1.8));
#1699=CARTESIAN_POINT('',(7.36717254241107,8.50218937695123,6.19544098563143E-17));
#1700=CARTESIAN_POINT('',(7.22358100766387,8.62661393702256,1.80000000000001));
#1701=CARTESIAN_POINT('',(7.36717254241107,8.50218937695123,1.80000000000001));
#1702=CARTESIAN_POINT('',(4.42027506703747,5.10133723820177,-2.16840434497101E-16));
#1703=CARTESIAN_POINT('',(4.56386660178471,4.97691267813041,-1.8));
#1704=CARTESIAN_POINT('',(4.56386660178468,4.97691267813044,1.80000000000001));
#1705=CARTESIAN_POINT('',(4.42027506703747,5.10133723820177,-2.16840434497101E-16));
#1706=CARTESIAN_POINT('',(4.27668353229023,5.22576179827314,-1.8));
#1707=CARTESIAN_POINT('',(4.27668353229027,5.22576179827311,1.80000000000001));
#1708=CARTESIAN_POINT('',(1.10293031689846,7.67111444166394,1.80000000000001));
#1709=CARTESIAN_POINT('',(1.10293031689846,7.67111444166394,-1.54886024640786E-16));
#1710=CARTESIAN_POINT('',(0.91486429101013,7.69815459526168,-1.8));
#1711=CARTESIAN_POINT('',(0.914864291010181,7.69815459526167,1.80000000000001));
#1712=CARTESIAN_POINT('',(1.10293031689846,7.67111444166394,-1.8));
#1713=CARTESIAN_POINT('',(1.2909963427868,7.64407428806619,-1.8));
#1714=CARTESIAN_POINT('',(1.10293031689846,7.67111444166394,-1.54886024640786E-16));
#1715=CARTESIAN_POINT('',(1.29099634278675,7.6440742880662,1.80000000000001));
#1716=CARTESIAN_POINT('',(1.10293031689846,7.67111444166394,1.80000000000001));
#1717=CARTESIAN_POINT('',(1.60103840948833,11.1354886027638,1.80000000000001));
#1718=CARTESIAN_POINT('',(1.60103840948833,11.1354886027638,6.19544098563143E-17));
#1719=CARTESIAN_POINT('',(1.78910443537662,11.1084484491661,1.80000000000001));
#1720=CARTESIAN_POINT('',(1.78910443537666,11.1084484491661,-1.8));
#1721=CARTESIAN_POINT('',(1.60103840948833,11.1354886027638,-1.8));
#1722=CARTESIAN_POINT('',(1.4129723836,11.1625287563616,-1.8));
#1723=CARTESIAN_POINT('',(1.60103840948833,11.1354886027638,6.19544098563143E-17));
#1724=CARTESIAN_POINT('',(1.41297238360005,11.1625287563615,1.80000000000001));
#1725=CARTESIAN_POINT('',(1.60103840948833,11.1354886027638,1.80000000000001));
#1726=CARTESIAN_POINT('',(0.960613719015645,6.68129325277826,-2.16840434497101E-16));
#1727=CARTESIAN_POINT('',(1.14867974490398,6.65425309918051,-1.8));
#1728=CARTESIAN_POINT('',(1.14867974490393,6.65425309918052,1.80000000000001));
#1729=CARTESIAN_POINT('',(0.960613719015645,6.68129325277826,-2.16840434497101E-16));
#1730=CARTESIAN_POINT('',(0.772547693127311,6.708333406376,-1.8));
#1731=CARTESIAN_POINT('',(0.772547693127361,6.70833340637599,1.80000000000001));
#1732=CARTESIAN_POINT('',(-6.51969274904979,4.18999871231263,1.80000000000001));
#1733=CARTESIAN_POINT('',(-6.51969274904979,4.18999871231263,-1.54886024640786E-16));
#1734=CARTESIAN_POINT('',(-6.622413311842,4.03015977469207,-1.8));
#1735=CARTESIAN_POINT('',(-6.62241331184198,4.03015977469211,1.80000000000001));
#1736=CARTESIAN_POINT('',(-6.51969274904979,4.18999871231263,-1.8));
#1737=CARTESIAN_POINT('',(-6.41697218625757,4.3498376499332,-1.8));
#1738=CARTESIAN_POINT('',(-6.51969274904979,4.18999871231263,-1.54886024640786E-16));
#1739=CARTESIAN_POINT('',(-6.4169721862576,4.34983764993316,1.80000000000001));
#1740=CARTESIAN_POINT('',(-6.51969274904979,4.18999871231263,1.80000000000001));
#1741=CARTESIAN_POINT('',(-9.46409423153307,6.08221960585287,1.80000000000001));
#1742=CARTESIAN_POINT('',(-9.46409423153307,6.08221960585287,6.19544098563143E-17));
#1743=CARTESIAN_POINT('',(-9.36137366874089,6.2420585434734,1.80000000000001));
#1744=CARTESIAN_POINT('',(-9.36137366874086,6.24205854347344,-1.8));
#1745=CARTESIAN_POINT('',(-9.46409423153307,6.08221960585287,-1.8));
#1746=CARTESIAN_POINT('',(-9.56681479432529,5.92238066823231,-1.8));
#1747=CARTESIAN_POINT('',(-9.46409423153307,6.08221960585287,6.19544098563143E-17));
#1748=CARTESIAN_POINT('',(-9.56681479432526,5.92238066823235,1.80000000000001));
#1749=CARTESIAN_POINT('',(-9.46409423153307,6.08221960585287,1.80000000000001));
#1750=CARTESIAN_POINT('',(-5.67843518262599,3.64936417130113,-2.16840434497101E-16));
#1751=CARTESIAN_POINT('',(-5.57571461983378,3.8092031089217,-1.8));
#1752=CARTESIAN_POINT('',(-5.57571461983381,3.80920310892166,1.80000000000001));
#1753=CARTESIAN_POINT('',(-5.67843518262599,3.64936417130113,-2.16840434497101E-16));
#1754=CARTESIAN_POINT('',(-5.78115574541821,3.48952523368057,-1.8));
#1755=CARTESIAN_POINT('',(-5.78115574541818,3.48952523368061,1.80000000000001));
#1756=CARTESIAN_POINT('',(0.,0.,0.));
#1757=CARTESIAN_POINT('',(0.,0.,4.20000000000001));
#1758=CARTESIAN_POINT('',(-6.,0.,4.20000000000001));
#1759=CARTESIAN_POINT('',(0.,0.,1.80000000000001));
#1760=CARTESIAN_POINT('',(-6.,0.,1.80000000000001));
#1761=CARTESIAN_POINT('',(-6.,0.,4.50000000000001));
#1762=CARTESIAN_POINT('',(0.,0.,4.50000000000001));
#1763=CARTESIAN_POINT('',(-6.3,0.,4.50000000000001));
#1764=CARTESIAN_POINT('',(0.,0.,4.50000000000001));
#1765=CARTESIAN_POINT('',(-12.7,0.,4.50000000000001));
#1766=CARTESIAN_POINT('',(0.,0.,0.));
#1767=CARTESIAN_POINT('',(0.,0.,4.20000000000001));
#1768=CARTESIAN_POINT('',(-13.,0.,4.20000000000001));
#1769=CARTESIAN_POINT('',(0.,0.,1.80000000000001));
#1770=CARTESIAN_POINT('',(-13.,0.,1.80000000000001));
#1771=CARTESIAN_POINT('',(-13.,0.,1.80000000000001));
#1772=CARTESIAN_POINT('',(-7.75,0.,1.80000000000001));
#1773=CARTESIAN_POINT('',(-7.75,-0.190000000000004,1.80000000000001));
#1774=CARTESIAN_POINT('',(-7.75,0.190000000000004,1.80000000000001));
#1775=CARTESIAN_POINT('',(-6.75,0.190000000000004,1.80000000000001));
#1776=CARTESIAN_POINT('',(-11.25,0.190000000000004,1.80000000000001));
#1777=CARTESIAN_POINT('',(-11.25,0.,1.80000000000001));
#1778=CARTESIAN_POINT('',(-11.25,-0.190000000000004,1.80000000000001));
#1779=CARTESIAN_POINT('',(-6.75,-0.190000000000004,1.80000000000001));
#1780=CARTESIAN_POINT('',(-7.75,0.,1.80000000000001));
#1781=CARTESIAN_POINT('',(-7.75,0.,-1.54886024640786E-16));
#1782=CARTESIAN_POINT('',(-7.75,-0.190000000000056,-1.8));
#1783=CARTESIAN_POINT('',(-7.75,0.,-1.8));
#1784=CARTESIAN_POINT('',(-7.75,0.190000000000056,-1.8));
#1785=CARTESIAN_POINT('',(-7.75,0.,-1.54886024640786E-16));
#1786=CARTESIAN_POINT('',(-11.25,0.,1.80000000000001));
#1787=CARTESIAN_POINT('',(-11.25,0.,6.19544098563143E-17));
#1788=CARTESIAN_POINT('',(-11.25,0.190000000000051,-1.8));
#1789=CARTESIAN_POINT('',(-11.25,0.,-1.8));
#1790=CARTESIAN_POINT('',(-11.25,-0.190000000000056,-1.8));
#1791=CARTESIAN_POINT('',(-11.25,0.,6.19544098563143E-17));
#1792=CARTESIAN_POINT('',(-6.75,0.,-2.16840434497101E-16));
#1793=CARTESIAN_POINT('',(-6.75,0.190000000000056,-1.8));
#1794=CARTESIAN_POINT('',(-6.75,0.,-2.16840434497101E-16));
#1795=CARTESIAN_POINT('',(-6.75,-0.190000000000056,-1.8));
#1796=CARTESIAN_POINT('',(-13.,0.,-1.8));
#1797=CARTESIAN_POINT('',(0.,0.,-1.8));
#1798=CARTESIAN_POINT('',(-6.5,0.,-1.8));
#1799=CARTESIAN_POINT('',(0.,0.,-1.8));
#1800=CARTESIAN_POINT('',(-13.,0.,-1.8));
#1801=CARTESIAN_POINT('',(0.,0.,0.));
#1802=CARTESIAN_POINT('',(0.,0.,-4.2));
#1803=CARTESIAN_POINT('',(-6.5,0.,-4.2));
#1804=CARTESIAN_POINT('',(-6.5,0.,-4.5));
#1805=CARTESIAN_POINT('',(0.,0.,-4.5));
#1806=CARTESIAN_POINT('',(-12.7,0.,-4.5));
#1807=CARTESIAN_POINT('',(0.,0.,-4.5));
#1808=CARTESIAN_POINT('',(-6.8,0.,-4.5));
#1809=CARTESIAN_POINT('',(0.,0.,0.));
#1810=CARTESIAN_POINT('',(0.,0.,-4.2));
#1811=CARTESIAN_POINT('',(-13.,0.,-4.2));
#1812=CARTESIAN_POINT('',(0.,0.,4.20000000000001));
#1813=CARTESIAN_POINT('',(0.,0.,-4.2));
#1814=CARTESIAN_POINT('',(0.,0.,-4.2));
#1815=CARTESIAN_POINT('',(0.,0.,4.20000000000001));
#1816=MECHANICAL_DESIGN_GEOMETRIC_PRESENTATION_REPRESENTATION('',(#1077),
#1817);
#1817=(
GEOMETRIC_REPRESENTATION_CONTEXT(3)
GLOBAL_UNCERTAINTY_ASSIGNED_CONTEXT((#1818))
GLOBAL_UNIT_ASSIGNED_CONTEXT((#1821,#1820,#1819))
REPRESENTATION_CONTEXT('\X2\63A8529B570667F16EDA5B508F74627F\X0\1 GBT4
663-2017','TOP_LEVEL_ASSEMBLY_PART')
);
#1818=UNCERTAINTY_MEASURE_WITH_UNIT(LENGTH_MEASURE(0.005),#1821,
'DISTANCE_ACCURACY_VALUE','Maximum Tolerance applied to model');
#1819=(
NAMED_UNIT(*)
SI_UNIT($,.STERADIAN.)
SOLID_ANGLE_UNIT()
);
#1820=(
NAMED_UNIT(*)
PLANE_ANGLE_UNIT()
SI_UNIT($,.RADIAN.)
);
#1821=(
LENGTH_UNIT()
NAMED_UNIT(*)
SI_UNIT(.MILLI.,.METRE.)
);
#1822=PRODUCT_DEFINITION_SHAPE('','',#1823);
#1823=PRODUCT_DEFINITION('','',#1825,#1824);
#1824=PRODUCT_DEFINITION_CONTEXT('',#1831,'design');
#1825=PRODUCT_DEFINITION_FORMATION_WITH_SPECIFIED_SOURCE('','',#1827,
 .NOT_KNOWN.);
#1826=PRODUCT_RELATED_PRODUCT_CATEGORY('','',(#1827));
#1827=PRODUCT('\X2\63A8529B570667F16EDA5B508F74627F\X0\1 GBT4663-2017',
'\X2\63A8529B570667F16EDA5B508F74627F\X0\1 GBT4663-2017',
'\X2\63A8529B570667F16EDA5B508F74627F\X0\1 GBT4663-2017',(#1829));
#1828=PRODUCT_CATEGORY('','');
#1829=PRODUCT_CONTEXT('',#1831,'mechanical');
#1830=APPLICATION_PROTOCOL_DEFINITION('international standard',
'automotive_design',2010,#1831);
#1831=APPLICATION_CONTEXT(
'core data for automotive mechanical design processes');
ENDSEC;
END-ISO-10303-21;
