ISO-10303-21;
HEADER;
/* Generated by software containing HOOPS Exchange Step
 * from HOOPS Exchange, Inc. (www.tiangong.cloud) 
 */

FILE_DESCRIPTION(
/* description */ ('Unknown'),
/* implementation_level */ '2;1');

FILE_NAME(
/* name */ 'tmp49C6.tmp',
/* time_stamp */ '2024-12-22T17:36:53+08:00',
/* author */ ('Unknown'),
/* organization */ ('Unknown'),
/* preprocessor_version */ 'ST-DEVELOPER v18.104',
/* originating_system */ 'TianGong',
/* authorisation */ 'Unknown');

FILE_SCHEMA (('AUTOMOTIVE_DESIGN {1 0 10303 214 3 1 1}'));
ENDSEC;

DATA;
#10=PROPERTY_DEFINITION_REPRESENTATION(#14,#12);
#11=PROPERTY_DEFINITION_REPRESENTATION(#15,#13);
#12=REPRESENTATION('',(#16),#731);
#13=REPRESENTATION('',(#17),#731);
#14=PROPERTY_DEFINITION('pmi validation property','',#736);
#15=PROPERTY_DEFINITION('pmi validation property','',#736);
#16=VALUE_REPRESENTATION_ITEM('number of annotations',COUNT_MEASURE(0.));
#17=VALUE_REPRESENTATION_ITEM('number of views',COUNT_MEASURE(0.));
#18=TOROIDAL_SURFACE('',#492,13.,1.66666666666667);
#19=TOROIDAL_SURFACE('',#501,10.3,0.3);
#20=TOROIDAL_SURFACE('',#502,10.3,0.3);
#21=TOROIDAL_SURFACE('',#517,13.,1.66666666666667);
#22=TOROIDAL_SURFACE('',#520,15.7,0.3);
#23=TOROIDAL_SURFACE('',#521,15.7,0.3);
#24=CYLINDRICAL_SURFACE('',#490,12.);
#25=CYLINDRICAL_SURFACE('',#494,12.);
#26=CYLINDRICAL_SURFACE('',#498,10.);
#27=CYLINDRICAL_SURFACE('',#503,16.);
#28=CYLINDRICAL_SURFACE('',#506,16.);
#29=CYLINDRICAL_SURFACE('',#515,14.);
#30=CYLINDRICAL_SURFACE('',#519,14.);
#31=CYLINDRICAL_SURFACE('',#522,15.35);
#32=ORIENTED_EDGE('',*,*,#72,.T.);
#33=ORIENTED_EDGE('',*,*,#73,.F.);
#34=ORIENTED_EDGE('',*,*,#74,.F.);
#35=ORIENTED_EDGE('',*,*,#73,.T.);
#36=ORIENTED_EDGE('',*,*,#75,.F.);
#37=ORIENTED_EDGE('',*,*,#74,.T.);
#38=ORIENTED_EDGE('',*,*,#76,.F.);
#39=ORIENTED_EDGE('',*,*,#75,.T.);
#40=ORIENTED_EDGE('',*,*,#77,.T.);
#41=ORIENTED_EDGE('',*,*,#76,.T.);
#42=ORIENTED_EDGE('',*,*,#78,.T.);
#43=ORIENTED_EDGE('',*,*,#79,.T.);
#44=ORIENTED_EDGE('',*,*,#77,.F.);
#45=ORIENTED_EDGE('',*,*,#79,.F.);
#46=ORIENTED_EDGE('',*,*,#78,.F.);
#47=ORIENTED_EDGE('',*,*,#72,.F.);
#48=ORIENTED_EDGE('',*,*,#80,.T.);
#49=ORIENTED_EDGE('',*,*,#81,.F.);
#50=ORIENTED_EDGE('',*,*,#82,.T.);
#51=ORIENTED_EDGE('',*,*,#83,.T.);
#52=ORIENTED_EDGE('',*,*,#84,.T.);
#53=ORIENTED_EDGE('',*,*,#85,.T.);
#54=ORIENTED_EDGE('',*,*,#86,.T.);
#55=ORIENTED_EDGE('',*,*,#87,.F.);
#56=ORIENTED_EDGE('',*,*,#88,.F.);
#57=ORIENTED_EDGE('',*,*,#87,.T.);
#58=ORIENTED_EDGE('',*,*,#89,.F.);
#59=ORIENTED_EDGE('',*,*,#88,.T.);
#60=ORIENTED_EDGE('',*,*,#85,.F.);
#61=ORIENTED_EDGE('',*,*,#89,.T.);
#62=ORIENTED_EDGE('',*,*,#84,.F.);
#63=ORIENTED_EDGE('',*,*,#80,.F.);
#64=ORIENTED_EDGE('',*,*,#82,.F.);
#65=ORIENTED_EDGE('',*,*,#86,.F.);
#66=ORIENTED_EDGE('',*,*,#90,.T.);
#67=ORIENTED_EDGE('',*,*,#91,.F.);
#68=ORIENTED_EDGE('',*,*,#81,.T.);
#69=ORIENTED_EDGE('',*,*,#90,.F.);
#70=ORIENTED_EDGE('',*,*,#91,.T.);
#71=ORIENTED_EDGE('',*,*,#83,.F.);
#72=EDGE_CURVE('',#175,#175,#92,.T.);
#73=EDGE_CURVE('',#176,#176,#93,.T.);
#74=EDGE_CURVE('',#177,#177,#94,.T.);
#75=EDGE_CURVE('',#178,#178,#95,.T.);
#76=EDGE_CURVE('',#179,#179,#96,.T.);
#77=EDGE_CURVE('',#180,#180,#97,.T.);
#78=EDGE_CURVE('',#181,#181,#98,.F.);
#79=EDGE_CURVE('',#182,#182,#99,.F.);
#80=EDGE_CURVE('',#183,#183,#100,.T.);
#81=EDGE_CURVE('',#184,#184,#101,.T.);
#82=EDGE_CURVE('',#185,#185,#102,.T.);
#83=EDGE_CURVE('',#186,#186,#103,.T.);
#84=EDGE_CURVE('',#187,#187,#104,.F.);
#85=EDGE_CURVE('',#188,#188,#105,.T.);
#86=EDGE_CURVE('',#189,#189,#106,.F.);
#87=EDGE_CURVE('',#190,#190,#107,.T.);
#88=EDGE_CURVE('',#191,#191,#108,.T.);
#89=EDGE_CURVE('',#192,#192,#109,.T.);
#90=EDGE_CURVE('',#193,#193,#110,.T.);
#91=EDGE_CURVE('',#194,#194,#111,.T.);
#92=CIRCLE('',#488,10.3);
#93=CIRCLE('',#489,12.);
#94=CIRCLE('',#491,12.);
#95=CIRCLE('',#493,12.);
#96=CIRCLE('',#495,12.);
#97=CIRCLE('',#497,10.3);
#98=CIRCLE('',#499,10.);
#99=CIRCLE('',#500,10.);
#100=CIRCLE('',#504,16.);
#101=CIRCLE('',#505,16.);
#102=CIRCLE('',#507,16.);
#103=CIRCLE('',#508,16.);
#104=CIRCLE('',#510,15.7);
#105=CIRCLE('',#511,14.);
#106=CIRCLE('',#513,15.7);
#107=CIRCLE('',#514,14.);
#108=CIRCLE('',#516,14.);
#109=CIRCLE('',#518,14.);
#110=CIRCLE('',#523,15.35);
#111=CIRCLE('',#524,15.35);
#112=EDGE_LOOP('',(#32));
#113=EDGE_LOOP('',(#33));
#114=EDGE_LOOP('',(#34));
#115=EDGE_LOOP('',(#35));
#116=EDGE_LOOP('',(#36));
#117=EDGE_LOOP('',(#37));
#118=EDGE_LOOP('',(#38));
#119=EDGE_LOOP('',(#39));
#120=EDGE_LOOP('',(#40));
#121=EDGE_LOOP('',(#41));
#122=EDGE_LOOP('',(#42));
#123=EDGE_LOOP('',(#43));
#124=EDGE_LOOP('',(#44));
#125=EDGE_LOOP('',(#45));
#126=EDGE_LOOP('',(#46));
#127=EDGE_LOOP('',(#47));
#128=EDGE_LOOP('',(#48));
#129=EDGE_LOOP('',(#49));
#130=EDGE_LOOP('',(#50));
#131=EDGE_LOOP('',(#51));
#132=EDGE_LOOP('',(#52));
#133=EDGE_LOOP('',(#53));
#134=EDGE_LOOP('',(#54));
#135=EDGE_LOOP('',(#55));
#136=EDGE_LOOP('',(#56));
#137=EDGE_LOOP('',(#57));
#138=EDGE_LOOP('',(#58));
#139=EDGE_LOOP('',(#59));
#140=EDGE_LOOP('',(#60));
#141=EDGE_LOOP('',(#61));
#142=EDGE_LOOP('',(#62));
#143=EDGE_LOOP('',(#63));
#144=EDGE_LOOP('',(#64));
#145=EDGE_LOOP('',(#65));
#146=EDGE_LOOP('',(#66));
#147=EDGE_LOOP('',(#67));
#148=EDGE_LOOP('',(#68));
#149=EDGE_LOOP('',(#69));
#150=EDGE_LOOP('',(#70));
#151=EDGE_LOOP('',(#71));
#152=PLANE('',#487);
#153=PLANE('',#496);
#154=PLANE('',#509);
#155=PLANE('',#512);
#156=PLANE('',#525);
#157=PLANE('',#526);
#158=SHAPE_REPRESENTATION_RELATIONSHIP('','',#470,#159);
#159=ADVANCED_BREP_SHAPE_REPRESENTATION('',(#452,#453,#454,#455,#456,#457,
#458,#459,#460,#461,#462,#463,#464,#465,#466,#467,#468),#731);
#160=VERTEX_POINT('',#641);
#161=VERTEX_POINT('',#643);
#162=VERTEX_POINT('',#645);
#163=VERTEX_POINT('',#647);
#164=VERTEX_POINT('',#649);
#165=VERTEX_POINT('',#651);
#166=VERTEX_POINT('',#653);
#167=VERTEX_POINT('',#655);
#168=VERTEX_POINT('',#657);
#169=VERTEX_POINT('',#659);
#170=VERTEX_POINT('',#661);
#171=VERTEX_POINT('',#663);
#172=VERTEX_POINT('',#665);
#173=VERTEX_POINT('',#667);
#174=VERTEX_POINT('',#669);
#175=VERTEX_POINT('',#672);
#176=VERTEX_POINT('',#674);
#177=VERTEX_POINT('',#677);
#178=VERTEX_POINT('',#680);
#179=VERTEX_POINT('',#683);
#180=VERTEX_POINT('',#686);
#181=VERTEX_POINT('',#689);
#182=VERTEX_POINT('',#691);
#183=VERTEX_POINT('',#696);
#184=VERTEX_POINT('',#698);
#185=VERTEX_POINT('',#701);
#186=VERTEX_POINT('',#703);
#187=VERTEX_POINT('',#706);
#188=VERTEX_POINT('',#708);
#189=VERTEX_POINT('',#711);
#190=VERTEX_POINT('',#713);
#191=VERTEX_POINT('',#716);
#192=VERTEX_POINT('',#719);
#193=VERTEX_POINT('',#725);
#194=VERTEX_POINT('',#727);
#195=VERTEX_LOOP('',#160);
#196=VERTEX_LOOP('',#161);
#197=VERTEX_LOOP('',#162);
#198=VERTEX_LOOP('',#163);
#199=VERTEX_LOOP('',#164);
#200=VERTEX_LOOP('',#165);
#201=VERTEX_LOOP('',#166);
#202=VERTEX_LOOP('',#167);
#203=VERTEX_LOOP('',#168);
#204=VERTEX_LOOP('',#169);
#205=VERTEX_LOOP('',#170);
#206=VERTEX_LOOP('',#171);
#207=VERTEX_LOOP('',#172);
#208=VERTEX_LOOP('',#173);
#209=VERTEX_LOOP('',#174);
#210=FACE_BOUND('',#195,.T.);
#211=FACE_BOUND('',#196,.T.);
#212=FACE_BOUND('',#197,.T.);
#213=FACE_BOUND('',#198,.T.);
#214=FACE_BOUND('',#199,.T.);
#215=FACE_BOUND('',#200,.T.);
#216=FACE_BOUND('',#201,.T.);
#217=FACE_BOUND('',#202,.T.);
#218=FACE_BOUND('',#203,.T.);
#219=FACE_BOUND('',#204,.T.);
#220=FACE_BOUND('',#205,.T.);
#221=FACE_BOUND('',#206,.T.);
#222=FACE_BOUND('',#207,.T.);
#223=FACE_BOUND('',#208,.T.);
#224=FACE_BOUND('',#209,.T.);
#225=FACE_BOUND('',#112,.T.);
#226=FACE_BOUND('',#113,.T.);
#227=FACE_BOUND('',#114,.T.);
#228=FACE_BOUND('',#115,.T.);
#229=FACE_BOUND('',#116,.T.);
#230=FACE_BOUND('',#117,.T.);
#231=FACE_BOUND('',#118,.T.);
#232=FACE_BOUND('',#119,.T.);
#233=FACE_BOUND('',#120,.T.);
#234=FACE_BOUND('',#121,.T.);
#235=FACE_BOUND('',#122,.T.);
#236=FACE_BOUND('',#123,.T.);
#237=FACE_BOUND('',#124,.T.);
#238=FACE_BOUND('',#125,.T.);
#239=FACE_BOUND('',#126,.T.);
#240=FACE_BOUND('',#127,.T.);
#241=FACE_BOUND('',#128,.T.);
#242=FACE_BOUND('',#129,.T.);
#243=FACE_BOUND('',#130,.T.);
#244=FACE_BOUND('',#131,.T.);
#245=FACE_BOUND('',#132,.T.);
#246=FACE_BOUND('',#133,.T.);
#247=FACE_BOUND('',#134,.T.);
#248=FACE_BOUND('',#135,.T.);
#249=FACE_BOUND('',#136,.T.);
#250=FACE_BOUND('',#137,.T.);
#251=FACE_BOUND('',#138,.T.);
#252=FACE_BOUND('',#139,.T.);
#253=FACE_BOUND('',#140,.T.);
#254=FACE_BOUND('',#141,.T.);
#255=FACE_BOUND('',#142,.T.);
#256=FACE_BOUND('',#143,.T.);
#257=FACE_BOUND('',#144,.T.);
#258=FACE_BOUND('',#145,.T.);
#259=FACE_BOUND('',#146,.T.);
#260=FACE_BOUND('',#147,.T.);
#261=FACE_BOUND('',#148,.T.);
#262=FACE_BOUND('',#149,.T.);
#263=FACE_BOUND('',#150,.T.);
#264=FACE_BOUND('',#151,.T.);
#265=SPHERICAL_SURFACE('',#472,1.66566666666667);
#266=SPHERICAL_SURFACE('',#473,1.66566666666667);
#267=SPHERICAL_SURFACE('',#474,1.66566666666667);
#268=SPHERICAL_SURFACE('',#475,1.66566666666667);
#269=SPHERICAL_SURFACE('',#476,1.66566666666667);
#270=SPHERICAL_SURFACE('',#477,1.66566666666667);
#271=SPHERICAL_SURFACE('',#478,1.66566666666667);
#272=SPHERICAL_SURFACE('',#479,1.66566666666667);
#273=SPHERICAL_SURFACE('',#480,1.66566666666667);
#274=SPHERICAL_SURFACE('',#481,1.66566666666667);
#275=SPHERICAL_SURFACE('',#482,1.66566666666667);
#276=SPHERICAL_SURFACE('',#483,1.66566666666667);
#277=SPHERICAL_SURFACE('',#484,1.66566666666667);
#278=SPHERICAL_SURFACE('',#485,1.66566666666667);
#279=SPHERICAL_SURFACE('',#486,1.66566666666667);
#280=ADVANCED_FACE('',(#210),#265,.T.);
#281=ADVANCED_FACE('',(#211),#266,.T.);
#282=ADVANCED_FACE('',(#212),#267,.T.);
#283=ADVANCED_FACE('',(#213),#268,.T.);
#284=ADVANCED_FACE('',(#214),#269,.T.);
#285=ADVANCED_FACE('',(#215),#270,.T.);
#286=ADVANCED_FACE('',(#216),#271,.T.);
#287=ADVANCED_FACE('',(#217),#272,.T.);
#288=ADVANCED_FACE('',(#218),#273,.T.);
#289=ADVANCED_FACE('',(#219),#274,.T.);
#290=ADVANCED_FACE('',(#220),#275,.T.);
#291=ADVANCED_FACE('',(#221),#276,.T.);
#292=ADVANCED_FACE('',(#222),#277,.T.);
#293=ADVANCED_FACE('',(#223),#278,.T.);
#294=ADVANCED_FACE('',(#224),#279,.T.);
#295=ADVANCED_FACE('',(#225,#226),#152,.F.);
#296=ADVANCED_FACE('',(#227,#228),#24,.T.);
#297=ADVANCED_FACE('',(#229,#230),#18,.F.);
#298=ADVANCED_FACE('',(#231,#232),#25,.T.);
#299=ADVANCED_FACE('',(#233,#234),#153,.F.);
#300=ADVANCED_FACE('',(#235,#236),#26,.F.);
#301=ADVANCED_FACE('',(#237,#238),#19,.T.);
#302=ADVANCED_FACE('',(#239,#240),#20,.T.);
#303=ADVANCED_FACE('',(#241,#242),#27,.T.);
#304=ADVANCED_FACE('',(#243,#244),#28,.T.);
#305=ADVANCED_FACE('',(#245,#246),#154,.F.);
#306=ADVANCED_FACE('',(#247,#248),#155,.F.);
#307=ADVANCED_FACE('',(#249,#250),#29,.F.);
#308=ADVANCED_FACE('',(#251,#252),#21,.F.);
#309=ADVANCED_FACE('',(#253,#254),#30,.F.);
#310=ADVANCED_FACE('',(#255,#256),#22,.T.);
#311=ADVANCED_FACE('',(#257,#258),#23,.T.);
#312=ADVANCED_FACE('',(#259,#260),#31,.T.);
#313=ADVANCED_FACE('',(#261,#262),#156,.T.);
#314=ADVANCED_FACE('',(#263,#264),#157,.T.);
#315=CLOSED_SHELL('',(#280));
#316=CLOSED_SHELL('',(#281));
#317=CLOSED_SHELL('',(#282));
#318=CLOSED_SHELL('',(#283));
#319=CLOSED_SHELL('',(#284));
#320=CLOSED_SHELL('',(#285));
#321=CLOSED_SHELL('',(#286));
#322=CLOSED_SHELL('',(#287));
#323=CLOSED_SHELL('',(#288));
#324=CLOSED_SHELL('',(#289));
#325=CLOSED_SHELL('',(#290));
#326=CLOSED_SHELL('',(#291));
#327=CLOSED_SHELL('',(#292));
#328=CLOSED_SHELL('',(#293));
#329=CLOSED_SHELL('',(#294));
#330=CLOSED_SHELL('',(#295,#296,#297,#298,#299,#300,#301,#302));
#331=CLOSED_SHELL('',(#303,#304,#305,#306,#307,#308,#309,#310,#311,#312,
#313,#314));
#332=STYLED_ITEM('',(#349),#452);
#333=STYLED_ITEM('',(#350),#453);
#334=STYLED_ITEM('',(#351),#454);
#335=STYLED_ITEM('',(#352),#455);
#336=STYLED_ITEM('',(#353),#456);
#337=STYLED_ITEM('',(#354),#457);
#338=STYLED_ITEM('',(#355),#458);
#339=STYLED_ITEM('',(#356),#459);
#340=STYLED_ITEM('',(#357),#460);
#341=STYLED_ITEM('',(#358),#461);
#342=STYLED_ITEM('',(#359),#462);
#343=STYLED_ITEM('',(#360),#463);
#344=STYLED_ITEM('',(#361),#464);
#345=STYLED_ITEM('',(#362),#465);
#346=STYLED_ITEM('',(#363),#466);
#347=STYLED_ITEM('',(#364),#467);
#348=STYLED_ITEM('',(#365),#468);
#349=PRESENTATION_STYLE_ASSIGNMENT((#366));
#350=PRESENTATION_STYLE_ASSIGNMENT((#367));
#351=PRESENTATION_STYLE_ASSIGNMENT((#368));
#352=PRESENTATION_STYLE_ASSIGNMENT((#369));
#353=PRESENTATION_STYLE_ASSIGNMENT((#370));
#354=PRESENTATION_STYLE_ASSIGNMENT((#371));
#355=PRESENTATION_STYLE_ASSIGNMENT((#372));
#356=PRESENTATION_STYLE_ASSIGNMENT((#373));
#357=PRESENTATION_STYLE_ASSIGNMENT((#374));
#358=PRESENTATION_STYLE_ASSIGNMENT((#375));
#359=PRESENTATION_STYLE_ASSIGNMENT((#376));
#360=PRESENTATION_STYLE_ASSIGNMENT((#377));
#361=PRESENTATION_STYLE_ASSIGNMENT((#378));
#362=PRESENTATION_STYLE_ASSIGNMENT((#379));
#363=PRESENTATION_STYLE_ASSIGNMENT((#380));
#364=PRESENTATION_STYLE_ASSIGNMENT((#381));
#365=PRESENTATION_STYLE_ASSIGNMENT((#382));
#366=SURFACE_STYLE_USAGE(.BOTH.,#383);
#367=SURFACE_STYLE_USAGE(.BOTH.,#384);
#368=SURFACE_STYLE_USAGE(.BOTH.,#385);
#369=SURFACE_STYLE_USAGE(.BOTH.,#386);
#370=SURFACE_STYLE_USAGE(.BOTH.,#387);
#371=SURFACE_STYLE_USAGE(.BOTH.,#388);
#372=SURFACE_STYLE_USAGE(.BOTH.,#389);
#373=SURFACE_STYLE_USAGE(.BOTH.,#390);
#374=SURFACE_STYLE_USAGE(.BOTH.,#391);
#375=SURFACE_STYLE_USAGE(.BOTH.,#392);
#376=SURFACE_STYLE_USAGE(.BOTH.,#393);
#377=SURFACE_STYLE_USAGE(.BOTH.,#394);
#378=SURFACE_STYLE_USAGE(.BOTH.,#395);
#379=SURFACE_STYLE_USAGE(.BOTH.,#396);
#380=SURFACE_STYLE_USAGE(.BOTH.,#397);
#381=SURFACE_STYLE_USAGE(.BOTH.,#398);
#382=SURFACE_STYLE_USAGE(.BOTH.,#399);
#383=SURFACE_SIDE_STYLE('',(#400));
#384=SURFACE_SIDE_STYLE('',(#401));
#385=SURFACE_SIDE_STYLE('',(#402));
#386=SURFACE_SIDE_STYLE('',(#403));
#387=SURFACE_SIDE_STYLE('',(#404));
#388=SURFACE_SIDE_STYLE('',(#405));
#389=SURFACE_SIDE_STYLE('',(#406));
#390=SURFACE_SIDE_STYLE('',(#407));
#391=SURFACE_SIDE_STYLE('',(#408));
#392=SURFACE_SIDE_STYLE('',(#409));
#393=SURFACE_SIDE_STYLE('',(#410));
#394=SURFACE_SIDE_STYLE('',(#411));
#395=SURFACE_SIDE_STYLE('',(#412));
#396=SURFACE_SIDE_STYLE('',(#413));
#397=SURFACE_SIDE_STYLE('',(#414));
#398=SURFACE_SIDE_STYLE('',(#415));
#399=SURFACE_SIDE_STYLE('',(#416));
#400=SURFACE_STYLE_FILL_AREA(#417);
#401=SURFACE_STYLE_FILL_AREA(#418);
#402=SURFACE_STYLE_FILL_AREA(#419);
#403=SURFACE_STYLE_FILL_AREA(#420);
#404=SURFACE_STYLE_FILL_AREA(#421);
#405=SURFACE_STYLE_FILL_AREA(#422);
#406=SURFACE_STYLE_FILL_AREA(#423);
#407=SURFACE_STYLE_FILL_AREA(#424);
#408=SURFACE_STYLE_FILL_AREA(#425);
#409=SURFACE_STYLE_FILL_AREA(#426);
#410=SURFACE_STYLE_FILL_AREA(#427);
#411=SURFACE_STYLE_FILL_AREA(#428);
#412=SURFACE_STYLE_FILL_AREA(#429);
#413=SURFACE_STYLE_FILL_AREA(#430);
#414=SURFACE_STYLE_FILL_AREA(#431);
#415=SURFACE_STYLE_FILL_AREA(#432);
#416=SURFACE_STYLE_FILL_AREA(#433);
#417=FILL_AREA_STYLE('',(#434));
#418=FILL_AREA_STYLE('',(#435));
#419=FILL_AREA_STYLE('',(#436));
#420=FILL_AREA_STYLE('',(#437));
#421=FILL_AREA_STYLE('',(#438));
#422=FILL_AREA_STYLE('',(#439));
#423=FILL_AREA_STYLE('',(#440));
#424=FILL_AREA_STYLE('',(#441));
#425=FILL_AREA_STYLE('',(#442));
#426=FILL_AREA_STYLE('',(#443));
#427=FILL_AREA_STYLE('',(#444));
#428=FILL_AREA_STYLE('',(#445));
#429=FILL_AREA_STYLE('',(#446));
#430=FILL_AREA_STYLE('',(#447));
#431=FILL_AREA_STYLE('',(#448));
#432=FILL_AREA_STYLE('',(#449));
#433=FILL_AREA_STYLE('',(#450));
#434=FILL_AREA_STYLE_COLOUR('',#451);
#435=FILL_AREA_STYLE_COLOUR('',#451);
#436=FILL_AREA_STYLE_COLOUR('',#451);
#437=FILL_AREA_STYLE_COLOUR('',#451);
#438=FILL_AREA_STYLE_COLOUR('',#451);
#439=FILL_AREA_STYLE_COLOUR('',#451);
#440=FILL_AREA_STYLE_COLOUR('',#451);
#441=FILL_AREA_STYLE_COLOUR('',#451);
#442=FILL_AREA_STYLE_COLOUR('',#451);
#443=FILL_AREA_STYLE_COLOUR('',#451);
#444=FILL_AREA_STYLE_COLOUR('',#451);
#445=FILL_AREA_STYLE_COLOUR('',#451);
#446=FILL_AREA_STYLE_COLOUR('',#451);
#447=FILL_AREA_STYLE_COLOUR('',#451);
#448=FILL_AREA_STYLE_COLOUR('',#451);
#449=FILL_AREA_STYLE_COLOUR('',#451);
#450=FILL_AREA_STYLE_COLOUR('',#451);
#451=COLOUR_RGB('',0.506983280181885,0.531564235687256,0.550000011920929);
#452=MANIFOLD_SOLID_BREP('',#315);
#453=MANIFOLD_SOLID_BREP('',#316);
#454=MANIFOLD_SOLID_BREP('',#317);
#455=MANIFOLD_SOLID_BREP('',#318);
#456=MANIFOLD_SOLID_BREP('',#319);
#457=MANIFOLD_SOLID_BREP('',#320);
#458=MANIFOLD_SOLID_BREP('',#321);
#459=MANIFOLD_SOLID_BREP('',#322);
#460=MANIFOLD_SOLID_BREP('',#323);
#461=MANIFOLD_SOLID_BREP('',#324);
#462=MANIFOLD_SOLID_BREP('',#325);
#463=MANIFOLD_SOLID_BREP('',#326);
#464=MANIFOLD_SOLID_BREP('',#327);
#465=MANIFOLD_SOLID_BREP('',#328);
#466=MANIFOLD_SOLID_BREP('',#329);
#467=MANIFOLD_SOLID_BREP('',#330);
#468=MANIFOLD_SOLID_BREP('',#331);
#469=SHAPE_DEFINITION_REPRESENTATION(#736,#470);
#470=SHAPE_REPRESENTATION(
'\X2\5916570867096B6252A869FD76846DF16C9F74038F74627F\X0\60000N\X2\578B\X0\',
(#471),#731);
#471=AXIS2_PLACEMENT_3D('',#639,#527,#528);
#472=AXIS2_PLACEMENT_3D('',#640,#529,#530);
#473=AXIS2_PLACEMENT_3D('',#642,#531,#532);
#474=AXIS2_PLACEMENT_3D('',#644,#533,#534);
#475=AXIS2_PLACEMENT_3D('',#646,#535,#536);
#476=AXIS2_PLACEMENT_3D('',#648,#537,#538);
#477=AXIS2_PLACEMENT_3D('',#650,#539,#540);
#478=AXIS2_PLACEMENT_3D('',#652,#541,#542);
#479=AXIS2_PLACEMENT_3D('',#654,#543,#544);
#480=AXIS2_PLACEMENT_3D('',#656,#545,#546);
#481=AXIS2_PLACEMENT_3D('',#658,#547,#548);
#482=AXIS2_PLACEMENT_3D('',#660,#549,#550);
#483=AXIS2_PLACEMENT_3D('',#662,#551,#552);
#484=AXIS2_PLACEMENT_3D('',#664,#553,#554);
#485=AXIS2_PLACEMENT_3D('',#666,#555,#556);
#486=AXIS2_PLACEMENT_3D('',#668,#557,#558);
#487=AXIS2_PLACEMENT_3D('',#670,#559,#560);
#488=AXIS2_PLACEMENT_3D('',#671,#561,#562);
#489=AXIS2_PLACEMENT_3D('',#673,#563,#564);
#490=AXIS2_PLACEMENT_3D('',#675,#565,#566);
#491=AXIS2_PLACEMENT_3D('',#676,#567,#568);
#492=AXIS2_PLACEMENT_3D('',#678,#569,#570);
#493=AXIS2_PLACEMENT_3D('',#679,#571,#572);
#494=AXIS2_PLACEMENT_3D('',#681,#573,#574);
#495=AXIS2_PLACEMENT_3D('',#682,#575,#576);
#496=AXIS2_PLACEMENT_3D('',#684,#577,#578);
#497=AXIS2_PLACEMENT_3D('',#685,#579,#580);
#498=AXIS2_PLACEMENT_3D('',#687,#581,#582);
#499=AXIS2_PLACEMENT_3D('',#688,#583,#584);
#500=AXIS2_PLACEMENT_3D('',#690,#585,#586);
#501=AXIS2_PLACEMENT_3D('',#692,#587,#588);
#502=AXIS2_PLACEMENT_3D('',#693,#589,#590);
#503=AXIS2_PLACEMENT_3D('',#694,#591,#592);
#504=AXIS2_PLACEMENT_3D('',#695,#593,#594);
#505=AXIS2_PLACEMENT_3D('',#697,#595,#596);
#506=AXIS2_PLACEMENT_3D('',#699,#597,#598);
#507=AXIS2_PLACEMENT_3D('',#700,#599,#600);
#508=AXIS2_PLACEMENT_3D('',#702,#601,#602);
#509=AXIS2_PLACEMENT_3D('',#704,#603,#604);
#510=AXIS2_PLACEMENT_3D('',#705,#605,#606);
#511=AXIS2_PLACEMENT_3D('',#707,#607,#608);
#512=AXIS2_PLACEMENT_3D('',#709,#609,#610);
#513=AXIS2_PLACEMENT_3D('',#710,#611,#612);
#514=AXIS2_PLACEMENT_3D('',#712,#613,#614);
#515=AXIS2_PLACEMENT_3D('',#714,#615,#616);
#516=AXIS2_PLACEMENT_3D('',#715,#617,#618);
#517=AXIS2_PLACEMENT_3D('',#717,#619,#620);
#518=AXIS2_PLACEMENT_3D('',#718,#621,#622);
#519=AXIS2_PLACEMENT_3D('',#720,#623,#624);
#520=AXIS2_PLACEMENT_3D('',#721,#625,#626);
#521=AXIS2_PLACEMENT_3D('',#722,#627,#628);
#522=AXIS2_PLACEMENT_3D('',#723,#629,#630);
#523=AXIS2_PLACEMENT_3D('',#724,#631,#632);
#524=AXIS2_PLACEMENT_3D('',#726,#633,#634);
#525=AXIS2_PLACEMENT_3D('',#728,#635,#636);
#526=AXIS2_PLACEMENT_3D('',#729,#637,#638);
#527=DIRECTION('',(0.,0.,1.));
#528=DIRECTION('',(1.,0.,0.));
#529=DIRECTION('',(-0.4067366430758,-9.75600660425848E-17,0.913545457642601));
#530=DIRECTION('',(-1.14194448872471E-17,-1.,-1.11877052057761E-16));
#531=DIRECTION('',(-0.866025403784438,-6.94376693124346E-17,-0.500000000000001));
#532=DIRECTION('',(4.48272061813718E-17,-1.,6.12323399573677E-17));
#533=DIRECTION('',(0.587785252292473,-1.58454957646758E-16,-0.809016994374947));
#534=DIRECTION('',(-1.33213250471719E-16,-1.,9.90760072617091E-17));
#535=DIRECTION('',(0.743144825477394,-1.67967673669227E-16,0.669130606358858));
#536=DIRECTION('',(-1.522393108735E-16,-1.,-8.19448655288903E-17));
#537=DIRECTION('',(-0.743144825477394,-7.69616861602434E-17,0.669130606358858));
#538=DIRECTION('',(2.9778675491262E-17,-1.,-8.19448655288903E-17));
#539=DIRECTION('',(-0.951056516295154,-6.42311872797743E-17,0.309016994374947));
#540=DIRECTION('',(5.52405141577904E-17,-1.,-3.78436673043415E-17));
#541=DIRECTION('',(-0.994521895368273,-6.15697883105622E-17,-0.104528463267654));
#542=DIRECTION('',(6.05634878933526E-17,-1.,1.28010447960524E-17));
#543=DIRECTION('',(-0.587785252292473,-8.64744021827127E-17,-0.809016994374948));
#544=DIRECTION('',(1.07526150894808E-17,-1.,9.90760072617092E-17));
#545=DIRECTION('',(-0.207911690817758,-1.09734181034266E-16,-0.978147600733806));
#546=DIRECTION('',(-3.57684790245907E-17,-1.,1.19788532833232E-16));
#547=DIRECTION('',(0.20791169081776,-1.35195178795204E-16,-0.978147600733806));
#548=DIRECTION('',(-8.66921563576472E-17,-1.,1.19788532833232E-16));
#549=DIRECTION('',(0.866025403784439,-1.75491690517036E-16,-0.5));
#550=DIRECTION('',(-1.6728784156361E-16,-1.,6.12323399573676E-17));
#551=DIRECTION('',(0.994521895368273,-1.83359571518908E-16,-0.104528463267653));
#552=DIRECTION('',(-1.8302412327559E-16,-1.,1.28010447960523E-17));
#553=DIRECTION('',(0.951056516295154,-1.80698172549696E-16,0.309016994374947));
#554=DIRECTION('',(-1.77701149540028E-16,-1.,-3.78436673043415E-17));
#555=DIRECTION('',(0.4067366430758,-1.47369293786886E-16,0.913545457642601));
#556=DIRECTION('',(-1.11041190494991E-16,-1.,-1.11877052057761E-16));
#557=DIRECTION('',(-7.49855125712043E-33,-1.22464679914735E-16,1.));
#558=DIRECTION('',(-6.12303176911189E-17,-1.,-1.22464679914735E-16));
#559=DIRECTION('',(-6.12303176911189E-17,-1.,0.));
#560=DIRECTION('',(1.,-6.12303176911189E-17,0.));
#561=DIRECTION('',(-6.12303176911189E-17,-1.,0.));
#562=DIRECTION('',(1.,-6.12303176911189E-17,0.));
#563=DIRECTION('',(-6.12303176911189E-17,-1.,0.));
#564=DIRECTION('',(1.,-6.12303176911189E-17,0.));
#565=DIRECTION('',(-6.12303176911189E-17,-1.,0.));
#566=DIRECTION('',(1.,-6.12303176911189E-17,0.));
#567=DIRECTION('',(-6.12303176911189E-17,-1.,0.));
#568=DIRECTION('',(1.,-6.12303176911189E-17,0.));
#569=DIRECTION('',(-6.12303176911189E-17,-1.,0.));
#570=DIRECTION('',(1.,-6.12303176911189E-17,0.));
#571=DIRECTION('',(-6.12303176911189E-17,-1.,0.));
#572=DIRECTION('',(1.,-6.12303176911189E-17,0.));
#573=DIRECTION('',(-6.12303176911189E-17,-1.,0.));
#574=DIRECTION('',(1.,-6.12303176911189E-17,0.));
#575=DIRECTION('',(-6.12303176911189E-17,-1.,0.));
#576=DIRECTION('',(1.,-6.12303176911189E-17,0.));
#577=DIRECTION('',(6.12303176911189E-17,1.,0.));
#578=DIRECTION('',(-1.,6.12303176911189E-17,0.));
#579=DIRECTION('',(6.12303176911189E-17,1.,0.));
#580=DIRECTION('',(-1.,6.12303176911189E-17,0.));
#581=DIRECTION('',(-6.12303176911189E-17,-1.,0.));
#582=DIRECTION('',(1.,-6.12303176911189E-17,0.));
#583=DIRECTION('',(-6.12303176911189E-17,-1.,0.));
#584=DIRECTION('',(1.,-6.12303176911189E-17,0.));
#585=DIRECTION('',(6.12303176911189E-17,1.,0.));
#586=DIRECTION('',(-1.,6.12303176911189E-17,0.));
#587=DIRECTION('',(6.12303176911189E-17,1.,0.));
#588=DIRECTION('',(-1.,6.12303176911189E-17,0.));
#589=DIRECTION('',(-6.12303176911189E-17,-1.,0.));
#590=DIRECTION('',(1.,-6.12303176911189E-17,0.));
#591=DIRECTION('',(-6.12303176911189E-17,-1.,0.));
#592=DIRECTION('',(1.,-6.12303176911189E-17,0.));
#593=DIRECTION('',(-6.12303176911189E-17,-1.,0.));
#594=DIRECTION('',(1.,-6.12303176911189E-17,0.));
#595=DIRECTION('',(-6.12303176911189E-17,-1.,0.));
#596=DIRECTION('',(1.,-6.12303176911189E-17,0.));
#597=DIRECTION('',(-6.12303176911189E-17,-1.,0.));
#598=DIRECTION('',(1.,-6.12303176911189E-17,0.));
#599=DIRECTION('',(6.12303176911189E-17,1.,0.));
#600=DIRECTION('',(-1.,6.12303176911189E-17,0.));
#601=DIRECTION('',(-6.12303176911189E-17,-1.,0.));
#602=DIRECTION('',(1.,-6.12303176911189E-17,0.));
#603=DIRECTION('',(-6.12303176911189E-17,-1.,0.));
#604=DIRECTION('',(1.,-6.12303176911189E-17,0.));
#605=DIRECTION('',(-6.12303176911189E-17,-1.,0.));
#606=DIRECTION('',(1.,-6.12303176911189E-17,0.));
#607=DIRECTION('',(-6.12303176911189E-17,-1.,0.));
#608=DIRECTION('',(1.,-6.12303176911189E-17,0.));
#609=DIRECTION('',(6.12303176911189E-17,1.,0.));
#610=DIRECTION('',(-1.,6.12303176911189E-17,0.));
#611=DIRECTION('',(6.12303176911189E-17,1.,0.));
#612=DIRECTION('',(-1.,6.12303176911189E-17,0.));
#613=DIRECTION('',(-6.12303176911189E-17,-1.,0.));
#614=DIRECTION('',(1.,-6.12303176911189E-17,0.));
#615=DIRECTION('',(-6.12303176911189E-17,-1.,0.));
#616=DIRECTION('',(1.,-6.12303176911189E-17,0.));
#617=DIRECTION('',(-6.12303176911189E-17,-1.,0.));
#618=DIRECTION('',(1.,-6.12303176911189E-17,0.));
#619=DIRECTION('',(-6.12303176911189E-17,-1.,0.));
#620=DIRECTION('',(1.,-6.12303176911189E-17,0.));
#621=DIRECTION('',(-6.12303176911189E-17,-1.,0.));
#622=DIRECTION('',(1.,-6.12303176911189E-17,0.));
#623=DIRECTION('',(-6.12303176911189E-17,-1.,0.));
#624=DIRECTION('',(1.,-6.12303176911189E-17,0.));
#625=DIRECTION('',(-6.12303176911189E-17,-1.,0.));
#626=DIRECTION('',(1.,-6.12303176911189E-17,0.));
#627=DIRECTION('',(6.12303176911189E-17,1.,0.));
#628=DIRECTION('',(-1.,6.12303176911189E-17,0.));
#629=DIRECTION('',(-6.12303176911189E-17,-1.,0.));
#630=DIRECTION('',(1.,-6.12303176911189E-17,0.));
#631=DIRECTION('',(-6.12303176911189E-17,-1.,0.));
#632=DIRECTION('',(1.,-6.12303176911189E-17,0.));
#633=DIRECTION('',(-6.12303176911189E-17,-1.,0.));
#634=DIRECTION('',(1.,-6.12303176911189E-17,0.));
#635=DIRECTION('',(-6.12303176911189E-17,-1.,0.));
#636=DIRECTION('',(1.,-6.12303176911189E-17,0.));
#637=DIRECTION('',(6.12303176911189E-17,1.,0.));
#638=DIRECTION('',(-1.,6.12303176911189E-17,0.));
#639=CARTESIAN_POINT('',(0.,0.,0.));
#640=CARTESIAN_POINT('',(-5.2875763599854,5.02555285283803E-17,11.8760909493538));
#641=CARTESIAN_POINT('',(-4.61008869150214,1.10765410944324E-16,10.3544287320738));
#642=CARTESIAN_POINT('',(-11.2583302491977,4.15846686020333E-16,-6.50000000000001));
#643=CARTESIAN_POINT('',(-9.81582060162742,4.29514029616089E-16,-5.66716666666667));
#644=CARTESIAN_POINT('',(7.64120827980215,-7.41378062325869E-16,-10.5172209268743));
#645=CARTESIAN_POINT('',(6.66215397790032,-5.79437588794575E-16,-9.16966828657711));
#646=CARTESIAN_POINT('',(9.66088273120612,-8.65043370617971E-16,8.69869788266516));
#647=CARTESIAN_POINT('',(8.42305116690261,-6.87257883098583E-16,7.58414933600675));
#648=CARTESIAN_POINT('',(-9.66088273120612,3.18034466998819E-16,8.69869788266516));
#649=CARTESIAN_POINT('',(-8.42305116690261,3.44234314657409E-16,7.58414933600675));
#650=CARTESIAN_POINT('',(-12.363734711837,4.83530952444918E-16,4.01722092687431));
#651=CARTESIAN_POINT('',(-10.779591574528,4.88526032468273E-16,3.50250161991044));
#652=CARTESIAN_POINT('',(-12.9287846397876,5.18129139044674E-16,-1.3588700224795));
#653=CARTESIAN_POINT('',(-11.2722426694025,5.18691215518312E-16,-1.18476044549668));
#654=CARTESIAN_POINT('',(-7.64120827980215,1.94369158706718E-16,-10.5172209268743));
#655=CARTESIAN_POINT('',(-6.66215397790032,2.36414020353401E-16,-9.16966828657711));
#656=CARTESIAN_POINT('',(-2.70285198063086,-1.08007966363478E-16,-12.7159188095395));
#657=CARTESIAN_POINT('',(-2.35654040762541,-2.72200664097241E-17,-11.0866509559172));
#658=CARTESIAN_POINT('',(2.70285198063087,-4.39000937255674E-16,-12.7159188095395));
#659=CARTESIAN_POINT('',(2.35654040762542,-3.1580350203145E-16,-11.0866509559172));
#660=CARTESIAN_POINT('',(11.2583302491977,-9.62855589639484E-16,-6.49999999999999));
#661=CARTESIAN_POINT('',(9.81582060162742,-7.72537598057263E-16,-5.66716666666666));
#662=CARTESIAN_POINT('',(12.9287846397876,-1.06513804266383E-15,-1.35887002247949));
#663=CARTESIAN_POINT('',(11.2722426694025,-8.61714783959486E-16,-1.18476044549667));
#664=CARTESIAN_POINT('',(12.363734711837,-1.03053985606407E-15,4.01722092687431));
#665=CARTESIAN_POINT('',(10.779591574528,-8.31549600909447E-16,3.50250161991044));
#666=CARTESIAN_POINT('',(5.2875763599854,-5.97264432147532E-16,11.8760909493538));
#667=CARTESIAN_POINT('',(4.61008869150214,-4.53788979385498E-16,10.3544287320738));
#668=CARTESIAN_POINT('',(-1.67467644742356E-32,-2.73504451809576E-16,13.));
#669=CARTESIAN_POINT('',(-1.05017210355972E-32,-1.71511784220587E-16,11.3343333333333));
#670=CARTESIAN_POINT('',(2.14306111918916E-16,3.5,10.));
#671=CARTESIAN_POINT('',(2.14306111918916E-16,3.5,0.));
#672=CARTESIAN_POINT('',(10.3,3.5,0.));
#673=CARTESIAN_POINT('',(2.14306111918916E-16,3.5,0.));
#674=CARTESIAN_POINT('',(12.,3.5,0.));
#675=CARTESIAN_POINT('',(0.,0.,0.));
#676=CARTESIAN_POINT('',(8.16404235881584E-17,1.33333333333333,0.));
#677=CARTESIAN_POINT('',(12.,1.33333333333333,0.));
#678=CARTESIAN_POINT('',(-1.67467644742356E-32,-2.73504451809576E-16,0.));
#679=CARTESIAN_POINT('',(-8.16404235881585E-17,-1.33333333333333,0.));
#680=CARTESIAN_POINT('',(12.,-1.33333333333333,0.));
#681=CARTESIAN_POINT('',(0.,0.,0.));
#682=CARTESIAN_POINT('',(-2.14306111918916E-16,-3.5,0.));
#683=CARTESIAN_POINT('',(12.,-3.5,0.));
#684=CARTESIAN_POINT('',(-2.14306111918916E-16,-3.5,12.));
#685=CARTESIAN_POINT('',(-2.14306111918916E-16,-3.5,0.));
#686=CARTESIAN_POINT('',(-10.3,-3.5,0.));
#687=CARTESIAN_POINT('',(0.,0.,0.));
#688=CARTESIAN_POINT('',(1.9593701661158E-16,3.2,0.));
#689=CARTESIAN_POINT('',(10.,3.2,0.));
#690=CARTESIAN_POINT('',(-1.9593701661158E-16,-3.2,0.));
#691=CARTESIAN_POINT('',(-10.,-3.2,0.));
#692=CARTESIAN_POINT('',(-1.9593701661158E-16,-3.2,0.));
#693=CARTESIAN_POINT('',(1.9593701661158E-16,3.2,0.));
#694=CARTESIAN_POINT('',(0.,0.,0.));
#695=CARTESIAN_POINT('',(1.9593701661158E-16,3.2,0.));
#696=CARTESIAN_POINT('',(16.,3.2,0.));
#697=CARTESIAN_POINT('',(-7.65378971138987E-17,-1.25,0.));
#698=CARTESIAN_POINT('',(16.,-1.25,0.));
#699=CARTESIAN_POINT('',(0.,0.,0.));
#700=CARTESIAN_POINT('',(-1.9593701661158E-16,-3.2,0.));
#701=CARTESIAN_POINT('',(-16.,-3.2,0.));
#702=CARTESIAN_POINT('',(-1.34706698920461E-16,-2.2,0.));
#703=CARTESIAN_POINT('',(16.,-2.2,0.));
#704=CARTESIAN_POINT('',(2.14306111918916E-16,3.5,14.));
#705=CARTESIAN_POINT('',(2.14306111918916E-16,3.5,0.));
#706=CARTESIAN_POINT('',(15.7,3.5,0.));
#707=CARTESIAN_POINT('',(2.14306111918916E-16,3.5,0.));
#708=CARTESIAN_POINT('',(14.,3.5,0.));
#709=CARTESIAN_POINT('',(-2.14306111918916E-16,-3.5,16.));
#710=CARTESIAN_POINT('',(-2.14306111918916E-16,-3.5,0.));
#711=CARTESIAN_POINT('',(-15.7,-3.5,0.));
#712=CARTESIAN_POINT('',(-2.14306111918916E-16,-3.5,0.));
#713=CARTESIAN_POINT('',(14.,-3.5,0.));
#714=CARTESIAN_POINT('',(0.,0.,0.));
#715=CARTESIAN_POINT('',(-8.16404235881585E-17,-1.33333333333333,0.));
#716=CARTESIAN_POINT('',(14.,-1.33333333333333,0.));
#717=CARTESIAN_POINT('',(-1.67467644742356E-32,-2.73504451809576E-16,0.));
#718=CARTESIAN_POINT('',(8.16404235881584E-17,1.33333333333333,0.));
#719=CARTESIAN_POINT('',(14.,1.33333333333333,0.));
#720=CARTESIAN_POINT('',(0.,0.,0.));
#721=CARTESIAN_POINT('',(1.9593701661158E-16,3.2,0.));
#722=CARTESIAN_POINT('',(-1.9593701661158E-16,-3.2,0.));
#723=CARTESIAN_POINT('',(0.,0.,0.));
#724=CARTESIAN_POINT('',(-7.65378971138987E-17,-1.25,0.));
#725=CARTESIAN_POINT('',(15.35,-1.25,0.));
#726=CARTESIAN_POINT('',(-1.34706698920462E-16,-2.20000000000001,0.));
#727=CARTESIAN_POINT('',(15.35,-2.20000000000001,0.));
#728=CARTESIAN_POINT('',(-7.65378971138987E-17,-1.25,15.35));
#729=CARTESIAN_POINT('',(-1.34706698920462E-16,-2.2,16.));
#730=MECHANICAL_DESIGN_GEOMETRIC_PRESENTATION_REPRESENTATION('',(#332,#333,
#334,#335,#336,#337,#338,#339,#340,#341,#342,#343,#344,#345,#346,#347,#348),
#731);
#731=(
GEOMETRIC_REPRESENTATION_CONTEXT(3)
GLOBAL_UNCERTAINTY_ASSIGNED_CONTEXT((#732))
GLOBAL_UNIT_ASSIGNED_CONTEXT((#735,#734,#733))
REPRESENTATION_CONTEXT('\X2\5916570867096B6252A869FD76846DF16C9F74038F74627F\X0\6
0000N\X2\578B\X0\','TOP_LEVEL_ASSEMBLY_PART')
);
#732=UNCERTAINTY_MEASURE_WITH_UNIT(LENGTH_MEASURE(0.005),#735,
'DISTANCE_ACCURACY_VALUE','Maximum Tolerance applied to model');
#733=(
NAMED_UNIT(*)
SI_UNIT($,.STERADIAN.)
SOLID_ANGLE_UNIT()
);
#734=(
NAMED_UNIT(*)
PLANE_ANGLE_UNIT()
SI_UNIT($,.RADIAN.)
);
#735=(
LENGTH_UNIT()
NAMED_UNIT(*)
SI_UNIT(.MILLI.,.METRE.)
);
#736=PRODUCT_DEFINITION_SHAPE('','',#737);
#737=PRODUCT_DEFINITION('','',#739,#738);
#738=PRODUCT_DEFINITION_CONTEXT('',#745,'design');
#739=PRODUCT_DEFINITION_FORMATION_WITH_SPECIFIED_SOURCE('','',#741,
 .NOT_KNOWN.);
#740=PRODUCT_RELATED_PRODUCT_CATEGORY('','',(#741));
#741=PRODUCT('\X2\5916570867096B6252A869FD76846DF16C9F74038F74627F\X0\6
0000N\X2\578B\X0\','\X2\5916570867096B6252A869FD76846DF16C9F74038F74627F\X0\6
0000N\X2\578B\X0\','\X2\5916570867096B6252A869FD76846DF16C9F74038F74627F\X0\6
0000N\X2\578B\X0\',(#743));
#742=PRODUCT_CATEGORY('','');
#743=PRODUCT_CONTEXT('',#745,'mechanical');
#744=APPLICATION_PROTOCOL_DEFINITION('international standard',
'automotive_design',2010,#745);
#745=APPLICATION_CONTEXT(
'core data for automotive mechanical design processes');
ENDSEC;
END-ISO-10303-21;
