ISO-10303-21;
HEADER;
/* Generated by software containing HOOPS Exchange Step
 * from HOOPS Exchange, Inc. (www.tiangong.cloud) 
 */

FILE_DESCRIPTION(
/* description */ ('Unknown'),
/* implementation_level */ '2;1');

FILE_NAME(
/* name */ '\X2\570667F15B548C035FC374038F74627F\X0\10000K-2RS\X2\578B\X0\',

/* time_stamp */ '2025-06-10T20:56:10+08:00',
/* author */ ('Unknown'),
/* organization */ ('Unknown'),
/* preprocessor_version */ 'ST-DEVELOPER v19.4',
/* originating_system */ 'TianGong',
/* authorisation */ 'Unknown');

FILE_SCHEMA (('AUTOMOTIVE_DESIGN {1 0 10303 214 3 1 1}'));
ENDSEC;

DATA;
#10=PROPERTY_DEFINITION_REPRESENTATION(#14,#12);
#11=PROPERTY_DEFINITION_REPRESENTATION(#15,#13);
#12=REPRESENTATION('',(#16),#1460);
#13=REPRESENTATION('',(#17),#1460);
#14=PROPERTY_DEFINITION('pmi validation property','',#1465);
#15=PROPERTY_DEFINITION('pmi validation property','',#1465);
#16=VALUE_REPRESENTATION_ITEM('number of annotations',COUNT_MEASURE(0.));
#17=VALUE_REPRESENTATION_ITEM('number of views',COUNT_MEASURE(0.));
#18=TOROIDAL_SURFACE('',#1045,38.9,1.1);
#19=TOROIDAL_SURFACE('',#1046,38.9,1.1);
#20=TOROIDAL_SURFACE('',#1064,30.5591336123351,4.15913361233506);
#21=TOROIDAL_SURFACE('',#1068,30.5591336123351,4.15913361233506);
#22=TOROIDAL_SURFACE('',#1074,22.9288128363893,1.1);
#23=TOROIDAL_SURFACE('',#1075,21.195479503056,1.1);
#24=VERTEX_LOOP('',#216);
#25=VERTEX_LOOP('',#217);
#26=VERTEX_LOOP('',#218);
#27=VERTEX_LOOP('',#219);
#28=VERTEX_LOOP('',#220);
#29=VERTEX_LOOP('',#221);
#30=VERTEX_LOOP('',#222);
#31=VERTEX_LOOP('',#223);
#32=VERTEX_LOOP('',#224);
#33=VERTEX_LOOP('',#225);
#34=VERTEX_LOOP('',#226);
#35=VERTEX_LOOP('',#227);
#36=VERTEX_LOOP('',#228);
#37=VERTEX_LOOP('',#229);
#38=VERTEX_LOOP('',#230);
#39=VERTEX_LOOP('',#231);
#40=VERTEX_LOOP('',#232);
#41=VERTEX_LOOP('',#233);
#42=VERTEX_LOOP('',#234);
#43=VERTEX_LOOP('',#235);
#44=VERTEX_LOOP('',#236);
#45=VERTEX_LOOP('',#237);
#46=VERTEX_LOOP('',#238);
#47=VERTEX_LOOP('',#239);
#48=VERTEX_LOOP('',#240);
#49=VERTEX_LOOP('',#241);
#50=VERTEX_LOOP('',#242);
#51=VERTEX_LOOP('',#243);
#52=VERTEX_LOOP('',#244);
#53=VERTEX_LOOP('',#245);
#54=VERTEX_LOOP('',#246);
#55=VERTEX_LOOP('',#247);
#56=VERTEX_LOOP('',#248);
#57=VERTEX_LOOP('',#249);
#58=VERTEX_LOOP('',#250);
#59=VERTEX_LOOP('',#251);
#60=VERTEX_LOOP('',#252);
#61=VERTEX_LOOP('',#253);
#62=VERTEX_LOOP('',#254);
#63=VERTEX_LOOP('',#255);
#64=VERTEX_LOOP('',#256);
#65=VERTEX_LOOP('',#257);
#66=VERTEX_LOOP('',#258);
#67=VERTEX_LOOP('',#259);
#68=SPHERICAL_SURFACE('',#992,4.14913361233506);
#69=SPHERICAL_SURFACE('',#993,4.14913361233506);
#70=SPHERICAL_SURFACE('',#994,4.14913361233506);
#71=SPHERICAL_SURFACE('',#995,4.14913361233506);
#72=SPHERICAL_SURFACE('',#996,4.14913361233506);
#73=SPHERICAL_SURFACE('',#997,4.14913361233506);
#74=SPHERICAL_SURFACE('',#998,4.14913361233506);
#75=SPHERICAL_SURFACE('',#999,4.14913361233506);
#76=SPHERICAL_SURFACE('',#1000,4.14913361233506);
#77=SPHERICAL_SURFACE('',#1001,4.14913361233506);
#78=SPHERICAL_SURFACE('',#1002,4.14913361233506);
#79=SPHERICAL_SURFACE('',#1003,4.14913361233506);
#80=SPHERICAL_SURFACE('',#1004,4.14913361233506);
#81=SPHERICAL_SURFACE('',#1005,4.14913361233506);
#82=SPHERICAL_SURFACE('',#1006,4.14913361233506);
#83=SPHERICAL_SURFACE('',#1007,4.14913361233506);
#84=SPHERICAL_SURFACE('',#1008,4.14913361233506);
#85=SPHERICAL_SURFACE('',#1009,4.14913361233506);
#86=SPHERICAL_SURFACE('',#1010,4.14913361233506);
#87=SPHERICAL_SURFACE('',#1011,4.14913361233506);
#88=SPHERICAL_SURFACE('',#1012,4.14913361233506);
#89=SPHERICAL_SURFACE('',#1013,4.14913361233506);
#90=SPHERICAL_SURFACE('',#1014,4.14913361233506);
#91=SPHERICAL_SURFACE('',#1015,4.14913361233506);
#92=SPHERICAL_SURFACE('',#1016,4.14913361233506);
#93=SPHERICAL_SURFACE('',#1017,4.14913361233506);
#94=SPHERICAL_SURFACE('',#1018,4.14913361233506);
#95=SPHERICAL_SURFACE('',#1019,4.14913361233506);
#96=SPHERICAL_SURFACE('',#1020,4.14913361233506);
#97=SPHERICAL_SURFACE('',#1021,4.14913361233506);
#98=SPHERICAL_SURFACE('',#1022,4.14913361233506);
#99=SPHERICAL_SURFACE('',#1023,4.14913361233506);
#100=SPHERICAL_SURFACE('',#1024,4.14913361233506);
#101=SPHERICAL_SURFACE('',#1025,4.14913361233506);
#102=SPHERICAL_SURFACE('',#1026,4.14913361233506);
#103=SPHERICAL_SURFACE('',#1027,4.14913361233506);
#104=SPHERICAL_SURFACE('',#1028,4.14913361233506);
#105=SPHERICAL_SURFACE('',#1029,4.14913361233506);
#106=SPHERICAL_SURFACE('',#1030,4.14913361233506);
#107=SPHERICAL_SURFACE('',#1031,4.14913361233506);
#108=SPHERICAL_SURFACE('',#1032,4.14913361233506);
#109=SPHERICAL_SURFACE('',#1033,4.14913361233506);
#110=SPHERICAL_SURFACE('',#1034,4.14913361233506);
#111=SPHERICAL_SURFACE('',#1035,4.14913361233506);
#112=SPHERICAL_SURFACE('',#1055,35.);
#113=SHAPE_REPRESENTATION_RELATIONSHIP('','',#982,#114);
#114=ADVANCED_BREP_SHAPE_REPRESENTATION('',(#933,#934,#935,#936,#937,#938,
#939,#940,#941,#942,#943,#944,#945,#946,#947,#948,#949,#950,#951,#952,#953,
#954,#955,#956,#957,#958,#959,#960,#961,#962,#963,#964,#965,#966,#967,#968,
#969,#970,#971,#972,#973,#974,#975,#976,#977,#978,#979,#980),#1460);
#115=CONICAL_SURFACE('',#989,27.21,0.785398163397446);
#116=CONICAL_SURFACE('',#1071,21.9166666666667,0.0831412318884413);
#117=CONICAL_SURFACE('',#1081,27.21,0.785398163397446);
#118=PLANE('',#987);
#119=PLANE('',#991);
#120=PLANE('',#1036);
#121=PLANE('',#1042);
#122=PLANE('',#1047);
#123=PLANE('',#1051);
#124=PLANE('',#1056);
#125=PLANE('',#1059);
#126=PLANE('',#1079);
#127=PLANE('',#1083);
#128=ORIENTED_EDGE('',*,*,#184,.T.);
#129=ORIENTED_EDGE('',*,*,#185,.F.);
#130=ORIENTED_EDGE('',*,*,#186,.T.);
#131=ORIENTED_EDGE('',*,*,#184,.F.);
#132=ORIENTED_EDGE('',*,*,#187,.T.);
#133=ORIENTED_EDGE('',*,*,#186,.F.);
#134=ORIENTED_EDGE('',*,*,#185,.T.);
#135=ORIENTED_EDGE('',*,*,#187,.F.);
#136=ORIENTED_EDGE('',*,*,#188,.T.);
#137=ORIENTED_EDGE('',*,*,#189,.T.);
#138=ORIENTED_EDGE('',*,*,#190,.T.);
#139=ORIENTED_EDGE('',*,*,#191,.T.);
#140=ORIENTED_EDGE('',*,*,#192,.F.);
#141=ORIENTED_EDGE('',*,*,#193,.T.);
#142=ORIENTED_EDGE('',*,*,#191,.F.);
#143=ORIENTED_EDGE('',*,*,#193,.F.);
#144=ORIENTED_EDGE('',*,*,#189,.F.);
#145=ORIENTED_EDGE('',*,*,#190,.F.);
#146=ORIENTED_EDGE('',*,*,#194,.T.);
#147=ORIENTED_EDGE('',*,*,#195,.T.);
#148=ORIENTED_EDGE('',*,*,#192,.T.);
#149=ORIENTED_EDGE('',*,*,#194,.F.);
#150=ORIENTED_EDGE('',*,*,#196,.F.);
#151=ORIENTED_EDGE('',*,*,#197,.F.);
#152=ORIENTED_EDGE('',*,*,#188,.F.);
#153=ORIENTED_EDGE('',*,*,#196,.T.);
#154=ORIENTED_EDGE('',*,*,#197,.T.);
#155=ORIENTED_EDGE('',*,*,#195,.F.);
#156=ORIENTED_EDGE('',*,*,#198,.T.);
#157=ORIENTED_EDGE('',*,*,#199,.T.);
#158=ORIENTED_EDGE('',*,*,#200,.T.);
#159=ORIENTED_EDGE('',*,*,#201,.F.);
#160=ORIENTED_EDGE('',*,*,#201,.T.);
#161=ORIENTED_EDGE('',*,*,#202,.F.);
#162=ORIENTED_EDGE('',*,*,#203,.F.);
#163=ORIENTED_EDGE('',*,*,#202,.T.);
#164=ORIENTED_EDGE('',*,*,#204,.F.);
#165=ORIENTED_EDGE('',*,*,#203,.T.);
#166=ORIENTED_EDGE('',*,*,#205,.F.);
#167=ORIENTED_EDGE('',*,*,#204,.T.);
#168=ORIENTED_EDGE('',*,*,#199,.F.);
#169=ORIENTED_EDGE('',*,*,#205,.T.);
#170=ORIENTED_EDGE('',*,*,#206,.T.);
#171=ORIENTED_EDGE('',*,*,#207,.T.);
#172=ORIENTED_EDGE('',*,*,#207,.F.);
#173=ORIENTED_EDGE('',*,*,#200,.F.);
#174=ORIENTED_EDGE('',*,*,#198,.F.);
#175=ORIENTED_EDGE('',*,*,#206,.F.);
#176=ORIENTED_EDGE('',*,*,#208,.F.);
#177=ORIENTED_EDGE('',*,*,#209,.T.);
#178=ORIENTED_EDGE('',*,*,#210,.F.);
#179=ORIENTED_EDGE('',*,*,#208,.T.);
#180=ORIENTED_EDGE('',*,*,#211,.F.);
#181=ORIENTED_EDGE('',*,*,#210,.T.);
#182=ORIENTED_EDGE('',*,*,#209,.F.);
#183=ORIENTED_EDGE('',*,*,#211,.T.);
#184=EDGE_CURVE('',#212,#212,#284,.T.);
#185=EDGE_CURVE('',#213,#213,#285,.T.);
#186=EDGE_CURVE('',#214,#214,#286,.T.);
#187=EDGE_CURVE('',#215,#215,#287,.T.);
#188=EDGE_CURVE('',#260,#260,#288,.T.);
#189=EDGE_CURVE('',#261,#261,#289,.F.);
#190=EDGE_CURVE('',#262,#262,#290,.T.);
#191=EDGE_CURVE('',#263,#263,#291,.T.);
#192=EDGE_CURVE('',#264,#264,#292,.T.);
#193=EDGE_CURVE('',#265,#265,#293,.F.);
#194=EDGE_CURVE('',#266,#266,#294,.T.);
#195=EDGE_CURVE('',#267,#267,#295,.F.);
#196=EDGE_CURVE('',#268,#268,#296,.T.);
#197=EDGE_CURVE('',#269,#269,#297,.F.);
#198=EDGE_CURVE('',#270,#270,#298,.T.);
#199=EDGE_CURVE('',#271,#271,#299,.T.);
#200=EDGE_CURVE('',#272,#272,#300,.T.);
#201=EDGE_CURVE('',#273,#273,#301,.T.);
#202=EDGE_CURVE('',#274,#274,#302,.T.);
#203=EDGE_CURVE('',#275,#275,#303,.T.);
#204=EDGE_CURVE('',#276,#276,#304,.T.);
#205=EDGE_CURVE('',#277,#277,#305,.T.);
#206=EDGE_CURVE('',#278,#278,#306,.F.);
#207=EDGE_CURVE('',#279,#279,#307,.T.);
#208=EDGE_CURVE('',#280,#280,#308,.T.);
#209=EDGE_CURVE('',#281,#281,#309,.T.);
#210=EDGE_CURVE('',#282,#282,#310,.T.);
#211=EDGE_CURVE('',#283,#283,#311,.T.);
#212=VERTEX_POINT('',#1289);
#213=VERTEX_POINT('',#1291);
#214=VERTEX_POINT('',#1294);
#215=VERTEX_POINT('',#1297);
#216=VERTEX_POINT('',#1300);
#217=VERTEX_POINT('',#1302);
#218=VERTEX_POINT('',#1304);
#219=VERTEX_POINT('',#1306);
#220=VERTEX_POINT('',#1308);
#221=VERTEX_POINT('',#1310);
#222=VERTEX_POINT('',#1312);
#223=VERTEX_POINT('',#1314);
#224=VERTEX_POINT('',#1316);
#225=VERTEX_POINT('',#1318);
#226=VERTEX_POINT('',#1320);
#227=VERTEX_POINT('',#1322);
#228=VERTEX_POINT('',#1324);
#229=VERTEX_POINT('',#1326);
#230=VERTEX_POINT('',#1328);
#231=VERTEX_POINT('',#1330);
#232=VERTEX_POINT('',#1332);
#233=VERTEX_POINT('',#1334);
#234=VERTEX_POINT('',#1336);
#235=VERTEX_POINT('',#1338);
#236=VERTEX_POINT('',#1340);
#237=VERTEX_POINT('',#1342);
#238=VERTEX_POINT('',#1344);
#239=VERTEX_POINT('',#1346);
#240=VERTEX_POINT('',#1348);
#241=VERTEX_POINT('',#1350);
#242=VERTEX_POINT('',#1352);
#243=VERTEX_POINT('',#1354);
#244=VERTEX_POINT('',#1356);
#245=VERTEX_POINT('',#1358);
#246=VERTEX_POINT('',#1360);
#247=VERTEX_POINT('',#1362);
#248=VERTEX_POINT('',#1364);
#249=VERTEX_POINT('',#1366);
#250=VERTEX_POINT('',#1368);
#251=VERTEX_POINT('',#1370);
#252=VERTEX_POINT('',#1372);
#253=VERTEX_POINT('',#1374);
#254=VERTEX_POINT('',#1376);
#255=VERTEX_POINT('',#1378);
#256=VERTEX_POINT('',#1380);
#257=VERTEX_POINT('',#1382);
#258=VERTEX_POINT('',#1384);
#259=VERTEX_POINT('',#1386);
#260=VERTEX_POINT('',#1389);
#261=VERTEX_POINT('',#1391);
#262=VERTEX_POINT('',#1394);
#263=VERTEX_POINT('',#1396);
#264=VERTEX_POINT('',#1399);
#265=VERTEX_POINT('',#1401);
#266=VERTEX_POINT('',#1406);
#267=VERTEX_POINT('',#1408);
#268=VERTEX_POINT('',#1412);
#269=VERTEX_POINT('',#1414);
#270=VERTEX_POINT('',#1419);
#271=VERTEX_POINT('',#1421);
#272=VERTEX_POINT('',#1424);
#273=VERTEX_POINT('',#1426);
#274=VERTEX_POINT('',#1429);
#275=VERTEX_POINT('',#1432);
#276=VERTEX_POINT('',#1435);
#277=VERTEX_POINT('',#1438);
#278=VERTEX_POINT('',#1442);
#279=VERTEX_POINT('',#1444);
#280=VERTEX_POINT('',#1449);
#281=VERTEX_POINT('',#1451);
#282=VERTEX_POINT('',#1454);
#283=VERTEX_POINT('',#1457);
#284=CIRCLE('',#985,34.2467693521312);
#285=CIRCLE('',#986,34.2467693521312);
#286=CIRCLE('',#988,27.21);
#287=CIRCLE('',#990,27.6);
#288=CIRCLE('',#1037,34.2567693521312);
#289=CIRCLE('',#1038,38.9);
#290=CIRCLE('',#1040,40.);
#291=CIRCLE('',#1041,40.);
#292=CIRCLE('',#1043,34.2567693521312);
#293=CIRCLE('',#1044,38.9);
#294=CIRCLE('',#1048,34.2567693521312);
#295=CIRCLE('',#1049,33.3243154468325);
#296=CIRCLE('',#1052,34.2567693521312);
#297=CIRCLE('',#1053,33.3243154468325);
#298=CIRCLE('',#1057,21.195479503056);
#299=CIRCLE('',#1058,27.2);
#300=CIRCLE('',#1060,22.9288128363893);
#301=CIRCLE('',#1061,27.2);
#302=CIRCLE('',#1063,27.2);
#303=CIRCLE('',#1065,27.2);
#304=CIRCLE('',#1067,27.2);
#305=CIRCLE('',#1069,27.2);
#306=CIRCLE('',#1072,20.0992791689866);
#307=CIRCLE('',#1073,21.8326125023199);
#308=CIRCLE('',#1077,34.2467693521312);
#309=CIRCLE('',#1078,34.2467693521312);
#310=CIRCLE('',#1080,27.21);
#311=CIRCLE('',#1082,27.6);
#312=EDGE_LOOP('',(#128));
#313=EDGE_LOOP('',(#129));
#314=EDGE_LOOP('',(#130));
#315=EDGE_LOOP('',(#131));
#316=EDGE_LOOP('',(#132));
#317=EDGE_LOOP('',(#133));
#318=EDGE_LOOP('',(#134));
#319=EDGE_LOOP('',(#135));
#320=EDGE_LOOP('',(#136));
#321=EDGE_LOOP('',(#137));
#322=EDGE_LOOP('',(#138));
#323=EDGE_LOOP('',(#139));
#324=EDGE_LOOP('',(#140));
#325=EDGE_LOOP('',(#141));
#326=EDGE_LOOP('',(#142));
#327=EDGE_LOOP('',(#143));
#328=EDGE_LOOP('',(#144));
#329=EDGE_LOOP('',(#145));
#330=EDGE_LOOP('',(#146));
#331=EDGE_LOOP('',(#147));
#332=EDGE_LOOP('',(#148));
#333=EDGE_LOOP('',(#149));
#334=EDGE_LOOP('',(#150));
#335=EDGE_LOOP('',(#151));
#336=EDGE_LOOP('',(#152));
#337=EDGE_LOOP('',(#153));
#338=EDGE_LOOP('',(#154));
#339=EDGE_LOOP('',(#155));
#340=EDGE_LOOP('',(#156));
#341=EDGE_LOOP('',(#157));
#342=EDGE_LOOP('',(#158));
#343=EDGE_LOOP('',(#159));
#344=EDGE_LOOP('',(#160));
#345=EDGE_LOOP('',(#161));
#346=EDGE_LOOP('',(#162));
#347=EDGE_LOOP('',(#163));
#348=EDGE_LOOP('',(#164));
#349=EDGE_LOOP('',(#165));
#350=EDGE_LOOP('',(#166));
#351=EDGE_LOOP('',(#167));
#352=EDGE_LOOP('',(#168));
#353=EDGE_LOOP('',(#169));
#354=EDGE_LOOP('',(#170));
#355=EDGE_LOOP('',(#171));
#356=EDGE_LOOP('',(#172));
#357=EDGE_LOOP('',(#173));
#358=EDGE_LOOP('',(#174));
#359=EDGE_LOOP('',(#175));
#360=EDGE_LOOP('',(#176));
#361=EDGE_LOOP('',(#177));
#362=EDGE_LOOP('',(#178));
#363=EDGE_LOOP('',(#179));
#364=EDGE_LOOP('',(#180));
#365=EDGE_LOOP('',(#181));
#366=EDGE_LOOP('',(#182));
#367=EDGE_LOOP('',(#183));
#368=FACE_BOUND('',#312,.T.);
#369=FACE_BOUND('',#313,.T.);
#370=FACE_BOUND('',#314,.T.);
#371=FACE_BOUND('',#315,.T.);
#372=FACE_BOUND('',#316,.T.);
#373=FACE_BOUND('',#317,.T.);
#374=FACE_BOUND('',#318,.T.);
#375=FACE_BOUND('',#319,.T.);
#376=FACE_BOUND('',#24,.T.);
#377=FACE_BOUND('',#25,.T.);
#378=FACE_BOUND('',#26,.T.);
#379=FACE_BOUND('',#27,.T.);
#380=FACE_BOUND('',#28,.T.);
#381=FACE_BOUND('',#29,.T.);
#382=FACE_BOUND('',#30,.T.);
#383=FACE_BOUND('',#31,.T.);
#384=FACE_BOUND('',#32,.T.);
#385=FACE_BOUND('',#33,.T.);
#386=FACE_BOUND('',#34,.T.);
#387=FACE_BOUND('',#35,.T.);
#388=FACE_BOUND('',#36,.T.);
#389=FACE_BOUND('',#37,.T.);
#390=FACE_BOUND('',#38,.T.);
#391=FACE_BOUND('',#39,.T.);
#392=FACE_BOUND('',#40,.T.);
#393=FACE_BOUND('',#41,.T.);
#394=FACE_BOUND('',#42,.T.);
#395=FACE_BOUND('',#43,.T.);
#396=FACE_BOUND('',#44,.T.);
#397=FACE_BOUND('',#45,.T.);
#398=FACE_BOUND('',#46,.T.);
#399=FACE_BOUND('',#47,.T.);
#400=FACE_BOUND('',#48,.T.);
#401=FACE_BOUND('',#49,.T.);
#402=FACE_BOUND('',#50,.T.);
#403=FACE_BOUND('',#51,.T.);
#404=FACE_BOUND('',#52,.T.);
#405=FACE_BOUND('',#53,.T.);
#406=FACE_BOUND('',#54,.T.);
#407=FACE_BOUND('',#55,.T.);
#408=FACE_BOUND('',#56,.T.);
#409=FACE_BOUND('',#57,.T.);
#410=FACE_BOUND('',#58,.T.);
#411=FACE_BOUND('',#59,.T.);
#412=FACE_BOUND('',#60,.T.);
#413=FACE_BOUND('',#61,.T.);
#414=FACE_BOUND('',#62,.T.);
#415=FACE_BOUND('',#63,.T.);
#416=FACE_BOUND('',#64,.T.);
#417=FACE_BOUND('',#65,.T.);
#418=FACE_BOUND('',#66,.T.);
#419=FACE_BOUND('',#67,.T.);
#420=FACE_BOUND('',#320,.T.);
#421=FACE_BOUND('',#321,.T.);
#422=FACE_BOUND('',#322,.T.);
#423=FACE_BOUND('',#323,.T.);
#424=FACE_BOUND('',#324,.T.);
#425=FACE_BOUND('',#325,.T.);
#426=FACE_BOUND('',#326,.T.);
#427=FACE_BOUND('',#327,.T.);
#428=FACE_BOUND('',#328,.T.);
#429=FACE_BOUND('',#329,.T.);
#430=FACE_BOUND('',#330,.T.);
#431=FACE_BOUND('',#331,.T.);
#432=FACE_BOUND('',#332,.T.);
#433=FACE_BOUND('',#333,.T.);
#434=FACE_BOUND('',#334,.T.);
#435=FACE_BOUND('',#335,.T.);
#436=FACE_BOUND('',#336,.T.);
#437=FACE_BOUND('',#337,.T.);
#438=FACE_BOUND('',#338,.T.);
#439=FACE_BOUND('',#339,.T.);
#440=FACE_BOUND('',#340,.T.);
#441=FACE_BOUND('',#341,.T.);
#442=FACE_BOUND('',#342,.T.);
#443=FACE_BOUND('',#343,.T.);
#444=FACE_BOUND('',#344,.T.);
#445=FACE_BOUND('',#345,.T.);
#446=FACE_BOUND('',#346,.T.);
#447=FACE_BOUND('',#347,.T.);
#448=FACE_BOUND('',#348,.T.);
#449=FACE_BOUND('',#349,.T.);
#450=FACE_BOUND('',#350,.T.);
#451=FACE_BOUND('',#351,.T.);
#452=FACE_BOUND('',#352,.T.);
#453=FACE_BOUND('',#353,.T.);
#454=FACE_BOUND('',#354,.T.);
#455=FACE_BOUND('',#355,.T.);
#456=FACE_BOUND('',#356,.T.);
#457=FACE_BOUND('',#357,.T.);
#458=FACE_BOUND('',#358,.T.);
#459=FACE_BOUND('',#359,.T.);
#460=FACE_BOUND('',#360,.T.);
#461=FACE_BOUND('',#361,.T.);
#462=FACE_BOUND('',#362,.T.);
#463=FACE_BOUND('',#363,.T.);
#464=FACE_BOUND('',#364,.T.);
#465=FACE_BOUND('',#365,.T.);
#466=FACE_BOUND('',#366,.T.);
#467=FACE_BOUND('',#367,.T.);
#468=CYLINDRICAL_SURFACE('',#984,34.2467693521312);
#469=CYLINDRICAL_SURFACE('',#1039,40.);
#470=CYLINDRICAL_SURFACE('',#1050,34.2567693521312);
#471=CYLINDRICAL_SURFACE('',#1054,34.2567693521312);
#472=CYLINDRICAL_SURFACE('',#1062,27.2);
#473=CYLINDRICAL_SURFACE('',#1066,27.2);
#474=CYLINDRICAL_SURFACE('',#1070,27.2);
#475=CYLINDRICAL_SURFACE('',#1076,34.2467693521312);
#476=ADVANCED_FACE('',(#368,#369),#468,.T.);
#477=ADVANCED_FACE('',(#370,#371),#118,.F.);
#478=ADVANCED_FACE('',(#372,#373),#115,.F.);
#479=ADVANCED_FACE('',(#374,#375),#119,.F.);
#480=ADVANCED_FACE('',(#376),#68,.T.);
#481=ADVANCED_FACE('',(#377),#69,.T.);
#482=ADVANCED_FACE('',(#378),#70,.T.);
#483=ADVANCED_FACE('',(#379),#71,.T.);
#484=ADVANCED_FACE('',(#380),#72,.T.);
#485=ADVANCED_FACE('',(#381),#73,.T.);
#486=ADVANCED_FACE('',(#382),#74,.T.);
#487=ADVANCED_FACE('',(#383),#75,.T.);
#488=ADVANCED_FACE('',(#384),#76,.T.);
#489=ADVANCED_FACE('',(#385),#77,.T.);
#490=ADVANCED_FACE('',(#386),#78,.T.);
#491=ADVANCED_FACE('',(#387),#79,.T.);
#492=ADVANCED_FACE('',(#388),#80,.T.);
#493=ADVANCED_FACE('',(#389),#81,.T.);
#494=ADVANCED_FACE('',(#390),#82,.T.);
#495=ADVANCED_FACE('',(#391),#83,.T.);
#496=ADVANCED_FACE('',(#392),#84,.T.);
#497=ADVANCED_FACE('',(#393),#85,.T.);
#498=ADVANCED_FACE('',(#394),#86,.T.);
#499=ADVANCED_FACE('',(#395),#87,.T.);
#500=ADVANCED_FACE('',(#396),#88,.T.);
#501=ADVANCED_FACE('',(#397),#89,.T.);
#502=ADVANCED_FACE('',(#398),#90,.T.);
#503=ADVANCED_FACE('',(#399),#91,.T.);
#504=ADVANCED_FACE('',(#400),#92,.T.);
#505=ADVANCED_FACE('',(#401),#93,.T.);
#506=ADVANCED_FACE('',(#402),#94,.T.);
#507=ADVANCED_FACE('',(#403),#95,.T.);
#508=ADVANCED_FACE('',(#404),#96,.T.);
#509=ADVANCED_FACE('',(#405),#97,.T.);
#510=ADVANCED_FACE('',(#406),#98,.T.);
#511=ADVANCED_FACE('',(#407),#99,.T.);
#512=ADVANCED_FACE('',(#408),#100,.T.);
#513=ADVANCED_FACE('',(#409),#101,.T.);
#514=ADVANCED_FACE('',(#410),#102,.T.);
#515=ADVANCED_FACE('',(#411),#103,.T.);
#516=ADVANCED_FACE('',(#412),#104,.T.);
#517=ADVANCED_FACE('',(#413),#105,.T.);
#518=ADVANCED_FACE('',(#414),#106,.T.);
#519=ADVANCED_FACE('',(#415),#107,.T.);
#520=ADVANCED_FACE('',(#416),#108,.T.);
#521=ADVANCED_FACE('',(#417),#109,.T.);
#522=ADVANCED_FACE('',(#418),#110,.T.);
#523=ADVANCED_FACE('',(#419),#111,.T.);
#524=ADVANCED_FACE('',(#420,#421),#120,.F.);
#525=ADVANCED_FACE('',(#422,#423),#469,.T.);
#526=ADVANCED_FACE('',(#424,#425),#121,.F.);
#527=ADVANCED_FACE('',(#426,#427),#18,.T.);
#528=ADVANCED_FACE('',(#428,#429),#19,.T.);
#529=ADVANCED_FACE('',(#430,#431),#122,.T.);
#530=ADVANCED_FACE('',(#432,#433),#470,.F.);
#531=ADVANCED_FACE('',(#434,#435),#123,.F.);
#532=ADVANCED_FACE('',(#436,#437),#471,.F.);
#533=ADVANCED_FACE('',(#438,#439),#112,.F.);
#534=ADVANCED_FACE('',(#440,#441),#124,.F.);
#535=ADVANCED_FACE('',(#442,#443),#125,.F.);
#536=ADVANCED_FACE('',(#444,#445),#472,.T.);
#537=ADVANCED_FACE('',(#446,#447),#20,.F.);
#538=ADVANCED_FACE('',(#448,#449),#473,.T.);
#539=ADVANCED_FACE('',(#450,#451),#21,.F.);
#540=ADVANCED_FACE('',(#452,#453),#474,.T.);
#541=ADVANCED_FACE('',(#454,#455),#116,.F.);
#542=ADVANCED_FACE('',(#456,#457),#22,.T.);
#543=ADVANCED_FACE('',(#458,#459),#23,.T.);
#544=ADVANCED_FACE('',(#460,#461),#475,.T.);
#545=ADVANCED_FACE('',(#462,#463),#126,.F.);
#546=ADVANCED_FACE('',(#464,#465),#117,.F.);
#547=ADVANCED_FACE('',(#466,#467),#127,.F.);
#548=CLOSED_SHELL('',(#476,#477,#478,#479));
#549=CLOSED_SHELL('',(#480));
#550=CLOSED_SHELL('',(#481));
#551=CLOSED_SHELL('',(#482));
#552=CLOSED_SHELL('',(#483));
#553=CLOSED_SHELL('',(#484));
#554=CLOSED_SHELL('',(#485));
#555=CLOSED_SHELL('',(#486));
#556=CLOSED_SHELL('',(#487));
#557=CLOSED_SHELL('',(#488));
#558=CLOSED_SHELL('',(#489));
#559=CLOSED_SHELL('',(#490));
#560=CLOSED_SHELL('',(#491));
#561=CLOSED_SHELL('',(#492));
#562=CLOSED_SHELL('',(#493));
#563=CLOSED_SHELL('',(#494));
#564=CLOSED_SHELL('',(#495));
#565=CLOSED_SHELL('',(#496));
#566=CLOSED_SHELL('',(#497));
#567=CLOSED_SHELL('',(#498));
#568=CLOSED_SHELL('',(#499));
#569=CLOSED_SHELL('',(#500));
#570=CLOSED_SHELL('',(#501));
#571=CLOSED_SHELL('',(#502));
#572=CLOSED_SHELL('',(#503));
#573=CLOSED_SHELL('',(#504));
#574=CLOSED_SHELL('',(#505));
#575=CLOSED_SHELL('',(#506));
#576=CLOSED_SHELL('',(#507));
#577=CLOSED_SHELL('',(#508));
#578=CLOSED_SHELL('',(#509));
#579=CLOSED_SHELL('',(#510));
#580=CLOSED_SHELL('',(#511));
#581=CLOSED_SHELL('',(#512));
#582=CLOSED_SHELL('',(#513));
#583=CLOSED_SHELL('',(#514));
#584=CLOSED_SHELL('',(#515));
#585=CLOSED_SHELL('',(#516));
#586=CLOSED_SHELL('',(#517));
#587=CLOSED_SHELL('',(#518));
#588=CLOSED_SHELL('',(#519));
#589=CLOSED_SHELL('',(#520));
#590=CLOSED_SHELL('',(#521));
#591=CLOSED_SHELL('',(#522));
#592=CLOSED_SHELL('',(#523));
#593=CLOSED_SHELL('',(#524,#525,#526,#527,#528,#529,#530,#531,#532,#533));
#594=CLOSED_SHELL('',(#534,#535,#536,#537,#538,#539,#540,#541,#542,#543));
#595=CLOSED_SHELL('',(#544,#545,#546,#547));
#596=STYLED_ITEM('',(#644),#933);
#597=STYLED_ITEM('',(#645),#934);
#598=STYLED_ITEM('',(#646),#935);
#599=STYLED_ITEM('',(#647),#936);
#600=STYLED_ITEM('',(#648),#937);
#601=STYLED_ITEM('',(#649),#938);
#602=STYLED_ITEM('',(#650),#939);
#603=STYLED_ITEM('',(#651),#940);
#604=STYLED_ITEM('',(#652),#941);
#605=STYLED_ITEM('',(#653),#942);
#606=STYLED_ITEM('',(#654),#943);
#607=STYLED_ITEM('',(#655),#944);
#608=STYLED_ITEM('',(#656),#945);
#609=STYLED_ITEM('',(#657),#946);
#610=STYLED_ITEM('',(#658),#947);
#611=STYLED_ITEM('',(#659),#948);
#612=STYLED_ITEM('',(#660),#949);
#613=STYLED_ITEM('',(#661),#950);
#614=STYLED_ITEM('',(#662),#951);
#615=STYLED_ITEM('',(#663),#952);
#616=STYLED_ITEM('',(#664),#953);
#617=STYLED_ITEM('',(#665),#954);
#618=STYLED_ITEM('',(#666),#955);
#619=STYLED_ITEM('',(#667),#956);
#620=STYLED_ITEM('',(#668),#957);
#621=STYLED_ITEM('',(#669),#958);
#622=STYLED_ITEM('',(#670),#959);
#623=STYLED_ITEM('',(#671),#960);
#624=STYLED_ITEM('',(#672),#961);
#625=STYLED_ITEM('',(#673),#962);
#626=STYLED_ITEM('',(#674),#963);
#627=STYLED_ITEM('',(#675),#964);
#628=STYLED_ITEM('',(#676),#965);
#629=STYLED_ITEM('',(#677),#966);
#630=STYLED_ITEM('',(#678),#967);
#631=STYLED_ITEM('',(#679),#968);
#632=STYLED_ITEM('',(#680),#969);
#633=STYLED_ITEM('',(#681),#970);
#634=STYLED_ITEM('',(#682),#971);
#635=STYLED_ITEM('',(#683),#972);
#636=STYLED_ITEM('',(#684),#973);
#637=STYLED_ITEM('',(#685),#974);
#638=STYLED_ITEM('',(#686),#975);
#639=STYLED_ITEM('',(#687),#976);
#640=STYLED_ITEM('',(#688),#977);
#641=STYLED_ITEM('',(#689),#978);
#642=STYLED_ITEM('',(#690),#979);
#643=STYLED_ITEM('',(#691),#980);
#644=PRESENTATION_STYLE_ASSIGNMENT((#692));
#645=PRESENTATION_STYLE_ASSIGNMENT((#693));
#646=PRESENTATION_STYLE_ASSIGNMENT((#694));
#647=PRESENTATION_STYLE_ASSIGNMENT((#695));
#648=PRESENTATION_STYLE_ASSIGNMENT((#696));
#649=PRESENTATION_STYLE_ASSIGNMENT((#697));
#650=PRESENTATION_STYLE_ASSIGNMENT((#698));
#651=PRESENTATION_STYLE_ASSIGNMENT((#699));
#652=PRESENTATION_STYLE_ASSIGNMENT((#700));
#653=PRESENTATION_STYLE_ASSIGNMENT((#701));
#654=PRESENTATION_STYLE_ASSIGNMENT((#702));
#655=PRESENTATION_STYLE_ASSIGNMENT((#703));
#656=PRESENTATION_STYLE_ASSIGNMENT((#704));
#657=PRESENTATION_STYLE_ASSIGNMENT((#705));
#658=PRESENTATION_STYLE_ASSIGNMENT((#706));
#659=PRESENTATION_STYLE_ASSIGNMENT((#707));
#660=PRESENTATION_STYLE_ASSIGNMENT((#708));
#661=PRESENTATION_STYLE_ASSIGNMENT((#709));
#662=PRESENTATION_STYLE_ASSIGNMENT((#710));
#663=PRESENTATION_STYLE_ASSIGNMENT((#711));
#664=PRESENTATION_STYLE_ASSIGNMENT((#712));
#665=PRESENTATION_STYLE_ASSIGNMENT((#713));
#666=PRESENTATION_STYLE_ASSIGNMENT((#714));
#667=PRESENTATION_STYLE_ASSIGNMENT((#715));
#668=PRESENTATION_STYLE_ASSIGNMENT((#716));
#669=PRESENTATION_STYLE_ASSIGNMENT((#717));
#670=PRESENTATION_STYLE_ASSIGNMENT((#718));
#671=PRESENTATION_STYLE_ASSIGNMENT((#719));
#672=PRESENTATION_STYLE_ASSIGNMENT((#720));
#673=PRESENTATION_STYLE_ASSIGNMENT((#721));
#674=PRESENTATION_STYLE_ASSIGNMENT((#722));
#675=PRESENTATION_STYLE_ASSIGNMENT((#723));
#676=PRESENTATION_STYLE_ASSIGNMENT((#724));
#677=PRESENTATION_STYLE_ASSIGNMENT((#725));
#678=PRESENTATION_STYLE_ASSIGNMENT((#726));
#679=PRESENTATION_STYLE_ASSIGNMENT((#727));
#680=PRESENTATION_STYLE_ASSIGNMENT((#728));
#681=PRESENTATION_STYLE_ASSIGNMENT((#729));
#682=PRESENTATION_STYLE_ASSIGNMENT((#730));
#683=PRESENTATION_STYLE_ASSIGNMENT((#731));
#684=PRESENTATION_STYLE_ASSIGNMENT((#732));
#685=PRESENTATION_STYLE_ASSIGNMENT((#733));
#686=PRESENTATION_STYLE_ASSIGNMENT((#734));
#687=PRESENTATION_STYLE_ASSIGNMENT((#735));
#688=PRESENTATION_STYLE_ASSIGNMENT((#736));
#689=PRESENTATION_STYLE_ASSIGNMENT((#737));
#690=PRESENTATION_STYLE_ASSIGNMENT((#738));
#691=PRESENTATION_STYLE_ASSIGNMENT((#739));
#692=SURFACE_STYLE_USAGE(.BOTH.,#740);
#693=SURFACE_STYLE_USAGE(.BOTH.,#741);
#694=SURFACE_STYLE_USAGE(.BOTH.,#742);
#695=SURFACE_STYLE_USAGE(.BOTH.,#743);
#696=SURFACE_STYLE_USAGE(.BOTH.,#744);
#697=SURFACE_STYLE_USAGE(.BOTH.,#745);
#698=SURFACE_STYLE_USAGE(.BOTH.,#746);
#699=SURFACE_STYLE_USAGE(.BOTH.,#747);
#700=SURFACE_STYLE_USAGE(.BOTH.,#748);
#701=SURFACE_STYLE_USAGE(.BOTH.,#749);
#702=SURFACE_STYLE_USAGE(.BOTH.,#750);
#703=SURFACE_STYLE_USAGE(.BOTH.,#751);
#704=SURFACE_STYLE_USAGE(.BOTH.,#752);
#705=SURFACE_STYLE_USAGE(.BOTH.,#753);
#706=SURFACE_STYLE_USAGE(.BOTH.,#754);
#707=SURFACE_STYLE_USAGE(.BOTH.,#755);
#708=SURFACE_STYLE_USAGE(.BOTH.,#756);
#709=SURFACE_STYLE_USAGE(.BOTH.,#757);
#710=SURFACE_STYLE_USAGE(.BOTH.,#758);
#711=SURFACE_STYLE_USAGE(.BOTH.,#759);
#712=SURFACE_STYLE_USAGE(.BOTH.,#760);
#713=SURFACE_STYLE_USAGE(.BOTH.,#761);
#714=SURFACE_STYLE_USAGE(.BOTH.,#762);
#715=SURFACE_STYLE_USAGE(.BOTH.,#763);
#716=SURFACE_STYLE_USAGE(.BOTH.,#764);
#717=SURFACE_STYLE_USAGE(.BOTH.,#765);
#718=SURFACE_STYLE_USAGE(.BOTH.,#766);
#719=SURFACE_STYLE_USAGE(.BOTH.,#767);
#720=SURFACE_STYLE_USAGE(.BOTH.,#768);
#721=SURFACE_STYLE_USAGE(.BOTH.,#769);
#722=SURFACE_STYLE_USAGE(.BOTH.,#770);
#723=SURFACE_STYLE_USAGE(.BOTH.,#771);
#724=SURFACE_STYLE_USAGE(.BOTH.,#772);
#725=SURFACE_STYLE_USAGE(.BOTH.,#773);
#726=SURFACE_STYLE_USAGE(.BOTH.,#774);
#727=SURFACE_STYLE_USAGE(.BOTH.,#775);
#728=SURFACE_STYLE_USAGE(.BOTH.,#776);
#729=SURFACE_STYLE_USAGE(.BOTH.,#777);
#730=SURFACE_STYLE_USAGE(.BOTH.,#778);
#731=SURFACE_STYLE_USAGE(.BOTH.,#779);
#732=SURFACE_STYLE_USAGE(.BOTH.,#780);
#733=SURFACE_STYLE_USAGE(.BOTH.,#781);
#734=SURFACE_STYLE_USAGE(.BOTH.,#782);
#735=SURFACE_STYLE_USAGE(.BOTH.,#783);
#736=SURFACE_STYLE_USAGE(.BOTH.,#784);
#737=SURFACE_STYLE_USAGE(.BOTH.,#785);
#738=SURFACE_STYLE_USAGE(.BOTH.,#786);
#739=SURFACE_STYLE_USAGE(.BOTH.,#787);
#740=SURFACE_SIDE_STYLE('',(#788));
#741=SURFACE_SIDE_STYLE('',(#789));
#742=SURFACE_SIDE_STYLE('',(#790));
#743=SURFACE_SIDE_STYLE('',(#791));
#744=SURFACE_SIDE_STYLE('',(#792));
#745=SURFACE_SIDE_STYLE('',(#793));
#746=SURFACE_SIDE_STYLE('',(#794));
#747=SURFACE_SIDE_STYLE('',(#795));
#748=SURFACE_SIDE_STYLE('',(#796));
#749=SURFACE_SIDE_STYLE('',(#797));
#750=SURFACE_SIDE_STYLE('',(#798));
#751=SURFACE_SIDE_STYLE('',(#799));
#752=SURFACE_SIDE_STYLE('',(#800));
#753=SURFACE_SIDE_STYLE('',(#801));
#754=SURFACE_SIDE_STYLE('',(#802));
#755=SURFACE_SIDE_STYLE('',(#803));
#756=SURFACE_SIDE_STYLE('',(#804));
#757=SURFACE_SIDE_STYLE('',(#805));
#758=SURFACE_SIDE_STYLE('',(#806));
#759=SURFACE_SIDE_STYLE('',(#807));
#760=SURFACE_SIDE_STYLE('',(#808));
#761=SURFACE_SIDE_STYLE('',(#809));
#762=SURFACE_SIDE_STYLE('',(#810));
#763=SURFACE_SIDE_STYLE('',(#811));
#764=SURFACE_SIDE_STYLE('',(#812));
#765=SURFACE_SIDE_STYLE('',(#813));
#766=SURFACE_SIDE_STYLE('',(#814));
#767=SURFACE_SIDE_STYLE('',(#815));
#768=SURFACE_SIDE_STYLE('',(#816));
#769=SURFACE_SIDE_STYLE('',(#817));
#770=SURFACE_SIDE_STYLE('',(#818));
#771=SURFACE_SIDE_STYLE('',(#819));
#772=SURFACE_SIDE_STYLE('',(#820));
#773=SURFACE_SIDE_STYLE('',(#821));
#774=SURFACE_SIDE_STYLE('',(#822));
#775=SURFACE_SIDE_STYLE('',(#823));
#776=SURFACE_SIDE_STYLE('',(#824));
#777=SURFACE_SIDE_STYLE('',(#825));
#778=SURFACE_SIDE_STYLE('',(#826));
#779=SURFACE_SIDE_STYLE('',(#827));
#780=SURFACE_SIDE_STYLE('',(#828));
#781=SURFACE_SIDE_STYLE('',(#829));
#782=SURFACE_SIDE_STYLE('',(#830));
#783=SURFACE_SIDE_STYLE('',(#831));
#784=SURFACE_SIDE_STYLE('',(#832));
#785=SURFACE_SIDE_STYLE('',(#833));
#786=SURFACE_SIDE_STYLE('',(#834));
#787=SURFACE_SIDE_STYLE('',(#835));
#788=SURFACE_STYLE_FILL_AREA(#836);
#789=SURFACE_STYLE_FILL_AREA(#837);
#790=SURFACE_STYLE_FILL_AREA(#838);
#791=SURFACE_STYLE_FILL_AREA(#839);
#792=SURFACE_STYLE_FILL_AREA(#840);
#793=SURFACE_STYLE_FILL_AREA(#841);
#794=SURFACE_STYLE_FILL_AREA(#842);
#795=SURFACE_STYLE_FILL_AREA(#843);
#796=SURFACE_STYLE_FILL_AREA(#844);
#797=SURFACE_STYLE_FILL_AREA(#845);
#798=SURFACE_STYLE_FILL_AREA(#846);
#799=SURFACE_STYLE_FILL_AREA(#847);
#800=SURFACE_STYLE_FILL_AREA(#848);
#801=SURFACE_STYLE_FILL_AREA(#849);
#802=SURFACE_STYLE_FILL_AREA(#850);
#803=SURFACE_STYLE_FILL_AREA(#851);
#804=SURFACE_STYLE_FILL_AREA(#852);
#805=SURFACE_STYLE_FILL_AREA(#853);
#806=SURFACE_STYLE_FILL_AREA(#854);
#807=SURFACE_STYLE_FILL_AREA(#855);
#808=SURFACE_STYLE_FILL_AREA(#856);
#809=SURFACE_STYLE_FILL_AREA(#857);
#810=SURFACE_STYLE_FILL_AREA(#858);
#811=SURFACE_STYLE_FILL_AREA(#859);
#812=SURFACE_STYLE_FILL_AREA(#860);
#813=SURFACE_STYLE_FILL_AREA(#861);
#814=SURFACE_STYLE_FILL_AREA(#862);
#815=SURFACE_STYLE_FILL_AREA(#863);
#816=SURFACE_STYLE_FILL_AREA(#864);
#817=SURFACE_STYLE_FILL_AREA(#865);
#818=SURFACE_STYLE_FILL_AREA(#866);
#819=SURFACE_STYLE_FILL_AREA(#867);
#820=SURFACE_STYLE_FILL_AREA(#868);
#821=SURFACE_STYLE_FILL_AREA(#869);
#822=SURFACE_STYLE_FILL_AREA(#870);
#823=SURFACE_STYLE_FILL_AREA(#871);
#824=SURFACE_STYLE_FILL_AREA(#872);
#825=SURFACE_STYLE_FILL_AREA(#873);
#826=SURFACE_STYLE_FILL_AREA(#874);
#827=SURFACE_STYLE_FILL_AREA(#875);
#828=SURFACE_STYLE_FILL_AREA(#876);
#829=SURFACE_STYLE_FILL_AREA(#877);
#830=SURFACE_STYLE_FILL_AREA(#878);
#831=SURFACE_STYLE_FILL_AREA(#879);
#832=SURFACE_STYLE_FILL_AREA(#880);
#833=SURFACE_STYLE_FILL_AREA(#881);
#834=SURFACE_STYLE_FILL_AREA(#882);
#835=SURFACE_STYLE_FILL_AREA(#883);
#836=FILL_AREA_STYLE('',(#884));
#837=FILL_AREA_STYLE('',(#885));
#838=FILL_AREA_STYLE('',(#886));
#839=FILL_AREA_STYLE('',(#887));
#840=FILL_AREA_STYLE('',(#888));
#841=FILL_AREA_STYLE('',(#889));
#842=FILL_AREA_STYLE('',(#890));
#843=FILL_AREA_STYLE('',(#891));
#844=FILL_AREA_STYLE('',(#892));
#845=FILL_AREA_STYLE('',(#893));
#846=FILL_AREA_STYLE('',(#894));
#847=FILL_AREA_STYLE('',(#895));
#848=FILL_AREA_STYLE('',(#896));
#849=FILL_AREA_STYLE('',(#897));
#850=FILL_AREA_STYLE('',(#898));
#851=FILL_AREA_STYLE('',(#899));
#852=FILL_AREA_STYLE('',(#900));
#853=FILL_AREA_STYLE('',(#901));
#854=FILL_AREA_STYLE('',(#902));
#855=FILL_AREA_STYLE('',(#903));
#856=FILL_AREA_STYLE('',(#904));
#857=FILL_AREA_STYLE('',(#905));
#858=FILL_AREA_STYLE('',(#906));
#859=FILL_AREA_STYLE('',(#907));
#860=FILL_AREA_STYLE('',(#908));
#861=FILL_AREA_STYLE('',(#909));
#862=FILL_AREA_STYLE('',(#910));
#863=FILL_AREA_STYLE('',(#911));
#864=FILL_AREA_STYLE('',(#912));
#865=FILL_AREA_STYLE('',(#913));
#866=FILL_AREA_STYLE('',(#914));
#867=FILL_AREA_STYLE('',(#915));
#868=FILL_AREA_STYLE('',(#916));
#869=FILL_AREA_STYLE('',(#917));
#870=FILL_AREA_STYLE('',(#918));
#871=FILL_AREA_STYLE('',(#919));
#872=FILL_AREA_STYLE('',(#920));
#873=FILL_AREA_STYLE('',(#921));
#874=FILL_AREA_STYLE('',(#922));
#875=FILL_AREA_STYLE('',(#923));
#876=FILL_AREA_STYLE('',(#924));
#877=FILL_AREA_STYLE('',(#925));
#878=FILL_AREA_STYLE('',(#926));
#879=FILL_AREA_STYLE('',(#927));
#880=FILL_AREA_STYLE('',(#928));
#881=FILL_AREA_STYLE('',(#929));
#882=FILL_AREA_STYLE('',(#930));
#883=FILL_AREA_STYLE('',(#931));
#884=FILL_AREA_STYLE_COLOUR('',#932);
#885=FILL_AREA_STYLE_COLOUR('',#932);
#886=FILL_AREA_STYLE_COLOUR('',#932);
#887=FILL_AREA_STYLE_COLOUR('',#932);
#888=FILL_AREA_STYLE_COLOUR('',#932);
#889=FILL_AREA_STYLE_COLOUR('',#932);
#890=FILL_AREA_STYLE_COLOUR('',#932);
#891=FILL_AREA_STYLE_COLOUR('',#932);
#892=FILL_AREA_STYLE_COLOUR('',#932);
#893=FILL_AREA_STYLE_COLOUR('',#932);
#894=FILL_AREA_STYLE_COLOUR('',#932);
#895=FILL_AREA_STYLE_COLOUR('',#932);
#896=FILL_AREA_STYLE_COLOUR('',#932);
#897=FILL_AREA_STYLE_COLOUR('',#932);
#898=FILL_AREA_STYLE_COLOUR('',#932);
#899=FILL_AREA_STYLE_COLOUR('',#932);
#900=FILL_AREA_STYLE_COLOUR('',#932);
#901=FILL_AREA_STYLE_COLOUR('',#932);
#902=FILL_AREA_STYLE_COLOUR('',#932);
#903=FILL_AREA_STYLE_COLOUR('',#932);
#904=FILL_AREA_STYLE_COLOUR('',#932);
#905=FILL_AREA_STYLE_COLOUR('',#932);
#906=FILL_AREA_STYLE_COLOUR('',#932);
#907=FILL_AREA_STYLE_COLOUR('',#932);
#908=FILL_AREA_STYLE_COLOUR('',#932);
#909=FILL_AREA_STYLE_COLOUR('',#932);
#910=FILL_AREA_STYLE_COLOUR('',#932);
#911=FILL_AREA_STYLE_COLOUR('',#932);
#912=FILL_AREA_STYLE_COLOUR('',#932);
#913=FILL_AREA_STYLE_COLOUR('',#932);
#914=FILL_AREA_STYLE_COLOUR('',#932);
#915=FILL_AREA_STYLE_COLOUR('',#932);
#916=FILL_AREA_STYLE_COLOUR('',#932);
#917=FILL_AREA_STYLE_COLOUR('',#932);
#918=FILL_AREA_STYLE_COLOUR('',#932);
#919=FILL_AREA_STYLE_COLOUR('',#932);
#920=FILL_AREA_STYLE_COLOUR('',#932);
#921=FILL_AREA_STYLE_COLOUR('',#932);
#922=FILL_AREA_STYLE_COLOUR('',#932);
#923=FILL_AREA_STYLE_COLOUR('',#932);
#924=FILL_AREA_STYLE_COLOUR('',#932);
#925=FILL_AREA_STYLE_COLOUR('',#932);
#926=FILL_AREA_STYLE_COLOUR('',#932);
#927=FILL_AREA_STYLE_COLOUR('',#932);
#928=FILL_AREA_STYLE_COLOUR('',#932);
#929=FILL_AREA_STYLE_COLOUR('',#932);
#930=FILL_AREA_STYLE_COLOUR('',#932);
#931=FILL_AREA_STYLE_COLOUR('',#932);
#932=COLOUR_RGB('',0.506983280181885,0.531564235687256,0.550000011920929);
#933=MANIFOLD_SOLID_BREP('',#548);
#934=MANIFOLD_SOLID_BREP('',#549);
#935=MANIFOLD_SOLID_BREP('',#550);
#936=MANIFOLD_SOLID_BREP('',#551);
#937=MANIFOLD_SOLID_BREP('',#552);
#938=MANIFOLD_SOLID_BREP('',#553);
#939=MANIFOLD_SOLID_BREP('',#554);
#940=MANIFOLD_SOLID_BREP('',#555);
#941=MANIFOLD_SOLID_BREP('',#556);
#942=MANIFOLD_SOLID_BREP('',#557);
#943=MANIFOLD_SOLID_BREP('',#558);
#944=MANIFOLD_SOLID_BREP('',#559);
#945=MANIFOLD_SOLID_BREP('',#560);
#946=MANIFOLD_SOLID_BREP('',#561);
#947=MANIFOLD_SOLID_BREP('',#562);
#948=MANIFOLD_SOLID_BREP('',#563);
#949=MANIFOLD_SOLID_BREP('',#564);
#950=MANIFOLD_SOLID_BREP('',#565);
#951=MANIFOLD_SOLID_BREP('',#566);
#952=MANIFOLD_SOLID_BREP('',#567);
#953=MANIFOLD_SOLID_BREP('',#568);
#954=MANIFOLD_SOLID_BREP('',#569);
#955=MANIFOLD_SOLID_BREP('',#570);
#956=MANIFOLD_SOLID_BREP('',#571);
#957=MANIFOLD_SOLID_BREP('',#572);
#958=MANIFOLD_SOLID_BREP('',#573);
#959=MANIFOLD_SOLID_BREP('',#574);
#960=MANIFOLD_SOLID_BREP('',#575);
#961=MANIFOLD_SOLID_BREP('',#576);
#962=MANIFOLD_SOLID_BREP('',#577);
#963=MANIFOLD_SOLID_BREP('',#578);
#964=MANIFOLD_SOLID_BREP('',#579);
#965=MANIFOLD_SOLID_BREP('',#580);
#966=MANIFOLD_SOLID_BREP('',#581);
#967=MANIFOLD_SOLID_BREP('',#582);
#968=MANIFOLD_SOLID_BREP('',#583);
#969=MANIFOLD_SOLID_BREP('',#584);
#970=MANIFOLD_SOLID_BREP('',#585);
#971=MANIFOLD_SOLID_BREP('',#586);
#972=MANIFOLD_SOLID_BREP('',#587);
#973=MANIFOLD_SOLID_BREP('',#588);
#974=MANIFOLD_SOLID_BREP('',#589);
#975=MANIFOLD_SOLID_BREP('',#590);
#976=MANIFOLD_SOLID_BREP('',#591);
#977=MANIFOLD_SOLID_BREP('',#592);
#978=MANIFOLD_SOLID_BREP('',#593);
#979=MANIFOLD_SOLID_BREP('',#594);
#980=MANIFOLD_SOLID_BREP('',#595);
#981=SHAPE_DEFINITION_REPRESENTATION(#1465,#982);
#982=SHAPE_REPRESENTATION('\X2\570667F15B548C035FC374038F74627F\X0\100
00K-2RS\X2\578B\X0\',(#983),#1460);
#983=AXIS2_PLACEMENT_3D('',#1286,#1084,#1085);
#984=AXIS2_PLACEMENT_3D('',#1287,#1086,#1087);
#985=AXIS2_PLACEMENT_3D('',#1288,#1088,#1089);
#986=AXIS2_PLACEMENT_3D('',#1290,#1090,#1091);
#987=AXIS2_PLACEMENT_3D('',#1292,#1092,#1093);
#988=AXIS2_PLACEMENT_3D('',#1293,#1094,#1095);
#989=AXIS2_PLACEMENT_3D('',#1295,#1096,#1097);
#990=AXIS2_PLACEMENT_3D('',#1296,#1098,#1099);
#991=AXIS2_PLACEMENT_3D('',#1298,#1100,#1101);
#992=AXIS2_PLACEMENT_3D('',#1299,#1102,#1103);
#993=AXIS2_PLACEMENT_3D('',#1301,#1104,#1105);
#994=AXIS2_PLACEMENT_3D('',#1303,#1106,#1107);
#995=AXIS2_PLACEMENT_3D('',#1305,#1108,#1109);
#996=AXIS2_PLACEMENT_3D('',#1307,#1110,#1111);
#997=AXIS2_PLACEMENT_3D('',#1309,#1112,#1113);
#998=AXIS2_PLACEMENT_3D('',#1311,#1114,#1115);
#999=AXIS2_PLACEMENT_3D('',#1313,#1116,#1117);
#1000=AXIS2_PLACEMENT_3D('',#1315,#1118,#1119);
#1001=AXIS2_PLACEMENT_3D('',#1317,#1120,#1121);
#1002=AXIS2_PLACEMENT_3D('',#1319,#1122,#1123);
#1003=AXIS2_PLACEMENT_3D('',#1321,#1124,#1125);
#1004=AXIS2_PLACEMENT_3D('',#1323,#1126,#1127);
#1005=AXIS2_PLACEMENT_3D('',#1325,#1128,#1129);
#1006=AXIS2_PLACEMENT_3D('',#1327,#1130,#1131);
#1007=AXIS2_PLACEMENT_3D('',#1329,#1132,#1133);
#1008=AXIS2_PLACEMENT_3D('',#1331,#1134,#1135);
#1009=AXIS2_PLACEMENT_3D('',#1333,#1136,#1137);
#1010=AXIS2_PLACEMENT_3D('',#1335,#1138,#1139);
#1011=AXIS2_PLACEMENT_3D('',#1337,#1140,#1141);
#1012=AXIS2_PLACEMENT_3D('',#1339,#1142,#1143);
#1013=AXIS2_PLACEMENT_3D('',#1341,#1144,#1145);
#1014=AXIS2_PLACEMENT_3D('',#1343,#1146,#1147);
#1015=AXIS2_PLACEMENT_3D('',#1345,#1148,#1149);
#1016=AXIS2_PLACEMENT_3D('',#1347,#1150,#1151);
#1017=AXIS2_PLACEMENT_3D('',#1349,#1152,#1153);
#1018=AXIS2_PLACEMENT_3D('',#1351,#1154,#1155);
#1019=AXIS2_PLACEMENT_3D('',#1353,#1156,#1157);
#1020=AXIS2_PLACEMENT_3D('',#1355,#1158,#1159);
#1021=AXIS2_PLACEMENT_3D('',#1357,#1160,#1161);
#1022=AXIS2_PLACEMENT_3D('',#1359,#1162,#1163);
#1023=AXIS2_PLACEMENT_3D('',#1361,#1164,#1165);
#1024=AXIS2_PLACEMENT_3D('',#1363,#1166,#1167);
#1025=AXIS2_PLACEMENT_3D('',#1365,#1168,#1169);
#1026=AXIS2_PLACEMENT_3D('',#1367,#1170,#1171);
#1027=AXIS2_PLACEMENT_3D('',#1369,#1172,#1173);
#1028=AXIS2_PLACEMENT_3D('',#1371,#1174,#1175);
#1029=AXIS2_PLACEMENT_3D('',#1373,#1176,#1177);
#1030=AXIS2_PLACEMENT_3D('',#1375,#1178,#1179);
#1031=AXIS2_PLACEMENT_3D('',#1377,#1180,#1181);
#1032=AXIS2_PLACEMENT_3D('',#1379,#1182,#1183);
#1033=AXIS2_PLACEMENT_3D('',#1381,#1184,#1185);
#1034=AXIS2_PLACEMENT_3D('',#1383,#1186,#1187);
#1035=AXIS2_PLACEMENT_3D('',#1385,#1188,#1189);
#1036=AXIS2_PLACEMENT_3D('',#1387,#1190,#1191);
#1037=AXIS2_PLACEMENT_3D('',#1388,#1192,#1193);
#1038=AXIS2_PLACEMENT_3D('',#1390,#1194,#1195);
#1039=AXIS2_PLACEMENT_3D('',#1392,#1196,#1197);
#1040=AXIS2_PLACEMENT_3D('',#1393,#1198,#1199);
#1041=AXIS2_PLACEMENT_3D('',#1395,#1200,#1201);
#1042=AXIS2_PLACEMENT_3D('',#1397,#1202,#1203);
#1043=AXIS2_PLACEMENT_3D('',#1398,#1204,#1205);
#1044=AXIS2_PLACEMENT_3D('',#1400,#1206,#1207);
#1045=AXIS2_PLACEMENT_3D('',#1402,#1208,#1209);
#1046=AXIS2_PLACEMENT_3D('',#1403,#1210,#1211);
#1047=AXIS2_PLACEMENT_3D('',#1404,#1212,#1213);
#1048=AXIS2_PLACEMENT_3D('',#1405,#1214,#1215);
#1049=AXIS2_PLACEMENT_3D('',#1407,#1216,#1217);
#1050=AXIS2_PLACEMENT_3D('',#1409,#1218,#1219);
#1051=AXIS2_PLACEMENT_3D('',#1410,#1220,#1221);
#1052=AXIS2_PLACEMENT_3D('',#1411,#1222,#1223);
#1053=AXIS2_PLACEMENT_3D('',#1413,#1224,#1225);
#1054=AXIS2_PLACEMENT_3D('',#1415,#1226,#1227);
#1055=AXIS2_PLACEMENT_3D('',#1416,#1228,#1229);
#1056=AXIS2_PLACEMENT_3D('',#1417,#1230,#1231);
#1057=AXIS2_PLACEMENT_3D('',#1418,#1232,#1233);
#1058=AXIS2_PLACEMENT_3D('',#1420,#1234,#1235);
#1059=AXIS2_PLACEMENT_3D('',#1422,#1236,#1237);
#1060=AXIS2_PLACEMENT_3D('',#1423,#1238,#1239);
#1061=AXIS2_PLACEMENT_3D('',#1425,#1240,#1241);
#1062=AXIS2_PLACEMENT_3D('',#1427,#1242,#1243);
#1063=AXIS2_PLACEMENT_3D('',#1428,#1244,#1245);
#1064=AXIS2_PLACEMENT_3D('',#1430,#1246,#1247);
#1065=AXIS2_PLACEMENT_3D('',#1431,#1248,#1249);
#1066=AXIS2_PLACEMENT_3D('',#1433,#1250,#1251);
#1067=AXIS2_PLACEMENT_3D('',#1434,#1252,#1253);
#1068=AXIS2_PLACEMENT_3D('',#1436,#1254,#1255);
#1069=AXIS2_PLACEMENT_3D('',#1437,#1256,#1257);
#1070=AXIS2_PLACEMENT_3D('',#1439,#1258,#1259);
#1071=AXIS2_PLACEMENT_3D('',#1440,#1260,#1261);
#1072=AXIS2_PLACEMENT_3D('',#1441,#1262,#1263);
#1073=AXIS2_PLACEMENT_3D('',#1443,#1264,#1265);
#1074=AXIS2_PLACEMENT_3D('',#1445,#1266,#1267);
#1075=AXIS2_PLACEMENT_3D('',#1446,#1268,#1269);
#1076=AXIS2_PLACEMENT_3D('',#1447,#1270,#1271);
#1077=AXIS2_PLACEMENT_3D('',#1448,#1272,#1273);
#1078=AXIS2_PLACEMENT_3D('',#1450,#1274,#1275);
#1079=AXIS2_PLACEMENT_3D('',#1452,#1276,#1277);
#1080=AXIS2_PLACEMENT_3D('',#1453,#1278,#1279);
#1081=AXIS2_PLACEMENT_3D('',#1455,#1280,#1281);
#1082=AXIS2_PLACEMENT_3D('',#1456,#1282,#1283);
#1083=AXIS2_PLACEMENT_3D('',#1458,#1284,#1285);
#1084=DIRECTION('',(0.,0.,1.));
#1085=DIRECTION('',(1.,0.,0.));
#1086=DIRECTION('',(1.,0.,0.));
#1087=DIRECTION('',(0.,0.,1.));
#1088=DIRECTION('',(-1.,0.,0.));
#1089=DIRECTION('',(0.,0.,1.));
#1090=DIRECTION('',(-1.,0.,0.));
#1091=DIRECTION('',(0.,0.,1.));
#1092=DIRECTION('',(-1.,0.,0.));
#1093=DIRECTION('',(0.,0.,-1.));
#1094=DIRECTION('',(-1.,0.,0.));
#1095=DIRECTION('',(0.,0.,1.));
#1096=DIRECTION('',(-1.,0.,0.));
#1097=DIRECTION('',(0.,0.,-1.));
#1098=DIRECTION('',(-1.,0.,0.));
#1099=DIRECTION('',(0.,0.,1.));
#1100=DIRECTION('',(1.,0.,0.));
#1101=DIRECTION('',(0.,0.,1.));
#1102=DIRECTION('',(3.13569706001924E-16,0.281732556841431,-0.959492973614497));
#1103=DIRECTION('',(1.,-8.83427950199378E-17,3.0086792964721E-16));
#1104=DIRECTION('',(-3.13569706001924E-16,0.281732556841431,-0.959492973614497));
#1105=DIRECTION('',(-1.,-8.83427950199378E-17,3.0086792964721E-16));
#1106=DIRECTION('',(3.13569706001924E-16,0.755749574354259,-0.654860733945285));
#1107=DIRECTION('',(1.,-2.36980171841344E-16,2.05344487815427E-16));
#1108=DIRECTION('',(-3.13569706001924E-16,0.755749574354259,-0.654860733945285));
#1109=DIRECTION('',(-1.,-2.36980171841344E-16,2.05344487815427E-16));
#1110=DIRECTION('',(3.13569706001924E-16,0.989821441880933,-0.142314838273285));
#1111=DIRECTION('',(1.,-3.10378018525005E-16,4.46256219970653E-17));
#1112=DIRECTION('',(-3.13569706001924E-16,0.989821441880933,-0.142314838273285));
#1113=DIRECTION('',(-1.,-3.10378018525005E-16,4.46256219970653E-17));
#1114=DIRECTION('',(3.13569706001924E-16,0.909631995354518,0.415415013001886));
#1115=DIRECTION('',(1.,-2.8523303735326E-16,-1.30261563495787E-16));
#1116=DIRECTION('',(-3.13569706001924E-16,0.909631995354518,0.415415013001886));
#1117=DIRECTION('',(-1.,-2.8523303735326E-16,-1.30261563495787E-16));
#1118=DIRECTION('',(3.13569706001924E-16,0.540640817455598,0.841253532831181));
#1119=DIRECTION('',(1.,-1.69528582182192E-16,-2.63791622962953E-16));
#1120=DIRECTION('',(-3.13569706001924E-16,0.540640817455598,0.841253532831181));
#1121=DIRECTION('',(-1.,-1.69528582182192E-16,-2.63791622962953E-16));
#1122=DIRECTION('',(3.13569706001924E-16,1.22464679914735E-16,1.));
#1123=DIRECTION('',(1.,-3.84012136764833E-32,-3.13569706001924E-16));
#1124=DIRECTION('',(-3.13569706001924E-16,1.22464679914735E-16,1.));
#1125=DIRECTION('',(-1.,-3.84012136764833E-32,-3.13569706001924E-16));
#1126=DIRECTION('',(3.13569706001924E-16,-0.540640817455597,0.841253532831181));
#1127=DIRECTION('',(1.,1.69528582182192E-16,-2.63791622962954E-16));
#1128=DIRECTION('',(-3.13569706001924E-16,-0.540640817455597,0.841253532831181));
#1129=DIRECTION('',(-1.,1.69528582182192E-16,-2.63791622962954E-16));
#1130=DIRECTION('',(3.13569706001924E-16,-0.909631995354518,0.415415013001887));
#1131=DIRECTION('',(1.,2.8523303735326E-16,-1.30261563495787E-16));
#1132=DIRECTION('',(-3.13569706001924E-16,-0.909631995354518,0.415415013001887));
#1133=DIRECTION('',(-1.,2.8523303735326E-16,-1.30261563495787E-16));
#1134=DIRECTION('',(3.13569706001924E-16,-0.989821441880933,-0.142314838273285));
#1135=DIRECTION('',(1.,3.10378018525005E-16,4.46256219970653E-17));
#1136=DIRECTION('',(-3.13569706001924E-16,-0.989821441880933,-0.142314838273285));
#1137=DIRECTION('',(-1.,3.10378018525005E-16,4.46256219970653E-17));
#1138=DIRECTION('',(3.13569706001924E-16,-0.755749574354259,-0.654860733945285));
#1139=DIRECTION('',(1.,2.36980171841344E-16,2.05344487815427E-16));
#1140=DIRECTION('',(-3.13569706001924E-16,-0.755749574354259,-0.654860733945285));
#1141=DIRECTION('',(-1.,2.36980171841344E-16,2.05344487815427E-16));
#1142=DIRECTION('',(3.13569706001924E-16,-0.28173255684143,-0.959492973614497));
#1143=DIRECTION('',(1.,8.83427950199375E-17,3.0086792964721E-16));
#1144=DIRECTION('',(-3.13569706001924E-16,-0.28173255684143,-0.959492973614497));
#1145=DIRECTION('',(-1.,8.83427950199375E-17,3.0086792964721E-16));
#1146=DIRECTION('',(3.13569706001924E-16,0.540640817455598,-0.841253532831181));
#1147=DIRECTION('',(1.,-1.69528582182192E-16,2.63791622962953E-16));
#1148=DIRECTION('',(-3.13569706001924E-16,0.540640817455598,-0.841253532831181));
#1149=DIRECTION('',(-1.,-1.69528582182192E-16,2.63791622962953E-16));
#1150=DIRECTION('',(3.13569706001924E-16,0.909631995354519,-0.415415013001886));
#1151=DIRECTION('',(1.,-2.8523303735326E-16,1.30261563495787E-16));
#1152=DIRECTION('',(-3.13569706001924E-16,0.909631995354519,-0.415415013001886));
#1153=DIRECTION('',(-1.,-2.8523303735326E-16,1.30261563495787E-16));
#1154=DIRECTION('',(3.13569706001924E-16,0.989821441880933,0.142314838273285));
#1155=DIRECTION('',(1.,-3.10378018525005E-16,-4.46256219970654E-17));
#1156=DIRECTION('',(-3.13569706001924E-16,0.989821441880933,0.142314838273285));
#1157=DIRECTION('',(-1.,-3.10378018525005E-16,-4.46256219970654E-17));
#1158=DIRECTION('',(3.13569706001924E-16,0.755749574354258,0.654860733945285));
#1159=DIRECTION('',(1.,-2.36980171841344E-16,-2.05344487815427E-16));
#1160=DIRECTION('',(-3.13569706001924E-16,0.755749574354258,0.654860733945285));
#1161=DIRECTION('',(-1.,-2.36980171841344E-16,-2.05344487815427E-16));
#1162=DIRECTION('',(3.13569706001924E-16,0.28173255684143,0.959492973614497));
#1163=DIRECTION('',(1.,-8.83427950199376E-17,-3.0086792964721E-16));
#1164=DIRECTION('',(-3.13569706001924E-16,0.28173255684143,0.959492973614497));
#1165=DIRECTION('',(-1.,-8.83427950199376E-17,-3.0086792964721E-16));
#1166=DIRECTION('',(3.13569706001924E-16,-0.281732556841429,0.959492973614497));
#1167=DIRECTION('',(1.,8.83427950199374E-17,-3.0086792964721E-16));
#1168=DIRECTION('',(-3.13569706001924E-16,-0.281732556841429,0.959492973614497));
#1169=DIRECTION('',(-1.,8.83427950199374E-17,-3.0086792964721E-16));
#1170=DIRECTION('',(3.13569706001924E-16,-0.755749574354258,0.654860733945286));
#1171=DIRECTION('',(1.,2.36980171841344E-16,-2.05344487815427E-16));
#1172=DIRECTION('',(-3.13569706001924E-16,-0.755749574354258,0.654860733945286));
#1173=DIRECTION('',(-1.,2.36980171841344E-16,-2.05344487815427E-16));
#1174=DIRECTION('',(3.13569706001924E-16,-0.989821441880933,0.142314838273285));
#1175=DIRECTION('',(1.,3.10378018525005E-16,-4.46256219970654E-17));
#1176=DIRECTION('',(-3.13569706001924E-16,-0.989821441880933,0.142314838273285));
#1177=DIRECTION('',(-1.,3.10378018525005E-16,-4.46256219970654E-17));
#1178=DIRECTION('',(3.13569706001924E-16,-0.909631995354519,-0.415415013001886));
#1179=DIRECTION('',(1.,2.8523303735326E-16,1.30261563495787E-16));
#1180=DIRECTION('',(-3.13569706001924E-16,-0.909631995354519,-0.415415013001886));
#1181=DIRECTION('',(-1.,2.8523303735326E-16,1.30261563495787E-16));
#1182=DIRECTION('',(3.13569706001924E-16,-0.540640817455597,-0.841253532831181));
#1183=DIRECTION('',(1.,1.69528582182192E-16,2.63791622962954E-16));
#1184=DIRECTION('',(-3.13569706001924E-16,-0.540640817455597,-0.841253532831181));
#1185=DIRECTION('',(-1.,1.69528582182192E-16,2.63791622962954E-16));
#1186=DIRECTION('',(-3.13569706001924E-16,0.,-1.));
#1187=DIRECTION('',(-1.,0.,3.13569706001924E-16));
#1188=DIRECTION('',(3.13569706001924E-16,0.,-1.));
#1189=DIRECTION('',(1.,0.,3.13569706001924E-16));
#1190=DIRECTION('',(-1.,0.,0.));
#1191=DIRECTION('',(0.,0.,1.));
#1192=DIRECTION('',(-1.,0.,0.));
#1193=DIRECTION('',(0.,0.,1.));
#1194=DIRECTION('',(-1.,0.,0.));
#1195=DIRECTION('',(0.,0.,1.));
#1196=DIRECTION('',(-1.,0.,0.));
#1197=DIRECTION('',(0.,0.,1.));
#1198=DIRECTION('',(-1.,0.,0.));
#1199=DIRECTION('',(0.,0.,1.));
#1200=DIRECTION('',(1.,0.,0.));
#1201=DIRECTION('',(0.,0.,-1.));
#1202=DIRECTION('',(1.,0.,0.));
#1203=DIRECTION('',(0.,0.,-1.));
#1204=DIRECTION('',(-1.,0.,0.));
#1205=DIRECTION('',(0.,0.,1.));
#1206=DIRECTION('',(1.,0.,0.));
#1207=DIRECTION('',(0.,0.,-1.));
#1208=DIRECTION('',(1.,0.,0.));
#1209=DIRECTION('',(0.,0.,-1.));
#1210=DIRECTION('',(-1.,0.,0.));
#1211=DIRECTION('',(0.,0.,1.));
#1212=DIRECTION('',(-1.,0.,0.));
#1213=DIRECTION('',(0.,0.,1.));
#1214=DIRECTION('',(-1.,0.,0.));
#1215=DIRECTION('',(0.,0.,1.));
#1216=DIRECTION('',(-1.,0.,0.));
#1217=DIRECTION('',(0.,0.,1.));
#1218=DIRECTION('',(-1.,0.,0.));
#1219=DIRECTION('',(0.,0.,1.));
#1220=DIRECTION('',(-1.,0.,0.));
#1221=DIRECTION('',(0.,0.,1.));
#1222=DIRECTION('',(-1.,0.,0.));
#1223=DIRECTION('',(0.,0.,1.));
#1224=DIRECTION('',(-1.,0.,0.));
#1225=DIRECTION('',(0.,0.,1.));
#1226=DIRECTION('',(-1.,0.,0.));
#1227=DIRECTION('',(0.,0.,1.));
#1228=DIRECTION('',(-1.,0.,0.));
#1229=DIRECTION('',(0.,0.,1.));
#1230=DIRECTION('',(1.,0.,0.));
#1231=DIRECTION('',(0.,0.,-1.));
#1232=DIRECTION('',(1.,0.,0.));
#1233=DIRECTION('',(0.,0.,-1.));
#1234=DIRECTION('',(-1.,0.,0.));
#1235=DIRECTION('',(0.,0.,1.));
#1236=DIRECTION('',(-1.,0.,0.));
#1237=DIRECTION('',(0.,0.,1.));
#1238=DIRECTION('',(-1.,0.,0.));
#1239=DIRECTION('',(0.,0.,1.));
#1240=DIRECTION('',(-1.,0.,0.));
#1241=DIRECTION('',(0.,0.,1.));
#1242=DIRECTION('',(-1.,0.,0.));
#1243=DIRECTION('',(0.,0.,1.));
#1244=DIRECTION('',(-1.,0.,0.));
#1245=DIRECTION('',(0.,0.,1.));
#1246=DIRECTION('',(-1.,0.,0.));
#1247=DIRECTION('',(0.,0.,1.));
#1248=DIRECTION('',(-1.,0.,0.));
#1249=DIRECTION('',(0.,0.,1.));
#1250=DIRECTION('',(-1.,0.,0.));
#1251=DIRECTION('',(0.,0.,1.));
#1252=DIRECTION('',(-1.,0.,0.));
#1253=DIRECTION('',(0.,0.,1.));
#1254=DIRECTION('',(-1.,0.,0.));
#1255=DIRECTION('',(0.,0.,1.));
#1256=DIRECTION('',(-1.,0.,0.));
#1257=DIRECTION('',(0.,0.,1.));
#1258=DIRECTION('',(-1.,0.,0.));
#1259=DIRECTION('',(0.,0.,1.));
#1260=DIRECTION('',(1.,0.,0.));
#1261=DIRECTION('',(0.,0.,-1.));
#1262=DIRECTION('',(1.,0.,0.));
#1263=DIRECTION('',(0.,0.,-1.));
#1264=DIRECTION('',(1.,0.,0.));
#1265=DIRECTION('',(0.,0.,-1.));
#1266=DIRECTION('',(-1.,0.,0.));
#1267=DIRECTION('',(0.,0.,1.));
#1268=DIRECTION('',(1.,0.,0.));
#1269=DIRECTION('',(0.,0.,-1.));
#1270=DIRECTION('',(-1.,0.,0.));
#1271=DIRECTION('',(0.,0.,1.));
#1272=DIRECTION('',(-1.,0.,0.));
#1273=DIRECTION('',(0.,0.,1.));
#1274=DIRECTION('',(-1.,0.,0.));
#1275=DIRECTION('',(0.,0.,1.));
#1276=DIRECTION('',(1.,0.,0.));
#1277=DIRECTION('',(0.,0.,-1.));
#1278=DIRECTION('',(-1.,0.,0.));
#1279=DIRECTION('',(0.,0.,1.));
#1280=DIRECTION('',(1.,0.,0.));
#1281=DIRECTION('',(0.,0.,-1.));
#1282=DIRECTION('',(-1.,0.,0.));
#1283=DIRECTION('',(0.,0.,1.));
#1284=DIRECTION('',(-1.,0.,0.));
#1285=DIRECTION('',(0.,0.,1.));
#1286=CARTESIAN_POINT('',(0.,0.,0.));
#1287=CARTESIAN_POINT('',(0.,0.,0.));
#1288=CARTESIAN_POINT('',(11.1,0.,0.));
#1289=CARTESIAN_POINT('',(11.1,0.,34.2467693521312));
#1290=CARTESIAN_POINT('',(10.71,0.,0.));
#1291=CARTESIAN_POINT('',(10.71,0.,34.2467693521312));
#1292=CARTESIAN_POINT('',(11.1,0.,34.2467693521312));
#1293=CARTESIAN_POINT('',(11.1,0.,0.));
#1294=CARTESIAN_POINT('',(11.1,0.,27.21));
#1295=CARTESIAN_POINT('',(11.1,0.,0.));
#1296=CARTESIAN_POINT('',(10.71,0.,0.));
#1297=CARTESIAN_POINT('',(10.71,0.,27.6));
#1298=CARTESIAN_POINT('',(10.71,0.,27.6));
#1299=CARTESIAN_POINT('',(-4.15913361233506,-8.60950284746206,29.3212739807821));
#1300=CARTESIAN_POINT('',(-4.15913361233506,-9.77844886874194,33.3023385284053));
#1301=CARTESIAN_POINT('',(4.15913361233506,-8.60950284746206,29.3212739807821));
#1302=CARTESIAN_POINT('',(4.15913361233506,-9.77844886874194,33.3023385284053));
#1303=CARTESIAN_POINT('',(-4.15913361233506,-23.0950522201571,20.0119766661058));
#1304=CARTESIAN_POINT('',(-4.15913361233506,-26.2307581816183,22.7290813487165));
#1305=CARTESIAN_POINT('',(4.15913361233506,-23.0950522201571,20.0119766661058));
#1306=CARTESIAN_POINT('',(4.15913361233506,-26.2307581816183,22.7290813487165));
#1307=CARTESIAN_POINT('',(-4.15913361233506,-30.2480856947936,4.34901815781117));
#1308=CARTESIAN_POINT('',(-4.15913361233506,-34.3549871095117,4.93950143682488));
#1309=CARTESIAN_POINT('',(4.15913361233506,-30.2480856947936,4.34901815781117));
#1310=CARTESIAN_POINT('',(4.15913361233506,-34.3549871095117,4.93950143682488));
#1311=CARTESIAN_POINT('',(-4.15913361233506,-27.7975656840937,-12.6947228868946));
#1312=CARTESIAN_POINT('',(-4.15913361233506,-31.5717503708745,-14.4183352804093));
#1313=CARTESIAN_POINT('',(4.15913361233506,-27.7975656840937,-12.6947228868946));
#1314=CARTESIAN_POINT('',(4.15913361233506,-31.5717503708745,-14.4183352804093));
#1315=CARTESIAN_POINT('',(-4.15913361233506,-16.5215149769077,-25.707979111637));
#1316=CARTESIAN_POINT('',(-4.15913361233506,-18.764705964813,-29.1984524212024));
#1317=CARTESIAN_POINT('',(4.15913361233506,-16.5215149769077,-25.707979111637));
#1318=CARTESIAN_POINT('',(4.15913361233506,-18.764705964813,-29.1984524212024));
#1319=CARTESIAN_POINT('',(-4.15913361233506,-3.74241451630624E-15,-30.5591336123351));
#1320=CARTESIAN_POINT('',(-4.15913361233506,-4.25053683606433E-15,-34.7082672246701));
#1321=CARTESIAN_POINT('',(4.15913361233506,-3.74241451630624E-15,-30.5591336123351));
#1322=CARTESIAN_POINT('',(4.15913361233506,-4.25053683606433E-15,-34.7082672246701));
#1323=CARTESIAN_POINT('',(-4.15913361233506,16.5215149769076,-25.707979111637));
#1324=CARTESIAN_POINT('',(-4.15913361233506,18.764705964813,-29.1984524212024));
#1325=CARTESIAN_POINT('',(4.15913361233506,16.5215149769076,-25.707979111637));
#1326=CARTESIAN_POINT('',(4.15913361233506,18.764705964813,-29.1984524212024));
#1327=CARTESIAN_POINT('',(-4.15913361233506,27.7975656840937,-12.6947228868946));
#1328=CARTESIAN_POINT('',(-4.15913361233506,31.5717503708745,-14.4183352804093));
#1329=CARTESIAN_POINT('',(4.15913361233506,27.7975656840937,-12.6947228868946));
#1330=CARTESIAN_POINT('',(4.15913361233506,31.5717503708745,-14.4183352804093));
#1331=CARTESIAN_POINT('',(-4.15913361233506,30.2480856947936,4.34901815781117));
#1332=CARTESIAN_POINT('',(-4.15913361233506,34.3549871095117,4.93950143682488));
#1333=CARTESIAN_POINT('',(4.15913361233506,30.2480856947936,4.34901815781117));
#1334=CARTESIAN_POINT('',(4.15913361233506,34.3549871095117,4.93950143682488));
#1335=CARTESIAN_POINT('',(-4.15913361233506,23.0950522201571,20.0119766661058));
#1336=CARTESIAN_POINT('',(-4.15913361233506,26.2307581816183,22.7290813487165));
#1337=CARTESIAN_POINT('',(4.15913361233506,23.0950522201571,20.0119766661058));
#1338=CARTESIAN_POINT('',(4.15913361233506,26.2307581816183,22.7290813487165));
#1339=CARTESIAN_POINT('',(-4.15913361233506,8.60950284746204,29.3212739807821));
#1340=CARTESIAN_POINT('',(-4.15913361233506,9.77844886874191,33.3023385284053));
#1341=CARTESIAN_POINT('',(4.15913361233506,8.60950284746204,29.3212739807821));
#1342=CARTESIAN_POINT('',(4.15913361233506,9.77844886874191,33.3023385284053));
#1343=CARTESIAN_POINT('',(-4.15913361233506,-16.5215149769077,25.707979111637));
#1344=CARTESIAN_POINT('',(-4.15913361233506,-18.764705964813,29.1984524212024));
#1345=CARTESIAN_POINT('',(4.15913361233506,-16.5215149769077,25.707979111637));
#1346=CARTESIAN_POINT('',(4.15913361233506,-18.764705964813,29.1984524212024));
#1347=CARTESIAN_POINT('',(-4.15913361233506,-27.7975656840937,12.6947228868945));
#1348=CARTESIAN_POINT('',(-4.15913361233506,-31.5717503708745,14.4183352804093));
#1349=CARTESIAN_POINT('',(4.15913361233506,-27.7975656840937,12.6947228868945));
#1350=CARTESIAN_POINT('',(4.15913361233506,-31.5717503708745,14.4183352804093));
#1351=CARTESIAN_POINT('',(-4.15913361233506,-30.2480856947936,-4.34901815781118));
#1352=CARTESIAN_POINT('',(-4.15913361233506,-34.3549871095117,-4.93950143682489));
#1353=CARTESIAN_POINT('',(4.15913361233506,-30.2480856947936,-4.34901815781118));
#1354=CARTESIAN_POINT('',(4.15913361233506,-34.3549871095117,-4.93950143682489));
#1355=CARTESIAN_POINT('',(-4.15913361233506,-23.0950522201571,-20.0119766661058));
#1356=CARTESIAN_POINT('',(-4.15913361233506,-26.2307581816183,-22.7290813487166));
#1357=CARTESIAN_POINT('',(4.15913361233506,-23.0950522201571,-20.0119766661058));
#1358=CARTESIAN_POINT('',(4.15913361233506,-26.2307581816183,-22.7290813487166));
#1359=CARTESIAN_POINT('',(-4.15913361233506,-8.60950284746204,-29.3212739807821));
#1360=CARTESIAN_POINT('',(-4.15913361233506,-9.77844886874192,-33.3023385284053));
#1361=CARTESIAN_POINT('',(4.15913361233506,-8.60950284746204,-29.3212739807821));
#1362=CARTESIAN_POINT('',(4.15913361233506,-9.77844886874192,-33.3023385284053));
#1363=CARTESIAN_POINT('',(-4.15913361233506,8.60950284746202,-29.3212739807821));
#1364=CARTESIAN_POINT('',(-4.15913361233506,9.7784488687419,-33.3023385284053));
#1365=CARTESIAN_POINT('',(4.15913361233506,8.60950284746202,-29.3212739807821));
#1366=CARTESIAN_POINT('',(4.15913361233506,9.7784488687419,-33.3023385284053));
#1367=CARTESIAN_POINT('',(-4.15913361233506,23.0950522201571,-20.0119766661058));
#1368=CARTESIAN_POINT('',(-4.15913361233506,26.2307581816183,-22.7290813487166));
#1369=CARTESIAN_POINT('',(4.15913361233506,23.0950522201571,-20.0119766661058));
#1370=CARTESIAN_POINT('',(4.15913361233506,26.2307581816183,-22.7290813487166));
#1371=CARTESIAN_POINT('',(-4.15913361233506,30.2480856947936,-4.34901815781118));
#1372=CARTESIAN_POINT('',(-4.15913361233506,34.3549871095117,-4.93950143682489));
#1373=CARTESIAN_POINT('',(4.15913361233506,30.2480856947936,-4.34901815781118));
#1374=CARTESIAN_POINT('',(4.15913361233506,34.3549871095117,-4.93950143682489));
#1375=CARTESIAN_POINT('',(-4.15913361233506,27.7975656840937,12.6947228868945));
#1376=CARTESIAN_POINT('',(-4.15913361233506,31.5717503708745,14.4183352804093));
#1377=CARTESIAN_POINT('',(4.15913361233506,27.7975656840937,12.6947228868945));
#1378=CARTESIAN_POINT('',(4.15913361233506,31.5717503708745,14.4183352804093));
#1379=CARTESIAN_POINT('',(-4.15913361233506,16.5215149769077,25.707979111637));
#1380=CARTESIAN_POINT('',(-4.15913361233506,18.764705964813,29.1984524212024));
#1381=CARTESIAN_POINT('',(4.15913361233506,16.5215149769077,25.707979111637));
#1382=CARTESIAN_POINT('',(4.15913361233506,18.764705964813,29.1984524212024));
#1383=CARTESIAN_POINT('',(4.15913361233506,0.,30.5591336123351));
#1384=CARTESIAN_POINT('',(4.15913361233506,0.,34.7082672246701));
#1385=CARTESIAN_POINT('',(-4.15913361233506,0.,30.5591336123351));
#1386=CARTESIAN_POINT('',(-4.15913361233506,0.,34.7082672246701));
#1387=CARTESIAN_POINT('',(11.5,0.,33.0567693521312));
#1388=CARTESIAN_POINT('',(11.5,0.,0.));
#1389=CARTESIAN_POINT('',(11.5,0.,34.2567693521312));
#1390=CARTESIAN_POINT('',(11.5,0.,0.));
#1391=CARTESIAN_POINT('',(11.5,0.,38.9));
#1392=CARTESIAN_POINT('',(0.,0.,0.));
#1393=CARTESIAN_POINT('',(10.4,0.,0.));
#1394=CARTESIAN_POINT('',(10.4,0.,40.));
#1395=CARTESIAN_POINT('',(-10.4,0.,0.));
#1396=CARTESIAN_POINT('',(-10.4,0.,-40.));
#1397=CARTESIAN_POINT('',(-11.5,0.,40.));
#1398=CARTESIAN_POINT('',(-11.5,0.,0.));
#1399=CARTESIAN_POINT('',(-11.5,0.,34.2567693521312));
#1400=CARTESIAN_POINT('',(-11.5,0.,0.));
#1401=CARTESIAN_POINT('',(-11.5,0.,-38.9));
#1402=CARTESIAN_POINT('',(-10.4,0.,0.));
#1403=CARTESIAN_POINT('',(10.4,0.,0.));
#1404=CARTESIAN_POINT('',(-10.7,0.,27.2));
#1405=CARTESIAN_POINT('',(-10.7,0.,0.));
#1406=CARTESIAN_POINT('',(-10.7,0.,34.2567693521312));
#1407=CARTESIAN_POINT('',(-10.7,0.,0.));
#1408=CARTESIAN_POINT('',(-10.7,0.,33.3243154468325));
#1409=CARTESIAN_POINT('',(0.,0.,0.));
#1410=CARTESIAN_POINT('',(10.7,0.,27.2));
#1411=CARTESIAN_POINT('',(10.7,0.,0.));
#1412=CARTESIAN_POINT('',(10.7,0.,34.2567693521312));
#1413=CARTESIAN_POINT('',(10.7,0.,0.));
#1414=CARTESIAN_POINT('',(10.7,0.,33.3243154468325));
#1415=CARTESIAN_POINT('',(0.,0.,0.));
#1416=CARTESIAN_POINT('',(0.,0.,0.));
#1417=CARTESIAN_POINT('',(-11.5,0.,27.2));
#1418=CARTESIAN_POINT('',(-11.5,0.,0.));
#1419=CARTESIAN_POINT('',(-11.5,0.,-21.195479503056));
#1420=CARTESIAN_POINT('',(-11.5,0.,0.));
#1421=CARTESIAN_POINT('',(-11.5,0.,27.2));
#1422=CARTESIAN_POINT('',(11.5,0.,20.));
#1423=CARTESIAN_POINT('',(11.5,0.,0.));
#1424=CARTESIAN_POINT('',(11.5,0.,22.9288128363893));
#1425=CARTESIAN_POINT('',(11.5,0.,0.));
#1426=CARTESIAN_POINT('',(11.5,0.,27.2));
#1427=CARTESIAN_POINT('',(0.,0.,0.));
#1428=CARTESIAN_POINT('',(6.61160456623769,0.,0.));
#1429=CARTESIAN_POINT('',(6.61160456623769,0.,27.2));
#1430=CARTESIAN_POINT('',(4.15913361233506,0.,0.));
#1431=CARTESIAN_POINT('',(1.70666265843243,0.,0.));
#1432=CARTESIAN_POINT('',(1.70666265843243,0.,27.2));
#1433=CARTESIAN_POINT('',(0.,0.,0.));
#1434=CARTESIAN_POINT('',(-1.70666265843243,0.,0.));
#1435=CARTESIAN_POINT('',(-1.70666265843243,0.,27.2));
#1436=CARTESIAN_POINT('',(-4.15913361233506,0.,0.));
#1437=CARTESIAN_POINT('',(-6.61160456623769,0.,0.));
#1438=CARTESIAN_POINT('',(-6.61160456623769,0.,27.2));
#1439=CARTESIAN_POINT('',(0.,0.,0.));
#1440=CARTESIAN_POINT('',(11.5,0.,0.));
#1441=CARTESIAN_POINT('',(-10.3086499721609,0.,0.));
#1442=CARTESIAN_POINT('',(-10.3086499721609,0.,-20.0992791689866));
#1443=CARTESIAN_POINT('',(10.4913500278391,0.,0.));
#1444=CARTESIAN_POINT('',(10.4913500278391,0.,-21.8326125023199));
#1445=CARTESIAN_POINT('',(10.4,0.,0.));
#1446=CARTESIAN_POINT('',(-10.4,0.,0.));
#1447=CARTESIAN_POINT('',(0.,0.,0.));
#1448=CARTESIAN_POINT('',(-11.1,0.,0.));
#1449=CARTESIAN_POINT('',(-11.1,0.,34.2467693521312));
#1450=CARTESIAN_POINT('',(-10.71,0.,0.));
#1451=CARTESIAN_POINT('',(-10.71,0.,34.2467693521312));
#1452=CARTESIAN_POINT('',(-11.1,0.,34.2467693521312));
#1453=CARTESIAN_POINT('',(-11.1,0.,0.));
#1454=CARTESIAN_POINT('',(-11.1,0.,27.21));
#1455=CARTESIAN_POINT('',(-11.1,0.,0.));
#1456=CARTESIAN_POINT('',(-10.71,0.,0.));
#1457=CARTESIAN_POINT('',(-10.71,0.,27.6));
#1458=CARTESIAN_POINT('',(-10.71,0.,27.6));
#1459=MECHANICAL_DESIGN_GEOMETRIC_PRESENTATION_REPRESENTATION('',(#596,
#597,#598,#599,#600,#601,#602,#603,#604,#605,#606,#607,#608,#609,#610,#611,
#612,#613,#614,#615,#616,#617,#618,#619,#620,#621,#622,#623,#624,#625,#626,
#627,#628,#629,#630,#631,#632,#633,#634,#635,#636,#637,#638,#639,#640,#641,
#642,#643),#1460);
#1460=(
GEOMETRIC_REPRESENTATION_CONTEXT(3)
GLOBAL_UNCERTAINTY_ASSIGNED_CONTEXT((#1461))
GLOBAL_UNIT_ASSIGNED_CONTEXT((#1464,#1463,#1462))
REPRESENTATION_CONTEXT('\X2\570667F15B548C035FC374038F74627F\X0\10000K
-2RS\X2\578B\X0\','TOP_LEVEL_ASSEMBLY_PART')
);
#1461=UNCERTAINTY_MEASURE_WITH_UNIT(LENGTH_MEASURE(0.005),#1464,
'DISTANCE_ACCURACY_VALUE','Maximum Tolerance applied to model');
#1462=(
NAMED_UNIT(*)
SI_UNIT($,.STERADIAN.)
SOLID_ANGLE_UNIT()
);
#1463=(
NAMED_UNIT(*)
PLANE_ANGLE_UNIT()
SI_UNIT($,.RADIAN.)
);
#1464=(
LENGTH_UNIT()
NAMED_UNIT(*)
SI_UNIT(.MILLI.,.METRE.)
);
#1465=PRODUCT_DEFINITION_SHAPE('','',#1466);
#1466=PRODUCT_DEFINITION('','',#1468,#1467);
#1467=PRODUCT_DEFINITION_CONTEXT('',#1474,'design');
#1468=PRODUCT_DEFINITION_FORMATION_WITH_SPECIFIED_SOURCE('','',#1470,
 .NOT_KNOWN.);
#1469=PRODUCT_RELATED_PRODUCT_CATEGORY('','',(#1470));
#1470=PRODUCT('\X2\570667F15B548C035FC374038F74627F\X0\10000K-2RS\X2\578B\X0\',
'\X2\570667F15B548C035FC374038F74627F\X0\10000K-2RS\X2\578B\X0\',
'\X2\570667F15B548C035FC374038F74627F\X0\10000K-2RS\X2\578B\X0\',(#1472));
#1471=PRODUCT_CATEGORY('','');
#1472=PRODUCT_CONTEXT('',#1474,'mechanical');
#1473=APPLICATION_PROTOCOL_DEFINITION('international standard',
'automotive_design',2010,#1474);
#1474=APPLICATION_CONTEXT(
'core data for automotive mechanical design processes');
ENDSEC;
END-ISO-10303-21;
