ISO-10303-21;
HEADER;
/* Generated by software containing HOOPS Exchange Step
 * from HOOPS Exchange, Inc. (www.tiangong.cloud) 
 */

FILE_DESCRIPTION(
/* description */ ('Unknown'),
/* implementation_level */ '2;1');

FILE_NAME(
/* name */ 'UBPF\X2\5E2651B2538B57065F625EA798764E1D59167403976274038F74627F\X0\',

/* time_stamp */ '2025-07-28T09:07:03+08:00',
/* author */ ('Unknown'),
/* organization */ ('Unknown'),
/* preprocessor_version */ 'ST-DEVELOPER v19.4',
/* originating_system */ 'TianGong',
/* authorisation */ 'Unknown');

FILE_SCHEMA (('AUTOMOTIVE_DESIGN {1 0 10303 214 3 1 1}'));
ENDSEC;

DATA;
#10=PROPERTY_DEFINITION_REPRESENTATION(#14,#12);
#11=PROPERTY_DEFINITION_REPRESENTATION(#15,#13);
#12=REPRESENTATION('',(#16),#1093);
#13=REPRESENTATION('',(#17),#1093);
#14=PROPERTY_DEFINITION('pmi validation property','',#1106);
#15=PROPERTY_DEFINITION('pmi validation property','',#1106);
#16=VALUE_REPRESENTATION_ITEM('number of annotations',COUNT_MEASURE(0.));
#17=VALUE_REPRESENTATION_ITEM('number of views',COUNT_MEASURE(0.));
#18=CONTEXT_DEPENDENT_SHAPE_REPRESENTATION(#28,#1109);
#19=CONTEXT_DEPENDENT_SHAPE_REPRESENTATION(#29,#1111);
#20=CONTEXT_DEPENDENT_SHAPE_REPRESENTATION(#30,#1112);
#21=CONTEXT_DEPENDENT_SHAPE_REPRESENTATION(#31,#1113);
#22=CONTEXT_DEPENDENT_SHAPE_REPRESENTATION(#32,#1115);
#23=NEXT_ASSEMBLY_USAGE_OCCURRENCE('UC\X2\941E51AD917193B5\X0\?',
'UC\X2\941E51AD917193B5\X0\?','UC\X2\941E51AD917193B5\X0\?',#1117,#1118,
'');
#24=NEXT_ASSEMBLY_USAGE_OCCURRENCE('\X2\692467357B23\X0\','\X2\692467357B23\X0\',
'\X2\692467357B23\X0\',#1117,#1119,'');
#25=NEXT_ASSEMBLY_USAGE_OCCURRENCE('\X2\692467357B23\X0\','\X2\692467357B23\X0\',
'\X2\692467357B23\X0\',#1117,#1119,'');
#26=NEXT_ASSEMBLY_USAGE_OCCURRENCE('UB\X2\7441547453A46D63\X0\?',
'UB\X2\7441547453A46D63\X0\?','UB\X2\7441547453A46D63\X0\?',#1116,#1117,
'');
#27=NEXT_ASSEMBLY_USAGE_OCCURRENCE('PF\X2\935063D25E07936655D782306434\X0\?',
'PF\X2\935063D25E07936655D782306434\X0\?','PF\X2\935063D25E07936655D782306434\X0\?',
#1116,#1120,'');
#28=(
REPRESENTATION_RELATIONSHIP(' ',' ',#642,#643)
REPRESENTATION_RELATIONSHIP_WITH_TRANSFORMATION(#33)
SHAPE_REPRESENTATION_RELATIONSHIP()
);
#29=(
REPRESENTATION_RELATIONSHIP(' ',' ',#644,#643)
REPRESENTATION_RELATIONSHIP_WITH_TRANSFORMATION(#34)
SHAPE_REPRESENTATION_RELATIONSHIP()
);
#30=(
REPRESENTATION_RELATIONSHIP(' ',' ',#644,#643)
REPRESENTATION_RELATIONSHIP_WITH_TRANSFORMATION(#35)
SHAPE_REPRESENTATION_RELATIONSHIP()
);
#31=(
REPRESENTATION_RELATIONSHIP(' ',' ',#643,#645)
REPRESENTATION_RELATIONSHIP_WITH_TRANSFORMATION(#36)
SHAPE_REPRESENTATION_RELATIONSHIP()
);
#32=(
REPRESENTATION_RELATIONSHIP(' ',' ',#646,#645)
REPRESENTATION_RELATIONSHIP_WITH_TRANSFORMATION(#37)
SHAPE_REPRESENTATION_RELATIONSHIP()
);
#33=ITEM_DEFINED_TRANSFORMATION(' ',' ',#647,#688);
#34=ITEM_DEFINED_TRANSFORMATION(' ',' ',#647,#698);
#35=ITEM_DEFINED_TRANSFORMATION(' ',' ',#647,#699);
#36=ITEM_DEFINED_TRANSFORMATION(' ',' ',#647,#700);
#37=ITEM_DEFINED_TRANSFORMATION(' ',' ',#647,#734);
#38=CONICAL_SURFACE('',#684,16.,0.785398163397448);
#39=CONICAL_SURFACE('',#685,20.3333333333333,0.785398163397448);
#40=CONICAL_SURFACE('',#686,19.3333333333333,0.785398163397448);
#41=CONICAL_SURFACE('',#696,2.,0.785398163397448);
#42=CONICAL_SURFACE('',#697,3.,0.785398163397449);
#43=B_SPLINE_CURVE_WITH_KNOTS('',3,(#945,#946,#947,#948,#949,#950,#951,
#952,#953,#954,#955),.UNSPECIFIED.,.T.,.F.,(1,1,1,1,1,1,1,1,1,1,1,1,1,1,
1),(-0.00704327229094755,-0.0046955148606317,-0.00234775743031585,0.,0.00234775743031585,
0.0046955148606317,0.00704327229094756,0.00939102972126341,0.0117387871515793,
0.0140865445818951,0.016434302012211,0.0187820594425268,0.0211298168728427,
0.0234775743031585,0.0258253317334744),.UNSPECIFIED.);
#44=B_SPLINE_CURVE_WITH_KNOTS('',3,(#957,#958,#959,#960,#961,#962,#963,
#964,#965,#966,#967),.UNSPECIFIED.,.T.,.F.,(1,1,1,1,1,1,1,1,1,1,1,1,1,1,
1),(-0.00705139841568962,-0.00470093227712641,-0.00235046613856321,0.,0.00235046613856321,
0.00470093227712641,0.00705139841568962,0.00940186455425283,0.011752330692816,
0.0141027968313792,0.0164532629699424,0.0188037291085057,0.0211541952470689,
0.0235046613856321,0.0258551275241953),.UNSPECIFIED.);
#45=B_SPLINE_CURVE_WITH_KNOTS('',3,(#977,#978,#979,#980,#981,#982,#983,
#984,#985,#986,#987),.UNSPECIFIED.,.T.,.F.,(1,1,1,1,1,1,1,1,1,1,1,1,1,1,
1),(-0.00704327229094755,-0.0046955148606317,-0.00234775743031585,0.,0.00234775743031585,
0.0046955148606317,0.00704327229094756,0.00939102972126341,0.0117387871515793,
0.0140865445818951,0.016434302012211,0.0187820594425268,0.0211298168728427,
0.0234775743031585,0.0258253317334744),.UNSPECIFIED.);
#46=B_SPLINE_CURVE_WITH_KNOTS('',3,(#1005,#1006,#1007,#1008,#1009,#1010,
#1011,#1012,#1013,#1014,#1015),.UNSPECIFIED.,.T.,.F.,(1,1,1,1,1,1,1,1,1,
1,1,1,1,1,1),(-0.00705139841568962,-0.00470093227712641,-0.00235046613856321,
0.,0.00235046613856321,0.00470093227712641,0.00705139841568962,0.00940186455425283,
0.011752330692816,0.0141027968313792,0.0164532629699424,0.0188037291085057,
0.0211541952470689,0.0235046613856321,0.0258551275241953),.UNSPECIFIED.);
#47=TOROIDAL_SURFACE('',#664,23.,4.37972876516773);
#48=TOROIDAL_SURFACE('',#674,23.,4.37972876516773);
#49=TOROIDAL_SURFACE('',#727,36.8094756822207,1.);
#50=TOROIDAL_SURFACE('',#728,36.8094756822207,1.);
#51=TOROIDAL_SURFACE('',#729,56.,1.);
#52=TOROIDAL_SURFACE('',#730,56.,1.);
#53=CYLINDRICAL_SURFACE('',#662,25.6666666666667);
#54=CYLINDRICAL_SURFACE('',#666,25.6666666666667);
#55=CYLINDRICAL_SURFACE('',#667,3.);
#56=CYLINDRICAL_SURFACE('',#671,20.3333333333333);
#57=CYLINDRICAL_SURFACE('',#676,20.3333333333333);
#58=CYLINDRICAL_SURFACE('',#681,15.);
#59=CYLINDRICAL_SURFACE('',#683,3.);
#60=CYLINDRICAL_SURFACE('',#689,3.);
#61=CYLINDRICAL_SURFACE('',#718,57.);
#62=CYLINDRICAL_SURFACE('',#731,5.5);
#63=CYLINDRICAL_SURFACE('',#732,5.5);
#64=CYLINDRICAL_SURFACE('',#733,5.5);
#65=ORIENTED_EDGE('',*,*,#147,.F.);
#66=ORIENTED_EDGE('',*,*,#148,.T.);
#67=ORIENTED_EDGE('',*,*,#149,.F.);
#68=ORIENTED_EDGE('',*,*,#147,.T.);
#69=ORIENTED_EDGE('',*,*,#150,.F.);
#70=ORIENTED_EDGE('',*,*,#149,.T.);
#71=ORIENTED_EDGE('',*,*,#151,.F.);
#72=ORIENTED_EDGE('',*,*,#150,.T.);
#73=ORIENTED_EDGE('',*,*,#152,.F.);
#74=ORIENTED_EDGE('',*,*,#151,.T.);
#75=ORIENTED_EDGE('',*,*,#148,.F.);
#76=ORIENTED_EDGE('',*,*,#152,.T.);
#77=ORIENTED_EDGE('',*,*,#153,.T.);
#78=ORIENTED_EDGE('',*,*,#154,.T.);
#79=ORIENTED_EDGE('',*,*,#155,.T.);
#80=ORIENTED_EDGE('',*,*,#156,.F.);
#81=ORIENTED_EDGE('',*,*,#157,.T.);
#82=ORIENTED_EDGE('',*,*,#153,.F.);
#83=ORIENTED_EDGE('',*,*,#158,.F.);
#84=ORIENTED_EDGE('',*,*,#159,.T.);
#85=ORIENTED_EDGE('',*,*,#160,.T.);
#86=ORIENTED_EDGE('',*,*,#159,.F.);
#87=ORIENTED_EDGE('',*,*,#161,.T.);
#88=ORIENTED_EDGE('',*,*,#160,.F.);
#89=ORIENTED_EDGE('',*,*,#162,.T.);
#90=ORIENTED_EDGE('',*,*,#163,.T.);
#91=ORIENTED_EDGE('',*,*,#164,.T.);
#92=ORIENTED_EDGE('',*,*,#154,.F.);
#93=ORIENTED_EDGE('',*,*,#165,.F.);
#94=ORIENTED_EDGE('',*,*,#156,.T.);
#95=ORIENTED_EDGE('',*,*,#158,.T.);
#96=ORIENTED_EDGE('',*,*,#165,.T.);
#97=ORIENTED_EDGE('',*,*,#164,.F.);
#98=ORIENTED_EDGE('',*,*,#162,.F.);
#99=ORIENTED_EDGE('',*,*,#163,.F.);
#100=ORIENTED_EDGE('',*,*,#161,.F.);
#101=ORIENTED_EDGE('',*,*,#157,.F.);
#102=ORIENTED_EDGE('',*,*,#155,.F.);
#103=ORIENTED_EDGE('',*,*,#166,.T.);
#104=ORIENTED_EDGE('',*,*,#167,.T.);
#105=ORIENTED_EDGE('',*,*,#168,.T.);
#106=ORIENTED_EDGE('',*,*,#169,.T.);
#107=ORIENTED_EDGE('',*,*,#166,.F.);
#108=ORIENTED_EDGE('',*,*,#169,.F.);
#109=ORIENTED_EDGE('',*,*,#168,.F.);
#110=ORIENTED_EDGE('',*,*,#167,.F.);
#111=ORIENTED_EDGE('',*,*,#170,.T.);
#112=ORIENTED_EDGE('',*,*,#171,.F.);
#113=ORIENTED_EDGE('',*,*,#172,.T.);
#114=ORIENTED_EDGE('',*,*,#173,.F.);
#115=ORIENTED_EDGE('',*,*,#171,.T.);
#116=ORIENTED_EDGE('',*,*,#172,.F.);
#117=ORIENTED_EDGE('',*,*,#174,.T.);
#118=ORIENTED_EDGE('',*,*,#175,.T.);
#119=ORIENTED_EDGE('',*,*,#173,.T.);
#120=ORIENTED_EDGE('',*,*,#175,.F.);
#121=ORIENTED_EDGE('',*,*,#176,.T.);
#122=ORIENTED_EDGE('',*,*,#177,.T.);
#123=ORIENTED_EDGE('',*,*,#178,.T.);
#124=ORIENTED_EDGE('',*,*,#179,.T.);
#125=ORIENTED_EDGE('',*,*,#180,.T.);
#126=ORIENTED_EDGE('',*,*,#181,.T.);
#127=ORIENTED_EDGE('',*,*,#182,.T.);
#128=ORIENTED_EDGE('',*,*,#183,.T.);
#129=ORIENTED_EDGE('',*,*,#184,.T.);
#130=ORIENTED_EDGE('',*,*,#185,.T.);
#131=ORIENTED_EDGE('',*,*,#186,.T.);
#132=ORIENTED_EDGE('',*,*,#187,.T.);
#133=ORIENTED_EDGE('',*,*,#170,.F.);
#134=ORIENTED_EDGE('',*,*,#180,.F.);
#135=ORIENTED_EDGE('',*,*,#174,.F.);
#136=ORIENTED_EDGE('',*,*,#187,.F.);
#137=ORIENTED_EDGE('',*,*,#182,.F.);
#138=ORIENTED_EDGE('',*,*,#179,.F.);
#139=ORIENTED_EDGE('',*,*,#186,.F.);
#140=ORIENTED_EDGE('',*,*,#181,.F.);
#141=ORIENTED_EDGE('',*,*,#178,.F.);
#142=ORIENTED_EDGE('',*,*,#185,.F.);
#143=ORIENTED_EDGE('',*,*,#177,.F.);
#144=ORIENTED_EDGE('',*,*,#184,.F.);
#145=ORIENTED_EDGE('',*,*,#176,.F.);
#146=ORIENTED_EDGE('',*,*,#183,.F.);
#147=EDGE_CURVE('',#330,#330,#188,.T.);
#148=EDGE_CURVE('',#331,#331,#189,.T.);
#149=EDGE_CURVE('',#332,#332,#190,.T.);
#150=EDGE_CURVE('',#333,#333,#191,.T.);
#151=EDGE_CURVE('',#334,#334,#192,.T.);
#152=EDGE_CURVE('',#335,#335,#193,.T.);
#153=EDGE_CURVE('',#336,#336,#43,.T.);
#154=EDGE_CURVE('',#337,#337,#44,.T.);
#155=EDGE_CURVE('',#338,#338,#194,.T.);
#156=EDGE_CURVE('',#339,#339,#195,.T.);
#157=EDGE_CURVE('',#340,#340,#196,.F.);
#158=EDGE_CURVE('',#341,#341,#45,.T.);
#159=EDGE_CURVE('',#342,#342,#197,.T.);
#160=EDGE_CURVE('',#343,#343,#198,.T.);
#161=EDGE_CURVE('',#344,#344,#199,.F.);
#162=EDGE_CURVE('',#345,#345,#200,.F.);
#163=EDGE_CURVE('',#346,#346,#201,.T.);
#164=EDGE_CURVE('',#347,#347,#202,.T.);
#165=EDGE_CURVE('',#348,#348,#46,.T.);
#166=EDGE_CURVE('',#350,#350,#203,.F.);
#167=EDGE_CURVE('',#351,#351,#204,.T.);
#168=EDGE_CURVE('',#352,#352,#205,.F.);
#169=EDGE_CURVE('',#353,#353,#206,.T.);
#170=EDGE_CURVE('',#354,#354,#207,.F.);
#171=EDGE_CURVE('',#355,#355,#208,.T.);
#172=EDGE_CURVE('',#356,#356,#209,.T.);
#173=EDGE_CURVE('',#357,#357,#210,.T.);
#174=EDGE_CURVE('',#358,#358,#211,.F.);
#175=EDGE_CURVE('',#359,#359,#212,.T.);
#176=EDGE_CURVE('',#360,#360,#213,.T.);
#177=EDGE_CURVE('',#361,#361,#214,.T.);
#178=EDGE_CURVE('',#362,#362,#215,.T.);
#179=EDGE_CURVE('',#363,#363,#216,.T.);
#180=EDGE_CURVE('',#364,#364,#217,.F.);
#181=EDGE_CURVE('',#365,#365,#218,.F.);
#182=EDGE_CURVE('',#366,#366,#219,.F.);
#183=EDGE_CURVE('',#367,#367,#220,.F.);
#184=EDGE_CURVE('',#368,#368,#221,.F.);
#185=EDGE_CURVE('',#369,#369,#222,.F.);
#186=EDGE_CURVE('',#370,#370,#223,.T.);
#187=EDGE_CURVE('',#371,#371,#224,.F.);
#188=CIRCLE('',#656,29.9499582637439);
#189=CIRCLE('',#657,25.6666666666667);
#190=CIRCLE('',#659,29.9499582637439);
#191=CIRCLE('',#661,25.6666666666667);
#192=CIRCLE('',#663,25.6666666666667);
#193=CIRCLE('',#665,25.6666666666667);
#194=CIRCLE('',#669,19.3333333333333);
#195=CIRCLE('',#670,15.);
#196=CIRCLE('',#672,20.3333333333333);
#197=CIRCLE('',#673,20.3333333333333);
#198=CIRCLE('',#675,20.3333333333333);
#199=CIRCLE('',#677,20.3333333333333);
#200=CIRCLE('',#679,16.);
#201=CIRCLE('',#680,19.3333333333333);
#202=CIRCLE('',#682,15.);
#203=CIRCLE('',#690,3.);
#204=CIRCLE('',#691,3.);
#205=CIRCLE('',#693,2.);
#206=CIRCLE('',#695,2.);
#207=CIRCLE('',#702,35.8146249881067);
#208=CIRCLE('',#703,34.5832329315812);
#209=CIRCLE('',#705,29.3428015022424);
#210=CIRCLE('',#706,29.3428015022424);
#211=CIRCLE('',#709,35.8146249881067);
#212=CIRCLE('',#710,34.5832329315812);
#213=CIRCLE('',#713,5.5);
#214=CIRCLE('',#714,5.5);
#215=CIRCLE('',#715,5.5);
#216=CIRCLE('',#716,56.);
#217=CIRCLE('',#717,36.8094756822207);
#218=CIRCLE('',#719,57.);
#219=CIRCLE('',#720,57.);
#220=CIRCLE('',#722,5.5);
#221=CIRCLE('',#723,5.5);
#222=CIRCLE('',#724,5.5);
#223=CIRCLE('',#725,56.);
#224=CIRCLE('',#726,36.8094756822207);
#225=EDGE_LOOP('',(#65));
#226=EDGE_LOOP('',(#66));
#227=EDGE_LOOP('',(#67));
#228=EDGE_LOOP('',(#68));
#229=EDGE_LOOP('',(#69));
#230=EDGE_LOOP('',(#70));
#231=EDGE_LOOP('',(#71));
#232=EDGE_LOOP('',(#72));
#233=EDGE_LOOP('',(#73));
#234=EDGE_LOOP('',(#74));
#235=EDGE_LOOP('',(#75));
#236=EDGE_LOOP('',(#76));
#237=EDGE_LOOP('',(#77));
#238=EDGE_LOOP('',(#78));
#239=EDGE_LOOP('',(#79));
#240=EDGE_LOOP('',(#80));
#241=EDGE_LOOP('',(#81));
#242=EDGE_LOOP('',(#82));
#243=EDGE_LOOP('',(#83));
#244=EDGE_LOOP('',(#84));
#245=EDGE_LOOP('',(#85));
#246=EDGE_LOOP('',(#86));
#247=EDGE_LOOP('',(#87));
#248=EDGE_LOOP('',(#88));
#249=EDGE_LOOP('',(#89));
#250=EDGE_LOOP('',(#90));
#251=EDGE_LOOP('',(#91));
#252=EDGE_LOOP('',(#92));
#253=EDGE_LOOP('',(#93));
#254=EDGE_LOOP('',(#94));
#255=EDGE_LOOP('',(#95));
#256=EDGE_LOOP('',(#96));
#257=EDGE_LOOP('',(#97));
#258=EDGE_LOOP('',(#98));
#259=EDGE_LOOP('',(#99));
#260=EDGE_LOOP('',(#100));
#261=EDGE_LOOP('',(#101));
#262=EDGE_LOOP('',(#102));
#263=EDGE_LOOP('',(#103));
#264=EDGE_LOOP('',(#104));
#265=EDGE_LOOP('',(#105));
#266=EDGE_LOOP('',(#106));
#267=EDGE_LOOP('',(#107));
#268=EDGE_LOOP('',(#108));
#269=EDGE_LOOP('',(#109));
#270=EDGE_LOOP('',(#110));
#271=EDGE_LOOP('',(#111));
#272=EDGE_LOOP('',(#112));
#273=EDGE_LOOP('',(#113));
#274=EDGE_LOOP('',(#114));
#275=EDGE_LOOP('',(#115));
#276=EDGE_LOOP('',(#116));
#277=EDGE_LOOP('',(#117));
#278=EDGE_LOOP('',(#118));
#279=EDGE_LOOP('',(#119));
#280=EDGE_LOOP('',(#120));
#281=EDGE_LOOP('',(#121));
#282=EDGE_LOOP('',(#122));
#283=EDGE_LOOP('',(#123));
#284=EDGE_LOOP('',(#124));
#285=EDGE_LOOP('',(#125));
#286=EDGE_LOOP('',(#126));
#287=EDGE_LOOP('',(#127));
#288=EDGE_LOOP('',(#128));
#289=EDGE_LOOP('',(#129));
#290=EDGE_LOOP('',(#130));
#291=EDGE_LOOP('',(#131));
#292=EDGE_LOOP('',(#132));
#293=EDGE_LOOP('',(#133));
#294=EDGE_LOOP('',(#134));
#295=EDGE_LOOP('',(#135));
#296=EDGE_LOOP('',(#136));
#297=EDGE_LOOP('',(#137));
#298=EDGE_LOOP('',(#138));
#299=EDGE_LOOP('',(#139));
#300=EDGE_LOOP('',(#140));
#301=EDGE_LOOP('',(#141));
#302=EDGE_LOOP('',(#142));
#303=EDGE_LOOP('',(#143));
#304=EDGE_LOOP('',(#144));
#305=EDGE_LOOP('',(#145));
#306=EDGE_LOOP('',(#146));
#307=PLANE('',#655);
#308=PLANE('',#660);
#309=PLANE('',#668);
#310=PLANE('',#678);
#311=PLANE('',#692);
#312=PLANE('',#694);
#313=PLANE('',#707);
#314=PLANE('',#711);
#315=PLANE('',#712);
#316=PLANE('',#721);
#317=SHAPE_REPRESENTATION_RELATIONSHIP('','',#642,#320);
#318=SHAPE_REPRESENTATION_RELATIONSHIP('','',#644,#321);
#319=SHAPE_REPRESENTATION_RELATIONSHIP('','',#646,#322);
#320=ADVANCED_BREP_SHAPE_REPRESENTATION('',(#625,#626,#627,#628,#629,#630,
#631,#632,#633,#634),#1095);
#321=ADVANCED_BREP_SHAPE_REPRESENTATION('',(#635),#1096);
#322=ADVANCED_BREP_SHAPE_REPRESENTATION('',(#636),#1097);
#323=VERTEX_POINT('',#913);
#324=VERTEX_POINT('',#915);
#325=VERTEX_POINT('',#917);
#326=VERTEX_POINT('',#919);
#327=VERTEX_POINT('',#921);
#328=VERTEX_POINT('',#923);
#329=VERTEX_POINT('',#925);
#330=VERTEX_POINT('',#928);
#331=VERTEX_POINT('',#930);
#332=VERTEX_POINT('',#933);
#333=VERTEX_POINT('',#936);
#334=VERTEX_POINT('',#939);
#335=VERTEX_POINT('',#942);
#336=VERTEX_POINT('',#956);
#337=VERTEX_POINT('',#968);
#338=VERTEX_POINT('',#971);
#339=VERTEX_POINT('',#973);
#340=VERTEX_POINT('',#976);
#341=VERTEX_POINT('',#988);
#342=VERTEX_POINT('',#990);
#343=VERTEX_POINT('',#993);
#344=VERTEX_POINT('',#996);
#345=VERTEX_POINT('',#999);
#346=VERTEX_POINT('',#1001);
#347=VERTEX_POINT('',#1004);
#348=VERTEX_POINT('',#1016);
#349=VERTEX_POINT('',#1022);
#350=VERTEX_POINT('',#1026);
#351=VERTEX_POINT('',#1028);
#352=VERTEX_POINT('',#1031);
#353=VERTEX_POINT('',#1034);
#354=VERTEX_POINT('',#1042);
#355=VERTEX_POINT('',#1044);
#356=VERTEX_POINT('',#1047);
#357=VERTEX_POINT('',#1049);
#358=VERTEX_POINT('',#1053);
#359=VERTEX_POINT('',#1055);
#360=VERTEX_POINT('',#1059);
#361=VERTEX_POINT('',#1061);
#362=VERTEX_POINT('',#1063);
#363=VERTEX_POINT('',#1065);
#364=VERTEX_POINT('',#1067);
#365=VERTEX_POINT('',#1070);
#366=VERTEX_POINT('',#1072);
#367=VERTEX_POINT('',#1075);
#368=VERTEX_POINT('',#1077);
#369=VERTEX_POINT('',#1079);
#370=VERTEX_POINT('',#1081);
#371=VERTEX_POINT('',#1083);
#372=VERTEX_LOOP('',#323);
#373=VERTEX_LOOP('',#324);
#374=VERTEX_LOOP('',#325);
#375=VERTEX_LOOP('',#326);
#376=VERTEX_LOOP('',#327);
#377=VERTEX_LOOP('',#328);
#378=VERTEX_LOOP('',#329);
#379=VERTEX_LOOP('',#349);
#380=FACE_BOUND('',#372,.T.);
#381=FACE_BOUND('',#373,.T.);
#382=FACE_BOUND('',#374,.T.);
#383=FACE_BOUND('',#375,.T.);
#384=FACE_BOUND('',#376,.T.);
#385=FACE_BOUND('',#377,.T.);
#386=FACE_BOUND('',#378,.T.);
#387=FACE_BOUND('',#225,.T.);
#388=FACE_BOUND('',#226,.T.);
#389=FACE_BOUND('',#227,.T.);
#390=FACE_BOUND('',#228,.T.);
#391=FACE_BOUND('',#229,.T.);
#392=FACE_BOUND('',#230,.T.);
#393=FACE_BOUND('',#231,.T.);
#394=FACE_BOUND('',#232,.T.);
#395=FACE_BOUND('',#233,.T.);
#396=FACE_BOUND('',#234,.T.);
#397=FACE_BOUND('',#235,.T.);
#398=FACE_BOUND('',#236,.T.);
#399=FACE_BOUND('',#237,.T.);
#400=FACE_BOUND('',#238,.T.);
#401=FACE_BOUND('',#239,.T.);
#402=FACE_BOUND('',#240,.T.);
#403=FACE_BOUND('',#241,.T.);
#404=FACE_BOUND('',#242,.T.);
#405=FACE_BOUND('',#243,.T.);
#406=FACE_BOUND('',#244,.T.);
#407=FACE_BOUND('',#245,.T.);
#408=FACE_BOUND('',#246,.T.);
#409=FACE_BOUND('',#247,.T.);
#410=FACE_BOUND('',#248,.T.);
#411=FACE_BOUND('',#249,.T.);
#412=FACE_BOUND('',#250,.T.);
#413=FACE_BOUND('',#251,.T.);
#414=FACE_BOUND('',#252,.T.);
#415=FACE_BOUND('',#253,.T.);
#416=FACE_BOUND('',#254,.T.);
#417=FACE_BOUND('',#255,.T.);
#418=FACE_BOUND('',#256,.T.);
#419=FACE_BOUND('',#257,.T.);
#420=FACE_BOUND('',#258,.T.);
#421=FACE_BOUND('',#259,.T.);
#422=FACE_BOUND('',#260,.T.);
#423=FACE_BOUND('',#261,.T.);
#424=FACE_BOUND('',#262,.T.);
#425=FACE_BOUND('',#379,.T.);
#426=FACE_BOUND('',#263,.T.);
#427=FACE_BOUND('',#264,.T.);
#428=FACE_BOUND('',#265,.T.);
#429=FACE_BOUND('',#266,.T.);
#430=FACE_BOUND('',#267,.T.);
#431=FACE_BOUND('',#268,.T.);
#432=FACE_BOUND('',#269,.T.);
#433=FACE_BOUND('',#270,.T.);
#434=FACE_BOUND('',#271,.T.);
#435=FACE_BOUND('',#272,.T.);
#436=FACE_BOUND('',#273,.T.);
#437=FACE_BOUND('',#274,.T.);
#438=FACE_BOUND('',#275,.T.);
#439=FACE_BOUND('',#276,.T.);
#440=FACE_BOUND('',#277,.T.);
#441=FACE_BOUND('',#278,.T.);
#442=FACE_BOUND('',#279,.T.);
#443=FACE_BOUND('',#280,.T.);
#444=FACE_BOUND('',#281,.T.);
#445=FACE_BOUND('',#282,.T.);
#446=FACE_BOUND('',#283,.T.);
#447=FACE_BOUND('',#284,.T.);
#448=FACE_BOUND('',#285,.T.);
#449=FACE_BOUND('',#286,.T.);
#450=FACE_BOUND('',#287,.T.);
#451=FACE_BOUND('',#288,.T.);
#452=FACE_BOUND('',#289,.T.);
#453=FACE_BOUND('',#290,.T.);
#454=FACE_BOUND('',#291,.T.);
#455=FACE_BOUND('',#292,.T.);
#456=FACE_BOUND('',#293,.T.);
#457=FACE_BOUND('',#294,.T.);
#458=FACE_BOUND('',#295,.T.);
#459=FACE_BOUND('',#296,.T.);
#460=FACE_BOUND('',#297,.T.);
#461=FACE_BOUND('',#298,.T.);
#462=FACE_BOUND('',#299,.T.);
#463=FACE_BOUND('',#300,.T.);
#464=FACE_BOUND('',#301,.T.);
#465=FACE_BOUND('',#302,.T.);
#466=FACE_BOUND('',#303,.T.);
#467=FACE_BOUND('',#304,.T.);
#468=FACE_BOUND('',#305,.T.);
#469=FACE_BOUND('',#306,.T.);
#470=SPHERICAL_SURFACE('',#648,4.27972876516773);
#471=SPHERICAL_SURFACE('',#649,4.27972876516773);
#472=SPHERICAL_SURFACE('',#650,4.27972876516773);
#473=SPHERICAL_SURFACE('',#651,4.27972876516773);
#474=SPHERICAL_SURFACE('',#652,4.27972876516773);
#475=SPHERICAL_SURFACE('',#653,4.27972876516773);
#476=SPHERICAL_SURFACE('',#654,4.27972876516773);
#477=SPHERICAL_SURFACE('',#658,31.);
#478=SPHERICAL_SURFACE('',#687,4.27972876516773);
#479=SPHERICAL_SURFACE('',#701,36.);
#480=SPHERICAL_SURFACE('',#704,31.);
#481=SPHERICAL_SURFACE('',#708,36.);
#482=ADVANCED_FACE('',(#380),#470,.T.);
#483=ADVANCED_FACE('',(#381),#471,.T.);
#484=ADVANCED_FACE('',(#382),#472,.T.);
#485=ADVANCED_FACE('',(#383),#473,.T.);
#486=ADVANCED_FACE('',(#384),#474,.T.);
#487=ADVANCED_FACE('',(#385),#475,.T.);
#488=ADVANCED_FACE('',(#386),#476,.T.);
#489=ADVANCED_FACE('',(#387,#388),#307,.F.);
#490=ADVANCED_FACE('',(#389,#390),#477,.T.);
#491=ADVANCED_FACE('',(#391,#392),#308,.F.);
#492=ADVANCED_FACE('',(#393,#394),#53,.F.);
#493=ADVANCED_FACE('',(#395,#396),#47,.F.);
#494=ADVANCED_FACE('',(#397,#398),#54,.F.);
#495=ADVANCED_FACE('',(#399,#400),#55,.F.);
#496=ADVANCED_FACE('',(#401,#402),#309,.T.);
#497=ADVANCED_FACE('',(#403,#404,#405,#406),#56,.T.);
#498=ADVANCED_FACE('',(#407,#408),#48,.F.);
#499=ADVANCED_FACE('',(#409,#410),#57,.T.);
#500=ADVANCED_FACE('',(#411,#412),#310,.T.);
#501=ADVANCED_FACE('',(#413,#414,#415,#416),#58,.F.);
#502=ADVANCED_FACE('',(#417,#418),#59,.F.);
#503=ADVANCED_FACE('',(#419,#420),#38,.F.);
#504=ADVANCED_FACE('',(#421,#422),#39,.T.);
#505=ADVANCED_FACE('',(#423,#424),#40,.T.);
#506=ADVANCED_FACE('',(#425),#478,.T.);
#507=ADVANCED_FACE('',(#426,#427),#60,.T.);
#508=ADVANCED_FACE('',(#428),#311,.F.);
#509=ADVANCED_FACE('',(#429),#312,.T.);
#510=ADVANCED_FACE('',(#430,#431),#41,.T.);
#511=ADVANCED_FACE('',(#432,#433),#42,.T.);
#512=ADVANCED_FACE('',(#434,#435),#479,.T.);
#513=ADVANCED_FACE('',(#436,#437),#480,.F.);
#514=ADVANCED_FACE('',(#438,#439),#313,.T.);
#515=ADVANCED_FACE('',(#440,#441),#481,.T.);
#516=ADVANCED_FACE('',(#442,#443),#314,.T.);
#517=ADVANCED_FACE('',(#444,#445,#446,#447,#448),#315,.T.);
#518=ADVANCED_FACE('',(#449,#450),#61,.T.);
#519=ADVANCED_FACE('',(#451,#452,#453,#454,#455),#316,.T.);
#520=ADVANCED_FACE('',(#456,#457),#49,.F.);
#521=ADVANCED_FACE('',(#458,#459),#50,.F.);
#522=ADVANCED_FACE('',(#460,#461),#51,.T.);
#523=ADVANCED_FACE('',(#462,#463),#52,.T.);
#524=ADVANCED_FACE('',(#464,#465),#62,.F.);
#525=ADVANCED_FACE('',(#466,#467),#63,.F.);
#526=ADVANCED_FACE('',(#468,#469),#64,.F.);
#527=CLOSED_SHELL('',(#482));
#528=CLOSED_SHELL('',(#483));
#529=CLOSED_SHELL('',(#484));
#530=CLOSED_SHELL('',(#485));
#531=CLOSED_SHELL('',(#486));
#532=CLOSED_SHELL('',(#487));
#533=CLOSED_SHELL('',(#488));
#534=CLOSED_SHELL('',(#489,#490,#491,#492,#493,#494));
#535=CLOSED_SHELL('',(#495,#496,#497,#498,#499,#500,#501,#502,#503,#504,
#505));
#536=CLOSED_SHELL('',(#506));
#537=CLOSED_SHELL('',(#507,#508,#509,#510,#511));
#538=CLOSED_SHELL('',(#512,#513,#514,#515,#516,#517,#518,#519,#520,#521,
#522,#523,#524,#525,#526));
#539=STYLED_ITEM('',(#551),#625);
#540=STYLED_ITEM('',(#552),#626);
#541=STYLED_ITEM('',(#553),#627);
#542=STYLED_ITEM('',(#554),#628);
#543=STYLED_ITEM('',(#555),#629);
#544=STYLED_ITEM('',(#556),#630);
#545=STYLED_ITEM('',(#557),#631);
#546=STYLED_ITEM('',(#558),#632);
#547=STYLED_ITEM('',(#559),#633);
#548=STYLED_ITEM('',(#560),#634);
#549=STYLED_ITEM('',(#561),#635);
#550=STYLED_ITEM('',(#562),#636);
#551=PRESENTATION_STYLE_ASSIGNMENT((#563));
#552=PRESENTATION_STYLE_ASSIGNMENT((#564));
#553=PRESENTATION_STYLE_ASSIGNMENT((#565));
#554=PRESENTATION_STYLE_ASSIGNMENT((#566));
#555=PRESENTATION_STYLE_ASSIGNMENT((#567));
#556=PRESENTATION_STYLE_ASSIGNMENT((#568));
#557=PRESENTATION_STYLE_ASSIGNMENT((#569));
#558=PRESENTATION_STYLE_ASSIGNMENT((#570));
#559=PRESENTATION_STYLE_ASSIGNMENT((#571));
#560=PRESENTATION_STYLE_ASSIGNMENT((#572));
#561=PRESENTATION_STYLE_ASSIGNMENT((#573));
#562=PRESENTATION_STYLE_ASSIGNMENT((#574));
#563=SURFACE_STYLE_USAGE(.BOTH.,#575);
#564=SURFACE_STYLE_USAGE(.BOTH.,#576);
#565=SURFACE_STYLE_USAGE(.BOTH.,#577);
#566=SURFACE_STYLE_USAGE(.BOTH.,#578);
#567=SURFACE_STYLE_USAGE(.BOTH.,#579);
#568=SURFACE_STYLE_USAGE(.BOTH.,#580);
#569=SURFACE_STYLE_USAGE(.BOTH.,#581);
#570=SURFACE_STYLE_USAGE(.BOTH.,#582);
#571=SURFACE_STYLE_USAGE(.BOTH.,#583);
#572=SURFACE_STYLE_USAGE(.BOTH.,#584);
#573=SURFACE_STYLE_USAGE(.BOTH.,#585);
#574=SURFACE_STYLE_USAGE(.BOTH.,#586);
#575=SURFACE_SIDE_STYLE('',(#587));
#576=SURFACE_SIDE_STYLE('',(#588));
#577=SURFACE_SIDE_STYLE('',(#589));
#578=SURFACE_SIDE_STYLE('',(#590));
#579=SURFACE_SIDE_STYLE('',(#591));
#580=SURFACE_SIDE_STYLE('',(#592));
#581=SURFACE_SIDE_STYLE('',(#593));
#582=SURFACE_SIDE_STYLE('',(#594));
#583=SURFACE_SIDE_STYLE('',(#595));
#584=SURFACE_SIDE_STYLE('',(#596));
#585=SURFACE_SIDE_STYLE('',(#597));
#586=SURFACE_SIDE_STYLE('',(#598));
#587=SURFACE_STYLE_FILL_AREA(#599);
#588=SURFACE_STYLE_FILL_AREA(#600);
#589=SURFACE_STYLE_FILL_AREA(#601);
#590=SURFACE_STYLE_FILL_AREA(#602);
#591=SURFACE_STYLE_FILL_AREA(#603);
#592=SURFACE_STYLE_FILL_AREA(#604);
#593=SURFACE_STYLE_FILL_AREA(#605);
#594=SURFACE_STYLE_FILL_AREA(#606);
#595=SURFACE_STYLE_FILL_AREA(#607);
#596=SURFACE_STYLE_FILL_AREA(#608);
#597=SURFACE_STYLE_FILL_AREA(#609);
#598=SURFACE_STYLE_FILL_AREA(#610);
#599=FILL_AREA_STYLE('',(#611));
#600=FILL_AREA_STYLE('',(#612));
#601=FILL_AREA_STYLE('',(#613));
#602=FILL_AREA_STYLE('',(#614));
#603=FILL_AREA_STYLE('',(#615));
#604=FILL_AREA_STYLE('',(#616));
#605=FILL_AREA_STYLE('',(#617));
#606=FILL_AREA_STYLE('',(#618));
#607=FILL_AREA_STYLE('',(#619));
#608=FILL_AREA_STYLE('',(#620));
#609=FILL_AREA_STYLE('',(#621));
#610=FILL_AREA_STYLE('',(#622));
#611=FILL_AREA_STYLE_COLOUR('',#623);
#612=FILL_AREA_STYLE_COLOUR('',#623);
#613=FILL_AREA_STYLE_COLOUR('',#623);
#614=FILL_AREA_STYLE_COLOUR('',#623);
#615=FILL_AREA_STYLE_COLOUR('',#623);
#616=FILL_AREA_STYLE_COLOUR('',#623);
#617=FILL_AREA_STYLE_COLOUR('',#623);
#618=FILL_AREA_STYLE_COLOUR('',#623);
#619=FILL_AREA_STYLE_COLOUR('',#623);
#620=FILL_AREA_STYLE_COLOUR('',#623);
#621=FILL_AREA_STYLE_COLOUR('',#623);
#622=FILL_AREA_STYLE_COLOUR('',#624);
#623=COLOUR_RGB('',0.331739127635956,0.340869575738907,0.349999994039536);
#624=COLOUR_RGB('',0.506983280181885,0.531564235687256,0.550000011920929);
#625=MANIFOLD_SOLID_BREP('',#527);
#626=MANIFOLD_SOLID_BREP('',#528);
#627=MANIFOLD_SOLID_BREP('',#529);
#628=MANIFOLD_SOLID_BREP('',#530);
#629=MANIFOLD_SOLID_BREP('',#531);
#630=MANIFOLD_SOLID_BREP('',#532);
#631=MANIFOLD_SOLID_BREP('',#533);
#632=MANIFOLD_SOLID_BREP('',#534);
#633=MANIFOLD_SOLID_BREP('',#535);
#634=MANIFOLD_SOLID_BREP('',#536);
#635=MANIFOLD_SOLID_BREP('',#537);
#636=MANIFOLD_SOLID_BREP('',#538);
#637=SHAPE_DEFINITION_REPRESENTATION(#1108,#642);
#638=SHAPE_DEFINITION_REPRESENTATION(#1107,#643);
#639=SHAPE_DEFINITION_REPRESENTATION(#1110,#644);
#640=SHAPE_DEFINITION_REPRESENTATION(#1106,#645);
#641=SHAPE_DEFINITION_REPRESENTATION(#1114,#646);
#642=SHAPE_REPRESENTATION('UC\X2\74038F74627F\X0\',(#647),#1095);
#643=SHAPE_REPRESENTATION('UB\X2\7441547453A46D63\X0\?',(#647,#688,#698,
#699),#1094);
#644=SHAPE_REPRESENTATION('\X2\98764E1D\X0\',(#647),#1096);
#645=SHAPE_REPRESENTATION(
'UBPF\X2\752FFE40557F93585B2A6E3E893032209A87692467357B236FB6682B608695C832226086675E5B5858D9\X0\',
(#647,#700,#734),#1093);
#646=SHAPE_REPRESENTATION('PF\X2\51B2538B57065F625EA7\X0\',(#647),#1097);
#647=AXIS2_PLACEMENT_3D('',#911,#735,#736);
#648=AXIS2_PLACEMENT_3D('',#912,#737,#738);
#649=AXIS2_PLACEMENT_3D('',#914,#739,#740);
#650=AXIS2_PLACEMENT_3D('',#916,#741,#742);
#651=AXIS2_PLACEMENT_3D('',#918,#743,#744);
#652=AXIS2_PLACEMENT_3D('',#920,#745,#746);
#653=AXIS2_PLACEMENT_3D('',#922,#747,#748);
#654=AXIS2_PLACEMENT_3D('',#924,#749,#750);
#655=AXIS2_PLACEMENT_3D('',#926,#751,#752);
#656=AXIS2_PLACEMENT_3D('',#927,#753,#754);
#657=AXIS2_PLACEMENT_3D('',#929,#755,#756);
#658=AXIS2_PLACEMENT_3D('',#931,#757,#758);
#659=AXIS2_PLACEMENT_3D('',#932,#759,#760);
#660=AXIS2_PLACEMENT_3D('',#934,#761,#762);
#661=AXIS2_PLACEMENT_3D('',#935,#763,#764);
#662=AXIS2_PLACEMENT_3D('',#937,#765,#766);
#663=AXIS2_PLACEMENT_3D('',#938,#767,#768);
#664=AXIS2_PLACEMENT_3D('',#940,#769,#770);
#665=AXIS2_PLACEMENT_3D('',#941,#771,#772);
#666=AXIS2_PLACEMENT_3D('',#943,#773,#774);
#667=AXIS2_PLACEMENT_3D('',#944,#775,#776);
#668=AXIS2_PLACEMENT_3D('',#969,#777,#778);
#669=AXIS2_PLACEMENT_3D('',#970,#779,#780);
#670=AXIS2_PLACEMENT_3D('',#972,#781,#782);
#671=AXIS2_PLACEMENT_3D('',#974,#783,#784);
#672=AXIS2_PLACEMENT_3D('',#975,#785,#786);
#673=AXIS2_PLACEMENT_3D('',#989,#787,#788);
#674=AXIS2_PLACEMENT_3D('',#991,#789,#790);
#675=AXIS2_PLACEMENT_3D('',#992,#791,#792);
#676=AXIS2_PLACEMENT_3D('',#994,#793,#794);
#677=AXIS2_PLACEMENT_3D('',#995,#795,#796);
#678=AXIS2_PLACEMENT_3D('',#997,#797,#798);
#679=AXIS2_PLACEMENT_3D('',#998,#799,#800);
#680=AXIS2_PLACEMENT_3D('',#1000,#801,#802);
#681=AXIS2_PLACEMENT_3D('',#1002,#803,#804);
#682=AXIS2_PLACEMENT_3D('',#1003,#805,#806);
#683=AXIS2_PLACEMENT_3D('',#1017,#807,#808);
#684=AXIS2_PLACEMENT_3D('',#1018,#809,#810);
#685=AXIS2_PLACEMENT_3D('',#1019,#811,#812);
#686=AXIS2_PLACEMENT_3D('',#1020,#813,#814);
#687=AXIS2_PLACEMENT_3D('',#1021,#815,#816);
#688=AXIS2_PLACEMENT_3D('',#1023,#817,#818);
#689=AXIS2_PLACEMENT_3D('',#1024,#819,#820);
#690=AXIS2_PLACEMENT_3D('',#1025,#821,#822);
#691=AXIS2_PLACEMENT_3D('',#1027,#823,#824);
#692=AXIS2_PLACEMENT_3D('',#1029,#825,#826);
#693=AXIS2_PLACEMENT_3D('',#1030,#827,#828);
#694=AXIS2_PLACEMENT_3D('',#1032,#829,#830);
#695=AXIS2_PLACEMENT_3D('',#1033,#831,#832);
#696=AXIS2_PLACEMENT_3D('',#1035,#833,#834);
#697=AXIS2_PLACEMENT_3D('',#1036,#835,#836);
#698=AXIS2_PLACEMENT_3D('',#1037,#837,#838);
#699=AXIS2_PLACEMENT_3D('',#1038,#839,#840);
#700=AXIS2_PLACEMENT_3D('',#1039,#841,#842);
#701=AXIS2_PLACEMENT_3D('',#1040,#843,#844);
#702=AXIS2_PLACEMENT_3D('',#1041,#845,#846);
#703=AXIS2_PLACEMENT_3D('',#1043,#847,#848);
#704=AXIS2_PLACEMENT_3D('',#1045,#849,#850);
#705=AXIS2_PLACEMENT_3D('',#1046,#851,#852);
#706=AXIS2_PLACEMENT_3D('',#1048,#853,#854);
#707=AXIS2_PLACEMENT_3D('',#1050,#855,#856);
#708=AXIS2_PLACEMENT_3D('',#1051,#857,#858);
#709=AXIS2_PLACEMENT_3D('',#1052,#859,#860);
#710=AXIS2_PLACEMENT_3D('',#1054,#861,#862);
#711=AXIS2_PLACEMENT_3D('',#1056,#863,#864);
#712=AXIS2_PLACEMENT_3D('',#1057,#865,#866);
#713=AXIS2_PLACEMENT_3D('',#1058,#867,#868);
#714=AXIS2_PLACEMENT_3D('',#1060,#869,#870);
#715=AXIS2_PLACEMENT_3D('',#1062,#871,#872);
#716=AXIS2_PLACEMENT_3D('',#1064,#873,#874);
#717=AXIS2_PLACEMENT_3D('',#1066,#875,#876);
#718=AXIS2_PLACEMENT_3D('',#1068,#877,#878);
#719=AXIS2_PLACEMENT_3D('',#1069,#879,#880);
#720=AXIS2_PLACEMENT_3D('',#1071,#881,#882);
#721=AXIS2_PLACEMENT_3D('',#1073,#883,#884);
#722=AXIS2_PLACEMENT_3D('',#1074,#885,#886);
#723=AXIS2_PLACEMENT_3D('',#1076,#887,#888);
#724=AXIS2_PLACEMENT_3D('',#1078,#889,#890);
#725=AXIS2_PLACEMENT_3D('',#1080,#891,#892);
#726=AXIS2_PLACEMENT_3D('',#1082,#893,#894);
#727=AXIS2_PLACEMENT_3D('',#1084,#895,#896);
#728=AXIS2_PLACEMENT_3D('',#1085,#897,#898);
#729=AXIS2_PLACEMENT_3D('',#1086,#899,#900);
#730=AXIS2_PLACEMENT_3D('',#1087,#901,#902);
#731=AXIS2_PLACEMENT_3D('',#1088,#903,#904);
#732=AXIS2_PLACEMENT_3D('',#1089,#905,#906);
#733=AXIS2_PLACEMENT_3D('',#1090,#907,#908);
#734=AXIS2_PLACEMENT_3D('',#1091,#909,#910);
#735=DIRECTION('',(0.,0.,1.));
#736=DIRECTION('',(1.,0.,0.));
#737=DIRECTION('',(-0.707106781186548,-1.22464679914735E-16,0.707106781186547));
#738=DIRECTION('',(-4.32992327699526E-17,1.,1.29891978477146E-16));
#739=DIRECTION('',(-1.,-1.22464679914735E-16,-1.60812264967664E-16));
#740=DIRECTION('',(-1.22464679914735E-16,1.,6.12303176911188E-17));
#741=DIRECTION('',(-0.707106781186547,-1.22464679914735E-16,-0.707106781186548));
#742=DIRECTION('',(-1.29891978477146E-16,1.,-4.32992327699527E-17));
#743=DIRECTION('',(-1.22464679914735E-16,-1.22464679914735E-16,-1.));
#744=DIRECTION('',(-6.12303176911189E-17,1.,-1.22464679914735E-16));
#745=DIRECTION('',(0.707106781186547,-1.22464679914735E-16,-0.707106781186548));
#746=DIRECTION('',(4.32992327699526E-17,1.,-1.29891978477146E-16));
#747=DIRECTION('',(1.,-1.22464679914735E-16,-1.83697019872103E-16));
#748=DIRECTION('',(1.22464679914735E-16,1.,-6.12303176911189E-17));
#749=DIRECTION('',(0.707106781186548,-1.22464679914735E-16,0.707106781186547));
#750=DIRECTION('',(1.29891978477146E-16,1.,4.32992327699526E-17));
#751=DIRECTION('',(-6.12303176911189E-17,-1.,0.));
#752=DIRECTION('',(1.,-6.12303176911189E-17,0.));
#753=DIRECTION('',(-6.12303176911189E-17,-1.,0.));
#754=DIRECTION('',(1.,-6.12303176911189E-17,0.));
#755=DIRECTION('',(-6.12303176911189E-17,-1.,0.));
#756=DIRECTION('',(1.,-6.12303176911189E-17,0.));
#757=DIRECTION('',(-6.12303176911189E-17,-1.,0.));
#758=DIRECTION('',(0.,0.,1.));
#759=DIRECTION('',(-6.12303176911189E-17,-1.,0.));
#760=DIRECTION('',(1.,-6.12303176911189E-17,0.));
#761=DIRECTION('',(6.12303176911189E-17,1.,0.));
#762=DIRECTION('',(-1.,6.12303176911189E-17,0.));
#763=DIRECTION('',(-6.12303176911189E-17,-1.,0.));
#764=DIRECTION('',(1.,-6.12303176911189E-17,0.));
#765=DIRECTION('',(-6.12303176911189E-17,-1.,0.));
#766=DIRECTION('',(1.,-6.12303176911189E-17,0.));
#767=DIRECTION('',(-6.12303176911189E-17,-1.,0.));
#768=DIRECTION('',(1.,-6.12303176911189E-17,0.));
#769=DIRECTION('',(-6.12303176911189E-17,-1.,0.));
#770=DIRECTION('',(1.,-6.12303176911189E-17,0.));
#771=DIRECTION('',(-6.12303176911189E-17,-1.,0.));
#772=DIRECTION('',(1.,-6.12303176911189E-17,0.));
#773=DIRECTION('',(-6.12303176911189E-17,-1.,0.));
#774=DIRECTION('',(1.,-6.12303176911189E-17,0.));
#775=DIRECTION('',(-0.866025403784439,5.30270106023007E-17,0.5));
#776=DIRECTION('',(0.5,-9.18454765366783E-17,0.866025403784439));
#777=DIRECTION('',(-6.12303176911189E-17,-1.,0.));
#778=DIRECTION('',(1.,-6.12303176911189E-17,0.));
#779=DIRECTION('',(-6.12303176911189E-17,-1.,0.));
#780=DIRECTION('',(1.,-6.12303176911189E-17,0.));
#781=DIRECTION('',(-6.12303176911189E-17,-1.,0.));
#782=DIRECTION('',(1.,-6.12303176911189E-17,0.));
#783=DIRECTION('',(-6.12303176911189E-17,-1.,0.));
#784=DIRECTION('',(1.,-6.12303176911189E-17,0.));
#785=DIRECTION('',(-6.1230317691119E-17,-1.,0.));
#786=DIRECTION('',(1.,-6.1230317691119E-17,0.));
#787=DIRECTION('',(-6.12303176911189E-17,-1.,0.));
#788=DIRECTION('',(1.,-6.12303176911189E-17,0.));
#789=DIRECTION('',(-6.12303176911189E-17,-1.,0.));
#790=DIRECTION('',(1.,-6.12303176911189E-17,0.));
#791=DIRECTION('',(-6.12303176911189E-17,-1.,0.));
#792=DIRECTION('',(1.,-6.12303176911189E-17,0.));
#793=DIRECTION('',(-6.12303176911189E-17,-1.,0.));
#794=DIRECTION('',(1.,-6.12303176911189E-17,0.));
#795=DIRECTION('',(6.12303176911188E-17,1.,0.));
#796=DIRECTION('',(-1.,6.12303176911188E-17,0.));
#797=DIRECTION('',(6.12303176911189E-17,1.,0.));
#798=DIRECTION('',(-1.,6.12303176911189E-17,0.));
#799=DIRECTION('',(6.12303176911189E-17,1.,0.));
#800=DIRECTION('',(-1.,6.12303176911189E-17,0.));
#801=DIRECTION('',(6.12303176911189E-17,1.,0.));
#802=DIRECTION('',(-1.,6.12303176911189E-17,0.));
#803=DIRECTION('',(-6.12303176911189E-17,-1.,0.));
#804=DIRECTION('',(1.,-6.12303176911189E-17,0.));
#805=DIRECTION('',(6.12303176911188E-17,1.,0.));
#806=DIRECTION('',(-1.,6.12303176911188E-17,0.));
#807=DIRECTION('',(0.,0.,-1.));
#808=DIRECTION('',(-1.,0.,0.));
#809=DIRECTION('',(6.12303176911188E-17,1.,0.));
#810=DIRECTION('',(-1.,6.12303176911188E-17,0.));
#811=DIRECTION('',(-6.12303176911188E-17,-1.,0.));
#812=DIRECTION('',(1.,-6.12303176911188E-17,0.));
#813=DIRECTION('',(6.1230317691119E-17,1.,0.));
#814=DIRECTION('',(-1.,6.1230317691119E-17,0.));
#815=DIRECTION('',(-7.49855125712043E-33,-1.22464679914735E-16,1.));
#816=DIRECTION('',(6.12303176911189E-17,1.,1.22464679914735E-16));
#817=DIRECTION('',(0.,0.,1.));
#818=DIRECTION('',(1.,0.,0.));
#819=DIRECTION('',(0.,0.,-1.));
#820=DIRECTION('',(-1.,0.,0.));
#821=DIRECTION('',(0.,0.,-1.));
#822=DIRECTION('',(-1.,0.,0.));
#823=DIRECTION('',(0.,0.,-1.));
#824=DIRECTION('',(-1.,0.,0.));
#825=DIRECTION('',(0.,0.,-1.));
#826=DIRECTION('',(-1.,0.,0.));
#827=DIRECTION('',(0.,0.,-1.));
#828=DIRECTION('',(-1.,0.,0.));
#829=DIRECTION('',(0.,0.,-1.));
#830=DIRECTION('',(-1.,0.,0.));
#831=DIRECTION('',(0.,0.,-1.));
#832=DIRECTION('',(-1.,0.,0.));
#833=DIRECTION('',(0.,0.,1.));
#834=DIRECTION('',(1.,0.,0.));
#835=DIRECTION('',(0.,0.,-1.));
#836=DIRECTION('',(-1.,0.,0.));
#837=DIRECTION('',(0.,0.,1.));
#838=DIRECTION('',(1.,0.,0.));
#839=DIRECTION('',(0.866025406532857,0.,-0.499999995239599));
#840=DIRECTION('',(-0.499999995239599,0.,-0.866025406532857));
#841=DIRECTION('',(0.,0.,1.));
#842=DIRECTION('',(1.,0.,0.));
#843=DIRECTION('',(-6.12303176911189E-17,-1.,0.));
#844=DIRECTION('',(0.,0.,1.));
#845=DIRECTION('',(6.12303176911189E-17,1.,0.));
#846=DIRECTION('',(-1.,6.12303176911189E-17,0.));
#847=DIRECTION('',(-6.12303176911189E-17,-1.,0.));
#848=DIRECTION('',(1.,-6.12303176911189E-17,0.));
#849=DIRECTION('',(-6.12303176911189E-17,-1.,0.));
#850=DIRECTION('',(0.,0.,1.));
#851=DIRECTION('',(-6.12303176911189E-17,-1.,0.));
#852=DIRECTION('',(1.,-6.12303176911189E-17,0.));
#853=DIRECTION('',(-6.12303176911189E-17,-1.,0.));
#854=DIRECTION('',(1.,-6.12303176911189E-17,0.));
#855=DIRECTION('',(-6.12303176911189E-17,-1.,0.));
#856=DIRECTION('',(1.,-6.12303176911189E-17,0.));
#857=DIRECTION('',(-6.12303176911189E-17,-1.,0.));
#858=DIRECTION('',(0.,0.,1.));
#859=DIRECTION('',(-6.12303176911189E-17,-1.,0.));
#860=DIRECTION('',(1.,-6.12303176911189E-17,0.));
#861=DIRECTION('',(-6.12303176911189E-17,-1.,0.));
#862=DIRECTION('',(1.,-6.12303176911189E-17,0.));
#863=DIRECTION('',(6.12303176911189E-17,1.,0.));
#864=DIRECTION('',(-1.,6.12303176911189E-17,0.));
#865=DIRECTION('',(-6.12303176911189E-17,-1.,0.));
#866=DIRECTION('',(1.,-6.12303176911189E-17,0.));
#867=DIRECTION('',(6.19544098563145E-17,1.,0.));
#868=DIRECTION('',(1.,-6.19544098563145E-17,0.));
#869=DIRECTION('',(6.19544098563145E-17,1.,0.));
#870=DIRECTION('',(1.,-6.19544098563145E-17,0.));
#871=DIRECTION('',(6.19544098563145E-17,1.,0.));
#872=DIRECTION('',(1.,-6.19544098563145E-17,0.));
#873=DIRECTION('',(-6.12303176911189E-17,-1.,0.));
#874=DIRECTION('',(1.,-6.12303176911189E-17,0.));
#875=DIRECTION('',(-6.12303176911189E-17,-1.,0.));
#876=DIRECTION('',(1.,-6.12303176911189E-17,0.));
#877=DIRECTION('',(-6.12303176911189E-17,-1.,0.));
#878=DIRECTION('',(1.,-6.12303176911189E-17,0.));
#879=DIRECTION('',(6.12303176911189E-17,1.,0.));
#880=DIRECTION('',(-1.,6.12303176911189E-17,0.));
#881=DIRECTION('',(-6.12303176911189E-17,-1.,0.));
#882=DIRECTION('',(1.,-6.12303176911189E-17,0.));
#883=DIRECTION('',(6.12303176911189E-17,1.,0.));
#884=DIRECTION('',(-1.,6.12303176911189E-17,0.));
#885=DIRECTION('',(6.12303176911189E-17,1.,0.));
#886=DIRECTION('',(-1.,6.12303176911189E-17,0.));
#887=DIRECTION('',(6.12303176911189E-17,1.,0.));
#888=DIRECTION('',(-1.,6.12303176911189E-17,0.));
#889=DIRECTION('',(6.12303176911189E-17,1.,0.));
#890=DIRECTION('',(-1.,6.12303176911189E-17,0.));
#891=DIRECTION('',(6.12303176911189E-17,1.,0.));
#892=DIRECTION('',(-1.,6.12303176911189E-17,0.));
#893=DIRECTION('',(6.12303176911189E-17,1.,0.));
#894=DIRECTION('',(-1.,6.12303176911189E-17,0.));
#895=DIRECTION('',(-6.12303176911189E-17,-1.,0.));
#896=DIRECTION('',(1.,-6.12303176911189E-17,0.));
#897=DIRECTION('',(6.12303176911189E-17,1.,0.));
#898=DIRECTION('',(-1.,6.12303176911189E-17,0.));
#899=DIRECTION('',(-6.12303176911189E-17,-1.,0.));
#900=DIRECTION('',(1.,-6.12303176911189E-17,0.));
#901=DIRECTION('',(6.12303176911189E-17,1.,0.));
#902=DIRECTION('',(-1.,6.12303176911189E-17,0.));
#903=DIRECTION('',(-6.12303176911189E-17,-1.,0.));
#904=DIRECTION('',(1.,-6.12303176911189E-17,0.));
#905=DIRECTION('',(-6.12303176911189E-17,-1.,0.));
#906=DIRECTION('',(1.,-6.12303176911189E-17,0.));
#907=DIRECTION('',(-6.12303176911189E-17,-1.,0.));
#908=DIRECTION('',(1.,-6.12303176911189E-17,0.));
#909=DIRECTION('',(0.,0.,1.));
#910=DIRECTION('',(1.,0.,0.));
#911=CARTESIAN_POINT('',(0.,0.,0.));
#912=CARTESIAN_POINT('',(-16.2634559672906,0.,16.2634559672906));
#913=CARTESIAN_POINT('',(-13.2372307358014,7.86173420022229E-16,13.2372307358014));
#914=CARTESIAN_POINT('',(-23.,0.,-3.69868209425627E-15));
#915=CARTESIAN_POINT('',(-18.7202712348323,7.86173420022229E-16,-3.01044921808238E-15));
#916=CARTESIAN_POINT('',(-16.2634559672906,0.,-16.2634559672906));
#917=CARTESIAN_POINT('',(-13.2372307358014,7.86173420022229E-16,-13.2372307358014));
#918=CARTESIAN_POINT('',(-2.81668763803891E-15,0.,-23.));
#919=CARTESIAN_POINT('',(-2.29257202469076E-15,7.86173420022229E-16,-18.7202712348323));
#920=CARTESIAN_POINT('',(16.2634559672906,0.,-16.2634559672906));
#921=CARTESIAN_POINT('',(13.2372307358014,7.86173420022229E-16,-13.2372307358014));
#922=CARTESIAN_POINT('',(23.,0.,-4.22503145705837E-15));
#923=CARTESIAN_POINT('',(18.7202712348323,7.86173420022229E-16,-3.43885803703614E-15));
#924=CARTESIAN_POINT('',(16.2634559672906,0.,16.2634559672906));
#925=CARTESIAN_POINT('',(13.2372307358014,7.86173420022229E-16,13.2372307358014));
#926=CARTESIAN_POINT('',(4.89842541528951E-16,8.,29.9499582637439));
#927=CARTESIAN_POINT('',(4.89842541528951E-16,8.00000000000001,0.));
#928=CARTESIAN_POINT('',(29.9499582637439,8.00000000000001,0.));
#929=CARTESIAN_POINT('',(4.89842541528951E-16,8.,0.));
#930=CARTESIAN_POINT('',(25.6666666666667,8.,0.));
#931=CARTESIAN_POINT('',(0.,0.,-1.73472347597681E-15));
#932=CARTESIAN_POINT('',(-4.89842541528951E-16,-8.,0.));
#933=CARTESIAN_POINT('',(29.9499582637439,-8.,0.));
#934=CARTESIAN_POINT('',(-4.89842541528951E-16,-8.,29.9499582637439));
#935=CARTESIAN_POINT('',(-4.89842541528951E-16,-8.,0.));
#936=CARTESIAN_POINT('',(25.6666666666667,-8.,0.));
#937=CARTESIAN_POINT('',(-1.53159860666952E-15,-25.0137295448276,0.));
#938=CARTESIAN_POINT('',(-2.12733836169993E-16,-3.47432194036859,0.));
#939=CARTESIAN_POINT('',(25.6666666666667,-3.47432194036859,0.));
#940=CARTESIAN_POINT('',(0.,0.,0.));
#941=CARTESIAN_POINT('',(2.12733836169993E-16,3.47432194036859,0.));
#942=CARTESIAN_POINT('',(25.6666666666667,3.47432194036859,0.));
#943=CARTESIAN_POINT('',(-1.53159860666952E-15,-25.0137295448276,0.));
#944=CARTESIAN_POINT('',(80.2558409089332,-17.9051094890511,-46.3357313528123));
#945=CARTESIAN_POINT('',(18.6880322770717,-15.5517139054855,-8.077286927278));
#946=CARTESIAN_POINT('',(19.0306408276577,-17.9056785789781,-7.14752353789971));
#947=CARTESIAN_POINT('',(18.6882082332025,-20.2562287129087,-8.07657416899665));
#948=CARTESIAN_POINT('',(17.6584571317206,-21.2293838682194,-10.1918849278553));
#949=CARTESIAN_POINT('',(16.3381447202523,-20.2568898782229,-12.1470826117168));
#950=CARTESIAN_POINT('',(15.7060610043641,-17.9058925944825,-12.9061484367979));
#951=CARTESIAN_POINT('',(16.3364159178387,-15.5571072049774,-12.1491923753312));
#952=CARTESIAN_POINT('',(17.6557445576491,-14.5804605909499,-10.1967021274238));
#953=CARTESIAN_POINT('',(18.6880322770717,-15.5517139054855,-8.077286927278));
#954=CARTESIAN_POINT('',(19.0306408276577,-17.9056785789781,-7.14752353789971));
#955=CARTESIAN_POINT('',(18.6882082332025,-20.2562287129087,-8.07657416899665));
#956=CARTESIAN_POINT('',(18.9164673034842,-17.9051094890511,-7.45732587464558));
#957=CARTESIAN_POINT('',(14.0352239288294,-20.2583274655283,-5.39100095599829));
#958=CARTESIAN_POINT('',(14.3242495867818,-17.9045849105857,-4.43025346522361));
#959=CARTESIAN_POINT('',(14.0353100921907,-15.5539898264355,-5.39034328508455));
#960=CARTESIAN_POINT('',(13.0568346305215,-14.5806937346657,-7.53480022074664));
#961=CARTESIAN_POINT('',(11.6849663258803,-15.5538953247416,-9.46122516454888));
#962=CARTESIAN_POINT('',(10.9997847305391,-17.9040251866733,-10.1887952239546));
#963=CARTESIAN_POINT('',(11.683428128208,-20.2533380176364,-9.46286543988267));
#964=CARTESIAN_POINT('',(13.0543297200949,-21.2297467551569,-7.53926760777396));
#965=CARTESIAN_POINT('',(14.0352239288294,-20.2583274655283,-5.39100095599829));
#966=CARTESIAN_POINT('',(14.3242495867818,-17.9045849105857,-4.43025346522361));
#967=CARTESIAN_POINT('',(14.0353100921907,-15.5539898264355,-5.39034328508455));
#968=CARTESIAN_POINT('',(14.2279220613579,-17.9051094890511,-4.75039301699621));
#969=CARTESIAN_POINT('',(-1.34706698920461E-15,-22.,20.3333333333333));
#970=CARTESIAN_POINT('',(-1.34706698920461E-15,-22.,0.));
#971=CARTESIAN_POINT('',(19.3333333333333,-22.,0.));
#972=CARTESIAN_POINT('',(-1.34706698920461E-15,-22.,0.));
#973=CARTESIAN_POINT('',(15.,-22.,0.));
#974=CARTESIAN_POINT('',(-1.53159860666952E-15,-25.0137295448276,0.));
#975=CARTESIAN_POINT('',(-1.2858366715135E-15,-21.,0.));
#976=CARTESIAN_POINT('',(20.3333333333333,-21.,0.));
#977=CARTESIAN_POINT('',(-2.34888046585717,-15.5517139054855,20.2229541623266));
#978=CARTESIAN_POINT('',(-3.32538345586047,-17.9056785789781,20.0547801759988));
#979=CARTESIAN_POINT('',(-2.34958571070094,-20.2562287129087,20.2227501656652));
#980=CARTESIAN_POINT('',(-0.00279730588984715,-21.2293838682194,20.3886149316362));
#981=CARTESIAN_POINT('',(2.35060976348884,-20.2568898782229,20.2227896843035));
#982=CARTESIAN_POINT('',(3.32402190909776,-17.9058925944825,20.0549220415663));
#983=CARTESIAN_POINT('',(2.35330127358169,-15.5571072049774,20.2223473793024));
#984=CARTESIAN_POINT('',(0.00273079834727576,-14.5804605909499,20.3886743733649));
#985=CARTESIAN_POINT('',(-2.34888046585717,-15.5517139054855,20.2229541623266));
#986=CARTESIAN_POINT('',(-3.32538345586047,-17.9056785789781,20.0547801759988));
#987=CARTESIAN_POINT('',(-2.34958571070094,-20.2562287129087,20.2227501656652));
#988=CARTESIAN_POINT('',(-3.,-17.9051094890511,20.1108041719978));
#989=CARTESIAN_POINT('',(-2.12733836169993E-16,-3.47432194036859,0.));
#990=CARTESIAN_POINT('',(20.3333333333333,-3.47432194036859,0.));
#991=CARTESIAN_POINT('',(0.,0.,0.));
#992=CARTESIAN_POINT('',(2.12733836169993E-16,3.47432194036859,0.));
#993=CARTESIAN_POINT('',(20.3333333333333,3.47432194036859,0.));
#994=CARTESIAN_POINT('',(-1.53159860666952E-15,-25.0137295448276,0.));
#995=CARTESIAN_POINT('',(4.28612223837832E-16,6.99999999999999,0.));
#996=CARTESIAN_POINT('',(-20.3333333333333,6.99999999999999,0.));
#997=CARTESIAN_POINT('',(4.89842541528951E-16,8.,20.3333333333333));
#998=CARTESIAN_POINT('',(4.89842541528951E-16,8.,0.));
#999=CARTESIAN_POINT('',(-16.,8.,0.));
#1000=CARTESIAN_POINT('',(4.89842541528951E-16,8.,0.));
#1001=CARTESIAN_POINT('',(-19.3333333333333,8.,0.));
#1002=CARTESIAN_POINT('',(-1.53159860666952E-15,-25.0137295448276,0.));
#1003=CARTESIAN_POINT('',(4.28612223837832E-16,7.,0.));
#1004=CARTESIAN_POINT('',(-15.,7.,0.));
#1005=CARTESIAN_POINT('',(-2.34886818469396,-20.2583274655283,14.8503609481686));
#1006=CARTESIAN_POINT('',(-3.32541274730319,-17.9045849105857,14.6202907649136));
#1007=CARTESIAN_POINT('',(-2.34948082609326,-15.5539898264355,14.8501067323715));
#1008=CARTESIAN_POINT('',(-0.0030889116535594,-14.5806937346657,15.0749505934173));
#1009=CARTESIAN_POINT('',(2.35117818048381,-15.5538953247416,14.8500902628525));
#1010=CARTESIAN_POINT('',(3.32386313263266,-17.9040251866733,14.6204906247844));
#1011=CARTESIAN_POINT('',(2.3533677994282,-20.2533380176364,14.8495782822591));
#1012=CARTESIAN_POINT('',(0.0020324142139373,-21.2297467551569,15.0750149708674));
#1013=CARTESIAN_POINT('',(-2.34886818469396,-20.2583274655283,14.8503609481686));
#1014=CARTESIAN_POINT('',(-3.32541274730319,-17.9045849105857,14.6202907649136));
#1015=CARTESIAN_POINT('',(-2.34948082609326,-15.5539898264355,14.8501067323715));
#1016=CARTESIAN_POINT('',(-3.,-17.9051094890511,14.6969384566991));
#1017=CARTESIAN_POINT('',(0.,-17.9051094890511,92.6714627056248));
#1018=CARTESIAN_POINT('',(4.89842541528951E-16,8.,0.));
#1019=CARTESIAN_POINT('',(4.28612223837832E-16,7.,0.));
#1020=CARTESIAN_POINT('',(-1.34706698920461E-15,-22.,0.));
#1021=CARTESIAN_POINT('',(0.,0.,23.));
#1022=CARTESIAN_POINT('',(4.81376482682745E-32,7.86173420022229E-16,18.7202712348323));
#1023=CARTESIAN_POINT('',(0.,0.,0.));
#1024=CARTESIAN_POINT('',(0.,0.,6.));
#1025=CARTESIAN_POINT('',(0.,0.,1.));
#1026=CARTESIAN_POINT('',(-3.,0.,1.));
#1027=CARTESIAN_POINT('',(0.,0.,5.));
#1028=CARTESIAN_POINT('',(-3.,0.,5.));
#1029=CARTESIAN_POINT('',(0.,0.,6.));
#1030=CARTESIAN_POINT('',(0.,0.,6.));
#1031=CARTESIAN_POINT('',(-2.,0.,6.));
#1032=CARTESIAN_POINT('',(0.,0.,0.));
#1033=CARTESIAN_POINT('',(0.,0.,0.));
#1034=CARTESIAN_POINT('',(-2.,0.,0.));
#1035=CARTESIAN_POINT('',(0.,0.,0.));
#1036=CARTESIAN_POINT('',(0.,0.,5.));
#1037=CARTESIAN_POINT('',(0.,-17.9051094890511,15.));
#1038=CARTESIAN_POINT('',(12.990381097991,-17.9051094890511,-7.499999928594));
#1039=CARTESIAN_POINT('',(0.,0.,0.));
#1040=CARTESIAN_POINT('',(0.,0.,0.));
#1041=CARTESIAN_POINT('',(-2.23407915900029E-16,-3.64864864864866,0.));
#1042=CARTESIAN_POINT('',(-35.8146249881067,-3.64864864864865,0.));
#1043=CARTESIAN_POINT('',(-6.12303176911189E-16,-10.,0.));
#1044=CARTESIAN_POINT('',(34.5832329315812,-10.,0.));
#1045=CARTESIAN_POINT('',(0.,0.,-1.73472347597681E-15));
#1046=CARTESIAN_POINT('',(-6.12303176911189E-16,-10.,0.));
#1047=CARTESIAN_POINT('',(29.3428015022424,-10.,0.));
#1048=CARTESIAN_POINT('',(6.12303176911189E-16,10.,0.));
#1049=CARTESIAN_POINT('',(29.3428015022424,10.,0.));
#1050=CARTESIAN_POINT('',(-6.12303176911189E-16,-10.,29.3428015022424));
#1051=CARTESIAN_POINT('',(0.,0.,0.));
#1052=CARTESIAN_POINT('',(2.23407915900028E-16,3.64864864864865,0.));
#1053=CARTESIAN_POINT('',(35.8146249881067,3.64864864864865,0.));
#1054=CARTESIAN_POINT('',(6.12303176911188E-16,9.99999999999999,0.));
#1055=CARTESIAN_POINT('',(34.5832329315812,9.99999999999999,0.));
#1056=CARTESIAN_POINT('',(6.12303176911188E-16,9.99999999999999,29.3428015022424));
#1057=CARTESIAN_POINT('',(-1.68383373650577E-16,-2.75000000000001,57.));
#1058=CARTESIAN_POINT('',(-1.68383373650577E-16,-2.75000000000001,-45.25));
#1059=CARTESIAN_POINT('',(5.5,-2.75000000000001,-45.25));
#1060=CARTESIAN_POINT('',(39.1876495212458,-2.75000000000001,22.625));
#1061=CARTESIAN_POINT('',(44.6876495212458,-2.75000000000001,22.625));
#1062=CARTESIAN_POINT('',(-39.1876495212458,-2.75000000000001,22.625));
#1063=CARTESIAN_POINT('',(-33.6876495212458,-2.75000000000001,22.625));
#1064=CARTESIAN_POINT('',(-1.68383373650577E-16,-2.75000000000001,0.));
#1065=CARTESIAN_POINT('',(56.,-2.75000000000001,0.));
#1066=CARTESIAN_POINT('',(-1.68383373650577E-16,-2.75000000000001,0.));
#1067=CARTESIAN_POINT('',(36.8094756822207,-2.75000000000001,0.));
#1068=CARTESIAN_POINT('',(-4.59227382683391E-16,-7.5,0.));
#1069=CARTESIAN_POINT('',(1.07153055959458E-16,1.75,0.));
#1070=CARTESIAN_POINT('',(-57.,1.75000000000001,0.));
#1071=CARTESIAN_POINT('',(-1.07153055959459E-16,-1.75000000000001,0.));
#1072=CARTESIAN_POINT('',(57.,-1.75000000000001,0.));
#1073=CARTESIAN_POINT('',(1.68383373650577E-16,2.75,57.));
#1074=CARTESIAN_POINT('',(1.68383373650576E-16,2.75,-45.25));
#1075=CARTESIAN_POINT('',(-5.5,2.75,-45.25));
#1076=CARTESIAN_POINT('',(39.1876495212458,2.75,22.625));
#1077=CARTESIAN_POINT('',(33.6876495212458,2.75,22.625));
#1078=CARTESIAN_POINT('',(-39.1876495212458,2.75,22.625));
#1079=CARTESIAN_POINT('',(-44.6876495212458,2.75,22.625));
#1080=CARTESIAN_POINT('',(1.68383373650577E-16,2.75,0.));
#1081=CARTESIAN_POINT('',(-56.,2.75000000000001,0.));
#1082=CARTESIAN_POINT('',(1.68383373650577E-16,2.75,0.));
#1083=CARTESIAN_POINT('',(-36.8094756822207,2.75,0.));
#1084=CARTESIAN_POINT('',(-2.29613691341696E-16,-3.75000000000001,0.));
#1085=CARTESIAN_POINT('',(2.29613691341696E-16,3.75,0.));
#1086=CARTESIAN_POINT('',(-1.07153055959459E-16,-1.75000000000001,0.));
#1087=CARTESIAN_POINT('',(1.07153055959458E-16,1.75,0.));
#1088=CARTESIAN_POINT('',(-39.1876495212458,159.706147929218,22.625));
#1089=CARTESIAN_POINT('',(39.1876495212459,159.706147929218,22.625));
#1090=CARTESIAN_POINT('',(9.77885817493085E-15,159.706147929218,-45.25));
#1091=CARTESIAN_POINT('',(0.,0.,0.));
#1092=MECHANICAL_DESIGN_GEOMETRIC_PRESENTATION_REPRESENTATION('',(#539,
#540,#541,#542,#543,#544,#545,#546,#547,#548,#549,#550),#1093);
#1093=(
GEOMETRIC_REPRESENTATION_CONTEXT(3)
GLOBAL_UNCERTAINTY_ASSIGNED_CONTEXT((#1098))
GLOBAL_UNIT_ASSIGNED_CONTEXT((#1105,#1104,#1103))
REPRESENTATION_CONTEXT('UBPF\X2\5E2651B2538B57065F625EA798764E1D59167403976274038F74627F\X0\',
'TOP_LEVEL_ASSEMBLY_PART')
);
#1094=(
GEOMETRIC_REPRESENTATION_CONTEXT(3)
GLOBAL_UNCERTAINTY_ASSIGNED_CONTEXT((#1099))
GLOBAL_UNIT_ASSIGNED_CONTEXT((#1105,#1104,#1103))
REPRESENTATION_CONTEXT('UB\X2\88C5914D4F53\X0\','COMPONENT_PART')
);
#1095=(
GEOMETRIC_REPRESENTATION_CONTEXT(3)
GLOBAL_UNCERTAINTY_ASSIGNED_CONTEXT((#1100))
GLOBAL_UNIT_ASSIGNED_CONTEXT((#1105,#1104,#1103))
REPRESENTATION_CONTEXT('UC\X2\74038F74627F\X0\','COMPONENT_PART')
);
#1096=(
GEOMETRIC_REPRESENTATION_CONTEXT(3)
GLOBAL_UNCERTAINTY_ASSIGNED_CONTEXT((#1101))
GLOBAL_UNIT_ASSIGNED_CONTEXT((#1105,#1104,#1103))
REPRESENTATION_CONTEXT('\X2\98764E1D\X0\','COMPONENT_PART')
);
#1097=(
GEOMETRIC_REPRESENTATION_CONTEXT(3)
GLOBAL_UNCERTAINTY_ASSIGNED_CONTEXT((#1102))
GLOBAL_UNIT_ASSIGNED_CONTEXT((#1105,#1104,#1103))
REPRESENTATION_CONTEXT('PF\X2\51B2538B57065F625EA7\X0\',
'COMPONENT_PART')
);
#1098=UNCERTAINTY_MEASURE_WITH_UNIT(LENGTH_MEASURE(0.005),#1105,
'DISTANCE_ACCURACY_VALUE','Maximum Tolerance applied to model');
#1099=UNCERTAINTY_MEASURE_WITH_UNIT(LENGTH_MEASURE(0.005),#1105,
'DISTANCE_ACCURACY_VALUE','Maximum Tolerance applied to model');
#1100=UNCERTAINTY_MEASURE_WITH_UNIT(LENGTH_MEASURE(0.005),#1105,
'DISTANCE_ACCURACY_VALUE','Maximum Tolerance applied to model');
#1101=UNCERTAINTY_MEASURE_WITH_UNIT(LENGTH_MEASURE(0.005),#1105,
'DISTANCE_ACCURACY_VALUE','Maximum Tolerance applied to model');
#1102=UNCERTAINTY_MEASURE_WITH_UNIT(LENGTH_MEASURE(0.005),#1105,
'DISTANCE_ACCURACY_VALUE','Maximum Tolerance applied to model');
#1103=(
NAMED_UNIT(*)
SI_UNIT($,.STERADIAN.)
SOLID_ANGLE_UNIT()
);
#1104=(
NAMED_UNIT(*)
PLANE_ANGLE_UNIT()
SI_UNIT($,.RADIAN.)
);
#1105=(
LENGTH_UNIT()
NAMED_UNIT(*)
SI_UNIT(.MILLI.,.METRE.)
);
#1106=PRODUCT_DEFINITION_SHAPE('','',#1116);
#1107=PRODUCT_DEFINITION_SHAPE('','',#1117);
#1108=PRODUCT_DEFINITION_SHAPE('','',#1118);
#1109=PRODUCT_DEFINITION_SHAPE(' ','NAUO PRDDFN',#23);
#1110=PRODUCT_DEFINITION_SHAPE('','',#1119);
#1111=PRODUCT_DEFINITION_SHAPE(' ','NAUO PRDDFN',#24);
#1112=PRODUCT_DEFINITION_SHAPE(' ','NAUO PRDDFN',#25);
#1113=PRODUCT_DEFINITION_SHAPE(' ','NAUO PRDDFN',#26);
#1114=PRODUCT_DEFINITION_SHAPE('','',#1120);
#1115=PRODUCT_DEFINITION_SHAPE(' ','NAUO PRDDFN',#27);
#1116=PRODUCT_DEFINITION('','',#1126,#1121);
#1117=PRODUCT_DEFINITION('','',#1127,#1122);
#1118=PRODUCT_DEFINITION('','',#1128,#1123);
#1119=PRODUCT_DEFINITION('','',#1129,#1124);
#1120=PRODUCT_DEFINITION('','',#1130,#1125);
#1121=PRODUCT_DEFINITION_CONTEXT('',#1152,'design');
#1122=PRODUCT_DEFINITION_CONTEXT('',#1152,'design');
#1123=PRODUCT_DEFINITION_CONTEXT('',#1152,'design');
#1124=PRODUCT_DEFINITION_CONTEXT('',#1152,'design');
#1125=PRODUCT_DEFINITION_CONTEXT('',#1152,'design');
#1126=PRODUCT_DEFINITION_FORMATION_WITH_SPECIFIED_SOURCE('','',#1136,
 .NOT_KNOWN.);
#1127=PRODUCT_DEFINITION_FORMATION_WITH_SPECIFIED_SOURCE('','',#1137,
 .NOT_KNOWN.);
#1128=PRODUCT_DEFINITION_FORMATION_WITH_SPECIFIED_SOURCE('','',#1138,
 .NOT_KNOWN.);
#1129=PRODUCT_DEFINITION_FORMATION_WITH_SPECIFIED_SOURCE('','',#1139,
 .NOT_KNOWN.);
#1130=PRODUCT_DEFINITION_FORMATION_WITH_SPECIFIED_SOURCE('','',#1140,
 .NOT_KNOWN.);
#1131=PRODUCT_RELATED_PRODUCT_CATEGORY('','',(#1136));
#1132=PRODUCT_RELATED_PRODUCT_CATEGORY('','',(#1137));
#1133=PRODUCT_RELATED_PRODUCT_CATEGORY('','',(#1138));
#1134=PRODUCT_RELATED_PRODUCT_CATEGORY('','',(#1139));
#1135=PRODUCT_RELATED_PRODUCT_CATEGORY('','',(#1140));
#1136=PRODUCT('UBPF\X2\5E2651B2538B57065F625EA798764E1D59167403976274038F74627F\X0\',
'UBPF\X2\5E2651B2538B57065F625EA798764E1D59167403976274038F74627F\X0\',
'UBPF\X2\5E2651B2538B57065F625EA798764E1D59167403976274038F74627F\X0\',
(#1146));
#1137=PRODUCT('UB\X2\88C5914D4F53\X0\','UB\X2\88C5914D4F53\X0\',
'UB\X2\88C5914D4F53\X0\',(#1147));
#1138=PRODUCT('UC\X2\74038F74627F\X0\','UC\X2\74038F74627F\X0\',
'UC\X2\74038F74627F\X0\',(#1148));
#1139=PRODUCT('\X2\98764E1D\X0\','\X2\98764E1D\X0\','\X2\98764E1D\X0\',
(#1149));
#1140=PRODUCT('PF\X2\51B2538B57065F625EA7\X0\','PF\X2\51B2538B57065F625EA7\X0\',
'PF\X2\51B2538B57065F625EA7\X0\',(#1150));
#1141=PRODUCT_CATEGORY('','');
#1142=PRODUCT_CATEGORY('','');
#1143=PRODUCT_CATEGORY('','');
#1144=PRODUCT_CATEGORY('','');
#1145=PRODUCT_CATEGORY('','');
#1146=PRODUCT_CONTEXT('',#1152,'mechanical');
#1147=PRODUCT_CONTEXT('',#1152,'mechanical');
#1148=PRODUCT_CONTEXT('',#1152,'mechanical');
#1149=PRODUCT_CONTEXT('',#1152,'mechanical');
#1150=PRODUCT_CONTEXT('',#1152,'mechanical');
#1151=APPLICATION_PROTOCOL_DEFINITION('international standard',
'automotive_design',2010,#1152);
#1152=APPLICATION_CONTEXT(
'core data for automotive mechanical design processes');
ENDSEC;
END-ISO-10303-21;
