ISO-10303-21;
HEADER;
/* Generated by software containing HOOPS Exchange Step
 * from HOOPS Exchange, Inc. (www.tiangong.cloud) 
 */

FILE_DESCRIPTION(
/* description */ ('Unknown'),
/* implementation_level */ '2;1');

FILE_NAME(
/* name */ 'F\X2\578B518587BA7EB967467AEF517382828F74627F\X0\',
/* time_stamp */ '2025-03-25T09:25:19+08:00',
/* author */ ('Unknown'),
/* organization */ ('Unknown'),
/* preprocessor_version */ 'ST-DEVELOPER v19.4',
/* originating_system */ 'TianGong',
/* authorisation */ 'Unknown');

FILE_SCHEMA (('AUTOMOTIVE_DESIGN {1 0 10303 214 3 1 1}'));
ENDSEC;

DATA;
#10=PROPERTY_DEFINITION_REPRESENTATION(#14,#12);
#11=PROPERTY_DEFINITION_REPRESENTATION(#15,#13);
#12=REPRESENTATION('',(#16),#1392);
#13=REPRESENTATION('',(#17),#1392);
#14=PROPERTY_DEFINITION('pmi validation property','',#1397);
#15=PROPERTY_DEFINITION('pmi validation property','',#1397);
#16=VALUE_REPRESENTATION_ITEM('number of annotations',COUNT_MEASURE(0.));
#17=VALUE_REPRESENTATION_ITEM('number of views',COUNT_MEASURE(0.));
#18=SHAPE_REPRESENTATION_RELATIONSHIP('','',#800,#19);
#19=ADVANCED_BREP_SHAPE_REPRESENTATION('',(#798),#1392);
#20=(
BOUNDED_SURFACE()
B_SPLINE_SURFACE(3,2,((#1300,#1301,#1302),(#1303,#1304,#1305),(#1306,#1307,
#1308),(#1309,#1310,#1311),(#1312,#1313,#1314)),.UNSPECIFIED.,.F.,.F.,.F.)
B_SPLINE_SURFACE_WITH_KNOTS((4,1,4),(3,3),(0.00388076514937271,0.0117722727337432,
0.0196637803181136),(0.,1.),.UNSPECIFIED.)
GEOMETRIC_REPRESENTATION_ITEM()
RATIONAL_B_SPLINE_SURFACE(((1.,0.7114418383957,1.),(1.,0.772543623889846,
1.),(1.,0.933830664440643,1.),(1.,1.00000000032986,1.),(1.,1.,1.)))
REPRESENTATION_ITEM('')
SURFACE()
);
#21=(
BOUNDED_SURFACE()
B_SPLINE_SURFACE(3,2,((#1315,#1316,#1317),(#1318,#1319,#1320),(#1321,#1322,
#1323),(#1324,#1325,#1326),(#1327,#1328,#1329)),.UNSPECIFIED.,.F.,.F.,.F.)
B_SPLINE_SURFACE_WITH_KNOTS((4,1,4),(3,3),(0.00388076514937298,0.0117722727337434,
0.0196637803181139),(0.,1.),.UNSPECIFIED.)
GEOMETRIC_REPRESENTATION_ITEM()
RATIONAL_B_SPLINE_SURFACE(((1.,0.711441838395704,1.),(1.,0.772543623894522,
1.),(1.,0.933830664438302,1.),(1.,1.00000000032986,1.),(1.,1.,1.)))
REPRESENTATION_ITEM('')
SURFACE()
);
#22=(
BOUNDED_SURFACE()
B_SPLINE_SURFACE(3,2,((#1344,#1345,#1346),(#1347,#1348,#1349),(#1350,#1351,
#1352),(#1353,#1354,#1355),(#1356,#1357,#1358)),.UNSPECIFIED.,.F.,.F.,.F.)
B_SPLINE_SURFACE_WITH_KNOTS((4,1,4),(3,3),(-4.91502336620145E-5,0.00780124364466506,
0.0156516375229921),(0.,1.),.UNSPECIFIED.)
GEOMETRIC_REPRESENTATION_ITEM()
RATIONAL_B_SPLINE_SURFACE(((1.,1.,1.),(1.,1.00000000026685,1.),(1.,0.931714283642914,
1.),(1.,0.772614631729684,1.),(1.,0.707190148412016,1.)))
REPRESENTATION_ITEM('')
SURFACE()
);
#23=B_SPLINE_SURFACE_WITH_KNOTS('',3,1,((#1088,#1089),(#1090,#1091),(#1092,
#1093),(#1094,#1095),(#1096,#1097),(#1098,#1099),(#1100,#1101),(#1102,#1103),
(#1104,#1105),(#1106,#1107),(#1108,#1109),(#1110,#1111),(#1112,#1113),(#1114,
#1115),(#1116,#1117),(#1118,#1119),(#1120,#1121),(#1122,#1123)),
 .RULED_SURF.,.F.,.F.,.F.,(4,2,2,2,2,2,2,2,4),(2,2),(0.,0.125,0.25,0.375,
0.5,0.625,0.75,0.875,1.),(0.,1.),.UNSPECIFIED.);
#24=B_SPLINE_SURFACE_WITH_KNOTS('',3,1,((#1154,#1155),(#1156,#1157),(#1158,
#1159),(#1160,#1161),(#1162,#1163),(#1164,#1165)),.RULED_SURF.,.F.,.F.,
 .F.,(4,2,4),(2,2),(0.,0.5,1.),(0.,1.),.UNSPECIFIED.);
#25=B_SPLINE_SURFACE_WITH_KNOTS('',3,1,((#1190,#1191),(#1192,#1193),(#1194,
#1195),(#1196,#1197),(#1198,#1199),(#1200,#1201),(#1202,#1203),(#1204,#1205),
(#1206,#1207),(#1208,#1209),(#1210,#1211),(#1212,#1213),(#1214,#1215),(#1216,
#1217),(#1218,#1219),(#1220,#1221),(#1222,#1223),(#1224,#1225)),
 .RULED_SURF.,.F.,.F.,.F.,(4,2,2,2,2,2,2,2,4),(2,2),(0.,0.125,0.25,0.375,
0.5,0.625,0.75,0.875,1.),(0.,1.),.UNSPECIFIED.);
#26=B_SPLINE_SURFACE_WITH_KNOTS('',3,1,((#1243,#1244),(#1245,#1246),(#1247,
#1248),(#1249,#1250),(#1251,#1252),(#1253,#1254)),.RULED_SURF.,.F.,.F.,
 .F.,(4,2,4),(2,2),(0.,0.5,1.),(0.,1.),.UNSPECIFIED.);
#27=B_SPLINE_SURFACE_WITH_KNOTS('',3,3,((#1363,#1364,#1365,#1366,#1367,
#1368,#1369),(#1370,#1371,#1372,#1373,#1374,#1375,#1376),(#1377,#1378,#1379,
#1380,#1381,#1382,#1383),(#1384,#1385,#1386,#1387,#1388,#1389,#1390)),
 .UNSPECIFIED.,.F.,.F.,.F.,(4,4),(4,1,1,1,4),(-2.27058978251929E-6,9.81268446297444E-5),
(0.,0.251790558841769,0.503581117683538,0.755371676525307,1.00716223536708),
 .UNSPECIFIED.);
#28=B_SPLINE_CURVE_WITH_KNOTS('',3,(#1078,#1079,#1080,#1081),
 .UNSPECIFIED.,.F.,.F.,(4,4),(0.,8.97684464822618E-5),.UNSPECIFIED.);
#29=B_SPLINE_CURVE_WITH_KNOTS('',3,(#1127,#1128,#1129,#1130,#1131,#1132,
#1133,#1134,#1135,#1136,#1137,#1138,#1139,#1140,#1141),.UNSPECIFIED.,.F.,
 .F.,(4,1,1,1,1,1,1,1,1,1,1,1,4),(0.,0.125,0.25,0.3125,0.375,0.4375,0.46875,
0.5,0.53125,0.5625,0.625,0.75,1.),.UNSPECIFIED.);
#30=B_SPLINE_CURVE_WITH_KNOTS('',3,(#1142,#1143,#1144,#1145),
 .UNSPECIFIED.,.F.,.F.,(4,4),(0.,4.7212572809647E-6),.UNSPECIFIED.);
#31=B_SPLINE_CURVE_WITH_KNOTS('',3,(#1147,#1148,#1149,#1150,#1151),
 .UNSPECIFIED.,.F.,.F.,(4,1,4),(4.85734984957114E-7,0.00781726255891208,
0.0156340393828392),.UNSPECIFIED.);
#32=B_SPLINE_CURVE_WITH_KNOTS('',3,(#1166,#1167,#1168,#1169),
 .UNSPECIFIED.,.F.,.F.,(4,4),(-2.09832233139968E-5,0.015670581643459),
 .UNSPECIFIED.);
#33=B_SPLINE_CURVE_WITH_KNOTS('',3,(#1172,#1173,#1174,#1175),
 .UNSPECIFIED.,.F.,.F.,(4,4),(1.73472347597681E-18,6.0287156778049E-6),
 .UNSPECIFIED.);
#34=B_SPLINE_CURVE_WITH_KNOTS('',3,(#1176,#1177,#1178,#1179,#1180,#1181,
#1182,#1183,#1184,#1185,#1186,#1187,#1188),.UNSPECIFIED.,.F.,.F.,(4,1,1,
1,1,1,1,1,1,1,4),(0.,9.69897427575132E-5,0.000193979485515026,0.000387958971030053,
0.000581938456545079,0.000775917942060106,0.00116387691309016,0.00155183588412021,
0.00193979485515026,0.00232775382618032,0.00310367176824042),
 .UNSPECIFIED.);
#35=B_SPLINE_CURVE_WITH_KNOTS('',3,(#1228,#1229,#1230,#1231,#1232),
 .UNSPECIFIED.,.F.,.F.,(4,1,4),(-2.14410424071773E-5,0.0078323249113521,
0.0156860908651114),.UNSPECIFIED.);
#36=B_SPLINE_CURVE_WITH_KNOTS('',3,(#1233,#1234,#1235,#1236),
 .UNSPECIFIED.,.F.,.F.,(4,4),(1.73472347597681E-18,4.72125728096504E-6),
 .UNSPECIFIED.);
#37=B_SPLINE_CURVE_WITH_KNOTS('',3,(#1238,#1239,#1240,#1241,#1242),
 .UNSPECIFIED.,.F.,.F.,(4,1,4),(4.85734984954816E-7,0.00781726255891209,
0.0156340393828392),.UNSPECIFIED.);
#38=B_SPLINE_CURVE_WITH_KNOTS('',3,(#1255,#1256,#1257,#1258),
 .UNSPECIFIED.,.F.,.F.,(4,4),(0.,9.92187490683106E-5),.UNSPECIFIED.);
#39=B_SPLINE_CURVE_WITH_KNOTS('',3,(#1260,#1261,#1262,#1263),
 .UNSPECIFIED.,.F.,.F.,(4,4),(9.92236822303875E-5,0.0158038939390359),
 .UNSPECIFIED.);
#40=B_SPLINE_CURVE_WITH_KNOTS('',3,(#1265,#1266,#1267,#1268),
 .UNSPECIFIED.,.F.,.F.,(4,4),(-2.09832233140024E-5,0.0156705816434591),
 .UNSPECIFIED.);
#41=B_SPLINE_CURVE_WITH_KNOTS('',3,(#1270,#1271,#1272,#1273),
 .UNSPECIFIED.,.F.,.F.,(4,4),(0.,6.02871567777364E-6),.UNSPECIFIED.);
#42=B_SPLINE_CURVE_WITH_KNOTS('',3,(#1295,#1296,#1297,#1298,#1299),
 .UNSPECIFIED.,.F.,.F.,(4,1,4),(2.60208521396521E-18,0.000235301946901189,
0.000470603893802375),.UNSPECIFIED.);
#43=B_SPLINE_CURVE_WITH_KNOTS('',3,(#1330,#1331,#1332,#1333,#1334),
 .UNSPECIFIED.,.F.,.F.,(4,1,4),(1.73472347597681E-18,0.000234767320366325,
0.000469534640732647),.UNSPECIFIED.);
#44=B_SPLINE_CURVE_WITH_KNOTS('',3,(#1340,#1341,#1342,#1343),
 .UNSPECIFIED.,.F.,.F.,(4,4),(0.,1.),.UNSPECIFIED.);
#45=B_SPLINE_CURVE_WITH_KNOTS('',3,(#1359,#1360,#1361,#1362),
 .UNSPECIFIED.,.F.,.F.,(4,4),(0.,1.),.UNSPECIFIED.);
#46=LINE('',#1042,#61);
#47=LINE('',#1045,#62);
#48=LINE('',#1047,#63);
#49=LINE('',#1049,#64);
#50=LINE('',#1051,#65);
#51=LINE('',#1057,#66);
#52=LINE('',#1060,#67);
#53=LINE('',#1061,#68);
#54=LINE('',#1066,#69);
#55=LINE('',#1069,#70);
#56=LINE('',#1073,#71);
#57=LINE('',#1075,#72);
#58=LINE('',#1083,#73);
#59=LINE('',#1087,#74);
#60=LINE('',#1124,#75);
#61=VECTOR('',#917,1000.);
#62=VECTOR('',#918,1000.);
#63=VECTOR('',#919,1000.);
#64=VECTOR('',#920,1000.);
#65=VECTOR('',#923,1000.);
#66=VECTOR('',#930,1000.);
#67=VECTOR('',#931,1000.);
#68=VECTOR('',#932,1000.);
#69=VECTOR('',#939,1000.);
#70=VECTOR('',#940,1000.);
#71=VECTOR('',#943,1000.);
#72=VECTOR('',#946,1000.);
#73=VECTOR('',#947,1000.);
#74=VECTOR('',#950,1000.);
#75=VECTOR('',#951,1000.);
#76=TOROIDAL_SURFACE('',#819,10.7,0.3);
#77=TOROIDAL_SURFACE('',#821,10.7,0.3);
#78=TOROIDAL_SURFACE('',#823,6.3,0.3);
#79=TOROIDAL_SURFACE('',#824,6.3,0.3);
#80=TOROIDAL_SURFACE('',#855,17.2,0.3);
#81=TOROIDAL_SURFACE('',#860,17.2,0.3);
#82=CYLINDRICAL_SURFACE('',#816,6.);
#83=CYLINDRICAL_SURFACE('',#825,11.);
#84=CYLINDRICAL_SURFACE('',#828,17.5);
#85=CYLINDRICAL_SURFACE('',#832,11.);
#86=CYLINDRICAL_SURFACE('',#842,9.5);
#87=CYLINDRICAL_SURFACE('',#844,11.5);
#88=CYLINDRICAL_SURFACE('',#852,5.053);
#89=CYLINDRICAL_SURFACE('',#853,0.3);
#90=CYLINDRICAL_SURFACE('',#857,0.3);
#91=CYLINDRICAL_SURFACE('',#858,0.3);
#92=CYLINDRICAL_SURFACE('',#862,0.3);
#93=DEGENERATE_TOROIDAL_SURFACE('',#805,0.0833333333333276,9.08333333333333,
 .F.);
#94=DEGENERATE_TOROIDAL_SURFACE('',#812,0.0833333333333276,9.08333333333333,
 .F.);
#95=ORIENTED_EDGE('',*,*,#223,.T.);
#96=ORIENTED_EDGE('',*,*,#224,.T.);
#97=ORIENTED_EDGE('',*,*,#225,.T.);
#98=ORIENTED_EDGE('',*,*,#224,.F.);
#99=ORIENTED_EDGE('',*,*,#226,.T.);
#100=ORIENTED_EDGE('',*,*,#225,.F.);
#101=ORIENTED_EDGE('',*,*,#227,.T.);
#102=ORIENTED_EDGE('',*,*,#228,.T.);
#103=ORIENTED_EDGE('',*,*,#229,.T.);
#104=ORIENTED_EDGE('',*,*,#228,.F.);
#105=ORIENTED_EDGE('',*,*,#230,.T.);
#106=ORIENTED_EDGE('',*,*,#229,.F.);
#107=ORIENTED_EDGE('',*,*,#231,.T.);
#108=ORIENTED_EDGE('',*,*,#232,.T.);
#109=ORIENTED_EDGE('',*,*,#233,.F.);
#110=ORIENTED_EDGE('',*,*,#226,.F.);
#111=ORIENTED_EDGE('',*,*,#227,.F.);
#112=ORIENTED_EDGE('',*,*,#234,.F.);
#113=ORIENTED_EDGE('',*,*,#223,.F.);
#114=ORIENTED_EDGE('',*,*,#232,.F.);
#115=ORIENTED_EDGE('',*,*,#231,.F.);
#116=ORIENTED_EDGE('',*,*,#230,.F.);
#117=ORIENTED_EDGE('',*,*,#235,.F.);
#118=ORIENTED_EDGE('',*,*,#234,.T.);
#119=ORIENTED_EDGE('',*,*,#236,.T.);
#120=ORIENTED_EDGE('',*,*,#237,.T.);
#121=ORIENTED_EDGE('',*,*,#238,.F.);
#122=ORIENTED_EDGE('',*,*,#239,.T.);
#123=ORIENTED_EDGE('',*,*,#240,.T.);
#124=ORIENTED_EDGE('',*,*,#241,.T.);
#125=ORIENTED_EDGE('',*,*,#236,.F.);
#126=ORIENTED_EDGE('',*,*,#242,.T.);
#127=ORIENTED_EDGE('',*,*,#243,.T.);
#128=ORIENTED_EDGE('',*,*,#244,.T.);
#129=ORIENTED_EDGE('',*,*,#240,.F.);
#130=ORIENTED_EDGE('',*,*,#245,.T.);
#131=ORIENTED_EDGE('',*,*,#233,.T.);
#132=ORIENTED_EDGE('',*,*,#246,.T.);
#133=ORIENTED_EDGE('',*,*,#247,.F.);
#134=ORIENTED_EDGE('',*,*,#248,.T.);
#135=ORIENTED_EDGE('',*,*,#249,.T.);
#136=ORIENTED_EDGE('',*,*,#250,.T.);
#137=ORIENTED_EDGE('',*,*,#246,.F.);
#138=ORIENTED_EDGE('',*,*,#235,.T.);
#139=ORIENTED_EDGE('',*,*,#251,.T.);
#140=ORIENTED_EDGE('',*,*,#252,.T.);
#141=ORIENTED_EDGE('',*,*,#253,.T.);
#142=ORIENTED_EDGE('',*,*,#254,.T.);
#143=ORIENTED_EDGE('',*,*,#255,.T.);
#144=ORIENTED_EDGE('',*,*,#256,.F.);
#145=ORIENTED_EDGE('',*,*,#257,.T.);
#146=ORIENTED_EDGE('',*,*,#247,.T.);
#147=ORIENTED_EDGE('',*,*,#258,.T.);
#148=ORIENTED_EDGE('',*,*,#259,.T.);
#149=ORIENTED_EDGE('',*,*,#260,.F.);
#150=ORIENTED_EDGE('',*,*,#261,.T.);
#151=ORIENTED_EDGE('',*,*,#262,.T.);
#152=ORIENTED_EDGE('',*,*,#243,.F.);
#153=ORIENTED_EDGE('',*,*,#263,.T.);
#154=ORIENTED_EDGE('',*,*,#256,.T.);
#155=ORIENTED_EDGE('',*,*,#264,.F.);
#156=ORIENTED_EDGE('',*,*,#265,.F.);
#157=ORIENTED_EDGE('',*,*,#266,.T.);
#158=ORIENTED_EDGE('',*,*,#251,.F.);
#159=ORIENTED_EDGE('',*,*,#267,.T.);
#160=ORIENTED_EDGE('',*,*,#268,.T.);
#161=ORIENTED_EDGE('',*,*,#238,.T.);
#162=ORIENTED_EDGE('',*,*,#269,.T.);
#163=ORIENTED_EDGE('',*,*,#270,.T.);
#164=ORIENTED_EDGE('',*,*,#271,.F.);
#165=ORIENTED_EDGE('',*,*,#272,.T.);
#166=ORIENTED_EDGE('',*,*,#273,.T.);
#167=ORIENTED_EDGE('',*,*,#274,.T.);
#168=ORIENTED_EDGE('',*,*,#260,.T.);
#169=ORIENTED_EDGE('',*,*,#271,.T.);
#170=ORIENTED_EDGE('',*,*,#265,.T.);
#171=ORIENTED_EDGE('',*,*,#264,.T.);
#172=ORIENTED_EDGE('',*,*,#275,.F.);
#173=ORIENTED_EDGE('',*,*,#276,.T.);
#174=ORIENTED_EDGE('',*,*,#274,.F.);
#175=ORIENTED_EDGE('',*,*,#275,.T.);
#176=ORIENTED_EDGE('',*,*,#277,.T.);
#177=ORIENTED_EDGE('',*,*,#276,.F.);
#178=ORIENTED_EDGE('',*,*,#278,.T.);
#179=ORIENTED_EDGE('',*,*,#278,.F.);
#180=ORIENTED_EDGE('',*,*,#277,.F.);
#181=ORIENTED_EDGE('',*,*,#263,.F.);
#182=ORIENTED_EDGE('',*,*,#245,.F.);
#183=ORIENTED_EDGE('',*,*,#279,.F.);
#184=ORIENTED_EDGE('',*,*,#248,.F.);
#185=ORIENTED_EDGE('',*,*,#257,.F.);
#186=ORIENTED_EDGE('',*,*,#279,.T.);
#187=ORIENTED_EDGE('',*,*,#242,.F.);
#188=ORIENTED_EDGE('',*,*,#280,.F.);
#189=ORIENTED_EDGE('',*,*,#249,.F.);
#190=ORIENTED_EDGE('',*,*,#239,.F.);
#191=ORIENTED_EDGE('',*,*,#273,.F.);
#192=ORIENTED_EDGE('',*,*,#281,.F.);
#193=ORIENTED_EDGE('',*,*,#258,.F.);
#194=ORIENTED_EDGE('',*,*,#250,.F.);
#195=ORIENTED_EDGE('',*,*,#280,.T.);
#196=ORIENTED_EDGE('',*,*,#281,.T.);
#197=ORIENTED_EDGE('',*,*,#272,.F.);
#198=ORIENTED_EDGE('',*,*,#259,.F.);
#199=ORIENTED_EDGE('',*,*,#261,.F.);
#200=ORIENTED_EDGE('',*,*,#268,.F.);
#201=ORIENTED_EDGE('',*,*,#282,.F.);
#202=ORIENTED_EDGE('',*,*,#267,.F.);
#203=ORIENTED_EDGE('',*,*,#255,.F.);
#204=ORIENTED_EDGE('',*,*,#283,.F.);
#205=ORIENTED_EDGE('',*,*,#244,.F.);
#206=ORIENTED_EDGE('',*,*,#262,.F.);
#207=ORIENTED_EDGE('',*,*,#282,.T.);
#208=ORIENTED_EDGE('',*,*,#283,.T.);
#209=ORIENTED_EDGE('',*,*,#254,.F.);
#210=ORIENTED_EDGE('',*,*,#284,.F.);
#211=ORIENTED_EDGE('',*,*,#241,.F.);
#212=ORIENTED_EDGE('',*,*,#284,.T.);
#213=ORIENTED_EDGE('',*,*,#253,.F.);
#214=ORIENTED_EDGE('',*,*,#285,.F.);
#215=ORIENTED_EDGE('',*,*,#237,.F.);
#216=ORIENTED_EDGE('',*,*,#266,.F.);
#217=ORIENTED_EDGE('',*,*,#270,.F.);
#218=ORIENTED_EDGE('',*,*,#286,.F.);
#219=ORIENTED_EDGE('',*,*,#285,.T.);
#220=ORIENTED_EDGE('',*,*,#252,.F.);
#221=ORIENTED_EDGE('',*,*,#286,.T.);
#222=ORIENTED_EDGE('',*,*,#269,.F.);
#223=EDGE_CURVE('',#287,#287,#333,.F.);
#224=EDGE_CURVE('',#288,#288,#334,.T.);
#225=EDGE_CURVE('',#289,#289,#335,.T.);
#226=EDGE_CURVE('',#290,#290,#336,.T.);
#227=EDGE_CURVE('',#291,#291,#337,.T.);
#228=EDGE_CURVE('',#292,#292,#338,.T.);
#229=EDGE_CURVE('',#293,#293,#339,.T.);
#230=EDGE_CURVE('',#294,#294,#340,.F.);
#231=EDGE_CURVE('',#295,#295,#341,.T.);
#232=EDGE_CURVE('',#296,#296,#342,.T.);
#233=EDGE_CURVE('',#297,#297,#343,.F.);
#234=EDGE_CURVE('',#298,#298,#344,.F.);
#235=EDGE_CURVE('',#299,#299,#345,.T.);
#236=EDGE_CURVE('',#300,#301,#46,.T.);
#237=EDGE_CURVE('',#301,#302,#47,.F.);
#238=EDGE_CURVE('',#303,#302,#48,.T.);
#239=EDGE_CURVE('',#303,#300,#49,.T.);
#240=EDGE_CURVE('',#304,#305,#50,.T.);
#241=EDGE_CURVE('',#305,#301,#346,.F.);
#242=EDGE_CURVE('',#300,#304,#347,.T.);
#243=EDGE_CURVE('',#306,#307,#51,.T.);
#244=EDGE_CURVE('',#307,#305,#52,.F.);
#245=EDGE_CURVE('',#304,#306,#53,.T.);
#246=EDGE_CURVE('',#308,#308,#348,.T.);
#247=EDGE_CURVE('',#309,#310,#54,.T.);
#248=EDGE_CURVE('',#309,#311,#55,.F.);
#249=EDGE_CURVE('',#311,#312,#349,.F.);
#250=EDGE_CURVE('',#312,#310,#56,.F.);
#251=EDGE_CURVE('',#313,#314,#57,.T.);
#252=EDGE_CURVE('',#314,#315,#28,.T.);
#253=EDGE_CURVE('',#315,#316,#58,.T.);
#254=EDGE_CURVE('',#316,#317,#350,.T.);
#255=EDGE_CURVE('',#317,#313,#59,.T.);
#256=EDGE_CURVE('',#318,#319,#60,.T.);
#257=EDGE_CURVE('',#318,#309,#29,.T.);
#258=EDGE_CURVE('',#310,#320,#30,.T.);
#259=EDGE_CURVE('',#320,#321,#31,.T.);
#260=EDGE_CURVE('',#319,#321,#351,.T.);
#261=EDGE_CURVE('',#322,#323,#32,.T.);
#262=EDGE_CURVE('',#323,#307,#33,.T.);
#263=EDGE_CURVE('',#306,#318,#34,.T.);
#264=EDGE_CURVE('',#322,#319,#352,.T.);
#265=EDGE_CURVE('',#324,#322,#353,.T.);
#266=EDGE_CURVE('',#324,#314,#35,.T.);
#267=EDGE_CURVE('',#313,#325,#36,.T.);
#268=EDGE_CURVE('',#325,#322,#37,.T.);
#269=EDGE_CURVE('',#302,#326,#38,.T.);
#270=EDGE_CURVE('',#326,#324,#39,.T.);
#271=EDGE_CURVE('',#321,#324,#354,.T.);
#272=EDGE_CURVE('',#321,#327,#40,.T.);
#273=EDGE_CURVE('',#327,#303,#41,.T.);
#274=EDGE_CURVE('',#328,#328,#355,.T.);
#275=EDGE_CURVE('',#329,#329,#356,.T.);
#276=EDGE_CURVE('',#330,#330,#357,.T.);
#277=EDGE_CURVE('',#331,#331,#358,.T.);
#278=EDGE_CURVE('',#332,#332,#359,.T.);
#279=EDGE_CURVE('',#311,#304,#360,.T.);
#280=EDGE_CURVE('',#312,#300,#361,.T.);
#281=EDGE_CURVE('',#320,#327,#42,.F.);
#282=EDGE_CURVE('',#323,#325,#43,.F.);
#283=EDGE_CURVE('',#305,#317,#362,.T.);
#284=EDGE_CURVE('',#301,#316,#363,.T.);
#285=EDGE_CURVE('',#302,#315,#44,.F.);
#286=EDGE_CURVE('',#314,#326,#45,.T.);
#287=VERTEX_POINT('',#1005);
#288=VERTEX_POINT('',#1007);
#289=VERTEX_POINT('',#1010);
#290=VERTEX_POINT('',#1013);
#291=VERTEX_POINT('',#1016);
#292=VERTEX_POINT('',#1018);
#293=VERTEX_POINT('',#1021);
#294=VERTEX_POINT('',#1024);
#295=VERTEX_POINT('',#1027);
#296=VERTEX_POINT('',#1029);
#297=VERTEX_POINT('',#1032);
#298=VERTEX_POINT('',#1035);
#299=VERTEX_POINT('',#1040);
#300=VERTEX_POINT('',#1043);
#301=VERTEX_POINT('',#1044);
#302=VERTEX_POINT('',#1046);
#303=VERTEX_POINT('',#1048);
#304=VERTEX_POINT('',#1052);
#305=VERTEX_POINT('',#1053);
#306=VERTEX_POINT('',#1058);
#307=VERTEX_POINT('',#1059);
#308=VERTEX_POINT('',#1064);
#309=VERTEX_POINT('',#1067);
#310=VERTEX_POINT('',#1068);
#311=VERTEX_POINT('',#1070);
#312=VERTEX_POINT('',#1072);
#313=VERTEX_POINT('',#1076);
#314=VERTEX_POINT('',#1077);
#315=VERTEX_POINT('',#1082);
#316=VERTEX_POINT('',#1084);
#317=VERTEX_POINT('',#1086);
#318=VERTEX_POINT('',#1125);
#319=VERTEX_POINT('',#1126);
#320=VERTEX_POINT('',#1146);
#321=VERTEX_POINT('',#1152);
#322=VERTEX_POINT('',#1170);
#323=VERTEX_POINT('',#1171);
#324=VERTEX_POINT('',#1227);
#325=VERTEX_POINT('',#1237);
#326=VERTEX_POINT('',#1259);
#327=VERTEX_POINT('',#1269);
#328=VERTEX_POINT('',#1276);
#329=VERTEX_POINT('',#1279);
#330=VERTEX_POINT('',#1281);
#331=VERTEX_POINT('',#1285);
#332=VERTEX_POINT('',#1288);
#333=CIRCLE('',#803,6.3);
#334=CIRCLE('',#804,7.49999999999999);
#335=CIRCLE('',#806,8.29860823437306);
#336=CIRCLE('',#808,10.7);
#337=CIRCLE('',#810,10.7);
#338=CIRCLE('',#811,8.29860823437306);
#339=CIRCLE('',#813,7.5);
#340=CIRCLE('',#815,6.3);
#341=CIRCLE('',#817,6.);
#342=CIRCLE('',#818,6.);
#343=CIRCLE('',#820,11.);
#344=CIRCLE('',#822,11.);
#345=CIRCLE('',#826,11.);
#346=CIRCLE('',#829,17.5);
#347=CIRCLE('',#830,17.5);
#348=CIRCLE('',#833,11.);
#349=CIRCLE('',#835,17.2);
#350=CIRCLE('',#837,17.2);
#351=CIRCLE('',#838,9.5);
#352=CIRCLE('',#839,9.5);
#353=CIRCLE('',#840,9.5);
#354=CIRCLE('',#841,9.5);
#355=CIRCLE('',#843,9.5);
#356=CIRCLE('',#845,11.5);
#357=CIRCLE('',#846,11.5);
#358=CIRCLE('',#849,5.053);
#359=CIRCLE('',#851,5.053);
#360=CIRCLE('',#854,0.3);
#361=CIRCLE('',#856,0.3);
#362=CIRCLE('',#859,0.3);
#363=CIRCLE('',#861,0.3);
#364=EDGE_LOOP('',(#95));
#365=EDGE_LOOP('',(#96));
#366=EDGE_LOOP('',(#97));
#367=EDGE_LOOP('',(#98));
#368=EDGE_LOOP('',(#99));
#369=EDGE_LOOP('',(#100));
#370=EDGE_LOOP('',(#101));
#371=EDGE_LOOP('',(#102));
#372=EDGE_LOOP('',(#103));
#373=EDGE_LOOP('',(#104));
#374=EDGE_LOOP('',(#105));
#375=EDGE_LOOP('',(#106));
#376=EDGE_LOOP('',(#107));
#377=EDGE_LOOP('',(#108));
#378=EDGE_LOOP('',(#109));
#379=EDGE_LOOP('',(#110));
#380=EDGE_LOOP('',(#111));
#381=EDGE_LOOP('',(#112));
#382=EDGE_LOOP('',(#113));
#383=EDGE_LOOP('',(#114));
#384=EDGE_LOOP('',(#115));
#385=EDGE_LOOP('',(#116));
#386=EDGE_LOOP('',(#117));
#387=EDGE_LOOP('',(#118));
#388=EDGE_LOOP('',(#119,#120,#121,#122));
#389=EDGE_LOOP('',(#123,#124,#125,#126));
#390=EDGE_LOOP('',(#127,#128,#129,#130));
#391=EDGE_LOOP('',(#131));
#392=EDGE_LOOP('',(#132));
#393=EDGE_LOOP('',(#133,#134,#135,#136));
#394=EDGE_LOOP('',(#137));
#395=EDGE_LOOP('',(#138));
#396=EDGE_LOOP('',(#139,#140,#141,#142,#143));
#397=EDGE_LOOP('',(#144,#145,#146,#147,#148,#149));
#398=EDGE_LOOP('',(#150,#151,#152,#153,#154,#155));
#399=EDGE_LOOP('',(#156,#157,#158,#159,#160));
#400=EDGE_LOOP('',(#161,#162,#163,#164,#165,#166));
#401=EDGE_LOOP('',(#167));
#402=EDGE_LOOP('',(#168,#169,#170,#171));
#403=EDGE_LOOP('',(#172));
#404=EDGE_LOOP('',(#173));
#405=EDGE_LOOP('',(#174));
#406=EDGE_LOOP('',(#175));
#407=EDGE_LOOP('',(#176));
#408=EDGE_LOOP('',(#177));
#409=EDGE_LOOP('',(#178));
#410=EDGE_LOOP('',(#179));
#411=EDGE_LOOP('',(#180));
#412=EDGE_LOOP('',(#181,#182,#183,#184,#185));
#413=EDGE_LOOP('',(#186,#187,#188,#189));
#414=EDGE_LOOP('',(#190,#191,#192,#193,#194,#195));
#415=EDGE_LOOP('',(#196,#197,#198));
#416=EDGE_LOOP('',(#199,#200,#201));
#417=EDGE_LOOP('',(#202,#203,#204,#205,#206,#207));
#418=EDGE_LOOP('',(#208,#209,#210,#211));
#419=EDGE_LOOP('',(#212,#213,#214,#215));
#420=EDGE_LOOP('',(#216,#217,#218));
#421=EDGE_LOOP('',(#219,#220,#221,#222));
#422=FACE_BOUND('',#364,.T.);
#423=FACE_BOUND('',#365,.T.);
#424=FACE_BOUND('',#366,.T.);
#425=FACE_BOUND('',#367,.T.);
#426=FACE_BOUND('',#368,.T.);
#427=FACE_BOUND('',#369,.T.);
#428=FACE_BOUND('',#370,.T.);
#429=FACE_BOUND('',#371,.T.);
#430=FACE_BOUND('',#372,.T.);
#431=FACE_BOUND('',#373,.T.);
#432=FACE_BOUND('',#374,.T.);
#433=FACE_BOUND('',#375,.T.);
#434=FACE_BOUND('',#376,.T.);
#435=FACE_BOUND('',#377,.T.);
#436=FACE_BOUND('',#378,.T.);
#437=FACE_BOUND('',#379,.T.);
#438=FACE_BOUND('',#380,.T.);
#439=FACE_BOUND('',#381,.T.);
#440=FACE_BOUND('',#382,.T.);
#441=FACE_BOUND('',#383,.T.);
#442=FACE_BOUND('',#384,.T.);
#443=FACE_BOUND('',#385,.T.);
#444=FACE_BOUND('',#386,.T.);
#445=FACE_BOUND('',#387,.T.);
#446=FACE_BOUND('',#388,.T.);
#447=FACE_BOUND('',#389,.T.);
#448=FACE_BOUND('',#390,.T.);
#449=FACE_BOUND('',#391,.T.);
#450=FACE_BOUND('',#392,.T.);
#451=FACE_BOUND('',#393,.T.);
#452=FACE_BOUND('',#394,.T.);
#453=FACE_BOUND('',#395,.T.);
#454=FACE_BOUND('',#396,.T.);
#455=FACE_BOUND('',#397,.T.);
#456=FACE_BOUND('',#398,.T.);
#457=FACE_BOUND('',#399,.T.);
#458=FACE_BOUND('',#400,.T.);
#459=FACE_BOUND('',#401,.T.);
#460=FACE_BOUND('',#402,.T.);
#461=FACE_BOUND('',#403,.T.);
#462=FACE_BOUND('',#404,.T.);
#463=FACE_BOUND('',#405,.T.);
#464=FACE_BOUND('',#406,.T.);
#465=FACE_BOUND('',#407,.T.);
#466=FACE_BOUND('',#408,.T.);
#467=FACE_BOUND('',#409,.T.);
#468=FACE_BOUND('',#410,.T.);
#469=FACE_BOUND('',#411,.T.);
#470=FACE_BOUND('',#412,.T.);
#471=FACE_BOUND('',#413,.T.);
#472=FACE_BOUND('',#414,.T.);
#473=FACE_BOUND('',#415,.T.);
#474=FACE_BOUND('',#416,.T.);
#475=FACE_BOUND('',#417,.T.);
#476=FACE_BOUND('',#418,.T.);
#477=FACE_BOUND('',#419,.T.);
#478=FACE_BOUND('',#420,.T.);
#479=FACE_BOUND('',#421,.T.);
#480=PLANE('',#802);
#481=PLANE('',#807);
#482=PLANE('',#809);
#483=PLANE('',#814);
#484=PLANE('',#827);
#485=PLANE('',#831);
#486=PLANE('',#834);
#487=PLANE('',#836);
#488=PLANE('',#847);
#489=PLANE('',#848);
#490=PLANE('',#850);
#491=STYLED_ITEM('',(#529),#759);
#492=STYLED_ITEM('',(#530),#760);
#493=STYLED_ITEM('',(#531),#761);
#494=STYLED_ITEM('',(#532),#762);
#495=STYLED_ITEM('',(#533),#763);
#496=STYLED_ITEM('',(#534),#764);
#497=STYLED_ITEM('',(#535),#765);
#498=STYLED_ITEM('',(#536),#766);
#499=STYLED_ITEM('',(#537),#767);
#500=STYLED_ITEM('',(#538),#768);
#501=STYLED_ITEM('',(#539),#769);
#502=STYLED_ITEM('',(#540),#770);
#503=STYLED_ITEM('',(#541),#771);
#504=STYLED_ITEM('',(#542),#772);
#505=STYLED_ITEM('',(#543),#773);
#506=STYLED_ITEM('',(#544),#774);
#507=STYLED_ITEM('',(#545),#775);
#508=STYLED_ITEM('',(#546),#776);
#509=STYLED_ITEM('',(#547),#777);
#510=STYLED_ITEM('',(#548),#778);
#511=STYLED_ITEM('',(#549),#779);
#512=STYLED_ITEM('',(#550),#780);
#513=STYLED_ITEM('',(#551),#781);
#514=STYLED_ITEM('',(#552),#782);
#515=STYLED_ITEM('',(#553),#783);
#516=STYLED_ITEM('',(#554),#784);
#517=STYLED_ITEM('',(#555),#785);
#518=STYLED_ITEM('',(#556),#786);
#519=STYLED_ITEM('',(#557),#787);
#520=STYLED_ITEM('',(#558),#788);
#521=STYLED_ITEM('',(#559),#789);
#522=STYLED_ITEM('',(#560),#790);
#523=STYLED_ITEM('',(#561),#791);
#524=STYLED_ITEM('',(#562),#792);
#525=STYLED_ITEM('',(#563),#793);
#526=STYLED_ITEM('',(#564),#794);
#527=STYLED_ITEM('',(#565),#795);
#528=STYLED_ITEM('',(#566),#796);
#529=PRESENTATION_STYLE_ASSIGNMENT((#567));
#530=PRESENTATION_STYLE_ASSIGNMENT((#568));
#531=PRESENTATION_STYLE_ASSIGNMENT((#569));
#532=PRESENTATION_STYLE_ASSIGNMENT((#570));
#533=PRESENTATION_STYLE_ASSIGNMENT((#571));
#534=PRESENTATION_STYLE_ASSIGNMENT((#572));
#535=PRESENTATION_STYLE_ASSIGNMENT((#573));
#536=PRESENTATION_STYLE_ASSIGNMENT((#574));
#537=PRESENTATION_STYLE_ASSIGNMENT((#575));
#538=PRESENTATION_STYLE_ASSIGNMENT((#576));
#539=PRESENTATION_STYLE_ASSIGNMENT((#577));
#540=PRESENTATION_STYLE_ASSIGNMENT((#578));
#541=PRESENTATION_STYLE_ASSIGNMENT((#579));
#542=PRESENTATION_STYLE_ASSIGNMENT((#580));
#543=PRESENTATION_STYLE_ASSIGNMENT((#581));
#544=PRESENTATION_STYLE_ASSIGNMENT((#582));
#545=PRESENTATION_STYLE_ASSIGNMENT((#583));
#546=PRESENTATION_STYLE_ASSIGNMENT((#584));
#547=PRESENTATION_STYLE_ASSIGNMENT((#585));
#548=PRESENTATION_STYLE_ASSIGNMENT((#586));
#549=PRESENTATION_STYLE_ASSIGNMENT((#587));
#550=PRESENTATION_STYLE_ASSIGNMENT((#588));
#551=PRESENTATION_STYLE_ASSIGNMENT((#589));
#552=PRESENTATION_STYLE_ASSIGNMENT((#590));
#553=PRESENTATION_STYLE_ASSIGNMENT((#591));
#554=PRESENTATION_STYLE_ASSIGNMENT((#592));
#555=PRESENTATION_STYLE_ASSIGNMENT((#593));
#556=PRESENTATION_STYLE_ASSIGNMENT((#594));
#557=PRESENTATION_STYLE_ASSIGNMENT((#595));
#558=PRESENTATION_STYLE_ASSIGNMENT((#596));
#559=PRESENTATION_STYLE_ASSIGNMENT((#597));
#560=PRESENTATION_STYLE_ASSIGNMENT((#598));
#561=PRESENTATION_STYLE_ASSIGNMENT((#599));
#562=PRESENTATION_STYLE_ASSIGNMENT((#600));
#563=PRESENTATION_STYLE_ASSIGNMENT((#601));
#564=PRESENTATION_STYLE_ASSIGNMENT((#602));
#565=PRESENTATION_STYLE_ASSIGNMENT((#603));
#566=PRESENTATION_STYLE_ASSIGNMENT((#604));
#567=SURFACE_STYLE_USAGE(.BOTH.,#605);
#568=SURFACE_STYLE_USAGE(.BOTH.,#606);
#569=SURFACE_STYLE_USAGE(.BOTH.,#607);
#570=SURFACE_STYLE_USAGE(.BOTH.,#608);
#571=SURFACE_STYLE_USAGE(.BOTH.,#609);
#572=SURFACE_STYLE_USAGE(.BOTH.,#610);
#573=SURFACE_STYLE_USAGE(.BOTH.,#611);
#574=SURFACE_STYLE_USAGE(.BOTH.,#612);
#575=SURFACE_STYLE_USAGE(.BOTH.,#613);
#576=SURFACE_STYLE_USAGE(.BOTH.,#614);
#577=SURFACE_STYLE_USAGE(.BOTH.,#615);
#578=SURFACE_STYLE_USAGE(.BOTH.,#616);
#579=SURFACE_STYLE_USAGE(.BOTH.,#617);
#580=SURFACE_STYLE_USAGE(.BOTH.,#618);
#581=SURFACE_STYLE_USAGE(.BOTH.,#619);
#582=SURFACE_STYLE_USAGE(.BOTH.,#620);
#583=SURFACE_STYLE_USAGE(.BOTH.,#621);
#584=SURFACE_STYLE_USAGE(.BOTH.,#622);
#585=SURFACE_STYLE_USAGE(.BOTH.,#623);
#586=SURFACE_STYLE_USAGE(.BOTH.,#624);
#587=SURFACE_STYLE_USAGE(.BOTH.,#625);
#588=SURFACE_STYLE_USAGE(.BOTH.,#626);
#589=SURFACE_STYLE_USAGE(.BOTH.,#627);
#590=SURFACE_STYLE_USAGE(.BOTH.,#628);
#591=SURFACE_STYLE_USAGE(.BOTH.,#629);
#592=SURFACE_STYLE_USAGE(.BOTH.,#630);
#593=SURFACE_STYLE_USAGE(.BOTH.,#631);
#594=SURFACE_STYLE_USAGE(.BOTH.,#632);
#595=SURFACE_STYLE_USAGE(.BOTH.,#633);
#596=SURFACE_STYLE_USAGE(.BOTH.,#634);
#597=SURFACE_STYLE_USAGE(.BOTH.,#635);
#598=SURFACE_STYLE_USAGE(.BOTH.,#636);
#599=SURFACE_STYLE_USAGE(.BOTH.,#637);
#600=SURFACE_STYLE_USAGE(.BOTH.,#638);
#601=SURFACE_STYLE_USAGE(.BOTH.,#639);
#602=SURFACE_STYLE_USAGE(.BOTH.,#640);
#603=SURFACE_STYLE_USAGE(.BOTH.,#641);
#604=SURFACE_STYLE_USAGE(.BOTH.,#642);
#605=SURFACE_SIDE_STYLE('',(#643));
#606=SURFACE_SIDE_STYLE('',(#644));
#607=SURFACE_SIDE_STYLE('',(#645));
#608=SURFACE_SIDE_STYLE('',(#646));
#609=SURFACE_SIDE_STYLE('',(#647));
#610=SURFACE_SIDE_STYLE('',(#648));
#611=SURFACE_SIDE_STYLE('',(#649));
#612=SURFACE_SIDE_STYLE('',(#650));
#613=SURFACE_SIDE_STYLE('',(#651));
#614=SURFACE_SIDE_STYLE('',(#652));
#615=SURFACE_SIDE_STYLE('',(#653));
#616=SURFACE_SIDE_STYLE('',(#654));
#617=SURFACE_SIDE_STYLE('',(#655));
#618=SURFACE_SIDE_STYLE('',(#656));
#619=SURFACE_SIDE_STYLE('',(#657));
#620=SURFACE_SIDE_STYLE('',(#658));
#621=SURFACE_SIDE_STYLE('',(#659));
#622=SURFACE_SIDE_STYLE('',(#660));
#623=SURFACE_SIDE_STYLE('',(#661));
#624=SURFACE_SIDE_STYLE('',(#662));
#625=SURFACE_SIDE_STYLE('',(#663));
#626=SURFACE_SIDE_STYLE('',(#664));
#627=SURFACE_SIDE_STYLE('',(#665));
#628=SURFACE_SIDE_STYLE('',(#666));
#629=SURFACE_SIDE_STYLE('',(#667));
#630=SURFACE_SIDE_STYLE('',(#668));
#631=SURFACE_SIDE_STYLE('',(#669));
#632=SURFACE_SIDE_STYLE('',(#670));
#633=SURFACE_SIDE_STYLE('',(#671));
#634=SURFACE_SIDE_STYLE('',(#672));
#635=SURFACE_SIDE_STYLE('',(#673));
#636=SURFACE_SIDE_STYLE('',(#674));
#637=SURFACE_SIDE_STYLE('',(#675));
#638=SURFACE_SIDE_STYLE('',(#676));
#639=SURFACE_SIDE_STYLE('',(#677));
#640=SURFACE_SIDE_STYLE('',(#678));
#641=SURFACE_SIDE_STYLE('',(#679));
#642=SURFACE_SIDE_STYLE('',(#680));
#643=SURFACE_STYLE_FILL_AREA(#681);
#644=SURFACE_STYLE_FILL_AREA(#682);
#645=SURFACE_STYLE_FILL_AREA(#683);
#646=SURFACE_STYLE_FILL_AREA(#684);
#647=SURFACE_STYLE_FILL_AREA(#685);
#648=SURFACE_STYLE_FILL_AREA(#686);
#649=SURFACE_STYLE_FILL_AREA(#687);
#650=SURFACE_STYLE_FILL_AREA(#688);
#651=SURFACE_STYLE_FILL_AREA(#689);
#652=SURFACE_STYLE_FILL_AREA(#690);
#653=SURFACE_STYLE_FILL_AREA(#691);
#654=SURFACE_STYLE_FILL_AREA(#692);
#655=SURFACE_STYLE_FILL_AREA(#693);
#656=SURFACE_STYLE_FILL_AREA(#694);
#657=SURFACE_STYLE_FILL_AREA(#695);
#658=SURFACE_STYLE_FILL_AREA(#696);
#659=SURFACE_STYLE_FILL_AREA(#697);
#660=SURFACE_STYLE_FILL_AREA(#698);
#661=SURFACE_STYLE_FILL_AREA(#699);
#662=SURFACE_STYLE_FILL_AREA(#700);
#663=SURFACE_STYLE_FILL_AREA(#701);
#664=SURFACE_STYLE_FILL_AREA(#702);
#665=SURFACE_STYLE_FILL_AREA(#703);
#666=SURFACE_STYLE_FILL_AREA(#704);
#667=SURFACE_STYLE_FILL_AREA(#705);
#668=SURFACE_STYLE_FILL_AREA(#706);
#669=SURFACE_STYLE_FILL_AREA(#707);
#670=SURFACE_STYLE_FILL_AREA(#708);
#671=SURFACE_STYLE_FILL_AREA(#709);
#672=SURFACE_STYLE_FILL_AREA(#710);
#673=SURFACE_STYLE_FILL_AREA(#711);
#674=SURFACE_STYLE_FILL_AREA(#712);
#675=SURFACE_STYLE_FILL_AREA(#713);
#676=SURFACE_STYLE_FILL_AREA(#714);
#677=SURFACE_STYLE_FILL_AREA(#715);
#678=SURFACE_STYLE_FILL_AREA(#716);
#679=SURFACE_STYLE_FILL_AREA(#717);
#680=SURFACE_STYLE_FILL_AREA(#718);
#681=FILL_AREA_STYLE('',(#719));
#682=FILL_AREA_STYLE('',(#720));
#683=FILL_AREA_STYLE('',(#721));
#684=FILL_AREA_STYLE('',(#722));
#685=FILL_AREA_STYLE('',(#723));
#686=FILL_AREA_STYLE('',(#724));
#687=FILL_AREA_STYLE('',(#725));
#688=FILL_AREA_STYLE('',(#726));
#689=FILL_AREA_STYLE('',(#727));
#690=FILL_AREA_STYLE('',(#728));
#691=FILL_AREA_STYLE('',(#729));
#692=FILL_AREA_STYLE('',(#730));
#693=FILL_AREA_STYLE('',(#731));
#694=FILL_AREA_STYLE('',(#732));
#695=FILL_AREA_STYLE('',(#733));
#696=FILL_AREA_STYLE('',(#734));
#697=FILL_AREA_STYLE('',(#735));
#698=FILL_AREA_STYLE('',(#736));
#699=FILL_AREA_STYLE('',(#737));
#700=FILL_AREA_STYLE('',(#738));
#701=FILL_AREA_STYLE('',(#739));
#702=FILL_AREA_STYLE('',(#740));
#703=FILL_AREA_STYLE('',(#741));
#704=FILL_AREA_STYLE('',(#742));
#705=FILL_AREA_STYLE('',(#743));
#706=FILL_AREA_STYLE('',(#744));
#707=FILL_AREA_STYLE('',(#745));
#708=FILL_AREA_STYLE('',(#746));
#709=FILL_AREA_STYLE('',(#747));
#710=FILL_AREA_STYLE('',(#748));
#711=FILL_AREA_STYLE('',(#749));
#712=FILL_AREA_STYLE('',(#750));
#713=FILL_AREA_STYLE('',(#751));
#714=FILL_AREA_STYLE('',(#752));
#715=FILL_AREA_STYLE('',(#753));
#716=FILL_AREA_STYLE('',(#754));
#717=FILL_AREA_STYLE('',(#755));
#718=FILL_AREA_STYLE('',(#756));
#719=FILL_AREA_STYLE_COLOUR('',#757);
#720=FILL_AREA_STYLE_COLOUR('',#757);
#721=FILL_AREA_STYLE_COLOUR('',#757);
#722=FILL_AREA_STYLE_COLOUR('',#757);
#723=FILL_AREA_STYLE_COLOUR('',#757);
#724=FILL_AREA_STYLE_COLOUR('',#757);
#725=FILL_AREA_STYLE_COLOUR('',#757);
#726=FILL_AREA_STYLE_COLOUR('',#757);
#727=FILL_AREA_STYLE_COLOUR('',#757);
#728=FILL_AREA_STYLE_COLOUR('',#757);
#729=FILL_AREA_STYLE_COLOUR('',#757);
#730=FILL_AREA_STYLE_COLOUR('',#757);
#731=FILL_AREA_STYLE_COLOUR('',#757);
#732=FILL_AREA_STYLE_COLOUR('',#757);
#733=FILL_AREA_STYLE_COLOUR('',#757);
#734=FILL_AREA_STYLE_COLOUR('',#757);
#735=FILL_AREA_STYLE_COLOUR('',#757);
#736=FILL_AREA_STYLE_COLOUR('',#757);
#737=FILL_AREA_STYLE_COLOUR('',#757);
#738=FILL_AREA_STYLE_COLOUR('',#757);
#739=FILL_AREA_STYLE_COLOUR('',#757);
#740=FILL_AREA_STYLE_COLOUR('',#757);
#741=FILL_AREA_STYLE_COLOUR('',#757);
#742=FILL_AREA_STYLE_COLOUR('',#757);
#743=FILL_AREA_STYLE_COLOUR('',#757);
#744=FILL_AREA_STYLE_COLOUR('',#757);
#745=FILL_AREA_STYLE_COLOUR('',#757);
#746=FILL_AREA_STYLE_COLOUR('',#758);
#747=FILL_AREA_STYLE_COLOUR('',#757);
#748=FILL_AREA_STYLE_COLOUR('',#757);
#749=FILL_AREA_STYLE_COLOUR('',#757);
#750=FILL_AREA_STYLE_COLOUR('',#757);
#751=FILL_AREA_STYLE_COLOUR('',#757);
#752=FILL_AREA_STYLE_COLOUR('',#757);
#753=FILL_AREA_STYLE_COLOUR('',#757);
#754=FILL_AREA_STYLE_COLOUR('',#757);
#755=FILL_AREA_STYLE_COLOUR('',#757);
#756=FILL_AREA_STYLE_COLOUR('',#757);
#757=COLOUR_RGB('',0.506983280181885,0.531564235687256,0.550000011920929);
#758=COLOUR_RGB('',0.1875,0.75,0.581249892711639);
#759=ADVANCED_FACE('',(#422,#423),#480,.T.);
#760=ADVANCED_FACE('',(#424,#425),#93,.F.);
#761=ADVANCED_FACE('',(#426,#427),#481,.T.);
#762=ADVANCED_FACE('',(#428,#429),#482,.T.);
#763=ADVANCED_FACE('',(#430,#431),#94,.F.);
#764=ADVANCED_FACE('',(#432,#433),#483,.T.);
#765=ADVANCED_FACE('',(#434,#435),#82,.F.);
#766=ADVANCED_FACE('',(#436,#437),#76,.T.);
#767=ADVANCED_FACE('',(#438,#439),#77,.T.);
#768=ADVANCED_FACE('',(#440,#441),#78,.T.);
#769=ADVANCED_FACE('',(#442,#443),#79,.T.);
#770=ADVANCED_FACE('',(#444,#445),#83,.F.);
#771=ADVANCED_FACE('',(#446),#484,.T.);
#772=ADVANCED_FACE('',(#447),#84,.T.);
#773=ADVANCED_FACE('',(#448),#485,.T.);
#774=ADVANCED_FACE('',(#449,#450),#85,.F.);
#775=ADVANCED_FACE('',(#451,#452),#486,.F.);
#776=ADVANCED_FACE('',(#453,#454),#487,.T.);
#777=ADVANCED_FACE('',(#455),#23,.T.);
#778=ADVANCED_FACE('',(#456),#24,.T.);
#779=ADVANCED_FACE('',(#457),#25,.T.);
#780=ADVANCED_FACE('',(#458),#26,.T.);
#781=ADVANCED_FACE('',(#459,#460),#86,.T.);
#782=ADVANCED_FACE('',(#461,#462),#87,.T.);
#783=ADVANCED_FACE('',(#463,#464),#488,.T.);
#784=ADVANCED_FACE('',(#465,#466),#489,.T.);
#785=ADVANCED_FACE('',(#467),#490,.F.);
#786=ADVANCED_FACE('',(#468,#469),#88,.F.);
#787=ADVANCED_FACE('',(#470),#89,.T.);
#788=ADVANCED_FACE('',(#471),#80,.T.);
#789=ADVANCED_FACE('',(#472),#90,.T.);
#790=ADVANCED_FACE('',(#473),#20,.T.);
#791=ADVANCED_FACE('',(#474),#21,.T.);
#792=ADVANCED_FACE('',(#475),#91,.T.);
#793=ADVANCED_FACE('',(#476),#81,.T.);
#794=ADVANCED_FACE('',(#477),#92,.T.);
#795=ADVANCED_FACE('',(#478),#22,.T.);
#796=ADVANCED_FACE('',(#479),#27,.T.);
#797=CLOSED_SHELL('',(#759,#760,#761,#762,#763,#764,#765,#766,#767,#768,
#769,#770,#771,#772,#773,#774,#775,#776,#777,#778,#779,#780,#781,#782,#783,
#784,#785,#786,#787,#788,#789,#790,#791,#792,#793,#794,#795,#796));
#798=MANIFOLD_SOLID_BREP('',#797);
#799=SHAPE_DEFINITION_REPRESENTATION(#1397,#800);
#800=SHAPE_REPRESENTATION('F\X2\578B518587BA7EB967467AEF517382828F74627F\X0\',
(#801),#1392);
#801=AXIS2_PLACEMENT_3D('',#1002,#863,#864);
#802=AXIS2_PLACEMENT_3D('',#1003,#865,#866);
#803=AXIS2_PLACEMENT_3D('',#1004,#867,#868);
#804=AXIS2_PLACEMENT_3D('',#1006,#869,#870);
#805=AXIS2_PLACEMENT_3D('',#1008,#871,#872);
#806=AXIS2_PLACEMENT_3D('',#1009,#873,#874);
#807=AXIS2_PLACEMENT_3D('',#1011,#875,#876);
#808=AXIS2_PLACEMENT_3D('',#1012,#877,#878);
#809=AXIS2_PLACEMENT_3D('',#1014,#879,#880);
#810=AXIS2_PLACEMENT_3D('',#1015,#881,#882);
#811=AXIS2_PLACEMENT_3D('',#1017,#883,#884);
#812=AXIS2_PLACEMENT_3D('',#1019,#885,#886);
#813=AXIS2_PLACEMENT_3D('',#1020,#887,#888);
#814=AXIS2_PLACEMENT_3D('',#1022,#889,#890);
#815=AXIS2_PLACEMENT_3D('',#1023,#891,#892);
#816=AXIS2_PLACEMENT_3D('',#1025,#893,#894);
#817=AXIS2_PLACEMENT_3D('',#1026,#895,#896);
#818=AXIS2_PLACEMENT_3D('',#1028,#897,#898);
#819=AXIS2_PLACEMENT_3D('',#1030,#899,#900);
#820=AXIS2_PLACEMENT_3D('',#1031,#901,#902);
#821=AXIS2_PLACEMENT_3D('',#1033,#903,#904);
#822=AXIS2_PLACEMENT_3D('',#1034,#905,#906);
#823=AXIS2_PLACEMENT_3D('',#1036,#907,#908);
#824=AXIS2_PLACEMENT_3D('',#1037,#909,#910);
#825=AXIS2_PLACEMENT_3D('',#1038,#911,#912);
#826=AXIS2_PLACEMENT_3D('',#1039,#913,#914);
#827=AXIS2_PLACEMENT_3D('',#1041,#915,#916);
#828=AXIS2_PLACEMENT_3D('',#1050,#921,#922);
#829=AXIS2_PLACEMENT_3D('',#1054,#924,#925);
#830=AXIS2_PLACEMENT_3D('',#1055,#926,#927);
#831=AXIS2_PLACEMENT_3D('',#1056,#928,#929);
#832=AXIS2_PLACEMENT_3D('',#1062,#933,#934);
#833=AXIS2_PLACEMENT_3D('',#1063,#935,#936);
#834=AXIS2_PLACEMENT_3D('',#1065,#937,#938);
#835=AXIS2_PLACEMENT_3D('',#1071,#941,#942);
#836=AXIS2_PLACEMENT_3D('',#1074,#944,#945);
#837=AXIS2_PLACEMENT_3D('',#1085,#948,#949);
#838=AXIS2_PLACEMENT_3D('',#1153,#952,#953);
#839=AXIS2_PLACEMENT_3D('',#1189,#954,#955);
#840=AXIS2_PLACEMENT_3D('',#1226,#956,#957);
#841=AXIS2_PLACEMENT_3D('',#1264,#958,#959);
#842=AXIS2_PLACEMENT_3D('',#1274,#960,#961);
#843=AXIS2_PLACEMENT_3D('',#1275,#962,#963);
#844=AXIS2_PLACEMENT_3D('',#1277,#964,#965);
#845=AXIS2_PLACEMENT_3D('',#1278,#966,#967);
#846=AXIS2_PLACEMENT_3D('',#1280,#968,#969);
#847=AXIS2_PLACEMENT_3D('',#1282,#970,#971);
#848=AXIS2_PLACEMENT_3D('',#1283,#972,#973);
#849=AXIS2_PLACEMENT_3D('',#1284,#974,#975);
#850=AXIS2_PLACEMENT_3D('',#1286,#976,#977);
#851=AXIS2_PLACEMENT_3D('',#1287,#978,#979);
#852=AXIS2_PLACEMENT_3D('',#1289,#980,#981);
#853=AXIS2_PLACEMENT_3D('',#1290,#982,#983);
#854=AXIS2_PLACEMENT_3D('',#1291,#984,#985);
#855=AXIS2_PLACEMENT_3D('',#1292,#986,#987);
#856=AXIS2_PLACEMENT_3D('',#1293,#988,#989);
#857=AXIS2_PLACEMENT_3D('',#1294,#990,#991);
#858=AXIS2_PLACEMENT_3D('',#1335,#992,#993);
#859=AXIS2_PLACEMENT_3D('',#1336,#994,#995);
#860=AXIS2_PLACEMENT_3D('',#1337,#996,#997);
#861=AXIS2_PLACEMENT_3D('',#1338,#998,#999);
#862=AXIS2_PLACEMENT_3D('',#1339,#1000,#1001);
#863=DIRECTION('',(0.,0.,1.));
#864=DIRECTION('',(1.,0.,0.));
#865=DIRECTION('',(-6.12303176911189E-17,-1.,0.));
#866=DIRECTION('',(1.,-6.12303176911189E-17,0.));
#867=DIRECTION('',(-6.12303176911189E-17,-1.,0.));
#868=DIRECTION('',(1.,-6.12303176911189E-17,0.));
#869=DIRECTION('',(-6.12303176911189E-17,-1.,0.));
#870=DIRECTION('',(1.,-6.12303176911189E-17,0.));
#871=DIRECTION('',(-6.12303176911189E-17,-1.,0.));
#872=DIRECTION('',(1.,-6.12303176911189E-17,0.));
#873=DIRECTION('',(-6.12303176911189E-17,-1.,0.));
#874=DIRECTION('',(1.,-6.12303176911189E-17,0.));
#875=DIRECTION('',(-6.12303176911189E-17,-1.,0.));
#876=DIRECTION('',(1.,-6.12303176911189E-17,0.));
#877=DIRECTION('',(-6.12303176911189E-17,-1.,0.));
#878=DIRECTION('',(1.,-6.12303176911189E-17,0.));
#879=DIRECTION('',(6.12303176911189E-17,1.,0.));
#880=DIRECTION('',(-1.,6.12303176911189E-17,0.));
#881=DIRECTION('',(6.12303176911189E-17,1.,0.));
#882=DIRECTION('',(-1.,6.12303176911189E-17,0.));
#883=DIRECTION('',(-6.12303176911189E-17,-1.,0.));
#884=DIRECTION('',(1.,-6.12303176911189E-17,0.));
#885=DIRECTION('',(-6.12303176911189E-17,-1.,0.));
#886=DIRECTION('',(1.,-6.12303176911189E-17,0.));
#887=DIRECTION('',(-6.12303176911189E-17,-1.,0.));
#888=DIRECTION('',(1.,-6.12303176911189E-17,0.));
#889=DIRECTION('',(6.12303176911189E-17,1.,0.));
#890=DIRECTION('',(-1.,6.12303176911189E-17,0.));
#891=DIRECTION('',(6.12303176911189E-17,1.,0.));
#892=DIRECTION('',(-1.,6.12303176911189E-17,0.));
#893=DIRECTION('',(-6.12303176911189E-17,-1.,0.));
#894=DIRECTION('',(1.,-6.12303176911189E-17,0.));
#895=DIRECTION('',(6.12303176911189E-17,1.,0.));
#896=DIRECTION('',(-1.,6.12303176911189E-17,0.));
#897=DIRECTION('',(-6.12303176911189E-17,-1.,0.));
#898=DIRECTION('',(1.,-6.12303176911189E-17,0.));
#899=DIRECTION('',(-6.12303176911189E-17,-1.,0.));
#900=DIRECTION('',(1.,-6.12303176911189E-17,0.));
#901=DIRECTION('',(-6.12303176911189E-17,-1.,0.));
#902=DIRECTION('',(1.,-6.12303176911189E-17,0.));
#903=DIRECTION('',(6.12303176911189E-17,1.,0.));
#904=DIRECTION('',(-1.,6.12303176911189E-17,0.));
#905=DIRECTION('',(6.12303176911189E-17,1.,0.));
#906=DIRECTION('',(-1.,6.12303176911189E-17,0.));
#907=DIRECTION('',(-6.12303176911189E-17,-1.,0.));
#908=DIRECTION('',(1.,-6.12303176911189E-17,0.));
#909=DIRECTION('',(6.12303176911189E-17,1.,0.));
#910=DIRECTION('',(-1.,6.12303176911189E-17,0.));
#911=DIRECTION('',(0.,1.,0.));
#912=DIRECTION('',(0.,0.,1.));
#913=DIRECTION('',(0.,-1.,0.));
#914=DIRECTION('',(1.,0.,0.));
#915=DIRECTION('',(-0.965547144561204,0.,-0.260228191458393));
#916=DIRECTION('',(-0.260228191458393,0.,0.965547144561204));
#917=DIRECTION('',(0.,1.,0.));
#918=DIRECTION('',(-0.260228191458393,0.,0.965547144561204));
#919=DIRECTION('',(0.,1.,0.));
#920=DIRECTION('',(-0.260228191458393,0.,0.965547144561204));
#921=DIRECTION('',(0.,1.,0.));
#922=DIRECTION('',(0.,0.,1.));
#923=DIRECTION('',(0.,1.,0.));
#924=DIRECTION('',(0.,1.,0.));
#925=DIRECTION('',(0.,0.,1.));
#926=DIRECTION('',(0.,1.,0.));
#927=DIRECTION('',(0.,0.,1.));
#928=DIRECTION('',(0.965547144561204,0.,-0.260228191458393));
#929=DIRECTION('',(-0.260228191458393,0.,-0.965547144561204));
#930=DIRECTION('',(0.,1.,0.));
#931=DIRECTION('',(-0.260228191458393,0.,-0.965547144561204));
#932=DIRECTION('',(-0.260228191458393,0.,-0.965547144561204));
#933=DIRECTION('',(0.,1.,0.));
#934=DIRECTION('',(0.,0.,1.));
#935=DIRECTION('',(0.,-1.,0.));
#936=DIRECTION('',(1.,0.,0.));
#937=DIRECTION('',(0.,1.,0.));
#938=DIRECTION('',(0.,0.,1.));
#939=DIRECTION('',(-1.,0.,5.12371316071427E-16));
#940=DIRECTION('',(-0.260228191458393,0.,-0.965547144561204));
#941=DIRECTION('',(0.,1.,0.));
#942=DIRECTION('',(0.,0.,1.));
#943=DIRECTION('',(-0.260228191458393,0.,0.965547144561204));
#944=DIRECTION('',(0.,1.,0.));
#945=DIRECTION('',(0.,0.,1.));
#946=DIRECTION('',(-1.,0.,-2.56185658035714E-16));
#947=DIRECTION('',(-0.260228191458393,0.,0.965547144561204));
#948=DIRECTION('',(0.,1.,0.));
#949=DIRECTION('',(0.,0.,1.));
#950=DIRECTION('',(-0.260228191458393,0.,-0.965547144561204));
#951=DIRECTION('',(-0.314692795087038,0.00945046064553921,-0.949146529000604));
#952=DIRECTION('',(0.,0.,-1.));
#953=DIRECTION('',(1.,0.,0.));
#954=DIRECTION('',(0.,0.,-1.));
#955=DIRECTION('',(1.,0.,0.));
#956=DIRECTION('',(0.,0.,-1.));
#957=DIRECTION('',(1.,0.,0.));
#958=DIRECTION('',(0.,0.,-1.));
#959=DIRECTION('',(1.,0.,0.));
#960=DIRECTION('',(0.,0.,1.));
#961=DIRECTION('',(1.,0.,0.));
#962=DIRECTION('',(0.,0.,1.));
#963=DIRECTION('',(1.,0.,0.));
#964=DIRECTION('',(0.,0.,-1.));
#965=DIRECTION('',(-1.,0.,0.));
#966=DIRECTION('',(0.,0.,1.));
#967=DIRECTION('',(1.,0.,0.));
#968=DIRECTION('',(0.,0.,1.));
#969=DIRECTION('',(1.,0.,0.));
#970=DIRECTION('',(0.,0.,1.));
#971=DIRECTION('',(1.,0.,0.));
#972=DIRECTION('',(0.,0.,-1.));
#973=DIRECTION('',(-1.,0.,0.));
#974=DIRECTION('',(0.,0.,1.));
#975=DIRECTION('',(0.,1.,0.));
#976=DIRECTION('',(0.,0.,1.));
#977=DIRECTION('',(1.,0.,0.));
#978=DIRECTION('',(0.,0.,-1.));
#979=DIRECTION('',(0.,1.,0.));
#980=DIRECTION('',(0.,0.,1.));
#981=DIRECTION('',(0.,1.,0.));
#982=DIRECTION('',(0.260228191458393,0.,0.965547144561204));
#983=DIRECTION('',(0.965547144561204,0.,-0.260228191458393));
#984=DIRECTION('',(0.260228191458394,0.,0.965547144561203));
#985=DIRECTION('',(0.965547144561203,0.,-0.260228191458394));
#986=DIRECTION('',(0.,1.,0.));
#987=DIRECTION('',(0.,0.,1.));
#988=DIRECTION('',(0.260228191458394,0.,-0.965547144561203));
#989=DIRECTION('',(-0.965547144561203,0.,-0.260228191458394));
#990=DIRECTION('',(0.260228191458393,0.,-0.965547144561204));
#991=DIRECTION('',(-0.965547144561204,0.,-0.260228191458393));
#992=DIRECTION('',(-0.260228191458393,0.,-0.965547144561204));
#993=DIRECTION('',(-0.965547144561204,0.,0.260228191458393));
#994=DIRECTION('',(0.260228191458394,0.,0.965547144561203));
#995=DIRECTION('',(0.965547144561203,0.,-0.260228191458394));
#996=DIRECTION('',(0.,1.,0.));
#997=DIRECTION('',(0.,0.,1.));
#998=DIRECTION('',(0.260228191458391,2.57369797721659E-15,-0.965547144561204));
#999=DIRECTION('',(-0.965547144561204,0.,-0.260228191458391));
#1000=DIRECTION('',(-0.260228191458393,0.,0.965547144561204));
#1001=DIRECTION('',(0.965547144561204,0.,0.260228191458393));
#1002=CARTESIAN_POINT('',(0.,0.,0.));
#1003=CARTESIAN_POINT('',(-3.06151588455594E-16,-5.,6.));
#1004=CARTESIAN_POINT('',(-3.06151588455594E-16,-5.,0.));
#1005=CARTESIAN_POINT('',(6.3,-5.,0.));
#1006=CARTESIAN_POINT('',(-3.06151588455595E-16,-5.00000000000001,0.));
#1007=CARTESIAN_POINT('',(7.49999999999999,-5.00000000000001,0.));
#1008=CARTESIAN_POINT('',(0.,0.,0.));
#1009=CARTESIAN_POINT('',(-2.14306111918916E-16,-3.5,0.));
#1010=CARTESIAN_POINT('',(8.29860823437306,-3.5,0.));
#1011=CARTESIAN_POINT('',(-2.14306111918916E-16,-3.5,11.));
#1012=CARTESIAN_POINT('',(-2.14306111918916E-16,-3.5,0.));
#1013=CARTESIAN_POINT('',(10.7,-3.5,0.));
#1014=CARTESIAN_POINT('',(2.14306111918916E-16,3.5,11.));
#1015=CARTESIAN_POINT('',(2.14306111918916E-16,3.5,0.));
#1016=CARTESIAN_POINT('',(-10.7,3.5,0.));
#1017=CARTESIAN_POINT('',(2.14306111918916E-16,3.5,0.));
#1018=CARTESIAN_POINT('',(8.29860823437306,3.5,0.));
#1019=CARTESIAN_POINT('',(0.,0.,0.));
#1020=CARTESIAN_POINT('',(3.06151588455594E-16,5.,0.));
#1021=CARTESIAN_POINT('',(7.5,4.99999999999999,0.));
#1022=CARTESIAN_POINT('',(3.06151588455594E-16,5.,6.));
#1023=CARTESIAN_POINT('',(3.06151588455594E-16,5.,0.));
#1024=CARTESIAN_POINT('',(-6.3,5.,0.));
#1025=CARTESIAN_POINT('',(0.,0.,0.));
#1026=CARTESIAN_POINT('',(2.87782493148259E-16,4.7,0.));
#1027=CARTESIAN_POINT('',(-6.,4.7,0.));
#1028=CARTESIAN_POINT('',(-2.87782493148259E-16,-4.7,0.));
#1029=CARTESIAN_POINT('',(6.,-4.7,0.));
#1030=CARTESIAN_POINT('',(-1.9593701661158E-16,-3.2,0.));
#1031=CARTESIAN_POINT('',(-1.9593701661158E-16,-3.2,0.));
#1032=CARTESIAN_POINT('',(11.,-3.2,0.));
#1033=CARTESIAN_POINT('',(1.9593701661158E-16,3.2,0.));
#1034=CARTESIAN_POINT('',(1.9593701661158E-16,3.2,0.));
#1035=CARTESIAN_POINT('',(-11.,3.2,0.));
#1036=CARTESIAN_POINT('',(-2.87782493148259E-16,-4.7,0.));
#1037=CARTESIAN_POINT('',(2.87782493148259E-16,4.7,0.));
#1038=CARTESIAN_POINT('',(0.,-4.25,0.));
#1039=CARTESIAN_POINT('',(0.,4.25,0.));
#1040=CARTESIAN_POINT('',(11.,4.25,0.));
#1041=CARTESIAN_POINT('',(-16.8970750298211,-4.25,-4.55399335052186));
#1042=CARTESIAN_POINT('',(-16.8970750298211,-4.25,-4.55399335052185));
#1043=CARTESIAN_POINT('',(-16.8970750298211,-3.95,-4.55399335052185));
#1044=CARTESIAN_POINT('',(-16.8970750298211,3.95,-4.55399335052185));
#1045=CARTESIAN_POINT('',(-16.8970750298211,3.95,-4.55399335052186));
#1046=CARTESIAN_POINT('',(-13.5427056243326,3.95,-17.));
#1047=CARTESIAN_POINT('',(-13.5427056243326,-4.25,-17.));
#1048=CARTESIAN_POINT('',(-13.5427056243326,-3.95,-17.));
#1049=CARTESIAN_POINT('',(-16.8970750298211,-3.95,-4.55399335052185));
#1050=CARTESIAN_POINT('',(0.,-4.25,0.));
#1051=CARTESIAN_POINT('',(16.8970750298211,-4.25,-4.55399335052187));
#1052=CARTESIAN_POINT('',(16.8970750298211,-3.95,-4.55399335052187));
#1053=CARTESIAN_POINT('',(16.8970750298211,3.95,-4.55399335052187));
#1054=CARTESIAN_POINT('',(0.,3.95,0.));
#1055=CARTESIAN_POINT('',(0.,-3.95,0.));
#1056=CARTESIAN_POINT('',(16.8970750298211,-4.25,-4.55399335052187));
#1057=CARTESIAN_POINT('',(13.5427056243326,-4.25,-17.));
#1058=CARTESIAN_POINT('',(13.5427056243326,-3.95,-17.));
#1059=CARTESIAN_POINT('',(13.5427056243326,3.95,-17.));
#1060=CARTESIAN_POINT('',(16.8970750298211,3.95,-4.55399335052187));
#1061=CARTESIAN_POINT('',(13.5427056243326,-3.95,-17.));
#1062=CARTESIAN_POINT('',(0.,-4.25,0.));
#1063=CARTESIAN_POINT('',(0.,-4.25,0.));
#1064=CARTESIAN_POINT('',(11.,-4.25,0.));
#1065=CARTESIAN_POINT('',(0.,-4.25,0.));
#1066=CARTESIAN_POINT('',(13.5427056243326,-4.25,-17.));
#1067=CARTESIAN_POINT('',(13.2320009614999,-4.25,-17.));
#1068=CARTESIAN_POINT('',(-13.2320009614999,-4.25,-17.));
#1069=CARTESIAN_POINT('',(16.6074108864527,-4.25,-4.47592489308435));
#1070=CARTESIAN_POINT('',(16.6074108864527,-4.25,-4.47592489308435));
#1071=CARTESIAN_POINT('',(0.,-4.25,0.));
#1072=CARTESIAN_POINT('',(-16.6074108864527,-4.25,-4.47592489308433));
#1073=CARTESIAN_POINT('',(-13.2530414809643,-4.25,-16.9219315425625));
#1074=CARTESIAN_POINT('',(0.,4.25,0.));
#1075=CARTESIAN_POINT('',(-13.5427056243326,4.25,-17.));
#1076=CARTESIAN_POINT('',(13.2320009614999,4.25,-17.));
#1077=CARTESIAN_POINT('',(-13.2271776921322,4.25,-17.));
#1078=CARTESIAN_POINT('',(-13.2273027569871,4.25,-17.));
#1079=CARTESIAN_POINT('',(-13.2365399282944,4.25,-16.971538630505));
#1080=CARTESIAN_POINT('',(-13.2457766744113,4.25000000000003,-16.9430771230209));
#1081=CARTESIAN_POINT('',(-13.2550129978452,4.25000000000003,-16.9146154783615));
#1082=CARTESIAN_POINT('',(-13.2550132394278,4.25,-16.9146155567595));
#1083=CARTESIAN_POINT('',(-16.6074108864527,4.25,-4.47592489308435));
#1084=CARTESIAN_POINT('',(-16.6074108864527,4.25,-4.47592489308433));
#1085=CARTESIAN_POINT('',(0.,4.25,0.));
#1086=CARTESIAN_POINT('',(16.6074108864527,4.25,-4.47592489308435));
#1087=CARTESIAN_POINT('',(16.6074108864527,4.25,-4.47592489308436));
#1088=CARTESIAN_POINT('',(13.5427056243326,-4.25,-17.));
#1089=CARTESIAN_POINT('',(8.56940405068007,-4.1006480239333,-32.));
#1090=CARTESIAN_POINT('',(12.4141468223049,-4.25,-17.));
#1091=CARTESIAN_POINT('',(8.16082043532187,-4.95449309136087,-32.));
#1092=CARTESIAN_POINT('',(11.2855880202772,-4.25,-17.));
#1093=CARTESIAN_POINT('',(7.6238004246482,-5.74661206473491,-32.));
#1094=CARTESIAN_POINT('',(9.02847041622175,-4.25,-17.));
#1095=CARTESIAN_POINT('',(6.34008395522176,-7.13787213237689,-32.));
#1096=CARTESIAN_POINT('',(7.89991161419403,-4.25,-17.));
#1097=CARTESIAN_POINT('',(5.59358235640548,-7.73677707831447,-32.));
#1098=CARTESIAN_POINT('',(5.64279401013859,-4.25,-17.));
#1099=CARTESIAN_POINT('',(3.95710312492549,-8.68833804568676,-32.));
#1100=CARTESIAN_POINT('',(4.51423520811087,-4.25,-17.));
#1101=CARTESIAN_POINT('',(3.06734226489966,-9.0408680206816,-32.));
#1102=CARTESIAN_POINT('',(2.25711760405544,-4.25,-17.));
#1103=CARTESIAN_POINT('',(1.22321831695941,-9.46834832938026,-32.));
#1104=CARTESIAN_POINT('',(1.12855880202772,-4.25,-17.));
#1105=CARTESIAN_POINT('',(0.269099506885553,-9.54324203784107,-32.));
#1106=CARTESIAN_POINT('',(-1.12855880202772,-4.25,-17.));
#1107=CARTESIAN_POINT('',(-1.61913780434594,-9.40873402259628,-32.));
#1108=CARTESIAN_POINT('',(-2.25711760405544,-4.25,-17.));
#1109=CARTESIAN_POINT('',(-2.55300618428294,-9.19935011620038,-32.));
#1110=CARTESIAN_POINT('',(-4.51423520811088,-4.25,-17.));
#1111=CARTESIAN_POINT('',(-4.31791366554593,-8.51478154237175,-32.));
#1112=CARTESIAN_POINT('',(-5.6427940101386,-4.25,-17.));
#1113=CARTESIAN_POINT('',(-5.14871898226714,-8.0396875548161,-32.));
#1114=CARTESIAN_POINT('',(-7.89991161419403,-4.25,-17.));
#1115=CARTESIAN_POINT('',(-6.63378995788432,-6.86576390011309,-32.));
#1116=CARTESIAN_POINT('',(-9.02847041622175,-4.25,-17.));
#1117=CARTESIAN_POINT('',(-7.28785890010545,-6.16708973419203,-32.));
#1118=CARTESIAN_POINT('',(-11.2855880202772,-4.25,-17.));
#1119=CARTESIAN_POINT('',(-8.36140175224063,-4.60791100988834,-32.));
#1120=CARTESIAN_POINT('',(-12.4141468223049,-4.25,-17.));
#1121=CARTESIAN_POINT('',(-8.78071624387145,-3.74766783673816,-32.));
#1122=CARTESIAN_POINT('',(-13.5427056243326,-4.25,-17.));
#1123=CARTESIAN_POINT('',(-9.06414154984394,-2.84452772255655,-32.));
#1124=CARTESIAN_POINT('',(11.0560548375063,-4.17532401196665,-24.5));
#1125=CARTESIAN_POINT('',(12.5899387701383,-4.22138769682526,-19.8736449220429));
#1126=CARTESIAN_POINT('',(8.56943105627776,-4.10066093460768,-32.));
#1127=CARTESIAN_POINT('',(12.5899387701383,-4.22138769682526,-19.8736449220429));
#1128=CARTESIAN_POINT('',(12.6308609472561,-4.22788267596518,-19.6688327401194));
#1129=CARTESIAN_POINT('',(12.6986792411375,-4.23703801331971,-19.3201670237673));
#1130=CARTESIAN_POINT('',(12.7412650932616,-4.24153817899785,-19.0956362914541));
#1131=CARTESIAN_POINT('',(12.7669701290872,-4.24491409000834,-18.9378768015904));
#1132=CARTESIAN_POINT('',(12.7781329210406,-4.24560412542094,-18.8807125155833));
#1133=CARTESIAN_POINT('',(12.8044010561322,-4.24639366470143,-18.7650623486838));
#1134=CARTESIAN_POINT('',(12.8304664138952,-4.24697790668076,-18.6532769342473));
#1135=CARTESIAN_POINT('',(12.8599488147409,-4.24751342072141,-18.5287228941349));
#1136=CARTESIAN_POINT('',(12.8706764418636,-4.24767969373932,-18.4837805823988));
#1137=CARTESIAN_POINT('',(12.8934365151749,-4.24802414742483,-18.3885213569242));
#1138=CARTESIAN_POINT('',(12.9340234403484,-4.24854905434762,-18.2197165397635));
#1139=CARTESIAN_POINT('',(13.0334395748677,-4.2495263021872,-17.8093651251398));
#1140=CARTESIAN_POINT('',(13.1451793889313,-4.25,-17.3529871509193));
#1141=CARTESIAN_POINT('',(13.2320009614999,-4.25,-17.));
#1142=CARTESIAN_POINT('',(-13.2320009614999,-4.25,-17.));
#1143=CARTESIAN_POINT('',(-13.2335825113167,-4.25,-17.));
#1144=CARTESIAN_POINT('',(-13.2351489809004,-4.24998835653733,-17.0001508549678));
#1145=CARTESIAN_POINT('',(-13.23669894194,-4.24996384230987,-17.0004668433553));
#1146=CARTESIAN_POINT('',(-13.23669894194,-4.24996384230986,-17.0004668433554));
#1147=CARTESIAN_POINT('',(-13.23669894194,-4.24996384230986,-17.0004668433554));
#1148=CARTESIAN_POINT('',(-12.543722124842,-4.05600538624989,-19.5047202903864));
#1149=CARTESIAN_POINT('',(-11.195185147328,-3.65537134447816,-24.5227448407318));
#1150=CARTESIAN_POINT('',(-9.79556040818912,-3.11242335161565,-29.5135628923929));
#1151=CARTESIAN_POINT('',(-9.06414154984394,-2.84452772255655,-32.));
#1152=CARTESIAN_POINT('',(-9.06419207909468,-2.84454358800241,-32.));
#1153=CARTESIAN_POINT('',(0.,0.,-32.));
#1154=CARTESIAN_POINT('',(13.5427056243326,4.25,-17.));
#1155=CARTESIAN_POINT('',(9.06414154984394,2.84452772255655,-32.));
#1156=CARTESIAN_POINT('',(13.5427056243326,2.83333333333333,-17.));
#1157=CARTESIAN_POINT('',(9.41995390817405,1.71072489282376,-32.));
#1158=CARTESIAN_POINT('',(13.5427056243326,1.41666666666667,-17.));
#1159=CARTESIAN_POINT('',(9.56041119950963,0.510121959013443,-32.));
#1160=CARTESIAN_POINT('',(13.5427056243326,-1.41666666666667,-17.));
#1161=CARTESIAN_POINT('',(9.39156486092771,-1.86016025647384,-32.));
#1162=CARTESIAN_POINT('',(13.5427056243326,-2.83333333333334,-17.));
#1163=CARTESIAN_POINT('',(9.08234025183127,-3.02873023576152,-32.));
#1164=CARTESIAN_POINT('',(13.5427056243326,-4.25,-17.));
#1165=CARTESIAN_POINT('',(8.56940405068007,-4.1006480239333,-32.));
#1166=CARTESIAN_POINT('',(9.06414154984393,2.84452772255655,-32.));
#1167=CARTESIAN_POINT('',(10.576406666574,3.24210260375132,-27.0086730348874));
#1168=CARTESIAN_POINT('',(12.0710397054528,3.58998365031382,-22.008217022293));
#1169=CARTESIAN_POINT('',(13.5420759603661,3.95549617552817,-17.0021428095117));
#1170=CARTESIAN_POINT('',(9.06419207909485,2.84454358800247,-32.));
#1171=CARTESIAN_POINT('',(13.5420759603661,3.95549617552817,-17.0021428095117));
#1172=CARTESIAN_POINT('',(13.5420759603661,3.95549617552817,-17.0021428095117));
#1173=CARTESIAN_POINT('',(13.542435711065,3.95392354859532,-17.0009187300746));
#1174=CARTESIAN_POINT('',(13.5427056243326,3.95203618514512,-17.));
#1175=CARTESIAN_POINT('',(13.5427056243326,3.95,-17.));
#1176=CARTESIAN_POINT('',(13.5427056243326,-3.95,-17.));
#1177=CARTESIAN_POINT('',(13.5427056243326,-3.98288184656414,-17.));
#1178=CARTESIAN_POINT('',(13.5162209047974,-3.99883678651624,-17.0814007159643));
#1179=CARTESIAN_POINT('',(13.4815998666905,-4.03193446281496,-17.1872882710441));
#1180=CARTESIAN_POINT('',(13.4306687704845,-4.05556926778347,-17.3427387854807));
#1181=CARTESIAN_POINT('',(13.3720707566275,-4.07998398940292,-17.5209591749988));
#1182=CARTESIAN_POINT('',(13.2925858168561,-4.10607389990185,-17.7621498205354));
#1183=CARTESIAN_POINT('',(13.1930888823686,-4.13237775073278,-18.0631010813633));
#1184=CARTESIAN_POINT('',(13.0730009018079,-4.15758265503948,-18.4251615233264));
#1185=CARTESIAN_POINT('',(12.9526188911813,-4.178334713212,-18.7871504733106));
#1186=CARTESIAN_POINT('',(12.7917151953192,-4.2013335240167,-19.2699582429884));
#1187=CARTESIAN_POINT('',(12.6707030828686,-4.21425632175175,-19.6321438513429));
#1188=CARTESIAN_POINT('',(12.5899387701383,-4.22138769682526,-19.8736449220429));
#1189=CARTESIAN_POINT('',(0.,0.,-32.));
#1190=CARTESIAN_POINT('',(-13.5427056243326,4.25,-17.));
#1191=CARTESIAN_POINT('',(-8.56940405068007,4.1006480239333,-32.));
#1192=CARTESIAN_POINT('',(-12.4141468223049,4.25,-17.));
#1193=CARTESIAN_POINT('',(-8.16082043532187,4.95449309136087,-32.));
#1194=CARTESIAN_POINT('',(-11.2855880202772,4.25,-17.));
#1195=CARTESIAN_POINT('',(-7.6238004246482,5.74661206473491,-32.));
#1196=CARTESIAN_POINT('',(-9.02847041622176,4.25,-17.));
#1197=CARTESIAN_POINT('',(-6.34008395522176,7.13787213237688,-32.));
#1198=CARTESIAN_POINT('',(-7.89991161419403,4.25,-17.));
#1199=CARTESIAN_POINT('',(-5.59358235640548,7.73677707831447,-32.));
#1200=CARTESIAN_POINT('',(-5.6427940101386,4.25,-17.));
#1201=CARTESIAN_POINT('',(-3.95710312492549,8.68833804568675,-32.));
#1202=CARTESIAN_POINT('',(-4.51423520811088,4.25,-17.));
#1203=CARTESIAN_POINT('',(-3.06734226489966,9.0408680206816,-32.));
#1204=CARTESIAN_POINT('',(-2.25711760405544,4.25,-17.));
#1205=CARTESIAN_POINT('',(-1.22321831695941,9.46834832938026,-32.));
#1206=CARTESIAN_POINT('',(-1.12855880202772,4.25,-17.));
#1207=CARTESIAN_POINT('',(-0.269099506885549,9.54324203784107,-32.));
#1208=CARTESIAN_POINT('',(1.12855880202772,4.25,-17.));
#1209=CARTESIAN_POINT('',(1.61913780434594,9.40873402259628,-32.));
#1210=CARTESIAN_POINT('',(2.25711760405544,4.25,-17.));
#1211=CARTESIAN_POINT('',(2.55300618428294,9.19935011620038,-32.));
#1212=CARTESIAN_POINT('',(4.51423520811088,4.25,-17.));
#1213=CARTESIAN_POINT('',(4.31791366554593,8.51478154237175,-32.));
#1214=CARTESIAN_POINT('',(5.64279401013859,4.25,-17.));
#1215=CARTESIAN_POINT('',(5.14871898226715,8.0396875548161,-32.));
#1216=CARTESIAN_POINT('',(7.89991161419403,4.25,-17.));
#1217=CARTESIAN_POINT('',(6.63378995788433,6.86576390011308,-32.));
#1218=CARTESIAN_POINT('',(9.02847041622175,4.25,-17.));
#1219=CARTESIAN_POINT('',(7.28785890010546,6.16708973419202,-32.));
#1220=CARTESIAN_POINT('',(11.2855880202772,4.25,-17.));
#1221=CARTESIAN_POINT('',(8.36140175224064,4.60791100988833,-32.));
#1222=CARTESIAN_POINT('',(12.4141468223049,4.25,-17.));
#1223=CARTESIAN_POINT('',(8.78071624387145,3.74766783673816,-32.));
#1224=CARTESIAN_POINT('',(13.5427056243326,4.25,-17.));
#1225=CARTESIAN_POINT('',(9.06414154984394,2.84452772255655,-32.));
#1226=CARTESIAN_POINT('',(0.,0.,-32.));
#1227=CARTESIAN_POINT('',(-8.56943105627778,4.10066093460767,-32.));
#1228=CARTESIAN_POINT('',(-8.56940405068006,4.1006480239333,-32.));
#1229=CARTESIAN_POINT('',(-9.37756462819945,4.16133936031349,-29.5106811045607));
#1230=CARTESIAN_POINT('',(-10.9379726523012,4.27582448279546,-24.5135474634207));
#1231=CARTESIAN_POINT('',(-12.4559859652745,4.26468957114933,-19.5020022814411));
#1232=CARTESIAN_POINT('',(-13.2267311108087,4.25,-17.));
#1233=CARTESIAN_POINT('',(13.2320009614999,4.25,-17.));
#1234=CARTESIAN_POINT('',(13.2335825113167,4.25,-17.));
#1235=CARTESIAN_POINT('',(13.2351489809004,4.24998835653733,-17.0001508549678));
#1236=CARTESIAN_POINT('',(13.23669894194,4.24996384230987,-17.0004668433553));
#1237=CARTESIAN_POINT('',(13.23669894194,4.24996384230986,-17.0004668433555));
#1238=CARTESIAN_POINT('',(13.23669894194,4.24996384230986,-17.0004668433555));
#1239=CARTESIAN_POINT('',(12.543722124842,4.05600538624989,-19.5047202903864));
#1240=CARTESIAN_POINT('',(11.1951851473378,3.65537134444733,-24.5227448407313));
#1241=CARTESIAN_POINT('',(9.79556040816946,3.11242335167734,-29.5135628923938));
#1242=CARTESIAN_POINT('',(9.06414154984393,2.84452772255655,-32.));
#1243=CARTESIAN_POINT('',(-13.5427056243326,-4.25,-17.));
#1244=CARTESIAN_POINT('',(-9.06414154984394,-2.84452772255655,-32.));
#1245=CARTESIAN_POINT('',(-13.5427056243326,-2.83333333333333,-17.));
#1246=CARTESIAN_POINT('',(-9.41995390817405,-1.71072489282376,-32.));
#1247=CARTESIAN_POINT('',(-13.5427056243326,-1.41666666666667,-17.));
#1248=CARTESIAN_POINT('',(-9.56041119950963,-0.510121959013457,-32.));
#1249=CARTESIAN_POINT('',(-13.5427056243326,1.41666666666667,-17.));
#1250=CARTESIAN_POINT('',(-9.39156486092771,1.86016025647384,-32.));
#1251=CARTESIAN_POINT('',(-13.5427056243326,2.83333333333333,-17.));
#1252=CARTESIAN_POINT('',(-9.08234025183127,3.02873023576151,-32.));
#1253=CARTESIAN_POINT('',(-13.5427056243326,4.25,-17.));
#1254=CARTESIAN_POINT('',(-8.56940405068007,4.1006480239333,-32.));
#1255=CARTESIAN_POINT('',(-13.5427056243326,3.95,-17.));
#1256=CARTESIAN_POINT('',(-13.5324972282796,3.95020448059843,-17.0314573462754));
#1257=CARTESIAN_POINT('',(-13.522288117998,3.95040930351849,-17.0629144585257));
#1258=CARTESIAN_POINT('',(-13.5120782881014,3.95061446939287,-17.0943713349986));
#1259=CARTESIAN_POINT('',(-13.51207828793,3.95061964017125,-17.0943713012185));
#1260=CARTESIAN_POINT('',(-13.51207828793,3.95061964017125,-17.0943713012185));
#1261=CARTESIAN_POINT('',(-11.8960561565099,4.01232325678664,-22.0732015533937));
#1262=CARTESIAN_POINT('',(-10.2476492363026,4.07849555887991,-27.0414642709228));
#1263=CARTESIAN_POINT('',(-8.56940405068006,4.1006480239333,-32.));
#1264=CARTESIAN_POINT('',(0.,0.,-32.));
#1265=CARTESIAN_POINT('',(-9.06414154984394,-2.84452772255655,-32.));
#1266=CARTESIAN_POINT('',(-10.5764066667186,-3.24210260328381,-27.008673034894));
#1267=CARTESIAN_POINT('',(-12.0710397054528,-3.58998365031382,-22.0082170222929));
#1268=CARTESIAN_POINT('',(-13.5420759603661,-3.95549617552817,-17.0021428095116));
#1269=CARTESIAN_POINT('',(-13.5420759603661,-3.95549617552818,-17.0021428095116));
#1270=CARTESIAN_POINT('',(-13.5420759603661,-3.95549617552818,-17.0021428095116));
#1271=CARTESIAN_POINT('',(-13.542435711065,-3.95392354859533,-17.0009187300745));
#1272=CARTESIAN_POINT('',(-13.5427056243326,-3.95203618514512,-17.));
#1273=CARTESIAN_POINT('',(-13.5427056243326,-3.95,-17.));
#1274=CARTESIAN_POINT('',(0.,0.,-50.));
#1275=CARTESIAN_POINT('',(0.,0.,-43.5));
#1276=CARTESIAN_POINT('',(9.5,0.,-43.5));
#1277=CARTESIAN_POINT('',(0.,0.,-43.5));
#1278=CARTESIAN_POINT('',(0.,0.,-43.5));
#1279=CARTESIAN_POINT('',(11.5,0.,-43.5));
#1280=CARTESIAN_POINT('',(0.,0.,-50.));
#1281=CARTESIAN_POINT('',(11.5,0.,-50.));
#1282=CARTESIAN_POINT('',(0.,0.,-43.5));
#1283=CARTESIAN_POINT('',(0.,0.,-50.));
#1284=CARTESIAN_POINT('',(0.,0.,-50.));
#1285=CARTESIAN_POINT('',(0.,5.053,-50.));
#1286=CARTESIAN_POINT('',(0.,0.,-37.5));
#1287=CARTESIAN_POINT('',(0.,0.,-37.5));
#1288=CARTESIAN_POINT('',(0.,5.053,-37.5));
#1289=CARTESIAN_POINT('',(0.,0.,-50.));
#1290=CARTESIAN_POINT('',(16.6074108864527,-3.95,-4.47592489308435));
#1291=CARTESIAN_POINT('',(16.6074108864527,-3.95,-4.47592489308435));
#1292=CARTESIAN_POINT('',(0.,-3.95,0.));
#1293=CARTESIAN_POINT('',(-16.6074108864527,-3.95,-4.47592489308433));
#1294=CARTESIAN_POINT('',(-16.6074108864527,-3.95,-4.47592489308434));
#1295=CARTESIAN_POINT('',(-13.5420759603662,-3.95549617552817,-17.0021428095116));
#1296=CARTESIAN_POINT('',(-13.5278481501678,-4.01769212839959,-17.0505540285925));
#1297=CARTESIAN_POINT('',(-13.4681025863106,-4.18496411739422,-17.0422411718379));
#1298=CARTESIAN_POINT('',(-13.3143957828277,-4.24873498688618,-17.0163067895467));
#1299=CARTESIAN_POINT('',(-13.23669894194,-4.24996384230986,-17.0004668433554));
#1300=CARTESIAN_POINT('',(-13.5685515044286,-3.96207655867033,-16.912036936203));
#1301=CARTESIAN_POINT('',(-13.5627273101507,-4.2575936279732,-16.9332223367163));
#1302=CARTESIAN_POINT('',(-13.2783543327827,-4.26161115275843,-16.8499820224403));
#1303=CARTESIAN_POINT('',(-12.8287618835837,-3.7781510313631,-19.4300075836837));
#1304=CARTESIAN_POINT('',(-12.8727001614647,-4.04091001463102,-19.2456683344078));
#1305=CARTESIAN_POINT('',(-12.5782872474703,-4.06605804852479,-19.378251660228));
#1306=CARTESIAN_POINT('',(-11.3394007684049,-3.42072460794693,-24.4640542925936));
#1307=CARTESIAN_POINT('',(-11.4718857810822,-3.60104169718504,-23.9371719701393));
#1308=CARTESIAN_POINT('',(-11.2158829299535,-3.6633746417603,-24.4458925282908));
#1309=CARTESIAN_POINT('',(-9.82481013231873,-3.04449385256267,-29.4893783181032));
#1310=CARTESIAN_POINT('',(-9.81382459022979,-3.07976100203532,-29.489128092877));
#1311=CARTESIAN_POINT('',(-9.80283904494682,-3.11502815050715,-29.4888778768158));
#1312=CARTESIAN_POINT('',(-9.06414154984394,-2.84452772255655,-32.));
#1313=CARTESIAN_POINT('',(-9.06414154984394,-2.84452772255655,-32.));
#1314=CARTESIAN_POINT('',(-9.06414154984394,-2.84452772255655,-32.));
#1315=CARTESIAN_POINT('',(13.5685515044285,3.96207655867032,-16.912036936203));
#1316=CARTESIAN_POINT('',(13.5627273101506,4.25759362797319,-16.9332223367164));
#1317=CARTESIAN_POINT('',(13.2783543327827,4.26161115275843,-16.8499820224404));
#1318=CARTESIAN_POINT('',(12.8287618835883,3.77815103135626,-19.4300075836681));
#1319=CARTESIAN_POINT('',(12.8727001614636,4.04091001462355,-19.2456683344036));
#1320=CARTESIAN_POINT('',(12.5782872474931,4.06605804852461,-19.3782516602329));
#1321=CARTESIAN_POINT('',(11.3394007684043,3.42072460795527,-24.4640542925917));
#1322=CARTESIAN_POINT('',(11.471885781073,3.60104169719283,-23.9371719701235));
#1323=CARTESIAN_POINT('',(11.2158829299566,3.66337464177586,-24.4458925282297));
#1324=CARTESIAN_POINT('',(9.82481013231523,3.04449385255285,-29.4893783181227));
#1325=CARTESIAN_POINT('',(9.81382459024119,3.07976100202448,-29.4891280929318));
#1326=CARTESIAN_POINT('',(9.80283904491781,3.11502815047622,-29.4888778769334));
#1327=CARTESIAN_POINT('',(9.06414154984393,2.84452772255655,-32.));
#1328=CARTESIAN_POINT('',(9.06414154984393,2.84452772255655,-32.));
#1329=CARTESIAN_POINT('',(9.06414154984393,2.84452772255655,-32.));
#1330=CARTESIAN_POINT('',(13.23669894194,4.24996384230986,-17.0004668433554));
#1331=CARTESIAN_POINT('',(13.3144725421374,4.24873377285877,-17.0163224383598));
#1332=CARTESIAN_POINT('',(13.4680774009295,4.18497836281755,-17.0422632882562));
#1333=CARTESIAN_POINT('',(13.5278643608998,4.0176212642364,-17.0504988703291));
#1334=CARTESIAN_POINT('',(13.5420759603659,3.95549617552775,-17.0021428095123));
#1335=CARTESIAN_POINT('',(16.6074108864527,3.95,-4.47592489308436));
#1336=CARTESIAN_POINT('',(16.6074108864527,3.95,-4.47592489308435));
#1337=CARTESIAN_POINT('',(0.,3.95,0.));
#1338=CARTESIAN_POINT('',(-16.6074108864527,3.95,-4.47592489308433));
#1339=CARTESIAN_POINT('',(-16.6074108864527,3.95,-4.47592489308435));
#1340=CARTESIAN_POINT('',(-13.2550145478046,4.25,-16.914610702176));
#1341=CARTESIAN_POINT('',(-13.4060248596098,4.25,-16.957926752038));
#1342=CARTESIAN_POINT('',(-13.5433637331785,4.10707963267949,-16.9975581618832));
#1343=CARTESIAN_POINT('',(-13.5427062541813,3.95,-16.9999976630181));
#1344=CARTESIAN_POINT('',(-8.56940405068007,4.1006480239333,-32.));
#1345=CARTESIAN_POINT('',(-8.56940405068007,4.1006480239333,-32.));
#1346=CARTESIAN_POINT('',(-8.56940405068007,4.1006480239333,-32.));
#1347=CARTESIAN_POINT('',(-9.40853444773212,4.08954210881443,-29.5207511640611));
#1348=CARTESIAN_POINT('',(-9.39304965477624,4.12540917959281,-29.5157606850253));
#1349=CARTESIAN_POINT('',(-9.37756485779442,4.16127625010839,-29.5107702170997));
#1350=CARTESIAN_POINT('',(-11.0741317939062,4.04597368177491,-24.557885430941));
#1351=CARTESIAN_POINT('',(-11.2129422613796,4.18129633148622,-24.0275803890228));
#1352=CARTESIAN_POINT('',(-10.9383643849596,4.27587527522528,-24.51222316933));
#1353=CARTESIAN_POINT('',(-12.7041101090376,3.98146981098704,-19.5836542965754));
#1354=CARTESIAN_POINT('',(-12.7583006774828,4.22794500831903,-19.3669218055244));
#1355=CARTESIAN_POINT('',(-12.4562259720686,4.26468499687783,-19.5012231683158));
#1356=CARTESIAN_POINT('',(-13.51207828793,3.95061964017119,-17.0943713012185));
#1357=CARTESIAN_POINT('',(-13.5120110154988,4.25054359921183,-17.0925885755525));
#1358=CARTESIAN_POINT('',(-13.2267311108087,4.25,-17.));
#1359=CARTESIAN_POINT('',(-13.2267311108087,4.25,-17.));
#1360=CARTESIAN_POINT('',(-13.3761161180914,4.25028465226917,-17.048483418586));
#1361=CARTESIAN_POINT('',(-13.5120430611494,4.10767291335645,-17.0934377882642));
#1362=CARTESIAN_POINT('',(-13.51207828793,3.95061964017119,-17.0943713012185));
#1363=CARTESIAN_POINT('',(-13.5118945110117,3.9506181624171,-17.0949375589772));
#1364=CARTESIAN_POINT('',(-13.5074764825545,3.99014955874382,-17.0935036786111));
#1365=CARTESIAN_POINT('',(-13.4986404256402,4.06921235139726,-17.0906359178789));
#1366=CARTESIAN_POINT('',(-13.4317217731397,4.1685972194959,-17.0689173294011));
#1367=CARTESIAN_POINT('',(-13.3363095575688,4.23762443603191,-17.037951095499));
#1368=CARTESIAN_POINT('',(-13.2609974178351,4.24586218814931,-17.0135083832036));
#1369=CARTESIAN_POINT('',(-13.2233413479682,4.24998106420801,-17.0012870270559));
#1370=CARTESIAN_POINT('',(-13.5222261324447,3.95041088140731,-17.0631029619746));
#1371=CARTESIAN_POINT('',(-13.5178301643518,3.98996288550794,-17.0616762947569));
#1372=CARTESIAN_POINT('',(-13.5090382281662,4.0690668937092,-17.0588229603216));
#1373=CARTESIAN_POINT('',(-13.4421286160383,4.16852790599429,-17.0371081268887));
#1374=CARTESIAN_POINT('',(-13.3466888464761,4.23761327320339,-17.0061341223089));
#1375=CARTESIAN_POINT('',(-13.2713431592602,4.24585845607908,-16.9816814476643));
#1376=CARTESIAN_POINT('',(-13.2336703156523,4.24998104751693,-16.969455110342));
#1377=CARTESIAN_POINT('',(-13.5325577538776,3.95020360039752,-17.031268364972));
#1378=CARTESIAN_POINT('',(-13.5281838461491,3.98977621227206,-17.0298489109027));
#1379=CARTESIAN_POINT('',(-13.5194360306921,4.06892143602114,-17.0270100027643));
#1380=CARTESIAN_POINT('',(-13.4525354589368,4.16845859249267,-17.0052989243764));
#1381=CARTESIAN_POINT('',(-13.3570681353833,4.23760211037487,-16.9743171491188));
#1382=CARTESIAN_POINT('',(-13.2816889006853,4.24585472400885,-16.9498545121249));
#1383=CARTESIAN_POINT('',(-13.2439992833363,4.24998103082584,-16.937623193628));
#1384=CARTESIAN_POINT('',(-13.5428893753106,3.94999631938773,-16.9994337679694));
#1385=CARTESIAN_POINT('',(-13.5385375279464,3.98958953903618,-16.9980215270486));
#1386=CARTESIAN_POINT('',(-13.5298338332181,4.06877597833308,-16.995197045207));
#1387=CARTESIAN_POINT('',(-13.4629423018354,4.16838927899105,-16.973489721864));
#1388=CARTESIAN_POINT('',(-13.3674474242906,4.23759094754635,-16.9425001759288));
#1389=CARTESIAN_POINT('',(-13.2920346421105,4.24585099193862,-16.9180275765856));
#1390=CARTESIAN_POINT('',(-13.2543282510204,4.24998101413476,-16.905791276914));
#1391=MECHANICAL_DESIGN_GEOMETRIC_PRESENTATION_REPRESENTATION('',(#491,
#492,#493,#494,#495,#496,#497,#498,#499,#500,#501,#502,#503,#504,#505,#506,
#507,#508,#509,#510,#511,#512,#513,#514,#515,#516,#517,#518,#519,#520,#521,
#522,#523,#524,#525,#526,#527,#528),#1392);
#1392=(
GEOMETRIC_REPRESENTATION_CONTEXT(3)
GLOBAL_UNCERTAINTY_ASSIGNED_CONTEXT((#1393))
GLOBAL_UNIT_ASSIGNED_CONTEXT((#1396,#1395,#1394))
REPRESENTATION_CONTEXT('F\X2\578B518587BA7EB967467AEF517382828F74627F\X0\',
'TOP_LEVEL_ASSEMBLY_PART')
);
#1393=UNCERTAINTY_MEASURE_WITH_UNIT(LENGTH_MEASURE(0.005),#1396,
'DISTANCE_ACCURACY_VALUE','Maximum Tolerance applied to model');
#1394=(
NAMED_UNIT(*)
SI_UNIT($,.STERADIAN.)
SOLID_ANGLE_UNIT()
);
#1395=(
NAMED_UNIT(*)
PLANE_ANGLE_UNIT()
SI_UNIT($,.RADIAN.)
);
#1396=(
LENGTH_UNIT()
NAMED_UNIT(*)
SI_UNIT(.MILLI.,.METRE.)
);
#1397=PRODUCT_DEFINITION_SHAPE('','',#1398);
#1398=PRODUCT_DEFINITION('','',#1400,#1399);
#1399=PRODUCT_DEFINITION_CONTEXT('',#1406,'design');
#1400=PRODUCT_DEFINITION_FORMATION_WITH_SPECIFIED_SOURCE('','',#1402,
 .NOT_KNOWN.);
#1401=PRODUCT_RELATED_PRODUCT_CATEGORY('','',(#1402));
#1402=PRODUCT('F\X2\578B518587BA7EB967467AEF517382828F74627F\X0\',
'F\X2\578B518587BA7EB967467AEF517382828F74627F\X0\',
'F\X2\578B518587BA7EB967467AEF517382828F74627F\X0\',(#1404));
#1403=PRODUCT_CATEGORY('','');
#1404=PRODUCT_CONTEXT('',#1406,'mechanical');
#1405=APPLICATION_PROTOCOL_DEFINITION('international standard',
'automotive_design',2010,#1406);
#1406=APPLICATION_CONTEXT(
'core data for automotive mechanical design processes');
ENDSEC;
END-ISO-10303-21;
