ISO-10303-21;
HEADER;
/* Generated by software containing HOOPS Exchange Step
 * from HOOPS Exchange, Inc. (www.tiangong.cloud) 
 */

FILE_DESCRIPTION(
/* description */ ('Unknown'),
/* implementation_level */ '2;1');

FILE_NAME(
/* name */ 'uepf\X2\5E2651B2538B57065F625EA7504F5FC3595759167403976274038F74627F\X0\',

/* time_stamp */ '2025-10-13T02:23:04+08:00',
/* author */ ('Unknown'),
/* organization */ ('Unknown'),
/* preprocessor_version */ 'ST-DEVELOPER v19.4',
/* originating_system */ 'TianGong',
/* authorisation */ 'Unknown');

FILE_SCHEMA (('AUTOMOTIVE_DESIGN {1 0 10303 214 3 1 1}'));
ENDSEC;

DATA;
#10=PROPERTY_DEFINITION_REPRESENTATION(#14,#12);
#11=PROPERTY_DEFINITION_REPRESENTATION(#15,#13);
#12=REPRESENTATION('',(#16),#1282);
#13=REPRESENTATION('',(#17),#1282);
#14=PROPERTY_DEFINITION('pmi validation property','',#1295);
#15=PROPERTY_DEFINITION('pmi validation property','',#1295);
#16=VALUE_REPRESENTATION_ITEM('number of annotations',COUNT_MEASURE(0.));
#17=VALUE_REPRESENTATION_ITEM('number of views',COUNT_MEASURE(0.));
#18=CONTEXT_DEPENDENT_SHAPE_REPRESENTATION(#26,#1298);
#19=CONTEXT_DEPENDENT_SHAPE_REPRESENTATION(#27,#1300);
#20=CONTEXT_DEPENDENT_SHAPE_REPRESENTATION(#28,#1301);
#21=CONTEXT_DEPENDENT_SHAPE_REPRESENTATION(#29,#1303);
#22=NEXT_ASSEMBLY_USAGE_OCCURRENCE('UE\X2\941E51AD917193B5\X0\?',
'UE\X2\941E51AD917193B5\X0\?','UE\X2\941E51AD917193B5\X0\?',#1305,#1306,
'');
#23=NEXT_ASSEMBLY_USAGE_OCCURRENCE('\X2\934B5FD37E3E6FC26945300A6D93\X0\?',
'\X2\934B5FD37E3E6FC26945300A6D93\X0\?','\X2\934B5FD37E3E6FC26945300A6D93\X0\?',
#1305,#1307,'');
#24=NEXT_ASSEMBLY_USAGE_OCCURRENCE('UE\X2\7441547453A46D63\X0\?',
'UE\X2\7441547453A46D63\X0\?','UE\X2\7441547453A46D63\X0\?',#1304,#1305,
'');
#25=NEXT_ASSEMBLY_USAGE_OCCURRENCE('PF\X2\935063D25E07936655D782306434\X0\?',
'PF\X2\935063D25E07936655D782306434\X0\?','PF\X2\935063D25E07936655D782306434\X0\?',
#1304,#1308,'');
#26=(
REPRESENTATION_RELATIONSHIP(' ',' ',#751,#752)
REPRESENTATION_RELATIONSHIP_WITH_TRANSFORMATION(#30)
SHAPE_REPRESENTATION_RELATIONSHIP()
);
#27=(
REPRESENTATION_RELATIONSHIP(' ',' ',#753,#752)
REPRESENTATION_RELATIONSHIP_WITH_TRANSFORMATION(#31)
SHAPE_REPRESENTATION_RELATIONSHIP()
);
#28=(
REPRESENTATION_RELATIONSHIP(' ',' ',#752,#754)
REPRESENTATION_RELATIONSHIP_WITH_TRANSFORMATION(#32)
SHAPE_REPRESENTATION_RELATIONSHIP()
);
#29=(
REPRESENTATION_RELATIONSHIP(' ',' ',#755,#754)
REPRESENTATION_RELATIONSHIP_WITH_TRANSFORMATION(#33)
SHAPE_REPRESENTATION_RELATIONSHIP()
);
#30=ITEM_DEFINED_TRANSFORMATION(' ',' ',#756,#817);
#31=ITEM_DEFINED_TRANSFORMATION(' ',' ',#756,#827);
#32=ITEM_DEFINED_TRANSFORMATION(' ',' ',#756,#828);
#33=ITEM_DEFINED_TRANSFORMATION(' ',' ',#756,#862);
#34=VERTEX_LOOP('',#271);
#35=VERTEX_LOOP('',#272);
#36=VERTEX_LOOP('',#273);
#37=VERTEX_LOOP('',#274);
#38=VERTEX_LOOP('',#275);
#39=VERTEX_LOOP('',#276);
#40=VERTEX_LOOP('',#277);
#41=VERTEX_LOOP('',#278);
#42=VERTEX_LOOP('',#279);
#43=B_SPLINE_CURVE_WITH_KNOTS('',3,(#1127,#1128,#1129,#1130,#1131,#1132,
#1133,#1134,#1135,#1136,#1137),.UNSPECIFIED.,.T.,.F.,(1,1,1,1,1,1,1,1,1,
1,1,1,1,1,1),(-0.00704804144095436,-0.00469869429396957,-0.00234934714698479,
0.,0.00234934714698479,0.00469869429396957,0.00704804144095436,0.00939738858793915,
0.0117467357349239,0.0140960828819087,0.0164454300288935,0.0187947771758783,
0.0211441243228631,0.0234934714698479,0.0258428186168327),.UNSPECIFIED.);
#44=B_SPLINE_CURVE_WITH_KNOTS('',3,(#1143,#1144,#1145,#1146,#1147,#1148,
#1149,#1150,#1151,#1152,#1153),.UNSPECIFIED.,.T.,.F.,(1,1,1,1,1,1,1,1,1,
1,1,1,1,1,1),(-0.00704804144095435,-0.00469869429396957,-0.00234934714698478,
0.,0.00234934714698478,0.00469869429396957,0.00704804144095435,0.00939738858793914,
0.0117467357349239,0.0140960828819087,0.0164454300288935,0.0187947771758783,
0.0211441243228631,0.0234934714698478,0.0258428186168326),.UNSPECIFIED.);
#45=B_SPLINE_CURVE_WITH_KNOTS('',3,(#1160,#1161,#1162,#1163,#1164,#1165,
#1166,#1167,#1168,#1169,#1170,#1171,#1172,#1173,#1174,#1175),
 .UNSPECIFIED.,.T.,.F.,(1,1,1,1,1,1,1,1,1,1,1,1,1,1,1,1,1,1,1,1),(-0.0047382804686165,
-0.00236914023430825,-0.00118457011715413,0.,0.00118457011715413,0.00236914023430825,
0.0047382804686165,0.00592285058577063,0.00710742070292475,0.00947656093723301,
0.0106611310543871,0.0118457011715413,0.0130302712886954,0.0142148414058495,
0.0165839816401578,0.0177685517573119,0.018953121874466,0.0201376919916201,
0.0213222621087743,0.0236914023430825),.UNSPECIFIED.);
#46=CONICAL_SURFACE('',#787,8.49999999999999,0.785398163397447);
#47=CONICAL_SURFACE('',#788,11.6666666666667,0.785398163397448);
#48=CONICAL_SURFACE('',#804,16.65,0.785398163397448);
#49=CONICAL_SURFACE('',#805,16.15,0.785398163397448);
#50=CONICAL_SURFACE('',#808,3.,1.02974425867665);
#51=CONICAL_SURFACE('',#825,2.,0.785398163397448);
#52=CONICAL_SURFACE('',#826,3.,0.785398163397448);
#53=SHAPE_REPRESENTATION_RELATIONSHIP('','',#751,#56);
#54=SHAPE_REPRESENTATION_RELATIONSHIP('','',#753,#57);
#55=SHAPE_REPRESENTATION_RELATIONSHIP('','',#755,#58);
#56=ADVANCED_BREP_SHAPE_REPRESENTATION('',(#733,#734,#735,#736,#737,#738,
#739,#740,#741,#742,#743),#1284);
#57=ADVANCED_BREP_SHAPE_REPRESENTATION('',(#744),#1285);
#58=ADVANCED_BREP_SHAPE_REPRESENTATION('',(#745),#1286);
#59=TOROIDAL_SURFACE('',#766,13.75,3.4216630977873);
#60=TOROIDAL_SURFACE('',#774,13.75,3.4216630977873);
#61=TOROIDAL_SURFACE('',#855,25.2920442036621,1.);
#62=TOROIDAL_SURFACE('',#856,25.2920442036621,1.);
#63=TOROIDAL_SURFACE('',#857,40.,1.);
#64=TOROIDAL_SURFACE('',#858,40.,1.);
#65=CYLINDRICAL_SURFACE('',#764,15.8333333333333);
#66=CYLINDRICAL_SURFACE('',#768,15.8333333333333);
#67=CYLINDRICAL_SURFACE('',#772,11.6666666666667);
#68=CYLINDRICAL_SURFACE('',#776,11.6666666666667);
#69=CYLINDRICAL_SURFACE('',#781,7.5);
#70=CYLINDRICAL_SURFACE('',#786,13.29);
#71=CYLINDRICAL_SURFACE('',#789,16.65);
#72=CYLINDRICAL_SURFACE('',#792,7.49999999999999);
#73=CYLINDRICAL_SURFACE('',#802,13.3);
#74=CYLINDRICAL_SURFACE('',#803,3.);
#75=CYLINDRICAL_SURFACE('',#806,3.);
#76=CYLINDRICAL_SURFACE('',#818,3.);
#77=CYLINDRICAL_SURFACE('',#846,41.);
#78=CYLINDRICAL_SURFACE('',#859,3.55);
#79=CYLINDRICAL_SURFACE('',#860,3.55);
#80=CYLINDRICAL_SURFACE('',#861,3.55);
#81=SPHERICAL_SURFACE('',#760,20.);
#82=SPHERICAL_SURFACE('',#809,3.41166309778729);
#83=SPHERICAL_SURFACE('',#810,3.41166309778729);
#84=SPHERICAL_SURFACE('',#811,3.41166309778729);
#85=SPHERICAL_SURFACE('',#812,3.41166309778729);
#86=SPHERICAL_SURFACE('',#813,3.41166309778729);
#87=SPHERICAL_SURFACE('',#814,3.41166309778729);
#88=SPHERICAL_SURFACE('',#815,3.41166309778729);
#89=SPHERICAL_SURFACE('',#816,3.41166309778729);
#90=SPHERICAL_SURFACE('',#829,24.5);
#91=SPHERICAL_SURFACE('',#832,20.);
#92=SPHERICAL_SURFACE('',#836,24.5);
#93=ORIENTED_EDGE('',*,*,#193,.T.);
#94=ORIENTED_EDGE('',*,*,#194,.F.);
#95=ORIENTED_EDGE('',*,*,#195,.T.);
#96=ORIENTED_EDGE('',*,*,#193,.F.);
#97=ORIENTED_EDGE('',*,*,#196,.T.);
#98=ORIENTED_EDGE('',*,*,#195,.F.);
#99=ORIENTED_EDGE('',*,*,#197,.T.);
#100=ORIENTED_EDGE('',*,*,#196,.F.);
#101=ORIENTED_EDGE('',*,*,#198,.T.);
#102=ORIENTED_EDGE('',*,*,#197,.F.);
#103=ORIENTED_EDGE('',*,*,#194,.T.);
#104=ORIENTED_EDGE('',*,*,#198,.F.);
#105=ORIENTED_EDGE('',*,*,#199,.T.);
#106=ORIENTED_EDGE('',*,*,#200,.F.);
#107=ORIENTED_EDGE('',*,*,#201,.T.);
#108=ORIENTED_EDGE('',*,*,#199,.F.);
#109=ORIENTED_EDGE('',*,*,#202,.T.);
#110=ORIENTED_EDGE('',*,*,#201,.F.);
#111=ORIENTED_EDGE('',*,*,#203,.T.);
#112=ORIENTED_EDGE('',*,*,#202,.F.);
#113=ORIENTED_EDGE('',*,*,#204,.T.);
#114=ORIENTED_EDGE('',*,*,#205,.T.);
#115=ORIENTED_EDGE('',*,*,#206,.T.);
#116=ORIENTED_EDGE('',*,*,#207,.T.);
#117=ORIENTED_EDGE('',*,*,#208,.T.);
#118=ORIENTED_EDGE('',*,*,#207,.F.);
#119=ORIENTED_EDGE('',*,*,#200,.T.);
#120=ORIENTED_EDGE('',*,*,#208,.F.);
#121=ORIENTED_EDGE('',*,*,#206,.F.);
#122=ORIENTED_EDGE('',*,*,#204,.F.);
#123=ORIENTED_EDGE('',*,*,#205,.F.);
#124=ORIENTED_EDGE('',*,*,#203,.F.);
#125=ORIENTED_EDGE('',*,*,#209,.T.);
#126=ORIENTED_EDGE('',*,*,#210,.T.);
#127=ORIENTED_EDGE('',*,*,#211,.T.);
#128=ORIENTED_EDGE('',*,*,#212,.F.);
#129=ORIENTED_EDGE('',*,*,#213,.T.);
#130=ORIENTED_EDGE('',*,*,#214,.F.);
#131=ORIENTED_EDGE('',*,*,#215,.F.);
#132=ORIENTED_EDGE('',*,*,#216,.T.);
#133=ORIENTED_EDGE('',*,*,#217,.T.);
#134=ORIENTED_EDGE('',*,*,#218,.T.);
#135=ORIENTED_EDGE('',*,*,#213,.F.);
#136=ORIENTED_EDGE('',*,*,#219,.F.);
#137=ORIENTED_EDGE('',*,*,#214,.T.);
#138=ORIENTED_EDGE('',*,*,#217,.F.);
#139=ORIENTED_EDGE('',*,*,#219,.T.);
#140=ORIENTED_EDGE('',*,*,#212,.T.);
#141=ORIENTED_EDGE('',*,*,#215,.T.);
#142=ORIENTED_EDGE('',*,*,#216,.F.);
#143=ORIENTED_EDGE('',*,*,#210,.F.);
#144=ORIENTED_EDGE('',*,*,#211,.F.);
#145=ORIENTED_EDGE('',*,*,#218,.F.);
#146=ORIENTED_EDGE('',*,*,#220,.T.);
#147=ORIENTED_EDGE('',*,*,#209,.F.);
#148=ORIENTED_EDGE('',*,*,#220,.F.);
#149=ORIENTED_EDGE('',*,*,#221,.T.);
#150=ORIENTED_EDGE('',*,*,#222,.T.);
#151=ORIENTED_EDGE('',*,*,#223,.T.);
#152=ORIENTED_EDGE('',*,*,#224,.T.);
#153=ORIENTED_EDGE('',*,*,#221,.F.);
#154=ORIENTED_EDGE('',*,*,#224,.F.);
#155=ORIENTED_EDGE('',*,*,#223,.F.);
#156=ORIENTED_EDGE('',*,*,#222,.F.);
#157=ORIENTED_EDGE('',*,*,#225,.T.);
#158=ORIENTED_EDGE('',*,*,#226,.F.);
#159=ORIENTED_EDGE('',*,*,#227,.T.);
#160=ORIENTED_EDGE('',*,*,#228,.F.);
#161=ORIENTED_EDGE('',*,*,#226,.T.);
#162=ORIENTED_EDGE('',*,*,#227,.F.);
#163=ORIENTED_EDGE('',*,*,#229,.T.);
#164=ORIENTED_EDGE('',*,*,#230,.T.);
#165=ORIENTED_EDGE('',*,*,#228,.T.);
#166=ORIENTED_EDGE('',*,*,#230,.F.);
#167=ORIENTED_EDGE('',*,*,#231,.T.);
#168=ORIENTED_EDGE('',*,*,#232,.T.);
#169=ORIENTED_EDGE('',*,*,#233,.T.);
#170=ORIENTED_EDGE('',*,*,#234,.T.);
#171=ORIENTED_EDGE('',*,*,#235,.T.);
#172=ORIENTED_EDGE('',*,*,#236,.T.);
#173=ORIENTED_EDGE('',*,*,#237,.T.);
#174=ORIENTED_EDGE('',*,*,#238,.T.);
#175=ORIENTED_EDGE('',*,*,#239,.T.);
#176=ORIENTED_EDGE('',*,*,#240,.T.);
#177=ORIENTED_EDGE('',*,*,#241,.T.);
#178=ORIENTED_EDGE('',*,*,#242,.T.);
#179=ORIENTED_EDGE('',*,*,#225,.F.);
#180=ORIENTED_EDGE('',*,*,#235,.F.);
#181=ORIENTED_EDGE('',*,*,#229,.F.);
#182=ORIENTED_EDGE('',*,*,#242,.F.);
#183=ORIENTED_EDGE('',*,*,#237,.F.);
#184=ORIENTED_EDGE('',*,*,#234,.F.);
#185=ORIENTED_EDGE('',*,*,#241,.F.);
#186=ORIENTED_EDGE('',*,*,#236,.F.);
#187=ORIENTED_EDGE('',*,*,#233,.F.);
#188=ORIENTED_EDGE('',*,*,#240,.F.);
#189=ORIENTED_EDGE('',*,*,#232,.F.);
#190=ORIENTED_EDGE('',*,*,#239,.F.);
#191=ORIENTED_EDGE('',*,*,#231,.F.);
#192=ORIENTED_EDGE('',*,*,#238,.F.);
#193=EDGE_CURVE('',#243,#243,#302,.T.);
#194=EDGE_CURVE('',#244,#244,#303,.T.);
#195=EDGE_CURVE('',#245,#245,#304,.T.);
#196=EDGE_CURVE('',#246,#246,#305,.T.);
#197=EDGE_CURVE('',#247,#247,#306,.T.);
#198=EDGE_CURVE('',#248,#248,#307,.T.);
#199=EDGE_CURVE('',#249,#249,#308,.T.);
#200=EDGE_CURVE('',#250,#250,#309,.T.);
#201=EDGE_CURVE('',#251,#251,#310,.T.);
#202=EDGE_CURVE('',#252,#252,#311,.T.);
#203=EDGE_CURVE('',#253,#253,#312,.F.);
#204=EDGE_CURVE('',#254,#254,#313,.F.);
#205=EDGE_CURVE('',#255,#255,#314,.T.);
#206=EDGE_CURVE('',#256,#256,#315,.T.);
#207=EDGE_CURVE('',#257,#257,#316,.T.);
#208=EDGE_CURVE('',#258,#258,#317,.T.);
#209=EDGE_CURVE('',#259,#259,#43,.T.);
#210=EDGE_CURVE('',#260,#260,#318,.T.);
#211=EDGE_CURVE('',#261,#261,#319,.T.);
#212=EDGE_CURVE('',#262,#262,#44,.T.);
#213=EDGE_CURVE('',#263,#263,#320,.T.);
#214=EDGE_CURVE('',#264,#264,#321,.T.);
#215=EDGE_CURVE('',#265,#265,#45,.T.);
#216=EDGE_CURVE('',#266,#266,#322,.F.);
#217=EDGE_CURVE('',#267,#267,#323,.T.);
#218=EDGE_CURVE('',#268,#268,#324,.F.);
#219=EDGE_CURVE('',#269,#269,#325,.T.);
#220=EDGE_CURVE('',#270,#270,#326,.T.);
#221=EDGE_CURVE('',#280,#280,#327,.F.);
#222=EDGE_CURVE('',#281,#281,#328,.T.);
#223=EDGE_CURVE('',#282,#282,#329,.F.);
#224=EDGE_CURVE('',#283,#283,#330,.T.);
#225=EDGE_CURVE('',#284,#284,#331,.F.);
#226=EDGE_CURVE('',#285,#285,#332,.T.);
#227=EDGE_CURVE('',#286,#286,#333,.T.);
#228=EDGE_CURVE('',#287,#287,#334,.T.);
#229=EDGE_CURVE('',#288,#288,#335,.F.);
#230=EDGE_CURVE('',#289,#289,#336,.T.);
#231=EDGE_CURVE('',#290,#290,#337,.T.);
#232=EDGE_CURVE('',#291,#291,#338,.T.);
#233=EDGE_CURVE('',#292,#292,#339,.T.);
#234=EDGE_CURVE('',#293,#293,#340,.T.);
#235=EDGE_CURVE('',#294,#294,#341,.F.);
#236=EDGE_CURVE('',#295,#295,#342,.F.);
#237=EDGE_CURVE('',#296,#296,#343,.F.);
#238=EDGE_CURVE('',#297,#297,#344,.F.);
#239=EDGE_CURVE('',#298,#298,#345,.F.);
#240=EDGE_CURVE('',#299,#299,#346,.F.);
#241=EDGE_CURVE('',#300,#300,#347,.T.);
#242=EDGE_CURVE('',#301,#301,#348,.F.);
#243=VERTEX_POINT('',#1080);
#244=VERTEX_POINT('',#1082);
#245=VERTEX_POINT('',#1085);
#246=VERTEX_POINT('',#1088);
#247=VERTEX_POINT('',#1091);
#248=VERTEX_POINT('',#1094);
#249=VERTEX_POINT('',#1098);
#250=VERTEX_POINT('',#1100);
#251=VERTEX_POINT('',#1103);
#252=VERTEX_POINT('',#1106);
#253=VERTEX_POINT('',#1109);
#254=VERTEX_POINT('',#1112);
#255=VERTEX_POINT('',#1114);
#256=VERTEX_POINT('',#1117);
#257=VERTEX_POINT('',#1119);
#258=VERTEX_POINT('',#1122);
#259=VERTEX_POINT('',#1138);
#260=VERTEX_POINT('',#1140);
#261=VERTEX_POINT('',#1142);
#262=VERTEX_POINT('',#1154);
#263=VERTEX_POINT('',#1157);
#264=VERTEX_POINT('',#1159);
#265=VERTEX_POINT('',#1176);
#266=VERTEX_POINT('',#1179);
#267=VERTEX_POINT('',#1181);
#268=VERTEX_POINT('',#1184);
#269=VERTEX_POINT('',#1187);
#270=VERTEX_POINT('',#1194);
#271=VERTEX_POINT('',#1196);
#272=VERTEX_POINT('',#1198);
#273=VERTEX_POINT('',#1200);
#274=VERTEX_POINT('',#1202);
#275=VERTEX_POINT('',#1204);
#276=VERTEX_POINT('',#1206);
#277=VERTEX_POINT('',#1208);
#278=VERTEX_POINT('',#1210);
#279=VERTEX_POINT('',#1212);
#280=VERTEX_POINT('',#1216);
#281=VERTEX_POINT('',#1218);
#282=VERTEX_POINT('',#1221);
#283=VERTEX_POINT('',#1224);
#284=VERTEX_POINT('',#1231);
#285=VERTEX_POINT('',#1233);
#286=VERTEX_POINT('',#1236);
#287=VERTEX_POINT('',#1238);
#288=VERTEX_POINT('',#1242);
#289=VERTEX_POINT('',#1244);
#290=VERTEX_POINT('',#1248);
#291=VERTEX_POINT('',#1250);
#292=VERTEX_POINT('',#1252);
#293=VERTEX_POINT('',#1254);
#294=VERTEX_POINT('',#1256);
#295=VERTEX_POINT('',#1259);
#296=VERTEX_POINT('',#1261);
#297=VERTEX_POINT('',#1264);
#298=VERTEX_POINT('',#1266);
#299=VERTEX_POINT('',#1268);
#300=VERTEX_POINT('',#1270);
#301=VERTEX_POINT('',#1272);
#302=CIRCLE('',#758,19.0787840283389);
#303=CIRCLE('',#759,15.8333333333333);
#304=CIRCLE('',#761,19.0787840283389);
#305=CIRCLE('',#763,15.8333333333333);
#306=CIRCLE('',#765,15.8333333333333);
#307=CIRCLE('',#767,15.8333333333333);
#308=CIRCLE('',#770,11.6666666666667);
#309=CIRCLE('',#771,13.29);
#310=CIRCLE('',#773,11.6666666666667);
#311=CIRCLE('',#775,11.6666666666667);
#312=CIRCLE('',#777,11.6666666666667);
#313=CIRCLE('',#779,8.49999999999999);
#314=CIRCLE('',#780,10.6666666666667);
#315=CIRCLE('',#782,7.5);
#316=CIRCLE('',#783,7.5);
#317=CIRCLE('',#785,13.29);
#318=CIRCLE('',#790,16.65);
#319=CIRCLE('',#791,16.65);
#320=CIRCLE('',#793,7.49999999999999);
#321=CIRCLE('',#794,7.49999999999999);
#322=CIRCLE('',#796,16.15);
#323=CIRCLE('',#797,13.3);
#324=CIRCLE('',#799,16.15);
#325=CIRCLE('',#801,13.3);
#326=CIRCLE('',#807,3.);
#327=CIRCLE('',#819,3.);
#328=CIRCLE('',#820,3.);
#329=CIRCLE('',#822,2.);
#330=CIRCLE('',#824,2.);
#331=CIRCLE('',#830,24.3001993329303);
#332=CIRCLE('',#831,23.3238075793812);
#333=CIRCLE('',#833,18.5404962177392);
#334=CIRCLE('',#834,18.5404962177392);
#335=CIRCLE('',#837,24.3001993329303);
#336=CIRCLE('',#838,23.3238075793812);
#337=CIRCLE('',#841,3.55);
#338=CIRCLE('',#842,3.55);
#339=CIRCLE('',#843,3.55);
#340=CIRCLE('',#844,40.);
#341=CIRCLE('',#845,25.2920442036621);
#342=CIRCLE('',#847,41.);
#343=CIRCLE('',#848,41.);
#344=CIRCLE('',#850,3.55);
#345=CIRCLE('',#851,3.55);
#346=CIRCLE('',#852,3.55);
#347=CIRCLE('',#853,40.);
#348=CIRCLE('',#854,25.2920442036621);
#349=EDGE_LOOP('',(#93));
#350=EDGE_LOOP('',(#94));
#351=EDGE_LOOP('',(#95));
#352=EDGE_LOOP('',(#96));
#353=EDGE_LOOP('',(#97));
#354=EDGE_LOOP('',(#98));
#355=EDGE_LOOP('',(#99));
#356=EDGE_LOOP('',(#100));
#357=EDGE_LOOP('',(#101));
#358=EDGE_LOOP('',(#102));
#359=EDGE_LOOP('',(#103));
#360=EDGE_LOOP('',(#104));
#361=EDGE_LOOP('',(#105));
#362=EDGE_LOOP('',(#106));
#363=EDGE_LOOP('',(#107));
#364=EDGE_LOOP('',(#108));
#365=EDGE_LOOP('',(#109));
#366=EDGE_LOOP('',(#110));
#367=EDGE_LOOP('',(#111));
#368=EDGE_LOOP('',(#112));
#369=EDGE_LOOP('',(#113));
#370=EDGE_LOOP('',(#114));
#371=EDGE_LOOP('',(#115));
#372=EDGE_LOOP('',(#116));
#373=EDGE_LOOP('',(#117));
#374=EDGE_LOOP('',(#118));
#375=EDGE_LOOP('',(#119));
#376=EDGE_LOOP('',(#120));
#377=EDGE_LOOP('',(#121));
#378=EDGE_LOOP('',(#122));
#379=EDGE_LOOP('',(#123));
#380=EDGE_LOOP('',(#124));
#381=EDGE_LOOP('',(#125));
#382=EDGE_LOOP('',(#126));
#383=EDGE_LOOP('',(#127));
#384=EDGE_LOOP('',(#128));
#385=EDGE_LOOP('',(#129));
#386=EDGE_LOOP('',(#130));
#387=EDGE_LOOP('',(#131));
#388=EDGE_LOOP('',(#132));
#389=EDGE_LOOP('',(#133));
#390=EDGE_LOOP('',(#134));
#391=EDGE_LOOP('',(#135));
#392=EDGE_LOOP('',(#136));
#393=EDGE_LOOP('',(#137));
#394=EDGE_LOOP('',(#138));
#395=EDGE_LOOP('',(#139));
#396=EDGE_LOOP('',(#140));
#397=EDGE_LOOP('',(#141));
#398=EDGE_LOOP('',(#142));
#399=EDGE_LOOP('',(#143));
#400=EDGE_LOOP('',(#144));
#401=EDGE_LOOP('',(#145));
#402=EDGE_LOOP('',(#146));
#403=EDGE_LOOP('',(#147));
#404=EDGE_LOOP('',(#148));
#405=EDGE_LOOP('',(#149));
#406=EDGE_LOOP('',(#150));
#407=EDGE_LOOP('',(#151));
#408=EDGE_LOOP('',(#152));
#409=EDGE_LOOP('',(#153));
#410=EDGE_LOOP('',(#154));
#411=EDGE_LOOP('',(#155));
#412=EDGE_LOOP('',(#156));
#413=EDGE_LOOP('',(#157));
#414=EDGE_LOOP('',(#158));
#415=EDGE_LOOP('',(#159));
#416=EDGE_LOOP('',(#160));
#417=EDGE_LOOP('',(#161));
#418=EDGE_LOOP('',(#162));
#419=EDGE_LOOP('',(#163));
#420=EDGE_LOOP('',(#164));
#421=EDGE_LOOP('',(#165));
#422=EDGE_LOOP('',(#166));
#423=EDGE_LOOP('',(#167));
#424=EDGE_LOOP('',(#168));
#425=EDGE_LOOP('',(#169));
#426=EDGE_LOOP('',(#170));
#427=EDGE_LOOP('',(#171));
#428=EDGE_LOOP('',(#172));
#429=EDGE_LOOP('',(#173));
#430=EDGE_LOOP('',(#174));
#431=EDGE_LOOP('',(#175));
#432=EDGE_LOOP('',(#176));
#433=EDGE_LOOP('',(#177));
#434=EDGE_LOOP('',(#178));
#435=EDGE_LOOP('',(#179));
#436=EDGE_LOOP('',(#180));
#437=EDGE_LOOP('',(#181));
#438=EDGE_LOOP('',(#182));
#439=EDGE_LOOP('',(#183));
#440=EDGE_LOOP('',(#184));
#441=EDGE_LOOP('',(#185));
#442=EDGE_LOOP('',(#186));
#443=EDGE_LOOP('',(#187));
#444=EDGE_LOOP('',(#188));
#445=EDGE_LOOP('',(#189));
#446=EDGE_LOOP('',(#190));
#447=EDGE_LOOP('',(#191));
#448=EDGE_LOOP('',(#192));
#449=FACE_BOUND('',#349,.T.);
#450=FACE_BOUND('',#350,.T.);
#451=FACE_BOUND('',#351,.T.);
#452=FACE_BOUND('',#352,.T.);
#453=FACE_BOUND('',#353,.T.);
#454=FACE_BOUND('',#354,.T.);
#455=FACE_BOUND('',#355,.T.);
#456=FACE_BOUND('',#356,.T.);
#457=FACE_BOUND('',#357,.T.);
#458=FACE_BOUND('',#358,.T.);
#459=FACE_BOUND('',#359,.T.);
#460=FACE_BOUND('',#360,.T.);
#461=FACE_BOUND('',#361,.T.);
#462=FACE_BOUND('',#362,.T.);
#463=FACE_BOUND('',#363,.T.);
#464=FACE_BOUND('',#364,.T.);
#465=FACE_BOUND('',#365,.T.);
#466=FACE_BOUND('',#366,.T.);
#467=FACE_BOUND('',#367,.T.);
#468=FACE_BOUND('',#368,.T.);
#469=FACE_BOUND('',#369,.T.);
#470=FACE_BOUND('',#370,.T.);
#471=FACE_BOUND('',#371,.T.);
#472=FACE_BOUND('',#372,.T.);
#473=FACE_BOUND('',#373,.T.);
#474=FACE_BOUND('',#374,.T.);
#475=FACE_BOUND('',#375,.T.);
#476=FACE_BOUND('',#376,.T.);
#477=FACE_BOUND('',#377,.T.);
#478=FACE_BOUND('',#378,.T.);
#479=FACE_BOUND('',#379,.T.);
#480=FACE_BOUND('',#380,.T.);
#481=FACE_BOUND('',#381,.T.);
#482=FACE_BOUND('',#382,.T.);
#483=FACE_BOUND('',#383,.T.);
#484=FACE_BOUND('',#384,.T.);
#485=FACE_BOUND('',#385,.T.);
#486=FACE_BOUND('',#386,.T.);
#487=FACE_BOUND('',#387,.T.);
#488=FACE_BOUND('',#388,.T.);
#489=FACE_BOUND('',#389,.T.);
#490=FACE_BOUND('',#390,.T.);
#491=FACE_BOUND('',#391,.T.);
#492=FACE_BOUND('',#392,.T.);
#493=FACE_BOUND('',#393,.T.);
#494=FACE_BOUND('',#394,.T.);
#495=FACE_BOUND('',#395,.T.);
#496=FACE_BOUND('',#396,.T.);
#497=FACE_BOUND('',#397,.T.);
#498=FACE_BOUND('',#398,.T.);
#499=FACE_BOUND('',#399,.T.);
#500=FACE_BOUND('',#400,.T.);
#501=FACE_BOUND('',#401,.T.);
#502=FACE_BOUND('',#402,.T.);
#503=FACE_BOUND('',#403,.T.);
#504=FACE_BOUND('',#404,.T.);
#505=FACE_BOUND('',#34,.T.);
#506=FACE_BOUND('',#35,.T.);
#507=FACE_BOUND('',#36,.T.);
#508=FACE_BOUND('',#37,.T.);
#509=FACE_BOUND('',#38,.T.);
#510=FACE_BOUND('',#39,.T.);
#511=FACE_BOUND('',#40,.T.);
#512=FACE_BOUND('',#41,.T.);
#513=FACE_BOUND('',#42,.T.);
#514=FACE_BOUND('',#405,.T.);
#515=FACE_BOUND('',#406,.T.);
#516=FACE_BOUND('',#407,.T.);
#517=FACE_BOUND('',#408,.T.);
#518=FACE_BOUND('',#409,.T.);
#519=FACE_BOUND('',#410,.T.);
#520=FACE_BOUND('',#411,.T.);
#521=FACE_BOUND('',#412,.T.);
#522=FACE_BOUND('',#413,.T.);
#523=FACE_BOUND('',#414,.T.);
#524=FACE_BOUND('',#415,.T.);
#525=FACE_BOUND('',#416,.T.);
#526=FACE_BOUND('',#417,.T.);
#527=FACE_BOUND('',#418,.T.);
#528=FACE_BOUND('',#419,.T.);
#529=FACE_BOUND('',#420,.T.);
#530=FACE_BOUND('',#421,.T.);
#531=FACE_BOUND('',#422,.T.);
#532=FACE_BOUND('',#423,.T.);
#533=FACE_BOUND('',#424,.T.);
#534=FACE_BOUND('',#425,.T.);
#535=FACE_BOUND('',#426,.T.);
#536=FACE_BOUND('',#427,.T.);
#537=FACE_BOUND('',#428,.T.);
#538=FACE_BOUND('',#429,.T.);
#539=FACE_BOUND('',#430,.T.);
#540=FACE_BOUND('',#431,.T.);
#541=FACE_BOUND('',#432,.T.);
#542=FACE_BOUND('',#433,.T.);
#543=FACE_BOUND('',#434,.T.);
#544=FACE_BOUND('',#435,.T.);
#545=FACE_BOUND('',#436,.T.);
#546=FACE_BOUND('',#437,.T.);
#547=FACE_BOUND('',#438,.T.);
#548=FACE_BOUND('',#439,.T.);
#549=FACE_BOUND('',#440,.T.);
#550=FACE_BOUND('',#441,.T.);
#551=FACE_BOUND('',#442,.T.);
#552=FACE_BOUND('',#443,.T.);
#553=FACE_BOUND('',#444,.T.);
#554=FACE_BOUND('',#445,.T.);
#555=FACE_BOUND('',#446,.T.);
#556=FACE_BOUND('',#447,.T.);
#557=FACE_BOUND('',#448,.T.);
#558=PLANE('',#757);
#559=PLANE('',#762);
#560=PLANE('',#769);
#561=PLANE('',#778);
#562=PLANE('',#784);
#563=PLANE('',#795);
#564=PLANE('',#798);
#565=PLANE('',#800);
#566=PLANE('',#821);
#567=PLANE('',#823);
#568=PLANE('',#835);
#569=PLANE('',#839);
#570=PLANE('',#840);
#571=PLANE('',#849);
#572=ADVANCED_FACE('',(#449,#450),#558,.T.);
#573=ADVANCED_FACE('',(#451,#452),#81,.T.);
#574=ADVANCED_FACE('',(#453,#454),#559,.T.);
#575=ADVANCED_FACE('',(#455,#456),#65,.F.);
#576=ADVANCED_FACE('',(#457,#458),#59,.F.);
#577=ADVANCED_FACE('',(#459,#460),#66,.F.);
#578=ADVANCED_FACE('',(#461,#462),#560,.T.);
#579=ADVANCED_FACE('',(#463,#464),#67,.T.);
#580=ADVANCED_FACE('',(#465,#466),#60,.F.);
#581=ADVANCED_FACE('',(#467,#468),#68,.T.);
#582=ADVANCED_FACE('',(#469,#470),#561,.T.);
#583=ADVANCED_FACE('',(#471,#472),#69,.F.);
#584=ADVANCED_FACE('',(#473,#474),#562,.T.);
#585=ADVANCED_FACE('',(#475,#476),#70,.T.);
#586=ADVANCED_FACE('',(#477,#478),#46,.F.);
#587=ADVANCED_FACE('',(#479,#480),#47,.T.);
#588=ADVANCED_FACE('',(#481,#482,#483,#484),#71,.T.);
#589=ADVANCED_FACE('',(#485,#486,#487),#72,.F.);
#590=ADVANCED_FACE('',(#488,#489),#563,.F.);
#591=ADVANCED_FACE('',(#490,#491),#564,.F.);
#592=ADVANCED_FACE('',(#492,#493),#565,.F.);
#593=ADVANCED_FACE('',(#494,#495),#73,.F.);
#594=ADVANCED_FACE('',(#496,#497),#74,.F.);
#595=ADVANCED_FACE('',(#498,#499),#48,.T.);
#596=ADVANCED_FACE('',(#500,#501),#49,.T.);
#597=ADVANCED_FACE('',(#502,#503),#75,.F.);
#598=ADVANCED_FACE('',(#504,#505),#50,.F.);
#599=ADVANCED_FACE('',(#506),#82,.T.);
#600=ADVANCED_FACE('',(#507),#83,.T.);
#601=ADVANCED_FACE('',(#508),#84,.T.);
#602=ADVANCED_FACE('',(#509),#85,.T.);
#603=ADVANCED_FACE('',(#510),#86,.T.);
#604=ADVANCED_FACE('',(#511),#87,.T.);
#605=ADVANCED_FACE('',(#512),#88,.T.);
#606=ADVANCED_FACE('',(#513),#89,.T.);
#607=ADVANCED_FACE('',(#514,#515),#76,.T.);
#608=ADVANCED_FACE('',(#516),#566,.F.);
#609=ADVANCED_FACE('',(#517),#567,.T.);
#610=ADVANCED_FACE('',(#518,#519),#51,.T.);
#611=ADVANCED_FACE('',(#520,#521),#52,.T.);
#612=ADVANCED_FACE('',(#522,#523),#90,.T.);
#613=ADVANCED_FACE('',(#524,#525),#91,.F.);
#614=ADVANCED_FACE('',(#526,#527),#568,.T.);
#615=ADVANCED_FACE('',(#528,#529),#92,.T.);
#616=ADVANCED_FACE('',(#530,#531),#569,.T.);
#617=ADVANCED_FACE('',(#532,#533,#534,#535,#536),#570,.T.);
#618=ADVANCED_FACE('',(#537,#538),#77,.T.);
#619=ADVANCED_FACE('',(#539,#540,#541,#542,#543),#571,.T.);
#620=ADVANCED_FACE('',(#544,#545),#61,.F.);
#621=ADVANCED_FACE('',(#546,#547),#62,.F.);
#622=ADVANCED_FACE('',(#548,#549),#63,.T.);
#623=ADVANCED_FACE('',(#550,#551),#64,.T.);
#624=ADVANCED_FACE('',(#552,#553),#78,.F.);
#625=ADVANCED_FACE('',(#554,#555),#79,.F.);
#626=ADVANCED_FACE('',(#556,#557),#80,.F.);
#627=CLOSED_SHELL('',(#572,#573,#574,#575,#576,#577));
#628=CLOSED_SHELL('',(#578,#579,#580,#581,#582,#583,#584,#585,#586,#587));
#629=CLOSED_SHELL('',(#588,#589,#590,#591,#592,#593,#594,#595,#596,#597,
#598));
#630=CLOSED_SHELL('',(#599));
#631=CLOSED_SHELL('',(#600));
#632=CLOSED_SHELL('',(#601));
#633=CLOSED_SHELL('',(#602));
#634=CLOSED_SHELL('',(#603));
#635=CLOSED_SHELL('',(#604));
#636=CLOSED_SHELL('',(#605));
#637=CLOSED_SHELL('',(#606));
#638=CLOSED_SHELL('',(#607,#608,#609,#610,#611));
#639=CLOSED_SHELL('',(#612,#613,#614,#615,#616,#617,#618,#619,#620,#621,
#622,#623,#624,#625,#626));
#640=STYLED_ITEM('',(#653),#733);
#641=STYLED_ITEM('',(#654),#734);
#642=STYLED_ITEM('',(#655),#735);
#643=STYLED_ITEM('',(#656),#736);
#644=STYLED_ITEM('',(#657),#737);
#645=STYLED_ITEM('',(#658),#738);
#646=STYLED_ITEM('',(#659),#739);
#647=STYLED_ITEM('',(#660),#740);
#648=STYLED_ITEM('',(#661),#741);
#649=STYLED_ITEM('',(#662),#742);
#650=STYLED_ITEM('',(#663),#743);
#651=STYLED_ITEM('',(#664),#744);
#652=STYLED_ITEM('',(#665),#745);
#653=PRESENTATION_STYLE_ASSIGNMENT((#666));
#654=PRESENTATION_STYLE_ASSIGNMENT((#667));
#655=PRESENTATION_STYLE_ASSIGNMENT((#668));
#656=PRESENTATION_STYLE_ASSIGNMENT((#669));
#657=PRESENTATION_STYLE_ASSIGNMENT((#670));
#658=PRESENTATION_STYLE_ASSIGNMENT((#671));
#659=PRESENTATION_STYLE_ASSIGNMENT((#672));
#660=PRESENTATION_STYLE_ASSIGNMENT((#673));
#661=PRESENTATION_STYLE_ASSIGNMENT((#674));
#662=PRESENTATION_STYLE_ASSIGNMENT((#675));
#663=PRESENTATION_STYLE_ASSIGNMENT((#676));
#664=PRESENTATION_STYLE_ASSIGNMENT((#677));
#665=PRESENTATION_STYLE_ASSIGNMENT((#678));
#666=SURFACE_STYLE_USAGE(.BOTH.,#679);
#667=SURFACE_STYLE_USAGE(.BOTH.,#680);
#668=SURFACE_STYLE_USAGE(.BOTH.,#681);
#669=SURFACE_STYLE_USAGE(.BOTH.,#682);
#670=SURFACE_STYLE_USAGE(.BOTH.,#683);
#671=SURFACE_STYLE_USAGE(.BOTH.,#684);
#672=SURFACE_STYLE_USAGE(.BOTH.,#685);
#673=SURFACE_STYLE_USAGE(.BOTH.,#686);
#674=SURFACE_STYLE_USAGE(.BOTH.,#687);
#675=SURFACE_STYLE_USAGE(.BOTH.,#688);
#676=SURFACE_STYLE_USAGE(.BOTH.,#689);
#677=SURFACE_STYLE_USAGE(.BOTH.,#690);
#678=SURFACE_STYLE_USAGE(.BOTH.,#691);
#679=SURFACE_SIDE_STYLE('',(#692));
#680=SURFACE_SIDE_STYLE('',(#693));
#681=SURFACE_SIDE_STYLE('',(#694));
#682=SURFACE_SIDE_STYLE('',(#695));
#683=SURFACE_SIDE_STYLE('',(#696));
#684=SURFACE_SIDE_STYLE('',(#697));
#685=SURFACE_SIDE_STYLE('',(#698));
#686=SURFACE_SIDE_STYLE('',(#699));
#687=SURFACE_SIDE_STYLE('',(#700));
#688=SURFACE_SIDE_STYLE('',(#701));
#689=SURFACE_SIDE_STYLE('',(#702));
#690=SURFACE_SIDE_STYLE('',(#703));
#691=SURFACE_SIDE_STYLE('',(#704));
#692=SURFACE_STYLE_FILL_AREA(#705);
#693=SURFACE_STYLE_FILL_AREA(#706);
#694=SURFACE_STYLE_FILL_AREA(#707);
#695=SURFACE_STYLE_FILL_AREA(#708);
#696=SURFACE_STYLE_FILL_AREA(#709);
#697=SURFACE_STYLE_FILL_AREA(#710);
#698=SURFACE_STYLE_FILL_AREA(#711);
#699=SURFACE_STYLE_FILL_AREA(#712);
#700=SURFACE_STYLE_FILL_AREA(#713);
#701=SURFACE_STYLE_FILL_AREA(#714);
#702=SURFACE_STYLE_FILL_AREA(#715);
#703=SURFACE_STYLE_FILL_AREA(#716);
#704=SURFACE_STYLE_FILL_AREA(#717);
#705=FILL_AREA_STYLE('',(#718));
#706=FILL_AREA_STYLE('',(#719));
#707=FILL_AREA_STYLE('',(#720));
#708=FILL_AREA_STYLE('',(#721));
#709=FILL_AREA_STYLE('',(#722));
#710=FILL_AREA_STYLE('',(#723));
#711=FILL_AREA_STYLE('',(#724));
#712=FILL_AREA_STYLE('',(#725));
#713=FILL_AREA_STYLE('',(#726));
#714=FILL_AREA_STYLE('',(#727));
#715=FILL_AREA_STYLE('',(#728));
#716=FILL_AREA_STYLE('',(#729));
#717=FILL_AREA_STYLE('',(#730));
#718=FILL_AREA_STYLE_COLOUR('',#731);
#719=FILL_AREA_STYLE_COLOUR('',#731);
#720=FILL_AREA_STYLE_COLOUR('',#731);
#721=FILL_AREA_STYLE_COLOUR('',#731);
#722=FILL_AREA_STYLE_COLOUR('',#731);
#723=FILL_AREA_STYLE_COLOUR('',#731);
#724=FILL_AREA_STYLE_COLOUR('',#731);
#725=FILL_AREA_STYLE_COLOUR('',#731);
#726=FILL_AREA_STYLE_COLOUR('',#731);
#727=FILL_AREA_STYLE_COLOUR('',#731);
#728=FILL_AREA_STYLE_COLOUR('',#731);
#729=FILL_AREA_STYLE_COLOUR('',#731);
#730=FILL_AREA_STYLE_COLOUR('',#732);
#731=COLOUR_RGB('',0.331739127635956,0.340869575738907,0.349999994039536);
#732=COLOUR_RGB('',0.506983280181885,0.531564235687256,0.550000011920929);
#733=MANIFOLD_SOLID_BREP('',#627);
#734=MANIFOLD_SOLID_BREP('',#628);
#735=MANIFOLD_SOLID_BREP('',#629);
#736=MANIFOLD_SOLID_BREP('',#630);
#737=MANIFOLD_SOLID_BREP('',#631);
#738=MANIFOLD_SOLID_BREP('',#632);
#739=MANIFOLD_SOLID_BREP('',#633);
#740=MANIFOLD_SOLID_BREP('',#634);
#741=MANIFOLD_SOLID_BREP('',#635);
#742=MANIFOLD_SOLID_BREP('',#636);
#743=MANIFOLD_SOLID_BREP('',#637);
#744=MANIFOLD_SOLID_BREP('',#638);
#745=MANIFOLD_SOLID_BREP('',#639);
#746=SHAPE_DEFINITION_REPRESENTATION(#1297,#751);
#747=SHAPE_DEFINITION_REPRESENTATION(#1296,#752);
#748=SHAPE_DEFINITION_REPRESENTATION(#1299,#753);
#749=SHAPE_DEFINITION_REPRESENTATION(#1295,#754);
#750=SHAPE_DEFINITION_REPRESENTATION(#1302,#755);
#751=SHAPE_REPRESENTATION('UE\X2\74038F74627F\X0\',(#756),#1284);
#752=SHAPE_REPRESENTATION('UE\X2\7441547453A46D63\X0\?',(#756,#817,#827),
#1283);
#753=SHAPE_REPRESENTATION('\X2\504F5FC3595798764E1D\X0\',(#756),#1285);
#754=SHAPE_REPRESENTATION(
'uepf\X2\752FFE40557F93585B2A6E3E893032209A87934B5FD37E3E6FC26940E63B941E51AE6F70941E51AD917193B5\X0\?',
(#756,#828,#862),#1282);
#755=SHAPE_REPRESENTATION('PF\X2\51B2538B57065F625EA7\X0\',(#756),#1286);
#756=AXIS2_PLACEMENT_3D('',#1077,#863,#864);
#757=AXIS2_PLACEMENT_3D('',#1078,#865,#866);
#758=AXIS2_PLACEMENT_3D('',#1079,#867,#868);
#759=AXIS2_PLACEMENT_3D('',#1081,#869,#870);
#760=AXIS2_PLACEMENT_3D('',#1083,#871,#872);
#761=AXIS2_PLACEMENT_3D('',#1084,#873,#874);
#762=AXIS2_PLACEMENT_3D('',#1086,#875,#876);
#763=AXIS2_PLACEMENT_3D('',#1087,#877,#878);
#764=AXIS2_PLACEMENT_3D('',#1089,#879,#880);
#765=AXIS2_PLACEMENT_3D('',#1090,#881,#882);
#766=AXIS2_PLACEMENT_3D('',#1092,#883,#884);
#767=AXIS2_PLACEMENT_3D('',#1093,#885,#886);
#768=AXIS2_PLACEMENT_3D('',#1095,#887,#888);
#769=AXIS2_PLACEMENT_3D('',#1096,#889,#890);
#770=AXIS2_PLACEMENT_3D('',#1097,#891,#892);
#771=AXIS2_PLACEMENT_3D('',#1099,#893,#894);
#772=AXIS2_PLACEMENT_3D('',#1101,#895,#896);
#773=AXIS2_PLACEMENT_3D('',#1102,#897,#898);
#774=AXIS2_PLACEMENT_3D('',#1104,#899,#900);
#775=AXIS2_PLACEMENT_3D('',#1105,#901,#902);
#776=AXIS2_PLACEMENT_3D('',#1107,#903,#904);
#777=AXIS2_PLACEMENT_3D('',#1108,#905,#906);
#778=AXIS2_PLACEMENT_3D('',#1110,#907,#908);
#779=AXIS2_PLACEMENT_3D('',#1111,#909,#910);
#780=AXIS2_PLACEMENT_3D('',#1113,#911,#912);
#781=AXIS2_PLACEMENT_3D('',#1115,#913,#914);
#782=AXIS2_PLACEMENT_3D('',#1116,#915,#916);
#783=AXIS2_PLACEMENT_3D('',#1118,#917,#918);
#784=AXIS2_PLACEMENT_3D('',#1120,#919,#920);
#785=AXIS2_PLACEMENT_3D('',#1121,#921,#922);
#786=AXIS2_PLACEMENT_3D('',#1123,#923,#924);
#787=AXIS2_PLACEMENT_3D('',#1124,#925,#926);
#788=AXIS2_PLACEMENT_3D('',#1125,#927,#928);
#789=AXIS2_PLACEMENT_3D('',#1126,#929,#930);
#790=AXIS2_PLACEMENT_3D('',#1139,#931,#932);
#791=AXIS2_PLACEMENT_3D('',#1141,#933,#934);
#792=AXIS2_PLACEMENT_3D('',#1155,#935,#936);
#793=AXIS2_PLACEMENT_3D('',#1156,#937,#938);
#794=AXIS2_PLACEMENT_3D('',#1158,#939,#940);
#795=AXIS2_PLACEMENT_3D('',#1177,#941,#942);
#796=AXIS2_PLACEMENT_3D('',#1178,#943,#944);
#797=AXIS2_PLACEMENT_3D('',#1180,#945,#946);
#798=AXIS2_PLACEMENT_3D('',#1182,#947,#948);
#799=AXIS2_PLACEMENT_3D('',#1183,#949,#950);
#800=AXIS2_PLACEMENT_3D('',#1185,#951,#952);
#801=AXIS2_PLACEMENT_3D('',#1186,#953,#954);
#802=AXIS2_PLACEMENT_3D('',#1188,#955,#956);
#803=AXIS2_PLACEMENT_3D('',#1189,#957,#958);
#804=AXIS2_PLACEMENT_3D('',#1190,#959,#960);
#805=AXIS2_PLACEMENT_3D('',#1191,#961,#962);
#806=AXIS2_PLACEMENT_3D('',#1192,#963,#964);
#807=AXIS2_PLACEMENT_3D('',#1193,#965,#966);
#808=AXIS2_PLACEMENT_3D('',#1195,#967,#968);
#809=AXIS2_PLACEMENT_3D('',#1197,#969,#970);
#810=AXIS2_PLACEMENT_3D('',#1199,#971,#972);
#811=AXIS2_PLACEMENT_3D('',#1201,#973,#974);
#812=AXIS2_PLACEMENT_3D('',#1203,#975,#976);
#813=AXIS2_PLACEMENT_3D('',#1205,#977,#978);
#814=AXIS2_PLACEMENT_3D('',#1207,#979,#980);
#815=AXIS2_PLACEMENT_3D('',#1209,#981,#982);
#816=AXIS2_PLACEMENT_3D('',#1211,#983,#984);
#817=AXIS2_PLACEMENT_3D('',#1213,#985,#986);
#818=AXIS2_PLACEMENT_3D('',#1214,#987,#988);
#819=AXIS2_PLACEMENT_3D('',#1215,#989,#990);
#820=AXIS2_PLACEMENT_3D('',#1217,#991,#992);
#821=AXIS2_PLACEMENT_3D('',#1219,#993,#994);
#822=AXIS2_PLACEMENT_3D('',#1220,#995,#996);
#823=AXIS2_PLACEMENT_3D('',#1222,#997,#998);
#824=AXIS2_PLACEMENT_3D('',#1223,#999,#1000);
#825=AXIS2_PLACEMENT_3D('',#1225,#1001,#1002);
#826=AXIS2_PLACEMENT_3D('',#1226,#1003,#1004);
#827=AXIS2_PLACEMENT_3D('',#1227,#1005,#1006);
#828=AXIS2_PLACEMENT_3D('',#1228,#1007,#1008);
#829=AXIS2_PLACEMENT_3D('',#1229,#1009,#1010);
#830=AXIS2_PLACEMENT_3D('',#1230,#1011,#1012);
#831=AXIS2_PLACEMENT_3D('',#1232,#1013,#1014);
#832=AXIS2_PLACEMENT_3D('',#1234,#1015,#1016);
#833=AXIS2_PLACEMENT_3D('',#1235,#1017,#1018);
#834=AXIS2_PLACEMENT_3D('',#1237,#1019,#1020);
#835=AXIS2_PLACEMENT_3D('',#1239,#1021,#1022);
#836=AXIS2_PLACEMENT_3D('',#1240,#1023,#1024);
#837=AXIS2_PLACEMENT_3D('',#1241,#1025,#1026);
#838=AXIS2_PLACEMENT_3D('',#1243,#1027,#1028);
#839=AXIS2_PLACEMENT_3D('',#1245,#1029,#1030);
#840=AXIS2_PLACEMENT_3D('',#1246,#1031,#1032);
#841=AXIS2_PLACEMENT_3D('',#1247,#1033,#1034);
#842=AXIS2_PLACEMENT_3D('',#1249,#1035,#1036);
#843=AXIS2_PLACEMENT_3D('',#1251,#1037,#1038);
#844=AXIS2_PLACEMENT_3D('',#1253,#1039,#1040);
#845=AXIS2_PLACEMENT_3D('',#1255,#1041,#1042);
#846=AXIS2_PLACEMENT_3D('',#1257,#1043,#1044);
#847=AXIS2_PLACEMENT_3D('',#1258,#1045,#1046);
#848=AXIS2_PLACEMENT_3D('',#1260,#1047,#1048);
#849=AXIS2_PLACEMENT_3D('',#1262,#1049,#1050);
#850=AXIS2_PLACEMENT_3D('',#1263,#1051,#1052);
#851=AXIS2_PLACEMENT_3D('',#1265,#1053,#1054);
#852=AXIS2_PLACEMENT_3D('',#1267,#1055,#1056);
#853=AXIS2_PLACEMENT_3D('',#1269,#1057,#1058);
#854=AXIS2_PLACEMENT_3D('',#1271,#1059,#1060);
#855=AXIS2_PLACEMENT_3D('',#1273,#1061,#1062);
#856=AXIS2_PLACEMENT_3D('',#1274,#1063,#1064);
#857=AXIS2_PLACEMENT_3D('',#1275,#1065,#1066);
#858=AXIS2_PLACEMENT_3D('',#1276,#1067,#1068);
#859=AXIS2_PLACEMENT_3D('',#1277,#1069,#1070);
#860=AXIS2_PLACEMENT_3D('',#1278,#1071,#1072);
#861=AXIS2_PLACEMENT_3D('',#1279,#1073,#1074);
#862=AXIS2_PLACEMENT_3D('',#1280,#1075,#1076);
#863=DIRECTION('',(0.,0.,1.));
#864=DIRECTION('',(1.,0.,0.));
#865=DIRECTION('',(-6.12303176911189E-17,-1.,0.));
#866=DIRECTION('',(1.,-6.12303176911189E-17,0.));
#867=DIRECTION('',(-6.12303176911189E-17,-1.,0.));
#868=DIRECTION('',(1.,-6.12303176911189E-17,0.));
#869=DIRECTION('',(-6.12303176911189E-17,-1.,0.));
#870=DIRECTION('',(1.,-6.12303176911189E-17,0.));
#871=DIRECTION('',(-6.12303176911189E-17,-1.,0.));
#872=DIRECTION('',(0.,0.,1.));
#873=DIRECTION('',(-6.12303176911189E-17,-1.,0.));
#874=DIRECTION('',(1.,-6.12303176911189E-17,0.));
#875=DIRECTION('',(6.12303176911189E-17,1.,0.));
#876=DIRECTION('',(-1.,6.12303176911189E-17,0.));
#877=DIRECTION('',(-6.12303176911189E-17,-1.,0.));
#878=DIRECTION('',(1.,-6.12303176911189E-17,0.));
#879=DIRECTION('',(-6.12303176911189E-17,-1.,0.));
#880=DIRECTION('',(1.,-6.12303176911189E-17,0.));
#881=DIRECTION('',(-6.12303176911189E-17,-1.,0.));
#882=DIRECTION('',(1.,-6.12303176911189E-17,0.));
#883=DIRECTION('',(-6.12303176911189E-17,-1.,0.));
#884=DIRECTION('',(1.,-6.12303176911189E-17,0.));
#885=DIRECTION('',(-6.12303176911189E-17,-1.,0.));
#886=DIRECTION('',(1.,-6.12303176911189E-17,0.));
#887=DIRECTION('',(-6.12303176911189E-17,-1.,0.));
#888=DIRECTION('',(1.,-6.12303176911189E-17,0.));
#889=DIRECTION('',(6.12303176911189E-17,1.,0.));
#890=DIRECTION('',(-1.,6.12303176911189E-17,0.));
#891=DIRECTION('',(-6.12303176911189E-17,-1.,0.));
#892=DIRECTION('',(1.,-6.12303176911189E-17,0.));
#893=DIRECTION('',(-6.12303176911189E-17,-1.,0.));
#894=DIRECTION('',(1.,-6.12303176911189E-17,0.));
#895=DIRECTION('',(-6.12303176911189E-17,-1.,0.));
#896=DIRECTION('',(1.,-6.12303176911189E-17,0.));
#897=DIRECTION('',(-6.12303176911189E-17,-1.,0.));
#898=DIRECTION('',(1.,-6.12303176911189E-17,0.));
#899=DIRECTION('',(-6.12303176911189E-17,-1.,0.));
#900=DIRECTION('',(1.,-6.12303176911189E-17,0.));
#901=DIRECTION('',(-6.12303176911189E-17,-1.,0.));
#902=DIRECTION('',(1.,-6.12303176911189E-17,0.));
#903=DIRECTION('',(-6.12303176911189E-17,-1.,0.));
#904=DIRECTION('',(1.,-6.12303176911189E-17,0.));
#905=DIRECTION('',(6.12303176911188E-17,1.,0.));
#906=DIRECTION('',(-1.,6.12303176911188E-17,0.));
#907=DIRECTION('',(6.12303176911189E-17,1.,0.));
#908=DIRECTION('',(-1.,6.12303176911189E-17,0.));
#909=DIRECTION('',(6.12303176911189E-17,1.,0.));
#910=DIRECTION('',(-1.,6.12303176911189E-17,0.));
#911=DIRECTION('',(6.12303176911189E-17,1.,0.));
#912=DIRECTION('',(-1.,6.12303176911189E-17,0.));
#913=DIRECTION('',(-6.12303176911189E-17,-1.,0.));
#914=DIRECTION('',(1.,-6.12303176911189E-17,0.));
#915=DIRECTION('',(6.12303176911188E-17,1.,0.));
#916=DIRECTION('',(-1.,6.12303176911188E-17,0.));
#917=DIRECTION('',(-6.12303176911189E-17,-1.,0.));
#918=DIRECTION('',(1.,-6.12303176911189E-17,0.));
#919=DIRECTION('',(-6.12303176911189E-17,-1.,0.));
#920=DIRECTION('',(1.,-6.12303176911189E-17,0.));
#921=DIRECTION('',(-6.12303176911189E-17,-1.,0.));
#922=DIRECTION('',(1.,-6.12303176911189E-17,0.));
#923=DIRECTION('',(-6.12303176911189E-17,-1.,0.));
#924=DIRECTION('',(1.,-6.12303176911189E-17,0.));
#925=DIRECTION('',(6.12303176911188E-17,1.,0.));
#926=DIRECTION('',(-1.,6.12303176911188E-17,0.));
#927=DIRECTION('',(-6.12303176911188E-17,-1.,0.));
#928=DIRECTION('',(1.,-6.12303176911188E-17,0.));
#929=DIRECTION('',(-6.12303176911189E-17,-1.,0.));
#930=DIRECTION('',(1.,-6.12303176911189E-17,0.));
#931=DIRECTION('',(-6.12303176911192E-17,-1.,0.));
#932=DIRECTION('',(1.,-6.12303176911192E-17,0.));
#933=DIRECTION('',(6.12303176911188E-17,1.,0.));
#934=DIRECTION('',(-1.,6.12303176911188E-17,0.));
#935=DIRECTION('',(-6.12303176911189E-17,-1.,0.));
#936=DIRECTION('',(1.,-6.12303176911189E-17,0.));
#937=DIRECTION('',(-6.12303176911189E-17,-1.,0.));
#938=DIRECTION('',(1.,-6.12303176911189E-17,0.));
#939=DIRECTION('',(-6.12303176911189E-17,-1.,0.));
#940=DIRECTION('',(1.,-6.12303176911189E-17,0.));
#941=DIRECTION('',(-6.12303176911189E-17,-1.,0.));
#942=DIRECTION('',(1.,-6.12303176911189E-17,0.));
#943=DIRECTION('',(-6.12303176911189E-17,-1.,0.));
#944=DIRECTION('',(1.,-6.12303176911189E-17,0.));
#945=DIRECTION('',(-6.12303176911189E-17,-1.,0.));
#946=DIRECTION('',(1.,-6.12303176911189E-17,0.));
#947=DIRECTION('',(6.12303176911189E-17,1.,0.));
#948=DIRECTION('',(-1.,6.12303176911189E-17,0.));
#949=DIRECTION('',(6.12303176911189E-17,1.,0.));
#950=DIRECTION('',(-1.,6.12303176911189E-17,0.));
#951=DIRECTION('',(-6.12303176911189E-17,-1.,0.));
#952=DIRECTION('',(1.,-6.12303176911189E-17,0.));
#953=DIRECTION('',(-6.12303176911189E-17,-1.,0.));
#954=DIRECTION('',(1.,-6.12303176911189E-17,0.));
#955=DIRECTION('',(-6.12303176911189E-17,-1.,0.));
#956=DIRECTION('',(1.,-6.12303176911189E-17,0.));
#957=DIRECTION('',(-4.64339538973997E-32,-7.58349060536309E-16,1.));
#958=DIRECTION('',(0.,-1.,-7.58349060536309E-16));
#959=DIRECTION('',(-6.12303176911192E-17,-1.,0.));
#960=DIRECTION('',(1.,-6.12303176911192E-17,0.));
#961=DIRECTION('',(6.12303176911188E-17,1.,0.));
#962=DIRECTION('',(-1.,6.12303176911188E-17,0.));
#963=DIRECTION('',(0.,0.,1.));
#964=DIRECTION('',(0.,1.,0.));
#965=DIRECTION('',(0.,0.,1.));
#966=DIRECTION('',(0.,-1.,0.));
#967=DIRECTION('',(0.,0.,-1.));
#968=DIRECTION('',(0.,-1.,0.));
#969=DIRECTION('',(-7.28894736470869E-33,-1.19041475523259E-16,1.));
#970=DIRECTION('',(6.12303176911189E-17,1.,1.19041475523259E-16));
#971=DIRECTION('',(0.707106781186548,-1.62337848376856E-16,0.707106781186547));
#972=DIRECTION('',(1.45405352276068E-16,1.,8.41750345849488E-17));
#973=DIRECTION('',(1.,-1.80271793214378E-16,-1.83697019872103E-16));
#974=DIRECTION('',(1.80271793214378E-16,1.,-2.18675642948006E-32));
#975=DIRECTION('',(0.707106781186547,-1.62337848376856E-16,-0.707106781186548));
#976=DIRECTION('',(1.45405352276068E-16,1.,-8.41750345849488E-17));
#977=DIRECTION('',(-1.22464679914735E-16,-1.19041475523259E-16,-1.));
#978=DIRECTION('',(6.12303176911189E-17,1.,-1.19041475523259E-16));
#979=DIRECTION('',(-0.707106781186547,-7.57451026696622E-17,-0.707106781186548));
#980=DIRECTION('',(-2.29447168938299E-17,1.,-8.41750345849488E-17));
#981=DIRECTION('',(-1.,-5.78111578321401E-17,-1.60812264967664E-16));
#982=DIRECTION('',(-5.78111578321401E-17,1.,-1.9143329303988E-32));
#983=DIRECTION('',(-0.707106781186548,-7.57451026696621E-17,0.707106781186547));
#984=DIRECTION('',(-2.294471689383E-17,1.,8.41750345849488E-17));
#985=DIRECTION('',(0.,0.,1.));
#986=DIRECTION('',(1.,0.,0.));
#987=DIRECTION('',(0.,0.,-1.));
#988=DIRECTION('',(-1.,0.,0.));
#989=DIRECTION('',(0.,0.,-1.));
#990=DIRECTION('',(-1.,0.,0.));
#991=DIRECTION('',(0.,0.,-1.));
#992=DIRECTION('',(-1.,0.,0.));
#993=DIRECTION('',(0.,0.,-1.));
#994=DIRECTION('',(-1.,0.,0.));
#995=DIRECTION('',(0.,0.,-1.));
#996=DIRECTION('',(-1.,0.,0.));
#997=DIRECTION('',(0.,0.,-1.));
#998=DIRECTION('',(-1.,0.,0.));
#999=DIRECTION('',(0.,0.,-1.));
#1000=DIRECTION('',(-1.,0.,0.));
#1001=DIRECTION('',(0.,0.,1.));
#1002=DIRECTION('',(1.,0.,0.));
#1003=DIRECTION('',(0.,0.,-1.));
#1004=DIRECTION('',(-1.,0.,0.));
#1005=DIRECTION('',(0.,0.,1.));
#1006=DIRECTION('',(1.,0.,0.));
#1007=DIRECTION('',(0.,0.,1.));
#1008=DIRECTION('',(1.,0.,0.));
#1009=DIRECTION('',(-6.12303176911189E-17,-1.,0.));
#1010=DIRECTION('',(0.,0.,1.));
#1011=DIRECTION('',(6.12303176911189E-17,1.,0.));
#1012=DIRECTION('',(-1.,6.12303176911189E-17,0.));
#1013=DIRECTION('',(-6.12303176911189E-17,-1.,0.));
#1014=DIRECTION('',(1.,-6.12303176911189E-17,0.));
#1015=DIRECTION('',(-6.12303176911189E-17,-1.,0.));
#1016=DIRECTION('',(0.,0.,1.));
#1017=DIRECTION('',(-6.12303176911189E-17,-1.,0.));
#1018=DIRECTION('',(1.,-6.12303176911189E-17,0.));
#1019=DIRECTION('',(-6.12303176911189E-17,-1.,0.));
#1020=DIRECTION('',(1.,-6.12303176911189E-17,0.));
#1021=DIRECTION('',(-6.12303176911189E-17,-1.,0.));
#1022=DIRECTION('',(1.,-6.12303176911189E-17,0.));
#1023=DIRECTION('',(-6.12303176911189E-17,-1.,0.));
#1024=DIRECTION('',(0.,0.,1.));
#1025=DIRECTION('',(-6.12303176911189E-17,-1.,0.));
#1026=DIRECTION('',(1.,-6.12303176911189E-17,0.));
#1027=DIRECTION('',(-6.12303176911189E-17,-1.,0.));
#1028=DIRECTION('',(1.,-6.12303176911189E-17,0.));
#1029=DIRECTION('',(6.12303176911189E-17,1.,0.));
#1030=DIRECTION('',(-1.,6.12303176911189E-17,0.));
#1031=DIRECTION('',(-6.12303176911189E-17,-1.,0.));
#1032=DIRECTION('',(1.,-6.12303176911189E-17,0.));
#1033=DIRECTION('',(5.96311194867027E-17,1.,0.));
#1034=DIRECTION('',(1.,-5.96311194867027E-17,0.));
#1035=DIRECTION('',(5.96311194867027E-17,1.,0.));
#1036=DIRECTION('',(1.,-5.96311194867027E-17,0.));
#1037=DIRECTION('',(5.96311194867027E-17,1.,0.));
#1038=DIRECTION('',(1.,-5.96311194867027E-17,0.));
#1039=DIRECTION('',(-6.12303176911189E-17,-1.,0.));
#1040=DIRECTION('',(1.,-6.12303176911189E-17,0.));
#1041=DIRECTION('',(-6.12303176911189E-17,-1.,0.));
#1042=DIRECTION('',(1.,-6.12303176911189E-17,0.));
#1043=DIRECTION('',(-6.12303176911189E-17,-1.,0.));
#1044=DIRECTION('',(1.,-6.12303176911189E-17,0.));
#1045=DIRECTION('',(6.12303176911189E-17,1.,0.));
#1046=DIRECTION('',(-1.,6.12303176911189E-17,0.));
#1047=DIRECTION('',(-6.12303176911189E-17,-1.,0.));
#1048=DIRECTION('',(1.,-6.12303176911189E-17,0.));
#1049=DIRECTION('',(6.12303176911189E-17,1.,0.));
#1050=DIRECTION('',(-1.,6.12303176911189E-17,0.));
#1051=DIRECTION('',(6.12303176911189E-17,1.,0.));
#1052=DIRECTION('',(-1.,6.12303176911189E-17,0.));
#1053=DIRECTION('',(6.12303176911189E-17,1.,0.));
#1054=DIRECTION('',(-1.,6.12303176911189E-17,0.));
#1055=DIRECTION('',(6.12303176911189E-17,1.,0.));
#1056=DIRECTION('',(-1.,6.12303176911189E-17,0.));
#1057=DIRECTION('',(6.12303176911189E-17,1.,0.));
#1058=DIRECTION('',(-1.,6.12303176911189E-17,0.));
#1059=DIRECTION('',(6.12303176911189E-17,1.,0.));
#1060=DIRECTION('',(-1.,6.12303176911189E-17,0.));
#1061=DIRECTION('',(-6.12303176911189E-17,-1.,0.));
#1062=DIRECTION('',(1.,-6.12303176911189E-17,0.));
#1063=DIRECTION('',(6.12303176911189E-17,1.,0.));
#1064=DIRECTION('',(-1.,6.12303176911189E-17,0.));
#1065=DIRECTION('',(-6.12303176911189E-17,-1.,0.));
#1066=DIRECTION('',(1.,-6.12303176911189E-17,0.));
#1067=DIRECTION('',(6.12303176911189E-17,1.,0.));
#1068=DIRECTION('',(-1.,6.12303176911189E-17,0.));
#1069=DIRECTION('',(-6.12303176911189E-17,-1.,0.));
#1070=DIRECTION('',(1.,-6.12303176911189E-17,0.));
#1071=DIRECTION('',(-6.12303176911189E-17,-1.,0.));
#1072=DIRECTION('',(1.,-6.12303176911189E-17,0.));
#1073=DIRECTION('',(-6.12303176911189E-17,-1.,0.));
#1074=DIRECTION('',(1.,-6.12303176911189E-17,0.));
#1075=DIRECTION('',(0.,0.,1.));
#1076=DIRECTION('',(1.,0.,0.));
#1077=CARTESIAN_POINT('',(0.,0.,0.));
#1078=CARTESIAN_POINT('',(-3.67381906146713E-16,-6.,15.8333333333333));
#1079=CARTESIAN_POINT('',(-3.67381906146714E-16,-6.00000000000001,0.));
#1080=CARTESIAN_POINT('',(19.0787840283389,-6.00000000000001,0.));
#1081=CARTESIAN_POINT('',(-3.67381906146713E-16,-6.,0.));
#1082=CARTESIAN_POINT('',(15.8333333333333,-6.,0.));
#1083=CARTESIAN_POINT('',(0.,0.,-1.73472347597681E-15));
#1084=CARTESIAN_POINT('',(3.67381906146713E-16,6.,0.));
#1085=CARTESIAN_POINT('',(19.0787840283389,6.,0.));
#1086=CARTESIAN_POINT('',(3.67381906146713E-16,6.,19.0787840283389));
#1087=CARTESIAN_POINT('',(3.67381906146713E-16,6.,0.));
#1088=CARTESIAN_POINT('',(15.8333333333333,6.,0.));
#1089=CARTESIAN_POINT('',(-2.13693808742005E-15,-34.9,0.));
#1090=CARTESIAN_POINT('',(1.66198309507808E-16,2.71431401591297,0.));
#1091=CARTESIAN_POINT('',(15.8333333333333,2.71431401591297,0.));
#1092=CARTESIAN_POINT('',(0.,0.,0.));
#1093=CARTESIAN_POINT('',(-1.66198309507808E-16,-2.71431401591297,0.));
#1094=CARTESIAN_POINT('',(15.8333333333333,-2.71431401591297,0.));
#1095=CARTESIAN_POINT('',(-2.13693808742005E-15,-34.9,0.));
#1096=CARTESIAN_POINT('',(-5.25968428966711E-16,-8.59,13.29));
#1097=CARTESIAN_POINT('',(-5.25968428966711E-16,-8.59,0.));
#1098=CARTESIAN_POINT('',(11.6666666666667,-8.59,0.));
#1099=CARTESIAN_POINT('',(-5.25968428966711E-16,-8.59,0.));
#1100=CARTESIAN_POINT('',(13.29,-8.59,0.));
#1101=CARTESIAN_POINT('',(-2.13693808742005E-15,-34.9,0.));
#1102=CARTESIAN_POINT('',(-1.66198309507808E-16,-2.71431401591297,0.));
#1103=CARTESIAN_POINT('',(11.6666666666667,-2.71431401591297,0.));
#1104=CARTESIAN_POINT('',(0.,0.,0.));
#1105=CARTESIAN_POINT('',(1.66198309507808E-16,2.71431401591297,0.));
#1106=CARTESIAN_POINT('',(11.6666666666667,2.71431401591297,0.));
#1107=CARTESIAN_POINT('',(-2.13693808742005E-15,-34.9,0.));
#1108=CARTESIAN_POINT('',(3.36766747301154E-16,5.50000000000001,0.));
#1109=CARTESIAN_POINT('',(-11.6666666666667,5.50000000000001,0.));
#1110=CARTESIAN_POINT('',(3.97997064992273E-16,6.50000000000001,11.6666666666667));
#1111=CARTESIAN_POINT('',(3.97997064992273E-16,6.50000000000001,0.));
#1112=CARTESIAN_POINT('',(-8.49999999999999,6.50000000000001,0.));
#1113=CARTESIAN_POINT('',(3.97997064992273E-16,6.50000000000001,0.));
#1114=CARTESIAN_POINT('',(-10.6666666666667,6.50000000000001,0.));
#1115=CARTESIAN_POINT('',(-2.13693808742005E-15,-34.9,0.));
#1116=CARTESIAN_POINT('',(3.36766747301154E-16,5.50000000000001,0.));
#1117=CARTESIAN_POINT('',(-7.5,5.50000000000001,0.));
#1118=CARTESIAN_POINT('',(-7.70889699731186E-16,-12.59,0.));
#1119=CARTESIAN_POINT('',(7.49999999999999,-12.59,0.));
#1120=CARTESIAN_POINT('',(-7.70889699731186E-16,-12.59,7.5));
#1121=CARTESIAN_POINT('',(-7.70889699731186E-16,-12.59,0.));
#1122=CARTESIAN_POINT('',(13.29,-12.59,0.));
#1123=CARTESIAN_POINT('',(-2.13693808742005E-15,-34.9,0.));
#1124=CARTESIAN_POINT('',(3.97997064992273E-16,6.50000000000001,0.));
#1125=CARTESIAN_POINT('',(3.36766747301154E-16,5.50000000000001,0.));
#1126=CARTESIAN_POINT('',(-2.13693808742005E-15,-34.9,0.));
#1127=CARTESIAN_POINT('',(2.35338404458915,-15.001218771087,-16.5145399270719));
#1128=CARTESIAN_POINT('',(-0.000546075971980041,-14.024554720238,-16.7176703464322));
#1129=CARTESIAN_POINT('',(-2.35119974070125,-15.0005623479609,-16.5147786871994));
#1130=CARTESIAN_POINT('',(-3.32431939013529,-17.3470164326661,-16.3088629246892));
#1131=CARTESIAN_POINT('',(-2.35151963956567,-19.7008775943159,-16.5147690295576));
#1132=CARTESIAN_POINT('',(-0.000956345700388095,-20.6739620928964,-16.7174918631331));
#1133=CARTESIAN_POINT('',(2.34820249264358,-19.7032726169948,-16.515263262576));
#1134=CARTESIAN_POINT('',(3.32460204440346,-17.3523255719575,-16.3087991584033));
#1135=CARTESIAN_POINT('',(2.35338404458915,-15.001218771087,-16.5145399270719));
#1136=CARTESIAN_POINT('',(-0.000546075971980041,-14.024554720238,-16.7176703464322));
#1137=CARTESIAN_POINT('',(-2.35119974070125,-15.0005623479609,-16.5147786871994));
#1138=CARTESIAN_POINT('',(-2.16840434497101E-15,-14.35,-16.65));
#1139=CARTESIAN_POINT('',(-5.57195890989182E-16,-9.1,0.));
#1140=CARTESIAN_POINT('',(16.65,-9.1,0.));
#1141=CARTESIAN_POINT('',(-1.32257486212817E-15,-21.6,0.));
#1142=CARTESIAN_POINT('',(-16.65,-21.6,0.));
#1143=CARTESIAN_POINT('',(-2.35338404458915,-19.698781228913,16.5145399270719));
#1144=CARTESIAN_POINT('',(0.000546075971977059,-20.675445279762,16.7176703464322));
#1145=CARTESIAN_POINT('',(2.35119974070124,-19.6994376520391,16.5147786871994));
#1146=CARTESIAN_POINT('',(3.32431939013529,-17.3529835673339,16.3088629246892));
#1147=CARTESIAN_POINT('',(2.35151963956566,-14.9991224056841,16.5147690295576));
#1148=CARTESIAN_POINT('',(0.000956345700389646,-14.0260379071036,16.7174918631331));
#1149=CARTESIAN_POINT('',(-2.34820249264358,-14.9967273830052,16.515263262576));
#1150=CARTESIAN_POINT('',(-3.32460204440346,-17.3476744280425,16.3087991584033));
#1151=CARTESIAN_POINT('',(-2.35338404458915,-19.698781228913,16.5145399270719));
#1152=CARTESIAN_POINT('',(0.000546075971977059,-20.675445279762,16.7176703464322));
#1153=CARTESIAN_POINT('',(2.35119974070124,-19.6994376520391,16.5147786871994));
#1154=CARTESIAN_POINT('',(-1.24603696501427E-15,-20.35,16.65));
#1155=CARTESIAN_POINT('',(-2.13693808742005E-15,-34.9,0.));
#1156=CARTESIAN_POINT('',(-1.35319002097373E-15,-22.1,0.));
#1157=CARTESIAN_POINT('',(7.49999999999999,-22.1,0.));
#1158=CARTESIAN_POINT('',(-7.71502002908098E-16,-12.6,0.));
#1159=CARTESIAN_POINT('',(7.49999999999999,-12.6,0.));
#1160=CARTESIAN_POINT('',(1.19041466317899,-20.1878390224539,7.43399537884432));
#1161=CARTESIAN_POINT('',(-8.26709224200143E-5,-20.4310295814279,7.5329951754002));
#1162=CARTESIAN_POINT('',(-1.19008397948932,-20.1880426518346,7.43402391955486));
#1163=CARTESIAN_POINT('',(-2.50611853941787,-19.3055265327894,7.11255636499653));
#1164=CARTESIAN_POINT('',(-3.16243209140188,-17.7552303846362,6.79810038929914));
#1165=CARTESIAN_POINT('',(-2.83920846562733,-16.1621294514313,6.94677835972917));
#1166=CARTESIAN_POINT('',(-1.95789959602449,-14.8453919660629,7.28080410026557));
#1167=CARTESIAN_POINT('',(-0.403878531879016,-14.1880638140163,7.5692270024029));
#1168=CARTESIAN_POINT('',(1.18693187737814,-14.5095451704761,7.43364978612083));
#1169=CARTESIAN_POINT('',(2.17550501349155,-15.1754933587465,7.19527172225474));
#1170=CARTESIAN_POINT('',(2.83841138286373,-16.1600006105576,6.94791179628914));
#1171=CARTESIAN_POINT('',(3.16275522005525,-17.7473089831081,6.79748650181852));
#1172=CARTESIAN_POINT('',(2.50706042780224,-19.3055962254941,7.11231308474215));
#1173=CARTESIAN_POINT('',(1.19041466317899,-20.1878390224539,7.43399537884432));
#1174=CARTESIAN_POINT('',(-8.26709224200143E-5,-20.4310295814279,7.5329951754002));
#1175=CARTESIAN_POINT('',(-1.19008397948932,-20.1880426518346,7.43402391955486));
#1176=CARTESIAN_POINT('',(-1.06234601194091E-15,-20.35,7.49999999999999));
#1177=CARTESIAN_POINT('',(-5.26580732143622E-16,-8.6,13.3));
#1178=CARTESIAN_POINT('',(-5.26580732143622E-16,-8.6,0.));
#1179=CARTESIAN_POINT('',(16.15,-8.6,0.));
#1180=CARTESIAN_POINT('',(-5.26580732143622E-16,-8.6,0.));
#1181=CARTESIAN_POINT('',(13.3,-8.6,0.));
#1182=CARTESIAN_POINT('',(-1.35319002097373E-15,-22.1,16.65));
#1183=CARTESIAN_POINT('',(-1.35319002097373E-15,-22.1,0.));
#1184=CARTESIAN_POINT('',(-16.15,-22.1,0.));
#1185=CARTESIAN_POINT('',(-7.71502002908098E-16,-12.6,7.49999999999999));
#1186=CARTESIAN_POINT('',(-7.71502002908098E-16,-12.6,0.));
#1187=CARTESIAN_POINT('',(13.3,-12.6,0.));
#1188=CARTESIAN_POINT('',(-2.13693808742005E-15,-34.9,0.));
#1189=CARTESIAN_POINT('',(-1.06234601194091E-15,-17.35,16.65));
#1190=CARTESIAN_POINT('',(-5.57195890989182E-16,-9.1,0.));
#1191=CARTESIAN_POINT('',(-1.35319002097373E-15,-22.1,0.));
#1192=CARTESIAN_POINT('',(-2.16840434497101E-15,-17.35,-16.65));
#1193=CARTESIAN_POINT('',(-2.16840434497101E-15,-17.35,-12.2025818570827));
#1194=CARTESIAN_POINT('',(-2.16840434497101E-15,-20.35,-12.2025818570827));
#1195=CARTESIAN_POINT('',(-2.16840434497101E-15,-17.35,-12.2025818570827));
#1196=CARTESIAN_POINT('',(-2.16840434497101E-15,-17.35,-10.4));
#1197=CARTESIAN_POINT('',(0.,0.,13.75));
#1198=CARTESIAN_POINT('',(3.76586980512827E-32,6.1503352377257E-16,10.3383369022127));
#1199=CARTESIAN_POINT('',(9.72271824131503,-5.95325126736956E-16,9.72271824131502));
#1200=CARTESIAN_POINT('',(7.31030812974573,1.6742103456827E-16,7.31030812974572));
#1201=CARTESIAN_POINT('',(13.75,-8.41916868252884E-16,-2.52583402324142E-15));
#1202=CARTESIAN_POINT('',(10.3383369022127,-1.79861291477318E-17,-1.89912167937026E-15));
#1203=CARTESIAN_POINT('',(9.72271824131503,-5.95325126736955E-16,-9.72271824131503));
#1204=CARTESIAN_POINT('',(7.31030812974573,1.6742103456827E-16,-7.31030812974573));
#1205=CARTESIAN_POINT('',(-1.68388934882761E-15,1.03105079785406E-31,-13.75));
#1206=CARTESIAN_POINT('',(-1.26608111958017E-15,6.1503352377257E-16,-10.3383369022127));
#1207=CARTESIAN_POINT('',(-9.72271824131502,5.95325126736955E-16,-9.72271824131503));
#1208=CARTESIAN_POINT('',(-7.31030812974572,1.06264601297687E-15,-7.31030812974573));
#1209=CARTESIAN_POINT('',(-13.75,8.41916868252884E-16,-2.21116864330537E-15));
#1210=CARTESIAN_POINT('',(-10.3383369022127,1.24805317669287E-15,-1.6625313732436E-15));
#1211=CARTESIAN_POINT('',(-9.72271824131503,5.95325126736956E-16,9.72271824131502));
#1212=CARTESIAN_POINT('',(-7.31030812974573,1.06264601297687E-15,7.31030812974572));
#1213=CARTESIAN_POINT('',(0.,0.,0.));
#1214=CARTESIAN_POINT('',(0.,0.,9.));
#1215=CARTESIAN_POINT('',(0.,0.,1.));
#1216=CARTESIAN_POINT('',(-3.,0.,1.));
#1217=CARTESIAN_POINT('',(0.,0.,8.));
#1218=CARTESIAN_POINT('',(-3.,0.,8.));
#1219=CARTESIAN_POINT('',(0.,0.,9.));
#1220=CARTESIAN_POINT('',(0.,0.,9.));
#1221=CARTESIAN_POINT('',(-2.,0.,9.));
#1222=CARTESIAN_POINT('',(0.,0.,0.));
#1223=CARTESIAN_POINT('',(0.,0.,0.));
#1224=CARTESIAN_POINT('',(-2.,0.,0.));
#1225=CARTESIAN_POINT('',(0.,0.,0.));
#1226=CARTESIAN_POINT('',(0.,0.,8.));
#1227=CARTESIAN_POINT('',(-1.06234601194091E-15,-17.35,7.49999999999999));
#1228=CARTESIAN_POINT('',(0.,0.,0.));
#1229=CARTESIAN_POINT('',(0.,0.,0.));
#1230=CARTESIAN_POINT('',(-1.9119466847668E-16,-3.12254901960785,0.));
#1231=CARTESIAN_POINT('',(-24.3001993329303,-3.12254901960785,0.));
#1232=CARTESIAN_POINT('',(-4.59227382683391E-16,-7.5,0.));
#1233=CARTESIAN_POINT('',(23.3238075793812,-7.5,0.));
#1234=CARTESIAN_POINT('',(0.,0.,-1.73472347597681E-15));
#1235=CARTESIAN_POINT('',(-4.59227382683391E-16,-7.5,0.));
#1236=CARTESIAN_POINT('',(18.5404962177392,-7.5,0.));
#1237=CARTESIAN_POINT('',(4.59227382683391E-16,7.5,0.));
#1238=CARTESIAN_POINT('',(18.5404962177392,7.5,0.));
#1239=CARTESIAN_POINT('',(-4.59227382683391E-16,-7.5,18.5404962177392));
#1240=CARTESIAN_POINT('',(0.,0.,0.));
#1241=CARTESIAN_POINT('',(1.9119466847668E-16,3.12254901960784,0.));
#1242=CARTESIAN_POINT('',(24.3001993329303,3.12254901960784,0.));
#1243=CARTESIAN_POINT('',(4.59227382683391E-16,7.49999999999999,0.));
#1244=CARTESIAN_POINT('',(23.3238075793812,7.49999999999999,0.));
#1245=CARTESIAN_POINT('',(4.59227382683391E-16,7.49999999999999,18.5404962177392));
#1246=CARTESIAN_POINT('',(-1.37768214805018E-16,-2.25000000000001,41.));
#1247=CARTESIAN_POINT('',(-1.37768214805018E-16,-2.25000000000001,-31.75));
#1248=CARTESIAN_POINT('',(3.55,-2.25000000000001,-31.75));
#1249=CARTESIAN_POINT('',(27.4963065701559,-2.25000000000001,15.875));
#1250=CARTESIAN_POINT('',(31.0463065701559,-2.25000000000001,15.875));
#1251=CARTESIAN_POINT('',(-27.4963065701559,-2.25000000000001,15.875));
#1252=CARTESIAN_POINT('',(-23.9463065701559,-2.25000000000001,15.875));
#1253=CARTESIAN_POINT('',(-1.37768214805018E-16,-2.25000000000001,0.));
#1254=CARTESIAN_POINT('',(40.,-2.25000000000001,0.));
#1255=CARTESIAN_POINT('',(-1.37768214805018E-16,-2.25000000000001,0.));
#1256=CARTESIAN_POINT('',(25.2920442036621,-2.25000000000001,0.));
#1257=CARTESIAN_POINT('',(-4.59227382683391E-16,-7.5,0.));
#1258=CARTESIAN_POINT('',(7.65378971138981E-17,1.24999999999999,0.));
#1259=CARTESIAN_POINT('',(-41.,1.25,0.));
#1260=CARTESIAN_POINT('',(-7.65378971138991E-17,-1.25000000000001,0.));
#1261=CARTESIAN_POINT('',(41.,-1.25000000000001,0.));
#1262=CARTESIAN_POINT('',(1.37768214805017E-16,2.24999999999999,41.));
#1263=CARTESIAN_POINT('',(1.37768214805016E-16,2.24999999999999,-31.75));
#1264=CARTESIAN_POINT('',(-3.55,2.24999999999999,-31.75));
#1265=CARTESIAN_POINT('',(27.4963065701559,2.24999999999999,15.875));
#1266=CARTESIAN_POINT('',(23.9463065701559,2.24999999999999,15.875));
#1267=CARTESIAN_POINT('',(-27.4963065701559,2.24999999999999,15.875));
#1268=CARTESIAN_POINT('',(-31.0463065701559,2.24999999999999,15.875));
#1269=CARTESIAN_POINT('',(1.37768214805017E-16,2.24999999999999,0.));
#1270=CARTESIAN_POINT('',(-40.,2.25,0.));
#1271=CARTESIAN_POINT('',(1.37768214805017E-16,2.24999999999999,0.));
#1272=CARTESIAN_POINT('',(-25.2920442036621,2.24999999999999,0.));
#1273=CARTESIAN_POINT('',(-1.98998532496137E-16,-3.25000000000001,0.));
#1274=CARTESIAN_POINT('',(1.98998532496136E-16,3.24999999999999,0.));
#1275=CARTESIAN_POINT('',(-7.65378971138991E-17,-1.25000000000001,0.));
#1276=CARTESIAN_POINT('',(7.65378971138981E-17,1.24999999999999,0.));
#1277=CARTESIAN_POINT('',(-27.4963065701559,114.681603940081,15.875));
#1278=CARTESIAN_POINT('',(27.4963065701559,114.681603940081,15.875));
#1279=CARTESIAN_POINT('',(7.02199104257824E-15,114.681603940081,-31.75));
#1280=CARTESIAN_POINT('',(0.,0.,0.));
#1281=MECHANICAL_DESIGN_GEOMETRIC_PRESENTATION_REPRESENTATION('',(#640,
#641,#642,#643,#644,#645,#646,#647,#648,#649,#650,#651,#652),#1282);
#1282=(
GEOMETRIC_REPRESENTATION_CONTEXT(3)
GLOBAL_UNCERTAINTY_ASSIGNED_CONTEXT((#1287))
GLOBAL_UNIT_ASSIGNED_CONTEXT((#1294,#1293,#1292))
REPRESENTATION_CONTEXT(
'uepf\X2\5E2651B2538B57065F625EA7504F5FC3595759167403976274038F74627F\X0\',
'TOP_LEVEL_ASSEMBLY_PART')
);
#1283=(
GEOMETRIC_REPRESENTATION_CONTEXT(3)
GLOBAL_UNCERTAINTY_ASSIGNED_CONTEXT((#1288))
GLOBAL_UNIT_ASSIGNED_CONTEXT((#1294,#1293,#1292))
REPRESENTATION_CONTEXT('UE\X2\88C5914D4F53\X0\','COMPONENT_PART')
);
#1284=(
GEOMETRIC_REPRESENTATION_CONTEXT(3)
GLOBAL_UNCERTAINTY_ASSIGNED_CONTEXT((#1289))
GLOBAL_UNIT_ASSIGNED_CONTEXT((#1294,#1293,#1292))
REPRESENTATION_CONTEXT('UE\X2\74038F74627F\X0\','COMPONENT_PART')
);
#1285=(
GEOMETRIC_REPRESENTATION_CONTEXT(3)
GLOBAL_UNCERTAINTY_ASSIGNED_CONTEXT((#1290))
GLOBAL_UNIT_ASSIGNED_CONTEXT((#1294,#1293,#1292))
REPRESENTATION_CONTEXT('\X2\504F5FC3595798764E1D\X0\','COMPONENT_PART')
);
#1286=(
GEOMETRIC_REPRESENTATION_CONTEXT(3)
GLOBAL_UNCERTAINTY_ASSIGNED_CONTEXT((#1291))
GLOBAL_UNIT_ASSIGNED_CONTEXT((#1294,#1293,#1292))
REPRESENTATION_CONTEXT('PF\X2\51B2538B57065F625EA7\X0\',
'COMPONENT_PART')
);
#1287=UNCERTAINTY_MEASURE_WITH_UNIT(LENGTH_MEASURE(0.005),#1294,
'DISTANCE_ACCURACY_VALUE','Maximum Tolerance applied to model');
#1288=UNCERTAINTY_MEASURE_WITH_UNIT(LENGTH_MEASURE(0.005),#1294,
'DISTANCE_ACCURACY_VALUE','Maximum Tolerance applied to model');
#1289=UNCERTAINTY_MEASURE_WITH_UNIT(LENGTH_MEASURE(0.005),#1294,
'DISTANCE_ACCURACY_VALUE','Maximum Tolerance applied to model');
#1290=UNCERTAINTY_MEASURE_WITH_UNIT(LENGTH_MEASURE(0.005),#1294,
'DISTANCE_ACCURACY_VALUE','Maximum Tolerance applied to model');
#1291=UNCERTAINTY_MEASURE_WITH_UNIT(LENGTH_MEASURE(0.005),#1294,
'DISTANCE_ACCURACY_VALUE','Maximum Tolerance applied to model');
#1292=(
NAMED_UNIT(*)
SI_UNIT($,.STERADIAN.)
SOLID_ANGLE_UNIT()
);
#1293=(
NAMED_UNIT(*)
PLANE_ANGLE_UNIT()
SI_UNIT($,.RADIAN.)
);
#1294=(
LENGTH_UNIT()
NAMED_UNIT(*)
SI_UNIT(.MILLI.,.METRE.)
);
#1295=PRODUCT_DEFINITION_SHAPE('','',#1304);
#1296=PRODUCT_DEFINITION_SHAPE('','',#1305);
#1297=PRODUCT_DEFINITION_SHAPE('','',#1306);
#1298=PRODUCT_DEFINITION_SHAPE(' ','NAUO PRDDFN',#22);
#1299=PRODUCT_DEFINITION_SHAPE('','',#1307);
#1300=PRODUCT_DEFINITION_SHAPE(' ','NAUO PRDDFN',#23);
#1301=PRODUCT_DEFINITION_SHAPE(' ','NAUO PRDDFN',#24);
#1302=PRODUCT_DEFINITION_SHAPE('','',#1308);
#1303=PRODUCT_DEFINITION_SHAPE(' ','NAUO PRDDFN',#25);
#1304=PRODUCT_DEFINITION('','',#1314,#1309);
#1305=PRODUCT_DEFINITION('','',#1315,#1310);
#1306=PRODUCT_DEFINITION('','',#1316,#1311);
#1307=PRODUCT_DEFINITION('','',#1317,#1312);
#1308=PRODUCT_DEFINITION('','',#1318,#1313);
#1309=PRODUCT_DEFINITION_CONTEXT('',#1340,'design');
#1310=PRODUCT_DEFINITION_CONTEXT('',#1340,'design');
#1311=PRODUCT_DEFINITION_CONTEXT('',#1340,'design');
#1312=PRODUCT_DEFINITION_CONTEXT('',#1340,'design');
#1313=PRODUCT_DEFINITION_CONTEXT('',#1340,'design');
#1314=PRODUCT_DEFINITION_FORMATION_WITH_SPECIFIED_SOURCE('','',#1324,
 .NOT_KNOWN.);
#1315=PRODUCT_DEFINITION_FORMATION_WITH_SPECIFIED_SOURCE('','',#1325,
 .NOT_KNOWN.);
#1316=PRODUCT_DEFINITION_FORMATION_WITH_SPECIFIED_SOURCE('','',#1326,
 .NOT_KNOWN.);
#1317=PRODUCT_DEFINITION_FORMATION_WITH_SPECIFIED_SOURCE('','',#1327,
 .NOT_KNOWN.);
#1318=PRODUCT_DEFINITION_FORMATION_WITH_SPECIFIED_SOURCE('','',#1328,
 .NOT_KNOWN.);
#1319=PRODUCT_RELATED_PRODUCT_CATEGORY('','',(#1324));
#1320=PRODUCT_RELATED_PRODUCT_CATEGORY('','',(#1325));
#1321=PRODUCT_RELATED_PRODUCT_CATEGORY('','',(#1326));
#1322=PRODUCT_RELATED_PRODUCT_CATEGORY('','',(#1327));
#1323=PRODUCT_RELATED_PRODUCT_CATEGORY('','',(#1328));
#1324=PRODUCT('uepf\X2\5E2651B2538B57065F625EA7504F5FC3595759167403976274038F74627F\X0\',
'uepf\X2\5E2651B2538B57065F625EA7504F5FC3595759167403976274038F74627F\X0\',
'uepf\X2\5E2651B2538B57065F625EA7504F5FC3595759167403976274038F74627F\X0\',
(#1334));
#1325=PRODUCT('UE\X2\88C5914D4F53\X0\','UE\X2\88C5914D4F53\X0\',
'UE\X2\88C5914D4F53\X0\',(#1335));
#1326=PRODUCT('UE\X2\74038F74627F\X0\','UE\X2\74038F74627F\X0\',
'UE\X2\74038F74627F\X0\',(#1336));
#1327=PRODUCT('\X2\504F5FC3595798764E1D\X0\','\X2\504F5FC3595798764E1D\X0\',
'\X2\504F5FC3595798764E1D\X0\',(#1337));
#1328=PRODUCT('PF\X2\51B2538B57065F625EA7\X0\','PF\X2\51B2538B57065F625EA7\X0\',
'PF\X2\51B2538B57065F625EA7\X0\',(#1338));
#1329=PRODUCT_CATEGORY('','');
#1330=PRODUCT_CATEGORY('','');
#1331=PRODUCT_CATEGORY('','');
#1332=PRODUCT_CATEGORY('','');
#1333=PRODUCT_CATEGORY('','');
#1334=PRODUCT_CONTEXT('',#1340,'mechanical');
#1335=PRODUCT_CONTEXT('',#1340,'mechanical');
#1336=PRODUCT_CONTEXT('',#1340,'mechanical');
#1337=PRODUCT_CONTEXT('',#1340,'mechanical');
#1338=PRODUCT_CONTEXT('',#1340,'mechanical');
#1339=APPLICATION_PROTOCOL_DEFINITION('international standard',
'automotive_design',2010,#1340);
#1340=APPLICATION_CONTEXT(
'core data for automotive mechanical design processes');
ENDSEC;
END-ISO-10303-21;
