ISO-10303-21;
HEADER;
/* Generated by software containing HOOPS Exchange Step
 * from HOOPS Exchange, Inc. (www.tiangong.cloud) 
 */

FILE_DESCRIPTION(
/* description */ ('Unknown'),
/* implementation_level */ '2;1');

FILE_NAME(
/* name */ '\X2\51B2538B591657086EDA94888F74627F\X0\HK0000-RS\X2\578B\X0\1
 GBT290-2017',
/* time_stamp */ '2025-10-24T17:19:12+08:00',
/* author */ ('Unknown'),
/* organization */ ('Unknown'),
/* preprocessor_version */ 'ST-DEVELOPER v19.4',
/* originating_system */ 'TianGong',
/* authorisation */ 'Unknown');

FILE_SCHEMA (('AUTOMOTIVE_DESIGN {1 0 10303 214 3 1 1}'));
ENDSEC;

DATA;
#10=PROPERTY_DEFINITION_REPRESENTATION(#14,#12);
#11=PROPERTY_DEFINITION_REPRESENTATION(#15,#13);
#12=REPRESENTATION('',(#16),#1557);
#13=REPRESENTATION('',(#17),#1557);
#14=PROPERTY_DEFINITION('pmi validation property','',#1562);
#15=PROPERTY_DEFINITION('pmi validation property','',#1562);
#16=VALUE_REPRESENTATION_ITEM('number of annotations',COUNT_MEASURE(0.));
#17=VALUE_REPRESENTATION_ITEM('number of views',COUNT_MEASURE(0.));
#18=SHAPE_REPRESENTATION_RELATIONSHIP('','',#867,#19);
#19=ADVANCED_BREP_SHAPE_REPRESENTATION('',(#865),#1557);
#20=TOROIDAL_SURFACE('',#1004,10.1,0.4);
#21=TOROIDAL_SURFACE('',#1005,10.1,0.4);
#22=LINE('',#1319,#52);
#23=LINE('',#1323,#53);
#24=LINE('',#1332,#54);
#25=LINE('',#1336,#55);
#26=LINE('',#1345,#56);
#27=LINE('',#1349,#57);
#28=LINE('',#1358,#58);
#29=LINE('',#1362,#59);
#30=LINE('',#1371,#60);
#31=LINE('',#1375,#61);
#32=LINE('',#1384,#62);
#33=LINE('',#1388,#63);
#34=LINE('',#1397,#64);
#35=LINE('',#1401,#65);
#36=LINE('',#1410,#66);
#37=LINE('',#1414,#67);
#38=LINE('',#1423,#68);
#39=LINE('',#1427,#69);
#40=LINE('',#1436,#70);
#41=LINE('',#1440,#71);
#42=LINE('',#1449,#72);
#43=LINE('',#1453,#73);
#44=LINE('',#1462,#74);
#45=LINE('',#1466,#75);
#46=LINE('',#1475,#76);
#47=LINE('',#1479,#77);
#48=LINE('',#1488,#78);
#49=LINE('',#1492,#79);
#50=LINE('',#1500,#80);
#51=LINE('',#1505,#81);
#52=VECTOR('',#1016,1000.);
#53=VECTOR('',#1019,1000.);
#54=VECTOR('',#1032,1000.);
#55=VECTOR('',#1035,1000.);
#56=VECTOR('',#1048,1000.);
#57=VECTOR('',#1051,1000.);
#58=VECTOR('',#1064,1000.);
#59=VECTOR('',#1067,1000.);
#60=VECTOR('',#1080,1000.);
#61=VECTOR('',#1083,1000.);
#62=VECTOR('',#1096,1000.);
#63=VECTOR('',#1099,1000.);
#64=VECTOR('',#1112,1000.);
#65=VECTOR('',#1115,1000.);
#66=VECTOR('',#1128,1000.);
#67=VECTOR('',#1131,1000.);
#68=VECTOR('',#1144,1000.);
#69=VECTOR('',#1147,1000.);
#70=VECTOR('',#1160,1000.);
#71=VECTOR('',#1163,1000.);
#72=VECTOR('',#1176,1000.);
#73=VECTOR('',#1179,1000.);
#74=VECTOR('',#1192,1000.);
#75=VECTOR('',#1195,1000.);
#76=VECTOR('',#1208,1000.);
#77=VECTOR('',#1211,1000.);
#78=VECTOR('',#1224,1000.);
#79=VECTOR('',#1227,1000.);
#80=VECTOR('',#1238,1000.);
#81=VECTOR('',#1241,1000.);
#82=CYLINDRICAL_SURFACE('',#872,1.19999999999999);
#83=CYLINDRICAL_SURFACE('',#879,1.19999999999999);
#84=CYLINDRICAL_SURFACE('',#886,1.19999999999999);
#85=CYLINDRICAL_SURFACE('',#893,1.19999999999999);
#86=CYLINDRICAL_SURFACE('',#900,1.19999999999999);
#87=CYLINDRICAL_SURFACE('',#907,1.19999999999999);
#88=CYLINDRICAL_SURFACE('',#914,1.19999999999999);
#89=CYLINDRICAL_SURFACE('',#921,1.19999999999999);
#90=CYLINDRICAL_SURFACE('',#928,1.19999999999999);
#91=CYLINDRICAL_SURFACE('',#935,1.19999999999999);
#92=CYLINDRICAL_SURFACE('',#942,1.19999999999999);
#93=CYLINDRICAL_SURFACE('',#949,1.19999999999999);
#94=CYLINDRICAL_SURFACE('',#956,1.19999999999999);
#95=CYLINDRICAL_SURFACE('',#963,1.19999999999999);
#96=CYLINDRICAL_SURFACE('',#967,8.10000000000001);
#97=CYLINDRICAL_SURFACE('',#975,10.5);
#98=CYLINDRICAL_SURFACE('',#981,7.50000000000001);
#99=CYLINDRICAL_SURFACE('',#985,8.4);
#100=CYLINDRICAL_SURFACE('',#989,7.50000000000001);
#101=CYLINDRICAL_SURFACE('',#993,8.4);
#102=CYLINDRICAL_SURFACE('',#998,7.50000000000001);
#103=CYLINDRICAL_SURFACE('',#1001,1.19999999999999);
#104=ORIENTED_EDGE('',*,*,#316,.F.);
#105=ORIENTED_EDGE('',*,*,#317,.F.);
#106=ORIENTED_EDGE('',*,*,#318,.F.);
#107=ORIENTED_EDGE('',*,*,#319,.F.);
#108=ORIENTED_EDGE('',*,*,#320,.F.);
#109=ORIENTED_EDGE('',*,*,#317,.T.);
#110=ORIENTED_EDGE('',*,*,#319,.T.);
#111=ORIENTED_EDGE('',*,*,#321,.F.);
#112=ORIENTED_EDGE('',*,*,#322,.F.);
#113=ORIENTED_EDGE('',*,*,#323,.F.);
#114=ORIENTED_EDGE('',*,*,#324,.F.);
#115=ORIENTED_EDGE('',*,*,#325,.F.);
#116=ORIENTED_EDGE('',*,*,#326,.F.);
#117=ORIENTED_EDGE('',*,*,#323,.T.);
#118=ORIENTED_EDGE('',*,*,#325,.T.);
#119=ORIENTED_EDGE('',*,*,#327,.F.);
#120=ORIENTED_EDGE('',*,*,#328,.F.);
#121=ORIENTED_EDGE('',*,*,#329,.F.);
#122=ORIENTED_EDGE('',*,*,#330,.F.);
#123=ORIENTED_EDGE('',*,*,#331,.F.);
#124=ORIENTED_EDGE('',*,*,#332,.F.);
#125=ORIENTED_EDGE('',*,*,#329,.T.);
#126=ORIENTED_EDGE('',*,*,#331,.T.);
#127=ORIENTED_EDGE('',*,*,#333,.F.);
#128=ORIENTED_EDGE('',*,*,#334,.F.);
#129=ORIENTED_EDGE('',*,*,#335,.F.);
#130=ORIENTED_EDGE('',*,*,#336,.F.);
#131=ORIENTED_EDGE('',*,*,#337,.F.);
#132=ORIENTED_EDGE('',*,*,#338,.F.);
#133=ORIENTED_EDGE('',*,*,#335,.T.);
#134=ORIENTED_EDGE('',*,*,#337,.T.);
#135=ORIENTED_EDGE('',*,*,#339,.F.);
#136=ORIENTED_EDGE('',*,*,#340,.F.);
#137=ORIENTED_EDGE('',*,*,#341,.F.);
#138=ORIENTED_EDGE('',*,*,#342,.F.);
#139=ORIENTED_EDGE('',*,*,#343,.F.);
#140=ORIENTED_EDGE('',*,*,#344,.F.);
#141=ORIENTED_EDGE('',*,*,#341,.T.);
#142=ORIENTED_EDGE('',*,*,#343,.T.);
#143=ORIENTED_EDGE('',*,*,#345,.F.);
#144=ORIENTED_EDGE('',*,*,#346,.F.);
#145=ORIENTED_EDGE('',*,*,#347,.F.);
#146=ORIENTED_EDGE('',*,*,#348,.F.);
#147=ORIENTED_EDGE('',*,*,#349,.F.);
#148=ORIENTED_EDGE('',*,*,#350,.F.);
#149=ORIENTED_EDGE('',*,*,#347,.T.);
#150=ORIENTED_EDGE('',*,*,#349,.T.);
#151=ORIENTED_EDGE('',*,*,#351,.F.);
#152=ORIENTED_EDGE('',*,*,#352,.F.);
#153=ORIENTED_EDGE('',*,*,#353,.F.);
#154=ORIENTED_EDGE('',*,*,#354,.F.);
#155=ORIENTED_EDGE('',*,*,#355,.F.);
#156=ORIENTED_EDGE('',*,*,#356,.F.);
#157=ORIENTED_EDGE('',*,*,#353,.T.);
#158=ORIENTED_EDGE('',*,*,#355,.T.);
#159=ORIENTED_EDGE('',*,*,#357,.F.);
#160=ORIENTED_EDGE('',*,*,#358,.F.);
#161=ORIENTED_EDGE('',*,*,#359,.F.);
#162=ORIENTED_EDGE('',*,*,#360,.F.);
#163=ORIENTED_EDGE('',*,*,#361,.F.);
#164=ORIENTED_EDGE('',*,*,#362,.F.);
#165=ORIENTED_EDGE('',*,*,#359,.T.);
#166=ORIENTED_EDGE('',*,*,#361,.T.);
#167=ORIENTED_EDGE('',*,*,#363,.F.);
#168=ORIENTED_EDGE('',*,*,#364,.F.);
#169=ORIENTED_EDGE('',*,*,#365,.F.);
#170=ORIENTED_EDGE('',*,*,#366,.F.);
#171=ORIENTED_EDGE('',*,*,#367,.F.);
#172=ORIENTED_EDGE('',*,*,#368,.F.);
#173=ORIENTED_EDGE('',*,*,#365,.T.);
#174=ORIENTED_EDGE('',*,*,#367,.T.);
#175=ORIENTED_EDGE('',*,*,#369,.F.);
#176=ORIENTED_EDGE('',*,*,#370,.F.);
#177=ORIENTED_EDGE('',*,*,#371,.F.);
#178=ORIENTED_EDGE('',*,*,#372,.F.);
#179=ORIENTED_EDGE('',*,*,#373,.F.);
#180=ORIENTED_EDGE('',*,*,#374,.F.);
#181=ORIENTED_EDGE('',*,*,#371,.T.);
#182=ORIENTED_EDGE('',*,*,#373,.T.);
#183=ORIENTED_EDGE('',*,*,#375,.F.);
#184=ORIENTED_EDGE('',*,*,#376,.F.);
#185=ORIENTED_EDGE('',*,*,#377,.F.);
#186=ORIENTED_EDGE('',*,*,#378,.F.);
#187=ORIENTED_EDGE('',*,*,#379,.F.);
#188=ORIENTED_EDGE('',*,*,#380,.F.);
#189=ORIENTED_EDGE('',*,*,#377,.T.);
#190=ORIENTED_EDGE('',*,*,#379,.T.);
#191=ORIENTED_EDGE('',*,*,#381,.F.);
#192=ORIENTED_EDGE('',*,*,#382,.F.);
#193=ORIENTED_EDGE('',*,*,#383,.F.);
#194=ORIENTED_EDGE('',*,*,#384,.F.);
#195=ORIENTED_EDGE('',*,*,#385,.F.);
#196=ORIENTED_EDGE('',*,*,#386,.F.);
#197=ORIENTED_EDGE('',*,*,#383,.T.);
#198=ORIENTED_EDGE('',*,*,#385,.T.);
#199=ORIENTED_EDGE('',*,*,#387,.F.);
#200=ORIENTED_EDGE('',*,*,#388,.F.);
#201=ORIENTED_EDGE('',*,*,#389,.F.);
#202=ORIENTED_EDGE('',*,*,#390,.F.);
#203=ORIENTED_EDGE('',*,*,#391,.F.);
#204=ORIENTED_EDGE('',*,*,#392,.F.);
#205=ORIENTED_EDGE('',*,*,#389,.T.);
#206=ORIENTED_EDGE('',*,*,#391,.T.);
#207=ORIENTED_EDGE('',*,*,#393,.F.);
#208=ORIENTED_EDGE('',*,*,#394,.F.);
#209=ORIENTED_EDGE('',*,*,#395,.F.);
#210=ORIENTED_EDGE('',*,*,#396,.F.);
#211=ORIENTED_EDGE('',*,*,#397,.F.);
#212=ORIENTED_EDGE('',*,*,#398,.F.);
#213=ORIENTED_EDGE('',*,*,#395,.T.);
#214=ORIENTED_EDGE('',*,*,#397,.T.);
#215=ORIENTED_EDGE('',*,*,#399,.F.);
#216=ORIENTED_EDGE('',*,*,#318,.T.);
#217=ORIENTED_EDGE('',*,*,#316,.T.);
#218=ORIENTED_EDGE('',*,*,#320,.T.);
#219=ORIENTED_EDGE('',*,*,#321,.T.);
#220=ORIENTED_EDGE('',*,*,#324,.T.);
#221=ORIENTED_EDGE('',*,*,#322,.T.);
#222=ORIENTED_EDGE('',*,*,#326,.T.);
#223=ORIENTED_EDGE('',*,*,#327,.T.);
#224=ORIENTED_EDGE('',*,*,#330,.T.);
#225=ORIENTED_EDGE('',*,*,#328,.T.);
#226=ORIENTED_EDGE('',*,*,#332,.T.);
#227=ORIENTED_EDGE('',*,*,#333,.T.);
#228=ORIENTED_EDGE('',*,*,#336,.T.);
#229=ORIENTED_EDGE('',*,*,#334,.T.);
#230=ORIENTED_EDGE('',*,*,#338,.T.);
#231=ORIENTED_EDGE('',*,*,#339,.T.);
#232=ORIENTED_EDGE('',*,*,#342,.T.);
#233=ORIENTED_EDGE('',*,*,#340,.T.);
#234=ORIENTED_EDGE('',*,*,#344,.T.);
#235=ORIENTED_EDGE('',*,*,#345,.T.);
#236=ORIENTED_EDGE('',*,*,#348,.T.);
#237=ORIENTED_EDGE('',*,*,#346,.T.);
#238=ORIENTED_EDGE('',*,*,#350,.T.);
#239=ORIENTED_EDGE('',*,*,#351,.T.);
#240=ORIENTED_EDGE('',*,*,#354,.T.);
#241=ORIENTED_EDGE('',*,*,#352,.T.);
#242=ORIENTED_EDGE('',*,*,#356,.T.);
#243=ORIENTED_EDGE('',*,*,#357,.T.);
#244=ORIENTED_EDGE('',*,*,#360,.T.);
#245=ORIENTED_EDGE('',*,*,#358,.T.);
#246=ORIENTED_EDGE('',*,*,#362,.T.);
#247=ORIENTED_EDGE('',*,*,#363,.T.);
#248=ORIENTED_EDGE('',*,*,#366,.T.);
#249=ORIENTED_EDGE('',*,*,#364,.T.);
#250=ORIENTED_EDGE('',*,*,#368,.T.);
#251=ORIENTED_EDGE('',*,*,#369,.T.);
#252=ORIENTED_EDGE('',*,*,#372,.T.);
#253=ORIENTED_EDGE('',*,*,#370,.T.);
#254=ORIENTED_EDGE('',*,*,#374,.T.);
#255=ORIENTED_EDGE('',*,*,#375,.T.);
#256=ORIENTED_EDGE('',*,*,#378,.T.);
#257=ORIENTED_EDGE('',*,*,#376,.T.);
#258=ORIENTED_EDGE('',*,*,#380,.T.);
#259=ORIENTED_EDGE('',*,*,#381,.T.);
#260=ORIENTED_EDGE('',*,*,#384,.T.);
#261=ORIENTED_EDGE('',*,*,#382,.T.);
#262=ORIENTED_EDGE('',*,*,#386,.T.);
#263=ORIENTED_EDGE('',*,*,#387,.T.);
#264=ORIENTED_EDGE('',*,*,#390,.T.);
#265=ORIENTED_EDGE('',*,*,#388,.T.);
#266=ORIENTED_EDGE('',*,*,#392,.T.);
#267=ORIENTED_EDGE('',*,*,#393,.T.);
#268=ORIENTED_EDGE('',*,*,#396,.T.);
#269=ORIENTED_EDGE('',*,*,#394,.T.);
#270=ORIENTED_EDGE('',*,*,#398,.T.);
#271=ORIENTED_EDGE('',*,*,#399,.T.);
#272=ORIENTED_EDGE('',*,*,#400,.T.);
#273=ORIENTED_EDGE('',*,*,#401,.F.);
#274=ORIENTED_EDGE('',*,*,#402,.T.);
#275=ORIENTED_EDGE('',*,*,#403,.T.);
#276=ORIENTED_EDGE('',*,*,#404,.T.);
#277=ORIENTED_EDGE('',*,*,#405,.T.);
#278=ORIENTED_EDGE('',*,*,#406,.T.);
#279=ORIENTED_EDGE('',*,*,#407,.F.);
#280=ORIENTED_EDGE('',*,*,#408,.T.);
#281=ORIENTED_EDGE('',*,*,#409,.T.);
#282=ORIENTED_EDGE('',*,*,#410,.T.);
#283=ORIENTED_EDGE('',*,*,#411,.T.);
#284=ORIENTED_EDGE('',*,*,#412,.T.);
#285=ORIENTED_EDGE('',*,*,#411,.F.);
#286=ORIENTED_EDGE('',*,*,#413,.T.);
#287=ORIENTED_EDGE('',*,*,#412,.F.);
#288=ORIENTED_EDGE('',*,*,#414,.T.);
#289=ORIENTED_EDGE('',*,*,#413,.F.);
#290=ORIENTED_EDGE('',*,*,#415,.T.);
#291=ORIENTED_EDGE('',*,*,#414,.F.);
#292=ORIENTED_EDGE('',*,*,#416,.T.);
#293=ORIENTED_EDGE('',*,*,#415,.F.);
#294=ORIENTED_EDGE('',*,*,#417,.T.);
#295=ORIENTED_EDGE('',*,*,#416,.F.);
#296=ORIENTED_EDGE('',*,*,#418,.T.);
#297=ORIENTED_EDGE('',*,*,#417,.F.);
#298=ORIENTED_EDGE('',*,*,#401,.T.);
#299=ORIENTED_EDGE('',*,*,#418,.F.);
#300=ORIENTED_EDGE('',*,*,#419,.T.);
#301=ORIENTED_EDGE('',*,*,#400,.F.);
#302=ORIENTED_EDGE('',*,*,#407,.T.);
#303=ORIENTED_EDGE('',*,*,#419,.F.);
#304=ORIENTED_EDGE('',*,*,#403,.F.);
#305=ORIENTED_EDGE('',*,*,#420,.F.);
#306=ORIENTED_EDGE('',*,*,#402,.F.);
#307=ORIENTED_EDGE('',*,*,#421,.F.);
#308=ORIENTED_EDGE('',*,*,#404,.F.);
#309=ORIENTED_EDGE('',*,*,#420,.T.);
#310=ORIENTED_EDGE('',*,*,#421,.T.);
#311=ORIENTED_EDGE('',*,*,#405,.F.);
#312=ORIENTED_EDGE('',*,*,#410,.F.);
#313=ORIENTED_EDGE('',*,*,#409,.F.);
#314=ORIENTED_EDGE('',*,*,#408,.F.);
#315=ORIENTED_EDGE('',*,*,#406,.F.);
#316=EDGE_CURVE('',#422,#423,#498,.T.);
#317=EDGE_CURVE('',#423,#422,#499,.T.);
#318=EDGE_CURVE('',#424,#422,#22,.F.);
#319=EDGE_CURVE('',#425,#424,#500,.T.);
#320=EDGE_CURVE('',#423,#425,#23,.T.);
#321=EDGE_CURVE('',#425,#424,#501,.T.);
#322=EDGE_CURVE('',#426,#427,#502,.T.);
#323=EDGE_CURVE('',#427,#426,#503,.T.);
#324=EDGE_CURVE('',#428,#426,#24,.F.);
#325=EDGE_CURVE('',#429,#428,#504,.T.);
#326=EDGE_CURVE('',#427,#429,#25,.T.);
#327=EDGE_CURVE('',#429,#428,#505,.T.);
#328=EDGE_CURVE('',#430,#431,#506,.T.);
#329=EDGE_CURVE('',#431,#430,#507,.T.);
#330=EDGE_CURVE('',#432,#430,#26,.F.);
#331=EDGE_CURVE('',#433,#432,#508,.T.);
#332=EDGE_CURVE('',#431,#433,#27,.T.);
#333=EDGE_CURVE('',#433,#432,#509,.T.);
#334=EDGE_CURVE('',#434,#435,#510,.T.);
#335=EDGE_CURVE('',#435,#434,#511,.T.);
#336=EDGE_CURVE('',#436,#434,#28,.F.);
#337=EDGE_CURVE('',#437,#436,#512,.T.);
#338=EDGE_CURVE('',#435,#437,#29,.T.);
#339=EDGE_CURVE('',#437,#436,#513,.T.);
#340=EDGE_CURVE('',#438,#439,#514,.T.);
#341=EDGE_CURVE('',#439,#438,#515,.T.);
#342=EDGE_CURVE('',#440,#438,#30,.F.);
#343=EDGE_CURVE('',#441,#440,#516,.T.);
#344=EDGE_CURVE('',#439,#441,#31,.T.);
#345=EDGE_CURVE('',#441,#440,#517,.T.);
#346=EDGE_CURVE('',#442,#443,#518,.T.);
#347=EDGE_CURVE('',#443,#442,#519,.T.);
#348=EDGE_CURVE('',#444,#442,#32,.F.);
#349=EDGE_CURVE('',#445,#444,#520,.T.);
#350=EDGE_CURVE('',#443,#445,#33,.T.);
#351=EDGE_CURVE('',#445,#444,#521,.T.);
#352=EDGE_CURVE('',#446,#447,#522,.T.);
#353=EDGE_CURVE('',#447,#446,#523,.T.);
#354=EDGE_CURVE('',#448,#446,#34,.F.);
#355=EDGE_CURVE('',#449,#448,#524,.T.);
#356=EDGE_CURVE('',#447,#449,#35,.T.);
#357=EDGE_CURVE('',#449,#448,#525,.T.);
#358=EDGE_CURVE('',#450,#451,#526,.T.);
#359=EDGE_CURVE('',#451,#450,#527,.T.);
#360=EDGE_CURVE('',#452,#450,#36,.F.);
#361=EDGE_CURVE('',#453,#452,#528,.T.);
#362=EDGE_CURVE('',#451,#453,#37,.T.);
#363=EDGE_CURVE('',#453,#452,#529,.T.);
#364=EDGE_CURVE('',#454,#455,#530,.T.);
#365=EDGE_CURVE('',#455,#454,#531,.T.);
#366=EDGE_CURVE('',#456,#454,#38,.F.);
#367=EDGE_CURVE('',#457,#456,#532,.T.);
#368=EDGE_CURVE('',#455,#457,#39,.T.);
#369=EDGE_CURVE('',#457,#456,#533,.T.);
#370=EDGE_CURVE('',#458,#459,#534,.T.);
#371=EDGE_CURVE('',#459,#458,#535,.T.);
#372=EDGE_CURVE('',#460,#458,#40,.F.);
#373=EDGE_CURVE('',#461,#460,#536,.T.);
#374=EDGE_CURVE('',#459,#461,#41,.T.);
#375=EDGE_CURVE('',#461,#460,#537,.T.);
#376=EDGE_CURVE('',#462,#463,#538,.T.);
#377=EDGE_CURVE('',#463,#462,#539,.T.);
#378=EDGE_CURVE('',#464,#462,#42,.F.);
#379=EDGE_CURVE('',#465,#464,#540,.T.);
#380=EDGE_CURVE('',#463,#465,#43,.T.);
#381=EDGE_CURVE('',#465,#464,#541,.T.);
#382=EDGE_CURVE('',#466,#467,#542,.T.);
#383=EDGE_CURVE('',#467,#466,#543,.T.);
#384=EDGE_CURVE('',#468,#466,#44,.F.);
#385=EDGE_CURVE('',#469,#468,#544,.T.);
#386=EDGE_CURVE('',#467,#469,#45,.T.);
#387=EDGE_CURVE('',#469,#468,#545,.T.);
#388=EDGE_CURVE('',#470,#471,#546,.T.);
#389=EDGE_CURVE('',#471,#470,#547,.T.);
#390=EDGE_CURVE('',#472,#470,#46,.F.);
#391=EDGE_CURVE('',#473,#472,#548,.T.);
#392=EDGE_CURVE('',#471,#473,#47,.T.);
#393=EDGE_CURVE('',#473,#472,#549,.T.);
#394=EDGE_CURVE('',#474,#475,#550,.T.);
#395=EDGE_CURVE('',#475,#474,#551,.T.);
#396=EDGE_CURVE('',#476,#474,#48,.F.);
#397=EDGE_CURVE('',#477,#476,#552,.T.);
#398=EDGE_CURVE('',#475,#477,#49,.T.);
#399=EDGE_CURVE('',#477,#476,#553,.T.);
#400=EDGE_CURVE('',#478,#478,#554,.T.);
#401=EDGE_CURVE('',#479,#479,#555,.T.);
#402=EDGE_CURVE('',#480,#481,#50,.F.);
#403=EDGE_CURVE('',#481,#482,#556,.T.);
#404=EDGE_CURVE('',#482,#483,#51,.T.);
#405=EDGE_CURVE('',#483,#480,#557,.T.);
#406=EDGE_CURVE('',#484,#484,#558,.T.);
#407=EDGE_CURVE('',#485,#485,#559,.T.);
#408=EDGE_CURVE('',#486,#486,#560,.F.);
#409=EDGE_CURVE('',#487,#487,#561,.F.);
#410=EDGE_CURVE('',#488,#488,#562,.T.);
#411=EDGE_CURVE('',#489,#489,#563,.T.);
#412=EDGE_CURVE('',#490,#490,#564,.T.);
#413=EDGE_CURVE('',#491,#491,#565,.T.);
#414=EDGE_CURVE('',#492,#492,#566,.T.);
#415=EDGE_CURVE('',#493,#493,#567,.T.);
#416=EDGE_CURVE('',#494,#494,#568,.T.);
#417=EDGE_CURVE('',#495,#495,#569,.T.);
#418=EDGE_CURVE('',#496,#496,#570,.T.);
#419=EDGE_CURVE('',#497,#497,#571,.T.);
#420=EDGE_CURVE('',#482,#481,#572,.T.);
#421=EDGE_CURVE('',#483,#480,#573,.T.);
#422=VERTEX_POINT('',#1315);
#423=VERTEX_POINT('',#1316);
#424=VERTEX_POINT('',#1320);
#425=VERTEX_POINT('',#1322);
#426=VERTEX_POINT('',#1328);
#427=VERTEX_POINT('',#1329);
#428=VERTEX_POINT('',#1333);
#429=VERTEX_POINT('',#1335);
#430=VERTEX_POINT('',#1341);
#431=VERTEX_POINT('',#1342);
#432=VERTEX_POINT('',#1346);
#433=VERTEX_POINT('',#1348);
#434=VERTEX_POINT('',#1354);
#435=VERTEX_POINT('',#1355);
#436=VERTEX_POINT('',#1359);
#437=VERTEX_POINT('',#1361);
#438=VERTEX_POINT('',#1367);
#439=VERTEX_POINT('',#1368);
#440=VERTEX_POINT('',#1372);
#441=VERTEX_POINT('',#1374);
#442=VERTEX_POINT('',#1380);
#443=VERTEX_POINT('',#1381);
#444=VERTEX_POINT('',#1385);
#445=VERTEX_POINT('',#1387);
#446=VERTEX_POINT('',#1393);
#447=VERTEX_POINT('',#1394);
#448=VERTEX_POINT('',#1398);
#449=VERTEX_POINT('',#1400);
#450=VERTEX_POINT('',#1406);
#451=VERTEX_POINT('',#1407);
#452=VERTEX_POINT('',#1411);
#453=VERTEX_POINT('',#1413);
#454=VERTEX_POINT('',#1419);
#455=VERTEX_POINT('',#1420);
#456=VERTEX_POINT('',#1424);
#457=VERTEX_POINT('',#1426);
#458=VERTEX_POINT('',#1432);
#459=VERTEX_POINT('',#1433);
#460=VERTEX_POINT('',#1437);
#461=VERTEX_POINT('',#1439);
#462=VERTEX_POINT('',#1445);
#463=VERTEX_POINT('',#1446);
#464=VERTEX_POINT('',#1450);
#465=VERTEX_POINT('',#1452);
#466=VERTEX_POINT('',#1458);
#467=VERTEX_POINT('',#1459);
#468=VERTEX_POINT('',#1463);
#469=VERTEX_POINT('',#1465);
#470=VERTEX_POINT('',#1471);
#471=VERTEX_POINT('',#1472);
#472=VERTEX_POINT('',#1476);
#473=VERTEX_POINT('',#1478);
#474=VERTEX_POINT('',#1484);
#475=VERTEX_POINT('',#1485);
#476=VERTEX_POINT('',#1489);
#477=VERTEX_POINT('',#1491);
#478=VERTEX_POINT('',#1497);
#479=VERTEX_POINT('',#1499);
#480=VERTEX_POINT('',#1501);
#481=VERTEX_POINT('',#1502);
#482=VERTEX_POINT('',#1504);
#483=VERTEX_POINT('',#1506);
#484=VERTEX_POINT('',#1510);
#485=VERTEX_POINT('',#1512);
#486=VERTEX_POINT('',#1515);
#487=VERTEX_POINT('',#1517);
#488=VERTEX_POINT('',#1520);
#489=VERTEX_POINT('',#1522);
#490=VERTEX_POINT('',#1525);
#491=VERTEX_POINT('',#1528);
#492=VERTEX_POINT('',#1531);
#493=VERTEX_POINT('',#1534);
#494=VERTEX_POINT('',#1537);
#495=VERTEX_POINT('',#1540);
#496=VERTEX_POINT('',#1543);
#497=VERTEX_POINT('',#1547);
#498=CIRCLE('',#870,8.10000000000001);
#499=CIRCLE('',#871,1.19999999999999);
#500=CIRCLE('',#873,1.19999999999999);
#501=CIRCLE('',#875,8.10000000000001);
#502=CIRCLE('',#877,8.10000000000001);
#503=CIRCLE('',#878,1.19999999999999);
#504=CIRCLE('',#880,1.19999999999999);
#505=CIRCLE('',#882,8.10000000000001);
#506=CIRCLE('',#884,8.10000000000001);
#507=CIRCLE('',#885,1.19999999999999);
#508=CIRCLE('',#887,1.19999999999999);
#509=CIRCLE('',#889,8.10000000000001);
#510=CIRCLE('',#891,8.10000000000001);
#511=CIRCLE('',#892,1.19999999999999);
#512=CIRCLE('',#894,1.19999999999999);
#513=CIRCLE('',#896,8.10000000000001);
#514=CIRCLE('',#898,8.10000000000001);
#515=CIRCLE('',#899,1.19999999999999);
#516=CIRCLE('',#901,1.19999999999999);
#517=CIRCLE('',#903,8.10000000000001);
#518=CIRCLE('',#905,8.10000000000001);
#519=CIRCLE('',#906,1.19999999999999);
#520=CIRCLE('',#908,1.19999999999999);
#521=CIRCLE('',#910,8.10000000000001);
#522=CIRCLE('',#912,8.10000000000001);
#523=CIRCLE('',#913,1.19999999999999);
#524=CIRCLE('',#915,1.19999999999999);
#525=CIRCLE('',#917,8.10000000000001);
#526=CIRCLE('',#919,8.10000000000001);
#527=CIRCLE('',#920,1.19999999999999);
#528=CIRCLE('',#922,1.19999999999999);
#529=CIRCLE('',#924,8.10000000000001);
#530=CIRCLE('',#926,8.10000000000001);
#531=CIRCLE('',#927,1.19999999999999);
#532=CIRCLE('',#929,1.19999999999999);
#533=CIRCLE('',#931,8.10000000000001);
#534=CIRCLE('',#933,8.10000000000001);
#535=CIRCLE('',#934,1.19999999999999);
#536=CIRCLE('',#936,1.19999999999999);
#537=CIRCLE('',#938,8.10000000000001);
#538=CIRCLE('',#940,8.10000000000001);
#539=CIRCLE('',#941,1.19999999999999);
#540=CIRCLE('',#943,1.19999999999999);
#541=CIRCLE('',#945,8.10000000000001);
#542=CIRCLE('',#947,8.10000000000001);
#543=CIRCLE('',#948,1.19999999999999);
#544=CIRCLE('',#950,1.19999999999999);
#545=CIRCLE('',#952,8.10000000000001);
#546=CIRCLE('',#954,8.10000000000001);
#547=CIRCLE('',#955,1.19999999999999);
#548=CIRCLE('',#957,1.19999999999999);
#549=CIRCLE('',#959,8.10000000000001);
#550=CIRCLE('',#961,8.10000000000001);
#551=CIRCLE('',#962,1.19999999999999);
#552=CIRCLE('',#964,1.19999999999999);
#553=CIRCLE('',#966,8.10000000000001);
#554=CIRCLE('',#968,8.10000000000001);
#555=CIRCLE('',#969,8.10000000000001);
#556=CIRCLE('',#970,8.10000000000001);
#557=CIRCLE('',#971,8.10000000000001);
#558=CIRCLE('',#973,10.1);
#559=CIRCLE('',#974,7.50000000000001);
#560=CIRCLE('',#976,10.5);
#561=CIRCLE('',#977,10.5);
#562=CIRCLE('',#979,10.1);
#563=CIRCLE('',#980,7.50000000000001);
#564=CIRCLE('',#982,7.50000000000001);
#565=CIRCLE('',#984,8.4);
#566=CIRCLE('',#986,8.4);
#567=CIRCLE('',#988,7.50000000000001);
#568=CIRCLE('',#990,7.50000000000001);
#569=CIRCLE('',#992,8.4);
#570=CIRCLE('',#994,8.4);
#571=CIRCLE('',#997,7.50000000000001);
#572=CIRCLE('',#1000,1.19999999999999);
#573=CIRCLE('',#1002,1.19999999999999);
#574=EDGE_LOOP('',(#104,#105));
#575=EDGE_LOOP('',(#106,#107,#108,#109));
#576=EDGE_LOOP('',(#110,#111));
#577=EDGE_LOOP('',(#112,#113));
#578=EDGE_LOOP('',(#114,#115,#116,#117));
#579=EDGE_LOOP('',(#118,#119));
#580=EDGE_LOOP('',(#120,#121));
#581=EDGE_LOOP('',(#122,#123,#124,#125));
#582=EDGE_LOOP('',(#126,#127));
#583=EDGE_LOOP('',(#128,#129));
#584=EDGE_LOOP('',(#130,#131,#132,#133));
#585=EDGE_LOOP('',(#134,#135));
#586=EDGE_LOOP('',(#136,#137));
#587=EDGE_LOOP('',(#138,#139,#140,#141));
#588=EDGE_LOOP('',(#142,#143));
#589=EDGE_LOOP('',(#144,#145));
#590=EDGE_LOOP('',(#146,#147,#148,#149));
#591=EDGE_LOOP('',(#150,#151));
#592=EDGE_LOOP('',(#152,#153));
#593=EDGE_LOOP('',(#154,#155,#156,#157));
#594=EDGE_LOOP('',(#158,#159));
#595=EDGE_LOOP('',(#160,#161));
#596=EDGE_LOOP('',(#162,#163,#164,#165));
#597=EDGE_LOOP('',(#166,#167));
#598=EDGE_LOOP('',(#168,#169));
#599=EDGE_LOOP('',(#170,#171,#172,#173));
#600=EDGE_LOOP('',(#174,#175));
#601=EDGE_LOOP('',(#176,#177));
#602=EDGE_LOOP('',(#178,#179,#180,#181));
#603=EDGE_LOOP('',(#182,#183));
#604=EDGE_LOOP('',(#184,#185));
#605=EDGE_LOOP('',(#186,#187,#188,#189));
#606=EDGE_LOOP('',(#190,#191));
#607=EDGE_LOOP('',(#192,#193));
#608=EDGE_LOOP('',(#194,#195,#196,#197));
#609=EDGE_LOOP('',(#198,#199));
#610=EDGE_LOOP('',(#200,#201));
#611=EDGE_LOOP('',(#202,#203,#204,#205));
#612=EDGE_LOOP('',(#206,#207));
#613=EDGE_LOOP('',(#208,#209));
#614=EDGE_LOOP('',(#210,#211,#212,#213));
#615=EDGE_LOOP('',(#214,#215));
#616=EDGE_LOOP('',(#216,#217,#218,#219));
#617=EDGE_LOOP('',(#220,#221,#222,#223));
#618=EDGE_LOOP('',(#224,#225,#226,#227));
#619=EDGE_LOOP('',(#228,#229,#230,#231));
#620=EDGE_LOOP('',(#232,#233,#234,#235));
#621=EDGE_LOOP('',(#236,#237,#238,#239));
#622=EDGE_LOOP('',(#240,#241,#242,#243));
#623=EDGE_LOOP('',(#244,#245,#246,#247));
#624=EDGE_LOOP('',(#248,#249,#250,#251));
#625=EDGE_LOOP('',(#252,#253,#254,#255));
#626=EDGE_LOOP('',(#256,#257,#258,#259));
#627=EDGE_LOOP('',(#260,#261,#262,#263));
#628=EDGE_LOOP('',(#264,#265,#266,#267));
#629=EDGE_LOOP('',(#268,#269,#270,#271));
#630=EDGE_LOOP('',(#272));
#631=EDGE_LOOP('',(#273));
#632=EDGE_LOOP('',(#274,#275,#276,#277));
#633=EDGE_LOOP('',(#278));
#634=EDGE_LOOP('',(#279));
#635=EDGE_LOOP('',(#280));
#636=EDGE_LOOP('',(#281));
#637=EDGE_LOOP('',(#282));
#638=EDGE_LOOP('',(#283));
#639=EDGE_LOOP('',(#284));
#640=EDGE_LOOP('',(#285));
#641=EDGE_LOOP('',(#286));
#642=EDGE_LOOP('',(#287));
#643=EDGE_LOOP('',(#288));
#644=EDGE_LOOP('',(#289));
#645=EDGE_LOOP('',(#290));
#646=EDGE_LOOP('',(#291));
#647=EDGE_LOOP('',(#292));
#648=EDGE_LOOP('',(#293));
#649=EDGE_LOOP('',(#294));
#650=EDGE_LOOP('',(#295));
#651=EDGE_LOOP('',(#296));
#652=EDGE_LOOP('',(#297));
#653=EDGE_LOOP('',(#298));
#654=EDGE_LOOP('',(#299));
#655=EDGE_LOOP('',(#300));
#656=EDGE_LOOP('',(#301));
#657=EDGE_LOOP('',(#302));
#658=EDGE_LOOP('',(#303));
#659=EDGE_LOOP('',(#304,#305));
#660=EDGE_LOOP('',(#306,#307,#308,#309));
#661=EDGE_LOOP('',(#310,#311));
#662=EDGE_LOOP('',(#312));
#663=EDGE_LOOP('',(#313));
#664=EDGE_LOOP('',(#314));
#665=EDGE_LOOP('',(#315));
#666=FACE_BOUND('',#574,.T.);
#667=FACE_BOUND('',#575,.T.);
#668=FACE_BOUND('',#576,.T.);
#669=FACE_BOUND('',#577,.T.);
#670=FACE_BOUND('',#578,.T.);
#671=FACE_BOUND('',#579,.T.);
#672=FACE_BOUND('',#580,.T.);
#673=FACE_BOUND('',#581,.T.);
#674=FACE_BOUND('',#582,.T.);
#675=FACE_BOUND('',#583,.T.);
#676=FACE_BOUND('',#584,.T.);
#677=FACE_BOUND('',#585,.T.);
#678=FACE_BOUND('',#586,.T.);
#679=FACE_BOUND('',#587,.T.);
#680=FACE_BOUND('',#588,.T.);
#681=FACE_BOUND('',#589,.T.);
#682=FACE_BOUND('',#590,.T.);
#683=FACE_BOUND('',#591,.T.);
#684=FACE_BOUND('',#592,.T.);
#685=FACE_BOUND('',#593,.T.);
#686=FACE_BOUND('',#594,.T.);
#687=FACE_BOUND('',#595,.T.);
#688=FACE_BOUND('',#596,.T.);
#689=FACE_BOUND('',#597,.T.);
#690=FACE_BOUND('',#598,.T.);
#691=FACE_BOUND('',#599,.T.);
#692=FACE_BOUND('',#600,.T.);
#693=FACE_BOUND('',#601,.T.);
#694=FACE_BOUND('',#602,.T.);
#695=FACE_BOUND('',#603,.T.);
#696=FACE_BOUND('',#604,.T.);
#697=FACE_BOUND('',#605,.T.);
#698=FACE_BOUND('',#606,.T.);
#699=FACE_BOUND('',#607,.T.);
#700=FACE_BOUND('',#608,.T.);
#701=FACE_BOUND('',#609,.T.);
#702=FACE_BOUND('',#610,.T.);
#703=FACE_BOUND('',#611,.T.);
#704=FACE_BOUND('',#612,.T.);
#705=FACE_BOUND('',#613,.T.);
#706=FACE_BOUND('',#614,.T.);
#707=FACE_BOUND('',#615,.T.);
#708=FACE_BOUND('',#616,.T.);
#709=FACE_BOUND('',#617,.T.);
#710=FACE_BOUND('',#618,.T.);
#711=FACE_BOUND('',#619,.T.);
#712=FACE_BOUND('',#620,.T.);
#713=FACE_BOUND('',#621,.T.);
#714=FACE_BOUND('',#622,.T.);
#715=FACE_BOUND('',#623,.T.);
#716=FACE_BOUND('',#624,.T.);
#717=FACE_BOUND('',#625,.T.);
#718=FACE_BOUND('',#626,.T.);
#719=FACE_BOUND('',#627,.T.);
#720=FACE_BOUND('',#628,.T.);
#721=FACE_BOUND('',#629,.T.);
#722=FACE_BOUND('',#630,.T.);
#723=FACE_BOUND('',#631,.T.);
#724=FACE_BOUND('',#632,.T.);
#725=FACE_BOUND('',#633,.T.);
#726=FACE_BOUND('',#634,.T.);
#727=FACE_BOUND('',#635,.T.);
#728=FACE_BOUND('',#636,.T.);
#729=FACE_BOUND('',#637,.T.);
#730=FACE_BOUND('',#638,.T.);
#731=FACE_BOUND('',#639,.T.);
#732=FACE_BOUND('',#640,.T.);
#733=FACE_BOUND('',#641,.T.);
#734=FACE_BOUND('',#642,.T.);
#735=FACE_BOUND('',#643,.T.);
#736=FACE_BOUND('',#644,.T.);
#737=FACE_BOUND('',#645,.T.);
#738=FACE_BOUND('',#646,.T.);
#739=FACE_BOUND('',#647,.T.);
#740=FACE_BOUND('',#648,.T.);
#741=FACE_BOUND('',#649,.T.);
#742=FACE_BOUND('',#650,.T.);
#743=FACE_BOUND('',#651,.T.);
#744=FACE_BOUND('',#652,.T.);
#745=FACE_BOUND('',#653,.T.);
#746=FACE_BOUND('',#654,.T.);
#747=FACE_BOUND('',#655,.T.);
#748=FACE_BOUND('',#656,.T.);
#749=FACE_BOUND('',#657,.T.);
#750=FACE_BOUND('',#658,.T.);
#751=FACE_BOUND('',#659,.T.);
#752=FACE_BOUND('',#660,.T.);
#753=FACE_BOUND('',#661,.T.);
#754=FACE_BOUND('',#662,.T.);
#755=FACE_BOUND('',#663,.T.);
#756=FACE_BOUND('',#664,.T.);
#757=FACE_BOUND('',#665,.T.);
#758=PLANE('',#869);
#759=PLANE('',#874);
#760=PLANE('',#876);
#761=PLANE('',#881);
#762=PLANE('',#883);
#763=PLANE('',#888);
#764=PLANE('',#890);
#765=PLANE('',#895);
#766=PLANE('',#897);
#767=PLANE('',#902);
#768=PLANE('',#904);
#769=PLANE('',#909);
#770=PLANE('',#911);
#771=PLANE('',#916);
#772=PLANE('',#918);
#773=PLANE('',#923);
#774=PLANE('',#925);
#775=PLANE('',#930);
#776=PLANE('',#932);
#777=PLANE('',#937);
#778=PLANE('',#939);
#779=PLANE('',#944);
#780=PLANE('',#946);
#781=PLANE('',#951);
#782=PLANE('',#953);
#783=PLANE('',#958);
#784=PLANE('',#960);
#785=PLANE('',#965);
#786=PLANE('',#972);
#787=PLANE('',#978);
#788=PLANE('',#983);
#789=PLANE('',#987);
#790=PLANE('',#991);
#791=PLANE('',#995);
#792=PLANE('',#996);
#793=PLANE('',#999);
#794=PLANE('',#1003);
#795=ADVANCED_FACE('',(#666),#758,.F.);
#796=ADVANCED_FACE('',(#667),#82,.T.);
#797=ADVANCED_FACE('',(#668),#759,.F.);
#798=ADVANCED_FACE('',(#669),#760,.F.);
#799=ADVANCED_FACE('',(#670),#83,.T.);
#800=ADVANCED_FACE('',(#671),#761,.F.);
#801=ADVANCED_FACE('',(#672),#762,.F.);
#802=ADVANCED_FACE('',(#673),#84,.T.);
#803=ADVANCED_FACE('',(#674),#763,.F.);
#804=ADVANCED_FACE('',(#675),#764,.F.);
#805=ADVANCED_FACE('',(#676),#85,.T.);
#806=ADVANCED_FACE('',(#677),#765,.F.);
#807=ADVANCED_FACE('',(#678),#766,.F.);
#808=ADVANCED_FACE('',(#679),#86,.T.);
#809=ADVANCED_FACE('',(#680),#767,.F.);
#810=ADVANCED_FACE('',(#681),#768,.F.);
#811=ADVANCED_FACE('',(#682),#87,.T.);
#812=ADVANCED_FACE('',(#683),#769,.F.);
#813=ADVANCED_FACE('',(#684),#770,.F.);
#814=ADVANCED_FACE('',(#685),#88,.T.);
#815=ADVANCED_FACE('',(#686),#771,.F.);
#816=ADVANCED_FACE('',(#687),#772,.F.);
#817=ADVANCED_FACE('',(#688),#89,.T.);
#818=ADVANCED_FACE('',(#689),#773,.F.);
#819=ADVANCED_FACE('',(#690),#774,.F.);
#820=ADVANCED_FACE('',(#691),#90,.T.);
#821=ADVANCED_FACE('',(#692),#775,.F.);
#822=ADVANCED_FACE('',(#693),#776,.F.);
#823=ADVANCED_FACE('',(#694),#91,.T.);
#824=ADVANCED_FACE('',(#695),#777,.F.);
#825=ADVANCED_FACE('',(#696),#778,.F.);
#826=ADVANCED_FACE('',(#697),#92,.T.);
#827=ADVANCED_FACE('',(#698),#779,.F.);
#828=ADVANCED_FACE('',(#699),#780,.F.);
#829=ADVANCED_FACE('',(#700),#93,.T.);
#830=ADVANCED_FACE('',(#701),#781,.F.);
#831=ADVANCED_FACE('',(#702),#782,.F.);
#832=ADVANCED_FACE('',(#703),#94,.T.);
#833=ADVANCED_FACE('',(#704),#783,.F.);
#834=ADVANCED_FACE('',(#705),#784,.F.);
#835=ADVANCED_FACE('',(#706),#95,.T.);
#836=ADVANCED_FACE('',(#707),#785,.F.);
#837=ADVANCED_FACE('',(#708,#709,#710,#711,#712,#713,#714,#715,#716,#717,
#718,#719,#720,#721,#722,#723,#724),#96,.F.);
#838=ADVANCED_FACE('',(#725,#726),#786,.T.);
#839=ADVANCED_FACE('',(#727,#728),#97,.T.);
#840=ADVANCED_FACE('',(#729,#730),#787,.T.);
#841=ADVANCED_FACE('',(#731,#732),#98,.F.);
#842=ADVANCED_FACE('',(#733,#734),#788,.T.);
#843=ADVANCED_FACE('',(#735,#736),#99,.F.);
#844=ADVANCED_FACE('',(#737,#738),#789,.T.);
#845=ADVANCED_FACE('',(#739,#740),#100,.F.);
#846=ADVANCED_FACE('',(#741,#742),#790,.T.);
#847=ADVANCED_FACE('',(#743,#744),#101,.F.);
#848=ADVANCED_FACE('',(#745,#746),#791,.T.);
#849=ADVANCED_FACE('',(#747,#748),#792,.T.);
#850=ADVANCED_FACE('',(#749,#750),#102,.F.);
#851=ADVANCED_FACE('',(#751),#793,.F.);
#852=ADVANCED_FACE('',(#752),#103,.T.);
#853=ADVANCED_FACE('',(#753),#794,.F.);
#854=ADVANCED_FACE('',(#754,#755),#20,.T.);
#855=ADVANCED_FACE('',(#756,#757),#21,.T.);
#856=CLOSED_SHELL('',(#795,#796,#797,#798,#799,#800,#801,#802,#803,#804,
#805,#806,#807,#808,#809,#810,#811,#812,#813,#814,#815,#816,#817,#818,#819,
#820,#821,#822,#823,#824,#825,#826,#827,#828,#829,#830,#831,#832,#833,#834,
#835,#836,#837,#838,#839,#840,#841,#842,#843,#844,#845,#846,#847,#848,#849,
#850,#851,#852,#853,#854,#855));
#857=STYLED_ITEM('',(#858),#865);
#858=PRESENTATION_STYLE_ASSIGNMENT((#859));
#859=SURFACE_STYLE_USAGE(.BOTH.,#860);
#860=SURFACE_SIDE_STYLE('',(#861));
#861=SURFACE_STYLE_FILL_AREA(#862);
#862=FILL_AREA_STYLE('',(#863));
#863=FILL_AREA_STYLE_COLOUR('',#864);
#864=COLOUR_RGB('',0.506983280181885,0.531564235687256,0.550000011920929);
#865=MANIFOLD_SOLID_BREP('',#856);
#866=SHAPE_DEFINITION_REPRESENTATION(#1562,#867);
#867=SHAPE_REPRESENTATION(
'\X2\51B2538B591657086EDA94888F74627F\X0\HK0000-RS\X2\578B\X0\1 GBT290
-2017',(#868),#1557);
#868=AXIS2_PLACEMENT_3D('',#1312,#1006,#1007);
#869=AXIS2_PLACEMENT_3D('',#1313,#1008,#1009);
#870=AXIS2_PLACEMENT_3D('',#1314,#1010,#1011);
#871=AXIS2_PLACEMENT_3D('',#1317,#1012,#1013);
#872=AXIS2_PLACEMENT_3D('',#1318,#1014,#1015);
#873=AXIS2_PLACEMENT_3D('',#1321,#1017,#1018);
#874=AXIS2_PLACEMENT_3D('',#1324,#1020,#1021);
#875=AXIS2_PLACEMENT_3D('',#1325,#1022,#1023);
#876=AXIS2_PLACEMENT_3D('',#1326,#1024,#1025);
#877=AXIS2_PLACEMENT_3D('',#1327,#1026,#1027);
#878=AXIS2_PLACEMENT_3D('',#1330,#1028,#1029);
#879=AXIS2_PLACEMENT_3D('',#1331,#1030,#1031);
#880=AXIS2_PLACEMENT_3D('',#1334,#1033,#1034);
#881=AXIS2_PLACEMENT_3D('',#1337,#1036,#1037);
#882=AXIS2_PLACEMENT_3D('',#1338,#1038,#1039);
#883=AXIS2_PLACEMENT_3D('',#1339,#1040,#1041);
#884=AXIS2_PLACEMENT_3D('',#1340,#1042,#1043);
#885=AXIS2_PLACEMENT_3D('',#1343,#1044,#1045);
#886=AXIS2_PLACEMENT_3D('',#1344,#1046,#1047);
#887=AXIS2_PLACEMENT_3D('',#1347,#1049,#1050);
#888=AXIS2_PLACEMENT_3D('',#1350,#1052,#1053);
#889=AXIS2_PLACEMENT_3D('',#1351,#1054,#1055);
#890=AXIS2_PLACEMENT_3D('',#1352,#1056,#1057);
#891=AXIS2_PLACEMENT_3D('',#1353,#1058,#1059);
#892=AXIS2_PLACEMENT_3D('',#1356,#1060,#1061);
#893=AXIS2_PLACEMENT_3D('',#1357,#1062,#1063);
#894=AXIS2_PLACEMENT_3D('',#1360,#1065,#1066);
#895=AXIS2_PLACEMENT_3D('',#1363,#1068,#1069);
#896=AXIS2_PLACEMENT_3D('',#1364,#1070,#1071);
#897=AXIS2_PLACEMENT_3D('',#1365,#1072,#1073);
#898=AXIS2_PLACEMENT_3D('',#1366,#1074,#1075);
#899=AXIS2_PLACEMENT_3D('',#1369,#1076,#1077);
#900=AXIS2_PLACEMENT_3D('',#1370,#1078,#1079);
#901=AXIS2_PLACEMENT_3D('',#1373,#1081,#1082);
#902=AXIS2_PLACEMENT_3D('',#1376,#1084,#1085);
#903=AXIS2_PLACEMENT_3D('',#1377,#1086,#1087);
#904=AXIS2_PLACEMENT_3D('',#1378,#1088,#1089);
#905=AXIS2_PLACEMENT_3D('',#1379,#1090,#1091);
#906=AXIS2_PLACEMENT_3D('',#1382,#1092,#1093);
#907=AXIS2_PLACEMENT_3D('',#1383,#1094,#1095);
#908=AXIS2_PLACEMENT_3D('',#1386,#1097,#1098);
#909=AXIS2_PLACEMENT_3D('',#1389,#1100,#1101);
#910=AXIS2_PLACEMENT_3D('',#1390,#1102,#1103);
#911=AXIS2_PLACEMENT_3D('',#1391,#1104,#1105);
#912=AXIS2_PLACEMENT_3D('',#1392,#1106,#1107);
#913=AXIS2_PLACEMENT_3D('',#1395,#1108,#1109);
#914=AXIS2_PLACEMENT_3D('',#1396,#1110,#1111);
#915=AXIS2_PLACEMENT_3D('',#1399,#1113,#1114);
#916=AXIS2_PLACEMENT_3D('',#1402,#1116,#1117);
#917=AXIS2_PLACEMENT_3D('',#1403,#1118,#1119);
#918=AXIS2_PLACEMENT_3D('',#1404,#1120,#1121);
#919=AXIS2_PLACEMENT_3D('',#1405,#1122,#1123);
#920=AXIS2_PLACEMENT_3D('',#1408,#1124,#1125);
#921=AXIS2_PLACEMENT_3D('',#1409,#1126,#1127);
#922=AXIS2_PLACEMENT_3D('',#1412,#1129,#1130);
#923=AXIS2_PLACEMENT_3D('',#1415,#1132,#1133);
#924=AXIS2_PLACEMENT_3D('',#1416,#1134,#1135);
#925=AXIS2_PLACEMENT_3D('',#1417,#1136,#1137);
#926=AXIS2_PLACEMENT_3D('',#1418,#1138,#1139);
#927=AXIS2_PLACEMENT_3D('',#1421,#1140,#1141);
#928=AXIS2_PLACEMENT_3D('',#1422,#1142,#1143);
#929=AXIS2_PLACEMENT_3D('',#1425,#1145,#1146);
#930=AXIS2_PLACEMENT_3D('',#1428,#1148,#1149);
#931=AXIS2_PLACEMENT_3D('',#1429,#1150,#1151);
#932=AXIS2_PLACEMENT_3D('',#1430,#1152,#1153);
#933=AXIS2_PLACEMENT_3D('',#1431,#1154,#1155);
#934=AXIS2_PLACEMENT_3D('',#1434,#1156,#1157);
#935=AXIS2_PLACEMENT_3D('',#1435,#1158,#1159);
#936=AXIS2_PLACEMENT_3D('',#1438,#1161,#1162);
#937=AXIS2_PLACEMENT_3D('',#1441,#1164,#1165);
#938=AXIS2_PLACEMENT_3D('',#1442,#1166,#1167);
#939=AXIS2_PLACEMENT_3D('',#1443,#1168,#1169);
#940=AXIS2_PLACEMENT_3D('',#1444,#1170,#1171);
#941=AXIS2_PLACEMENT_3D('',#1447,#1172,#1173);
#942=AXIS2_PLACEMENT_3D('',#1448,#1174,#1175);
#943=AXIS2_PLACEMENT_3D('',#1451,#1177,#1178);
#944=AXIS2_PLACEMENT_3D('',#1454,#1180,#1181);
#945=AXIS2_PLACEMENT_3D('',#1455,#1182,#1183);
#946=AXIS2_PLACEMENT_3D('',#1456,#1184,#1185);
#947=AXIS2_PLACEMENT_3D('',#1457,#1186,#1187);
#948=AXIS2_PLACEMENT_3D('',#1460,#1188,#1189);
#949=AXIS2_PLACEMENT_3D('',#1461,#1190,#1191);
#950=AXIS2_PLACEMENT_3D('',#1464,#1193,#1194);
#951=AXIS2_PLACEMENT_3D('',#1467,#1196,#1197);
#952=AXIS2_PLACEMENT_3D('',#1468,#1198,#1199);
#953=AXIS2_PLACEMENT_3D('',#1469,#1200,#1201);
#954=AXIS2_PLACEMENT_3D('',#1470,#1202,#1203);
#955=AXIS2_PLACEMENT_3D('',#1473,#1204,#1205);
#956=AXIS2_PLACEMENT_3D('',#1474,#1206,#1207);
#957=AXIS2_PLACEMENT_3D('',#1477,#1209,#1210);
#958=AXIS2_PLACEMENT_3D('',#1480,#1212,#1213);
#959=AXIS2_PLACEMENT_3D('',#1481,#1214,#1215);
#960=AXIS2_PLACEMENT_3D('',#1482,#1216,#1217);
#961=AXIS2_PLACEMENT_3D('',#1483,#1218,#1219);
#962=AXIS2_PLACEMENT_3D('',#1486,#1220,#1221);
#963=AXIS2_PLACEMENT_3D('',#1487,#1222,#1223);
#964=AXIS2_PLACEMENT_3D('',#1490,#1225,#1226);
#965=AXIS2_PLACEMENT_3D('',#1493,#1228,#1229);
#966=AXIS2_PLACEMENT_3D('',#1494,#1230,#1231);
#967=AXIS2_PLACEMENT_3D('',#1495,#1232,#1233);
#968=AXIS2_PLACEMENT_3D('',#1496,#1234,#1235);
#969=AXIS2_PLACEMENT_3D('',#1498,#1236,#1237);
#970=AXIS2_PLACEMENT_3D('',#1503,#1239,#1240);
#971=AXIS2_PLACEMENT_3D('',#1507,#1242,#1243);
#972=AXIS2_PLACEMENT_3D('',#1508,#1244,#1245);
#973=AXIS2_PLACEMENT_3D('',#1509,#1246,#1247);
#974=AXIS2_PLACEMENT_3D('',#1511,#1248,#1249);
#975=AXIS2_PLACEMENT_3D('',#1513,#1250,#1251);
#976=AXIS2_PLACEMENT_3D('',#1514,#1252,#1253);
#977=AXIS2_PLACEMENT_3D('',#1516,#1254,#1255);
#978=AXIS2_PLACEMENT_3D('',#1518,#1256,#1257);
#979=AXIS2_PLACEMENT_3D('',#1519,#1258,#1259);
#980=AXIS2_PLACEMENT_3D('',#1521,#1260,#1261);
#981=AXIS2_PLACEMENT_3D('',#1523,#1262,#1263);
#982=AXIS2_PLACEMENT_3D('',#1524,#1264,#1265);
#983=AXIS2_PLACEMENT_3D('',#1526,#1266,#1267);
#984=AXIS2_PLACEMENT_3D('',#1527,#1268,#1269);
#985=AXIS2_PLACEMENT_3D('',#1529,#1270,#1271);
#986=AXIS2_PLACEMENT_3D('',#1530,#1272,#1273);
#987=AXIS2_PLACEMENT_3D('',#1532,#1274,#1275);
#988=AXIS2_PLACEMENT_3D('',#1533,#1276,#1277);
#989=AXIS2_PLACEMENT_3D('',#1535,#1278,#1279);
#990=AXIS2_PLACEMENT_3D('',#1536,#1280,#1281);
#991=AXIS2_PLACEMENT_3D('',#1538,#1282,#1283);
#992=AXIS2_PLACEMENT_3D('',#1539,#1284,#1285);
#993=AXIS2_PLACEMENT_3D('',#1541,#1286,#1287);
#994=AXIS2_PLACEMENT_3D('',#1542,#1288,#1289);
#995=AXIS2_PLACEMENT_3D('',#1544,#1290,#1291);
#996=AXIS2_PLACEMENT_3D('',#1545,#1292,#1293);
#997=AXIS2_PLACEMENT_3D('',#1546,#1294,#1295);
#998=AXIS2_PLACEMENT_3D('',#1548,#1296,#1297);
#999=AXIS2_PLACEMENT_3D('',#1549,#1298,#1299);
#1000=AXIS2_PLACEMENT_3D('',#1550,#1300,#1301);
#1001=AXIS2_PLACEMENT_3D('',#1551,#1302,#1303);
#1002=AXIS2_PLACEMENT_3D('',#1552,#1304,#1305);
#1003=AXIS2_PLACEMENT_3D('',#1553,#1306,#1307);
#1004=AXIS2_PLACEMENT_3D('',#1554,#1308,#1309);
#1005=AXIS2_PLACEMENT_3D('',#1555,#1310,#1311);
#1006=DIRECTION('',(0.,0.,1.));
#1007=DIRECTION('',(1.,0.,0.));
#1008=DIRECTION('',(1.,0.,0.));
#1009=DIRECTION('',(0.,0.406743212349076,-0.913542532785395));
#1010=DIRECTION('',(1.,0.,0.));
#1011=DIRECTION('',(0.,0.406743212349076,-0.913542532785395));
#1012=DIRECTION('',(1.,0.,0.));
#1013=DIRECTION('',(0.,0.406743212349076,-0.913542532785395));
#1014=DIRECTION('',(1.,0.,0.));
#1015=DIRECTION('',(0.,0.406743212349076,-0.913542532785395));
#1016=DIRECTION('',(1.,0.,0.));
#1017=DIRECTION('',(1.,0.,0.));
#1018=DIRECTION('',(0.,0.406743212349076,-0.913542532785395));
#1019=DIRECTION('',(1.,0.,0.));
#1020=DIRECTION('',(-1.,0.,0.));
#1021=DIRECTION('',(0.,-0.406743212349076,0.913542532785395));
#1022=DIRECTION('',(-1.,0.,0.));
#1023=DIRECTION('',(0.,-0.406743212349076,0.913542532785395));
#1024=DIRECTION('',(1.,0.,0.));
#1025=DIRECTION('',(0.,0.743143948572243,-0.66913158025941));
#1026=DIRECTION('',(1.,0.,0.));
#1027=DIRECTION('',(0.,0.743143948572243,-0.66913158025941));
#1028=DIRECTION('',(1.,0.,0.));
#1029=DIRECTION('',(0.,0.743143948572243,-0.66913158025941));
#1030=DIRECTION('',(1.,0.,0.));
#1031=DIRECTION('',(0.,0.743143948572243,-0.66913158025941));
#1032=DIRECTION('',(1.,0.,0.));
#1033=DIRECTION('',(1.,0.,0.));
#1034=DIRECTION('',(0.,0.743143948572243,-0.66913158025941));
#1035=DIRECTION('',(1.,0.,0.));
#1036=DIRECTION('',(-1.,0.,0.));
#1037=DIRECTION('',(0.,-0.743143948572243,0.66913158025941));
#1038=DIRECTION('',(-1.,0.,0.));
#1039=DIRECTION('',(0.,-0.743143948572243,0.66913158025941));
#1040=DIRECTION('',(1.,0.,0.));
#1041=DIRECTION('',(0.,0.951054177418266,-0.30902419260515));
#1042=DIRECTION('',(1.,0.,0.));
#1043=DIRECTION('',(0.,0.951054177418266,-0.30902419260515));
#1044=DIRECTION('',(1.,0.,0.));
#1045=DIRECTION('',(0.,0.951054177418266,-0.30902419260515));
#1046=DIRECTION('',(1.,0.,0.));
#1047=DIRECTION('',(0.,0.951054177418266,-0.30902419260515));
#1048=DIRECTION('',(1.,0.,0.));
#1049=DIRECTION('',(1.,0.,0.));
#1050=DIRECTION('',(0.,0.951054177418266,-0.30902419260515));
#1051=DIRECTION('',(1.,0.,0.));
#1052=DIRECTION('',(-1.,0.,0.));
#1053=DIRECTION('',(0.,-0.951054177418266,0.30902419260515));
#1054=DIRECTION('',(-1.,0.,0.));
#1055=DIRECTION('',(0.,-0.951054177418266,0.30902419260515));
#1056=DIRECTION('',(1.,0.,0.));
#1057=DIRECTION('',(0.,0.994521451419261,0.104532687074077));
#1058=DIRECTION('',(1.,0.,0.));
#1059=DIRECTION('',(0.,0.994521451419261,0.104532687074077));
#1060=DIRECTION('',(1.,0.,0.));
#1061=DIRECTION('',(0.,0.994521451419261,0.104532687074077));
#1062=DIRECTION('',(1.,0.,0.));
#1063=DIRECTION('',(0.,0.994521451419261,0.104532687074077));
#1064=DIRECTION('',(1.,0.,0.));
#1065=DIRECTION('',(1.,0.,0.));
#1066=DIRECTION('',(0.,0.994521451419261,0.104532687074077));
#1067=DIRECTION('',(1.,0.,0.));
#1068=DIRECTION('',(-1.,0.,0.));
#1069=DIRECTION('',(0.,-0.994521451419261,-0.104532687074077));
#1070=DIRECTION('',(-1.,0.,0.));
#1071=DIRECTION('',(0.,-0.994521451419261,-0.104532687074077));
#1072=DIRECTION('',(1.,0.,0.));
#1073=DIRECTION('',(0.,0.866022485002927,0.500005055443798));
#1074=DIRECTION('',(1.,0.,0.));
#1075=DIRECTION('',(0.,0.866022485002927,0.500005055443798));
#1076=DIRECTION('',(1.,0.,0.));
#1077=DIRECTION('',(0.,0.866022485002927,0.500005055443798));
#1078=DIRECTION('',(1.,0.,0.));
#1079=DIRECTION('',(0.,0.866022485002927,0.500005055443798));
#1080=DIRECTION('',(1.,0.,0.));
#1081=DIRECTION('',(1.,0.,0.));
#1082=DIRECTION('',(0.,0.866022485002927,0.500005055443798));
#1083=DIRECTION('',(1.,0.,0.));
#1084=DIRECTION('',(-1.,0.,0.));
#1085=DIRECTION('',(0.,-0.866022485002927,-0.500005055443798));
#1086=DIRECTION('',(-1.,0.,0.));
#1087=DIRECTION('',(0.,-0.866022485002927,-0.500005055443798));
#1088=DIRECTION('',(1.,0.,0.));
#1089=DIRECTION('',(0.,0.587788315036647,0.809014769152195));
#1090=DIRECTION('',(1.,0.,0.));
#1091=DIRECTION('',(0.,0.587788315036647,0.809014769152195));
#1092=DIRECTION('',(1.,0.,0.));
#1093=DIRECTION('',(0.,0.587788315036647,0.809014769152195));
#1094=DIRECTION('',(1.,0.,0.));
#1095=DIRECTION('',(0.,0.587788315036647,0.809014769152195));
#1096=DIRECTION('',(1.,0.,0.));
#1097=DIRECTION('',(1.,0.,0.));
#1098=DIRECTION('',(0.,0.587788315036647,0.809014769152195));
#1099=DIRECTION('',(1.,0.,0.));
#1100=DIRECTION('',(-1.,0.,0.));
#1101=DIRECTION('',(0.,-0.587788315036647,-0.809014769152195));
#1102=DIRECTION('',(-1.,0.,0.));
#1103=DIRECTION('',(0.,-0.587788315036647,-0.809014769152195));
#1104=DIRECTION('',(1.,0.,0.));
#1105=DIRECTION('',(0.,0.2079182245032,0.978146211933286));
#1106=DIRECTION('',(1.,0.,0.));
#1107=DIRECTION('',(0.,0.2079182245032,0.978146211933286));
#1108=DIRECTION('',(1.,0.,0.));
#1109=DIRECTION('',(0.,0.2079182245032,0.978146211933286));
#1110=DIRECTION('',(1.,0.,0.));
#1111=DIRECTION('',(0.,0.2079182245032,0.978146211933286));
#1112=DIRECTION('',(1.,0.,0.));
#1113=DIRECTION('',(1.,0.,0.));
#1114=DIRECTION('',(0.,0.2079182245032,0.978146211933286));
#1115=DIRECTION('',(1.,0.,0.));
#1116=DIRECTION('',(-1.,0.,0.));
#1117=DIRECTION('',(0.,-0.2079182245032,-0.978146211933286));
#1118=DIRECTION('',(-1.,0.,0.));
#1119=DIRECTION('',(0.,-0.2079182245032,-0.978146211933286));
#1120=DIRECTION('',(1.,0.,0.));
#1121=DIRECTION('',(0.,-0.207918221802756,0.978146212507302));
#1122=DIRECTION('',(1.,0.,0.));
#1123=DIRECTION('',(0.,-0.207918221802756,0.978146212507302));
#1124=DIRECTION('',(1.,0.,0.));
#1125=DIRECTION('',(0.,-0.207918221802756,0.978146212507302));
#1126=DIRECTION('',(1.,0.,0.));
#1127=DIRECTION('',(0.,-0.207918221802756,0.978146212507302));
#1128=DIRECTION('',(1.,0.,0.));
#1129=DIRECTION('',(1.,0.,0.));
#1130=DIRECTION('',(0.,-0.207918221802756,0.978146212507302));
#1131=DIRECTION('',(1.,0.,0.));
#1132=DIRECTION('',(-1.,0.,0.));
#1133=DIRECTION('',(0.,0.207918221802756,-0.978146212507302));
#1134=DIRECTION('',(-1.,0.,0.));
#1135=DIRECTION('',(0.,0.207918221802756,-0.978146212507302));
#1136=DIRECTION('',(1.,0.,0.));
#1137=DIRECTION('',(0.,-0.587788312803138,0.809014770774947));
#1138=DIRECTION('',(1.,0.,0.));
#1139=DIRECTION('',(0.,-0.587788312803138,0.809014770774947));
#1140=DIRECTION('',(1.,0.,0.));
#1141=DIRECTION('',(0.,-0.587788312803138,0.809014770774947));
#1142=DIRECTION('',(1.,0.,0.));
#1143=DIRECTION('',(0.,-0.587788312803138,0.809014770774947));
#1144=DIRECTION('',(1.,0.,0.));
#1145=DIRECTION('',(1.,0.,0.));
#1146=DIRECTION('',(0.,-0.587788312803138,0.809014770774947));
#1147=DIRECTION('',(1.,0.,0.));
#1148=DIRECTION('',(-1.,0.,0.));
#1149=DIRECTION('',(0.,0.587788312803138,-0.809014770774947));
#1150=DIRECTION('',(-1.,0.,0.));
#1151=DIRECTION('',(0.,0.587788312803138,-0.809014770774947));
#1152=DIRECTION('',(1.,0.,0.));
#1153=DIRECTION('',(0.,-0.866022483622524,0.500005057834694));
#1154=DIRECTION('',(1.,0.,0.));
#1155=DIRECTION('',(0.,-0.866022483622524,0.500005057834694));
#1156=DIRECTION('',(1.,0.,0.));
#1157=DIRECTION('',(0.,-0.866022483622524,0.500005057834694));
#1158=DIRECTION('',(1.,0.,0.));
#1159=DIRECTION('',(0.,-0.866022483622524,0.500005057834694));
#1160=DIRECTION('',(1.,0.,0.));
#1161=DIRECTION('',(1.,0.,0.));
#1162=DIRECTION('',(0.,-0.866022483622524,0.500005057834694));
#1163=DIRECTION('',(1.,0.,0.));
#1164=DIRECTION('',(-1.,0.,0.));
#1165=DIRECTION('',(0.,0.866022483622524,-0.500005057834694));
#1166=DIRECTION('',(-1.,0.,0.));
#1167=DIRECTION('',(0.,0.866022483622524,-0.500005057834694));
#1168=DIRECTION('',(1.,0.,0.));
#1169=DIRECTION('',(0.,-0.994521451130668,0.10453268981974));
#1170=DIRECTION('',(1.,0.,0.));
#1171=DIRECTION('',(0.,-0.994521451130668,0.10453268981974));
#1172=DIRECTION('',(1.,0.,0.));
#1173=DIRECTION('',(0.,-0.994521451130668,0.10453268981974));
#1174=DIRECTION('',(1.,0.,0.));
#1175=DIRECTION('',(0.,-0.994521451130668,0.10453268981974));
#1176=DIRECTION('',(1.,0.,0.));
#1177=DIRECTION('',(1.,0.,0.));
#1178=DIRECTION('',(0.,-0.994521451130668,0.10453268981974));
#1179=DIRECTION('',(1.,0.,0.));
#1180=DIRECTION('',(-1.,0.,0.));
#1181=DIRECTION('',(0.,0.994521451130668,-0.10453268981974));
#1182=DIRECTION('',(-1.,0.,0.));
#1183=DIRECTION('',(0.,0.994521451130668,-0.10453268981974));
#1184=DIRECTION('',(1.,0.,0.));
#1185=DIRECTION('',(0.,-0.951054178271413,-0.309024189979501));
#1186=DIRECTION('',(1.,0.,0.));
#1187=DIRECTION('',(0.,-0.951054178271413,-0.309024189979501));
#1188=DIRECTION('',(1.,0.,0.));
#1189=DIRECTION('',(0.,-0.951054178271413,-0.309024189979501));
#1190=DIRECTION('',(1.,0.,0.));
#1191=DIRECTION('',(0.,-0.951054178271413,-0.309024189979501));
#1192=DIRECTION('',(1.,0.,0.));
#1193=DIRECTION('',(1.,0.,0.));
#1194=DIRECTION('',(0.,-0.951054178271413,-0.309024189979501));
#1195=DIRECTION('',(1.,0.,0.));
#1196=DIRECTION('',(-1.,0.,0.));
#1197=DIRECTION('',(0.,0.951054178271413,0.309024189979501));
#1198=DIRECTION('',(-1.,0.,0.));
#1199=DIRECTION('',(0.,0.951054178271413,0.309024189979501));
#1200=DIRECTION('',(1.,0.,0.));
#1201=DIRECTION('',(0.,-0.743143950419563,-0.669131578207759));
#1202=DIRECTION('',(1.,0.,0.));
#1203=DIRECTION('',(0.,-0.743143950419563,-0.669131578207759));
#1204=DIRECTION('',(1.,0.,0.));
#1205=DIRECTION('',(0.,-0.743143950419563,-0.669131578207759));
#1206=DIRECTION('',(1.,0.,0.));
#1207=DIRECTION('',(0.,-0.743143950419563,-0.669131578207759));
#1208=DIRECTION('',(1.,0.,0.));
#1209=DIRECTION('',(1.,0.,0.));
#1210=DIRECTION('',(0.,-0.743143950419563,-0.669131578207759));
#1211=DIRECTION('',(1.,0.,0.));
#1212=DIRECTION('',(-1.,0.,0.));
#1213=DIRECTION('',(0.,0.743143950419563,0.669131578207759));
#1214=DIRECTION('',(-1.,0.,0.));
#1215=DIRECTION('',(0.,0.743143950419563,0.669131578207759));
#1216=DIRECTION('',(1.,0.,0.));
#1217=DIRECTION('',(0.,-0.406743214872384,-0.913542531661924));
#1218=DIRECTION('',(1.,0.,0.));
#1219=DIRECTION('',(0.,-0.406743214872384,-0.913542531661924));
#1220=DIRECTION('',(1.,0.,0.));
#1221=DIRECTION('',(0.,-0.406743214872384,-0.913542531661924));
#1222=DIRECTION('',(1.,0.,0.));
#1223=DIRECTION('',(0.,-0.406743214872384,-0.913542531661924));
#1224=DIRECTION('',(1.,0.,0.));
#1225=DIRECTION('',(1.,0.,0.));
#1226=DIRECTION('',(0.,-0.406743214872384,-0.913542531661924));
#1227=DIRECTION('',(1.,0.,0.));
#1228=DIRECTION('',(-1.,0.,0.));
#1229=DIRECTION('',(0.,0.406743214872384,0.913542531661924));
#1230=DIRECTION('',(-1.,0.,0.));
#1231=DIRECTION('',(0.,0.406743214872384,0.913542531661924));
#1232=DIRECTION('',(-1.,0.,0.));
#1233=DIRECTION('',(0.,0.,1.));
#1234=DIRECTION('',(-1.,0.,0.));
#1235=DIRECTION('',(0.,0.,1.));
#1236=DIRECTION('',(-1.,0.,0.));
#1237=DIRECTION('',(0.,0.,1.));
#1238=DIRECTION('',(1.,0.,0.));
#1239=DIRECTION('',(1.,0.,0.));
#1240=DIRECTION('',(0.,0.,-1.));
#1241=DIRECTION('',(1.,0.,0.));
#1242=DIRECTION('',(-1.,0.,0.));
#1243=DIRECTION('',(0.,0.,1.));
#1244=DIRECTION('',(-1.,0.,0.));
#1245=DIRECTION('',(0.,0.,1.));
#1246=DIRECTION('',(-1.,0.,0.));
#1247=DIRECTION('',(0.,0.,1.));
#1248=DIRECTION('',(-1.,0.,0.));
#1249=DIRECTION('',(0.,0.,1.));
#1250=DIRECTION('',(-1.,0.,0.));
#1251=DIRECTION('',(0.,0.,1.));
#1252=DIRECTION('',(-1.,0.,0.));
#1253=DIRECTION('',(0.,0.,1.));
#1254=DIRECTION('',(1.,0.,0.));
#1255=DIRECTION('',(0.,0.,-1.));
#1256=DIRECTION('',(1.,0.,0.));
#1257=DIRECTION('',(0.,0.,-1.));
#1258=DIRECTION('',(1.,0.,0.));
#1259=DIRECTION('',(0.,0.,-1.));
#1260=DIRECTION('',(-1.,0.,0.));
#1261=DIRECTION('',(0.,0.,1.));
#1262=DIRECTION('',(-1.,0.,0.));
#1263=DIRECTION('',(0.,0.,1.));
#1264=DIRECTION('',(-1.,0.,0.));
#1265=DIRECTION('',(0.,0.,1.));
#1266=DIRECTION('',(-1.,0.,0.));
#1267=DIRECTION('',(0.,0.,1.));
#1268=DIRECTION('',(-1.,0.,0.));
#1269=DIRECTION('',(0.,0.,1.));
#1270=DIRECTION('',(-1.,0.,0.));
#1271=DIRECTION('',(0.,0.,1.));
#1272=DIRECTION('',(-1.,0.,0.));
#1273=DIRECTION('',(0.,0.,1.));
#1274=DIRECTION('',(1.,0.,0.));
#1275=DIRECTION('',(0.,0.,-1.));
#1276=DIRECTION('',(-1.,0.,0.));
#1277=DIRECTION('',(0.,0.,1.));
#1278=DIRECTION('',(-1.,0.,0.));
#1279=DIRECTION('',(0.,0.,1.));
#1280=DIRECTION('',(-1.,0.,0.));
#1281=DIRECTION('',(0.,0.,1.));
#1282=DIRECTION('',(-1.,0.,0.));
#1283=DIRECTION('',(0.,0.,1.));
#1284=DIRECTION('',(-1.,0.,0.));
#1285=DIRECTION('',(0.,0.,1.));
#1286=DIRECTION('',(-1.,0.,0.));
#1287=DIRECTION('',(0.,0.,1.));
#1288=DIRECTION('',(-1.,0.,0.));
#1289=DIRECTION('',(0.,0.,1.));
#1290=DIRECTION('',(1.,0.,0.));
#1291=DIRECTION('',(0.,0.,-1.));
#1292=DIRECTION('',(1.,0.,0.));
#1293=DIRECTION('',(0.,0.,-1.));
#1294=DIRECTION('',(-1.,0.,0.));
#1295=DIRECTION('',(0.,0.,1.));
#1296=DIRECTION('',(-1.,0.,0.));
#1297=DIRECTION('',(0.,0.,1.));
#1298=DIRECTION('',(1.,0.,0.));
#1299=DIRECTION('',(0.,0.,-1.));
#1300=DIRECTION('',(1.,0.,0.));
#1301=DIRECTION('',(0.,0.,-1.));
#1302=DIRECTION('',(1.,0.,0.));
#1303=DIRECTION('',(0.,0.,-1.));
#1304=DIRECTION('',(1.,0.,0.));
#1305=DIRECTION('',(0.,0.,-1.));
#1306=DIRECTION('',(-1.,0.,0.));
#1307=DIRECTION('',(0.,0.,1.));
#1308=DIRECTION('',(1.,0.,0.));
#1309=DIRECTION('',(0.,0.,-1.));
#1310=DIRECTION('',(-1.,0.,0.));
#1311=DIRECTION('',(0.,0.,1.));
#1312=CARTESIAN_POINT('',(0.,0.,0.));
#1313=CARTESIAN_POINT('',(-4.90000000000001,-3.05052433459157,6.8515899348987));
#1314=CARTESIAN_POINT('',(-4.90000000000001,4.97580265020406E-5,2.09390082312952E-5));
#1315=CARTESIAN_POINT('',(-4.90000000000001,-2.35502153474978,7.75009443581722));
#1316=CARTESIAN_POINT('',(-4.90000000000001,-4.18362672840891,6.93593119339067));
#1317=CARTESIAN_POINT('',(-4.90000000000001,-3.53861618941045,7.94784097424116));
#1318=CARTESIAN_POINT('',(-4.90000000000001,-3.53861618941045,7.94784097424116));
#1319=CARTESIAN_POINT('',(-1.40000000000001,-2.35502153474978,7.75009443581722));
#1320=CARTESIAN_POINT('',(2.09999999999999,-2.35502153474978,7.75009443581722));
#1321=CARTESIAN_POINT('',(2.09999999999999,-3.53861618941045,7.94784097424116));
#1322=CARTESIAN_POINT('',(2.09999999999999,-4.18362672840891,6.93593119339067));
#1323=CARTESIAN_POINT('',(-1.40000000000001,-4.18362672840891,6.93593119339067));
#1324=CARTESIAN_POINT('',(2.09999999999999,-3.05052433459157,6.8515899348987));
#1325=CARTESIAN_POINT('',(2.09999999999999,4.97580265020406E-5,2.09390082312952E-5));
#1326=CARTESIAN_POINT('',(-4.90000000000001,-5.57357961429183,5.01848685194558));
#1327=CARTESIAN_POINT('',(-4.90000000000001,0.,0.));
#1328=CARTESIAN_POINT('',(-4.90000000000001,-5.3036515120314,6.12219573673753));
#1329=CARTESIAN_POINT('',(-4.90000000000001,-6.6430281026024,4.63467125350168));
#1330=CARTESIAN_POINT('',(-4.90000000000001,-6.46535235257851,5.82144474825686));
#1331=CARTESIAN_POINT('',(-4.90000000000001,-6.46535235257851,5.82144474825686));
#1332=CARTESIAN_POINT('',(-1.40000000000001,-5.3036515120314,6.12219573673753));
#1333=CARTESIAN_POINT('',(2.09999999999999,-5.3036515120314,6.12219573673753));
#1334=CARTESIAN_POINT('',(2.09999999999999,-6.46535235257851,5.82144474825686));
#1335=CARTESIAN_POINT('',(2.09999999999999,-6.6430281026024,4.63467125350168));
#1336=CARTESIAN_POINT('',(-1.40000000000001,-6.6430281026024,4.63467125350168));
#1337=CARTESIAN_POINT('',(2.09999999999999,-5.57357961429183,5.01848685194558));
#1338=CARTESIAN_POINT('',(2.09999999999999,0.,0.));
#1339=CARTESIAN_POINT('',(-4.90000000000001,-7.13292316626219,2.31762722647662));
#1340=CARTESIAN_POINT('',(-4.90000000000001,-1.68356251921235E-5,-5.42180620104887E-5));
#1341=CARTESIAN_POINT('',(-4.90000000000001,-7.33524342416743,3.43570638109841));
#1342=CARTESIAN_POINT('',(-4.90000000000001,-7.95380602337248,1.53201547907141));
#1343=CARTESIAN_POINT('',(-4.90000000000001,-8.2741881791641,2.6884562576028));
#1344=CARTESIAN_POINT('',(-4.90000000000001,-8.2741881791641,2.6884562576028));
#1345=CARTESIAN_POINT('',(-1.40000000000001,-7.33524342416743,3.43570638109841));
#1346=CARTESIAN_POINT('',(2.09999999999999,-7.33524342416743,3.43570638109841));
#1347=CARTESIAN_POINT('',(2.09999999999999,-8.2741881791641,2.6884562576028));
#1348=CARTESIAN_POINT('',(2.09999999999999,-7.95380602337248,1.53201547907141));
#1349=CARTESIAN_POINT('',(-1.40000000000001,-7.95380602337248,1.53201547907141));
#1350=CARTESIAN_POINT('',(2.09999999999999,-7.13292316626219,2.31762722647662));
#1351=CARTESIAN_POINT('',(2.09999999999999,-1.68356251921235E-5,-5.42180620104887E-5));
#1352=CARTESIAN_POINT('',(-4.90000000000001,-7.45891410560346,-0.783963443349156));
#1353=CARTESIAN_POINT('',(-4.90000000000001,-3.21995899908722E-6,3.17097064222657E-5));
#1354=CARTESIAN_POINT('',(-4.90000000000001,-8.0985177166679,0.155154069783217));
#1355=CARTESIAN_POINT('',(-4.90000000000001,-7.88927840089353,-1.83554370947157));
#1356=CARTESIAN_POINT('',(-4.90000000000001,-8.65233984730656,-0.909402667838047));
#1357=CARTESIAN_POINT('',(-4.90000000000001,-8.65233984730656,-0.909402667838047));
#1358=CARTESIAN_POINT('',(-1.40000000000001,-8.0985177166679,0.155154069783217));
#1359=CARTESIAN_POINT('',(2.09999999999999,-8.0985177166679,0.155154069783217));
#1360=CARTESIAN_POINT('',(2.09999999999999,-8.65233984730656,-0.909402667838047));
#1361=CARTESIAN_POINT('',(2.09999999999999,-7.88927840089353,-1.83554370947157));
#1362=CARTESIAN_POINT('',(-1.40000000000001,-7.88927840089353,-1.83554370947157));
#1363=CARTESIAN_POINT('',(2.09999999999999,-7.45891410560346,-0.783963443349156));
#1364=CARTESIAN_POINT('',(2.09999999999999,-3.21995899908722E-6,3.17097064222657E-5));
#1365=CARTESIAN_POINT('',(-4.90000000000001,-6.49518930372707,-3.74999925451993));
#1366=CARTESIAN_POINT('',(-4.90000000000001,-2.06662051135259E-5,3.86613085564744E-5));
#1367=CARTESIAN_POINT('',(-4.90000000000001,-7.46147073279018,-3.15222447870018));
#1368=CARTESIAN_POINT('',(-4.90000000000001,-6.46062861714986,-4.88571050378267));
#1369=CARTESIAN_POINT('',(-4.90000000000001,-7.53441628573057,-4.35000532105248));
#1370=CARTESIAN_POINT('',(-4.90000000000001,-7.53441628573057,-4.35000532105248));
#1371=CARTESIAN_POINT('',(-1.40000000000001,-7.46147073279018,-3.15222447870018));
#1372=CARTESIAN_POINT('',(2.09999999999999,-7.46147073279018,-3.15222447870018));
#1373=CARTESIAN_POINT('',(2.09999999999999,-7.53441628573057,-4.35000532105248));
#1374=CARTESIAN_POINT('',(2.09999999999999,-6.46062861714986,-4.88571050378267));
#1375=CARTESIAN_POINT('',(-1.40000000000001,-6.46062861714986,-4.88571050378267));
#1376=CARTESIAN_POINT('',(2.09999999999999,-6.49518930372707,-3.74999925451993));
#1377=CARTESIAN_POINT('',(2.09999999999999,-2.06662051135259E-5,3.86613085564744E-5));
#1378=CARTESIAN_POINT('',(-4.90000000000001,-4.4083884085166,-6.0676261058836));
#1379=CARTESIAN_POINT('',(-4.90000000000001,2.39542582557845E-5,-1.53372421308334E-5));
#1380=CARTESIAN_POINT('',(-4.90000000000001,-5.53426585136069,-5.91454290480172));
#1381=CARTESIAN_POINT('',(-4.90000000000001,-3.9148901184016,-7.09109761032922));
#1382=CARTESIAN_POINT('',(-4.90000000000001,-5.11373438656057,-7.03844382886622));
#1383=CARTESIAN_POINT('',(-4.90000000000001,-5.11373438656057,-7.03844382886622));
#1384=CARTESIAN_POINT('',(-1.40000000000001,-5.53426585136069,-5.91454290480172));
#1385=CARTESIAN_POINT('',(2.09999999999999,-5.53426585136069,-5.91454290480172));
#1386=CARTESIAN_POINT('',(2.09999999999999,-5.11373438656057,-7.03844382886622));
#1387=CARTESIAN_POINT('',(2.09999999999999,-3.9148901184016,-7.09109761032922));
#1388=CARTESIAN_POINT('',(-1.40000000000001,-3.9148901184016,-7.09109761032922));
#1389=CARTESIAN_POINT('',(2.09999999999999,-4.4083884085166,-6.0676261058836));
#1390=CARTESIAN_POINT('',(2.09999999999999,2.39542582557845E-5,-1.53372421308334E-5));
#1391=CARTESIAN_POINT('',(-4.90000000000001,-1.55933759967127,-7.33610662672537));
#1392=CARTESIAN_POINT('',(-4.90000000000001,4.90841027267486E-5,-1.00372257224451E-5));
#1393=CARTESIAN_POINT('',(-4.90000000000001,-2.65014329126819,-7.65419061868093));
#1394=CARTESIAN_POINT('',(-4.90000000000001,-0.692223239264005,-8.07037304209115));
#1395=CARTESIAN_POINT('',(-4.90000000000001,-1.80883946907511,-8.5098820810453));
#1396=CARTESIAN_POINT('',(-4.90000000000001,-1.80883946907511,-8.5098820810453));
#1397=CARTESIAN_POINT('',(-1.40000000000001,-2.65014329126819,-7.65419061868093));
#1398=CARTESIAN_POINT('',(2.09999999999999,-2.65014329126819,-7.65419061868093));
#1399=CARTESIAN_POINT('',(2.09999999999999,-1.80883946907511,-8.5098820810453));
#1400=CARTESIAN_POINT('',(2.09999999999999,-0.692223239264005,-8.07037304209115));
#1401=CARTESIAN_POINT('',(-1.40000000000001,-0.692223239264005,-8.07037304209115));
#1402=CARTESIAN_POINT('',(2.09999999999999,-1.55933759967127,-7.33610662672537));
#1403=CARTESIAN_POINT('',(2.09999999999999,4.90841027267486E-5,-1.00372257224451E-5));
#1404=CARTESIAN_POINT('',(-4.9,1.55933757941791,-7.33610663103036));
#1405=CARTESIAN_POINT('',(-4.9,-4.90841027640451E-5,-1.00372255906062E-5));
#1406=CARTESIAN_POINT('',(-4.9,0.692223216983499,-8.07037304400223));
#1407=CARTESIAN_POINT('',(-4.9,2.65014327013667,-7.65419062599739));
#1408=CARTESIAN_POINT('',(-4.9,1.80883944558122,-8.50988208603911));
#1409=CARTESIAN_POINT('',(-4.9,1.80883944558122,-8.50988208603911));
#1410=CARTESIAN_POINT('',(-1.40000000000001,0.692223216983499,-8.07037304400223));
#1411=CARTESIAN_POINT('',(2.09999999999999,0.692223216983499,-8.07037304400223));
#1412=CARTESIAN_POINT('',(2.09999999999999,1.80883944558122,-8.50988208603911));
#1413=CARTESIAN_POINT('',(2.09999999999999,2.65014327013667,-7.65419062599739));
#1414=CARTESIAN_POINT('',(-1.40000000000001,2.65014327013667,-7.65419062599739));
#1415=CARTESIAN_POINT('',(2.09999999999999,1.55933757941791,-7.33610663103036));
#1416=CARTESIAN_POINT('',(2.09999999999999,-4.90841027640451E-5,-1.00372255906062E-5));
#1417=CARTESIAN_POINT('',(-4.90000000000001,4.40838839176525,-6.06762611805417));
#1418=CARTESIAN_POINT('',(-4.90000000000001,-2.39542582922136E-5,-1.53372420614445E-5));
#1419=CARTESIAN_POINT('',(-4.90000000000001,3.91489009882467,-7.09109762113735));
#1420=CARTESIAN_POINT('',(-4.90000000000001,5.53426583503196,-5.91454292008059));
#1421=CARTESIAN_POINT('',(-4.90000000000001,5.11373436712901,-7.03844384298409));
#1422=CARTESIAN_POINT('',(-4.90000000000001,5.11373436712901,-7.03844384298409));
#1423=CARTESIAN_POINT('',(-1.40000000000001,3.91489009882467,-7.09109762113735));
#1424=CARTESIAN_POINT('',(2.09999999999999,3.91489009882467,-7.09109762113735));
#1425=CARTESIAN_POINT('',(2.09999999999999,5.11373436712901,-7.03844384298409));
#1426=CARTESIAN_POINT('',(2.09999999999999,5.53426583503196,-5.91454292008059));
#1427=CARTESIAN_POINT('',(-1.40000000000001,5.53426583503196,-5.91454292008059));
#1428=CARTESIAN_POINT('',(2.09999999999999,4.40838839176525,-6.06762611805417));
#1429=CARTESIAN_POINT('',(2.09999999999999,-2.39542582922136E-5,-1.53372420614445E-5));
#1430=CARTESIAN_POINT('',(-4.90000000000001,6.49518929337416,-3.7499992724517));
#1431=CARTESIAN_POINT('',(-4.90000000000001,2.06662052262829E-5,3.86613085087695E-5));
#1432=CARTESIAN_POINT('',(-4.90000000000001,6.46062860366151,-4.88571052161902));
#1433=CARTESIAN_POINT('',(-4.90000000000001,7.4614707240876,-3.15222449929963));
#1434=CARTESIAN_POINT('',(-4.90000000000001,7.53441627372118,-4.35000534185332));
#1435=CARTESIAN_POINT('',(-4.90000000000001,7.53441627372118,-4.35000534185332));
#1436=CARTESIAN_POINT('',(-1.40000000000001,6.46062860366151,-4.88571052161902));
#1437=CARTESIAN_POINT('',(2.09999999999999,6.46062860366151,-4.88571052161902));
#1438=CARTESIAN_POINT('',(2.09999999999999,7.53441627372118,-4.35000534185332));
#1439=CARTESIAN_POINT('',(2.09999999999999,7.4614707240876,-3.15222449929963));
#1440=CARTESIAN_POINT('',(-1.40000000000001,7.4614707240876,-3.15222449929963));
#1441=CARTESIAN_POINT('',(2.09999999999999,6.49518929337416,-3.7499992724517));
#1442=CARTESIAN_POINT('',(2.09999999999999,2.06662052262829E-5,3.86613085087695E-5));
#1443=CARTESIAN_POINT('',(-4.9,7.45891410343911,-0.783963463941564));
#1444=CARTESIAN_POINT('',(-4.9,3.21995909276229E-6,3.17097064847158E-5));
#1445=CARTESIAN_POINT('',(-4.9,7.889278395826,-1.83554373125212));
#1446=CARTESIAN_POINT('',(-4.9,8.09851771709626,0.155154047424999));
#1447=CARTESIAN_POINT('',(-4.9,8.6523398447959,-0.90940269172525));
#1448=CARTESIAN_POINT('',(-4.9,8.6523398447959,-0.90940269172525));
#1449=CARTESIAN_POINT('',(-1.40000000000001,7.889278395826,-1.83554373125212));
#1450=CARTESIAN_POINT('',(2.09999999999999,7.889278395826,-1.83554373125212));
#1451=CARTESIAN_POINT('',(2.09999999999999,8.6523398447959,-0.90940269172525));
#1452=CARTESIAN_POINT('',(2.09999999999999,8.09851771709626,0.155154047424999));
#1453=CARTESIAN_POINT('',(-1.40000000000001,8.09851771709626,0.155154047424999));
#1454=CARTESIAN_POINT('',(2.09999999999999,7.45891410343911,-0.783963463941564));
#1455=CARTESIAN_POINT('',(2.09999999999999,3.21995909276229E-6,3.17097064847158E-5));
#1456=CARTESIAN_POINT('',(-4.90000000000001,7.13292317266065,2.3176272067842));
#1457=CARTESIAN_POINT('',(-4.90000000000001,1.68356250403352E-5,-5.4218062059061E-5));
#1458=CARTESIAN_POINT('',(-4.90000000000001,7.95380602760203,1.53201545711271));
#1459=CARTESIAN_POINT('',(-4.90000000000001,7.33524343365265,3.43570636084742));
#1460=CARTESIAN_POINT('',(-4.90000000000001,8.27418818658633,2.68845623475959));
#1461=CARTESIAN_POINT('',(-4.90000000000001,8.27418818658633,2.68845623475959));
#1462=CARTESIAN_POINT('',(-1.40000000000001,7.95380602760203,1.53201545711271));
#1463=CARTESIAN_POINT('',(2.09999999999999,7.95380602760203,1.53201545711271));
#1464=CARTESIAN_POINT('',(2.09999999999999,8.27418818658633,2.68845623475959));
#1465=CARTESIAN_POINT('',(2.09999999999999,7.33524343365265,3.43570636084742));
#1466=CARTESIAN_POINT('',(-1.40000000000001,7.33524343365265,3.43570636084742));
#1467=CARTESIAN_POINT('',(2.09999999999999,7.13292317266065,2.3176272067842));
#1468=CARTESIAN_POINT('',(2.09999999999999,1.68356250403352E-5,-5.4218062059061E-5));
#1469=CARTESIAN_POINT('',(-4.90000000000001,5.57357962814673,5.01848683655819));
#1470=CARTESIAN_POINT('',(-4.90000000000001,0.,0.));
#1471=CARTESIAN_POINT('',(-4.90000000000001,6.64302811539767,4.6346712351618));
#1472=CARTESIAN_POINT('',(-4.90000000000001,5.30365152893339,6.12219572209535));
#1473=CARTESIAN_POINT('',(-4.90000000000001,6.46535236865019,5.8214447304075));
#1474=CARTESIAN_POINT('',(-4.90000000000001,6.46535236865019,5.8214447304075));
#1475=CARTESIAN_POINT('',(-1.40000000000001,6.64302811539767,4.6346712351618));
#1476=CARTESIAN_POINT('',(2.09999999999999,6.64302811539767,4.6346712351618));
#1477=CARTESIAN_POINT('',(2.09999999999999,6.46535236865019,5.8214447304075));
#1478=CARTESIAN_POINT('',(2.09999999999999,5.30365152893339,6.12219572209535));
#1479=CARTESIAN_POINT('',(-1.40000000000001,5.30365152893339,6.12219572209535));
#1480=CARTESIAN_POINT('',(2.09999999999999,5.57357962814673,5.01848683655819));
#1481=CARTESIAN_POINT('',(2.09999999999999,0.,0.));
#1482=CARTESIAN_POINT('',(-4.90000000000001,3.05052435352286,6.85158992647011));
#1483=CARTESIAN_POINT('',(-4.90000000000001,-4.97580200267515E-5,2.09390056691086E-5));
#1484=CARTESIAN_POINT('',(-4.90000000000001,4.18362674757316,6.93593118183232));
#1485=CARTESIAN_POINT('',(-4.90000000000001,2.35502155616284,7.75009442930969));
#1486=CARTESIAN_POINT('',(-4.90000000000001,3.53861621136971,7.9478409644644));
#1487=CARTESIAN_POINT('',(-4.90000000000001,3.53861621136971,7.9478409644644));
#1488=CARTESIAN_POINT('',(-1.40000000000001,4.18362674757316,6.93593118183232));
#1489=CARTESIAN_POINT('',(2.09999999999999,4.18362674757316,6.93593118183232));
#1490=CARTESIAN_POINT('',(2.09999999999999,3.53861621136971,7.9478409644644));
#1491=CARTESIAN_POINT('',(2.09999999999999,2.35502155616284,7.75009442930969));
#1492=CARTESIAN_POINT('',(-1.40000000000001,2.35502155616284,7.75009442930969));
#1493=CARTESIAN_POINT('',(2.09999999999999,3.05052435352286,6.85158992647011));
#1494=CARTESIAN_POINT('',(2.09999999999999,-4.97580200267515E-5,2.09390056691086E-5));
#1495=CARTESIAN_POINT('',(0.,0.,0.));
#1496=CARTESIAN_POINT('',(-6.3,0.,0.));
#1497=CARTESIAN_POINT('',(-6.3,0.,8.10000000000001));
#1498=CARTESIAN_POINT('',(3.49999999999999,0.,0.));
#1499=CARTESIAN_POINT('',(3.49999999999999,0.,8.10000000000001));
#1500=CARTESIAN_POINT('',(-1.40000000000001,1.0008319963405,8.03793103448277));
#1501=CARTESIAN_POINT('',(2.09999999999999,1.0008319963405,8.03793103448277));
#1502=CARTESIAN_POINT('',(-4.90000000000001,1.0008319963405,8.03793103448277));
#1503=CARTESIAN_POINT('',(-4.90000000000001,0.,0.));
#1504=CARTESIAN_POINT('',(-4.90000000000001,-1.0008319963405,8.03793103448277));
#1505=CARTESIAN_POINT('',(-1.40000000000001,-1.0008319963405,8.03793103448277));
#1506=CARTESIAN_POINT('',(2.09999999999999,-1.0008319963405,8.03793103448277));
#1507=CARTESIAN_POINT('',(2.09999999999999,0.,0.));
#1508=CARTESIAN_POINT('',(-7.,0.,10.5));
#1509=CARTESIAN_POINT('',(-7.,0.,0.));
#1510=CARTESIAN_POINT('',(-7.,0.,10.1));
#1511=CARTESIAN_POINT('',(-7.,0.,0.));
#1512=CARTESIAN_POINT('',(-7.,0.,7.50000000000001));
#1513=CARTESIAN_POINT('',(0.,0.,0.));
#1514=CARTESIAN_POINT('',(-6.6,0.,0.));
#1515=CARTESIAN_POINT('',(-6.6,0.,10.5));
#1516=CARTESIAN_POINT('',(6.6,0.,0.));
#1517=CARTESIAN_POINT('',(6.6,0.,-10.5));
#1518=CARTESIAN_POINT('',(7.,0.,10.5));
#1519=CARTESIAN_POINT('',(7.,0.,0.));
#1520=CARTESIAN_POINT('',(7.,0.,-10.1));
#1521=CARTESIAN_POINT('',(7.,0.,0.));
#1522=CARTESIAN_POINT('',(7.,0.,7.50000000000001));
#1523=CARTESIAN_POINT('',(0.,0.,0.));
#1524=CARTESIAN_POINT('',(6.3,0.,0.));
#1525=CARTESIAN_POINT('',(6.3,0.,7.50000000000001));
#1526=CARTESIAN_POINT('',(6.3,0.,7.50000000000001));
#1527=CARTESIAN_POINT('',(6.3,0.,0.));
#1528=CARTESIAN_POINT('',(6.3,0.,8.4));
#1529=CARTESIAN_POINT('',(0.,0.,0.));
#1530=CARTESIAN_POINT('',(5.95,0.,0.));
#1531=CARTESIAN_POINT('',(5.95,0.,8.4));
#1532=CARTESIAN_POINT('',(5.95,0.,8.4));
#1533=CARTESIAN_POINT('',(5.95,0.,0.));
#1534=CARTESIAN_POINT('',(5.95,0.,7.50000000000001));
#1535=CARTESIAN_POINT('',(0.,0.,0.));
#1536=CARTESIAN_POINT('',(3.84999999999999,0.,0.));
#1537=CARTESIAN_POINT('',(3.84999999999999,0.,7.50000000000001));
#1538=CARTESIAN_POINT('',(3.84999999999999,0.,8.4));
#1539=CARTESIAN_POINT('',(3.85,0.,0.));
#1540=CARTESIAN_POINT('',(3.85,0.,8.4));
#1541=CARTESIAN_POINT('',(0.,0.,0.));
#1542=CARTESIAN_POINT('',(3.5,0.,0.));
#1543=CARTESIAN_POINT('',(3.5,0.,8.4));
#1544=CARTESIAN_POINT('',(3.49999999999999,0.,8.4));
#1545=CARTESIAN_POINT('',(-6.3,0.,7.50000000000001));
#1546=CARTESIAN_POINT('',(-6.3,0.,0.));
#1547=CARTESIAN_POINT('',(-6.3,0.,7.50000000000001));
#1548=CARTESIAN_POINT('',(0.,0.,0.));
#1549=CARTESIAN_POINT('',(-4.90000000000001,0.,7.50000000000001));
#1550=CARTESIAN_POINT('',(-4.90000000000001,0.,8.69999999999999));
#1551=CARTESIAN_POINT('',(-4.90000000000001,0.,8.69999999999999));
#1552=CARTESIAN_POINT('',(2.09999999999999,0.,8.69999999999999));
#1553=CARTESIAN_POINT('',(2.09999999999999,0.,7.50000000000001));
#1554=CARTESIAN_POINT('',(6.6,0.,0.));
#1555=CARTESIAN_POINT('',(-6.6,0.,0.));
#1556=MECHANICAL_DESIGN_GEOMETRIC_PRESENTATION_REPRESENTATION('',(#857),
#1557);
#1557=(
GEOMETRIC_REPRESENTATION_CONTEXT(3)
GLOBAL_UNCERTAINTY_ASSIGNED_CONTEXT((#1558))
GLOBAL_UNIT_ASSIGNED_CONTEXT((#1561,#1560,#1559))
REPRESENTATION_CONTEXT(
'\X2\51B2538B591657086EDA94888F74627F\X0\HK0000-RS\X2\578B\X0\1 GBT290
-2017','TOP_LEVEL_ASSEMBLY_PART')
);
#1558=UNCERTAINTY_MEASURE_WITH_UNIT(LENGTH_MEASURE(0.005),#1561,
'DISTANCE_ACCURACY_VALUE','Maximum Tolerance applied to model');
#1559=(
NAMED_UNIT(*)
SI_UNIT($,.STERADIAN.)
SOLID_ANGLE_UNIT()
);
#1560=(
NAMED_UNIT(*)
PLANE_ANGLE_UNIT()
SI_UNIT($,.RADIAN.)
);
#1561=(
LENGTH_UNIT()
NAMED_UNIT(*)
SI_UNIT(.MILLI.,.METRE.)
);
#1562=PRODUCT_DEFINITION_SHAPE('','',#1563);
#1563=PRODUCT_DEFINITION('','',#1565,#1564);
#1564=PRODUCT_DEFINITION_CONTEXT('',#1571,'design');
#1565=PRODUCT_DEFINITION_FORMATION_WITH_SPECIFIED_SOURCE('','',#1567,
 .NOT_KNOWN.);
#1566=PRODUCT_RELATED_PRODUCT_CATEGORY('','',(#1567));
#1567=PRODUCT('\X2\51B2538B591657086EDA94888F74627F\X0\HK0000-RS\X2\578B\X0\1
 GBT290-2017','\X2\51B2538B591657086EDA94888F74627F\X0\HK0000-RS\X2\578B\X0\1
 GBT290-2017','\X2\51B2538B591657086EDA94888F74627F\X0\HK0000-RS\X2\578B\X0\1
 GBT290-2017',(#1569));
#1568=PRODUCT_CATEGORY('','');
#1569=PRODUCT_CONTEXT('',#1571,'mechanical');
#1570=APPLICATION_PROTOCOL_DEFINITION('international standard',
'automotive_design',2010,#1571);
#1571=APPLICATION_CONTEXT(
'core data for automotive mechanical design processes');
ENDSEC;
END-ISO-10303-21;
