ISO-10303-21;
HEADER;
/* Generated by software containing HOOPS Exchange Step
 * from HOOPS Exchange, Inc. (www.tiangong.cloud) 
 */

FILE_DESCRIPTION(
/* description */ ('Unknown'),
/* implementation_level */ '2;1');

FILE_NAME(
/* name */ '\X2\975E52A05F3A578B570667F16EDA5B508F74627F\X0\RNU\X2\578B\X0\ 
GBT283-2021',
/* time_stamp */ '2025-12-24T17:43:40+08:00',
/* author */ ('Unknown'),
/* organization */ ('Unknown'),
/* preprocessor_version */ 'ST-DEVELOPER v19.4',
/* originating_system */ 'TianGong',
/* authorisation */ 'Unknown');

FILE_SCHEMA (('AUTOMOTIVE_DESIGN {1 0 10303 214 3 1 1}'));
ENDSEC;

DATA;
#10=PROPERTY_DEFINITION_REPRESENTATION(#14,#12);
#11=PROPERTY_DEFINITION_REPRESENTATION(#15,#13);
#12=REPRESENTATION('',(#16),#2255);
#13=REPRESENTATION('',(#17),#2255);
#14=PROPERTY_DEFINITION('pmi validation property','',#2260);
#15=PROPERTY_DEFINITION('pmi validation property','',#2260);
#16=VALUE_REPRESENTATION_ITEM('number of annotations',COUNT_MEASURE(0.));
#17=VALUE_REPRESENTATION_ITEM('number of views',COUNT_MEASURE(0.));
#18=SHAPE_REPRESENTATION_RELATIONSHIP('','',#1183,#19);
#19=ADVANCED_BREP_SHAPE_REPRESENTATION('',(#1181),#2255);
#20=TOROIDAL_SURFACE('',#1412,16.9,0.6);
#21=TOROIDAL_SURFACE('',#1413,16.9,0.6);
#22=PLANE('',#1188);
#23=PLANE('',#1192);
#24=PLANE('',#1196);
#25=PLANE('',#1203);
#26=PLANE('',#1208);
#27=PLANE('',#1212);
#28=PLANE('',#1216);
#29=PLANE('',#1223);
#30=PLANE('',#1225);
#31=PLANE('',#1234);
#32=PLANE('',#1242);
#33=PLANE('',#1245);
#34=PLANE('',#1248);
#35=PLANE('',#1254);
#36=PLANE('',#1258);
#37=PLANE('',#1262);
#38=PLANE('',#1269);
#39=PLANE('',#1274);
#40=PLANE('',#1277);
#41=PLANE('',#1280);
#42=PLANE('',#1287);
#43=PLANE('',#1292);
#44=PLANE('',#1295);
#45=PLANE('',#1298);
#46=PLANE('',#1303);
#47=PLANE('',#1308);
#48=PLANE('',#1311);
#49=PLANE('',#1314);
#50=PLANE('',#1321);
#51=PLANE('',#1326);
#52=PLANE('',#1329);
#53=PLANE('',#1332);
#54=PLANE('',#1337);
#55=PLANE('',#1342);
#56=PLANE('',#1345);
#57=PLANE('',#1348);
#58=PLANE('',#1355);
#59=PLANE('',#1360);
#60=PLANE('',#1363);
#61=PLANE('',#1366);
#62=PLANE('',#1371);
#63=PLANE('',#1373);
#64=PLANE('',#1376);
#65=PLANE('',#1383);
#66=PLANE('',#1388);
#67=PLANE('',#1401);
#68=PLANE('',#1403);
#69=PLANE('',#1405);
#70=PLANE('',#1407);
#71=PLANE('',#1411);
#72=LINE('',#1903,#96);
#73=LINE('',#1907,#97);
#74=LINE('',#1927,#98);
#75=LINE('',#1938,#99);
#76=LINE('',#1942,#100);
#77=LINE('',#1962,#101);
#78=LINE('',#1975,#102);
#79=LINE('',#1981,#103);
#80=LINE('',#1995,#104);
#81=LINE('',#2001,#105);
#82=LINE('',#2018,#106);
#83=LINE('',#2022,#107);
#84=LINE('',#2042,#108);
#85=LINE('',#2052,#109);
#86=LINE('',#2070,#110);
#87=LINE('',#2080,#111);
#88=LINE('',#2101,#112);
#89=LINE('',#2119,#113);
#90=LINE('',#2129,#114);
#91=LINE('',#2150,#115);
#92=LINE('',#2168,#116);
#93=LINE('',#2178,#117);
#94=LINE('',#2207,#118);
#95=LINE('',#2217,#119);
#96=VECTOR('',#1420,1000.);
#97=VECTOR('',#1423,1000.);
#98=VECTOR('',#1450,1000.);
#99=VECTOR('',#1463,1000.);
#100=VECTOR('',#1466,1000.);
#101=VECTOR('',#1493,1000.);
#102=VECTOR('',#1510,1000.);
#103=VECTOR('',#1515,1000.);
#104=VECTOR('',#1532,1000.);
#105=VECTOR('',#1539,1000.);
#106=VECTOR('',#1562,1000.);
#107=VECTOR('',#1565,1000.);
#108=VECTOR('',#1592,1000.);
#109=VECTOR('',#1605,1000.);
#110=VECTOR('',#1630,1000.);
#111=VECTOR('',#1643,1000.);
#112=VECTOR('',#1676,1000.);
#113=VECTOR('',#1701,1000.);
#114=VECTOR('',#1714,1000.);
#115=VECTOR('',#1747,1000.);
#116=VECTOR('',#1772,1000.);
#117=VECTOR('',#1785,1000.);
#118=VECTOR('',#1830,1000.);
#119=VECTOR('',#1843,1000.);
#120=ORIENTED_EDGE('',*,*,#468,.F.);
#121=ORIENTED_EDGE('',*,*,#469,.T.);
#122=ORIENTED_EDGE('',*,*,#470,.T.);
#123=ORIENTED_EDGE('',*,*,#471,.T.);
#124=ORIENTED_EDGE('',*,*,#468,.T.);
#125=ORIENTED_EDGE('',*,*,#472,.T.);
#126=ORIENTED_EDGE('',*,*,#473,.F.);
#127=ORIENTED_EDGE('',*,*,#474,.T.);
#128=ORIENTED_EDGE('',*,*,#475,.T.);
#129=ORIENTED_EDGE('',*,*,#476,.F.);
#130=ORIENTED_EDGE('',*,*,#470,.F.);
#131=ORIENTED_EDGE('',*,*,#477,.F.);
#132=ORIENTED_EDGE('',*,*,#478,.F.);
#133=ORIENTED_EDGE('',*,*,#479,.T.);
#134=ORIENTED_EDGE('',*,*,#469,.F.);
#135=ORIENTED_EDGE('',*,*,#474,.F.);
#136=ORIENTED_EDGE('',*,*,#479,.F.);
#137=ORIENTED_EDGE('',*,*,#480,.F.);
#138=ORIENTED_EDGE('',*,*,#481,.F.);
#139=ORIENTED_EDGE('',*,*,#482,.T.);
#140=ORIENTED_EDGE('',*,*,#483,.T.);
#141=ORIENTED_EDGE('',*,*,#477,.T.);
#142=ORIENTED_EDGE('',*,*,#483,.F.);
#143=ORIENTED_EDGE('',*,*,#484,.T.);
#144=ORIENTED_EDGE('',*,*,#485,.F.);
#145=ORIENTED_EDGE('',*,*,#486,.T.);
#146=ORIENTED_EDGE('',*,*,#487,.T.);
#147=ORIENTED_EDGE('',*,*,#488,.T.);
#148=ORIENTED_EDGE('',*,*,#485,.T.);
#149=ORIENTED_EDGE('',*,*,#489,.T.);
#150=ORIENTED_EDGE('',*,*,#490,.F.);
#151=ORIENTED_EDGE('',*,*,#491,.T.);
#152=ORIENTED_EDGE('',*,*,#492,.T.);
#153=ORIENTED_EDGE('',*,*,#493,.F.);
#154=ORIENTED_EDGE('',*,*,#487,.F.);
#155=ORIENTED_EDGE('',*,*,#494,.F.);
#156=ORIENTED_EDGE('',*,*,#495,.F.);
#157=ORIENTED_EDGE('',*,*,#496,.T.);
#158=ORIENTED_EDGE('',*,*,#486,.F.);
#159=ORIENTED_EDGE('',*,*,#491,.F.);
#160=ORIENTED_EDGE('',*,*,#496,.F.);
#161=ORIENTED_EDGE('',*,*,#497,.F.);
#162=ORIENTED_EDGE('',*,*,#498,.F.);
#163=ORIENTED_EDGE('',*,*,#499,.T.);
#164=ORIENTED_EDGE('',*,*,#500,.T.);
#165=ORIENTED_EDGE('',*,*,#494,.T.);
#166=ORIENTED_EDGE('',*,*,#500,.F.);
#167=ORIENTED_EDGE('',*,*,#501,.T.);
#168=ORIENTED_EDGE('',*,*,#502,.F.);
#169=ORIENTED_EDGE('',*,*,#503,.T.);
#170=ORIENTED_EDGE('',*,*,#504,.F.);
#171=ORIENTED_EDGE('',*,*,#505,.F.);
#172=ORIENTED_EDGE('',*,*,#503,.F.);
#173=ORIENTED_EDGE('',*,*,#506,.F.);
#174=ORIENTED_EDGE('',*,*,#507,.F.);
#175=ORIENTED_EDGE('',*,*,#508,.T.);
#176=ORIENTED_EDGE('',*,*,#509,.T.);
#177=ORIENTED_EDGE('',*,*,#510,.T.);
#178=ORIENTED_EDGE('',*,*,#509,.F.);
#179=ORIENTED_EDGE('',*,*,#511,.T.);
#180=ORIENTED_EDGE('',*,*,#512,.F.);
#181=ORIENTED_EDGE('',*,*,#504,.T.);
#182=ORIENTED_EDGE('',*,*,#513,.T.);
#183=ORIENTED_EDGE('',*,*,#514,.T.);
#184=ORIENTED_EDGE('',*,*,#515,.T.);
#185=ORIENTED_EDGE('',*,*,#507,.T.);
#186=ORIENTED_EDGE('',*,*,#516,.F.);
#187=ORIENTED_EDGE('',*,*,#517,.T.);
#188=ORIENTED_EDGE('',*,*,#518,.F.);
#189=ORIENTED_EDGE('',*,*,#505,.T.);
#190=ORIENTED_EDGE('',*,*,#512,.T.);
#191=ORIENTED_EDGE('',*,*,#519,.T.);
#192=ORIENTED_EDGE('',*,*,#508,.F.);
#193=ORIENTED_EDGE('',*,*,#515,.F.);
#194=ORIENTED_EDGE('',*,*,#520,.F.);
#195=ORIENTED_EDGE('',*,*,#521,.T.);
#196=ORIENTED_EDGE('',*,*,#510,.F.);
#197=ORIENTED_EDGE('',*,*,#522,.T.);
#198=ORIENTED_EDGE('',*,*,#523,.F.);
#199=ORIENTED_EDGE('',*,*,#513,.F.);
#200=ORIENTED_EDGE('',*,*,#524,.F.);
#201=ORIENTED_EDGE('',*,*,#525,.T.);
#202=ORIENTED_EDGE('',*,*,#526,.T.);
#203=ORIENTED_EDGE('',*,*,#527,.T.);
#204=ORIENTED_EDGE('',*,*,#524,.T.);
#205=ORIENTED_EDGE('',*,*,#528,.T.);
#206=ORIENTED_EDGE('',*,*,#529,.F.);
#207=ORIENTED_EDGE('',*,*,#530,.T.);
#208=ORIENTED_EDGE('',*,*,#531,.T.);
#209=ORIENTED_EDGE('',*,*,#532,.F.);
#210=ORIENTED_EDGE('',*,*,#526,.F.);
#211=ORIENTED_EDGE('',*,*,#533,.F.);
#212=ORIENTED_EDGE('',*,*,#534,.F.);
#213=ORIENTED_EDGE('',*,*,#535,.T.);
#214=ORIENTED_EDGE('',*,*,#525,.F.);
#215=ORIENTED_EDGE('',*,*,#530,.F.);
#216=ORIENTED_EDGE('',*,*,#535,.F.);
#217=ORIENTED_EDGE('',*,*,#536,.F.);
#218=ORIENTED_EDGE('',*,*,#537,.F.);
#219=ORIENTED_EDGE('',*,*,#538,.T.);
#220=ORIENTED_EDGE('',*,*,#539,.T.);
#221=ORIENTED_EDGE('',*,*,#533,.T.);
#222=ORIENTED_EDGE('',*,*,#539,.F.);
#223=ORIENTED_EDGE('',*,*,#540,.T.);
#224=ORIENTED_EDGE('',*,*,#541,.F.);
#225=ORIENTED_EDGE('',*,*,#542,.T.);
#226=ORIENTED_EDGE('',*,*,#543,.T.);
#227=ORIENTED_EDGE('',*,*,#537,.T.);
#228=ORIENTED_EDGE('',*,*,#541,.T.);
#229=ORIENTED_EDGE('',*,*,#536,.T.);
#230=ORIENTED_EDGE('',*,*,#544,.F.);
#231=ORIENTED_EDGE('',*,*,#545,.T.);
#232=ORIENTED_EDGE('',*,*,#546,.T.);
#233=ORIENTED_EDGE('',*,*,#538,.F.);
#234=ORIENTED_EDGE('',*,*,#543,.F.);
#235=ORIENTED_EDGE('',*,*,#547,.F.);
#236=ORIENTED_EDGE('',*,*,#548,.F.);
#237=ORIENTED_EDGE('',*,*,#549,.T.);
#238=ORIENTED_EDGE('',*,*,#542,.F.);
#239=ORIENTED_EDGE('',*,*,#545,.F.);
#240=ORIENTED_EDGE('',*,*,#549,.F.);
#241=ORIENTED_EDGE('',*,*,#550,.F.);
#242=ORIENTED_EDGE('',*,*,#551,.F.);
#243=ORIENTED_EDGE('',*,*,#552,.T.);
#244=ORIENTED_EDGE('',*,*,#553,.T.);
#245=ORIENTED_EDGE('',*,*,#547,.T.);
#246=ORIENTED_EDGE('',*,*,#553,.F.);
#247=ORIENTED_EDGE('',*,*,#554,.T.);
#248=ORIENTED_EDGE('',*,*,#555,.F.);
#249=ORIENTED_EDGE('',*,*,#556,.T.);
#250=ORIENTED_EDGE('',*,*,#557,.T.);
#251=ORIENTED_EDGE('',*,*,#551,.T.);
#252=ORIENTED_EDGE('',*,*,#555,.T.);
#253=ORIENTED_EDGE('',*,*,#550,.T.);
#254=ORIENTED_EDGE('',*,*,#558,.F.);
#255=ORIENTED_EDGE('',*,*,#559,.T.);
#256=ORIENTED_EDGE('',*,*,#560,.T.);
#257=ORIENTED_EDGE('',*,*,#552,.F.);
#258=ORIENTED_EDGE('',*,*,#557,.F.);
#259=ORIENTED_EDGE('',*,*,#561,.F.);
#260=ORIENTED_EDGE('',*,*,#562,.F.);
#261=ORIENTED_EDGE('',*,*,#563,.T.);
#262=ORIENTED_EDGE('',*,*,#556,.F.);
#263=ORIENTED_EDGE('',*,*,#559,.F.);
#264=ORIENTED_EDGE('',*,*,#563,.F.);
#265=ORIENTED_EDGE('',*,*,#472,.F.);
#266=ORIENTED_EDGE('',*,*,#471,.F.);
#267=ORIENTED_EDGE('',*,*,#476,.T.);
#268=ORIENTED_EDGE('',*,*,#564,.T.);
#269=ORIENTED_EDGE('',*,*,#561,.T.);
#270=ORIENTED_EDGE('',*,*,#564,.F.);
#271=ORIENTED_EDGE('',*,*,#565,.T.);
#272=ORIENTED_EDGE('',*,*,#566,.F.);
#273=ORIENTED_EDGE('',*,*,#567,.T.);
#274=ORIENTED_EDGE('',*,*,#568,.T.);
#275=ORIENTED_EDGE('',*,*,#481,.T.);
#276=ORIENTED_EDGE('',*,*,#566,.T.);
#277=ORIENTED_EDGE('',*,*,#480,.T.);
#278=ORIENTED_EDGE('',*,*,#569,.F.);
#279=ORIENTED_EDGE('',*,*,#570,.T.);
#280=ORIENTED_EDGE('',*,*,#571,.T.);
#281=ORIENTED_EDGE('',*,*,#482,.F.);
#282=ORIENTED_EDGE('',*,*,#568,.F.);
#283=ORIENTED_EDGE('',*,*,#572,.F.);
#284=ORIENTED_EDGE('',*,*,#573,.F.);
#285=ORIENTED_EDGE('',*,*,#574,.T.);
#286=ORIENTED_EDGE('',*,*,#567,.F.);
#287=ORIENTED_EDGE('',*,*,#570,.F.);
#288=ORIENTED_EDGE('',*,*,#574,.F.);
#289=ORIENTED_EDGE('',*,*,#575,.F.);
#290=ORIENTED_EDGE('',*,*,#576,.F.);
#291=ORIENTED_EDGE('',*,*,#577,.T.);
#292=ORIENTED_EDGE('',*,*,#578,.T.);
#293=ORIENTED_EDGE('',*,*,#572,.T.);
#294=ORIENTED_EDGE('',*,*,#578,.F.);
#295=ORIENTED_EDGE('',*,*,#579,.T.);
#296=ORIENTED_EDGE('',*,*,#580,.F.);
#297=ORIENTED_EDGE('',*,*,#581,.T.);
#298=ORIENTED_EDGE('',*,*,#582,.T.);
#299=ORIENTED_EDGE('',*,*,#576,.T.);
#300=ORIENTED_EDGE('',*,*,#580,.T.);
#301=ORIENTED_EDGE('',*,*,#575,.T.);
#302=ORIENTED_EDGE('',*,*,#583,.F.);
#303=ORIENTED_EDGE('',*,*,#584,.T.);
#304=ORIENTED_EDGE('',*,*,#585,.T.);
#305=ORIENTED_EDGE('',*,*,#577,.F.);
#306=ORIENTED_EDGE('',*,*,#582,.F.);
#307=ORIENTED_EDGE('',*,*,#586,.F.);
#308=ORIENTED_EDGE('',*,*,#587,.F.);
#309=ORIENTED_EDGE('',*,*,#588,.T.);
#310=ORIENTED_EDGE('',*,*,#581,.F.);
#311=ORIENTED_EDGE('',*,*,#584,.F.);
#312=ORIENTED_EDGE('',*,*,#588,.F.);
#313=ORIENTED_EDGE('',*,*,#489,.F.);
#314=ORIENTED_EDGE('',*,*,#488,.F.);
#315=ORIENTED_EDGE('',*,*,#493,.T.);
#316=ORIENTED_EDGE('',*,*,#589,.T.);
#317=ORIENTED_EDGE('',*,*,#586,.T.);
#318=ORIENTED_EDGE('',*,*,#589,.F.);
#319=ORIENTED_EDGE('',*,*,#590,.T.);
#320=ORIENTED_EDGE('',*,*,#591,.F.);
#321=ORIENTED_EDGE('',*,*,#592,.T.);
#322=ORIENTED_EDGE('',*,*,#593,.T.);
#323=ORIENTED_EDGE('',*,*,#498,.T.);
#324=ORIENTED_EDGE('',*,*,#591,.T.);
#325=ORIENTED_EDGE('',*,*,#497,.T.);
#326=ORIENTED_EDGE('',*,*,#594,.F.);
#327=ORIENTED_EDGE('',*,*,#595,.T.);
#328=ORIENTED_EDGE('',*,*,#596,.T.);
#329=ORIENTED_EDGE('',*,*,#499,.F.);
#330=ORIENTED_EDGE('',*,*,#593,.F.);
#331=ORIENTED_EDGE('',*,*,#597,.F.);
#332=ORIENTED_EDGE('',*,*,#598,.F.);
#333=ORIENTED_EDGE('',*,*,#599,.T.);
#334=ORIENTED_EDGE('',*,*,#592,.F.);
#335=ORIENTED_EDGE('',*,*,#595,.F.);
#336=ORIENTED_EDGE('',*,*,#599,.F.);
#337=ORIENTED_EDGE('',*,*,#600,.F.);
#338=ORIENTED_EDGE('',*,*,#601,.F.);
#339=ORIENTED_EDGE('',*,*,#602,.T.);
#340=ORIENTED_EDGE('',*,*,#603,.T.);
#341=ORIENTED_EDGE('',*,*,#597,.T.);
#342=ORIENTED_EDGE('',*,*,#603,.F.);
#343=ORIENTED_EDGE('',*,*,#604,.T.);
#344=ORIENTED_EDGE('',*,*,#605,.F.);
#345=ORIENTED_EDGE('',*,*,#606,.T.);
#346=ORIENTED_EDGE('',*,*,#607,.T.);
#347=ORIENTED_EDGE('',*,*,#601,.T.);
#348=ORIENTED_EDGE('',*,*,#605,.T.);
#349=ORIENTED_EDGE('',*,*,#600,.T.);
#350=ORIENTED_EDGE('',*,*,#608,.F.);
#351=ORIENTED_EDGE('',*,*,#609,.T.);
#352=ORIENTED_EDGE('',*,*,#610,.T.);
#353=ORIENTED_EDGE('',*,*,#602,.F.);
#354=ORIENTED_EDGE('',*,*,#607,.F.);
#355=ORIENTED_EDGE('',*,*,#611,.F.);
#356=ORIENTED_EDGE('',*,*,#612,.F.);
#357=ORIENTED_EDGE('',*,*,#613,.T.);
#358=ORIENTED_EDGE('',*,*,#606,.F.);
#359=ORIENTED_EDGE('',*,*,#609,.F.);
#360=ORIENTED_EDGE('',*,*,#613,.F.);
#361=ORIENTED_EDGE('',*,*,#519,.F.);
#362=ORIENTED_EDGE('',*,*,#514,.F.);
#363=ORIENTED_EDGE('',*,*,#523,.T.);
#364=ORIENTED_EDGE('',*,*,#614,.T.);
#365=ORIENTED_EDGE('',*,*,#611,.T.);
#366=ORIENTED_EDGE('',*,*,#614,.F.);
#367=ORIENTED_EDGE('',*,*,#615,.T.);
#368=ORIENTED_EDGE('',*,*,#516,.T.);
#369=ORIENTED_EDGE('',*,*,#506,.T.);
#370=ORIENTED_EDGE('',*,*,#616,.F.);
#371=ORIENTED_EDGE('',*,*,#617,.T.);
#372=ORIENTED_EDGE('',*,*,#618,.F.);
#373=ORIENTED_EDGE('',*,*,#619,.T.);
#374=ORIENTED_EDGE('',*,*,#517,.F.);
#375=ORIENTED_EDGE('',*,*,#617,.F.);
#376=ORIENTED_EDGE('',*,*,#619,.F.);
#377=ORIENTED_EDGE('',*,*,#620,.F.);
#378=ORIENTED_EDGE('',*,*,#621,.F.);
#379=ORIENTED_EDGE('',*,*,#622,.T.);
#380=ORIENTED_EDGE('',*,*,#623,.T.);
#381=ORIENTED_EDGE('',*,*,#520,.T.);
#382=ORIENTED_EDGE('',*,*,#623,.F.);
#383=ORIENTED_EDGE('',*,*,#624,.T.);
#384=ORIENTED_EDGE('',*,*,#625,.F.);
#385=ORIENTED_EDGE('',*,*,#626,.T.);
#386=ORIENTED_EDGE('',*,*,#627,.T.);
#387=ORIENTED_EDGE('',*,*,#621,.T.);
#388=ORIENTED_EDGE('',*,*,#628,.T.);
#389=ORIENTED_EDGE('',*,*,#622,.F.);
#390=ORIENTED_EDGE('',*,*,#627,.F.);
#391=ORIENTED_EDGE('',*,*,#629,.F.);
#392=ORIENTED_EDGE('',*,*,#630,.F.);
#393=ORIENTED_EDGE('',*,*,#569,.T.);
#394=ORIENTED_EDGE('',*,*,#478,.T.);
#395=ORIENTED_EDGE('',*,*,#473,.T.);
#396=ORIENTED_EDGE('',*,*,#562,.T.);
#397=ORIENTED_EDGE('',*,*,#558,.T.);
#398=ORIENTED_EDGE('',*,*,#548,.T.);
#399=ORIENTED_EDGE('',*,*,#544,.T.);
#400=ORIENTED_EDGE('',*,*,#534,.T.);
#401=ORIENTED_EDGE('',*,*,#529,.T.);
#402=ORIENTED_EDGE('',*,*,#631,.T.);
#403=ORIENTED_EDGE('',*,*,#632,.T.);
#404=ORIENTED_EDGE('',*,*,#618,.T.);
#405=ORIENTED_EDGE('',*,*,#616,.T.);
#406=ORIENTED_EDGE('',*,*,#502,.T.);
#407=ORIENTED_EDGE('',*,*,#518,.T.);
#408=ORIENTED_EDGE('',*,*,#612,.T.);
#409=ORIENTED_EDGE('',*,*,#608,.T.);
#410=ORIENTED_EDGE('',*,*,#598,.T.);
#411=ORIENTED_EDGE('',*,*,#594,.T.);
#412=ORIENTED_EDGE('',*,*,#495,.T.);
#413=ORIENTED_EDGE('',*,*,#490,.T.);
#414=ORIENTED_EDGE('',*,*,#587,.T.);
#415=ORIENTED_EDGE('',*,*,#583,.T.);
#416=ORIENTED_EDGE('',*,*,#573,.T.);
#417=ORIENTED_EDGE('',*,*,#633,.T.);
#418=ORIENTED_EDGE('',*,*,#571,.F.);
#419=ORIENTED_EDGE('',*,*,#579,.F.);
#420=ORIENTED_EDGE('',*,*,#585,.F.);
#421=ORIENTED_EDGE('',*,*,#590,.F.);
#422=ORIENTED_EDGE('',*,*,#492,.F.);
#423=ORIENTED_EDGE('',*,*,#501,.F.);
#424=ORIENTED_EDGE('',*,*,#596,.F.);
#425=ORIENTED_EDGE('',*,*,#604,.F.);
#426=ORIENTED_EDGE('',*,*,#610,.F.);
#427=ORIENTED_EDGE('',*,*,#615,.F.);
#428=ORIENTED_EDGE('',*,*,#522,.F.);
#429=ORIENTED_EDGE('',*,*,#511,.F.);
#430=ORIENTED_EDGE('',*,*,#521,.F.);
#431=ORIENTED_EDGE('',*,*,#624,.F.);
#432=ORIENTED_EDGE('',*,*,#628,.F.);
#433=ORIENTED_EDGE('',*,*,#634,.F.);
#434=ORIENTED_EDGE('',*,*,#531,.F.);
#435=ORIENTED_EDGE('',*,*,#540,.F.);
#436=ORIENTED_EDGE('',*,*,#546,.F.);
#437=ORIENTED_EDGE('',*,*,#554,.F.);
#438=ORIENTED_EDGE('',*,*,#560,.F.);
#439=ORIENTED_EDGE('',*,*,#565,.F.);
#440=ORIENTED_EDGE('',*,*,#475,.F.);
#441=ORIENTED_EDGE('',*,*,#484,.F.);
#442=ORIENTED_EDGE('',*,*,#635,.T.);
#443=ORIENTED_EDGE('',*,*,#636,.T.);
#444=ORIENTED_EDGE('',*,*,#637,.T.);
#445=ORIENTED_EDGE('',*,*,#630,.T.);
#446=ORIENTED_EDGE('',*,*,#638,.T.);
#447=ORIENTED_EDGE('',*,*,#633,.F.);
#448=ORIENTED_EDGE('',*,*,#625,.T.);
#449=ORIENTED_EDGE('',*,*,#620,.T.);
#450=ORIENTED_EDGE('',*,*,#632,.F.);
#451=ORIENTED_EDGE('',*,*,#639,.T.);
#452=ORIENTED_EDGE('',*,*,#631,.F.);
#453=ORIENTED_EDGE('',*,*,#640,.T.);
#454=ORIENTED_EDGE('',*,*,#626,.F.);
#455=ORIENTED_EDGE('',*,*,#639,.F.);
#456=ORIENTED_EDGE('',*,*,#640,.F.);
#457=ORIENTED_EDGE('',*,*,#528,.F.);
#458=ORIENTED_EDGE('',*,*,#527,.F.);
#459=ORIENTED_EDGE('',*,*,#532,.T.);
#460=ORIENTED_EDGE('',*,*,#641,.T.);
#461=ORIENTED_EDGE('',*,*,#629,.T.);
#462=ORIENTED_EDGE('',*,*,#641,.F.);
#463=ORIENTED_EDGE('',*,*,#634,.T.);
#464=ORIENTED_EDGE('',*,*,#637,.F.);
#465=ORIENTED_EDGE('',*,*,#636,.F.);
#466=ORIENTED_EDGE('',*,*,#635,.F.);
#467=ORIENTED_EDGE('',*,*,#638,.F.);
#468=EDGE_CURVE('',#642,#643,#744,.T.);
#469=EDGE_CURVE('',#642,#644,#72,.F.);
#470=EDGE_CURVE('',#644,#645,#745,.T.);
#471=EDGE_CURVE('',#645,#643,#73,.T.);
#472=EDGE_CURVE('',#643,#646,#746,.T.);
#473=EDGE_CURVE('',#647,#646,#747,.T.);
#474=EDGE_CURVE('',#647,#642,#748,.T.);
#475=EDGE_CURVE('',#648,#649,#749,.T.);
#476=EDGE_CURVE('',#645,#649,#750,.T.);
#477=EDGE_CURVE('',#648,#644,#751,.T.);
#478=EDGE_CURVE('',#650,#647,#752,.T.);
#479=EDGE_CURVE('',#650,#647,#753,.T.);
#480=EDGE_CURVE('',#651,#650,#754,.T.);
#481=EDGE_CURVE('',#652,#651,#74,.T.);
#482=EDGE_CURVE('',#652,#653,#755,.T.);
#483=EDGE_CURVE('',#653,#648,#756,.T.);
#484=EDGE_CURVE('',#653,#648,#757,.T.);
#485=EDGE_CURVE('',#654,#655,#758,.T.);
#486=EDGE_CURVE('',#654,#656,#75,.F.);
#487=EDGE_CURVE('',#656,#657,#759,.T.);
#488=EDGE_CURVE('',#657,#655,#76,.T.);
#489=EDGE_CURVE('',#655,#658,#760,.T.);
#490=EDGE_CURVE('',#659,#658,#761,.T.);
#491=EDGE_CURVE('',#659,#654,#762,.T.);
#492=EDGE_CURVE('',#660,#661,#763,.T.);
#493=EDGE_CURVE('',#657,#661,#764,.T.);
#494=EDGE_CURVE('',#660,#656,#765,.T.);
#495=EDGE_CURVE('',#662,#659,#766,.T.);
#496=EDGE_CURVE('',#662,#659,#767,.T.);
#497=EDGE_CURVE('',#663,#662,#768,.T.);
#498=EDGE_CURVE('',#664,#663,#77,.T.);
#499=EDGE_CURVE('',#664,#665,#769,.T.);
#500=EDGE_CURVE('',#665,#660,#770,.T.);
#501=EDGE_CURVE('',#665,#660,#771,.T.);
#502=EDGE_CURVE('',#666,#667,#772,.T.);
#503=EDGE_CURVE('',#666,#667,#773,.T.);
#504=EDGE_CURVE('',#668,#669,#78,.F.);
#505=EDGE_CURVE('',#667,#668,#774,.T.);
#506=EDGE_CURVE('',#670,#666,#775,.T.);
#507=EDGE_CURVE('',#671,#670,#79,.T.);
#508=EDGE_CURVE('',#671,#672,#776,.T.);
#509=EDGE_CURVE('',#672,#673,#777,.T.);
#510=EDGE_CURVE('',#673,#669,#778,.T.);
#511=EDGE_CURVE('',#672,#673,#779,.T.);
#512=EDGE_CURVE('',#668,#674,#780,.T.);
#513=EDGE_CURVE('',#669,#675,#781,.T.);
#514=EDGE_CURVE('',#675,#674,#80,.T.);
#515=EDGE_CURVE('',#676,#671,#782,.T.);
#516=EDGE_CURVE('',#677,#670,#783,.T.);
#517=EDGE_CURVE('',#677,#676,#81,.F.);
#518=EDGE_CURVE('',#667,#678,#784,.T.);
#519=EDGE_CURVE('',#674,#678,#785,.T.);
#520=EDGE_CURVE('',#679,#676,#786,.T.);
#521=EDGE_CURVE('',#679,#672,#787,.T.);
#522=EDGE_CURVE('',#673,#680,#788,.T.);
#523=EDGE_CURVE('',#675,#680,#789,.T.);
#524=EDGE_CURVE('',#681,#682,#790,.T.);
#525=EDGE_CURVE('',#681,#683,#82,.F.);
#526=EDGE_CURVE('',#683,#684,#791,.T.);
#527=EDGE_CURVE('',#684,#682,#83,.T.);
#528=EDGE_CURVE('',#682,#685,#792,.T.);
#529=EDGE_CURVE('',#686,#685,#793,.T.);
#530=EDGE_CURVE('',#686,#681,#794,.T.);
#531=EDGE_CURVE('',#687,#688,#795,.T.);
#532=EDGE_CURVE('',#684,#688,#796,.T.);
#533=EDGE_CURVE('',#687,#683,#797,.T.);
#534=EDGE_CURVE('',#689,#686,#798,.T.);
#535=EDGE_CURVE('',#689,#686,#799,.T.);
#536=EDGE_CURVE('',#690,#689,#800,.T.);
#537=EDGE_CURVE('',#691,#690,#84,.T.);
#538=EDGE_CURVE('',#691,#692,#801,.T.);
#539=EDGE_CURVE('',#692,#687,#802,.T.);
#540=EDGE_CURVE('',#692,#687,#803,.T.);
#541=EDGE_CURVE('',#693,#690,#804,.T.);
#542=EDGE_CURVE('',#693,#694,#85,.F.);
#543=EDGE_CURVE('',#694,#691,#805,.T.);
#544=EDGE_CURVE('',#695,#689,#806,.T.);
#545=EDGE_CURVE('',#695,#693,#807,.T.);
#546=EDGE_CURVE('',#696,#692,#808,.T.);
#547=EDGE_CURVE('',#696,#694,#809,.T.);
#548=EDGE_CURVE('',#697,#695,#810,.T.);
#549=EDGE_CURVE('',#697,#695,#811,.T.);
#550=EDGE_CURVE('',#698,#697,#812,.T.);
#551=EDGE_CURVE('',#699,#698,#86,.T.);
#552=EDGE_CURVE('',#699,#700,#813,.T.);
#553=EDGE_CURVE('',#700,#696,#814,.T.);
#554=EDGE_CURVE('',#700,#696,#815,.T.);
#555=EDGE_CURVE('',#701,#698,#816,.T.);
#556=EDGE_CURVE('',#701,#702,#87,.F.);
#557=EDGE_CURVE('',#702,#699,#817,.T.);
#558=EDGE_CURVE('',#703,#697,#818,.T.);
#559=EDGE_CURVE('',#703,#701,#819,.T.);
#560=EDGE_CURVE('',#704,#700,#820,.T.);
#561=EDGE_CURVE('',#704,#702,#821,.T.);
#562=EDGE_CURVE('',#646,#703,#822,.T.);
#563=EDGE_CURVE('',#646,#703,#823,.T.);
#564=EDGE_CURVE('',#649,#704,#824,.T.);
#565=EDGE_CURVE('',#649,#704,#825,.T.);
#566=EDGE_CURVE('',#705,#651,#826,.T.);
#567=EDGE_CURVE('',#705,#706,#88,.F.);
#568=EDGE_CURVE('',#706,#652,#827,.T.);
#569=EDGE_CURVE('',#707,#650,#828,.T.);
#570=EDGE_CURVE('',#707,#705,#829,.T.);
#571=EDGE_CURVE('',#708,#653,#830,.T.);
#572=EDGE_CURVE('',#708,#706,#831,.T.);
#573=EDGE_CURVE('',#709,#707,#832,.T.);
#574=EDGE_CURVE('',#709,#707,#833,.T.);
#575=EDGE_CURVE('',#710,#709,#834,.T.);
#576=EDGE_CURVE('',#711,#710,#89,.T.);
#577=EDGE_CURVE('',#711,#712,#835,.T.);
#578=EDGE_CURVE('',#712,#708,#836,.T.);
#579=EDGE_CURVE('',#712,#708,#837,.T.);
#580=EDGE_CURVE('',#713,#710,#838,.T.);
#581=EDGE_CURVE('',#713,#714,#90,.F.);
#582=EDGE_CURVE('',#714,#711,#839,.T.);
#583=EDGE_CURVE('',#715,#709,#840,.T.);
#584=EDGE_CURVE('',#715,#713,#841,.T.);
#585=EDGE_CURVE('',#716,#712,#842,.T.);
#586=EDGE_CURVE('',#716,#714,#843,.T.);
#587=EDGE_CURVE('',#658,#715,#844,.T.);
#588=EDGE_CURVE('',#658,#715,#845,.T.);
#589=EDGE_CURVE('',#661,#716,#846,.T.);
#590=EDGE_CURVE('',#661,#716,#847,.T.);
#591=EDGE_CURVE('',#717,#663,#848,.T.);
#592=EDGE_CURVE('',#717,#718,#91,.F.);
#593=EDGE_CURVE('',#718,#664,#849,.T.);
#594=EDGE_CURVE('',#719,#662,#850,.T.);
#595=EDGE_CURVE('',#719,#717,#851,.T.);
#596=EDGE_CURVE('',#720,#665,#852,.T.);
#597=EDGE_CURVE('',#720,#718,#853,.T.);
#598=EDGE_CURVE('',#721,#719,#854,.T.);
#599=EDGE_CURVE('',#721,#719,#855,.T.);
#600=EDGE_CURVE('',#722,#721,#856,.T.);
#601=EDGE_CURVE('',#723,#722,#92,.T.);
#602=EDGE_CURVE('',#723,#724,#857,.T.);
#603=EDGE_CURVE('',#724,#720,#858,.T.);
#604=EDGE_CURVE('',#724,#720,#859,.T.);
#605=EDGE_CURVE('',#725,#722,#860,.T.);
#606=EDGE_CURVE('',#725,#726,#93,.F.);
#607=EDGE_CURVE('',#726,#723,#861,.T.);
#608=EDGE_CURVE('',#727,#721,#862,.T.);
#609=EDGE_CURVE('',#727,#725,#863,.T.);
#610=EDGE_CURVE('',#728,#724,#864,.T.);
#611=EDGE_CURVE('',#728,#726,#865,.T.);
#612=EDGE_CURVE('',#678,#727,#866,.T.);
#613=EDGE_CURVE('',#678,#727,#867,.T.);
#614=EDGE_CURVE('',#680,#728,#868,.T.);
#615=EDGE_CURVE('',#680,#728,#869,.T.);
#616=EDGE_CURVE('',#729,#666,#870,.T.);
#617=EDGE_CURVE('',#729,#677,#871,.T.);
#618=EDGE_CURVE('',#730,#729,#872,.T.);
#619=EDGE_CURVE('',#730,#729,#873,.T.);
#620=EDGE_CURVE('',#731,#730,#874,.T.);
#621=EDGE_CURVE('',#732,#731,#94,.T.);
#622=EDGE_CURVE('',#732,#733,#875,.T.);
#623=EDGE_CURVE('',#733,#679,#876,.T.);
#624=EDGE_CURVE('',#733,#679,#877,.T.);
#625=EDGE_CURVE('',#734,#731,#878,.T.);
#626=EDGE_CURVE('',#734,#735,#95,.F.);
#627=EDGE_CURVE('',#735,#732,#879,.T.);
#628=EDGE_CURVE('',#736,#733,#880,.T.);
#629=EDGE_CURVE('',#736,#735,#881,.T.);
#630=EDGE_CURVE('',#737,#737,#882,.T.);
#631=EDGE_CURVE('',#685,#738,#883,.T.);
#632=EDGE_CURVE('',#738,#730,#884,.T.);
#633=EDGE_CURVE('',#739,#739,#885,.T.);
#634=EDGE_CURVE('',#688,#736,#886,.T.);
#635=EDGE_CURVE('',#740,#740,#887,.F.);
#636=EDGE_CURVE('',#741,#741,#888,.F.);
#637=EDGE_CURVE('',#742,#742,#889,.T.);
#638=EDGE_CURVE('',#743,#743,#890,.T.);
#639=EDGE_CURVE('',#738,#734,#891,.T.);
#640=EDGE_CURVE('',#685,#738,#892,.T.);
#641=EDGE_CURVE('',#688,#736,#893,.T.);
#642=VERTEX_POINT('',#1901);
#643=VERTEX_POINT('',#1902);
#644=VERTEX_POINT('',#1904);
#645=VERTEX_POINT('',#1906);
#646=VERTEX_POINT('',#1910);
#647=VERTEX_POINT('',#1912);
#648=VERTEX_POINT('',#1916);
#649=VERTEX_POINT('',#1917);
#650=VERTEX_POINT('',#1922);
#651=VERTEX_POINT('',#1926);
#652=VERTEX_POINT('',#1928);
#653=VERTEX_POINT('',#1930);
#654=VERTEX_POINT('',#1936);
#655=VERTEX_POINT('',#1937);
#656=VERTEX_POINT('',#1939);
#657=VERTEX_POINT('',#1941);
#658=VERTEX_POINT('',#1945);
#659=VERTEX_POINT('',#1947);
#660=VERTEX_POINT('',#1951);
#661=VERTEX_POINT('',#1952);
#662=VERTEX_POINT('',#1957);
#663=VERTEX_POINT('',#1961);
#664=VERTEX_POINT('',#1963);
#665=VERTEX_POINT('',#1965);
#666=VERTEX_POINT('',#1971);
#667=VERTEX_POINT('',#1972);
#668=VERTEX_POINT('',#1976);
#669=VERTEX_POINT('',#1977);
#670=VERTEX_POINT('',#1980);
#671=VERTEX_POINT('',#1982);
#672=VERTEX_POINT('',#1984);
#673=VERTEX_POINT('',#1986);
#674=VERTEX_POINT('',#1992);
#675=VERTEX_POINT('',#1994);
#676=VERTEX_POINT('',#1998);
#677=VERTEX_POINT('',#2000);
#678=VERTEX_POINT('',#2004);
#679=VERTEX_POINT('',#2008);
#680=VERTEX_POINT('',#2012);
#681=VERTEX_POINT('',#2016);
#682=VERTEX_POINT('',#2017);
#683=VERTEX_POINT('',#2019);
#684=VERTEX_POINT('',#2021);
#685=VERTEX_POINT('',#2025);
#686=VERTEX_POINT('',#2027);
#687=VERTEX_POINT('',#2031);
#688=VERTEX_POINT('',#2032);
#689=VERTEX_POINT('',#2037);
#690=VERTEX_POINT('',#2041);
#691=VERTEX_POINT('',#2043);
#692=VERTEX_POINT('',#2045);
#693=VERTEX_POINT('',#2051);
#694=VERTEX_POINT('',#2053);
#695=VERTEX_POINT('',#2057);
#696=VERTEX_POINT('',#2061);
#697=VERTEX_POINT('',#2065);
#698=VERTEX_POINT('',#2069);
#699=VERTEX_POINT('',#2071);
#700=VERTEX_POINT('',#2073);
#701=VERTEX_POINT('',#2079);
#702=VERTEX_POINT('',#2081);
#703=VERTEX_POINT('',#2085);
#704=VERTEX_POINT('',#2089);
#705=VERTEX_POINT('',#2100);
#706=VERTEX_POINT('',#2102);
#707=VERTEX_POINT('',#2106);
#708=VERTEX_POINT('',#2110);
#709=VERTEX_POINT('',#2114);
#710=VERTEX_POINT('',#2118);
#711=VERTEX_POINT('',#2120);
#712=VERTEX_POINT('',#2122);
#713=VERTEX_POINT('',#2128);
#714=VERTEX_POINT('',#2130);
#715=VERTEX_POINT('',#2134);
#716=VERTEX_POINT('',#2138);
#717=VERTEX_POINT('',#2149);
#718=VERTEX_POINT('',#2151);
#719=VERTEX_POINT('',#2155);
#720=VERTEX_POINT('',#2159);
#721=VERTEX_POINT('',#2163);
#722=VERTEX_POINT('',#2167);
#723=VERTEX_POINT('',#2169);
#724=VERTEX_POINT('',#2171);
#725=VERTEX_POINT('',#2177);
#726=VERTEX_POINT('',#2179);
#727=VERTEX_POINT('',#2183);
#728=VERTEX_POINT('',#2187);
#729=VERTEX_POINT('',#2198);
#730=VERTEX_POINT('',#2202);
#731=VERTEX_POINT('',#2206);
#732=VERTEX_POINT('',#2208);
#733=VERTEX_POINT('',#2210);
#734=VERTEX_POINT('',#2216);
#735=VERTEX_POINT('',#2218);
#736=VERTEX_POINT('',#2222);
#737=VERTEX_POINT('',#2226);
#738=VERTEX_POINT('',#2228);
#739=VERTEX_POINT('',#2232);
#740=VERTEX_POINT('',#2236);
#741=VERTEX_POINT('',#2238);
#742=VERTEX_POINT('',#2241);
#743=VERTEX_POINT('',#2244);
#744=CIRCLE('',#1186,14.35);
#745=CIRCLE('',#1187,14.35);
#746=CIRCLE('',#1189,2.355);
#747=CIRCLE('',#1190,13.575);
#748=CIRCLE('',#1191,2.355);
#749=CIRCLE('',#1193,13.575);
#750=CIRCLE('',#1194,2.355);
#751=CIRCLE('',#1195,2.355);
#752=CIRCLE('',#1197,13.575);
#753=CIRCLE('',#1198,2.355);
#754=CIRCLE('',#1200,2.355);
#755=CIRCLE('',#1201,2.355);
#756=CIRCLE('',#1202,2.355);
#757=CIRCLE('',#1204,13.575);
#758=CIRCLE('',#1206,14.35);
#759=CIRCLE('',#1207,14.35);
#760=CIRCLE('',#1209,2.355);
#761=CIRCLE('',#1210,13.575);
#762=CIRCLE('',#1211,2.355);
#763=CIRCLE('',#1213,13.575);
#764=CIRCLE('',#1214,2.355);
#765=CIRCLE('',#1215,2.355);
#766=CIRCLE('',#1217,13.575);
#767=CIRCLE('',#1218,2.355);
#768=CIRCLE('',#1220,2.355);
#769=CIRCLE('',#1221,2.355);
#770=CIRCLE('',#1222,2.355);
#771=CIRCLE('',#1224,13.575);
#772=CIRCLE('',#1226,13.575);
#773=CIRCLE('',#1227,2.355);
#774=CIRCLE('',#1229,2.355);
#775=CIRCLE('',#1230,2.355);
#776=CIRCLE('',#1231,2.355);
#777=CIRCLE('',#1232,2.355);
#778=CIRCLE('',#1233,2.355);
#779=CIRCLE('',#1235,13.575);
#780=CIRCLE('',#1237,14.35);
#781=CIRCLE('',#1238,14.35);
#782=CIRCLE('',#1240,14.35);
#783=CIRCLE('',#1241,14.35);
#784=CIRCLE('',#1243,13.575);
#785=CIRCLE('',#1244,2.355);
#786=CIRCLE('',#1246,2.355);
#787=CIRCLE('',#1247,13.575);
#788=CIRCLE('',#1249,13.575);
#789=CIRCLE('',#1250,2.355);
#790=CIRCLE('',#1252,14.35);
#791=CIRCLE('',#1253,14.35);
#792=CIRCLE('',#1255,2.355);
#793=CIRCLE('',#1256,13.575);
#794=CIRCLE('',#1257,2.355);
#795=CIRCLE('',#1259,13.575);
#796=CIRCLE('',#1260,2.355);
#797=CIRCLE('',#1261,2.355);
#798=CIRCLE('',#1263,13.575);
#799=CIRCLE('',#1264,2.355);
#800=CIRCLE('',#1266,2.355);
#801=CIRCLE('',#1267,2.355);
#802=CIRCLE('',#1268,2.355);
#803=CIRCLE('',#1270,13.575);
#804=CIRCLE('',#1272,14.35);
#805=CIRCLE('',#1273,14.35);
#806=CIRCLE('',#1275,13.575);
#807=CIRCLE('',#1276,2.355);
#808=CIRCLE('',#1278,13.575);
#809=CIRCLE('',#1279,2.355);
#810=CIRCLE('',#1281,13.575);
#811=CIRCLE('',#1282,2.355);
#812=CIRCLE('',#1284,2.355);
#813=CIRCLE('',#1285,2.355);
#814=CIRCLE('',#1286,2.355);
#815=CIRCLE('',#1288,13.575);
#816=CIRCLE('',#1290,14.35);
#817=CIRCLE('',#1291,14.35);
#818=CIRCLE('',#1293,13.575);
#819=CIRCLE('',#1294,2.355);
#820=CIRCLE('',#1296,13.575);
#821=CIRCLE('',#1297,2.355);
#822=CIRCLE('',#1299,13.575);
#823=CIRCLE('',#1300,2.355);
#824=CIRCLE('',#1302,2.355);
#825=CIRCLE('',#1304,13.575);
#826=CIRCLE('',#1306,14.35);
#827=CIRCLE('',#1307,14.35);
#828=CIRCLE('',#1309,13.575);
#829=CIRCLE('',#1310,2.355);
#830=CIRCLE('',#1312,13.575);
#831=CIRCLE('',#1313,2.355);
#832=CIRCLE('',#1315,13.575);
#833=CIRCLE('',#1316,2.355);
#834=CIRCLE('',#1318,2.355);
#835=CIRCLE('',#1319,2.355);
#836=CIRCLE('',#1320,2.355);
#837=CIRCLE('',#1322,13.575);
#838=CIRCLE('',#1324,14.35);
#839=CIRCLE('',#1325,14.35);
#840=CIRCLE('',#1327,13.575);
#841=CIRCLE('',#1328,2.355);
#842=CIRCLE('',#1330,13.575);
#843=CIRCLE('',#1331,2.355);
#844=CIRCLE('',#1333,13.575);
#845=CIRCLE('',#1334,2.355);
#846=CIRCLE('',#1336,2.355);
#847=CIRCLE('',#1338,13.575);
#848=CIRCLE('',#1340,14.35);
#849=CIRCLE('',#1341,14.35);
#850=CIRCLE('',#1343,13.575);
#851=CIRCLE('',#1344,2.355);
#852=CIRCLE('',#1346,13.575);
#853=CIRCLE('',#1347,2.355);
#854=CIRCLE('',#1349,13.575);
#855=CIRCLE('',#1350,2.355);
#856=CIRCLE('',#1352,2.355);
#857=CIRCLE('',#1353,2.355);
#858=CIRCLE('',#1354,2.355);
#859=CIRCLE('',#1356,13.575);
#860=CIRCLE('',#1358,14.35);
#861=CIRCLE('',#1359,14.35);
#862=CIRCLE('',#1361,13.575);
#863=CIRCLE('',#1362,2.355);
#864=CIRCLE('',#1364,13.575);
#865=CIRCLE('',#1365,2.355);
#866=CIRCLE('',#1367,13.575);
#867=CIRCLE('',#1368,2.355);
#868=CIRCLE('',#1370,2.355);
#869=CIRCLE('',#1372,13.575);
#870=CIRCLE('',#1374,13.575);
#871=CIRCLE('',#1375,2.355);
#872=CIRCLE('',#1377,13.575);
#873=CIRCLE('',#1378,2.355);
#874=CIRCLE('',#1380,2.355);
#875=CIRCLE('',#1381,2.355);
#876=CIRCLE('',#1382,2.355);
#877=CIRCLE('',#1384,13.575);
#878=CIRCLE('',#1386,14.35);
#879=CIRCLE('',#1387,14.35);
#880=CIRCLE('',#1389,13.575);
#881=CIRCLE('',#1390,2.355);
#882=CIRCLE('',#1392,13.575);
#883=CIRCLE('',#1393,13.575);
#884=CIRCLE('',#1394,13.575);
#885=CIRCLE('',#1396,13.575);
#886=CIRCLE('',#1397,13.575);
#887=CIRCLE('',#1399,17.5);
#888=CIRCLE('',#1400,17.5);
#889=CIRCLE('',#1402,16.9);
#890=CIRCLE('',#1404,16.9);
#891=CIRCLE('',#1406,2.355);
#892=CIRCLE('',#1408,2.355);
#893=CIRCLE('',#1410,2.355);
#894=EDGE_LOOP('',(#120,#121,#122,#123));
#895=EDGE_LOOP('',(#124,#125,#126,#127));
#896=EDGE_LOOP('',(#128,#129,#130,#131));
#897=EDGE_LOOP('',(#132,#133));
#898=EDGE_LOOP('',(#134,#135,#136,#137,#138,#139,#140,#141));
#899=EDGE_LOOP('',(#142,#143));
#900=EDGE_LOOP('',(#144,#145,#146,#147));
#901=EDGE_LOOP('',(#148,#149,#150,#151));
#902=EDGE_LOOP('',(#152,#153,#154,#155));
#903=EDGE_LOOP('',(#156,#157));
#904=EDGE_LOOP('',(#158,#159,#160,#161,#162,#163,#164,#165));
#905=EDGE_LOOP('',(#166,#167));
#906=EDGE_LOOP('',(#168,#169));
#907=EDGE_LOOP('',(#170,#171,#172,#173,#174,#175,#176,#177));
#908=EDGE_LOOP('',(#178,#179));
#909=EDGE_LOOP('',(#180,#181,#182,#183));
#910=EDGE_LOOP('',(#184,#185,#186,#187));
#911=EDGE_LOOP('',(#188,#189,#190,#191));
#912=EDGE_LOOP('',(#192,#193,#194,#195));
#913=EDGE_LOOP('',(#196,#197,#198,#199));
#914=EDGE_LOOP('',(#200,#201,#202,#203));
#915=EDGE_LOOP('',(#204,#205,#206,#207));
#916=EDGE_LOOP('',(#208,#209,#210,#211));
#917=EDGE_LOOP('',(#212,#213));
#918=EDGE_LOOP('',(#214,#215,#216,#217,#218,#219,#220,#221));
#919=EDGE_LOOP('',(#222,#223));
#920=EDGE_LOOP('',(#224,#225,#226,#227));
#921=EDGE_LOOP('',(#228,#229,#230,#231));
#922=EDGE_LOOP('',(#232,#233,#234,#235));
#923=EDGE_LOOP('',(#236,#237));
#924=EDGE_LOOP('',(#238,#239,#240,#241,#242,#243,#244,#245));
#925=EDGE_LOOP('',(#246,#247));
#926=EDGE_LOOP('',(#248,#249,#250,#251));
#927=EDGE_LOOP('',(#252,#253,#254,#255));
#928=EDGE_LOOP('',(#256,#257,#258,#259));
#929=EDGE_LOOP('',(#260,#261));
#930=EDGE_LOOP('',(#262,#263,#264,#265,#266,#267,#268,#269));
#931=EDGE_LOOP('',(#270,#271));
#932=EDGE_LOOP('',(#272,#273,#274,#275));
#933=EDGE_LOOP('',(#276,#277,#278,#279));
#934=EDGE_LOOP('',(#280,#281,#282,#283));
#935=EDGE_LOOP('',(#284,#285));
#936=EDGE_LOOP('',(#286,#287,#288,#289,#290,#291,#292,#293));
#937=EDGE_LOOP('',(#294,#295));
#938=EDGE_LOOP('',(#296,#297,#298,#299));
#939=EDGE_LOOP('',(#300,#301,#302,#303));
#940=EDGE_LOOP('',(#304,#305,#306,#307));
#941=EDGE_LOOP('',(#308,#309));
#942=EDGE_LOOP('',(#310,#311,#312,#313,#314,#315,#316,#317));
#943=EDGE_LOOP('',(#318,#319));
#944=EDGE_LOOP('',(#320,#321,#322,#323));
#945=EDGE_LOOP('',(#324,#325,#326,#327));
#946=EDGE_LOOP('',(#328,#329,#330,#331));
#947=EDGE_LOOP('',(#332,#333));
#948=EDGE_LOOP('',(#334,#335,#336,#337,#338,#339,#340,#341));
#949=EDGE_LOOP('',(#342,#343));
#950=EDGE_LOOP('',(#344,#345,#346,#347));
#951=EDGE_LOOP('',(#348,#349,#350,#351));
#952=EDGE_LOOP('',(#352,#353,#354,#355));
#953=EDGE_LOOP('',(#356,#357));
#954=EDGE_LOOP('',(#358,#359,#360,#361,#362,#363,#364,#365));
#955=EDGE_LOOP('',(#366,#367));
#956=EDGE_LOOP('',(#368,#369,#370,#371));
#957=EDGE_LOOP('',(#372,#373));
#958=EDGE_LOOP('',(#374,#375,#376,#377,#378,#379,#380,#381));
#959=EDGE_LOOP('',(#382,#383));
#960=EDGE_LOOP('',(#384,#385,#386,#387));
#961=EDGE_LOOP('',(#388,#389,#390,#391));
#962=EDGE_LOOP('',(#392));
#963=EDGE_LOOP('',(#393,#394,#395,#396,#397,#398,#399,#400,#401,#402,#403,
#404,#405,#406,#407,#408,#409,#410,#411,#412,#413,#414,#415,#416));
#964=EDGE_LOOP('',(#417));
#965=EDGE_LOOP('',(#418,#419,#420,#421,#422,#423,#424,#425,#426,#427,#428,
#429,#430,#431,#432,#433,#434,#435,#436,#437,#438,#439,#440,#441));
#966=EDGE_LOOP('',(#442));
#967=EDGE_LOOP('',(#443));
#968=EDGE_LOOP('',(#444));
#969=EDGE_LOOP('',(#445));
#970=EDGE_LOOP('',(#446));
#971=EDGE_LOOP('',(#447));
#972=EDGE_LOOP('',(#448,#449,#450,#451));
#973=EDGE_LOOP('',(#452,#453));
#974=EDGE_LOOP('',(#454,#455,#456,#457,#458,#459,#460,#461));
#975=EDGE_LOOP('',(#462,#463));
#976=EDGE_LOOP('',(#464));
#977=EDGE_LOOP('',(#465));
#978=EDGE_LOOP('',(#466));
#979=EDGE_LOOP('',(#467));
#980=FACE_BOUND('',#894,.T.);
#981=FACE_BOUND('',#895,.T.);
#982=FACE_BOUND('',#896,.T.);
#983=FACE_BOUND('',#897,.T.);
#984=FACE_BOUND('',#898,.T.);
#985=FACE_BOUND('',#899,.T.);
#986=FACE_BOUND('',#900,.T.);
#987=FACE_BOUND('',#901,.T.);
#988=FACE_BOUND('',#902,.T.);
#989=FACE_BOUND('',#903,.T.);
#990=FACE_BOUND('',#904,.T.);
#991=FACE_BOUND('',#905,.T.);
#992=FACE_BOUND('',#906,.T.);
#993=FACE_BOUND('',#907,.T.);
#994=FACE_BOUND('',#908,.T.);
#995=FACE_BOUND('',#909,.T.);
#996=FACE_BOUND('',#910,.T.);
#997=FACE_BOUND('',#911,.T.);
#998=FACE_BOUND('',#912,.T.);
#999=FACE_BOUND('',#913,.T.);
#1000=FACE_BOUND('',#914,.T.);
#1001=FACE_BOUND('',#915,.T.);
#1002=FACE_BOUND('',#916,.T.);
#1003=FACE_BOUND('',#917,.T.);
#1004=FACE_BOUND('',#918,.T.);
#1005=FACE_BOUND('',#919,.T.);
#1006=FACE_BOUND('',#920,.T.);
#1007=FACE_BOUND('',#921,.T.);
#1008=FACE_BOUND('',#922,.T.);
#1009=FACE_BOUND('',#923,.T.);
#1010=FACE_BOUND('',#924,.T.);
#1011=FACE_BOUND('',#925,.T.);
#1012=FACE_BOUND('',#926,.T.);
#1013=FACE_BOUND('',#927,.T.);
#1014=FACE_BOUND('',#928,.T.);
#1015=FACE_BOUND('',#929,.T.);
#1016=FACE_BOUND('',#930,.T.);
#1017=FACE_BOUND('',#931,.T.);
#1018=FACE_BOUND('',#932,.T.);
#1019=FACE_BOUND('',#933,.T.);
#1020=FACE_BOUND('',#934,.T.);
#1021=FACE_BOUND('',#935,.T.);
#1022=FACE_BOUND('',#936,.T.);
#1023=FACE_BOUND('',#937,.T.);
#1024=FACE_BOUND('',#938,.T.);
#1025=FACE_BOUND('',#939,.T.);
#1026=FACE_BOUND('',#940,.T.);
#1027=FACE_BOUND('',#941,.T.);
#1028=FACE_BOUND('',#942,.T.);
#1029=FACE_BOUND('',#943,.T.);
#1030=FACE_BOUND('',#944,.T.);
#1031=FACE_BOUND('',#945,.T.);
#1032=FACE_BOUND('',#946,.T.);
#1033=FACE_BOUND('',#947,.T.);
#1034=FACE_BOUND('',#948,.T.);
#1035=FACE_BOUND('',#949,.T.);
#1036=FACE_BOUND('',#950,.T.);
#1037=FACE_BOUND('',#951,.T.);
#1038=FACE_BOUND('',#952,.T.);
#1039=FACE_BOUND('',#953,.T.);
#1040=FACE_BOUND('',#954,.T.);
#1041=FACE_BOUND('',#955,.T.);
#1042=FACE_BOUND('',#956,.T.);
#1043=FACE_BOUND('',#957,.T.);
#1044=FACE_BOUND('',#958,.T.);
#1045=FACE_BOUND('',#959,.T.);
#1046=FACE_BOUND('',#960,.T.);
#1047=FACE_BOUND('',#961,.T.);
#1048=FACE_BOUND('',#962,.T.);
#1049=FACE_BOUND('',#963,.T.);
#1050=FACE_BOUND('',#964,.T.);
#1051=FACE_BOUND('',#965,.T.);
#1052=FACE_BOUND('',#966,.T.);
#1053=FACE_BOUND('',#967,.T.);
#1054=FACE_BOUND('',#968,.T.);
#1055=FACE_BOUND('',#969,.T.);
#1056=FACE_BOUND('',#970,.T.);
#1057=FACE_BOUND('',#971,.T.);
#1058=FACE_BOUND('',#972,.T.);
#1059=FACE_BOUND('',#973,.T.);
#1060=FACE_BOUND('',#974,.T.);
#1061=FACE_BOUND('',#975,.T.);
#1062=FACE_BOUND('',#976,.T.);
#1063=FACE_BOUND('',#977,.T.);
#1064=FACE_BOUND('',#978,.T.);
#1065=FACE_BOUND('',#979,.T.);
#1066=CYLINDRICAL_SURFACE('',#1185,14.35);
#1067=CYLINDRICAL_SURFACE('',#1199,2.355);
#1068=CYLINDRICAL_SURFACE('',#1205,14.35);
#1069=CYLINDRICAL_SURFACE('',#1219,2.355);
#1070=CYLINDRICAL_SURFACE('',#1228,2.355);
#1071=CYLINDRICAL_SURFACE('',#1236,14.35);
#1072=CYLINDRICAL_SURFACE('',#1239,14.35);
#1073=CYLINDRICAL_SURFACE('',#1251,14.35);
#1074=CYLINDRICAL_SURFACE('',#1265,2.355);
#1075=CYLINDRICAL_SURFACE('',#1271,14.35);
#1076=CYLINDRICAL_SURFACE('',#1283,2.355);
#1077=CYLINDRICAL_SURFACE('',#1289,14.35);
#1078=CYLINDRICAL_SURFACE('',#1301,2.355);
#1079=CYLINDRICAL_SURFACE('',#1305,14.35);
#1080=CYLINDRICAL_SURFACE('',#1317,2.355);
#1081=CYLINDRICAL_SURFACE('',#1323,14.35);
#1082=CYLINDRICAL_SURFACE('',#1335,2.355);
#1083=CYLINDRICAL_SURFACE('',#1339,14.35);
#1084=CYLINDRICAL_SURFACE('',#1351,2.355);
#1085=CYLINDRICAL_SURFACE('',#1357,14.35);
#1086=CYLINDRICAL_SURFACE('',#1369,2.355);
#1087=CYLINDRICAL_SURFACE('',#1379,2.355);
#1088=CYLINDRICAL_SURFACE('',#1385,14.35);
#1089=CYLINDRICAL_SURFACE('',#1391,13.575);
#1090=CYLINDRICAL_SURFACE('',#1395,13.575);
#1091=CYLINDRICAL_SURFACE('',#1398,17.5);
#1092=CYLINDRICAL_SURFACE('',#1409,2.355);
#1093=ADVANCED_FACE('',(#980),#1066,.F.);
#1094=ADVANCED_FACE('',(#981),#22,.T.);
#1095=ADVANCED_FACE('',(#982),#23,.T.);
#1096=ADVANCED_FACE('',(#983),#24,.F.);
#1097=ADVANCED_FACE('',(#984),#1067,.T.);
#1098=ADVANCED_FACE('',(#985),#25,.F.);
#1099=ADVANCED_FACE('',(#986),#1068,.F.);
#1100=ADVANCED_FACE('',(#987),#26,.T.);
#1101=ADVANCED_FACE('',(#988),#27,.T.);
#1102=ADVANCED_FACE('',(#989),#28,.F.);
#1103=ADVANCED_FACE('',(#990),#1069,.T.);
#1104=ADVANCED_FACE('',(#991),#29,.F.);
#1105=ADVANCED_FACE('',(#992),#30,.F.);
#1106=ADVANCED_FACE('',(#993),#1070,.T.);
#1107=ADVANCED_FACE('',(#994),#31,.F.);
#1108=ADVANCED_FACE('',(#995),#1071,.F.);
#1109=ADVANCED_FACE('',(#996),#1072,.F.);
#1110=ADVANCED_FACE('',(#997),#32,.T.);
#1111=ADVANCED_FACE('',(#998),#33,.T.);
#1112=ADVANCED_FACE('',(#999),#34,.T.);
#1113=ADVANCED_FACE('',(#1000),#1073,.F.);
#1114=ADVANCED_FACE('',(#1001),#35,.T.);
#1115=ADVANCED_FACE('',(#1002),#36,.T.);
#1116=ADVANCED_FACE('',(#1003),#37,.F.);
#1117=ADVANCED_FACE('',(#1004),#1074,.T.);
#1118=ADVANCED_FACE('',(#1005),#38,.F.);
#1119=ADVANCED_FACE('',(#1006),#1075,.F.);
#1120=ADVANCED_FACE('',(#1007),#39,.T.);
#1121=ADVANCED_FACE('',(#1008),#40,.T.);
#1122=ADVANCED_FACE('',(#1009),#41,.F.);
#1123=ADVANCED_FACE('',(#1010),#1076,.T.);
#1124=ADVANCED_FACE('',(#1011),#42,.F.);
#1125=ADVANCED_FACE('',(#1012),#1077,.F.);
#1126=ADVANCED_FACE('',(#1013),#43,.T.);
#1127=ADVANCED_FACE('',(#1014),#44,.T.);
#1128=ADVANCED_FACE('',(#1015),#45,.F.);
#1129=ADVANCED_FACE('',(#1016),#1078,.T.);
#1130=ADVANCED_FACE('',(#1017),#46,.F.);
#1131=ADVANCED_FACE('',(#1018),#1079,.F.);
#1132=ADVANCED_FACE('',(#1019),#47,.T.);
#1133=ADVANCED_FACE('',(#1020),#48,.T.);
#1134=ADVANCED_FACE('',(#1021),#49,.F.);
#1135=ADVANCED_FACE('',(#1022),#1080,.T.);
#1136=ADVANCED_FACE('',(#1023),#50,.F.);
#1137=ADVANCED_FACE('',(#1024),#1081,.F.);
#1138=ADVANCED_FACE('',(#1025),#51,.T.);
#1139=ADVANCED_FACE('',(#1026),#52,.T.);
#1140=ADVANCED_FACE('',(#1027),#53,.F.);
#1141=ADVANCED_FACE('',(#1028),#1082,.T.);
#1142=ADVANCED_FACE('',(#1029),#54,.F.);
#1143=ADVANCED_FACE('',(#1030),#1083,.F.);
#1144=ADVANCED_FACE('',(#1031),#55,.T.);
#1145=ADVANCED_FACE('',(#1032),#56,.T.);
#1146=ADVANCED_FACE('',(#1033),#57,.F.);
#1147=ADVANCED_FACE('',(#1034),#1084,.T.);
#1148=ADVANCED_FACE('',(#1035),#58,.F.);
#1149=ADVANCED_FACE('',(#1036),#1085,.F.);
#1150=ADVANCED_FACE('',(#1037),#59,.T.);
#1151=ADVANCED_FACE('',(#1038),#60,.T.);
#1152=ADVANCED_FACE('',(#1039),#61,.F.);
#1153=ADVANCED_FACE('',(#1040),#1086,.T.);
#1154=ADVANCED_FACE('',(#1041),#62,.F.);
#1155=ADVANCED_FACE('',(#1042),#63,.T.);
#1156=ADVANCED_FACE('',(#1043),#64,.F.);
#1157=ADVANCED_FACE('',(#1044),#1087,.T.);
#1158=ADVANCED_FACE('',(#1045),#65,.F.);
#1159=ADVANCED_FACE('',(#1046),#1088,.F.);
#1160=ADVANCED_FACE('',(#1047),#66,.T.);
#1161=ADVANCED_FACE('',(#1048,#1049),#1089,.F.);
#1162=ADVANCED_FACE('',(#1050,#1051),#1090,.F.);
#1163=ADVANCED_FACE('',(#1052,#1053),#1091,.T.);
#1164=ADVANCED_FACE('',(#1054,#1055),#67,.T.);
#1165=ADVANCED_FACE('',(#1056,#1057),#68,.T.);
#1166=ADVANCED_FACE('',(#1058),#69,.T.);
#1167=ADVANCED_FACE('',(#1059),#70,.F.);
#1168=ADVANCED_FACE('',(#1060),#1092,.T.);
#1169=ADVANCED_FACE('',(#1061),#71,.F.);
#1170=ADVANCED_FACE('',(#1062,#1063),#20,.T.);
#1171=ADVANCED_FACE('',(#1064,#1065),#21,.T.);
#1172=CLOSED_SHELL('',(#1093,#1094,#1095,#1096,#1097,#1098,#1099,#1100,
#1101,#1102,#1103,#1104,#1105,#1106,#1107,#1108,#1109,#1110,#1111,#1112,
#1113,#1114,#1115,#1116,#1117,#1118,#1119,#1120,#1121,#1122,#1123,#1124,
#1125,#1126,#1127,#1128,#1129,#1130,#1131,#1132,#1133,#1134,#1135,#1136,
#1137,#1138,#1139,#1140,#1141,#1142,#1143,#1144,#1145,#1146,#1147,#1148,
#1149,#1150,#1151,#1152,#1153,#1154,#1155,#1156,#1157,#1158,#1159,#1160,
#1161,#1162,#1163,#1164,#1165,#1166,#1167,#1168,#1169,#1170,#1171));
#1173=STYLED_ITEM('',(#1174),#1181);
#1174=PRESENTATION_STYLE_ASSIGNMENT((#1175));
#1175=SURFACE_STYLE_USAGE(.BOTH.,#1176);
#1176=SURFACE_SIDE_STYLE('',(#1177));
#1177=SURFACE_STYLE_FILL_AREA(#1178);
#1178=FILL_AREA_STYLE('',(#1179));
#1179=FILL_AREA_STYLE_COLOUR('',#1180);
#1180=COLOUR_RGB('',0.506983280181885,0.531564235687256,0.550000011920929);
#1181=MANIFOLD_SOLID_BREP('',#1172);
#1182=SHAPE_DEFINITION_REPRESENTATION(#2260,#1183);
#1183=SHAPE_REPRESENTATION(
'\X2\975E52A05F3A578B570667F16EDA5B508F74627F\X0\RNU\X2\578B\X0\ GBT28
3-2021',(#1184),#2255);
#1184=AXIS2_PLACEMENT_3D('',#1898,#1414,#1415);
#1185=AXIS2_PLACEMENT_3D('',#1899,#1416,#1417);
#1186=AXIS2_PLACEMENT_3D('',#1900,#1418,#1419);
#1187=AXIS2_PLACEMENT_3D('',#1905,#1421,#1422);
#1188=AXIS2_PLACEMENT_3D('',#1908,#1424,#1425);
#1189=AXIS2_PLACEMENT_3D('',#1909,#1426,#1427);
#1190=AXIS2_PLACEMENT_3D('',#1911,#1428,#1429);
#1191=AXIS2_PLACEMENT_3D('',#1913,#1430,#1431);
#1192=AXIS2_PLACEMENT_3D('',#1914,#1432,#1433);
#1193=AXIS2_PLACEMENT_3D('',#1915,#1434,#1435);
#1194=AXIS2_PLACEMENT_3D('',#1918,#1436,#1437);
#1195=AXIS2_PLACEMENT_3D('',#1919,#1438,#1439);
#1196=AXIS2_PLACEMENT_3D('',#1920,#1440,#1441);
#1197=AXIS2_PLACEMENT_3D('',#1921,#1442,#1443);
#1198=AXIS2_PLACEMENT_3D('',#1923,#1444,#1445);
#1199=AXIS2_PLACEMENT_3D('',#1924,#1446,#1447);
#1200=AXIS2_PLACEMENT_3D('',#1925,#1448,#1449);
#1201=AXIS2_PLACEMENT_3D('',#1929,#1451,#1452);
#1202=AXIS2_PLACEMENT_3D('',#1931,#1453,#1454);
#1203=AXIS2_PLACEMENT_3D('',#1932,#1455,#1456);
#1204=AXIS2_PLACEMENT_3D('',#1933,#1457,#1458);
#1205=AXIS2_PLACEMENT_3D('',#1934,#1459,#1460);
#1206=AXIS2_PLACEMENT_3D('',#1935,#1461,#1462);
#1207=AXIS2_PLACEMENT_3D('',#1940,#1464,#1465);
#1208=AXIS2_PLACEMENT_3D('',#1943,#1467,#1468);
#1209=AXIS2_PLACEMENT_3D('',#1944,#1469,#1470);
#1210=AXIS2_PLACEMENT_3D('',#1946,#1471,#1472);
#1211=AXIS2_PLACEMENT_3D('',#1948,#1473,#1474);
#1212=AXIS2_PLACEMENT_3D('',#1949,#1475,#1476);
#1213=AXIS2_PLACEMENT_3D('',#1950,#1477,#1478);
#1214=AXIS2_PLACEMENT_3D('',#1953,#1479,#1480);
#1215=AXIS2_PLACEMENT_3D('',#1954,#1481,#1482);
#1216=AXIS2_PLACEMENT_3D('',#1955,#1483,#1484);
#1217=AXIS2_PLACEMENT_3D('',#1956,#1485,#1486);
#1218=AXIS2_PLACEMENT_3D('',#1958,#1487,#1488);
#1219=AXIS2_PLACEMENT_3D('',#1959,#1489,#1490);
#1220=AXIS2_PLACEMENT_3D('',#1960,#1491,#1492);
#1221=AXIS2_PLACEMENT_3D('',#1964,#1494,#1495);
#1222=AXIS2_PLACEMENT_3D('',#1966,#1496,#1497);
#1223=AXIS2_PLACEMENT_3D('',#1967,#1498,#1499);
#1224=AXIS2_PLACEMENT_3D('',#1968,#1500,#1501);
#1225=AXIS2_PLACEMENT_3D('',#1969,#1502,#1503);
#1226=AXIS2_PLACEMENT_3D('',#1970,#1504,#1505);
#1227=AXIS2_PLACEMENT_3D('',#1973,#1506,#1507);
#1228=AXIS2_PLACEMENT_3D('',#1974,#1508,#1509);
#1229=AXIS2_PLACEMENT_3D('',#1978,#1511,#1512);
#1230=AXIS2_PLACEMENT_3D('',#1979,#1513,#1514);
#1231=AXIS2_PLACEMENT_3D('',#1983,#1516,#1517);
#1232=AXIS2_PLACEMENT_3D('',#1985,#1518,#1519);
#1233=AXIS2_PLACEMENT_3D('',#1987,#1520,#1521);
#1234=AXIS2_PLACEMENT_3D('',#1988,#1522,#1523);
#1235=AXIS2_PLACEMENT_3D('',#1989,#1524,#1525);
#1236=AXIS2_PLACEMENT_3D('',#1990,#1526,#1527);
#1237=AXIS2_PLACEMENT_3D('',#1991,#1528,#1529);
#1238=AXIS2_PLACEMENT_3D('',#1993,#1530,#1531);
#1239=AXIS2_PLACEMENT_3D('',#1996,#1533,#1534);
#1240=AXIS2_PLACEMENT_3D('',#1997,#1535,#1536);
#1241=AXIS2_PLACEMENT_3D('',#1999,#1537,#1538);
#1242=AXIS2_PLACEMENT_3D('',#2002,#1540,#1541);
#1243=AXIS2_PLACEMENT_3D('',#2003,#1542,#1543);
#1244=AXIS2_PLACEMENT_3D('',#2005,#1544,#1545);
#1245=AXIS2_PLACEMENT_3D('',#2006,#1546,#1547);
#1246=AXIS2_PLACEMENT_3D('',#2007,#1548,#1549);
#1247=AXIS2_PLACEMENT_3D('',#2009,#1550,#1551);
#1248=AXIS2_PLACEMENT_3D('',#2010,#1552,#1553);
#1249=AXIS2_PLACEMENT_3D('',#2011,#1554,#1555);
#1250=AXIS2_PLACEMENT_3D('',#2013,#1556,#1557);
#1251=AXIS2_PLACEMENT_3D('',#2014,#1558,#1559);
#1252=AXIS2_PLACEMENT_3D('',#2015,#1560,#1561);
#1253=AXIS2_PLACEMENT_3D('',#2020,#1563,#1564);
#1254=AXIS2_PLACEMENT_3D('',#2023,#1566,#1567);
#1255=AXIS2_PLACEMENT_3D('',#2024,#1568,#1569);
#1256=AXIS2_PLACEMENT_3D('',#2026,#1570,#1571);
#1257=AXIS2_PLACEMENT_3D('',#2028,#1572,#1573);
#1258=AXIS2_PLACEMENT_3D('',#2029,#1574,#1575);
#1259=AXIS2_PLACEMENT_3D('',#2030,#1576,#1577);
#1260=AXIS2_PLACEMENT_3D('',#2033,#1578,#1579);
#1261=AXIS2_PLACEMENT_3D('',#2034,#1580,#1581);
#1262=AXIS2_PLACEMENT_3D('',#2035,#1582,#1583);
#1263=AXIS2_PLACEMENT_3D('',#2036,#1584,#1585);
#1264=AXIS2_PLACEMENT_3D('',#2038,#1586,#1587);
#1265=AXIS2_PLACEMENT_3D('',#2039,#1588,#1589);
#1266=AXIS2_PLACEMENT_3D('',#2040,#1590,#1591);
#1267=AXIS2_PLACEMENT_3D('',#2044,#1593,#1594);
#1268=AXIS2_PLACEMENT_3D('',#2046,#1595,#1596);
#1269=AXIS2_PLACEMENT_3D('',#2047,#1597,#1598);
#1270=AXIS2_PLACEMENT_3D('',#2048,#1599,#1600);
#1271=AXIS2_PLACEMENT_3D('',#2049,#1601,#1602);
#1272=AXIS2_PLACEMENT_3D('',#2050,#1603,#1604);
#1273=AXIS2_PLACEMENT_3D('',#2054,#1606,#1607);
#1274=AXIS2_PLACEMENT_3D('',#2055,#1608,#1609);
#1275=AXIS2_PLACEMENT_3D('',#2056,#1610,#1611);
#1276=AXIS2_PLACEMENT_3D('',#2058,#1612,#1613);
#1277=AXIS2_PLACEMENT_3D('',#2059,#1614,#1615);
#1278=AXIS2_PLACEMENT_3D('',#2060,#1616,#1617);
#1279=AXIS2_PLACEMENT_3D('',#2062,#1618,#1619);
#1280=AXIS2_PLACEMENT_3D('',#2063,#1620,#1621);
#1281=AXIS2_PLACEMENT_3D('',#2064,#1622,#1623);
#1282=AXIS2_PLACEMENT_3D('',#2066,#1624,#1625);
#1283=AXIS2_PLACEMENT_3D('',#2067,#1626,#1627);
#1284=AXIS2_PLACEMENT_3D('',#2068,#1628,#1629);
#1285=AXIS2_PLACEMENT_3D('',#2072,#1631,#1632);
#1286=AXIS2_PLACEMENT_3D('',#2074,#1633,#1634);
#1287=AXIS2_PLACEMENT_3D('',#2075,#1635,#1636);
#1288=AXIS2_PLACEMENT_3D('',#2076,#1637,#1638);
#1289=AXIS2_PLACEMENT_3D('',#2077,#1639,#1640);
#1290=AXIS2_PLACEMENT_3D('',#2078,#1641,#1642);
#1291=AXIS2_PLACEMENT_3D('',#2082,#1644,#1645);
#1292=AXIS2_PLACEMENT_3D('',#2083,#1646,#1647);
#1293=AXIS2_PLACEMENT_3D('',#2084,#1648,#1649);
#1294=AXIS2_PLACEMENT_3D('',#2086,#1650,#1651);
#1295=AXIS2_PLACEMENT_3D('',#2087,#1652,#1653);
#1296=AXIS2_PLACEMENT_3D('',#2088,#1654,#1655);
#1297=AXIS2_PLACEMENT_3D('',#2090,#1656,#1657);
#1298=AXIS2_PLACEMENT_3D('',#2091,#1658,#1659);
#1299=AXIS2_PLACEMENT_3D('',#2092,#1660,#1661);
#1300=AXIS2_PLACEMENT_3D('',#2093,#1662,#1663);
#1301=AXIS2_PLACEMENT_3D('',#2094,#1664,#1665);
#1302=AXIS2_PLACEMENT_3D('',#2095,#1666,#1667);
#1303=AXIS2_PLACEMENT_3D('',#2096,#1668,#1669);
#1304=AXIS2_PLACEMENT_3D('',#2097,#1670,#1671);
#1305=AXIS2_PLACEMENT_3D('',#2098,#1672,#1673);
#1306=AXIS2_PLACEMENT_3D('',#2099,#1674,#1675);
#1307=AXIS2_PLACEMENT_3D('',#2103,#1677,#1678);
#1308=AXIS2_PLACEMENT_3D('',#2104,#1679,#1680);
#1309=AXIS2_PLACEMENT_3D('',#2105,#1681,#1682);
#1310=AXIS2_PLACEMENT_3D('',#2107,#1683,#1684);
#1311=AXIS2_PLACEMENT_3D('',#2108,#1685,#1686);
#1312=AXIS2_PLACEMENT_3D('',#2109,#1687,#1688);
#1313=AXIS2_PLACEMENT_3D('',#2111,#1689,#1690);
#1314=AXIS2_PLACEMENT_3D('',#2112,#1691,#1692);
#1315=AXIS2_PLACEMENT_3D('',#2113,#1693,#1694);
#1316=AXIS2_PLACEMENT_3D('',#2115,#1695,#1696);
#1317=AXIS2_PLACEMENT_3D('',#2116,#1697,#1698);
#1318=AXIS2_PLACEMENT_3D('',#2117,#1699,#1700);
#1319=AXIS2_PLACEMENT_3D('',#2121,#1702,#1703);
#1320=AXIS2_PLACEMENT_3D('',#2123,#1704,#1705);
#1321=AXIS2_PLACEMENT_3D('',#2124,#1706,#1707);
#1322=AXIS2_PLACEMENT_3D('',#2125,#1708,#1709);
#1323=AXIS2_PLACEMENT_3D('',#2126,#1710,#1711);
#1324=AXIS2_PLACEMENT_3D('',#2127,#1712,#1713);
#1325=AXIS2_PLACEMENT_3D('',#2131,#1715,#1716);
#1326=AXIS2_PLACEMENT_3D('',#2132,#1717,#1718);
#1327=AXIS2_PLACEMENT_3D('',#2133,#1719,#1720);
#1328=AXIS2_PLACEMENT_3D('',#2135,#1721,#1722);
#1329=AXIS2_PLACEMENT_3D('',#2136,#1723,#1724);
#1330=AXIS2_PLACEMENT_3D('',#2137,#1725,#1726);
#1331=AXIS2_PLACEMENT_3D('',#2139,#1727,#1728);
#1332=AXIS2_PLACEMENT_3D('',#2140,#1729,#1730);
#1333=AXIS2_PLACEMENT_3D('',#2141,#1731,#1732);
#1334=AXIS2_PLACEMENT_3D('',#2142,#1733,#1734);
#1335=AXIS2_PLACEMENT_3D('',#2143,#1735,#1736);
#1336=AXIS2_PLACEMENT_3D('',#2144,#1737,#1738);
#1337=AXIS2_PLACEMENT_3D('',#2145,#1739,#1740);
#1338=AXIS2_PLACEMENT_3D('',#2146,#1741,#1742);
#1339=AXIS2_PLACEMENT_3D('',#2147,#1743,#1744);
#1340=AXIS2_PLACEMENT_3D('',#2148,#1745,#1746);
#1341=AXIS2_PLACEMENT_3D('',#2152,#1748,#1749);
#1342=AXIS2_PLACEMENT_3D('',#2153,#1750,#1751);
#1343=AXIS2_PLACEMENT_3D('',#2154,#1752,#1753);
#1344=AXIS2_PLACEMENT_3D('',#2156,#1754,#1755);
#1345=AXIS2_PLACEMENT_3D('',#2157,#1756,#1757);
#1346=AXIS2_PLACEMENT_3D('',#2158,#1758,#1759);
#1347=AXIS2_PLACEMENT_3D('',#2160,#1760,#1761);
#1348=AXIS2_PLACEMENT_3D('',#2161,#1762,#1763);
#1349=AXIS2_PLACEMENT_3D('',#2162,#1764,#1765);
#1350=AXIS2_PLACEMENT_3D('',#2164,#1766,#1767);
#1351=AXIS2_PLACEMENT_3D('',#2165,#1768,#1769);
#1352=AXIS2_PLACEMENT_3D('',#2166,#1770,#1771);
#1353=AXIS2_PLACEMENT_3D('',#2170,#1773,#1774);
#1354=AXIS2_PLACEMENT_3D('',#2172,#1775,#1776);
#1355=AXIS2_PLACEMENT_3D('',#2173,#1777,#1778);
#1356=AXIS2_PLACEMENT_3D('',#2174,#1779,#1780);
#1357=AXIS2_PLACEMENT_3D('',#2175,#1781,#1782);
#1358=AXIS2_PLACEMENT_3D('',#2176,#1783,#1784);
#1359=AXIS2_PLACEMENT_3D('',#2180,#1786,#1787);
#1360=AXIS2_PLACEMENT_3D('',#2181,#1788,#1789);
#1361=AXIS2_PLACEMENT_3D('',#2182,#1790,#1791);
#1362=AXIS2_PLACEMENT_3D('',#2184,#1792,#1793);
#1363=AXIS2_PLACEMENT_3D('',#2185,#1794,#1795);
#1364=AXIS2_PLACEMENT_3D('',#2186,#1796,#1797);
#1365=AXIS2_PLACEMENT_3D('',#2188,#1798,#1799);
#1366=AXIS2_PLACEMENT_3D('',#2189,#1800,#1801);
#1367=AXIS2_PLACEMENT_3D('',#2190,#1802,#1803);
#1368=AXIS2_PLACEMENT_3D('',#2191,#1804,#1805);
#1369=AXIS2_PLACEMENT_3D('',#2192,#1806,#1807);
#1370=AXIS2_PLACEMENT_3D('',#2193,#1808,#1809);
#1371=AXIS2_PLACEMENT_3D('',#2194,#1810,#1811);
#1372=AXIS2_PLACEMENT_3D('',#2195,#1812,#1813);
#1373=AXIS2_PLACEMENT_3D('',#2196,#1814,#1815);
#1374=AXIS2_PLACEMENT_3D('',#2197,#1816,#1817);
#1375=AXIS2_PLACEMENT_3D('',#2199,#1818,#1819);
#1376=AXIS2_PLACEMENT_3D('',#2200,#1820,#1821);
#1377=AXIS2_PLACEMENT_3D('',#2201,#1822,#1823);
#1378=AXIS2_PLACEMENT_3D('',#2203,#1824,#1825);
#1379=AXIS2_PLACEMENT_3D('',#2204,#1826,#1827);
#1380=AXIS2_PLACEMENT_3D('',#2205,#1828,#1829);
#1381=AXIS2_PLACEMENT_3D('',#2209,#1831,#1832);
#1382=AXIS2_PLACEMENT_3D('',#2211,#1833,#1834);
#1383=AXIS2_PLACEMENT_3D('',#2212,#1835,#1836);
#1384=AXIS2_PLACEMENT_3D('',#2213,#1837,#1838);
#1385=AXIS2_PLACEMENT_3D('',#2214,#1839,#1840);
#1386=AXIS2_PLACEMENT_3D('',#2215,#1841,#1842);
#1387=AXIS2_PLACEMENT_3D('',#2219,#1844,#1845);
#1388=AXIS2_PLACEMENT_3D('',#2220,#1846,#1847);
#1389=AXIS2_PLACEMENT_3D('',#2221,#1848,#1849);
#1390=AXIS2_PLACEMENT_3D('',#2223,#1850,#1851);
#1391=AXIS2_PLACEMENT_3D('',#2224,#1852,#1853);
#1392=AXIS2_PLACEMENT_3D('',#2225,#1854,#1855);
#1393=AXIS2_PLACEMENT_3D('',#2227,#1856,#1857);
#1394=AXIS2_PLACEMENT_3D('',#2229,#1858,#1859);
#1395=AXIS2_PLACEMENT_3D('',#2230,#1860,#1861);
#1396=AXIS2_PLACEMENT_3D('',#2231,#1862,#1863);
#1397=AXIS2_PLACEMENT_3D('',#2233,#1864,#1865);
#1398=AXIS2_PLACEMENT_3D('',#2234,#1866,#1867);
#1399=AXIS2_PLACEMENT_3D('',#2235,#1868,#1869);
#1400=AXIS2_PLACEMENT_3D('',#2237,#1870,#1871);
#1401=AXIS2_PLACEMENT_3D('',#2239,#1872,#1873);
#1402=AXIS2_PLACEMENT_3D('',#2240,#1874,#1875);
#1403=AXIS2_PLACEMENT_3D('',#2242,#1876,#1877);
#1404=AXIS2_PLACEMENT_3D('',#2243,#1878,#1879);
#1405=AXIS2_PLACEMENT_3D('',#2245,#1880,#1881);
#1406=AXIS2_PLACEMENT_3D('',#2246,#1882,#1883);
#1407=AXIS2_PLACEMENT_3D('',#2247,#1884,#1885);
#1408=AXIS2_PLACEMENT_3D('',#2248,#1886,#1887);
#1409=AXIS2_PLACEMENT_3D('',#2249,#1888,#1889);
#1410=AXIS2_PLACEMENT_3D('',#2250,#1890,#1891);
#1411=AXIS2_PLACEMENT_3D('',#2251,#1892,#1893);
#1412=AXIS2_PLACEMENT_3D('',#2252,#1894,#1895);
#1413=AXIS2_PLACEMENT_3D('',#2253,#1896,#1897);
#1414=DIRECTION('',(0.,0.,1.));
#1415=DIRECTION('',(1.,0.,0.));
#1416=DIRECTION('',(-1.,0.,0.));
#1417=DIRECTION('',(0.,0.,1.));
#1418=DIRECTION('',(-1.,0.,0.));
#1419=DIRECTION('',(0.,0.,1.));
#1420=DIRECTION('',(1.,0.,0.));
#1421=DIRECTION('',(-1.,0.,0.));
#1422=DIRECTION('',(0.,0.,1.));
#1423=DIRECTION('',(1.,0.,0.));
#1424=DIRECTION('',(-1.,0.,0.));
#1425=DIRECTION('',(0.,0.,1.));
#1426=DIRECTION('',(1.,0.,0.));
#1427=DIRECTION('',(0.,1.,1.04899068466779E-15));
#1428=DIRECTION('',(-1.,0.,0.));
#1429=DIRECTION('',(0.,0.,1.));
#1430=DIRECTION('',(1.,0.,0.));
#1431=DIRECTION('',(0.,0.866025403784438,0.500000000000001));
#1432=DIRECTION('',(1.,0.,0.));
#1433=DIRECTION('',(0.,0.,-1.));
#1434=DIRECTION('',(-1.,0.,0.));
#1435=DIRECTION('',(0.,0.,1.));
#1436=DIRECTION('',(1.,0.,0.));
#1437=DIRECTION('',(0.,1.,1.04899068466779E-15));
#1438=DIRECTION('',(1.,0.,0.));
#1439=DIRECTION('',(0.,0.866025403784438,0.500000000000001));
#1440=DIRECTION('',(-1.,0.,0.));
#1441=DIRECTION('',(0.,-0.866025403784438,-0.500000000000001));
#1442=DIRECTION('',(-1.,0.,0.));
#1443=DIRECTION('',(0.,1.38777878078145E-15,-1.));
#1444=DIRECTION('',(1.,0.,0.));
#1445=DIRECTION('',(0.,0.866025403784438,0.500000000000001));
#1446=DIRECTION('',(1.,0.,0.));
#1447=DIRECTION('',(0.,0.866025403784438,0.500000000000001));
#1448=DIRECTION('',(1.,0.,0.));
#1449=DIRECTION('',(0.,0.866025403784438,0.500000000000001));
#1450=DIRECTION('',(1.,0.,0.));
#1451=DIRECTION('',(1.,0.,0.));
#1452=DIRECTION('',(0.,0.866025403784438,0.500000000000001));
#1453=DIRECTION('',(1.,0.,0.));
#1454=DIRECTION('',(0.,0.866025403784438,0.500000000000001));
#1455=DIRECTION('',(1.,0.,0.));
#1456=DIRECTION('',(0.,0.866025403784438,0.500000000000001));
#1457=DIRECTION('',(-1.,0.,0.));
#1458=DIRECTION('',(0.,1.38777878078145E-15,-1.));
#1459=DIRECTION('',(-1.,0.,0.));
#1460=DIRECTION('',(0.,0.,1.));
#1461=DIRECTION('',(-1.,0.,0.));
#1462=DIRECTION('',(0.,0.,1.));
#1463=DIRECTION('',(1.,0.,0.));
#1464=DIRECTION('',(-1.,0.,0.));
#1465=DIRECTION('',(0.,0.,1.));
#1466=DIRECTION('',(1.,0.,0.));
#1467=DIRECTION('',(-1.,0.,0.));
#1468=DIRECTION('',(0.,0.,1.));
#1469=DIRECTION('',(1.,0.,0.));
#1470=DIRECTION('',(0.,-3.21624529935327E-16,1.));
#1471=DIRECTION('',(-1.,0.,0.));
#1472=DIRECTION('',(0.,0.,1.));
#1473=DIRECTION('',(1.,0.,0.));
#1474=DIRECTION('',(0.,-0.5,0.866025403784439));
#1475=DIRECTION('',(1.,0.,0.));
#1476=DIRECTION('',(0.,0.,-1.));
#1477=DIRECTION('',(-1.,0.,0.));
#1478=DIRECTION('',(0.,0.,1.));
#1479=DIRECTION('',(1.,0.,0.));
#1480=DIRECTION('',(0.,-3.21624529935327E-16,1.));
#1481=DIRECTION('',(1.,0.,0.));
#1482=DIRECTION('',(0.,-0.5,0.866025403784439));
#1483=DIRECTION('',(-1.,0.,0.));
#1484=DIRECTION('',(0.,0.5,-0.866025403784439));
#1485=DIRECTION('',(-1.,0.,0.));
#1486=DIRECTION('',(0.,1.,0.));
#1487=DIRECTION('',(1.,0.,0.));
#1488=DIRECTION('',(0.,-0.5,0.866025403784439));
#1489=DIRECTION('',(1.,0.,0.));
#1490=DIRECTION('',(0.,-0.5,0.866025403784439));
#1491=DIRECTION('',(1.,0.,0.));
#1492=DIRECTION('',(0.,-0.5,0.866025403784439));
#1493=DIRECTION('',(1.,0.,0.));
#1494=DIRECTION('',(1.,0.,0.));
#1495=DIRECTION('',(0.,-0.5,0.866025403784439));
#1496=DIRECTION('',(1.,0.,0.));
#1497=DIRECTION('',(0.,-0.5,0.866025403784439));
#1498=DIRECTION('',(1.,0.,0.));
#1499=DIRECTION('',(0.,-0.5,0.866025403784439));
#1500=DIRECTION('',(-1.,0.,0.));
#1501=DIRECTION('',(0.,1.,0.));
#1502=DIRECTION('',(-1.,0.,0.));
#1503=DIRECTION('',(0.,0.866025403784439,0.5));
#1504=DIRECTION('',(-1.,0.,0.));
#1505=DIRECTION('',(0.,0.,1.));
#1506=DIRECTION('',(1.,0.,0.));
#1507=DIRECTION('',(0.,-0.866025403784439,-0.5));
#1508=DIRECTION('',(1.,0.,0.));
#1509=DIRECTION('',(0.,-0.866025403784439,-0.5));
#1510=DIRECTION('',(1.,0.,0.));
#1511=DIRECTION('',(1.,0.,0.));
#1512=DIRECTION('',(0.,-0.866025403784439,-0.5));
#1513=DIRECTION('',(1.,0.,0.));
#1514=DIRECTION('',(0.,-0.866025403784439,-0.5));
#1515=DIRECTION('',(1.,0.,0.));
#1516=DIRECTION('',(1.,0.,0.));
#1517=DIRECTION('',(0.,-0.866025403784439,-0.5));
#1518=DIRECTION('',(1.,0.,0.));
#1519=DIRECTION('',(0.,-0.866025403784439,-0.5));
#1520=DIRECTION('',(1.,0.,0.));
#1521=DIRECTION('',(0.,-0.866025403784439,-0.5));
#1522=DIRECTION('',(1.,0.,0.));
#1523=DIRECTION('',(0.,-0.866025403784439,-0.5));
#1524=DIRECTION('',(-1.,0.,0.));
#1525=DIRECTION('',(0.,0.,1.));
#1526=DIRECTION('',(-1.,0.,0.));
#1527=DIRECTION('',(0.,0.,1.));
#1528=DIRECTION('',(-1.,0.,0.));
#1529=DIRECTION('',(0.,0.,1.));
#1530=DIRECTION('',(-1.,0.,0.));
#1531=DIRECTION('',(0.,0.,1.));
#1532=DIRECTION('',(1.,0.,0.));
#1533=DIRECTION('',(-1.,0.,0.));
#1534=DIRECTION('',(0.,0.,1.));
#1535=DIRECTION('',(-1.,0.,0.));
#1536=DIRECTION('',(0.,0.,1.));
#1537=DIRECTION('',(-1.,0.,0.));
#1538=DIRECTION('',(0.,0.,1.));
#1539=DIRECTION('',(1.,0.,0.));
#1540=DIRECTION('',(-1.,0.,0.));
#1541=DIRECTION('',(0.,0.,1.));
#1542=DIRECTION('',(-1.,0.,0.));
#1543=DIRECTION('',(0.,0.,1.));
#1544=DIRECTION('',(1.,0.,0.));
#1545=DIRECTION('',(0.,-1.,1.83697019872103E-16));
#1546=DIRECTION('',(1.,0.,0.));
#1547=DIRECTION('',(0.,0.,-1.));
#1548=DIRECTION('',(1.,0.,0.));
#1549=DIRECTION('',(0.,-0.5,-0.866025403784439));
#1550=DIRECTION('',(-1.,0.,0.));
#1551=DIRECTION('',(0.,0.,1.));
#1552=DIRECTION('',(1.,0.,0.));
#1553=DIRECTION('',(0.,0.,-1.));
#1554=DIRECTION('',(-1.,0.,0.));
#1555=DIRECTION('',(0.,0.,1.));
#1556=DIRECTION('',(1.,0.,0.));
#1557=DIRECTION('',(0.,-1.,1.83697019872103E-16));
#1558=DIRECTION('',(-1.,0.,0.));
#1559=DIRECTION('',(0.,0.,1.));
#1560=DIRECTION('',(-1.,0.,0.));
#1561=DIRECTION('',(0.,0.,1.));
#1562=DIRECTION('',(1.,0.,0.));
#1563=DIRECTION('',(-1.,0.,0.));
#1564=DIRECTION('',(0.,0.,1.));
#1565=DIRECTION('',(1.,0.,0.));
#1566=DIRECTION('',(-1.,0.,0.));
#1567=DIRECTION('',(0.,0.,1.));
#1568=DIRECTION('',(1.,0.,0.));
#1569=DIRECTION('',(0.,0.,-1.));
#1570=DIRECTION('',(-1.,0.,0.));
#1571=DIRECTION('',(0.,0.,1.));
#1572=DIRECTION('',(1.,0.,0.));
#1573=DIRECTION('',(0.,0.500000000000001,-0.866025403784438));
#1574=DIRECTION('',(1.,0.,0.));
#1575=DIRECTION('',(0.,0.,-1.));
#1576=DIRECTION('',(-1.,0.,0.));
#1577=DIRECTION('',(0.,0.,1.));
#1578=DIRECTION('',(1.,0.,0.));
#1579=DIRECTION('',(0.,0.,-1.));
#1580=DIRECTION('',(1.,0.,0.));
#1581=DIRECTION('',(0.,0.500000000000001,-0.866025403784438));
#1582=DIRECTION('',(-1.,0.,0.));
#1583=DIRECTION('',(0.,-0.500000000000001,0.866025403784438));
#1584=DIRECTION('',(-1.,0.,0.));
#1585=DIRECTION('',(0.,-0.500000000000001,0.866025403784438));
#1586=DIRECTION('',(1.,0.,0.));
#1587=DIRECTION('',(0.,0.500000000000001,-0.866025403784438));
#1588=DIRECTION('',(1.,0.,0.));
#1589=DIRECTION('',(0.,0.500000000000001,-0.866025403784438));
#1590=DIRECTION('',(1.,0.,0.));
#1591=DIRECTION('',(0.,0.500000000000001,-0.866025403784438));
#1592=DIRECTION('',(1.,0.,0.));
#1593=DIRECTION('',(1.,0.,0.));
#1594=DIRECTION('',(0.,0.500000000000001,-0.866025403784438));
#1595=DIRECTION('',(1.,0.,0.));
#1596=DIRECTION('',(0.,0.500000000000001,-0.866025403784438));
#1597=DIRECTION('',(1.,0.,0.));
#1598=DIRECTION('',(0.,0.500000000000001,-0.866025403784438));
#1599=DIRECTION('',(-1.,0.,0.));
#1600=DIRECTION('',(0.,-0.500000000000001,0.866025403784438));
#1601=DIRECTION('',(-1.,0.,0.));
#1602=DIRECTION('',(0.,0.,1.));
#1603=DIRECTION('',(-1.,0.,0.));
#1604=DIRECTION('',(0.,0.,1.));
#1605=DIRECTION('',(1.,0.,0.));
#1606=DIRECTION('',(-1.,0.,0.));
#1607=DIRECTION('',(0.,0.,1.));
#1608=DIRECTION('',(-1.,0.,0.));
#1609=DIRECTION('',(0.,0.,1.));
#1610=DIRECTION('',(-1.,0.,0.));
#1611=DIRECTION('',(0.,0.,1.));
#1612=DIRECTION('',(1.,0.,0.));
#1613=DIRECTION('',(0.,0.866025403784439,-0.499999999999999));
#1614=DIRECTION('',(1.,0.,0.));
#1615=DIRECTION('',(0.,0.,-1.));
#1616=DIRECTION('',(-1.,0.,0.));
#1617=DIRECTION('',(0.,0.,1.));
#1618=DIRECTION('',(1.,0.,0.));
#1619=DIRECTION('',(0.,0.866025403784439,-0.499999999999999));
#1620=DIRECTION('',(-1.,0.,0.));
#1621=DIRECTION('',(0.,-0.866025403784439,0.499999999999999));
#1622=DIRECTION('',(-1.,0.,0.));
#1623=DIRECTION('',(0.,-0.866025403784439,0.499999999999999));
#1624=DIRECTION('',(1.,0.,0.));
#1625=DIRECTION('',(0.,0.866025403784439,-0.499999999999999));
#1626=DIRECTION('',(1.,0.,0.));
#1627=DIRECTION('',(0.,0.866025403784439,-0.499999999999999));
#1628=DIRECTION('',(1.,0.,0.));
#1629=DIRECTION('',(0.,0.866025403784439,-0.499999999999999));
#1630=DIRECTION('',(1.,0.,0.));
#1631=DIRECTION('',(1.,0.,0.));
#1632=DIRECTION('',(0.,0.866025403784439,-0.499999999999999));
#1633=DIRECTION('',(1.,0.,0.));
#1634=DIRECTION('',(0.,0.866025403784439,-0.499999999999999));
#1635=DIRECTION('',(1.,0.,0.));
#1636=DIRECTION('',(0.,0.866025403784439,-0.499999999999999));
#1637=DIRECTION('',(-1.,0.,0.));
#1638=DIRECTION('',(0.,-0.866025403784439,0.499999999999999));
#1639=DIRECTION('',(-1.,0.,0.));
#1640=DIRECTION('',(0.,0.,1.));
#1641=DIRECTION('',(-1.,0.,0.));
#1642=DIRECTION('',(0.,0.,1.));
#1643=DIRECTION('',(1.,0.,0.));
#1644=DIRECTION('',(-1.,0.,0.));
#1645=DIRECTION('',(0.,0.,1.));
#1646=DIRECTION('',(-1.,0.,0.));
#1647=DIRECTION('',(0.,0.,1.));
#1648=DIRECTION('',(-1.,0.,0.));
#1649=DIRECTION('',(0.,0.,1.));
#1650=DIRECTION('',(1.,0.,0.));
#1651=DIRECTION('',(0.,1.,1.04899068466779E-15));
#1652=DIRECTION('',(1.,0.,0.));
#1653=DIRECTION('',(0.,0.,-1.));
#1654=DIRECTION('',(-1.,0.,0.));
#1655=DIRECTION('',(0.,0.,1.));
#1656=DIRECTION('',(1.,0.,0.));
#1657=DIRECTION('',(0.,1.,1.04899068466779E-15));
#1658=DIRECTION('',(-1.,0.,0.));
#1659=DIRECTION('',(0.,-1.,-1.04899068466779E-15));
#1660=DIRECTION('',(-1.,0.,0.));
#1661=DIRECTION('',(0.,-1.,-1.04899068466779E-15));
#1662=DIRECTION('',(1.,0.,0.));
#1663=DIRECTION('',(0.,1.,1.04899068466779E-15));
#1664=DIRECTION('',(1.,0.,0.));
#1665=DIRECTION('',(0.,1.,1.04899068466779E-15));
#1666=DIRECTION('',(1.,0.,0.));
#1667=DIRECTION('',(0.,1.,1.04899068466779E-15));
#1668=DIRECTION('',(1.,0.,0.));
#1669=DIRECTION('',(0.,1.,1.04899068466779E-15));
#1670=DIRECTION('',(-1.,0.,0.));
#1671=DIRECTION('',(0.,-1.,-1.04899068466779E-15));
#1672=DIRECTION('',(-1.,0.,0.));
#1673=DIRECTION('',(0.,0.,1.));
#1674=DIRECTION('',(-1.,0.,0.));
#1675=DIRECTION('',(0.,0.,1.));
#1676=DIRECTION('',(1.,0.,0.));
#1677=DIRECTION('',(-1.,0.,0.));
#1678=DIRECTION('',(0.,0.,1.));
#1679=DIRECTION('',(-1.,0.,0.));
#1680=DIRECTION('',(0.,0.,1.));
#1681=DIRECTION('',(-1.,0.,0.));
#1682=DIRECTION('',(0.,0.,1.));
#1683=DIRECTION('',(1.,0.,0.));
#1684=DIRECTION('',(0.,0.499999999999999,0.866025403784439));
#1685=DIRECTION('',(1.,0.,0.));
#1686=DIRECTION('',(0.,0.,-1.));
#1687=DIRECTION('',(-1.,0.,0.));
#1688=DIRECTION('',(0.,0.,1.));
#1689=DIRECTION('',(1.,0.,0.));
#1690=DIRECTION('',(0.,0.499999999999999,0.866025403784439));
#1691=DIRECTION('',(-1.,0.,0.));
#1692=DIRECTION('',(0.,-0.499999999999999,-0.866025403784439));
#1693=DIRECTION('',(-1.,0.,0.));
#1694=DIRECTION('',(0.,-0.499999999999999,-0.866025403784439));
#1695=DIRECTION('',(1.,0.,0.));
#1696=DIRECTION('',(0.,0.499999999999999,0.866025403784439));
#1697=DIRECTION('',(1.,0.,0.));
#1698=DIRECTION('',(0.,0.499999999999999,0.866025403784439));
#1699=DIRECTION('',(1.,0.,0.));
#1700=DIRECTION('',(0.,0.499999999999999,0.866025403784439));
#1701=DIRECTION('',(1.,0.,0.));
#1702=DIRECTION('',(1.,0.,0.));
#1703=DIRECTION('',(0.,0.499999999999999,0.866025403784439));
#1704=DIRECTION('',(1.,0.,0.));
#1705=DIRECTION('',(0.,0.499999999999999,0.866025403784439));
#1706=DIRECTION('',(1.,0.,0.));
#1707=DIRECTION('',(0.,0.499999999999999,0.866025403784439));
#1708=DIRECTION('',(-1.,0.,0.));
#1709=DIRECTION('',(0.,-0.499999999999999,-0.866025403784439));
#1710=DIRECTION('',(-1.,0.,0.));
#1711=DIRECTION('',(0.,0.,1.));
#1712=DIRECTION('',(-1.,0.,0.));
#1713=DIRECTION('',(0.,0.,1.));
#1714=DIRECTION('',(1.,0.,0.));
#1715=DIRECTION('',(-1.,0.,0.));
#1716=DIRECTION('',(0.,0.,1.));
#1717=DIRECTION('',(-1.,0.,0.));
#1718=DIRECTION('',(0.,0.,1.));
#1719=DIRECTION('',(-1.,0.,0.));
#1720=DIRECTION('',(0.,0.,1.));
#1721=DIRECTION('',(1.,0.,0.));
#1722=DIRECTION('',(0.,-3.21624529935327E-16,1.));
#1723=DIRECTION('',(1.,0.,0.));
#1724=DIRECTION('',(0.,0.,-1.));
#1725=DIRECTION('',(-1.,0.,0.));
#1726=DIRECTION('',(0.,0.,1.));
#1727=DIRECTION('',(1.,0.,0.));
#1728=DIRECTION('',(0.,-3.21624529935327E-16,1.));
#1729=DIRECTION('',(-1.,0.,0.));
#1730=DIRECTION('',(0.,3.21624529935327E-16,-1.));
#1731=DIRECTION('',(-1.,0.,0.));
#1732=DIRECTION('',(0.,3.21624529935327E-16,-1.));
#1733=DIRECTION('',(1.,0.,0.));
#1734=DIRECTION('',(0.,-3.21624529935327E-16,1.));
#1735=DIRECTION('',(1.,0.,0.));
#1736=DIRECTION('',(0.,-3.21624529935327E-16,1.));
#1737=DIRECTION('',(1.,0.,0.));
#1738=DIRECTION('',(0.,-3.21624529935327E-16,1.));
#1739=DIRECTION('',(1.,0.,0.));
#1740=DIRECTION('',(0.,-3.21624529935327E-16,1.));
#1741=DIRECTION('',(-1.,0.,0.));
#1742=DIRECTION('',(0.,3.21624529935327E-16,-1.));
#1743=DIRECTION('',(-1.,0.,0.));
#1744=DIRECTION('',(0.,0.,1.));
#1745=DIRECTION('',(-1.,0.,0.));
#1746=DIRECTION('',(0.,0.,1.));
#1747=DIRECTION('',(1.,0.,0.));
#1748=DIRECTION('',(-1.,0.,0.));
#1749=DIRECTION('',(0.,0.,1.));
#1750=DIRECTION('',(-1.,0.,0.));
#1751=DIRECTION('',(0.,0.,1.));
#1752=DIRECTION('',(-1.,0.,0.));
#1753=DIRECTION('',(0.,0.,1.));
#1754=DIRECTION('',(1.,0.,0.));
#1755=DIRECTION('',(0.,-0.866025403784439,0.5));
#1756=DIRECTION('',(1.,0.,0.));
#1757=DIRECTION('',(0.,0.,-1.));
#1758=DIRECTION('',(-1.,0.,0.));
#1759=DIRECTION('',(0.,0.,1.));
#1760=DIRECTION('',(1.,0.,0.));
#1761=DIRECTION('',(0.,-0.866025403784439,0.5));
#1762=DIRECTION('',(-1.,0.,0.));
#1763=DIRECTION('',(0.,0.866025403784439,-0.5));
#1764=DIRECTION('',(-1.,0.,0.));
#1765=DIRECTION('',(0.,0.866025403784439,-0.5));
#1766=DIRECTION('',(1.,0.,0.));
#1767=DIRECTION('',(0.,-0.866025403784439,0.5));
#1768=DIRECTION('',(1.,0.,0.));
#1769=DIRECTION('',(0.,-0.866025403784439,0.5));
#1770=DIRECTION('',(1.,0.,0.));
#1771=DIRECTION('',(0.,-0.866025403784439,0.5));
#1772=DIRECTION('',(1.,0.,0.));
#1773=DIRECTION('',(1.,0.,0.));
#1774=DIRECTION('',(0.,-0.866025403784439,0.5));
#1775=DIRECTION('',(1.,0.,0.));
#1776=DIRECTION('',(0.,-0.866025403784439,0.5));
#1777=DIRECTION('',(1.,0.,0.));
#1778=DIRECTION('',(0.,-0.866025403784439,0.5));
#1779=DIRECTION('',(-1.,0.,0.));
#1780=DIRECTION('',(0.,0.866025403784439,-0.5));
#1781=DIRECTION('',(-1.,0.,0.));
#1782=DIRECTION('',(0.,0.,1.));
#1783=DIRECTION('',(-1.,0.,0.));
#1784=DIRECTION('',(0.,0.,1.));
#1785=DIRECTION('',(1.,0.,0.));
#1786=DIRECTION('',(-1.,0.,0.));
#1787=DIRECTION('',(0.,0.,1.));
#1788=DIRECTION('',(-1.,0.,0.));
#1789=DIRECTION('',(0.,0.,1.));
#1790=DIRECTION('',(-1.,0.,0.));
#1791=DIRECTION('',(0.,0.,1.));
#1792=DIRECTION('',(1.,0.,0.));
#1793=DIRECTION('',(0.,-1.,1.83697019872103E-16));
#1794=DIRECTION('',(1.,0.,0.));
#1795=DIRECTION('',(0.,0.,-1.));
#1796=DIRECTION('',(-1.,0.,0.));
#1797=DIRECTION('',(0.,0.,1.));
#1798=DIRECTION('',(1.,0.,0.));
#1799=DIRECTION('',(0.,-1.,1.83697019872103E-16));
#1800=DIRECTION('',(-1.,0.,0.));
#1801=DIRECTION('',(0.,1.,-1.83697019872103E-16));
#1802=DIRECTION('',(-1.,0.,0.));
#1803=DIRECTION('',(0.,1.,-1.83697019872103E-16));
#1804=DIRECTION('',(1.,0.,0.));
#1805=DIRECTION('',(0.,-1.,1.83697019872103E-16));
#1806=DIRECTION('',(1.,0.,0.));
#1807=DIRECTION('',(0.,-1.,1.83697019872103E-16));
#1808=DIRECTION('',(1.,0.,0.));
#1809=DIRECTION('',(0.,-1.,1.83697019872103E-16));
#1810=DIRECTION('',(1.,0.,0.));
#1811=DIRECTION('',(0.,-1.,1.83697019872103E-16));
#1812=DIRECTION('',(-1.,0.,0.));
#1813=DIRECTION('',(0.,1.,-1.83697019872103E-16));
#1814=DIRECTION('',(-1.,0.,0.));
#1815=DIRECTION('',(0.,0.,1.));
#1816=DIRECTION('',(-1.,0.,0.));
#1817=DIRECTION('',(0.,0.,1.));
#1818=DIRECTION('',(1.,0.,0.));
#1819=DIRECTION('',(0.,-0.5,-0.866025403784439));
#1820=DIRECTION('',(-1.,0.,0.));
#1821=DIRECTION('',(0.,0.5,0.866025403784439));
#1822=DIRECTION('',(-1.,0.,0.));
#1823=DIRECTION('',(0.,0.5,0.866025403784439));
#1824=DIRECTION('',(1.,0.,0.));
#1825=DIRECTION('',(0.,-0.5,-0.866025403784439));
#1826=DIRECTION('',(1.,0.,0.));
#1827=DIRECTION('',(0.,-0.5,-0.866025403784439));
#1828=DIRECTION('',(1.,0.,0.));
#1829=DIRECTION('',(0.,-0.5,-0.866025403784439));
#1830=DIRECTION('',(1.,0.,0.));
#1831=DIRECTION('',(1.,0.,0.));
#1832=DIRECTION('',(0.,-0.5,-0.866025403784439));
#1833=DIRECTION('',(1.,0.,0.));
#1834=DIRECTION('',(0.,-0.5,-0.866025403784439));
#1835=DIRECTION('',(1.,0.,0.));
#1836=DIRECTION('',(0.,-0.5,-0.866025403784439));
#1837=DIRECTION('',(-1.,0.,0.));
#1838=DIRECTION('',(0.,0.5,0.866025403784439));
#1839=DIRECTION('',(-1.,0.,0.));
#1840=DIRECTION('',(0.,0.,1.));
#1841=DIRECTION('',(-1.,0.,0.));
#1842=DIRECTION('',(0.,0.,1.));
#1843=DIRECTION('',(1.,0.,0.));
#1844=DIRECTION('',(-1.,0.,0.));
#1845=DIRECTION('',(0.,0.,1.));
#1846=DIRECTION('',(1.,0.,0.));
#1847=DIRECTION('',(0.,0.,-1.));
#1848=DIRECTION('',(-1.,0.,0.));
#1849=DIRECTION('',(0.,0.,1.));
#1850=DIRECTION('',(1.,0.,0.));
#1851=DIRECTION('',(0.,0.,-1.));
#1852=DIRECTION('',(-1.,0.,0.));
#1853=DIRECTION('',(0.,0.,1.));
#1854=DIRECTION('',(-1.,0.,0.));
#1855=DIRECTION('',(0.,0.,1.));
#1856=DIRECTION('',(-1.,0.,0.));
#1857=DIRECTION('',(0.,0.,1.));
#1858=DIRECTION('',(-1.,0.,0.));
#1859=DIRECTION('',(0.,0.,1.));
#1860=DIRECTION('',(-1.,0.,0.));
#1861=DIRECTION('',(0.,0.,1.));
#1862=DIRECTION('',(-1.,0.,0.));
#1863=DIRECTION('',(0.,0.,1.));
#1864=DIRECTION('',(-1.,0.,0.));
#1865=DIRECTION('',(0.,0.,1.));
#1866=DIRECTION('',(-1.,0.,0.));
#1867=DIRECTION('',(0.,0.,1.));
#1868=DIRECTION('',(-1.,0.,0.));
#1869=DIRECTION('',(0.,0.,1.));
#1870=DIRECTION('',(1.,0.,0.));
#1871=DIRECTION('',(0.,0.,-1.));
#1872=DIRECTION('',(1.,0.,0.));
#1873=DIRECTION('',(0.,0.,-1.));
#1874=DIRECTION('',(1.,0.,0.));
#1875=DIRECTION('',(0.,0.,-1.));
#1876=DIRECTION('',(-1.,0.,0.));
#1877=DIRECTION('',(0.,0.,1.));
#1878=DIRECTION('',(-1.,0.,0.));
#1879=DIRECTION('',(0.,0.,1.));
#1880=DIRECTION('',(-1.,0.,0.));
#1881=DIRECTION('',(0.,0.,1.));
#1882=DIRECTION('',(1.,0.,0.));
#1883=DIRECTION('',(0.,0.,-1.));
#1884=DIRECTION('',(-1.,0.,0.));
#1885=DIRECTION('',(0.,0.,1.));
#1886=DIRECTION('',(1.,0.,0.));
#1887=DIRECTION('',(0.,0.,-1.));
#1888=DIRECTION('',(1.,0.,0.));
#1889=DIRECTION('',(0.,0.,-1.));
#1890=DIRECTION('',(1.,0.,0.));
#1891=DIRECTION('',(0.,0.,-1.));
#1892=DIRECTION('',(1.,0.,0.));
#1893=DIRECTION('',(0.,0.,-1.));
#1894=DIRECTION('',(1.,0.,0.));
#1895=DIRECTION('',(0.,0.,-1.));
#1896=DIRECTION('',(-1.,0.,0.));
#1897=DIRECTION('',(0.,0.,1.));
#1898=CARTESIAN_POINT('',(0.,0.,0.));
#1899=CARTESIAN_POINT('',(0.,0.,0.));
#1900=CARTESIAN_POINT('',(3.,0.,0.));
#1901=CARTESIAN_POINT('',(3.,-12.5442776448636,-6.96875873944391));
#1902=CARTESIAN_POINT('',(3.,-14.348042482299,-0.237016721228576));
#1903=CARTESIAN_POINT('',(0.,-12.5442776448636,-6.96875873944391));
#1904=CARTESIAN_POINT('',(-3.,-12.5442776448636,-6.96875873944391));
#1905=CARTESIAN_POINT('',(-3.,0.,0.));
#1906=CARTESIAN_POINT('',(-3.,-14.348042482299,-0.237016721228576));
#1907=CARTESIAN_POINT('',(0.,-14.348042482299,-0.237016721228576));
#1908=CARTESIAN_POINT('',(3.,0.,13.575));
#1909=CARTESIAN_POINT('',(3.,-12.005,-1.25931331694368E-14));
#1910=CARTESIAN_POINT('',(3.,-13.4466732611412,-1.86215015724044));
#1911=CARTESIAN_POINT('',(3.,0.,0.));
#1912=CARTESIAN_POINT('',(3.,-12.5762357191574,-5.11066728873922));
#1913=CARTESIAN_POINT('',(3.,-10.3966349724322,-6.00250000000001));
#1914=CARTESIAN_POINT('',(-3.,0.,13.575));
#1915=CARTESIAN_POINT('',(-3.,0.,0.));
#1916=CARTESIAN_POINT('',(-3.,-12.5762357191574,-5.11066728873922));
#1917=CARTESIAN_POINT('',(-3.,-13.4466732611412,-1.86215015724044));
#1918=CARTESIAN_POINT('',(-3.,-12.005,-1.25931331694368E-14));
#1919=CARTESIAN_POINT('',(-3.,-10.3966349724322,-6.00250000000001));
#1920=CARTESIAN_POINT('',(3.,-8.35714514651982,-4.82500000000001));
#1921=CARTESIAN_POINT('',(3.,0.,0.));
#1922=CARTESIAN_POINT('',(3.,-10.714085561917,-8.336005972402));
#1923=CARTESIAN_POINT('',(3.,-10.3966349724322,-6.00250000000001));
#1924=CARTESIAN_POINT('',(-11.0084529151306,-10.3966349724322,-6.00250000000001));
#1925=CARTESIAN_POINT('',(3.,-10.3966349724322,-6.00250000000001));
#1926=CARTESIAN_POINT('',(3.,-12.307260923635,-7.37928374285516));
#1927=CARTESIAN_POINT('',(0.,-12.307260923635,-7.37928374285517));
#1928=CARTESIAN_POINT('',(-3.,-12.307260923635,-7.37928374285516));
#1929=CARTESIAN_POINT('',(-3.,-10.3966349724322,-6.00250000000001));
#1930=CARTESIAN_POINT('',(-3.,-10.714085561917,-8.336005972402));
#1931=CARTESIAN_POINT('',(-3.,-10.3966349724322,-6.00250000000001));
#1932=CARTESIAN_POINT('',(-3.,-8.35714514651982,-4.82500000000001));
#1933=CARTESIAN_POINT('',(-3.,0.,0.));
#1934=CARTESIAN_POINT('',(0.,0.,0.));
#1935=CARTESIAN_POINT('',(3.,0.,0.));
#1936=CARTESIAN_POINT('',(3.,6.96875873944389,-12.5442776448636));
#1937=CARTESIAN_POINT('',(3.,0.237016721228565,-14.348042482299));
#1938=CARTESIAN_POINT('',(0.,6.96875873944389,-12.5442776448636));
#1939=CARTESIAN_POINT('',(-3.,6.96875873944389,-12.5442776448636));
#1940=CARTESIAN_POINT('',(-3.,0.,0.));
#1941=CARTESIAN_POINT('',(-3.,0.237016721228565,-14.348042482299));
#1942=CARTESIAN_POINT('',(0.,0.237016721228565,-14.348042482299));
#1943=CARTESIAN_POINT('',(3.,0.,13.575));
#1944=CARTESIAN_POINT('',(3.,3.8611024818736E-15,-12.005));
#1945=CARTESIAN_POINT('',(3.,1.86215015724043,-13.4466732611412));
#1946=CARTESIAN_POINT('',(3.,0.,0.));
#1947=CARTESIAN_POINT('',(3.,5.1106672887392,-12.5762357191574));
#1948=CARTESIAN_POINT('',(3.,6.0025,-10.3966349724322));
#1949=CARTESIAN_POINT('',(-3.,0.,13.575));
#1950=CARTESIAN_POINT('',(-3.,0.,0.));
#1951=CARTESIAN_POINT('',(-3.,5.1106672887392,-12.5762357191574));
#1952=CARTESIAN_POINT('',(-3.,1.86215015724043,-13.4466732611412));
#1953=CARTESIAN_POINT('',(-3.,3.8611024818736E-15,-12.005));
#1954=CARTESIAN_POINT('',(-3.,6.0025,-10.3966349724322));
#1955=CARTESIAN_POINT('',(3.,4.825,-8.35714514651983));
#1956=CARTESIAN_POINT('',(3.,0.,0.));
#1957=CARTESIAN_POINT('',(3.,8.33600597240199,-10.714085561917));
#1958=CARTESIAN_POINT('',(3.,6.0025,-10.3966349724322));
#1959=CARTESIAN_POINT('',(-11.0084529151306,6.0025,-10.3966349724322));
#1960=CARTESIAN_POINT('',(3.,6.0025,-10.3966349724322));
#1961=CARTESIAN_POINT('',(3.,7.37928374285515,-12.307260923635));
#1962=CARTESIAN_POINT('',(0.,7.37928374285515,-12.307260923635));
#1963=CARTESIAN_POINT('',(-3.,7.37928374285515,-12.307260923635));
#1964=CARTESIAN_POINT('',(-3.,6.0025,-10.3966349724322));
#1965=CARTESIAN_POINT('',(-3.,8.33600597240199,-10.714085561917));
#1966=CARTESIAN_POINT('',(-3.,6.0025,-10.3966349724322));
#1967=CARTESIAN_POINT('',(-3.,4.825,-8.35714514651983));
#1968=CARTESIAN_POINT('',(-3.,0.,0.));
#1969=CARTESIAN_POINT('',(3.,8.35714514651983,4.825));
#1970=CARTESIAN_POINT('',(3.,0.,0.));
#1971=CARTESIAN_POINT('',(3.,10.714085561917,8.33600597240199));
#1972=CARTESIAN_POINT('',(3.,12.5762357191574,5.1106672887392));
#1973=CARTESIAN_POINT('',(3.,10.3966349724322,6.0025));
#1974=CARTESIAN_POINT('',(-11.0084529151306,10.3966349724322,6.0025));
#1975=CARTESIAN_POINT('',(0.,12.5442776448636,6.96875873944389));
#1976=CARTESIAN_POINT('',(3.,12.5442776448636,6.96875873944389));
#1977=CARTESIAN_POINT('',(-3.,12.5442776448636,6.96875873944389));
#1978=CARTESIAN_POINT('',(3.,10.3966349724322,6.0025));
#1979=CARTESIAN_POINT('',(3.,10.3966349724322,6.0025));
#1980=CARTESIAN_POINT('',(3.,12.307260923635,7.37928374285515));
#1981=CARTESIAN_POINT('',(0.,12.307260923635,7.37928374285515));
#1982=CARTESIAN_POINT('',(-3.,12.307260923635,7.37928374285515));
#1983=CARTESIAN_POINT('',(-3.,10.3966349724322,6.0025));
#1984=CARTESIAN_POINT('',(-3.,10.714085561917,8.33600597240199));
#1985=CARTESIAN_POINT('',(-3.,10.3966349724322,6.0025));
#1986=CARTESIAN_POINT('',(-3.,12.5762357191574,5.1106672887392));
#1987=CARTESIAN_POINT('',(-3.,10.3966349724322,6.0025));
#1988=CARTESIAN_POINT('',(-3.,8.35714514651983,4.825));
#1989=CARTESIAN_POINT('',(-3.,0.,0.));
#1990=CARTESIAN_POINT('',(0.,0.,0.));
#1991=CARTESIAN_POINT('',(3.,0.,0.));
#1992=CARTESIAN_POINT('',(3.,14.348042482299,0.237016721228558));
#1993=CARTESIAN_POINT('',(-3.,0.,0.));
#1994=CARTESIAN_POINT('',(-3.,14.348042482299,0.237016721228558));
#1995=CARTESIAN_POINT('',(0.,14.348042482299,0.237016721228558));
#1996=CARTESIAN_POINT('',(0.,0.,0.));
#1997=CARTESIAN_POINT('',(-3.,0.,0.));
#1998=CARTESIAN_POINT('',(-3.,7.37928374285514,12.307260923635));
#1999=CARTESIAN_POINT('',(3.,0.,0.));
#2000=CARTESIAN_POINT('',(3.,7.37928374285514,12.307260923635));
#2001=CARTESIAN_POINT('',(0.,7.37928374285514,12.307260923635));
#2002=CARTESIAN_POINT('',(3.,0.,13.575));
#2003=CARTESIAN_POINT('',(3.,0.,0.));
#2004=CARTESIAN_POINT('',(3.,13.4466732611412,1.86215015724042));
#2005=CARTESIAN_POINT('',(3.,12.005,-2.2052827235646E-15));
#2006=CARTESIAN_POINT('',(-3.,0.,13.575));
#2007=CARTESIAN_POINT('',(-3.,6.00249999999999,10.3966349724322));
#2008=CARTESIAN_POINT('',(-3.,8.33600597240198,10.714085561917));
#2009=CARTESIAN_POINT('',(-3.,0.,0.));
#2010=CARTESIAN_POINT('',(-3.,0.,13.575));
#2011=CARTESIAN_POINT('',(-3.,0.,0.));
#2012=CARTESIAN_POINT('',(-3.,13.4466732611412,1.86215015724042));
#2013=CARTESIAN_POINT('',(-3.,12.005,-2.2052827235646E-15));
#2014=CARTESIAN_POINT('',(0.,0.,0.));
#2015=CARTESIAN_POINT('',(3.,0.,0.));
#2016=CARTESIAN_POINT('',(3.,-6.96875873944391,12.5442776448636));
#2017=CARTESIAN_POINT('',(3.,-0.237016721228561,14.348042482299));
#2018=CARTESIAN_POINT('',(0.,-6.96875873944391,12.5442776448636));
#2019=CARTESIAN_POINT('',(-3.,-6.96875873944391,12.5442776448636));
#2020=CARTESIAN_POINT('',(-3.,0.,0.));
#2021=CARTESIAN_POINT('',(-3.,-0.237016721228561,14.348042482299));
#2022=CARTESIAN_POINT('',(0.,-0.237016721228561,14.348042482299));
#2023=CARTESIAN_POINT('',(3.,0.,13.575));
#2024=CARTESIAN_POINT('',(3.,0.,12.005));
#2025=CARTESIAN_POINT('',(3.,-1.86215015724042,13.4466732611412));
#2026=CARTESIAN_POINT('',(3.,0.,0.));
#2027=CARTESIAN_POINT('',(3.,-5.11066728873922,12.5762357191574));
#2028=CARTESIAN_POINT('',(3.,-6.00250000000001,10.3966349724322));
#2029=CARTESIAN_POINT('',(-3.,0.,13.575));
#2030=CARTESIAN_POINT('',(-3.,0.,0.));
#2031=CARTESIAN_POINT('',(-3.,-5.11066728873922,12.5762357191574));
#2032=CARTESIAN_POINT('',(-3.,-1.86215015724042,13.4466732611412));
#2033=CARTESIAN_POINT('',(-3.,0.,12.005));
#2034=CARTESIAN_POINT('',(-3.,-6.00250000000001,10.3966349724322));
#2035=CARTESIAN_POINT('',(3.,-4.82500000000001,8.35714514651982));
#2036=CARTESIAN_POINT('',(3.,0.,0.));
#2037=CARTESIAN_POINT('',(3.,-8.336005972402,10.714085561917));
#2038=CARTESIAN_POINT('',(3.,-6.00250000000001,10.3966349724322));
#2039=CARTESIAN_POINT('',(-11.0084529151306,-6.00250000000001,10.3966349724322));
#2040=CARTESIAN_POINT('',(3.,-6.00250000000001,10.3966349724322));
#2041=CARTESIAN_POINT('',(3.,-7.37928374285516,12.307260923635));
#2042=CARTESIAN_POINT('',(0.,-7.37928374285516,12.307260923635));
#2043=CARTESIAN_POINT('',(-3.,-7.37928374285516,12.307260923635));
#2044=CARTESIAN_POINT('',(-3.,-6.00250000000001,10.3966349724322));
#2045=CARTESIAN_POINT('',(-3.,-8.336005972402,10.714085561917));
#2046=CARTESIAN_POINT('',(-3.,-6.00250000000001,10.3966349724322));
#2047=CARTESIAN_POINT('',(-3.,-4.82500000000001,8.35714514651982));
#2048=CARTESIAN_POINT('',(-3.,0.,0.));
#2049=CARTESIAN_POINT('',(0.,0.,0.));
#2050=CARTESIAN_POINT('',(3.,0.,0.));
#2051=CARTESIAN_POINT('',(3.,-12.307260923635,7.37928374285514));
#2052=CARTESIAN_POINT('',(0.,-12.307260923635,7.37928374285514));
#2053=CARTESIAN_POINT('',(-3.,-12.307260923635,7.37928374285514));
#2054=CARTESIAN_POINT('',(-3.,0.,0.));
#2055=CARTESIAN_POINT('',(3.,0.,13.575));
#2056=CARTESIAN_POINT('',(3.,0.,0.));
#2057=CARTESIAN_POINT('',(3.,-10.714085561917,8.33600597240198));
#2058=CARTESIAN_POINT('',(3.,-10.3966349724322,6.00249999999999));
#2059=CARTESIAN_POINT('',(-3.,0.,13.575));
#2060=CARTESIAN_POINT('',(-3.,0.,0.));
#2061=CARTESIAN_POINT('',(-3.,-10.714085561917,8.33600597240198));
#2062=CARTESIAN_POINT('',(-3.,-10.3966349724322,6.00249999999999));
#2063=CARTESIAN_POINT('',(3.,-8.35714514651983,4.82499999999999));
#2064=CARTESIAN_POINT('',(3.,0.,0.));
#2065=CARTESIAN_POINT('',(3.,-12.5762357191574,5.11066728873919));
#2066=CARTESIAN_POINT('',(3.,-10.3966349724322,6.00249999999999));
#2067=CARTESIAN_POINT('',(-11.0084529151306,-10.3966349724322,6.00249999999999));
#2068=CARTESIAN_POINT('',(3.,-10.3966349724322,6.00249999999999));
#2069=CARTESIAN_POINT('',(3.,-12.5442776448636,6.96875873944388));
#2070=CARTESIAN_POINT('',(0.,-12.5442776448636,6.96875873944388));
#2071=CARTESIAN_POINT('',(-3.,-12.5442776448636,6.96875873944388));
#2072=CARTESIAN_POINT('',(-3.,-10.3966349724322,6.00249999999999));
#2073=CARTESIAN_POINT('',(-3.,-12.5762357191574,5.11066728873919));
#2074=CARTESIAN_POINT('',(-3.,-10.3966349724322,6.00249999999999));
#2075=CARTESIAN_POINT('',(-3.,-8.35714514651983,4.82499999999999));
#2076=CARTESIAN_POINT('',(-3.,0.,0.));
#2077=CARTESIAN_POINT('',(0.,0.,0.));
#2078=CARTESIAN_POINT('',(3.,0.,0.));
#2079=CARTESIAN_POINT('',(3.,-14.348042482299,0.237016721228546));
#2080=CARTESIAN_POINT('',(0.,-14.348042482299,0.237016721228546));
#2081=CARTESIAN_POINT('',(-3.,-14.348042482299,0.237016721228546));
#2082=CARTESIAN_POINT('',(-3.,0.,0.));
#2083=CARTESIAN_POINT('',(3.,0.,13.575));
#2084=CARTESIAN_POINT('',(3.,0.,0.));
#2085=CARTESIAN_POINT('',(3.,-13.4466732611412,1.86215015724041));
#2086=CARTESIAN_POINT('',(3.,-12.005,-1.25931331694368E-14));
#2087=CARTESIAN_POINT('',(-3.,0.,13.575));
#2088=CARTESIAN_POINT('',(-3.,0.,0.));
#2089=CARTESIAN_POINT('',(-3.,-13.4466732611412,1.86215015724041));
#2090=CARTESIAN_POINT('',(-3.,-12.005,-1.25931331694368E-14));
#2091=CARTESIAN_POINT('',(3.,-9.65,-1.01227601070442E-14));
#2092=CARTESIAN_POINT('',(3.,0.,0.));
#2093=CARTESIAN_POINT('',(3.,-12.005,-1.25931331694368E-14));
#2094=CARTESIAN_POINT('',(-11.0084529151306,-12.005,-1.25931331694368E-14));
#2095=CARTESIAN_POINT('',(-3.,-12.005,-1.25931331694368E-14));
#2096=CARTESIAN_POINT('',(-3.,-9.65,-1.01227601070442E-14));
#2097=CARTESIAN_POINT('',(-3.,0.,0.));
#2098=CARTESIAN_POINT('',(0.,0.,0.));
#2099=CARTESIAN_POINT('',(3.,0.,0.));
#2100=CARTESIAN_POINT('',(3.,-7.37928374285513,-12.307260923635));
#2101=CARTESIAN_POINT('',(0.,-7.37928374285513,-12.307260923635));
#2102=CARTESIAN_POINT('',(-3.,-7.37928374285513,-12.307260923635));
#2103=CARTESIAN_POINT('',(-3.,0.,0.));
#2104=CARTESIAN_POINT('',(3.,0.,13.575));
#2105=CARTESIAN_POINT('',(3.,0.,0.));
#2106=CARTESIAN_POINT('',(3.,-8.33600597240197,-10.714085561917));
#2107=CARTESIAN_POINT('',(3.,-6.00249999999999,-10.3966349724322));
#2108=CARTESIAN_POINT('',(-3.,0.,13.575));
#2109=CARTESIAN_POINT('',(-3.,0.,0.));
#2110=CARTESIAN_POINT('',(-3.,-8.33600597240197,-10.714085561917));
#2111=CARTESIAN_POINT('',(-3.,-6.00249999999999,-10.3966349724322));
#2112=CARTESIAN_POINT('',(3.,-4.82499999999999,-8.35714514651983));
#2113=CARTESIAN_POINT('',(3.,0.,0.));
#2114=CARTESIAN_POINT('',(3.,-5.11066728873919,-12.5762357191574));
#2115=CARTESIAN_POINT('',(3.,-6.00249999999999,-10.3966349724322));
#2116=CARTESIAN_POINT('',(-11.0084529151306,-6.00249999999999,-10.3966349724322));
#2117=CARTESIAN_POINT('',(3.,-6.00249999999999,-10.3966349724322));
#2118=CARTESIAN_POINT('',(3.,-6.96875873944388,-12.5442776448636));
#2119=CARTESIAN_POINT('',(0.,-6.96875873944388,-12.5442776448636));
#2120=CARTESIAN_POINT('',(-3.,-6.96875873944388,-12.5442776448636));
#2121=CARTESIAN_POINT('',(-3.,-6.00249999999999,-10.3966349724322));
#2122=CARTESIAN_POINT('',(-3.,-5.11066728873919,-12.5762357191574));
#2123=CARTESIAN_POINT('',(-3.,-6.00249999999999,-10.3966349724322));
#2124=CARTESIAN_POINT('',(-3.,-4.82499999999999,-8.35714514651983));
#2125=CARTESIAN_POINT('',(-3.,0.,0.));
#2126=CARTESIAN_POINT('',(0.,0.,0.));
#2127=CARTESIAN_POINT('',(3.,0.,0.));
#2128=CARTESIAN_POINT('',(3.,-0.237016721228556,-14.348042482299));
#2129=CARTESIAN_POINT('',(0.,-0.237016721228556,-14.348042482299));
#2130=CARTESIAN_POINT('',(-3.,-0.237016721228556,-14.348042482299));
#2131=CARTESIAN_POINT('',(-3.,0.,0.));
#2132=CARTESIAN_POINT('',(3.,0.,13.575));
#2133=CARTESIAN_POINT('',(3.,0.,0.));
#2134=CARTESIAN_POINT('',(3.,-1.86215015724042,-13.4466732611412));
#2135=CARTESIAN_POINT('',(3.,3.8611024818736E-15,-12.005));
#2136=CARTESIAN_POINT('',(-3.,0.,13.575));
#2137=CARTESIAN_POINT('',(-3.,0.,0.));
#2138=CARTESIAN_POINT('',(-3.,-1.86215015724042,-13.4466732611412));
#2139=CARTESIAN_POINT('',(-3.,3.8611024818736E-15,-12.005));
#2140=CARTESIAN_POINT('',(3.,3.10367671387591E-15,-9.65));
#2141=CARTESIAN_POINT('',(3.,0.,0.));
#2142=CARTESIAN_POINT('',(3.,3.8611024818736E-15,-12.005));
#2143=CARTESIAN_POINT('',(-11.0084529151306,3.8611024818736E-15,-12.005));
#2144=CARTESIAN_POINT('',(-3.,3.8611024818736E-15,-12.005));
#2145=CARTESIAN_POINT('',(-3.,3.10367671387591E-15,-9.65));
#2146=CARTESIAN_POINT('',(-3.,0.,0.));
#2147=CARTESIAN_POINT('',(0.,0.,0.));
#2148=CARTESIAN_POINT('',(3.,0.,0.));
#2149=CARTESIAN_POINT('',(3.,12.307260923635,-7.37928374285514));
#2150=CARTESIAN_POINT('',(0.,12.307260923635,-7.37928374285514));
#2151=CARTESIAN_POINT('',(-3.,12.307260923635,-7.37928374285514));
#2152=CARTESIAN_POINT('',(-3.,0.,0.));
#2153=CARTESIAN_POINT('',(3.,0.,13.575));
#2154=CARTESIAN_POINT('',(3.,0.,0.));
#2155=CARTESIAN_POINT('',(3.,10.714085561917,-8.33600597240198));
#2156=CARTESIAN_POINT('',(3.,10.3966349724322,-6.00249999999999));
#2157=CARTESIAN_POINT('',(-3.,0.,13.575));
#2158=CARTESIAN_POINT('',(-3.,0.,0.));
#2159=CARTESIAN_POINT('',(-3.,10.714085561917,-8.33600597240198));
#2160=CARTESIAN_POINT('',(-3.,10.3966349724322,-6.00249999999999));
#2161=CARTESIAN_POINT('',(3.,8.35714514651983,-4.82499999999999));
#2162=CARTESIAN_POINT('',(3.,0.,0.));
#2163=CARTESIAN_POINT('',(3.,12.5762357191574,-5.11066728873919));
#2164=CARTESIAN_POINT('',(3.,10.3966349724322,-6.00249999999999));
#2165=CARTESIAN_POINT('',(-11.0084529151306,10.3966349724322,-6.00249999999999));
#2166=CARTESIAN_POINT('',(3.,10.3966349724322,-6.00249999999999));
#2167=CARTESIAN_POINT('',(3.,12.5442776448636,-6.96875873944389));
#2168=CARTESIAN_POINT('',(0.,12.5442776448636,-6.96875873944389));
#2169=CARTESIAN_POINT('',(-3.,12.5442776448636,-6.96875873944389));
#2170=CARTESIAN_POINT('',(-3.,10.3966349724322,-6.00249999999999));
#2171=CARTESIAN_POINT('',(-3.,12.5762357191574,-5.11066728873919));
#2172=CARTESIAN_POINT('',(-3.,10.3966349724322,-6.00249999999999));
#2173=CARTESIAN_POINT('',(-3.,8.35714514651983,-4.82499999999999));
#2174=CARTESIAN_POINT('',(-3.,0.,0.));
#2175=CARTESIAN_POINT('',(0.,0.,0.));
#2176=CARTESIAN_POINT('',(3.,0.,0.));
#2177=CARTESIAN_POINT('',(3.,14.348042482299,-0.237016721228563));
#2178=CARTESIAN_POINT('',(0.,14.348042482299,-0.237016721228563));
#2179=CARTESIAN_POINT('',(-3.,14.348042482299,-0.237016721228563));
#2180=CARTESIAN_POINT('',(-3.,0.,0.));
#2181=CARTESIAN_POINT('',(3.,0.,13.575));
#2182=CARTESIAN_POINT('',(3.,0.,0.));
#2183=CARTESIAN_POINT('',(3.,13.4466732611412,-1.86215015724042));
#2184=CARTESIAN_POINT('',(3.,12.005,-2.2052827235646E-15));
#2185=CARTESIAN_POINT('',(-3.,0.,13.575));
#2186=CARTESIAN_POINT('',(-3.,0.,0.));
#2187=CARTESIAN_POINT('',(-3.,13.4466732611412,-1.86215015724042));
#2188=CARTESIAN_POINT('',(-3.,12.005,-2.2052827235646E-15));
#2189=CARTESIAN_POINT('',(3.,9.65,-1.77267624176579E-15));
#2190=CARTESIAN_POINT('',(3.,0.,0.));
#2191=CARTESIAN_POINT('',(3.,12.005,-2.2052827235646E-15));
#2192=CARTESIAN_POINT('',(-11.0084529151306,12.005,-2.2052827235646E-15));
#2193=CARTESIAN_POINT('',(-3.,12.005,-2.2052827235646E-15));
#2194=CARTESIAN_POINT('',(-3.,9.65,-1.77267624176579E-15));
#2195=CARTESIAN_POINT('',(-3.,0.,0.));
#2196=CARTESIAN_POINT('',(3.,0.,13.575));
#2197=CARTESIAN_POINT('',(3.,0.,0.));
#2198=CARTESIAN_POINT('',(3.,8.33600597240198,10.714085561917));
#2199=CARTESIAN_POINT('',(3.,6.00249999999999,10.3966349724322));
#2200=CARTESIAN_POINT('',(3.,4.82499999999999,8.35714514651983));
#2201=CARTESIAN_POINT('',(3.,0.,0.));
#2202=CARTESIAN_POINT('',(3.,5.11066728873919,12.5762357191574));
#2203=CARTESIAN_POINT('',(3.,6.00249999999999,10.3966349724322));
#2204=CARTESIAN_POINT('',(-11.0084529151306,6.00249999999999,10.3966349724322));
#2205=CARTESIAN_POINT('',(3.,6.00249999999999,10.3966349724322));
#2206=CARTESIAN_POINT('',(3.,6.96875873944389,12.5442776448636));
#2207=CARTESIAN_POINT('',(0.,6.96875873944389,12.5442776448636));
#2208=CARTESIAN_POINT('',(-3.,6.96875873944389,12.5442776448636));
#2209=CARTESIAN_POINT('',(-3.,6.00249999999999,10.3966349724322));
#2210=CARTESIAN_POINT('',(-3.,5.11066728873919,12.5762357191574));
#2211=CARTESIAN_POINT('',(-3.,6.00249999999999,10.3966349724322));
#2212=CARTESIAN_POINT('',(-3.,4.82499999999999,8.35714514651983));
#2213=CARTESIAN_POINT('',(-3.,0.,0.));
#2214=CARTESIAN_POINT('',(0.,0.,0.));
#2215=CARTESIAN_POINT('',(3.,0.,0.));
#2216=CARTESIAN_POINT('',(3.,0.237016721228561,14.348042482299));
#2217=CARTESIAN_POINT('',(0.,0.237016721228561,14.348042482299));
#2218=CARTESIAN_POINT('',(-3.,0.237016721228561,14.348042482299));
#2219=CARTESIAN_POINT('',(-3.,0.,0.));
#2220=CARTESIAN_POINT('',(-3.,0.,13.575));
#2221=CARTESIAN_POINT('',(-3.,0.,0.));
#2222=CARTESIAN_POINT('',(-3.,1.86215015724042,13.4466732611412));
#2223=CARTESIAN_POINT('',(-3.,0.,12.005));
#2224=CARTESIAN_POINT('',(0.,0.,0.));
#2225=CARTESIAN_POINT('',(5.5,0.,0.));
#2226=CARTESIAN_POINT('',(5.5,0.,13.575));
#2227=CARTESIAN_POINT('',(3.,0.,0.));
#2228=CARTESIAN_POINT('',(3.,1.86215015724042,13.4466732611412));
#2229=CARTESIAN_POINT('',(3.,0.,0.));
#2230=CARTESIAN_POINT('',(0.,0.,0.));
#2231=CARTESIAN_POINT('',(-5.5,0.,0.));
#2232=CARTESIAN_POINT('',(-5.5,0.,13.575));
#2233=CARTESIAN_POINT('',(-3.,0.,0.));
#2234=CARTESIAN_POINT('',(0.,0.,0.));
#2235=CARTESIAN_POINT('',(-4.9,0.,0.));
#2236=CARTESIAN_POINT('',(-4.9,0.,17.5));
#2237=CARTESIAN_POINT('',(4.9,0.,0.));
#2238=CARTESIAN_POINT('',(4.9,0.,-17.5));
#2239=CARTESIAN_POINT('',(5.5,0.,17.5));
#2240=CARTESIAN_POINT('',(5.5,0.,0.));
#2241=CARTESIAN_POINT('',(5.5,0.,-16.9));
#2242=CARTESIAN_POINT('',(-5.5,0.,17.5));
#2243=CARTESIAN_POINT('',(-5.5,0.,0.));
#2244=CARTESIAN_POINT('',(-5.5,0.,16.9));
#2245=CARTESIAN_POINT('',(3.,0.,13.575));
#2246=CARTESIAN_POINT('',(3.,0.,12.005));
#2247=CARTESIAN_POINT('',(3.,0.,9.65));
#2248=CARTESIAN_POINT('',(3.,0.,12.005));
#2249=CARTESIAN_POINT('',(-11.0084529151306,0.,12.005));
#2250=CARTESIAN_POINT('',(-3.,0.,12.005));
#2251=CARTESIAN_POINT('',(-3.,0.,9.65));
#2252=CARTESIAN_POINT('',(4.9,0.,0.));
#2253=CARTESIAN_POINT('',(-4.9,0.,0.));
#2254=MECHANICAL_DESIGN_GEOMETRIC_PRESENTATION_REPRESENTATION('',(#1173),
#2255);
#2255=(
GEOMETRIC_REPRESENTATION_CONTEXT(3)
GLOBAL_UNCERTAINTY_ASSIGNED_CONTEXT((#2256))
GLOBAL_UNIT_ASSIGNED_CONTEXT((#2259,#2258,#2257))
REPRESENTATION_CONTEXT(
'\X2\975E52A05F3A578B570667F16EDA5B508F74627F\X0\RNU\X2\578B\X0\ GBT28
3-2021','TOP_LEVEL_ASSEMBLY_PART')
);
#2256=UNCERTAINTY_MEASURE_WITH_UNIT(LENGTH_MEASURE(0.005),#2259,
'DISTANCE_ACCURACY_VALUE','Maximum Tolerance applied to model');
#2257=(
NAMED_UNIT(*)
SI_UNIT($,.STERADIAN.)
SOLID_ANGLE_UNIT()
);
#2258=(
NAMED_UNIT(*)
PLANE_ANGLE_UNIT()
SI_UNIT($,.RADIAN.)
);
#2259=(
LENGTH_UNIT()
NAMED_UNIT(*)
SI_UNIT(.MILLI.,.METRE.)
);
#2260=PRODUCT_DEFINITION_SHAPE('','',#2261);
#2261=PRODUCT_DEFINITION('','',#2263,#2262);
#2262=PRODUCT_DEFINITION_CONTEXT('',#2269,'design');
#2263=PRODUCT_DEFINITION_FORMATION_WITH_SPECIFIED_SOURCE('','',#2265,
 .NOT_KNOWN.);
#2264=PRODUCT_RELATED_PRODUCT_CATEGORY('','',(#2265));
#2265=PRODUCT('\X2\975E52A05F3A578B570667F16EDA5B508F74627F\X0\RNU\X2\578B\X0\ 
GBT283-2021','\X2\975E52A05F3A578B570667F16EDA5B508F74627F\X0\RNU\X2\578B\X0\ 
GBT283-2021','\X2\975E52A05F3A578B570667F16EDA5B508F74627F\X0\RNU\X2\578B\X0\ 
GBT283-2021',(#2267));
#2266=PRODUCT_CATEGORY('','');
#2267=PRODUCT_CONTEXT('',#2269,'mechanical');
#2268=APPLICATION_PROTOCOL_DEFINITION('international standard',
'automotive_design',2010,#2269);
#2269=APPLICATION_CONTEXT(
'core data for automotive mechanical design processes');
ENDSEC;
END-ISO-10303-21;
