ISO-10303-21;
HEADER;
/* Generated by software containing HOOPS Exchange Step
 * from HOOPS Exchange, Inc. (www.tiangong.cloud) 
 */

FILE_DESCRIPTION(
/* description */ ('Unknown'),
/* implementation_level */ '2;1');

FILE_NAME(
/* name */ 'tmpE964.tmp',
/* time_stamp */ '2025-01-06T14:06:09+08:00',
/* author */ ('Unknown'),
/* organization */ ('Unknown'),
/* preprocessor_version */ 'ST-DEVELOPER v18.104',
/* originating_system */ 'TianGong',
/* authorisation */ 'Unknown');

FILE_SCHEMA (('AUTOMOTIVE_DESIGN {1 0 10303 214 3 1 1}'));
ENDSEC;

DATA;
#10=PROPERTY_DEFINITION_REPRESENTATION(#14,#12);
#11=PROPERTY_DEFINITION_REPRESENTATION(#15,#13);
#12=REPRESENTATION('',(#16),#1387);
#13=REPRESENTATION('',(#17),#1387);
#14=PROPERTY_DEFINITION('pmi validation property','',#1392);
#15=PROPERTY_DEFINITION('pmi validation property','',#1392);
#16=VALUE_REPRESENTATION_ITEM('number of annotations',COUNT_MEASURE(0.));
#17=VALUE_REPRESENTATION_ITEM('number of views',COUNT_MEASURE(0.));
#18=SHAPE_REPRESENTATION_RELATIONSHIP('','',#805,#19);
#19=ADVANCED_BREP_SHAPE_REPRESENTATION('',(#802,#803),#1387);
#20=CONICAL_SURFACE('',#861,3.7,0.785398163397445);
#21=(
BOUNDED_SURFACE()
B_SPLINE_SURFACE(3,2,((#1282,#1283,#1284),(#1285,#1286,#1287),(#1288,#1289,
#1290),(#1291,#1292,#1293),(#1294,#1295,#1296)),.UNSPECIFIED.,.F.,.F.,.F.)
B_SPLINE_SURFACE_WITH_KNOTS((4,1,4),(3,3),(0.00159026526386844,0.00723789069396122,
0.012885516124054),(0.,1.),.UNSPECIFIED.)
GEOMETRIC_REPRESENTATION_ITEM()
RATIONAL_B_SPLINE_SURFACE(((1.,0.730103224135451,1.),(1.,0.768494365260959,
1.),(1.,0.871793265119037,1.),(1.,0.999999999904903,1.),(1.,1.,1.)))
REPRESENTATION_ITEM('')
SURFACE()
);
#22=(
BOUNDED_SURFACE()
B_SPLINE_SURFACE(3,2,((#1312,#1313,#1314),(#1315,#1316,#1317),(#1318,#1319,
#1320),(#1321,#1322,#1323),(#1324,#1325,#1326)),.UNSPECIFIED.,.F.,.F.,.F.)
B_SPLINE_SURFACE_WITH_KNOTS((4,1,4),(3,3),(0.00154912358687599,0.00722508672582421,
0.0129010498647724),(0.,1.),.UNSPECIFIED.)
GEOMETRIC_REPRESENTATION_ITEM()
RATIONAL_B_SPLINE_SURFACE(((1.,0.722829692825482,1.),(1.,0.763468218010097,
1.),(1.,0.867842878244981,1.),(1.,0.999999999240239,1.),(1.,1.,1.)))
REPRESENTATION_ITEM('')
SURFACE()
);
#23=(
BOUNDED_SURFACE()
B_SPLINE_SURFACE(3,2,((#1327,#1328,#1329),(#1330,#1331,#1332),(#1333,#1334,
#1335),(#1336,#1337,#1338),(#1339,#1340,#1341)),.UNSPECIFIED.,.F.,.F.,.F.)
B_SPLINE_SURFACE_WITH_KNOTS((4,1,4),(3,3),(0.0015902652638681,0.00723789069396097,
0.0128855161240538),(0.,1.),.UNSPECIFIED.)
GEOMETRIC_REPRESENTATION_ITEM()
RATIONAL_B_SPLINE_SURFACE(((1.,0.730103224135444,1.),(1.,0.76849436527506,
1.),(1.,0.871793265111984,1.),(1.,0.999999999904903,1.),(1.,1.,1.)))
REPRESENTATION_ITEM('')
SURFACE()
);
#24=(
BOUNDED_SURFACE()
B_SPLINE_SURFACE(3,2,((#1357,#1358,#1359),(#1360,#1361,#1362),(#1363,#1364,
#1365),(#1366,#1367,#1368),(#1369,#1370,#1371)),.UNSPECIFIED.,.F.,.F.,.F.)
B_SPLINE_SURFACE_WITH_KNOTS((4,1,4),(3,3),(0.0015491235868759,0.0072250867258241,
0.0129010498647723),(0.,1.),.UNSPECIFIED.)
GEOMETRIC_REPRESENTATION_ITEM()
RATIONAL_B_SPLINE_SURFACE(((1.,0.722829692825486,1.),(1.,0.763468218013463,
1.),(1.,0.8678428782433,1.),(1.,0.999999999240239,1.),(1.,1.,1.)))
REPRESENTATION_ITEM('')
SURFACE()
);
#25=B_SPLINE_CURVE_WITH_KNOTS('',3,(#1135,#1136,#1137,#1138,#1139),
 .UNSPECIFIED.,.F.,.F.,(4,1,4),(-1.45615175358481E-5,0.00557817690395989,
0.0111709153254556),.UNSPECIFIED.);
#26=B_SPLINE_CURVE_WITH_KNOTS('',3,(#1141,#1142,#1143,#1144),
 .UNSPECIFIED.,.F.,.F.,(4,4),(0.,1.18325038216967E-5),.UNSPECIFIED.);
#27=B_SPLINE_CURVE_WITH_KNOTS('',3,(#1145,#1146,#1147,#1148),
 .UNSPECIFIED.,.F.,.F.,(4,4),(0.,2.03289049137996E-5),.UNSPECIFIED.);
#28=B_SPLINE_CURVE_WITH_KNOTS('',3,(#1150,#1151,#1152,#1153,#1154),
 .UNSPECIFIED.,.F.,.F.,(4,1,4),(4.26829873178053E-6,0.00558496110251331,
0.0111656539062948),.UNSPECIFIED.);
#29=B_SPLINE_CURVE_WITH_KNOTS('',3,(#1167,#1168,#1169,#1170),
 .UNSPECIFIED.,.F.,.F.,(4,4),(-1.43863092805456E-5,0.0112167718888779),
 .UNSPECIFIED.);
#30=B_SPLINE_CURVE_WITH_KNOTS('',3,(#1173,#1174,#1175,#1176),
 .UNSPECIFIED.,.F.,.F.,(4,4),(2.60208521396521E-18,2.73981301711425E-5),
 .UNSPECIFIED.);
#31=B_SPLINE_CURVE_WITH_KNOTS('',3,(#1177,#1178,#1179,#1180),
 .UNSPECIFIED.,.F.,.F.,(4,4),(0.,1.62775894919861E-5),.UNSPECIFIED.);
#32=B_SPLINE_CURVE_WITH_KNOTS('',3,(#1182,#1183,#1184,#1185),
 .UNSPECIFIED.,.F.,.F.,(4,4),(8.69136570348184E-6,0.0112972218044679),
 .UNSPECIFIED.);
#33=B_SPLINE_CURVE_WITH_KNOTS('',3,(#1225,#1226,#1227,#1228,#1229),
 .UNSPECIFIED.,.F.,.F.,(4,1,4),(-1.45615175358031E-5,0.00557817690395993,
0.0111709153254557),.UNSPECIFIED.);
#34=B_SPLINE_CURVE_WITH_KNOTS('',3,(#1231,#1232,#1233,#1234),
 .UNSPECIFIED.,.F.,.F.,(4,4),(0.,1.18325038216926E-5),.UNSPECIFIED.);
#35=B_SPLINE_CURVE_WITH_KNOTS('',3,(#1235,#1236,#1237,#1238),
 .UNSPECIFIED.,.F.,.F.,(4,4),(0.,2.03289049137994E-5),.UNSPECIFIED.);
#36=B_SPLINE_CURVE_WITH_KNOTS('',3,(#1240,#1241,#1242,#1243,#1244),
 .UNSPECIFIED.,.F.,.F.,(4,1,4),(4.26829873178349E-6,0.00558496110251331,
0.0111656539062948),.UNSPECIFIED.);
#37=B_SPLINE_CURVE_WITH_KNOTS('',3,(#1257,#1258,#1259,#1260),
 .UNSPECIFIED.,.F.,.F.,(4,4),(0.,1.62775894920027E-5),.UNSPECIFIED.);
#38=B_SPLINE_CURVE_WITH_KNOTS('',3,(#1262,#1263,#1264,#1265),
 .UNSPECIFIED.,.F.,.F.,(4,4),(8.69136570354513E-6,0.0112972218044679),
 .UNSPECIFIED.);
#39=B_SPLINE_CURVE_WITH_KNOTS('',3,(#1267,#1268,#1269,#1270),
 .UNSPECIFIED.,.F.,.F.,(4,4),(-1.43863092805431E-5,0.0112167718888777),
 .UNSPECIFIED.);
#40=B_SPLINE_CURVE_WITH_KNOTS('',3,(#1272,#1273,#1274,#1275),
 .UNSPECIFIED.,.F.,.F.,(4,4),(0.,2.73981301712864E-5),.UNSPECIFIED.);
#41=B_SPLINE_CURVE_WITH_KNOTS('',3,(#1297,#1298,#1299,#1300,#1301),
 .UNSPECIFIED.,.F.,.F.,(4,1,4),(2.60208521396521E-18,0.000235923311860339,
0.000471846623720676),.UNSPECIFIED.);
#42=B_SPLINE_CURVE_WITH_KNOTS('',3,(#1307,#1308,#1309,#1310,#1311),
 .UNSPECIFIED.,.F.,.F.,(4,1,4),(1.78811203067275E-18,0.000235703781621845,
0.000471407563243688),.UNSPECIFIED.);
#43=B_SPLINE_CURVE_WITH_KNOTS('',3,(#1342,#1343,#1344,#1345,#1346),
 .UNSPECIFIED.,.F.,.F.,(4,1,4),(4.09133713542521E-18,0.000234074695219186,
0.000468149390438368),.UNSPECIFIED.);
#44=B_SPLINE_CURVE_WITH_KNOTS('',3,(#1352,#1353,#1354,#1355,#1356),
 .UNSPECIFIED.,.F.,.F.,(4,1,4),(1.78811203067275E-18,0.000235703781621818,
0.000471407563243634),.UNSPECIFIED.);
#45=B_SPLINE_SURFACE_WITH_KNOTS('',3,1,((#1096,#1097),(#1098,#1099),(#1100,
#1101),(#1102,#1103),(#1104,#1105),(#1106,#1107),(#1108,#1109),(#1110,#1111),
(#1112,#1113),(#1114,#1115),(#1116,#1117),(#1118,#1119),(#1120,#1121),(#1122,
#1123),(#1124,#1125),(#1126,#1127),(#1128,#1129),(#1130,#1131)),
 .RULED_SURF.,.F.,.F.,.F.,(4,2,2,2,2,2,2,2,4),(2,2),(0.,0.125,0.25,0.375,
0.5,0.625,0.75,0.875,1.),(0.,1.),.UNSPECIFIED.);
#46=B_SPLINE_SURFACE_WITH_KNOTS('',3,1,((#1155,#1156),(#1157,#1158),(#1159,
#1160),(#1161,#1162),(#1163,#1164),(#1165,#1166)),.RULED_SURF.,.F.,.F.,
 .F.,(4,2,4),(2,2),(0.,0.5,1.),(0.,1.),.UNSPECIFIED.);
#47=B_SPLINE_SURFACE_WITH_KNOTS('',3,1,((#1187,#1188),(#1189,#1190),(#1191,
#1192),(#1193,#1194),(#1195,#1196),(#1197,#1198),(#1199,#1200),(#1201,#1202),
(#1203,#1204),(#1205,#1206),(#1207,#1208),(#1209,#1210),(#1211,#1212),(#1213,
#1214),(#1215,#1216),(#1217,#1218),(#1219,#1220),(#1221,#1222)),
 .RULED_SURF.,.F.,.F.,.F.,(4,2,2,2,2,2,2,2,4),(2,2),(0.,0.125,0.25,0.375,
0.5,0.625,0.75,0.875,1.),(0.,1.),.UNSPECIFIED.);
#48=B_SPLINE_SURFACE_WITH_KNOTS('',3,1,((#1245,#1246),(#1247,#1248),(#1249,
#1250),(#1251,#1252),(#1253,#1254),(#1255,#1256)),.RULED_SURF.,.F.,.F.,
 .F.,(4,2,4),(2,2),(0.,0.5,1.),(0.,1.),.UNSPECIFIED.);
#49=LINE('',#1055,#63);
#50=LINE('',#1058,#64);
#51=LINE('',#1060,#65);
#52=LINE('',#1062,#66);
#53=LINE('',#1064,#67);
#54=LINE('',#1070,#68);
#55=LINE('',#1073,#69);
#56=LINE('',#1074,#70);
#57=LINE('',#1079,#71);
#58=LINE('',#1082,#72);
#59=LINE('',#1086,#73);
#60=LINE('',#1088,#74);
#61=LINE('',#1091,#75);
#62=LINE('',#1095,#76);
#63=VECTOR('',#925,1000.);
#64=VECTOR('',#926,1000.);
#65=VECTOR('',#927,1000.);
#66=VECTOR('',#928,1000.);
#67=VECTOR('',#931,1000.);
#68=VECTOR('',#938,1000.);
#69=VECTOR('',#939,1000.);
#70=VECTOR('',#940,1000.);
#71=VECTOR('',#947,1000.);
#72=VECTOR('',#948,1000.);
#73=VECTOR('',#951,1000.);
#74=VECTOR('',#954,1000.);
#75=VECTOR('',#955,1000.);
#76=VECTOR('',#958,1000.);
#77=TOROIDAL_SURFACE('',#824,7.7,0.3);
#78=TOROIDAL_SURFACE('',#826,7.7,0.3);
#79=TOROIDAL_SURFACE('',#828,4.3,0.3);
#80=TOROIDAL_SURFACE('',#829,4.3,0.3);
#81=TOROIDAL_SURFACE('',#853,12.2,0.3);
#82=TOROIDAL_SURFACE('',#858,12.2,0.3);
#83=CYLINDRICAL_SURFACE('',#821,4.);
#84=CYLINDRICAL_SURFACE('',#830,8.);
#85=CYLINDRICAL_SURFACE('',#833,12.5);
#86=CYLINDRICAL_SURFACE('',#837,8.);
#87=CYLINDRICAL_SURFACE('',#847,4.);
#88=CYLINDRICAL_SURFACE('',#851,0.3);
#89=CYLINDRICAL_SURFACE('',#855,0.3);
#90=CYLINDRICAL_SURFACE('',#856,0.3);
#91=CYLINDRICAL_SURFACE('',#860,0.3);
#92=CYLINDRICAL_SURFACE('',#864,1.5);
#93=CYLINDRICAL_SURFACE('',#868,1.);
#94=DEGENERATE_TOROIDAL_SURFACE('',#810,0.416666666666667,6.08333333333333,
 .T.);
#95=DEGENERATE_TOROIDAL_SURFACE('',#817,0.416666666666667,6.08333333333333,
 .T.);
#96=ORIENTED_EDGE('',*,*,#228,.T.);
#97=ORIENTED_EDGE('',*,*,#229,.T.);
#98=ORIENTED_EDGE('',*,*,#230,.T.);
#99=ORIENTED_EDGE('',*,*,#229,.F.);
#100=ORIENTED_EDGE('',*,*,#231,.T.);
#101=ORIENTED_EDGE('',*,*,#230,.F.);
#102=ORIENTED_EDGE('',*,*,#232,.T.);
#103=ORIENTED_EDGE('',*,*,#233,.T.);
#104=ORIENTED_EDGE('',*,*,#234,.T.);
#105=ORIENTED_EDGE('',*,*,#233,.F.);
#106=ORIENTED_EDGE('',*,*,#235,.T.);
#107=ORIENTED_EDGE('',*,*,#234,.F.);
#108=ORIENTED_EDGE('',*,*,#236,.T.);
#109=ORIENTED_EDGE('',*,*,#237,.T.);
#110=ORIENTED_EDGE('',*,*,#238,.F.);
#111=ORIENTED_EDGE('',*,*,#231,.F.);
#112=ORIENTED_EDGE('',*,*,#232,.F.);
#113=ORIENTED_EDGE('',*,*,#239,.F.);
#114=ORIENTED_EDGE('',*,*,#228,.F.);
#115=ORIENTED_EDGE('',*,*,#237,.F.);
#116=ORIENTED_EDGE('',*,*,#236,.F.);
#117=ORIENTED_EDGE('',*,*,#235,.F.);
#118=ORIENTED_EDGE('',*,*,#240,.T.);
#119=ORIENTED_EDGE('',*,*,#239,.T.);
#120=ORIENTED_EDGE('',*,*,#241,.T.);
#121=ORIENTED_EDGE('',*,*,#242,.T.);
#122=ORIENTED_EDGE('',*,*,#243,.F.);
#123=ORIENTED_EDGE('',*,*,#244,.T.);
#124=ORIENTED_EDGE('',*,*,#245,.T.);
#125=ORIENTED_EDGE('',*,*,#246,.T.);
#126=ORIENTED_EDGE('',*,*,#241,.F.);
#127=ORIENTED_EDGE('',*,*,#247,.T.);
#128=ORIENTED_EDGE('',*,*,#248,.T.);
#129=ORIENTED_EDGE('',*,*,#249,.T.);
#130=ORIENTED_EDGE('',*,*,#245,.F.);
#131=ORIENTED_EDGE('',*,*,#250,.T.);
#132=ORIENTED_EDGE('',*,*,#238,.T.);
#133=ORIENTED_EDGE('',*,*,#251,.F.);
#134=ORIENTED_EDGE('',*,*,#251,.T.);
#135=ORIENTED_EDGE('',*,*,#252,.F.);
#136=ORIENTED_EDGE('',*,*,#253,.T.);
#137=ORIENTED_EDGE('',*,*,#254,.T.);
#138=ORIENTED_EDGE('',*,*,#255,.T.);
#139=ORIENTED_EDGE('',*,*,#240,.F.);
#140=ORIENTED_EDGE('',*,*,#256,.T.);
#141=ORIENTED_EDGE('',*,*,#257,.T.);
#142=ORIENTED_EDGE('',*,*,#258,.T.);
#143=ORIENTED_EDGE('',*,*,#259,.T.);
#144=ORIENTED_EDGE('',*,*,#260,.F.);
#145=ORIENTED_EDGE('',*,*,#261,.T.);
#146=ORIENTED_EDGE('',*,*,#262,.T.);
#147=ORIENTED_EDGE('',*,*,#252,.T.);
#148=ORIENTED_EDGE('',*,*,#263,.T.);
#149=ORIENTED_EDGE('',*,*,#264,.T.);
#150=ORIENTED_EDGE('',*,*,#265,.T.);
#151=ORIENTED_EDGE('',*,*,#266,.T.);
#152=ORIENTED_EDGE('',*,*,#248,.F.);
#153=ORIENTED_EDGE('',*,*,#267,.T.);
#154=ORIENTED_EDGE('',*,*,#268,.T.);
#155=ORIENTED_EDGE('',*,*,#269,.F.);
#156=ORIENTED_EDGE('',*,*,#270,.F.);
#157=ORIENTED_EDGE('',*,*,#271,.T.);
#158=ORIENTED_EDGE('',*,*,#272,.T.);
#159=ORIENTED_EDGE('',*,*,#256,.F.);
#160=ORIENTED_EDGE('',*,*,#273,.T.);
#161=ORIENTED_EDGE('',*,*,#274,.T.);
#162=ORIENTED_EDGE('',*,*,#275,.T.);
#163=ORIENTED_EDGE('',*,*,#276,.T.);
#164=ORIENTED_EDGE('',*,*,#277,.F.);
#165=ORIENTED_EDGE('',*,*,#278,.T.);
#166=ORIENTED_EDGE('',*,*,#279,.T.);
#167=ORIENTED_EDGE('',*,*,#243,.T.);
#168=ORIENTED_EDGE('',*,*,#280,.T.);
#169=ORIENTED_EDGE('',*,*,#260,.T.);
#170=ORIENTED_EDGE('',*,*,#277,.T.);
#171=ORIENTED_EDGE('',*,*,#270,.T.);
#172=ORIENTED_EDGE('',*,*,#269,.T.);
#173=ORIENTED_EDGE('',*,*,#281,.T.);
#174=ORIENTED_EDGE('',*,*,#278,.F.);
#175=ORIENTED_EDGE('',*,*,#264,.F.);
#176=ORIENTED_EDGE('',*,*,#282,.F.);
#177=ORIENTED_EDGE('',*,*,#263,.F.);
#178=ORIENTED_EDGE('',*,*,#255,.F.);
#179=ORIENTED_EDGE('',*,*,#283,.F.);
#180=ORIENTED_EDGE('',*,*,#244,.F.);
#181=ORIENTED_EDGE('',*,*,#279,.F.);
#182=ORIENTED_EDGE('',*,*,#282,.T.);
#183=ORIENTED_EDGE('',*,*,#283,.T.);
#184=ORIENTED_EDGE('',*,*,#254,.F.);
#185=ORIENTED_EDGE('',*,*,#284,.F.);
#186=ORIENTED_EDGE('',*,*,#247,.F.);
#187=ORIENTED_EDGE('',*,*,#253,.F.);
#188=ORIENTED_EDGE('',*,*,#262,.F.);
#189=ORIENTED_EDGE('',*,*,#285,.F.);
#190=ORIENTED_EDGE('',*,*,#267,.F.);
#191=ORIENTED_EDGE('',*,*,#250,.F.);
#192=ORIENTED_EDGE('',*,*,#284,.T.);
#193=ORIENTED_EDGE('',*,*,#285,.T.);
#194=ORIENTED_EDGE('',*,*,#261,.F.);
#195=ORIENTED_EDGE('',*,*,#268,.F.);
#196=ORIENTED_EDGE('',*,*,#265,.F.);
#197=ORIENTED_EDGE('',*,*,#274,.F.);
#198=ORIENTED_EDGE('',*,*,#286,.F.);
#199=ORIENTED_EDGE('',*,*,#273,.F.);
#200=ORIENTED_EDGE('',*,*,#259,.F.);
#201=ORIENTED_EDGE('',*,*,#287,.F.);
#202=ORIENTED_EDGE('',*,*,#249,.F.);
#203=ORIENTED_EDGE('',*,*,#266,.F.);
#204=ORIENTED_EDGE('',*,*,#286,.T.);
#205=ORIENTED_EDGE('',*,*,#287,.T.);
#206=ORIENTED_EDGE('',*,*,#258,.F.);
#207=ORIENTED_EDGE('',*,*,#288,.F.);
#208=ORIENTED_EDGE('',*,*,#246,.F.);
#209=ORIENTED_EDGE('',*,*,#257,.F.);
#210=ORIENTED_EDGE('',*,*,#272,.F.);
#211=ORIENTED_EDGE('',*,*,#289,.F.);
#212=ORIENTED_EDGE('',*,*,#275,.F.);
#213=ORIENTED_EDGE('',*,*,#242,.F.);
#214=ORIENTED_EDGE('',*,*,#288,.T.);
#215=ORIENTED_EDGE('',*,*,#289,.T.);
#216=ORIENTED_EDGE('',*,*,#271,.F.);
#217=ORIENTED_EDGE('',*,*,#276,.F.);
#218=ORIENTED_EDGE('',*,*,#280,.F.);
#219=ORIENTED_EDGE('',*,*,#281,.F.);
#220=ORIENTED_EDGE('',*,*,#290,.T.);
#221=ORIENTED_EDGE('',*,*,#291,.T.);
#222=ORIENTED_EDGE('',*,*,#290,.F.);
#223=ORIENTED_EDGE('',*,*,#292,.T.);
#224=ORIENTED_EDGE('',*,*,#291,.F.);
#225=ORIENTED_EDGE('',*,*,#293,.T.);
#226=ORIENTED_EDGE('',*,*,#292,.F.);
#227=ORIENTED_EDGE('',*,*,#293,.F.);
#228=EDGE_CURVE('',#294,#294,#342,.F.);
#229=EDGE_CURVE('',#295,#295,#343,.T.);
#230=EDGE_CURVE('',#296,#296,#344,.T.);
#231=EDGE_CURVE('',#297,#297,#345,.T.);
#232=EDGE_CURVE('',#298,#298,#346,.T.);
#233=EDGE_CURVE('',#299,#299,#347,.T.);
#234=EDGE_CURVE('',#300,#300,#348,.T.);
#235=EDGE_CURVE('',#301,#301,#349,.F.);
#236=EDGE_CURVE('',#302,#302,#350,.T.);
#237=EDGE_CURVE('',#303,#303,#351,.T.);
#238=EDGE_CURVE('',#304,#304,#352,.F.);
#239=EDGE_CURVE('',#305,#305,#353,.F.);
#240=EDGE_CURVE('',#306,#306,#354,.T.);
#241=EDGE_CURVE('',#307,#308,#49,.T.);
#242=EDGE_CURVE('',#308,#309,#50,.F.);
#243=EDGE_CURVE('',#310,#309,#51,.T.);
#244=EDGE_CURVE('',#310,#307,#52,.T.);
#245=EDGE_CURVE('',#311,#312,#53,.T.);
#246=EDGE_CURVE('',#312,#308,#355,.F.);
#247=EDGE_CURVE('',#307,#311,#356,.T.);
#248=EDGE_CURVE('',#313,#314,#54,.T.);
#249=EDGE_CURVE('',#314,#312,#55,.F.);
#250=EDGE_CURVE('',#311,#313,#56,.T.);
#251=EDGE_CURVE('',#315,#315,#357,.T.);
#252=EDGE_CURVE('',#316,#317,#57,.T.);
#253=EDGE_CURVE('',#316,#318,#58,.F.);
#254=EDGE_CURVE('',#318,#319,#358,.F.);
#255=EDGE_CURVE('',#319,#317,#59,.F.);
#256=EDGE_CURVE('',#320,#321,#60,.T.);
#257=EDGE_CURVE('',#321,#322,#61,.T.);
#258=EDGE_CURVE('',#322,#323,#359,.T.);
#259=EDGE_CURVE('',#323,#320,#62,.T.);
#260=EDGE_CURVE('',#324,#325,#360,.T.);
#261=EDGE_CURVE('',#324,#326,#25,.T.);
#262=EDGE_CURVE('',#326,#316,#26,.T.);
#263=EDGE_CURVE('',#317,#327,#27,.T.);
#264=EDGE_CURVE('',#327,#325,#28,.T.);
#265=EDGE_CURVE('',#328,#329,#29,.T.);
#266=EDGE_CURVE('',#329,#314,#30,.T.);
#267=EDGE_CURVE('',#313,#330,#31,.T.);
#268=EDGE_CURVE('',#330,#324,#32,.T.);
#269=EDGE_CURVE('',#328,#324,#361,.T.);
#270=EDGE_CURVE('',#331,#328,#362,.T.);
#271=EDGE_CURVE('',#331,#332,#33,.T.);
#272=EDGE_CURVE('',#332,#321,#34,.T.);
#273=EDGE_CURVE('',#320,#333,#35,.T.);
#274=EDGE_CURVE('',#333,#328,#36,.T.);
#275=EDGE_CURVE('',#309,#334,#37,.T.);
#276=EDGE_CURVE('',#334,#331,#38,.T.);
#277=EDGE_CURVE('',#325,#331,#363,.T.);
#278=EDGE_CURVE('',#325,#335,#39,.T.);
#279=EDGE_CURVE('',#335,#310,#40,.T.);
#280=EDGE_CURVE('',#336,#336,#364,.F.);
#281=EDGE_CURVE('',#337,#337,#365,.T.);
#282=EDGE_CURVE('',#335,#327,#41,.T.);
#283=EDGE_CURVE('',#307,#319,#366,.T.);
#284=EDGE_CURVE('',#311,#318,#367,.T.);
#285=EDGE_CURVE('',#330,#326,#42,.F.);
#286=EDGE_CURVE('',#329,#333,#43,.F.);
#287=EDGE_CURVE('',#312,#323,#368,.T.);
#288=EDGE_CURVE('',#308,#322,#369,.T.);
#289=EDGE_CURVE('',#334,#332,#44,.F.);
#290=EDGE_CURVE('',#338,#338,#370,.T.);
#291=EDGE_CURVE('',#339,#339,#371,.T.);
#292=EDGE_CURVE('',#340,#340,#372,.T.);
#293=EDGE_CURVE('',#341,#341,#373,.T.);
#294=VERTEX_POINT('',#1018);
#295=VERTEX_POINT('',#1020);
#296=VERTEX_POINT('',#1023);
#297=VERTEX_POINT('',#1026);
#298=VERTEX_POINT('',#1029);
#299=VERTEX_POINT('',#1031);
#300=VERTEX_POINT('',#1034);
#301=VERTEX_POINT('',#1037);
#302=VERTEX_POINT('',#1040);
#303=VERTEX_POINT('',#1042);
#304=VERTEX_POINT('',#1045);
#305=VERTEX_POINT('',#1048);
#306=VERTEX_POINT('',#1053);
#307=VERTEX_POINT('',#1056);
#308=VERTEX_POINT('',#1057);
#309=VERTEX_POINT('',#1059);
#310=VERTEX_POINT('',#1061);
#311=VERTEX_POINT('',#1065);
#312=VERTEX_POINT('',#1066);
#313=VERTEX_POINT('',#1071);
#314=VERTEX_POINT('',#1072);
#315=VERTEX_POINT('',#1077);
#316=VERTEX_POINT('',#1080);
#317=VERTEX_POINT('',#1081);
#318=VERTEX_POINT('',#1083);
#319=VERTEX_POINT('',#1085);
#320=VERTEX_POINT('',#1089);
#321=VERTEX_POINT('',#1090);
#322=VERTEX_POINT('',#1092);
#323=VERTEX_POINT('',#1094);
#324=VERTEX_POINT('',#1133);
#325=VERTEX_POINT('',#1134);
#326=VERTEX_POINT('',#1140);
#327=VERTEX_POINT('',#1149);
#328=VERTEX_POINT('',#1171);
#329=VERTEX_POINT('',#1172);
#330=VERTEX_POINT('',#1181);
#331=VERTEX_POINT('',#1224);
#332=VERTEX_POINT('',#1230);
#333=VERTEX_POINT('',#1239);
#334=VERTEX_POINT('',#1261);
#335=VERTEX_POINT('',#1271);
#336=VERTEX_POINT('',#1278);
#337=VERTEX_POINT('',#1281);
#338=VERTEX_POINT('',#1375);
#339=VERTEX_POINT('',#1378);
#340=VERTEX_POINT('',#1381);
#341=VERTEX_POINT('',#1384);
#342=CIRCLE('',#808,4.3);
#343=CIRCLE('',#809,4.99999999999999);
#344=CIRCLE('',#811,5.96256104399161);
#345=CIRCLE('',#813,7.7);
#346=CIRCLE('',#815,7.7);
#347=CIRCLE('',#816,5.96256104399161);
#348=CIRCLE('',#818,5.);
#349=CIRCLE('',#820,4.3);
#350=CIRCLE('',#822,4.);
#351=CIRCLE('',#823,4.);
#352=CIRCLE('',#825,8.);
#353=CIRCLE('',#827,8.);
#354=CIRCLE('',#831,8.);
#355=CIRCLE('',#834,12.5);
#356=CIRCLE('',#835,12.5);
#357=CIRCLE('',#838,8.);
#358=CIRCLE('',#840,12.2);
#359=CIRCLE('',#842,12.2);
#360=CIRCLE('',#843,4.);
#361=CIRCLE('',#844,4.);
#362=CIRCLE('',#845,4.);
#363=CIRCLE('',#846,4.);
#364=CIRCLE('',#848,4.);
#365=CIRCLE('',#850,3.7);
#366=CIRCLE('',#852,0.3);
#367=CIRCLE('',#854,0.3);
#368=CIRCLE('',#857,0.3);
#369=CIRCLE('',#859,0.3);
#370=CIRCLE('',#863,1.5);
#371=CIRCLE('',#865,1.5);
#372=CIRCLE('',#867,1.);
#373=CIRCLE('',#869,1.);
#374=EDGE_LOOP('',(#96));
#375=EDGE_LOOP('',(#97));
#376=EDGE_LOOP('',(#98));
#377=EDGE_LOOP('',(#99));
#378=EDGE_LOOP('',(#100));
#379=EDGE_LOOP('',(#101));
#380=EDGE_LOOP('',(#102));
#381=EDGE_LOOP('',(#103));
#382=EDGE_LOOP('',(#104));
#383=EDGE_LOOP('',(#105));
#384=EDGE_LOOP('',(#106));
#385=EDGE_LOOP('',(#107));
#386=EDGE_LOOP('',(#108));
#387=EDGE_LOOP('',(#109));
#388=EDGE_LOOP('',(#110));
#389=EDGE_LOOP('',(#111));
#390=EDGE_LOOP('',(#112));
#391=EDGE_LOOP('',(#113));
#392=EDGE_LOOP('',(#114));
#393=EDGE_LOOP('',(#115));
#394=EDGE_LOOP('',(#116));
#395=EDGE_LOOP('',(#117));
#396=EDGE_LOOP('',(#118));
#397=EDGE_LOOP('',(#119));
#398=EDGE_LOOP('',(#120,#121,#122,#123));
#399=EDGE_LOOP('',(#124,#125,#126,#127));
#400=EDGE_LOOP('',(#128,#129,#130,#131));
#401=EDGE_LOOP('',(#132));
#402=EDGE_LOOP('',(#133));
#403=EDGE_LOOP('',(#134));
#404=EDGE_LOOP('',(#135,#136,#137,#138));
#405=EDGE_LOOP('',(#139));
#406=EDGE_LOOP('',(#140,#141,#142,#143));
#407=EDGE_LOOP('',(#144,#145,#146,#147,#148,#149));
#408=EDGE_LOOP('',(#150,#151,#152,#153,#154,#155));
#409=EDGE_LOOP('',(#156,#157,#158,#159,#160,#161));
#410=EDGE_LOOP('',(#162,#163,#164,#165,#166,#167));
#411=EDGE_LOOP('',(#168));
#412=EDGE_LOOP('',(#169,#170,#171,#172));
#413=EDGE_LOOP('',(#173));
#414=EDGE_LOOP('',(#174,#175,#176));
#415=EDGE_LOOP('',(#177,#178,#179,#180,#181,#182));
#416=EDGE_LOOP('',(#183,#184,#185,#186));
#417=EDGE_LOOP('',(#187,#188,#189,#190,#191,#192));
#418=EDGE_LOOP('',(#193,#194,#195));
#419=EDGE_LOOP('',(#196,#197,#198));
#420=EDGE_LOOP('',(#199,#200,#201,#202,#203,#204));
#421=EDGE_LOOP('',(#205,#206,#207,#208));
#422=EDGE_LOOP('',(#209,#210,#211,#212,#213,#214));
#423=EDGE_LOOP('',(#215,#216,#217));
#424=EDGE_LOOP('',(#218));
#425=EDGE_LOOP('',(#219));
#426=EDGE_LOOP('',(#220));
#427=EDGE_LOOP('',(#221));
#428=EDGE_LOOP('',(#222));
#429=EDGE_LOOP('',(#223));
#430=EDGE_LOOP('',(#224));
#431=EDGE_LOOP('',(#225));
#432=EDGE_LOOP('',(#226));
#433=EDGE_LOOP('',(#227));
#434=FACE_BOUND('',#374,.T.);
#435=FACE_BOUND('',#375,.T.);
#436=FACE_BOUND('',#376,.T.);
#437=FACE_BOUND('',#377,.T.);
#438=FACE_BOUND('',#378,.T.);
#439=FACE_BOUND('',#379,.T.);
#440=FACE_BOUND('',#380,.T.);
#441=FACE_BOUND('',#381,.T.);
#442=FACE_BOUND('',#382,.T.);
#443=FACE_BOUND('',#383,.T.);
#444=FACE_BOUND('',#384,.T.);
#445=FACE_BOUND('',#385,.T.);
#446=FACE_BOUND('',#386,.T.);
#447=FACE_BOUND('',#387,.T.);
#448=FACE_BOUND('',#388,.T.);
#449=FACE_BOUND('',#389,.T.);
#450=FACE_BOUND('',#390,.T.);
#451=FACE_BOUND('',#391,.T.);
#452=FACE_BOUND('',#392,.T.);
#453=FACE_BOUND('',#393,.T.);
#454=FACE_BOUND('',#394,.T.);
#455=FACE_BOUND('',#395,.T.);
#456=FACE_BOUND('',#396,.T.);
#457=FACE_BOUND('',#397,.T.);
#458=FACE_BOUND('',#398,.T.);
#459=FACE_BOUND('',#399,.T.);
#460=FACE_BOUND('',#400,.T.);
#461=FACE_BOUND('',#401,.T.);
#462=FACE_BOUND('',#402,.T.);
#463=FACE_BOUND('',#403,.T.);
#464=FACE_BOUND('',#404,.T.);
#465=FACE_BOUND('',#405,.T.);
#466=FACE_BOUND('',#406,.T.);
#467=FACE_BOUND('',#407,.T.);
#468=FACE_BOUND('',#408,.T.);
#469=FACE_BOUND('',#409,.T.);
#470=FACE_BOUND('',#410,.T.);
#471=FACE_BOUND('',#411,.T.);
#472=FACE_BOUND('',#412,.T.);
#473=FACE_BOUND('',#413,.T.);
#474=FACE_BOUND('',#414,.T.);
#475=FACE_BOUND('',#415,.T.);
#476=FACE_BOUND('',#416,.T.);
#477=FACE_BOUND('',#417,.T.);
#478=FACE_BOUND('',#418,.T.);
#479=FACE_BOUND('',#419,.T.);
#480=FACE_BOUND('',#420,.T.);
#481=FACE_BOUND('',#421,.T.);
#482=FACE_BOUND('',#422,.T.);
#483=FACE_BOUND('',#423,.T.);
#484=FACE_BOUND('',#424,.T.);
#485=FACE_BOUND('',#425,.T.);
#486=FACE_BOUND('',#426,.T.);
#487=FACE_BOUND('',#427,.T.);
#488=FACE_BOUND('',#428,.T.);
#489=FACE_BOUND('',#429,.T.);
#490=FACE_BOUND('',#430,.T.);
#491=FACE_BOUND('',#431,.T.);
#492=FACE_BOUND('',#432,.T.);
#493=FACE_BOUND('',#433,.T.);
#494=PLANE('',#807);
#495=PLANE('',#812);
#496=PLANE('',#814);
#497=PLANE('',#819);
#498=PLANE('',#832);
#499=PLANE('',#836);
#500=PLANE('',#839);
#501=PLANE('',#841);
#502=PLANE('',#849);
#503=PLANE('',#862);
#504=PLANE('',#866);
#505=PLANE('',#870);
#506=STYLED_ITEM('',(#542),#760);
#507=STYLED_ITEM('',(#543),#761);
#508=STYLED_ITEM('',(#544),#762);
#509=STYLED_ITEM('',(#545),#763);
#510=STYLED_ITEM('',(#546),#764);
#511=STYLED_ITEM('',(#547),#765);
#512=STYLED_ITEM('',(#548),#766);
#513=STYLED_ITEM('',(#549),#767);
#514=STYLED_ITEM('',(#550),#768);
#515=STYLED_ITEM('',(#551),#769);
#516=STYLED_ITEM('',(#552),#770);
#517=STYLED_ITEM('',(#553),#771);
#518=STYLED_ITEM('',(#554),#772);
#519=STYLED_ITEM('',(#555),#773);
#520=STYLED_ITEM('',(#556),#774);
#521=STYLED_ITEM('',(#557),#775);
#522=STYLED_ITEM('',(#558),#776);
#523=STYLED_ITEM('',(#559),#777);
#524=STYLED_ITEM('',(#560),#778);
#525=STYLED_ITEM('',(#561),#779);
#526=STYLED_ITEM('',(#562),#780);
#527=STYLED_ITEM('',(#563),#781);
#528=STYLED_ITEM('',(#564),#782);
#529=STYLED_ITEM('',(#565),#783);
#530=STYLED_ITEM('',(#566),#784);
#531=STYLED_ITEM('',(#567),#785);
#532=STYLED_ITEM('',(#568),#786);
#533=STYLED_ITEM('',(#569),#787);
#534=STYLED_ITEM('',(#570),#788);
#535=STYLED_ITEM('',(#571),#789);
#536=STYLED_ITEM('',(#572),#790);
#537=STYLED_ITEM('',(#573),#791);
#538=STYLED_ITEM('',(#574),#792);
#539=STYLED_ITEM('',(#575),#793);
#540=STYLED_ITEM('',(#576),#794);
#541=STYLED_ITEM('',(#577),#803);
#542=PRESENTATION_STYLE_ASSIGNMENT((#578));
#543=PRESENTATION_STYLE_ASSIGNMENT((#579));
#544=PRESENTATION_STYLE_ASSIGNMENT((#580));
#545=PRESENTATION_STYLE_ASSIGNMENT((#581));
#546=PRESENTATION_STYLE_ASSIGNMENT((#582));
#547=PRESENTATION_STYLE_ASSIGNMENT((#583));
#548=PRESENTATION_STYLE_ASSIGNMENT((#584));
#549=PRESENTATION_STYLE_ASSIGNMENT((#585));
#550=PRESENTATION_STYLE_ASSIGNMENT((#586));
#551=PRESENTATION_STYLE_ASSIGNMENT((#587));
#552=PRESENTATION_STYLE_ASSIGNMENT((#588));
#553=PRESENTATION_STYLE_ASSIGNMENT((#589));
#554=PRESENTATION_STYLE_ASSIGNMENT((#590));
#555=PRESENTATION_STYLE_ASSIGNMENT((#591));
#556=PRESENTATION_STYLE_ASSIGNMENT((#592));
#557=PRESENTATION_STYLE_ASSIGNMENT((#593));
#558=PRESENTATION_STYLE_ASSIGNMENT((#594));
#559=PRESENTATION_STYLE_ASSIGNMENT((#595));
#560=PRESENTATION_STYLE_ASSIGNMENT((#596));
#561=PRESENTATION_STYLE_ASSIGNMENT((#597));
#562=PRESENTATION_STYLE_ASSIGNMENT((#598));
#563=PRESENTATION_STYLE_ASSIGNMENT((#599));
#564=PRESENTATION_STYLE_ASSIGNMENT((#600));
#565=PRESENTATION_STYLE_ASSIGNMENT((#601));
#566=PRESENTATION_STYLE_ASSIGNMENT((#602));
#567=PRESENTATION_STYLE_ASSIGNMENT((#603));
#568=PRESENTATION_STYLE_ASSIGNMENT((#604));
#569=PRESENTATION_STYLE_ASSIGNMENT((#605));
#570=PRESENTATION_STYLE_ASSIGNMENT((#606));
#571=PRESENTATION_STYLE_ASSIGNMENT((#607));
#572=PRESENTATION_STYLE_ASSIGNMENT((#608));
#573=PRESENTATION_STYLE_ASSIGNMENT((#609));
#574=PRESENTATION_STYLE_ASSIGNMENT((#610));
#575=PRESENTATION_STYLE_ASSIGNMENT((#611));
#576=PRESENTATION_STYLE_ASSIGNMENT((#612));
#577=PRESENTATION_STYLE_ASSIGNMENT((#613));
#578=SURFACE_STYLE_USAGE(.BOTH.,#614);
#579=SURFACE_STYLE_USAGE(.BOTH.,#615);
#580=SURFACE_STYLE_USAGE(.BOTH.,#616);
#581=SURFACE_STYLE_USAGE(.BOTH.,#617);
#582=SURFACE_STYLE_USAGE(.BOTH.,#618);
#583=SURFACE_STYLE_USAGE(.BOTH.,#619);
#584=SURFACE_STYLE_USAGE(.BOTH.,#620);
#585=SURFACE_STYLE_USAGE(.BOTH.,#621);
#586=SURFACE_STYLE_USAGE(.BOTH.,#622);
#587=SURFACE_STYLE_USAGE(.BOTH.,#623);
#588=SURFACE_STYLE_USAGE(.BOTH.,#624);
#589=SURFACE_STYLE_USAGE(.BOTH.,#625);
#590=SURFACE_STYLE_USAGE(.BOTH.,#626);
#591=SURFACE_STYLE_USAGE(.BOTH.,#627);
#592=SURFACE_STYLE_USAGE(.BOTH.,#628);
#593=SURFACE_STYLE_USAGE(.BOTH.,#629);
#594=SURFACE_STYLE_USAGE(.BOTH.,#630);
#595=SURFACE_STYLE_USAGE(.BOTH.,#631);
#596=SURFACE_STYLE_USAGE(.BOTH.,#632);
#597=SURFACE_STYLE_USAGE(.BOTH.,#633);
#598=SURFACE_STYLE_USAGE(.BOTH.,#634);
#599=SURFACE_STYLE_USAGE(.BOTH.,#635);
#600=SURFACE_STYLE_USAGE(.BOTH.,#636);
#601=SURFACE_STYLE_USAGE(.BOTH.,#637);
#602=SURFACE_STYLE_USAGE(.BOTH.,#638);
#603=SURFACE_STYLE_USAGE(.BOTH.,#639);
#604=SURFACE_STYLE_USAGE(.BOTH.,#640);
#605=SURFACE_STYLE_USAGE(.BOTH.,#641);
#606=SURFACE_STYLE_USAGE(.BOTH.,#642);
#607=SURFACE_STYLE_USAGE(.BOTH.,#643);
#608=SURFACE_STYLE_USAGE(.BOTH.,#644);
#609=SURFACE_STYLE_USAGE(.BOTH.,#645);
#610=SURFACE_STYLE_USAGE(.BOTH.,#646);
#611=SURFACE_STYLE_USAGE(.BOTH.,#647);
#612=SURFACE_STYLE_USAGE(.BOTH.,#648);
#613=SURFACE_STYLE_USAGE(.BOTH.,#649);
#614=SURFACE_SIDE_STYLE('',(#650));
#615=SURFACE_SIDE_STYLE('',(#651));
#616=SURFACE_SIDE_STYLE('',(#652));
#617=SURFACE_SIDE_STYLE('',(#653));
#618=SURFACE_SIDE_STYLE('',(#654));
#619=SURFACE_SIDE_STYLE('',(#655));
#620=SURFACE_SIDE_STYLE('',(#656));
#621=SURFACE_SIDE_STYLE('',(#657));
#622=SURFACE_SIDE_STYLE('',(#658));
#623=SURFACE_SIDE_STYLE('',(#659));
#624=SURFACE_SIDE_STYLE('',(#660));
#625=SURFACE_SIDE_STYLE('',(#661));
#626=SURFACE_SIDE_STYLE('',(#662));
#627=SURFACE_SIDE_STYLE('',(#663));
#628=SURFACE_SIDE_STYLE('',(#664));
#629=SURFACE_SIDE_STYLE('',(#665));
#630=SURFACE_SIDE_STYLE('',(#666));
#631=SURFACE_SIDE_STYLE('',(#667));
#632=SURFACE_SIDE_STYLE('',(#668));
#633=SURFACE_SIDE_STYLE('',(#669));
#634=SURFACE_SIDE_STYLE('',(#670));
#635=SURFACE_SIDE_STYLE('',(#671));
#636=SURFACE_SIDE_STYLE('',(#672));
#637=SURFACE_SIDE_STYLE('',(#673));
#638=SURFACE_SIDE_STYLE('',(#674));
#639=SURFACE_SIDE_STYLE('',(#675));
#640=SURFACE_SIDE_STYLE('',(#676));
#641=SURFACE_SIDE_STYLE('',(#677));
#642=SURFACE_SIDE_STYLE('',(#678));
#643=SURFACE_SIDE_STYLE('',(#679));
#644=SURFACE_SIDE_STYLE('',(#680));
#645=SURFACE_SIDE_STYLE('',(#681));
#646=SURFACE_SIDE_STYLE('',(#682));
#647=SURFACE_SIDE_STYLE('',(#683));
#648=SURFACE_SIDE_STYLE('',(#684));
#649=SURFACE_SIDE_STYLE('',(#685));
#650=SURFACE_STYLE_FILL_AREA(#686);
#651=SURFACE_STYLE_FILL_AREA(#687);
#652=SURFACE_STYLE_FILL_AREA(#688);
#653=SURFACE_STYLE_FILL_AREA(#689);
#654=SURFACE_STYLE_FILL_AREA(#690);
#655=SURFACE_STYLE_FILL_AREA(#691);
#656=SURFACE_STYLE_FILL_AREA(#692);
#657=SURFACE_STYLE_FILL_AREA(#693);
#658=SURFACE_STYLE_FILL_AREA(#694);
#659=SURFACE_STYLE_FILL_AREA(#695);
#660=SURFACE_STYLE_FILL_AREA(#696);
#661=SURFACE_STYLE_FILL_AREA(#697);
#662=SURFACE_STYLE_FILL_AREA(#698);
#663=SURFACE_STYLE_FILL_AREA(#699);
#664=SURFACE_STYLE_FILL_AREA(#700);
#665=SURFACE_STYLE_FILL_AREA(#701);
#666=SURFACE_STYLE_FILL_AREA(#702);
#667=SURFACE_STYLE_FILL_AREA(#703);
#668=SURFACE_STYLE_FILL_AREA(#704);
#669=SURFACE_STYLE_FILL_AREA(#705);
#670=SURFACE_STYLE_FILL_AREA(#706);
#671=SURFACE_STYLE_FILL_AREA(#707);
#672=SURFACE_STYLE_FILL_AREA(#708);
#673=SURFACE_STYLE_FILL_AREA(#709);
#674=SURFACE_STYLE_FILL_AREA(#710);
#675=SURFACE_STYLE_FILL_AREA(#711);
#676=SURFACE_STYLE_FILL_AREA(#712);
#677=SURFACE_STYLE_FILL_AREA(#713);
#678=SURFACE_STYLE_FILL_AREA(#714);
#679=SURFACE_STYLE_FILL_AREA(#715);
#680=SURFACE_STYLE_FILL_AREA(#716);
#681=SURFACE_STYLE_FILL_AREA(#717);
#682=SURFACE_STYLE_FILL_AREA(#718);
#683=SURFACE_STYLE_FILL_AREA(#719);
#684=SURFACE_STYLE_FILL_AREA(#720);
#685=SURFACE_STYLE_FILL_AREA(#721);
#686=FILL_AREA_STYLE('',(#722));
#687=FILL_AREA_STYLE('',(#723));
#688=FILL_AREA_STYLE('',(#724));
#689=FILL_AREA_STYLE('',(#725));
#690=FILL_AREA_STYLE('',(#726));
#691=FILL_AREA_STYLE('',(#727));
#692=FILL_AREA_STYLE('',(#728));
#693=FILL_AREA_STYLE('',(#729));
#694=FILL_AREA_STYLE('',(#730));
#695=FILL_AREA_STYLE('',(#731));
#696=FILL_AREA_STYLE('',(#732));
#697=FILL_AREA_STYLE('',(#733));
#698=FILL_AREA_STYLE('',(#734));
#699=FILL_AREA_STYLE('',(#735));
#700=FILL_AREA_STYLE('',(#736));
#701=FILL_AREA_STYLE('',(#737));
#702=FILL_AREA_STYLE('',(#738));
#703=FILL_AREA_STYLE('',(#739));
#704=FILL_AREA_STYLE('',(#740));
#705=FILL_AREA_STYLE('',(#741));
#706=FILL_AREA_STYLE('',(#742));
#707=FILL_AREA_STYLE('',(#743));
#708=FILL_AREA_STYLE('',(#744));
#709=FILL_AREA_STYLE('',(#745));
#710=FILL_AREA_STYLE('',(#746));
#711=FILL_AREA_STYLE('',(#747));
#712=FILL_AREA_STYLE('',(#748));
#713=FILL_AREA_STYLE('',(#749));
#714=FILL_AREA_STYLE('',(#750));
#715=FILL_AREA_STYLE('',(#751));
#716=FILL_AREA_STYLE('',(#752));
#717=FILL_AREA_STYLE('',(#753));
#718=FILL_AREA_STYLE('',(#754));
#719=FILL_AREA_STYLE('',(#755));
#720=FILL_AREA_STYLE('',(#756));
#721=FILL_AREA_STYLE('',(#757));
#722=FILL_AREA_STYLE_COLOUR('',#758);
#723=FILL_AREA_STYLE_COLOUR('',#758);
#724=FILL_AREA_STYLE_COLOUR('',#758);
#725=FILL_AREA_STYLE_COLOUR('',#758);
#726=FILL_AREA_STYLE_COLOUR('',#758);
#727=FILL_AREA_STYLE_COLOUR('',#758);
#728=FILL_AREA_STYLE_COLOUR('',#758);
#729=FILL_AREA_STYLE_COLOUR('',#758);
#730=FILL_AREA_STYLE_COLOUR('',#758);
#731=FILL_AREA_STYLE_COLOUR('',#758);
#732=FILL_AREA_STYLE_COLOUR('',#758);
#733=FILL_AREA_STYLE_COLOUR('',#758);
#734=FILL_AREA_STYLE_COLOUR('',#758);
#735=FILL_AREA_STYLE_COLOUR('',#758);
#736=FILL_AREA_STYLE_COLOUR('',#758);
#737=FILL_AREA_STYLE_COLOUR('',#758);
#738=FILL_AREA_STYLE_COLOUR('',#758);
#739=FILL_AREA_STYLE_COLOUR('',#758);
#740=FILL_AREA_STYLE_COLOUR('',#758);
#741=FILL_AREA_STYLE_COLOUR('',#758);
#742=FILL_AREA_STYLE_COLOUR('',#758);
#743=FILL_AREA_STYLE_COLOUR('',#758);
#744=FILL_AREA_STYLE_COLOUR('',#759);
#745=FILL_AREA_STYLE_COLOUR('',#758);
#746=FILL_AREA_STYLE_COLOUR('',#758);
#747=FILL_AREA_STYLE_COLOUR('',#758);
#748=FILL_AREA_STYLE_COLOUR('',#758);
#749=FILL_AREA_STYLE_COLOUR('',#758);
#750=FILL_AREA_STYLE_COLOUR('',#758);
#751=FILL_AREA_STYLE_COLOUR('',#758);
#752=FILL_AREA_STYLE_COLOUR('',#758);
#753=FILL_AREA_STYLE_COLOUR('',#758);
#754=FILL_AREA_STYLE_COLOUR('',#758);
#755=FILL_AREA_STYLE_COLOUR('',#758);
#756=FILL_AREA_STYLE_COLOUR('',#758);
#757=FILL_AREA_STYLE_COLOUR('',#758);
#758=COLOUR_RGB('',0.506983280181885,0.531564235687256,0.550000011920929);
#759=COLOUR_RGB('',0.1875,0.75,0.581249892711639);
#760=ADVANCED_FACE('',(#434,#435),#494,.T.);
#761=ADVANCED_FACE('',(#436,#437),#94,.T.);
#762=ADVANCED_FACE('',(#438,#439),#495,.T.);
#763=ADVANCED_FACE('',(#440,#441),#496,.T.);
#764=ADVANCED_FACE('',(#442,#443),#95,.T.);
#765=ADVANCED_FACE('',(#444,#445),#497,.T.);
#766=ADVANCED_FACE('',(#446,#447),#83,.F.);
#767=ADVANCED_FACE('',(#448,#449),#77,.T.);
#768=ADVANCED_FACE('',(#450,#451),#78,.T.);
#769=ADVANCED_FACE('',(#452,#453),#79,.T.);
#770=ADVANCED_FACE('',(#454,#455),#80,.T.);
#771=ADVANCED_FACE('',(#456,#457),#84,.F.);
#772=ADVANCED_FACE('',(#458),#498,.T.);
#773=ADVANCED_FACE('',(#459),#85,.T.);
#774=ADVANCED_FACE('',(#460),#499,.T.);
#775=ADVANCED_FACE('',(#461,#462),#86,.F.);
#776=ADVANCED_FACE('',(#463,#464),#500,.F.);
#777=ADVANCED_FACE('',(#465,#466),#501,.T.);
#778=ADVANCED_FACE('',(#467),#45,.T.);
#779=ADVANCED_FACE('',(#468),#46,.T.);
#780=ADVANCED_FACE('',(#469),#47,.T.);
#781=ADVANCED_FACE('',(#470),#48,.T.);
#782=ADVANCED_FACE('',(#471,#472),#87,.T.);
#783=ADVANCED_FACE('',(#473),#502,.T.);
#784=ADVANCED_FACE('',(#474),#21,.T.);
#785=ADVANCED_FACE('',(#475),#88,.T.);
#786=ADVANCED_FACE('',(#476),#81,.T.);
#787=ADVANCED_FACE('',(#477),#89,.T.);
#788=ADVANCED_FACE('',(#478),#22,.T.);
#789=ADVANCED_FACE('',(#479),#23,.T.);
#790=ADVANCED_FACE('',(#480),#90,.T.);
#791=ADVANCED_FACE('',(#481),#82,.T.);
#792=ADVANCED_FACE('',(#482),#91,.T.);
#793=ADVANCED_FACE('',(#483),#24,.T.);
#794=ADVANCED_FACE('',(#484,#485),#20,.T.);
#795=ADVANCED_FACE('',(#486),#503,.T.);
#796=ADVANCED_FACE('',(#487,#488),#92,.T.);
#797=ADVANCED_FACE('',(#489,#490),#504,.T.);
#798=ADVANCED_FACE('',(#491,#492),#93,.T.);
#799=ADVANCED_FACE('',(#493),#505,.T.);
#800=CLOSED_SHELL('',(#760,#761,#762,#763,#764,#765,#766,#767,#768,#769,
#770,#771,#772,#773,#774,#775,#776,#777,#778,#779,#780,#781,#782,#783,#784,
#785,#786,#787,#788,#789,#790,#791,#792,#793,#794));
#801=CLOSED_SHELL('',(#795,#796,#797,#798,#799));
#802=MANIFOLD_SOLID_BREP('',#800);
#803=MANIFOLD_SOLID_BREP('',#801);
#804=SHAPE_DEFINITION_REPRESENTATION(#1392,#805);
#805=SHAPE_REPRESENTATION('M\X2\578B591687BA7EB967467AEF517382828F74627F\X0\',
(#806),#1387);
#806=AXIS2_PLACEMENT_3D('',#1015,#871,#872);
#807=AXIS2_PLACEMENT_3D('',#1016,#873,#874);
#808=AXIS2_PLACEMENT_3D('',#1017,#875,#876);
#809=AXIS2_PLACEMENT_3D('',#1019,#877,#878);
#810=AXIS2_PLACEMENT_3D('',#1021,#879,#880);
#811=AXIS2_PLACEMENT_3D('',#1022,#881,#882);
#812=AXIS2_PLACEMENT_3D('',#1024,#883,#884);
#813=AXIS2_PLACEMENT_3D('',#1025,#885,#886);
#814=AXIS2_PLACEMENT_3D('',#1027,#887,#888);
#815=AXIS2_PLACEMENT_3D('',#1028,#889,#890);
#816=AXIS2_PLACEMENT_3D('',#1030,#891,#892);
#817=AXIS2_PLACEMENT_3D('',#1032,#893,#894);
#818=AXIS2_PLACEMENT_3D('',#1033,#895,#896);
#819=AXIS2_PLACEMENT_3D('',#1035,#897,#898);
#820=AXIS2_PLACEMENT_3D('',#1036,#899,#900);
#821=AXIS2_PLACEMENT_3D('',#1038,#901,#902);
#822=AXIS2_PLACEMENT_3D('',#1039,#903,#904);
#823=AXIS2_PLACEMENT_3D('',#1041,#905,#906);
#824=AXIS2_PLACEMENT_3D('',#1043,#907,#908);
#825=AXIS2_PLACEMENT_3D('',#1044,#909,#910);
#826=AXIS2_PLACEMENT_3D('',#1046,#911,#912);
#827=AXIS2_PLACEMENT_3D('',#1047,#913,#914);
#828=AXIS2_PLACEMENT_3D('',#1049,#915,#916);
#829=AXIS2_PLACEMENT_3D('',#1050,#917,#918);
#830=AXIS2_PLACEMENT_3D('',#1051,#919,#920);
#831=AXIS2_PLACEMENT_3D('',#1052,#921,#922);
#832=AXIS2_PLACEMENT_3D('',#1054,#923,#924);
#833=AXIS2_PLACEMENT_3D('',#1063,#929,#930);
#834=AXIS2_PLACEMENT_3D('',#1067,#932,#933);
#835=AXIS2_PLACEMENT_3D('',#1068,#934,#935);
#836=AXIS2_PLACEMENT_3D('',#1069,#936,#937);
#837=AXIS2_PLACEMENT_3D('',#1075,#941,#942);
#838=AXIS2_PLACEMENT_3D('',#1076,#943,#944);
#839=AXIS2_PLACEMENT_3D('',#1078,#945,#946);
#840=AXIS2_PLACEMENT_3D('',#1084,#949,#950);
#841=AXIS2_PLACEMENT_3D('',#1087,#952,#953);
#842=AXIS2_PLACEMENT_3D('',#1093,#956,#957);
#843=AXIS2_PLACEMENT_3D('',#1132,#959,#960);
#844=AXIS2_PLACEMENT_3D('',#1186,#961,#962);
#845=AXIS2_PLACEMENT_3D('',#1223,#963,#964);
#846=AXIS2_PLACEMENT_3D('',#1266,#965,#966);
#847=AXIS2_PLACEMENT_3D('',#1276,#967,#968);
#848=AXIS2_PLACEMENT_3D('',#1277,#969,#970);
#849=AXIS2_PLACEMENT_3D('',#1279,#971,#972);
#850=AXIS2_PLACEMENT_3D('',#1280,#973,#974);
#851=AXIS2_PLACEMENT_3D('',#1302,#975,#976);
#852=AXIS2_PLACEMENT_3D('',#1303,#977,#978);
#853=AXIS2_PLACEMENT_3D('',#1304,#979,#980);
#854=AXIS2_PLACEMENT_3D('',#1305,#981,#982);
#855=AXIS2_PLACEMENT_3D('',#1306,#983,#984);
#856=AXIS2_PLACEMENT_3D('',#1347,#985,#986);
#857=AXIS2_PLACEMENT_3D('',#1348,#987,#988);
#858=AXIS2_PLACEMENT_3D('',#1349,#989,#990);
#859=AXIS2_PLACEMENT_3D('',#1350,#991,#992);
#860=AXIS2_PLACEMENT_3D('',#1351,#993,#994);
#861=AXIS2_PLACEMENT_3D('',#1372,#995,#996);
#862=AXIS2_PLACEMENT_3D('',#1373,#997,#998);
#863=AXIS2_PLACEMENT_3D('',#1374,#999,#1000);
#864=AXIS2_PLACEMENT_3D('',#1376,#1001,#1002);
#865=AXIS2_PLACEMENT_3D('',#1377,#1003,#1004);
#866=AXIS2_PLACEMENT_3D('',#1379,#1005,#1006);
#867=AXIS2_PLACEMENT_3D('',#1380,#1007,#1008);
#868=AXIS2_PLACEMENT_3D('',#1382,#1009,#1010);
#869=AXIS2_PLACEMENT_3D('',#1383,#1011,#1012);
#870=AXIS2_PLACEMENT_3D('',#1385,#1013,#1014);
#871=DIRECTION('',(0.,0.,1.));
#872=DIRECTION('',(1.,0.,0.));
#873=DIRECTION('',(-6.12303176911189E-17,-1.,0.));
#874=DIRECTION('',(1.,-6.12303176911189E-17,0.));
#875=DIRECTION('',(-6.12303176911189E-17,-1.,0.));
#876=DIRECTION('',(1.,-6.12303176911189E-17,0.));
#877=DIRECTION('',(-6.12303176911189E-17,-1.,0.));
#878=DIRECTION('',(1.,-6.12303176911189E-17,0.));
#879=DIRECTION('',(-6.12303176911189E-17,-1.,0.));
#880=DIRECTION('',(1.,-6.12303176911189E-17,0.));
#881=DIRECTION('',(-6.12303176911189E-17,-1.,0.));
#882=DIRECTION('',(1.,-6.12303176911189E-17,0.));
#883=DIRECTION('',(-6.12303176911189E-17,-1.,0.));
#884=DIRECTION('',(1.,-6.12303176911189E-17,0.));
#885=DIRECTION('',(-6.12303176911189E-17,-1.,0.));
#886=DIRECTION('',(1.,-6.12303176911189E-17,0.));
#887=DIRECTION('',(6.12303176911189E-17,1.,0.));
#888=DIRECTION('',(-1.,6.12303176911189E-17,0.));
#889=DIRECTION('',(6.12303176911189E-17,1.,0.));
#890=DIRECTION('',(-1.,6.12303176911189E-17,0.));
#891=DIRECTION('',(-6.12303176911189E-17,-1.,0.));
#892=DIRECTION('',(1.,-6.12303176911189E-17,0.));
#893=DIRECTION('',(-6.12303176911189E-17,-1.,0.));
#894=DIRECTION('',(1.,-6.12303176911189E-17,0.));
#895=DIRECTION('',(-6.12303176911189E-17,-1.,0.));
#896=DIRECTION('',(1.,-6.12303176911189E-17,0.));
#897=DIRECTION('',(6.12303176911189E-17,1.,0.));
#898=DIRECTION('',(-1.,6.12303176911189E-17,0.));
#899=DIRECTION('',(6.12303176911189E-17,1.,0.));
#900=DIRECTION('',(-1.,6.12303176911189E-17,0.));
#901=DIRECTION('',(-6.12303176911189E-17,-1.,0.));
#902=DIRECTION('',(1.,-6.12303176911189E-17,0.));
#903=DIRECTION('',(6.12303176911189E-17,1.,0.));
#904=DIRECTION('',(-1.,6.12303176911189E-17,0.));
#905=DIRECTION('',(-6.12303176911189E-17,-1.,0.));
#906=DIRECTION('',(1.,-6.12303176911189E-17,0.));
#907=DIRECTION('',(-6.12303176911189E-17,-1.,0.));
#908=DIRECTION('',(1.,-6.12303176911189E-17,0.));
#909=DIRECTION('',(-6.12303176911189E-17,-1.,0.));
#910=DIRECTION('',(1.,-6.12303176911189E-17,0.));
#911=DIRECTION('',(6.12303176911189E-17,1.,0.));
#912=DIRECTION('',(-1.,6.12303176911189E-17,0.));
#913=DIRECTION('',(6.12303176911189E-17,1.,0.));
#914=DIRECTION('',(-1.,6.12303176911189E-17,0.));
#915=DIRECTION('',(-6.12303176911189E-17,-1.,0.));
#916=DIRECTION('',(1.,-6.12303176911189E-17,0.));
#917=DIRECTION('',(6.12303176911189E-17,1.,0.));
#918=DIRECTION('',(-1.,6.12303176911189E-17,0.));
#919=DIRECTION('',(0.,1.,0.));
#920=DIRECTION('',(0.,0.,1.));
#921=DIRECTION('',(0.,1.,0.));
#922=DIRECTION('',(1.,0.,0.));
#923=DIRECTION('',(-0.906313017760431,0.,-0.422607044236108));
#924=DIRECTION('',(-0.422607044236108,0.,0.906313017760431));
#925=DIRECTION('',(0.,1.,0.));
#926=DIRECTION('',(-0.422607044236108,0.,0.906313017760431));
#927=DIRECTION('',(0.,1.,0.));
#928=DIRECTION('',(-0.422607044236108,0.,0.906313017760431));
#929=DIRECTION('',(0.,1.,0.));
#930=DIRECTION('',(0.,0.,1.));
#931=DIRECTION('',(0.,1.,0.));
#932=DIRECTION('',(0.,1.,0.));
#933=DIRECTION('',(0.,0.,1.));
#934=DIRECTION('',(0.,1.,0.));
#935=DIRECTION('',(0.,0.,1.));
#936=DIRECTION('',(0.906313017760431,0.,-0.422607044236108));
#937=DIRECTION('',(-0.422607044236108,0.,-0.906313017760431));
#938=DIRECTION('',(0.,1.,0.));
#939=DIRECTION('',(-0.422607044236108,0.,-0.906313017760431));
#940=DIRECTION('',(-0.422607044236108,0.,-0.906313017760431));
#941=DIRECTION('',(0.,1.,0.));
#942=DIRECTION('',(0.,0.,1.));
#943=DIRECTION('',(0.,1.,0.));
#944=DIRECTION('',(1.,0.,0.));
#945=DIRECTION('',(0.,1.,0.));
#946=DIRECTION('',(0.,0.,1.));
#947=DIRECTION('',(-1.,0.,8.00987332163994E-16));
#948=DIRECTION('',(-0.422607044236108,0.,-0.906313017760431));
#949=DIRECTION('',(0.,1.,0.));
#950=DIRECTION('',(0.,0.,1.));
#951=DIRECTION('',(-0.422607044236108,0.,0.906313017760431));
#952=DIRECTION('',(0.,1.,0.));
#953=DIRECTION('',(0.,0.,1.));
#954=DIRECTION('',(-1.,0.,-6.00740499122995E-16));
#955=DIRECTION('',(-0.422607044236108,0.,0.906313017760431));
#956=DIRECTION('',(0.,1.,0.));
#957=DIRECTION('',(0.,0.,1.));
#958=DIRECTION('',(-0.422607044236108,0.,-0.906313017760431));
#959=DIRECTION('',(0.,0.,-1.));
#960=DIRECTION('',(1.,0.,0.));
#961=DIRECTION('',(0.,0.,-1.));
#962=DIRECTION('',(1.,0.,0.));
#963=DIRECTION('',(0.,0.,-1.));
#964=DIRECTION('',(1.,0.,0.));
#965=DIRECTION('',(0.,0.,-1.));
#966=DIRECTION('',(1.,0.,0.));
#967=DIRECTION('',(0.,0.,1.));
#968=DIRECTION('',(1.,0.,0.));
#969=DIRECTION('',(0.,0.,-1.));
#970=DIRECTION('',(-1.,0.,0.));
#971=DIRECTION('',(0.,0.,-1.));
#972=DIRECTION('',(-1.,0.,0.));
#973=DIRECTION('',(0.,0.,-1.));
#974=DIRECTION('',(-1.,0.,0.));
#975=DIRECTION('',(0.422607044236108,0.,-0.906313017760431));
#976=DIRECTION('',(-0.906313017760431,0.,-0.422607044236108));
#977=DIRECTION('',(-0.422607044236109,0.,0.906313017760431));
#978=DIRECTION('',(0.906313017760431,0.,0.422607044236109));
#979=DIRECTION('',(0.,1.,0.));
#980=DIRECTION('',(0.,0.,1.));
#981=DIRECTION('',(-0.422607044236109,0.,-0.906313017760431));
#982=DIRECTION('',(-0.906313017760431,0.,0.422607044236109));
#983=DIRECTION('',(0.422607044236108,0.,0.906313017760431));
#984=DIRECTION('',(0.906313017760431,0.,-0.422607044236108));
#985=DIRECTION('',(-0.422607044236108,0.,-0.906313017760431));
#986=DIRECTION('',(-0.906313017760431,0.,0.422607044236108));
#987=DIRECTION('',(0.422607044236109,0.,0.906313017760431));
#988=DIRECTION('',(0.906313017760431,0.,-0.422607044236109));
#989=DIRECTION('',(0.,1.,0.));
#990=DIRECTION('',(0.,0.,1.));
#991=DIRECTION('',(0.422607044236109,0.,-0.906313017760431));
#992=DIRECTION('',(-0.906313017760431,0.,-0.422607044236109));
#993=DIRECTION('',(-0.422607044236108,0.,0.906313017760431));
#994=DIRECTION('',(0.906313017760431,0.,0.422607044236108));
#995=DIRECTION('',(0.,0.,1.));
#996=DIRECTION('',(1.,0.,0.));
#997=DIRECTION('',(-0.906313017760432,0.,-0.422607044236107));
#998=DIRECTION('',(-0.422607044236107,0.,0.906313017760432));
#999=DIRECTION('',(-0.906313017760432,0.,-0.422607044236107));
#1000=DIRECTION('',(-0.422607044236107,0.,0.906313017760432));
#1001=DIRECTION('',(-0.906313017760432,0.,-0.422607044236107));
#1002=DIRECTION('',(-0.422607044236107,0.,0.906313017760432));
#1003=DIRECTION('',(-0.906313017760432,0.,-0.422607044236107));
#1004=DIRECTION('',(-0.422607044236107,0.,0.906313017760432));
#1005=DIRECTION('',(0.906313017760432,0.,0.422607044236107));
#1006=DIRECTION('',(0.422607044236107,0.,-0.906313017760432));
#1007=DIRECTION('',(-0.906313017760432,0.,-0.422607044236107));
#1008=DIRECTION('',(-0.422607044236107,0.,0.906313017760432));
#1009=DIRECTION('',(-0.906313017760432,0.,-0.422607044236107));
#1010=DIRECTION('',(-0.422607044236107,0.,0.906313017760432));
#1011=DIRECTION('',(-0.906313017760432,0.,-0.422607044236107));
#1012=DIRECTION('',(-0.422607044236107,0.,0.906313017760432));
#1013=DIRECTION('',(0.906313017760432,0.,0.422607044236107));
#1014=DIRECTION('',(0.422607044236107,0.,-0.906313017760432));
#1015=CARTESIAN_POINT('',(0.,0.,0.));
#1016=CARTESIAN_POINT('',(-2.44921270764476E-16,-4.,4.));
#1017=CARTESIAN_POINT('',(-2.44921270764476E-16,-4.,0.));
#1018=CARTESIAN_POINT('',(4.3,-4.,0.));
#1019=CARTESIAN_POINT('',(-2.44921270764476E-16,-4.,0.));
#1020=CARTESIAN_POINT('',(4.99999999999999,-4.,0.));
#1021=CARTESIAN_POINT('',(0.,0.,0.));
#1022=CARTESIAN_POINT('',(-1.53075794227797E-16,-2.5,0.));
#1023=CARTESIAN_POINT('',(5.96256104399161,-2.5,0.));
#1024=CARTESIAN_POINT('',(-1.53075794227797E-16,-2.5,8.));
#1025=CARTESIAN_POINT('',(-1.53075794227797E-16,-2.5,0.));
#1026=CARTESIAN_POINT('',(7.7,-2.5,0.));
#1027=CARTESIAN_POINT('',(1.53075794227797E-16,2.5,8.));
#1028=CARTESIAN_POINT('',(1.53075794227797E-16,2.5,0.));
#1029=CARTESIAN_POINT('',(-7.7,2.5,0.));
#1030=CARTESIAN_POINT('',(1.53075794227797E-16,2.5,0.));
#1031=CARTESIAN_POINT('',(5.96256104399161,2.5,0.));
#1032=CARTESIAN_POINT('',(0.,0.,0.));
#1033=CARTESIAN_POINT('',(2.44921270764475E-16,4.,0.));
#1034=CARTESIAN_POINT('',(5.,4.,0.));
#1035=CARTESIAN_POINT('',(2.44921270764475E-16,4.,4.));
#1036=CARTESIAN_POINT('',(2.44921270764475E-16,4.,0.));
#1037=CARTESIAN_POINT('',(-4.3,4.,0.));
#1038=CARTESIAN_POINT('',(0.,0.,0.));
#1039=CARTESIAN_POINT('',(2.2655217545714E-16,3.7,0.));
#1040=CARTESIAN_POINT('',(-4.,3.7,0.));
#1041=CARTESIAN_POINT('',(-2.2655217545714E-16,-3.7,0.));
#1042=CARTESIAN_POINT('',(4.,-3.7,0.));
#1043=CARTESIAN_POINT('',(-1.34706698920462E-16,-2.2,0.));
#1044=CARTESIAN_POINT('',(-1.34706698920462E-16,-2.2,0.));
#1045=CARTESIAN_POINT('',(8.,-2.2,0.));
#1046=CARTESIAN_POINT('',(1.34706698920462E-16,2.2,0.));
#1047=CARTESIAN_POINT('',(1.34706698920462E-16,2.2,0.));
#1048=CARTESIAN_POINT('',(-8.,2.2,0.));
#1049=CARTESIAN_POINT('',(-2.2655217545714E-16,-3.7,0.));
#1050=CARTESIAN_POINT('',(2.2655217545714E-16,3.7,0.));
#1051=CARTESIAN_POINT('',(0.,-3.25,0.));
#1052=CARTESIAN_POINT('',(0.,3.25,0.));
#1053=CARTESIAN_POINT('',(8.,3.25,0.));
#1054=CARTESIAN_POINT('',(-11.3289127220054,-3.25,-5.28258805295135));
#1055=CARTESIAN_POINT('',(-11.3289127220054,-3.25,-5.28258805295135));
#1056=CARTESIAN_POINT('',(-11.3289127220054,-2.95,-5.28258805295135));
#1057=CARTESIAN_POINT('',(-11.3289127220054,2.95,-5.28258805295135));
#1058=CARTESIAN_POINT('',(-11.3289127220054,2.95,-5.28258805295135));
#1059=CARTESIAN_POINT('',(-8.66292589816709,2.95,-11.));
#1060=CARTESIAN_POINT('',(-8.66292589816709,-3.25,-11.));
#1061=CARTESIAN_POINT('',(-8.66292589816709,-2.95,-11.));
#1062=CARTESIAN_POINT('',(-11.3289127220054,-2.95,-5.28258805295135));
#1063=CARTESIAN_POINT('',(0.,-3.25,0.));
#1064=CARTESIAN_POINT('',(11.3289127220054,-3.25,-5.28258805295135));
#1065=CARTESIAN_POINT('',(11.3289127220054,-2.95,-5.28258805295135));
#1066=CARTESIAN_POINT('',(11.3289127220054,2.95,-5.28258805295135));
#1067=CARTESIAN_POINT('',(0.,2.95,0.));
#1068=CARTESIAN_POINT('',(0.,-2.95,0.));
#1069=CARTESIAN_POINT('',(11.3289127220054,-3.25,-5.28258805295135));
#1070=CARTESIAN_POINT('',(8.66292589816709,-3.25,-11.));
#1071=CARTESIAN_POINT('',(8.66292589816709,-2.95,-11.));
#1072=CARTESIAN_POINT('',(8.66292589816709,2.95,-11.));
#1073=CARTESIAN_POINT('',(11.3289127220054,2.95,-5.28258805295135));
#1074=CARTESIAN_POINT('',(8.66292589816709,-2.95,-11.));
#1075=CARTESIAN_POINT('',(0.,-3.25,0.));
#1076=CARTESIAN_POINT('',(0.,-3.25,0.));
#1077=CARTESIAN_POINT('',(8.,-3.25,0.));
#1078=CARTESIAN_POINT('',(0.,-3.25,0.));
#1079=CARTESIAN_POINT('',(8.66292589816709,-3.25,-11.));
#1080=CARTESIAN_POINT('',(8.33191443289947,-3.25,-11.));
#1081=CARTESIAN_POINT('',(-8.33191443289948,-3.25,-11.));
#1082=CARTESIAN_POINT('',(11.0570188166773,-3.25,-5.15580593968051));
#1083=CARTESIAN_POINT('',(11.0570188166773,-3.25,-5.15580593968051));
#1084=CARTESIAN_POINT('',(0.,-3.25,0.));
#1085=CARTESIAN_POINT('',(-11.0570188166773,-3.25,-5.15580593968051));
#1086=CARTESIAN_POINT('',(-8.39103199283896,-3.25,-10.8732178867292));
#1087=CARTESIAN_POINT('',(0.,3.25,0.));
#1088=CARTESIAN_POINT('',(-8.66292589816709,3.25,-11.));
#1089=CARTESIAN_POINT('',(8.33191443289948,3.25,-11.));
#1090=CARTESIAN_POINT('',(-8.33191443289947,3.25,-11.));
#1091=CARTESIAN_POINT('',(-11.0570188166773,3.25,-5.15580593968052));
#1092=CARTESIAN_POINT('',(-11.0570188166773,3.25,-5.15580593968051));
#1093=CARTESIAN_POINT('',(0.,3.25,0.));
#1094=CARTESIAN_POINT('',(11.0570188166773,3.25,-5.15580593968051));
#1095=CARTESIAN_POINT('',(11.0570188166773,3.25,-5.15580593968052));
#1096=CARTESIAN_POINT('',(8.66292589816709,-3.25,-11.));
#1097=CARTESIAN_POINT('',(3.51386355883573,-1.91122026200181,-21.));
#1098=CARTESIAN_POINT('',(7.94101540665317,-3.25,-11.));
#1099=CARTESIAN_POINT('',(3.331928029803,-2.24571683376588,-21.));
#1100=CARTESIAN_POINT('',(7.21910491513924,-3.25,-11.));
#1101=CARTESIAN_POINT('',(3.10195114499299,-2.55399156371474,-21.));
#1102=CARTESIAN_POINT('',(5.77528393211139,-3.25,-11.));
#1103=CARTESIAN_POINT('',(2.56438762814395,-3.09336223324583,-21.));
#1104=CARTESIAN_POINT('',(5.05337344059747,-3.25,-11.));
#1105=CARTESIAN_POINT('',(2.25686955597645,-3.3243816899923,-21.));
#1106=CARTESIAN_POINT('',(3.60955245756962,-3.25,-11.));
#1107=CARTESIAN_POINT('',(1.58913517240896,-3.69047736983471,-21.));
#1108=CARTESIAN_POINT('',(2.8876419660557,-3.25,-11.));
#1109=CARTESIAN_POINT('',(1.22899258176754,-3.82551317438716,-21.));
#1110=CARTESIAN_POINT('',(1.44382098302785,-3.25,-11.));
#1111=CARTESIAN_POINT('',(0.485170547557246,-3.9886819067497,-21.));
#1112=CARTESIAN_POINT('',(0.721910491513924,-3.25,-11.));
#1113=CARTESIAN_POINT('',(0.101573225152044,-4.01679682002732,-21.));
#1114=CARTESIAN_POINT('',(-0.721910491513924,-3.25,-11.));
#1115=CARTESIAN_POINT('',(-0.658090516421789,-3.96382273640549,-21.));
#1116=CARTESIAN_POINT('',(-1.44382098302785,-3.25,-11.));
#1117=CARTESIAN_POINT('',(-1.03407306543388,-3.88273958807355,-21.));
#1118=CARTESIAN_POINT('',(-2.8876419660557,-3.25,-11.));
#1119=CARTESIAN_POINT('',(-1.74804947035099,-3.61791332989819,-21.));
#1120=CARTESIAN_POINT('',(-3.60955245756962,-3.25,-11.));
#1121=CARTESIAN_POINT('',(-2.08596450017867,-3.43419945801692,-21.));
#1122=CARTESIAN_POINT('',(-5.05337344059747,-3.25,-11.));
#1123=CARTESIAN_POINT('',(-2.69642497501882,-2.97897065570377,-21.));
#1124=CARTESIAN_POINT('',(-5.77528393211139,-3.25,-11.));
#1125=CARTESIAN_POINT('',(-2.96890302255951,-2.70750598449688,-21.));
#1126=CARTESIAN_POINT('',(-7.21910491513924,-3.25,-11.));
#1127=CARTESIAN_POINT('',(-3.42640325746099,-2.09874594239276,-21.));
#1128=CARTESIAN_POINT('',(-7.94101540665317,-3.25,-11.));
#1129=CARTESIAN_POINT('',(-3.61136816373262,-1.76153582967387,-21.));
#1130=CARTESIAN_POINT('',(-8.66292589816709,-3.25,-11.));
#1131=CARTESIAN_POINT('',(-3.74511729266908,-1.40502543185205,-21.));
#1132=CARTESIAN_POINT('',(0.,0.,-21.));
#1133=CARTESIAN_POINT('',(3.51388466414039,-1.91123173954161,-21.));
#1134=CARTESIAN_POINT('',(-3.74511729266908,-1.40502543185205,-21.));
#1135=CARTESIAN_POINT('',(3.51386355883573,-1.91122026200181,-21.));
#1136=CARTESIAN_POINT('',(4.33457260149452,-2.18641239116442,-19.3489035018066));
#1137=CARTESIAN_POINT('',(5.90709385127565,-2.66321920836909,-16.0015279499356));
#1138=CARTESIAN_POINT('',(7.52642744461313,-3.05130557864798,-12.6655382870297));
#1139=CARTESIAN_POINT('',(8.34360674857007,-3.24978487981453,-11.0018032260689));
#1140=CARTESIAN_POINT('',(8.34360674857006,-3.24978487981453,-11.0018032260689));
#1141=CARTESIAN_POINT('',(8.34360674857006,-3.24978487981453,-11.0018032260689));
#1142=CARTESIAN_POINT('',(8.33981209899852,-3.24993533686965,-11.0005450503637));
#1143=CARTESIAN_POINT('',(8.33590589049818,-3.25,-11.));
#1144=CARTESIAN_POINT('',(8.33191443289945,-3.25,-11.));
#1145=CARTESIAN_POINT('',(-8.33191443289948,-3.25,-11.));
#1146=CARTESIAN_POINT('',(-8.33877641362407,-3.25,-11.));
#1147=CARTESIAN_POINT('',(-8.34552832655086,-3.24980431758021,-11.0011638169257));
#1148=CARTESIAN_POINT('',(-8.35185775225173,-3.24935320999008,-11.0038193479048));
#1149=CARTESIAN_POINT('',(-8.35185775225173,-3.24935320999008,-11.0038193479048));
#1150=CARTESIAN_POINT('',(-8.35185775225173,-3.24935320999008,-11.0038193479048));
#1151=CARTESIAN_POINT('',(-7.57069374206652,-2.96746623039579,-12.6683893855147));
#1152=CARTESIAN_POINT('',(-6.02712031288508,-2.41772464096498,-16.0088389514972));
#1153=CARTESIAN_POINT('',(-4.53454435381223,-1.76228042513675,-19.3539037305716));
#1154=CARTESIAN_POINT('',(-3.74511729266908,-1.40502543185205,-21.));
#1155=CARTESIAN_POINT('',(8.66292589816709,3.25,-11.));
#1156=CARTESIAN_POINT('',(3.74511729266908,1.40502543185205,-21.));
#1157=CARTESIAN_POINT('',(8.66292589816709,2.16666666666667,-11.));
#1158=CARTESIAN_POINT('',(3.94586868429477,0.869919453511348,-21.));
#1159=CARTESIAN_POINT('',(8.66292589816709,1.08333333333333,-11.));
#1160=CARTESIAN_POINT('',(4.0300574971268,0.291735185349484,-21.));
#1161=CARTESIAN_POINT('',(8.66292589816709,-1.08333333333333,-11.));
#1162=CARTESIAN_POINT('',(3.95056205930601,-0.848252476619239,-21.));
#1163=CARTESIAN_POINT('',(8.66292589816709,-2.16666666666667,-11.));
#1164=CARTESIAN_POINT('',(3.78694055701813,-1.40915604065228,-21.));
#1165=CARTESIAN_POINT('',(8.66292589816709,-3.25,-11.));
#1166=CARTESIAN_POINT('',(3.51386355883573,-1.91122026200181,-21.));
#1167=CARTESIAN_POINT('',(3.74511729266908,1.40502543185205,-21.));
#1168=CARTESIAN_POINT('',(5.41471531340294,1.90843018773482,-17.6872275884508));
#1169=CARTESIAN_POINT('',(7.03246273933839,2.41601219966197,-14.3491979596094));
#1170=CARTESIAN_POINT('',(8.65342726407588,2.96475362250674,-11.0195115863019));
#1171=CARTESIAN_POINT('',(3.74511729266908,1.40502543185205,-21.));
#1172=CARTESIAN_POINT('',(8.65342726407588,2.96475362250674,-11.0195115863019));
#1173=CARTESIAN_POINT('',(8.6534272640759,2.96475362250674,-11.0195115863019));
#1174=CARTESIAN_POINT('',(8.6572123803423,2.9617912251955,-11.0117392674944));
#1175=CARTESIAN_POINT('',(8.66292589816707,2.95926096479254,-11.));
#1176=CARTESIAN_POINT('',(8.66292589816709,2.95000000000002,-11.));
#1177=CARTESIAN_POINT('',(8.66292589816709,-2.95,-11.));
#1178=CARTESIAN_POINT('',(8.66292589816709,-2.9555220746175,-11.));
#1179=CARTESIAN_POINT('',(8.66097379099345,-2.95988842264845,-11.0038444144932));
#1180=CARTESIAN_POINT('',(8.65900959571204,-2.96321321003407,-11.0077099356352));
#1181=CARTESIAN_POINT('',(8.65900959571206,-2.96321321003409,-11.0077099356351));
#1182=CARTESIAN_POINT('',(8.65900959571206,-2.96321321003409,-11.0077099356351));
#1183=CARTESIAN_POINT('',(6.96348045962572,-2.5859479952208,-14.3456529048051));
#1184=CARTESIAN_POINT('',(5.27609722333763,-2.24556991170837,-17.6921708185531));
#1185=CARTESIAN_POINT('',(3.51386355883573,-1.91122026200181,-21.));
#1186=CARTESIAN_POINT('',(0.,0.,-21.));
#1187=CARTESIAN_POINT('',(-8.66292589816709,3.25,-11.));
#1188=CARTESIAN_POINT('',(-3.51386355883573,1.91122026200181,-21.));
#1189=CARTESIAN_POINT('',(-7.94101540665317,3.25,-11.));
#1190=CARTESIAN_POINT('',(-3.331928029803,2.24571683376588,-21.));
#1191=CARTESIAN_POINT('',(-7.21910491513924,3.25,-11.));
#1192=CARTESIAN_POINT('',(-3.10195114499299,2.55399156371474,-21.));
#1193=CARTESIAN_POINT('',(-5.77528393211139,3.25,-11.));
#1194=CARTESIAN_POINT('',(-2.56438762814395,3.09336223324583,-21.));
#1195=CARTESIAN_POINT('',(-5.05337344059747,3.25,-11.));
#1196=CARTESIAN_POINT('',(-2.25686955597645,3.3243816899923,-21.));
#1197=CARTESIAN_POINT('',(-3.60955245756962,3.25,-11.));
#1198=CARTESIAN_POINT('',(-1.58913517240896,3.69047736983471,-21.));
#1199=CARTESIAN_POINT('',(-2.8876419660557,3.25,-11.));
#1200=CARTESIAN_POINT('',(-1.22899258176753,3.82551317438716,-21.));
#1201=CARTESIAN_POINT('',(-1.44382098302785,3.25,-11.));
#1202=CARTESIAN_POINT('',(-0.485170547557246,3.9886819067497,-21.));
#1203=CARTESIAN_POINT('',(-0.721910491513924,3.25,-11.));
#1204=CARTESIAN_POINT('',(-0.101573225152044,4.01679682002732,-21.));
#1205=CARTESIAN_POINT('',(0.721910491513924,3.25,-11.));
#1206=CARTESIAN_POINT('',(0.65809051642179,3.96382273640549,-21.));
#1207=CARTESIAN_POINT('',(1.44382098302785,3.25,-11.));
#1208=CARTESIAN_POINT('',(1.03407306543388,3.88273958807355,-21.));
#1209=CARTESIAN_POINT('',(2.8876419660557,3.25,-11.));
#1210=CARTESIAN_POINT('',(1.74804947035099,3.61791332989819,-21.));
#1211=CARTESIAN_POINT('',(3.60955245756962,3.25,-11.));
#1212=CARTESIAN_POINT('',(2.08596450017868,3.43419945801692,-21.));
#1213=CARTESIAN_POINT('',(5.05337344059747,3.25,-11.));
#1214=CARTESIAN_POINT('',(2.69642497501882,2.97897065570377,-21.));
#1215=CARTESIAN_POINT('',(5.77528393211139,3.25,-11.));
#1216=CARTESIAN_POINT('',(2.96890302255951,2.70750598449688,-21.));
#1217=CARTESIAN_POINT('',(7.21910491513924,3.25,-11.));
#1218=CARTESIAN_POINT('',(3.42640325746099,2.09874594239276,-21.));
#1219=CARTESIAN_POINT('',(7.94101540665317,3.25,-11.));
#1220=CARTESIAN_POINT('',(3.61136816373262,1.76153582967387,-21.));
#1221=CARTESIAN_POINT('',(8.66292589816709,3.25,-11.));
#1222=CARTESIAN_POINT('',(3.74511729266908,1.40502543185205,-21.));
#1223=CARTESIAN_POINT('',(0.,0.,-21.));
#1224=CARTESIAN_POINT('',(-3.51388466414038,1.9112317395416,-21.));
#1225=CARTESIAN_POINT('',(-3.51386355883573,1.91122026200181,-21.));
#1226=CARTESIAN_POINT('',(-4.33457260161944,2.18641239091294,-19.3489035018268));
#1227=CARTESIAN_POINT('',(-5.9070938512132,2.66321920849482,-16.0015279499255));
#1228=CARTESIAN_POINT('',(-7.52642744461312,3.05130557864798,-12.6655382870297));
#1229=CARTESIAN_POINT('',(-8.34360674857006,3.24978487981453,-11.0018032260689));
#1230=CARTESIAN_POINT('',(-8.34360674857006,3.24978487981453,-11.0018032260689));
#1231=CARTESIAN_POINT('',(-8.34360674857006,3.24978487981453,-11.0018032260689));
#1232=CARTESIAN_POINT('',(-8.33981209899852,3.24993533686965,-11.0005450503637));
#1233=CARTESIAN_POINT('',(-8.33590589049818,3.25,-11.));
#1234=CARTESIAN_POINT('',(-8.33191443289945,3.25,-11.));
#1235=CARTESIAN_POINT('',(8.33191443289948,3.25,-11.));
#1236=CARTESIAN_POINT('',(8.33877641362407,3.25,-11.));
#1237=CARTESIAN_POINT('',(8.34552832655085,3.24980431758021,-11.0011638169257));
#1238=CARTESIAN_POINT('',(8.35185775225172,3.24935320999008,-11.0038193479048));
#1239=CARTESIAN_POINT('',(8.35185775225173,3.24935320999008,-11.0038193479048));
#1240=CARTESIAN_POINT('',(8.35185775225173,3.24935320999008,-11.0038193479048));
#1241=CARTESIAN_POINT('',(7.57069374206652,2.96746623039579,-12.6683893855147));
#1242=CARTESIAN_POINT('',(6.02712031283974,2.41772464108079,-16.0088389515006));
#1243=CARTESIAN_POINT('',(4.53454435390293,1.76228042490514,-19.3539037305649));
#1244=CARTESIAN_POINT('',(3.74511729266908,1.40502543185205,-21.));
#1245=CARTESIAN_POINT('',(-8.66292589816709,-3.25,-11.));
#1246=CARTESIAN_POINT('',(-3.74511729266908,-1.40502543185205,-21.));
#1247=CARTESIAN_POINT('',(-8.66292589816709,-2.16666666666667,-11.));
#1248=CARTESIAN_POINT('',(-3.94586868429477,-0.869919453511348,-21.));
#1249=CARTESIAN_POINT('',(-8.66292589816709,-1.08333333333333,-11.));
#1250=CARTESIAN_POINT('',(-4.0300574971268,-0.291735185349492,-21.));
#1251=CARTESIAN_POINT('',(-8.66292589816709,1.08333333333333,-11.));
#1252=CARTESIAN_POINT('',(-3.95056205930601,0.848252476619232,-21.));
#1253=CARTESIAN_POINT('',(-8.66292589816709,2.16666666666667,-11.));
#1254=CARTESIAN_POINT('',(-3.78694055701813,1.40915604065229,-21.));
#1255=CARTESIAN_POINT('',(-8.66292589816709,3.25,-11.));
#1256=CARTESIAN_POINT('',(-3.51386355883573,1.91122026200181,-21.));
#1257=CARTESIAN_POINT('',(-8.66292589816709,2.95,-11.));
#1258=CARTESIAN_POINT('',(-8.66292589816709,2.95552207461754,-11.));
#1259=CARTESIAN_POINT('',(-8.66097379099343,2.95988842264847,-11.0038444144932));
#1260=CARTESIAN_POINT('',(-8.65900959571202,2.96321321003408,-11.0077099356352));
#1261=CARTESIAN_POINT('',(-8.65900959571202,2.96321321003409,-11.0077099356352));
#1262=CARTESIAN_POINT('',(-8.65900959571203,2.96321321003409,-11.0077099356352));
#1263=CARTESIAN_POINT('',(-6.96348045962571,2.5859479952208,-14.3456529048051));
#1264=CARTESIAN_POINT('',(-5.27609722333139,2.24556991172193,-17.6921708185512));
#1265=CARTESIAN_POINT('',(-3.51386355883573,1.91122026200181,-21.));
#1266=CARTESIAN_POINT('',(0.,0.,-21.));
#1267=CARTESIAN_POINT('',(-3.74511729266908,-1.40502543185205,-21.));
#1268=CARTESIAN_POINT('',(-5.41471531339258,-1.90843018776361,-17.68722758845));
#1269=CARTESIAN_POINT('',(-7.03246273933834,-2.41601219966195,-14.3491979596095));
#1270=CARTESIAN_POINT('',(-8.6534272640758,-2.96475362250671,-11.019511586302));
#1271=CARTESIAN_POINT('',(-8.65342726407579,-2.96475362250671,-11.019511586302));
#1272=CARTESIAN_POINT('',(-8.65342726407579,-2.96475362250671,-11.019511586302));
#1273=CARTESIAN_POINT('',(-8.65721238034221,-2.96179122519544,-11.0117392674945));
#1274=CARTESIAN_POINT('',(-8.66292589816708,-2.95926096479276,-11.));
#1275=CARTESIAN_POINT('',(-8.66292589816709,-2.95000000000002,-11.));
#1276=CARTESIAN_POINT('',(0.,0.,-42.));
#1277=CARTESIAN_POINT('',(0.,0.,-41.7));
#1278=CARTESIAN_POINT('',(-4.,0.,-41.7));
#1279=CARTESIAN_POINT('',(0.,0.,-42.));
#1280=CARTESIAN_POINT('',(0.,0.,-42.));
#1281=CARTESIAN_POINT('',(-3.7,0.,-42.));
#1282=CARTESIAN_POINT('',(-8.68259654973724,-2.97463112677287,-10.959593146552));
#1283=CARTESIAN_POINT('',(-8.66423683438757,-3.25221053583616,-10.997699067586));
#1284=CARTESIAN_POINT('',(-8.41110616576898,-3.27072814527581,-10.8776098030914));
#1285=CARTESIAN_POINT('',(-7.86748972008262,-2.69853340669508,-12.6339732792058));
#1286=CARTESIAN_POINT('',(-7.88593397127141,-2.9602773751112,-12.5810252396979));
#1287=CARTESIAN_POINT('',(-7.62027035544442,-2.98548669282414,-12.5616728567601));
#1288=CARTESIAN_POINT('',(-6.23583361881273,-2.15920022268791,-15.9842849039514));
#1289=CARTESIAN_POINT('',(-6.40605607724568,-2.40575975064952,-15.5914108349119));
#1290=CARTESIAN_POINT('',(-6.05738445007607,-2.42995506684306,-15.9403387121396));
#1291=CARTESIAN_POINT('',(-4.58542603175945,-1.65834404873142,-19.3327116379526));
#1292=CARTESIAN_POINT('',(-4.56539432452398,-1.71273882075756,-19.3320429367736));
#1293=CARTESIAN_POINT('',(-4.5453625986442,-1.76713358578954,-19.3313742703715));
#1294=CARTESIAN_POINT('',(-3.74511729266908,-1.40502543185205,-21.));
#1295=CARTESIAN_POINT('',(-3.74511729266908,-1.40502543185205,-21.));
#1296=CARTESIAN_POINT('',(-3.74511729266908,-1.40502543185205,-21.));
#1297=CARTESIAN_POINT('',(-8.65342726407581,-2.96475362250671,-11.0195115863021));
#1298=CARTESIAN_POINT('',(-8.62046753823221,-2.99054934352204,-11.0871907483237));
#1299=CARTESIAN_POINT('',(-8.56850107977517,-3.1796318176497,-11.0875703603697));
#1300=CARTESIAN_POINT('',(-8.42463361589662,-3.24416636587181,-11.0343526963592));
#1301=CARTESIAN_POINT('',(-8.35185775225172,-3.24935320999008,-11.0038193479048));
#1302=CARTESIAN_POINT('',(-11.0570188166773,-2.95,-5.15580593968051));
#1303=CARTESIAN_POINT('',(-11.0570188166773,-2.95,-5.15580593968051));
#1304=CARTESIAN_POINT('',(0.,-2.95,0.));
#1305=CARTESIAN_POINT('',(11.0570188166773,-2.95,-5.15580593968051));
#1306=CARTESIAN_POINT('',(11.0570188166773,-2.95,-5.15580593968051));
#1307=CARTESIAN_POINT('',(8.34360674857006,-3.24978487981453,-11.0018032260689));
#1308=CARTESIAN_POINT('',(8.41920382502336,-3.24678747167843,-11.0268686249105));
#1309=CARTESIAN_POINT('',(8.56700043417302,-3.17999016521678,-11.0746911938106));
#1310=CARTESIAN_POINT('',(8.63018632648938,-3.01200227028221,-11.0644339068288));
#1311=CARTESIAN_POINT('',(8.65900959571204,-2.96321321003405,-11.0077099356352));
#1312=CARTESIAN_POINT('',(8.41998229188747,-3.26832873771408,-10.846360474891));
#1313=CARTESIAN_POINT('',(8.67604822563523,-3.25519276317079,-10.9748601618786));
#1314=CARTESIAN_POINT('',(8.68951816116587,-2.97000418796533,-10.9476476056169));
#1315=CARTESIAN_POINT('',(7.59022585444483,-3.06693328952251,-12.5345343273275));
#1316=CARTESIAN_POINT('',(7.86204396195317,-3.04370925397181,-12.5563170161474));
#1317=CARTESIAN_POINT('',(7.83698735938228,-2.78016353604758,-12.6260540153247));
#1318=CARTESIAN_POINT('',(5.9457348852573,-2.67378601812152,-15.9189299401888));
#1319=CARTESIAN_POINT('',(6.31084438396841,-2.64125243207716,-15.5697612021091));
#1320=CARTESIAN_POINT('',(6.13030926045332,-2.41187593113851,-15.9834870474185));
#1321=CARTESIAN_POINT('',(4.34829109576411,-2.19099028283069,-19.3213251496538));
#1322=CARTESIAN_POINT('',(4.37464904066513,-2.13523901790462,-19.3280726090491));
#1323=CARTESIAN_POINT('',(4.40100696480522,-2.07948774789208,-19.3348201115704));
#1324=CARTESIAN_POINT('',(3.51386355883573,-1.91122026200181,-21.));
#1325=CARTESIAN_POINT('',(3.51386355883573,-1.91122026200181,-21.));
#1326=CARTESIAN_POINT('',(3.51386355883573,-1.91122026200181,-21.));
#1327=CARTESIAN_POINT('',(8.68259654973733,2.9746311267729,-10.9595931465518));
#1328=CARTESIAN_POINT('',(8.66423683438766,3.25221053583619,-10.9976990675858));
#1329=CARTESIAN_POINT('',(8.41110616576906,3.27072814527584,-10.8776098030913));
#1330=CARTESIAN_POINT('',(7.86748972007954,2.6985334067,-12.6339732792121));
#1331=CARTESIAN_POINT('',(7.88593397126906,2.96027737511318,-12.5810252396772));
#1332=CARTESIAN_POINT('',(7.6202703554543,2.98548669282562,-12.5616728567515));
#1333=CARTESIAN_POINT('',(6.23583361882858,2.15920022266553,-15.984284903936));
#1334=CARTESIAN_POINT('',(6.40605607724677,2.40575975061996,-15.5914108349378));
#1335=CARTESIAN_POINT('',(6.05738445008191,2.42995506682159,-15.9403387121385));
#1336=CARTESIAN_POINT('',(4.58542603173099,1.65834404877132,-19.3327116379767));
#1337=CARTESIAN_POINT('',(4.56539432450318,1.71273882079981,-19.3320429367867));
#1338=CARTESIAN_POINT('',(4.5453625986228,1.76713358583107,-19.3313742703819));
#1339=CARTESIAN_POINT('',(3.74511729266908,1.40502543185205,-21.));
#1340=CARTESIAN_POINT('',(3.74511729266908,1.40502543185205,-21.));
#1341=CARTESIAN_POINT('',(3.74511729266908,1.40502543185205,-21.));
#1342=CARTESIAN_POINT('',(8.35185775225172,3.24935320999008,-11.0038193479048));
#1343=CARTESIAN_POINT('',(8.42468673159567,3.24416258023688,-11.0343749812221));
#1344=CARTESIAN_POINT('',(8.56829570769586,3.17983870838053,-11.0875136568323));
#1345=CARTESIAN_POINT('',(8.62046649960805,2.99055015639421,-11.0871928810239));
#1346=CARTESIAN_POINT('',(8.65342726407579,2.96475362250644,-11.0195115863021));
#1347=CARTESIAN_POINT('',(11.0570188166773,2.95,-5.15580593968052));
#1348=CARTESIAN_POINT('',(11.0570188166773,2.95,-5.15580593968051));
#1349=CARTESIAN_POINT('',(0.,2.95,0.));
#1350=CARTESIAN_POINT('',(-11.0570188166773,2.95,-5.15580593968051));
#1351=CARTESIAN_POINT('',(-11.0570188166773,2.95,-5.15580593968052));
#1352=CARTESIAN_POINT('',(-8.34360674857006,3.24978487981453,-11.0018032260689));
#1353=CARTESIAN_POINT('',(-8.41920382502335,3.24678747167843,-11.0268686249105));
#1354=CARTESIAN_POINT('',(-8.567000434173,3.17999016521682,-11.0746911938106));
#1355=CARTESIAN_POINT('',(-8.63018632648936,3.01200227028221,-11.0644339068288));
#1356=CARTESIAN_POINT('',(-8.65900959571203,2.96321321003409,-11.0077099356352));
#1357=CARTESIAN_POINT('',(-8.41998229188744,3.26832873771407,-10.8463604748911));
#1358=CARTESIAN_POINT('',(-8.6760482256352,3.25519276317078,-10.9748601618786));
#1359=CARTESIAN_POINT('',(-8.68951816116584,2.97000418796532,-10.9476476056169));
#1360=CARTESIAN_POINT('',(-7.59022585444645,3.06693328952478,-12.5345343273078));
#1361=CARTESIAN_POINT('',(-7.862043961954,3.04370925397345,-12.5563170161287));
#1362=CARTESIAN_POINT('',(-7.83698735938193,2.78016353605126,-12.6260540153255));
#1363=CARTESIAN_POINT('',(-5.94573488526512,2.67378601811244,-15.9189299401914));
#1364=CARTESIAN_POINT('',(-6.31084438397683,2.64125243206868,-15.5697612021194));
#1365=CARTESIAN_POINT('',(-6.13030926046242,2.41187593113126,-15.9834870474079));
#1366=CARTESIAN_POINT('',(-4.34829109574679,2.19099028284657,-19.3213251496686));
#1367=CARTESIAN_POINT('',(-4.37464904064461,2.13523901791672,-19.3280726090557));
#1368=CARTESIAN_POINT('',(-4.4010069647873,2.07948774790287,-19.3348201115909));
#1369=CARTESIAN_POINT('',(-3.51386355883573,1.91122026200181,-21.));
#1370=CARTESIAN_POINT('',(-3.51386355883573,1.91122026200181,-21.));
#1371=CARTESIAN_POINT('',(-3.51386355883573,1.91122026200181,-21.));
#1372=CARTESIAN_POINT('',(0.,0.,-42.));
#1373=CARTESIAN_POINT('',(-7.78156377750024,0.,-16.6761712707778));
#1374=CARTESIAN_POINT('',(-7.78156377750024,0.,-16.6761712707778));
#1375=CARTESIAN_POINT('',(-8.4154743438544,0.,-15.3167017441371));
#1376=CARTESIAN_POINT('',(-6.33146294908355,0.,-16.));
#1377=CARTESIAN_POINT('',(-6.42209425085959,0.,-16.0422607044236));
#1378=CARTESIAN_POINT('',(-7.05600481721375,0.,-14.682791177783));
#1379=CARTESIAN_POINT('',(-7.05600481721375,0.,-14.682791177783));
#1380=CARTESIAN_POINT('',(-6.42209425085959,0.,-16.0422607044236));
#1381=CARTESIAN_POINT('',(-6.8447012950957,0.,-15.1359476866632));
#1382=CARTESIAN_POINT('',(-6.33146294908355,0.,-16.));
#1383=CARTESIAN_POINT('',(-6.33146294908355,0.,-16.));
#1384=CARTESIAN_POINT('',(-6.75406999331966,0.,-15.0936869822396));
#1385=CARTESIAN_POINT('',(-6.75406999331965,0.,-15.0936869822396));
#1386=MECHANICAL_DESIGN_GEOMETRIC_PRESENTATION_REPRESENTATION('',(#506,
#507,#508,#509,#510,#511,#512,#513,#514,#515,#516,#517,#518,#519,#520,#521,
#522,#523,#524,#525,#526,#527,#528,#529,#530,#531,#532,#533,#534,#535,#536,
#537,#538,#539,#540,#541),#1387);
#1387=(
GEOMETRIC_REPRESENTATION_CONTEXT(3)
GLOBAL_UNCERTAINTY_ASSIGNED_CONTEXT((#1388))
GLOBAL_UNIT_ASSIGNED_CONTEXT((#1391,#1390,#1389))
REPRESENTATION_CONTEXT('M\X2\578B591687BA7EB967467AEF517382828F74627F\X0\',
'TOP_LEVEL_ASSEMBLY_PART')
);
#1388=UNCERTAINTY_MEASURE_WITH_UNIT(LENGTH_MEASURE(0.005),#1391,
'DISTANCE_ACCURACY_VALUE','Maximum Tolerance applied to model');
#1389=(
NAMED_UNIT(*)
SI_UNIT($,.STERADIAN.)
SOLID_ANGLE_UNIT()
);
#1390=(
NAMED_UNIT(*)
PLANE_ANGLE_UNIT()
SI_UNIT($,.RADIAN.)
);
#1391=(
LENGTH_UNIT()
NAMED_UNIT(*)
SI_UNIT(.MILLI.,.METRE.)
);
#1392=PRODUCT_DEFINITION_SHAPE('','',#1393);
#1393=PRODUCT_DEFINITION('','',#1395,#1394);
#1394=PRODUCT_DEFINITION_CONTEXT('',#1401,'design');
#1395=PRODUCT_DEFINITION_FORMATION_WITH_SPECIFIED_SOURCE('','',#1397,
 .NOT_KNOWN.);
#1396=PRODUCT_RELATED_PRODUCT_CATEGORY('','',(#1397));
#1397=PRODUCT('M\X2\578B591687BA7EB967467AEF517382828F74627F\X0\',
'M\X2\578B591687BA7EB967467AEF517382828F74627F\X0\',
'M\X2\578B591687BA7EB967467AEF517382828F74627F\X0\',(#1399));
#1398=PRODUCT_CATEGORY('','');
#1399=PRODUCT_CONTEXT('',#1401,'mechanical');
#1400=APPLICATION_PROTOCOL_DEFINITION('international standard',
'automotive_design',2010,#1401);
#1401=APPLICATION_CONTEXT(
'core data for automotive mechanical design processes');
ENDSEC;
END-ISO-10303-21;
