ISO-10303-21;
HEADER;
/* Generated by software containing HOOPS Exchange Step
 * from HOOPS Exchange, Inc. (www.tiangong.cloud) 
 */

FILE_DESCRIPTION(
/* description */ ('Unknown'),
/* implementation_level */ '2;1');

FILE_NAME(
/* name */ '\X2\51B2538B591657086EE188C56EDA94888F74627F7A7F5B54578B\X0\ 
GBT12764-2019',
/* time_stamp */ '2025-12-27T15:27:24+08:00',
/* author */ ('Unknown'),
/* organization */ ('Unknown'),
/* preprocessor_version */ 'ST-DEVELOPER v19.4',
/* originating_system */ 'TianGong',
/* authorisation */ 'Unknown');

FILE_SCHEMA (('AUTOMOTIVE_DESIGN {1 0 10303 214 3 1 1}'));
ENDSEC;

DATA;
#10=PROPERTY_DEFINITION_REPRESENTATION(#14,#12);
#11=PROPERTY_DEFINITION_REPRESENTATION(#15,#13);
#12=REPRESENTATION('',(#16),#1777);
#13=REPRESENTATION('',(#17),#1777);
#14=PROPERTY_DEFINITION('pmi validation property','',#1782);
#15=PROPERTY_DEFINITION('pmi validation property','',#1782);
#16=VALUE_REPRESENTATION_ITEM('number of annotations',COUNT_MEASURE(0.));
#17=VALUE_REPRESENTATION_ITEM('number of views',COUNT_MEASURE(0.));
#18=SHAPE_REPRESENTATION_RELATIONSHIP('','',#981,#19);
#19=ADVANCED_BREP_SHAPE_REPRESENTATION('',(#979),#1777);
#20=TOROIDAL_SURFACE('',#1134,4.09999999999999,0.4);
#21=TOROIDAL_SURFACE('',#1135,4.09999999999999,0.4);
#22=LINE('',#1496,#64);
#23=LINE('',#1497,#65);
#24=LINE('',#1508,#66);
#25=LINE('',#1509,#67);
#26=LINE('',#1520,#68);
#27=LINE('',#1521,#69);
#28=LINE('',#1533,#70);
#29=LINE('',#1534,#71);
#30=LINE('',#1545,#72);
#31=LINE('',#1546,#73);
#32=LINE('',#1557,#74);
#33=LINE('',#1558,#75);
#34=LINE('',#1570,#76);
#35=LINE('',#1571,#77);
#36=LINE('',#1582,#78);
#37=LINE('',#1583,#79);
#38=LINE('',#1594,#80);
#39=LINE('',#1595,#81);
#40=LINE('',#1607,#82);
#41=LINE('',#1608,#83);
#42=LINE('',#1619,#84);
#43=LINE('',#1620,#85);
#44=LINE('',#1631,#86);
#45=LINE('',#1632,#87);
#46=LINE('',#1644,#88);
#47=LINE('',#1645,#89);
#48=LINE('',#1656,#90);
#49=LINE('',#1657,#91);
#50=LINE('',#1668,#92);
#51=LINE('',#1669,#93);
#52=LINE('',#1681,#94);
#53=LINE('',#1682,#95);
#54=LINE('',#1693,#96);
#55=LINE('',#1694,#97);
#56=LINE('',#1705,#98);
#57=LINE('',#1706,#99);
#58=LINE('',#1734,#100);
#59=LINE('',#1738,#101);
#60=LINE('',#1742,#102);
#61=LINE('',#1746,#103);
#62=LINE('',#1750,#104);
#63=LINE('',#1754,#105);
#64=VECTOR('',#1148,1000.);
#65=VECTOR('',#1149,1000.);
#66=VECTOR('',#1162,1000.);
#67=VECTOR('',#1163,1000.);
#68=VECTOR('',#1176,1000.);
#69=VECTOR('',#1177,1000.);
#70=VECTOR('',#1192,1000.);
#71=VECTOR('',#1193,1000.);
#72=VECTOR('',#1206,1000.);
#73=VECTOR('',#1207,1000.);
#74=VECTOR('',#1220,1000.);
#75=VECTOR('',#1221,1000.);
#76=VECTOR('',#1236,1000.);
#77=VECTOR('',#1237,1000.);
#78=VECTOR('',#1250,1000.);
#79=VECTOR('',#1251,1000.);
#80=VECTOR('',#1264,1000.);
#81=VECTOR('',#1265,1000.);
#82=VECTOR('',#1280,1000.);
#83=VECTOR('',#1281,1000.);
#84=VECTOR('',#1294,1000.);
#85=VECTOR('',#1295,1000.);
#86=VECTOR('',#1308,1000.);
#87=VECTOR('',#1309,1000.);
#88=VECTOR('',#1324,1000.);
#89=VECTOR('',#1325,1000.);
#90=VECTOR('',#1338,1000.);
#91=VECTOR('',#1339,1000.);
#92=VECTOR('',#1352,1000.);
#93=VECTOR('',#1353,1000.);
#94=VECTOR('',#1368,1000.);
#95=VECTOR('',#1369,1000.);
#96=VECTOR('',#1382,1000.);
#97=VECTOR('',#1383,1000.);
#98=VECTOR('',#1396,1000.);
#99=VECTOR('',#1397,1000.);
#100=VECTOR('',#1432,1000.);
#101=VECTOR('',#1435,1000.);
#102=VECTOR('',#1438,1000.);
#103=VECTOR('',#1441,1000.);
#104=VECTOR('',#1444,1000.);
#105=VECTOR('',#1447,1000.);
#106=CYLINDRICAL_SURFACE('',#986,0.399999999999999);
#107=CYLINDRICAL_SURFACE('',#992,0.799999999999996);
#108=CYLINDRICAL_SURFACE('',#998,0.399999999999998);
#109=CYLINDRICAL_SURFACE('',#1005,0.399999999999999);
#110=CYLINDRICAL_SURFACE('',#1011,0.799999999999996);
#111=CYLINDRICAL_SURFACE('',#1017,0.399999999999998);
#112=CYLINDRICAL_SURFACE('',#1024,0.399999999999999);
#113=CYLINDRICAL_SURFACE('',#1030,0.799999999999996);
#114=CYLINDRICAL_SURFACE('',#1036,0.399999999999998);
#115=CYLINDRICAL_SURFACE('',#1043,0.399999999999999);
#116=CYLINDRICAL_SURFACE('',#1049,0.799999999999996);
#117=CYLINDRICAL_SURFACE('',#1055,0.399999999999998);
#118=CYLINDRICAL_SURFACE('',#1062,0.399999999999999);
#119=CYLINDRICAL_SURFACE('',#1068,0.799999999999996);
#120=CYLINDRICAL_SURFACE('',#1074,0.399999999999998);
#121=CYLINDRICAL_SURFACE('',#1081,0.399999999999999);
#122=CYLINDRICAL_SURFACE('',#1087,0.799999999999996);
#123=CYLINDRICAL_SURFACE('',#1093,0.399999999999998);
#124=CYLINDRICAL_SURFACE('',#1100,4.49999999999999);
#125=CYLINDRICAL_SURFACE('',#1106,2.49999999999999);
#126=CYLINDRICAL_SURFACE('',#1110,3.29999999999999);
#127=CYLINDRICAL_SURFACE('',#1120,2.49999999999999);
#128=CYLINDRICAL_SURFACE('',#1123,0.399999999999999);
#129=CYLINDRICAL_SURFACE('',#1127,0.799999999999996);
#130=CYLINDRICAL_SURFACE('',#1131,0.399999999999998);
#131=ORIENTED_EDGE('',*,*,#403,.T.);
#132=ORIENTED_EDGE('',*,*,#404,.T.);
#133=ORIENTED_EDGE('',*,*,#405,.T.);
#134=ORIENTED_EDGE('',*,*,#406,.T.);
#135=ORIENTED_EDGE('',*,*,#403,.F.);
#136=ORIENTED_EDGE('',*,*,#407,.T.);
#137=ORIENTED_EDGE('',*,*,#408,.T.);
#138=ORIENTED_EDGE('',*,*,#409,.T.);
#139=ORIENTED_EDGE('',*,*,#405,.F.);
#140=ORIENTED_EDGE('',*,*,#410,.T.);
#141=ORIENTED_EDGE('',*,*,#411,.T.);
#142=ORIENTED_EDGE('',*,*,#412,.T.);
#143=ORIENTED_EDGE('',*,*,#408,.F.);
#144=ORIENTED_EDGE('',*,*,#413,.T.);
#145=ORIENTED_EDGE('',*,*,#414,.T.);
#146=ORIENTED_EDGE('',*,*,#415,.T.);
#147=ORIENTED_EDGE('',*,*,#411,.F.);
#148=ORIENTED_EDGE('',*,*,#416,.T.);
#149=ORIENTED_EDGE('',*,*,#417,.T.);
#150=ORIENTED_EDGE('',*,*,#418,.T.);
#151=ORIENTED_EDGE('',*,*,#414,.F.);
#152=ORIENTED_EDGE('',*,*,#419,.T.);
#153=ORIENTED_EDGE('',*,*,#417,.F.);
#154=ORIENTED_EDGE('',*,*,#420,.T.);
#155=ORIENTED_EDGE('',*,*,#421,.T.);
#156=ORIENTED_EDGE('',*,*,#422,.T.);
#157=ORIENTED_EDGE('',*,*,#423,.T.);
#158=ORIENTED_EDGE('',*,*,#424,.T.);
#159=ORIENTED_EDGE('',*,*,#421,.F.);
#160=ORIENTED_EDGE('',*,*,#425,.T.);
#161=ORIENTED_EDGE('',*,*,#426,.T.);
#162=ORIENTED_EDGE('',*,*,#427,.T.);
#163=ORIENTED_EDGE('',*,*,#423,.F.);
#164=ORIENTED_EDGE('',*,*,#428,.T.);
#165=ORIENTED_EDGE('',*,*,#429,.T.);
#166=ORIENTED_EDGE('',*,*,#430,.T.);
#167=ORIENTED_EDGE('',*,*,#426,.F.);
#168=ORIENTED_EDGE('',*,*,#431,.T.);
#169=ORIENTED_EDGE('',*,*,#432,.T.);
#170=ORIENTED_EDGE('',*,*,#433,.T.);
#171=ORIENTED_EDGE('',*,*,#429,.F.);
#172=ORIENTED_EDGE('',*,*,#434,.T.);
#173=ORIENTED_EDGE('',*,*,#435,.T.);
#174=ORIENTED_EDGE('',*,*,#436,.T.);
#175=ORIENTED_EDGE('',*,*,#432,.F.);
#176=ORIENTED_EDGE('',*,*,#437,.T.);
#177=ORIENTED_EDGE('',*,*,#435,.F.);
#178=ORIENTED_EDGE('',*,*,#438,.T.);
#179=ORIENTED_EDGE('',*,*,#439,.T.);
#180=ORIENTED_EDGE('',*,*,#440,.T.);
#181=ORIENTED_EDGE('',*,*,#441,.T.);
#182=ORIENTED_EDGE('',*,*,#442,.T.);
#183=ORIENTED_EDGE('',*,*,#439,.F.);
#184=ORIENTED_EDGE('',*,*,#443,.T.);
#185=ORIENTED_EDGE('',*,*,#444,.T.);
#186=ORIENTED_EDGE('',*,*,#445,.T.);
#187=ORIENTED_EDGE('',*,*,#441,.F.);
#188=ORIENTED_EDGE('',*,*,#446,.T.);
#189=ORIENTED_EDGE('',*,*,#447,.T.);
#190=ORIENTED_EDGE('',*,*,#448,.T.);
#191=ORIENTED_EDGE('',*,*,#444,.F.);
#192=ORIENTED_EDGE('',*,*,#449,.T.);
#193=ORIENTED_EDGE('',*,*,#450,.T.);
#194=ORIENTED_EDGE('',*,*,#451,.T.);
#195=ORIENTED_EDGE('',*,*,#447,.F.);
#196=ORIENTED_EDGE('',*,*,#452,.T.);
#197=ORIENTED_EDGE('',*,*,#453,.T.);
#198=ORIENTED_EDGE('',*,*,#454,.T.);
#199=ORIENTED_EDGE('',*,*,#450,.F.);
#200=ORIENTED_EDGE('',*,*,#455,.T.);
#201=ORIENTED_EDGE('',*,*,#453,.F.);
#202=ORIENTED_EDGE('',*,*,#456,.T.);
#203=ORIENTED_EDGE('',*,*,#457,.T.);
#204=ORIENTED_EDGE('',*,*,#458,.T.);
#205=ORIENTED_EDGE('',*,*,#459,.T.);
#206=ORIENTED_EDGE('',*,*,#460,.T.);
#207=ORIENTED_EDGE('',*,*,#457,.F.);
#208=ORIENTED_EDGE('',*,*,#461,.T.);
#209=ORIENTED_EDGE('',*,*,#462,.T.);
#210=ORIENTED_EDGE('',*,*,#463,.T.);
#211=ORIENTED_EDGE('',*,*,#459,.F.);
#212=ORIENTED_EDGE('',*,*,#464,.T.);
#213=ORIENTED_EDGE('',*,*,#465,.T.);
#214=ORIENTED_EDGE('',*,*,#466,.T.);
#215=ORIENTED_EDGE('',*,*,#462,.F.);
#216=ORIENTED_EDGE('',*,*,#467,.T.);
#217=ORIENTED_EDGE('',*,*,#468,.T.);
#218=ORIENTED_EDGE('',*,*,#469,.T.);
#219=ORIENTED_EDGE('',*,*,#465,.F.);
#220=ORIENTED_EDGE('',*,*,#470,.T.);
#221=ORIENTED_EDGE('',*,*,#471,.T.);
#222=ORIENTED_EDGE('',*,*,#472,.T.);
#223=ORIENTED_EDGE('',*,*,#468,.F.);
#224=ORIENTED_EDGE('',*,*,#473,.T.);
#225=ORIENTED_EDGE('',*,*,#471,.F.);
#226=ORIENTED_EDGE('',*,*,#474,.T.);
#227=ORIENTED_EDGE('',*,*,#475,.T.);
#228=ORIENTED_EDGE('',*,*,#476,.T.);
#229=ORIENTED_EDGE('',*,*,#477,.T.);
#230=ORIENTED_EDGE('',*,*,#478,.T.);
#231=ORIENTED_EDGE('',*,*,#475,.F.);
#232=ORIENTED_EDGE('',*,*,#479,.T.);
#233=ORIENTED_EDGE('',*,*,#480,.T.);
#234=ORIENTED_EDGE('',*,*,#481,.T.);
#235=ORIENTED_EDGE('',*,*,#477,.F.);
#236=ORIENTED_EDGE('',*,*,#482,.T.);
#237=ORIENTED_EDGE('',*,*,#483,.T.);
#238=ORIENTED_EDGE('',*,*,#484,.T.);
#239=ORIENTED_EDGE('',*,*,#480,.F.);
#240=ORIENTED_EDGE('',*,*,#485,.T.);
#241=ORIENTED_EDGE('',*,*,#486,.T.);
#242=ORIENTED_EDGE('',*,*,#487,.T.);
#243=ORIENTED_EDGE('',*,*,#483,.F.);
#244=ORIENTED_EDGE('',*,*,#488,.T.);
#245=ORIENTED_EDGE('',*,*,#489,.T.);
#246=ORIENTED_EDGE('',*,*,#490,.T.);
#247=ORIENTED_EDGE('',*,*,#486,.F.);
#248=ORIENTED_EDGE('',*,*,#491,.T.);
#249=ORIENTED_EDGE('',*,*,#489,.F.);
#250=ORIENTED_EDGE('',*,*,#492,.T.);
#251=ORIENTED_EDGE('',*,*,#493,.T.);
#252=ORIENTED_EDGE('',*,*,#494,.T.);
#253=ORIENTED_EDGE('',*,*,#495,.T.);
#254=ORIENTED_EDGE('',*,*,#496,.T.);
#255=ORIENTED_EDGE('',*,*,#493,.F.);
#256=ORIENTED_EDGE('',*,*,#497,.T.);
#257=ORIENTED_EDGE('',*,*,#498,.T.);
#258=ORIENTED_EDGE('',*,*,#499,.T.);
#259=ORIENTED_EDGE('',*,*,#495,.F.);
#260=ORIENTED_EDGE('',*,*,#500,.T.);
#261=ORIENTED_EDGE('',*,*,#501,.T.);
#262=ORIENTED_EDGE('',*,*,#502,.T.);
#263=ORIENTED_EDGE('',*,*,#498,.F.);
#264=ORIENTED_EDGE('',*,*,#503,.T.);
#265=ORIENTED_EDGE('',*,*,#504,.T.);
#266=ORIENTED_EDGE('',*,*,#505,.T.);
#267=ORIENTED_EDGE('',*,*,#501,.F.);
#268=ORIENTED_EDGE('',*,*,#506,.T.);
#269=ORIENTED_EDGE('',*,*,#507,.T.);
#270=ORIENTED_EDGE('',*,*,#508,.T.);
#271=ORIENTED_EDGE('',*,*,#504,.F.);
#272=ORIENTED_EDGE('',*,*,#509,.T.);
#273=ORIENTED_EDGE('',*,*,#507,.F.);
#274=ORIENTED_EDGE('',*,*,#510,.T.);
#275=ORIENTED_EDGE('',*,*,#511,.T.);
#276=ORIENTED_EDGE('',*,*,#512,.F.);
#277=ORIENTED_EDGE('',*,*,#513,.T.);
#278=ORIENTED_EDGE('',*,*,#514,.T.);
#279=ORIENTED_EDGE('',*,*,#515,.T.);
#280=ORIENTED_EDGE('',*,*,#516,.T.);
#281=ORIENTED_EDGE('',*,*,#517,.T.);
#282=ORIENTED_EDGE('',*,*,#516,.F.);
#283=ORIENTED_EDGE('',*,*,#518,.T.);
#284=ORIENTED_EDGE('',*,*,#517,.F.);
#285=ORIENTED_EDGE('',*,*,#519,.F.);
#286=ORIENTED_EDGE('',*,*,#520,.F.);
#287=ORIENTED_EDGE('',*,*,#521,.F.);
#288=ORIENTED_EDGE('',*,*,#522,.F.);
#289=ORIENTED_EDGE('',*,*,#523,.F.);
#290=ORIENTED_EDGE('',*,*,#524,.F.);
#291=ORIENTED_EDGE('',*,*,#525,.F.);
#292=ORIENTED_EDGE('',*,*,#526,.F.);
#293=ORIENTED_EDGE('',*,*,#527,.F.);
#294=ORIENTED_EDGE('',*,*,#528,.F.);
#295=ORIENTED_EDGE('',*,*,#529,.F.);
#296=ORIENTED_EDGE('',*,*,#530,.F.);
#297=ORIENTED_EDGE('',*,*,#531,.T.);
#298=ORIENTED_EDGE('',*,*,#518,.F.);
#299=ORIENTED_EDGE('',*,*,#494,.F.);
#300=ORIENTED_EDGE('',*,*,#496,.F.);
#301=ORIENTED_EDGE('',*,*,#499,.F.);
#302=ORIENTED_EDGE('',*,*,#502,.F.);
#303=ORIENTED_EDGE('',*,*,#505,.F.);
#304=ORIENTED_EDGE('',*,*,#508,.F.);
#305=ORIENTED_EDGE('',*,*,#510,.F.);
#306=ORIENTED_EDGE('',*,*,#509,.F.);
#307=ORIENTED_EDGE('',*,*,#506,.F.);
#308=ORIENTED_EDGE('',*,*,#503,.F.);
#309=ORIENTED_EDGE('',*,*,#500,.F.);
#310=ORIENTED_EDGE('',*,*,#497,.F.);
#311=ORIENTED_EDGE('',*,*,#476,.F.);
#312=ORIENTED_EDGE('',*,*,#478,.F.);
#313=ORIENTED_EDGE('',*,*,#481,.F.);
#314=ORIENTED_EDGE('',*,*,#484,.F.);
#315=ORIENTED_EDGE('',*,*,#487,.F.);
#316=ORIENTED_EDGE('',*,*,#490,.F.);
#317=ORIENTED_EDGE('',*,*,#492,.F.);
#318=ORIENTED_EDGE('',*,*,#491,.F.);
#319=ORIENTED_EDGE('',*,*,#488,.F.);
#320=ORIENTED_EDGE('',*,*,#485,.F.);
#321=ORIENTED_EDGE('',*,*,#482,.F.);
#322=ORIENTED_EDGE('',*,*,#479,.F.);
#323=ORIENTED_EDGE('',*,*,#458,.F.);
#324=ORIENTED_EDGE('',*,*,#460,.F.);
#325=ORIENTED_EDGE('',*,*,#463,.F.);
#326=ORIENTED_EDGE('',*,*,#466,.F.);
#327=ORIENTED_EDGE('',*,*,#469,.F.);
#328=ORIENTED_EDGE('',*,*,#472,.F.);
#329=ORIENTED_EDGE('',*,*,#474,.F.);
#330=ORIENTED_EDGE('',*,*,#473,.F.);
#331=ORIENTED_EDGE('',*,*,#470,.F.);
#332=ORIENTED_EDGE('',*,*,#467,.F.);
#333=ORIENTED_EDGE('',*,*,#464,.F.);
#334=ORIENTED_EDGE('',*,*,#461,.F.);
#335=ORIENTED_EDGE('',*,*,#440,.F.);
#336=ORIENTED_EDGE('',*,*,#442,.F.);
#337=ORIENTED_EDGE('',*,*,#445,.F.);
#338=ORIENTED_EDGE('',*,*,#448,.F.);
#339=ORIENTED_EDGE('',*,*,#451,.F.);
#340=ORIENTED_EDGE('',*,*,#454,.F.);
#341=ORIENTED_EDGE('',*,*,#456,.F.);
#342=ORIENTED_EDGE('',*,*,#455,.F.);
#343=ORIENTED_EDGE('',*,*,#452,.F.);
#344=ORIENTED_EDGE('',*,*,#449,.F.);
#345=ORIENTED_EDGE('',*,*,#446,.F.);
#346=ORIENTED_EDGE('',*,*,#443,.F.);
#347=ORIENTED_EDGE('',*,*,#422,.F.);
#348=ORIENTED_EDGE('',*,*,#424,.F.);
#349=ORIENTED_EDGE('',*,*,#427,.F.);
#350=ORIENTED_EDGE('',*,*,#430,.F.);
#351=ORIENTED_EDGE('',*,*,#433,.F.);
#352=ORIENTED_EDGE('',*,*,#436,.F.);
#353=ORIENTED_EDGE('',*,*,#438,.F.);
#354=ORIENTED_EDGE('',*,*,#437,.F.);
#355=ORIENTED_EDGE('',*,*,#434,.F.);
#356=ORIENTED_EDGE('',*,*,#431,.F.);
#357=ORIENTED_EDGE('',*,*,#428,.F.);
#358=ORIENTED_EDGE('',*,*,#425,.F.);
#359=ORIENTED_EDGE('',*,*,#404,.F.);
#360=ORIENTED_EDGE('',*,*,#406,.F.);
#361=ORIENTED_EDGE('',*,*,#409,.F.);
#362=ORIENTED_EDGE('',*,*,#412,.F.);
#363=ORIENTED_EDGE('',*,*,#415,.F.);
#364=ORIENTED_EDGE('',*,*,#418,.F.);
#365=ORIENTED_EDGE('',*,*,#420,.F.);
#366=ORIENTED_EDGE('',*,*,#419,.F.);
#367=ORIENTED_EDGE('',*,*,#416,.F.);
#368=ORIENTED_EDGE('',*,*,#413,.F.);
#369=ORIENTED_EDGE('',*,*,#410,.F.);
#370=ORIENTED_EDGE('',*,*,#407,.F.);
#371=ORIENTED_EDGE('',*,*,#532,.T.);
#372=ORIENTED_EDGE('',*,*,#531,.F.);
#373=ORIENTED_EDGE('',*,*,#512,.T.);
#374=ORIENTED_EDGE('',*,*,#532,.F.);
#375=ORIENTED_EDGE('',*,*,#533,.T.);
#376=ORIENTED_EDGE('',*,*,#519,.T.);
#377=ORIENTED_EDGE('',*,*,#534,.T.);
#378=ORIENTED_EDGE('',*,*,#520,.T.);
#379=ORIENTED_EDGE('',*,*,#533,.F.);
#380=ORIENTED_EDGE('',*,*,#530,.T.);
#381=ORIENTED_EDGE('',*,*,#535,.T.);
#382=ORIENTED_EDGE('',*,*,#521,.T.);
#383=ORIENTED_EDGE('',*,*,#534,.F.);
#384=ORIENTED_EDGE('',*,*,#529,.T.);
#385=ORIENTED_EDGE('',*,*,#536,.T.);
#386=ORIENTED_EDGE('',*,*,#522,.T.);
#387=ORIENTED_EDGE('',*,*,#535,.F.);
#388=ORIENTED_EDGE('',*,*,#528,.T.);
#389=ORIENTED_EDGE('',*,*,#537,.T.);
#390=ORIENTED_EDGE('',*,*,#523,.T.);
#391=ORIENTED_EDGE('',*,*,#536,.F.);
#392=ORIENTED_EDGE('',*,*,#527,.T.);
#393=ORIENTED_EDGE('',*,*,#538,.T.);
#394=ORIENTED_EDGE('',*,*,#524,.T.);
#395=ORIENTED_EDGE('',*,*,#537,.F.);
#396=ORIENTED_EDGE('',*,*,#526,.T.);
#397=ORIENTED_EDGE('',*,*,#538,.F.);
#398=ORIENTED_EDGE('',*,*,#525,.T.);
#399=ORIENTED_EDGE('',*,*,#515,.F.);
#400=ORIENTED_EDGE('',*,*,#514,.F.);
#401=ORIENTED_EDGE('',*,*,#513,.F.);
#402=ORIENTED_EDGE('',*,*,#511,.F.);
#403=EDGE_CURVE('',#539,#540,#633,.T.);
#404=EDGE_CURVE('',#540,#539,#634,.T.);
#405=EDGE_CURVE('',#541,#542,#635,.T.);
#406=EDGE_CURVE('',#542,#540,#22,.T.);
#407=EDGE_CURVE('',#539,#541,#23,.F.);
#408=EDGE_CURVE('',#543,#544,#636,.T.);
#409=EDGE_CURVE('',#544,#542,#637,.T.);
#410=EDGE_CURVE('',#541,#543,#638,.T.);
#411=EDGE_CURVE('',#545,#546,#639,.T.);
#412=EDGE_CURVE('',#546,#544,#24,.T.);
#413=EDGE_CURVE('',#543,#545,#25,.F.);
#414=EDGE_CURVE('',#547,#548,#640,.T.);
#415=EDGE_CURVE('',#548,#546,#641,.T.);
#416=EDGE_CURVE('',#545,#547,#642,.T.);
#417=EDGE_CURVE('',#549,#550,#643,.T.);
#418=EDGE_CURVE('',#550,#548,#26,.T.);
#419=EDGE_CURVE('',#547,#549,#27,.F.);
#420=EDGE_CURVE('',#549,#550,#644,.T.);
#421=EDGE_CURVE('',#551,#552,#645,.T.);
#422=EDGE_CURVE('',#552,#551,#646,.T.);
#423=EDGE_CURVE('',#553,#554,#647,.T.);
#424=EDGE_CURVE('',#554,#552,#28,.T.);
#425=EDGE_CURVE('',#551,#553,#29,.F.);
#426=EDGE_CURVE('',#555,#556,#648,.T.);
#427=EDGE_CURVE('',#556,#554,#649,.T.);
#428=EDGE_CURVE('',#553,#555,#650,.T.);
#429=EDGE_CURVE('',#557,#558,#651,.T.);
#430=EDGE_CURVE('',#558,#556,#30,.T.);
#431=EDGE_CURVE('',#555,#557,#31,.F.);
#432=EDGE_CURVE('',#559,#560,#652,.T.);
#433=EDGE_CURVE('',#560,#558,#653,.T.);
#434=EDGE_CURVE('',#557,#559,#654,.T.);
#435=EDGE_CURVE('',#561,#562,#655,.T.);
#436=EDGE_CURVE('',#562,#560,#32,.T.);
#437=EDGE_CURVE('',#559,#561,#33,.F.);
#438=EDGE_CURVE('',#561,#562,#656,.T.);
#439=EDGE_CURVE('',#563,#564,#657,.T.);
#440=EDGE_CURVE('',#564,#563,#658,.T.);
#441=EDGE_CURVE('',#565,#566,#659,.T.);
#442=EDGE_CURVE('',#566,#564,#34,.T.);
#443=EDGE_CURVE('',#563,#565,#35,.F.);
#444=EDGE_CURVE('',#567,#568,#660,.T.);
#445=EDGE_CURVE('',#568,#566,#661,.T.);
#446=EDGE_CURVE('',#565,#567,#662,.T.);
#447=EDGE_CURVE('',#569,#570,#663,.T.);
#448=EDGE_CURVE('',#570,#568,#36,.T.);
#449=EDGE_CURVE('',#567,#569,#37,.F.);
#450=EDGE_CURVE('',#571,#572,#664,.T.);
#451=EDGE_CURVE('',#572,#570,#665,.T.);
#452=EDGE_CURVE('',#569,#571,#666,.T.);
#453=EDGE_CURVE('',#573,#574,#667,.T.);
#454=EDGE_CURVE('',#574,#572,#38,.T.);
#455=EDGE_CURVE('',#571,#573,#39,.F.);
#456=EDGE_CURVE('',#573,#574,#668,.T.);
#457=EDGE_CURVE('',#575,#576,#669,.T.);
#458=EDGE_CURVE('',#576,#575,#670,.T.);
#459=EDGE_CURVE('',#577,#578,#671,.T.);
#460=EDGE_CURVE('',#578,#576,#40,.T.);
#461=EDGE_CURVE('',#575,#577,#41,.F.);
#462=EDGE_CURVE('',#579,#580,#672,.T.);
#463=EDGE_CURVE('',#580,#578,#673,.T.);
#464=EDGE_CURVE('',#577,#579,#674,.T.);
#465=EDGE_CURVE('',#581,#582,#675,.T.);
#466=EDGE_CURVE('',#582,#580,#42,.T.);
#467=EDGE_CURVE('',#579,#581,#43,.F.);
#468=EDGE_CURVE('',#583,#584,#676,.T.);
#469=EDGE_CURVE('',#584,#582,#677,.T.);
#470=EDGE_CURVE('',#581,#583,#678,.T.);
#471=EDGE_CURVE('',#585,#586,#679,.T.);
#472=EDGE_CURVE('',#586,#584,#44,.T.);
#473=EDGE_CURVE('',#583,#585,#45,.F.);
#474=EDGE_CURVE('',#585,#586,#680,.T.);
#475=EDGE_CURVE('',#587,#588,#681,.T.);
#476=EDGE_CURVE('',#588,#587,#682,.T.);
#477=EDGE_CURVE('',#589,#590,#683,.T.);
#478=EDGE_CURVE('',#590,#588,#46,.T.);
#479=EDGE_CURVE('',#587,#589,#47,.F.);
#480=EDGE_CURVE('',#591,#592,#684,.T.);
#481=EDGE_CURVE('',#592,#590,#685,.T.);
#482=EDGE_CURVE('',#589,#591,#686,.T.);
#483=EDGE_CURVE('',#593,#594,#687,.T.);
#484=EDGE_CURVE('',#594,#592,#48,.T.);
#485=EDGE_CURVE('',#591,#593,#49,.F.);
#486=EDGE_CURVE('',#595,#596,#688,.T.);
#487=EDGE_CURVE('',#596,#594,#689,.T.);
#488=EDGE_CURVE('',#593,#595,#690,.T.);
#489=EDGE_CURVE('',#597,#598,#691,.T.);
#490=EDGE_CURVE('',#598,#596,#50,.T.);
#491=EDGE_CURVE('',#595,#597,#51,.F.);
#492=EDGE_CURVE('',#597,#598,#692,.T.);
#493=EDGE_CURVE('',#599,#600,#693,.T.);
#494=EDGE_CURVE('',#600,#599,#694,.T.);
#495=EDGE_CURVE('',#601,#602,#695,.T.);
#496=EDGE_CURVE('',#602,#600,#52,.T.);
#497=EDGE_CURVE('',#599,#601,#53,.F.);
#498=EDGE_CURVE('',#603,#604,#696,.T.);
#499=EDGE_CURVE('',#604,#602,#697,.T.);
#500=EDGE_CURVE('',#601,#603,#698,.T.);
#501=EDGE_CURVE('',#605,#606,#699,.T.);
#502=EDGE_CURVE('',#606,#604,#54,.T.);
#503=EDGE_CURVE('',#603,#605,#55,.F.);
#504=EDGE_CURVE('',#607,#608,#700,.T.);
#505=EDGE_CURVE('',#608,#606,#701,.T.);
#506=EDGE_CURVE('',#605,#607,#702,.T.);
#507=EDGE_CURVE('',#609,#610,#703,.T.);
#508=EDGE_CURVE('',#610,#608,#56,.T.);
#509=EDGE_CURVE('',#607,#609,#57,.F.);
#510=EDGE_CURVE('',#609,#610,#704,.T.);
#511=EDGE_CURVE('',#611,#611,#705,.T.);
#512=EDGE_CURVE('',#612,#612,#706,.T.);
#513=EDGE_CURVE('',#613,#613,#707,.F.);
#514=EDGE_CURVE('',#614,#614,#708,.F.);
#515=EDGE_CURVE('',#615,#615,#709,.T.);
#516=EDGE_CURVE('',#616,#616,#710,.T.);
#517=EDGE_CURVE('',#617,#617,#711,.T.);
#518=EDGE_CURVE('',#618,#618,#712,.T.);
#519=EDGE_CURVE('',#619,#620,#713,.T.);
#520=EDGE_CURVE('',#621,#619,#58,.T.);
#521=EDGE_CURVE('',#622,#621,#714,.T.);
#522=EDGE_CURVE('',#623,#622,#59,.T.);
#523=EDGE_CURVE('',#624,#623,#715,.T.);
#524=EDGE_CURVE('',#625,#624,#60,.T.);
#525=EDGE_CURVE('',#626,#625,#716,.T.);
#526=EDGE_CURVE('',#627,#626,#61,.F.);
#527=EDGE_CURVE('',#628,#627,#717,.T.);
#528=EDGE_CURVE('',#629,#628,#62,.F.);
#529=EDGE_CURVE('',#630,#629,#718,.T.);
#530=EDGE_CURVE('',#620,#630,#63,.F.);
#531=EDGE_CURVE('',#631,#631,#719,.T.);
#532=EDGE_CURVE('',#632,#632,#720,.T.);
#533=EDGE_CURVE('',#620,#619,#721,.T.);
#534=EDGE_CURVE('',#630,#621,#722,.T.);
#535=EDGE_CURVE('',#629,#622,#723,.T.);
#536=EDGE_CURVE('',#628,#623,#724,.T.);
#537=EDGE_CURVE('',#627,#624,#725,.T.);
#538=EDGE_CURVE('',#626,#625,#726,.T.);
#539=VERTEX_POINT('',#1489);
#540=VERTEX_POINT('',#1490);
#541=VERTEX_POINT('',#1494);
#542=VERTEX_POINT('',#1495);
#543=VERTEX_POINT('',#1500);
#544=VERTEX_POINT('',#1501);
#545=VERTEX_POINT('',#1506);
#546=VERTEX_POINT('',#1507);
#547=VERTEX_POINT('',#1512);
#548=VERTEX_POINT('',#1513);
#549=VERTEX_POINT('',#1518);
#550=VERTEX_POINT('',#1519);
#551=VERTEX_POINT('',#1526);
#552=VERTEX_POINT('',#1527);
#553=VERTEX_POINT('',#1531);
#554=VERTEX_POINT('',#1532);
#555=VERTEX_POINT('',#1537);
#556=VERTEX_POINT('',#1538);
#557=VERTEX_POINT('',#1543);
#558=VERTEX_POINT('',#1544);
#559=VERTEX_POINT('',#1549);
#560=VERTEX_POINT('',#1550);
#561=VERTEX_POINT('',#1555);
#562=VERTEX_POINT('',#1556);
#563=VERTEX_POINT('',#1563);
#564=VERTEX_POINT('',#1564);
#565=VERTEX_POINT('',#1568);
#566=VERTEX_POINT('',#1569);
#567=VERTEX_POINT('',#1574);
#568=VERTEX_POINT('',#1575);
#569=VERTEX_POINT('',#1580);
#570=VERTEX_POINT('',#1581);
#571=VERTEX_POINT('',#1586);
#572=VERTEX_POINT('',#1587);
#573=VERTEX_POINT('',#1592);
#574=VERTEX_POINT('',#1593);
#575=VERTEX_POINT('',#1600);
#576=VERTEX_POINT('',#1601);
#577=VERTEX_POINT('',#1605);
#578=VERTEX_POINT('',#1606);
#579=VERTEX_POINT('',#1611);
#580=VERTEX_POINT('',#1612);
#581=VERTEX_POINT('',#1617);
#582=VERTEX_POINT('',#1618);
#583=VERTEX_POINT('',#1623);
#584=VERTEX_POINT('',#1624);
#585=VERTEX_POINT('',#1629);
#586=VERTEX_POINT('',#1630);
#587=VERTEX_POINT('',#1637);
#588=VERTEX_POINT('',#1638);
#589=VERTEX_POINT('',#1642);
#590=VERTEX_POINT('',#1643);
#591=VERTEX_POINT('',#1648);
#592=VERTEX_POINT('',#1649);
#593=VERTEX_POINT('',#1654);
#594=VERTEX_POINT('',#1655);
#595=VERTEX_POINT('',#1660);
#596=VERTEX_POINT('',#1661);
#597=VERTEX_POINT('',#1666);
#598=VERTEX_POINT('',#1667);
#599=VERTEX_POINT('',#1674);
#600=VERTEX_POINT('',#1675);
#601=VERTEX_POINT('',#1679);
#602=VERTEX_POINT('',#1680);
#603=VERTEX_POINT('',#1685);
#604=VERTEX_POINT('',#1686);
#605=VERTEX_POINT('',#1691);
#606=VERTEX_POINT('',#1692);
#607=VERTEX_POINT('',#1697);
#608=VERTEX_POINT('',#1698);
#609=VERTEX_POINT('',#1703);
#610=VERTEX_POINT('',#1704);
#611=VERTEX_POINT('',#1711);
#612=VERTEX_POINT('',#1713);
#613=VERTEX_POINT('',#1716);
#614=VERTEX_POINT('',#1718);
#615=VERTEX_POINT('',#1721);
#616=VERTEX_POINT('',#1723);
#617=VERTEX_POINT('',#1726);
#618=VERTEX_POINT('',#1729);
#619=VERTEX_POINT('',#1732);
#620=VERTEX_POINT('',#1733);
#621=VERTEX_POINT('',#1735);
#622=VERTEX_POINT('',#1737);
#623=VERTEX_POINT('',#1739);
#624=VERTEX_POINT('',#1741);
#625=VERTEX_POINT('',#1743);
#626=VERTEX_POINT('',#1745);
#627=VERTEX_POINT('',#1747);
#628=VERTEX_POINT('',#1749);
#629=VERTEX_POINT('',#1751);
#630=VERTEX_POINT('',#1753);
#631=VERTEX_POINT('',#1756);
#632=VERTEX_POINT('',#1759);
#633=CIRCLE('',#984,0.399999999999999);
#634=CIRCLE('',#985,3.29999999999999);
#635=CIRCLE('',#987,0.399999999999999);
#636=CIRCLE('',#989,0.799999999999998);
#637=CIRCLE('',#990,3.29999999999999);
#638=CIRCLE('',#991,3.29999999999999);
#639=CIRCLE('',#993,0.799999999999995);
#640=CIRCLE('',#995,0.399999999999998);
#641=CIRCLE('',#996,3.29999999999999);
#642=CIRCLE('',#997,3.29999999999999);
#643=CIRCLE('',#999,0.399999999999998);
#644=CIRCLE('',#1001,3.29999999999999);
#645=CIRCLE('',#1003,0.399999999999999);
#646=CIRCLE('',#1004,3.29999999999999);
#647=CIRCLE('',#1006,0.399999999999999);
#648=CIRCLE('',#1008,0.799999999999998);
#649=CIRCLE('',#1009,3.29999999999999);
#650=CIRCLE('',#1010,3.29999999999999);
#651=CIRCLE('',#1012,0.799999999999995);
#652=CIRCLE('',#1014,0.399999999999998);
#653=CIRCLE('',#1015,3.29999999999999);
#654=CIRCLE('',#1016,3.29999999999999);
#655=CIRCLE('',#1018,0.399999999999998);
#656=CIRCLE('',#1020,3.29999999999999);
#657=CIRCLE('',#1022,0.399999999999999);
#658=CIRCLE('',#1023,3.29999999999999);
#659=CIRCLE('',#1025,0.399999999999999);
#660=CIRCLE('',#1027,0.799999999999998);
#661=CIRCLE('',#1028,3.29999999999999);
#662=CIRCLE('',#1029,3.29999999999999);
#663=CIRCLE('',#1031,0.799999999999995);
#664=CIRCLE('',#1033,0.399999999999998);
#665=CIRCLE('',#1034,3.29999999999999);
#666=CIRCLE('',#1035,3.29999999999999);
#667=CIRCLE('',#1037,0.399999999999998);
#668=CIRCLE('',#1039,3.29999999999999);
#669=CIRCLE('',#1041,0.399999999999999);
#670=CIRCLE('',#1042,3.29999999999999);
#671=CIRCLE('',#1044,0.399999999999999);
#672=CIRCLE('',#1046,0.799999999999998);
#673=CIRCLE('',#1047,3.29999999999999);
#674=CIRCLE('',#1048,3.29999999999999);
#675=CIRCLE('',#1050,0.799999999999995);
#676=CIRCLE('',#1052,0.399999999999998);
#677=CIRCLE('',#1053,3.29999999999999);
#678=CIRCLE('',#1054,3.29999999999999);
#679=CIRCLE('',#1056,0.399999999999998);
#680=CIRCLE('',#1058,3.29999999999999);
#681=CIRCLE('',#1060,0.399999999999999);
#682=CIRCLE('',#1061,3.29999999999999);
#683=CIRCLE('',#1063,0.399999999999999);
#684=CIRCLE('',#1065,0.799999999999998);
#685=CIRCLE('',#1066,3.29999999999999);
#686=CIRCLE('',#1067,3.29999999999999);
#687=CIRCLE('',#1069,0.799999999999995);
#688=CIRCLE('',#1071,0.399999999999998);
#689=CIRCLE('',#1072,3.29999999999999);
#690=CIRCLE('',#1073,3.29999999999999);
#691=CIRCLE('',#1075,0.399999999999998);
#692=CIRCLE('',#1077,3.29999999999999);
#693=CIRCLE('',#1079,0.399999999999999);
#694=CIRCLE('',#1080,3.29999999999999);
#695=CIRCLE('',#1082,0.399999999999999);
#696=CIRCLE('',#1084,0.799999999999998);
#697=CIRCLE('',#1085,3.29999999999999);
#698=CIRCLE('',#1086,3.29999999999999);
#699=CIRCLE('',#1088,0.799999999999995);
#700=CIRCLE('',#1090,0.399999999999998);
#701=CIRCLE('',#1091,3.29999999999999);
#702=CIRCLE('',#1092,3.29999999999999);
#703=CIRCLE('',#1094,0.399999999999998);
#704=CIRCLE('',#1096,3.29999999999999);
#705=CIRCLE('',#1098,4.09999999999999);
#706=CIRCLE('',#1099,2.49999999999999);
#707=CIRCLE('',#1101,4.49999999999999);
#708=CIRCLE('',#1102,4.49999999999999);
#709=CIRCLE('',#1104,4.09999999999999);
#710=CIRCLE('',#1105,2.49999999999999);
#711=CIRCLE('',#1107,2.49999999999999);
#712=CIRCLE('',#1109,3.29999999999999);
#713=CIRCLE('',#1111,3.29999999999999);
#714=CIRCLE('',#1112,3.29999999999999);
#715=CIRCLE('',#1113,3.29999999999999);
#716=CIRCLE('',#1114,3.29999999999999);
#717=CIRCLE('',#1115,3.29999999999999);
#718=CIRCLE('',#1116,3.29999999999999);
#719=CIRCLE('',#1117,3.29999999999999);
#720=CIRCLE('',#1119,2.49999999999999);
#721=CIRCLE('',#1122,0.399999999999999);
#722=CIRCLE('',#1124,0.399999999999999);
#723=CIRCLE('',#1126,0.799999999999998);
#724=CIRCLE('',#1128,0.799999999999995);
#725=CIRCLE('',#1130,0.399999999999998);
#726=CIRCLE('',#1132,0.399999999999998);
#727=EDGE_LOOP('',(#131,#132));
#728=EDGE_LOOP('',(#133,#134,#135,#136));
#729=EDGE_LOOP('',(#137,#138,#139,#140));
#730=EDGE_LOOP('',(#141,#142,#143,#144));
#731=EDGE_LOOP('',(#145,#146,#147,#148));
#732=EDGE_LOOP('',(#149,#150,#151,#152));
#733=EDGE_LOOP('',(#153,#154));
#734=EDGE_LOOP('',(#155,#156));
#735=EDGE_LOOP('',(#157,#158,#159,#160));
#736=EDGE_LOOP('',(#161,#162,#163,#164));
#737=EDGE_LOOP('',(#165,#166,#167,#168));
#738=EDGE_LOOP('',(#169,#170,#171,#172));
#739=EDGE_LOOP('',(#173,#174,#175,#176));
#740=EDGE_LOOP('',(#177,#178));
#741=EDGE_LOOP('',(#179,#180));
#742=EDGE_LOOP('',(#181,#182,#183,#184));
#743=EDGE_LOOP('',(#185,#186,#187,#188));
#744=EDGE_LOOP('',(#189,#190,#191,#192));
#745=EDGE_LOOP('',(#193,#194,#195,#196));
#746=EDGE_LOOP('',(#197,#198,#199,#200));
#747=EDGE_LOOP('',(#201,#202));
#748=EDGE_LOOP('',(#203,#204));
#749=EDGE_LOOP('',(#205,#206,#207,#208));
#750=EDGE_LOOP('',(#209,#210,#211,#212));
#751=EDGE_LOOP('',(#213,#214,#215,#216));
#752=EDGE_LOOP('',(#217,#218,#219,#220));
#753=EDGE_LOOP('',(#221,#222,#223,#224));
#754=EDGE_LOOP('',(#225,#226));
#755=EDGE_LOOP('',(#227,#228));
#756=EDGE_LOOP('',(#229,#230,#231,#232));
#757=EDGE_LOOP('',(#233,#234,#235,#236));
#758=EDGE_LOOP('',(#237,#238,#239,#240));
#759=EDGE_LOOP('',(#241,#242,#243,#244));
#760=EDGE_LOOP('',(#245,#246,#247,#248));
#761=EDGE_LOOP('',(#249,#250));
#762=EDGE_LOOP('',(#251,#252));
#763=EDGE_LOOP('',(#253,#254,#255,#256));
#764=EDGE_LOOP('',(#257,#258,#259,#260));
#765=EDGE_LOOP('',(#261,#262,#263,#264));
#766=EDGE_LOOP('',(#265,#266,#267,#268));
#767=EDGE_LOOP('',(#269,#270,#271,#272));
#768=EDGE_LOOP('',(#273,#274));
#769=EDGE_LOOP('',(#275));
#770=EDGE_LOOP('',(#276));
#771=EDGE_LOOP('',(#277));
#772=EDGE_LOOP('',(#278));
#773=EDGE_LOOP('',(#279));
#774=EDGE_LOOP('',(#280));
#775=EDGE_LOOP('',(#281));
#776=EDGE_LOOP('',(#282));
#777=EDGE_LOOP('',(#283));
#778=EDGE_LOOP('',(#284));
#779=EDGE_LOOP('',(#285,#286,#287,#288,#289,#290,#291,#292,#293,#294,#295,
#296));
#780=EDGE_LOOP('',(#297));
#781=EDGE_LOOP('',(#298));
#782=EDGE_LOOP('',(#299,#300,#301,#302,#303,#304,#305,#306,#307,#308,#309,
#310));
#783=EDGE_LOOP('',(#311,#312,#313,#314,#315,#316,#317,#318,#319,#320,#321,
#322));
#784=EDGE_LOOP('',(#323,#324,#325,#326,#327,#328,#329,#330,#331,#332,#333,
#334));
#785=EDGE_LOOP('',(#335,#336,#337,#338,#339,#340,#341,#342,#343,#344,#345,
#346));
#786=EDGE_LOOP('',(#347,#348,#349,#350,#351,#352,#353,#354,#355,#356,#357,
#358));
#787=EDGE_LOOP('',(#359,#360,#361,#362,#363,#364,#365,#366,#367,#368,#369,
#370));
#788=EDGE_LOOP('',(#371));
#789=EDGE_LOOP('',(#372));
#790=EDGE_LOOP('',(#373));
#791=EDGE_LOOP('',(#374));
#792=EDGE_LOOP('',(#375,#376));
#793=EDGE_LOOP('',(#377,#378,#379,#380));
#794=EDGE_LOOP('',(#381,#382,#383,#384));
#795=EDGE_LOOP('',(#385,#386,#387,#388));
#796=EDGE_LOOP('',(#389,#390,#391,#392));
#797=EDGE_LOOP('',(#393,#394,#395,#396));
#798=EDGE_LOOP('',(#397,#398));
#799=EDGE_LOOP('',(#399));
#800=EDGE_LOOP('',(#400));
#801=EDGE_LOOP('',(#401));
#802=EDGE_LOOP('',(#402));
#803=FACE_BOUND('',#727,.T.);
#804=FACE_BOUND('',#728,.T.);
#805=FACE_BOUND('',#729,.T.);
#806=FACE_BOUND('',#730,.T.);
#807=FACE_BOUND('',#731,.T.);
#808=FACE_BOUND('',#732,.T.);
#809=FACE_BOUND('',#733,.T.);
#810=FACE_BOUND('',#734,.T.);
#811=FACE_BOUND('',#735,.T.);
#812=FACE_BOUND('',#736,.T.);
#813=FACE_BOUND('',#737,.T.);
#814=FACE_BOUND('',#738,.T.);
#815=FACE_BOUND('',#739,.T.);
#816=FACE_BOUND('',#740,.T.);
#817=FACE_BOUND('',#741,.T.);
#818=FACE_BOUND('',#742,.T.);
#819=FACE_BOUND('',#743,.T.);
#820=FACE_BOUND('',#744,.T.);
#821=FACE_BOUND('',#745,.T.);
#822=FACE_BOUND('',#746,.T.);
#823=FACE_BOUND('',#747,.T.);
#824=FACE_BOUND('',#748,.T.);
#825=FACE_BOUND('',#749,.T.);
#826=FACE_BOUND('',#750,.T.);
#827=FACE_BOUND('',#751,.T.);
#828=FACE_BOUND('',#752,.T.);
#829=FACE_BOUND('',#753,.T.);
#830=FACE_BOUND('',#754,.T.);
#831=FACE_BOUND('',#755,.T.);
#832=FACE_BOUND('',#756,.T.);
#833=FACE_BOUND('',#757,.T.);
#834=FACE_BOUND('',#758,.T.);
#835=FACE_BOUND('',#759,.T.);
#836=FACE_BOUND('',#760,.T.);
#837=FACE_BOUND('',#761,.T.);
#838=FACE_BOUND('',#762,.T.);
#839=FACE_BOUND('',#763,.T.);
#840=FACE_BOUND('',#764,.T.);
#841=FACE_BOUND('',#765,.T.);
#842=FACE_BOUND('',#766,.T.);
#843=FACE_BOUND('',#767,.T.);
#844=FACE_BOUND('',#768,.T.);
#845=FACE_BOUND('',#769,.T.);
#846=FACE_BOUND('',#770,.T.);
#847=FACE_BOUND('',#771,.T.);
#848=FACE_BOUND('',#772,.T.);
#849=FACE_BOUND('',#773,.T.);
#850=FACE_BOUND('',#774,.T.);
#851=FACE_BOUND('',#775,.T.);
#852=FACE_BOUND('',#776,.T.);
#853=FACE_BOUND('',#777,.T.);
#854=FACE_BOUND('',#778,.T.);
#855=FACE_BOUND('',#779,.T.);
#856=FACE_BOUND('',#780,.T.);
#857=FACE_BOUND('',#781,.T.);
#858=FACE_BOUND('',#782,.T.);
#859=FACE_BOUND('',#783,.T.);
#860=FACE_BOUND('',#784,.T.);
#861=FACE_BOUND('',#785,.T.);
#862=FACE_BOUND('',#786,.T.);
#863=FACE_BOUND('',#787,.T.);
#864=FACE_BOUND('',#788,.T.);
#865=FACE_BOUND('',#789,.T.);
#866=FACE_BOUND('',#790,.T.);
#867=FACE_BOUND('',#791,.T.);
#868=FACE_BOUND('',#792,.T.);
#869=FACE_BOUND('',#793,.T.);
#870=FACE_BOUND('',#794,.T.);
#871=FACE_BOUND('',#795,.T.);
#872=FACE_BOUND('',#796,.T.);
#873=FACE_BOUND('',#797,.T.);
#874=FACE_BOUND('',#798,.T.);
#875=FACE_BOUND('',#799,.T.);
#876=FACE_BOUND('',#800,.T.);
#877=FACE_BOUND('',#801,.T.);
#878=FACE_BOUND('',#802,.T.);
#879=PLANE('',#983);
#880=PLANE('',#988);
#881=PLANE('',#994);
#882=PLANE('',#1000);
#883=PLANE('',#1002);
#884=PLANE('',#1007);
#885=PLANE('',#1013);
#886=PLANE('',#1019);
#887=PLANE('',#1021);
#888=PLANE('',#1026);
#889=PLANE('',#1032);
#890=PLANE('',#1038);
#891=PLANE('',#1040);
#892=PLANE('',#1045);
#893=PLANE('',#1051);
#894=PLANE('',#1057);
#895=PLANE('',#1059);
#896=PLANE('',#1064);
#897=PLANE('',#1070);
#898=PLANE('',#1076);
#899=PLANE('',#1078);
#900=PLANE('',#1083);
#901=PLANE('',#1089);
#902=PLANE('',#1095);
#903=PLANE('',#1097);
#904=PLANE('',#1103);
#905=PLANE('',#1108);
#906=PLANE('',#1118);
#907=PLANE('',#1121);
#908=PLANE('',#1125);
#909=PLANE('',#1129);
#910=PLANE('',#1133);
#911=ADVANCED_FACE('',(#803),#879,.T.);
#912=ADVANCED_FACE('',(#804),#106,.T.);
#913=ADVANCED_FACE('',(#805),#880,.T.);
#914=ADVANCED_FACE('',(#806),#107,.T.);
#915=ADVANCED_FACE('',(#807),#881,.T.);
#916=ADVANCED_FACE('',(#808),#108,.T.);
#917=ADVANCED_FACE('',(#809),#882,.T.);
#918=ADVANCED_FACE('',(#810),#883,.T.);
#919=ADVANCED_FACE('',(#811),#109,.T.);
#920=ADVANCED_FACE('',(#812),#884,.T.);
#921=ADVANCED_FACE('',(#813),#110,.T.);
#922=ADVANCED_FACE('',(#814),#885,.T.);
#923=ADVANCED_FACE('',(#815),#111,.T.);
#924=ADVANCED_FACE('',(#816),#886,.T.);
#925=ADVANCED_FACE('',(#817),#887,.T.);
#926=ADVANCED_FACE('',(#818),#112,.T.);
#927=ADVANCED_FACE('',(#819),#888,.T.);
#928=ADVANCED_FACE('',(#820),#113,.T.);
#929=ADVANCED_FACE('',(#821),#889,.T.);
#930=ADVANCED_FACE('',(#822),#114,.T.);
#931=ADVANCED_FACE('',(#823),#890,.T.);
#932=ADVANCED_FACE('',(#824),#891,.T.);
#933=ADVANCED_FACE('',(#825),#115,.T.);
#934=ADVANCED_FACE('',(#826),#892,.T.);
#935=ADVANCED_FACE('',(#827),#116,.T.);
#936=ADVANCED_FACE('',(#828),#893,.T.);
#937=ADVANCED_FACE('',(#829),#117,.T.);
#938=ADVANCED_FACE('',(#830),#894,.T.);
#939=ADVANCED_FACE('',(#831),#895,.T.);
#940=ADVANCED_FACE('',(#832),#118,.T.);
#941=ADVANCED_FACE('',(#833),#896,.T.);
#942=ADVANCED_FACE('',(#834),#119,.T.);
#943=ADVANCED_FACE('',(#835),#897,.T.);
#944=ADVANCED_FACE('',(#836),#120,.T.);
#945=ADVANCED_FACE('',(#837),#898,.T.);
#946=ADVANCED_FACE('',(#838),#899,.T.);
#947=ADVANCED_FACE('',(#839),#121,.T.);
#948=ADVANCED_FACE('',(#840),#900,.T.);
#949=ADVANCED_FACE('',(#841),#122,.T.);
#950=ADVANCED_FACE('',(#842),#901,.T.);
#951=ADVANCED_FACE('',(#843),#123,.T.);
#952=ADVANCED_FACE('',(#844),#902,.T.);
#953=ADVANCED_FACE('',(#845,#846),#903,.T.);
#954=ADVANCED_FACE('',(#847,#848),#124,.T.);
#955=ADVANCED_FACE('',(#849,#850),#904,.T.);
#956=ADVANCED_FACE('',(#851,#852),#125,.F.);
#957=ADVANCED_FACE('',(#853,#854),#905,.T.);
#958=ADVANCED_FACE('',(#855,#856,#857,#858,#859,#860,#861,#862,#863),#126,
 .F.);
#959=ADVANCED_FACE('',(#864,#865),#906,.T.);
#960=ADVANCED_FACE('',(#866,#867),#127,.F.);
#961=ADVANCED_FACE('',(#868),#907,.T.);
#962=ADVANCED_FACE('',(#869),#128,.T.);
#963=ADVANCED_FACE('',(#870),#908,.T.);
#964=ADVANCED_FACE('',(#871),#129,.T.);
#965=ADVANCED_FACE('',(#872),#909,.T.);
#966=ADVANCED_FACE('',(#873),#130,.T.);
#967=ADVANCED_FACE('',(#874),#910,.T.);
#968=ADVANCED_FACE('',(#875,#876),#20,.T.);
#969=ADVANCED_FACE('',(#877,#878),#21,.T.);
#970=CLOSED_SHELL('',(#911,#912,#913,#914,#915,#916,#917,#918,#919,#920,
#921,#922,#923,#924,#925,#926,#927,#928,#929,#930,#931,#932,#933,#934,#935,
#936,#937,#938,#939,#940,#941,#942,#943,#944,#945,#946,#947,#948,#949,#950,
#951,#952,#953,#954,#955,#956,#957,#958,#959,#960,#961,#962,#963,#964,#965,
#966,#967,#968,#969));
#971=STYLED_ITEM('',(#972),#979);
#972=PRESENTATION_STYLE_ASSIGNMENT((#973));
#973=SURFACE_STYLE_USAGE(.BOTH.,#974);
#974=SURFACE_SIDE_STYLE('',(#975));
#975=SURFACE_STYLE_FILL_AREA(#976);
#976=FILL_AREA_STYLE('',(#977));
#977=FILL_AREA_STYLE_COLOUR('',#978);
#978=COLOUR_RGB('',0.506983280181885,0.531564235687256,0.550000011920929);
#979=MANIFOLD_SOLID_BREP('',#970);
#980=SHAPE_DEFINITION_REPRESENTATION(#1782,#981);
#981=SHAPE_REPRESENTATION(
'\X2\51B2538B591657086EE188C56EDA94888F74627F7A7F5B54578B\X0\ GBT12764
-2019',(#982),#1777);
#982=AXIS2_PLACEMENT_3D('',#1486,#1136,#1137);
#983=AXIS2_PLACEMENT_3D('',#1487,#1138,#1139);
#984=AXIS2_PLACEMENT_3D('',#1488,#1140,#1141);
#985=AXIS2_PLACEMENT_3D('',#1491,#1142,#1143);
#986=AXIS2_PLACEMENT_3D('',#1492,#1144,#1145);
#987=AXIS2_PLACEMENT_3D('',#1493,#1146,#1147);
#988=AXIS2_PLACEMENT_3D('',#1498,#1150,#1151);
#989=AXIS2_PLACEMENT_3D('',#1499,#1152,#1153);
#990=AXIS2_PLACEMENT_3D('',#1502,#1154,#1155);
#991=AXIS2_PLACEMENT_3D('',#1503,#1156,#1157);
#992=AXIS2_PLACEMENT_3D('',#1504,#1158,#1159);
#993=AXIS2_PLACEMENT_3D('',#1505,#1160,#1161);
#994=AXIS2_PLACEMENT_3D('',#1510,#1164,#1165);
#995=AXIS2_PLACEMENT_3D('',#1511,#1166,#1167);
#996=AXIS2_PLACEMENT_3D('',#1514,#1168,#1169);
#997=AXIS2_PLACEMENT_3D('',#1515,#1170,#1171);
#998=AXIS2_PLACEMENT_3D('',#1516,#1172,#1173);
#999=AXIS2_PLACEMENT_3D('',#1517,#1174,#1175);
#1000=AXIS2_PLACEMENT_3D('',#1522,#1178,#1179);
#1001=AXIS2_PLACEMENT_3D('',#1523,#1180,#1181);
#1002=AXIS2_PLACEMENT_3D('',#1524,#1182,#1183);
#1003=AXIS2_PLACEMENT_3D('',#1525,#1184,#1185);
#1004=AXIS2_PLACEMENT_3D('',#1528,#1186,#1187);
#1005=AXIS2_PLACEMENT_3D('',#1529,#1188,#1189);
#1006=AXIS2_PLACEMENT_3D('',#1530,#1190,#1191);
#1007=AXIS2_PLACEMENT_3D('',#1535,#1194,#1195);
#1008=AXIS2_PLACEMENT_3D('',#1536,#1196,#1197);
#1009=AXIS2_PLACEMENT_3D('',#1539,#1198,#1199);
#1010=AXIS2_PLACEMENT_3D('',#1540,#1200,#1201);
#1011=AXIS2_PLACEMENT_3D('',#1541,#1202,#1203);
#1012=AXIS2_PLACEMENT_3D('',#1542,#1204,#1205);
#1013=AXIS2_PLACEMENT_3D('',#1547,#1208,#1209);
#1014=AXIS2_PLACEMENT_3D('',#1548,#1210,#1211);
#1015=AXIS2_PLACEMENT_3D('',#1551,#1212,#1213);
#1016=AXIS2_PLACEMENT_3D('',#1552,#1214,#1215);
#1017=AXIS2_PLACEMENT_3D('',#1553,#1216,#1217);
#1018=AXIS2_PLACEMENT_3D('',#1554,#1218,#1219);
#1019=AXIS2_PLACEMENT_3D('',#1559,#1222,#1223);
#1020=AXIS2_PLACEMENT_3D('',#1560,#1224,#1225);
#1021=AXIS2_PLACEMENT_3D('',#1561,#1226,#1227);
#1022=AXIS2_PLACEMENT_3D('',#1562,#1228,#1229);
#1023=AXIS2_PLACEMENT_3D('',#1565,#1230,#1231);
#1024=AXIS2_PLACEMENT_3D('',#1566,#1232,#1233);
#1025=AXIS2_PLACEMENT_3D('',#1567,#1234,#1235);
#1026=AXIS2_PLACEMENT_3D('',#1572,#1238,#1239);
#1027=AXIS2_PLACEMENT_3D('',#1573,#1240,#1241);
#1028=AXIS2_PLACEMENT_3D('',#1576,#1242,#1243);
#1029=AXIS2_PLACEMENT_3D('',#1577,#1244,#1245);
#1030=AXIS2_PLACEMENT_3D('',#1578,#1246,#1247);
#1031=AXIS2_PLACEMENT_3D('',#1579,#1248,#1249);
#1032=AXIS2_PLACEMENT_3D('',#1584,#1252,#1253);
#1033=AXIS2_PLACEMENT_3D('',#1585,#1254,#1255);
#1034=AXIS2_PLACEMENT_3D('',#1588,#1256,#1257);
#1035=AXIS2_PLACEMENT_3D('',#1589,#1258,#1259);
#1036=AXIS2_PLACEMENT_3D('',#1590,#1260,#1261);
#1037=AXIS2_PLACEMENT_3D('',#1591,#1262,#1263);
#1038=AXIS2_PLACEMENT_3D('',#1596,#1266,#1267);
#1039=AXIS2_PLACEMENT_3D('',#1597,#1268,#1269);
#1040=AXIS2_PLACEMENT_3D('',#1598,#1270,#1271);
#1041=AXIS2_PLACEMENT_3D('',#1599,#1272,#1273);
#1042=AXIS2_PLACEMENT_3D('',#1602,#1274,#1275);
#1043=AXIS2_PLACEMENT_3D('',#1603,#1276,#1277);
#1044=AXIS2_PLACEMENT_3D('',#1604,#1278,#1279);
#1045=AXIS2_PLACEMENT_3D('',#1609,#1282,#1283);
#1046=AXIS2_PLACEMENT_3D('',#1610,#1284,#1285);
#1047=AXIS2_PLACEMENT_3D('',#1613,#1286,#1287);
#1048=AXIS2_PLACEMENT_3D('',#1614,#1288,#1289);
#1049=AXIS2_PLACEMENT_3D('',#1615,#1290,#1291);
#1050=AXIS2_PLACEMENT_3D('',#1616,#1292,#1293);
#1051=AXIS2_PLACEMENT_3D('',#1621,#1296,#1297);
#1052=AXIS2_PLACEMENT_3D('',#1622,#1298,#1299);
#1053=AXIS2_PLACEMENT_3D('',#1625,#1300,#1301);
#1054=AXIS2_PLACEMENT_3D('',#1626,#1302,#1303);
#1055=AXIS2_PLACEMENT_3D('',#1627,#1304,#1305);
#1056=AXIS2_PLACEMENT_3D('',#1628,#1306,#1307);
#1057=AXIS2_PLACEMENT_3D('',#1633,#1310,#1311);
#1058=AXIS2_PLACEMENT_3D('',#1634,#1312,#1313);
#1059=AXIS2_PLACEMENT_3D('',#1635,#1314,#1315);
#1060=AXIS2_PLACEMENT_3D('',#1636,#1316,#1317);
#1061=AXIS2_PLACEMENT_3D('',#1639,#1318,#1319);
#1062=AXIS2_PLACEMENT_3D('',#1640,#1320,#1321);
#1063=AXIS2_PLACEMENT_3D('',#1641,#1322,#1323);
#1064=AXIS2_PLACEMENT_3D('',#1646,#1326,#1327);
#1065=AXIS2_PLACEMENT_3D('',#1647,#1328,#1329);
#1066=AXIS2_PLACEMENT_3D('',#1650,#1330,#1331);
#1067=AXIS2_PLACEMENT_3D('',#1651,#1332,#1333);
#1068=AXIS2_PLACEMENT_3D('',#1652,#1334,#1335);
#1069=AXIS2_PLACEMENT_3D('',#1653,#1336,#1337);
#1070=AXIS2_PLACEMENT_3D('',#1658,#1340,#1341);
#1071=AXIS2_PLACEMENT_3D('',#1659,#1342,#1343);
#1072=AXIS2_PLACEMENT_3D('',#1662,#1344,#1345);
#1073=AXIS2_PLACEMENT_3D('',#1663,#1346,#1347);
#1074=AXIS2_PLACEMENT_3D('',#1664,#1348,#1349);
#1075=AXIS2_PLACEMENT_3D('',#1665,#1350,#1351);
#1076=AXIS2_PLACEMENT_3D('',#1670,#1354,#1355);
#1077=AXIS2_PLACEMENT_3D('',#1671,#1356,#1357);
#1078=AXIS2_PLACEMENT_3D('',#1672,#1358,#1359);
#1079=AXIS2_PLACEMENT_3D('',#1673,#1360,#1361);
#1080=AXIS2_PLACEMENT_3D('',#1676,#1362,#1363);
#1081=AXIS2_PLACEMENT_3D('',#1677,#1364,#1365);
#1082=AXIS2_PLACEMENT_3D('',#1678,#1366,#1367);
#1083=AXIS2_PLACEMENT_3D('',#1683,#1370,#1371);
#1084=AXIS2_PLACEMENT_3D('',#1684,#1372,#1373);
#1085=AXIS2_PLACEMENT_3D('',#1687,#1374,#1375);
#1086=AXIS2_PLACEMENT_3D('',#1688,#1376,#1377);
#1087=AXIS2_PLACEMENT_3D('',#1689,#1378,#1379);
#1088=AXIS2_PLACEMENT_3D('',#1690,#1380,#1381);
#1089=AXIS2_PLACEMENT_3D('',#1695,#1384,#1385);
#1090=AXIS2_PLACEMENT_3D('',#1696,#1386,#1387);
#1091=AXIS2_PLACEMENT_3D('',#1699,#1388,#1389);
#1092=AXIS2_PLACEMENT_3D('',#1700,#1390,#1391);
#1093=AXIS2_PLACEMENT_3D('',#1701,#1392,#1393);
#1094=AXIS2_PLACEMENT_3D('',#1702,#1394,#1395);
#1095=AXIS2_PLACEMENT_3D('',#1707,#1398,#1399);
#1096=AXIS2_PLACEMENT_3D('',#1708,#1400,#1401);
#1097=AXIS2_PLACEMENT_3D('',#1709,#1402,#1403);
#1098=AXIS2_PLACEMENT_3D('',#1710,#1404,#1405);
#1099=AXIS2_PLACEMENT_3D('',#1712,#1406,#1407);
#1100=AXIS2_PLACEMENT_3D('',#1714,#1408,#1409);
#1101=AXIS2_PLACEMENT_3D('',#1715,#1410,#1411);
#1102=AXIS2_PLACEMENT_3D('',#1717,#1412,#1413);
#1103=AXIS2_PLACEMENT_3D('',#1719,#1414,#1415);
#1104=AXIS2_PLACEMENT_3D('',#1720,#1416,#1417);
#1105=AXIS2_PLACEMENT_3D('',#1722,#1418,#1419);
#1106=AXIS2_PLACEMENT_3D('',#1724,#1420,#1421);
#1107=AXIS2_PLACEMENT_3D('',#1725,#1422,#1423);
#1108=AXIS2_PLACEMENT_3D('',#1727,#1424,#1425);
#1109=AXIS2_PLACEMENT_3D('',#1728,#1426,#1427);
#1110=AXIS2_PLACEMENT_3D('',#1730,#1428,#1429);
#1111=AXIS2_PLACEMENT_3D('',#1731,#1430,#1431);
#1112=AXIS2_PLACEMENT_3D('',#1736,#1433,#1434);
#1113=AXIS2_PLACEMENT_3D('',#1740,#1436,#1437);
#1114=AXIS2_PLACEMENT_3D('',#1744,#1439,#1440);
#1115=AXIS2_PLACEMENT_3D('',#1748,#1442,#1443);
#1116=AXIS2_PLACEMENT_3D('',#1752,#1445,#1446);
#1117=AXIS2_PLACEMENT_3D('',#1755,#1448,#1449);
#1118=AXIS2_PLACEMENT_3D('',#1757,#1450,#1451);
#1119=AXIS2_PLACEMENT_3D('',#1758,#1452,#1453);
#1120=AXIS2_PLACEMENT_3D('',#1760,#1454,#1455);
#1121=AXIS2_PLACEMENT_3D('',#1761,#1456,#1457);
#1122=AXIS2_PLACEMENT_3D('',#1762,#1458,#1459);
#1123=AXIS2_PLACEMENT_3D('',#1763,#1460,#1461);
#1124=AXIS2_PLACEMENT_3D('',#1764,#1462,#1463);
#1125=AXIS2_PLACEMENT_3D('',#1765,#1464,#1465);
#1126=AXIS2_PLACEMENT_3D('',#1766,#1466,#1467);
#1127=AXIS2_PLACEMENT_3D('',#1767,#1468,#1469);
#1128=AXIS2_PLACEMENT_3D('',#1768,#1470,#1471);
#1129=AXIS2_PLACEMENT_3D('',#1769,#1472,#1473);
#1130=AXIS2_PLACEMENT_3D('',#1770,#1474,#1475);
#1131=AXIS2_PLACEMENT_3D('',#1771,#1476,#1477);
#1132=AXIS2_PLACEMENT_3D('',#1772,#1478,#1479);
#1133=AXIS2_PLACEMENT_3D('',#1773,#1480,#1481);
#1134=AXIS2_PLACEMENT_3D('',#1774,#1482,#1483);
#1135=AXIS2_PLACEMENT_3D('',#1775,#1484,#1485);
#1136=DIRECTION('',(0.,0.,1.));
#1137=DIRECTION('',(1.,0.,0.));
#1138=DIRECTION('',(1.,-1.21092640888262E-16,9.65725268993865E-17));
#1139=DIRECTION('',(1.54886024640786E-16,0.781817734486384,-0.623507040892545));
#1140=DIRECTION('',(1.,-1.21092640888262E-16,9.65725268993865E-17));
#1141=DIRECTION('',(1.54886024640786E-16,0.781817734486384,-0.623507040892545));
#1142=DIRECTION('',(1.,-1.21092640888262E-16,9.65725268993865E-17));
#1143=DIRECTION('',(1.21092640888262E-16,1.,0.));
#1144=DIRECTION('',(1.,-1.21092640888262E-16,9.65725268993865E-17));
#1145=DIRECTION('',(1.54886024640786E-16,0.781817734486384,-0.623507040892545));
#1146=DIRECTION('',(1.,-1.21092640888262E-16,9.65725268993865E-17));
#1147=DIRECTION('',(1.54886024640786E-16,0.781817734486384,-0.623507040892545));
#1148=DIRECTION('',(1.,-1.21092640888262E-16,9.65725268993865E-17));
#1149=DIRECTION('',(1.,-1.21092640888262E-16,9.65725268993865E-17));
#1150=DIRECTION('',(1.,-1.21092640888262E-16,9.65725268993865E-17));
#1151=DIRECTION('',(1.54886024640786E-16,0.781817734486384,-0.623507040892545));
#1152=DIRECTION('',(1.,-1.21092640888262E-16,9.65725268993865E-17));
#1153=DIRECTION('',(1.54886024640786E-16,0.781817734486384,-0.623507040892545));
#1154=DIRECTION('',(1.,-1.21092640888262E-16,9.65725268993865E-17));
#1155=DIRECTION('',(1.21092640888262E-16,1.,0.));
#1156=DIRECTION('',(1.,-1.21092640888262E-16,9.65725268993865E-17));
#1157=DIRECTION('',(1.21092640888262E-16,1.,0.));
#1158=DIRECTION('',(1.,-1.21092640888262E-16,9.65725268993865E-17));
#1159=DIRECTION('',(1.54886024640786E-16,0.781817734486384,-0.623507040892545));
#1160=DIRECTION('',(1.,-1.21092640888262E-16,9.65725268993865E-17));
#1161=DIRECTION('',(1.54886024640786E-16,0.781817734486384,-0.623507040892545));
#1162=DIRECTION('',(1.,-1.21092640888262E-16,9.65725268993865E-17));
#1163=DIRECTION('',(1.,-1.21092640888262E-16,9.65725268993865E-17));
#1164=DIRECTION('',(-1.,1.21092640888262E-16,-9.65725268993865E-17));
#1165=DIRECTION('',(-1.54886024640786E-16,-0.781817734486384,0.623507040892545));
#1166=DIRECTION('',(1.,-1.21092640888262E-16,9.65725268993865E-17));
#1167=DIRECTION('',(1.54886024640786E-16,0.781817734486384,-0.623507040892545));
#1168=DIRECTION('',(-1.,1.21092640888262E-16,-9.65725268993865E-17));
#1169=DIRECTION('',(-1.21092640888262E-16,-1.,0.));
#1170=DIRECTION('',(-1.,1.21092640888262E-16,-9.65725268993865E-17));
#1171=DIRECTION('',(-1.21092640888262E-16,-1.,0.));
#1172=DIRECTION('',(1.,-1.21092640888262E-16,9.65725268993865E-17));
#1173=DIRECTION('',(1.54886024640786E-16,0.781817734486384,-0.623507040892545));
#1174=DIRECTION('',(1.,-1.21092640888262E-16,9.65725268993865E-17));
#1175=DIRECTION('',(1.54886024640786E-16,0.781817734486384,-0.623507040892545));
#1176=DIRECTION('',(1.,-1.21092640888262E-16,9.65725268993865E-17));
#1177=DIRECTION('',(1.,-1.21092640888262E-16,9.65725268993865E-17));
#1178=DIRECTION('',(-1.,1.21092640888262E-16,-9.65725268993865E-17));
#1179=DIRECTION('',(-1.54886024640786E-16,-0.781817734486384,0.623507040892545));
#1180=DIRECTION('',(-1.,1.21092640888262E-16,-9.65725268993865E-17));
#1181=DIRECTION('',(-1.21092640888262E-16,-1.,0.));
#1182=DIRECTION('',(1.,-1.5100081147571E-16,-3.44736937780604E-17));
#1183=DIRECTION('',(1.54886024640786E-16,0.974915663475208,0.22257459223976));
#1184=DIRECTION('',(1.,-1.5100081147571E-16,-3.44736937780604E-17));
#1185=DIRECTION('',(1.54886024640786E-16,0.974915663475208,0.22257459223976));
#1186=DIRECTION('',(1.,-1.5100081147571E-16,-3.44736937780604E-17));
#1187=DIRECTION('',(1.5100081147571E-16,1.,0.));
#1188=DIRECTION('',(1.,-1.5100081147571E-16,-3.44736937780604E-17));
#1189=DIRECTION('',(1.54886024640786E-16,0.974915663475208,0.22257459223976));
#1190=DIRECTION('',(1.,-1.5100081147571E-16,-3.44736937780604E-17));
#1191=DIRECTION('',(1.54886024640786E-16,0.974915663475208,0.22257459223976));
#1192=DIRECTION('',(1.,-1.5100081147571E-16,-3.44736937780604E-17));
#1193=DIRECTION('',(1.,-1.5100081147571E-16,-3.44736937780604E-17));
#1194=DIRECTION('',(1.,-1.5100081147571E-16,-3.44736937780604E-17));
#1195=DIRECTION('',(1.54886024640786E-16,0.974915663475208,0.22257459223976));
#1196=DIRECTION('',(1.,-1.5100081147571E-16,-3.44736937780604E-17));
#1197=DIRECTION('',(1.54886024640786E-16,0.974915663475208,0.22257459223976));
#1198=DIRECTION('',(1.,-1.5100081147571E-16,-3.44736937780604E-17));
#1199=DIRECTION('',(1.5100081147571E-16,1.,0.));
#1200=DIRECTION('',(1.,-1.5100081147571E-16,-3.44736937780604E-17));
#1201=DIRECTION('',(1.5100081147571E-16,1.,0.));
#1202=DIRECTION('',(1.,-1.5100081147571E-16,-3.44736937780604E-17));
#1203=DIRECTION('',(1.54886024640786E-16,0.974915663475208,0.22257459223976));
#1204=DIRECTION('',(1.,-1.5100081147571E-16,-3.44736937780604E-17));
#1205=DIRECTION('',(1.54886024640786E-16,0.974915663475208,0.22257459223976));
#1206=DIRECTION('',(1.,-1.5100081147571E-16,-3.44736937780604E-17));
#1207=DIRECTION('',(1.,-1.5100081147571E-16,-3.44736937780604E-17));
#1208=DIRECTION('',(-1.,1.5100081147571E-16,3.44736937780604E-17));
#1209=DIRECTION('',(-1.54886024640786E-16,-0.974915663475208,-0.22257459223976));
#1210=DIRECTION('',(1.,-1.5100081147571E-16,-3.44736937780604E-17));
#1211=DIRECTION('',(1.54886024640786E-16,0.974915663475208,0.22257459223976));
#1212=DIRECTION('',(-1.,1.5100081147571E-16,3.44736937780604E-17));
#1213=DIRECTION('',(-1.5100081147571E-16,-1.,0.));
#1214=DIRECTION('',(-1.,1.5100081147571E-16,3.44736937780604E-17));
#1215=DIRECTION('',(-1.5100081147571E-16,-1.,0.));
#1216=DIRECTION('',(1.,-1.5100081147571E-16,-3.44736937780604E-17));
#1217=DIRECTION('',(1.54886024640786E-16,0.974915663475208,0.22257459223976));
#1218=DIRECTION('',(1.,-1.5100081147571E-16,-3.44736937780604E-17));
#1219=DIRECTION('',(1.54886024640786E-16,0.974915663475208,0.22257459223976));
#1220=DIRECTION('',(1.,-1.5100081147571E-16,-3.44736937780604E-17));
#1221=DIRECTION('',(1.,-1.5100081147571E-16,-3.44736937780604E-17));
#1222=DIRECTION('',(-1.,1.5100081147571E-16,3.44736937780604E-17));
#1223=DIRECTION('',(-1.54886024640786E-16,-0.974915663475208,-0.22257459223976));
#1224=DIRECTION('',(-1.,1.5100081147571E-16,3.44736937780604E-17));
#1225=DIRECTION('',(-1.5100081147571E-16,-1.,0.));
#1226=DIRECTION('',(1.,-6.72102156466231E-17,-1.39543783601279E-16));
#1227=DIRECTION('',(1.54886024640786E-16,0.43393337651023,0.900944962109468));
#1228=DIRECTION('',(1.,-6.72102156466231E-17,-1.39543783601279E-16));
#1229=DIRECTION('',(1.54886024640786E-16,0.43393337651023,0.900944962109468));
#1230=DIRECTION('',(1.,-6.72102156466231E-17,-1.39543783601279E-16));
#1231=DIRECTION('',(-1.39543783601279E-16,0.,-1.));
#1232=DIRECTION('',(1.,-6.72102156466231E-17,-1.39543783601279E-16));
#1233=DIRECTION('',(1.54886024640786E-16,0.43393337651023,0.900944962109468));
#1234=DIRECTION('',(1.,-6.72102156466231E-17,-1.39543783601279E-16));
#1235=DIRECTION('',(1.54886024640786E-16,0.43393337651023,0.900944962109468));
#1236=DIRECTION('',(1.,-6.72102156466231E-17,-1.39543783601279E-16));
#1237=DIRECTION('',(1.,-6.72102156466231E-17,-1.39543783601279E-16));
#1238=DIRECTION('',(1.,-6.72102156466231E-17,-1.39543783601279E-16));
#1239=DIRECTION('',(1.54886024640786E-16,0.43393337651023,0.900944962109468));
#1240=DIRECTION('',(1.,-6.72102156466231E-17,-1.39543783601279E-16));
#1241=DIRECTION('',(1.54886024640786E-16,0.43393337651023,0.900944962109468));
#1242=DIRECTION('',(1.,-6.72102156466231E-17,-1.39543783601279E-16));
#1243=DIRECTION('',(-1.39543783601279E-16,0.,-1.));
#1244=DIRECTION('',(1.,-6.72102156466231E-17,-1.39543783601279E-16));
#1245=DIRECTION('',(-1.39543783601279E-16,0.,-1.));
#1246=DIRECTION('',(1.,-6.72102156466231E-17,-1.39543783601279E-16));
#1247=DIRECTION('',(1.54886024640786E-16,0.43393337651023,0.900944962109468));
#1248=DIRECTION('',(1.,-6.72102156466231E-17,-1.39543783601279E-16));
#1249=DIRECTION('',(1.54886024640786E-16,0.43393337651023,0.900944962109468));
#1250=DIRECTION('',(1.,-6.72102156466231E-17,-1.39543783601279E-16));
#1251=DIRECTION('',(1.,-6.72102156466231E-17,-1.39543783601279E-16));
#1252=DIRECTION('',(-1.,6.72102156466231E-17,1.39543783601279E-16));
#1253=DIRECTION('',(-1.54886024640786E-16,-0.43393337651023,-0.900944962109468));
#1254=DIRECTION('',(1.,-6.72102156466231E-17,-1.39543783601279E-16));
#1255=DIRECTION('',(1.54886024640786E-16,0.43393337651023,0.900944962109468));
#1256=DIRECTION('',(-1.,6.72102156466231E-17,1.39543783601279E-16));
#1257=DIRECTION('',(1.39543783601279E-16,0.,1.));
#1258=DIRECTION('',(-1.,6.72102156466231E-17,1.39543783601279E-16));
#1259=DIRECTION('',(1.39543783601279E-16,0.,1.));
#1260=DIRECTION('',(1.,-6.72102156466231E-17,-1.39543783601279E-16));
#1261=DIRECTION('',(1.54886024640786E-16,0.43393337651023,0.900944962109468));
#1262=DIRECTION('',(1.,-6.72102156466231E-17,-1.39543783601279E-16));
#1263=DIRECTION('',(1.54886024640786E-16,0.43393337651023,0.900944962109468));
#1264=DIRECTION('',(1.,-6.72102156466231E-17,-1.39543783601279E-16));
#1265=DIRECTION('',(1.,-6.72102156466231E-17,-1.39543783601279E-16));
#1266=DIRECTION('',(-1.,6.72102156466231E-17,1.39543783601279E-16));
#1267=DIRECTION('',(-1.54886024640786E-16,-0.43393337651023,-0.900944962109468));
#1268=DIRECTION('',(-1.,6.72102156466231E-17,1.39543783601279E-16));
#1269=DIRECTION('',(1.39543783601279E-16,0.,1.));
#1270=DIRECTION('',(1.,3.77786612330959E-15,-1.63949255572076E-14));
#1271=DIRECTION('',(1.64102677980615E-14,-0.433933374022931,0.900944963307457));
#1272=DIRECTION('',(1.,3.77786612330959E-15,-1.63949255572076E-14));
#1273=DIRECTION('',(1.64102677980615E-14,-0.433933374022931,0.900944963307457));
#1274=DIRECTION('',(1.,3.77786612330959E-15,-1.63949255572076E-14));
#1275=DIRECTION('',(-1.63949255572076E-14,0.,-1.));
#1276=DIRECTION('',(1.,3.77786612330959E-15,-1.63949255572076E-14));
#1277=DIRECTION('',(1.64102677980615E-14,-0.433933374022931,0.900944963307457));
#1278=DIRECTION('',(1.,3.77786612330959E-15,-1.63949255572076E-14));
#1279=DIRECTION('',(1.64102677980615E-14,-0.433933374022931,0.900944963307457));
#1280=DIRECTION('',(1.,3.77786612330959E-15,-1.63949255572076E-14));
#1281=DIRECTION('',(1.,3.77786612330959E-15,-1.63949255572076E-14));
#1282=DIRECTION('',(1.,3.77786612330959E-15,-1.63949255572076E-14));
#1283=DIRECTION('',(1.64102677980615E-14,-0.433933374022931,0.900944963307457));
#1284=DIRECTION('',(1.,3.77786612330959E-15,-1.63949255572076E-14));
#1285=DIRECTION('',(1.64102677980615E-14,-0.433933374022931,0.900944963307457));
#1286=DIRECTION('',(1.,3.77786612330959E-15,-1.63949255572076E-14));
#1287=DIRECTION('',(-1.63949255572076E-14,0.,-1.));
#1288=DIRECTION('',(1.,3.77786612330959E-15,-1.63949255572076E-14));
#1289=DIRECTION('',(-1.63949255572076E-14,0.,-1.));
#1290=DIRECTION('',(1.,3.77786612330959E-15,-1.63949255572076E-14));
#1291=DIRECTION('',(1.64102677980615E-14,-0.433933374022931,0.900944963307457));
#1292=DIRECTION('',(1.,3.77786612330959E-15,-1.63949255572076E-14));
#1293=DIRECTION('',(1.64102677980615E-14,-0.433933374022931,0.900944963307457));
#1294=DIRECTION('',(1.,3.77786612330959E-15,-1.63949255572076E-14));
#1295=DIRECTION('',(1.,3.77786612330959E-15,-1.63949255572076E-14));
#1296=DIRECTION('',(-1.,-3.77786612330959E-15,1.63949255572076E-14));
#1297=DIRECTION('',(-1.64102677980615E-14,0.433933374022931,-0.900944963307457));
#1298=DIRECTION('',(1.,3.77786612330959E-15,-1.63949255572076E-14));
#1299=DIRECTION('',(1.64102677980615E-14,-0.433933374022931,0.900944963307457));
#1300=DIRECTION('',(-1.,-3.77786612330959E-15,1.63949255572076E-14));
#1301=DIRECTION('',(1.63949255572076E-14,0.,1.));
#1302=DIRECTION('',(-1.,-3.77786612330959E-15,1.63949255572076E-14));
#1303=DIRECTION('',(1.63949255572076E-14,0.,1.));
#1304=DIRECTION('',(1.,3.77786612330959E-15,-1.63949255572076E-14));
#1305=DIRECTION('',(1.64102677980615E-14,-0.433933374022931,0.900944963307457));
#1306=DIRECTION('',(1.,3.77786612330959E-15,-1.63949255572076E-14));
#1307=DIRECTION('',(1.64102677980615E-14,-0.433933374022931,0.900944963307457));
#1308=DIRECTION('',(1.,3.77786612330959E-15,-1.63949255572076E-14));
#1309=DIRECTION('',(1.,3.77786612330959E-15,-1.63949255572076E-14));
#1310=DIRECTION('',(-1.,-3.77786612330959E-15,1.63949255572076E-14));
#1311=DIRECTION('',(-1.64102677980615E-14,0.433933374022931,-0.900944963307457));
#1312=DIRECTION('',(-1.,-3.77786612330959E-15,1.63949255572076E-14));
#1313=DIRECTION('',(1.63949255572076E-14,0.,1.));
#1314=DIRECTION('',(1.,-2.94121526606097E-15,3.84326154212786E-15));
#1315=DIRECTION('',(-3.72284921168201E-15,-0.97491566286073,0.222574594931281));
#1316=DIRECTION('',(1.,-2.94121526606097E-15,3.84326154212786E-15));
#1317=DIRECTION('',(-3.72284921168201E-15,-0.97491566286073,0.222574594931281));
#1318=DIRECTION('',(1.,-2.94121526606097E-15,3.84326154212786E-15));
#1319=DIRECTION('',(3.84326154212786E-15,0.,-1.));
#1320=DIRECTION('',(1.,-2.94121526606097E-15,3.84326154212786E-15));
#1321=DIRECTION('',(-3.72284921168201E-15,-0.97491566286073,0.222574594931281));
#1322=DIRECTION('',(1.,-2.94121526606097E-15,3.84326154212786E-15));
#1323=DIRECTION('',(-3.72284921168201E-15,-0.97491566286073,0.222574594931281));
#1324=DIRECTION('',(1.,-2.94121526606097E-15,3.84326154212786E-15));
#1325=DIRECTION('',(1.,-2.94121526606097E-15,3.84326154212786E-15));
#1326=DIRECTION('',(1.,-2.94121526606097E-15,3.84326154212786E-15));
#1327=DIRECTION('',(-3.72284921168201E-15,-0.97491566286073,0.222574594931281));
#1328=DIRECTION('',(1.,-2.94121526606097E-15,3.84326154212786E-15));
#1329=DIRECTION('',(-3.72284921168201E-15,-0.97491566286073,0.222574594931281));
#1330=DIRECTION('',(1.,-2.94121526606097E-15,3.84326154212786E-15));
#1331=DIRECTION('',(3.84326154212786E-15,0.,-1.));
#1332=DIRECTION('',(1.,-2.94121526606097E-15,3.84326154212786E-15));
#1333=DIRECTION('',(3.84326154212786E-15,0.,-1.));
#1334=DIRECTION('',(1.,-2.94121526606097E-15,3.84326154212786E-15));
#1335=DIRECTION('',(-3.72284921168201E-15,-0.97491566286073,0.222574594931281));
#1336=DIRECTION('',(1.,-2.94121526606097E-15,3.84326154212786E-15));
#1337=DIRECTION('',(-3.72284921168201E-15,-0.97491566286073,0.222574594931281));
#1338=DIRECTION('',(1.,-2.94121526606097E-15,3.84326154212786E-15));
#1339=DIRECTION('',(1.,-2.94121526606097E-15,3.84326154212786E-15));
#1340=DIRECTION('',(-1.,2.94121526606097E-15,-3.84326154212786E-15));
#1341=DIRECTION('',(3.72284921168201E-15,0.97491566286073,-0.222574594931281));
#1342=DIRECTION('',(1.,-2.94121526606097E-15,3.84326154212786E-15));
#1343=DIRECTION('',(-3.72284921168201E-15,-0.97491566286073,0.222574594931281));
#1344=DIRECTION('',(-1.,2.94121526606097E-15,-3.84326154212786E-15));
#1345=DIRECTION('',(-3.84326154212786E-15,0.,1.));
#1346=DIRECTION('',(-1.,2.94121526606097E-15,-3.84326154212786E-15));
#1347=DIRECTION('',(-3.84326154212786E-15,0.,1.));
#1348=DIRECTION('',(1.,-2.94121526606097E-15,3.84326154212786E-15));
#1349=DIRECTION('',(-3.72284921168201E-15,-0.97491566286073,0.222574594931281));
#1350=DIRECTION('',(1.,-2.94121526606097E-15,3.84326154212786E-15));
#1351=DIRECTION('',(-3.72284921168201E-15,-0.97491566286073,0.222574594931281));
#1352=DIRECTION('',(1.,-2.94121526606097E-15,3.84326154212786E-15));
#1353=DIRECTION('',(1.,-2.94121526606097E-15,3.84326154212786E-15));
#1354=DIRECTION('',(-1.,2.94121526606097E-15,-3.84326154212786E-15));
#1355=DIRECTION('',(3.72284921168201E-15,0.97491566286073,-0.222574594931281));
#1356=DIRECTION('',(-1.,2.94121526606097E-15,-3.84326154212786E-15));
#1357=DIRECTION('',(-3.84326154212786E-15,0.,1.));
#1358=DIRECTION('',(1.,4.75940611187654E-15,-2.13705852706373E-15));
#1359=DIRECTION('',(2.38851707826959E-15,-0.781817736207743,-0.623507038734126));
#1360=DIRECTION('',(1.,4.75940611187654E-15,-2.13705852706373E-15));
#1361=DIRECTION('',(2.38851707826959E-15,-0.781817736207743,-0.623507038734126));
#1362=DIRECTION('',(1.,4.75940611187654E-15,-2.13705852706373E-15));
#1363=DIRECTION('',(-4.75940611187654E-15,1.,0.));
#1364=DIRECTION('',(1.,4.75940611187654E-15,-2.13705852706373E-15));
#1365=DIRECTION('',(2.38851707826959E-15,-0.781817736207743,-0.623507038734126));
#1366=DIRECTION('',(1.,4.75940611187654E-15,-2.13705852706373E-15));
#1367=DIRECTION('',(2.38851707826959E-15,-0.781817736207743,-0.623507038734126));
#1368=DIRECTION('',(1.,4.75940611187654E-15,-2.13705852706373E-15));
#1369=DIRECTION('',(1.,4.75940611187654E-15,-2.13705852706373E-15));
#1370=DIRECTION('',(1.,4.75940611187654E-15,-2.13705852706373E-15));
#1371=DIRECTION('',(2.38851707826959E-15,-0.781817736207743,-0.623507038734126));
#1372=DIRECTION('',(1.,4.75940611187654E-15,-2.13705852706373E-15));
#1373=DIRECTION('',(2.38851707826959E-15,-0.781817736207743,-0.623507038734126));
#1374=DIRECTION('',(1.,4.75940611187654E-15,-2.13705852706373E-15));
#1375=DIRECTION('',(-4.75940611187654E-15,1.,0.));
#1376=DIRECTION('',(1.,4.75940611187654E-15,-2.13705852706373E-15));
#1377=DIRECTION('',(-4.75940611187654E-15,1.,0.));
#1378=DIRECTION('',(1.,4.75940611187654E-15,-2.13705852706373E-15));
#1379=DIRECTION('',(2.38851707826959E-15,-0.781817736207743,-0.623507038734126));
#1380=DIRECTION('',(1.,4.75940611187654E-15,-2.13705852706373E-15));
#1381=DIRECTION('',(2.38851707826959E-15,-0.781817736207743,-0.623507038734126));
#1382=DIRECTION('',(1.,4.75940611187654E-15,-2.13705852706373E-15));
#1383=DIRECTION('',(1.,4.75940611187654E-15,-2.13705852706373E-15));
#1384=DIRECTION('',(-1.,-4.75940611187654E-15,2.13705852706373E-15));
#1385=DIRECTION('',(-2.38851707826959E-15,0.781817736207743,0.623507038734126));
#1386=DIRECTION('',(1.,4.75940611187654E-15,-2.13705852706373E-15));
#1387=DIRECTION('',(2.38851707826959E-15,-0.781817736207743,-0.623507038734126));
#1388=DIRECTION('',(-1.,-4.75940611187654E-15,2.13705852706373E-15));
#1389=DIRECTION('',(4.75940611187654E-15,-1.,0.));
#1390=DIRECTION('',(-1.,-4.75940611187654E-15,2.13705852706373E-15));
#1391=DIRECTION('',(4.75940611187654E-15,-1.,0.));
#1392=DIRECTION('',(1.,4.75940611187654E-15,-2.13705852706373E-15));
#1393=DIRECTION('',(2.38851707826959E-15,-0.781817736207743,-0.623507038734126));
#1394=DIRECTION('',(1.,4.75940611187654E-15,-2.13705852706373E-15));
#1395=DIRECTION('',(2.38851707826959E-15,-0.781817736207743,-0.623507038734126));
#1396=DIRECTION('',(1.,4.75940611187654E-15,-2.13705852706373E-15));
#1397=DIRECTION('',(1.,4.75940611187654E-15,-2.13705852706373E-15));
#1398=DIRECTION('',(-1.,-4.75940611187654E-15,2.13705852706373E-15));
#1399=DIRECTION('',(-2.38851707826959E-15,0.781817736207743,0.623507038734126));
#1400=DIRECTION('',(-1.,-4.75940611187654E-15,2.13705852706373E-15));
#1401=DIRECTION('',(4.75940611187654E-15,-1.,0.));
#1402=DIRECTION('',(-1.,0.,0.));
#1403=DIRECTION('',(0.,0.,1.));
#1404=DIRECTION('',(-1.,0.,0.));
#1405=DIRECTION('',(0.,0.,1.));
#1406=DIRECTION('',(-1.,0.,0.));
#1407=DIRECTION('',(0.,0.,1.));
#1408=DIRECTION('',(-1.,0.,0.));
#1409=DIRECTION('',(0.,0.,1.));
#1410=DIRECTION('',(-1.,0.,0.));
#1411=DIRECTION('',(0.,0.,1.));
#1412=DIRECTION('',(1.,0.,0.));
#1413=DIRECTION('',(0.,0.,-1.));
#1414=DIRECTION('',(1.,0.,0.));
#1415=DIRECTION('',(0.,0.,-1.));
#1416=DIRECTION('',(1.,0.,0.));
#1417=DIRECTION('',(0.,0.,-1.));
#1418=DIRECTION('',(-1.,0.,0.));
#1419=DIRECTION('',(0.,0.,1.));
#1420=DIRECTION('',(-1.,0.,0.));
#1421=DIRECTION('',(0.,0.,1.));
#1422=DIRECTION('',(-1.,0.,0.));
#1423=DIRECTION('',(0.,0.,1.));
#1424=DIRECTION('',(-1.,0.,0.));
#1425=DIRECTION('',(0.,0.,1.));
#1426=DIRECTION('',(-1.,0.,0.));
#1427=DIRECTION('',(0.,0.,1.));
#1428=DIRECTION('',(-1.,0.,0.));
#1429=DIRECTION('',(0.,0.,1.));
#1430=DIRECTION('',(1.,0.,1.54886024640786E-16));
#1431=DIRECTION('',(1.54886024640786E-16,0.,-1.));
#1432=DIRECTION('',(1.,0.,1.54886024640786E-16));
#1433=DIRECTION('',(1.,0.,1.54886024640786E-16));
#1434=DIRECTION('',(1.54886024640786E-16,0.,-1.));
#1435=DIRECTION('',(1.,0.,1.54886024640786E-16));
#1436=DIRECTION('',(-1.,0.,-1.54886024640786E-16));
#1437=DIRECTION('',(-1.54886024640786E-16,0.,1.));
#1438=DIRECTION('',(1.,0.,1.54886024640786E-16));
#1439=DIRECTION('',(-1.,0.,-1.54886024640786E-16));
#1440=DIRECTION('',(-1.54886024640786E-16,0.,1.));
#1441=DIRECTION('',(1.,0.,1.54886024640786E-16));
#1442=DIRECTION('',(-1.,0.,-1.54886024640786E-16));
#1443=DIRECTION('',(-1.54886024640786E-16,0.,1.));
#1444=DIRECTION('',(1.,0.,1.54886024640786E-16));
#1445=DIRECTION('',(1.,0.,1.54886024640786E-16));
#1446=DIRECTION('',(1.54886024640786E-16,0.,-1.));
#1447=DIRECTION('',(1.,0.,1.54886024640786E-16));
#1448=DIRECTION('',(-1.,0.,0.));
#1449=DIRECTION('',(0.,0.,1.));
#1450=DIRECTION('',(1.,0.,0.));
#1451=DIRECTION('',(0.,0.,-1.));
#1452=DIRECTION('',(-1.,0.,0.));
#1453=DIRECTION('',(0.,0.,1.));
#1454=DIRECTION('',(-1.,0.,0.));
#1455=DIRECTION('',(0.,0.,1.));
#1456=DIRECTION('',(1.,0.,1.54886024640786E-16));
#1457=DIRECTION('',(1.54886024640786E-16,0.,-1.));
#1458=DIRECTION('',(1.,0.,1.54886024640786E-16));
#1459=DIRECTION('',(1.54886024640786E-16,0.,-1.));
#1460=DIRECTION('',(1.,0.,1.54886024640786E-16));
#1461=DIRECTION('',(1.54886024640786E-16,0.,-1.));
#1462=DIRECTION('',(1.,0.,1.54886024640786E-16));
#1463=DIRECTION('',(1.54886024640786E-16,0.,-1.));
#1464=DIRECTION('',(1.,0.,1.54886024640786E-16));
#1465=DIRECTION('',(1.54886024640786E-16,0.,-1.));
#1466=DIRECTION('',(1.,0.,1.54886024640786E-16));
#1467=DIRECTION('',(1.54886024640786E-16,0.,-1.));
#1468=DIRECTION('',(1.,0.,1.54886024640786E-16));
#1469=DIRECTION('',(1.54886024640786E-16,0.,-1.));
#1470=DIRECTION('',(1.,0.,1.54886024640786E-16));
#1471=DIRECTION('',(1.54886024640786E-16,0.,-1.));
#1472=DIRECTION('',(-1.,0.,-1.54886024640786E-16));
#1473=DIRECTION('',(-1.54886024640786E-16,0.,1.));
#1474=DIRECTION('',(1.,0.,1.54886024640786E-16));
#1475=DIRECTION('',(1.54886024640786E-16,0.,-1.));
#1476=DIRECTION('',(1.,0.,1.54886024640786E-16));
#1477=DIRECTION('',(1.54886024640786E-16,0.,-1.));
#1478=DIRECTION('',(1.,0.,1.54886024640786E-16));
#1479=DIRECTION('',(1.54886024640786E-16,0.,-1.));
#1480=DIRECTION('',(-1.,0.,-1.54886024640786E-16));
#1481=DIRECTION('',(-1.54886024640786E-16,0.,1.));
#1482=DIRECTION('',(1.,0.,0.));
#1483=DIRECTION('',(0.,0.,-1.));
#1484=DIRECTION('',(-1.,0.,0.));
#1485=DIRECTION('',(0.,0.,1.));
#1486=CARTESIAN_POINT('',(0.,0.,0.));
#1487=CARTESIAN_POINT('',(2.8,-2.58002570022576,2.05752427482439));
#1488=CARTESIAN_POINT('',(2.8,-2.58002570022576,2.05752427482439));
#1489=CARTESIAN_POINT('',(2.8,-2.81001897170039,1.73025818266634));
#1490=CARTESIAN_POINT('',(2.8,-2.31214001186506,2.35457184335763));
#1491=CARTESIAN_POINT('',(2.8,0.,0.));
#1492=CARTESIAN_POINT('',(-2.8,-2.58002570022576,2.05752427482439));
#1493=CARTESIAN_POINT('',(2.45,-2.58002570022576,2.05752427482439));
#1494=CARTESIAN_POINT('',(2.45,-2.81001897170039,1.73025818266634));
#1495=CARTESIAN_POINT('',(2.45,-2.31214001186506,2.35457184335763));
#1496=CARTESIAN_POINT('',(2.625,-2.31214001186506,2.35457184335763));
#1497=CARTESIAN_POINT('',(2.625,-2.81001897170039,1.73025818266634));
#1498=CARTESIAN_POINT('',(2.45,-2.26729860643121,1.80812145846737));
#1499=CARTESIAN_POINT('',(2.45,-2.58002570022576,2.05752427482439));
#1500=CARTESIAN_POINT('',(2.45,-2.99933715083475,1.3762182441831));
#1501=CARTESIAN_POINT('',(2.45,-2.00910105211532,2.61792149660548));
#1502=CARTESIAN_POINT('',(2.45,0.,0.));
#1503=CARTESIAN_POINT('',(2.45,0.,0.));
#1504=CARTESIAN_POINT('',(-2.8,-2.58002570022576,2.05752427482439));
#1505=CARTESIAN_POINT('',(-2.45,-2.58002570022576,2.05752427482439));
#1506=CARTESIAN_POINT('',(-2.45,-2.99933715083475,1.37621824418311));
#1507=CARTESIAN_POINT('',(-2.45,-2.00910105211532,2.61792149660547));
#1508=CARTESIAN_POINT('',(-4.33680868994202E-16,-2.00910105211532,2.61792149660548));
#1509=CARTESIAN_POINT('',(-4.33680868994202E-16,-2.99933715083475,1.37621824418311));
#1510=CARTESIAN_POINT('',(-2.45,-2.26729860643121,1.80812145846737));
#1511=CARTESIAN_POINT('',(-2.45,-2.58002570022576,2.05752427482439));
#1512=CARTESIAN_POINT('',(-2.45,-2.81001897170039,1.73025818266634));
#1513=CARTESIAN_POINT('',(-2.45,-2.31214001186506,2.35457184335763));
#1514=CARTESIAN_POINT('',(-2.45,0.,0.));
#1515=CARTESIAN_POINT('',(-2.45,0.,0.));
#1516=CARTESIAN_POINT('',(-2.8,-2.58002570022576,2.05752427482439));
#1517=CARTESIAN_POINT('',(-2.8,-2.58002570022576,2.05752427482439));
#1518=CARTESIAN_POINT('',(-2.8,-2.81001897170039,1.73025818266634));
#1519=CARTESIAN_POINT('',(-2.8,-2.31214001186506,2.35457184335763));
#1520=CARTESIAN_POINT('',(-2.625,-2.31214001186506,2.35457184335763));
#1521=CARTESIAN_POINT('',(-2.625,-2.81001897170039,1.73025818266634));
#1522=CARTESIAN_POINT('',(-2.8,-2.58002570022577,2.05752427482439));
#1523=CARTESIAN_POINT('',(-2.8,0.,0.));
#1524=CARTESIAN_POINT('',(2.8,-3.2172500832794,-0.73436136112294));
#1525=CARTESIAN_POINT('',(2.8,-3.2172500832794,-0.73436136112294));
#1526=CARTESIAN_POINT('',(2.8,-3.10476781751012,-1.11822037155178));
#1527=CARTESIAN_POINT('',(2.8,-3.28246774528706,-0.339713851866574));
#1528=CARTESIAN_POINT('',(2.8,0.,0.));
#1529=CARTESIAN_POINT('',(-2.8,-3.2172500832794,-0.73436136112294));
#1530=CARTESIAN_POINT('',(2.45,-3.2172500832794,-0.73436136112294));
#1531=CARTESIAN_POINT('',(2.45,-3.10476781751012,-1.11822037155178));
#1532=CARTESIAN_POINT('',(2.45,-3.28246774528706,-0.339713851866574));
#1533=CARTESIAN_POINT('',(2.625,-3.28246774528706,-0.339713851866574));
#1534=CARTESIAN_POINT('',(2.625,-3.10476781751012,-1.11822037155178));
#1535=CARTESIAN_POINT('',(2.45,-2.82728381788932,-0.645331524227036));
#1536=CARTESIAN_POINT('',(2.45,-3.2172500832794,-0.73436136112294));
#1537=CARTESIAN_POINT('',(2.45,-2.94599957625071,-1.48697225822494));
#1538=CARTESIAN_POINT('',(2.45,-3.29942862119991,0.0614066251049833));
#1539=CARTESIAN_POINT('',(2.45,0.,0.));
#1540=CARTESIAN_POINT('',(2.45,0.,0.));
#1541=CARTESIAN_POINT('',(-2.8,-3.2172500832794,-0.73436136112294));
#1542=CARTESIAN_POINT('',(-2.45,-3.2172500832794,-0.73436136112294));
#1543=CARTESIAN_POINT('',(-2.45,-2.94599957625071,-1.48697225822494));
#1544=CARTESIAN_POINT('',(-2.45,-3.29942862119991,0.0614066251049799));
#1545=CARTESIAN_POINT('',(0.,-3.29942862119991,0.0614066251049816));
#1546=CARTESIAN_POINT('',(0.,-2.94599957625071,-1.48697225822494));
#1547=CARTESIAN_POINT('',(-2.45,-2.82728381788932,-0.645331524227036));
#1548=CARTESIAN_POINT('',(-2.45,-3.2172500832794,-0.73436136112294));
#1549=CARTESIAN_POINT('',(-2.45,-3.10476781751012,-1.11822037155178));
#1550=CARTESIAN_POINT('',(-2.45,-3.28246774528706,-0.339713851866574));
#1551=CARTESIAN_POINT('',(-2.45,0.,0.));
#1552=CARTESIAN_POINT('',(-2.45,0.,0.));
#1553=CARTESIAN_POINT('',(-2.8,-3.2172500832794,-0.73436136112294));
#1554=CARTESIAN_POINT('',(-2.8,-3.2172500832794,-0.73436136112294));
#1555=CARTESIAN_POINT('',(-2.8,-3.10476781751012,-1.11822037155178));
#1556=CARTESIAN_POINT('',(-2.8,-3.28246774528706,-0.339713851866574));
#1557=CARTESIAN_POINT('',(-2.625,-3.28246774528706,-0.339713851866574));
#1558=CARTESIAN_POINT('',(-2.625,-3.10476781751012,-1.11822037155178));
#1559=CARTESIAN_POINT('',(-2.8,-3.2172500832794,-0.73436136112294));
#1560=CARTESIAN_POINT('',(-2.8,0.,0.));
#1561=CARTESIAN_POINT('',(2.8,-1.43185306218482,-2.97317242926766));
#1562=CARTESIAN_POINT('',(2.8,-1.43185306218482,-2.97317242926766));
#1563=CARTESIAN_POINT('',(2.8,-1.06161403596665,-3.12457607342797));
#1564=CARTESIAN_POINT('',(2.8,-1.7810602692958,-2.77809724760238));
#1565=CARTESIAN_POINT('',(2.8,0.,0.));
#1566=CARTESIAN_POINT('',(-2.8,-1.43185306218482,-2.97317242926766));
#1567=CARTESIAN_POINT('',(2.45,-1.43185306218482,-2.97317242926766));
#1568=CARTESIAN_POINT('',(2.45,-1.06161403596665,-3.12457607342797));
#1569=CARTESIAN_POINT('',(2.45,-1.7810602692958,-2.77809724760238));
#1570=CARTESIAN_POINT('',(2.625,-1.7810602692958,-2.77809724760238));
#1571=CARTESIAN_POINT('',(2.625,-1.06161403596665,-3.12457607342797));
#1572=CARTESIAN_POINT('',(2.45,-1.25827971158072,-2.61279444442388));
#1573=CARTESIAN_POINT('',(2.45,-1.43185306218482,-2.97317242926766));
#1574=CARTESIAN_POINT('',(2.45,-0.674324379770812,-3.23036942637319));
#1575=CARTESIAN_POINT('',(2.45,-2.10523769840149,-2.54125446054289));
#1576=CARTESIAN_POINT('',(2.45,0.,0.));
#1577=CARTESIAN_POINT('',(2.45,0.,0.));
#1578=CARTESIAN_POINT('',(-2.8,-1.43185306218482,-2.97317242926766));
#1579=CARTESIAN_POINT('',(-2.45,-1.43185306218482,-2.97317242926766));
#1580=CARTESIAN_POINT('',(-2.45,-0.674324379770815,-3.23036942637319));
#1581=CARTESIAN_POINT('',(-2.45,-2.10523769840149,-2.54125446054289));
#1582=CARTESIAN_POINT('',(8.67361737988404E-16,-2.10523769840149,-2.54125446054289));
#1583=CARTESIAN_POINT('',(8.67361737988403E-16,-0.674324379770814,-3.23036942637319));
#1584=CARTESIAN_POINT('',(-2.45,-1.25827971158072,-2.61279444442388));
#1585=CARTESIAN_POINT('',(-2.45,-1.43185306218482,-2.97317242926766));
#1586=CARTESIAN_POINT('',(-2.45,-1.06161403596665,-3.12457607342797));
#1587=CARTESIAN_POINT('',(-2.45,-1.7810602692958,-2.77809724760238));
#1588=CARTESIAN_POINT('',(-2.45,0.,0.));
#1589=CARTESIAN_POINT('',(-2.45,0.,0.));
#1590=CARTESIAN_POINT('',(-2.8,-1.43185306218482,-2.97317242926766));
#1591=CARTESIAN_POINT('',(-2.8,-1.43185306218482,-2.97317242926766));
#1592=CARTESIAN_POINT('',(-2.8,-1.06161403596665,-3.12457607342797));
#1593=CARTESIAN_POINT('',(-2.8,-1.7810602692958,-2.77809724760238));
#1594=CARTESIAN_POINT('',(-2.625,-1.7810602692958,-2.77809724760238));
#1595=CARTESIAN_POINT('',(-2.625,-1.06161403596665,-3.12457607342797));
#1596=CARTESIAN_POINT('',(-2.8,-1.43185306218482,-2.97317242926766));
#1597=CARTESIAN_POINT('',(-2.8,0.,0.));
#1598=CARTESIAN_POINT('',(2.79999999999999,1.43185305397658,-2.97317243322066));
#1599=CARTESIAN_POINT('',(2.79999999999999,1.43185305397658,-2.97317243322066));
#1600=CARTESIAN_POINT('',(2.79999999999999,1.78106026162613,-2.77809725251947));
#1601=CARTESIAN_POINT('',(2.79999999999999,1.06161402734042,-3.12457607635884));
#1602=CARTESIAN_POINT('',(2.80000000000004,0.,0.));
#1603=CARTESIAN_POINT('',(-2.80000000000001,1.43185305397655,-2.97317243322057));
#1604=CARTESIAN_POINT('',(2.44999999999999,1.43185305397657,-2.97317243322066));
#1605=CARTESIAN_POINT('',(2.44999999999999,1.78106026162613,-2.77809725251947));
#1606=CARTESIAN_POINT('',(2.44999999999999,1.06161402734042,-3.12457607635884));
#1607=CARTESIAN_POINT('',(2.62499999999999,1.06161402734042,-3.12457607635884));
#1608=CARTESIAN_POINT('',(2.62499999999999,1.78106026162613,-2.77809725251947));
#1609=CARTESIAN_POINT('',(2.44999999999999,1.2582797043674,-2.61279444789768));
#1610=CARTESIAN_POINT('',(2.44999999999999,1.43185305397657,-2.97317243322066));
#1611=CARTESIAN_POINT('',(2.44999999999999,2.10523769138568,-2.54125446635496));
#1612=CARTESIAN_POINT('',(2.44999999999999,0.674324370852516,-3.23036942823484));
#1613=CARTESIAN_POINT('',(2.45000000000004,0.,0.));
#1614=CARTESIAN_POINT('',(2.45000000000004,0.,0.));
#1615=CARTESIAN_POINT('',(-2.80000000000001,1.43185305397655,-2.97317243322057));
#1616=CARTESIAN_POINT('',(-2.45000000000001,1.43185305397656,-2.97317243322058));
#1617=CARTESIAN_POINT('',(-2.45000000000001,2.1052376913857,-2.54125446635494));
#1618=CARTESIAN_POINT('',(-2.45000000000001,0.674324370852527,-3.23036942823484));
#1619=CARTESIAN_POINT('',(-1.43114686768087E-14,0.674324370852521,-3.23036942823484));
#1620=CARTESIAN_POINT('',(-8.67361737988404E-15,2.10523769138569,-2.54125446635495));
#1621=CARTESIAN_POINT('',(-2.45000000000001,1.25827970436738,-2.6127944478976));
#1622=CARTESIAN_POINT('',(-2.45000000000001,1.43185305397656,-2.97317243322058));
#1623=CARTESIAN_POINT('',(-2.45000000000001,1.78106026162614,-2.77809725251946));
#1624=CARTESIAN_POINT('',(-2.45000000000001,1.06161402734044,-3.12457607635883));
#1625=CARTESIAN_POINT('',(-2.44999999999996,0.,0.));
#1626=CARTESIAN_POINT('',(-2.44999999999996,0.,0.));
#1627=CARTESIAN_POINT('',(-2.80000000000001,1.43185305397655,-2.97317243322057));
#1628=CARTESIAN_POINT('',(-2.80000000000001,1.43185305397655,-2.97317243322057));
#1629=CARTESIAN_POINT('',(-2.80000000000001,1.78106026162615,-2.77809725251946));
#1630=CARTESIAN_POINT('',(-2.80000000000001,1.06161402734044,-3.12457607635883));
#1631=CARTESIAN_POINT('',(-2.62500000000001,1.06161402734044,-3.12457607635883));
#1632=CARTESIAN_POINT('',(-2.62500000000001,1.78106026162615,-2.77809725251946));
#1633=CARTESIAN_POINT('',(-2.80000000000001,1.43185305397655,-2.97317243322057));
#1634=CARTESIAN_POINT('',(-2.79999999999996,0.,0.));
#1635=CARTESIAN_POINT('',(2.8,3.217250081252,-0.73436137000503));
#1636=CARTESIAN_POINT('',(2.8,3.217250081252,-0.73436137000503));
#1637=CARTESIAN_POINT('',(2.8,3.28246774434919,-0.339713860928714));
#1638=CARTESIAN_POINT('',(2.8,3.10476781442297,-1.11822038012333));
#1639=CARTESIAN_POINT('',(2.79999999999999,0.,0.));
#1640=CARTESIAN_POINT('',(-2.8,3.21725008125202,-0.734361370005052));
#1641=CARTESIAN_POINT('',(2.45,3.217250081252,-0.734361370005031));
#1642=CARTESIAN_POINT('',(2.45,3.28246774434919,-0.339713860928715));
#1643=CARTESIAN_POINT('',(2.45,3.10476781442297,-1.11822038012333));
#1644=CARTESIAN_POINT('',(2.625,3.10476781442297,-1.11822038012333));
#1645=CARTESIAN_POINT('',(2.625,3.28246774434919,-0.339713860928715));
#1646=CARTESIAN_POINT('',(2.45,2.82728381610771,-0.645331532032519));
#1647=CARTESIAN_POINT('',(2.45,3.217250081252,-0.734361370005031));
#1648=CARTESIAN_POINT('',(2.45,3.29942862136944,0.061406615996016));
#1649=CARTESIAN_POINT('',(2.45000000000001,2.94599957214552,-1.48697226635817));
#1650=CARTESIAN_POINT('',(2.44999999999999,0.,0.));
#1651=CARTESIAN_POINT('',(2.44999999999999,0.,0.));
#1652=CARTESIAN_POINT('',(-2.8,3.21725008125202,-0.734361370005052));
#1653=CARTESIAN_POINT('',(-2.45,3.21725008125202,-0.73436137000505));
#1654=CARTESIAN_POINT('',(-2.45,3.29942862136944,0.0614066159959951));
#1655=CARTESIAN_POINT('',(-2.44999999999999,2.94599957214552,-1.48697226635818));
#1656=CARTESIAN_POINT('',(5.63785129692462E-15,2.94599957214552,-1.48697226635817));
#1657=CARTESIAN_POINT('',(8.67361737988404E-16,3.29942862136944,0.0614066159960055));
#1658=CARTESIAN_POINT('',(-2.45,2.82728381610772,-0.645331532032538));
#1659=CARTESIAN_POINT('',(-2.45,3.21725008125202,-0.73436137000505));
#1660=CARTESIAN_POINT('',(-2.45,3.28246774434919,-0.339713860928733));
#1661=CARTESIAN_POINT('',(-2.44999999999999,3.10476781442296,-1.11822038012334));
#1662=CARTESIAN_POINT('',(-2.45000000000001,0.,0.));
#1663=CARTESIAN_POINT('',(-2.45000000000001,0.,0.));
#1664=CARTESIAN_POINT('',(-2.8,3.21725008125202,-0.734361370005052));
#1665=CARTESIAN_POINT('',(-2.8,3.21725008125202,-0.734361370005052));
#1666=CARTESIAN_POINT('',(-2.8,3.28246774434919,-0.339713860928734));
#1667=CARTESIAN_POINT('',(-2.8,3.10476781442296,-1.11822038012335));
#1668=CARTESIAN_POINT('',(-2.625,3.10476781442296,-1.11822038012334));
#1669=CARTESIAN_POINT('',(-2.625,3.28246774434919,-0.339713860928733));
#1670=CARTESIAN_POINT('',(-2.8,3.21725008125202,-0.734361370005052));
#1671=CARTESIAN_POINT('',(-2.80000000000001,0.,0.));
#1672=CARTESIAN_POINT('',(2.8,2.58002570590611,2.05752426770153));
#1673=CARTESIAN_POINT('',(2.8,2.58002570590611,2.05752426770154));
#1674=CARTESIAN_POINT('',(2.8,2.31214001836549,2.35457183697435));
#1675=CARTESIAN_POINT('',(2.8,2.81001897647723,1.73025817490853));
#1676=CARTESIAN_POINT('',(2.80000000000001,0.,0.));
#1677=CARTESIAN_POINT('',(-2.8,2.58002570590609,2.05752426770155));
#1678=CARTESIAN_POINT('',(2.45,2.58002570590611,2.05752426770154));
#1679=CARTESIAN_POINT('',(2.45,2.31214001836549,2.35457183697435));
#1680=CARTESIAN_POINT('',(2.45,2.81001897647723,1.73025817490853));
#1681=CARTESIAN_POINT('',(2.625,2.81001897647723,1.73025817490853));
#1682=CARTESIAN_POINT('',(2.625,2.31214001836549,2.35457183697435));
#1683=CARTESIAN_POINT('',(2.45,2.26729861142302,1.80812145220789));
#1684=CARTESIAN_POINT('',(2.45,2.58002570590611,2.05752426770154));
#1685=CARTESIAN_POINT('',(2.45,2.00910105934279,2.61792149105881));
#1686=CARTESIAN_POINT('',(2.44999999999999,2.99933715463417,1.37621823590263));
#1687=CARTESIAN_POINT('',(2.45000000000001,0.,0.));
#1688=CARTESIAN_POINT('',(2.45000000000001,0.,0.));
#1689=CARTESIAN_POINT('',(-2.8,2.58002570590609,2.05752426770155));
#1690=CARTESIAN_POINT('',(-2.45,2.58002570590609,2.05752426770155));
#1691=CARTESIAN_POINT('',(-2.45,2.00910105934278,2.61792149105883));
#1692=CARTESIAN_POINT('',(-2.45000000000001,2.99933715463416,1.37621823590265));
#1693=CARTESIAN_POINT('',(-5.63785129692462E-15,2.99933715463416,1.37621823590264));
#1694=CARTESIAN_POINT('',(1.73472347597681E-15,2.00910105934279,2.61792149105882));
#1695=CARTESIAN_POINT('',(-2.45,2.26729861142299,1.8081214522079));
#1696=CARTESIAN_POINT('',(-2.45,2.58002570590609,2.05752426770155));
#1697=CARTESIAN_POINT('',(-2.45,2.31214001836547,2.35457183697437));
#1698=CARTESIAN_POINT('',(-2.45,2.81001897647722,1.73025817490855));
#1699=CARTESIAN_POINT('',(-2.44999999999999,0.,0.));
#1700=CARTESIAN_POINT('',(-2.44999999999999,0.,0.));
#1701=CARTESIAN_POINT('',(-2.8,2.58002570590609,2.05752426770155));
#1702=CARTESIAN_POINT('',(-2.8,2.58002570590609,2.05752426770155));
#1703=CARTESIAN_POINT('',(-2.8,2.31214001836547,2.35457183697437));
#1704=CARTESIAN_POINT('',(-2.8,2.81001897647722,1.73025817490855));
#1705=CARTESIAN_POINT('',(-2.625,2.81001897647722,1.73025817490855));
#1706=CARTESIAN_POINT('',(-2.625,2.31214001836547,2.35457183697437));
#1707=CARTESIAN_POINT('',(-2.8,2.58002570590609,2.05752426770155));
#1708=CARTESIAN_POINT('',(-2.79999999999999,0.,0.));
#1709=CARTESIAN_POINT('',(-3.5,0.,4.49999999999999));
#1710=CARTESIAN_POINT('',(-3.5,0.,0.));
#1711=CARTESIAN_POINT('',(-3.5,0.,4.09999999999999));
#1712=CARTESIAN_POINT('',(-3.5,0.,0.));
#1713=CARTESIAN_POINT('',(-3.5,0.,2.49999999999999));
#1714=CARTESIAN_POINT('',(0.,0.,0.));
#1715=CARTESIAN_POINT('',(-3.1,0.,0.));
#1716=CARTESIAN_POINT('',(-3.1,0.,4.49999999999999));
#1717=CARTESIAN_POINT('',(3.1,0.,0.));
#1718=CARTESIAN_POINT('',(3.1,0.,-4.49999999999999));
#1719=CARTESIAN_POINT('',(3.5,0.,4.49999999999999));
#1720=CARTESIAN_POINT('',(3.5,0.,0.));
#1721=CARTESIAN_POINT('',(3.5,0.,-4.09999999999999));
#1722=CARTESIAN_POINT('',(3.5,0.,0.));
#1723=CARTESIAN_POINT('',(3.5,0.,2.49999999999999));
#1724=CARTESIAN_POINT('',(0.,0.,0.));
#1725=CARTESIAN_POINT('',(3.15,0.,0.));
#1726=CARTESIAN_POINT('',(3.15,0.,2.49999999999999));
#1727=CARTESIAN_POINT('',(3.15,0.,3.29999999999999));
#1728=CARTESIAN_POINT('',(3.15,0.,0.));
#1729=CARTESIAN_POINT('',(3.15,0.,3.29999999999999));
#1730=CARTESIAN_POINT('',(0.,0.,0.));
#1731=CARTESIAN_POINT('',(2.8,0.,0.));
#1732=CARTESIAN_POINT('',(2.8,0.39926470526062,3.27575757575757));
#1733=CARTESIAN_POINT('',(2.8,-0.39926470526062,3.27575757575757));
#1734=CARTESIAN_POINT('',(2.625,0.39926470526062,3.27575757575757));
#1735=CARTESIAN_POINT('',(2.45,0.39926470526062,3.27575757575757));
#1736=CARTESIAN_POINT('',(2.45,0.,0.));
#1737=CARTESIAN_POINT('',(2.45,0.794101302019837,3.2030303030303));
#1738=CARTESIAN_POINT('',(1.50192508742578E-17,0.794101302019837,3.2030303030303));
#1739=CARTESIAN_POINT('',(-2.45,0.794101302019835,3.2030303030303));
#1740=CARTESIAN_POINT('',(-2.45,0.,0.));
#1741=CARTESIAN_POINT('',(-2.45,0.399264705260619,3.27575757575757));
#1742=CARTESIAN_POINT('',(-2.625,0.399264705260619,3.27575757575757));
#1743=CARTESIAN_POINT('',(-2.8,0.399264705260619,3.27575757575757));
#1744=CARTESIAN_POINT('',(-2.8,0.,0.));
#1745=CARTESIAN_POINT('',(-2.8,-0.399264705260619,3.27575757575757));
#1746=CARTESIAN_POINT('',(-2.625,-0.399264705260619,3.27575757575757));
#1747=CARTESIAN_POINT('',(-2.45,-0.399264705260619,3.27575757575757));
#1748=CARTESIAN_POINT('',(-2.45,0.,0.));
#1749=CARTESIAN_POINT('',(-2.45,-0.794101302019835,3.2030303030303));
#1750=CARTESIAN_POINT('',(1.50192508742578E-17,-0.794101302019837,3.2030303030303));
#1751=CARTESIAN_POINT('',(2.45,-0.794101302019837,3.2030303030303));
#1752=CARTESIAN_POINT('',(2.45,0.,0.));
#1753=CARTESIAN_POINT('',(2.45,-0.39926470526062,3.27575757575757));
#1754=CARTESIAN_POINT('',(2.625,-0.39926470526062,3.27575757575757));
#1755=CARTESIAN_POINT('',(-3.15,0.,0.));
#1756=CARTESIAN_POINT('',(-3.15,0.,3.29999999999999));
#1757=CARTESIAN_POINT('',(-3.15,0.,3.29999999999999));
#1758=CARTESIAN_POINT('',(-3.15,0.,0.));
#1759=CARTESIAN_POINT('',(-3.15,0.,2.49999999999999));
#1760=CARTESIAN_POINT('',(0.,0.,0.));
#1761=CARTESIAN_POINT('',(2.8,0.,3.29999999999999));
#1762=CARTESIAN_POINT('',(2.8,0.,3.29999999999999));
#1763=CARTESIAN_POINT('',(-2.8,0.,3.29999999999999));
#1764=CARTESIAN_POINT('',(2.45,0.,3.29999999999999));
#1765=CARTESIAN_POINT('',(2.45,0.,2.89999999999999));
#1766=CARTESIAN_POINT('',(2.45,0.,3.29999999999999));
#1767=CARTESIAN_POINT('',(-2.8,0.,3.29999999999999));
#1768=CARTESIAN_POINT('',(-2.45,0.,3.29999999999999));
#1769=CARTESIAN_POINT('',(-2.45,0.,2.89999999999999));
#1770=CARTESIAN_POINT('',(-2.45,0.,3.29999999999999));
#1771=CARTESIAN_POINT('',(-2.8,0.,3.29999999999999));
#1772=CARTESIAN_POINT('',(-2.8,0.,3.29999999999999));
#1773=CARTESIAN_POINT('',(-2.8,0.,3.29999999999999));
#1774=CARTESIAN_POINT('',(3.1,0.,0.));
#1775=CARTESIAN_POINT('',(-3.1,0.,0.));
#1776=MECHANICAL_DESIGN_GEOMETRIC_PRESENTATION_REPRESENTATION('',(#971),
#1777);
#1777=(
GEOMETRIC_REPRESENTATION_CONTEXT(3)
GLOBAL_UNCERTAINTY_ASSIGNED_CONTEXT((#1778))
GLOBAL_UNIT_ASSIGNED_CONTEXT((#1781,#1780,#1779))
REPRESENTATION_CONTEXT(
'\X2\51B2538B591657086EE188C56EDA94888F74627F7A7F5B54578B\X0\ GBT12764
-2019','TOP_LEVEL_ASSEMBLY_PART')
);
#1778=UNCERTAINTY_MEASURE_WITH_UNIT(LENGTH_MEASURE(0.005),#1781,
'DISTANCE_ACCURACY_VALUE','Maximum Tolerance applied to model');
#1779=(
NAMED_UNIT(*)
SI_UNIT($,.STERADIAN.)
SOLID_ANGLE_UNIT()
);
#1780=(
NAMED_UNIT(*)
PLANE_ANGLE_UNIT()
SI_UNIT($,.RADIAN.)
);
#1781=(
LENGTH_UNIT()
NAMED_UNIT(*)
SI_UNIT(.MILLI.,.METRE.)
);
#1782=PRODUCT_DEFINITION_SHAPE('','',#1783);
#1783=PRODUCT_DEFINITION('','',#1785,#1784);
#1784=PRODUCT_DEFINITION_CONTEXT('',#1791,'design');
#1785=PRODUCT_DEFINITION_FORMATION_WITH_SPECIFIED_SOURCE('','',#1787,
 .NOT_KNOWN.);
#1786=PRODUCT_RELATED_PRODUCT_CATEGORY('','',(#1787));
#1787=PRODUCT('\X2\51B2538B591657086EE188C56EDA94888F74627F7A7F5B54578B\X0\ 
GBT12764-2019','\X2\51B2538B591657086EE188C56EDA94888F74627F7A7F5B54578B\X0\ 
GBT12764-2019','\X2\51B2538B591657086EE188C56EDA94888F74627F7A7F5B54578B\X0\ 
GBT12764-2019',(#1789));
#1788=PRODUCT_CATEGORY('','');
#1789=PRODUCT_CONTEXT('',#1791,'mechanical');
#1790=APPLICATION_PROTOCOL_DEFINITION('international standard',
'automotive_design',2010,#1791);
#1791=APPLICATION_CONTEXT(
'core data for automotive mechanical design processes');
ENDSEC;
END-ISO-10303-21;
