ISO-10303-21;
HEADER;
/* Generated by software containing HOOPS Exchange Step
 * from HOOPS Exchange, Inc. (www.tiangong.cloud) 
 */

FILE_DESCRIPTION(
/* description */ ('Unknown'),
/* implementation_level */ '2;1');

FILE_NAME(
/* name */ 'F\X2\578B\X0\',
/* time_stamp */ '2025-12-18T17:21:11+08:00',
/* author */ ('Unknown'),
/* organization */ ('Unknown'),
/* preprocessor_version */ 'ST-DEVELOPER v19.4',
/* originating_system */ 'TianGong',
/* authorisation */ 'Unknown');

FILE_SCHEMA (('AUTOMOTIVE_DESIGN {1 0 10303 214 3 1 1}'));
ENDSEC;

DATA;
#10=PROPERTY_DEFINITION_REPRESENTATION(#14,#12);
#11=PROPERTY_DEFINITION_REPRESENTATION(#15,#13);
#12=REPRESENTATION('',(#16),#257);
#13=REPRESENTATION('',(#17),#257);
#14=PROPERTY_DEFINITION('pmi validation property','',#262);
#15=PROPERTY_DEFINITION('pmi validation property','',#262);
#16=VALUE_REPRESENTATION_ITEM('number of annotations',COUNT_MEASURE(0.));
#17=VALUE_REPRESENTATION_ITEM('number of views',COUNT_MEASURE(0.));
#18=SHAPE_REPRESENTATION_RELATIONSHIP('','',#152,#19);
#19=ADVANCED_BREP_SHAPE_REPRESENTATION('',(#150),#257);
#20=CONICAL_SURFACE('',#173,5.7,0.785398163397448);
#21=CONICAL_SURFACE('',#174,5.16666666666667,0.785398163397446);
#22=CONICAL_SURFACE('',#175,5.,0.785398163397448);
#23=CYLINDRICAL_SURFACE('',#157,7.);
#24=CYLINDRICAL_SURFACE('',#161,5.);
#25=CYLINDRICAL_SURFACE('',#167,6.);
#26=CYLINDRICAL_SURFACE('',#172,5.8);
#27=ORIENTED_EDGE('',*,*,#49,.T.);
#28=ORIENTED_EDGE('',*,*,#50,.F.);
#29=ORIENTED_EDGE('',*,*,#51,.T.);
#30=ORIENTED_EDGE('',*,*,#49,.F.);
#31=ORIENTED_EDGE('',*,*,#52,.T.);
#32=ORIENTED_EDGE('',*,*,#51,.F.);
#33=ORIENTED_EDGE('',*,*,#53,.T.);
#34=ORIENTED_EDGE('',*,*,#54,.T.);
#35=ORIENTED_EDGE('',*,*,#55,.T.);
#36=ORIENTED_EDGE('',*,*,#56,.T.);
#37=ORIENTED_EDGE('',*,*,#57,.T.);
#38=ORIENTED_EDGE('',*,*,#58,.T.);
#39=ORIENTED_EDGE('',*,*,#59,.T.);
#40=ORIENTED_EDGE('',*,*,#58,.F.);
#41=ORIENTED_EDGE('',*,*,#50,.T.);
#42=ORIENTED_EDGE('',*,*,#59,.F.);
#43=ORIENTED_EDGE('',*,*,#57,.F.);
#44=ORIENTED_EDGE('',*,*,#56,.F.);
#45=ORIENTED_EDGE('',*,*,#53,.F.);
#46=ORIENTED_EDGE('',*,*,#52,.F.);
#47=ORIENTED_EDGE('',*,*,#55,.F.);
#48=ORIENTED_EDGE('',*,*,#54,.F.);
#49=EDGE_CURVE('',#60,#60,#71,.T.);
#50=EDGE_CURVE('',#61,#61,#72,.T.);
#51=EDGE_CURVE('',#62,#62,#73,.T.);
#52=EDGE_CURVE('',#63,#63,#74,.F.);
#53=EDGE_CURVE('',#64,#64,#75,.T.);
#54=EDGE_CURVE('',#65,#65,#76,.T.);
#55=EDGE_CURVE('',#66,#66,#77,.F.);
#56=EDGE_CURVE('',#67,#67,#78,.T.);
#57=EDGE_CURVE('',#68,#68,#79,.F.);
#58=EDGE_CURVE('',#69,#69,#80,.T.);
#59=EDGE_CURVE('',#70,#70,#81,.T.);
#60=VERTEX_POINT('',#225);
#61=VERTEX_POINT('',#227);
#62=VERTEX_POINT('',#230);
#63=VERTEX_POINT('',#233);
#64=VERTEX_POINT('',#236);
#65=VERTEX_POINT('',#238);
#66=VERTEX_POINT('',#241);
#67=VERTEX_POINT('',#243);
#68=VERTEX_POINT('',#246);
#69=VERTEX_POINT('',#248);
#70=VERTEX_POINT('',#251);
#71=CIRCLE('',#155,7.);
#72=CIRCLE('',#156,5.8);
#73=CIRCLE('',#158,7.);
#74=CIRCLE('',#160,5.16666666666667);
#75=CIRCLE('',#162,5.);
#76=CIRCLE('',#163,5.);
#77=CIRCLE('',#165,5.16666666666667);
#78=CIRCLE('',#166,5.7);
#79=CIRCLE('',#168,6.);
#80=CIRCLE('',#169,6.);
#81=CIRCLE('',#171,5.8);
#82=EDGE_LOOP('',(#27));
#83=EDGE_LOOP('',(#28));
#84=EDGE_LOOP('',(#29));
#85=EDGE_LOOP('',(#30));
#86=EDGE_LOOP('',(#31));
#87=EDGE_LOOP('',(#32));
#88=EDGE_LOOP('',(#33));
#89=EDGE_LOOP('',(#34));
#90=EDGE_LOOP('',(#35));
#91=EDGE_LOOP('',(#36));
#92=EDGE_LOOP('',(#37));
#93=EDGE_LOOP('',(#38));
#94=EDGE_LOOP('',(#39));
#95=EDGE_LOOP('',(#40));
#96=EDGE_LOOP('',(#41));
#97=EDGE_LOOP('',(#42));
#98=EDGE_LOOP('',(#43));
#99=EDGE_LOOP('',(#44));
#100=EDGE_LOOP('',(#45));
#101=EDGE_LOOP('',(#46));
#102=EDGE_LOOP('',(#47));
#103=EDGE_LOOP('',(#48));
#104=FACE_BOUND('',#82,.T.);
#105=FACE_BOUND('',#83,.T.);
#106=FACE_BOUND('',#84,.T.);
#107=FACE_BOUND('',#85,.T.);
#108=FACE_BOUND('',#86,.T.);
#109=FACE_BOUND('',#87,.T.);
#110=FACE_BOUND('',#88,.T.);
#111=FACE_BOUND('',#89,.T.);
#112=FACE_BOUND('',#90,.T.);
#113=FACE_BOUND('',#91,.T.);
#114=FACE_BOUND('',#92,.T.);
#115=FACE_BOUND('',#93,.T.);
#116=FACE_BOUND('',#94,.T.);
#117=FACE_BOUND('',#95,.T.);
#118=FACE_BOUND('',#96,.T.);
#119=FACE_BOUND('',#97,.T.);
#120=FACE_BOUND('',#98,.T.);
#121=FACE_BOUND('',#99,.T.);
#122=FACE_BOUND('',#100,.T.);
#123=FACE_BOUND('',#101,.T.);
#124=FACE_BOUND('',#102,.T.);
#125=FACE_BOUND('',#103,.T.);
#126=PLANE('',#154);
#127=PLANE('',#159);
#128=PLANE('',#164);
#129=PLANE('',#170);
#130=ADVANCED_FACE('',(#104,#105),#126,.T.);
#131=ADVANCED_FACE('',(#106,#107),#23,.T.);
#132=ADVANCED_FACE('',(#108,#109),#127,.T.);
#133=ADVANCED_FACE('',(#110,#111),#24,.F.);
#134=ADVANCED_FACE('',(#112,#113),#128,.T.);
#135=ADVANCED_FACE('',(#114,#115),#25,.T.);
#136=ADVANCED_FACE('',(#116,#117),#129,.T.);
#137=ADVANCED_FACE('',(#118,#119),#26,.T.);
#138=ADVANCED_FACE('',(#120,#121),#20,.T.);
#139=ADVANCED_FACE('',(#122,#123),#21,.F.);
#140=ADVANCED_FACE('',(#124,#125),#22,.F.);
#141=CLOSED_SHELL('',(#130,#131,#132,#133,#134,#135,#136,#137,#138,#139,
#140));
#142=STYLED_ITEM('',(#143),#150);
#143=PRESENTATION_STYLE_ASSIGNMENT((#144));
#144=SURFACE_STYLE_USAGE(.BOTH.,#145);
#145=SURFACE_SIDE_STYLE('',(#146));
#146=SURFACE_STYLE_FILL_AREA(#147);
#147=FILL_AREA_STYLE('',(#148));
#148=FILL_AREA_STYLE_COLOUR('',#149);
#149=COLOUR_RGB('',0.506983280181885,0.531564235687256,0.550000011920929);
#150=MANIFOLD_SOLID_BREP('',#141);
#151=SHAPE_DEFINITION_REPRESENTATION(#262,#152);
#152=SHAPE_REPRESENTATION('F\X2\578B\X0\',(#153),#257);
#153=AXIS2_PLACEMENT_3D('',#222,#176,#177);
#154=AXIS2_PLACEMENT_3D('',#223,#178,#179);
#155=AXIS2_PLACEMENT_3D('',#224,#180,#181);
#156=AXIS2_PLACEMENT_3D('',#226,#182,#183);
#157=AXIS2_PLACEMENT_3D('',#228,#184,#185);
#158=AXIS2_PLACEMENT_3D('',#229,#186,#187);
#159=AXIS2_PLACEMENT_3D('',#231,#188,#189);
#160=AXIS2_PLACEMENT_3D('',#232,#190,#191);
#161=AXIS2_PLACEMENT_3D('',#234,#192,#193);
#162=AXIS2_PLACEMENT_3D('',#235,#194,#195);
#163=AXIS2_PLACEMENT_3D('',#237,#196,#197);
#164=AXIS2_PLACEMENT_3D('',#239,#198,#199);
#165=AXIS2_PLACEMENT_3D('',#240,#200,#201);
#166=AXIS2_PLACEMENT_3D('',#242,#202,#203);
#167=AXIS2_PLACEMENT_3D('',#244,#204,#205);
#168=AXIS2_PLACEMENT_3D('',#245,#206,#207);
#169=AXIS2_PLACEMENT_3D('',#247,#208,#209);
#170=AXIS2_PLACEMENT_3D('',#249,#210,#211);
#171=AXIS2_PLACEMENT_3D('',#250,#212,#213);
#172=AXIS2_PLACEMENT_3D('',#252,#214,#215);
#173=AXIS2_PLACEMENT_3D('',#253,#216,#217);
#174=AXIS2_PLACEMENT_3D('',#254,#218,#219);
#175=AXIS2_PLACEMENT_3D('',#255,#220,#221);
#176=DIRECTION('',(0.,0.,1.));
#177=DIRECTION('',(1.,0.,0.));
#178=DIRECTION('',(-1.,0.,0.));
#179=DIRECTION('',(0.,0.,1.));
#180=DIRECTION('',(-1.,0.,0.));
#181=DIRECTION('',(0.,0.,1.));
#182=DIRECTION('',(-1.,0.,0.));
#183=DIRECTION('',(0.,0.,1.));
#184=DIRECTION('',(-1.,0.,0.));
#185=DIRECTION('',(0.,0.,1.));
#186=DIRECTION('',(-1.,0.,0.));
#187=DIRECTION('',(0.,0.,1.));
#188=DIRECTION('',(1.,0.,0.));
#189=DIRECTION('',(0.,0.,-1.));
#190=DIRECTION('',(1.,0.,0.));
#191=DIRECTION('',(0.,0.,-1.));
#192=DIRECTION('',(-1.,0.,0.));
#193=DIRECTION('',(0.,0.,1.));
#194=DIRECTION('',(1.,0.,0.));
#195=DIRECTION('',(0.,0.,-1.));
#196=DIRECTION('',(-1.,0.,0.));
#197=DIRECTION('',(0.,0.,1.));
#198=DIRECTION('',(-1.,0.,0.));
#199=DIRECTION('',(0.,0.,1.));
#200=DIRECTION('',(-1.,0.,0.));
#201=DIRECTION('',(0.,0.,1.));
#202=DIRECTION('',(-1.,0.,0.));
#203=DIRECTION('',(0.,0.,1.));
#204=DIRECTION('',(-1.,0.,0.));
#205=DIRECTION('',(0.,0.,1.));
#206=DIRECTION('',(-1.,0.,0.));
#207=DIRECTION('',(0.,0.,1.));
#208=DIRECTION('',(-1.,0.,0.));
#209=DIRECTION('',(0.,0.,1.));
#210=DIRECTION('',(1.,0.,0.));
#211=DIRECTION('',(0.,0.,-1.));
#212=DIRECTION('',(-1.,0.,0.));
#213=DIRECTION('',(0.,0.,1.));
#214=DIRECTION('',(-1.,0.,0.));
#215=DIRECTION('',(0.,0.,1.));
#216=DIRECTION('',(1.,0.,0.));
#217=DIRECTION('',(0.,0.,-1.));
#218=DIRECTION('',(1.,0.,0.));
#219=DIRECTION('',(0.,0.,-1.));
#220=DIRECTION('',(-1.,0.,0.));
#221=DIRECTION('',(0.,0.,1.));
#222=CARTESIAN_POINT('',(0.,0.,0.));
#223=CARTESIAN_POINT('',(9.,0.,5.8));
#224=CARTESIAN_POINT('',(9.,0.,0.));
#225=CARTESIAN_POINT('',(9.,0.,7.));
#226=CARTESIAN_POINT('',(9.,0.,0.));
#227=CARTESIAN_POINT('',(9.,0.,5.8));
#228=CARTESIAN_POINT('',(0.,0.,0.));
#229=CARTESIAN_POINT('',(10.,0.,0.));
#230=CARTESIAN_POINT('',(10.,0.,7.));
#231=CARTESIAN_POINT('',(10.,0.,7.));
#232=CARTESIAN_POINT('',(10.,0.,0.));
#233=CARTESIAN_POINT('',(10.,0.,-5.16666666666667));
#234=CARTESIAN_POINT('',(0.,0.,0.));
#235=CARTESIAN_POINT('',(9.83333333333333,0.,0.));
#236=CARTESIAN_POINT('',(9.83333333333333,0.,-5.));
#237=CARTESIAN_POINT('',(0.166666666666667,0.,0.));
#238=CARTESIAN_POINT('',(0.166666666666667,0.,5.));
#239=CARTESIAN_POINT('',(0.,0.,5.));
#240=CARTESIAN_POINT('',(0.,0.,0.));
#241=CARTESIAN_POINT('',(0.,0.,5.16666666666667));
#242=CARTESIAN_POINT('',(0.,0.,0.));
#243=CARTESIAN_POINT('',(0.,0.,5.7));
#244=CARTESIAN_POINT('',(0.,0.,0.));
#245=CARTESIAN_POINT('',(0.3,0.,0.));
#246=CARTESIAN_POINT('',(0.3,0.,6.));
#247=CARTESIAN_POINT('',(8.,0.,0.));
#248=CARTESIAN_POINT('',(8.,0.,6.));
#249=CARTESIAN_POINT('',(8.,0.,6.));
#250=CARTESIAN_POINT('',(8.,0.,0.));
#251=CARTESIAN_POINT('',(8.,0.,5.8));
#252=CARTESIAN_POINT('',(0.,0.,0.));
#253=CARTESIAN_POINT('',(0.,0.,0.));
#254=CARTESIAN_POINT('',(10.,0.,0.));
#255=CARTESIAN_POINT('',(0.166666666666667,0.,0.));
#256=MECHANICAL_DESIGN_GEOMETRIC_PRESENTATION_REPRESENTATION('',(#142),
#257);
#257=(
GEOMETRIC_REPRESENTATION_CONTEXT(3)
GLOBAL_UNCERTAINTY_ASSIGNED_CONTEXT((#258))
GLOBAL_UNIT_ASSIGNED_CONTEXT((#261,#260,#259))
REPRESENTATION_CONTEXT('F\X2\578B\X0\','TOP_LEVEL_ASSEMBLY_PART')
);
#258=UNCERTAINTY_MEASURE_WITH_UNIT(LENGTH_MEASURE(0.005),#261,
'DISTANCE_ACCURACY_VALUE','Maximum Tolerance applied to model');
#259=(
NAMED_UNIT(*)
SI_UNIT($,.STERADIAN.)
SOLID_ANGLE_UNIT()
);
#260=(
NAMED_UNIT(*)
PLANE_ANGLE_UNIT()
SI_UNIT($,.RADIAN.)
);
#261=(
LENGTH_UNIT()
NAMED_UNIT(*)
SI_UNIT(.MILLI.,.METRE.)
);
#262=PRODUCT_DEFINITION_SHAPE('','',#263);
#263=PRODUCT_DEFINITION('','',#265,#264);
#264=PRODUCT_DEFINITION_CONTEXT('',#271,'design');
#265=PRODUCT_DEFINITION_FORMATION_WITH_SPECIFIED_SOURCE('','',#267,
 .NOT_KNOWN.);
#266=PRODUCT_RELATED_PRODUCT_CATEGORY('','',(#267));
#267=PRODUCT('F\X2\578B\X0\','F\X2\578B\X0\','F\X2\578B\X0\',(#269));
#268=PRODUCT_CATEGORY('','');
#269=PRODUCT_CONTEXT('',#271,'mechanical');
#270=APPLICATION_PROTOCOL_DEFINITION('international standard',
'automotive_design',2010,#271);
#271=APPLICATION_CONTEXT(
'core data for automotive mechanical design processes');
ENDSEC;
END-ISO-10303-21;
