ISO-10303-21;
HEADER;
/* Generated by software containing HOOPS Exchange Step
 * from HOOPS Exchange, Inc. (www.tiangong.cloud) 
 */

FILE_DESCRIPTION(
/* description */ ('Unknown'),
/* implementation_level */ '2;1');

FILE_NAME(
/* name */ 'tmp896F.tmp',
/* time_stamp */ '2024-12-24T11:08:39+08:00',
/* author */ ('Unknown'),
/* organization */ ('Unknown'),
/* preprocessor_version */ 'ST-DEVELOPER v18.104',
/* originating_system */ 'TianGong',
/* authorisation */ 'Unknown');

FILE_SCHEMA (('AUTOMOTIVE_DESIGN {1 0 10303 214 3 1 1}'));
ENDSEC;

DATA;
#10=PROPERTY_DEFINITION_REPRESENTATION(#14,#12);
#11=PROPERTY_DEFINITION_REPRESENTATION(#15,#13);
#12=REPRESENTATION('',(#16),#517);
#13=REPRESENTATION('',(#17),#517);
#14=PROPERTY_DEFINITION('pmi validation property','',#522);
#15=PROPERTY_DEFINITION('pmi validation property','',#522);
#16=VALUE_REPRESENTATION_ITEM('number of annotations',COUNT_MEASURE(0.));
#17=VALUE_REPRESENTATION_ITEM('number of views',COUNT_MEASURE(0.));
#18=SHAPE_REPRESENTATION_RELATIONSHIP('','',#295,#19);
#19=ADVANCED_BREP_SHAPE_REPRESENTATION('',(#293),#517);
#20=TOROIDAL_SURFACE('',#343,6.35,0.15);
#21=TOROIDAL_SURFACE('',#344,6.35,0.15);
#22=CONICAL_SURFACE('',#324,2.49999999999999,0.523598775598299);
#23=CONICAL_SURFACE('',#330,2.49999999999999,0.523598775598301);
#24=PLANE('',#303);
#25=PLANE('',#307);
#26=PLANE('',#309);
#27=PLANE('',#313);
#28=PLANE('',#317);
#29=PLANE('',#322);
#30=PLANE('',#327);
#31=PLANE('',#332);
#32=PLANE('',#334);
#33=PLANE('',#339);
#34=ORIENTED_EDGE('',*,*,#82,.T.);
#35=ORIENTED_EDGE('',*,*,#83,.F.);
#36=ORIENTED_EDGE('',*,*,#84,.F.);
#37=ORIENTED_EDGE('',*,*,#85,.T.);
#38=ORIENTED_EDGE('',*,*,#86,.F.);
#39=ORIENTED_EDGE('',*,*,#84,.T.);
#40=ORIENTED_EDGE('',*,*,#87,.F.);
#41=ORIENTED_EDGE('',*,*,#86,.T.);
#42=ORIENTED_EDGE('',*,*,#88,.F.);
#43=ORIENTED_EDGE('',*,*,#87,.T.);
#44=ORIENTED_EDGE('',*,*,#89,.F.);
#45=ORIENTED_EDGE('',*,*,#83,.T.);
#46=ORIENTED_EDGE('',*,*,#90,.F.);
#47=ORIENTED_EDGE('',*,*,#89,.T.);
#48=ORIENTED_EDGE('',*,*,#91,.F.);
#49=ORIENTED_EDGE('',*,*,#90,.T.);
#50=ORIENTED_EDGE('',*,*,#92,.F.);
#51=ORIENTED_EDGE('',*,*,#91,.T.);
#52=ORIENTED_EDGE('',*,*,#93,.T.);
#53=ORIENTED_EDGE('',*,*,#92,.T.);
#54=ORIENTED_EDGE('',*,*,#94,.T.);
#55=ORIENTED_EDGE('',*,*,#95,.T.);
#56=ORIENTED_EDGE('',*,*,#96,.T.);
#57=ORIENTED_EDGE('',*,*,#85,.F.);
#58=ORIENTED_EDGE('',*,*,#97,.F.);
#59=ORIENTED_EDGE('',*,*,#98,.T.);
#60=ORIENTED_EDGE('',*,*,#82,.F.);
#61=ORIENTED_EDGE('',*,*,#97,.T.);
#62=ORIENTED_EDGE('',*,*,#98,.F.);
#63=ORIENTED_EDGE('',*,*,#99,.T.);
#64=ORIENTED_EDGE('',*,*,#100,.T.);
#65=ORIENTED_EDGE('',*,*,#99,.F.);
#66=ORIENTED_EDGE('',*,*,#101,.T.);
#67=ORIENTED_EDGE('',*,*,#100,.F.);
#68=ORIENTED_EDGE('',*,*,#102,.F.);
#69=ORIENTED_EDGE('',*,*,#103,.T.);
#70=ORIENTED_EDGE('',*,*,#104,.F.);
#71=ORIENTED_EDGE('',*,*,#102,.T.);
#72=ORIENTED_EDGE('',*,*,#105,.F.);
#73=ORIENTED_EDGE('',*,*,#104,.T.);
#74=ORIENTED_EDGE('',*,*,#101,.F.);
#75=ORIENTED_EDGE('',*,*,#105,.T.);
#76=ORIENTED_EDGE('',*,*,#103,.F.);
#77=ORIENTED_EDGE('',*,*,#88,.T.);
#78=ORIENTED_EDGE('',*,*,#95,.F.);
#79=ORIENTED_EDGE('',*,*,#96,.F.);
#80=ORIENTED_EDGE('',*,*,#93,.F.);
#81=ORIENTED_EDGE('',*,*,#94,.F.);
#82=EDGE_CURVE('',#106,#106,#130,.T.);
#83=EDGE_CURVE('',#107,#107,#131,.T.);
#84=EDGE_CURVE('',#108,#108,#132,.T.);
#85=EDGE_CURVE('',#109,#109,#133,.T.);
#86=EDGE_CURVE('',#110,#110,#134,.T.);
#87=EDGE_CURVE('',#111,#111,#135,.T.);
#88=EDGE_CURVE('',#112,#112,#136,.T.);
#89=EDGE_CURVE('',#113,#113,#137,.T.);
#90=EDGE_CURVE('',#114,#114,#138,.T.);
#91=EDGE_CURVE('',#115,#115,#139,.T.);
#92=EDGE_CURVE('',#116,#116,#140,.T.);
#93=EDGE_CURVE('',#117,#117,#141,.F.);
#94=EDGE_CURVE('',#118,#118,#142,.T.);
#95=EDGE_CURVE('',#119,#119,#143,.T.);
#96=EDGE_CURVE('',#120,#120,#144,.F.);
#97=EDGE_CURVE('',#121,#121,#145,.T.);
#98=EDGE_CURVE('',#122,#122,#146,.T.);
#99=EDGE_CURVE('',#123,#123,#147,.T.);
#100=EDGE_CURVE('',#124,#124,#148,.T.);
#101=EDGE_CURVE('',#125,#125,#149,.T.);
#102=EDGE_CURVE('',#126,#126,#150,.T.);
#103=EDGE_CURVE('',#127,#127,#151,.T.);
#104=EDGE_CURVE('',#128,#128,#152,.T.);
#105=EDGE_CURVE('',#129,#129,#153,.T.);
#106=VERTEX_POINT('',#446);
#107=VERTEX_POINT('',#448);
#108=VERTEX_POINT('',#451);
#109=VERTEX_POINT('',#453);
#110=VERTEX_POINT('',#456);
#111=VERTEX_POINT('',#459);
#112=VERTEX_POINT('',#462);
#113=VERTEX_POINT('',#465);
#114=VERTEX_POINT('',#468);
#115=VERTEX_POINT('',#471);
#116=VERTEX_POINT('',#474);
#117=VERTEX_POINT('',#477);
#118=VERTEX_POINT('',#480);
#119=VERTEX_POINT('',#482);
#120=VERTEX_POINT('',#485);
#121=VERTEX_POINT('',#488);
#122=VERTEX_POINT('',#490);
#123=VERTEX_POINT('',#494);
#124=VERTEX_POINT('',#497);
#125=VERTEX_POINT('',#500);
#126=VERTEX_POINT('',#503);
#127=VERTEX_POINT('',#505);
#128=VERTEX_POINT('',#508);
#129=VERTEX_POINT('',#511);
#130=CIRCLE('',#298,2.49999999999999);
#131=CIRCLE('',#299,2.49999999999999);
#132=CIRCLE('',#301,3.89999999999999);
#133=CIRCLE('',#302,3.89999999999999);
#134=CIRCLE('',#304,3.64);
#135=CIRCLE('',#306,3.64);
#136=CIRCLE('',#308,2.);
#137=CIRCLE('',#310,3.64);
#138=CIRCLE('',#312,3.64);
#139=CIRCLE('',#314,3.89999999999999);
#140=CIRCLE('',#316,3.89999999999999);
#141=CIRCLE('',#318,6.35);
#142=CIRCLE('',#320,6.5);
#143=CIRCLE('',#321,6.5);
#144=CIRCLE('',#323,6.35);
#145=CIRCLE('',#325,2.24999999999999);
#146=CIRCLE('',#326,2.49999999999999);
#147=CIRCLE('',#329,2.49999999999999);
#148=CIRCLE('',#331,2.24999999999999);
#149=CIRCLE('',#333,2.);
#150=CIRCLE('',#335,1.72);
#151=CIRCLE('',#336,2.);
#152=CIRCLE('',#338,1.72);
#153=CIRCLE('',#340,2.);
#154=EDGE_LOOP('',(#34));
#155=EDGE_LOOP('',(#35));
#156=EDGE_LOOP('',(#36));
#157=EDGE_LOOP('',(#37));
#158=EDGE_LOOP('',(#38));
#159=EDGE_LOOP('',(#39));
#160=EDGE_LOOP('',(#40));
#161=EDGE_LOOP('',(#41));
#162=EDGE_LOOP('',(#42));
#163=EDGE_LOOP('',(#43));
#164=EDGE_LOOP('',(#44));
#165=EDGE_LOOP('',(#45));
#166=EDGE_LOOP('',(#46));
#167=EDGE_LOOP('',(#47));
#168=EDGE_LOOP('',(#48));
#169=EDGE_LOOP('',(#49));
#170=EDGE_LOOP('',(#50));
#171=EDGE_LOOP('',(#51));
#172=EDGE_LOOP('',(#52));
#173=EDGE_LOOP('',(#53));
#174=EDGE_LOOP('',(#54));
#175=EDGE_LOOP('',(#55));
#176=EDGE_LOOP('',(#56));
#177=EDGE_LOOP('',(#57));
#178=EDGE_LOOP('',(#58));
#179=EDGE_LOOP('',(#59));
#180=EDGE_LOOP('',(#60));
#181=EDGE_LOOP('',(#61));
#182=EDGE_LOOP('',(#62));
#183=EDGE_LOOP('',(#63));
#184=EDGE_LOOP('',(#64));
#185=EDGE_LOOP('',(#65));
#186=EDGE_LOOP('',(#66));
#187=EDGE_LOOP('',(#67));
#188=EDGE_LOOP('',(#68));
#189=EDGE_LOOP('',(#69));
#190=EDGE_LOOP('',(#70));
#191=EDGE_LOOP('',(#71));
#192=EDGE_LOOP('',(#72));
#193=EDGE_LOOP('',(#73));
#194=EDGE_LOOP('',(#74));
#195=EDGE_LOOP('',(#75));
#196=EDGE_LOOP('',(#76));
#197=EDGE_LOOP('',(#77));
#198=EDGE_LOOP('',(#78));
#199=EDGE_LOOP('',(#79));
#200=EDGE_LOOP('',(#80));
#201=EDGE_LOOP('',(#81));
#202=FACE_BOUND('',#154,.T.);
#203=FACE_BOUND('',#155,.T.);
#204=FACE_BOUND('',#156,.T.);
#205=FACE_BOUND('',#157,.T.);
#206=FACE_BOUND('',#158,.T.);
#207=FACE_BOUND('',#159,.T.);
#208=FACE_BOUND('',#160,.T.);
#209=FACE_BOUND('',#161,.T.);
#210=FACE_BOUND('',#162,.T.);
#211=FACE_BOUND('',#163,.T.);
#212=FACE_BOUND('',#164,.T.);
#213=FACE_BOUND('',#165,.T.);
#214=FACE_BOUND('',#166,.T.);
#215=FACE_BOUND('',#167,.T.);
#216=FACE_BOUND('',#168,.T.);
#217=FACE_BOUND('',#169,.T.);
#218=FACE_BOUND('',#170,.T.);
#219=FACE_BOUND('',#171,.T.);
#220=FACE_BOUND('',#172,.T.);
#221=FACE_BOUND('',#173,.T.);
#222=FACE_BOUND('',#174,.T.);
#223=FACE_BOUND('',#175,.T.);
#224=FACE_BOUND('',#176,.T.);
#225=FACE_BOUND('',#177,.T.);
#226=FACE_BOUND('',#178,.T.);
#227=FACE_BOUND('',#179,.T.);
#228=FACE_BOUND('',#180,.T.);
#229=FACE_BOUND('',#181,.T.);
#230=FACE_BOUND('',#182,.T.);
#231=FACE_BOUND('',#183,.T.);
#232=FACE_BOUND('',#184,.T.);
#233=FACE_BOUND('',#185,.T.);
#234=FACE_BOUND('',#186,.T.);
#235=FACE_BOUND('',#187,.T.);
#236=FACE_BOUND('',#188,.T.);
#237=FACE_BOUND('',#189,.T.);
#238=FACE_BOUND('',#190,.T.);
#239=FACE_BOUND('',#191,.T.);
#240=FACE_BOUND('',#192,.T.);
#241=FACE_BOUND('',#193,.T.);
#242=FACE_BOUND('',#194,.T.);
#243=FACE_BOUND('',#195,.T.);
#244=FACE_BOUND('',#196,.T.);
#245=FACE_BOUND('',#197,.T.);
#246=FACE_BOUND('',#198,.T.);
#247=FACE_BOUND('',#199,.T.);
#248=FACE_BOUND('',#200,.T.);
#249=FACE_BOUND('',#201,.T.);
#250=CYLINDRICAL_SURFACE('',#297,2.49999999999999);
#251=CYLINDRICAL_SURFACE('',#300,3.89999999999999);
#252=CYLINDRICAL_SURFACE('',#305,3.64);
#253=CYLINDRICAL_SURFACE('',#311,3.64);
#254=CYLINDRICAL_SURFACE('',#315,3.89999999999999);
#255=CYLINDRICAL_SURFACE('',#319,6.5);
#256=CYLINDRICAL_SURFACE('',#328,2.49999999999999);
#257=CYLINDRICAL_SURFACE('',#337,1.72);
#258=CYLINDRICAL_SURFACE('',#341,2.);
#259=CYLINDRICAL_SURFACE('',#342,2.);
#260=ADVANCED_FACE('',(#202,#203),#250,.T.);
#261=ADVANCED_FACE('',(#204,#205),#251,.F.);
#262=ADVANCED_FACE('',(#206,#207),#24,.F.);
#263=ADVANCED_FACE('',(#208,#209),#252,.T.);
#264=ADVANCED_FACE('',(#210,#211),#25,.F.);
#265=ADVANCED_FACE('',(#212,#213),#26,.F.);
#266=ADVANCED_FACE('',(#214,#215),#253,.T.);
#267=ADVANCED_FACE('',(#216,#217),#27,.F.);
#268=ADVANCED_FACE('',(#218,#219),#254,.F.);
#269=ADVANCED_FACE('',(#220,#221),#28,.F.);
#270=ADVANCED_FACE('',(#222,#223),#255,.T.);
#271=ADVANCED_FACE('',(#224,#225),#29,.F.);
#272=ADVANCED_FACE('',(#226,#227),#22,.T.);
#273=ADVANCED_FACE('',(#228,#229),#30,.F.);
#274=ADVANCED_FACE('',(#230,#231),#256,.T.);
#275=ADVANCED_FACE('',(#232,#233),#23,.T.);
#276=ADVANCED_FACE('',(#234,#235),#31,.F.);
#277=ADVANCED_FACE('',(#236,#237),#32,.F.);
#278=ADVANCED_FACE('',(#238,#239),#257,.F.);
#279=ADVANCED_FACE('',(#240,#241),#33,.F.);
#280=ADVANCED_FACE('',(#242,#243),#258,.F.);
#281=ADVANCED_FACE('',(#244,#245),#259,.F.);
#282=ADVANCED_FACE('',(#246,#247),#20,.T.);
#283=ADVANCED_FACE('',(#248,#249),#21,.T.);
#284=CLOSED_SHELL('',(#260,#261,#262,#263,#264,#265,#266,#267,#268,#269,
#270,#271,#272,#273,#274,#275,#276,#277,#278,#279,#280,#281,#282,#283));
#285=STYLED_ITEM('',(#286),#293);
#286=PRESENTATION_STYLE_ASSIGNMENT((#287));
#287=SURFACE_STYLE_USAGE(.BOTH.,#288);
#288=SURFACE_SIDE_STYLE('',(#289));
#289=SURFACE_STYLE_FILL_AREA(#290);
#290=FILL_AREA_STYLE('',(#291));
#291=FILL_AREA_STYLE_COLOUR('',#292);
#292=COLOUR_RGB('',0.506983280181885,0.531564235687256,0.550000011920929);
#293=MANIFOLD_SOLID_BREP('',#284);
#294=SHAPE_DEFINITION_REPRESENTATION(#522,#295);
#295=SHAPE_REPRESENTATION('\X2\6EDA8F6E6EDA94888F74627F87BA6813578B\X0\1
 GBT6445-2021',(#296),#517);
#296=AXIS2_PLACEMENT_3D('',#443,#345,#346);
#297=AXIS2_PLACEMENT_3D('',#444,#347,#348);
#298=AXIS2_PLACEMENT_3D('',#445,#349,#350);
#299=AXIS2_PLACEMENT_3D('',#447,#351,#352);
#300=AXIS2_PLACEMENT_3D('',#449,#353,#354);
#301=AXIS2_PLACEMENT_3D('',#450,#355,#356);
#302=AXIS2_PLACEMENT_3D('',#452,#357,#358);
#303=AXIS2_PLACEMENT_3D('',#454,#359,#360);
#304=AXIS2_PLACEMENT_3D('',#455,#361,#362);
#305=AXIS2_PLACEMENT_3D('',#457,#363,#364);
#306=AXIS2_PLACEMENT_3D('',#458,#365,#366);
#307=AXIS2_PLACEMENT_3D('',#460,#367,#368);
#308=AXIS2_PLACEMENT_3D('',#461,#369,#370);
#309=AXIS2_PLACEMENT_3D('',#463,#371,#372);
#310=AXIS2_PLACEMENT_3D('',#464,#373,#374);
#311=AXIS2_PLACEMENT_3D('',#466,#375,#376);
#312=AXIS2_PLACEMENT_3D('',#467,#377,#378);
#313=AXIS2_PLACEMENT_3D('',#469,#379,#380);
#314=AXIS2_PLACEMENT_3D('',#470,#381,#382);
#315=AXIS2_PLACEMENT_3D('',#472,#383,#384);
#316=AXIS2_PLACEMENT_3D('',#473,#385,#386);
#317=AXIS2_PLACEMENT_3D('',#475,#387,#388);
#318=AXIS2_PLACEMENT_3D('',#476,#389,#390);
#319=AXIS2_PLACEMENT_3D('',#478,#391,#392);
#320=AXIS2_PLACEMENT_3D('',#479,#393,#394);
#321=AXIS2_PLACEMENT_3D('',#481,#395,#396);
#322=AXIS2_PLACEMENT_3D('',#483,#397,#398);
#323=AXIS2_PLACEMENT_3D('',#484,#399,#400);
#324=AXIS2_PLACEMENT_3D('',#486,#401,#402);
#325=AXIS2_PLACEMENT_3D('',#487,#403,#404);
#326=AXIS2_PLACEMENT_3D('',#489,#405,#406);
#327=AXIS2_PLACEMENT_3D('',#491,#407,#408);
#328=AXIS2_PLACEMENT_3D('',#492,#409,#410);
#329=AXIS2_PLACEMENT_3D('',#493,#411,#412);
#330=AXIS2_PLACEMENT_3D('',#495,#413,#414);
#331=AXIS2_PLACEMENT_3D('',#496,#415,#416);
#332=AXIS2_PLACEMENT_3D('',#498,#417,#418);
#333=AXIS2_PLACEMENT_3D('',#499,#419,#420);
#334=AXIS2_PLACEMENT_3D('',#501,#421,#422);
#335=AXIS2_PLACEMENT_3D('',#502,#423,#424);
#336=AXIS2_PLACEMENT_3D('',#504,#425,#426);
#337=AXIS2_PLACEMENT_3D('',#506,#427,#428);
#338=AXIS2_PLACEMENT_3D('',#507,#429,#430);
#339=AXIS2_PLACEMENT_3D('',#509,#431,#432);
#340=AXIS2_PLACEMENT_3D('',#510,#433,#434);
#341=AXIS2_PLACEMENT_3D('',#512,#435,#436);
#342=AXIS2_PLACEMENT_3D('',#513,#437,#438);
#343=AXIS2_PLACEMENT_3D('',#514,#439,#440);
#344=AXIS2_PLACEMENT_3D('',#515,#441,#442);
#345=DIRECTION('',(0.,0.,1.));
#346=DIRECTION('',(1.,0.,0.));
#347=DIRECTION('',(-1.,0.,0.));
#348=DIRECTION('',(0.,0.,1.));
#349=DIRECTION('',(-1.,0.,0.));
#350=DIRECTION('',(0.,0.,1.));
#351=DIRECTION('',(-1.,0.,0.));
#352=DIRECTION('',(0.,0.,1.));
#353=DIRECTION('',(-1.,0.,0.));
#354=DIRECTION('',(0.,0.,1.));
#355=DIRECTION('',(-1.,0.,0.));
#356=DIRECTION('',(0.,0.,1.));
#357=DIRECTION('',(-1.,0.,0.));
#358=DIRECTION('',(0.,0.,1.));
#359=DIRECTION('',(1.,0.,0.));
#360=DIRECTION('',(0.,0.,-1.));
#361=DIRECTION('',(-1.,0.,0.));
#362=DIRECTION('',(0.,0.,1.));
#363=DIRECTION('',(-1.,0.,0.));
#364=DIRECTION('',(0.,0.,1.));
#365=DIRECTION('',(-1.,0.,0.));
#366=DIRECTION('',(0.,0.,1.));
#367=DIRECTION('',(1.,0.,0.));
#368=DIRECTION('',(0.,0.,-1.));
#369=DIRECTION('',(-1.,0.,0.));
#370=DIRECTION('',(0.,0.,1.));
#371=DIRECTION('',(-1.,0.,0.));
#372=DIRECTION('',(0.,0.,1.));
#373=DIRECTION('',(-1.,0.,0.));
#374=DIRECTION('',(0.,0.,1.));
#375=DIRECTION('',(-1.,0.,0.));
#376=DIRECTION('',(0.,0.,1.));
#377=DIRECTION('',(-1.,0.,0.));
#378=DIRECTION('',(0.,0.,1.));
#379=DIRECTION('',(-1.,0.,0.));
#380=DIRECTION('',(0.,0.,1.));
#381=DIRECTION('',(-1.,0.,0.));
#382=DIRECTION('',(0.,0.,1.));
#383=DIRECTION('',(-1.,0.,0.));
#384=DIRECTION('',(0.,0.,1.));
#385=DIRECTION('',(-1.,0.,0.));
#386=DIRECTION('',(0.,0.,1.));
#387=DIRECTION('',(-1.,0.,0.));
#388=DIRECTION('',(0.,0.,1.));
#389=DIRECTION('',(-1.,0.,0.));
#390=DIRECTION('',(0.,0.,1.));
#391=DIRECTION('',(-1.,0.,0.));
#392=DIRECTION('',(0.,0.,1.));
#393=DIRECTION('',(-1.,0.,0.));
#394=DIRECTION('',(0.,0.,1.));
#395=DIRECTION('',(1.,0.,0.));
#396=DIRECTION('',(0.,0.,-1.));
#397=DIRECTION('',(1.,0.,0.));
#398=DIRECTION('',(0.,0.,-1.));
#399=DIRECTION('',(1.,0.,0.));
#400=DIRECTION('',(0.,0.,-1.));
#401=DIRECTION('',(1.,0.,0.));
#402=DIRECTION('',(0.,0.,-1.));
#403=DIRECTION('',(-1.,0.,0.));
#404=DIRECTION('',(0.,0.,1.));
#405=DIRECTION('',(-1.,0.,0.));
#406=DIRECTION('',(0.,0.,1.));
#407=DIRECTION('',(-1.,0.,0.));
#408=DIRECTION('',(0.,0.,1.));
#409=DIRECTION('',(-1.,0.,0.));
#410=DIRECTION('',(0.,0.,1.));
#411=DIRECTION('',(-1.,0.,0.));
#412=DIRECTION('',(0.,0.,1.));
#413=DIRECTION('',(-1.,0.,0.));
#414=DIRECTION('',(0.,0.,1.));
#415=DIRECTION('',(-1.,0.,0.));
#416=DIRECTION('',(0.,0.,1.));
#417=DIRECTION('',(-1.,0.,0.));
#418=DIRECTION('',(0.,0.,1.));
#419=DIRECTION('',(-1.,0.,0.));
#420=DIRECTION('',(0.,0.,1.));
#421=DIRECTION('',(1.,0.,0.));
#422=DIRECTION('',(0.,0.,-1.));
#423=DIRECTION('',(-1.,0.,0.));
#424=DIRECTION('',(0.,0.,1.));
#425=DIRECTION('',(-1.,0.,0.));
#426=DIRECTION('',(0.,0.,1.));
#427=DIRECTION('',(-1.,0.,0.));
#428=DIRECTION('',(0.,0.,1.));
#429=DIRECTION('',(-1.,0.,0.));
#430=DIRECTION('',(0.,0.,1.));
#431=DIRECTION('',(-1.,0.,0.));
#432=DIRECTION('',(0.,0.,1.));
#433=DIRECTION('',(-1.,0.,0.));
#434=DIRECTION('',(0.,0.,1.));
#435=DIRECTION('',(-1.,0.,0.));
#436=DIRECTION('',(0.,0.,1.));
#437=DIRECTION('',(-1.,0.,0.));
#438=DIRECTION('',(0.,0.,1.));
#439=DIRECTION('',(1.,0.,0.));
#440=DIRECTION('',(0.,0.,-1.));
#441=DIRECTION('',(-1.,0.,0.));
#442=DIRECTION('',(0.,0.,1.));
#443=CARTESIAN_POINT('',(0.,0.,0.));
#444=CARTESIAN_POINT('',(-0.5,0.,0.));
#445=CARTESIAN_POINT('',(14.5669872981078,0.,0.));
#446=CARTESIAN_POINT('',(14.5669872981078,0.,2.49999999999999));
#447=CARTESIAN_POINT('',(9.50000000000001,0.,0.));
#448=CARTESIAN_POINT('',(9.50000000000001,0.,2.49999999999999));
#449=CARTESIAN_POINT('',(-0.5,0.,0.));
#450=CARTESIAN_POINT('',(1.35,0.,0.));
#451=CARTESIAN_POINT('',(1.35,0.,3.89999999999999));
#452=CARTESIAN_POINT('',(0.,0.,0.));
#453=CARTESIAN_POINT('',(0.,0.,3.89999999999999));
#454=CARTESIAN_POINT('',(1.35,0.,3.89999999999999));
#455=CARTESIAN_POINT('',(1.35,0.,0.));
#456=CARTESIAN_POINT('',(1.35,0.,3.64));
#457=CARTESIAN_POINT('',(-0.5,0.,0.));
#458=CARTESIAN_POINT('',(-0.5,0.,0.));
#459=CARTESIAN_POINT('',(-0.5,0.,3.64));
#460=CARTESIAN_POINT('',(-0.5,0.,3.64));
#461=CARTESIAN_POINT('',(-0.5,0.,0.));
#462=CARTESIAN_POINT('',(-0.5,0.,2.));
#463=CARTESIAN_POINT('',(9.50000000000001,0.,3.64));
#464=CARTESIAN_POINT('',(9.50000000000001,0.,0.));
#465=CARTESIAN_POINT('',(9.50000000000001,0.,3.64));
#466=CARTESIAN_POINT('',(-0.5,0.,0.));
#467=CARTESIAN_POINT('',(7.65000000000001,0.,0.));
#468=CARTESIAN_POINT('',(7.65000000000001,0.,3.64));
#469=CARTESIAN_POINT('',(7.65000000000001,0.,3.89999999999999));
#470=CARTESIAN_POINT('',(7.65000000000001,0.,0.));
#471=CARTESIAN_POINT('',(7.65000000000001,0.,3.89999999999999));
#472=CARTESIAN_POINT('',(-0.5,0.,0.));
#473=CARTESIAN_POINT('',(9.00000000000001,0.,0.));
#474=CARTESIAN_POINT('',(9.00000000000001,0.,3.89999999999999));
#475=CARTESIAN_POINT('',(9.00000000000001,0.,6.5));
#476=CARTESIAN_POINT('',(9.00000000000001,0.,0.));
#477=CARTESIAN_POINT('',(9.00000000000001,0.,6.35));
#478=CARTESIAN_POINT('',(-0.5,0.,0.));
#479=CARTESIAN_POINT('',(8.85,0.,0.));
#480=CARTESIAN_POINT('',(8.85,0.,6.5));
#481=CARTESIAN_POINT('',(0.15,0.,0.));
#482=CARTESIAN_POINT('',(0.15,0.,-6.5));
#483=CARTESIAN_POINT('',(0.,0.,6.5));
#484=CARTESIAN_POINT('',(0.,0.,0.));
#485=CARTESIAN_POINT('',(0.,0.,-6.35));
#486=CARTESIAN_POINT('',(15.,0.,0.));
#487=CARTESIAN_POINT('',(14.5669872981078,0.,0.));
#488=CARTESIAN_POINT('',(14.5669872981078,0.,2.24999999999999));
#489=CARTESIAN_POINT('',(15.,0.,0.));
#490=CARTESIAN_POINT('',(15.,0.,2.49999999999999));
#491=CARTESIAN_POINT('',(14.5669872981078,0.,2.24999999999999));
#492=CARTESIAN_POINT('',(-0.5,0.,0.));
#493=CARTESIAN_POINT('',(22.0669872981078,0.,0.));
#494=CARTESIAN_POINT('',(22.0669872981078,0.,2.49999999999999));
#495=CARTESIAN_POINT('',(22.0669872981078,0.,0.));
#496=CARTESIAN_POINT('',(22.5,0.,0.));
#497=CARTESIAN_POINT('',(22.5,0.,2.24999999999999));
#498=CARTESIAN_POINT('',(22.5,0.,2.49999999999999));
#499=CARTESIAN_POINT('',(22.5,0.,0.));
#500=CARTESIAN_POINT('',(22.5,0.,2.));
#501=CARTESIAN_POINT('',(5.5,0.,2.));
#502=CARTESIAN_POINT('',(5.5,0.,0.));
#503=CARTESIAN_POINT('',(5.5,0.,1.72));
#504=CARTESIAN_POINT('',(5.5,0.,0.));
#505=CARTESIAN_POINT('',(5.5,0.,2.));
#506=CARTESIAN_POINT('',(-0.5,0.,0.));
#507=CARTESIAN_POINT('',(16.5,0.,0.));
#508=CARTESIAN_POINT('',(16.5,0.,1.72));
#509=CARTESIAN_POINT('',(16.5,0.,2.));
#510=CARTESIAN_POINT('',(16.5,0.,0.));
#511=CARTESIAN_POINT('',(16.5,0.,2.));
#512=CARTESIAN_POINT('',(-0.5,0.,0.));
#513=CARTESIAN_POINT('',(-0.5,0.,0.));
#514=CARTESIAN_POINT('',(0.15,0.,0.));
#515=CARTESIAN_POINT('',(8.85,0.,0.));
#516=MECHANICAL_DESIGN_GEOMETRIC_PRESENTATION_REPRESENTATION('',(#285),
#517);
#517=(
GEOMETRIC_REPRESENTATION_CONTEXT(3)
GLOBAL_UNCERTAINTY_ASSIGNED_CONTEXT((#518))
GLOBAL_UNIT_ASSIGNED_CONTEXT((#521,#520,#519))
REPRESENTATION_CONTEXT('\X2\6EDA8F6E6EDA94888F74627F87BA6813578B\X0\1 
GBT6445-2021','TOP_LEVEL_ASSEMBLY_PART')
);
#518=UNCERTAINTY_MEASURE_WITH_UNIT(LENGTH_MEASURE(0.005),#521,
'DISTANCE_ACCURACY_VALUE','Maximum Tolerance applied to model');
#519=(
NAMED_UNIT(*)
SI_UNIT($,.STERADIAN.)
SOLID_ANGLE_UNIT()
);
#520=(
NAMED_UNIT(*)
PLANE_ANGLE_UNIT()
SI_UNIT($,.RADIAN.)
);
#521=(
LENGTH_UNIT()
NAMED_UNIT(*)
SI_UNIT(.MILLI.,.METRE.)
);
#522=PRODUCT_DEFINITION_SHAPE('','',#523);
#523=PRODUCT_DEFINITION('','',#525,#524);
#524=PRODUCT_DEFINITION_CONTEXT('',#531,'design');
#525=PRODUCT_DEFINITION_FORMATION_WITH_SPECIFIED_SOURCE('','',#527,
 .NOT_KNOWN.);
#526=PRODUCT_RELATED_PRODUCT_CATEGORY('','',(#527));
#527=PRODUCT('\X2\6EDA8F6E6EDA94888F74627F87BA6813578B\X0\1 GBT6445-20
21','\X2\6EDA8F6E6EDA94888F74627F87BA6813578B\X0\1 GBT6445-2021',
'\X2\6EDA8F6E6EDA94888F74627F87BA6813578B\X0\1 GBT6445-2021',(#529));
#528=PRODUCT_CATEGORY('','');
#529=PRODUCT_CONTEXT('',#531,'mechanical');
#530=APPLICATION_PROTOCOL_DEFINITION('international standard',
'automotive_design',2010,#531);
#531=APPLICATION_CONTEXT(
'core data for automotive mechanical design processes');
ENDSEC;
END-ISO-10303-21;
