ISO-10303-21;
HEADER;
/* Generated by software containing HOOPS Exchange Step
 * from HOOPS Exchange, Inc. (www.tiangong.cloud) 
 */

FILE_DESCRIPTION(
/* description */ ('Unknown'),
/* implementation_level */ '2;1');

FILE_NAME(
/* name */ 'PFL\X2\51B2538B83F15F625EA7\X0\',
/* time_stamp */ '2025-10-13T03:27:30+08:00',
/* author */ ('Unknown'),
/* organization */ ('Unknown'),
/* preprocessor_version */ 'ST-DEVELOPER v19.4',
/* originating_system */ 'TianGong',
/* authorisation */ 'Unknown');

FILE_SCHEMA (('AUTOMOTIVE_DESIGN {1 0 10303 214 3 1 1}'));
ENDSEC;

DATA;
#10=PROPERTY_DEFINITION_REPRESENTATION(#14,#12);
#11=PROPERTY_DEFINITION_REPRESENTATION(#15,#13);
#12=REPRESENTATION('',(#16),#955);
#13=REPRESENTATION('',(#17),#955);
#14=PROPERTY_DEFINITION('pmi validation property','',#960);
#15=PROPERTY_DEFINITION('pmi validation property','',#960);
#16=VALUE_REPRESENTATION_ITEM('number of annotations',COUNT_MEASURE(0.));
#17=VALUE_REPRESENTATION_ITEM('number of views',COUNT_MEASURE(0.));
#18=SHAPE_REPRESENTATION_RELATIONSHIP('','',#541,#19);
#19=ADVANCED_BREP_SHAPE_REPRESENTATION('',(#539),#955);
#20=TOROIDAL_SURFACE('',#588,25.2920442036622,1.);
#21=TOROIDAL_SURFACE('',#589,25.2920442036622,1.);
#22=TOROIDAL_SURFACE('',#593,8.25,1.);
#23=TOROIDAL_SURFACE('',#595,29.,1.);
#24=TOROIDAL_SURFACE('',#601,29.,1.);
#25=TOROIDAL_SURFACE('',#603,8.25,1.);
#26=TOROIDAL_SURFACE('',#606,29.,1.);
#27=TOROIDAL_SURFACE('',#613,8.25,1.);
#28=TOROIDAL_SURFACE('',#615,8.25,1.);
#29=TOROIDAL_SURFACE('',#621,29.,1.);
#30=SPHERICAL_SURFACE('',#549,24.5);
#31=SPHERICAL_SURFACE('',#570,24.5);
#32=SPHERICAL_SURFACE('',#575,20.);
#33=PLANE('',#546);
#34=PLANE('',#551);
#35=PLANE('',#562);
#36=PLANE('',#573);
#37=PLANE('',#579);
#38=PLANE('',#580);
#39=PLANE('',#581);
#40=PLANE('',#585);
#41=CIRCLE('',#544,30.);
#42=CIRCLE('',#545,30.);
#43=CIRCLE('',#547,23.3238075793812);
#44=CIRCLE('',#548,18.5404962177392);
#45=CIRCLE('',#550,24.3001993329303);
#46=CIRCLE('',#552,29.);
#47=CIRCLE('',#553,8.25);
#48=CIRCLE('',#554,29.);
#49=CIRCLE('',#555,8.25);
#50=CIRCLE('',#556,25.2920442036622);
#51=CIRCLE('',#557,3.55);
#52=CIRCLE('',#558,3.55);
#53=CIRCLE('',#560,30.);
#54=CIRCLE('',#561,30.);
#55=CIRCLE('',#563,29.);
#56=CIRCLE('',#564,8.25);
#57=CIRCLE('',#565,29.);
#58=CIRCLE('',#566,8.25);
#59=CIRCLE('',#567,25.2920442036622);
#60=CIRCLE('',#568,3.55);
#61=CIRCLE('',#569,3.55);
#62=CIRCLE('',#571,24.3001993329303);
#63=CIRCLE('',#572,23.3238075793812);
#64=CIRCLE('',#574,18.5404962177392);
#65=CIRCLE('',#577,9.25);
#66=CIRCLE('',#578,9.25);
#67=CIRCLE('',#583,9.25);
#68=CIRCLE('',#584,9.25);
#69=CIRCLE('',#591,1.);
#70=CIRCLE('',#592,1.);
#71=CIRCLE('',#594,1.);
#72=CIRCLE('',#596,1.);
#73=CIRCLE('',#598,1.);
#74=CIRCLE('',#600,1.);
#75=CIRCLE('',#602,1.);
#76=CIRCLE('',#604,1.);
#77=CIRCLE('',#607,1.);
#78=CIRCLE('',#608,1.);
#79=CIRCLE('',#610,1.);
#80=CIRCLE('',#612,1.);
#81=CIRCLE('',#614,1.);
#82=CIRCLE('',#616,1.);
#83=CIRCLE('',#618,1.);
#84=CIRCLE('',#620,1.);
#85=ORIENTED_EDGE('',*,*,#221,.T.);
#86=ORIENTED_EDGE('',*,*,#222,.T.);
#87=ORIENTED_EDGE('',*,*,#223,.F.);
#88=ORIENTED_EDGE('',*,*,#224,.T.);
#89=ORIENTED_EDGE('',*,*,#225,.T.);
#90=ORIENTED_EDGE('',*,*,#226,.F.);
#91=ORIENTED_EDGE('',*,*,#227,.T.);
#92=ORIENTED_EDGE('',*,*,#225,.F.);
#93=ORIENTED_EDGE('',*,*,#228,.T.);
#94=ORIENTED_EDGE('',*,*,#229,.T.);
#95=ORIENTED_EDGE('',*,*,#230,.T.);
#96=ORIENTED_EDGE('',*,*,#231,.T.);
#97=ORIENTED_EDGE('',*,*,#232,.T.);
#98=ORIENTED_EDGE('',*,*,#233,.T.);
#99=ORIENTED_EDGE('',*,*,#234,.T.);
#100=ORIENTED_EDGE('',*,*,#235,.T.);
#101=ORIENTED_EDGE('',*,*,#236,.T.);
#102=ORIENTED_EDGE('',*,*,#237,.F.);
#103=ORIENTED_EDGE('',*,*,#238,.F.);
#104=ORIENTED_EDGE('',*,*,#239,.T.);
#105=ORIENTED_EDGE('',*,*,#240,.T.);
#106=ORIENTED_EDGE('',*,*,#241,.F.);
#107=ORIENTED_EDGE('',*,*,#242,.T.);
#108=ORIENTED_EDGE('',*,*,#243,.T.);
#109=ORIENTED_EDGE('',*,*,#244,.T.);
#110=ORIENTED_EDGE('',*,*,#245,.T.);
#111=ORIENTED_EDGE('',*,*,#246,.T.);
#112=ORIENTED_EDGE('',*,*,#247,.T.);
#113=ORIENTED_EDGE('',*,*,#248,.T.);
#114=ORIENTED_EDGE('',*,*,#249,.T.);
#115=ORIENTED_EDGE('',*,*,#250,.T.);
#116=ORIENTED_EDGE('',*,*,#251,.T.);
#117=ORIENTED_EDGE('',*,*,#252,.T.);
#118=ORIENTED_EDGE('',*,*,#253,.T.);
#119=ORIENTED_EDGE('',*,*,#254,.T.);
#120=ORIENTED_EDGE('',*,*,#255,.T.);
#121=ORIENTED_EDGE('',*,*,#256,.T.);
#122=ORIENTED_EDGE('',*,*,#255,.F.);
#123=ORIENTED_EDGE('',*,*,#226,.T.);
#124=ORIENTED_EDGE('',*,*,#256,.F.);
#125=ORIENTED_EDGE('',*,*,#257,.T.);
#126=ORIENTED_EDGE('',*,*,#258,.T.);
#127=ORIENTED_EDGE('',*,*,#259,.F.);
#128=ORIENTED_EDGE('',*,*,#260,.T.);
#129=ORIENTED_EDGE('',*,*,#259,.T.);
#130=ORIENTED_EDGE('',*,*,#261,.T.);
#131=ORIENTED_EDGE('',*,*,#239,.F.);
#132=ORIENTED_EDGE('',*,*,#262,.T.);
#133=ORIENTED_EDGE('',*,*,#223,.T.);
#134=ORIENTED_EDGE('',*,*,#263,.T.);
#135=ORIENTED_EDGE('',*,*,#257,.F.);
#136=ORIENTED_EDGE('',*,*,#264,.T.);
#137=ORIENTED_EDGE('',*,*,#241,.T.);
#138=ORIENTED_EDGE('',*,*,#265,.T.);
#139=ORIENTED_EDGE('',*,*,#266,.F.);
#140=ORIENTED_EDGE('',*,*,#267,.T.);
#141=ORIENTED_EDGE('',*,*,#266,.T.);
#142=ORIENTED_EDGE('',*,*,#268,.T.);
#143=ORIENTED_EDGE('',*,*,#269,.F.);
#144=ORIENTED_EDGE('',*,*,#270,.T.);
#145=ORIENTED_EDGE('',*,*,#269,.T.);
#146=ORIENTED_EDGE('',*,*,#271,.T.);
#147=ORIENTED_EDGE('',*,*,#221,.F.);
#148=ORIENTED_EDGE('',*,*,#272,.T.);
#149=ORIENTED_EDGE('',*,*,#238,.T.);
#150=ORIENTED_EDGE('',*,*,#253,.F.);
#151=ORIENTED_EDGE('',*,*,#237,.T.);
#152=ORIENTED_EDGE('',*,*,#252,.F.);
#153=ORIENTED_EDGE('',*,*,#236,.F.);
#154=ORIENTED_EDGE('',*,*,#227,.F.);
#155=ORIENTED_EDGE('',*,*,#254,.F.);
#156=ORIENTED_EDGE('',*,*,#251,.F.);
#157=ORIENTED_EDGE('',*,*,#273,.F.);
#158=ORIENTED_EDGE('',*,*,#267,.F.);
#159=ORIENTED_EDGE('',*,*,#274,.F.);
#160=ORIENTED_EDGE('',*,*,#233,.F.);
#161=ORIENTED_EDGE('',*,*,#274,.T.);
#162=ORIENTED_EDGE('',*,*,#270,.F.);
#163=ORIENTED_EDGE('',*,*,#275,.F.);
#164=ORIENTED_EDGE('',*,*,#234,.F.);
#165=ORIENTED_EDGE('',*,*,#273,.T.);
#166=ORIENTED_EDGE('',*,*,#232,.F.);
#167=ORIENTED_EDGE('',*,*,#276,.F.);
#168=ORIENTED_EDGE('',*,*,#242,.F.);
#169=ORIENTED_EDGE('',*,*,#275,.T.);
#170=ORIENTED_EDGE('',*,*,#272,.F.);
#171=ORIENTED_EDGE('',*,*,#277,.F.);
#172=ORIENTED_EDGE('',*,*,#235,.F.);
#173=ORIENTED_EDGE('',*,*,#276,.T.);
#174=ORIENTED_EDGE('',*,*,#231,.F.);
#175=ORIENTED_EDGE('',*,*,#278,.F.);
#176=ORIENTED_EDGE('',*,*,#262,.F.);
#177=ORIENTED_EDGE('',*,*,#277,.T.);
#178=ORIENTED_EDGE('',*,*,#224,.F.);
#179=ORIENTED_EDGE('',*,*,#279,.F.);
#180=ORIENTED_EDGE('',*,*,#228,.F.);
#181=ORIENTED_EDGE('',*,*,#278,.T.);
#182=ORIENTED_EDGE('',*,*,#230,.F.);
#183=ORIENTED_EDGE('',*,*,#280,.F.);
#184=ORIENTED_EDGE('',*,*,#260,.F.);
#185=ORIENTED_EDGE('',*,*,#279,.T.);
#186=ORIENTED_EDGE('',*,*,#264,.F.);
#187=ORIENTED_EDGE('',*,*,#280,.T.);
#188=ORIENTED_EDGE('',*,*,#229,.F.);
#189=ORIENTED_EDGE('',*,*,#281,.F.);
#190=ORIENTED_EDGE('',*,*,#248,.F.);
#191=ORIENTED_EDGE('',*,*,#282,.F.);
#192=ORIENTED_EDGE('',*,*,#240,.F.);
#193=ORIENTED_EDGE('',*,*,#282,.T.);
#194=ORIENTED_EDGE('',*,*,#247,.F.);
#195=ORIENTED_EDGE('',*,*,#283,.F.);
#196=ORIENTED_EDGE('',*,*,#265,.F.);
#197=ORIENTED_EDGE('',*,*,#281,.T.);
#198=ORIENTED_EDGE('',*,*,#261,.F.);
#199=ORIENTED_EDGE('',*,*,#284,.F.);
#200=ORIENTED_EDGE('',*,*,#249,.F.);
#201=ORIENTED_EDGE('',*,*,#283,.T.);
#202=ORIENTED_EDGE('',*,*,#246,.F.);
#203=ORIENTED_EDGE('',*,*,#285,.F.);
#204=ORIENTED_EDGE('',*,*,#268,.F.);
#205=ORIENTED_EDGE('',*,*,#284,.T.);
#206=ORIENTED_EDGE('',*,*,#258,.F.);
#207=ORIENTED_EDGE('',*,*,#286,.F.);
#208=ORIENTED_EDGE('',*,*,#250,.F.);
#209=ORIENTED_EDGE('',*,*,#285,.T.);
#210=ORIENTED_EDGE('',*,*,#245,.F.);
#211=ORIENTED_EDGE('',*,*,#287,.F.);
#212=ORIENTED_EDGE('',*,*,#271,.F.);
#213=ORIENTED_EDGE('',*,*,#286,.T.);
#214=ORIENTED_EDGE('',*,*,#263,.F.);
#215=ORIENTED_EDGE('',*,*,#288,.F.);
#216=ORIENTED_EDGE('',*,*,#243,.F.);
#217=ORIENTED_EDGE('',*,*,#287,.T.);
#218=ORIENTED_EDGE('',*,*,#244,.F.);
#219=ORIENTED_EDGE('',*,*,#288,.T.);
#220=ORIENTED_EDGE('',*,*,#222,.F.);
#221=EDGE_CURVE('',#289,#290,#333,.T.);
#222=EDGE_CURVE('',#290,#291,#41,.F.);
#223=EDGE_CURVE('',#292,#291,#334,.T.);
#224=EDGE_CURVE('',#292,#289,#42,.F.);
#225=EDGE_CURVE('',#293,#293,#43,.T.);
#226=EDGE_CURVE('',#294,#294,#44,.T.);
#227=EDGE_CURVE('',#295,#295,#45,.F.);
#228=EDGE_CURVE('',#296,#297,#46,.T.);
#229=EDGE_CURVE('',#297,#298,#335,.T.);
#230=EDGE_CURVE('',#298,#299,#47,.T.);
#231=EDGE_CURVE('',#299,#300,#336,.T.);
#232=EDGE_CURVE('',#300,#301,#48,.T.);
#233=EDGE_CURVE('',#301,#302,#337,.T.);
#234=EDGE_CURVE('',#302,#303,#49,.T.);
#235=EDGE_CURVE('',#303,#296,#338,.T.);
#236=EDGE_CURVE('',#304,#304,#50,.F.);
#237=EDGE_CURVE('',#305,#305,#51,.T.);
#238=EDGE_CURVE('',#306,#306,#52,.T.);
#239=EDGE_CURVE('',#307,#308,#339,.T.);
#240=EDGE_CURVE('',#308,#309,#53,.F.);
#241=EDGE_CURVE('',#310,#309,#340,.T.);
#242=EDGE_CURVE('',#310,#307,#54,.F.);
#243=EDGE_CURVE('',#311,#312,#341,.F.);
#244=EDGE_CURVE('',#312,#313,#55,.T.);
#245=EDGE_CURVE('',#313,#314,#342,.F.);
#246=EDGE_CURVE('',#314,#315,#56,.T.);
#247=EDGE_CURVE('',#315,#316,#343,.F.);
#248=EDGE_CURVE('',#316,#317,#57,.T.);
#249=EDGE_CURVE('',#317,#318,#344,.F.);
#250=EDGE_CURVE('',#318,#311,#58,.T.);
#251=EDGE_CURVE('',#319,#319,#59,.F.);
#252=EDGE_CURVE('',#320,#320,#60,.F.);
#253=EDGE_CURVE('',#321,#321,#61,.F.);
#254=EDGE_CURVE('',#322,#322,#62,.F.);
#255=EDGE_CURVE('',#323,#323,#63,.T.);
#256=EDGE_CURVE('',#324,#324,#64,.T.);
#257=EDGE_CURVE('',#325,#326,#345,.T.);
#258=EDGE_CURVE('',#326,#327,#65,.F.);
#259=EDGE_CURVE('',#328,#327,#346,.T.);
#260=EDGE_CURVE('',#328,#325,#66,.F.);
#261=EDGE_CURVE('',#327,#308,#347,.T.);
#262=EDGE_CURVE('',#307,#328,#348,.F.);
#263=EDGE_CURVE('',#291,#326,#349,.T.);
#264=EDGE_CURVE('',#325,#292,#350,.F.);
#265=EDGE_CURVE('',#309,#329,#351,.T.);
#266=EDGE_CURVE('',#330,#329,#352,.T.);
#267=EDGE_CURVE('',#330,#310,#353,.F.);
#268=EDGE_CURVE('',#329,#331,#67,.F.);
#269=EDGE_CURVE('',#332,#331,#354,.T.);
#270=EDGE_CURVE('',#332,#330,#68,.F.);
#271=EDGE_CURVE('',#331,#290,#355,.T.);
#272=EDGE_CURVE('',#289,#332,#356,.F.);
#273=EDGE_CURVE('',#310,#301,#69,.T.);
#274=EDGE_CURVE('',#302,#330,#70,.T.);
#275=EDGE_CURVE('',#303,#332,#71,.T.);
#276=EDGE_CURVE('',#307,#300,#72,.T.);
#277=EDGE_CURVE('',#296,#289,#73,.T.);
#278=EDGE_CURVE('',#328,#299,#74,.T.);
#279=EDGE_CURVE('',#297,#292,#75,.T.);
#280=EDGE_CURVE('',#325,#298,#76,.T.);
#281=EDGE_CURVE('',#317,#308,#77,.T.);
#282=EDGE_CURVE('',#309,#316,#78,.T.);
#283=EDGE_CURVE('',#329,#315,#79,.T.);
#284=EDGE_CURVE('',#318,#327,#80,.T.);
#285=EDGE_CURVE('',#331,#314,#81,.T.);
#286=EDGE_CURVE('',#311,#326,#82,.T.);
#287=EDGE_CURVE('',#290,#313,#83,.T.);
#288=EDGE_CURVE('',#312,#291,#84,.T.);
#289=VERTEX_POINT('',#809);
#290=VERTEX_POINT('',#810);
#291=VERTEX_POINT('',#812);
#292=VERTEX_POINT('',#814);
#293=VERTEX_POINT('',#818);
#294=VERTEX_POINT('',#820);
#295=VERTEX_POINT('',#823);
#296=VERTEX_POINT('',#826);
#297=VERTEX_POINT('',#827);
#298=VERTEX_POINT('',#829);
#299=VERTEX_POINT('',#831);
#300=VERTEX_POINT('',#833);
#301=VERTEX_POINT('',#835);
#302=VERTEX_POINT('',#837);
#303=VERTEX_POINT('',#839);
#304=VERTEX_POINT('',#842);
#305=VERTEX_POINT('',#844);
#306=VERTEX_POINT('',#846);
#307=VERTEX_POINT('',#849);
#308=VERTEX_POINT('',#850);
#309=VERTEX_POINT('',#852);
#310=VERTEX_POINT('',#854);
#311=VERTEX_POINT('',#858);
#312=VERTEX_POINT('',#859);
#313=VERTEX_POINT('',#861);
#314=VERTEX_POINT('',#863);
#315=VERTEX_POINT('',#865);
#316=VERTEX_POINT('',#867);
#317=VERTEX_POINT('',#869);
#318=VERTEX_POINT('',#871);
#319=VERTEX_POINT('',#874);
#320=VERTEX_POINT('',#876);
#321=VERTEX_POINT('',#878);
#322=VERTEX_POINT('',#881);
#323=VERTEX_POINT('',#883);
#324=VERTEX_POINT('',#886);
#325=VERTEX_POINT('',#890);
#326=VERTEX_POINT('',#891);
#327=VERTEX_POINT('',#893);
#328=VERTEX_POINT('',#895);
#329=VERTEX_POINT('',#905);
#330=VERTEX_POINT('',#907);
#331=VERTEX_POINT('',#911);
#332=VERTEX_POINT('',#913);
#333=LINE('',#808,#357);
#334=LINE('',#813,#358);
#335=LINE('',#828,#359);
#336=LINE('',#832,#360);
#337=LINE('',#836,#361);
#338=LINE('',#840,#362);
#339=LINE('',#848,#363);
#340=LINE('',#853,#364);
#341=LINE('',#857,#365);
#342=LINE('',#862,#366);
#343=LINE('',#866,#367);
#344=LINE('',#870,#368);
#345=LINE('',#889,#369);
#346=LINE('',#894,#370);
#347=LINE('',#898,#371);
#348=LINE('',#899,#372);
#349=LINE('',#901,#373);
#350=LINE('',#902,#374);
#351=LINE('',#904,#375);
#352=LINE('',#906,#376);
#353=LINE('',#908,#377);
#354=LINE('',#912,#378);
#355=LINE('',#916,#379);
#356=LINE('',#917,#380);
#357=VECTOR('',#626,1000.);
#358=VECTOR('',#629,1000.);
#359=VECTOR('',#646,1000.);
#360=VECTOR('',#649,1000.);
#361=VECTOR('',#652,1000.);
#362=VECTOR('',#655,1000.);
#363=VECTOR('',#664,1000.);
#364=VECTOR('',#667,1000.);
#365=VECTOR('',#672,1000.);
#366=VECTOR('',#675,1000.);
#367=VECTOR('',#678,1000.);
#368=VECTOR('',#681,1000.);
#369=VECTOR('',#704,1000.);
#370=VECTOR('',#707,1000.);
#371=VECTOR('',#712,1000.);
#372=VECTOR('',#713,1000.);
#373=VECTOR('',#716,1000.);
#374=VECTOR('',#717,1000.);
#375=VECTOR('',#720,1000.);
#376=VECTOR('',#721,1000.);
#377=VECTOR('',#722,1000.);
#378=VECTOR('',#727,1000.);
#379=VECTOR('',#732,1000.);
#380=VECTOR('',#733,1000.);
#381=EDGE_LOOP('',(#85,#86,#87,#88));
#382=EDGE_LOOP('',(#89));
#383=EDGE_LOOP('',(#90));
#384=EDGE_LOOP('',(#91));
#385=EDGE_LOOP('',(#92));
#386=EDGE_LOOP('',(#93,#94,#95,#96,#97,#98,#99,#100));
#387=EDGE_LOOP('',(#101));
#388=EDGE_LOOP('',(#102));
#389=EDGE_LOOP('',(#103));
#390=EDGE_LOOP('',(#104,#105,#106,#107));
#391=EDGE_LOOP('',(#108,#109,#110,#111,#112,#113,#114,#115));
#392=EDGE_LOOP('',(#116));
#393=EDGE_LOOP('',(#117));
#394=EDGE_LOOP('',(#118));
#395=EDGE_LOOP('',(#119));
#396=EDGE_LOOP('',(#120));
#397=EDGE_LOOP('',(#121));
#398=EDGE_LOOP('',(#122));
#399=EDGE_LOOP('',(#123));
#400=EDGE_LOOP('',(#124));
#401=EDGE_LOOP('',(#125,#126,#127,#128));
#402=EDGE_LOOP('',(#129,#130,#131,#132));
#403=EDGE_LOOP('',(#133,#134,#135,#136));
#404=EDGE_LOOP('',(#137,#138,#139,#140));
#405=EDGE_LOOP('',(#141,#142,#143,#144));
#406=EDGE_LOOP('',(#145,#146,#147,#148));
#407=EDGE_LOOP('',(#149));
#408=EDGE_LOOP('',(#150));
#409=EDGE_LOOP('',(#151));
#410=EDGE_LOOP('',(#152));
#411=EDGE_LOOP('',(#153));
#412=EDGE_LOOP('',(#154));
#413=EDGE_LOOP('',(#155));
#414=EDGE_LOOP('',(#156));
#415=EDGE_LOOP('',(#157,#158,#159,#160));
#416=EDGE_LOOP('',(#161,#162,#163,#164));
#417=EDGE_LOOP('',(#165,#166,#167,#168));
#418=EDGE_LOOP('',(#169,#170,#171,#172));
#419=EDGE_LOOP('',(#173,#174,#175,#176));
#420=EDGE_LOOP('',(#177,#178,#179,#180));
#421=EDGE_LOOP('',(#181,#182,#183,#184));
#422=EDGE_LOOP('',(#185,#186,#187,#188));
#423=EDGE_LOOP('',(#189,#190,#191,#192));
#424=EDGE_LOOP('',(#193,#194,#195,#196));
#425=EDGE_LOOP('',(#197,#198,#199,#200));
#426=EDGE_LOOP('',(#201,#202,#203,#204));
#427=EDGE_LOOP('',(#205,#206,#207,#208));
#428=EDGE_LOOP('',(#209,#210,#211,#212));
#429=EDGE_LOOP('',(#213,#214,#215,#216));
#430=EDGE_LOOP('',(#217,#218,#219,#220));
#431=FACE_BOUND('',#381,.T.);
#432=FACE_BOUND('',#382,.T.);
#433=FACE_BOUND('',#383,.T.);
#434=FACE_BOUND('',#384,.T.);
#435=FACE_BOUND('',#385,.T.);
#436=FACE_BOUND('',#386,.T.);
#437=FACE_BOUND('',#387,.T.);
#438=FACE_BOUND('',#388,.T.);
#439=FACE_BOUND('',#389,.T.);
#440=FACE_BOUND('',#390,.T.);
#441=FACE_BOUND('',#391,.T.);
#442=FACE_BOUND('',#392,.T.);
#443=FACE_BOUND('',#393,.T.);
#444=FACE_BOUND('',#394,.T.);
#445=FACE_BOUND('',#395,.T.);
#446=FACE_BOUND('',#396,.T.);
#447=FACE_BOUND('',#397,.T.);
#448=FACE_BOUND('',#398,.T.);
#449=FACE_BOUND('',#399,.T.);
#450=FACE_BOUND('',#400,.T.);
#451=FACE_BOUND('',#401,.T.);
#452=FACE_BOUND('',#402,.T.);
#453=FACE_BOUND('',#403,.T.);
#454=FACE_BOUND('',#404,.T.);
#455=FACE_BOUND('',#405,.T.);
#456=FACE_BOUND('',#406,.T.);
#457=FACE_BOUND('',#407,.T.);
#458=FACE_BOUND('',#408,.T.);
#459=FACE_BOUND('',#409,.T.);
#460=FACE_BOUND('',#410,.T.);
#461=FACE_BOUND('',#411,.T.);
#462=FACE_BOUND('',#412,.T.);
#463=FACE_BOUND('',#413,.T.);
#464=FACE_BOUND('',#414,.T.);
#465=FACE_BOUND('',#415,.T.);
#466=FACE_BOUND('',#416,.T.);
#467=FACE_BOUND('',#417,.T.);
#468=FACE_BOUND('',#418,.T.);
#469=FACE_BOUND('',#419,.T.);
#470=FACE_BOUND('',#420,.T.);
#471=FACE_BOUND('',#421,.T.);
#472=FACE_BOUND('',#422,.T.);
#473=FACE_BOUND('',#423,.T.);
#474=FACE_BOUND('',#424,.T.);
#475=FACE_BOUND('',#425,.T.);
#476=FACE_BOUND('',#426,.T.);
#477=FACE_BOUND('',#427,.T.);
#478=FACE_BOUND('',#428,.T.);
#479=FACE_BOUND('',#429,.T.);
#480=FACE_BOUND('',#430,.T.);
#481=CYLINDRICAL_SURFACE('',#543,30.);
#482=CYLINDRICAL_SURFACE('',#559,30.);
#483=CYLINDRICAL_SURFACE('',#576,9.25);
#484=CYLINDRICAL_SURFACE('',#582,9.25);
#485=CYLINDRICAL_SURFACE('',#586,3.55);
#486=CYLINDRICAL_SURFACE('',#587,3.55);
#487=CYLINDRICAL_SURFACE('',#590,1.);
#488=CYLINDRICAL_SURFACE('',#597,1.);
#489=CYLINDRICAL_SURFACE('',#599,1.);
#490=CYLINDRICAL_SURFACE('',#605,1.);
#491=CYLINDRICAL_SURFACE('',#609,1.);
#492=CYLINDRICAL_SURFACE('',#611,1.);
#493=CYLINDRICAL_SURFACE('',#617,1.);
#494=CYLINDRICAL_SURFACE('',#619,1.);
#495=ADVANCED_FACE('',(#431),#481,.T.);
#496=ADVANCED_FACE('',(#432,#433),#33,.T.);
#497=ADVANCED_FACE('',(#434,#435),#30,.T.);
#498=ADVANCED_FACE('',(#436,#437,#438,#439),#34,.T.);
#499=ADVANCED_FACE('',(#440),#482,.T.);
#500=ADVANCED_FACE('',(#441,#442,#443,#444),#35,.T.);
#501=ADVANCED_FACE('',(#445,#446),#31,.T.);
#502=ADVANCED_FACE('',(#447,#448),#36,.T.);
#503=ADVANCED_FACE('',(#449,#450),#32,.F.);
#504=ADVANCED_FACE('',(#451),#483,.T.);
#505=ADVANCED_FACE('',(#452),#37,.F.);
#506=ADVANCED_FACE('',(#453),#38,.F.);
#507=ADVANCED_FACE('',(#454),#39,.F.);
#508=ADVANCED_FACE('',(#455),#484,.T.);
#509=ADVANCED_FACE('',(#456),#40,.F.);
#510=ADVANCED_FACE('',(#457,#458),#485,.F.);
#511=ADVANCED_FACE('',(#459,#460),#486,.F.);
#512=ADVANCED_FACE('',(#461,#462),#20,.F.);
#513=ADVANCED_FACE('',(#463,#464),#21,.F.);
#514=ADVANCED_FACE('',(#465),#487,.T.);
#515=ADVANCED_FACE('',(#466),#22,.T.);
#516=ADVANCED_FACE('',(#467),#23,.T.);
#517=ADVANCED_FACE('',(#468),#488,.T.);
#518=ADVANCED_FACE('',(#469),#489,.T.);
#519=ADVANCED_FACE('',(#470),#24,.T.);
#520=ADVANCED_FACE('',(#471),#25,.T.);
#521=ADVANCED_FACE('',(#472),#490,.T.);
#522=ADVANCED_FACE('',(#473),#26,.T.);
#523=ADVANCED_FACE('',(#474),#491,.T.);
#524=ADVANCED_FACE('',(#475),#492,.T.);
#525=ADVANCED_FACE('',(#476),#27,.T.);
#526=ADVANCED_FACE('',(#477),#28,.T.);
#527=ADVANCED_FACE('',(#478),#493,.T.);
#528=ADVANCED_FACE('',(#479),#494,.T.);
#529=ADVANCED_FACE('',(#480),#29,.T.);
#530=CLOSED_SHELL('',(#495,#496,#497,#498,#499,#500,#501,#502,#503,#504,
#505,#506,#507,#508,#509,#510,#511,#512,#513,#514,#515,#516,#517,#518,#519,
#520,#521,#522,#523,#524,#525,#526,#527,#528,#529));
#531=STYLED_ITEM('',(#532),#539);
#532=PRESENTATION_STYLE_ASSIGNMENT((#533));
#533=SURFACE_STYLE_USAGE(.BOTH.,#534);
#534=SURFACE_SIDE_STYLE('',(#535));
#535=SURFACE_STYLE_FILL_AREA(#536);
#536=FILL_AREA_STYLE('',(#537));
#537=FILL_AREA_STYLE_COLOUR('',#538);
#538=COLOUR_RGB('',0.506983280181885,0.531564235687256,0.550000011920929);
#539=MANIFOLD_SOLID_BREP('',#530);
#540=SHAPE_DEFINITION_REPRESENTATION(#960,#541);
#541=SHAPE_REPRESENTATION('PFL\X2\51B2538B83F15F625EA7\X0\',(#542),#955);
#542=AXIS2_PLACEMENT_3D('',#806,#622,#623);
#543=AXIS2_PLACEMENT_3D('',#807,#624,#625);
#544=AXIS2_PLACEMENT_3D('',#811,#627,#628);
#545=AXIS2_PLACEMENT_3D('',#815,#630,#631);
#546=AXIS2_PLACEMENT_3D('',#816,#632,#633);
#547=AXIS2_PLACEMENT_3D('',#817,#634,#635);
#548=AXIS2_PLACEMENT_3D('',#819,#636,#637);
#549=AXIS2_PLACEMENT_3D('',#821,#638,#639);
#550=AXIS2_PLACEMENT_3D('',#822,#640,#641);
#551=AXIS2_PLACEMENT_3D('',#824,#642,#643);
#552=AXIS2_PLACEMENT_3D('',#825,#644,#645);
#553=AXIS2_PLACEMENT_3D('',#830,#647,#648);
#554=AXIS2_PLACEMENT_3D('',#834,#650,#651);
#555=AXIS2_PLACEMENT_3D('',#838,#653,#654);
#556=AXIS2_PLACEMENT_3D('',#841,#656,#657);
#557=AXIS2_PLACEMENT_3D('',#843,#658,#659);
#558=AXIS2_PLACEMENT_3D('',#845,#660,#661);
#559=AXIS2_PLACEMENT_3D('',#847,#662,#663);
#560=AXIS2_PLACEMENT_3D('',#851,#665,#666);
#561=AXIS2_PLACEMENT_3D('',#855,#668,#669);
#562=AXIS2_PLACEMENT_3D('',#856,#670,#671);
#563=AXIS2_PLACEMENT_3D('',#860,#673,#674);
#564=AXIS2_PLACEMENT_3D('',#864,#676,#677);
#565=AXIS2_PLACEMENT_3D('',#868,#679,#680);
#566=AXIS2_PLACEMENT_3D('',#872,#682,#683);
#567=AXIS2_PLACEMENT_3D('',#873,#684,#685);
#568=AXIS2_PLACEMENT_3D('',#875,#686,#687);
#569=AXIS2_PLACEMENT_3D('',#877,#688,#689);
#570=AXIS2_PLACEMENT_3D('',#879,#690,#691);
#571=AXIS2_PLACEMENT_3D('',#880,#692,#693);
#572=AXIS2_PLACEMENT_3D('',#882,#694,#695);
#573=AXIS2_PLACEMENT_3D('',#884,#696,#697);
#574=AXIS2_PLACEMENT_3D('',#885,#698,#699);
#575=AXIS2_PLACEMENT_3D('',#887,#700,#701);
#576=AXIS2_PLACEMENT_3D('',#888,#702,#703);
#577=AXIS2_PLACEMENT_3D('',#892,#705,#706);
#578=AXIS2_PLACEMENT_3D('',#896,#708,#709);
#579=AXIS2_PLACEMENT_3D('',#897,#710,#711);
#580=AXIS2_PLACEMENT_3D('',#900,#714,#715);
#581=AXIS2_PLACEMENT_3D('',#903,#718,#719);
#582=AXIS2_PLACEMENT_3D('',#909,#723,#724);
#583=AXIS2_PLACEMENT_3D('',#910,#725,#726);
#584=AXIS2_PLACEMENT_3D('',#914,#728,#729);
#585=AXIS2_PLACEMENT_3D('',#915,#730,#731);
#586=AXIS2_PLACEMENT_3D('',#918,#734,#735);
#587=AXIS2_PLACEMENT_3D('',#919,#736,#737);
#588=AXIS2_PLACEMENT_3D('',#920,#738,#739);
#589=AXIS2_PLACEMENT_3D('',#921,#740,#741);
#590=AXIS2_PLACEMENT_3D('',#922,#742,#743);
#591=AXIS2_PLACEMENT_3D('',#923,#744,#745);
#592=AXIS2_PLACEMENT_3D('',#924,#746,#747);
#593=AXIS2_PLACEMENT_3D('',#925,#748,#749);
#594=AXIS2_PLACEMENT_3D('',#926,#750,#751);
#595=AXIS2_PLACEMENT_3D('',#927,#752,#753);
#596=AXIS2_PLACEMENT_3D('',#928,#754,#755);
#597=AXIS2_PLACEMENT_3D('',#929,#756,#757);
#598=AXIS2_PLACEMENT_3D('',#930,#758,#759);
#599=AXIS2_PLACEMENT_3D('',#931,#760,#761);
#600=AXIS2_PLACEMENT_3D('',#932,#762,#763);
#601=AXIS2_PLACEMENT_3D('',#933,#764,#765);
#602=AXIS2_PLACEMENT_3D('',#934,#766,#767);
#603=AXIS2_PLACEMENT_3D('',#935,#768,#769);
#604=AXIS2_PLACEMENT_3D('',#936,#770,#771);
#605=AXIS2_PLACEMENT_3D('',#937,#772,#773);
#606=AXIS2_PLACEMENT_3D('',#938,#774,#775);
#607=AXIS2_PLACEMENT_3D('',#939,#776,#777);
#608=AXIS2_PLACEMENT_3D('',#940,#778,#779);
#609=AXIS2_PLACEMENT_3D('',#941,#780,#781);
#610=AXIS2_PLACEMENT_3D('',#942,#782,#783);
#611=AXIS2_PLACEMENT_3D('',#943,#784,#785);
#612=AXIS2_PLACEMENT_3D('',#944,#786,#787);
#613=AXIS2_PLACEMENT_3D('',#945,#788,#789);
#614=AXIS2_PLACEMENT_3D('',#946,#790,#791);
#615=AXIS2_PLACEMENT_3D('',#947,#792,#793);
#616=AXIS2_PLACEMENT_3D('',#948,#794,#795);
#617=AXIS2_PLACEMENT_3D('',#949,#796,#797);
#618=AXIS2_PLACEMENT_3D('',#950,#798,#799);
#619=AXIS2_PLACEMENT_3D('',#951,#800,#801);
#620=AXIS2_PLACEMENT_3D('',#952,#802,#803);
#621=AXIS2_PLACEMENT_3D('',#953,#804,#805);
#622=DIRECTION('',(0.,0.,1.));
#623=DIRECTION('',(1.,0.,0.));
#624=DIRECTION('',(-6.12303176911189E-17,-1.,0.));
#625=DIRECTION('',(1.,-6.12303176911189E-17,0.));
#626=DIRECTION('',(0.,1.,0.));
#627=DIRECTION('',(6.12303176911189E-17,1.,0.));
#628=DIRECTION('',(-1.,6.12303176911189E-17,0.));
#629=DIRECTION('',(0.,1.,0.));
#630=DIRECTION('',(-6.12303176911189E-17,-1.,0.));
#631=DIRECTION('',(1.,-6.12303176911189E-17,0.));
#632=DIRECTION('',(-6.12303176911189E-17,-1.,0.));
#633=DIRECTION('',(1.,-6.12303176911189E-17,0.));
#634=DIRECTION('',(-6.12303176911189E-17,-1.,0.));
#635=DIRECTION('',(1.,-6.12303176911189E-17,0.));
#636=DIRECTION('',(-6.12303176911189E-17,-1.,0.));
#637=DIRECTION('',(1.,-6.12303176911189E-17,0.));
#638=DIRECTION('',(-6.12303176911189E-17,-1.,0.));
#639=DIRECTION('',(0.,0.,1.));
#640=DIRECTION('',(6.12303176911189E-17,1.,0.));
#641=DIRECTION('',(-1.,6.12303176911189E-17,0.));
#642=DIRECTION('',(-6.12303176911189E-17,-1.,0.));
#643=DIRECTION('',(1.,-6.12303176911189E-17,0.));
#644=DIRECTION('',(-6.12303176911189E-17,-1.,0.));
#645=DIRECTION('',(1.,-6.12303176911189E-17,0.));
#646=DIRECTION('',(0.653543307086614,-4.00166643178178E-17,-0.756889123823491));
#647=DIRECTION('',(-6.12303176911189E-17,-1.,0.));
#648=DIRECTION('',(1.,-6.12303176911189E-17,0.));
#649=DIRECTION('',(0.653543307086614,-4.00166643178178E-17,0.756889123823491));
#650=DIRECTION('',(-6.12303176911189E-17,-1.,0.));
#651=DIRECTION('',(1.,-6.12303176911189E-17,0.));
#652=DIRECTION('',(-0.653543307086614,4.00166643178178E-17,0.756889123823491));
#653=DIRECTION('',(-6.12303176911189E-17,-1.,0.));
#654=DIRECTION('',(1.,-6.12303176911189E-17,0.));
#655=DIRECTION('',(-0.653543307086614,4.00166643178178E-17,-0.756889123823491));
#656=DIRECTION('',(-6.12303176911189E-17,-1.,0.));
#657=DIRECTION('',(1.,-6.12303176911189E-17,0.));
#658=DIRECTION('',(-6.12303176911189E-17,-1.,0.));
#659=DIRECTION('',(1.,-6.12303176911189E-17,0.));
#660=DIRECTION('',(-6.12303176911189E-17,-1.,0.));
#661=DIRECTION('',(1.,-6.12303176911189E-17,0.));
#662=DIRECTION('',(-6.12303176911189E-17,-1.,0.));
#663=DIRECTION('',(1.,-6.12303176911189E-17,0.));
#664=DIRECTION('',(0.,1.,0.));
#665=DIRECTION('',(6.12303176911189E-17,1.,0.));
#666=DIRECTION('',(-1.,6.12303176911189E-17,0.));
#667=DIRECTION('',(0.,1.,0.));
#668=DIRECTION('',(-6.12303176911189E-17,-1.,0.));
#669=DIRECTION('',(1.,-6.12303176911189E-17,0.));
#670=DIRECTION('',(6.12303176911189E-17,1.,0.));
#671=DIRECTION('',(-1.,6.12303176911189E-17,0.));
#672=DIRECTION('',(0.653543307086614,-4.00166643178178E-17,-0.756889123823491));
#673=DIRECTION('',(6.12303176911189E-17,1.,0.));
#674=DIRECTION('',(-1.,6.12303176911189E-17,0.));
#675=DIRECTION('',(-0.653543307086614,4.00166643178178E-17,-0.756889123823491));
#676=DIRECTION('',(6.12303176911189E-17,1.,0.));
#677=DIRECTION('',(-1.,6.12303176911189E-17,0.));
#678=DIRECTION('',(-0.653543307086614,4.00166643178178E-17,0.756889123823491));
#679=DIRECTION('',(6.12303176911189E-17,1.,0.));
#680=DIRECTION('',(-1.,6.12303176911189E-17,0.));
#681=DIRECTION('',(0.653543307086614,-4.00166643178178E-17,0.756889123823491));
#682=DIRECTION('',(6.12303176911189E-17,1.,0.));
#683=DIRECTION('',(-1.,6.12303176911189E-17,0.));
#684=DIRECTION('',(6.12303176911189E-17,1.,0.));
#685=DIRECTION('',(-1.,6.12303176911189E-17,0.));
#686=DIRECTION('',(6.12303176911189E-17,1.,0.));
#687=DIRECTION('',(-1.,6.12303176911189E-17,0.));
#688=DIRECTION('',(6.12303176911189E-17,1.,0.));
#689=DIRECTION('',(-1.,6.12303176911189E-17,0.));
#690=DIRECTION('',(-6.12303176911189E-17,-1.,0.));
#691=DIRECTION('',(0.,0.,1.));
#692=DIRECTION('',(-6.12303176911189E-17,-1.,0.));
#693=DIRECTION('',(1.,-6.12303176911189E-17,0.));
#694=DIRECTION('',(-6.12303176911189E-17,-1.,0.));
#695=DIRECTION('',(1.,-6.12303176911189E-17,0.));
#696=DIRECTION('',(6.12303176911189E-17,1.,0.));
#697=DIRECTION('',(-1.,6.12303176911189E-17,0.));
#698=DIRECTION('',(-6.12303176911189E-17,-1.,0.));
#699=DIRECTION('',(1.,-6.12303176911189E-17,0.));
#700=DIRECTION('',(-6.12303176911189E-17,-1.,0.));
#701=DIRECTION('',(0.,0.,1.));
#702=DIRECTION('',(0.,1.,0.));
#703=DIRECTION('',(0.,0.,1.));
#704=DIRECTION('',(0.,1.,0.));
#705=DIRECTION('',(6.12303176911189E-17,1.,0.));
#706=DIRECTION('',(-1.,6.12303176911189E-17,0.));
#707=DIRECTION('',(0.,1.,0.));
#708=DIRECTION('',(-6.12303176911189E-17,-1.,0.));
#709=DIRECTION('',(1.,-6.12303176911189E-17,0.));
#710=DIRECTION('',(-0.756889123823491,0.,0.653543307086614));
#711=DIRECTION('',(0.653543307086614,0.,0.756889123823491));
#712=DIRECTION('',(0.653543307086614,-4.00166643178178E-17,0.756889123823491));
#713=DIRECTION('',(0.653543307086614,-4.00166643178178E-17,0.756889123823491));
#714=DIRECTION('',(0.756889123823491,0.,0.653543307086614));
#715=DIRECTION('',(0.653543307086614,0.,-0.756889123823491));
#716=DIRECTION('',(0.653543307086614,-4.00166643178178E-17,-0.756889123823491));
#717=DIRECTION('',(0.653543307086614,-4.00166643178178E-17,-0.756889123823491));
#718=DIRECTION('',(-0.756889123823491,0.,-0.653543307086614));
#719=DIRECTION('',(-0.653543307086614,0.,0.756889123823491));
#720=DIRECTION('',(-0.653543307086614,4.00166643178178E-17,0.756889123823491));
#721=DIRECTION('',(0.,1.,0.));
#722=DIRECTION('',(-0.653543307086614,4.00166643178178E-17,0.756889123823491));
#723=DIRECTION('',(0.,1.,0.));
#724=DIRECTION('',(0.,0.,1.));
#725=DIRECTION('',(6.12303176911189E-17,1.,0.));
#726=DIRECTION('',(-1.,6.12303176911189E-17,0.));
#727=DIRECTION('',(0.,1.,0.));
#728=DIRECTION('',(-6.12303176911189E-17,-1.,0.));
#729=DIRECTION('',(1.,-6.12303176911189E-17,0.));
#730=DIRECTION('',(0.756889123823491,0.,-0.653543307086614));
#731=DIRECTION('',(-0.653543307086614,0.,-0.756889123823491));
#732=DIRECTION('',(-0.653543307086614,4.00166643178178E-17,-0.756889123823491));
#733=DIRECTION('',(-0.653543307086614,4.00166643178178E-17,-0.756889123823491));
#734=DIRECTION('',(0.,1.,0.));
#735=DIRECTION('',(0.,0.,1.));
#736=DIRECTION('',(0.,1.,0.));
#737=DIRECTION('',(0.,0.,1.));
#738=DIRECTION('',(-6.12303176911189E-17,-1.,0.));
#739=DIRECTION('',(1.,-6.12303176911189E-17,0.));
#740=DIRECTION('',(6.12303176911189E-17,1.,0.));
#741=DIRECTION('',(-1.,6.12303176911189E-17,0.));
#742=DIRECTION('',(0.653543307086614,-4.00166643178178E-17,-0.756889123823491));
#743=DIRECTION('',(-0.756889123823491,0.,-0.653543307086614));
#744=DIRECTION('',(0.653543307086614,0.,-0.756889123823491));
#745=DIRECTION('',(-0.756889123823491,0.,-0.653543307086614));
#746=DIRECTION('',(-0.653543307086613,0.,0.756889123823491));
#747=DIRECTION('',(0.756889123823492,0.,0.653543307086613));
#748=DIRECTION('',(-6.12303176911189E-17,-1.,0.));
#749=DIRECTION('',(1.,-6.12303176911189E-17,0.));
#750=DIRECTION('',(-0.653543307086612,0.,-0.756889123823493));
#751=DIRECTION('',(-0.756889123823493,0.,0.653543307086612));
#752=DIRECTION('',(-6.12303176911189E-17,-1.,0.));
#753=DIRECTION('',(1.,-6.12303176911189E-17,0.));
#754=DIRECTION('',(-0.653543307086614,0.,-0.756889123823491));
#755=DIRECTION('',(-0.756889123823491,0.,0.653543307086614));
#756=DIRECTION('',(0.653543307086614,-4.00166643178178E-17,0.756889123823491));
#757=DIRECTION('',(0.756889123823491,0.,-0.653543307086614));
#758=DIRECTION('',(-0.653543307086612,0.,-0.756889123823493));
#759=DIRECTION('',(-0.756889123823493,0.,0.653543307086612));
#760=DIRECTION('',(-0.653543307086614,4.00166643178178E-17,-0.756889123823491));
#761=DIRECTION('',(-0.756889123823491,0.,0.653543307086614));
#762=DIRECTION('',(-0.653543307086613,0.,-0.756889123823491));
#763=DIRECTION('',(-0.756889123823492,0.,0.653543307086613));
#764=DIRECTION('',(-6.12303176911189E-17,-1.,0.));
#765=DIRECTION('',(1.,-6.12303176911189E-17,0.));
#766=DIRECTION('',(0.653543307086614,0.,-0.756889123823491));
#767=DIRECTION('',(-0.756889123823491,0.,-0.653543307086614));
#768=DIRECTION('',(-6.12303176911189E-17,-1.,0.));
#769=DIRECTION('',(1.,-6.12303176911189E-17,0.));
#770=DIRECTION('',(-0.653543307086613,5.25197332723251E-15,0.756889123823491));
#771=DIRECTION('',(0.756889123823492,0.,0.653543307086613));
#772=DIRECTION('',(-0.653543307086614,4.00166643178178E-17,0.756889123823491));
#773=DIRECTION('',(0.756889123823491,0.,0.653543307086614));
#774=DIRECTION('',(6.12303176911189E-17,1.,0.));
#775=DIRECTION('',(-1.,6.12303176911189E-17,0.));
#776=DIRECTION('',(-0.653543307086614,0.,-0.756889123823491));
#777=DIRECTION('',(-0.756889123823491,0.,0.653543307086614));
#778=DIRECTION('',(-0.653543307086614,0.,0.756889123823491));
#779=DIRECTION('',(0.756889123823491,0.,0.653543307086614));
#780=DIRECTION('',(0.653543307086614,-4.00166643178178E-17,-0.756889123823491));
#781=DIRECTION('',(-0.756889123823491,0.,-0.653543307086614));
#782=DIRECTION('',(-0.653543307086613,5.66858458685334E-16,0.756889123823491));
#783=DIRECTION('',(0.756889123823492,0.,0.653543307086613));
#784=DIRECTION('',(-0.653543307086614,4.00166643178178E-17,-0.756889123823491));
#785=DIRECTION('',(-0.756889123823491,0.,0.653543307086614));
#786=DIRECTION('',(-0.653543307086614,0.,-0.756889123823491));
#787=DIRECTION('',(-0.756889123823491,0.,0.653543307086614));
#788=DIRECTION('',(6.12303176911189E-17,1.,0.));
#789=DIRECTION('',(-1.,6.12303176911189E-17,0.));
#790=DIRECTION('',(-0.653543307086613,-5.66858458685334E-16,-0.756889123823491));
#791=DIRECTION('',(-0.756889123823492,0.,0.653543307086613));
#792=DIRECTION('',(6.12303176911189E-17,1.,0.));
#793=DIRECTION('',(-1.,6.12303176911189E-17,0.));
#794=DIRECTION('',(-0.653543307086613,0.,0.756889123823492));
#795=DIRECTION('',(0.756889123823492,0.,0.653543307086613));
#796=DIRECTION('',(0.653543307086614,-4.00166643178178E-17,0.756889123823491));
#797=DIRECTION('',(0.756889123823491,0.,-0.653543307086614));
#798=DIRECTION('',(-0.653543307086614,0.,-0.756889123823491));
#799=DIRECTION('',(-0.756889123823491,0.,0.653543307086614));
#800=DIRECTION('',(-0.653543307086614,4.00166643178178E-17,0.756889123823491));
#801=DIRECTION('',(0.756889123823491,0.,0.653543307086614));
#802=DIRECTION('',(-0.653543307086614,0.,0.756889123823491));
#803=DIRECTION('',(0.756889123823491,0.,0.653543307086614));
#804=DIRECTION('',(6.12303176911189E-17,1.,0.));
#805=DIRECTION('',(-1.,6.12303176911189E-17,0.));
#806=CARTESIAN_POINT('',(0.,0.,0.));
#807=CARTESIAN_POINT('',(0.,0.,0.));
#808=CARTESIAN_POINT('',(-22.7066737147047,-2.25,19.6062992125984));
#809=CARTESIAN_POINT('',(-22.7066737147047,-1.25000000000001,19.6062992125984));
#810=CARTESIAN_POINT('',(-22.7066737147047,1.25,19.6062992125984));
#811=CARTESIAN_POINT('',(7.65378971138986E-17,1.25,0.));
#812=CARTESIAN_POINT('',(-22.7066737147047,1.25,-19.6062992125984));
#813=CARTESIAN_POINT('',(-22.7066737147047,-2.25,-19.6062992125984));
#814=CARTESIAN_POINT('',(-22.7066737147047,-1.25000000000001,-19.6062992125984));
#815=CARTESIAN_POINT('',(-7.65378971138991E-17,-1.25000000000001,0.));
#816=CARTESIAN_POINT('',(-4.59227382683391E-16,-7.5,18.5404962177392));
#817=CARTESIAN_POINT('',(-4.59227382683391E-16,-7.5,0.));
#818=CARTESIAN_POINT('',(23.3238075793812,-7.5,0.));
#819=CARTESIAN_POINT('',(-4.59227382683391E-16,-7.5,0.));
#820=CARTESIAN_POINT('',(18.5404962177392,-7.5,0.));
#821=CARTESIAN_POINT('',(0.,0.,-1.73472347597681E-15));
#822=CARTESIAN_POINT('',(-1.9119466847668E-16,-3.12254901960785,-1.73472347597681E-15));
#823=CARTESIAN_POINT('',(-24.3001993329303,-3.12254901960785,-1.73472347597681E-15));
#824=CARTESIAN_POINT('',(-1.37768214805018E-16,-2.25000000000001,24.3964649078509));
#825=CARTESIAN_POINT('',(-1.37768214805018E-16,-2.25000000000001,0.));
#826=CARTESIAN_POINT('',(-21.9497845908812,-2.25000000000001,18.9527559055118));
#827=CARTESIAN_POINT('',(-21.9497845908812,-2.25000000000001,-18.9527559055118));
#828=CARTESIAN_POINT('',(-6.2443352715438,-2.25000000000001,-37.1417322834646));
#829=CARTESIAN_POINT('',(-6.2443352715438,-2.25000000000001,-37.1417322834646));
#830=CARTESIAN_POINT('',(-6.12303176911189E-17,-2.25000000000001,-31.75));
#831=CARTESIAN_POINT('',(6.2443352715438,-2.25000000000001,-37.1417322834646));
#832=CARTESIAN_POINT('',(21.9497845908812,-2.25000000000001,-18.9527559055118));
#833=CARTESIAN_POINT('',(21.9497845908812,-2.25000000000001,-18.9527559055118));
#834=CARTESIAN_POINT('',(-1.37768214805018E-16,-2.25000000000001,0.));
#835=CARTESIAN_POINT('',(21.9497845908812,-2.25000000000001,18.9527559055118));
#836=CARTESIAN_POINT('',(6.2443352715438,-2.25000000000001,37.1417322834646));
#837=CARTESIAN_POINT('',(6.2443352715438,-2.25000000000001,37.1417322834646));
#838=CARTESIAN_POINT('',(-6.12303176911189E-17,-2.25000000000001,31.75));
#839=CARTESIAN_POINT('',(-6.2443352715438,-2.25000000000001,37.1417322834646));
#840=CARTESIAN_POINT('',(-21.9497845908812,-2.25000000000001,18.9527559055118));
#841=CARTESIAN_POINT('',(-1.37768214805018E-16,-2.25000000000001,-1.73472347597681E-15));
#842=CARTESIAN_POINT('',(25.2920442036622,-2.25000000000001,-1.73472347597681E-15));
#843=CARTESIAN_POINT('',(0.,-2.25,-31.75));
#844=CARTESIAN_POINT('',(3.55,-2.25,-31.75));
#845=CARTESIAN_POINT('',(-1.16647607618785E-14,-2.25,31.75));
#846=CARTESIAN_POINT('',(3.54999999999999,-2.25,31.75));
#847=CARTESIAN_POINT('',(0.,0.,0.));
#848=CARTESIAN_POINT('',(22.7066737147047,-2.25,-19.6062992125984));
#849=CARTESIAN_POINT('',(22.7066737147047,-1.25000000000001,-19.6062992125984));
#850=CARTESIAN_POINT('',(22.7066737147047,1.25,-19.6062992125984));
#851=CARTESIAN_POINT('',(7.65378971138986E-17,1.25,0.));
#852=CARTESIAN_POINT('',(22.7066737147047,1.25,19.6062992125984));
#853=CARTESIAN_POINT('',(22.7066737147047,-2.25,19.6062992125984));
#854=CARTESIAN_POINT('',(22.7066737147047,-1.25000000000001,19.6062992125984));
#855=CARTESIAN_POINT('',(-7.65378971138991E-17,-1.25000000000001,0.));
#856=CARTESIAN_POINT('',(1.37768214805017E-16,2.25,24.3964649078509));
#857=CARTESIAN_POINT('',(-21.9497845908812,2.25,-18.9527559055118));
#858=CARTESIAN_POINT('',(-6.2443352715438,2.25,-37.1417322834646));
#859=CARTESIAN_POINT('',(-21.9497845908812,2.25,-18.9527559055118));
#860=CARTESIAN_POINT('',(1.37768214805017E-16,2.25,0.));
#861=CARTESIAN_POINT('',(-21.9497845908813,2.25,18.9527559055118));
#862=CARTESIAN_POINT('',(-6.2443352715438,2.25,37.1417322834646));
#863=CARTESIAN_POINT('',(-6.2443352715438,2.25,37.1417322834646));
#864=CARTESIAN_POINT('',(6.12303176911189E-17,2.25,31.75));
#865=CARTESIAN_POINT('',(6.24433527154381,2.25,37.1417322834646));
#866=CARTESIAN_POINT('',(21.9497845908812,2.25,18.9527559055118));
#867=CARTESIAN_POINT('',(21.9497845908812,2.25,18.9527559055118));
#868=CARTESIAN_POINT('',(1.37768214805017E-16,2.25,0.));
#869=CARTESIAN_POINT('',(21.9497845908812,2.25,-18.9527559055118));
#870=CARTESIAN_POINT('',(6.2443352715438,2.25,-37.1417322834646));
#871=CARTESIAN_POINT('',(6.2443352715438,2.25,-37.1417322834646));
#872=CARTESIAN_POINT('',(6.12303176911189E-17,2.25,-31.75));
#873=CARTESIAN_POINT('',(1.37768214805017E-16,2.25,-1.73472347597681E-15));
#874=CARTESIAN_POINT('',(-25.2920442036622,2.25,-1.73472347597681E-15));
#875=CARTESIAN_POINT('',(0.,2.25,-31.75));
#876=CARTESIAN_POINT('',(-3.55,2.25,-31.75));
#877=CARTESIAN_POINT('',(-1.16647607618785E-14,2.25,31.75));
#878=CARTESIAN_POINT('',(-3.55000000000001,2.25,31.75));
#879=CARTESIAN_POINT('',(0.,0.,-1.73472347597681E-15));
#880=CARTESIAN_POINT('',(1.9119466847668E-16,3.12254901960784,-1.73472347597681E-15));
#881=CARTESIAN_POINT('',(24.3001993329303,3.12254901960784,-1.73472347597681E-15));
#882=CARTESIAN_POINT('',(4.59227382683391E-16,7.49999999999999,0.));
#883=CARTESIAN_POINT('',(23.3238075793812,7.49999999999999,0.));
#884=CARTESIAN_POINT('',(4.59227382683391E-16,7.49999999999999,18.5404962177392));
#885=CARTESIAN_POINT('',(4.59227382683391E-16,7.5,0.));
#886=CARTESIAN_POINT('',(18.5404962177392,7.5,0.));
#887=CARTESIAN_POINT('',(0.,0.,0.));
#888=CARTESIAN_POINT('',(0.,-2.25,-31.75));
#889=CARTESIAN_POINT('',(-7.00122439536729,-2.25,-37.7952755905512));
#890=CARTESIAN_POINT('',(-7.00122439536729,-1.25000000000001,-37.7952755905512));
#891=CARTESIAN_POINT('',(-7.00122439536729,1.25,-37.7952755905512));
#892=CARTESIAN_POINT('',(0.,1.25,-31.75));
#893=CARTESIAN_POINT('',(7.00122439536729,1.25,-37.7952755905512));
#894=CARTESIAN_POINT('',(7.00122439536729,-2.25,-37.7952755905512));
#895=CARTESIAN_POINT('',(7.00122439536729,-1.25000000000001,-37.7952755905512));
#896=CARTESIAN_POINT('',(0.,-1.25000000000001,-31.75));
#897=CARTESIAN_POINT('',(7.00122439536729,-2.25,-37.7952755905512));
#898=CARTESIAN_POINT('',(22.7066737147047,1.25,-19.6062992125984));
#899=CARTESIAN_POINT('',(7.00122439536729,-1.25000000000001,-37.7952755905512));
#900=CARTESIAN_POINT('',(-7.00122439536729,-2.25,-37.7952755905512));
#901=CARTESIAN_POINT('',(-7.00122439536729,1.25,-37.7952755905512));
#902=CARTESIAN_POINT('',(-22.7066737147047,-1.25000000000001,-19.6062992125984));
#903=CARTESIAN_POINT('',(7.0012243953673,-2.25,37.7952755905512));
#904=CARTESIAN_POINT('',(7.0012243953673,1.25,37.7952755905512));
#905=CARTESIAN_POINT('',(7.0012243953673,1.25,37.7952755905512));
#906=CARTESIAN_POINT('',(7.0012243953673,-2.25,37.7952755905512));
#907=CARTESIAN_POINT('',(7.0012243953673,-1.25000000000001,37.7952755905512));
#908=CARTESIAN_POINT('',(22.7066737147047,-1.25000000000001,19.6062992125984));
#909=CARTESIAN_POINT('',(0.,-2.25,31.75));
#910=CARTESIAN_POINT('',(0.,1.25,31.75));
#911=CARTESIAN_POINT('',(-7.00122439536729,1.25,37.7952755905512));
#912=CARTESIAN_POINT('',(-7.00122439536729,-2.25,37.7952755905512));
#913=CARTESIAN_POINT('',(-7.00122439536729,-1.25000000000001,37.7952755905512));
#914=CARTESIAN_POINT('',(0.,-1.25000000000001,31.75));
#915=CARTESIAN_POINT('',(-7.00122439536729,-2.25,37.7952755905512));
#916=CARTESIAN_POINT('',(-22.7066737147047,1.25,19.6062992125984));
#917=CARTESIAN_POINT('',(-7.00122439536729,-1.25000000000001,37.7952755905512));
#918=CARTESIAN_POINT('',(-1.16647607618785E-14,-102.708324881676,31.75));
#919=CARTESIAN_POINT('',(0.,-102.708324881676,-31.75));
#920=CARTESIAN_POINT('',(-1.98998532496137E-16,-3.25000000000001,-1.73472347597681E-15));
#921=CARTESIAN_POINT('',(1.98998532496136E-16,3.25,-1.73472347597681E-15));
#922=CARTESIAN_POINT('',(9.88183362454277,-1.25000000000001,32.929030674471));
#923=CARTESIAN_POINT('',(21.9497845908812,-1.25000000000001,18.9527559055118));
#924=CARTESIAN_POINT('',(6.2443352715438,-1.25000000000001,37.1417322834646));
#925=CARTESIAN_POINT('',(0.,-1.25000000000001,31.75));
#926=CARTESIAN_POINT('',(-6.2443352715438,-1.25000000000001,37.1417322834646));
#927=CARTESIAN_POINT('',(-7.65378971138991E-17,-1.25000000000001,0.));
#928=CARTESIAN_POINT('',(21.9497845908812,-1.25000000000001,-18.9527559055118));
#929=CARTESIAN_POINT('',(-9.88183362454277,-1.25000000000001,32.929030674471));
#930=CARTESIAN_POINT('',(-21.9497845908812,-1.25000000000001,18.9527559055118));
#931=CARTESIAN_POINT('',(34.0177355572197,-1.25000000000001,-4.97648113655264));
#932=CARTESIAN_POINT('',(6.2443352715438,-1.25000000000001,-37.1417322834646));
#933=CARTESIAN_POINT('',(-7.65378971138991E-17,-1.25000000000001,0.));
#934=CARTESIAN_POINT('',(-21.9497845908812,-1.25000000000001,-18.9527559055118));
#935=CARTESIAN_POINT('',(0.,-1.25000000000001,-31.75));
#936=CARTESIAN_POINT('',(-6.2443352715438,-1.25000000000001,-37.1417322834646));
#937=CARTESIAN_POINT('',(-34.0177355572197,-1.25000000000001,-4.97648113655264));
#938=CARTESIAN_POINT('',(7.65378971138986E-17,1.25,0.));
#939=CARTESIAN_POINT('',(21.9497845908812,1.25,-18.9527559055118));
#940=CARTESIAN_POINT('',(21.9497845908812,1.25,18.9527559055118));
#941=CARTESIAN_POINT('',(6.2443352715438,1.25,37.1417322834646));
#942=CARTESIAN_POINT('',(6.2443352715438,1.25,37.1417322834646));
#943=CARTESIAN_POINT('',(6.2443352715438,1.25,-37.1417322834646));
#944=CARTESIAN_POINT('',(6.2443352715438,1.25,-37.1417322834646));
#945=CARTESIAN_POINT('',(0.,1.25,31.75));
#946=CARTESIAN_POINT('',(-6.2443352715438,1.25,37.1417322834646));
#947=CARTESIAN_POINT('',(0.,1.25,-31.75));
#948=CARTESIAN_POINT('',(-6.2443352715438,1.25,-37.1417322834646));
#949=CARTESIAN_POINT('',(-6.2443352715438,1.25,37.1417322834646));
#950=CARTESIAN_POINT('',(-21.9497845908813,1.25,18.9527559055118));
#951=CARTESIAN_POINT('',(-6.2443352715438,1.25,-37.1417322834646));
#952=CARTESIAN_POINT('',(-21.9497845908812,1.25,-18.9527559055118));
#953=CARTESIAN_POINT('',(7.65378971138986E-17,1.25,0.));
#954=MECHANICAL_DESIGN_GEOMETRIC_PRESENTATION_REPRESENTATION('',(#531),
#955);
#955=(
GEOMETRIC_REPRESENTATION_CONTEXT(3)
GLOBAL_UNCERTAINTY_ASSIGNED_CONTEXT((#956))
GLOBAL_UNIT_ASSIGNED_CONTEXT((#959,#958,#957))
REPRESENTATION_CONTEXT('PFL\X2\51B2538B83F15F625EA7\X0\',
'TOP_LEVEL_ASSEMBLY_PART')
);
#956=UNCERTAINTY_MEASURE_WITH_UNIT(LENGTH_MEASURE(0.005),#959,
'DISTANCE_ACCURACY_VALUE','Maximum Tolerance applied to model');
#957=(
NAMED_UNIT(*)
SI_UNIT($,.STERADIAN.)
SOLID_ANGLE_UNIT()
);
#958=(
NAMED_UNIT(*)
PLANE_ANGLE_UNIT()
SI_UNIT($,.RADIAN.)
);
#959=(
LENGTH_UNIT()
NAMED_UNIT(*)
SI_UNIT(.MILLI.,.METRE.)
);
#960=PRODUCT_DEFINITION_SHAPE('','',#961);
#961=PRODUCT_DEFINITION('','',#963,#962);
#962=PRODUCT_DEFINITION_CONTEXT('',#969,'design');
#963=PRODUCT_DEFINITION_FORMATION_WITH_SPECIFIED_SOURCE('','',#965,
 .NOT_KNOWN.);
#964=PRODUCT_RELATED_PRODUCT_CATEGORY('','',(#965));
#965=PRODUCT('PFL\X2\51B2538B83F15F625EA7\X0\','PFL\X2\51B2538B83F15F625EA7\X0\',
'PFL\X2\51B2538B83F15F625EA7\X0\',(#967));
#966=PRODUCT_CATEGORY('','');
#967=PRODUCT_CONTEXT('',#969,'mechanical');
#968=APPLICATION_PROTOCOL_DEFINITION('international standard',
'automotive_design',2010,#969);
#969=APPLICATION_CONTEXT(
'core data for automotive mechanical design processes');
ENDSEC;
END-ISO-10303-21;
