ISO-10303-21;
HEADER;
/* Generated by software containing HOOPS Exchange Step
 * from HOOPS Exchange, Inc. (www.tiangong.cloud) 
 */

FILE_DESCRIPTION(
/* description */ ('Unknown'),
/* implementation_level */ '2;1');

FILE_NAME(
/* name */ '\X2\5916570867096B6252A869FD76846DF16C9F74038F74627F\X0\60
000N\X2\578B\X0\',
/* time_stamp */ '2025-01-23T16:17:46+08:00',
/* author */ ('Unknown'),
/* organization */ ('Unknown'),
/* preprocessor_version */ 'ST-DEVELOPER v19.4',
/* originating_system */ 'TianGong',
/* authorisation */ 'Unknown');

FILE_SCHEMA (('AUTOMOTIVE_DESIGN {1 0 10303 214 3 1 1}'));
ENDSEC;

DATA;
#10=PROPERTY_DEFINITION_REPRESENTATION(#14,#12);
#11=PROPERTY_DEFINITION_REPRESENTATION(#15,#13);
#12=REPRESENTATION('',(#16),#820);
#13=REPRESENTATION('',(#17),#820);
#14=PROPERTY_DEFINITION('pmi validation property','',#825);
#15=PROPERTY_DEFINITION('pmi validation property','',#825);
#16=VALUE_REPRESENTATION_ITEM('number of annotations',COUNT_MEASURE(0.));
#17=VALUE_REPRESENTATION_ITEM('number of views',COUNT_MEASURE(0.));
#18=VERTEX_LOOP('',#156);
#19=VERTEX_LOOP('',#157);
#20=VERTEX_LOOP('',#158);
#21=VERTEX_LOOP('',#159);
#22=VERTEX_LOOP('',#160);
#23=VERTEX_LOOP('',#161);
#24=VERTEX_LOOP('',#162);
#25=VERTEX_LOOP('',#163);
#26=VERTEX_LOOP('',#164);
#27=VERTEX_LOOP('',#165);
#28=VERTEX_LOOP('',#166);
#29=VERTEX_LOOP('',#167);
#30=VERTEX_LOOP('',#168);
#31=VERTEX_LOOP('',#169);
#32=VERTEX_LOOP('',#170);
#33=SPHERICAL_SURFACE('',#565,1.66566666666667);
#34=SPHERICAL_SURFACE('',#566,1.66566666666667);
#35=SPHERICAL_SURFACE('',#567,1.66566666666667);
#36=SPHERICAL_SURFACE('',#568,1.66566666666667);
#37=SPHERICAL_SURFACE('',#569,1.66566666666667);
#38=SPHERICAL_SURFACE('',#570,1.66566666666667);
#39=SPHERICAL_SURFACE('',#571,1.66566666666667);
#40=SPHERICAL_SURFACE('',#572,1.66566666666667);
#41=SPHERICAL_SURFACE('',#573,1.66566666666667);
#42=SPHERICAL_SURFACE('',#574,1.66566666666667);
#43=SPHERICAL_SURFACE('',#575,1.66566666666667);
#44=SPHERICAL_SURFACE('',#576,1.66566666666667);
#45=SPHERICAL_SURFACE('',#577,1.66566666666667);
#46=SPHERICAL_SURFACE('',#578,1.66566666666667);
#47=SPHERICAL_SURFACE('',#579,1.66566666666667);
#48=SHAPE_REPRESENTATION_RELATIONSHIP('','',#523,#49);
#49=ADVANCED_BREP_SHAPE_REPRESENTATION('',(#504,#505,#506,#507,#508,#509,
#510,#511,#512,#513,#514,#515,#516,#517,#518,#519,#520,#521),#820);
#50=TOROIDAL_SURFACE('',#539,13.,1.66666666666667);
#51=TOROIDAL_SURFACE('',#542,15.7,0.3);
#52=TOROIDAL_SURFACE('',#543,15.7,0.3);
#53=TOROIDAL_SURFACE('',#554,13.,1.66666666666667);
#54=TOROIDAL_SURFACE('',#563,10.3,0.3);
#55=TOROIDAL_SURFACE('',#564,10.3,0.3);
#56=PLANE('',#531);
#57=PLANE('',#534);
#58=PLANE('',#547);
#59=PLANE('',#548);
#60=PLANE('',#549);
#61=PLANE('',#558);
#62=PLANE('',#583);
#63=PLANE('',#587);
#64=ORIENTED_EDGE('',*,*,#112,.T.);
#65=ORIENTED_EDGE('',*,*,#113,.F.);
#66=ORIENTED_EDGE('',*,*,#114,.T.);
#67=ORIENTED_EDGE('',*,*,#115,.T.);
#68=ORIENTED_EDGE('',*,*,#116,.T.);
#69=ORIENTED_EDGE('',*,*,#117,.T.);
#70=ORIENTED_EDGE('',*,*,#118,.T.);
#71=ORIENTED_EDGE('',*,*,#119,.F.);
#72=ORIENTED_EDGE('',*,*,#120,.F.);
#73=ORIENTED_EDGE('',*,*,#119,.T.);
#74=ORIENTED_EDGE('',*,*,#121,.F.);
#75=ORIENTED_EDGE('',*,*,#120,.T.);
#76=ORIENTED_EDGE('',*,*,#117,.F.);
#77=ORIENTED_EDGE('',*,*,#121,.T.);
#78=ORIENTED_EDGE('',*,*,#116,.F.);
#79=ORIENTED_EDGE('',*,*,#112,.F.);
#80=ORIENTED_EDGE('',*,*,#114,.F.);
#81=ORIENTED_EDGE('',*,*,#118,.F.);
#82=ORIENTED_EDGE('',*,*,#122,.T.);
#83=ORIENTED_EDGE('',*,*,#123,.F.);
#84=ORIENTED_EDGE('',*,*,#113,.T.);
#85=ORIENTED_EDGE('',*,*,#122,.F.);
#86=ORIENTED_EDGE('',*,*,#123,.T.);
#87=ORIENTED_EDGE('',*,*,#115,.F.);
#88=ORIENTED_EDGE('',*,*,#124,.T.);
#89=ORIENTED_EDGE('',*,*,#125,.F.);
#90=ORIENTED_EDGE('',*,*,#126,.F.);
#91=ORIENTED_EDGE('',*,*,#125,.T.);
#92=ORIENTED_EDGE('',*,*,#127,.F.);
#93=ORIENTED_EDGE('',*,*,#126,.T.);
#94=ORIENTED_EDGE('',*,*,#128,.F.);
#95=ORIENTED_EDGE('',*,*,#127,.T.);
#96=ORIENTED_EDGE('',*,*,#129,.T.);
#97=ORIENTED_EDGE('',*,*,#128,.T.);
#98=ORIENTED_EDGE('',*,*,#130,.T.);
#99=ORIENTED_EDGE('',*,*,#131,.T.);
#100=ORIENTED_EDGE('',*,*,#129,.F.);
#101=ORIENTED_EDGE('',*,*,#131,.F.);
#102=ORIENTED_EDGE('',*,*,#130,.F.);
#103=ORIENTED_EDGE('',*,*,#124,.F.);
#104=ORIENTED_EDGE('',*,*,#132,.F.);
#105=ORIENTED_EDGE('',*,*,#133,.T.);
#106=ORIENTED_EDGE('',*,*,#134,.F.);
#107=ORIENTED_EDGE('',*,*,#132,.T.);
#108=ORIENTED_EDGE('',*,*,#135,.F.);
#109=ORIENTED_EDGE('',*,*,#134,.T.);
#110=ORIENTED_EDGE('',*,*,#133,.F.);
#111=ORIENTED_EDGE('',*,*,#135,.T.);
#112=EDGE_CURVE('',#136,#136,#175,.T.);
#113=EDGE_CURVE('',#137,#137,#176,.T.);
#114=EDGE_CURVE('',#138,#138,#177,.T.);
#115=EDGE_CURVE('',#139,#139,#178,.T.);
#116=EDGE_CURVE('',#140,#140,#179,.F.);
#117=EDGE_CURVE('',#141,#141,#180,.T.);
#118=EDGE_CURVE('',#142,#142,#181,.F.);
#119=EDGE_CURVE('',#143,#143,#182,.T.);
#120=EDGE_CURVE('',#144,#144,#183,.T.);
#121=EDGE_CURVE('',#145,#145,#184,.T.);
#122=EDGE_CURVE('',#146,#146,#185,.T.);
#123=EDGE_CURVE('',#147,#147,#186,.T.);
#124=EDGE_CURVE('',#148,#148,#187,.T.);
#125=EDGE_CURVE('',#149,#149,#188,.T.);
#126=EDGE_CURVE('',#150,#150,#189,.T.);
#127=EDGE_CURVE('',#151,#151,#190,.T.);
#128=EDGE_CURVE('',#152,#152,#191,.T.);
#129=EDGE_CURVE('',#153,#153,#192,.T.);
#130=EDGE_CURVE('',#154,#154,#193,.F.);
#131=EDGE_CURVE('',#155,#155,#194,.F.);
#132=EDGE_CURVE('',#171,#171,#195,.T.);
#133=EDGE_CURVE('',#172,#172,#196,.T.);
#134=EDGE_CURVE('',#173,#173,#197,.T.);
#135=EDGE_CURVE('',#174,#174,#198,.T.);
#136=VERTEX_POINT('',#719);
#137=VERTEX_POINT('',#721);
#138=VERTEX_POINT('',#724);
#139=VERTEX_POINT('',#726);
#140=VERTEX_POINT('',#729);
#141=VERTEX_POINT('',#731);
#142=VERTEX_POINT('',#734);
#143=VERTEX_POINT('',#736);
#144=VERTEX_POINT('',#739);
#145=VERTEX_POINT('',#742);
#146=VERTEX_POINT('',#748);
#147=VERTEX_POINT('',#750);
#148=VERTEX_POINT('',#755);
#149=VERTEX_POINT('',#757);
#150=VERTEX_POINT('',#760);
#151=VERTEX_POINT('',#763);
#152=VERTEX_POINT('',#766);
#153=VERTEX_POINT('',#769);
#154=VERTEX_POINT('',#772);
#155=VERTEX_POINT('',#774);
#156=VERTEX_POINT('',#778);
#157=VERTEX_POINT('',#780);
#158=VERTEX_POINT('',#782);
#159=VERTEX_POINT('',#784);
#160=VERTEX_POINT('',#786);
#161=VERTEX_POINT('',#788);
#162=VERTEX_POINT('',#790);
#163=VERTEX_POINT('',#792);
#164=VERTEX_POINT('',#794);
#165=VERTEX_POINT('',#796);
#166=VERTEX_POINT('',#798);
#167=VERTEX_POINT('',#800);
#168=VERTEX_POINT('',#802);
#169=VERTEX_POINT('',#804);
#170=VERTEX_POINT('',#806);
#171=VERTEX_POINT('',#809);
#172=VERTEX_POINT('',#811);
#173=VERTEX_POINT('',#814);
#174=VERTEX_POINT('',#817);
#175=CIRCLE('',#526,16.);
#176=CIRCLE('',#527,16.);
#177=CIRCLE('',#529,16.);
#178=CIRCLE('',#530,16.);
#179=CIRCLE('',#532,15.7);
#180=CIRCLE('',#533,14.);
#181=CIRCLE('',#535,15.7);
#182=CIRCLE('',#536,14.);
#183=CIRCLE('',#538,14.);
#184=CIRCLE('',#540,14.);
#185=CIRCLE('',#545,15.35);
#186=CIRCLE('',#546,15.35);
#187=CIRCLE('',#550,10.3);
#188=CIRCLE('',#551,12.);
#189=CIRCLE('',#553,12.);
#190=CIRCLE('',#555,12.);
#191=CIRCLE('',#557,12.);
#192=CIRCLE('',#559,10.3);
#193=CIRCLE('',#561,10.);
#194=CIRCLE('',#562,10.);
#195=CIRCLE('',#581,17.4);
#196=CIRCLE('',#582,17.4);
#197=CIRCLE('',#584,15.351);
#198=CIRCLE('',#586,15.351);
#199=EDGE_LOOP('',(#64));
#200=EDGE_LOOP('',(#65));
#201=EDGE_LOOP('',(#66));
#202=EDGE_LOOP('',(#67));
#203=EDGE_LOOP('',(#68));
#204=EDGE_LOOP('',(#69));
#205=EDGE_LOOP('',(#70));
#206=EDGE_LOOP('',(#71));
#207=EDGE_LOOP('',(#72));
#208=EDGE_LOOP('',(#73));
#209=EDGE_LOOP('',(#74));
#210=EDGE_LOOP('',(#75));
#211=EDGE_LOOP('',(#76));
#212=EDGE_LOOP('',(#77));
#213=EDGE_LOOP('',(#78));
#214=EDGE_LOOP('',(#79));
#215=EDGE_LOOP('',(#80));
#216=EDGE_LOOP('',(#81));
#217=EDGE_LOOP('',(#82));
#218=EDGE_LOOP('',(#83));
#219=EDGE_LOOP('',(#84));
#220=EDGE_LOOP('',(#85));
#221=EDGE_LOOP('',(#86));
#222=EDGE_LOOP('',(#87));
#223=EDGE_LOOP('',(#88));
#224=EDGE_LOOP('',(#89));
#225=EDGE_LOOP('',(#90));
#226=EDGE_LOOP('',(#91));
#227=EDGE_LOOP('',(#92));
#228=EDGE_LOOP('',(#93));
#229=EDGE_LOOP('',(#94));
#230=EDGE_LOOP('',(#95));
#231=EDGE_LOOP('',(#96));
#232=EDGE_LOOP('',(#97));
#233=EDGE_LOOP('',(#98));
#234=EDGE_LOOP('',(#99));
#235=EDGE_LOOP('',(#100));
#236=EDGE_LOOP('',(#101));
#237=EDGE_LOOP('',(#102));
#238=EDGE_LOOP('',(#103));
#239=EDGE_LOOP('',(#104));
#240=EDGE_LOOP('',(#105));
#241=EDGE_LOOP('',(#106));
#242=EDGE_LOOP('',(#107));
#243=EDGE_LOOP('',(#108));
#244=EDGE_LOOP('',(#109));
#245=EDGE_LOOP('',(#110));
#246=EDGE_LOOP('',(#111));
#247=FACE_BOUND('',#199,.T.);
#248=FACE_BOUND('',#200,.T.);
#249=FACE_BOUND('',#201,.T.);
#250=FACE_BOUND('',#202,.T.);
#251=FACE_BOUND('',#203,.T.);
#252=FACE_BOUND('',#204,.T.);
#253=FACE_BOUND('',#205,.T.);
#254=FACE_BOUND('',#206,.T.);
#255=FACE_BOUND('',#207,.T.);
#256=FACE_BOUND('',#208,.T.);
#257=FACE_BOUND('',#209,.T.);
#258=FACE_BOUND('',#210,.T.);
#259=FACE_BOUND('',#211,.T.);
#260=FACE_BOUND('',#212,.T.);
#261=FACE_BOUND('',#213,.T.);
#262=FACE_BOUND('',#214,.T.);
#263=FACE_BOUND('',#215,.T.);
#264=FACE_BOUND('',#216,.T.);
#265=FACE_BOUND('',#217,.T.);
#266=FACE_BOUND('',#218,.T.);
#267=FACE_BOUND('',#219,.T.);
#268=FACE_BOUND('',#220,.T.);
#269=FACE_BOUND('',#221,.T.);
#270=FACE_BOUND('',#222,.T.);
#271=FACE_BOUND('',#223,.T.);
#272=FACE_BOUND('',#224,.T.);
#273=FACE_BOUND('',#225,.T.);
#274=FACE_BOUND('',#226,.T.);
#275=FACE_BOUND('',#227,.T.);
#276=FACE_BOUND('',#228,.T.);
#277=FACE_BOUND('',#229,.T.);
#278=FACE_BOUND('',#230,.T.);
#279=FACE_BOUND('',#231,.T.);
#280=FACE_BOUND('',#232,.T.);
#281=FACE_BOUND('',#233,.T.);
#282=FACE_BOUND('',#234,.T.);
#283=FACE_BOUND('',#235,.T.);
#284=FACE_BOUND('',#236,.T.);
#285=FACE_BOUND('',#237,.T.);
#286=FACE_BOUND('',#238,.T.);
#287=FACE_BOUND('',#18,.T.);
#288=FACE_BOUND('',#19,.T.);
#289=FACE_BOUND('',#20,.T.);
#290=FACE_BOUND('',#21,.T.);
#291=FACE_BOUND('',#22,.T.);
#292=FACE_BOUND('',#23,.T.);
#293=FACE_BOUND('',#24,.T.);
#294=FACE_BOUND('',#25,.T.);
#295=FACE_BOUND('',#26,.T.);
#296=FACE_BOUND('',#27,.T.);
#297=FACE_BOUND('',#28,.T.);
#298=FACE_BOUND('',#29,.T.);
#299=FACE_BOUND('',#30,.T.);
#300=FACE_BOUND('',#31,.T.);
#301=FACE_BOUND('',#32,.T.);
#302=FACE_BOUND('',#239,.T.);
#303=FACE_BOUND('',#240,.T.);
#304=FACE_BOUND('',#241,.T.);
#305=FACE_BOUND('',#242,.T.);
#306=FACE_BOUND('',#243,.T.);
#307=FACE_BOUND('',#244,.T.);
#308=FACE_BOUND('',#245,.T.);
#309=FACE_BOUND('',#246,.T.);
#310=CYLINDRICAL_SURFACE('',#525,16.);
#311=CYLINDRICAL_SURFACE('',#528,16.);
#312=CYLINDRICAL_SURFACE('',#537,14.);
#313=CYLINDRICAL_SURFACE('',#541,14.);
#314=CYLINDRICAL_SURFACE('',#544,15.35);
#315=CYLINDRICAL_SURFACE('',#552,12.);
#316=CYLINDRICAL_SURFACE('',#556,12.);
#317=CYLINDRICAL_SURFACE('',#560,10.);
#318=CYLINDRICAL_SURFACE('',#580,17.4);
#319=CYLINDRICAL_SURFACE('',#585,15.351);
#320=ADVANCED_FACE('',(#247,#248),#310,.T.);
#321=ADVANCED_FACE('',(#249,#250),#311,.T.);
#322=ADVANCED_FACE('',(#251,#252),#56,.F.);
#323=ADVANCED_FACE('',(#253,#254),#57,.F.);
#324=ADVANCED_FACE('',(#255,#256),#312,.F.);
#325=ADVANCED_FACE('',(#257,#258),#50,.F.);
#326=ADVANCED_FACE('',(#259,#260),#313,.F.);
#327=ADVANCED_FACE('',(#261,#262),#51,.T.);
#328=ADVANCED_FACE('',(#263,#264),#52,.T.);
#329=ADVANCED_FACE('',(#265,#266),#314,.T.);
#330=ADVANCED_FACE('',(#267,#268),#58,.T.);
#331=ADVANCED_FACE('',(#269,#270),#59,.T.);
#332=ADVANCED_FACE('',(#271,#272),#60,.F.);
#333=ADVANCED_FACE('',(#273,#274),#315,.T.);
#334=ADVANCED_FACE('',(#275,#276),#53,.F.);
#335=ADVANCED_FACE('',(#277,#278),#316,.T.);
#336=ADVANCED_FACE('',(#279,#280),#61,.F.);
#337=ADVANCED_FACE('',(#281,#282),#317,.F.);
#338=ADVANCED_FACE('',(#283,#284),#54,.T.);
#339=ADVANCED_FACE('',(#285,#286),#55,.T.);
#340=ADVANCED_FACE('',(#287),#33,.T.);
#341=ADVANCED_FACE('',(#288),#34,.T.);
#342=ADVANCED_FACE('',(#289),#35,.T.);
#343=ADVANCED_FACE('',(#290),#36,.T.);
#344=ADVANCED_FACE('',(#291),#37,.T.);
#345=ADVANCED_FACE('',(#292),#38,.T.);
#346=ADVANCED_FACE('',(#293),#39,.T.);
#347=ADVANCED_FACE('',(#294),#40,.T.);
#348=ADVANCED_FACE('',(#295),#41,.T.);
#349=ADVANCED_FACE('',(#296),#42,.T.);
#350=ADVANCED_FACE('',(#297),#43,.T.);
#351=ADVANCED_FACE('',(#298),#44,.T.);
#352=ADVANCED_FACE('',(#299),#45,.T.);
#353=ADVANCED_FACE('',(#300),#46,.T.);
#354=ADVANCED_FACE('',(#301),#47,.T.);
#355=ADVANCED_FACE('',(#302,#303),#318,.T.);
#356=ADVANCED_FACE('',(#304,#305),#62,.F.);
#357=ADVANCED_FACE('',(#306,#307),#319,.F.);
#358=ADVANCED_FACE('',(#308,#309),#63,.F.);
#359=CLOSED_SHELL('',(#320,#321,#322,#323,#324,#325,#326,#327,#328,#329,
#330,#331));
#360=CLOSED_SHELL('',(#332,#333,#334,#335,#336,#337,#338,#339));
#361=CLOSED_SHELL('',(#340));
#362=CLOSED_SHELL('',(#341));
#363=CLOSED_SHELL('',(#342));
#364=CLOSED_SHELL('',(#343));
#365=CLOSED_SHELL('',(#344));
#366=CLOSED_SHELL('',(#345));
#367=CLOSED_SHELL('',(#346));
#368=CLOSED_SHELL('',(#347));
#369=CLOSED_SHELL('',(#348));
#370=CLOSED_SHELL('',(#349));
#371=CLOSED_SHELL('',(#350));
#372=CLOSED_SHELL('',(#351));
#373=CLOSED_SHELL('',(#352));
#374=CLOSED_SHELL('',(#353));
#375=CLOSED_SHELL('',(#354));
#376=CLOSED_SHELL('',(#355,#356,#357,#358));
#377=STYLED_ITEM('',(#395),#504);
#378=STYLED_ITEM('',(#396),#505);
#379=STYLED_ITEM('',(#397),#506);
#380=STYLED_ITEM('',(#398),#507);
#381=STYLED_ITEM('',(#399),#508);
#382=STYLED_ITEM('',(#400),#509);
#383=STYLED_ITEM('',(#401),#510);
#384=STYLED_ITEM('',(#402),#511);
#385=STYLED_ITEM('',(#403),#512);
#386=STYLED_ITEM('',(#404),#513);
#387=STYLED_ITEM('',(#405),#514);
#388=STYLED_ITEM('',(#406),#515);
#389=STYLED_ITEM('',(#407),#516);
#390=STYLED_ITEM('',(#408),#517);
#391=STYLED_ITEM('',(#409),#518);
#392=STYLED_ITEM('',(#410),#519);
#393=STYLED_ITEM('',(#411),#520);
#394=STYLED_ITEM('',(#412),#521);
#395=PRESENTATION_STYLE_ASSIGNMENT((#413));
#396=PRESENTATION_STYLE_ASSIGNMENT((#414));
#397=PRESENTATION_STYLE_ASSIGNMENT((#415));
#398=PRESENTATION_STYLE_ASSIGNMENT((#416));
#399=PRESENTATION_STYLE_ASSIGNMENT((#417));
#400=PRESENTATION_STYLE_ASSIGNMENT((#418));
#401=PRESENTATION_STYLE_ASSIGNMENT((#419));
#402=PRESENTATION_STYLE_ASSIGNMENT((#420));
#403=PRESENTATION_STYLE_ASSIGNMENT((#421));
#404=PRESENTATION_STYLE_ASSIGNMENT((#422));
#405=PRESENTATION_STYLE_ASSIGNMENT((#423));
#406=PRESENTATION_STYLE_ASSIGNMENT((#424));
#407=PRESENTATION_STYLE_ASSIGNMENT((#425));
#408=PRESENTATION_STYLE_ASSIGNMENT((#426));
#409=PRESENTATION_STYLE_ASSIGNMENT((#427));
#410=PRESENTATION_STYLE_ASSIGNMENT((#428));
#411=PRESENTATION_STYLE_ASSIGNMENT((#429));
#412=PRESENTATION_STYLE_ASSIGNMENT((#430));
#413=SURFACE_STYLE_USAGE(.BOTH.,#431);
#414=SURFACE_STYLE_USAGE(.BOTH.,#432);
#415=SURFACE_STYLE_USAGE(.BOTH.,#433);
#416=SURFACE_STYLE_USAGE(.BOTH.,#434);
#417=SURFACE_STYLE_USAGE(.BOTH.,#435);
#418=SURFACE_STYLE_USAGE(.BOTH.,#436);
#419=SURFACE_STYLE_USAGE(.BOTH.,#437);
#420=SURFACE_STYLE_USAGE(.BOTH.,#438);
#421=SURFACE_STYLE_USAGE(.BOTH.,#439);
#422=SURFACE_STYLE_USAGE(.BOTH.,#440);
#423=SURFACE_STYLE_USAGE(.BOTH.,#441);
#424=SURFACE_STYLE_USAGE(.BOTH.,#442);
#425=SURFACE_STYLE_USAGE(.BOTH.,#443);
#426=SURFACE_STYLE_USAGE(.BOTH.,#444);
#427=SURFACE_STYLE_USAGE(.BOTH.,#445);
#428=SURFACE_STYLE_USAGE(.BOTH.,#446);
#429=SURFACE_STYLE_USAGE(.BOTH.,#447);
#430=SURFACE_STYLE_USAGE(.BOTH.,#448);
#431=SURFACE_SIDE_STYLE('',(#449));
#432=SURFACE_SIDE_STYLE('',(#450));
#433=SURFACE_SIDE_STYLE('',(#451));
#434=SURFACE_SIDE_STYLE('',(#452));
#435=SURFACE_SIDE_STYLE('',(#453));
#436=SURFACE_SIDE_STYLE('',(#454));
#437=SURFACE_SIDE_STYLE('',(#455));
#438=SURFACE_SIDE_STYLE('',(#456));
#439=SURFACE_SIDE_STYLE('',(#457));
#440=SURFACE_SIDE_STYLE('',(#458));
#441=SURFACE_SIDE_STYLE('',(#459));
#442=SURFACE_SIDE_STYLE('',(#460));
#443=SURFACE_SIDE_STYLE('',(#461));
#444=SURFACE_SIDE_STYLE('',(#462));
#445=SURFACE_SIDE_STYLE('',(#463));
#446=SURFACE_SIDE_STYLE('',(#464));
#447=SURFACE_SIDE_STYLE('',(#465));
#448=SURFACE_SIDE_STYLE('',(#466));
#449=SURFACE_STYLE_FILL_AREA(#467);
#450=SURFACE_STYLE_FILL_AREA(#468);
#451=SURFACE_STYLE_FILL_AREA(#469);
#452=SURFACE_STYLE_FILL_AREA(#470);
#453=SURFACE_STYLE_FILL_AREA(#471);
#454=SURFACE_STYLE_FILL_AREA(#472);
#455=SURFACE_STYLE_FILL_AREA(#473);
#456=SURFACE_STYLE_FILL_AREA(#474);
#457=SURFACE_STYLE_FILL_AREA(#475);
#458=SURFACE_STYLE_FILL_AREA(#476);
#459=SURFACE_STYLE_FILL_AREA(#477);
#460=SURFACE_STYLE_FILL_AREA(#478);
#461=SURFACE_STYLE_FILL_AREA(#479);
#462=SURFACE_STYLE_FILL_AREA(#480);
#463=SURFACE_STYLE_FILL_AREA(#481);
#464=SURFACE_STYLE_FILL_AREA(#482);
#465=SURFACE_STYLE_FILL_AREA(#483);
#466=SURFACE_STYLE_FILL_AREA(#484);
#467=FILL_AREA_STYLE('',(#485));
#468=FILL_AREA_STYLE('',(#486));
#469=FILL_AREA_STYLE('',(#487));
#470=FILL_AREA_STYLE('',(#488));
#471=FILL_AREA_STYLE('',(#489));
#472=FILL_AREA_STYLE('',(#490));
#473=FILL_AREA_STYLE('',(#491));
#474=FILL_AREA_STYLE('',(#492));
#475=FILL_AREA_STYLE('',(#493));
#476=FILL_AREA_STYLE('',(#494));
#477=FILL_AREA_STYLE('',(#495));
#478=FILL_AREA_STYLE('',(#496));
#479=FILL_AREA_STYLE('',(#497));
#480=FILL_AREA_STYLE('',(#498));
#481=FILL_AREA_STYLE('',(#499));
#482=FILL_AREA_STYLE('',(#500));
#483=FILL_AREA_STYLE('',(#501));
#484=FILL_AREA_STYLE('',(#502));
#485=FILL_AREA_STYLE_COLOUR('',#503);
#486=FILL_AREA_STYLE_COLOUR('',#503);
#487=FILL_AREA_STYLE_COLOUR('',#503);
#488=FILL_AREA_STYLE_COLOUR('',#503);
#489=FILL_AREA_STYLE_COLOUR('',#503);
#490=FILL_AREA_STYLE_COLOUR('',#503);
#491=FILL_AREA_STYLE_COLOUR('',#503);
#492=FILL_AREA_STYLE_COLOUR('',#503);
#493=FILL_AREA_STYLE_COLOUR('',#503);
#494=FILL_AREA_STYLE_COLOUR('',#503);
#495=FILL_AREA_STYLE_COLOUR('',#503);
#496=FILL_AREA_STYLE_COLOUR('',#503);
#497=FILL_AREA_STYLE_COLOUR('',#503);
#498=FILL_AREA_STYLE_COLOUR('',#503);
#499=FILL_AREA_STYLE_COLOUR('',#503);
#500=FILL_AREA_STYLE_COLOUR('',#503);
#501=FILL_AREA_STYLE_COLOUR('',#503);
#502=FILL_AREA_STYLE_COLOUR('',#503);
#503=COLOUR_RGB('',0.506983280181885,0.531564235687256,0.550000011920929);
#504=MANIFOLD_SOLID_BREP('',#359);
#505=MANIFOLD_SOLID_BREP('',#360);
#506=MANIFOLD_SOLID_BREP('',#361);
#507=MANIFOLD_SOLID_BREP('',#362);
#508=MANIFOLD_SOLID_BREP('',#363);
#509=MANIFOLD_SOLID_BREP('',#364);
#510=MANIFOLD_SOLID_BREP('',#365);
#511=MANIFOLD_SOLID_BREP('',#366);
#512=MANIFOLD_SOLID_BREP('',#367);
#513=MANIFOLD_SOLID_BREP('',#368);
#514=MANIFOLD_SOLID_BREP('',#369);
#515=MANIFOLD_SOLID_BREP('',#370);
#516=MANIFOLD_SOLID_BREP('',#371);
#517=MANIFOLD_SOLID_BREP('',#372);
#518=MANIFOLD_SOLID_BREP('',#373);
#519=MANIFOLD_SOLID_BREP('',#374);
#520=MANIFOLD_SOLID_BREP('',#375);
#521=MANIFOLD_SOLID_BREP('',#376);
#522=SHAPE_DEFINITION_REPRESENTATION(#825,#523);
#523=SHAPE_REPRESENTATION(
'\X2\5916570867096B6252A869FD76846DF16C9F74038F74627F\X0\60000N\X2\578B\X0\',
(#524),#820);
#524=AXIS2_PLACEMENT_3D('',#716,#588,#589);
#525=AXIS2_PLACEMENT_3D('',#717,#590,#591);
#526=AXIS2_PLACEMENT_3D('',#718,#592,#593);
#527=AXIS2_PLACEMENT_3D('',#720,#594,#595);
#528=AXIS2_PLACEMENT_3D('',#722,#596,#597);
#529=AXIS2_PLACEMENT_3D('',#723,#598,#599);
#530=AXIS2_PLACEMENT_3D('',#725,#600,#601);
#531=AXIS2_PLACEMENT_3D('',#727,#602,#603);
#532=AXIS2_PLACEMENT_3D('',#728,#604,#605);
#533=AXIS2_PLACEMENT_3D('',#730,#606,#607);
#534=AXIS2_PLACEMENT_3D('',#732,#608,#609);
#535=AXIS2_PLACEMENT_3D('',#733,#610,#611);
#536=AXIS2_PLACEMENT_3D('',#735,#612,#613);
#537=AXIS2_PLACEMENT_3D('',#737,#614,#615);
#538=AXIS2_PLACEMENT_3D('',#738,#616,#617);
#539=AXIS2_PLACEMENT_3D('',#740,#618,#619);
#540=AXIS2_PLACEMENT_3D('',#741,#620,#621);
#541=AXIS2_PLACEMENT_3D('',#743,#622,#623);
#542=AXIS2_PLACEMENT_3D('',#744,#624,#625);
#543=AXIS2_PLACEMENT_3D('',#745,#626,#627);
#544=AXIS2_PLACEMENT_3D('',#746,#628,#629);
#545=AXIS2_PLACEMENT_3D('',#747,#630,#631);
#546=AXIS2_PLACEMENT_3D('',#749,#632,#633);
#547=AXIS2_PLACEMENT_3D('',#751,#634,#635);
#548=AXIS2_PLACEMENT_3D('',#752,#636,#637);
#549=AXIS2_PLACEMENT_3D('',#753,#638,#639);
#550=AXIS2_PLACEMENT_3D('',#754,#640,#641);
#551=AXIS2_PLACEMENT_3D('',#756,#642,#643);
#552=AXIS2_PLACEMENT_3D('',#758,#644,#645);
#553=AXIS2_PLACEMENT_3D('',#759,#646,#647);
#554=AXIS2_PLACEMENT_3D('',#761,#648,#649);
#555=AXIS2_PLACEMENT_3D('',#762,#650,#651);
#556=AXIS2_PLACEMENT_3D('',#764,#652,#653);
#557=AXIS2_PLACEMENT_3D('',#765,#654,#655);
#558=AXIS2_PLACEMENT_3D('',#767,#656,#657);
#559=AXIS2_PLACEMENT_3D('',#768,#658,#659);
#560=AXIS2_PLACEMENT_3D('',#770,#660,#661);
#561=AXIS2_PLACEMENT_3D('',#771,#662,#663);
#562=AXIS2_PLACEMENT_3D('',#773,#664,#665);
#563=AXIS2_PLACEMENT_3D('',#775,#666,#667);
#564=AXIS2_PLACEMENT_3D('',#776,#668,#669);
#565=AXIS2_PLACEMENT_3D('',#777,#670,#671);
#566=AXIS2_PLACEMENT_3D('',#779,#672,#673);
#567=AXIS2_PLACEMENT_3D('',#781,#674,#675);
#568=AXIS2_PLACEMENT_3D('',#783,#676,#677);
#569=AXIS2_PLACEMENT_3D('',#785,#678,#679);
#570=AXIS2_PLACEMENT_3D('',#787,#680,#681);
#571=AXIS2_PLACEMENT_3D('',#789,#682,#683);
#572=AXIS2_PLACEMENT_3D('',#791,#684,#685);
#573=AXIS2_PLACEMENT_3D('',#793,#686,#687);
#574=AXIS2_PLACEMENT_3D('',#795,#688,#689);
#575=AXIS2_PLACEMENT_3D('',#797,#690,#691);
#576=AXIS2_PLACEMENT_3D('',#799,#692,#693);
#577=AXIS2_PLACEMENT_3D('',#801,#694,#695);
#578=AXIS2_PLACEMENT_3D('',#803,#696,#697);
#579=AXIS2_PLACEMENT_3D('',#805,#698,#699);
#580=AXIS2_PLACEMENT_3D('',#807,#700,#701);
#581=AXIS2_PLACEMENT_3D('',#808,#702,#703);
#582=AXIS2_PLACEMENT_3D('',#810,#704,#705);
#583=AXIS2_PLACEMENT_3D('',#812,#706,#707);
#584=AXIS2_PLACEMENT_3D('',#813,#708,#709);
#585=AXIS2_PLACEMENT_3D('',#815,#710,#711);
#586=AXIS2_PLACEMENT_3D('',#816,#712,#713);
#587=AXIS2_PLACEMENT_3D('',#818,#714,#715);
#588=DIRECTION('',(0.,0.,1.));
#589=DIRECTION('',(1.,0.,0.));
#590=DIRECTION('',(-6.12303176911189E-17,-1.,0.));
#591=DIRECTION('',(1.,-6.12303176911189E-17,0.));
#592=DIRECTION('',(-6.12303176911189E-17,-1.,0.));
#593=DIRECTION('',(1.,-6.12303176911189E-17,0.));
#594=DIRECTION('',(-6.12303176911189E-17,-1.,0.));
#595=DIRECTION('',(1.,-6.12303176911189E-17,0.));
#596=DIRECTION('',(-6.12303176911189E-17,-1.,0.));
#597=DIRECTION('',(1.,-6.12303176911189E-17,0.));
#598=DIRECTION('',(6.12303176911189E-17,1.,0.));
#599=DIRECTION('',(-1.,6.12303176911189E-17,0.));
#600=DIRECTION('',(-6.12303176911189E-17,-1.,0.));
#601=DIRECTION('',(1.,-6.12303176911189E-17,0.));
#602=DIRECTION('',(-6.12303176911189E-17,-1.,0.));
#603=DIRECTION('',(1.,-6.12303176911189E-17,0.));
#604=DIRECTION('',(-6.12303176911189E-17,-1.,0.));
#605=DIRECTION('',(1.,-6.12303176911189E-17,0.));
#606=DIRECTION('',(-6.12303176911189E-17,-1.,0.));
#607=DIRECTION('',(1.,-6.12303176911189E-17,0.));
#608=DIRECTION('',(6.12303176911189E-17,1.,0.));
#609=DIRECTION('',(-1.,6.12303176911189E-17,0.));
#610=DIRECTION('',(6.12303176911189E-17,1.,0.));
#611=DIRECTION('',(-1.,6.12303176911189E-17,0.));
#612=DIRECTION('',(-6.12303176911189E-17,-1.,0.));
#613=DIRECTION('',(1.,-6.12303176911189E-17,0.));
#614=DIRECTION('',(-6.12303176911189E-17,-1.,0.));
#615=DIRECTION('',(1.,-6.12303176911189E-17,0.));
#616=DIRECTION('',(-6.12303176911189E-17,-1.,0.));
#617=DIRECTION('',(1.,-6.12303176911189E-17,0.));
#618=DIRECTION('',(-6.12303176911189E-17,-1.,0.));
#619=DIRECTION('',(1.,-6.12303176911189E-17,0.));
#620=DIRECTION('',(-6.12303176911189E-17,-1.,0.));
#621=DIRECTION('',(1.,-6.12303176911189E-17,0.));
#622=DIRECTION('',(-6.12303176911189E-17,-1.,0.));
#623=DIRECTION('',(1.,-6.12303176911189E-17,0.));
#624=DIRECTION('',(-6.12303176911189E-17,-1.,0.));
#625=DIRECTION('',(1.,-6.12303176911189E-17,0.));
#626=DIRECTION('',(6.12303176911189E-17,1.,0.));
#627=DIRECTION('',(-1.,6.12303176911189E-17,0.));
#628=DIRECTION('',(-6.12303176911189E-17,-1.,0.));
#629=DIRECTION('',(1.,-6.12303176911189E-17,0.));
#630=DIRECTION('',(-6.12303176911189E-17,-1.,0.));
#631=DIRECTION('',(1.,-6.12303176911189E-17,0.));
#632=DIRECTION('',(-6.12303176911189E-17,-1.,0.));
#633=DIRECTION('',(1.,-6.12303176911189E-17,0.));
#634=DIRECTION('',(-6.12303176911189E-17,-1.,0.));
#635=DIRECTION('',(1.,-6.12303176911189E-17,0.));
#636=DIRECTION('',(6.12303176911189E-17,1.,0.));
#637=DIRECTION('',(-1.,6.12303176911189E-17,0.));
#638=DIRECTION('',(-6.12303176911189E-17,-1.,0.));
#639=DIRECTION('',(1.,-6.12303176911189E-17,0.));
#640=DIRECTION('',(-6.12303176911189E-17,-1.,0.));
#641=DIRECTION('',(1.,-6.12303176911189E-17,0.));
#642=DIRECTION('',(-6.12303176911189E-17,-1.,0.));
#643=DIRECTION('',(1.,-6.12303176911189E-17,0.));
#644=DIRECTION('',(-6.12303176911189E-17,-1.,0.));
#645=DIRECTION('',(1.,-6.12303176911189E-17,0.));
#646=DIRECTION('',(-6.12303176911189E-17,-1.,0.));
#647=DIRECTION('',(1.,-6.12303176911189E-17,0.));
#648=DIRECTION('',(-6.12303176911189E-17,-1.,0.));
#649=DIRECTION('',(1.,-6.12303176911189E-17,0.));
#650=DIRECTION('',(-6.12303176911189E-17,-1.,0.));
#651=DIRECTION('',(1.,-6.12303176911189E-17,0.));
#652=DIRECTION('',(-6.12303176911189E-17,-1.,0.));
#653=DIRECTION('',(1.,-6.12303176911189E-17,0.));
#654=DIRECTION('',(-6.12303176911189E-17,-1.,0.));
#655=DIRECTION('',(1.,-6.12303176911189E-17,0.));
#656=DIRECTION('',(6.12303176911189E-17,1.,0.));
#657=DIRECTION('',(-1.,6.12303176911189E-17,0.));
#658=DIRECTION('',(6.12303176911189E-17,1.,0.));
#659=DIRECTION('',(-1.,6.12303176911189E-17,0.));
#660=DIRECTION('',(-6.12303176911189E-17,-1.,0.));
#661=DIRECTION('',(1.,-6.12303176911189E-17,0.));
#662=DIRECTION('',(-6.12303176911189E-17,-1.,0.));
#663=DIRECTION('',(1.,-6.12303176911189E-17,0.));
#664=DIRECTION('',(6.12303176911189E-17,1.,0.));
#665=DIRECTION('',(-1.,6.12303176911189E-17,0.));
#666=DIRECTION('',(6.12303176911189E-17,1.,0.));
#667=DIRECTION('',(-1.,6.12303176911189E-17,0.));
#668=DIRECTION('',(-6.12303176911189E-17,-1.,0.));
#669=DIRECTION('',(1.,-6.12303176911189E-17,0.));
#670=DIRECTION('',(-7.49855125712043E-33,-1.22464679914735E-16,1.));
#671=DIRECTION('',(-6.12303176911189E-17,-1.,-1.22464679914735E-16));
#672=DIRECTION('',(0.4067366430758,-1.47369293786886E-16,0.913545457642601));
#673=DIRECTION('',(-1.11041190494991E-16,-1.,-1.11877052057761E-16));
#674=DIRECTION('',(0.951056516295154,-1.80698172549696E-16,0.309016994374947));
#675=DIRECTION('',(-1.77701149540028E-16,-1.,-3.78436673043415E-17));
#676=DIRECTION('',(0.994521895368273,-1.83359571518908E-16,-0.104528463267653));
#677=DIRECTION('',(-1.8302412327559E-16,-1.,1.28010447960523E-17));
#678=DIRECTION('',(0.866025403784439,-1.75491690517036E-16,-0.5));
#679=DIRECTION('',(-1.6728784156361E-16,-1.,6.12323399573676E-17));
#680=DIRECTION('',(0.20791169081776,-1.35195178795204E-16,-0.978147600733806));
#681=DIRECTION('',(-8.66921563576472E-17,-1.,1.19788532833232E-16));
#682=DIRECTION('',(-0.207911690817758,-1.09734181034266E-16,-0.978147600733806));
#683=DIRECTION('',(-3.57684790245907E-17,-1.,1.19788532833232E-16));
#684=DIRECTION('',(-0.587785252292473,-8.64744021827127E-17,-0.809016994374948));
#685=DIRECTION('',(1.07526150894808E-17,-1.,9.90760072617092E-17));
#686=DIRECTION('',(-0.994521895368273,-6.15697883105622E-17,-0.104528463267654));
#687=DIRECTION('',(6.05634878933526E-17,-1.,1.28010447960524E-17));
#688=DIRECTION('',(-0.951056516295154,-6.42311872797743E-17,0.309016994374947));
#689=DIRECTION('',(5.52405141577904E-17,-1.,-3.78436673043415E-17));
#690=DIRECTION('',(-0.743144825477394,-7.69616861602434E-17,0.669130606358858));
#691=DIRECTION('',(2.9778675491262E-17,-1.,-8.19448655288903E-17));
#692=DIRECTION('',(0.743144825477394,-1.67967673669227E-16,0.669130606358858));
#693=DIRECTION('',(-1.522393108735E-16,-1.,-8.19448655288903E-17));
#694=DIRECTION('',(0.587785252292473,-1.58454957646758E-16,-0.809016994374947));
#695=DIRECTION('',(-1.33213250471719E-16,-1.,9.90760072617091E-17));
#696=DIRECTION('',(-0.866025403784438,-6.94376693124346E-17,-0.500000000000001));
#697=DIRECTION('',(4.48272061813718E-17,-1.,6.12323399573677E-17));
#698=DIRECTION('',(-0.4067366430758,-9.75600660425848E-17,0.913545457642601));
#699=DIRECTION('',(-1.14194448872471E-17,-1.,-1.11877052057761E-16));
#700=DIRECTION('',(-6.12303176911189E-17,-1.,0.));
#701=DIRECTION('',(1.,-6.12303176911189E-17,0.));
#702=DIRECTION('',(-6.12303176911189E-17,-1.,0.));
#703=DIRECTION('',(1.,-6.12303176911189E-17,0.));
#704=DIRECTION('',(-6.12303176911189E-17,-1.,0.));
#705=DIRECTION('',(1.,-6.12303176911189E-17,0.));
#706=DIRECTION('',(6.12303176911189E-17,1.,0.));
#707=DIRECTION('',(-1.,6.12303176911189E-17,0.));
#708=DIRECTION('',(-6.12303176911189E-17,-1.,0.));
#709=DIRECTION('',(1.,-6.12303176911189E-17,0.));
#710=DIRECTION('',(-6.12303176911189E-17,-1.,0.));
#711=DIRECTION('',(1.,-6.12303176911189E-17,0.));
#712=DIRECTION('',(-6.12303176911189E-17,-1.,0.));
#713=DIRECTION('',(1.,-6.12303176911189E-17,0.));
#714=DIRECTION('',(-6.12303176911189E-17,-1.,0.));
#715=DIRECTION('',(1.,-6.12303176911189E-17,0.));
#716=CARTESIAN_POINT('',(0.,0.,0.));
#717=CARTESIAN_POINT('',(0.,0.,0.));
#718=CARTESIAN_POINT('',(1.9593701661158E-16,3.2,0.));
#719=CARTESIAN_POINT('',(16.,3.2,0.));
#720=CARTESIAN_POINT('',(-7.65378971138987E-17,-1.25,0.));
#721=CARTESIAN_POINT('',(16.,-1.25,0.));
#722=CARTESIAN_POINT('',(0.,0.,0.));
#723=CARTESIAN_POINT('',(-1.9593701661158E-16,-3.2,0.));
#724=CARTESIAN_POINT('',(-16.,-3.2,0.));
#725=CARTESIAN_POINT('',(-1.34706698920461E-16,-2.2,0.));
#726=CARTESIAN_POINT('',(16.,-2.2,0.));
#727=CARTESIAN_POINT('',(2.14306111918916E-16,3.5,14.));
#728=CARTESIAN_POINT('',(2.14306111918916E-16,3.5,0.));
#729=CARTESIAN_POINT('',(15.7,3.5,0.));
#730=CARTESIAN_POINT('',(2.14306111918916E-16,3.5,0.));
#731=CARTESIAN_POINT('',(14.,3.5,0.));
#732=CARTESIAN_POINT('',(-2.14306111918916E-16,-3.5,16.));
#733=CARTESIAN_POINT('',(-2.14306111918916E-16,-3.5,0.));
#734=CARTESIAN_POINT('',(-15.7,-3.5,0.));
#735=CARTESIAN_POINT('',(-2.14306111918916E-16,-3.5,0.));
#736=CARTESIAN_POINT('',(14.,-3.5,0.));
#737=CARTESIAN_POINT('',(0.,0.,0.));
#738=CARTESIAN_POINT('',(-8.16404235881585E-17,-1.33333333333333,0.));
#739=CARTESIAN_POINT('',(14.,-1.33333333333333,0.));
#740=CARTESIAN_POINT('',(-1.67467644742356E-32,-2.73504451809576E-16,0.));
#741=CARTESIAN_POINT('',(8.16404235881584E-17,1.33333333333333,0.));
#742=CARTESIAN_POINT('',(14.,1.33333333333333,0.));
#743=CARTESIAN_POINT('',(0.,0.,0.));
#744=CARTESIAN_POINT('',(1.9593701661158E-16,3.2,0.));
#745=CARTESIAN_POINT('',(-1.9593701661158E-16,-3.2,0.));
#746=CARTESIAN_POINT('',(0.,0.,0.));
#747=CARTESIAN_POINT('',(-7.65378971138987E-17,-1.25,0.));
#748=CARTESIAN_POINT('',(15.35,-1.25,0.));
#749=CARTESIAN_POINT('',(-1.34706698920462E-16,-2.20000000000001,0.));
#750=CARTESIAN_POINT('',(15.35,-2.20000000000001,0.));
#751=CARTESIAN_POINT('',(-7.65378971138987E-17,-1.25,15.35));
#752=CARTESIAN_POINT('',(-1.34706698920462E-16,-2.2,16.));
#753=CARTESIAN_POINT('',(2.14306111918916E-16,3.5,10.));
#754=CARTESIAN_POINT('',(2.14306111918916E-16,3.5,0.));
#755=CARTESIAN_POINT('',(10.3,3.5,0.));
#756=CARTESIAN_POINT('',(2.14306111918916E-16,3.5,0.));
#757=CARTESIAN_POINT('',(12.,3.5,0.));
#758=CARTESIAN_POINT('',(0.,0.,0.));
#759=CARTESIAN_POINT('',(8.16404235881584E-17,1.33333333333333,0.));
#760=CARTESIAN_POINT('',(12.,1.33333333333333,0.));
#761=CARTESIAN_POINT('',(-1.67467644742356E-32,-2.73504451809576E-16,0.));
#762=CARTESIAN_POINT('',(-8.16404235881585E-17,-1.33333333333333,0.));
#763=CARTESIAN_POINT('',(12.,-1.33333333333333,0.));
#764=CARTESIAN_POINT('',(0.,0.,0.));
#765=CARTESIAN_POINT('',(-2.14306111918916E-16,-3.5,0.));
#766=CARTESIAN_POINT('',(12.,-3.5,0.));
#767=CARTESIAN_POINT('',(-2.14306111918916E-16,-3.5,12.));
#768=CARTESIAN_POINT('',(-2.14306111918916E-16,-3.5,0.));
#769=CARTESIAN_POINT('',(-10.3,-3.5,0.));
#770=CARTESIAN_POINT('',(0.,0.,0.));
#771=CARTESIAN_POINT('',(1.9593701661158E-16,3.2,0.));
#772=CARTESIAN_POINT('',(10.,3.2,0.));
#773=CARTESIAN_POINT('',(-1.9593701661158E-16,-3.2,0.));
#774=CARTESIAN_POINT('',(-10.,-3.2,0.));
#775=CARTESIAN_POINT('',(-1.9593701661158E-16,-3.2,0.));
#776=CARTESIAN_POINT('',(1.9593701661158E-16,3.2,0.));
#777=CARTESIAN_POINT('',(-1.67467644742356E-32,-2.73504451809576E-16,13.));
#778=CARTESIAN_POINT('',(-1.05017210355972E-32,-1.71511784220587E-16,11.3343333333333));
#779=CARTESIAN_POINT('',(5.2875763599854,-5.97264432147532E-16,11.8760909493538));
#780=CARTESIAN_POINT('',(4.61008869150214,-4.53788979385498E-16,10.3544287320738));
#781=CARTESIAN_POINT('',(12.363734711837,-1.03053985606407E-15,4.01722092687431));
#782=CARTESIAN_POINT('',(10.779591574528,-8.31549600909447E-16,3.50250161991044));
#783=CARTESIAN_POINT('',(12.9287846397876,-1.06513804266383E-15,-1.35887002247949));
#784=CARTESIAN_POINT('',(11.2722426694025,-8.61714783959486E-16,-1.18476044549667));
#785=CARTESIAN_POINT('',(11.2583302491977,-9.62855589639484E-16,-6.49999999999999));
#786=CARTESIAN_POINT('',(9.81582060162742,-7.72537598057263E-16,-5.66716666666666));
#787=CARTESIAN_POINT('',(2.70285198063087,-4.39000937255674E-16,-12.7159188095395));
#788=CARTESIAN_POINT('',(2.35654040762542,-3.1580350203145E-16,-11.0866509559172));
#789=CARTESIAN_POINT('',(-2.70285198063086,-1.08007966363478E-16,-12.7159188095395));
#790=CARTESIAN_POINT('',(-2.35654040762541,-2.72200664097241E-17,-11.0866509559172));
#791=CARTESIAN_POINT('',(-7.64120827980215,1.94369158706718E-16,-10.5172209268743));
#792=CARTESIAN_POINT('',(-6.66215397790032,2.36414020353401E-16,-9.16966828657711));
#793=CARTESIAN_POINT('',(-12.9287846397876,5.18129139044674E-16,-1.3588700224795));
#794=CARTESIAN_POINT('',(-11.2722426694025,5.18691215518312E-16,-1.18476044549668));
#795=CARTESIAN_POINT('',(-12.363734711837,4.83530952444918E-16,4.01722092687431));
#796=CARTESIAN_POINT('',(-10.779591574528,4.88526032468273E-16,3.50250161991044));
#797=CARTESIAN_POINT('',(-9.66088273120612,3.18034466998819E-16,8.69869788266516));
#798=CARTESIAN_POINT('',(-8.42305116690261,3.44234314657409E-16,7.58414933600675));
#799=CARTESIAN_POINT('',(9.66088273120612,-8.65043370617971E-16,8.69869788266516));
#800=CARTESIAN_POINT('',(8.42305116690261,-6.87257883098583E-16,7.58414933600675));
#801=CARTESIAN_POINT('',(7.64120827980215,-7.41378062325869E-16,-10.5172209268743));
#802=CARTESIAN_POINT('',(6.66215397790032,-5.79437588794575E-16,-9.16966828657711));
#803=CARTESIAN_POINT('',(-11.2583302491977,4.15846686020333E-16,-6.50000000000001));
#804=CARTESIAN_POINT('',(-9.81582060162742,4.29514029616089E-16,-5.66716666666667));
#805=CARTESIAN_POINT('',(-5.2875763599854,5.02555285283803E-17,11.8760909493538));
#806=CARTESIAN_POINT('',(-4.61008869150214,1.10765410944324E-16,10.3544287320738));
#807=CARTESIAN_POINT('',(0.,0.,0.));
#808=CARTESIAN_POINT('',(-1.34645468602769E-16,-2.19899999999997,0.));
#809=CARTESIAN_POINT('',(17.4,-2.19899999999997,0.));
#810=CARTESIAN_POINT('',(-8.25996985653196E-17,-1.349,0.));
#811=CARTESIAN_POINT('',(17.4,-1.34900000000001,0.));
#812=CARTESIAN_POINT('',(-1.34645468602769E-16,-2.19899999999997,17.4));
#813=CARTESIAN_POINT('',(-1.34645468602769E-16,-2.19899999999997,0.));
#814=CARTESIAN_POINT('',(15.351,-2.19899999999997,0.));
#815=CARTESIAN_POINT('',(0.,0.,0.));
#816=CARTESIAN_POINT('',(-8.25996985653196E-17,-1.349,0.));
#817=CARTESIAN_POINT('',(15.351,-1.34900000000001,0.));
#818=CARTESIAN_POINT('',(-8.25996985653196E-17,-1.349,15.351));
#819=MECHANICAL_DESIGN_GEOMETRIC_PRESENTATION_REPRESENTATION('',(#377,#378,
#379,#380,#381,#382,#383,#384,#385,#386,#387,#388,#389,#390,#391,#392,#393,
#394),#820);
#820=(
GEOMETRIC_REPRESENTATION_CONTEXT(3)
GLOBAL_UNCERTAINTY_ASSIGNED_CONTEXT((#821))
GLOBAL_UNIT_ASSIGNED_CONTEXT((#824,#823,#822))
REPRESENTATION_CONTEXT('\X2\5916570867096B6252A869FD76846DF16C9F74038F74627F\X0\6
0000N\X2\578B\X0\','TOP_LEVEL_ASSEMBLY_PART')
);
#821=UNCERTAINTY_MEASURE_WITH_UNIT(LENGTH_MEASURE(0.005),#824,
'DISTANCE_ACCURACY_VALUE','Maximum Tolerance applied to model');
#822=(
NAMED_UNIT(*)
SI_UNIT($,.STERADIAN.)
SOLID_ANGLE_UNIT()
);
#823=(
NAMED_UNIT(*)
PLANE_ANGLE_UNIT()
SI_UNIT($,.RADIAN.)
);
#824=(
LENGTH_UNIT()
NAMED_UNIT(*)
SI_UNIT(.MILLI.,.METRE.)
);
#825=PRODUCT_DEFINITION_SHAPE('','',#826);
#826=PRODUCT_DEFINITION('','',#828,#827);
#827=PRODUCT_DEFINITION_CONTEXT('',#834,'design');
#828=PRODUCT_DEFINITION_FORMATION_WITH_SPECIFIED_SOURCE('','',#830,
 .NOT_KNOWN.);
#829=PRODUCT_RELATED_PRODUCT_CATEGORY('','',(#830));
#830=PRODUCT('\X2\5916570867096B6252A869FD76846DF16C9F74038F74627F\X0\6
0000N\X2\578B\X0\','\X2\5916570867096B6252A869FD76846DF16C9F74038F74627F\X0\6
0000N\X2\578B\X0\','\X2\5916570867096B6252A869FD76846DF16C9F74038F74627F\X0\6
0000N\X2\578B\X0\',(#832));
#831=PRODUCT_CATEGORY('','');
#832=PRODUCT_CONTEXT('',#834,'mechanical');
#833=APPLICATION_PROTOCOL_DEFINITION('international standard',
'automotive_design',2010,#834);
#834=APPLICATION_CONTEXT(
'core data for automotive mechanical design processes');
ENDSEC;
END-ISO-10303-21;
