ISO-10303-21;
HEADER;
/* Generated by software containing HOOPS Exchange Step
 * from HOOPS Exchange, Inc. (www.tiangong.cloud) 
 */

FILE_DESCRIPTION(
/* description */ ('Unknown'),
/* implementation_level */ '2;1');

FILE_NAME(
/* name */ '\X2\570667F15B548C035FC374038F74627F\X0\10000-2RS\X2\578B\X0\',

/* time_stamp */ '2025-05-09T13:08:51+08:00',
/* author */ ('Unknown'),
/* organization */ ('Unknown'),
/* preprocessor_version */ 'ST-DEVELOPER v19.4',
/* originating_system */ 'TianGong',
/* authorisation */ 'Unknown');

FILE_SCHEMA (('AUTOMOTIVE_DESIGN {1 0 10303 214 3 1 1}'));
ENDSEC;

DATA;
#10=PROPERTY_DEFINITION_REPRESENTATION(#14,#12);
#11=PROPERTY_DEFINITION_REPRESENTATION(#15,#13);
#12=REPRESENTATION('',(#16),#1377);
#13=REPRESENTATION('',(#17),#1377);
#14=PROPERTY_DEFINITION('pmi validation property','',#1382);
#15=PROPERTY_DEFINITION('pmi validation property','',#1382);
#16=VALUE_REPRESENTATION_ITEM('number of annotations',COUNT_MEASURE(0.));
#17=VALUE_REPRESENTATION_ITEM('number of views',COUNT_MEASURE(0.));
#18=VERTEX_LOOP('',#233);
#19=VERTEX_LOOP('',#234);
#20=VERTEX_LOOP('',#235);
#21=VERTEX_LOOP('',#236);
#22=VERTEX_LOOP('',#237);
#23=VERTEX_LOOP('',#238);
#24=VERTEX_LOOP('',#239);
#25=VERTEX_LOOP('',#240);
#26=VERTEX_LOOP('',#241);
#27=VERTEX_LOOP('',#242);
#28=VERTEX_LOOP('',#243);
#29=VERTEX_LOOP('',#244);
#30=VERTEX_LOOP('',#245);
#31=VERTEX_LOOP('',#246);
#32=VERTEX_LOOP('',#247);
#33=VERTEX_LOOP('',#248);
#34=VERTEX_LOOP('',#249);
#35=VERTEX_LOOP('',#250);
#36=VERTEX_LOOP('',#251);
#37=VERTEX_LOOP('',#252);
#38=VERTEX_LOOP('',#253);
#39=VERTEX_LOOP('',#254);
#40=VERTEX_LOOP('',#255);
#41=VERTEX_LOOP('',#256);
#42=VERTEX_LOOP('',#257);
#43=VERTEX_LOOP('',#258);
#44=VERTEX_LOOP('',#259);
#45=VERTEX_LOOP('',#260);
#46=VERTEX_LOOP('',#261);
#47=VERTEX_LOOP('',#262);
#48=VERTEX_LOOP('',#263);
#49=VERTEX_LOOP('',#264);
#50=VERTEX_LOOP('',#265);
#51=VERTEX_LOOP('',#266);
#52=VERTEX_LOOP('',#267);
#53=VERTEX_LOOP('',#268);
#54=SPHERICAL_SURFACE('',#925,12.9068568132185);
#55=SPHERICAL_SURFACE('',#967,15.);
#56=SPHERICAL_SURFACE('',#968,2.08314318678149);
#57=SPHERICAL_SURFACE('',#969,2.08314318678149);
#58=SPHERICAL_SURFACE('',#970,2.08314318678149);
#59=SPHERICAL_SURFACE('',#971,2.08314318678149);
#60=SPHERICAL_SURFACE('',#972,2.08314318678149);
#61=SPHERICAL_SURFACE('',#973,2.08314318678149);
#62=SPHERICAL_SURFACE('',#974,2.08314318678149);
#63=SPHERICAL_SURFACE('',#975,2.08314318678149);
#64=SPHERICAL_SURFACE('',#976,2.08314318678149);
#65=SPHERICAL_SURFACE('',#977,2.08314318678149);
#66=SPHERICAL_SURFACE('',#978,2.08314318678149);
#67=SPHERICAL_SURFACE('',#979,2.08314318678149);
#68=SPHERICAL_SURFACE('',#980,2.08314318678149);
#69=SPHERICAL_SURFACE('',#981,2.08314318678149);
#70=SPHERICAL_SURFACE('',#982,2.08314318678149);
#71=SPHERICAL_SURFACE('',#983,2.08314318678149);
#72=SPHERICAL_SURFACE('',#984,2.08314318678149);
#73=SPHERICAL_SURFACE('',#985,2.08314318678149);
#74=SPHERICAL_SURFACE('',#986,2.08314318678149);
#75=SPHERICAL_SURFACE('',#987,2.08314318678149);
#76=SPHERICAL_SURFACE('',#988,2.08314318678149);
#77=SPHERICAL_SURFACE('',#989,2.08314318678149);
#78=SPHERICAL_SURFACE('',#990,2.08314318678149);
#79=SPHERICAL_SURFACE('',#991,2.08314318678149);
#80=SPHERICAL_SURFACE('',#992,2.08314318678149);
#81=SPHERICAL_SURFACE('',#993,2.08314318678149);
#82=SPHERICAL_SURFACE('',#994,2.08314318678149);
#83=SPHERICAL_SURFACE('',#995,2.08314318678149);
#84=SPHERICAL_SURFACE('',#996,2.08314318678149);
#85=SPHERICAL_SURFACE('',#997,2.08314318678149);
#86=SPHERICAL_SURFACE('',#998,2.08314318678149);
#87=SPHERICAL_SURFACE('',#999,2.08314318678149);
#88=SPHERICAL_SURFACE('',#1000,2.08314318678149);
#89=SPHERICAL_SURFACE('',#1001,2.08314318678149);
#90=SPHERICAL_SURFACE('',#1002,2.08314318678149);
#91=SPHERICAL_SURFACE('',#1003,2.08314318678149);
#92=TOROIDAL_SURFACE('',#922,12.7360003296386,2.09314318678149);
#93=TOROIDAL_SURFACE('',#927,12.7360003296386,2.09314318678149);
#94=TOROIDAL_SURFACE('',#936,12.7360003296386,2.09314318678149);
#95=TOROIDAL_SURFACE('',#940,12.7360003296386,2.09314318678149);
#96=TOROIDAL_SURFACE('',#946,8.1,0.6);
#97=TOROIDAL_SURFACE('',#947,8.1,0.6);
#98=TOROIDAL_SURFACE('',#957,16.9,0.6);
#99=TOROIDAL_SURFACE('',#958,16.9,0.6);
#100=SHAPE_REPRESENTATION_RELATIONSHIP('','',#912,#101);
#101=ADVANCED_BREP_SHAPE_REPRESENTATION('',(#870,#871,#872,#873,#874,#875,
#876,#877,#878,#879,#880,#881,#882,#883,#884,#885,#886,#887,#888,#889,#890,
#891,#892,#893,#894,#895,#896,#897,#898,#899,#900,#901,#902,#903,#904,#905,
#906,#907,#908,#909,#910),#1377);
#102=CONICAL_SURFACE('',#921,11.0814285714286,0.785398163397448);
#103=CONICAL_SURFACE('',#1011,11.0814285714286,0.785398163397448);
#104=CYLINDRICAL_SURFACE('',#917,14.4717701442462);
#105=CYLINDRICAL_SURFACE('',#928,7.5);
#106=CYLINDRICAL_SURFACE('',#934,11.0714285714286);
#107=CYLINDRICAL_SURFACE('',#938,11.0714285714286);
#108=CYLINDRICAL_SURFACE('',#942,11.0714285714286);
#109=CYLINDRICAL_SURFACE('',#951,17.5);
#110=CYLINDRICAL_SURFACE('',#962,14.4817701442462);
#111=CYLINDRICAL_SURFACE('',#966,14.4817701442462);
#112=CYLINDRICAL_SURFACE('',#1007,14.4717701442462);
#113=ORIENTED_EDGE('',*,*,#175,.T.);
#114=ORIENTED_EDGE('',*,*,#176,.F.);
#115=ORIENTED_EDGE('',*,*,#177,.T.);
#116=ORIENTED_EDGE('',*,*,#175,.F.);
#117=ORIENTED_EDGE('',*,*,#178,.T.);
#118=ORIENTED_EDGE('',*,*,#177,.F.);
#119=ORIENTED_EDGE('',*,*,#176,.T.);
#120=ORIENTED_EDGE('',*,*,#178,.F.);
#121=ORIENTED_EDGE('',*,*,#179,.T.);
#122=ORIENTED_EDGE('',*,*,#180,.F.);
#123=ORIENTED_EDGE('',*,*,#181,.T.);
#124=ORIENTED_EDGE('',*,*,#179,.F.);
#125=ORIENTED_EDGE('',*,*,#180,.T.);
#126=ORIENTED_EDGE('',*,*,#181,.F.);
#127=ORIENTED_EDGE('',*,*,#182,.T.);
#128=ORIENTED_EDGE('',*,*,#183,.T.);
#129=ORIENTED_EDGE('',*,*,#184,.T.);
#130=ORIENTED_EDGE('',*,*,#185,.F.);
#131=ORIENTED_EDGE('',*,*,#185,.T.);
#132=ORIENTED_EDGE('',*,*,#186,.F.);
#133=ORIENTED_EDGE('',*,*,#187,.F.);
#134=ORIENTED_EDGE('',*,*,#186,.T.);
#135=ORIENTED_EDGE('',*,*,#188,.F.);
#136=ORIENTED_EDGE('',*,*,#187,.T.);
#137=ORIENTED_EDGE('',*,*,#189,.F.);
#138=ORIENTED_EDGE('',*,*,#188,.T.);
#139=ORIENTED_EDGE('',*,*,#190,.F.);
#140=ORIENTED_EDGE('',*,*,#189,.T.);
#141=ORIENTED_EDGE('',*,*,#191,.T.);
#142=ORIENTED_EDGE('',*,*,#190,.T.);
#143=ORIENTED_EDGE('',*,*,#183,.F.);
#144=ORIENTED_EDGE('',*,*,#184,.F.);
#145=ORIENTED_EDGE('',*,*,#191,.F.);
#146=ORIENTED_EDGE('',*,*,#182,.F.);
#147=ORIENTED_EDGE('',*,*,#192,.T.);
#148=ORIENTED_EDGE('',*,*,#193,.T.);
#149=ORIENTED_EDGE('',*,*,#194,.T.);
#150=ORIENTED_EDGE('',*,*,#195,.T.);
#151=ORIENTED_EDGE('',*,*,#196,.F.);
#152=ORIENTED_EDGE('',*,*,#197,.T.);
#153=ORIENTED_EDGE('',*,*,#195,.F.);
#154=ORIENTED_EDGE('',*,*,#197,.F.);
#155=ORIENTED_EDGE('',*,*,#193,.F.);
#156=ORIENTED_EDGE('',*,*,#194,.F.);
#157=ORIENTED_EDGE('',*,*,#198,.T.);
#158=ORIENTED_EDGE('',*,*,#199,.T.);
#159=ORIENTED_EDGE('',*,*,#196,.T.);
#160=ORIENTED_EDGE('',*,*,#198,.F.);
#161=ORIENTED_EDGE('',*,*,#200,.F.);
#162=ORIENTED_EDGE('',*,*,#201,.F.);
#163=ORIENTED_EDGE('',*,*,#192,.F.);
#164=ORIENTED_EDGE('',*,*,#200,.T.);
#165=ORIENTED_EDGE('',*,*,#201,.T.);
#166=ORIENTED_EDGE('',*,*,#199,.F.);
#167=ORIENTED_EDGE('',*,*,#202,.F.);
#168=ORIENTED_EDGE('',*,*,#203,.T.);
#169=ORIENTED_EDGE('',*,*,#204,.F.);
#170=ORIENTED_EDGE('',*,*,#202,.T.);
#171=ORIENTED_EDGE('',*,*,#205,.F.);
#172=ORIENTED_EDGE('',*,*,#204,.T.);
#173=ORIENTED_EDGE('',*,*,#203,.F.);
#174=ORIENTED_EDGE('',*,*,#205,.T.);
#175=EDGE_CURVE('',#206,#206,#273,.T.);
#176=EDGE_CURVE('',#207,#207,#274,.T.);
#177=EDGE_CURVE('',#208,#208,#275,.T.);
#178=EDGE_CURVE('',#209,#209,#276,.T.);
#179=EDGE_CURVE('',#210,#210,#277,.T.);
#180=EDGE_CURVE('',#211,#211,#278,.T.);
#181=EDGE_CURVE('',#212,#212,#279,.T.);
#182=EDGE_CURVE('',#213,#213,#280,.F.);
#183=EDGE_CURVE('',#214,#214,#281,.F.);
#184=EDGE_CURVE('',#215,#215,#282,.T.);
#185=EDGE_CURVE('',#216,#216,#283,.T.);
#186=EDGE_CURVE('',#217,#217,#284,.T.);
#187=EDGE_CURVE('',#218,#218,#285,.T.);
#188=EDGE_CURVE('',#219,#219,#286,.T.);
#189=EDGE_CURVE('',#220,#220,#287,.T.);
#190=EDGE_CURVE('',#221,#221,#288,.T.);
#191=EDGE_CURVE('',#222,#222,#289,.T.);
#192=EDGE_CURVE('',#223,#223,#290,.T.);
#193=EDGE_CURVE('',#224,#224,#291,.F.);
#194=EDGE_CURVE('',#225,#225,#292,.T.);
#195=EDGE_CURVE('',#226,#226,#293,.T.);
#196=EDGE_CURVE('',#227,#227,#294,.T.);
#197=EDGE_CURVE('',#228,#228,#295,.F.);
#198=EDGE_CURVE('',#229,#229,#296,.T.);
#199=EDGE_CURVE('',#230,#230,#297,.F.);
#200=EDGE_CURVE('',#231,#231,#298,.T.);
#201=EDGE_CURVE('',#232,#232,#299,.F.);
#202=EDGE_CURVE('',#269,#269,#300,.T.);
#203=EDGE_CURVE('',#270,#270,#301,.T.);
#204=EDGE_CURVE('',#271,#271,#302,.T.);
#205=EDGE_CURVE('',#272,#272,#303,.T.);
#206=VERTEX_POINT('',#1213);
#207=VERTEX_POINT('',#1215);
#208=VERTEX_POINT('',#1218);
#209=VERTEX_POINT('',#1221);
#210=VERTEX_POINT('',#1225);
#211=VERTEX_POINT('',#1227);
#212=VERTEX_POINT('',#1230);
#213=VERTEX_POINT('',#1234);
#214=VERTEX_POINT('',#1236);
#215=VERTEX_POINT('',#1239);
#216=VERTEX_POINT('',#1241);
#217=VERTEX_POINT('',#1244);
#218=VERTEX_POINT('',#1247);
#219=VERTEX_POINT('',#1250);
#220=VERTEX_POINT('',#1253);
#221=VERTEX_POINT('',#1256);
#222=VERTEX_POINT('',#1259);
#223=VERTEX_POINT('',#1264);
#224=VERTEX_POINT('',#1266);
#225=VERTEX_POINT('',#1269);
#226=VERTEX_POINT('',#1271);
#227=VERTEX_POINT('',#1274);
#228=VERTEX_POINT('',#1276);
#229=VERTEX_POINT('',#1281);
#230=VERTEX_POINT('',#1283);
#231=VERTEX_POINT('',#1287);
#232=VERTEX_POINT('',#1289);
#233=VERTEX_POINT('',#1293);
#234=VERTEX_POINT('',#1295);
#235=VERTEX_POINT('',#1297);
#236=VERTEX_POINT('',#1299);
#237=VERTEX_POINT('',#1301);
#238=VERTEX_POINT('',#1303);
#239=VERTEX_POINT('',#1305);
#240=VERTEX_POINT('',#1307);
#241=VERTEX_POINT('',#1309);
#242=VERTEX_POINT('',#1311);
#243=VERTEX_POINT('',#1313);
#244=VERTEX_POINT('',#1315);
#245=VERTEX_POINT('',#1317);
#246=VERTEX_POINT('',#1319);
#247=VERTEX_POINT('',#1321);
#248=VERTEX_POINT('',#1323);
#249=VERTEX_POINT('',#1325);
#250=VERTEX_POINT('',#1327);
#251=VERTEX_POINT('',#1329);
#252=VERTEX_POINT('',#1331);
#253=VERTEX_POINT('',#1333);
#254=VERTEX_POINT('',#1335);
#255=VERTEX_POINT('',#1337);
#256=VERTEX_POINT('',#1339);
#257=VERTEX_POINT('',#1341);
#258=VERTEX_POINT('',#1343);
#259=VERTEX_POINT('',#1345);
#260=VERTEX_POINT('',#1347);
#261=VERTEX_POINT('',#1349);
#262=VERTEX_POINT('',#1351);
#263=VERTEX_POINT('',#1353);
#264=VERTEX_POINT('',#1355);
#265=VERTEX_POINT('',#1357);
#266=VERTEX_POINT('',#1359);
#267=VERTEX_POINT('',#1361);
#268=VERTEX_POINT('',#1363);
#269=VERTEX_POINT('',#1366);
#270=VERTEX_POINT('',#1368);
#271=VERTEX_POINT('',#1371);
#272=VERTEX_POINT('',#1374);
#273=CIRCLE('',#915,14.4717701442462);
#274=CIRCLE('',#916,11.4714285714286);
#275=CIRCLE('',#918,14.4717701442462);
#276=CIRCLE('',#920,11.0814285714286);
#277=CIRCLE('',#923,12.9068549232753);
#278=CIRCLE('',#924,12.7360003296386);
#279=CIRCLE('',#926,12.9068549232753);
#280=CIRCLE('',#929,7.5);
#281=CIRCLE('',#930,7.5);
#282=CIRCLE('',#932,8.1);
#283=CIRCLE('',#933,11.0714285714286);
#284=CIRCLE('',#935,11.0714285714286);
#285=CIRCLE('',#937,11.0714285714286);
#286=CIRCLE('',#939,11.0714285714286);
#287=CIRCLE('',#941,11.0714285714286);
#288=CIRCLE('',#943,11.0714285714286);
#289=CIRCLE('',#945,8.1);
#290=CIRCLE('',#949,14.4817701442462);
#291=CIRCLE('',#950,16.9);
#292=CIRCLE('',#952,17.5);
#293=CIRCLE('',#953,17.5);
#294=CIRCLE('',#955,14.4817701442462);
#295=CIRCLE('',#956,16.9);
#296=CIRCLE('',#960,14.4817701442462);
#297=CIRCLE('',#961,13.6586968631711);
#298=CIRCLE('',#964,14.4817701442462);
#299=CIRCLE('',#965,13.6586968631711);
#300=CIRCLE('',#1005,14.4717701442462);
#301=CIRCLE('',#1006,11.4714285714286);
#302=CIRCLE('',#1008,14.4717701442462);
#303=CIRCLE('',#1010,11.0814285714286);
#304=EDGE_LOOP('',(#113));
#305=EDGE_LOOP('',(#114));
#306=EDGE_LOOP('',(#115));
#307=EDGE_LOOP('',(#116));
#308=EDGE_LOOP('',(#117));
#309=EDGE_LOOP('',(#118));
#310=EDGE_LOOP('',(#119));
#311=EDGE_LOOP('',(#120));
#312=EDGE_LOOP('',(#121));
#313=EDGE_LOOP('',(#122));
#314=EDGE_LOOP('',(#123));
#315=EDGE_LOOP('',(#124));
#316=EDGE_LOOP('',(#125));
#317=EDGE_LOOP('',(#126));
#318=EDGE_LOOP('',(#127));
#319=EDGE_LOOP('',(#128));
#320=EDGE_LOOP('',(#129));
#321=EDGE_LOOP('',(#130));
#322=EDGE_LOOP('',(#131));
#323=EDGE_LOOP('',(#132));
#324=EDGE_LOOP('',(#133));
#325=EDGE_LOOP('',(#134));
#326=EDGE_LOOP('',(#135));
#327=EDGE_LOOP('',(#136));
#328=EDGE_LOOP('',(#137));
#329=EDGE_LOOP('',(#138));
#330=EDGE_LOOP('',(#139));
#331=EDGE_LOOP('',(#140));
#332=EDGE_LOOP('',(#141));
#333=EDGE_LOOP('',(#142));
#334=EDGE_LOOP('',(#143));
#335=EDGE_LOOP('',(#144));
#336=EDGE_LOOP('',(#145));
#337=EDGE_LOOP('',(#146));
#338=EDGE_LOOP('',(#147));
#339=EDGE_LOOP('',(#148));
#340=EDGE_LOOP('',(#149));
#341=EDGE_LOOP('',(#150));
#342=EDGE_LOOP('',(#151));
#343=EDGE_LOOP('',(#152));
#344=EDGE_LOOP('',(#153));
#345=EDGE_LOOP('',(#154));
#346=EDGE_LOOP('',(#155));
#347=EDGE_LOOP('',(#156));
#348=EDGE_LOOP('',(#157));
#349=EDGE_LOOP('',(#158));
#350=EDGE_LOOP('',(#159));
#351=EDGE_LOOP('',(#160));
#352=EDGE_LOOP('',(#161));
#353=EDGE_LOOP('',(#162));
#354=EDGE_LOOP('',(#163));
#355=EDGE_LOOP('',(#164));
#356=EDGE_LOOP('',(#165));
#357=EDGE_LOOP('',(#166));
#358=EDGE_LOOP('',(#167));
#359=EDGE_LOOP('',(#168));
#360=EDGE_LOOP('',(#169));
#361=EDGE_LOOP('',(#170));
#362=EDGE_LOOP('',(#171));
#363=EDGE_LOOP('',(#172));
#364=EDGE_LOOP('',(#173));
#365=EDGE_LOOP('',(#174));
#366=FACE_BOUND('',#304,.T.);
#367=FACE_BOUND('',#305,.T.);
#368=FACE_BOUND('',#306,.T.);
#369=FACE_BOUND('',#307,.T.);
#370=FACE_BOUND('',#308,.T.);
#371=FACE_BOUND('',#309,.T.);
#372=FACE_BOUND('',#310,.T.);
#373=FACE_BOUND('',#311,.T.);
#374=FACE_BOUND('',#312,.T.);
#375=FACE_BOUND('',#313,.T.);
#376=FACE_BOUND('',#314,.T.);
#377=FACE_BOUND('',#315,.T.);
#378=FACE_BOUND('',#316,.T.);
#379=FACE_BOUND('',#317,.T.);
#380=FACE_BOUND('',#318,.T.);
#381=FACE_BOUND('',#319,.T.);
#382=FACE_BOUND('',#320,.T.);
#383=FACE_BOUND('',#321,.T.);
#384=FACE_BOUND('',#322,.T.);
#385=FACE_BOUND('',#323,.T.);
#386=FACE_BOUND('',#324,.T.);
#387=FACE_BOUND('',#325,.T.);
#388=FACE_BOUND('',#326,.T.);
#389=FACE_BOUND('',#327,.T.);
#390=FACE_BOUND('',#328,.T.);
#391=FACE_BOUND('',#329,.T.);
#392=FACE_BOUND('',#330,.T.);
#393=FACE_BOUND('',#331,.T.);
#394=FACE_BOUND('',#332,.T.);
#395=FACE_BOUND('',#333,.T.);
#396=FACE_BOUND('',#334,.T.);
#397=FACE_BOUND('',#335,.T.);
#398=FACE_BOUND('',#336,.T.);
#399=FACE_BOUND('',#337,.T.);
#400=FACE_BOUND('',#338,.T.);
#401=FACE_BOUND('',#339,.T.);
#402=FACE_BOUND('',#340,.T.);
#403=FACE_BOUND('',#341,.T.);
#404=FACE_BOUND('',#342,.T.);
#405=FACE_BOUND('',#343,.T.);
#406=FACE_BOUND('',#344,.T.);
#407=FACE_BOUND('',#345,.T.);
#408=FACE_BOUND('',#346,.T.);
#409=FACE_BOUND('',#347,.T.);
#410=FACE_BOUND('',#348,.T.);
#411=FACE_BOUND('',#349,.T.);
#412=FACE_BOUND('',#350,.T.);
#413=FACE_BOUND('',#351,.T.);
#414=FACE_BOUND('',#352,.T.);
#415=FACE_BOUND('',#353,.T.);
#416=FACE_BOUND('',#354,.T.);
#417=FACE_BOUND('',#355,.T.);
#418=FACE_BOUND('',#356,.T.);
#419=FACE_BOUND('',#357,.T.);
#420=FACE_BOUND('',#18,.T.);
#421=FACE_BOUND('',#19,.T.);
#422=FACE_BOUND('',#20,.T.);
#423=FACE_BOUND('',#21,.T.);
#424=FACE_BOUND('',#22,.T.);
#425=FACE_BOUND('',#23,.T.);
#426=FACE_BOUND('',#24,.T.);
#427=FACE_BOUND('',#25,.T.);
#428=FACE_BOUND('',#26,.T.);
#429=FACE_BOUND('',#27,.T.);
#430=FACE_BOUND('',#28,.T.);
#431=FACE_BOUND('',#29,.T.);
#432=FACE_BOUND('',#30,.T.);
#433=FACE_BOUND('',#31,.T.);
#434=FACE_BOUND('',#32,.T.);
#435=FACE_BOUND('',#33,.T.);
#436=FACE_BOUND('',#34,.T.);
#437=FACE_BOUND('',#35,.T.);
#438=FACE_BOUND('',#36,.T.);
#439=FACE_BOUND('',#37,.T.);
#440=FACE_BOUND('',#38,.T.);
#441=FACE_BOUND('',#39,.T.);
#442=FACE_BOUND('',#40,.T.);
#443=FACE_BOUND('',#41,.T.);
#444=FACE_BOUND('',#42,.T.);
#445=FACE_BOUND('',#43,.T.);
#446=FACE_BOUND('',#44,.T.);
#447=FACE_BOUND('',#45,.T.);
#448=FACE_BOUND('',#46,.T.);
#449=FACE_BOUND('',#47,.T.);
#450=FACE_BOUND('',#48,.T.);
#451=FACE_BOUND('',#49,.T.);
#452=FACE_BOUND('',#50,.T.);
#453=FACE_BOUND('',#51,.T.);
#454=FACE_BOUND('',#52,.T.);
#455=FACE_BOUND('',#53,.T.);
#456=FACE_BOUND('',#358,.T.);
#457=FACE_BOUND('',#359,.T.);
#458=FACE_BOUND('',#360,.T.);
#459=FACE_BOUND('',#361,.T.);
#460=FACE_BOUND('',#362,.T.);
#461=FACE_BOUND('',#363,.T.);
#462=FACE_BOUND('',#364,.T.);
#463=FACE_BOUND('',#365,.T.);
#464=PLANE('',#914);
#465=PLANE('',#919);
#466=PLANE('',#931);
#467=PLANE('',#944);
#468=PLANE('',#948);
#469=PLANE('',#954);
#470=PLANE('',#959);
#471=PLANE('',#963);
#472=PLANE('',#1004);
#473=PLANE('',#1009);
#474=ADVANCED_FACE('',(#366,#367),#464,.F.);
#475=ADVANCED_FACE('',(#368,#369),#104,.T.);
#476=ADVANCED_FACE('',(#370,#371),#465,.F.);
#477=ADVANCED_FACE('',(#372,#373),#102,.F.);
#478=ADVANCED_FACE('',(#374,#375),#92,.F.);
#479=ADVANCED_FACE('',(#376,#377),#54,.T.);
#480=ADVANCED_FACE('',(#378,#379),#93,.F.);
#481=ADVANCED_FACE('',(#380,#381),#105,.F.);
#482=ADVANCED_FACE('',(#382,#383),#466,.F.);
#483=ADVANCED_FACE('',(#384,#385),#106,.T.);
#484=ADVANCED_FACE('',(#386,#387),#94,.F.);
#485=ADVANCED_FACE('',(#388,#389),#107,.T.);
#486=ADVANCED_FACE('',(#390,#391),#95,.F.);
#487=ADVANCED_FACE('',(#392,#393),#108,.T.);
#488=ADVANCED_FACE('',(#394,#395),#467,.F.);
#489=ADVANCED_FACE('',(#396,#397),#96,.T.);
#490=ADVANCED_FACE('',(#398,#399),#97,.T.);
#491=ADVANCED_FACE('',(#400,#401),#468,.F.);
#492=ADVANCED_FACE('',(#402,#403),#109,.T.);
#493=ADVANCED_FACE('',(#404,#405),#469,.F.);
#494=ADVANCED_FACE('',(#406,#407),#98,.T.);
#495=ADVANCED_FACE('',(#408,#409),#99,.T.);
#496=ADVANCED_FACE('',(#410,#411),#470,.T.);
#497=ADVANCED_FACE('',(#412,#413),#110,.F.);
#498=ADVANCED_FACE('',(#414,#415),#471,.F.);
#499=ADVANCED_FACE('',(#416,#417),#111,.F.);
#500=ADVANCED_FACE('',(#418,#419),#55,.F.);
#501=ADVANCED_FACE('',(#420),#56,.T.);
#502=ADVANCED_FACE('',(#421),#57,.T.);
#503=ADVANCED_FACE('',(#422),#58,.T.);
#504=ADVANCED_FACE('',(#423),#59,.T.);
#505=ADVANCED_FACE('',(#424),#60,.T.);
#506=ADVANCED_FACE('',(#425),#61,.T.);
#507=ADVANCED_FACE('',(#426),#62,.T.);
#508=ADVANCED_FACE('',(#427),#63,.T.);
#509=ADVANCED_FACE('',(#428),#64,.T.);
#510=ADVANCED_FACE('',(#429),#65,.T.);
#511=ADVANCED_FACE('',(#430),#66,.T.);
#512=ADVANCED_FACE('',(#431),#67,.T.);
#513=ADVANCED_FACE('',(#432),#68,.T.);
#514=ADVANCED_FACE('',(#433),#69,.T.);
#515=ADVANCED_FACE('',(#434),#70,.T.);
#516=ADVANCED_FACE('',(#435),#71,.T.);
#517=ADVANCED_FACE('',(#436),#72,.T.);
#518=ADVANCED_FACE('',(#437),#73,.T.);
#519=ADVANCED_FACE('',(#438),#74,.T.);
#520=ADVANCED_FACE('',(#439),#75,.T.);
#521=ADVANCED_FACE('',(#440),#76,.T.);
#522=ADVANCED_FACE('',(#441),#77,.T.);
#523=ADVANCED_FACE('',(#442),#78,.T.);
#524=ADVANCED_FACE('',(#443),#79,.T.);
#525=ADVANCED_FACE('',(#444),#80,.T.);
#526=ADVANCED_FACE('',(#445),#81,.T.);
#527=ADVANCED_FACE('',(#446),#82,.T.);
#528=ADVANCED_FACE('',(#447),#83,.T.);
#529=ADVANCED_FACE('',(#448),#84,.T.);
#530=ADVANCED_FACE('',(#449),#85,.T.);
#531=ADVANCED_FACE('',(#450),#86,.T.);
#532=ADVANCED_FACE('',(#451),#87,.T.);
#533=ADVANCED_FACE('',(#452),#88,.T.);
#534=ADVANCED_FACE('',(#453),#89,.T.);
#535=ADVANCED_FACE('',(#454),#90,.T.);
#536=ADVANCED_FACE('',(#455),#91,.T.);
#537=ADVANCED_FACE('',(#456,#457),#472,.F.);
#538=ADVANCED_FACE('',(#458,#459),#112,.T.);
#539=ADVANCED_FACE('',(#460,#461),#473,.F.);
#540=ADVANCED_FACE('',(#462,#463),#103,.F.);
#541=CLOSED_SHELL('',(#474,#475,#476,#477));
#542=CLOSED_SHELL('',(#478,#479,#480));
#543=CLOSED_SHELL('',(#481,#482,#483,#484,#485,#486,#487,#488,#489,#490));
#544=CLOSED_SHELL('',(#491,#492,#493,#494,#495,#496,#497,#498,#499,#500));
#545=CLOSED_SHELL('',(#501));
#546=CLOSED_SHELL('',(#502));
#547=CLOSED_SHELL('',(#503));
#548=CLOSED_SHELL('',(#504));
#549=CLOSED_SHELL('',(#505));
#550=CLOSED_SHELL('',(#506));
#551=CLOSED_SHELL('',(#507));
#552=CLOSED_SHELL('',(#508));
#553=CLOSED_SHELL('',(#509));
#554=CLOSED_SHELL('',(#510));
#555=CLOSED_SHELL('',(#511));
#556=CLOSED_SHELL('',(#512));
#557=CLOSED_SHELL('',(#513));
#558=CLOSED_SHELL('',(#514));
#559=CLOSED_SHELL('',(#515));
#560=CLOSED_SHELL('',(#516));
#561=CLOSED_SHELL('',(#517));
#562=CLOSED_SHELL('',(#518));
#563=CLOSED_SHELL('',(#519));
#564=CLOSED_SHELL('',(#520));
#565=CLOSED_SHELL('',(#521));
#566=CLOSED_SHELL('',(#522));
#567=CLOSED_SHELL('',(#523));
#568=CLOSED_SHELL('',(#524));
#569=CLOSED_SHELL('',(#525));
#570=CLOSED_SHELL('',(#526));
#571=CLOSED_SHELL('',(#527));
#572=CLOSED_SHELL('',(#528));
#573=CLOSED_SHELL('',(#529));
#574=CLOSED_SHELL('',(#530));
#575=CLOSED_SHELL('',(#531));
#576=CLOSED_SHELL('',(#532));
#577=CLOSED_SHELL('',(#533));
#578=CLOSED_SHELL('',(#534));
#579=CLOSED_SHELL('',(#535));
#580=CLOSED_SHELL('',(#536));
#581=CLOSED_SHELL('',(#537,#538,#539,#540));
#582=STYLED_ITEM('',(#623),#870);
#583=STYLED_ITEM('',(#624),#871);
#584=STYLED_ITEM('',(#625),#872);
#585=STYLED_ITEM('',(#626),#873);
#586=STYLED_ITEM('',(#627),#874);
#587=STYLED_ITEM('',(#628),#875);
#588=STYLED_ITEM('',(#629),#876);
#589=STYLED_ITEM('',(#630),#877);
#590=STYLED_ITEM('',(#631),#878);
#591=STYLED_ITEM('',(#632),#879);
#592=STYLED_ITEM('',(#633),#880);
#593=STYLED_ITEM('',(#634),#881);
#594=STYLED_ITEM('',(#635),#882);
#595=STYLED_ITEM('',(#636),#883);
#596=STYLED_ITEM('',(#637),#884);
#597=STYLED_ITEM('',(#638),#885);
#598=STYLED_ITEM('',(#639),#886);
#599=STYLED_ITEM('',(#640),#887);
#600=STYLED_ITEM('',(#641),#888);
#601=STYLED_ITEM('',(#642),#889);
#602=STYLED_ITEM('',(#643),#890);
#603=STYLED_ITEM('',(#644),#891);
#604=STYLED_ITEM('',(#645),#892);
#605=STYLED_ITEM('',(#646),#893);
#606=STYLED_ITEM('',(#647),#894);
#607=STYLED_ITEM('',(#648),#895);
#608=STYLED_ITEM('',(#649),#896);
#609=STYLED_ITEM('',(#650),#897);
#610=STYLED_ITEM('',(#651),#898);
#611=STYLED_ITEM('',(#652),#899);
#612=STYLED_ITEM('',(#653),#900);
#613=STYLED_ITEM('',(#654),#901);
#614=STYLED_ITEM('',(#655),#902);
#615=STYLED_ITEM('',(#656),#903);
#616=STYLED_ITEM('',(#657),#904);
#617=STYLED_ITEM('',(#658),#905);
#618=STYLED_ITEM('',(#659),#906);
#619=STYLED_ITEM('',(#660),#907);
#620=STYLED_ITEM('',(#661),#908);
#621=STYLED_ITEM('',(#662),#909);
#622=STYLED_ITEM('',(#663),#910);
#623=PRESENTATION_STYLE_ASSIGNMENT((#664));
#624=PRESENTATION_STYLE_ASSIGNMENT((#665));
#625=PRESENTATION_STYLE_ASSIGNMENT((#666));
#626=PRESENTATION_STYLE_ASSIGNMENT((#667));
#627=PRESENTATION_STYLE_ASSIGNMENT((#668));
#628=PRESENTATION_STYLE_ASSIGNMENT((#669));
#629=PRESENTATION_STYLE_ASSIGNMENT((#670));
#630=PRESENTATION_STYLE_ASSIGNMENT((#671));
#631=PRESENTATION_STYLE_ASSIGNMENT((#672));
#632=PRESENTATION_STYLE_ASSIGNMENT((#673));
#633=PRESENTATION_STYLE_ASSIGNMENT((#674));
#634=PRESENTATION_STYLE_ASSIGNMENT((#675));
#635=PRESENTATION_STYLE_ASSIGNMENT((#676));
#636=PRESENTATION_STYLE_ASSIGNMENT((#677));
#637=PRESENTATION_STYLE_ASSIGNMENT((#678));
#638=PRESENTATION_STYLE_ASSIGNMENT((#679));
#639=PRESENTATION_STYLE_ASSIGNMENT((#680));
#640=PRESENTATION_STYLE_ASSIGNMENT((#681));
#641=PRESENTATION_STYLE_ASSIGNMENT((#682));
#642=PRESENTATION_STYLE_ASSIGNMENT((#683));
#643=PRESENTATION_STYLE_ASSIGNMENT((#684));
#644=PRESENTATION_STYLE_ASSIGNMENT((#685));
#645=PRESENTATION_STYLE_ASSIGNMENT((#686));
#646=PRESENTATION_STYLE_ASSIGNMENT((#687));
#647=PRESENTATION_STYLE_ASSIGNMENT((#688));
#648=PRESENTATION_STYLE_ASSIGNMENT((#689));
#649=PRESENTATION_STYLE_ASSIGNMENT((#690));
#650=PRESENTATION_STYLE_ASSIGNMENT((#691));
#651=PRESENTATION_STYLE_ASSIGNMENT((#692));
#652=PRESENTATION_STYLE_ASSIGNMENT((#693));
#653=PRESENTATION_STYLE_ASSIGNMENT((#694));
#654=PRESENTATION_STYLE_ASSIGNMENT((#695));
#655=PRESENTATION_STYLE_ASSIGNMENT((#696));
#656=PRESENTATION_STYLE_ASSIGNMENT((#697));
#657=PRESENTATION_STYLE_ASSIGNMENT((#698));
#658=PRESENTATION_STYLE_ASSIGNMENT((#699));
#659=PRESENTATION_STYLE_ASSIGNMENT((#700));
#660=PRESENTATION_STYLE_ASSIGNMENT((#701));
#661=PRESENTATION_STYLE_ASSIGNMENT((#702));
#662=PRESENTATION_STYLE_ASSIGNMENT((#703));
#663=PRESENTATION_STYLE_ASSIGNMENT((#704));
#664=SURFACE_STYLE_USAGE(.BOTH.,#705);
#665=SURFACE_STYLE_USAGE(.BOTH.,#706);
#666=SURFACE_STYLE_USAGE(.BOTH.,#707);
#667=SURFACE_STYLE_USAGE(.BOTH.,#708);
#668=SURFACE_STYLE_USAGE(.BOTH.,#709);
#669=SURFACE_STYLE_USAGE(.BOTH.,#710);
#670=SURFACE_STYLE_USAGE(.BOTH.,#711);
#671=SURFACE_STYLE_USAGE(.BOTH.,#712);
#672=SURFACE_STYLE_USAGE(.BOTH.,#713);
#673=SURFACE_STYLE_USAGE(.BOTH.,#714);
#674=SURFACE_STYLE_USAGE(.BOTH.,#715);
#675=SURFACE_STYLE_USAGE(.BOTH.,#716);
#676=SURFACE_STYLE_USAGE(.BOTH.,#717);
#677=SURFACE_STYLE_USAGE(.BOTH.,#718);
#678=SURFACE_STYLE_USAGE(.BOTH.,#719);
#679=SURFACE_STYLE_USAGE(.BOTH.,#720);
#680=SURFACE_STYLE_USAGE(.BOTH.,#721);
#681=SURFACE_STYLE_USAGE(.BOTH.,#722);
#682=SURFACE_STYLE_USAGE(.BOTH.,#723);
#683=SURFACE_STYLE_USAGE(.BOTH.,#724);
#684=SURFACE_STYLE_USAGE(.BOTH.,#725);
#685=SURFACE_STYLE_USAGE(.BOTH.,#726);
#686=SURFACE_STYLE_USAGE(.BOTH.,#727);
#687=SURFACE_STYLE_USAGE(.BOTH.,#728);
#688=SURFACE_STYLE_USAGE(.BOTH.,#729);
#689=SURFACE_STYLE_USAGE(.BOTH.,#730);
#690=SURFACE_STYLE_USAGE(.BOTH.,#731);
#691=SURFACE_STYLE_USAGE(.BOTH.,#732);
#692=SURFACE_STYLE_USAGE(.BOTH.,#733);
#693=SURFACE_STYLE_USAGE(.BOTH.,#734);
#694=SURFACE_STYLE_USAGE(.BOTH.,#735);
#695=SURFACE_STYLE_USAGE(.BOTH.,#736);
#696=SURFACE_STYLE_USAGE(.BOTH.,#737);
#697=SURFACE_STYLE_USAGE(.BOTH.,#738);
#698=SURFACE_STYLE_USAGE(.BOTH.,#739);
#699=SURFACE_STYLE_USAGE(.BOTH.,#740);
#700=SURFACE_STYLE_USAGE(.BOTH.,#741);
#701=SURFACE_STYLE_USAGE(.BOTH.,#742);
#702=SURFACE_STYLE_USAGE(.BOTH.,#743);
#703=SURFACE_STYLE_USAGE(.BOTH.,#744);
#704=SURFACE_STYLE_USAGE(.BOTH.,#745);
#705=SURFACE_SIDE_STYLE('',(#746));
#706=SURFACE_SIDE_STYLE('',(#747));
#707=SURFACE_SIDE_STYLE('',(#748));
#708=SURFACE_SIDE_STYLE('',(#749));
#709=SURFACE_SIDE_STYLE('',(#750));
#710=SURFACE_SIDE_STYLE('',(#751));
#711=SURFACE_SIDE_STYLE('',(#752));
#712=SURFACE_SIDE_STYLE('',(#753));
#713=SURFACE_SIDE_STYLE('',(#754));
#714=SURFACE_SIDE_STYLE('',(#755));
#715=SURFACE_SIDE_STYLE('',(#756));
#716=SURFACE_SIDE_STYLE('',(#757));
#717=SURFACE_SIDE_STYLE('',(#758));
#718=SURFACE_SIDE_STYLE('',(#759));
#719=SURFACE_SIDE_STYLE('',(#760));
#720=SURFACE_SIDE_STYLE('',(#761));
#721=SURFACE_SIDE_STYLE('',(#762));
#722=SURFACE_SIDE_STYLE('',(#763));
#723=SURFACE_SIDE_STYLE('',(#764));
#724=SURFACE_SIDE_STYLE('',(#765));
#725=SURFACE_SIDE_STYLE('',(#766));
#726=SURFACE_SIDE_STYLE('',(#767));
#727=SURFACE_SIDE_STYLE('',(#768));
#728=SURFACE_SIDE_STYLE('',(#769));
#729=SURFACE_SIDE_STYLE('',(#770));
#730=SURFACE_SIDE_STYLE('',(#771));
#731=SURFACE_SIDE_STYLE('',(#772));
#732=SURFACE_SIDE_STYLE('',(#773));
#733=SURFACE_SIDE_STYLE('',(#774));
#734=SURFACE_SIDE_STYLE('',(#775));
#735=SURFACE_SIDE_STYLE('',(#776));
#736=SURFACE_SIDE_STYLE('',(#777));
#737=SURFACE_SIDE_STYLE('',(#778));
#738=SURFACE_SIDE_STYLE('',(#779));
#739=SURFACE_SIDE_STYLE('',(#780));
#740=SURFACE_SIDE_STYLE('',(#781));
#741=SURFACE_SIDE_STYLE('',(#782));
#742=SURFACE_SIDE_STYLE('',(#783));
#743=SURFACE_SIDE_STYLE('',(#784));
#744=SURFACE_SIDE_STYLE('',(#785));
#745=SURFACE_SIDE_STYLE('',(#786));
#746=SURFACE_STYLE_FILL_AREA(#787);
#747=SURFACE_STYLE_FILL_AREA(#788);
#748=SURFACE_STYLE_FILL_AREA(#789);
#749=SURFACE_STYLE_FILL_AREA(#790);
#750=SURFACE_STYLE_FILL_AREA(#791);
#751=SURFACE_STYLE_FILL_AREA(#792);
#752=SURFACE_STYLE_FILL_AREA(#793);
#753=SURFACE_STYLE_FILL_AREA(#794);
#754=SURFACE_STYLE_FILL_AREA(#795);
#755=SURFACE_STYLE_FILL_AREA(#796);
#756=SURFACE_STYLE_FILL_AREA(#797);
#757=SURFACE_STYLE_FILL_AREA(#798);
#758=SURFACE_STYLE_FILL_AREA(#799);
#759=SURFACE_STYLE_FILL_AREA(#800);
#760=SURFACE_STYLE_FILL_AREA(#801);
#761=SURFACE_STYLE_FILL_AREA(#802);
#762=SURFACE_STYLE_FILL_AREA(#803);
#763=SURFACE_STYLE_FILL_AREA(#804);
#764=SURFACE_STYLE_FILL_AREA(#805);
#765=SURFACE_STYLE_FILL_AREA(#806);
#766=SURFACE_STYLE_FILL_AREA(#807);
#767=SURFACE_STYLE_FILL_AREA(#808);
#768=SURFACE_STYLE_FILL_AREA(#809);
#769=SURFACE_STYLE_FILL_AREA(#810);
#770=SURFACE_STYLE_FILL_AREA(#811);
#771=SURFACE_STYLE_FILL_AREA(#812);
#772=SURFACE_STYLE_FILL_AREA(#813);
#773=SURFACE_STYLE_FILL_AREA(#814);
#774=SURFACE_STYLE_FILL_AREA(#815);
#775=SURFACE_STYLE_FILL_AREA(#816);
#776=SURFACE_STYLE_FILL_AREA(#817);
#777=SURFACE_STYLE_FILL_AREA(#818);
#778=SURFACE_STYLE_FILL_AREA(#819);
#779=SURFACE_STYLE_FILL_AREA(#820);
#780=SURFACE_STYLE_FILL_AREA(#821);
#781=SURFACE_STYLE_FILL_AREA(#822);
#782=SURFACE_STYLE_FILL_AREA(#823);
#783=SURFACE_STYLE_FILL_AREA(#824);
#784=SURFACE_STYLE_FILL_AREA(#825);
#785=SURFACE_STYLE_FILL_AREA(#826);
#786=SURFACE_STYLE_FILL_AREA(#827);
#787=FILL_AREA_STYLE('',(#828));
#788=FILL_AREA_STYLE('',(#829));
#789=FILL_AREA_STYLE('',(#830));
#790=FILL_AREA_STYLE('',(#831));
#791=FILL_AREA_STYLE('',(#832));
#792=FILL_AREA_STYLE('',(#833));
#793=FILL_AREA_STYLE('',(#834));
#794=FILL_AREA_STYLE('',(#835));
#795=FILL_AREA_STYLE('',(#836));
#796=FILL_AREA_STYLE('',(#837));
#797=FILL_AREA_STYLE('',(#838));
#798=FILL_AREA_STYLE('',(#839));
#799=FILL_AREA_STYLE('',(#840));
#800=FILL_AREA_STYLE('',(#841));
#801=FILL_AREA_STYLE('',(#842));
#802=FILL_AREA_STYLE('',(#843));
#803=FILL_AREA_STYLE('',(#844));
#804=FILL_AREA_STYLE('',(#845));
#805=FILL_AREA_STYLE('',(#846));
#806=FILL_AREA_STYLE('',(#847));
#807=FILL_AREA_STYLE('',(#848));
#808=FILL_AREA_STYLE('',(#849));
#809=FILL_AREA_STYLE('',(#850));
#810=FILL_AREA_STYLE('',(#851));
#811=FILL_AREA_STYLE('',(#852));
#812=FILL_AREA_STYLE('',(#853));
#813=FILL_AREA_STYLE('',(#854));
#814=FILL_AREA_STYLE('',(#855));
#815=FILL_AREA_STYLE('',(#856));
#816=FILL_AREA_STYLE('',(#857));
#817=FILL_AREA_STYLE('',(#858));
#818=FILL_AREA_STYLE('',(#859));
#819=FILL_AREA_STYLE('',(#860));
#820=FILL_AREA_STYLE('',(#861));
#821=FILL_AREA_STYLE('',(#862));
#822=FILL_AREA_STYLE('',(#863));
#823=FILL_AREA_STYLE('',(#864));
#824=FILL_AREA_STYLE('',(#865));
#825=FILL_AREA_STYLE('',(#866));
#826=FILL_AREA_STYLE('',(#867));
#827=FILL_AREA_STYLE('',(#868));
#828=FILL_AREA_STYLE_COLOUR('',#869);
#829=FILL_AREA_STYLE_COLOUR('',#869);
#830=FILL_AREA_STYLE_COLOUR('',#869);
#831=FILL_AREA_STYLE_COLOUR('',#869);
#832=FILL_AREA_STYLE_COLOUR('',#869);
#833=FILL_AREA_STYLE_COLOUR('',#869);
#834=FILL_AREA_STYLE_COLOUR('',#869);
#835=FILL_AREA_STYLE_COLOUR('',#869);
#836=FILL_AREA_STYLE_COLOUR('',#869);
#837=FILL_AREA_STYLE_COLOUR('',#869);
#838=FILL_AREA_STYLE_COLOUR('',#869);
#839=FILL_AREA_STYLE_COLOUR('',#869);
#840=FILL_AREA_STYLE_COLOUR('',#869);
#841=FILL_AREA_STYLE_COLOUR('',#869);
#842=FILL_AREA_STYLE_COLOUR('',#869);
#843=FILL_AREA_STYLE_COLOUR('',#869);
#844=FILL_AREA_STYLE_COLOUR('',#869);
#845=FILL_AREA_STYLE_COLOUR('',#869);
#846=FILL_AREA_STYLE_COLOUR('',#869);
#847=FILL_AREA_STYLE_COLOUR('',#869);
#848=FILL_AREA_STYLE_COLOUR('',#869);
#849=FILL_AREA_STYLE_COLOUR('',#869);
#850=FILL_AREA_STYLE_COLOUR('',#869);
#851=FILL_AREA_STYLE_COLOUR('',#869);
#852=FILL_AREA_STYLE_COLOUR('',#869);
#853=FILL_AREA_STYLE_COLOUR('',#869);
#854=FILL_AREA_STYLE_COLOUR('',#869);
#855=FILL_AREA_STYLE_COLOUR('',#869);
#856=FILL_AREA_STYLE_COLOUR('',#869);
#857=FILL_AREA_STYLE_COLOUR('',#869);
#858=FILL_AREA_STYLE_COLOUR('',#869);
#859=FILL_AREA_STYLE_COLOUR('',#869);
#860=FILL_AREA_STYLE_COLOUR('',#869);
#861=FILL_AREA_STYLE_COLOUR('',#869);
#862=FILL_AREA_STYLE_COLOUR('',#869);
#863=FILL_AREA_STYLE_COLOUR('',#869);
#864=FILL_AREA_STYLE_COLOUR('',#869);
#865=FILL_AREA_STYLE_COLOUR('',#869);
#866=FILL_AREA_STYLE_COLOUR('',#869);
#867=FILL_AREA_STYLE_COLOUR('',#869);
#868=FILL_AREA_STYLE_COLOUR('',#869);
#869=COLOUR_RGB('',0.506983280181885,0.531564235687256,0.550000011920929);
#870=MANIFOLD_SOLID_BREP('',#541);
#871=MANIFOLD_SOLID_BREP('',#542);
#872=MANIFOLD_SOLID_BREP('',#543);
#873=MANIFOLD_SOLID_BREP('',#544);
#874=MANIFOLD_SOLID_BREP('',#545);
#875=MANIFOLD_SOLID_BREP('',#546);
#876=MANIFOLD_SOLID_BREP('',#547);
#877=MANIFOLD_SOLID_BREP('',#548);
#878=MANIFOLD_SOLID_BREP('',#549);
#879=MANIFOLD_SOLID_BREP('',#550);
#880=MANIFOLD_SOLID_BREP('',#551);
#881=MANIFOLD_SOLID_BREP('',#552);
#882=MANIFOLD_SOLID_BREP('',#553);
#883=MANIFOLD_SOLID_BREP('',#554);
#884=MANIFOLD_SOLID_BREP('',#555);
#885=MANIFOLD_SOLID_BREP('',#556);
#886=MANIFOLD_SOLID_BREP('',#557);
#887=MANIFOLD_SOLID_BREP('',#558);
#888=MANIFOLD_SOLID_BREP('',#559);
#889=MANIFOLD_SOLID_BREP('',#560);
#890=MANIFOLD_SOLID_BREP('',#561);
#891=MANIFOLD_SOLID_BREP('',#562);
#892=MANIFOLD_SOLID_BREP('',#563);
#893=MANIFOLD_SOLID_BREP('',#564);
#894=MANIFOLD_SOLID_BREP('',#565);
#895=MANIFOLD_SOLID_BREP('',#566);
#896=MANIFOLD_SOLID_BREP('',#567);
#897=MANIFOLD_SOLID_BREP('',#568);
#898=MANIFOLD_SOLID_BREP('',#569);
#899=MANIFOLD_SOLID_BREP('',#570);
#900=MANIFOLD_SOLID_BREP('',#571);
#901=MANIFOLD_SOLID_BREP('',#572);
#902=MANIFOLD_SOLID_BREP('',#573);
#903=MANIFOLD_SOLID_BREP('',#574);
#904=MANIFOLD_SOLID_BREP('',#575);
#905=MANIFOLD_SOLID_BREP('',#576);
#906=MANIFOLD_SOLID_BREP('',#577);
#907=MANIFOLD_SOLID_BREP('',#578);
#908=MANIFOLD_SOLID_BREP('',#579);
#909=MANIFOLD_SOLID_BREP('',#580);
#910=MANIFOLD_SOLID_BREP('',#581);
#911=SHAPE_DEFINITION_REPRESENTATION(#1382,#912);
#912=SHAPE_REPRESENTATION('\X2\570667F15B548C035FC374038F74627F\X0\100
00-2RS\X2\578B\X0\',(#913),#1377);
#913=AXIS2_PLACEMENT_3D('',#1210,#1012,#1013);
#914=AXIS2_PLACEMENT_3D('',#1211,#1014,#1015);
#915=AXIS2_PLACEMENT_3D('',#1212,#1016,#1017);
#916=AXIS2_PLACEMENT_3D('',#1214,#1018,#1019);
#917=AXIS2_PLACEMENT_3D('',#1216,#1020,#1021);
#918=AXIS2_PLACEMENT_3D('',#1217,#1022,#1023);
#919=AXIS2_PLACEMENT_3D('',#1219,#1024,#1025);
#920=AXIS2_PLACEMENT_3D('',#1220,#1026,#1027);
#921=AXIS2_PLACEMENT_3D('',#1222,#1028,#1029);
#922=AXIS2_PLACEMENT_3D('',#1223,#1030,#1031);
#923=AXIS2_PLACEMENT_3D('',#1224,#1032,#1033);
#924=AXIS2_PLACEMENT_3D('',#1226,#1034,#1035);
#925=AXIS2_PLACEMENT_3D('',#1228,#1036,#1037);
#926=AXIS2_PLACEMENT_3D('',#1229,#1038,#1039);
#927=AXIS2_PLACEMENT_3D('',#1231,#1040,#1041);
#928=AXIS2_PLACEMENT_3D('',#1232,#1042,#1043);
#929=AXIS2_PLACEMENT_3D('',#1233,#1044,#1045);
#930=AXIS2_PLACEMENT_3D('',#1235,#1046,#1047);
#931=AXIS2_PLACEMENT_3D('',#1237,#1048,#1049);
#932=AXIS2_PLACEMENT_3D('',#1238,#1050,#1051);
#933=AXIS2_PLACEMENT_3D('',#1240,#1052,#1053);
#934=AXIS2_PLACEMENT_3D('',#1242,#1054,#1055);
#935=AXIS2_PLACEMENT_3D('',#1243,#1056,#1057);
#936=AXIS2_PLACEMENT_3D('',#1245,#1058,#1059);
#937=AXIS2_PLACEMENT_3D('',#1246,#1060,#1061);
#938=AXIS2_PLACEMENT_3D('',#1248,#1062,#1063);
#939=AXIS2_PLACEMENT_3D('',#1249,#1064,#1065);
#940=AXIS2_PLACEMENT_3D('',#1251,#1066,#1067);
#941=AXIS2_PLACEMENT_3D('',#1252,#1068,#1069);
#942=AXIS2_PLACEMENT_3D('',#1254,#1070,#1071);
#943=AXIS2_PLACEMENT_3D('',#1255,#1072,#1073);
#944=AXIS2_PLACEMENT_3D('',#1257,#1074,#1075);
#945=AXIS2_PLACEMENT_3D('',#1258,#1076,#1077);
#946=AXIS2_PLACEMENT_3D('',#1260,#1078,#1079);
#947=AXIS2_PLACEMENT_3D('',#1261,#1080,#1081);
#948=AXIS2_PLACEMENT_3D('',#1262,#1082,#1083);
#949=AXIS2_PLACEMENT_3D('',#1263,#1084,#1085);
#950=AXIS2_PLACEMENT_3D('',#1265,#1086,#1087);
#951=AXIS2_PLACEMENT_3D('',#1267,#1088,#1089);
#952=AXIS2_PLACEMENT_3D('',#1268,#1090,#1091);
#953=AXIS2_PLACEMENT_3D('',#1270,#1092,#1093);
#954=AXIS2_PLACEMENT_3D('',#1272,#1094,#1095);
#955=AXIS2_PLACEMENT_3D('',#1273,#1096,#1097);
#956=AXIS2_PLACEMENT_3D('',#1275,#1098,#1099);
#957=AXIS2_PLACEMENT_3D('',#1277,#1100,#1101);
#958=AXIS2_PLACEMENT_3D('',#1278,#1102,#1103);
#959=AXIS2_PLACEMENT_3D('',#1279,#1104,#1105);
#960=AXIS2_PLACEMENT_3D('',#1280,#1106,#1107);
#961=AXIS2_PLACEMENT_3D('',#1282,#1108,#1109);
#962=AXIS2_PLACEMENT_3D('',#1284,#1110,#1111);
#963=AXIS2_PLACEMENT_3D('',#1285,#1112,#1113);
#964=AXIS2_PLACEMENT_3D('',#1286,#1114,#1115);
#965=AXIS2_PLACEMENT_3D('',#1288,#1116,#1117);
#966=AXIS2_PLACEMENT_3D('',#1290,#1118,#1119);
#967=AXIS2_PLACEMENT_3D('',#1291,#1120,#1121);
#968=AXIS2_PLACEMENT_3D('',#1292,#1122,#1123);
#969=AXIS2_PLACEMENT_3D('',#1294,#1124,#1125);
#970=AXIS2_PLACEMENT_3D('',#1296,#1126,#1127);
#971=AXIS2_PLACEMENT_3D('',#1298,#1128,#1129);
#972=AXIS2_PLACEMENT_3D('',#1300,#1130,#1131);
#973=AXIS2_PLACEMENT_3D('',#1302,#1132,#1133);
#974=AXIS2_PLACEMENT_3D('',#1304,#1134,#1135);
#975=AXIS2_PLACEMENT_3D('',#1306,#1136,#1137);
#976=AXIS2_PLACEMENT_3D('',#1308,#1138,#1139);
#977=AXIS2_PLACEMENT_3D('',#1310,#1140,#1141);
#978=AXIS2_PLACEMENT_3D('',#1312,#1142,#1143);
#979=AXIS2_PLACEMENT_3D('',#1314,#1144,#1145);
#980=AXIS2_PLACEMENT_3D('',#1316,#1146,#1147);
#981=AXIS2_PLACEMENT_3D('',#1318,#1148,#1149);
#982=AXIS2_PLACEMENT_3D('',#1320,#1150,#1151);
#983=AXIS2_PLACEMENT_3D('',#1322,#1152,#1153);
#984=AXIS2_PLACEMENT_3D('',#1324,#1154,#1155);
#985=AXIS2_PLACEMENT_3D('',#1326,#1156,#1157);
#986=AXIS2_PLACEMENT_3D('',#1328,#1158,#1159);
#987=AXIS2_PLACEMENT_3D('',#1330,#1160,#1161);
#988=AXIS2_PLACEMENT_3D('',#1332,#1162,#1163);
#989=AXIS2_PLACEMENT_3D('',#1334,#1164,#1165);
#990=AXIS2_PLACEMENT_3D('',#1336,#1166,#1167);
#991=AXIS2_PLACEMENT_3D('',#1338,#1168,#1169);
#992=AXIS2_PLACEMENT_3D('',#1340,#1170,#1171);
#993=AXIS2_PLACEMENT_3D('',#1342,#1172,#1173);
#994=AXIS2_PLACEMENT_3D('',#1344,#1174,#1175);
#995=AXIS2_PLACEMENT_3D('',#1346,#1176,#1177);
#996=AXIS2_PLACEMENT_3D('',#1348,#1178,#1179);
#997=AXIS2_PLACEMENT_3D('',#1350,#1180,#1181);
#998=AXIS2_PLACEMENT_3D('',#1352,#1182,#1183);
#999=AXIS2_PLACEMENT_3D('',#1354,#1184,#1185);
#1000=AXIS2_PLACEMENT_3D('',#1356,#1186,#1187);
#1001=AXIS2_PLACEMENT_3D('',#1358,#1188,#1189);
#1002=AXIS2_PLACEMENT_3D('',#1360,#1190,#1191);
#1003=AXIS2_PLACEMENT_3D('',#1362,#1192,#1193);
#1004=AXIS2_PLACEMENT_3D('',#1364,#1194,#1195);
#1005=AXIS2_PLACEMENT_3D('',#1365,#1196,#1197);
#1006=AXIS2_PLACEMENT_3D('',#1367,#1198,#1199);
#1007=AXIS2_PLACEMENT_3D('',#1369,#1200,#1201);
#1008=AXIS2_PLACEMENT_3D('',#1370,#1202,#1203);
#1009=AXIS2_PLACEMENT_3D('',#1372,#1204,#1205);
#1010=AXIS2_PLACEMENT_3D('',#1373,#1206,#1207);
#1011=AXIS2_PLACEMENT_3D('',#1375,#1208,#1209);
#1012=DIRECTION('',(0.,0.,1.));
#1013=DIRECTION('',(1.,0.,0.));
#1014=DIRECTION('',(1.,0.,0.));
#1015=DIRECTION('',(0.,0.,1.));
#1016=DIRECTION('',(-1.,0.,0.));
#1017=DIRECTION('',(0.,0.,1.));
#1018=DIRECTION('',(-1.,0.,0.));
#1019=DIRECTION('',(0.,0.,1.));
#1020=DIRECTION('',(1.,0.,0.));
#1021=DIRECTION('',(0.,0.,1.));
#1022=DIRECTION('',(-1.,0.,0.));
#1023=DIRECTION('',(0.,0.,1.));
#1024=DIRECTION('',(-1.,0.,0.));
#1025=DIRECTION('',(0.,0.,-1.));
#1026=DIRECTION('',(-1.,0.,0.));
#1027=DIRECTION('',(0.,0.,1.));
#1028=DIRECTION('',(-1.,0.,0.));
#1029=DIRECTION('',(0.,0.,-1.));
#1030=DIRECTION('',(-1.,0.,0.));
#1031=DIRECTION('',(0.,0.,1.));
#1032=DIRECTION('',(-1.,0.,0.));
#1033=DIRECTION('',(0.,0.,1.));
#1034=DIRECTION('',(-1.,0.,0.));
#1035=DIRECTION('',(0.,0.,1.));
#1036=DIRECTION('',(-1.,0.,0.));
#1037=DIRECTION('',(0.,0.,1.));
#1038=DIRECTION('',(-1.,0.,0.));
#1039=DIRECTION('',(0.,0.,1.));
#1040=DIRECTION('',(-1.,0.,0.));
#1041=DIRECTION('',(0.,0.,1.));
#1042=DIRECTION('',(-1.,0.,0.));
#1043=DIRECTION('',(0.,0.,1.));
#1044=DIRECTION('',(1.,0.,0.));
#1045=DIRECTION('',(0.,0.,-1.));
#1046=DIRECTION('',(-1.,0.,0.));
#1047=DIRECTION('',(0.,0.,1.));
#1048=DIRECTION('',(-1.,0.,0.));
#1049=DIRECTION('',(0.,0.,1.));
#1050=DIRECTION('',(-1.,0.,0.));
#1051=DIRECTION('',(0.,0.,1.));
#1052=DIRECTION('',(-1.,0.,0.));
#1053=DIRECTION('',(0.,0.,1.));
#1054=DIRECTION('',(-1.,0.,0.));
#1055=DIRECTION('',(0.,0.,1.));
#1056=DIRECTION('',(-1.,0.,0.));
#1057=DIRECTION('',(0.,0.,1.));
#1058=DIRECTION('',(-1.,0.,0.));
#1059=DIRECTION('',(0.,0.,1.));
#1060=DIRECTION('',(-1.,0.,0.));
#1061=DIRECTION('',(0.,0.,1.));
#1062=DIRECTION('',(-1.,0.,0.));
#1063=DIRECTION('',(0.,0.,1.));
#1064=DIRECTION('',(-1.,0.,0.));
#1065=DIRECTION('',(0.,0.,1.));
#1066=DIRECTION('',(-1.,0.,0.));
#1067=DIRECTION('',(0.,0.,1.));
#1068=DIRECTION('',(-1.,0.,0.));
#1069=DIRECTION('',(0.,0.,1.));
#1070=DIRECTION('',(-1.,0.,0.));
#1071=DIRECTION('',(0.,0.,1.));
#1072=DIRECTION('',(-1.,0.,0.));
#1073=DIRECTION('',(0.,0.,1.));
#1074=DIRECTION('',(1.,0.,0.));
#1075=DIRECTION('',(0.,0.,-1.));
#1076=DIRECTION('',(1.,0.,0.));
#1077=DIRECTION('',(0.,0.,-1.));
#1078=DIRECTION('',(-1.,0.,0.));
#1079=DIRECTION('',(0.,0.,1.));
#1080=DIRECTION('',(1.,0.,0.));
#1081=DIRECTION('',(0.,0.,-1.));
#1082=DIRECTION('',(-1.,0.,0.));
#1083=DIRECTION('',(0.,0.,1.));
#1084=DIRECTION('',(-1.,0.,0.));
#1085=DIRECTION('',(0.,0.,1.));
#1086=DIRECTION('',(-1.,0.,0.));
#1087=DIRECTION('',(0.,0.,1.));
#1088=DIRECTION('',(-1.,0.,0.));
#1089=DIRECTION('',(0.,0.,1.));
#1090=DIRECTION('',(-1.,0.,0.));
#1091=DIRECTION('',(0.,0.,1.));
#1092=DIRECTION('',(1.,0.,0.));
#1093=DIRECTION('',(0.,0.,-1.));
#1094=DIRECTION('',(1.,0.,0.));
#1095=DIRECTION('',(0.,0.,-1.));
#1096=DIRECTION('',(-1.,0.,0.));
#1097=DIRECTION('',(0.,0.,1.));
#1098=DIRECTION('',(1.,0.,0.));
#1099=DIRECTION('',(0.,0.,-1.));
#1100=DIRECTION('',(1.,0.,0.));
#1101=DIRECTION('',(0.,0.,-1.));
#1102=DIRECTION('',(-1.,0.,0.));
#1103=DIRECTION('',(0.,0.,1.));
#1104=DIRECTION('',(-1.,0.,0.));
#1105=DIRECTION('',(0.,0.,1.));
#1106=DIRECTION('',(-1.,0.,0.));
#1107=DIRECTION('',(0.,0.,1.));
#1108=DIRECTION('',(-1.,0.,0.));
#1109=DIRECTION('',(0.,0.,1.));
#1110=DIRECTION('',(-1.,0.,0.));
#1111=DIRECTION('',(0.,0.,1.));
#1112=DIRECTION('',(-1.,0.,0.));
#1113=DIRECTION('',(0.,0.,1.));
#1114=DIRECTION('',(-1.,0.,0.));
#1115=DIRECTION('',(0.,0.,1.));
#1116=DIRECTION('',(-1.,0.,0.));
#1117=DIRECTION('',(0.,0.,1.));
#1118=DIRECTION('',(-1.,0.,0.));
#1119=DIRECTION('',(0.,0.,1.));
#1120=DIRECTION('',(-1.,0.,0.));
#1121=DIRECTION('',(0.,0.,1.));
#1122=DIRECTION('',(3.12278727462981E-16,0.,-1.));
#1123=DIRECTION('',(1.,0.,3.12278727462981E-16));
#1124=DIRECTION('',(-3.12278727462981E-16,0.,-1.));
#1125=DIRECTION('',(-1.,0.,3.12278727462981E-16));
#1126=DIRECTION('',(-3.12278727462981E-16,-0.64278760968654,-0.766044443118978));
#1127=DIRECTION('',(-1.,2.00728896781884E-16,2.39219383877282E-16));
#1128=DIRECTION('',(3.12278727462981E-16,-0.64278760968654,-0.766044443118978));
#1129=DIRECTION('',(1.,2.00728896781884E-16,2.39219383877282E-16));
#1130=DIRECTION('',(-3.12278727462981E-16,-0.984807753012208,-0.17364817766693));
#1131=DIRECTION('',(-1.,3.0753451190633E-16,5.42266319480945E-17));
#1132=DIRECTION('',(3.12278727462981E-16,-0.984807753012208,-0.17364817766693));
#1133=DIRECTION('',(1.,3.0753451190633E-16,5.42266319480945E-17));
#1134=DIRECTION('',(-3.12278727462981E-16,-0.866025403784438,0.5));
#1135=DIRECTION('',(-1.,2.70441311044419E-16,-1.56139363731491E-16));
#1136=DIRECTION('',(3.12278727462981E-16,-0.866025403784438,0.5));
#1137=DIRECTION('',(1.,2.70441311044419E-16,-1.56139363731491E-16));
#1138=DIRECTION('',(-3.12278727462981E-16,-0.342020143325668,0.939692620785909));
#1139=DIRECTION('',(-1.,1.06805615124446E-16,-2.93446015825377E-16));
#1140=DIRECTION('',(3.12278727462981E-16,-0.342020143325668,0.939692620785909));
#1141=DIRECTION('',(1.,1.06805615124446E-16,-2.93446015825377E-16));
#1142=DIRECTION('',(-3.12278727462981E-16,0.342020143325669,0.939692620785908));
#1143=DIRECTION('',(-1.,-1.06805615124446E-16,-2.93446015825377E-16));
#1144=DIRECTION('',(3.12278727462981E-16,0.342020143325669,0.939692620785908));
#1145=DIRECTION('',(1.,-1.06805615124446E-16,-2.93446015825377E-16));
#1146=DIRECTION('',(-3.12278727462981E-16,0.866025403784439,0.5));
#1147=DIRECTION('',(-1.,-2.70441311044419E-16,-1.5613936373149E-16));
#1148=DIRECTION('',(3.12278727462981E-16,0.866025403784439,0.5));
#1149=DIRECTION('',(1.,-2.70441311044419E-16,-1.5613936373149E-16));
#1150=DIRECTION('',(-3.12278727462981E-16,0.984807753012208,-0.17364817766693));
#1151=DIRECTION('',(-1.,-3.0753451190633E-16,5.42266319480945E-17));
#1152=DIRECTION('',(3.12278727462981E-16,0.984807753012208,-0.17364817766693));
#1153=DIRECTION('',(1.,-3.0753451190633E-16,5.42266319480945E-17));
#1154=DIRECTION('',(-3.12278727462981E-16,0.64278760968654,-0.766044443118978));
#1155=DIRECTION('',(-1.,-2.00728896781884E-16,2.39219383877282E-16));
#1156=DIRECTION('',(3.12278727462981E-16,0.64278760968654,-0.766044443118978));
#1157=DIRECTION('',(1.,-2.00728896781884E-16,2.39219383877282E-16));
#1158=DIRECTION('',(-3.12278727462981E-16,-0.342020143325669,-0.939692620785908));
#1159=DIRECTION('',(-1.,1.06805615124446E-16,2.93446015825377E-16));
#1160=DIRECTION('',(3.12278727462981E-16,-0.342020143325669,-0.939692620785908));
#1161=DIRECTION('',(1.,1.06805615124446E-16,2.93446015825377E-16));
#1162=DIRECTION('',(-3.12278727462981E-16,-0.866025403784439,-0.499999999999999));
#1163=DIRECTION('',(-1.,2.70441311044419E-16,1.5613936373149E-16));
#1164=DIRECTION('',(3.12278727462981E-16,-0.866025403784439,-0.499999999999999));
#1165=DIRECTION('',(1.,2.70441311044419E-16,1.5613936373149E-16));
#1166=DIRECTION('',(-3.12278727462981E-16,-0.984807753012208,0.17364817766693));
#1167=DIRECTION('',(-1.,3.0753451190633E-16,-5.42266319480946E-17));
#1168=DIRECTION('',(3.12278727462981E-16,-0.984807753012208,0.17364817766693));
#1169=DIRECTION('',(1.,3.0753451190633E-16,-5.42266319480946E-17));
#1170=DIRECTION('',(-3.12278727462981E-16,-0.642787609686539,0.766044443118978));
#1171=DIRECTION('',(-1.,2.00728896781884E-16,-2.39219383877282E-16));
#1172=DIRECTION('',(3.12278727462981E-16,-0.642787609686539,0.766044443118978));
#1173=DIRECTION('',(1.,2.00728896781884E-16,-2.39219383877282E-16));
#1174=DIRECTION('',(-3.12278727462981E-16,1.22464679914735E-16,1.));
#1175=DIRECTION('',(-1.,-3.82431144029348E-32,-3.12278727462981E-16));
#1176=DIRECTION('',(3.12278727462981E-16,1.22464679914735E-16,1.));
#1177=DIRECTION('',(1.,-3.82431144029348E-32,-3.12278727462981E-16));
#1178=DIRECTION('',(-3.12278727462981E-16,0.642787609686539,0.766044443118978));
#1179=DIRECTION('',(-1.,-2.00728896781884E-16,-2.39219383877282E-16));
#1180=DIRECTION('',(3.12278727462981E-16,0.642787609686539,0.766044443118978));
#1181=DIRECTION('',(1.,-2.00728896781884E-16,-2.39219383877282E-16));
#1182=DIRECTION('',(-3.12278727462981E-16,0.984807753012208,0.17364817766693));
#1183=DIRECTION('',(-1.,-3.0753451190633E-16,-5.42266319480946E-17));
#1184=DIRECTION('',(3.12278727462981E-16,0.984807753012208,0.17364817766693));
#1185=DIRECTION('',(1.,-3.0753451190633E-16,-5.42266319480946E-17));
#1186=DIRECTION('',(-3.12278727462981E-16,0.866025403784439,-0.5));
#1187=DIRECTION('',(-1.,-2.70441311044419E-16,1.5613936373149E-16));
#1188=DIRECTION('',(3.12278727462981E-16,0.866025403784439,-0.5));
#1189=DIRECTION('',(1.,-2.70441311044419E-16,1.5613936373149E-16));
#1190=DIRECTION('',(-3.12278727462981E-16,0.342020143325669,-0.939692620785908));
#1191=DIRECTION('',(-1.,-1.06805615124446E-16,2.93446015825377E-16));
#1192=DIRECTION('',(3.12278727462981E-16,0.342020143325669,-0.939692620785908));
#1193=DIRECTION('',(1.,-1.06805615124446E-16,2.93446015825377E-16));
#1194=DIRECTION('',(-1.,0.,0.));
#1195=DIRECTION('',(0.,0.,1.));
#1196=DIRECTION('',(-1.,0.,0.));
#1197=DIRECTION('',(0.,0.,1.));
#1198=DIRECTION('',(-1.,0.,0.));
#1199=DIRECTION('',(0.,0.,1.));
#1200=DIRECTION('',(-1.,0.,0.));
#1201=DIRECTION('',(0.,0.,1.));
#1202=DIRECTION('',(-1.,0.,0.));
#1203=DIRECTION('',(0.,0.,1.));
#1204=DIRECTION('',(1.,0.,0.));
#1205=DIRECTION('',(0.,0.,-1.));
#1206=DIRECTION('',(-1.,0.,0.));
#1207=DIRECTION('',(0.,0.,1.));
#1208=DIRECTION('',(1.,0.,0.));
#1209=DIRECTION('',(0.,0.,-1.));
#1210=CARTESIAN_POINT('',(0.,0.,0.));
#1211=CARTESIAN_POINT('',(6.21,0.,11.4714285714286));
#1212=CARTESIAN_POINT('',(6.21,0.,0.));
#1213=CARTESIAN_POINT('',(6.21,0.,14.4717701442462));
#1214=CARTESIAN_POINT('',(6.21,0.,0.));
#1215=CARTESIAN_POINT('',(6.21,0.,11.4714285714286));
#1216=CARTESIAN_POINT('',(0.,0.,0.));
#1217=CARTESIAN_POINT('',(6.6,0.,0.));
#1218=CARTESIAN_POINT('',(6.6,0.,14.4717701442462));
#1219=CARTESIAN_POINT('',(6.6,0.,14.4717701442462));
#1220=CARTESIAN_POINT('',(6.6,0.,0.));
#1221=CARTESIAN_POINT('',(6.6,0.,11.0814285714286));
#1222=CARTESIAN_POINT('',(6.6,0.,0.));
#1223=CARTESIAN_POINT('',(-2.09314318678149,0.,0.));
#1224=CARTESIAN_POINT('',(-0.00698472966396276,0.,0.));
#1225=CARTESIAN_POINT('',(-0.00698472966396276,0.,12.9068549232753));
#1226=CARTESIAN_POINT('',(-1.30104260698261E-15,0.,0.));
#1227=CARTESIAN_POINT('',(-1.30104260698261E-15,0.,12.7360003296386));
#1228=CARTESIAN_POINT('',(0.,0.,0.));
#1229=CARTESIAN_POINT('',(0.00698472966395802,0.,0.));
#1230=CARTESIAN_POINT('',(0.00698472966395802,0.,12.9068549232753));
#1231=CARTESIAN_POINT('',(2.09314318678149,0.,0.));
#1232=CARTESIAN_POINT('',(0.,0.,0.));
#1233=CARTESIAN_POINT('',(-6.4,0.,0.));
#1234=CARTESIAN_POINT('',(-6.4,0.,-7.5));
#1235=CARTESIAN_POINT('',(6.39999999999999,0.,0.));
#1236=CARTESIAN_POINT('',(6.39999999999999,0.,7.5));
#1237=CARTESIAN_POINT('',(6.99999999999999,0.,10.8437517860252));
#1238=CARTESIAN_POINT('',(6.99999999999999,0.,0.));
#1239=CARTESIAN_POINT('',(6.99999999999999,0.,8.1));
#1240=CARTESIAN_POINT('',(7.,0.,0.));
#1241=CARTESIAN_POINT('',(7.,0.,11.0714285714286));
#1242=CARTESIAN_POINT('',(0.,0.,0.));
#1243=CARTESIAN_POINT('',(3.36217796256158,0.,0.));
#1244=CARTESIAN_POINT('',(3.36217796256158,0.,11.0714285714286));
#1245=CARTESIAN_POINT('',(2.09314318678149,0.,0.));
#1246=CARTESIAN_POINT('',(0.824108411001393,0.,0.));
#1247=CARTESIAN_POINT('',(0.824108411001393,0.,11.0714285714286));
#1248=CARTESIAN_POINT('',(0.,0.,0.));
#1249=CARTESIAN_POINT('',(-0.824108411001395,0.,0.));
#1250=CARTESIAN_POINT('',(-0.824108411001395,0.,11.0714285714286));
#1251=CARTESIAN_POINT('',(-2.09314318678149,0.,0.));
#1252=CARTESIAN_POINT('',(-3.36217796256158,0.,0.));
#1253=CARTESIAN_POINT('',(-3.36217796256158,0.,11.0714285714286));
#1254=CARTESIAN_POINT('',(0.,0.,0.));
#1255=CARTESIAN_POINT('',(-7.,0.,0.));
#1256=CARTESIAN_POINT('',(-7.,0.,11.0714285714286));
#1257=CARTESIAN_POINT('',(-7.,0.,11.0714285714286));
#1258=CARTESIAN_POINT('',(-7.,0.,0.));
#1259=CARTESIAN_POINT('',(-7.,0.,-8.1));
#1260=CARTESIAN_POINT('',(6.39999999999999,0.,0.));
#1261=CARTESIAN_POINT('',(-6.4,0.,0.));
#1262=CARTESIAN_POINT('',(7.,0.,13.2664991614216));
#1263=CARTESIAN_POINT('',(7.00000000000001,0.,0.));
#1264=CARTESIAN_POINT('',(7.00000000000001,0.,14.4817701442462));
#1265=CARTESIAN_POINT('',(7.,0.,0.));
#1266=CARTESIAN_POINT('',(7.,0.,16.9));
#1267=CARTESIAN_POINT('',(0.,0.,0.));
#1268=CARTESIAN_POINT('',(6.4,0.,0.));
#1269=CARTESIAN_POINT('',(6.4,0.,17.5));
#1270=CARTESIAN_POINT('',(-6.4,0.,0.));
#1271=CARTESIAN_POINT('',(-6.4,0.,-17.5));
#1272=CARTESIAN_POINT('',(-7.,0.,17.5));
#1273=CARTESIAN_POINT('',(-7.00000000000001,0.,0.));
#1274=CARTESIAN_POINT('',(-7.00000000000001,0.,14.4817701442462));
#1275=CARTESIAN_POINT('',(-7.,0.,0.));
#1276=CARTESIAN_POINT('',(-7.,0.,-16.9));
#1277=CARTESIAN_POINT('',(-6.4,0.,0.));
#1278=CARTESIAN_POINT('',(6.4,0.,0.));
#1279=CARTESIAN_POINT('',(-6.2,0.,11.0714285714286));
#1280=CARTESIAN_POINT('',(-6.2,0.,0.));
#1281=CARTESIAN_POINT('',(-6.2,0.,14.4817701442462));
#1282=CARTESIAN_POINT('',(-6.2,0.,0.));
#1283=CARTESIAN_POINT('',(-6.2,0.,13.6586968631711));
#1284=CARTESIAN_POINT('',(-60.,0.,0.));
#1285=CARTESIAN_POINT('',(6.2,0.,11.0714285714286));
#1286=CARTESIAN_POINT('',(6.2,0.,0.));
#1287=CARTESIAN_POINT('',(6.2,0.,14.4817701442462));
#1288=CARTESIAN_POINT('',(6.2,0.,0.));
#1289=CARTESIAN_POINT('',(6.2,0.,13.6586968631711));
#1290=CARTESIAN_POINT('',(-60.,0.,0.));
#1291=CARTESIAN_POINT('',(0.,0.,0.));
#1292=CARTESIAN_POINT('',(-2.09314318678149,0.,12.7360003296386));
#1293=CARTESIAN_POINT('',(-2.09314318678149,0.,14.8191435164201));
#1294=CARTESIAN_POINT('',(2.09314318678149,0.,12.7360003296386));
#1295=CARTESIAN_POINT('',(2.09314318678149,0.,14.8191435164201));
#1296=CARTESIAN_POINT('',(2.09314318678149,8.1865432088554,9.75634228008115));
#1297=CARTESIAN_POINT('',(2.09314318678149,9.52556183852147,11.3521225425363));
#1298=CARTESIAN_POINT('',(-2.09314318678149,8.1865432088554,9.75634228008115));
#1299=CARTESIAN_POINT('',(-2.09314318678149,9.52556183852147,11.3521225425363));
#1300=CARTESIAN_POINT('',(2.09314318678149,12.5425118669942,2.21158324800717));
#1301=CARTESIAN_POINT('',(2.09314318678149,14.5940074279711,2.57331726621106));
#1302=CARTESIAN_POINT('',(-2.09314318678149,12.5425118669942,2.21158324800717));
#1303=CARTESIAN_POINT('',(-2.09314318678149,14.5940074279711,2.57331726621106));
#1304=CARTESIAN_POINT('',(2.09314318678149,11.029699828074,-6.36800016481932));
#1305=CARTESIAN_POINT('',(2.09314318678149,12.8337547475473,-7.40957175821007));
#1306=CARTESIAN_POINT('',(-2.09314318678149,11.029699828074,-6.36800016481932));
#1307=CARTESIAN_POINT('',(-2.09314318678149,12.8337547475473,-7.40957175821007));
#1308=CARTESIAN_POINT('',(2.09314318678149,4.35596865813876,-11.9679255280883));
#1309=CARTESIAN_POINT('',(2.09314318678149,5.06844558944966,-13.9254398087473));
#1310=CARTESIAN_POINT('',(-2.09314318678149,4.35596865813876,-11.9679255280883));
#1311=CARTESIAN_POINT('',(-2.09314318678149,5.06844558944966,-13.9254398087473));
#1312=CARTESIAN_POINT('',(2.09314318678149,-4.35596865813877,-11.9679255280883));
#1313=CARTESIAN_POINT('',(2.09314318678149,-5.06844558944967,-13.9254398087473));
#1314=CARTESIAN_POINT('',(-2.09314318678149,-4.35596865813877,-11.9679255280883));
#1315=CARTESIAN_POINT('',(-2.09314318678149,-5.06844558944967,-13.9254398087473));
#1316=CARTESIAN_POINT('',(2.09314318678149,-11.029699828074,-6.36800016481931));
#1317=CARTESIAN_POINT('',(2.09314318678149,-12.8337547475473,-7.40957175821006));
#1318=CARTESIAN_POINT('',(-2.09314318678149,-11.029699828074,-6.36800016481931));
#1319=CARTESIAN_POINT('',(-2.09314318678149,-12.8337547475473,-7.40957175821006));
#1320=CARTESIAN_POINT('',(2.09314318678149,-12.5425118669942,2.21158324800717));
#1321=CARTESIAN_POINT('',(2.09314318678149,-14.5940074279711,2.57331726621106));
#1322=CARTESIAN_POINT('',(-2.09314318678149,-12.5425118669942,2.21158324800717));
#1323=CARTESIAN_POINT('',(-2.09314318678149,-14.5940074279711,2.57331726621106));
#1324=CARTESIAN_POINT('',(2.09314318678149,-8.1865432088554,9.75634228008115));
#1325=CARTESIAN_POINT('',(2.09314318678149,-9.52556183852147,11.3521225425363));
#1326=CARTESIAN_POINT('',(-2.09314318678149,-8.1865432088554,9.75634228008115));
#1327=CARTESIAN_POINT('',(-2.09314318678149,-9.52556183852147,11.3521225425363));
#1328=CARTESIAN_POINT('',(2.09314318678149,4.35596865813878,11.9679255280883));
#1329=CARTESIAN_POINT('',(2.09314318678149,5.06844558944968,13.9254398087473));
#1330=CARTESIAN_POINT('',(-2.09314318678149,4.35596865813878,11.9679255280883));
#1331=CARTESIAN_POINT('',(-2.09314318678149,5.06844558944968,13.9254398087473));
#1332=CARTESIAN_POINT('',(2.09314318678149,11.029699828074,6.36800016481931));
#1333=CARTESIAN_POINT('',(2.09314318678149,12.8337547475473,7.40957175821005));
#1334=CARTESIAN_POINT('',(-2.09314318678149,11.029699828074,6.36800016481931));
#1335=CARTESIAN_POINT('',(-2.09314318678149,12.8337547475473,7.40957175821005));
#1336=CARTESIAN_POINT('',(2.09314318678149,12.5425118669942,-2.21158324800717));
#1337=CARTESIAN_POINT('',(2.09314318678149,14.5940074279711,-2.57331726621106));
#1338=CARTESIAN_POINT('',(-2.09314318678149,12.5425118669942,-2.21158324800717));
#1339=CARTESIAN_POINT('',(-2.09314318678149,14.5940074279711,-2.57331726621106));
#1340=CARTESIAN_POINT('',(2.09314318678149,8.18654320885539,-9.75634228008115));
#1341=CARTESIAN_POINT('',(2.09314318678149,9.52556183852147,-11.3521225425363));
#1342=CARTESIAN_POINT('',(-2.09314318678149,8.18654320885539,-9.75634228008115));
#1343=CARTESIAN_POINT('',(-2.09314318678149,9.52556183852147,-11.3521225425363));
#1344=CARTESIAN_POINT('',(2.09314318678149,-1.55971020376316E-15,-12.7360003296386));
#1345=CARTESIAN_POINT('',(2.09314318678149,-1.81482166734892E-15,-14.8191435164201));
#1346=CARTESIAN_POINT('',(-2.09314318678149,-1.55971020376316E-15,-12.7360003296386));
#1347=CARTESIAN_POINT('',(-2.09314318678149,-1.81482166734892E-15,-14.8191435164201));
#1348=CARTESIAN_POINT('',(2.09314318678149,-8.18654320885539,-9.75634228008115));
#1349=CARTESIAN_POINT('',(2.09314318678149,-9.52556183852147,-11.3521225425363));
#1350=CARTESIAN_POINT('',(-2.09314318678149,-8.18654320885539,-9.75634228008115));
#1351=CARTESIAN_POINT('',(-2.09314318678149,-9.52556183852147,-11.3521225425363));
#1352=CARTESIAN_POINT('',(2.09314318678149,-12.5425118669942,-2.21158324800717));
#1353=CARTESIAN_POINT('',(2.09314318678149,-14.5940074279711,-2.57331726621106));
#1354=CARTESIAN_POINT('',(-2.09314318678149,-12.5425118669942,-2.21158324800717));
#1355=CARTESIAN_POINT('',(-2.09314318678149,-14.5940074279711,-2.57331726621106));
#1356=CARTESIAN_POINT('',(2.09314318678149,-11.029699828074,6.36800016481932));
#1357=CARTESIAN_POINT('',(2.09314318678149,-12.8337547475473,7.40957175821006));
#1358=CARTESIAN_POINT('',(-2.09314318678149,-11.029699828074,6.36800016481932));
#1359=CARTESIAN_POINT('',(-2.09314318678149,-12.8337547475473,7.40957175821006));
#1360=CARTESIAN_POINT('',(2.09314318678149,-4.35596865813878,11.9679255280883));
#1361=CARTESIAN_POINT('',(2.09314318678149,-5.06844558944968,13.9254398087473));
#1362=CARTESIAN_POINT('',(-2.09314318678149,-4.35596865813878,11.9679255280883));
#1363=CARTESIAN_POINT('',(-2.09314318678149,-5.06844558944968,13.9254398087473));
#1364=CARTESIAN_POINT('',(-6.21,0.,11.4714285714286));
#1365=CARTESIAN_POINT('',(-6.21,0.,0.));
#1366=CARTESIAN_POINT('',(-6.21,0.,14.4717701442462));
#1367=CARTESIAN_POINT('',(-6.21,0.,0.));
#1368=CARTESIAN_POINT('',(-6.21,0.,11.4714285714286));
#1369=CARTESIAN_POINT('',(0.,0.,0.));
#1370=CARTESIAN_POINT('',(-6.6,0.,0.));
#1371=CARTESIAN_POINT('',(-6.6,0.,14.4717701442462));
#1372=CARTESIAN_POINT('',(-6.6,0.,14.4717701442462));
#1373=CARTESIAN_POINT('',(-6.6,0.,0.));
#1374=CARTESIAN_POINT('',(-6.6,0.,11.0814285714286));
#1375=CARTESIAN_POINT('',(-6.6,0.,0.));
#1376=MECHANICAL_DESIGN_GEOMETRIC_PRESENTATION_REPRESENTATION('',(#582,
#583,#584,#585,#586,#587,#588,#589,#590,#591,#592,#593,#594,#595,#596,#597,
#598,#599,#600,#601,#602,#603,#604,#605,#606,#607,#608,#609,#610,#611,#612,
#613,#614,#615,#616,#617,#618,#619,#620,#621,#622),#1377);
#1377=(
GEOMETRIC_REPRESENTATION_CONTEXT(3)
GLOBAL_UNCERTAINTY_ASSIGNED_CONTEXT((#1378))
GLOBAL_UNIT_ASSIGNED_CONTEXT((#1381,#1380,#1379))
REPRESENTATION_CONTEXT('\X2\570667F15B548C035FC374038F74627F\X0\10000-
2RS\X2\578B\X0\','TOP_LEVEL_ASSEMBLY_PART')
);
#1378=UNCERTAINTY_MEASURE_WITH_UNIT(LENGTH_MEASURE(0.005),#1381,
'DISTANCE_ACCURACY_VALUE','Maximum Tolerance applied to model');
#1379=(
NAMED_UNIT(*)
SI_UNIT($,.STERADIAN.)
SOLID_ANGLE_UNIT()
);
#1380=(
NAMED_UNIT(*)
PLANE_ANGLE_UNIT()
SI_UNIT($,.RADIAN.)
);
#1381=(
LENGTH_UNIT()
NAMED_UNIT(*)
SI_UNIT(.MILLI.,.METRE.)
);
#1382=PRODUCT_DEFINITION_SHAPE('','',#1383);
#1383=PRODUCT_DEFINITION('','',#1385,#1384);
#1384=PRODUCT_DEFINITION_CONTEXT('',#1391,'design');
#1385=PRODUCT_DEFINITION_FORMATION_WITH_SPECIFIED_SOURCE('','',#1387,
 .NOT_KNOWN.);
#1386=PRODUCT_RELATED_PRODUCT_CATEGORY('','',(#1387));
#1387=PRODUCT('\X2\570667F15B548C035FC374038F74627F\X0\10000-2RS\X2\578B\X0\',
'\X2\570667F15B548C035FC374038F74627F\X0\10000-2RS\X2\578B\X0\',
'\X2\570667F15B548C035FC374038F74627F\X0\10000-2RS\X2\578B\X0\',(#1389));
#1388=PRODUCT_CATEGORY('','');
#1389=PRODUCT_CONTEXT('',#1391,'mechanical');
#1390=APPLICATION_PROTOCOL_DEFINITION('international standard',
'automotive_design',2010,#1391);
#1391=APPLICATION_CONTEXT(
'core data for automotive mechanical design processes');
ENDSEC;
END-ISO-10303-21;
