ISO-10303-21;
HEADER;
/* Generated by software containing HOOPS Exchange Step
 * from HOOPS Exchange, Inc. (www.tiangong.cloud) 
 */

FILE_DESCRIPTION(
/* description */ ('Unknown'),
/* implementation_level */ '2;1');

FILE_NAME(
/* name */ '\X2\8986670951CF6469585165995C42768453CC91D15C5E8F745957\X0\ 
GBT12949-1991',
/* time_stamp */ '2025-11-06T20:16:02+08:00',
/* author */ ('Unknown'),
/* organization */ ('Unknown'),
/* preprocessor_version */ 'ST-DEVELOPER v19.4',
/* originating_system */ 'TianGong',
/* authorisation */ 'Unknown');

FILE_SCHEMA (('AUTOMOTIVE_DESIGN {1 0 10303 214 3 1 1}'));
ENDSEC;

DATA;
#10=PROPERTY_DEFINITION_REPRESENTATION(#14,#12);
#11=PROPERTY_DEFINITION_REPRESENTATION(#15,#13);
#12=REPRESENTATION('',(#16),#333);
#13=REPRESENTATION('',(#17),#333);
#14=PROPERTY_DEFINITION('pmi validation property','',#338);
#15=PROPERTY_DEFINITION('pmi validation property','',#338);
#16=VALUE_REPRESENTATION_ITEM('number of annotations',COUNT_MEASURE(0.));
#17=VALUE_REPRESENTATION_ITEM('number of views',COUNT_MEASURE(0.));
#18=SHAPE_REPRESENTATION_RELATIONSHIP('','',#191,#19);
#19=ADVANCED_BREP_SHAPE_REPRESENTATION('',(#189),#333);
#20=PLANE('',#200);
#21=PLANE('',#208);
#22=PLANE('',#209);
#23=PLANE('',#210);
#24=LINE('',#274,#32);
#25=LINE('',#276,#33);
#26=LINE('',#292,#34);
#27=LINE('',#294,#35);
#28=LINE('',#310,#36);
#29=LINE('',#312,#37);
#30=LINE('',#328,#38);
#31=LINE('',#329,#39);
#32=VECTOR('',#221,1000.);
#33=VECTOR('',#222,1000.);
#34=VECTOR('',#231,1000.);
#35=VECTOR('',#232,1000.);
#36=VECTOR('',#241,1000.);
#37=VECTOR('',#242,1000.);
#38=VECTOR('',#251,1000.);
#39=VECTOR('',#252,1000.);
#40=CYLINDRICAL_SURFACE('',#196,5.99999999999999);
#41=CYLINDRICAL_SURFACE('',#204,4.99999999999999);
#42=CIRCLE('',#194,5.72021540510699);
#43=CIRCLE('',#195,5.99999999999999);
#44=CIRCLE('',#197,5.99999999999999);
#45=CIRCLE('',#199,5.72021540510699);
#46=CIRCLE('',#201,5.09999999999999);
#47=CIRCLE('',#203,4.99999999999999);
#48=CIRCLE('',#205,4.99999999999999);
#49=CIRCLE('',#207,5.09999999999999);
#50=ORIENTED_EDGE('',*,*,#98,.F.);
#51=ORIENTED_EDGE('',*,*,#99,.F.);
#52=ORIENTED_EDGE('',*,*,#100,.F.);
#53=ORIENTED_EDGE('',*,*,#101,.T.);
#54=ORIENTED_EDGE('',*,*,#102,.F.);
#55=ORIENTED_EDGE('',*,*,#101,.F.);
#56=ORIENTED_EDGE('',*,*,#103,.F.);
#57=ORIENTED_EDGE('',*,*,#104,.T.);
#58=ORIENTED_EDGE('',*,*,#105,.F.);
#59=ORIENTED_EDGE('',*,*,#104,.F.);
#60=ORIENTED_EDGE('',*,*,#106,.F.);
#61=ORIENTED_EDGE('',*,*,#107,.T.);
#62=ORIENTED_EDGE('',*,*,#108,.F.);
#63=ORIENTED_EDGE('',*,*,#107,.F.);
#64=ORIENTED_EDGE('',*,*,#109,.F.);
#65=ORIENTED_EDGE('',*,*,#110,.T.);
#66=ORIENTED_EDGE('',*,*,#111,.F.);
#67=ORIENTED_EDGE('',*,*,#110,.F.);
#68=ORIENTED_EDGE('',*,*,#112,.F.);
#69=ORIENTED_EDGE('',*,*,#113,.T.);
#70=ORIENTED_EDGE('',*,*,#114,.F.);
#71=ORIENTED_EDGE('',*,*,#113,.F.);
#72=ORIENTED_EDGE('',*,*,#115,.F.);
#73=ORIENTED_EDGE('',*,*,#116,.T.);
#74=ORIENTED_EDGE('',*,*,#117,.F.);
#75=ORIENTED_EDGE('',*,*,#116,.F.);
#76=ORIENTED_EDGE('',*,*,#118,.F.);
#77=ORIENTED_EDGE('',*,*,#119,.T.);
#78=ORIENTED_EDGE('',*,*,#120,.F.);
#79=ORIENTED_EDGE('',*,*,#119,.F.);
#80=ORIENTED_EDGE('',*,*,#121,.F.);
#81=ORIENTED_EDGE('',*,*,#99,.T.);
#82=ORIENTED_EDGE('',*,*,#98,.T.);
#83=ORIENTED_EDGE('',*,*,#102,.T.);
#84=ORIENTED_EDGE('',*,*,#105,.T.);
#85=ORIENTED_EDGE('',*,*,#108,.T.);
#86=ORIENTED_EDGE('',*,*,#111,.T.);
#87=ORIENTED_EDGE('',*,*,#114,.T.);
#88=ORIENTED_EDGE('',*,*,#117,.T.);
#89=ORIENTED_EDGE('',*,*,#120,.T.);
#90=ORIENTED_EDGE('',*,*,#100,.T.);
#91=ORIENTED_EDGE('',*,*,#121,.T.);
#92=ORIENTED_EDGE('',*,*,#118,.T.);
#93=ORIENTED_EDGE('',*,*,#115,.T.);
#94=ORIENTED_EDGE('',*,*,#112,.T.);
#95=ORIENTED_EDGE('',*,*,#109,.T.);
#96=ORIENTED_EDGE('',*,*,#106,.T.);
#97=ORIENTED_EDGE('',*,*,#103,.T.);
#98=EDGE_CURVE('',#122,#123,#138,.T.);
#99=EDGE_CURVE('',#124,#122,#42,.T.);
#100=EDGE_CURVE('',#125,#124,#139,.T.);
#101=EDGE_CURVE('',#125,#123,#43,.T.);
#102=EDGE_CURVE('',#123,#126,#24,.F.);
#103=EDGE_CURVE('',#127,#125,#25,.T.);
#104=EDGE_CURVE('',#127,#126,#44,.T.);
#105=EDGE_CURVE('',#126,#128,#140,.T.);
#106=EDGE_CURVE('',#129,#127,#141,.T.);
#107=EDGE_CURVE('',#129,#128,#45,.T.);
#108=EDGE_CURVE('',#128,#130,#26,.T.);
#109=EDGE_CURVE('',#131,#129,#27,.T.);
#110=EDGE_CURVE('',#131,#130,#46,.T.);
#111=EDGE_CURVE('',#130,#132,#142,.T.);
#112=EDGE_CURVE('',#133,#131,#143,.T.);
#113=EDGE_CURVE('',#133,#132,#47,.T.);
#114=EDGE_CURVE('',#132,#134,#28,.T.);
#115=EDGE_CURVE('',#135,#133,#29,.F.);
#116=EDGE_CURVE('',#135,#134,#48,.T.);
#117=EDGE_CURVE('',#134,#136,#144,.T.);
#118=EDGE_CURVE('',#137,#135,#145,.T.);
#119=EDGE_CURVE('',#137,#136,#49,.T.);
#120=EDGE_CURVE('',#136,#122,#30,.T.);
#121=EDGE_CURVE('',#124,#137,#31,.T.);
#122=VERTEX_POINT('',#263);
#123=VERTEX_POINT('',#264);
#124=VERTEX_POINT('',#266);
#125=VERTEX_POINT('',#271);
#126=VERTEX_POINT('',#275);
#127=VERTEX_POINT('',#277);
#128=VERTEX_POINT('',#284);
#129=VERTEX_POINT('',#289);
#130=VERTEX_POINT('',#293);
#131=VERTEX_POINT('',#295);
#132=VERTEX_POINT('',#302);
#133=VERTEX_POINT('',#307);
#134=VERTEX_POINT('',#311);
#135=VERTEX_POINT('',#313);
#136=VERTEX_POINT('',#320);
#137=VERTEX_POINT('',#325);
#138=B_SPLINE_CURVE_WITH_KNOTS('',3,(#259,#260,#261,#262),.UNSPECIFIED.,
 .F.,.F.,(4,4),(0.00666258405517358,0.00732504422565258),.UNSPECIFIED.);
#139=B_SPLINE_CURVE_WITH_KNOTS('',3,(#267,#268,#269,#270),.UNSPECIFIED.,
 .F.,.F.,(4,4),(0.00665632870897362,0.00731878911874852),.UNSPECIFIED.);
#140=B_SPLINE_CURVE_WITH_KNOTS('',3,(#280,#281,#282,#283),.UNSPECIFIED.,
 .F.,.F.,(4,4),(0.00665632870897362,0.00731878911874852),.UNSPECIFIED.);
#141=B_SPLINE_CURVE_WITH_KNOTS('',3,(#285,#286,#287,#288),.UNSPECIFIED.,
 .F.,.F.,(4,4),(0.00666258405517358,0.00732504422565259),.UNSPECIFIED.);
#142=B_SPLINE_CURVE_WITH_KNOTS('',3,(#298,#299,#300,#301),.UNSPECIFIED.,
 .F.,.F.,(4,4),(0.00722284749845714,0.00736461839731373),.UNSPECIFIED.);
#143=B_SPLINE_CURVE_WITH_KNOTS('',3,(#303,#304,#305,#306),.UNSPECIFIED.,
 .F.,.F.,(4,4),(0.0136629161785217,0.0138043363517938),.UNSPECIFIED.);
#144=B_SPLINE_CURVE_WITH_KNOTS('',3,(#316,#317,#318,#319),.UNSPECIFIED.,
 .F.,.F.,(4,4),(0.0136629161785218,0.0138043363517939),.UNSPECIFIED.);
#145=B_SPLINE_CURVE_WITH_KNOTS('',3,(#321,#322,#323,#324),.UNSPECIFIED.,
 .F.,.F.,(4,4),(0.0072228474984571,0.00736461839731368),.UNSPECIFIED.);
#146=EDGE_LOOP('',(#50,#51,#52,#53));
#147=EDGE_LOOP('',(#54,#55,#56,#57));
#148=EDGE_LOOP('',(#58,#59,#60,#61));
#149=EDGE_LOOP('',(#62,#63,#64,#65));
#150=EDGE_LOOP('',(#66,#67,#68,#69));
#151=EDGE_LOOP('',(#70,#71,#72,#73));
#152=EDGE_LOOP('',(#74,#75,#76,#77));
#153=EDGE_LOOP('',(#78,#79,#80,#81));
#154=EDGE_LOOP('',(#82,#83,#84,#85,#86,#87,#88,#89));
#155=EDGE_LOOP('',(#90,#91,#92,#93,#94,#95,#96,#97));
#156=FACE_BOUND('',#146,.T.);
#157=FACE_BOUND('',#147,.T.);
#158=FACE_BOUND('',#148,.T.);
#159=FACE_BOUND('',#149,.T.);
#160=FACE_BOUND('',#150,.T.);
#161=FACE_BOUND('',#151,.T.);
#162=FACE_BOUND('',#152,.T.);
#163=FACE_BOUND('',#153,.T.);
#164=FACE_BOUND('',#154,.T.);
#165=FACE_BOUND('',#155,.T.);
#166=CONICAL_SURFACE('',#193,5.72021540510699,0.436332312998582);
#167=CONICAL_SURFACE('',#198,5.99999999999999,0.436332312998582);
#168=CONICAL_SURFACE('',#202,5.09999999999999,0.785398163397453);
#169=CONICAL_SURFACE('',#206,4.99999999999999,0.785398163397446);
#170=ADVANCED_FACE('',(#156),#166,.T.);
#171=ADVANCED_FACE('',(#157),#40,.T.);
#172=ADVANCED_FACE('',(#158),#167,.T.);
#173=ADVANCED_FACE('',(#159),#20,.T.);
#174=ADVANCED_FACE('',(#160),#168,.F.);
#175=ADVANCED_FACE('',(#161),#41,.F.);
#176=ADVANCED_FACE('',(#162),#169,.F.);
#177=ADVANCED_FACE('',(#163),#21,.T.);
#178=ADVANCED_FACE('',(#164),#22,.F.);
#179=ADVANCED_FACE('',(#165),#23,.F.);
#180=CLOSED_SHELL('',(#170,#171,#172,#173,#174,#175,#176,#177,#178,#179));
#181=STYLED_ITEM('',(#182),#189);
#182=PRESENTATION_STYLE_ASSIGNMENT((#183));
#183=SURFACE_STYLE_USAGE(.BOTH.,#184);
#184=SURFACE_SIDE_STYLE('',(#185));
#185=SURFACE_STYLE_FILL_AREA(#186);
#186=FILL_AREA_STYLE('',(#187));
#187=FILL_AREA_STYLE_COLOUR('',#188);
#188=COLOUR_RGB('',0.506983280181885,0.531564235687256,0.550000011920929);
#189=MANIFOLD_SOLID_BREP('',#180);
#190=SHAPE_DEFINITION_REPRESENTATION(#338,#191);
#191=SHAPE_REPRESENTATION(
'\X2\8986670951CF6469585165995C42768453CC91D15C5E8F745957\X0\ GBT12949
-1991',(#192),#333);
#192=AXIS2_PLACEMENT_3D('',#257,#211,#212);
#193=AXIS2_PLACEMENT_3D('',#258,#213,#214);
#194=AXIS2_PLACEMENT_3D('',#265,#215,#216);
#195=AXIS2_PLACEMENT_3D('',#272,#217,#218);
#196=AXIS2_PLACEMENT_3D('',#273,#219,#220);
#197=AXIS2_PLACEMENT_3D('',#278,#223,#224);
#198=AXIS2_PLACEMENT_3D('',#279,#225,#226);
#199=AXIS2_PLACEMENT_3D('',#290,#227,#228);
#200=AXIS2_PLACEMENT_3D('',#291,#229,#230);
#201=AXIS2_PLACEMENT_3D('',#296,#233,#234);
#202=AXIS2_PLACEMENT_3D('',#297,#235,#236);
#203=AXIS2_PLACEMENT_3D('',#308,#237,#238);
#204=AXIS2_PLACEMENT_3D('',#309,#239,#240);
#205=AXIS2_PLACEMENT_3D('',#314,#243,#244);
#206=AXIS2_PLACEMENT_3D('',#315,#245,#246);
#207=AXIS2_PLACEMENT_3D('',#326,#247,#248);
#208=AXIS2_PLACEMENT_3D('',#327,#249,#250);
#209=AXIS2_PLACEMENT_3D('',#330,#253,#254);
#210=AXIS2_PLACEMENT_3D('',#331,#255,#256);
#211=DIRECTION('',(0.,0.,1.));
#212=DIRECTION('',(1.,0.,0.));
#213=DIRECTION('',(1.,0.,0.));
#214=DIRECTION('',(0.,0.,-1.));
#215=DIRECTION('',(-1.,0.,0.));
#216=DIRECTION('',(0.,0.,1.));
#217=DIRECTION('',(-1.,0.,0.));
#218=DIRECTION('',(0.,0.,1.));
#219=DIRECTION('',(-1.,0.,0.));
#220=DIRECTION('',(0.,0.,1.));
#221=DIRECTION('',(-1.,0.,0.));
#222=DIRECTION('',(-1.,0.,0.));
#223=DIRECTION('',(-1.,0.,0.));
#224=DIRECTION('',(0.,0.,1.));
#225=DIRECTION('',(-1.,0.,0.));
#226=DIRECTION('',(0.,0.,1.));
#227=DIRECTION('',(-1.,0.,0.));
#228=DIRECTION('',(0.,0.,1.));
#229=DIRECTION('',(1.,0.,0.));
#230=DIRECTION('',(0.,0.,-1.));
#231=DIRECTION('',(0.,-1.,1.71665343976872E-16));
#232=DIRECTION('',(0.,1.,-1.17455235352596E-16));
#233=DIRECTION('',(-1.,0.,0.));
#234=DIRECTION('',(0.,0.,1.));
#235=DIRECTION('',(1.,0.,0.));
#236=DIRECTION('',(0.,0.,-1.));
#237=DIRECTION('',(-1.,0.,0.));
#238=DIRECTION('',(0.,0.,1.));
#239=DIRECTION('',(-1.,0.,0.));
#240=DIRECTION('',(0.,0.,1.));
#241=DIRECTION('',(-1.,0.,0.));
#242=DIRECTION('',(-1.,0.,0.));
#243=DIRECTION('',(-1.,0.,0.));
#244=DIRECTION('',(0.,0.,1.));
#245=DIRECTION('',(-1.,0.,0.));
#246=DIRECTION('',(0.,0.,1.));
#247=DIRECTION('',(-1.,0.,0.));
#248=DIRECTION('',(0.,0.,1.));
#249=DIRECTION('',(-1.,0.,0.));
#250=DIRECTION('',(0.,0.,1.));
#251=DIRECTION('',(0.,1.,-1.71665343976872E-16));
#252=DIRECTION('',(0.,-1.,1.17455235352596E-16));
#253=DIRECTION('',(0.,1.71665343976872E-16,1.));
#254=DIRECTION('',(0.,-1.,1.71665343976872E-16));
#255=DIRECTION('',(0.,-1.17455235352596E-16,-1.));
#256=DIRECTION('',(0.,1.,-1.17455235352596E-16));
#257=CARTESIAN_POINT('',(0.,0.,0.));
#258=CARTESIAN_POINT('',(0.,0.,0.));
#259=CARTESIAN_POINT('',(3.03339897901495E-16,5.69832118091139,0.499999999999999));
#260=CARTESIAN_POINT('',(0.199993553501798,5.7919380266,0.499999999999999));
#261=CARTESIAN_POINT('',(0.39999385587409,5.88554044369658,0.499999999999999));
#262=CARTESIAN_POINT('',(0.600000000000003,5.97913037155069,0.499999999999999));
#263=CARTESIAN_POINT('',(0.,5.69832118091139,0.499999999999999));
#264=CARTESIAN_POINT('',(0.599999999999999,5.97913037155069,0.499999999999999));
#265=CARTESIAN_POINT('',(0.,0.,0.));
#266=CARTESIAN_POINT('',(3.48910016213236E-16,5.69832118091139,-0.500000000000001));
#267=CARTESIAN_POINT('',(0.6,5.97913037155069,-0.500000000000001));
#268=CARTESIAN_POINT('',(0.399993851275611,5.88554044154479,-0.500000000000001));
#269=CARTESIAN_POINT('',(0.19999354867732,5.79193802434167,-0.500000000000001));
#270=CARTESIAN_POINT('',(-2.8659257479925E-16,5.69832118091139,-0.500000000000001));
#271=CARTESIAN_POINT('',(0.599999999999999,5.97913037155069,-0.500000000000001));
#272=CARTESIAN_POINT('',(0.599999999999999,0.,0.));
#273=CARTESIAN_POINT('',(0.,0.,0.));
#274=CARTESIAN_POINT('',(0.,5.97913037155069,0.499999999999999));
#275=CARTESIAN_POINT('',(7.40000000000001,5.97913037155069,0.499999999999999));
#276=CARTESIAN_POINT('',(0.,5.97913037155069,-0.500000000000001));
#277=CARTESIAN_POINT('',(7.40000000000001,5.97913037155069,-0.500000000000001));
#278=CARTESIAN_POINT('',(7.40000000000001,0.,0.));
#279=CARTESIAN_POINT('',(7.40000000000001,0.,0.));
#280=CARTESIAN_POINT('',(7.40000000000001,5.97913037155069,0.499999999999999));
#281=CARTESIAN_POINT('',(7.6000061487244,5.88554044154479,0.499999999999999));
#282=CARTESIAN_POINT('',(7.80000645132269,5.79193802434167,0.499999999999999));
#283=CARTESIAN_POINT('',(8.00000000000001,5.69832118091139,0.499999999999999));
#284=CARTESIAN_POINT('',(8.00000000000001,5.69832118091139,0.499999999999999));
#285=CARTESIAN_POINT('',(8.00000000000001,5.69832118091139,-0.500000000000001));
#286=CARTESIAN_POINT('',(7.80000644649821,5.7919380266,-0.500000000000001));
#287=CARTESIAN_POINT('',(7.60000614412592,5.88554044369658,-0.500000000000001));
#288=CARTESIAN_POINT('',(7.40000000000001,5.97913037155069,-0.500000000000001));
#289=CARTESIAN_POINT('',(8.00000000000001,5.69832118091139,-0.500000000000001));
#290=CARTESIAN_POINT('',(8.00000000000001,0.,0.));
#291=CARTESIAN_POINT('',(8.00000000000001,0.,5.09999999999999));
#292=CARTESIAN_POINT('',(8.00000000000001,-7.89660582293608E-16,0.5));
#293=CARTESIAN_POINT('',(8.00000000000001,5.07543101617981,0.499999999999999));
#294=CARTESIAN_POINT('',(8.00000000000001,-6.57749317974539E-16,-0.5));
#295=CARTESIAN_POINT('',(8.00000000000001,5.0754310161798,-0.500000000000001));
#296=CARTESIAN_POINT('',(8.00000000000001,0.,0.));
#297=CARTESIAN_POINT('',(8.00000000000001,0.,0.));
#298=CARTESIAN_POINT('',(8.00000000000002,5.07543101617981,0.499999999999999));
#299=CARTESIAN_POINT('',(7.96666503926365,5.04193468863373,0.499999999999999));
#300=CARTESIAN_POINT('',(7.93333167322048,5.00843677756553,0.499999999999999));
#301=CARTESIAN_POINT('',(7.90000000000001,4.9749371855331,0.499999999999999));
#302=CARTESIAN_POINT('',(7.90000000000001,4.97493718553309,0.499999999999999));
#303=CARTESIAN_POINT('',(7.90000000000001,4.97493718553309,-0.500000000000001));
#304=CARTESIAN_POINT('',(7.93333166655422,5.00843677086569,-0.500000000000001));
#305=CARTESIAN_POINT('',(7.96666503272809,5.04193468206653,-0.500000000000001));
#306=CARTESIAN_POINT('',(8.00000000000001,5.0754310161798,-0.500000000000001));
#307=CARTESIAN_POINT('',(7.90000000000001,4.97493718553309,-0.500000000000001));
#308=CARTESIAN_POINT('',(7.90000000000001,0.,0.));
#309=CARTESIAN_POINT('',(0.,0.,0.));
#310=CARTESIAN_POINT('',(0.,4.97493718553309,0.499999999999999));
#311=CARTESIAN_POINT('',(0.100000000000001,4.97493718553309,0.499999999999999));
#312=CARTESIAN_POINT('',(0.,4.97493718553309,-0.500000000000001));
#313=CARTESIAN_POINT('',(0.0999999999999986,4.9749371855331,-0.500000000000001));
#314=CARTESIAN_POINT('',(0.1,0.,0.));
#315=CARTESIAN_POINT('',(0.1,0.,0.));
#316=CARTESIAN_POINT('',(0.100000000000002,4.97493718553309,0.499999999999999));
#317=CARTESIAN_POINT('',(0.066668333445791,5.00843677086568,0.499999999999999));
#318=CARTESIAN_POINT('',(0.033334967271925,5.04193468206653,0.499999999999999));
#319=CARTESIAN_POINT('',(4.71590522447131E-15,5.0754310161798,0.499999999999999));
#320=CARTESIAN_POINT('',(3.10770253540048E-16,5.0754310161798,0.499999999999999));
#321=CARTESIAN_POINT('',(1.76736795205606E-15,5.0754310161798,-0.500000000000001));
#322=CARTESIAN_POINT('',(0.0333349607363668,5.04193468863373,-0.500000000000001));
#323=CARTESIAN_POINT('',(0.066668326779535,5.00843677756552,-0.500000000000001));
#324=CARTESIAN_POINT('',(0.099999999999998,4.9749371855331,-0.500000000000001));
#325=CARTESIAN_POINT('',(3.10770253540048E-16,5.0754310161798,-0.500000000000001));
#326=CARTESIAN_POINT('',(-2.16840434497101E-16,0.,0.));
#327=CARTESIAN_POINT('',(-1.0842021724855E-16,0.,5.09999999999999));
#328=CARTESIAN_POINT('',(-1.0842021724855E-16,-7.89660582293608E-16,0.5));
#329=CARTESIAN_POINT('',(-1.0842021724855E-16,-6.57749317974539E-16,-0.5));
#330=CARTESIAN_POINT('',(23.0651251893416,-1.0842021724855E-16,0.5));
#331=CARTESIAN_POINT('',(23.0651251893416,1.0842021724855E-16,-0.5));
#332=MECHANICAL_DESIGN_GEOMETRIC_PRESENTATION_REPRESENTATION('',(#181),
#333);
#333=(
GEOMETRIC_REPRESENTATION_CONTEXT(3)
GLOBAL_UNCERTAINTY_ASSIGNED_CONTEXT((#334))
GLOBAL_UNIT_ASSIGNED_CONTEXT((#337,#336,#335))
REPRESENTATION_CONTEXT(
'\X2\8986670951CF6469585165995C42768453CC91D15C5E8F745957\X0\ GBT12949
-1991','TOP_LEVEL_ASSEMBLY_PART')
);
#334=UNCERTAINTY_MEASURE_WITH_UNIT(LENGTH_MEASURE(0.005),#337,
'DISTANCE_ACCURACY_VALUE','Maximum Tolerance applied to model');
#335=(
NAMED_UNIT(*)
SI_UNIT($,.STERADIAN.)
SOLID_ANGLE_UNIT()
);
#336=(
NAMED_UNIT(*)
PLANE_ANGLE_UNIT()
SI_UNIT($,.RADIAN.)
);
#337=(
LENGTH_UNIT()
NAMED_UNIT(*)
SI_UNIT(.MILLI.,.METRE.)
);
#338=PRODUCT_DEFINITION_SHAPE('','',#339);
#339=PRODUCT_DEFINITION('','',#341,#340);
#340=PRODUCT_DEFINITION_CONTEXT('',#347,'design');
#341=PRODUCT_DEFINITION_FORMATION_WITH_SPECIFIED_SOURCE('','',#343,
 .NOT_KNOWN.);
#342=PRODUCT_RELATED_PRODUCT_CATEGORY('','',(#343));
#343=PRODUCT('\X2\8986670951CF6469585165995C42768453CC91D15C5E8F745957\X0\ 
GBT12949-1991','\X2\8986670951CF6469585165995C42768453CC91D15C5E8F745957\X0\ 
GBT12949-1991','\X2\8986670951CF6469585165995C42768453CC91D15C5E8F745957\X0\ 
GBT12949-1991',(#345));
#344=PRODUCT_CATEGORY('','');
#345=PRODUCT_CONTEXT('',#347,'mechanical');
#346=APPLICATION_PROTOCOL_DEFINITION('international standard',
'automotive_design',2010,#347);
#347=APPLICATION_CONTEXT(
'core data for automotive mechanical design processes');
ENDSEC;
END-ISO-10303-21;
