ISO-10303-21;
HEADER;
/* Generated by software containing HOOPS Exchange Step
 * from HOOPS Exchange, Inc. (www.tiangong.cloud) 
 */

FILE_DESCRIPTION(
/* description */ ('Unknown'),
/* implementation_level */ '2;1');

FILE_NAME(
/* name */ '\X2\65B95934957F570667F17AEF7D275B9A87BA9489\X0\ GBT85-198
8',
/* time_stamp */ '2025-11-03T13:09:00+08:00',
/* author */ ('Unknown'),
/* organization */ ('Unknown'),
/* preprocessor_version */ 'ST-DEVELOPER v19.4',
/* originating_system */ 'TianGong',
/* authorisation */ 'Unknown');

FILE_SCHEMA (('AUTOMOTIVE_DESIGN {1 0 10303 214 3 1 1}'));
ENDSEC;

DATA;
#10=PROPERTY_DEFINITION_REPRESENTATION(#14,#12);
#11=PROPERTY_DEFINITION_REPRESENTATION(#15,#13);
#12=REPRESENTATION('',(#16),#1300);
#13=REPRESENTATION('',(#17),#1300);
#14=PROPERTY_DEFINITION('pmi validation property','',#1305);
#15=PROPERTY_DEFINITION('pmi validation property','',#1305);
#16=VALUE_REPRESENTATION_ITEM('number of annotations',COUNT_MEASURE(0.));
#17=VALUE_REPRESENTATION_ITEM('number of views',COUNT_MEASURE(0.));
#18=SHAPE_REPRESENTATION_RELATIONSHIP('','',#785,#19);
#19=ADVANCED_BREP_SHAPE_REPRESENTATION('',(#783),#1300);
#20=TOROIDAL_SURFACE('',#819,2.69999999999999,0.2);
#21=TOROIDAL_SURFACE('',#822,2.69999999999999,0.2);
#22=TOROIDAL_SURFACE('',#825,2.69999999999999,0.2);
#23=TOROIDAL_SURFACE('',#828,2.69999999999999,0.2);
#24=TOROIDAL_SURFACE('',#830,1.79999999999999,0.2);
#25=TOROIDAL_SURFACE('',#838,1.39999999999999,0.2);
#26=(
BOUNDED_SURFACE()
B_SPLINE_SURFACE(3,2,((#1154,#1155,#1156),(#1157,#1158,#1159),(#1160,#1161,
#1162),(#1163,#1164,#1165),(#1166,#1167,#1168)),.UNSPECIFIED.,.F.,.F.,.F.)
B_SPLINE_SURFACE_WITH_KNOTS((4,1,4),(3,3),(0.00052888252156813,0.00106972047611612,
0.0016105584306641),(0.,1.),.UNSPECIFIED.)
GEOMETRIC_REPRESENTATION_ITEM()
RATIONAL_B_SPLINE_SURFACE(((1.,0.707106781186548,1.),(1.,0.817431932379253,
1.),(1.,0.956547796446147,1.),(1.,1.00000000006357,1.),(1.,1.,1.)))
REPRESENTATION_ITEM('')
SURFACE()
);
#27=(
BOUNDED_SURFACE()
B_SPLINE_SURFACE(3,2,((#1172,#1173,#1174),(#1175,#1176,#1177),(#1178,#1179,
#1180),(#1181,#1182,#1183),(#1184,#1185,#1186)),.UNSPECIFIED.,.F.,.F.,.F.)
B_SPLINE_SURFACE_WITH_KNOTS((4,1,4),(3,3),(0.000528882521568323,0.00106972047611655,
0.00161055843066477),(0.,1.),.UNSPECIFIED.)
GEOMETRIC_REPRESENTATION_ITEM()
RATIONAL_B_SPLINE_SURFACE(((1.,0.707106781186548,1.),(1.,0.817431932378997,
1.),(1.,0.956547796446273,1.),(1.,1.00000000006356,1.),(1.,1.,1.)))
REPRESENTATION_ITEM('')
SURFACE()
);
#28=(
BOUNDED_SURFACE()
B_SPLINE_SURFACE(3,2,((#1187,#1188,#1189),(#1190,#1191,#1192),(#1193,#1194,
#1195),(#1196,#1197,#1198),(#1199,#1200,#1201)),.UNSPECIFIED.,.F.,.F.,.F.)
B_SPLINE_SURFACE_WITH_KNOTS((4,1,4),(3,3),(0.000528882521568132,0.00106972047611611,
0.00161055843066409),(0.,1.),.UNSPECIFIED.)
GEOMETRIC_REPRESENTATION_ITEM()
RATIONAL_B_SPLINE_SURFACE(((1.,0.707106781186548,1.),(1.,0.817431932379272,
1.),(1.,0.956547796446136,1.),(1.,1.00000000006357,1.),(1.,1.,1.)))
REPRESENTATION_ITEM('')
SURFACE()
);
#29=(
BOUNDED_SURFACE()
B_SPLINE_SURFACE(3,2,((#1205,#1206,#1207),(#1208,#1209,#1210),(#1211,#1212,
#1213),(#1214,#1215,#1216),(#1217,#1218,#1219)),.UNSPECIFIED.,.F.,.F.,.F.)
B_SPLINE_SURFACE_WITH_KNOTS((4,1,4),(3,3),(0.000528882521568322,0.00106972047611656,
0.0016105584306648),(0.,1.),.UNSPECIFIED.)
GEOMETRIC_REPRESENTATION_ITEM()
RATIONAL_B_SPLINE_SURFACE(((1.,0.707106781186548,1.),(1.,0.817431932379358,
1.),(1.,0.956547796446095,1.),(1.,1.00000000006358,1.),(1.,1.,1.)))
REPRESENTATION_ITEM('')
SURFACE()
);
#30=(
BOUNDED_SURFACE()
B_SPLINE_SURFACE(3,2,((#1220,#1221,#1222),(#1223,#1224,#1225),(#1226,#1227,
#1228),(#1229,#1230,#1231),(#1232,#1233,#1234)),.UNSPECIFIED.,.F.,.F.,.F.)
B_SPLINE_SURFACE_WITH_KNOTS((4,1,4),(3,3),(0.000528882521568126,0.00106972047611612,
0.00161055843066411),(0.,1.),.UNSPECIFIED.)
GEOMETRIC_REPRESENTATION_ITEM()
RATIONAL_B_SPLINE_SURFACE(((1.,0.707106781186548,1.),(1.,0.817431932379215,
1.),(1.,0.956547796446184,1.),(1.,1.00000000006355,1.),(1.,1.,1.)))
REPRESENTATION_ITEM('')
SURFACE()
);
#31=(
BOUNDED_SURFACE()
B_SPLINE_SURFACE(3,2,((#1238,#1239,#1240),(#1241,#1242,#1243),(#1244,#1245,
#1246),(#1247,#1248,#1249),(#1250,#1251,#1252)),.UNSPECIFIED.,.F.,.F.,.F.)
B_SPLINE_SURFACE_WITH_KNOTS((4,1,4),(3,3),(0.000528882521568321,0.00106972047611655,
0.00161055843066478),(0.,1.),.UNSPECIFIED.)
GEOMETRIC_REPRESENTATION_ITEM()
RATIONAL_B_SPLINE_SURFACE(((1.,0.707106781186547,1.),(1.,0.817431932379235,
1.),(1.,0.956547796446155,1.),(1.,1.00000000006356,1.),(1.,1.,1.)))
REPRESENTATION_ITEM('')
SURFACE()
);
#32=(
BOUNDED_SURFACE()
B_SPLINE_SURFACE(3,2,((#1253,#1254,#1255),(#1256,#1257,#1258),(#1259,#1260,
#1261),(#1262,#1263,#1264),(#1265,#1266,#1267)),.UNSPECIFIED.,.F.,.F.,.F.)
B_SPLINE_SURFACE_WITH_KNOTS((4,1,4),(3,3),(0.000528882521568128,0.00106972047611612,
0.00161055843066412),(0.,1.),.UNSPECIFIED.)
GEOMETRIC_REPRESENTATION_ITEM()
RATIONAL_B_SPLINE_SURFACE(((1.,0.707106781186548,1.),(1.,0.817431932378959,
1.),(1.,0.956547796446294,1.),(1.,1.00000000006359,1.),(1.,1.,1.)))
REPRESENTATION_ITEM('')
SURFACE()
);
#33=(
BOUNDED_SURFACE()
B_SPLINE_SURFACE(3,2,((#1271,#1272,#1273),(#1274,#1275,#1276),(#1277,#1278,
#1279),(#1280,#1281,#1282),(#1283,#1284,#1285)),.UNSPECIFIED.,.F.,.F.,.F.)
B_SPLINE_SURFACE_WITH_KNOTS((4,1,4),(3,3),(0.000528882521568321,0.00106972047611656,
0.00161055843066479),(0.,1.),.UNSPECIFIED.)
GEOMETRIC_REPRESENTATION_ITEM()
RATIONAL_B_SPLINE_SURFACE(((1.,0.707106781186549,1.),(1.,0.817431932379149,
1.),(1.,0.956547796446217,1.),(1.,1.00000000006354,1.),(1.,1.,1.)))
REPRESENTATION_ITEM('')
SURFACE()
);
#34=CYLINDRICAL_SURFACE('',#805,2.49999999999999);
#35=CYLINDRICAL_SURFACE('',#813,1.59999999999999);
#36=CONICAL_SURFACE('',#791,2.50000000000001,1.0471975511966);
#37=CONICAL_SURFACE('',#796,2.50000000000001,1.0471975511966);
#38=CONICAL_SURFACE('',#801,2.50000000000001,1.0471975511966);
#39=CONICAL_SURFACE('',#831,2.50000000000001,1.0471975511966);
#40=CIRCLE('',#790,2.69999999999999);
#41=CIRCLE('',#792,2.50000000000001);
#42=CIRCLE('',#795,2.69999999999999);
#43=CIRCLE('',#797,2.50000000000001);
#44=CIRCLE('',#800,2.69999999999999);
#45=CIRCLE('',#802,2.50000000000001);
#46=CIRCLE('',#804,2.69999999999999);
#47=CIRCLE('',#806,2.49999999999999);
#48=CIRCLE('',#807,2.49999999999999);
#49=CIRCLE('',#808,2.49999999999999);
#50=CIRCLE('',#809,2.49999999999999);
#51=CIRCLE('',#810,2.49999999999999);
#52=CIRCLE('',#812,1.79999999999999);
#53=CIRCLE('',#814,1.59999999999999);
#54=CIRCLE('',#815,1.59999999999999);
#55=CIRCLE('',#817,1.39999999999999);
#56=CIRCLE('',#818,0.2);
#57=CIRCLE('',#820,0.2);
#58=CIRCLE('',#821,0.2);
#59=CIRCLE('',#823,0.2);
#60=CIRCLE('',#824,0.2);
#61=CIRCLE('',#826,0.2);
#62=CIRCLE('',#827,0.2);
#63=CIRCLE('',#829,0.2);
#64=CIRCLE('',#832,2.50000000000001);
#65=LINE('',#981,#93);
#66=LINE('',#983,#94);
#67=LINE('',#985,#95);
#68=LINE('',#987,#96);
#69=LINE('',#989,#97);
#70=LINE('',#991,#98);
#71=LINE('',#998,#99);
#72=LINE('',#1001,#100);
#73=LINE('',#1003,#101);
#74=LINE('',#1005,#102);
#75=LINE('',#1007,#103);
#76=LINE('',#1009,#104);
#77=LINE('',#1021,#105);
#78=LINE('',#1036,#106);
#79=LINE('',#1038,#107);
#80=LINE('',#1040,#108);
#81=LINE('',#1042,#109);
#82=LINE('',#1044,#110);
#83=LINE('',#1046,#111);
#84=LINE('',#1053,#112);
#85=LINE('',#1062,#113);
#86=LINE('',#1075,#114);
#87=LINE('',#1077,#115);
#88=LINE('',#1079,#116);
#89=LINE('',#1081,#117);
#90=LINE('',#1083,#118);
#91=LINE('',#1085,#119);
#92=LINE('',#1094,#120);
#93=VECTOR('',#843,1000.);
#94=VECTOR('',#844,1000.);
#95=VECTOR('',#845,1000.);
#96=VECTOR('',#846,1000.);
#97=VECTOR('',#847,1000.);
#98=VECTOR('',#848,1000.);
#99=VECTOR('',#851,1000.);
#100=VECTOR('',#852,1000.);
#101=VECTOR('',#853,1000.);
#102=VECTOR('',#854,1000.);
#103=VECTOR('',#855,1000.);
#104=VECTOR('',#856,1000.);
#105=VECTOR('',#859,1000.);
#106=VECTOR('',#868,1000.);
#107=VECTOR('',#869,1000.);
#108=VECTOR('',#870,1000.);
#109=VECTOR('',#871,1000.);
#110=VECTOR('',#872,1000.);
#111=VECTOR('',#873,1000.);
#112=VECTOR('',#876,1000.);
#113=VECTOR('',#885,1000.);
#114=VECTOR('',#886,1000.);
#115=VECTOR('',#887,1000.);
#116=VECTOR('',#888,1000.);
#117=VECTOR('',#889,1000.);
#118=VECTOR('',#890,1000.);
#119=VECTOR('',#893,1000.);
#120=VECTOR('',#902,1000.);
#121=ORIENTED_EDGE('',*,*,#267,.T.);
#122=ORIENTED_EDGE('',*,*,#268,.F.);
#123=ORIENTED_EDGE('',*,*,#269,.T.);
#124=ORIENTED_EDGE('',*,*,#270,.T.);
#125=ORIENTED_EDGE('',*,*,#271,.T.);
#126=ORIENTED_EDGE('',*,*,#272,.T.);
#127=ORIENTED_EDGE('',*,*,#273,.T.);
#128=ORIENTED_EDGE('',*,*,#274,.T.);
#129=ORIENTED_EDGE('',*,*,#275,.F.);
#130=ORIENTED_EDGE('',*,*,#276,.T.);
#131=ORIENTED_EDGE('',*,*,#277,.T.);
#132=ORIENTED_EDGE('',*,*,#278,.T.);
#133=ORIENTED_EDGE('',*,*,#279,.T.);
#134=ORIENTED_EDGE('',*,*,#280,.T.);
#135=ORIENTED_EDGE('',*,*,#281,.T.);
#136=ORIENTED_EDGE('',*,*,#282,.T.);
#137=ORIENTED_EDGE('',*,*,#283,.F.);
#138=ORIENTED_EDGE('',*,*,#279,.F.);
#139=ORIENTED_EDGE('',*,*,#284,.T.);
#140=ORIENTED_EDGE('',*,*,#269,.F.);
#141=ORIENTED_EDGE('',*,*,#281,.F.);
#142=ORIENTED_EDGE('',*,*,#285,.T.);
#143=ORIENTED_EDGE('',*,*,#267,.F.);
#144=ORIENTED_EDGE('',*,*,#286,.F.);
#145=ORIENTED_EDGE('',*,*,#287,.T.);
#146=ORIENTED_EDGE('',*,*,#288,.F.);
#147=ORIENTED_EDGE('',*,*,#289,.T.);
#148=ORIENTED_EDGE('',*,*,#290,.T.);
#149=ORIENTED_EDGE('',*,*,#291,.T.);
#150=ORIENTED_EDGE('',*,*,#292,.T.);
#151=ORIENTED_EDGE('',*,*,#293,.T.);
#152=ORIENTED_EDGE('',*,*,#294,.T.);
#153=ORIENTED_EDGE('',*,*,#295,.F.);
#154=ORIENTED_EDGE('',*,*,#272,.F.);
#155=ORIENTED_EDGE('',*,*,#296,.T.);
#156=ORIENTED_EDGE('',*,*,#289,.F.);
#157=ORIENTED_EDGE('',*,*,#274,.F.);
#158=ORIENTED_EDGE('',*,*,#297,.T.);
#159=ORIENTED_EDGE('',*,*,#287,.F.);
#160=ORIENTED_EDGE('',*,*,#298,.F.);
#161=ORIENTED_EDGE('',*,*,#299,.T.);
#162=ORIENTED_EDGE('',*,*,#300,.T.);
#163=ORIENTED_EDGE('',*,*,#301,.T.);
#164=ORIENTED_EDGE('',*,*,#302,.F.);
#165=ORIENTED_EDGE('',*,*,#303,.T.);
#166=ORIENTED_EDGE('',*,*,#304,.T.);
#167=ORIENTED_EDGE('',*,*,#305,.T.);
#168=ORIENTED_EDGE('',*,*,#306,.T.);
#169=ORIENTED_EDGE('',*,*,#307,.F.);
#170=ORIENTED_EDGE('',*,*,#292,.F.);
#171=ORIENTED_EDGE('',*,*,#308,.T.);
#172=ORIENTED_EDGE('',*,*,#303,.F.);
#173=ORIENTED_EDGE('',*,*,#294,.F.);
#174=ORIENTED_EDGE('',*,*,#309,.T.);
#175=ORIENTED_EDGE('',*,*,#301,.F.);
#176=ORIENTED_EDGE('',*,*,#310,.F.);
#177=ORIENTED_EDGE('',*,*,#276,.F.);
#178=ORIENTED_EDGE('',*,*,#311,.T.);
#179=ORIENTED_EDGE('',*,*,#306,.F.);
#180=ORIENTED_EDGE('',*,*,#312,.T.);
#181=ORIENTED_EDGE('',*,*,#313,.T.);
#182=ORIENTED_EDGE('',*,*,#314,.T.);
#183=ORIENTED_EDGE('',*,*,#315,.T.);
#184=ORIENTED_EDGE('',*,*,#316,.T.);
#185=ORIENTED_EDGE('',*,*,#317,.T.);
#186=ORIENTED_EDGE('',*,*,#318,.T.);
#187=ORIENTED_EDGE('',*,*,#319,.T.);
#188=ORIENTED_EDGE('',*,*,#320,.T.);
#189=ORIENTED_EDGE('',*,*,#321,.T.);
#190=ORIENTED_EDGE('',*,*,#322,.T.);
#191=ORIENTED_EDGE('',*,*,#323,.T.);
#192=ORIENTED_EDGE('',*,*,#324,.T.);
#193=ORIENTED_EDGE('',*,*,#325,.T.);
#194=ORIENTED_EDGE('',*,*,#326,.T.);
#195=ORIENTED_EDGE('',*,*,#313,.F.);
#196=ORIENTED_EDGE('',*,*,#327,.T.);
#197=ORIENTED_EDGE('',*,*,#328,.T.);
#198=ORIENTED_EDGE('',*,*,#329,.T.);
#199=ORIENTED_EDGE('',*,*,#317,.F.);
#200=ORIENTED_EDGE('',*,*,#304,.F.);
#201=ORIENTED_EDGE('',*,*,#330,.F.);
#202=ORIENTED_EDGE('',*,*,#330,.T.);
#203=ORIENTED_EDGE('',*,*,#308,.F.);
#204=ORIENTED_EDGE('',*,*,#331,.F.);
#205=ORIENTED_EDGE('',*,*,#318,.F.);
#206=ORIENTED_EDGE('',*,*,#291,.F.);
#207=ORIENTED_EDGE('',*,*,#319,.F.);
#208=ORIENTED_EDGE('',*,*,#331,.T.);
#209=ORIENTED_EDGE('',*,*,#320,.F.);
#210=ORIENTED_EDGE('',*,*,#290,.F.);
#211=ORIENTED_EDGE('',*,*,#332,.F.);
#212=ORIENTED_EDGE('',*,*,#332,.T.);
#213=ORIENTED_EDGE('',*,*,#296,.F.);
#214=ORIENTED_EDGE('',*,*,#333,.F.);
#215=ORIENTED_EDGE('',*,*,#321,.F.);
#216=ORIENTED_EDGE('',*,*,#271,.F.);
#217=ORIENTED_EDGE('',*,*,#322,.F.);
#218=ORIENTED_EDGE('',*,*,#333,.T.);
#219=ORIENTED_EDGE('',*,*,#314,.F.);
#220=ORIENTED_EDGE('',*,*,#277,.F.);
#221=ORIENTED_EDGE('',*,*,#334,.F.);
#222=ORIENTED_EDGE('',*,*,#334,.T.);
#223=ORIENTED_EDGE('',*,*,#312,.F.);
#224=ORIENTED_EDGE('',*,*,#335,.F.);
#225=ORIENTED_EDGE('',*,*,#315,.F.);
#226=ORIENTED_EDGE('',*,*,#305,.F.);
#227=ORIENTED_EDGE('',*,*,#316,.F.);
#228=ORIENTED_EDGE('',*,*,#335,.T.);
#229=ORIENTED_EDGE('',*,*,#323,.F.);
#230=ORIENTED_EDGE('',*,*,#270,.F.);
#231=ORIENTED_EDGE('',*,*,#336,.F.);
#232=ORIENTED_EDGE('',*,*,#336,.T.);
#233=ORIENTED_EDGE('',*,*,#284,.F.);
#234=ORIENTED_EDGE('',*,*,#337,.F.);
#235=ORIENTED_EDGE('',*,*,#324,.F.);
#236=ORIENTED_EDGE('',*,*,#278,.F.);
#237=ORIENTED_EDGE('',*,*,#325,.F.);
#238=ORIENTED_EDGE('',*,*,#337,.T.);
#239=ORIENTED_EDGE('',*,*,#328,.F.);
#240=ORIENTED_EDGE('',*,*,#326,.F.);
#241=ORIENTED_EDGE('',*,*,#338,.F.);
#242=ORIENTED_EDGE('',*,*,#282,.F.);
#243=ORIENTED_EDGE('',*,*,#339,.F.);
#244=ORIENTED_EDGE('',*,*,#300,.F.);
#245=ORIENTED_EDGE('',*,*,#286,.T.);
#246=ORIENTED_EDGE('',*,*,#298,.T.);
#247=ORIENTED_EDGE('',*,*,#310,.T.);
#248=ORIENTED_EDGE('',*,*,#339,.T.);
#249=ORIENTED_EDGE('',*,*,#307,.T.);
#250=ORIENTED_EDGE('',*,*,#302,.T.);
#251=ORIENTED_EDGE('',*,*,#309,.F.);
#252=ORIENTED_EDGE('',*,*,#293,.F.);
#253=ORIENTED_EDGE('',*,*,#295,.T.);
#254=ORIENTED_EDGE('',*,*,#288,.T.);
#255=ORIENTED_EDGE('',*,*,#297,.F.);
#256=ORIENTED_EDGE('',*,*,#273,.F.);
#257=ORIENTED_EDGE('',*,*,#283,.T.);
#258=ORIENTED_EDGE('',*,*,#268,.T.);
#259=ORIENTED_EDGE('',*,*,#285,.F.);
#260=ORIENTED_EDGE('',*,*,#280,.F.);
#261=ORIENTED_EDGE('',*,*,#275,.T.);
#262=ORIENTED_EDGE('',*,*,#338,.T.);
#263=ORIENTED_EDGE('',*,*,#299,.F.);
#264=ORIENTED_EDGE('',*,*,#311,.F.);
#265=ORIENTED_EDGE('',*,*,#329,.F.);
#266=ORIENTED_EDGE('',*,*,#327,.F.);
#267=EDGE_CURVE('',#340,#341,#385,.T.);
#268=EDGE_CURVE('',#342,#341,#65,.T.);
#269=EDGE_CURVE('',#342,#343,#66,.T.);
#270=EDGE_CURVE('',#343,#344,#67,.T.);
#271=EDGE_CURVE('',#344,#345,#68,.T.);
#272=EDGE_CURVE('',#345,#346,#69,.T.);
#273=EDGE_CURVE('',#346,#347,#70,.T.);
#274=EDGE_CURVE('',#347,#340,#386,.T.);
#275=EDGE_CURVE('',#348,#349,#71,.T.);
#276=EDGE_CURVE('',#348,#350,#72,.T.);
#277=EDGE_CURVE('',#350,#351,#73,.T.);
#278=EDGE_CURVE('',#351,#352,#74,.T.);
#279=EDGE_CURVE('',#352,#353,#75,.T.);
#280=EDGE_CURVE('',#353,#354,#76,.T.);
#281=EDGE_CURVE('',#354,#355,#387,.T.);
#282=EDGE_CURVE('',#355,#349,#388,.T.);
#283=EDGE_CURVE('',#353,#342,#77,.T.);
#284=EDGE_CURVE('',#352,#343,#40,.T.);
#285=EDGE_CURVE('',#354,#341,#389,.T.);
#286=EDGE_CURVE('',#355,#340,#41,.T.);
#287=EDGE_CURVE('',#356,#357,#390,.T.);
#288=EDGE_CURVE('',#358,#357,#78,.T.);
#289=EDGE_CURVE('',#358,#359,#79,.T.);
#290=EDGE_CURVE('',#359,#360,#80,.T.);
#291=EDGE_CURVE('',#360,#361,#81,.T.);
#292=EDGE_CURVE('',#361,#362,#82,.T.);
#293=EDGE_CURVE('',#362,#363,#83,.T.);
#294=EDGE_CURVE('',#363,#356,#391,.T.);
#295=EDGE_CURVE('',#346,#358,#84,.T.);
#296=EDGE_CURVE('',#345,#359,#42,.T.);
#297=EDGE_CURVE('',#347,#357,#392,.T.);
#298=EDGE_CURVE('',#340,#356,#43,.T.);
#299=EDGE_CURVE('',#364,#365,#85,.T.);
#300=EDGE_CURVE('',#365,#366,#393,.T.);
#301=EDGE_CURVE('',#366,#367,#394,.T.);
#302=EDGE_CURVE('',#368,#367,#86,.T.);
#303=EDGE_CURVE('',#368,#369,#87,.T.);
#304=EDGE_CURVE('',#369,#370,#88,.T.);
#305=EDGE_CURVE('',#370,#371,#89,.T.);
#306=EDGE_CURVE('',#371,#364,#90,.T.);
#307=EDGE_CURVE('',#362,#368,#91,.T.);
#308=EDGE_CURVE('',#361,#369,#44,.T.);
#309=EDGE_CURVE('',#363,#367,#395,.T.);
#310=EDGE_CURVE('',#356,#366,#45,.T.);
#311=EDGE_CURVE('',#348,#364,#92,.T.);
#312=EDGE_CURVE('',#371,#350,#46,.T.);
#313=EDGE_CURVE('',#372,#372,#47,.T.);
#314=EDGE_CURVE('',#351,#373,#396,.F.);
#315=EDGE_CURVE('',#373,#374,#48,.F.);
#316=EDGE_CURVE('',#374,#370,#397,.T.);
#317=EDGE_CURVE('',#370,#375,#398,.F.);
#318=EDGE_CURVE('',#375,#376,#49,.F.);
#319=EDGE_CURVE('',#376,#360,#399,.T.);
#320=EDGE_CURVE('',#360,#377,#400,.F.);
#321=EDGE_CURVE('',#377,#378,#50,.F.);
#322=EDGE_CURVE('',#378,#344,#401,.T.);
#323=EDGE_CURVE('',#344,#379,#402,.F.);
#324=EDGE_CURVE('',#379,#380,#51,.F.);
#325=EDGE_CURVE('',#380,#351,#403,.T.);
#326=EDGE_CURVE('',#381,#381,#52,.F.);
#327=EDGE_CURVE('',#382,#382,#53,.F.);
#328=EDGE_CURVE('',#383,#383,#54,.T.);
#329=EDGE_CURVE('',#384,#384,#55,.T.);
#330=EDGE_CURVE('',#375,#369,#56,.F.);
#331=EDGE_CURVE('',#376,#361,#57,.T.);
#332=EDGE_CURVE('',#377,#359,#58,.F.);
#333=EDGE_CURVE('',#378,#345,#59,.T.);
#334=EDGE_CURVE('',#373,#350,#60,.F.);
#335=EDGE_CURVE('',#374,#371,#61,.T.);
#336=EDGE_CURVE('',#379,#343,#62,.F.);
#337=EDGE_CURVE('',#380,#352,#63,.T.);
#338=EDGE_CURVE('',#349,#365,#404,.T.);
#339=EDGE_CURVE('',#366,#355,#64,.T.);
#340=VERTEX_POINT('',#979);
#341=VERTEX_POINT('',#980);
#342=VERTEX_POINT('',#982);
#343=VERTEX_POINT('',#984);
#344=VERTEX_POINT('',#986);
#345=VERTEX_POINT('',#988);
#346=VERTEX_POINT('',#990);
#347=VERTEX_POINT('',#992);
#348=VERTEX_POINT('',#999);
#349=VERTEX_POINT('',#1000);
#350=VERTEX_POINT('',#1002);
#351=VERTEX_POINT('',#1004);
#352=VERTEX_POINT('',#1006);
#353=VERTEX_POINT('',#1008);
#354=VERTEX_POINT('',#1010);
#355=VERTEX_POINT('',#1015);
#356=VERTEX_POINT('',#1034);
#357=VERTEX_POINT('',#1035);
#358=VERTEX_POINT('',#1037);
#359=VERTEX_POINT('',#1039);
#360=VERTEX_POINT('',#1041);
#361=VERTEX_POINT('',#1043);
#362=VERTEX_POINT('',#1045);
#363=VERTEX_POINT('',#1047);
#364=VERTEX_POINT('',#1063);
#365=VERTEX_POINT('',#1064);
#366=VERTEX_POINT('',#1069);
#367=VERTEX_POINT('',#1074);
#368=VERTEX_POINT('',#1076);
#369=VERTEX_POINT('',#1078);
#370=VERTEX_POINT('',#1080);
#371=VERTEX_POINT('',#1082);
#372=VERTEX_POINT('',#1098);
#373=VERTEX_POINT('',#1103);
#374=VERTEX_POINT('',#1105);
#375=VERTEX_POINT('',#1114);
#376=VERTEX_POINT('',#1116);
#377=VERTEX_POINT('',#1125);
#378=VERTEX_POINT('',#1127);
#379=VERTEX_POINT('',#1136);
#380=VERTEX_POINT('',#1138);
#381=VERTEX_POINT('',#1145);
#382=VERTEX_POINT('',#1148);
#383=VERTEX_POINT('',#1150);
#384=VERTEX_POINT('',#1153);
#385=B_SPLINE_CURVE_WITH_KNOTS('',3,(#975,#976,#977,#978),.UNSPECIFIED.,
 .F.,.F.,(4,4),(0.00257584142001102,0.00435032772071231),.UNSPECIFIED.);
#386=B_SPLINE_CURVE_WITH_KNOTS('',3,(#993,#994,#995,#996),.UNSPECIFIED.,
 .F.,.F.,(4,4),(0.000805295753919282,0.00257584142001102),.UNSPECIFIED.);
#387=B_SPLINE_CURVE_WITH_KNOTS('',3,(#1011,#1012,#1013,#1014),
 .UNSPECIFIED.,.F.,.F.,(4,4),(0.000805295753919294,0.00257584142001102),
 .UNSPECIFIED.);
#388=B_SPLINE_CURVE_WITH_KNOTS('',3,(#1016,#1017,#1018,#1019),
 .UNSPECIFIED.,.F.,.F.,(4,4),(0.00257584142001102,0.00435032772071231),
 .UNSPECIFIED.);
#389=B_SPLINE_CURVE_WITH_KNOTS('',3,(#1024,#1025,#1026,#1027),
 .UNSPECIFIED.,.F.,.F.,(4,4),(0.00149100114837206,0.00255729298272423),
 .UNSPECIFIED.);
#390=B_SPLINE_CURVE_WITH_KNOTS('',3,(#1030,#1031,#1032,#1033),
 .UNSPECIFIED.,.F.,.F.,(4,4),(0.00257584142001102,0.00435032772071233),
 .UNSPECIFIED.);
#391=B_SPLINE_CURVE_WITH_KNOTS('',3,(#1048,#1049,#1050,#1051),
 .UNSPECIFIED.,.F.,.F.,(4,4),(0.000805295753919279,0.00257584142001102),
 .UNSPECIFIED.);
#392=B_SPLINE_CURVE_WITH_KNOTS('',3,(#1056,#1057,#1058,#1059),
 .UNSPECIFIED.,.F.,.F.,(4,4),(0.00125013203245377,0.00231523530884574),
 .UNSPECIFIED.);
#393=B_SPLINE_CURVE_WITH_KNOTS('',3,(#1065,#1066,#1067,#1068),
 .UNSPECIFIED.,.F.,.F.,(4,4),(0.000805295753919292,0.00257584142001103),
 .UNSPECIFIED.);
#394=B_SPLINE_CURVE_WITH_KNOTS('',3,(#1070,#1071,#1072,#1073),
 .UNSPECIFIED.,.F.,.F.,(4,4),(0.00257584142001103,0.00435032772071233),
 .UNSPECIFIED.);
#395=B_SPLINE_CURVE_WITH_KNOTS('',3,(#1088,#1089,#1090,#1091),
 .UNSPECIFIED.,.F.,.F.,(4,4),(0.00125013203245377,0.00231523530884574),
 .UNSPECIFIED.);
#396=B_SPLINE_CURVE_WITH_KNOTS('',3,(#1099,#1100,#1101,#1102),
 .UNSPECIFIED.,.F.,.F.,(4,4),(0.,0.000990467337897034),.UNSPECIFIED.);
#397=B_SPLINE_CURVE_WITH_KNOTS('',3,(#1106,#1107,#1108,#1109),
 .UNSPECIFIED.,.F.,.F.,(4,4),(0.,0.000990467337896996),.UNSPECIFIED.);
#398=B_SPLINE_CURVE_WITH_KNOTS('',3,(#1110,#1111,#1112,#1113),
 .UNSPECIFIED.,.F.,.F.,(4,4),(0.,0.000990467337897026),.UNSPECIFIED.);
#399=B_SPLINE_CURVE_WITH_KNOTS('',3,(#1117,#1118,#1119,#1120),
 .UNSPECIFIED.,.F.,.F.,(4,4),(0.,0.000990467337896992),.UNSPECIFIED.);
#400=B_SPLINE_CURVE_WITH_KNOTS('',3,(#1121,#1122,#1123,#1124),
 .UNSPECIFIED.,.F.,.F.,(4,4),(0.,0.000990467337897022),.UNSPECIFIED.);
#401=B_SPLINE_CURVE_WITH_KNOTS('',3,(#1128,#1129,#1130,#1131),
 .UNSPECIFIED.,.F.,.F.,(4,4),(0.,0.000990467337897003),.UNSPECIFIED.);
#402=B_SPLINE_CURVE_WITH_KNOTS('',3,(#1132,#1133,#1134,#1135),
 .UNSPECIFIED.,.F.,.F.,(4,4),(0.,0.000990467337897035),.UNSPECIFIED.);
#403=B_SPLINE_CURVE_WITH_KNOTS('',3,(#1139,#1140,#1141,#1142),
 .UNSPECIFIED.,.F.,.F.,(4,4),(0.,0.000990467337897002),.UNSPECIFIED.);
#404=B_SPLINE_CURVE_WITH_KNOTS('',3,(#1288,#1289,#1290,#1291),
 .UNSPECIFIED.,.F.,.F.,(4,4),(0.00125013203245378,0.00231523530884577),
 .UNSPECIFIED.);
#405=EDGE_LOOP('',(#121,#122,#123,#124,#125,#126,#127,#128));
#406=EDGE_LOOP('',(#129,#130,#131,#132,#133,#134,#135,#136));
#407=EDGE_LOOP('',(#137,#138,#139,#140));
#408=EDGE_LOOP('',(#141,#142,#143,#144));
#409=EDGE_LOOP('',(#145,#146,#147,#148,#149,#150,#151,#152));
#410=EDGE_LOOP('',(#153,#154,#155,#156));
#411=EDGE_LOOP('',(#157,#158,#159,#160));
#412=EDGE_LOOP('',(#161,#162,#163,#164,#165,#166,#167,#168));
#413=EDGE_LOOP('',(#169,#170,#171,#172));
#414=EDGE_LOOP('',(#173,#174,#175,#176));
#415=EDGE_LOOP('',(#177,#178,#179,#180));
#416=EDGE_LOOP('',(#181));
#417=EDGE_LOOP('',(#182,#183,#184,#185,#186,#187,#188,#189,#190,#191,#192,
#193));
#418=EDGE_LOOP('',(#194));
#419=EDGE_LOOP('',(#195));
#420=EDGE_LOOP('',(#196));
#421=EDGE_LOOP('',(#197));
#422=EDGE_LOOP('',(#198));
#423=EDGE_LOOP('',(#199,#200,#201));
#424=EDGE_LOOP('',(#202,#203,#204,#205));
#425=EDGE_LOOP('',(#206,#207,#208));
#426=EDGE_LOOP('',(#209,#210,#211));
#427=EDGE_LOOP('',(#212,#213,#214,#215));
#428=EDGE_LOOP('',(#216,#217,#218));
#429=EDGE_LOOP('',(#219,#220,#221));
#430=EDGE_LOOP('',(#222,#223,#224,#225));
#431=EDGE_LOOP('',(#226,#227,#228));
#432=EDGE_LOOP('',(#229,#230,#231));
#433=EDGE_LOOP('',(#232,#233,#234,#235));
#434=EDGE_LOOP('',(#236,#237,#238));
#435=EDGE_LOOP('',(#239));
#436=EDGE_LOOP('',(#240));
#437=EDGE_LOOP('',(#241,#242,#243,#244));
#438=EDGE_LOOP('',(#245,#246,#247,#248));
#439=EDGE_LOOP('',(#249,#250,#251,#252));
#440=EDGE_LOOP('',(#253,#254,#255,#256));
#441=EDGE_LOOP('',(#257,#258,#259,#260));
#442=EDGE_LOOP('',(#261,#262,#263,#264));
#443=EDGE_LOOP('',(#265));
#444=EDGE_LOOP('',(#266));
#445=FACE_BOUND('',#405,.T.);
#446=FACE_BOUND('',#406,.T.);
#447=FACE_BOUND('',#407,.T.);
#448=FACE_BOUND('',#408,.T.);
#449=FACE_BOUND('',#409,.T.);
#450=FACE_BOUND('',#410,.T.);
#451=FACE_BOUND('',#411,.T.);
#452=FACE_BOUND('',#412,.T.);
#453=FACE_BOUND('',#413,.T.);
#454=FACE_BOUND('',#414,.T.);
#455=FACE_BOUND('',#415,.T.);
#456=FACE_BOUND('',#416,.T.);
#457=FACE_BOUND('',#417,.T.);
#458=FACE_BOUND('',#418,.T.);
#459=FACE_BOUND('',#419,.T.);
#460=FACE_BOUND('',#420,.T.);
#461=FACE_BOUND('',#421,.T.);
#462=FACE_BOUND('',#422,.T.);
#463=FACE_BOUND('',#423,.T.);
#464=FACE_BOUND('',#424,.T.);
#465=FACE_BOUND('',#425,.T.);
#466=FACE_BOUND('',#426,.T.);
#467=FACE_BOUND('',#427,.T.);
#468=FACE_BOUND('',#428,.T.);
#469=FACE_BOUND('',#429,.T.);
#470=FACE_BOUND('',#430,.T.);
#471=FACE_BOUND('',#431,.T.);
#472=FACE_BOUND('',#432,.T.);
#473=FACE_BOUND('',#433,.T.);
#474=FACE_BOUND('',#434,.T.);
#475=FACE_BOUND('',#435,.T.);
#476=FACE_BOUND('',#436,.T.);
#477=FACE_BOUND('',#437,.T.);
#478=FACE_BOUND('',#438,.T.);
#479=FACE_BOUND('',#439,.T.);
#480=FACE_BOUND('',#440,.T.);
#481=FACE_BOUND('',#441,.T.);
#482=FACE_BOUND('',#442,.T.);
#483=FACE_BOUND('',#443,.T.);
#484=FACE_BOUND('',#444,.T.);
#485=PLANE('',#787);
#486=PLANE('',#788);
#487=PLANE('',#789);
#488=PLANE('',#793);
#489=PLANE('',#794);
#490=PLANE('',#798);
#491=PLANE('',#799);
#492=PLANE('',#803);
#493=PLANE('',#811);
#494=PLANE('',#816);
#495=PLANE('',#833);
#496=PLANE('',#834);
#497=PLANE('',#835);
#498=PLANE('',#836);
#499=PLANE('',#837);
#500=STYLED_ITEM('',(#535),#747);
#501=STYLED_ITEM('',(#536),#748);
#502=STYLED_ITEM('',(#537),#749);
#503=STYLED_ITEM('',(#538),#750);
#504=STYLED_ITEM('',(#539),#751);
#505=STYLED_ITEM('',(#540),#752);
#506=STYLED_ITEM('',(#541),#753);
#507=STYLED_ITEM('',(#542),#754);
#508=STYLED_ITEM('',(#543),#755);
#509=STYLED_ITEM('',(#544),#756);
#510=STYLED_ITEM('',(#545),#757);
#511=STYLED_ITEM('',(#546),#758);
#512=STYLED_ITEM('',(#547),#759);
#513=STYLED_ITEM('',(#548),#760);
#514=STYLED_ITEM('',(#549),#761);
#515=STYLED_ITEM('',(#550),#762);
#516=STYLED_ITEM('',(#551),#763);
#517=STYLED_ITEM('',(#552),#764);
#518=STYLED_ITEM('',(#553),#765);
#519=STYLED_ITEM('',(#554),#766);
#520=STYLED_ITEM('',(#555),#767);
#521=STYLED_ITEM('',(#556),#768);
#522=STYLED_ITEM('',(#557),#769);
#523=STYLED_ITEM('',(#558),#770);
#524=STYLED_ITEM('',(#559),#771);
#525=STYLED_ITEM('',(#560),#772);
#526=STYLED_ITEM('',(#561),#773);
#527=STYLED_ITEM('',(#562),#774);
#528=STYLED_ITEM('',(#563),#775);
#529=STYLED_ITEM('',(#564),#776);
#530=STYLED_ITEM('',(#565),#777);
#531=STYLED_ITEM('',(#566),#778);
#532=STYLED_ITEM('',(#567),#779);
#533=STYLED_ITEM('',(#568),#780);
#534=STYLED_ITEM('',(#569),#781);
#535=PRESENTATION_STYLE_ASSIGNMENT((#570));
#536=PRESENTATION_STYLE_ASSIGNMENT((#571));
#537=PRESENTATION_STYLE_ASSIGNMENT((#572));
#538=PRESENTATION_STYLE_ASSIGNMENT((#573));
#539=PRESENTATION_STYLE_ASSIGNMENT((#574));
#540=PRESENTATION_STYLE_ASSIGNMENT((#575));
#541=PRESENTATION_STYLE_ASSIGNMENT((#576));
#542=PRESENTATION_STYLE_ASSIGNMENT((#577));
#543=PRESENTATION_STYLE_ASSIGNMENT((#578));
#544=PRESENTATION_STYLE_ASSIGNMENT((#579));
#545=PRESENTATION_STYLE_ASSIGNMENT((#580));
#546=PRESENTATION_STYLE_ASSIGNMENT((#581));
#547=PRESENTATION_STYLE_ASSIGNMENT((#582));
#548=PRESENTATION_STYLE_ASSIGNMENT((#583));
#549=PRESENTATION_STYLE_ASSIGNMENT((#584));
#550=PRESENTATION_STYLE_ASSIGNMENT((#585));
#551=PRESENTATION_STYLE_ASSIGNMENT((#586));
#552=PRESENTATION_STYLE_ASSIGNMENT((#587));
#553=PRESENTATION_STYLE_ASSIGNMENT((#588));
#554=PRESENTATION_STYLE_ASSIGNMENT((#589));
#555=PRESENTATION_STYLE_ASSIGNMENT((#590));
#556=PRESENTATION_STYLE_ASSIGNMENT((#591));
#557=PRESENTATION_STYLE_ASSIGNMENT((#592));
#558=PRESENTATION_STYLE_ASSIGNMENT((#593));
#559=PRESENTATION_STYLE_ASSIGNMENT((#594));
#560=PRESENTATION_STYLE_ASSIGNMENT((#595));
#561=PRESENTATION_STYLE_ASSIGNMENT((#596));
#562=PRESENTATION_STYLE_ASSIGNMENT((#597));
#563=PRESENTATION_STYLE_ASSIGNMENT((#598));
#564=PRESENTATION_STYLE_ASSIGNMENT((#599));
#565=PRESENTATION_STYLE_ASSIGNMENT((#600));
#566=PRESENTATION_STYLE_ASSIGNMENT((#601));
#567=PRESENTATION_STYLE_ASSIGNMENT((#602));
#568=PRESENTATION_STYLE_ASSIGNMENT((#603));
#569=PRESENTATION_STYLE_ASSIGNMENT((#604));
#570=SURFACE_STYLE_USAGE(.BOTH.,#605);
#571=SURFACE_STYLE_USAGE(.BOTH.,#606);
#572=SURFACE_STYLE_USAGE(.BOTH.,#607);
#573=SURFACE_STYLE_USAGE(.BOTH.,#608);
#574=SURFACE_STYLE_USAGE(.BOTH.,#609);
#575=SURFACE_STYLE_USAGE(.BOTH.,#610);
#576=SURFACE_STYLE_USAGE(.BOTH.,#611);
#577=SURFACE_STYLE_USAGE(.BOTH.,#612);
#578=SURFACE_STYLE_USAGE(.BOTH.,#613);
#579=SURFACE_STYLE_USAGE(.BOTH.,#614);
#580=SURFACE_STYLE_USAGE(.BOTH.,#615);
#581=SURFACE_STYLE_USAGE(.BOTH.,#616);
#582=SURFACE_STYLE_USAGE(.BOTH.,#617);
#583=SURFACE_STYLE_USAGE(.BOTH.,#618);
#584=SURFACE_STYLE_USAGE(.BOTH.,#619);
#585=SURFACE_STYLE_USAGE(.BOTH.,#620);
#586=SURFACE_STYLE_USAGE(.BOTH.,#621);
#587=SURFACE_STYLE_USAGE(.BOTH.,#622);
#588=SURFACE_STYLE_USAGE(.BOTH.,#623);
#589=SURFACE_STYLE_USAGE(.BOTH.,#624);
#590=SURFACE_STYLE_USAGE(.BOTH.,#625);
#591=SURFACE_STYLE_USAGE(.BOTH.,#626);
#592=SURFACE_STYLE_USAGE(.BOTH.,#627);
#593=SURFACE_STYLE_USAGE(.BOTH.,#628);
#594=SURFACE_STYLE_USAGE(.BOTH.,#629);
#595=SURFACE_STYLE_USAGE(.BOTH.,#630);
#596=SURFACE_STYLE_USAGE(.BOTH.,#631);
#597=SURFACE_STYLE_USAGE(.BOTH.,#632);
#598=SURFACE_STYLE_USAGE(.BOTH.,#633);
#599=SURFACE_STYLE_USAGE(.BOTH.,#634);
#600=SURFACE_STYLE_USAGE(.BOTH.,#635);
#601=SURFACE_STYLE_USAGE(.BOTH.,#636);
#602=SURFACE_STYLE_USAGE(.BOTH.,#637);
#603=SURFACE_STYLE_USAGE(.BOTH.,#638);
#604=SURFACE_STYLE_USAGE(.BOTH.,#639);
#605=SURFACE_SIDE_STYLE('',(#640));
#606=SURFACE_SIDE_STYLE('',(#641));
#607=SURFACE_SIDE_STYLE('',(#642));
#608=SURFACE_SIDE_STYLE('',(#643));
#609=SURFACE_SIDE_STYLE('',(#644));
#610=SURFACE_SIDE_STYLE('',(#645));
#611=SURFACE_SIDE_STYLE('',(#646));
#612=SURFACE_SIDE_STYLE('',(#647));
#613=SURFACE_SIDE_STYLE('',(#648));
#614=SURFACE_SIDE_STYLE('',(#649));
#615=SURFACE_SIDE_STYLE('',(#650));
#616=SURFACE_SIDE_STYLE('',(#651));
#617=SURFACE_SIDE_STYLE('',(#652));
#618=SURFACE_SIDE_STYLE('',(#653));
#619=SURFACE_SIDE_STYLE('',(#654));
#620=SURFACE_SIDE_STYLE('',(#655));
#621=SURFACE_SIDE_STYLE('',(#656));
#622=SURFACE_SIDE_STYLE('',(#657));
#623=SURFACE_SIDE_STYLE('',(#658));
#624=SURFACE_SIDE_STYLE('',(#659));
#625=SURFACE_SIDE_STYLE('',(#660));
#626=SURFACE_SIDE_STYLE('',(#661));
#627=SURFACE_SIDE_STYLE('',(#662));
#628=SURFACE_SIDE_STYLE('',(#663));
#629=SURFACE_SIDE_STYLE('',(#664));
#630=SURFACE_SIDE_STYLE('',(#665));
#631=SURFACE_SIDE_STYLE('',(#666));
#632=SURFACE_SIDE_STYLE('',(#667));
#633=SURFACE_SIDE_STYLE('',(#668));
#634=SURFACE_SIDE_STYLE('',(#669));
#635=SURFACE_SIDE_STYLE('',(#670));
#636=SURFACE_SIDE_STYLE('',(#671));
#637=SURFACE_SIDE_STYLE('',(#672));
#638=SURFACE_SIDE_STYLE('',(#673));
#639=SURFACE_SIDE_STYLE('',(#674));
#640=SURFACE_STYLE_FILL_AREA(#675);
#641=SURFACE_STYLE_FILL_AREA(#676);
#642=SURFACE_STYLE_FILL_AREA(#677);
#643=SURFACE_STYLE_FILL_AREA(#678);
#644=SURFACE_STYLE_FILL_AREA(#679);
#645=SURFACE_STYLE_FILL_AREA(#680);
#646=SURFACE_STYLE_FILL_AREA(#681);
#647=SURFACE_STYLE_FILL_AREA(#682);
#648=SURFACE_STYLE_FILL_AREA(#683);
#649=SURFACE_STYLE_FILL_AREA(#684);
#650=SURFACE_STYLE_FILL_AREA(#685);
#651=SURFACE_STYLE_FILL_AREA(#686);
#652=SURFACE_STYLE_FILL_AREA(#687);
#653=SURFACE_STYLE_FILL_AREA(#688);
#654=SURFACE_STYLE_FILL_AREA(#689);
#655=SURFACE_STYLE_FILL_AREA(#690);
#656=SURFACE_STYLE_FILL_AREA(#691);
#657=SURFACE_STYLE_FILL_AREA(#692);
#658=SURFACE_STYLE_FILL_AREA(#693);
#659=SURFACE_STYLE_FILL_AREA(#694);
#660=SURFACE_STYLE_FILL_AREA(#695);
#661=SURFACE_STYLE_FILL_AREA(#696);
#662=SURFACE_STYLE_FILL_AREA(#697);
#663=SURFACE_STYLE_FILL_AREA(#698);
#664=SURFACE_STYLE_FILL_AREA(#699);
#665=SURFACE_STYLE_FILL_AREA(#700);
#666=SURFACE_STYLE_FILL_AREA(#701);
#667=SURFACE_STYLE_FILL_AREA(#702);
#668=SURFACE_STYLE_FILL_AREA(#703);
#669=SURFACE_STYLE_FILL_AREA(#704);
#670=SURFACE_STYLE_FILL_AREA(#705);
#671=SURFACE_STYLE_FILL_AREA(#706);
#672=SURFACE_STYLE_FILL_AREA(#707);
#673=SURFACE_STYLE_FILL_AREA(#708);
#674=SURFACE_STYLE_FILL_AREA(#709);
#675=FILL_AREA_STYLE('',(#710));
#676=FILL_AREA_STYLE('',(#711));
#677=FILL_AREA_STYLE('',(#712));
#678=FILL_AREA_STYLE('',(#713));
#679=FILL_AREA_STYLE('',(#714));
#680=FILL_AREA_STYLE('',(#715));
#681=FILL_AREA_STYLE('',(#716));
#682=FILL_AREA_STYLE('',(#717));
#683=FILL_AREA_STYLE('',(#718));
#684=FILL_AREA_STYLE('',(#719));
#685=FILL_AREA_STYLE('',(#720));
#686=FILL_AREA_STYLE('',(#721));
#687=FILL_AREA_STYLE('',(#722));
#688=FILL_AREA_STYLE('',(#723));
#689=FILL_AREA_STYLE('',(#724));
#690=FILL_AREA_STYLE('',(#725));
#691=FILL_AREA_STYLE('',(#726));
#692=FILL_AREA_STYLE('',(#727));
#693=FILL_AREA_STYLE('',(#728));
#694=FILL_AREA_STYLE('',(#729));
#695=FILL_AREA_STYLE('',(#730));
#696=FILL_AREA_STYLE('',(#731));
#697=FILL_AREA_STYLE('',(#732));
#698=FILL_AREA_STYLE('',(#733));
#699=FILL_AREA_STYLE('',(#734));
#700=FILL_AREA_STYLE('',(#735));
#701=FILL_AREA_STYLE('',(#736));
#702=FILL_AREA_STYLE('',(#737));
#703=FILL_AREA_STYLE('',(#738));
#704=FILL_AREA_STYLE('',(#739));
#705=FILL_AREA_STYLE('',(#740));
#706=FILL_AREA_STYLE('',(#741));
#707=FILL_AREA_STYLE('',(#742));
#708=FILL_AREA_STYLE('',(#743));
#709=FILL_AREA_STYLE('',(#744));
#710=FILL_AREA_STYLE_COLOUR('',#745);
#711=FILL_AREA_STYLE_COLOUR('',#745);
#712=FILL_AREA_STYLE_COLOUR('',#745);
#713=FILL_AREA_STYLE_COLOUR('',#745);
#714=FILL_AREA_STYLE_COLOUR('',#745);
#715=FILL_AREA_STYLE_COLOUR('',#745);
#716=FILL_AREA_STYLE_COLOUR('',#745);
#717=FILL_AREA_STYLE_COLOUR('',#745);
#718=FILL_AREA_STYLE_COLOUR('',#745);
#719=FILL_AREA_STYLE_COLOUR('',#745);
#720=FILL_AREA_STYLE_COLOUR('',#745);
#721=FILL_AREA_STYLE_COLOUR('',#746);
#722=FILL_AREA_STYLE_COLOUR('',#745);
#723=FILL_AREA_STYLE_COLOUR('',#745);
#724=FILL_AREA_STYLE_COLOUR('',#745);
#725=FILL_AREA_STYLE_COLOUR('',#745);
#726=FILL_AREA_STYLE_COLOUR('',#745);
#727=FILL_AREA_STYLE_COLOUR('',#745);
#728=FILL_AREA_STYLE_COLOUR('',#745);
#729=FILL_AREA_STYLE_COLOUR('',#745);
#730=FILL_AREA_STYLE_COLOUR('',#745);
#731=FILL_AREA_STYLE_COLOUR('',#745);
#732=FILL_AREA_STYLE_COLOUR('',#745);
#733=FILL_AREA_STYLE_COLOUR('',#745);
#734=FILL_AREA_STYLE_COLOUR('',#745);
#735=FILL_AREA_STYLE_COLOUR('',#745);
#736=FILL_AREA_STYLE_COLOUR('',#745);
#737=FILL_AREA_STYLE_COLOUR('',#745);
#738=FILL_AREA_STYLE_COLOUR('',#745);
#739=FILL_AREA_STYLE_COLOUR('',#745);
#740=FILL_AREA_STYLE_COLOUR('',#745);
#741=FILL_AREA_STYLE_COLOUR('',#745);
#742=FILL_AREA_STYLE_COLOUR('',#745);
#743=FILL_AREA_STYLE_COLOUR('',#745);
#744=FILL_AREA_STYLE_COLOUR('',#745);
#745=COLOUR_RGB('',0.506983280181885,0.531564235687256,0.550000011920929);
#746=COLOUR_RGB('',0.1875,0.75,0.581249892711639);
#747=ADVANCED_FACE('',(#445),#485,.T.);
#748=ADVANCED_FACE('',(#446),#486,.T.);
#749=ADVANCED_FACE('',(#447),#487,.F.);
#750=ADVANCED_FACE('',(#448),#36,.T.);
#751=ADVANCED_FACE('',(#449),#488,.T.);
#752=ADVANCED_FACE('',(#450),#489,.F.);
#753=ADVANCED_FACE('',(#451),#37,.T.);
#754=ADVANCED_FACE('',(#452),#490,.T.);
#755=ADVANCED_FACE('',(#453),#491,.F.);
#756=ADVANCED_FACE('',(#454),#38,.T.);
#757=ADVANCED_FACE('',(#455),#492,.F.);
#758=ADVANCED_FACE('',(#456,#457),#34,.T.);
#759=ADVANCED_FACE('',(#458,#459),#493,.T.);
#760=ADVANCED_FACE('',(#460,#461),#35,.T.);
#761=ADVANCED_FACE('',(#462),#494,.T.);
#762=ADVANCED_FACE('',(#463),#26,.F.);
#763=ADVANCED_FACE('',(#464),#20,.F.);
#764=ADVANCED_FACE('',(#465),#27,.F.);
#765=ADVANCED_FACE('',(#466),#28,.F.);
#766=ADVANCED_FACE('',(#467),#21,.F.);
#767=ADVANCED_FACE('',(#468),#29,.F.);
#768=ADVANCED_FACE('',(#469),#30,.F.);
#769=ADVANCED_FACE('',(#470),#22,.F.);
#770=ADVANCED_FACE('',(#471),#31,.F.);
#771=ADVANCED_FACE('',(#472),#32,.F.);
#772=ADVANCED_FACE('',(#473),#23,.F.);
#773=ADVANCED_FACE('',(#474),#33,.F.);
#774=ADVANCED_FACE('',(#475,#476),#24,.F.);
#775=ADVANCED_FACE('',(#477),#39,.T.);
#776=ADVANCED_FACE('',(#478),#495,.T.);
#777=ADVANCED_FACE('',(#479),#496,.T.);
#778=ADVANCED_FACE('',(#480),#497,.T.);
#779=ADVANCED_FACE('',(#481),#498,.T.);
#780=ADVANCED_FACE('',(#482),#499,.F.);
#781=ADVANCED_FACE('',(#483,#484),#25,.T.);
#782=CLOSED_SHELL('',(#747,#748,#749,#750,#751,#752,#753,#754,#755,#756,
#757,#758,#759,#760,#761,#762,#763,#764,#765,#766,#767,#768,#769,#770,#771,
#772,#773,#774,#775,#776,#777,#778,#779,#780,#781));
#783=MANIFOLD_SOLID_BREP('',#782);
#784=SHAPE_DEFINITION_REPRESENTATION(#1305,#785);
#785=SHAPE_REPRESENTATION('\X2\65B95934957F570667F17AEF7D275B9A87BA9489\X0\ 
GBT85-1988',(#786),#1300);
#786=AXIS2_PLACEMENT_3D('',#973,#839,#840);
#787=AXIS2_PLACEMENT_3D('',#974,#841,#842);
#788=AXIS2_PLACEMENT_3D('',#997,#849,#850);
#789=AXIS2_PLACEMENT_3D('',#1020,#857,#858);
#790=AXIS2_PLACEMENT_3D('',#1022,#860,#861);
#791=AXIS2_PLACEMENT_3D('',#1023,#862,#863);
#792=AXIS2_PLACEMENT_3D('',#1028,#864,#865);
#793=AXIS2_PLACEMENT_3D('',#1029,#866,#867);
#794=AXIS2_PLACEMENT_3D('',#1052,#874,#875);
#795=AXIS2_PLACEMENT_3D('',#1054,#877,#878);
#796=AXIS2_PLACEMENT_3D('',#1055,#879,#880);
#797=AXIS2_PLACEMENT_3D('',#1060,#881,#882);
#798=AXIS2_PLACEMENT_3D('',#1061,#883,#884);
#799=AXIS2_PLACEMENT_3D('',#1084,#891,#892);
#800=AXIS2_PLACEMENT_3D('',#1086,#894,#895);
#801=AXIS2_PLACEMENT_3D('',#1087,#896,#897);
#802=AXIS2_PLACEMENT_3D('',#1092,#898,#899);
#803=AXIS2_PLACEMENT_3D('',#1093,#900,#901);
#804=AXIS2_PLACEMENT_3D('',#1095,#903,#904);
#805=AXIS2_PLACEMENT_3D('',#1096,#905,#906);
#806=AXIS2_PLACEMENT_3D('',#1097,#907,#908);
#807=AXIS2_PLACEMENT_3D('',#1104,#909,#910);
#808=AXIS2_PLACEMENT_3D('',#1115,#911,#912);
#809=AXIS2_PLACEMENT_3D('',#1126,#913,#914);
#810=AXIS2_PLACEMENT_3D('',#1137,#915,#916);
#811=AXIS2_PLACEMENT_3D('',#1143,#917,#918);
#812=AXIS2_PLACEMENT_3D('',#1144,#919,#920);
#813=AXIS2_PLACEMENT_3D('',#1146,#921,#922);
#814=AXIS2_PLACEMENT_3D('',#1147,#923,#924);
#815=AXIS2_PLACEMENT_3D('',#1149,#925,#926);
#816=AXIS2_PLACEMENT_3D('',#1151,#927,#928);
#817=AXIS2_PLACEMENT_3D('',#1152,#929,#930);
#818=AXIS2_PLACEMENT_3D('',#1169,#931,#932);
#819=AXIS2_PLACEMENT_3D('',#1170,#933,#934);
#820=AXIS2_PLACEMENT_3D('',#1171,#935,#936);
#821=AXIS2_PLACEMENT_3D('',#1202,#937,#938);
#822=AXIS2_PLACEMENT_3D('',#1203,#939,#940);
#823=AXIS2_PLACEMENT_3D('',#1204,#941,#942);
#824=AXIS2_PLACEMENT_3D('',#1235,#943,#944);
#825=AXIS2_PLACEMENT_3D('',#1236,#945,#946);
#826=AXIS2_PLACEMENT_3D('',#1237,#947,#948);
#827=AXIS2_PLACEMENT_3D('',#1268,#949,#950);
#828=AXIS2_PLACEMENT_3D('',#1269,#951,#952);
#829=AXIS2_PLACEMENT_3D('',#1270,#953,#954);
#830=AXIS2_PLACEMENT_3D('',#1286,#955,#956);
#831=AXIS2_PLACEMENT_3D('',#1287,#957,#958);
#832=AXIS2_PLACEMENT_3D('',#1292,#959,#960);
#833=AXIS2_PLACEMENT_3D('',#1293,#961,#962);
#834=AXIS2_PLACEMENT_3D('',#1294,#963,#964);
#835=AXIS2_PLACEMENT_3D('',#1295,#965,#966);
#836=AXIS2_PLACEMENT_3D('',#1296,#967,#968);
#837=AXIS2_PLACEMENT_3D('',#1297,#969,#970);
#838=AXIS2_PLACEMENT_3D('',#1298,#971,#972);
#839=DIRECTION('',(0.,0.,1.));
#840=DIRECTION('',(1.,0.,0.));
#841=DIRECTION('',(-0.707106781186547,0.,0.707106781186548));
#842=DIRECTION('',(0.707106781186548,0.,0.707106781186547));
#843=DIRECTION('',(0.,-1.,0.));
#844=DIRECTION('',(-0.707106781186548,0.,-0.707106781186547));
#845=DIRECTION('',(-0.707106781186548,0.,-0.707106781186547));
#846=DIRECTION('',(-0.707106781186548,0.,-0.707106781186547));
#847=DIRECTION('',(-0.707106781186548,0.,-0.707106781186547));
#848=DIRECTION('',(0.,-1.,0.));
#849=DIRECTION('',(0.707106781186547,0.,0.707106781186548));
#850=DIRECTION('',(0.707106781186548,0.,-0.707106781186547));
#851=DIRECTION('',(0.,-1.,0.));
#852=DIRECTION('',(-0.707106781186548,0.,0.707106781186547));
#853=DIRECTION('',(-0.707106781186548,0.,0.707106781186547));
#854=DIRECTION('',(-0.707106781186548,0.,0.707106781186547));
#855=DIRECTION('',(-0.707106781186548,0.,0.707106781186547));
#856=DIRECTION('',(0.,-1.,0.));
#857=DIRECTION('',(0.,-1.,0.));
#858=DIRECTION('',(0.,0.,-1.));
#859=DIRECTION('',(-1.,0.,0.));
#860=DIRECTION('',(0.,-1.,0.));
#861=DIRECTION('',(0.,0.,-1.));
#862=DIRECTION('',(6.12303176911189E-17,1.,0.));
#863=DIRECTION('',(-1.,6.12303176911189E-17,0.));
#864=DIRECTION('',(-6.12303176911189E-17,-1.,0.));
#865=DIRECTION('',(1.,-6.12303176911189E-17,0.));
#866=DIRECTION('',(-0.707106781186548,0.,-0.707106781186548));
#867=DIRECTION('',(-0.707106781186548,0.,0.707106781186548));
#868=DIRECTION('',(0.,-1.,0.));
#869=DIRECTION('',(0.707106781186548,0.,-0.707106781186548));
#870=DIRECTION('',(0.707106781186548,0.,-0.707106781186548));
#871=DIRECTION('',(0.707106781186548,0.,-0.707106781186548));
#872=DIRECTION('',(0.707106781186548,0.,-0.707106781186548));
#873=DIRECTION('',(0.,-1.,0.));
#874=DIRECTION('',(0.,-1.,0.));
#875=DIRECTION('',(0.,0.,-1.));
#876=DIRECTION('',(0.,0.,-1.));
#877=DIRECTION('',(0.,-1.,0.));
#878=DIRECTION('',(0.,0.,-1.));
#879=DIRECTION('',(6.12303176911189E-17,1.,0.));
#880=DIRECTION('',(-1.,6.12303176911189E-17,0.));
#881=DIRECTION('',(-6.12303176911189E-17,-1.,0.));
#882=DIRECTION('',(1.,-6.12303176911189E-17,0.));
#883=DIRECTION('',(0.707106781186548,0.,-0.707106781186547));
#884=DIRECTION('',(-0.707106781186547,0.,-0.707106781186548));
#885=DIRECTION('',(0.,-1.,0.));
#886=DIRECTION('',(0.,-1.,0.));
#887=DIRECTION('',(0.707106781186547,0.,0.707106781186548));
#888=DIRECTION('',(0.707106781186547,0.,0.707106781186548));
#889=DIRECTION('',(0.707106781186547,0.,0.707106781186548));
#890=DIRECTION('',(0.707106781186547,0.,0.707106781186548));
#891=DIRECTION('',(0.,-1.,0.));
#892=DIRECTION('',(0.,0.,-1.));
#893=DIRECTION('',(1.,0.,0.));
#894=DIRECTION('',(0.,-1.,0.));
#895=DIRECTION('',(0.,0.,-1.));
#896=DIRECTION('',(6.12303176911189E-17,1.,0.));
#897=DIRECTION('',(-1.,6.12303176911189E-17,0.));
#898=DIRECTION('',(-6.12303176911189E-17,-1.,0.));
#899=DIRECTION('',(1.,-6.12303176911189E-17,0.));
#900=DIRECTION('',(0.,-1.,0.));
#901=DIRECTION('',(0.,0.,-1.));
#902=DIRECTION('',(0.,0.,-1.));
#903=DIRECTION('',(0.,-1.,0.));
#904=DIRECTION('',(0.,0.,-1.));
#905=DIRECTION('',(-6.12303176911189E-17,-1.,4.87890977618477E-16));
#906=DIRECTION('',(0.,-4.87890977618477E-16,-1.));
#907=DIRECTION('',(-6.12303176911189E-17,-1.,4.87890977618477E-16));
#908=DIRECTION('',(0.,-4.87890977618477E-16,-1.));
#909=DIRECTION('',(0.,-1.,0.));
#910=DIRECTION('',(0.,0.,-1.));
#911=DIRECTION('',(0.,-1.,0.));
#912=DIRECTION('',(0.,0.,-1.));
#913=DIRECTION('',(0.,-1.,0.));
#914=DIRECTION('',(0.,0.,-1.));
#915=DIRECTION('',(0.,-1.,0.));
#916=DIRECTION('',(0.,0.,-1.));
#917=DIRECTION('',(6.12303176911189E-17,1.,-4.87890977618477E-16));
#918=DIRECTION('',(0.,4.87890977618477E-16,1.));
#919=DIRECTION('',(6.12303176911189E-17,1.,-4.87890977618477E-16));
#920=DIRECTION('',(0.,4.87890977618477E-16,1.));
#921=DIRECTION('',(-6.12303176911189E-17,-1.,4.87890977618477E-16));
#922=DIRECTION('',(0.,-4.87890977618477E-16,-1.));
#923=DIRECTION('',(6.12303176911189E-17,1.,-4.87890977618477E-16));
#924=DIRECTION('',(0.,4.87890977618477E-16,1.));
#925=DIRECTION('',(6.12303176911189E-17,1.,-4.87890977618477E-16));
#926=DIRECTION('',(0.,4.87890977618477E-16,1.));
#927=DIRECTION('',(6.12303176911189E-17,1.,-4.87890977618477E-16));
#928=DIRECTION('',(0.,4.87890977618477E-16,1.));
#929=DIRECTION('',(6.12303176911189E-17,1.,-4.87890977618477E-16));
#930=DIRECTION('',(0.,4.87890977618477E-16,1.));
#931=DIRECTION('',(-0.921806373355242,2.10145826977975E-16,-0.387650628842075));
#932=DIRECTION('',(-0.387650628842075,0.,0.921806373355242));
#933=DIRECTION('',(0.,-1.,0.));
#934=DIRECTION('',(0.,0.,-1.));
#935=DIRECTION('',(0.921806373355242,8.40583307911903E-16,-0.387650628842076));
#936=DIRECTION('',(-0.387650628842076,0.,-0.921806373355242));
#937=DIRECTION('',(-0.387650628842076,1.28899088192613E-15,0.921806373355242));
#938=DIRECTION('',(0.921806373355242,0.,0.387650628842076));
#939=DIRECTION('',(0.,-1.,0.));
#940=DIRECTION('',(0.,0.,-1.));
#941=DIRECTION('',(-0.387650628842072,0.,-0.921806373355243));
#942=DIRECTION('',(-0.921806373355243,0.,0.387650628842072));
#943=DIRECTION('',(0.387650628842072,4.9971223630137E-16,-0.921806373355243));
#944=DIRECTION('',(-0.921806373355243,0.,-0.387650628842072));
#945=DIRECTION('',(0.,-1.,0.));
#946=DIRECTION('',(0.,0.,-1.));
#947=DIRECTION('',(0.387650628842074,0.,0.921806373355243));
#948=DIRECTION('',(0.921806373355243,0.,-0.387650628842074));
#949=DIRECTION('',(0.921806373355244,2.89566409323398E-16,0.38765062884207));
#950=DIRECTION('',(0.38765062884207,0.,-0.921806373355244));
#951=DIRECTION('',(0.,-1.,0.));
#952=DIRECTION('',(0.,0.,-1.));
#953=DIRECTION('',(-0.921806373355244,1.58841164690851E-16,0.38765062884207));
#954=DIRECTION('',(0.38765062884207,0.,0.921806373355244));
#955=DIRECTION('',(6.12303176911189E-17,1.,-4.87890977618477E-16));
#956=DIRECTION('',(0.,4.87890977618477E-16,1.));
#957=DIRECTION('',(6.12303176911189E-17,1.,0.));
#958=DIRECTION('',(-1.,6.12303176911189E-17,0.));
#959=DIRECTION('',(-6.12303176911189E-17,-1.,0.));
#960=DIRECTION('',(1.,-6.12303176911189E-17,0.));
#961=DIRECTION('',(0.,-1.,0.));
#962=DIRECTION('',(0.,0.,-1.));
#963=DIRECTION('',(0.,0.,-1.));
#964=DIRECTION('',(-1.,0.,0.));
#965=DIRECTION('',(-1.,0.,0.));
#966=DIRECTION('',(0.,0.,1.));
#967=DIRECTION('',(0.,0.,1.));
#968=DIRECTION('',(1.,0.,0.));
#969=DIRECTION('',(-1.,0.,0.));
#970=DIRECTION('',(0.,0.,1.));
#971=DIRECTION('',(6.12303176911189E-17,1.,-4.87890977618477E-16));
#972=DIRECTION('',(0.,4.87890977618477E-16,1.));
#973=CARTESIAN_POINT('',(0.,0.,0.));
#974=CARTESIAN_POINT('',(0.,5.,3.53553390593274));
#975=CARTESIAN_POINT('',(-1.76776695296637,-2.64600249888503E-15,1.76776695296637));
#976=CARTESIAN_POINT('',(-1.34850484770197,-2.64600249888503E-15,2.18702905823077));
#977=CARTESIAN_POINT('',(-0.936269594062872,0.128949917296905,2.59926431186987));
#978=CARTESIAN_POINT('',(-0.535533905932746,0.316055728019213,2.99999999999999));
#979=CARTESIAN_POINT('',(-1.76776695296637,1.08240932133992E-16,1.76776695296637));
#980=CARTESIAN_POINT('',(-0.535533905932747,0.316055728019213,2.99999999999999));
#981=CARTESIAN_POINT('',(-0.535533905932747,19.3501009524807,2.99999999999999));
#982=CARTESIAN_POINT('',(-0.535533905932746,5.,2.99999999999999));
#983=CARTESIAN_POINT('',(0.,5.,3.53553390593274));
#984=CARTESIAN_POINT('',(-1.04665669787358,5.,2.48887720805915));
#985=CARTESIAN_POINT('',(0.,5.,3.53553390593274));
#986=CARTESIAN_POINT('',(-1.76776695296636,5.,1.76776695296637));
#987=CARTESIAN_POINT('',(0.,5.,3.53553390593274));
#988=CARTESIAN_POINT('',(-2.48887720805915,5.,1.0466566978736));
#989=CARTESIAN_POINT('',(0.,5.,3.53553390593274));
#990=CARTESIAN_POINT('',(-3.,5.,0.535533905932742));
#991=CARTESIAN_POINT('',(-3.,19.5374820136986,0.535533905932742));
#992=CARTESIAN_POINT('',(-3.,0.316055728019217,0.535533905932742));
#993=CARTESIAN_POINT('',(-3.,0.316055728019217,0.535533905932742));
#994=CARTESIAN_POINT('',(-2.60321646336213,0.130795199688666,0.932317442570614));
#995=CARTESIAN_POINT('',(-2.1860979951046,-2.64600249888503E-15,1.34943591082814));
#996=CARTESIAN_POINT('',(-1.76776695296637,-2.64600249888503E-15,1.76776695296637));
#997=CARTESIAN_POINT('',(3.53553390593274,5.,5.92180241609585E-15));
#998=CARTESIAN_POINT('',(2.99999999999999,19.1758494840672,0.535533905932751));
#999=CARTESIAN_POINT('',(2.99999999999999,5.,0.53553390593275));
#1000=CARTESIAN_POINT('',(2.99999999999999,0.316055728019214,0.535533905932751));
#1001=CARTESIAN_POINT('',(3.53553390593274,5.,5.92180241609585E-15));
#1002=CARTESIAN_POINT('',(2.48887720805915,5.,1.0466566978736));
#1003=CARTESIAN_POINT('',(3.53553390593274,5.,5.92180241609585E-15));
#1004=CARTESIAN_POINT('',(1.76776695296636,5.,1.76776695296637));
#1005=CARTESIAN_POINT('',(3.53553390593274,5.,5.92180241609585E-15));
#1006=CARTESIAN_POINT('',(1.04665669787359,5.,2.48887720805915));
#1007=CARTESIAN_POINT('',(3.53553390593274,5.,5.92180241609585E-15));
#1008=CARTESIAN_POINT('',(0.535533905932746,5.,2.99999999999999));
#1009=CARTESIAN_POINT('',(0.535533905932746,19.3501009524807,2.99999999999999));
#1010=CARTESIAN_POINT('',(0.535533905932746,0.316055728019213,2.99999999999999));
#1011=CARTESIAN_POINT('',(0.535533905932746,0.316055728019213,2.99999999999999));
#1012=CARTESIAN_POINT('',(0.932317442570615,0.130795199688665,2.60321646336212));
#1013=CARTESIAN_POINT('',(1.34943591082814,-2.32379140139882E-15,2.1860979951046));
#1014=CARTESIAN_POINT('',(1.76776695296637,-2.36171283024054E-15,1.76776695296637));
#1015=CARTESIAN_POINT('',(1.76776695296637,-1.08240932133992E-16,1.76776695296637));
#1016=CARTESIAN_POINT('',(1.76776695296637,-2.36171283024054E-15,1.76776695296637));
#1017=CARTESIAN_POINT('',(2.18702905823077,-2.39971865933117E-15,1.34850484770197));
#1018=CARTESIAN_POINT('',(2.59926431186987,0.128949917296906,0.936269594062875));
#1019=CARTESIAN_POINT('',(2.99999999999999,0.316055728019214,0.535533905932751));
#1020=CARTESIAN_POINT('',(0.,5.,0.));
#1021=CARTESIAN_POINT('',(0.,5.,2.99999999999999));
#1022=CARTESIAN_POINT('',(3.18397651993818E-16,5.,5.97395397039513E-15));
#1023=CARTESIAN_POINT('',(0.,0.,0.));
#1024=CARTESIAN_POINT('',(0.535533905932746,0.316055728019213,2.99999999999999));
#1025=CARTESIAN_POINT('',(0.180840850623834,0.280068693190884,2.99999999999999));
#1026=CARTESIAN_POINT('',(-0.182200866260549,0.280206679907436,2.99999999999999));
#1027=CARTESIAN_POINT('',(-0.535533905932746,0.316055728019213,2.99999999999999));
#1028=CARTESIAN_POINT('',(0.,0.,0.));
#1029=CARTESIAN_POINT('',(-3.53553390593274,5.,3.46944695195361E-15));
#1030=CARTESIAN_POINT('',(-1.76776695296637,-4.27350998085033E-15,-1.76776695296637));
#1031=CARTESIAN_POINT('',(-2.18702905823077,-4.15949249357844E-15,-1.34850484770196));
#1032=CARTESIAN_POINT('',(-2.59926431186987,0.128949917296906,-0.936269594062864));
#1033=CARTESIAN_POINT('',(-3.,0.316055728019216,-0.535533905932735));
#1034=CARTESIAN_POINT('',(-1.76776695296637,1.08240932133992E-16,-1.76776695296637));
#1035=CARTESIAN_POINT('',(-3.,0.316055728019216,-0.535533905932734));
#1036=CARTESIAN_POINT('',(-3.,19.5374820136986,-0.535533905932734));
#1037=CARTESIAN_POINT('',(-3.,5.,-0.535533905932735));
#1038=CARTESIAN_POINT('',(-3.53553390593274,5.,3.46944695195361E-15));
#1039=CARTESIAN_POINT('',(-2.48887720805914,5.,-1.04665669787359));
#1040=CARTESIAN_POINT('',(-3.53553390593274,5.,3.46944695195361E-15));
#1041=CARTESIAN_POINT('',(-1.76776695296636,5.,-1.76776695296635));
#1042=CARTESIAN_POINT('',(-3.53553390593274,5.,3.46944695195361E-15));
#1043=CARTESIAN_POINT('',(-1.0466566978736,5.,-2.48887720805914));
#1044=CARTESIAN_POINT('',(-3.53553390593274,5.,3.46944695195361E-15));
#1045=CARTESIAN_POINT('',(-0.535533905932739,5.,-3.));
#1046=CARTESIAN_POINT('',(-0.535533905932739,19.723082923316,-3.));
#1047=CARTESIAN_POINT('',(-0.535533905932736,0.316055728019216,-3.));
#1048=CARTESIAN_POINT('',(-0.535533905932735,0.316055728019216,-3.));
#1049=CARTESIAN_POINT('',(-0.932317442570608,0.130795199688665,-2.60321646336213));
#1050=CARTESIAN_POINT('',(-1.34943591082814,-4.38727426737547E-15,-2.1860979951046));
#1051=CARTESIAN_POINT('',(-1.76776695296637,-4.27350998085033E-15,-1.76776695296637));
#1052=CARTESIAN_POINT('',(0.,5.,0.));
#1053=CARTESIAN_POINT('',(-3.,5.,0.));
#1054=CARTESIAN_POINT('',(3.18397651993818E-16,5.,5.97395397039513E-15));
#1055=CARTESIAN_POINT('',(0.,0.,0.));
#1056=CARTESIAN_POINT('',(-3.,0.316055728019217,0.535533905932741));
#1057=CARTESIAN_POINT('',(-3.,0.280180197301531,0.181939850134957));
#1058=CARTESIAN_POINT('',(-3.,0.280027601140853,-0.180435841852345));
#1059=CARTESIAN_POINT('',(-3.,0.316055728019186,-0.535533905932739));
#1060=CARTESIAN_POINT('',(0.,0.,0.));
#1061=CARTESIAN_POINT('',(-5.91027467065172E-17,5.,-3.53553390593274));
#1062=CARTESIAN_POINT('',(2.99999999999999,19.1758494840672,-0.535533905932738));
#1063=CARTESIAN_POINT('',(2.99999999999999,5.,-0.535533905932738));
#1064=CARTESIAN_POINT('',(2.99999999999999,0.316055728019213,-0.535533905932738));
#1065=CARTESIAN_POINT('',(2.99999999999999,0.316055728019213,-0.535533905932739));
#1066=CARTESIAN_POINT('',(2.60321646336212,0.130795199688663,-0.93231744257061));
#1067=CARTESIAN_POINT('',(2.1860979951046,-5.07803483241702E-15,-1.34943591082814));
#1068=CARTESIAN_POINT('',(1.76776695296637,-5.11595626125873E-15,-1.76776695296637));
#1069=CARTESIAN_POINT('',(1.76776695296637,-1.08240932133992E-16,-1.76776695296637));
#1070=CARTESIAN_POINT('',(1.76776695296637,-5.11595626125873E-15,-1.76776695296637));
#1071=CARTESIAN_POINT('',(1.34850484770196,-5.0779504321681E-15,-2.18702905823077));
#1072=CARTESIAN_POINT('',(0.936269594062864,0.128949917296905,-2.59926431186987));
#1073=CARTESIAN_POINT('',(0.535533905932736,0.316055728019216,-3.));
#1074=CARTESIAN_POINT('',(0.535533905932735,0.316055728019216,-3.));
#1075=CARTESIAN_POINT('',(0.535533905932735,19.723082923316,-3.));
#1076=CARTESIAN_POINT('',(0.535533905932735,5.,-3.));
#1077=CARTESIAN_POINT('',(-5.91027467065172E-17,5.,-3.53553390593274));
#1078=CARTESIAN_POINT('',(1.0466566978736,5.,-2.48887720805914));
#1079=CARTESIAN_POINT('',(-5.91027467065172E-17,5.,-3.53553390593274));
#1080=CARTESIAN_POINT('',(1.76776695296636,5.,-1.76776695296635));
#1081=CARTESIAN_POINT('',(-5.91027467065172E-17,5.,-3.53553390593274));
#1082=CARTESIAN_POINT('',(2.48887720805914,5.,-1.04665669787359));
#1083=CARTESIAN_POINT('',(-5.91027467065172E-17,5.,-3.53553390593274));
#1084=CARTESIAN_POINT('',(0.,5.,0.));
#1085=CARTESIAN_POINT('',(0.,5.,-3.));
#1086=CARTESIAN_POINT('',(3.18397651993818E-16,5.,5.97395397039513E-15));
#1087=CARTESIAN_POINT('',(0.,0.,0.));
#1088=CARTESIAN_POINT('',(-0.535533905932736,0.316055728019216,-3.));
#1089=CARTESIAN_POINT('',(-0.181939850134953,0.280180197301531,-3.));
#1090=CARTESIAN_POINT('',(0.180435841852347,0.280027601140853,-3.));
#1091=CARTESIAN_POINT('',(0.53553390593274,0.316055728019186,-3.));
#1092=CARTESIAN_POINT('',(0.,0.,0.));
#1093=CARTESIAN_POINT('',(0.,5.,0.));
#1094=CARTESIAN_POINT('',(2.99999999999999,5.,0.));
#1095=CARTESIAN_POINT('',(3.18397651993818E-16,5.,5.97395397039513E-15));
#1096=CARTESIAN_POINT('',(3.06151588455594E-16,5.,6.07153216591882E-15));
#1097=CARTESIAN_POINT('',(8.87839606521223E-16,14.5,1.43656787854329E-15));
#1098=CARTESIAN_POINT('',(8.87839606521223E-16,14.5,-2.49999999999999));
#1099=CARTESIAN_POINT('',(2.3045159333881,5.2,0.969126572105182));
#1100=CARTESIAN_POINT('',(2.17542975614897,5.2,1.27608456994599));
#1101=CARTESIAN_POINT('',(1.99174763263504,5.09310487816004,1.54378627329769));
#1102=CARTESIAN_POINT('',(1.76776695296636,5.,1.76776695296637));
#1103=CARTESIAN_POINT('',(2.3045159333881,5.2,0.969126572105182));
#1104=CARTESIAN_POINT('',(3.18397651993818E-16,5.2,5.97395397039513E-15));
#1105=CARTESIAN_POINT('',(2.3045159333881,5.2,-0.969126572105174));
#1106=CARTESIAN_POINT('',(2.3045159333881,5.2,-0.969126572105174));
#1107=CARTESIAN_POINT('',(2.17542975614897,5.2,-1.27608456994598));
#1108=CARTESIAN_POINT('',(1.99174763263331,5.0931048781683,-1.5437862732994));
#1109=CARTESIAN_POINT('',(1.76776695296636,5.,-1.76776695296635));
#1110=CARTESIAN_POINT('',(0.969126572105183,5.2,-2.30451593338809));
#1111=CARTESIAN_POINT('',(1.27608456994598,5.2,-2.17542975614896));
#1112=CARTESIAN_POINT('',(1.54378627329912,5.09310487816697,-1.99174763263359));
#1113=CARTESIAN_POINT('',(1.76776695296636,5.,-1.76776695296635));
#1114=CARTESIAN_POINT('',(0.969126572105183,5.2,-2.30451593338809));
#1115=CARTESIAN_POINT('',(3.18397651993818E-16,5.2,5.97395397039513E-15));
#1116=CARTESIAN_POINT('',(-0.969126572105184,5.2,-2.30451593338809));
#1117=CARTESIAN_POINT('',(-0.969126572105184,5.2,-2.30451593338809));
#1118=CARTESIAN_POINT('',(-1.27608456994599,5.2,-2.17542975614896));
#1119=CARTESIAN_POINT('',(-1.54378627329966,5.09310487816949,-1.99174763263306));
#1120=CARTESIAN_POINT('',(-1.76776695296636,5.,-1.76776695296635));
#1121=CARTESIAN_POINT('',(-2.30451593338809,5.2,-0.969126572105179));
#1122=CARTESIAN_POINT('',(-2.17542975614897,5.2,-1.27608456994598));
#1123=CARTESIAN_POINT('',(-1.99174763263289,5.09310487817037,-1.54378627329983));
#1124=CARTESIAN_POINT('',(-1.76776695296636,5.,-1.76776695296635));
#1125=CARTESIAN_POINT('',(-2.30451593338809,5.2,-0.969126572105179));
#1126=CARTESIAN_POINT('',(3.18397651993818E-16,5.2,5.97395397039513E-15));
#1127=CARTESIAN_POINT('',(-2.3045159333881,5.2,0.969126572105181));
#1128=CARTESIAN_POINT('',(-2.3045159333881,5.2,0.969126572105181));
#1129=CARTESIAN_POINT('',(-2.17542975614897,5.2,1.27608456994599));
#1130=CARTESIAN_POINT('',(-1.99174763263535,5.09310487815852,1.54378627329738));
#1131=CARTESIAN_POINT('',(-1.76776695296636,5.,1.76776695296637));
#1132=CARTESIAN_POINT('',(-0.96912657210517,5.2,2.30451593338811));
#1133=CARTESIAN_POINT('',(-1.27608456994598,5.2,2.17542975614898));
#1134=CARTESIAN_POINT('',(-1.54378627329725,5.09310487815795,1.99174763263548));
#1135=CARTESIAN_POINT('',(-1.76776695296636,5.,1.76776695296637));
#1136=CARTESIAN_POINT('',(-0.96912657210517,5.2,2.30451593338811));
#1137=CARTESIAN_POINT('',(3.18397651993818E-16,5.2,5.97395397039513E-15));
#1138=CARTESIAN_POINT('',(0.969126572105172,5.2,2.30451593338811));
#1139=CARTESIAN_POINT('',(0.969126572105172,5.2,2.30451593338811));
#1140=CARTESIAN_POINT('',(1.27608456994598,5.2,2.17542975614898));
#1141=CARTESIAN_POINT('',(1.54378627329775,5.09310487816036,1.99174763263497));
#1142=CARTESIAN_POINT('',(1.76776695296636,5.,1.76776695296637));
#1143=CARTESIAN_POINT('',(8.87839606521223E-16,14.5,2.49999999999999));
#1144=CARTESIAN_POINT('',(8.87839606521223E-16,14.5,1.43656787854329E-15));
#1145=CARTESIAN_POINT('',(8.87839606521223E-16,14.5,1.79999999999999));
#1146=CARTESIAN_POINT('',(3.06151588455594E-16,5.,6.07153216591882E-15));
#1147=CARTESIAN_POINT('',(1.0286693372108E-15,16.8,3.14418630020795E-16));
#1148=CARTESIAN_POINT('',(1.0286693372108E-15,16.8,1.59999999999999));
#1149=CARTESIAN_POINT('',(9.00085670059447E-16,14.7,1.3389896830196E-15));
#1150=CARTESIAN_POINT('',(9.00085670059447E-16,14.7,1.59999999999999));
#1151=CARTESIAN_POINT('',(1.04091540074902E-15,17.,2.16840434497101E-16));
#1152=CARTESIAN_POINT('',(1.04091540074902E-15,17.,2.16840434497101E-16));
#1153=CARTESIAN_POINT('',(1.04091540074902E-15,17.,1.39999999999999));
#1154=CARTESIAN_POINT('',(1.0466566978736,5.,-2.48887720805914));
#1155=CARTESIAN_POINT('',(0.969126572105183,5.,-2.30451593338809));
#1156=CARTESIAN_POINT('',(0.969126572105183,5.2,-2.30451593338809));
#1157=CARTESIAN_POINT('',(1.16349415988979,5.,-2.37203974604293));
#1158=CARTESIAN_POINT('',(1.08058268373261,5.05398629744375,-2.25764497064214));
#1159=CARTESIAN_POINT('',(1.12143951649255,5.19999987474742,-2.24046320997543));
#1160=CARTESIAN_POINT('',(1.40486542179325,4.99999999999926,-2.1306684841395));
#1161=CARTESIAN_POINT('',(1.37779191020879,5.07359628361214,-2.1074479864414));
#1162=CARTESIAN_POINT('',(1.41056395177186,5.13936843581183,-2.08260382301458));
#1163=CARTESIAN_POINT('',(1.64476411412511,5.00000000000149,-1.89076979180761));
#1164=CARTESIAN_POINT('',(1.64931971997093,5.02367140815864,-1.88621418591197));
#1165=CARTESIAN_POINT('',(1.65387543552083,5.04734279440143,-1.88165847041189));
#1166=CARTESIAN_POINT('',(1.76776695296637,5.,-1.76776695296636));
#1167=CARTESIAN_POINT('',(1.76776695296637,5.,-1.76776695296636));
#1168=CARTESIAN_POINT('',(1.76776695296637,5.,-1.76776695296636));
#1169=CARTESIAN_POINT('',(1.0466566978736,5.2,-2.48887720805914));
#1170=CARTESIAN_POINT('',(3.18397651993818E-16,5.2,5.97395397039513E-15));
#1171=CARTESIAN_POINT('',(-1.0466566978736,5.2,-2.48887720805914));
#1172=CARTESIAN_POINT('',(-0.969126572105186,5.2,-2.30451593338809));
#1173=CARTESIAN_POINT('',(-0.969126572105186,5.,-2.30451593338809));
#1174=CARTESIAN_POINT('',(-1.0466566978736,5.,-2.48887720805914));
#1175=CARTESIAN_POINT('',(-1.12143951649245,5.19999987474742,-2.24046320997547));
#1176=CARTESIAN_POINT('',(-1.08058268373248,5.0539862974435,-2.2576449706421));
#1177=CARTESIAN_POINT('',(-1.16349415988981,5.,-2.37203974604292));
#1178=CARTESIAN_POINT('',(-1.41056395177212,5.13936843581069,-2.08260382301434));
#1179=CARTESIAN_POINT('',(-1.37779191020889,5.07359628361173,-2.10744798644113));
#1180=CARTESIAN_POINT('',(-1.40486542179337,4.99999999999925,-2.13066848413937));
#1181=CARTESIAN_POINT('',(-1.65387543552038,5.04734279440371,-1.88165847041234));
#1182=CARTESIAN_POINT('',(-1.64931971997074,5.02367140815964,-1.88621418591259));
#1183=CARTESIAN_POINT('',(-1.64476411412482,5.00000000000149,-1.8907697918079));
#1184=CARTESIAN_POINT('',(-1.76776695296637,5.,-1.76776695296636));
#1185=CARTESIAN_POINT('',(-1.76776695296637,5.,-1.76776695296636));
#1186=CARTESIAN_POINT('',(-1.76776695296637,5.,-1.76776695296636));
#1187=CARTESIAN_POINT('',(-2.48887720805914,5.,-1.04665669787359));
#1188=CARTESIAN_POINT('',(-2.30451593338809,5.,-0.969126572105179));
#1189=CARTESIAN_POINT('',(-2.30451593338809,5.2,-0.969126572105179));
#1190=CARTESIAN_POINT('',(-2.37203974604297,5.,-1.16349415988976));
#1191=CARTESIAN_POINT('',(-2.25764497064226,5.05398629744382,-1.0805826837325));
#1192=CARTESIAN_POINT('',(-2.24046320997544,5.19999987474742,-1.12143951649254));
#1193=CARTESIAN_POINT('',(-2.13066848413964,4.99999999999926,-1.4048654217931));
#1194=CARTESIAN_POINT('',(-2.10744798644142,5.07359628361191,-1.3777919102086));
#1195=CARTESIAN_POINT('',(-2.08260382301471,5.13936843581132,-1.41056395177173));
#1196=CARTESIAN_POINT('',(-1.8907697918073,5.00000000000149,-1.64476411412542));
#1197=CARTESIAN_POINT('',(-1.88621418591186,5.02367140815903,-1.64931971997135));
#1198=CARTESIAN_POINT('',(-1.88165847041165,5.04734279440244,-1.65387543552108));
#1199=CARTESIAN_POINT('',(-1.76776695296637,5.,-1.76776695296636));
#1200=CARTESIAN_POINT('',(-1.76776695296637,5.,-1.76776695296636));
#1201=CARTESIAN_POINT('',(-1.76776695296637,5.,-1.76776695296636));
#1202=CARTESIAN_POINT('',(-2.48887720805914,5.2,-1.04665669787359));
#1203=CARTESIAN_POINT('',(3.18397651993818E-16,5.2,5.97395397039513E-15));
#1204=CARTESIAN_POINT('',(-2.48887720805915,5.2,1.0466566978736));
#1205=CARTESIAN_POINT('',(-2.3045159333881,5.2,0.969126572105182));
#1206=CARTESIAN_POINT('',(-2.3045159333881,5.,0.969126572105182));
#1207=CARTESIAN_POINT('',(-2.48887720805915,5.,1.04665669787359));
#1208=CARTESIAN_POINT('',(-2.24046320997556,5.19999987474742,1.12143951649227));
#1209=CARTESIAN_POINT('',(-2.25764497064214,5.05398629744366,1.08058268373229));
#1210=CARTESIAN_POINT('',(-2.37203974604278,5.,1.16349415988989));
#1211=CARTESIAN_POINT('',(-2.08260382301385,5.13936843581404,1.41056395177268));
#1212=CARTESIAN_POINT('',(-2.10744798644056,5.07359628361339,1.37779191020963));
#1213=CARTESIAN_POINT('',(-2.13066848413882,4.99999999999926,1.40486542179396));
#1214=CARTESIAN_POINT('',(-1.88165847041326,5.04734279439699,1.65387543551947));
#1215=CARTESIAN_POINT('',(-1.88621418591361,5.02367140815634,1.64931971996959));
#1216=CARTESIAN_POINT('',(-1.89076979180916,5.00000000000149,1.64476411412358));
#1217=CARTESIAN_POINT('',(-1.76776695296636,5.,1.76776695296637));
#1218=CARTESIAN_POINT('',(-1.76776695296636,5.,1.76776695296637));
#1219=CARTESIAN_POINT('',(-1.76776695296636,5.,1.76776695296637));
#1220=CARTESIAN_POINT('',(2.48887720805915,5.,1.0466566978736));
#1221=CARTESIAN_POINT('',(2.3045159333881,5.,0.969126572105182));
#1222=CARTESIAN_POINT('',(2.3045159333881,5.2,0.969126572105182));
#1223=CARTESIAN_POINT('',(2.37203974604278,5.,1.1634941598899));
#1224=CARTESIAN_POINT('',(2.25764497064193,5.05398629744376,1.0805826837327));
#1225=CARTESIAN_POINT('',(2.24046320997539,5.19999987474742,1.12143951649266));
#1226=CARTESIAN_POINT('',(2.1306684841392,4.99999999999926,1.40486542179358));
#1227=CARTESIAN_POINT('',(2.10744798644095,5.07359628361339,1.37779191020902));
#1228=CARTESIAN_POINT('',(2.08260382301422,5.13936843581421,1.4105639517722));
#1229=CARTESIAN_POINT('',(1.89076979180838,5.00000000000149,1.64476411412436));
#1230=CARTESIAN_POINT('',(1.88621418591305,5.02367140815624,1.64931971997042));
#1231=CARTESIAN_POINT('',(1.88165847041267,5.04734279439666,1.65387543552006));
#1232=CARTESIAN_POINT('',(1.76776695296636,5.,1.76776695296637));
#1233=CARTESIAN_POINT('',(1.76776695296636,5.,1.76776695296637));
#1234=CARTESIAN_POINT('',(1.76776695296636,5.,1.76776695296637));
#1235=CARTESIAN_POINT('',(2.48887720805915,5.2,1.0466566978736));
#1236=CARTESIAN_POINT('',(3.18397651993818E-16,5.2,5.97395397039513E-15));
#1237=CARTESIAN_POINT('',(2.48887720805914,5.2,-1.04665669787359));
#1238=CARTESIAN_POINT('',(2.3045159333881,5.2,-0.969126572105174));
#1239=CARTESIAN_POINT('',(2.3045159333881,5.,-0.969126572105174));
#1240=CARTESIAN_POINT('',(2.48887720805915,5.,-1.04665669787359));
#1241=CARTESIAN_POINT('',(2.24046320997537,5.19999987474742,-1.12143951649271));
#1242=CARTESIAN_POINT('',(2.25764497064213,5.05398629744388,-1.08058268373274));
#1243=CARTESIAN_POINT('',(2.37203974604297,5.,-1.16349415988978));
#1244=CARTESIAN_POINT('',(2.08260382301441,5.13936843581139,-1.41056395177197));
#1245=CARTESIAN_POINT('',(2.10744798644111,5.07359628361198,-1.37779191020884));
#1246=CARTESIAN_POINT('',(2.13066848413929,4.99999999999926,-1.40486542179343));
#1247=CARTESIAN_POINT('',(1.88165847041233,5.04734279440231,-1.65387543552039));
#1248=CARTESIAN_POINT('',(1.88621418591257,5.02367140815886,-1.64931971997067));
#1249=CARTESIAN_POINT('',(1.89076979180803,5.00000000000149,-1.6447641141247));
#1250=CARTESIAN_POINT('',(1.76776695296637,5.,-1.76776695296636));
#1251=CARTESIAN_POINT('',(1.76776695296637,5.,-1.76776695296636));
#1252=CARTESIAN_POINT('',(1.76776695296637,5.,-1.76776695296636));
#1253=CARTESIAN_POINT('',(-1.04665669787358,5.,2.48887720805915));
#1254=CARTESIAN_POINT('',(-0.96912657210517,5.,2.30451593338811));
#1255=CARTESIAN_POINT('',(-0.96912657210517,5.2,2.30451593338811));
#1256=CARTESIAN_POINT('',(-1.1634941598898,5.,2.37203974604294));
#1257=CARTESIAN_POINT('',(-1.08058268373263,5.05398629744365,2.25764497064199));
#1258=CARTESIAN_POINT('',(-1.12143951649259,5.19999987474742,2.24046320997542));
#1259=CARTESIAN_POINT('',(-1.40486542179368,4.99999999999926,2.13066848413906));
#1260=CARTESIAN_POINT('',(-1.3777919102091,5.07359628361391,2.10744798644095));
#1261=CARTESIAN_POINT('',(-1.4105639517723,5.13936843581479,2.08260382301413));
#1262=CARTESIAN_POINT('',(-1.64476411412421,5.00000000000149,1.89076979180852));
#1263=CARTESIAN_POINT('',(-1.6493197199702,5.02367140815534,1.88621418591308));
#1264=CARTESIAN_POINT('',(-1.65387543551988,5.04734279439548,1.88165847041286));
#1265=CARTESIAN_POINT('',(-1.76776695296636,5.,1.76776695296637));
#1266=CARTESIAN_POINT('',(-1.76776695296636,5.,1.76776695296637));
#1267=CARTESIAN_POINT('',(-1.76776695296636,5.,1.76776695296637));
#1268=CARTESIAN_POINT('',(-1.04665669787358,5.2,2.48887720805915));
#1269=CARTESIAN_POINT('',(3.18397651993818E-16,5.2,5.97395397039513E-15));
#1270=CARTESIAN_POINT('',(1.04665669787359,5.2,2.48887720805915));
#1271=CARTESIAN_POINT('',(0.969126572105172,5.2,2.30451593338811));
#1272=CARTESIAN_POINT('',(0.969126572105172,5.,2.30451593338811));
#1273=CARTESIAN_POINT('',(1.04665669787359,5.,2.48887720805915));
#1274=CARTESIAN_POINT('',(1.12143951649271,5.19999987474742,2.24046320997537));
#1275=CARTESIAN_POINT('',(1.08058268373267,5.05398629744367,2.25764497064182));
#1276=CARTESIAN_POINT('',(1.1634941598898,5.,2.3720397460429));
#1277=CARTESIAN_POINT('',(1.41056395177235,5.13936843581334,2.08260382301405));
#1278=CARTESIAN_POINT('',(1.3777919102093,5.07359628361287,2.10744798644088));
#1279=CARTESIAN_POINT('',(1.40486542179381,4.99999999999926,2.13066848413896));
#1280=CARTESIAN_POINT('',(1.65387543551965,5.0473427943984,1.88165847041308));
#1281=CARTESIAN_POINT('',(1.64931971996984,5.02367140815732,1.88621418591332));
#1282=CARTESIAN_POINT('',(1.64476411412394,5.00000000000149,1.89076979180879));
#1283=CARTESIAN_POINT('',(1.76776695296636,5.,1.76776695296637));
#1284=CARTESIAN_POINT('',(1.76776695296636,5.,1.76776695296637));
#1285=CARTESIAN_POINT('',(1.76776695296636,5.,1.76776695296637));
#1286=CARTESIAN_POINT('',(9.00085670059447E-16,14.7,1.3389896830196E-15));
#1287=CARTESIAN_POINT('',(0.,0.,0.));
#1288=CARTESIAN_POINT('',(2.99999999999999,0.316055728019214,0.535533905932751));
#1289=CARTESIAN_POINT('',(2.99999999999999,0.280180197301527,0.181939850134962));
#1290=CARTESIAN_POINT('',(2.99999999999999,0.280027601140849,-0.180435841852344));
#1291=CARTESIAN_POINT('',(2.99999999999999,0.316055728019183,-0.535533905932742));
#1292=CARTESIAN_POINT('',(0.,0.,0.));
#1293=CARTESIAN_POINT('',(0.,0.,0.));
#1294=CARTESIAN_POINT('',(-0.535533905932739,19.723082923316,-3.));
#1295=CARTESIAN_POINT('',(-3.,19.5374820136986,0.535533905932742));
#1296=CARTESIAN_POINT('',(-0.535533905932747,19.3501009524807,2.99999999999999));
#1297=CARTESIAN_POINT('',(2.99999999999999,19.1758494840672,0.535533905932751));
#1298=CARTESIAN_POINT('',(1.0286693372108E-15,16.8,3.14418630020795E-16));
#1299=MECHANICAL_DESIGN_GEOMETRIC_PRESENTATION_REPRESENTATION('',(#500,
#501,#502,#503,#504,#505,#506,#507,#508,#509,#510,#511,#512,#513,#514,#515,
#516,#517,#518,#519,#520,#521,#522,#523,#524,#525,#526,#527,#528,#529,#530,
#531,#532,#533,#534),#1300);
#1300=(
GEOMETRIC_REPRESENTATION_CONTEXT(3)
GLOBAL_UNCERTAINTY_ASSIGNED_CONTEXT((#1301))
GLOBAL_UNIT_ASSIGNED_CONTEXT((#1304,#1303,#1302))
REPRESENTATION_CONTEXT('\X2\65B95934957F570667F17AEF7D275B9A87BA9489\X0\ 
GBT85-1988','TOP_LEVEL_ASSEMBLY_PART')
);
#1301=UNCERTAINTY_MEASURE_WITH_UNIT(LENGTH_MEASURE(0.005),#1304,
'DISTANCE_ACCURACY_VALUE','Maximum Tolerance applied to model');
#1302=(
NAMED_UNIT(*)
SI_UNIT($,.STERADIAN.)
SOLID_ANGLE_UNIT()
);
#1303=(
NAMED_UNIT(*)
PLANE_ANGLE_UNIT()
SI_UNIT($,.RADIAN.)
);
#1304=(
LENGTH_UNIT()
NAMED_UNIT(*)
SI_UNIT(.MILLI.,.METRE.)
);
#1305=PRODUCT_DEFINITION_SHAPE('','',#1306);
#1306=PRODUCT_DEFINITION('','',#1308,#1307);
#1307=PRODUCT_DEFINITION_CONTEXT('',#1314,'design');
#1308=PRODUCT_DEFINITION_FORMATION_WITH_SPECIFIED_SOURCE('','',#1310,
 .NOT_KNOWN.);
#1309=PRODUCT_RELATED_PRODUCT_CATEGORY('','',(#1310));
#1310=PRODUCT('\X2\65B95934957F570667F17AEF7D275B9A87BA9489\X0\ GBT85-
1988','\X2\65B95934957F570667F17AEF7D275B9A87BA9489\X0\ GBT85-1988',
'\X2\65B95934957F570667F17AEF7D275B9A87BA9489\X0\ GBT85-1988',(#1312));
#1311=PRODUCT_CATEGORY('','');
#1312=PRODUCT_CONTEXT('',#1314,'mechanical');
#1313=APPLICATION_PROTOCOL_DEFINITION('international standard',
'automotive_design',2010,#1314);
#1314=APPLICATION_CONTEXT(
'core data for automotive mechanical design processes');
ENDSEC;
END-ISO-10303-21;
