ISO-10303-21;
HEADER;
/* Generated by software containing HOOPS Exchange Step
 * from HOOPS Exchange, Inc. (www.tiangong.cloud) 
 */

FILE_DESCRIPTION(
/* description */ ('Unknown'),
/* implementation_level */ '2;1');

FILE_NAME(
/* name */ '\X2\53415B5769FD57065934672887BA9489\X0\',
/* time_stamp */ '2025-03-28T00:11:08+08:00',
/* author */ ('Unknown'),
/* organization */ ('Unknown'),
/* preprocessor_version */ 'ST-DEVELOPER v19.4',
/* originating_system */ 'TianGong',
/* authorisation */ 'Unknown');

FILE_SCHEMA (('AUTOMOTIVE_DESIGN {1 0 10303 214 3 1 1}'));
ENDSEC;

DATA;
#10=PROPERTY_DEFINITION_REPRESENTATION(#14,#12);
#11=PROPERTY_DEFINITION_REPRESENTATION(#15,#13);
#12=REPRESENTATION('',(#16),#899);
#13=REPRESENTATION('',(#17),#899);
#14=PROPERTY_DEFINITION('pmi validation property','',#904);
#15=PROPERTY_DEFINITION('pmi validation property','',#904);
#16=VALUE_REPRESENTATION_ITEM('number of annotations',COUNT_MEASURE(0.));
#17=VALUE_REPRESENTATION_ITEM('number of views',COUNT_MEASURE(0.));
#18=SHAPE_REPRESENTATION_RELATIONSHIP('','',#578,#19);
#19=ADVANCED_BREP_SHAPE_REPRESENTATION('',(#576),#899);
#20=ELLIPSE('',#606,1.86767904094895,0.625);
#21=ELLIPSE('',#607,1.86767904094895,0.625);
#22=ELLIPSE('',#611,1.86767904094896,0.625);
#23=ELLIPSE('',#612,1.86767904094896,0.625);
#24=ELLIPSE('',#616,1.86767904094895,0.625);
#25=ELLIPSE('',#617,1.86767904094895,0.625);
#26=ELLIPSE('',#621,1.86767904094895,0.625);
#27=ELLIPSE('',#622,1.86767904094895,0.625);
#28=LINE('',#834,#48);
#29=LINE('',#838,#49);
#30=LINE('',#842,#50);
#31=LINE('',#844,#51);
#32=LINE('',#846,#52);
#33=LINE('',#848,#53);
#34=LINE('',#850,#54);
#35=LINE('',#854,#55);
#36=LINE('',#858,#56);
#37=LINE('',#860,#57);
#38=LINE('',#862,#58);
#39=LINE('',#864,#59);
#40=LINE('',#868,#60);
#41=LINE('',#872,#61);
#42=LINE('',#874,#62);
#43=LINE('',#876,#63);
#44=LINE('',#878,#64);
#45=LINE('',#882,#65);
#46=LINE('',#886,#66);
#47=LINE('',#888,#67);
#48=VECTOR('',#688,1000.);
#49=VECTOR('',#691,1000.);
#50=VECTOR('',#694,1000.);
#51=VECTOR('',#697,1000.);
#52=VECTOR('',#700,1000.);
#53=VECTOR('',#701,1000.);
#54=VECTOR('',#704,1000.);
#55=VECTOR('',#707,1000.);
#56=VECTOR('',#712,1000.);
#57=VECTOR('',#715,1000.);
#58=VECTOR('',#716,1000.);
#59=VECTOR('',#719,1000.);
#60=VECTOR('',#722,1000.);
#61=VECTOR('',#727,1000.);
#62=VECTOR('',#730,1000.);
#63=VECTOR('',#731,1000.);
#64=VECTOR('',#734,1000.);
#65=VECTOR('',#737,1000.);
#66=VECTOR('',#742,1000.);
#67=VECTOR('',#745,1000.);
#68=TOROIDAL_SURFACE('',#604,1.2,0.2);
#69=PLANE('',#602);
#70=PLANE('',#605);
#71=PLANE('',#608);
#72=PLANE('',#609);
#73=PLANE('',#610);
#74=PLANE('',#613);
#75=PLANE('',#614);
#76=PLANE('',#615);
#77=PLANE('',#618);
#78=PLANE('',#619);
#79=PLANE('',#620);
#80=PLANE('',#623);
#81=PLANE('',#624);
#82=PLANE('',#625);
#83=DEGENERATE_TOROIDAL_SURFACE('',#600,0.55,1.4,.T.);
#84=B_SPLINE_CURVE_WITH_KNOTS('',3,(#779,#780,#781,#782,#783),
 .UNSPECIFIED.,.F.,.F.,(4,1,4),(0.,0.000505205540679342,0.00101041108135868),
 .UNSPECIFIED.);
#85=B_SPLINE_CURVE_WITH_KNOTS('',3,(#791,#792,#793,#794,#795),
 .UNSPECIFIED.,.F.,.F.,(4,1,4),(0.,0.000505205540679342,0.00101041108135868),
 .UNSPECIFIED.);
#86=B_SPLINE_CURVE_WITH_KNOTS('',3,(#803,#804,#805,#806,#807),
 .UNSPECIFIED.,.F.,.F.,(4,1,4),(0.,0.00050520554067934,0.00101041108135868),
 .UNSPECIFIED.);
#87=B_SPLINE_CURVE_WITH_KNOTS('',3,(#815,#816,#817,#818,#819),
 .UNSPECIFIED.,.F.,.F.,(4,1,4),(0.,0.00050520554067934,0.00101041108135868),
 .UNSPECIFIED.);
#88=SPHERICAL_SURFACE('',#586,2.3);
#89=VERTEX_LOOP('',#256);
#90=CONICAL_SURFACE('',#585,1.,0.785398163397448);
#91=ORIENTED_EDGE('',*,*,#199,.T.);
#92=ORIENTED_EDGE('',*,*,#200,.T.);
#93=ORIENTED_EDGE('',*,*,#201,.T.);
#94=ORIENTED_EDGE('',*,*,#200,.F.);
#95=ORIENTED_EDGE('',*,*,#199,.F.);
#96=ORIENTED_EDGE('',*,*,#202,.F.);
#97=ORIENTED_EDGE('',*,*,#203,.T.);
#98=ORIENTED_EDGE('',*,*,#204,.F.);
#99=ORIENTED_EDGE('',*,*,#205,.F.);
#100=ORIENTED_EDGE('',*,*,#206,.F.);
#101=ORIENTED_EDGE('',*,*,#207,.T.);
#102=ORIENTED_EDGE('',*,*,#208,.F.);
#103=ORIENTED_EDGE('',*,*,#209,.F.);
#104=ORIENTED_EDGE('',*,*,#210,.F.);
#105=ORIENTED_EDGE('',*,*,#211,.T.);
#106=ORIENTED_EDGE('',*,*,#212,.F.);
#107=ORIENTED_EDGE('',*,*,#213,.F.);
#108=ORIENTED_EDGE('',*,*,#214,.F.);
#109=ORIENTED_EDGE('',*,*,#215,.T.);
#110=ORIENTED_EDGE('',*,*,#216,.F.);
#111=ORIENTED_EDGE('',*,*,#217,.F.);
#112=ORIENTED_EDGE('',*,*,#218,.T.);
#113=ORIENTED_EDGE('',*,*,#219,.T.);
#114=ORIENTED_EDGE('',*,*,#218,.F.);
#115=ORIENTED_EDGE('',*,*,#220,.T.);
#116=ORIENTED_EDGE('',*,*,#219,.F.);
#117=ORIENTED_EDGE('',*,*,#201,.F.);
#118=ORIENTED_EDGE('',*,*,#220,.F.);
#119=ORIENTED_EDGE('',*,*,#217,.T.);
#120=ORIENTED_EDGE('',*,*,#221,.T.);
#121=ORIENTED_EDGE('',*,*,#222,.T.);
#122=ORIENTED_EDGE('',*,*,#223,.T.);
#123=ORIENTED_EDGE('',*,*,#224,.T.);
#124=ORIENTED_EDGE('',*,*,#225,.F.);
#125=ORIENTED_EDGE('',*,*,#216,.T.);
#126=ORIENTED_EDGE('',*,*,#226,.T.);
#127=ORIENTED_EDGE('',*,*,#221,.F.);
#128=ORIENTED_EDGE('',*,*,#227,.T.);
#129=ORIENTED_EDGE('',*,*,#228,.T.);
#130=ORIENTED_EDGE('',*,*,#214,.T.);
#131=ORIENTED_EDGE('',*,*,#213,.T.);
#132=ORIENTED_EDGE('',*,*,#229,.T.);
#133=ORIENTED_EDGE('',*,*,#230,.T.);
#134=ORIENTED_EDGE('',*,*,#231,.T.);
#135=ORIENTED_EDGE('',*,*,#232,.T.);
#136=ORIENTED_EDGE('',*,*,#227,.F.);
#137=ORIENTED_EDGE('',*,*,#212,.T.);
#138=ORIENTED_EDGE('',*,*,#233,.T.);
#139=ORIENTED_EDGE('',*,*,#229,.F.);
#140=ORIENTED_EDGE('',*,*,#234,.T.);
#141=ORIENTED_EDGE('',*,*,#235,.T.);
#142=ORIENTED_EDGE('',*,*,#210,.T.);
#143=ORIENTED_EDGE('',*,*,#209,.T.);
#144=ORIENTED_EDGE('',*,*,#236,.T.);
#145=ORIENTED_EDGE('',*,*,#237,.T.);
#146=ORIENTED_EDGE('',*,*,#238,.T.);
#147=ORIENTED_EDGE('',*,*,#239,.T.);
#148=ORIENTED_EDGE('',*,*,#234,.F.);
#149=ORIENTED_EDGE('',*,*,#208,.T.);
#150=ORIENTED_EDGE('',*,*,#240,.T.);
#151=ORIENTED_EDGE('',*,*,#236,.F.);
#152=ORIENTED_EDGE('',*,*,#241,.T.);
#153=ORIENTED_EDGE('',*,*,#242,.T.);
#154=ORIENTED_EDGE('',*,*,#206,.T.);
#155=ORIENTED_EDGE('',*,*,#205,.T.);
#156=ORIENTED_EDGE('',*,*,#243,.T.);
#157=ORIENTED_EDGE('',*,*,#244,.T.);
#158=ORIENTED_EDGE('',*,*,#245,.T.);
#159=ORIENTED_EDGE('',*,*,#246,.T.);
#160=ORIENTED_EDGE('',*,*,#241,.F.);
#161=ORIENTED_EDGE('',*,*,#204,.T.);
#162=ORIENTED_EDGE('',*,*,#247,.T.);
#163=ORIENTED_EDGE('',*,*,#243,.F.);
#164=ORIENTED_EDGE('',*,*,#225,.T.);
#165=ORIENTED_EDGE('',*,*,#248,.T.);
#166=ORIENTED_EDGE('',*,*,#202,.T.);
#167=ORIENTED_EDGE('',*,*,#231,.F.);
#168=ORIENTED_EDGE('',*,*,#249,.T.);
#169=ORIENTED_EDGE('',*,*,#238,.F.);
#170=ORIENTED_EDGE('',*,*,#250,.T.);
#171=ORIENTED_EDGE('',*,*,#245,.F.);
#172=ORIENTED_EDGE('',*,*,#251,.T.);
#173=ORIENTED_EDGE('',*,*,#223,.F.);
#174=ORIENTED_EDGE('',*,*,#252,.T.);
#175=ORIENTED_EDGE('',*,*,#215,.F.);
#176=ORIENTED_EDGE('',*,*,#228,.F.);
#177=ORIENTED_EDGE('',*,*,#232,.F.);
#178=ORIENTED_EDGE('',*,*,#252,.F.);
#179=ORIENTED_EDGE('',*,*,#222,.F.);
#180=ORIENTED_EDGE('',*,*,#226,.F.);
#181=ORIENTED_EDGE('',*,*,#211,.F.);
#182=ORIENTED_EDGE('',*,*,#235,.F.);
#183=ORIENTED_EDGE('',*,*,#239,.F.);
#184=ORIENTED_EDGE('',*,*,#249,.F.);
#185=ORIENTED_EDGE('',*,*,#230,.F.);
#186=ORIENTED_EDGE('',*,*,#233,.F.);
#187=ORIENTED_EDGE('',*,*,#207,.F.);
#188=ORIENTED_EDGE('',*,*,#242,.F.);
#189=ORIENTED_EDGE('',*,*,#246,.F.);
#190=ORIENTED_EDGE('',*,*,#250,.F.);
#191=ORIENTED_EDGE('',*,*,#237,.F.);
#192=ORIENTED_EDGE('',*,*,#240,.F.);
#193=ORIENTED_EDGE('',*,*,#203,.F.);
#194=ORIENTED_EDGE('',*,*,#248,.F.);
#195=ORIENTED_EDGE('',*,*,#224,.F.);
#196=ORIENTED_EDGE('',*,*,#251,.F.);
#197=ORIENTED_EDGE('',*,*,#244,.F.);
#198=ORIENTED_EDGE('',*,*,#247,.F.);
#199=EDGE_CURVE('',#253,#253,#292,.T.);
#200=EDGE_CURVE('',#254,#254,#293,.T.);
#201=EDGE_CURVE('',#255,#255,#294,.T.);
#202=EDGE_CURVE('',#257,#258,#295,.F.);
#203=EDGE_CURVE('',#257,#259,#84,.T.);
#204=EDGE_CURVE('',#260,#259,#296,.F.);
#205=EDGE_CURVE('',#261,#260,#297,.F.);
#206=EDGE_CURVE('',#262,#261,#298,.F.);
#207=EDGE_CURVE('',#262,#263,#85,.T.);
#208=EDGE_CURVE('',#264,#263,#299,.F.);
#209=EDGE_CURVE('',#265,#264,#300,.F.);
#210=EDGE_CURVE('',#266,#265,#301,.F.);
#211=EDGE_CURVE('',#266,#267,#86,.T.);
#212=EDGE_CURVE('',#268,#267,#302,.F.);
#213=EDGE_CURVE('',#269,#268,#303,.F.);
#214=EDGE_CURVE('',#270,#269,#304,.F.);
#215=EDGE_CURVE('',#270,#271,#87,.T.);
#216=EDGE_CURVE('',#272,#271,#305,.F.);
#217=EDGE_CURVE('',#258,#272,#306,.F.);
#218=EDGE_CURVE('',#273,#273,#307,.T.);
#219=EDGE_CURVE('',#274,#274,#308,.T.);
#220=EDGE_CURVE('',#275,#275,#309,.F.);
#221=EDGE_CURVE('',#272,#276,#28,.T.);
#222=EDGE_CURVE('',#276,#277,#20,.T.);
#223=EDGE_CURVE('',#277,#278,#29,.F.);
#224=EDGE_CURVE('',#278,#279,#21,.T.);
#225=EDGE_CURVE('',#258,#279,#30,.T.);
#226=EDGE_CURVE('',#271,#276,#31,.T.);
#227=EDGE_CURVE('',#269,#280,#32,.T.);
#228=EDGE_CURVE('',#280,#270,#33,.F.);
#229=EDGE_CURVE('',#268,#281,#34,.T.);
#230=EDGE_CURVE('',#281,#282,#22,.T.);
#231=EDGE_CURVE('',#282,#283,#35,.F.);
#232=EDGE_CURVE('',#283,#280,#23,.T.);
#233=EDGE_CURVE('',#267,#281,#36,.T.);
#234=EDGE_CURVE('',#265,#284,#37,.T.);
#235=EDGE_CURVE('',#284,#266,#38,.F.);
#236=EDGE_CURVE('',#264,#285,#39,.T.);
#237=EDGE_CURVE('',#285,#286,#24,.T.);
#238=EDGE_CURVE('',#286,#287,#40,.F.);
#239=EDGE_CURVE('',#287,#284,#25,.T.);
#240=EDGE_CURVE('',#263,#285,#41,.T.);
#241=EDGE_CURVE('',#261,#288,#42,.T.);
#242=EDGE_CURVE('',#288,#262,#43,.F.);
#243=EDGE_CURVE('',#260,#289,#44,.T.);
#244=EDGE_CURVE('',#289,#290,#26,.T.);
#245=EDGE_CURVE('',#290,#291,#45,.F.);
#246=EDGE_CURVE('',#291,#288,#27,.T.);
#247=EDGE_CURVE('',#259,#289,#46,.T.);
#248=EDGE_CURVE('',#279,#257,#47,.F.);
#249=EDGE_CURVE('',#282,#287,#310,.F.);
#250=EDGE_CURVE('',#286,#291,#311,.F.);
#251=EDGE_CURVE('',#290,#278,#312,.F.);
#252=EDGE_CURVE('',#277,#283,#313,.F.);
#253=VERTEX_POINT('',#767);
#254=VERTEX_POINT('',#769);
#255=VERTEX_POINT('',#772);
#256=VERTEX_POINT('',#774);
#257=VERTEX_POINT('',#777);
#258=VERTEX_POINT('',#778);
#259=VERTEX_POINT('',#784);
#260=VERTEX_POINT('',#786);
#261=VERTEX_POINT('',#788);
#262=VERTEX_POINT('',#790);
#263=VERTEX_POINT('',#796);
#264=VERTEX_POINT('',#798);
#265=VERTEX_POINT('',#800);
#266=VERTEX_POINT('',#802);
#267=VERTEX_POINT('',#808);
#268=VERTEX_POINT('',#810);
#269=VERTEX_POINT('',#812);
#270=VERTEX_POINT('',#814);
#271=VERTEX_POINT('',#820);
#272=VERTEX_POINT('',#822);
#273=VERTEX_POINT('',#825);
#274=VERTEX_POINT('',#828);
#275=VERTEX_POINT('',#831);
#276=VERTEX_POINT('',#835);
#277=VERTEX_POINT('',#837);
#278=VERTEX_POINT('',#839);
#279=VERTEX_POINT('',#841);
#280=VERTEX_POINT('',#847);
#281=VERTEX_POINT('',#851);
#282=VERTEX_POINT('',#853);
#283=VERTEX_POINT('',#855);
#284=VERTEX_POINT('',#861);
#285=VERTEX_POINT('',#865);
#286=VERTEX_POINT('',#867);
#287=VERTEX_POINT('',#869);
#288=VERTEX_POINT('',#875);
#289=VERTEX_POINT('',#879);
#290=VERTEX_POINT('',#881);
#291=VERTEX_POINT('',#883);
#292=CIRCLE('',#581,1.);
#293=CIRCLE('',#582,1.);
#294=CIRCLE('',#584,1.);
#295=CIRCLE('',#587,2.27867148795082);
#296=CIRCLE('',#588,2.27867148795082);
#297=CIRCLE('',#589,2.26347590668145);
#298=CIRCLE('',#590,2.27867148795082);
#299=CIRCLE('',#591,2.27867148795082);
#300=CIRCLE('',#592,2.26347590668145);
#301=CIRCLE('',#593,2.27867148795082);
#302=CIRCLE('',#594,2.27867148795082);
#303=CIRCLE('',#595,2.26347590668145);
#304=CIRCLE('',#596,2.27867148795082);
#305=CIRCLE('',#597,2.27867148795082);
#306=CIRCLE('',#598,2.26347590668145);
#307=CIRCLE('',#599,1.40555555555555);
#308=CIRCLE('',#601,1.94994517014569);
#309=CIRCLE('',#603,1.2);
#310=CIRCLE('',#626,0.625);
#311=CIRCLE('',#627,0.625);
#312=CIRCLE('',#628,0.625);
#313=CIRCLE('',#629,0.625);
#314=EDGE_LOOP('',(#91));
#315=EDGE_LOOP('',(#92));
#316=EDGE_LOOP('',(#93));
#317=EDGE_LOOP('',(#94));
#318=EDGE_LOOP('',(#95));
#319=EDGE_LOOP('',(#96,#97,#98,#99,#100,#101,#102,#103,#104,#105,#106,#107,
#108,#109,#110,#111));
#320=EDGE_LOOP('',(#112));
#321=EDGE_LOOP('',(#113));
#322=EDGE_LOOP('',(#114));
#323=EDGE_LOOP('',(#115));
#324=EDGE_LOOP('',(#116));
#325=EDGE_LOOP('',(#117));
#326=EDGE_LOOP('',(#118));
#327=EDGE_LOOP('',(#119,#120,#121,#122,#123,#124));
#328=EDGE_LOOP('',(#125,#126,#127));
#329=EDGE_LOOP('',(#128,#129,#130));
#330=EDGE_LOOP('',(#131,#132,#133,#134,#135,#136));
#331=EDGE_LOOP('',(#137,#138,#139));
#332=EDGE_LOOP('',(#140,#141,#142));
#333=EDGE_LOOP('',(#143,#144,#145,#146,#147,#148));
#334=EDGE_LOOP('',(#149,#150,#151));
#335=EDGE_LOOP('',(#152,#153,#154));
#336=EDGE_LOOP('',(#155,#156,#157,#158,#159,#160));
#337=EDGE_LOOP('',(#161,#162,#163));
#338=EDGE_LOOP('',(#164,#165,#166));
#339=EDGE_LOOP('',(#167,#168,#169,#170,#171,#172,#173,#174));
#340=EDGE_LOOP('',(#175,#176,#177,#178,#179,#180));
#341=EDGE_LOOP('',(#181,#182,#183,#184,#185,#186));
#342=EDGE_LOOP('',(#187,#188,#189,#190,#191,#192));
#343=EDGE_LOOP('',(#193,#194,#195,#196,#197,#198));
#344=FACE_BOUND('',#314,.T.);
#345=FACE_BOUND('',#315,.T.);
#346=FACE_BOUND('',#316,.T.);
#347=FACE_BOUND('',#317,.T.);
#348=FACE_BOUND('',#89,.T.);
#349=FACE_BOUND('',#318,.T.);
#350=FACE_BOUND('',#319,.T.);
#351=FACE_BOUND('',#320,.T.);
#352=FACE_BOUND('',#321,.T.);
#353=FACE_BOUND('',#322,.T.);
#354=FACE_BOUND('',#323,.T.);
#355=FACE_BOUND('',#324,.T.);
#356=FACE_BOUND('',#325,.T.);
#357=FACE_BOUND('',#326,.T.);
#358=FACE_BOUND('',#327,.T.);
#359=FACE_BOUND('',#328,.T.);
#360=FACE_BOUND('',#329,.T.);
#361=FACE_BOUND('',#330,.T.);
#362=FACE_BOUND('',#331,.T.);
#363=FACE_BOUND('',#332,.T.);
#364=FACE_BOUND('',#333,.T.);
#365=FACE_BOUND('',#334,.T.);
#366=FACE_BOUND('',#335,.T.);
#367=FACE_BOUND('',#336,.T.);
#368=FACE_BOUND('',#337,.T.);
#369=FACE_BOUND('',#338,.T.);
#370=FACE_BOUND('',#339,.T.);
#371=FACE_BOUND('',#340,.T.);
#372=FACE_BOUND('',#341,.T.);
#373=FACE_BOUND('',#342,.T.);
#374=FACE_BOUND('',#343,.T.);
#375=CYLINDRICAL_SURFACE('',#580,1.);
#376=CYLINDRICAL_SURFACE('',#583,1.);
#377=CYLINDRICAL_SURFACE('',#630,0.625);
#378=CYLINDRICAL_SURFACE('',#631,0.625);
#379=CYLINDRICAL_SURFACE('',#632,0.625);
#380=CYLINDRICAL_SURFACE('',#633,0.625);
#381=STYLED_ITEM('',(#405),#551);
#382=STYLED_ITEM('',(#406),#552);
#383=STYLED_ITEM('',(#407),#553);
#384=STYLED_ITEM('',(#408),#554);
#385=STYLED_ITEM('',(#409),#555);
#386=STYLED_ITEM('',(#410),#556);
#387=STYLED_ITEM('',(#411),#557);
#388=STYLED_ITEM('',(#412),#558);
#389=STYLED_ITEM('',(#413),#559);
#390=STYLED_ITEM('',(#414),#560);
#391=STYLED_ITEM('',(#415),#561);
#392=STYLED_ITEM('',(#416),#562);
#393=STYLED_ITEM('',(#417),#563);
#394=STYLED_ITEM('',(#418),#564);
#395=STYLED_ITEM('',(#419),#565);
#396=STYLED_ITEM('',(#420),#566);
#397=STYLED_ITEM('',(#421),#567);
#398=STYLED_ITEM('',(#422),#568);
#399=STYLED_ITEM('',(#423),#569);
#400=STYLED_ITEM('',(#424),#570);
#401=STYLED_ITEM('',(#425),#571);
#402=STYLED_ITEM('',(#426),#572);
#403=STYLED_ITEM('',(#427),#573);
#404=STYLED_ITEM('',(#428),#574);
#405=PRESENTATION_STYLE_ASSIGNMENT((#429));
#406=PRESENTATION_STYLE_ASSIGNMENT((#430));
#407=PRESENTATION_STYLE_ASSIGNMENT((#431));
#408=PRESENTATION_STYLE_ASSIGNMENT((#432));
#409=PRESENTATION_STYLE_ASSIGNMENT((#433));
#410=PRESENTATION_STYLE_ASSIGNMENT((#434));
#411=PRESENTATION_STYLE_ASSIGNMENT((#435));
#412=PRESENTATION_STYLE_ASSIGNMENT((#436));
#413=PRESENTATION_STYLE_ASSIGNMENT((#437));
#414=PRESENTATION_STYLE_ASSIGNMENT((#438));
#415=PRESENTATION_STYLE_ASSIGNMENT((#439));
#416=PRESENTATION_STYLE_ASSIGNMENT((#440));
#417=PRESENTATION_STYLE_ASSIGNMENT((#441));
#418=PRESENTATION_STYLE_ASSIGNMENT((#442));
#419=PRESENTATION_STYLE_ASSIGNMENT((#443));
#420=PRESENTATION_STYLE_ASSIGNMENT((#444));
#421=PRESENTATION_STYLE_ASSIGNMENT((#445));
#422=PRESENTATION_STYLE_ASSIGNMENT((#446));
#423=PRESENTATION_STYLE_ASSIGNMENT((#447));
#424=PRESENTATION_STYLE_ASSIGNMENT((#448));
#425=PRESENTATION_STYLE_ASSIGNMENT((#449));
#426=PRESENTATION_STYLE_ASSIGNMENT((#450));
#427=PRESENTATION_STYLE_ASSIGNMENT((#451));
#428=PRESENTATION_STYLE_ASSIGNMENT((#452));
#429=SURFACE_STYLE_USAGE(.BOTH.,#453);
#430=SURFACE_STYLE_USAGE(.BOTH.,#454);
#431=SURFACE_STYLE_USAGE(.BOTH.,#455);
#432=SURFACE_STYLE_USAGE(.BOTH.,#456);
#433=SURFACE_STYLE_USAGE(.BOTH.,#457);
#434=SURFACE_STYLE_USAGE(.BOTH.,#458);
#435=SURFACE_STYLE_USAGE(.BOTH.,#459);
#436=SURFACE_STYLE_USAGE(.BOTH.,#460);
#437=SURFACE_STYLE_USAGE(.BOTH.,#461);
#438=SURFACE_STYLE_USAGE(.BOTH.,#462);
#439=SURFACE_STYLE_USAGE(.BOTH.,#463);
#440=SURFACE_STYLE_USAGE(.BOTH.,#464);
#441=SURFACE_STYLE_USAGE(.BOTH.,#465);
#442=SURFACE_STYLE_USAGE(.BOTH.,#466);
#443=SURFACE_STYLE_USAGE(.BOTH.,#467);
#444=SURFACE_STYLE_USAGE(.BOTH.,#468);
#445=SURFACE_STYLE_USAGE(.BOTH.,#469);
#446=SURFACE_STYLE_USAGE(.BOTH.,#470);
#447=SURFACE_STYLE_USAGE(.BOTH.,#471);
#448=SURFACE_STYLE_USAGE(.BOTH.,#472);
#449=SURFACE_STYLE_USAGE(.BOTH.,#473);
#450=SURFACE_STYLE_USAGE(.BOTH.,#474);
#451=SURFACE_STYLE_USAGE(.BOTH.,#475);
#452=SURFACE_STYLE_USAGE(.BOTH.,#476);
#453=SURFACE_SIDE_STYLE('',(#477));
#454=SURFACE_SIDE_STYLE('',(#478));
#455=SURFACE_SIDE_STYLE('',(#479));
#456=SURFACE_SIDE_STYLE('',(#480));
#457=SURFACE_SIDE_STYLE('',(#481));
#458=SURFACE_SIDE_STYLE('',(#482));
#459=SURFACE_SIDE_STYLE('',(#483));
#460=SURFACE_SIDE_STYLE('',(#484));
#461=SURFACE_SIDE_STYLE('',(#485));
#462=SURFACE_SIDE_STYLE('',(#486));
#463=SURFACE_SIDE_STYLE('',(#487));
#464=SURFACE_SIDE_STYLE('',(#488));
#465=SURFACE_SIDE_STYLE('',(#489));
#466=SURFACE_SIDE_STYLE('',(#490));
#467=SURFACE_SIDE_STYLE('',(#491));
#468=SURFACE_SIDE_STYLE('',(#492));
#469=SURFACE_SIDE_STYLE('',(#493));
#470=SURFACE_SIDE_STYLE('',(#494));
#471=SURFACE_SIDE_STYLE('',(#495));
#472=SURFACE_SIDE_STYLE('',(#496));
#473=SURFACE_SIDE_STYLE('',(#497));
#474=SURFACE_SIDE_STYLE('',(#498));
#475=SURFACE_SIDE_STYLE('',(#499));
#476=SURFACE_SIDE_STYLE('',(#500));
#477=SURFACE_STYLE_FILL_AREA(#501);
#478=SURFACE_STYLE_FILL_AREA(#502);
#479=SURFACE_STYLE_FILL_AREA(#503);
#480=SURFACE_STYLE_FILL_AREA(#504);
#481=SURFACE_STYLE_FILL_AREA(#505);
#482=SURFACE_STYLE_FILL_AREA(#506);
#483=SURFACE_STYLE_FILL_AREA(#507);
#484=SURFACE_STYLE_FILL_AREA(#508);
#485=SURFACE_STYLE_FILL_AREA(#509);
#486=SURFACE_STYLE_FILL_AREA(#510);
#487=SURFACE_STYLE_FILL_AREA(#511);
#488=SURFACE_STYLE_FILL_AREA(#512);
#489=SURFACE_STYLE_FILL_AREA(#513);
#490=SURFACE_STYLE_FILL_AREA(#514);
#491=SURFACE_STYLE_FILL_AREA(#515);
#492=SURFACE_STYLE_FILL_AREA(#516);
#493=SURFACE_STYLE_FILL_AREA(#517);
#494=SURFACE_STYLE_FILL_AREA(#518);
#495=SURFACE_STYLE_FILL_AREA(#519);
#496=SURFACE_STYLE_FILL_AREA(#520);
#497=SURFACE_STYLE_FILL_AREA(#521);
#498=SURFACE_STYLE_FILL_AREA(#522);
#499=SURFACE_STYLE_FILL_AREA(#523);
#500=SURFACE_STYLE_FILL_AREA(#524);
#501=FILL_AREA_STYLE('',(#525));
#502=FILL_AREA_STYLE('',(#526));
#503=FILL_AREA_STYLE('',(#527));
#504=FILL_AREA_STYLE('',(#528));
#505=FILL_AREA_STYLE('',(#529));
#506=FILL_AREA_STYLE('',(#530));
#507=FILL_AREA_STYLE('',(#531));
#508=FILL_AREA_STYLE('',(#532));
#509=FILL_AREA_STYLE('',(#533));
#510=FILL_AREA_STYLE('',(#534));
#511=FILL_AREA_STYLE('',(#535));
#512=FILL_AREA_STYLE('',(#536));
#513=FILL_AREA_STYLE('',(#537));
#514=FILL_AREA_STYLE('',(#538));
#515=FILL_AREA_STYLE('',(#539));
#516=FILL_AREA_STYLE('',(#540));
#517=FILL_AREA_STYLE('',(#541));
#518=FILL_AREA_STYLE('',(#542));
#519=FILL_AREA_STYLE('',(#543));
#520=FILL_AREA_STYLE('',(#544));
#521=FILL_AREA_STYLE('',(#545));
#522=FILL_AREA_STYLE('',(#546));
#523=FILL_AREA_STYLE('',(#547));
#524=FILL_AREA_STYLE('',(#548));
#525=FILL_AREA_STYLE_COLOUR('',#549);
#526=FILL_AREA_STYLE_COLOUR('',#550);
#527=FILL_AREA_STYLE_COLOUR('',#550);
#528=FILL_AREA_STYLE_COLOUR('',#550);
#529=FILL_AREA_STYLE_COLOUR('',#550);
#530=FILL_AREA_STYLE_COLOUR('',#550);
#531=FILL_AREA_STYLE_COLOUR('',#550);
#532=FILL_AREA_STYLE_COLOUR('',#550);
#533=FILL_AREA_STYLE_COLOUR('',#550);
#534=FILL_AREA_STYLE_COLOUR('',#550);
#535=FILL_AREA_STYLE_COLOUR('',#550);
#536=FILL_AREA_STYLE_COLOUR('',#550);
#537=FILL_AREA_STYLE_COLOUR('',#550);
#538=FILL_AREA_STYLE_COLOUR('',#550);
#539=FILL_AREA_STYLE_COLOUR('',#550);
#540=FILL_AREA_STYLE_COLOUR('',#550);
#541=FILL_AREA_STYLE_COLOUR('',#550);
#542=FILL_AREA_STYLE_COLOUR('',#550);
#543=FILL_AREA_STYLE_COLOUR('',#550);
#544=FILL_AREA_STYLE_COLOUR('',#550);
#545=FILL_AREA_STYLE_COLOUR('',#550);
#546=FILL_AREA_STYLE_COLOUR('',#550);
#547=FILL_AREA_STYLE_COLOUR('',#550);
#548=FILL_AREA_STYLE_COLOUR('',#550);
#549=COLOUR_RGB('',0.1875,0.75,0.581249892711639);
#550=COLOUR_RGB('',0.506983280181885,0.531564235687256,0.550000011920929);
#551=ADVANCED_FACE('',(#344,#345),#375,.T.);
#552=ADVANCED_FACE('',(#346,#347),#376,.T.);
#553=ADVANCED_FACE('',(#348,#349),#90,.T.);
#554=ADVANCED_FACE('',(#350,#351),#88,.T.);
#555=ADVANCED_FACE('',(#352,#353),#83,.T.);
#556=ADVANCED_FACE('',(#354,#355),#69,.T.);
#557=ADVANCED_FACE('',(#356,#357),#68,.F.);
#558=ADVANCED_FACE('',(#358),#70,.F.);
#559=ADVANCED_FACE('',(#359),#71,.F.);
#560=ADVANCED_FACE('',(#360),#72,.F.);
#561=ADVANCED_FACE('',(#361),#73,.F.);
#562=ADVANCED_FACE('',(#362),#74,.F.);
#563=ADVANCED_FACE('',(#363),#75,.F.);
#564=ADVANCED_FACE('',(#364),#76,.F.);
#565=ADVANCED_FACE('',(#365),#77,.F.);
#566=ADVANCED_FACE('',(#366),#78,.F.);
#567=ADVANCED_FACE('',(#367),#79,.F.);
#568=ADVANCED_FACE('',(#368),#80,.F.);
#569=ADVANCED_FACE('',(#369),#81,.F.);
#570=ADVANCED_FACE('',(#370),#82,.T.);
#571=ADVANCED_FACE('',(#371),#377,.T.);
#572=ADVANCED_FACE('',(#372),#378,.T.);
#573=ADVANCED_FACE('',(#373),#379,.T.);
#574=ADVANCED_FACE('',(#374),#380,.T.);
#575=CLOSED_SHELL('',(#551,#552,#553,#554,#555,#556,#557,#558,#559,#560,
#561,#562,#563,#564,#565,#566,#567,#568,#569,#570,#571,#572,#573,#574));
#576=MANIFOLD_SOLID_BREP('',#575);
#577=SHAPE_DEFINITION_REPRESENTATION(#904,#578);
#578=SHAPE_REPRESENTATION('\X2\53415B5769FD57065934672887BA9489\X0\',(#579),
#899);
#579=AXIS2_PLACEMENT_3D('',#764,#634,#635);
#580=AXIS2_PLACEMENT_3D('',#765,#636,#637);
#581=AXIS2_PLACEMENT_3D('',#766,#638,#639);
#582=AXIS2_PLACEMENT_3D('',#768,#640,#641);
#583=AXIS2_PLACEMENT_3D('',#770,#642,#643);
#584=AXIS2_PLACEMENT_3D('',#771,#644,#645);
#585=AXIS2_PLACEMENT_3D('',#773,#646,#647);
#586=AXIS2_PLACEMENT_3D('',#775,#648,#649);
#587=AXIS2_PLACEMENT_3D('',#776,#650,#651);
#588=AXIS2_PLACEMENT_3D('',#785,#652,#653);
#589=AXIS2_PLACEMENT_3D('',#787,#654,#655);
#590=AXIS2_PLACEMENT_3D('',#789,#656,#657);
#591=AXIS2_PLACEMENT_3D('',#797,#658,#659);
#592=AXIS2_PLACEMENT_3D('',#799,#660,#661);
#593=AXIS2_PLACEMENT_3D('',#801,#662,#663);
#594=AXIS2_PLACEMENT_3D('',#809,#664,#665);
#595=AXIS2_PLACEMENT_3D('',#811,#666,#667);
#596=AXIS2_PLACEMENT_3D('',#813,#668,#669);
#597=AXIS2_PLACEMENT_3D('',#821,#670,#671);
#598=AXIS2_PLACEMENT_3D('',#823,#672,#673);
#599=AXIS2_PLACEMENT_3D('',#824,#674,#675);
#600=AXIS2_PLACEMENT_3D('',#826,#676,#677);
#601=AXIS2_PLACEMENT_3D('',#827,#678,#679);
#602=AXIS2_PLACEMENT_3D('',#829,#680,#681);
#603=AXIS2_PLACEMENT_3D('',#830,#682,#683);
#604=AXIS2_PLACEMENT_3D('',#832,#684,#685);
#605=AXIS2_PLACEMENT_3D('',#833,#686,#687);
#606=AXIS2_PLACEMENT_3D('',#836,#689,#690);
#607=AXIS2_PLACEMENT_3D('',#840,#692,#693);
#608=AXIS2_PLACEMENT_3D('',#843,#695,#696);
#609=AXIS2_PLACEMENT_3D('',#845,#698,#699);
#610=AXIS2_PLACEMENT_3D('',#849,#702,#703);
#611=AXIS2_PLACEMENT_3D('',#852,#705,#706);
#612=AXIS2_PLACEMENT_3D('',#856,#708,#709);
#613=AXIS2_PLACEMENT_3D('',#857,#710,#711);
#614=AXIS2_PLACEMENT_3D('',#859,#713,#714);
#615=AXIS2_PLACEMENT_3D('',#863,#717,#718);
#616=AXIS2_PLACEMENT_3D('',#866,#720,#721);
#617=AXIS2_PLACEMENT_3D('',#870,#723,#724);
#618=AXIS2_PLACEMENT_3D('',#871,#725,#726);
#619=AXIS2_PLACEMENT_3D('',#873,#728,#729);
#620=AXIS2_PLACEMENT_3D('',#877,#732,#733);
#621=AXIS2_PLACEMENT_3D('',#880,#735,#736);
#622=AXIS2_PLACEMENT_3D('',#884,#738,#739);
#623=AXIS2_PLACEMENT_3D('',#885,#740,#741);
#624=AXIS2_PLACEMENT_3D('',#887,#743,#744);
#625=AXIS2_PLACEMENT_3D('',#889,#746,#747);
#626=AXIS2_PLACEMENT_3D('',#890,#748,#749);
#627=AXIS2_PLACEMENT_3D('',#891,#750,#751);
#628=AXIS2_PLACEMENT_3D('',#892,#752,#753);
#629=AXIS2_PLACEMENT_3D('',#893,#754,#755);
#630=AXIS2_PLACEMENT_3D('',#894,#756,#757);
#631=AXIS2_PLACEMENT_3D('',#895,#758,#759);
#632=AXIS2_PLACEMENT_3D('',#896,#760,#761);
#633=AXIS2_PLACEMENT_3D('',#897,#762,#763);
#634=DIRECTION('',(0.,0.,1.));
#635=DIRECTION('',(1.,0.,0.));
#636=DIRECTION('',(-1.,0.,-3.23987661508958E-17));
#637=DIRECTION('',(-3.23987661508958E-17,0.,1.));
#638=DIRECTION('',(-1.,0.,-3.23987661508958E-17));
#639=DIRECTION('',(-3.23987661508958E-17,0.,1.));
#640=DIRECTION('',(1.,0.,3.23987661508958E-17));
#641=DIRECTION('',(-3.23987661508958E-17,0.,1.));
#642=DIRECTION('',(-1.,0.,-3.23987661508958E-17));
#643=DIRECTION('',(-3.23987661508958E-17,0.,1.));
#644=DIRECTION('',(1.,0.,3.23987661508958E-17));
#645=DIRECTION('',(3.23987661508958E-17,0.,-1.));
#646=DIRECTION('',(-1.,0.,-3.23987661508958E-17));
#647=DIRECTION('',(-3.23987661508958E-17,0.,1.));
#648=DIRECTION('',(-1.,0.,-3.23987661508958E-17));
#649=DIRECTION('',(-3.23987661508958E-17,0.,1.));
#650=DIRECTION('',(0.,-1.,-5.78241158658935E-17));
#651=DIRECTION('',(0.,5.78241158658935E-17,-1.));
#652=DIRECTION('',(0.,1.15648231731787E-16,1.));
#653=DIRECTION('',(0.,-1.,1.15648231731787E-16));
#654=DIRECTION('',(0.334639938820774,-0.942346067719301,0.));
#655=DIRECTION('',(0.942346067719301,0.334639938820774,0.));
#656=DIRECTION('',(0.,0.,-1.));
#657=DIRECTION('',(-1.,0.,0.));
#658=DIRECTION('',(0.,-1.,5.78241158658935E-17));
#659=DIRECTION('',(0.,-5.78241158658935E-17,-1.));
#660=DIRECTION('',(0.334639938820774,-2.04901097661326E-17,-0.942346067719301));
#661=DIRECTION('',(-0.942346067719301,0.,-0.334639938820774));
#662=DIRECTION('',(0.,1.,-6.18718039765061E-15));
#663=DIRECTION('',(0.,6.18718039765061E-15,1.));
#664=DIRECTION('',(0.,-5.78241158658939E-17,-1.));
#665=DIRECTION('',(0.,1.,-5.78241158658939E-17));
#666=DIRECTION('',(0.334639938820772,0.942346067719301,0.));
#667=DIRECTION('',(-0.942346067719301,0.334639938820772,0.));
#668=DIRECTION('',(0.,-5.78241158658939E-17,1.));
#669=DIRECTION('',(0.,-1.,-5.78241158658939E-17));
#670=DIRECTION('',(0.,1.,6.12935628178472E-15));
#671=DIRECTION('',(0.,-6.12935628178472E-15,1.));
#672=DIRECTION('',(0.334639938820774,-2.04901097661326E-17,0.942346067719301));
#673=DIRECTION('',(0.942346067719301,0.,-0.334639938820774));
#674=DIRECTION('',(-1.,0.,-3.23987661508958E-17));
#675=DIRECTION('',(-3.23987661508958E-17,0.,1.));
#676=DIRECTION('',(-1.,0.,-3.23987661508958E-17));
#677=DIRECTION('',(-3.23987661508958E-17,0.,1.));
#678=DIRECTION('',(-1.,0.,-3.23987661508958E-17));
#679=DIRECTION('',(-3.23987661508958E-17,0.,1.));
#680=DIRECTION('',(1.,0.,3.23987661508958E-17));
#681=DIRECTION('',(3.23987661508958E-17,0.,-1.));
#682=DIRECTION('',(1.,0.,3.23987661508958E-17));
#683=DIRECTION('',(3.23987661508958E-17,0.,-1.));
#684=DIRECTION('',(1.,0.,3.23987661508958E-17));
#685=DIRECTION('',(3.23987661508958E-17,0.,-1.));
#686=DIRECTION('',(0.334639938820774,-2.04901097661326E-17,0.942346067719301));
#687=DIRECTION('',(0.942346067719301,0.,-0.334639938820774));
#688=DIRECTION('',(0.942346067719301,2.08982792833862E-15,-0.334639938820774));
#689=DIRECTION('',(0.334639938820774,-2.04901097661326E-17,0.942346067719301));
#690=DIRECTION('',(0.942346067719301,7.2763173885414E-18,-0.334639938820774));
#691=DIRECTION('',(6.12303176911189E-17,1.,0.));
#692=DIRECTION('',(0.334639938820774,-2.04901097661326E-17,0.942346067719301));
#693=DIRECTION('',(0.942346067719301,7.2763173885414E-18,-0.334639938820774));
#694=DIRECTION('',(0.942346067719301,7.74010343829119E-17,-0.334639938820774));
#695=DIRECTION('',(0.,1.,6.12935628178472E-15));
#696=DIRECTION('',(0.,-6.12935628178472E-15,1.));
#697=DIRECTION('',(1.,0.,0.));
#698=DIRECTION('',(0.,-5.78241158658939E-17,1.));
#699=DIRECTION('',(0.,-1.,-5.78241158658939E-17));
#700=DIRECTION('',(0.942346067719301,-0.334639938820772,-3.8700517191456E-17));
#701=DIRECTION('',(1.,0.,0.));
#702=DIRECTION('',(0.334639938820772,0.942346067719301,0.));
#703=DIRECTION('',(-0.942346067719301,0.334639938820772,0.));
#704=DIRECTION('',(0.942346067719301,-0.334639938820772,3.8700517191456E-17));
#705=DIRECTION('',(0.334639938820772,0.942346067719301,0.));
#706=DIRECTION('',(0.942346067719301,-0.334639938820772,0.));
#707=DIRECTION('',(0.,0.,-1.));
#708=DIRECTION('',(0.334639938820772,0.942346067719301,0.));
#709=DIRECTION('',(0.942346067719301,-0.334639938820772,0.));
#710=DIRECTION('',(0.,-5.78241158658939E-17,-1.));
#711=DIRECTION('',(0.,1.,-5.78241158658939E-17));
#712=DIRECTION('',(1.,0.,0.));
#713=DIRECTION('',(0.,1.,-6.18718039765061E-15));
#714=DIRECTION('',(0.,6.18718039765061E-15,1.));
#715=DIRECTION('',(0.942346067719301,2.05112741114717E-15,0.334639938820774));
#716=DIRECTION('',(1.,0.,0.));
#717=DIRECTION('',(0.334639938820774,-2.04901097661326E-17,-0.942346067719301));
#718=DIRECTION('',(-0.942346067719301,0.,-0.334639938820774));
#719=DIRECTION('',(0.942346067719301,3.8700517191456E-17,0.334639938820774));
#720=DIRECTION('',(0.334639938820774,-2.04901097661326E-17,-0.942346067719301));
#721=DIRECTION('',(0.942346067719301,7.2763173885414E-18,0.334639938820774));
#722=DIRECTION('',(-6.12303176911189E-17,-1.,0.));
#723=DIRECTION('',(0.334639938820774,-2.04901097661326E-17,-0.942346067719301));
#724=DIRECTION('',(0.942346067719301,7.2763173885414E-18,0.334639938820774));
#725=DIRECTION('',(0.,-1.,5.78241158658935E-17));
#726=DIRECTION('',(0.,-5.78241158658935E-17,-1.));
#727=DIRECTION('',(1.,0.,0.));
#728=DIRECTION('',(0.,0.,-1.));
#729=DIRECTION('',(-1.,0.,0.));
#730=DIRECTION('',(0.942346067719301,0.334639938820774,0.));
#731=DIRECTION('',(1.,0.,0.));
#732=DIRECTION('',(0.334639938820774,-0.942346067719301,0.));
#733=DIRECTION('',(0.942346067719301,0.334639938820774,0.));
#734=DIRECTION('',(0.942346067719301,0.334639938820774,-7.74010343829119E-17));
#735=DIRECTION('',(0.334639938820774,-0.942346067719301,0.));
#736=DIRECTION('',(0.942346067719301,0.334639938820774,0.));
#737=DIRECTION('',(0.,0.,1.));
#738=DIRECTION('',(0.334639938820774,-0.942346067719301,0.));
#739=DIRECTION('',(0.942346067719301,0.334639938820774,0.));
#740=DIRECTION('',(0.,1.15648231731787E-16,1.));
#741=DIRECTION('',(0.,-1.,1.15648231731787E-16));
#742=DIRECTION('',(1.,0.,0.));
#743=DIRECTION('',(0.,-1.,-5.78241158658935E-17));
#744=DIRECTION('',(0.,5.78241158658935E-17,-1.));
#745=DIRECTION('',(1.,0.,0.));
#746=DIRECTION('',(-1.,1.15648231731788E-16,0.));
#747=DIRECTION('',(-1.15648231731788E-16,-1.,0.));
#748=DIRECTION('',(-1.,1.15648231731788E-16,0.));
#749=DIRECTION('',(-1.15648231731788E-16,-1.,0.));
#750=DIRECTION('',(-1.,1.15648231731788E-16,0.));
#751=DIRECTION('',(-1.15648231731788E-16,-1.,0.));
#752=DIRECTION('',(-1.,1.15648231731788E-16,0.));
#753=DIRECTION('',(-1.15648231731788E-16,-1.,0.));
#754=DIRECTION('',(-1.,1.15648231731788E-16,0.));
#755=DIRECTION('',(-1.15648231731788E-16,-1.,0.));
#756=DIRECTION('',(1.,0.,0.));
#757=DIRECTION('',(0.,0.,-1.));
#758=DIRECTION('',(1.,0.,0.));
#759=DIRECTION('',(0.,0.,-1.));
#760=DIRECTION('',(1.,0.,0.));
#761=DIRECTION('',(0.,0.,-1.));
#762=DIRECTION('',(1.,0.,0.));
#763=DIRECTION('',(0.,0.,-1.));
#764=CARTESIAN_POINT('',(0.,0.,0.));
#765=CARTESIAN_POINT('',(6.,0.,-3.5438141057083E-17));
#766=CARTESIAN_POINT('',(5.,0.,-6.78369072079789E-17));
#767=CARTESIAN_POINT('',(5.,0.,1.));
#768=CARTESIAN_POINT('',(2.,0.,-1.65033205660666E-16));
#769=CARTESIAN_POINT('',(2.,0.,1.));
#770=CARTESIAN_POINT('',(6.,0.,-3.5438141057083E-17));
#771=CARTESIAN_POINT('',(0.2,0.,-2.23350984732279E-16));
#772=CARTESIAN_POINT('',(0.2,0.,-1.));
#773=CARTESIAN_POINT('',(5.,0.,-6.78369072079789E-17));
#774=CARTESIAN_POINT('',(6.,0.,0.));
#775=CARTESIAN_POINT('',(0.699999999999999,0.,0.));
#776=CARTESIAN_POINT('',(0.699999999999999,-0.312500000000003,-1.80700362080919E-17));
#777=CARTESIAN_POINT('',(-1.37688167693781,-0.312500000000003,0.9375));
#778=CARTESIAN_POINT('',(-1.27593100532744,-0.312500000000003,1.13491868086912));
#779=CARTESIAN_POINT('',(-1.37688167693781,-0.312500000000003,0.9375));
#780=CARTESIAN_POINT('',(-1.44704557140595,-0.312500000000003,0.782063086076286));
#781=CARTESIAN_POINT('',(-1.53418381074595,-0.443024447601231,0.444697429476745));
#782=CARTESIAN_POINT('',(-1.44709168206683,-0.781960935263831,0.312499999999975));
#783=CARTESIAN_POINT('',(-1.37688167693781,-0.937500000000003,0.312499999999975));
#784=CARTESIAN_POINT('',(-1.37688167693781,-0.937500000000003,0.3125));
#785=CARTESIAN_POINT('',(0.699999999999999,3.61400724161835E-17,0.3125));
#786=CARTESIAN_POINT('',(-1.27593100532744,-1.13491868086912,0.3125));
#787=CARTESIAN_POINT('',(0.836620344157846,-0.384722889148496,0.));
#788=CARTESIAN_POINT('',(-1.27593100532744,-1.13491868086912,-0.3125));
#789=CARTESIAN_POINT('',(0.699999999999999,0.,-0.3125));
#790=CARTESIAN_POINT('',(-1.37688167693781,-0.937500000000003,-0.3125));
#791=CARTESIAN_POINT('',(-1.37688167693781,-0.937500000000003,-0.3125));
#792=CARTESIAN_POINT('',(-1.44704557140595,-0.782063086076289,-0.3125));
#793=CARTESIAN_POINT('',(-1.53418381074595,-0.444697429476748,-0.443024447601228));
#794=CARTESIAN_POINT('',(-1.44709168206683,-0.312499999999978,-0.781960935263827));
#795=CARTESIAN_POINT('',(-1.37688167693781,-0.312499999999978,-0.9375));
#796=CARTESIAN_POINT('',(-1.37688167693781,-0.312500000000003,-0.9375));
#797=CARTESIAN_POINT('',(0.699999999999999,-0.312500000000003,1.80700362080919E-17));
#798=CARTESIAN_POINT('',(-1.27593100532744,-0.312500000000003,-1.13491868086912));
#799=CARTESIAN_POINT('',(0.836620344157845,-8.36530707585488E-18,-0.384722889148493));
#800=CARTESIAN_POINT('',(-1.27593100532744,0.312499999999998,-1.13491868086912));
#801=CARTESIAN_POINT('',(0.699999999999999,0.312500000000005,-1.93349387426585E-15));
#802=CARTESIAN_POINT('',(-1.37688167693781,0.312499999999999,-0.937499999999996));
#803=CARTESIAN_POINT('',(-1.37688167693781,0.312499999999999,-0.937499999999996));
#804=CARTESIAN_POINT('',(-1.44704557140595,0.3125,-0.782063086076283));
#805=CARTESIAN_POINT('',(-1.53418381074595,0.443024447601229,-0.444697429476743));
#806=CARTESIAN_POINT('',(-1.44709168206683,0.781960935263828,-0.312499999999975));
#807=CARTESIAN_POINT('',(-1.37688167693781,0.9375,-0.312499999999975));
#808=CARTESIAN_POINT('',(-1.37688167693781,0.937499999999999,-0.3125));
#809=CARTESIAN_POINT('',(0.699999999999999,-1.80700362080918E-17,-0.3125));
#810=CARTESIAN_POINT('',(-1.27593100532744,1.13491868086912,-0.3125));
#811=CARTESIAN_POINT('',(0.836620344157845,0.384722889148496,0.));
#812=CARTESIAN_POINT('',(-1.27593100532744,1.13491868086912,0.3125));
#813=CARTESIAN_POINT('',(0.699999999999999,-1.80700362080918E-17,0.3125));
#814=CARTESIAN_POINT('',(-1.37688167693781,0.937499999999999,0.3125));
#815=CARTESIAN_POINT('',(-1.37688167693781,0.937499999999999,0.3125));
#816=CARTESIAN_POINT('',(-1.44704557140595,0.782063086076286,0.3125));
#817=CARTESIAN_POINT('',(-1.53418381074595,0.444697429476746,0.443024447601227));
#818=CARTESIAN_POINT('',(-1.44709168206683,0.312499999999975,0.781960935263824));
#819=CARTESIAN_POINT('',(-1.37688167693782,0.312499999999974,0.937499999999997));
#820=CARTESIAN_POINT('',(-1.37688167693781,0.312499999999999,0.937499999999996));
#821=CARTESIAN_POINT('',(0.699999999999999,0.312500000000005,1.91542383805775E-15));
#822=CARTESIAN_POINT('',(-1.27593100532744,0.312499999999998,1.13491868086912));
#823=CARTESIAN_POINT('',(0.836620344157845,-8.36530707585488E-18,0.384722889148493));
#824=CARTESIAN_POINT('',(-1.12055309734348,0.,-2.66135275722951E-16));
#825=CARTESIAN_POINT('',(-1.12055309734348,0.,1.40555555555555));
#826=CARTESIAN_POINT('',(-0.0123903424387507,0.,-2.16840434497101E-16));
#827=CARTESIAN_POINT('',(0.,0.,-2.29830737962458E-16));
#828=CARTESIAN_POINT('',(-6.3175817574619E-17,0.,1.94994517014569));
#829=CARTESIAN_POINT('',(-4.37709739755569E-18,0.,1.94994517014569));
#830=CARTESIAN_POINT('',(5.42101086242752E-17,0.,-2.29830737962458E-16));
#831=CARTESIAN_POINT('',(9.30886280053502E-17,0.,-1.2));
#832=CARTESIAN_POINT('',(0.2,0.,-2.23350984732279E-16));
#833=CARTESIAN_POINT('',(0.215009066215626,-1.31650734308536E-17,0.605465530463202));
#834=CARTESIAN_POINT('',(-1.6,0.312499999999997,1.25));
#835=CARTESIAN_POINT('',(-0.719999999999988,0.312499999999999,0.937499999999996));
#836=CARTESIAN_POINT('',(-0.719999999999999,0.937499999999999,0.9375));
#837=CARTESIAN_POINT('',(-0.279999999999999,0.33234635215509,0.78125));
#838=CARTESIAN_POINT('',(-0.279999999999999,-0.312500000000003,0.78125));
#839=CARTESIAN_POINT('',(-0.279999999999999,-0.332346352155094,0.78125));
#840=CARTESIAN_POINT('',(-0.719999999999999,-0.937500000000003,0.9375));
#841=CARTESIAN_POINT('',(-0.719999999999999,-0.312500000000003,0.9375));
#842=CARTESIAN_POINT('',(-1.6,-0.312500000000003,1.25));
#843=CARTESIAN_POINT('',(0.,0.312500000000005,1.91542383805775E-15));
#844=CARTESIAN_POINT('',(0.,0.312499999999999,0.937499999999996));
#845=CARTESIAN_POINT('',(0.,-1.80700362080918E-17,0.3125));
#846=CARTESIAN_POINT('',(-1.6,1.25,0.3125));
#847=CARTESIAN_POINT('',(-0.719999999999999,0.937499999999999,0.3125));
#848=CARTESIAN_POINT('',(0.,0.937499999999999,0.3125));
#849=CARTESIAN_POINT('',(0.215009066215625,0.605465530463203,0.));
#850=CARTESIAN_POINT('',(-1.6,1.25,-0.3125));
#851=CARTESIAN_POINT('',(-0.719999999999999,0.937499999999999,-0.3125));
#852=CARTESIAN_POINT('',(-0.719999999999999,0.937499999999999,-0.9375));
#853=CARTESIAN_POINT('',(-0.279999999999999,0.78125,-0.332346352155091));
#854=CARTESIAN_POINT('',(-0.279999999999999,0.78125,0.3125));
#855=CARTESIAN_POINT('',(-0.279999999999999,0.78125,0.332346352155091));
#856=CARTESIAN_POINT('',(-0.719999999999999,0.937499999999999,0.9375));
#857=CARTESIAN_POINT('',(0.,-1.80700362080918E-17,-0.3125));
#858=CARTESIAN_POINT('',(0.,0.937499999999999,-0.3125));
#859=CARTESIAN_POINT('',(0.,0.312500000000005,-1.93349387426585E-15));
#860=CARTESIAN_POINT('',(-1.6,0.312499999999997,-1.25));
#861=CARTESIAN_POINT('',(-0.719999999999988,0.312499999999999,-0.937499999999996));
#862=CARTESIAN_POINT('',(0.,0.312499999999999,-0.937499999999996));
#863=CARTESIAN_POINT('',(0.215009066215626,-1.31650734308536E-17,-0.605465530463202));
#864=CARTESIAN_POINT('',(-1.6,-0.312500000000003,-1.25));
#865=CARTESIAN_POINT('',(-0.719999999999999,-0.312500000000003,-0.9375));
#866=CARTESIAN_POINT('',(-0.719999999999998,-0.937500000000003,-0.9375));
#867=CARTESIAN_POINT('',(-0.279999999999999,-0.332346352155094,-0.78125));
#868=CARTESIAN_POINT('',(-0.279999999999999,0.3125,-0.78125));
#869=CARTESIAN_POINT('',(-0.279999999999999,0.33234635215509,-0.78125));
#870=CARTESIAN_POINT('',(-0.719999999999999,0.937499999999999,-0.9375));
#871=CARTESIAN_POINT('',(0.,-0.312500000000003,1.80700362080919E-17));
#872=CARTESIAN_POINT('',(0.,-0.312500000000003,-0.9375));
#873=CARTESIAN_POINT('',(0.,0.,-0.3125));
#874=CARTESIAN_POINT('',(-1.6,-1.25,-0.3125));
#875=CARTESIAN_POINT('',(-0.719999999999999,-0.937500000000003,-0.3125));
#876=CARTESIAN_POINT('',(0.,-0.937500000000003,-0.3125));
#877=CARTESIAN_POINT('',(0.215009066215626,-0.605465530463204,0.));
#878=CARTESIAN_POINT('',(-1.6,-1.25,0.3125));
#879=CARTESIAN_POINT('',(-0.719999999999999,-0.937500000000003,0.3125));
#880=CARTESIAN_POINT('',(-0.719999999999999,-0.937500000000003,0.9375));
#881=CARTESIAN_POINT('',(-0.279999999999999,-0.781250000000003,0.332346352155091));
#882=CARTESIAN_POINT('',(-0.279999999999999,-0.781250000000003,-0.3125));
#883=CARTESIAN_POINT('',(-0.279999999999999,-0.781250000000003,-0.332346352155091));
#884=CARTESIAN_POINT('',(-0.719999999999999,-0.937500000000003,-0.9375));
#885=CARTESIAN_POINT('',(0.,3.61400724161835E-17,0.3125));
#886=CARTESIAN_POINT('',(0.,-0.937500000000003,0.3125));
#887=CARTESIAN_POINT('',(0.,-0.312500000000003,-1.80700362080919E-17));
#888=CARTESIAN_POINT('',(0.,-0.312500000000003,0.9375));
#889=CARTESIAN_POINT('',(-0.279999999999999,0.664062500000001,-0.15625));
#890=CARTESIAN_POINT('',(-0.279999999999999,0.937499999999999,-0.9375));
#891=CARTESIAN_POINT('',(-0.279999999999999,-0.937500000000003,-0.9375));
#892=CARTESIAN_POINT('',(-0.279999999999999,-0.937500000000003,0.9375));
#893=CARTESIAN_POINT('',(-0.279999999999999,0.937499999999999,0.9375));
#894=CARTESIAN_POINT('',(0.,0.937499999999999,0.9375));
#895=CARTESIAN_POINT('',(0.,0.937499999999999,-0.9375));
#896=CARTESIAN_POINT('',(0.,-0.937500000000003,-0.9375));
#897=CARTESIAN_POINT('',(0.,-0.937500000000003,0.9375));
#898=MECHANICAL_DESIGN_GEOMETRIC_PRESENTATION_REPRESENTATION('',(#381,#382,
#383,#384,#385,#386,#387,#388,#389,#390,#391,#392,#393,#394,#395,#396,#397,
#398,#399,#400,#401,#402,#403,#404),#899);
#899=(
GEOMETRIC_REPRESENTATION_CONTEXT(3)
GLOBAL_UNCERTAINTY_ASSIGNED_CONTEXT((#900))
GLOBAL_UNIT_ASSIGNED_CONTEXT((#903,#902,#901))
REPRESENTATION_CONTEXT('\X2\53415B5769FD57065934672887BA9489\X0\',
'TOP_LEVEL_ASSEMBLY_PART')
);
#900=UNCERTAINTY_MEASURE_WITH_UNIT(LENGTH_MEASURE(0.005),#903,
'DISTANCE_ACCURACY_VALUE','Maximum Tolerance applied to model');
#901=(
NAMED_UNIT(*)
SI_UNIT($,.STERADIAN.)
SOLID_ANGLE_UNIT()
);
#902=(
NAMED_UNIT(*)
PLANE_ANGLE_UNIT()
SI_UNIT($,.RADIAN.)
);
#903=(
LENGTH_UNIT()
NAMED_UNIT(*)
SI_UNIT(.MILLI.,.METRE.)
);
#904=PRODUCT_DEFINITION_SHAPE('','',#905);
#905=PRODUCT_DEFINITION('','',#907,#906);
#906=PRODUCT_DEFINITION_CONTEXT('',#913,'design');
#907=PRODUCT_DEFINITION_FORMATION_WITH_SPECIFIED_SOURCE('','',#909,
 .NOT_KNOWN.);
#908=PRODUCT_RELATED_PRODUCT_CATEGORY('','',(#909));
#909=PRODUCT('\X2\53415B5769FD57065934672887BA9489\X0\',
'\X2\53415B5769FD57065934672887BA9489\X0\','\X2\53415B5769FD57065934672887BA9489\X0\',
(#911));
#910=PRODUCT_CATEGORY('','');
#911=PRODUCT_CONTEXT('',#913,'mechanical');
#912=APPLICATION_PROTOCOL_DEFINITION('international standard',
'automotive_design',2010,#913);
#913=APPLICATION_CONTEXT(
'core data for automotive mechanical design processes');
ENDSEC;
END-ISO-10303-21;
