ISO-10303-21;
HEADER;
/* Generated by software containing HOOPS Exchange Step
 * from HOOPS Exchange, Inc. (www.tiangong.cloud) 
 */

FILE_DESCRIPTION(
/* description */ ('Unknown'),
/* implementation_level */ '2;1');

FILE_NAME(
/* name */ '\X2\5F0069FD6C89593487BA9489\X0\',
/* time_stamp */ '2025-10-07T20:44:24+08:00',
/* author */ ('Unknown'),
/* organization */ ('Unknown'),
/* preprocessor_version */ 'ST-DEVELOPER v19.4',
/* originating_system */ 'TianGong',
/* authorisation */ 'Unknown');

FILE_SCHEMA (('AUTOMOTIVE_DESIGN {1 0 10303 214 3 1 1}'));
ENDSEC;

DATA;
#10=PROPERTY_DEFINITION_REPRESENTATION(#14,#12);
#11=PROPERTY_DEFINITION_REPRESENTATION(#15,#13);
#12=REPRESENTATION('',(#16),#419);
#13=REPRESENTATION('',(#17),#419);
#14=PROPERTY_DEFINITION('pmi validation property','',#424);
#15=PROPERTY_DEFINITION('pmi validation property','',#424);
#16=VALUE_REPRESENTATION_ITEM('number of annotations',COUNT_MEASURE(0.));
#17=VALUE_REPRESENTATION_ITEM('number of views',COUNT_MEASURE(0.));
#18=SHAPE_REPRESENTATION_RELATIONSHIP('','',#277,#19);
#19=ADVANCED_BREP_SHAPE_REPRESENTATION('',(#275),#419);
#20=TOROIDAL_SURFACE('',#300,1.12426406871193,0.4);
#21=B_SPLINE_CURVE_WITH_KNOTS('',3,(#387,#388,#389,#390),.UNSPECIFIED.,
 .F.,.F.,(4,4),(9.94171956576958E-7,0.000427568200720887),.UNSPECIFIED.);
#22=B_SPLINE_CURVE_WITH_KNOTS('',3,(#392,#393,#394,#395),.UNSPECIFIED.,
 .F.,.F.,(4,4),(0.00355330666302809,0.00397953405471637),.UNSPECIFIED.);
#23=B_SPLINE_CURVE_WITH_KNOTS('',3,(#399,#400,#401,#402),.UNSPECIFIED.,
 .F.,.F.,(4,4),(9.94171956576688E-7,0.000427568200720887),.UNSPECIFIED.);
#24=B_SPLINE_CURVE_WITH_KNOTS('',3,(#403,#404,#405,#406),.UNSPECIFIED.,
 .F.,.F.,(4,4),(0.00355330666302809,0.00397953405471637),.UNSPECIFIED.);
#25=CONICAL_SURFACE('',#291,1.5,0.785398163397448);
#26=CONICAL_SURFACE('',#295,0.7,0.141897054604164);
#27=CYLINDRICAL_SURFACE('',#281,1.5);
#28=CYLINDRICAL_SURFACE('',#283,0.8);
#29=CYLINDRICAL_SURFACE('',#289,1.5);
#30=CIRCLE('',#280,1.5);
#31=CIRCLE('',#282,1.5);
#32=CIRCLE('',#284,0.8);
#33=CIRCLE('',#285,0.8);
#34=CIRCLE('',#288,1.5);
#35=CIRCLE('',#290,1.5);
#36=CIRCLE('',#292,0.84142135623731);
#37=CIRCLE('',#293,1.2);
#38=CIRCLE('',#294,1.2);
#39=CIRCLE('',#296,0.728284271247462);
#40=ORIENTED_EDGE('',*,*,#84,.F.);
#41=ORIENTED_EDGE('',*,*,#85,.T.);
#42=ORIENTED_EDGE('',*,*,#86,.F.);
#43=ORIENTED_EDGE('',*,*,#85,.F.);
#44=ORIENTED_EDGE('',*,*,#87,.F.);
#45=ORIENTED_EDGE('',*,*,#88,.T.);
#46=ORIENTED_EDGE('',*,*,#89,.T.);
#47=ORIENTED_EDGE('',*,*,#90,.F.);
#48=ORIENTED_EDGE('',*,*,#89,.F.);
#49=ORIENTED_EDGE('',*,*,#91,.F.);
#50=ORIENTED_EDGE('',*,*,#92,.T.);
#51=ORIENTED_EDGE('',*,*,#93,.F.);
#52=ORIENTED_EDGE('',*,*,#92,.F.);
#53=ORIENTED_EDGE('',*,*,#94,.F.);
#54=ORIENTED_EDGE('',*,*,#95,.T.);
#55=ORIENTED_EDGE('',*,*,#96,.T.);
#56=ORIENTED_EDGE('',*,*,#97,.F.);
#57=ORIENTED_EDGE('',*,*,#88,.F.);
#58=ORIENTED_EDGE('',*,*,#98,.F.);
#59=ORIENTED_EDGE('',*,*,#99,.T.);
#60=ORIENTED_EDGE('',*,*,#100,.F.);
#61=ORIENTED_EDGE('',*,*,#95,.F.);
#62=ORIENTED_EDGE('',*,*,#101,.F.);
#63=ORIENTED_EDGE('',*,*,#102,.T.);
#64=ORIENTED_EDGE('',*,*,#103,.T.);
#65=ORIENTED_EDGE('',*,*,#90,.T.);
#66=ORIENTED_EDGE('',*,*,#86,.T.);
#67=ORIENTED_EDGE('',*,*,#97,.T.);
#68=ORIENTED_EDGE('',*,*,#104,.F.);
#69=ORIENTED_EDGE('',*,*,#98,.T.);
#70=ORIENTED_EDGE('',*,*,#87,.T.);
#71=ORIENTED_EDGE('',*,*,#84,.T.);
#72=ORIENTED_EDGE('',*,*,#93,.T.);
#73=ORIENTED_EDGE('',*,*,#100,.T.);
#74=ORIENTED_EDGE('',*,*,#105,.F.);
#75=ORIENTED_EDGE('',*,*,#101,.T.);
#76=ORIENTED_EDGE('',*,*,#94,.T.);
#77=ORIENTED_EDGE('',*,*,#91,.T.);
#78=ORIENTED_EDGE('',*,*,#105,.T.);
#79=ORIENTED_EDGE('',*,*,#99,.F.);
#80=ORIENTED_EDGE('',*,*,#104,.T.);
#81=ORIENTED_EDGE('',*,*,#102,.F.);
#82=ORIENTED_EDGE('',*,*,#103,.F.);
#83=ORIENTED_EDGE('',*,*,#96,.F.);
#84=EDGE_CURVE('',#106,#107,#122,.T.);
#85=EDGE_CURVE('',#106,#107,#30,.T.);
#86=EDGE_CURVE('',#107,#108,#123,.F.);
#87=EDGE_CURVE('',#109,#106,#124,.T.);
#88=EDGE_CURVE('',#109,#108,#31,.T.);
#89=EDGE_CURVE('',#110,#110,#32,.T.);
#90=EDGE_CURVE('',#111,#111,#33,.T.);
#91=EDGE_CURVE('',#112,#113,#125,.T.);
#92=EDGE_CURVE('',#112,#113,#34,.T.);
#93=EDGE_CURVE('',#113,#114,#126,.F.);
#94=EDGE_CURVE('',#115,#112,#127,.T.);
#95=EDGE_CURVE('',#115,#114,#35,.T.);
#96=EDGE_CURVE('',#116,#116,#36,.T.);
#97=EDGE_CURVE('',#108,#117,#21,.T.);
#98=EDGE_CURVE('',#118,#109,#22,.T.);
#99=EDGE_CURVE('',#118,#119,#37,.F.);
#100=EDGE_CURVE('',#114,#119,#23,.T.);
#101=EDGE_CURVE('',#120,#115,#24,.T.);
#102=EDGE_CURVE('',#120,#117,#38,.F.);
#103=EDGE_CURVE('',#121,#121,#39,.T.);
#104=EDGE_CURVE('',#118,#117,#128,.T.);
#105=EDGE_CURVE('',#120,#119,#129,.T.);
#106=VERTEX_POINT('',#358);
#107=VERTEX_POINT('',#359);
#108=VERTEX_POINT('',#363);
#109=VERTEX_POINT('',#365);
#110=VERTEX_POINT('',#369);
#111=VERTEX_POINT('',#371);
#112=VERTEX_POINT('',#375);
#113=VERTEX_POINT('',#376);
#114=VERTEX_POINT('',#380);
#115=VERTEX_POINT('',#382);
#116=VERTEX_POINT('',#386);
#117=VERTEX_POINT('',#391);
#118=VERTEX_POINT('',#396);
#119=VERTEX_POINT('',#398);
#120=VERTEX_POINT('',#407);
#121=VERTEX_POINT('',#411);
#122=LINE('',#357,#130);
#123=LINE('',#362,#131);
#124=LINE('',#364,#132);
#125=LINE('',#374,#133);
#126=LINE('',#379,#134);
#127=LINE('',#381,#135);
#128=LINE('',#413,#136);
#129=LINE('',#415,#137);
#130=VECTOR('',#305,1000.);
#131=VECTOR('',#310,1000.);
#132=VECTOR('',#311,1000.);
#133=VECTOR('',#324,1000.);
#134=VECTOR('',#329,1000.);
#135=VECTOR('',#330,1000.);
#136=VECTOR('',#347,1000.);
#137=VECTOR('',#350,1000.);
#138=EDGE_LOOP('',(#40,#41));
#139=EDGE_LOOP('',(#42,#43,#44,#45));
#140=EDGE_LOOP('',(#46));
#141=EDGE_LOOP('',(#47));
#142=EDGE_LOOP('',(#48));
#143=EDGE_LOOP('',(#49,#50));
#144=EDGE_LOOP('',(#51,#52,#53,#54));
#145=EDGE_LOOP('',(#55));
#146=EDGE_LOOP('',(#56,#57,#58,#59,#60,#61,#62,#63));
#147=EDGE_LOOP('',(#64));
#148=EDGE_LOOP('',(#65));
#149=EDGE_LOOP('',(#66,#67,#68,#69,#70,#71));
#150=EDGE_LOOP('',(#72,#73,#74,#75,#76,#77));
#151=EDGE_LOOP('',(#78,#79,#80,#81));
#152=EDGE_LOOP('',(#82));
#153=EDGE_LOOP('',(#83));
#154=FACE_BOUND('',#138,.T.);
#155=FACE_BOUND('',#139,.T.);
#156=FACE_BOUND('',#140,.T.);
#157=FACE_BOUND('',#141,.T.);
#158=FACE_BOUND('',#142,.T.);
#159=FACE_BOUND('',#143,.T.);
#160=FACE_BOUND('',#144,.T.);
#161=FACE_BOUND('',#145,.T.);
#162=FACE_BOUND('',#146,.T.);
#163=FACE_BOUND('',#147,.T.);
#164=FACE_BOUND('',#148,.T.);
#165=FACE_BOUND('',#149,.T.);
#166=FACE_BOUND('',#150,.T.);
#167=FACE_BOUND('',#151,.T.);
#168=FACE_BOUND('',#152,.T.);
#169=FACE_BOUND('',#153,.T.);
#170=PLANE('',#279);
#171=PLANE('',#286);
#172=PLANE('',#287);
#173=PLANE('',#297);
#174=PLANE('',#298);
#175=PLANE('',#299);
#176=STYLED_ITEM('',(#188),#262);
#177=STYLED_ITEM('',(#189),#263);
#178=STYLED_ITEM('',(#190),#264);
#179=STYLED_ITEM('',(#191),#265);
#180=STYLED_ITEM('',(#192),#266);
#181=STYLED_ITEM('',(#193),#267);
#182=STYLED_ITEM('',(#194),#268);
#183=STYLED_ITEM('',(#195),#269);
#184=STYLED_ITEM('',(#196),#270);
#185=STYLED_ITEM('',(#197),#271);
#186=STYLED_ITEM('',(#198),#272);
#187=STYLED_ITEM('',(#199),#273);
#188=PRESENTATION_STYLE_ASSIGNMENT((#200));
#189=PRESENTATION_STYLE_ASSIGNMENT((#201));
#190=PRESENTATION_STYLE_ASSIGNMENT((#202));
#191=PRESENTATION_STYLE_ASSIGNMENT((#203));
#192=PRESENTATION_STYLE_ASSIGNMENT((#204));
#193=PRESENTATION_STYLE_ASSIGNMENT((#205));
#194=PRESENTATION_STYLE_ASSIGNMENT((#206));
#195=PRESENTATION_STYLE_ASSIGNMENT((#207));
#196=PRESENTATION_STYLE_ASSIGNMENT((#208));
#197=PRESENTATION_STYLE_ASSIGNMENT((#209));
#198=PRESENTATION_STYLE_ASSIGNMENT((#210));
#199=PRESENTATION_STYLE_ASSIGNMENT((#211));
#200=SURFACE_STYLE_USAGE(.BOTH.,#212);
#201=SURFACE_STYLE_USAGE(.BOTH.,#213);
#202=SURFACE_STYLE_USAGE(.BOTH.,#214);
#203=SURFACE_STYLE_USAGE(.BOTH.,#215);
#204=SURFACE_STYLE_USAGE(.BOTH.,#216);
#205=SURFACE_STYLE_USAGE(.BOTH.,#217);
#206=SURFACE_STYLE_USAGE(.BOTH.,#218);
#207=SURFACE_STYLE_USAGE(.BOTH.,#219);
#208=SURFACE_STYLE_USAGE(.BOTH.,#220);
#209=SURFACE_STYLE_USAGE(.BOTH.,#221);
#210=SURFACE_STYLE_USAGE(.BOTH.,#222);
#211=SURFACE_STYLE_USAGE(.BOTH.,#223);
#212=SURFACE_SIDE_STYLE('',(#224));
#213=SURFACE_SIDE_STYLE('',(#225));
#214=SURFACE_SIDE_STYLE('',(#226));
#215=SURFACE_SIDE_STYLE('',(#227));
#216=SURFACE_SIDE_STYLE('',(#228));
#217=SURFACE_SIDE_STYLE('',(#229));
#218=SURFACE_SIDE_STYLE('',(#230));
#219=SURFACE_SIDE_STYLE('',(#231));
#220=SURFACE_SIDE_STYLE('',(#232));
#221=SURFACE_SIDE_STYLE('',(#233));
#222=SURFACE_SIDE_STYLE('',(#234));
#223=SURFACE_SIDE_STYLE('',(#235));
#224=SURFACE_STYLE_FILL_AREA(#236);
#225=SURFACE_STYLE_FILL_AREA(#237);
#226=SURFACE_STYLE_FILL_AREA(#238);
#227=SURFACE_STYLE_FILL_AREA(#239);
#228=SURFACE_STYLE_FILL_AREA(#240);
#229=SURFACE_STYLE_FILL_AREA(#241);
#230=SURFACE_STYLE_FILL_AREA(#242);
#231=SURFACE_STYLE_FILL_AREA(#243);
#232=SURFACE_STYLE_FILL_AREA(#244);
#233=SURFACE_STYLE_FILL_AREA(#245);
#234=SURFACE_STYLE_FILL_AREA(#246);
#235=SURFACE_STYLE_FILL_AREA(#247);
#236=FILL_AREA_STYLE('',(#248));
#237=FILL_AREA_STYLE('',(#249));
#238=FILL_AREA_STYLE('',(#250));
#239=FILL_AREA_STYLE('',(#251));
#240=FILL_AREA_STYLE('',(#252));
#241=FILL_AREA_STYLE('',(#253));
#242=FILL_AREA_STYLE('',(#254));
#243=FILL_AREA_STYLE('',(#255));
#244=FILL_AREA_STYLE('',(#256));
#245=FILL_AREA_STYLE('',(#257));
#246=FILL_AREA_STYLE('',(#258));
#247=FILL_AREA_STYLE('',(#259));
#248=FILL_AREA_STYLE_COLOUR('',#260);
#249=FILL_AREA_STYLE_COLOUR('',#260);
#250=FILL_AREA_STYLE_COLOUR('',#261);
#251=FILL_AREA_STYLE_COLOUR('',#260);
#252=FILL_AREA_STYLE_COLOUR('',#260);
#253=FILL_AREA_STYLE_COLOUR('',#260);
#254=FILL_AREA_STYLE_COLOUR('',#260);
#255=FILL_AREA_STYLE_COLOUR('',#260);
#256=FILL_AREA_STYLE_COLOUR('',#260);
#257=FILL_AREA_STYLE_COLOUR('',#260);
#258=FILL_AREA_STYLE_COLOUR('',#260);
#259=FILL_AREA_STYLE_COLOUR('',#260);
#260=COLOUR_RGB('',0.506983280181885,0.531564235687256,0.550000011920929);
#261=COLOUR_RGB('',0.1875,0.75,0.581249892711639);
#262=ADVANCED_FACE('',(#154),#170,.T.);
#263=ADVANCED_FACE('',(#155),#27,.T.);
#264=ADVANCED_FACE('',(#156,#157),#28,.T.);
#265=ADVANCED_FACE('',(#158),#171,.T.);
#266=ADVANCED_FACE('',(#159),#172,.T.);
#267=ADVANCED_FACE('',(#160),#29,.T.);
#268=ADVANCED_FACE('',(#161,#162),#25,.T.);
#269=ADVANCED_FACE('',(#163,#164),#26,.T.);
#270=ADVANCED_FACE('',(#165),#173,.F.);
#271=ADVANCED_FACE('',(#166),#174,.F.);
#272=ADVANCED_FACE('',(#167),#175,.T.);
#273=ADVANCED_FACE('',(#168,#169),#20,.F.);
#274=CLOSED_SHELL('',(#262,#263,#264,#265,#266,#267,#268,#269,#270,#271,
#272,#273));
#275=MANIFOLD_SOLID_BREP('',#274);
#276=SHAPE_DEFINITION_REPRESENTATION(#424,#277);
#277=SHAPE_REPRESENTATION('\X2\5F0069FD6C89593487BA9489\X0\',(#278),#419);
#278=AXIS2_PLACEMENT_3D('',#355,#301,#302);
#279=AXIS2_PLACEMENT_3D('',#356,#303,#304);
#280=AXIS2_PLACEMENT_3D('',#360,#306,#307);
#281=AXIS2_PLACEMENT_3D('',#361,#308,#309);
#282=AXIS2_PLACEMENT_3D('',#366,#312,#313);
#283=AXIS2_PLACEMENT_3D('',#367,#314,#315);
#284=AXIS2_PLACEMENT_3D('',#368,#316,#317);
#285=AXIS2_PLACEMENT_3D('',#370,#318,#319);
#286=AXIS2_PLACEMENT_3D('',#372,#320,#321);
#287=AXIS2_PLACEMENT_3D('',#373,#322,#323);
#288=AXIS2_PLACEMENT_3D('',#377,#325,#326);
#289=AXIS2_PLACEMENT_3D('',#378,#327,#328);
#290=AXIS2_PLACEMENT_3D('',#383,#331,#332);
#291=AXIS2_PLACEMENT_3D('',#384,#333,#334);
#292=AXIS2_PLACEMENT_3D('',#385,#335,#336);
#293=AXIS2_PLACEMENT_3D('',#397,#337,#338);
#294=AXIS2_PLACEMENT_3D('',#408,#339,#340);
#295=AXIS2_PLACEMENT_3D('',#409,#341,#342);
#296=AXIS2_PLACEMENT_3D('',#410,#343,#344);
#297=AXIS2_PLACEMENT_3D('',#412,#345,#346);
#298=AXIS2_PLACEMENT_3D('',#414,#348,#349);
#299=AXIS2_PLACEMENT_3D('',#416,#351,#352);
#300=AXIS2_PLACEMENT_3D('',#417,#353,#354);
#301=DIRECTION('',(0.,0.,1.));
#302=DIRECTION('',(1.,0.,0.));
#303=DIRECTION('',(-1.,0.,0.));
#304=DIRECTION('',(0.,0.,1.));
#305=DIRECTION('',(0.,-1.,1.26490253456642E-16));
#306=DIRECTION('',(-1.,0.,0.));
#307=DIRECTION('',(0.,0.,1.));
#308=DIRECTION('',(-1.,0.,0.));
#309=DIRECTION('',(0.,0.,1.));
#310=DIRECTION('',(-1.,0.,0.));
#311=DIRECTION('',(-1.,0.,0.));
#312=DIRECTION('',(-1.,0.,0.));
#313=DIRECTION('',(0.,0.,1.));
#314=DIRECTION('',(-1.,0.,0.));
#315=DIRECTION('',(0.,0.,1.));
#316=DIRECTION('',(-1.,0.,0.));
#317=DIRECTION('',(0.,0.,1.));
#318=DIRECTION('',(-1.,0.,0.));
#319=DIRECTION('',(0.,0.,1.));
#320=DIRECTION('',(1.,0.,0.));
#321=DIRECTION('',(0.,0.,-1.));
#322=DIRECTION('',(-1.,0.,0.));
#323=DIRECTION('',(0.,0.,1.));
#324=DIRECTION('',(0.,1.,1.26490253456642E-16));
#325=DIRECTION('',(-1.,0.,0.));
#326=DIRECTION('',(0.,0.,1.));
#327=DIRECTION('',(-1.,0.,0.));
#328=DIRECTION('',(0.,0.,1.));
#329=DIRECTION('',(-1.,0.,0.));
#330=DIRECTION('',(-1.,0.,0.));
#331=DIRECTION('',(-1.,0.,0.));
#332=DIRECTION('',(0.,0.,1.));
#333=DIRECTION('',(-1.,0.,0.));
#334=DIRECTION('',(0.,0.,1.));
#335=DIRECTION('',(-1.,0.,0.));
#336=DIRECTION('',(0.,0.,1.));
#337=DIRECTION('',(-1.,0.,0.));
#338=DIRECTION('',(0.,0.,1.));
#339=DIRECTION('',(-1.,0.,0.));
#340=DIRECTION('',(0.,0.,1.));
#341=DIRECTION('',(1.,0.,0.));
#342=DIRECTION('',(0.,0.,-1.));
#343=DIRECTION('',(1.,0.,0.));
#344=DIRECTION('',(0.,0.,-1.));
#345=DIRECTION('',(0.,-1.26490253456642E-16,-1.));
#346=DIRECTION('',(0.,1.,-1.26490253456642E-16));
#347=DIRECTION('',(0.,-1.,1.26490253456642E-16));
#348=DIRECTION('',(0.,-1.26490253456642E-16,1.));
#349=DIRECTION('',(0.,-1.,-1.26490253456642E-16));
#350=DIRECTION('',(0.,1.,1.26490253456642E-16));
#351=DIRECTION('',(-1.,0.,0.));
#352=DIRECTION('',(0.,0.,1.));
#353=DIRECTION('',(-1.,0.,0.));
#354=DIRECTION('',(0.,0.,1.));
#355=CARTESIAN_POINT('',(0.,0.,0.));
#356=CARTESIAN_POINT('',(0.,0.,0.));
#357=CARTESIAN_POINT('',(0.,1.5,-0.2));
#358=CARTESIAN_POINT('',(0.,1.48660687473185,-0.2));
#359=CARTESIAN_POINT('',(0.,-1.48660687473185,-0.199999999999999));
#360=CARTESIAN_POINT('',(0.,0.,0.));
#361=CARTESIAN_POINT('',(2.5,0.,0.));
#362=CARTESIAN_POINT('',(2.5,-1.48660687473185,-0.199999999999999));
#363=CARTESIAN_POINT('',(0.2,-1.48660687473185,-0.199999999999999));
#364=CARTESIAN_POINT('',(2.5,1.48660687473185,-0.2));
#365=CARTESIAN_POINT('',(0.2,1.48660687473185,-0.2));
#366=CARTESIAN_POINT('',(0.2,0.,0.));
#367=CARTESIAN_POINT('',(2.5,0.,0.));
#368=CARTESIAN_POINT('',(4.,0.,0.));
#369=CARTESIAN_POINT('',(4.,0.,0.8));
#370=CARTESIAN_POINT('',(1.7,0.,0.));
#371=CARTESIAN_POINT('',(1.7,0.,0.8));
#372=CARTESIAN_POINT('',(4.,0.,0.8));
#373=CARTESIAN_POINT('',(0.,0.,0.));
#374=CARTESIAN_POINT('',(0.,-1.5,0.199999999999999));
#375=CARTESIAN_POINT('',(0.,-1.48660687473185,0.199999999999999));
#376=CARTESIAN_POINT('',(0.,1.48660687473185,0.2));
#377=CARTESIAN_POINT('',(0.,0.,0.));
#378=CARTESIAN_POINT('',(2.5,0.,0.));
#379=CARTESIAN_POINT('',(2.5,1.48660687473185,0.2));
#380=CARTESIAN_POINT('',(0.2,1.48660687473185,0.2));
#381=CARTESIAN_POINT('',(2.5,-1.48660687473185,0.199999999999999));
#382=CARTESIAN_POINT('',(0.2,-1.48660687473185,0.199999999999999));
#383=CARTESIAN_POINT('',(0.2,0.,0.));
#384=CARTESIAN_POINT('',(0.2,0.,0.));
#385=CARTESIAN_POINT('',(0.85857864376269,0.,0.));
#386=CARTESIAN_POINT('',(0.85857864376269,0.,0.84142135623731));
#387=CARTESIAN_POINT('',(0.200000000000001,-1.48660687473185,-0.199999999999999));
#388=CARTESIAN_POINT('',(0.300117210874796,-1.38558768878245,-0.199999999999999));
#389=CARTESIAN_POINT('',(0.400146876710602,-1.28448550701508,-0.199999999999999));
#390=CARTESIAN_POINT('',(0.5,-1.18321595661992,-0.199999999999999));
#391=CARTESIAN_POINT('',(0.5,-1.18321595661992,-0.199999999999999));
#392=CARTESIAN_POINT('',(0.5,1.18321595661992,-0.2));
#393=CARTESIAN_POINT('',(0.400144631835843,1.28448778373363,-0.2));
#394=CARTESIAN_POINT('',(0.300115414749539,1.38558950108934,-0.2));
#395=CARTESIAN_POINT('',(0.200000000000002,1.48660687473185,-0.2));
#396=CARTESIAN_POINT('',(0.5,1.18321595661992,-0.2));
#397=CARTESIAN_POINT('',(0.5,0.,0.));
#398=CARTESIAN_POINT('',(0.5,1.18321595661992,0.2));
#399=CARTESIAN_POINT('',(0.2,1.48660687473185,0.2));
#400=CARTESIAN_POINT('',(0.300117210874796,1.38558768878245,0.2));
#401=CARTESIAN_POINT('',(0.400146876710602,1.28448550701508,0.2));
#402=CARTESIAN_POINT('',(0.5,1.18321595661992,0.2));
#403=CARTESIAN_POINT('',(0.5,-1.18321595661992,0.199999999999999));
#404=CARTESIAN_POINT('',(0.400144631835843,-1.28448778373363,0.199999999999999));
#405=CARTESIAN_POINT('',(0.300115414749539,-1.38558950108934,0.199999999999999));
#406=CARTESIAN_POINT('',(0.200000000000002,-1.48660687473185,0.199999999999999));
#407=CARTESIAN_POINT('',(0.5,-1.18321595661992,0.199999999999999));
#408=CARTESIAN_POINT('',(0.5,0.,0.));
#409=CARTESIAN_POINT('',(1.,0.,0.));
#410=CARTESIAN_POINT('',(1.19798989873223,0.,0.));
#411=CARTESIAN_POINT('',(1.19798989873223,0.,-0.728284271247462));
#412=CARTESIAN_POINT('',(0.5,1.5,-0.2));
#413=CARTESIAN_POINT('',(0.5,1.5,-0.2));
#414=CARTESIAN_POINT('',(0.5,-1.5,0.199999999999999));
#415=CARTESIAN_POINT('',(0.5,-1.5,0.199999999999999));
#416=CARTESIAN_POINT('',(0.5,0.,0.));
#417=CARTESIAN_POINT('',(1.14142135623731,0.,0.));
#418=MECHANICAL_DESIGN_GEOMETRIC_PRESENTATION_REPRESENTATION('',(#176,#177,
#178,#179,#180,#181,#182,#183,#184,#185,#186,#187),#419);
#419=(
GEOMETRIC_REPRESENTATION_CONTEXT(3)
GLOBAL_UNCERTAINTY_ASSIGNED_CONTEXT((#420))
GLOBAL_UNIT_ASSIGNED_CONTEXT((#423,#422,#421))
REPRESENTATION_CONTEXT('\X2\5F0069FD6C89593487BA9489\X0\',
'TOP_LEVEL_ASSEMBLY_PART')
);
#420=UNCERTAINTY_MEASURE_WITH_UNIT(LENGTH_MEASURE(0.005),#423,
'DISTANCE_ACCURACY_VALUE','Maximum Tolerance applied to model');
#421=(
NAMED_UNIT(*)
SI_UNIT($,.STERADIAN.)
SOLID_ANGLE_UNIT()
);
#422=(
NAMED_UNIT(*)
PLANE_ANGLE_UNIT()
SI_UNIT($,.RADIAN.)
);
#423=(
LENGTH_UNIT()
NAMED_UNIT(*)
SI_UNIT(.MILLI.,.METRE.)
);
#424=PRODUCT_DEFINITION_SHAPE('','',#425);
#425=PRODUCT_DEFINITION('','',#427,#426);
#426=PRODUCT_DEFINITION_CONTEXT('',#433,'design');
#427=PRODUCT_DEFINITION_FORMATION_WITH_SPECIFIED_SOURCE('','',#429,
 .NOT_KNOWN.);
#428=PRODUCT_RELATED_PRODUCT_CATEGORY('','',(#429));
#429=PRODUCT('\X2\5F0069FD6C89593487BA9489\X0\','\X2\5F0069FD6C89593487BA9489\X0\',
'\X2\5F0069FD6C89593487BA9489\X0\',(#431));
#430=PRODUCT_CATEGORY('','');
#431=PRODUCT_CONTEXT('',#433,'mechanical');
#432=APPLICATION_PROTOCOL_DEFINITION('international standard',
'automotive_design',2010,#433);
#433=APPLICATION_CONTEXT(
'core data for automotive mechanical design processes');
ENDSEC;
END-ISO-10303-21;
