ISO-10303-21;
HEADER;
/* Generated by software containing HOOPS Exchange Step
 * from HOOPS Exchange, Inc. (www.tiangong.cloud) 
 */

FILE_DESCRIPTION(
/* description */ ('Unknown'),
/* implementation_level */ '2;1');

FILE_NAME(
/* name */ '\X2\5F0069FD740397625927570667F1593487BA9489\X0\ GBT947-19
88',
/* time_stamp */ '2025-11-21T11:39:39+08:00',
/* author */ ('Unknown'),
/* organization */ ('Unknown'),
/* preprocessor_version */ 'ST-DEVELOPER v19.4',
/* originating_system */ 'TianGong',
/* authorisation */ 'Unknown');

FILE_SCHEMA (('AUTOMOTIVE_DESIGN {1 0 10303 214 3 1 1}'));
ENDSEC;

DATA;
#10=PROPERTY_DEFINITION_REPRESENTATION(#14,#12);
#11=PROPERTY_DEFINITION_REPRESENTATION(#15,#13);
#12=REPRESENTATION('',(#16),#286);
#13=REPRESENTATION('',(#17),#286);
#14=PROPERTY_DEFINITION('pmi validation property','',#291);
#15=PROPERTY_DEFINITION('pmi validation property','',#291);
#16=VALUE_REPRESENTATION_ITEM('number of annotations',COUNT_MEASURE(0.));
#17=VALUE_REPRESENTATION_ITEM('number of views',COUNT_MEASURE(0.));
#18=SHAPE_REPRESENTATION_RELATIONSHIP('','',#189,#19);
#19=ADVANCED_BREP_SHAPE_REPRESENTATION('',(#187),#286);
#20=LINE('',#281,#22);
#21=LINE('',#283,#23);
#22=VECTOR('',#237,1000.);
#23=VECTOR('',#240,1000.);
#24=TOROIDAL_SURFACE('',#203,0.899999999999992,0.1);
#25=PLANE('',#199);
#26=PLANE('',#204);
#27=PLANE('',#205);
#28=PLANE('',#206);
#29=CYLINDRICAL_SURFACE('',#197,0.799999999999992);
#30=CYLINDRICAL_SURFACE('',#202,3.);
#31=SPHERICAL_SURFACE('',#195,2.24);
#32=B_SPLINE_CURVE_WITH_KNOTS('',3,(#250,#251,#252,#253,#254,#255,#256),
 .UNSPECIFIED.,.F.,.F.,(4,1,1,1,4),(0.00692873352610027,0.0082132383343662,
0.00949774314263213,0.0107822479508981,0.012066752759164),.UNSPECIFIED.);
#33=B_SPLINE_CURVE_WITH_KNOTS('',3,(#260,#261,#262,#263,#264,#265,#266),
 .UNSPECIFIED.,.F.,.F.,(4,1,1,1,4),(0.00692873352610129,0.00821323833436725,
0.0094977431426332,0.0107822479508992,0.0120667527591651),.UNSPECIFIED.);
#34=ORIENTED_EDGE('',*,*,#56,.T.);
#35=ORIENTED_EDGE('',*,*,#57,.T.);
#36=ORIENTED_EDGE('',*,*,#58,.F.);
#37=ORIENTED_EDGE('',*,*,#59,.T.);
#38=ORIENTED_EDGE('',*,*,#60,.F.);
#39=ORIENTED_EDGE('',*,*,#61,.F.);
#40=ORIENTED_EDGE('',*,*,#62,.T.);
#41=ORIENTED_EDGE('',*,*,#61,.T.);
#42=ORIENTED_EDGE('',*,*,#63,.T.);
#43=ORIENTED_EDGE('',*,*,#64,.F.);
#44=ORIENTED_EDGE('',*,*,#56,.F.);
#45=ORIENTED_EDGE('',*,*,#64,.T.);
#46=ORIENTED_EDGE('',*,*,#62,.F.);
#47=ORIENTED_EDGE('',*,*,#63,.F.);
#48=ORIENTED_EDGE('',*,*,#58,.T.);
#49=ORIENTED_EDGE('',*,*,#65,.T.);
#50=ORIENTED_EDGE('',*,*,#66,.T.);
#51=ORIENTED_EDGE('',*,*,#60,.T.);
#52=ORIENTED_EDGE('',*,*,#66,.F.);
#53=ORIENTED_EDGE('',*,*,#59,.F.);
#54=ORIENTED_EDGE('',*,*,#65,.F.);
#55=ORIENTED_EDGE('',*,*,#57,.F.);
#56=EDGE_CURVE('',#67,#67,#76,.T.);
#57=EDGE_CURVE('',#68,#69,#77,.T.);
#58=EDGE_CURVE('',#70,#69,#32,.T.);
#59=EDGE_CURVE('',#70,#71,#78,.T.);
#60=EDGE_CURVE('',#68,#71,#33,.T.);
#61=EDGE_CURVE('',#72,#72,#79,.T.);
#62=EDGE_CURVE('',#73,#73,#80,.F.);
#63=EDGE_CURVE('',#74,#74,#81,.T.);
#64=EDGE_CURVE('',#75,#75,#82,.T.);
#65=EDGE_CURVE('',#69,#70,#20,.T.);
#66=EDGE_CURVE('',#71,#68,#21,.T.);
#67=VERTEX_POINT('',#246);
#68=VERTEX_POINT('',#248);
#69=VERTEX_POINT('',#249);
#70=VERTEX_POINT('',#257);
#71=VERTEX_POINT('',#259);
#72=VERTEX_POINT('',#269);
#73=VERTEX_POINT('',#272);
#74=VERTEX_POINT('',#275);
#75=VERTEX_POINT('',#277);
#76=CIRCLE('',#192,3.);
#77=CIRCLE('',#193,2.48216023082275);
#78=CIRCLE('',#194,2.48216023082275);
#79=CIRCLE('',#196,0.799999999999991);
#80=CIRCLE('',#198,0.799999999999992);
#81=CIRCLE('',#200,0.899999999999992);
#82=CIRCLE('',#201,3.);
#83=EDGE_LOOP('',(#34));
#84=EDGE_LOOP('',(#35,#36,#37,#38));
#85=EDGE_LOOP('',(#39));
#86=EDGE_LOOP('',(#40));
#87=EDGE_LOOP('',(#41));
#88=EDGE_LOOP('',(#42));
#89=EDGE_LOOP('',(#43));
#90=EDGE_LOOP('',(#44));
#91=EDGE_LOOP('',(#45));
#92=EDGE_LOOP('',(#46));
#93=EDGE_LOOP('',(#47));
#94=EDGE_LOOP('',(#48,#49));
#95=EDGE_LOOP('',(#50,#51));
#96=EDGE_LOOP('',(#52,#53,#54,#55));
#97=FACE_BOUND('',#83,.T.);
#98=FACE_BOUND('',#84,.T.);
#99=FACE_BOUND('',#85,.T.);
#100=FACE_BOUND('',#86,.T.);
#101=FACE_BOUND('',#87,.T.);
#102=FACE_BOUND('',#88,.T.);
#103=FACE_BOUND('',#89,.T.);
#104=FACE_BOUND('',#90,.T.);
#105=FACE_BOUND('',#91,.T.);
#106=FACE_BOUND('',#92,.T.);
#107=FACE_BOUND('',#93,.T.);
#108=FACE_BOUND('',#94,.T.);
#109=FACE_BOUND('',#95,.T.);
#110=FACE_BOUND('',#96,.T.);
#111=DEGENERATE_TOROIDAL_SURFACE('',#191,0.200000000000007,4.6402127659574,
 .T.);
#112=STYLED_ITEM('',(#121),#177);
#113=STYLED_ITEM('',(#122),#178);
#114=STYLED_ITEM('',(#123),#179);
#115=STYLED_ITEM('',(#124),#180);
#116=STYLED_ITEM('',(#125),#181);
#117=STYLED_ITEM('',(#126),#182);
#118=STYLED_ITEM('',(#127),#183);
#119=STYLED_ITEM('',(#128),#184);
#120=STYLED_ITEM('',(#129),#185);
#121=PRESENTATION_STYLE_ASSIGNMENT((#130));
#122=PRESENTATION_STYLE_ASSIGNMENT((#131));
#123=PRESENTATION_STYLE_ASSIGNMENT((#132));
#124=PRESENTATION_STYLE_ASSIGNMENT((#133));
#125=PRESENTATION_STYLE_ASSIGNMENT((#134));
#126=PRESENTATION_STYLE_ASSIGNMENT((#135));
#127=PRESENTATION_STYLE_ASSIGNMENT((#136));
#128=PRESENTATION_STYLE_ASSIGNMENT((#137));
#129=PRESENTATION_STYLE_ASSIGNMENT((#138));
#130=SURFACE_STYLE_USAGE(.BOTH.,#139);
#131=SURFACE_STYLE_USAGE(.BOTH.,#140);
#132=SURFACE_STYLE_USAGE(.BOTH.,#141);
#133=SURFACE_STYLE_USAGE(.BOTH.,#142);
#134=SURFACE_STYLE_USAGE(.BOTH.,#143);
#135=SURFACE_STYLE_USAGE(.BOTH.,#144);
#136=SURFACE_STYLE_USAGE(.BOTH.,#145);
#137=SURFACE_STYLE_USAGE(.BOTH.,#146);
#138=SURFACE_STYLE_USAGE(.BOTH.,#147);
#139=SURFACE_SIDE_STYLE('',(#148));
#140=SURFACE_SIDE_STYLE('',(#149));
#141=SURFACE_SIDE_STYLE('',(#150));
#142=SURFACE_SIDE_STYLE('',(#151));
#143=SURFACE_SIDE_STYLE('',(#152));
#144=SURFACE_SIDE_STYLE('',(#153));
#145=SURFACE_SIDE_STYLE('',(#154));
#146=SURFACE_SIDE_STYLE('',(#155));
#147=SURFACE_SIDE_STYLE('',(#156));
#148=SURFACE_STYLE_FILL_AREA(#157);
#149=SURFACE_STYLE_FILL_AREA(#158);
#150=SURFACE_STYLE_FILL_AREA(#159);
#151=SURFACE_STYLE_FILL_AREA(#160);
#152=SURFACE_STYLE_FILL_AREA(#161);
#153=SURFACE_STYLE_FILL_AREA(#162);
#154=SURFACE_STYLE_FILL_AREA(#163);
#155=SURFACE_STYLE_FILL_AREA(#164);
#156=SURFACE_STYLE_FILL_AREA(#165);
#157=FILL_AREA_STYLE('',(#166));
#158=FILL_AREA_STYLE('',(#167));
#159=FILL_AREA_STYLE('',(#168));
#160=FILL_AREA_STYLE('',(#169));
#161=FILL_AREA_STYLE('',(#170));
#162=FILL_AREA_STYLE('',(#171));
#163=FILL_AREA_STYLE('',(#172));
#164=FILL_AREA_STYLE('',(#173));
#165=FILL_AREA_STYLE('',(#174));
#166=FILL_AREA_STYLE_COLOUR('',#175);
#167=FILL_AREA_STYLE_COLOUR('',#175);
#168=FILL_AREA_STYLE_COLOUR('',#176);
#169=FILL_AREA_STYLE_COLOUR('',#175);
#170=FILL_AREA_STYLE_COLOUR('',#175);
#171=FILL_AREA_STYLE_COLOUR('',#175);
#172=FILL_AREA_STYLE_COLOUR('',#175);
#173=FILL_AREA_STYLE_COLOUR('',#175);
#174=FILL_AREA_STYLE_COLOUR('',#175);
#175=COLOUR_RGB('',0.506983280181885,0.531564235687256,0.550000011920929);
#176=COLOUR_RGB('',0.1875,0.75,0.581249892711639);
#177=ADVANCED_FACE('',(#97,#98),#111,.T.);
#178=ADVANCED_FACE('',(#99),#31,.T.);
#179=ADVANCED_FACE('',(#100,#101),#29,.T.);
#180=ADVANCED_FACE('',(#102,#103),#25,.F.);
#181=ADVANCED_FACE('',(#104,#105),#30,.T.);
#182=ADVANCED_FACE('',(#106,#107),#24,.F.);
#183=ADVANCED_FACE('',(#108),#26,.T.);
#184=ADVANCED_FACE('',(#109),#27,.T.);
#185=ADVANCED_FACE('',(#110),#28,.F.);
#186=CLOSED_SHELL('',(#177,#178,#179,#180,#181,#182,#183,#184,#185));
#187=MANIFOLD_SOLID_BREP('',#186);
#188=SHAPE_DEFINITION_REPRESENTATION(#291,#189);
#189=SHAPE_REPRESENTATION('\X2\5F0069FD740397625927570667F1593487BA9489\X0\ 
GBT947-1988',(#190),#286);
#190=AXIS2_PLACEMENT_3D('',#243,#207,#208);
#191=AXIS2_PLACEMENT_3D('',#244,#209,#210);
#192=AXIS2_PLACEMENT_3D('',#245,#211,#212);
#193=AXIS2_PLACEMENT_3D('',#247,#213,#214);
#194=AXIS2_PLACEMENT_3D('',#258,#215,#216);
#195=AXIS2_PLACEMENT_3D('',#267,#217,#218);
#196=AXIS2_PLACEMENT_3D('',#268,#219,#220);
#197=AXIS2_PLACEMENT_3D('',#270,#221,#222);
#198=AXIS2_PLACEMENT_3D('',#271,#223,#224);
#199=AXIS2_PLACEMENT_3D('',#273,#225,#226);
#200=AXIS2_PLACEMENT_3D('',#274,#227,#228);
#201=AXIS2_PLACEMENT_3D('',#276,#229,#230);
#202=AXIS2_PLACEMENT_3D('',#278,#231,#232);
#203=AXIS2_PLACEMENT_3D('',#279,#233,#234);
#204=AXIS2_PLACEMENT_3D('',#280,#235,#236);
#205=AXIS2_PLACEMENT_3D('',#282,#238,#239);
#206=AXIS2_PLACEMENT_3D('',#284,#241,#242);
#207=DIRECTION('',(0.,0.,1.));
#208=DIRECTION('',(1.,0.,0.));
#209=DIRECTION('',(-1.,0.,-1.37160441504504E-16));
#210=DIRECTION('',(-1.37160441504504E-16,0.,1.));
#211=DIRECTION('',(-1.,0.,-1.37160441504504E-16));
#212=DIRECTION('',(-1.37160441504504E-16,0.,1.));
#213=DIRECTION('',(1.,-6.12303176911189E-17,0.));
#214=DIRECTION('',(6.12303176911189E-17,1.,0.));
#215=DIRECTION('',(1.,-6.12303176911189E-17,0.));
#216=DIRECTION('',(6.12303176911189E-17,1.,0.));
#217=DIRECTION('',(-1.,0.,-1.37160441504504E-16));
#218=DIRECTION('',(1.37160441504504E-16,0.,-1.));
#219=DIRECTION('',(-1.,0.,-1.37160441504504E-16));
#220=DIRECTION('',(-1.37160441504504E-16,0.,1.));
#221=DIRECTION('',(-1.,0.,-1.37160441504504E-16));
#222=DIRECTION('',(-1.37160441504504E-16,0.,1.));
#223=DIRECTION('',(-1.,0.,-1.37160441504504E-16));
#224=DIRECTION('',(-1.37160441504504E-16,0.,1.));
#225=DIRECTION('',(-1.,0.,-1.37160441504504E-16));
#226=DIRECTION('',(-1.37160441504504E-16,0.,1.));
#227=DIRECTION('',(-1.,0.,-1.37160441504504E-16));
#228=DIRECTION('',(-1.37160441504504E-16,0.,1.));
#229=DIRECTION('',(-1.,0.,-1.37160441504504E-16));
#230=DIRECTION('',(-1.37160441504504E-16,0.,1.));
#231=DIRECTION('',(-1.,0.,-1.37160441504504E-16));
#232=DIRECTION('',(-1.37160441504504E-16,0.,1.));
#233=DIRECTION('',(-1.,0.,-1.37160441504504E-16));
#234=DIRECTION('',(-1.37160441504504E-16,0.,1.));
#235=DIRECTION('',(0.,0.,1.));
#236=DIRECTION('',(1.,0.,0.));
#237=DIRECTION('',(6.12303176911189E-17,1.,0.));
#238=DIRECTION('',(0.,1.0842021724855E-16,-1.));
#239=DIRECTION('',(0.,1.,1.0842021724855E-16));
#240=DIRECTION('',(-6.12303176911189E-17,-1.,-1.0842021724855E-16));
#241=DIRECTION('',(1.,-6.12303176911189E-17,0.));
#242=DIRECTION('',(6.12303176911189E-17,1.,0.));
#243=CARTESIAN_POINT('',(0.,0.,0.));
#244=CARTESIAN_POINT('',(3.44021276595739,0.,4.60785923306339E-16));
#245=CARTESIAN_POINT('',(-0.26,0.,-3.56617147911709E-17));
#246=CARTESIAN_POINT('',(-0.26,0.,3.));
#247=CARTESIAN_POINT('',(-0.6,2.47383511199285E-16,4.60785923306339E-16));
#248=CARTESIAN_POINT('',(-0.6,-2.4740896126612,0.2));
#249=CARTESIAN_POINT('',(-0.6,-2.4740896126612,-0.200000000000002));
#250=CARTESIAN_POINT('',(-0.6,2.4740896126612,-0.200000000000002));
#251=CARTESIAN_POINT('',(-0.810103974535938,2.10091958159209,-0.200000000000002));
#252=CARTESIAN_POINT('',(-1.13463288760047,1.28669636799854,-0.200000000000002));
#253=CARTESIAN_POINT('',(-1.23277981069168,-0.000799258694113785,-0.200000000000002));
#254=CARTESIAN_POINT('',(-1.13424786963036,-1.28881645917724,-0.200000000000002));
#255=CARTESIAN_POINT('',(-0.809164544373317,-2.1025881230071,-0.200000000000002));
#256=CARTESIAN_POINT('',(-0.600000000000002,-2.4740896126612,-0.200000000000002));
#257=CARTESIAN_POINT('',(-0.6,2.4740896126612,-0.200000000000002));
#258=CARTESIAN_POINT('',(-0.6,2.47383511199285E-16,4.60785923306339E-16));
#259=CARTESIAN_POINT('',(-0.6,2.4740896126612,0.200000000000001));
#260=CARTESIAN_POINT('',(-0.6,-2.4740896126612,0.2));
#261=CARTESIAN_POINT('',(-0.810103974535939,-2.10091958159209,0.2));
#262=CARTESIAN_POINT('',(-1.13463288760048,-1.28669636799851,0.2));
#263=CARTESIAN_POINT('',(-1.23277981069168,0.000799258694107568,0.2));
#264=CARTESIAN_POINT('',(-1.13424786963036,1.28881645917722,0.2));
#265=CARTESIAN_POINT('',(-0.80916454437332,2.1025881230071,0.200000000000001));
#266=CARTESIAN_POINT('',(-0.600000000000002,2.4740896126612,0.200000000000001));
#267=CARTESIAN_POINT('',(0.26,0.,0.));
#268=CARTESIAN_POINT('',(2.35227149289953,0.,3.22638596504557E-16));
#269=CARTESIAN_POINT('',(2.35227149289953,0.,0.799999999999991));
#270=CARTESIAN_POINT('',(0.,0.,0.));
#271=CARTESIAN_POINT('',(0.1,0.,1.37160441504504E-17));
#272=CARTESIAN_POINT('',(0.1,0.,0.799999999999992));
#273=CARTESIAN_POINT('',(1.50876485654954E-16,0.,0.799999999999993));
#274=CARTESIAN_POINT('',(2.57498015965307E-16,0.,3.61111864572607E-32));
#275=CARTESIAN_POINT('',(1.34053618611255E-16,0.,0.899999999999992));
#276=CARTESIAN_POINT('',(4.11481324513511E-16,0.,5.6438960141131E-32));
#277=CARTESIAN_POINT('',(0.,0.,3.));
#278=CARTESIAN_POINT('',(0.,0.,0.));
#279=CARTESIAN_POINT('',(0.1,0.,1.37160441504504E-17));
#280=CARTESIAN_POINT('',(-0.6,-5.99999999999999,-0.200000000000002));
#281=CARTESIAN_POINT('',(-0.6,-5.99999999999999,-0.200000000000002));
#282=CARTESIAN_POINT('',(-0.599999999999999,6.00000000000002,0.200000000000001));
#283=CARTESIAN_POINT('',(-0.599999999999999,6.00000000000002,0.200000000000001));
#284=CARTESIAN_POINT('',(-0.6,7.34763812293426E-17,0.));
#285=MECHANICAL_DESIGN_GEOMETRIC_PRESENTATION_REPRESENTATION('',(#112,#113,
#114,#115,#116,#117,#118,#119,#120),#286);
#286=(
GEOMETRIC_REPRESENTATION_CONTEXT(3)
GLOBAL_UNCERTAINTY_ASSIGNED_CONTEXT((#287))
GLOBAL_UNIT_ASSIGNED_CONTEXT((#290,#289,#288))
REPRESENTATION_CONTEXT('\X2\5F0069FD740397625927570667F1593487BA9489\X0\ 
GBT947-1988','TOP_LEVEL_ASSEMBLY_PART')
);
#287=UNCERTAINTY_MEASURE_WITH_UNIT(LENGTH_MEASURE(0.005),#290,
'DISTANCE_ACCURACY_VALUE','Maximum Tolerance applied to model');
#288=(
NAMED_UNIT(*)
SI_UNIT($,.STERADIAN.)
SOLID_ANGLE_UNIT()
);
#289=(
NAMED_UNIT(*)
PLANE_ANGLE_UNIT()
SI_UNIT($,.RADIAN.)
);
#290=(
LENGTH_UNIT()
NAMED_UNIT(*)
SI_UNIT(.MILLI.,.METRE.)
);
#291=PRODUCT_DEFINITION_SHAPE('','',#292);
#292=PRODUCT_DEFINITION('','',#294,#293);
#293=PRODUCT_DEFINITION_CONTEXT('',#300,'design');
#294=PRODUCT_DEFINITION_FORMATION_WITH_SPECIFIED_SOURCE('','',#296,
 .NOT_KNOWN.);
#295=PRODUCT_RELATED_PRODUCT_CATEGORY('','',(#296));
#296=PRODUCT('\X2\5F0069FD740397625927570667F1593487BA9489\X0\ GBT947-
1988','\X2\5F0069FD740397625927570667F1593487BA9489\X0\ GBT947-1988',
'\X2\5F0069FD740397625927570667F1593487BA9489\X0\ GBT947-1988',(#298));
#297=PRODUCT_CATEGORY('','');
#298=PRODUCT_CONTEXT('',#300,'mechanical');
#299=APPLICATION_PROTOCOL_DEFINITION('international standard',
'automotive_design',2010,#300);
#300=APPLICATION_CONTEXT(
'core data for automotive mechanical design processes');
ENDSEC;
END-ISO-10303-21;
