ISO-10303-21;
HEADER;
/* Generated by software containing HOOPS Exchange Step
 * from HOOPS Exchange, Inc. (www.tiangong.cloud) 
 */

FILE_DESCRIPTION(
/* description */ ('Unknown'),
/* implementation_level */ '2;1');

FILE_NAME(
/* name */ '\X2\53415B5769FD534A6C89593481EA94BB81EA653B87BA9489\X0\ G
BT15856.3-2002',
/* time_stamp */ '2025-10-31T15:45:06+08:00',
/* author */ ('Unknown'),
/* organization */ ('Unknown'),
/* preprocessor_version */ 'ST-DEVELOPER v19.4',
/* originating_system */ 'TianGong',
/* authorisation */ 'Unknown');

FILE_SCHEMA (('AUTOMOTIVE_DESIGN {1 0 10303 214 3 1 1}'));
ENDSEC;

DATA;
#10=PROPERTY_DEFINITION_REPRESENTATION(#14,#12);
#11=PROPERTY_DEFINITION_REPRESENTATION(#15,#13);
#12=REPRESENTATION('',(#16),#565);
#13=REPRESENTATION('',(#17),#565);
#14=PROPERTY_DEFINITION('pmi validation property','',#570);
#15=PROPERTY_DEFINITION('pmi validation property','',#570);
#16=VALUE_REPRESENTATION_ITEM('number of annotations',COUNT_MEASURE(0.));
#17=VALUE_REPRESENTATION_ITEM('number of views',COUNT_MEASURE(0.));
#18=SHAPE_REPRESENTATION_RELATIONSHIP('','',#337,#19);
#19=ADVANCED_BREP_SHAPE_REPRESENTATION('',(#335),#565);
#20=TOROIDAL_SURFACE('',#374,2.64999999999999,1.2);
#21=CYLINDRICAL_SURFACE('',#359,1.44999999999999);
#22=CYLINDRICAL_SURFACE('',#364,2.75);
#23=VERTEX_LOOP('',#232);
#24=CONICAL_SURFACE('',#357,0.,0.785398163397448);
#25=CONICAL_SURFACE('',#361,1.44999999999999,0.785398163397448);
#26=LINE('',#502,#50);
#27=LINE('',#505,#51);
#28=LINE('',#506,#52);
#29=LINE('',#508,#53);
#30=LINE('',#510,#54);
#31=LINE('',#512,#55);
#32=LINE('',#514,#56);
#33=LINE('',#516,#57);
#34=LINE('',#518,#58);
#35=LINE('',#520,#59);
#36=LINE('',#523,#60);
#37=LINE('',#524,#61);
#38=LINE('',#539,#62);
#39=LINE('',#541,#63);
#40=LINE('',#543,#64);
#41=LINE('',#545,#65);
#42=LINE('',#547,#66);
#43=LINE('',#548,#67);
#44=LINE('',#550,#68);
#45=LINE('',#552,#69);
#46=LINE('',#554,#70);
#47=LINE('',#556,#71);
#48=LINE('',#559,#72);
#49=LINE('',#560,#73);
#50=VECTOR('',#407,1000.);
#51=VECTOR('',#408,1000.);
#52=VECTOR('',#409,1000.);
#53=VECTOR('',#412,1000.);
#54=VECTOR('',#413,1000.);
#55=VECTOR('',#414,1000.);
#56=VECTOR('',#417,1000.);
#57=VECTOR('',#418,1000.);
#58=VECTOR('',#419,1000.);
#59=VECTOR('',#422,1000.);
#60=VECTOR('',#423,1000.);
#61=VECTOR('',#424,1000.);
#62=VECTOR('',#443,1000.);
#63=VECTOR('',#446,1000.);
#64=VECTOR('',#449,1000.);
#65=VECTOR('',#450,1000.);
#66=VECTOR('',#451,1000.);
#67=VECTOR('',#452,1000.);
#68=VECTOR('',#453,1000.);
#69=VECTOR('',#454,1000.);
#70=VECTOR('',#457,1000.);
#71=VECTOR('',#460,1000.);
#72=VECTOR('',#465,1000.);
#73=VECTOR('',#466,1000.);
#74=PLANE('',#353);
#75=PLANE('',#354);
#76=PLANE('',#355);
#77=PLANE('',#356);
#78=PLANE('',#365);
#79=PLANE('',#366);
#80=PLANE('',#367);
#81=PLANE('',#368);
#82=PLANE('',#369);
#83=PLANE('',#370);
#84=PLANE('',#371);
#85=PLANE('',#372);
#86=PLANE('',#373);
#87=ORIENTED_EDGE('',*,*,#169,.T.);
#88=ORIENTED_EDGE('',*,*,#170,.F.);
#89=ORIENTED_EDGE('',*,*,#171,.F.);
#90=ORIENTED_EDGE('',*,*,#172,.F.);
#91=ORIENTED_EDGE('',*,*,#173,.F.);
#92=ORIENTED_EDGE('',*,*,#174,.F.);
#93=ORIENTED_EDGE('',*,*,#175,.F.);
#94=ORIENTED_EDGE('',*,*,#176,.F.);
#95=ORIENTED_EDGE('',*,*,#177,.F.);
#96=ORIENTED_EDGE('',*,*,#178,.F.);
#97=ORIENTED_EDGE('',*,*,#179,.F.);
#98=ORIENTED_EDGE('',*,*,#180,.F.);
#99=ORIENTED_EDGE('',*,*,#181,.F.);
#100=ORIENTED_EDGE('',*,*,#182,.T.);
#101=ORIENTED_EDGE('',*,*,#183,.T.);
#102=ORIENTED_EDGE('',*,*,#173,.T.);
#103=ORIENTED_EDGE('',*,*,#184,.F.);
#104=ORIENTED_EDGE('',*,*,#177,.T.);
#105=ORIENTED_EDGE('',*,*,#185,.T.);
#106=ORIENTED_EDGE('',*,*,#186,.T.);
#107=ORIENTED_EDGE('',*,*,#187,.T.);
#108=ORIENTED_EDGE('',*,*,#171,.T.);
#109=ORIENTED_EDGE('',*,*,#188,.T.);
#110=ORIENTED_EDGE('',*,*,#189,.T.);
#111=ORIENTED_EDGE('',*,*,#190,.T.);
#112=ORIENTED_EDGE('',*,*,#191,.T.);
#113=ORIENTED_EDGE('',*,*,#192,.T.);
#114=ORIENTED_EDGE('',*,*,#179,.T.);
#115=ORIENTED_EDGE('',*,*,#193,.F.);
#116=ORIENTED_EDGE('',*,*,#194,.F.);
#117=ORIENTED_EDGE('',*,*,#195,.T.);
#118=ORIENTED_EDGE('',*,*,#194,.T.);
#119=ORIENTED_EDGE('',*,*,#196,.T.);
#120=ORIENTED_EDGE('',*,*,#197,.F.);
#121=ORIENTED_EDGE('',*,*,#169,.F.);
#122=ORIENTED_EDGE('',*,*,#197,.T.);
#123=ORIENTED_EDGE('',*,*,#172,.T.);
#124=ORIENTED_EDGE('',*,*,#190,.F.);
#125=ORIENTED_EDGE('',*,*,#198,.T.);
#126=ORIENTED_EDGE('',*,*,#184,.T.);
#127=ORIENTED_EDGE('',*,*,#178,.T.);
#128=ORIENTED_EDGE('',*,*,#187,.F.);
#129=ORIENTED_EDGE('',*,*,#199,.T.);
#130=ORIENTED_EDGE('',*,*,#193,.T.);
#131=ORIENTED_EDGE('',*,*,#186,.F.);
#132=ORIENTED_EDGE('',*,*,#200,.F.);
#133=ORIENTED_EDGE('',*,*,#201,.F.);
#134=ORIENTED_EDGE('',*,*,#202,.F.);
#135=ORIENTED_EDGE('',*,*,#182,.F.);
#136=ORIENTED_EDGE('',*,*,#198,.F.);
#137=ORIENTED_EDGE('',*,*,#189,.F.);
#138=ORIENTED_EDGE('',*,*,#203,.F.);
#139=ORIENTED_EDGE('',*,*,#204,.F.);
#140=ORIENTED_EDGE('',*,*,#205,.F.);
#141=ORIENTED_EDGE('',*,*,#191,.F.);
#142=ORIENTED_EDGE('',*,*,#199,.F.);
#143=ORIENTED_EDGE('',*,*,#180,.T.);
#144=ORIENTED_EDGE('',*,*,#192,.F.);
#145=ORIENTED_EDGE('',*,*,#205,.T.);
#146=ORIENTED_EDGE('',*,*,#206,.T.);
#147=ORIENTED_EDGE('',*,*,#170,.T.);
#148=ORIENTED_EDGE('',*,*,#207,.F.);
#149=ORIENTED_EDGE('',*,*,#203,.T.);
#150=ORIENTED_EDGE('',*,*,#188,.F.);
#151=ORIENTED_EDGE('',*,*,#181,.T.);
#152=ORIENTED_EDGE('',*,*,#206,.F.);
#153=ORIENTED_EDGE('',*,*,#204,.T.);
#154=ORIENTED_EDGE('',*,*,#207,.T.);
#155=ORIENTED_EDGE('',*,*,#175,.T.);
#156=ORIENTED_EDGE('',*,*,#208,.F.);
#157=ORIENTED_EDGE('',*,*,#201,.T.);
#158=ORIENTED_EDGE('',*,*,#209,.T.);
#159=ORIENTED_EDGE('',*,*,#174,.T.);
#160=ORIENTED_EDGE('',*,*,#183,.F.);
#161=ORIENTED_EDGE('',*,*,#202,.T.);
#162=ORIENTED_EDGE('',*,*,#208,.T.);
#163=ORIENTED_EDGE('',*,*,#176,.T.);
#164=ORIENTED_EDGE('',*,*,#209,.F.);
#165=ORIENTED_EDGE('',*,*,#200,.T.);
#166=ORIENTED_EDGE('',*,*,#185,.F.);
#167=ORIENTED_EDGE('',*,*,#195,.F.);
#168=ORIENTED_EDGE('',*,*,#196,.F.);
#169=EDGE_CURVE('',#210,#210,#240,.T.);
#170=EDGE_CURVE('',#211,#212,#241,.T.);
#171=EDGE_CURVE('',#213,#211,#242,.T.);
#172=EDGE_CURVE('',#214,#213,#243,.T.);
#173=EDGE_CURVE('',#215,#214,#244,.T.);
#174=EDGE_CURVE('',#216,#215,#245,.T.);
#175=EDGE_CURVE('',#217,#216,#246,.T.);
#176=EDGE_CURVE('',#218,#217,#247,.T.);
#177=EDGE_CURVE('',#219,#218,#248,.T.);
#178=EDGE_CURVE('',#220,#219,#249,.T.);
#179=EDGE_CURVE('',#221,#220,#250,.T.);
#180=EDGE_CURVE('',#222,#221,#251,.T.);
#181=EDGE_CURVE('',#212,#222,#252,.T.);
#182=EDGE_CURVE('',#223,#224,#26,.T.);
#183=EDGE_CURVE('',#224,#215,#27,.T.);
#184=EDGE_CURVE('',#223,#214,#28,.T.);
#185=EDGE_CURVE('',#218,#225,#29,.T.);
#186=EDGE_CURVE('',#225,#226,#30,.T.);
#187=EDGE_CURVE('',#226,#219,#31,.T.);
#188=EDGE_CURVE('',#211,#227,#32,.T.);
#189=EDGE_CURVE('',#227,#228,#33,.T.);
#190=EDGE_CURVE('',#228,#213,#34,.T.);
#191=EDGE_CURVE('',#229,#230,#35,.T.);
#192=EDGE_CURVE('',#230,#221,#36,.T.);
#193=EDGE_CURVE('',#229,#220,#37,.T.);
#194=EDGE_CURVE('',#231,#231,#253,.T.);
#195=EDGE_CURVE('',#233,#233,#254,.F.);
#196=EDGE_CURVE('',#234,#234,#255,.T.);
#197=EDGE_CURVE('',#235,#235,#256,.T.);
#198=EDGE_CURVE('',#228,#223,#38,.T.);
#199=EDGE_CURVE('',#226,#229,#39,.T.);
#200=EDGE_CURVE('',#236,#225,#40,.T.);
#201=EDGE_CURVE('',#237,#236,#41,.T.);
#202=EDGE_CURVE('',#224,#237,#42,.T.);
#203=EDGE_CURVE('',#238,#227,#43,.T.);
#204=EDGE_CURVE('',#239,#238,#44,.T.);
#205=EDGE_CURVE('',#230,#239,#45,.T.);
#206=EDGE_CURVE('',#239,#222,#46,.T.);
#207=EDGE_CURVE('',#238,#212,#47,.T.);
#208=EDGE_CURVE('',#237,#216,#48,.T.);
#209=EDGE_CURVE('',#236,#217,#49,.T.);
#210=VERTEX_POINT('',#476);
#211=VERTEX_POINT('',#478);
#212=VERTEX_POINT('',#479);
#213=VERTEX_POINT('',#481);
#214=VERTEX_POINT('',#483);
#215=VERTEX_POINT('',#485);
#216=VERTEX_POINT('',#487);
#217=VERTEX_POINT('',#489);
#218=VERTEX_POINT('',#491);
#219=VERTEX_POINT('',#493);
#220=VERTEX_POINT('',#495);
#221=VERTEX_POINT('',#497);
#222=VERTEX_POINT('',#499);
#223=VERTEX_POINT('',#503);
#224=VERTEX_POINT('',#504);
#225=VERTEX_POINT('',#509);
#226=VERTEX_POINT('',#511);
#227=VERTEX_POINT('',#515);
#228=VERTEX_POINT('',#517);
#229=VERTEX_POINT('',#521);
#230=VERTEX_POINT('',#522);
#231=VERTEX_POINT('',#527);
#232=VERTEX_POINT('',#528);
#233=VERTEX_POINT('',#531);
#234=VERTEX_POINT('',#534);
#235=VERTEX_POINT('',#536);
#236=VERTEX_POINT('',#544);
#237=VERTEX_POINT('',#546);
#238=VERTEX_POINT('',#549);
#239=VERTEX_POINT('',#551);
#240=CIRCLE('',#340,2.75);
#241=CIRCLE('',#341,5.62276785714286);
#242=CIRCLE('',#342,5.62276785714286);
#243=CIRCLE('',#343,5.37644337599857);
#244=CIRCLE('',#344,5.62276785714286);
#245=CIRCLE('',#345,5.62276785714286);
#246=CIRCLE('',#346,5.37644337599857);
#247=CIRCLE('',#347,5.62276785714286);
#248=CIRCLE('',#348,5.62276785714286);
#249=CIRCLE('',#349,5.37644337599857);
#250=CIRCLE('',#350,5.62276785714286);
#251=CIRCLE('',#351,5.62276785714286);
#252=CIRCLE('',#352,5.37644337599857);
#253=CIRCLE('',#358,1.44999999999999);
#254=CIRCLE('',#360,1.44999999999999);
#255=CIRCLE('',#362,1.80147186257614);
#256=CIRCLE('',#363,2.75);
#257=EDGE_LOOP('',(#87));
#258=EDGE_LOOP('',(#88,#89,#90,#91,#92,#93,#94,#95,#96,#97,#98,#99));
#259=EDGE_LOOP('',(#100,#101,#102,#103));
#260=EDGE_LOOP('',(#104,#105,#106,#107));
#261=EDGE_LOOP('',(#108,#109,#110,#111));
#262=EDGE_LOOP('',(#112,#113,#114,#115));
#263=EDGE_LOOP('',(#116));
#264=EDGE_LOOP('',(#117));
#265=EDGE_LOOP('',(#118));
#266=EDGE_LOOP('',(#119));
#267=EDGE_LOOP('',(#120));
#268=EDGE_LOOP('',(#121));
#269=EDGE_LOOP('',(#122));
#270=EDGE_LOOP('',(#123,#124,#125,#126));
#271=EDGE_LOOP('',(#127,#128,#129,#130));
#272=EDGE_LOOP('',(#131,#132,#133,#134,#135,#136,#137,#138,#139,#140,#141,
#142));
#273=EDGE_LOOP('',(#143,#144,#145,#146));
#274=EDGE_LOOP('',(#147,#148,#149,#150));
#275=EDGE_LOOP('',(#151,#152,#153,#154));
#276=EDGE_LOOP('',(#155,#156,#157,#158));
#277=EDGE_LOOP('',(#159,#160,#161,#162));
#278=EDGE_LOOP('',(#163,#164,#165,#166));
#279=EDGE_LOOP('',(#167));
#280=EDGE_LOOP('',(#168));
#281=FACE_BOUND('',#257,.T.);
#282=FACE_BOUND('',#258,.T.);
#283=FACE_BOUND('',#259,.T.);
#284=FACE_BOUND('',#260,.T.);
#285=FACE_BOUND('',#261,.T.);
#286=FACE_BOUND('',#262,.T.);
#287=FACE_BOUND('',#263,.T.);
#288=FACE_BOUND('',#23,.T.);
#289=FACE_BOUND('',#264,.T.);
#290=FACE_BOUND('',#265,.T.);
#291=FACE_BOUND('',#266,.T.);
#292=FACE_BOUND('',#267,.T.);
#293=FACE_BOUND('',#268,.T.);
#294=FACE_BOUND('',#269,.T.);
#295=FACE_BOUND('',#270,.T.);
#296=FACE_BOUND('',#271,.T.);
#297=FACE_BOUND('',#272,.T.);
#298=FACE_BOUND('',#273,.T.);
#299=FACE_BOUND('',#274,.T.);
#300=FACE_BOUND('',#275,.T.);
#301=FACE_BOUND('',#276,.T.);
#302=FACE_BOUND('',#277,.T.);
#303=FACE_BOUND('',#278,.T.);
#304=FACE_BOUND('',#279,.T.);
#305=FACE_BOUND('',#280,.T.);
#306=SPHERICAL_SURFACE('',#339,5.63880691062559);
#307=ADVANCED_FACE('',(#281,#282),#306,.T.);
#308=ADVANCED_FACE('',(#283),#74,.T.);
#309=ADVANCED_FACE('',(#284),#75,.T.);
#310=ADVANCED_FACE('',(#285),#76,.T.);
#311=ADVANCED_FACE('',(#286),#77,.T.);
#312=ADVANCED_FACE('',(#287,#288),#24,.T.);
#313=ADVANCED_FACE('',(#289,#290),#21,.T.);
#314=ADVANCED_FACE('',(#291,#292),#25,.T.);
#315=ADVANCED_FACE('',(#293,#294),#22,.T.);
#316=ADVANCED_FACE('',(#295),#78,.T.);
#317=ADVANCED_FACE('',(#296),#79,.T.);
#318=ADVANCED_FACE('',(#297),#80,.F.);
#319=ADVANCED_FACE('',(#298),#81,.T.);
#320=ADVANCED_FACE('',(#299),#82,.T.);
#321=ADVANCED_FACE('',(#300),#83,.T.);
#322=ADVANCED_FACE('',(#301),#84,.T.);
#323=ADVANCED_FACE('',(#302),#85,.T.);
#324=ADVANCED_FACE('',(#303),#86,.T.);
#325=ADVANCED_FACE('',(#304,#305),#20,.F.);
#326=CLOSED_SHELL('',(#307,#308,#309,#310,#311,#312,#313,#314,#315,#316,
#317,#318,#319,#320,#321,#322,#323,#324,#325));
#327=STYLED_ITEM('',(#328),#335);
#328=PRESENTATION_STYLE_ASSIGNMENT((#329));
#329=SURFACE_STYLE_USAGE(.BOTH.,#330);
#330=SURFACE_SIDE_STYLE('',(#331));
#331=SURFACE_STYLE_FILL_AREA(#332);
#332=FILL_AREA_STYLE('',(#333));
#333=FILL_AREA_STYLE_COLOUR('',#334);
#334=COLOUR_RGB('',0.506983280181885,0.531564235687256,0.550000011920929);
#335=MANIFOLD_SOLID_BREP('',#326);
#336=SHAPE_DEFINITION_REPRESENTATION(#570,#337);
#337=SHAPE_REPRESENTATION(
'\X2\53415B5769FD534A6C89593481EA94BB81EA653B87BA9489\X0\ GBT15856.3-2
002',(#338),#565);
#338=AXIS2_PLACEMENT_3D('',#473,#375,#376);
#339=AXIS2_PLACEMENT_3D('',#474,#377,#378);
#340=AXIS2_PLACEMENT_3D('',#475,#379,#380);
#341=AXIS2_PLACEMENT_3D('',#477,#381,#382);
#342=AXIS2_PLACEMENT_3D('',#480,#383,#384);
#343=AXIS2_PLACEMENT_3D('',#482,#385,#386);
#344=AXIS2_PLACEMENT_3D('',#484,#387,#388);
#345=AXIS2_PLACEMENT_3D('',#486,#389,#390);
#346=AXIS2_PLACEMENT_3D('',#488,#391,#392);
#347=AXIS2_PLACEMENT_3D('',#490,#393,#394);
#348=AXIS2_PLACEMENT_3D('',#492,#395,#396);
#349=AXIS2_PLACEMENT_3D('',#494,#397,#398);
#350=AXIS2_PLACEMENT_3D('',#496,#399,#400);
#351=AXIS2_PLACEMENT_3D('',#498,#401,#402);
#352=AXIS2_PLACEMENT_3D('',#500,#403,#404);
#353=AXIS2_PLACEMENT_3D('',#501,#405,#406);
#354=AXIS2_PLACEMENT_3D('',#507,#410,#411);
#355=AXIS2_PLACEMENT_3D('',#513,#415,#416);
#356=AXIS2_PLACEMENT_3D('',#519,#420,#421);
#357=AXIS2_PLACEMENT_3D('',#525,#425,#426);
#358=AXIS2_PLACEMENT_3D('',#526,#427,#428);
#359=AXIS2_PLACEMENT_3D('',#529,#429,#430);
#360=AXIS2_PLACEMENT_3D('',#530,#431,#432);
#361=AXIS2_PLACEMENT_3D('',#532,#433,#434);
#362=AXIS2_PLACEMENT_3D('',#533,#435,#436);
#363=AXIS2_PLACEMENT_3D('',#535,#437,#438);
#364=AXIS2_PLACEMENT_3D('',#537,#439,#440);
#365=AXIS2_PLACEMENT_3D('',#538,#441,#442);
#366=AXIS2_PLACEMENT_3D('',#540,#444,#445);
#367=AXIS2_PLACEMENT_3D('',#542,#447,#448);
#368=AXIS2_PLACEMENT_3D('',#553,#455,#456);
#369=AXIS2_PLACEMENT_3D('',#555,#458,#459);
#370=AXIS2_PLACEMENT_3D('',#557,#461,#462);
#371=AXIS2_PLACEMENT_3D('',#558,#463,#464);
#372=AXIS2_PLACEMENT_3D('',#561,#467,#468);
#373=AXIS2_PLACEMENT_3D('',#562,#469,#470);
#374=AXIS2_PLACEMENT_3D('',#563,#471,#472);
#375=DIRECTION('',(0.,0.,1.));
#376=DIRECTION('',(1.,0.,0.));
#377=DIRECTION('',(-1.,0.,0.));
#378=DIRECTION('',(0.,0.,1.));
#379=DIRECTION('',(-1.,0.,0.));
#380=DIRECTION('',(0.,0.,1.));
#381=DIRECTION('',(0.,-1.,0.));
#382=DIRECTION('',(0.,0.,-1.));
#383=DIRECTION('',(0.,0.,1.));
#384=DIRECTION('',(1.,0.,0.));
#385=DIRECTION('',(0.,-1.,0.));
#386=DIRECTION('',(0.,0.,-1.));
#387=DIRECTION('',(0.,1.27553196763001E-16,-1.));
#388=DIRECTION('',(0.,1.,1.27553196763001E-16));
#389=DIRECTION('',(0.,-1.,0.));
#390=DIRECTION('',(0.,0.,-1.));
#391=DIRECTION('',(0.,0.,-1.));
#392=DIRECTION('',(-1.,0.,0.));
#393=DIRECTION('',(0.,1.,1.27553196763001E-16));
#394=DIRECTION('',(0.,-1.27553196763001E-16,1.));
#395=DIRECTION('',(0.,1.27553196763001E-16,-1.));
#396=DIRECTION('',(0.,1.,1.27553196763001E-16));
#397=DIRECTION('',(0.,1.,0.));
#398=DIRECTION('',(0.,0.,1.));
#399=DIRECTION('',(0.,0.,1.));
#400=DIRECTION('',(1.,0.,0.));
#401=DIRECTION('',(0.,1.,1.27553196763001E-16));
#402=DIRECTION('',(0.,-1.27553196763001E-16,1.));
#403=DIRECTION('',(0.,0.,1.));
#404=DIRECTION('',(1.,0.,0.));
#405=DIRECTION('',(0.,1.27553196763001E-16,-1.));
#406=DIRECTION('',(0.,1.,1.27553196763001E-16));
#407=DIRECTION('',(-6.12303176911189E-17,-1.,-1.27553196763001E-16));
#408=DIRECTION('',(-1.,0.,0.));
#409=DIRECTION('',(-1.,0.,0.));
#410=DIRECTION('',(0.,1.27553196763001E-16,-1.));
#411=DIRECTION('',(0.,1.,1.27553196763001E-16));
#412=DIRECTION('',(1.,0.,0.));
#413=DIRECTION('',(-6.12303176911189E-17,-1.,-1.27553196763001E-16));
#414=DIRECTION('',(-1.,0.,0.));
#415=DIRECTION('',(0.,0.,1.));
#416=DIRECTION('',(1.,0.,0.));
#417=DIRECTION('',(1.,0.,0.));
#418=DIRECTION('',(6.12303176911189E-17,1.,0.));
#419=DIRECTION('',(-1.,0.,0.));
#420=DIRECTION('',(0.,0.,1.));
#421=DIRECTION('',(1.,0.,0.));
#422=DIRECTION('',(6.12303176911189E-17,1.,0.));
#423=DIRECTION('',(-1.,0.,0.));
#424=DIRECTION('',(-1.,0.,0.));
#425=DIRECTION('',(-1.,0.,0.));
#426=DIRECTION('',(0.,0.,1.));
#427=DIRECTION('',(-1.,0.,0.));
#428=DIRECTION('',(0.,0.,1.));
#429=DIRECTION('',(-1.,0.,0.));
#430=DIRECTION('',(0.,0.,1.));
#431=DIRECTION('',(-1.,0.,0.));
#432=DIRECTION('',(0.,0.,1.));
#433=DIRECTION('',(-1.,0.,0.));
#434=DIRECTION('',(0.,0.,1.));
#435=DIRECTION('',(-1.,0.,0.));
#436=DIRECTION('',(0.,0.,1.));
#437=DIRECTION('',(-1.,0.,0.));
#438=DIRECTION('',(0.,0.,1.));
#439=DIRECTION('',(-1.,0.,0.));
#440=DIRECTION('',(0.,0.,1.));
#441=DIRECTION('',(0.,-1.,0.));
#442=DIRECTION('',(0.,0.,-1.));
#443=DIRECTION('',(0.,0.,1.));
#444=DIRECTION('',(0.,1.,0.));
#445=DIRECTION('',(0.,0.,1.));
#446=DIRECTION('',(0.,0.,-1.));
#447=DIRECTION('',(1.,-6.12303176911189E-17,0.));
#448=DIRECTION('',(6.12303176911189E-17,1.,0.));
#449=DIRECTION('',(7.81012276031632E-33,1.27553196763001E-16,-1.));
#450=DIRECTION('',(-6.12303176911189E-17,-1.,0.));
#451=DIRECTION('',(0.,0.,1.));
#452=DIRECTION('',(0.,0.,1.));
#453=DIRECTION('',(6.12303176911189E-17,1.,0.));
#454=DIRECTION('',(7.81012276031632E-33,1.27553196763001E-16,-1.));
#455=DIRECTION('',(0.,1.,1.27553196763001E-16));
#456=DIRECTION('',(0.,-1.27553196763001E-16,1.));
#457=DIRECTION('',(-1.,0.,0.));
#458=DIRECTION('',(0.,-1.,0.));
#459=DIRECTION('',(0.,0.,-1.));
#460=DIRECTION('',(-1.,0.,0.));
#461=DIRECTION('',(0.,0.,1.));
#462=DIRECTION('',(1.,0.,0.));
#463=DIRECTION('',(0.,0.,-1.));
#464=DIRECTION('',(-1.,0.,0.));
#465=DIRECTION('',(-1.,0.,0.));
#466=DIRECTION('',(-1.,0.,0.));
#467=DIRECTION('',(0.,-1.,0.));
#468=DIRECTION('',(0.,0.,-1.));
#469=DIRECTION('',(0.,1.,1.27553196763001E-16));
#470=DIRECTION('',(0.,-1.27553196763001E-16,1.));
#471=DIRECTION('',(-1.,0.,0.));
#472=DIRECTION('',(0.,0.,1.));
#473=CARTESIAN_POINT('',(0.,0.,0.));
#474=CARTESIAN_POINT('',(4.92276785714286,0.,0.));
#475=CARTESIAN_POINT('',(0.,0.,0.));
#476=CARTESIAN_POINT('',(0.,0.,2.75));
#477=CARTESIAN_POINT('',(4.92276785714286,0.425,0.));
#478=CARTESIAN_POINT('',(-0.683915063739941,0.425,-0.425));
#479=CARTESIAN_POINT('',(-0.436851380761909,0.425,-1.7));
#480=CARTESIAN_POINT('',(4.92276785714286,0.,-0.425));
#481=CARTESIAN_POINT('',(-0.436851380761909,1.7,-0.425));
#482=CARTESIAN_POINT('',(4.92276785714286,1.7,0.));
#483=CARTESIAN_POINT('',(-0.436851380761909,1.7,0.425));
#484=CARTESIAN_POINT('',(4.92276785714286,-5.42101086242752E-17,0.425));
#485=CARTESIAN_POINT('',(-0.683915063739941,0.425,0.425));
#486=CARTESIAN_POINT('',(4.92276785714286,0.425,0.));
#487=CARTESIAN_POINT('',(-0.436851380761909,0.425,1.7));
#488=CARTESIAN_POINT('',(4.92276785714286,0.,1.7));
#489=CARTESIAN_POINT('',(-0.43685138076191,-0.425,1.7));
#490=CARTESIAN_POINT('',(4.92276785714286,-0.425,-5.42101086242752E-17));
#491=CARTESIAN_POINT('',(-0.683915063739941,-0.425,0.425));
#492=CARTESIAN_POINT('',(4.92276785714286,-5.42101086242752E-17,0.425));
#493=CARTESIAN_POINT('',(-0.436851380761909,-1.7,0.425));
#494=CARTESIAN_POINT('',(4.92276785714286,-1.7,0.));
#495=CARTESIAN_POINT('',(-0.43685138076191,-1.7,-0.425));
#496=CARTESIAN_POINT('',(4.92276785714286,0.,-0.425));
#497=CARTESIAN_POINT('',(-0.683915063739941,-0.425,-0.425));
#498=CARTESIAN_POINT('',(4.92276785714286,-0.425,-5.42101086242752E-17));
#499=CARTESIAN_POINT('',(-0.436851380761909,-0.425,-1.7));
#500=CARTESIAN_POINT('',(4.92276785714286,0.,-1.7));
#501=CARTESIAN_POINT('',(1.1,1.7,0.425));
#502=CARTESIAN_POINT('',(1.1,1.7,0.425));
#503=CARTESIAN_POINT('',(1.1,1.7,0.425));
#504=CARTESIAN_POINT('',(1.1,0.425,0.425));
#505=CARTESIAN_POINT('',(1.1,0.425,0.425));
#506=CARTESIAN_POINT('',(1.1,1.7,0.425));
#507=CARTESIAN_POINT('',(1.1,1.7,0.425));
#508=CARTESIAN_POINT('',(1.1,-0.425,0.425));
#509=CARTESIAN_POINT('',(1.1,-0.425,0.425));
#510=CARTESIAN_POINT('',(1.1,1.7,0.425));
#511=CARTESIAN_POINT('',(1.1,-1.7,0.425));
#512=CARTESIAN_POINT('',(1.1,-1.7,0.425));
#513=CARTESIAN_POINT('',(1.1,-1.7,-0.425));
#514=CARTESIAN_POINT('',(1.1,0.425,-0.425));
#515=CARTESIAN_POINT('',(1.1,0.425,-0.425));
#516=CARTESIAN_POINT('',(1.1,-1.7,-0.425));
#517=CARTESIAN_POINT('',(1.1,1.7,-0.425));
#518=CARTESIAN_POINT('',(1.1,1.7,-0.425));
#519=CARTESIAN_POINT('',(1.1,-1.7,-0.425));
#520=CARTESIAN_POINT('',(1.1,-1.7,-0.425));
#521=CARTESIAN_POINT('',(1.1,-1.7,-0.425));
#522=CARTESIAN_POINT('',(1.1,-0.425,-0.425));
#523=CARTESIAN_POINT('',(1.1,-0.425,-0.425));
#524=CARTESIAN_POINT('',(1.1,-1.7,-0.425));
#525=CARTESIAN_POINT('',(16.,0.,0.));
#526=CARTESIAN_POINT('',(14.55,0.,0.));
#527=CARTESIAN_POINT('',(14.55,0.,1.44999999999999));
#528=CARTESIAN_POINT('',(16.,0.,0.));
#529=CARTESIAN_POINT('',(0.,0.,0.));
#530=CARTESIAN_POINT('',(2.19705627484771,0.,0.));
#531=CARTESIAN_POINT('',(2.19705627484771,0.,1.44999999999999));
#532=CARTESIAN_POINT('',(1.69999999999999,0.,0.));
#533=CARTESIAN_POINT('',(1.34852813742385,0.,0.));
#534=CARTESIAN_POINT('',(1.34852813742385,0.,1.80147186257614));
#535=CARTESIAN_POINT('',(0.399999999999986,0.,0.));
#536=CARTESIAN_POINT('',(0.399999999999986,0.,2.75));
#537=CARTESIAN_POINT('',(0.,0.,0.));
#538=CARTESIAN_POINT('',(1.1,1.7,-0.425));
#539=CARTESIAN_POINT('',(1.1,1.7,-0.425));
#540=CARTESIAN_POINT('',(1.1,-1.7,0.425));
#541=CARTESIAN_POINT('',(1.1,-1.7,0.425));
#542=CARTESIAN_POINT('',(1.1,4.28612223837832E-17,0.));
#543=CARTESIAN_POINT('',(1.1,-0.425,1.7));
#544=CARTESIAN_POINT('',(1.1,-0.425,1.7));
#545=CARTESIAN_POINT('',(1.1,0.425,1.7));
#546=CARTESIAN_POINT('',(1.1,0.425,1.7));
#547=CARTESIAN_POINT('',(1.1,0.425,-1.7));
#548=CARTESIAN_POINT('',(1.1,0.425,-1.7));
#549=CARTESIAN_POINT('',(1.1,0.425,-1.7));
#550=CARTESIAN_POINT('',(1.1,-0.425,-1.7));
#551=CARTESIAN_POINT('',(1.1,-0.425,-1.7));
#552=CARTESIAN_POINT('',(1.1,-0.425,1.7));
#553=CARTESIAN_POINT('',(1.1,-0.425,1.7));
#554=CARTESIAN_POINT('',(1.1,-0.425,-1.7));
#555=CARTESIAN_POINT('',(1.1,0.425,-1.7));
#556=CARTESIAN_POINT('',(1.1,0.425,-1.7));
#557=CARTESIAN_POINT('',(1.1,-0.425,-1.7));
#558=CARTESIAN_POINT('',(1.1,0.425,1.7));
#559=CARTESIAN_POINT('',(1.1,0.425,1.7));
#560=CARTESIAN_POINT('',(1.1,-0.425,1.7));
#561=CARTESIAN_POINT('',(1.1,0.425,-1.7));
#562=CARTESIAN_POINT('',(1.1,-0.425,1.7));
#563=CARTESIAN_POINT('',(2.19705627484771,0.,0.));
#564=MECHANICAL_DESIGN_GEOMETRIC_PRESENTATION_REPRESENTATION('',(#327),
#565);
#565=(
GEOMETRIC_REPRESENTATION_CONTEXT(3)
GLOBAL_UNCERTAINTY_ASSIGNED_CONTEXT((#566))
GLOBAL_UNIT_ASSIGNED_CONTEXT((#569,#568,#567))
REPRESENTATION_CONTEXT(
'\X2\53415B5769FD534A6C89593481EA94BB81EA653B87BA9489\X0\ GBT15856.3-2
002','TOP_LEVEL_ASSEMBLY_PART')
);
#566=UNCERTAINTY_MEASURE_WITH_UNIT(LENGTH_MEASURE(0.005),#569,
'DISTANCE_ACCURACY_VALUE','Maximum Tolerance applied to model');
#567=(
NAMED_UNIT(*)
SI_UNIT($,.STERADIAN.)
SOLID_ANGLE_UNIT()
);
#568=(
NAMED_UNIT(*)
PLANE_ANGLE_UNIT()
SI_UNIT($,.RADIAN.)
);
#569=(
LENGTH_UNIT()
NAMED_UNIT(*)
SI_UNIT(.MILLI.,.METRE.)
);
#570=PRODUCT_DEFINITION_SHAPE('','',#571);
#571=PRODUCT_DEFINITION('','',#573,#572);
#572=PRODUCT_DEFINITION_CONTEXT('',#579,'design');
#573=PRODUCT_DEFINITION_FORMATION_WITH_SPECIFIED_SOURCE('','',#575,
 .NOT_KNOWN.);
#574=PRODUCT_RELATED_PRODUCT_CATEGORY('','',(#575));
#575=PRODUCT('\X2\53415B5769FD534A6C89593481EA94BB81EA653B87BA9489\X0\ 
GBT15856.3-2002','\X2\53415B5769FD534A6C89593481EA94BB81EA653B87BA9489\X0\ 
GBT15856.3-2002','\X2\53415B5769FD534A6C89593481EA94BB81EA653B87BA9489\X0\ 
GBT15856.3-2002',(#577));
#576=PRODUCT_CATEGORY('','');
#577=PRODUCT_CONTEXT('',#579,'mechanical');
#578=APPLICATION_PROTOCOL_DEFINITION('international standard',
'automotive_design',2010,#579);
#579=APPLICATION_CONTEXT(
'core data for automotive mechanical design processes');
ENDSEC;
END-ISO-10303-21;
