ISO-10303-21;
HEADER;
/* Generated by software containing HOOPS Exchange Step
 * from HOOPS Exchange, Inc. (www.tiangong.cloud) 
 */

FILE_DESCRIPTION(
/* description */ ('Unknown'),
/* implementation_level */ '2;1');

FILE_NAME(
/* name */ ' GBT878-2007',
/* time_stamp */ '2025-12-31T14:43:57+08:00',
/* author */ ('Unknown'),
/* organization */ ('Unknown'),
/* preprocessor_version */ 'ST-DEVELOPER v19.4',
/* originating_system */ 'TianGong',
/* authorisation */ 'Unknown');

FILE_SCHEMA (('AUTOMOTIVE_DESIGN {1 0 10303 214 3 1 1}'));
ENDSEC;

DATA;
#10=PROPERTY_DEFINITION_REPRESENTATION(#14,#12);
#11=PROPERTY_DEFINITION_REPRESENTATION(#15,#13);
#12=REPRESENTATION('',(#16),#392);
#13=REPRESENTATION('',(#17),#392);
#14=PROPERTY_DEFINITION('pmi validation property','',#397);
#15=PROPERTY_DEFINITION('pmi validation property','',#397);
#16=VALUE_REPRESENTATION_ITEM('number of annotations',COUNT_MEASURE(0.));
#17=VALUE_REPRESENTATION_ITEM('number of views',COUNT_MEASURE(0.));
#18=SHAPE_REPRESENTATION_RELATIONSHIP('','',#259,#19);
#19=ADVANCED_BREP_SHAPE_REPRESENTATION('',(#257),#392);
#20=CONICAL_SURFACE('',#278,0.504,0.785398163397449);
#21=CONICAL_SURFACE('',#279,0.504,0.785398163397449);
#22=CONICAL_SURFACE('',#280,0.6,0.785398163397448);
#23=B_SPLINE_CURVE_WITH_KNOTS('',3,(#368,#369,#370,#371),.UNSPECIFIED.,
 .F.,.F.,(4,4),(7.66511782445745E-20,0.000137602165027358),
 .UNSPECIFIED.);
#24=B_SPLINE_CURVE_WITH_KNOTS('',3,(#373,#374,#375,#376),.UNSPECIFIED.,
 .F.,.F.,(4,4),(0.,0.000137602165027358),.UNSPECIFIED.);
#25=B_SPLINE_CURVE_WITH_KNOTS('',3,(#378,#379,#380,#381),.UNSPECIFIED.,
 .F.,.F.,(4,4),(7.66511782445745E-20,0.000137602165027358),
 .UNSPECIFIED.);
#26=B_SPLINE_CURVE_WITH_KNOTS('',3,(#383,#384,#385,#386),.UNSPECIFIED.,
 .F.,.F.,(4,4),(0.,0.000137602165027358),.UNSPECIFIED.);
#27=LINE('',#338,#35);
#28=LINE('',#343,#36);
#29=LINE('',#348,#37);
#30=LINE('',#353,#38);
#31=LINE('',#357,#39);
#32=LINE('',#361,#40);
#33=LINE('',#372,#41);
#34=LINE('',#382,#42);
#35=VECTOR('',#291,1000.);
#36=VECTOR('',#296,1000.);
#37=VECTOR('',#301,1000.);
#38=VECTOR('',#304,1000.);
#39=VECTOR('',#307,1000.);
#40=VECTOR('',#310,1000.);
#41=VECTOR('',#319,1000.);
#42=VECTOR('',#322,1000.);
#43=PLANE('',#264);
#44=PLANE('',#266);
#45=PLANE('',#273);
#46=PLANE('',#275);
#47=PLANE('',#276);
#48=PLANE('',#277);
#49=ORIENTED_EDGE('',*,*,#91,.T.);
#50=ORIENTED_EDGE('',*,*,#92,.T.);
#51=ORIENTED_EDGE('',*,*,#93,.F.);
#52=ORIENTED_EDGE('',*,*,#94,.T.);
#53=ORIENTED_EDGE('',*,*,#95,.F.);
#54=ORIENTED_EDGE('',*,*,#96,.T.);
#55=ORIENTED_EDGE('',*,*,#92,.F.);
#56=ORIENTED_EDGE('',*,*,#97,.F.);
#57=ORIENTED_EDGE('',*,*,#98,.T.);
#58=ORIENTED_EDGE('',*,*,#99,.F.);
#59=ORIENTED_EDGE('',*,*,#100,.T.);
#60=ORIENTED_EDGE('',*,*,#101,.F.);
#61=ORIENTED_EDGE('',*,*,#102,.T.);
#62=ORIENTED_EDGE('',*,*,#103,.F.);
#63=ORIENTED_EDGE('',*,*,#104,.T.);
#64=ORIENTED_EDGE('',*,*,#105,.T.);
#65=ORIENTED_EDGE('',*,*,#93,.T.);
#66=ORIENTED_EDGE('',*,*,#106,.T.);
#67=ORIENTED_EDGE('',*,*,#101,.T.);
#68=ORIENTED_EDGE('',*,*,#107,.F.);
#69=ORIENTED_EDGE('',*,*,#103,.T.);
#70=ORIENTED_EDGE('',*,*,#108,.T.);
#71=ORIENTED_EDGE('',*,*,#95,.T.);
#72=ORIENTED_EDGE('',*,*,#109,.T.);
#73=ORIENTED_EDGE('',*,*,#97,.T.);
#74=ORIENTED_EDGE('',*,*,#110,.F.);
#75=ORIENTED_EDGE('',*,*,#99,.T.);
#76=ORIENTED_EDGE('',*,*,#111,.T.);
#77=ORIENTED_EDGE('',*,*,#107,.T.);
#78=ORIENTED_EDGE('',*,*,#100,.F.);
#79=ORIENTED_EDGE('',*,*,#110,.T.);
#80=ORIENTED_EDGE('',*,*,#104,.F.);
#81=ORIENTED_EDGE('',*,*,#111,.F.);
#82=ORIENTED_EDGE('',*,*,#98,.F.);
#83=ORIENTED_EDGE('',*,*,#109,.F.);
#84=ORIENTED_EDGE('',*,*,#96,.F.);
#85=ORIENTED_EDGE('',*,*,#108,.F.);
#86=ORIENTED_EDGE('',*,*,#102,.F.);
#87=ORIENTED_EDGE('',*,*,#106,.F.);
#88=ORIENTED_EDGE('',*,*,#94,.F.);
#89=ORIENTED_EDGE('',*,*,#105,.F.);
#90=ORIENTED_EDGE('',*,*,#91,.F.);
#91=EDGE_CURVE('',#112,#112,#127,.F.);
#92=EDGE_CURVE('',#113,#113,#128,.T.);
#93=EDGE_CURVE('',#114,#115,#27,.T.);
#94=EDGE_CURVE('',#114,#115,#129,.T.);
#95=EDGE_CURVE('',#116,#117,#28,.T.);
#96=EDGE_CURVE('',#116,#117,#130,.T.);
#97=EDGE_CURVE('',#118,#119,#29,.F.);
#98=EDGE_CURVE('',#118,#120,#131,.F.);
#99=EDGE_CURVE('',#121,#120,#30,.T.);
#100=EDGE_CURVE('',#121,#122,#132,.F.);
#101=EDGE_CURVE('',#123,#122,#31,.F.);
#102=EDGE_CURVE('',#123,#124,#133,.F.);
#103=EDGE_CURVE('',#125,#124,#32,.T.);
#104=EDGE_CURVE('',#125,#119,#134,.F.);
#105=EDGE_CURVE('',#126,#126,#135,.T.);
#106=EDGE_CURVE('',#115,#123,#23,.T.);
#107=EDGE_CURVE('',#125,#122,#33,.T.);
#108=EDGE_CURVE('',#124,#114,#24,.T.);
#109=EDGE_CURVE('',#117,#118,#25,.T.);
#110=EDGE_CURVE('',#121,#119,#34,.T.);
#111=EDGE_CURVE('',#120,#116,#26,.T.);
#112=VERTEX_POINT('',#334);
#113=VERTEX_POINT('',#336);
#114=VERTEX_POINT('',#339);
#115=VERTEX_POINT('',#340);
#116=VERTEX_POINT('',#344);
#117=VERTEX_POINT('',#345);
#118=VERTEX_POINT('',#349);
#119=VERTEX_POINT('',#350);
#120=VERTEX_POINT('',#352);
#121=VERTEX_POINT('',#354);
#122=VERTEX_POINT('',#356);
#123=VERTEX_POINT('',#358);
#124=VERTEX_POINT('',#360);
#125=VERTEX_POINT('',#362);
#126=VERTEX_POINT('',#366);
#127=CIRCLE('',#262,0.6);
#128=CIRCLE('',#263,0.6);
#129=CIRCLE('',#265,0.504);
#130=CIRCLE('',#267,0.504);
#131=CIRCLE('',#269,0.6);
#132=CIRCLE('',#270,0.6);
#133=CIRCLE('',#271,0.6);
#134=CIRCLE('',#272,0.6);
#135=CIRCLE('',#274,0.504);
#136=EDGE_LOOP('',(#49));
#137=EDGE_LOOP('',(#50));
#138=EDGE_LOOP('',(#51,#52));
#139=EDGE_LOOP('',(#53,#54));
#140=EDGE_LOOP('',(#55));
#141=EDGE_LOOP('',(#56,#57,#58,#59,#60,#61,#62,#63));
#142=EDGE_LOOP('',(#64));
#143=EDGE_LOOP('',(#65,#66,#67,#68,#69,#70));
#144=EDGE_LOOP('',(#71,#72,#73,#74,#75,#76));
#145=EDGE_LOOP('',(#77,#78,#79,#80));
#146=EDGE_LOOP('',(#81,#82,#83,#84));
#147=EDGE_LOOP('',(#85,#86,#87,#88));
#148=EDGE_LOOP('',(#89));
#149=EDGE_LOOP('',(#90));
#150=FACE_BOUND('',#136,.T.);
#151=FACE_BOUND('',#137,.T.);
#152=FACE_BOUND('',#138,.T.);
#153=FACE_BOUND('',#139,.T.);
#154=FACE_BOUND('',#140,.T.);
#155=FACE_BOUND('',#141,.T.);
#156=FACE_BOUND('',#142,.T.);
#157=FACE_BOUND('',#143,.T.);
#158=FACE_BOUND('',#144,.T.);
#159=FACE_BOUND('',#145,.T.);
#160=FACE_BOUND('',#146,.T.);
#161=FACE_BOUND('',#147,.T.);
#162=FACE_BOUND('',#148,.T.);
#163=FACE_BOUND('',#149,.T.);
#164=CYLINDRICAL_SURFACE('',#261,0.6);
#165=CYLINDRICAL_SURFACE('',#268,0.6);
#166=STYLED_ITEM('',(#177),#245);
#167=STYLED_ITEM('',(#178),#246);
#168=STYLED_ITEM('',(#179),#247);
#169=STYLED_ITEM('',(#180),#248);
#170=STYLED_ITEM('',(#181),#249);
#171=STYLED_ITEM('',(#182),#250);
#172=STYLED_ITEM('',(#183),#251);
#173=STYLED_ITEM('',(#184),#252);
#174=STYLED_ITEM('',(#185),#253);
#175=STYLED_ITEM('',(#186),#254);
#176=STYLED_ITEM('',(#187),#255);
#177=PRESENTATION_STYLE_ASSIGNMENT((#188));
#178=PRESENTATION_STYLE_ASSIGNMENT((#189));
#179=PRESENTATION_STYLE_ASSIGNMENT((#190));
#180=PRESENTATION_STYLE_ASSIGNMENT((#191));
#181=PRESENTATION_STYLE_ASSIGNMENT((#192));
#182=PRESENTATION_STYLE_ASSIGNMENT((#193));
#183=PRESENTATION_STYLE_ASSIGNMENT((#194));
#184=PRESENTATION_STYLE_ASSIGNMENT((#195));
#185=PRESENTATION_STYLE_ASSIGNMENT((#196));
#186=PRESENTATION_STYLE_ASSIGNMENT((#197));
#187=PRESENTATION_STYLE_ASSIGNMENT((#198));
#188=SURFACE_STYLE_USAGE(.BOTH.,#199);
#189=SURFACE_STYLE_USAGE(.BOTH.,#200);
#190=SURFACE_STYLE_USAGE(.BOTH.,#201);
#191=SURFACE_STYLE_USAGE(.BOTH.,#202);
#192=SURFACE_STYLE_USAGE(.BOTH.,#203);
#193=SURFACE_STYLE_USAGE(.BOTH.,#204);
#194=SURFACE_STYLE_USAGE(.BOTH.,#205);
#195=SURFACE_STYLE_USAGE(.BOTH.,#206);
#196=SURFACE_STYLE_USAGE(.BOTH.,#207);
#197=SURFACE_STYLE_USAGE(.BOTH.,#208);
#198=SURFACE_STYLE_USAGE(.BOTH.,#209);
#199=SURFACE_SIDE_STYLE('',(#210));
#200=SURFACE_SIDE_STYLE('',(#211));
#201=SURFACE_SIDE_STYLE('',(#212));
#202=SURFACE_SIDE_STYLE('',(#213));
#203=SURFACE_SIDE_STYLE('',(#214));
#204=SURFACE_SIDE_STYLE('',(#215));
#205=SURFACE_SIDE_STYLE('',(#216));
#206=SURFACE_SIDE_STYLE('',(#217));
#207=SURFACE_SIDE_STYLE('',(#218));
#208=SURFACE_SIDE_STYLE('',(#219));
#209=SURFACE_SIDE_STYLE('',(#220));
#210=SURFACE_STYLE_FILL_AREA(#221);
#211=SURFACE_STYLE_FILL_AREA(#222);
#212=SURFACE_STYLE_FILL_AREA(#223);
#213=SURFACE_STYLE_FILL_AREA(#224);
#214=SURFACE_STYLE_FILL_AREA(#225);
#215=SURFACE_STYLE_FILL_AREA(#226);
#216=SURFACE_STYLE_FILL_AREA(#227);
#217=SURFACE_STYLE_FILL_AREA(#228);
#218=SURFACE_STYLE_FILL_AREA(#229);
#219=SURFACE_STYLE_FILL_AREA(#230);
#220=SURFACE_STYLE_FILL_AREA(#231);
#221=FILL_AREA_STYLE('',(#232));
#222=FILL_AREA_STYLE('',(#233));
#223=FILL_AREA_STYLE('',(#234));
#224=FILL_AREA_STYLE('',(#235));
#225=FILL_AREA_STYLE('',(#236));
#226=FILL_AREA_STYLE('',(#237));
#227=FILL_AREA_STYLE('',(#238));
#228=FILL_AREA_STYLE('',(#239));
#229=FILL_AREA_STYLE('',(#240));
#230=FILL_AREA_STYLE('',(#241));
#231=FILL_AREA_STYLE('',(#242));
#232=FILL_AREA_STYLE_COLOUR('',#243);
#233=FILL_AREA_STYLE_COLOUR('',#244);
#234=FILL_AREA_STYLE_COLOUR('',#244);
#235=FILL_AREA_STYLE_COLOUR('',#244);
#236=FILL_AREA_STYLE_COLOUR('',#244);
#237=FILL_AREA_STYLE_COLOUR('',#244);
#238=FILL_AREA_STYLE_COLOUR('',#244);
#239=FILL_AREA_STYLE_COLOUR('',#244);
#240=FILL_AREA_STYLE_COLOUR('',#244);
#241=FILL_AREA_STYLE_COLOUR('',#244);
#242=FILL_AREA_STYLE_COLOUR('',#244);
#243=COLOUR_RGB('',0.1875,0.75,0.581249892711639);
#244=COLOUR_RGB('',0.506983280181885,0.531564235687256,0.550000011920929);
#245=ADVANCED_FACE('',(#150,#151),#164,.T.);
#246=ADVANCED_FACE('',(#152),#43,.T.);
#247=ADVANCED_FACE('',(#153),#44,.T.);
#248=ADVANCED_FACE('',(#154,#155),#165,.T.);
#249=ADVANCED_FACE('',(#156),#45,.T.);
#250=ADVANCED_FACE('',(#157),#46,.F.);
#251=ADVANCED_FACE('',(#158),#47,.F.);
#252=ADVANCED_FACE('',(#159),#48,.T.);
#253=ADVANCED_FACE('',(#160),#20,.T.);
#254=ADVANCED_FACE('',(#161),#21,.T.);
#255=ADVANCED_FACE('',(#162,#163),#22,.T.);
#256=CLOSED_SHELL('',(#245,#246,#247,#248,#249,#250,#251,#252,#253,#254,
#255));
#257=MANIFOLD_SOLID_BREP('',#256);
#258=SHAPE_DEFINITION_REPRESENTATION(#397,#259);
#259=SHAPE_REPRESENTATION(' GBT878-2007',(#260),#392);
#260=AXIS2_PLACEMENT_3D('',#331,#281,#282);
#261=AXIS2_PLACEMENT_3D('',#332,#283,#284);
#262=AXIS2_PLACEMENT_3D('',#333,#285,#286);
#263=AXIS2_PLACEMENT_3D('',#335,#287,#288);
#264=AXIS2_PLACEMENT_3D('',#337,#289,#290);
#265=AXIS2_PLACEMENT_3D('',#341,#292,#293);
#266=AXIS2_PLACEMENT_3D('',#342,#294,#295);
#267=AXIS2_PLACEMENT_3D('',#346,#297,#298);
#268=AXIS2_PLACEMENT_3D('',#347,#299,#300);
#269=AXIS2_PLACEMENT_3D('',#351,#302,#303);
#270=AXIS2_PLACEMENT_3D('',#355,#305,#306);
#271=AXIS2_PLACEMENT_3D('',#359,#308,#309);
#272=AXIS2_PLACEMENT_3D('',#363,#311,#312);
#273=AXIS2_PLACEMENT_3D('',#364,#313,#314);
#274=AXIS2_PLACEMENT_3D('',#365,#315,#316);
#275=AXIS2_PLACEMENT_3D('',#367,#317,#318);
#276=AXIS2_PLACEMENT_3D('',#377,#320,#321);
#277=AXIS2_PLACEMENT_3D('',#387,#323,#324);
#278=AXIS2_PLACEMENT_3D('',#388,#325,#326);
#279=AXIS2_PLACEMENT_3D('',#389,#327,#328);
#280=AXIS2_PLACEMENT_3D('',#390,#329,#330);
#281=DIRECTION('',(0.,0.,1.));
#282=DIRECTION('',(1.,0.,0.));
#283=DIRECTION('',(-1.,0.,0.));
#284=DIRECTION('',(0.,0.,1.));
#285=DIRECTION('',(1.,0.,0.));
#286=DIRECTION('',(0.,0.,-1.));
#287=DIRECTION('',(1.,0.,0.));
#288=DIRECTION('',(0.,0.,1.));
#289=DIRECTION('',(-1.,0.,0.));
#290=DIRECTION('',(0.,0.,1.));
#291=DIRECTION('',(0.,1.,-1.35525271560688E-16));
#292=DIRECTION('',(-1.,0.,0.));
#293=DIRECTION('',(0.,0.,1.));
#294=DIRECTION('',(-1.,0.,0.));
#295=DIRECTION('',(0.,0.,1.));
#296=DIRECTION('',(0.,-1.,0.));
#297=DIRECTION('',(-1.,0.,0.));
#298=DIRECTION('',(0.,0.,1.));
#299=DIRECTION('',(-1.,0.,0.));
#300=DIRECTION('',(0.,0.,1.));
#301=DIRECTION('',(-1.,0.,0.));
#302=DIRECTION('',(-1.,0.,0.));
#303=DIRECTION('',(0.,0.,1.));
#304=DIRECTION('',(-1.,0.,0.));
#305=DIRECTION('',(-1.,0.,0.));
#306=DIRECTION('',(0.,0.,1.));
#307=DIRECTION('',(-1.,0.,0.));
#308=DIRECTION('',(-1.,0.,0.));
#309=DIRECTION('',(0.,0.,1.));
#310=DIRECTION('',(-1.,0.,0.));
#311=DIRECTION('',(-1.,0.,0.));
#312=DIRECTION('',(0.,0.,1.));
#313=DIRECTION('',(1.,0.,0.));
#314=DIRECTION('',(0.,0.,-1.));
#315=DIRECTION('',(1.,0.,0.));
#316=DIRECTION('',(0.,0.,-1.));
#317=DIRECTION('',(0.,1.35525271560688E-16,1.));
#318=DIRECTION('',(0.,-1.,1.35525271560688E-16));
#319=DIRECTION('',(0.,1.,-1.35525271560688E-16));
#320=DIRECTION('',(0.,0.,-1.));
#321=DIRECTION('',(-1.,0.,0.));
#322=DIRECTION('',(0.,-1.,0.));
#323=DIRECTION('',(-1.,0.,0.));
#324=DIRECTION('',(0.,0.,1.));
#325=DIRECTION('',(1.,0.,0.));
#326=DIRECTION('',(0.,0.,-1.));
#327=DIRECTION('',(1.,0.,0.));
#328=DIRECTION('',(0.,0.,-1.));
#329=DIRECTION('',(-1.,0.,0.));
#330=DIRECTION('',(0.,0.,1.));
#331=CARTESIAN_POINT('',(0.,0.,0.));
#332=CARTESIAN_POINT('',(0.,0.,0.));
#333=CARTESIAN_POINT('',(3.904,0.,0.));
#334=CARTESIAN_POINT('',(3.904,0.,-0.6));
#335=CARTESIAN_POINT('',(2.6,0.,0.));
#336=CARTESIAN_POINT('',(2.6,0.,0.6));
#337=CARTESIAN_POINT('',(0.,0.,0.));
#338=CARTESIAN_POINT('',(0.,-0.6,0.125));
#339=CARTESIAN_POINT('',(0.,-0.488253008183257,0.125));
#340=CARTESIAN_POINT('',(0.,0.488253008183257,0.125));
#341=CARTESIAN_POINT('',(0.,0.,0.));
#342=CARTESIAN_POINT('',(0.,0.,0.));
#343=CARTESIAN_POINT('',(0.,0.6,-0.125));
#344=CARTESIAN_POINT('',(0.,0.488253008183257,-0.125));
#345=CARTESIAN_POINT('',(0.,-0.488253008183257,-0.125));
#346=CARTESIAN_POINT('',(0.,0.,0.));
#347=CARTESIAN_POINT('',(0.,0.,0.));
#348=CARTESIAN_POINT('',(0.,-0.586834729715275,-0.125));
#349=CARTESIAN_POINT('',(0.096,-0.586834729715275,-0.125));
#350=CARTESIAN_POINT('',(0.63,-0.586834729715275,-0.125));
#351=CARTESIAN_POINT('',(0.096,0.,0.));
#352=CARTESIAN_POINT('',(0.096,0.586834729715275,-0.125));
#353=CARTESIAN_POINT('',(0.,0.586834729715275,-0.125));
#354=CARTESIAN_POINT('',(0.63,0.586834729715275,-0.125));
#355=CARTESIAN_POINT('',(0.63,0.,0.));
#356=CARTESIAN_POINT('',(0.63,0.586834729715275,0.125));
#357=CARTESIAN_POINT('',(0.,0.586834729715275,0.125));
#358=CARTESIAN_POINT('',(0.096,0.586834729715275,0.125));
#359=CARTESIAN_POINT('',(0.096,0.,0.));
#360=CARTESIAN_POINT('',(0.096,-0.586834729715275,0.125));
#361=CARTESIAN_POINT('',(0.,-0.586834729715275,0.125));
#362=CARTESIAN_POINT('',(0.63,-0.586834729715275,0.125));
#363=CARTESIAN_POINT('',(0.63,0.,0.));
#364=CARTESIAN_POINT('',(4.,0.,0.));
#365=CARTESIAN_POINT('',(4.,0.,0.));
#366=CARTESIAN_POINT('',(4.,0.,-0.504));
#367=CARTESIAN_POINT('',(0.63,-0.6,0.125));
#368=CARTESIAN_POINT('',(0.,0.488253008183257,0.125));
#369=CARTESIAN_POINT('',(0.0319145187864513,0.521196824603809,0.125));
#370=CARTESIAN_POINT('',(0.0639285289143228,0.554043755226184,0.125));
#371=CARTESIAN_POINT('',(0.096,0.586834729715275,0.125));
#372=CARTESIAN_POINT('',(0.63,-0.6,0.125));
#373=CARTESIAN_POINT('',(0.096,-0.586834729715275,0.125));
#374=CARTESIAN_POINT('',(0.0639285289143228,-0.554043755226184,0.125));
#375=CARTESIAN_POINT('',(0.0319145187864514,-0.521196824603809,0.125));
#376=CARTESIAN_POINT('',(-1.07027907891633E-17,-0.488253008183257,0.125));
#377=CARTESIAN_POINT('',(0.63,0.6,-0.125));
#378=CARTESIAN_POINT('',(0.,-0.488253008183257,-0.125));
#379=CARTESIAN_POINT('',(0.0319145187864513,-0.521196824603809,-0.125));
#380=CARTESIAN_POINT('',(0.0639285289143228,-0.554043755226184,-0.125));
#381=CARTESIAN_POINT('',(0.096,-0.586834729715275,-0.125));
#382=CARTESIAN_POINT('',(0.63,0.6,-0.125));
#383=CARTESIAN_POINT('',(0.096,0.586834729715275,-0.125));
#384=CARTESIAN_POINT('',(0.0639285289143228,0.554043755226184,-0.125));
#385=CARTESIAN_POINT('',(0.0319145187864514,0.521196824603809,-0.125));
#386=CARTESIAN_POINT('',(-1.12858719377597E-17,0.488253008183257,-0.125));
#387=CARTESIAN_POINT('',(0.63,0.,0.));
#388=CARTESIAN_POINT('',(0.,0.,0.));
#389=CARTESIAN_POINT('',(0.,0.,0.));
#390=CARTESIAN_POINT('',(3.904,0.,0.));
#391=MECHANICAL_DESIGN_GEOMETRIC_PRESENTATION_REPRESENTATION('',(#166,#167,
#168,#169,#170,#171,#172,#173,#174,#175,#176),#392);
#392=(
GEOMETRIC_REPRESENTATION_CONTEXT(3)
GLOBAL_UNCERTAINTY_ASSIGNED_CONTEXT((#393))
GLOBAL_UNIT_ASSIGNED_CONTEXT((#396,#395,#394))
REPRESENTATION_CONTEXT(' GBT878-2007','TOP_LEVEL_ASSEMBLY_PART')
);
#393=UNCERTAINTY_MEASURE_WITH_UNIT(LENGTH_MEASURE(0.005),#396,
'DISTANCE_ACCURACY_VALUE','Maximum Tolerance applied to model');
#394=(
NAMED_UNIT(*)
SI_UNIT($,.STERADIAN.)
SOLID_ANGLE_UNIT()
);
#395=(
NAMED_UNIT(*)
PLANE_ANGLE_UNIT()
SI_UNIT($,.RADIAN.)
);
#396=(
LENGTH_UNIT()
NAMED_UNIT(*)
SI_UNIT(.MILLI.,.METRE.)
);
#397=PRODUCT_DEFINITION_SHAPE('','',#398);
#398=PRODUCT_DEFINITION('','',#400,#399);
#399=PRODUCT_DEFINITION_CONTEXT('',#406,'design');
#400=PRODUCT_DEFINITION_FORMATION_WITH_SPECIFIED_SOURCE('','',#402,
 .NOT_KNOWN.);
#401=PRODUCT_RELATED_PRODUCT_CATEGORY('','',(#402));
#402=PRODUCT(' GBT878-2007',' GBT878-2007',' GBT878-2007',(#404));
#403=PRODUCT_CATEGORY('','');
#404=PRODUCT_CONTEXT('',#406,'mechanical');
#405=APPLICATION_PROTOCOL_DEFINITION('international standard',
'automotive_design',2010,#406);
#406=APPLICATION_CONTEXT(
'core data for automotive mechanical design processes');
ENDSEC;
END-ISO-10303-21;
