ISO-10303-21;
HEADER;
/* Generated by software containing HOOPS Exchange Step
 * from HOOPS Exchange, Inc. (www.tiangong.cloud) 
 */

FILE_DESCRIPTION(
/* description */ ('Unknown'),
/* implementation_level */ '2;1');

FILE_NAME(
/* name */ 'YC',
/* time_stamp */ '2025-11-22T14:58:23+08:00',
/* author */ ('Unknown'),
/* organization */ ('Unknown'),
/* preprocessor_version */ 'ST-DEVELOPER v19.4',
/* originating_system */ 'TianGong',
/* authorisation */ 'Unknown');

FILE_SCHEMA (('AUTOMOTIVE_DESIGN {1 0 10303 214 3 1 1}'));
ENDSEC;

DATA;
#10=PROPERTY_DEFINITION_REPRESENTATION(#14,#12);
#11=PROPERTY_DEFINITION_REPRESENTATION(#15,#13);
#12=REPRESENTATION('',(#16),#730);
#13=REPRESENTATION('',(#17),#730);
#14=PROPERTY_DEFINITION('pmi validation property','',#735);
#15=PROPERTY_DEFINITION('pmi validation property','',#735);
#16=VALUE_REPRESENTATION_ITEM('number of annotations',COUNT_MEASURE(0.));
#17=VALUE_REPRESENTATION_ITEM('number of views',COUNT_MEASURE(0.));
#18=SHAPE_REPRESENTATION_RELATIONSHIP('','',#416,#19);
#19=ADVANCED_BREP_SHAPE_REPRESENTATION('',(#414),#730);
#20=TOROIDAL_SURFACE('',#432,1.19999999999999,0.1);
#21=(
BOUNDED_SURFACE()
B_SPLINE_SURFACE(3,2,((#610,#611,#612),(#613,#614,#615),(#616,#617,#618),
(#619,#620,#621),(#622,#623,#624)),.UNSPECIFIED.,.F.,.F.,.F.)
B_SPLINE_SURFACE_WITH_KNOTS((4,1,4),(3,3),(0.00470401573469258,0.00565075507893976,
0.00659749442318695),(0.,1.),.UNSPECIFIED.)
GEOMETRIC_REPRESENTATION_ITEM()
RATIONAL_B_SPLINE_SURFACE(((1.,0.846402077801364,1.),(1.,0.856900872403277,
1.),(1.,0.875812981532186,1.),(1.,0.856965274526364,1.),(1.,0.846399760711656,
1.)))
REPRESENTATION_ITEM('')
SURFACE()
);
#22=(
BOUNDED_SURFACE()
B_SPLINE_SURFACE(3,2,((#633,#634,#635),(#636,#637,#638),(#639,#640,#641),
(#642,#643,#644),(#645,#646,#647)),.UNSPECIFIED.,.F.,.F.,.F.)
B_SPLINE_SURFACE_WITH_KNOTS((4,1,4),(3,3),(0.0051818578512442,0.00612645271771303,
0.00707104758418186),(0.,1.),.UNSPECIFIED.)
GEOMETRIC_REPRESENTATION_ITEM()
RATIONAL_B_SPLINE_SURFACE(((1.,0.846404400040054,1.),(1.,0.856838163843457,
1.),(1.,0.875794253929681,1.),(1.,0.857064186074075,1.),(1.,0.846396136452409,
1.)))
REPRESENTATION_ITEM('')
SURFACE()
);
#23=(
BOUNDED_SURFACE()
B_SPLINE_SURFACE(3,2,((#652,#653,#654),(#655,#656,#657),(#658,#659,#660),
(#661,#662,#663),(#664,#665,#666)),.UNSPECIFIED.,.F.,.F.,.F.)
B_SPLINE_SURFACE_WITH_KNOTS((4,1,4),(3,3),(0.00518185771598039,0.00612645259805619,
0.007071047480132),(0.,1.),.UNSPECIFIED.)
GEOMETRIC_REPRESENTATION_ITEM()
RATIONAL_B_SPLINE_SURFACE(((1.,0.846404399374255,1.),(1.,0.856838163448033,
1.),(1.,0.875794254339634,1.),(1.,0.85706418564958,1.),(1.,0.84639613574228,
1.)))
REPRESENTATION_ITEM('')
SURFACE()
);
#24=(
BOUNDED_SURFACE()
B_SPLINE_SURFACE(3,2,((#671,#672,#673),(#674,#675,#676),(#677,#678,#679),
(#680,#681,#682),(#683,#684,#685)),.UNSPECIFIED.,.F.,.F.,.F.)
B_SPLINE_SURFACE_WITH_KNOTS((4,1,4),(3,3),(0.00518185758007418,0.006126452477109,
0.00707104737414381),(0.,1.),.UNSPECIFIED.)
GEOMETRIC_REPRESENTATION_ITEM()
RATIONAL_B_SPLINE_SURFACE(((1.,0.846404398686782,1.),(1.,0.856838163024604,
1.),(1.,0.87579425473586,1.),(1.,0.857064185279399,1.),(1.,0.846396135098221,
1.)))
REPRESENTATION_ITEM('')
SURFACE()
);
#25=(
BOUNDED_SURFACE()
B_SPLINE_SURFACE(3,2,((#690,#691,#692),(#693,#694,#695),(#696,#697,#698),
(#699,#700,#701),(#702,#703,#704)),.UNSPECIFIED.,.F.,.F.,.F.)
B_SPLINE_SURFACE_WITH_KNOTS((4,1,4),(3,3),(0.00518185766873408,0.00612645255569859,
0.00707104744266309),(0.,1.),.UNSPECIFIED.)
GEOMETRIC_REPRESENTATION_ITEM()
RATIONAL_B_SPLINE_SURFACE(((1.,0.846404398690616,1.),(1.,0.856838162920241,
1.),(1.,0.875794254525351,1.),(1.,0.857064185796365,1.),(1.,0.84639613578225,
1.)))
REPRESENTATION_ITEM('')
SURFACE()
);
#26=(
BOUNDED_SURFACE()
B_SPLINE_SURFACE(3,2,((#709,#710,#711),(#712,#713,#714),(#715,#716,#717),
(#718,#719,#720),(#721,#722,#723)),.UNSPECIFIED.,.F.,.F.,.F.)
B_SPLINE_SURFACE_WITH_KNOTS((4,1,4),(3,3),(0.00470401583827989,0.00565075517278843,
0.00659749450729696),(0.,1.),.UNSPECIFIED.)
GEOMETRIC_REPRESENTATION_ITEM()
RATIONAL_B_SPLINE_SURFACE(((1.,0.846402078463048,1.),(1.,0.856900872911352,
1.),(1.,0.875812981336733,1.),(1.,0.856965274404799,1.),(1.,0.846399760693436,
1.)))
REPRESENTATION_ITEM('')
SURFACE()
);
#27=CYLINDRICAL_SURFACE('',#430,1.09999999999999);
#28=VERTEX_LOOP('',#174);
#29=CIRCLE('',#425,2.25);
#30=CIRCLE('',#427,1.19999999999999);
#31=CIRCLE('',#429,1.09999999999999);
#32=CIRCLE('',#431,1.09999999999999);
#33=CIRCLE('',#434,1.47925081702878);
#34=CONICAL_SURFACE('',#424,1.5,1.04580582258482);
#35=CONICAL_SURFACE('',#428,1.09999999999999,0.502843210927857);
#36=CONICAL_SURFACE('',#433,1.73205081702878,1.0471975511966);
#37=LINE('',#489,#43);
#38=LINE('',#496,#44);
#39=LINE('',#509,#45);
#40=LINE('',#523,#46);
#41=LINE('',#536,#47);
#42=LINE('',#549,#48);
#43=VECTOR('',#440,1000.);
#44=VECTOR('',#441,1000.);
#45=VECTOR('',#444,1000.);
#46=VECTOR('',#447,1000.);
#47=VECTOR('',#450,1000.);
#48=VECTOR('',#453,1000.);
#49=ORIENTED_EDGE('',*,*,#119,.F.);
#50=ORIENTED_EDGE('',*,*,#120,.F.);
#51=ORIENTED_EDGE('',*,*,#121,.T.);
#52=ORIENTED_EDGE('',*,*,#122,.T.);
#53=ORIENTED_EDGE('',*,*,#123,.F.);
#54=ORIENTED_EDGE('',*,*,#122,.F.);
#55=ORIENTED_EDGE('',*,*,#124,.T.);
#56=ORIENTED_EDGE('',*,*,#125,.T.);
#57=ORIENTED_EDGE('',*,*,#126,.F.);
#58=ORIENTED_EDGE('',*,*,#125,.F.);
#59=ORIENTED_EDGE('',*,*,#127,.T.);
#60=ORIENTED_EDGE('',*,*,#128,.T.);
#61=ORIENTED_EDGE('',*,*,#129,.F.);
#62=ORIENTED_EDGE('',*,*,#128,.F.);
#63=ORIENTED_EDGE('',*,*,#130,.T.);
#64=ORIENTED_EDGE('',*,*,#131,.T.);
#65=ORIENTED_EDGE('',*,*,#132,.F.);
#66=ORIENTED_EDGE('',*,*,#131,.F.);
#67=ORIENTED_EDGE('',*,*,#133,.T.);
#68=ORIENTED_EDGE('',*,*,#134,.T.);
#69=ORIENTED_EDGE('',*,*,#135,.F.);
#70=ORIENTED_EDGE('',*,*,#134,.F.);
#71=ORIENTED_EDGE('',*,*,#136,.T.);
#72=ORIENTED_EDGE('',*,*,#120,.T.);
#73=ORIENTED_EDGE('',*,*,#137,.T.);
#74=ORIENTED_EDGE('',*,*,#138,.T.);
#75=ORIENTED_EDGE('',*,*,#139,.T.);
#76=ORIENTED_EDGE('',*,*,#140,.T.);
#77=ORIENTED_EDGE('',*,*,#141,.T.);
#78=ORIENTED_EDGE('',*,*,#142,.T.);
#79=ORIENTED_EDGE('',*,*,#143,.T.);
#80=ORIENTED_EDGE('',*,*,#144,.T.);
#81=ORIENTED_EDGE('',*,*,#143,.F.);
#82=ORIENTED_EDGE('',*,*,#145,.F.);
#83=ORIENTED_EDGE('',*,*,#146,.T.);
#84=ORIENTED_EDGE('',*,*,#145,.T.);
#85=ORIENTED_EDGE('',*,*,#147,.F.);
#86=ORIENTED_EDGE('',*,*,#127,.F.);
#87=ORIENTED_EDGE('',*,*,#148,.F.);
#88=ORIENTED_EDGE('',*,*,#141,.F.);
#89=ORIENTED_EDGE('',*,*,#148,.T.);
#90=ORIENTED_EDGE('',*,*,#124,.F.);
#91=ORIENTED_EDGE('',*,*,#149,.F.);
#92=ORIENTED_EDGE('',*,*,#142,.F.);
#93=ORIENTED_EDGE('',*,*,#147,.T.);
#94=ORIENTED_EDGE('',*,*,#140,.F.);
#95=ORIENTED_EDGE('',*,*,#150,.F.);
#96=ORIENTED_EDGE('',*,*,#130,.F.);
#97=ORIENTED_EDGE('',*,*,#149,.T.);
#98=ORIENTED_EDGE('',*,*,#121,.F.);
#99=ORIENTED_EDGE('',*,*,#151,.F.);
#100=ORIENTED_EDGE('',*,*,#137,.F.);
#101=ORIENTED_EDGE('',*,*,#150,.T.);
#102=ORIENTED_EDGE('',*,*,#139,.F.);
#103=ORIENTED_EDGE('',*,*,#152,.F.);
#104=ORIENTED_EDGE('',*,*,#133,.F.);
#105=ORIENTED_EDGE('',*,*,#151,.T.);
#106=ORIENTED_EDGE('',*,*,#136,.F.);
#107=ORIENTED_EDGE('',*,*,#152,.T.);
#108=ORIENTED_EDGE('',*,*,#138,.F.);
#109=ORIENTED_EDGE('',*,*,#146,.F.);
#110=ORIENTED_EDGE('',*,*,#144,.F.);
#111=ORIENTED_EDGE('',*,*,#153,.F.);
#112=ORIENTED_EDGE('',*,*,#119,.T.);
#113=ORIENTED_EDGE('',*,*,#123,.T.);
#114=ORIENTED_EDGE('',*,*,#126,.T.);
#115=ORIENTED_EDGE('',*,*,#129,.T.);
#116=ORIENTED_EDGE('',*,*,#132,.T.);
#117=ORIENTED_EDGE('',*,*,#135,.T.);
#118=ORIENTED_EDGE('',*,*,#153,.T.);
#119=EDGE_CURVE('',#154,#155,#178,.T.);
#120=EDGE_CURVE('',#156,#154,#37,.T.);
#121=EDGE_CURVE('',#156,#157,#179,.T.);
#122=EDGE_CURVE('',#157,#155,#38,.T.);
#123=EDGE_CURVE('',#155,#158,#180,.T.);
#124=EDGE_CURVE('',#157,#159,#181,.T.);
#125=EDGE_CURVE('',#159,#158,#39,.T.);
#126=EDGE_CURVE('',#158,#160,#182,.T.);
#127=EDGE_CURVE('',#159,#161,#183,.T.);
#128=EDGE_CURVE('',#161,#160,#40,.T.);
#129=EDGE_CURVE('',#160,#162,#184,.T.);
#130=EDGE_CURVE('',#161,#163,#185,.T.);
#131=EDGE_CURVE('',#163,#162,#41,.T.);
#132=EDGE_CURVE('',#162,#164,#186,.T.);
#133=EDGE_CURVE('',#163,#165,#187,.T.);
#134=EDGE_CURVE('',#165,#164,#42,.T.);
#135=EDGE_CURVE('',#164,#154,#188,.T.);
#136=EDGE_CURVE('',#165,#156,#189,.T.);
#137=EDGE_CURVE('',#166,#167,#190,.T.);
#138=EDGE_CURVE('',#167,#168,#191,.T.);
#139=EDGE_CURVE('',#168,#169,#192,.T.);
#140=EDGE_CURVE('',#169,#170,#193,.T.);
#141=EDGE_CURVE('',#170,#171,#194,.T.);
#142=EDGE_CURVE('',#171,#166,#195,.T.);
#143=EDGE_CURVE('',#172,#172,#29,.T.);
#144=EDGE_CURVE('',#173,#173,#30,.T.);
#145=EDGE_CURVE('',#175,#175,#31,.T.);
#146=EDGE_CURVE('',#176,#176,#32,.F.);
#147=EDGE_CURVE('',#161,#170,#196,.T.);
#148=EDGE_CURVE('',#171,#159,#197,.F.);
#149=EDGE_CURVE('',#166,#157,#198,.F.);
#150=EDGE_CURVE('',#163,#169,#199,.T.);
#151=EDGE_CURVE('',#167,#156,#200,.F.);
#152=EDGE_CURVE('',#165,#168,#201,.T.);
#153=EDGE_CURVE('',#177,#177,#33,.T.);
#154=VERTEX_POINT('',#487);
#155=VERTEX_POINT('',#488);
#156=VERTEX_POINT('',#490);
#157=VERTEX_POINT('',#495);
#158=VERTEX_POINT('',#503);
#159=VERTEX_POINT('',#508);
#160=VERTEX_POINT('',#516);
#161=VERTEX_POINT('',#522);
#162=VERTEX_POINT('',#530);
#163=VERTEX_POINT('',#535);
#164=VERTEX_POINT('',#543);
#165=VERTEX_POINT('',#548);
#166=VERTEX_POINT('',#567);
#167=VERTEX_POINT('',#568);
#168=VERTEX_POINT('',#574);
#169=VERTEX_POINT('',#580);
#170=VERTEX_POINT('',#586);
#171=VERTEX_POINT('',#592);
#172=VERTEX_POINT('',#599);
#173=VERTEX_POINT('',#602);
#174=VERTEX_POINT('',#604);
#175=VERTEX_POINT('',#606);
#176=VERTEX_POINT('',#609);
#177=VERTEX_POINT('',#727);
#178=B_SPLINE_CURVE_WITH_KNOTS('',3,(#482,#483,#484,#485,#486),
 .UNSPECIFIED.,.F.,.F.,(4,1,4),(2.38084329215039E-7,0.000874879436802721,
0.00174952078927623),.UNSPECIFIED.);
#179=B_SPLINE_CURVE_WITH_KNOTS('',3,(#491,#492,#493,#494),.UNSPECIFIED.,
 .F.,.F.,(4,4),(0.,0.00175388355526761),.UNSPECIFIED.);
#180=B_SPLINE_CURVE_WITH_KNOTS('',3,(#498,#499,#500,#501,#502),
 .UNSPECIFIED.,.F.,.F.,(4,1,4),(2.38056237349893E-7,0.000874879392623022,
0.00174952072900869),.UNSPECIFIED.);
#181=B_SPLINE_CURVE_WITH_KNOTS('',3,(#504,#505,#506,#507),.UNSPECIFIED.,
 .F.,.F.,(4,4),(2.79792420479384E-20,0.0017538834977748),.UNSPECIFIED.);
#182=B_SPLINE_CURVE_WITH_KNOTS('',3,(#511,#512,#513,#514,#515),
 .UNSPECIFIED.,.F.,.F.,(4,1,4),(0.00188809335988405,0.00276891995120606,
0.00364974654252807),.UNSPECIFIED.);
#183=B_SPLINE_CURVE_WITH_KNOTS('',3,(#517,#518,#519,#520,#521),
 .UNSPECIFIED.,.F.,.F.,(4,1,4),(1.0842021724855E-19,0.000879009623623207,
0.00175801924724641),.UNSPECIFIED.);
#184=B_SPLINE_CURVE_WITH_KNOTS('',3,(#525,#526,#527,#528,#529),
 .UNSPECIFIED.,.F.,.F.,(4,1,4),(2.38056238954709E-7,0.000874879421634675,
0.0017495207870304),.UNSPECIFIED.);
#185=B_SPLINE_CURVE_WITH_KNOTS('',3,(#531,#532,#533,#534),.UNSPECIFIED.,
 .F.,.F.,(4,4),(0.,0.00175388352650351),.UNSPECIFIED.);
#186=B_SPLINE_CURVE_WITH_KNOTS('',3,(#538,#539,#540,#541,#542),
 .UNSPECIFIED.,.F.,.F.,(4,1,4),(2.38084329165728E-7,0.000874879431104136,
0.00174952077787911),.UNSPECIFIED.);
#187=B_SPLINE_CURVE_WITH_KNOTS('',3,(#544,#545,#546,#547),.UNSPECIFIED.,
 .F.,.F.,(4,4),(4.05378626186209E-14,0.00175388353606872),.UNSPECIFIED.);
#188=B_SPLINE_CURVE_WITH_KNOTS('',3,(#551,#552,#553,#554,#555),
 .UNSPECIFIED.,.F.,.F.,(4,1,4),(0.00188809335698537,0.00276891994249405,
0.00364974652800273),.UNSPECIFIED.);
#189=B_SPLINE_CURVE_WITH_KNOTS('',3,(#556,#557,#558,#559,#560),
 .UNSPECIFIED.,.F.,.F.,(4,1,4),(5.12429356881555E-14,0.000879009614090225,
0.00175801922812921),.UNSPECIFIED.);
#190=B_SPLINE_CURVE_WITH_KNOTS('',3,(#562,#563,#564,#565,#566),
 .UNSPECIFIED.,.F.,.F.,(4,1,4),(3.60290891194917E-20,0.000906241984801801,
0.0018124839696036),.UNSPECIFIED.);
#191=B_SPLINE_CURVE_WITH_KNOTS('',3,(#569,#570,#571,#572,#573),
 .UNSPECIFIED.,.F.,.F.,(4,1,4),(0.,0.000907339695120857,0.00181467939024171),
 .UNSPECIFIED.);
#192=B_SPLINE_CURVE_WITH_KNOTS('',3,(#575,#576,#577,#578,#579),
 .UNSPECIFIED.,.F.,.F.,(4,1,4),(0.,0.000906241974811269,0.00181248394962254),
 .UNSPECIFIED.);
#193=B_SPLINE_CURVE_WITH_KNOTS('',3,(#581,#582,#583,#584,#585),
 .UNSPECIFIED.,.F.,.F.,(4,1,4),(0.,0.000906241970272352,0.0018124839405447),
 .UNSPECIFIED.);
#194=B_SPLINE_CURVE_WITH_KNOTS('',3,(#587,#588,#589,#590,#591),
 .UNSPECIFIED.,.F.,.F.,(4,1,4),(0.,0.000907339704583676,0.00181467940916735),
 .UNSPECIFIED.);
#195=B_SPLINE_CURVE_WITH_KNOTS('',3,(#593,#594,#595,#596,#597),
 .UNSPECIFIED.,.F.,.F.,(4,1,4),(0.,0.00090624195512519,0.00181248391025038),
 .UNSPECIFIED.);
#196=B_SPLINE_CURVE_WITH_KNOTS('',3,(#625,#626,#627,#628),.UNSPECIFIED.,
 .F.,.F.,(4,4),(0.,0.000126617172368206),.UNSPECIFIED.);
#197=B_SPLINE_CURVE_WITH_KNOTS('',3,(#629,#630,#631,#632),.UNSPECIFIED.,
 .F.,.F.,(4,4),(0.,0.000126617172053268),.UNSPECIFIED.);
#198=B_SPLINE_CURVE_WITH_KNOTS('',3,(#648,#649,#650,#651),.UNSPECIFIED.,
 .F.,.F.,(4,4),(0.,0.000126617172111215),.UNSPECIFIED.);
#199=B_SPLINE_CURVE_WITH_KNOTS('',3,(#667,#668,#669,#670),.UNSPECIFIED.,
 .F.,.F.,(4,4),(0.,0.000126617172683096),.UNSPECIFIED.);
#200=B_SPLINE_CURVE_WITH_KNOTS('',3,(#686,#687,#688,#689),.UNSPECIFIED.,
 .F.,.F.,(4,4),(0.,0.000126617172939115),.UNSPECIFIED.);
#201=B_SPLINE_CURVE_WITH_KNOTS('',3,(#705,#706,#707,#708),.UNSPECIFIED.,
 .F.,.F.,(4,4),(0.,0.000126617172051443),.UNSPECIFIED.);
#202=EDGE_LOOP('',(#49,#50,#51,#52));
#203=EDGE_LOOP('',(#53,#54,#55,#56));
#204=EDGE_LOOP('',(#57,#58,#59,#60));
#205=EDGE_LOOP('',(#61,#62,#63,#64));
#206=EDGE_LOOP('',(#65,#66,#67,#68));
#207=EDGE_LOOP('',(#69,#70,#71,#72));
#208=EDGE_LOOP('',(#73,#74,#75,#76,#77,#78));
#209=EDGE_LOOP('',(#79));
#210=EDGE_LOOP('',(#80));
#211=EDGE_LOOP('',(#81));
#212=EDGE_LOOP('',(#82));
#213=EDGE_LOOP('',(#83));
#214=EDGE_LOOP('',(#84));
#215=EDGE_LOOP('',(#85,#86,#87,#88));
#216=EDGE_LOOP('',(#89,#90,#91,#92));
#217=EDGE_LOOP('',(#93,#94,#95,#96));
#218=EDGE_LOOP('',(#97,#98,#99,#100));
#219=EDGE_LOOP('',(#101,#102,#103,#104));
#220=EDGE_LOOP('',(#105,#106,#107,#108));
#221=EDGE_LOOP('',(#109));
#222=EDGE_LOOP('',(#110));
#223=EDGE_LOOP('',(#111));
#224=EDGE_LOOP('',(#112,#113,#114,#115,#116,#117));
#225=EDGE_LOOP('',(#118));
#226=FACE_BOUND('',#202,.T.);
#227=FACE_BOUND('',#203,.T.);
#228=FACE_BOUND('',#204,.T.);
#229=FACE_BOUND('',#205,.T.);
#230=FACE_BOUND('',#206,.T.);
#231=FACE_BOUND('',#207,.T.);
#232=FACE_BOUND('',#208,.T.);
#233=FACE_BOUND('',#209,.T.);
#234=FACE_BOUND('',#210,.T.);
#235=FACE_BOUND('',#211,.T.);
#236=FACE_BOUND('',#28,.T.);
#237=FACE_BOUND('',#212,.T.);
#238=FACE_BOUND('',#213,.T.);
#239=FACE_BOUND('',#214,.T.);
#240=FACE_BOUND('',#215,.T.);
#241=FACE_BOUND('',#216,.T.);
#242=FACE_BOUND('',#217,.T.);
#243=FACE_BOUND('',#218,.T.);
#244=FACE_BOUND('',#219,.T.);
#245=FACE_BOUND('',#220,.T.);
#246=FACE_BOUND('',#221,.T.);
#247=FACE_BOUND('',#222,.T.);
#248=FACE_BOUND('',#223,.T.);
#249=FACE_BOUND('',#224,.T.);
#250=FACE_BOUND('',#225,.T.);
#251=PLANE('',#418);
#252=PLANE('',#419);
#253=PLANE('',#420);
#254=PLANE('',#421);
#255=PLANE('',#422);
#256=PLANE('',#423);
#257=PLANE('',#426);
#258=PLANE('',#435);
#259=STYLED_ITEM('',(#278),#394);
#260=STYLED_ITEM('',(#279),#395);
#261=STYLED_ITEM('',(#280),#396);
#262=STYLED_ITEM('',(#281),#397);
#263=STYLED_ITEM('',(#282),#398);
#264=STYLED_ITEM('',(#283),#399);
#265=STYLED_ITEM('',(#284),#400);
#266=STYLED_ITEM('',(#285),#401);
#267=STYLED_ITEM('',(#286),#402);
#268=STYLED_ITEM('',(#287),#403);
#269=STYLED_ITEM('',(#288),#404);
#270=STYLED_ITEM('',(#289),#405);
#271=STYLED_ITEM('',(#290),#406);
#272=STYLED_ITEM('',(#291),#407);
#273=STYLED_ITEM('',(#292),#408);
#274=STYLED_ITEM('',(#293),#409);
#275=STYLED_ITEM('',(#294),#410);
#276=STYLED_ITEM('',(#295),#411);
#277=STYLED_ITEM('',(#296),#412);
#278=PRESENTATION_STYLE_ASSIGNMENT((#297));
#279=PRESENTATION_STYLE_ASSIGNMENT((#298));
#280=PRESENTATION_STYLE_ASSIGNMENT((#299));
#281=PRESENTATION_STYLE_ASSIGNMENT((#300));
#282=PRESENTATION_STYLE_ASSIGNMENT((#301));
#283=PRESENTATION_STYLE_ASSIGNMENT((#302));
#284=PRESENTATION_STYLE_ASSIGNMENT((#303));
#285=PRESENTATION_STYLE_ASSIGNMENT((#304));
#286=PRESENTATION_STYLE_ASSIGNMENT((#305));
#287=PRESENTATION_STYLE_ASSIGNMENT((#306));
#288=PRESENTATION_STYLE_ASSIGNMENT((#307));
#289=PRESENTATION_STYLE_ASSIGNMENT((#308));
#290=PRESENTATION_STYLE_ASSIGNMENT((#309));
#291=PRESENTATION_STYLE_ASSIGNMENT((#310));
#292=PRESENTATION_STYLE_ASSIGNMENT((#311));
#293=PRESENTATION_STYLE_ASSIGNMENT((#312));
#294=PRESENTATION_STYLE_ASSIGNMENT((#313));
#295=PRESENTATION_STYLE_ASSIGNMENT((#314));
#296=PRESENTATION_STYLE_ASSIGNMENT((#315));
#297=SURFACE_STYLE_USAGE(.BOTH.,#316);
#298=SURFACE_STYLE_USAGE(.BOTH.,#317);
#299=SURFACE_STYLE_USAGE(.BOTH.,#318);
#300=SURFACE_STYLE_USAGE(.BOTH.,#319);
#301=SURFACE_STYLE_USAGE(.BOTH.,#320);
#302=SURFACE_STYLE_USAGE(.BOTH.,#321);
#303=SURFACE_STYLE_USAGE(.BOTH.,#322);
#304=SURFACE_STYLE_USAGE(.BOTH.,#323);
#305=SURFACE_STYLE_USAGE(.BOTH.,#324);
#306=SURFACE_STYLE_USAGE(.BOTH.,#325);
#307=SURFACE_STYLE_USAGE(.BOTH.,#326);
#308=SURFACE_STYLE_USAGE(.BOTH.,#327);
#309=SURFACE_STYLE_USAGE(.BOTH.,#328);
#310=SURFACE_STYLE_USAGE(.BOTH.,#329);
#311=SURFACE_STYLE_USAGE(.BOTH.,#330);
#312=SURFACE_STYLE_USAGE(.BOTH.,#331);
#313=SURFACE_STYLE_USAGE(.BOTH.,#332);
#314=SURFACE_STYLE_USAGE(.BOTH.,#333);
#315=SURFACE_STYLE_USAGE(.BOTH.,#334);
#316=SURFACE_SIDE_STYLE('',(#335));
#317=SURFACE_SIDE_STYLE('',(#336));
#318=SURFACE_SIDE_STYLE('',(#337));
#319=SURFACE_SIDE_STYLE('',(#338));
#320=SURFACE_SIDE_STYLE('',(#339));
#321=SURFACE_SIDE_STYLE('',(#340));
#322=SURFACE_SIDE_STYLE('',(#341));
#323=SURFACE_SIDE_STYLE('',(#342));
#324=SURFACE_SIDE_STYLE('',(#343));
#325=SURFACE_SIDE_STYLE('',(#344));
#326=SURFACE_SIDE_STYLE('',(#345));
#327=SURFACE_SIDE_STYLE('',(#346));
#328=SURFACE_SIDE_STYLE('',(#347));
#329=SURFACE_SIDE_STYLE('',(#348));
#330=SURFACE_SIDE_STYLE('',(#349));
#331=SURFACE_SIDE_STYLE('',(#350));
#332=SURFACE_SIDE_STYLE('',(#351));
#333=SURFACE_SIDE_STYLE('',(#352));
#334=SURFACE_SIDE_STYLE('',(#353));
#335=SURFACE_STYLE_FILL_AREA(#354);
#336=SURFACE_STYLE_FILL_AREA(#355);
#337=SURFACE_STYLE_FILL_AREA(#356);
#338=SURFACE_STYLE_FILL_AREA(#357);
#339=SURFACE_STYLE_FILL_AREA(#358);
#340=SURFACE_STYLE_FILL_AREA(#359);
#341=SURFACE_STYLE_FILL_AREA(#360);
#342=SURFACE_STYLE_FILL_AREA(#361);
#343=SURFACE_STYLE_FILL_AREA(#362);
#344=SURFACE_STYLE_FILL_AREA(#363);
#345=SURFACE_STYLE_FILL_AREA(#364);
#346=SURFACE_STYLE_FILL_AREA(#365);
#347=SURFACE_STYLE_FILL_AREA(#366);
#348=SURFACE_STYLE_FILL_AREA(#367);
#349=SURFACE_STYLE_FILL_AREA(#368);
#350=SURFACE_STYLE_FILL_AREA(#369);
#351=SURFACE_STYLE_FILL_AREA(#370);
#352=SURFACE_STYLE_FILL_AREA(#371);
#353=SURFACE_STYLE_FILL_AREA(#372);
#354=FILL_AREA_STYLE('',(#373));
#355=FILL_AREA_STYLE('',(#374));
#356=FILL_AREA_STYLE('',(#375));
#357=FILL_AREA_STYLE('',(#376));
#358=FILL_AREA_STYLE('',(#377));
#359=FILL_AREA_STYLE('',(#378));
#360=FILL_AREA_STYLE('',(#379));
#361=FILL_AREA_STYLE('',(#380));
#362=FILL_AREA_STYLE('',(#381));
#363=FILL_AREA_STYLE('',(#382));
#364=FILL_AREA_STYLE('',(#383));
#365=FILL_AREA_STYLE('',(#384));
#366=FILL_AREA_STYLE('',(#385));
#367=FILL_AREA_STYLE('',(#386));
#368=FILL_AREA_STYLE('',(#387));
#369=FILL_AREA_STYLE('',(#388));
#370=FILL_AREA_STYLE('',(#389));
#371=FILL_AREA_STYLE('',(#390));
#372=FILL_AREA_STYLE('',(#391));
#373=FILL_AREA_STYLE_COLOUR('',#392);
#374=FILL_AREA_STYLE_COLOUR('',#392);
#375=FILL_AREA_STYLE_COLOUR('',#392);
#376=FILL_AREA_STYLE_COLOUR('',#392);
#377=FILL_AREA_STYLE_COLOUR('',#392);
#378=FILL_AREA_STYLE_COLOUR('',#392);
#379=FILL_AREA_STYLE_COLOUR('',#392);
#380=FILL_AREA_STYLE_COLOUR('',#392);
#381=FILL_AREA_STYLE_COLOUR('',#392);
#382=FILL_AREA_STYLE_COLOUR('',#393);
#383=FILL_AREA_STYLE_COLOUR('',#392);
#384=FILL_AREA_STYLE_COLOUR('',#392);
#385=FILL_AREA_STYLE_COLOUR('',#392);
#386=FILL_AREA_STYLE_COLOUR('',#392);
#387=FILL_AREA_STYLE_COLOUR('',#392);
#388=FILL_AREA_STYLE_COLOUR('',#392);
#389=FILL_AREA_STYLE_COLOUR('',#392);
#390=FILL_AREA_STYLE_COLOUR('',#392);
#391=FILL_AREA_STYLE_COLOUR('',#392);
#392=COLOUR_RGB('',0.506983280181885,0.531564235687256,0.550000011920929);
#393=COLOUR_RGB('',0.1875,0.75,0.581249892711639);
#394=ADVANCED_FACE('',(#226),#251,.T.);
#395=ADVANCED_FACE('',(#227),#252,.T.);
#396=ADVANCED_FACE('',(#228),#253,.T.);
#397=ADVANCED_FACE('',(#229),#254,.T.);
#398=ADVANCED_FACE('',(#230),#255,.T.);
#399=ADVANCED_FACE('',(#231),#256,.T.);
#400=ADVANCED_FACE('',(#232,#233),#34,.T.);
#401=ADVANCED_FACE('',(#234,#235),#257,.F.);
#402=ADVANCED_FACE('',(#236,#237),#35,.T.);
#403=ADVANCED_FACE('',(#238,#239),#27,.T.);
#404=ADVANCED_FACE('',(#240),#21,.F.);
#405=ADVANCED_FACE('',(#241),#22,.F.);
#406=ADVANCED_FACE('',(#242),#23,.F.);
#407=ADVANCED_FACE('',(#243),#24,.F.);
#408=ADVANCED_FACE('',(#244),#25,.F.);
#409=ADVANCED_FACE('',(#245),#26,.F.);
#410=ADVANCED_FACE('',(#246,#247),#20,.F.);
#411=ADVANCED_FACE('',(#248,#249),#36,.T.);
#412=ADVANCED_FACE('',(#250),#258,.T.);
#413=CLOSED_SHELL('',(#394,#395,#396,#397,#398,#399,#400,#401,#402,#403,
#404,#405,#406,#407,#408,#409,#410,#411,#412));
#414=MANIFOLD_SOLID_BREP('',#413);
#415=SHAPE_DEFINITION_REPRESENTATION(#735,#416);
#416=SHAPE_REPRESENTATION('YC',(#417),#730);
#417=AXIS2_PLACEMENT_3D('',#480,#436,#437);
#418=AXIS2_PLACEMENT_3D('',#481,#438,#439);
#419=AXIS2_PLACEMENT_3D('',#497,#442,#443);
#420=AXIS2_PLACEMENT_3D('',#510,#445,#446);
#421=AXIS2_PLACEMENT_3D('',#524,#448,#449);
#422=AXIS2_PLACEMENT_3D('',#537,#451,#452);
#423=AXIS2_PLACEMENT_3D('',#550,#454,#455);
#424=AXIS2_PLACEMENT_3D('',#561,#456,#457);
#425=AXIS2_PLACEMENT_3D('',#598,#458,#459);
#426=AXIS2_PLACEMENT_3D('',#600,#460,#461);
#427=AXIS2_PLACEMENT_3D('',#601,#462,#463);
#428=AXIS2_PLACEMENT_3D('',#603,#464,#465);
#429=AXIS2_PLACEMENT_3D('',#605,#466,#467);
#430=AXIS2_PLACEMENT_3D('',#607,#468,#469);
#431=AXIS2_PLACEMENT_3D('',#608,#470,#471);
#432=AXIS2_PLACEMENT_3D('',#724,#472,#473);
#433=AXIS2_PLACEMENT_3D('',#725,#474,#475);
#434=AXIS2_PLACEMENT_3D('',#726,#476,#477);
#435=AXIS2_PLACEMENT_3D('',#728,#478,#479);
#436=DIRECTION('',(0.,0.,1.));
#437=DIRECTION('',(1.,0.,0.));
#438=DIRECTION('',(-0.500000000000018,0.,-0.866025403784428));
#439=DIRECTION('',(-0.866025403784428,0.,0.500000000000018));
#440=DIRECTION('',(0.,-1.,0.));
#441=DIRECTION('',(0.,-1.,0.));
#442=DIRECTION('',(0.499999999999989,0.,-0.866025403784445));
#443=DIRECTION('',(-0.866025403784445,0.,-0.499999999999989));
#444=DIRECTION('',(0.,-1.,0.));
#445=DIRECTION('',(1.,0.,-9.45988298236486E-9));
#446=DIRECTION('',(-9.45988298236486E-9,0.,-1.));
#447=DIRECTION('',(0.,-1.,0.));
#448=DIRECTION('',(0.500000008192527,0.,0.866025399054481));
#449=DIRECTION('',(0.866025399054481,0.,-0.500000008192527));
#450=DIRECTION('',(0.,-1.,0.));
#451=DIRECTION('',(-0.50000000000005,0.,0.86602540378441));
#452=DIRECTION('',(0.86602540378441,0.,0.50000000000005));
#453=DIRECTION('',(0.,-1.,0.));
#454=DIRECTION('',(-1.,0.,9.45992302222965E-9));
#455=DIRECTION('',(9.45992302222965E-9,0.,1.));
#456=DIRECTION('',(6.12303176911189E-17,1.,3.85494105772624E-16));
#457=DIRECTION('',(0.,-3.85494105772624E-16,1.));
#458=DIRECTION('',(-6.12303176911189E-17,-1.,-3.85494105772624E-16));
#459=DIRECTION('',(0.,3.85494105772624E-16,-1.));
#460=DIRECTION('',(0.,-1.,0.));
#461=DIRECTION('',(0.,0.,-1.));
#462=DIRECTION('',(0.,-1.,0.));
#463=DIRECTION('',(0.,0.,-1.));
#464=DIRECTION('',(-6.12303176911189E-17,-1.,-3.85494105772624E-16));
#465=DIRECTION('',(0.,3.85494105772624E-16,-1.));
#466=DIRECTION('',(-6.12303176911189E-17,-1.,-3.85494105772624E-16));
#467=DIRECTION('',(0.,3.85494105772624E-16,-1.));
#468=DIRECTION('',(-6.12303176911189E-17,-1.,-3.85494105772624E-16));
#469=DIRECTION('',(0.,3.85494105772624E-16,-1.));
#470=DIRECTION('',(0.,-1.,0.));
#471=DIRECTION('',(0.,0.,-1.));
#472=DIRECTION('',(0.,-1.,0.));
#473=DIRECTION('',(0.,0.,-1.));
#474=DIRECTION('',(6.12303176911189E-17,1.,0.));
#475=DIRECTION('',(-1.,6.12303176911189E-17,0.));
#476=DIRECTION('',(-6.12303176911189E-17,-1.,0.));
#477=DIRECTION('',(1.,-6.12303176911189E-17,0.));
#478=DIRECTION('',(0.,-1.,0.));
#479=DIRECTION('',(0.,0.,-1.));
#480=CARTESIAN_POINT('',(0.,0.,0.));
#481=CARTESIAN_POINT('',(-1.5000000081925,2.2,-0.866025389594514));
#482=CARTESIAN_POINT('',(-1.50000000097921,0.145954140182589,-0.866025393759109));
#483=CARTESIAN_POINT('',(-1.25507939218457,0.0643139365022574,-1.00743037317679));
#484=CARTESIAN_POINT('',(-0.752708512892716,-0.0403029742924155,-1.29747433556898));
#485=CARTESIAN_POINT('',(-0.245225572045459,0.0642122790166628,-1.5904697480763));
#486=CARTESIAN_POINT('',(9.31434036841936E-9,0.145954140231305,-1.73205080348657));
#487=CARTESIAN_POINT('',(-1.5000000081925,0.145954148051137,-0.866025408514416));
#488=CARTESIAN_POINT('',(3.5453411040276E-14,0.145954148051137,-1.73205081702878));
#489=CARTESIAN_POINT('',(-1.5000000081925,2.2,-0.866025389594514));
#490=CARTESIAN_POINT('',(-1.5000000081925,1.83499583088324,-0.866025389594514));
#491=CARTESIAN_POINT('',(-1.5000000081925,1.83499583088324,-0.866025389594514));
#492=CARTESIAN_POINT('',(-1.00877785629325,1.67860976444857,-1.14963263122547));
#493=CARTESIAN_POINT('',(-0.490716120742996,1.67877085991081,-1.44873571370227));
#494=CARTESIAN_POINT('',(1.63850829097067E-8,1.83499583088326,-1.73205080756887));
#495=CARTESIAN_POINT('',(1.63850831774032E-8,1.8349958314049,-1.73205080756887));
#496=CARTESIAN_POINT('',(1.63850831774032E-8,2.2,-1.73205080756887));
#497=CARTESIAN_POINT('',(1.63850831774032E-8,2.2,-1.73205080756887));
#498=CARTESIAN_POINT('',(-2.52801947846082E-13,0.145954148048821,-1.73205081702895));
#499=CARTESIAN_POINT('',(0.244920604754023,0.0643139464640443,-1.59064583994398));
#500=CARTESIAN_POINT('',(0.747291473467116,-0.0403029622911181,-1.30060188365946));
#501=CARTESIAN_POINT('',(1.25477440707978,0.0642122829296533,-1.00760647532906));
#502=CARTESIAN_POINT('',(1.49999998473678,0.145954140231337,-0.866025422056611));
#503=CARTESIAN_POINT('',(1.4999999918075,0.145954148051137,-0.866025436894077));
#504=CARTESIAN_POINT('',(1.63850832156323E-8,1.8349958314049,-1.73205080756887));
#505=CARTESIAN_POINT('',(0.491222152885277,1.6786097750749,-1.44844357482859));
#506=CARTESIAN_POINT('',(1.00928387024676,1.67877087058536,-1.14934050285311));
#507=CARTESIAN_POINT('',(1.4999999918075,1.83499583140492,-0.866025417974333));
#508=CARTESIAN_POINT('',(1.4999999918075,1.8349958311441,-0.866025417974333));
#509=CARTESIAN_POINT('',(1.4999999918075,2.2,-0.866025417974333));
#510=CARTESIAN_POINT('',(1.4999999918075,2.2,-0.866025417974333));
#511=CARTESIAN_POINT('',(1.4999999918075,0.145954148051125,-0.86602543689408));
#512=CARTESIAN_POINT('',(1.49999999447587,0.0645268234116267,-0.583952914715817));
#513=CARTESIAN_POINT('',(1.49999999999451,-0.0405943872821569,-0.000579860424007931));
#514=CARTESIAN_POINT('',(1.50000000552587,0.0645801823719318,0.584137720620878));
#515=CARTESIAN_POINT('',(1.50000000819249,0.145954140278638,0.866025381589799));
#516=CARTESIAN_POINT('',(1.50000002457757,0.145954148051137,0.866025380134645));
#517=CARTESIAN_POINT('',(1.4999999918075,1.8349958311441,-0.866025417974333));
#518=CARTESIAN_POINT('',(1.49999999448637,1.75691979567462,-0.582842524125907));
#519=CARTESIAN_POINT('',(1.50000000003995,1.65890882506353,0.00422336481237451));
#520=CARTESIAN_POINT('',(1.50000000551894,1.7570748957375,0.583405045885703));
#521=CARTESIAN_POINT('',(1.50000000819249,1.83499583114407,0.866025389594573));
#522=CARTESIAN_POINT('',(1.50000000819249,1.83499583114407,0.866025389594573));
#523=CARTESIAN_POINT('',(1.50000000819249,2.2,0.866025389594573));
#524=CARTESIAN_POINT('',(1.50000000819249,2.2,0.866025389594573));
#525=CARTESIAN_POINT('',(1.50000002457786,0.145954148048821,0.866025380134479));
#526=CARTESIAN_POINT('',(1.25507941338518,0.064313942534333,1.0074303640259));
#527=CARTESIAN_POINT('',(0.75270852987269,-0.0403029708409309,1.29747433519138));
#528=CARTESIAN_POINT('',(0.24522558378471,0.0642122850025249,1.59046975712541));
#529=CARTESIAN_POINT('',(-1.68972034251958E-13,0.145954148049958,1.73205081702888));
#530=CARTESIAN_POINT('',(8.93681885350774E-18,0.145954148051137,1.73205081702878));
#531=CARTESIAN_POINT('',(1.50000000819249,1.83499583114407,0.866025389594573));
#532=CARTESIAN_POINT('',(1.00877786668062,1.67860976976331,1.14963263142425));
#533=CARTESIAN_POINT('',(0.490716143044364,1.67877086524966,1.44873571355691));
#534=CARTESIAN_POINT('',(1.63850213720973E-8,1.83499583114409,1.73205080756888));
#535=CARTESIAN_POINT('',(1.63850211610389E-8,1.83499583114409,1.73205080756888));
#536=CARTESIAN_POINT('',(1.63850211610389E-8,2.2,1.73205080756888));
#537=CARTESIAN_POINT('',(1.63850213778793E-8,2.2,1.73205080756888));
#538=CARTESIAN_POINT('',(9.17177310284392E-9,0.145954140182634,1.73205080340431));
#539=CARTESIAN_POINT('',(-0.244920598027131,0.064313937034203,1.59064582490792));
#540=CARTESIAN_POINT('',(-0.747291473741651,-0.0403029735984788,1.30060186458108));
#541=CARTESIAN_POINT('',(-1.2547744117625,0.0642122771115099,1.00760645370556));
#542=CARTESIAN_POINT('',(-1.4999999918076,0.145954137126557,0.866025399054315));
#543=CARTESIAN_POINT('',(-1.49999999180743,0.145954137127736,0.866025399054414));
#544=CARTESIAN_POINT('',(1.63850212031764E-8,1.83499583088327,1.73205080756888));
#545=CARTESIAN_POINT('',(-0.491222129988494,1.67860976620776,1.44844356912819));
#546=CARTESIAN_POINT('',(-1.00928385961565,1.67877085890562,1.14934049007107));
#547=CARTESIAN_POINT('',(-1.49999999180743,1.83499582566687,0.866025399054414));
#548=CARTESIAN_POINT('',(-1.49999999180743,1.83499582566687,0.866025399054414));
#549=CARTESIAN_POINT('',(-1.49999999180743,2.2,0.866025399054414));
#550=CARTESIAN_POINT('',(-1.49999999180743,2.2,0.866025399054413));
#551=CARTESIAN_POINT('',(-1.49999999180743,0.145954137127724,0.866025399054416));
#552=CARTESIAN_POINT('',(-1.49999999447582,0.0645268155223784,0.583952878143208));
#553=CARTESIAN_POINT('',(-1.49999999999448,-0.0405943865961449,0.000579825836654441));
#554=CARTESIAN_POINT('',(-1.50000000552587,0.0645801888764443,-0.584137749726065));
#555=CARTESIAN_POINT('',(-1.5000000081925,0.14595414805111,-0.866025408514422));
#556=CARTESIAN_POINT('',(-1.49999999180743,1.83499582592768,0.866025399054414));
#557=CARTESIAN_POINT('',(-1.49999999448632,1.75691979254842,0.582842508002367));
#558=CARTESIAN_POINT('',(-1.50000000003992,1.6589088262053,-0.0042233751705618));
#559=CARTESIAN_POINT('',(-1.50000000551893,1.75707489661274,-0.583405049060202));
#560=CARTESIAN_POINT('',(-1.5000000081925,1.83499583114406,-0.866025389594514));
#561=CARTESIAN_POINT('',(1.08107909051789E-16,1.76559444942207,-1.90218425523951E-15));
#562=CARTESIAN_POINT('',(1.59405784835484E-8,1.93785095203633,-1.79740038263511));
#563=CARTESIAN_POINT('',(-0.25158430922739,1.85137375949799,-1.64809774746342));
#564=CARTESIAN_POINT('',(-0.767125193346113,1.73774871752285,-1.34305069043928));
#565=CARTESIAN_POINT('',(-1.30063667754325,1.85108028885122,-1.04241333485393));
#566=CARTESIAN_POINT('',(-1.55659440064289,1.93785095221895,-0.898700177210085));
#567=CARTESIAN_POINT('',(1.59405785330471E-8,1.93785095203633,-1.79740038263511));
#568=CARTESIAN_POINT('',(-1.55659440064289,1.93785095221895,-0.898700177210085));
#569=CARTESIAN_POINT('',(-1.55659440064289,1.93785095221895,-0.898700177210085));
#570=CARTESIAN_POINT('',(-1.55308860996918,1.85142120364465,-0.606330929112584));
#571=CARTESIAN_POINT('',(-1.54667537923467,1.73766968323695,-0.00517558952722159));
#572=CARTESIAN_POINT('',(-1.55307904072923,1.85118557249355,0.605533875198771));
#573=CARTESIAN_POINT('',(-1.55659438340256,1.9378509463744,0.89870018689003));
#574=CARTESIAN_POINT('',(-1.55659438340256,1.9378509463744,0.898700186890031));
#575=CARTESIAN_POINT('',(-1.55659438340256,1.9378509463744,0.898700186890031));
#576=CARTESIAN_POINT('',(-1.30150234836653,1.85137375601074,1.04192728473316));
#577=CARTESIAN_POINT('',(-0.779553411080365,1.73774871876434,1.335875255664));
#578=CARTESIAN_POINT('',(-0.252438087705254,1.85108028979662,1.64759107290543));
#579=CARTESIAN_POINT('',(1.64718689346696E-8,1.93785095221898,1.79740038295046));
#580=CARTESIAN_POINT('',(1.64718689033712E-8,1.93785095221898,1.79740038295046));
#581=CARTESIAN_POINT('',(1.64718689033712E-8,1.93785095221898,1.79740038295046));
#582=CARTESIAN_POINT('',(0.25158433655341,1.8513737622161,1.64809774761941));
#583=CARTESIAN_POINT('',(0.7671252094367,1.7377487244398,1.34305069084462));
#584=CARTESIAN_POINT('',(1.30063668262392,1.85108029128445,1.04241333460512));
#585=CARTESIAN_POINT('',(1.55659440063548,1.93785095203632,0.898700176592316));
#586=CARTESIAN_POINT('',(1.55659440063548,1.93785095203632,0.898700176592316));
#587=CARTESIAN_POINT('',(1.55659440063548,1.93785095203632,0.898700176592316));
#588=CARTESIAN_POINT('',(1.55308860992625,1.8514212026158,0.606330925485652));
#589=CARTESIAN_POINT('',(1.54667537916778,1.73766968202361,0.00517557888169269));
#590=CARTESIAN_POINT('',(1.55307904090366,1.8511855759052,-0.60553389114921));
#591=CARTESIAN_POINT('',(1.55659438362487,1.93785095185371,-0.898700205425002));
#592=CARTESIAN_POINT('',(1.55659438362487,1.93785095185371,-0.898700205425002));
#593=CARTESIAN_POINT('',(1.55659438362487,1.93785095185371,-0.898700205425002));
#594=CARTESIAN_POINT('',(1.30150235379905,1.85137376456644,-1.04192730040408));
#595=CARTESIAN_POINT('',(0.779553428526152,1.73774873143368,-1.33587526475118));
#596=CARTESIAN_POINT('',(0.252438115389439,1.85108029392382,-1.64759107547882));
#597=CARTESIAN_POINT('',(1.59405786382949E-8,1.93785095203633,-1.79740038263511));
#598=CARTESIAN_POINT('',(1.34706698920462E-16,2.2,-1.73472347597681E-15));
#599=CARTESIAN_POINT('',(1.34706698920462E-16,2.2,-2.25));
#600=CARTESIAN_POINT('',(0.,2.2,0.));
#601=CARTESIAN_POINT('',(1.40829730689573E-16,2.2,-1.69617406539954E-15));
#602=CARTESIAN_POINT('',(1.40829730689573E-16,2.2,-1.19999999999999));
#603=CARTESIAN_POINT('',(4.10243128530496E-16,6.7,7.70371977754894E-31));
#604=CARTESIAN_POINT('',(5.32703763912734E-16,8.7,0.));
#605=CARTESIAN_POINT('',(4.10243128530496E-16,6.7,7.70371977754894E-31));
#606=CARTESIAN_POINT('',(4.10243128530496E-16,6.7,-1.09999999999999));
#607=CARTESIAN_POINT('',(1.34706698920462E-16,2.2,-1.73472347597681E-15));
#608=CARTESIAN_POINT('',(1.40829730689573E-16,2.3,-1.69617406539954E-15));
#609=CARTESIAN_POINT('',(1.40829730689573E-16,2.3,-1.09999999999999));
#610=CARTESIAN_POINT('',(1.49999999115975,1.8544412062739,-0.934497908944835));
#611=CARTESIAN_POINT('',(1.49999999132665,1.91483574536005,-0.916855613539885));
#612=CARTESIAN_POINT('',(1.55672069593759,1.94097407637364,-0.909220152921994));
#613=CARTESIAN_POINT('',(1.49999999401414,1.7662987830658,-0.632761678996585));
#614=CARTESIAN_POINT('',(1.49999999410242,1.82629333045212,-0.623444045050984));
#615=CARTESIAN_POINT('',(1.55316621028931,1.85283166873675,-0.613569716619382));
#616=CARTESIAN_POINT('',(1.50000000004409,1.6498786457294,0.00466163047872043));
#617=CARTESIAN_POINT('',(1.50000000004212,1.70646898619716,0.0044649069260651));
#618=CARTESIAN_POINT('',(1.54660379169172,1.73641150079964,0.00452606024462621));
#619=CARTESIAN_POINT('',(1.50000000596839,1.76575512478475,0.630916682369508));
#620=CARTESIAN_POINT('',(1.50000000588105,1.82575442544976,0.621673579388015));
#621=CARTESIAN_POINT('',(1.55314442817422,1.85228800937224,0.61176159808711));
#622=CARTESIAN_POINT('',(1.50000000884087,1.85446065968522,0.934564473294221));
#623=CARTESIAN_POINT('',(1.50000000867396,1.91485552944196,0.916921143896497));
#624=CARTESIAN_POINT('',(1.55672149761518,1.94099352978495,0.909285373108132));
#625=CARTESIAN_POINT('',(1.50000000819249,1.83499583114407,0.866025389594573));
#626=CARTESIAN_POINT('',(1.50000000819264,1.87790126586503,0.866025389594491));
#627=CARTESIAN_POINT('',(1.52496478147312,1.91669671184616,0.880438807853073));
#628=CARTESIAN_POINT('',(1.55659440063548,1.93785095203633,0.898700176592349));
#629=CARTESIAN_POINT('',(1.4999999918075,1.8349958311441,-0.866025417974333));
#630=CARTESIAN_POINT('',(1.4999999918075,1.87790126575681,-0.866025417854245));
#631=CARTESIAN_POINT('',(1.52496476478243,1.91669671171617,-0.880438836313314));
#632=CARTESIAN_POINT('',(1.55659438362488,1.93785095185372,-0.898700205425035));
#633=CARTESIAN_POINT('',(-0.0592411164027731,1.854421715783,-1.76625369153104));
#634=CARTESIAN_POINT('',(-0.043963337905572,1.91481592346647,-1.75743306200306));
#635=CARTESIAN_POINT('',(-0.0089911437335919,1.94095458588273,-1.80273637650299));
#636=CARTESIAN_POINT('',(0.200456640270866,1.76682819936562,-1.61631712180757));
#637=CARTESIAN_POINT('',(0.208588593326713,1.82681818781159,-1.61162213652156));
#638=CARTESIAN_POINT('',(0.243702177698323,1.8533610846151,-1.65276486158604));
#639=CARTESIAN_POINT('',(0.746190430631584,1.6500355225675,-1.30123757103695));
#640=CARTESIAN_POINT('',(0.746157272212922,1.70661878055159,-1.30125671505895));
#641=CARTESIAN_POINT('',(0.769646625708176,1.73656837792312,-1.34151587733129));
#642=CARTESIAN_POINT('',(1.29393621049437,1.7649199976779,-0.984996397585694));
#643=CARTESIAN_POINT('',(1.28603108829131,1.82492678366074,-0.989560422017662));
#644=CARTESIAN_POINT('',(1.30395192754027,1.85145288211611,-1.04054106371956));
#645=CARTESIAN_POINT('',(1.55944679928198,1.85449109440197,-0.831703787676479));
#646=CARTESIAN_POINT('',(1.54416582728385,1.9148864813802,-0.840526260973077));
#647=CARTESIAN_POINT('',(1.56591399566016,1.9410239645017,-0.89346770085599));
#648=CARTESIAN_POINT('',(1.63850831774032E-8,1.8349958314049,-1.73205080756887));
#649=CARTESIAN_POINT('',(1.6177082410506E-8,1.87790126603869,-1.73205080768896));
#650=CARTESIAN_POINT('',(1.60128002744768E-8,1.91669671188911,-1.760877644633));
#651=CARTESIAN_POINT('',(1.59405542470094E-8,1.93785095203634,-1.79740038263514));
#652=CARTESIAN_POINT('',(1.5592411407962,1.85442171587735,0.831822504991504));
#653=CARTESIAN_POINT('',(1.54396336212511,1.91481592365583,0.840643134812576));
#654=CARTESIAN_POINT('',(1.56571108680827,1.94095458597708,0.89358160067546));
#655=CARTESIAN_POINT('',(1.29954338162315,1.76682819680093,0.98175907943363));
#656=CARTESIAN_POINT('',(1.29141142852263,1.8268181853613,0.986454064847938));
#657=CARTESIAN_POINT('',(1.30948528175289,1.85336108205043,1.03743468353903));
#658=CARTESIAN_POINT('',(0.753809586158695,1.65003551555713,1.29683864003437));
#659=CARTESIAN_POINT('',(0.753842744556046,1.70661877352924,1.29681949602426));
#660=CARTESIAN_POINT('',(0.77696352539156,1.73656837091278,1.3372914536596));
#661=CARTESIAN_POINT('',(0.206063799494493,1.76491999528262,1.61307982432127));
#662=CARTESIAN_POINT('',(0.213968921749492,1.82492678138921,1.60851579975967));
#663=CARTESIAN_POINT('',(0.24915903364057,1.85145287972074,1.64952602231356));
#664=CARTESIAN_POINT('',(-0.0594467920053126,1.85449109486884,1.76637243914532));
#665=CARTESIAN_POINT('',(-0.0441658198162384,1.91488648194841,1.75754996554574));
#666=CARTESIAN_POINT('',(-0.00919127152205889,1.94102396496857,1.80285515161687));
#667=CARTESIAN_POINT('',(1.63850211610389E-8,1.83499583114409,1.73205080756888));
#668=CARTESIAN_POINT('',(1.62810219877651E-8,1.87790126597331,1.73205080762893));
#669=CARTESIAN_POINT('',(1.63350339152595E-8,1.9166967119762,1.76087764478338));
#670=CARTESIAN_POINT('',(1.64718666103589E-8,1.93785095221898,1.79740038295046));
#671=CARTESIAN_POINT('',(-1.55924114179866,1.85442171615365,-0.8318225051599));
#672=CARTESIAN_POINT('',(-1.54396336277843,1.91481592403024,-0.84064313498985));
#673=CARTESIAN_POINT('',(-1.56571108699773,1.94095458625338,-0.893581601305897));
#674=CARTESIAN_POINT('',(-1.29954337747684,1.76682819443803,-0.981759079299051));
#675=CARTESIAN_POINT('',(-1.29141142422618,1.82681818311593,-0.986454064697387));
#676=CARTESIAN_POINT('',(-1.30948527682554,1.85336107968746,-1.03743468381417));
#677=CARTESIAN_POINT('',(-0.753809571410935,1.65003550863171,-1.2968386391371));
#678=CARTESIAN_POINT('',(-0.753842729782997,1.7066187665923,-1.29681949514202));
#679=CARTESIAN_POINT('',(-0.776963510135425,1.73656836398739,-1.33729145289576));
#680=CARTESIAN_POINT('',(-0.206063772253168,1.76491999252297,-1.61307982372833));
#681=CARTESIAN_POINT('',(-0.213968894624944,1.82492677874218,-1.60851579919907));
#682=CARTESIAN_POINT('',(-0.24915900641467,1.85145287696111,-1.64952602206831));
#683=CARTESIAN_POINT('',(0.0594468246962558,1.85449109478097,-1.76637243834979));
#684=CARTESIAN_POINT('',(0.0441658521748471,1.91488648195246,-1.75754996475108));
#685=CARTESIAN_POINT('',(0.00919130412583823,1.9410239648807,-1.80285515129895));
#686=CARTESIAN_POINT('',(-1.5000000081925,1.83499583088324,-0.866025389594514));
#687=CARTESIAN_POINT('',(-1.50000000808864,1.87790126579931,-0.866025389654476));
#688=CARTESIAN_POINT('',(-1.52496478143617,1.91669671193251,-0.880438808217133));
#689=CARTESIAN_POINT('',(-1.55659440064247,1.93785095221841,-0.898700177209207));
#690=CARTESIAN_POINT('',(0.0592411498957083,1.85442171612148,1.76625369194838));
#691=CARTESIAN_POINT('',(0.0439633708769591,1.91481592399753,1.75743306211929));
#692=CARTESIAN_POINT('',(0.00899117632061434,1.94095458622121,1.80273637692485));
#693=CARTESIAN_POINT('',(-0.20045661174327,1.76682819531839,1.61631711935815));
#694=CARTESIAN_POINT('',(-0.208588565098024,1.82681818398867,1.61162213389976));
#695=CARTESIAN_POINT('',(-0.243702150019474,1.85336108056788,1.65276485901425));
#696=CARTESIAN_POINT('',(-0.746190412001254,1.65003550994689,1.30123756287329));
#697=CARTESIAN_POINT('',(-0.746157253645757,1.7066187679134,1.30125670685884));
#698=CARTESIAN_POINT('',(-0.769646607360061,1.73656836530247,1.3415158687669));
#699=CARTESIAN_POINT('',(-1.29393620514474,1.76491998906621,0.98499638175437));
#700=CARTESIAN_POINT('',(-1.28603108295593,1.82492677516808,0.989560406177874));
#701=CARTESIAN_POINT('',(-1.30395192198526,1.85145287350449,1.04054104811861));
#702=CARTESIAN_POINT('',(-1.55944679947938,1.85449108903773,0.831703768642545));
#703=CARTESIAN_POINT('',(-1.5441658272223,1.9148864761116,0.840526242088655));
#704=CARTESIAN_POINT('',(-1.56591399563466,1.94102395913746,0.893467682212744));
#705=CARTESIAN_POINT('',(-1.49999999180743,1.83499582566687,0.866025399054414));
#706=CARTESIAN_POINT('',(-1.49999999170343,1.87790126027896,0.866025399114459));
#707=CARTESIAN_POINT('',(-1.52496476459613,1.91669670623714,0.880438817716984));
#708=CARTESIAN_POINT('',(-1.55659438340256,1.9378509463744,0.89870018689003));
#709=CARTESIAN_POINT('',(-1.49999999115969,1.85444120071874,0.934497889928025));
#710=CARTESIAN_POINT('',(-1.49999999132658,1.91483573971047,0.916855594818358));
#711=CARTESIAN_POINT('',(-1.5567206957135,1.94097407081848,0.909220134288743));
#712=CARTESIAN_POINT('',(-1.49999999401409,1.76629877963822,0.632761662705355));
#713=CARTESIAN_POINT('',(-1.49999999410217,1.82629332691249,0.62344402897307));
#714=CARTESIAN_POINT('',(-1.5531662101121,1.85283166531363,0.613569700749876));
#715=CARTESIAN_POINT('',(-1.50000000004407,1.64987864695822,-0.00466164136893695));
#716=CARTESIAN_POINT('',(-1.5000000000421,1.70646898742998,-0.00446491776872578));
#717=CARTESIAN_POINT('',(-1.54660379176034,1.73641150202618,-0.0045260707309559));
#718=CARTESIAN_POINT('',(-1.50000000596839,1.7657551257828,-0.630916685912955));
#719=CARTESIAN_POINT('',(-1.50000000588124,1.82575442644382,-0.621673582802942));
#720=CARTESIAN_POINT('',(-1.5531444282156,1.8522880103704,-0.611761601556436));
#721=CARTESIAN_POINT('',(-1.50000000884088,1.85446065983817,-0.934564473817787));
#722=CARTESIAN_POINT('',(-1.50000000867397,1.91485552959752,-0.916921144411932));
#723=CARTESIAN_POINT('',(-1.55672149762136,1.9409935299379,-0.909285373621134));
#724=CARTESIAN_POINT('',(1.40829730689573E-16,2.3,-1.69617406539954E-15));
#725=CARTESIAN_POINT('',(8.93681885350774E-18,0.145954148051137,0.));
#726=CARTESIAN_POINT('',(5.64109666128639E-66,9.21291424575542E-50,0.));
#727=CARTESIAN_POINT('',(1.47925081702878,-9.05749974715194E-17,0.));
#728=CARTESIAN_POINT('',(0.,0.,0.));
#729=MECHANICAL_DESIGN_GEOMETRIC_PRESENTATION_REPRESENTATION('',(#259,#260,
#261,#262,#263,#264,#265,#266,#267,#268,#269,#270,#271,#272,#273,#274,#275,
#276,#277),#730);
#730=(
GEOMETRIC_REPRESENTATION_CONTEXT(3)
GLOBAL_UNCERTAINTY_ASSIGNED_CONTEXT((#731))
GLOBAL_UNIT_ASSIGNED_CONTEXT((#734,#733,#732))
REPRESENTATION_CONTEXT('YC','TOP_LEVEL_ASSEMBLY_PART')
);
#731=UNCERTAINTY_MEASURE_WITH_UNIT(LENGTH_MEASURE(0.005),#734,
'DISTANCE_ACCURACY_VALUE','Maximum Tolerance applied to model');
#732=(
NAMED_UNIT(*)
SI_UNIT($,.STERADIAN.)
SOLID_ANGLE_UNIT()
);
#733=(
NAMED_UNIT(*)
PLANE_ANGLE_UNIT()
SI_UNIT($,.RADIAN.)
);
#734=(
LENGTH_UNIT()
NAMED_UNIT(*)
SI_UNIT(.MILLI.,.METRE.)
);
#735=PRODUCT_DEFINITION_SHAPE('','',#736);
#736=PRODUCT_DEFINITION('','',#738,#737);
#737=PRODUCT_DEFINITION_CONTEXT('',#744,'design');
#738=PRODUCT_DEFINITION_FORMATION_WITH_SPECIFIED_SOURCE('','',#740,
 .NOT_KNOWN.);
#739=PRODUCT_RELATED_PRODUCT_CATEGORY('','',(#740));
#740=PRODUCT('YC','YC','YC',(#742));
#741=PRODUCT_CATEGORY('','');
#742=PRODUCT_CONTEXT('',#744,'mechanical');
#743=APPLICATION_PROTOCOL_DEFINITION('international standard',
'automotive_design',2010,#744);
#744=APPLICATION_CONTEXT(
'core data for automotive mechanical design processes');
ENDSEC;
END-ISO-10303-21;
