ISO-10303-21;
HEADER;
/* Generated by software containing HOOPS Exchange Step
 * from HOOPS Exchange, Inc. (www.tiangong.cloud) 
 */

FILE_DESCRIPTION(
/* description */ ('Unknown'),
/* implementation_level */ '2;1');

FILE_NAME(
/* name */ '777',
/* time_stamp */ '2025-10-28T09:32:19+08:00',
/* author */ ('Unknown'),
/* organization */ ('Unknown'),
/* preprocessor_version */ 'ST-DEVELOPER v19.4',
/* originating_system */ 'TianGong',
/* authorisation */ 'Unknown');

FILE_SCHEMA (('AUTOMOTIVE_DESIGN {1 0 10303 214 3 1 1}'));
ENDSEC;

DATA;
#10=PROPERTY_DEFINITION_REPRESENTATION(#14,#12);
#11=PROPERTY_DEFINITION_REPRESENTATION(#15,#13);
#12=REPRESENTATION('',(#16),#473);
#13=REPRESENTATION('',(#17),#473);
#14=PROPERTY_DEFINITION('pmi validation property','',#478);
#15=PROPERTY_DEFINITION('pmi validation property','',#478);
#16=VALUE_REPRESENTATION_ITEM('number of annotations',COUNT_MEASURE(0.));
#17=VALUE_REPRESENTATION_ITEM('number of views',COUNT_MEASURE(0.));
#18=SHAPE_REPRESENTATION_RELATIONSHIP('','',#313,#19);
#19=ADVANCED_BREP_SHAPE_REPRESENTATION('',(#311),#473);
#20=TOROIDAL_SURFACE('',#339,3.74999999999999,1.5);
#21=TOROIDAL_SURFACE('',#340,3.74999999999999,1.5);
#22=B_SPLINE_CURVE_WITH_KNOTS('',3,(#438,#439,#440,#441),.UNSPECIFIED.,
 .F.,.F.,(4,4),(0.0146243154621678,0.0149079315456249),.UNSPECIFIED.);
#23=B_SPLINE_CURVE_WITH_KNOTS('',3,(#445,#446,#447,#448),.UNSPECIFIED.,
 .F.,.F.,(4,4),(9.846643843547E-7,0.000285235722437918),.UNSPECIFIED.);
#24=B_SPLINE_CURVE_WITH_KNOTS('',3,(#449,#450,#451,#452),.UNSPECIFIED.,
 .F.,.F.,(4,4),(0.0146243154621678,0.0149079315456249),.UNSPECIFIED.);
#25=B_SPLINE_CURVE_WITH_KNOTS('',3,(#456,#457,#458,#459),.UNSPECIFIED.,
 .F.,.F.,(4,4),(9.84664384355554E-7,0.000285235722437918),.UNSPECIFIED.);
#26=CONICAL_SURFACE('',#325,3.,0.785398163397447);
#27=CONICAL_SURFACE('',#329,5.65,0.785398163397448);
#28=PLANE('',#321);
#29=PLANE('',#327);
#30=PLANE('',#328);
#31=PLANE('',#336);
#32=PLANE('',#337);
#33=PLANE('',#338);
#34=LINE('',#408,#42);
#35=LINE('',#412,#43);
#36=LINE('',#414,#44);
#37=LINE('',#419,#45);
#38=LINE('',#423,#46);
#39=LINE('',#434,#47);
#40=LINE('',#466,#48);
#41=LINE('',#468,#49);
#42=VECTOR('',#347,1000.);
#43=VECTOR('',#350,1000.);
#44=VECTOR('',#353,1000.);
#45=VECTOR('',#356,1000.);
#46=VECTOR('',#361,1000.);
#47=VECTOR('',#376,1000.);
#48=VECTOR('',#393,1000.);
#49=VECTOR('',#396,1000.);
#50=ORIENTED_EDGE('',*,*,#98,.T.);
#51=ORIENTED_EDGE('',*,*,#99,.T.);
#52=ORIENTED_EDGE('',*,*,#100,.F.);
#53=ORIENTED_EDGE('',*,*,#101,.F.);
#54=ORIENTED_EDGE('',*,*,#102,.F.);
#55=ORIENTED_EDGE('',*,*,#103,.T.);
#56=ORIENTED_EDGE('',*,*,#104,.T.);
#57=ORIENTED_EDGE('',*,*,#105,.F.);
#58=ORIENTED_EDGE('',*,*,#106,.F.);
#59=ORIENTED_EDGE('',*,*,#100,.T.);
#60=ORIENTED_EDGE('',*,*,#107,.T.);
#61=ORIENTED_EDGE('',*,*,#108,.F.);
#62=ORIENTED_EDGE('',*,*,#109,.T.);
#63=ORIENTED_EDGE('',*,*,#107,.F.);
#64=ORIENTED_EDGE('',*,*,#109,.F.);
#65=ORIENTED_EDGE('',*,*,#110,.F.);
#66=ORIENTED_EDGE('',*,*,#105,.T.);
#67=ORIENTED_EDGE('',*,*,#111,.T.);
#68=ORIENTED_EDGE('',*,*,#112,.F.);
#69=ORIENTED_EDGE('',*,*,#113,.T.);
#70=ORIENTED_EDGE('',*,*,#114,.F.);
#71=ORIENTED_EDGE('',*,*,#98,.F.);
#72=ORIENTED_EDGE('',*,*,#115,.F.);
#73=ORIENTED_EDGE('',*,*,#116,.T.);
#74=ORIENTED_EDGE('',*,*,#117,.F.);
#75=ORIENTED_EDGE('',*,*,#103,.F.);
#76=ORIENTED_EDGE('',*,*,#118,.T.);
#77=ORIENTED_EDGE('',*,*,#119,.T.);
#78=ORIENTED_EDGE('',*,*,#117,.T.);
#79=ORIENTED_EDGE('',*,*,#120,.F.);
#80=ORIENTED_EDGE('',*,*,#112,.T.);
#81=ORIENTED_EDGE('',*,*,#102,.T.);
#82=ORIENTED_EDGE('',*,*,#110,.T.);
#83=ORIENTED_EDGE('',*,*,#104,.F.);
#84=ORIENTED_EDGE('',*,*,#114,.T.);
#85=ORIENTED_EDGE('',*,*,#121,.F.);
#86=ORIENTED_EDGE('',*,*,#115,.T.);
#87=ORIENTED_EDGE('',*,*,#101,.T.);
#88=ORIENTED_EDGE('',*,*,#106,.T.);
#89=ORIENTED_EDGE('',*,*,#99,.F.);
#90=ORIENTED_EDGE('',*,*,#120,.T.);
#91=ORIENTED_EDGE('',*,*,#116,.F.);
#92=ORIENTED_EDGE('',*,*,#121,.T.);
#93=ORIENTED_EDGE('',*,*,#113,.F.);
#94=ORIENTED_EDGE('',*,*,#108,.T.);
#95=ORIENTED_EDGE('',*,*,#119,.F.);
#96=ORIENTED_EDGE('',*,*,#118,.F.);
#97=ORIENTED_EDGE('',*,*,#111,.F.);
#98=EDGE_CURVE('',#122,#123,#140,.T.);
#99=EDGE_CURVE('',#123,#124,#34,.T.);
#100=EDGE_CURVE('',#125,#124,#141,.T.);
#101=EDGE_CURVE('',#122,#125,#35,.T.);
#102=EDGE_CURVE('',#126,#127,#36,.T.);
#103=EDGE_CURVE('',#126,#128,#142,.T.);
#104=EDGE_CURVE('',#128,#129,#37,.T.);
#105=EDGE_CURVE('',#127,#129,#143,.T.);
#106=EDGE_CURVE('',#125,#124,#38,.T.);
#107=EDGE_CURVE('',#130,#130,#144,.T.);
#108=EDGE_CURVE('',#131,#131,#145,.T.);
#109=EDGE_CURVE('',#132,#132,#146,.T.);
#110=EDGE_CURVE('',#127,#129,#39,.T.);
#111=EDGE_CURVE('',#133,#133,#147,.T.);
#112=EDGE_CURVE('',#134,#126,#22,.T.);
#113=EDGE_CURVE('',#134,#135,#148,.F.);
#114=EDGE_CURVE('',#123,#135,#23,.T.);
#115=EDGE_CURVE('',#136,#122,#24,.T.);
#116=EDGE_CURVE('',#136,#137,#149,.F.);
#117=EDGE_CURVE('',#128,#137,#25,.T.);
#118=EDGE_CURVE('',#138,#138,#150,.F.);
#119=EDGE_CURVE('',#139,#139,#151,.F.);
#120=EDGE_CURVE('',#134,#137,#40,.T.);
#121=EDGE_CURVE('',#136,#135,#41,.T.);
#122=VERTEX_POINT('',#406);
#123=VERTEX_POINT('',#407);
#124=VERTEX_POINT('',#409);
#125=VERTEX_POINT('',#411);
#126=VERTEX_POINT('',#415);
#127=VERTEX_POINT('',#416);
#128=VERTEX_POINT('',#418);
#129=VERTEX_POINT('',#420);
#130=VERTEX_POINT('',#426);
#131=VERTEX_POINT('',#428);
#132=VERTEX_POINT('',#431);
#133=VERTEX_POINT('',#437);
#134=VERTEX_POINT('',#442);
#135=VERTEX_POINT('',#444);
#136=VERTEX_POINT('',#453);
#137=VERTEX_POINT('',#455);
#138=VERTEX_POINT('',#462);
#139=VERTEX_POINT('',#464);
#140=CIRCLE('',#316,5.65);
#141=CIRCLE('',#317,5.65);
#142=CIRCLE('',#319,5.65);
#143=CIRCLE('',#320,5.65);
#144=CIRCLE('',#323,3.);
#145=CIRCLE('',#324,3.);
#146=CIRCLE('',#326,1.58578643762691);
#147=CIRCLE('',#330,2.68933982822017);
#148=CIRCLE('',#331,5.45);
#149=CIRCLE('',#332,5.45);
#150=CIRCLE('',#334,2.24999999999999);
#151=CIRCLE('',#335,2.24999999999999);
#152=EDGE_LOOP('',(#50,#51,#52,#53));
#153=EDGE_LOOP('',(#54,#55,#56,#57));
#154=EDGE_LOOP('',(#58,#59));
#155=EDGE_LOOP('',(#60));
#156=EDGE_LOOP('',(#61));
#157=EDGE_LOOP('',(#62));
#158=EDGE_LOOP('',(#63));
#159=EDGE_LOOP('',(#64));
#160=EDGE_LOOP('',(#65,#66));
#161=EDGE_LOOP('',(#67));
#162=EDGE_LOOP('',(#68,#69,#70,#71,#72,#73,#74,#75));
#163=EDGE_LOOP('',(#76));
#164=EDGE_LOOP('',(#77));
#165=EDGE_LOOP('',(#78,#79,#80,#81,#82,#83));
#166=EDGE_LOOP('',(#84,#85,#86,#87,#88,#89));
#167=EDGE_LOOP('',(#90,#91,#92,#93));
#168=EDGE_LOOP('',(#94));
#169=EDGE_LOOP('',(#95));
#170=EDGE_LOOP('',(#96));
#171=EDGE_LOOP('',(#97));
#172=FACE_BOUND('',#152,.T.);
#173=FACE_BOUND('',#153,.T.);
#174=FACE_BOUND('',#154,.T.);
#175=FACE_BOUND('',#155,.T.);
#176=FACE_BOUND('',#156,.T.);
#177=FACE_BOUND('',#157,.T.);
#178=FACE_BOUND('',#158,.T.);
#179=FACE_BOUND('',#159,.T.);
#180=FACE_BOUND('',#160,.T.);
#181=FACE_BOUND('',#161,.T.);
#182=FACE_BOUND('',#162,.T.);
#183=FACE_BOUND('',#163,.T.);
#184=FACE_BOUND('',#164,.T.);
#185=FACE_BOUND('',#165,.T.);
#186=FACE_BOUND('',#166,.T.);
#187=FACE_BOUND('',#167,.T.);
#188=FACE_BOUND('',#168,.T.);
#189=FACE_BOUND('',#169,.T.);
#190=FACE_BOUND('',#170,.T.);
#191=FACE_BOUND('',#171,.T.);
#192=CYLINDRICAL_SURFACE('',#315,5.65);
#193=CYLINDRICAL_SURFACE('',#318,5.65);
#194=CYLINDRICAL_SURFACE('',#322,3.);
#195=CYLINDRICAL_SURFACE('',#333,2.24999999999999);
#196=STYLED_ITEM('',(#210),#296);
#197=STYLED_ITEM('',(#211),#297);
#198=STYLED_ITEM('',(#212),#298);
#199=STYLED_ITEM('',(#213),#299);
#200=STYLED_ITEM('',(#214),#300);
#201=STYLED_ITEM('',(#215),#301);
#202=STYLED_ITEM('',(#216),#302);
#203=STYLED_ITEM('',(#217),#303);
#204=STYLED_ITEM('',(#218),#304);
#205=STYLED_ITEM('',(#219),#305);
#206=STYLED_ITEM('',(#220),#306);
#207=STYLED_ITEM('',(#221),#307);
#208=STYLED_ITEM('',(#222),#308);
#209=STYLED_ITEM('',(#223),#309);
#210=PRESENTATION_STYLE_ASSIGNMENT((#224));
#211=PRESENTATION_STYLE_ASSIGNMENT((#225));
#212=PRESENTATION_STYLE_ASSIGNMENT((#226));
#213=PRESENTATION_STYLE_ASSIGNMENT((#227));
#214=PRESENTATION_STYLE_ASSIGNMENT((#228));
#215=PRESENTATION_STYLE_ASSIGNMENT((#229));
#216=PRESENTATION_STYLE_ASSIGNMENT((#230));
#217=PRESENTATION_STYLE_ASSIGNMENT((#231));
#218=PRESENTATION_STYLE_ASSIGNMENT((#232));
#219=PRESENTATION_STYLE_ASSIGNMENT((#233));
#220=PRESENTATION_STYLE_ASSIGNMENT((#234));
#221=PRESENTATION_STYLE_ASSIGNMENT((#235));
#222=PRESENTATION_STYLE_ASSIGNMENT((#236));
#223=PRESENTATION_STYLE_ASSIGNMENT((#237));
#224=SURFACE_STYLE_USAGE(.BOTH.,#238);
#225=SURFACE_STYLE_USAGE(.BOTH.,#239);
#226=SURFACE_STYLE_USAGE(.BOTH.,#240);
#227=SURFACE_STYLE_USAGE(.BOTH.,#241);
#228=SURFACE_STYLE_USAGE(.BOTH.,#242);
#229=SURFACE_STYLE_USAGE(.BOTH.,#243);
#230=SURFACE_STYLE_USAGE(.BOTH.,#244);
#231=SURFACE_STYLE_USAGE(.BOTH.,#245);
#232=SURFACE_STYLE_USAGE(.BOTH.,#246);
#233=SURFACE_STYLE_USAGE(.BOTH.,#247);
#234=SURFACE_STYLE_USAGE(.BOTH.,#248);
#235=SURFACE_STYLE_USAGE(.BOTH.,#249);
#236=SURFACE_STYLE_USAGE(.BOTH.,#250);
#237=SURFACE_STYLE_USAGE(.BOTH.,#251);
#238=SURFACE_SIDE_STYLE('',(#252));
#239=SURFACE_SIDE_STYLE('',(#253));
#240=SURFACE_SIDE_STYLE('',(#254));
#241=SURFACE_SIDE_STYLE('',(#255));
#242=SURFACE_SIDE_STYLE('',(#256));
#243=SURFACE_SIDE_STYLE('',(#257));
#244=SURFACE_SIDE_STYLE('',(#258));
#245=SURFACE_SIDE_STYLE('',(#259));
#246=SURFACE_SIDE_STYLE('',(#260));
#247=SURFACE_SIDE_STYLE('',(#261));
#248=SURFACE_SIDE_STYLE('',(#262));
#249=SURFACE_SIDE_STYLE('',(#263));
#250=SURFACE_SIDE_STYLE('',(#264));
#251=SURFACE_SIDE_STYLE('',(#265));
#252=SURFACE_STYLE_FILL_AREA(#266);
#253=SURFACE_STYLE_FILL_AREA(#267);
#254=SURFACE_STYLE_FILL_AREA(#268);
#255=SURFACE_STYLE_FILL_AREA(#269);
#256=SURFACE_STYLE_FILL_AREA(#270);
#257=SURFACE_STYLE_FILL_AREA(#271);
#258=SURFACE_STYLE_FILL_AREA(#272);
#259=SURFACE_STYLE_FILL_AREA(#273);
#260=SURFACE_STYLE_FILL_AREA(#274);
#261=SURFACE_STYLE_FILL_AREA(#275);
#262=SURFACE_STYLE_FILL_AREA(#276);
#263=SURFACE_STYLE_FILL_AREA(#277);
#264=SURFACE_STYLE_FILL_AREA(#278);
#265=SURFACE_STYLE_FILL_AREA(#279);
#266=FILL_AREA_STYLE('',(#280));
#267=FILL_AREA_STYLE('',(#281));
#268=FILL_AREA_STYLE('',(#282));
#269=FILL_AREA_STYLE('',(#283));
#270=FILL_AREA_STYLE('',(#284));
#271=FILL_AREA_STYLE('',(#285));
#272=FILL_AREA_STYLE('',(#286));
#273=FILL_AREA_STYLE('',(#287));
#274=FILL_AREA_STYLE('',(#288));
#275=FILL_AREA_STYLE('',(#289));
#276=FILL_AREA_STYLE('',(#290));
#277=FILL_AREA_STYLE('',(#291));
#278=FILL_AREA_STYLE('',(#292));
#279=FILL_AREA_STYLE('',(#293));
#280=FILL_AREA_STYLE_COLOUR('',#294);
#281=FILL_AREA_STYLE_COLOUR('',#294);
#282=FILL_AREA_STYLE_COLOUR('',#294);
#283=FILL_AREA_STYLE_COLOUR('',#295);
#284=FILL_AREA_STYLE_COLOUR('',#294);
#285=FILL_AREA_STYLE_COLOUR('',#294);
#286=FILL_AREA_STYLE_COLOUR('',#294);
#287=FILL_AREA_STYLE_COLOUR('',#294);
#288=FILL_AREA_STYLE_COLOUR('',#294);
#289=FILL_AREA_STYLE_COLOUR('',#294);
#290=FILL_AREA_STYLE_COLOUR('',#294);
#291=FILL_AREA_STYLE_COLOUR('',#294);
#292=FILL_AREA_STYLE_COLOUR('',#294);
#293=FILL_AREA_STYLE_COLOUR('',#294);
#294=COLOUR_RGB('',0.506983280181885,0.531564235687256,0.550000011920929);
#295=COLOUR_RGB('',0.1875,0.75,0.581249892711639);
#296=ADVANCED_FACE('',(#172),#192,.T.);
#297=ADVANCED_FACE('',(#173),#193,.T.);
#298=ADVANCED_FACE('',(#174),#28,.T.);
#299=ADVANCED_FACE('',(#175,#176),#194,.T.);
#300=ADVANCED_FACE('',(#177,#178),#26,.T.);
#301=ADVANCED_FACE('',(#179),#29,.T.);
#302=ADVANCED_FACE('',(#180),#30,.T.);
#303=ADVANCED_FACE('',(#181,#182),#27,.T.);
#304=ADVANCED_FACE('',(#183,#184),#195,.T.);
#305=ADVANCED_FACE('',(#185),#31,.F.);
#306=ADVANCED_FACE('',(#186),#32,.F.);
#307=ADVANCED_FACE('',(#187),#33,.T.);
#308=ADVANCED_FACE('',(#188,#189),#20,.F.);
#309=ADVANCED_FACE('',(#190,#191),#21,.F.);
#310=CLOSED_SHELL('',(#296,#297,#298,#299,#300,#301,#302,#303,#304,#305,
#306,#307,#308,#309));
#311=MANIFOLD_SOLID_BREP('',#310);
#312=SHAPE_DEFINITION_REPRESENTATION(#478,#313);
#313=SHAPE_REPRESENTATION('777',(#314),#473);
#314=AXIS2_PLACEMENT_3D('',#403,#341,#342);
#315=AXIS2_PLACEMENT_3D('',#404,#343,#344);
#316=AXIS2_PLACEMENT_3D('',#405,#345,#346);
#317=AXIS2_PLACEMENT_3D('',#410,#348,#349);
#318=AXIS2_PLACEMENT_3D('',#413,#351,#352);
#319=AXIS2_PLACEMENT_3D('',#417,#354,#355);
#320=AXIS2_PLACEMENT_3D('',#421,#357,#358);
#321=AXIS2_PLACEMENT_3D('',#422,#359,#360);
#322=AXIS2_PLACEMENT_3D('',#424,#362,#363);
#323=AXIS2_PLACEMENT_3D('',#425,#364,#365);
#324=AXIS2_PLACEMENT_3D('',#427,#366,#367);
#325=AXIS2_PLACEMENT_3D('',#429,#368,#369);
#326=AXIS2_PLACEMENT_3D('',#430,#370,#371);
#327=AXIS2_PLACEMENT_3D('',#432,#372,#373);
#328=AXIS2_PLACEMENT_3D('',#433,#374,#375);
#329=AXIS2_PLACEMENT_3D('',#435,#377,#378);
#330=AXIS2_PLACEMENT_3D('',#436,#379,#380);
#331=AXIS2_PLACEMENT_3D('',#443,#381,#382);
#332=AXIS2_PLACEMENT_3D('',#454,#383,#384);
#333=AXIS2_PLACEMENT_3D('',#460,#385,#386);
#334=AXIS2_PLACEMENT_3D('',#461,#387,#388);
#335=AXIS2_PLACEMENT_3D('',#463,#389,#390);
#336=AXIS2_PLACEMENT_3D('',#465,#391,#392);
#337=AXIS2_PLACEMENT_3D('',#467,#394,#395);
#338=AXIS2_PLACEMENT_3D('',#469,#397,#398);
#339=AXIS2_PLACEMENT_3D('',#470,#399,#400);
#340=AXIS2_PLACEMENT_3D('',#471,#401,#402);
#341=DIRECTION('',(0.,0.,1.));
#342=DIRECTION('',(1.,0.,0.));
#343=DIRECTION('',(-1.,0.,0.));
#344=DIRECTION('',(0.,0.,1.));
#345=DIRECTION('',(-1.,0.,0.));
#346=DIRECTION('',(0.,0.,1.));
#347=DIRECTION('',(-1.,0.,0.));
#348=DIRECTION('',(-1.,0.,0.));
#349=DIRECTION('',(0.,0.,1.));
#350=DIRECTION('',(-1.,0.,0.));
#351=DIRECTION('',(-1.,0.,0.));
#352=DIRECTION('',(0.,0.,1.));
#353=DIRECTION('',(-1.,0.,0.));
#354=DIRECTION('',(-1.,0.,0.));
#355=DIRECTION('',(0.,0.,1.));
#356=DIRECTION('',(-1.,0.,0.));
#357=DIRECTION('',(-1.,0.,0.));
#358=DIRECTION('',(0.,0.,1.));
#359=DIRECTION('',(-1.,0.,0.));
#360=DIRECTION('',(0.,0.,1.));
#361=DIRECTION('',(0.,-1.,0.));
#362=DIRECTION('',(-1.,0.,0.));
#363=DIRECTION('',(0.,0.,1.));
#364=DIRECTION('',(-1.,0.,0.));
#365=DIRECTION('',(0.,0.,1.));
#366=DIRECTION('',(-1.,0.,0.));
#367=DIRECTION('',(0.,0.,1.));
#368=DIRECTION('',(-1.,0.,0.));
#369=DIRECTION('',(0.,0.,1.));
#370=DIRECTION('',(-1.,0.,0.));
#371=DIRECTION('',(0.,0.,1.));
#372=DIRECTION('',(1.,0.,0.));
#373=DIRECTION('',(0.,0.,-1.));
#374=DIRECTION('',(-1.,0.,0.));
#375=DIRECTION('',(0.,0.,1.));
#376=DIRECTION('',(0.,1.,-1.16308323821792E-16));
#377=DIRECTION('',(-1.,0.,0.));
#378=DIRECTION('',(0.,0.,1.));
#379=DIRECTION('',(-1.,0.,0.));
#380=DIRECTION('',(0.,0.,1.));
#381=DIRECTION('',(-1.,0.,0.));
#382=DIRECTION('',(0.,0.,1.));
#383=DIRECTION('',(-1.,0.,0.));
#384=DIRECTION('',(0.,0.,1.));
#385=DIRECTION('',(-1.,0.,0.));
#386=DIRECTION('',(0.,0.,1.));
#387=DIRECTION('',(-1.,0.,0.));
#388=DIRECTION('',(0.,0.,1.));
#389=DIRECTION('',(1.,0.,0.));
#390=DIRECTION('',(0.,0.,-1.));
#391=DIRECTION('',(0.,1.16308323821792E-16,1.));
#392=DIRECTION('',(0.,-1.,1.16308323821792E-16));
#393=DIRECTION('',(0.,1.,-1.16308323821792E-16));
#394=DIRECTION('',(0.,0.,-1.));
#395=DIRECTION('',(-1.,0.,0.));
#396=DIRECTION('',(0.,-1.,0.));
#397=DIRECTION('',(-1.,0.,0.));
#398=DIRECTION('',(0.,0.,1.));
#399=DIRECTION('',(1.,0.,0.));
#400=DIRECTION('',(0.,0.,-1.));
#401=DIRECTION('',(-1.,0.,0.));
#402=DIRECTION('',(0.,0.,1.));
#403=CARTESIAN_POINT('',(0.,0.,0.));
#404=CARTESIAN_POINT('',(0.,0.,0.));
#405=CARTESIAN_POINT('',(0.65,0.,0.));
#406=CARTESIAN_POINT('',(0.65,5.59307607672201,-0.799999999999994));
#407=CARTESIAN_POINT('',(0.649999999999999,-5.593076076722,-0.8));
#408=CARTESIAN_POINT('',(0.85,-5.593076076722,-0.8));
#409=CARTESIAN_POINT('',(0.,-5.593076076722,-0.8));
#410=CARTESIAN_POINT('',(0.,0.,0.));
#411=CARTESIAN_POINT('',(0.,5.59307607672201,-0.799999999999994));
#412=CARTESIAN_POINT('',(0.85,5.59307607672201,-0.799999999999994));
#413=CARTESIAN_POINT('',(0.,0.,0.));
#414=CARTESIAN_POINT('',(0.85,-5.593076076722,0.799999999999998));
#415=CARTESIAN_POINT('',(0.649999999999999,-5.593076076722,0.799999999999998));
#416=CARTESIAN_POINT('',(0.,-5.593076076722,0.799999999999998));
#417=CARTESIAN_POINT('',(0.65,0.,0.));
#418=CARTESIAN_POINT('',(0.65,5.593076076722,0.8));
#419=CARTESIAN_POINT('',(0.85,5.593076076722,0.8));
#420=CARTESIAN_POINT('',(0.,5.593076076722,0.8));
#421=CARTESIAN_POINT('',(0.,0.,0.));
#422=CARTESIAN_POINT('',(0.,0.,0.));
#423=CARTESIAN_POINT('',(0.,5.593076076722,-0.8));
#424=CARTESIAN_POINT('',(0.,0.,0.));
#425=CARTESIAN_POINT('',(23.5857864376269,0.,0.));
#426=CARTESIAN_POINT('',(23.5857864376269,0.,3.));
#427=CARTESIAN_POINT('',(15.,0.,0.));
#428=CARTESIAN_POINT('',(15.,0.,3.));
#429=CARTESIAN_POINT('',(23.5857864376269,0.,0.));
#430=CARTESIAN_POINT('',(25.,0.,0.));
#431=CARTESIAN_POINT('',(25.,0.,1.58578643762691));
#432=CARTESIAN_POINT('',(25.,0.,1.58578643762691));
#433=CARTESIAN_POINT('',(0.,0.,0.));
#434=CARTESIAN_POINT('',(0.,-5.593076076722,0.800000000000001));
#435=CARTESIAN_POINT('',(0.65,0.,0.));
#436=CARTESIAN_POINT('',(3.61066017177983,0.,0.));
#437=CARTESIAN_POINT('',(3.61066017177983,0.,2.68933982822017));
#438=CARTESIAN_POINT('',(0.85,-5.39096466321196,0.800000000000001));
#439=CARTESIAN_POINT('',(0.783346532686078,-5.45834803883298,0.800000000000001));
#440=CARTESIAN_POINT('',(0.716679393996281,-5.52571804852587,0.800000000000001));
#441=CARTESIAN_POINT('',(0.650000000000002,-5.593076076722,0.800000000000001));
#442=CARTESIAN_POINT('',(0.85,-5.39096466321196,0.800000000000001));
#443=CARTESIAN_POINT('',(0.85,0.,0.));
#444=CARTESIAN_POINT('',(0.85,-5.39096466321196,-0.8));
#445=CARTESIAN_POINT('',(0.65,-5.59307607672201,-0.8));
#446=CARTESIAN_POINT('',(0.716679630901911,-5.52571780920911,-0.800000000000001));
#447=CARTESIAN_POINT('',(0.783346778280607,-5.458347790549,-0.800000000000001));
#448=CARTESIAN_POINT('',(0.85,-5.39096466321196,-0.8));
#449=CARTESIAN_POINT('',(0.85,5.39096466321196,-0.8));
#450=CARTESIAN_POINT('',(0.783346532686078,5.45834803883298,-0.8));
#451=CARTESIAN_POINT('',(0.716679393996283,5.52571804852587,-0.8));
#452=CARTESIAN_POINT('',(0.650000000000003,5.593076076722,-0.8));
#453=CARTESIAN_POINT('',(0.85,5.39096466321196,-0.8));
#454=CARTESIAN_POINT('',(0.85,0.,0.));
#455=CARTESIAN_POINT('',(0.85,5.39096466321196,0.8));
#456=CARTESIAN_POINT('',(0.65,5.593076076722,0.8));
#457=CARTESIAN_POINT('',(0.716679630901911,5.52571780920911,0.8));
#458=CARTESIAN_POINT('',(0.783346778280607,5.458347790549,0.8));
#459=CARTESIAN_POINT('',(0.85,5.39096466321196,0.8));
#460=CARTESIAN_POINT('',(0.,0.,0.));
#461=CARTESIAN_POINT('',(4.67132034355965,0.,0.));
#462=CARTESIAN_POINT('',(4.67132034355965,0.,2.24999999999999));
#463=CARTESIAN_POINT('',(13.7009618943233,0.,0.));
#464=CARTESIAN_POINT('',(13.7009618943233,0.,-2.24999999999999));
#465=CARTESIAN_POINT('',(0.85,-5.593076076722,0.800000000000001));
#466=CARTESIAN_POINT('',(0.85,-5.593076076722,0.800000000000001));
#467=CARTESIAN_POINT('',(0.85,5.593076076722,-0.8));
#468=CARTESIAN_POINT('',(0.85,5.593076076722,-0.8));
#469=CARTESIAN_POINT('',(0.85,0.,0.));
#470=CARTESIAN_POINT('',(13.7009618943233,0.,0.));
#471=CARTESIAN_POINT('',(4.67132034355965,0.,0.));
#472=MECHANICAL_DESIGN_GEOMETRIC_PRESENTATION_REPRESENTATION('',(#196,#197,
#198,#199,#200,#201,#202,#203,#204,#205,#206,#207,#208,#209),#473);
#473=(
GEOMETRIC_REPRESENTATION_CONTEXT(3)
GLOBAL_UNCERTAINTY_ASSIGNED_CONTEXT((#474))
GLOBAL_UNIT_ASSIGNED_CONTEXT((#477,#476,#475))
REPRESENTATION_CONTEXT('777','TOP_LEVEL_ASSEMBLY_PART')
);
#474=UNCERTAINTY_MEASURE_WITH_UNIT(LENGTH_MEASURE(0.005),#477,
'DISTANCE_ACCURACY_VALUE','Maximum Tolerance applied to model');
#475=(
NAMED_UNIT(*)
SI_UNIT($,.STERADIAN.)
SOLID_ANGLE_UNIT()
);
#476=(
NAMED_UNIT(*)
PLANE_ANGLE_UNIT()
SI_UNIT($,.RADIAN.)
);
#477=(
LENGTH_UNIT()
NAMED_UNIT(*)
SI_UNIT(.MILLI.,.METRE.)
);
#478=PRODUCT_DEFINITION_SHAPE('','',#479);
#479=PRODUCT_DEFINITION('','',#481,#480);
#480=PRODUCT_DEFINITION_CONTEXT('',#487,'design');
#481=PRODUCT_DEFINITION_FORMATION_WITH_SPECIFIED_SOURCE('','',#483,
 .NOT_KNOWN.);
#482=PRODUCT_RELATED_PRODUCT_CATEGORY('','',(#483));
#483=PRODUCT('777','777','777',(#485));
#484=PRODUCT_CATEGORY('','');
#485=PRODUCT_CONTEXT('',#487,'mechanical');
#486=APPLICATION_PROTOCOL_DEFINITION('international standard',
'automotive_design',2010,#487);
#487=APPLICATION_CONTEXT(
'core data for automotive mechanical design processes');
ENDSEC;
END-ISO-10303-21;
