ISO-10303-21;
HEADER;
/* Generated by software containing HOOPS Exchange Step
 * from HOOPS Exchange, Inc. (www.tiangong.cloud) 
 */

FILE_DESCRIPTION(
/* description */ ('Unknown'),
/* implementation_level */ '2;1');

FILE_NAME(
/* name */ 
'\X2\53415B5769FD76D8593487BA9489548C5F397C2757AB57087EC454084EF6\X0\ 
GBT9074.3-1988',
/* time_stamp */ '2025-12-25T09:25:48+08:00',
/* author */ ('Unknown'),
/* organization */ ('Unknown'),
/* preprocessor_version */ 'ST-DEVELOPER v19.4',
/* originating_system */ 'TianGong',
/* authorisation */ 'Unknown');

FILE_SCHEMA (('AUTOMOTIVE_DESIGN {1 0 10303 214 3 1 1}'));
ENDSEC;

DATA;
#10=PROPERTY_DEFINITION_REPRESENTATION(#14,#12);
#11=PROPERTY_DEFINITION_REPRESENTATION(#15,#13);
#12=REPRESENTATION('',(#16),#913);
#13=REPRESENTATION('',(#17),#913);
#14=PROPERTY_DEFINITION('pmi validation property','',#918);
#15=PROPERTY_DEFINITION('pmi validation property','',#918);
#16=VALUE_REPRESENTATION_ITEM('number of annotations',COUNT_MEASURE(0.));
#17=VALUE_REPRESENTATION_ITEM('number of views',COUNT_MEASURE(0.));
#18=CONICAL_SURFACE('',#632,1.5,0.785398163397447);
#19=SPHERICAL_SURFACE('',#610,6.52313161895144);
#20=SHAPE_REPRESENTATION_RELATIONSHIP('','',#593,#21);
#21=ADVANCED_BREP_SHAPE_REPRESENTATION('',(#590,#591),#913);
#22=LINE('',#798,#53);
#23=LINE('',#802,#54);
#24=LINE('',#808,#55);
#25=LINE('',#812,#56);
#26=LINE('',#813,#57);
#27=LINE('',#815,#58);
#28=LINE('',#817,#59);
#29=LINE('',#848,#60);
#30=LINE('',#851,#61);
#31=LINE('',#852,#62);
#32=LINE('',#854,#63);
#33=LINE('',#856,#64);
#34=LINE('',#858,#65);
#35=LINE('',#860,#66);
#36=LINE('',#862,#67);
#37=LINE('',#864,#68);
#38=LINE('',#866,#69);
#39=LINE('',#869,#70);
#40=LINE('',#870,#71);
#41=LINE('',#888,#72);
#42=LINE('',#890,#73);
#43=LINE('',#892,#74);
#44=LINE('',#894,#75);
#45=LINE('',#896,#76);
#46=LINE('',#897,#77);
#47=LINE('',#899,#78);
#48=LINE('',#901,#79);
#49=LINE('',#903,#80);
#50=LINE('',#905,#81);
#51=LINE('',#908,#82);
#52=LINE('',#909,#83);
#53=VECTOR('',#662,1000.);
#54=VECTOR('',#665,1000.);
#55=VECTOR('',#672,1000.);
#56=VECTOR('',#677,1000.);
#57=VECTOR('',#678,1000.);
#58=VECTOR('',#679,1000.);
#59=VECTOR('',#682,1000.);
#60=VECTOR('',#717,1000.);
#61=VECTOR('',#718,1000.);
#62=VECTOR('',#719,1000.);
#63=VECTOR('',#722,1000.);
#64=VECTOR('',#723,1000.);
#65=VECTOR('',#724,1000.);
#66=VECTOR('',#727,1000.);
#67=VECTOR('',#728,1000.);
#68=VECTOR('',#729,1000.);
#69=VECTOR('',#732,1000.);
#70=VECTOR('',#733,1000.);
#71=VECTOR('',#734,1000.);
#72=VECTOR('',#759,1000.);
#73=VECTOR('',#762,1000.);
#74=VECTOR('',#765,1000.);
#75=VECTOR('',#766,1000.);
#76=VECTOR('',#767,1000.);
#77=VECTOR('',#768,1000.);
#78=VECTOR('',#769,1000.);
#79=VECTOR('',#770,1000.);
#80=VECTOR('',#773,1000.);
#81=VECTOR('',#776,1000.);
#82=VECTOR('',#781,1000.);
#83=VECTOR('',#782,1000.);
#84=PLANE('',#600);
#85=PLANE('',#606);
#86=PLANE('',#607);
#87=PLANE('',#608);
#88=PLANE('',#609);
#89=PLANE('',#624);
#90=PLANE('',#625);
#91=PLANE('',#626);
#92=PLANE('',#627);
#93=PLANE('',#628);
#94=PLANE('',#636);
#95=PLANE('',#639);
#96=PLANE('',#640);
#97=PLANE('',#641);
#98=PLANE('',#642);
#99=PLANE('',#643);
#100=PLANE('',#644);
#101=PLANE('',#645);
#102=PLANE('',#646);
#103=PLANE('',#647);
#104=CIRCLE('',#597,3.);
#105=CIRCLE('',#599,3.);
#106=CIRCLE('',#601,1.5);
#107=CIRCLE('',#605,1.5);
#108=CIRCLE('',#611,3.);
#109=CIRCLE('',#612,6.51234375);
#110=CIRCLE('',#613,6.51234375);
#111=CIRCLE('',#614,6.34832624541021);
#112=CIRCLE('',#615,6.51234375);
#113=CIRCLE('',#616,6.51234375);
#114=CIRCLE('',#617,6.34832624541021);
#115=CIRCLE('',#618,6.51234375);
#116=CIRCLE('',#619,6.51234375);
#117=CIRCLE('',#620,6.34832624541021);
#118=CIRCLE('',#621,6.51234375);
#119=CIRCLE('',#622,6.51234375);
#120=CIRCLE('',#623,6.34832624541021);
#121=CIRCLE('',#629,1.49999999999999);
#122=CIRCLE('',#631,1.5);
#123=CIRCLE('',#633,1.40000000000001);
#124=CIRCLE('',#635,1.40000000000001);
#125=CIRCLE('',#637,3.);
#126=ORIENTED_EDGE('',*,*,#240,.F.);
#127=ORIENTED_EDGE('',*,*,#241,.T.);
#128=ORIENTED_EDGE('',*,*,#242,.F.);
#129=ORIENTED_EDGE('',*,*,#243,.F.);
#130=ORIENTED_EDGE('',*,*,#244,.T.);
#131=ORIENTED_EDGE('',*,*,#245,.T.);
#132=ORIENTED_EDGE('',*,*,#246,.F.);
#133=ORIENTED_EDGE('',*,*,#241,.F.);
#134=ORIENTED_EDGE('',*,*,#247,.F.);
#135=ORIENTED_EDGE('',*,*,#245,.F.);
#136=ORIENTED_EDGE('',*,*,#248,.F.);
#137=ORIENTED_EDGE('',*,*,#249,.F.);
#138=ORIENTED_EDGE('',*,*,#250,.T.);
#139=ORIENTED_EDGE('',*,*,#251,.F.);
#140=ORIENTED_EDGE('',*,*,#250,.F.);
#141=ORIENTED_EDGE('',*,*,#252,.F.);
#142=ORIENTED_EDGE('',*,*,#253,.F.);
#143=ORIENTED_EDGE('',*,*,#243,.T.);
#144=ORIENTED_EDGE('',*,*,#248,.T.);
#145=ORIENTED_EDGE('',*,*,#244,.F.);
#146=ORIENTED_EDGE('',*,*,#240,.T.);
#147=ORIENTED_EDGE('',*,*,#253,.T.);
#148=ORIENTED_EDGE('',*,*,#254,.T.);
#149=ORIENTED_EDGE('',*,*,#249,.T.);
#150=ORIENTED_EDGE('',*,*,#254,.F.);
#151=ORIENTED_EDGE('',*,*,#252,.T.);
#152=ORIENTED_EDGE('',*,*,#242,.T.);
#153=ORIENTED_EDGE('',*,*,#246,.T.);
#154=ORIENTED_EDGE('',*,*,#247,.T.);
#155=ORIENTED_EDGE('',*,*,#251,.T.);
#156=ORIENTED_EDGE('',*,*,#255,.T.);
#157=ORIENTED_EDGE('',*,*,#256,.F.);
#158=ORIENTED_EDGE('',*,*,#257,.F.);
#159=ORIENTED_EDGE('',*,*,#258,.F.);
#160=ORIENTED_EDGE('',*,*,#259,.F.);
#161=ORIENTED_EDGE('',*,*,#260,.F.);
#162=ORIENTED_EDGE('',*,*,#261,.F.);
#163=ORIENTED_EDGE('',*,*,#262,.F.);
#164=ORIENTED_EDGE('',*,*,#263,.F.);
#165=ORIENTED_EDGE('',*,*,#264,.F.);
#166=ORIENTED_EDGE('',*,*,#265,.F.);
#167=ORIENTED_EDGE('',*,*,#266,.F.);
#168=ORIENTED_EDGE('',*,*,#267,.F.);
#169=ORIENTED_EDGE('',*,*,#268,.T.);
#170=ORIENTED_EDGE('',*,*,#269,.T.);
#171=ORIENTED_EDGE('',*,*,#259,.T.);
#172=ORIENTED_EDGE('',*,*,#270,.F.);
#173=ORIENTED_EDGE('',*,*,#263,.T.);
#174=ORIENTED_EDGE('',*,*,#271,.T.);
#175=ORIENTED_EDGE('',*,*,#272,.T.);
#176=ORIENTED_EDGE('',*,*,#273,.T.);
#177=ORIENTED_EDGE('',*,*,#257,.T.);
#178=ORIENTED_EDGE('',*,*,#274,.T.);
#179=ORIENTED_EDGE('',*,*,#275,.T.);
#180=ORIENTED_EDGE('',*,*,#276,.T.);
#181=ORIENTED_EDGE('',*,*,#277,.T.);
#182=ORIENTED_EDGE('',*,*,#278,.T.);
#183=ORIENTED_EDGE('',*,*,#265,.T.);
#184=ORIENTED_EDGE('',*,*,#279,.F.);
#185=ORIENTED_EDGE('',*,*,#280,.F.);
#186=ORIENTED_EDGE('',*,*,#281,.F.);
#187=ORIENTED_EDGE('',*,*,#280,.T.);
#188=ORIENTED_EDGE('',*,*,#282,.F.);
#189=ORIENTED_EDGE('',*,*,#281,.T.);
#190=ORIENTED_EDGE('',*,*,#283,.F.);
#191=ORIENTED_EDGE('',*,*,#282,.T.);
#192=ORIENTED_EDGE('',*,*,#284,.F.);
#193=ORIENTED_EDGE('',*,*,#283,.T.);
#194=ORIENTED_EDGE('',*,*,#255,.F.);
#195=ORIENTED_EDGE('',*,*,#284,.T.);
#196=ORIENTED_EDGE('',*,*,#258,.T.);
#197=ORIENTED_EDGE('',*,*,#276,.F.);
#198=ORIENTED_EDGE('',*,*,#285,.T.);
#199=ORIENTED_EDGE('',*,*,#270,.T.);
#200=ORIENTED_EDGE('',*,*,#264,.T.);
#201=ORIENTED_EDGE('',*,*,#273,.F.);
#202=ORIENTED_EDGE('',*,*,#286,.T.);
#203=ORIENTED_EDGE('',*,*,#279,.T.);
#204=ORIENTED_EDGE('',*,*,#272,.F.);
#205=ORIENTED_EDGE('',*,*,#287,.F.);
#206=ORIENTED_EDGE('',*,*,#288,.F.);
#207=ORIENTED_EDGE('',*,*,#289,.F.);
#208=ORIENTED_EDGE('',*,*,#268,.F.);
#209=ORIENTED_EDGE('',*,*,#285,.F.);
#210=ORIENTED_EDGE('',*,*,#275,.F.);
#211=ORIENTED_EDGE('',*,*,#290,.F.);
#212=ORIENTED_EDGE('',*,*,#291,.F.);
#213=ORIENTED_EDGE('',*,*,#292,.F.);
#214=ORIENTED_EDGE('',*,*,#277,.F.);
#215=ORIENTED_EDGE('',*,*,#286,.F.);
#216=ORIENTED_EDGE('',*,*,#266,.T.);
#217=ORIENTED_EDGE('',*,*,#278,.F.);
#218=ORIENTED_EDGE('',*,*,#292,.T.);
#219=ORIENTED_EDGE('',*,*,#293,.T.);
#220=ORIENTED_EDGE('',*,*,#256,.T.);
#221=ORIENTED_EDGE('',*,*,#294,.F.);
#222=ORIENTED_EDGE('',*,*,#290,.T.);
#223=ORIENTED_EDGE('',*,*,#274,.F.);
#224=ORIENTED_EDGE('',*,*,#267,.T.);
#225=ORIENTED_EDGE('',*,*,#293,.F.);
#226=ORIENTED_EDGE('',*,*,#291,.T.);
#227=ORIENTED_EDGE('',*,*,#294,.T.);
#228=ORIENTED_EDGE('',*,*,#261,.T.);
#229=ORIENTED_EDGE('',*,*,#295,.F.);
#230=ORIENTED_EDGE('',*,*,#288,.T.);
#231=ORIENTED_EDGE('',*,*,#296,.T.);
#232=ORIENTED_EDGE('',*,*,#260,.T.);
#233=ORIENTED_EDGE('',*,*,#269,.F.);
#234=ORIENTED_EDGE('',*,*,#289,.T.);
#235=ORIENTED_EDGE('',*,*,#295,.T.);
#236=ORIENTED_EDGE('',*,*,#262,.T.);
#237=ORIENTED_EDGE('',*,*,#296,.F.);
#238=ORIENTED_EDGE('',*,*,#287,.T.);
#239=ORIENTED_EDGE('',*,*,#271,.F.);
#240=EDGE_CURVE('',#297,#298,#337,.F.);
#241=EDGE_CURVE('',#297,#299,#104,.T.);
#242=EDGE_CURVE('',#300,#299,#338,.F.);
#243=EDGE_CURVE('',#298,#300,#105,.T.);
#244=EDGE_CURVE('',#297,#301,#22,.T.);
#245=EDGE_CURVE('',#301,#302,#106,.T.);
#246=EDGE_CURVE('',#299,#302,#23,.T.);
#247=EDGE_CURVE('',#302,#303,#339,.T.);
#248=EDGE_CURVE('',#304,#301,#340,.T.);
#249=EDGE_CURVE('',#305,#304,#24,.F.);
#250=EDGE_CURVE('',#305,#303,#107,.T.);
#251=EDGE_CURVE('',#303,#300,#25,.T.);
#252=EDGE_CURVE('',#306,#305,#26,.T.);
#253=EDGE_CURVE('',#298,#306,#27,.T.);
#254=EDGE_CURVE('',#306,#304,#28,.T.);
#255=EDGE_CURVE('',#307,#307,#108,.T.);
#256=EDGE_CURVE('',#308,#309,#109,.T.);
#257=EDGE_CURVE('',#310,#308,#110,.T.);
#258=EDGE_CURVE('',#311,#310,#111,.T.);
#259=EDGE_CURVE('',#312,#311,#112,.T.);
#260=EDGE_CURVE('',#313,#312,#113,.T.);
#261=EDGE_CURVE('',#314,#313,#114,.T.);
#262=EDGE_CURVE('',#315,#314,#115,.T.);
#263=EDGE_CURVE('',#316,#315,#116,.T.);
#264=EDGE_CURVE('',#317,#316,#117,.T.);
#265=EDGE_CURVE('',#318,#317,#118,.T.);
#266=EDGE_CURVE('',#319,#318,#119,.T.);
#267=EDGE_CURVE('',#309,#319,#120,.T.);
#268=EDGE_CURVE('',#320,#321,#29,.T.);
#269=EDGE_CURVE('',#321,#312,#30,.T.);
#270=EDGE_CURVE('',#320,#311,#31,.T.);
#271=EDGE_CURVE('',#315,#322,#32,.T.);
#272=EDGE_CURVE('',#322,#323,#33,.T.);
#273=EDGE_CURVE('',#323,#316,#34,.T.);
#274=EDGE_CURVE('',#308,#324,#35,.T.);
#275=EDGE_CURVE('',#324,#325,#36,.T.);
#276=EDGE_CURVE('',#325,#310,#37,.T.);
#277=EDGE_CURVE('',#326,#327,#38,.T.);
#278=EDGE_CURVE('',#327,#318,#39,.T.);
#279=EDGE_CURVE('',#326,#317,#40,.T.);
#280=EDGE_CURVE('',#328,#328,#121,.T.);
#281=EDGE_CURVE('',#329,#329,#122,.T.);
#282=EDGE_CURVE('',#330,#330,#123,.T.);
#283=EDGE_CURVE('',#331,#331,#124,.T.);
#284=EDGE_CURVE('',#332,#332,#125,.T.);
#285=EDGE_CURVE('',#325,#320,#41,.T.);
#286=EDGE_CURVE('',#323,#326,#42,.T.);
#287=EDGE_CURVE('',#333,#322,#43,.T.);
#288=EDGE_CURVE('',#334,#333,#44,.T.);
#289=EDGE_CURVE('',#321,#334,#45,.T.);
#290=EDGE_CURVE('',#335,#324,#46,.T.);
#291=EDGE_CURVE('',#336,#335,#47,.T.);
#292=EDGE_CURVE('',#327,#336,#48,.T.);
#293=EDGE_CURVE('',#336,#319,#49,.T.);
#294=EDGE_CURVE('',#335,#309,#50,.T.);
#295=EDGE_CURVE('',#334,#313,#51,.T.);
#296=EDGE_CURVE('',#333,#314,#52,.T.);
#297=VERTEX_POINT('',#790);
#298=VERTEX_POINT('',#791);
#299=VERTEX_POINT('',#793);
#300=VERTEX_POINT('',#795);
#301=VERTEX_POINT('',#799);
#302=VERTEX_POINT('',#801);
#303=VERTEX_POINT('',#805);
#304=VERTEX_POINT('',#807);
#305=VERTEX_POINT('',#809);
#306=VERTEX_POINT('',#814);
#307=VERTEX_POINT('',#822);
#308=VERTEX_POINT('',#824);
#309=VERTEX_POINT('',#825);
#310=VERTEX_POINT('',#827);
#311=VERTEX_POINT('',#829);
#312=VERTEX_POINT('',#831);
#313=VERTEX_POINT('',#833);
#314=VERTEX_POINT('',#835);
#315=VERTEX_POINT('',#837);
#316=VERTEX_POINT('',#839);
#317=VERTEX_POINT('',#841);
#318=VERTEX_POINT('',#843);
#319=VERTEX_POINT('',#845);
#320=VERTEX_POINT('',#849);
#321=VERTEX_POINT('',#850);
#322=VERTEX_POINT('',#855);
#323=VERTEX_POINT('',#857);
#324=VERTEX_POINT('',#861);
#325=VERTEX_POINT('',#863);
#326=VERTEX_POINT('',#867);
#327=VERTEX_POINT('',#868);
#328=VERTEX_POINT('',#873);
#329=VERTEX_POINT('',#876);
#330=VERTEX_POINT('',#879);
#331=VERTEX_POINT('',#882);
#332=VERTEX_POINT('',#885);
#333=VERTEX_POINT('',#893);
#334=VERTEX_POINT('',#895);
#335=VERTEX_POINT('',#898);
#336=VERTEX_POINT('',#900);
#337=ELLIPSE('',#596,11.5911099154687,3.);
#338=ELLIPSE('',#598,11.5911099154687,3.);
#339=ELLIPSE('',#603,5.79555495773435,1.5);
#340=ELLIPSE('',#604,5.79555495773435,1.5);
#341=EDGE_LOOP('',(#126,#127,#128,#129));
#342=EDGE_LOOP('',(#130,#131,#132,#133));
#343=EDGE_LOOP('',(#134,#135,#136,#137,#138));
#344=EDGE_LOOP('',(#139,#140,#141,#142,#143));
#345=EDGE_LOOP('',(#144,#145,#146,#147,#148));
#346=EDGE_LOOP('',(#149,#150,#151));
#347=EDGE_LOOP('',(#152,#153,#154,#155));
#348=EDGE_LOOP('',(#156));
#349=EDGE_LOOP('',(#157,#158,#159,#160,#161,#162,#163,#164,#165,#166,#167,
#168));
#350=EDGE_LOOP('',(#169,#170,#171,#172));
#351=EDGE_LOOP('',(#173,#174,#175,#176));
#352=EDGE_LOOP('',(#177,#178,#179,#180));
#353=EDGE_LOOP('',(#181,#182,#183,#184));
#354=EDGE_LOOP('',(#185));
#355=EDGE_LOOP('',(#186));
#356=EDGE_LOOP('',(#187));
#357=EDGE_LOOP('',(#188));
#358=EDGE_LOOP('',(#189));
#359=EDGE_LOOP('',(#190));
#360=EDGE_LOOP('',(#191));
#361=EDGE_LOOP('',(#192));
#362=EDGE_LOOP('',(#193));
#363=EDGE_LOOP('',(#194));
#364=EDGE_LOOP('',(#195));
#365=EDGE_LOOP('',(#196,#197,#198,#199));
#366=EDGE_LOOP('',(#200,#201,#202,#203));
#367=EDGE_LOOP('',(#204,#205,#206,#207,#208,#209,#210,#211,#212,#213,#214,
#215));
#368=EDGE_LOOP('',(#216,#217,#218,#219));
#369=EDGE_LOOP('',(#220,#221,#222,#223));
#370=EDGE_LOOP('',(#224,#225,#226,#227));
#371=EDGE_LOOP('',(#228,#229,#230,#231));
#372=EDGE_LOOP('',(#232,#233,#234,#235));
#373=EDGE_LOOP('',(#236,#237,#238,#239));
#374=FACE_BOUND('',#341,.T.);
#375=FACE_BOUND('',#342,.T.);
#376=FACE_BOUND('',#343,.T.);
#377=FACE_BOUND('',#344,.T.);
#378=FACE_BOUND('',#345,.T.);
#379=FACE_BOUND('',#346,.T.);
#380=FACE_BOUND('',#347,.T.);
#381=FACE_BOUND('',#348,.T.);
#382=FACE_BOUND('',#349,.T.);
#383=FACE_BOUND('',#350,.T.);
#384=FACE_BOUND('',#351,.T.);
#385=FACE_BOUND('',#352,.T.);
#386=FACE_BOUND('',#353,.T.);
#387=FACE_BOUND('',#354,.T.);
#388=FACE_BOUND('',#355,.T.);
#389=FACE_BOUND('',#356,.T.);
#390=FACE_BOUND('',#357,.T.);
#391=FACE_BOUND('',#358,.T.);
#392=FACE_BOUND('',#359,.T.);
#393=FACE_BOUND('',#360,.T.);
#394=FACE_BOUND('',#361,.T.);
#395=FACE_BOUND('',#362,.T.);
#396=FACE_BOUND('',#363,.T.);
#397=FACE_BOUND('',#364,.T.);
#398=FACE_BOUND('',#365,.T.);
#399=FACE_BOUND('',#366,.T.);
#400=FACE_BOUND('',#367,.T.);
#401=FACE_BOUND('',#368,.T.);
#402=FACE_BOUND('',#369,.T.);
#403=FACE_BOUND('',#370,.T.);
#404=FACE_BOUND('',#371,.T.);
#405=FACE_BOUND('',#372,.T.);
#406=FACE_BOUND('',#373,.T.);
#407=CYLINDRICAL_SURFACE('',#595,3.);
#408=CYLINDRICAL_SURFACE('',#602,1.5);
#409=CYLINDRICAL_SURFACE('',#630,1.49999999999999);
#410=CYLINDRICAL_SURFACE('',#634,1.40000000000001);
#411=CYLINDRICAL_SURFACE('',#638,3.);
#412=ADVANCED_FACE('',(#374),#407,.T.);
#413=ADVANCED_FACE('',(#375),#84,.T.);
#414=ADVANCED_FACE('',(#376),#408,.F.);
#415=ADVANCED_FACE('',(#377),#85,.T.);
#416=ADVANCED_FACE('',(#378),#86,.F.);
#417=ADVANCED_FACE('',(#379),#87,.F.);
#418=ADVANCED_FACE('',(#380),#88,.F.);
#419=ADVANCED_FACE('',(#381,#382),#19,.T.);
#420=ADVANCED_FACE('',(#383),#89,.T.);
#421=ADVANCED_FACE('',(#384),#90,.T.);
#422=ADVANCED_FACE('',(#385),#91,.T.);
#423=ADVANCED_FACE('',(#386),#92,.T.);
#424=ADVANCED_FACE('',(#387),#93,.F.);
#425=ADVANCED_FACE('',(#388,#389),#409,.T.);
#426=ADVANCED_FACE('',(#390,#391),#18,.T.);
#427=ADVANCED_FACE('',(#392,#393),#410,.T.);
#428=ADVANCED_FACE('',(#394,#395),#94,.F.);
#429=ADVANCED_FACE('',(#396,#397),#411,.T.);
#430=ADVANCED_FACE('',(#398),#95,.T.);
#431=ADVANCED_FACE('',(#399),#96,.T.);
#432=ADVANCED_FACE('',(#400),#97,.F.);
#433=ADVANCED_FACE('',(#401),#98,.T.);
#434=ADVANCED_FACE('',(#402),#99,.T.);
#435=ADVANCED_FACE('',(#403),#100,.T.);
#436=ADVANCED_FACE('',(#404),#101,.T.);
#437=ADVANCED_FACE('',(#405),#102,.T.);
#438=ADVANCED_FACE('',(#406),#103,.T.);
#439=CLOSED_SHELL('',(#412,#413,#414,#415,#416,#417,#418));
#440=CLOSED_SHELL('',(#419,#420,#421,#422,#423,#424,#425,#426,#427,#428,
#429,#430,#431,#432,#433,#434,#435,#436,#437,#438));
#441=STYLED_ITEM('',(#462),#590);
#442=STYLED_ITEM('',(#463),#419);
#443=STYLED_ITEM('',(#464),#420);
#444=STYLED_ITEM('',(#465),#421);
#445=STYLED_ITEM('',(#466),#422);
#446=STYLED_ITEM('',(#467),#423);
#447=STYLED_ITEM('',(#468),#424);
#448=STYLED_ITEM('',(#469),#425);
#449=STYLED_ITEM('',(#470),#426);
#450=STYLED_ITEM('',(#471),#427);
#451=STYLED_ITEM('',(#472),#428);
#452=STYLED_ITEM('',(#473),#429);
#453=STYLED_ITEM('',(#474),#430);
#454=STYLED_ITEM('',(#475),#431);
#455=STYLED_ITEM('',(#476),#432);
#456=STYLED_ITEM('',(#477),#433);
#457=STYLED_ITEM('',(#478),#434);
#458=STYLED_ITEM('',(#479),#435);
#459=STYLED_ITEM('',(#480),#436);
#460=STYLED_ITEM('',(#481),#437);
#461=STYLED_ITEM('',(#482),#438);
#462=PRESENTATION_STYLE_ASSIGNMENT((#483));
#463=PRESENTATION_STYLE_ASSIGNMENT((#484));
#464=PRESENTATION_STYLE_ASSIGNMENT((#485));
#465=PRESENTATION_STYLE_ASSIGNMENT((#486));
#466=PRESENTATION_STYLE_ASSIGNMENT((#487));
#467=PRESENTATION_STYLE_ASSIGNMENT((#488));
#468=PRESENTATION_STYLE_ASSIGNMENT((#489));
#469=PRESENTATION_STYLE_ASSIGNMENT((#490));
#470=PRESENTATION_STYLE_ASSIGNMENT((#491));
#471=PRESENTATION_STYLE_ASSIGNMENT((#492));
#472=PRESENTATION_STYLE_ASSIGNMENT((#493));
#473=PRESENTATION_STYLE_ASSIGNMENT((#494));
#474=PRESENTATION_STYLE_ASSIGNMENT((#495));
#475=PRESENTATION_STYLE_ASSIGNMENT((#496));
#476=PRESENTATION_STYLE_ASSIGNMENT((#497));
#477=PRESENTATION_STYLE_ASSIGNMENT((#498));
#478=PRESENTATION_STYLE_ASSIGNMENT((#499));
#479=PRESENTATION_STYLE_ASSIGNMENT((#500));
#480=PRESENTATION_STYLE_ASSIGNMENT((#501));
#481=PRESENTATION_STYLE_ASSIGNMENT((#502));
#482=PRESENTATION_STYLE_ASSIGNMENT((#503));
#483=SURFACE_STYLE_USAGE(.BOTH.,#504);
#484=SURFACE_STYLE_USAGE(.BOTH.,#505);
#485=SURFACE_STYLE_USAGE(.BOTH.,#506);
#486=SURFACE_STYLE_USAGE(.BOTH.,#507);
#487=SURFACE_STYLE_USAGE(.BOTH.,#508);
#488=SURFACE_STYLE_USAGE(.BOTH.,#509);
#489=SURFACE_STYLE_USAGE(.BOTH.,#510);
#490=SURFACE_STYLE_USAGE(.BOTH.,#511);
#491=SURFACE_STYLE_USAGE(.BOTH.,#512);
#492=SURFACE_STYLE_USAGE(.BOTH.,#513);
#493=SURFACE_STYLE_USAGE(.BOTH.,#514);
#494=SURFACE_STYLE_USAGE(.BOTH.,#515);
#495=SURFACE_STYLE_USAGE(.BOTH.,#516);
#496=SURFACE_STYLE_USAGE(.BOTH.,#517);
#497=SURFACE_STYLE_USAGE(.BOTH.,#518);
#498=SURFACE_STYLE_USAGE(.BOTH.,#519);
#499=SURFACE_STYLE_USAGE(.BOTH.,#520);
#500=SURFACE_STYLE_USAGE(.BOTH.,#521);
#501=SURFACE_STYLE_USAGE(.BOTH.,#522);
#502=SURFACE_STYLE_USAGE(.BOTH.,#523);
#503=SURFACE_STYLE_USAGE(.BOTH.,#524);
#504=SURFACE_SIDE_STYLE('',(#525));
#505=SURFACE_SIDE_STYLE('',(#526));
#506=SURFACE_SIDE_STYLE('',(#527));
#507=SURFACE_SIDE_STYLE('',(#528));
#508=SURFACE_SIDE_STYLE('',(#529));
#509=SURFACE_SIDE_STYLE('',(#530));
#510=SURFACE_SIDE_STYLE('',(#531));
#511=SURFACE_SIDE_STYLE('',(#532));
#512=SURFACE_SIDE_STYLE('',(#533));
#513=SURFACE_SIDE_STYLE('',(#534));
#514=SURFACE_SIDE_STYLE('',(#535));
#515=SURFACE_SIDE_STYLE('',(#536));
#516=SURFACE_SIDE_STYLE('',(#537));
#517=SURFACE_SIDE_STYLE('',(#538));
#518=SURFACE_SIDE_STYLE('',(#539));
#519=SURFACE_SIDE_STYLE('',(#540));
#520=SURFACE_SIDE_STYLE('',(#541));
#521=SURFACE_SIDE_STYLE('',(#542));
#522=SURFACE_SIDE_STYLE('',(#543));
#523=SURFACE_SIDE_STYLE('',(#544));
#524=SURFACE_SIDE_STYLE('',(#545));
#525=SURFACE_STYLE_FILL_AREA(#546);
#526=SURFACE_STYLE_FILL_AREA(#547);
#527=SURFACE_STYLE_FILL_AREA(#548);
#528=SURFACE_STYLE_FILL_AREA(#549);
#529=SURFACE_STYLE_FILL_AREA(#550);
#530=SURFACE_STYLE_FILL_AREA(#551);
#531=SURFACE_STYLE_FILL_AREA(#552);
#532=SURFACE_STYLE_FILL_AREA(#553);
#533=SURFACE_STYLE_FILL_AREA(#554);
#534=SURFACE_STYLE_FILL_AREA(#555);
#535=SURFACE_STYLE_FILL_AREA(#556);
#536=SURFACE_STYLE_FILL_AREA(#557);
#537=SURFACE_STYLE_FILL_AREA(#558);
#538=SURFACE_STYLE_FILL_AREA(#559);
#539=SURFACE_STYLE_FILL_AREA(#560);
#540=SURFACE_STYLE_FILL_AREA(#561);
#541=SURFACE_STYLE_FILL_AREA(#562);
#542=SURFACE_STYLE_FILL_AREA(#563);
#543=SURFACE_STYLE_FILL_AREA(#564);
#544=SURFACE_STYLE_FILL_AREA(#565);
#545=SURFACE_STYLE_FILL_AREA(#566);
#546=FILL_AREA_STYLE('',(#567));
#547=FILL_AREA_STYLE('',(#568));
#548=FILL_AREA_STYLE('',(#569));
#549=FILL_AREA_STYLE('',(#570));
#550=FILL_AREA_STYLE('',(#571));
#551=FILL_AREA_STYLE('',(#572));
#552=FILL_AREA_STYLE('',(#573));
#553=FILL_AREA_STYLE('',(#574));
#554=FILL_AREA_STYLE('',(#575));
#555=FILL_AREA_STYLE('',(#576));
#556=FILL_AREA_STYLE('',(#577));
#557=FILL_AREA_STYLE('',(#578));
#558=FILL_AREA_STYLE('',(#579));
#559=FILL_AREA_STYLE('',(#580));
#560=FILL_AREA_STYLE('',(#581));
#561=FILL_AREA_STYLE('',(#582));
#562=FILL_AREA_STYLE('',(#583));
#563=FILL_AREA_STYLE('',(#584));
#564=FILL_AREA_STYLE('',(#585));
#565=FILL_AREA_STYLE('',(#586));
#566=FILL_AREA_STYLE('',(#587));
#567=FILL_AREA_STYLE_COLOUR('',#588);
#568=FILL_AREA_STYLE_COLOUR('',#588);
#569=FILL_AREA_STYLE_COLOUR('',#588);
#570=FILL_AREA_STYLE_COLOUR('',#588);
#571=FILL_AREA_STYLE_COLOUR('',#588);
#572=FILL_AREA_STYLE_COLOUR('',#588);
#573=FILL_AREA_STYLE_COLOUR('',#588);
#574=FILL_AREA_STYLE_COLOUR('',#589);
#575=FILL_AREA_STYLE_COLOUR('',#588);
#576=FILL_AREA_STYLE_COLOUR('',#588);
#577=FILL_AREA_STYLE_COLOUR('',#588);
#578=FILL_AREA_STYLE_COLOUR('',#588);
#579=FILL_AREA_STYLE_COLOUR('',#588);
#580=FILL_AREA_STYLE_COLOUR('',#588);
#581=FILL_AREA_STYLE_COLOUR('',#588);
#582=FILL_AREA_STYLE_COLOUR('',#588);
#583=FILL_AREA_STYLE_COLOUR('',#588);
#584=FILL_AREA_STYLE_COLOUR('',#588);
#585=FILL_AREA_STYLE_COLOUR('',#588);
#586=FILL_AREA_STYLE_COLOUR('',#588);
#587=FILL_AREA_STYLE_COLOUR('',#588);
#588=COLOUR_RGB('',0.506983280181885,0.531564235687256,0.550000011920929);
#589=COLOUR_RGB('',0.1875,0.75,0.581249892711639);
#590=MANIFOLD_SOLID_BREP('',#439);
#591=MANIFOLD_SOLID_BREP('',#440);
#592=SHAPE_DEFINITION_REPRESENTATION(#918,#593);
#593=SHAPE_REPRESENTATION(
'\X2\53415B5769FD76D8593487BA9489548C5F397C2757AB57087EC454084EF6\X0\ 
GBT9074.3-1988',(#594),#913);
#594=AXIS2_PLACEMENT_3D('',#787,#648,#649);
#595=AXIS2_PLACEMENT_3D('',#788,#650,#651);
#596=AXIS2_PLACEMENT_3D('',#789,#652,#653);
#597=AXIS2_PLACEMENT_3D('',#792,#654,#655);
#598=AXIS2_PLACEMENT_3D('',#794,#656,#657);
#599=AXIS2_PLACEMENT_3D('',#796,#658,#659);
#600=AXIS2_PLACEMENT_3D('',#797,#660,#661);
#601=AXIS2_PLACEMENT_3D('',#800,#663,#664);
#602=AXIS2_PLACEMENT_3D('',#803,#666,#667);
#603=AXIS2_PLACEMENT_3D('',#804,#668,#669);
#604=AXIS2_PLACEMENT_3D('',#806,#670,#671);
#605=AXIS2_PLACEMENT_3D('',#810,#673,#674);
#606=AXIS2_PLACEMENT_3D('',#811,#675,#676);
#607=AXIS2_PLACEMENT_3D('',#816,#680,#681);
#608=AXIS2_PLACEMENT_3D('',#818,#683,#684);
#609=AXIS2_PLACEMENT_3D('',#819,#685,#686);
#610=AXIS2_PLACEMENT_3D('',#820,#687,#688);
#611=AXIS2_PLACEMENT_3D('',#821,#689,#690);
#612=AXIS2_PLACEMENT_3D('',#823,#691,#692);
#613=AXIS2_PLACEMENT_3D('',#826,#693,#694);
#614=AXIS2_PLACEMENT_3D('',#828,#695,#696);
#615=AXIS2_PLACEMENT_3D('',#830,#697,#698);
#616=AXIS2_PLACEMENT_3D('',#832,#699,#700);
#617=AXIS2_PLACEMENT_3D('',#834,#701,#702);
#618=AXIS2_PLACEMENT_3D('',#836,#703,#704);
#619=AXIS2_PLACEMENT_3D('',#838,#705,#706);
#620=AXIS2_PLACEMENT_3D('',#840,#707,#708);
#621=AXIS2_PLACEMENT_3D('',#842,#709,#710);
#622=AXIS2_PLACEMENT_3D('',#844,#711,#712);
#623=AXIS2_PLACEMENT_3D('',#846,#713,#714);
#624=AXIS2_PLACEMENT_3D('',#847,#715,#716);
#625=AXIS2_PLACEMENT_3D('',#853,#720,#721);
#626=AXIS2_PLACEMENT_3D('',#859,#725,#726);
#627=AXIS2_PLACEMENT_3D('',#865,#730,#731);
#628=AXIS2_PLACEMENT_3D('',#871,#735,#736);
#629=AXIS2_PLACEMENT_3D('',#872,#737,#738);
#630=AXIS2_PLACEMENT_3D('',#874,#739,#740);
#631=AXIS2_PLACEMENT_3D('',#875,#741,#742);
#632=AXIS2_PLACEMENT_3D('',#877,#743,#744);
#633=AXIS2_PLACEMENT_3D('',#878,#745,#746);
#634=AXIS2_PLACEMENT_3D('',#880,#747,#748);
#635=AXIS2_PLACEMENT_3D('',#881,#749,#750);
#636=AXIS2_PLACEMENT_3D('',#883,#751,#752);
#637=AXIS2_PLACEMENT_3D('',#884,#753,#754);
#638=AXIS2_PLACEMENT_3D('',#886,#755,#756);
#639=AXIS2_PLACEMENT_3D('',#887,#757,#758);
#640=AXIS2_PLACEMENT_3D('',#889,#760,#761);
#641=AXIS2_PLACEMENT_3D('',#891,#763,#764);
#642=AXIS2_PLACEMENT_3D('',#902,#771,#772);
#643=AXIS2_PLACEMENT_3D('',#904,#774,#775);
#644=AXIS2_PLACEMENT_3D('',#906,#777,#778);
#645=AXIS2_PLACEMENT_3D('',#907,#779,#780);
#646=AXIS2_PLACEMENT_3D('',#910,#783,#784);
#647=AXIS2_PLACEMENT_3D('',#911,#785,#786);
#648=DIRECTION('',(0.,0.,1.));
#649=DIRECTION('',(1.,0.,0.));
#650=DIRECTION('',(-1.,0.,0.));
#651=DIRECTION('',(0.,0.,1.));
#652=DIRECTION('',(0.258819045102524,0.965925826289068,0.));
#653=DIRECTION('',(-0.965925826289068,0.258819045102524,0.));
#654=DIRECTION('',(-1.,0.,0.));
#655=DIRECTION('',(0.,0.,1.));
#656=DIRECTION('',(-0.258819045102524,-0.965925826289068,0.));
#657=DIRECTION('',(-0.965925826289068,0.258819045102524,0.));
#658=DIRECTION('',(-1.,0.,0.));
#659=DIRECTION('',(0.,0.,1.));
#660=DIRECTION('',(1.,0.,0.));
#661=DIRECTION('',(0.,0.,-1.));
#662=DIRECTION('',(0.,0.,-1.));
#663=DIRECTION('',(-1.,0.,0.));
#664=DIRECTION('',(0.,0.,1.));
#665=DIRECTION('',(0.,0.,-1.));
#666=DIRECTION('',(-1.,0.,0.));
#667=DIRECTION('',(0.,0.,1.));
#668=DIRECTION('',(-0.258819045102524,-0.965925826289068,0.));
#669=DIRECTION('',(-0.965925826289068,0.258819045102524,0.));
#670=DIRECTION('',(0.258819045102524,0.965925826289068,0.));
#671=DIRECTION('',(-0.965925826289068,0.258819045102524,0.));
#672=DIRECTION('',(-1.,0.,0.));
#673=DIRECTION('',(-1.,0.,0.));
#674=DIRECTION('',(0.,0.,1.));
#675=DIRECTION('',(-1.,0.,0.));
#676=DIRECTION('',(0.,0.,1.));
#677=DIRECTION('',(0.,0.,1.));
#678=DIRECTION('',(0.,-1.,0.));
#679=DIRECTION('',(0.,0.,-1.));
#680=DIRECTION('',(0.258819045102524,0.965925826289068,0.));
#681=DIRECTION('',(-0.965925826289068,0.258819045102524,0.));
#682=DIRECTION('',(0.965925826289068,-0.258819045102524,0.));
#683=DIRECTION('',(0.,0.,-1.));
#684=DIRECTION('',(-1.,0.,0.));
#685=DIRECTION('',(-0.258819045102524,-0.965925826289068,0.));
#686=DIRECTION('',(0.965925826289068,-0.258819045102524,0.));
#687=DIRECTION('',(-1.,0.,0.));
#688=DIRECTION('',(0.,0.,1.));
#689=DIRECTION('',(-1.,0.,0.));
#690=DIRECTION('',(0.,0.,1.));
#691=DIRECTION('',(0.,1.26490253456642E-16,-1.));
#692=DIRECTION('',(0.,1.,1.26490253456642E-16));
#693=DIRECTION('',(0.,-1.,-1.62630325872826E-16));
#694=DIRECTION('',(0.,1.62630325872826E-16,-1.));
#695=DIRECTION('',(0.,0.,-1.));
#696=DIRECTION('',(-1.,0.,0.));
#697=DIRECTION('',(0.,1.,2.89120579329468E-16));
#698=DIRECTION('',(0.,-2.89120579329468E-16,1.));
#699=DIRECTION('',(0.,1.26490253456642E-16,-1.));
#700=DIRECTION('',(0.,1.,1.26490253456642E-16));
#701=DIRECTION('',(0.,1.,2.89120579329468E-16));
#702=DIRECTION('',(0.,-2.89120579329468E-16,1.));
#703=DIRECTION('',(0.,-1.80700362080917E-17,1.));
#704=DIRECTION('',(0.,-1.,-1.80700362080917E-17));
#705=DIRECTION('',(0.,1.,2.89120579329468E-16));
#706=DIRECTION('',(0.,-2.89120579329468E-16,1.));
#707=DIRECTION('',(0.,0.,1.));
#708=DIRECTION('',(1.,0.,0.));
#709=DIRECTION('',(0.,-1.,-1.62630325872826E-16));
#710=DIRECTION('',(0.,1.62630325872826E-16,-1.));
#711=DIRECTION('',(0.,-1.80700362080917E-17,1.));
#712=DIRECTION('',(0.,-1.,-1.80700362080917E-17));
#713=DIRECTION('',(0.,-1.,-2.89120579329468E-16));
#714=DIRECTION('',(0.,2.89120579329468E-16,-1.));
#715=DIRECTION('',(0.,1.,2.89120579329468E-16));
#716=DIRECTION('',(0.,-2.89120579329468E-16,1.));
#717=DIRECTION('',(1.77029449233836E-32,2.89120579329468E-16,-1.));
#718=DIRECTION('',(-1.,0.,0.));
#719=DIRECTION('',(-1.,0.,0.));
#720=DIRECTION('',(0.,1.,2.89120579329468E-16));
#721=DIRECTION('',(0.,-2.89120579329468E-16,1.));
#722=DIRECTION('',(1.,0.,0.));
#723=DIRECTION('',(1.77029449233836E-32,2.89120579329468E-16,-1.));
#724=DIRECTION('',(-1.,0.,0.));
#725=DIRECTION('',(0.,-1.,-1.62630325872826E-16));
#726=DIRECTION('',(0.,1.62630325872826E-16,-1.));
#727=DIRECTION('',(1.,0.,0.));
#728=DIRECTION('',(-9.9579065194033E-33,-1.62630325872826E-16,1.));
#729=DIRECTION('',(-1.,0.,0.));
#730=DIRECTION('',(0.,-1.,-1.62630325872826E-16));
#731=DIRECTION('',(0.,1.62630325872826E-16,-1.));
#732=DIRECTION('',(-9.9579065194033E-33,-1.62630325872826E-16,1.));
#733=DIRECTION('',(-1.,0.,0.));
#734=DIRECTION('',(-1.,0.,0.));
#735=DIRECTION('',(-1.,0.,0.));
#736=DIRECTION('',(0.,0.,1.));
#737=DIRECTION('',(-1.,0.,0.));
#738=DIRECTION('',(0.,0.,1.));
#739=DIRECTION('',(-1.,0.,0.));
#740=DIRECTION('',(0.,0.,1.));
#741=DIRECTION('',(-1.,0.,0.));
#742=DIRECTION('',(0.,0.,1.));
#743=DIRECTION('',(1.,0.,0.));
#744=DIRECTION('',(0.,0.,-1.));
#745=DIRECTION('',(-1.,0.,0.));
#746=DIRECTION('',(0.,0.,1.));
#747=DIRECTION('',(-1.,0.,0.));
#748=DIRECTION('',(0.,0.,1.));
#749=DIRECTION('',(-1.,0.,0.));
#750=DIRECTION('',(0.,0.,1.));
#751=DIRECTION('',(-1.,0.,0.));
#752=DIRECTION('',(0.,0.,1.));
#753=DIRECTION('',(-1.,0.,0.));
#754=DIRECTION('',(0.,0.,1.));
#755=DIRECTION('',(-1.,0.,0.));
#756=DIRECTION('',(0.,0.,1.));
#757=DIRECTION('',(0.,0.,-1.));
#758=DIRECTION('',(-1.,0.,0.));
#759=DIRECTION('',(-6.12303176911189E-17,-1.,0.));
#760=DIRECTION('',(0.,0.,1.));
#761=DIRECTION('',(1.,0.,0.));
#762=DIRECTION('',(6.12303176911189E-17,1.,0.));
#763=DIRECTION('',(1.,-6.12303176911189E-17,0.));
#764=DIRECTION('',(6.12303176911189E-17,1.,0.));
#765=DIRECTION('',(6.12303176911189E-17,1.,1.80700362080917E-17));
#766=DIRECTION('',(1.77029449233836E-32,2.89120579329468E-16,-1.));
#767=DIRECTION('',(-6.12303176911189E-17,-1.,-1.26490253456642E-16));
#768=DIRECTION('',(-6.12303176911189E-17,-1.,-1.26490253456642E-16));
#769=DIRECTION('',(-1.77029449233836E-32,-2.89120579329468E-16,1.));
#770=DIRECTION('',(6.12303176911189E-17,1.,1.80700362080917E-17));
#771=DIRECTION('',(0.,-1.80700362080917E-17,1.));
#772=DIRECTION('',(0.,-1.,-1.80700362080917E-17));
#773=DIRECTION('',(-1.,0.,0.));
#774=DIRECTION('',(0.,1.26490253456642E-16,-1.));
#775=DIRECTION('',(0.,1.,1.26490253456642E-16));
#776=DIRECTION('',(-1.,0.,0.));
#777=DIRECTION('',(0.,-1.,-2.89120579329468E-16));
#778=DIRECTION('',(0.,2.89120579329468E-16,-1.));
#779=DIRECTION('',(0.,1.,2.89120579329468E-16));
#780=DIRECTION('',(0.,-2.89120579329468E-16,1.));
#781=DIRECTION('',(-1.,0.,0.));
#782=DIRECTION('',(-1.,0.,0.));
#783=DIRECTION('',(0.,1.26490253456642E-16,-1.));
#784=DIRECTION('',(0.,1.,1.26490253456642E-16));
#785=DIRECTION('',(0.,-1.80700362080917E-17,1.));
#786=DIRECTION('',(0.,-1.,-1.80700362080917E-17));
#787=CARTESIAN_POINT('',(0.,0.,0.));
#788=CARTESIAN_POINT('',(0.,0.,0.));
#789=CARTESIAN_POINT('',(2.06980762113534,0.,0.));
#790=CARTESIAN_POINT('',(1.51,0.150000000000003,2.99624765331573));
#791=CARTESIAN_POINT('',(0.01,0.551923788646692,2.94879299570619));
#792=CARTESIAN_POINT('',(1.51,0.,0.));
#793=CARTESIAN_POINT('',(1.51000000000001,-0.15,2.99624765331573));
#794=CARTESIAN_POINT('',(0.950192378864686,0.,0.));
#795=CARTESIAN_POINT('',(0.01,0.251923788646692,2.98940368714463));
#796=CARTESIAN_POINT('',(0.01,0.,0.));
#797=CARTESIAN_POINT('',(1.51,0.,3.));
#798=CARTESIAN_POINT('',(1.51000000000001,0.15,14.8139985376878));
#799=CARTESIAN_POINT('',(1.51000000000001,0.15,1.49248115565993));
#800=CARTESIAN_POINT('',(1.51,0.,0.));
#801=CARTESIAN_POINT('',(1.51000000000001,-0.15,1.49248115565993));
#802=CARTESIAN_POINT('',(1.51000000000001,-0.15,14.8139985376878));
#803=CARTESIAN_POINT('',(0.,0.,0.));
#804=CARTESIAN_POINT('',(0.950192378864686,0.,0.));
#805=CARTESIAN_POINT('',(0.0100000000000002,0.251923788646692,1.47869347895833));
#806=CARTESIAN_POINT('',(2.06980762113534,0.,0.));
#807=CARTESIAN_POINT('',(0.0600367543995791,0.53851648071345,1.4));
#808=CARTESIAN_POINT('',(0.,0.53851648071345,1.4));
#809=CARTESIAN_POINT('',(0.0100000000000002,0.53851648071345,1.4));
#810=CARTESIAN_POINT('',(0.0100000000000002,0.,0.));
#811=CARTESIAN_POINT('',(0.0100000000000001,0.,3.));
#812=CARTESIAN_POINT('',(0.0100000000000001,0.251923788646692,3.));
#813=CARTESIAN_POINT('',(0.0100000000000001,0.,1.4));
#814=CARTESIAN_POINT('',(0.0100000000000001,0.551923788646692,1.4));
#815=CARTESIAN_POINT('',(0.0100000000000001,0.551923788646692,3.));
#816=CARTESIAN_POINT('',(1.51000000000001,0.15,14.8139985376878));
#817=CARTESIAN_POINT('',(1.51000000000001,0.15,1.4));
#818=CARTESIAN_POINT('',(0.,0.,1.4));
#819=CARTESIAN_POINT('',(1.51000000000001,-0.15,14.8139985376878));
#820=CARTESIAN_POINT('',(4.11234375,0.,0.));
#821=CARTESIAN_POINT('',(-1.68,0.,0.));
#822=CARTESIAN_POINT('',(-1.68,0.,3.));
#823=CARTESIAN_POINT('',(4.11234375,-4.74338450462408E-17,0.375));
#824=CARTESIAN_POINT('',(-2.38919423098297,0.375,0.375));
#825=CARTESIAN_POINT('',(-2.22489706270106,1.5,0.375));
#826=CARTESIAN_POINT('',(4.11234375,0.375,6.09863722023096E-17));
#827=CARTESIAN_POINT('',(-2.22489706270106,0.375,1.5));
#828=CARTESIAN_POINT('',(4.11234375,0.,1.5));
#829=CARTESIAN_POINT('',(-2.22489706270106,-0.375,1.5));
#830=CARTESIAN_POINT('',(4.11234375,-0.375,-1.0842021724855E-16));
#831=CARTESIAN_POINT('',(-2.38919423098297,-0.375,0.375));
#832=CARTESIAN_POINT('',(4.11234375,-4.74338450462408E-17,0.375));
#833=CARTESIAN_POINT('',(-2.22489706270106,-1.5,0.375));
#834=CARTESIAN_POINT('',(4.11234375,-1.5,-4.33680868994202E-16));
#835=CARTESIAN_POINT('',(-2.22489706270106,-1.5,-0.375));
#836=CARTESIAN_POINT('',(4.11234375,6.77626357803441E-18,-0.375));
#837=CARTESIAN_POINT('',(-2.38919423098297,-0.375,-0.375));
#838=CARTESIAN_POINT('',(4.11234375,-0.375,-1.0842021724855E-16));
#839=CARTESIAN_POINT('',(-2.22489706270106,-0.374999999999999,-1.5));
#840=CARTESIAN_POINT('',(4.11234375,0.,-1.5));
#841=CARTESIAN_POINT('',(-2.22489706270106,0.375,-1.5));
#842=CARTESIAN_POINT('',(4.11234375,0.375,6.09863722023096E-17));
#843=CARTESIAN_POINT('',(-2.38919423098297,0.375,-0.375));
#844=CARTESIAN_POINT('',(4.11234375,6.77626357803441E-18,-0.375));
#845=CARTESIAN_POINT('',(-2.22489706270106,1.5,-0.375));
#846=CARTESIAN_POINT('',(4.11234375,1.5,4.33680868994202E-16));
#847=CARTESIAN_POINT('',(-1.92,-0.375,1.5));
#848=CARTESIAN_POINT('',(-1.92,-0.375,1.5));
#849=CARTESIAN_POINT('',(-1.92,-0.375,1.5));
#850=CARTESIAN_POINT('',(-1.92,-0.375,0.375));
#851=CARTESIAN_POINT('',(-1.92,-0.375,0.375));
#852=CARTESIAN_POINT('',(-1.92,-0.375,1.5));
#853=CARTESIAN_POINT('',(-1.92,-0.375,1.5));
#854=CARTESIAN_POINT('',(-1.92,-0.375,-0.375));
#855=CARTESIAN_POINT('',(-1.92,-0.375,-0.375));
#856=CARTESIAN_POINT('',(-1.92,-0.375,1.5));
#857=CARTESIAN_POINT('',(-1.92,-0.374999999999999,-1.5));
#858=CARTESIAN_POINT('',(-1.92,-0.374999999999999,-1.5));
#859=CARTESIAN_POINT('',(-1.92,0.375,-1.5));
#860=CARTESIAN_POINT('',(-1.92,0.375,0.375));
#861=CARTESIAN_POINT('',(-1.92,0.375,0.375));
#862=CARTESIAN_POINT('',(-1.92,0.375,-1.5));
#863=CARTESIAN_POINT('',(-1.92,0.375,1.5));
#864=CARTESIAN_POINT('',(-1.92,0.375,1.5));
#865=CARTESIAN_POINT('',(-1.92,0.375,-1.5));
#866=CARTESIAN_POINT('',(-1.92,0.375,-1.5));
#867=CARTESIAN_POINT('',(-1.92,0.375,-1.5));
#868=CARTESIAN_POINT('',(-1.92,0.375,-0.375));
#869=CARTESIAN_POINT('',(-1.92,0.375,-0.375));
#870=CARTESIAN_POINT('',(-1.92,0.375,-1.5));
#871=CARTESIAN_POINT('',(8.00000000000001,0.,0.));
#872=CARTESIAN_POINT('',(8.00000000000001,0.,0.));
#873=CARTESIAN_POINT('',(8.00000000000001,0.,1.49999999999999));
#874=CARTESIAN_POINT('',(0.,0.,0.));
#875=CARTESIAN_POINT('',(2.5,0.,0.));
#876=CARTESIAN_POINT('',(2.5,0.,1.5));
#877=CARTESIAN_POINT('',(2.5,0.,0.));
#878=CARTESIAN_POINT('',(2.40000000000001,0.,0.));
#879=CARTESIAN_POINT('',(2.40000000000001,0.,1.40000000000001));
#880=CARTESIAN_POINT('',(0.,0.,0.));
#881=CARTESIAN_POINT('',(0.,0.,0.));
#882=CARTESIAN_POINT('',(0.,0.,1.40000000000001));
#883=CARTESIAN_POINT('',(0.,0.,0.));
#884=CARTESIAN_POINT('',(0.,0.,0.));
#885=CARTESIAN_POINT('',(0.,0.,3.));
#886=CARTESIAN_POINT('',(0.,0.,0.));
#887=CARTESIAN_POINT('',(-1.92,0.375,1.5));
#888=CARTESIAN_POINT('',(-1.92,0.375,1.5));
#889=CARTESIAN_POINT('',(-1.92,-0.374999999999999,-1.5));
#890=CARTESIAN_POINT('',(-1.92,-0.374999999999999,-1.5));
#891=CARTESIAN_POINT('',(-1.92,1.46952762458685E-16,0.));
#892=CARTESIAN_POINT('',(-1.92,-1.5,-0.375));
#893=CARTESIAN_POINT('',(-1.92,-1.5,-0.375));
#894=CARTESIAN_POINT('',(-1.92,-1.5,0.375));
#895=CARTESIAN_POINT('',(-1.92,-1.5,0.375));
#896=CARTESIAN_POINT('',(-1.92,1.5,0.375));
#897=CARTESIAN_POINT('',(-1.92,1.5,0.375));
#898=CARTESIAN_POINT('',(-1.92,1.5,0.375));
#899=CARTESIAN_POINT('',(-1.92,1.5,-0.375));
#900=CARTESIAN_POINT('',(-1.92,1.5,-0.375));
#901=CARTESIAN_POINT('',(-1.92,-1.5,-0.375));
#902=CARTESIAN_POINT('',(-1.92,-1.5,-0.375));
#903=CARTESIAN_POINT('',(-1.92,1.5,-0.375));
#904=CARTESIAN_POINT('',(-1.92,1.5,0.375));
#905=CARTESIAN_POINT('',(-1.92,1.5,0.375));
#906=CARTESIAN_POINT('',(-1.92,1.5,-0.375));
#907=CARTESIAN_POINT('',(-1.92,-1.5,0.375));
#908=CARTESIAN_POINT('',(-1.92,-1.5,0.375));
#909=CARTESIAN_POINT('',(-1.92,-1.5,-0.375));
#910=CARTESIAN_POINT('',(-1.92,1.5,0.375));
#911=CARTESIAN_POINT('',(-1.92,-1.5,-0.375));
#912=MECHANICAL_DESIGN_GEOMETRIC_PRESENTATION_REPRESENTATION('',(#441,#442,
#443,#444,#445,#446,#447,#448,#449,#450,#451,#452,#453,#454,#455,#456,#457,
#458,#459,#460,#461),#913);
#913=(
GEOMETRIC_REPRESENTATION_CONTEXT(3)
GLOBAL_UNCERTAINTY_ASSIGNED_CONTEXT((#914))
GLOBAL_UNIT_ASSIGNED_CONTEXT((#917,#916,#915))
REPRESENTATION_CONTEXT(
'\X2\53415B5769FD76D8593487BA9489548C5F397C2757AB57087EC454084EF6\X0\ 
GBT9074.3-1988','TOP_LEVEL_ASSEMBLY_PART')
);
#914=UNCERTAINTY_MEASURE_WITH_UNIT(LENGTH_MEASURE(0.005),#917,
'DISTANCE_ACCURACY_VALUE','Maximum Tolerance applied to model');
#915=(
NAMED_UNIT(*)
SI_UNIT($,.STERADIAN.)
SOLID_ANGLE_UNIT()
);
#916=(
NAMED_UNIT(*)
PLANE_ANGLE_UNIT()
SI_UNIT($,.RADIAN.)
);
#917=(
LENGTH_UNIT()
NAMED_UNIT(*)
SI_UNIT(.MILLI.,.METRE.)
);
#918=PRODUCT_DEFINITION_SHAPE('','',#919);
#919=PRODUCT_DEFINITION('','',#921,#920);
#920=PRODUCT_DEFINITION_CONTEXT('',#927,'design');
#921=PRODUCT_DEFINITION_FORMATION_WITH_SPECIFIED_SOURCE('','',#923,
 .NOT_KNOWN.);
#922=PRODUCT_RELATED_PRODUCT_CATEGORY('','',(#923));
#923=PRODUCT(
'\X2\53415B5769FD76D8593487BA9489548C5F397C2757AB57087EC454084EF6\X0\ 
GBT9074.3-1988',
'\X2\53415B5769FD76D8593487BA9489548C5F397C2757AB57087EC454084EF6\X0\ 
GBT9074.3-1988',
'\X2\53415B5769FD76D8593487BA9489548C5F397C2757AB57087EC454084EF6\X0\ 
GBT9074.3-1988',(#925));
#924=PRODUCT_CATEGORY('','');
#925=PRODUCT_CONTEXT('',#927,'mechanical');
#926=APPLICATION_PROTOCOL_DEFINITION('international standard',
'automotive_design',2010,#927);
#927=APPLICATION_CONTEXT(
'core data for automotive mechanical design processes');
ENDSEC;
END-ISO-10303-21;
