ISO-10303-21;
HEADER;
/* Generated by software containing HOOPS Exchange Step
 * from HOOPS Exchange, Inc. (www.tiangong.cloud) 
 */

FILE_DESCRIPTION(
/* description */ ('Unknown'),
/* implementation_level */ '2;1');

FILE_NAME(
/* name */ 'yc',
/* time_stamp */ '2025-12-09T17:01:04+08:00',
/* author */ ('Unknown'),
/* organization */ ('Unknown'),
/* preprocessor_version */ 'ST-DEVELOPER v19.4',
/* originating_system */ 'TianGong',
/* authorisation */ 'Unknown');

FILE_SCHEMA (('AUTOMOTIVE_DESIGN {1 0 10303 214 3 1 1}'));
ENDSEC;

DATA;
#10=PROPERTY_DEFINITION_REPRESENTATION(#14,#12);
#11=PROPERTY_DEFINITION_REPRESENTATION(#15,#13);
#12=REPRESENTATION('',(#16),#515);
#13=REPRESENTATION('',(#17),#515);
#14=PROPERTY_DEFINITION('pmi validation property','',#520);
#15=PROPERTY_DEFINITION('pmi validation property','',#520);
#16=VALUE_REPRESENTATION_ITEM('number of annotations',COUNT_MEASURE(0.));
#17=VALUE_REPRESENTATION_ITEM('number of views',COUNT_MEASURE(0.));
#18=SHAPE_REPRESENTATION_RELATIONSHIP('','',#279,#19);
#19=ADVANCED_BREP_SHAPE_REPRESENTATION('',(#277),#515);
#20=TOROIDAL_SURFACE('',#322,1.54999999999999,0.1);
#21=VERTEX_LOOP('',#186);
#22=CONICAL_SURFACE('',#310,1.44999999999999,0.508729824315551);
#23=DEGENERATE_TOROIDAL_SURFACE('',#303,0.467857142857157,3.26785714285716,
 .F.);
#24=PLANE('',#296);
#25=PLANE('',#305);
#26=PLANE('',#311);
#27=LINE('',#466,#29);
#28=LINE('',#480,#30);
#29=VECTOR('',#347,1000.);
#30=VECTOR('',#356,1000.);
#31=CIRCLE('',#282,1.4);
#32=CIRCLE('',#283,1.4);
#33=CIRCLE('',#285,1.4);
#34=CIRCLE('',#286,1.4);
#35=CIRCLE('',#288,1.4);
#36=CIRCLE('',#289,1.4);
#37=CIRCLE('',#291,1.4);
#38=CIRCLE('',#292,1.4);
#39=CIRCLE('',#294,1.4);
#40=CIRCLE('',#295,1.4);
#41=CIRCLE('',#297,0.56);
#42=CIRCLE('',#298,0.56);
#43=CIRCLE('',#299,0.56);
#44=CIRCLE('',#300,0.56);
#45=CIRCLE('',#301,0.56);
#46=CIRCLE('',#302,1.75);
#47=CIRCLE('',#304,2.8);
#48=CIRCLE('',#306,1.54999999999999);
#49=CIRCLE('',#308,1.44999999999999);
#50=CIRCLE('',#309,1.44999999999999);
#51=CIRCLE('',#312,0.56);
#52=CIRCLE('',#313,0.56);
#53=CIRCLE('',#314,0.56);
#54=CIRCLE('',#315,0.56);
#55=CIRCLE('',#316,0.56);
#56=ORIENTED_EDGE('',*,*,#126,.F.);
#57=ORIENTED_EDGE('',*,*,#127,.F.);
#58=ORIENTED_EDGE('',*,*,#128,.T.);
#59=ORIENTED_EDGE('',*,*,#129,.T.);
#60=ORIENTED_EDGE('',*,*,#130,.F.);
#61=ORIENTED_EDGE('',*,*,#131,.F.);
#62=ORIENTED_EDGE('',*,*,#132,.T.);
#63=ORIENTED_EDGE('',*,*,#133,.T.);
#64=ORIENTED_EDGE('',*,*,#134,.F.);
#65=ORIENTED_EDGE('',*,*,#135,.F.);
#66=ORIENTED_EDGE('',*,*,#136,.T.);
#67=ORIENTED_EDGE('',*,*,#137,.T.);
#68=ORIENTED_EDGE('',*,*,#138,.F.);
#69=ORIENTED_EDGE('',*,*,#139,.F.);
#70=ORIENTED_EDGE('',*,*,#140,.T.);
#71=ORIENTED_EDGE('',*,*,#141,.T.);
#72=ORIENTED_EDGE('',*,*,#142,.F.);
#73=ORIENTED_EDGE('',*,*,#143,.T.);
#74=ORIENTED_EDGE('',*,*,#144,.T.);
#75=ORIENTED_EDGE('',*,*,#145,.F.);
#76=ORIENTED_EDGE('',*,*,#141,.F.);
#77=ORIENTED_EDGE('',*,*,#146,.T.);
#78=ORIENTED_EDGE('',*,*,#144,.F.);
#79=ORIENTED_EDGE('',*,*,#147,.T.);
#80=ORIENTED_EDGE('',*,*,#129,.F.);
#81=ORIENTED_EDGE('',*,*,#148,.T.);
#82=ORIENTED_EDGE('',*,*,#133,.F.);
#83=ORIENTED_EDGE('',*,*,#149,.T.);
#84=ORIENTED_EDGE('',*,*,#137,.F.);
#85=ORIENTED_EDGE('',*,*,#150,.T.);
#86=ORIENTED_EDGE('',*,*,#151,.T.);
#87=ORIENTED_EDGE('',*,*,#152,.T.);
#88=ORIENTED_EDGE('',*,*,#151,.F.);
#89=ORIENTED_EDGE('',*,*,#153,.T.);
#90=ORIENTED_EDGE('',*,*,#152,.F.);
#91=ORIENTED_EDGE('',*,*,#154,.T.);
#92=ORIENTED_EDGE('',*,*,#155,.T.);
#93=ORIENTED_EDGE('',*,*,#155,.F.);
#94=ORIENTED_EDGE('',*,*,#156,.F.);
#95=ORIENTED_EDGE('',*,*,#142,.T.);
#96=ORIENTED_EDGE('',*,*,#157,.F.);
#97=ORIENTED_EDGE('',*,*,#139,.T.);
#98=ORIENTED_EDGE('',*,*,#158,.F.);
#99=ORIENTED_EDGE('',*,*,#135,.T.);
#100=ORIENTED_EDGE('',*,*,#159,.F.);
#101=ORIENTED_EDGE('',*,*,#131,.T.);
#102=ORIENTED_EDGE('',*,*,#160,.F.);
#103=ORIENTED_EDGE('',*,*,#127,.T.);
#104=ORIENTED_EDGE('',*,*,#146,.F.);
#105=ORIENTED_EDGE('',*,*,#140,.F.);
#106=ORIENTED_EDGE('',*,*,#157,.T.);
#107=ORIENTED_EDGE('',*,*,#145,.T.);
#108=ORIENTED_EDGE('',*,*,#150,.F.);
#109=ORIENTED_EDGE('',*,*,#136,.F.);
#110=ORIENTED_EDGE('',*,*,#158,.T.);
#111=ORIENTED_EDGE('',*,*,#138,.T.);
#112=ORIENTED_EDGE('',*,*,#149,.F.);
#113=ORIENTED_EDGE('',*,*,#132,.F.);
#114=ORIENTED_EDGE('',*,*,#159,.T.);
#115=ORIENTED_EDGE('',*,*,#134,.T.);
#116=ORIENTED_EDGE('',*,*,#148,.F.);
#117=ORIENTED_EDGE('',*,*,#128,.F.);
#118=ORIENTED_EDGE('',*,*,#160,.T.);
#119=ORIENTED_EDGE('',*,*,#130,.T.);
#120=ORIENTED_EDGE('',*,*,#147,.F.);
#121=ORIENTED_EDGE('',*,*,#143,.F.);
#122=ORIENTED_EDGE('',*,*,#156,.T.);
#123=ORIENTED_EDGE('',*,*,#126,.T.);
#124=ORIENTED_EDGE('',*,*,#154,.F.);
#125=ORIENTED_EDGE('',*,*,#153,.F.);
#126=EDGE_CURVE('',#161,#162,#187,.T.);
#127=EDGE_CURVE('',#163,#161,#31,.T.);
#128=EDGE_CURVE('',#163,#164,#188,.T.);
#129=EDGE_CURVE('',#164,#162,#32,.T.);
#130=EDGE_CURVE('',#165,#166,#189,.T.);
#131=EDGE_CURVE('',#167,#165,#33,.T.);
#132=EDGE_CURVE('',#167,#168,#190,.T.);
#133=EDGE_CURVE('',#168,#166,#34,.T.);
#134=EDGE_CURVE('',#169,#170,#191,.T.);
#135=EDGE_CURVE('',#171,#169,#35,.T.);
#136=EDGE_CURVE('',#171,#172,#192,.T.);
#137=EDGE_CURVE('',#172,#170,#36,.T.);
#138=EDGE_CURVE('',#173,#174,#193,.T.);
#139=EDGE_CURVE('',#175,#173,#37,.T.);
#140=EDGE_CURVE('',#175,#176,#27,.T.);
#141=EDGE_CURVE('',#176,#174,#38,.T.);
#142=EDGE_CURVE('',#177,#178,#39,.T.);
#143=EDGE_CURVE('',#177,#179,#194,.T.);
#144=EDGE_CURVE('',#179,#180,#40,.T.);
#145=EDGE_CURVE('',#178,#180,#28,.T.);
#146=EDGE_CURVE('',#176,#180,#41,.T.);
#147=EDGE_CURVE('',#179,#162,#42,.T.);
#148=EDGE_CURVE('',#164,#166,#43,.T.);
#149=EDGE_CURVE('',#168,#170,#44,.T.);
#150=EDGE_CURVE('',#172,#174,#45,.T.);
#151=EDGE_CURVE('',#181,#181,#46,.T.);
#152=EDGE_CURVE('',#182,#182,#47,.T.);
#153=EDGE_CURVE('',#183,#183,#48,.F.);
#154=EDGE_CURVE('',#184,#184,#49,.T.);
#155=EDGE_CURVE('',#185,#185,#50,.T.);
#156=EDGE_CURVE('',#177,#161,#51,.T.);
#157=EDGE_CURVE('',#175,#178,#52,.T.);
#158=EDGE_CURVE('',#171,#173,#53,.T.);
#159=EDGE_CURVE('',#167,#169,#54,.T.);
#160=EDGE_CURVE('',#163,#165,#55,.T.);
#161=VERTEX_POINT('',#417);
#162=VERTEX_POINT('',#418);
#163=VERTEX_POINT('',#420);
#164=VERTEX_POINT('',#425);
#165=VERTEX_POINT('',#432);
#166=VERTEX_POINT('',#433);
#167=VERTEX_POINT('',#435);
#168=VERTEX_POINT('',#440);
#169=VERTEX_POINT('',#447);
#170=VERTEX_POINT('',#448);
#171=VERTEX_POINT('',#450);
#172=VERTEX_POINT('',#455);
#173=VERTEX_POINT('',#462);
#174=VERTEX_POINT('',#463);
#175=VERTEX_POINT('',#465);
#176=VERTEX_POINT('',#467);
#177=VERTEX_POINT('',#471);
#178=VERTEX_POINT('',#472);
#179=VERTEX_POINT('',#477);
#180=VERTEX_POINT('',#479);
#181=VERTEX_POINT('',#488);
#182=VERTEX_POINT('',#491);
#183=VERTEX_POINT('',#494);
#184=VERTEX_POINT('',#497);
#185=VERTEX_POINT('',#499);
#186=VERTEX_POINT('',#501);
#187=B_SPLINE_CURVE_WITH_KNOTS('',3,(#413,#414,#415,#416),.UNSPECIFIED.,
 .F.,.F.,(4,4),(0.,1.),.UNSPECIFIED.);
#188=B_SPLINE_CURVE_WITH_KNOTS('',3,(#421,#422,#423,#424),.UNSPECIFIED.,
 .F.,.F.,(4,4),(0.,1.),.UNSPECIFIED.);
#189=B_SPLINE_CURVE_WITH_KNOTS('',3,(#428,#429,#430,#431),.UNSPECIFIED.,
 .F.,.F.,(4,4),(0.,1.),.UNSPECIFIED.);
#190=B_SPLINE_CURVE_WITH_KNOTS('',3,(#436,#437,#438,#439),.UNSPECIFIED.,
 .F.,.F.,(4,4),(0.,1.),.UNSPECIFIED.);
#191=B_SPLINE_CURVE_WITH_KNOTS('',3,(#443,#444,#445,#446),.UNSPECIFIED.,
 .F.,.F.,(4,4),(0.,1.),.UNSPECIFIED.);
#192=B_SPLINE_CURVE_WITH_KNOTS('',3,(#451,#452,#453,#454),.UNSPECIFIED.,
 .F.,.F.,(4,4),(0.,1.),.UNSPECIFIED.);
#193=B_SPLINE_CURVE_WITH_KNOTS('',3,(#458,#459,#460,#461),.UNSPECIFIED.,
 .F.,.F.,(4,4),(0.,1.),.UNSPECIFIED.);
#194=B_SPLINE_CURVE_WITH_KNOTS('',3,(#473,#474,#475,#476),.UNSPECIFIED.,
 .F.,.F.,(4,4),(0.,1.),.UNSPECIFIED.);
#195=EDGE_LOOP('',(#56,#57,#58,#59));
#196=EDGE_LOOP('',(#60,#61,#62,#63));
#197=EDGE_LOOP('',(#64,#65,#66,#67));
#198=EDGE_LOOP('',(#68,#69,#70,#71));
#199=EDGE_LOOP('',(#72,#73,#74,#75));
#200=EDGE_LOOP('',(#76,#77,#78,#79,#80,#81,#82,#83,#84,#85));
#201=EDGE_LOOP('',(#86));
#202=EDGE_LOOP('',(#87));
#203=EDGE_LOOP('',(#88));
#204=EDGE_LOOP('',(#89));
#205=EDGE_LOOP('',(#90));
#206=EDGE_LOOP('',(#91));
#207=EDGE_LOOP('',(#92));
#208=EDGE_LOOP('',(#93));
#209=EDGE_LOOP('',(#94,#95,#96,#97,#98,#99,#100,#101,#102,#103));
#210=EDGE_LOOP('',(#104,#105,#106,#107));
#211=EDGE_LOOP('',(#108,#109,#110,#111));
#212=EDGE_LOOP('',(#112,#113,#114,#115));
#213=EDGE_LOOP('',(#116,#117,#118,#119));
#214=EDGE_LOOP('',(#120,#121,#122,#123));
#215=EDGE_LOOP('',(#124));
#216=EDGE_LOOP('',(#125));
#217=FACE_BOUND('',#195,.T.);
#218=FACE_BOUND('',#196,.T.);
#219=FACE_BOUND('',#197,.T.);
#220=FACE_BOUND('',#198,.T.);
#221=FACE_BOUND('',#199,.T.);
#222=FACE_BOUND('',#200,.T.);
#223=FACE_BOUND('',#201,.T.);
#224=FACE_BOUND('',#202,.T.);
#225=FACE_BOUND('',#203,.T.);
#226=FACE_BOUND('',#204,.T.);
#227=FACE_BOUND('',#205,.T.);
#228=FACE_BOUND('',#206,.T.);
#229=FACE_BOUND('',#207,.T.);
#230=FACE_BOUND('',#21,.T.);
#231=FACE_BOUND('',#208,.T.);
#232=FACE_BOUND('',#209,.T.);
#233=FACE_BOUND('',#210,.T.);
#234=FACE_BOUND('',#211,.T.);
#235=FACE_BOUND('',#212,.T.);
#236=FACE_BOUND('',#213,.T.);
#237=FACE_BOUND('',#214,.T.);
#238=FACE_BOUND('',#215,.T.);
#239=FACE_BOUND('',#216,.T.);
#240=CYLINDRICAL_SURFACE('',#281,1.4);
#241=CYLINDRICAL_SURFACE('',#284,1.4);
#242=CYLINDRICAL_SURFACE('',#287,1.4);
#243=CYLINDRICAL_SURFACE('',#290,1.4);
#244=CYLINDRICAL_SURFACE('',#293,1.4);
#245=CYLINDRICAL_SURFACE('',#307,1.44999999999999);
#246=CYLINDRICAL_SURFACE('',#317,0.56);
#247=CYLINDRICAL_SURFACE('',#318,0.56);
#248=CYLINDRICAL_SURFACE('',#319,0.56);
#249=CYLINDRICAL_SURFACE('',#320,0.56);
#250=CYLINDRICAL_SURFACE('',#321,0.56);
#251=ADVANCED_FACE('',(#217),#240,.F.);
#252=ADVANCED_FACE('',(#218),#241,.F.);
#253=ADVANCED_FACE('',(#219),#242,.F.);
#254=ADVANCED_FACE('',(#220),#243,.F.);
#255=ADVANCED_FACE('',(#221),#244,.F.);
#256=ADVANCED_FACE('',(#222,#223),#24,.T.);
#257=ADVANCED_FACE('',(#224,#225),#23,.F.);
#258=ADVANCED_FACE('',(#226,#227),#25,.T.);
#259=ADVANCED_FACE('',(#228,#229),#245,.T.);
#260=ADVANCED_FACE('',(#230,#231),#22,.T.);
#261=ADVANCED_FACE('',(#232),#26,.T.);
#262=ADVANCED_FACE('',(#233),#246,.T.);
#263=ADVANCED_FACE('',(#234),#247,.T.);
#264=ADVANCED_FACE('',(#235),#248,.T.);
#265=ADVANCED_FACE('',(#236),#249,.T.);
#266=ADVANCED_FACE('',(#237),#250,.T.);
#267=ADVANCED_FACE('',(#238,#239),#20,.F.);
#268=CLOSED_SHELL('',(#251,#252,#253,#254,#255,#256,#257,#258,#259,#260,
#261,#262,#263,#264,#265,#266,#267));
#269=STYLED_ITEM('',(#270),#277);
#270=PRESENTATION_STYLE_ASSIGNMENT((#271));
#271=SURFACE_STYLE_USAGE(.BOTH.,#272);
#272=SURFACE_SIDE_STYLE('',(#273));
#273=SURFACE_STYLE_FILL_AREA(#274);
#274=FILL_AREA_STYLE('',(#275));
#275=FILL_AREA_STYLE_COLOUR('',#276);
#276=COLOUR_RGB('',0.506983280181885,0.531564235687256,0.550000011920929);
#277=MANIFOLD_SOLID_BREP('',#268);
#278=SHAPE_DEFINITION_REPRESENTATION(#520,#279);
#279=SHAPE_REPRESENTATION('yc',(#280),#515);
#280=AXIS2_PLACEMENT_3D('',#411,#323,#324);
#281=AXIS2_PLACEMENT_3D('',#412,#325,#326);
#282=AXIS2_PLACEMENT_3D('',#419,#327,#328);
#283=AXIS2_PLACEMENT_3D('',#426,#329,#330);
#284=AXIS2_PLACEMENT_3D('',#427,#331,#332);
#285=AXIS2_PLACEMENT_3D('',#434,#333,#334);
#286=AXIS2_PLACEMENT_3D('',#441,#335,#336);
#287=AXIS2_PLACEMENT_3D('',#442,#337,#338);
#288=AXIS2_PLACEMENT_3D('',#449,#339,#340);
#289=AXIS2_PLACEMENT_3D('',#456,#341,#342);
#290=AXIS2_PLACEMENT_3D('',#457,#343,#344);
#291=AXIS2_PLACEMENT_3D('',#464,#345,#346);
#292=AXIS2_PLACEMENT_3D('',#468,#348,#349);
#293=AXIS2_PLACEMENT_3D('',#469,#350,#351);
#294=AXIS2_PLACEMENT_3D('',#470,#352,#353);
#295=AXIS2_PLACEMENT_3D('',#478,#354,#355);
#296=AXIS2_PLACEMENT_3D('',#481,#357,#358);
#297=AXIS2_PLACEMENT_3D('',#482,#359,#360);
#298=AXIS2_PLACEMENT_3D('',#483,#361,#362);
#299=AXIS2_PLACEMENT_3D('',#484,#363,#364);
#300=AXIS2_PLACEMENT_3D('',#485,#365,#366);
#301=AXIS2_PLACEMENT_3D('',#486,#367,#368);
#302=AXIS2_PLACEMENT_3D('',#487,#369,#370);
#303=AXIS2_PLACEMENT_3D('',#489,#371,#372);
#304=AXIS2_PLACEMENT_3D('',#490,#373,#374);
#305=AXIS2_PLACEMENT_3D('',#492,#375,#376);
#306=AXIS2_PLACEMENT_3D('',#493,#377,#378);
#307=AXIS2_PLACEMENT_3D('',#495,#379,#380);
#308=AXIS2_PLACEMENT_3D('',#496,#381,#382);
#309=AXIS2_PLACEMENT_3D('',#498,#383,#384);
#310=AXIS2_PLACEMENT_3D('',#500,#385,#386);
#311=AXIS2_PLACEMENT_3D('',#502,#387,#388);
#312=AXIS2_PLACEMENT_3D('',#503,#389,#390);
#313=AXIS2_PLACEMENT_3D('',#504,#391,#392);
#314=AXIS2_PLACEMENT_3D('',#505,#393,#394);
#315=AXIS2_PLACEMENT_3D('',#506,#395,#396);
#316=AXIS2_PLACEMENT_3D('',#507,#397,#398);
#317=AXIS2_PLACEMENT_3D('',#508,#399,#400);
#318=AXIS2_PLACEMENT_3D('',#509,#401,#402);
#319=AXIS2_PLACEMENT_3D('',#510,#403,#404);
#320=AXIS2_PLACEMENT_3D('',#511,#405,#406);
#321=AXIS2_PLACEMENT_3D('',#512,#407,#408);
#322=AXIS2_PLACEMENT_3D('',#513,#409,#410);
#323=DIRECTION('',(0.,0.,1.));
#324=DIRECTION('',(1.,0.,0.));
#325=DIRECTION('',(-1.,0.,0.));
#326=DIRECTION('',(0.,0.,1.));
#327=DIRECTION('',(-1.,0.,0.));
#328=DIRECTION('',(0.,0.,1.));
#329=DIRECTION('',(-1.,0.,0.));
#330=DIRECTION('',(0.,0.,1.));
#331=DIRECTION('',(-1.,0.,0.));
#332=DIRECTION('',(0.,0.,1.));
#333=DIRECTION('',(-1.,0.,0.));
#334=DIRECTION('',(0.,0.,1.));
#335=DIRECTION('',(-1.,0.,0.));
#336=DIRECTION('',(0.,0.,1.));
#337=DIRECTION('',(-1.,0.,0.));
#338=DIRECTION('',(0.,0.,1.));
#339=DIRECTION('',(-1.,0.,0.));
#340=DIRECTION('',(0.,0.,1.));
#341=DIRECTION('',(-1.,0.,0.));
#342=DIRECTION('',(0.,0.,1.));
#343=DIRECTION('',(-1.,0.,0.));
#344=DIRECTION('',(0.,0.,1.));
#345=DIRECTION('',(-1.,0.,0.));
#346=DIRECTION('',(0.,0.,1.));
#347=DIRECTION('',(-1.,0.,0.));
#348=DIRECTION('',(-1.,0.,0.));
#349=DIRECTION('',(0.,0.,1.));
#350=DIRECTION('',(-1.,0.,0.));
#351=DIRECTION('',(0.,0.,1.));
#352=DIRECTION('',(-1.,0.,0.));
#353=DIRECTION('',(0.,0.,1.));
#354=DIRECTION('',(-1.,0.,0.));
#355=DIRECTION('',(0.,0.,1.));
#356=DIRECTION('',(-1.,0.,0.));
#357=DIRECTION('',(-1.,0.,0.));
#358=DIRECTION('',(0.,0.,1.));
#359=DIRECTION('',(-1.,6.12303176911189E-17,0.));
#360=DIRECTION('',(6.12303176911189E-17,1.,0.));
#361=DIRECTION('',(-1.,1.89194474517685E-17,5.82340648819496E-17));
#362=DIRECTION('',(6.12303176911189E-17,0.308988229445569,0.951065862106349));
#363=DIRECTION('',(-1.,-4.95341922260006E-17,3.59932716639231E-17));
#364=DIRECTION('',(6.12303176911189E-17,-0.808981466924273,0.5878341485258));
#365=DIRECTION('',(-1.,-4.95341923253696E-17,-3.59932715271708E-17));
#366=DIRECTION('',(6.12303176911189E-17,-0.808981468547145,-0.587834146292391));
#367=DIRECTION('',(-1.,1.89194472909978E-17,-5.82340649341818E-17));
#368=DIRECTION('',(6.12303176911189E-17,0.308988226819897,-0.951065862959394));
#369=DIRECTION('',(-1.,0.,0.));
#370=DIRECTION('',(0.,0.,1.));
#371=DIRECTION('',(-1.,0.,0.));
#372=DIRECTION('',(0.,0.,1.));
#373=DIRECTION('',(-1.,0.,0.));
#374=DIRECTION('',(0.,0.,1.));
#375=DIRECTION('',(1.,0.,0.));
#376=DIRECTION('',(0.,0.,-1.));
#377=DIRECTION('',(1.,0.,0.));
#378=DIRECTION('',(0.,0.,-1.));
#379=DIRECTION('',(-1.,0.,0.));
#380=DIRECTION('',(0.,0.,1.));
#381=DIRECTION('',(1.,0.,0.));
#382=DIRECTION('',(0.,0.,-1.));
#383=DIRECTION('',(-1.,0.,0.));
#384=DIRECTION('',(0.,0.,1.));
#385=DIRECTION('',(-1.,0.,0.));
#386=DIRECTION('',(0.,0.,1.));
#387=DIRECTION('',(-1.,6.12303176911189E-17,0.));
#388=DIRECTION('',(-6.12303176911189E-17,-1.,0.));
#389=DIRECTION('',(-1.,1.89194474517685E-17,5.82340648819496E-17));
#390=DIRECTION('',(6.12303176911189E-17,0.308988229445569,0.951065862106349));
#391=DIRECTION('',(-1.,6.12303176911189E-17,0.));
#392=DIRECTION('',(6.12303176911189E-17,1.,0.));
#393=DIRECTION('',(-1.,1.89194472909978E-17,-5.82340649341818E-17));
#394=DIRECTION('',(6.12303176911189E-17,0.308988226819897,-0.951065862959394));
#395=DIRECTION('',(-1.,-4.95341923253696E-17,-3.59932715271708E-17));
#396=DIRECTION('',(6.12303176911189E-17,-0.808981468547145,-0.587834146292391));
#397=DIRECTION('',(-1.,-4.95341922260006E-17,3.59932716639231E-17));
#398=DIRECTION('',(6.12303176911189E-17,-0.808981466924273,0.5878341485258));
#399=DIRECTION('',(-1.,0.,0.));
#400=DIRECTION('',(0.,0.,1.));
#401=DIRECTION('',(-1.,0.,0.));
#402=DIRECTION('',(0.,0.,1.));
#403=DIRECTION('',(-1.,0.,0.));
#404=DIRECTION('',(0.,0.,1.));
#405=DIRECTION('',(-1.,0.,0.));
#406=DIRECTION('',(0.,0.,1.));
#407=DIRECTION('',(-1.,0.,0.));
#408=DIRECTION('',(0.,0.,1.));
#409=DIRECTION('',(1.,0.,0.));
#410=DIRECTION('',(0.,0.,-1.));
#411=CARTESIAN_POINT('',(0.,0.,0.));
#412=CARTESIAN_POINT('',(-1.39,0.,0.));
#413=CARTESIAN_POINT('',(-1.39,-1.39450837664473,-0.123880537081831));
#414=CARTESIAN_POINT('',(-1.72666666666667,-1.39450837664473,-0.123880537081831));
#415=CARTESIAN_POINT('',(-2.06333333333333,-1.39450837664473,-0.123880537081831));
#416=CARTESIAN_POINT('',(-2.4,-1.39450837664473,-0.123880537081831));
#417=CARTESIAN_POINT('',(-1.39,-1.39452272847839,-0.123875231168978));
#418=CARTESIAN_POINT('',(-2.4,-1.39449158893114,-0.123874713773304));
#419=CARTESIAN_POINT('',(-1.39,0.,0.));
#420=CARTESIAN_POINT('',(-1.39,-1.20108750464725,-0.71949198797319));
#421=CARTESIAN_POINT('',(-1.39,-1.20098883730074,-0.719462169039493));
#422=CARTESIAN_POINT('',(-1.72666666666667,-1.20098883730074,-0.719462169039493));
#423=CARTESIAN_POINT('',(-2.06333333333333,-1.20098883730074,-0.719462169039493));
#424=CARTESIAN_POINT('',(-2.4,-1.20098883730074,-0.719462169039493));
#425=CARTESIAN_POINT('',(-2.4,-1.20107927855378,-0.719484496595124));
#426=CARTESIAN_POINT('',(-2.4,0.,0.));
#427=CARTESIAN_POINT('',(-1.39,0.,0.));
#428=CARTESIAN_POINT('',(-1.39,-0.313284189175924,-1.36449734950728));
#429=CARTESIAN_POINT('',(-1.72666666666667,-0.313284189175924,-1.36449734950728));
#430=CARTESIAN_POINT('',(-2.06333333333333,-0.313284189175924,-1.36449734950728));
#431=CARTESIAN_POINT('',(-2.4,-0.313284189175924,-1.36449734950728));
#432=CARTESIAN_POINT('',(-1.39,-0.313292966889731,-1.36455491984392));
#433=CARTESIAN_POINT('',(-2.4,-0.313284518955373,-1.3645362755058));
#434=CARTESIAN_POINT('',(-1.39,0.,0.));
#435=CARTESIAN_POINT('',(-1.39,0.313137388175223,-1.36453806751094));
#436=CARTESIAN_POINT('',(-1.39,0.3132234412957,-1.36451129560106));
#437=CARTESIAN_POINT('',(-1.72666666666667,0.3132234412957,-1.36451129560106));
#438=CARTESIAN_POINT('',(-2.06333333333333,0.3132234412957,-1.36451129560106));
#439=CARTESIAN_POINT('',(-2.4,0.3132234412957,-1.36451129560106));
#440=CARTESIAN_POINT('',(-2.4,0.313143288613928,-1.36455105793802));
#441=CARTESIAN_POINT('',(-2.4,0.,0.));
#442=CARTESIAN_POINT('',(-1.39,0.,0.));
#443=CARTESIAN_POINT('',(-1.39,1.20102505733762,-0.719401703950694));
#444=CARTESIAN_POINT('',(-1.72666666666667,1.20102505733762,-0.719401703950694));
#445=CARTESIAN_POINT('',(-2.06333333333333,1.20102505733762,-0.719401703950694));
#446=CARTESIAN_POINT('',(-2.4,1.20102505733762,-0.719401703950694));
#447=CARTESIAN_POINT('',(-1.39,1.20102283639026,-0.719411180412984));
#448=CARTESIAN_POINT('',(-2.4,1.20103343230888,-0.719420603706804));
#449=CARTESIAN_POINT('',(-1.39,0.,0.));
#450=CARTESIAN_POINT('',(-1.39,1.39456559405029,-0.123821605969379));
#451=CARTESIAN_POINT('',(-1.39,1.39451213078269,-0.123838269932722));
#452=CARTESIAN_POINT('',(-1.72666666666667,1.39451213078269,-0.123838269932722));
#453=CARTESIAN_POINT('',(-2.06333333333333,1.39451213078269,-0.123838269932722));
#454=CARTESIAN_POINT('',(-2.4,1.39451213078269,-0.123838269932722));
#455=CARTESIAN_POINT('',(-2.4,1.39458009843252,-0.123822890292768));
#456=CARTESIAN_POINT('',(-2.4,0.,0.));
#457=CARTESIAN_POINT('',(-1.39,0.,0.));
#458=CARTESIAN_POINT('',(-1.39,1.05544331624967,0.919804004222582));
#459=CARTESIAN_POINT('',(-1.72666666666667,1.05544331624967,0.919804004222582));
#460=CARTESIAN_POINT('',(-2.06333333333333,1.05544331624967,0.919804004222582));
#461=CARTESIAN_POINT('',(-2.4,1.05544331624967,0.919804004222582));
#462=CARTESIAN_POINT('',(-1.39,1.0554950853572,0.919842821129418));
#463=CARTESIAN_POINT('',(-2.4,1.05547421568712,0.919830932647685));
#464=CARTESIAN_POINT('',(-1.39,0.,0.));
#465=CARTESIAN_POINT('',(-1.39,0.548685702383432,1.288));
#466=CARTESIAN_POINT('',(-1.39,0.548685702383432,1.288));
#467=CARTESIAN_POINT('',(-2.4,0.548685702383432,1.288));
#468=CARTESIAN_POINT('',(-2.4,0.,0.));
#469=CARTESIAN_POINT('',(-1.39,0.,0.));
#470=CARTESIAN_POINT('',(-1.39,0.,0.));
#471=CARTESIAN_POINT('',(-1.39,-1.05540465134568,0.919852387104285));
#472=CARTESIAN_POINT('',(-1.39,-0.548685702383432,1.288));
#473=CARTESIAN_POINT('',(-1.39,-1.05542749913155,0.919822153504102));
#474=CARTESIAN_POINT('',(-1.72666666666667,-1.05542749913155,0.919822153504102));
#475=CARTESIAN_POINT('',(-2.06333333333333,-1.05542749913155,0.919822153504102));
#476=CARTESIAN_POINT('',(-2.4,-1.05542749913155,0.919822153504102));
#477=CARTESIAN_POINT('',(-2.4,-1.0554146484667,0.919858056527045));
#478=CARTESIAN_POINT('',(-2.4,0.,0.));
#479=CARTESIAN_POINT('',(-2.4,-0.548685702383432,1.288));
#480=CARTESIAN_POINT('',(-1.39,-0.548685702383432,1.288));
#481=CARTESIAN_POINT('',(-2.40000000000001,0.,0.));
#482=CARTESIAN_POINT('',(-2.4,0.,1.4));
#483=CARTESIAN_POINT('',(-2.4,-1.33145340049263,0.432565665750813));
#484=CARTESIAN_POINT('',(-2.4,-0.823015814117861,-1.132643893679));
#485=CARTESIAN_POINT('',(-2.4,0.822919798627802,-1.13250421598086));
#486=CARTESIAN_POINT('',(-2.4,1.33153101459946,0.432601373020733));
#487=CARTESIAN_POINT('',(-2.40000000000001,0.,0.));
#488=CARTESIAN_POINT('',(-2.40000000000001,0.,1.75));
#489=CARTESIAN_POINT('',(0.,0.,0.));
#490=CARTESIAN_POINT('',(-6.00295618510625E-16,0.,0.));
#491=CARTESIAN_POINT('',(-6.00295618510625E-16,0.,2.8));
#492=CARTESIAN_POINT('',(-3.00147809255312E-16,0.,1.44999999999999));
#493=CARTESIAN_POINT('',(-2.98155597433514E-16,0.,0.));
#494=CARTESIAN_POINT('',(-2.98155597433514E-16,0.,-1.54999999999999));
#495=CARTESIAN_POINT('',(0.,0.,0.));
#496=CARTESIAN_POINT('',(0.0999999999999997,0.,0.));
#497=CARTESIAN_POINT('',(0.0999999999999997,0.,-1.44999999999999));
#498=CARTESIAN_POINT('',(13.4,0.,0.));
#499=CARTESIAN_POINT('',(13.4,0.,1.44999999999999));
#500=CARTESIAN_POINT('',(13.4,0.,0.));
#501=CARTESIAN_POINT('',(16.,0.,0.));
#502=CARTESIAN_POINT('',(-1.39,0.,0.));
#503=CARTESIAN_POINT('',(-1.39,-1.33145340049263,0.432565665750813));
#504=CARTESIAN_POINT('',(-1.39,0.,1.4));
#505=CARTESIAN_POINT('',(-1.39,1.33153101459946,0.432601373020733));
#506=CARTESIAN_POINT('',(-1.39,0.822919798627802,-1.13250421598086));
#507=CARTESIAN_POINT('',(-1.39,-0.823015814117861,-1.132643893679));
#508=CARTESIAN_POINT('',(-1.39,0.,1.4));
#509=CARTESIAN_POINT('',(-1.39,1.33153101459946,0.432601373020733));
#510=CARTESIAN_POINT('',(-1.39,0.822919798627802,-1.13250421598086));
#511=CARTESIAN_POINT('',(-1.39,-0.823015814117861,-1.132643893679));
#512=CARTESIAN_POINT('',(-1.39,-1.33145340049263,0.432565665750813));
#513=CARTESIAN_POINT('',(0.0999999999999997,0.,0.));
#514=MECHANICAL_DESIGN_GEOMETRIC_PRESENTATION_REPRESENTATION('',(#269),
#515);
#515=(
GEOMETRIC_REPRESENTATION_CONTEXT(3)
GLOBAL_UNCERTAINTY_ASSIGNED_CONTEXT((#516))
GLOBAL_UNIT_ASSIGNED_CONTEXT((#519,#518,#517))
REPRESENTATION_CONTEXT('yc','TOP_LEVEL_ASSEMBLY_PART')
);
#516=UNCERTAINTY_MEASURE_WITH_UNIT(LENGTH_MEASURE(0.005),#519,
'DISTANCE_ACCURACY_VALUE','Maximum Tolerance applied to model');
#517=(
NAMED_UNIT(*)
SI_UNIT($,.STERADIAN.)
SOLID_ANGLE_UNIT()
);
#518=(
NAMED_UNIT(*)
PLANE_ANGLE_UNIT()
SI_UNIT($,.RADIAN.)
);
#519=(
LENGTH_UNIT()
NAMED_UNIT(*)
SI_UNIT(.MILLI.,.METRE.)
);
#520=PRODUCT_DEFINITION_SHAPE('','',#521);
#521=PRODUCT_DEFINITION('','',#523,#522);
#522=PRODUCT_DEFINITION_CONTEXT('',#529,'design');
#523=PRODUCT_DEFINITION_FORMATION_WITH_SPECIFIED_SOURCE('','',#525,
 .NOT_KNOWN.);
#524=PRODUCT_RELATED_PRODUCT_CATEGORY('','',(#525));
#525=PRODUCT('yc','yc','yc',(#527));
#526=PRODUCT_CATEGORY('','');
#527=PRODUCT_CONTEXT('',#529,'mechanical');
#528=APPLICATION_PROTOCOL_DEFINITION('international standard',
'automotive_design',2010,#529);
#529=APPLICATION_CONTEXT(
'core data for automotive mechanical design processes');
ENDSEC;
END-ISO-10303-21;
