ISO-10303-21;
HEADER;
/* Generated by software containing HOOPS Exchange Step
 * from HOOPS Exchange, Inc. (www.tiangong.cloud) 
 */

FILE_DESCRIPTION(
/* description */ ('Unknown'),
/* implementation_level */ '2;1');

FILE_NAME(
/* name */ '\X2\5185516D89D282B15F62570667F1593481EA653B95017D2787BA9489\X0\ ',

/* time_stamp */ '2025-12-31T14:50:15+08:00',
/* author */ ('Unknown'),
/* organization */ ('Unknown'),
/* preprocessor_version */ 'ST-DEVELOPER v19.4',
/* originating_system */ 'TianGong',
/* authorisation */ 'Unknown');

FILE_SCHEMA (('AUTOMOTIVE_DESIGN {1 0 10303 214 3 1 1}'));
ENDSEC;

DATA;
#10=PROPERTY_DEFINITION_REPRESENTATION(#14,#12);
#11=PROPERTY_DEFINITION_REPRESENTATION(#15,#13);
#12=REPRESENTATION('',(#16),#1041);
#13=REPRESENTATION('',(#17),#1041);
#14=PROPERTY_DEFINITION('pmi validation property','',#1046);
#15=PROPERTY_DEFINITION('pmi validation property','',#1046);
#16=VALUE_REPRESENTATION_ITEM('number of annotations',COUNT_MEASURE(0.));
#17=VALUE_REPRESENTATION_ITEM('number of views',COUNT_MEASURE(0.));
#18=SHAPE_REPRESENTATION_RELATIONSHIP('','',#561,#19);
#19=ADVANCED_BREP_SHAPE_REPRESENTATION('',(#559),#1041);
#20=TOROIDAL_SURFACE('',#643,1.09999999999999,0.1);
#21=CONICAL_SURFACE('',#627,1.,0.982793723247329);
#22=CONICAL_SURFACE('',#640,1.3,0.463647609000806);
#23=B_SPLINE_CURVE_WITH_KNOTS('',3,(#884,#885,#886,#887),.UNSPECIFIED.,
 .F.,.F.,(4,4),(0.,1.),.UNSPECIFIED.);
#24=B_SPLINE_CURVE_WITH_KNOTS('',3,(#893,#894,#895,#896),.UNSPECIFIED.,
 .F.,.F.,(4,4),(0.,1.),.UNSPECIFIED.);
#25=B_SPLINE_CURVE_WITH_KNOTS('',3,(#931,#932,#933,#934),.UNSPECIFIED.,
 .F.,.F.,(4,4),(0.,1.),.UNSPECIFIED.);
#26=B_SPLINE_CURVE_WITH_KNOTS('',3,(#940,#941,#942,#943),.UNSPECIFIED.,
 .F.,.F.,(4,4),(0.,1.),.UNSPECIFIED.);
#27=B_SPLINE_CURVE_WITH_KNOTS('',3,(#949,#950,#951,#952),.UNSPECIFIED.,
 .F.,.F.,(4,4),(0.,1.),.UNSPECIFIED.);
#28=B_SPLINE_CURVE_WITH_KNOTS('',3,(#958,#959,#960,#961),.UNSPECIFIED.,
 .F.,.F.,(4,4),(0.,1.),.UNSPECIFIED.);
#29=B_SPLINE_CURVE_WITH_KNOTS('',3,(#972,#973,#974,#975,#976),
 .UNSPECIFIED.,.F.,.F.,(4,1,4),(2.16359058888763E-7,0.000946473996108804,
0.00189273163315872),.UNSPECIFIED.);
#30=B_SPLINE_CURVE_WITH_KNOTS('',3,(#980,#981,#982,#983,#984),
 .UNSPECIFIED.,.F.,.F.,(4,1,4),(2.16298237694016E-7,0.000946473592329145,
0.0018927308864206),.UNSPECIFIED.);
#31=B_SPLINE_CURVE_WITH_KNOTS('',3,(#988,#989,#990,#991,#992),
 .UNSPECIFIED.,.F.,.F.,(4,1,4),(2.95663740045783E-7,0.000946553281918244,
0.00189281090009644),.UNSPECIFIED.);
#32=B_SPLINE_CURVE_WITH_KNOTS('',3,(#998,#999,#1000,#1001,#1002,#1003,#1004),
 .UNSPECIFIED.,.F.,.F.,(4,1,1,1,4),(2.91395922554684E-7,0.000544702346376071,
0.00108911329682959,0.0016335242472831,0.00217793519773662),
 .UNSPECIFIED.);
#33=B_SPLINE_CURVE_WITH_KNOTS('',3,(#1010,#1011,#1012,#1013,#1014,#1015,
#1016),.UNSPECIFIED.,.F.,.F.,(4,1,1,1,4),(2.81217571794137E-7,0.000544692077530069,
0.00108910293748834,0.00163351379744662,0.00217792465740489),
 .UNSPECIFIED.);
#34=B_SPLINE_CURVE_WITH_KNOTS('',3,(#1024,#1025,#1026,#1027,#1028,#1029,
#1030),.UNSPECIFIED.,.F.,.F.,(4,1,1,1,4),(2.9147786299794E-7,0.000544702429045039,
0.00108911338022708,0.00163352433140912,0.00217793528259116),
 .UNSPECIFIED.);
#35=LINE('',#878,#53);
#36=LINE('',#882,#54);
#37=LINE('',#928,#55);
#38=LINE('',#929,#56);
#39=LINE('',#937,#57);
#40=LINE('',#938,#58);
#41=LINE('',#946,#59);
#42=LINE('',#947,#60);
#43=LINE('',#955,#61);
#44=LINE('',#956,#62);
#45=LINE('',#964,#63);
#46=LINE('',#965,#64);
#47=LINE('',#994,#65);
#48=LINE('',#996,#66);
#49=LINE('',#1006,#67);
#50=LINE('',#1008,#68);
#51=LINE('',#1020,#69);
#52=LINE('',#1022,#70);
#53=VECTOR('',#702,1000.);
#54=VECTOR('',#705,1000.);
#55=VECTOR('',#748,1000.);
#56=VECTOR('',#749,1000.);
#57=VECTOR('',#756,1000.);
#58=VECTOR('',#757,1000.);
#59=VECTOR('',#764,1000.);
#60=VECTOR('',#765,1000.);
#61=VECTOR('',#772,1000.);
#62=VECTOR('',#773,1000.);
#63=VECTOR('',#780,1000.);
#64=VECTOR('',#781,1000.);
#65=VECTOR('',#796,1000.);
#66=VECTOR('',#797,1000.);
#67=VECTOR('',#800,1000.);
#68=VECTOR('',#801,1000.);
#69=VECTOR('',#808,1000.);
#70=VECTOR('',#809,1000.);
#71=PLANE('',#566);
#72=PLANE('',#571);
#73=PLANE('',#596);
#74=PLANE('',#642);
#75=ORIENTED_EDGE('',*,*,#231,.T.);
#76=ORIENTED_EDGE('',*,*,#232,.F.);
#77=ORIENTED_EDGE('',*,*,#233,.T.);
#78=ORIENTED_EDGE('',*,*,#231,.F.);
#79=ORIENTED_EDGE('',*,*,#234,.T.);
#80=ORIENTED_EDGE('',*,*,#235,.T.);
#81=ORIENTED_EDGE('',*,*,#236,.F.);
#82=ORIENTED_EDGE('',*,*,#237,.F.);
#83=ORIENTED_EDGE('',*,*,#238,.F.);
#84=ORIENTED_EDGE('',*,*,#239,.F.);
#85=ORIENTED_EDGE('',*,*,#240,.F.);
#86=ORIENTED_EDGE('',*,*,#241,.F.);
#87=ORIENTED_EDGE('',*,*,#242,.F.);
#88=ORIENTED_EDGE('',*,*,#243,.F.);
#89=ORIENTED_EDGE('',*,*,#244,.F.);
#90=ORIENTED_EDGE('',*,*,#245,.F.);
#91=ORIENTED_EDGE('',*,*,#246,.F.);
#92=ORIENTED_EDGE('',*,*,#247,.F.);
#93=ORIENTED_EDGE('',*,*,#248,.F.);
#94=ORIENTED_EDGE('',*,*,#249,.F.);
#95=ORIENTED_EDGE('',*,*,#250,.F.);
#96=ORIENTED_EDGE('',*,*,#251,.F.);
#97=ORIENTED_EDGE('',*,*,#252,.F.);
#98=ORIENTED_EDGE('',*,*,#253,.F.);
#99=ORIENTED_EDGE('',*,*,#232,.T.);
#100=ORIENTED_EDGE('',*,*,#252,.T.);
#101=ORIENTED_EDGE('',*,*,#254,.F.);
#102=ORIENTED_EDGE('',*,*,#255,.F.);
#103=ORIENTED_EDGE('',*,*,#256,.T.);
#104=ORIENTED_EDGE('',*,*,#251,.T.);
#105=ORIENTED_EDGE('',*,*,#257,.F.);
#106=ORIENTED_EDGE('',*,*,#258,.F.);
#107=ORIENTED_EDGE('',*,*,#254,.T.);
#108=ORIENTED_EDGE('',*,*,#253,.T.);
#109=ORIENTED_EDGE('',*,*,#256,.F.);
#110=ORIENTED_EDGE('',*,*,#259,.F.);
#111=ORIENTED_EDGE('',*,*,#260,.T.);
#112=ORIENTED_EDGE('',*,*,#255,.T.);
#113=ORIENTED_EDGE('',*,*,#258,.T.);
#114=ORIENTED_EDGE('',*,*,#261,.T.);
#115=ORIENTED_EDGE('',*,*,#262,.T.);
#116=ORIENTED_EDGE('',*,*,#263,.T.);
#117=ORIENTED_EDGE('',*,*,#264,.T.);
#118=ORIENTED_EDGE('',*,*,#265,.T.);
#119=ORIENTED_EDGE('',*,*,#266,.T.);
#120=ORIENTED_EDGE('',*,*,#267,.T.);
#121=ORIENTED_EDGE('',*,*,#268,.T.);
#122=ORIENTED_EDGE('',*,*,#269,.T.);
#123=ORIENTED_EDGE('',*,*,#270,.T.);
#124=ORIENTED_EDGE('',*,*,#271,.T.);
#125=ORIENTED_EDGE('',*,*,#272,.T.);
#126=ORIENTED_EDGE('',*,*,#273,.T.);
#127=ORIENTED_EDGE('',*,*,#274,.T.);
#128=ORIENTED_EDGE('',*,*,#275,.T.);
#129=ORIENTED_EDGE('',*,*,#259,.T.);
#130=ORIENTED_EDGE('',*,*,#249,.T.);
#131=ORIENTED_EDGE('',*,*,#276,.F.);
#132=ORIENTED_EDGE('',*,*,#262,.F.);
#133=ORIENTED_EDGE('',*,*,#277,.T.);
#134=ORIENTED_EDGE('',*,*,#248,.T.);
#135=ORIENTED_EDGE('',*,*,#278,.F.);
#136=ORIENTED_EDGE('',*,*,#263,.F.);
#137=ORIENTED_EDGE('',*,*,#276,.T.);
#138=ORIENTED_EDGE('',*,*,#250,.T.);
#139=ORIENTED_EDGE('',*,*,#277,.F.);
#140=ORIENTED_EDGE('',*,*,#261,.F.);
#141=ORIENTED_EDGE('',*,*,#257,.T.);
#142=ORIENTED_EDGE('',*,*,#246,.T.);
#143=ORIENTED_EDGE('',*,*,#279,.F.);
#144=ORIENTED_EDGE('',*,*,#265,.F.);
#145=ORIENTED_EDGE('',*,*,#280,.T.);
#146=ORIENTED_EDGE('',*,*,#245,.T.);
#147=ORIENTED_EDGE('',*,*,#281,.F.);
#148=ORIENTED_EDGE('',*,*,#266,.F.);
#149=ORIENTED_EDGE('',*,*,#279,.T.);
#150=ORIENTED_EDGE('',*,*,#247,.T.);
#151=ORIENTED_EDGE('',*,*,#280,.F.);
#152=ORIENTED_EDGE('',*,*,#264,.F.);
#153=ORIENTED_EDGE('',*,*,#278,.T.);
#154=ORIENTED_EDGE('',*,*,#243,.T.);
#155=ORIENTED_EDGE('',*,*,#282,.F.);
#156=ORIENTED_EDGE('',*,*,#268,.F.);
#157=ORIENTED_EDGE('',*,*,#283,.T.);
#158=ORIENTED_EDGE('',*,*,#242,.T.);
#159=ORIENTED_EDGE('',*,*,#284,.F.);
#160=ORIENTED_EDGE('',*,*,#269,.F.);
#161=ORIENTED_EDGE('',*,*,#282,.T.);
#162=ORIENTED_EDGE('',*,*,#244,.T.);
#163=ORIENTED_EDGE('',*,*,#283,.F.);
#164=ORIENTED_EDGE('',*,*,#267,.F.);
#165=ORIENTED_EDGE('',*,*,#281,.T.);
#166=ORIENTED_EDGE('',*,*,#240,.T.);
#167=ORIENTED_EDGE('',*,*,#285,.F.);
#168=ORIENTED_EDGE('',*,*,#271,.F.);
#169=ORIENTED_EDGE('',*,*,#286,.T.);
#170=ORIENTED_EDGE('',*,*,#239,.T.);
#171=ORIENTED_EDGE('',*,*,#287,.F.);
#172=ORIENTED_EDGE('',*,*,#272,.F.);
#173=ORIENTED_EDGE('',*,*,#285,.T.);
#174=ORIENTED_EDGE('',*,*,#241,.T.);
#175=ORIENTED_EDGE('',*,*,#286,.F.);
#176=ORIENTED_EDGE('',*,*,#270,.F.);
#177=ORIENTED_EDGE('',*,*,#284,.T.);
#178=ORIENTED_EDGE('',*,*,#237,.T.);
#179=ORIENTED_EDGE('',*,*,#288,.F.);
#180=ORIENTED_EDGE('',*,*,#274,.F.);
#181=ORIENTED_EDGE('',*,*,#289,.T.);
#182=ORIENTED_EDGE('',*,*,#236,.T.);
#183=ORIENTED_EDGE('',*,*,#260,.F.);
#184=ORIENTED_EDGE('',*,*,#275,.F.);
#185=ORIENTED_EDGE('',*,*,#288,.T.);
#186=ORIENTED_EDGE('',*,*,#238,.T.);
#187=ORIENTED_EDGE('',*,*,#289,.F.);
#188=ORIENTED_EDGE('',*,*,#273,.F.);
#189=ORIENTED_EDGE('',*,*,#287,.T.);
#190=ORIENTED_EDGE('',*,*,#290,.T.);
#191=ORIENTED_EDGE('',*,*,#291,.F.);
#192=ORIENTED_EDGE('',*,*,#292,.T.);
#193=ORIENTED_EDGE('',*,*,#293,.F.);
#194=ORIENTED_EDGE('',*,*,#294,.T.);
#195=ORIENTED_EDGE('',*,*,#295,.F.);
#196=ORIENTED_EDGE('',*,*,#235,.F.);
#197=ORIENTED_EDGE('',*,*,#296,.T.);
#198=ORIENTED_EDGE('',*,*,#293,.T.);
#199=ORIENTED_EDGE('',*,*,#297,.F.);
#200=ORIENTED_EDGE('',*,*,#298,.T.);
#201=ORIENTED_EDGE('',*,*,#299,.T.);
#202=ORIENTED_EDGE('',*,*,#291,.T.);
#203=ORIENTED_EDGE('',*,*,#300,.F.);
#204=ORIENTED_EDGE('',*,*,#301,.T.);
#205=ORIENTED_EDGE('',*,*,#292,.F.);
#206=ORIENTED_EDGE('',*,*,#299,.F.);
#207=ORIENTED_EDGE('',*,*,#302,.T.);
#208=ORIENTED_EDGE('',*,*,#297,.T.);
#209=ORIENTED_EDGE('',*,*,#303,.T.);
#210=ORIENTED_EDGE('',*,*,#295,.T.);
#211=ORIENTED_EDGE('',*,*,#304,.F.);
#212=ORIENTED_EDGE('',*,*,#305,.T.);
#213=ORIENTED_EDGE('',*,*,#300,.T.);
#214=ORIENTED_EDGE('',*,*,#290,.F.);
#215=ORIENTED_EDGE('',*,*,#303,.F.);
#216=ORIENTED_EDGE('',*,*,#306,.T.);
#217=ORIENTED_EDGE('',*,*,#294,.F.);
#218=ORIENTED_EDGE('',*,*,#296,.F.);
#219=ORIENTED_EDGE('',*,*,#307,.T.);
#220=ORIENTED_EDGE('',*,*,#304,.T.);
#221=ORIENTED_EDGE('',*,*,#308,.T.);
#222=ORIENTED_EDGE('',*,*,#302,.F.);
#223=ORIENTED_EDGE('',*,*,#301,.F.);
#224=ORIENTED_EDGE('',*,*,#306,.F.);
#225=ORIENTED_EDGE('',*,*,#305,.F.);
#226=ORIENTED_EDGE('',*,*,#307,.F.);
#227=ORIENTED_EDGE('',*,*,#298,.F.);
#228=ORIENTED_EDGE('',*,*,#308,.F.);
#229=ORIENTED_EDGE('',*,*,#234,.F.);
#230=ORIENTED_EDGE('',*,*,#233,.F.);
#231=EDGE_CURVE('',#309,#309,#363,.T.);
#232=EDGE_CURVE('',#310,#310,#364,.T.);
#233=EDGE_CURVE('',#311,#311,#365,.F.);
#234=EDGE_CURVE('',#312,#312,#366,.T.);
#235=EDGE_CURVE('',#313,#313,#367,.T.);
#236=EDGE_CURVE('',#314,#315,#368,.T.);
#237=EDGE_CURVE('',#316,#314,#369,.T.);
#238=EDGE_CURVE('',#317,#316,#370,.T.);
#239=EDGE_CURVE('',#318,#317,#371,.T.);
#240=EDGE_CURVE('',#319,#318,#372,.T.);
#241=EDGE_CURVE('',#320,#319,#373,.T.);
#242=EDGE_CURVE('',#321,#320,#374,.T.);
#243=EDGE_CURVE('',#322,#321,#375,.T.);
#244=EDGE_CURVE('',#323,#322,#376,.T.);
#245=EDGE_CURVE('',#324,#323,#377,.T.);
#246=EDGE_CURVE('',#325,#324,#378,.T.);
#247=EDGE_CURVE('',#326,#325,#379,.T.);
#248=EDGE_CURVE('',#327,#326,#380,.T.);
#249=EDGE_CURVE('',#328,#327,#381,.T.);
#250=EDGE_CURVE('',#329,#328,#382,.T.);
#251=EDGE_CURVE('',#330,#329,#383,.T.);
#252=EDGE_CURVE('',#331,#330,#384,.T.);
#253=EDGE_CURVE('',#315,#331,#385,.T.);
#254=EDGE_CURVE('',#332,#330,#35,.T.);
#255=EDGE_CURVE('',#333,#332,#386,.T.);
#256=EDGE_CURVE('',#333,#331,#36,.T.);
#257=EDGE_CURVE('',#334,#329,#23,.F.);
#258=EDGE_CURVE('',#332,#334,#387,.T.);
#259=EDGE_CURVE('',#335,#333,#388,.T.);
#260=EDGE_CURVE('',#335,#315,#24,.T.);
#261=EDGE_CURVE('',#334,#336,#389,.T.);
#262=EDGE_CURVE('',#336,#337,#390,.T.);
#263=EDGE_CURVE('',#337,#338,#391,.T.);
#264=EDGE_CURVE('',#338,#339,#392,.T.);
#265=EDGE_CURVE('',#339,#340,#393,.T.);
#266=EDGE_CURVE('',#340,#341,#394,.T.);
#267=EDGE_CURVE('',#341,#342,#395,.T.);
#268=EDGE_CURVE('',#342,#343,#396,.T.);
#269=EDGE_CURVE('',#343,#344,#397,.T.);
#270=EDGE_CURVE('',#344,#345,#398,.T.);
#271=EDGE_CURVE('',#345,#346,#399,.T.);
#272=EDGE_CURVE('',#346,#347,#400,.T.);
#273=EDGE_CURVE('',#347,#348,#401,.T.);
#274=EDGE_CURVE('',#348,#349,#402,.T.);
#275=EDGE_CURVE('',#349,#335,#403,.T.);
#276=EDGE_CURVE('',#337,#327,#37,.T.);
#277=EDGE_CURVE('',#336,#328,#38,.T.);
#278=EDGE_CURVE('',#338,#326,#25,.F.);
#279=EDGE_CURVE('',#340,#324,#39,.T.);
#280=EDGE_CURVE('',#339,#325,#40,.T.);
#281=EDGE_CURVE('',#341,#323,#26,.F.);
#282=EDGE_CURVE('',#343,#321,#41,.T.);
#283=EDGE_CURVE('',#342,#322,#42,.T.);
#284=EDGE_CURVE('',#344,#320,#27,.F.);
#285=EDGE_CURVE('',#346,#318,#43,.T.);
#286=EDGE_CURVE('',#345,#319,#44,.T.);
#287=EDGE_CURVE('',#347,#317,#28,.F.);
#288=EDGE_CURVE('',#349,#314,#45,.T.);
#289=EDGE_CURVE('',#348,#316,#46,.T.);
#290=EDGE_CURVE('',#350,#351,#404,.T.);
#291=EDGE_CURVE('',#352,#351,#29,.T.);
#292=EDGE_CURVE('',#352,#353,#405,.T.);
#293=EDGE_CURVE('',#354,#353,#30,.T.);
#294=EDGE_CURVE('',#354,#355,#406,.T.);
#295=EDGE_CURVE('',#350,#355,#31,.T.);
#296=EDGE_CURVE('',#356,#354,#47,.T.);
#297=EDGE_CURVE('',#357,#353,#48,.T.);
#298=EDGE_CURVE('',#357,#356,#32,.T.);
#299=EDGE_CURVE('',#358,#352,#49,.T.);
#300=EDGE_CURVE('',#359,#351,#50,.T.);
#301=EDGE_CURVE('',#359,#358,#33,.T.);
#302=EDGE_CURVE('',#358,#357,#407,.T.);
#303=EDGE_CURVE('',#360,#350,#51,.T.);
#304=EDGE_CURVE('',#361,#355,#52,.T.);
#305=EDGE_CURVE('',#361,#360,#34,.T.);
#306=EDGE_CURVE('',#360,#359,#408,.T.);
#307=EDGE_CURVE('',#356,#361,#409,.T.);
#308=EDGE_CURVE('',#362,#362,#410,.T.);
#309=VERTEX_POINT('',#829);
#310=VERTEX_POINT('',#831);
#311=VERTEX_POINT('',#834);
#312=VERTEX_POINT('',#837);
#313=VERTEX_POINT('',#839);
#314=VERTEX_POINT('',#842);
#315=VERTEX_POINT('',#843);
#316=VERTEX_POINT('',#845);
#317=VERTEX_POINT('',#847);
#318=VERTEX_POINT('',#849);
#319=VERTEX_POINT('',#851);
#320=VERTEX_POINT('',#853);
#321=VERTEX_POINT('',#855);
#322=VERTEX_POINT('',#857);
#323=VERTEX_POINT('',#859);
#324=VERTEX_POINT('',#861);
#325=VERTEX_POINT('',#863);
#326=VERTEX_POINT('',#865);
#327=VERTEX_POINT('',#867);
#328=VERTEX_POINT('',#869);
#329=VERTEX_POINT('',#871);
#330=VERTEX_POINT('',#873);
#331=VERTEX_POINT('',#875);
#332=VERTEX_POINT('',#879);
#333=VERTEX_POINT('',#881);
#334=VERTEX_POINT('',#888);
#335=VERTEX_POINT('',#892);
#336=VERTEX_POINT('',#899);
#337=VERTEX_POINT('',#901);
#338=VERTEX_POINT('',#903);
#339=VERTEX_POINT('',#905);
#340=VERTEX_POINT('',#907);
#341=VERTEX_POINT('',#909);
#342=VERTEX_POINT('',#911);
#343=VERTEX_POINT('',#913);
#344=VERTEX_POINT('',#915);
#345=VERTEX_POINT('',#917);
#346=VERTEX_POINT('',#919);
#347=VERTEX_POINT('',#921);
#348=VERTEX_POINT('',#923);
#349=VERTEX_POINT('',#925);
#350=VERTEX_POINT('',#970);
#351=VERTEX_POINT('',#971);
#352=VERTEX_POINT('',#977);
#353=VERTEX_POINT('',#979);
#354=VERTEX_POINT('',#985);
#355=VERTEX_POINT('',#987);
#356=VERTEX_POINT('',#995);
#357=VERTEX_POINT('',#997);
#358=VERTEX_POINT('',#1007);
#359=VERTEX_POINT('',#1009);
#360=VERTEX_POINT('',#1021);
#361=VERTEX_POINT('',#1023);
#362=VERTEX_POINT('',#1037);
#363=CIRCLE('',#564,1.9);
#364=CIRCLE('',#565,1.9);
#365=CIRCLE('',#567,1.09999999999999);
#366=CIRCLE('',#569,0.999999999999993);
#367=CIRCLE('',#570,0.999999999999993);
#368=CIRCLE('',#572,0.875);
#369=CIRCLE('',#573,0.4375);
#370=CIRCLE('',#574,0.875);
#371=CIRCLE('',#575,0.875);
#372=CIRCLE('',#576,0.4375);
#373=CIRCLE('',#577,0.875);
#374=CIRCLE('',#578,0.875);
#375=CIRCLE('',#579,0.4375);
#376=CIRCLE('',#580,0.875);
#377=CIRCLE('',#581,0.875);
#378=CIRCLE('',#582,0.4375);
#379=CIRCLE('',#583,0.875);
#380=CIRCLE('',#584,0.875);
#381=CIRCLE('',#585,0.4375);
#382=CIRCLE('',#586,0.875);
#383=CIRCLE('',#587,0.875);
#384=CIRCLE('',#588,0.4375);
#385=CIRCLE('',#589,0.875);
#386=CIRCLE('',#591,0.4375);
#387=CIRCLE('',#593,0.875);
#388=CIRCLE('',#595,0.875);
#389=CIRCLE('',#597,0.875);
#390=CIRCLE('',#598,0.4375);
#391=CIRCLE('',#599,0.875);
#392=CIRCLE('',#600,0.875);
#393=CIRCLE('',#601,0.4375);
#394=CIRCLE('',#602,0.875);
#395=CIRCLE('',#603,0.875);
#396=CIRCLE('',#604,0.4375);
#397=CIRCLE('',#605,0.875);
#398=CIRCLE('',#606,0.875);
#399=CIRCLE('',#607,0.4375);
#400=CIRCLE('',#608,0.875);
#401=CIRCLE('',#609,0.875);
#402=CIRCLE('',#610,0.4375);
#403=CIRCLE('',#611,0.875);
#404=CIRCLE('',#628,1.3);
#405=CIRCLE('',#629,1.3);
#406=CIRCLE('',#630,1.3);
#407=CIRCLE('',#634,1.3);
#408=CIRCLE('',#637,1.3);
#409=CIRCLE('',#639,1.3);
#410=CIRCLE('',#641,1.);
#411=EDGE_LOOP('',(#75));
#412=EDGE_LOOP('',(#76));
#413=EDGE_LOOP('',(#77));
#414=EDGE_LOOP('',(#78));
#415=EDGE_LOOP('',(#79));
#416=EDGE_LOOP('',(#80));
#417=EDGE_LOOP('',(#81,#82,#83,#84,#85,#86,#87,#88,#89,#90,#91,#92,#93,
#94,#95,#96,#97,#98));
#418=EDGE_LOOP('',(#99));
#419=EDGE_LOOP('',(#100,#101,#102,#103));
#420=EDGE_LOOP('',(#104,#105,#106,#107));
#421=EDGE_LOOP('',(#108,#109,#110,#111));
#422=EDGE_LOOP('',(#112,#113,#114,#115,#116,#117,#118,#119,#120,#121,#122,
#123,#124,#125,#126,#127,#128,#129));
#423=EDGE_LOOP('',(#130,#131,#132,#133));
#424=EDGE_LOOP('',(#134,#135,#136,#137));
#425=EDGE_LOOP('',(#138,#139,#140,#141));
#426=EDGE_LOOP('',(#142,#143,#144,#145));
#427=EDGE_LOOP('',(#146,#147,#148,#149));
#428=EDGE_LOOP('',(#150,#151,#152,#153));
#429=EDGE_LOOP('',(#154,#155,#156,#157));
#430=EDGE_LOOP('',(#158,#159,#160,#161));
#431=EDGE_LOOP('',(#162,#163,#164,#165));
#432=EDGE_LOOP('',(#166,#167,#168,#169));
#433=EDGE_LOOP('',(#170,#171,#172,#173));
#434=EDGE_LOOP('',(#174,#175,#176,#177));
#435=EDGE_LOOP('',(#178,#179,#180,#181));
#436=EDGE_LOOP('',(#182,#183,#184,#185));
#437=EDGE_LOOP('',(#186,#187,#188,#189));
#438=EDGE_LOOP('',(#190,#191,#192,#193,#194,#195));
#439=EDGE_LOOP('',(#196));
#440=EDGE_LOOP('',(#197,#198,#199,#200));
#441=EDGE_LOOP('',(#201,#202,#203,#204));
#442=EDGE_LOOP('',(#205,#206,#207,#208));
#443=EDGE_LOOP('',(#209,#210,#211,#212));
#444=EDGE_LOOP('',(#213,#214,#215,#216));
#445=EDGE_LOOP('',(#217,#218,#219,#220));
#446=EDGE_LOOP('',(#221));
#447=EDGE_LOOP('',(#222,#223,#224,#225,#226,#227));
#448=EDGE_LOOP('',(#228));
#449=EDGE_LOOP('',(#229));
#450=EDGE_LOOP('',(#230));
#451=FACE_BOUND('',#411,.T.);
#452=FACE_BOUND('',#412,.T.);
#453=FACE_BOUND('',#413,.T.);
#454=FACE_BOUND('',#414,.T.);
#455=FACE_BOUND('',#415,.T.);
#456=FACE_BOUND('',#416,.T.);
#457=FACE_BOUND('',#417,.T.);
#458=FACE_BOUND('',#418,.T.);
#459=FACE_BOUND('',#419,.T.);
#460=FACE_BOUND('',#420,.T.);
#461=FACE_BOUND('',#421,.T.);
#462=FACE_BOUND('',#422,.T.);
#463=FACE_BOUND('',#423,.T.);
#464=FACE_BOUND('',#424,.T.);
#465=FACE_BOUND('',#425,.T.);
#466=FACE_BOUND('',#426,.T.);
#467=FACE_BOUND('',#427,.T.);
#468=FACE_BOUND('',#428,.T.);
#469=FACE_BOUND('',#429,.T.);
#470=FACE_BOUND('',#430,.T.);
#471=FACE_BOUND('',#431,.T.);
#472=FACE_BOUND('',#432,.T.);
#473=FACE_BOUND('',#433,.T.);
#474=FACE_BOUND('',#434,.T.);
#475=FACE_BOUND('',#435,.T.);
#476=FACE_BOUND('',#436,.T.);
#477=FACE_BOUND('',#437,.T.);
#478=FACE_BOUND('',#438,.T.);
#479=FACE_BOUND('',#439,.T.);
#480=FACE_BOUND('',#440,.T.);
#481=FACE_BOUND('',#441,.T.);
#482=FACE_BOUND('',#442,.T.);
#483=FACE_BOUND('',#443,.T.);
#484=FACE_BOUND('',#444,.T.);
#485=FACE_BOUND('',#445,.T.);
#486=FACE_BOUND('',#446,.T.);
#487=FACE_BOUND('',#447,.T.);
#488=FACE_BOUND('',#448,.T.);
#489=FACE_BOUND('',#449,.T.);
#490=FACE_BOUND('',#450,.T.);
#491=CYLINDRICAL_SURFACE('',#563,1.9);
#492=CYLINDRICAL_SURFACE('',#568,0.999999999999993);
#493=CYLINDRICAL_SURFACE('',#590,0.4375);
#494=CYLINDRICAL_SURFACE('',#592,0.875);
#495=CYLINDRICAL_SURFACE('',#594,0.875);
#496=CYLINDRICAL_SURFACE('',#612,0.4375);
#497=CYLINDRICAL_SURFACE('',#613,0.875);
#498=CYLINDRICAL_SURFACE('',#614,0.875);
#499=CYLINDRICAL_SURFACE('',#615,0.4375);
#500=CYLINDRICAL_SURFACE('',#616,0.875);
#501=CYLINDRICAL_SURFACE('',#617,0.875);
#502=CYLINDRICAL_SURFACE('',#618,0.4375);
#503=CYLINDRICAL_SURFACE('',#619,0.875);
#504=CYLINDRICAL_SURFACE('',#620,0.875);
#505=CYLINDRICAL_SURFACE('',#621,0.4375);
#506=CYLINDRICAL_SURFACE('',#622,0.875);
#507=CYLINDRICAL_SURFACE('',#623,0.875);
#508=CYLINDRICAL_SURFACE('',#624,0.4375);
#509=CYLINDRICAL_SURFACE('',#625,0.875);
#510=CYLINDRICAL_SURFACE('',#626,0.875);
#511=CYLINDRICAL_SURFACE('',#631,3.55902133426895);
#512=CYLINDRICAL_SURFACE('',#632,3.55902133426894);
#513=CYLINDRICAL_SURFACE('',#633,1.3);
#514=CYLINDRICAL_SURFACE('',#635,3.55902133426891);
#515=CYLINDRICAL_SURFACE('',#636,1.3);
#516=CYLINDRICAL_SURFACE('',#638,1.3);
#517=ADVANCED_FACE('',(#451,#452),#491,.T.);
#518=ADVANCED_FACE('',(#453,#454),#71,.T.);
#519=ADVANCED_FACE('',(#455,#456),#492,.T.);
#520=ADVANCED_FACE('',(#457,#458),#72,.T.);
#521=ADVANCED_FACE('',(#459),#493,.T.);
#522=ADVANCED_FACE('',(#460),#494,.F.);
#523=ADVANCED_FACE('',(#461),#495,.F.);
#524=ADVANCED_FACE('',(#462),#73,.F.);
#525=ADVANCED_FACE('',(#463),#496,.T.);
#526=ADVANCED_FACE('',(#464),#497,.F.);
#527=ADVANCED_FACE('',(#465),#498,.F.);
#528=ADVANCED_FACE('',(#466),#499,.T.);
#529=ADVANCED_FACE('',(#467),#500,.F.);
#530=ADVANCED_FACE('',(#468),#501,.F.);
#531=ADVANCED_FACE('',(#469),#502,.T.);
#532=ADVANCED_FACE('',(#470),#503,.F.);
#533=ADVANCED_FACE('',(#471),#504,.F.);
#534=ADVANCED_FACE('',(#472),#505,.T.);
#535=ADVANCED_FACE('',(#473),#506,.F.);
#536=ADVANCED_FACE('',(#474),#507,.F.);
#537=ADVANCED_FACE('',(#475),#508,.T.);
#538=ADVANCED_FACE('',(#476),#509,.F.);
#539=ADVANCED_FACE('',(#477),#510,.F.);
#540=ADVANCED_FACE('',(#478,#479),#21,.T.);
#541=ADVANCED_FACE('',(#480),#511,.T.);
#542=ADVANCED_FACE('',(#481),#512,.T.);
#543=ADVANCED_FACE('',(#482),#513,.T.);
#544=ADVANCED_FACE('',(#483),#514,.T.);
#545=ADVANCED_FACE('',(#484),#515,.T.);
#546=ADVANCED_FACE('',(#485),#516,.T.);
#547=ADVANCED_FACE('',(#486,#487),#22,.T.);
#548=ADVANCED_FACE('',(#488),#74,.F.);
#549=ADVANCED_FACE('',(#489,#490),#20,.F.);
#550=CLOSED_SHELL('',(#517,#518,#519,#520,#521,#522,#523,#524,#525,#526,
#527,#528,#529,#530,#531,#532,#533,#534,#535,#536,#537,#538,#539,#540,#541,
#542,#543,#544,#545,#546,#547,#548,#549));
#551=STYLED_ITEM('',(#552),#559);
#552=PRESENTATION_STYLE_ASSIGNMENT((#553));
#553=SURFACE_STYLE_USAGE(.BOTH.,#554);
#554=SURFACE_SIDE_STYLE('',(#555));
#555=SURFACE_STYLE_FILL_AREA(#556);
#556=FILL_AREA_STYLE('',(#557));
#557=FILL_AREA_STYLE_COLOUR('',#558);
#558=COLOUR_RGB('',0.506983280181885,0.531564235687256,0.550000011920929);
#559=MANIFOLD_SOLID_BREP('',#550);
#560=SHAPE_DEFINITION_REPRESENTATION(#1046,#561);
#561=SHAPE_REPRESENTATION('\X2\5185516D89D282B15F62570667F1593481EA653B95017D2787BA9489\X0\ ',
(#562),#1041);
#562=AXIS2_PLACEMENT_3D('',#826,#644,#645);
#563=AXIS2_PLACEMENT_3D('',#827,#646,#647);
#564=AXIS2_PLACEMENT_3D('',#828,#648,#649);
#565=AXIS2_PLACEMENT_3D('',#830,#650,#651);
#566=AXIS2_PLACEMENT_3D('',#832,#652,#653);
#567=AXIS2_PLACEMENT_3D('',#833,#654,#655);
#568=AXIS2_PLACEMENT_3D('',#835,#656,#657);
#569=AXIS2_PLACEMENT_3D('',#836,#658,#659);
#570=AXIS2_PLACEMENT_3D('',#838,#660,#661);
#571=AXIS2_PLACEMENT_3D('',#840,#662,#663);
#572=AXIS2_PLACEMENT_3D('',#841,#664,#665);
#573=AXIS2_PLACEMENT_3D('',#844,#666,#667);
#574=AXIS2_PLACEMENT_3D('',#846,#668,#669);
#575=AXIS2_PLACEMENT_3D('',#848,#670,#671);
#576=AXIS2_PLACEMENT_3D('',#850,#672,#673);
#577=AXIS2_PLACEMENT_3D('',#852,#674,#675);
#578=AXIS2_PLACEMENT_3D('',#854,#676,#677);
#579=AXIS2_PLACEMENT_3D('',#856,#678,#679);
#580=AXIS2_PLACEMENT_3D('',#858,#680,#681);
#581=AXIS2_PLACEMENT_3D('',#860,#682,#683);
#582=AXIS2_PLACEMENT_3D('',#862,#684,#685);
#583=AXIS2_PLACEMENT_3D('',#864,#686,#687);
#584=AXIS2_PLACEMENT_3D('',#866,#688,#689);
#585=AXIS2_PLACEMENT_3D('',#868,#690,#691);
#586=AXIS2_PLACEMENT_3D('',#870,#692,#693);
#587=AXIS2_PLACEMENT_3D('',#872,#694,#695);
#588=AXIS2_PLACEMENT_3D('',#874,#696,#697);
#589=AXIS2_PLACEMENT_3D('',#876,#698,#699);
#590=AXIS2_PLACEMENT_3D('',#877,#700,#701);
#591=AXIS2_PLACEMENT_3D('',#880,#703,#704);
#592=AXIS2_PLACEMENT_3D('',#883,#706,#707);
#593=AXIS2_PLACEMENT_3D('',#889,#708,#709);
#594=AXIS2_PLACEMENT_3D('',#890,#710,#711);
#595=AXIS2_PLACEMENT_3D('',#891,#712,#713);
#596=AXIS2_PLACEMENT_3D('',#897,#714,#715);
#597=AXIS2_PLACEMENT_3D('',#898,#716,#717);
#598=AXIS2_PLACEMENT_3D('',#900,#718,#719);
#599=AXIS2_PLACEMENT_3D('',#902,#720,#721);
#600=AXIS2_PLACEMENT_3D('',#904,#722,#723);
#601=AXIS2_PLACEMENT_3D('',#906,#724,#725);
#602=AXIS2_PLACEMENT_3D('',#908,#726,#727);
#603=AXIS2_PLACEMENT_3D('',#910,#728,#729);
#604=AXIS2_PLACEMENT_3D('',#912,#730,#731);
#605=AXIS2_PLACEMENT_3D('',#914,#732,#733);
#606=AXIS2_PLACEMENT_3D('',#916,#734,#735);
#607=AXIS2_PLACEMENT_3D('',#918,#736,#737);
#608=AXIS2_PLACEMENT_3D('',#920,#738,#739);
#609=AXIS2_PLACEMENT_3D('',#922,#740,#741);
#610=AXIS2_PLACEMENT_3D('',#924,#742,#743);
#611=AXIS2_PLACEMENT_3D('',#926,#744,#745);
#612=AXIS2_PLACEMENT_3D('',#927,#746,#747);
#613=AXIS2_PLACEMENT_3D('',#930,#750,#751);
#614=AXIS2_PLACEMENT_3D('',#935,#752,#753);
#615=AXIS2_PLACEMENT_3D('',#936,#754,#755);
#616=AXIS2_PLACEMENT_3D('',#939,#758,#759);
#617=AXIS2_PLACEMENT_3D('',#944,#760,#761);
#618=AXIS2_PLACEMENT_3D('',#945,#762,#763);
#619=AXIS2_PLACEMENT_3D('',#948,#766,#767);
#620=AXIS2_PLACEMENT_3D('',#953,#768,#769);
#621=AXIS2_PLACEMENT_3D('',#954,#770,#771);
#622=AXIS2_PLACEMENT_3D('',#957,#774,#775);
#623=AXIS2_PLACEMENT_3D('',#962,#776,#777);
#624=AXIS2_PLACEMENT_3D('',#963,#778,#779);
#625=AXIS2_PLACEMENT_3D('',#966,#782,#783);
#626=AXIS2_PLACEMENT_3D('',#967,#784,#785);
#627=AXIS2_PLACEMENT_3D('',#968,#786,#787);
#628=AXIS2_PLACEMENT_3D('',#969,#788,#789);
#629=AXIS2_PLACEMENT_3D('',#978,#790,#791);
#630=AXIS2_PLACEMENT_3D('',#986,#792,#793);
#631=AXIS2_PLACEMENT_3D('',#993,#794,#795);
#632=AXIS2_PLACEMENT_3D('',#1005,#798,#799);
#633=AXIS2_PLACEMENT_3D('',#1017,#802,#803);
#634=AXIS2_PLACEMENT_3D('',#1018,#804,#805);
#635=AXIS2_PLACEMENT_3D('',#1019,#806,#807);
#636=AXIS2_PLACEMENT_3D('',#1031,#810,#811);
#637=AXIS2_PLACEMENT_3D('',#1032,#812,#813);
#638=AXIS2_PLACEMENT_3D('',#1033,#814,#815);
#639=AXIS2_PLACEMENT_3D('',#1034,#816,#817);
#640=AXIS2_PLACEMENT_3D('',#1035,#818,#819);
#641=AXIS2_PLACEMENT_3D('',#1036,#820,#821);
#642=AXIS2_PLACEMENT_3D('',#1038,#822,#823);
#643=AXIS2_PLACEMENT_3D('',#1039,#824,#825);
#644=DIRECTION('',(0.,0.,1.));
#645=DIRECTION('',(1.,0.,0.));
#646=DIRECTION('',(-1.,0.,0.));
#647=DIRECTION('',(0.,0.,1.));
#648=DIRECTION('',(-1.,0.,0.));
#649=DIRECTION('',(0.,0.,1.));
#650=DIRECTION('',(-1.,0.,0.));
#651=DIRECTION('',(0.,0.,1.));
#652=DIRECTION('',(1.,0.,0.));
#653=DIRECTION('',(0.,0.,-1.));
#654=DIRECTION('',(1.,0.,0.));
#655=DIRECTION('',(0.,0.,-1.));
#656=DIRECTION('',(-1.,0.,0.));
#657=DIRECTION('',(0.,0.,1.));
#658=DIRECTION('',(1.,0.,0.));
#659=DIRECTION('',(0.,0.,-1.));
#660=DIRECTION('',(-1.,0.,0.));
#661=DIRECTION('',(0.,0.,1.));
#662=DIRECTION('',(-1.,0.,0.));
#663=DIRECTION('',(0.,0.,1.));
#664=DIRECTION('',(-1.,6.12303176911188E-17,4.00593428432545E-32));
#665=DIRECTION('',(3.06126842507117E-17,0.499959585464504,0.866048735870079));
#666=DIRECTION('',(1.,-6.12303176911188E-17,-4.00593428432545E-32));
#667=DIRECTION('',(3.06126842507117E-17,0.499959585464504,0.866048735870079));
#668=DIRECTION('',(-1.,6.12303176911188E-17,4.00593428432545E-32));
#669=DIRECTION('',(3.06126842507117E-17,0.499959585464504,0.866048735870079));
#670=DIRECTION('',(-1.,6.12303176911189E-17,-1.23259516440783E-32));
#671=DIRECTION('',(-3.06126840311132E-17,-0.49995958187807,0.866048737940484));
#672=DIRECTION('',(1.,-6.12303176911189E-17,1.23259516440783E-32));
#673=DIRECTION('',(-3.06126840311132E-17,-0.49995958187807,0.866048737940484));
#674=DIRECTION('',(-1.,6.12303176911189E-17,-1.23259516440783E-32));
#675=DIRECTION('',(-3.06126840311132E-17,-0.49995958187807,0.866048737940484));
#676=DIRECTION('',(-1.,6.12303176911189E-17,-9.04169340036609E-32));
#677=DIRECTION('',(-6.12303176911189E-17,-1.,-1.38038170927765E-9));
#678=DIRECTION('',(1.,-6.12303176911189E-17,9.04169340036609E-32));
#679=DIRECTION('',(-6.12303176911189E-17,-1.,-1.38038170927765E-9));
#680=DIRECTION('',(-1.,6.12303176911189E-17,-9.04169340036609E-32));
#681=DIRECTION('',(-6.12303176911189E-17,-1.,-1.38038170927765E-9));
#682=DIRECTION('',(-1.,6.12303176911188E-17,-5.54667823983524E-32));
#683=DIRECTION('',(-3.06126841775119E-17,-0.499959584269023,-0.866048736560216));
#684=DIRECTION('',(1.,-6.12303176911188E-17,5.54667823983524E-32));
#685=DIRECTION('',(-3.06126841775119E-17,-0.499959584269023,-0.866048736560216));
#686=DIRECTION('',(-1.,6.12303176911188E-17,-5.54667823983524E-32));
#687=DIRECTION('',(-3.06126841775119E-17,-0.499959584269023,-0.866048736560216));
#688=DIRECTION('',(-1.,6.12303176911188E-17,-6.47112461314111E-32));
#689=DIRECTION('',(3.06126841043126E-17,0.499959583073546,-0.86604873725035));
#690=DIRECTION('',(1.,-6.12303176911188E-17,6.47112461314111E-32));
#691=DIRECTION('',(3.06126841043126E-17,0.499959583073546,-0.86604873725035));
#692=DIRECTION('',(-1.,6.12303176911188E-17,-6.47112461314111E-32));
#693=DIRECTION('',(3.06126841043126E-17,0.499959583073546,-0.86604873725035));
#694=DIRECTION('',(-1.,6.12303176911189E-17,0.));
#695=DIRECTION('',(6.12303176911189E-17,1.,0.));
#696=DIRECTION('',(1.,-6.12303176911189E-17,0.));
#697=DIRECTION('',(6.12303176911189E-17,1.,0.));
#698=DIRECTION('',(-1.,6.12303176911189E-17,0.));
#699=DIRECTION('',(6.12303176911189E-17,1.,0.));
#700=DIRECTION('',(-1.,0.,0.));
#701=DIRECTION('',(0.,0.,1.));
#702=DIRECTION('',(-1.,0.,0.));
#703=DIRECTION('',(1.,-6.12303176911189E-17,0.));
#704=DIRECTION('',(6.12303176911189E-17,1.,0.));
#705=DIRECTION('',(-1.,0.,0.));
#706=DIRECTION('',(-1.,0.,0.));
#707=DIRECTION('',(0.,0.,1.));
#708=DIRECTION('',(-1.,6.12303176911189E-17,0.));
#709=DIRECTION('',(6.12303176911189E-17,1.,0.));
#710=DIRECTION('',(-1.,0.,0.));
#711=DIRECTION('',(0.,0.,1.));
#712=DIRECTION('',(-1.,6.12303176911189E-17,0.));
#713=DIRECTION('',(6.12303176911189E-17,1.,0.));
#714=DIRECTION('',(1.,-6.12303176911189E-17,0.));
#715=DIRECTION('',(6.12303176911189E-17,1.,0.));
#716=DIRECTION('',(-1.,6.12303176911188E-17,-6.47112461314111E-32));
#717=DIRECTION('',(3.06126841043126E-17,0.499959583073546,-0.86604873725035));
#718=DIRECTION('',(1.,-6.12303176911188E-17,6.47112461314111E-32));
#719=DIRECTION('',(3.06126841043126E-17,0.499959583073546,-0.86604873725035));
#720=DIRECTION('',(-1.,6.12303176911188E-17,-6.47112461314111E-32));
#721=DIRECTION('',(3.06126841043126E-17,0.499959583073546,-0.86604873725035));
#722=DIRECTION('',(-1.,6.12303176911188E-17,-5.54667823983524E-32));
#723=DIRECTION('',(-3.06126841775119E-17,-0.499959584269023,-0.866048736560216));
#724=DIRECTION('',(1.,-6.12303176911188E-17,5.54667823983524E-32));
#725=DIRECTION('',(-3.06126841775119E-17,-0.499959584269023,-0.866048736560216));
#726=DIRECTION('',(-1.,6.12303176911188E-17,-5.54667823983524E-32));
#727=DIRECTION('',(-3.06126841775119E-17,-0.499959584269023,-0.866048736560216));
#728=DIRECTION('',(-1.,6.12303176911189E-17,-9.04169340036609E-32));
#729=DIRECTION('',(-6.12303176911189E-17,-1.,-1.38038170927765E-9));
#730=DIRECTION('',(1.,-6.12303176911189E-17,9.04169340036609E-32));
#731=DIRECTION('',(-6.12303176911189E-17,-1.,-1.38038170927765E-9));
#732=DIRECTION('',(-1.,6.12303176911189E-17,-9.04169340036609E-32));
#733=DIRECTION('',(-6.12303176911189E-17,-1.,-1.38038170927765E-9));
#734=DIRECTION('',(-1.,6.12303176911189E-17,-1.23259516440783E-32));
#735=DIRECTION('',(-3.06126840311132E-17,-0.49995958187807,0.866048737940484));
#736=DIRECTION('',(1.,-6.12303176911189E-17,1.23259516440783E-32));
#737=DIRECTION('',(-3.06126840311132E-17,-0.49995958187807,0.866048737940484));
#738=DIRECTION('',(-1.,6.12303176911189E-17,-1.23259516440783E-32));
#739=DIRECTION('',(-3.06126840311132E-17,-0.49995958187807,0.866048737940484));
#740=DIRECTION('',(-1.,6.12303176911188E-17,4.00593428432545E-32));
#741=DIRECTION('',(3.06126842507117E-17,0.499959585464504,0.866048735870079));
#742=DIRECTION('',(1.,-6.12303176911188E-17,-4.00593428432545E-32));
#743=DIRECTION('',(3.06126842507117E-17,0.499959585464504,0.866048735870079));
#744=DIRECTION('',(-1.,6.12303176911188E-17,4.00593428432545E-32));
#745=DIRECTION('',(3.06126842507117E-17,0.499959585464504,0.866048735870079));
#746=DIRECTION('',(-1.,3.06176335868062E-17,5.30284393178312E-17));
#747=DIRECTION('',(5.30284393178312E-17,0.,1.));
#748=DIRECTION('',(-1.,3.06176335868062E-17,5.30284393178312E-17));
#749=DIRECTION('',(-1.,3.06176335868062E-17,5.30284393178312E-17));
#750=DIRECTION('',(-1.,3.06176335868062E-17,5.30284393178312E-17));
#751=DIRECTION('',(5.30284393178312E-17,0.,1.));
#752=DIRECTION('',(-1.,3.06176335868062E-17,5.30284393178312E-17));
#753=DIRECTION('',(5.30284393178312E-17,0.,1.));
#754=DIRECTION('',(-1.,9.18430018686307E-17,5.30284392755741E-17));
#755=DIRECTION('',(-9.18430018686307E-17,-1.,0.));
#756=DIRECTION('',(-1.,9.18430018686307E-17,5.30284392755741E-17));
#757=DIRECTION('',(-1.,9.18430018686307E-17,5.30284392755741E-17));
#758=DIRECTION('',(-1.,9.18430018686307E-17,5.30284392755741E-17));
#759=DIRECTION('',(-9.18430018686307E-17,-1.,0.));
#760=DIRECTION('',(-1.,9.18430018686307E-17,5.30284392755741E-17));
#761=DIRECTION('',(-9.18430018686307E-17,-1.,0.));
#762=DIRECTION('',(-1.,1.22460635382238E-16,8.45211201771464E-26));
#763=DIRECTION('',(-1.22460635382238E-16,-1.,0.));
#764=DIRECTION('',(-1.,1.22460635382238E-16,8.45211201771464E-26));
#765=DIRECTION('',(-1.,1.22460635382238E-16,8.45211201771464E-26));
#766=DIRECTION('',(-1.,1.22460635382238E-16,8.45211201771464E-26));
#767=DIRECTION('',(-1.22460635382238E-16,-1.,0.));
#768=DIRECTION('',(-1.,1.22460635382238E-16,8.45211201771464E-26));
#769=DIRECTION('',(-1.22460635382238E-16,-1.,0.));
#770=DIRECTION('',(-1.,9.18430017222321E-17,-5.30284393600884E-17));
#771=DIRECTION('',(-9.18430017222321E-17,-1.,0.));
#772=DIRECTION('',(-1.,9.18430017222321E-17,-5.30284393600884E-17));
#773=DIRECTION('',(-1.,9.18430017222321E-17,-5.30284393600884E-17));
#774=DIRECTION('',(-1.,9.18430017222321E-17,-5.30284393600884E-17));
#775=DIRECTION('',(-9.18430017222321E-17,-1.,0.));
#776=DIRECTION('',(-1.,9.18430017222321E-17,-5.30284393600884E-17));
#777=DIRECTION('',(-9.18430017222321E-17,-1.,0.));
#778=DIRECTION('',(-1.,3.06176334404072E-17,-5.30284392333168E-17));
#779=DIRECTION('',(-5.30284392333168E-17,0.,1.));
#780=DIRECTION('',(-1.,3.06176334404072E-17,-5.30284392333168E-17));
#781=DIRECTION('',(-1.,3.06176334404072E-17,-5.30284392333168E-17));
#782=DIRECTION('',(-1.,3.06176334404072E-17,-5.30284392333168E-17));
#783=DIRECTION('',(-5.30284392333168E-17,0.,1.));
#784=DIRECTION('',(-1.,3.06176334404072E-17,-5.30284392333168E-17));
#785=DIRECTION('',(-5.30284392333168E-17,0.,1.));
#786=DIRECTION('',(1.,0.,0.));
#787=DIRECTION('',(0.,0.,-1.));
#788=DIRECTION('',(-1.,0.,0.));
#789=DIRECTION('',(0.,0.,1.));
#790=DIRECTION('',(-1.,0.,0.));
#791=DIRECTION('',(0.,0.,1.));
#792=DIRECTION('',(-1.,0.,0.));
#793=DIRECTION('',(0.,0.,1.));
#794=DIRECTION('',(-1.,0.,0.));
#795=DIRECTION('',(0.,0.,1.));
#796=DIRECTION('',(-1.,0.,0.));
#797=DIRECTION('',(-1.,0.,0.));
#798=DIRECTION('',(-1.,0.,0.));
#799=DIRECTION('',(0.,0.,1.));
#800=DIRECTION('',(-1.,0.,0.));
#801=DIRECTION('',(-1.,0.,0.));
#802=DIRECTION('',(-1.,0.,0.));
#803=DIRECTION('',(0.,0.,1.));
#804=DIRECTION('',(-1.,0.,0.));
#805=DIRECTION('',(0.,0.,1.));
#806=DIRECTION('',(-1.,0.,0.));
#807=DIRECTION('',(0.,0.,1.));
#808=DIRECTION('',(-1.,0.,0.));
#809=DIRECTION('',(-1.,0.,0.));
#810=DIRECTION('',(-1.,0.,0.));
#811=DIRECTION('',(0.,0.,1.));
#812=DIRECTION('',(-1.,0.,0.));
#813=DIRECTION('',(0.,0.,1.));
#814=DIRECTION('',(-1.,0.,0.));
#815=DIRECTION('',(0.,0.,1.));
#816=DIRECTION('',(-1.,0.,0.));
#817=DIRECTION('',(0.,0.,1.));
#818=DIRECTION('',(-1.,0.,0.));
#819=DIRECTION('',(0.,0.,1.));
#820=DIRECTION('',(-1.,0.,0.));
#821=DIRECTION('',(0.,0.,1.));
#822=DIRECTION('',(-1.,6.12303176911189E-17,0.));
#823=DIRECTION('',(-6.12303176911189E-17,-1.,0.));
#824=DIRECTION('',(1.,0.,0.));
#825=DIRECTION('',(0.,0.,-1.));
#826=CARTESIAN_POINT('',(0.,0.,0.));
#827=CARTESIAN_POINT('',(0.,0.,0.));
#828=CARTESIAN_POINT('',(2.,0.,0.));
#829=CARTESIAN_POINT('',(2.,0.,1.9));
#830=CARTESIAN_POINT('',(0.,0.,0.));
#831=CARTESIAN_POINT('',(0.,0.,1.9));
#832=CARTESIAN_POINT('',(2.,0.,1.9));
#833=CARTESIAN_POINT('',(2.,0.,0.));
#834=CARTESIAN_POINT('',(2.,0.,-1.09999999999999));
#835=CARTESIAN_POINT('',(0.,0.,0.));
#836=CARTESIAN_POINT('',(2.1,0.,0.));
#837=CARTESIAN_POINT('',(2.1,0.,-0.999999999999993));
#838=CARTESIAN_POINT('',(2.8,0.,0.));
#839=CARTESIAN_POINT('',(2.8,0.,0.999999999999993));
#840=CARTESIAN_POINT('',(0.,0.,0.));
#841=CARTESIAN_POINT('',(2.08725139027311E-21,3.4088527856805E-5,-2.27668993150153E-5));
#842=CARTESIAN_POINT('',(-3.44381563348984E-17,-0.562436349075051,0.670239873281975));
#843=CARTESIAN_POINT('',(-1.33941709753143E-17,-0.437500636618975,0.757750636249151));
#844=CARTESIAN_POINT('',(-6.05226056310882E-17,-0.988441803232171,0.570612552589375));
#845=CARTESIAN_POINT('',(0.,-0.861679784960871,0.151879175935703));
#846=CARTESIAN_POINT('',(2.08725139027311E-21,3.4088527856805E-5,-2.27668993150153E-5));
#847=CARTESIAN_POINT('',(-5.35765279213894E-17,-0.87499999904721,-2.2765087493583E-5));
#848=CARTESIAN_POINT('',(-2.08725139608701E-21,-3.40885279517811E-5,-2.27668991736353E-5));
#849=CARTESIAN_POINT('',(0.,-0.861747962645727,-0.15192470616571));
#850=CARTESIAN_POINT('',(-6.05267802785669E-17,-0.988509982651063,-0.570658082294442));
#851=CARTESIAN_POINT('',(-3.4442331007639E-17,-0.562504528906514,-0.670285404751192));
#852=CARTESIAN_POINT('',(-2.08725139608701E-21,-3.40885279517811E-5,-2.27668991736353E-5));
#853=CARTESIAN_POINT('',(-2.6790390285685E-17,-0.437534726192851,-0.757773401336571));
#854=CARTESIAN_POINT('',(0.,0.,2.41566738607814E-9));
#855=CARTESIAN_POINT('',(0.,-0.299267624274967,-0.822231041185106));
#856=CARTESIAN_POINT('',(9.64694767502248E-26,1.57551646291203E-9,-1.14136289186412));
#857=CARTESIAN_POINT('',(1.83242518480146E-17,0.299267626544953,-0.822231040358899));
#858=CARTESIAN_POINT('',(0.,0.,2.41566738607814E-9));
#859=CARTESIAN_POINT('',(2.67883030342926E-17,0.437500637664961,-0.757750634437398));
#860=CARTESIAN_POINT('',(-2.08725139242172E-21,-3.40885278901442E-5,2.27668992688283E-5));
#861=CARTESIAN_POINT('',(0.,0.562436350000239,-0.670239872505595));
#862=CARTESIAN_POINT('',(6.05226056793169E-17,0.988441804019834,-0.570612551224944));
#863=CARTESIAN_POINT('',(5.27609269940059E-17,0.861679785170521,-0.151879174746252));
#864=CARTESIAN_POINT('',(-2.08725139242172E-21,-3.40885278901442E-5,2.27668992688283E-5));
#865=CARTESIAN_POINT('',(5.35765279213873E-17,0.874999999047178,2.27662953287593E-5));
#866=CARTESIAN_POINT('',(2.08725139413098E-21,3.40885279201224E-5,2.27668992210149E-5));
#867=CARTESIAN_POINT('',(0.,0.861747962436013,0.151924707355249));
#868=CARTESIAN_POINT('',(6.05267802303342E-17,0.988509981863338,0.570658083658961));
#869=CARTESIAN_POINT('',(3.44423309509857E-17,0.562504527981266,0.670285405527662));
#870=CARTESIAN_POINT('',(2.08725139413098E-21,3.40885279201224E-5,2.27668992210149E-5));
#871=CARTESIAN_POINT('',(2.67903902856849E-17,0.437534726192851,0.757773402544452));
#872=CARTESIAN_POINT('',(0.,0.,0.));
#873=CARTESIAN_POINT('',(1.83242517785186E-17,0.29926762540996,0.82223104318767));
#874=CARTESIAN_POINT('',(0.,0.,1.14136289427979));
#875=CARTESIAN_POINT('',(-1.83242517785186E-17,-0.29926762540996,0.82223104318767));
#876=CARTESIAN_POINT('',(0.,0.,0.));
#877=CARTESIAN_POINT('',(0.84,0.,1.14136289427979));
#878=CARTESIAN_POINT('',(0.84,0.29926762540996,0.82223104318767));
#879=CARTESIAN_POINT('',(0.84,0.29926762540996,0.82223104318767));
#880=CARTESIAN_POINT('',(0.84,0.,1.14136289427979));
#881=CARTESIAN_POINT('',(0.84,-0.29926762540996,0.82223104318767));
#882=CARTESIAN_POINT('',(0.84,-0.29926762540996,0.82223104318767));
#883=CARTESIAN_POINT('',(0.84,0.,0.));
#884=CARTESIAN_POINT('',(0.,0.4375,0.757772228311384));
#885=CARTESIAN_POINT('',(0.28,0.4375,0.757772228311384));
#886=CARTESIAN_POINT('',(0.56,0.4375,0.757772228311384));
#887=CARTESIAN_POINT('',(0.84,0.4375,0.757772228311384));
#888=CARTESIAN_POINT('',(0.84,0.437534726192851,0.757773402544452));
#889=CARTESIAN_POINT('',(0.84,0.,0.));
#890=CARTESIAN_POINT('',(0.84,0.,0.));
#891=CARTESIAN_POINT('',(0.84,0.,0.));
#892=CARTESIAN_POINT('',(0.84,-0.437500636618975,0.757750636249151));
#893=CARTESIAN_POINT('',(0.84,-0.4375,0.757772228311384));
#894=CARTESIAN_POINT('',(0.56,-0.4375,0.757772228311384));
#895=CARTESIAN_POINT('',(0.28,-0.4375,0.757772228311384));
#896=CARTESIAN_POINT('',(0.,-0.4375,0.757772228311384));
#897=CARTESIAN_POINT('',(0.84,0.,1.14136289427979));
#898=CARTESIAN_POINT('',(0.84,3.40885279200967E-5,2.27668992209704E-5));
#899=CARTESIAN_POINT('',(0.84,0.562504527981266,0.670285405527662));
#900=CARTESIAN_POINT('',(0.84,0.988509981863338,0.570658083658961));
#901=CARTESIAN_POINT('',(0.84,0.861747962436013,0.151924707355249));
#902=CARTESIAN_POINT('',(0.84,3.40885279200967E-5,2.27668992209704E-5));
#903=CARTESIAN_POINT('',(0.84,0.874999999047178,2.27662953287147E-5));
#904=CARTESIAN_POINT('',(0.84,-3.40885278902213E-5,2.27668992687837E-5));
#905=CARTESIAN_POINT('',(0.84,0.861679785170521,-0.151879174746252));
#906=CARTESIAN_POINT('',(0.84,0.988441804019834,-0.570612551224944));
#907=CARTESIAN_POINT('',(0.84,0.562436350000239,-0.670239872505595));
#908=CARTESIAN_POINT('',(0.84,-3.40885278902213E-5,2.27668992687837E-5));
#909=CARTESIAN_POINT('',(0.84,0.43750063766496,-0.757750634437398));
#910=CARTESIAN_POINT('',(0.84,-1.0286693372108E-16,2.41566738607814E-9));
#911=CARTESIAN_POINT('',(0.84,0.299267626544953,-0.822231040358899));
#912=CARTESIAN_POINT('',(0.84,1.57551636004509E-9,-1.14136289186412));
#913=CARTESIAN_POINT('',(0.84,-0.299267624274967,-0.822231041185106));
#914=CARTESIAN_POINT('',(0.84,-1.0286693372108E-16,2.41566738607814E-9));
#915=CARTESIAN_POINT('',(0.84,-0.437534726192852,-0.757773401336571));
#916=CARTESIAN_POINT('',(0.84,-3.40885279518582E-5,-2.27668991735908E-5));
#917=CARTESIAN_POINT('',(0.84,-0.562504528906514,-0.670285404751192));
#918=CARTESIAN_POINT('',(0.84,-0.988509982651063,-0.570658082294442));
#919=CARTESIAN_POINT('',(0.84,-0.861747962645728,-0.15192470616571));
#920=CARTESIAN_POINT('',(0.84,-3.40885279518582E-5,-2.27668991735908E-5));
#921=CARTESIAN_POINT('',(0.84,-0.87499999904721,-2.27650874935385E-5));
#922=CARTESIAN_POINT('',(0.84,3.40885278567792E-5,-2.27668993149707E-5));
#923=CARTESIAN_POINT('',(0.84,-0.861679784960871,0.151879175935703));
#924=CARTESIAN_POINT('',(0.84,-0.988441803232171,0.570612552589375));
#925=CARTESIAN_POINT('',(0.84,-0.562436349075051,0.670239873281975));
#926=CARTESIAN_POINT('',(0.84,3.40885278567792E-5,-2.27668993149707E-5));
#927=CARTESIAN_POINT('',(0.84,0.988509981863338,0.570658083658961));
#928=CARTESIAN_POINT('',(0.84,0.861747962436013,0.151924707355249));
#929=CARTESIAN_POINT('',(0.84,0.562504527981266,0.670285405527662));
#930=CARTESIAN_POINT('',(0.84,3.40885279200967E-5,2.27668992209704E-5));
#931=CARTESIAN_POINT('',(2.67882639315202E-17,0.875034087575054,-1.80683165357481E-5));
#932=CARTESIAN_POINT('',(0.28,0.875034087575055,-1.80683165357629E-5));
#933=CARTESIAN_POINT('',(0.56,0.875034087575055,-1.80683165357778E-5));
#934=CARTESIAN_POINT('',(0.84,0.875034087575054,-1.80683165357926E-5));
#935=CARTESIAN_POINT('',(0.84,3.40885279200967E-5,2.27668992209704E-5));
#936=CARTESIAN_POINT('',(0.84,0.988441804019834,-0.570612551224944));
#937=CARTESIAN_POINT('',(0.84,0.562436350000239,-0.670239872505595));
#938=CARTESIAN_POINT('',(0.84,0.861679785170521,-0.151879174746252));
#939=CARTESIAN_POINT('',(0.84,-3.40885278902213E-5,2.27668992687837E-5));
#940=CARTESIAN_POINT('',(2.16527620071948E-21,0.437501274283906,-0.757729043582996));
#941=CARTESIAN_POINT('',(0.28,0.437501274283906,-0.757729043582996));
#942=CARTESIAN_POINT('',(0.56,0.437501274283906,-0.757729043582996));
#943=CARTESIAN_POINT('',(0.84,0.437501274283906,-0.757729043582996));
#944=CARTESIAN_POINT('',(0.84,-3.40885278902213E-5,2.27668992687837E-5));
#945=CARTESIAN_POINT('',(0.84,1.57551636004509E-9,-1.14136289186412));
#946=CARTESIAN_POINT('',(0.84,-0.299267624274967,-0.822231041185106));
#947=CARTESIAN_POINT('',(0.84,0.299267626544953,-0.822231040358899));
#948=CARTESIAN_POINT('',(0.84,-1.0286693372108E-16,2.41566738607814E-9));
#949=CARTESIAN_POINT('',(-5.35765279156811E-17,-0.437499998953985,-0.757772226499634));
#950=CARTESIAN_POINT('',(0.28,-0.437499998953985,-0.757772226499634));
#951=CARTESIAN_POINT('',(0.56,-0.437499998953985,-0.757772226499634));
#952=CARTESIAN_POINT('',(0.84,-0.437499998953985,-0.757772226499634));
#953=CARTESIAN_POINT('',(0.84,-1.0286693372108E-16,2.41566738607814E-9));
#954=CARTESIAN_POINT('',(0.84,-0.988509982651063,-0.570658082294442));
#955=CARTESIAN_POINT('',(0.84,-0.861747962645728,-0.15192470616571));
#956=CARTESIAN_POINT('',(0.84,-0.562504528906514,-0.670285404751192));
#957=CARTESIAN_POINT('',(0.84,-3.40885279518582E-5,-2.27668991735908E-5));
#958=CARTESIAN_POINT('',(2.80554253373046E-17,-0.87503408757503,1.80695244151002E-5));
#959=CARTESIAN_POINT('',(0.28,-0.87503408757503,1.80695244151151E-5));
#960=CARTESIAN_POINT('',(0.56,-0.87503408757503,1.80695244151299E-5));
#961=CARTESIAN_POINT('',(0.84,-0.87503408757503,1.80695244151448E-5));
#962=CARTESIAN_POINT('',(0.84,-3.40885279518582E-5,-2.27668991735908E-5));
#963=CARTESIAN_POINT('',(0.84,-0.988441803232171,0.570612552589375));
#964=CARTESIAN_POINT('',(0.84,-0.562436349075051,0.670239873281975));
#965=CARTESIAN_POINT('',(0.84,-0.861679784960871,0.151879175935703));
#966=CARTESIAN_POINT('',(0.84,3.40885278567792E-5,-2.27668993149707E-5));
#967=CARTESIAN_POINT('',(0.84,3.40885278567792E-5,-2.27668993149707E-5));
#968=CARTESIAN_POINT('',(2.8,0.,0.));
#969=CARTESIAN_POINT('',(3.,0.,0.));
#970=CARTESIAN_POINT('',(3.,-0.336464758633276,1.25570357417579));
#971=CARTESIAN_POINT('',(3.,0.336464758633276,1.25570357417579));
#972=CARTESIAN_POINT('',(3.,1.25570357417579,-0.336464758633278));
#973=CARTESIAN_POINT('',(2.89927056699547,1.1774049551854,-0.0448962180286994));
#974=CARTESIAN_POINT('',(2.75411991660698,0.937871595705867,0.541041289076322));
#975=CARTESIAN_POINT('',(2.89915633400529,0.550063170777304,1.04186848411291));
#976=CARTESIAN_POINT('',(3.,0.336464758633277,1.25570357417579));
#977=CARTESIAN_POINT('',(3.,1.25570357417579,-0.336464758633278));
#978=CARTESIAN_POINT('',(3.,0.,0.));
#979=CARTESIAN_POINT('',(3.,0.919238815542513,-0.919238815542511));
#980=CARTESIAN_POINT('',(3.,-0.919238815542512,-0.919238815542513));
#981=CARTESIAN_POINT('',(2.89927060321391,-0.627583847807386,-0.997214464680821));
#982=CARTESIAN_POINT('',(2.75412001301065,-0.000380596558655956,-1.08274119729334));
#983=CARTESIAN_POINT('',(2.8991561051488,0.627252326617429,-0.997303098795955));
#984=CARTESIAN_POINT('',(3.,0.919238815542513,-0.919238815542511));
#985=CARTESIAN_POINT('',(3.,-0.919238815542512,-0.919238815542512));
#986=CARTESIAN_POINT('',(3.,0.,0.));
#987=CARTESIAN_POINT('',(3.,-1.25570357417579,-0.33646475863328));
#988=CARTESIAN_POINT('',(3.,-0.336464758633275,1.25570357417579));
#989=CARTESIAN_POINT('',(2.89927094655701,-0.549820408291253,1.04211151559216));
#990=CARTESIAN_POINT('',(2.75411985614162,-0.937490901449521,0.541700764553226));
#991=CARTESIAN_POINT('',(2.89915607582056,-1.17731595934164,-0.0445648151429432));
#992=CARTESIAN_POINT('',(3.,-1.25570357417579,-0.33646475863328));
#993=CARTESIAN_POINT('',(7.,-2.27682456221956E-15,2.51902133426895));
#994=CARTESIAN_POINT('',(7.,-0.919238815542512,-0.919238815542512));
#995=CARTESIAN_POINT('',(6.4,-0.919238815542512,-0.919238815542512));
#996=CARTESIAN_POINT('',(7.,0.919238815542513,-0.919238815542511));
#997=CARTESIAN_POINT('',(6.4,0.919238815542513,-0.919238815542511));
#998=CARTESIAN_POINT('',(6.4,0.919238815542512,-0.919238815542512));
#999=CARTESIAN_POINT('',(6.52905558569871,0.794681655852155,-0.952539895435312));
#1000=CARTESIAN_POINT('',(6.77370806769773,0.533723673117708,-1.01028179672775));
#1001=CARTESIAN_POINT('',(6.99292759194558,1.66786320918097E-5,-1.05481055683851));
#1002=CARTESIAN_POINT('',(6.7745813355243,-0.532369514646705,-1.0104759286468));
#1003=CARTESIAN_POINT('',(6.52911794031313,-0.794621474701342,-0.952555985215429));
#1004=CARTESIAN_POINT('',(6.4,-0.919238815542512,-0.919238815542513));
#1005=CARTESIAN_POINT('',(7.,-2.18153646815187,-1.25951066713447));
#1006=CARTESIAN_POINT('',(7.,1.25570357417579,-0.336464758633277));
#1007=CARTESIAN_POINT('',(6.4,1.25570357417579,-0.336464758633277));
#1008=CARTESIAN_POINT('',(7.,0.336464758633276,1.25570357417579));
#1009=CARTESIAN_POINT('',(6.4,0.336464758633278,1.25570357417579));
#1010=CARTESIAN_POINT('',(6.4,0.336464758633278,1.25570357417579));
#1011=CARTESIAN_POINT('',(6.52905561750796,0.427582942097625,1.16448442712367));
#1012=CARTESIAN_POINT('',(6.7737079674882,0.608067788271872,0.967359243917737));
#1013=CARTESIAN_POINT('',(6.99292761821931,0.913484364782778,0.52741979400089));
#1014=CARTESIAN_POINT('',(6.77458133050644,1.14128258930041,0.0441924243919657));
#1015=CARTESIAN_POINT('',(6.52911794398478,1.2222484181228,-0.211884387333678));
#1016=CARTESIAN_POINT('',(6.4,1.25570357417579,-0.336464758633278));
#1017=CARTESIAN_POINT('',(7.,0.,0.));
#1018=CARTESIAN_POINT('',(6.4,0.,0.));
#1019=CARTESIAN_POINT('',(7.,2.18153646815185,-1.25951066713446));
#1020=CARTESIAN_POINT('',(7.,-0.336464758633275,1.25570357417579));
#1021=CARTESIAN_POINT('',(6.4,-0.336464758633276,1.25570357417579));
#1022=CARTESIAN_POINT('',(7.,-1.25570357417579,-0.336464758633278));
#1023=CARTESIAN_POINT('',(6.4,-1.25570357417579,-0.33646475863328));
#1024=CARTESIAN_POINT('',(6.4,-1.25570357417579,-0.33646475863328));
#1025=CARTESIAN_POINT('',(6.52905558544263,-1.22226457555758,-0.211944554418866));
#1026=CARTESIAN_POINT('',(6.77370806850449,-1.14179153721263,0.0429226397198086));
#1027=CARTESIAN_POINT('',(6.99292759173407,-0.913501077358035,0.527390834826999));
#1028=CARTESIAN_POINT('',(6.77458133556468,-0.608913066877691,0.96628348808849));
#1029=CARTESIAN_POINT('',(6.52911794028357,-0.427626944351931,1.16444037611262));
#1030=CARTESIAN_POINT('',(6.4,-0.336464758633274,1.25570357417579));
#1031=CARTESIAN_POINT('',(7.,0.,0.));
#1032=CARTESIAN_POINT('',(6.4,0.,0.));
#1033=CARTESIAN_POINT('',(7.,0.,0.));
#1034=CARTESIAN_POINT('',(6.4,0.,0.));
#1035=CARTESIAN_POINT('',(6.4,0.,0.));
#1036=CARTESIAN_POINT('',(7.,0.,0.));
#1037=CARTESIAN_POINT('',(7.,0.,1.));
#1038=CARTESIAN_POINT('',(7.,-1.13841228110978E-15,1.25951066713447));
#1039=CARTESIAN_POINT('',(2.1,0.,0.));
#1040=MECHANICAL_DESIGN_GEOMETRIC_PRESENTATION_REPRESENTATION('',(#551),
#1041);
#1041=(
GEOMETRIC_REPRESENTATION_CONTEXT(3)
GLOBAL_UNCERTAINTY_ASSIGNED_CONTEXT((#1042))
GLOBAL_UNIT_ASSIGNED_CONTEXT((#1045,#1044,#1043))
REPRESENTATION_CONTEXT('\X2\5185516D89D282B15F62570667F1593481EA653B95017D2787BA9489\X0\ ',
'TOP_LEVEL_ASSEMBLY_PART')
);
#1042=UNCERTAINTY_MEASURE_WITH_UNIT(LENGTH_MEASURE(0.005),#1045,
'DISTANCE_ACCURACY_VALUE','Maximum Tolerance applied to model');
#1043=(
NAMED_UNIT(*)
SI_UNIT($,.STERADIAN.)
SOLID_ANGLE_UNIT()
);
#1044=(
NAMED_UNIT(*)
PLANE_ANGLE_UNIT()
SI_UNIT($,.RADIAN.)
);
#1045=(
LENGTH_UNIT()
NAMED_UNIT(*)
SI_UNIT(.MILLI.,.METRE.)
);
#1046=PRODUCT_DEFINITION_SHAPE('','',#1047);
#1047=PRODUCT_DEFINITION('','',#1049,#1048);
#1048=PRODUCT_DEFINITION_CONTEXT('',#1055,'design');
#1049=PRODUCT_DEFINITION_FORMATION_WITH_SPECIFIED_SOURCE('','',#1051,
 .NOT_KNOWN.);
#1050=PRODUCT_RELATED_PRODUCT_CATEGORY('','',(#1051));
#1051=PRODUCT('\X2\5185516D89D282B15F62570667F1593481EA653B95017D2787BA9489\X0\ ',
'\X2\5185516D89D282B15F62570667F1593481EA653B95017D2787BA9489\X0\ ',
'\X2\5185516D89D282B15F62570667F1593481EA653B95017D2787BA9489\X0\ ',(#1053));
#1052=PRODUCT_CATEGORY('','');
#1053=PRODUCT_CONTEXT('',#1055,'mechanical');
#1054=APPLICATION_PROTOCOL_DEFINITION('international standard',
'automotive_design',2010,#1055);
#1055=APPLICATION_CONTEXT(
'core data for automotive mechanical design processes');
ENDSEC;
END-ISO-10303-21;
