ISO-10303-21;
HEADER;
/* Generated by software containing HOOPS Exchange Step
 * from HOOPS Exchange, Inc. (www.tiangong.cloud) 
 */

FILE_DESCRIPTION(
/* description */ ('Unknown'),
/* implementation_level */ '2;1');

FILE_NAME(
/* name */ '\X2\65B95934957F570667F1740397627AEF7D275B9A87BA9489\X0\ ',

/* time_stamp */ '2025-12-25T09:07:49+08:00',
/* author */ ('Unknown'),
/* organization */ ('Unknown'),
/* preprocessor_version */ 'ST-DEVELOPER v19.4',
/* originating_system */ 'TianGong',
/* authorisation */ 'Unknown');

FILE_SCHEMA (('AUTOMOTIVE_DESIGN {1 0 10303 214 3 1 1}'));
ENDSEC;

DATA;
#10=PROPERTY_DEFINITION_REPRESENTATION(#14,#12);
#11=PROPERTY_DEFINITION_REPRESENTATION(#15,#13);
#12=REPRESENTATION('',(#16),#1094);
#13=REPRESENTATION('',(#17),#1094);
#14=PROPERTY_DEFINITION('pmi validation property','',#1099);
#15=PROPERTY_DEFINITION('pmi validation property','',#1099);
#16=VALUE_REPRESENTATION_ITEM('number of annotations',COUNT_MEASURE(0.));
#17=VALUE_REPRESENTATION_ITEM('number of views',COUNT_MEASURE(0.));
#18=SHAPE_REPRESENTATION_RELATIONSHIP('','',#721,#19);
#19=ADVANCED_BREP_SHAPE_REPRESENTATION('',(#719),#1094);
#20=TOROIDAL_SURFACE('',#777,4.39999999999999,0.4);
#21=TOROIDAL_SURFACE('',#778,2.99999999999999,0.4);
#22=SPHERICAL_SURFACE('',#767,4.62499999999999);
#23=CYLINDRICAL_SURFACE('',#753,4.85);
#24=CYLINDRICAL_SURFACE('',#759,3.99999999999999);
#25=CYLINDRICAL_SURFACE('',#764,2.59999999999999);
#26=CONICAL_SURFACE('',#739,5.65685424949237,1.0471975511966);
#27=CONICAL_SURFACE('',#741,5.65685424949237,1.0471975511966);
#28=CONICAL_SURFACE('',#768,5.65685424949237,1.0471975511966);
#29=CONICAL_SURFACE('',#770,5.65685424949237,1.0471975511966);
#30=B_SPLINE_CURVE_WITH_KNOTS('',3,(#968,#969,#970,#971),.UNSPECIFIED.,
 .F.,.F.,(4,4),(0.00412116227415452,0.00703420632342171),.UNSPECIFIED.);
#31=B_SPLINE_CURVE_WITH_KNOTS('',3,(#973,#974,#975,#976),.UNSPECIFIED.,
 .F.,.F.,(4,4),(0.00121386666100679,0.00412116227415452),.UNSPECIFIED.);
#32=B_SPLINE_CURVE_WITH_KNOTS('',3,(#983,#984,#985,#986),.UNSPECIFIED.,
 .F.,.F.,(4,4),(0.00412116227415456,0.00703420632342176),.UNSPECIFIED.);
#33=B_SPLINE_CURVE_WITH_KNOTS('',3,(#988,#989,#990,#991),.UNSPECIFIED.,
 .F.,.F.,(4,4),(0.00121386666100681,0.00412116227415456),.UNSPECIFIED.);
#34=B_SPLINE_CURVE_WITH_KNOTS('',3,(#1004,#1005,#1006,#1007),
 .UNSPECIFIED.,.F.,.F.,(4,4),(0.00412116227415454,0.00703420632342174),
 .UNSPECIFIED.);
#35=B_SPLINE_CURVE_WITH_KNOTS('',3,(#1009,#1010,#1011,#1012),
 .UNSPECIFIED.,.F.,.F.,(4,4),(0.00121386666100024,0.00412116227415454),
 .UNSPECIFIED.);
#36=B_SPLINE_CURVE_WITH_KNOTS('',3,(#1019,#1020,#1021,#1022),
 .UNSPECIFIED.,.F.,.F.,(4,4),(0.00412116227415454,0.00703420632342174),
 .UNSPECIFIED.);
#37=B_SPLINE_CURVE_WITH_KNOTS('',3,(#1024,#1025,#1026,#1027),
 .UNSPECIFIED.,.F.,.F.,(4,4),(0.0012138666610068,0.00412116227415454),
 .UNSPECIFIED.);
#38=B_SPLINE_CURVE_WITH_KNOTS('',3,(#1029,#1030,#1031,#1032),
 .UNSPECIFIED.,.F.,.F.,(4,4),(0.00190737772758671,0.00351163249382855),
 .UNSPECIFIED.);
#39=B_SPLINE_CURVE_WITH_KNOTS('',3,(#1035,#1036,#1037,#1038),
 .UNSPECIFIED.,.F.,.F.,(4,4),(0.00190737772758672,0.00351163249382856),
 .UNSPECIFIED.);
#40=B_SPLINE_CURVE_WITH_KNOTS('',3,(#1075,#1076,#1077,#1078),
 .UNSPECIFIED.,.F.,.F.,(4,4),(0.00230642021167183,0.00391084085700874),
 .UNSPECIFIED.);
#41=B_SPLINE_CURVE_WITH_KNOTS('',3,(#1081,#1082,#1083,#1084),
 .UNSPECIFIED.,.F.,.F.,(4,4),(0.00190737772758669,0.00351163249382453),
 .UNSPECIFIED.);
#42=CIRCLE('',#724,4.85);
#43=CIRCLE('',#726,4.85);
#44=CIRCLE('',#728,4.85);
#45=CIRCLE('',#730,4.85);
#46=CIRCLE('',#732,4.85);
#47=CIRCLE('',#734,4.85);
#48=CIRCLE('',#740,4.);
#49=CIRCLE('',#742,4.);
#50=CIRCLE('',#744,4.85);
#51=CIRCLE('',#746,4.85);
#52=CIRCLE('',#748,4.85);
#53=CIRCLE('',#750,4.85);
#54=CIRCLE('',#752,4.85);
#55=CIRCLE('',#754,4.85);
#56=CIRCLE('',#755,4.85);
#57=CIRCLE('',#757,4.39999999999999);
#58=CIRCLE('',#760,3.99999999999999);
#59=CIRCLE('',#761,3.99999999999999);
#60=CIRCLE('',#763,2.99999999999999);
#61=CIRCLE('',#765,2.59999999999999);
#62=CIRCLE('',#766,2.59999999999999);
#63=CIRCLE('',#769,4.);
#64=CIRCLE('',#771,4.);
#65=ORIENTED_EDGE('',*,*,#191,.F.);
#66=ORIENTED_EDGE('',*,*,#192,.F.);
#67=ORIENTED_EDGE('',*,*,#193,.F.);
#68=ORIENTED_EDGE('',*,*,#194,.F.);
#69=ORIENTED_EDGE('',*,*,#195,.F.);
#70=ORIENTED_EDGE('',*,*,#196,.F.);
#71=ORIENTED_EDGE('',*,*,#197,.F.);
#72=ORIENTED_EDGE('',*,*,#198,.F.);
#73=ORIENTED_EDGE('',*,*,#199,.F.);
#74=ORIENTED_EDGE('',*,*,#200,.F.);
#75=ORIENTED_EDGE('',*,*,#201,.F.);
#76=ORIENTED_EDGE('',*,*,#202,.F.);
#77=ORIENTED_EDGE('',*,*,#203,.F.);
#78=ORIENTED_EDGE('',*,*,#204,.T.);
#79=ORIENTED_EDGE('',*,*,#205,.F.);
#80=ORIENTED_EDGE('',*,*,#206,.F.);
#81=ORIENTED_EDGE('',*,*,#207,.T.);
#82=ORIENTED_EDGE('',*,*,#208,.F.);
#83=ORIENTED_EDGE('',*,*,#209,.F.);
#84=ORIENTED_EDGE('',*,*,#202,.T.);
#85=ORIENTED_EDGE('',*,*,#210,.T.);
#86=ORIENTED_EDGE('',*,*,#192,.T.);
#87=ORIENTED_EDGE('',*,*,#211,.T.);
#88=ORIENTED_EDGE('',*,*,#212,.F.);
#89=ORIENTED_EDGE('',*,*,#213,.F.);
#90=ORIENTED_EDGE('',*,*,#214,.T.);
#91=ORIENTED_EDGE('',*,*,#215,.T.);
#92=ORIENTED_EDGE('',*,*,#216,.F.);
#93=ORIENTED_EDGE('',*,*,#217,.F.);
#94=ORIENTED_EDGE('',*,*,#218,.F.);
#95=ORIENTED_EDGE('',*,*,#196,.T.);
#96=ORIENTED_EDGE('',*,*,#219,.T.);
#97=ORIENTED_EDGE('',*,*,#220,.F.);
#98=ORIENTED_EDGE('',*,*,#206,.T.);
#99=ORIENTED_EDGE('',*,*,#221,.T.);
#100=ORIENTED_EDGE('',*,*,#222,.T.);
#101=ORIENTED_EDGE('',*,*,#223,.T.);
#102=ORIENTED_EDGE('',*,*,#224,.F.);
#103=ORIENTED_EDGE('',*,*,#225,.F.);
#104=ORIENTED_EDGE('',*,*,#226,.F.);
#105=ORIENTED_EDGE('',*,*,#203,.T.);
#106=ORIENTED_EDGE('',*,*,#227,.T.);
#107=ORIENTED_EDGE('',*,*,#198,.T.);
#108=ORIENTED_EDGE('',*,*,#228,.T.);
#109=ORIENTED_EDGE('',*,*,#229,.F.);
#110=ORIENTED_EDGE('',*,*,#230,.F.);
#111=ORIENTED_EDGE('',*,*,#231,.F.);
#112=ORIENTED_EDGE('',*,*,#213,.T.);
#113=ORIENTED_EDGE('',*,*,#232,.F.);
#114=ORIENTED_EDGE('',*,*,#229,.T.);
#115=ORIENTED_EDGE('',*,*,#233,.F.);
#116=ORIENTED_EDGE('',*,*,#217,.T.);
#117=ORIENTED_EDGE('',*,*,#234,.F.);
#118=ORIENTED_EDGE('',*,*,#212,.T.);
#119=ORIENTED_EDGE('',*,*,#235,.F.);
#120=ORIENTED_EDGE('',*,*,#236,.T.);
#121=ORIENTED_EDGE('',*,*,#222,.F.);
#122=ORIENTED_EDGE('',*,*,#237,.F.);
#123=ORIENTED_EDGE('',*,*,#238,.T.);
#124=ORIENTED_EDGE('',*,*,#214,.F.);
#125=ORIENTED_EDGE('',*,*,#210,.F.);
#126=ORIENTED_EDGE('',*,*,#239,.F.);
#127=ORIENTED_EDGE('',*,*,#227,.F.);
#128=ORIENTED_EDGE('',*,*,#240,.F.);
#129=ORIENTED_EDGE('',*,*,#221,.F.);
#130=ORIENTED_EDGE('',*,*,#241,.F.);
#131=ORIENTED_EDGE('',*,*,#242,.F.);
#132=ORIENTED_EDGE('',*,*,#243,.T.);
#133=ORIENTED_EDGE('',*,*,#195,.T.);
#134=ORIENTED_EDGE('',*,*,#193,.T.);
#135=ORIENTED_EDGE('',*,*,#239,.T.);
#136=ORIENTED_EDGE('',*,*,#201,.T.);
#137=ORIENTED_EDGE('',*,*,#199,.T.);
#138=ORIENTED_EDGE('',*,*,#240,.T.);
#139=ORIENTED_EDGE('',*,*,#205,.T.);
#140=ORIENTED_EDGE('',*,*,#235,.T.);
#141=ORIENTED_EDGE('',*,*,#241,.T.);
#142=ORIENTED_EDGE('',*,*,#208,.T.);
#143=ORIENTED_EDGE('',*,*,#237,.T.);
#144=ORIENTED_EDGE('',*,*,#244,.T.);
#145=ORIENTED_EDGE('',*,*,#242,.T.);
#146=ORIENTED_EDGE('',*,*,#219,.F.);
#147=ORIENTED_EDGE('',*,*,#243,.F.);
#148=ORIENTED_EDGE('',*,*,#245,.T.);
#149=ORIENTED_EDGE('',*,*,#246,.T.);
#150=ORIENTED_EDGE('',*,*,#247,.T.);
#151=ORIENTED_EDGE('',*,*,#246,.F.);
#152=ORIENTED_EDGE('',*,*,#248,.T.);
#153=ORIENTED_EDGE('',*,*,#249,.T.);
#154=ORIENTED_EDGE('',*,*,#249,.F.);
#155=ORIENTED_EDGE('',*,*,#224,.T.);
#156=ORIENTED_EDGE('',*,*,#250,.T.);
#157=ORIENTED_EDGE('',*,*,#230,.T.);
#158=ORIENTED_EDGE('',*,*,#251,.F.);
#159=ORIENTED_EDGE('',*,*,#216,.T.);
#160=ORIENTED_EDGE('',*,*,#252,.T.);
#161=ORIENTED_EDGE('',*,*,#225,.T.);
#162=ORIENTED_EDGE('',*,*,#253,.F.);
#163=ORIENTED_EDGE('',*,*,#251,.T.);
#164=ORIENTED_EDGE('',*,*,#232,.T.);
#165=ORIENTED_EDGE('',*,*,#234,.T.);
#166=ORIENTED_EDGE('',*,*,#253,.T.);
#167=ORIENTED_EDGE('',*,*,#233,.T.);
#168=ORIENTED_EDGE('',*,*,#211,.F.);
#169=ORIENTED_EDGE('',*,*,#191,.T.);
#170=ORIENTED_EDGE('',*,*,#194,.T.);
#171=ORIENTED_EDGE('',*,*,#218,.T.);
#172=ORIENTED_EDGE('',*,*,#215,.F.);
#173=ORIENTED_EDGE('',*,*,#238,.F.);
#174=ORIENTED_EDGE('',*,*,#207,.F.);
#175=ORIENTED_EDGE('',*,*,#220,.T.);
#176=ORIENTED_EDGE('',*,*,#252,.F.);
#177=ORIENTED_EDGE('',*,*,#223,.F.);
#178=ORIENTED_EDGE('',*,*,#236,.F.);
#179=ORIENTED_EDGE('',*,*,#204,.F.);
#180=ORIENTED_EDGE('',*,*,#226,.T.);
#181=ORIENTED_EDGE('',*,*,#250,.F.);
#182=ORIENTED_EDGE('',*,*,#231,.T.);
#183=ORIENTED_EDGE('',*,*,#228,.F.);
#184=ORIENTED_EDGE('',*,*,#197,.T.);
#185=ORIENTED_EDGE('',*,*,#200,.T.);
#186=ORIENTED_EDGE('',*,*,#209,.T.);
#187=ORIENTED_EDGE('',*,*,#244,.F.);
#188=ORIENTED_EDGE('',*,*,#245,.F.);
#189=ORIENTED_EDGE('',*,*,#248,.F.);
#190=ORIENTED_EDGE('',*,*,#247,.F.);
#191=EDGE_CURVE('',#254,#255,#293,.T.);
#192=EDGE_CURVE('',#256,#254,#294,.T.);
#193=EDGE_CURVE('',#255,#256,#42,.T.);
#194=EDGE_CURVE('',#255,#257,#295,.T.);
#195=EDGE_CURVE('',#258,#255,#43,.T.);
#196=EDGE_CURVE('',#257,#258,#296,.T.);
#197=EDGE_CURVE('',#259,#260,#297,.T.);
#198=EDGE_CURVE('',#261,#259,#298,.T.);
#199=EDGE_CURVE('',#260,#261,#44,.T.);
#200=EDGE_CURVE('',#260,#262,#299,.T.);
#201=EDGE_CURVE('',#263,#260,#45,.T.);
#202=EDGE_CURVE('',#262,#263,#300,.T.);
#203=EDGE_CURVE('',#264,#265,#301,.T.);
#204=EDGE_CURVE('',#264,#266,#302,.T.);
#205=EDGE_CURVE('',#265,#266,#46,.T.);
#206=EDGE_CURVE('',#267,#268,#303,.T.);
#207=EDGE_CURVE('',#267,#269,#304,.T.);
#208=EDGE_CURVE('',#268,#269,#47,.T.);
#209=EDGE_CURVE('',#262,#270,#305,.T.);
#210=EDGE_CURVE('',#263,#256,#306,.T.);
#211=EDGE_CURVE('',#254,#271,#307,.T.);
#212=EDGE_CURVE('',#272,#271,#30,.T.);
#213=EDGE_CURVE('',#270,#272,#31,.T.);
#214=EDGE_CURVE('',#273,#274,#308,.T.);
#215=EDGE_CURVE('',#274,#275,#309,.T.);
#216=EDGE_CURVE('',#276,#275,#32,.T.);
#217=EDGE_CURVE('',#277,#276,#33,.T.);
#218=EDGE_CURVE('',#257,#277,#310,.T.);
#219=EDGE_CURVE('',#258,#273,#311,.T.);
#220=EDGE_CURVE('',#267,#278,#312,.T.);
#221=EDGE_CURVE('',#268,#279,#313,.T.);
#222=EDGE_CURVE('',#279,#280,#314,.T.);
#223=EDGE_CURVE('',#280,#281,#315,.T.);
#224=EDGE_CURVE('',#282,#281,#34,.T.);
#225=EDGE_CURVE('',#278,#282,#35,.T.);
#226=EDGE_CURVE('',#264,#283,#316,.T.);
#227=EDGE_CURVE('',#265,#261,#317,.T.);
#228=EDGE_CURVE('',#259,#284,#318,.T.);
#229=EDGE_CURVE('',#285,#284,#36,.T.);
#230=EDGE_CURVE('',#283,#285,#37,.T.);
#231=EDGE_CURVE('',#270,#284,#38,.T.);
#232=EDGE_CURVE('',#285,#272,#48,.T.);
#233=EDGE_CURVE('',#277,#271,#39,.T.);
#234=EDGE_CURVE('',#272,#276,#49,.T.);
#235=EDGE_CURVE('',#266,#279,#50,.T.);
#236=EDGE_CURVE('',#266,#280,#319,.T.);
#237=EDGE_CURVE('',#269,#273,#51,.T.);
#238=EDGE_CURVE('',#269,#274,#320,.T.);
#239=EDGE_CURVE('',#256,#263,#52,.T.);
#240=EDGE_CURVE('',#261,#265,#53,.T.);
#241=EDGE_CURVE('',#279,#268,#54,.T.);
#242=EDGE_CURVE('',#286,#286,#55,.T.);
#243=EDGE_CURVE('',#273,#258,#56,.T.);
#244=EDGE_CURVE('',#287,#287,#57,.F.);
#245=EDGE_CURVE('',#288,#288,#58,.T.);
#246=EDGE_CURVE('',#289,#289,#59,.T.);
#247=EDGE_CURVE('',#290,#290,#60,.F.);
#248=EDGE_CURVE('',#291,#291,#61,.T.);
#249=EDGE_CURVE('',#292,#292,#62,.T.);
#250=EDGE_CURVE('',#281,#283,#40,.T.);
#251=EDGE_CURVE('',#282,#285,#63,.T.);
#252=EDGE_CURVE('',#275,#278,#41,.T.);
#253=EDGE_CURVE('',#276,#282,#64,.T.);
#254=VERTEX_POINT('',#924);
#255=VERTEX_POINT('',#925);
#256=VERTEX_POINT('',#927);
#257=VERTEX_POINT('',#931);
#258=VERTEX_POINT('',#933);
#259=VERTEX_POINT('',#937);
#260=VERTEX_POINT('',#938);
#261=VERTEX_POINT('',#940);
#262=VERTEX_POINT('',#944);
#263=VERTEX_POINT('',#946);
#264=VERTEX_POINT('',#950);
#265=VERTEX_POINT('',#951);
#266=VERTEX_POINT('',#953);
#267=VERTEX_POINT('',#957);
#268=VERTEX_POINT('',#958);
#269=VERTEX_POINT('',#960);
#270=VERTEX_POINT('',#964);
#271=VERTEX_POINT('',#967);
#272=VERTEX_POINT('',#972);
#273=VERTEX_POINT('',#979);
#274=VERTEX_POINT('',#980);
#275=VERTEX_POINT('',#982);
#276=VERTEX_POINT('',#987);
#277=VERTEX_POINT('',#992);
#278=VERTEX_POINT('',#997);
#279=VERTEX_POINT('',#999);
#280=VERTEX_POINT('',#1001);
#281=VERTEX_POINT('',#1003);
#282=VERTEX_POINT('',#1008);
#283=VERTEX_POINT('',#1015);
#284=VERTEX_POINT('',#1018);
#285=VERTEX_POINT('',#1023);
#286=VERTEX_POINT('',#1054);
#287=VERTEX_POINT('',#1058);
#288=VERTEX_POINT('',#1062);
#289=VERTEX_POINT('',#1064);
#290=VERTEX_POINT('',#1067);
#291=VERTEX_POINT('',#1070);
#292=VERTEX_POINT('',#1072);
#293=LINE('',#923,#321);
#294=LINE('',#926,#322);
#295=LINE('',#930,#323);
#296=LINE('',#934,#324);
#297=LINE('',#936,#325);
#298=LINE('',#939,#326);
#299=LINE('',#943,#327);
#300=LINE('',#947,#328);
#301=LINE('',#949,#329);
#302=LINE('',#952,#330);
#303=LINE('',#956,#331);
#304=LINE('',#959,#332);
#305=LINE('',#963,#333);
#306=LINE('',#965,#334);
#307=LINE('',#966,#335);
#308=LINE('',#978,#336);
#309=LINE('',#981,#337);
#310=LINE('',#993,#338);
#311=LINE('',#994,#339);
#312=LINE('',#996,#340);
#313=LINE('',#998,#341);
#314=LINE('',#1000,#342);
#315=LINE('',#1002,#343);
#316=LINE('',#1014,#344);
#317=LINE('',#1016,#345);
#318=LINE('',#1017,#346);
#319=LINE('',#1042,#347);
#320=LINE('',#1045,#348);
#321=VECTOR('',#783,1000.);
#322=VECTOR('',#784,1000.);
#323=VECTOR('',#789,1000.);
#324=VECTOR('',#792,1000.);
#325=VECTOR('',#795,1000.);
#326=VECTOR('',#796,1000.);
#327=VECTOR('',#801,1000.);
#328=VECTOR('',#804,1000.);
#329=VECTOR('',#807,1000.);
#330=VECTOR('',#808,1000.);
#331=VECTOR('',#813,1000.);
#332=VECTOR('',#814,1000.);
#333=VECTOR('',#819,1000.);
#334=VECTOR('',#820,1000.);
#335=VECTOR('',#821,1000.);
#336=VECTOR('',#824,1000.);
#337=VECTOR('',#825,1000.);
#338=VECTOR('',#826,1000.);
#339=VECTOR('',#827,1000.);
#340=VECTOR('',#830,1000.);
#341=VECTOR('',#831,1000.);
#342=VECTOR('',#832,1000.);
#343=VECTOR('',#833,1000.);
#344=VECTOR('',#836,1000.);
#345=VECTOR('',#837,1000.);
#346=VECTOR('',#838,1000.);
#347=VECTOR('',#851,1000.);
#348=VECTOR('',#856,1000.);
#349=EDGE_LOOP('',(#65,#66,#67));
#350=EDGE_LOOP('',(#68,#69,#70));
#351=EDGE_LOOP('',(#71,#72,#73));
#352=EDGE_LOOP('',(#74,#75,#76));
#353=EDGE_LOOP('',(#77,#78,#79));
#354=EDGE_LOOP('',(#80,#81,#82));
#355=EDGE_LOOP('',(#83,#84,#85,#86,#87,#88,#89));
#356=EDGE_LOOP('',(#90,#91,#92,#93,#94,#95,#96));
#357=EDGE_LOOP('',(#97,#98,#99,#100,#101,#102,#103));
#358=EDGE_LOOP('',(#104,#105,#106,#107,#108,#109,#110));
#359=EDGE_LOOP('',(#111,#112,#113,#114));
#360=EDGE_LOOP('',(#115,#116,#117,#118));
#361=EDGE_LOOP('',(#119,#120,#121));
#362=EDGE_LOOP('',(#122,#123,#124));
#363=EDGE_LOOP('',(#125,#126));
#364=EDGE_LOOP('',(#127,#128));
#365=EDGE_LOOP('',(#129,#130));
#366=EDGE_LOOP('',(#131));
#367=EDGE_LOOP('',(#132,#133,#134,#135,#136,#137,#138,#139,#140,#141,#142,
#143));
#368=EDGE_LOOP('',(#144));
#369=EDGE_LOOP('',(#145));
#370=EDGE_LOOP('',(#146,#147));
#371=EDGE_LOOP('',(#148));
#372=EDGE_LOOP('',(#149));
#373=EDGE_LOOP('',(#150));
#374=EDGE_LOOP('',(#151));
#375=EDGE_LOOP('',(#152));
#376=EDGE_LOOP('',(#153));
#377=EDGE_LOOP('',(#154));
#378=EDGE_LOOP('',(#155,#156,#157,#158));
#379=EDGE_LOOP('',(#159,#160,#161,#162));
#380=EDGE_LOOP('',(#163,#164,#165,#166));
#381=EDGE_LOOP('',(#167,#168,#169,#170,#171));
#382=EDGE_LOOP('',(#172,#173,#174,#175,#176));
#383=EDGE_LOOP('',(#177,#178,#179,#180,#181));
#384=EDGE_LOOP('',(#182,#183,#184,#185,#186));
#385=EDGE_LOOP('',(#187));
#386=EDGE_LOOP('',(#188));
#387=EDGE_LOOP('',(#189));
#388=EDGE_LOOP('',(#190));
#389=FACE_BOUND('',#349,.T.);
#390=FACE_BOUND('',#350,.T.);
#391=FACE_BOUND('',#351,.T.);
#392=FACE_BOUND('',#352,.T.);
#393=FACE_BOUND('',#353,.T.);
#394=FACE_BOUND('',#354,.T.);
#395=FACE_BOUND('',#355,.T.);
#396=FACE_BOUND('',#356,.T.);
#397=FACE_BOUND('',#357,.T.);
#398=FACE_BOUND('',#358,.T.);
#399=FACE_BOUND('',#359,.T.);
#400=FACE_BOUND('',#360,.T.);
#401=FACE_BOUND('',#361,.T.);
#402=FACE_BOUND('',#362,.T.);
#403=FACE_BOUND('',#363,.T.);
#404=FACE_BOUND('',#364,.T.);
#405=FACE_BOUND('',#365,.T.);
#406=FACE_BOUND('',#366,.T.);
#407=FACE_BOUND('',#367,.T.);
#408=FACE_BOUND('',#368,.T.);
#409=FACE_BOUND('',#369,.T.);
#410=FACE_BOUND('',#370,.T.);
#411=FACE_BOUND('',#371,.T.);
#412=FACE_BOUND('',#372,.T.);
#413=FACE_BOUND('',#373,.T.);
#414=FACE_BOUND('',#374,.T.);
#415=FACE_BOUND('',#375,.T.);
#416=FACE_BOUND('',#376,.T.);
#417=FACE_BOUND('',#377,.T.);
#418=FACE_BOUND('',#378,.T.);
#419=FACE_BOUND('',#379,.T.);
#420=FACE_BOUND('',#380,.T.);
#421=FACE_BOUND('',#381,.T.);
#422=FACE_BOUND('',#382,.T.);
#423=FACE_BOUND('',#383,.T.);
#424=FACE_BOUND('',#384,.T.);
#425=FACE_BOUND('',#385,.T.);
#426=FACE_BOUND('',#386,.T.);
#427=FACE_BOUND('',#387,.T.);
#428=FACE_BOUND('',#388,.T.);
#429=PLANE('',#723);
#430=PLANE('',#725);
#431=PLANE('',#727);
#432=PLANE('',#729);
#433=PLANE('',#731);
#434=PLANE('',#733);
#435=PLANE('',#735);
#436=PLANE('',#736);
#437=PLANE('',#737);
#438=PLANE('',#738);
#439=PLANE('',#743);
#440=PLANE('',#745);
#441=PLANE('',#747);
#442=PLANE('',#749);
#443=PLANE('',#751);
#444=PLANE('',#756);
#445=PLANE('',#758);
#446=PLANE('',#762);
#447=PLANE('',#772);
#448=PLANE('',#773);
#449=PLANE('',#774);
#450=PLANE('',#775);
#451=PLANE('',#776);
#452=STYLED_ITEM('',(#485),#685);
#453=STYLED_ITEM('',(#486),#686);
#454=STYLED_ITEM('',(#487),#687);
#455=STYLED_ITEM('',(#488),#688);
#456=STYLED_ITEM('',(#489),#689);
#457=STYLED_ITEM('',(#490),#690);
#458=STYLED_ITEM('',(#491),#691);
#459=STYLED_ITEM('',(#492),#692);
#460=STYLED_ITEM('',(#493),#693);
#461=STYLED_ITEM('',(#494),#694);
#462=STYLED_ITEM('',(#495),#695);
#463=STYLED_ITEM('',(#496),#696);
#464=STYLED_ITEM('',(#497),#697);
#465=STYLED_ITEM('',(#498),#698);
#466=STYLED_ITEM('',(#499),#699);
#467=STYLED_ITEM('',(#500),#700);
#468=STYLED_ITEM('',(#501),#701);
#469=STYLED_ITEM('',(#502),#702);
#470=STYLED_ITEM('',(#503),#703);
#471=STYLED_ITEM('',(#504),#704);
#472=STYLED_ITEM('',(#505),#705);
#473=STYLED_ITEM('',(#506),#706);
#474=STYLED_ITEM('',(#507),#707);
#475=STYLED_ITEM('',(#508),#708);
#476=STYLED_ITEM('',(#509),#709);
#477=STYLED_ITEM('',(#510),#710);
#478=STYLED_ITEM('',(#511),#711);
#479=STYLED_ITEM('',(#512),#712);
#480=STYLED_ITEM('',(#513),#713);
#481=STYLED_ITEM('',(#514),#714);
#482=STYLED_ITEM('',(#515),#715);
#483=STYLED_ITEM('',(#516),#716);
#484=STYLED_ITEM('',(#517),#717);
#485=PRESENTATION_STYLE_ASSIGNMENT((#518));
#486=PRESENTATION_STYLE_ASSIGNMENT((#519));
#487=PRESENTATION_STYLE_ASSIGNMENT((#520));
#488=PRESENTATION_STYLE_ASSIGNMENT((#521));
#489=PRESENTATION_STYLE_ASSIGNMENT((#522));
#490=PRESENTATION_STYLE_ASSIGNMENT((#523));
#491=PRESENTATION_STYLE_ASSIGNMENT((#524));
#492=PRESENTATION_STYLE_ASSIGNMENT((#525));
#493=PRESENTATION_STYLE_ASSIGNMENT((#526));
#494=PRESENTATION_STYLE_ASSIGNMENT((#527));
#495=PRESENTATION_STYLE_ASSIGNMENT((#528));
#496=PRESENTATION_STYLE_ASSIGNMENT((#529));
#497=PRESENTATION_STYLE_ASSIGNMENT((#530));
#498=PRESENTATION_STYLE_ASSIGNMENT((#531));
#499=PRESENTATION_STYLE_ASSIGNMENT((#532));
#500=PRESENTATION_STYLE_ASSIGNMENT((#533));
#501=PRESENTATION_STYLE_ASSIGNMENT((#534));
#502=PRESENTATION_STYLE_ASSIGNMENT((#535));
#503=PRESENTATION_STYLE_ASSIGNMENT((#536));
#504=PRESENTATION_STYLE_ASSIGNMENT((#537));
#505=PRESENTATION_STYLE_ASSIGNMENT((#538));
#506=PRESENTATION_STYLE_ASSIGNMENT((#539));
#507=PRESENTATION_STYLE_ASSIGNMENT((#540));
#508=PRESENTATION_STYLE_ASSIGNMENT((#541));
#509=PRESENTATION_STYLE_ASSIGNMENT((#542));
#510=PRESENTATION_STYLE_ASSIGNMENT((#543));
#511=PRESENTATION_STYLE_ASSIGNMENT((#544));
#512=PRESENTATION_STYLE_ASSIGNMENT((#545));
#513=PRESENTATION_STYLE_ASSIGNMENT((#546));
#514=PRESENTATION_STYLE_ASSIGNMENT((#547));
#515=PRESENTATION_STYLE_ASSIGNMENT((#548));
#516=PRESENTATION_STYLE_ASSIGNMENT((#549));
#517=PRESENTATION_STYLE_ASSIGNMENT((#550));
#518=SURFACE_STYLE_USAGE(.BOTH.,#551);
#519=SURFACE_STYLE_USAGE(.BOTH.,#552);
#520=SURFACE_STYLE_USAGE(.BOTH.,#553);
#521=SURFACE_STYLE_USAGE(.BOTH.,#554);
#522=SURFACE_STYLE_USAGE(.BOTH.,#555);
#523=SURFACE_STYLE_USAGE(.BOTH.,#556);
#524=SURFACE_STYLE_USAGE(.BOTH.,#557);
#525=SURFACE_STYLE_USAGE(.BOTH.,#558);
#526=SURFACE_STYLE_USAGE(.BOTH.,#559);
#527=SURFACE_STYLE_USAGE(.BOTH.,#560);
#528=SURFACE_STYLE_USAGE(.BOTH.,#561);
#529=SURFACE_STYLE_USAGE(.BOTH.,#562);
#530=SURFACE_STYLE_USAGE(.BOTH.,#563);
#531=SURFACE_STYLE_USAGE(.BOTH.,#564);
#532=SURFACE_STYLE_USAGE(.BOTH.,#565);
#533=SURFACE_STYLE_USAGE(.BOTH.,#566);
#534=SURFACE_STYLE_USAGE(.BOTH.,#567);
#535=SURFACE_STYLE_USAGE(.BOTH.,#568);
#536=SURFACE_STYLE_USAGE(.BOTH.,#569);
#537=SURFACE_STYLE_USAGE(.BOTH.,#570);
#538=SURFACE_STYLE_USAGE(.BOTH.,#571);
#539=SURFACE_STYLE_USAGE(.BOTH.,#572);
#540=SURFACE_STYLE_USAGE(.BOTH.,#573);
#541=SURFACE_STYLE_USAGE(.BOTH.,#574);
#542=SURFACE_STYLE_USAGE(.BOTH.,#575);
#543=SURFACE_STYLE_USAGE(.BOTH.,#576);
#544=SURFACE_STYLE_USAGE(.BOTH.,#577);
#545=SURFACE_STYLE_USAGE(.BOTH.,#578);
#546=SURFACE_STYLE_USAGE(.BOTH.,#579);
#547=SURFACE_STYLE_USAGE(.BOTH.,#580);
#548=SURFACE_STYLE_USAGE(.BOTH.,#581);
#549=SURFACE_STYLE_USAGE(.BOTH.,#582);
#550=SURFACE_STYLE_USAGE(.BOTH.,#583);
#551=SURFACE_SIDE_STYLE('',(#584));
#552=SURFACE_SIDE_STYLE('',(#585));
#553=SURFACE_SIDE_STYLE('',(#586));
#554=SURFACE_SIDE_STYLE('',(#587));
#555=SURFACE_SIDE_STYLE('',(#588));
#556=SURFACE_SIDE_STYLE('',(#589));
#557=SURFACE_SIDE_STYLE('',(#590));
#558=SURFACE_SIDE_STYLE('',(#591));
#559=SURFACE_SIDE_STYLE('',(#592));
#560=SURFACE_SIDE_STYLE('',(#593));
#561=SURFACE_SIDE_STYLE('',(#594));
#562=SURFACE_SIDE_STYLE('',(#595));
#563=SURFACE_SIDE_STYLE('',(#596));
#564=SURFACE_SIDE_STYLE('',(#597));
#565=SURFACE_SIDE_STYLE('',(#598));
#566=SURFACE_SIDE_STYLE('',(#599));
#567=SURFACE_SIDE_STYLE('',(#600));
#568=SURFACE_SIDE_STYLE('',(#601));
#569=SURFACE_SIDE_STYLE('',(#602));
#570=SURFACE_SIDE_STYLE('',(#603));
#571=SURFACE_SIDE_STYLE('',(#604));
#572=SURFACE_SIDE_STYLE('',(#605));
#573=SURFACE_SIDE_STYLE('',(#606));
#574=SURFACE_SIDE_STYLE('',(#607));
#575=SURFACE_SIDE_STYLE('',(#608));
#576=SURFACE_SIDE_STYLE('',(#609));
#577=SURFACE_SIDE_STYLE('',(#610));
#578=SURFACE_SIDE_STYLE('',(#611));
#579=SURFACE_SIDE_STYLE('',(#612));
#580=SURFACE_SIDE_STYLE('',(#613));
#581=SURFACE_SIDE_STYLE('',(#614));
#582=SURFACE_SIDE_STYLE('',(#615));
#583=SURFACE_SIDE_STYLE('',(#616));
#584=SURFACE_STYLE_FILL_AREA(#617);
#585=SURFACE_STYLE_FILL_AREA(#618);
#586=SURFACE_STYLE_FILL_AREA(#619);
#587=SURFACE_STYLE_FILL_AREA(#620);
#588=SURFACE_STYLE_FILL_AREA(#621);
#589=SURFACE_STYLE_FILL_AREA(#622);
#590=SURFACE_STYLE_FILL_AREA(#623);
#591=SURFACE_STYLE_FILL_AREA(#624);
#592=SURFACE_STYLE_FILL_AREA(#625);
#593=SURFACE_STYLE_FILL_AREA(#626);
#594=SURFACE_STYLE_FILL_AREA(#627);
#595=SURFACE_STYLE_FILL_AREA(#628);
#596=SURFACE_STYLE_FILL_AREA(#629);
#597=SURFACE_STYLE_FILL_AREA(#630);
#598=SURFACE_STYLE_FILL_AREA(#631);
#599=SURFACE_STYLE_FILL_AREA(#632);
#600=SURFACE_STYLE_FILL_AREA(#633);
#601=SURFACE_STYLE_FILL_AREA(#634);
#602=SURFACE_STYLE_FILL_AREA(#635);
#603=SURFACE_STYLE_FILL_AREA(#636);
#604=SURFACE_STYLE_FILL_AREA(#637);
#605=SURFACE_STYLE_FILL_AREA(#638);
#606=SURFACE_STYLE_FILL_AREA(#639);
#607=SURFACE_STYLE_FILL_AREA(#640);
#608=SURFACE_STYLE_FILL_AREA(#641);
#609=SURFACE_STYLE_FILL_AREA(#642);
#610=SURFACE_STYLE_FILL_AREA(#643);
#611=SURFACE_STYLE_FILL_AREA(#644);
#612=SURFACE_STYLE_FILL_AREA(#645);
#613=SURFACE_STYLE_FILL_AREA(#646);
#614=SURFACE_STYLE_FILL_AREA(#647);
#615=SURFACE_STYLE_FILL_AREA(#648);
#616=SURFACE_STYLE_FILL_AREA(#649);
#617=FILL_AREA_STYLE('',(#650));
#618=FILL_AREA_STYLE('',(#651));
#619=FILL_AREA_STYLE('',(#652));
#620=FILL_AREA_STYLE('',(#653));
#621=FILL_AREA_STYLE('',(#654));
#622=FILL_AREA_STYLE('',(#655));
#623=FILL_AREA_STYLE('',(#656));
#624=FILL_AREA_STYLE('',(#657));
#625=FILL_AREA_STYLE('',(#658));
#626=FILL_AREA_STYLE('',(#659));
#627=FILL_AREA_STYLE('',(#660));
#628=FILL_AREA_STYLE('',(#661));
#629=FILL_AREA_STYLE('',(#662));
#630=FILL_AREA_STYLE('',(#663));
#631=FILL_AREA_STYLE('',(#664));
#632=FILL_AREA_STYLE('',(#665));
#633=FILL_AREA_STYLE('',(#666));
#634=FILL_AREA_STYLE('',(#667));
#635=FILL_AREA_STYLE('',(#668));
#636=FILL_AREA_STYLE('',(#669));
#637=FILL_AREA_STYLE('',(#670));
#638=FILL_AREA_STYLE('',(#671));
#639=FILL_AREA_STYLE('',(#672));
#640=FILL_AREA_STYLE('',(#673));
#641=FILL_AREA_STYLE('',(#674));
#642=FILL_AREA_STYLE('',(#675));
#643=FILL_AREA_STYLE('',(#676));
#644=FILL_AREA_STYLE('',(#677));
#645=FILL_AREA_STYLE('',(#678));
#646=FILL_AREA_STYLE('',(#679));
#647=FILL_AREA_STYLE('',(#680));
#648=FILL_AREA_STYLE('',(#681));
#649=FILL_AREA_STYLE('',(#682));
#650=FILL_AREA_STYLE_COLOUR('',#683);
#651=FILL_AREA_STYLE_COLOUR('',#683);
#652=FILL_AREA_STYLE_COLOUR('',#683);
#653=FILL_AREA_STYLE_COLOUR('',#683);
#654=FILL_AREA_STYLE_COLOUR('',#683);
#655=FILL_AREA_STYLE_COLOUR('',#683);
#656=FILL_AREA_STYLE_COLOUR('',#683);
#657=FILL_AREA_STYLE_COLOUR('',#683);
#658=FILL_AREA_STYLE_COLOUR('',#683);
#659=FILL_AREA_STYLE_COLOUR('',#683);
#660=FILL_AREA_STYLE_COLOUR('',#683);
#661=FILL_AREA_STYLE_COLOUR('',#683);
#662=FILL_AREA_STYLE_COLOUR('',#683);
#663=FILL_AREA_STYLE_COLOUR('',#683);
#664=FILL_AREA_STYLE_COLOUR('',#683);
#665=FILL_AREA_STYLE_COLOUR('',#683);
#666=FILL_AREA_STYLE_COLOUR('',#683);
#667=FILL_AREA_STYLE_COLOUR('',#683);
#668=FILL_AREA_STYLE_COLOUR('',#683);
#669=FILL_AREA_STYLE_COLOUR('',#683);
#670=FILL_AREA_STYLE_COLOUR('',#684);
#671=FILL_AREA_STYLE_COLOUR('',#683);
#672=FILL_AREA_STYLE_COLOUR('',#683);
#673=FILL_AREA_STYLE_COLOUR('',#683);
#674=FILL_AREA_STYLE_COLOUR('',#683);
#675=FILL_AREA_STYLE_COLOUR('',#683);
#676=FILL_AREA_STYLE_COLOUR('',#683);
#677=FILL_AREA_STYLE_COLOUR('',#683);
#678=FILL_AREA_STYLE_COLOUR('',#683);
#679=FILL_AREA_STYLE_COLOUR('',#683);
#680=FILL_AREA_STYLE_COLOUR('',#683);
#681=FILL_AREA_STYLE_COLOUR('',#683);
#682=FILL_AREA_STYLE_COLOUR('',#683);
#683=COLOUR_RGB('',0.506983280181885,0.531564235687256,0.550000011920929);
#684=COLOUR_RGB('',0.1875,0.75,0.581249892711639);
#685=ADVANCED_FACE('',(#389),#429,.F.);
#686=ADVANCED_FACE('',(#390),#430,.F.);
#687=ADVANCED_FACE('',(#391),#431,.F.);
#688=ADVANCED_FACE('',(#392),#432,.F.);
#689=ADVANCED_FACE('',(#393),#433,.F.);
#690=ADVANCED_FACE('',(#394),#434,.F.);
#691=ADVANCED_FACE('',(#395),#435,.T.);
#692=ADVANCED_FACE('',(#396),#436,.T.);
#693=ADVANCED_FACE('',(#397),#437,.T.);
#694=ADVANCED_FACE('',(#398),#438,.T.);
#695=ADVANCED_FACE('',(#399),#26,.T.);
#696=ADVANCED_FACE('',(#400),#27,.T.);
#697=ADVANCED_FACE('',(#401),#439,.F.);
#698=ADVANCED_FACE('',(#402),#440,.F.);
#699=ADVANCED_FACE('',(#403),#441,.F.);
#700=ADVANCED_FACE('',(#404),#442,.F.);
#701=ADVANCED_FACE('',(#405),#443,.F.);
#702=ADVANCED_FACE('',(#406,#407),#23,.T.);
#703=ADVANCED_FACE('',(#408,#409),#444,.T.);
#704=ADVANCED_FACE('',(#410),#445,.F.);
#705=ADVANCED_FACE('',(#411,#412),#24,.T.);
#706=ADVANCED_FACE('',(#413,#414),#446,.T.);
#707=ADVANCED_FACE('',(#415,#416),#25,.T.);
#708=ADVANCED_FACE('',(#417),#22,.T.);
#709=ADVANCED_FACE('',(#418),#28,.T.);
#710=ADVANCED_FACE('',(#419),#29,.T.);
#711=ADVANCED_FACE('',(#420),#447,.T.);
#712=ADVANCED_FACE('',(#421),#448,.T.);
#713=ADVANCED_FACE('',(#422),#449,.F.);
#714=ADVANCED_FACE('',(#423),#450,.F.);
#715=ADVANCED_FACE('',(#424),#451,.T.);
#716=ADVANCED_FACE('',(#425,#426),#20,.F.);
#717=ADVANCED_FACE('',(#427,#428),#21,.F.);
#718=CLOSED_SHELL('',(#685,#686,#687,#688,#689,#690,#691,#692,#693,#694,
#695,#696,#697,#698,#699,#700,#701,#702,#703,#704,#705,#706,#707,#708,#709,
#710,#711,#712,#713,#714,#715,#716,#717));
#719=MANIFOLD_SOLID_BREP('',#718);
#720=SHAPE_DEFINITION_REPRESENTATION(#1099,#721);
#721=SHAPE_REPRESENTATION('\X2\65B95934957F570667F1740397627AEF7D275B9A87BA9489\X0\ ',
(#722),#1094);
#722=AXIS2_PLACEMENT_3D('',#921,#779,#780);
#723=AXIS2_PLACEMENT_3D('',#922,#781,#782);
#724=AXIS2_PLACEMENT_3D('',#928,#785,#786);
#725=AXIS2_PLACEMENT_3D('',#929,#787,#788);
#726=AXIS2_PLACEMENT_3D('',#932,#790,#791);
#727=AXIS2_PLACEMENT_3D('',#935,#793,#794);
#728=AXIS2_PLACEMENT_3D('',#941,#797,#798);
#729=AXIS2_PLACEMENT_3D('',#942,#799,#800);
#730=AXIS2_PLACEMENT_3D('',#945,#802,#803);
#731=AXIS2_PLACEMENT_3D('',#948,#805,#806);
#732=AXIS2_PLACEMENT_3D('',#954,#809,#810);
#733=AXIS2_PLACEMENT_3D('',#955,#811,#812);
#734=AXIS2_PLACEMENT_3D('',#961,#815,#816);
#735=AXIS2_PLACEMENT_3D('',#962,#817,#818);
#736=AXIS2_PLACEMENT_3D('',#977,#822,#823);
#737=AXIS2_PLACEMENT_3D('',#995,#828,#829);
#738=AXIS2_PLACEMENT_3D('',#1013,#834,#835);
#739=AXIS2_PLACEMENT_3D('',#1028,#839,#840);
#740=AXIS2_PLACEMENT_3D('',#1033,#841,#842);
#741=AXIS2_PLACEMENT_3D('',#1034,#843,#844);
#742=AXIS2_PLACEMENT_3D('',#1039,#845,#846);
#743=AXIS2_PLACEMENT_3D('',#1040,#847,#848);
#744=AXIS2_PLACEMENT_3D('',#1041,#849,#850);
#745=AXIS2_PLACEMENT_3D('',#1043,#852,#853);
#746=AXIS2_PLACEMENT_3D('',#1044,#854,#855);
#747=AXIS2_PLACEMENT_3D('',#1046,#857,#858);
#748=AXIS2_PLACEMENT_3D('',#1047,#859,#860);
#749=AXIS2_PLACEMENT_3D('',#1048,#861,#862);
#750=AXIS2_PLACEMENT_3D('',#1049,#863,#864);
#751=AXIS2_PLACEMENT_3D('',#1050,#865,#866);
#752=AXIS2_PLACEMENT_3D('',#1051,#867,#868);
#753=AXIS2_PLACEMENT_3D('',#1052,#869,#870);
#754=AXIS2_PLACEMENT_3D('',#1053,#871,#872);
#755=AXIS2_PLACEMENT_3D('',#1055,#873,#874);
#756=AXIS2_PLACEMENT_3D('',#1056,#875,#876);
#757=AXIS2_PLACEMENT_3D('',#1057,#877,#878);
#758=AXIS2_PLACEMENT_3D('',#1059,#879,#880);
#759=AXIS2_PLACEMENT_3D('',#1060,#881,#882);
#760=AXIS2_PLACEMENT_3D('',#1061,#883,#884);
#761=AXIS2_PLACEMENT_3D('',#1063,#885,#886);
#762=AXIS2_PLACEMENT_3D('',#1065,#887,#888);
#763=AXIS2_PLACEMENT_3D('',#1066,#889,#890);
#764=AXIS2_PLACEMENT_3D('',#1068,#891,#892);
#765=AXIS2_PLACEMENT_3D('',#1069,#893,#894);
#766=AXIS2_PLACEMENT_3D('',#1071,#895,#896);
#767=AXIS2_PLACEMENT_3D('',#1073,#897,#898);
#768=AXIS2_PLACEMENT_3D('',#1074,#899,#900);
#769=AXIS2_PLACEMENT_3D('',#1079,#901,#902);
#770=AXIS2_PLACEMENT_3D('',#1080,#903,#904);
#771=AXIS2_PLACEMENT_3D('',#1085,#905,#906);
#772=AXIS2_PLACEMENT_3D('',#1086,#907,#908);
#773=AXIS2_PLACEMENT_3D('',#1087,#909,#910);
#774=AXIS2_PLACEMENT_3D('',#1088,#911,#912);
#775=AXIS2_PLACEMENT_3D('',#1089,#913,#914);
#776=AXIS2_PLACEMENT_3D('',#1090,#915,#916);
#777=AXIS2_PLACEMENT_3D('',#1091,#917,#918);
#778=AXIS2_PLACEMENT_3D('',#1092,#919,#920);
#779=DIRECTION('',(0.,0.,1.));
#780=DIRECTION('',(1.,0.,0.));
#781=DIRECTION('',(0.,-1.,0.));
#782=DIRECTION('',(0.,0.,-1.));
#783=DIRECTION('',(1.,0.,0.));
#784=DIRECTION('',(0.707106781186546,0.,-0.707106781186549));
#785=DIRECTION('',(0.,1.,0.));
#786=DIRECTION('',(1.,0.,0.));
#787=DIRECTION('',(0.,-1.,0.));
#788=DIRECTION('',(0.,0.,-1.));
#789=DIRECTION('',(1.,0.,0.));
#790=DIRECTION('',(0.,1.,0.));
#791=DIRECTION('',(1.,0.,0.));
#792=DIRECTION('',(0.707106781186548,0.,0.707106781186547));
#793=DIRECTION('',(0.,-1.,0.));
#794=DIRECTION('',(0.,0.,-1.));
#795=DIRECTION('',(0.,0.,-1.));
#796=DIRECTION('',(-0.707106781186549,0.,-0.707106781186546));
#797=DIRECTION('',(0.,1.,0.));
#798=DIRECTION('',(1.,0.,0.));
#799=DIRECTION('',(0.,-1.,0.));
#800=DIRECTION('',(0.,0.,-1.));
#801=DIRECTION('',(0.,0.,-1.));
#802=DIRECTION('',(0.,1.,0.));
#803=DIRECTION('',(1.,0.,0.));
#804=DIRECTION('',(0.707106781186546,0.,-0.707106781186549));
#805=DIRECTION('',(0.,-1.,0.));
#806=DIRECTION('',(0.,0.,-1.));
#807=DIRECTION('',(-0.707106781186549,0.,-0.707106781186546));
#808=DIRECTION('',(1.,0.,0.));
#809=DIRECTION('',(0.,1.,0.));
#810=DIRECTION('',(1.,0.,0.));
#811=DIRECTION('',(0.,-1.,0.));
#812=DIRECTION('',(0.,0.,-1.));
#813=DIRECTION('',(-0.707106781186547,0.,0.707106781186548));
#814=DIRECTION('',(0.,0.,-1.));
#815=DIRECTION('',(0.,1.,0.));
#816=DIRECTION('',(1.,0.,0.));
#817=DIRECTION('',(-0.707106781186549,0.,-0.707106781186546));
#818=DIRECTION('',(-0.707106781186546,0.,0.707106781186549));
#819=DIRECTION('',(0.,-1.,0.));
#820=DIRECTION('',(0.707106781186546,0.,-0.707106781186549));
#821=DIRECTION('',(0.,-1.,0.));
#822=DIRECTION('',(0.707106781186547,0.,-0.707106781186548));
#823=DIRECTION('',(-0.707106781186548,0.,-0.707106781186547));
#824=DIRECTION('',(0.707106781186548,0.,0.707106781186547));
#825=DIRECTION('',(0.,-1.,0.));
#826=DIRECTION('',(0.,-1.,0.));
#827=DIRECTION('',(0.707106781186548,0.,0.707106781186547));
#828=DIRECTION('',(0.707106781186548,0.,0.707106781186547));
#829=DIRECTION('',(0.707106781186547,0.,-0.707106781186548));
#830=DIRECTION('',(0.,-1.,0.));
#831=DIRECTION('',(-0.707106781186547,0.,0.707106781186548));
#832=DIRECTION('',(-0.707106781186547,0.,0.707106781186548));
#833=DIRECTION('',(0.,-1.,0.));
#834=DIRECTION('',(-0.707106781186546,0.,0.707106781186549));
#835=DIRECTION('',(0.707106781186549,0.,0.707106781186546));
#836=DIRECTION('',(0.,-1.,0.));
#837=DIRECTION('',(-0.707106781186549,0.,-0.707106781186546));
#838=DIRECTION('',(0.,-1.,0.));
#839=DIRECTION('',(6.12303176911189E-17,1.,0.));
#840=DIRECTION('',(-1.,6.12303176911189E-17,0.));
#841=DIRECTION('',(-6.12303176911189E-17,-1.,0.));
#842=DIRECTION('',(1.,-6.12303176911189E-17,0.));
#843=DIRECTION('',(6.12303176911189E-17,1.,0.));
#844=DIRECTION('',(-1.,6.12303176911189E-17,0.));
#845=DIRECTION('',(-6.12303176911189E-17,-1.,0.));
#846=DIRECTION('',(1.,-6.12303176911189E-17,0.));
#847=DIRECTION('',(0.,-1.,0.));
#848=DIRECTION('',(0.,0.,-1.));
#849=DIRECTION('',(0.,1.,0.));
#850=DIRECTION('',(1.,0.,0.));
#851=DIRECTION('',(1.,0.,0.));
#852=DIRECTION('',(0.,-1.,0.));
#853=DIRECTION('',(0.,0.,-1.));
#854=DIRECTION('',(0.,1.,0.));
#855=DIRECTION('',(1.,0.,0.));
#856=DIRECTION('',(0.,0.,-1.));
#857=DIRECTION('',(0.,1.,0.));
#858=DIRECTION('',(0.,0.,1.));
#859=DIRECTION('',(0.,1.,0.));
#860=DIRECTION('',(1.,0.,0.));
#861=DIRECTION('',(0.,1.,0.));
#862=DIRECTION('',(0.,0.,1.));
#863=DIRECTION('',(0.,1.,0.));
#864=DIRECTION('',(1.,0.,0.));
#865=DIRECTION('',(0.,1.,0.));
#866=DIRECTION('',(0.,0.,1.));
#867=DIRECTION('',(0.,1.,0.));
#868=DIRECTION('',(1.,0.,0.));
#869=DIRECTION('',(0.,-1.,0.));
#870=DIRECTION('',(0.,0.,-1.));
#871=DIRECTION('',(0.,1.,0.));
#872=DIRECTION('',(1.,0.,0.));
#873=DIRECTION('',(0.,1.,0.));
#874=DIRECTION('',(1.,0.,0.));
#875=DIRECTION('',(0.,1.,0.));
#876=DIRECTION('',(0.,0.,1.));
#877=DIRECTION('',(0.,1.,0.));
#878=DIRECTION('',(0.,0.,1.));
#879=DIRECTION('',(0.,1.,0.));
#880=DIRECTION('',(0.,0.,1.));
#881=DIRECTION('',(-6.12303176911189E-17,-1.,-3.53999465378531E-17));
#882=DIRECTION('',(1.,-6.12303176911189E-17,0.));
#883=DIRECTION('',(0.,1.,0.));
#884=DIRECTION('',(0.,0.,1.));
#885=DIRECTION('',(-6.12303176911189E-17,-1.,-3.53999465378531E-17));
#886=DIRECTION('',(1.,-6.12303176911189E-17,0.));
#887=DIRECTION('',(6.12303176911189E-17,1.,3.53999465378531E-17));
#888=DIRECTION('',(-1.,6.12303176911189E-17,0.));
#889=DIRECTION('',(6.12303176911189E-17,1.,3.53999465378531E-17));
#890=DIRECTION('',(-1.,6.12303176911189E-17,0.));
#891=DIRECTION('',(-6.12303176911189E-17,-1.,-3.53999465378531E-17));
#892=DIRECTION('',(1.,-6.12303176911189E-17,0.));
#893=DIRECTION('',(6.12303176911189E-17,1.,3.53999465378531E-17));
#894=DIRECTION('',(-1.,6.12303176911189E-17,0.));
#895=DIRECTION('',(-6.12303176911189E-17,-1.,-3.53999465378531E-17));
#896=DIRECTION('',(1.,-6.12303176911189E-17,0.));
#897=DIRECTION('',(-6.12303176911189E-17,-1.,-3.53999465378531E-17));
#898=DIRECTION('',(-2.16754997276137E-33,-3.53999465378531E-17,1.));
#899=DIRECTION('',(6.12303176911189E-17,1.,0.));
#900=DIRECTION('',(-1.,6.12303176911189E-17,0.));
#901=DIRECTION('',(-6.12303176911189E-17,-1.,0.));
#902=DIRECTION('',(1.,-6.12303176911189E-17,0.));
#903=DIRECTION('',(6.12303176911189E-17,1.,0.));
#904=DIRECTION('',(-1.,6.12303176911189E-17,0.));
#905=DIRECTION('',(-6.12303176911189E-17,-1.,0.));
#906=DIRECTION('',(1.,-6.12303176911189E-17,0.));
#907=DIRECTION('',(0.,-1.,0.));
#908=DIRECTION('',(0.,0.,-1.));
#909=DIRECTION('',(0.,0.,-1.));
#910=DIRECTION('',(-1.,0.,0.));
#911=DIRECTION('',(-1.,0.,0.));
#912=DIRECTION('',(0.,0.,1.));
#913=DIRECTION('',(0.,0.,-1.));
#914=DIRECTION('',(-1.,0.,0.));
#915=DIRECTION('',(-1.,0.,0.));
#916=DIRECTION('',(0.,0.,1.));
#917=DIRECTION('',(0.,1.,0.));
#918=DIRECTION('',(0.,0.,1.));
#919=DIRECTION('',(6.12303176911189E-17,1.,3.53999465378531E-17));
#920=DIRECTION('',(-1.,6.12303176911189E-17,0.));
#921=CARTESIAN_POINT('',(0.,0.,0.));
#922=CARTESIAN_POINT('',(0.,9.,0.));
#923=CARTESIAN_POINT('',(-0.806854249492399,9.,-4.85));
#924=CARTESIAN_POINT('',(-0.806854249492399,9.,-4.85));
#925=CARTESIAN_POINT('',(0.,9.,-4.85));
#926=CARTESIAN_POINT('',(-5.65685424949238,9.,1.84786095568869E-15));
#927=CARTESIAN_POINT('',(-0.889032889424266,9.00000000000001,-4.76782136006813));
#928=CARTESIAN_POINT('',(0.,9.00000000000001,0.));
#929=CARTESIAN_POINT('',(0.,9.,0.));
#930=CARTESIAN_POINT('',(-0.806854249492399,9.,-4.85));
#931=CARTESIAN_POINT('',(0.806854249492374,9.,-4.85));
#932=CARTESIAN_POINT('',(0.,9.00000000000001,0.));
#933=CARTESIAN_POINT('',(0.889032889424236,9.00000000000001,-4.76782136006814));
#934=CARTESIAN_POINT('',(-1.4928208097187E-14,9.,-5.65685424949239));
#935=CARTESIAN_POINT('',(0.,9.,0.));
#936=CARTESIAN_POINT('',(-4.85,9.,0.806854249492383));
#937=CARTESIAN_POINT('',(-4.85,9.,0.806854249492383));
#938=CARTESIAN_POINT('',(-4.85,9.,0.));
#939=CARTESIAN_POINT('',(2.60208521396521E-15,9.,5.65685424949237));
#940=CARTESIAN_POINT('',(-4.76782136006814,9.00000000000001,0.889032889424247));
#941=CARTESIAN_POINT('',(0.,9.00000000000001,0.));
#942=CARTESIAN_POINT('',(0.,9.,0.));
#943=CARTESIAN_POINT('',(-4.85,9.,0.806854249492383));
#944=CARTESIAN_POINT('',(-4.85,9.,-0.806854249492384));
#945=CARTESIAN_POINT('',(0.,9.00000000000001,0.));
#946=CARTESIAN_POINT('',(-4.76782136006814,9.00000000000001,-0.889032889424248));
#947=CARTESIAN_POINT('',(-5.65685424949238,9.,1.84786095568869E-15));
#948=CARTESIAN_POINT('',(0.,9.,0.));
#949=CARTESIAN_POINT('',(2.60208521396521E-15,9.,5.65685424949237));
#950=CARTESIAN_POINT('',(-0.806854249492378,9.,4.84999999999999));
#951=CARTESIAN_POINT('',(-0.889032889424233,9.00000000000001,4.76782136006814));
#952=CARTESIAN_POINT('',(-0.806854249492378,9.,4.84999999999999));
#953=CARTESIAN_POINT('',(0.,9.,4.84999999999999));
#954=CARTESIAN_POINT('',(0.,9.00000000000001,0.));
#955=CARTESIAN_POINT('',(0.,9.,0.));
#956=CARTESIAN_POINT('',(5.65685424949237,9.,-1.03275463840691E-14));
#957=CARTESIAN_POINT('',(4.85,9.,0.806854249492363));
#958=CARTESIAN_POINT('',(4.76782136006814,9.00000000000001,0.889032889424222));
#959=CARTESIAN_POINT('',(4.85,9.,0.806854249492363));
#960=CARTESIAN_POINT('',(4.85,9.,0.));
#961=CARTESIAN_POINT('',(0.,9.00000000000001,0.));
#962=CARTESIAN_POINT('',(-5.65685424949238,9.,1.84786095568869E-15));
#963=CARTESIAN_POINT('',(-4.85,9.,-0.806854249492384));
#964=CARTESIAN_POINT('',(-4.85,0.529232032088308,-0.806854249492384));
#965=CARTESIAN_POINT('',(-5.65685424949238,9.,1.84786095568869E-15));
#966=CARTESIAN_POINT('',(-0.806854249492399,9.,-4.85));
#967=CARTESIAN_POINT('',(-0.806854249492399,0.52923203208831,-4.85));
#968=CARTESIAN_POINT('',(-2.8284271247462,5.63882963691241E-15,-2.82842712474619));
#969=CARTESIAN_POINT('',(-2.14015359270539,5.38926349775608E-15,-3.51670065678701));
#970=CARTESIAN_POINT('',(-1.46355955541453,0.217444026480978,-4.19329469407787));
#971=CARTESIAN_POINT('',(-0.806854249492399,0.529232032088309,-4.85));
#972=CARTESIAN_POINT('',(-2.8284271247462,6.47652741658373E-17,-2.82842712474619));
#973=CARTESIAN_POINT('',(-4.85,0.529232032088308,-0.806854249492384));
#974=CARTESIAN_POINT('',(-4.19938133787194,0.220333819683925,-1.45747291162045));
#975=CARTESIAN_POINT('',(-3.51534245678567,5.6888250104478E-15,-2.14151179270672));
#976=CARTESIAN_POINT('',(-2.8284271247462,5.56428818071089E-15,-2.82842712474619));
#977=CARTESIAN_POINT('',(-1.4928208097187E-14,9.,-5.65685424949239));
#978=CARTESIAN_POINT('',(-1.4928208097187E-14,9.,-5.65685424949239));
#979=CARTESIAN_POINT('',(4.76782136006814,9.00000000000001,-0.889032889424243));
#980=CARTESIAN_POINT('',(4.85,9.,-0.806854249492381));
#981=CARTESIAN_POINT('',(4.85,9.,-0.806854249492381));
#982=CARTESIAN_POINT('',(4.85,0.529232032088307,-0.806854249492381));
#983=CARTESIAN_POINT('',(2.82842712474619,-7.94062846442877E-16,-2.82842712474619));
#984=CARTESIAN_POINT('',(3.51670065678701,-8.56454381231961E-16,-2.14015359270537));
#985=CARTESIAN_POINT('',(4.19329469407787,0.217444026480974,-1.46355955541451));
#986=CARTESIAN_POINT('',(4.85,0.529232032088308,-0.806854249492379));
#987=CARTESIAN_POINT('',(2.82842712474619,-2.81605708662937E-16,-2.82842712474619));
#988=CARTESIAN_POINT('',(0.806854249492374,0.529232032088307,-4.85));
#989=CARTESIAN_POINT('',(1.45747291162044,0.220333819683921,-4.19938133787193));
#990=CARTESIAN_POINT('',(2.14151179270672,-7.49526515816901E-16,-3.51534245678566));
#991=CARTESIAN_POINT('',(2.82842712474619,-6.24989686079989E-16,-2.82842712474619));
#992=CARTESIAN_POINT('',(0.806854249492374,0.529232032088307,-4.85));
#993=CARTESIAN_POINT('',(0.806854249492374,9.,-4.85));
#994=CARTESIAN_POINT('',(-1.4928208097187E-14,9.,-5.65685424949239));
#995=CARTESIAN_POINT('',(5.65685424949237,9.,-1.03275463840691E-14));
#996=CARTESIAN_POINT('',(4.85,9.,0.806854249492363));
#997=CARTESIAN_POINT('',(4.85000000000439,0.529232032090392,0.806854249487968));
#998=CARTESIAN_POINT('',(5.65685424949237,9.,-1.03275463840691E-14));
#999=CARTESIAN_POINT('',(0.889032889424234,9.00000000000001,4.76782136006814));
#1000=CARTESIAN_POINT('',(5.65685424949237,9.,-1.03275463840691E-14));
#1001=CARTESIAN_POINT('',(0.806854249492379,9.,4.84999999999999));
#1002=CARTESIAN_POINT('',(0.806854249492379,9.,4.84999999999999));
#1003=CARTESIAN_POINT('',(0.806854249492379,0.529232032088303,4.84999999999999));
#1004=CARTESIAN_POINT('',(2.82842712474619,-4.31551028283371E-15,2.82842712474618));
#1005=CARTESIAN_POINT('',(2.14015359270537,-4.159531445861E-15,3.516700656787));
#1006=CARTESIAN_POINT('',(1.46355955541451,0.21744402648097,4.19329469407786));
#1007=CARTESIAN_POINT('',(0.806854249492379,0.529232032088304,4.84999999999999));
#1008=CARTESIAN_POINT('',(2.82842712474619,-2.81605708662937E-16,2.82842712474618));
#1009=CARTESIAN_POINT('',(4.8500000000044,0.529232032090392,0.806854249487968));
#1010=CARTESIAN_POINT('',(4.19938133787494,0.220333819684902,1.45747291161742));
#1011=CARTESIAN_POINT('',(3.5153424567872,-4.4711813200052E-15,2.14151179270516));
#1012=CARTESIAN_POINT('',(2.82842712474619,-4.31551028283371E-15,2.82842712474618));
#1013=CARTESIAN_POINT('',(2.60208521396521E-15,9.,5.65685424949237));
#1014=CARTESIAN_POINT('',(-0.806854249492378,9.,4.84999999999999));
#1015=CARTESIAN_POINT('',(-0.806854249492378,0.529232032088304,4.84999999999999));
#1016=CARTESIAN_POINT('',(2.60208521396521E-15,9.,5.65685424949237));
#1017=CARTESIAN_POINT('',(-4.85,9.,0.806854249492383));
#1018=CARTESIAN_POINT('',(-4.85,0.529232032088308,0.806854249492383));
#1019=CARTESIAN_POINT('',(-2.82842712474618,-4.08824230962928E-16,2.82842712474619));
#1020=CARTESIAN_POINT('',(-3.51670065678701,-4.08824230962928E-16,2.14015359270537));
#1021=CARTESIAN_POINT('',(-4.19329469407787,0.217444026480975,1.46355955541451));
#1022=CARTESIAN_POINT('',(-4.85,0.529232032088308,0.806854249492382));
#1023=CARTESIAN_POINT('',(-2.82842712474618,6.47652741658363E-17,2.82842712474619));
#1024=CARTESIAN_POINT('',(-0.806854249492378,0.529232032088304,4.84999999999999));
#1025=CARTESIAN_POINT('',(-1.45747291162044,0.22033381968392,4.19938133787193));
#1026=CARTESIAN_POINT('',(-2.14151179270672,-3.34604948490038E-16,3.51534245678566));
#1027=CARTESIAN_POINT('',(-2.82842712474618,-4.5914177822695E-16,2.82842712474619));
#1028=CARTESIAN_POINT('',(5.85720185695327E-17,0.956585246952397,0.));
#1029=CARTESIAN_POINT('',(-4.85,0.529232032088308,-0.806854249492384));
#1030=CARTESIAN_POINT('',(-4.85,0.478756343935842,-0.274111342065574));
#1031=CARTESIAN_POINT('',(-4.85,0.478388061191139,0.270224321851561));
#1032=CARTESIAN_POINT('',(-4.85,0.529232032088302,0.806854249492383));
#1033=CARTESIAN_POINT('',(-6.63860434626887E-33,-1.0842021724855E-16,0.));
#1034=CARTESIAN_POINT('',(5.85720185695327E-17,0.956585246952397,0.));
#1035=CARTESIAN_POINT('',(0.806854249492373,0.529232032088307,-4.85));
#1036=CARTESIAN_POINT('',(0.274111342065562,0.478756343935841,-4.85));
#1037=CARTESIAN_POINT('',(-0.270224321851578,0.47838806119114,-4.85));
#1038=CARTESIAN_POINT('',(-0.806854249492401,0.529232032088303,-4.85));
#1039=CARTESIAN_POINT('',(-6.63860434626887E-33,-1.0842021724855E-16,0.));
#1040=CARTESIAN_POINT('',(0.,9.,0.));
#1041=CARTESIAN_POINT('',(0.,9.00000000000001,0.));
#1042=CARTESIAN_POINT('',(-0.806854249492378,9.,4.84999999999999));
#1043=CARTESIAN_POINT('',(0.,9.,0.));
#1044=CARTESIAN_POINT('',(0.,9.00000000000001,0.));
#1045=CARTESIAN_POINT('',(4.85,9.,0.806854249492363));
#1046=CARTESIAN_POINT('',(0.,9.00000000000001,0.));
#1047=CARTESIAN_POINT('',(0.,9.00000000000001,0.));
#1048=CARTESIAN_POINT('',(0.,9.00000000000001,0.));
#1049=CARTESIAN_POINT('',(0.,9.00000000000001,0.));
#1050=CARTESIAN_POINT('',(0.,9.00000000000001,0.));
#1051=CARTESIAN_POINT('',(0.,9.00000000000001,0.));
#1052=CARTESIAN_POINT('',(0.,11.,0.));
#1053=CARTESIAN_POINT('',(0.,11.,0.));
#1054=CARTESIAN_POINT('',(4.85,11.,0.));
#1055=CARTESIAN_POINT('',(0.,9.00000000000001,0.));
#1056=CARTESIAN_POINT('',(0.,11.,0.));
#1057=CARTESIAN_POINT('',(6.98025621678755E-16,11.,1.41599786151413E-17));
#1058=CARTESIAN_POINT('',(6.98025621678755E-16,11.,4.39999999999999));
#1059=CARTESIAN_POINT('',(0.,9.00000000000001,0.));
#1060=CARTESIAN_POINT('',(1.65321857766021E-15,27.,5.66399144605649E-16));
#1061=CARTESIAN_POINT('',(6.98025621678755E-16,11.4,1.41599786151413E-17));
#1062=CARTESIAN_POINT('',(6.98025621678755E-16,11.4,3.99999999999999));
#1063=CARTESIAN_POINT('',(1.40829730689573E-15,23.,4.24799358454237E-16));
#1064=CARTESIAN_POINT('',(3.99999999999999,23.,4.24799358454237E-16));
#1065=CARTESIAN_POINT('',(1.40829730689573E-15,23.,3.99999999999999));
#1066=CARTESIAN_POINT('',(1.40829730689573E-15,23.,4.24799358454237E-16));
#1067=CARTESIAN_POINT('',(-2.99999999999999,23.,4.24799358454237E-16));
#1068=CARTESIAN_POINT('',(1.65321857766021E-15,27.,5.66399144605649E-16));
#1069=CARTESIAN_POINT('',(1.43278943397218E-15,23.4,4.38959337069378E-16));
#1070=CARTESIAN_POINT('',(-2.59999999999999,23.4,4.38959337069378E-16));
#1071=CARTESIAN_POINT('',(1.60423432350731E-15,26.2,5.38079187375367E-16));
#1072=CARTESIAN_POINT('',(2.59999999999999,26.2,5.38079187375367E-16));
#1073=CARTESIAN_POINT('',(1.37002835833879E-15,22.375,0.));
#1074=CARTESIAN_POINT('',(5.85720185695327E-17,0.956585246952397,0.));
#1075=CARTESIAN_POINT('',(0.80685424949238,0.529232032088304,4.84999999999999));
#1076=CARTESIAN_POINT('',(0.273067172276979,0.478657412184908,4.84999999999999));
#1077=CARTESIAN_POINT('',(-0.273165647391678,0.478666742387359,4.84999999999999));
#1078=CARTESIAN_POINT('',(-0.806854249492377,0.529232032088304,4.84999999999999));
#1079=CARTESIAN_POINT('',(-6.63860434626887E-33,-1.0842021724855E-16,0.));
#1080=CARTESIAN_POINT('',(5.85720185695327E-17,0.956585246952397,0.));
#1081=CARTESIAN_POINT('',(4.85,0.529232032088308,-0.806854249492381));
#1082=CARTESIAN_POINT('',(4.85,0.478756343935968,-0.274111342066899));
#1083=CARTESIAN_POINT('',(4.85,0.478388061191128,0.270224321848851));
#1084=CARTESIAN_POINT('',(4.85,0.529232032087922,0.806854249488376));
#1085=CARTESIAN_POINT('',(-6.63860434626887E-33,-1.0842021724855E-16,0.));
#1086=CARTESIAN_POINT('',(0.,0.,0.));
#1087=CARTESIAN_POINT('',(-0.806854249492399,9.,-4.85));
#1088=CARTESIAN_POINT('',(4.85,9.,0.806854249492363));
#1089=CARTESIAN_POINT('',(-0.806854249492378,9.,4.84999999999999));
#1090=CARTESIAN_POINT('',(-4.85,9.,0.806854249492383));
#1091=CARTESIAN_POINT('',(6.98025621678755E-16,11.4,1.41599786151413E-17));
#1092=CARTESIAN_POINT('',(1.43278943397218E-15,23.4,4.38959337069378E-16));
#1093=MECHANICAL_DESIGN_GEOMETRIC_PRESENTATION_REPRESENTATION('',(#452,
#453,#454,#455,#456,#457,#458,#459,#460,#461,#462,#463,#464,#465,#466,#467,
#468,#469,#470,#471,#472,#473,#474,#475,#476,#477,#478,#479,#480,#481,#482,
#483,#484),#1094);
#1094=(
GEOMETRIC_REPRESENTATION_CONTEXT(3)
GLOBAL_UNCERTAINTY_ASSIGNED_CONTEXT((#1095))
GLOBAL_UNIT_ASSIGNED_CONTEXT((#1098,#1097,#1096))
REPRESENTATION_CONTEXT('\X2\65B95934957F570667F1740397627AEF7D275B9A87BA9489\X0\ ',
'TOP_LEVEL_ASSEMBLY_PART')
);
#1095=UNCERTAINTY_MEASURE_WITH_UNIT(LENGTH_MEASURE(0.005),#1098,
'DISTANCE_ACCURACY_VALUE','Maximum Tolerance applied to model');
#1096=(
NAMED_UNIT(*)
SI_UNIT($,.STERADIAN.)
SOLID_ANGLE_UNIT()
);
#1097=(
NAMED_UNIT(*)
PLANE_ANGLE_UNIT()
SI_UNIT($,.RADIAN.)
);
#1098=(
LENGTH_UNIT()
NAMED_UNIT(*)
SI_UNIT(.MILLI.,.METRE.)
);
#1099=PRODUCT_DEFINITION_SHAPE('','',#1100);
#1100=PRODUCT_DEFINITION('','',#1102,#1101);
#1101=PRODUCT_DEFINITION_CONTEXT('',#1108,'design');
#1102=PRODUCT_DEFINITION_FORMATION_WITH_SPECIFIED_SOURCE('','',#1104,
 .NOT_KNOWN.);
#1103=PRODUCT_RELATED_PRODUCT_CATEGORY('','',(#1104));
#1104=PRODUCT('\X2\65B95934957F570667F1740397627AEF7D275B9A87BA9489\X0\ ',
'\X2\65B95934957F570667F1740397627AEF7D275B9A87BA9489\X0\ ',
'\X2\65B95934957F570667F1740397627AEF7D275B9A87BA9489\X0\ ',(#1106));
#1105=PRODUCT_CATEGORY('','');
#1106=PRODUCT_CONTEXT('',#1108,'mechanical');
#1107=APPLICATION_PROTOCOL_DEFINITION('international standard',
'automotive_design',2010,#1108);
#1108=APPLICATION_CONTEXT(
'core data for automotive mechanical design processes');
ENDSEC;
END-ISO-10303-21;
