ISO-10303-21;
HEADER;
/* Generated by software containing HOOPS Exchange Step
 * from HOOPS Exchange, Inc. (www.tiangong.cloud) 
 */

FILE_DESCRIPTION(
/* description */ ('Unknown'),
/* implementation_level */ '2;1');

FILE_NAME(
/* name */ '\X2\5185516D89D295257AEF7D275B9A87BA9489\X0\ GBT78-2007',
/* time_stamp */ '2025-11-13T16:10:58+08:00',
/* author */ ('Unknown'),
/* organization */ ('Unknown'),
/* preprocessor_version */ 'ST-DEVELOPER v19.4',
/* originating_system */ 'TianGong',
/* authorisation */ 'Unknown');

FILE_SCHEMA (('AUTOMOTIVE_DESIGN {1 0 10303 214 3 1 1}'));
ENDSEC;

DATA;
#10=PROPERTY_DEFINITION_REPRESENTATION(#14,#12);
#11=PROPERTY_DEFINITION_REPRESENTATION(#15,#13);
#12=REPRESENTATION('',(#16),#605);
#13=REPRESENTATION('',(#17),#605);
#14=PROPERTY_DEFINITION('pmi validation property','',#610);
#15=PROPERTY_DEFINITION('pmi validation property','',#610);
#16=VALUE_REPRESENTATION_ITEM('number of annotations',COUNT_MEASURE(0.));
#17=VALUE_REPRESENTATION_ITEM('number of views',COUNT_MEASURE(0.));
#18=SHAPE_REPRESENTATION_RELATIONSHIP('','',#416,#19);
#19=ADVANCED_BREP_SHAPE_REPRESENTATION('',(#414),#605);
#20=VERTEX_LOOP('',#197);
#21=CONICAL_SURFACE('',#433,0.799999999999993,1.0471975511966);
#22=CONICAL_SURFACE('',#444,0.,1.0471975511966);
#23=CONICAL_SURFACE('',#445,0.719999999999994,0.785398163397448);
#24=CYLINDRICAL_SURFACE('',#430,0.799999999999994);
#25=LINE('',#533,#49);
#26=LINE('',#535,#50);
#27=LINE('',#539,#51);
#28=LINE('',#541,#52);
#29=LINE('',#545,#53);
#30=LINE('',#547,#54);
#31=LINE('',#551,#55);
#32=LINE('',#553,#56);
#33=LINE('',#557,#57);
#34=LINE('',#559,#58);
#35=LINE('',#563,#59);
#36=LINE('',#566,#60);
#37=LINE('',#568,#61);
#38=LINE('',#570,#62);
#39=LINE('',#572,#63);
#40=LINE('',#574,#64);
#41=LINE('',#585,#65);
#42=LINE('',#587,#66);
#43=LINE('',#588,#67);
#44=LINE('',#590,#68);
#45=LINE('',#592,#69);
#46=LINE('',#594,#70);
#47=LINE('',#596,#71);
#48=LINE('',#598,#72);
#49=VECTOR('',#452,1000.);
#50=VECTOR('',#453,1000.);
#51=VECTOR('',#458,1000.);
#52=VECTOR('',#459,1000.);
#53=VECTOR('',#464,1000.);
#54=VECTOR('',#465,1000.);
#55=VECTOR('',#470,1000.);
#56=VECTOR('',#471,1000.);
#57=VECTOR('',#476,1000.);
#58=VECTOR('',#477,1000.);
#59=VECTOR('',#482,1000.);
#60=VECTOR('',#483,1000.);
#61=VECTOR('',#484,1000.);
#62=VECTOR('',#485,1000.);
#63=VECTOR('',#486,1000.);
#64=VECTOR('',#487,1000.);
#65=VECTOR('',#502,1000.);
#66=VECTOR('',#503,1000.);
#67=VECTOR('',#504,1000.);
#68=VECTOR('',#507,1000.);
#69=VECTOR('',#510,1000.);
#70=VECTOR('',#513,1000.);
#71=VECTOR('',#516,1000.);
#72=VECTOR('',#519,1000.);
#73=ORIENTED_EDGE('',*,*,#141,.F.);
#74=ORIENTED_EDGE('',*,*,#142,.F.);
#75=ORIENTED_EDGE('',*,*,#143,.F.);
#76=ORIENTED_EDGE('',*,*,#144,.F.);
#77=ORIENTED_EDGE('',*,*,#145,.F.);
#78=ORIENTED_EDGE('',*,*,#146,.F.);
#79=ORIENTED_EDGE('',*,*,#147,.F.);
#80=ORIENTED_EDGE('',*,*,#148,.F.);
#81=ORIENTED_EDGE('',*,*,#149,.F.);
#82=ORIENTED_EDGE('',*,*,#150,.F.);
#83=ORIENTED_EDGE('',*,*,#151,.F.);
#84=ORIENTED_EDGE('',*,*,#152,.F.);
#85=ORIENTED_EDGE('',*,*,#153,.F.);
#86=ORIENTED_EDGE('',*,*,#154,.F.);
#87=ORIENTED_EDGE('',*,*,#155,.F.);
#88=ORIENTED_EDGE('',*,*,#156,.T.);
#89=ORIENTED_EDGE('',*,*,#157,.T.);
#90=ORIENTED_EDGE('',*,*,#158,.T.);
#91=ORIENTED_EDGE('',*,*,#159,.T.);
#92=ORIENTED_EDGE('',*,*,#160,.T.);
#93=ORIENTED_EDGE('',*,*,#161,.T.);
#94=ORIENTED_EDGE('',*,*,#162,.T.);
#95=ORIENTED_EDGE('',*,*,#163,.T.);
#96=ORIENTED_EDGE('',*,*,#164,.T.);
#97=ORIENTED_EDGE('',*,*,#165,.T.);
#98=ORIENTED_EDGE('',*,*,#164,.F.);
#99=ORIENTED_EDGE('',*,*,#165,.F.);
#100=ORIENTED_EDGE('',*,*,#158,.F.);
#101=ORIENTED_EDGE('',*,*,#166,.F.);
#102=ORIENTED_EDGE('',*,*,#167,.T.);
#103=ORIENTED_EDGE('',*,*,#155,.T.);
#104=ORIENTED_EDGE('',*,*,#168,.T.);
#105=ORIENTED_EDGE('',*,*,#159,.F.);
#106=ORIENTED_EDGE('',*,*,#168,.F.);
#107=ORIENTED_EDGE('',*,*,#154,.T.);
#108=ORIENTED_EDGE('',*,*,#152,.T.);
#109=ORIENTED_EDGE('',*,*,#169,.T.);
#110=ORIENTED_EDGE('',*,*,#160,.F.);
#111=ORIENTED_EDGE('',*,*,#169,.F.);
#112=ORIENTED_EDGE('',*,*,#151,.T.);
#113=ORIENTED_EDGE('',*,*,#149,.T.);
#114=ORIENTED_EDGE('',*,*,#170,.T.);
#115=ORIENTED_EDGE('',*,*,#161,.F.);
#116=ORIENTED_EDGE('',*,*,#170,.F.);
#117=ORIENTED_EDGE('',*,*,#148,.T.);
#118=ORIENTED_EDGE('',*,*,#146,.T.);
#119=ORIENTED_EDGE('',*,*,#171,.T.);
#120=ORIENTED_EDGE('',*,*,#162,.F.);
#121=ORIENTED_EDGE('',*,*,#171,.F.);
#122=ORIENTED_EDGE('',*,*,#145,.T.);
#123=ORIENTED_EDGE('',*,*,#143,.T.);
#124=ORIENTED_EDGE('',*,*,#172,.T.);
#125=ORIENTED_EDGE('',*,*,#157,.F.);
#126=ORIENTED_EDGE('',*,*,#172,.F.);
#127=ORIENTED_EDGE('',*,*,#142,.T.);
#128=ORIENTED_EDGE('',*,*,#173,.T.);
#129=ORIENTED_EDGE('',*,*,#166,.T.);
#130=ORIENTED_EDGE('',*,*,#174,.F.);
#131=ORIENTED_EDGE('',*,*,#167,.F.);
#132=ORIENTED_EDGE('',*,*,#173,.F.);
#133=ORIENTED_EDGE('',*,*,#174,.T.);
#134=ORIENTED_EDGE('',*,*,#141,.T.);
#135=ORIENTED_EDGE('',*,*,#144,.T.);
#136=ORIENTED_EDGE('',*,*,#147,.T.);
#137=ORIENTED_EDGE('',*,*,#150,.T.);
#138=ORIENTED_EDGE('',*,*,#153,.T.);
#139=ORIENTED_EDGE('',*,*,#163,.F.);
#140=ORIENTED_EDGE('',*,*,#156,.F.);
#141=EDGE_CURVE('',#175,#176,#198,.T.);
#142=EDGE_CURVE('',#177,#175,#25,.T.);
#143=EDGE_CURVE('',#176,#177,#26,.T.);
#144=EDGE_CURVE('',#176,#178,#199,.T.);
#145=EDGE_CURVE('',#179,#176,#27,.T.);
#146=EDGE_CURVE('',#178,#179,#28,.T.);
#147=EDGE_CURVE('',#178,#180,#200,.T.);
#148=EDGE_CURVE('',#181,#178,#29,.T.);
#149=EDGE_CURVE('',#180,#181,#30,.T.);
#150=EDGE_CURVE('',#180,#182,#201,.T.);
#151=EDGE_CURVE('',#183,#180,#31,.T.);
#152=EDGE_CURVE('',#182,#183,#32,.T.);
#153=EDGE_CURVE('',#182,#184,#202,.T.);
#154=EDGE_CURVE('',#185,#182,#33,.T.);
#155=EDGE_CURVE('',#184,#185,#34,.T.);
#156=EDGE_CURVE('',#186,#186,#203,.T.);
#157=EDGE_CURVE('',#187,#188,#35,.T.);
#158=EDGE_CURVE('',#188,#189,#36,.T.);
#159=EDGE_CURVE('',#189,#190,#37,.T.);
#160=EDGE_CURVE('',#190,#191,#38,.T.);
#161=EDGE_CURVE('',#191,#192,#39,.T.);
#162=EDGE_CURVE('',#192,#187,#40,.T.);
#163=EDGE_CURVE('',#193,#193,#204,.F.);
#164=EDGE_CURVE('',#194,#194,#205,.T.);
#165=EDGE_CURVE('',#195,#195,#206,.T.);
#166=EDGE_CURVE('',#196,#188,#41,.T.);
#167=EDGE_CURVE('',#196,#184,#42,.T.);
#168=EDGE_CURVE('',#185,#189,#43,.T.);
#169=EDGE_CURVE('',#183,#190,#44,.T.);
#170=EDGE_CURVE('',#181,#191,#45,.T.);
#171=EDGE_CURVE('',#179,#192,#46,.T.);
#172=EDGE_CURVE('',#177,#187,#47,.T.);
#173=EDGE_CURVE('',#175,#196,#48,.T.);
#174=EDGE_CURVE('',#184,#175,#207,.T.);
#175=VERTEX_POINT('',#531);
#176=VERTEX_POINT('',#532);
#177=VERTEX_POINT('',#534);
#178=VERTEX_POINT('',#538);
#179=VERTEX_POINT('',#540);
#180=VERTEX_POINT('',#544);
#181=VERTEX_POINT('',#546);
#182=VERTEX_POINT('',#550);
#183=VERTEX_POINT('',#552);
#184=VERTEX_POINT('',#556);
#185=VERTEX_POINT('',#558);
#186=VERTEX_POINT('',#562);
#187=VERTEX_POINT('',#564);
#188=VERTEX_POINT('',#565);
#189=VERTEX_POINT('',#567);
#190=VERTEX_POINT('',#569);
#191=VERTEX_POINT('',#571);
#192=VERTEX_POINT('',#573);
#193=VERTEX_POINT('',#577);
#194=VERTEX_POINT('',#579);
#195=VERTEX_POINT('',#582);
#196=VERTEX_POINT('',#586);
#197=VERTEX_POINT('',#602);
#198=CIRCLE('',#419,0.35);
#199=CIRCLE('',#421,0.35);
#200=CIRCLE('',#423,0.35);
#201=CIRCLE('',#425,0.35);
#202=CIRCLE('',#427,0.35);
#203=CIRCLE('',#429,0.719999999999994);
#204=CIRCLE('',#431,0.799999999999994);
#205=CIRCLE('',#432,0.799999999999993);
#206=CIRCLE('',#434,0.2);
#207=CIRCLE('',#443,0.35);
#208=EDGE_LOOP('',(#73,#74,#75));
#209=EDGE_LOOP('',(#76,#77,#78));
#210=EDGE_LOOP('',(#79,#80,#81));
#211=EDGE_LOOP('',(#82,#83,#84));
#212=EDGE_LOOP('',(#85,#86,#87));
#213=EDGE_LOOP('',(#88));
#214=EDGE_LOOP('',(#89,#90,#91,#92,#93,#94));
#215=EDGE_LOOP('',(#95));
#216=EDGE_LOOP('',(#96));
#217=EDGE_LOOP('',(#97));
#218=EDGE_LOOP('',(#98));
#219=EDGE_LOOP('',(#99));
#220=EDGE_LOOP('',(#100,#101,#102,#103,#104));
#221=EDGE_LOOP('',(#105,#106,#107,#108,#109));
#222=EDGE_LOOP('',(#110,#111,#112,#113,#114));
#223=EDGE_LOOP('',(#115,#116,#117,#118,#119));
#224=EDGE_LOOP('',(#120,#121,#122,#123,#124));
#225=EDGE_LOOP('',(#125,#126,#127,#128,#129));
#226=EDGE_LOOP('',(#130,#131,#132));
#227=EDGE_LOOP('',(#133,#134,#135,#136,#137,#138));
#228=EDGE_LOOP('',(#139));
#229=EDGE_LOOP('',(#140));
#230=FACE_BOUND('',#208,.T.);
#231=FACE_BOUND('',#209,.T.);
#232=FACE_BOUND('',#210,.T.);
#233=FACE_BOUND('',#211,.T.);
#234=FACE_BOUND('',#212,.T.);
#235=FACE_BOUND('',#213,.T.);
#236=FACE_BOUND('',#214,.T.);
#237=FACE_BOUND('',#215,.T.);
#238=FACE_BOUND('',#216,.T.);
#239=FACE_BOUND('',#217,.T.);
#240=FACE_BOUND('',#218,.T.);
#241=FACE_BOUND('',#219,.T.);
#242=FACE_BOUND('',#220,.T.);
#243=FACE_BOUND('',#221,.T.);
#244=FACE_BOUND('',#222,.T.);
#245=FACE_BOUND('',#223,.T.);
#246=FACE_BOUND('',#224,.T.);
#247=FACE_BOUND('',#225,.T.);
#248=FACE_BOUND('',#226,.T.);
#249=FACE_BOUND('',#227,.T.);
#250=FACE_BOUND('',#20,.T.);
#251=FACE_BOUND('',#228,.T.);
#252=FACE_BOUND('',#229,.T.);
#253=PLANE('',#418);
#254=PLANE('',#420);
#255=PLANE('',#422);
#256=PLANE('',#424);
#257=PLANE('',#426);
#258=PLANE('',#428);
#259=PLANE('',#435);
#260=PLANE('',#436);
#261=PLANE('',#437);
#262=PLANE('',#438);
#263=PLANE('',#439);
#264=PLANE('',#440);
#265=PLANE('',#441);
#266=PLANE('',#442);
#267=STYLED_ITEM('',(#285),#395);
#268=STYLED_ITEM('',(#286),#396);
#269=STYLED_ITEM('',(#287),#397);
#270=STYLED_ITEM('',(#288),#398);
#271=STYLED_ITEM('',(#289),#399);
#272=STYLED_ITEM('',(#290),#400);
#273=STYLED_ITEM('',(#291),#401);
#274=STYLED_ITEM('',(#292),#402);
#275=STYLED_ITEM('',(#293),#403);
#276=STYLED_ITEM('',(#294),#404);
#277=STYLED_ITEM('',(#295),#405);
#278=STYLED_ITEM('',(#296),#406);
#279=STYLED_ITEM('',(#297),#407);
#280=STYLED_ITEM('',(#298),#408);
#281=STYLED_ITEM('',(#299),#409);
#282=STYLED_ITEM('',(#300),#410);
#283=STYLED_ITEM('',(#301),#411);
#284=STYLED_ITEM('',(#302),#412);
#285=PRESENTATION_STYLE_ASSIGNMENT((#303));
#286=PRESENTATION_STYLE_ASSIGNMENT((#304));
#287=PRESENTATION_STYLE_ASSIGNMENT((#305));
#288=PRESENTATION_STYLE_ASSIGNMENT((#306));
#289=PRESENTATION_STYLE_ASSIGNMENT((#307));
#290=PRESENTATION_STYLE_ASSIGNMENT((#308));
#291=PRESENTATION_STYLE_ASSIGNMENT((#309));
#292=PRESENTATION_STYLE_ASSIGNMENT((#310));
#293=PRESENTATION_STYLE_ASSIGNMENT((#311));
#294=PRESENTATION_STYLE_ASSIGNMENT((#312));
#295=PRESENTATION_STYLE_ASSIGNMENT((#313));
#296=PRESENTATION_STYLE_ASSIGNMENT((#314));
#297=PRESENTATION_STYLE_ASSIGNMENT((#315));
#298=PRESENTATION_STYLE_ASSIGNMENT((#316));
#299=PRESENTATION_STYLE_ASSIGNMENT((#317));
#300=PRESENTATION_STYLE_ASSIGNMENT((#318));
#301=PRESENTATION_STYLE_ASSIGNMENT((#319));
#302=PRESENTATION_STYLE_ASSIGNMENT((#320));
#303=SURFACE_STYLE_USAGE(.BOTH.,#321);
#304=SURFACE_STYLE_USAGE(.BOTH.,#322);
#305=SURFACE_STYLE_USAGE(.BOTH.,#323);
#306=SURFACE_STYLE_USAGE(.BOTH.,#324);
#307=SURFACE_STYLE_USAGE(.BOTH.,#325);
#308=SURFACE_STYLE_USAGE(.BOTH.,#326);
#309=SURFACE_STYLE_USAGE(.BOTH.,#327);
#310=SURFACE_STYLE_USAGE(.BOTH.,#328);
#311=SURFACE_STYLE_USAGE(.BOTH.,#329);
#312=SURFACE_STYLE_USAGE(.BOTH.,#330);
#313=SURFACE_STYLE_USAGE(.BOTH.,#331);
#314=SURFACE_STYLE_USAGE(.BOTH.,#332);
#315=SURFACE_STYLE_USAGE(.BOTH.,#333);
#316=SURFACE_STYLE_USAGE(.BOTH.,#334);
#317=SURFACE_STYLE_USAGE(.BOTH.,#335);
#318=SURFACE_STYLE_USAGE(.BOTH.,#336);
#319=SURFACE_STYLE_USAGE(.BOTH.,#337);
#320=SURFACE_STYLE_USAGE(.BOTH.,#338);
#321=SURFACE_SIDE_STYLE('',(#339));
#322=SURFACE_SIDE_STYLE('',(#340));
#323=SURFACE_SIDE_STYLE('',(#341));
#324=SURFACE_SIDE_STYLE('',(#342));
#325=SURFACE_SIDE_STYLE('',(#343));
#326=SURFACE_SIDE_STYLE('',(#344));
#327=SURFACE_SIDE_STYLE('',(#345));
#328=SURFACE_SIDE_STYLE('',(#346));
#329=SURFACE_SIDE_STYLE('',(#347));
#330=SURFACE_SIDE_STYLE('',(#348));
#331=SURFACE_SIDE_STYLE('',(#349));
#332=SURFACE_SIDE_STYLE('',(#350));
#333=SURFACE_SIDE_STYLE('',(#351));
#334=SURFACE_SIDE_STYLE('',(#352));
#335=SURFACE_SIDE_STYLE('',(#353));
#336=SURFACE_SIDE_STYLE('',(#354));
#337=SURFACE_SIDE_STYLE('',(#355));
#338=SURFACE_SIDE_STYLE('',(#356));
#339=SURFACE_STYLE_FILL_AREA(#357);
#340=SURFACE_STYLE_FILL_AREA(#358);
#341=SURFACE_STYLE_FILL_AREA(#359);
#342=SURFACE_STYLE_FILL_AREA(#360);
#343=SURFACE_STYLE_FILL_AREA(#361);
#344=SURFACE_STYLE_FILL_AREA(#362);
#345=SURFACE_STYLE_FILL_AREA(#363);
#346=SURFACE_STYLE_FILL_AREA(#364);
#347=SURFACE_STYLE_FILL_AREA(#365);
#348=SURFACE_STYLE_FILL_AREA(#366);
#349=SURFACE_STYLE_FILL_AREA(#367);
#350=SURFACE_STYLE_FILL_AREA(#368);
#351=SURFACE_STYLE_FILL_AREA(#369);
#352=SURFACE_STYLE_FILL_AREA(#370);
#353=SURFACE_STYLE_FILL_AREA(#371);
#354=SURFACE_STYLE_FILL_AREA(#372);
#355=SURFACE_STYLE_FILL_AREA(#373);
#356=SURFACE_STYLE_FILL_AREA(#374);
#357=FILL_AREA_STYLE('',(#375));
#358=FILL_AREA_STYLE('',(#376));
#359=FILL_AREA_STYLE('',(#377));
#360=FILL_AREA_STYLE('',(#378));
#361=FILL_AREA_STYLE('',(#379));
#362=FILL_AREA_STYLE('',(#380));
#363=FILL_AREA_STYLE('',(#381));
#364=FILL_AREA_STYLE('',(#382));
#365=FILL_AREA_STYLE('',(#383));
#366=FILL_AREA_STYLE('',(#384));
#367=FILL_AREA_STYLE('',(#385));
#368=FILL_AREA_STYLE('',(#386));
#369=FILL_AREA_STYLE('',(#387));
#370=FILL_AREA_STYLE('',(#388));
#371=FILL_AREA_STYLE('',(#389));
#372=FILL_AREA_STYLE('',(#390));
#373=FILL_AREA_STYLE('',(#391));
#374=FILL_AREA_STYLE('',(#392));
#375=FILL_AREA_STYLE_COLOUR('',#393);
#376=FILL_AREA_STYLE_COLOUR('',#393);
#377=FILL_AREA_STYLE_COLOUR('',#393);
#378=FILL_AREA_STYLE_COLOUR('',#393);
#379=FILL_AREA_STYLE_COLOUR('',#393);
#380=FILL_AREA_STYLE_COLOUR('',#393);
#381=FILL_AREA_STYLE_COLOUR('',#394);
#382=FILL_AREA_STYLE_COLOUR('',#393);
#383=FILL_AREA_STYLE_COLOUR('',#393);
#384=FILL_AREA_STYLE_COLOUR('',#393);
#385=FILL_AREA_STYLE_COLOUR('',#393);
#386=FILL_AREA_STYLE_COLOUR('',#393);
#387=FILL_AREA_STYLE_COLOUR('',#393);
#388=FILL_AREA_STYLE_COLOUR('',#393);
#389=FILL_AREA_STYLE_COLOUR('',#393);
#390=FILL_AREA_STYLE_COLOUR('',#393);
#391=FILL_AREA_STYLE_COLOUR('',#393);
#392=FILL_AREA_STYLE_COLOUR('',#393);
#393=COLOUR_RGB('',0.506983280181885,0.531564235687256,0.550000011920929);
#394=COLOUR_RGB('',0.1875,0.75,0.581249892711639);
#395=ADVANCED_FACE('',(#230),#253,.F.);
#396=ADVANCED_FACE('',(#231),#254,.F.);
#397=ADVANCED_FACE('',(#232),#255,.F.);
#398=ADVANCED_FACE('',(#233),#256,.F.);
#399=ADVANCED_FACE('',(#234),#257,.F.);
#400=ADVANCED_FACE('',(#235,#236),#258,.T.);
#401=ADVANCED_FACE('',(#237,#238),#24,.T.);
#402=ADVANCED_FACE('',(#239,#240),#21,.T.);
#403=ADVANCED_FACE('',(#241),#259,.T.);
#404=ADVANCED_FACE('',(#242),#260,.T.);
#405=ADVANCED_FACE('',(#243),#261,.T.);
#406=ADVANCED_FACE('',(#244),#262,.T.);
#407=ADVANCED_FACE('',(#245),#263,.T.);
#408=ADVANCED_FACE('',(#246),#264,.T.);
#409=ADVANCED_FACE('',(#247),#265,.T.);
#410=ADVANCED_FACE('',(#248),#266,.F.);
#411=ADVANCED_FACE('',(#249,#250),#22,.F.);
#412=ADVANCED_FACE('',(#251,#252),#23,.T.);
#413=CLOSED_SHELL('',(#395,#396,#397,#398,#399,#400,#401,#402,#403,#404,
#405,#406,#407,#408,#409,#410,#411,#412));
#414=MANIFOLD_SOLID_BREP('',#413);
#415=SHAPE_DEFINITION_REPRESENTATION(#610,#416);
#416=SHAPE_REPRESENTATION('\X2\5185516D89D295257AEF7D275B9A87BA9489\X0\ 
GBT78-2007',(#417),#605);
#417=AXIS2_PLACEMENT_3D('',#528,#446,#447);
#418=AXIS2_PLACEMENT_3D('',#529,#448,#449);
#419=AXIS2_PLACEMENT_3D('',#530,#450,#451);
#420=AXIS2_PLACEMENT_3D('',#536,#454,#455);
#421=AXIS2_PLACEMENT_3D('',#537,#456,#457);
#422=AXIS2_PLACEMENT_3D('',#542,#460,#461);
#423=AXIS2_PLACEMENT_3D('',#543,#462,#463);
#424=AXIS2_PLACEMENT_3D('',#548,#466,#467);
#425=AXIS2_PLACEMENT_3D('',#549,#468,#469);
#426=AXIS2_PLACEMENT_3D('',#554,#472,#473);
#427=AXIS2_PLACEMENT_3D('',#555,#474,#475);
#428=AXIS2_PLACEMENT_3D('',#560,#478,#479);
#429=AXIS2_PLACEMENT_3D('',#561,#480,#481);
#430=AXIS2_PLACEMENT_3D('',#575,#488,#489);
#431=AXIS2_PLACEMENT_3D('',#576,#490,#491);
#432=AXIS2_PLACEMENT_3D('',#578,#492,#493);
#433=AXIS2_PLACEMENT_3D('',#580,#494,#495);
#434=AXIS2_PLACEMENT_3D('',#581,#496,#497);
#435=AXIS2_PLACEMENT_3D('',#583,#498,#499);
#436=AXIS2_PLACEMENT_3D('',#584,#500,#501);
#437=AXIS2_PLACEMENT_3D('',#589,#505,#506);
#438=AXIS2_PLACEMENT_3D('',#591,#508,#509);
#439=AXIS2_PLACEMENT_3D('',#593,#511,#512);
#440=AXIS2_PLACEMENT_3D('',#595,#514,#515);
#441=AXIS2_PLACEMENT_3D('',#597,#517,#518);
#442=AXIS2_PLACEMENT_3D('',#599,#520,#521);
#443=AXIS2_PLACEMENT_3D('',#600,#522,#523);
#444=AXIS2_PLACEMENT_3D('',#601,#524,#525);
#445=AXIS2_PLACEMENT_3D('',#603,#526,#527);
#446=DIRECTION('',(0.,0.,1.));
#447=DIRECTION('',(1.,0.,0.));
#448=DIRECTION('',(1.,-6.12303176911189E-17,0.));
#449=DIRECTION('',(6.12303176911189E-17,1.,0.));
#450=DIRECTION('',(-1.,0.,0.));
#451=DIRECTION('',(0.,0.,1.));
#452=DIRECTION('',(-6.12303176911189E-17,-1.,-8.04811392180621E-16));
#453=DIRECTION('',(-3.06151588455594E-17,-0.5,0.866025403784439));
#454=DIRECTION('',(1.,-6.12303176911189E-17,0.));
#455=DIRECTION('',(6.12303176911189E-17,1.,0.));
#456=DIRECTION('',(-1.,0.,0.));
#457=DIRECTION('',(0.,0.,1.));
#458=DIRECTION('',(-3.06151588455594E-17,-0.5,0.866025403784439));
#459=DIRECTION('',(3.06151588455594E-17,0.5,0.866025403784438));
#460=DIRECTION('',(1.,-6.12303176911189E-17,0.));
#461=DIRECTION('',(6.12303176911189E-17,1.,0.));
#462=DIRECTION('',(-1.,0.,0.));
#463=DIRECTION('',(0.,0.,1.));
#464=DIRECTION('',(3.06151588455594E-17,0.5,0.866025403784438));
#465=DIRECTION('',(6.12303176911189E-17,1.,-9.38946624210724E-16));
#466=DIRECTION('',(1.,-6.12303176911189E-17,0.));
#467=DIRECTION('',(6.12303176911189E-17,1.,0.));
#468=DIRECTION('',(-1.,0.,0.));
#469=DIRECTION('',(0.,0.,1.));
#470=DIRECTION('',(6.12303176911189E-17,1.,-9.38946624210724E-16));
#471=DIRECTION('',(3.06151588455593E-17,0.499999999999999,-0.866025403784439));
#472=DIRECTION('',(1.,-6.12303176911189E-17,0.));
#473=DIRECTION('',(6.12303176911189E-17,1.,0.));
#474=DIRECTION('',(-1.,0.,0.));
#475=DIRECTION('',(0.,0.,1.));
#476=DIRECTION('',(3.06151588455593E-17,0.499999999999999,-0.866025403784439));
#477=DIRECTION('',(-3.06151588455594E-17,-0.5,-0.866025403784439));
#478=DIRECTION('',(-1.,0.,0.));
#479=DIRECTION('',(0.,0.,1.));
#480=DIRECTION('',(-1.,0.,0.));
#481=DIRECTION('',(0.,0.,1.));
#482=DIRECTION('',(-6.12303176911189E-17,-1.,-8.04811392180621E-16));
#483=DIRECTION('',(-3.06151588455594E-17,-0.5,-0.866025403784439));
#484=DIRECTION('',(3.06151588455593E-17,0.499999999999999,-0.866025403784439));
#485=DIRECTION('',(6.12303176911189E-17,1.,-9.38946624210724E-16));
#486=DIRECTION('',(3.06151588455594E-17,0.5,0.866025403784438));
#487=DIRECTION('',(-3.06151588455594E-17,-0.5,0.866025403784439));
#488=DIRECTION('',(-1.,0.,0.));
#489=DIRECTION('',(0.,0.,1.));
#490=DIRECTION('',(-1.,0.,0.));
#491=DIRECTION('',(0.,0.,1.));
#492=DIRECTION('',(-1.,0.,0.));
#493=DIRECTION('',(0.,0.,1.));
#494=DIRECTION('',(-1.,0.,0.));
#495=DIRECTION('',(0.,0.,1.));
#496=DIRECTION('',(-1.,0.,0.));
#497=DIRECTION('',(0.,0.,1.));
#498=DIRECTION('',(1.,0.,0.));
#499=DIRECTION('',(0.,0.,-1.));
#500=DIRECTION('',(0.,0.866025403784439,-0.5));
#501=DIRECTION('',(0.,0.5,0.866025403784439));
#502=DIRECTION('',(-1.,0.,0.));
#503=DIRECTION('',(-3.06151588455594E-17,-0.5,-0.866025403784439));
#504=DIRECTION('',(-1.,0.,0.));
#505=DIRECTION('',(0.,0.866025403784439,0.499999999999999));
#506=DIRECTION('',(0.,-0.499999999999999,0.866025403784439));
#507=DIRECTION('',(-1.,0.,0.));
#508=DIRECTION('',(0.,9.38946624210724E-16,1.));
#509=DIRECTION('',(0.,-1.,9.38946624210724E-16));
#510=DIRECTION('',(-1.,0.,0.));
#511=DIRECTION('',(0.,-0.866025403784438,0.5));
#512=DIRECTION('',(0.,-0.5,-0.866025403784438));
#513=DIRECTION('',(-1.,0.,0.));
#514=DIRECTION('',(0.,-0.866025403784438,-0.5));
#515=DIRECTION('',(0.,0.5,-0.866025403784439));
#516=DIRECTION('',(-1.,0.,0.));
#517=DIRECTION('',(0.,8.04811392180621E-16,-1.));
#518=DIRECTION('',(0.,1.,8.04811392180621E-16));
#519=DIRECTION('',(-6.12303176911189E-17,-1.,-8.04811392180621E-16));
#520=DIRECTION('',(1.,-6.12303176911189E-17,0.));
#521=DIRECTION('',(6.12303176911189E-17,1.,0.));
#522=DIRECTION('',(-1.,0.,0.));
#523=DIRECTION('',(0.,0.,1.));
#524=DIRECTION('',(-1.,0.,0.));
#525=DIRECTION('',(0.,0.,1.));
#526=DIRECTION('',(1.,0.,0.));
#527=DIRECTION('',(0.,0.,-1.));
#528=CARTESIAN_POINT('',(0.,0.,0.));
#529=CARTESIAN_POINT('',(0.7,-1.84258284915108E-49,0.));
#530=CARTESIAN_POINT('',(0.699999999999993,0.,0.));
#531=CARTESIAN_POINT('',(0.699999999999993,0.,0.35));
#532=CARTESIAN_POINT('',(0.699999999999993,0.303108891324553,0.175));
#533=CARTESIAN_POINT('',(0.7,0.202072594216369,0.35));
#534=CARTESIAN_POINT('',(0.7,0.202072594216369,0.35));
#535=CARTESIAN_POINT('',(0.7,0.404145188432738,-2.71050543121368E-17));
#536=CARTESIAN_POINT('',(0.7,-1.84258284915108E-49,0.));
#537=CARTESIAN_POINT('',(0.699999999999993,0.,0.));
#538=CARTESIAN_POINT('',(0.699999999999993,0.303108891324553,-0.175));
#539=CARTESIAN_POINT('',(0.7,0.404145188432738,-2.71050543121368E-17));
#540=CARTESIAN_POINT('',(0.7,0.404145188432738,0.));
#541=CARTESIAN_POINT('',(0.7,0.202072594216369,-0.35));
#542=CARTESIAN_POINT('',(0.7,-1.84258284915108E-49,0.));
#543=CARTESIAN_POINT('',(0.699999999999993,0.,0.));
#544=CARTESIAN_POINT('',(0.699999999999993,-3.28631318473753E-16,-0.35));
#545=CARTESIAN_POINT('',(0.7,0.202072594216369,-0.35));
#546=CARTESIAN_POINT('',(0.7,0.202072594216369,-0.35));
#547=CARTESIAN_POINT('',(0.7,-0.202072594216369,-0.35));
#548=CARTESIAN_POINT('',(0.7,-1.84258284915108E-49,0.));
#549=CARTESIAN_POINT('',(0.699999999999993,0.,0.));
#550=CARTESIAN_POINT('',(0.699999999999993,-0.303108891324554,-0.174999999999999));
#551=CARTESIAN_POINT('',(0.7,-0.202072594216369,-0.35));
#552=CARTESIAN_POINT('',(0.7,-0.202072594216369,-0.35));
#553=CARTESIAN_POINT('',(0.7,-0.404145188432738,7.04731412115578E-16));
#554=CARTESIAN_POINT('',(0.7,-1.84258284915108E-49,0.));
#555=CARTESIAN_POINT('',(0.699999999999993,0.,0.));
#556=CARTESIAN_POINT('',(0.7,-0.303108891324554,0.175));
#557=CARTESIAN_POINT('',(0.7,-0.404145188432738,7.04731412115578E-16));
#558=CARTESIAN_POINT('',(0.7,-0.404145188432738,7.04731412115578E-16));
#559=CARTESIAN_POINT('',(0.7,-0.202072594216369,0.35));
#560=CARTESIAN_POINT('',(0.,0.,0.));
#561=CARTESIAN_POINT('',(0.,0.,0.));
#562=CARTESIAN_POINT('',(0.,0.,0.719999999999994));
#563=CARTESIAN_POINT('',(1.23729691405368E-17,0.202072594216369,0.35));
#564=CARTESIAN_POINT('',(1.23729691405368E-17,0.202072594216369,0.35));
#565=CARTESIAN_POINT('',(0.,-0.202072594216369,0.35));
#566=CARTESIAN_POINT('',(-1.23729691405368E-17,-0.202072594216369,0.35));
#567=CARTESIAN_POINT('',(-2.47459382810736E-17,-0.404145188432738,7.04731412115578E-16));
#568=CARTESIAN_POINT('',(-2.47459382810736E-17,-0.404145188432738,7.04731412115578E-16));
#569=CARTESIAN_POINT('',(-1.23729691405368E-17,-0.202072594216369,-0.35));
#570=CARTESIAN_POINT('',(-1.23729691405368E-17,-0.202072594216369,-0.35));
#571=CARTESIAN_POINT('',(1.23729691405368E-17,0.202072594216369,-0.35));
#572=CARTESIAN_POINT('',(1.23729691405368E-17,0.202072594216369,-0.35));
#573=CARTESIAN_POINT('',(2.47459382810736E-17,0.404145188432738,0.));
#574=CARTESIAN_POINT('',(2.47459382810736E-17,0.404145188432738,-2.71050543121368E-17));
#575=CARTESIAN_POINT('',(2.,0.,0.));
#576=CARTESIAN_POINT('',(0.08,0.,0.));
#577=CARTESIAN_POINT('',(0.08,0.,0.799999999999994));
#578=CARTESIAN_POINT('',(2.65358983848623,0.,0.));
#579=CARTESIAN_POINT('',(2.65358983848623,0.,0.799999999999993));
#580=CARTESIAN_POINT('',(2.65358983848623,0.,0.));
#581=CARTESIAN_POINT('',(3.,0.,0.));
#582=CARTESIAN_POINT('',(3.,0.,0.2));
#583=CARTESIAN_POINT('',(3.,0.,0.2));
#584=CARTESIAN_POINT('',(0.7,-0.202072594216369,0.35));
#585=CARTESIAN_POINT('',(0.7,-0.202072594216369,0.35));
#586=CARTESIAN_POINT('',(0.7,-0.202072594216369,0.35));
#587=CARTESIAN_POINT('',(0.7,-0.202072594216369,0.35));
#588=CARTESIAN_POINT('',(0.7,-0.404145188432738,7.04731412115578E-16));
#589=CARTESIAN_POINT('',(0.7,-0.404145188432738,7.04731412115578E-16));
#590=CARTESIAN_POINT('',(0.7,-0.202072594216369,-0.35));
#591=CARTESIAN_POINT('',(0.7,-0.202072594216369,-0.35));
#592=CARTESIAN_POINT('',(0.7,0.202072594216369,-0.35));
#593=CARTESIAN_POINT('',(0.7,0.202072594216369,-0.35));
#594=CARTESIAN_POINT('',(0.7,0.404145188432738,0.));
#595=CARTESIAN_POINT('',(0.7,0.404145188432738,-2.71050543121368E-17));
#596=CARTESIAN_POINT('',(0.7,0.202072594216369,0.35));
#597=CARTESIAN_POINT('',(0.7,0.202072594216369,0.35));
#598=CARTESIAN_POINT('',(0.7,0.202072594216369,0.35));
#599=CARTESIAN_POINT('',(0.7,-1.84258284915108E-49,0.));
#600=CARTESIAN_POINT('',(0.699999999999993,0.,0.));
#601=CARTESIAN_POINT('',(0.902072594216362,0.,0.));
#602=CARTESIAN_POINT('',(0.902072594216362,0.,0.));
#603=CARTESIAN_POINT('',(0.,0.,0.));
#604=MECHANICAL_DESIGN_GEOMETRIC_PRESENTATION_REPRESENTATION('',(#267,#268,
#269,#270,#271,#272,#273,#274,#275,#276,#277,#278,#279,#280,#281,#282,#283,
#284),#605);
#605=(
GEOMETRIC_REPRESENTATION_CONTEXT(3)
GLOBAL_UNCERTAINTY_ASSIGNED_CONTEXT((#606))
GLOBAL_UNIT_ASSIGNED_CONTEXT((#609,#608,#607))
REPRESENTATION_CONTEXT('\X2\5185516D89D295257AEF7D275B9A87BA9489\X0\ G
BT78-2007','TOP_LEVEL_ASSEMBLY_PART')
);
#606=UNCERTAINTY_MEASURE_WITH_UNIT(LENGTH_MEASURE(0.005),#609,
'DISTANCE_ACCURACY_VALUE','Maximum Tolerance applied to model');
#607=(
NAMED_UNIT(*)
SI_UNIT($,.STERADIAN.)
SOLID_ANGLE_UNIT()
);
#608=(
NAMED_UNIT(*)
PLANE_ANGLE_UNIT()
SI_UNIT($,.RADIAN.)
);
#609=(
LENGTH_UNIT()
NAMED_UNIT(*)
SI_UNIT(.MILLI.,.METRE.)
);
#610=PRODUCT_DEFINITION_SHAPE('','',#611);
#611=PRODUCT_DEFINITION('','',#613,#612);
#612=PRODUCT_DEFINITION_CONTEXT('',#619,'design');
#613=PRODUCT_DEFINITION_FORMATION_WITH_SPECIFIED_SOURCE('','',#615,
 .NOT_KNOWN.);
#614=PRODUCT_RELATED_PRODUCT_CATEGORY('','',(#615));
#615=PRODUCT('\X2\5185516D89D295257AEF7D275B9A87BA9489\X0\ GBT78-2007',
'\X2\5185516D89D295257AEF7D275B9A87BA9489\X0\ GBT78-2007',
'\X2\5185516D89D295257AEF7D275B9A87BA9489\X0\ GBT78-2007',(#617));
#616=PRODUCT_CATEGORY('','');
#617=PRODUCT_CONTEXT('',#619,'mechanical');
#618=APPLICATION_PROTOCOL_DEFINITION('international standard',
'automotive_design',2010,#619);
#619=APPLICATION_CONTEXT(
'core data for automotive mechanical design processes');
ENDSEC;
END-ISO-10303-21;
