ISO-10303-21;
HEADER;
/* Generated by software containing HOOPS Exchange Step
 * from HOOPS Exchange, Inc. (www.tiangong.cloud) 
 */

FILE_DESCRIPTION(
/* description */ ('Unknown'),
/* implementation_level */ '2;1');

FILE_NAME(
/* name */ 
'\X2\53415B5769FD51F97A74516D89D2593481EA653B87BA9489548C592757AB57087EC454084EF6\X0\ 
GBT9074.21-1988',
/* time_stamp */ '2025-12-31T14:53:08+08:00',
/* author */ ('Unknown'),
/* organization */ ('Unknown'),
/* preprocessor_version */ 'ST-DEVELOPER v19.4',
/* originating_system */ 'TianGong',
/* authorisation */ 'Unknown');

FILE_SCHEMA (('AUTOMOTIVE_DESIGN {1 0 10303 214 3 1 1}'));
ENDSEC;

DATA;
#10=PROPERTY_DEFINITION_REPRESENTATION(#14,#12);
#11=PROPERTY_DEFINITION_REPRESENTATION(#15,#13);
#12=REPRESENTATION('',(#16),#905);
#13=REPRESENTATION('',(#17),#905);
#14=PROPERTY_DEFINITION('pmi validation property','',#910);
#15=PROPERTY_DEFINITION('pmi validation property','',#910);
#16=VALUE_REPRESENTATION_ITEM('number of annotations',COUNT_MEASURE(0.));
#17=VALUE_REPRESENTATION_ITEM('number of views',COUNT_MEASURE(0.));
#18=SHAPE_REPRESENTATION_RELATIONSHIP('','',#464,#19);
#19=ADVANCED_BREP_SHAPE_REPRESENTATION('',(#462),#905);
#20=VERTEX_LOOP('',#291);
#21=CYLINDRICAL_SURFACE('',#490,5.49999999999999);
#22=CYLINDRICAL_SURFACE('',#498,1.75000000000001);
#23=PLANE('',#470);
#24=PLANE('',#471);
#25=PLANE('',#472);
#26=PLANE('',#473);
#27=PLANE('',#474);
#28=PLANE('',#475);
#29=PLANE('',#478);
#30=PLANE('',#483);
#31=PLANE('',#493);
#32=PLANE('',#495);
#33=CONICAL_SURFACE('',#468,2.73542660832995,1.0471975511966);
#34=CONICAL_SURFACE('',#476,3.17542660832995,1.0471975511966);
#35=CONICAL_SURFACE('',#496,1.75000000000001,0.500440813147296);
#36=CIRCLE('',#466,0.4375);
#37=CIRCLE('',#467,0.4375);
#38=CIRCLE('',#469,2.73542660832995);
#39=CIRCLE('',#477,2.73542660832995);
#40=CIRCLE('',#479,0.4375);
#41=CIRCLE('',#480,0.4375);
#42=CIRCLE('',#481,0.4375);
#43=CIRCLE('',#482,0.4375);
#44=CIRCLE('',#484,0.4375);
#45=CIRCLE('',#485,0.4375);
#46=CIRCLE('',#486,0.4375);
#47=CIRCLE('',#487,0.4375);
#48=CIRCLE('',#488,0.4375);
#49=CIRCLE('',#489,0.4375);
#50=CIRCLE('',#491,5.49999999999999);
#51=CIRCLE('',#492,5.49999999999999);
#52=CIRCLE('',#494,1.75000000000001);
#53=CIRCLE('',#497,1.75000000000001);
#54=B_SPLINE_CURVE_WITH_KNOTS('',3,(#609,#610,#611,#612,#613),
 .UNSPECIFIED.,.F.,.F.,(4,1,4),(0.,0.00104784523931763,0.00209569047863526),
 .UNSPECIFIED.);
#55=B_SPLINE_CURVE_WITH_KNOTS('',3,(#633,#634,#635,#636,#637),
 .UNSPECIFIED.,.F.,.F.,(4,1,4),(0.,0.0010460757024132,0.00209215140482641),
 .UNSPECIFIED.);
#56=B_SPLINE_CURVE_WITH_KNOTS('',3,(#643,#644,#645,#646,#647),
 .UNSPECIFIED.,.F.,.F.,(4,1,4),(2.37810833116418E-7,0.00160374371138863,
0.00320724961194414),.UNSPECIFIED.);
#57=B_SPLINE_CURVE_WITH_KNOTS('',3,(#650,#651,#652,#653,#654),
 .UNSPECIFIED.,.F.,.F.,(4,1,4),(2.38063816501902E-7,0.00160374375774266,
0.00320724945166881),.UNSPECIFIED.);
#58=B_SPLINE_CURVE_WITH_KNOTS('',3,(#656,#657,#658,#659,#660),
 .UNSPECIFIED.,.F.,.F.,(4,1,4),(0.00346007662393719,0.00507492046072037,
0.00668976429750356),.UNSPECIFIED.);
#59=B_SPLINE_CURVE_WITH_KNOTS('',3,(#662,#663,#664,#665,#666),
 .UNSPECIFIED.,.F.,.F.,(4,1,4),(2.38074298986683E-7,0.00160374350758817,
0.00320724894087735),.UNSPECIFIED.);
#60=B_SPLINE_CURVE_WITH_KNOTS('',3,(#668,#669,#670,#671,#672),
 .UNSPECIFIED.,.F.,.F.,(4,1,4),(2.37810833160171E-7,0.00160374364860557,
0.00320724948637798),.UNSPECIFIED.);
#61=B_SPLINE_CURVE_WITH_KNOTS('',3,(#674,#675,#676,#677,#678),
 .UNSPECIFIED.,.F.,.F.,(4,1,4),(0.00346007569867333,0.00507491952261591,
0.0066897633465585),.UNSPECIFIED.);
#62=B_SPLINE_CURVE_WITH_KNOTS('',3,(#682,#683,#684,#685,#686),
 .UNSPECIFIED.,.F.,.F.,(4,1,4),(2.38053321704591E-7,0.00160374362038253,
0.00320724918744335),.UNSPECIFIED.);
#63=B_SPLINE_CURVE_WITH_KNOTS('',3,(#692,#693,#694,#695,#696),
 .UNSPECIFIED.,.F.,.F.,(4,1,4),(2.38190297581866E-7,0.001603744026687,0.00320724986307641),
 .UNSPECIFIED.);
#64=B_SPLINE_CURVE_WITH_KNOTS('',3,(#700,#701,#702,#703,#704),
 .UNSPECIFIED.,.F.,.F.,(4,1,4),(0.0034600760782854,0.00507491990183162,
0.00668976372537784),.UNSPECIFIED.);
#65=B_SPLINE_CURVE_WITH_KNOTS('',3,(#708,#709,#710,#711,#712),
 .UNSPECIFIED.,.F.,.F.,(4,1,4),(2.3819029757493E-7,0.00160374402668697,
0.00320724986307637),.UNSPECIFIED.);
#66=B_SPLINE_CURVE_WITH_KNOTS('',3,(#716,#717,#718,#719,#720),
 .UNSPECIFIED.,.F.,.F.,(4,1,4),(2.38190292566862E-7,0.00160374362182158,
0.00320724905335058),.UNSPECIFIED.);
#67=B_SPLINE_CURVE_WITH_KNOTS('',3,(#724,#725,#726,#727,#728),
 .UNSPECIFIED.,.F.,.F.,(4,1,4),(0.00346007643691941,0.00507492040268747,
0.00668976436845553),.UNSPECIFIED.);
#68=B_SPLINE_CURVE_WITH_KNOTS('',3,(#776,#777,#778,#779,#780),
 .UNSPECIFIED.,.F.,.F.,(4,1,4),(0.,0.00104784523931763,0.00209569047863526),
 .UNSPECIFIED.);
#69=B_SPLINE_CURVE_WITH_KNOTS('',3,(#806,#807,#808,#809,#810),
 .UNSPECIFIED.,.F.,.F.,(4,1,4),(0.,0.0010460757024132,0.00209215140482641),
 .UNSPECIFIED.);
#70=ORIENTED_EDGE('',*,*,#190,.F.);
#71=ORIENTED_EDGE('',*,*,#191,.T.);
#72=ORIENTED_EDGE('',*,*,#192,.T.);
#73=ORIENTED_EDGE('',*,*,#193,.F.);
#74=ORIENTED_EDGE('',*,*,#194,.T.);
#75=ORIENTED_EDGE('',*,*,#195,.T.);
#76=ORIENTED_EDGE('',*,*,#196,.F.);
#77=ORIENTED_EDGE('',*,*,#197,.T.);
#78=ORIENTED_EDGE('',*,*,#198,.T.);
#79=ORIENTED_EDGE('',*,*,#199,.T.);
#80=ORIENTED_EDGE('',*,*,#200,.T.);
#81=ORIENTED_EDGE('',*,*,#201,.T.);
#82=ORIENTED_EDGE('',*,*,#202,.T.);
#83=ORIENTED_EDGE('',*,*,#203,.T.);
#84=ORIENTED_EDGE('',*,*,#204,.T.);
#85=ORIENTED_EDGE('',*,*,#205,.F.);
#86=ORIENTED_EDGE('',*,*,#206,.T.);
#87=ORIENTED_EDGE('',*,*,#199,.F.);
#88=ORIENTED_EDGE('',*,*,#207,.F.);
#89=ORIENTED_EDGE('',*,*,#208,.F.);
#90=ORIENTED_EDGE('',*,*,#207,.T.);
#91=ORIENTED_EDGE('',*,*,#198,.F.);
#92=ORIENTED_EDGE('',*,*,#209,.F.);
#93=ORIENTED_EDGE('',*,*,#210,.F.);
#94=ORIENTED_EDGE('',*,*,#209,.T.);
#95=ORIENTED_EDGE('',*,*,#203,.F.);
#96=ORIENTED_EDGE('',*,*,#211,.F.);
#97=ORIENTED_EDGE('',*,*,#212,.F.);
#98=ORIENTED_EDGE('',*,*,#211,.T.);
#99=ORIENTED_EDGE('',*,*,#202,.F.);
#100=ORIENTED_EDGE('',*,*,#213,.F.);
#101=ORIENTED_EDGE('',*,*,#214,.F.);
#102=ORIENTED_EDGE('',*,*,#213,.T.);
#103=ORIENTED_EDGE('',*,*,#201,.F.);
#104=ORIENTED_EDGE('',*,*,#215,.F.);
#105=ORIENTED_EDGE('',*,*,#216,.F.);
#106=ORIENTED_EDGE('',*,*,#215,.T.);
#107=ORIENTED_EDGE('',*,*,#200,.F.);
#108=ORIENTED_EDGE('',*,*,#206,.F.);
#109=ORIENTED_EDGE('',*,*,#217,.F.);
#110=ORIENTED_EDGE('',*,*,#216,.T.);
#111=ORIENTED_EDGE('',*,*,#205,.T.);
#112=ORIENTED_EDGE('',*,*,#208,.T.);
#113=ORIENTED_EDGE('',*,*,#210,.T.);
#114=ORIENTED_EDGE('',*,*,#212,.T.);
#115=ORIENTED_EDGE('',*,*,#214,.T.);
#116=ORIENTED_EDGE('',*,*,#218,.T.);
#117=ORIENTED_EDGE('',*,*,#219,.T.);
#118=ORIENTED_EDGE('',*,*,#190,.T.);
#119=ORIENTED_EDGE('',*,*,#220,.T.);
#120=ORIENTED_EDGE('',*,*,#196,.T.);
#121=ORIENTED_EDGE('',*,*,#221,.T.);
#122=ORIENTED_EDGE('',*,*,#222,.T.);
#123=ORIENTED_EDGE('',*,*,#223,.T.);
#124=ORIENTED_EDGE('',*,*,#224,.T.);
#125=ORIENTED_EDGE('',*,*,#225,.T.);
#126=ORIENTED_EDGE('',*,*,#226,.T.);
#127=ORIENTED_EDGE('',*,*,#227,.T.);
#128=ORIENTED_EDGE('',*,*,#217,.T.);
#129=ORIENTED_EDGE('',*,*,#228,.T.);
#130=ORIENTED_EDGE('',*,*,#229,.F.);
#131=ORIENTED_EDGE('',*,*,#225,.F.);
#132=ORIENTED_EDGE('',*,*,#230,.T.);
#133=ORIENTED_EDGE('',*,*,#224,.F.);
#134=ORIENTED_EDGE('',*,*,#231,.T.);
#135=ORIENTED_EDGE('',*,*,#232,.T.);
#136=ORIENTED_EDGE('',*,*,#230,.F.);
#137=ORIENTED_EDGE('',*,*,#197,.F.);
#138=ORIENTED_EDGE('',*,*,#220,.F.);
#139=ORIENTED_EDGE('',*,*,#193,.T.);
#140=ORIENTED_EDGE('',*,*,#233,.T.);
#141=ORIENTED_EDGE('',*,*,#234,.T.);
#142=ORIENTED_EDGE('',*,*,#235,.T.);
#143=ORIENTED_EDGE('',*,*,#226,.F.);
#144=ORIENTED_EDGE('',*,*,#229,.T.);
#145=ORIENTED_EDGE('',*,*,#234,.F.);
#146=ORIENTED_EDGE('',*,*,#228,.F.);
#147=ORIENTED_EDGE('',*,*,#232,.F.);
#148=ORIENTED_EDGE('',*,*,#236,.F.);
#149=ORIENTED_EDGE('',*,*,#237,.F.);
#150=ORIENTED_EDGE('',*,*,#238,.F.);
#151=ORIENTED_EDGE('',*,*,#194,.F.);
#152=ORIENTED_EDGE('',*,*,#233,.F.);
#153=ORIENTED_EDGE('',*,*,#192,.F.);
#154=ORIENTED_EDGE('',*,*,#239,.F.);
#155=ORIENTED_EDGE('',*,*,#240,.F.);
#156=ORIENTED_EDGE('',*,*,#241,.F.);
#157=ORIENTED_EDGE('',*,*,#238,.T.);
#158=ORIENTED_EDGE('',*,*,#242,.F.);
#159=ORIENTED_EDGE('',*,*,#221,.F.);
#160=ORIENTED_EDGE('',*,*,#195,.F.);
#161=ORIENTED_EDGE('',*,*,#223,.F.);
#162=ORIENTED_EDGE('',*,*,#243,.T.);
#163=ORIENTED_EDGE('',*,*,#236,.T.);
#164=ORIENTED_EDGE('',*,*,#231,.F.);
#165=ORIENTED_EDGE('',*,*,#243,.F.);
#166=ORIENTED_EDGE('',*,*,#222,.F.);
#167=ORIENTED_EDGE('',*,*,#242,.T.);
#168=ORIENTED_EDGE('',*,*,#237,.T.);
#169=ORIENTED_EDGE('',*,*,#219,.F.);
#170=ORIENTED_EDGE('',*,*,#244,.T.);
#171=ORIENTED_EDGE('',*,*,#239,.T.);
#172=ORIENTED_EDGE('',*,*,#191,.F.);
#173=ORIENTED_EDGE('',*,*,#241,.T.);
#174=ORIENTED_EDGE('',*,*,#245,.F.);
#175=ORIENTED_EDGE('',*,*,#227,.F.);
#176=ORIENTED_EDGE('',*,*,#235,.F.);
#177=ORIENTED_EDGE('',*,*,#244,.F.);
#178=ORIENTED_EDGE('',*,*,#218,.F.);
#179=ORIENTED_EDGE('',*,*,#245,.T.);
#180=ORIENTED_EDGE('',*,*,#240,.T.);
#181=ORIENTED_EDGE('',*,*,#246,.T.);
#182=ORIENTED_EDGE('',*,*,#247,.F.);
#183=ORIENTED_EDGE('',*,*,#248,.T.);
#184=ORIENTED_EDGE('',*,*,#246,.F.);
#185=ORIENTED_EDGE('',*,*,#247,.T.);
#186=ORIENTED_EDGE('',*,*,#204,.F.);
#187=ORIENTED_EDGE('',*,*,#249,.F.);
#188=ORIENTED_EDGE('',*,*,#248,.F.);
#189=ORIENTED_EDGE('',*,*,#249,.T.);
#190=EDGE_CURVE('',#250,#251,#293,.T.);
#191=EDGE_CURVE('',#250,#252,#54,.T.);
#192=EDGE_CURVE('',#252,#253,#36,.F.);
#193=EDGE_CURVE('',#251,#253,#294,.T.);
#194=EDGE_CURVE('',#254,#255,#37,.F.);
#195=EDGE_CURVE('',#255,#256,#55,.F.);
#196=EDGE_CURVE('',#257,#256,#295,.T.);
#197=EDGE_CURVE('',#257,#254,#296,.T.);
#198=EDGE_CURVE('',#258,#259,#56,.T.);
#199=EDGE_CURVE('',#259,#260,#57,.T.);
#200=EDGE_CURVE('',#260,#261,#58,.T.);
#201=EDGE_CURVE('',#261,#262,#59,.T.);
#202=EDGE_CURVE('',#262,#263,#60,.T.);
#203=EDGE_CURVE('',#263,#258,#61,.T.);
#204=EDGE_CURVE('',#264,#264,#38,.T.);
#205=EDGE_CURVE('',#265,#266,#62,.T.);
#206=EDGE_CURVE('',#265,#260,#297,.T.);
#207=EDGE_CURVE('',#266,#259,#298,.T.);
#208=EDGE_CURVE('',#266,#267,#63,.T.);
#209=EDGE_CURVE('',#267,#258,#299,.T.);
#210=EDGE_CURVE('',#267,#268,#64,.T.);
#211=EDGE_CURVE('',#268,#263,#300,.T.);
#212=EDGE_CURVE('',#268,#269,#65,.T.);
#213=EDGE_CURVE('',#269,#262,#301,.T.);
#214=EDGE_CURVE('',#269,#270,#66,.T.);
#215=EDGE_CURVE('',#270,#261,#302,.T.);
#216=EDGE_CURVE('',#270,#265,#67,.T.);
#217=EDGE_CURVE('',#271,#271,#39,.T.);
#218=EDGE_CURVE('',#272,#273,#303,.T.);
#219=EDGE_CURVE('',#273,#250,#304,.T.);
#220=EDGE_CURVE('',#251,#257,#305,.T.);
#221=EDGE_CURVE('',#256,#274,#306,.T.);
#222=EDGE_CURVE('',#274,#275,#307,.T.);
#223=EDGE_CURVE('',#275,#276,#308,.T.);
#224=EDGE_CURVE('',#276,#277,#309,.T.);
#225=EDGE_CURVE('',#277,#278,#310,.T.);
#226=EDGE_CURVE('',#278,#279,#311,.T.);
#227=EDGE_CURVE('',#279,#272,#312,.T.);
#228=EDGE_CURVE('',#280,#281,#40,.F.);
#229=EDGE_CURVE('',#278,#281,#313,.T.);
#230=EDGE_CURVE('',#277,#280,#314,.T.);
#231=EDGE_CURVE('',#276,#282,#68,.T.);
#232=EDGE_CURVE('',#282,#280,#41,.F.);
#233=EDGE_CURVE('',#253,#254,#42,.F.);
#234=EDGE_CURVE('',#281,#283,#43,.F.);
#235=EDGE_CURVE('',#283,#279,#69,.F.);
#236=EDGE_CURVE('',#284,#282,#44,.F.);
#237=EDGE_CURVE('',#285,#284,#45,.F.);
#238=EDGE_CURVE('',#255,#285,#46,.F.);
#239=EDGE_CURVE('',#286,#252,#47,.F.);
#240=EDGE_CURVE('',#287,#286,#48,.F.);
#241=EDGE_CURVE('',#283,#287,#49,.F.);
#242=EDGE_CURVE('',#274,#285,#315,.T.);
#243=EDGE_CURVE('',#275,#284,#316,.T.);
#244=EDGE_CURVE('',#273,#286,#317,.T.);
#245=EDGE_CURVE('',#272,#287,#318,.T.);
#246=EDGE_CURVE('',#288,#288,#50,.T.);
#247=EDGE_CURVE('',#289,#289,#51,.T.);
#248=EDGE_CURVE('',#290,#290,#52,.F.);
#249=EDGE_CURVE('',#292,#292,#53,.T.);
#250=VERTEX_POINT('',#607);
#251=VERTEX_POINT('',#608);
#252=VERTEX_POINT('',#614);
#253=VERTEX_POINT('',#616);
#254=VERTEX_POINT('',#631);
#255=VERTEX_POINT('',#632);
#256=VERTEX_POINT('',#638);
#257=VERTEX_POINT('',#640);
#258=VERTEX_POINT('',#648);
#259=VERTEX_POINT('',#649);
#260=VERTEX_POINT('',#655);
#261=VERTEX_POINT('',#661);
#262=VERTEX_POINT('',#667);
#263=VERTEX_POINT('',#673);
#264=VERTEX_POINT('',#680);
#265=VERTEX_POINT('',#687);
#266=VERTEX_POINT('',#688);
#267=VERTEX_POINT('',#697);
#268=VERTEX_POINT('',#705);
#269=VERTEX_POINT('',#713);
#270=VERTEX_POINT('',#721);
#271=VERTEX_POINT('',#731);
#272=VERTEX_POINT('',#734);
#273=VERTEX_POINT('',#735);
#274=VERTEX_POINT('',#739);
#275=VERTEX_POINT('',#741);
#276=VERTEX_POINT('',#743);
#277=VERTEX_POINT('',#745);
#278=VERTEX_POINT('',#747);
#279=VERTEX_POINT('',#749);
#280=VERTEX_POINT('',#760);
#281=VERTEX_POINT('',#761);
#282=VERTEX_POINT('',#781);
#283=VERTEX_POINT('',#805);
#284=VERTEX_POINT('',#813);
#285=VERTEX_POINT('',#815);
#286=VERTEX_POINT('',#818);
#287=VERTEX_POINT('',#820);
#288=VERTEX_POINT('',#892);
#289=VERTEX_POINT('',#894);
#290=VERTEX_POINT('',#897);
#291=VERTEX_POINT('',#900);
#292=VERTEX_POINT('',#902);
#293=LINE('',#606,#319);
#294=LINE('',#617,#320);
#295=LINE('',#639,#321);
#296=LINE('',#641,#322);
#297=LINE('',#689,#323);
#298=LINE('',#690,#324);
#299=LINE('',#698,#325);
#300=LINE('',#706,#326);
#301=LINE('',#714,#327);
#302=LINE('',#722,#328);
#303=LINE('',#733,#329);
#304=LINE('',#736,#330);
#305=LINE('',#737,#331);
#306=LINE('',#738,#332);
#307=LINE('',#740,#333);
#308=LINE('',#742,#334);
#309=LINE('',#744,#335);
#310=LINE('',#746,#336);
#311=LINE('',#748,#337);
#312=LINE('',#750,#338);
#313=LINE('',#762,#339);
#314=LINE('',#763,#340);
#315=LINE('',#834,#341);
#316=LINE('',#847,#342);
#317=LINE('',#868,#343);
#318=LINE('',#881,#344);
#319=VECTOR('',#501,1000.);
#320=VECTOR('',#504,1000.);
#321=VECTOR('',#507,1000.);
#322=VECTOR('',#508,1000.);
#323=VECTOR('',#515,1000.);
#324=VECTOR('',#516,1000.);
#325=VECTOR('',#519,1000.);
#326=VECTOR('',#522,1000.);
#327=VECTOR('',#525,1000.);
#328=VECTOR('',#528,1000.);
#329=VECTOR('',#537,1000.);
#330=VECTOR('',#538,1000.);
#331=VECTOR('',#539,1000.);
#332=VECTOR('',#540,1000.);
#333=VECTOR('',#541,1000.);
#334=VECTOR('',#542,1000.);
#335=VECTOR('',#543,1000.);
#336=VECTOR('',#544,1000.);
#337=VECTOR('',#545,1000.);
#338=VECTOR('',#546,1000.);
#339=VECTOR('',#549,1000.);
#340=VECTOR('',#550,1000.);
#341=VECTOR('',#571,1000.);
#342=VECTOR('',#572,1000.);
#343=VECTOR('',#573,1000.);
#344=VECTOR('',#574,1000.);
#345=EDGE_LOOP('',(#70,#71,#72,#73));
#346=EDGE_LOOP('',(#74,#75,#76,#77));
#347=EDGE_LOOP('',(#78,#79,#80,#81,#82,#83));
#348=EDGE_LOOP('',(#84));
#349=EDGE_LOOP('',(#85,#86,#87,#88));
#350=EDGE_LOOP('',(#89,#90,#91,#92));
#351=EDGE_LOOP('',(#93,#94,#95,#96));
#352=EDGE_LOOP('',(#97,#98,#99,#100));
#353=EDGE_LOOP('',(#101,#102,#103,#104));
#354=EDGE_LOOP('',(#105,#106,#107,#108));
#355=EDGE_LOOP('',(#109));
#356=EDGE_LOOP('',(#110,#111,#112,#113,#114,#115));
#357=EDGE_LOOP('',(#116,#117,#118,#119,#120,#121,#122,#123,#124,#125,#126,
#127));
#358=EDGE_LOOP('',(#128));
#359=EDGE_LOOP('',(#129,#130,#131,#132));
#360=EDGE_LOOP('',(#133,#134,#135,#136));
#361=EDGE_LOOP('',(#137,#138,#139,#140));
#362=EDGE_LOOP('',(#141,#142,#143,#144));
#363=EDGE_LOOP('',(#145,#146,#147,#148,#149,#150,#151,#152,#153,#154,#155,
#156));
#364=EDGE_LOOP('',(#157,#158,#159,#160));
#365=EDGE_LOOP('',(#161,#162,#163,#164));
#366=EDGE_LOOP('',(#165,#166,#167,#168));
#367=EDGE_LOOP('',(#169,#170,#171,#172));
#368=EDGE_LOOP('',(#173,#174,#175,#176));
#369=EDGE_LOOP('',(#177,#178,#179,#180));
#370=EDGE_LOOP('',(#181));
#371=EDGE_LOOP('',(#182));
#372=EDGE_LOOP('',(#183));
#373=EDGE_LOOP('',(#184));
#374=EDGE_LOOP('',(#185));
#375=EDGE_LOOP('',(#186));
#376=EDGE_LOOP('',(#187));
#377=EDGE_LOOP('',(#188));
#378=EDGE_LOOP('',(#189));
#379=FACE_BOUND('',#345,.T.);
#380=FACE_BOUND('',#346,.T.);
#381=FACE_BOUND('',#347,.T.);
#382=FACE_BOUND('',#348,.T.);
#383=FACE_BOUND('',#349,.T.);
#384=FACE_BOUND('',#350,.T.);
#385=FACE_BOUND('',#351,.T.);
#386=FACE_BOUND('',#352,.T.);
#387=FACE_BOUND('',#353,.T.);
#388=FACE_BOUND('',#354,.T.);
#389=FACE_BOUND('',#355,.T.);
#390=FACE_BOUND('',#356,.T.);
#391=FACE_BOUND('',#357,.T.);
#392=FACE_BOUND('',#358,.T.);
#393=FACE_BOUND('',#359,.T.);
#394=FACE_BOUND('',#360,.T.);
#395=FACE_BOUND('',#361,.T.);
#396=FACE_BOUND('',#362,.T.);
#397=FACE_BOUND('',#363,.T.);
#398=FACE_BOUND('',#364,.T.);
#399=FACE_BOUND('',#365,.T.);
#400=FACE_BOUND('',#366,.T.);
#401=FACE_BOUND('',#367,.T.);
#402=FACE_BOUND('',#368,.T.);
#403=FACE_BOUND('',#369,.T.);
#404=FACE_BOUND('',#370,.T.);
#405=FACE_BOUND('',#371,.T.);
#406=FACE_BOUND('',#372,.T.);
#407=FACE_BOUND('',#373,.T.);
#408=FACE_BOUND('',#374,.T.);
#409=FACE_BOUND('',#375,.T.);
#410=FACE_BOUND('',#20,.T.);
#411=FACE_BOUND('',#376,.T.);
#412=FACE_BOUND('',#377,.T.);
#413=FACE_BOUND('',#378,.T.);
#414=B_SPLINE_SURFACE_WITH_KNOTS('',3,1,((#594,#595),(#596,#597),(#598,
#599),(#600,#601),(#602,#603),(#604,#605)),.RULED_SURF.,.F.,.F.,.F.,(4,
2,4),(2,2),(0.62275,0.75,1.),(0.,1.),.UNSPECIFIED.);
#415=B_SPLINE_SURFACE_WITH_KNOTS('',3,1,((#618,#619),(#620,#621),(#622,
#623),(#624,#625),(#626,#627),(#628,#629)),.RULED_SURF.,.F.,.F.,.F.,(4,
2,4),(2,2),(0.,0.25,0.37725),(0.,1.),.UNSPECIFIED.);
#416=B_SPLINE_SURFACE_WITH_KNOTS('',3,1,((#751,#752),(#753,#754),(#755,
#756),(#757,#758)),.RULED_SURF.,.F.,.F.,.F.,(4,4),(2,2),(0.,1.),(0.,1.),
 .PIECEWISE_BEZIER_KNOTS.);
#417=B_SPLINE_SURFACE_WITH_KNOTS('',3,1,((#764,#765),(#766,#767),(#768,
#769),(#770,#771),(#772,#773),(#774,#775)),.RULED_SURF.,.F.,.F.,.F.,(4,
2,4),(2,2),(0.62275,0.75,1.),(0.,1.),.UNSPECIFIED.);
#418=B_SPLINE_SURFACE_WITH_KNOTS('',3,1,((#783,#784),(#785,#786),(#787,
#788),(#789,#790)),.RULED_SURF.,.F.,.F.,.F.,(4,4),(2,2),(0.,1.),(0.,1.),
 .PIECEWISE_BEZIER_KNOTS.);
#419=B_SPLINE_SURFACE_WITH_KNOTS('',3,1,((#792,#793),(#794,#795),(#796,
#797),(#798,#799),(#800,#801),(#802,#803)),.RULED_SURF.,.F.,.F.,.F.,(4,
2,4),(2,2),(0.,0.25,0.37725),(0.,1.),.UNSPECIFIED.);
#420=B_SPLINE_SURFACE_WITH_KNOTS('',3,1,((#822,#823),(#824,#825),(#826,
#827),(#828,#829),(#830,#831),(#832,#833)),.RULED_SURF.,.F.,.F.,.F.,(4,
2,4),(2,2),(0.62275,0.75,1.),(0.,1.),.UNSPECIFIED.);
#421=B_SPLINE_SURFACE_WITH_KNOTS('',3,1,((#835,#836),(#837,#838),(#839,
#840),(#841,#842),(#843,#844),(#845,#846)),.RULED_SURF.,.F.,.F.,.F.,(4,
2,4),(2,2),(0.,0.25,0.37725),(0.,1.),.UNSPECIFIED.);
#422=B_SPLINE_SURFACE_WITH_KNOTS('',3,1,((#848,#849),(#850,#851),(#852,
#853),(#854,#855)),.RULED_SURF.,.F.,.F.,.F.,(4,4),(2,2),(0.,1.),(0.,1.),
 .PIECEWISE_BEZIER_KNOTS.);
#423=B_SPLINE_SURFACE_WITH_KNOTS('',3,1,((#856,#857),(#858,#859),(#860,
#861),(#862,#863),(#864,#865),(#866,#867)),.RULED_SURF.,.F.,.F.,.F.,(4,
2,4),(2,2),(0.,0.25,0.37725),(0.,1.),.UNSPECIFIED.);
#424=B_SPLINE_SURFACE_WITH_KNOTS('',3,1,((#869,#870),(#871,#872),(#873,
#874),(#875,#876),(#877,#878),(#879,#880)),.RULED_SURF.,.F.,.F.,.F.,(4,
2,4),(2,2),(0.62275,0.75,1.),(0.,1.),.UNSPECIFIED.);
#425=B_SPLINE_SURFACE_WITH_KNOTS('',3,1,((#882,#883),(#884,#885),(#886,
#887),(#888,#889)),.RULED_SURF.,.F.,.F.,.F.,(4,4),(2,2),(0.,1.),(0.,1.),
 .PIECEWISE_BEZIER_KNOTS.);
#426=ADVANCED_FACE('',(#379),#414,.F.);
#427=ADVANCED_FACE('',(#380),#415,.F.);
#428=ADVANCED_FACE('',(#381,#382),#33,.T.);
#429=ADVANCED_FACE('',(#383),#23,.T.);
#430=ADVANCED_FACE('',(#384),#24,.T.);
#431=ADVANCED_FACE('',(#385),#25,.T.);
#432=ADVANCED_FACE('',(#386),#26,.T.);
#433=ADVANCED_FACE('',(#387),#27,.T.);
#434=ADVANCED_FACE('',(#388),#28,.T.);
#435=ADVANCED_FACE('',(#389,#390),#34,.T.);
#436=ADVANCED_FACE('',(#391,#392),#29,.F.);
#437=ADVANCED_FACE('',(#393),#416,.F.);
#438=ADVANCED_FACE('',(#394),#417,.F.);
#439=ADVANCED_FACE('',(#395),#418,.F.);
#440=ADVANCED_FACE('',(#396),#419,.F.);
#441=ADVANCED_FACE('',(#397),#30,.T.);
#442=ADVANCED_FACE('',(#398),#420,.F.);
#443=ADVANCED_FACE('',(#399),#421,.F.);
#444=ADVANCED_FACE('',(#400),#422,.F.);
#445=ADVANCED_FACE('',(#401),#423,.F.);
#446=ADVANCED_FACE('',(#402),#424,.F.);
#447=ADVANCED_FACE('',(#403),#425,.F.);
#448=ADVANCED_FACE('',(#404,#405),#21,.T.);
#449=ADVANCED_FACE('',(#406,#407),#31,.T.);
#450=ADVANCED_FACE('',(#408,#409),#32,.T.);
#451=ADVANCED_FACE('',(#410,#411),#35,.T.);
#452=ADVANCED_FACE('',(#412,#413),#22,.T.);
#453=CLOSED_SHELL('',(#426,#427,#428,#429,#430,#431,#432,#433,#434,#435,
#436,#437,#438,#439,#440,#441,#442,#443,#444,#445,#446,#447,#448,#449,#450,
#451,#452));
#454=STYLED_ITEM('',(#455),#462);
#455=PRESENTATION_STYLE_ASSIGNMENT((#456));
#456=SURFACE_STYLE_USAGE(.BOTH.,#457);
#457=SURFACE_SIDE_STYLE('',(#458));
#458=SURFACE_STYLE_FILL_AREA(#459);
#459=FILL_AREA_STYLE('',(#460));
#460=FILL_AREA_STYLE_COLOUR('',#461);
#461=COLOUR_RGB('',0.506983280181885,0.531564235687256,0.550000011920929);
#462=MANIFOLD_SOLID_BREP('',#453);
#463=SHAPE_DEFINITION_REPRESENTATION(#910,#464);
#464=SHAPE_REPRESENTATION(
'\X2\53415B5769FD51F97A74516D89D2593481EA653B87BA9489548C592757AB57087EC454084EF6\X0\ 
GBT9074.21-1988',(#465),#905);
#465=AXIS2_PLACEMENT_3D('',#593,#499,#500);
#466=AXIS2_PLACEMENT_3D('',#615,#502,#503);
#467=AXIS2_PLACEMENT_3D('',#630,#505,#506);
#468=AXIS2_PLACEMENT_3D('',#642,#509,#510);
#469=AXIS2_PLACEMENT_3D('',#679,#511,#512);
#470=AXIS2_PLACEMENT_3D('',#681,#513,#514);
#471=AXIS2_PLACEMENT_3D('',#691,#517,#518);
#472=AXIS2_PLACEMENT_3D('',#699,#520,#521);
#473=AXIS2_PLACEMENT_3D('',#707,#523,#524);
#474=AXIS2_PLACEMENT_3D('',#715,#526,#527);
#475=AXIS2_PLACEMENT_3D('',#723,#529,#530);
#476=AXIS2_PLACEMENT_3D('',#729,#531,#532);
#477=AXIS2_PLACEMENT_3D('',#730,#533,#534);
#478=AXIS2_PLACEMENT_3D('',#732,#535,#536);
#479=AXIS2_PLACEMENT_3D('',#759,#547,#548);
#480=AXIS2_PLACEMENT_3D('',#782,#551,#552);
#481=AXIS2_PLACEMENT_3D('',#791,#553,#554);
#482=AXIS2_PLACEMENT_3D('',#804,#555,#556);
#483=AXIS2_PLACEMENT_3D('',#811,#557,#558);
#484=AXIS2_PLACEMENT_3D('',#812,#559,#560);
#485=AXIS2_PLACEMENT_3D('',#814,#561,#562);
#486=AXIS2_PLACEMENT_3D('',#816,#563,#564);
#487=AXIS2_PLACEMENT_3D('',#817,#565,#566);
#488=AXIS2_PLACEMENT_3D('',#819,#567,#568);
#489=AXIS2_PLACEMENT_3D('',#821,#569,#570);
#490=AXIS2_PLACEMENT_3D('',#890,#575,#576);
#491=AXIS2_PLACEMENT_3D('',#891,#577,#578);
#492=AXIS2_PLACEMENT_3D('',#893,#579,#580);
#493=AXIS2_PLACEMENT_3D('',#895,#581,#582);
#494=AXIS2_PLACEMENT_3D('',#896,#583,#584);
#495=AXIS2_PLACEMENT_3D('',#898,#585,#586);
#496=AXIS2_PLACEMENT_3D('',#899,#587,#588);
#497=AXIS2_PLACEMENT_3D('',#901,#589,#590);
#498=AXIS2_PLACEMENT_3D('',#903,#591,#592);
#499=DIRECTION('',(0.,0.,1.));
#500=DIRECTION('',(1.,0.,0.));
#501=DIRECTION('',(7.58697639573585E-33,1.23908819712629E-16,-1.));
#502=DIRECTION('',(-1.,6.12303176911189E-17,0.));
#503=DIRECTION('',(6.12303176911189E-17,1.,0.));
#504=DIRECTION('',(0.834781442796863,0.109912720670426,0.539498968114688));
#505=DIRECTION('',(-1.,6.12303176911189E-17,0.));
#506=DIRECTION('',(6.12303176911189E-17,1.,0.));
#507=DIRECTION('',(0.,0.,1.));
#508=DIRECTION('',(0.83579738790227,-0.133161274704495,0.532645098817981));
#509=DIRECTION('',(-1.,0.,0.));
#510=DIRECTION('',(0.,0.,1.));
#511=DIRECTION('',(-1.,0.,0.));
#512=DIRECTION('',(0.,0.,1.));
#513=DIRECTION('',(0.,-0.500000060363713,0.86602536893343));
#514=DIRECTION('',(0.,-0.86602536893343,-0.500000060363713));
#515=DIRECTION('',(1.,0.,0.));
#516=DIRECTION('',(1.,0.,0.));
#517=DIRECTION('',(0.,0.499999999999983,0.866025403784448));
#518=DIRECTION('',(0.,-0.866025403784448,0.499999999999983));
#519=DIRECTION('',(1.,0.,0.));
#520=DIRECTION('',(0.,1.,1.46134255883209E-14));
#521=DIRECTION('',(0.,-1.46134255883209E-14,1.));
#522=DIRECTION('',(1.,0.,0.));
#523=DIRECTION('',(0.,0.500000000000016,-0.866025403784429));
#524=DIRECTION('',(0.,0.866025403784429,0.500000000000016));
#525=DIRECTION('',(1.,0.,0.));
#526=DIRECTION('',(0.,-0.500000000000013,-0.866025403784431));
#527=DIRECTION('',(0.,0.866025403784431,-0.500000000000013));
#528=DIRECTION('',(1.,0.,0.));
#529=DIRECTION('',(0.,-0.999999999999998,6.97019785326465E-8));
#530=DIRECTION('',(0.,-6.97019785326465E-8,-0.999999999999998));
#531=DIRECTION('',(1.,0.,0.));
#532=DIRECTION('',(0.,0.,-1.));
#533=DIRECTION('',(-1.,0.,0.));
#534=DIRECTION('',(0.,0.,1.));
#535=DIRECTION('',(1.,-6.12303176911189E-17,-8.48339940708392E-40));
#536=DIRECTION('',(6.12303176911189E-17,1.,0.));
#537=DIRECTION('',(0.,0.,-1.));
#538=DIRECTION('',(6.12303176911189E-17,1.,0.));
#539=DIRECTION('',(6.12303176911189E-17,1.,0.));
#540=DIRECTION('',(6.12303176911189E-17,1.,0.));
#541=DIRECTION('',(0.,0.,1.));
#542=DIRECTION('',(-6.12303176911189E-17,-1.,-1.23908819712629E-16));
#543=DIRECTION('',(0.,0.,1.));
#544=DIRECTION('',(-6.12303176911189E-17,-1.,0.));
#545=DIRECTION('',(7.58697639573585E-33,1.23908819712629E-16,-1.));
#546=DIRECTION('',(-6.12303176911189E-17,-1.,-1.23908819712629E-16));
#547=DIRECTION('',(-1.,6.12303176911189E-17,0.));
#548=DIRECTION('',(6.12303176911189E-17,1.,0.));
#549=DIRECTION('',(0.835797387902269,0.133161274704495,-0.532645098817982));
#550=DIRECTION('',(0.834781442796863,-0.109912720670426,-0.539498968114688));
#551=DIRECTION('',(-1.,6.12303176911189E-17,0.));
#552=DIRECTION('',(6.12303176911189E-17,1.,0.));
#553=DIRECTION('',(-1.,6.12303176911189E-17,0.));
#554=DIRECTION('',(6.12303176911189E-17,1.,0.));
#555=DIRECTION('',(-1.,6.12303176911189E-17,0.));
#556=DIRECTION('',(6.12303176911189E-17,1.,0.));
#557=DIRECTION('',(-1.,6.12303176911189E-17,0.));
#558=DIRECTION('',(-6.12303176911189E-17,-1.,0.));
#559=DIRECTION('',(-1.,6.12303176911189E-17,0.));
#560=DIRECTION('',(6.12303176911189E-17,1.,0.));
#561=DIRECTION('',(-1.,6.12303176911189E-17,0.));
#562=DIRECTION('',(6.12303176911189E-17,1.,0.));
#563=DIRECTION('',(-1.,6.12303176911189E-17,0.));
#564=DIRECTION('',(6.12303176911189E-17,1.,0.));
#565=DIRECTION('',(-1.,6.12303176911189E-17,0.));
#566=DIRECTION('',(6.12303176911189E-17,1.,0.));
#567=DIRECTION('',(-1.,6.12303176911189E-17,0.));
#568=DIRECTION('',(6.12303176911189E-17,1.,0.));
#569=DIRECTION('',(-1.,6.12303176911189E-17,0.));
#570=DIRECTION('',(6.12303176911189E-17,1.,0.));
#571=DIRECTION('',(0.835797387902269,-0.532645098817982,0.133161274704495));
#572=DIRECTION('',(0.834781442796863,-0.539498968114688,-0.109912720670426));
#573=DIRECTION('',(0.834781442796863,0.539498968114688,0.109912720670426));
#574=DIRECTION('',(0.83579738790227,0.532645098817981,-0.133161274704495));
#575=DIRECTION('',(-1.,0.,0.));
#576=DIRECTION('',(0.,0.,1.));
#577=DIRECTION('',(-1.,0.,0.));
#578=DIRECTION('',(0.,0.,1.));
#579=DIRECTION('',(-1.,0.,0.));
#580=DIRECTION('',(0.,0.,1.));
#581=DIRECTION('',(1.,0.,0.));
#582=DIRECTION('',(0.,0.,-1.));
#583=DIRECTION('',(1.,0.,0.));
#584=DIRECTION('',(0.,0.,-1.));
#585=DIRECTION('',(-1.,0.,0.));
#586=DIRECTION('',(0.,0.,1.));
#587=DIRECTION('',(-1.,0.,0.));
#588=DIRECTION('',(0.,0.,1.));
#589=DIRECTION('',(-1.,0.,0.));
#590=DIRECTION('',(0.,0.,1.));
#591=DIRECTION('',(-1.,0.,0.));
#592=DIRECTION('',(0.,0.,1.));
#593=CARTESIAN_POINT('',(0.,0.,0.));
#594=CARTESIAN_POINT('',(-2.6,-0.4375,-0.429625));
#595=CARTESIAN_POINT('',(-0.52,-0.424859514758929,-0.103664953008635));
#596=CARTESIAN_POINT('',(-2.6,-0.4375,-0.578083333333333));
#597=CARTESIAN_POINT('',(-0.52,-0.413800530462164,-0.148970520708215));
#598=CARTESIAN_POINT('',(-2.6,-0.4375,-0.726541666666666));
#599=CARTESIAN_POINT('',(-0.52,-0.395614530087865,-0.192537378780589));
#600=CARTESIAN_POINT('',(-2.6,-0.4375,-1.16666666666667));
#601=CARTESIAN_POINT('',(-0.52,-0.322268779992221,-0.309750062268269));
#602=CARTESIAN_POINT('',(-2.6,-0.4375,-1.45833333333333));
#603=CARTESIAN_POINT('',(-0.52,-0.248712137506751,-0.371435216216378));
#604=CARTESIAN_POINT('',(-2.6,-0.4375,-1.75));
#605=CARTESIAN_POINT('',(-0.52,-0.163633755167676,-0.405746526996504));
#606=CARTESIAN_POINT('',(-2.6,-0.4375,1.75));
#607=CARTESIAN_POINT('',(-2.6,-0.4375,-0.4375));
#608=CARTESIAN_POINT('',(-2.6,-0.4375,-1.75));
#609=CARTESIAN_POINT('',(-2.6,-0.4375,-0.4375));
#610=CARTESIAN_POINT('',(-2.25069048471381,-0.435277553037973,-0.435277553037973));
#611=CARTESIAN_POINT('',(-1.55403051758868,-0.425951498147805,-0.425951498147761));
#612=CARTESIAN_POINT('',(-0.851150314575296,-0.389546636163655,-0.389546636163742));
#613=CARTESIAN_POINT('',(-0.520749633265983,-0.309442727571035,-0.309442727571035));
#614=CARTESIAN_POINT('',(-0.52,-0.309312279181021,-0.309311893608006));
#615=CARTESIAN_POINT('',(-0.52,0.,0.));
#616=CARTESIAN_POINT('',(-0.52,-0.163633755167676,-0.405746526996504));
#617=CARTESIAN_POINT('',(-1.56,-0.300566877583838,-1.07787326349825));
#618=CARTESIAN_POINT('',(-2.6,0.4375,-1.75));
#619=CARTESIAN_POINT('',(-0.52,0.106109335953395,-0.424437343813583));
#620=CARTESIAN_POINT('',(-2.6,0.4375,-1.45833333333333));
#621=CARTESIAN_POINT('',(-0.52,0.195106875583018,-0.402187958906177));
#622=CARTESIAN_POINT('',(-2.6,0.4375,-1.16666666666667));
#623=CARTESIAN_POINT('',(-0.52,0.276468189610758,-0.351237252816698));
#624=CARTESIAN_POINT('',(-2.6,0.4375,-0.726541666666666));
#625=CARTESIAN_POINT('',(-0.52,0.365278992789427,-0.245260588091695));
#626=CARTESIAN_POINT('',(-2.6,0.4375,-0.578083333333333));
#627=CARTESIAN_POINT('',(-0.52,0.389299944222466,-0.204618299473017));
#628=CARTESIAN_POINT('',(-2.6,0.4375,-0.429625));
#629=CARTESIAN_POINT('',(-0.52,0.406501793104058,-0.161270958224536));
#630=CARTESIAN_POINT('',(-0.52,0.,0.));
#631=CARTESIAN_POINT('',(-0.52,0.106109335953395,-0.424437343813583));
#632=CARTESIAN_POINT('',(-0.520005096644693,0.309358515660343,-0.309359170496061));
#633=CARTESIAN_POINT('',(-2.6,0.4375,-0.4375));
#634=CARTESIAN_POINT('',(-2.25138295881743,0.43215055980669,-0.43215055980669));
#635=CARTESIAN_POINT('',(-1.55522921906167,0.415836733344203,-0.41583673332512));
#636=CARTESIAN_POINT('',(-0.857093573672323,0.375424945178558,-0.375424945216723));
#637=CARTESIAN_POINT('',(-0.521079178575773,0.309544553127967,-0.309544553127546));
#638=CARTESIAN_POINT('',(-2.6,0.4375,-0.4375));
#639=CARTESIAN_POINT('',(-2.6,0.4375,-1.75));
#640=CARTESIAN_POINT('',(-2.6,0.4375,-1.75));
#641=CARTESIAN_POINT('',(-1.56,0.271804667976698,-1.08721867190679));
#642=CARTESIAN_POINT('',(-4.6663761839894E-17,0.,0.));
#643=CARTESIAN_POINT('',(-0.254034118442174,2.7500003320005,1.58771292080387));
#644=CARTESIAN_POINT('',(-0.104360045972957,2.30097822301143,1.84695595630079));
#645=CARTESIAN_POINT('',(0.0874370726897715,1.37997080797377,2.3786998352984));
#646=CARTESIAN_POINT('',(-0.104173509016645,0.449581328857277,2.91586045151748));
#647=CARTESIAN_POINT('',(-0.254034048031772,-2.31434337966903E-7,3.17542648637453));
#648=CARTESIAN_POINT('',(-0.254034118443435,2.75000033200034,1.58771292080396));
#649=CARTESIAN_POINT('',(-0.254034118443435,-2.21333644120913E-7,3.17542648054289));
#650=CARTESIAN_POINT('',(-0.254034047602397,-2.12519146267815E-7,3.17542648563194));
#651=CARTESIAN_POINT('',(-0.104360027584921,-0.449022252342962,2.91618344833727));
#652=CARTESIAN_POINT('',(0.087436980381223,-1.37002952057122,2.38443956850533));
#653=CARTESIAN_POINT('',(-0.104173597729163,-2.3004188422287,1.84727895672855));
#654=CARTESIAN_POINT('',(-0.254034118442795,-2.75000033200049,1.58771292080382));
#655=CARTESIAN_POINT('',(-0.254034118443435,-2.75000033200039,1.58771292080387));
#656=CARTESIAN_POINT('',(-0.254033907883742,-2.74999988933316,1.58771295812597));
#657=CARTESIAN_POINT('',(-0.104749558709989,-2.74999992537858,1.07057668729051));
#658=CARTESIAN_POINT('',(0.0879712322280944,-2.74999999992409,0.00108763499343976));
#659=CARTESIAN_POINT('',(-0.104848800135594,-2.75000007464516,-1.07092026445142));
#660=CARTESIAN_POINT('',(-0.254034118443284,-2.75000011066666,-1.58771330416487));
#661=CARTESIAN_POINT('',(-0.254034118443435,-2.75000011066687,-1.58771330416485));
#662=CARTESIAN_POINT('',(-0.254034118442171,-2.75000011066702,-1.58771330416476));
#663=CARTESIAN_POINT('',(-0.104360123443882,-2.30097812567222,-1.84695626807357));
#664=CARTESIAN_POINT('',(0.0874368804823737,-1.37997098414366,-2.37869998916068));
#665=CARTESIAN_POINT('',(-0.104173558455837,-0.449581757660504,-2.91586045952187));
#666=CARTESIAN_POINT('',(-0.254034012826311,-3.16849324709004E-7,-3.17542642539688));
#667=CARTESIAN_POINT('',(-0.254034118443435,-4.42667079207648E-7,-3.17542660832992));
#668=CARTESIAN_POINT('',(-0.254034118442174,-4.42667236071638E-7,-3.17542660833001));
#669=CARTESIAN_POINT('',(-0.104360051833248,0.449021648740968,-2.91618358298338));
#670=CARTESIAN_POINT('',(0.0874370649898642,1.37002902489763,-2.38443972643368));
#671=CARTESIAN_POINT('',(-0.104173487918079,2.3004184712802,-1.84727912911349));
#672=CARTESIAN_POINT('',(-0.254034012826288,2.750000015151,-1.58771310373699));
#673=CARTESIAN_POINT('',(-0.254034118443435,2.75000011066681,-1.58771330416494));
#674=CARTESIAN_POINT('',(-0.254034118443413,2.75000011066681,-1.58771330416495));
#675=CARTESIAN_POINT('',(-0.10474973810559,2.7500001106668,-1.07057704112186));
#676=CARTESIAN_POINT('',(0.0879711627937445,2.75000011066679,-0.00108804946695506));
#677=CARTESIAN_POINT('',(-0.104848737668351,2.75000011066677,1.07091989688108));
#678=CARTESIAN_POINT('',(-0.254034013453152,2.75000011066676,1.58771294046817));
#679=CARTESIAN_POINT('',(-4.6663761839894E-17,0.,0.));
#680=CARTESIAN_POINT('',(-4.6663761839894E-17,0.,2.73542660832995));
#681=CARTESIAN_POINT('',(-2.6,-2.21333644337754E-7,3.17542648054289));
#682=CARTESIAN_POINT('',(-2.34596602323736,-2.74999990696198,1.58771316619995));
#683=CARTESIAN_POINT('',(-2.49564001559856,-2.30097789805653,1.8469561856439));
#684=CARTESIAN_POINT('',(-2.68743696518948,-1.37997069902743,2.37870002552368));
#685=CARTESIAN_POINT('',(-2.49582638979699,-0.449581452350144,2.91586059401062));
#686=CARTESIAN_POINT('',(-2.34596588155721,9.09818437288913E-14,3.17542660833));
#687=CARTESIAN_POINT('',(-2.34596588155656,-2.74999988933315,1.58771317637797));
#688=CARTESIAN_POINT('',(-2.34596588155656,0.,3.17542660832995));
#689=CARTESIAN_POINT('',(-2.6,-2.74999988933315,1.58771317637797));
#690=CARTESIAN_POINT('',(-2.6,-2.21333644120913E-7,3.17542648054289));
#691=CARTESIAN_POINT('',(-2.6,2.75000011066676,1.58771304859096));
#692=CARTESIAN_POINT('',(-2.34596598781749,-1.23888502981355E-7,3.17542642428291));
#693=CARTESIAN_POINT('',(-2.49564002930852,0.449021970241707,2.91618339736476));
#694=CARTESIAN_POINT('',(-2.68743706541904,1.37002936527581,2.38443952991621));
#695=CARTESIAN_POINT('',(-2.49582643105416,2.30041879206323,1.84727894390933));
#696=CARTESIAN_POINT('',(-2.34596588155721,2.75000033200043,1.58771292080391));
#697=CARTESIAN_POINT('',(-2.34596588155656,2.75000033200034,1.58771292080396));
#698=CARTESIAN_POINT('',(-2.6,2.75000011066676,1.58771304859096));
#699=CARTESIAN_POINT('',(-2.6,2.75000011066681,-1.58771304859091));
#700=CARTESIAN_POINT('',(-2.3459659868364,2.75000011066676,1.58771293946502));
#701=CARTESIAN_POINT('',(-2.49525034267135,2.75000011066677,1.07057667221218));
#702=CARTESIAN_POINT('',(-2.68797116283453,2.75000011066679,0.00108765220238399));
#703=CARTESIAN_POINT('',(-2.49515118162048,2.7500001106668,-1.07092026525893));
#704=CARTESIAN_POINT('',(-2.34596588155662,2.75000011066681,-1.58771330416495));
#705=CARTESIAN_POINT('',(-2.34596588155656,2.75000011066681,-1.58771330416494));
#706=CARTESIAN_POINT('',(-2.6,2.75000011066681,-1.58771304859091));
#707=CARTESIAN_POINT('',(-2.6,-2.21333540107408E-7,-3.17542648054294));
#708=CARTESIAN_POINT('',(-2.34596598781746,2.75000001322168,-1.58771310485088));
#709=CARTESIAN_POINT('',(-2.4956400293085,2.30097791909148,-1.84695613176905));
#710=CARTESIAN_POINT('',(-2.68743706541901,1.37997052405742,-2.37869999921763));
#711=CARTESIAN_POINT('',(-2.49582643105415,0.44958109727002,-2.91586058522454));
#712=CARTESIAN_POINT('',(-2.34596588155721,-4.42667171448938E-7,-3.17542660832997));
#713=CARTESIAN_POINT('',(-2.34596588155656,-4.42667079207648E-7,-3.17542660832992));
#714=CARTESIAN_POINT('',(-2.6,-2.21333540037505E-7,-3.17542648054294));
#715=CARTESIAN_POINT('',(-2.6,-2.75000011066666,-1.58771330416497));
#716=CARTESIAN_POINT('',(-2.34596598781744,-3.18778650732504E-7,-3.17542642428298));
#717=CARTESIAN_POINT('',(-2.49563995850739,-0.449022308924105,-2.91618345740043));
#718=CARTESIAN_POINT('',(-2.68743688083344,-1.37002946530788,-2.38443972773666));
#719=CARTESIAN_POINT('',(-2.4958263598639,-2.30041867574692,-1.84727926663854));
#720=CARTESIAN_POINT('',(-2.34596588155721,-2.75000011066696,-1.58771330416479));
#721=CARTESIAN_POINT('',(-2.34596588155656,-2.75000011066687,-1.58771330416485));
#722=CARTESIAN_POINT('',(-2.6,-2.75000011066666,-1.58771330416497));
#723=CARTESIAN_POINT('',(-2.6,-2.74999988933315,1.58771317637797));
#724=CARTESIAN_POINT('',(-2.34596588155669,-2.75000011066666,-1.58771330416487));
#725=CARTESIAN_POINT('',(-2.49525029102195,-2.75000007462123,-1.07057700265386));
#726=CARTESIAN_POINT('',(-2.68797124753218,-2.75000000007573,-0.00108790395394792));
#727=CARTESIAN_POINT('',(-2.49515131928048,-2.74999992535465,1.07092011576138));
#728=CARTESIAN_POINT('',(-2.34596602154362,-2.74999988933315,1.5877132025969));
#729=CARTESIAN_POINT('',(-2.34596588155656,0.,0.));
#730=CARTESIAN_POINT('',(-2.6,0.,0.));
#731=CARTESIAN_POINT('',(-2.6,0.,2.73542660832995));
#732=CARTESIAN_POINT('',(-2.6,-8.24723768744399E-56,-1.14264655069543E-78));
#733=CARTESIAN_POINT('',(-2.6,-1.75,0.4375));
#734=CARTESIAN_POINT('',(-2.6,-1.75,0.4375));
#735=CARTESIAN_POINT('',(-2.6,-1.75,-0.4375));
#736=CARTESIAN_POINT('',(-2.6,-1.75,-0.4375));
#737=CARTESIAN_POINT('',(-2.6,-0.4375,-1.75));
#738=CARTESIAN_POINT('',(-2.6,-1.75,-0.4375));
#739=CARTESIAN_POINT('',(-2.6,1.75,-0.4375));
#740=CARTESIAN_POINT('',(-2.6,1.75,-0.4375));
#741=CARTESIAN_POINT('',(-2.6,1.75,0.4375));
#742=CARTESIAN_POINT('',(-2.6,1.75,0.4375));
#743=CARTESIAN_POINT('',(-2.6,0.4375,0.4375));
#744=CARTESIAN_POINT('',(-2.6,0.4375,-1.75));
#745=CARTESIAN_POINT('',(-2.6,0.4375,1.75));
#746=CARTESIAN_POINT('',(-2.6,0.4375,1.75));
#747=CARTESIAN_POINT('',(-2.6,-0.4375,1.75));
#748=CARTESIAN_POINT('',(-2.6,-0.4375,1.75));
#749=CARTESIAN_POINT('',(-2.6,-0.4375,0.4375));
#750=CARTESIAN_POINT('',(-2.6,1.75,0.4375));
#751=CARTESIAN_POINT('',(-2.6,0.4375,1.75));
#752=CARTESIAN_POINT('',(-0.52,0.163633755167676,0.405746526996504));
#753=CARTESIAN_POINT('',(-2.6,0.145833333333333,1.75));
#754=CARTESIAN_POINT('',(-0.52,0.0784020261480564,0.440119681049489));
#755=CARTESIAN_POINT('',(-2.6,-0.145833333333333,1.75));
#756=CARTESIAN_POINT('',(-0.52,-0.0169513856894421,0.446726831379571));
#757=CARTESIAN_POINT('',(-2.6,-0.4375,1.75));
#758=CARTESIAN_POINT('',(-0.52,-0.106109335953396,0.424437343813583));
#759=CARTESIAN_POINT('',(-0.52,0.,0.));
#760=CARTESIAN_POINT('',(-0.52,0.163633755167676,0.405746526996504));
#761=CARTESIAN_POINT('',(-0.52,-0.106109335953396,0.424437343813583));
#762=CARTESIAN_POINT('',(-1.56,-0.271804667976698,1.08721867190679));
#763=CARTESIAN_POINT('',(-1.56,0.300566877583838,1.07787326349825));
#764=CARTESIAN_POINT('',(-2.6,0.4375,0.429625));
#765=CARTESIAN_POINT('',(-0.52,0.424859514758929,0.103664953008634));
#766=CARTESIAN_POINT('',(-2.6,0.4375,0.578083333333334));
#767=CARTESIAN_POINT('',(-0.52,0.413800530462164,0.148970520708214));
#768=CARTESIAN_POINT('',(-2.6,0.4375,0.726541666666667));
#769=CARTESIAN_POINT('',(-0.52,0.395614530087865,0.192537378780589));
#770=CARTESIAN_POINT('',(-2.6,0.4375,1.16666666666667));
#771=CARTESIAN_POINT('',(-0.52,0.322268779992221,0.309750062268269));
#772=CARTESIAN_POINT('',(-2.6,0.4375,1.45833333333333));
#773=CARTESIAN_POINT('',(-0.52,0.248712137506751,0.371435216216378));
#774=CARTESIAN_POINT('',(-2.6,0.4375,1.75));
#775=CARTESIAN_POINT('',(-0.52,0.163633755167676,0.405746526996504));
#776=CARTESIAN_POINT('',(-2.6,0.4375,0.4375));
#777=CARTESIAN_POINT('',(-2.25069048471381,0.435277553037973,0.435277553037973));
#778=CARTESIAN_POINT('',(-1.55403051758868,0.425951498148109,0.425951498147456));
#779=CARTESIAN_POINT('',(-0.851150314575295,0.389546636163046,0.389546636164351));
#780=CARTESIAN_POINT('',(-0.520749633265982,0.309442727571034,0.309442727571034));
#781=CARTESIAN_POINT('',(-0.52,0.309322895990889,0.309323398204381));
#782=CARTESIAN_POINT('',(-0.52,0.,0.));
#783=CARTESIAN_POINT('',(-2.6,-0.4375,-1.75));
#784=CARTESIAN_POINT('',(-0.52,-0.163633755167676,-0.405746526996504));
#785=CARTESIAN_POINT('',(-2.6,-0.145833333333333,-1.75));
#786=CARTESIAN_POINT('',(-0.52,-0.0784020261480572,-0.440119681049488));
#787=CARTESIAN_POINT('',(-2.6,0.145833333333333,-1.75));
#788=CARTESIAN_POINT('',(-0.52,0.0169513856894417,-0.446726831379571));
#789=CARTESIAN_POINT('',(-2.6,0.4375,-1.75));
#790=CARTESIAN_POINT('',(-0.52,0.106109335953395,-0.424437343813583));
#791=CARTESIAN_POINT('',(-0.52,0.,0.));
#792=CARTESIAN_POINT('',(-2.6,-0.4375,1.75));
#793=CARTESIAN_POINT('',(-0.52,-0.106109335953396,0.424437343813583));
#794=CARTESIAN_POINT('',(-2.6,-0.4375,1.45833333333333));
#795=CARTESIAN_POINT('',(-0.52,-0.195106875583018,0.402187958906177));
#796=CARTESIAN_POINT('',(-2.6,-0.4375,1.16666666666667));
#797=CARTESIAN_POINT('',(-0.52,-0.276468189610759,0.351237252816698));
#798=CARTESIAN_POINT('',(-2.6,-0.4375,0.726541666666667));
#799=CARTESIAN_POINT('',(-0.52,-0.365278992789427,0.245260588091694));
#800=CARTESIAN_POINT('',(-2.6,-0.4375,0.578083333333334));
#801=CARTESIAN_POINT('',(-0.52,-0.389299944222467,0.204618299473016));
#802=CARTESIAN_POINT('',(-2.6,-0.4375,0.429625));
#803=CARTESIAN_POINT('',(-0.52,-0.406501793104059,0.161270958224536));
#804=CARTESIAN_POINT('',(-0.52,0.,0.));
#805=CARTESIAN_POINT('',(-0.520136038777251,-0.309373167472552,0.309372465159303));
#806=CARTESIAN_POINT('',(-2.6,-0.4375,0.4375));
#807=CARTESIAN_POINT('',(-2.25138295881743,-0.43215055980669,0.43215055980669));
#808=CARTESIAN_POINT('',(-1.55522921906167,-0.415836733344181,0.415836733325142));
#809=CARTESIAN_POINT('',(-0.857093573672323,-0.375424945178601,0.375424945216681));
#810=CARTESIAN_POINT('',(-0.521079178575774,-0.309544553127968,0.309544553127545));
#811=CARTESIAN_POINT('',(-0.52,0.,0.));
#812=CARTESIAN_POINT('',(-0.52,0.,0.));
#813=CARTESIAN_POINT('',(-0.52,0.405710896099343,0.163619823911166));
#814=CARTESIAN_POINT('',(-0.52,0.,0.));
#815=CARTESIAN_POINT('',(-0.52,0.424400329225132,-0.106099663260788));
#816=CARTESIAN_POINT('',(-0.52,0.,0.));
#817=CARTESIAN_POINT('',(-0.52,0.,0.));
#818=CARTESIAN_POINT('',(-0.52,-0.405710896099343,-0.163619823911166));
#819=CARTESIAN_POINT('',(-0.52,0.,0.));
#820=CARTESIAN_POINT('',(-0.52,-0.424400329225133,0.106099663260788));
#821=CARTESIAN_POINT('',(-0.52,0.,0.));
#822=CARTESIAN_POINT('',(-2.6,0.429625,-0.4375));
#823=CARTESIAN_POINT('',(-0.52,0.161270958224536,-0.406501793104059));
#824=CARTESIAN_POINT('',(-2.6,0.578083333333334,-0.4375));
#825=CARTESIAN_POINT('',(-0.52,0.204618299473016,-0.389299944222467));
#826=CARTESIAN_POINT('',(-2.6,0.726541666666667,-0.4375));
#827=CARTESIAN_POINT('',(-0.52,0.245260588091694,-0.365278992789427));
#828=CARTESIAN_POINT('',(-2.6,1.16666666666667,-0.4375));
#829=CARTESIAN_POINT('',(-0.52,0.351237252816698,-0.276468189610759));
#830=CARTESIAN_POINT('',(-2.6,1.45833333333333,-0.4375));
#831=CARTESIAN_POINT('',(-0.52,0.402187958906177,-0.195106875583019));
#832=CARTESIAN_POINT('',(-2.6,1.75,-0.4375));
#833=CARTESIAN_POINT('',(-0.52,0.424437343813583,-0.106109335953396));
#834=CARTESIAN_POINT('',(-1.56,1.08721867190679,-0.271804667976698));
#835=CARTESIAN_POINT('',(-2.6,1.75,0.4375));
#836=CARTESIAN_POINT('',(-0.52,0.405746526996504,0.163633755167677));
#837=CARTESIAN_POINT('',(-2.6,1.45833333333333,0.4375));
#838=CARTESIAN_POINT('',(-0.52,0.371435216216377,0.248712137506751));
#839=CARTESIAN_POINT('',(-2.6,1.16666666666667,0.4375));
#840=CARTESIAN_POINT('',(-0.52,0.30975006226827,0.322268779992221));
#841=CARTESIAN_POINT('',(-2.6,0.726541666666667,0.4375));
#842=CARTESIAN_POINT('',(-0.52,0.192537378780589,0.395614530087865));
#843=CARTESIAN_POINT('',(-2.6,0.578083333333334,0.4375));
#844=CARTESIAN_POINT('',(-0.52,0.148970520708215,0.413800530462164));
#845=CARTESIAN_POINT('',(-2.6,0.429625,0.4375));
#846=CARTESIAN_POINT('',(-0.52,0.103664953008634,0.424859514758929));
#847=CARTESIAN_POINT('',(-1.56,1.07787326349825,0.300566877583838));
#848=CARTESIAN_POINT('',(-2.6,1.75,-0.4375));
#849=CARTESIAN_POINT('',(-0.52,0.424437343813583,-0.106109335953396));
#850=CARTESIAN_POINT('',(-2.6,1.75,-0.145833333333333));
#851=CARTESIAN_POINT('',(-0.52,0.446726831379571,-0.0169513856894416));
#852=CARTESIAN_POINT('',(-2.6,1.75,0.145833333333334));
#853=CARTESIAN_POINT('',(-0.52,0.440119681049489,0.0784020261480569));
#854=CARTESIAN_POINT('',(-2.6,1.75,0.4375));
#855=CARTESIAN_POINT('',(-0.52,0.405746526996504,0.163633755167677));
#856=CARTESIAN_POINT('',(-2.6,-1.75,-0.4375));
#857=CARTESIAN_POINT('',(-0.52,-0.405746526996504,-0.163633755167677));
#858=CARTESIAN_POINT('',(-2.6,-1.45833333333333,-0.4375));
#859=CARTESIAN_POINT('',(-0.52,-0.371435216216377,-0.248712137506751));
#860=CARTESIAN_POINT('',(-2.6,-1.16666666666667,-0.4375));
#861=CARTESIAN_POINT('',(-0.52,-0.309750062268269,-0.322268779992221));
#862=CARTESIAN_POINT('',(-2.6,-0.726541666666666,-0.4375));
#863=CARTESIAN_POINT('',(-0.52,-0.192537378780589,-0.395614530087865));
#864=CARTESIAN_POINT('',(-2.6,-0.578083333333333,-0.4375));
#865=CARTESIAN_POINT('',(-0.52,-0.148970520708215,-0.413800530462163));
#866=CARTESIAN_POINT('',(-2.6,-0.429625,-0.4375));
#867=CARTESIAN_POINT('',(-0.52,-0.103664953008635,-0.424859514758929));
#868=CARTESIAN_POINT('',(-1.56,-1.07787326349825,-0.300566877583838));
#869=CARTESIAN_POINT('',(-2.6,-0.429625,0.4375));
#870=CARTESIAN_POINT('',(-0.52,-0.161270958224536,0.406501793104058));
#871=CARTESIAN_POINT('',(-2.6,-0.578083333333333,0.4375));
#872=CARTESIAN_POINT('',(-0.52,-0.204618299473017,0.389299944222466));
#873=CARTESIAN_POINT('',(-2.6,-0.726541666666666,0.4375));
#874=CARTESIAN_POINT('',(-0.52,-0.245260588091695,0.365278992789427));
#875=CARTESIAN_POINT('',(-2.6,-1.16666666666667,0.4375));
#876=CARTESIAN_POINT('',(-0.52,-0.351237252816698,0.276468189610758));
#877=CARTESIAN_POINT('',(-2.6,-1.45833333333333,0.4375));
#878=CARTESIAN_POINT('',(-0.52,-0.402187958906177,0.195106875583019));
#879=CARTESIAN_POINT('',(-2.6,-1.75,0.4375));
#880=CARTESIAN_POINT('',(-0.52,-0.424437343813583,0.106109335953395));
#881=CARTESIAN_POINT('',(-1.56,-1.08721867190679,0.271804667976698));
#882=CARTESIAN_POINT('',(-2.6,-1.75,0.4375));
#883=CARTESIAN_POINT('',(-0.52,-0.424437343813583,0.106109335953395));
#884=CARTESIAN_POINT('',(-2.6,-1.75,0.145833333333333));
#885=CARTESIAN_POINT('',(-0.52,-0.446726831379571,0.0169513856894415));
#886=CARTESIAN_POINT('',(-2.6,-1.75,-0.145833333333333));
#887=CARTESIAN_POINT('',(-0.52,-0.440119681049488,-0.0784020261480573));
#888=CARTESIAN_POINT('',(-2.6,-1.75,-0.4375));
#889=CARTESIAN_POINT('',(-0.52,-0.405746526996504,-0.163633755167677));
#890=CARTESIAN_POINT('',(0.,0.,0.));
#891=CARTESIAN_POINT('',(1.,0.,0.));
#892=CARTESIAN_POINT('',(1.,0.,5.49999999999999));
#893=CARTESIAN_POINT('',(0.,0.,0.));
#894=CARTESIAN_POINT('',(0.,0.,5.49999999999999));
#895=CARTESIAN_POINT('',(1.,0.,5.49999999999999));
#896=CARTESIAN_POINT('',(1.,0.,0.));
#897=CARTESIAN_POINT('',(1.,0.,-1.75000000000001));
#898=CARTESIAN_POINT('',(0.,0.,5.49999999999999));
#899=CARTESIAN_POINT('',(6.3,0.,0.));
#900=CARTESIAN_POINT('',(9.5,0.,0.));
#901=CARTESIAN_POINT('',(6.3,0.,0.));
#902=CARTESIAN_POINT('',(6.3,0.,1.75000000000001));
#903=CARTESIAN_POINT('',(0.,0.,0.));
#904=MECHANICAL_DESIGN_GEOMETRIC_PRESENTATION_REPRESENTATION('',(#454),
#905);
#905=(
GEOMETRIC_REPRESENTATION_CONTEXT(3)
GLOBAL_UNCERTAINTY_ASSIGNED_CONTEXT((#906))
GLOBAL_UNIT_ASSIGNED_CONTEXT((#909,#908,#907))
REPRESENTATION_CONTEXT(
'\X2\53415B5769FD51F97A74516D89D2593481EA653B87BA9489548C592757AB57087EC454084EF6\X0\ 
GBT9074.21-1988','TOP_LEVEL_ASSEMBLY_PART')
);
#906=UNCERTAINTY_MEASURE_WITH_UNIT(LENGTH_MEASURE(0.005),#909,
'DISTANCE_ACCURACY_VALUE','Maximum Tolerance applied to model');
#907=(
NAMED_UNIT(*)
SI_UNIT($,.STERADIAN.)
SOLID_ANGLE_UNIT()
);
#908=(
NAMED_UNIT(*)
PLANE_ANGLE_UNIT()
SI_UNIT($,.RADIAN.)
);
#909=(
LENGTH_UNIT()
NAMED_UNIT(*)
SI_UNIT(.MILLI.,.METRE.)
);
#910=PRODUCT_DEFINITION_SHAPE('','',#911);
#911=PRODUCT_DEFINITION('','',#913,#912);
#912=PRODUCT_DEFINITION_CONTEXT('',#919,'design');
#913=PRODUCT_DEFINITION_FORMATION_WITH_SPECIFIED_SOURCE('','',#915,
 .NOT_KNOWN.);
#914=PRODUCT_RELATED_PRODUCT_CATEGORY('','',(#915));
#915=PRODUCT(
'\X2\53415B5769FD51F97A74516D89D2593481EA653B87BA9489548C592757AB57087EC454084EF6\X0\ 
GBT9074.21-1988',
'\X2\53415B5769FD51F97A74516D89D2593481EA653B87BA9489548C592757AB57087EC454084EF6\X0\ 
GBT9074.21-1988',
'\X2\53415B5769FD51F97A74516D89D2593481EA653B87BA9489548C592757AB57087EC454084EF6\X0\ 
GBT9074.21-1988',(#917));
#916=PRODUCT_CATEGORY('','');
#917=PRODUCT_CONTEXT('',#919,'mechanical');
#918=APPLICATION_PROTOCOL_DEFINITION('international standard',
'automotive_design',2010,#919);
#919=APPLICATION_CONTEXT(
'core data for automotive mechanical design processes');
ENDSEC;
END-ISO-10303-21;
