ISO-10303-21;
HEADER;
/* Generated by software containing HOOPS Exchange Step
 * from HOOPS Exchange, Inc. (www.tiangong.cloud) 
 */

FILE_DESCRIPTION(
/* description */ ('Unknown'),
/* implementation_level */ '2;1');

FILE_NAME(
/* name */ '\X2\87BA7EB99489\X0\ GBT18981-2008',
/* time_stamp */ '2025-11-03T11:00:44+08:00',
/* author */ ('Unknown'),
/* organization */ ('Unknown'),
/* preprocessor_version */ 'ST-DEVELOPER v19.4',
/* originating_system */ 'TianGong',
/* authorisation */ 'Unknown');

FILE_SCHEMA (('AUTOMOTIVE_DESIGN {1 0 10303 214 3 1 1}'));
ENDSEC;

DATA;
#10=PROPERTY_DEFINITION_REPRESENTATION(#14,#12);
#11=PROPERTY_DEFINITION_REPRESENTATION(#15,#13);
#12=REPRESENTATION('',(#16),#210);
#13=REPRESENTATION('',(#17),#210);
#14=PROPERTY_DEFINITION('pmi validation property','',#215);
#15=PROPERTY_DEFINITION('pmi validation property','',#215);
#16=VALUE_REPRESENTATION_ITEM('number of annotations',COUNT_MEASURE(0.));
#17=VALUE_REPRESENTATION_ITEM('number of views',COUNT_MEASURE(0.));
#18=SHAPE_REPRESENTATION_RELATIONSHIP('','',#145,#19);
#19=ADVANCED_BREP_SHAPE_REPRESENTATION('',(#143),#210);
#20=VERTEX_LOOP('',#50);
#21=PLANE('',#152);
#22=PLANE('',#156);
#23=CYLINDRICAL_SURFACE('',#150,3.00000000000001);
#24=CYLINDRICAL_SURFACE('',#154,2.4);
#25=CYLINDRICAL_SURFACE('',#159,1.85);
#26=ORIENTED_EDGE('',*,*,#38,.T.);
#27=ORIENTED_EDGE('',*,*,#39,.F.);
#28=ORIENTED_EDGE('',*,*,#40,.T.);
#29=ORIENTED_EDGE('',*,*,#38,.F.);
#30=ORIENTED_EDGE('',*,*,#41,.T.);
#31=ORIENTED_EDGE('',*,*,#40,.F.);
#32=ORIENTED_EDGE('',*,*,#42,.T.);
#33=ORIENTED_EDGE('',*,*,#41,.F.);
#34=ORIENTED_EDGE('',*,*,#42,.F.);
#35=ORIENTED_EDGE('',*,*,#43,.T.);
#36=ORIENTED_EDGE('',*,*,#39,.T.);
#37=ORIENTED_EDGE('',*,*,#43,.F.);
#38=EDGE_CURVE('',#44,#44,#51,.T.);
#39=EDGE_CURVE('',#45,#45,#52,.T.);
#40=EDGE_CURVE('',#46,#46,#53,.T.);
#41=EDGE_CURVE('',#47,#47,#54,.T.);
#42=EDGE_CURVE('',#48,#48,#55,.T.);
#43=EDGE_CURVE('',#49,#49,#56,.T.);
#44=VERTEX_POINT('',#191);
#45=VERTEX_POINT('',#193);
#46=VERTEX_POINT('',#196);
#47=VERTEX_POINT('',#199);
#48=VERTEX_POINT('',#202);
#49=VERTEX_POINT('',#206);
#50=VERTEX_POINT('',#207);
#51=CIRCLE('',#148,3.00000000000001);
#52=CIRCLE('',#149,1.85);
#53=CIRCLE('',#151,3.00000000000001);
#54=CIRCLE('',#153,2.4);
#55=CIRCLE('',#155,2.4);
#56=CIRCLE('',#158,1.85);
#57=EDGE_LOOP('',(#26));
#58=EDGE_LOOP('',(#27));
#59=EDGE_LOOP('',(#28));
#60=EDGE_LOOP('',(#29));
#61=EDGE_LOOP('',(#30));
#62=EDGE_LOOP('',(#31));
#63=EDGE_LOOP('',(#32));
#64=EDGE_LOOP('',(#33));
#65=EDGE_LOOP('',(#34));
#66=EDGE_LOOP('',(#35));
#67=EDGE_LOOP('',(#36));
#68=EDGE_LOOP('',(#37));
#69=FACE_BOUND('',#57,.T.);
#70=FACE_BOUND('',#58,.T.);
#71=FACE_BOUND('',#59,.T.);
#72=FACE_BOUND('',#60,.T.);
#73=FACE_BOUND('',#61,.T.);
#74=FACE_BOUND('',#62,.T.);
#75=FACE_BOUND('',#63,.T.);
#76=FACE_BOUND('',#64,.T.);
#77=FACE_BOUND('',#65,.T.);
#78=FACE_BOUND('',#66,.T.);
#79=FACE_BOUND('',#20,.T.);
#80=FACE_BOUND('',#67,.T.);
#81=FACE_BOUND('',#68,.T.);
#82=CONICAL_SURFACE('',#147,1.85,0.523598775598299);
#83=CONICAL_SURFACE('',#157,0.,0.523598775598299);
#84=STYLED_ITEM('',(#91),#135);
#85=STYLED_ITEM('',(#92),#136);
#86=STYLED_ITEM('',(#93),#137);
#87=STYLED_ITEM('',(#94),#138);
#88=STYLED_ITEM('',(#95),#139);
#89=STYLED_ITEM('',(#96),#140);
#90=STYLED_ITEM('',(#97),#141);
#91=PRESENTATION_STYLE_ASSIGNMENT((#98));
#92=PRESENTATION_STYLE_ASSIGNMENT((#99));
#93=PRESENTATION_STYLE_ASSIGNMENT((#100));
#94=PRESENTATION_STYLE_ASSIGNMENT((#101));
#95=PRESENTATION_STYLE_ASSIGNMENT((#102));
#96=PRESENTATION_STYLE_ASSIGNMENT((#103));
#97=PRESENTATION_STYLE_ASSIGNMENT((#104));
#98=SURFACE_STYLE_USAGE(.BOTH.,#105);
#99=SURFACE_STYLE_USAGE(.BOTH.,#106);
#100=SURFACE_STYLE_USAGE(.BOTH.,#107);
#101=SURFACE_STYLE_USAGE(.BOTH.,#108);
#102=SURFACE_STYLE_USAGE(.BOTH.,#109);
#103=SURFACE_STYLE_USAGE(.BOTH.,#110);
#104=SURFACE_STYLE_USAGE(.BOTH.,#111);
#105=SURFACE_SIDE_STYLE('',(#112));
#106=SURFACE_SIDE_STYLE('',(#113));
#107=SURFACE_SIDE_STYLE('',(#114));
#108=SURFACE_SIDE_STYLE('',(#115));
#109=SURFACE_SIDE_STYLE('',(#116));
#110=SURFACE_SIDE_STYLE('',(#117));
#111=SURFACE_SIDE_STYLE('',(#118));
#112=SURFACE_STYLE_FILL_AREA(#119);
#113=SURFACE_STYLE_FILL_AREA(#120);
#114=SURFACE_STYLE_FILL_AREA(#121);
#115=SURFACE_STYLE_FILL_AREA(#122);
#116=SURFACE_STYLE_FILL_AREA(#123);
#117=SURFACE_STYLE_FILL_AREA(#124);
#118=SURFACE_STYLE_FILL_AREA(#125);
#119=FILL_AREA_STYLE('',(#126));
#120=FILL_AREA_STYLE('',(#127));
#121=FILL_AREA_STYLE('',(#128));
#122=FILL_AREA_STYLE('',(#129));
#123=FILL_AREA_STYLE('',(#130));
#124=FILL_AREA_STYLE('',(#131));
#125=FILL_AREA_STYLE('',(#132));
#126=FILL_AREA_STYLE_COLOUR('',#133);
#127=FILL_AREA_STYLE_COLOUR('',#134);
#128=FILL_AREA_STYLE_COLOUR('',#133);
#129=FILL_AREA_STYLE_COLOUR('',#133);
#130=FILL_AREA_STYLE_COLOUR('',#133);
#131=FILL_AREA_STYLE_COLOUR('',#133);
#132=FILL_AREA_STYLE_COLOUR('',#133);
#133=COLOUR_RGB('',0.506983280181885,0.531564235687256,0.550000011920929);
#134=COLOUR_RGB('',0.1875,0.75,0.581249892711639);
#135=ADVANCED_FACE('',(#69,#70),#82,.T.);
#136=ADVANCED_FACE('',(#71,#72),#23,.T.);
#137=ADVANCED_FACE('',(#73,#74),#21,.T.);
#138=ADVANCED_FACE('',(#75,#76),#24,.T.);
#139=ADVANCED_FACE('',(#77),#22,.T.);
#140=ADVANCED_FACE('',(#78,#79),#83,.T.);
#141=ADVANCED_FACE('',(#80,#81),#25,.T.);
#142=CLOSED_SHELL('',(#135,#136,#137,#138,#139,#140,#141));
#143=MANIFOLD_SOLID_BREP('',#142);
#144=SHAPE_DEFINITION_REPRESENTATION(#215,#145);
#145=SHAPE_REPRESENTATION('\X2\87BA7EB99489\X0\ GBT18981-2008',(#146),#210);
#146=AXIS2_PLACEMENT_3D('',#188,#160,#161);
#147=AXIS2_PLACEMENT_3D('',#189,#162,#163);
#148=AXIS2_PLACEMENT_3D('',#190,#164,#165);
#149=AXIS2_PLACEMENT_3D('',#192,#166,#167);
#150=AXIS2_PLACEMENT_3D('',#194,#168,#169);
#151=AXIS2_PLACEMENT_3D('',#195,#170,#171);
#152=AXIS2_PLACEMENT_3D('',#197,#172,#173);
#153=AXIS2_PLACEMENT_3D('',#198,#174,#175);
#154=AXIS2_PLACEMENT_3D('',#200,#176,#177);
#155=AXIS2_PLACEMENT_3D('',#201,#178,#179);
#156=AXIS2_PLACEMENT_3D('',#203,#180,#181);
#157=AXIS2_PLACEMENT_3D('',#204,#182,#183);
#158=AXIS2_PLACEMENT_3D('',#205,#184,#185);
#159=AXIS2_PLACEMENT_3D('',#208,#186,#187);
#160=DIRECTION('',(0.,0.,1.));
#161=DIRECTION('',(1.,0.,0.));
#162=DIRECTION('',(1.,0.,0.));
#163=DIRECTION('',(0.,0.,-1.));
#164=DIRECTION('',(-1.,0.,0.));
#165=DIRECTION('',(0.,0.,1.));
#166=DIRECTION('',(-1.,0.,0.));
#167=DIRECTION('',(0.,0.,1.));
#168=DIRECTION('',(-1.,0.,0.));
#169=DIRECTION('',(0.,0.,1.));
#170=DIRECTION('',(-1.,0.,0.));
#171=DIRECTION('',(0.,0.,1.));
#172=DIRECTION('',(1.,0.,0.));
#173=DIRECTION('',(0.,0.,-1.));
#174=DIRECTION('',(-1.,0.,0.));
#175=DIRECTION('',(0.,0.,1.));
#176=DIRECTION('',(-1.,0.,0.));
#177=DIRECTION('',(0.,0.,1.));
#178=DIRECTION('',(-1.,0.,0.));
#179=DIRECTION('',(0.,0.,1.));
#180=DIRECTION('',(1.,0.,0.));
#181=DIRECTION('',(0.,0.,-1.));
#182=DIRECTION('',(1.,0.,0.));
#183=DIRECTION('',(0.,0.,-1.));
#184=DIRECTION('',(-1.,0.,0.));
#185=DIRECTION('',(0.,0.,1.));
#186=DIRECTION('',(-1.,0.,0.));
#187=DIRECTION('',(0.,0.,1.));
#188=CARTESIAN_POINT('',(0.,0.,0.));
#189=CARTESIAN_POINT('',(-11.,0.,0.));
#190=CARTESIAN_POINT('',(-9.00814157129579,0.,0.));
#191=CARTESIAN_POINT('',(-9.00814157129579,0.,3.00000000000001));
#192=CARTESIAN_POINT('',(-11.,0.,0.));
#193=CARTESIAN_POINT('',(-11.,0.,1.85));
#194=CARTESIAN_POINT('',(0.,0.,0.));
#195=CARTESIAN_POINT('',(-1.1,0.,0.));
#196=CARTESIAN_POINT('',(-1.1,0.,3.00000000000001));
#197=CARTESIAN_POINT('',(-1.1,0.,2.4));
#198=CARTESIAN_POINT('',(-1.1,0.,0.));
#199=CARTESIAN_POINT('',(-1.1,0.,2.4));
#200=CARTESIAN_POINT('',(0.,0.,0.));
#201=CARTESIAN_POINT('',(0.,0.,0.));
#202=CARTESIAN_POINT('',(0.,0.,2.4));
#203=CARTESIAN_POINT('',(0.,0.,0.));
#204=CARTESIAN_POINT('',(-20.,0.,0.));
#205=CARTESIAN_POINT('',(-16.7957060059976,0.,0.));
#206=CARTESIAN_POINT('',(-16.7957060059976,0.,1.85));
#207=CARTESIAN_POINT('',(-20.,0.,0.));
#208=CARTESIAN_POINT('',(0.,0.,0.));
#209=MECHANICAL_DESIGN_GEOMETRIC_PRESENTATION_REPRESENTATION('',(#84,#85,
#86,#87,#88,#89,#90),#210);
#210=(
GEOMETRIC_REPRESENTATION_CONTEXT(3)
GLOBAL_UNCERTAINTY_ASSIGNED_CONTEXT((#211))
GLOBAL_UNIT_ASSIGNED_CONTEXT((#214,#213,#212))
REPRESENTATION_CONTEXT('\X2\87BA7EB99489\X0\ GBT18981-2008',
'TOP_LEVEL_ASSEMBLY_PART')
);
#211=UNCERTAINTY_MEASURE_WITH_UNIT(LENGTH_MEASURE(0.005),#214,
'DISTANCE_ACCURACY_VALUE','Maximum Tolerance applied to model');
#212=(
NAMED_UNIT(*)
SI_UNIT($,.STERADIAN.)
SOLID_ANGLE_UNIT()
);
#213=(
NAMED_UNIT(*)
PLANE_ANGLE_UNIT()
SI_UNIT($,.RADIAN.)
);
#214=(
LENGTH_UNIT()
NAMED_UNIT(*)
SI_UNIT(.MILLI.,.METRE.)
);
#215=PRODUCT_DEFINITION_SHAPE('','',#216);
#216=PRODUCT_DEFINITION('','',#218,#217);
#217=PRODUCT_DEFINITION_CONTEXT('',#224,'design');
#218=PRODUCT_DEFINITION_FORMATION_WITH_SPECIFIED_SOURCE('','',#220,
 .NOT_KNOWN.);
#219=PRODUCT_RELATED_PRODUCT_CATEGORY('','',(#220));
#220=PRODUCT('\X2\87BA7EB99489\X0\ GBT18981-2008',
'\X2\87BA7EB99489\X0\ GBT18981-2008','\X2\87BA7EB99489\X0\ GBT18981-20
08',(#222));
#221=PRODUCT_CATEGORY('','');
#222=PRODUCT_CONTEXT('',#224,'mechanical');
#223=APPLICATION_PROTOCOL_DEFINITION('international standard',
'automotive_design',2010,#224);
#224=APPLICATION_CONTEXT(
'core data for automotive mechanical design processes');
ENDSEC;
END-ISO-10303-21;
