ISO-10303-21;
HEADER;
/* Generated by software containing HOOPS Exchange Step
 * from HOOPS Exchange, Inc. (www.tiangong.cloud) 
 */

FILE_DESCRIPTION(
/* description */ ('Unknown'),
/* implementation_level */ '2;1');

FILE_NAME(
/* name */ '\X2\516D89D26CD55170976281EA94BB81EA653B87BA9489\X0\ GBT15
856.4-2002',
/* time_stamp */ '2025-10-14T15:47:29+08:00',
/* author */ ('Unknown'),
/* organization */ ('Unknown'),
/* preprocessor_version */ 'ST-DEVELOPER v19.4',
/* originating_system */ 'TianGong',
/* authorisation */ 'Unknown');

FILE_SCHEMA (('AUTOMOTIVE_DESIGN {1 0 10303 214 3 1 1}'));
ENDSEC;

DATA;
#10=PROPERTY_DEFINITION_REPRESENTATION(#14,#12);
#11=PROPERTY_DEFINITION_REPRESENTATION(#15,#13);
#12=REPRESENTATION('',(#16),#637);
#13=REPRESENTATION('',(#17),#637);
#14=PROPERTY_DEFINITION('pmi validation property','',#642);
#15=PROPERTY_DEFINITION('pmi validation property','',#642);
#16=VALUE_REPRESENTATION_ITEM('number of annotations',COUNT_MEASURE(0.));
#17=VALUE_REPRESENTATION_ITEM('number of views',COUNT_MEASURE(0.));
#18=SHAPE_REPRESENTATION_RELATIONSHIP('','',#322,#19);
#19=ADVANCED_BREP_SHAPE_REPRESENTATION('',(#320),#637);
#20=(
BOUNDED_SURFACE()
B_SPLINE_SURFACE(3,2,((#540,#541,#542),(#543,#544,#545),(#546,#547,#548),
(#549,#550,#551)),.UNSPECIFIED.,.F.,.F.,.F.)
B_SPLINE_SURFACE_WITH_KNOTS((4,4),(3,3),(0.00982376727160224,0.0123791052437027),
(0.,1.),.PIECEWISE_BEZIER_KNOTS.)
GEOMETRIC_REPRESENTATION_ITEM()
RATIONAL_B_SPLINE_SURFACE(((1.,0.762089652168127,1.),(1.,0.771001808874813,
1.),(1.,0.771066011989582,1.),(1.,0.762088500096001,1.)))
REPRESENTATION_ITEM('')
SURFACE()
);
#21=(
BOUNDED_SURFACE()
B_SPLINE_SURFACE(3,2,((#560,#561,#562),(#563,#564,#565),(#566,#567,#568),
(#569,#570,#571)),.UNSPECIFIED.,.F.,.F.,.F.)
B_SPLINE_SURFACE_WITH_KNOTS((4,4),(3,3),(0.00981987640697566,0.0123751487265494),
(0.,1.),.PIECEWISE_BEZIER_KNOTS.)
GEOMETRIC_REPRESENTATION_ITEM()
RATIONAL_B_SPLINE_SURFACE(((1.,0.762089658743147,1.),(1.,0.77100155077106,
1.),(1.,0.771066206044697,1.),(1.,0.762088495504522,1.)))
REPRESENTATION_ITEM('')
SURFACE()
);
#22=(
BOUNDED_SURFACE()
B_SPLINE_SURFACE(3,2,((#576,#577,#578),(#579,#580,#581),(#582,#583,#584),
(#585,#586,#587)),.UNSPECIFIED.,.F.,.F.,.F.)
B_SPLINE_SURFACE_WITH_KNOTS((4,4),(3,3),(0.00982376741628948,0.0123791052981246),
(0.,1.),.PIECEWISE_BEZIER_KNOTS.)
GEOMETRIC_REPRESENTATION_ITEM()
RATIONAL_B_SPLINE_SURFACE(((1.,0.762089654147272,1.),(1.,0.771001810220066,
1.),(1.,0.77106601080105,1.),(1.,0.762088499045852,1.)))
REPRESENTATION_ITEM('')
SURFACE()
);
#23=(
BOUNDED_SURFACE()
B_SPLINE_SURFACE(3,2,((#592,#593,#594),(#595,#596,#597),(#598,#599,#600),
(#601,#602,#603)),.UNSPECIFIED.,.F.,.F.,.F.)
B_SPLINE_SURFACE_WITH_KNOTS((4,4),(3,3),(0.00982376710532082,0.0123791052140741),
(0.,1.),.PIECEWISE_BEZIER_KNOTS.)
GEOMETRIC_REPRESENTATION_ITEM()
RATIONAL_B_SPLINE_SURFACE(((1.,0.762089652202817,1.),(1.,0.771001809534402,
1.),(1.,0.77106601100603,1.),(1.,0.762088498156906,1.)))
REPRESENTATION_ITEM('')
SURFACE()
);
#24=(
BOUNDED_SURFACE()
B_SPLINE_SURFACE(3,2,((#608,#609,#610),(#611,#612,#613),(#614,#615,#616),
(#617,#618,#619)),.UNSPECIFIED.,.F.,.F.,.F.)
B_SPLINE_SURFACE_WITH_KNOTS((4,4),(3,3),(0.00981987597299572,0.0123751484717523),
(0.,1.),.PIECEWISE_BEZIER_KNOTS.)
GEOMETRIC_REPRESENTATION_ITEM()
RATIONAL_B_SPLINE_SURFACE(((1.,0.762089656844814,1.),(1.,0.771001550110888,
1.),(1.,0.771066206232739,1.),(1.,0.762088494615892,1.)))
REPRESENTATION_ITEM('')
SURFACE()
);
#25=(
BOUNDED_SURFACE()
B_SPLINE_SURFACE(3,2,((#624,#625,#626),(#627,#628,#629),(#630,#631,#632),
(#633,#634,#635)),.UNSPECIFIED.,.F.,.F.,.F.)
B_SPLINE_SURFACE_WITH_KNOTS((4,4),(3,3),(0.00982376762122175,0.0123791054641278),
(0.,1.),.PIECEWISE_BEZIER_KNOTS.)
GEOMETRIC_REPRESENTATION_ITEM()
RATIONAL_B_SPLINE_SURFACE(((1.,0.762089654060617,1.),(1.,0.771001809859439,
1.),(1.,0.771066011314645,1.),(1.,0.762088500015022,1.)))
REPRESENTATION_ITEM('')
SURFACE()
);
#26=CYLINDRICAL_SURFACE('',#338,1.45);
#27=CYLINDRICAL_SURFACE('',#344,1.6);
#28=VERTEX_LOOP('',#202);
#29=TOROIDAL_SURFACE('',#332,3.05,0.0999999999999998);
#30=TOROIDAL_SURFACE('',#347,1.85,0.4);
#31=CIRCLE('',#331,3.05);
#32=CIRCLE('',#333,3.05);
#33=CIRCLE('',#335,1.85);
#34=CIRCLE('',#337,1.45);
#35=CIRCLE('',#339,1.45);
#36=CIRCLE('',#341,1.98940103301238);
#37=CIRCLE('',#343,1.6);
#38=CIRCLE('',#345,1.6);
#39=CONICAL_SURFACE('',#330,2.30940103301238,1.38257482149012);
#40=CONICAL_SURFACE('',#336,0.,0.78539816339745);
#41=CONICAL_SURFACE('',#340,2.30940103301238,0.785398163397449);
#42=B_SPLINE_CURVE_WITH_KNOTS('',3,(#409,#410,#411,#412),.UNSPECIFIED.,
 .F.,.F.,(4,4),(0.,0.00231192518440212),.UNSPECIFIED.);
#43=B_SPLINE_CURVE_WITH_KNOTS('',3,(#416,#417,#418,#419,#420),
 .UNSPECIFIED.,.F.,.F.,(4,1,4),(0.00290180069307247,0.00410487620976976,
0.00530795172646706),.UNSPECIFIED.);
#44=B_SPLINE_CURVE_WITH_KNOTS('',3,(#425,#426,#427,#428),.UNSPECIFIED.,
 .F.,.F.,(4,4),(0.,0.00231194511857211),.UNSPECIFIED.);
#45=B_SPLINE_CURVE_WITH_KNOTS('',3,(#429,#430,#431,#432,#433),
 .UNSPECIFIED.,.F.,.F.,(4,1,4),(2.54531380755622E-7,0.00119301189850475,
0.00238576926562875),.UNSPECIFIED.);
#46=B_SPLINE_CURVE_WITH_KNOTS('',3,(#438,#439,#440,#441),.UNSPECIFIED.,
 .F.,.F.,(4,4),(5.44838184961527E-14,0.00231194485503051),.UNSPECIFIED.);
#47=B_SPLINE_CURVE_WITH_KNOTS('',3,(#442,#443,#444,#445,#446),
 .UNSPECIFIED.,.F.,.F.,(4,1,4),(2.54531375296085E-7,0.00119301175375819,
0.00238576897614108),.UNSPECIFIED.);
#48=B_SPLINE_CURVE_WITH_KNOTS('',3,(#451,#452,#453,#454),.UNSPECIFIED.,
 .F.,.F.,(4,4),(2.71486042534249E-14,0.00231192536036561),.UNSPECIFIED.);
#49=B_SPLINE_CURVE_WITH_KNOTS('',3,(#455,#456,#457,#458,#459),
 .UNSPECIFIED.,.F.,.F.,(4,1,4),(0.00290180100137036,0.00410487659410733,
0.00530795218684431),.UNSPECIFIED.);
#50=B_SPLINE_CURVE_WITH_KNOTS('',3,(#464,#465,#466,#467),.UNSPECIFIED.,
 .F.,.F.,(4,4),(0.,0.00231194489898972),.UNSPECIFIED.);
#51=B_SPLINE_CURVE_WITH_KNOTS('',3,(#468,#469,#470,#471,#472),
 .UNSPECIFIED.,.F.,.F.,(4,1,4),(2.5453137317945E-7,0.00119301176580844,
0.00238576900024369),.UNSPECIFIED.);
#52=B_SPLINE_CURVE_WITH_KNOTS('',3,(#474,#475,#476,#477),.UNSPECIFIED.,
 .F.,.F.,(4,4),(0.,0.0023119449864623),.UNSPECIFIED.);
#53=B_SPLINE_CURVE_WITH_KNOTS('',3,(#478,#479,#480,#481,#482),
 .UNSPECIFIED.,.F.,.F.,(4,1,4),(2.54434978073632E-7,0.00119301175165591,
0.00238576906833375),.UNSPECIFIED.);
#54=B_SPLINE_CURVE_WITH_KNOTS('',3,(#484,#485,#486,#487),.UNSPECIFIED.,
 .F.,.F.,(4,4),(4.84869951806108E-19,0.002506294802143),.UNSPECIFIED.);
#55=B_SPLINE_CURVE_WITH_KNOTS('',3,(#490,#491,#492,#493),.UNSPECIFIED.,
 .F.,.F.,(4,4),(0.,0.00250629454237911),.UNSPECIFIED.);
#56=B_SPLINE_CURVE_WITH_KNOTS('',3,(#495,#496,#497,#498),.UNSPECIFIED.,
 .F.,.F.,(4,4),(0.,0.00250631947253699),.UNSPECIFIED.);
#57=B_SPLINE_CURVE_WITH_KNOTS('',3,(#500,#501,#502,#503),.UNSPECIFIED.,
 .F.,.F.,(4,4),(0.,0.002506294581124),.UNSPECIFIED.);
#58=B_SPLINE_CURVE_WITH_KNOTS('',3,(#505,#506,#507,#508),.UNSPECIFIED.,
 .F.,.F.,(4,4),(0.,0.00250629466834633),.UNSPECIFIED.);
#59=B_SPLINE_CURVE_WITH_KNOTS('',3,(#510,#511,#512,#513),.UNSPECIFIED.,
 .F.,.F.,(4,4),(0.,0.00250631929993651),.UNSPECIFIED.);
#60=B_SPLINE_CURVE_WITH_KNOTS('',3,(#552,#553,#554,#555),.UNSPECIFIED.,
 .F.,.F.,(4,4),(0.,0.00030499499371577),.UNSPECIFIED.);
#61=B_SPLINE_CURVE_WITH_KNOTS('',3,(#556,#557,#558,#559),.UNSPECIFIED.,
 .F.,.F.,(4,4),(0.,0.000304995000294481),.UNSPECIFIED.);
#62=B_SPLINE_CURVE_WITH_KNOTS('',3,(#572,#573,#574,#575),.UNSPECIFIED.,
 .F.,.F.,(4,4),(0.,0.000304994997333673),.UNSPECIFIED.);
#63=B_SPLINE_CURVE_WITH_KNOTS('',3,(#588,#589,#590,#591),.UNSPECIFIED.,
 .F.,.F.,(4,4),(0.,0.000304994999714778),.UNSPECIFIED.);
#64=B_SPLINE_CURVE_WITH_KNOTS('',3,(#604,#605,#606,#607),.UNSPECIFIED.,
 .F.,.F.,(4,4),(0.,0.000304994998483004),.UNSPECIFIED.);
#65=B_SPLINE_CURVE_WITH_KNOTS('',3,(#620,#621,#622,#623),.UNSPECIFIED.,
 .F.,.F.,(4,4),(0.,0.00030499499848302),.UNSPECIFIED.);
#66=ORIENTED_EDGE('',*,*,#142,.F.);
#67=ORIENTED_EDGE('',*,*,#143,.T.);
#68=ORIENTED_EDGE('',*,*,#144,.T.);
#69=ORIENTED_EDGE('',*,*,#145,.T.);
#70=ORIENTED_EDGE('',*,*,#146,.F.);
#71=ORIENTED_EDGE('',*,*,#147,.T.);
#72=ORIENTED_EDGE('',*,*,#142,.T.);
#73=ORIENTED_EDGE('',*,*,#148,.T.);
#74=ORIENTED_EDGE('',*,*,#149,.F.);
#75=ORIENTED_EDGE('',*,*,#150,.T.);
#76=ORIENTED_EDGE('',*,*,#146,.T.);
#77=ORIENTED_EDGE('',*,*,#151,.T.);
#78=ORIENTED_EDGE('',*,*,#152,.F.);
#79=ORIENTED_EDGE('',*,*,#153,.T.);
#80=ORIENTED_EDGE('',*,*,#149,.T.);
#81=ORIENTED_EDGE('',*,*,#154,.T.);
#82=ORIENTED_EDGE('',*,*,#155,.F.);
#83=ORIENTED_EDGE('',*,*,#156,.T.);
#84=ORIENTED_EDGE('',*,*,#152,.T.);
#85=ORIENTED_EDGE('',*,*,#157,.T.);
#86=ORIENTED_EDGE('',*,*,#144,.F.);
#87=ORIENTED_EDGE('',*,*,#158,.T.);
#88=ORIENTED_EDGE('',*,*,#155,.T.);
#89=ORIENTED_EDGE('',*,*,#159,.T.);
#90=ORIENTED_EDGE('',*,*,#160,.T.);
#91=ORIENTED_EDGE('',*,*,#161,.T.);
#92=ORIENTED_EDGE('',*,*,#162,.T.);
#93=ORIENTED_EDGE('',*,*,#163,.T.);
#94=ORIENTED_EDGE('',*,*,#164,.T.);
#95=ORIENTED_EDGE('',*,*,#165,.T.);
#96=ORIENTED_EDGE('',*,*,#166,.T.);
#97=ORIENTED_EDGE('',*,*,#166,.F.);
#98=ORIENTED_EDGE('',*,*,#167,.T.);
#99=ORIENTED_EDGE('',*,*,#168,.T.);
#100=ORIENTED_EDGE('',*,*,#167,.F.);
#101=ORIENTED_EDGE('',*,*,#169,.F.);
#102=ORIENTED_EDGE('',*,*,#170,.T.);
#103=ORIENTED_EDGE('',*,*,#169,.T.);
#104=ORIENTED_EDGE('',*,*,#171,.F.);
#105=ORIENTED_EDGE('',*,*,#159,.F.);
#106=ORIENTED_EDGE('',*,*,#157,.F.);
#107=ORIENTED_EDGE('',*,*,#154,.F.);
#108=ORIENTED_EDGE('',*,*,#151,.F.);
#109=ORIENTED_EDGE('',*,*,#148,.F.);
#110=ORIENTED_EDGE('',*,*,#145,.F.);
#111=ORIENTED_EDGE('',*,*,#172,.F.);
#112=ORIENTED_EDGE('',*,*,#171,.T.);
#113=ORIENTED_EDGE('',*,*,#173,.F.);
#114=ORIENTED_EDGE('',*,*,#172,.T.);
#115=ORIENTED_EDGE('',*,*,#173,.T.);
#116=ORIENTED_EDGE('',*,*,#170,.F.);
#117=ORIENTED_EDGE('',*,*,#168,.F.);
#118=ORIENTED_EDGE('',*,*,#174,.F.);
#119=ORIENTED_EDGE('',*,*,#158,.F.);
#120=ORIENTED_EDGE('',*,*,#175,.F.);
#121=ORIENTED_EDGE('',*,*,#164,.F.);
#122=ORIENTED_EDGE('',*,*,#175,.T.);
#123=ORIENTED_EDGE('',*,*,#143,.F.);
#124=ORIENTED_EDGE('',*,*,#176,.F.);
#125=ORIENTED_EDGE('',*,*,#165,.F.);
#126=ORIENTED_EDGE('',*,*,#174,.T.);
#127=ORIENTED_EDGE('',*,*,#163,.F.);
#128=ORIENTED_EDGE('',*,*,#177,.F.);
#129=ORIENTED_EDGE('',*,*,#156,.F.);
#130=ORIENTED_EDGE('',*,*,#176,.T.);
#131=ORIENTED_EDGE('',*,*,#147,.F.);
#132=ORIENTED_EDGE('',*,*,#178,.F.);
#133=ORIENTED_EDGE('',*,*,#160,.F.);
#134=ORIENTED_EDGE('',*,*,#177,.T.);
#135=ORIENTED_EDGE('',*,*,#162,.F.);
#136=ORIENTED_EDGE('',*,*,#179,.F.);
#137=ORIENTED_EDGE('',*,*,#153,.F.);
#138=ORIENTED_EDGE('',*,*,#178,.T.);
#139=ORIENTED_EDGE('',*,*,#150,.F.);
#140=ORIENTED_EDGE('',*,*,#179,.T.);
#141=ORIENTED_EDGE('',*,*,#161,.F.);
#142=EDGE_CURVE('',#180,#181,#207,.T.);
#143=EDGE_CURVE('',#180,#182,#42,.T.);
#144=EDGE_CURVE('',#182,#183,#208,.T.);
#145=EDGE_CURVE('',#183,#181,#43,.T.);
#146=EDGE_CURVE('',#184,#185,#209,.T.);
#147=EDGE_CURVE('',#184,#180,#44,.T.);
#148=EDGE_CURVE('',#181,#185,#45,.T.);
#149=EDGE_CURVE('',#186,#187,#210,.T.);
#150=EDGE_CURVE('',#186,#184,#46,.T.);
#151=EDGE_CURVE('',#185,#187,#47,.T.);
#152=EDGE_CURVE('',#188,#189,#211,.T.);
#153=EDGE_CURVE('',#188,#186,#48,.T.);
#154=EDGE_CURVE('',#187,#189,#49,.T.);
#155=EDGE_CURVE('',#190,#191,#212,.T.);
#156=EDGE_CURVE('',#190,#188,#50,.T.);
#157=EDGE_CURVE('',#189,#191,#51,.T.);
#158=EDGE_CURVE('',#182,#190,#52,.T.);
#159=EDGE_CURVE('',#191,#183,#53,.T.);
#160=EDGE_CURVE('',#192,#193,#54,.T.);
#161=EDGE_CURVE('',#193,#194,#55,.T.);
#162=EDGE_CURVE('',#194,#195,#56,.T.);
#163=EDGE_CURVE('',#195,#196,#57,.T.);
#164=EDGE_CURVE('',#196,#197,#58,.T.);
#165=EDGE_CURVE('',#197,#192,#59,.T.);
#166=EDGE_CURVE('',#198,#198,#31,.T.);
#167=EDGE_CURVE('',#199,#199,#32,.T.);
#168=EDGE_CURVE('',#200,#200,#33,.T.);
#169=EDGE_CURVE('',#201,#201,#34,.T.);
#170=EDGE_CURVE('',#203,#203,#35,.F.);
#171=EDGE_CURVE('',#204,#204,#36,.T.);
#172=EDGE_CURVE('',#205,#205,#37,.T.);
#173=EDGE_CURVE('',#206,#206,#38,.T.);
#174=EDGE_CURVE('',#190,#196,#60,.T.);
#175=EDGE_CURVE('',#197,#182,#61,.F.);
#176=EDGE_CURVE('',#192,#180,#62,.F.);
#177=EDGE_CURVE('',#188,#195,#63,.T.);
#178=EDGE_CURVE('',#193,#184,#64,.F.);
#179=EDGE_CURVE('',#186,#194,#65,.T.);
#180=VERTEX_POINT('',#407);
#181=VERTEX_POINT('',#408);
#182=VERTEX_POINT('',#413);
#183=VERTEX_POINT('',#415);
#184=VERTEX_POINT('',#423);
#185=VERTEX_POINT('',#424);
#186=VERTEX_POINT('',#436);
#187=VERTEX_POINT('',#437);
#188=VERTEX_POINT('',#449);
#189=VERTEX_POINT('',#450);
#190=VERTEX_POINT('',#462);
#191=VERTEX_POINT('',#463);
#192=VERTEX_POINT('',#488);
#193=VERTEX_POINT('',#489);
#194=VERTEX_POINT('',#494);
#195=VERTEX_POINT('',#499);
#196=VERTEX_POINT('',#504);
#197=VERTEX_POINT('',#509);
#198=VERTEX_POINT('',#515);
#199=VERTEX_POINT('',#518);
#200=VERTEX_POINT('',#521);
#201=VERTEX_POINT('',#524);
#202=VERTEX_POINT('',#525);
#203=VERTEX_POINT('',#528);
#204=VERTEX_POINT('',#531);
#205=VERTEX_POINT('',#534);
#206=VERTEX_POINT('',#537);
#207=LINE('',#406,#213);
#208=LINE('',#414,#214);
#209=LINE('',#422,#215);
#210=LINE('',#435,#216);
#211=LINE('',#448,#217);
#212=LINE('',#461,#218);
#213=VECTOR('',#352,1000.);
#214=VECTOR('',#353,1000.);
#215=VECTOR('',#356,1000.);
#216=VECTOR('',#359,1000.);
#217=VECTOR('',#362,1000.);
#218=VECTOR('',#365,1000.);
#219=EDGE_LOOP('',(#66,#67,#68,#69));
#220=EDGE_LOOP('',(#70,#71,#72,#73));
#221=EDGE_LOOP('',(#74,#75,#76,#77));
#222=EDGE_LOOP('',(#78,#79,#80,#81));
#223=EDGE_LOOP('',(#82,#83,#84,#85));
#224=EDGE_LOOP('',(#86,#87,#88,#89));
#225=EDGE_LOOP('',(#90,#91,#92,#93,#94,#95));
#226=EDGE_LOOP('',(#96));
#227=EDGE_LOOP('',(#97));
#228=EDGE_LOOP('',(#98));
#229=EDGE_LOOP('',(#99));
#230=EDGE_LOOP('',(#100));
#231=EDGE_LOOP('',(#101));
#232=EDGE_LOOP('',(#102));
#233=EDGE_LOOP('',(#103));
#234=EDGE_LOOP('',(#104));
#235=EDGE_LOOP('',(#105,#106,#107,#108,#109,#110));
#236=EDGE_LOOP('',(#111));
#237=EDGE_LOOP('',(#112));
#238=EDGE_LOOP('',(#113));
#239=EDGE_LOOP('',(#114));
#240=EDGE_LOOP('',(#115));
#241=EDGE_LOOP('',(#116));
#242=EDGE_LOOP('',(#117));
#243=EDGE_LOOP('',(#118,#119,#120,#121));
#244=EDGE_LOOP('',(#122,#123,#124,#125));
#245=EDGE_LOOP('',(#126,#127,#128,#129));
#246=EDGE_LOOP('',(#130,#131,#132,#133));
#247=EDGE_LOOP('',(#134,#135,#136,#137));
#248=EDGE_LOOP('',(#138,#139,#140,#141));
#249=FACE_BOUND('',#219,.T.);
#250=FACE_BOUND('',#220,.T.);
#251=FACE_BOUND('',#221,.T.);
#252=FACE_BOUND('',#222,.T.);
#253=FACE_BOUND('',#223,.T.);
#254=FACE_BOUND('',#224,.T.);
#255=FACE_BOUND('',#225,.T.);
#256=FACE_BOUND('',#226,.T.);
#257=FACE_BOUND('',#227,.T.);
#258=FACE_BOUND('',#228,.T.);
#259=FACE_BOUND('',#229,.T.);
#260=FACE_BOUND('',#230,.T.);
#261=FACE_BOUND('',#231,.T.);
#262=FACE_BOUND('',#28,.T.);
#263=FACE_BOUND('',#232,.T.);
#264=FACE_BOUND('',#233,.T.);
#265=FACE_BOUND('',#234,.T.);
#266=FACE_BOUND('',#235,.T.);
#267=FACE_BOUND('',#236,.T.);
#268=FACE_BOUND('',#237,.T.);
#269=FACE_BOUND('',#238,.T.);
#270=FACE_BOUND('',#239,.T.);
#271=FACE_BOUND('',#240,.T.);
#272=FACE_BOUND('',#241,.T.);
#273=FACE_BOUND('',#242,.T.);
#274=FACE_BOUND('',#243,.T.);
#275=FACE_BOUND('',#244,.T.);
#276=FACE_BOUND('',#245,.T.);
#277=FACE_BOUND('',#246,.T.);
#278=FACE_BOUND('',#247,.T.);
#279=FACE_BOUND('',#248,.T.);
#280=PLANE('',#324);
#281=PLANE('',#325);
#282=PLANE('',#326);
#283=PLANE('',#327);
#284=PLANE('',#328);
#285=PLANE('',#329);
#286=PLANE('',#334);
#287=PLANE('',#342);
#288=PLANE('',#346);
#289=ADVANCED_FACE('',(#249),#280,.F.);
#290=ADVANCED_FACE('',(#250),#281,.F.);
#291=ADVANCED_FACE('',(#251),#282,.F.);
#292=ADVANCED_FACE('',(#252),#283,.F.);
#293=ADVANCED_FACE('',(#253),#284,.F.);
#294=ADVANCED_FACE('',(#254),#285,.F.);
#295=ADVANCED_FACE('',(#255,#256),#39,.T.);
#296=ADVANCED_FACE('',(#257,#258),#29,.T.);
#297=ADVANCED_FACE('',(#259,#260),#286,.F.);
#298=ADVANCED_FACE('',(#261,#262),#40,.T.);
#299=ADVANCED_FACE('',(#263,#264),#26,.T.);
#300=ADVANCED_FACE('',(#265,#266),#41,.T.);
#301=ADVANCED_FACE('',(#267,#268),#287,.T.);
#302=ADVANCED_FACE('',(#269,#270),#27,.F.);
#303=ADVANCED_FACE('',(#271),#288,.F.);
#304=ADVANCED_FACE('',(#272,#273),#30,.F.);
#305=ADVANCED_FACE('',(#274),#20,.F.);
#306=ADVANCED_FACE('',(#275),#21,.F.);
#307=ADVANCED_FACE('',(#276),#22,.F.);
#308=ADVANCED_FACE('',(#277),#23,.F.);
#309=ADVANCED_FACE('',(#278),#24,.F.);
#310=ADVANCED_FACE('',(#279),#25,.F.);
#311=CLOSED_SHELL('',(#289,#290,#291,#292,#293,#294,#295,#296,#297,#298,
#299,#300,#301,#302,#303,#304,#305,#306,#307,#308,#309,#310));
#312=STYLED_ITEM('',(#313),#320);
#313=PRESENTATION_STYLE_ASSIGNMENT((#314));
#314=SURFACE_STYLE_USAGE(.BOTH.,#315);
#315=SURFACE_SIDE_STYLE('',(#316));
#316=SURFACE_STYLE_FILL_AREA(#317);
#317=FILL_AREA_STYLE('',(#318));
#318=FILL_AREA_STYLE_COLOUR('',#319);
#319=COLOUR_RGB('',0.506983280181885,0.531564235687256,0.550000011920929);
#320=MANIFOLD_SOLID_BREP('',#311);
#321=SHAPE_DEFINITION_REPRESENTATION(#642,#322);
#322=SHAPE_REPRESENTATION(
'\X2\516D89D26CD55170976281EA94BB81EA653B87BA9489\X0\ GBT15856.4-2002',
(#323),#637);
#323=AXIS2_PLACEMENT_3D('',#404,#348,#349);
#324=AXIS2_PLACEMENT_3D('',#405,#350,#351);
#325=AXIS2_PLACEMENT_3D('',#421,#354,#355);
#326=AXIS2_PLACEMENT_3D('',#434,#357,#358);
#327=AXIS2_PLACEMENT_3D('',#447,#360,#361);
#328=AXIS2_PLACEMENT_3D('',#460,#363,#364);
#329=AXIS2_PLACEMENT_3D('',#473,#366,#367);
#330=AXIS2_PLACEMENT_3D('',#483,#368,#369);
#331=AXIS2_PLACEMENT_3D('',#514,#370,#371);
#332=AXIS2_PLACEMENT_3D('',#516,#372,#373);
#333=AXIS2_PLACEMENT_3D('',#517,#374,#375);
#334=AXIS2_PLACEMENT_3D('',#519,#376,#377);
#335=AXIS2_PLACEMENT_3D('',#520,#378,#379);
#336=AXIS2_PLACEMENT_3D('',#522,#380,#381);
#337=AXIS2_PLACEMENT_3D('',#523,#382,#383);
#338=AXIS2_PLACEMENT_3D('',#526,#384,#385);
#339=AXIS2_PLACEMENT_3D('',#527,#386,#387);
#340=AXIS2_PLACEMENT_3D('',#529,#388,#389);
#341=AXIS2_PLACEMENT_3D('',#530,#390,#391);
#342=AXIS2_PLACEMENT_3D('',#532,#392,#393);
#343=AXIS2_PLACEMENT_3D('',#533,#394,#395);
#344=AXIS2_PLACEMENT_3D('',#535,#396,#397);
#345=AXIS2_PLACEMENT_3D('',#536,#398,#399);
#346=AXIS2_PLACEMENT_3D('',#538,#400,#401);
#347=AXIS2_PLACEMENT_3D('',#539,#402,#403);
#348=DIRECTION('',(0.,0.,1.));
#349=DIRECTION('',(1.,0.,0.));
#350=DIRECTION('',(0.,1.,-3.75578656798736E-15));
#351=DIRECTION('',(0.,3.75578656798736E-15,1.));
#352=DIRECTION('',(-1.,0.,0.));
#353=DIRECTION('',(-1.,0.,0.));
#354=DIRECTION('',(0.,0.499999999999999,0.866025403784439));
#355=DIRECTION('',(0.,-0.866025403784439,0.499999999999999));
#356=DIRECTION('',(-1.,0.,0.));
#357=DIRECTION('',(0.,-0.500000000000004,0.866025403784436));
#358=DIRECTION('',(0.,-0.866025403784436,-0.500000000000004));
#359=DIRECTION('',(-1.,0.,0.));
#360=DIRECTION('',(0.,-1.,-5.07031148260292E-15));
#361=DIRECTION('',(0.,5.07031148260292E-15,-1.));
#362=DIRECTION('',(-1.,0.,0.));
#363=DIRECTION('',(0.,-0.499999971586064,-0.866025420189232));
#364=DIRECTION('',(0.,0.866025420189232,-0.499999971586064));
#365=DIRECTION('',(-1.,0.,0.));
#366=DIRECTION('',(0.,0.499999971586066,-0.86602542018923));
#367=DIRECTION('',(0.,0.86602542018923,0.499999971586066));
#368=DIRECTION('',(1.,0.,0.));
#369=DIRECTION('',(0.,0.,-1.));
#370=DIRECTION('',(-1.,0.,0.));
#371=DIRECTION('',(0.,0.,1.));
#372=DIRECTION('',(-1.,0.,0.));
#373=DIRECTION('',(0.,0.,1.));
#374=DIRECTION('',(-1.,0.,0.));
#375=DIRECTION('',(0.,0.,1.));
#376=DIRECTION('',(-1.,6.12303176911189E-17,5.0565001891725E-47));
#377=DIRECTION('',(-6.12303176911189E-17,-1.,0.));
#378=DIRECTION('',(-1.,6.12303176911189E-17,5.0565001891725E-47));
#379=DIRECTION('',(-6.12303176911189E-17,-1.,0.));
#380=DIRECTION('',(-1.,0.,0.));
#381=DIRECTION('',(0.,0.,1.));
#382=DIRECTION('',(-1.,0.,0.));
#383=DIRECTION('',(0.,0.,1.));
#384=DIRECTION('',(-1.,0.,0.));
#385=DIRECTION('',(0.,0.,1.));
#386=DIRECTION('',(-1.,6.12303176911189E-17,5.0565001891725E-47));
#387=DIRECTION('',(-6.12303176911189E-17,-1.,0.));
#388=DIRECTION('',(1.,0.,0.));
#389=DIRECTION('',(0.,0.,-1.));
#390=DIRECTION('',(-1.,0.,0.));
#391=DIRECTION('',(0.,0.,1.));
#392=DIRECTION('',(-1.,6.12303176911189E-17,5.0565001891725E-47));
#393=DIRECTION('',(-6.12303176911189E-17,-1.,0.));
#394=DIRECTION('',(-1.,0.,0.));
#395=DIRECTION('',(0.,0.,1.));
#396=DIRECTION('',(-1.,0.,0.));
#397=DIRECTION('',(0.,0.,1.));
#398=DIRECTION('',(-1.,0.,0.));
#399=DIRECTION('',(0.,0.,1.));
#400=DIRECTION('',(1.,0.,0.));
#401=DIRECTION('',(0.,0.,-1.));
#402=DIRECTION('',(-1.,6.12303176911189E-17,5.0565001891725E-47));
#403=DIRECTION('',(-6.12303176911189E-17,-1.,0.));
#404=CARTESIAN_POINT('',(0.,0.,0.));
#405=CARTESIAN_POINT('',(2.8,-2.00000003788524,1.1547005602523));
#406=CARTESIAN_POINT('',(2.8,-2.00000003788525,-1.15470047276008));
#407=CARTESIAN_POINT('',(2.28871265534081,-2.00000003788525,-1.15470047276008));
#408=CARTESIAN_POINT('',(0.32,-1.99999996211474,-1.15470051650621));
#409=CARTESIAN_POINT('',(2.28871265534081,-2.00000003788525,-1.15470047276008));
#410=CARTESIAN_POINT('',(2.22070113308541,-2.00000003788525,-0.386397843180816));
#411=CARTESIAN_POINT('',(2.2207008777749,-2.00000003788525,0.386395004667873));
#412=CARTESIAN_POINT('',(2.28871266308577,-2.00000003788524,1.1547005602523));
#413=CARTESIAN_POINT('',(2.2887126625049,-2.00000003788524,1.1547005602523));
#414=CARTESIAN_POINT('',(2.8,-2.00000003788524,1.1547005602523));
#415=CARTESIAN_POINT('',(0.32,-2.00000003788524,1.1547005602523));
#416=CARTESIAN_POINT('',(0.320000067854074,-2.00000003788524,1.15470052097599));
#417=CARTESIAN_POINT('',(0.141269138648902,-2.00000003788525,0.797238653446537));
#418=CARTESIAN_POINT('',(-0.119769108781441,-2.00000003788525,0.00256515552226748));
#419=CARTESIAN_POINT('',(0.140667605391106,-2.00000003788525,-0.796035578411336));
#420=CARTESIAN_POINT('',(0.320000049634118,-2.00000003788525,-1.15470048453617));
#421=CARTESIAN_POINT('',(2.8,-2.00000003788525,-1.15470047276008));
#422=CARTESIAN_POINT('',(2.8,7.57704983825325E-8,-2.30940107675851));
#423=CARTESIAN_POINT('',(2.28871265417906,7.57704983825325E-8,-2.30940107675851));
#424=CARTESIAN_POINT('',(0.32,1.5154101432914E-7,-2.30940103301238));
#425=CARTESIAN_POINT('',(2.28871265417906,7.57704983825325E-8,-2.30940107675851));
#426=CARTESIAN_POINT('',(2.22070099137027,-0.665370817043391,-1.92524901268147));
#427=CARTESIAN_POINT('',(2.22070099137027,-1.33462914507136,-1.53885253683712));
#428=CARTESIAN_POINT('',(2.28871265417906,-2.00000003788525,-1.15470047276008));
#429=CARTESIAN_POINT('',(0.32,-1.99999996211474,-1.15470051650621));
#430=CARTESIAN_POINT('',(0.139562144876396,-1.6874724294319,-1.33513837162981));
#431=CARTESIAN_POINT('',(-0.117823429666136,-1.00644483990712,-1.7283298337675));
#432=CARTESIAN_POINT('',(0.13849851671589,-0.314369768356884,-2.12789956262646));
#433=CARTESIAN_POINT('',(0.320000054702703,9.47485940878818E-8,-2.30940108771551));
#434=CARTESIAN_POINT('',(2.8,7.57704985263118E-8,-2.30940107675851));
#435=CARTESIAN_POINT('',(2.8,1.99999996211476,-1.15470060399842));
#436=CARTESIAN_POINT('',(2.28871265417906,1.99999996211476,-1.15470060399842));
#437=CARTESIAN_POINT('',(0.32,1.99999996211476,-1.15470051650618));
#438=CARTESIAN_POINT('',(2.28871265534081,1.99999996211476,-1.15470060399842));
#439=CARTESIAN_POINT('',(2.22070100813324,1.33462914467406,-1.53885262455873));
#440=CARTESIAN_POINT('',(2.22070100813324,0.665370893211196,-1.92524905619819));
#441=CARTESIAN_POINT('',(2.28871265534081,7.57704985803425E-8,-2.30940107675851));
#442=CARTESIAN_POINT('',(0.32,1.51541014203123E-7,-2.30940103301238));
#443=CARTESIAN_POINT('',(0.139562183407064,0.312527653007323,-2.12896319591164));
#444=CARTESIAN_POINT('',(-0.117823317009013,0.993555163693404,-1.73577177929149));
#445=CARTESIAN_POINT('',(0.138498555932174,1.68563015018204,-1.33620209954286));
#446=CARTESIAN_POINT('',(0.320000054702695,1.99999998109285,-1.15470059304141));
#447=CARTESIAN_POINT('',(2.8,1.99999996211475,-1.15470060399842));
#448=CARTESIAN_POINT('',(2.8,1.99999996211474,1.15470060399842));
#449=CARTESIAN_POINT('',(2.28871265475993,1.99999996211474,1.15470060399842));
#450=CARTESIAN_POINT('',(0.32,1.99999988634425,1.15470064774454));
#451=CARTESIAN_POINT('',(2.28871265417906,1.99999996211474,1.15470060399842));
#452=CARTESIAN_POINT('',(2.22070111891116,1.99999996211475,0.386397916629518));
#453=CARTESIAN_POINT('',(2.22070085986595,1.99999996211475,-0.386394990285768));
#454=CARTESIAN_POINT('',(2.28871265417906,1.99999996211475,-1.15470060399842));
#455=CARTESIAN_POINT('',(0.32,1.99999996211475,-1.15470051650618));
#456=CARTESIAN_POINT('',(0.141269055265507,1.99999996211475,-0.797238627037195));
#457=CARTESIAN_POINT('',(-0.119769205589883,1.99999996211475,-0.0025650709176789));
#458=CARTESIAN_POINT('',(0.140667579060142,1.99999996211474,0.796035697752104));
#459=CARTESIAN_POINT('',(0.320000049634103,1.99999996211474,1.15470061577451));
#460=CARTESIAN_POINT('',(2.8,1.99999996211474,1.15470060399842));
#461=CARTESIAN_POINT('',(2.8,0.,2.30940103301238));
#462=CARTESIAN_POINT('',(2.28871264701496,0.,2.30940103301238));
#463=CARTESIAN_POINT('',(0.32,0.,2.30940103301238));
#464=CARTESIAN_POINT('',(2.28871264701496,0.,2.30940103301238));
#465=CARTESIAN_POINT('',(2.22070099859877,0.665370842767158,1.92524902693723));
#466=CARTESIAN_POINT('',(2.22070100233617,1.33462911966739,1.53885260988894));
#467=CARTESIAN_POINT('',(2.28871265475993,1.99999996211474,1.15470060399842));
#468=CARTESIAN_POINT('',(0.32,1.99999988634425,1.15470064774454));
#469=CARTESIAN_POINT('',(0.139562173266509,1.68747237915417,1.33513847447803));
#470=CARTESIAN_POINT('',(-0.117823360023921,1.00644485671208,1.7283298680932));
#471=CARTESIAN_POINT('',(0.138498501092222,0.314369841577364,2.12789953410505));
#472=CARTESIAN_POINT('',(0.319999999999642,-1.24275791212642E-13,2.30940103301246));
#473=CARTESIAN_POINT('',(2.8,0.,2.30940103301238));
#474=CARTESIAN_POINT('',(2.2887126625049,-2.00000003788524,1.1547005602523));
#475=CARTESIAN_POINT('',(2.22070100349126,-1.33462917049446,1.53885258054391));
#476=CARTESIAN_POINT('',(2.22070099601065,-0.66537086808722,1.92524901231868));
#477=CARTESIAN_POINT('',(2.28871264701496,2.23121090964629E-16,2.30940103301238));
#478=CARTESIAN_POINT('',(0.32,-5.10128521217577E-17,2.30940103301238));
#479=CARTESIAN_POINT('',(0.139562160230859,-0.312527529768488,2.12896319324324));
#480=CARTESIAN_POINT('',(-0.117823377590959,-0.993555106486332,1.73577176829194));
#481=CARTESIAN_POINT('',(0.138498548554112,-1.68563015675936,1.33620208199298));
#482=CARTESIAN_POINT('',(0.320000072937037,-2.00000001267566,1.15470057480706));
#483=CARTESIAN_POINT('',(2.4589335300976,0.,0.));
#484=CARTESIAN_POINT('',(2.49579405006788,-2.16759126956948,-1.25145931677566));
#485=CARTESIAN_POINT('',(2.41563368230755,-1.44404065199421,-1.66300192962268));
#486=CARTESIAN_POINT('',(2.41563368230755,-0.718181591598677,-2.08207685353577));
#487=CARTESIAN_POINT('',(2.49579405006788,7.46543042893066E-8,-2.50291876285636));
#488=CARTESIAN_POINT('',(2.49579405006788,-2.16759126956948,-1.25145931677566));
#489=CARTESIAN_POINT('',(2.49579405006788,7.46543042992374E-8,-2.50291876285636));
#490=CARTESIAN_POINT('',(2.49579405006788,7.46543042992374E-8,-2.50291876285636));
#491=CARTESIAN_POINT('',(2.41563369877358,0.718181667218166,-2.08207689714014));
#492=CARTESIAN_POINT('',(2.41563369877358,1.44404065194697,-1.66300201691326));
#493=CARTESIAN_POINT('',(2.49579405006788,2.16759119491517,-1.25145944608069));
#494=CARTESIAN_POINT('',(2.49579405006788,2.16759119491517,-1.25145944608069));
#495=CARTESIAN_POINT('',(2.49579405006788,2.16759119491517,-1.25145944608069));
#496=CARTESIAN_POINT('',(2.41563346529927,2.16222222905818,-0.419072670501079));
#497=CARTESIAN_POINT('',(2.41563389440218,2.16222225780772,0.41907712842788));
#498=CARTESIAN_POINT('',(2.49579405048451,2.16759119494307,1.25145945040698));
#499=CARTESIAN_POINT('',(2.49579405048451,2.16759119494307,1.25145945040698));
#500=CARTESIAN_POINT('',(2.49579405048451,2.16759119494307,1.25145945040698));
#501=CARTESIAN_POINT('',(2.41563369367536,1.44404062754962,1.66300200349729));
#502=CARTESIAN_POINT('',(2.41563368875621,0.718181617488798,2.08207686597012));
#503=CARTESIAN_POINT('',(2.49579404090203,-8.81206621792222E-17,2.50291871473562));
#504=CARTESIAN_POINT('',(2.49579404090203,-1.61999744068341E-16,2.50291871473562));
#505=CARTESIAN_POINT('',(2.49579404090203,-1.61999744068342E-16,2.50291871473562));
#506=CARTESIAN_POINT('',(2.41563368596989,-0.718181642452322,2.08207685134193));
#507=CARTESIAN_POINT('',(2.41563369517554,-1.44404067800827,1.66300197469451));
#508=CARTESIAN_POINT('',(2.4957940588171,-2.16759127015547,1.2514594076275));
#509=CARTESIAN_POINT('',(2.4957940588171,-2.16759127015547,1.2514594076275));
#510=CARTESIAN_POINT('',(2.4957940588171,-2.16759127015547,1.2514594076275));
#511=CARTESIAN_POINT('',(2.41563348347244,-2.16222230493892,0.419072689189831));
#512=CARTESIAN_POINT('',(2.41563390787478,-2.16222233317023,-0.419077051532038));
#513=CARTESIAN_POINT('',(2.49579405006788,-2.16759126956948,-1.25145931677566));
#514=CARTESIAN_POINT('',(2.60000000000001,0.,0.));
#515=CARTESIAN_POINT('',(2.60000000000001,0.,3.05));
#516=CARTESIAN_POINT('',(2.70000000000001,0.,0.));
#517=CARTESIAN_POINT('',(2.80000000000001,0.,0.));
#518=CARTESIAN_POINT('',(2.80000000000001,0.,3.05));
#519=CARTESIAN_POINT('',(2.8,-1.47406627932086E-48,-1.21730814101587E-78));
#520=CARTESIAN_POINT('',(2.8,2.44921270764475E-17,2.022600075669E-47));
#521=CARTESIAN_POINT('',(2.8,-1.85,2.022600075669E-47));
#522=CARTESIAN_POINT('',(12.3,0.,0.));
#523=CARTESIAN_POINT('',(10.85,0.,0.));
#524=CARTESIAN_POINT('',(10.85,0.,1.45));
#525=CARTESIAN_POINT('',(12.3,0.,0.));
#526=CARTESIAN_POINT('',(0.,0.,0.));
#527=CARTESIAN_POINT('',(3.2,0.,0.));
#528=CARTESIAN_POINT('',(3.2,-1.45,0.));
#529=CARTESIAN_POINT('',(0.32,0.,0.));
#530=CARTESIAN_POINT('',(-5.42101086242752E-17,0.,0.));
#531=CARTESIAN_POINT('',(-5.42101086242752E-17,0.,1.98940103301238));
#532=CARTESIAN_POINT('',(2.40741243048403E-32,-1.47406627932086E-48,-1.21730814101587E-78));
#533=CARTESIAN_POINT('',(-7.52348378982417E-17,0.,0.));
#534=CARTESIAN_POINT('',(-7.52348378982417E-17,0.,1.6));
#535=CARTESIAN_POINT('',(0.,0.,0.));
#536=CARTESIAN_POINT('',(0.32,0.,0.));
#537=CARTESIAN_POINT('',(0.32,0.,1.6));
#538=CARTESIAN_POINT('',(0.32,0.,1.6));
#539=CARTESIAN_POINT('',(3.2,0.,0.));
#540=CARTESIAN_POINT('',(2.30077160817359,-2.11308401489459,1.0894115006319));
#541=CARTESIAN_POINT('',(2.4699126749116,-2.0990095973196,1.09753736879182));
#542=CARTESIAN_POINT('',(2.49723932145809,-2.18057958410585,1.24407204409058));
#543=CARTESIAN_POINT('',(2.21916233161335,-1.37752183780452,1.51408848940258));
#544=CARTESIAN_POINT('',(2.38533646710003,-1.37912928631569,1.51316042864206));
#545=CARTESIAN_POINT('',(2.41563005398004,-1.45035508908121,1.65939326555473));
#546=CARTESIAN_POINT('',(2.21857096949803,-0.627760941732386,1.94696311177856));
#547=CARTESIAN_POINT('',(2.38473110408086,-0.625978700360485,1.94799208923603));
#548=CARTESIAN_POINT('',(2.41503869174229,-0.717105048532394,2.08269015310999));
#549=CARTESIAN_POINT('',(2.30078215800594,0.113179213469611,2.37474507742458));
#550=CARTESIAN_POINT('',(2.46992373613562,0.0991038570026937,2.36661866719521));
#551=CARTESIAN_POINT('',(2.49724987129043,0.0129856550454015,2.51052824048424));
#552=CARTESIAN_POINT('',(2.28871264701496,0.,2.30940103301238));
#553=CARTESIAN_POINT('',(2.39199812514331,-2.11646634198419E-13,2.30940103301251));
#554=CARTESIAN_POINT('',(2.47677099367324,5.9187131249126E-13,2.40304771678448));
#555=CARTESIAN_POINT('',(2.49579404090203,-1.17979863303616E-15,2.50291871473562));
#556=CARTESIAN_POINT('',(2.2887126625049,-2.00000003788524,1.1547005602523));
#557=CARTESIAN_POINT('',(2.39199814289488,-2.00000003758782,1.15470056042402));
#558=CARTESIAN_POINT('',(2.47677101117804,-2.08110044779939,1.20152390612648));
#559=CARTESIAN_POINT('',(2.4957940588171,-2.16759127015547,1.2514594076275));
#560=CARTESIAN_POINT('',(2.30077155632313,-2.00000003788525,-1.28527814804756));
#561=CARTESIAN_POINT('',(2.46991262014257,-2.00000003788525,-1.26902641699174));
#562=CARTESIAN_POINT('',(2.49723926960763,-2.16768777869996,-1.26640076626132));
#563=CARTESIAN_POINT('',(2.21916472158071,-2.00000003788525,-0.435949226909254));
#564=CARTESIAN_POINT('',(2.38533891311297,-2.00000003788556,-0.437804536540449));
#565=CARTESIAN_POINT('',(2.41563244394711,-2.16225444858875,-0.4263720252687));
#566=CARTESIAN_POINT('',(2.21856918563781,-2.00000003788525,0.429806155066152));
#567=CARTESIAN_POINT('',(2.38472927834674,-2.00000003788569,0.431864723451848));
#568=CARTESIAN_POINT('',(2.41503690788329,-2.16221503847001,0.420295603489118));
#569=CARTESIAN_POINT('',(2.30078220840989,-2.00000003788524,1.28538900684491));
#570=CARTESIAN_POINT('',(2.46992378857768,-2.00000003788524,1.26913618114198));
#571=CARTESIAN_POINT('',(2.49724992169438,-2.16768848789311,1.26651041119092));
#572=CARTESIAN_POINT('',(2.28871265534081,-2.00000003788525,-1.15470047276008));
#573=CARTESIAN_POINT('',(2.39199813471779,-2.00000003788525,-1.15470047344771));
#574=CARTESIAN_POINT('',(2.47677100261347,-2.08110044725091,-1.20152381714852));
#575=CARTESIAN_POINT('',(2.49579405006788,-2.16759126956948,-1.25145931677566));
#576=CARTESIAN_POINT('',(2.30077159005042,-0.113083965202232,2.37469008581594));
#577=CARTESIAN_POINT('',(2.46991265590992,-0.099009549240217,2.36656421858728));
#578=CARTESIAN_POINT('',(2.49723930333492,-0.0128918015114967,2.51047324168735));
#579=CARTESIAN_POINT('',(2.21916232517353,0.622478187063323,1.95001311137771));
#580=CARTESIAN_POINT('',(2.38533645988459,0.62087073739936,1.95094117280321));
#581=CARTESIAN_POINT('',(2.41563004754012,0.711899177120421,2.08574095184203));
#582=CARTESIAN_POINT('',(2.21857097723759,1.37223905737821,1.51713850387268));
#583=CARTESIAN_POINT('',(2.38473111233808,1.37402129685351,1.51610952751029));
#584=CARTESIAN_POINT('',(2.41503869948235,1.44511005887041,1.66237629711278));
#585=CARTESIAN_POINT('',(2.30078216762263,2.11317918648571,1.08935655329232));
#586=CARTESIAN_POINT('',(2.46992374621847,2.099103829163,1.09748296401579));
#587=CARTESIAN_POINT('',(2.49724988090713,2.18067406511182,1.24401830724441));
#588=CARTESIAN_POINT('',(2.28871265475993,1.99999996211474,1.15470060399842));
#589=CARTESIAN_POINT('',(2.39199813495427,1.99999996241239,1.15470060382682));
#590=CARTESIAN_POINT('',(2.4767710028816,2.08110037271704,1.20152394906034));
#591=CARTESIAN_POINT('',(2.49579405048451,2.16759119494307,1.25145945040698));
#592=CARTESIAN_POINT('',(2.30077159949846,0.113084047549339,-2.37469013830605));
#593=CARTESIAN_POINT('',(2.46991266622107,0.0990096302692183,-2.36656426970069));
#594=CARTESIAN_POINT('',(2.49723931278295,0.0128918770535595,-2.51047329090227));
#595=CARTESIAN_POINT('',(2.21916231872872,-0.622478154964356,-1.95001310267906));
#596=CARTESIAN_POINT('',(2.385336454044,-0.620870704897431,-1.95094116440743));
#597=CARTESIAN_POINT('',(2.41563004109478,-0.711899151493323,-2.08574093954251));
#598=CARTESIAN_POINT('',(2.21857096575503,-1.37223907728778,-1.51713843234777));
#599=CARTESIAN_POINT('',(2.38473110101063,-1.37402131825304,-1.5161094550468));
#600=CARTESIAN_POINT('',(2.41503868800016,-1.44511008312741,-1.66237622330148));
#601=CARTESIAN_POINT('',(2.30078216740546,-2.11317925748215,-1.08935641985914));
#602=CARTESIAN_POINT('',(2.46992374639588,-2.09910389970163,-1.09748283146266));
#603=CARTESIAN_POINT('',(2.49724988068995,-2.18067414065031,-1.2440181725299));
#604=CARTESIAN_POINT('',(2.28871265417906,7.57704983825325E-8,-2.30940107675851));
#605=CARTESIAN_POINT('',(2.39199813394385,7.51754177247499E-8,-2.30940107641494));
#606=CARTESIAN_POINT('',(2.47677100254179,7.47233670931269E-8,-2.40304776334436));
#607=CARTESIAN_POINT('',(2.49579405006788,7.4654305448045E-8,-2.50291876285636));
#608=CARTESIAN_POINT('',(2.30077155699135,1.99999996211474,1.28527828469779));
#609=CARTESIAN_POINT('',(2.46991262165343,1.99999996211474,1.26902655185551));
#610=CARTESIAN_POINT('',(2.49723927027584,2.1676877040868,1.2664009009305));
#611=CARTESIAN_POINT('',(2.21916470808192,1.99999996211475,0.435949305243682));
#612=CARTESIAN_POINT('',(2.38533890018699,1.99999996211462,0.437804615220968));
#613=CARTESIAN_POINT('',(2.41563243044806,2.16225437323426,0.426372101581905));
#614=CARTESIAN_POINT('',(2.2185691673735,1.99999996211475,-0.429806136706203));
#615=CARTESIAN_POINT('',(2.38472926022535,1.99999996211499,-0.431864706625624));
#616=CARTESIAN_POINT('',(2.41503688961954,2.16221496259114,-0.420295584696801));
#617=CARTESIAN_POINT('',(2.30078219983215,1.99999996211476,-1.2853890472618));
#618=CARTESIAN_POINT('',(2.4699237803944,1.99999996211476,-1.26913622072267));
#619=CARTESIAN_POINT('',(2.49724991311665,2.16768841266439,-1.26651045068054));
#620=CARTESIAN_POINT('',(2.28871265417906,1.99999996211476,-1.15470060399842));
#621=CARTESIAN_POINT('',(2.39199813394385,1.99999996211497,-1.15470060331091));
#622=CARTESIAN_POINT('',(2.47677100254178,2.08110037220232,-1.20152394638377));
#623=CARTESIAN_POINT('',(2.49579405006788,2.16759119491517,-1.25145944608069));
#624=CARTESIAN_POINT('',(2.30077159920141,2.11308393255222,-1.08941154322531));
#625=CARTESIAN_POINT('',(2.46991266509937,2.09900951678619,-1.09753741095652));
#626=CARTESIAN_POINT('',(2.4972393124859,2.18057950797127,-1.2440720824828));
#627=CARTESIAN_POINT('',(2.2191623351793,1.37752180544594,-1.51408853531583));
#628=CARTESIAN_POINT('',(2.38533647000767,1.37912925436052,-1.5131604742522));
#629=CARTESIAN_POINT('',(2.41563005754555,1.45035506322336,-1.65939330736919));
#630=CARTESIAN_POINT('',(2.21857098238612,0.627760961230758,-1.9469631605513));
#631=CARTESIAN_POINT('',(2.38473111715375,0.625978721470908,-1.94799213715543));
#632=CARTESIAN_POINT('',(2.41503870463092,0.717105073350585,-2.08269019892668));
#633=CARTESIAN_POINT('',(2.30078216710516,-0.113179142465519,-2.37474512887374));
#634=CARTESIAN_POINT('',(2.46992374527079,-0.0991037861992342,-2.36661871814446));
#635=CARTESIAN_POINT('',(2.49724988038966,-0.0129855794884562,-2.51052828864659));
#636=MECHANICAL_DESIGN_GEOMETRIC_PRESENTATION_REPRESENTATION('',(#312),
#637);
#637=(
GEOMETRIC_REPRESENTATION_CONTEXT(3)
GLOBAL_UNCERTAINTY_ASSIGNED_CONTEXT((#638))
GLOBAL_UNIT_ASSIGNED_CONTEXT((#641,#640,#639))
REPRESENTATION_CONTEXT(
'\X2\516D89D26CD55170976281EA94BB81EA653B87BA9489\X0\ GBT15856.4-2002',
'TOP_LEVEL_ASSEMBLY_PART')
);
#638=UNCERTAINTY_MEASURE_WITH_UNIT(LENGTH_MEASURE(0.005),#641,
'DISTANCE_ACCURACY_VALUE','Maximum Tolerance applied to model');
#639=(
NAMED_UNIT(*)
SI_UNIT($,.STERADIAN.)
SOLID_ANGLE_UNIT()
);
#640=(
NAMED_UNIT(*)
PLANE_ANGLE_UNIT()
SI_UNIT($,.RADIAN.)
);
#641=(
LENGTH_UNIT()
NAMED_UNIT(*)
SI_UNIT(.MILLI.,.METRE.)
);
#642=PRODUCT_DEFINITION_SHAPE('','',#643);
#643=PRODUCT_DEFINITION('','',#645,#644);
#644=PRODUCT_DEFINITION_CONTEXT('',#651,'design');
#645=PRODUCT_DEFINITION_FORMATION_WITH_SPECIFIED_SOURCE('','',#647,
 .NOT_KNOWN.);
#646=PRODUCT_RELATED_PRODUCT_CATEGORY('','',(#647));
#647=PRODUCT('\X2\516D89D26CD55170976281EA94BB81EA653B87BA9489\X0\ GBT
15856.4-2002','\X2\516D89D26CD55170976281EA94BB81EA653B87BA9489\X0\ GB
T15856.4-2002','\X2\516D89D26CD55170976281EA94BB81EA653B87BA9489\X0\ G
BT15856.4-2002',(#649));
#648=PRODUCT_CATEGORY('','');
#649=PRODUCT_CONTEXT('',#651,'mechanical');
#650=APPLICATION_PROTOCOL_DEFINITION('international standard',
'automotive_design',2010,#651);
#651=APPLICATION_CONTEXT(
'core data for automotive mechanical design processes');
ENDSEC;
END-ISO-10303-21;
