ISO-10303-21;
HEADER;
/* Generated by software containing HOOPS Exchange Step
 * from HOOPS Exchange, Inc. (www.tiangong.cloud) 
 */

FILE_DESCRIPTION(
/* description */ ('Unknown'),
/* implementation_level */ '2;1');

FILE_NAME(
/* name */ '\X2\5185516D89D282B15F624F4E570667F1593487BA9489\X0\',
/* time_stamp */ '2025-09-11T09:31:40+08:00',
/* author */ ('Unknown'),
/* organization */ ('Unknown'),
/* preprocessor_version */ 'ST-DEVELOPER v19.4',
/* originating_system */ 'TianGong',
/* authorisation */ 'Unknown');

FILE_SCHEMA (('AUTOMOTIVE_DESIGN {1 0 10303 214 3 1 1}'));
ENDSEC;

DATA;
#10=PROPERTY_DEFINITION_REPRESENTATION(#14,#12);
#11=PROPERTY_DEFINITION_REPRESENTATION(#15,#13);
#12=REPRESENTATION('',(#16),#727);
#13=REPRESENTATION('',(#17),#727);
#14=PROPERTY_DEFINITION('pmi validation property','',#732);
#15=PROPERTY_DEFINITION('pmi validation property','',#732);
#16=VALUE_REPRESENTATION_ITEM('number of annotations',COUNT_MEASURE(0.));
#17=VALUE_REPRESENTATION_ITEM('number of views',COUNT_MEASURE(0.));
#18=SHAPE_REPRESENTATION_RELATIONSHIP('','',#467,#19);
#19=ADVANCED_BREP_SHAPE_REPRESENTATION('',(#465),#727);
#20=LINE('',#678,#32);
#21=LINE('',#682,#33);
#22=LINE('',#684,#34);
#23=LINE('',#688,#35);
#24=LINE('',#692,#36);
#25=LINE('',#696,#37);
#26=LINE('',#700,#38);
#27=LINE('',#704,#39);
#28=LINE('',#708,#40);
#29=LINE('',#712,#41);
#30=LINE('',#716,#42);
#31=LINE('',#720,#43);
#32=VECTOR('',#573,1000.);
#33=VECTOR('',#576,1000.);
#34=VECTOR('',#579,1000.);
#35=VECTOR('',#584,1000.);
#36=VECTOR('',#589,1000.);
#37=VECTOR('',#594,1000.);
#38=VECTOR('',#599,1000.);
#39=VECTOR('',#604,1000.);
#40=VECTOR('',#609,1000.);
#41=VECTOR('',#614,1000.);
#42=VECTOR('',#619,1000.);
#43=VECTOR('',#624,1000.);
#44=TOROIDAL_SURFACE('',#492,1.1,0.1);
#45=TOROIDAL_SURFACE('',#493,1.80836688259826,0.1);
#46=CONICAL_SURFACE('',#487,1.9,0.0872664625997163);
#47=CYLINDRICAL_SURFACE('',#483,1.);
#48=CYLINDRICAL_SURFACE('',#494,0.125);
#49=CYLINDRICAL_SURFACE('',#496,0.420017320762117);
#50=CYLINDRICAL_SURFACE('',#498,0.125);
#51=CYLINDRICAL_SURFACE('',#500,0.420017320762117);
#52=CYLINDRICAL_SURFACE('',#502,0.125);
#53=CYLINDRICAL_SURFACE('',#504,0.420017320762117);
#54=CYLINDRICAL_SURFACE('',#506,0.125);
#55=CYLINDRICAL_SURFACE('',#508,0.420017320762117);
#56=CYLINDRICAL_SURFACE('',#510,0.125);
#57=CYLINDRICAL_SURFACE('',#512,0.420017320762117);
#58=CYLINDRICAL_SURFACE('',#514,0.125);
#59=CYLINDRICAL_SURFACE('',#516,0.420017320762117);
#60=ORIENTED_EDGE('',*,*,#144,.T.);
#61=ORIENTED_EDGE('',*,*,#145,.F.);
#62=ORIENTED_EDGE('',*,*,#146,.F.);
#63=ORIENTED_EDGE('',*,*,#147,.F.);
#64=ORIENTED_EDGE('',*,*,#148,.F.);
#65=ORIENTED_EDGE('',*,*,#149,.F.);
#66=ORIENTED_EDGE('',*,*,#150,.F.);
#67=ORIENTED_EDGE('',*,*,#151,.F.);
#68=ORIENTED_EDGE('',*,*,#152,.F.);
#69=ORIENTED_EDGE('',*,*,#153,.F.);
#70=ORIENTED_EDGE('',*,*,#154,.F.);
#71=ORIENTED_EDGE('',*,*,#155,.F.);
#72=ORIENTED_EDGE('',*,*,#156,.F.);
#73=ORIENTED_EDGE('',*,*,#157,.T.);
#74=ORIENTED_EDGE('',*,*,#158,.T.);
#75=ORIENTED_EDGE('',*,*,#158,.F.);
#76=ORIENTED_EDGE('',*,*,#159,.T.);
#77=ORIENTED_EDGE('',*,*,#160,.T.);
#78=ORIENTED_EDGE('',*,*,#161,.T.);
#79=ORIENTED_EDGE('',*,*,#160,.F.);
#80=ORIENTED_EDGE('',*,*,#157,.F.);
#81=ORIENTED_EDGE('',*,*,#161,.F.);
#82=ORIENTED_EDGE('',*,*,#159,.F.);
#83=ORIENTED_EDGE('',*,*,#144,.F.);
#84=ORIENTED_EDGE('',*,*,#145,.T.);
#85=ORIENTED_EDGE('',*,*,#162,.F.);
#86=ORIENTED_EDGE('',*,*,#163,.F.);
#87=ORIENTED_EDGE('',*,*,#164,.T.);
#88=ORIENTED_EDGE('',*,*,#156,.T.);
#89=ORIENTED_EDGE('',*,*,#165,.F.);
#90=ORIENTED_EDGE('',*,*,#166,.F.);
#91=ORIENTED_EDGE('',*,*,#162,.T.);
#92=ORIENTED_EDGE('',*,*,#155,.T.);
#93=ORIENTED_EDGE('',*,*,#167,.F.);
#94=ORIENTED_EDGE('',*,*,#168,.F.);
#95=ORIENTED_EDGE('',*,*,#165,.T.);
#96=ORIENTED_EDGE('',*,*,#154,.T.);
#97=ORIENTED_EDGE('',*,*,#169,.F.);
#98=ORIENTED_EDGE('',*,*,#170,.F.);
#99=ORIENTED_EDGE('',*,*,#167,.T.);
#100=ORIENTED_EDGE('',*,*,#153,.T.);
#101=ORIENTED_EDGE('',*,*,#171,.F.);
#102=ORIENTED_EDGE('',*,*,#172,.F.);
#103=ORIENTED_EDGE('',*,*,#169,.T.);
#104=ORIENTED_EDGE('',*,*,#152,.T.);
#105=ORIENTED_EDGE('',*,*,#173,.F.);
#106=ORIENTED_EDGE('',*,*,#174,.F.);
#107=ORIENTED_EDGE('',*,*,#171,.T.);
#108=ORIENTED_EDGE('',*,*,#151,.T.);
#109=ORIENTED_EDGE('',*,*,#175,.F.);
#110=ORIENTED_EDGE('',*,*,#176,.F.);
#111=ORIENTED_EDGE('',*,*,#173,.T.);
#112=ORIENTED_EDGE('',*,*,#150,.T.);
#113=ORIENTED_EDGE('',*,*,#177,.F.);
#114=ORIENTED_EDGE('',*,*,#178,.F.);
#115=ORIENTED_EDGE('',*,*,#175,.T.);
#116=ORIENTED_EDGE('',*,*,#149,.T.);
#117=ORIENTED_EDGE('',*,*,#179,.F.);
#118=ORIENTED_EDGE('',*,*,#180,.F.);
#119=ORIENTED_EDGE('',*,*,#177,.T.);
#120=ORIENTED_EDGE('',*,*,#148,.T.);
#121=ORIENTED_EDGE('',*,*,#181,.F.);
#122=ORIENTED_EDGE('',*,*,#182,.F.);
#123=ORIENTED_EDGE('',*,*,#179,.T.);
#124=ORIENTED_EDGE('',*,*,#147,.T.);
#125=ORIENTED_EDGE('',*,*,#183,.F.);
#126=ORIENTED_EDGE('',*,*,#184,.F.);
#127=ORIENTED_EDGE('',*,*,#181,.T.);
#128=ORIENTED_EDGE('',*,*,#146,.T.);
#129=ORIENTED_EDGE('',*,*,#164,.F.);
#130=ORIENTED_EDGE('',*,*,#185,.F.);
#131=ORIENTED_EDGE('',*,*,#183,.T.);
#132=ORIENTED_EDGE('',*,*,#163,.T.);
#133=ORIENTED_EDGE('',*,*,#166,.T.);
#134=ORIENTED_EDGE('',*,*,#168,.T.);
#135=ORIENTED_EDGE('',*,*,#170,.T.);
#136=ORIENTED_EDGE('',*,*,#172,.T.);
#137=ORIENTED_EDGE('',*,*,#174,.T.);
#138=ORIENTED_EDGE('',*,*,#176,.T.);
#139=ORIENTED_EDGE('',*,*,#178,.T.);
#140=ORIENTED_EDGE('',*,*,#180,.T.);
#141=ORIENTED_EDGE('',*,*,#182,.T.);
#142=ORIENTED_EDGE('',*,*,#184,.T.);
#143=ORIENTED_EDGE('',*,*,#185,.T.);
#144=EDGE_CURVE('',#186,#186,#216,.T.);
#145=EDGE_CURVE('',#187,#188,#217,.T.);
#146=EDGE_CURVE('',#189,#187,#218,.T.);
#147=EDGE_CURVE('',#190,#189,#219,.T.);
#148=EDGE_CURVE('',#191,#190,#220,.T.);
#149=EDGE_CURVE('',#192,#191,#221,.T.);
#150=EDGE_CURVE('',#193,#192,#222,.T.);
#151=EDGE_CURVE('',#194,#193,#223,.T.);
#152=EDGE_CURVE('',#195,#194,#224,.T.);
#153=EDGE_CURVE('',#196,#195,#225,.T.);
#154=EDGE_CURVE('',#197,#196,#226,.T.);
#155=EDGE_CURVE('',#198,#197,#227,.T.);
#156=EDGE_CURVE('',#188,#198,#228,.T.);
#157=EDGE_CURVE('',#199,#199,#229,.T.);
#158=EDGE_CURVE('',#200,#200,#230,.T.);
#159=EDGE_CURVE('',#201,#201,#231,.F.);
#160=EDGE_CURVE('',#202,#202,#232,.T.);
#161=EDGE_CURVE('',#203,#203,#233,.F.);
#162=EDGE_CURVE('',#204,#188,#20,.T.);
#163=EDGE_CURVE('',#205,#204,#234,.T.);
#164=EDGE_CURVE('',#205,#187,#21,.T.);
#165=EDGE_CURVE('',#206,#198,#22,.T.);
#166=EDGE_CURVE('',#204,#206,#235,.T.);
#167=EDGE_CURVE('',#207,#197,#23,.T.);
#168=EDGE_CURVE('',#206,#207,#236,.T.);
#169=EDGE_CURVE('',#208,#196,#24,.T.);
#170=EDGE_CURVE('',#207,#208,#237,.T.);
#171=EDGE_CURVE('',#209,#195,#25,.T.);
#172=EDGE_CURVE('',#208,#209,#238,.T.);
#173=EDGE_CURVE('',#210,#194,#26,.T.);
#174=EDGE_CURVE('',#209,#210,#239,.T.);
#175=EDGE_CURVE('',#211,#193,#27,.T.);
#176=EDGE_CURVE('',#210,#211,#240,.T.);
#177=EDGE_CURVE('',#212,#192,#28,.T.);
#178=EDGE_CURVE('',#211,#212,#241,.T.);
#179=EDGE_CURVE('',#213,#191,#29,.T.);
#180=EDGE_CURVE('',#212,#213,#242,.T.);
#181=EDGE_CURVE('',#214,#190,#30,.T.);
#182=EDGE_CURVE('',#213,#214,#243,.T.);
#183=EDGE_CURVE('',#215,#189,#31,.T.);
#184=EDGE_CURVE('',#214,#215,#244,.T.);
#185=EDGE_CURVE('',#215,#205,#245,.T.);
#186=VERTEX_POINT('',#636);
#187=VERTEX_POINT('',#638);
#188=VERTEX_POINT('',#639);
#189=VERTEX_POINT('',#641);
#190=VERTEX_POINT('',#643);
#191=VERTEX_POINT('',#645);
#192=VERTEX_POINT('',#647);
#193=VERTEX_POINT('',#649);
#194=VERTEX_POINT('',#651);
#195=VERTEX_POINT('',#653);
#196=VERTEX_POINT('',#655);
#197=VERTEX_POINT('',#657);
#198=VERTEX_POINT('',#659);
#199=VERTEX_POINT('',#663);
#200=VERTEX_POINT('',#665);
#201=VERTEX_POINT('',#669);
#202=VERTEX_POINT('',#671);
#203=VERTEX_POINT('',#674);
#204=VERTEX_POINT('',#679);
#205=VERTEX_POINT('',#681);
#206=VERTEX_POINT('',#685);
#207=VERTEX_POINT('',#689);
#208=VERTEX_POINT('',#693);
#209=VERTEX_POINT('',#697);
#210=VERTEX_POINT('',#701);
#211=VERTEX_POINT('',#705);
#212=VERTEX_POINT('',#709);
#213=VERTEX_POINT('',#713);
#214=VERTEX_POINT('',#717);
#215=VERTEX_POINT('',#721);
#216=CIRCLE('',#470,1.80836688259826);
#217=CIRCLE('',#471,0.125);
#218=CIRCLE('',#472,0.420017320762117);
#219=CIRCLE('',#473,0.125);
#220=CIRCLE('',#474,0.420017320762117);
#221=CIRCLE('',#475,0.125);
#222=CIRCLE('',#476,0.420017320762117);
#223=CIRCLE('',#477,0.125);
#224=CIRCLE('',#478,0.420017320762117);
#225=CIRCLE('',#479,0.125);
#226=CIRCLE('',#480,0.420017320762117);
#227=CIRCLE('',#481,0.125);
#228=CIRCLE('',#482,0.420017320762117);
#229=CIRCLE('',#484,1.);
#230=CIRCLE('',#485,1.);
#231=CIRCLE('',#488,1.90798635240743);
#232=CIRCLE('',#489,2.03560742846518);
#233=CIRCLE('',#491,1.1);
#234=CIRCLE('',#495,0.125);
#235=CIRCLE('',#497,0.420017320762117);
#236=CIRCLE('',#499,0.125);
#237=CIRCLE('',#501,0.420017320762117);
#238=CIRCLE('',#503,0.125);
#239=CIRCLE('',#505,0.420017320762117);
#240=CIRCLE('',#507,0.125);
#241=CIRCLE('',#509,0.420017320762117);
#242=CIRCLE('',#511,0.125);
#243=CIRCLE('',#513,0.420017320762117);
#244=CIRCLE('',#515,0.125);
#245=CIRCLE('',#517,0.420017320762117);
#246=EDGE_LOOP('',(#60));
#247=EDGE_LOOP('',(#61,#62,#63,#64,#65,#66,#67,#68,#69,#70,#71,#72));
#248=EDGE_LOOP('',(#73));
#249=EDGE_LOOP('',(#74));
#250=EDGE_LOOP('',(#75));
#251=EDGE_LOOP('',(#76));
#252=EDGE_LOOP('',(#77));
#253=EDGE_LOOP('',(#78));
#254=EDGE_LOOP('',(#79));
#255=EDGE_LOOP('',(#80));
#256=EDGE_LOOP('',(#81));
#257=EDGE_LOOP('',(#82));
#258=EDGE_LOOP('',(#83));
#259=EDGE_LOOP('',(#84,#85,#86,#87));
#260=EDGE_LOOP('',(#88,#89,#90,#91));
#261=EDGE_LOOP('',(#92,#93,#94,#95));
#262=EDGE_LOOP('',(#96,#97,#98,#99));
#263=EDGE_LOOP('',(#100,#101,#102,#103));
#264=EDGE_LOOP('',(#104,#105,#106,#107));
#265=EDGE_LOOP('',(#108,#109,#110,#111));
#266=EDGE_LOOP('',(#112,#113,#114,#115));
#267=EDGE_LOOP('',(#116,#117,#118,#119));
#268=EDGE_LOOP('',(#120,#121,#122,#123));
#269=EDGE_LOOP('',(#124,#125,#126,#127));
#270=EDGE_LOOP('',(#128,#129,#130,#131));
#271=EDGE_LOOP('',(#132,#133,#134,#135,#136,#137,#138,#139,#140,#141,#142,
#143));
#272=FACE_BOUND('',#246,.T.);
#273=FACE_BOUND('',#247,.T.);
#274=FACE_BOUND('',#248,.T.);
#275=FACE_BOUND('',#249,.T.);
#276=FACE_BOUND('',#250,.T.);
#277=FACE_BOUND('',#251,.T.);
#278=FACE_BOUND('',#252,.T.);
#279=FACE_BOUND('',#253,.T.);
#280=FACE_BOUND('',#254,.T.);
#281=FACE_BOUND('',#255,.T.);
#282=FACE_BOUND('',#256,.T.);
#283=FACE_BOUND('',#257,.T.);
#284=FACE_BOUND('',#258,.T.);
#285=FACE_BOUND('',#259,.T.);
#286=FACE_BOUND('',#260,.T.);
#287=FACE_BOUND('',#261,.T.);
#288=FACE_BOUND('',#262,.T.);
#289=FACE_BOUND('',#263,.T.);
#290=FACE_BOUND('',#264,.T.);
#291=FACE_BOUND('',#265,.T.);
#292=FACE_BOUND('',#266,.T.);
#293=FACE_BOUND('',#267,.T.);
#294=FACE_BOUND('',#268,.T.);
#295=FACE_BOUND('',#269,.T.);
#296=FACE_BOUND('',#270,.T.);
#297=FACE_BOUND('',#271,.T.);
#298=PLANE('',#469);
#299=PLANE('',#486);
#300=PLANE('',#490);
#301=PLANE('',#518);
#302=STYLED_ITEM('',(#322),#444);
#303=STYLED_ITEM('',(#323),#445);
#304=STYLED_ITEM('',(#324),#446);
#305=STYLED_ITEM('',(#325),#447);
#306=STYLED_ITEM('',(#326),#448);
#307=STYLED_ITEM('',(#327),#449);
#308=STYLED_ITEM('',(#328),#450);
#309=STYLED_ITEM('',(#329),#451);
#310=STYLED_ITEM('',(#330),#452);
#311=STYLED_ITEM('',(#331),#453);
#312=STYLED_ITEM('',(#332),#454);
#313=STYLED_ITEM('',(#333),#455);
#314=STYLED_ITEM('',(#334),#456);
#315=STYLED_ITEM('',(#335),#457);
#316=STYLED_ITEM('',(#336),#458);
#317=STYLED_ITEM('',(#337),#459);
#318=STYLED_ITEM('',(#338),#460);
#319=STYLED_ITEM('',(#339),#461);
#320=STYLED_ITEM('',(#340),#462);
#321=STYLED_ITEM('',(#341),#463);
#322=PRESENTATION_STYLE_ASSIGNMENT((#342));
#323=PRESENTATION_STYLE_ASSIGNMENT((#343));
#324=PRESENTATION_STYLE_ASSIGNMENT((#344));
#325=PRESENTATION_STYLE_ASSIGNMENT((#345));
#326=PRESENTATION_STYLE_ASSIGNMENT((#346));
#327=PRESENTATION_STYLE_ASSIGNMENT((#347));
#328=PRESENTATION_STYLE_ASSIGNMENT((#348));
#329=PRESENTATION_STYLE_ASSIGNMENT((#349));
#330=PRESENTATION_STYLE_ASSIGNMENT((#350));
#331=PRESENTATION_STYLE_ASSIGNMENT((#351));
#332=PRESENTATION_STYLE_ASSIGNMENT((#352));
#333=PRESENTATION_STYLE_ASSIGNMENT((#353));
#334=PRESENTATION_STYLE_ASSIGNMENT((#354));
#335=PRESENTATION_STYLE_ASSIGNMENT((#355));
#336=PRESENTATION_STYLE_ASSIGNMENT((#356));
#337=PRESENTATION_STYLE_ASSIGNMENT((#357));
#338=PRESENTATION_STYLE_ASSIGNMENT((#358));
#339=PRESENTATION_STYLE_ASSIGNMENT((#359));
#340=PRESENTATION_STYLE_ASSIGNMENT((#360));
#341=PRESENTATION_STYLE_ASSIGNMENT((#361));
#342=SURFACE_STYLE_USAGE(.BOTH.,#362);
#343=SURFACE_STYLE_USAGE(.BOTH.,#363);
#344=SURFACE_STYLE_USAGE(.BOTH.,#364);
#345=SURFACE_STYLE_USAGE(.BOTH.,#365);
#346=SURFACE_STYLE_USAGE(.BOTH.,#366);
#347=SURFACE_STYLE_USAGE(.BOTH.,#367);
#348=SURFACE_STYLE_USAGE(.BOTH.,#368);
#349=SURFACE_STYLE_USAGE(.BOTH.,#369);
#350=SURFACE_STYLE_USAGE(.BOTH.,#370);
#351=SURFACE_STYLE_USAGE(.BOTH.,#371);
#352=SURFACE_STYLE_USAGE(.BOTH.,#372);
#353=SURFACE_STYLE_USAGE(.BOTH.,#373);
#354=SURFACE_STYLE_USAGE(.BOTH.,#374);
#355=SURFACE_STYLE_USAGE(.BOTH.,#375);
#356=SURFACE_STYLE_USAGE(.BOTH.,#376);
#357=SURFACE_STYLE_USAGE(.BOTH.,#377);
#358=SURFACE_STYLE_USAGE(.BOTH.,#378);
#359=SURFACE_STYLE_USAGE(.BOTH.,#379);
#360=SURFACE_STYLE_USAGE(.BOTH.,#380);
#361=SURFACE_STYLE_USAGE(.BOTH.,#381);
#362=SURFACE_SIDE_STYLE('',(#382));
#363=SURFACE_SIDE_STYLE('',(#383));
#364=SURFACE_SIDE_STYLE('',(#384));
#365=SURFACE_SIDE_STYLE('',(#385));
#366=SURFACE_SIDE_STYLE('',(#386));
#367=SURFACE_SIDE_STYLE('',(#387));
#368=SURFACE_SIDE_STYLE('',(#388));
#369=SURFACE_SIDE_STYLE('',(#389));
#370=SURFACE_SIDE_STYLE('',(#390));
#371=SURFACE_SIDE_STYLE('',(#391));
#372=SURFACE_SIDE_STYLE('',(#392));
#373=SURFACE_SIDE_STYLE('',(#393));
#374=SURFACE_SIDE_STYLE('',(#394));
#375=SURFACE_SIDE_STYLE('',(#395));
#376=SURFACE_SIDE_STYLE('',(#396));
#377=SURFACE_SIDE_STYLE('',(#397));
#378=SURFACE_SIDE_STYLE('',(#398));
#379=SURFACE_SIDE_STYLE('',(#399));
#380=SURFACE_SIDE_STYLE('',(#400));
#381=SURFACE_SIDE_STYLE('',(#401));
#382=SURFACE_STYLE_FILL_AREA(#402);
#383=SURFACE_STYLE_FILL_AREA(#403);
#384=SURFACE_STYLE_FILL_AREA(#404);
#385=SURFACE_STYLE_FILL_AREA(#405);
#386=SURFACE_STYLE_FILL_AREA(#406);
#387=SURFACE_STYLE_FILL_AREA(#407);
#388=SURFACE_STYLE_FILL_AREA(#408);
#389=SURFACE_STYLE_FILL_AREA(#409);
#390=SURFACE_STYLE_FILL_AREA(#410);
#391=SURFACE_STYLE_FILL_AREA(#411);
#392=SURFACE_STYLE_FILL_AREA(#412);
#393=SURFACE_STYLE_FILL_AREA(#413);
#394=SURFACE_STYLE_FILL_AREA(#414);
#395=SURFACE_STYLE_FILL_AREA(#415);
#396=SURFACE_STYLE_FILL_AREA(#416);
#397=SURFACE_STYLE_FILL_AREA(#417);
#398=SURFACE_STYLE_FILL_AREA(#418);
#399=SURFACE_STYLE_FILL_AREA(#419);
#400=SURFACE_STYLE_FILL_AREA(#420);
#401=SURFACE_STYLE_FILL_AREA(#421);
#402=FILL_AREA_STYLE('',(#422));
#403=FILL_AREA_STYLE('',(#423));
#404=FILL_AREA_STYLE('',(#424));
#405=FILL_AREA_STYLE('',(#425));
#406=FILL_AREA_STYLE('',(#426));
#407=FILL_AREA_STYLE('',(#427));
#408=FILL_AREA_STYLE('',(#428));
#409=FILL_AREA_STYLE('',(#429));
#410=FILL_AREA_STYLE('',(#430));
#411=FILL_AREA_STYLE('',(#431));
#412=FILL_AREA_STYLE('',(#432));
#413=FILL_AREA_STYLE('',(#433));
#414=FILL_AREA_STYLE('',(#434));
#415=FILL_AREA_STYLE('',(#435));
#416=FILL_AREA_STYLE('',(#436));
#417=FILL_AREA_STYLE('',(#437));
#418=FILL_AREA_STYLE('',(#438));
#419=FILL_AREA_STYLE('',(#439));
#420=FILL_AREA_STYLE('',(#440));
#421=FILL_AREA_STYLE('',(#441));
#422=FILL_AREA_STYLE_COLOUR('',#442);
#423=FILL_AREA_STYLE_COLOUR('',#443);
#424=FILL_AREA_STYLE_COLOUR('',#442);
#425=FILL_AREA_STYLE_COLOUR('',#442);
#426=FILL_AREA_STYLE_COLOUR('',#442);
#427=FILL_AREA_STYLE_COLOUR('',#442);
#428=FILL_AREA_STYLE_COLOUR('',#442);
#429=FILL_AREA_STYLE_COLOUR('',#442);
#430=FILL_AREA_STYLE_COLOUR('',#442);
#431=FILL_AREA_STYLE_COLOUR('',#442);
#432=FILL_AREA_STYLE_COLOUR('',#442);
#433=FILL_AREA_STYLE_COLOUR('',#442);
#434=FILL_AREA_STYLE_COLOUR('',#442);
#435=FILL_AREA_STYLE_COLOUR('',#442);
#436=FILL_AREA_STYLE_COLOUR('',#442);
#437=FILL_AREA_STYLE_COLOUR('',#442);
#438=FILL_AREA_STYLE_COLOUR('',#442);
#439=FILL_AREA_STYLE_COLOUR('',#442);
#440=FILL_AREA_STYLE_COLOUR('',#442);
#441=FILL_AREA_STYLE_COLOUR('',#442);
#442=COLOUR_RGB('',0.506983280181885,0.531564235687256,0.550000011920929);
#443=COLOUR_RGB('',0.1875,0.75,0.581249892711639);
#444=ADVANCED_FACE('',(#272,#273),#298,.T.);
#445=ADVANCED_FACE('',(#274,#275),#47,.T.);
#446=ADVANCED_FACE('',(#276),#299,.T.);
#447=ADVANCED_FACE('',(#277,#278),#46,.T.);
#448=ADVANCED_FACE('',(#279,#280),#300,.T.);
#449=ADVANCED_FACE('',(#281,#282),#44,.F.);
#450=ADVANCED_FACE('',(#283,#284),#45,.T.);
#451=ADVANCED_FACE('',(#285),#48,.F.);
#452=ADVANCED_FACE('',(#286),#49,.T.);
#453=ADVANCED_FACE('',(#287),#50,.F.);
#454=ADVANCED_FACE('',(#288),#51,.T.);
#455=ADVANCED_FACE('',(#289),#52,.F.);
#456=ADVANCED_FACE('',(#290),#53,.T.);
#457=ADVANCED_FACE('',(#291),#54,.F.);
#458=ADVANCED_FACE('',(#292),#55,.T.);
#459=ADVANCED_FACE('',(#293),#56,.F.);
#460=ADVANCED_FACE('',(#294),#57,.T.);
#461=ADVANCED_FACE('',(#295),#58,.F.);
#462=ADVANCED_FACE('',(#296),#59,.T.);
#463=ADVANCED_FACE('',(#297),#301,.T.);
#464=CLOSED_SHELL('',(#444,#445,#446,#447,#448,#449,#450,#451,#452,#453,
#454,#455,#456,#457,#458,#459,#460,#461,#462,#463));
#465=MANIFOLD_SOLID_BREP('',#464);
#466=SHAPE_DEFINITION_REPRESENTATION(#732,#467);
#467=SHAPE_REPRESENTATION('\X2\5185516D89D282B15F624F4E570667F1593487BA9489\X0\',
(#468),#727);
#468=AXIS2_PLACEMENT_3D('',#633,#519,#520);
#469=AXIS2_PLACEMENT_3D('',#634,#521,#522);
#470=AXIS2_PLACEMENT_3D('',#635,#523,#524);
#471=AXIS2_PLACEMENT_3D('',#637,#525,#526);
#472=AXIS2_PLACEMENT_3D('',#640,#527,#528);
#473=AXIS2_PLACEMENT_3D('',#642,#529,#530);
#474=AXIS2_PLACEMENT_3D('',#644,#531,#532);
#475=AXIS2_PLACEMENT_3D('',#646,#533,#534);
#476=AXIS2_PLACEMENT_3D('',#648,#535,#536);
#477=AXIS2_PLACEMENT_3D('',#650,#537,#538);
#478=AXIS2_PLACEMENT_3D('',#652,#539,#540);
#479=AXIS2_PLACEMENT_3D('',#654,#541,#542);
#480=AXIS2_PLACEMENT_3D('',#656,#543,#544);
#481=AXIS2_PLACEMENT_3D('',#658,#545,#546);
#482=AXIS2_PLACEMENT_3D('',#660,#547,#548);
#483=AXIS2_PLACEMENT_3D('',#661,#549,#550);
#484=AXIS2_PLACEMENT_3D('',#662,#551,#552);
#485=AXIS2_PLACEMENT_3D('',#664,#553,#554);
#486=AXIS2_PLACEMENT_3D('',#666,#555,#556);
#487=AXIS2_PLACEMENT_3D('',#667,#557,#558);
#488=AXIS2_PLACEMENT_3D('',#668,#559,#560);
#489=AXIS2_PLACEMENT_3D('',#670,#561,#562);
#490=AXIS2_PLACEMENT_3D('',#672,#563,#564);
#491=AXIS2_PLACEMENT_3D('',#673,#565,#566);
#492=AXIS2_PLACEMENT_3D('',#675,#567,#568);
#493=AXIS2_PLACEMENT_3D('',#676,#569,#570);
#494=AXIS2_PLACEMENT_3D('',#677,#571,#572);
#495=AXIS2_PLACEMENT_3D('',#680,#574,#575);
#496=AXIS2_PLACEMENT_3D('',#683,#577,#578);
#497=AXIS2_PLACEMENT_3D('',#686,#580,#581);
#498=AXIS2_PLACEMENT_3D('',#687,#582,#583);
#499=AXIS2_PLACEMENT_3D('',#690,#585,#586);
#500=AXIS2_PLACEMENT_3D('',#691,#587,#588);
#501=AXIS2_PLACEMENT_3D('',#694,#590,#591);
#502=AXIS2_PLACEMENT_3D('',#695,#592,#593);
#503=AXIS2_PLACEMENT_3D('',#698,#595,#596);
#504=AXIS2_PLACEMENT_3D('',#699,#597,#598);
#505=AXIS2_PLACEMENT_3D('',#702,#600,#601);
#506=AXIS2_PLACEMENT_3D('',#703,#602,#603);
#507=AXIS2_PLACEMENT_3D('',#706,#605,#606);
#508=AXIS2_PLACEMENT_3D('',#707,#607,#608);
#509=AXIS2_PLACEMENT_3D('',#710,#610,#611);
#510=AXIS2_PLACEMENT_3D('',#711,#612,#613);
#511=AXIS2_PLACEMENT_3D('',#714,#615,#616);
#512=AXIS2_PLACEMENT_3D('',#715,#617,#618);
#513=AXIS2_PLACEMENT_3D('',#718,#620,#621);
#514=AXIS2_PLACEMENT_3D('',#719,#622,#623);
#515=AXIS2_PLACEMENT_3D('',#722,#625,#626);
#516=AXIS2_PLACEMENT_3D('',#723,#627,#628);
#517=AXIS2_PLACEMENT_3D('',#724,#629,#630);
#518=AXIS2_PLACEMENT_3D('',#725,#631,#632);
#519=DIRECTION('',(0.,0.,1.));
#520=DIRECTION('',(1.,0.,0.));
#521=DIRECTION('',(-1.,0.,8.2619083917973E-17));
#522=DIRECTION('',(8.2619083917973E-17,0.,1.));
#523=DIRECTION('',(-1.,0.,8.2619083917973E-17));
#524=DIRECTION('',(8.2619083917973E-17,0.,1.));
#525=DIRECTION('',(-1.,0.,8.2619083917973E-17));
#526=DIRECTION('',(0.,1.,0.));
#527=DIRECTION('',(1.,0.,-8.2619083917973E-17));
#528=DIRECTION('',(0.,-1.,0.));
#529=DIRECTION('',(-1.,0.,8.2619083917973E-17));
#530=DIRECTION('',(0.,1.,0.));
#531=DIRECTION('',(1.,0.,-8.2619083917973E-17));
#532=DIRECTION('',(0.,-1.,0.));
#533=DIRECTION('',(-1.,0.,8.2619083917973E-17));
#534=DIRECTION('',(0.,-1.,0.));
#535=DIRECTION('',(1.,0.,-8.2619083917973E-17));
#536=DIRECTION('',(0.,-1.,0.));
#537=DIRECTION('',(-1.,0.,8.2619083917973E-17));
#538=DIRECTION('',(0.,-1.,0.));
#539=DIRECTION('',(1.,0.,-8.2619083917973E-17));
#540=DIRECTION('',(0.,1.,0.));
#541=DIRECTION('',(-1.,0.,8.2619083917973E-17));
#542=DIRECTION('',(0.,-1.,0.));
#543=DIRECTION('',(1.,0.,-8.2619083917973E-17));
#544=DIRECTION('',(0.,-1.,0.));
#545=DIRECTION('',(-1.,0.,8.2619083917973E-17));
#546=DIRECTION('',(0.,-1.,0.));
#547=DIRECTION('',(1.,0.,-8.2619083917973E-17));
#548=DIRECTION('',(0.,-1.,0.));
#549=DIRECTION('',(-1.,0.,8.2619083917973E-17));
#550=DIRECTION('',(8.2619083917973E-17,0.,1.));
#551=DIRECTION('',(1.,0.,-8.2619083917973E-17));
#552=DIRECTION('',(-8.2619083917973E-17,0.,-1.));
#553=DIRECTION('',(-1.,0.,8.2619083917973E-17));
#554=DIRECTION('',(8.2619083917973E-17,0.,1.));
#555=DIRECTION('',(1.,0.,-8.2619083917973E-17));
#556=DIRECTION('',(-8.2619083917973E-17,0.,-1.));
#557=DIRECTION('',(1.,0.,-8.2619083917973E-17));
#558=DIRECTION('',(-8.2619083917973E-17,0.,-1.));
#559=DIRECTION('',(-1.,0.,8.2619083917973E-17));
#560=DIRECTION('',(8.2619083917973E-17,0.,1.));
#561=DIRECTION('',(-1.,0.,8.2619083917973E-17));
#562=DIRECTION('',(8.2619083917973E-17,0.,1.));
#563=DIRECTION('',(1.,0.,-8.2619083917973E-17));
#564=DIRECTION('',(-8.2619083917973E-17,0.,-1.));
#565=DIRECTION('',(1.,0.,-8.2619083917973E-17));
#566=DIRECTION('',(-8.2619083917973E-17,0.,-1.));
#567=DIRECTION('',(1.,0.,-8.2619083917973E-17));
#568=DIRECTION('',(-8.2619083917973E-17,0.,-1.));
#569=DIRECTION('',(-1.,0.,8.2619083917973E-17));
#570=DIRECTION('',(8.2619083917973E-17,0.,1.));
#571=DIRECTION('',(-1.,0.,8.2619083917973E-17));
#572=DIRECTION('',(8.2619083917973E-17,0.,1.));
#573=DIRECTION('',(-1.,0.,8.2619083917973E-17));
#574=DIRECTION('',(-1.,0.,8.2619083917973E-17));
#575=DIRECTION('',(0.,1.,0.));
#576=DIRECTION('',(-1.,0.,8.2619083917973E-17));
#577=DIRECTION('',(-1.,0.,8.2619083917973E-17));
#578=DIRECTION('',(8.2619083917973E-17,0.,1.));
#579=DIRECTION('',(-1.,0.,8.2619083917973E-17));
#580=DIRECTION('',(1.,0.,-8.2619083917973E-17));
#581=DIRECTION('',(0.,-1.,0.));
#582=DIRECTION('',(-1.,0.,8.2619083917973E-17));
#583=DIRECTION('',(8.2619083917973E-17,0.,1.));
#584=DIRECTION('',(-1.,0.,8.2619083917973E-17));
#585=DIRECTION('',(-1.,0.,8.2619083917973E-17));
#586=DIRECTION('',(0.,-1.,0.));
#587=DIRECTION('',(-1.,0.,8.2619083917973E-17));
#588=DIRECTION('',(8.2619083917973E-17,0.,1.));
#589=DIRECTION('',(-1.,0.,8.2619083917973E-17));
#590=DIRECTION('',(1.,0.,-8.2619083917973E-17));
#591=DIRECTION('',(0.,-1.,0.));
#592=DIRECTION('',(-1.,0.,8.2619083917973E-17));
#593=DIRECTION('',(8.2619083917973E-17,0.,1.));
#594=DIRECTION('',(-1.,0.,8.2619083917973E-17));
#595=DIRECTION('',(-1.,0.,8.2619083917973E-17));
#596=DIRECTION('',(0.,-1.,0.));
#597=DIRECTION('',(-1.,0.,8.2619083917973E-17));
#598=DIRECTION('',(8.2619083917973E-17,0.,1.));
#599=DIRECTION('',(-1.,0.,8.2619083917973E-17));
#600=DIRECTION('',(1.,0.,-8.2619083917973E-17));
#601=DIRECTION('',(0.,1.,0.));
#602=DIRECTION('',(-1.,0.,8.2619083917973E-17));
#603=DIRECTION('',(8.2619083917973E-17,0.,1.));
#604=DIRECTION('',(-1.,0.,8.2619083917973E-17));
#605=DIRECTION('',(-1.,0.,8.2619083917973E-17));
#606=DIRECTION('',(0.,-1.,0.));
#607=DIRECTION('',(-1.,0.,8.2619083917973E-17));
#608=DIRECTION('',(8.2619083917973E-17,0.,1.));
#609=DIRECTION('',(-1.,0.,8.2619083917973E-17));
#610=DIRECTION('',(1.,0.,-8.2619083917973E-17));
#611=DIRECTION('',(0.,-1.,0.));
#612=DIRECTION('',(-1.,0.,8.2619083917973E-17));
#613=DIRECTION('',(8.2619083917973E-17,0.,1.));
#614=DIRECTION('',(-1.,0.,8.2619083917973E-17));
#615=DIRECTION('',(-1.,0.,8.2619083917973E-17));
#616=DIRECTION('',(0.,-1.,0.));
#617=DIRECTION('',(-1.,0.,8.2619083917973E-17));
#618=DIRECTION('',(8.2619083917973E-17,0.,1.));
#619=DIRECTION('',(-1.,0.,8.2619083917973E-17));
#620=DIRECTION('',(1.,0.,-8.2619083917973E-17));
#621=DIRECTION('',(0.,-1.,0.));
#622=DIRECTION('',(-1.,0.,8.2619083917973E-17));
#623=DIRECTION('',(8.2619083917973E-17,0.,1.));
#624=DIRECTION('',(-1.,0.,8.2619083917973E-17));
#625=DIRECTION('',(-1.,0.,8.2619083917973E-17));
#626=DIRECTION('',(0.,1.,0.));
#627=DIRECTION('',(-1.,0.,8.2619083917973E-17));
#628=DIRECTION('',(8.2619083917973E-17,0.,1.));
#629=DIRECTION('',(1.,0.,-8.2619083917973E-17));
#630=DIRECTION('',(0.,-1.,0.));
#631=DIRECTION('',(-1.,0.,8.2619083917973E-17));
#632=DIRECTION('',(8.2619083917973E-17,0.,1.));
#633=CARTESIAN_POINT('',(0.,0.,0.));
#634=CARTESIAN_POINT('',(-1.55,0.,1.49805881812278E-31));
#635=CARTESIAN_POINT('',(-1.55,0.,1.489586441362E-31));
#636=CARTESIAN_POINT('',(-1.55,0.,1.80836688259826));
#637=CARTESIAN_POINT('',(-1.55,-0.649519052838329,0.375));
#638=CARTESIAN_POINT('',(-1.55,-0.740226781945623,0.288993559077254));
#639=CARTESIAN_POINT('',(-1.55,-0.620389154663793,0.496558418187887));
#640=CARTESIAN_POINT('',(-1.55,-1.04501732076212,3.25260651745651E-16));
#641=CARTESIAN_POINT('',(-1.55,-0.740226781945624,-0.288993559077254));
#642=CARTESIAN_POINT('',(-1.55,-0.649519052838329,-0.37500000000001));
#643=CARTESIAN_POINT('',(-1.55,-0.620389154663793,-0.496558418187897));
#644=CARTESIAN_POINT('',(-1.55,-0.522508660381058,-0.905011547174754));
#645=CARTESIAN_POINT('',(-1.55,-0.11983762728183,-0.785551977265151));
#646=CARTESIAN_POINT('',(-1.55,0.,-0.75000000000001));
#647=CARTESIAN_POINT('',(-1.55,0.11983762728183,-0.785551977265151));
#648=CARTESIAN_POINT('',(-1.55,0.522508660381058,-0.905011547174754));
#649=CARTESIAN_POINT('',(-1.55,0.620389154663793,-0.496558418187897));
#650=CARTESIAN_POINT('',(-1.55,0.649519052838329,-0.37500000000001));
#651=CARTESIAN_POINT('',(-1.55,0.740226781945623,-0.288993559077254));
#652=CARTESIAN_POINT('',(-1.55,1.04501732076212,3.25260651745651E-16));
#653=CARTESIAN_POINT('',(-1.55,0.740226781945623,0.288993559077255));
#654=CARTESIAN_POINT('',(-1.55,0.649519052838329,0.375));
#655=CARTESIAN_POINT('',(-1.55,0.620389154663793,0.496558418187887));
#656=CARTESIAN_POINT('',(-1.55,0.522508660381058,0.905011547174745));
#657=CARTESIAN_POINT('',(-1.55,0.11983762728183,0.785551977265142));
#658=CARTESIAN_POINT('',(-1.55,0.,0.75));
#659=CARTESIAN_POINT('',(-1.55,-0.11983762728183,0.785551977265142));
#660=CARTESIAN_POINT('',(-1.55,-0.522508660381058,0.905011547174745));
#661=CARTESIAN_POINT('',(3.,0.,-3.75916831826777E-16));
#662=CARTESIAN_POINT('',(0.1,0.,-1.36321488464655E-16));
#663=CARTESIAN_POINT('',(0.1,0.,-1.));
#664=CARTESIAN_POINT('',(6.,0.,-6.23774083580696E-16));
#665=CARTESIAN_POINT('',(6.,0.,1.));
#666=CARTESIAN_POINT('',(6.,0.,1.));
#667=CARTESIAN_POINT('',(-1.55,0.,2.88889491658085E-31));
#668=CARTESIAN_POINT('',(-1.45871557427476,0.,-7.54183562939699E-18));
#669=CARTESIAN_POINT('',(-1.45871557427476,0.,1.90798635240743));
#670=CARTESIAN_POINT('',(0.,0.,-1.28059580072858E-16));
#671=CARTESIAN_POINT('',(1.68180020956414E-16,0.,2.03560742846518));
#672=CARTESIAN_POINT('',(4.27804685192205E-17,0.,2.03560742846518));
#673=CARTESIAN_POINT('',(-1.21972744404619E-16,0.,-1.28059580072858E-16));
#674=CARTESIAN_POINT('',(-2.1285373671439E-16,0.,-1.1));
#675=CARTESIAN_POINT('',(0.1,0.,-1.36321488464655E-16));
#676=CARTESIAN_POINT('',(-1.45,0.,-8.26190839179715E-18));
#677=CARTESIAN_POINT('',(-0.709999999999998,-0.649519052838329,0.375));
#678=CARTESIAN_POINT('',(-0.709999999999998,-0.620389154663793,0.496558418187887));
#679=CARTESIAN_POINT('',(-0.709999999999998,-0.620389154663793,0.496558418187887));
#680=CARTESIAN_POINT('',(-0.709999999999998,-0.649519052838329,0.375));
#681=CARTESIAN_POINT('',(-0.709999999999998,-0.740226781945623,0.288993559077254));
#682=CARTESIAN_POINT('',(-0.709999999999998,-0.740226781945623,0.288993559077254));
#683=CARTESIAN_POINT('',(-0.709999999999998,-0.522508660381058,0.905011547174745));
#684=CARTESIAN_POINT('',(-0.709999999999998,-0.11983762728183,0.785551977265142));
#685=CARTESIAN_POINT('',(-0.709999999999998,-0.11983762728183,0.785551977265142));
#686=CARTESIAN_POINT('',(-0.709999999999998,-0.522508660381058,0.905011547174745));
#687=CARTESIAN_POINT('',(-0.709999999999998,0.,0.75));
#688=CARTESIAN_POINT('',(-0.709999999999998,0.11983762728183,0.785551977265141));
#689=CARTESIAN_POINT('',(-0.709999999999998,0.11983762728183,0.785551977265141));
#690=CARTESIAN_POINT('',(-0.709999999999998,0.,0.75));
#691=CARTESIAN_POINT('',(-0.709999999999998,0.522508660381058,0.905011547174745));
#692=CARTESIAN_POINT('',(-0.709999999999998,0.620389154663793,0.496558418187887));
#693=CARTESIAN_POINT('',(-0.709999999999998,0.620389154663793,0.496558418187887));
#694=CARTESIAN_POINT('',(-0.709999999999998,0.522508660381058,0.905011547174745));
#695=CARTESIAN_POINT('',(-0.709999999999998,0.649519052838329,0.375));
#696=CARTESIAN_POINT('',(-0.709999999999998,0.740226781945623,0.288993559077255));
#697=CARTESIAN_POINT('',(-0.709999999999998,0.740226781945623,0.288993559077255));
#698=CARTESIAN_POINT('',(-0.709999999999998,0.649519052838329,0.375));
#699=CARTESIAN_POINT('',(-0.709999999999998,1.04501732076212,2.55860621254554E-16));
#700=CARTESIAN_POINT('',(-0.709999999999998,0.740226781945623,-0.288993559077254));
#701=CARTESIAN_POINT('',(-0.709999999999998,0.740226781945623,-0.288993559077254));
#702=CARTESIAN_POINT('',(-0.709999999999998,1.04501732076212,2.55860621254554E-16));
#703=CARTESIAN_POINT('',(-0.709999999999998,0.649519052838329,-0.37500000000001));
#704=CARTESIAN_POINT('',(-0.709999999999998,0.620389154663793,-0.496558418187897));
#705=CARTESIAN_POINT('',(-0.709999999999998,0.620389154663793,-0.496558418187897));
#706=CARTESIAN_POINT('',(-0.709999999999998,0.649519052838329,-0.37500000000001));
#707=CARTESIAN_POINT('',(-0.709999999999998,0.522508660381058,-0.905011547174755));
#708=CARTESIAN_POINT('',(-0.709999999999998,0.11983762728183,-0.785551977265151));
#709=CARTESIAN_POINT('',(-0.709999999999998,0.11983762728183,-0.785551977265151));
#710=CARTESIAN_POINT('',(-0.709999999999998,0.522508660381058,-0.905011547174755));
#711=CARTESIAN_POINT('',(-0.709999999999998,0.,-0.75000000000001));
#712=CARTESIAN_POINT('',(-0.709999999999998,-0.11983762728183,-0.785551977265151));
#713=CARTESIAN_POINT('',(-0.709999999999998,-0.11983762728183,-0.785551977265151));
#714=CARTESIAN_POINT('',(-0.709999999999998,0.,-0.75000000000001));
#715=CARTESIAN_POINT('',(-0.709999999999998,-0.522508660381058,-0.905011547174755));
#716=CARTESIAN_POINT('',(-0.709999999999998,-0.620389154663793,-0.496558418187897));
#717=CARTESIAN_POINT('',(-0.709999999999998,-0.620389154663793,-0.496558418187897));
#718=CARTESIAN_POINT('',(-0.709999999999998,-0.522508660381058,-0.905011547174755));
#719=CARTESIAN_POINT('',(-0.709999999999998,-0.649519052838329,-0.37500000000001));
#720=CARTESIAN_POINT('',(-0.709999999999998,-0.740226781945618,-0.288993559077259));
#721=CARTESIAN_POINT('',(-0.709999999999998,-0.740226781945618,-0.288993559077259));
#722=CARTESIAN_POINT('',(-0.709999999999998,-0.649519052838329,-0.37500000000001));
#723=CARTESIAN_POINT('',(-0.709999999999998,-1.04501732076212,2.55860621254554E-16));
#724=CARTESIAN_POINT('',(-0.709999999999998,-1.04501732076212,2.55860621254554E-16));
#725=CARTESIAN_POINT('',(-0.709999999999998,-0.586013856609694,0.640005773587372));
#726=MECHANICAL_DESIGN_GEOMETRIC_PRESENTATION_REPRESENTATION('',(#302,#303,
#304,#305,#306,#307,#308,#309,#310,#311,#312,#313,#314,#315,#316,#317,#318,
#319,#320,#321),#727);
#727=(
GEOMETRIC_REPRESENTATION_CONTEXT(3)
GLOBAL_UNCERTAINTY_ASSIGNED_CONTEXT((#728))
GLOBAL_UNIT_ASSIGNED_CONTEXT((#731,#730,#729))
REPRESENTATION_CONTEXT('\X2\5185516D89D282B15F624F4E570667F1593487BA9489\X0\',
'TOP_LEVEL_ASSEMBLY_PART')
);
#728=UNCERTAINTY_MEASURE_WITH_UNIT(LENGTH_MEASURE(0.005),#731,
'DISTANCE_ACCURACY_VALUE','Maximum Tolerance applied to model');
#729=(
NAMED_UNIT(*)
SI_UNIT($,.STERADIAN.)
SOLID_ANGLE_UNIT()
);
#730=(
NAMED_UNIT(*)
PLANE_ANGLE_UNIT()
SI_UNIT($,.RADIAN.)
);
#731=(
LENGTH_UNIT()
NAMED_UNIT(*)
SI_UNIT(.MILLI.,.METRE.)
);
#732=PRODUCT_DEFINITION_SHAPE('','',#733);
#733=PRODUCT_DEFINITION('','',#735,#734);
#734=PRODUCT_DEFINITION_CONTEXT('',#741,'design');
#735=PRODUCT_DEFINITION_FORMATION_WITH_SPECIFIED_SOURCE('','',#737,
 .NOT_KNOWN.);
#736=PRODUCT_RELATED_PRODUCT_CATEGORY('','',(#737));
#737=PRODUCT('\X2\5185516D89D282B15F624F4E570667F1593487BA9489\X0\',
'\X2\5185516D89D282B15F624F4E570667F1593487BA9489\X0\',
'\X2\5185516D89D282B15F624F4E570667F1593487BA9489\X0\',(#739));
#738=PRODUCT_CATEGORY('','');
#739=PRODUCT_CONTEXT('',#741,'mechanical');
#740=APPLICATION_PROTOCOL_DEFINITION('international standard',
'automotive_design',2010,#741);
#741=APPLICATION_CONTEXT(
'core data for automotive mechanical design processes');
ENDSEC;
END-ISO-10303-21;
