ISO-10303-21;
HEADER;
/* Generated by software containing HOOPS Exchange Step
 * from HOOPS Exchange, Inc. (www.tiangong.cloud) 
 */

FILE_DESCRIPTION(
/* description */ ('Unknown'),
/* implementation_level */ '2;1');

FILE_NAME(
/* name */ 
'\X2\53415B5769FD76D8593487BA9489548C5916952F9F7F95017D2757AB57087EC454084EF6\X0\ 
GBT9074.2-1988',
/* time_stamp */ '2025-12-25T09:24:43+08:00',
/* author */ ('Unknown'),
/* organization */ ('Unknown'),
/* preprocessor_version */ 'ST-DEVELOPER v19.4',
/* originating_system */ 'TianGong',
/* authorisation */ 'Unknown');

FILE_SCHEMA (('AUTOMOTIVE_DESIGN {1 0 10303 214 3 1 1}'));
ENDSEC;

DATA;
#10=PROPERTY_DEFINITION_REPRESENTATION(#14,#12);
#11=PROPERTY_DEFINITION_REPRESENTATION(#15,#13);
#12=REPRESENTATION('',(#16),#804);
#13=REPRESENTATION('',(#17),#804);
#14=PROPERTY_DEFINITION('pmi validation property','',#809);
#15=PROPERTY_DEFINITION('pmi validation property','',#809);
#16=VALUE_REPRESENTATION_ITEM('number of annotations',COUNT_MEASURE(0.));
#17=VALUE_REPRESENTATION_ITEM('number of views',COUNT_MEASURE(0.));
#18=SHAPE_REPRESENTATION_RELATIONSHIP('','',#532,#19);
#19=ADVANCED_BREP_SHAPE_REPRESENTATION('',(#529,#530),#804);
#20=CONICAL_SURFACE('',#556,1.5,0.785398163397415);
#21=CYLINDRICAL_SURFACE('',#554,1.49999999999999);
#22=CYLINDRICAL_SURFACE('',#558,1.40000000000001);
#23=CYLINDRICAL_SURFACE('',#562,3.);
#24=CYLINDRICAL_SURFACE('',#572,3.);
#25=CYLINDRICAL_SURFACE('',#577,1.5);
#26=LINE('',#727,#50);
#27=LINE('',#730,#51);
#28=LINE('',#731,#52);
#29=LINE('',#733,#53);
#30=LINE('',#735,#54);
#31=LINE('',#737,#55);
#32=LINE('',#739,#56);
#33=LINE('',#741,#57);
#34=LINE('',#743,#58);
#35=LINE('',#745,#59);
#36=LINE('',#748,#60);
#37=LINE('',#749,#61);
#38=LINE('',#767,#62);
#39=LINE('',#769,#63);
#40=LINE('',#771,#64);
#41=LINE('',#773,#65);
#42=LINE('',#775,#66);
#43=LINE('',#776,#67);
#44=LINE('',#778,#68);
#45=LINE('',#780,#69);
#46=LINE('',#782,#70);
#47=LINE('',#784,#71);
#48=LINE('',#787,#72);
#49=LINE('',#788,#73);
#50=VECTOR('',#612,1000.);
#51=VECTOR('',#613,1000.);
#52=VECTOR('',#614,1000.);
#53=VECTOR('',#617,1000.);
#54=VECTOR('',#618,1000.);
#55=VECTOR('',#619,1000.);
#56=VECTOR('',#622,1000.);
#57=VECTOR('',#623,1000.);
#58=VECTOR('',#624,1000.);
#59=VECTOR('',#627,1000.);
#60=VECTOR('',#628,1000.);
#61=VECTOR('',#629,1000.);
#62=VECTOR('',#654,1000.);
#63=VECTOR('',#657,1000.);
#64=VECTOR('',#660,1000.);
#65=VECTOR('',#661,1000.);
#66=VECTOR('',#662,1000.);
#67=VECTOR('',#663,1000.);
#68=VECTOR('',#664,1000.);
#69=VECTOR('',#665,1000.);
#70=VECTOR('',#668,1000.);
#71=VECTOR('',#671,1000.);
#72=VECTOR('',#676,1000.);
#73=VECTOR('',#677,1000.);
#74=PLANE('',#548);
#75=PLANE('',#549);
#76=PLANE('',#550);
#77=PLANE('',#551);
#78=PLANE('',#552);
#79=PLANE('',#560);
#80=PLANE('',#563);
#81=PLANE('',#564);
#82=PLANE('',#565);
#83=PLANE('',#566);
#84=PLANE('',#567);
#85=PLANE('',#568);
#86=PLANE('',#569);
#87=PLANE('',#570);
#88=PLANE('',#571);
#89=PLANE('',#575);
#90=PLANE('',#579);
#91=ORIENTED_EDGE('',*,*,#183,.T.);
#92=ORIENTED_EDGE('',*,*,#184,.F.);
#93=ORIENTED_EDGE('',*,*,#185,.F.);
#94=ORIENTED_EDGE('',*,*,#186,.F.);
#95=ORIENTED_EDGE('',*,*,#187,.F.);
#96=ORIENTED_EDGE('',*,*,#188,.F.);
#97=ORIENTED_EDGE('',*,*,#189,.F.);
#98=ORIENTED_EDGE('',*,*,#190,.F.);
#99=ORIENTED_EDGE('',*,*,#191,.F.);
#100=ORIENTED_EDGE('',*,*,#192,.F.);
#101=ORIENTED_EDGE('',*,*,#193,.F.);
#102=ORIENTED_EDGE('',*,*,#194,.F.);
#103=ORIENTED_EDGE('',*,*,#195,.F.);
#104=ORIENTED_EDGE('',*,*,#196,.T.);
#105=ORIENTED_EDGE('',*,*,#197,.T.);
#106=ORIENTED_EDGE('',*,*,#187,.T.);
#107=ORIENTED_EDGE('',*,*,#198,.F.);
#108=ORIENTED_EDGE('',*,*,#191,.T.);
#109=ORIENTED_EDGE('',*,*,#199,.T.);
#110=ORIENTED_EDGE('',*,*,#200,.T.);
#111=ORIENTED_EDGE('',*,*,#201,.T.);
#112=ORIENTED_EDGE('',*,*,#185,.T.);
#113=ORIENTED_EDGE('',*,*,#202,.T.);
#114=ORIENTED_EDGE('',*,*,#203,.T.);
#115=ORIENTED_EDGE('',*,*,#204,.T.);
#116=ORIENTED_EDGE('',*,*,#205,.T.);
#117=ORIENTED_EDGE('',*,*,#206,.T.);
#118=ORIENTED_EDGE('',*,*,#193,.T.);
#119=ORIENTED_EDGE('',*,*,#207,.F.);
#120=ORIENTED_EDGE('',*,*,#208,.F.);
#121=ORIENTED_EDGE('',*,*,#209,.F.);
#122=ORIENTED_EDGE('',*,*,#208,.T.);
#123=ORIENTED_EDGE('',*,*,#210,.F.);
#124=ORIENTED_EDGE('',*,*,#209,.T.);
#125=ORIENTED_EDGE('',*,*,#211,.F.);
#126=ORIENTED_EDGE('',*,*,#210,.T.);
#127=ORIENTED_EDGE('',*,*,#212,.F.);
#128=ORIENTED_EDGE('',*,*,#211,.T.);
#129=ORIENTED_EDGE('',*,*,#183,.F.);
#130=ORIENTED_EDGE('',*,*,#212,.T.);
#131=ORIENTED_EDGE('',*,*,#186,.T.);
#132=ORIENTED_EDGE('',*,*,#204,.F.);
#133=ORIENTED_EDGE('',*,*,#213,.T.);
#134=ORIENTED_EDGE('',*,*,#198,.T.);
#135=ORIENTED_EDGE('',*,*,#192,.T.);
#136=ORIENTED_EDGE('',*,*,#201,.F.);
#137=ORIENTED_EDGE('',*,*,#214,.T.);
#138=ORIENTED_EDGE('',*,*,#207,.T.);
#139=ORIENTED_EDGE('',*,*,#200,.F.);
#140=ORIENTED_EDGE('',*,*,#215,.F.);
#141=ORIENTED_EDGE('',*,*,#216,.F.);
#142=ORIENTED_EDGE('',*,*,#217,.F.);
#143=ORIENTED_EDGE('',*,*,#196,.F.);
#144=ORIENTED_EDGE('',*,*,#213,.F.);
#145=ORIENTED_EDGE('',*,*,#203,.F.);
#146=ORIENTED_EDGE('',*,*,#218,.F.);
#147=ORIENTED_EDGE('',*,*,#219,.F.);
#148=ORIENTED_EDGE('',*,*,#220,.F.);
#149=ORIENTED_EDGE('',*,*,#205,.F.);
#150=ORIENTED_EDGE('',*,*,#214,.F.);
#151=ORIENTED_EDGE('',*,*,#194,.T.);
#152=ORIENTED_EDGE('',*,*,#206,.F.);
#153=ORIENTED_EDGE('',*,*,#220,.T.);
#154=ORIENTED_EDGE('',*,*,#221,.T.);
#155=ORIENTED_EDGE('',*,*,#184,.T.);
#156=ORIENTED_EDGE('',*,*,#222,.F.);
#157=ORIENTED_EDGE('',*,*,#218,.T.);
#158=ORIENTED_EDGE('',*,*,#202,.F.);
#159=ORIENTED_EDGE('',*,*,#195,.T.);
#160=ORIENTED_EDGE('',*,*,#221,.F.);
#161=ORIENTED_EDGE('',*,*,#219,.T.);
#162=ORIENTED_EDGE('',*,*,#222,.T.);
#163=ORIENTED_EDGE('',*,*,#189,.T.);
#164=ORIENTED_EDGE('',*,*,#223,.F.);
#165=ORIENTED_EDGE('',*,*,#216,.T.);
#166=ORIENTED_EDGE('',*,*,#224,.T.);
#167=ORIENTED_EDGE('',*,*,#188,.T.);
#168=ORIENTED_EDGE('',*,*,#197,.F.);
#169=ORIENTED_EDGE('',*,*,#217,.T.);
#170=ORIENTED_EDGE('',*,*,#223,.T.);
#171=ORIENTED_EDGE('',*,*,#190,.T.);
#172=ORIENTED_EDGE('',*,*,#224,.F.);
#173=ORIENTED_EDGE('',*,*,#215,.T.);
#174=ORIENTED_EDGE('',*,*,#199,.F.);
#175=ORIENTED_EDGE('',*,*,#225,.T.);
#176=ORIENTED_EDGE('',*,*,#226,.F.);
#177=ORIENTED_EDGE('',*,*,#227,.T.);
#178=ORIENTED_EDGE('',*,*,#225,.F.);
#179=ORIENTED_EDGE('',*,*,#228,.T.);
#180=ORIENTED_EDGE('',*,*,#227,.F.);
#181=ORIENTED_EDGE('',*,*,#226,.T.);
#182=ORIENTED_EDGE('',*,*,#228,.F.);
#183=EDGE_CURVE('',#229,#229,#263,.T.);
#184=EDGE_CURVE('',#230,#231,#264,.T.);
#185=EDGE_CURVE('',#232,#230,#265,.T.);
#186=EDGE_CURVE('',#233,#232,#266,.T.);
#187=EDGE_CURVE('',#234,#233,#267,.T.);
#188=EDGE_CURVE('',#235,#234,#268,.T.);
#189=EDGE_CURVE('',#236,#235,#269,.T.);
#190=EDGE_CURVE('',#237,#236,#270,.T.);
#191=EDGE_CURVE('',#238,#237,#271,.T.);
#192=EDGE_CURVE('',#239,#238,#272,.T.);
#193=EDGE_CURVE('',#240,#239,#273,.T.);
#194=EDGE_CURVE('',#241,#240,#274,.T.);
#195=EDGE_CURVE('',#231,#241,#275,.T.);
#196=EDGE_CURVE('',#242,#243,#26,.T.);
#197=EDGE_CURVE('',#243,#234,#27,.T.);
#198=EDGE_CURVE('',#242,#233,#28,.T.);
#199=EDGE_CURVE('',#237,#244,#29,.T.);
#200=EDGE_CURVE('',#244,#245,#30,.T.);
#201=EDGE_CURVE('',#245,#238,#31,.T.);
#202=EDGE_CURVE('',#230,#246,#32,.T.);
#203=EDGE_CURVE('',#246,#247,#33,.T.);
#204=EDGE_CURVE('',#247,#232,#34,.T.);
#205=EDGE_CURVE('',#248,#249,#35,.T.);
#206=EDGE_CURVE('',#249,#240,#36,.T.);
#207=EDGE_CURVE('',#248,#239,#37,.T.);
#208=EDGE_CURVE('',#250,#250,#276,.T.);
#209=EDGE_CURVE('',#251,#251,#277,.T.);
#210=EDGE_CURVE('',#252,#252,#278,.T.);
#211=EDGE_CURVE('',#253,#253,#279,.T.);
#212=EDGE_CURVE('',#254,#254,#280,.T.);
#213=EDGE_CURVE('',#247,#242,#38,.T.);
#214=EDGE_CURVE('',#245,#248,#39,.T.);
#215=EDGE_CURVE('',#255,#244,#40,.T.);
#216=EDGE_CURVE('',#256,#255,#41,.T.);
#217=EDGE_CURVE('',#243,#256,#42,.T.);
#218=EDGE_CURVE('',#257,#246,#43,.T.);
#219=EDGE_CURVE('',#258,#257,#44,.T.);
#220=EDGE_CURVE('',#249,#258,#45,.T.);
#221=EDGE_CURVE('',#258,#241,#46,.T.);
#222=EDGE_CURVE('',#257,#231,#47,.T.);
#223=EDGE_CURVE('',#256,#235,#48,.T.);
#224=EDGE_CURVE('',#255,#236,#49,.T.);
#225=EDGE_CURVE('',#259,#259,#281,.T.);
#226=EDGE_CURVE('',#260,#260,#282,.T.);
#227=EDGE_CURVE('',#261,#261,#283,.T.);
#228=EDGE_CURVE('',#262,#262,#284,.T.);
#229=VERTEX_POINT('',#701);
#230=VERTEX_POINT('',#703);
#231=VERTEX_POINT('',#704);
#232=VERTEX_POINT('',#706);
#233=VERTEX_POINT('',#708);
#234=VERTEX_POINT('',#710);
#235=VERTEX_POINT('',#712);
#236=VERTEX_POINT('',#714);
#237=VERTEX_POINT('',#716);
#238=VERTEX_POINT('',#718);
#239=VERTEX_POINT('',#720);
#240=VERTEX_POINT('',#722);
#241=VERTEX_POINT('',#724);
#242=VERTEX_POINT('',#728);
#243=VERTEX_POINT('',#729);
#244=VERTEX_POINT('',#734);
#245=VERTEX_POINT('',#736);
#246=VERTEX_POINT('',#740);
#247=VERTEX_POINT('',#742);
#248=VERTEX_POINT('',#746);
#249=VERTEX_POINT('',#747);
#250=VERTEX_POINT('',#752);
#251=VERTEX_POINT('',#755);
#252=VERTEX_POINT('',#758);
#253=VERTEX_POINT('',#761);
#254=VERTEX_POINT('',#764);
#255=VERTEX_POINT('',#772);
#256=VERTEX_POINT('',#774);
#257=VERTEX_POINT('',#777);
#258=VERTEX_POINT('',#779);
#259=VERTEX_POINT('',#793);
#260=VERTEX_POINT('',#795);
#261=VERTEX_POINT('',#798);
#262=VERTEX_POINT('',#801);
#263=CIRCLE('',#535,3.);
#264=CIRCLE('',#536,6.51234375);
#265=CIRCLE('',#537,6.51234375);
#266=CIRCLE('',#538,6.34832624541021);
#267=CIRCLE('',#539,6.51234375);
#268=CIRCLE('',#540,6.51234375);
#269=CIRCLE('',#541,6.34832624541021);
#270=CIRCLE('',#542,6.51234375);
#271=CIRCLE('',#543,6.51234375);
#272=CIRCLE('',#544,6.34832624541021);
#273=CIRCLE('',#545,6.51234375);
#274=CIRCLE('',#546,6.51234375);
#275=CIRCLE('',#547,6.34832624541021);
#276=CIRCLE('',#553,1.49999999999999);
#277=CIRCLE('',#555,1.5);
#278=CIRCLE('',#557,1.40000000000001);
#279=CIRCLE('',#559,1.40000000000001);
#280=CIRCLE('',#561,3.);
#281=CIRCLE('',#573,3.);
#282=CIRCLE('',#574,3.);
#283=CIRCLE('',#576,1.5);
#284=CIRCLE('',#578,1.5);
#285=EDGE_LOOP('',(#91));
#286=EDGE_LOOP('',(#92,#93,#94,#95,#96,#97,#98,#99,#100,#101,#102,#103));
#287=EDGE_LOOP('',(#104,#105,#106,#107));
#288=EDGE_LOOP('',(#108,#109,#110,#111));
#289=EDGE_LOOP('',(#112,#113,#114,#115));
#290=EDGE_LOOP('',(#116,#117,#118,#119));
#291=EDGE_LOOP('',(#120));
#292=EDGE_LOOP('',(#121));
#293=EDGE_LOOP('',(#122));
#294=EDGE_LOOP('',(#123));
#295=EDGE_LOOP('',(#124));
#296=EDGE_LOOP('',(#125));
#297=EDGE_LOOP('',(#126));
#298=EDGE_LOOP('',(#127));
#299=EDGE_LOOP('',(#128));
#300=EDGE_LOOP('',(#129));
#301=EDGE_LOOP('',(#130));
#302=EDGE_LOOP('',(#131,#132,#133,#134));
#303=EDGE_LOOP('',(#135,#136,#137,#138));
#304=EDGE_LOOP('',(#139,#140,#141,#142,#143,#144,#145,#146,#147,#148,#149,
#150));
#305=EDGE_LOOP('',(#151,#152,#153,#154));
#306=EDGE_LOOP('',(#155,#156,#157,#158));
#307=EDGE_LOOP('',(#159,#160,#161,#162));
#308=EDGE_LOOP('',(#163,#164,#165,#166));
#309=EDGE_LOOP('',(#167,#168,#169,#170));
#310=EDGE_LOOP('',(#171,#172,#173,#174));
#311=EDGE_LOOP('',(#175));
#312=EDGE_LOOP('',(#176));
#313=EDGE_LOOP('',(#177));
#314=EDGE_LOOP('',(#178));
#315=EDGE_LOOP('',(#179));
#316=EDGE_LOOP('',(#180));
#317=EDGE_LOOP('',(#181));
#318=EDGE_LOOP('',(#182));
#319=FACE_BOUND('',#285,.T.);
#320=FACE_BOUND('',#286,.T.);
#321=FACE_BOUND('',#287,.T.);
#322=FACE_BOUND('',#288,.T.);
#323=FACE_BOUND('',#289,.T.);
#324=FACE_BOUND('',#290,.T.);
#325=FACE_BOUND('',#291,.T.);
#326=FACE_BOUND('',#292,.T.);
#327=FACE_BOUND('',#293,.T.);
#328=FACE_BOUND('',#294,.T.);
#329=FACE_BOUND('',#295,.T.);
#330=FACE_BOUND('',#296,.T.);
#331=FACE_BOUND('',#297,.T.);
#332=FACE_BOUND('',#298,.T.);
#333=FACE_BOUND('',#299,.T.);
#334=FACE_BOUND('',#300,.T.);
#335=FACE_BOUND('',#301,.T.);
#336=FACE_BOUND('',#302,.T.);
#337=FACE_BOUND('',#303,.T.);
#338=FACE_BOUND('',#304,.T.);
#339=FACE_BOUND('',#305,.T.);
#340=FACE_BOUND('',#306,.T.);
#341=FACE_BOUND('',#307,.T.);
#342=FACE_BOUND('',#308,.T.);
#343=FACE_BOUND('',#309,.T.);
#344=FACE_BOUND('',#310,.T.);
#345=FACE_BOUND('',#311,.T.);
#346=FACE_BOUND('',#312,.T.);
#347=FACE_BOUND('',#313,.T.);
#348=FACE_BOUND('',#314,.T.);
#349=FACE_BOUND('',#315,.T.);
#350=FACE_BOUND('',#316,.T.);
#351=FACE_BOUND('',#317,.T.);
#352=FACE_BOUND('',#318,.T.);
#353=SPHERICAL_SURFACE('',#534,6.52313161895144);
#354=STYLED_ITEM('',(#375),#503);
#355=STYLED_ITEM('',(#376),#504);
#356=STYLED_ITEM('',(#377),#505);
#357=STYLED_ITEM('',(#378),#506);
#358=STYLED_ITEM('',(#379),#507);
#359=STYLED_ITEM('',(#380),#508);
#360=STYLED_ITEM('',(#381),#509);
#361=STYLED_ITEM('',(#382),#510);
#362=STYLED_ITEM('',(#383),#511);
#363=STYLED_ITEM('',(#384),#512);
#364=STYLED_ITEM('',(#385),#513);
#365=STYLED_ITEM('',(#386),#514);
#366=STYLED_ITEM('',(#387),#515);
#367=STYLED_ITEM('',(#388),#516);
#368=STYLED_ITEM('',(#389),#517);
#369=STYLED_ITEM('',(#390),#518);
#370=STYLED_ITEM('',(#391),#519);
#371=STYLED_ITEM('',(#392),#520);
#372=STYLED_ITEM('',(#393),#521);
#373=STYLED_ITEM('',(#394),#522);
#374=STYLED_ITEM('',(#395),#530);
#375=PRESENTATION_STYLE_ASSIGNMENT((#396));
#376=PRESENTATION_STYLE_ASSIGNMENT((#397));
#377=PRESENTATION_STYLE_ASSIGNMENT((#398));
#378=PRESENTATION_STYLE_ASSIGNMENT((#399));
#379=PRESENTATION_STYLE_ASSIGNMENT((#400));
#380=PRESENTATION_STYLE_ASSIGNMENT((#401));
#381=PRESENTATION_STYLE_ASSIGNMENT((#402));
#382=PRESENTATION_STYLE_ASSIGNMENT((#403));
#383=PRESENTATION_STYLE_ASSIGNMENT((#404));
#384=PRESENTATION_STYLE_ASSIGNMENT((#405));
#385=PRESENTATION_STYLE_ASSIGNMENT((#406));
#386=PRESENTATION_STYLE_ASSIGNMENT((#407));
#387=PRESENTATION_STYLE_ASSIGNMENT((#408));
#388=PRESENTATION_STYLE_ASSIGNMENT((#409));
#389=PRESENTATION_STYLE_ASSIGNMENT((#410));
#390=PRESENTATION_STYLE_ASSIGNMENT((#411));
#391=PRESENTATION_STYLE_ASSIGNMENT((#412));
#392=PRESENTATION_STYLE_ASSIGNMENT((#413));
#393=PRESENTATION_STYLE_ASSIGNMENT((#414));
#394=PRESENTATION_STYLE_ASSIGNMENT((#415));
#395=PRESENTATION_STYLE_ASSIGNMENT((#416));
#396=SURFACE_STYLE_USAGE(.BOTH.,#417);
#397=SURFACE_STYLE_USAGE(.BOTH.,#418);
#398=SURFACE_STYLE_USAGE(.BOTH.,#419);
#399=SURFACE_STYLE_USAGE(.BOTH.,#420);
#400=SURFACE_STYLE_USAGE(.BOTH.,#421);
#401=SURFACE_STYLE_USAGE(.BOTH.,#422);
#402=SURFACE_STYLE_USAGE(.BOTH.,#423);
#403=SURFACE_STYLE_USAGE(.BOTH.,#424);
#404=SURFACE_STYLE_USAGE(.BOTH.,#425);
#405=SURFACE_STYLE_USAGE(.BOTH.,#426);
#406=SURFACE_STYLE_USAGE(.BOTH.,#427);
#407=SURFACE_STYLE_USAGE(.BOTH.,#428);
#408=SURFACE_STYLE_USAGE(.BOTH.,#429);
#409=SURFACE_STYLE_USAGE(.BOTH.,#430);
#410=SURFACE_STYLE_USAGE(.BOTH.,#431);
#411=SURFACE_STYLE_USAGE(.BOTH.,#432);
#412=SURFACE_STYLE_USAGE(.BOTH.,#433);
#413=SURFACE_STYLE_USAGE(.BOTH.,#434);
#414=SURFACE_STYLE_USAGE(.BOTH.,#435);
#415=SURFACE_STYLE_USAGE(.BOTH.,#436);
#416=SURFACE_STYLE_USAGE(.BOTH.,#437);
#417=SURFACE_SIDE_STYLE('',(#438));
#418=SURFACE_SIDE_STYLE('',(#439));
#419=SURFACE_SIDE_STYLE('',(#440));
#420=SURFACE_SIDE_STYLE('',(#441));
#421=SURFACE_SIDE_STYLE('',(#442));
#422=SURFACE_SIDE_STYLE('',(#443));
#423=SURFACE_SIDE_STYLE('',(#444));
#424=SURFACE_SIDE_STYLE('',(#445));
#425=SURFACE_SIDE_STYLE('',(#446));
#426=SURFACE_SIDE_STYLE('',(#447));
#427=SURFACE_SIDE_STYLE('',(#448));
#428=SURFACE_SIDE_STYLE('',(#449));
#429=SURFACE_SIDE_STYLE('',(#450));
#430=SURFACE_SIDE_STYLE('',(#451));
#431=SURFACE_SIDE_STYLE('',(#452));
#432=SURFACE_SIDE_STYLE('',(#453));
#433=SURFACE_SIDE_STYLE('',(#454));
#434=SURFACE_SIDE_STYLE('',(#455));
#435=SURFACE_SIDE_STYLE('',(#456));
#436=SURFACE_SIDE_STYLE('',(#457));
#437=SURFACE_SIDE_STYLE('',(#458));
#438=SURFACE_STYLE_FILL_AREA(#459);
#439=SURFACE_STYLE_FILL_AREA(#460);
#440=SURFACE_STYLE_FILL_AREA(#461);
#441=SURFACE_STYLE_FILL_AREA(#462);
#442=SURFACE_STYLE_FILL_AREA(#463);
#443=SURFACE_STYLE_FILL_AREA(#464);
#444=SURFACE_STYLE_FILL_AREA(#465);
#445=SURFACE_STYLE_FILL_AREA(#466);
#446=SURFACE_STYLE_FILL_AREA(#467);
#447=SURFACE_STYLE_FILL_AREA(#468);
#448=SURFACE_STYLE_FILL_AREA(#469);
#449=SURFACE_STYLE_FILL_AREA(#470);
#450=SURFACE_STYLE_FILL_AREA(#471);
#451=SURFACE_STYLE_FILL_AREA(#472);
#452=SURFACE_STYLE_FILL_AREA(#473);
#453=SURFACE_STYLE_FILL_AREA(#474);
#454=SURFACE_STYLE_FILL_AREA(#475);
#455=SURFACE_STYLE_FILL_AREA(#476);
#456=SURFACE_STYLE_FILL_AREA(#477);
#457=SURFACE_STYLE_FILL_AREA(#478);
#458=SURFACE_STYLE_FILL_AREA(#479);
#459=FILL_AREA_STYLE('',(#480));
#460=FILL_AREA_STYLE('',(#481));
#461=FILL_AREA_STYLE('',(#482));
#462=FILL_AREA_STYLE('',(#483));
#463=FILL_AREA_STYLE('',(#484));
#464=FILL_AREA_STYLE('',(#485));
#465=FILL_AREA_STYLE('',(#486));
#466=FILL_AREA_STYLE('',(#487));
#467=FILL_AREA_STYLE('',(#488));
#468=FILL_AREA_STYLE('',(#489));
#469=FILL_AREA_STYLE('',(#490));
#470=FILL_AREA_STYLE('',(#491));
#471=FILL_AREA_STYLE('',(#492));
#472=FILL_AREA_STYLE('',(#493));
#473=FILL_AREA_STYLE('',(#494));
#474=FILL_AREA_STYLE('',(#495));
#475=FILL_AREA_STYLE('',(#496));
#476=FILL_AREA_STYLE('',(#497));
#477=FILL_AREA_STYLE('',(#498));
#478=FILL_AREA_STYLE('',(#499));
#479=FILL_AREA_STYLE('',(#500));
#480=FILL_AREA_STYLE_COLOUR('',#501);
#481=FILL_AREA_STYLE_COLOUR('',#501);
#482=FILL_AREA_STYLE_COLOUR('',#501);
#483=FILL_AREA_STYLE_COLOUR('',#501);
#484=FILL_AREA_STYLE_COLOUR('',#501);
#485=FILL_AREA_STYLE_COLOUR('',#501);
#486=FILL_AREA_STYLE_COLOUR('',#502);
#487=FILL_AREA_STYLE_COLOUR('',#501);
#488=FILL_AREA_STYLE_COLOUR('',#501);
#489=FILL_AREA_STYLE_COLOUR('',#501);
#490=FILL_AREA_STYLE_COLOUR('',#501);
#491=FILL_AREA_STYLE_COLOUR('',#501);
#492=FILL_AREA_STYLE_COLOUR('',#501);
#493=FILL_AREA_STYLE_COLOUR('',#501);
#494=FILL_AREA_STYLE_COLOUR('',#501);
#495=FILL_AREA_STYLE_COLOUR('',#501);
#496=FILL_AREA_STYLE_COLOUR('',#501);
#497=FILL_AREA_STYLE_COLOUR('',#501);
#498=FILL_AREA_STYLE_COLOUR('',#501);
#499=FILL_AREA_STYLE_COLOUR('',#501);
#500=FILL_AREA_STYLE_COLOUR('',#501);
#501=COLOUR_RGB('',0.506983280181885,0.531564235687256,0.550000011920929);
#502=COLOUR_RGB('',0.1875,0.75,0.581249892711639);
#503=ADVANCED_FACE('',(#319,#320),#353,.T.);
#504=ADVANCED_FACE('',(#321),#74,.T.);
#505=ADVANCED_FACE('',(#322),#75,.T.);
#506=ADVANCED_FACE('',(#323),#76,.T.);
#507=ADVANCED_FACE('',(#324),#77,.T.);
#508=ADVANCED_FACE('',(#325),#78,.F.);
#509=ADVANCED_FACE('',(#326,#327),#21,.T.);
#510=ADVANCED_FACE('',(#328,#329),#20,.T.);
#511=ADVANCED_FACE('',(#330,#331),#22,.T.);
#512=ADVANCED_FACE('',(#332,#333),#79,.F.);
#513=ADVANCED_FACE('',(#334,#335),#23,.T.);
#514=ADVANCED_FACE('',(#336),#80,.T.);
#515=ADVANCED_FACE('',(#337),#81,.T.);
#516=ADVANCED_FACE('',(#338),#82,.F.);
#517=ADVANCED_FACE('',(#339),#83,.T.);
#518=ADVANCED_FACE('',(#340),#84,.T.);
#519=ADVANCED_FACE('',(#341),#85,.T.);
#520=ADVANCED_FACE('',(#342),#86,.T.);
#521=ADVANCED_FACE('',(#343),#87,.T.);
#522=ADVANCED_FACE('',(#344),#88,.T.);
#523=ADVANCED_FACE('',(#345,#346),#24,.T.);
#524=ADVANCED_FACE('',(#347,#348),#89,.T.);
#525=ADVANCED_FACE('',(#349,#350),#25,.F.);
#526=ADVANCED_FACE('',(#351,#352),#90,.T.);
#527=CLOSED_SHELL('',(#503,#504,#505,#506,#507,#508,#509,#510,#511,#512,
#513,#514,#515,#516,#517,#518,#519,#520,#521,#522));
#528=CLOSED_SHELL('',(#523,#524,#525,#526));
#529=MANIFOLD_SOLID_BREP('',#527);
#530=MANIFOLD_SOLID_BREP('',#528);
#531=SHAPE_DEFINITION_REPRESENTATION(#809,#532);
#532=SHAPE_REPRESENTATION(
'\X2\53415B5769FD76D8593487BA9489548C5916952F9F7F95017D2757AB57087EC454084EF6\X0\ 
GBT9074.2-1988',(#533),#804);
#533=AXIS2_PLACEMENT_3D('',#698,#580,#581);
#534=AXIS2_PLACEMENT_3D('',#699,#582,#583);
#535=AXIS2_PLACEMENT_3D('',#700,#584,#585);
#536=AXIS2_PLACEMENT_3D('',#702,#586,#587);
#537=AXIS2_PLACEMENT_3D('',#705,#588,#589);
#538=AXIS2_PLACEMENT_3D('',#707,#590,#591);
#539=AXIS2_PLACEMENT_3D('',#709,#592,#593);
#540=AXIS2_PLACEMENT_3D('',#711,#594,#595);
#541=AXIS2_PLACEMENT_3D('',#713,#596,#597);
#542=AXIS2_PLACEMENT_3D('',#715,#598,#599);
#543=AXIS2_PLACEMENT_3D('',#717,#600,#601);
#544=AXIS2_PLACEMENT_3D('',#719,#602,#603);
#545=AXIS2_PLACEMENT_3D('',#721,#604,#605);
#546=AXIS2_PLACEMENT_3D('',#723,#606,#607);
#547=AXIS2_PLACEMENT_3D('',#725,#608,#609);
#548=AXIS2_PLACEMENT_3D('',#726,#610,#611);
#549=AXIS2_PLACEMENT_3D('',#732,#615,#616);
#550=AXIS2_PLACEMENT_3D('',#738,#620,#621);
#551=AXIS2_PLACEMENT_3D('',#744,#625,#626);
#552=AXIS2_PLACEMENT_3D('',#750,#630,#631);
#553=AXIS2_PLACEMENT_3D('',#751,#632,#633);
#554=AXIS2_PLACEMENT_3D('',#753,#634,#635);
#555=AXIS2_PLACEMENT_3D('',#754,#636,#637);
#556=AXIS2_PLACEMENT_3D('',#756,#638,#639);
#557=AXIS2_PLACEMENT_3D('',#757,#640,#641);
#558=AXIS2_PLACEMENT_3D('',#759,#642,#643);
#559=AXIS2_PLACEMENT_3D('',#760,#644,#645);
#560=AXIS2_PLACEMENT_3D('',#762,#646,#647);
#561=AXIS2_PLACEMENT_3D('',#763,#648,#649);
#562=AXIS2_PLACEMENT_3D('',#765,#650,#651);
#563=AXIS2_PLACEMENT_3D('',#766,#652,#653);
#564=AXIS2_PLACEMENT_3D('',#768,#655,#656);
#565=AXIS2_PLACEMENT_3D('',#770,#658,#659);
#566=AXIS2_PLACEMENT_3D('',#781,#666,#667);
#567=AXIS2_PLACEMENT_3D('',#783,#669,#670);
#568=AXIS2_PLACEMENT_3D('',#785,#672,#673);
#569=AXIS2_PLACEMENT_3D('',#786,#674,#675);
#570=AXIS2_PLACEMENT_3D('',#789,#678,#679);
#571=AXIS2_PLACEMENT_3D('',#790,#680,#681);
#572=AXIS2_PLACEMENT_3D('',#791,#682,#683);
#573=AXIS2_PLACEMENT_3D('',#792,#684,#685);
#574=AXIS2_PLACEMENT_3D('',#794,#686,#687);
#575=AXIS2_PLACEMENT_3D('',#796,#688,#689);
#576=AXIS2_PLACEMENT_3D('',#797,#690,#691);
#577=AXIS2_PLACEMENT_3D('',#799,#692,#693);
#578=AXIS2_PLACEMENT_3D('',#800,#694,#695);
#579=AXIS2_PLACEMENT_3D('',#802,#696,#697);
#580=DIRECTION('',(0.,0.,1.));
#581=DIRECTION('',(1.,0.,0.));
#582=DIRECTION('',(-1.,0.,0.));
#583=DIRECTION('',(0.,0.,1.));
#584=DIRECTION('',(-1.,0.,0.));
#585=DIRECTION('',(0.,0.,1.));
#586=DIRECTION('',(0.,1.26490253456642E-16,-1.));
#587=DIRECTION('',(0.,1.,1.26490253456642E-16));
#588=DIRECTION('',(0.,-1.,-1.62630325872826E-16));
#589=DIRECTION('',(0.,1.62630325872826E-16,-1.));
#590=DIRECTION('',(0.,0.,-1.));
#591=DIRECTION('',(-1.,0.,0.));
#592=DIRECTION('',(0.,1.,2.89120579329468E-16));
#593=DIRECTION('',(0.,-2.89120579329468E-16,1.));
#594=DIRECTION('',(0.,1.26490253456642E-16,-1.));
#595=DIRECTION('',(0.,1.,1.26490253456642E-16));
#596=DIRECTION('',(0.,1.,2.89120579329468E-16));
#597=DIRECTION('',(0.,-2.89120579329468E-16,1.));
#598=DIRECTION('',(0.,-1.80700362080917E-17,1.));
#599=DIRECTION('',(0.,-1.,-1.80700362080917E-17));
#600=DIRECTION('',(0.,1.,2.89120579329468E-16));
#601=DIRECTION('',(0.,-2.89120579329468E-16,1.));
#602=DIRECTION('',(0.,0.,1.));
#603=DIRECTION('',(1.,0.,0.));
#604=DIRECTION('',(0.,-1.,-1.62630325872826E-16));
#605=DIRECTION('',(0.,1.62630325872826E-16,-1.));
#606=DIRECTION('',(0.,-1.80700362080917E-17,1.));
#607=DIRECTION('',(0.,-1.,-1.80700362080917E-17));
#608=DIRECTION('',(0.,-1.,-2.89120579329468E-16));
#609=DIRECTION('',(0.,2.89120579329468E-16,-1.));
#610=DIRECTION('',(0.,1.,2.89120579329468E-16));
#611=DIRECTION('',(0.,-2.89120579329468E-16,1.));
#612=DIRECTION('',(1.77029449233836E-32,2.89120579329468E-16,-1.));
#613=DIRECTION('',(-1.,0.,0.));
#614=DIRECTION('',(-1.,0.,0.));
#615=DIRECTION('',(0.,1.,2.89120579329468E-16));
#616=DIRECTION('',(0.,-2.89120579329468E-16,1.));
#617=DIRECTION('',(1.,0.,0.));
#618=DIRECTION('',(1.77029449233836E-32,2.89120579329468E-16,-1.));
#619=DIRECTION('',(-1.,0.,0.));
#620=DIRECTION('',(0.,-1.,-1.62630325872826E-16));
#621=DIRECTION('',(0.,1.62630325872826E-16,-1.));
#622=DIRECTION('',(1.,0.,0.));
#623=DIRECTION('',(-9.9579065194033E-33,-1.62630325872826E-16,1.));
#624=DIRECTION('',(-1.,0.,0.));
#625=DIRECTION('',(0.,-1.,-1.62630325872826E-16));
#626=DIRECTION('',(0.,1.62630325872826E-16,-1.));
#627=DIRECTION('',(-9.9579065194033E-33,-1.62630325872826E-16,1.));
#628=DIRECTION('',(-1.,0.,0.));
#629=DIRECTION('',(-1.,0.,0.));
#630=DIRECTION('',(-1.,0.,0.));
#631=DIRECTION('',(0.,0.,1.));
#632=DIRECTION('',(-1.,0.,0.));
#633=DIRECTION('',(0.,0.,1.));
#634=DIRECTION('',(-1.,0.,0.));
#635=DIRECTION('',(0.,0.,1.));
#636=DIRECTION('',(-1.,0.,0.));
#637=DIRECTION('',(0.,0.,1.));
#638=DIRECTION('',(1.,0.,0.));
#639=DIRECTION('',(0.,0.,-1.));
#640=DIRECTION('',(-1.,0.,0.));
#641=DIRECTION('',(0.,0.,1.));
#642=DIRECTION('',(-1.,0.,0.));
#643=DIRECTION('',(0.,0.,1.));
#644=DIRECTION('',(-1.,0.,0.));
#645=DIRECTION('',(0.,0.,1.));
#646=DIRECTION('',(-1.,0.,0.));
#647=DIRECTION('',(0.,0.,1.));
#648=DIRECTION('',(-1.,0.,0.));
#649=DIRECTION('',(0.,0.,1.));
#650=DIRECTION('',(-1.,0.,0.));
#651=DIRECTION('',(0.,0.,1.));
#652=DIRECTION('',(0.,0.,-1.));
#653=DIRECTION('',(-1.,0.,0.));
#654=DIRECTION('',(-6.12303176911189E-17,-1.,0.));
#655=DIRECTION('',(0.,0.,1.));
#656=DIRECTION('',(1.,0.,0.));
#657=DIRECTION('',(6.12303176911189E-17,1.,0.));
#658=DIRECTION('',(1.,-6.12303176911189E-17,0.));
#659=DIRECTION('',(6.12303176911189E-17,1.,0.));
#660=DIRECTION('',(6.12303176911189E-17,1.,1.80700362080917E-17));
#661=DIRECTION('',(1.77029449233836E-32,2.89120579329468E-16,-1.));
#662=DIRECTION('',(-6.12303176911189E-17,-1.,-1.26490253456642E-16));
#663=DIRECTION('',(-6.12303176911189E-17,-1.,-1.26490253456642E-16));
#664=DIRECTION('',(-1.77029449233836E-32,-2.89120579329468E-16,1.));
#665=DIRECTION('',(6.12303176911189E-17,1.,1.80700362080917E-17));
#666=DIRECTION('',(0.,-1.80700362080917E-17,1.));
#667=DIRECTION('',(0.,-1.,-1.80700362080917E-17));
#668=DIRECTION('',(-1.,0.,0.));
#669=DIRECTION('',(0.,1.26490253456642E-16,-1.));
#670=DIRECTION('',(0.,1.,1.26490253456642E-16));
#671=DIRECTION('',(-1.,0.,0.));
#672=DIRECTION('',(0.,-1.,-2.89120579329468E-16));
#673=DIRECTION('',(0.,2.89120579329468E-16,-1.));
#674=DIRECTION('',(0.,1.,2.89120579329468E-16));
#675=DIRECTION('',(0.,-2.89120579329468E-16,1.));
#676=DIRECTION('',(-1.,0.,0.));
#677=DIRECTION('',(-1.,0.,0.));
#678=DIRECTION('',(0.,1.26490253456642E-16,-1.));
#679=DIRECTION('',(0.,1.,1.26490253456642E-16));
#680=DIRECTION('',(0.,-1.80700362080917E-17,1.));
#681=DIRECTION('',(0.,-1.,-1.80700362080917E-17));
#682=DIRECTION('',(-1.,0.,0.));
#683=DIRECTION('',(0.,0.,1.));
#684=DIRECTION('',(-1.,0.,0.));
#685=DIRECTION('',(0.,0.,1.));
#686=DIRECTION('',(-1.,0.,0.));
#687=DIRECTION('',(0.,0.,1.));
#688=DIRECTION('',(1.,0.,0.));
#689=DIRECTION('',(0.,0.,-1.));
#690=DIRECTION('',(-1.,0.,0.));
#691=DIRECTION('',(0.,0.,1.));
#692=DIRECTION('',(-1.,0.,0.));
#693=DIRECTION('',(0.,0.,1.));
#694=DIRECTION('',(-1.,0.,0.));
#695=DIRECTION('',(0.,0.,1.));
#696=DIRECTION('',(-1.,0.,0.));
#697=DIRECTION('',(0.,0.,1.));
#698=CARTESIAN_POINT('',(0.,0.,0.));
#699=CARTESIAN_POINT('',(4.11234375,0.,0.));
#700=CARTESIAN_POINT('',(-1.68,0.,0.));
#701=CARTESIAN_POINT('',(-1.68,0.,3.));
#702=CARTESIAN_POINT('',(4.11234375,-4.74338450462408E-17,0.375));
#703=CARTESIAN_POINT('',(-2.38919423098297,0.375,0.375));
#704=CARTESIAN_POINT('',(-2.22489706270106,1.5,0.375));
#705=CARTESIAN_POINT('',(4.11234375,0.375,6.09863722023096E-17));
#706=CARTESIAN_POINT('',(-2.22489706270106,0.375,1.5));
#707=CARTESIAN_POINT('',(4.11234375,0.,1.5));
#708=CARTESIAN_POINT('',(-2.22489706270106,-0.375,1.5));
#709=CARTESIAN_POINT('',(4.11234375,-0.375,-1.0842021724855E-16));
#710=CARTESIAN_POINT('',(-2.38919423098297,-0.375,0.375));
#711=CARTESIAN_POINT('',(4.11234375,-4.74338450462408E-17,0.375));
#712=CARTESIAN_POINT('',(-2.22489706270106,-1.5,0.375));
#713=CARTESIAN_POINT('',(4.11234375,-1.5,-4.33680868994202E-16));
#714=CARTESIAN_POINT('',(-2.22489706270106,-1.5,-0.375));
#715=CARTESIAN_POINT('',(4.11234375,6.77626357803441E-18,-0.375));
#716=CARTESIAN_POINT('',(-2.38919423098297,-0.375,-0.375));
#717=CARTESIAN_POINT('',(4.11234375,-0.375,-1.0842021724855E-16));
#718=CARTESIAN_POINT('',(-2.22489706270106,-0.374999999999999,-1.5));
#719=CARTESIAN_POINT('',(4.11234375,0.,-1.5));
#720=CARTESIAN_POINT('',(-2.22489706270106,0.375,-1.5));
#721=CARTESIAN_POINT('',(4.11234375,0.375,6.09863722023096E-17));
#722=CARTESIAN_POINT('',(-2.38919423098297,0.375,-0.375));
#723=CARTESIAN_POINT('',(4.11234375,6.77626357803441E-18,-0.375));
#724=CARTESIAN_POINT('',(-2.22489706270106,1.5,-0.375));
#725=CARTESIAN_POINT('',(4.11234375,1.5,4.33680868994202E-16));
#726=CARTESIAN_POINT('',(-1.92,-0.375,1.5));
#727=CARTESIAN_POINT('',(-1.92,-0.375,1.5));
#728=CARTESIAN_POINT('',(-1.92,-0.375,1.5));
#729=CARTESIAN_POINT('',(-1.92,-0.375,0.375));
#730=CARTESIAN_POINT('',(-1.92,-0.375,0.375));
#731=CARTESIAN_POINT('',(-1.92,-0.375,1.5));
#732=CARTESIAN_POINT('',(-1.92,-0.375,1.5));
#733=CARTESIAN_POINT('',(-1.92,-0.375,-0.375));
#734=CARTESIAN_POINT('',(-1.92,-0.375,-0.375));
#735=CARTESIAN_POINT('',(-1.92,-0.375,1.5));
#736=CARTESIAN_POINT('',(-1.92,-0.374999999999999,-1.5));
#737=CARTESIAN_POINT('',(-1.92,-0.374999999999999,-1.5));
#738=CARTESIAN_POINT('',(-1.92,0.375,-1.5));
#739=CARTESIAN_POINT('',(-1.92,0.375,0.375));
#740=CARTESIAN_POINT('',(-1.92,0.375,0.375));
#741=CARTESIAN_POINT('',(-1.92,0.375,-1.5));
#742=CARTESIAN_POINT('',(-1.92,0.375,1.5));
#743=CARTESIAN_POINT('',(-1.92,0.375,1.5));
#744=CARTESIAN_POINT('',(-1.92,0.375,-1.5));
#745=CARTESIAN_POINT('',(-1.92,0.375,-1.5));
#746=CARTESIAN_POINT('',(-1.92,0.375,-1.5));
#747=CARTESIAN_POINT('',(-1.92,0.375,-0.375));
#748=CARTESIAN_POINT('',(-1.92,0.375,-0.375));
#749=CARTESIAN_POINT('',(-1.92,0.375,-1.5));
#750=CARTESIAN_POINT('',(8.00000000000001,0.,0.));
#751=CARTESIAN_POINT('',(8.00000000000001,0.,0.));
#752=CARTESIAN_POINT('',(8.00000000000001,0.,1.49999999999999));
#753=CARTESIAN_POINT('',(0.,0.,0.));
#754=CARTESIAN_POINT('',(2.20000000000001,0.,0.));
#755=CARTESIAN_POINT('',(2.20000000000001,0.,1.5));
#756=CARTESIAN_POINT('',(2.20000000000001,0.,0.));
#757=CARTESIAN_POINT('',(2.10000000000001,0.,0.));
#758=CARTESIAN_POINT('',(2.10000000000001,0.,1.40000000000001));
#759=CARTESIAN_POINT('',(0.,0.,0.));
#760=CARTESIAN_POINT('',(0.,0.,0.));
#761=CARTESIAN_POINT('',(0.,0.,1.40000000000001));
#762=CARTESIAN_POINT('',(0.,0.,0.));
#763=CARTESIAN_POINT('',(0.,0.,0.));
#764=CARTESIAN_POINT('',(0.,0.,3.));
#765=CARTESIAN_POINT('',(0.,0.,0.));
#766=CARTESIAN_POINT('',(-1.92,0.375,1.5));
#767=CARTESIAN_POINT('',(-1.92,0.375,1.5));
#768=CARTESIAN_POINT('',(-1.92,-0.374999999999999,-1.5));
#769=CARTESIAN_POINT('',(-1.92,-0.374999999999999,-1.5));
#770=CARTESIAN_POINT('',(-1.92,1.46952762458685E-16,0.));
#771=CARTESIAN_POINT('',(-1.92,-1.5,-0.375));
#772=CARTESIAN_POINT('',(-1.92,-1.5,-0.375));
#773=CARTESIAN_POINT('',(-1.92,-1.5,0.375));
#774=CARTESIAN_POINT('',(-1.92,-1.5,0.375));
#775=CARTESIAN_POINT('',(-1.92,1.5,0.375));
#776=CARTESIAN_POINT('',(-1.92,1.5,0.375));
#777=CARTESIAN_POINT('',(-1.92,1.5,0.375));
#778=CARTESIAN_POINT('',(-1.92,1.5,-0.375));
#779=CARTESIAN_POINT('',(-1.92,1.5,-0.375));
#780=CARTESIAN_POINT('',(-1.92,-1.5,-0.375));
#781=CARTESIAN_POINT('',(-1.92,-1.5,-0.375));
#782=CARTESIAN_POINT('',(-1.92,1.5,-0.375));
#783=CARTESIAN_POINT('',(-1.92,1.5,0.375));
#784=CARTESIAN_POINT('',(-1.92,1.5,0.375));
#785=CARTESIAN_POINT('',(-1.92,1.5,-0.375));
#786=CARTESIAN_POINT('',(-1.92,-1.5,0.375));
#787=CARTESIAN_POINT('',(-1.92,-1.5,0.375));
#788=CARTESIAN_POINT('',(-1.92,-1.5,-0.375));
#789=CARTESIAN_POINT('',(-1.92,1.5,0.375));
#790=CARTESIAN_POINT('',(-1.92,-1.5,-0.375));
#791=CARTESIAN_POINT('',(0.,0.,0.));
#792=CARTESIAN_POINT('',(1.21,0.,0.));
#793=CARTESIAN_POINT('',(1.21,0.,3.));
#794=CARTESIAN_POINT('',(0.01,0.,0.));
#795=CARTESIAN_POINT('',(0.01,0.,3.));
#796=CARTESIAN_POINT('',(1.21,0.,3.));
#797=CARTESIAN_POINT('',(1.21,0.,0.));
#798=CARTESIAN_POINT('',(1.21,0.,1.5));
#799=CARTESIAN_POINT('',(0.,0.,0.));
#800=CARTESIAN_POINT('',(0.0100000000000002,0.,0.));
#801=CARTESIAN_POINT('',(0.0100000000000002,0.,1.5));
#802=CARTESIAN_POINT('',(0.0100000000000001,0.,3.));
#803=MECHANICAL_DESIGN_GEOMETRIC_PRESENTATION_REPRESENTATION('',(#354,#355,
#356,#357,#358,#359,#360,#361,#362,#363,#364,#365,#366,#367,#368,#369,#370,
#371,#372,#373,#374),#804);
#804=(
GEOMETRIC_REPRESENTATION_CONTEXT(3)
GLOBAL_UNCERTAINTY_ASSIGNED_CONTEXT((#805))
GLOBAL_UNIT_ASSIGNED_CONTEXT((#808,#807,#806))
REPRESENTATION_CONTEXT(
'\X2\53415B5769FD76D8593487BA9489548C5916952F9F7F95017D2757AB57087EC454084EF6\X0\ 
GBT9074.2-1988','TOP_LEVEL_ASSEMBLY_PART')
);
#805=UNCERTAINTY_MEASURE_WITH_UNIT(LENGTH_MEASURE(0.005),#808,
'DISTANCE_ACCURACY_VALUE','Maximum Tolerance applied to model');
#806=(
NAMED_UNIT(*)
SI_UNIT($,.STERADIAN.)
SOLID_ANGLE_UNIT()
);
#807=(
NAMED_UNIT(*)
PLANE_ANGLE_UNIT()
SI_UNIT($,.RADIAN.)
);
#808=(
LENGTH_UNIT()
NAMED_UNIT(*)
SI_UNIT(.MILLI.,.METRE.)
);
#809=PRODUCT_DEFINITION_SHAPE('','',#810);
#810=PRODUCT_DEFINITION('','',#812,#811);
#811=PRODUCT_DEFINITION_CONTEXT('',#818,'design');
#812=PRODUCT_DEFINITION_FORMATION_WITH_SPECIFIED_SOURCE('','',#814,
 .NOT_KNOWN.);
#813=PRODUCT_RELATED_PRODUCT_CATEGORY('','',(#814));
#814=PRODUCT(
'\X2\53415B5769FD76D8593487BA9489548C5916952F9F7F95017D2757AB57087EC454084EF6\X0\ 
GBT9074.2-1988',
'\X2\53415B5769FD76D8593487BA9489548C5916952F9F7F95017D2757AB57087EC454084EF6\X0\ 
GBT9074.2-1988',
'\X2\53415B5769FD76D8593487BA9489548C5916952F9F7F95017D2757AB57087EC454084EF6\X0\ 
GBT9074.2-1988',(#816));
#815=PRODUCT_CATEGORY('','');
#816=PRODUCT_CONTEXT('',#818,'mechanical');
#817=APPLICATION_PROTOCOL_DEFINITION('international standard',
'automotive_design',2010,#818);
#818=APPLICATION_CONTEXT(
'core data for automotive mechanical design processes');
ENDSEC;
END-ISO-10303-21;
