ISO-10303-21;
HEADER;
/* Generated by software containing HOOPS Exchange Step
 * from HOOPS Exchange, Inc. (www.tiangong.cloud) 
 */

FILE_DESCRIPTION(
/* description */ ('Unknown'),
/* implementation_level */ '2;1');

FILE_NAME(
/* name */ 'YC',
/* time_stamp */ '2025-12-31T14:48:17+08:00',
/* author */ ('Unknown'),
/* organization */ ('Unknown'),
/* preprocessor_version */ 'ST-DEVELOPER v19.4',
/* originating_system */ 'TianGong',
/* authorisation */ 'Unknown');

FILE_SCHEMA (('AUTOMOTIVE_DESIGN {1 0 10303 214 3 1 1}'));
ENDSEC;

DATA;
#10=PROPERTY_DEFINITION_REPRESENTATION(#14,#12);
#11=PROPERTY_DEFINITION_REPRESENTATION(#15,#13);
#12=REPRESENTATION('',(#16),#396);
#13=REPRESENTATION('',(#17),#396);
#14=PROPERTY_DEFINITION('pmi validation property','',#401);
#15=PROPERTY_DEFINITION('pmi validation property','',#401);
#16=VALUE_REPRESENTATION_ITEM('number of annotations',COUNT_MEASURE(0.));
#17=VALUE_REPRESENTATION_ITEM('number of views',COUNT_MEASURE(0.));
#18=SHAPE_REPRESENTATION_RELATIONSHIP('','',#262,#19);
#19=ADVANCED_BREP_SHAPE_REPRESENTATION('',(#260),#396);
#20=TOROIDAL_SURFACE('',#283,1.9,0.8);
#21=VERTEX_LOOP('',#116);
#22=B_SPLINE_CURVE_WITH_KNOTS('',3,(#349,#350,#351,#352),.UNSPECIFIED.,
 .F.,.F.,(4,4),(0.00461953457841767,0.00504564074065726),.UNSPECIFIED.);
#23=B_SPLINE_CURVE_WITH_KNOTS('',3,(#356,#357,#358,#359),.UNSPECIFIED.,
 .F.,.F.,(4,4),(9.94066772758037E-7,0.000427387158833661),.UNSPECIFIED.);
#24=B_SPLINE_CURVE_WITH_KNOTS('',3,(#363,#364,#365,#366),.UNSPECIFIED.,
 .F.,.F.,(4,4),(0.00461953457841767,0.00504564074065727),.UNSPECIFIED.);
#25=B_SPLINE_CURVE_WITH_KNOTS('',3,(#370,#371,#372,#373),.UNSPECIFIED.,
 .F.,.F.,(4,4),(9.94066772757805E-7,0.000427387158833661),.UNSPECIFIED.);
#26=CONICAL_SURFACE('',#268,1.9,0.785398163397448);
#27=CONICAL_SURFACE('',#276,1.1,0.502843210927861);
#28=CYLINDRICAL_SURFACE('',#266,1.9);
#29=CYLINDRICAL_SURFACE('',#273,1.1);
#30=CYLINDRICAL_SURFACE('',#279,1.9);
#31=CIRCLE('',#265,1.9);
#32=CIRCLE('',#267,1.9);
#33=CIRCLE('',#269,1.33431457505076);
#34=CIRCLE('',#270,1.6);
#35=CIRCLE('',#271,1.9);
#36=CIRCLE('',#272,1.6);
#37=CIRCLE('',#274,1.1);
#38=CIRCLE('',#275,1.1);
#39=CIRCLE('',#278,1.9);
#40=ORIENTED_EDGE('',*,*,#82,.F.);
#41=ORIENTED_EDGE('',*,*,#83,.T.);
#42=ORIENTED_EDGE('',*,*,#84,.F.);
#43=ORIENTED_EDGE('',*,*,#83,.F.);
#44=ORIENTED_EDGE('',*,*,#85,.F.);
#45=ORIENTED_EDGE('',*,*,#86,.T.);
#46=ORIENTED_EDGE('',*,*,#87,.T.);
#47=ORIENTED_EDGE('',*,*,#88,.F.);
#48=ORIENTED_EDGE('',*,*,#89,.T.);
#49=ORIENTED_EDGE('',*,*,#90,.F.);
#50=ORIENTED_EDGE('',*,*,#91,.F.);
#51=ORIENTED_EDGE('',*,*,#92,.F.);
#52=ORIENTED_EDGE('',*,*,#93,.T.);
#53=ORIENTED_EDGE('',*,*,#94,.F.);
#54=ORIENTED_EDGE('',*,*,#86,.F.);
#55=ORIENTED_EDGE('',*,*,#95,.T.);
#56=ORIENTED_EDGE('',*,*,#96,.T.);
#57=ORIENTED_EDGE('',*,*,#96,.F.);
#58=ORIENTED_EDGE('',*,*,#97,.F.);
#59=ORIENTED_EDGE('',*,*,#98,.T.);
#60=ORIENTED_EDGE('',*,*,#99,.F.);
#61=ORIENTED_EDGE('',*,*,#98,.F.);
#62=ORIENTED_EDGE('',*,*,#100,.F.);
#63=ORIENTED_EDGE('',*,*,#91,.T.);
#64=ORIENTED_EDGE('',*,*,#94,.T.);
#65=ORIENTED_EDGE('',*,*,#101,.F.);
#66=ORIENTED_EDGE('',*,*,#88,.T.);
#67=ORIENTED_EDGE('',*,*,#85,.T.);
#68=ORIENTED_EDGE('',*,*,#82,.T.);
#69=ORIENTED_EDGE('',*,*,#84,.T.);
#70=ORIENTED_EDGE('',*,*,#90,.T.);
#71=ORIENTED_EDGE('',*,*,#102,.F.);
#72=ORIENTED_EDGE('',*,*,#92,.T.);
#73=ORIENTED_EDGE('',*,*,#100,.T.);
#74=ORIENTED_EDGE('',*,*,#97,.T.);
#75=ORIENTED_EDGE('',*,*,#99,.T.);
#76=ORIENTED_EDGE('',*,*,#101,.T.);
#77=ORIENTED_EDGE('',*,*,#93,.F.);
#78=ORIENTED_EDGE('',*,*,#102,.T.);
#79=ORIENTED_EDGE('',*,*,#89,.F.);
#80=ORIENTED_EDGE('',*,*,#95,.F.);
#81=ORIENTED_EDGE('',*,*,#87,.F.);
#82=EDGE_CURVE('',#103,#104,#119,.T.);
#83=EDGE_CURVE('',#103,#104,#31,.T.);
#84=EDGE_CURVE('',#104,#105,#120,.F.);
#85=EDGE_CURVE('',#106,#103,#121,.T.);
#86=EDGE_CURVE('',#106,#105,#32,.T.);
#87=EDGE_CURVE('',#107,#107,#33,.T.);
#88=EDGE_CURVE('',#108,#106,#22,.T.);
#89=EDGE_CURVE('',#108,#109,#34,.F.);
#90=EDGE_CURVE('',#110,#109,#23,.T.);
#91=EDGE_CURVE('',#111,#110,#35,.T.);
#92=EDGE_CURVE('',#112,#111,#24,.T.);
#93=EDGE_CURVE('',#112,#113,#36,.F.);
#94=EDGE_CURVE('',#105,#113,#25,.T.);
#95=EDGE_CURVE('',#114,#114,#37,.F.);
#96=EDGE_CURVE('',#115,#115,#38,.T.);
#97=EDGE_CURVE('',#117,#118,#122,.T.);
#98=EDGE_CURVE('',#117,#118,#39,.T.);
#99=EDGE_CURVE('',#118,#110,#123,.F.);
#100=EDGE_CURVE('',#111,#117,#124,.T.);
#101=EDGE_CURVE('',#108,#113,#125,.T.);
#102=EDGE_CURVE('',#112,#109,#126,.T.);
#103=VERTEX_POINT('',#337);
#104=VERTEX_POINT('',#338);
#105=VERTEX_POINT('',#342);
#106=VERTEX_POINT('',#344);
#107=VERTEX_POINT('',#348);
#108=VERTEX_POINT('',#353);
#109=VERTEX_POINT('',#355);
#110=VERTEX_POINT('',#360);
#111=VERTEX_POINT('',#362);
#112=VERTEX_POINT('',#367);
#113=VERTEX_POINT('',#369);
#114=VERTEX_POINT('',#376);
#115=VERTEX_POINT('',#378);
#116=VERTEX_POINT('',#380);
#117=VERTEX_POINT('',#383);
#118=VERTEX_POINT('',#384);
#119=LINE('',#336,#127);
#120=LINE('',#341,#128);
#121=LINE('',#343,#129);
#122=LINE('',#382,#130);
#123=LINE('',#387,#131);
#124=LINE('',#388,#132);
#125=LINE('',#390,#133);
#126=LINE('',#392,#134);
#127=VECTOR('',#288,1000.);
#128=VECTOR('',#293,1000.);
#129=VECTOR('',#294,1000.);
#130=VECTOR('',#317,1000.);
#131=VECTOR('',#322,1000.);
#132=VECTOR('',#323,1000.);
#133=VECTOR('',#326,1000.);
#134=VECTOR('',#329,1000.);
#135=EDGE_LOOP('',(#40,#41));
#136=EDGE_LOOP('',(#42,#43,#44,#45));
#137=EDGE_LOOP('',(#46));
#138=EDGE_LOOP('',(#47,#48,#49,#50,#51,#52,#53,#54));
#139=EDGE_LOOP('',(#55));
#140=EDGE_LOOP('',(#56));
#141=EDGE_LOOP('',(#57));
#142=EDGE_LOOP('',(#58,#59));
#143=EDGE_LOOP('',(#60,#61,#62,#63));
#144=EDGE_LOOP('',(#64,#65,#66,#67,#68,#69));
#145=EDGE_LOOP('',(#70,#71,#72,#73,#74,#75));
#146=EDGE_LOOP('',(#76,#77,#78,#79));
#147=EDGE_LOOP('',(#80));
#148=EDGE_LOOP('',(#81));
#149=FACE_BOUND('',#135,.T.);
#150=FACE_BOUND('',#136,.T.);
#151=FACE_BOUND('',#137,.T.);
#152=FACE_BOUND('',#138,.T.);
#153=FACE_BOUND('',#139,.T.);
#154=FACE_BOUND('',#140,.T.);
#155=FACE_BOUND('',#21,.T.);
#156=FACE_BOUND('',#141,.T.);
#157=FACE_BOUND('',#142,.T.);
#158=FACE_BOUND('',#143,.T.);
#159=FACE_BOUND('',#144,.T.);
#160=FACE_BOUND('',#145,.T.);
#161=FACE_BOUND('',#146,.T.);
#162=FACE_BOUND('',#147,.T.);
#163=FACE_BOUND('',#148,.T.);
#164=PLANE('',#264);
#165=PLANE('',#277);
#166=PLANE('',#280);
#167=PLANE('',#281);
#168=PLANE('',#282);
#169=STYLED_ITEM('',(#180),#248);
#170=STYLED_ITEM('',(#181),#249);
#171=STYLED_ITEM('',(#182),#250);
#172=STYLED_ITEM('',(#183),#251);
#173=STYLED_ITEM('',(#184),#252);
#174=STYLED_ITEM('',(#185),#253);
#175=STYLED_ITEM('',(#186),#254);
#176=STYLED_ITEM('',(#187),#255);
#177=STYLED_ITEM('',(#188),#256);
#178=STYLED_ITEM('',(#189),#257);
#179=STYLED_ITEM('',(#190),#258);
#180=PRESENTATION_STYLE_ASSIGNMENT((#191));
#181=PRESENTATION_STYLE_ASSIGNMENT((#192));
#182=PRESENTATION_STYLE_ASSIGNMENT((#193));
#183=PRESENTATION_STYLE_ASSIGNMENT((#194));
#184=PRESENTATION_STYLE_ASSIGNMENT((#195));
#185=PRESENTATION_STYLE_ASSIGNMENT((#196));
#186=PRESENTATION_STYLE_ASSIGNMENT((#197));
#187=PRESENTATION_STYLE_ASSIGNMENT((#198));
#188=PRESENTATION_STYLE_ASSIGNMENT((#199));
#189=PRESENTATION_STYLE_ASSIGNMENT((#200));
#190=PRESENTATION_STYLE_ASSIGNMENT((#201));
#191=SURFACE_STYLE_USAGE(.BOTH.,#202);
#192=SURFACE_STYLE_USAGE(.BOTH.,#203);
#193=SURFACE_STYLE_USAGE(.BOTH.,#204);
#194=SURFACE_STYLE_USAGE(.BOTH.,#205);
#195=SURFACE_STYLE_USAGE(.BOTH.,#206);
#196=SURFACE_STYLE_USAGE(.BOTH.,#207);
#197=SURFACE_STYLE_USAGE(.BOTH.,#208);
#198=SURFACE_STYLE_USAGE(.BOTH.,#209);
#199=SURFACE_STYLE_USAGE(.BOTH.,#210);
#200=SURFACE_STYLE_USAGE(.BOTH.,#211);
#201=SURFACE_STYLE_USAGE(.BOTH.,#212);
#202=SURFACE_SIDE_STYLE('',(#213));
#203=SURFACE_SIDE_STYLE('',(#214));
#204=SURFACE_SIDE_STYLE('',(#215));
#205=SURFACE_SIDE_STYLE('',(#216));
#206=SURFACE_SIDE_STYLE('',(#217));
#207=SURFACE_SIDE_STYLE('',(#218));
#208=SURFACE_SIDE_STYLE('',(#219));
#209=SURFACE_SIDE_STYLE('',(#220));
#210=SURFACE_SIDE_STYLE('',(#221));
#211=SURFACE_SIDE_STYLE('',(#222));
#212=SURFACE_SIDE_STYLE('',(#223));
#213=SURFACE_STYLE_FILL_AREA(#224);
#214=SURFACE_STYLE_FILL_AREA(#225);
#215=SURFACE_STYLE_FILL_AREA(#226);
#216=SURFACE_STYLE_FILL_AREA(#227);
#217=SURFACE_STYLE_FILL_AREA(#228);
#218=SURFACE_STYLE_FILL_AREA(#229);
#219=SURFACE_STYLE_FILL_AREA(#230);
#220=SURFACE_STYLE_FILL_AREA(#231);
#221=SURFACE_STYLE_FILL_AREA(#232);
#222=SURFACE_STYLE_FILL_AREA(#233);
#223=SURFACE_STYLE_FILL_AREA(#234);
#224=FILL_AREA_STYLE('',(#235));
#225=FILL_AREA_STYLE('',(#236));
#226=FILL_AREA_STYLE('',(#237));
#227=FILL_AREA_STYLE('',(#238));
#228=FILL_AREA_STYLE('',(#239));
#229=FILL_AREA_STYLE('',(#240));
#230=FILL_AREA_STYLE('',(#241));
#231=FILL_AREA_STYLE('',(#242));
#232=FILL_AREA_STYLE('',(#243));
#233=FILL_AREA_STYLE('',(#244));
#234=FILL_AREA_STYLE('',(#245));
#235=FILL_AREA_STYLE_COLOUR('',#246);
#236=FILL_AREA_STYLE_COLOUR('',#246);
#237=FILL_AREA_STYLE_COLOUR('',#246);
#238=FILL_AREA_STYLE_COLOUR('',#247);
#239=FILL_AREA_STYLE_COLOUR('',#246);
#240=FILL_AREA_STYLE_COLOUR('',#246);
#241=FILL_AREA_STYLE_COLOUR('',#246);
#242=FILL_AREA_STYLE_COLOUR('',#246);
#243=FILL_AREA_STYLE_COLOUR('',#246);
#244=FILL_AREA_STYLE_COLOUR('',#246);
#245=FILL_AREA_STYLE_COLOUR('',#246);
#246=COLOUR_RGB('',0.506983280181885,0.531564235687256,0.550000011920929);
#247=COLOUR_RGB('',0.1875,0.75,0.581249892711639);
#248=ADVANCED_FACE('',(#149),#164,.T.);
#249=ADVANCED_FACE('',(#150),#28,.T.);
#250=ADVANCED_FACE('',(#151,#152),#26,.T.);
#251=ADVANCED_FACE('',(#153,#154),#29,.T.);
#252=ADVANCED_FACE('',(#155,#156),#27,.T.);
#253=ADVANCED_FACE('',(#157),#165,.T.);
#254=ADVANCED_FACE('',(#158),#30,.T.);
#255=ADVANCED_FACE('',(#159),#166,.F.);
#256=ADVANCED_FACE('',(#160),#167,.F.);
#257=ADVANCED_FACE('',(#161),#168,.T.);
#258=ADVANCED_FACE('',(#162,#163),#20,.F.);
#259=CLOSED_SHELL('',(#248,#249,#250,#251,#252,#253,#254,#255,#256,#257,
#258));
#260=MANIFOLD_SOLID_BREP('',#259);
#261=SHAPE_DEFINITION_REPRESENTATION(#401,#262);
#262=SHAPE_REPRESENTATION('YC',(#263),#396);
#263=AXIS2_PLACEMENT_3D('',#334,#284,#285);
#264=AXIS2_PLACEMENT_3D('',#335,#286,#287);
#265=AXIS2_PLACEMENT_3D('',#339,#289,#290);
#266=AXIS2_PLACEMENT_3D('',#340,#291,#292);
#267=AXIS2_PLACEMENT_3D('',#345,#295,#296);
#268=AXIS2_PLACEMENT_3D('',#346,#297,#298);
#269=AXIS2_PLACEMENT_3D('',#347,#299,#300);
#270=AXIS2_PLACEMENT_3D('',#354,#301,#302);
#271=AXIS2_PLACEMENT_3D('',#361,#303,#304);
#272=AXIS2_PLACEMENT_3D('',#368,#305,#306);
#273=AXIS2_PLACEMENT_3D('',#374,#307,#308);
#274=AXIS2_PLACEMENT_3D('',#375,#309,#310);
#275=AXIS2_PLACEMENT_3D('',#377,#311,#312);
#276=AXIS2_PLACEMENT_3D('',#379,#313,#314);
#277=AXIS2_PLACEMENT_3D('',#381,#315,#316);
#278=AXIS2_PLACEMENT_3D('',#385,#318,#319);
#279=AXIS2_PLACEMENT_3D('',#386,#320,#321);
#280=AXIS2_PLACEMENT_3D('',#389,#324,#325);
#281=AXIS2_PLACEMENT_3D('',#391,#327,#328);
#282=AXIS2_PLACEMENT_3D('',#393,#330,#331);
#283=AXIS2_PLACEMENT_3D('',#394,#332,#333);
#284=DIRECTION('',(0.,0.,1.));
#285=DIRECTION('',(1.,0.,0.));
#286=DIRECTION('',(-1.,0.,0.));
#287=DIRECTION('',(0.,0.,1.));
#288=DIRECTION('',(-6.12303176911189E-17,-1.,-1.14126544472158E-16));
#289=DIRECTION('',(-1.,0.,0.));
#290=DIRECTION('',(0.,0.,1.));
#291=DIRECTION('',(-1.,0.,0.));
#292=DIRECTION('',(0.,0.,1.));
#293=DIRECTION('',(-1.,0.,0.));
#294=DIRECTION('',(-1.,0.,0.));
#295=DIRECTION('',(-1.,0.,0.));
#296=DIRECTION('',(0.,0.,1.));
#297=DIRECTION('',(-1.,0.,0.));
#298=DIRECTION('',(0.,0.,1.));
#299=DIRECTION('',(-1.,0.,0.));
#300=DIRECTION('',(0.,0.,1.));
#301=DIRECTION('',(-1.,6.12303176911189E-17,0.));
#302=DIRECTION('',(-6.12303176911189E-17,-1.,0.));
#303=DIRECTION('',(-1.,0.,0.));
#304=DIRECTION('',(0.,0.,1.));
#305=DIRECTION('',(-1.,6.12303176911189E-17,0.));
#306=DIRECTION('',(-6.12303176911189E-17,-1.,0.));
#307=DIRECTION('',(-1.,0.,0.));
#308=DIRECTION('',(0.,0.,1.));
#309=DIRECTION('',(-1.,0.,0.));
#310=DIRECTION('',(0.,0.,1.));
#311=DIRECTION('',(-1.,0.,0.));
#312=DIRECTION('',(0.,0.,1.));
#313=DIRECTION('',(-1.,0.,0.));
#314=DIRECTION('',(0.,0.,1.));
#315=DIRECTION('',(-1.,0.,0.));
#316=DIRECTION('',(0.,0.,1.));
#317=DIRECTION('',(6.12303176911189E-17,1.,0.));
#318=DIRECTION('',(-1.,0.,0.));
#319=DIRECTION('',(0.,0.,1.));
#320=DIRECTION('',(-1.,0.,0.));
#321=DIRECTION('',(0.,0.,1.));
#322=DIRECTION('',(-1.,0.,0.));
#323=DIRECTION('',(-1.,0.,0.));
#324=DIRECTION('',(0.,1.14126544472158E-16,-1.));
#325=DIRECTION('',(0.,1.,1.14126544472158E-16));
#326=DIRECTION('',(-6.12303176911189E-17,-1.,-1.14126544472158E-16));
#327=DIRECTION('',(0.,0.,1.));
#328=DIRECTION('',(1.,0.,0.));
#329=DIRECTION('',(6.12303176911189E-17,1.,0.));
#330=DIRECTION('',(-1.,6.12303176911189E-17,0.));
#331=DIRECTION('',(-6.12303176911189E-17,-1.,0.));
#332=DIRECTION('',(-1.,0.,0.));
#333=DIRECTION('',(0.,0.,1.));
#334=CARTESIAN_POINT('',(0.,0.,0.));
#335=CARTESIAN_POINT('',(0.,0.,0.));
#336=CARTESIAN_POINT('',(1.16337603613126E-16,1.9,-0.25));
#337=CARTESIAN_POINT('',(1.15326128984979E-16,1.88348082018374,-0.25));
#338=CARTESIAN_POINT('',(-1.15326128984979E-16,-1.88348082018374,-0.250000000000001));
#339=CARTESIAN_POINT('',(0.,0.,0.));
#340=CARTESIAN_POINT('',(0.,0.,0.));
#341=CARTESIAN_POINT('',(0.,-1.88348082018374,-0.250000000000001));
#342=CARTESIAN_POINT('',(0.299999999999999,-1.88348082018374,-0.250000000000001));
#343=CARTESIAN_POINT('',(0.,1.88348082018374,-0.25));
#344=CARTESIAN_POINT('',(0.299999999999999,1.88348082018374,-0.25));
#345=CARTESIAN_POINT('',(0.299999999999999,0.,0.));
#346=CARTESIAN_POINT('',(0.299999999999999,0.,0.));
#347=CARTESIAN_POINT('',(0.865685424949238,0.,0.));
#348=CARTESIAN_POINT('',(0.865685424949238,0.,1.33431457505076));
#349=CARTESIAN_POINT('',(0.6,1.58034806292791,-0.25));
#350=CARTESIAN_POINT('',(0.500100072888596,1.68149026516032,-0.25));
#351=CARTESIAN_POINT('',(0.400084121690793,1.78251890479032,-0.25));
#352=CARTESIAN_POINT('',(0.299999999999998,1.88348082018374,-0.25));
#353=CARTESIAN_POINT('',(0.6,1.58034806292791,-0.25));
#354=CARTESIAN_POINT('',(0.6,-9.79685083057901E-17,0.));
#355=CARTESIAN_POINT('',(0.6,1.58034806292791,0.25));
#356=CARTESIAN_POINT('',(0.3,1.88348082018374,0.25));
#357=CARTESIAN_POINT('',(0.400085384530726,1.78251763087458,0.25));
#358=CARTESIAN_POINT('',(0.50010157238262,1.68148874701979,0.25));
#359=CARTESIAN_POINT('',(0.6,1.58034806292791,0.25));
#360=CARTESIAN_POINT('',(0.299999999999999,1.88348082018374,0.25));
#361=CARTESIAN_POINT('',(0.299999999999999,0.,0.));
#362=CARTESIAN_POINT('',(0.299999999999999,-1.88348082018374,0.25));
#363=CARTESIAN_POINT('',(0.599999999999999,-1.58034806292791,0.25));
#364=CARTESIAN_POINT('',(0.500100072888595,-1.68149026516032,0.25));
#365=CARTESIAN_POINT('',(0.400084121690792,-1.78251890479032,0.25));
#366=CARTESIAN_POINT('',(0.299999999999998,-1.88348082018374,0.25));
#367=CARTESIAN_POINT('',(0.6,-1.58034806292791,0.25));
#368=CARTESIAN_POINT('',(0.6,-9.79685083057901E-17,0.));
#369=CARTESIAN_POINT('',(0.6,-1.58034806292791,-0.250000000000001));
#370=CARTESIAN_POINT('',(0.3,-1.88348082018374,-0.250000000000001));
#371=CARTESIAN_POINT('',(0.400085384530726,-1.78251763087458,-0.250000000000001));
#372=CARTESIAN_POINT('',(0.50010157238262,-1.68148874701979,-0.250000000000001));
#373=CARTESIAN_POINT('',(0.6,-1.58034806292791,-0.250000000000001));
#374=CARTESIAN_POINT('',(0.,0.,0.));
#375=CARTESIAN_POINT('',(1.43137084989848,0.,0.));
#376=CARTESIAN_POINT('',(1.43137084989848,0.,1.1));
#377=CARTESIAN_POINT('',(14.,0.,0.));
#378=CARTESIAN_POINT('',(14.,0.,1.1));
#379=CARTESIAN_POINT('',(14.,0.,0.));
#380=CARTESIAN_POINT('',(16.,0.,0.));
#381=CARTESIAN_POINT('',(0.,0.,0.));
#382=CARTESIAN_POINT('',(-1.16337603613126E-16,-1.9,0.25));
#383=CARTESIAN_POINT('',(-1.15326128984979E-16,-1.88348082018374,0.25));
#384=CARTESIAN_POINT('',(1.15326128984979E-16,1.88348082018374,0.25));
#385=CARTESIAN_POINT('',(0.,0.,0.));
#386=CARTESIAN_POINT('',(0.,0.,0.));
#387=CARTESIAN_POINT('',(0.,1.88348082018374,0.25));
#388=CARTESIAN_POINT('',(0.,-1.88348082018374,0.25));
#389=CARTESIAN_POINT('',(0.6,1.9,-0.25));
#390=CARTESIAN_POINT('',(0.6,1.9,-0.25));
#391=CARTESIAN_POINT('',(0.6,-1.9,0.25));
#392=CARTESIAN_POINT('',(0.6,-1.9,0.25));
#393=CARTESIAN_POINT('',(0.6,0.,0.));
#394=CARTESIAN_POINT('',(1.43137084989848,0.,0.));
#395=MECHANICAL_DESIGN_GEOMETRIC_PRESENTATION_REPRESENTATION('',(#169,#170,
#171,#172,#173,#174,#175,#176,#177,#178,#179),#396);
#396=(
GEOMETRIC_REPRESENTATION_CONTEXT(3)
GLOBAL_UNCERTAINTY_ASSIGNED_CONTEXT((#397))
GLOBAL_UNIT_ASSIGNED_CONTEXT((#400,#399,#398))
REPRESENTATION_CONTEXT('YC','TOP_LEVEL_ASSEMBLY_PART')
);
#397=UNCERTAINTY_MEASURE_WITH_UNIT(LENGTH_MEASURE(0.005),#400,
'DISTANCE_ACCURACY_VALUE','Maximum Tolerance applied to model');
#398=(
NAMED_UNIT(*)
SI_UNIT($,.STERADIAN.)
SOLID_ANGLE_UNIT()
);
#399=(
NAMED_UNIT(*)
PLANE_ANGLE_UNIT()
SI_UNIT($,.RADIAN.)
);
#400=(
LENGTH_UNIT()
NAMED_UNIT(*)
SI_UNIT(.MILLI.,.METRE.)
);
#401=PRODUCT_DEFINITION_SHAPE('','',#402);
#402=PRODUCT_DEFINITION('','',#404,#403);
#403=PRODUCT_DEFINITION_CONTEXT('',#410,'design');
#404=PRODUCT_DEFINITION_FORMATION_WITH_SPECIFIED_SOURCE('','',#406,
 .NOT_KNOWN.);
#405=PRODUCT_RELATED_PRODUCT_CATEGORY('','',(#406));
#406=PRODUCT('YC','YC','YC',(#408));
#407=PRODUCT_CATEGORY('','');
#408=PRODUCT_CONTEXT('',#410,'mechanical');
#409=APPLICATION_PROTOCOL_DEFINITION('international standard',
'automotive_design',2010,#410);
#410=APPLICATION_CONTEXT(
'core data for automotive mechanical design processes');
ENDSEC;
END-ISO-10303-21;
