ISO-10303-21;
HEADER;
/* Generated by software containing HOOPS Exchange Step
 * from HOOPS Exchange, Inc. (www.tiangong.cloud) 
 */

FILE_DESCRIPTION(
/* description */ ('Unknown'),
/* implementation_level */ '2;1');

FILE_NAME(
/* name */ 'yc',
/* time_stamp */ '2025-10-27T20:16:38+08:00',
/* author */ ('Unknown'),
/* organization */ ('Unknown'),
/* preprocessor_version */ 'ST-DEVELOPER v19.4',
/* originating_system */ 'TianGong',
/* authorisation */ 'Unknown');

FILE_SCHEMA (('AUTOMOTIVE_DESIGN {1 0 10303 214 3 1 1}'));
ENDSEC;

DATA;
#10=PROPERTY_DEFINITION_REPRESENTATION(#14,#12);
#11=PROPERTY_DEFINITION_REPRESENTATION(#15,#13);
#12=REPRESENTATION('',(#16),#495);
#13=REPRESENTATION('',(#17),#495);
#14=PROPERTY_DEFINITION('pmi validation property','',#500);
#15=PROPERTY_DEFINITION('pmi validation property','',#500);
#16=VALUE_REPRESENTATION_ITEM('number of annotations',COUNT_MEASURE(0.));
#17=VALUE_REPRESENTATION_ITEM('number of views',COUNT_MEASURE(0.));
#18=SHAPE_REPRESENTATION_RELATIONSHIP('','',#268,#19);
#19=ADVANCED_BREP_SHAPE_REPRESENTATION('',(#266),#495);
#20=TOROIDAL_SURFACE('',#309,2.65,1.2);
#21=PLANE('',#292);
#22=PLANE('',#298);
#23=VERTEX_LOOP('',#180);
#24=CONICAL_SURFACE('',#285,3.15,0.785398163397447);
#25=CONICAL_SURFACE('',#291,1.45,0.508729824315554);
#26=LINE('',#449,#28);
#27=LINE('',#463,#29);
#28=VECTOR('',#334,1000.);
#29=VECTOR('',#343,1000.);
#30=CIRCLE('',#271,1.4);
#31=CIRCLE('',#272,1.4);
#32=CIRCLE('',#274,1.4);
#33=CIRCLE('',#275,1.4);
#34=CIRCLE('',#277,1.4);
#35=CIRCLE('',#278,1.4);
#36=CIRCLE('',#280,1.4);
#37=CIRCLE('',#281,1.4);
#38=CIRCLE('',#283,1.4);
#39=CIRCLE('',#284,1.4);
#40=CIRCLE('',#286,1.80147186257614);
#41=CIRCLE('',#287,3.15);
#42=CIRCLE('',#289,1.45);
#43=CIRCLE('',#290,1.45);
#44=CIRCLE('',#293,0.56);
#45=CIRCLE('',#294,0.56);
#46=CIRCLE('',#295,0.56);
#47=CIRCLE('',#296,0.56);
#48=CIRCLE('',#297,0.56);
#49=CIRCLE('',#299,0.56);
#50=CIRCLE('',#300,0.56);
#51=CIRCLE('',#301,0.56);
#52=CIRCLE('',#302,0.56);
#53=CIRCLE('',#303,0.56);
#54=ORIENTED_EDGE('',*,*,#122,.F.);
#55=ORIENTED_EDGE('',*,*,#123,.F.);
#56=ORIENTED_EDGE('',*,*,#124,.T.);
#57=ORIENTED_EDGE('',*,*,#125,.T.);
#58=ORIENTED_EDGE('',*,*,#126,.F.);
#59=ORIENTED_EDGE('',*,*,#127,.F.);
#60=ORIENTED_EDGE('',*,*,#128,.T.);
#61=ORIENTED_EDGE('',*,*,#129,.T.);
#62=ORIENTED_EDGE('',*,*,#130,.F.);
#63=ORIENTED_EDGE('',*,*,#131,.F.);
#64=ORIENTED_EDGE('',*,*,#132,.T.);
#65=ORIENTED_EDGE('',*,*,#133,.T.);
#66=ORIENTED_EDGE('',*,*,#134,.F.);
#67=ORIENTED_EDGE('',*,*,#135,.F.);
#68=ORIENTED_EDGE('',*,*,#136,.T.);
#69=ORIENTED_EDGE('',*,*,#137,.T.);
#70=ORIENTED_EDGE('',*,*,#138,.F.);
#71=ORIENTED_EDGE('',*,*,#139,.T.);
#72=ORIENTED_EDGE('',*,*,#140,.T.);
#73=ORIENTED_EDGE('',*,*,#141,.F.);
#74=ORIENTED_EDGE('',*,*,#142,.T.);
#75=ORIENTED_EDGE('',*,*,#143,.F.);
#76=ORIENTED_EDGE('',*,*,#144,.T.);
#77=ORIENTED_EDGE('',*,*,#145,.T.);
#78=ORIENTED_EDGE('',*,*,#145,.F.);
#79=ORIENTED_EDGE('',*,*,#137,.F.);
#80=ORIENTED_EDGE('',*,*,#146,.T.);
#81=ORIENTED_EDGE('',*,*,#140,.F.);
#82=ORIENTED_EDGE('',*,*,#147,.T.);
#83=ORIENTED_EDGE('',*,*,#125,.F.);
#84=ORIENTED_EDGE('',*,*,#148,.T.);
#85=ORIENTED_EDGE('',*,*,#129,.F.);
#86=ORIENTED_EDGE('',*,*,#149,.T.);
#87=ORIENTED_EDGE('',*,*,#133,.F.);
#88=ORIENTED_EDGE('',*,*,#150,.T.);
#89=ORIENTED_EDGE('',*,*,#143,.T.);
#90=ORIENTED_EDGE('',*,*,#151,.F.);
#91=ORIENTED_EDGE('',*,*,#138,.T.);
#92=ORIENTED_EDGE('',*,*,#152,.F.);
#93=ORIENTED_EDGE('',*,*,#135,.T.);
#94=ORIENTED_EDGE('',*,*,#153,.F.);
#95=ORIENTED_EDGE('',*,*,#131,.T.);
#96=ORIENTED_EDGE('',*,*,#154,.F.);
#97=ORIENTED_EDGE('',*,*,#127,.T.);
#98=ORIENTED_EDGE('',*,*,#155,.F.);
#99=ORIENTED_EDGE('',*,*,#123,.T.);
#100=ORIENTED_EDGE('',*,*,#146,.F.);
#101=ORIENTED_EDGE('',*,*,#136,.F.);
#102=ORIENTED_EDGE('',*,*,#152,.T.);
#103=ORIENTED_EDGE('',*,*,#141,.T.);
#104=ORIENTED_EDGE('',*,*,#150,.F.);
#105=ORIENTED_EDGE('',*,*,#132,.F.);
#106=ORIENTED_EDGE('',*,*,#153,.T.);
#107=ORIENTED_EDGE('',*,*,#134,.T.);
#108=ORIENTED_EDGE('',*,*,#149,.F.);
#109=ORIENTED_EDGE('',*,*,#128,.F.);
#110=ORIENTED_EDGE('',*,*,#154,.T.);
#111=ORIENTED_EDGE('',*,*,#130,.T.);
#112=ORIENTED_EDGE('',*,*,#148,.F.);
#113=ORIENTED_EDGE('',*,*,#124,.F.);
#114=ORIENTED_EDGE('',*,*,#155,.T.);
#115=ORIENTED_EDGE('',*,*,#126,.T.);
#116=ORIENTED_EDGE('',*,*,#147,.F.);
#117=ORIENTED_EDGE('',*,*,#139,.F.);
#118=ORIENTED_EDGE('',*,*,#151,.T.);
#119=ORIENTED_EDGE('',*,*,#122,.T.);
#120=ORIENTED_EDGE('',*,*,#144,.F.);
#121=ORIENTED_EDGE('',*,*,#142,.F.);
#122=EDGE_CURVE('',#156,#157,#181,.T.);
#123=EDGE_CURVE('',#158,#156,#30,.T.);
#124=EDGE_CURVE('',#158,#159,#182,.T.);
#125=EDGE_CURVE('',#159,#157,#31,.T.);
#126=EDGE_CURVE('',#160,#161,#183,.T.);
#127=EDGE_CURVE('',#162,#160,#32,.T.);
#128=EDGE_CURVE('',#162,#163,#184,.T.);
#129=EDGE_CURVE('',#163,#161,#33,.T.);
#130=EDGE_CURVE('',#164,#165,#185,.T.);
#131=EDGE_CURVE('',#166,#164,#34,.T.);
#132=EDGE_CURVE('',#166,#167,#186,.T.);
#133=EDGE_CURVE('',#167,#165,#35,.T.);
#134=EDGE_CURVE('',#168,#169,#187,.T.);
#135=EDGE_CURVE('',#170,#168,#36,.T.);
#136=EDGE_CURVE('',#170,#171,#26,.T.);
#137=EDGE_CURVE('',#171,#169,#37,.T.);
#138=EDGE_CURVE('',#172,#173,#38,.T.);
#139=EDGE_CURVE('',#172,#174,#188,.T.);
#140=EDGE_CURVE('',#174,#175,#39,.T.);
#141=EDGE_CURVE('',#173,#175,#27,.T.);
#142=EDGE_CURVE('',#176,#176,#40,.T.);
#143=EDGE_CURVE('',#177,#177,#41,.T.);
#144=EDGE_CURVE('',#178,#178,#42,.F.);
#145=EDGE_CURVE('',#179,#179,#43,.T.);
#146=EDGE_CURVE('',#171,#175,#44,.T.);
#147=EDGE_CURVE('',#174,#157,#45,.T.);
#148=EDGE_CURVE('',#159,#161,#46,.T.);
#149=EDGE_CURVE('',#163,#165,#47,.T.);
#150=EDGE_CURVE('',#167,#169,#48,.T.);
#151=EDGE_CURVE('',#172,#156,#49,.T.);
#152=EDGE_CURVE('',#170,#173,#50,.T.);
#153=EDGE_CURVE('',#166,#168,#51,.T.);
#154=EDGE_CURVE('',#162,#164,#52,.T.);
#155=EDGE_CURVE('',#158,#160,#53,.T.);
#156=VERTEX_POINT('',#400);
#157=VERTEX_POINT('',#401);
#158=VERTEX_POINT('',#403);
#159=VERTEX_POINT('',#408);
#160=VERTEX_POINT('',#415);
#161=VERTEX_POINT('',#416);
#162=VERTEX_POINT('',#418);
#163=VERTEX_POINT('',#423);
#164=VERTEX_POINT('',#430);
#165=VERTEX_POINT('',#431);
#166=VERTEX_POINT('',#433);
#167=VERTEX_POINT('',#438);
#168=VERTEX_POINT('',#445);
#169=VERTEX_POINT('',#446);
#170=VERTEX_POINT('',#448);
#171=VERTEX_POINT('',#450);
#172=VERTEX_POINT('',#454);
#173=VERTEX_POINT('',#455);
#174=VERTEX_POINT('',#460);
#175=VERTEX_POINT('',#462);
#176=VERTEX_POINT('',#466);
#177=VERTEX_POINT('',#468);
#178=VERTEX_POINT('',#471);
#179=VERTEX_POINT('',#473);
#180=VERTEX_POINT('',#475);
#181=B_SPLINE_CURVE_WITH_KNOTS('',3,(#396,#397,#398,#399),.UNSPECIFIED.,
 .F.,.F.,(4,4),(0.,1.),.UNSPECIFIED.);
#182=B_SPLINE_CURVE_WITH_KNOTS('',3,(#404,#405,#406,#407),.UNSPECIFIED.,
 .F.,.F.,(4,4),(0.,1.),.UNSPECIFIED.);
#183=B_SPLINE_CURVE_WITH_KNOTS('',3,(#411,#412,#413,#414),.UNSPECIFIED.,
 .F.,.F.,(4,4),(0.,1.),.UNSPECIFIED.);
#184=B_SPLINE_CURVE_WITH_KNOTS('',3,(#419,#420,#421,#422),.UNSPECIFIED.,
 .F.,.F.,(4,4),(0.,1.),.UNSPECIFIED.);
#185=B_SPLINE_CURVE_WITH_KNOTS('',3,(#426,#427,#428,#429),.UNSPECIFIED.,
 .F.,.F.,(4,4),(0.,1.),.UNSPECIFIED.);
#186=B_SPLINE_CURVE_WITH_KNOTS('',3,(#434,#435,#436,#437),.UNSPECIFIED.,
 .F.,.F.,(4,4),(0.,1.),.UNSPECIFIED.);
#187=B_SPLINE_CURVE_WITH_KNOTS('',3,(#441,#442,#443,#444),.UNSPECIFIED.,
 .F.,.F.,(4,4),(0.,1.),.UNSPECIFIED.);
#188=B_SPLINE_CURVE_WITH_KNOTS('',3,(#456,#457,#458,#459),.UNSPECIFIED.,
 .F.,.F.,(4,4),(0.,1.),.UNSPECIFIED.);
#189=EDGE_LOOP('',(#54,#55,#56,#57));
#190=EDGE_LOOP('',(#58,#59,#60,#61));
#191=EDGE_LOOP('',(#62,#63,#64,#65));
#192=EDGE_LOOP('',(#66,#67,#68,#69));
#193=EDGE_LOOP('',(#70,#71,#72,#73));
#194=EDGE_LOOP('',(#74));
#195=EDGE_LOOP('',(#75));
#196=EDGE_LOOP('',(#76));
#197=EDGE_LOOP('',(#77));
#198=EDGE_LOOP('',(#78));
#199=EDGE_LOOP('',(#79,#80,#81,#82,#83,#84,#85,#86,#87,#88));
#200=EDGE_LOOP('',(#89));
#201=EDGE_LOOP('',(#90,#91,#92,#93,#94,#95,#96,#97,#98,#99));
#202=EDGE_LOOP('',(#100,#101,#102,#103));
#203=EDGE_LOOP('',(#104,#105,#106,#107));
#204=EDGE_LOOP('',(#108,#109,#110,#111));
#205=EDGE_LOOP('',(#112,#113,#114,#115));
#206=EDGE_LOOP('',(#116,#117,#118,#119));
#207=EDGE_LOOP('',(#120));
#208=EDGE_LOOP('',(#121));
#209=FACE_BOUND('',#189,.T.);
#210=FACE_BOUND('',#190,.T.);
#211=FACE_BOUND('',#191,.T.);
#212=FACE_BOUND('',#192,.T.);
#213=FACE_BOUND('',#193,.T.);
#214=FACE_BOUND('',#194,.T.);
#215=FACE_BOUND('',#195,.T.);
#216=FACE_BOUND('',#196,.T.);
#217=FACE_BOUND('',#197,.T.);
#218=FACE_BOUND('',#23,.T.);
#219=FACE_BOUND('',#198,.T.);
#220=FACE_BOUND('',#199,.T.);
#221=FACE_BOUND('',#200,.T.);
#222=FACE_BOUND('',#201,.T.);
#223=FACE_BOUND('',#202,.T.);
#224=FACE_BOUND('',#203,.T.);
#225=FACE_BOUND('',#204,.T.);
#226=FACE_BOUND('',#205,.T.);
#227=FACE_BOUND('',#206,.T.);
#228=FACE_BOUND('',#207,.T.);
#229=FACE_BOUND('',#208,.T.);
#230=CYLINDRICAL_SURFACE('',#270,1.4);
#231=CYLINDRICAL_SURFACE('',#273,1.4);
#232=CYLINDRICAL_SURFACE('',#276,1.4);
#233=CYLINDRICAL_SURFACE('',#279,1.4);
#234=CYLINDRICAL_SURFACE('',#282,1.4);
#235=CYLINDRICAL_SURFACE('',#288,1.45);
#236=CYLINDRICAL_SURFACE('',#304,0.56);
#237=CYLINDRICAL_SURFACE('',#305,0.56);
#238=CYLINDRICAL_SURFACE('',#306,0.56);
#239=CYLINDRICAL_SURFACE('',#307,0.56);
#240=CYLINDRICAL_SURFACE('',#308,0.56);
#241=ADVANCED_FACE('',(#209),#230,.F.);
#242=ADVANCED_FACE('',(#210),#231,.F.);
#243=ADVANCED_FACE('',(#211),#232,.F.);
#244=ADVANCED_FACE('',(#212),#233,.F.);
#245=ADVANCED_FACE('',(#213),#234,.F.);
#246=ADVANCED_FACE('',(#214,#215),#24,.T.);
#247=ADVANCED_FACE('',(#216,#217),#235,.T.);
#248=ADVANCED_FACE('',(#218,#219),#25,.T.);
#249=ADVANCED_FACE('',(#220,#221),#21,.T.);
#250=ADVANCED_FACE('',(#222),#22,.T.);
#251=ADVANCED_FACE('',(#223),#236,.T.);
#252=ADVANCED_FACE('',(#224),#237,.T.);
#253=ADVANCED_FACE('',(#225),#238,.T.);
#254=ADVANCED_FACE('',(#226),#239,.T.);
#255=ADVANCED_FACE('',(#227),#240,.T.);
#256=ADVANCED_FACE('',(#228,#229),#20,.F.);
#257=CLOSED_SHELL('',(#241,#242,#243,#244,#245,#246,#247,#248,#249,#250,
#251,#252,#253,#254,#255,#256));
#258=STYLED_ITEM('',(#259),#266);
#259=PRESENTATION_STYLE_ASSIGNMENT((#260));
#260=SURFACE_STYLE_USAGE(.BOTH.,#261);
#261=SURFACE_SIDE_STYLE('',(#262));
#262=SURFACE_STYLE_FILL_AREA(#263);
#263=FILL_AREA_STYLE('',(#264));
#264=FILL_AREA_STYLE_COLOUR('',#265);
#265=COLOUR_RGB('',0.506983280181885,0.531564235687256,0.550000011920929);
#266=MANIFOLD_SOLID_BREP('',#257);
#267=SHAPE_DEFINITION_REPRESENTATION(#500,#268);
#268=SHAPE_REPRESENTATION('yc',(#269),#495);
#269=AXIS2_PLACEMENT_3D('',#394,#310,#311);
#270=AXIS2_PLACEMENT_3D('',#395,#312,#313);
#271=AXIS2_PLACEMENT_3D('',#402,#314,#315);
#272=AXIS2_PLACEMENT_3D('',#409,#316,#317);
#273=AXIS2_PLACEMENT_3D('',#410,#318,#319);
#274=AXIS2_PLACEMENT_3D('',#417,#320,#321);
#275=AXIS2_PLACEMENT_3D('',#424,#322,#323);
#276=AXIS2_PLACEMENT_3D('',#425,#324,#325);
#277=AXIS2_PLACEMENT_3D('',#432,#326,#327);
#278=AXIS2_PLACEMENT_3D('',#439,#328,#329);
#279=AXIS2_PLACEMENT_3D('',#440,#330,#331);
#280=AXIS2_PLACEMENT_3D('',#447,#332,#333);
#281=AXIS2_PLACEMENT_3D('',#451,#335,#336);
#282=AXIS2_PLACEMENT_3D('',#452,#337,#338);
#283=AXIS2_PLACEMENT_3D('',#453,#339,#340);
#284=AXIS2_PLACEMENT_3D('',#461,#341,#342);
#285=AXIS2_PLACEMENT_3D('',#464,#344,#345);
#286=AXIS2_PLACEMENT_3D('',#465,#346,#347);
#287=AXIS2_PLACEMENT_3D('',#467,#348,#349);
#288=AXIS2_PLACEMENT_3D('',#469,#350,#351);
#289=AXIS2_PLACEMENT_3D('',#470,#352,#353);
#290=AXIS2_PLACEMENT_3D('',#472,#354,#355);
#291=AXIS2_PLACEMENT_3D('',#474,#356,#357);
#292=AXIS2_PLACEMENT_3D('',#476,#358,#359);
#293=AXIS2_PLACEMENT_3D('',#477,#360,#361);
#294=AXIS2_PLACEMENT_3D('',#478,#362,#363);
#295=AXIS2_PLACEMENT_3D('',#479,#364,#365);
#296=AXIS2_PLACEMENT_3D('',#480,#366,#367);
#297=AXIS2_PLACEMENT_3D('',#481,#368,#369);
#298=AXIS2_PLACEMENT_3D('',#482,#370,#371);
#299=AXIS2_PLACEMENT_3D('',#483,#372,#373);
#300=AXIS2_PLACEMENT_3D('',#484,#374,#375);
#301=AXIS2_PLACEMENT_3D('',#485,#376,#377);
#302=AXIS2_PLACEMENT_3D('',#486,#378,#379);
#303=AXIS2_PLACEMENT_3D('',#487,#380,#381);
#304=AXIS2_PLACEMENT_3D('',#488,#382,#383);
#305=AXIS2_PLACEMENT_3D('',#489,#384,#385);
#306=AXIS2_PLACEMENT_3D('',#490,#386,#387);
#307=AXIS2_PLACEMENT_3D('',#491,#388,#389);
#308=AXIS2_PLACEMENT_3D('',#492,#390,#391);
#309=AXIS2_PLACEMENT_3D('',#493,#392,#393);
#310=DIRECTION('',(0.,0.,1.));
#311=DIRECTION('',(1.,0.,0.));
#312=DIRECTION('',(-1.,0.,0.));
#313=DIRECTION('',(0.,0.,1.));
#314=DIRECTION('',(-1.,0.,0.));
#315=DIRECTION('',(0.,0.,1.));
#316=DIRECTION('',(-1.,0.,0.));
#317=DIRECTION('',(0.,0.,1.));
#318=DIRECTION('',(-1.,0.,0.));
#319=DIRECTION('',(0.,0.,1.));
#320=DIRECTION('',(-1.,0.,0.));
#321=DIRECTION('',(0.,0.,1.));
#322=DIRECTION('',(-1.,0.,0.));
#323=DIRECTION('',(0.,0.,1.));
#324=DIRECTION('',(-1.,0.,0.));
#325=DIRECTION('',(0.,0.,1.));
#326=DIRECTION('',(-1.,0.,0.));
#327=DIRECTION('',(0.,0.,1.));
#328=DIRECTION('',(-1.,0.,0.));
#329=DIRECTION('',(0.,0.,1.));
#330=DIRECTION('',(-1.,0.,0.));
#331=DIRECTION('',(0.,0.,1.));
#332=DIRECTION('',(-1.,0.,0.));
#333=DIRECTION('',(0.,0.,1.));
#334=DIRECTION('',(-1.,0.,0.));
#335=DIRECTION('',(-1.,0.,0.));
#336=DIRECTION('',(0.,0.,1.));
#337=DIRECTION('',(-1.,0.,0.));
#338=DIRECTION('',(0.,0.,1.));
#339=DIRECTION('',(-1.,0.,0.));
#340=DIRECTION('',(0.,0.,1.));
#341=DIRECTION('',(-1.,0.,0.));
#342=DIRECTION('',(0.,0.,1.));
#343=DIRECTION('',(-1.,0.,0.));
#344=DIRECTION('',(-1.,0.,0.));
#345=DIRECTION('',(0.,0.,1.));
#346=DIRECTION('',(-1.,0.,0.));
#347=DIRECTION('',(0.,0.,1.));
#348=DIRECTION('',(-1.,0.,0.));
#349=DIRECTION('',(0.,0.,1.));
#350=DIRECTION('',(-1.,0.,0.));
#351=DIRECTION('',(0.,0.,1.));
#352=DIRECTION('',(-1.,0.,0.));
#353=DIRECTION('',(0.,0.,1.));
#354=DIRECTION('',(-1.,0.,0.));
#355=DIRECTION('',(0.,0.,1.));
#356=DIRECTION('',(-1.,0.,0.));
#357=DIRECTION('',(0.,0.,1.));
#358=DIRECTION('',(-1.,0.,0.));
#359=DIRECTION('',(0.,0.,1.));
#360=DIRECTION('',(-1.,6.12303176911189E-17,0.));
#361=DIRECTION('',(6.12303176911189E-17,1.,0.));
#362=DIRECTION('',(-1.,6.12303176911189E-17,-4.00593428432545E-32));
#363=DIRECTION('',(1.89194474517685E-17,0.308988229445569,0.951065862106349));
#364=DIRECTION('',(-1.,6.12303176911195E-17,-2.2186712959341E-31));
#365=DIRECTION('',(-4.95341922260013E-17,-0.808981466924273,0.5878341485258));
#366=DIRECTION('',(-1.,6.1230317691119E-17,4.31408307542741E-32));
#367=DIRECTION('',(-4.95341923253697E-17,-0.808981468547145,-0.587834146292391));
#368=DIRECTION('',(-1.,6.12303176911189E-17,1.84889274661175E-32));
#369=DIRECTION('',(1.89194472909978E-17,0.308988226819897,-0.951065862959394));
#370=DIRECTION('',(-1.,6.12303176911189E-17,0.));
#371=DIRECTION('',(-6.12303176911189E-17,-1.,0.));
#372=DIRECTION('',(-1.,6.12303176911189E-17,-4.00593428432545E-32));
#373=DIRECTION('',(1.89194474517685E-17,0.308988229445569,0.951065862106349));
#374=DIRECTION('',(-1.,6.12303176911189E-17,0.));
#375=DIRECTION('',(6.12303176911189E-17,1.,0.));
#376=DIRECTION('',(-1.,6.12303176911189E-17,1.84889274661175E-32));
#377=DIRECTION('',(1.89194472909978E-17,0.308988226819897,-0.951065862959394));
#378=DIRECTION('',(-1.,6.1230317691119E-17,4.31408307542741E-32));
#379=DIRECTION('',(-4.95341923253697E-17,-0.808981468547145,-0.587834146292391));
#380=DIRECTION('',(-1.,6.12303176911195E-17,-2.2186712959341E-31));
#381=DIRECTION('',(-4.95341922260013E-17,-0.808981466924273,0.5878341485258));
#382=DIRECTION('',(-1.,0.,0.));
#383=DIRECTION('',(0.,0.,1.));
#384=DIRECTION('',(-1.,4.23108704001211E-17,5.82340649341818E-17));
#385=DIRECTION('',(5.82340649341818E-17,0.,1.));
#386=DIRECTION('',(-1.,1.10764510016489E-16,3.59932715271708E-17));
#387=DIRECTION('',(-1.10764510016489E-16,-1.,0.));
#388=DIRECTION('',(-1.,1.1076450991712E-16,-3.59932716639233E-17));
#389=DIRECTION('',(-1.1076450991712E-16,-1.,0.));
#390=DIRECTION('',(-1.,4.23108702393504E-17,-5.82340648819496E-17));
#391=DIRECTION('',(-5.82340648819496E-17,0.,1.));
#392=DIRECTION('',(-1.,0.,0.));
#393=DIRECTION('',(0.,0.,1.));
#394=CARTESIAN_POINT('',(0.,0.,0.));
#395=CARTESIAN_POINT('',(0.65,0.,0.));
#396=CARTESIAN_POINT('',(0.65,-1.39450837664473,-0.123880537081832));
#397=CARTESIAN_POINT('',(0.433333333333333,-1.39450837664473,-0.123880537081832));
#398=CARTESIAN_POINT('',(0.216666666666667,-1.39450837664473,-0.123880537081832));
#399=CARTESIAN_POINT('',(-1.0842021724855E-16,-1.39450837664473,-0.123880537081832));
#400=CARTESIAN_POINT('',(0.65,-1.39452272847839,-0.12387523116898));
#401=CARTESIAN_POINT('',(-1.55869105629056E-17,-1.39449158893114,-0.123874713773304));
#402=CARTESIAN_POINT('',(0.65,0.,0.));
#403=CARTESIAN_POINT('',(0.65,-1.20108750464725,-0.719491987973189));
#404=CARTESIAN_POINT('',(0.65,-1.20098883730074,-0.719462169039492));
#405=CARTESIAN_POINT('',(0.433333333333333,-1.20098883730074,-0.719462169039492));
#406=CARTESIAN_POINT('',(0.216666666666667,-1.20098883730074,-0.719462169039492));
#407=CARTESIAN_POINT('',(-1.0842021724855E-16,-1.20098883730074,-0.719462169039492));
#408=CARTESIAN_POINT('',(5.42101086242752E-17,-1.20107927855378,-0.719484496595119));
#409=CARTESIAN_POINT('',(1.0842021724855E-16,0.,0.));
#410=CARTESIAN_POINT('',(0.65,0.,0.));
#411=CARTESIAN_POINT('',(0.65,-0.313284189175924,-1.36449734950728));
#412=CARTESIAN_POINT('',(0.433333333333333,-0.313284189175924,-1.36449734950728));
#413=CARTESIAN_POINT('',(0.216666666666667,-0.313284189175924,-1.36449734950728));
#414=CARTESIAN_POINT('',(0.,-0.313284189175924,-1.36449734950728));
#415=CARTESIAN_POINT('',(0.65,-0.31329296688973,-1.36455491984392));
#416=CARTESIAN_POINT('',(5.42101086242752E-17,-0.313284518955373,-1.3645362755058));
#417=CARTESIAN_POINT('',(0.65,0.,0.));
#418=CARTESIAN_POINT('',(0.65,0.313137388175223,-1.36453806751094));
#419=CARTESIAN_POINT('',(0.65,0.313223441295699,-1.36451129560106));
#420=CARTESIAN_POINT('',(0.433333333333333,0.313223441295699,-1.36451129560106));
#421=CARTESIAN_POINT('',(0.216666666666667,0.313223441295699,-1.36451129560106));
#422=CARTESIAN_POINT('',(0.,0.313223441295699,-1.36451129560106));
#423=CARTESIAN_POINT('',(5.42101086242752E-17,0.313143288613929,-1.36455105793802));
#424=CARTESIAN_POINT('',(1.0842021724855E-16,0.,0.));
#425=CARTESIAN_POINT('',(0.65,0.,0.));
#426=CARTESIAN_POINT('',(0.65,1.20102505733762,-0.719401703950692));
#427=CARTESIAN_POINT('',(0.433333333333334,1.20102505733762,-0.719401703950692));
#428=CARTESIAN_POINT('',(0.216666666666667,1.20102505733762,-0.719401703950692));
#429=CARTESIAN_POINT('',(2.16840434497101E-16,1.20102505733762,-0.719401703950692));
#430=CARTESIAN_POINT('',(0.65,1.20102283639026,-0.719411180412983));
#431=CARTESIAN_POINT('',(5.40879274688689E-18,1.20103343230888,-0.719420603706798));
#432=CARTESIAN_POINT('',(0.65,0.,0.));
#433=CARTESIAN_POINT('',(0.65,1.39456559405029,-0.12382160596938));
#434=CARTESIAN_POINT('',(0.65,1.39451213078269,-0.123838269932723));
#435=CARTESIAN_POINT('',(0.433333333333333,1.39451213078269,-0.123838269932723));
#436=CARTESIAN_POINT('',(0.216666666666667,1.39451213078269,-0.123838269932723));
#437=CARTESIAN_POINT('',(0.,1.39451213078269,-0.123838269932723));
#438=CARTESIAN_POINT('',(0.,1.39458009843252,-0.123822890292769));
#439=CARTESIAN_POINT('',(0.,0.,0.));
#440=CARTESIAN_POINT('',(0.65,0.,0.));
#441=CARTESIAN_POINT('',(0.65,1.05544331624967,0.919804004222582));
#442=CARTESIAN_POINT('',(0.433333333333333,1.05544331624967,0.919804004222582));
#443=CARTESIAN_POINT('',(0.216666666666667,1.05544331624967,0.919804004222582));
#444=CARTESIAN_POINT('',(1.0842021724855E-16,1.05544331624967,0.919804004222582));
#445=CARTESIAN_POINT('',(0.65,1.0554950853572,0.919842821129417));
#446=CARTESIAN_POINT('',(6.46270215413068E-17,1.05547421568712,0.919830932647685));
#447=CARTESIAN_POINT('',(0.65,0.,0.));
#448=CARTESIAN_POINT('',(0.65,0.548685702383432,1.288));
#449=CARTESIAN_POINT('',(0.65,0.548685702383432,1.288));
#450=CARTESIAN_POINT('',(-5.34407649874645E-33,0.548685702383432,1.288));
#451=CARTESIAN_POINT('',(0.,0.,0.));
#452=CARTESIAN_POINT('',(0.65,0.,0.));
#453=CARTESIAN_POINT('',(0.65,0.,0.));
#454=CARTESIAN_POINT('',(0.65,-1.05540465134568,0.919852387104285));
#455=CARTESIAN_POINT('',(0.65,-0.548685702383433,1.288));
#456=CARTESIAN_POINT('',(0.65,-1.05542749913155,0.919822153504102));
#457=CARTESIAN_POINT('',(0.433333333333333,-1.05542749913155,0.919822153504102));
#458=CARTESIAN_POINT('',(0.216666666666667,-1.05542749913155,0.919822153504102));
#459=CARTESIAN_POINT('',(-2.16840434497101E-16,-1.05542749913155,0.919822153504102));
#460=CARTESIAN_POINT('',(5.42101086242752E-17,-1.0554146484667,0.919858056527045));
#461=CARTESIAN_POINT('',(1.0842021724855E-16,0.,0.));
#462=CARTESIAN_POINT('',(5.85469173142171E-17,-0.548685702383433,1.288));
#463=CARTESIAN_POINT('',(0.65,-0.548685702383433,1.288));
#464=CARTESIAN_POINT('',(0.,0.,0.));
#465=CARTESIAN_POINT('',(1.34852813742386,0.,0.));
#466=CARTESIAN_POINT('',(1.34852813742386,0.,1.80147186257614));
#467=CARTESIAN_POINT('',(0.,0.,0.));
#468=CARTESIAN_POINT('',(0.,0.,3.15));
#469=CARTESIAN_POINT('',(0.,0.,0.));
#470=CARTESIAN_POINT('',(2.19705627484772,0.,0.));
#471=CARTESIAN_POINT('',(2.19705627484772,0.,1.45));
#472=CARTESIAN_POINT('',(10.4,0.,0.));
#473=CARTESIAN_POINT('',(10.4,0.,1.45));
#474=CARTESIAN_POINT('',(10.4,0.,0.));
#475=CARTESIAN_POINT('',(13.,0.,0.));
#476=CARTESIAN_POINT('',(0.,0.,0.));
#477=CARTESIAN_POINT('',(-1.16175576059705E-32,-1.89735380184963E-16,1.4));
#478=CARTESIAN_POINT('',(-8.15253147030843E-17,-1.33145340049263,0.432565665750811));
#479=CARTESIAN_POINT('',(-5.03935197632507E-17,-0.823015814117859,-1.132643893679));
#480=CARTESIAN_POINT('',(5.0387640704292E-17,0.8229197986278,-1.13250421598085));
#481=CARTESIAN_POINT('',(8.15300670395024E-17,1.33153101459945,0.432601373020732));
#482=CARTESIAN_POINT('',(0.65,0.,0.));
#483=CARTESIAN_POINT('',(0.65,-1.33145340049263,0.432565665750811));
#484=CARTESIAN_POINT('',(0.65,-1.89735380184963E-16,1.4));
#485=CARTESIAN_POINT('',(0.65,1.33153101459945,0.432601373020732));
#486=CARTESIAN_POINT('',(0.65,0.8229197986278,-1.13250421598085));
#487=CARTESIAN_POINT('',(0.65,-0.823015814117859,-1.132643893679));
#488=CARTESIAN_POINT('',(0.65,-1.89735380184963E-16,1.4));
#489=CARTESIAN_POINT('',(0.65,1.33153101459945,0.432601373020732));
#490=CARTESIAN_POINT('',(0.65,0.8229197986278,-1.13250421598085));
#491=CARTESIAN_POINT('',(0.65,-0.823015814117859,-1.132643893679));
#492=CARTESIAN_POINT('',(0.65,-1.33145340049263,0.432565665750811));
#493=CARTESIAN_POINT('',(2.19705627484772,0.,0.));
#494=MECHANICAL_DESIGN_GEOMETRIC_PRESENTATION_REPRESENTATION('',(#258),
#495);
#495=(
GEOMETRIC_REPRESENTATION_CONTEXT(3)
GLOBAL_UNCERTAINTY_ASSIGNED_CONTEXT((#496))
GLOBAL_UNIT_ASSIGNED_CONTEXT((#499,#498,#497))
REPRESENTATION_CONTEXT('yc','TOP_LEVEL_ASSEMBLY_PART')
);
#496=UNCERTAINTY_MEASURE_WITH_UNIT(LENGTH_MEASURE(0.005),#499,
'DISTANCE_ACCURACY_VALUE','Maximum Tolerance applied to model');
#497=(
NAMED_UNIT(*)
SI_UNIT($,.STERADIAN.)
SOLID_ANGLE_UNIT()
);
#498=(
NAMED_UNIT(*)
PLANE_ANGLE_UNIT()
SI_UNIT($,.RADIAN.)
);
#499=(
LENGTH_UNIT()
NAMED_UNIT(*)
SI_UNIT(.MILLI.,.METRE.)
);
#500=PRODUCT_DEFINITION_SHAPE('','',#501);
#501=PRODUCT_DEFINITION('','',#503,#502);
#502=PRODUCT_DEFINITION_CONTEXT('',#509,'design');
#503=PRODUCT_DEFINITION_FORMATION_WITH_SPECIFIED_SOURCE('','',#505,
 .NOT_KNOWN.);
#504=PRODUCT_RELATED_PRODUCT_CATEGORY('','',(#505));
#505=PRODUCT('yc','yc','yc',(#507));
#506=PRODUCT_CATEGORY('','');
#507=PRODUCT_CONTEXT('',#509,'mechanical');
#508=APPLICATION_PROTOCOL_DEFINITION('international standard',
'automotive_design',2010,#509);
#509=APPLICATION_CONTEXT(
'core data for automotive mechanical design processes');
ENDSEC;
END-ISO-10303-21;
