ISO-10303-21;
HEADER;
/* Generated by software containing HOOPS Exchange Step
 * from HOOPS Exchange, Inc. (www.tiangong.cloud) 
 */

FILE_DESCRIPTION(
/* description */ ('Unknown'),
/* implementation_level */ '2;1');

FILE_NAME(
/* name */ '\X2\5185516D89D282B15F626C89593487BA9489\X0\',
/* time_stamp */ '2025-11-24T10:15:12+08:00',
/* author */ ('Unknown'),
/* organization */ ('Unknown'),
/* preprocessor_version */ 'ST-DEVELOPER v19.4',
/* originating_system */ 'TianGong',
/* authorisation */ 'Unknown');

FILE_SCHEMA (('AUTOMOTIVE_DESIGN {1 0 10303 214 3 1 1}'));
ENDSEC;

DATA;
#10=PROPERTY_DEFINITION_REPRESENTATION(#14,#12);
#11=PROPERTY_DEFINITION_REPRESENTATION(#15,#13);
#12=REPRESENTATION('',(#16),#727);
#13=REPRESENTATION('',(#17),#727);
#14=PROPERTY_DEFINITION('pmi validation property','',#732);
#15=PROPERTY_DEFINITION('pmi validation property','',#732);
#16=VALUE_REPRESENTATION_ITEM('number of annotations',COUNT_MEASURE(0.));
#17=VALUE_REPRESENTATION_ITEM('number of views',COUNT_MEASURE(0.));
#18=SHAPE_REPRESENTATION_RELATIONSHIP('','',#467,#19);
#19=ADVANCED_BREP_SHAPE_REPRESENTATION('',(#465),#727);
#20=LINE('',#678,#32);
#21=LINE('',#682,#33);
#22=LINE('',#686,#34);
#23=LINE('',#690,#35);
#24=LINE('',#694,#36);
#25=LINE('',#698,#37);
#26=LINE('',#702,#38);
#27=LINE('',#706,#39);
#28=LINE('',#710,#40);
#29=LINE('',#714,#41);
#30=LINE('',#718,#42);
#31=LINE('',#722,#43);
#32=VECTOR('',#573,1000.);
#33=VECTOR('',#576,1000.);
#34=VECTOR('',#581,1000.);
#35=VECTOR('',#586,1000.);
#36=VECTOR('',#591,1000.);
#37=VECTOR('',#596,1000.);
#38=VECTOR('',#601,1000.);
#39=VECTOR('',#606,1000.);
#40=VECTOR('',#611,1000.);
#41=VECTOR('',#616,1000.);
#42=VECTOR('',#621,1000.);
#43=VECTOR('',#626,1000.);
#44=TOROIDAL_SURFACE('',#493,1.5,0.5);
#45=CONICAL_SURFACE('',#491,1.9,0.785398163397448);
#46=CYLINDRICAL_SURFACE('',#483,1.);
#47=CYLINDRICAL_SURFACE('',#486,1.);
#48=CYLINDRICAL_SURFACE('',#489,1.9);
#49=CYLINDRICAL_SURFACE('',#494,0.125);
#50=CYLINDRICAL_SURFACE('',#496,0.420017320762117);
#51=CYLINDRICAL_SURFACE('',#498,0.125);
#52=CYLINDRICAL_SURFACE('',#500,0.420017320762117);
#53=CYLINDRICAL_SURFACE('',#502,0.125);
#54=CYLINDRICAL_SURFACE('',#504,0.420017320762117);
#55=CYLINDRICAL_SURFACE('',#506,0.125);
#56=CYLINDRICAL_SURFACE('',#508,0.420017320762117);
#57=CYLINDRICAL_SURFACE('',#510,0.125);
#58=CYLINDRICAL_SURFACE('',#512,0.420017320762117);
#59=CYLINDRICAL_SURFACE('',#514,0.125);
#60=CYLINDRICAL_SURFACE('',#516,0.420017320762117);
#61=ORIENTED_EDGE('',*,*,#145,.T.);
#62=ORIENTED_EDGE('',*,*,#146,.T.);
#63=ORIENTED_EDGE('',*,*,#147,.T.);
#64=ORIENTED_EDGE('',*,*,#148,.T.);
#65=ORIENTED_EDGE('',*,*,#149,.T.);
#66=ORIENTED_EDGE('',*,*,#150,.T.);
#67=ORIENTED_EDGE('',*,*,#151,.T.);
#68=ORIENTED_EDGE('',*,*,#152,.T.);
#69=ORIENTED_EDGE('',*,*,#153,.T.);
#70=ORIENTED_EDGE('',*,*,#154,.T.);
#71=ORIENTED_EDGE('',*,*,#155,.T.);
#72=ORIENTED_EDGE('',*,*,#156,.T.);
#73=ORIENTED_EDGE('',*,*,#157,.T.);
#74=ORIENTED_EDGE('',*,*,#158,.T.);
#75=ORIENTED_EDGE('',*,*,#159,.T.);
#76=ORIENTED_EDGE('',*,*,#159,.F.);
#77=ORIENTED_EDGE('',*,*,#160,.T.);
#78=ORIENTED_EDGE('',*,*,#158,.F.);
#79=ORIENTED_EDGE('',*,*,#161,.T.);
#80=ORIENTED_EDGE('',*,*,#145,.F.);
#81=ORIENTED_EDGE('',*,*,#162,.T.);
#82=ORIENTED_EDGE('',*,*,#161,.F.);
#83=ORIENTED_EDGE('',*,*,#160,.F.);
#84=ORIENTED_EDGE('',*,*,#162,.F.);
#85=ORIENTED_EDGE('',*,*,#147,.F.);
#86=ORIENTED_EDGE('',*,*,#163,.F.);
#87=ORIENTED_EDGE('',*,*,#164,.T.);
#88=ORIENTED_EDGE('',*,*,#165,.T.);
#89=ORIENTED_EDGE('',*,*,#148,.F.);
#90=ORIENTED_EDGE('',*,*,#165,.F.);
#91=ORIENTED_EDGE('',*,*,#166,.T.);
#92=ORIENTED_EDGE('',*,*,#167,.T.);
#93=ORIENTED_EDGE('',*,*,#149,.F.);
#94=ORIENTED_EDGE('',*,*,#167,.F.);
#95=ORIENTED_EDGE('',*,*,#168,.T.);
#96=ORIENTED_EDGE('',*,*,#169,.T.);
#97=ORIENTED_EDGE('',*,*,#150,.F.);
#98=ORIENTED_EDGE('',*,*,#169,.F.);
#99=ORIENTED_EDGE('',*,*,#170,.T.);
#100=ORIENTED_EDGE('',*,*,#171,.T.);
#101=ORIENTED_EDGE('',*,*,#151,.F.);
#102=ORIENTED_EDGE('',*,*,#171,.F.);
#103=ORIENTED_EDGE('',*,*,#172,.T.);
#104=ORIENTED_EDGE('',*,*,#173,.T.);
#105=ORIENTED_EDGE('',*,*,#152,.F.);
#106=ORIENTED_EDGE('',*,*,#173,.F.);
#107=ORIENTED_EDGE('',*,*,#174,.T.);
#108=ORIENTED_EDGE('',*,*,#175,.T.);
#109=ORIENTED_EDGE('',*,*,#153,.F.);
#110=ORIENTED_EDGE('',*,*,#175,.F.);
#111=ORIENTED_EDGE('',*,*,#176,.T.);
#112=ORIENTED_EDGE('',*,*,#177,.T.);
#113=ORIENTED_EDGE('',*,*,#154,.F.);
#114=ORIENTED_EDGE('',*,*,#177,.F.);
#115=ORIENTED_EDGE('',*,*,#178,.T.);
#116=ORIENTED_EDGE('',*,*,#179,.T.);
#117=ORIENTED_EDGE('',*,*,#155,.F.);
#118=ORIENTED_EDGE('',*,*,#179,.F.);
#119=ORIENTED_EDGE('',*,*,#180,.T.);
#120=ORIENTED_EDGE('',*,*,#181,.T.);
#121=ORIENTED_EDGE('',*,*,#156,.F.);
#122=ORIENTED_EDGE('',*,*,#181,.F.);
#123=ORIENTED_EDGE('',*,*,#182,.T.);
#124=ORIENTED_EDGE('',*,*,#183,.T.);
#125=ORIENTED_EDGE('',*,*,#157,.F.);
#126=ORIENTED_EDGE('',*,*,#183,.F.);
#127=ORIENTED_EDGE('',*,*,#184,.T.);
#128=ORIENTED_EDGE('',*,*,#185,.T.);
#129=ORIENTED_EDGE('',*,*,#146,.F.);
#130=ORIENTED_EDGE('',*,*,#185,.F.);
#131=ORIENTED_EDGE('',*,*,#186,.T.);
#132=ORIENTED_EDGE('',*,*,#163,.T.);
#133=ORIENTED_EDGE('',*,*,#164,.F.);
#134=ORIENTED_EDGE('',*,*,#186,.F.);
#135=ORIENTED_EDGE('',*,*,#184,.F.);
#136=ORIENTED_EDGE('',*,*,#182,.F.);
#137=ORIENTED_EDGE('',*,*,#180,.F.);
#138=ORIENTED_EDGE('',*,*,#178,.F.);
#139=ORIENTED_EDGE('',*,*,#176,.F.);
#140=ORIENTED_EDGE('',*,*,#174,.F.);
#141=ORIENTED_EDGE('',*,*,#172,.F.);
#142=ORIENTED_EDGE('',*,*,#170,.F.);
#143=ORIENTED_EDGE('',*,*,#168,.F.);
#144=ORIENTED_EDGE('',*,*,#166,.F.);
#145=EDGE_CURVE('',#187,#187,#217,.T.);
#146=EDGE_CURVE('',#188,#189,#218,.T.);
#147=EDGE_CURVE('',#189,#190,#219,.T.);
#148=EDGE_CURVE('',#190,#191,#220,.T.);
#149=EDGE_CURVE('',#191,#192,#221,.T.);
#150=EDGE_CURVE('',#192,#193,#222,.T.);
#151=EDGE_CURVE('',#193,#194,#223,.T.);
#152=EDGE_CURVE('',#194,#195,#224,.T.);
#153=EDGE_CURVE('',#195,#196,#225,.T.);
#154=EDGE_CURVE('',#196,#197,#226,.T.);
#155=EDGE_CURVE('',#197,#198,#227,.T.);
#156=EDGE_CURVE('',#198,#199,#228,.T.);
#157=EDGE_CURVE('',#199,#188,#229,.T.);
#158=EDGE_CURVE('',#200,#200,#230,.T.);
#159=EDGE_CURVE('',#201,#201,#231,.T.);
#160=EDGE_CURVE('',#202,#202,#232,.F.);
#161=EDGE_CURVE('',#203,#203,#233,.T.);
#162=EDGE_CURVE('',#204,#204,#234,.T.);
#163=EDGE_CURVE('',#205,#189,#20,.T.);
#164=EDGE_CURVE('',#205,#206,#235,.T.);
#165=EDGE_CURVE('',#206,#190,#21,.T.);
#166=EDGE_CURVE('',#206,#207,#236,.T.);
#167=EDGE_CURVE('',#207,#191,#22,.T.);
#168=EDGE_CURVE('',#207,#208,#237,.T.);
#169=EDGE_CURVE('',#208,#192,#23,.T.);
#170=EDGE_CURVE('',#208,#209,#238,.T.);
#171=EDGE_CURVE('',#209,#193,#24,.T.);
#172=EDGE_CURVE('',#209,#210,#239,.T.);
#173=EDGE_CURVE('',#210,#194,#25,.T.);
#174=EDGE_CURVE('',#210,#211,#240,.T.);
#175=EDGE_CURVE('',#211,#195,#26,.T.);
#176=EDGE_CURVE('',#211,#212,#241,.T.);
#177=EDGE_CURVE('',#212,#196,#27,.T.);
#178=EDGE_CURVE('',#212,#213,#242,.T.);
#179=EDGE_CURVE('',#213,#197,#28,.T.);
#180=EDGE_CURVE('',#213,#214,#243,.T.);
#181=EDGE_CURVE('',#214,#198,#29,.T.);
#182=EDGE_CURVE('',#214,#215,#244,.T.);
#183=EDGE_CURVE('',#215,#199,#30,.T.);
#184=EDGE_CURVE('',#215,#216,#245,.T.);
#185=EDGE_CURVE('',#216,#188,#31,.T.);
#186=EDGE_CURVE('',#216,#205,#246,.T.);
#187=VERTEX_POINT('',#636);
#188=VERTEX_POINT('',#638);
#189=VERTEX_POINT('',#639);
#190=VERTEX_POINT('',#641);
#191=VERTEX_POINT('',#643);
#192=VERTEX_POINT('',#645);
#193=VERTEX_POINT('',#647);
#194=VERTEX_POINT('',#649);
#195=VERTEX_POINT('',#651);
#196=VERTEX_POINT('',#653);
#197=VERTEX_POINT('',#655);
#198=VERTEX_POINT('',#657);
#199=VERTEX_POINT('',#659);
#200=VERTEX_POINT('',#663);
#201=VERTEX_POINT('',#665);
#202=VERTEX_POINT('',#668);
#203=VERTEX_POINT('',#672);
#204=VERTEX_POINT('',#675);
#205=VERTEX_POINT('',#679);
#206=VERTEX_POINT('',#681);
#207=VERTEX_POINT('',#685);
#208=VERTEX_POINT('',#689);
#209=VERTEX_POINT('',#693);
#210=VERTEX_POINT('',#697);
#211=VERTEX_POINT('',#701);
#212=VERTEX_POINT('',#705);
#213=VERTEX_POINT('',#709);
#214=VERTEX_POINT('',#713);
#215=VERTEX_POINT('',#717);
#216=VERTEX_POINT('',#721);
#217=CIRCLE('',#470,1.9);
#218=CIRCLE('',#471,0.420017320762117);
#219=CIRCLE('',#472,0.125);
#220=CIRCLE('',#473,0.420017320762117);
#221=CIRCLE('',#474,0.125);
#222=CIRCLE('',#475,0.420017320762117);
#223=CIRCLE('',#476,0.125);
#224=CIRCLE('',#477,0.420017320762117);
#225=CIRCLE('',#478,0.125);
#226=CIRCLE('',#479,0.420017320762117);
#227=CIRCLE('',#480,0.125);
#228=CIRCLE('',#481,0.420017320762117);
#229=CIRCLE('',#482,0.125);
#230=CIRCLE('',#484,1.);
#231=CIRCLE('',#485,1.);
#232=CIRCLE('',#487,1.);
#233=CIRCLE('',#490,1.9);
#234=CIRCLE('',#492,1.14644660940673);
#235=CIRCLE('',#495,0.125);
#236=CIRCLE('',#497,0.420017320762117);
#237=CIRCLE('',#499,0.125);
#238=CIRCLE('',#501,0.420017320762117);
#239=CIRCLE('',#503,0.125);
#240=CIRCLE('',#505,0.420017320762117);
#241=CIRCLE('',#507,0.125);
#242=CIRCLE('',#509,0.420017320762117);
#243=CIRCLE('',#511,0.125);
#244=CIRCLE('',#513,0.420017320762117);
#245=CIRCLE('',#515,0.125);
#246=CIRCLE('',#517,0.420017320762117);
#247=EDGE_LOOP('',(#61));
#248=EDGE_LOOP('',(#62,#63,#64,#65,#66,#67,#68,#69,#70,#71,#72,#73));
#249=EDGE_LOOP('',(#74));
#250=EDGE_LOOP('',(#75));
#251=EDGE_LOOP('',(#76));
#252=EDGE_LOOP('',(#77));
#253=EDGE_LOOP('',(#78));
#254=EDGE_LOOP('',(#79));
#255=EDGE_LOOP('',(#80));
#256=EDGE_LOOP('',(#81));
#257=EDGE_LOOP('',(#82));
#258=EDGE_LOOP('',(#83));
#259=EDGE_LOOP('',(#84));
#260=EDGE_LOOP('',(#85,#86,#87,#88));
#261=EDGE_LOOP('',(#89,#90,#91,#92));
#262=EDGE_LOOP('',(#93,#94,#95,#96));
#263=EDGE_LOOP('',(#97,#98,#99,#100));
#264=EDGE_LOOP('',(#101,#102,#103,#104));
#265=EDGE_LOOP('',(#105,#106,#107,#108));
#266=EDGE_LOOP('',(#109,#110,#111,#112));
#267=EDGE_LOOP('',(#113,#114,#115,#116));
#268=EDGE_LOOP('',(#117,#118,#119,#120));
#269=EDGE_LOOP('',(#121,#122,#123,#124));
#270=EDGE_LOOP('',(#125,#126,#127,#128));
#271=EDGE_LOOP('',(#129,#130,#131,#132));
#272=EDGE_LOOP('',(#133,#134,#135,#136,#137,#138,#139,#140,#141,#142,#143,
#144));
#273=FACE_BOUND('',#247,.T.);
#274=FACE_BOUND('',#248,.T.);
#275=FACE_BOUND('',#249,.T.);
#276=FACE_BOUND('',#250,.T.);
#277=FACE_BOUND('',#251,.T.);
#278=FACE_BOUND('',#252,.T.);
#279=FACE_BOUND('',#253,.T.);
#280=FACE_BOUND('',#254,.T.);
#281=FACE_BOUND('',#255,.T.);
#282=FACE_BOUND('',#256,.T.);
#283=FACE_BOUND('',#257,.T.);
#284=FACE_BOUND('',#258,.T.);
#285=FACE_BOUND('',#259,.T.);
#286=FACE_BOUND('',#260,.T.);
#287=FACE_BOUND('',#261,.T.);
#288=FACE_BOUND('',#262,.T.);
#289=FACE_BOUND('',#263,.T.);
#290=FACE_BOUND('',#264,.T.);
#291=FACE_BOUND('',#265,.T.);
#292=FACE_BOUND('',#266,.T.);
#293=FACE_BOUND('',#267,.T.);
#294=FACE_BOUND('',#268,.T.);
#295=FACE_BOUND('',#269,.T.);
#296=FACE_BOUND('',#270,.T.);
#297=FACE_BOUND('',#271,.T.);
#298=FACE_BOUND('',#272,.T.);
#299=PLANE('',#469);
#300=PLANE('',#488);
#301=PLANE('',#518);
#302=STYLED_ITEM('',(#322),#444);
#303=STYLED_ITEM('',(#323),#445);
#304=STYLED_ITEM('',(#324),#446);
#305=STYLED_ITEM('',(#325),#447);
#306=STYLED_ITEM('',(#326),#448);
#307=STYLED_ITEM('',(#327),#449);
#308=STYLED_ITEM('',(#328),#450);
#309=STYLED_ITEM('',(#329),#451);
#310=STYLED_ITEM('',(#330),#452);
#311=STYLED_ITEM('',(#331),#453);
#312=STYLED_ITEM('',(#332),#454);
#313=STYLED_ITEM('',(#333),#455);
#314=STYLED_ITEM('',(#334),#456);
#315=STYLED_ITEM('',(#335),#457);
#316=STYLED_ITEM('',(#336),#458);
#317=STYLED_ITEM('',(#337),#459);
#318=STYLED_ITEM('',(#338),#460);
#319=STYLED_ITEM('',(#339),#461);
#320=STYLED_ITEM('',(#340),#462);
#321=STYLED_ITEM('',(#341),#463);
#322=PRESENTATION_STYLE_ASSIGNMENT((#342));
#323=PRESENTATION_STYLE_ASSIGNMENT((#343));
#324=PRESENTATION_STYLE_ASSIGNMENT((#344));
#325=PRESENTATION_STYLE_ASSIGNMENT((#345));
#326=PRESENTATION_STYLE_ASSIGNMENT((#346));
#327=PRESENTATION_STYLE_ASSIGNMENT((#347));
#328=PRESENTATION_STYLE_ASSIGNMENT((#348));
#329=PRESENTATION_STYLE_ASSIGNMENT((#349));
#330=PRESENTATION_STYLE_ASSIGNMENT((#350));
#331=PRESENTATION_STYLE_ASSIGNMENT((#351));
#332=PRESENTATION_STYLE_ASSIGNMENT((#352));
#333=PRESENTATION_STYLE_ASSIGNMENT((#353));
#334=PRESENTATION_STYLE_ASSIGNMENT((#354));
#335=PRESENTATION_STYLE_ASSIGNMENT((#355));
#336=PRESENTATION_STYLE_ASSIGNMENT((#356));
#337=PRESENTATION_STYLE_ASSIGNMENT((#357));
#338=PRESENTATION_STYLE_ASSIGNMENT((#358));
#339=PRESENTATION_STYLE_ASSIGNMENT((#359));
#340=PRESENTATION_STYLE_ASSIGNMENT((#360));
#341=PRESENTATION_STYLE_ASSIGNMENT((#361));
#342=SURFACE_STYLE_USAGE(.BOTH.,#362);
#343=SURFACE_STYLE_USAGE(.BOTH.,#363);
#344=SURFACE_STYLE_USAGE(.BOTH.,#364);
#345=SURFACE_STYLE_USAGE(.BOTH.,#365);
#346=SURFACE_STYLE_USAGE(.BOTH.,#366);
#347=SURFACE_STYLE_USAGE(.BOTH.,#367);
#348=SURFACE_STYLE_USAGE(.BOTH.,#368);
#349=SURFACE_STYLE_USAGE(.BOTH.,#369);
#350=SURFACE_STYLE_USAGE(.BOTH.,#370);
#351=SURFACE_STYLE_USAGE(.BOTH.,#371);
#352=SURFACE_STYLE_USAGE(.BOTH.,#372);
#353=SURFACE_STYLE_USAGE(.BOTH.,#373);
#354=SURFACE_STYLE_USAGE(.BOTH.,#374);
#355=SURFACE_STYLE_USAGE(.BOTH.,#375);
#356=SURFACE_STYLE_USAGE(.BOTH.,#376);
#357=SURFACE_STYLE_USAGE(.BOTH.,#377);
#358=SURFACE_STYLE_USAGE(.BOTH.,#378);
#359=SURFACE_STYLE_USAGE(.BOTH.,#379);
#360=SURFACE_STYLE_USAGE(.BOTH.,#380);
#361=SURFACE_STYLE_USAGE(.BOTH.,#381);
#362=SURFACE_SIDE_STYLE('',(#382));
#363=SURFACE_SIDE_STYLE('',(#383));
#364=SURFACE_SIDE_STYLE('',(#384));
#365=SURFACE_SIDE_STYLE('',(#385));
#366=SURFACE_SIDE_STYLE('',(#386));
#367=SURFACE_SIDE_STYLE('',(#387));
#368=SURFACE_SIDE_STYLE('',(#388));
#369=SURFACE_SIDE_STYLE('',(#389));
#370=SURFACE_SIDE_STYLE('',(#390));
#371=SURFACE_SIDE_STYLE('',(#391));
#372=SURFACE_SIDE_STYLE('',(#392));
#373=SURFACE_SIDE_STYLE('',(#393));
#374=SURFACE_SIDE_STYLE('',(#394));
#375=SURFACE_SIDE_STYLE('',(#395));
#376=SURFACE_SIDE_STYLE('',(#396));
#377=SURFACE_SIDE_STYLE('',(#397));
#378=SURFACE_SIDE_STYLE('',(#398));
#379=SURFACE_SIDE_STYLE('',(#399));
#380=SURFACE_SIDE_STYLE('',(#400));
#381=SURFACE_SIDE_STYLE('',(#401));
#382=SURFACE_STYLE_FILL_AREA(#402);
#383=SURFACE_STYLE_FILL_AREA(#403);
#384=SURFACE_STYLE_FILL_AREA(#404);
#385=SURFACE_STYLE_FILL_AREA(#405);
#386=SURFACE_STYLE_FILL_AREA(#406);
#387=SURFACE_STYLE_FILL_AREA(#407);
#388=SURFACE_STYLE_FILL_AREA(#408);
#389=SURFACE_STYLE_FILL_AREA(#409);
#390=SURFACE_STYLE_FILL_AREA(#410);
#391=SURFACE_STYLE_FILL_AREA(#411);
#392=SURFACE_STYLE_FILL_AREA(#412);
#393=SURFACE_STYLE_FILL_AREA(#413);
#394=SURFACE_STYLE_FILL_AREA(#414);
#395=SURFACE_STYLE_FILL_AREA(#415);
#396=SURFACE_STYLE_FILL_AREA(#416);
#397=SURFACE_STYLE_FILL_AREA(#417);
#398=SURFACE_STYLE_FILL_AREA(#418);
#399=SURFACE_STYLE_FILL_AREA(#419);
#400=SURFACE_STYLE_FILL_AREA(#420);
#401=SURFACE_STYLE_FILL_AREA(#421);
#402=FILL_AREA_STYLE('',(#422));
#403=FILL_AREA_STYLE('',(#423));
#404=FILL_AREA_STYLE('',(#424));
#405=FILL_AREA_STYLE('',(#425));
#406=FILL_AREA_STYLE('',(#426));
#407=FILL_AREA_STYLE('',(#427));
#408=FILL_AREA_STYLE('',(#428));
#409=FILL_AREA_STYLE('',(#429));
#410=FILL_AREA_STYLE('',(#430));
#411=FILL_AREA_STYLE('',(#431));
#412=FILL_AREA_STYLE('',(#432));
#413=FILL_AREA_STYLE('',(#433));
#414=FILL_AREA_STYLE('',(#434));
#415=FILL_AREA_STYLE('',(#435));
#416=FILL_AREA_STYLE('',(#436));
#417=FILL_AREA_STYLE('',(#437));
#418=FILL_AREA_STYLE('',(#438));
#419=FILL_AREA_STYLE('',(#439));
#420=FILL_AREA_STYLE('',(#440));
#421=FILL_AREA_STYLE('',(#441));
#422=FILL_AREA_STYLE_COLOUR('',#442);
#423=FILL_AREA_STYLE_COLOUR('',#443);
#424=FILL_AREA_STYLE_COLOUR('',#442);
#425=FILL_AREA_STYLE_COLOUR('',#442);
#426=FILL_AREA_STYLE_COLOUR('',#442);
#427=FILL_AREA_STYLE_COLOUR('',#442);
#428=FILL_AREA_STYLE_COLOUR('',#442);
#429=FILL_AREA_STYLE_COLOUR('',#442);
#430=FILL_AREA_STYLE_COLOUR('',#442);
#431=FILL_AREA_STYLE_COLOUR('',#442);
#432=FILL_AREA_STYLE_COLOUR('',#442);
#433=FILL_AREA_STYLE_COLOUR('',#442);
#434=FILL_AREA_STYLE_COLOUR('',#442);
#435=FILL_AREA_STYLE_COLOUR('',#442);
#436=FILL_AREA_STYLE_COLOUR('',#442);
#437=FILL_AREA_STYLE_COLOUR('',#442);
#438=FILL_AREA_STYLE_COLOUR('',#442);
#439=FILL_AREA_STYLE_COLOUR('',#442);
#440=FILL_AREA_STYLE_COLOUR('',#442);
#441=FILL_AREA_STYLE_COLOUR('',#442);
#442=COLOUR_RGB('',0.506983280181885,0.531564235687256,0.550000011920929);
#443=COLOUR_RGB('',0.1875,0.75,0.581249892711639);
#444=ADVANCED_FACE('',(#273,#274),#299,.T.);
#445=ADVANCED_FACE('',(#275,#276),#46,.T.);
#446=ADVANCED_FACE('',(#277,#278),#47,.T.);
#447=ADVANCED_FACE('',(#279),#300,.T.);
#448=ADVANCED_FACE('',(#280,#281),#48,.T.);
#449=ADVANCED_FACE('',(#282,#283),#45,.T.);
#450=ADVANCED_FACE('',(#284,#285),#44,.F.);
#451=ADVANCED_FACE('',(#286),#49,.F.);
#452=ADVANCED_FACE('',(#287),#50,.T.);
#453=ADVANCED_FACE('',(#288),#51,.F.);
#454=ADVANCED_FACE('',(#289),#52,.T.);
#455=ADVANCED_FACE('',(#290),#53,.F.);
#456=ADVANCED_FACE('',(#291),#54,.T.);
#457=ADVANCED_FACE('',(#292),#55,.F.);
#458=ADVANCED_FACE('',(#293),#56,.T.);
#459=ADVANCED_FACE('',(#294),#57,.F.);
#460=ADVANCED_FACE('',(#295),#58,.T.);
#461=ADVANCED_FACE('',(#296),#59,.F.);
#462=ADVANCED_FACE('',(#297),#60,.T.);
#463=ADVANCED_FACE('',(#298),#301,.F.);
#464=CLOSED_SHELL('',(#444,#445,#446,#447,#448,#449,#450,#451,#452,#453,
#454,#455,#456,#457,#458,#459,#460,#461,#462,#463));
#465=MANIFOLD_SOLID_BREP('',#464);
#466=SHAPE_DEFINITION_REPRESENTATION(#732,#467);
#467=SHAPE_REPRESENTATION('\X2\5185516D89D282B15F626C89593487BA9489\X0\',
(#468),#727);
#468=AXIS2_PLACEMENT_3D('',#633,#519,#520);
#469=AXIS2_PLACEMENT_3D('',#634,#521,#522);
#470=AXIS2_PLACEMENT_3D('',#635,#523,#524);
#471=AXIS2_PLACEMENT_3D('',#637,#525,#526);
#472=AXIS2_PLACEMENT_3D('',#640,#527,#528);
#473=AXIS2_PLACEMENT_3D('',#642,#529,#530);
#474=AXIS2_PLACEMENT_3D('',#644,#531,#532);
#475=AXIS2_PLACEMENT_3D('',#646,#533,#534);
#476=AXIS2_PLACEMENT_3D('',#648,#535,#536);
#477=AXIS2_PLACEMENT_3D('',#650,#537,#538);
#478=AXIS2_PLACEMENT_3D('',#652,#539,#540);
#479=AXIS2_PLACEMENT_3D('',#654,#541,#542);
#480=AXIS2_PLACEMENT_3D('',#656,#543,#544);
#481=AXIS2_PLACEMENT_3D('',#658,#545,#546);
#482=AXIS2_PLACEMENT_3D('',#660,#547,#548);
#483=AXIS2_PLACEMENT_3D('',#661,#549,#550);
#484=AXIS2_PLACEMENT_3D('',#662,#551,#552);
#485=AXIS2_PLACEMENT_3D('',#664,#553,#554);
#486=AXIS2_PLACEMENT_3D('',#666,#555,#556);
#487=AXIS2_PLACEMENT_3D('',#667,#557,#558);
#488=AXIS2_PLACEMENT_3D('',#669,#559,#560);
#489=AXIS2_PLACEMENT_3D('',#670,#561,#562);
#490=AXIS2_PLACEMENT_3D('',#671,#563,#564);
#491=AXIS2_PLACEMENT_3D('',#673,#565,#566);
#492=AXIS2_PLACEMENT_3D('',#674,#567,#568);
#493=AXIS2_PLACEMENT_3D('',#676,#569,#570);
#494=AXIS2_PLACEMENT_3D('',#677,#571,#572);
#495=AXIS2_PLACEMENT_3D('',#680,#574,#575);
#496=AXIS2_PLACEMENT_3D('',#683,#577,#578);
#497=AXIS2_PLACEMENT_3D('',#684,#579,#580);
#498=AXIS2_PLACEMENT_3D('',#687,#582,#583);
#499=AXIS2_PLACEMENT_3D('',#688,#584,#585);
#500=AXIS2_PLACEMENT_3D('',#691,#587,#588);
#501=AXIS2_PLACEMENT_3D('',#692,#589,#590);
#502=AXIS2_PLACEMENT_3D('',#695,#592,#593);
#503=AXIS2_PLACEMENT_3D('',#696,#594,#595);
#504=AXIS2_PLACEMENT_3D('',#699,#597,#598);
#505=AXIS2_PLACEMENT_3D('',#700,#599,#600);
#506=AXIS2_PLACEMENT_3D('',#703,#602,#603);
#507=AXIS2_PLACEMENT_3D('',#704,#604,#605);
#508=AXIS2_PLACEMENT_3D('',#707,#607,#608);
#509=AXIS2_PLACEMENT_3D('',#708,#609,#610);
#510=AXIS2_PLACEMENT_3D('',#711,#612,#613);
#511=AXIS2_PLACEMENT_3D('',#712,#614,#615);
#512=AXIS2_PLACEMENT_3D('',#715,#617,#618);
#513=AXIS2_PLACEMENT_3D('',#716,#619,#620);
#514=AXIS2_PLACEMENT_3D('',#719,#622,#623);
#515=AXIS2_PLACEMENT_3D('',#720,#624,#625);
#516=AXIS2_PLACEMENT_3D('',#723,#627,#628);
#517=AXIS2_PLACEMENT_3D('',#724,#629,#630);
#518=AXIS2_PLACEMENT_3D('',#725,#631,#632);
#519=DIRECTION('',(0.,0.,1.));
#520=DIRECTION('',(1.,0.,0.));
#521=DIRECTION('',(-1.,0.,0.));
#522=DIRECTION('',(0.,0.,1.));
#523=DIRECTION('',(-1.,0.,0.));
#524=DIRECTION('',(0.,0.,1.));
#525=DIRECTION('',(-1.,6.12303176911189E-17,0.));
#526=DIRECTION('',(6.12303176911189E-17,1.,0.));
#527=DIRECTION('',(1.,-6.12303176911189E-17,0.));
#528=DIRECTION('',(-6.12303176911189E-17,-1.,0.));
#529=DIRECTION('',(-1.,6.12303176911189E-17,0.));
#530=DIRECTION('',(6.12303176911189E-17,1.,0.));
#531=DIRECTION('',(1.,-6.12303176911189E-17,0.));
#532=DIRECTION('',(6.12303176911189E-17,1.,0.));
#533=DIRECTION('',(-1.,6.12303176911189E-17,0.));
#534=DIRECTION('',(6.12303176911189E-17,1.,0.));
#535=DIRECTION('',(1.,-6.12303176911189E-17,0.));
#536=DIRECTION('',(6.12303176911189E-17,1.,0.));
#537=DIRECTION('',(-1.,6.12303176911189E-17,0.));
#538=DIRECTION('',(-6.12303176911189E-17,-1.,0.));
#539=DIRECTION('',(1.,-6.12303176911189E-17,0.));
#540=DIRECTION('',(6.12303176911189E-17,1.,0.));
#541=DIRECTION('',(-1.,6.12303176911189E-17,0.));
#542=DIRECTION('',(6.12303176911189E-17,1.,0.));
#543=DIRECTION('',(1.,-6.12303176911189E-17,0.));
#544=DIRECTION('',(6.12303176911189E-17,1.,0.));
#545=DIRECTION('',(-1.,6.12303176911189E-17,0.));
#546=DIRECTION('',(6.12303176911189E-17,1.,0.));
#547=DIRECTION('',(1.,-6.12303176911189E-17,0.));
#548=DIRECTION('',(-6.12303176911189E-17,-1.,0.));
#549=DIRECTION('',(-1.,0.,0.));
#550=DIRECTION('',(0.,0.,1.));
#551=DIRECTION('',(-1.,0.,0.));
#552=DIRECTION('',(0.,0.,1.));
#553=DIRECTION('',(1.,0.,0.));
#554=DIRECTION('',(0.,0.,1.));
#555=DIRECTION('',(-1.,0.,0.));
#556=DIRECTION('',(0.,0.,1.));
#557=DIRECTION('',(-1.,0.,0.));
#558=DIRECTION('',(0.,0.,1.));
#559=DIRECTION('',(1.,0.,0.));
#560=DIRECTION('',(0.,0.,-1.));
#561=DIRECTION('',(-1.,0.,0.));
#562=DIRECTION('',(0.,0.,1.));
#563=DIRECTION('',(-1.,0.,0.));
#564=DIRECTION('',(0.,0.,1.));
#565=DIRECTION('',(-1.,0.,0.));
#566=DIRECTION('',(0.,0.,1.));
#567=DIRECTION('',(-1.,0.,0.));
#568=DIRECTION('',(0.,0.,1.));
#569=DIRECTION('',(-1.,0.,0.));
#570=DIRECTION('',(0.,0.,1.));
#571=DIRECTION('',(-1.,0.,0.));
#572=DIRECTION('',(0.,0.,1.));
#573=DIRECTION('',(-1.,0.,0.));
#574=DIRECTION('',(1.,-6.12303176911189E-17,0.));
#575=DIRECTION('',(-6.12303176911189E-17,-1.,0.));
#576=DIRECTION('',(-1.,0.,0.));
#577=DIRECTION('',(-1.,0.,0.));
#578=DIRECTION('',(0.,0.,1.));
#579=DIRECTION('',(-1.,6.12303176911189E-17,0.));
#580=DIRECTION('',(6.12303176911189E-17,1.,0.));
#581=DIRECTION('',(-1.,0.,0.));
#582=DIRECTION('',(-1.,0.,0.));
#583=DIRECTION('',(0.,0.,1.));
#584=DIRECTION('',(1.,-6.12303176911189E-17,0.));
#585=DIRECTION('',(6.12303176911189E-17,1.,0.));
#586=DIRECTION('',(-1.,0.,0.));
#587=DIRECTION('',(-1.,0.,0.));
#588=DIRECTION('',(0.,0.,1.));
#589=DIRECTION('',(-1.,6.12303176911189E-17,0.));
#590=DIRECTION('',(6.12303176911189E-17,1.,0.));
#591=DIRECTION('',(-1.,0.,0.));
#592=DIRECTION('',(-1.,0.,0.));
#593=DIRECTION('',(0.,0.,1.));
#594=DIRECTION('',(1.,-6.12303176911189E-17,0.));
#595=DIRECTION('',(6.12303176911189E-17,1.,0.));
#596=DIRECTION('',(-1.,0.,0.));
#597=DIRECTION('',(-1.,0.,0.));
#598=DIRECTION('',(0.,0.,1.));
#599=DIRECTION('',(-1.,6.12303176911189E-17,0.));
#600=DIRECTION('',(-6.12303176911189E-17,-1.,0.));
#601=DIRECTION('',(-1.,0.,0.));
#602=DIRECTION('',(-1.,0.,0.));
#603=DIRECTION('',(0.,0.,1.));
#604=DIRECTION('',(1.,-6.12303176911189E-17,0.));
#605=DIRECTION('',(6.12303176911189E-17,1.,0.));
#606=DIRECTION('',(-1.,0.,0.));
#607=DIRECTION('',(-1.,0.,0.));
#608=DIRECTION('',(0.,0.,1.));
#609=DIRECTION('',(-1.,6.12303176911189E-17,0.));
#610=DIRECTION('',(6.12303176911189E-17,1.,0.));
#611=DIRECTION('',(-1.,0.,0.));
#612=DIRECTION('',(-1.,0.,0.));
#613=DIRECTION('',(0.,0.,1.));
#614=DIRECTION('',(1.,-6.12303176911189E-17,0.));
#615=DIRECTION('',(6.12303176911189E-17,1.,0.));
#616=DIRECTION('',(-1.,0.,0.));
#617=DIRECTION('',(-1.,0.,0.));
#618=DIRECTION('',(0.,0.,1.));
#619=DIRECTION('',(-1.,6.12303176911189E-17,0.));
#620=DIRECTION('',(6.12303176911189E-17,1.,0.));
#621=DIRECTION('',(-1.,0.,0.));
#622=DIRECTION('',(-1.,0.,0.));
#623=DIRECTION('',(0.,0.,1.));
#624=DIRECTION('',(1.,-6.12303176911189E-17,0.));
#625=DIRECTION('',(-6.12303176911189E-17,-1.,0.));
#626=DIRECTION('',(-1.,0.,0.));
#627=DIRECTION('',(-1.,0.,0.));
#628=DIRECTION('',(0.,0.,1.));
#629=DIRECTION('',(-1.,6.12303176911189E-17,0.));
#630=DIRECTION('',(6.12303176911189E-17,1.,0.));
#631=DIRECTION('',(1.,-6.12303176911189E-17,0.));
#632=DIRECTION('',(6.12303176911189E-17,1.,0.));
#633=CARTESIAN_POINT('',(0.,0.,0.));
#634=CARTESIAN_POINT('',(0.,0.,0.));
#635=CARTESIAN_POINT('',(0.,0.,0.));
#636=CARTESIAN_POINT('',(0.,0.,1.9));
#637=CARTESIAN_POINT('',(6.39867425429863E-17,1.04501732076212,3.25260651745651E-16));
#638=CARTESIAN_POINT('',(4.53243210220051E-17,0.740226781945623,-0.288993559077255));
#639=CARTESIAN_POINT('',(0.,0.740226781945624,0.288993559077255));
#640=CARTESIAN_POINT('',(3.97702579517255E-17,0.649519052838329,0.375));
#641=CARTESIAN_POINT('',(3.79866250321887E-17,0.620389154663793,0.496558418187887));
#642=CARTESIAN_POINT('',(3.19933712714931E-17,0.522508660381058,0.905011547174745));
#643=CARTESIAN_POINT('',(7.33769598981636E-18,0.11983762728183,0.785551977265142));
#644=CARTESIAN_POINT('',(-6.69171318103902E-33,-1.09287578986539E-16,0.75));
#645=CARTESIAN_POINT('',(-7.33769598981637E-18,-0.11983762728183,0.785551977265141));
#646=CARTESIAN_POINT('',(-3.19933712714931E-17,-0.522508660381058,0.905011547174745));
#647=CARTESIAN_POINT('',(-3.79866250321887E-17,-0.620389154663793,0.496558418187887));
#648=CARTESIAN_POINT('',(-3.97702579517255E-17,-0.649519052838329,0.375));
#649=CARTESIAN_POINT('',(-4.53243210220051E-17,-0.740226781945623,0.288993559077255));
#650=CARTESIAN_POINT('',(-6.39867425429863E-17,-1.04501732076212,3.25260651745651E-16));
#651=CARTESIAN_POINT('',(-4.53243210220051E-17,-0.740226781945624,-0.288993559077254));
#652=CARTESIAN_POINT('',(-3.97702579517255E-17,-0.649519052838329,-0.375));
#653=CARTESIAN_POINT('',(-3.79866250321887E-17,-0.620389154663793,-0.496558418187887));
#654=CARTESIAN_POINT('',(-3.19933712714931E-17,-0.522508660381058,-0.905011547174745));
#655=CARTESIAN_POINT('',(-7.33769598981636E-18,-0.11983762728183,-0.785551977265141));
#656=CARTESIAN_POINT('',(-6.69171318103902E-33,-1.09287578986539E-16,-0.75));
#657=CARTESIAN_POINT('',(7.33769598981635E-18,0.11983762728183,-0.785551977265142));
#658=CARTESIAN_POINT('',(3.19933712714931E-17,0.522508660381058,-0.905011547174745));
#659=CARTESIAN_POINT('',(3.79866250321887E-17,0.620389154663793,-0.496558418187887));
#660=CARTESIAN_POINT('',(3.97702579517255E-17,0.649519052838329,-0.375));
#661=CARTESIAN_POINT('',(3.,0.,0.));
#662=CARTESIAN_POINT('',(4.,0.,0.));
#663=CARTESIAN_POINT('',(4.,0.,1.));
#664=CARTESIAN_POINT('',(2.,0.,0.));
#665=CARTESIAN_POINT('',(2.,0.,1.));
#666=CARTESIAN_POINT('',(3.,0.,0.));
#667=CARTESIAN_POINT('',(1.40710678118655,0.,0.));
#668=CARTESIAN_POINT('',(1.40710678118655,0.,1.));
#669=CARTESIAN_POINT('',(4.,0.,1.));
#670=CARTESIAN_POINT('',(3.,0.,0.));
#671=CARTESIAN_POINT('',(0.3,0.,0.));
#672=CARTESIAN_POINT('',(0.3,0.,1.9));
#673=CARTESIAN_POINT('',(0.3,0.,0.));
#674=CARTESIAN_POINT('',(1.05355339059327,0.,0.));
#675=CARTESIAN_POINT('',(1.05355339059327,0.,1.14644660940673));
#676=CARTESIAN_POINT('',(1.40710678118655,0.,0.));
#677=CARTESIAN_POINT('',(0.64,0.649519052838329,0.375));
#678=CARTESIAN_POINT('',(0.64,0.740226781945624,0.288993559077255));
#679=CARTESIAN_POINT('',(0.64,0.740226781945624,0.288993559077255));
#680=CARTESIAN_POINT('',(0.64,0.649519052838329,0.375));
#681=CARTESIAN_POINT('',(0.64,0.620389154663793,0.496558418187887));
#682=CARTESIAN_POINT('',(0.64,0.620389154663793,0.496558418187887));
#683=CARTESIAN_POINT('',(0.64,0.522508660381058,0.905011547174745));
#684=CARTESIAN_POINT('',(0.64,0.522508660381058,0.905011547174745));
#685=CARTESIAN_POINT('',(0.64,0.11983762728183,0.785551977265142));
#686=CARTESIAN_POINT('',(0.64,0.11983762728183,0.785551977265142));
#687=CARTESIAN_POINT('',(0.64,-1.09287578986539E-16,0.75));
#688=CARTESIAN_POINT('',(0.64,-1.09287578986539E-16,0.75));
#689=CARTESIAN_POINT('',(0.64,-0.11983762728183,0.785551977265141));
#690=CARTESIAN_POINT('',(0.64,-0.11983762728183,0.785551977265141));
#691=CARTESIAN_POINT('',(0.64,-0.522508660381058,0.905011547174745));
#692=CARTESIAN_POINT('',(0.64,-0.522508660381058,0.905011547174745));
#693=CARTESIAN_POINT('',(0.64,-0.620389154663793,0.496558418187887));
#694=CARTESIAN_POINT('',(0.64,-0.620389154663793,0.496558418187887));
#695=CARTESIAN_POINT('',(0.64,-0.649519052838329,0.375));
#696=CARTESIAN_POINT('',(0.64,-0.649519052838329,0.375));
#697=CARTESIAN_POINT('',(0.64,-0.740226781945623,0.288993559077255));
#698=CARTESIAN_POINT('',(0.64,-0.740226781945623,0.288993559077255));
#699=CARTESIAN_POINT('',(0.64,-1.04501732076212,3.25260651745651E-16));
#700=CARTESIAN_POINT('',(0.64,-1.04501732076212,3.25260651745651E-16));
#701=CARTESIAN_POINT('',(0.64,-0.740226781945624,-0.288993559077254));
#702=CARTESIAN_POINT('',(0.64,-0.740226781945624,-0.288993559077254));
#703=CARTESIAN_POINT('',(0.64,-0.649519052838329,-0.375));
#704=CARTESIAN_POINT('',(0.64,-0.649519052838329,-0.375));
#705=CARTESIAN_POINT('',(0.64,-0.620389154663793,-0.496558418187887));
#706=CARTESIAN_POINT('',(0.64,-0.620389154663793,-0.496558418187887));
#707=CARTESIAN_POINT('',(0.64,-0.522508660381058,-0.905011547174745));
#708=CARTESIAN_POINT('',(0.64,-0.522508660381058,-0.905011547174745));
#709=CARTESIAN_POINT('',(0.64,-0.11983762728183,-0.785551977265141));
#710=CARTESIAN_POINT('',(0.64,-0.11983762728183,-0.785551977265141));
#711=CARTESIAN_POINT('',(0.64,-1.09287578986539E-16,-0.75));
#712=CARTESIAN_POINT('',(0.64,-1.09287578986539E-16,-0.75));
#713=CARTESIAN_POINT('',(0.64,0.11983762728183,-0.785551977265142));
#714=CARTESIAN_POINT('',(0.64,0.11983762728183,-0.785551977265142));
#715=CARTESIAN_POINT('',(0.64,0.522508660381058,-0.905011547174745));
#716=CARTESIAN_POINT('',(0.64,0.522508660381058,-0.905011547174745));
#717=CARTESIAN_POINT('',(0.64,0.620389154663793,-0.496558418187887));
#718=CARTESIAN_POINT('',(0.64,0.620389154663793,-0.496558418187887));
#719=CARTESIAN_POINT('',(0.64,0.649519052838329,-0.375));
#720=CARTESIAN_POINT('',(0.64,0.649519052838329,-0.375));
#721=CARTESIAN_POINT('',(0.64,0.740226781945623,-0.288993559077255));
#722=CARTESIAN_POINT('',(0.64,0.740226781945623,-0.288993559077255));
#723=CARTESIAN_POINT('',(0.64,1.04501732076212,3.25260651745651E-16));
#724=CARTESIAN_POINT('',(0.64,1.04501732076212,3.25260651745651E-16));
#725=CARTESIAN_POINT('',(0.64,0.586013856609694,0.640005773587372));
#726=MECHANICAL_DESIGN_GEOMETRIC_PRESENTATION_REPRESENTATION('',(#302,#303,
#304,#305,#306,#307,#308,#309,#310,#311,#312,#313,#314,#315,#316,#317,#318,
#319,#320,#321),#727);
#727=(
GEOMETRIC_REPRESENTATION_CONTEXT(3)
GLOBAL_UNCERTAINTY_ASSIGNED_CONTEXT((#728))
GLOBAL_UNIT_ASSIGNED_CONTEXT((#731,#730,#729))
REPRESENTATION_CONTEXT('\X2\5185516D89D282B15F626C89593487BA9489\X0\',
'TOP_LEVEL_ASSEMBLY_PART')
);
#728=UNCERTAINTY_MEASURE_WITH_UNIT(LENGTH_MEASURE(0.005),#731,
'DISTANCE_ACCURACY_VALUE','Maximum Tolerance applied to model');
#729=(
NAMED_UNIT(*)
SI_UNIT($,.STERADIAN.)
SOLID_ANGLE_UNIT()
);
#730=(
NAMED_UNIT(*)
PLANE_ANGLE_UNIT()
SI_UNIT($,.RADIAN.)
);
#731=(
LENGTH_UNIT()
NAMED_UNIT(*)
SI_UNIT(.MILLI.,.METRE.)
);
#732=PRODUCT_DEFINITION_SHAPE('','',#733);
#733=PRODUCT_DEFINITION('','',#735,#734);
#734=PRODUCT_DEFINITION_CONTEXT('',#741,'design');
#735=PRODUCT_DEFINITION_FORMATION_WITH_SPECIFIED_SOURCE('','',#737,
 .NOT_KNOWN.);
#736=PRODUCT_RELATED_PRODUCT_CATEGORY('','',(#737));
#737=PRODUCT('\X2\5185516D89D282B15F626C89593487BA9489\X0\',
'\X2\5185516D89D282B15F626C89593487BA9489\X0\',
'\X2\5185516D89D282B15F626C89593487BA9489\X0\',(#739));
#738=PRODUCT_CATEGORY('','');
#739=PRODUCT_CONTEXT('',#741,'mechanical');
#740=APPLICATION_PROTOCOL_DEFINITION('international standard',
'automotive_design',2010,#741);
#741=APPLICATION_CONTEXT(
'core data for automotive mechanical design processes');
ENDSEC;
END-ISO-10303-21;
