ISO-10303-21;
HEADER;
/* Generated by software containing HOOPS Exchange Step
 * from HOOPS Exchange, Inc. (www.tiangong.cloud) 
 */

FILE_DESCRIPTION(
/* description */ ('Unknown'),
/* implementation_level */ '2;1');

FILE_NAME(
/* name */ '\X2\53415B5769FD76D8593481EA632487BA9489\X0\',
/* time_stamp */ '2025-12-01T18:40:05+08:00',
/* author */ ('Unknown'),
/* organization */ ('Unknown'),
/* preprocessor_version */ 'ST-DEVELOPER v19.4',
/* originating_system */ 'TianGong',
/* authorisation */ 'Unknown');

FILE_SCHEMA (('AUTOMOTIVE_DESIGN {1 0 10303 214 3 1 1}'));
ENDSEC;

DATA;
#10=PROPERTY_DEFINITION_REPRESENTATION(#14,#12);
#11=PROPERTY_DEFINITION_REPRESENTATION(#15,#13);
#12=REPRESENTATION('',(#16),#910);
#13=REPRESENTATION('',(#17),#910);
#14=PROPERTY_DEFINITION('pmi validation property','',#915);
#15=PROPERTY_DEFINITION('pmi validation property','',#915);
#16=VALUE_REPRESENTATION_ITEM('number of annotations',COUNT_MEASURE(0.));
#17=VALUE_REPRESENTATION_ITEM('number of views',COUNT_MEASURE(0.));
#18=SHAPE_REPRESENTATION_RELATIONSHIP('','',#601,#19);
#19=ADVANCED_BREP_SHAPE_REPRESENTATION('',(#599),#910);
#20=LINE('',#845,#48);
#21=LINE('',#847,#49);
#22=LINE('',#849,#50);
#23=LINE('',#851,#51);
#24=LINE('',#853,#52);
#25=LINE('',#855,#53);
#26=LINE('',#858,#54);
#27=LINE('',#859,#55);
#28=LINE('',#861,#56);
#29=LINE('',#863,#57);
#30=LINE('',#865,#58);
#31=LINE('',#867,#59);
#32=LINE('',#869,#60);
#33=LINE('',#872,#61);
#34=LINE('',#873,#62);
#35=LINE('',#875,#63);
#36=LINE('',#877,#64);
#37=LINE('',#879,#65);
#38=LINE('',#881,#66);
#39=LINE('',#883,#67);
#40=LINE('',#886,#68);
#41=LINE('',#887,#69);
#42=LINE('',#889,#70);
#43=LINE('',#891,#71);
#44=LINE('',#893,#72);
#45=LINE('',#895,#73);
#46=LINE('',#897,#74);
#47=LINE('',#899,#75);
#48=VECTOR('',#709,1000.);
#49=VECTOR('',#710,1000.);
#50=VECTOR('',#711,1000.);
#51=VECTOR('',#714,1000.);
#52=VECTOR('',#715,1000.);
#53=VECTOR('',#718,1000.);
#54=VECTOR('',#719,1000.);
#55=VECTOR('',#720,1000.);
#56=VECTOR('',#723,1000.);
#57=VECTOR('',#724,1000.);
#58=VECTOR('',#727,1000.);
#59=VECTOR('',#728,1000.);
#60=VECTOR('',#731,1000.);
#61=VECTOR('',#732,1000.);
#62=VECTOR('',#733,1000.);
#63=VECTOR('',#736,1000.);
#64=VECTOR('',#737,1000.);
#65=VECTOR('',#740,1000.);
#66=VECTOR('',#741,1000.);
#67=VECTOR('',#744,1000.);
#68=VECTOR('',#745,1000.);
#69=VECTOR('',#746,1000.);
#70=VECTOR('',#749,1000.);
#71=VECTOR('',#750,1000.);
#72=VECTOR('',#753,1000.);
#73=VECTOR('',#754,1000.);
#74=VECTOR('',#757,1000.);
#75=VECTOR('',#758,1000.);
#76=TOROIDAL_SURFACE('',#629,1.3,0.1);
#77=B_SPLINE_CURVE_WITH_KNOTS('',3,(#794,#795,#796,#797),.UNSPECIFIED.,
 .F.,.F.,(4,4),(0.,0.00049674971733227),.UNSPECIFIED.);
#78=B_SPLINE_CURVE_WITH_KNOTS('',3,(#805,#806,#807,#808),.UNSPECIFIED.,
 .F.,.F.,(4,4),(0.,0.00049674971733227),.UNSPECIFIED.);
#79=B_SPLINE_CURVE_WITH_KNOTS('',3,(#816,#817,#818,#819),.UNSPECIFIED.,
 .F.,.F.,(4,4),(0.,0.000496749717332273),.UNSPECIFIED.);
#80=B_SPLINE_CURVE_WITH_KNOTS('',3,(#827,#828,#829,#830),.UNSPECIFIED.,
 .F.,.F.,(4,4),(0.,0.000496749717332273),.UNSPECIFIED.);
#81=SPHERICAL_SURFACE('',#611,3.2);
#82=PLANE('',#610);
#83=PLANE('',#627);
#84=PLANE('',#630);
#85=PLANE('',#631);
#86=PLANE('',#632);
#87=PLANE('',#633);
#88=PLANE('',#634);
#89=PLANE('',#635);
#90=PLANE('',#636);
#91=PLANE('',#637);
#92=PLANE('',#638);
#93=PLANE('',#639);
#94=PLANE('',#640);
#95=PLANE('',#641);
#96=PLANE('',#642);
#97=CYLINDRICAL_SURFACE('',#606,1.);
#98=CYLINDRICAL_SURFACE('',#625,2.);
#99=CYLINDRICAL_SURFACE('',#647,0.316666666666667);
#100=CYLINDRICAL_SURFACE('',#648,0.316666666666667);
#101=CYLINDRICAL_SURFACE('',#649,0.316666666666667);
#102=CYLINDRICAL_SURFACE('',#650,0.316666666666667);
#103=ORIENTED_EDGE('',*,*,#213,.T.);
#104=ORIENTED_EDGE('',*,*,#214,.F.);
#105=ORIENTED_EDGE('',*,*,#215,.T.);
#106=ORIENTED_EDGE('',*,*,#213,.F.);
#107=ORIENTED_EDGE('',*,*,#216,.T.);
#108=ORIENTED_EDGE('',*,*,#215,.F.);
#109=ORIENTED_EDGE('',*,*,#216,.F.);
#110=ORIENTED_EDGE('',*,*,#217,.F.);
#111=ORIENTED_EDGE('',*,*,#218,.T.);
#112=ORIENTED_EDGE('',*,*,#219,.F.);
#113=ORIENTED_EDGE('',*,*,#220,.F.);
#114=ORIENTED_EDGE('',*,*,#221,.F.);
#115=ORIENTED_EDGE('',*,*,#222,.T.);
#116=ORIENTED_EDGE('',*,*,#223,.F.);
#117=ORIENTED_EDGE('',*,*,#224,.F.);
#118=ORIENTED_EDGE('',*,*,#225,.F.);
#119=ORIENTED_EDGE('',*,*,#226,.T.);
#120=ORIENTED_EDGE('',*,*,#227,.F.);
#121=ORIENTED_EDGE('',*,*,#228,.F.);
#122=ORIENTED_EDGE('',*,*,#229,.F.);
#123=ORIENTED_EDGE('',*,*,#230,.T.);
#124=ORIENTED_EDGE('',*,*,#231,.F.);
#125=ORIENTED_EDGE('',*,*,#232,.F.);
#126=ORIENTED_EDGE('',*,*,#233,.T.);
#127=ORIENTED_EDGE('',*,*,#234,.T.);
#128=ORIENTED_EDGE('',*,*,#233,.F.);
#129=ORIENTED_EDGE('',*,*,#235,.T.);
#130=ORIENTED_EDGE('',*,*,#234,.F.);
#131=ORIENTED_EDGE('',*,*,#214,.T.);
#132=ORIENTED_EDGE('',*,*,#235,.F.);
#133=ORIENTED_EDGE('',*,*,#232,.T.);
#134=ORIENTED_EDGE('',*,*,#236,.T.);
#135=ORIENTED_EDGE('',*,*,#237,.T.);
#136=ORIENTED_EDGE('',*,*,#238,.F.);
#137=ORIENTED_EDGE('',*,*,#231,.T.);
#138=ORIENTED_EDGE('',*,*,#239,.T.);
#139=ORIENTED_EDGE('',*,*,#240,.T.);
#140=ORIENTED_EDGE('',*,*,#236,.F.);
#141=ORIENTED_EDGE('',*,*,#241,.T.);
#142=ORIENTED_EDGE('',*,*,#242,.T.);
#143=ORIENTED_EDGE('',*,*,#229,.T.);
#144=ORIENTED_EDGE('',*,*,#243,.T.);
#145=ORIENTED_EDGE('',*,*,#228,.T.);
#146=ORIENTED_EDGE('',*,*,#244,.T.);
#147=ORIENTED_EDGE('',*,*,#245,.T.);
#148=ORIENTED_EDGE('',*,*,#243,.F.);
#149=ORIENTED_EDGE('',*,*,#227,.T.);
#150=ORIENTED_EDGE('',*,*,#246,.T.);
#151=ORIENTED_EDGE('',*,*,#247,.T.);
#152=ORIENTED_EDGE('',*,*,#244,.F.);
#153=ORIENTED_EDGE('',*,*,#248,.T.);
#154=ORIENTED_EDGE('',*,*,#249,.T.);
#155=ORIENTED_EDGE('',*,*,#225,.T.);
#156=ORIENTED_EDGE('',*,*,#250,.T.);
#157=ORIENTED_EDGE('',*,*,#224,.T.);
#158=ORIENTED_EDGE('',*,*,#251,.T.);
#159=ORIENTED_EDGE('',*,*,#252,.T.);
#160=ORIENTED_EDGE('',*,*,#250,.F.);
#161=ORIENTED_EDGE('',*,*,#223,.T.);
#162=ORIENTED_EDGE('',*,*,#253,.T.);
#163=ORIENTED_EDGE('',*,*,#254,.T.);
#164=ORIENTED_EDGE('',*,*,#251,.F.);
#165=ORIENTED_EDGE('',*,*,#255,.T.);
#166=ORIENTED_EDGE('',*,*,#256,.T.);
#167=ORIENTED_EDGE('',*,*,#221,.T.);
#168=ORIENTED_EDGE('',*,*,#257,.T.);
#169=ORIENTED_EDGE('',*,*,#220,.T.);
#170=ORIENTED_EDGE('',*,*,#258,.T.);
#171=ORIENTED_EDGE('',*,*,#259,.T.);
#172=ORIENTED_EDGE('',*,*,#257,.F.);
#173=ORIENTED_EDGE('',*,*,#219,.T.);
#174=ORIENTED_EDGE('',*,*,#260,.T.);
#175=ORIENTED_EDGE('',*,*,#261,.T.);
#176=ORIENTED_EDGE('',*,*,#258,.F.);
#177=ORIENTED_EDGE('',*,*,#262,.T.);
#178=ORIENTED_EDGE('',*,*,#263,.T.);
#179=ORIENTED_EDGE('',*,*,#217,.T.);
#180=ORIENTED_EDGE('',*,*,#238,.T.);
#181=ORIENTED_EDGE('',*,*,#241,.F.);
#182=ORIENTED_EDGE('',*,*,#245,.F.);
#183=ORIENTED_EDGE('',*,*,#247,.F.);
#184=ORIENTED_EDGE('',*,*,#264,.T.);
#185=ORIENTED_EDGE('',*,*,#248,.F.);
#186=ORIENTED_EDGE('',*,*,#252,.F.);
#187=ORIENTED_EDGE('',*,*,#254,.F.);
#188=ORIENTED_EDGE('',*,*,#265,.T.);
#189=ORIENTED_EDGE('',*,*,#255,.F.);
#190=ORIENTED_EDGE('',*,*,#259,.F.);
#191=ORIENTED_EDGE('',*,*,#261,.F.);
#192=ORIENTED_EDGE('',*,*,#266,.T.);
#193=ORIENTED_EDGE('',*,*,#262,.F.);
#194=ORIENTED_EDGE('',*,*,#237,.F.);
#195=ORIENTED_EDGE('',*,*,#240,.F.);
#196=ORIENTED_EDGE('',*,*,#267,.T.);
#197=ORIENTED_EDGE('',*,*,#230,.F.);
#198=ORIENTED_EDGE('',*,*,#242,.F.);
#199=ORIENTED_EDGE('',*,*,#267,.F.);
#200=ORIENTED_EDGE('',*,*,#239,.F.);
#201=ORIENTED_EDGE('',*,*,#226,.F.);
#202=ORIENTED_EDGE('',*,*,#249,.F.);
#203=ORIENTED_EDGE('',*,*,#264,.F.);
#204=ORIENTED_EDGE('',*,*,#246,.F.);
#205=ORIENTED_EDGE('',*,*,#222,.F.);
#206=ORIENTED_EDGE('',*,*,#256,.F.);
#207=ORIENTED_EDGE('',*,*,#265,.F.);
#208=ORIENTED_EDGE('',*,*,#253,.F.);
#209=ORIENTED_EDGE('',*,*,#218,.F.);
#210=ORIENTED_EDGE('',*,*,#263,.F.);
#211=ORIENTED_EDGE('',*,*,#266,.F.);
#212=ORIENTED_EDGE('',*,*,#260,.F.);
#213=EDGE_CURVE('',#268,#268,#307,.T.);
#214=EDGE_CURVE('',#269,#269,#308,.T.);
#215=EDGE_CURVE('',#270,#270,#309,.T.);
#216=EDGE_CURVE('',#271,#271,#310,.T.);
#217=EDGE_CURVE('',#272,#273,#311,.T.);
#218=EDGE_CURVE('',#272,#274,#77,.T.);
#219=EDGE_CURVE('',#275,#274,#312,.T.);
#220=EDGE_CURVE('',#276,#275,#313,.T.);
#221=EDGE_CURVE('',#277,#276,#314,.T.);
#222=EDGE_CURVE('',#277,#278,#78,.T.);
#223=EDGE_CURVE('',#279,#278,#315,.T.);
#224=EDGE_CURVE('',#280,#279,#316,.T.);
#225=EDGE_CURVE('',#281,#280,#317,.T.);
#226=EDGE_CURVE('',#281,#282,#79,.T.);
#227=EDGE_CURVE('',#283,#282,#318,.T.);
#228=EDGE_CURVE('',#284,#283,#319,.T.);
#229=EDGE_CURVE('',#285,#284,#320,.T.);
#230=EDGE_CURVE('',#285,#286,#80,.T.);
#231=EDGE_CURVE('',#287,#286,#321,.T.);
#232=EDGE_CURVE('',#273,#287,#322,.T.);
#233=EDGE_CURVE('',#288,#288,#323,.T.);
#234=EDGE_CURVE('',#289,#289,#324,.T.);
#235=EDGE_CURVE('',#290,#290,#325,.T.);
#236=EDGE_CURVE('',#287,#291,#20,.T.);
#237=EDGE_CURVE('',#291,#292,#21,.F.);
#238=EDGE_CURVE('',#273,#292,#22,.T.);
#239=EDGE_CURVE('',#286,#293,#23,.F.);
#240=EDGE_CURVE('',#293,#291,#24,.F.);
#241=EDGE_CURVE('',#294,#295,#25,.F.);
#242=EDGE_CURVE('',#295,#285,#26,.T.);
#243=EDGE_CURVE('',#284,#294,#27,.T.);
#244=EDGE_CURVE('',#283,#296,#28,.T.);
#245=EDGE_CURVE('',#296,#294,#29,.F.);
#246=EDGE_CURVE('',#282,#297,#30,.F.);
#247=EDGE_CURVE('',#297,#296,#31,.F.);
#248=EDGE_CURVE('',#298,#299,#32,.F.);
#249=EDGE_CURVE('',#299,#281,#33,.T.);
#250=EDGE_CURVE('',#280,#298,#34,.T.);
#251=EDGE_CURVE('',#279,#300,#35,.T.);
#252=EDGE_CURVE('',#300,#298,#36,.F.);
#253=EDGE_CURVE('',#278,#301,#37,.F.);
#254=EDGE_CURVE('',#301,#300,#38,.F.);
#255=EDGE_CURVE('',#302,#303,#39,.F.);
#256=EDGE_CURVE('',#303,#277,#40,.T.);
#257=EDGE_CURVE('',#276,#302,#41,.T.);
#258=EDGE_CURVE('',#275,#304,#42,.T.);
#259=EDGE_CURVE('',#304,#302,#43,.F.);
#260=EDGE_CURVE('',#274,#305,#44,.F.);
#261=EDGE_CURVE('',#305,#304,#45,.F.);
#262=EDGE_CURVE('',#292,#306,#46,.F.);
#263=EDGE_CURVE('',#306,#272,#47,.T.);
#264=EDGE_CURVE('',#297,#299,#326,.F.);
#265=EDGE_CURVE('',#301,#303,#327,.F.);
#266=EDGE_CURVE('',#305,#306,#328,.F.);
#267=EDGE_CURVE('',#293,#295,#329,.F.);
#268=VERTEX_POINT('',#780);
#269=VERTEX_POINT('',#782);
#270=VERTEX_POINT('',#785);
#271=VERTEX_POINT('',#788);
#272=VERTEX_POINT('',#792);
#273=VERTEX_POINT('',#793);
#274=VERTEX_POINT('',#798);
#275=VERTEX_POINT('',#800);
#276=VERTEX_POINT('',#802);
#277=VERTEX_POINT('',#804);
#278=VERTEX_POINT('',#809);
#279=VERTEX_POINT('',#811);
#280=VERTEX_POINT('',#813);
#281=VERTEX_POINT('',#815);
#282=VERTEX_POINT('',#820);
#283=VERTEX_POINT('',#822);
#284=VERTEX_POINT('',#824);
#285=VERTEX_POINT('',#826);
#286=VERTEX_POINT('',#831);
#287=VERTEX_POINT('',#833);
#288=VERTEX_POINT('',#836);
#289=VERTEX_POINT('',#839);
#290=VERTEX_POINT('',#842);
#291=VERTEX_POINT('',#846);
#292=VERTEX_POINT('',#848);
#293=VERTEX_POINT('',#852);
#294=VERTEX_POINT('',#856);
#295=VERTEX_POINT('',#857);
#296=VERTEX_POINT('',#862);
#297=VERTEX_POINT('',#866);
#298=VERTEX_POINT('',#870);
#299=VERTEX_POINT('',#871);
#300=VERTEX_POINT('',#876);
#301=VERTEX_POINT('',#880);
#302=VERTEX_POINT('',#884);
#303=VERTEX_POINT('',#885);
#304=VERTEX_POINT('',#890);
#305=VERTEX_POINT('',#894);
#306=VERTEX_POINT('',#898);
#307=CIRCLE('',#604,1.);
#308=CIRCLE('',#605,1.20370889474673);
#309=CIRCLE('',#607,1.);
#310=CIRCLE('',#609,0.75);
#311=CIRCLE('',#612,3.19608049891669);
#312=CIRCLE('',#613,3.19608049891669);
#313=CIRCLE('',#614,3.17248954767983);
#314=CIRCLE('',#615,3.19608049891669);
#315=CIRCLE('',#616,3.19608049891669);
#316=CIRCLE('',#617,3.17248954767983);
#317=CIRCLE('',#618,3.19608049891669);
#318=CIRCLE('',#619,3.19608049891669);
#319=CIRCLE('',#620,3.17248954767983);
#320=CIRCLE('',#621,3.19608049891669);
#321=CIRCLE('',#622,3.19608049891669);
#322=CIRCLE('',#623,3.17248954767983);
#323=CIRCLE('',#624,2.);
#324=CIRCLE('',#626,2.);
#325=CIRCLE('',#628,1.3);
#326=CIRCLE('',#643,0.316666666666667);
#327=CIRCLE('',#644,0.316666666666667);
#328=CIRCLE('',#645,0.316666666666667);
#329=CIRCLE('',#646,0.316666666666667);
#330=EDGE_LOOP('',(#103));
#331=EDGE_LOOP('',(#104));
#332=EDGE_LOOP('',(#105));
#333=EDGE_LOOP('',(#106));
#334=EDGE_LOOP('',(#107));
#335=EDGE_LOOP('',(#108));
#336=EDGE_LOOP('',(#109));
#337=EDGE_LOOP('',(#110,#111,#112,#113,#114,#115,#116,#117,#118,#119,#120,
#121,#122,#123,#124,#125));
#338=EDGE_LOOP('',(#126));
#339=EDGE_LOOP('',(#127));
#340=EDGE_LOOP('',(#128));
#341=EDGE_LOOP('',(#129));
#342=EDGE_LOOP('',(#130));
#343=EDGE_LOOP('',(#131));
#344=EDGE_LOOP('',(#132));
#345=EDGE_LOOP('',(#133,#134,#135,#136));
#346=EDGE_LOOP('',(#137,#138,#139,#140));
#347=EDGE_LOOP('',(#141,#142,#143,#144));
#348=EDGE_LOOP('',(#145,#146,#147,#148));
#349=EDGE_LOOP('',(#149,#150,#151,#152));
#350=EDGE_LOOP('',(#153,#154,#155,#156));
#351=EDGE_LOOP('',(#157,#158,#159,#160));
#352=EDGE_LOOP('',(#161,#162,#163,#164));
#353=EDGE_LOOP('',(#165,#166,#167,#168));
#354=EDGE_LOOP('',(#169,#170,#171,#172));
#355=EDGE_LOOP('',(#173,#174,#175,#176));
#356=EDGE_LOOP('',(#177,#178,#179,#180));
#357=EDGE_LOOP('',(#181,#182,#183,#184,#185,#186,#187,#188,#189,#190,#191,
#192,#193,#194,#195,#196));
#358=EDGE_LOOP('',(#197,#198,#199,#200));
#359=EDGE_LOOP('',(#201,#202,#203,#204));
#360=EDGE_LOOP('',(#205,#206,#207,#208));
#361=EDGE_LOOP('',(#209,#210,#211,#212));
#362=FACE_BOUND('',#330,.T.);
#363=FACE_BOUND('',#331,.T.);
#364=FACE_BOUND('',#332,.T.);
#365=FACE_BOUND('',#333,.T.);
#366=FACE_BOUND('',#334,.T.);
#367=FACE_BOUND('',#335,.T.);
#368=FACE_BOUND('',#336,.T.);
#369=FACE_BOUND('',#337,.T.);
#370=FACE_BOUND('',#338,.T.);
#371=FACE_BOUND('',#339,.T.);
#372=FACE_BOUND('',#340,.T.);
#373=FACE_BOUND('',#341,.T.);
#374=FACE_BOUND('',#342,.T.);
#375=FACE_BOUND('',#343,.T.);
#376=FACE_BOUND('',#344,.T.);
#377=FACE_BOUND('',#345,.T.);
#378=FACE_BOUND('',#346,.T.);
#379=FACE_BOUND('',#347,.T.);
#380=FACE_BOUND('',#348,.T.);
#381=FACE_BOUND('',#349,.T.);
#382=FACE_BOUND('',#350,.T.);
#383=FACE_BOUND('',#351,.T.);
#384=FACE_BOUND('',#352,.T.);
#385=FACE_BOUND('',#353,.T.);
#386=FACE_BOUND('',#354,.T.);
#387=FACE_BOUND('',#355,.T.);
#388=FACE_BOUND('',#356,.T.);
#389=FACE_BOUND('',#357,.T.);
#390=FACE_BOUND('',#358,.T.);
#391=FACE_BOUND('',#359,.T.);
#392=FACE_BOUND('',#360,.T.);
#393=FACE_BOUND('',#361,.T.);
#394=CONICAL_SURFACE('',#603,1.20370889474673,0.273205078226668);
#395=CONICAL_SURFACE('',#608,1.,0.244978663126864);
#396=STYLED_ITEM('',(#421),#573);
#397=STYLED_ITEM('',(#422),#574);
#398=STYLED_ITEM('',(#423),#575);
#399=STYLED_ITEM('',(#424),#576);
#400=STYLED_ITEM('',(#425),#577);
#401=STYLED_ITEM('',(#426),#578);
#402=STYLED_ITEM('',(#427),#579);
#403=STYLED_ITEM('',(#428),#580);
#404=STYLED_ITEM('',(#429),#581);
#405=STYLED_ITEM('',(#430),#582);
#406=STYLED_ITEM('',(#431),#583);
#407=STYLED_ITEM('',(#432),#584);
#408=STYLED_ITEM('',(#433),#585);
#409=STYLED_ITEM('',(#434),#586);
#410=STYLED_ITEM('',(#435),#587);
#411=STYLED_ITEM('',(#436),#588);
#412=STYLED_ITEM('',(#437),#589);
#413=STYLED_ITEM('',(#438),#590);
#414=STYLED_ITEM('',(#439),#591);
#415=STYLED_ITEM('',(#440),#592);
#416=STYLED_ITEM('',(#441),#593);
#417=STYLED_ITEM('',(#442),#594);
#418=STYLED_ITEM('',(#443),#595);
#419=STYLED_ITEM('',(#444),#596);
#420=STYLED_ITEM('',(#445),#597);
#421=PRESENTATION_STYLE_ASSIGNMENT((#446));
#422=PRESENTATION_STYLE_ASSIGNMENT((#447));
#423=PRESENTATION_STYLE_ASSIGNMENT((#448));
#424=PRESENTATION_STYLE_ASSIGNMENT((#449));
#425=PRESENTATION_STYLE_ASSIGNMENT((#450));
#426=PRESENTATION_STYLE_ASSIGNMENT((#451));
#427=PRESENTATION_STYLE_ASSIGNMENT((#452));
#428=PRESENTATION_STYLE_ASSIGNMENT((#453));
#429=PRESENTATION_STYLE_ASSIGNMENT((#454));
#430=PRESENTATION_STYLE_ASSIGNMENT((#455));
#431=PRESENTATION_STYLE_ASSIGNMENT((#456));
#432=PRESENTATION_STYLE_ASSIGNMENT((#457));
#433=PRESENTATION_STYLE_ASSIGNMENT((#458));
#434=PRESENTATION_STYLE_ASSIGNMENT((#459));
#435=PRESENTATION_STYLE_ASSIGNMENT((#460));
#436=PRESENTATION_STYLE_ASSIGNMENT((#461));
#437=PRESENTATION_STYLE_ASSIGNMENT((#462));
#438=PRESENTATION_STYLE_ASSIGNMENT((#463));
#439=PRESENTATION_STYLE_ASSIGNMENT((#464));
#440=PRESENTATION_STYLE_ASSIGNMENT((#465));
#441=PRESENTATION_STYLE_ASSIGNMENT((#466));
#442=PRESENTATION_STYLE_ASSIGNMENT((#467));
#443=PRESENTATION_STYLE_ASSIGNMENT((#468));
#444=PRESENTATION_STYLE_ASSIGNMENT((#469));
#445=PRESENTATION_STYLE_ASSIGNMENT((#470));
#446=SURFACE_STYLE_USAGE(.BOTH.,#471);
#447=SURFACE_STYLE_USAGE(.BOTH.,#472);
#448=SURFACE_STYLE_USAGE(.BOTH.,#473);
#449=SURFACE_STYLE_USAGE(.BOTH.,#474);
#450=SURFACE_STYLE_USAGE(.BOTH.,#475);
#451=SURFACE_STYLE_USAGE(.BOTH.,#476);
#452=SURFACE_STYLE_USAGE(.BOTH.,#477);
#453=SURFACE_STYLE_USAGE(.BOTH.,#478);
#454=SURFACE_STYLE_USAGE(.BOTH.,#479);
#455=SURFACE_STYLE_USAGE(.BOTH.,#480);
#456=SURFACE_STYLE_USAGE(.BOTH.,#481);
#457=SURFACE_STYLE_USAGE(.BOTH.,#482);
#458=SURFACE_STYLE_USAGE(.BOTH.,#483);
#459=SURFACE_STYLE_USAGE(.BOTH.,#484);
#460=SURFACE_STYLE_USAGE(.BOTH.,#485);
#461=SURFACE_STYLE_USAGE(.BOTH.,#486);
#462=SURFACE_STYLE_USAGE(.BOTH.,#487);
#463=SURFACE_STYLE_USAGE(.BOTH.,#488);
#464=SURFACE_STYLE_USAGE(.BOTH.,#489);
#465=SURFACE_STYLE_USAGE(.BOTH.,#490);
#466=SURFACE_STYLE_USAGE(.BOTH.,#491);
#467=SURFACE_STYLE_USAGE(.BOTH.,#492);
#468=SURFACE_STYLE_USAGE(.BOTH.,#493);
#469=SURFACE_STYLE_USAGE(.BOTH.,#494);
#470=SURFACE_STYLE_USAGE(.BOTH.,#495);
#471=SURFACE_SIDE_STYLE('',(#496));
#472=SURFACE_SIDE_STYLE('',(#497));
#473=SURFACE_SIDE_STYLE('',(#498));
#474=SURFACE_SIDE_STYLE('',(#499));
#475=SURFACE_SIDE_STYLE('',(#500));
#476=SURFACE_SIDE_STYLE('',(#501));
#477=SURFACE_SIDE_STYLE('',(#502));
#478=SURFACE_SIDE_STYLE('',(#503));
#479=SURFACE_SIDE_STYLE('',(#504));
#480=SURFACE_SIDE_STYLE('',(#505));
#481=SURFACE_SIDE_STYLE('',(#506));
#482=SURFACE_SIDE_STYLE('',(#507));
#483=SURFACE_SIDE_STYLE('',(#508));
#484=SURFACE_SIDE_STYLE('',(#509));
#485=SURFACE_SIDE_STYLE('',(#510));
#486=SURFACE_SIDE_STYLE('',(#511));
#487=SURFACE_SIDE_STYLE('',(#512));
#488=SURFACE_SIDE_STYLE('',(#513));
#489=SURFACE_SIDE_STYLE('',(#514));
#490=SURFACE_SIDE_STYLE('',(#515));
#491=SURFACE_SIDE_STYLE('',(#516));
#492=SURFACE_SIDE_STYLE('',(#517));
#493=SURFACE_SIDE_STYLE('',(#518));
#494=SURFACE_SIDE_STYLE('',(#519));
#495=SURFACE_SIDE_STYLE('',(#520));
#496=SURFACE_STYLE_FILL_AREA(#521);
#497=SURFACE_STYLE_FILL_AREA(#522);
#498=SURFACE_STYLE_FILL_AREA(#523);
#499=SURFACE_STYLE_FILL_AREA(#524);
#500=SURFACE_STYLE_FILL_AREA(#525);
#501=SURFACE_STYLE_FILL_AREA(#526);
#502=SURFACE_STYLE_FILL_AREA(#527);
#503=SURFACE_STYLE_FILL_AREA(#528);
#504=SURFACE_STYLE_FILL_AREA(#529);
#505=SURFACE_STYLE_FILL_AREA(#530);
#506=SURFACE_STYLE_FILL_AREA(#531);
#507=SURFACE_STYLE_FILL_AREA(#532);
#508=SURFACE_STYLE_FILL_AREA(#533);
#509=SURFACE_STYLE_FILL_AREA(#534);
#510=SURFACE_STYLE_FILL_AREA(#535);
#511=SURFACE_STYLE_FILL_AREA(#536);
#512=SURFACE_STYLE_FILL_AREA(#537);
#513=SURFACE_STYLE_FILL_AREA(#538);
#514=SURFACE_STYLE_FILL_AREA(#539);
#515=SURFACE_STYLE_FILL_AREA(#540);
#516=SURFACE_STYLE_FILL_AREA(#541);
#517=SURFACE_STYLE_FILL_AREA(#542);
#518=SURFACE_STYLE_FILL_AREA(#543);
#519=SURFACE_STYLE_FILL_AREA(#544);
#520=SURFACE_STYLE_FILL_AREA(#545);
#521=FILL_AREA_STYLE('',(#546));
#522=FILL_AREA_STYLE('',(#547));
#523=FILL_AREA_STYLE('',(#548));
#524=FILL_AREA_STYLE('',(#549));
#525=FILL_AREA_STYLE('',(#550));
#526=FILL_AREA_STYLE('',(#551));
#527=FILL_AREA_STYLE('',(#552));
#528=FILL_AREA_STYLE('',(#553));
#529=FILL_AREA_STYLE('',(#554));
#530=FILL_AREA_STYLE('',(#555));
#531=FILL_AREA_STYLE('',(#556));
#532=FILL_AREA_STYLE('',(#557));
#533=FILL_AREA_STYLE('',(#558));
#534=FILL_AREA_STYLE('',(#559));
#535=FILL_AREA_STYLE('',(#560));
#536=FILL_AREA_STYLE('',(#561));
#537=FILL_AREA_STYLE('',(#562));
#538=FILL_AREA_STYLE('',(#563));
#539=FILL_AREA_STYLE('',(#564));
#540=FILL_AREA_STYLE('',(#565));
#541=FILL_AREA_STYLE('',(#566));
#542=FILL_AREA_STYLE('',(#567));
#543=FILL_AREA_STYLE('',(#568));
#544=FILL_AREA_STYLE('',(#569));
#545=FILL_AREA_STYLE('',(#570));
#546=FILL_AREA_STYLE_COLOUR('',#571);
#547=FILL_AREA_STYLE_COLOUR('',#572);
#548=FILL_AREA_STYLE_COLOUR('',#571);
#549=FILL_AREA_STYLE_COLOUR('',#571);
#550=FILL_AREA_STYLE_COLOUR('',#571);
#551=FILL_AREA_STYLE_COLOUR('',#571);
#552=FILL_AREA_STYLE_COLOUR('',#571);
#553=FILL_AREA_STYLE_COLOUR('',#571);
#554=FILL_AREA_STYLE_COLOUR('',#571);
#555=FILL_AREA_STYLE_COLOUR('',#571);
#556=FILL_AREA_STYLE_COLOUR('',#571);
#557=FILL_AREA_STYLE_COLOUR('',#571);
#558=FILL_AREA_STYLE_COLOUR('',#571);
#559=FILL_AREA_STYLE_COLOUR('',#571);
#560=FILL_AREA_STYLE_COLOUR('',#571);
#561=FILL_AREA_STYLE_COLOUR('',#571);
#562=FILL_AREA_STYLE_COLOUR('',#571);
#563=FILL_AREA_STYLE_COLOUR('',#571);
#564=FILL_AREA_STYLE_COLOUR('',#571);
#565=FILL_AREA_STYLE_COLOUR('',#571);
#566=FILL_AREA_STYLE_COLOUR('',#571);
#567=FILL_AREA_STYLE_COLOUR('',#571);
#568=FILL_AREA_STYLE_COLOUR('',#571);
#569=FILL_AREA_STYLE_COLOUR('',#571);
#570=FILL_AREA_STYLE_COLOUR('',#571);
#571=COLOUR_RGB('',0.506983280181885,0.531564235687256,0.550000011920929);
#572=COLOUR_RGB('',0.1875,0.75,0.581249892711639);
#573=ADVANCED_FACE('',(#362,#363),#394,.T.);
#574=ADVANCED_FACE('',(#364,#365),#97,.T.);
#575=ADVANCED_FACE('',(#366,#367),#395,.T.);
#576=ADVANCED_FACE('',(#368),#82,.T.);
#577=ADVANCED_FACE('',(#369,#370),#81,.T.);
#578=ADVANCED_FACE('',(#371,#372),#98,.T.);
#579=ADVANCED_FACE('',(#373,#374),#83,.T.);
#580=ADVANCED_FACE('',(#375,#376),#76,.F.);
#581=ADVANCED_FACE('',(#377),#84,.T.);
#582=ADVANCED_FACE('',(#378),#85,.T.);
#583=ADVANCED_FACE('',(#379),#86,.T.);
#584=ADVANCED_FACE('',(#380),#87,.T.);
#585=ADVANCED_FACE('',(#381),#88,.T.);
#586=ADVANCED_FACE('',(#382),#89,.T.);
#587=ADVANCED_FACE('',(#383),#90,.T.);
#588=ADVANCED_FACE('',(#384),#91,.T.);
#589=ADVANCED_FACE('',(#385),#92,.T.);
#590=ADVANCED_FACE('',(#386),#93,.T.);
#591=ADVANCED_FACE('',(#387),#94,.T.);
#592=ADVANCED_FACE('',(#388),#95,.T.);
#593=ADVANCED_FACE('',(#389),#96,.T.);
#594=ADVANCED_FACE('',(#390),#99,.T.);
#595=ADVANCED_FACE('',(#391),#100,.T.);
#596=ADVANCED_FACE('',(#392),#101,.T.);
#597=ADVANCED_FACE('',(#393),#102,.T.);
#598=CLOSED_SHELL('',(#573,#574,#575,#576,#577,#578,#579,#580,#581,#582,
#583,#584,#585,#586,#587,#588,#589,#590,#591,#592,#593,#594,#595,#596,#597));
#599=MANIFOLD_SOLID_BREP('',#598);
#600=SHAPE_DEFINITION_REPRESENTATION(#915,#601);
#601=SHAPE_REPRESENTATION('\X2\53415B5769FD76D8593481EA632487BA9489\X0\',
(#602),#910);
#602=AXIS2_PLACEMENT_3D('',#777,#651,#652);
#603=AXIS2_PLACEMENT_3D('',#778,#653,#654);
#604=AXIS2_PLACEMENT_3D('',#779,#655,#656);
#605=AXIS2_PLACEMENT_3D('',#781,#657,#658);
#606=AXIS2_PLACEMENT_3D('',#783,#659,#660);
#607=AXIS2_PLACEMENT_3D('',#784,#661,#662);
#608=AXIS2_PLACEMENT_3D('',#786,#663,#664);
#609=AXIS2_PLACEMENT_3D('',#787,#665,#666);
#610=AXIS2_PLACEMENT_3D('',#789,#667,#668);
#611=AXIS2_PLACEMENT_3D('',#790,#669,#670);
#612=AXIS2_PLACEMENT_3D('',#791,#671,#672);
#613=AXIS2_PLACEMENT_3D('',#799,#673,#674);
#614=AXIS2_PLACEMENT_3D('',#801,#675,#676);
#615=AXIS2_PLACEMENT_3D('',#803,#677,#678);
#616=AXIS2_PLACEMENT_3D('',#810,#679,#680);
#617=AXIS2_PLACEMENT_3D('',#812,#681,#682);
#618=AXIS2_PLACEMENT_3D('',#814,#683,#684);
#619=AXIS2_PLACEMENT_3D('',#821,#685,#686);
#620=AXIS2_PLACEMENT_3D('',#823,#687,#688);
#621=AXIS2_PLACEMENT_3D('',#825,#689,#690);
#622=AXIS2_PLACEMENT_3D('',#832,#691,#692);
#623=AXIS2_PLACEMENT_3D('',#834,#693,#694);
#624=AXIS2_PLACEMENT_3D('',#835,#695,#696);
#625=AXIS2_PLACEMENT_3D('',#837,#697,#698);
#626=AXIS2_PLACEMENT_3D('',#838,#699,#700);
#627=AXIS2_PLACEMENT_3D('',#840,#701,#702);
#628=AXIS2_PLACEMENT_3D('',#841,#703,#704);
#629=AXIS2_PLACEMENT_3D('',#843,#705,#706);
#630=AXIS2_PLACEMENT_3D('',#844,#707,#708);
#631=AXIS2_PLACEMENT_3D('',#850,#712,#713);
#632=AXIS2_PLACEMENT_3D('',#854,#716,#717);
#633=AXIS2_PLACEMENT_3D('',#860,#721,#722);
#634=AXIS2_PLACEMENT_3D('',#864,#725,#726);
#635=AXIS2_PLACEMENT_3D('',#868,#729,#730);
#636=AXIS2_PLACEMENT_3D('',#874,#734,#735);
#637=AXIS2_PLACEMENT_3D('',#878,#738,#739);
#638=AXIS2_PLACEMENT_3D('',#882,#742,#743);
#639=AXIS2_PLACEMENT_3D('',#888,#747,#748);
#640=AXIS2_PLACEMENT_3D('',#892,#751,#752);
#641=AXIS2_PLACEMENT_3D('',#896,#755,#756);
#642=AXIS2_PLACEMENT_3D('',#900,#759,#760);
#643=AXIS2_PLACEMENT_3D('',#901,#761,#762);
#644=AXIS2_PLACEMENT_3D('',#902,#763,#764);
#645=AXIS2_PLACEMENT_3D('',#903,#765,#766);
#646=AXIS2_PLACEMENT_3D('',#904,#767,#768);
#647=AXIS2_PLACEMENT_3D('',#905,#769,#770);
#648=AXIS2_PLACEMENT_3D('',#906,#771,#772);
#649=AXIS2_PLACEMENT_3D('',#907,#773,#774);
#650=AXIS2_PLACEMENT_3D('',#908,#775,#776);
#651=DIRECTION('',(0.,0.,1.));
#652=DIRECTION('',(1.,0.,0.));
#653=DIRECTION('',(-1.,0.,8.51928208102506E-17));
#654=DIRECTION('',(8.51928208102506E-17,0.,1.));
#655=DIRECTION('',(-1.,0.,8.51928208102506E-17));
#656=DIRECTION('',(8.51928208102506E-17,0.,1.));
#657=DIRECTION('',(-1.,0.,8.51928208102506E-17));
#658=DIRECTION('',(8.51928208102506E-17,0.,1.));
#659=DIRECTION('',(-1.,0.,8.51928208102506E-17));
#660=DIRECTION('',(8.51928208102506E-17,0.,1.));
#661=DIRECTION('',(-1.,0.,8.51928208102506E-17));
#662=DIRECTION('',(8.51928208102506E-17,0.,1.));
#663=DIRECTION('',(-1.,0.,8.51928208102506E-17));
#664=DIRECTION('',(8.51928208102506E-17,0.,1.));
#665=DIRECTION('',(-1.,0.,8.51928208102506E-17));
#666=DIRECTION('',(8.51928208102506E-17,0.,1.));
#667=DIRECTION('',(1.,0.,-8.51928208102506E-17));
#668=DIRECTION('',(-8.51928208102506E-17,0.,-1.));
#669=DIRECTION('',(-1.,0.,8.51928208102506E-17));
#670=DIRECTION('',(8.51928208102506E-17,0.,1.));
#671=DIRECTION('',(0.,1.,3.42379633416475E-17));
#672=DIRECTION('',(0.,-3.42379633416475E-17,1.));
#673=DIRECTION('',(0.,-1.71189816708238E-16,-1.));
#674=DIRECTION('',(0.,1.,-1.71189816708238E-16));
#675=DIRECTION('',(-0.402596590019985,0.915377509940177,0.));
#676=DIRECTION('',(-0.915377509940178,-0.402596590019985,0.));
#677=DIRECTION('',(0.,-1.02713890024943E-16,1.));
#678=DIRECTION('',(0.,-1.,-1.02713890024943E-16));
#679=DIRECTION('',(0.,1.,-3.42379633416475E-17));
#680=DIRECTION('',(0.,3.42379633416475E-17,1.));
#681=DIRECTION('',(-0.402596590019986,2.46511171082848E-17,0.915377509940177));
#682=DIRECTION('',(0.915377509940177,0.,0.402596590019986));
#683=DIRECTION('',(0.,-1.,-8.49101490872858E-15));
#684=DIRECTION('',(0.,8.49101490872858E-15,-1.));
#685=DIRECTION('',(0.,1.02713890024942E-16,1.));
#686=DIRECTION('',(0.,-1.,1.02713890024942E-16));
#687=DIRECTION('',(-0.402596590019988,-0.915377509940176,0.));
#688=DIRECTION('',(0.915377509940176,-0.402596590019988,0.));
#689=DIRECTION('',(0.,1.02713890024942E-16,-1.));
#690=DIRECTION('',(0.,1.,1.02713890024942E-16));
#691=DIRECTION('',(0.,-1.,8.52525287207023E-15));
#692=DIRECTION('',(0.,-8.52525287207023E-15,-1.));
#693=DIRECTION('',(-0.402596590019986,2.46511171082848E-17,-0.915377509940177));
#694=DIRECTION('',(-0.915377509940177,0.,0.402596590019986));
#695=DIRECTION('',(-1.,0.,8.51928208102506E-17));
#696=DIRECTION('',(8.51928208102506E-17,0.,1.));
#697=DIRECTION('',(-1.,0.,8.51928208102506E-17));
#698=DIRECTION('',(8.51928208102506E-17,0.,1.));
#699=DIRECTION('',(-1.,0.,8.51928208102506E-17));
#700=DIRECTION('',(8.51928208102506E-17,0.,1.));
#701=DIRECTION('',(1.,0.,-8.51928208102506E-17));
#702=DIRECTION('',(-8.51928208102506E-17,0.,-1.));
#703=DIRECTION('',(-1.,0.,8.51928208102506E-17));
#704=DIRECTION('',(8.51928208102506E-17,0.,1.));
#705=DIRECTION('',(-1.,0.,8.51928208102506E-17));
#706=DIRECTION('',(8.51928208102506E-17,0.,1.));
#707=DIRECTION('',(-0.402596590019986,2.46511171082848E-17,-0.915377509940177));
#708=DIRECTION('',(-0.915377509940177,0.,0.402596590019986));
#709=DIRECTION('',(0.915377509940177,-3.39088547348183E-15,-0.402596590019986));
#710=DIRECTION('',(6.12303176911189E-17,1.,0.));
#711=DIRECTION('',(0.915377509940177,2.75681745811531E-17,-0.402596590019986));
#712=DIRECTION('',(0.,-1.,8.52525287207023E-15));
#713=DIRECTION('',(0.,-8.52525287207023E-15,-1.));
#714=DIRECTION('',(-1.,0.,0.));
#715=DIRECTION('',(-5.28293145871502E-31,-8.62796676209517E-15,-1.));
#716=DIRECTION('',(0.,1.02713890024942E-16,-1.));
#717=DIRECTION('',(0.,1.,1.02713890024942E-16));
#718=DIRECTION('',(6.12303176911189E-17,1.,1.36951853366589E-16));
#719=DIRECTION('',(-1.,0.,0.));
#720=DIRECTION('',(0.915377509940176,-0.402596590019988,-2.75681745811531E-17));
#721=DIRECTION('',(-0.402596590019988,-0.915377509940176,0.));
#722=DIRECTION('',(0.915377509940176,-0.402596590019988,0.));
#723=DIRECTION('',(0.915377509940176,-0.402596590019988,2.75681745811531E-17));
#724=DIRECTION('',(0.,0.,-1.));
#725=DIRECTION('',(0.,1.02713890024942E-16,1.));
#726=DIRECTION('',(0.,-1.,1.02713890024942E-16));
#727=DIRECTION('',(-1.,0.,0.));
#728=DIRECTION('',(-6.12303176911189E-17,-1.,1.36951853366589E-16));
#729=DIRECTION('',(0.,-1.,-8.49101490872858E-15));
#730=DIRECTION('',(0.,8.49101490872858E-15,-1.));
#731=DIRECTION('',(5.19907540381478E-31,8.49101490872858E-15,-1.));
#732=DIRECTION('',(-1.,0.,0.));
#733=DIRECTION('',(0.915377509940177,-3.41845364806299E-15,0.402596590019986));
#734=DIRECTION('',(-0.402596590019986,2.46511171082848E-17,0.915377509940177));
#735=DIRECTION('',(0.915377509940177,0.,0.402596590019986));
#736=DIRECTION('',(0.915377509940177,0.,0.402596590019986));
#737=DIRECTION('',(-6.12303176911189E-17,-1.,0.));
#738=DIRECTION('',(0.,1.,-3.42379633416475E-17));
#739=DIRECTION('',(0.,3.42379633416475E-17,1.));
#740=DIRECTION('',(-1.,0.,0.));
#741=DIRECTION('',(4.19280274501192E-33,6.8475926683295E-17,1.));
#742=DIRECTION('',(0.,-1.02713890024943E-16,1.));
#743=DIRECTION('',(0.,-1.,-1.02713890024943E-16));
#744=DIRECTION('',(-6.12303176911189E-17,-1.,-1.3695185336659E-16));
#745=DIRECTION('',(-1.,0.,0.));
#746=DIRECTION('',(0.915377509940178,0.402596590019985,2.75681745811531E-17));
#747=DIRECTION('',(-0.402596590019985,0.915377509940177,0.));
#748=DIRECTION('',(-0.915377509940178,-0.402596590019985,0.));
#749=DIRECTION('',(0.915377509940178,0.402596590019985,-8.27045237434593E-17));
#750=DIRECTION('',(0.,0.,1.));
#751=DIRECTION('',(0.,-1.71189816708238E-16,-1.));
#752=DIRECTION('',(0.,1.,-1.71189816708238E-16));
#753=DIRECTION('',(-1.,0.,0.));
#754=DIRECTION('',(6.12303176911189E-17,1.,-1.3695185336659E-16));
#755=DIRECTION('',(0.,1.,3.42379633416475E-17));
#756=DIRECTION('',(0.,-3.42379633416475E-17,1.));
#757=DIRECTION('',(4.19280274501192E-33,6.8475926683295E-17,1.));
#758=DIRECTION('',(-1.,0.,0.));
#759=DIRECTION('',(-1.,0.,0.));
#760=DIRECTION('',(0.,0.,1.));
#761=DIRECTION('',(-1.,0.,0.));
#762=DIRECTION('',(0.,0.,1.));
#763=DIRECTION('',(-1.,0.,0.));
#764=DIRECTION('',(0.,0.,1.));
#765=DIRECTION('',(-1.,0.,0.));
#766=DIRECTION('',(0.,0.,1.));
#767=DIRECTION('',(-1.,0.,0.));
#768=DIRECTION('',(0.,0.,1.));
#769=DIRECTION('',(1.,0.,0.));
#770=DIRECTION('',(0.,0.,-1.));
#771=DIRECTION('',(1.,0.,0.));
#772=DIRECTION('',(0.,0.,-1.));
#773=DIRECTION('',(1.,0.,0.));
#774=DIRECTION('',(0.,0.,-1.));
#775=DIRECTION('',(1.,0.,0.));
#776=DIRECTION('',(0.,0.,-1.));
#777=CARTESIAN_POINT('',(0.,0.,0.));
#778=CARTESIAN_POINT('',(0.0730180977485994,0.,2.4935784471335E-16));
#779=CARTESIAN_POINT('',(0.8,0.,1.87424205782552E-16));
#780=CARTESIAN_POINT('',(0.8,0.,1.));
#781=CARTESIAN_POINT('',(0.0730180977485994,0.,2.4935784471335E-16));
#782=CARTESIAN_POINT('',(0.0730180977485995,0.,1.20370889474673));
#783=CARTESIAN_POINT('',(3.,0.,0.));
#784=CARTESIAN_POINT('',(4.,0.,-8.51928208102504E-17));
#785=CARTESIAN_POINT('',(4.,0.,1.));
#786=CARTESIAN_POINT('',(4.,0.,-8.51928208102504E-17));
#787=CARTESIAN_POINT('',(5.,0.,-1.70385641620501E-16));
#788=CARTESIAN_POINT('',(5.,0.,0.75));
#789=CARTESIAN_POINT('',(5.,0.,0.75));
#790=CARTESIAN_POINT('',(1.6,0.,0.));
#791=CARTESIAN_POINT('',(1.6,-0.15833333333333,-5.42101086242741E-18));
#792=CARTESIAN_POINT('',(-1.56058626769711,-0.15833333333333,0.475));
#793=CARTESIAN_POINT('',(-1.46897398349445,-0.15833333333333,0.892372816814688));
#794=CARTESIAN_POINT('',(-1.56058626769711,-0.15833333333333,0.475));
#795=CARTESIAN_POINT('',(-1.58554347312115,-0.15833333333333,0.308938103698315));
#796=CARTESIAN_POINT('',(-1.58554535758021,-0.308925564760548,0.158333333333333));
#797=CARTESIAN_POINT('',(-1.56058626769711,-0.474999999999997,0.158333333333333));
#798=CARTESIAN_POINT('',(-1.56058626769711,-0.474999999999997,0.158333333333333));
#799=CARTESIAN_POINT('',(1.6,2.71050543121376E-17,0.158333333333333));
#800=CARTESIAN_POINT('',(-1.46897398349445,-0.892372816814685,0.158333333333333));
#801=CARTESIAN_POINT('',(1.43143262513245,0.383268978646219,0.));
#802=CARTESIAN_POINT('',(-1.46897398349445,-0.892372816814685,-0.158333333333333));
#803=CARTESIAN_POINT('',(1.6,1.62630325872826E-17,-0.158333333333333));
#804=CARTESIAN_POINT('',(-1.56058626769711,-0.474999999999997,-0.158333333333333));
#805=CARTESIAN_POINT('',(-1.56058626769711,-0.474999999999997,-0.158333333333333));
#806=CARTESIAN_POINT('',(-1.58554347312115,-0.308938103698312,-0.158333333333333));
#807=CARTESIAN_POINT('',(-1.58554535758021,-0.15833333333333,-0.308925564760551));
#808=CARTESIAN_POINT('',(-1.56058626769711,-0.15833333333333,-0.475));
#809=CARTESIAN_POINT('',(-1.56058626769711,-0.15833333333333,-0.475));
#810=CARTESIAN_POINT('',(1.6,-0.15833333333333,5.42101086242741E-18));
#811=CARTESIAN_POINT('',(-1.46897398349445,-0.15833333333333,-0.892372816814688));
#812=CARTESIAN_POINT('',(1.43143262513245,1.0321433915498E-17,0.383268978646217));
#813=CARTESIAN_POINT('',(-1.46897398349445,0.158333333333336,-0.892372816814687));
#814=CARTESIAN_POINT('',(1.6,0.158333333333329,1.34441069388199E-15));
#815=CARTESIAN_POINT('',(-1.56058626769711,0.158333333333333,-0.475000000000003));
#816=CARTESIAN_POINT('',(-1.56058626769711,0.158333333333333,-0.475000000000003));
#817=CARTESIAN_POINT('',(-1.58554347312115,0.158333333333331,-0.308938103698317));
#818=CARTESIAN_POINT('',(-1.58554535758021,0.308925564760549,-0.158333333333333));
#819=CARTESIAN_POINT('',(-1.56058626769711,0.474999999999999,-0.158333333333333));
#820=CARTESIAN_POINT('',(-1.56058626769711,0.474999999999999,-0.158333333333333));
#821=CARTESIAN_POINT('',(1.6,-1.62630325872824E-17,-0.158333333333333));
#822=CARTESIAN_POINT('',(-1.46897398349445,0.89237281681469,-0.158333333333333));
#823=CARTESIAN_POINT('',(1.43143262513245,-0.383268978646223,0.));
#824=CARTESIAN_POINT('',(-1.46897398349445,0.89237281681469,0.158333333333333));
#825=CARTESIAN_POINT('',(1.6,-1.62630325872824E-17,0.158333333333333));
#826=CARTESIAN_POINT('',(-1.56058626769711,0.474999999999999,0.158333333333333));
#827=CARTESIAN_POINT('',(-1.56058626769711,0.474999999999999,0.158333333333333));
#828=CARTESIAN_POINT('',(-1.58554347312115,0.308938103698314,0.158333333333333));
#829=CARTESIAN_POINT('',(-1.58554535758021,0.158333333333331,0.308925564760553));
#830=CARTESIAN_POINT('',(-1.56058626769711,0.158333333333333,0.475000000000003));
#831=CARTESIAN_POINT('',(-1.56058626769711,0.158333333333333,0.475000000000003));
#832=CARTESIAN_POINT('',(1.6,0.158333333333329,-1.34983170474441E-15));
#833=CARTESIAN_POINT('',(-1.46897398349445,0.158333333333336,0.892372816814688));
#834=CARTESIAN_POINT('',(1.43143262513245,1.0321433915498E-17,-0.383268978646217));
#835=CARTESIAN_POINT('',(-0.897999199359361,0.,3.32081547309523E-16));
#836=CARTESIAN_POINT('',(-0.897999199359361,0.,2.));
#837=CARTESIAN_POINT('',(3.,0.,0.));
#838=CARTESIAN_POINT('',(0.,0.,2.55578462430752E-16));
#839=CARTESIAN_POINT('',(1.70385641620501E-16,0.,2.));
#840=CARTESIAN_POINT('',(2.98174872835878E-17,0.,2.));
#841=CARTESIAN_POINT('',(0.,0.,2.55578462430752E-16));
#842=CARTESIAN_POINT('',(1.10750667053326E-16,0.,1.3));
#843=CARTESIAN_POINT('',(0.1,0.,2.16840434497101E-16));
#844=CARTESIAN_POINT('',(0.0907670480056033,-5.55769518526813E-18,0.206375603886424));
#845=CARTESIAN_POINT('',(-1.6,0.158333333333337,0.95));
#846=CARTESIAN_POINT('',(-0.7,0.158333333333333,0.554166666666667));
#847=CARTESIAN_POINT('',(-0.7,-0.15833333333333,0.554166666666667));
#848=CARTESIAN_POINT('',(-0.7,-0.15833333333333,0.554166666666667));
#849=CARTESIAN_POINT('',(-1.6,-0.15833333333333,0.95));
#850=CARTESIAN_POINT('',(0.,0.158333333333329,-1.34983170474441E-15));
#851=CARTESIAN_POINT('',(0.,0.158333333333333,0.475000000000003));
#852=CARTESIAN_POINT('',(-0.7,0.158333333333333,0.475000000000003));
#853=CARTESIAN_POINT('',(-0.7,0.158333333333333,0.554166666666667));
#854=CARTESIAN_POINT('',(0.,-1.62630325872824E-17,0.158333333333333));
#855=CARTESIAN_POINT('',(-0.7,0.15833333333333,0.158333333333333));
#856=CARTESIAN_POINT('',(-0.7,0.554166666666667,0.158333333333333));
#857=CARTESIAN_POINT('',(-0.7,0.474999999999999,0.158333333333333));
#858=CARTESIAN_POINT('',(0.,0.474999999999999,0.158333333333333));
#859=CARTESIAN_POINT('',(-1.6,0.950000000000003,0.158333333333333));
#860=CARTESIAN_POINT('',(0.0907670480056029,0.206375603886422,0.));
#861=CARTESIAN_POINT('',(-1.6,0.950000000000003,-0.158333333333333));
#862=CARTESIAN_POINT('',(-0.7,0.554166666666667,-0.158333333333333));
#863=CARTESIAN_POINT('',(-0.7,0.554166666666667,0.158333333333333));
#864=CARTESIAN_POINT('',(0.,-1.62630325872824E-17,-0.158333333333333));
#865=CARTESIAN_POINT('',(0.,0.474999999999999,-0.158333333333333));
#866=CARTESIAN_POINT('',(-0.7,0.474999999999999,-0.158333333333333));
#867=CARTESIAN_POINT('',(-0.7,0.554166666666667,-0.158333333333333));
#868=CARTESIAN_POINT('',(0.,0.158333333333329,1.34441069388199E-15));
#869=CARTESIAN_POINT('',(-0.7,0.15833333333333,-0.158333333333333));
#870=CARTESIAN_POINT('',(-0.7,0.158333333333333,-0.554166666666667));
#871=CARTESIAN_POINT('',(-0.7,0.158333333333333,-0.475000000000003));
#872=CARTESIAN_POINT('',(0.,0.158333333333333,-0.475000000000003));
#873=CARTESIAN_POINT('',(-1.6,0.158333333333337,-0.95));
#874=CARTESIAN_POINT('',(0.0907670480056033,-5.55769518526813E-18,-0.206375603886424));
#875=CARTESIAN_POINT('',(-1.6,-0.15833333333333,-0.95));
#876=CARTESIAN_POINT('',(-0.7,-0.15833333333333,-0.554166666666667));
#877=CARTESIAN_POINT('',(-0.7,0.158333333333333,-0.554166666666667));
#878=CARTESIAN_POINT('',(0.,-0.15833333333333,5.42101086242741E-18));
#879=CARTESIAN_POINT('',(0.,-0.15833333333333,-0.475));
#880=CARTESIAN_POINT('',(-0.7,-0.15833333333333,-0.475));
#881=CARTESIAN_POINT('',(-0.7,-0.15833333333333,-0.554166666666667));
#882=CARTESIAN_POINT('',(0.,1.62630325872826E-17,-0.158333333333333));
#883=CARTESIAN_POINT('',(-0.7,-0.15833333333333,-0.158333333333333));
#884=CARTESIAN_POINT('',(-0.7,-0.554166666666663,-0.158333333333333));
#885=CARTESIAN_POINT('',(-0.7,-0.474999999999997,-0.158333333333333));
#886=CARTESIAN_POINT('',(0.,-0.474999999999997,-0.158333333333333));
#887=CARTESIAN_POINT('',(-1.6,-0.949999999999997,-0.158333333333333));
#888=CARTESIAN_POINT('',(0.0907670480056021,-0.206375603886422,0.));
#889=CARTESIAN_POINT('',(-1.6,-0.949999999999997,0.158333333333333));
#890=CARTESIAN_POINT('',(-0.7,-0.554166666666663,0.158333333333333));
#891=CARTESIAN_POINT('',(-0.7,-0.554166666666663,-0.158333333333333));
#892=CARTESIAN_POINT('',(0.,2.71050543121376E-17,0.158333333333333));
#893=CARTESIAN_POINT('',(0.,-0.474999999999997,0.158333333333333));
#894=CARTESIAN_POINT('',(-0.7,-0.474999999999997,0.158333333333333));
#895=CARTESIAN_POINT('',(-0.7,-0.554166666666663,0.158333333333333));
#896=CARTESIAN_POINT('',(0.,-0.15833333333333,-5.42101086242741E-18));
#897=CARTESIAN_POINT('',(-0.7,-0.15833333333333,0.158333333333333));
#898=CARTESIAN_POINT('',(-0.7,-0.15833333333333,0.475));
#899=CARTESIAN_POINT('',(0.,-0.15833333333333,0.475));
#900=CARTESIAN_POINT('',(-0.7,0.455208333333333,0.0791666666666666));
#901=CARTESIAN_POINT('',(-0.7,0.474999999999999,-0.475));
#902=CARTESIAN_POINT('',(-0.7,-0.474999999999997,-0.475));
#903=CARTESIAN_POINT('',(-0.7,-0.474999999999997,0.475));
#904=CARTESIAN_POINT('',(-0.7,0.474999999999999,0.475));
#905=CARTESIAN_POINT('',(0.,0.474999999999999,0.475));
#906=CARTESIAN_POINT('',(0.,0.474999999999999,-0.475));
#907=CARTESIAN_POINT('',(0.,-0.474999999999997,-0.475));
#908=CARTESIAN_POINT('',(0.,-0.474999999999997,0.475));
#909=MECHANICAL_DESIGN_GEOMETRIC_PRESENTATION_REPRESENTATION('',(#396,#397,
#398,#399,#400,#401,#402,#403,#404,#405,#406,#407,#408,#409,#410,#411,#412,
#413,#414,#415,#416,#417,#418,#419,#420),#910);
#910=(
GEOMETRIC_REPRESENTATION_CONTEXT(3)
GLOBAL_UNCERTAINTY_ASSIGNED_CONTEXT((#911))
GLOBAL_UNIT_ASSIGNED_CONTEXT((#914,#913,#912))
REPRESENTATION_CONTEXT('\X2\53415B5769FD76D8593481EA632487BA9489\X0\',
'TOP_LEVEL_ASSEMBLY_PART')
);
#911=UNCERTAINTY_MEASURE_WITH_UNIT(LENGTH_MEASURE(0.005),#914,
'DISTANCE_ACCURACY_VALUE','Maximum Tolerance applied to model');
#912=(
NAMED_UNIT(*)
SI_UNIT($,.STERADIAN.)
SOLID_ANGLE_UNIT()
);
#913=(
NAMED_UNIT(*)
PLANE_ANGLE_UNIT()
SI_UNIT($,.RADIAN.)
);
#914=(
LENGTH_UNIT()
NAMED_UNIT(*)
SI_UNIT(.MILLI.,.METRE.)
);
#915=PRODUCT_DEFINITION_SHAPE('','',#916);
#916=PRODUCT_DEFINITION('','',#918,#917);
#917=PRODUCT_DEFINITION_CONTEXT('',#924,'design');
#918=PRODUCT_DEFINITION_FORMATION_WITH_SPECIFIED_SOURCE('','',#920,
 .NOT_KNOWN.);
#919=PRODUCT_RELATED_PRODUCT_CATEGORY('','',(#920));
#920=PRODUCT('\X2\53415B5769FD76D8593481EA632487BA9489\X0\',
'\X2\53415B5769FD76D8593481EA632487BA9489\X0\',
'\X2\53415B5769FD76D8593481EA632487BA9489\X0\',(#922));
#921=PRODUCT_CATEGORY('','');
#922=PRODUCT_CONTEXT('',#924,'mechanical');
#923=APPLICATION_PROTOCOL_DEFINITION('international standard',
'automotive_design',2010,#924);
#924=APPLICATION_CONTEXT(
'core data for automotive mechanical design processes');
ENDSEC;
END-ISO-10303-21;
