ISO-10303-21;
HEADER;
/* Generated by software containing HOOPS Exchange Step
 * from HOOPS Exchange, Inc. (www.tiangong.cloud) 
 */

FILE_DESCRIPTION(
/* description */ ('Unknown'),
/* implementation_level */ '2;1');

FILE_NAME(
/* name */ '\X2\5F0069FD76D8593487BA9489\X0\',
/* time_stamp */ '2025-10-25T17:24:20+08:00',
/* author */ ('Unknown'),
/* organization */ ('Unknown'),
/* preprocessor_version */ 'ST-DEVELOPER v19.4',
/* originating_system */ 'TianGong',
/* authorisation */ 'Unknown');

FILE_SCHEMA (('AUTOMOTIVE_DESIGN {1 0 10303 214 3 1 1}'));
ENDSEC;

DATA;
#10=PROPERTY_DEFINITION_REPRESENTATION(#14,#12);
#11=PROPERTY_DEFINITION_REPRESENTATION(#15,#13);
#12=REPRESENTATION('',(#16),#391);
#13=REPRESENTATION('',(#17),#391);
#14=PROPERTY_DEFINITION('pmi validation property','',#396);
#15=PROPERTY_DEFINITION('pmi validation property','',#396);
#16=VALUE_REPRESENTATION_ITEM('number of annotations',COUNT_MEASURE(0.));
#17=VALUE_REPRESENTATION_ITEM('number of views',COUNT_MEASURE(0.));
#18=SHAPE_REPRESENTATION_RELATIONSHIP('','',#259,#19);
#19=ADVANCED_BREP_SHAPE_REPRESENTATION('',(#257),#391);
#20=CONICAL_SURFACE('',#278,1.49994990039568,0.0872664625997167);
#21=CYLINDRICAL_SURFACE('',#268,0.799999999999999);
#22=CYLINDRICAL_SURFACE('',#274,0.799999999999999);
#23=B_SPLINE_CURVE_WITH_KNOTS('',3,(#342,#343,#344,#345),.UNSPECIFIED.,
 .F.,.F.,(4,4),(0.00292711046589046,0.0035619520236863),.UNSPECIFIED.);
#24=B_SPLINE_CURVE_WITH_KNOTS('',3,(#349,#350,#351,#352),.UNSPECIFIED.,
 .F.,.F.,(4,4),(0.00277175135096429,0.0034069297458881),.UNSPECIFIED.);
#25=B_SPLINE_CURVE_WITH_KNOTS('',3,(#356,#357,#358,#359),.UNSPECIFIED.,
 .F.,.F.,(4,4),(0.0020751311377082,0.00271094944915832),.UNSPECIFIED.);
#26=B_SPLINE_CURVE_WITH_KNOTS('',3,(#363,#364,#365,#366),.UNSPECIFIED.,
 .F.,.F.,(4,4),(0.000457769905352401,0.00109308241756535),.UNSPECIFIED.);
#27=TOROIDAL_SURFACE('',#263,1.00185255134981,0.5);
#28=TOROIDAL_SURFACE('',#279,0.899999999999999,0.1);
#29=CIRCLE('',#262,1.00185255134981);
#30=CIRCLE('',#264,1.49994990039568);
#31=CIRCLE('',#265,1.47882215205828);
#32=CIRCLE('',#266,1.00185255134981);
#33=CIRCLE('',#267,1.47882215205828);
#34=CIRCLE('',#269,0.799999999999999);
#35=CIRCLE('',#270,0.799999999999999);
#36=CIRCLE('',#272,0.899999999999999);
#37=CIRCLE('',#273,1.6);
#38=CIRCLE('',#275,0.799999999999999);
#39=ORIENTED_EDGE('',*,*,#75,.F.);
#40=ORIENTED_EDGE('',*,*,#76,.T.);
#41=ORIENTED_EDGE('',*,*,#77,.T.);
#42=ORIENTED_EDGE('',*,*,#78,.F.);
#43=ORIENTED_EDGE('',*,*,#79,.T.);
#44=ORIENTED_EDGE('',*,*,#80,.F.);
#45=ORIENTED_EDGE('',*,*,#81,.F.);
#46=ORIENTED_EDGE('',*,*,#82,.F.);
#47=ORIENTED_EDGE('',*,*,#83,.T.);
#48=ORIENTED_EDGE('',*,*,#84,.F.);
#49=ORIENTED_EDGE('',*,*,#76,.F.);
#50=ORIENTED_EDGE('',*,*,#85,.T.);
#51=ORIENTED_EDGE('',*,*,#86,.T.);
#52=ORIENTED_EDGE('',*,*,#87,.T.);
#53=ORIENTED_EDGE('',*,*,#88,.F.);
#54=ORIENTED_EDGE('',*,*,#86,.F.);
#55=ORIENTED_EDGE('',*,*,#89,.T.);
#56=ORIENTED_EDGE('',*,*,#85,.F.);
#57=ORIENTED_EDGE('',*,*,#90,.F.);
#58=ORIENTED_EDGE('',*,*,#81,.T.);
#59=ORIENTED_EDGE('',*,*,#88,.T.);
#60=ORIENTED_EDGE('',*,*,#77,.F.);
#61=ORIENTED_EDGE('',*,*,#89,.F.);
#62=ORIENTED_EDGE('',*,*,#87,.F.);
#63=ORIENTED_EDGE('',*,*,#78,.T.);
#64=ORIENTED_EDGE('',*,*,#75,.T.);
#65=ORIENTED_EDGE('',*,*,#84,.T.);
#66=ORIENTED_EDGE('',*,*,#91,.F.);
#67=ORIENTED_EDGE('',*,*,#80,.T.);
#68=ORIENTED_EDGE('',*,*,#92,.F.);
#69=ORIENTED_EDGE('',*,*,#82,.T.);
#70=ORIENTED_EDGE('',*,*,#90,.T.);
#71=ORIENTED_EDGE('',*,*,#91,.T.);
#72=ORIENTED_EDGE('',*,*,#83,.F.);
#73=ORIENTED_EDGE('',*,*,#92,.T.);
#74=ORIENTED_EDGE('',*,*,#79,.F.);
#75=EDGE_CURVE('',#93,#94,#107,.T.);
#76=EDGE_CURVE('',#93,#94,#29,.T.);
#77=EDGE_CURVE('',#95,#95,#30,.T.);
#78=EDGE_CURVE('',#96,#93,#23,.T.);
#79=EDGE_CURVE('',#96,#97,#31,.F.);
#80=EDGE_CURVE('',#98,#97,#24,.T.);
#81=EDGE_CURVE('',#99,#98,#32,.T.);
#82=EDGE_CURVE('',#100,#99,#25,.T.);
#83=EDGE_CURVE('',#100,#101,#33,.F.);
#84=EDGE_CURVE('',#94,#101,#26,.T.);
#85=EDGE_CURVE('',#102,#102,#34,.T.);
#86=EDGE_CURVE('',#103,#103,#35,.T.);
#87=EDGE_CURVE('',#104,#104,#36,.F.);
#88=EDGE_CURVE('',#105,#105,#37,.T.);
#89=EDGE_CURVE('',#106,#106,#38,.T.);
#90=EDGE_CURVE('',#99,#98,#108,.T.);
#91=EDGE_CURVE('',#96,#101,#109,.T.);
#92=EDGE_CURVE('',#100,#97,#110,.T.);
#93=VERTEX_POINT('',#336);
#94=VERTEX_POINT('',#337);
#95=VERTEX_POINT('',#341);
#96=VERTEX_POINT('',#346);
#97=VERTEX_POINT('',#348);
#98=VERTEX_POINT('',#353);
#99=VERTEX_POINT('',#355);
#100=VERTEX_POINT('',#360);
#101=VERTEX_POINT('',#362);
#102=VERTEX_POINT('',#369);
#103=VERTEX_POINT('',#371);
#104=VERTEX_POINT('',#374);
#105=VERTEX_POINT('',#376);
#106=VERTEX_POINT('',#379);
#107=LINE('',#335,#111);
#108=LINE('',#382,#112);
#109=LINE('',#386,#113);
#110=LINE('',#388,#114);
#111=VECTOR('',#287,1000.);
#112=VECTOR('',#320,1000.);
#113=VECTOR('',#327,1000.);
#114=VECTOR('',#330,1000.);
#115=EDGE_LOOP('',(#39,#40));
#116=EDGE_LOOP('',(#41));
#117=EDGE_LOOP('',(#42,#43,#44,#45,#46,#47,#48,#49));
#118=EDGE_LOOP('',(#50));
#119=EDGE_LOOP('',(#51));
#120=EDGE_LOOP('',(#52));
#121=EDGE_LOOP('',(#53));
#122=EDGE_LOOP('',(#54));
#123=EDGE_LOOP('',(#55));
#124=EDGE_LOOP('',(#56));
#125=EDGE_LOOP('',(#57,#58));
#126=EDGE_LOOP('',(#59));
#127=EDGE_LOOP('',(#60));
#128=EDGE_LOOP('',(#61));
#129=EDGE_LOOP('',(#62));
#130=EDGE_LOOP('',(#63,#64,#65,#66));
#131=EDGE_LOOP('',(#67,#68,#69,#70));
#132=EDGE_LOOP('',(#71,#72,#73,#74));
#133=FACE_BOUND('',#115,.T.);
#134=FACE_BOUND('',#116,.T.);
#135=FACE_BOUND('',#117,.T.);
#136=FACE_BOUND('',#118,.T.);
#137=FACE_BOUND('',#119,.T.);
#138=FACE_BOUND('',#120,.T.);
#139=FACE_BOUND('',#121,.T.);
#140=FACE_BOUND('',#122,.T.);
#141=FACE_BOUND('',#123,.T.);
#142=FACE_BOUND('',#124,.T.);
#143=FACE_BOUND('',#125,.T.);
#144=FACE_BOUND('',#126,.T.);
#145=FACE_BOUND('',#127,.T.);
#146=FACE_BOUND('',#128,.T.);
#147=FACE_BOUND('',#129,.T.);
#148=FACE_BOUND('',#130,.T.);
#149=FACE_BOUND('',#131,.T.);
#150=FACE_BOUND('',#132,.T.);
#151=PLANE('',#261);
#152=PLANE('',#271);
#153=PLANE('',#276);
#154=PLANE('',#277);
#155=PLANE('',#280);
#156=PLANE('',#281);
#157=PLANE('',#282);
#158=STYLED_ITEM('',(#170),#244);
#159=STYLED_ITEM('',(#171),#245);
#160=STYLED_ITEM('',(#172),#246);
#161=STYLED_ITEM('',(#173),#247);
#162=STYLED_ITEM('',(#174),#248);
#163=STYLED_ITEM('',(#175),#249);
#164=STYLED_ITEM('',(#176),#250);
#165=STYLED_ITEM('',(#177),#251);
#166=STYLED_ITEM('',(#178),#252);
#167=STYLED_ITEM('',(#179),#253);
#168=STYLED_ITEM('',(#180),#254);
#169=STYLED_ITEM('',(#181),#255);
#170=PRESENTATION_STYLE_ASSIGNMENT((#182));
#171=PRESENTATION_STYLE_ASSIGNMENT((#183));
#172=PRESENTATION_STYLE_ASSIGNMENT((#184));
#173=PRESENTATION_STYLE_ASSIGNMENT((#185));
#174=PRESENTATION_STYLE_ASSIGNMENT((#186));
#175=PRESENTATION_STYLE_ASSIGNMENT((#187));
#176=PRESENTATION_STYLE_ASSIGNMENT((#188));
#177=PRESENTATION_STYLE_ASSIGNMENT((#189));
#178=PRESENTATION_STYLE_ASSIGNMENT((#190));
#179=PRESENTATION_STYLE_ASSIGNMENT((#191));
#180=PRESENTATION_STYLE_ASSIGNMENT((#192));
#181=PRESENTATION_STYLE_ASSIGNMENT((#193));
#182=SURFACE_STYLE_USAGE(.BOTH.,#194);
#183=SURFACE_STYLE_USAGE(.BOTH.,#195);
#184=SURFACE_STYLE_USAGE(.BOTH.,#196);
#185=SURFACE_STYLE_USAGE(.BOTH.,#197);
#186=SURFACE_STYLE_USAGE(.BOTH.,#198);
#187=SURFACE_STYLE_USAGE(.BOTH.,#199);
#188=SURFACE_STYLE_USAGE(.BOTH.,#200);
#189=SURFACE_STYLE_USAGE(.BOTH.,#201);
#190=SURFACE_STYLE_USAGE(.BOTH.,#202);
#191=SURFACE_STYLE_USAGE(.BOTH.,#203);
#192=SURFACE_STYLE_USAGE(.BOTH.,#204);
#193=SURFACE_STYLE_USAGE(.BOTH.,#205);
#194=SURFACE_SIDE_STYLE('',(#206));
#195=SURFACE_SIDE_STYLE('',(#207));
#196=SURFACE_SIDE_STYLE('',(#208));
#197=SURFACE_SIDE_STYLE('',(#209));
#198=SURFACE_SIDE_STYLE('',(#210));
#199=SURFACE_SIDE_STYLE('',(#211));
#200=SURFACE_SIDE_STYLE('',(#212));
#201=SURFACE_SIDE_STYLE('',(#213));
#202=SURFACE_SIDE_STYLE('',(#214));
#203=SURFACE_SIDE_STYLE('',(#215));
#204=SURFACE_SIDE_STYLE('',(#216));
#205=SURFACE_SIDE_STYLE('',(#217));
#206=SURFACE_STYLE_FILL_AREA(#218);
#207=SURFACE_STYLE_FILL_AREA(#219);
#208=SURFACE_STYLE_FILL_AREA(#220);
#209=SURFACE_STYLE_FILL_AREA(#221);
#210=SURFACE_STYLE_FILL_AREA(#222);
#211=SURFACE_STYLE_FILL_AREA(#223);
#212=SURFACE_STYLE_FILL_AREA(#224);
#213=SURFACE_STYLE_FILL_AREA(#225);
#214=SURFACE_STYLE_FILL_AREA(#226);
#215=SURFACE_STYLE_FILL_AREA(#227);
#216=SURFACE_STYLE_FILL_AREA(#228);
#217=SURFACE_STYLE_FILL_AREA(#229);
#218=FILL_AREA_STYLE('',(#230));
#219=FILL_AREA_STYLE('',(#231));
#220=FILL_AREA_STYLE('',(#232));
#221=FILL_AREA_STYLE('',(#233));
#222=FILL_AREA_STYLE('',(#234));
#223=FILL_AREA_STYLE('',(#235));
#224=FILL_AREA_STYLE('',(#236));
#225=FILL_AREA_STYLE('',(#237));
#226=FILL_AREA_STYLE('',(#238));
#227=FILL_AREA_STYLE('',(#239));
#228=FILL_AREA_STYLE('',(#240));
#229=FILL_AREA_STYLE('',(#241));
#230=FILL_AREA_STYLE_COLOUR('',#242);
#231=FILL_AREA_STYLE_COLOUR('',#242);
#232=FILL_AREA_STYLE_COLOUR('',#243);
#233=FILL_AREA_STYLE_COLOUR('',#242);
#234=FILL_AREA_STYLE_COLOUR('',#242);
#235=FILL_AREA_STYLE_COLOUR('',#242);
#236=FILL_AREA_STYLE_COLOUR('',#242);
#237=FILL_AREA_STYLE_COLOUR('',#242);
#238=FILL_AREA_STYLE_COLOUR('',#242);
#239=FILL_AREA_STYLE_COLOUR('',#242);
#240=FILL_AREA_STYLE_COLOUR('',#242);
#241=FILL_AREA_STYLE_COLOUR('',#242);
#242=COLOUR_RGB('',0.506983280181885,0.531564235687256,0.550000011920929);
#243=COLOUR_RGB('',0.1875,0.75,0.581249892711639);
#244=ADVANCED_FACE('',(#133),#151,.T.);
#245=ADVANCED_FACE('',(#134,#135),#27,.T.);
#246=ADVANCED_FACE('',(#136,#137),#21,.T.);
#247=ADVANCED_FACE('',(#138,#139),#152,.T.);
#248=ADVANCED_FACE('',(#140,#141),#22,.T.);
#249=ADVANCED_FACE('',(#142),#153,.T.);
#250=ADVANCED_FACE('',(#143),#154,.T.);
#251=ADVANCED_FACE('',(#144,#145),#20,.T.);
#252=ADVANCED_FACE('',(#146,#147),#28,.F.);
#253=ADVANCED_FACE('',(#148),#155,.F.);
#254=ADVANCED_FACE('',(#149),#156,.F.);
#255=ADVANCED_FACE('',(#150),#157,.T.);
#256=CLOSED_SHELL('',(#244,#245,#246,#247,#248,#249,#250,#251,#252,#253,
#254,#255));
#257=MANIFOLD_SOLID_BREP('',#256);
#258=SHAPE_DEFINITION_REPRESENTATION(#396,#259);
#259=SHAPE_REPRESENTATION('\X2\5F0069FD76D8593487BA9489\X0\',(#260),#391);
#260=AXIS2_PLACEMENT_3D('',#333,#283,#284);
#261=AXIS2_PLACEMENT_3D('',#334,#285,#286);
#262=AXIS2_PLACEMENT_3D('',#338,#288,#289);
#263=AXIS2_PLACEMENT_3D('',#339,#290,#291);
#264=AXIS2_PLACEMENT_3D('',#340,#292,#293);
#265=AXIS2_PLACEMENT_3D('',#347,#294,#295);
#266=AXIS2_PLACEMENT_3D('',#354,#296,#297);
#267=AXIS2_PLACEMENT_3D('',#361,#298,#299);
#268=AXIS2_PLACEMENT_3D('',#367,#300,#301);
#269=AXIS2_PLACEMENT_3D('',#368,#302,#303);
#270=AXIS2_PLACEMENT_3D('',#370,#304,#305);
#271=AXIS2_PLACEMENT_3D('',#372,#306,#307);
#272=AXIS2_PLACEMENT_3D('',#373,#308,#309);
#273=AXIS2_PLACEMENT_3D('',#375,#310,#311);
#274=AXIS2_PLACEMENT_3D('',#377,#312,#313);
#275=AXIS2_PLACEMENT_3D('',#378,#314,#315);
#276=AXIS2_PLACEMENT_3D('',#380,#316,#317);
#277=AXIS2_PLACEMENT_3D('',#381,#318,#319);
#278=AXIS2_PLACEMENT_3D('',#383,#321,#322);
#279=AXIS2_PLACEMENT_3D('',#384,#323,#324);
#280=AXIS2_PLACEMENT_3D('',#385,#325,#326);
#281=AXIS2_PLACEMENT_3D('',#387,#328,#329);
#282=AXIS2_PLACEMENT_3D('',#389,#331,#332);
#283=DIRECTION('',(0.,0.,1.));
#284=DIRECTION('',(1.,0.,0.));
#285=DIRECTION('',(-6.12303176911189E-17,-1.,0.));
#286=DIRECTION('',(1.,-6.12303176911189E-17,0.));
#287=DIRECTION('',(1.,0.,0.));
#288=DIRECTION('',(-6.12303176911189E-17,-1.,0.));
#289=DIRECTION('',(1.,-6.12303176911189E-17,0.));
#290=DIRECTION('',(-6.12303176911189E-17,-1.,0.));
#291=DIRECTION('',(1.,-6.12303176911189E-17,0.));
#292=DIRECTION('',(-6.12303176911189E-17,-1.,0.));
#293=DIRECTION('',(1.,-6.12303176911189E-17,0.));
#294=DIRECTION('',(0.,-1.,0.));
#295=DIRECTION('',(0.,0.,-1.));
#296=DIRECTION('',(-6.12303176911189E-17,-1.,0.));
#297=DIRECTION('',(1.,-6.12303176911189E-17,0.));
#298=DIRECTION('',(0.,-1.,0.));
#299=DIRECTION('',(0.,0.,-1.));
#300=DIRECTION('',(-6.12303176911189E-17,-1.,0.));
#301=DIRECTION('',(1.,-6.12303176911189E-17,0.));
#302=DIRECTION('',(-6.12303176911189E-17,-1.,0.));
#303=DIRECTION('',(1.,-6.12303176911189E-17,0.));
#304=DIRECTION('',(6.12303176911189E-17,1.,0.));
#305=DIRECTION('',(1.,-6.12303176911189E-17,0.));
#306=DIRECTION('',(6.12303176911189E-17,1.,0.));
#307=DIRECTION('',(-1.,6.12303176911189E-17,0.));
#308=DIRECTION('',(6.12303176911189E-17,1.,0.));
#309=DIRECTION('',(-1.,6.12303176911189E-17,0.));
#310=DIRECTION('',(-6.12303176911189E-17,-1.,0.));
#311=DIRECTION('',(1.,-6.12303176911189E-17,0.));
#312=DIRECTION('',(-6.12303176911189E-17,-1.,0.));
#313=DIRECTION('',(1.,-6.12303176911189E-17,0.));
#314=DIRECTION('',(6.12303176911189E-17,1.,0.));
#315=DIRECTION('',(-1.,6.12303176911189E-17,0.));
#316=DIRECTION('',(6.12303176911189E-17,1.,0.));
#317=DIRECTION('',(-1.,6.12303176911189E-17,0.));
#318=DIRECTION('',(-6.12303176911189E-17,-1.,0.));
#319=DIRECTION('',(1.,-6.12303176911189E-17,0.));
#320=DIRECTION('',(-1.,0.,-1.35525271560688E-16));
#321=DIRECTION('',(6.12303176911189E-17,1.,0.));
#322=DIRECTION('',(-1.,6.12303176911189E-17,0.));
#323=DIRECTION('',(6.12303176911189E-17,1.,0.));
#324=DIRECTION('',(-1.,6.12303176911189E-17,0.));
#325=DIRECTION('',(0.,0.,-1.));
#326=DIRECTION('',(-1.,0.,0.));
#327=DIRECTION('',(1.,0.,0.));
#328=DIRECTION('',(-1.35525271560688E-16,0.,1.));
#329=DIRECTION('',(1.,0.,1.35525271560688E-16));
#330=DIRECTION('',(-1.,0.,-1.35525271560688E-16));
#331=DIRECTION('',(0.,-1.,0.));
#332=DIRECTION('',(0.,0.,-1.));
#333=CARTESIAN_POINT('',(0.,0.,0.));
#334=CARTESIAN_POINT('',(0.,0.,0.));
#335=CARTESIAN_POINT('',(-1.6,0.,-0.2));
#336=CARTESIAN_POINT('',(-0.981686576584463,0.,-0.2));
#337=CARTESIAN_POINT('',(0.981686576584463,0.,-0.2));
#338=CARTESIAN_POINT('',(0.,0.,0.));
#339=CARTESIAN_POINT('',(3.06151588455594E-17,0.5,0.));
#340=CARTESIAN_POINT('',(2.79468719370372E-17,0.456422128626171,0.));
#341=CARTESIAN_POINT('',(1.49994990039568,0.456422128626171,0.));
#342=CARTESIAN_POINT('',(-1.46523546142533,0.349999999999999,-0.2));
#343=CARTESIAN_POINT('',(-1.40073865059306,0.146797449141213,-0.2));
#344=CARTESIAN_POINT('',(-1.19372861533403,-9.87730665148853E-15,-0.2));
#345=CARTESIAN_POINT('',(-0.981686576584463,-9.60143092460389E-15,-0.2));
#346=CARTESIAN_POINT('',(-1.46523546142533,0.35,-0.2));
#347=CARTESIAN_POINT('',(3.06151588455594E-17,0.35,0.));
#348=CARTESIAN_POINT('',(-1.46523546142533,0.35,0.2));
#349=CARTESIAN_POINT('',(-0.981686576584464,-1.61064497788681E-14,0.2));
#350=CARTESIAN_POINT('',(-1.19350572748918,-1.57390021251322E-14,0.2));
#351=CARTESIAN_POINT('',(-1.40117311098059,0.148166252619015,0.2));
#352=CARTESIAN_POINT('',(-1.46523546142541,0.349999999999975,0.2));
#353=CARTESIAN_POINT('',(-0.981686576584463,1.65965108656722E-33,0.2));
#354=CARTESIAN_POINT('',(0.,0.,0.));
#355=CARTESIAN_POINT('',(0.981686576584463,1.65965108656722E-33,0.2));
#356=CARTESIAN_POINT('',(1.46523546142536,0.349999999999989,0.2));
#357=CARTESIAN_POINT('',(1.40102192334111,0.147689923423953,0.2));
#358=CARTESIAN_POINT('',(1.19536409226509,-6.63193589763223E-16,0.2));
#359=CARTESIAN_POINT('',(0.981686576584464,-8.48529291133015E-16,0.2));
#360=CARTESIAN_POINT('',(1.46523546142533,0.35,0.2));
#361=CARTESIAN_POINT('',(3.06151588455594E-17,0.35,0.));
#362=CARTESIAN_POINT('',(1.46523546142533,0.35,-0.2));
#363=CARTESIAN_POINT('',(0.981686576584463,-9.37973431952564E-15,-0.2));
#364=CARTESIAN_POINT('',(1.19342673894928,-9.47156197714098E-15,-0.2));
#365=CARTESIAN_POINT('',(1.40090577415353,0.147323985776966,-0.2));
#366=CARTESIAN_POINT('',(1.46523546142534,0.349999999999997,-0.2));
#367=CARTESIAN_POINT('',(1.83690953073357E-16,3.,0.));
#368=CARTESIAN_POINT('',(7.10271685216979E-16,11.6,0.));
#369=CARTESIAN_POINT('',(0.8,11.6,0.));
#370=CARTESIAN_POINT('',(1.40829730689573E-16,2.3,0.));
#371=CARTESIAN_POINT('',(0.799999999999999,2.3,0.));
#372=CARTESIAN_POINT('',(9.79685083057902E-17,1.6,1.6));
#373=CARTESIAN_POINT('',(9.79685083057902E-17,1.6,0.));
#374=CARTESIAN_POINT('',(-0.899999999999999,1.6,0.));
#375=CARTESIAN_POINT('',(9.79685083057902E-17,1.6,0.));
#376=CARTESIAN_POINT('',(1.6,1.6,0.));
#377=CARTESIAN_POINT('',(1.83690953073357E-16,3.,0.));
#378=CARTESIAN_POINT('',(1.04091540074902E-16,1.7,0.));
#379=CARTESIAN_POINT('',(-0.799999999999999,1.7,0.));
#380=CARTESIAN_POINT('',(7.10271685216979E-16,11.6,0.799999999999999));
#381=CARTESIAN_POINT('',(0.,0.,0.));
#382=CARTESIAN_POINT('',(1.6,0.,0.2));
#383=CARTESIAN_POINT('',(2.79468719370372E-17,0.456422128626171,0.));
#384=CARTESIAN_POINT('',(1.04091540074902E-16,1.7,0.));
#385=CARTESIAN_POINT('',(-1.6,0.35,-0.2));
#386=CARTESIAN_POINT('',(-1.6,0.35,-0.2));
#387=CARTESIAN_POINT('',(1.6,0.35,0.2));
#388=CARTESIAN_POINT('',(1.6,0.35,0.2));
#389=CARTESIAN_POINT('',(0.,0.35,0.));
#390=MECHANICAL_DESIGN_GEOMETRIC_PRESENTATION_REPRESENTATION('',(#158,#159,
#160,#161,#162,#163,#164,#165,#166,#167,#168,#169),#391);
#391=(
GEOMETRIC_REPRESENTATION_CONTEXT(3)
GLOBAL_UNCERTAINTY_ASSIGNED_CONTEXT((#392))
GLOBAL_UNIT_ASSIGNED_CONTEXT((#395,#394,#393))
REPRESENTATION_CONTEXT('\X2\5F0069FD76D8593487BA9489\X0\',
'TOP_LEVEL_ASSEMBLY_PART')
);
#392=UNCERTAINTY_MEASURE_WITH_UNIT(LENGTH_MEASURE(0.005),#395,
'DISTANCE_ACCURACY_VALUE','Maximum Tolerance applied to model');
#393=(
NAMED_UNIT(*)
SI_UNIT($,.STERADIAN.)
SOLID_ANGLE_UNIT()
);
#394=(
NAMED_UNIT(*)
PLANE_ANGLE_UNIT()
SI_UNIT($,.RADIAN.)
);
#395=(
LENGTH_UNIT()
NAMED_UNIT(*)
SI_UNIT(.MILLI.,.METRE.)
);
#396=PRODUCT_DEFINITION_SHAPE('','',#397);
#397=PRODUCT_DEFINITION('','',#399,#398);
#398=PRODUCT_DEFINITION_CONTEXT('',#405,'design');
#399=PRODUCT_DEFINITION_FORMATION_WITH_SPECIFIED_SOURCE('','',#401,
 .NOT_KNOWN.);
#400=PRODUCT_RELATED_PRODUCT_CATEGORY('','',(#401));
#401=PRODUCT('\X2\5F0069FD76D8593487BA9489\X0\','\X2\5F0069FD76D8593487BA9489\X0\',
'\X2\5F0069FD76D8593487BA9489\X0\',(#403));
#402=PRODUCT_CATEGORY('','');
#403=PRODUCT_CONTEXT('',#405,'mechanical');
#404=APPLICATION_PROTOCOL_DEFINITION('international standard',
'automotive_design',2010,#405);
#405=APPLICATION_CONTEXT(
'core data for automotive mechanical design processes');
ENDSEC;
END-ISO-10303-21;
