ISO-10303-21;
HEADER;
/* Generated by software containing HOOPS Exchange Step
 * from HOOPS Exchange, Inc. (www.tiangong.cloud) 
 */

FILE_DESCRIPTION(
/* description */ ('Unknown'),
/* implementation_level */ '2;1');

FILE_NAME(
/* name */ 'GD\X2\9489\X0\ GBT18981-2008',
/* time_stamp */ '2025-12-25T09:33:48+08:00',
/* author */ ('Unknown'),
/* organization */ ('Unknown'),
/* preprocessor_version */ 'ST-DEVELOPER v19.4',
/* originating_system */ 'TianGong',
/* authorisation */ 'Unknown');

FILE_SCHEMA (('AUTOMOTIVE_DESIGN {1 0 10303 214 3 1 1}'));
ENDSEC;

DATA;
#10=PROPERTY_DEFINITION_REPRESENTATION(#14,#12);
#11=PROPERTY_DEFINITION_REPRESENTATION(#15,#13);
#12=REPRESENTATION('',(#16),#167);
#13=REPRESENTATION('',(#17),#167);
#14=PROPERTY_DEFINITION('pmi validation property','',#172);
#15=PROPERTY_DEFINITION('pmi validation property','',#172);
#16=VALUE_REPRESENTATION_ITEM('number of annotations',COUNT_MEASURE(0.));
#17=VALUE_REPRESENTATION_ITEM('number of views',COUNT_MEASURE(0.));
#18=SHAPE_REPRESENTATION_RELATIONSHIP('','',#102,#19);
#19=ADVANCED_BREP_SHAPE_REPRESENTATION('',(#100),#167);
#20=PLANE('',#110);
#21=PLANE('',#114);
#22=VERTEX_LOOP('',#47);
#23=CYLINDRICAL_SURFACE('',#107,2.75);
#24=CYLINDRICAL_SURFACE('',#112,4.);
#25=CYLINDRICAL_SURFACE('',#116,3.60000000000001);
#26=ORIENTED_EDGE('',*,*,#38,.F.);
#27=ORIENTED_EDGE('',*,*,#39,.T.);
#28=ORIENTED_EDGE('',*,*,#40,.F.);
#29=ORIENTED_EDGE('',*,*,#38,.T.);
#30=ORIENTED_EDGE('',*,*,#40,.T.);
#31=ORIENTED_EDGE('',*,*,#41,.F.);
#32=ORIENTED_EDGE('',*,*,#42,.F.);
#33=ORIENTED_EDGE('',*,*,#41,.T.);
#34=ORIENTED_EDGE('',*,*,#43,.F.);
#35=ORIENTED_EDGE('',*,*,#42,.T.);
#36=ORIENTED_EDGE('',*,*,#39,.F.);
#37=ORIENTED_EDGE('',*,*,#43,.T.);
#38=EDGE_CURVE('',#44,#44,#51,.T.);
#39=EDGE_CURVE('',#45,#45,#52,.T.);
#40=EDGE_CURVE('',#46,#46,#53,.T.);
#41=EDGE_CURVE('',#48,#48,#54,.T.);
#42=EDGE_CURVE('',#49,#49,#55,.T.);
#43=EDGE_CURVE('',#50,#50,#56,.T.);
#44=VERTEX_POINT('',#148);
#45=VERTEX_POINT('',#150);
#46=VERTEX_POINT('',#153);
#47=VERTEX_POINT('',#155);
#48=VERTEX_POINT('',#158);
#49=VERTEX_POINT('',#161);
#50=VERTEX_POINT('',#164);
#51=CIRCLE('',#105,2.75);
#52=CIRCLE('',#106,3.60000000000001);
#53=CIRCLE('',#108,2.75);
#54=CIRCLE('',#111,4.);
#55=CIRCLE('',#113,4.);
#56=CIRCLE('',#115,3.60000000000001);
#57=EDGE_LOOP('',(#26));
#58=EDGE_LOOP('',(#27));
#59=EDGE_LOOP('',(#28));
#60=EDGE_LOOP('',(#29));
#61=EDGE_LOOP('',(#30));
#62=EDGE_LOOP('',(#31));
#63=EDGE_LOOP('',(#32));
#64=EDGE_LOOP('',(#33));
#65=EDGE_LOOP('',(#34));
#66=EDGE_LOOP('',(#35));
#67=EDGE_LOOP('',(#36));
#68=EDGE_LOOP('',(#37));
#69=FACE_BOUND('',#57,.T.);
#70=FACE_BOUND('',#58,.T.);
#71=FACE_BOUND('',#59,.T.);
#72=FACE_BOUND('',#60,.T.);
#73=FACE_BOUND('',#22,.T.);
#74=FACE_BOUND('',#61,.T.);
#75=FACE_BOUND('',#62,.T.);
#76=FACE_BOUND('',#63,.T.);
#77=FACE_BOUND('',#64,.T.);
#78=FACE_BOUND('',#65,.T.);
#79=FACE_BOUND('',#66,.T.);
#80=FACE_BOUND('',#67,.T.);
#81=FACE_BOUND('',#68,.T.);
#82=CONICAL_SURFACE('',#104,3.60000000000001,0.785398163397448);
#83=CONICAL_SURFACE('',#109,2.75,0.523598775598299);
#84=ADVANCED_FACE('',(#69,#70),#82,.T.);
#85=ADVANCED_FACE('',(#71,#72),#23,.T.);
#86=ADVANCED_FACE('',(#73,#74),#83,.T.);
#87=ADVANCED_FACE('',(#75),#20,.F.);
#88=ADVANCED_FACE('',(#76,#77),#24,.T.);
#89=ADVANCED_FACE('',(#78,#79),#21,.F.);
#90=ADVANCED_FACE('',(#80,#81),#25,.T.);
#91=CLOSED_SHELL('',(#84,#85,#86,#87,#88,#89,#90));
#92=STYLED_ITEM('',(#93),#100);
#93=PRESENTATION_STYLE_ASSIGNMENT((#94));
#94=SURFACE_STYLE_USAGE(.BOTH.,#95);
#95=SURFACE_SIDE_STYLE('',(#96));
#96=SURFACE_STYLE_FILL_AREA(#97);
#97=FILL_AREA_STYLE('',(#98));
#98=FILL_AREA_STYLE_COLOUR('',#99);
#99=COLOUR_RGB('',0.506983280181885,0.531564235687256,0.550000011920929);
#100=MANIFOLD_SOLID_BREP('',#91);
#101=SHAPE_DEFINITION_REPRESENTATION(#172,#102);
#102=SHAPE_REPRESENTATION('GD\X2\9489\X0\ GBT18981-2008',(#103),#167);
#103=AXIS2_PLACEMENT_3D('',#145,#117,#118);
#104=AXIS2_PLACEMENT_3D('',#146,#119,#120);
#105=AXIS2_PLACEMENT_3D('',#147,#121,#122);
#106=AXIS2_PLACEMENT_3D('',#149,#123,#124);
#107=AXIS2_PLACEMENT_3D('',#151,#125,#126);
#108=AXIS2_PLACEMENT_3D('',#152,#127,#128);
#109=AXIS2_PLACEMENT_3D('',#154,#129,#130);
#110=AXIS2_PLACEMENT_3D('',#156,#131,#132);
#111=AXIS2_PLACEMENT_3D('',#157,#133,#134);
#112=AXIS2_PLACEMENT_3D('',#159,#135,#136);
#113=AXIS2_PLACEMENT_3D('',#160,#137,#138);
#114=AXIS2_PLACEMENT_3D('',#162,#139,#140);
#115=AXIS2_PLACEMENT_3D('',#163,#141,#142);
#116=AXIS2_PLACEMENT_3D('',#165,#143,#144);
#117=DIRECTION('',(0.,0.,1.));
#118=DIRECTION('',(1.,0.,0.));
#119=DIRECTION('',(1.,0.,0.));
#120=DIRECTION('',(0.,0.,-1.));
#121=DIRECTION('',(-1.,0.,0.));
#122=DIRECTION('',(0.,0.,1.));
#123=DIRECTION('',(-1.,0.,0.));
#124=DIRECTION('',(0.,0.,1.));
#125=DIRECTION('',(-1.,0.,0.));
#126=DIRECTION('',(0.,0.,1.));
#127=DIRECTION('',(-1.,0.,0.));
#128=DIRECTION('',(0.,0.,1.));
#129=DIRECTION('',(1.,0.,0.));
#130=DIRECTION('',(0.,0.,-1.));
#131=DIRECTION('',(-1.,0.,0.));
#132=DIRECTION('',(0.,0.,1.));
#133=DIRECTION('',(-1.,0.,0.));
#134=DIRECTION('',(0.,0.,1.));
#135=DIRECTION('',(-1.,0.,0.));
#136=DIRECTION('',(0.,0.,1.));
#137=DIRECTION('',(-1.,0.,0.));
#138=DIRECTION('',(0.,0.,1.));
#139=DIRECTION('',(1.,0.,0.));
#140=DIRECTION('',(0.,0.,-1.));
#141=DIRECTION('',(-1.,0.,0.));
#142=DIRECTION('',(0.,0.,1.));
#143=DIRECTION('',(-1.,0.,0.));
#144=DIRECTION('',(0.,0.,1.));
#145=CARTESIAN_POINT('',(0.,0.,0.));
#146=CARTESIAN_POINT('',(-6.75,0.,0.));
#147=CARTESIAN_POINT('',(-7.60000000000001,0.,0.));
#148=CARTESIAN_POINT('',(-7.60000000000001,0.,2.75));
#149=CARTESIAN_POINT('',(-6.75,0.,0.));
#150=CARTESIAN_POINT('',(-6.75,0.,3.60000000000001));
#151=CARTESIAN_POINT('',(0.,0.,0.));
#152=CARTESIAN_POINT('',(-40.2368602791856,0.,0.));
#153=CARTESIAN_POINT('',(-40.2368602791856,0.,2.75));
#154=CARTESIAN_POINT('',(-40.2368602791856,0.,0.));
#155=CARTESIAN_POINT('',(-45.,0.,-4.33680868994202E-16));
#156=CARTESIAN_POINT('',(0.,0.,0.));
#157=CARTESIAN_POINT('',(0.,0.,0.));
#158=CARTESIAN_POINT('',(0.,0.,4.));
#159=CARTESIAN_POINT('',(0.,0.,0.));
#160=CARTESIAN_POINT('',(-2.25,0.,0.));
#161=CARTESIAN_POINT('',(-2.25,0.,4.));
#162=CARTESIAN_POINT('',(-2.25,0.,4.));
#163=CARTESIAN_POINT('',(-2.25,0.,0.));
#164=CARTESIAN_POINT('',(-2.25,0.,3.60000000000001));
#165=CARTESIAN_POINT('',(0.,0.,0.));
#166=MECHANICAL_DESIGN_GEOMETRIC_PRESENTATION_REPRESENTATION('',(#92),#167);
#167=(
GEOMETRIC_REPRESENTATION_CONTEXT(3)
GLOBAL_UNCERTAINTY_ASSIGNED_CONTEXT((#168))
GLOBAL_UNIT_ASSIGNED_CONTEXT((#171,#170,#169))
REPRESENTATION_CONTEXT('GD\X2\9489\X0\ GBT18981-2008',
'TOP_LEVEL_ASSEMBLY_PART')
);
#168=UNCERTAINTY_MEASURE_WITH_UNIT(LENGTH_MEASURE(0.005),#171,
'DISTANCE_ACCURACY_VALUE','Maximum Tolerance applied to model');
#169=(
NAMED_UNIT(*)
SI_UNIT($,.STERADIAN.)
SOLID_ANGLE_UNIT()
);
#170=(
NAMED_UNIT(*)
PLANE_ANGLE_UNIT()
SI_UNIT($,.RADIAN.)
);
#171=(
LENGTH_UNIT()
NAMED_UNIT(*)
SI_UNIT(.MILLI.,.METRE.)
);
#172=PRODUCT_DEFINITION_SHAPE('','',#173);
#173=PRODUCT_DEFINITION('','',#175,#174);
#174=PRODUCT_DEFINITION_CONTEXT('',#181,'design');
#175=PRODUCT_DEFINITION_FORMATION_WITH_SPECIFIED_SOURCE('','',#177,
 .NOT_KNOWN.);
#176=PRODUCT_RELATED_PRODUCT_CATEGORY('','',(#177));
#177=PRODUCT('GD\X2\9489\X0\ GBT18981-2008','GD\X2\9489\X0\ GBT18981-2
008','GD\X2\9489\X0\ GBT18981-2008',(#179));
#178=PRODUCT_CATEGORY('','');
#179=PRODUCT_CONTEXT('',#181,'mechanical');
#180=APPLICATION_PROTOCOL_DEFINITION('international standard',
'automotive_design',2010,#181);
#181=APPLICATION_CONTEXT(
'core data for automotive mechanical design processes');
ENDSEC;
END-ISO-10303-21;
