ISO-10303-21;
HEADER;
/* Generated by software containing HOOPS Exchange Step
 * from HOOPS Exchange, Inc. (www.tiangong.cloud) 
 */

FILE_DESCRIPTION(
/* description */ ('Unknown'),
/* implementation_level */ '2;1');

FILE_NAME(
/* name */ '\X2\65B959345E737AEF7D275B9A87BA9489\X0\ 2018',
/* time_stamp */ '2025-12-25T09:03:02+08:00',
/* author */ ('Unknown'),
/* organization */ ('Unknown'),
/* preprocessor_version */ 'ST-DEVELOPER v19.4',
/* originating_system */ 'TianGong',
/* authorisation */ 'Unknown');

FILE_SCHEMA (('AUTOMOTIVE_DESIGN {1 0 10303 214 3 1 1}'));
ENDSEC;

DATA;
#10=PROPERTY_DEFINITION_REPRESENTATION(#14,#12);
#11=PROPERTY_DEFINITION_REPRESENTATION(#15,#13);
#12=REPRESENTATION('',(#16),#1219);
#13=REPRESENTATION('',(#17),#1219);
#14=PROPERTY_DEFINITION('pmi validation property','',#1224);
#15=PROPERTY_DEFINITION('pmi validation property','',#1224);
#16=VALUE_REPRESENTATION_ITEM('number of annotations',COUNT_MEASURE(0.));
#17=VALUE_REPRESENTATION_ITEM('number of views',COUNT_MEASURE(0.));
#18=SHAPE_REPRESENTATION_RELATIONSHIP('','',#731,#19);
#19=ADVANCED_BREP_SHAPE_REPRESENTATION('',(#729),#1219);
#20=TOROIDAL_SURFACE('',#758,2.69999999999999,0.2);
#21=TOROIDAL_SURFACE('',#761,2.69999999999999,0.2);
#22=TOROIDAL_SURFACE('',#764,2.69999999999999,0.2);
#23=TOROIDAL_SURFACE('',#767,2.69999999999999,0.2);
#24=(
BOUNDED_SURFACE()
B_SPLINE_SURFACE(3,2,((#1071,#1072,#1073),(#1074,#1075,#1076),(#1077,#1078,
#1079),(#1080,#1081,#1082),(#1083,#1084,#1085)),.UNSPECIFIED.,.F.,.F.,.F.)
B_SPLINE_SURFACE_WITH_KNOTS((4,1,4),(3,3),(0.000528882521568133,0.00106972047611612,
0.0016105584306641),(0.,1.),.UNSPECIFIED.)
GEOMETRIC_REPRESENTATION_ITEM()
RATIONAL_B_SPLINE_SURFACE(((1.,0.707106781186548,1.),(1.,0.817431932379194,
1.),(1.,0.956547796446174,1.),(1.,1.00000000006357,1.),(1.,1.,1.)))
REPRESENTATION_ITEM('')
SURFACE()
);
#25=(
BOUNDED_SURFACE()
B_SPLINE_SURFACE(3,2,((#1089,#1090,#1091),(#1092,#1093,#1094),(#1095,#1096,
#1097),(#1098,#1099,#1100),(#1101,#1102,#1103)),.UNSPECIFIED.,.F.,.F.,.F.)
B_SPLINE_SURFACE_WITH_KNOTS((4,1,4),(3,3),(0.000528882521568324,0.00106972047611655,
0.00161055843066477),(0.,1.),.UNSPECIFIED.)
GEOMETRIC_REPRESENTATION_ITEM()
RATIONAL_B_SPLINE_SURFACE(((1.,0.707106781186547,1.),(1.,0.817431932379323,
1.),(1.,0.956547796446101,1.),(1.,1.00000000006357,1.),(1.,1.,1.)))
REPRESENTATION_ITEM('')
SURFACE()
);
#26=(
BOUNDED_SURFACE()
B_SPLINE_SURFACE(3,2,((#1104,#1105,#1106),(#1107,#1108,#1109),(#1110,#1111,
#1112),(#1113,#1114,#1115),(#1116,#1117,#1118)),.UNSPECIFIED.,.F.,.F.,.F.)
B_SPLINE_SURFACE_WITH_KNOTS((4,1,4),(3,3),(0.000528882521568135,0.00106972047611611,
0.0016105584306641),(0.,1.),.UNSPECIFIED.)
GEOMETRIC_REPRESENTATION_ITEM()
RATIONAL_B_SPLINE_SURFACE(((1.,0.707106781186549,1.),(1.,0.817431932378986,
1.),(1.,0.956547796446275,1.),(1.,1.00000000006357,1.),(1.,1.,1.)))
REPRESENTATION_ITEM('')
SURFACE()
);
#27=(
BOUNDED_SURFACE()
B_SPLINE_SURFACE(3,2,((#1122,#1123,#1124),(#1125,#1126,#1127),(#1128,#1129,
#1130),(#1131,#1132,#1133),(#1134,#1135,#1136)),.UNSPECIFIED.,.F.,.F.,.F.)
B_SPLINE_SURFACE_WITH_KNOTS((4,1,4),(3,3),(0.00052888252156832,0.00106972047611655,
0.00161055843066479),(0.,1.),.UNSPECIFIED.)
GEOMETRIC_REPRESENTATION_ITEM()
RATIONAL_B_SPLINE_SURFACE(((1.,0.707106781186548,1.),(1.,0.817431932379267,
1.),(1.,0.956547796446138,1.),(1.,1.00000000006358,1.),(1.,1.,1.)))
REPRESENTATION_ITEM('')
SURFACE()
);
#28=(
BOUNDED_SURFACE()
B_SPLINE_SURFACE(3,2,((#1137,#1138,#1139),(#1140,#1141,#1142),(#1143,#1144,
#1145),(#1146,#1147,#1148),(#1149,#1150,#1151)),.UNSPECIFIED.,.F.,.F.,.F.)
B_SPLINE_SURFACE_WITH_KNOTS((4,1,4),(3,3),(0.000528882521568127,0.00106972047611612,
0.00161055843066411),(0.,1.),.UNSPECIFIED.)
GEOMETRIC_REPRESENTATION_ITEM()
RATIONAL_B_SPLINE_SURFACE(((1.,0.707106781186547,1.),(1.,0.817431932379254,
1.),(1.,0.956547796446157,1.),(1.,1.00000000006356,1.),(1.,1.,1.)))
REPRESENTATION_ITEM('')
SURFACE()
);
#29=(
BOUNDED_SURFACE()
B_SPLINE_SURFACE(3,2,((#1155,#1156,#1157),(#1158,#1159,#1160),(#1161,#1162,
#1163),(#1164,#1165,#1166),(#1167,#1168,#1169)),.UNSPECIFIED.,.F.,.F.,.F.)
B_SPLINE_SURFACE_WITH_KNOTS((4,1,4),(3,3),(0.000528882521568322,0.00106972047611655,
0.00161055843066477),(0.,1.),.UNSPECIFIED.)
GEOMETRIC_REPRESENTATION_ITEM()
RATIONAL_B_SPLINE_SURFACE(((1.,0.707106781186548,1.),(1.,0.817431932379225,
1.),(1.,0.956547796446159,1.),(1.,1.00000000006356,1.),(1.,1.,1.)))
REPRESENTATION_ITEM('')
SURFACE()
);
#30=(
BOUNDED_SURFACE()
B_SPLINE_SURFACE(3,2,((#1170,#1171,#1172),(#1173,#1174,#1175),(#1176,#1177,
#1178),(#1179,#1180,#1181),(#1182,#1183,#1184)),.UNSPECIFIED.,.F.,.F.,.F.)
B_SPLINE_SURFACE_WITH_KNOTS((4,1,4),(3,3),(0.00052888252156813,0.00106972047611612,
0.00161055843066412),(0.,1.),.UNSPECIFIED.)
GEOMETRIC_REPRESENTATION_ITEM()
RATIONAL_B_SPLINE_SURFACE(((1.,0.707106781186548,1.),(1.,0.817431932379107,
1.),(1.,0.956547796446237,1.),(1.,1.00000000006355,1.),(1.,1.,1.)))
REPRESENTATION_ITEM('')
SURFACE()
);
#31=(
BOUNDED_SURFACE()
B_SPLINE_SURFACE(3,2,((#1188,#1189,#1190),(#1191,#1192,#1193),(#1194,#1195,
#1196),(#1197,#1198,#1199),(#1200,#1201,#1202)),.UNSPECIFIED.,.F.,.F.,.F.)
B_SPLINE_SURFACE_WITH_KNOTS((4,1,4),(3,3),(0.000528882521568321,0.00106972047611655,
0.00161055843066478),(0.,1.),.UNSPECIFIED.)
GEOMETRIC_REPRESENTATION_ITEM()
RATIONAL_B_SPLINE_SURFACE(((1.,0.707106781186548,1.),(1.,0.817431932379227,
1.),(1.,0.956547796446171,1.),(1.,1.00000000006355,1.),(1.,1.,1.)))
REPRESENTATION_ITEM('')
SURFACE()
);
#32=CONICAL_SURFACE('',#743,2.50000000000001,1.0471975511966);
#33=CONICAL_SURFACE('',#748,2.50000000000001,1.0471975511966);
#34=CONICAL_SURFACE('',#753,2.50000000000001,1.0471975511966);
#35=CONICAL_SURFACE('',#769,2.50000000000001,1.0471975511966);
#36=CONICAL_SURFACE('',#776,2.49999999999999,0.785398163397452);
#37=LINE('',#960,#65);
#38=LINE('',#962,#66);
#39=LINE('',#964,#67);
#40=LINE('',#965,#68);
#41=LINE('',#967,#69);
#42=LINE('',#969,#70);
#43=LINE('',#976,#71);
#44=LINE('',#979,#72);
#45=LINE('',#981,#73);
#46=LINE('',#982,#74);
#47=LINE('',#984,#75);
#48=LINE('',#986,#76);
#49=LINE('',#998,#77);
#50=LINE('',#1013,#78);
#51=LINE('',#1015,#79);
#52=LINE('',#1017,#80);
#53=LINE('',#1018,#81);
#54=LINE('',#1020,#82);
#55=LINE('',#1022,#83);
#56=LINE('',#1029,#84);
#57=LINE('',#1038,#85);
#58=LINE('',#1051,#86);
#59=LINE('',#1053,#87);
#60=LINE('',#1055,#88);
#61=LINE('',#1056,#89);
#62=LINE('',#1058,#90);
#63=LINE('',#1060,#91);
#64=LINE('',#1069,#92);
#65=VECTOR('',#795,1000.);
#66=VECTOR('',#796,1000.);
#67=VECTOR('',#797,1000.);
#68=VECTOR('',#798,1000.);
#69=VECTOR('',#799,1000.);
#70=VECTOR('',#800,1000.);
#71=VECTOR('',#803,1000.);
#72=VECTOR('',#804,1000.);
#73=VECTOR('',#805,1000.);
#74=VECTOR('',#806,1000.);
#75=VECTOR('',#807,1000.);
#76=VECTOR('',#808,1000.);
#77=VECTOR('',#811,1000.);
#78=VECTOR('',#820,1000.);
#79=VECTOR('',#821,1000.);
#80=VECTOR('',#822,1000.);
#81=VECTOR('',#823,1000.);
#82=VECTOR('',#824,1000.);
#83=VECTOR('',#825,1000.);
#84=VECTOR('',#828,1000.);
#85=VECTOR('',#837,1000.);
#86=VECTOR('',#838,1000.);
#87=VECTOR('',#839,1000.);
#88=VECTOR('',#840,1000.);
#89=VECTOR('',#841,1000.);
#90=VECTOR('',#842,1000.);
#91=VECTOR('',#845,1000.);
#92=VECTOR('',#854,1000.);
#93=PLANE('',#739);
#94=PLANE('',#740);
#95=PLANE('',#741);
#96=PLANE('',#745);
#97=PLANE('',#746);
#98=PLANE('',#750);
#99=PLANE('',#751);
#100=PLANE('',#755);
#101=PLANE('',#771);
#102=PLANE('',#772);
#103=PLANE('',#773);
#104=PLANE('',#774);
#105=PLANE('',#775);
#106=PLANE('',#778);
#107=CIRCLE('',#734,2.49999999999999);
#108=CIRCLE('',#735,2.49999999999999);
#109=CIRCLE('',#736,2.49999999999999);
#110=CIRCLE('',#737,2.49999999999999);
#111=CIRCLE('',#738,2.49999999999999);
#112=CIRCLE('',#742,2.69999999999999);
#113=CIRCLE('',#744,2.50000000000001);
#114=CIRCLE('',#747,2.69999999999999);
#115=CIRCLE('',#749,2.50000000000001);
#116=CIRCLE('',#752,2.69999999999999);
#117=CIRCLE('',#754,2.50000000000001);
#118=CIRCLE('',#756,2.69999999999999);
#119=CIRCLE('',#757,0.2);
#120=CIRCLE('',#759,0.2);
#121=CIRCLE('',#760,0.2);
#122=CIRCLE('',#762,0.2);
#123=CIRCLE('',#763,0.2);
#124=CIRCLE('',#765,0.2);
#125=CIRCLE('',#766,0.2);
#126=CIRCLE('',#768,0.2);
#127=CIRCLE('',#770,2.50000000000001);
#128=CIRCLE('',#777,2.09999999999999);
#129=ORIENTED_EDGE('',*,*,#269,.T.);
#130=ORIENTED_EDGE('',*,*,#270,.T.);
#131=ORIENTED_EDGE('',*,*,#271,.T.);
#132=ORIENTED_EDGE('',*,*,#272,.T.);
#133=ORIENTED_EDGE('',*,*,#273,.T.);
#134=ORIENTED_EDGE('',*,*,#274,.T.);
#135=ORIENTED_EDGE('',*,*,#275,.T.);
#136=ORIENTED_EDGE('',*,*,#276,.T.);
#137=ORIENTED_EDGE('',*,*,#277,.T.);
#138=ORIENTED_EDGE('',*,*,#278,.T.);
#139=ORIENTED_EDGE('',*,*,#279,.T.);
#140=ORIENTED_EDGE('',*,*,#280,.T.);
#141=ORIENTED_EDGE('',*,*,#281,.T.);
#142=ORIENTED_EDGE('',*,*,#282,.T.);
#143=ORIENTED_EDGE('',*,*,#283,.F.);
#144=ORIENTED_EDGE('',*,*,#284,.T.);
#145=ORIENTED_EDGE('',*,*,#285,.T.);
#146=ORIENTED_EDGE('',*,*,#286,.T.);
#147=ORIENTED_EDGE('',*,*,#287,.T.);
#148=ORIENTED_EDGE('',*,*,#288,.T.);
#149=ORIENTED_EDGE('',*,*,#289,.T.);
#150=ORIENTED_EDGE('',*,*,#290,.F.);
#151=ORIENTED_EDGE('',*,*,#291,.T.);
#152=ORIENTED_EDGE('',*,*,#292,.T.);
#153=ORIENTED_EDGE('',*,*,#293,.T.);
#154=ORIENTED_EDGE('',*,*,#294,.T.);
#155=ORIENTED_EDGE('',*,*,#295,.T.);
#156=ORIENTED_EDGE('',*,*,#296,.T.);
#157=ORIENTED_EDGE('',*,*,#297,.T.);
#158=ORIENTED_EDGE('',*,*,#298,.F.);
#159=ORIENTED_EDGE('',*,*,#294,.F.);
#160=ORIENTED_EDGE('',*,*,#299,.T.);
#161=ORIENTED_EDGE('',*,*,#284,.F.);
#162=ORIENTED_EDGE('',*,*,#296,.F.);
#163=ORIENTED_EDGE('',*,*,#300,.T.);
#164=ORIENTED_EDGE('',*,*,#282,.F.);
#165=ORIENTED_EDGE('',*,*,#301,.F.);
#166=ORIENTED_EDGE('',*,*,#302,.T.);
#167=ORIENTED_EDGE('',*,*,#303,.F.);
#168=ORIENTED_EDGE('',*,*,#304,.T.);
#169=ORIENTED_EDGE('',*,*,#305,.T.);
#170=ORIENTED_EDGE('',*,*,#306,.T.);
#171=ORIENTED_EDGE('',*,*,#307,.T.);
#172=ORIENTED_EDGE('',*,*,#308,.T.);
#173=ORIENTED_EDGE('',*,*,#309,.T.);
#174=ORIENTED_EDGE('',*,*,#310,.F.);
#175=ORIENTED_EDGE('',*,*,#287,.F.);
#176=ORIENTED_EDGE('',*,*,#311,.T.);
#177=ORIENTED_EDGE('',*,*,#304,.F.);
#178=ORIENTED_EDGE('',*,*,#289,.F.);
#179=ORIENTED_EDGE('',*,*,#312,.T.);
#180=ORIENTED_EDGE('',*,*,#302,.F.);
#181=ORIENTED_EDGE('',*,*,#313,.F.);
#182=ORIENTED_EDGE('',*,*,#314,.T.);
#183=ORIENTED_EDGE('',*,*,#315,.T.);
#184=ORIENTED_EDGE('',*,*,#316,.T.);
#185=ORIENTED_EDGE('',*,*,#317,.F.);
#186=ORIENTED_EDGE('',*,*,#318,.T.);
#187=ORIENTED_EDGE('',*,*,#319,.T.);
#188=ORIENTED_EDGE('',*,*,#320,.T.);
#189=ORIENTED_EDGE('',*,*,#321,.T.);
#190=ORIENTED_EDGE('',*,*,#322,.F.);
#191=ORIENTED_EDGE('',*,*,#307,.F.);
#192=ORIENTED_EDGE('',*,*,#323,.T.);
#193=ORIENTED_EDGE('',*,*,#318,.F.);
#194=ORIENTED_EDGE('',*,*,#309,.F.);
#195=ORIENTED_EDGE('',*,*,#324,.T.);
#196=ORIENTED_EDGE('',*,*,#316,.F.);
#197=ORIENTED_EDGE('',*,*,#325,.F.);
#198=ORIENTED_EDGE('',*,*,#291,.F.);
#199=ORIENTED_EDGE('',*,*,#326,.T.);
#200=ORIENTED_EDGE('',*,*,#321,.F.);
#201=ORIENTED_EDGE('',*,*,#327,.T.);
#202=ORIENTED_EDGE('',*,*,#272,.F.);
#203=ORIENTED_EDGE('',*,*,#319,.F.);
#204=ORIENTED_EDGE('',*,*,#328,.F.);
#205=ORIENTED_EDGE('',*,*,#328,.T.);
#206=ORIENTED_EDGE('',*,*,#323,.F.);
#207=ORIENTED_EDGE('',*,*,#329,.F.);
#208=ORIENTED_EDGE('',*,*,#273,.F.);
#209=ORIENTED_EDGE('',*,*,#306,.F.);
#210=ORIENTED_EDGE('',*,*,#274,.F.);
#211=ORIENTED_EDGE('',*,*,#329,.T.);
#212=ORIENTED_EDGE('',*,*,#275,.F.);
#213=ORIENTED_EDGE('',*,*,#305,.F.);
#214=ORIENTED_EDGE('',*,*,#330,.F.);
#215=ORIENTED_EDGE('',*,*,#330,.T.);
#216=ORIENTED_EDGE('',*,*,#311,.F.);
#217=ORIENTED_EDGE('',*,*,#331,.F.);
#218=ORIENTED_EDGE('',*,*,#276,.F.);
#219=ORIENTED_EDGE('',*,*,#286,.F.);
#220=ORIENTED_EDGE('',*,*,#277,.F.);
#221=ORIENTED_EDGE('',*,*,#331,.T.);
#222=ORIENTED_EDGE('',*,*,#269,.F.);
#223=ORIENTED_EDGE('',*,*,#292,.F.);
#224=ORIENTED_EDGE('',*,*,#332,.F.);
#225=ORIENTED_EDGE('',*,*,#332,.T.);
#226=ORIENTED_EDGE('',*,*,#327,.F.);
#227=ORIENTED_EDGE('',*,*,#333,.F.);
#228=ORIENTED_EDGE('',*,*,#270,.F.);
#229=ORIENTED_EDGE('',*,*,#320,.F.);
#230=ORIENTED_EDGE('',*,*,#271,.F.);
#231=ORIENTED_EDGE('',*,*,#333,.T.);
#232=ORIENTED_EDGE('',*,*,#278,.F.);
#233=ORIENTED_EDGE('',*,*,#285,.F.);
#234=ORIENTED_EDGE('',*,*,#334,.F.);
#235=ORIENTED_EDGE('',*,*,#334,.T.);
#236=ORIENTED_EDGE('',*,*,#299,.F.);
#237=ORIENTED_EDGE('',*,*,#335,.F.);
#238=ORIENTED_EDGE('',*,*,#279,.F.);
#239=ORIENTED_EDGE('',*,*,#293,.F.);
#240=ORIENTED_EDGE('',*,*,#280,.F.);
#241=ORIENTED_EDGE('',*,*,#335,.T.);
#242=ORIENTED_EDGE('',*,*,#336,.F.);
#243=ORIENTED_EDGE('',*,*,#297,.F.);
#244=ORIENTED_EDGE('',*,*,#337,.F.);
#245=ORIENTED_EDGE('',*,*,#315,.F.);
#246=ORIENTED_EDGE('',*,*,#301,.T.);
#247=ORIENTED_EDGE('',*,*,#313,.T.);
#248=ORIENTED_EDGE('',*,*,#325,.T.);
#249=ORIENTED_EDGE('',*,*,#337,.T.);
#250=ORIENTED_EDGE('',*,*,#322,.T.);
#251=ORIENTED_EDGE('',*,*,#317,.T.);
#252=ORIENTED_EDGE('',*,*,#324,.F.);
#253=ORIENTED_EDGE('',*,*,#308,.F.);
#254=ORIENTED_EDGE('',*,*,#310,.T.);
#255=ORIENTED_EDGE('',*,*,#303,.T.);
#256=ORIENTED_EDGE('',*,*,#312,.F.);
#257=ORIENTED_EDGE('',*,*,#288,.F.);
#258=ORIENTED_EDGE('',*,*,#298,.T.);
#259=ORIENTED_EDGE('',*,*,#283,.T.);
#260=ORIENTED_EDGE('',*,*,#300,.F.);
#261=ORIENTED_EDGE('',*,*,#295,.F.);
#262=ORIENTED_EDGE('',*,*,#290,.T.);
#263=ORIENTED_EDGE('',*,*,#336,.T.);
#264=ORIENTED_EDGE('',*,*,#314,.F.);
#265=ORIENTED_EDGE('',*,*,#326,.F.);
#266=ORIENTED_EDGE('',*,*,#338,.T.);
#267=ORIENTED_EDGE('',*,*,#281,.F.);
#268=ORIENTED_EDGE('',*,*,#338,.F.);
#269=EDGE_CURVE('',#339,#340,#381,.F.);
#270=EDGE_CURVE('',#340,#341,#107,.F.);
#271=EDGE_CURVE('',#341,#342,#382,.T.);
#272=EDGE_CURVE('',#342,#343,#383,.F.);
#273=EDGE_CURVE('',#343,#344,#108,.F.);
#274=EDGE_CURVE('',#344,#345,#384,.T.);
#275=EDGE_CURVE('',#345,#346,#385,.F.);
#276=EDGE_CURVE('',#346,#347,#109,.F.);
#277=EDGE_CURVE('',#347,#348,#386,.T.);
#278=EDGE_CURVE('',#348,#349,#387,.F.);
#279=EDGE_CURVE('',#349,#350,#110,.F.);
#280=EDGE_CURVE('',#350,#339,#388,.T.);
#281=EDGE_CURVE('',#351,#351,#111,.T.);
#282=EDGE_CURVE('',#352,#353,#389,.T.);
#283=EDGE_CURVE('',#354,#353,#37,.T.);
#284=EDGE_CURVE('',#354,#355,#38,.T.);
#285=EDGE_CURVE('',#355,#348,#39,.T.);
#286=EDGE_CURVE('',#348,#356,#40,.T.);
#287=EDGE_CURVE('',#356,#357,#41,.T.);
#288=EDGE_CURVE('',#357,#358,#42,.T.);
#289=EDGE_CURVE('',#358,#352,#390,.T.);
#290=EDGE_CURVE('',#359,#360,#43,.T.);
#291=EDGE_CURVE('',#359,#361,#44,.T.);
#292=EDGE_CURVE('',#361,#339,#45,.T.);
#293=EDGE_CURVE('',#339,#362,#46,.T.);
#294=EDGE_CURVE('',#362,#363,#47,.T.);
#295=EDGE_CURVE('',#363,#364,#48,.T.);
#296=EDGE_CURVE('',#364,#365,#391,.T.);
#297=EDGE_CURVE('',#365,#360,#392,.T.);
#298=EDGE_CURVE('',#363,#354,#49,.T.);
#299=EDGE_CURVE('',#362,#355,#112,.T.);
#300=EDGE_CURVE('',#364,#353,#393,.T.);
#301=EDGE_CURVE('',#365,#352,#113,.T.);
#302=EDGE_CURVE('',#366,#367,#394,.T.);
#303=EDGE_CURVE('',#368,#367,#50,.T.);
#304=EDGE_CURVE('',#368,#369,#51,.T.);
#305=EDGE_CURVE('',#369,#345,#52,.T.);
#306=EDGE_CURVE('',#345,#370,#53,.T.);
#307=EDGE_CURVE('',#370,#371,#54,.T.);
#308=EDGE_CURVE('',#371,#372,#55,.T.);
#309=EDGE_CURVE('',#372,#366,#395,.T.);
#310=EDGE_CURVE('',#357,#368,#56,.T.);
#311=EDGE_CURVE('',#356,#369,#114,.T.);
#312=EDGE_CURVE('',#358,#367,#396,.T.);
#313=EDGE_CURVE('',#352,#366,#115,.T.);
#314=EDGE_CURVE('',#373,#374,#57,.T.);
#315=EDGE_CURVE('',#374,#375,#397,.T.);
#316=EDGE_CURVE('',#375,#376,#398,.T.);
#317=EDGE_CURVE('',#377,#376,#58,.T.);
#318=EDGE_CURVE('',#377,#378,#59,.T.);
#319=EDGE_CURVE('',#378,#342,#60,.T.);
#320=EDGE_CURVE('',#342,#379,#61,.T.);
#321=EDGE_CURVE('',#379,#373,#62,.T.);
#322=EDGE_CURVE('',#371,#377,#63,.T.);
#323=EDGE_CURVE('',#370,#378,#116,.T.);
#324=EDGE_CURVE('',#372,#376,#399,.T.);
#325=EDGE_CURVE('',#366,#375,#117,.T.);
#326=EDGE_CURVE('',#359,#373,#64,.T.);
#327=EDGE_CURVE('',#379,#361,#118,.T.);
#328=EDGE_CURVE('',#343,#378,#119,.F.);
#329=EDGE_CURVE('',#344,#370,#120,.T.);
#330=EDGE_CURVE('',#346,#369,#121,.F.);
#331=EDGE_CURVE('',#347,#356,#122,.T.);
#332=EDGE_CURVE('',#340,#361,#123,.F.);
#333=EDGE_CURVE('',#341,#379,#124,.T.);
#334=EDGE_CURVE('',#349,#355,#125,.F.);
#335=EDGE_CURVE('',#350,#362,#126,.T.);
#336=EDGE_CURVE('',#360,#374,#400,.T.);
#337=EDGE_CURVE('',#375,#365,#127,.T.);
#338=EDGE_CURVE('',#380,#380,#128,.T.);
#339=VERTEX_POINT('',#907);
#340=VERTEX_POINT('',#908);
#341=VERTEX_POINT('',#910);
#342=VERTEX_POINT('',#915);
#343=VERTEX_POINT('',#920);
#344=VERTEX_POINT('',#922);
#345=VERTEX_POINT('',#927);
#346=VERTEX_POINT('',#932);
#347=VERTEX_POINT('',#934);
#348=VERTEX_POINT('',#939);
#349=VERTEX_POINT('',#944);
#350=VERTEX_POINT('',#946);
#351=VERTEX_POINT('',#952);
#352=VERTEX_POINT('',#958);
#353=VERTEX_POINT('',#959);
#354=VERTEX_POINT('',#961);
#355=VERTEX_POINT('',#963);
#356=VERTEX_POINT('',#966);
#357=VERTEX_POINT('',#968);
#358=VERTEX_POINT('',#970);
#359=VERTEX_POINT('',#977);
#360=VERTEX_POINT('',#978);
#361=VERTEX_POINT('',#980);
#362=VERTEX_POINT('',#983);
#363=VERTEX_POINT('',#985);
#364=VERTEX_POINT('',#987);
#365=VERTEX_POINT('',#992);
#366=VERTEX_POINT('',#1011);
#367=VERTEX_POINT('',#1012);
#368=VERTEX_POINT('',#1014);
#369=VERTEX_POINT('',#1016);
#370=VERTEX_POINT('',#1019);
#371=VERTEX_POINT('',#1021);
#372=VERTEX_POINT('',#1023);
#373=VERTEX_POINT('',#1039);
#374=VERTEX_POINT('',#1040);
#375=VERTEX_POINT('',#1045);
#376=VERTEX_POINT('',#1050);
#377=VERTEX_POINT('',#1052);
#378=VERTEX_POINT('',#1054);
#379=VERTEX_POINT('',#1057);
#380=VERTEX_POINT('',#1216);
#381=B_SPLINE_CURVE_WITH_KNOTS('',3,(#903,#904,#905,#906),.UNSPECIFIED.,
 .F.,.F.,(4,4),(0.,0.000990467337897032),.UNSPECIFIED.);
#382=B_SPLINE_CURVE_WITH_KNOTS('',3,(#911,#912,#913,#914),.UNSPECIFIED.,
 .F.,.F.,(4,4),(0.,0.000990467337896992),.UNSPECIFIED.);
#383=B_SPLINE_CURVE_WITH_KNOTS('',3,(#916,#917,#918,#919),.UNSPECIFIED.,
 .F.,.F.,(4,4),(0.,0.000990467337897023),.UNSPECIFIED.);
#384=B_SPLINE_CURVE_WITH_KNOTS('',3,(#923,#924,#925,#926),.UNSPECIFIED.,
 .F.,.F.,(4,4),(0.,0.000990467337896991),.UNSPECIFIED.);
#385=B_SPLINE_CURVE_WITH_KNOTS('',3,(#928,#929,#930,#931),.UNSPECIFIED.,
 .F.,.F.,(4,4),(0.,0.000990467337897019),.UNSPECIFIED.);
#386=B_SPLINE_CURVE_WITH_KNOTS('',3,(#935,#936,#937,#938),.UNSPECIFIED.,
 .F.,.F.,(4,4),(0.,0.000990467337897001),.UNSPECIFIED.);
#387=B_SPLINE_CURVE_WITH_KNOTS('',3,(#940,#941,#942,#943),.UNSPECIFIED.,
 .F.,.F.,(4,4),(0.,0.000990467337897032),.UNSPECIFIED.);
#388=B_SPLINE_CURVE_WITH_KNOTS('',3,(#947,#948,#949,#950),.UNSPECIFIED.,
 .F.,.F.,(4,4),(0.,0.000990467337896999),.UNSPECIFIED.);
#389=B_SPLINE_CURVE_WITH_KNOTS('',3,(#954,#955,#956,#957),.UNSPECIFIED.,
 .F.,.F.,(4,4),(0.00257584142001102,0.00435032772071231),.UNSPECIFIED.);
#390=B_SPLINE_CURVE_WITH_KNOTS('',3,(#971,#972,#973,#974),.UNSPECIFIED.,
 .F.,.F.,(4,4),(0.000805295753919282,0.00257584142001102),.UNSPECIFIED.);
#391=B_SPLINE_CURVE_WITH_KNOTS('',3,(#988,#989,#990,#991),.UNSPECIFIED.,
 .F.,.F.,(4,4),(0.000805295753919294,0.00257584142001102),.UNSPECIFIED.);
#392=B_SPLINE_CURVE_WITH_KNOTS('',3,(#993,#994,#995,#996),.UNSPECIFIED.,
 .F.,.F.,(4,4),(0.00257584142001102,0.00435032772071231),.UNSPECIFIED.);
#393=B_SPLINE_CURVE_WITH_KNOTS('',3,(#1001,#1002,#1003,#1004),
 .UNSPECIFIED.,.F.,.F.,(4,4),(0.00149100114837206,0.00255729298272423),
 .UNSPECIFIED.);
#394=B_SPLINE_CURVE_WITH_KNOTS('',3,(#1007,#1008,#1009,#1010),
 .UNSPECIFIED.,.F.,.F.,(4,4),(0.00257584142001102,0.00435032772071233),
 .UNSPECIFIED.);
#395=B_SPLINE_CURVE_WITH_KNOTS('',3,(#1024,#1025,#1026,#1027),
 .UNSPECIFIED.,.F.,.F.,(4,4),(0.000805295753919279,0.00257584142001102),
 .UNSPECIFIED.);
#396=B_SPLINE_CURVE_WITH_KNOTS('',3,(#1032,#1033,#1034,#1035),
 .UNSPECIFIED.,.F.,.F.,(4,4),(0.00125013203245377,0.00231523530884574),
 .UNSPECIFIED.);
#397=B_SPLINE_CURVE_WITH_KNOTS('',3,(#1041,#1042,#1043,#1044),
 .UNSPECIFIED.,.F.,.F.,(4,4),(0.000805295753919292,0.00257584142001103),
 .UNSPECIFIED.);
#398=B_SPLINE_CURVE_WITH_KNOTS('',3,(#1046,#1047,#1048,#1049),
 .UNSPECIFIED.,.F.,.F.,(4,4),(0.00257584142001103,0.00435032772071233),
 .UNSPECIFIED.);
#399=B_SPLINE_CURVE_WITH_KNOTS('',3,(#1063,#1064,#1065,#1066),
 .UNSPECIFIED.,.F.,.F.,(4,4),(0.00125013203245377,0.00231523530884574),
 .UNSPECIFIED.);
#400=B_SPLINE_CURVE_WITH_KNOTS('',3,(#1204,#1205,#1206,#1207),
 .UNSPECIFIED.,.F.,.F.,(4,4),(0.00125013203245378,0.00231523530884577),
 .UNSPECIFIED.);
#401=EDGE_LOOP('',(#129,#130,#131,#132,#133,#134,#135,#136,#137,#138,#139,
#140));
#402=EDGE_LOOP('',(#141));
#403=EDGE_LOOP('',(#142,#143,#144,#145,#146,#147,#148,#149));
#404=EDGE_LOOP('',(#150,#151,#152,#153,#154,#155,#156,#157));
#405=EDGE_LOOP('',(#158,#159,#160,#161));
#406=EDGE_LOOP('',(#162,#163,#164,#165));
#407=EDGE_LOOP('',(#166,#167,#168,#169,#170,#171,#172,#173));
#408=EDGE_LOOP('',(#174,#175,#176,#177));
#409=EDGE_LOOP('',(#178,#179,#180,#181));
#410=EDGE_LOOP('',(#182,#183,#184,#185,#186,#187,#188,#189));
#411=EDGE_LOOP('',(#190,#191,#192,#193));
#412=EDGE_LOOP('',(#194,#195,#196,#197));
#413=EDGE_LOOP('',(#198,#199,#200,#201));
#414=EDGE_LOOP('',(#202,#203,#204));
#415=EDGE_LOOP('',(#205,#206,#207,#208));
#416=EDGE_LOOP('',(#209,#210,#211));
#417=EDGE_LOOP('',(#212,#213,#214));
#418=EDGE_LOOP('',(#215,#216,#217,#218));
#419=EDGE_LOOP('',(#219,#220,#221));
#420=EDGE_LOOP('',(#222,#223,#224));
#421=EDGE_LOOP('',(#225,#226,#227,#228));
#422=EDGE_LOOP('',(#229,#230,#231));
#423=EDGE_LOOP('',(#232,#233,#234));
#424=EDGE_LOOP('',(#235,#236,#237,#238));
#425=EDGE_LOOP('',(#239,#240,#241));
#426=EDGE_LOOP('',(#242,#243,#244,#245));
#427=EDGE_LOOP('',(#246,#247,#248,#249));
#428=EDGE_LOOP('',(#250,#251,#252,#253));
#429=EDGE_LOOP('',(#254,#255,#256,#257));
#430=EDGE_LOOP('',(#258,#259,#260,#261));
#431=EDGE_LOOP('',(#262,#263,#264,#265));
#432=EDGE_LOOP('',(#266));
#433=EDGE_LOOP('',(#267));
#434=EDGE_LOOP('',(#268));
#435=FACE_BOUND('',#401,.T.);
#436=FACE_BOUND('',#402,.T.);
#437=FACE_BOUND('',#403,.T.);
#438=FACE_BOUND('',#404,.T.);
#439=FACE_BOUND('',#405,.T.);
#440=FACE_BOUND('',#406,.T.);
#441=FACE_BOUND('',#407,.T.);
#442=FACE_BOUND('',#408,.T.);
#443=FACE_BOUND('',#409,.T.);
#444=FACE_BOUND('',#410,.T.);
#445=FACE_BOUND('',#411,.T.);
#446=FACE_BOUND('',#412,.T.);
#447=FACE_BOUND('',#413,.T.);
#448=FACE_BOUND('',#414,.T.);
#449=FACE_BOUND('',#415,.T.);
#450=FACE_BOUND('',#416,.T.);
#451=FACE_BOUND('',#417,.T.);
#452=FACE_BOUND('',#418,.T.);
#453=FACE_BOUND('',#419,.T.);
#454=FACE_BOUND('',#420,.T.);
#455=FACE_BOUND('',#421,.T.);
#456=FACE_BOUND('',#422,.T.);
#457=FACE_BOUND('',#423,.T.);
#458=FACE_BOUND('',#424,.T.);
#459=FACE_BOUND('',#425,.T.);
#460=FACE_BOUND('',#426,.T.);
#461=FACE_BOUND('',#427,.T.);
#462=FACE_BOUND('',#428,.T.);
#463=FACE_BOUND('',#429,.T.);
#464=FACE_BOUND('',#430,.T.);
#465=FACE_BOUND('',#431,.T.);
#466=FACE_BOUND('',#432,.T.);
#467=FACE_BOUND('',#433,.T.);
#468=FACE_BOUND('',#434,.T.);
#469=CYLINDRICAL_SURFACE('',#733,2.49999999999999);
#470=STYLED_ITEM('',(#502),#696);
#471=STYLED_ITEM('',(#503),#697);
#472=STYLED_ITEM('',(#504),#698);
#473=STYLED_ITEM('',(#505),#699);
#474=STYLED_ITEM('',(#506),#700);
#475=STYLED_ITEM('',(#507),#701);
#476=STYLED_ITEM('',(#508),#702);
#477=STYLED_ITEM('',(#509),#703);
#478=STYLED_ITEM('',(#510),#704);
#479=STYLED_ITEM('',(#511),#705);
#480=STYLED_ITEM('',(#512),#706);
#481=STYLED_ITEM('',(#513),#707);
#482=STYLED_ITEM('',(#514),#708);
#483=STYLED_ITEM('',(#515),#709);
#484=STYLED_ITEM('',(#516),#710);
#485=STYLED_ITEM('',(#517),#711);
#486=STYLED_ITEM('',(#518),#712);
#487=STYLED_ITEM('',(#519),#713);
#488=STYLED_ITEM('',(#520),#714);
#489=STYLED_ITEM('',(#521),#715);
#490=STYLED_ITEM('',(#522),#716);
#491=STYLED_ITEM('',(#523),#717);
#492=STYLED_ITEM('',(#524),#718);
#493=STYLED_ITEM('',(#525),#719);
#494=STYLED_ITEM('',(#526),#720);
#495=STYLED_ITEM('',(#527),#721);
#496=STYLED_ITEM('',(#528),#722);
#497=STYLED_ITEM('',(#529),#723);
#498=STYLED_ITEM('',(#530),#724);
#499=STYLED_ITEM('',(#531),#725);
#500=STYLED_ITEM('',(#532),#726);
#501=STYLED_ITEM('',(#533),#727);
#502=PRESENTATION_STYLE_ASSIGNMENT((#534));
#503=PRESENTATION_STYLE_ASSIGNMENT((#535));
#504=PRESENTATION_STYLE_ASSIGNMENT((#536));
#505=PRESENTATION_STYLE_ASSIGNMENT((#537));
#506=PRESENTATION_STYLE_ASSIGNMENT((#538));
#507=PRESENTATION_STYLE_ASSIGNMENT((#539));
#508=PRESENTATION_STYLE_ASSIGNMENT((#540));
#509=PRESENTATION_STYLE_ASSIGNMENT((#541));
#510=PRESENTATION_STYLE_ASSIGNMENT((#542));
#511=PRESENTATION_STYLE_ASSIGNMENT((#543));
#512=PRESENTATION_STYLE_ASSIGNMENT((#544));
#513=PRESENTATION_STYLE_ASSIGNMENT((#545));
#514=PRESENTATION_STYLE_ASSIGNMENT((#546));
#515=PRESENTATION_STYLE_ASSIGNMENT((#547));
#516=PRESENTATION_STYLE_ASSIGNMENT((#548));
#517=PRESENTATION_STYLE_ASSIGNMENT((#549));
#518=PRESENTATION_STYLE_ASSIGNMENT((#550));
#519=PRESENTATION_STYLE_ASSIGNMENT((#551));
#520=PRESENTATION_STYLE_ASSIGNMENT((#552));
#521=PRESENTATION_STYLE_ASSIGNMENT((#553));
#522=PRESENTATION_STYLE_ASSIGNMENT((#554));
#523=PRESENTATION_STYLE_ASSIGNMENT((#555));
#524=PRESENTATION_STYLE_ASSIGNMENT((#556));
#525=PRESENTATION_STYLE_ASSIGNMENT((#557));
#526=PRESENTATION_STYLE_ASSIGNMENT((#558));
#527=PRESENTATION_STYLE_ASSIGNMENT((#559));
#528=PRESENTATION_STYLE_ASSIGNMENT((#560));
#529=PRESENTATION_STYLE_ASSIGNMENT((#561));
#530=PRESENTATION_STYLE_ASSIGNMENT((#562));
#531=PRESENTATION_STYLE_ASSIGNMENT((#563));
#532=PRESENTATION_STYLE_ASSIGNMENT((#564));
#533=PRESENTATION_STYLE_ASSIGNMENT((#565));
#534=SURFACE_STYLE_USAGE(.BOTH.,#566);
#535=SURFACE_STYLE_USAGE(.BOTH.,#567);
#536=SURFACE_STYLE_USAGE(.BOTH.,#568);
#537=SURFACE_STYLE_USAGE(.BOTH.,#569);
#538=SURFACE_STYLE_USAGE(.BOTH.,#570);
#539=SURFACE_STYLE_USAGE(.BOTH.,#571);
#540=SURFACE_STYLE_USAGE(.BOTH.,#572);
#541=SURFACE_STYLE_USAGE(.BOTH.,#573);
#542=SURFACE_STYLE_USAGE(.BOTH.,#574);
#543=SURFACE_STYLE_USAGE(.BOTH.,#575);
#544=SURFACE_STYLE_USAGE(.BOTH.,#576);
#545=SURFACE_STYLE_USAGE(.BOTH.,#577);
#546=SURFACE_STYLE_USAGE(.BOTH.,#578);
#547=SURFACE_STYLE_USAGE(.BOTH.,#579);
#548=SURFACE_STYLE_USAGE(.BOTH.,#580);
#549=SURFACE_STYLE_USAGE(.BOTH.,#581);
#550=SURFACE_STYLE_USAGE(.BOTH.,#582);
#551=SURFACE_STYLE_USAGE(.BOTH.,#583);
#552=SURFACE_STYLE_USAGE(.BOTH.,#584);
#553=SURFACE_STYLE_USAGE(.BOTH.,#585);
#554=SURFACE_STYLE_USAGE(.BOTH.,#586);
#555=SURFACE_STYLE_USAGE(.BOTH.,#587);
#556=SURFACE_STYLE_USAGE(.BOTH.,#588);
#557=SURFACE_STYLE_USAGE(.BOTH.,#589);
#558=SURFACE_STYLE_USAGE(.BOTH.,#590);
#559=SURFACE_STYLE_USAGE(.BOTH.,#591);
#560=SURFACE_STYLE_USAGE(.BOTH.,#592);
#561=SURFACE_STYLE_USAGE(.BOTH.,#593);
#562=SURFACE_STYLE_USAGE(.BOTH.,#594);
#563=SURFACE_STYLE_USAGE(.BOTH.,#595);
#564=SURFACE_STYLE_USAGE(.BOTH.,#596);
#565=SURFACE_STYLE_USAGE(.BOTH.,#597);
#566=SURFACE_SIDE_STYLE('',(#598));
#567=SURFACE_SIDE_STYLE('',(#599));
#568=SURFACE_SIDE_STYLE('',(#600));
#569=SURFACE_SIDE_STYLE('',(#601));
#570=SURFACE_SIDE_STYLE('',(#602));
#571=SURFACE_SIDE_STYLE('',(#603));
#572=SURFACE_SIDE_STYLE('',(#604));
#573=SURFACE_SIDE_STYLE('',(#605));
#574=SURFACE_SIDE_STYLE('',(#606));
#575=SURFACE_SIDE_STYLE('',(#607));
#576=SURFACE_SIDE_STYLE('',(#608));
#577=SURFACE_SIDE_STYLE('',(#609));
#578=SURFACE_SIDE_STYLE('',(#610));
#579=SURFACE_SIDE_STYLE('',(#611));
#580=SURFACE_SIDE_STYLE('',(#612));
#581=SURFACE_SIDE_STYLE('',(#613));
#582=SURFACE_SIDE_STYLE('',(#614));
#583=SURFACE_SIDE_STYLE('',(#615));
#584=SURFACE_SIDE_STYLE('',(#616));
#585=SURFACE_SIDE_STYLE('',(#617));
#586=SURFACE_SIDE_STYLE('',(#618));
#587=SURFACE_SIDE_STYLE('',(#619));
#588=SURFACE_SIDE_STYLE('',(#620));
#589=SURFACE_SIDE_STYLE('',(#621));
#590=SURFACE_SIDE_STYLE('',(#622));
#591=SURFACE_SIDE_STYLE('',(#623));
#592=SURFACE_SIDE_STYLE('',(#624));
#593=SURFACE_SIDE_STYLE('',(#625));
#594=SURFACE_SIDE_STYLE('',(#626));
#595=SURFACE_SIDE_STYLE('',(#627));
#596=SURFACE_SIDE_STYLE('',(#628));
#597=SURFACE_SIDE_STYLE('',(#629));
#598=SURFACE_STYLE_FILL_AREA(#630);
#599=SURFACE_STYLE_FILL_AREA(#631);
#600=SURFACE_STYLE_FILL_AREA(#632);
#601=SURFACE_STYLE_FILL_AREA(#633);
#602=SURFACE_STYLE_FILL_AREA(#634);
#603=SURFACE_STYLE_FILL_AREA(#635);
#604=SURFACE_STYLE_FILL_AREA(#636);
#605=SURFACE_STYLE_FILL_AREA(#637);
#606=SURFACE_STYLE_FILL_AREA(#638);
#607=SURFACE_STYLE_FILL_AREA(#639);
#608=SURFACE_STYLE_FILL_AREA(#640);
#609=SURFACE_STYLE_FILL_AREA(#641);
#610=SURFACE_STYLE_FILL_AREA(#642);
#611=SURFACE_STYLE_FILL_AREA(#643);
#612=SURFACE_STYLE_FILL_AREA(#644);
#613=SURFACE_STYLE_FILL_AREA(#645);
#614=SURFACE_STYLE_FILL_AREA(#646);
#615=SURFACE_STYLE_FILL_AREA(#647);
#616=SURFACE_STYLE_FILL_AREA(#648);
#617=SURFACE_STYLE_FILL_AREA(#649);
#618=SURFACE_STYLE_FILL_AREA(#650);
#619=SURFACE_STYLE_FILL_AREA(#651);
#620=SURFACE_STYLE_FILL_AREA(#652);
#621=SURFACE_STYLE_FILL_AREA(#653);
#622=SURFACE_STYLE_FILL_AREA(#654);
#623=SURFACE_STYLE_FILL_AREA(#655);
#624=SURFACE_STYLE_FILL_AREA(#656);
#625=SURFACE_STYLE_FILL_AREA(#657);
#626=SURFACE_STYLE_FILL_AREA(#658);
#627=SURFACE_STYLE_FILL_AREA(#659);
#628=SURFACE_STYLE_FILL_AREA(#660);
#629=SURFACE_STYLE_FILL_AREA(#661);
#630=FILL_AREA_STYLE('',(#662));
#631=FILL_AREA_STYLE('',(#663));
#632=FILL_AREA_STYLE('',(#664));
#633=FILL_AREA_STYLE('',(#665));
#634=FILL_AREA_STYLE('',(#666));
#635=FILL_AREA_STYLE('',(#667));
#636=FILL_AREA_STYLE('',(#668));
#637=FILL_AREA_STYLE('',(#669));
#638=FILL_AREA_STYLE('',(#670));
#639=FILL_AREA_STYLE('',(#671));
#640=FILL_AREA_STYLE('',(#672));
#641=FILL_AREA_STYLE('',(#673));
#642=FILL_AREA_STYLE('',(#674));
#643=FILL_AREA_STYLE('',(#675));
#644=FILL_AREA_STYLE('',(#676));
#645=FILL_AREA_STYLE('',(#677));
#646=FILL_AREA_STYLE('',(#678));
#647=FILL_AREA_STYLE('',(#679));
#648=FILL_AREA_STYLE('',(#680));
#649=FILL_AREA_STYLE('',(#681));
#650=FILL_AREA_STYLE('',(#682));
#651=FILL_AREA_STYLE('',(#683));
#652=FILL_AREA_STYLE('',(#684));
#653=FILL_AREA_STYLE('',(#685));
#654=FILL_AREA_STYLE('',(#686));
#655=FILL_AREA_STYLE('',(#687));
#656=FILL_AREA_STYLE('',(#688));
#657=FILL_AREA_STYLE('',(#689));
#658=FILL_AREA_STYLE('',(#690));
#659=FILL_AREA_STYLE('',(#691));
#660=FILL_AREA_STYLE('',(#692));
#661=FILL_AREA_STYLE('',(#693));
#662=FILL_AREA_STYLE_COLOUR('',#694);
#663=FILL_AREA_STYLE_COLOUR('',#695);
#664=FILL_AREA_STYLE_COLOUR('',#695);
#665=FILL_AREA_STYLE_COLOUR('',#695);
#666=FILL_AREA_STYLE_COLOUR('',#695);
#667=FILL_AREA_STYLE_COLOUR('',#695);
#668=FILL_AREA_STYLE_COLOUR('',#695);
#669=FILL_AREA_STYLE_COLOUR('',#695);
#670=FILL_AREA_STYLE_COLOUR('',#695);
#671=FILL_AREA_STYLE_COLOUR('',#695);
#672=FILL_AREA_STYLE_COLOUR('',#695);
#673=FILL_AREA_STYLE_COLOUR('',#695);
#674=FILL_AREA_STYLE_COLOUR('',#695);
#675=FILL_AREA_STYLE_COLOUR('',#695);
#676=FILL_AREA_STYLE_COLOUR('',#695);
#677=FILL_AREA_STYLE_COLOUR('',#695);
#678=FILL_AREA_STYLE_COLOUR('',#695);
#679=FILL_AREA_STYLE_COLOUR('',#695);
#680=FILL_AREA_STYLE_COLOUR('',#695);
#681=FILL_AREA_STYLE_COLOUR('',#695);
#682=FILL_AREA_STYLE_COLOUR('',#695);
#683=FILL_AREA_STYLE_COLOUR('',#695);
#684=FILL_AREA_STYLE_COLOUR('',#695);
#685=FILL_AREA_STYLE_COLOUR('',#695);
#686=FILL_AREA_STYLE_COLOUR('',#695);
#687=FILL_AREA_STYLE_COLOUR('',#695);
#688=FILL_AREA_STYLE_COLOUR('',#695);
#689=FILL_AREA_STYLE_COLOUR('',#695);
#690=FILL_AREA_STYLE_COLOUR('',#695);
#691=FILL_AREA_STYLE_COLOUR('',#695);
#692=FILL_AREA_STYLE_COLOUR('',#695);
#693=FILL_AREA_STYLE_COLOUR('',#695);
#694=COLOUR_RGB('',0.1875,0.75,0.581249892711639);
#695=COLOUR_RGB('',0.506983280181885,0.531564235687256,0.550000011920929);
#696=ADVANCED_FACE('',(#435,#436),#469,.T.);
#697=ADVANCED_FACE('',(#437),#93,.T.);
#698=ADVANCED_FACE('',(#438),#94,.T.);
#699=ADVANCED_FACE('',(#439),#95,.F.);
#700=ADVANCED_FACE('',(#440),#32,.T.);
#701=ADVANCED_FACE('',(#441),#96,.T.);
#702=ADVANCED_FACE('',(#442),#97,.F.);
#703=ADVANCED_FACE('',(#443),#33,.T.);
#704=ADVANCED_FACE('',(#444),#98,.T.);
#705=ADVANCED_FACE('',(#445),#99,.F.);
#706=ADVANCED_FACE('',(#446),#34,.T.);
#707=ADVANCED_FACE('',(#447),#100,.F.);
#708=ADVANCED_FACE('',(#448),#24,.F.);
#709=ADVANCED_FACE('',(#449),#20,.F.);
#710=ADVANCED_FACE('',(#450),#25,.F.);
#711=ADVANCED_FACE('',(#451),#26,.F.);
#712=ADVANCED_FACE('',(#452),#21,.F.);
#713=ADVANCED_FACE('',(#453),#27,.F.);
#714=ADVANCED_FACE('',(#454),#28,.F.);
#715=ADVANCED_FACE('',(#455),#22,.F.);
#716=ADVANCED_FACE('',(#456),#29,.F.);
#717=ADVANCED_FACE('',(#457),#30,.F.);
#718=ADVANCED_FACE('',(#458),#23,.F.);
#719=ADVANCED_FACE('',(#459),#31,.F.);
#720=ADVANCED_FACE('',(#460),#35,.T.);
#721=ADVANCED_FACE('',(#461),#101,.T.);
#722=ADVANCED_FACE('',(#462),#102,.T.);
#723=ADVANCED_FACE('',(#463),#103,.T.);
#724=ADVANCED_FACE('',(#464),#104,.T.);
#725=ADVANCED_FACE('',(#465),#105,.F.);
#726=ADVANCED_FACE('',(#466,#467),#36,.T.);
#727=ADVANCED_FACE('',(#468),#106,.T.);
#728=CLOSED_SHELL('',(#696,#697,#698,#699,#700,#701,#702,#703,#704,#705,
#706,#707,#708,#709,#710,#711,#712,#713,#714,#715,#716,#717,#718,#719,#720,
#721,#722,#723,#724,#725,#726,#727));
#729=MANIFOLD_SOLID_BREP('',#728);
#730=SHAPE_DEFINITION_REPRESENTATION(#1224,#731);
#731=SHAPE_REPRESENTATION('\X2\65B959345E737AEF7D275B9A87BA9489\X0\ 20
18',(#732),#1219);
#732=AXIS2_PLACEMENT_3D('',#901,#779,#780);
#733=AXIS2_PLACEMENT_3D('',#902,#781,#782);
#734=AXIS2_PLACEMENT_3D('',#909,#783,#784);
#735=AXIS2_PLACEMENT_3D('',#921,#785,#786);
#736=AXIS2_PLACEMENT_3D('',#933,#787,#788);
#737=AXIS2_PLACEMENT_3D('',#945,#789,#790);
#738=AXIS2_PLACEMENT_3D('',#951,#791,#792);
#739=AXIS2_PLACEMENT_3D('',#953,#793,#794);
#740=AXIS2_PLACEMENT_3D('',#975,#801,#802);
#741=AXIS2_PLACEMENT_3D('',#997,#809,#810);
#742=AXIS2_PLACEMENT_3D('',#999,#812,#813);
#743=AXIS2_PLACEMENT_3D('',#1000,#814,#815);
#744=AXIS2_PLACEMENT_3D('',#1005,#816,#817);
#745=AXIS2_PLACEMENT_3D('',#1006,#818,#819);
#746=AXIS2_PLACEMENT_3D('',#1028,#826,#827);
#747=AXIS2_PLACEMENT_3D('',#1030,#829,#830);
#748=AXIS2_PLACEMENT_3D('',#1031,#831,#832);
#749=AXIS2_PLACEMENT_3D('',#1036,#833,#834);
#750=AXIS2_PLACEMENT_3D('',#1037,#835,#836);
#751=AXIS2_PLACEMENT_3D('',#1059,#843,#844);
#752=AXIS2_PLACEMENT_3D('',#1061,#846,#847);
#753=AXIS2_PLACEMENT_3D('',#1062,#848,#849);
#754=AXIS2_PLACEMENT_3D('',#1067,#850,#851);
#755=AXIS2_PLACEMENT_3D('',#1068,#852,#853);
#756=AXIS2_PLACEMENT_3D('',#1070,#855,#856);
#757=AXIS2_PLACEMENT_3D('',#1086,#857,#858);
#758=AXIS2_PLACEMENT_3D('',#1087,#859,#860);
#759=AXIS2_PLACEMENT_3D('',#1088,#861,#862);
#760=AXIS2_PLACEMENT_3D('',#1119,#863,#864);
#761=AXIS2_PLACEMENT_3D('',#1120,#865,#866);
#762=AXIS2_PLACEMENT_3D('',#1121,#867,#868);
#763=AXIS2_PLACEMENT_3D('',#1152,#869,#870);
#764=AXIS2_PLACEMENT_3D('',#1153,#871,#872);
#765=AXIS2_PLACEMENT_3D('',#1154,#873,#874);
#766=AXIS2_PLACEMENT_3D('',#1185,#875,#876);
#767=AXIS2_PLACEMENT_3D('',#1186,#877,#878);
#768=AXIS2_PLACEMENT_3D('',#1187,#879,#880);
#769=AXIS2_PLACEMENT_3D('',#1203,#881,#882);
#770=AXIS2_PLACEMENT_3D('',#1208,#883,#884);
#771=AXIS2_PLACEMENT_3D('',#1209,#885,#886);
#772=AXIS2_PLACEMENT_3D('',#1210,#887,#888);
#773=AXIS2_PLACEMENT_3D('',#1211,#889,#890);
#774=AXIS2_PLACEMENT_3D('',#1212,#891,#892);
#775=AXIS2_PLACEMENT_3D('',#1213,#893,#894);
#776=AXIS2_PLACEMENT_3D('',#1214,#895,#896);
#777=AXIS2_PLACEMENT_3D('',#1215,#897,#898);
#778=AXIS2_PLACEMENT_3D('',#1217,#899,#900);
#779=DIRECTION('',(0.,0.,1.));
#780=DIRECTION('',(1.,0.,0.));
#781=DIRECTION('',(-6.12303176911189E-17,-1.,4.87890977618477E-16));
#782=DIRECTION('',(0.,-4.87890977618477E-16,-1.));
#783=DIRECTION('',(0.,-1.,0.));
#784=DIRECTION('',(0.,0.,-1.));
#785=DIRECTION('',(0.,-1.,0.));
#786=DIRECTION('',(0.,0.,-1.));
#787=DIRECTION('',(0.,-1.,0.));
#788=DIRECTION('',(0.,0.,-1.));
#789=DIRECTION('',(0.,-1.,0.));
#790=DIRECTION('',(0.,0.,-1.));
#791=DIRECTION('',(-6.12303176911189E-17,-1.,0.));
#792=DIRECTION('',(1.,-6.12303176911189E-17,0.));
#793=DIRECTION('',(-0.707106781186547,0.,0.707106781186548));
#794=DIRECTION('',(0.707106781186548,0.,0.707106781186547));
#795=DIRECTION('',(0.,-1.,0.));
#796=DIRECTION('',(-0.707106781186548,0.,-0.707106781186547));
#797=DIRECTION('',(-0.707106781186548,0.,-0.707106781186547));
#798=DIRECTION('',(-0.707106781186548,0.,-0.707106781186547));
#799=DIRECTION('',(-0.707106781186548,0.,-0.707106781186547));
#800=DIRECTION('',(0.,-1.,0.));
#801=DIRECTION('',(0.707106781186547,0.,0.707106781186548));
#802=DIRECTION('',(0.707106781186548,0.,-0.707106781186547));
#803=DIRECTION('',(0.,-1.,0.));
#804=DIRECTION('',(-0.707106781186548,0.,0.707106781186547));
#805=DIRECTION('',(-0.707106781186548,0.,0.707106781186547));
#806=DIRECTION('',(-0.707106781186548,0.,0.707106781186547));
#807=DIRECTION('',(-0.707106781186548,0.,0.707106781186547));
#808=DIRECTION('',(0.,-1.,0.));
#809=DIRECTION('',(0.,-1.,0.));
#810=DIRECTION('',(0.,0.,-1.));
#811=DIRECTION('',(-1.,0.,0.));
#812=DIRECTION('',(0.,-1.,0.));
#813=DIRECTION('',(0.,0.,-1.));
#814=DIRECTION('',(6.12303176911189E-17,1.,0.));
#815=DIRECTION('',(-1.,6.12303176911189E-17,0.));
#816=DIRECTION('',(-6.12303176911189E-17,-1.,0.));
#817=DIRECTION('',(1.,-6.12303176911189E-17,0.));
#818=DIRECTION('',(-0.707106781186548,0.,-0.707106781186548));
#819=DIRECTION('',(-0.707106781186548,0.,0.707106781186548));
#820=DIRECTION('',(0.,-1.,0.));
#821=DIRECTION('',(0.707106781186548,0.,-0.707106781186548));
#822=DIRECTION('',(0.707106781186548,0.,-0.707106781186548));
#823=DIRECTION('',(0.707106781186548,0.,-0.707106781186548));
#824=DIRECTION('',(0.707106781186548,0.,-0.707106781186548));
#825=DIRECTION('',(0.,-1.,0.));
#826=DIRECTION('',(0.,-1.,0.));
#827=DIRECTION('',(0.,0.,-1.));
#828=DIRECTION('',(0.,0.,-1.));
#829=DIRECTION('',(0.,-1.,0.));
#830=DIRECTION('',(0.,0.,-1.));
#831=DIRECTION('',(6.12303176911189E-17,1.,0.));
#832=DIRECTION('',(-1.,6.12303176911189E-17,0.));
#833=DIRECTION('',(-6.12303176911189E-17,-1.,0.));
#834=DIRECTION('',(1.,-6.12303176911189E-17,0.));
#835=DIRECTION('',(0.707106781186548,0.,-0.707106781186547));
#836=DIRECTION('',(-0.707106781186547,0.,-0.707106781186548));
#837=DIRECTION('',(0.,-1.,0.));
#838=DIRECTION('',(0.,-1.,0.));
#839=DIRECTION('',(0.707106781186547,0.,0.707106781186548));
#840=DIRECTION('',(0.707106781186547,0.,0.707106781186548));
#841=DIRECTION('',(0.707106781186547,0.,0.707106781186548));
#842=DIRECTION('',(0.707106781186547,0.,0.707106781186548));
#843=DIRECTION('',(0.,-1.,0.));
#844=DIRECTION('',(0.,0.,-1.));
#845=DIRECTION('',(1.,0.,0.));
#846=DIRECTION('',(0.,-1.,0.));
#847=DIRECTION('',(0.,0.,-1.));
#848=DIRECTION('',(6.12303176911189E-17,1.,0.));
#849=DIRECTION('',(-1.,6.12303176911189E-17,0.));
#850=DIRECTION('',(-6.12303176911189E-17,-1.,0.));
#851=DIRECTION('',(1.,-6.12303176911189E-17,0.));
#852=DIRECTION('',(0.,-1.,0.));
#853=DIRECTION('',(0.,0.,-1.));
#854=DIRECTION('',(0.,0.,-1.));
#855=DIRECTION('',(0.,-1.,0.));
#856=DIRECTION('',(0.,0.,-1.));
#857=DIRECTION('',(-0.921806373355242,4.99712236301369E-16,-0.387650628842076));
#858=DIRECTION('',(-0.387650628842076,0.,0.921806373355242));
#859=DIRECTION('',(0.,-1.,0.));
#860=DIRECTION('',(0.,0.,-1.));
#861=DIRECTION('',(0.921806373355241,-1.58841164690834E-16,-0.387650628842077));
#862=DIRECTION('',(-0.387650628842077,0.,-0.921806373355241));
#863=DIRECTION('',(-0.387650628842077,1.86812370057292E-15,0.921806373355241));
#864=DIRECTION('',(0.921806373355241,0.,0.387650628842077));
#865=DIRECTION('',(0.,-1.,0.));
#866=DIRECTION('',(0.,0.,-1.));
#867=DIRECTION('',(-0.387650628842073,0.,-0.921806373355243));
#868=DIRECTION('',(-0.921806373355243,0.,0.387650628842073));
#869=DIRECTION('',(0.387650628842073,9.20003890257318E-16,-0.921806373355243));
#870=DIRECTION('',(-0.921806373355243,0.,-0.387650628842073));
#871=DIRECTION('',(0.,-1.,0.));
#872=DIRECTION('',(0.,0.,-1.));
#873=DIRECTION('',(0.387650628842075,0.,0.921806373355242));
#874=DIRECTION('',(0.921806373355242,0.,-0.387650628842075));
#875=DIRECTION('',(0.921806373355244,3.68986991668822E-16,0.387650628842071));
#876=DIRECTION('',(0.387650628842071,0.,-0.921806373355244));
#877=DIRECTION('',(0.,-1.,0.));
#878=DIRECTION('',(0.,0.,-1.));
#879=DIRECTION('',(-0.921806373355243,8.40583307911894E-16,0.387650628842072));
#880=DIRECTION('',(0.387650628842072,0.,0.921806373355243));
#881=DIRECTION('',(6.12303176911189E-17,1.,0.));
#882=DIRECTION('',(-1.,6.12303176911189E-17,0.));
#883=DIRECTION('',(-6.12303176911189E-17,-1.,0.));
#884=DIRECTION('',(1.,-6.12303176911189E-17,0.));
#885=DIRECTION('',(0.,-1.,0.));
#886=DIRECTION('',(0.,0.,-1.));
#887=DIRECTION('',(0.,0.,-1.));
#888=DIRECTION('',(-1.,0.,0.));
#889=DIRECTION('',(-1.,0.,0.));
#890=DIRECTION('',(0.,0.,1.));
#891=DIRECTION('',(0.,0.,1.));
#892=DIRECTION('',(1.,0.,0.));
#893=DIRECTION('',(-1.,0.,0.));
#894=DIRECTION('',(0.,0.,1.));
#895=DIRECTION('',(-6.12303176911189E-17,-1.,0.));
#896=DIRECTION('',(1.,-6.12303176911189E-17,0.));
#897=DIRECTION('',(-6.12303176911189E-17,-1.,0.));
#898=DIRECTION('',(1.,-6.12303176911189E-17,0.));
#899=DIRECTION('',(6.12303176911189E-17,1.,-4.87890977618477E-16));
#900=DIRECTION('',(0.,4.87890977618477E-16,1.));
#901=CARTESIAN_POINT('',(0.,0.,0.));
#902=CARTESIAN_POINT('',(3.06151588455594E-16,5.,6.07153216591882E-15));
#903=CARTESIAN_POINT('',(2.3045159333881,5.2,0.969126572105183));
#904=CARTESIAN_POINT('',(2.17542975614897,5.2,1.27608456994599));
#905=CARTESIAN_POINT('',(1.99174763263465,5.0931048781619,1.54378627329808));
#906=CARTESIAN_POINT('',(1.76776695296636,5.,1.76776695296637));
#907=CARTESIAN_POINT('',(1.76776695296636,5.,1.76776695296637));
#908=CARTESIAN_POINT('',(2.3045159333881,5.2,0.969126572105183));
#909=CARTESIAN_POINT('',(3.18397651993818E-16,5.2,5.97395397039513E-15));
#910=CARTESIAN_POINT('',(2.30451593338809,5.2,-0.969126572105176));
#911=CARTESIAN_POINT('',(2.30451593338809,5.2,-0.969126572105176));
#912=CARTESIAN_POINT('',(2.17542975614897,5.2,-1.27608456994598));
#913=CARTESIAN_POINT('',(1.99174763263288,5.09310487817038,-1.54378627329983));
#914=CARTESIAN_POINT('',(1.76776695296636,5.,-1.76776695296635));
#915=CARTESIAN_POINT('',(1.76776695296636,5.,-1.76776695296635));
#916=CARTESIAN_POINT('',(0.969126572105184,5.2,-2.30451593338809));
#917=CARTESIAN_POINT('',(1.27608456994598,5.2,-2.17542975614896));
#918=CARTESIAN_POINT('',(1.54378627329969,5.09310487816971,-1.99174763263302));
#919=CARTESIAN_POINT('',(1.76776695296636,5.,-1.76776695296635));
#920=CARTESIAN_POINT('',(0.969126572105184,5.2,-2.30451593338809));
#921=CARTESIAN_POINT('',(3.18397651993818E-16,5.2,5.97395397039513E-15));
#922=CARTESIAN_POINT('',(-0.969126572105185,5.2,-2.30451593338809));
#923=CARTESIAN_POINT('',(-0.969126572105185,5.2,-2.30451593338809));
#924=CARTESIAN_POINT('',(-1.27608456994599,5.2,-2.17542975614896));
#925=CARTESIAN_POINT('',(-1.54378627330029,5.09310487817254,-1.99174763263242));
#926=CARTESIAN_POINT('',(-1.76776695296636,5.,-1.76776695296635));
#927=CARTESIAN_POINT('',(-1.76776695296636,5.,-1.76776695296635));
#928=CARTESIAN_POINT('',(-2.30451593338809,5.2,-0.969126572105181));
#929=CARTESIAN_POINT('',(-2.17542975614897,5.2,-1.27608456994598));
#930=CARTESIAN_POINT('',(-1.99174763263244,5.09310487817252,-1.54378627330027));
#931=CARTESIAN_POINT('',(-1.76776695296636,5.,-1.76776695296635));
#932=CARTESIAN_POINT('',(-2.30451593338809,5.2,-0.969126572105181));
#933=CARTESIAN_POINT('',(3.18397651993818E-16,5.2,5.97395397039513E-15));
#934=CARTESIAN_POINT('',(-2.3045159333881,5.2,0.969126572105182));
#935=CARTESIAN_POINT('',(-2.3045159333881,5.2,0.969126572105182));
#936=CARTESIAN_POINT('',(-2.17542975614897,5.2,1.27608456994599));
#937=CARTESIAN_POINT('',(-1.99174763263495,5.09310487816044,1.54378627329778));
#938=CARTESIAN_POINT('',(-1.76776695296636,5.,1.76776695296637));
#939=CARTESIAN_POINT('',(-1.76776695296636,5.,1.76776695296637));
#940=CARTESIAN_POINT('',(-0.969126572105173,5.2,2.3045159333881));
#941=CARTESIAN_POINT('',(-1.27608456994598,5.2,2.17542975614898));
#942=CARTESIAN_POINT('',(-1.54378627329776,5.09310487816041,1.99174763263497));
#943=CARTESIAN_POINT('',(-1.76776695296636,5.,1.76776695296637));
#944=CARTESIAN_POINT('',(-0.969126572105173,5.2,2.3045159333881));
#945=CARTESIAN_POINT('',(3.18397651993818E-16,5.2,5.97395397039513E-15));
#946=CARTESIAN_POINT('',(0.969126572105174,5.2,2.3045159333881));
#947=CARTESIAN_POINT('',(0.969126572105174,5.2,2.3045159333881));
#948=CARTESIAN_POINT('',(1.27608456994598,5.2,2.17542975614898));
#949=CARTESIAN_POINT('',(1.54378627329821,5.09310487816254,1.99174763263452));
#950=CARTESIAN_POINT('',(1.76776695296636,5.,1.76776695296637));
#951=CARTESIAN_POINT('',(7.71502002908098E-16,12.6,0.));
#952=CARTESIAN_POINT('',(2.49999999999999,12.6,0.));
#953=CARTESIAN_POINT('',(0.,5.,3.53553390593274));
#954=CARTESIAN_POINT('',(-1.76776695296637,-2.64600249888503E-15,1.76776695296637));
#955=CARTESIAN_POINT('',(-1.34850484770197,-2.64600249888503E-15,2.18702905823077));
#956=CARTESIAN_POINT('',(-0.936269594062872,0.128949917296905,2.59926431186987));
#957=CARTESIAN_POINT('',(-0.535533905932746,0.316055728019213,2.99999999999999));
#958=CARTESIAN_POINT('',(-1.76776695296637,1.08240932133992E-16,1.76776695296637));
#959=CARTESIAN_POINT('',(-0.535533905932747,0.316055728019213,2.99999999999999));
#960=CARTESIAN_POINT('',(-0.535533905932747,15.9507494140932,2.99999999999999));
#961=CARTESIAN_POINT('',(-0.535533905932746,5.,2.99999999999999));
#962=CARTESIAN_POINT('',(0.,5.,3.53553390593274));
#963=CARTESIAN_POINT('',(-1.04665669787359,5.,2.48887720805915));
#964=CARTESIAN_POINT('',(0.,5.,3.53553390593274));
#965=CARTESIAN_POINT('',(0.,5.,3.53553390593274));
#966=CARTESIAN_POINT('',(-2.48887720805914,5.,1.0466566978736));
#967=CARTESIAN_POINT('',(0.,5.,3.53553390593274));
#968=CARTESIAN_POINT('',(-3.,5.,0.535533905932742));
#969=CARTESIAN_POINT('',(-3.,16.1775524550408,0.535533905932742));
#970=CARTESIAN_POINT('',(-3.,0.316055728019217,0.535533905932742));
#971=CARTESIAN_POINT('',(-3.,0.316055728019217,0.535533905932742));
#972=CARTESIAN_POINT('',(-2.60321646336213,0.130795199688666,0.932317442570614));
#973=CARTESIAN_POINT('',(-2.1860979951046,-2.64600249888503E-15,1.34943591082814));
#974=CARTESIAN_POINT('',(-1.76776695296637,-2.64600249888503E-15,1.76776695296637));
#975=CARTESIAN_POINT('',(3.53553390593274,5.,5.92180241609585E-15));
#976=CARTESIAN_POINT('',(2.99999999999999,15.738907313902,0.535533905932751));
#977=CARTESIAN_POINT('',(2.99999999999999,5.,0.53553390593275));
#978=CARTESIAN_POINT('',(2.99999999999999,0.316055728019214,0.535533905932751));
#979=CARTESIAN_POINT('',(3.53553390593274,5.,5.92180241609585E-15));
#980=CARTESIAN_POINT('',(2.48887720805914,5.,1.0466566978736));
#981=CARTESIAN_POINT('',(3.53553390593274,5.,5.92180241609585E-15));
#982=CARTESIAN_POINT('',(3.53553390593274,5.,5.92180241609585E-15));
#983=CARTESIAN_POINT('',(1.04665669787359,5.,2.48887720805915));
#984=CARTESIAN_POINT('',(3.53553390593274,5.,5.92180241609585E-15));
#985=CARTESIAN_POINT('',(0.535533905932746,5.,2.99999999999999));
#986=CARTESIAN_POINT('',(0.535533905932746,15.9507494140932,2.99999999999999));
#987=CARTESIAN_POINT('',(0.535533905932746,0.316055728019213,2.99999999999999));
#988=CARTESIAN_POINT('',(0.535533905932746,0.316055728019213,2.99999999999999));
#989=CARTESIAN_POINT('',(0.932317442570615,0.130795199688665,2.60321646336212));
#990=CARTESIAN_POINT('',(1.34943591082814,-2.32379140139882E-15,2.1860979951046));
#991=CARTESIAN_POINT('',(1.76776695296637,-2.36171283024054E-15,1.76776695296637));
#992=CARTESIAN_POINT('',(1.76776695296637,-1.08240932133992E-16,1.76776695296637));
#993=CARTESIAN_POINT('',(1.76776695296637,-2.36171283024054E-15,1.76776695296637));
#994=CARTESIAN_POINT('',(2.18702905823077,-2.39971865933117E-15,1.34850484770197));
#995=CARTESIAN_POINT('',(2.59926431186987,0.128949917296906,0.936269594062875));
#996=CARTESIAN_POINT('',(2.99999999999999,0.316055728019214,0.535533905932751));
#997=CARTESIAN_POINT('',(0.,5.,0.));
#998=CARTESIAN_POINT('',(0.,5.,2.99999999999999));
#999=CARTESIAN_POINT('',(3.18397651993818E-16,5.,5.97395397039513E-15));
#1000=CARTESIAN_POINT('',(0.,0.,0.));
#1001=CARTESIAN_POINT('',(0.535533905932746,0.316055728019213,2.99999999999999));
#1002=CARTESIAN_POINT('',(0.180840850623834,0.280068693190884,2.99999999999999));
#1003=CARTESIAN_POINT('',(-0.182200866260549,0.280206679907436,2.99999999999999));
#1004=CARTESIAN_POINT('',(-0.535533905932746,0.316055728019213,2.99999999999999));
#1005=CARTESIAN_POINT('',(0.,0.,0.));
#1006=CARTESIAN_POINT('',(-3.53553390593274,5.,3.46944695195361E-15));
#1007=CARTESIAN_POINT('',(-1.76776695296637,-4.27350998085033E-15,-1.76776695296637));
#1008=CARTESIAN_POINT('',(-2.18702905823077,-4.15949249357844E-15,-1.34850484770196));
#1009=CARTESIAN_POINT('',(-2.59926431186987,0.128949917296906,-0.936269594062864));
#1010=CARTESIAN_POINT('',(-3.,0.316055728019216,-0.535533905932735));
#1011=CARTESIAN_POINT('',(-1.76776695296637,1.08240932133992E-16,-1.76776695296637));
#1012=CARTESIAN_POINT('',(-3.,0.316055728019216,-0.535533905932734));
#1013=CARTESIAN_POINT('',(-3.,16.1775524550408,-0.535533905932734));
#1014=CARTESIAN_POINT('',(-3.,5.,-0.535533905932735));
#1015=CARTESIAN_POINT('',(-3.53553390593274,5.,3.46944695195361E-15));
#1016=CARTESIAN_POINT('',(-2.48887720805914,5.,-1.0466566978736));
#1017=CARTESIAN_POINT('',(-3.53553390593274,5.,3.46944695195361E-15));
#1018=CARTESIAN_POINT('',(-3.53553390593274,5.,3.46944695195361E-15));
#1019=CARTESIAN_POINT('',(-1.0466566978736,5.,-2.48887720805914));
#1020=CARTESIAN_POINT('',(-3.53553390593274,5.,3.46944695195361E-15));
#1021=CARTESIAN_POINT('',(-0.535533905932739,5.,-3.));
#1022=CARTESIAN_POINT('',(-0.535533905932739,16.4012194668567,-3.));
#1023=CARTESIAN_POINT('',(-0.535533905932736,0.316055728019216,-3.));
#1024=CARTESIAN_POINT('',(-0.535533905932735,0.316055728019216,-3.));
#1025=CARTESIAN_POINT('',(-0.932317442570608,0.130795199688665,-2.60321646336213));
#1026=CARTESIAN_POINT('',(-1.34943591082814,-4.38727426737547E-15,-2.1860979951046));
#1027=CARTESIAN_POINT('',(-1.76776695296637,-4.27350998085033E-15,-1.76776695296637));
#1028=CARTESIAN_POINT('',(0.,5.,0.));
#1029=CARTESIAN_POINT('',(-3.,5.,0.));
#1030=CARTESIAN_POINT('',(3.18397651993818E-16,5.,5.97395397039513E-15));
#1031=CARTESIAN_POINT('',(0.,0.,0.));
#1032=CARTESIAN_POINT('',(-3.,0.316055728019217,0.535533905932741));
#1033=CARTESIAN_POINT('',(-3.,0.280180197301531,0.181939850134957));
#1034=CARTESIAN_POINT('',(-3.,0.280027601140853,-0.180435841852345));
#1035=CARTESIAN_POINT('',(-3.,0.316055728019186,-0.535533905932739));
#1036=CARTESIAN_POINT('',(0.,0.,0.));
#1037=CARTESIAN_POINT('',(-5.91027467065172E-17,5.,-3.53553390593274));
#1038=CARTESIAN_POINT('',(2.99999999999999,15.738907313902,-0.535533905932738));
#1039=CARTESIAN_POINT('',(2.99999999999999,5.,-0.535533905932738));
#1040=CARTESIAN_POINT('',(2.99999999999999,0.316055728019213,-0.535533905932738));
#1041=CARTESIAN_POINT('',(2.99999999999999,0.316055728019213,-0.535533905932739));
#1042=CARTESIAN_POINT('',(2.60321646336212,0.130795199688663,-0.93231744257061));
#1043=CARTESIAN_POINT('',(2.1860979951046,-5.07803483241702E-15,-1.34943591082814));
#1044=CARTESIAN_POINT('',(1.76776695296637,-5.11595626125873E-15,-1.76776695296637));
#1045=CARTESIAN_POINT('',(1.76776695296637,-1.08240932133992E-16,-1.76776695296637));
#1046=CARTESIAN_POINT('',(1.76776695296637,-5.11595626125873E-15,-1.76776695296637));
#1047=CARTESIAN_POINT('',(1.34850484770196,-5.0779504321681E-15,-2.18702905823077));
#1048=CARTESIAN_POINT('',(0.936269594062864,0.128949917296905,-2.59926431186987));
#1049=CARTESIAN_POINT('',(0.535533905932736,0.316055728019216,-3.));
#1050=CARTESIAN_POINT('',(0.535533905932735,0.316055728019216,-3.));
#1051=CARTESIAN_POINT('',(0.535533905932735,16.4012194668567,-3.));
#1052=CARTESIAN_POINT('',(0.535533905932735,5.,-3.));
#1053=CARTESIAN_POINT('',(-5.91027467065172E-17,5.,-3.53553390593274));
#1054=CARTESIAN_POINT('',(1.0466566978736,5.,-2.48887720805914));
#1055=CARTESIAN_POINT('',(-5.91027467065172E-17,5.,-3.53553390593274));
#1056=CARTESIAN_POINT('',(-5.91027467065172E-17,5.,-3.53553390593274));
#1057=CARTESIAN_POINT('',(2.48887720805914,5.,-1.04665669787359));
#1058=CARTESIAN_POINT('',(-5.91027467065172E-17,5.,-3.53553390593274));
#1059=CARTESIAN_POINT('',(0.,5.,0.));
#1060=CARTESIAN_POINT('',(0.,5.,-3.));
#1061=CARTESIAN_POINT('',(3.18397651993818E-16,5.,5.97395397039513E-15));
#1062=CARTESIAN_POINT('',(0.,0.,0.));
#1063=CARTESIAN_POINT('',(-0.535533905932736,0.316055728019216,-3.));
#1064=CARTESIAN_POINT('',(-0.181939850134953,0.280180197301531,-3.));
#1065=CARTESIAN_POINT('',(0.180435841852347,0.280027601140853,-3.));
#1066=CARTESIAN_POINT('',(0.53553390593274,0.316055728019186,-3.));
#1067=CARTESIAN_POINT('',(0.,0.,0.));
#1068=CARTESIAN_POINT('',(0.,5.,0.));
#1069=CARTESIAN_POINT('',(2.99999999999999,5.,0.));
#1070=CARTESIAN_POINT('',(3.18397651993818E-16,5.,5.97395397039513E-15));
#1071=CARTESIAN_POINT('',(1.0466566978736,5.,-2.48887720805914));
#1072=CARTESIAN_POINT('',(0.969126572105184,5.,-2.30451593338809));
#1073=CARTESIAN_POINT('',(0.969126572105184,5.2,-2.30451593338809));
#1074=CARTESIAN_POINT('',(1.16349415988989,5.,-2.37203974604277));
#1075=CARTESIAN_POINT('',(1.0805826837327,5.05398629744346,-2.25764497064198));
#1076=CARTESIAN_POINT('',(1.12143951649261,5.19999987474742,-2.2404632099754));
#1077=CARTESIAN_POINT('',(1.40486542179309,4.99999999999925,-2.13066848413968));
#1078=CARTESIAN_POINT('',(1.37779191020859,5.07359628361223,-2.10744798644152));
#1079=CARTESIAN_POINT('',(1.41056395177175,5.13936843581175,-2.08260382301466));
#1080=CARTESIAN_POINT('',(1.64476411412533,5.00000000000149,-1.8907697918074));
#1081=CARTESIAN_POINT('',(1.64931971997122,5.02367140815872,-1.88621418591189));
#1082=CARTESIAN_POINT('',(1.65387543552098,5.04734279440158,-1.88165847041175));
#1083=CARTESIAN_POINT('',(1.76776695296637,5.,-1.76776695296636));
#1084=CARTESIAN_POINT('',(1.76776695296637,5.,-1.76776695296636));
#1085=CARTESIAN_POINT('',(1.76776695296637,5.,-1.76776695296636));
#1086=CARTESIAN_POINT('',(1.0466566978736,5.2,-2.48887720805914));
#1087=CARTESIAN_POINT('',(3.18397651993818E-16,5.2,5.97395397039513E-15));
#1088=CARTESIAN_POINT('',(-1.0466566978736,5.2,-2.48887720805913));
#1089=CARTESIAN_POINT('',(-0.969126572105185,5.2,-2.30451593338809));
#1090=CARTESIAN_POINT('',(-0.969126572105185,5.,-2.30451593338809));
#1091=CARTESIAN_POINT('',(-1.0466566978736,5.,-2.48887720805914));
#1092=CARTESIAN_POINT('',(-1.12143951649228,5.19999987474742,-2.24046320997554));
#1093=CARTESIAN_POINT('',(-1.0805826837325,5.05398629744366,-2.25764497064214));
#1094=CARTESIAN_POINT('',(-1.16349415988989,5.,-2.37203974604285));
#1095=CARTESIAN_POINT('',(-1.41056395177199,5.13936843581018,-2.08260382301452));
#1096=CARTESIAN_POINT('',(-1.37779191020871,5.07359628361133,-2.1074479864413));
#1097=CARTESIAN_POINT('',(-1.40486542179315,4.99999999999926,-2.13066848413959));
#1098=CARTESIAN_POINT('',(-1.65387543552083,5.04734279440473,-1.88165847041189));
#1099=CARTESIAN_POINT('',(-1.64931971997117,5.02367140816029,-1.88621418591218));
#1100=CARTESIAN_POINT('',(-1.6447641141252,5.00000000000149,-1.89076979180753));
#1101=CARTESIAN_POINT('',(-1.76776695296637,5.,-1.76776695296636));
#1102=CARTESIAN_POINT('',(-1.76776695296637,5.,-1.76776695296636));
#1103=CARTESIAN_POINT('',(-1.76776695296636,5.,-1.76776695296636));
#1104=CARTESIAN_POINT('',(-2.48887720805914,5.,-1.0466566978736));
#1105=CARTESIAN_POINT('',(-2.30451593338809,5.,-0.969126572105181));
#1106=CARTESIAN_POINT('',(-2.30451593338809,5.2,-0.969126572105181));
#1107=CARTESIAN_POINT('',(-2.37203974604293,5.,-1.1634941598898));
#1108=CARTESIAN_POINT('',(-2.25764497064206,5.05398629744361,-1.08058268373234));
#1109=CARTESIAN_POINT('',(-2.24046320997555,5.19999987474742,-1.12143951649226));
#1110=CARTESIAN_POINT('',(-2.13066848413972,4.99999999999926,-1.40486542179302));
#1111=CARTESIAN_POINT('',(-2.10744798644153,5.07359628361188,-1.37779191020861));
#1112=CARTESIAN_POINT('',(-2.08260382301456,5.13936843581105,-1.41056395177196));
#1113=CARTESIAN_POINT('',(-1.89076979180719,5.00000000000149,-1.64476411412554));
#1114=CARTESIAN_POINT('',(-1.88621418591186,5.02367140815927,-1.64931971997139));
#1115=CARTESIAN_POINT('',(-1.88165847041182,5.04734279440299,-1.6538754355209));
#1116=CARTESIAN_POINT('',(-1.76776695296637,5.,-1.76776695296636));
#1117=CARTESIAN_POINT('',(-1.76776695296637,5.,-1.76776695296636));
#1118=CARTESIAN_POINT('',(-1.76776695296637,5.,-1.76776695296636));
#1119=CARTESIAN_POINT('',(-2.48887720805914,5.2,-1.0466566978736));
#1120=CARTESIAN_POINT('',(3.18397651993818E-16,5.2,5.97395397039513E-15));
#1121=CARTESIAN_POINT('',(-2.48887720805914,5.2,1.0466566978736));
#1122=CARTESIAN_POINT('',(-2.3045159333881,5.2,0.969126572105183));
#1123=CARTESIAN_POINT('',(-2.3045159333881,5.,0.969126572105183));
#1124=CARTESIAN_POINT('',(-2.48887720805914,5.,1.0466566978736));
#1125=CARTESIAN_POINT('',(-2.24046320997547,5.19999987474742,1.12143951649248));
#1126=CARTESIAN_POINT('',(-2.25764497064224,5.05398629744384,1.08058268373247));
#1127=CARTESIAN_POINT('',(-2.37203974604297,5.,1.16349415988979));
#1128=CARTESIAN_POINT('',(-2.08260382301395,5.13936843581349,1.41056395177251));
#1129=CARTESIAN_POINT('',(-2.10744798644066,5.07359628361315,1.37779191020946));
#1130=CARTESIAN_POINT('',(-2.13066848413877,4.99999999999925,1.40486542179396));
#1131=CARTESIAN_POINT('',(-1.88165847041314,5.04734279439809,1.65387543551959));
#1132=CARTESIAN_POINT('',(-1.88621418591335,5.02367140815665,1.64931971996975));
#1133=CARTESIAN_POINT('',(-1.89076979180906,5.00000000000149,1.64476411412367));
#1134=CARTESIAN_POINT('',(-1.76776695296636,5.,1.76776695296637));
#1135=CARTESIAN_POINT('',(-1.76776695296636,5.,1.76776695296637));
#1136=CARTESIAN_POINT('',(-1.76776695296636,5.,1.76776695296637));
#1137=CARTESIAN_POINT('',(2.48887720805915,5.,1.0466566978736));
#1138=CARTESIAN_POINT('',(2.3045159333881,5.,0.969126572105183));
#1139=CARTESIAN_POINT('',(2.3045159333881,5.2,0.969126572105183));
#1140=CARTESIAN_POINT('',(2.37203974604297,5.,1.16349415988975));
#1141=CARTESIAN_POINT('',(2.25764497064213,5.05398629744366,1.08058268373266));
#1142=CARTESIAN_POINT('',(2.24046320997539,5.19999987474742,1.12143951649265));
#1143=CARTESIAN_POINT('',(2.13066848413925,4.99999999999926,1.40486542179351));
#1144=CARTESIAN_POINT('',(2.10744798644105,5.07359628361314,1.37779191020891));
#1145=CARTESIAN_POINT('',(2.0826038230144,5.13936843581362,1.41056395177202));
#1146=CARTESIAN_POINT('',(1.89076979180808,5.00000000000149,1.64476411412465));
#1147=CARTESIAN_POINT('',(1.88621418591267,5.02367140815682,1.64931971997068));
#1148=CARTESIAN_POINT('',(1.88165847041231,5.04734279439783,1.65387543552043));
#1149=CARTESIAN_POINT('',(1.76776695296636,5.,1.76776695296637));
#1150=CARTESIAN_POINT('',(1.76776695296636,5.,1.76776695296637));
#1151=CARTESIAN_POINT('',(1.76776695296636,5.,1.76776695296637));
#1152=CARTESIAN_POINT('',(2.48887720805914,5.2,1.0466566978736));
#1153=CARTESIAN_POINT('',(3.18397651993818E-16,5.2,5.97395397039513E-15));
#1154=CARTESIAN_POINT('',(2.48887720805914,5.2,-1.04665669787359));
#1155=CARTESIAN_POINT('',(2.30451593338809,5.2,-0.969126572105176));
#1156=CARTESIAN_POINT('',(2.30451593338809,5.,-0.969126572105176));
#1157=CARTESIAN_POINT('',(2.48887720805914,5.,-1.04665669787359));
#1158=CARTESIAN_POINT('',(2.24046320997542,5.19999987474742,-1.12143951649257));
#1159=CARTESIAN_POINT('',(2.25764497064199,5.0539862974438,-1.08058268373267));
#1160=CARTESIAN_POINT('',(2.37203974604282,5.,-1.16349415988986));
#1161=CARTESIAN_POINT('',(2.08260382301448,5.13936843581092,-1.41056395177194));
#1162=CARTESIAN_POINT('',(2.10744798644126,5.07359628361161,-1.37779191020881));
#1163=CARTESIAN_POINT('',(2.13066848413944,4.99999999999925,-1.40486542179333));
#1164=CARTESIAN_POINT('',(1.88165847041213,5.04734279440324,-1.6538754355206));
#1165=CARTESIAN_POINT('',(1.8862141859124,5.02367140815964,-1.64931971997079));
#1166=CARTESIAN_POINT('',(1.89076979180789,5.00000000000149,-1.64476411412484));
#1167=CARTESIAN_POINT('',(1.76776695296637,5.,-1.76776695296636));
#1168=CARTESIAN_POINT('',(1.76776695296637,5.,-1.76776695296636));
#1169=CARTESIAN_POINT('',(1.76776695296637,5.,-1.76776695296636));
#1170=CARTESIAN_POINT('',(-1.04665669787359,5.,2.48887720805915));
#1171=CARTESIAN_POINT('',(-0.969126572105172,5.,2.3045159333881));
#1172=CARTESIAN_POINT('',(-0.969126572105171,5.2,2.3045159333881));
#1173=CARTESIAN_POINT('',(-1.16349415988966,5.,2.3720397460431));
#1174=CARTESIAN_POINT('',(-1.08058268373252,5.05398629744392,2.25764497064195));
#1175=CARTESIAN_POINT('',(-1.12143951649267,5.19999987474742,2.24046320997539));
#1176=CARTESIAN_POINT('',(-1.40486542179368,4.99999999999926,2.13066848413905));
#1177=CARTESIAN_POINT('',(-1.37779191020911,5.07359628361333,2.10744798644095));
#1178=CARTESIAN_POINT('',(-1.41056395177224,5.1393684358142,2.08260382301417));
#1179=CARTESIAN_POINT('',(-1.64476411412435,5.00000000000149,1.89076979180839));
#1180=CARTESIAN_POINT('',(-1.64931971997033,5.02367140815624,1.88621418591306));
#1181=CARTESIAN_POINT('',(-1.65387543551994,5.04734279439666,1.8816584704128));
#1182=CARTESIAN_POINT('',(-1.76776695296636,5.,1.76776695296637));
#1183=CARTESIAN_POINT('',(-1.76776695296636,5.,1.76776695296637));
#1184=CARTESIAN_POINT('',(-1.76776695296636,5.,1.76776695296637));
#1185=CARTESIAN_POINT('',(-1.04665669787359,5.2,2.48887720805915));
#1186=CARTESIAN_POINT('',(3.18397651993818E-16,5.2,5.97395397039513E-15));
#1187=CARTESIAN_POINT('',(1.04665669787359,5.2,2.48887720805915));
#1188=CARTESIAN_POINT('',(0.969126572105174,5.2,2.3045159333881));
#1189=CARTESIAN_POINT('',(0.969126572105173,5.,2.3045159333881));
#1190=CARTESIAN_POINT('',(1.04665669787359,5.,2.48887720805915));
#1191=CARTESIAN_POINT('',(1.12143951649297,5.19999987474742,2.24046320997526));
#1192=CARTESIAN_POINT('',(1.08058268373291,5.05398629744384,2.25764497064193));
#1193=CARTESIAN_POINT('',(1.16349415988992,5.,2.37203974604282));
#1194=CARTESIAN_POINT('',(1.41056395177216,5.13936843581291,2.08260382301416));
#1195=CARTESIAN_POINT('',(1.3777919102091,5.07359628361274,2.10744798644092));
#1196=CARTESIAN_POINT('',(1.40486542179369,4.99999999999925,2.13066848413905));
#1197=CARTESIAN_POINT('',(1.65387543551977,5.04734279439926,1.88165847041296));
#1198=CARTESIAN_POINT('',(1.64931971997004,5.02367140815742,1.88621418591315));
#1199=CARTESIAN_POINT('',(1.64476411412406,5.00000000000149,1.89076979180868));
#1200=CARTESIAN_POINT('',(1.76776695296636,5.,1.76776695296637));
#1201=CARTESIAN_POINT('',(1.76776695296636,5.,1.76776695296637));
#1202=CARTESIAN_POINT('',(1.76776695296636,5.,1.76776695296637));
#1203=CARTESIAN_POINT('',(0.,0.,0.));
#1204=CARTESIAN_POINT('',(2.99999999999999,0.316055728019214,0.535533905932751));
#1205=CARTESIAN_POINT('',(2.99999999999999,0.280180197301527,0.181939850134962));
#1206=CARTESIAN_POINT('',(2.99999999999999,0.280027601140849,-0.180435841852344));
#1207=CARTESIAN_POINT('',(2.99999999999999,0.316055728019183,-0.535533905932742));
#1208=CARTESIAN_POINT('',(0.,0.,0.));
#1209=CARTESIAN_POINT('',(0.,0.,0.));
#1210=CARTESIAN_POINT('',(-0.535533905932739,16.4012194668567,-3.));
#1211=CARTESIAN_POINT('',(-3.,16.1775524550408,0.535533905932742));
#1212=CARTESIAN_POINT('',(-0.535533905932747,15.9507494140932,2.99999999999999));
#1213=CARTESIAN_POINT('',(2.99999999999999,15.738907313902,0.535533905932751));
#1214=CARTESIAN_POINT('',(7.71502002908098E-16,12.6,0.));
#1215=CARTESIAN_POINT('',(7.95994129984545E-16,13.,0.));
#1216=CARTESIAN_POINT('',(2.09999999999999,13.,0.));
#1217=CARTESIAN_POINT('',(7.95994129984545E-16,13.,-1.73472347597681E-15));
#1218=MECHANICAL_DESIGN_GEOMETRIC_PRESENTATION_REPRESENTATION('',(#470,
#471,#472,#473,#474,#475,#476,#477,#478,#479,#480,#481,#482,#483,#484,#485,
#486,#487,#488,#489,#490,#491,#492,#493,#494,#495,#496,#497,#498,#499,#500,
#501),#1219);
#1219=(
GEOMETRIC_REPRESENTATION_CONTEXT(3)
GLOBAL_UNCERTAINTY_ASSIGNED_CONTEXT((#1220))
GLOBAL_UNIT_ASSIGNED_CONTEXT((#1223,#1222,#1221))
REPRESENTATION_CONTEXT('\X2\65B959345E737AEF7D275B9A87BA9489\X0\ 2018',
'TOP_LEVEL_ASSEMBLY_PART')
);
#1220=UNCERTAINTY_MEASURE_WITH_UNIT(LENGTH_MEASURE(0.005),#1223,
'DISTANCE_ACCURACY_VALUE','Maximum Tolerance applied to model');
#1221=(
NAMED_UNIT(*)
SI_UNIT($,.STERADIAN.)
SOLID_ANGLE_UNIT()
);
#1222=(
NAMED_UNIT(*)
PLANE_ANGLE_UNIT()
SI_UNIT($,.RADIAN.)
);
#1223=(
LENGTH_UNIT()
NAMED_UNIT(*)
SI_UNIT(.MILLI.,.METRE.)
);
#1224=PRODUCT_DEFINITION_SHAPE('','',#1225);
#1225=PRODUCT_DEFINITION('','',#1227,#1226);
#1226=PRODUCT_DEFINITION_CONTEXT('',#1233,'design');
#1227=PRODUCT_DEFINITION_FORMATION_WITH_SPECIFIED_SOURCE('','',#1229,
 .NOT_KNOWN.);
#1228=PRODUCT_RELATED_PRODUCT_CATEGORY('','',(#1229));
#1229=PRODUCT('\X2\65B959345E737AEF7D275B9A87BA9489\X0\ 2018',
'\X2\65B959345E737AEF7D275B9A87BA9489\X0\ 2018',
'\X2\65B959345E737AEF7D275B9A87BA9489\X0\ 2018',(#1231));
#1230=PRODUCT_CATEGORY('','');
#1231=PRODUCT_CONTEXT('',#1233,'mechanical');
#1232=APPLICATION_PROTOCOL_DEFINITION('international standard',
'automotive_design',2010,#1233);
#1233=APPLICATION_CONTEXT(
'core data for automotive mechanical design processes');
ENDSEC;
END-ISO-10303-21;
