ISO-10303-21;
HEADER;
/* Generated by software containing HOOPS Exchange Step
 * from HOOPS Exchange, Inc. (www.tiangong.cloud) 
 */

FILE_DESCRIPTION(
/* description */ ('Unknown'),
/* implementation_level */ '2;1');

FILE_NAME(
/* name */ '\X2\53415B5769FD76D8593487BA948930015F397C2757AB5708548C5E7357AB57087EC454084EF6\X0\',

/* time_stamp */ '2025-06-23T13:51:41+08:00',
/* author */ ('Unknown'),
/* organization */ ('Unknown'),
/* preprocessor_version */ 'ST-DEVELOPER v19.4',
/* originating_system */ 'TianGong',
/* authorisation */ 'Unknown');

FILE_SCHEMA (('AUTOMOTIVE_DESIGN {1 0 10303 214 3 1 1}'));
ENDSEC;

DATA;
#10=PROPERTY_DEFINITION_REPRESENTATION(#14,#12);
#11=PROPERTY_DEFINITION_REPRESENTATION(#15,#13);
#12=REPRESENTATION('',(#16),#950);
#13=REPRESENTATION('',(#17),#950);
#14=PROPERTY_DEFINITION('pmi validation property','',#955);
#15=PROPERTY_DEFINITION('pmi validation property','',#955);
#16=VALUE_REPRESENTATION_ITEM('number of annotations',COUNT_MEASURE(0.));
#17=VALUE_REPRESENTATION_ITEM('number of views',COUNT_MEASURE(0.));
#18=SHAPE_REPRESENTATION_RELATIONSHIP('','',#625,#19);
#19=ADVANCED_BREP_SHAPE_REPRESENTATION('',(#623),#950);
#20=TOROIDAL_SURFACE('',#680,2.35,0.2);
#21=CONICAL_SURFACE('',#678,2.15,0.0374824366916617);
#22=LINE('',#876,#42);
#23=LINE('',#878,#43);
#24=LINE('',#880,#44);
#25=LINE('',#882,#45);
#26=LINE('',#884,#46);
#27=LINE('',#886,#47);
#28=LINE('',#888,#48);
#29=LINE('',#890,#49);
#30=LINE('',#892,#50);
#31=LINE('',#894,#51);
#32=LINE('',#896,#52);
#33=LINE('',#898,#53);
#34=LINE('',#900,#54);
#35=LINE('',#902,#55);
#36=LINE('',#904,#56);
#37=LINE('',#906,#57);
#38=LINE('',#908,#58);
#39=LINE('',#910,#59);
#40=LINE('',#912,#60);
#41=LINE('',#914,#61);
#42=VECTOR('',#723,1000.);
#43=VECTOR('',#724,1000.);
#44=VECTOR('',#725,1000.);
#45=VECTOR('',#728,1000.);
#46=VECTOR('',#731,1000.);
#47=VECTOR('',#732,1000.);
#48=VECTOR('',#735,1000.);
#49=VECTOR('',#736,1000.);
#50=VECTOR('',#739,1000.);
#51=VECTOR('',#742,1000.);
#52=VECTOR('',#743,1000.);
#53=VECTOR('',#746,1000.);
#54=VECTOR('',#747,1000.);
#55=VECTOR('',#750,1000.);
#56=VECTOR('',#753,1000.);
#57=VECTOR('',#754,1000.);
#58=VECTOR('',#757,1000.);
#59=VECTOR('',#758,1000.);
#60=VECTOR('',#761,1000.);
#61=VECTOR('',#764,1000.);
#62=CYLINDRICAL_SURFACE('',#644,4.);
#63=CYLINDRICAL_SURFACE('',#662,0.88);
#64=CYLINDRICAL_SURFACE('',#663,0.88);
#65=CYLINDRICAL_SURFACE('',#664,0.88);
#66=CYLINDRICAL_SURFACE('',#665,0.88);
#67=CYLINDRICAL_SURFACE('',#666,3.39);
#68=CYLINDRICAL_SURFACE('',#670,4.5);
#69=CYLINDRICAL_SURFACE('',#676,2.);
#70=CYLINDRICAL_SURFACE('',#682,2.35);
#71=B_SPLINE_CURVE_WITH_KNOTS('',3,(#827,#828,#829,#830,#831),
 .UNSPECIFIED.,.F.,.F.,(4,1,4),(0.,0.000692820133622123,0.00138564026724425),
 .UNSPECIFIED.);
#72=B_SPLINE_CURVE_WITH_KNOTS('',3,(#839,#840,#841,#842,#843),
 .UNSPECIFIED.,.F.,.F.,(4,1,4),(0.,0.000692820133622124,0.00138564026724425),
 .UNSPECIFIED.);
#73=B_SPLINE_CURVE_WITH_KNOTS('',3,(#851,#852,#853,#854,#855),
 .UNSPECIFIED.,.F.,.F.,(4,1,4),(0.,0.000692820133622124,0.00138564026724425),
 .UNSPECIFIED.);
#74=B_SPLINE_CURVE_WITH_KNOTS('',3,(#863,#864,#865,#866,#867),
 .UNSPECIFIED.,.F.,.F.,(4,1,4),(0.,0.000692820133622123,0.00138564026724425),
 .UNSPECIFIED.);
#75=SPHERICAL_SURFACE('',#630,6.5);
#76=ORIENTED_EDGE('',*,*,#178,.F.);
#77=ORIENTED_EDGE('',*,*,#179,.F.);
#78=ORIENTED_EDGE('',*,*,#180,.F.);
#79=ORIENTED_EDGE('',*,*,#181,.T.);
#80=ORIENTED_EDGE('',*,*,#182,.F.);
#81=ORIENTED_EDGE('',*,*,#183,.F.);
#82=ORIENTED_EDGE('',*,*,#184,.F.);
#83=ORIENTED_EDGE('',*,*,#185,.T.);
#84=ORIENTED_EDGE('',*,*,#186,.F.);
#85=ORIENTED_EDGE('',*,*,#187,.F.);
#86=ORIENTED_EDGE('',*,*,#188,.F.);
#87=ORIENTED_EDGE('',*,*,#189,.T.);
#88=ORIENTED_EDGE('',*,*,#190,.F.);
#89=ORIENTED_EDGE('',*,*,#191,.F.);
#90=ORIENTED_EDGE('',*,*,#192,.F.);
#91=ORIENTED_EDGE('',*,*,#193,.T.);
#92=ORIENTED_EDGE('',*,*,#194,.F.);
#93=ORIENTED_EDGE('',*,*,#195,.F.);
#94=ORIENTED_EDGE('',*,*,#196,.T.);
#95=ORIENTED_EDGE('',*,*,#179,.T.);
#96=ORIENTED_EDGE('',*,*,#196,.F.);
#97=ORIENTED_EDGE('',*,*,#187,.T.);
#98=ORIENTED_EDGE('',*,*,#197,.T.);
#99=ORIENTED_EDGE('',*,*,#198,.T.);
#100=ORIENTED_EDGE('',*,*,#199,.F.);
#101=ORIENTED_EDGE('',*,*,#186,.T.);
#102=ORIENTED_EDGE('',*,*,#200,.T.);
#103=ORIENTED_EDGE('',*,*,#197,.F.);
#104=ORIENTED_EDGE('',*,*,#201,.T.);
#105=ORIENTED_EDGE('',*,*,#202,.T.);
#106=ORIENTED_EDGE('',*,*,#184,.T.);
#107=ORIENTED_EDGE('',*,*,#183,.T.);
#108=ORIENTED_EDGE('',*,*,#203,.T.);
#109=ORIENTED_EDGE('',*,*,#204,.T.);
#110=ORIENTED_EDGE('',*,*,#201,.F.);
#111=ORIENTED_EDGE('',*,*,#182,.T.);
#112=ORIENTED_EDGE('',*,*,#205,.T.);
#113=ORIENTED_EDGE('',*,*,#203,.F.);
#114=ORIENTED_EDGE('',*,*,#206,.T.);
#115=ORIENTED_EDGE('',*,*,#207,.T.);
#116=ORIENTED_EDGE('',*,*,#180,.T.);
#117=ORIENTED_EDGE('',*,*,#195,.T.);
#118=ORIENTED_EDGE('',*,*,#208,.T.);
#119=ORIENTED_EDGE('',*,*,#209,.T.);
#120=ORIENTED_EDGE('',*,*,#206,.F.);
#121=ORIENTED_EDGE('',*,*,#194,.T.);
#122=ORIENTED_EDGE('',*,*,#210,.T.);
#123=ORIENTED_EDGE('',*,*,#208,.F.);
#124=ORIENTED_EDGE('',*,*,#211,.T.);
#125=ORIENTED_EDGE('',*,*,#212,.T.);
#126=ORIENTED_EDGE('',*,*,#192,.T.);
#127=ORIENTED_EDGE('',*,*,#191,.T.);
#128=ORIENTED_EDGE('',*,*,#213,.T.);
#129=ORIENTED_EDGE('',*,*,#214,.T.);
#130=ORIENTED_EDGE('',*,*,#211,.F.);
#131=ORIENTED_EDGE('',*,*,#190,.T.);
#132=ORIENTED_EDGE('',*,*,#215,.T.);
#133=ORIENTED_EDGE('',*,*,#213,.F.);
#134=ORIENTED_EDGE('',*,*,#199,.T.);
#135=ORIENTED_EDGE('',*,*,#216,.T.);
#136=ORIENTED_EDGE('',*,*,#188,.T.);
#137=ORIENTED_EDGE('',*,*,#204,.F.);
#138=ORIENTED_EDGE('',*,*,#217,.T.);
#139=ORIENTED_EDGE('',*,*,#209,.F.);
#140=ORIENTED_EDGE('',*,*,#218,.T.);
#141=ORIENTED_EDGE('',*,*,#214,.F.);
#142=ORIENTED_EDGE('',*,*,#219,.T.);
#143=ORIENTED_EDGE('',*,*,#198,.F.);
#144=ORIENTED_EDGE('',*,*,#220,.T.);
#145=ORIENTED_EDGE('',*,*,#185,.F.);
#146=ORIENTED_EDGE('',*,*,#202,.F.);
#147=ORIENTED_EDGE('',*,*,#220,.F.);
#148=ORIENTED_EDGE('',*,*,#200,.F.);
#149=ORIENTED_EDGE('',*,*,#193,.F.);
#150=ORIENTED_EDGE('',*,*,#212,.F.);
#151=ORIENTED_EDGE('',*,*,#218,.F.);
#152=ORIENTED_EDGE('',*,*,#210,.F.);
#153=ORIENTED_EDGE('',*,*,#189,.F.);
#154=ORIENTED_EDGE('',*,*,#216,.F.);
#155=ORIENTED_EDGE('',*,*,#219,.F.);
#156=ORIENTED_EDGE('',*,*,#215,.F.);
#157=ORIENTED_EDGE('',*,*,#181,.F.);
#158=ORIENTED_EDGE('',*,*,#207,.F.);
#159=ORIENTED_EDGE('',*,*,#217,.F.);
#160=ORIENTED_EDGE('',*,*,#205,.F.);
#161=ORIENTED_EDGE('',*,*,#221,.T.);
#162=ORIENTED_EDGE('',*,*,#178,.T.);
#163=ORIENTED_EDGE('',*,*,#222,.T.);
#164=ORIENTED_EDGE('',*,*,#221,.F.);
#165=ORIENTED_EDGE('',*,*,#223,.T.);
#166=ORIENTED_EDGE('',*,*,#222,.F.);
#167=ORIENTED_EDGE('',*,*,#224,.T.);
#168=ORIENTED_EDGE('',*,*,#223,.F.);
#169=ORIENTED_EDGE('',*,*,#225,.F.);
#170=ORIENTED_EDGE('',*,*,#225,.T.);
#171=ORIENTED_EDGE('',*,*,#226,.F.);
#172=ORIENTED_EDGE('',*,*,#226,.T.);
#173=ORIENTED_EDGE('',*,*,#227,.F.);
#174=ORIENTED_EDGE('',*,*,#227,.T.);
#175=ORIENTED_EDGE('',*,*,#228,.F.);
#176=ORIENTED_EDGE('',*,*,#228,.T.);
#177=ORIENTED_EDGE('',*,*,#224,.F.);
#178=EDGE_CURVE('',#229,#229,#264,.T.);
#179=EDGE_CURVE('',#230,#230,#265,.T.);
#180=EDGE_CURVE('',#231,#232,#266,.T.);
#181=EDGE_CURVE('',#231,#233,#71,.T.);
#182=EDGE_CURVE('',#234,#233,#267,.T.);
#183=EDGE_CURVE('',#235,#234,#268,.T.);
#184=EDGE_CURVE('',#236,#235,#269,.T.);
#185=EDGE_CURVE('',#236,#237,#72,.T.);
#186=EDGE_CURVE('',#238,#237,#270,.T.);
#187=EDGE_CURVE('',#239,#238,#271,.T.);
#188=EDGE_CURVE('',#240,#239,#272,.T.);
#189=EDGE_CURVE('',#240,#241,#73,.T.);
#190=EDGE_CURVE('',#242,#241,#273,.T.);
#191=EDGE_CURVE('',#243,#242,#274,.T.);
#192=EDGE_CURVE('',#244,#243,#275,.T.);
#193=EDGE_CURVE('',#244,#245,#74,.T.);
#194=EDGE_CURVE('',#246,#245,#276,.T.);
#195=EDGE_CURVE('',#232,#246,#277,.T.);
#196=EDGE_CURVE('',#247,#247,#278,.T.);
#197=EDGE_CURVE('',#238,#248,#22,.T.);
#198=EDGE_CURVE('',#248,#249,#23,.F.);
#199=EDGE_CURVE('',#239,#249,#24,.T.);
#200=EDGE_CURVE('',#237,#248,#25,.F.);
#201=EDGE_CURVE('',#235,#250,#26,.T.);
#202=EDGE_CURVE('',#250,#236,#27,.T.);
#203=EDGE_CURVE('',#234,#251,#28,.T.);
#204=EDGE_CURVE('',#251,#250,#29,.F.);
#205=EDGE_CURVE('',#233,#251,#30,.F.);
#206=EDGE_CURVE('',#232,#252,#31,.T.);
#207=EDGE_CURVE('',#252,#231,#32,.T.);
#208=EDGE_CURVE('',#246,#253,#33,.T.);
#209=EDGE_CURVE('',#253,#252,#34,.F.);
#210=EDGE_CURVE('',#245,#253,#35,.F.);
#211=EDGE_CURVE('',#243,#254,#36,.T.);
#212=EDGE_CURVE('',#254,#244,#37,.T.);
#213=EDGE_CURVE('',#242,#255,#38,.T.);
#214=EDGE_CURVE('',#255,#254,#39,.F.);
#215=EDGE_CURVE('',#241,#255,#40,.F.);
#216=EDGE_CURVE('',#249,#240,#41,.T.);
#217=EDGE_CURVE('',#251,#252,#279,.F.);
#218=EDGE_CURVE('',#253,#254,#280,.F.);
#219=EDGE_CURVE('',#255,#249,#281,.F.);
#220=EDGE_CURVE('',#248,#250,#282,.F.);
#221=EDGE_CURVE('',#256,#256,#283,.T.);
#222=EDGE_CURVE('',#257,#257,#284,.T.);
#223=EDGE_CURVE('',#258,#258,#285,.T.);
#224=EDGE_CURVE('',#259,#259,#286,.T.);
#225=EDGE_CURVE('',#260,#260,#287,.T.);
#226=EDGE_CURVE('',#261,#261,#288,.T.);
#227=EDGE_CURVE('',#262,#262,#289,.T.);
#228=EDGE_CURVE('',#263,#263,#290,.T.);
#229=VERTEX_POINT('',#820);
#230=VERTEX_POINT('',#822);
#231=VERTEX_POINT('',#825);
#232=VERTEX_POINT('',#826);
#233=VERTEX_POINT('',#832);
#234=VERTEX_POINT('',#834);
#235=VERTEX_POINT('',#836);
#236=VERTEX_POINT('',#838);
#237=VERTEX_POINT('',#844);
#238=VERTEX_POINT('',#846);
#239=VERTEX_POINT('',#848);
#240=VERTEX_POINT('',#850);
#241=VERTEX_POINT('',#856);
#242=VERTEX_POINT('',#858);
#243=VERTEX_POINT('',#860);
#244=VERTEX_POINT('',#862);
#245=VERTEX_POINT('',#868);
#246=VERTEX_POINT('',#870);
#247=VERTEX_POINT('',#873);
#248=VERTEX_POINT('',#877);
#249=VERTEX_POINT('',#879);
#250=VERTEX_POINT('',#885);
#251=VERTEX_POINT('',#889);
#252=VERTEX_POINT('',#895);
#253=VERTEX_POINT('',#899);
#254=VERTEX_POINT('',#905);
#255=VERTEX_POINT('',#909);
#256=VERTEX_POINT('',#926);
#257=VERTEX_POINT('',#929);
#258=VERTEX_POINT('',#932);
#259=VERTEX_POINT('',#935);
#260=VERTEX_POINT('',#938);
#261=VERTEX_POINT('',#941);
#262=VERTEX_POINT('',#944);
#263=VERTEX_POINT('',#947);
#264=CIRCLE('',#628,3.39);
#265=CIRCLE('',#629,4.);
#266=CIRCLE('',#631,6.48509059304494);
#267=CIRCLE('',#632,6.48509059304494);
#268=CIRCLE('',#633,6.49772053755263);
#269=CIRCLE('',#634,6.48509059304494);
#270=CIRCLE('',#635,6.48509059304494);
#271=CIRCLE('',#636,6.49772053755263);
#272=CIRCLE('',#637,6.48509059304494);
#273=CIRCLE('',#638,6.48509059304494);
#274=CIRCLE('',#639,6.49772053755263);
#275=CIRCLE('',#640,6.48509059304494);
#276=CIRCLE('',#641,6.48509059304494);
#277=CIRCLE('',#642,6.49772053755263);
#278=CIRCLE('',#643,4.);
#279=CIRCLE('',#658,0.88);
#280=CIRCLE('',#659,0.88);
#281=CIRCLE('',#660,0.88);
#282=CIRCLE('',#661,0.88);
#283=CIRCLE('',#667,3.39);
#284=CIRCLE('',#669,4.5);
#285=CIRCLE('',#671,4.5);
#286=CIRCLE('',#673,2.35);
#287=CIRCLE('',#675,2.);
#288=CIRCLE('',#677,2.);
#289=CIRCLE('',#679,2.15);
#290=CIRCLE('',#681,2.35);
#291=EDGE_LOOP('',(#76));
#292=EDGE_LOOP('',(#77));
#293=EDGE_LOOP('',(#78,#79,#80,#81,#82,#83,#84,#85,#86,#87,#88,#89,#90,
#91,#92,#93));
#294=EDGE_LOOP('',(#94));
#295=EDGE_LOOP('',(#95));
#296=EDGE_LOOP('',(#96));
#297=EDGE_LOOP('',(#97,#98,#99,#100));
#298=EDGE_LOOP('',(#101,#102,#103));
#299=EDGE_LOOP('',(#104,#105,#106));
#300=EDGE_LOOP('',(#107,#108,#109,#110));
#301=EDGE_LOOP('',(#111,#112,#113));
#302=EDGE_LOOP('',(#114,#115,#116));
#303=EDGE_LOOP('',(#117,#118,#119,#120));
#304=EDGE_LOOP('',(#121,#122,#123));
#305=EDGE_LOOP('',(#124,#125,#126));
#306=EDGE_LOOP('',(#127,#128,#129,#130));
#307=EDGE_LOOP('',(#131,#132,#133));
#308=EDGE_LOOP('',(#134,#135,#136));
#309=EDGE_LOOP('',(#137,#138,#139,#140,#141,#142,#143,#144));
#310=EDGE_LOOP('',(#145,#146,#147,#148));
#311=EDGE_LOOP('',(#149,#150,#151,#152));
#312=EDGE_LOOP('',(#153,#154,#155,#156));
#313=EDGE_LOOP('',(#157,#158,#159,#160));
#314=EDGE_LOOP('',(#161));
#315=EDGE_LOOP('',(#162));
#316=EDGE_LOOP('',(#163));
#317=EDGE_LOOP('',(#164));
#318=EDGE_LOOP('',(#165));
#319=EDGE_LOOP('',(#166));
#320=EDGE_LOOP('',(#167));
#321=EDGE_LOOP('',(#168));
#322=EDGE_LOOP('',(#169));
#323=EDGE_LOOP('',(#170));
#324=EDGE_LOOP('',(#171));
#325=EDGE_LOOP('',(#172));
#326=EDGE_LOOP('',(#173));
#327=EDGE_LOOP('',(#174));
#328=EDGE_LOOP('',(#175));
#329=EDGE_LOOP('',(#176));
#330=EDGE_LOOP('',(#177));
#331=FACE_BOUND('',#291,.T.);
#332=FACE_BOUND('',#292,.T.);
#333=FACE_BOUND('',#293,.T.);
#334=FACE_BOUND('',#294,.T.);
#335=FACE_BOUND('',#295,.T.);
#336=FACE_BOUND('',#296,.T.);
#337=FACE_BOUND('',#297,.T.);
#338=FACE_BOUND('',#298,.T.);
#339=FACE_BOUND('',#299,.T.);
#340=FACE_BOUND('',#300,.T.);
#341=FACE_BOUND('',#301,.T.);
#342=FACE_BOUND('',#302,.T.);
#343=FACE_BOUND('',#303,.T.);
#344=FACE_BOUND('',#304,.T.);
#345=FACE_BOUND('',#305,.T.);
#346=FACE_BOUND('',#306,.T.);
#347=FACE_BOUND('',#307,.T.);
#348=FACE_BOUND('',#308,.T.);
#349=FACE_BOUND('',#309,.T.);
#350=FACE_BOUND('',#310,.T.);
#351=FACE_BOUND('',#311,.T.);
#352=FACE_BOUND('',#312,.T.);
#353=FACE_BOUND('',#313,.T.);
#354=FACE_BOUND('',#314,.T.);
#355=FACE_BOUND('',#315,.T.);
#356=FACE_BOUND('',#316,.T.);
#357=FACE_BOUND('',#317,.T.);
#358=FACE_BOUND('',#318,.T.);
#359=FACE_BOUND('',#319,.T.);
#360=FACE_BOUND('',#320,.T.);
#361=FACE_BOUND('',#321,.T.);
#362=FACE_BOUND('',#322,.T.);
#363=FACE_BOUND('',#323,.T.);
#364=FACE_BOUND('',#324,.T.);
#365=FACE_BOUND('',#325,.T.);
#366=FACE_BOUND('',#326,.T.);
#367=FACE_BOUND('',#327,.T.);
#368=FACE_BOUND('',#328,.T.);
#369=FACE_BOUND('',#329,.T.);
#370=FACE_BOUND('',#330,.T.);
#371=PLANE('',#627);
#372=PLANE('',#645);
#373=PLANE('',#646);
#374=PLANE('',#647);
#375=PLANE('',#648);
#376=PLANE('',#649);
#377=PLANE('',#650);
#378=PLANE('',#651);
#379=PLANE('',#652);
#380=PLANE('',#653);
#381=PLANE('',#654);
#382=PLANE('',#655);
#383=PLANE('',#656);
#384=PLANE('',#657);
#385=PLANE('',#668);
#386=PLANE('',#672);
#387=PLANE('',#674);
#388=STYLED_ITEM('',(#417),#593);
#389=STYLED_ITEM('',(#418),#594);
#390=STYLED_ITEM('',(#419),#595);
#391=STYLED_ITEM('',(#420),#596);
#392=STYLED_ITEM('',(#421),#597);
#393=STYLED_ITEM('',(#422),#598);
#394=STYLED_ITEM('',(#423),#599);
#395=STYLED_ITEM('',(#424),#600);
#396=STYLED_ITEM('',(#425),#601);
#397=STYLED_ITEM('',(#426),#602);
#398=STYLED_ITEM('',(#427),#603);
#399=STYLED_ITEM('',(#428),#604);
#400=STYLED_ITEM('',(#429),#605);
#401=STYLED_ITEM('',(#430),#606);
#402=STYLED_ITEM('',(#431),#607);
#403=STYLED_ITEM('',(#432),#608);
#404=STYLED_ITEM('',(#433),#609);
#405=STYLED_ITEM('',(#434),#610);
#406=STYLED_ITEM('',(#435),#611);
#407=STYLED_ITEM('',(#436),#612);
#408=STYLED_ITEM('',(#437),#613);
#409=STYLED_ITEM('',(#438),#614);
#410=STYLED_ITEM('',(#439),#615);
#411=STYLED_ITEM('',(#440),#616);
#412=STYLED_ITEM('',(#441),#617);
#413=STYLED_ITEM('',(#442),#618);
#414=STYLED_ITEM('',(#443),#619);
#415=STYLED_ITEM('',(#444),#620);
#416=STYLED_ITEM('',(#445),#621);
#417=PRESENTATION_STYLE_ASSIGNMENT((#446));
#418=PRESENTATION_STYLE_ASSIGNMENT((#447));
#419=PRESENTATION_STYLE_ASSIGNMENT((#448));
#420=PRESENTATION_STYLE_ASSIGNMENT((#449));
#421=PRESENTATION_STYLE_ASSIGNMENT((#450));
#422=PRESENTATION_STYLE_ASSIGNMENT((#451));
#423=PRESENTATION_STYLE_ASSIGNMENT((#452));
#424=PRESENTATION_STYLE_ASSIGNMENT((#453));
#425=PRESENTATION_STYLE_ASSIGNMENT((#454));
#426=PRESENTATION_STYLE_ASSIGNMENT((#455));
#427=PRESENTATION_STYLE_ASSIGNMENT((#456));
#428=PRESENTATION_STYLE_ASSIGNMENT((#457));
#429=PRESENTATION_STYLE_ASSIGNMENT((#458));
#430=PRESENTATION_STYLE_ASSIGNMENT((#459));
#431=PRESENTATION_STYLE_ASSIGNMENT((#460));
#432=PRESENTATION_STYLE_ASSIGNMENT((#461));
#433=PRESENTATION_STYLE_ASSIGNMENT((#462));
#434=PRESENTATION_STYLE_ASSIGNMENT((#463));
#435=PRESENTATION_STYLE_ASSIGNMENT((#464));
#436=PRESENTATION_STYLE_ASSIGNMENT((#465));
#437=PRESENTATION_STYLE_ASSIGNMENT((#466));
#438=PRESENTATION_STYLE_ASSIGNMENT((#467));
#439=PRESENTATION_STYLE_ASSIGNMENT((#468));
#440=PRESENTATION_STYLE_ASSIGNMENT((#469));
#441=PRESENTATION_STYLE_ASSIGNMENT((#470));
#442=PRESENTATION_STYLE_ASSIGNMENT((#471));
#443=PRESENTATION_STYLE_ASSIGNMENT((#472));
#444=PRESENTATION_STYLE_ASSIGNMENT((#473));
#445=PRESENTATION_STYLE_ASSIGNMENT((#474));
#446=SURFACE_STYLE_USAGE(.BOTH.,#475);
#447=SURFACE_STYLE_USAGE(.BOTH.,#476);
#448=SURFACE_STYLE_USAGE(.BOTH.,#477);
#449=SURFACE_STYLE_USAGE(.BOTH.,#478);
#450=SURFACE_STYLE_USAGE(.BOTH.,#479);
#451=SURFACE_STYLE_USAGE(.BOTH.,#480);
#452=SURFACE_STYLE_USAGE(.BOTH.,#481);
#453=SURFACE_STYLE_USAGE(.BOTH.,#482);
#454=SURFACE_STYLE_USAGE(.BOTH.,#483);
#455=SURFACE_STYLE_USAGE(.BOTH.,#484);
#456=SURFACE_STYLE_USAGE(.BOTH.,#485);
#457=SURFACE_STYLE_USAGE(.BOTH.,#486);
#458=SURFACE_STYLE_USAGE(.BOTH.,#487);
#459=SURFACE_STYLE_USAGE(.BOTH.,#488);
#460=SURFACE_STYLE_USAGE(.BOTH.,#489);
#461=SURFACE_STYLE_USAGE(.BOTH.,#490);
#462=SURFACE_STYLE_USAGE(.BOTH.,#491);
#463=SURFACE_STYLE_USAGE(.BOTH.,#492);
#464=SURFACE_STYLE_USAGE(.BOTH.,#493);
#465=SURFACE_STYLE_USAGE(.BOTH.,#494);
#466=SURFACE_STYLE_USAGE(.BOTH.,#495);
#467=SURFACE_STYLE_USAGE(.BOTH.,#496);
#468=SURFACE_STYLE_USAGE(.BOTH.,#497);
#469=SURFACE_STYLE_USAGE(.BOTH.,#498);
#470=SURFACE_STYLE_USAGE(.BOTH.,#499);
#471=SURFACE_STYLE_USAGE(.BOTH.,#500);
#472=SURFACE_STYLE_USAGE(.BOTH.,#501);
#473=SURFACE_STYLE_USAGE(.BOTH.,#502);
#474=SURFACE_STYLE_USAGE(.BOTH.,#503);
#475=SURFACE_SIDE_STYLE('',(#504));
#476=SURFACE_SIDE_STYLE('',(#505));
#477=SURFACE_SIDE_STYLE('',(#506));
#478=SURFACE_SIDE_STYLE('',(#507));
#479=SURFACE_SIDE_STYLE('',(#508));
#480=SURFACE_SIDE_STYLE('',(#509));
#481=SURFACE_SIDE_STYLE('',(#510));
#482=SURFACE_SIDE_STYLE('',(#511));
#483=SURFACE_SIDE_STYLE('',(#512));
#484=SURFACE_SIDE_STYLE('',(#513));
#485=SURFACE_SIDE_STYLE('',(#514));
#486=SURFACE_SIDE_STYLE('',(#515));
#487=SURFACE_SIDE_STYLE('',(#516));
#488=SURFACE_SIDE_STYLE('',(#517));
#489=SURFACE_SIDE_STYLE('',(#518));
#490=SURFACE_SIDE_STYLE('',(#519));
#491=SURFACE_SIDE_STYLE('',(#520));
#492=SURFACE_SIDE_STYLE('',(#521));
#493=SURFACE_SIDE_STYLE('',(#522));
#494=SURFACE_SIDE_STYLE('',(#523));
#495=SURFACE_SIDE_STYLE('',(#524));
#496=SURFACE_SIDE_STYLE('',(#525));
#497=SURFACE_SIDE_STYLE('',(#526));
#498=SURFACE_SIDE_STYLE('',(#527));
#499=SURFACE_SIDE_STYLE('',(#528));
#500=SURFACE_SIDE_STYLE('',(#529));
#501=SURFACE_SIDE_STYLE('',(#530));
#502=SURFACE_SIDE_STYLE('',(#531));
#503=SURFACE_SIDE_STYLE('',(#532));
#504=SURFACE_STYLE_FILL_AREA(#533);
#505=SURFACE_STYLE_FILL_AREA(#534);
#506=SURFACE_STYLE_FILL_AREA(#535);
#507=SURFACE_STYLE_FILL_AREA(#536);
#508=SURFACE_STYLE_FILL_AREA(#537);
#509=SURFACE_STYLE_FILL_AREA(#538);
#510=SURFACE_STYLE_FILL_AREA(#539);
#511=SURFACE_STYLE_FILL_AREA(#540);
#512=SURFACE_STYLE_FILL_AREA(#541);
#513=SURFACE_STYLE_FILL_AREA(#542);
#514=SURFACE_STYLE_FILL_AREA(#543);
#515=SURFACE_STYLE_FILL_AREA(#544);
#516=SURFACE_STYLE_FILL_AREA(#545);
#517=SURFACE_STYLE_FILL_AREA(#546);
#518=SURFACE_STYLE_FILL_AREA(#547);
#519=SURFACE_STYLE_FILL_AREA(#548);
#520=SURFACE_STYLE_FILL_AREA(#549);
#521=SURFACE_STYLE_FILL_AREA(#550);
#522=SURFACE_STYLE_FILL_AREA(#551);
#523=SURFACE_STYLE_FILL_AREA(#552);
#524=SURFACE_STYLE_FILL_AREA(#553);
#525=SURFACE_STYLE_FILL_AREA(#554);
#526=SURFACE_STYLE_FILL_AREA(#555);
#527=SURFACE_STYLE_FILL_AREA(#556);
#528=SURFACE_STYLE_FILL_AREA(#557);
#529=SURFACE_STYLE_FILL_AREA(#558);
#530=SURFACE_STYLE_FILL_AREA(#559);
#531=SURFACE_STYLE_FILL_AREA(#560);
#532=SURFACE_STYLE_FILL_AREA(#561);
#533=FILL_AREA_STYLE('',(#562));
#534=FILL_AREA_STYLE('',(#563));
#535=FILL_AREA_STYLE('',(#564));
#536=FILL_AREA_STYLE('',(#565));
#537=FILL_AREA_STYLE('',(#566));
#538=FILL_AREA_STYLE('',(#567));
#539=FILL_AREA_STYLE('',(#568));
#540=FILL_AREA_STYLE('',(#569));
#541=FILL_AREA_STYLE('',(#570));
#542=FILL_AREA_STYLE('',(#571));
#543=FILL_AREA_STYLE('',(#572));
#544=FILL_AREA_STYLE('',(#573));
#545=FILL_AREA_STYLE('',(#574));
#546=FILL_AREA_STYLE('',(#575));
#547=FILL_AREA_STYLE('',(#576));
#548=FILL_AREA_STYLE('',(#577));
#549=FILL_AREA_STYLE('',(#578));
#550=FILL_AREA_STYLE('',(#579));
#551=FILL_AREA_STYLE('',(#580));
#552=FILL_AREA_STYLE('',(#581));
#553=FILL_AREA_STYLE('',(#582));
#554=FILL_AREA_STYLE('',(#583));
#555=FILL_AREA_STYLE('',(#584));
#556=FILL_AREA_STYLE('',(#585));
#557=FILL_AREA_STYLE('',(#586));
#558=FILL_AREA_STYLE('',(#587));
#559=FILL_AREA_STYLE('',(#588));
#560=FILL_AREA_STYLE('',(#589));
#561=FILL_AREA_STYLE('',(#590));
#562=FILL_AREA_STYLE_COLOUR('',#591);
#563=FILL_AREA_STYLE_COLOUR('',#591);
#564=FILL_AREA_STYLE_COLOUR('',#591);
#565=FILL_AREA_STYLE_COLOUR('',#591);
#566=FILL_AREA_STYLE_COLOUR('',#591);
#567=FILL_AREA_STYLE_COLOUR('',#591);
#568=FILL_AREA_STYLE_COLOUR('',#591);
#569=FILL_AREA_STYLE_COLOUR('',#591);
#570=FILL_AREA_STYLE_COLOUR('',#591);
#571=FILL_AREA_STYLE_COLOUR('',#591);
#572=FILL_AREA_STYLE_COLOUR('',#591);
#573=FILL_AREA_STYLE_COLOUR('',#591);
#574=FILL_AREA_STYLE_COLOUR('',#591);
#575=FILL_AREA_STYLE_COLOUR('',#591);
#576=FILL_AREA_STYLE_COLOUR('',#591);
#577=FILL_AREA_STYLE_COLOUR('',#591);
#578=FILL_AREA_STYLE_COLOUR('',#591);
#579=FILL_AREA_STYLE_COLOUR('',#591);
#580=FILL_AREA_STYLE_COLOUR('',#591);
#581=FILL_AREA_STYLE_COLOUR('',#591);
#582=FILL_AREA_STYLE_COLOUR('',#591);
#583=FILL_AREA_STYLE_COLOUR('',#591);
#584=FILL_AREA_STYLE_COLOUR('',#591);
#585=FILL_AREA_STYLE_COLOUR('',#591);
#586=FILL_AREA_STYLE_COLOUR('',#591);
#587=FILL_AREA_STYLE_COLOUR('',#592);
#588=FILL_AREA_STYLE_COLOUR('',#591);
#589=FILL_AREA_STYLE_COLOUR('',#591);
#590=FILL_AREA_STYLE_COLOUR('',#591);
#591=COLOUR_RGB('',0.506983280181885,0.531564235687256,0.550000011920929);
#592=COLOUR_RGB('',0.1875,0.75,0.581249892711639);
#593=ADVANCED_FACE('',(#331,#332),#371,.T.);
#594=ADVANCED_FACE('',(#333,#334),#75,.T.);
#595=ADVANCED_FACE('',(#335,#336),#62,.T.);
#596=ADVANCED_FACE('',(#337),#372,.T.);
#597=ADVANCED_FACE('',(#338),#373,.T.);
#598=ADVANCED_FACE('',(#339),#374,.T.);
#599=ADVANCED_FACE('',(#340),#375,.T.);
#600=ADVANCED_FACE('',(#341),#376,.T.);
#601=ADVANCED_FACE('',(#342),#377,.T.);
#602=ADVANCED_FACE('',(#343),#378,.T.);
#603=ADVANCED_FACE('',(#344),#379,.T.);
#604=ADVANCED_FACE('',(#345),#380,.T.);
#605=ADVANCED_FACE('',(#346),#381,.T.);
#606=ADVANCED_FACE('',(#347),#382,.T.);
#607=ADVANCED_FACE('',(#348),#383,.T.);
#608=ADVANCED_FACE('',(#349),#384,.T.);
#609=ADVANCED_FACE('',(#350),#63,.T.);
#610=ADVANCED_FACE('',(#351),#64,.T.);
#611=ADVANCED_FACE('',(#352),#65,.T.);
#612=ADVANCED_FACE('',(#353),#66,.T.);
#613=ADVANCED_FACE('',(#354,#355),#67,.T.);
#614=ADVANCED_FACE('',(#356,#357),#385,.T.);
#615=ADVANCED_FACE('',(#358,#359),#68,.T.);
#616=ADVANCED_FACE('',(#360,#361),#386,.T.);
#617=ADVANCED_FACE('',(#362),#387,.T.);
#618=ADVANCED_FACE('',(#363,#364),#69,.T.);
#619=ADVANCED_FACE('',(#365,#366),#21,.T.);
#620=ADVANCED_FACE('',(#367,#368),#20,.F.);
#621=ADVANCED_FACE('',(#369,#370),#70,.F.);
#622=CLOSED_SHELL('',(#593,#594,#595,#596,#597,#598,#599,#600,#601,#602,
#603,#604,#605,#606,#607,#608,#609,#610,#611,#612,#613,#614,#615,#616,#617,
#618,#619,#620,#621));
#623=MANIFOLD_SOLID_BREP('',#622);
#624=SHAPE_DEFINITION_REPRESENTATION(#955,#625);
#625=SHAPE_REPRESENTATION(
'\X2\53415B5769FD76D8593487BA948930015F397C2757AB5708548C5E7357AB57087EC454084EF6\X0\',
(#626),#950);
#626=AXIS2_PLACEMENT_3D('',#817,#683,#684);
#627=AXIS2_PLACEMENT_3D('',#818,#685,#686);
#628=AXIS2_PLACEMENT_3D('',#819,#687,#688);
#629=AXIS2_PLACEMENT_3D('',#821,#689,#690);
#630=AXIS2_PLACEMENT_3D('',#823,#691,#692);
#631=AXIS2_PLACEMENT_3D('',#824,#693,#694);
#632=AXIS2_PLACEMENT_3D('',#833,#695,#696);
#633=AXIS2_PLACEMENT_3D('',#835,#697,#698);
#634=AXIS2_PLACEMENT_3D('',#837,#699,#700);
#635=AXIS2_PLACEMENT_3D('',#845,#701,#702);
#636=AXIS2_PLACEMENT_3D('',#847,#703,#704);
#637=AXIS2_PLACEMENT_3D('',#849,#705,#706);
#638=AXIS2_PLACEMENT_3D('',#857,#707,#708);
#639=AXIS2_PLACEMENT_3D('',#859,#709,#710);
#640=AXIS2_PLACEMENT_3D('',#861,#711,#712);
#641=AXIS2_PLACEMENT_3D('',#869,#713,#714);
#642=AXIS2_PLACEMENT_3D('',#871,#715,#716);
#643=AXIS2_PLACEMENT_3D('',#872,#717,#718);
#644=AXIS2_PLACEMENT_3D('',#874,#719,#720);
#645=AXIS2_PLACEMENT_3D('',#875,#721,#722);
#646=AXIS2_PLACEMENT_3D('',#881,#726,#727);
#647=AXIS2_PLACEMENT_3D('',#883,#729,#730);
#648=AXIS2_PLACEMENT_3D('',#887,#733,#734);
#649=AXIS2_PLACEMENT_3D('',#891,#737,#738);
#650=AXIS2_PLACEMENT_3D('',#893,#740,#741);
#651=AXIS2_PLACEMENT_3D('',#897,#744,#745);
#652=AXIS2_PLACEMENT_3D('',#901,#748,#749);
#653=AXIS2_PLACEMENT_3D('',#903,#751,#752);
#654=AXIS2_PLACEMENT_3D('',#907,#755,#756);
#655=AXIS2_PLACEMENT_3D('',#911,#759,#760);
#656=AXIS2_PLACEMENT_3D('',#913,#762,#763);
#657=AXIS2_PLACEMENT_3D('',#915,#765,#766);
#658=AXIS2_PLACEMENT_3D('',#916,#767,#768);
#659=AXIS2_PLACEMENT_3D('',#917,#769,#770);
#660=AXIS2_PLACEMENT_3D('',#918,#771,#772);
#661=AXIS2_PLACEMENT_3D('',#919,#773,#774);
#662=AXIS2_PLACEMENT_3D('',#920,#775,#776);
#663=AXIS2_PLACEMENT_3D('',#921,#777,#778);
#664=AXIS2_PLACEMENT_3D('',#922,#779,#780);
#665=AXIS2_PLACEMENT_3D('',#923,#781,#782);
#666=AXIS2_PLACEMENT_3D('',#924,#783,#784);
#667=AXIS2_PLACEMENT_3D('',#925,#785,#786);
#668=AXIS2_PLACEMENT_3D('',#927,#787,#788);
#669=AXIS2_PLACEMENT_3D('',#928,#789,#790);
#670=AXIS2_PLACEMENT_3D('',#930,#791,#792);
#671=AXIS2_PLACEMENT_3D('',#931,#793,#794);
#672=AXIS2_PLACEMENT_3D('',#933,#795,#796);
#673=AXIS2_PLACEMENT_3D('',#934,#797,#798);
#674=AXIS2_PLACEMENT_3D('',#936,#799,#800);
#675=AXIS2_PLACEMENT_3D('',#937,#801,#802);
#676=AXIS2_PLACEMENT_3D('',#939,#803,#804);
#677=AXIS2_PLACEMENT_3D('',#940,#805,#806);
#678=AXIS2_PLACEMENT_3D('',#942,#807,#808);
#679=AXIS2_PLACEMENT_3D('',#943,#809,#810);
#680=AXIS2_PLACEMENT_3D('',#945,#811,#812);
#681=AXIS2_PLACEMENT_3D('',#946,#813,#814);
#682=AXIS2_PLACEMENT_3D('',#948,#815,#816);
#683=DIRECTION('',(0.,0.,1.));
#684=DIRECTION('',(1.,0.,0.));
#685=DIRECTION('',(1.,0.,-1.02053899928946E-16));
#686=DIRECTION('',(-1.02053899928946E-16,0.,-1.));
#687=DIRECTION('',(1.,0.,-1.02053899928946E-16));
#688=DIRECTION('',(-1.02053899928946E-16,0.,-1.));
#689=DIRECTION('',(-1.,0.,1.02053899928946E-16));
#690=DIRECTION('',(1.02053899928946E-16,0.,1.));
#691=DIRECTION('',(-1.,0.,1.02053899928946E-16));
#692=DIRECTION('',(-1.02053899928946E-16,0.,-1.));
#693=DIRECTION('',(0.,-1.,0.));
#694=DIRECTION('',(0.,0.,-1.));
#695=DIRECTION('',(0.,-1.23204792327898E-16,1.));
#696=DIRECTION('',(0.,-1.,-1.23204792327898E-16));
#697=DIRECTION('',(-0.344254649158423,-0.938876315886609,0.));
#698=DIRECTION('',(0.938876315886609,-0.344254649158423,0.));
#699=DIRECTION('',(0.,6.16023961639492E-16,-1.));
#700=DIRECTION('',(0.,1.,6.16023961639492E-16));
#701=DIRECTION('',(0.,-1.,3.08011980819746E-17));
#702=DIRECTION('',(0.,-3.08011980819746E-17,-1.));
#703=DIRECTION('',(-0.344254649158423,2.10788215346149E-17,-0.938876315886609));
#704=DIRECTION('',(-0.938876315886609,0.,0.344254649158423));
#705=DIRECTION('',(0.,1.,0.));
#706=DIRECTION('',(0.,0.,1.));
#707=DIRECTION('',(0.,-2.09448146957427E-15,-1.));
#708=DIRECTION('',(0.,1.,-2.09448146957427E-15));
#709=DIRECTION('',(-0.344254649158423,0.938876315886609,-9.2539249216313E-16));
#710=DIRECTION('',(-0.938876315886609,-0.344254649158423,0.));
#711=DIRECTION('',(0.,-1.23204792327898E-16,1.));
#712=DIRECTION('',(0.,-1.,-1.23204792327898E-16));
#713=DIRECTION('',(0.,1.,0.));
#714=DIRECTION('',(0.,0.,1.));
#715=DIRECTION('',(-0.344254649158423,2.10788215346149E-17,0.938876315886609));
#716=DIRECTION('',(0.938876315886609,0.,0.344254649158423));
#717=DIRECTION('',(-1.,0.,1.02053899928946E-16));
#718=DIRECTION('',(1.02053899928946E-16,0.,1.));
#719=DIRECTION('',(-1.,0.,1.02053899928946E-16));
#720=DIRECTION('',(1.02053899928946E-16,0.,1.));
#721=DIRECTION('',(-0.344254649158423,2.10788215346149E-17,-0.938876315886609));
#722=DIRECTION('',(-0.938876315886609,0.,0.344254649158423));
#723=DIRECTION('',(0.938876315886609,0.,-0.344254649158423));
#724=DIRECTION('',(6.12303176911189E-17,1.,1.97127667724636E-15));
#725=DIRECTION('',(0.938876315886608,0.,-0.344254649158424));
#726=DIRECTION('',(0.,-1.,3.08011980819746E-17));
#727=DIRECTION('',(0.,-3.08011980819746E-17,-1.));
#728=DIRECTION('',(-1.,0.,0.));
#729=DIRECTION('',(0.,6.16023961639492E-16,-1.));
#730=DIRECTION('',(0.,1.,6.16023961639492E-16));
#731=DIRECTION('',(0.938876315886609,-0.344254649158423,-2.12069112787385E-16));
#732=DIRECTION('',(-1.,0.,0.));
#733=DIRECTION('',(-0.344254649158423,-0.938876315886609,0.));
#734=DIRECTION('',(0.938876315886609,-0.344254649158423,0.));
#735=DIRECTION('',(0.938876315886609,-0.344254649158423,-4.2413822557477E-17));
#736=DIRECTION('',(0.,0.,-1.));
#737=DIRECTION('',(0.,-1.23204792327898E-16,1.));
#738=DIRECTION('',(0.,-1.,-1.23204792327898E-16));
#739=DIRECTION('',(-1.,0.,0.));
#740=DIRECTION('',(0.,-1.,0.));
#741=DIRECTION('',(0.,0.,-1.));
#742=DIRECTION('',(0.938876315886609,0.,0.344254649158423));
#743=DIRECTION('',(-1.,0.,0.));
#744=DIRECTION('',(-0.344254649158423,2.10788215346149E-17,0.938876315886609));
#745=DIRECTION('',(0.938876315886609,0.,0.344254649158423));
#746=DIRECTION('',(0.938876315886609,0.,0.344254649158423));
#747=DIRECTION('',(-6.12303176911189E-17,-1.,0.));
#748=DIRECTION('',(0.,1.,0.));
#749=DIRECTION('',(0.,0.,1.));
#750=DIRECTION('',(-1.,0.,0.));
#751=DIRECTION('',(0.,-1.23204792327898E-16,1.));
#752=DIRECTION('',(0.,-1.,-1.23204792327898E-16));
#753=DIRECTION('',(0.938876315886609,0.344254649158423,4.2413822557477E-17));
#754=DIRECTION('',(-1.,0.,0.));
#755=DIRECTION('',(-0.344254649158423,0.938876315886609,-9.2539249216313E-16));
#756=DIRECTION('',(-0.938876315886609,-0.344254649158423,0.));
#757=DIRECTION('',(0.938876315886609,0.344254649158423,-7.21034983477109E-16));
#758=DIRECTION('',(3.01754743012221E-32,4.92819169311592E-16,1.));
#759=DIRECTION('',(0.,-2.09448146957427E-15,-1.));
#760=DIRECTION('',(0.,1.,-2.09448146957427E-15));
#761=DIRECTION('',(-1.,0.,0.));
#762=DIRECTION('',(0.,1.,0.));
#763=DIRECTION('',(0.,0.,1.));
#764=DIRECTION('',(-1.,0.,0.));
#765=DIRECTION('',(-1.,0.,0.));
#766=DIRECTION('',(0.,0.,1.));
#767=DIRECTION('',(-1.,0.,0.));
#768=DIRECTION('',(0.,0.,1.));
#769=DIRECTION('',(-1.,0.,0.));
#770=DIRECTION('',(0.,0.,1.));
#771=DIRECTION('',(-1.,0.,0.));
#772=DIRECTION('',(0.,0.,1.));
#773=DIRECTION('',(-1.,0.,0.));
#774=DIRECTION('',(0.,0.,1.));
#775=DIRECTION('',(1.,0.,0.));
#776=DIRECTION('',(0.,0.,-1.));
#777=DIRECTION('',(1.,0.,0.));
#778=DIRECTION('',(0.,0.,-1.));
#779=DIRECTION('',(1.,0.,0.));
#780=DIRECTION('',(0.,0.,-1.));
#781=DIRECTION('',(1.,0.,0.));
#782=DIRECTION('',(0.,0.,-1.));
#783=DIRECTION('',(-1.,0.,0.));
#784=DIRECTION('',(0.,0.,1.));
#785=DIRECTION('',(-1.,0.,0.));
#786=DIRECTION('',(0.,0.,1.));
#787=DIRECTION('',(-1.,0.,-7.65404249467095E-17));
#788=DIRECTION('',(-7.65404249467095E-17,0.,1.));
#789=DIRECTION('',(-1.,0.,-7.65404249467095E-17));
#790=DIRECTION('',(-7.65404249467095E-17,0.,1.));
#791=DIRECTION('',(-1.,0.,-7.65404249467095E-17));
#792=DIRECTION('',(-7.65404249467095E-17,0.,1.));
#793=DIRECTION('',(-1.,0.,-7.65404249467095E-17));
#794=DIRECTION('',(-7.65404249467095E-17,0.,1.));
#795=DIRECTION('',(1.,0.,7.65404249467095E-17));
#796=DIRECTION('',(7.65404249467095E-17,0.,-1.));
#797=DIRECTION('',(-1.,0.,-7.65404249467095E-17));
#798=DIRECTION('',(-7.65404249467095E-17,0.,1.));
#799=DIRECTION('',(1.,0.,-1.02053899928946E-16));
#800=DIRECTION('',(-1.02053899928946E-16,0.,-1.));
#801=DIRECTION('',(-1.,0.,1.02053899928946E-16));
#802=DIRECTION('',(1.02053899928946E-16,0.,1.));
#803=DIRECTION('',(-1.,0.,1.02053899928946E-16));
#804=DIRECTION('',(1.02053899928946E-16,0.,1.));
#805=DIRECTION('',(-1.,0.,1.02053899928946E-16));
#806=DIRECTION('',(1.02053899928946E-16,0.,1.));
#807=DIRECTION('',(-1.,0.,1.02053899928946E-16));
#808=DIRECTION('',(1.02053899928946E-16,0.,1.));
#809=DIRECTION('',(-1.,0.,1.02053899928946E-16));
#810=DIRECTION('',(1.02053899928946E-16,0.,1.));
#811=DIRECTION('',(-1.,0.,1.02053899928946E-16));
#812=DIRECTION('',(1.02053899928946E-16,0.,1.));
#813=DIRECTION('',(-1.,0.,1.02053899928946E-16));
#814=DIRECTION('',(1.02053899928946E-16,0.,1.));
#815=DIRECTION('',(-1.,0.,0.));
#816=DIRECTION('',(0.,0.,1.));
#817=CARTESIAN_POINT('',(0.,0.,0.));
#818=CARTESIAN_POINT('',(3.1,0.,4.));
#819=CARTESIAN_POINT('',(3.1,0.,0.));
#820=CARTESIAN_POINT('',(3.1,0.,-3.39));
#821=CARTESIAN_POINT('',(3.1,0.,-1.02053899928943E-17));
#822=CARTESIAN_POINT('',(3.1,0.,4.));
#823=CARTESIAN_POINT('',(6.5,0.,0.));
#824=CARTESIAN_POINT('',(6.5,0.440000000000002,0.));
#825=CARTESIAN_POINT('',(0.150669326614024,0.440000000000002,-1.32));
#826=CARTESIAN_POINT('',(0.354191459341366,0.440000000000002,-2.0701297982415));
#827=CARTESIAN_POINT('',(0.150669326614026,0.440000000000002,-1.32));
#828=CARTESIAN_POINT('',(0.103007422672192,0.440000000000002,-1.09074152375011));
#829=CARTESIAN_POINT('',(0.0476687556166258,0.629623073931572,-0.630634717995929));
#830=CARTESIAN_POINT('',(0.103001196715007,1.09071157627971,-0.440000000000002));
#831=CARTESIAN_POINT('',(0.150669326614026,1.32,-0.440000000000002));
#832=CARTESIAN_POINT('',(0.150669326614024,1.32,-0.440000000000002));
#833=CARTESIAN_POINT('',(6.5,5.42101086242756E-17,-0.440000000000002));
#834=CARTESIAN_POINT('',(0.354191459341365,2.0701297982415,-0.440000000000002));
#835=CARTESIAN_POINT('',(6.44074436826641,-0.161606268364346,0.));
#836=CARTESIAN_POINT('',(0.354191459341366,2.0701297982415,0.440000000000003));
#837=CARTESIAN_POINT('',(6.5,-2.71050543121377E-16,0.440000000000002));
#838=CARTESIAN_POINT('',(0.150669326614024,1.32,0.440000000000003));
#839=CARTESIAN_POINT('',(0.150669326614026,1.32,0.440000000000003));
#840=CARTESIAN_POINT('',(0.103007422672192,1.09074152375011,0.440000000000003));
#841=CARTESIAN_POINT('',(0.0476687556166264,0.630634717995928,0.629623073931573));
#842=CARTESIAN_POINT('',(0.103001196715007,0.440000000000002,1.09071157627971));
#843=CARTESIAN_POINT('',(0.150669326614025,0.440000000000002,1.32));
#844=CARTESIAN_POINT('',(0.150669326614024,0.440000000000002,1.32));
#845=CARTESIAN_POINT('',(6.5,0.440000000000002,-1.35525271560689E-17));
#846=CARTESIAN_POINT('',(0.354191459341366,0.440000000000002,2.0701297982415));
#847=CARTESIAN_POINT('',(6.44074436826641,3.6282411560359E-18,-0.161606268364347));
#848=CARTESIAN_POINT('',(0.354191459341367,-0.440000000000002,2.07012979824151));
#849=CARTESIAN_POINT('',(6.5,-0.440000000000002,0.));
#850=CARTESIAN_POINT('',(0.150669326614025,-0.440000000000002,1.32));
#851=CARTESIAN_POINT('',(0.150669326614025,-0.440000000000002,1.32));
#852=CARTESIAN_POINT('',(0.103007422672191,-0.440000000000002,1.09074152375011));
#853=CARTESIAN_POINT('',(0.0476687556166265,-0.629623073931573,0.630634717995926));
#854=CARTESIAN_POINT('',(0.103001196715006,-1.09071157627971,0.44));
#855=CARTESIAN_POINT('',(0.150669326614025,-1.32,0.44));
#856=CARTESIAN_POINT('',(0.150669326614026,-1.32,0.44));
#857=CARTESIAN_POINT('',(6.5,9.21571846612675E-16,0.439999999999997));
#858=CARTESIAN_POINT('',(0.354191459341365,-2.0701297982415,0.440000000000002));
#859=CARTESIAN_POINT('',(6.44074436826641,0.161606268364346,-1.59285333861726E-16));
#860=CARTESIAN_POINT('',(0.354191459341366,-2.0701297982415,-0.440000000000002));
#861=CARTESIAN_POINT('',(6.5,5.42101086242755E-17,-0.440000000000002));
#862=CARTESIAN_POINT('',(0.150669326614024,-1.32,-0.440000000000002));
#863=CARTESIAN_POINT('',(0.150669326614026,-1.32,-0.440000000000002));
#864=CARTESIAN_POINT('',(0.103007422672192,-1.09074152375011,-0.440000000000002));
#865=CARTESIAN_POINT('',(0.0476687556166269,-0.630634717995929,-0.629623073931572));
#866=CARTESIAN_POINT('',(0.103001196715006,-0.440000000000002,-1.09071157627971));
#867=CARTESIAN_POINT('',(0.150669326614025,-0.440000000000002,-1.32));
#868=CARTESIAN_POINT('',(0.150669326614024,-0.440000000000002,-1.32));
#869=CARTESIAN_POINT('',(6.5,-0.440000000000002,0.));
#870=CARTESIAN_POINT('',(0.354191459341366,-0.440000000000002,-2.0701297982415));
#871=CARTESIAN_POINT('',(6.44074436826641,3.6282411560359E-18,0.161606268364347));
#872=CARTESIAN_POINT('',(1.3765246170202,0.,1.65681994271728E-16));
#873=CARTESIAN_POINT('',(1.3765246170202,0.,4.));
#874=CARTESIAN_POINT('',(3.,0.,0.));
#875=CARTESIAN_POINT('',(0.711067580803135,-4.35388938724313E-17,1.93927522037219));
#876=CARTESIAN_POINT('',(2.69413397840924E-17,0.440000000000002,2.2));
#877=CARTESIAN_POINT('',(2.4,0.440000000000002,1.32));
#878=CARTESIAN_POINT('',(2.4,-0.440000000000002,1.32));
#879=CARTESIAN_POINT('',(2.4,-0.440000000000002,1.32));
#880=CARTESIAN_POINT('',(-2.69413397840924E-17,-0.440000000000002,2.2));
#881=CARTESIAN_POINT('',(0.,0.440000000000002,-1.35525271560689E-17));
#882=CARTESIAN_POINT('',(0.,0.440000000000002,1.32));
#883=CARTESIAN_POINT('',(0.,-2.71050543121377E-16,0.440000000000002));
#884=CARTESIAN_POINT('',(1.34706698920462E-16,2.2,0.440000000000003));
#885=CARTESIAN_POINT('',(2.4,1.32,0.440000000000003));
#886=CARTESIAN_POINT('',(0.,1.32,0.440000000000003));
#887=CARTESIAN_POINT('',(0.711067580803134,1.93927522037219,0.));
#888=CARTESIAN_POINT('',(1.34706698920462E-16,2.2,-0.440000000000002));
#889=CARTESIAN_POINT('',(2.4,1.32,-0.440000000000002));
#890=CARTESIAN_POINT('',(2.4,1.32,0.440000000000003));
#891=CARTESIAN_POINT('',(0.,5.42101086242756E-17,-0.440000000000002));
#892=CARTESIAN_POINT('',(0.,1.32,-0.440000000000002));
#893=CARTESIAN_POINT('',(0.,0.440000000000002,0.));
#894=CARTESIAN_POINT('',(2.69413397840924E-17,0.440000000000002,-2.2));
#895=CARTESIAN_POINT('',(2.4,0.440000000000002,-1.32));
#896=CARTESIAN_POINT('',(0.,0.440000000000002,-1.32));
#897=CARTESIAN_POINT('',(0.711067580803135,-4.35388938724313E-17,-1.93927522037219));
#898=CARTESIAN_POINT('',(-2.69413397840924E-17,-0.440000000000002,-2.2));
#899=CARTESIAN_POINT('',(2.4,-0.440000000000002,-1.32));
#900=CARTESIAN_POINT('',(2.4,0.440000000000002,-1.32));
#901=CARTESIAN_POINT('',(0.,-0.440000000000002,0.));
#902=CARTESIAN_POINT('',(0.,-0.440000000000002,-1.32));
#903=CARTESIAN_POINT('',(0.,5.42101086242755E-17,-0.440000000000002));
#904=CARTESIAN_POINT('',(-1.34706698920462E-16,-2.2,-0.440000000000002));
#905=CARTESIAN_POINT('',(2.4,-1.32,-0.440000000000002));
#906=CARTESIAN_POINT('',(0.,-1.32,-0.440000000000002));
#907=CARTESIAN_POINT('',(0.711067580803134,-1.93927522037219,1.91142400634074E-15));
#908=CARTESIAN_POINT('',(-1.34706698920461E-16,-2.2,0.440000000000002));
#909=CARTESIAN_POINT('',(2.4,-1.32,0.44));
#910=CARTESIAN_POINT('',(2.4,-1.32,-0.440000000000002));
#911=CARTESIAN_POINT('',(0.,9.21571846612675E-16,0.439999999999997));
#912=CARTESIAN_POINT('',(0.,-1.32,0.44));
#913=CARTESIAN_POINT('',(0.,-0.440000000000002,0.));
#914=CARTESIAN_POINT('',(0.,-0.440000000000002,1.32));
#915=CARTESIAN_POINT('',(2.4,1.1,-0.220000000000001));
#916=CARTESIAN_POINT('',(2.4,1.32,-1.32));
#917=CARTESIAN_POINT('',(2.4,-1.32,-1.32));
#918=CARTESIAN_POINT('',(2.4,-1.32,1.32));
#919=CARTESIAN_POINT('',(2.4,1.32,1.32));
#920=CARTESIAN_POINT('',(0.,1.32,1.32));
#921=CARTESIAN_POINT('',(0.,-1.32,-1.32));
#922=CARTESIAN_POINT('',(0.,-1.32,1.32));
#923=CARTESIAN_POINT('',(0.,1.32,-1.32));
#924=CARTESIAN_POINT('',(0.,0.,0.));
#925=CARTESIAN_POINT('',(5.1,0.,0.));
#926=CARTESIAN_POINT('',(5.1,0.,3.39));
#927=CARTESIAN_POINT('',(5.1,0.,2.35));
#928=CARTESIAN_POINT('',(5.1,0.,-2.21967232345458E-16));
#929=CARTESIAN_POINT('',(5.1,0.,4.5));
#930=CARTESIAN_POINT('',(8.00000000000001,0.,0.));
#931=CARTESIAN_POINT('',(5.9,0.,-1.6073489238809E-16));
#932=CARTESIAN_POINT('',(5.9,0.,4.5));
#933=CARTESIAN_POINT('',(5.9,0.,4.5));
#934=CARTESIAN_POINT('',(5.9,0.,-1.6073489238809E-16));
#935=CARTESIAN_POINT('',(5.9,0.,2.35));
#936=CARTESIAN_POINT('',(17.1,0.,2.));
#937=CARTESIAN_POINT('',(17.1,0.,-1.43895998899814E-15));
#938=CARTESIAN_POINT('',(17.1,0.,2.));
#939=CARTESIAN_POINT('',(3.,0.,0.));
#940=CARTESIAN_POINT('',(7.3,0.,-4.38831769694468E-16));
#941=CARTESIAN_POINT('',(7.3,0.,2.));
#942=CARTESIAN_POINT('',(3.3,0.,-3.06161699786835E-17));
#943=CARTESIAN_POINT('',(3.3,0.,-3.06161699786835E-17));
#944=CARTESIAN_POINT('',(3.3,0.,2.15));
#945=CARTESIAN_POINT('',(3.3,0.,0.));
#946=CARTESIAN_POINT('',(3.1,0.,-1.02053899928943E-17));
#947=CARTESIAN_POINT('',(3.1,0.,2.35));
#948=CARTESIAN_POINT('',(0.,0.,0.));
#949=MECHANICAL_DESIGN_GEOMETRIC_PRESENTATION_REPRESENTATION('',(#388,#389,
#390,#391,#392,#393,#394,#395,#396,#397,#398,#399,#400,#401,#402,#403,#404,
#405,#406,#407,#408,#409,#410,#411,#412,#413,#414,#415,#416),#950);
#950=(
GEOMETRIC_REPRESENTATION_CONTEXT(3)
GLOBAL_UNCERTAINTY_ASSIGNED_CONTEXT((#951))
GLOBAL_UNIT_ASSIGNED_CONTEXT((#954,#953,#952))
REPRESENTATION_CONTEXT(
'\X2\53415B5769FD76D8593487BA948930015F397C2757AB5708548C5E7357AB57087EC454084EF6\X0\',
'TOP_LEVEL_ASSEMBLY_PART')
);
#951=UNCERTAINTY_MEASURE_WITH_UNIT(LENGTH_MEASURE(0.005),#954,
'DISTANCE_ACCURACY_VALUE','Maximum Tolerance applied to model');
#952=(
NAMED_UNIT(*)
SI_UNIT($,.STERADIAN.)
SOLID_ANGLE_UNIT()
);
#953=(
NAMED_UNIT(*)
PLANE_ANGLE_UNIT()
SI_UNIT($,.RADIAN.)
);
#954=(
LENGTH_UNIT()
NAMED_UNIT(*)
SI_UNIT(.MILLI.,.METRE.)
);
#955=PRODUCT_DEFINITION_SHAPE('','',#956);
#956=PRODUCT_DEFINITION('','',#958,#957);
#957=PRODUCT_DEFINITION_CONTEXT('',#964,'design');
#958=PRODUCT_DEFINITION_FORMATION_WITH_SPECIFIED_SOURCE('','',#960,
 .NOT_KNOWN.);
#959=PRODUCT_RELATED_PRODUCT_CATEGORY('','',(#960));
#960=PRODUCT(
'\X2\53415B5769FD76D8593487BA948930015F397C2757AB5708548C5E7357AB57087EC454084EF6\X0\',
'\X2\53415B5769FD76D8593487BA948930015F397C2757AB5708548C5E7357AB57087EC454084EF6\X0\',
'\X2\53415B5769FD76D8593487BA948930015F397C2757AB5708548C5E7357AB57087EC454084EF6\X0\',
(#962));
#961=PRODUCT_CATEGORY('','');
#962=PRODUCT_CONTEXT('',#964,'mechanical');
#963=APPLICATION_PROTOCOL_DEFINITION('international standard',
'automotive_design',2010,#964);
#964=APPLICATION_CONTEXT(
'core data for automotive mechanical design processes');
ENDSEC;
END-ISO-10303-21;
