ISO-10303-21;
HEADER;
/* Generated by software containing HOOPS Exchange Step
 * from HOOPS Exchange, Inc. (www.tiangong.cloud) 
 */

FILE_DESCRIPTION(
/* description */ ('Unknown'),
/* implementation_level */ '2;1');

FILE_NAME(
/* name */ '\X2\5F0069FD76D859345B9A4F4D87BA9489\X0\',
/* time_stamp */ '2025-12-31T14:38:43+08:00',
/* author */ ('Unknown'),
/* organization */ ('Unknown'),
/* preprocessor_version */ 'ST-DEVELOPER v19.4',
/* originating_system */ 'TianGong',
/* authorisation */ 'Unknown');

FILE_SCHEMA (('AUTOMOTIVE_DESIGN {1 0 10303 214 3 1 1}'));
ENDSEC;

DATA;
#10=PROPERTY_DEFINITION_REPRESENTATION(#14,#12);
#11=PROPERTY_DEFINITION_REPRESENTATION(#15,#13);
#12=REPRESENTATION('',(#16),#445);
#13=REPRESENTATION('',(#17),#445);
#14=PROPERTY_DEFINITION('pmi validation property','',#450);
#15=PROPERTY_DEFINITION('pmi validation property','',#450);
#16=VALUE_REPRESENTATION_ITEM('number of annotations',COUNT_MEASURE(0.));
#17=VALUE_REPRESENTATION_ITEM('number of views',COUNT_MEASURE(0.));
#18=SHAPE_REPRESENTATION_RELATIONSHIP('','',#295,#19);
#19=ADVANCED_BREP_SHAPE_REPRESENTATION('',(#293),#445);
#20=SPHERICAL_SURFACE('',#319,1.12);
#21=CYLINDRICAL_SURFACE('',#313,0.8);
#22=CYLINDRICAL_SURFACE('',#317,0.4);
#23=CONICAL_SURFACE('',#305,1.49994990039568,0.0872664625997167);
#24=CONICAL_SURFACE('',#311,0.701398670281673,0.167448079219689);
#25=B_SPLINE_CURVE_WITH_KNOTS('',3,(#396,#397,#398,#399),.UNSPECIFIED.,
 .F.,.F.,(4,4),(0.00292711046589046,0.0035619520236863),.UNSPECIFIED.);
#26=B_SPLINE_CURVE_WITH_KNOTS('',3,(#400,#401,#402,#403),.UNSPECIFIED.,
 .F.,.F.,(4,4),(0.000457769905352401,0.00109308241756535),.UNSPECIFIED.);
#27=B_SPLINE_CURVE_WITH_KNOTS('',3,(#407,#408,#409,#410),.UNSPECIFIED.,
 .F.,.F.,(4,4),(0.0020751311377082,0.00271094944915832),.UNSPECIFIED.);
#28=B_SPLINE_CURVE_WITH_KNOTS('',3,(#411,#412,#413,#414),.UNSPECIFIED.,
 .F.,.F.,(4,4),(0.00277175135096429,0.0034069297458881),.UNSPECIFIED.);
#29=TOROIDAL_SURFACE('',#301,1.00185255134981,0.5);
#30=TOROIDAL_SURFACE('',#309,0.8,0.1);
#31=TOROIDAL_SURFACE('',#315,0.8,0.4);
#32=LINE('',#386,#36);
#33=LINE('',#391,#37);
#34=LINE('',#440,#38);
#35=LINE('',#442,#39);
#36=VECTOR('',#329,1000.);
#37=VECTOR('',#334,1000.);
#38=VECTOR('',#375,1000.);
#39=VECTOR('',#378,1000.);
#40=ORIENTED_EDGE('',*,*,#80,.T.);
#41=ORIENTED_EDGE('',*,*,#81,.T.);
#42=ORIENTED_EDGE('',*,*,#82,.T.);
#43=ORIENTED_EDGE('',*,*,#83,.T.);
#44=ORIENTED_EDGE('',*,*,#84,.F.);
#45=ORIENTED_EDGE('',*,*,#85,.T.);
#46=ORIENTED_EDGE('',*,*,#82,.F.);
#47=ORIENTED_EDGE('',*,*,#86,.T.);
#48=ORIENTED_EDGE('',*,*,#87,.F.);
#49=ORIENTED_EDGE('',*,*,#88,.T.);
#50=ORIENTED_EDGE('',*,*,#80,.F.);
#51=ORIENTED_EDGE('',*,*,#89,.T.);
#52=ORIENTED_EDGE('',*,*,#90,.T.);
#53=ORIENTED_EDGE('',*,*,#91,.T.);
#54=ORIENTED_EDGE('',*,*,#90,.F.);
#55=ORIENTED_EDGE('',*,*,#92,.T.);
#56=ORIENTED_EDGE('',*,*,#91,.F.);
#57=ORIENTED_EDGE('',*,*,#93,.T.);
#58=ORIENTED_EDGE('',*,*,#92,.F.);
#59=ORIENTED_EDGE('',*,*,#94,.T.);
#60=ORIENTED_EDGE('',*,*,#93,.F.);
#61=ORIENTED_EDGE('',*,*,#95,.T.);
#62=ORIENTED_EDGE('',*,*,#94,.F.);
#63=ORIENTED_EDGE('',*,*,#96,.T.);
#64=ORIENTED_EDGE('',*,*,#95,.F.);
#65=ORIENTED_EDGE('',*,*,#97,.T.);
#66=ORIENTED_EDGE('',*,*,#96,.F.);
#67=ORIENTED_EDGE('',*,*,#97,.F.);
#68=ORIENTED_EDGE('',*,*,#98,.T.);
#69=ORIENTED_EDGE('',*,*,#86,.F.);
#70=ORIENTED_EDGE('',*,*,#83,.F.);
#71=ORIENTED_EDGE('',*,*,#85,.F.);
#72=ORIENTED_EDGE('',*,*,#81,.F.);
#73=ORIENTED_EDGE('',*,*,#88,.F.);
#74=ORIENTED_EDGE('',*,*,#99,.T.);
#75=ORIENTED_EDGE('',*,*,#89,.F.);
#76=ORIENTED_EDGE('',*,*,#84,.T.);
#77=ORIENTED_EDGE('',*,*,#99,.F.);
#78=ORIENTED_EDGE('',*,*,#87,.T.);
#79=ORIENTED_EDGE('',*,*,#98,.F.);
#80=EDGE_CURVE('',#100,#101,#116,.T.);
#81=EDGE_CURVE('',#101,#100,#32,.T.);
#82=EDGE_CURVE('',#102,#103,#117,.T.);
#83=EDGE_CURVE('',#103,#102,#33,.T.);
#84=EDGE_CURVE('',#104,#105,#118,.F.);
#85=EDGE_CURVE('',#104,#103,#25,.T.);
#86=EDGE_CURVE('',#102,#106,#26,.T.);
#87=EDGE_CURVE('',#107,#106,#119,.F.);
#88=EDGE_CURVE('',#107,#101,#27,.T.);
#89=EDGE_CURVE('',#100,#105,#28,.T.);
#90=EDGE_CURVE('',#108,#108,#120,.T.);
#91=EDGE_CURVE('',#109,#109,#121,.T.);
#92=EDGE_CURVE('',#110,#110,#122,.T.);
#93=EDGE_CURVE('',#111,#111,#123,.T.);
#94=EDGE_CURVE('',#112,#112,#124,.T.);
#95=EDGE_CURVE('',#113,#113,#125,.T.);
#96=EDGE_CURVE('',#114,#114,#126,.T.);
#97=EDGE_CURVE('',#115,#115,#127,.T.);
#98=EDGE_CURVE('',#104,#106,#34,.T.);
#99=EDGE_CURVE('',#107,#105,#35,.T.);
#100=VERTEX_POINT('',#384);
#101=VERTEX_POINT('',#385);
#102=VERTEX_POINT('',#389);
#103=VERTEX_POINT('',#390);
#104=VERTEX_POINT('',#394);
#105=VERTEX_POINT('',#395);
#106=VERTEX_POINT('',#404);
#107=VERTEX_POINT('',#406);
#108=VERTEX_POINT('',#416);
#109=VERTEX_POINT('',#419);
#110=VERTEX_POINT('',#422);
#111=VERTEX_POINT('',#425);
#112=VERTEX_POINT('',#428);
#113=VERTEX_POINT('',#431);
#114=VERTEX_POINT('',#434);
#115=VERTEX_POINT('',#437);
#116=CIRCLE('',#298,1.00185255134981);
#117=CIRCLE('',#300,1.00185255134981);
#118=CIRCLE('',#302,1.47882215205828);
#119=CIRCLE('',#303,1.47882215205828);
#120=CIRCLE('',#304,1.49994990039568);
#121=CIRCLE('',#306,1.6);
#122=CIRCLE('',#308,0.8);
#123=CIRCLE('',#310,0.701398670281673);
#124=CIRCLE('',#312,0.8);
#125=CIRCLE('',#314,0.8);
#126=CIRCLE('',#316,0.4);
#127=CIRCLE('',#318,0.4);
#128=EDGE_LOOP('',(#40,#41));
#129=EDGE_LOOP('',(#42,#43));
#130=EDGE_LOOP('',(#44,#45,#46,#47,#48,#49,#50,#51));
#131=EDGE_LOOP('',(#52));
#132=EDGE_LOOP('',(#53));
#133=EDGE_LOOP('',(#54));
#134=EDGE_LOOP('',(#55));
#135=EDGE_LOOP('',(#56));
#136=EDGE_LOOP('',(#57));
#137=EDGE_LOOP('',(#58));
#138=EDGE_LOOP('',(#59));
#139=EDGE_LOOP('',(#60));
#140=EDGE_LOOP('',(#61));
#141=EDGE_LOOP('',(#62));
#142=EDGE_LOOP('',(#63));
#143=EDGE_LOOP('',(#64));
#144=EDGE_LOOP('',(#65));
#145=EDGE_LOOP('',(#66));
#146=EDGE_LOOP('',(#67));
#147=EDGE_LOOP('',(#68,#69,#70,#71));
#148=EDGE_LOOP('',(#72,#73,#74,#75));
#149=EDGE_LOOP('',(#76,#77,#78,#79));
#150=FACE_BOUND('',#128,.T.);
#151=FACE_BOUND('',#129,.T.);
#152=FACE_BOUND('',#130,.T.);
#153=FACE_BOUND('',#131,.T.);
#154=FACE_BOUND('',#132,.T.);
#155=FACE_BOUND('',#133,.T.);
#156=FACE_BOUND('',#134,.T.);
#157=FACE_BOUND('',#135,.T.);
#158=FACE_BOUND('',#136,.T.);
#159=FACE_BOUND('',#137,.T.);
#160=FACE_BOUND('',#138,.T.);
#161=FACE_BOUND('',#139,.T.);
#162=FACE_BOUND('',#140,.T.);
#163=FACE_BOUND('',#141,.T.);
#164=FACE_BOUND('',#142,.T.);
#165=FACE_BOUND('',#143,.T.);
#166=FACE_BOUND('',#144,.T.);
#167=FACE_BOUND('',#145,.T.);
#168=FACE_BOUND('',#146,.T.);
#169=FACE_BOUND('',#147,.T.);
#170=FACE_BOUND('',#148,.T.);
#171=FACE_BOUND('',#149,.T.);
#172=PLANE('',#297);
#173=PLANE('',#299);
#174=PLANE('',#307);
#175=PLANE('',#320);
#176=PLANE('',#321);
#177=PLANE('',#322);
#178=STYLED_ITEM('',(#192),#278);
#179=STYLED_ITEM('',(#193),#279);
#180=STYLED_ITEM('',(#194),#280);
#181=STYLED_ITEM('',(#195),#281);
#182=STYLED_ITEM('',(#196),#282);
#183=STYLED_ITEM('',(#197),#283);
#184=STYLED_ITEM('',(#198),#284);
#185=STYLED_ITEM('',(#199),#285);
#186=STYLED_ITEM('',(#200),#286);
#187=STYLED_ITEM('',(#201),#287);
#188=STYLED_ITEM('',(#202),#288);
#189=STYLED_ITEM('',(#203),#289);
#190=STYLED_ITEM('',(#204),#290);
#191=STYLED_ITEM('',(#205),#291);
#192=PRESENTATION_STYLE_ASSIGNMENT((#206));
#193=PRESENTATION_STYLE_ASSIGNMENT((#207));
#194=PRESENTATION_STYLE_ASSIGNMENT((#208));
#195=PRESENTATION_STYLE_ASSIGNMENT((#209));
#196=PRESENTATION_STYLE_ASSIGNMENT((#210));
#197=PRESENTATION_STYLE_ASSIGNMENT((#211));
#198=PRESENTATION_STYLE_ASSIGNMENT((#212));
#199=PRESENTATION_STYLE_ASSIGNMENT((#213));
#200=PRESENTATION_STYLE_ASSIGNMENT((#214));
#201=PRESENTATION_STYLE_ASSIGNMENT((#215));
#202=PRESENTATION_STYLE_ASSIGNMENT((#216));
#203=PRESENTATION_STYLE_ASSIGNMENT((#217));
#204=PRESENTATION_STYLE_ASSIGNMENT((#218));
#205=PRESENTATION_STYLE_ASSIGNMENT((#219));
#206=SURFACE_STYLE_USAGE(.BOTH.,#220);
#207=SURFACE_STYLE_USAGE(.BOTH.,#221);
#208=SURFACE_STYLE_USAGE(.BOTH.,#222);
#209=SURFACE_STYLE_USAGE(.BOTH.,#223);
#210=SURFACE_STYLE_USAGE(.BOTH.,#224);
#211=SURFACE_STYLE_USAGE(.BOTH.,#225);
#212=SURFACE_STYLE_USAGE(.BOTH.,#226);
#213=SURFACE_STYLE_USAGE(.BOTH.,#227);
#214=SURFACE_STYLE_USAGE(.BOTH.,#228);
#215=SURFACE_STYLE_USAGE(.BOTH.,#229);
#216=SURFACE_STYLE_USAGE(.BOTH.,#230);
#217=SURFACE_STYLE_USAGE(.BOTH.,#231);
#218=SURFACE_STYLE_USAGE(.BOTH.,#232);
#219=SURFACE_STYLE_USAGE(.BOTH.,#233);
#220=SURFACE_SIDE_STYLE('',(#234));
#221=SURFACE_SIDE_STYLE('',(#235));
#222=SURFACE_SIDE_STYLE('',(#236));
#223=SURFACE_SIDE_STYLE('',(#237));
#224=SURFACE_SIDE_STYLE('',(#238));
#225=SURFACE_SIDE_STYLE('',(#239));
#226=SURFACE_SIDE_STYLE('',(#240));
#227=SURFACE_SIDE_STYLE('',(#241));
#228=SURFACE_SIDE_STYLE('',(#242));
#229=SURFACE_SIDE_STYLE('',(#243));
#230=SURFACE_SIDE_STYLE('',(#244));
#231=SURFACE_SIDE_STYLE('',(#245));
#232=SURFACE_SIDE_STYLE('',(#246));
#233=SURFACE_SIDE_STYLE('',(#247));
#234=SURFACE_STYLE_FILL_AREA(#248);
#235=SURFACE_STYLE_FILL_AREA(#249);
#236=SURFACE_STYLE_FILL_AREA(#250);
#237=SURFACE_STYLE_FILL_AREA(#251);
#238=SURFACE_STYLE_FILL_AREA(#252);
#239=SURFACE_STYLE_FILL_AREA(#253);
#240=SURFACE_STYLE_FILL_AREA(#254);
#241=SURFACE_STYLE_FILL_AREA(#255);
#242=SURFACE_STYLE_FILL_AREA(#256);
#243=SURFACE_STYLE_FILL_AREA(#257);
#244=SURFACE_STYLE_FILL_AREA(#258);
#245=SURFACE_STYLE_FILL_AREA(#259);
#246=SURFACE_STYLE_FILL_AREA(#260);
#247=SURFACE_STYLE_FILL_AREA(#261);
#248=FILL_AREA_STYLE('',(#262));
#249=FILL_AREA_STYLE('',(#263));
#250=FILL_AREA_STYLE('',(#264));
#251=FILL_AREA_STYLE('',(#265));
#252=FILL_AREA_STYLE('',(#266));
#253=FILL_AREA_STYLE('',(#267));
#254=FILL_AREA_STYLE('',(#268));
#255=FILL_AREA_STYLE('',(#269));
#256=FILL_AREA_STYLE('',(#270));
#257=FILL_AREA_STYLE('',(#271));
#258=FILL_AREA_STYLE('',(#272));
#259=FILL_AREA_STYLE('',(#273));
#260=FILL_AREA_STYLE('',(#274));
#261=FILL_AREA_STYLE('',(#275));
#262=FILL_AREA_STYLE_COLOUR('',#276);
#263=FILL_AREA_STYLE_COLOUR('',#276);
#264=FILL_AREA_STYLE_COLOUR('',#276);
#265=FILL_AREA_STYLE_COLOUR('',#276);
#266=FILL_AREA_STYLE_COLOUR('',#276);
#267=FILL_AREA_STYLE_COLOUR('',#276);
#268=FILL_AREA_STYLE_COLOUR('',#276);
#269=FILL_AREA_STYLE_COLOUR('',#277);
#270=FILL_AREA_STYLE_COLOUR('',#276);
#271=FILL_AREA_STYLE_COLOUR('',#276);
#272=FILL_AREA_STYLE_COLOUR('',#276);
#273=FILL_AREA_STYLE_COLOUR('',#276);
#274=FILL_AREA_STYLE_COLOUR('',#276);
#275=FILL_AREA_STYLE_COLOUR('',#276);
#276=COLOUR_RGB('',0.506983280181885,0.531564235687256,0.550000011920929);
#277=COLOUR_RGB('',0.1875,0.75,0.581249892711639);
#278=ADVANCED_FACE('',(#150),#172,.T.);
#279=ADVANCED_FACE('',(#151),#173,.T.);
#280=ADVANCED_FACE('',(#152,#153),#29,.T.);
#281=ADVANCED_FACE('',(#154,#155),#23,.T.);
#282=ADVANCED_FACE('',(#156,#157),#174,.T.);
#283=ADVANCED_FACE('',(#158,#159),#30,.F.);
#284=ADVANCED_FACE('',(#160,#161),#24,.T.);
#285=ADVANCED_FACE('',(#162,#163),#21,.T.);
#286=ADVANCED_FACE('',(#164,#165),#31,.F.);
#287=ADVANCED_FACE('',(#166,#167),#22,.T.);
#288=ADVANCED_FACE('',(#168),#20,.T.);
#289=ADVANCED_FACE('',(#169),#175,.T.);
#290=ADVANCED_FACE('',(#170),#176,.T.);
#291=ADVANCED_FACE('',(#171),#177,.F.);
#292=CLOSED_SHELL('',(#278,#279,#280,#281,#282,#283,#284,#285,#286,#287,
#288,#289,#290,#291));
#293=MANIFOLD_SOLID_BREP('',#292);
#294=SHAPE_DEFINITION_REPRESENTATION(#450,#295);
#295=SHAPE_REPRESENTATION('\X2\5F0069FD76D859345B9A4F4D87BA9489\X0\',(#296),
#445);
#296=AXIS2_PLACEMENT_3D('',#381,#323,#324);
#297=AXIS2_PLACEMENT_3D('',#382,#325,#326);
#298=AXIS2_PLACEMENT_3D('',#383,#327,#328);
#299=AXIS2_PLACEMENT_3D('',#387,#330,#331);
#300=AXIS2_PLACEMENT_3D('',#388,#332,#333);
#301=AXIS2_PLACEMENT_3D('',#392,#335,#336);
#302=AXIS2_PLACEMENT_3D('',#393,#337,#338);
#303=AXIS2_PLACEMENT_3D('',#405,#339,#340);
#304=AXIS2_PLACEMENT_3D('',#415,#341,#342);
#305=AXIS2_PLACEMENT_3D('',#417,#343,#344);
#306=AXIS2_PLACEMENT_3D('',#418,#345,#346);
#307=AXIS2_PLACEMENT_3D('',#420,#347,#348);
#308=AXIS2_PLACEMENT_3D('',#421,#349,#350);
#309=AXIS2_PLACEMENT_3D('',#423,#351,#352);
#310=AXIS2_PLACEMENT_3D('',#424,#353,#354);
#311=AXIS2_PLACEMENT_3D('',#426,#355,#356);
#312=AXIS2_PLACEMENT_3D('',#427,#357,#358);
#313=AXIS2_PLACEMENT_3D('',#429,#359,#360);
#314=AXIS2_PLACEMENT_3D('',#430,#361,#362);
#315=AXIS2_PLACEMENT_3D('',#432,#363,#364);
#316=AXIS2_PLACEMENT_3D('',#433,#365,#366);
#317=AXIS2_PLACEMENT_3D('',#435,#367,#368);
#318=AXIS2_PLACEMENT_3D('',#436,#369,#370);
#319=AXIS2_PLACEMENT_3D('',#438,#371,#372);
#320=AXIS2_PLACEMENT_3D('',#439,#373,#374);
#321=AXIS2_PLACEMENT_3D('',#441,#376,#377);
#322=AXIS2_PLACEMENT_3D('',#443,#379,#380);
#323=DIRECTION('',(0.,0.,1.));
#324=DIRECTION('',(1.,0.,0.));
#325=DIRECTION('',(-1.,0.,0.));
#326=DIRECTION('',(0.,0.,1.));
#327=DIRECTION('',(-1.,0.,0.));
#328=DIRECTION('',(0.,0.,1.));
#329=DIRECTION('',(-6.12303176911189E-17,-1.,1.18584612615602E-16));
#330=DIRECTION('',(-1.,0.,0.));
#331=DIRECTION('',(0.,0.,1.));
#332=DIRECTION('',(-1.,0.,0.));
#333=DIRECTION('',(0.,0.,1.));
#334=DIRECTION('',(6.12303176911189E-17,1.,1.18584612615602E-16));
#335=DIRECTION('',(-1.,0.,0.));
#336=DIRECTION('',(0.,0.,1.));
#337=DIRECTION('',(1.,-6.12303176911189E-17,0.));
#338=DIRECTION('',(6.12303176911189E-17,1.,0.));
#339=DIRECTION('',(1.,-6.12303176911189E-17,0.));
#340=DIRECTION('',(6.12303176911189E-17,1.,0.));
#341=DIRECTION('',(-1.,0.,0.));
#342=DIRECTION('',(0.,0.,1.));
#343=DIRECTION('',(1.,0.,0.));
#344=DIRECTION('',(0.,0.,-1.));
#345=DIRECTION('',(-1.,0.,0.));
#346=DIRECTION('',(0.,0.,1.));
#347=DIRECTION('',(1.,0.,0.));
#348=DIRECTION('',(0.,0.,-1.));
#349=DIRECTION('',(-1.,0.,0.));
#350=DIRECTION('',(0.,0.,1.));
#351=DIRECTION('',(-1.,0.,0.));
#352=DIRECTION('',(0.,0.,1.));
#353=DIRECTION('',(-1.,0.,0.));
#354=DIRECTION('',(0.,0.,1.));
#355=DIRECTION('',(1.,0.,0.));
#356=DIRECTION('',(0.,0.,-1.));
#357=DIRECTION('',(-1.,0.,0.));
#358=DIRECTION('',(0.,0.,1.));
#359=DIRECTION('',(-1.,0.,0.));
#360=DIRECTION('',(0.,0.,1.));
#361=DIRECTION('',(-1.,0.,0.));
#362=DIRECTION('',(0.,0.,1.));
#363=DIRECTION('',(-1.,0.,0.));
#364=DIRECTION('',(0.,0.,1.));
#365=DIRECTION('',(-1.,0.,0.));
#366=DIRECTION('',(0.,0.,1.));
#367=DIRECTION('',(-1.,0.,0.));
#368=DIRECTION('',(0.,0.,1.));
#369=DIRECTION('',(-1.,0.,0.));
#370=DIRECTION('',(0.,0.,1.));
#371=DIRECTION('',(-1.,0.,0.));
#372=DIRECTION('',(0.,0.,1.));
#373=DIRECTION('',(0.,-1.18584612615602E-16,1.));
#374=DIRECTION('',(0.,-1.,-1.18584612615602E-16));
#375=DIRECTION('',(6.12303176911189E-17,1.,1.18584612615602E-16));
#376=DIRECTION('',(0.,-1.18584612615602E-16,-1.));
#377=DIRECTION('',(0.,1.,-1.18584612615602E-16));
#378=DIRECTION('',(-6.12303176911189E-17,-1.,1.18584612615602E-16));
#379=DIRECTION('',(1.,-6.12303176911189E-17,0.));
#380=DIRECTION('',(6.12303176911189E-17,1.,0.));
#381=CARTESIAN_POINT('',(0.,0.,0.));
#382=CARTESIAN_POINT('',(-1.0842021724855E-16,0.,0.));
#383=CARTESIAN_POINT('',(-2.16840434497101E-16,0.,0.));
#384=CARTESIAN_POINT('',(-6.01089809573736E-17,-0.981686576584464,0.199999999999998));
#385=CARTESIAN_POINT('',(6.01089809573736E-17,0.981686576584464,0.199999999999998));
#386=CARTESIAN_POINT('',(9.79685083057902E-17,1.6,0.199999999999998));
#387=CARTESIAN_POINT('',(-1.0842021724855E-16,0.,0.));
#388=CARTESIAN_POINT('',(-2.16840434497101E-16,0.,0.));
#389=CARTESIAN_POINT('',(6.01089809573736E-17,0.981686576584463,-0.200000000000001));
#390=CARTESIAN_POINT('',(-6.01089809573736E-17,-0.981686576584463,-0.200000000000002));
#391=CARTESIAN_POINT('',(-9.79685083057902E-17,-1.6,-0.200000000000002));
#392=CARTESIAN_POINT('',(0.5,0.,0.));
#393=CARTESIAN_POINT('',(0.35,9.18454765366782E-18,0.));
#394=CARTESIAN_POINT('',(0.35,-1.46523546142533,-0.200000000000002));
#395=CARTESIAN_POINT('',(0.35,-1.46523546142533,0.199999999999998));
#396=CARTESIAN_POINT('',(0.349999999999999,-1.46523546142533,-0.200000000000002));
#397=CARTESIAN_POINT('',(0.146797449141212,-1.40073865059306,-0.200000000000002));
#398=CARTESIAN_POINT('',(-1.01847241104907E-14,-1.19372861533403,-0.200000000000002));
#399=CARTESIAN_POINT('',(-1.00008069592343E-14,-0.981686576584462,-0.200000000000002));
#400=CARTESIAN_POINT('',(-9.4305562963609E-15,0.981686576584463,-0.200000000000001));
#401=CARTESIAN_POINT('',(-9.52238395397624E-15,1.19342673894928,-0.200000000000001));
#402=CARTESIAN_POINT('',(0.147323985776966,1.40090577415353,-0.200000000000001));
#403=CARTESIAN_POINT('',(0.349999999999997,1.46523546142534,-0.200000000000001));
#404=CARTESIAN_POINT('',(0.35,1.46523546142533,-0.200000000000001));
#405=CARTESIAN_POINT('',(0.35,9.18454765366782E-18,0.));
#406=CARTESIAN_POINT('',(0.35,1.46523546142533,0.199999999999998));
#407=CARTESIAN_POINT('',(0.349999999999989,1.46523546142536,0.199999999999998));
#408=CARTESIAN_POINT('',(0.147689923423952,1.40102192334111,0.199999999999998));
#409=CARTESIAN_POINT('',(-9.2036827297202E-16,1.19536409226509,0.199999999999998));
#410=CARTESIAN_POINT('',(-9.2036827297202E-16,0.981686576584464,0.199999999999998));
#411=CARTESIAN_POINT('',(-1.6510908011182E-14,-0.981686576584464,0.199999999999998));
#412=CARTESIAN_POINT('',(-1.63271841843141E-14,-1.19350572748918,0.199999999999998));
#413=CARTESIAN_POINT('',(0.148166252619015,-1.40117311098059,0.199999999999998));
#414=CARTESIAN_POINT('',(0.349999999999975,-1.46523546142541,0.199999999999998));
#415=CARTESIAN_POINT('',(0.456422128626171,0.,0.));
#416=CARTESIAN_POINT('',(0.456422128626171,0.,1.49994990039568));
#417=CARTESIAN_POINT('',(0.456422128626171,0.,0.));
#418=CARTESIAN_POINT('',(1.6,0.,0.));
#419=CARTESIAN_POINT('',(1.6,0.,1.6));
#420=CARTESIAN_POINT('',(1.6,0.,1.6));
#421=CARTESIAN_POINT('',(1.6,0.,0.));
#422=CARTESIAN_POINT('',(1.6,0.,0.8));
#423=CARTESIAN_POINT('',(1.7,0.,0.));
#424=CARTESIAN_POINT('',(1.71666666666667,0.,0.));
#425=CARTESIAN_POINT('',(1.71666666666667,0.,0.701398670281673));
#426=CARTESIAN_POINT('',(1.71666666666667,0.,0.));
#427=CARTESIAN_POINT('',(2.3,0.,0.));
#428=CARTESIAN_POINT('',(2.3,0.,0.8));
#429=CARTESIAN_POINT('',(0.,0.,0.));
#430=CARTESIAN_POINT('',(2.7,0.,0.));
#431=CARTESIAN_POINT('',(2.7,0.,0.8));
#432=CARTESIAN_POINT('',(3.1,0.,0.));
#433=CARTESIAN_POINT('',(3.1,0.,0.));
#434=CARTESIAN_POINT('',(3.1,0.,0.4));
#435=CARTESIAN_POINT('',(0.,0.,0.));
#436=CARTESIAN_POINT('',(4.22613574644976,0.,0.));
#437=CARTESIAN_POINT('',(4.22613574644976,0.,0.4));
#438=CARTESIAN_POINT('',(3.18,0.,0.));
#439=CARTESIAN_POINT('',(0.35,-1.6,-0.200000000000002));
#440=CARTESIAN_POINT('',(0.35,-1.6,-0.200000000000002));
#441=CARTESIAN_POINT('',(0.35,1.6,0.199999999999998));
#442=CARTESIAN_POINT('',(0.35,1.6,0.199999999999998));
#443=CARTESIAN_POINT('',(0.35,0.,0.));
#444=MECHANICAL_DESIGN_GEOMETRIC_PRESENTATION_REPRESENTATION('',(#178,#179,
#180,#181,#182,#183,#184,#185,#186,#187,#188,#189,#190,#191),#445);
#445=(
GEOMETRIC_REPRESENTATION_CONTEXT(3)
GLOBAL_UNCERTAINTY_ASSIGNED_CONTEXT((#446))
GLOBAL_UNIT_ASSIGNED_CONTEXT((#449,#448,#447))
REPRESENTATION_CONTEXT('\X2\5F0069FD76D859345B9A4F4D87BA9489\X0\',
'TOP_LEVEL_ASSEMBLY_PART')
);
#446=UNCERTAINTY_MEASURE_WITH_UNIT(LENGTH_MEASURE(0.005),#449,
'DISTANCE_ACCURACY_VALUE','Maximum Tolerance applied to model');
#447=(
NAMED_UNIT(*)
SI_UNIT($,.STERADIAN.)
SOLID_ANGLE_UNIT()
);
#448=(
NAMED_UNIT(*)
PLANE_ANGLE_UNIT()
SI_UNIT($,.RADIAN.)
);
#449=(
LENGTH_UNIT()
NAMED_UNIT(*)
SI_UNIT(.MILLI.,.METRE.)
);
#450=PRODUCT_DEFINITION_SHAPE('','',#451);
#451=PRODUCT_DEFINITION('','',#453,#452);
#452=PRODUCT_DEFINITION_CONTEXT('',#459,'design');
#453=PRODUCT_DEFINITION_FORMATION_WITH_SPECIFIED_SOURCE('','',#455,
 .NOT_KNOWN.);
#454=PRODUCT_RELATED_PRODUCT_CATEGORY('','',(#455));
#455=PRODUCT('\X2\5F0069FD76D859345B9A4F4D87BA9489\X0\',
'\X2\5F0069FD76D859345B9A4F4D87BA9489\X0\','\X2\5F0069FD76D859345B9A4F4D87BA9489\X0\',
(#457));
#456=PRODUCT_CATEGORY('','');
#457=PRODUCT_CONTEXT('',#459,'mechanical');
#458=APPLICATION_PROTOCOL_DEFINITION('international standard',
'automotive_design',2010,#459);
#459=APPLICATION_CONTEXT(
'core data for automotive mechanical design processes');
ENDSEC;
END-ISO-10303-21;
