ISO-10303-21;
HEADER;
/* Generated by software containing HOOPS Exchange Step
 * from HOOPS Exchange, Inc. (www.tiangong.cloud) 
 */

FILE_DESCRIPTION(
/* description */ ('Unknown'),
/* implementation_level */ '2;1');

FILE_NAME(
/* name */ '\X2\53415B5769FD534A6C89593481EA653B87BA9489\X0\',
/* time_stamp */ '2025-12-31T14:49:09+08:00',
/* author */ ('Unknown'),
/* organization */ ('Unknown'),
/* preprocessor_version */ 'ST-DEVELOPER v19.4',
/* originating_system */ 'TianGong',
/* authorisation */ 'Unknown');

FILE_SCHEMA (('AUTOMOTIVE_DESIGN {1 0 10303 214 3 1 1}'));
ENDSEC;

DATA;
#10=PROPERTY_DEFINITION_REPRESENTATION(#14,#12);
#11=PROPERTY_DEFINITION_REPRESENTATION(#15,#13);
#12=REPRESENTATION('',(#16),#860);
#13=REPRESENTATION('',(#17),#860);
#14=PROPERTY_DEFINITION('pmi validation property','',#865);
#15=PROPERTY_DEFINITION('pmi validation property','',#865);
#16=VALUE_REPRESENTATION_ITEM('number of annotations',COUNT_MEASURE(0.));
#17=VALUE_REPRESENTATION_ITEM('number of views',COUNT_MEASURE(0.));
#18=SHAPE_REPRESENTATION_RELATIONSHIP('','',#568,#19);
#19=ADVANCED_BREP_SHAPE_REPRESENTATION('',(#566),#860);
#20=LINE('',#795,#48);
#21=LINE('',#797,#49);
#22=LINE('',#799,#50);
#23=LINE('',#801,#51);
#24=LINE('',#803,#52);
#25=LINE('',#805,#53);
#26=LINE('',#808,#54);
#27=LINE('',#809,#55);
#28=LINE('',#811,#56);
#29=LINE('',#813,#57);
#30=LINE('',#815,#58);
#31=LINE('',#817,#59);
#32=LINE('',#819,#60);
#33=LINE('',#822,#61);
#34=LINE('',#823,#62);
#35=LINE('',#825,#63);
#36=LINE('',#827,#64);
#37=LINE('',#829,#65);
#38=LINE('',#831,#66);
#39=LINE('',#833,#67);
#40=LINE('',#836,#68);
#41=LINE('',#837,#69);
#42=LINE('',#839,#70);
#43=LINE('',#841,#71);
#44=LINE('',#843,#72);
#45=LINE('',#845,#73);
#46=LINE('',#847,#74);
#47=LINE('',#849,#75);
#48=VECTOR('',#664,1000.);
#49=VECTOR('',#665,1000.);
#50=VECTOR('',#666,1000.);
#51=VECTOR('',#669,1000.);
#52=VECTOR('',#670,1000.);
#53=VECTOR('',#673,1000.);
#54=VECTOR('',#674,1000.);
#55=VECTOR('',#675,1000.);
#56=VECTOR('',#678,1000.);
#57=VECTOR('',#679,1000.);
#58=VECTOR('',#682,1000.);
#59=VECTOR('',#683,1000.);
#60=VECTOR('',#686,1000.);
#61=VECTOR('',#687,1000.);
#62=VECTOR('',#688,1000.);
#63=VECTOR('',#691,1000.);
#64=VECTOR('',#692,1000.);
#65=VECTOR('',#695,1000.);
#66=VECTOR('',#696,1000.);
#67=VECTOR('',#699,1000.);
#68=VECTOR('',#700,1000.);
#69=VECTOR('',#701,1000.);
#70=VECTOR('',#704,1000.);
#71=VECTOR('',#705,1000.);
#72=VECTOR('',#708,1000.);
#73=VECTOR('',#709,1000.);
#74=VECTOR('',#712,1000.);
#75=VECTOR('',#713,1000.);
#76=PLANE('',#593);
#77=PLANE('',#594);
#78=PLANE('',#595);
#79=PLANE('',#596);
#80=PLANE('',#597);
#81=PLANE('',#598);
#82=PLANE('',#599);
#83=PLANE('',#600);
#84=PLANE('',#601);
#85=PLANE('',#602);
#86=PLANE('',#603);
#87=PLANE('',#604);
#88=PLANE('',#605);
#89=VERTEX_LOOP('',#278);
#90=TOROIDAL_SURFACE('',#591,1.9,0.8);
#91=CONICAL_SURFACE('',#589,1.9,0.785398163397448);
#92=CONICAL_SURFACE('',#592,2.16840434497101E-16,0.463647609000806);
#93=B_SPLINE_CURVE_WITH_KNOTS('',3,(#742,#743,#744,#745),.UNSPECIFIED.,
 .F.,.F.,(4,4),(0.,0.0004959962792905),.UNSPECIFIED.);
#94=B_SPLINE_CURVE_WITH_KNOTS('',3,(#753,#754,#755,#756),.UNSPECIFIED.,
 .F.,.F.,(4,4),(0.,0.0004959962792905),.UNSPECIFIED.);
#95=B_SPLINE_CURVE_WITH_KNOTS('',3,(#764,#765,#766,#767),.UNSPECIFIED.,
 .F.,.F.,(4,4),(0.,0.000495996279290502),.UNSPECIFIED.);
#96=B_SPLINE_CURVE_WITH_KNOTS('',3,(#775,#776,#777,#778),.UNSPECIFIED.,
 .F.,.F.,(4,4),(0.,0.000495996279290502),.UNSPECIFIED.);
#97=SPHERICAL_SURFACE('',#573,4.);
#98=ORIENTED_EDGE('',*,*,#204,.T.);
#99=ORIENTED_EDGE('',*,*,#205,.T.);
#100=ORIENTED_EDGE('',*,*,#206,.F.);
#101=ORIENTED_EDGE('',*,*,#207,.T.);
#102=ORIENTED_EDGE('',*,*,#208,.F.);
#103=ORIENTED_EDGE('',*,*,#209,.F.);
#104=ORIENTED_EDGE('',*,*,#210,.F.);
#105=ORIENTED_EDGE('',*,*,#211,.T.);
#106=ORIENTED_EDGE('',*,*,#212,.F.);
#107=ORIENTED_EDGE('',*,*,#213,.F.);
#108=ORIENTED_EDGE('',*,*,#214,.F.);
#109=ORIENTED_EDGE('',*,*,#215,.T.);
#110=ORIENTED_EDGE('',*,*,#216,.F.);
#111=ORIENTED_EDGE('',*,*,#217,.F.);
#112=ORIENTED_EDGE('',*,*,#218,.F.);
#113=ORIENTED_EDGE('',*,*,#219,.T.);
#114=ORIENTED_EDGE('',*,*,#220,.F.);
#115=ORIENTED_EDGE('',*,*,#221,.F.);
#116=ORIENTED_EDGE('',*,*,#222,.T.);
#117=ORIENTED_EDGE('',*,*,#223,.T.);
#118=ORIENTED_EDGE('',*,*,#222,.F.);
#119=ORIENTED_EDGE('',*,*,#224,.T.);
#120=ORIENTED_EDGE('',*,*,#223,.F.);
#121=ORIENTED_EDGE('',*,*,#205,.F.);
#122=ORIENTED_EDGE('',*,*,#224,.F.);
#123=ORIENTED_EDGE('',*,*,#204,.F.);
#124=ORIENTED_EDGE('',*,*,#221,.T.);
#125=ORIENTED_EDGE('',*,*,#225,.T.);
#126=ORIENTED_EDGE('',*,*,#226,.T.);
#127=ORIENTED_EDGE('',*,*,#227,.F.);
#128=ORIENTED_EDGE('',*,*,#220,.T.);
#129=ORIENTED_EDGE('',*,*,#228,.T.);
#130=ORIENTED_EDGE('',*,*,#229,.T.);
#131=ORIENTED_EDGE('',*,*,#225,.F.);
#132=ORIENTED_EDGE('',*,*,#230,.T.);
#133=ORIENTED_EDGE('',*,*,#231,.T.);
#134=ORIENTED_EDGE('',*,*,#218,.T.);
#135=ORIENTED_EDGE('',*,*,#232,.T.);
#136=ORIENTED_EDGE('',*,*,#217,.T.);
#137=ORIENTED_EDGE('',*,*,#233,.T.);
#138=ORIENTED_EDGE('',*,*,#234,.T.);
#139=ORIENTED_EDGE('',*,*,#232,.F.);
#140=ORIENTED_EDGE('',*,*,#216,.T.);
#141=ORIENTED_EDGE('',*,*,#235,.T.);
#142=ORIENTED_EDGE('',*,*,#236,.T.);
#143=ORIENTED_EDGE('',*,*,#233,.F.);
#144=ORIENTED_EDGE('',*,*,#237,.T.);
#145=ORIENTED_EDGE('',*,*,#238,.T.);
#146=ORIENTED_EDGE('',*,*,#214,.T.);
#147=ORIENTED_EDGE('',*,*,#239,.T.);
#148=ORIENTED_EDGE('',*,*,#213,.T.);
#149=ORIENTED_EDGE('',*,*,#240,.T.);
#150=ORIENTED_EDGE('',*,*,#241,.T.);
#151=ORIENTED_EDGE('',*,*,#239,.F.);
#152=ORIENTED_EDGE('',*,*,#212,.T.);
#153=ORIENTED_EDGE('',*,*,#242,.T.);
#154=ORIENTED_EDGE('',*,*,#243,.T.);
#155=ORIENTED_EDGE('',*,*,#240,.F.);
#156=ORIENTED_EDGE('',*,*,#244,.T.);
#157=ORIENTED_EDGE('',*,*,#245,.T.);
#158=ORIENTED_EDGE('',*,*,#210,.T.);
#159=ORIENTED_EDGE('',*,*,#246,.T.);
#160=ORIENTED_EDGE('',*,*,#209,.T.);
#161=ORIENTED_EDGE('',*,*,#247,.T.);
#162=ORIENTED_EDGE('',*,*,#248,.T.);
#163=ORIENTED_EDGE('',*,*,#246,.F.);
#164=ORIENTED_EDGE('',*,*,#208,.T.);
#165=ORIENTED_EDGE('',*,*,#249,.T.);
#166=ORIENTED_EDGE('',*,*,#250,.T.);
#167=ORIENTED_EDGE('',*,*,#247,.F.);
#168=ORIENTED_EDGE('',*,*,#251,.T.);
#169=ORIENTED_EDGE('',*,*,#252,.T.);
#170=ORIENTED_EDGE('',*,*,#206,.T.);
#171=ORIENTED_EDGE('',*,*,#227,.T.);
#172=ORIENTED_EDGE('',*,*,#230,.F.);
#173=ORIENTED_EDGE('',*,*,#234,.F.);
#174=ORIENTED_EDGE('',*,*,#236,.F.);
#175=ORIENTED_EDGE('',*,*,#253,.T.);
#176=ORIENTED_EDGE('',*,*,#237,.F.);
#177=ORIENTED_EDGE('',*,*,#241,.F.);
#178=ORIENTED_EDGE('',*,*,#243,.F.);
#179=ORIENTED_EDGE('',*,*,#254,.T.);
#180=ORIENTED_EDGE('',*,*,#244,.F.);
#181=ORIENTED_EDGE('',*,*,#248,.F.);
#182=ORIENTED_EDGE('',*,*,#250,.F.);
#183=ORIENTED_EDGE('',*,*,#255,.T.);
#184=ORIENTED_EDGE('',*,*,#251,.F.);
#185=ORIENTED_EDGE('',*,*,#226,.F.);
#186=ORIENTED_EDGE('',*,*,#229,.F.);
#187=ORIENTED_EDGE('',*,*,#256,.T.);
#188=ORIENTED_EDGE('',*,*,#219,.F.);
#189=ORIENTED_EDGE('',*,*,#231,.F.);
#190=ORIENTED_EDGE('',*,*,#256,.F.);
#191=ORIENTED_EDGE('',*,*,#228,.F.);
#192=ORIENTED_EDGE('',*,*,#215,.F.);
#193=ORIENTED_EDGE('',*,*,#238,.F.);
#194=ORIENTED_EDGE('',*,*,#253,.F.);
#195=ORIENTED_EDGE('',*,*,#235,.F.);
#196=ORIENTED_EDGE('',*,*,#211,.F.);
#197=ORIENTED_EDGE('',*,*,#245,.F.);
#198=ORIENTED_EDGE('',*,*,#254,.F.);
#199=ORIENTED_EDGE('',*,*,#242,.F.);
#200=ORIENTED_EDGE('',*,*,#207,.F.);
#201=ORIENTED_EDGE('',*,*,#252,.F.);
#202=ORIENTED_EDGE('',*,*,#255,.F.);
#203=ORIENTED_EDGE('',*,*,#249,.F.);
#204=EDGE_CURVE('',#257,#257,#295,.T.);
#205=EDGE_CURVE('',#258,#258,#296,.F.);
#206=EDGE_CURVE('',#259,#260,#297,.F.);
#207=EDGE_CURVE('',#259,#261,#93,.T.);
#208=EDGE_CURVE('',#262,#261,#298,.F.);
#209=EDGE_CURVE('',#263,#262,#299,.F.);
#210=EDGE_CURVE('',#264,#263,#300,.F.);
#211=EDGE_CURVE('',#264,#265,#94,.T.);
#212=EDGE_CURVE('',#266,#265,#301,.F.);
#213=EDGE_CURVE('',#267,#266,#302,.F.);
#214=EDGE_CURVE('',#268,#267,#303,.F.);
#215=EDGE_CURVE('',#268,#269,#95,.T.);
#216=EDGE_CURVE('',#270,#269,#304,.F.);
#217=EDGE_CURVE('',#271,#270,#305,.F.);
#218=EDGE_CURVE('',#272,#271,#306,.F.);
#219=EDGE_CURVE('',#272,#273,#96,.T.);
#220=EDGE_CURVE('',#274,#273,#307,.F.);
#221=EDGE_CURVE('',#260,#274,#308,.F.);
#222=EDGE_CURVE('',#275,#275,#309,.T.);
#223=EDGE_CURVE('',#276,#276,#310,.T.);
#224=EDGE_CURVE('',#277,#277,#311,.T.);
#225=EDGE_CURVE('',#274,#279,#20,.T.);
#226=EDGE_CURVE('',#279,#280,#21,.F.);
#227=EDGE_CURVE('',#260,#280,#22,.T.);
#228=EDGE_CURVE('',#273,#281,#23,.T.);
#229=EDGE_CURVE('',#281,#279,#24,.F.);
#230=EDGE_CURVE('',#282,#283,#25,.F.);
#231=EDGE_CURVE('',#283,#272,#26,.F.);
#232=EDGE_CURVE('',#271,#282,#27,.T.);
#233=EDGE_CURVE('',#270,#284,#28,.T.);
#234=EDGE_CURVE('',#284,#282,#29,.F.);
#235=EDGE_CURVE('',#269,#285,#30,.T.);
#236=EDGE_CURVE('',#285,#284,#31,.F.);
#237=EDGE_CURVE('',#286,#287,#32,.F.);
#238=EDGE_CURVE('',#287,#268,#33,.F.);
#239=EDGE_CURVE('',#267,#286,#34,.T.);
#240=EDGE_CURVE('',#266,#288,#35,.T.);
#241=EDGE_CURVE('',#288,#286,#36,.F.);
#242=EDGE_CURVE('',#265,#289,#37,.T.);
#243=EDGE_CURVE('',#289,#288,#38,.F.);
#244=EDGE_CURVE('',#290,#291,#39,.F.);
#245=EDGE_CURVE('',#291,#264,#40,.F.);
#246=EDGE_CURVE('',#263,#290,#41,.T.);
#247=EDGE_CURVE('',#262,#292,#42,.T.);
#248=EDGE_CURVE('',#292,#290,#43,.F.);
#249=EDGE_CURVE('',#261,#293,#44,.T.);
#250=EDGE_CURVE('',#293,#292,#45,.F.);
#251=EDGE_CURVE('',#280,#294,#46,.F.);
#252=EDGE_CURVE('',#294,#259,#47,.F.);
#253=EDGE_CURVE('',#285,#287,#312,.F.);
#254=EDGE_CURVE('',#289,#291,#313,.F.);
#255=EDGE_CURVE('',#293,#294,#314,.F.);
#256=EDGE_CURVE('',#281,#283,#315,.F.);
#257=VERTEX_POINT('',#735);
#258=VERTEX_POINT('',#737);
#259=VERTEX_POINT('',#740);
#260=VERTEX_POINT('',#741);
#261=VERTEX_POINT('',#746);
#262=VERTEX_POINT('',#748);
#263=VERTEX_POINT('',#750);
#264=VERTEX_POINT('',#752);
#265=VERTEX_POINT('',#757);
#266=VERTEX_POINT('',#759);
#267=VERTEX_POINT('',#761);
#268=VERTEX_POINT('',#763);
#269=VERTEX_POINT('',#768);
#270=VERTEX_POINT('',#770);
#271=VERTEX_POINT('',#772);
#272=VERTEX_POINT('',#774);
#273=VERTEX_POINT('',#779);
#274=VERTEX_POINT('',#781);
#275=VERTEX_POINT('',#784);
#276=VERTEX_POINT('',#787);
#277=VERTEX_POINT('',#790);
#278=VERTEX_POINT('',#793);
#279=VERTEX_POINT('',#796);
#280=VERTEX_POINT('',#798);
#281=VERTEX_POINT('',#802);
#282=VERTEX_POINT('',#806);
#283=VERTEX_POINT('',#807);
#284=VERTEX_POINT('',#812);
#285=VERTEX_POINT('',#816);
#286=VERTEX_POINT('',#820);
#287=VERTEX_POINT('',#821);
#288=VERTEX_POINT('',#826);
#289=VERTEX_POINT('',#830);
#290=VERTEX_POINT('',#834);
#291=VERTEX_POINT('',#835);
#292=VERTEX_POINT('',#840);
#293=VERTEX_POINT('',#844);
#294=VERTEX_POINT('',#848);
#295=CIRCLE('',#571,1.1);
#296=CIRCLE('',#572,1.1);
#297=CIRCLE('',#574,3.99686509098763);
#298=CIRCLE('',#575,3.99686509098763);
#299=CIRCLE('',#576,3.98458336707388);
#300=CIRCLE('',#577,3.99686509098763);
#301=CIRCLE('',#578,3.99686509098763);
#302=CIRCLE('',#579,3.98458336707388);
#303=CIRCLE('',#580,3.99686509098763);
#304=CIRCLE('',#581,3.99686509098763);
#305=CIRCLE('',#582,3.98458336707387);
#306=CIRCLE('',#583,3.99686509098763);
#307=CIRCLE('',#584,3.99686509098763);
#308=CIRCLE('',#585,3.98458336707388);
#309=CIRCLE('',#586,1.89999999999999);
#310=CIRCLE('',#588,1.9);
#311=CIRCLE('',#590,1.33431457505076);
#312=CIRCLE('',#606,0.316666666666667);
#313=CIRCLE('',#607,0.316666666666667);
#314=CIRCLE('',#608,0.316666666666667);
#315=CIRCLE('',#609,0.316666666666667);
#316=EDGE_LOOP('',(#98));
#317=EDGE_LOOP('',(#99));
#318=EDGE_LOOP('',(#100,#101,#102,#103,#104,#105,#106,#107,#108,#109,#110,
#111,#112,#113,#114,#115));
#319=EDGE_LOOP('',(#116));
#320=EDGE_LOOP('',(#117));
#321=EDGE_LOOP('',(#118));
#322=EDGE_LOOP('',(#119));
#323=EDGE_LOOP('',(#120));
#324=EDGE_LOOP('',(#121));
#325=EDGE_LOOP('',(#122));
#326=EDGE_LOOP('',(#123));
#327=EDGE_LOOP('',(#124,#125,#126,#127));
#328=EDGE_LOOP('',(#128,#129,#130,#131));
#329=EDGE_LOOP('',(#132,#133,#134,#135));
#330=EDGE_LOOP('',(#136,#137,#138,#139));
#331=EDGE_LOOP('',(#140,#141,#142,#143));
#332=EDGE_LOOP('',(#144,#145,#146,#147));
#333=EDGE_LOOP('',(#148,#149,#150,#151));
#334=EDGE_LOOP('',(#152,#153,#154,#155));
#335=EDGE_LOOP('',(#156,#157,#158,#159));
#336=EDGE_LOOP('',(#160,#161,#162,#163));
#337=EDGE_LOOP('',(#164,#165,#166,#167));
#338=EDGE_LOOP('',(#168,#169,#170,#171));
#339=EDGE_LOOP('',(#172,#173,#174,#175,#176,#177,#178,#179,#180,#181,#182,
#183,#184,#185,#186,#187));
#340=EDGE_LOOP('',(#188,#189,#190,#191));
#341=EDGE_LOOP('',(#192,#193,#194,#195));
#342=EDGE_LOOP('',(#196,#197,#198,#199));
#343=EDGE_LOOP('',(#200,#201,#202,#203));
#344=FACE_BOUND('',#316,.T.);
#345=FACE_BOUND('',#317,.T.);
#346=FACE_BOUND('',#318,.T.);
#347=FACE_BOUND('',#319,.T.);
#348=FACE_BOUND('',#320,.T.);
#349=FACE_BOUND('',#321,.T.);
#350=FACE_BOUND('',#322,.T.);
#351=FACE_BOUND('',#323,.T.);
#352=FACE_BOUND('',#324,.T.);
#353=FACE_BOUND('',#325,.T.);
#354=FACE_BOUND('',#326,.T.);
#355=FACE_BOUND('',#89,.T.);
#356=FACE_BOUND('',#327,.T.);
#357=FACE_BOUND('',#328,.T.);
#358=FACE_BOUND('',#329,.T.);
#359=FACE_BOUND('',#330,.T.);
#360=FACE_BOUND('',#331,.T.);
#361=FACE_BOUND('',#332,.T.);
#362=FACE_BOUND('',#333,.T.);
#363=FACE_BOUND('',#334,.T.);
#364=FACE_BOUND('',#335,.T.);
#365=FACE_BOUND('',#336,.T.);
#366=FACE_BOUND('',#337,.T.);
#367=FACE_BOUND('',#338,.T.);
#368=FACE_BOUND('',#339,.T.);
#369=FACE_BOUND('',#340,.T.);
#370=FACE_BOUND('',#341,.T.);
#371=FACE_BOUND('',#342,.T.);
#372=FACE_BOUND('',#343,.T.);
#373=CYLINDRICAL_SURFACE('',#570,1.1);
#374=CYLINDRICAL_SURFACE('',#587,1.9);
#375=CYLINDRICAL_SURFACE('',#610,0.316666666666667);
#376=CYLINDRICAL_SURFACE('',#611,0.316666666666667);
#377=CYLINDRICAL_SURFACE('',#612,0.316666666666667);
#378=CYLINDRICAL_SURFACE('',#613,0.316666666666667);
#379=STYLED_ITEM('',(#402),#542);
#380=STYLED_ITEM('',(#403),#543);
#381=STYLED_ITEM('',(#404),#544);
#382=STYLED_ITEM('',(#405),#545);
#383=STYLED_ITEM('',(#406),#546);
#384=STYLED_ITEM('',(#407),#547);
#385=STYLED_ITEM('',(#408),#548);
#386=STYLED_ITEM('',(#409),#549);
#387=STYLED_ITEM('',(#410),#550);
#388=STYLED_ITEM('',(#411),#551);
#389=STYLED_ITEM('',(#412),#552);
#390=STYLED_ITEM('',(#413),#553);
#391=STYLED_ITEM('',(#414),#554);
#392=STYLED_ITEM('',(#415),#555);
#393=STYLED_ITEM('',(#416),#556);
#394=STYLED_ITEM('',(#417),#557);
#395=STYLED_ITEM('',(#418),#558);
#396=STYLED_ITEM('',(#419),#559);
#397=STYLED_ITEM('',(#420),#560);
#398=STYLED_ITEM('',(#421),#561);
#399=STYLED_ITEM('',(#422),#562);
#400=STYLED_ITEM('',(#423),#563);
#401=STYLED_ITEM('',(#424),#564);
#402=PRESENTATION_STYLE_ASSIGNMENT((#425));
#403=PRESENTATION_STYLE_ASSIGNMENT((#426));
#404=PRESENTATION_STYLE_ASSIGNMENT((#427));
#405=PRESENTATION_STYLE_ASSIGNMENT((#428));
#406=PRESENTATION_STYLE_ASSIGNMENT((#429));
#407=PRESENTATION_STYLE_ASSIGNMENT((#430));
#408=PRESENTATION_STYLE_ASSIGNMENT((#431));
#409=PRESENTATION_STYLE_ASSIGNMENT((#432));
#410=PRESENTATION_STYLE_ASSIGNMENT((#433));
#411=PRESENTATION_STYLE_ASSIGNMENT((#434));
#412=PRESENTATION_STYLE_ASSIGNMENT((#435));
#413=PRESENTATION_STYLE_ASSIGNMENT((#436));
#414=PRESENTATION_STYLE_ASSIGNMENT((#437));
#415=PRESENTATION_STYLE_ASSIGNMENT((#438));
#416=PRESENTATION_STYLE_ASSIGNMENT((#439));
#417=PRESENTATION_STYLE_ASSIGNMENT((#440));
#418=PRESENTATION_STYLE_ASSIGNMENT((#441));
#419=PRESENTATION_STYLE_ASSIGNMENT((#442));
#420=PRESENTATION_STYLE_ASSIGNMENT((#443));
#421=PRESENTATION_STYLE_ASSIGNMENT((#444));
#422=PRESENTATION_STYLE_ASSIGNMENT((#445));
#423=PRESENTATION_STYLE_ASSIGNMENT((#446));
#424=PRESENTATION_STYLE_ASSIGNMENT((#447));
#425=SURFACE_STYLE_USAGE(.BOTH.,#448);
#426=SURFACE_STYLE_USAGE(.BOTH.,#449);
#427=SURFACE_STYLE_USAGE(.BOTH.,#450);
#428=SURFACE_STYLE_USAGE(.BOTH.,#451);
#429=SURFACE_STYLE_USAGE(.BOTH.,#452);
#430=SURFACE_STYLE_USAGE(.BOTH.,#453);
#431=SURFACE_STYLE_USAGE(.BOTH.,#454);
#432=SURFACE_STYLE_USAGE(.BOTH.,#455);
#433=SURFACE_STYLE_USAGE(.BOTH.,#456);
#434=SURFACE_STYLE_USAGE(.BOTH.,#457);
#435=SURFACE_STYLE_USAGE(.BOTH.,#458);
#436=SURFACE_STYLE_USAGE(.BOTH.,#459);
#437=SURFACE_STYLE_USAGE(.BOTH.,#460);
#438=SURFACE_STYLE_USAGE(.BOTH.,#461);
#439=SURFACE_STYLE_USAGE(.BOTH.,#462);
#440=SURFACE_STYLE_USAGE(.BOTH.,#463);
#441=SURFACE_STYLE_USAGE(.BOTH.,#464);
#442=SURFACE_STYLE_USAGE(.BOTH.,#465);
#443=SURFACE_STYLE_USAGE(.BOTH.,#466);
#444=SURFACE_STYLE_USAGE(.BOTH.,#467);
#445=SURFACE_STYLE_USAGE(.BOTH.,#468);
#446=SURFACE_STYLE_USAGE(.BOTH.,#469);
#447=SURFACE_STYLE_USAGE(.BOTH.,#470);
#448=SURFACE_SIDE_STYLE('',(#471));
#449=SURFACE_SIDE_STYLE('',(#472));
#450=SURFACE_SIDE_STYLE('',(#473));
#451=SURFACE_SIDE_STYLE('',(#474));
#452=SURFACE_SIDE_STYLE('',(#475));
#453=SURFACE_SIDE_STYLE('',(#476));
#454=SURFACE_SIDE_STYLE('',(#477));
#455=SURFACE_SIDE_STYLE('',(#478));
#456=SURFACE_SIDE_STYLE('',(#479));
#457=SURFACE_SIDE_STYLE('',(#480));
#458=SURFACE_SIDE_STYLE('',(#481));
#459=SURFACE_SIDE_STYLE('',(#482));
#460=SURFACE_SIDE_STYLE('',(#483));
#461=SURFACE_SIDE_STYLE('',(#484));
#462=SURFACE_SIDE_STYLE('',(#485));
#463=SURFACE_SIDE_STYLE('',(#486));
#464=SURFACE_SIDE_STYLE('',(#487));
#465=SURFACE_SIDE_STYLE('',(#488));
#466=SURFACE_SIDE_STYLE('',(#489));
#467=SURFACE_SIDE_STYLE('',(#490));
#468=SURFACE_SIDE_STYLE('',(#491));
#469=SURFACE_SIDE_STYLE('',(#492));
#470=SURFACE_SIDE_STYLE('',(#493));
#471=SURFACE_STYLE_FILL_AREA(#494);
#472=SURFACE_STYLE_FILL_AREA(#495);
#473=SURFACE_STYLE_FILL_AREA(#496);
#474=SURFACE_STYLE_FILL_AREA(#497);
#475=SURFACE_STYLE_FILL_AREA(#498);
#476=SURFACE_STYLE_FILL_AREA(#499);
#477=SURFACE_STYLE_FILL_AREA(#500);
#478=SURFACE_STYLE_FILL_AREA(#501);
#479=SURFACE_STYLE_FILL_AREA(#502);
#480=SURFACE_STYLE_FILL_AREA(#503);
#481=SURFACE_STYLE_FILL_AREA(#504);
#482=SURFACE_STYLE_FILL_AREA(#505);
#483=SURFACE_STYLE_FILL_AREA(#506);
#484=SURFACE_STYLE_FILL_AREA(#507);
#485=SURFACE_STYLE_FILL_AREA(#508);
#486=SURFACE_STYLE_FILL_AREA(#509);
#487=SURFACE_STYLE_FILL_AREA(#510);
#488=SURFACE_STYLE_FILL_AREA(#511);
#489=SURFACE_STYLE_FILL_AREA(#512);
#490=SURFACE_STYLE_FILL_AREA(#513);
#491=SURFACE_STYLE_FILL_AREA(#514);
#492=SURFACE_STYLE_FILL_AREA(#515);
#493=SURFACE_STYLE_FILL_AREA(#516);
#494=FILL_AREA_STYLE('',(#517));
#495=FILL_AREA_STYLE('',(#518));
#496=FILL_AREA_STYLE('',(#519));
#497=FILL_AREA_STYLE('',(#520));
#498=FILL_AREA_STYLE('',(#521));
#499=FILL_AREA_STYLE('',(#522));
#500=FILL_AREA_STYLE('',(#523));
#501=FILL_AREA_STYLE('',(#524));
#502=FILL_AREA_STYLE('',(#525));
#503=FILL_AREA_STYLE('',(#526));
#504=FILL_AREA_STYLE('',(#527));
#505=FILL_AREA_STYLE('',(#528));
#506=FILL_AREA_STYLE('',(#529));
#507=FILL_AREA_STYLE('',(#530));
#508=FILL_AREA_STYLE('',(#531));
#509=FILL_AREA_STYLE('',(#532));
#510=FILL_AREA_STYLE('',(#533));
#511=FILL_AREA_STYLE('',(#534));
#512=FILL_AREA_STYLE('',(#535));
#513=FILL_AREA_STYLE('',(#536));
#514=FILL_AREA_STYLE('',(#537));
#515=FILL_AREA_STYLE('',(#538));
#516=FILL_AREA_STYLE('',(#539));
#517=FILL_AREA_STYLE_COLOUR('',#540);
#518=FILL_AREA_STYLE_COLOUR('',#541);
#519=FILL_AREA_STYLE_COLOUR('',#541);
#520=FILL_AREA_STYLE_COLOUR('',#541);
#521=FILL_AREA_STYLE_COLOUR('',#541);
#522=FILL_AREA_STYLE_COLOUR('',#541);
#523=FILL_AREA_STYLE_COLOUR('',#541);
#524=FILL_AREA_STYLE_COLOUR('',#541);
#525=FILL_AREA_STYLE_COLOUR('',#541);
#526=FILL_AREA_STYLE_COLOUR('',#541);
#527=FILL_AREA_STYLE_COLOUR('',#541);
#528=FILL_AREA_STYLE_COLOUR('',#541);
#529=FILL_AREA_STYLE_COLOUR('',#541);
#530=FILL_AREA_STYLE_COLOUR('',#541);
#531=FILL_AREA_STYLE_COLOUR('',#541);
#532=FILL_AREA_STYLE_COLOUR('',#541);
#533=FILL_AREA_STYLE_COLOUR('',#541);
#534=FILL_AREA_STYLE_COLOUR('',#541);
#535=FILL_AREA_STYLE_COLOUR('',#541);
#536=FILL_AREA_STYLE_COLOUR('',#541);
#537=FILL_AREA_STYLE_COLOUR('',#541);
#538=FILL_AREA_STYLE_COLOUR('',#541);
#539=FILL_AREA_STYLE_COLOUR('',#541);
#540=COLOUR_RGB('',0.1875,0.75,0.581249892711639);
#541=COLOUR_RGB('',0.506983280181885,0.531564235687256,0.550000011920929);
#542=ADVANCED_FACE('',(#344,#345),#373,.T.);
#543=ADVANCED_FACE('',(#346,#347),#97,.T.);
#544=ADVANCED_FACE('',(#348,#349),#374,.T.);
#545=ADVANCED_FACE('',(#350,#351),#91,.T.);
#546=ADVANCED_FACE('',(#352,#353),#90,.F.);
#547=ADVANCED_FACE('',(#354,#355),#92,.T.);
#548=ADVANCED_FACE('',(#356),#76,.F.);
#549=ADVANCED_FACE('',(#357),#77,.F.);
#550=ADVANCED_FACE('',(#358),#78,.F.);
#551=ADVANCED_FACE('',(#359),#79,.F.);
#552=ADVANCED_FACE('',(#360),#80,.F.);
#553=ADVANCED_FACE('',(#361),#81,.F.);
#554=ADVANCED_FACE('',(#362),#82,.F.);
#555=ADVANCED_FACE('',(#363),#83,.F.);
#556=ADVANCED_FACE('',(#364),#84,.F.);
#557=ADVANCED_FACE('',(#365),#85,.F.);
#558=ADVANCED_FACE('',(#366),#86,.F.);
#559=ADVANCED_FACE('',(#367),#87,.F.);
#560=ADVANCED_FACE('',(#368),#88,.T.);
#561=ADVANCED_FACE('',(#369),#375,.T.);
#562=ADVANCED_FACE('',(#370),#376,.T.);
#563=ADVANCED_FACE('',(#371),#377,.T.);
#564=ADVANCED_FACE('',(#372),#378,.T.);
#565=CLOSED_SHELL('',(#542,#543,#544,#545,#546,#547,#548,#549,#550,#551,
#552,#553,#554,#555,#556,#557,#558,#559,#560,#561,#562,#563,#564));
#566=MANIFOLD_SOLID_BREP('',#565);
#567=SHAPE_DEFINITION_REPRESENTATION(#865,#568);
#568=SHAPE_REPRESENTATION('\X2\53415B5769FD534A6C89593481EA653B87BA9489\X0\',
(#569),#860);
#569=AXIS2_PLACEMENT_3D('',#732,#614,#615);
#570=AXIS2_PLACEMENT_3D('',#733,#616,#617);
#571=AXIS2_PLACEMENT_3D('',#734,#618,#619);
#572=AXIS2_PLACEMENT_3D('',#736,#620,#621);
#573=AXIS2_PLACEMENT_3D('',#738,#622,#623);
#574=AXIS2_PLACEMENT_3D('',#739,#624,#625);
#575=AXIS2_PLACEMENT_3D('',#747,#626,#627);
#576=AXIS2_PLACEMENT_3D('',#749,#628,#629);
#577=AXIS2_PLACEMENT_3D('',#751,#630,#631);
#578=AXIS2_PLACEMENT_3D('',#758,#632,#633);
#579=AXIS2_PLACEMENT_3D('',#760,#634,#635);
#580=AXIS2_PLACEMENT_3D('',#762,#636,#637);
#581=AXIS2_PLACEMENT_3D('',#769,#638,#639);
#582=AXIS2_PLACEMENT_3D('',#771,#640,#641);
#583=AXIS2_PLACEMENT_3D('',#773,#642,#643);
#584=AXIS2_PLACEMENT_3D('',#780,#644,#645);
#585=AXIS2_PLACEMENT_3D('',#782,#646,#647);
#586=AXIS2_PLACEMENT_3D('',#783,#648,#649);
#587=AXIS2_PLACEMENT_3D('',#785,#650,#651);
#588=AXIS2_PLACEMENT_3D('',#786,#652,#653);
#589=AXIS2_PLACEMENT_3D('',#788,#654,#655);
#590=AXIS2_PLACEMENT_3D('',#789,#656,#657);
#591=AXIS2_PLACEMENT_3D('',#791,#658,#659);
#592=AXIS2_PLACEMENT_3D('',#792,#660,#661);
#593=AXIS2_PLACEMENT_3D('',#794,#662,#663);
#594=AXIS2_PLACEMENT_3D('',#800,#667,#668);
#595=AXIS2_PLACEMENT_3D('',#804,#671,#672);
#596=AXIS2_PLACEMENT_3D('',#810,#676,#677);
#597=AXIS2_PLACEMENT_3D('',#814,#680,#681);
#598=AXIS2_PLACEMENT_3D('',#818,#684,#685);
#599=AXIS2_PLACEMENT_3D('',#824,#689,#690);
#600=AXIS2_PLACEMENT_3D('',#828,#693,#694);
#601=AXIS2_PLACEMENT_3D('',#832,#697,#698);
#602=AXIS2_PLACEMENT_3D('',#838,#702,#703);
#603=AXIS2_PLACEMENT_3D('',#842,#706,#707);
#604=AXIS2_PLACEMENT_3D('',#846,#710,#711);
#605=AXIS2_PLACEMENT_3D('',#850,#714,#715);
#606=AXIS2_PLACEMENT_3D('',#851,#716,#717);
#607=AXIS2_PLACEMENT_3D('',#852,#718,#719);
#608=AXIS2_PLACEMENT_3D('',#853,#720,#721);
#609=AXIS2_PLACEMENT_3D('',#854,#722,#723);
#610=AXIS2_PLACEMENT_3D('',#855,#724,#725);
#611=AXIS2_PLACEMENT_3D('',#856,#726,#727);
#612=AXIS2_PLACEMENT_3D('',#857,#728,#729);
#613=AXIS2_PLACEMENT_3D('',#858,#730,#731);
#614=DIRECTION('',(0.,0.,1.));
#615=DIRECTION('',(1.,0.,0.));
#616=DIRECTION('',(-1.,0.,4.29149964950057E-17));
#617=DIRECTION('',(4.29149964950057E-17,0.,1.));
#618=DIRECTION('',(-1.,0.,0.));
#619=DIRECTION('',(0.,0.,1.));
#620=DIRECTION('',(-1.,0.,4.29149964950057E-17));
#621=DIRECTION('',(4.29149964950057E-17,0.,1.));
#622=DIRECTION('',(-1.,0.,4.29149964950057E-17));
#623=DIRECTION('',(-4.29149964950057E-17,0.,-1.));
#624=DIRECTION('',(0.,-1.,0.));
#625=DIRECTION('',(0.,0.,-1.));
#626=DIRECTION('',(0.,-3.42379633416475E-17,1.));
#627=DIRECTION('',(0.,-1.,-3.42379633416475E-17));
#628=DIRECTION('',(0.313258506558045,-0.949667893565442,0.));
#629=DIRECTION('',(0.949667893565442,0.313258506558045,0.));
#630=DIRECTION('',(-2.25875452601147E-17,1.38304257213935E-33,-1.));
#631=DIRECTION('',(-1.,0.,2.25875452601147E-17));
#632=DIRECTION('',(0.,-1.,0.));
#633=DIRECTION('',(0.,0.,-1.));
#634=DIRECTION('',(0.313258506558045,-1.04238831663986E-14,-0.949667893565442));
#635=DIRECTION('',(-0.949667893565442,0.,-0.313258506558045));
#636=DIRECTION('',(-1.34563169107288E-31,1.,5.95740562144664E-15));
#637=DIRECTION('',(0.,-5.95740562144664E-15,1.));
#638=DIRECTION('',(2.25875452601147E-17,-1.38304257213935E-33,-1.));
#639=DIRECTION('',(-1.,0.,-2.25875452601147E-17));
#640=DIRECTION('',(0.313258506558047,0.949667893565441,0.));
#641=DIRECTION('',(-0.949667893565441,0.313258506558047,0.));
#642=DIRECTION('',(-2.25875452601147E-17,1.38304257213935E-33,1.));
#643=DIRECTION('',(1.,0.,2.25875452601147E-17));
#644=DIRECTION('',(1.34563169107288E-31,1.,-5.95740562144667E-15));
#645=DIRECTION('',(0.,5.95740562144667E-15,1.));
#646=DIRECTION('',(0.313258506558045,-1.91809178759945E-17,0.949667893565442));
#647=DIRECTION('',(0.949667893565442,0.,-0.313258506558045));
#648=DIRECTION('',(-1.,0.,4.29149964950057E-17));
#649=DIRECTION('',(4.29149964950057E-17,0.,1.));
#650=DIRECTION('',(-1.,0.,4.29149964950057E-17));
#651=DIRECTION('',(4.29149964950057E-17,0.,1.));
#652=DIRECTION('',(-1.,0.,4.29149964950057E-17));
#653=DIRECTION('',(4.29149964950057E-17,0.,1.));
#654=DIRECTION('',(-1.,0.,4.29149964950057E-17));
#655=DIRECTION('',(4.29149964950057E-17,0.,1.));
#656=DIRECTION('',(-1.,0.,4.29149964950057E-17));
#657=DIRECTION('',(4.29149964950057E-17,0.,1.));
#658=DIRECTION('',(-1.,0.,4.29149964950057E-17));
#659=DIRECTION('',(4.29149964950057E-17,0.,1.));
#660=DIRECTION('',(-1.,0.,0.));
#661=DIRECTION('',(0.,0.,1.));
#662=DIRECTION('',(0.313258506558045,-1.91809178759945E-17,0.949667893565442));
#663=DIRECTION('',(0.949667893565442,0.,-0.313258506558045));
#664=DIRECTION('',(0.949667893565442,-1.8447573214069E-15,-0.313258506558045));
#665=DIRECTION('',(6.12303176911189E-17,1.,0.));
#666=DIRECTION('',(0.949667893565442,0.,-0.313258506558045));
#667=DIRECTION('',(1.34563169107288E-31,1.,-5.95740562144667E-15));
#668=DIRECTION('',(0.,5.95740562144667E-15,1.));
#669=DIRECTION('',(1.,0.,2.25875452601147E-17));
#670=DIRECTION('',(-3.68966641561049E-31,-6.02588154812996E-15,-1.));
#671=DIRECTION('',(-2.25875452601147E-17,1.38304257213935E-33,1.));
#672=DIRECTION('',(1.,0.,2.25875452601147E-17));
#673=DIRECTION('',(6.12303176911189E-17,1.,-6.84759266832946E-17));
#674=DIRECTION('',(1.,0.,2.25875452601147E-17));
#675=DIRECTION('',(0.949667893565441,-0.313258506558047,0.));
#676=DIRECTION('',(0.313258506558047,0.949667893565441,0.));
#677=DIRECTION('',(-0.949667893565441,0.313258506558047,0.));
#678=DIRECTION('',(0.949667893565441,-0.313258506558047,0.));
#679=DIRECTION('',(0.,0.,-1.));
#680=DIRECTION('',(2.25875452601147E-17,-1.38304257213935E-33,-1.));
#681=DIRECTION('',(-1.,0.,-2.25875452601147E-17));
#682=DIRECTION('',(1.,0.,2.25875452601147E-17));
#683=DIRECTION('',(-6.12303176911189E-17,-1.,0.));
#684=DIRECTION('',(-1.34563169107288E-31,1.,5.95740562144664E-15));
#685=DIRECTION('',(0.,-5.95740562144664E-15,1.));
#686=DIRECTION('',(3.64773838816035E-31,5.95740562144664E-15,-1.));
#687=DIRECTION('',(1.,0.,2.25875452601147E-17));
#688=DIRECTION('',(0.949667893565441,-1.86620798793489E-15,0.313258506558046));
#689=DIRECTION('',(0.313258506558045,-1.04238831663986E-14,-0.949667893565442));
#690=DIRECTION('',(-0.949667893565442,0.,-0.313258506558045));
#691=DIRECTION('',(0.949667893565442,-2.14506665279872E-17,0.313258506558045));
#692=DIRECTION('',(-6.12303176911189E-17,-1.,5.47807413466364E-15));
#693=DIRECTION('',(0.,-1.,0.));
#694=DIRECTION('',(0.,0.,-1.));
#695=DIRECTION('',(1.,0.,-2.25875452601147E-17));
#696=DIRECTION('',(4.19280274501192E-33,6.8475926683295E-17,1.));
#697=DIRECTION('',(-2.25875452601147E-17,1.38304257213935E-33,-1.));
#698=DIRECTION('',(-1.,0.,2.25875452601147E-17));
#699=DIRECTION('',(-6.12303176911189E-17,-1.,6.8475926683295E-17));
#700=DIRECTION('',(1.,0.,-2.25875452601147E-17));
#701=DIRECTION('',(0.949667893565442,0.313258506558045,0.));
#702=DIRECTION('',(0.313258506558045,-0.949667893565442,0.));
#703=DIRECTION('',(0.949667893565442,0.313258506558045,0.));
#704=DIRECTION('',(0.949667893565442,0.313258506558045,4.29013330559744E-17));
#705=DIRECTION('',(0.,0.,1.));
#706=DIRECTION('',(0.,-3.42379633416475E-17,1.));
#707=DIRECTION('',(0.,-1.,-3.42379633416475E-17));
#708=DIRECTION('',(1.,0.,0.));
#709=DIRECTION('',(6.12303176911189E-17,1.,-6.8475926683295E-17));
#710=DIRECTION('',(0.,-1.,0.));
#711=DIRECTION('',(0.,0.,-1.));
#712=DIRECTION('',(0.,0.,1.));
#713=DIRECTION('',(1.,0.,0.));
#714=DIRECTION('',(-1.,0.,0.));
#715=DIRECTION('',(0.,0.,1.));
#716=DIRECTION('',(-1.,0.,0.));
#717=DIRECTION('',(0.,0.,1.));
#718=DIRECTION('',(-1.,0.,0.));
#719=DIRECTION('',(0.,0.,1.));
#720=DIRECTION('',(-1.,0.,0.));
#721=DIRECTION('',(0.,0.,1.));
#722=DIRECTION('',(-1.,0.,0.));
#723=DIRECTION('',(0.,0.,1.));
#724=DIRECTION('',(1.,0.,2.25875452601147E-17));
#725=DIRECTION('',(2.25875452601147E-17,0.,-1.));
#726=DIRECTION('',(1.,0.,2.25875452601147E-17));
#727=DIRECTION('',(2.25875452601147E-17,0.,-1.));
#728=DIRECTION('',(1.,0.,-2.25875452601147E-17));
#729=DIRECTION('',(-2.25875452601147E-17,0.,-1.));
#730=DIRECTION('',(1.,0.,0.));
#731=DIRECTION('',(0.,0.,-1.));
#732=CARTESIAN_POINT('',(0.,0.,0.));
#733=CARTESIAN_POINT('',(4.98005681864039,0.,-2.13719120916882E-16));
#734=CARTESIAN_POINT('',(4.78005681864039,0.,0.));
#735=CARTESIAN_POINT('',(4.78005681864039,0.,1.1));
#736=CARTESIAN_POINT('',(1.91142766853887,0.,-8.20289116958024E-17));
#737=CARTESIAN_POINT('',(1.91142766853887,0.,1.1));
#738=CARTESIAN_POINT('',(4.,0.,0.));
#739=CARTESIAN_POINT('',(4.,-0.158333333333331,0.));
#740=CARTESIAN_POINT('',(0.0314605261437098,-0.158333333333331,0.475));
#741=CARTESIAN_POINT('',(0.109051158313641,-0.158333333333331,0.914028263750709));
#742=CARTESIAN_POINT('',(0.0314605261437098,-0.158333333333331,0.475));
#743=CARTESIAN_POINT('',(0.0115321281502239,-0.158333333333331,0.308501822972911));
#744=CARTESIAN_POINT('',(0.0115311453124504,-0.308493611540277,0.158333333333333));
#745=CARTESIAN_POINT('',(0.0314605261437096,-0.474999999999998,0.158333333333333));
#746=CARTESIAN_POINT('',(0.0314605261437098,-0.474999999999998,0.158333333333333));
#747=CARTESIAN_POINT('',(4.,-5.42101086242752E-18,0.158333333333333));
#748=CARTESIAN_POINT('',(0.10905115831364,-0.914028263750707,0.158333333333333));
#749=CARTESIAN_POINT('',(3.89009340103731,0.333190531592169,0.));
#750=CARTESIAN_POINT('',(0.10905115831364,-0.914028263750707,-0.158333333333333));
#751=CARTESIAN_POINT('',(4.,2.1898174058873E-34,-0.158333333333333));
#752=CARTESIAN_POINT('',(0.0314605261437098,-0.474999999999998,-0.158333333333333));
#753=CARTESIAN_POINT('',(0.0314605261437098,-0.474999999999998,-0.158333333333333));
#754=CARTESIAN_POINT('',(0.011532128150224,-0.308501822972909,-0.158333333333333));
#755=CARTESIAN_POINT('',(0.0115311453124506,-0.158333333333331,-0.308493611540279));
#756=CARTESIAN_POINT('',(0.0314605261437099,-0.158333333333331,-0.475));
#757=CARTESIAN_POINT('',(0.0314605261437098,-0.158333333333331,-0.475));
#758=CARTESIAN_POINT('',(4.,-0.158333333333331,0.));
#759=CARTESIAN_POINT('',(0.109051158313641,-0.158333333333331,-0.914028263750709));
#760=CARTESIAN_POINT('',(3.89009340103731,3.65721448203056E-15,0.333190531592166));
#761=CARTESIAN_POINT('',(0.109051158313641,0.158333333333335,-0.914028263750712));
#762=CARTESIAN_POINT('',(4.,0.15833333333333,9.43255890062365E-16));
#763=CARTESIAN_POINT('',(0.0314605261437107,0.158333333333333,-0.475000000000002));
#764=CARTESIAN_POINT('',(0.0314605261437107,0.158333333333333,-0.475000000000002));
#765=CARTESIAN_POINT('',(0.0115321281502246,0.158333333333332,-0.308501822972912));
#766=CARTESIAN_POINT('',(0.0115311453124501,0.308493611540278,-0.158333333333333));
#767=CARTESIAN_POINT('',(0.0314605261437095,0.475,-0.158333333333333));
#768=CARTESIAN_POINT('',(0.0314605261437098,0.475,-0.158333333333333));
#769=CARTESIAN_POINT('',(4.,-2.1898174058873E-34,-0.158333333333333));
#770=CARTESIAN_POINT('',(0.109051158313641,0.914028263750711,-0.158333333333333));
#771=CARTESIAN_POINT('',(3.8900934010373,-0.333190531592172,0.));
#772=CARTESIAN_POINT('',(0.109051158313641,0.914028263750711,0.158333333333333));
#773=CARTESIAN_POINT('',(4.,2.1898174058873E-34,0.158333333333333));
#774=CARTESIAN_POINT('',(0.0314605261437098,0.475,0.158333333333333));
#775=CARTESIAN_POINT('',(0.0314605261437098,0.475,0.158333333333333));
#776=CARTESIAN_POINT('',(0.0115321281502239,0.30850182297291,0.158333333333333));
#777=CARTESIAN_POINT('',(0.0115311453124514,0.158333333333332,0.30849361154028));
#778=CARTESIAN_POINT('',(0.0314605261437109,0.158333333333333,0.475000000000002));
#779=CARTESIAN_POINT('',(0.0314605261437107,0.158333333333333,0.475000000000002));
#780=CARTESIAN_POINT('',(4.,0.15833333333333,-9.43255890062369E-16));
#781=CARTESIAN_POINT('',(0.109051158313641,0.158333333333336,0.914028263750709));
#782=CARTESIAN_POINT('',(3.89009340103731,6.72961597083616E-18,-0.333190531592167));
#783=CARTESIAN_POINT('',(0.480056818640387,0.,-2.06016366893558E-17));
#784=CARTESIAN_POINT('',(0.480056818640387,0.,1.89999999999999));
#785=CARTESIAN_POINT('',(4.98005681864039,0.,-2.13719120916882E-16));
#786=CARTESIAN_POINT('',(0.780056818640392,0.,-3.34761356378577E-17));
#787=CARTESIAN_POINT('',(0.780056818640392,0.,1.9));
#788=CARTESIAN_POINT('',(0.780056818640392,0.,-3.34761356378577E-17));
#789=CARTESIAN_POINT('',(1.34574224358963,0.,-5.775252366683E-17));
#790=CARTESIAN_POINT('',(1.34574224358963,0.,1.33431457505076));
#791=CARTESIAN_POINT('',(1.91142766853887,0.,-8.20289116958024E-17));
#792=CARTESIAN_POINT('',(6.98005681864039,0.,0.));
#793=CARTESIAN_POINT('',(6.98005681864039,0.,2.16840434497101E-16));
#794=CARTESIAN_POINT('',(0.282616968761213,-1.73047267821501E-17,0.856775652665572));
#795=CARTESIAN_POINT('',(9.69480030109396E-18,0.158333333333336,0.95));
#796=CARTESIAN_POINT('',(1.2,0.158333333333333,0.554166666666667));
#797=CARTESIAN_POINT('',(1.2,-0.158333333333331,0.554166666666667));
#798=CARTESIAN_POINT('',(1.2,-0.158333333333331,0.554166666666667));
#799=CARTESIAN_POINT('',(-9.69480030109367E-18,-0.158333333333331,0.95));
#800=CARTESIAN_POINT('',(2.13058351086535E-32,0.15833333333333,-9.43255890062369E-16));
#801=CARTESIAN_POINT('',(-1.07290839985545E-17,0.158333333333333,0.475000000000002));
#802=CARTESIAN_POINT('',(1.2,0.158333333333333,0.475000000000002));
#803=CARTESIAN_POINT('',(1.2,0.158333333333333,0.554166666666667));
#804=CARTESIAN_POINT('',(-3.57636133285149E-18,2.1898174058873E-34,0.158333333333333));
#805=CARTESIAN_POINT('',(1.2,0.158333333333331,0.158333333333333));
#806=CARTESIAN_POINT('',(1.2,0.554166666666667,0.158333333333333));
#807=CARTESIAN_POINT('',(1.2,0.475,0.158333333333333));
#808=CARTESIAN_POINT('',(-3.57636133285149E-18,0.475,0.158333333333333));
#809=CARTESIAN_POINT('',(5.81688018065631E-17,0.950000000000002,0.158333333333333));
#810=CARTESIAN_POINT('',(0.282616968761215,0.856775652665573,0.));
#811=CARTESIAN_POINT('',(5.81688018065631E-17,0.950000000000002,-0.158333333333333));
#812=CARTESIAN_POINT('',(1.2,0.554166666666667,-0.158333333333333));
#813=CARTESIAN_POINT('',(1.2,0.554166666666667,0.158333333333333));
#814=CARTESIAN_POINT('',(3.57636133285149E-18,-2.1898174058873E-34,-0.158333333333333));
#815=CARTESIAN_POINT('',(3.57636133285149E-18,0.475,-0.158333333333333));
#816=CARTESIAN_POINT('',(1.2,0.475,-0.158333333333333));
#817=CARTESIAN_POINT('',(1.2,0.554166666666667,-0.158333333333333));
#818=CARTESIAN_POINT('',(-2.13058351086534E-32,0.15833333333333,9.43255890062365E-16));
#819=CARTESIAN_POINT('',(1.2,0.158333333333331,-0.158333333333333));
#820=CARTESIAN_POINT('',(1.2,0.158333333333333,-0.554166666666668));
#821=CARTESIAN_POINT('',(1.2,0.158333333333333,-0.475000000000002));
#822=CARTESIAN_POINT('',(1.07290839985545E-17,0.158333333333333,-0.475000000000002));
#823=CARTESIAN_POINT('',(9.69480030109396E-18,0.158333333333336,-0.950000000000004));
#824=CARTESIAN_POINT('',(0.282616968761214,-9.40426581093576E-15,-0.856775652665574));
#825=CARTESIAN_POINT('',(-9.69480030109367E-18,-0.158333333333331,-0.95));
#826=CARTESIAN_POINT('',(1.2,-0.158333333333331,-0.554166666666667));
#827=CARTESIAN_POINT('',(1.2,0.158333333333333,-0.554166666666668));
#828=CARTESIAN_POINT('',(0.,-0.158333333333331,0.));
#829=CARTESIAN_POINT('',(-1.07290839985545E-17,-0.158333333333331,-0.475));
#830=CARTESIAN_POINT('',(1.2,-0.158333333333331,-0.475));
#831=CARTESIAN_POINT('',(1.2,-0.158333333333331,-0.554166666666667));
#832=CARTESIAN_POINT('',(-3.57636133285149E-18,2.1898174058873E-34,-0.158333333333333));
#833=CARTESIAN_POINT('',(1.2,-0.158333333333331,-0.158333333333333));
#834=CARTESIAN_POINT('',(1.2,-0.554166666666664,-0.158333333333333));
#835=CARTESIAN_POINT('',(1.2,-0.474999999999998,-0.158333333333333));
#836=CARTESIAN_POINT('',(-3.57636133285149E-18,-0.474999999999998,-0.158333333333333));
#837=CARTESIAN_POINT('',(-5.81688018065628E-17,-0.949999999999998,-0.158333333333333));
#838=CARTESIAN_POINT('',(0.282616968761212,-0.85677565266557,0.));
#839=CARTESIAN_POINT('',(-5.81688018065628E-17,-0.949999999999998,0.158333333333333));
#840=CARTESIAN_POINT('',(1.2,-0.554166666666664,0.158333333333333));
#841=CARTESIAN_POINT('',(1.2,-0.554166666666664,-0.158333333333333));
#842=CARTESIAN_POINT('',(0.,-5.42101086242752E-18,0.158333333333333));
#843=CARTESIAN_POINT('',(0.,-0.474999999999998,0.158333333333333));
#844=CARTESIAN_POINT('',(1.2,-0.474999999999998,0.158333333333333));
#845=CARTESIAN_POINT('',(1.2,-0.554166666666664,0.158333333333333));
#846=CARTESIAN_POINT('',(0.,-0.158333333333331,0.));
#847=CARTESIAN_POINT('',(1.2,-0.158333333333331,0.158333333333333));
#848=CARTESIAN_POINT('',(1.2,-0.158333333333331,0.475));
#849=CARTESIAN_POINT('',(0.,-0.158333333333331,0.475));
#850=CARTESIAN_POINT('',(1.2,0.455208333333333,0.0791666666666667));
#851=CARTESIAN_POINT('',(1.2,0.475,-0.475));
#852=CARTESIAN_POINT('',(1.2,-0.474999999999998,-0.475));
#853=CARTESIAN_POINT('',(1.2,-0.474999999999998,0.475));
#854=CARTESIAN_POINT('',(1.2,0.475,0.475));
#855=CARTESIAN_POINT('',(-1.07290839985545E-17,0.475,0.475));
#856=CARTESIAN_POINT('',(1.07290839985545E-17,0.475,-0.475));
#857=CARTESIAN_POINT('',(-1.07290839985545E-17,-0.474999999999998,-0.475));
#858=CARTESIAN_POINT('',(0.,-0.474999999999998,0.475));
#859=MECHANICAL_DESIGN_GEOMETRIC_PRESENTATION_REPRESENTATION('',(#379,#380,
#381,#382,#383,#384,#385,#386,#387,#388,#389,#390,#391,#392,#393,#394,#395,
#396,#397,#398,#399,#400,#401),#860);
#860=(
GEOMETRIC_REPRESENTATION_CONTEXT(3)
GLOBAL_UNCERTAINTY_ASSIGNED_CONTEXT((#861))
GLOBAL_UNIT_ASSIGNED_CONTEXT((#864,#863,#862))
REPRESENTATION_CONTEXT('\X2\53415B5769FD534A6C89593481EA653B87BA9489\X0\',
'TOP_LEVEL_ASSEMBLY_PART')
);
#861=UNCERTAINTY_MEASURE_WITH_UNIT(LENGTH_MEASURE(0.005),#864,
'DISTANCE_ACCURACY_VALUE','Maximum Tolerance applied to model');
#862=(
NAMED_UNIT(*)
SI_UNIT($,.STERADIAN.)
SOLID_ANGLE_UNIT()
);
#863=(
NAMED_UNIT(*)
PLANE_ANGLE_UNIT()
SI_UNIT($,.RADIAN.)
);
#864=(
LENGTH_UNIT()
NAMED_UNIT(*)
SI_UNIT(.MILLI.,.METRE.)
);
#865=PRODUCT_DEFINITION_SHAPE('','',#866);
#866=PRODUCT_DEFINITION('','',#868,#867);
#867=PRODUCT_DEFINITION_CONTEXT('',#874,'design');
#868=PRODUCT_DEFINITION_FORMATION_WITH_SPECIFIED_SOURCE('','',#870,
 .NOT_KNOWN.);
#869=PRODUCT_RELATED_PRODUCT_CATEGORY('','',(#870));
#870=PRODUCT('\X2\53415B5769FD534A6C89593481EA653B87BA9489\X0\',
'\X2\53415B5769FD534A6C89593481EA653B87BA9489\X0\',
'\X2\53415B5769FD534A6C89593481EA653B87BA9489\X0\',(#872));
#871=PRODUCT_CATEGORY('','');
#872=PRODUCT_CONTEXT('',#874,'mechanical');
#873=APPLICATION_PROTOCOL_DEFINITION('international standard',
'automotive_design',2010,#874);
#874=APPLICATION_CONTEXT(
'core data for automotive mechanical design processes');
ENDSEC;
END-ISO-10303-21;
