ISO-10303-21;
HEADER;
/* Generated by software containing HOOPS Exchange Step
 * from HOOPS Exchange, Inc. (www.tiangong.cloud) 
 */

FILE_DESCRIPTION(
/* description */ ('Unknown'),
/* implementation_level */ '2;1');

FILE_NAME(
/* name */ '\X2\53415B5769FD5C0F76D8593487BA9489\X0\',
/* time_stamp */ '2025-12-30T14:17:31+08:00',
/* author */ ('Unknown'),
/* organization */ ('Unknown'),
/* preprocessor_version */ 'ST-DEVELOPER v19.4',
/* originating_system */ 'TianGong',
/* authorisation */ 'Unknown');

FILE_SCHEMA (('AUTOMOTIVE_DESIGN {1 0 10303 214 3 1 1}'));
ENDSEC;

DATA;
#10=PROPERTY_DEFINITION_REPRESENTATION(#14,#12);
#11=PROPERTY_DEFINITION_REPRESENTATION(#15,#13);
#12=REPRESENTATION('',(#16),#811);
#13=REPRESENTATION('',(#17),#811);
#14=PROPERTY_DEFINITION('pmi validation property','',#816);
#15=PROPERTY_DEFINITION('pmi validation property','',#816);
#16=VALUE_REPRESENTATION_ITEM('number of annotations',COUNT_MEASURE(0.));
#17=VALUE_REPRESENTATION_ITEM('number of views',COUNT_MEASURE(0.));
#18=SHAPE_REPRESENTATION_RELATIONSHIP('','',#535,#19);
#19=ADVANCED_BREP_SHAPE_REPRESENTATION('',(#533),#811);
#20=LINE('',#762,#40);
#21=LINE('',#764,#41);
#22=LINE('',#766,#42);
#23=LINE('',#768,#43);
#24=LINE('',#770,#44);
#25=LINE('',#772,#45);
#26=LINE('',#774,#46);
#27=LINE('',#776,#47);
#28=LINE('',#778,#48);
#29=LINE('',#780,#49);
#30=LINE('',#782,#50);
#31=LINE('',#784,#51);
#32=LINE('',#786,#52);
#33=LINE('',#788,#53);
#34=LINE('',#790,#54);
#35=LINE('',#792,#55);
#36=LINE('',#794,#56);
#37=LINE('',#796,#57);
#38=LINE('',#798,#58);
#39=LINE('',#800,#59);
#40=VECTOR('',#637,1000.);
#41=VECTOR('',#638,1000.);
#42=VECTOR('',#639,1000.);
#43=VECTOR('',#642,1000.);
#44=VECTOR('',#645,1000.);
#45=VECTOR('',#646,1000.);
#46=VECTOR('',#649,1000.);
#47=VECTOR('',#650,1000.);
#48=VECTOR('',#653,1000.);
#49=VECTOR('',#656,1000.);
#50=VECTOR('',#657,1000.);
#51=VECTOR('',#660,1000.);
#52=VECTOR('',#661,1000.);
#53=VECTOR('',#664,1000.);
#54=VECTOR('',#667,1000.);
#55=VECTOR('',#668,1000.);
#56=VECTOR('',#671,1000.);
#57=VECTOR('',#672,1000.);
#58=VECTOR('',#675,1000.);
#59=VECTOR('',#678,1000.);
#60=CONICAL_SURFACE('',#561,1.20370889474673,0.273205078226668);
#61=TOROIDAL_SURFACE('',#559,1.3,0.1);
#62=B_SPLINE_CURVE_WITH_KNOTS('',3,(#708,#709,#710,#711),.UNSPECIFIED.,
 .F.,.F.,(4,4),(0.,0.000690151216419981),.UNSPECIFIED.);
#63=B_SPLINE_CURVE_WITH_KNOTS('',3,(#719,#720,#721,#722),.UNSPECIFIED.,
 .F.,.F.,(4,4),(0.,0.000690151216419981),.UNSPECIFIED.);
#64=B_SPLINE_CURVE_WITH_KNOTS('',3,(#730,#731,#732,#733),.UNSPECIFIED.,
 .F.,.F.,(4,4),(0.,0.000690151216419981),.UNSPECIFIED.);
#65=B_SPLINE_CURVE_WITH_KNOTS('',3,(#741,#742,#743,#744),.UNSPECIFIED.,
 .F.,.F.,(4,4),(0.,0.000690151216419981),.UNSPECIFIED.);
#66=SPHERICAL_SURFACE('',#541,4.5);
#67=PLANE('',#540);
#68=PLANE('',#557);
#69=PLANE('',#562);
#70=PLANE('',#563);
#71=PLANE('',#564);
#72=PLANE('',#565);
#73=PLANE('',#566);
#74=PLANE('',#567);
#75=PLANE('',#568);
#76=PLANE('',#569);
#77=PLANE('',#570);
#78=PLANE('',#571);
#79=PLANE('',#572);
#80=PLANE('',#573);
#81=PLANE('',#574);
#82=ORIENTED_EDGE('',*,*,#174,.T.);
#83=ORIENTED_EDGE('',*,*,#175,.F.);
#84=ORIENTED_EDGE('',*,*,#174,.F.);
#85=ORIENTED_EDGE('',*,*,#176,.F.);
#86=ORIENTED_EDGE('',*,*,#177,.T.);
#87=ORIENTED_EDGE('',*,*,#178,.F.);
#88=ORIENTED_EDGE('',*,*,#179,.F.);
#89=ORIENTED_EDGE('',*,*,#180,.F.);
#90=ORIENTED_EDGE('',*,*,#181,.T.);
#91=ORIENTED_EDGE('',*,*,#182,.F.);
#92=ORIENTED_EDGE('',*,*,#183,.F.);
#93=ORIENTED_EDGE('',*,*,#184,.F.);
#94=ORIENTED_EDGE('',*,*,#185,.T.);
#95=ORIENTED_EDGE('',*,*,#186,.F.);
#96=ORIENTED_EDGE('',*,*,#187,.F.);
#97=ORIENTED_EDGE('',*,*,#188,.F.);
#98=ORIENTED_EDGE('',*,*,#189,.T.);
#99=ORIENTED_EDGE('',*,*,#190,.F.);
#100=ORIENTED_EDGE('',*,*,#191,.F.);
#101=ORIENTED_EDGE('',*,*,#192,.T.);
#102=ORIENTED_EDGE('',*,*,#193,.T.);
#103=ORIENTED_EDGE('',*,*,#192,.F.);
#104=ORIENTED_EDGE('',*,*,#194,.T.);
#105=ORIENTED_EDGE('',*,*,#193,.F.);
#106=ORIENTED_EDGE('',*,*,#195,.T.);
#107=ORIENTED_EDGE('',*,*,#194,.F.);
#108=ORIENTED_EDGE('',*,*,#175,.T.);
#109=ORIENTED_EDGE('',*,*,#195,.F.);
#110=ORIENTED_EDGE('',*,*,#191,.T.);
#111=ORIENTED_EDGE('',*,*,#196,.T.);
#112=ORIENTED_EDGE('',*,*,#197,.T.);
#113=ORIENTED_EDGE('',*,*,#198,.F.);
#114=ORIENTED_EDGE('',*,*,#190,.T.);
#115=ORIENTED_EDGE('',*,*,#199,.T.);
#116=ORIENTED_EDGE('',*,*,#196,.F.);
#117=ORIENTED_EDGE('',*,*,#200,.T.);
#118=ORIENTED_EDGE('',*,*,#201,.T.);
#119=ORIENTED_EDGE('',*,*,#188,.T.);
#120=ORIENTED_EDGE('',*,*,#187,.T.);
#121=ORIENTED_EDGE('',*,*,#202,.T.);
#122=ORIENTED_EDGE('',*,*,#203,.T.);
#123=ORIENTED_EDGE('',*,*,#200,.F.);
#124=ORIENTED_EDGE('',*,*,#186,.T.);
#125=ORIENTED_EDGE('',*,*,#204,.T.);
#126=ORIENTED_EDGE('',*,*,#202,.F.);
#127=ORIENTED_EDGE('',*,*,#205,.T.);
#128=ORIENTED_EDGE('',*,*,#206,.T.);
#129=ORIENTED_EDGE('',*,*,#184,.T.);
#130=ORIENTED_EDGE('',*,*,#183,.T.);
#131=ORIENTED_EDGE('',*,*,#207,.T.);
#132=ORIENTED_EDGE('',*,*,#208,.T.);
#133=ORIENTED_EDGE('',*,*,#205,.F.);
#134=ORIENTED_EDGE('',*,*,#182,.T.);
#135=ORIENTED_EDGE('',*,*,#209,.T.);
#136=ORIENTED_EDGE('',*,*,#207,.F.);
#137=ORIENTED_EDGE('',*,*,#210,.T.);
#138=ORIENTED_EDGE('',*,*,#211,.T.);
#139=ORIENTED_EDGE('',*,*,#180,.T.);
#140=ORIENTED_EDGE('',*,*,#179,.T.);
#141=ORIENTED_EDGE('',*,*,#212,.T.);
#142=ORIENTED_EDGE('',*,*,#213,.T.);
#143=ORIENTED_EDGE('',*,*,#210,.F.);
#144=ORIENTED_EDGE('',*,*,#178,.T.);
#145=ORIENTED_EDGE('',*,*,#214,.T.);
#146=ORIENTED_EDGE('',*,*,#212,.F.);
#147=ORIENTED_EDGE('',*,*,#198,.T.);
#148=ORIENTED_EDGE('',*,*,#215,.T.);
#149=ORIENTED_EDGE('',*,*,#176,.T.);
#150=ORIENTED_EDGE('',*,*,#203,.F.);
#151=ORIENTED_EDGE('',*,*,#216,.T.);
#152=ORIENTED_EDGE('',*,*,#208,.F.);
#153=ORIENTED_EDGE('',*,*,#217,.T.);
#154=ORIENTED_EDGE('',*,*,#213,.F.);
#155=ORIENTED_EDGE('',*,*,#218,.T.);
#156=ORIENTED_EDGE('',*,*,#197,.F.);
#157=ORIENTED_EDGE('',*,*,#219,.T.);
#158=ORIENTED_EDGE('',*,*,#189,.F.);
#159=ORIENTED_EDGE('',*,*,#201,.F.);
#160=ORIENTED_EDGE('',*,*,#219,.F.);
#161=ORIENTED_EDGE('',*,*,#199,.F.);
#162=ORIENTED_EDGE('',*,*,#181,.F.);
#163=ORIENTED_EDGE('',*,*,#211,.F.);
#164=ORIENTED_EDGE('',*,*,#217,.F.);
#165=ORIENTED_EDGE('',*,*,#209,.F.);
#166=ORIENTED_EDGE('',*,*,#185,.F.);
#167=ORIENTED_EDGE('',*,*,#206,.F.);
#168=ORIENTED_EDGE('',*,*,#216,.F.);
#169=ORIENTED_EDGE('',*,*,#204,.F.);
#170=ORIENTED_EDGE('',*,*,#177,.F.);
#171=ORIENTED_EDGE('',*,*,#215,.F.);
#172=ORIENTED_EDGE('',*,*,#218,.F.);
#173=ORIENTED_EDGE('',*,*,#214,.F.);
#174=EDGE_CURVE('',#220,#220,#250,.T.);
#175=EDGE_CURVE('',#221,#221,#251,.T.);
#176=EDGE_CURVE('',#222,#223,#252,.T.);
#177=EDGE_CURVE('',#222,#224,#62,.T.);
#178=EDGE_CURVE('',#225,#224,#253,.T.);
#179=EDGE_CURVE('',#226,#225,#254,.T.);
#180=EDGE_CURVE('',#227,#226,#255,.T.);
#181=EDGE_CURVE('',#227,#228,#63,.T.);
#182=EDGE_CURVE('',#229,#228,#256,.T.);
#183=EDGE_CURVE('',#230,#229,#257,.T.);
#184=EDGE_CURVE('',#231,#230,#258,.T.);
#185=EDGE_CURVE('',#231,#232,#64,.T.);
#186=EDGE_CURVE('',#233,#232,#259,.T.);
#187=EDGE_CURVE('',#234,#233,#260,.T.);
#188=EDGE_CURVE('',#235,#234,#261,.T.);
#189=EDGE_CURVE('',#235,#236,#65,.T.);
#190=EDGE_CURVE('',#237,#236,#262,.T.);
#191=EDGE_CURVE('',#223,#237,#263,.T.);
#192=EDGE_CURVE('',#238,#238,#264,.T.);
#193=EDGE_CURVE('',#239,#239,#265,.T.);
#194=EDGE_CURVE('',#240,#240,#266,.T.);
#195=EDGE_CURVE('',#241,#241,#267,.T.);
#196=EDGE_CURVE('',#237,#242,#20,.T.);
#197=EDGE_CURVE('',#242,#243,#21,.F.);
#198=EDGE_CURVE('',#223,#243,#22,.T.);
#199=EDGE_CURVE('',#236,#242,#23,.F.);
#200=EDGE_CURVE('',#234,#244,#24,.T.);
#201=EDGE_CURVE('',#244,#235,#25,.T.);
#202=EDGE_CURVE('',#233,#245,#26,.T.);
#203=EDGE_CURVE('',#245,#244,#27,.F.);
#204=EDGE_CURVE('',#232,#245,#28,.F.);
#205=EDGE_CURVE('',#230,#246,#29,.T.);
#206=EDGE_CURVE('',#246,#231,#30,.T.);
#207=EDGE_CURVE('',#229,#247,#31,.T.);
#208=EDGE_CURVE('',#247,#246,#32,.F.);
#209=EDGE_CURVE('',#228,#247,#33,.F.);
#210=EDGE_CURVE('',#226,#248,#34,.T.);
#211=EDGE_CURVE('',#248,#227,#35,.T.);
#212=EDGE_CURVE('',#225,#249,#36,.T.);
#213=EDGE_CURVE('',#249,#248,#37,.F.);
#214=EDGE_CURVE('',#224,#249,#38,.F.);
#215=EDGE_CURVE('',#243,#222,#39,.T.);
#216=EDGE_CURVE('',#245,#246,#268,.F.);
#217=EDGE_CURVE('',#247,#248,#269,.F.);
#218=EDGE_CURVE('',#249,#243,#270,.F.);
#219=EDGE_CURVE('',#242,#244,#271,.F.);
#220=VERTEX_POINT('',#700);
#221=VERTEX_POINT('',#702);
#222=VERTEX_POINT('',#706);
#223=VERTEX_POINT('',#707);
#224=VERTEX_POINT('',#712);
#225=VERTEX_POINT('',#714);
#226=VERTEX_POINT('',#716);
#227=VERTEX_POINT('',#718);
#228=VERTEX_POINT('',#723);
#229=VERTEX_POINT('',#725);
#230=VERTEX_POINT('',#727);
#231=VERTEX_POINT('',#729);
#232=VERTEX_POINT('',#734);
#233=VERTEX_POINT('',#736);
#234=VERTEX_POINT('',#738);
#235=VERTEX_POINT('',#740);
#236=VERTEX_POINT('',#745);
#237=VERTEX_POINT('',#747);
#238=VERTEX_POINT('',#750);
#239=VERTEX_POINT('',#753);
#240=VERTEX_POINT('',#756);
#241=VERTEX_POINT('',#759);
#242=VERTEX_POINT('',#763);
#243=VERTEX_POINT('',#765);
#244=VERTEX_POINT('',#771);
#245=VERTEX_POINT('',#775);
#246=VERTEX_POINT('',#781);
#247=VERTEX_POINT('',#785);
#248=VERTEX_POINT('',#791);
#249=VERTEX_POINT('',#795);
#250=CIRCLE('',#538,1.);
#251=CIRCLE('',#539,0.999999999999999);
#252=CIRCLE('',#542,4.49461900498807);
#253=CIRCLE('',#543,4.49461900498807);
#254=CIRCLE('',#544,4.43032759365831);
#255=CIRCLE('',#545,4.49461900498807);
#256=CIRCLE('',#546,4.49461900498807);
#257=CIRCLE('',#547,4.43032759365831);
#258=CIRCLE('',#548,4.49461900498807);
#259=CIRCLE('',#549,4.49461900498807);
#260=CIRCLE('',#550,4.43032759365831);
#261=CIRCLE('',#551,4.49461900498807);
#262=CIRCLE('',#552,4.49461900498807);
#263=CIRCLE('',#553,4.43032759365831);
#264=CIRCLE('',#554,1.74999999999999);
#265=CIRCLE('',#556,1.75);
#266=CIRCLE('',#558,1.3);
#267=CIRCLE('',#560,1.20370889474673);
#268=CIRCLE('',#575,0.44);
#269=CIRCLE('',#576,0.44);
#270=CIRCLE('',#577,0.44);
#271=CIRCLE('',#578,0.44);
#272=EDGE_LOOP('',(#82));
#273=EDGE_LOOP('',(#83));
#274=EDGE_LOOP('',(#84));
#275=EDGE_LOOP('',(#85,#86,#87,#88,#89,#90,#91,#92,#93,#94,#95,#96,#97,
#98,#99,#100));
#276=EDGE_LOOP('',(#101));
#277=EDGE_LOOP('',(#102));
#278=EDGE_LOOP('',(#103));
#279=EDGE_LOOP('',(#104));
#280=EDGE_LOOP('',(#105));
#281=EDGE_LOOP('',(#106));
#282=EDGE_LOOP('',(#107));
#283=EDGE_LOOP('',(#108));
#284=EDGE_LOOP('',(#109));
#285=EDGE_LOOP('',(#110,#111,#112,#113));
#286=EDGE_LOOP('',(#114,#115,#116));
#287=EDGE_LOOP('',(#117,#118,#119));
#288=EDGE_LOOP('',(#120,#121,#122,#123));
#289=EDGE_LOOP('',(#124,#125,#126));
#290=EDGE_LOOP('',(#127,#128,#129));
#291=EDGE_LOOP('',(#130,#131,#132,#133));
#292=EDGE_LOOP('',(#134,#135,#136));
#293=EDGE_LOOP('',(#137,#138,#139));
#294=EDGE_LOOP('',(#140,#141,#142,#143));
#295=EDGE_LOOP('',(#144,#145,#146));
#296=EDGE_LOOP('',(#147,#148,#149));
#297=EDGE_LOOP('',(#150,#151,#152,#153,#154,#155,#156,#157));
#298=EDGE_LOOP('',(#158,#159,#160,#161));
#299=EDGE_LOOP('',(#162,#163,#164,#165));
#300=EDGE_LOOP('',(#166,#167,#168,#169));
#301=EDGE_LOOP('',(#170,#171,#172,#173));
#302=FACE_BOUND('',#272,.T.);
#303=FACE_BOUND('',#273,.T.);
#304=FACE_BOUND('',#274,.T.);
#305=FACE_BOUND('',#275,.T.);
#306=FACE_BOUND('',#276,.T.);
#307=FACE_BOUND('',#277,.T.);
#308=FACE_BOUND('',#278,.T.);
#309=FACE_BOUND('',#279,.T.);
#310=FACE_BOUND('',#280,.T.);
#311=FACE_BOUND('',#281,.T.);
#312=FACE_BOUND('',#282,.T.);
#313=FACE_BOUND('',#283,.T.);
#314=FACE_BOUND('',#284,.T.);
#315=FACE_BOUND('',#285,.T.);
#316=FACE_BOUND('',#286,.T.);
#317=FACE_BOUND('',#287,.T.);
#318=FACE_BOUND('',#288,.T.);
#319=FACE_BOUND('',#289,.T.);
#320=FACE_BOUND('',#290,.T.);
#321=FACE_BOUND('',#291,.T.);
#322=FACE_BOUND('',#292,.T.);
#323=FACE_BOUND('',#293,.T.);
#324=FACE_BOUND('',#294,.T.);
#325=FACE_BOUND('',#295,.T.);
#326=FACE_BOUND('',#296,.T.);
#327=FACE_BOUND('',#297,.T.);
#328=FACE_BOUND('',#298,.T.);
#329=FACE_BOUND('',#299,.T.);
#330=FACE_BOUND('',#300,.T.);
#331=FACE_BOUND('',#301,.T.);
#332=CYLINDRICAL_SURFACE('',#537,1.);
#333=CYLINDRICAL_SURFACE('',#555,1.75);
#334=CYLINDRICAL_SURFACE('',#579,0.44);
#335=CYLINDRICAL_SURFACE('',#580,0.44);
#336=CYLINDRICAL_SURFACE('',#581,0.44);
#337=CYLINDRICAL_SURFACE('',#582,0.44);
#338=STYLED_ITEM('',(#362),#508);
#339=STYLED_ITEM('',(#363),#509);
#340=STYLED_ITEM('',(#364),#510);
#341=STYLED_ITEM('',(#365),#511);
#342=STYLED_ITEM('',(#366),#512);
#343=STYLED_ITEM('',(#367),#513);
#344=STYLED_ITEM('',(#368),#514);
#345=STYLED_ITEM('',(#369),#515);
#346=STYLED_ITEM('',(#370),#516);
#347=STYLED_ITEM('',(#371),#517);
#348=STYLED_ITEM('',(#372),#518);
#349=STYLED_ITEM('',(#373),#519);
#350=STYLED_ITEM('',(#374),#520);
#351=STYLED_ITEM('',(#375),#521);
#352=STYLED_ITEM('',(#376),#522);
#353=STYLED_ITEM('',(#377),#523);
#354=STYLED_ITEM('',(#378),#524);
#355=STYLED_ITEM('',(#379),#525);
#356=STYLED_ITEM('',(#380),#526);
#357=STYLED_ITEM('',(#381),#527);
#358=STYLED_ITEM('',(#382),#528);
#359=STYLED_ITEM('',(#383),#529);
#360=STYLED_ITEM('',(#384),#530);
#361=STYLED_ITEM('',(#385),#531);
#362=PRESENTATION_STYLE_ASSIGNMENT((#386));
#363=PRESENTATION_STYLE_ASSIGNMENT((#387));
#364=PRESENTATION_STYLE_ASSIGNMENT((#388));
#365=PRESENTATION_STYLE_ASSIGNMENT((#389));
#366=PRESENTATION_STYLE_ASSIGNMENT((#390));
#367=PRESENTATION_STYLE_ASSIGNMENT((#391));
#368=PRESENTATION_STYLE_ASSIGNMENT((#392));
#369=PRESENTATION_STYLE_ASSIGNMENT((#393));
#370=PRESENTATION_STYLE_ASSIGNMENT((#394));
#371=PRESENTATION_STYLE_ASSIGNMENT((#395));
#372=PRESENTATION_STYLE_ASSIGNMENT((#396));
#373=PRESENTATION_STYLE_ASSIGNMENT((#397));
#374=PRESENTATION_STYLE_ASSIGNMENT((#398));
#375=PRESENTATION_STYLE_ASSIGNMENT((#399));
#376=PRESENTATION_STYLE_ASSIGNMENT((#400));
#377=PRESENTATION_STYLE_ASSIGNMENT((#401));
#378=PRESENTATION_STYLE_ASSIGNMENT((#402));
#379=PRESENTATION_STYLE_ASSIGNMENT((#403));
#380=PRESENTATION_STYLE_ASSIGNMENT((#404));
#381=PRESENTATION_STYLE_ASSIGNMENT((#405));
#382=PRESENTATION_STYLE_ASSIGNMENT((#406));
#383=PRESENTATION_STYLE_ASSIGNMENT((#407));
#384=PRESENTATION_STYLE_ASSIGNMENT((#408));
#385=PRESENTATION_STYLE_ASSIGNMENT((#409));
#386=SURFACE_STYLE_USAGE(.BOTH.,#410);
#387=SURFACE_STYLE_USAGE(.BOTH.,#411);
#388=SURFACE_STYLE_USAGE(.BOTH.,#412);
#389=SURFACE_STYLE_USAGE(.BOTH.,#413);
#390=SURFACE_STYLE_USAGE(.BOTH.,#414);
#391=SURFACE_STYLE_USAGE(.BOTH.,#415);
#392=SURFACE_STYLE_USAGE(.BOTH.,#416);
#393=SURFACE_STYLE_USAGE(.BOTH.,#417);
#394=SURFACE_STYLE_USAGE(.BOTH.,#418);
#395=SURFACE_STYLE_USAGE(.BOTH.,#419);
#396=SURFACE_STYLE_USAGE(.BOTH.,#420);
#397=SURFACE_STYLE_USAGE(.BOTH.,#421);
#398=SURFACE_STYLE_USAGE(.BOTH.,#422);
#399=SURFACE_STYLE_USAGE(.BOTH.,#423);
#400=SURFACE_STYLE_USAGE(.BOTH.,#424);
#401=SURFACE_STYLE_USAGE(.BOTH.,#425);
#402=SURFACE_STYLE_USAGE(.BOTH.,#426);
#403=SURFACE_STYLE_USAGE(.BOTH.,#427);
#404=SURFACE_STYLE_USAGE(.BOTH.,#428);
#405=SURFACE_STYLE_USAGE(.BOTH.,#429);
#406=SURFACE_STYLE_USAGE(.BOTH.,#430);
#407=SURFACE_STYLE_USAGE(.BOTH.,#431);
#408=SURFACE_STYLE_USAGE(.BOTH.,#432);
#409=SURFACE_STYLE_USAGE(.BOTH.,#433);
#410=SURFACE_SIDE_STYLE('',(#434));
#411=SURFACE_SIDE_STYLE('',(#435));
#412=SURFACE_SIDE_STYLE('',(#436));
#413=SURFACE_SIDE_STYLE('',(#437));
#414=SURFACE_SIDE_STYLE('',(#438));
#415=SURFACE_SIDE_STYLE('',(#439));
#416=SURFACE_SIDE_STYLE('',(#440));
#417=SURFACE_SIDE_STYLE('',(#441));
#418=SURFACE_SIDE_STYLE('',(#442));
#419=SURFACE_SIDE_STYLE('',(#443));
#420=SURFACE_SIDE_STYLE('',(#444));
#421=SURFACE_SIDE_STYLE('',(#445));
#422=SURFACE_SIDE_STYLE('',(#446));
#423=SURFACE_SIDE_STYLE('',(#447));
#424=SURFACE_SIDE_STYLE('',(#448));
#425=SURFACE_SIDE_STYLE('',(#449));
#426=SURFACE_SIDE_STYLE('',(#450));
#427=SURFACE_SIDE_STYLE('',(#451));
#428=SURFACE_SIDE_STYLE('',(#452));
#429=SURFACE_SIDE_STYLE('',(#453));
#430=SURFACE_SIDE_STYLE('',(#454));
#431=SURFACE_SIDE_STYLE('',(#455));
#432=SURFACE_SIDE_STYLE('',(#456));
#433=SURFACE_SIDE_STYLE('',(#457));
#434=SURFACE_STYLE_FILL_AREA(#458);
#435=SURFACE_STYLE_FILL_AREA(#459);
#436=SURFACE_STYLE_FILL_AREA(#460);
#437=SURFACE_STYLE_FILL_AREA(#461);
#438=SURFACE_STYLE_FILL_AREA(#462);
#439=SURFACE_STYLE_FILL_AREA(#463);
#440=SURFACE_STYLE_FILL_AREA(#464);
#441=SURFACE_STYLE_FILL_AREA(#465);
#442=SURFACE_STYLE_FILL_AREA(#466);
#443=SURFACE_STYLE_FILL_AREA(#467);
#444=SURFACE_STYLE_FILL_AREA(#468);
#445=SURFACE_STYLE_FILL_AREA(#469);
#446=SURFACE_STYLE_FILL_AREA(#470);
#447=SURFACE_STYLE_FILL_AREA(#471);
#448=SURFACE_STYLE_FILL_AREA(#472);
#449=SURFACE_STYLE_FILL_AREA(#473);
#450=SURFACE_STYLE_FILL_AREA(#474);
#451=SURFACE_STYLE_FILL_AREA(#475);
#452=SURFACE_STYLE_FILL_AREA(#476);
#453=SURFACE_STYLE_FILL_AREA(#477);
#454=SURFACE_STYLE_FILL_AREA(#478);
#455=SURFACE_STYLE_FILL_AREA(#479);
#456=SURFACE_STYLE_FILL_AREA(#480);
#457=SURFACE_STYLE_FILL_AREA(#481);
#458=FILL_AREA_STYLE('',(#482));
#459=FILL_AREA_STYLE('',(#483));
#460=FILL_AREA_STYLE('',(#484));
#461=FILL_AREA_STYLE('',(#485));
#462=FILL_AREA_STYLE('',(#486));
#463=FILL_AREA_STYLE('',(#487));
#464=FILL_AREA_STYLE('',(#488));
#465=FILL_AREA_STYLE('',(#489));
#466=FILL_AREA_STYLE('',(#490));
#467=FILL_AREA_STYLE('',(#491));
#468=FILL_AREA_STYLE('',(#492));
#469=FILL_AREA_STYLE('',(#493));
#470=FILL_AREA_STYLE('',(#494));
#471=FILL_AREA_STYLE('',(#495));
#472=FILL_AREA_STYLE('',(#496));
#473=FILL_AREA_STYLE('',(#497));
#474=FILL_AREA_STYLE('',(#498));
#475=FILL_AREA_STYLE('',(#499));
#476=FILL_AREA_STYLE('',(#500));
#477=FILL_AREA_STYLE('',(#501));
#478=FILL_AREA_STYLE('',(#502));
#479=FILL_AREA_STYLE('',(#503));
#480=FILL_AREA_STYLE('',(#504));
#481=FILL_AREA_STYLE('',(#505));
#482=FILL_AREA_STYLE_COLOUR('',#506);
#483=FILL_AREA_STYLE_COLOUR('',#507);
#484=FILL_AREA_STYLE_COLOUR('',#507);
#485=FILL_AREA_STYLE_COLOUR('',#507);
#486=FILL_AREA_STYLE_COLOUR('',#507);
#487=FILL_AREA_STYLE_COLOUR('',#507);
#488=FILL_AREA_STYLE_COLOUR('',#507);
#489=FILL_AREA_STYLE_COLOUR('',#507);
#490=FILL_AREA_STYLE_COLOUR('',#507);
#491=FILL_AREA_STYLE_COLOUR('',#507);
#492=FILL_AREA_STYLE_COLOUR('',#507);
#493=FILL_AREA_STYLE_COLOUR('',#507);
#494=FILL_AREA_STYLE_COLOUR('',#507);
#495=FILL_AREA_STYLE_COLOUR('',#507);
#496=FILL_AREA_STYLE_COLOUR('',#507);
#497=FILL_AREA_STYLE_COLOUR('',#507);
#498=FILL_AREA_STYLE_COLOUR('',#507);
#499=FILL_AREA_STYLE_COLOUR('',#507);
#500=FILL_AREA_STYLE_COLOUR('',#507);
#501=FILL_AREA_STYLE_COLOUR('',#507);
#502=FILL_AREA_STYLE_COLOUR('',#507);
#503=FILL_AREA_STYLE_COLOUR('',#507);
#504=FILL_AREA_STYLE_COLOUR('',#507);
#505=FILL_AREA_STYLE_COLOUR('',#507);
#506=COLOUR_RGB('',0.1875,0.75,0.581249892711639);
#507=COLOUR_RGB('',0.506983280181885,0.531564235687256,0.550000011920929);
#508=ADVANCED_FACE('',(#302,#303),#332,.T.);
#509=ADVANCED_FACE('',(#304),#67,.T.);
#510=ADVANCED_FACE('',(#305,#306),#66,.T.);
#511=ADVANCED_FACE('',(#307,#308),#333,.T.);
#512=ADVANCED_FACE('',(#309,#310),#68,.T.);
#513=ADVANCED_FACE('',(#311,#312),#61,.F.);
#514=ADVANCED_FACE('',(#313,#314),#60,.T.);
#515=ADVANCED_FACE('',(#315),#69,.T.);
#516=ADVANCED_FACE('',(#316),#70,.T.);
#517=ADVANCED_FACE('',(#317),#71,.T.);
#518=ADVANCED_FACE('',(#318),#72,.T.);
#519=ADVANCED_FACE('',(#319),#73,.T.);
#520=ADVANCED_FACE('',(#320),#74,.T.);
#521=ADVANCED_FACE('',(#321),#75,.T.);
#522=ADVANCED_FACE('',(#322),#76,.T.);
#523=ADVANCED_FACE('',(#323),#77,.T.);
#524=ADVANCED_FACE('',(#324),#78,.T.);
#525=ADVANCED_FACE('',(#325),#79,.T.);
#526=ADVANCED_FACE('',(#326),#80,.T.);
#527=ADVANCED_FACE('',(#327),#81,.T.);
#528=ADVANCED_FACE('',(#328),#334,.T.);
#529=ADVANCED_FACE('',(#329),#335,.T.);
#530=ADVANCED_FACE('',(#330),#336,.T.);
#531=ADVANCED_FACE('',(#331),#337,.T.);
#532=CLOSED_SHELL('',(#508,#509,#510,#511,#512,#513,#514,#515,#516,#517,
#518,#519,#520,#521,#522,#523,#524,#525,#526,#527,#528,#529,#530,#531));
#533=MANIFOLD_SOLID_BREP('',#532);
#534=SHAPE_DEFINITION_REPRESENTATION(#816,#535);
#535=SHAPE_REPRESENTATION('\X2\53415B5769FD5C0F76D8593487BA9489\X0\',(#536),
#811);
#536=AXIS2_PLACEMENT_3D('',#697,#583,#584);
#537=AXIS2_PLACEMENT_3D('',#698,#585,#586);
#538=AXIS2_PLACEMENT_3D('',#699,#587,#588);
#539=AXIS2_PLACEMENT_3D('',#701,#589,#590);
#540=AXIS2_PLACEMENT_3D('',#703,#591,#592);
#541=AXIS2_PLACEMENT_3D('',#704,#593,#594);
#542=AXIS2_PLACEMENT_3D('',#705,#595,#596);
#543=AXIS2_PLACEMENT_3D('',#713,#597,#598);
#544=AXIS2_PLACEMENT_3D('',#715,#599,#600);
#545=AXIS2_PLACEMENT_3D('',#717,#601,#602);
#546=AXIS2_PLACEMENT_3D('',#724,#603,#604);
#547=AXIS2_PLACEMENT_3D('',#726,#605,#606);
#548=AXIS2_PLACEMENT_3D('',#728,#607,#608);
#549=AXIS2_PLACEMENT_3D('',#735,#609,#610);
#550=AXIS2_PLACEMENT_3D('',#737,#611,#612);
#551=AXIS2_PLACEMENT_3D('',#739,#613,#614);
#552=AXIS2_PLACEMENT_3D('',#746,#615,#616);
#553=AXIS2_PLACEMENT_3D('',#748,#617,#618);
#554=AXIS2_PLACEMENT_3D('',#749,#619,#620);
#555=AXIS2_PLACEMENT_3D('',#751,#621,#622);
#556=AXIS2_PLACEMENT_3D('',#752,#623,#624);
#557=AXIS2_PLACEMENT_3D('',#754,#625,#626);
#558=AXIS2_PLACEMENT_3D('',#755,#627,#628);
#559=AXIS2_PLACEMENT_3D('',#757,#629,#630);
#560=AXIS2_PLACEMENT_3D('',#758,#631,#632);
#561=AXIS2_PLACEMENT_3D('',#760,#633,#634);
#562=AXIS2_PLACEMENT_3D('',#761,#635,#636);
#563=AXIS2_PLACEMENT_3D('',#767,#640,#641);
#564=AXIS2_PLACEMENT_3D('',#769,#643,#644);
#565=AXIS2_PLACEMENT_3D('',#773,#647,#648);
#566=AXIS2_PLACEMENT_3D('',#777,#651,#652);
#567=AXIS2_PLACEMENT_3D('',#779,#654,#655);
#568=AXIS2_PLACEMENT_3D('',#783,#658,#659);
#569=AXIS2_PLACEMENT_3D('',#787,#662,#663);
#570=AXIS2_PLACEMENT_3D('',#789,#665,#666);
#571=AXIS2_PLACEMENT_3D('',#793,#669,#670);
#572=AXIS2_PLACEMENT_3D('',#797,#673,#674);
#573=AXIS2_PLACEMENT_3D('',#799,#676,#677);
#574=AXIS2_PLACEMENT_3D('',#801,#679,#680);
#575=AXIS2_PLACEMENT_3D('',#802,#681,#682);
#576=AXIS2_PLACEMENT_3D('',#803,#683,#684);
#577=AXIS2_PLACEMENT_3D('',#804,#685,#686);
#578=AXIS2_PLACEMENT_3D('',#805,#687,#688);
#579=AXIS2_PLACEMENT_3D('',#806,#689,#690);
#580=AXIS2_PLACEMENT_3D('',#807,#691,#692);
#581=AXIS2_PLACEMENT_3D('',#808,#693,#694);
#582=AXIS2_PLACEMENT_3D('',#809,#695,#696);
#583=DIRECTION('',(0.,0.,1.));
#584=DIRECTION('',(1.,0.,0.));
#585=DIRECTION('',(-1.,0.,3.28934178342949E-16));
#586=DIRECTION('',(3.28934178342949E-16,0.,1.));
#587=DIRECTION('',(-1.,0.,3.28934178342949E-16));
#588=DIRECTION('',(3.28934178342949E-16,0.,1.));
#589=DIRECTION('',(-1.,0.,3.28934178342949E-16));
#590=DIRECTION('',(3.28934178342949E-16,0.,1.));
#591=DIRECTION('',(1.,0.,-3.28934178342949E-16));
#592=DIRECTION('',(-3.28934178342949E-16,0.,-1.));
#593=DIRECTION('',(-1.,0.,3.28934178342949E-16));
#594=DIRECTION('',(3.28934178342949E-16,0.,1.));
#595=DIRECTION('',(0.,1.,0.));
#596=DIRECTION('',(0.,0.,1.));
#597=DIRECTION('',(0.,-6.16023961639491E-17,-1.));
#598=DIRECTION('',(0.,1.,-6.16023961639491E-17));
#599=DIRECTION('',(-0.399389828755696,0.916781197825575,0.));
#600=DIRECTION('',(-0.916781197825575,-0.399389828755696,0.));
#601=DIRECTION('',(0.,-2.46409584655796E-16,1.));
#602=DIRECTION('',(0.,-1.,-2.46409584655796E-16));
#603=DIRECTION('',(0.,1.,0.));
#604=DIRECTION('',(0.,0.,1.));
#605=DIRECTION('',(-0.399389828755696,-4.27352582255574E-16,0.916781197825575));
#606=DIRECTION('',(0.916781197825575,0.,0.399389828755696));
#607=DIRECTION('',(0.,-1.,-3.08011980819746E-16));
#608=DIRECTION('',(0.,3.08011980819746E-16,-1.));
#609=DIRECTION('',(0.,-1.23204792327898E-16,1.));
#610=DIRECTION('',(0.,-1.,-1.23204792327898E-16));
#611=DIRECTION('',(-0.399389828755696,-0.916781197825575,0.));
#612=DIRECTION('',(0.916781197825575,-0.399389828755696,0.));
#613=DIRECTION('',(0.,6.16023961639491E-17,-1.));
#614=DIRECTION('',(0.,1.,6.16023961639491E-17));
#615=DIRECTION('',(0.,-1.,3.08011980819746E-16));
#616=DIRECTION('',(0.,-3.08011980819746E-16,-1.));
#617=DIRECTION('',(-0.399389828755696,2.44547660973128E-17,-0.916781197825575));
#618=DIRECTION('',(-0.916781197825575,0.,0.399389828755696));
#619=DIRECTION('',(-1.,0.,3.28934178342949E-16));
#620=DIRECTION('',(3.28934178342949E-16,0.,1.));
#621=DIRECTION('',(-1.,0.,3.28934178342949E-16));
#622=DIRECTION('',(3.28934178342949E-16,0.,1.));
#623=DIRECTION('',(-1.,0.,3.28934178342949E-16));
#624=DIRECTION('',(3.28934178342949E-16,0.,1.));
#625=DIRECTION('',(1.,0.,-3.28934178342949E-16));
#626=DIRECTION('',(-3.28934178342949E-16,0.,-1.));
#627=DIRECTION('',(-1.,0.,3.28934178342949E-16));
#628=DIRECTION('',(3.28934178342949E-16,0.,1.));
#629=DIRECTION('',(-1.,0.,3.28934178342949E-16));
#630=DIRECTION('',(3.28934178342949E-16,0.,1.));
#631=DIRECTION('',(-1.,0.,3.28934178342949E-16));
#632=DIRECTION('',(3.28934178342949E-16,0.,1.));
#633=DIRECTION('',(-1.,0.,3.28934178342949E-16));
#634=DIRECTION('',(3.28934178342949E-16,0.,1.));
#635=DIRECTION('',(-0.399389828755696,2.44547660973128E-17,-0.916781197825575));
#636=DIRECTION('',(-0.916781197825575,0.,0.399389828755696));
#637=DIRECTION('',(0.916781197825575,-1.47620222729161E-16,-0.399389828755696));
#638=DIRECTION('',(6.12303176911189E-17,1.,7.39228753967389E-16));
#639=DIRECTION('',(0.916781197825575,0.,-0.399389828755696));
#640=DIRECTION('',(0.,-1.,3.08011980819746E-16));
#641=DIRECTION('',(0.,-3.08011980819746E-16,-1.));
#642=DIRECTION('',(-1.,0.,0.));
#643=DIRECTION('',(0.,6.16023961639491E-17,-1.));
#644=DIRECTION('',(0.,1.,6.16023961639491E-17));
#645=DIRECTION('',(0.916781197825575,-0.399389828755696,-2.46033704548602E-17));
#646=DIRECTION('',(-1.,0.,0.));
#647=DIRECTION('',(-0.399389828755696,-0.916781197825575,0.));
#648=DIRECTION('',(0.916781197825575,-0.399389828755696,0.));
#649=DIRECTION('',(0.916781197825575,-0.399389828755696,-2.46033704548602E-17));
#650=DIRECTION('',(0.,0.,-1.));
#651=DIRECTION('',(0.,-1.23204792327898E-16,1.));
#652=DIRECTION('',(0.,-1.,-1.23204792327898E-16));
#653=DIRECTION('',(-1.,0.,0.));
#654=DIRECTION('',(0.,-1.,-3.08011980819746E-16));
#655=DIRECTION('',(0.,3.08011980819746E-16,-1.));
#656=DIRECTION('',(0.916781197825575,-1.23016852274301E-16,0.399389828755696));
#657=DIRECTION('',(-1.,0.,0.));
#658=DIRECTION('',(-0.399389828755696,-4.27352582255574E-16,0.916781197825575));
#659=DIRECTION('',(0.916781197825575,0.,0.399389828755696));
#660=DIRECTION('',(0.916781197825575,-2.46033704548602E-17,0.399389828755696));
#661=DIRECTION('',(-6.12303176911189E-17,-1.,-7.39228753967389E-16));
#662=DIRECTION('',(0.,1.,0.));
#663=DIRECTION('',(0.,0.,1.));
#664=DIRECTION('',(-1.,0.,0.));
#665=DIRECTION('',(0.,-2.46409584655796E-16,1.));
#666=DIRECTION('',(0.,-1.,-2.46409584655796E-16));
#667=DIRECTION('',(0.916781197825575,0.399389828755696,9.84134818194407E-17));
#668=DIRECTION('',(-1.,0.,0.));
#669=DIRECTION('',(-0.399389828755696,0.916781197825575,0.));
#670=DIRECTION('',(-0.916781197825575,-0.399389828755696,0.));
#671=DIRECTION('',(0.916781197825575,0.399389828755696,0.));
#672=DIRECTION('',(0.,0.,1.));
#673=DIRECTION('',(0.,-6.16023961639491E-17,-1.));
#674=DIRECTION('',(0.,1.,-6.16023961639491E-17));
#675=DIRECTION('',(-1.,0.,0.));
#676=DIRECTION('',(0.,1.,0.));
#677=DIRECTION('',(0.,0.,1.));
#678=DIRECTION('',(-1.,0.,0.));
#679=DIRECTION('',(-1.,2.27691312788408E-32,-1.23204792327898E-16));
#680=DIRECTION('',(-1.23204792327898E-16,0.,1.));
#681=DIRECTION('',(-1.,2.27691312788408E-32,-1.23204792327898E-16));
#682=DIRECTION('',(-1.23204792327898E-16,0.,1.));
#683=DIRECTION('',(-1.,2.27691312788408E-32,-1.23204792327898E-16));
#684=DIRECTION('',(-1.23204792327898E-16,0.,1.));
#685=DIRECTION('',(-1.,2.27691312788408E-32,-1.23204792327898E-16));
#686=DIRECTION('',(-1.23204792327898E-16,0.,1.));
#687=DIRECTION('',(-1.,2.27691312788408E-32,-1.23204792327898E-16));
#688=DIRECTION('',(-1.23204792327898E-16,0.,1.));
#689=DIRECTION('',(1.,0.,0.));
#690=DIRECTION('',(0.,0.,-1.));
#691=DIRECTION('',(1.,0.,0.));
#692=DIRECTION('',(0.,0.,-1.));
#693=DIRECTION('',(1.,0.,0.));
#694=DIRECTION('',(0.,0.,-1.));
#695=DIRECTION('',(1.,0.,0.));
#696=DIRECTION('',(0.,0.,-1.));
#697=CARTESIAN_POINT('',(0.,0.,0.));
#698=CARTESIAN_POINT('',(3.,0.,0.));
#699=CARTESIAN_POINT('',(4.,0.,-3.28934178342948E-16));
#700=CARTESIAN_POINT('',(4.,0.,1.));
#701=CARTESIAN_POINT('',(0.799999999999999,0.,7.23655192354488E-16));
#702=CARTESIAN_POINT('',(0.8,0.,1.));
#703=CARTESIAN_POINT('',(4.,0.,1.));
#704=CARTESIAN_POINT('',(3.10000000000001,0.,0.));
#705=CARTESIAN_POINT('',(3.10000000000001,-0.22,0.));
#706=CARTESIAN_POINT('',(-1.34589698486143,-0.22,0.659999999999999));
#707=CARTESIAN_POINT('',(-1.27166683205719,-0.22,1.04409248129224));
#708=CARTESIAN_POINT('',(-1.34589698486143,-0.22,0.659999999999999));
#709=CARTESIAN_POINT('',(-1.38015641943475,-0.22,0.429221338071829));
#710=CARTESIAN_POINT('',(-1.38015894884729,-0.429204299423937,0.219999999999999));
#711=CARTESIAN_POINT('',(-1.34589698486143,-0.66,0.219999999999999));
#712=CARTESIAN_POINT('',(-1.34589698486143,-0.66,0.219999999999999));
#713=CARTESIAN_POINT('',(3.10000000000001,1.35525271560688E-17,0.219999999999999));
#714=CARTESIAN_POINT('',(-1.27166683205719,-1.04409248129224,0.219999999999999));
#715=CARTESIAN_POINT('',(2.78496333525584,0.723152344071845,0.));
#716=CARTESIAN_POINT('',(-1.27166683205719,-1.04409248129224,-0.220000000000001));
#717=CARTESIAN_POINT('',(3.10000000000001,5.42101086242754E-17,-0.220000000000001));
#718=CARTESIAN_POINT('',(-1.34589698486143,-0.66,-0.220000000000001));
#719=CARTESIAN_POINT('',(-1.34589698486143,-0.66,-0.220000000000001));
#720=CARTESIAN_POINT('',(-1.38015641943475,-0.42922133807183,-0.220000000000001));
#721=CARTESIAN_POINT('',(-1.38015894884729,-0.22,-0.429204299423937));
#722=CARTESIAN_POINT('',(-1.34589698486143,-0.22,-0.660000000000001));
#723=CARTESIAN_POINT('',(-1.34589698486143,-0.22,-0.660000000000001));
#724=CARTESIAN_POINT('',(3.10000000000001,-0.22,0.));
#725=CARTESIAN_POINT('',(-1.27166683205719,-0.22,-1.04409248129224));
#726=CARTESIAN_POINT('',(2.78496333525584,-3.37093542424581E-16,0.723152344071844));
#727=CARTESIAN_POINT('',(-1.27166683205719,0.22,-1.04409248129224));
#728=CARTESIAN_POINT('',(3.10000000000001,0.22,6.7762635780344E-17));
#729=CARTESIAN_POINT('',(-1.34589698486143,0.22,-0.660000000000001));
#730=CARTESIAN_POINT('',(-1.34589698486143,0.22,-0.66));
#731=CARTESIAN_POINT('',(-1.38015641943475,0.22,-0.42922133807183));
#732=CARTESIAN_POINT('',(-1.38015894884729,0.429204299423937,-0.22));
#733=CARTESIAN_POINT('',(-1.34589698486143,0.66,-0.22));
#734=CARTESIAN_POINT('',(-1.34589698486143,0.66,-0.22));
#735=CARTESIAN_POINT('',(3.10000000000001,2.71050543121377E-17,-0.22));
#736=CARTESIAN_POINT('',(-1.27166683205719,1.04409248129224,-0.22));
#737=CARTESIAN_POINT('',(2.78496333525584,-0.723152344071844,0.));
#738=CARTESIAN_POINT('',(-1.27166683205719,1.04409248129224,0.22));
#739=CARTESIAN_POINT('',(3.10000000000001,-1.35525271560688E-17,0.22));
#740=CARTESIAN_POINT('',(-1.34589698486143,0.66,0.22));
#741=CARTESIAN_POINT('',(-1.34589698486143,0.66,0.22));
#742=CARTESIAN_POINT('',(-1.38015641943475,0.42922133807183,0.22));
#743=CARTESIAN_POINT('',(-1.38015894884729,0.22,0.429204299423937));
#744=CARTESIAN_POINT('',(-1.34589698486143,0.22,0.66));
#745=CARTESIAN_POINT('',(-1.34589698486143,0.22,0.66));
#746=CARTESIAN_POINT('',(3.10000000000001,0.22,-6.7762635780344E-17));
#747=CARTESIAN_POINT('',(-1.27166683205719,0.22,1.04409248129224));
#748=CARTESIAN_POINT('',(2.78496333525584,1.9289795066636E-17,-0.723152344071844));
#749=CARTESIAN_POINT('',(-1.04578098794425,0.,1.33079564502496E-15));
#750=CARTESIAN_POINT('',(-1.04578098794425,0.,1.74999999999999));
#751=CARTESIAN_POINT('',(3.,0.,0.));
#752=CARTESIAN_POINT('',(-4.33680868994202E-16,0.,9.86802535028847E-16));
#753=CARTESIAN_POINT('',(1.4195394310596E-16,0.,1.75000000000001));
#754=CARTESIAN_POINT('',(7.40101901271643E-17,0.,1.75000000000001));
#755=CARTESIAN_POINT('',(-4.33680868994202E-16,0.,9.86802535028847E-16));
#756=CARTESIAN_POINT('',(-6.06643714836889E-18,0.,1.3));
#757=CARTESIAN_POINT('',(0.0999999999999996,0.,8.67361737988404E-16));
#758=CARTESIAN_POINT('',(0.0730180977485989,0.,9.62784387041746E-16));
#759=CARTESIAN_POINT('',(0.0730180977485993,0.,1.20370889474673));
#760=CARTESIAN_POINT('',(0.0730180977485989,0.,9.62784387041746E-16));
#761=CARTESIAN_POINT('',(0.179451264727694,-1.09878579493497E-17,0.411922221306752));
#762=CARTESIAN_POINT('',(-1.39999999999999,0.22,1.1));
#763=CARTESIAN_POINT('',(-0.389999999999991,0.22,0.66));
#764=CARTESIAN_POINT('',(-0.389999999999991,-0.22,0.66));
#765=CARTESIAN_POINT('',(-0.389999999999991,-0.22,0.66));
#766=CARTESIAN_POINT('',(-1.39999999999999,-0.22,1.1));
#767=CARTESIAN_POINT('',(0.,0.22,-6.7762635780344E-17));
#768=CARTESIAN_POINT('',(0.,0.22,0.66));
#769=CARTESIAN_POINT('',(0.,-1.35525271560688E-17,0.22));
#770=CARTESIAN_POINT('',(-1.39999999999999,1.1,0.22));
#771=CARTESIAN_POINT('',(-0.389999999999991,0.66,0.22));
#772=CARTESIAN_POINT('',(0.,0.66,0.22));
#773=CARTESIAN_POINT('',(0.179451264727694,0.411922221306751,0.));
#774=CARTESIAN_POINT('',(-1.39999999999999,1.1,-0.22));
#775=CARTESIAN_POINT('',(-0.389999999999991,0.66,-0.22));
#776=CARTESIAN_POINT('',(-0.389999999999991,0.66,0.22));
#777=CARTESIAN_POINT('',(0.,2.71050543121377E-17,-0.22));
#778=CARTESIAN_POINT('',(0.,0.66,-0.22));
#779=CARTESIAN_POINT('',(0.,0.22,6.7762635780344E-17));
#780=CARTESIAN_POINT('',(-1.39999999999999,0.22,-1.1));
#781=CARTESIAN_POINT('',(-0.389999999999991,0.22,-0.66));
#782=CARTESIAN_POINT('',(0.,0.22,-0.66));
#783=CARTESIAN_POINT('',(0.179451264727694,1.9201530897603E-16,-0.411922221306752));
#784=CARTESIAN_POINT('',(-1.39999999999999,-0.22,-1.1));
#785=CARTESIAN_POINT('',(-0.389999999999991,-0.22,-0.660000000000001));
#786=CARTESIAN_POINT('',(-0.389999999999991,0.22,-0.66));
#787=CARTESIAN_POINT('',(0.,-0.22,0.));
#788=CARTESIAN_POINT('',(0.,-0.22,-0.660000000000001));
#789=CARTESIAN_POINT('',(0.,5.42101086242754E-17,-0.220000000000001));
#790=CARTESIAN_POINT('',(-1.39999999999999,-1.1,-0.220000000000001));
#791=CARTESIAN_POINT('',(-0.389999999999991,-0.66,-0.220000000000001));
#792=CARTESIAN_POINT('',(0.,-0.66,-0.220000000000001));
#793=CARTESIAN_POINT('',(0.179451264727694,-0.411922221306752,0.));
#794=CARTESIAN_POINT('',(-1.39999999999999,-1.1,0.219999999999999));
#795=CARTESIAN_POINT('',(-0.389999999999991,-0.66,0.219999999999999));
#796=CARTESIAN_POINT('',(-0.389999999999991,-0.66,-0.220000000000001));
#797=CARTESIAN_POINT('',(0.,1.35525271560688E-17,0.219999999999999));
#798=CARTESIAN_POINT('',(0.,-0.66,0.219999999999999));
#799=CARTESIAN_POINT('',(0.,-0.22,0.));
#800=CARTESIAN_POINT('',(0.,-0.22,0.659999999999999));
#801=CARTESIAN_POINT('',(-0.389999999999991,0.55,-0.11));
#802=CARTESIAN_POINT('',(-0.389999999999991,0.66,-0.66));
#803=CARTESIAN_POINT('',(-0.389999999999991,-0.66,-0.660000000000001));
#804=CARTESIAN_POINT('',(-0.389999999999991,-0.66,0.659999999999999));
#805=CARTESIAN_POINT('',(-0.389999999999991,0.66,0.66));
#806=CARTESIAN_POINT('',(0.,0.66,0.66));
#807=CARTESIAN_POINT('',(0.,-0.66,-0.660000000000001));
#808=CARTESIAN_POINT('',(0.,0.66,-0.66));
#809=CARTESIAN_POINT('',(0.,-0.66,0.659999999999999));
#810=MECHANICAL_DESIGN_GEOMETRIC_PRESENTATION_REPRESENTATION('',(#338,#339,
#340,#341,#342,#343,#344,#345,#346,#347,#348,#349,#350,#351,#352,#353,#354,
#355,#356,#357,#358,#359,#360,#361),#811);
#811=(
GEOMETRIC_REPRESENTATION_CONTEXT(3)
GLOBAL_UNCERTAINTY_ASSIGNED_CONTEXT((#812))
GLOBAL_UNIT_ASSIGNED_CONTEXT((#815,#814,#813))
REPRESENTATION_CONTEXT('\X2\53415B5769FD5C0F76D8593487BA9489\X0\',
'TOP_LEVEL_ASSEMBLY_PART')
);
#812=UNCERTAINTY_MEASURE_WITH_UNIT(LENGTH_MEASURE(0.005),#815,
'DISTANCE_ACCURACY_VALUE','Maximum Tolerance applied to model');
#813=(
NAMED_UNIT(*)
SI_UNIT($,.STERADIAN.)
SOLID_ANGLE_UNIT()
);
#814=(
NAMED_UNIT(*)
PLANE_ANGLE_UNIT()
SI_UNIT($,.RADIAN.)
);
#815=(
LENGTH_UNIT()
NAMED_UNIT(*)
SI_UNIT(.MILLI.,.METRE.)
);
#816=PRODUCT_DEFINITION_SHAPE('','',#817);
#817=PRODUCT_DEFINITION('','',#819,#818);
#818=PRODUCT_DEFINITION_CONTEXT('',#825,'design');
#819=PRODUCT_DEFINITION_FORMATION_WITH_SPECIFIED_SOURCE('','',#821,
 .NOT_KNOWN.);
#820=PRODUCT_RELATED_PRODUCT_CATEGORY('','',(#821));
#821=PRODUCT('\X2\53415B5769FD5C0F76D8593487BA9489\X0\',
'\X2\53415B5769FD5C0F76D8593487BA9489\X0\','\X2\53415B5769FD5C0F76D8593487BA9489\X0\',
(#823));
#822=PRODUCT_CATEGORY('','');
#823=PRODUCT_CONTEXT('',#825,'mechanical');
#824=APPLICATION_PROTOCOL_DEFINITION('international standard',
'automotive_design',2010,#825);
#825=APPLICATION_CONTEXT(
'core data for automotive mechanical design processes');
ENDSEC;
END-ISO-10303-21;
