ISO-10303-21;
HEADER;
/* Generated by software containing HOOPS Exchange Step
 * from HOOPS Exchange, Inc. (www.tiangong.cloud) 
 */

FILE_DESCRIPTION(
/* description */ ('Unknown'),
/* implementation_level */ '2;1');

FILE_NAME(
/* name */ '\X2\6EDA82B19AD8593487BA9489\X0\',
/* time_stamp */ '2025-11-19T15:14:28+08:00',
/* author */ ('Unknown'),
/* organization */ ('Unknown'),
/* preprocessor_version */ 'ST-DEVELOPER v19.4',
/* originating_system */ 'TianGong',
/* authorisation */ 'Unknown');

FILE_SCHEMA (('AUTOMOTIVE_DESIGN {1 0 10303 214 3 1 1}'));
ENDSEC;

DATA;
#10=PROPERTY_DEFINITION_REPRESENTATION(#14,#12);
#11=PROPERTY_DEFINITION_REPRESENTATION(#15,#13);
#12=REPRESENTATION('',(#16),#368);
#13=REPRESENTATION('',(#17),#368);
#14=PROPERTY_DEFINITION('pmi validation property','',#373);
#15=PROPERTY_DEFINITION('pmi validation property','',#373);
#16=VALUE_REPRESENTATION_ITEM('number of annotations',COUNT_MEASURE(0.));
#17=VALUE_REPRESENTATION_ITEM('number of views',COUNT_MEASURE(0.));
#18=SHAPE_REPRESENTATION_RELATIONSHIP('','',#250,#19);
#19=ADVANCED_BREP_SHAPE_REPRESENTATION('',(#248),#368);
#20=CONICAL_SURFACE('',#275,3.5,0.785398163397447);
#21=CONICAL_SURFACE('',#276,3.3,0.785398163397447);
#22=TOROIDAL_SURFACE('',#273,3.05,1.25);
#23=TOROIDAL_SURFACE('',#274,0.900000000000001,0.1);
#24=SPHERICAL_SURFACE('',#272,2.24);
#25=CYLINDRICAL_SURFACE('',#254,3.5);
#26=CYLINDRICAL_SURFACE('',#260,1.8);
#27=CYLINDRICAL_SURFACE('',#265,2.);
#28=CYLINDRICAL_SURFACE('',#269,0.800000000000001);
#29=ORIENTED_EDGE('',*,*,#53,.T.);
#30=ORIENTED_EDGE('',*,*,#54,.T.);
#31=ORIENTED_EDGE('',*,*,#55,.T.);
#32=ORIENTED_EDGE('',*,*,#56,.T.);
#33=ORIENTED_EDGE('',*,*,#57,.T.);
#34=ORIENTED_EDGE('',*,*,#58,.T.);
#35=ORIENTED_EDGE('',*,*,#59,.T.);
#36=ORIENTED_EDGE('',*,*,#60,.T.);
#37=ORIENTED_EDGE('',*,*,#59,.F.);
#38=ORIENTED_EDGE('',*,*,#61,.T.);
#39=ORIENTED_EDGE('',*,*,#60,.F.);
#40=ORIENTED_EDGE('',*,*,#62,.T.);
#41=ORIENTED_EDGE('',*,*,#61,.F.);
#42=ORIENTED_EDGE('',*,*,#63,.T.);
#43=ORIENTED_EDGE('',*,*,#64,.T.);
#44=ORIENTED_EDGE('',*,*,#64,.F.);
#45=ORIENTED_EDGE('',*,*,#58,.F.);
#46=ORIENTED_EDGE('',*,*,#57,.F.);
#47=ORIENTED_EDGE('',*,*,#63,.F.);
#48=ORIENTED_EDGE('',*,*,#62,.F.);
#49=ORIENTED_EDGE('',*,*,#56,.F.);
#50=ORIENTED_EDGE('',*,*,#54,.F.);
#51=ORIENTED_EDGE('',*,*,#55,.F.);
#52=ORIENTED_EDGE('',*,*,#53,.F.);
#53=EDGE_CURVE('',#65,#65,#77,.T.);
#54=EDGE_CURVE('',#66,#66,#78,.F.);
#55=EDGE_CURVE('',#67,#67,#79,.F.);
#56=EDGE_CURVE('',#68,#68,#80,.T.);
#57=EDGE_CURVE('',#69,#69,#81,.F.);
#58=EDGE_CURVE('',#70,#70,#82,.T.);
#59=EDGE_CURVE('',#71,#71,#83,.T.);
#60=EDGE_CURVE('',#72,#72,#84,.T.);
#61=EDGE_CURVE('',#73,#73,#85,.T.);
#62=EDGE_CURVE('',#74,#74,#86,.F.);
#63=EDGE_CURVE('',#75,#75,#87,.T.);
#64=EDGE_CURVE('',#76,#76,#88,.T.);
#65=VERTEX_POINT('',#332);
#66=VERTEX_POINT('',#335);
#67=VERTEX_POINT('',#337);
#68=VERTEX_POINT('',#340);
#69=VERTEX_POINT('',#342);
#70=VERTEX_POINT('',#345);
#71=VERTEX_POINT('',#347);
#72=VERTEX_POINT('',#350);
#73=VERTEX_POINT('',#353);
#74=VERTEX_POINT('',#356);
#75=VERTEX_POINT('',#359);
#76=VERTEX_POINT('',#361);
#77=CIRCLE('',#253,3.3);
#78=CIRCLE('',#255,3.5);
#79=CIRCLE('',#256,3.5);
#80=CIRCLE('',#258,3.3);
#81=CIRCLE('',#259,3.05);
#82=CIRCLE('',#261,1.8);
#83=CIRCLE('',#262,1.8);
#84=CIRCLE('',#264,2.);
#85=CIRCLE('',#266,2.);
#86=CIRCLE('',#268,0.900000000000001);
#87=CIRCLE('',#270,0.800000000000001);
#88=CIRCLE('',#271,0.800000000000001);
#89=EDGE_LOOP('',(#29));
#90=EDGE_LOOP('',(#30));
#91=EDGE_LOOP('',(#31));
#92=EDGE_LOOP('',(#32));
#93=EDGE_LOOP('',(#33));
#94=EDGE_LOOP('',(#34));
#95=EDGE_LOOP('',(#35));
#96=EDGE_LOOP('',(#36));
#97=EDGE_LOOP('',(#37));
#98=EDGE_LOOP('',(#38));
#99=EDGE_LOOP('',(#39));
#100=EDGE_LOOP('',(#40));
#101=EDGE_LOOP('',(#41));
#102=EDGE_LOOP('',(#42));
#103=EDGE_LOOP('',(#43));
#104=EDGE_LOOP('',(#44));
#105=EDGE_LOOP('',(#45));
#106=EDGE_LOOP('',(#46));
#107=EDGE_LOOP('',(#47));
#108=EDGE_LOOP('',(#48));
#109=EDGE_LOOP('',(#49));
#110=EDGE_LOOP('',(#50));
#111=EDGE_LOOP('',(#51));
#112=EDGE_LOOP('',(#52));
#113=FACE_BOUND('',#89,.T.);
#114=FACE_BOUND('',#90,.T.);
#115=FACE_BOUND('',#91,.T.);
#116=FACE_BOUND('',#92,.T.);
#117=FACE_BOUND('',#93,.T.);
#118=FACE_BOUND('',#94,.T.);
#119=FACE_BOUND('',#95,.T.);
#120=FACE_BOUND('',#96,.T.);
#121=FACE_BOUND('',#97,.T.);
#122=FACE_BOUND('',#98,.T.);
#123=FACE_BOUND('',#99,.T.);
#124=FACE_BOUND('',#100,.T.);
#125=FACE_BOUND('',#101,.T.);
#126=FACE_BOUND('',#102,.T.);
#127=FACE_BOUND('',#103,.T.);
#128=FACE_BOUND('',#104,.T.);
#129=FACE_BOUND('',#105,.T.);
#130=FACE_BOUND('',#106,.T.);
#131=FACE_BOUND('',#107,.T.);
#132=FACE_BOUND('',#108,.T.);
#133=FACE_BOUND('',#109,.T.);
#134=FACE_BOUND('',#110,.T.);
#135=FACE_BOUND('',#111,.T.);
#136=FACE_BOUND('',#112,.T.);
#137=PLANE('',#252);
#138=PLANE('',#257);
#139=PLANE('',#263);
#140=PLANE('',#267);
#141=STYLED_ITEM('',(#154),#234);
#142=STYLED_ITEM('',(#155),#235);
#143=STYLED_ITEM('',(#156),#236);
#144=STYLED_ITEM('',(#157),#237);
#145=STYLED_ITEM('',(#158),#238);
#146=STYLED_ITEM('',(#159),#239);
#147=STYLED_ITEM('',(#160),#240);
#148=STYLED_ITEM('',(#161),#241);
#149=STYLED_ITEM('',(#162),#242);
#150=STYLED_ITEM('',(#163),#243);
#151=STYLED_ITEM('',(#164),#244);
#152=STYLED_ITEM('',(#165),#245);
#153=STYLED_ITEM('',(#166),#246);
#154=PRESENTATION_STYLE_ASSIGNMENT((#167));
#155=PRESENTATION_STYLE_ASSIGNMENT((#168));
#156=PRESENTATION_STYLE_ASSIGNMENT((#169));
#157=PRESENTATION_STYLE_ASSIGNMENT((#170));
#158=PRESENTATION_STYLE_ASSIGNMENT((#171));
#159=PRESENTATION_STYLE_ASSIGNMENT((#172));
#160=PRESENTATION_STYLE_ASSIGNMENT((#173));
#161=PRESENTATION_STYLE_ASSIGNMENT((#174));
#162=PRESENTATION_STYLE_ASSIGNMENT((#175));
#163=PRESENTATION_STYLE_ASSIGNMENT((#176));
#164=PRESENTATION_STYLE_ASSIGNMENT((#177));
#165=PRESENTATION_STYLE_ASSIGNMENT((#178));
#166=PRESENTATION_STYLE_ASSIGNMENT((#179));
#167=SURFACE_STYLE_USAGE(.BOTH.,#180);
#168=SURFACE_STYLE_USAGE(.BOTH.,#181);
#169=SURFACE_STYLE_USAGE(.BOTH.,#182);
#170=SURFACE_STYLE_USAGE(.BOTH.,#183);
#171=SURFACE_STYLE_USAGE(.BOTH.,#184);
#172=SURFACE_STYLE_USAGE(.BOTH.,#185);
#173=SURFACE_STYLE_USAGE(.BOTH.,#186);
#174=SURFACE_STYLE_USAGE(.BOTH.,#187);
#175=SURFACE_STYLE_USAGE(.BOTH.,#188);
#176=SURFACE_STYLE_USAGE(.BOTH.,#189);
#177=SURFACE_STYLE_USAGE(.BOTH.,#190);
#178=SURFACE_STYLE_USAGE(.BOTH.,#191);
#179=SURFACE_STYLE_USAGE(.BOTH.,#192);
#180=SURFACE_SIDE_STYLE('',(#193));
#181=SURFACE_SIDE_STYLE('',(#194));
#182=SURFACE_SIDE_STYLE('',(#195));
#183=SURFACE_SIDE_STYLE('',(#196));
#184=SURFACE_SIDE_STYLE('',(#197));
#185=SURFACE_SIDE_STYLE('',(#198));
#186=SURFACE_SIDE_STYLE('',(#199));
#187=SURFACE_SIDE_STYLE('',(#200));
#188=SURFACE_SIDE_STYLE('',(#201));
#189=SURFACE_SIDE_STYLE('',(#202));
#190=SURFACE_SIDE_STYLE('',(#203));
#191=SURFACE_SIDE_STYLE('',(#204));
#192=SURFACE_SIDE_STYLE('',(#205));
#193=SURFACE_STYLE_FILL_AREA(#206);
#194=SURFACE_STYLE_FILL_AREA(#207);
#195=SURFACE_STYLE_FILL_AREA(#208);
#196=SURFACE_STYLE_FILL_AREA(#209);
#197=SURFACE_STYLE_FILL_AREA(#210);
#198=SURFACE_STYLE_FILL_AREA(#211);
#199=SURFACE_STYLE_FILL_AREA(#212);
#200=SURFACE_STYLE_FILL_AREA(#213);
#201=SURFACE_STYLE_FILL_AREA(#214);
#202=SURFACE_STYLE_FILL_AREA(#215);
#203=SURFACE_STYLE_FILL_AREA(#216);
#204=SURFACE_STYLE_FILL_AREA(#217);
#205=SURFACE_STYLE_FILL_AREA(#218);
#206=FILL_AREA_STYLE('',(#219));
#207=FILL_AREA_STYLE('',(#220));
#208=FILL_AREA_STYLE('',(#221));
#209=FILL_AREA_STYLE('',(#222));
#210=FILL_AREA_STYLE('',(#223));
#211=FILL_AREA_STYLE('',(#224));
#212=FILL_AREA_STYLE('',(#225));
#213=FILL_AREA_STYLE('',(#226));
#214=FILL_AREA_STYLE('',(#227));
#215=FILL_AREA_STYLE('',(#228));
#216=FILL_AREA_STYLE('',(#229));
#217=FILL_AREA_STYLE('',(#230));
#218=FILL_AREA_STYLE('',(#231));
#219=FILL_AREA_STYLE_COLOUR('',#232);
#220=FILL_AREA_STYLE_COLOUR('',#232);
#221=FILL_AREA_STYLE_COLOUR('',#232);
#222=FILL_AREA_STYLE_COLOUR('',#232);
#223=FILL_AREA_STYLE_COLOUR('',#232);
#224=FILL_AREA_STYLE_COLOUR('',#232);
#225=FILL_AREA_STYLE_COLOUR('',#232);
#226=FILL_AREA_STYLE_COLOUR('',#233);
#227=FILL_AREA_STYLE_COLOUR('',#232);
#228=FILL_AREA_STYLE_COLOUR('',#232);
#229=FILL_AREA_STYLE_COLOUR('',#232);
#230=FILL_AREA_STYLE_COLOUR('',#232);
#231=FILL_AREA_STYLE_COLOUR('',#232);
#232=COLOUR_RGB('',0.506983280181885,0.531564235687256,0.550000011920929);
#233=COLOUR_RGB('',0.1875,0.75,0.581249892711639);
#234=ADVANCED_FACE('',(#113),#137,.T.);
#235=ADVANCED_FACE('',(#114,#115),#25,.T.);
#236=ADVANCED_FACE('',(#116,#117),#138,.T.);
#237=ADVANCED_FACE('',(#118,#119),#26,.T.);
#238=ADVANCED_FACE('',(#120,#121),#139,.T.);
#239=ADVANCED_FACE('',(#122,#123),#27,.T.);
#240=ADVANCED_FACE('',(#124,#125),#140,.T.);
#241=ADVANCED_FACE('',(#126,#127),#28,.T.);
#242=ADVANCED_FACE('',(#128),#24,.T.);
#243=ADVANCED_FACE('',(#129,#130),#22,.F.);
#244=ADVANCED_FACE('',(#131,#132),#23,.F.);
#245=ADVANCED_FACE('',(#133,#134),#20,.T.);
#246=ADVANCED_FACE('',(#135,#136),#21,.T.);
#247=CLOSED_SHELL('',(#234,#235,#236,#237,#238,#239,#240,#241,#242,#243,
#244,#245,#246));
#248=MANIFOLD_SOLID_BREP('',#247);
#249=SHAPE_DEFINITION_REPRESENTATION(#373,#250);
#250=SHAPE_REPRESENTATION('\X2\6EDA82B19AD8593487BA9489\X0\',(#251),#368);
#251=AXIS2_PLACEMENT_3D('',#329,#277,#278);
#252=AXIS2_PLACEMENT_3D('',#330,#279,#280);
#253=AXIS2_PLACEMENT_3D('',#331,#281,#282);
#254=AXIS2_PLACEMENT_3D('',#333,#283,#284);
#255=AXIS2_PLACEMENT_3D('',#334,#285,#286);
#256=AXIS2_PLACEMENT_3D('',#336,#287,#288);
#257=AXIS2_PLACEMENT_3D('',#338,#289,#290);
#258=AXIS2_PLACEMENT_3D('',#339,#291,#292);
#259=AXIS2_PLACEMENT_3D('',#341,#293,#294);
#260=AXIS2_PLACEMENT_3D('',#343,#295,#296);
#261=AXIS2_PLACEMENT_3D('',#344,#297,#298);
#262=AXIS2_PLACEMENT_3D('',#346,#299,#300);
#263=AXIS2_PLACEMENT_3D('',#348,#301,#302);
#264=AXIS2_PLACEMENT_3D('',#349,#303,#304);
#265=AXIS2_PLACEMENT_3D('',#351,#305,#306);
#266=AXIS2_PLACEMENT_3D('',#352,#307,#308);
#267=AXIS2_PLACEMENT_3D('',#354,#309,#310);
#268=AXIS2_PLACEMENT_3D('',#355,#311,#312);
#269=AXIS2_PLACEMENT_3D('',#357,#313,#314);
#270=AXIS2_PLACEMENT_3D('',#358,#315,#316);
#271=AXIS2_PLACEMENT_3D('',#360,#317,#318);
#272=AXIS2_PLACEMENT_3D('',#362,#319,#320);
#273=AXIS2_PLACEMENT_3D('',#363,#321,#322);
#274=AXIS2_PLACEMENT_3D('',#364,#323,#324);
#275=AXIS2_PLACEMENT_3D('',#365,#325,#326);
#276=AXIS2_PLACEMENT_3D('',#366,#327,#328);
#277=DIRECTION('',(0.,0.,1.));
#278=DIRECTION('',(1.,0.,0.));
#279=DIRECTION('',(-1.,0.,0.));
#280=DIRECTION('',(0.,0.,1.));
#281=DIRECTION('',(-1.,0.,0.));
#282=DIRECTION('',(0.,0.,1.));
#283=DIRECTION('',(-1.,0.,0.));
#284=DIRECTION('',(0.,0.,1.));
#285=DIRECTION('',(1.,0.,0.));
#286=DIRECTION('',(0.,0.,-1.));
#287=DIRECTION('',(-1.,0.,0.));
#288=DIRECTION('',(0.,0.,1.));
#289=DIRECTION('',(1.,0.,0.));
#290=DIRECTION('',(0.,0.,-1.));
#291=DIRECTION('',(1.,0.,0.));
#292=DIRECTION('',(0.,0.,-1.));
#293=DIRECTION('',(1.,0.,0.));
#294=DIRECTION('',(0.,0.,-1.));
#295=DIRECTION('',(-1.,0.,0.));
#296=DIRECTION('',(0.,0.,1.));
#297=DIRECTION('',(1.,0.,0.));
#298=DIRECTION('',(0.,0.,-1.));
#299=DIRECTION('',(-1.,0.,0.));
#300=DIRECTION('',(0.,0.,1.));
#301=DIRECTION('',(-1.,0.,0.));
#302=DIRECTION('',(0.,0.,1.));
#303=DIRECTION('',(-1.,0.,0.));
#304=DIRECTION('',(0.,0.,1.));
#305=DIRECTION('',(-1.,0.,0.));
#306=DIRECTION('',(0.,0.,1.));
#307=DIRECTION('',(-1.,0.,0.));
#308=DIRECTION('',(0.,0.,1.));
#309=DIRECTION('',(1.,0.,0.));
#310=DIRECTION('',(0.,0.,-1.));
#311=DIRECTION('',(1.,0.,0.));
#312=DIRECTION('',(0.,0.,-1.));
#313=DIRECTION('',(-1.,0.,0.));
#314=DIRECTION('',(0.,0.,1.));
#315=DIRECTION('',(1.,0.,0.));
#316=DIRECTION('',(0.,0.,-1.));
#317=DIRECTION('',(-1.,0.,0.));
#318=DIRECTION('',(0.,0.,1.));
#319=DIRECTION('',(-1.,0.,0.));
#320=DIRECTION('',(0.,0.,1.));
#321=DIRECTION('',(1.,0.,0.));
#322=DIRECTION('',(0.,0.,-1.));
#323=DIRECTION('',(1.,0.,0.));
#324=DIRECTION('',(0.,0.,-1.));
#325=DIRECTION('',(-1.,0.,0.));
#326=DIRECTION('',(0.,0.,1.));
#327=DIRECTION('',(1.,0.,0.));
#328=DIRECTION('',(0.,0.,-1.));
#329=CARTESIAN_POINT('',(0.,0.,0.));
#330=CARTESIAN_POINT('',(0.,0.,0.));
#331=CARTESIAN_POINT('',(0.,0.,0.));
#332=CARTESIAN_POINT('',(0.,0.,3.3));
#333=CARTESIAN_POINT('',(0.,0.,0.));
#334=CARTESIAN_POINT('',(1.8,0.,0.));
#335=CARTESIAN_POINT('',(1.8,0.,-3.5));
#336=CARTESIAN_POINT('',(0.2,0.,0.));
#337=CARTESIAN_POINT('',(0.2,0.,3.5));
#338=CARTESIAN_POINT('',(2.,0.,3.5));
#339=CARTESIAN_POINT('',(2.,0.,0.));
#340=CARTESIAN_POINT('',(2.,0.,-3.3));
#341=CARTESIAN_POINT('',(2.,0.,0.));
#342=CARTESIAN_POINT('',(2.,0.,-3.05));
#343=CARTESIAN_POINT('',(0.,0.,0.));
#344=CARTESIAN_POINT('',(3.25,0.,0.));
#345=CARTESIAN_POINT('',(3.25,0.,-1.8));
#346=CARTESIAN_POINT('',(3.9,0.,0.));
#347=CARTESIAN_POINT('',(3.9,0.,1.8));
#348=CARTESIAN_POINT('',(3.9,0.,1.8));
#349=CARTESIAN_POINT('',(3.9,0.,0.));
#350=CARTESIAN_POINT('',(3.9,0.,2.));
#351=CARTESIAN_POINT('',(0.,0.,0.));
#352=CARTESIAN_POINT('',(4.7,0.,0.));
#353=CARTESIAN_POINT('',(4.7,0.,2.));
#354=CARTESIAN_POINT('',(4.7,0.,2.));
#355=CARTESIAN_POINT('',(4.7,0.,0.));
#356=CARTESIAN_POINT('',(4.7,0.,-0.900000000000001));
#357=CARTESIAN_POINT('',(0.,0.,0.));
#358=CARTESIAN_POINT('',(4.8,0.,0.));
#359=CARTESIAN_POINT('',(4.8,0.,-0.800000000000001));
#360=CARTESIAN_POINT('',(8.55227149289952,0.,0.));
#361=CARTESIAN_POINT('',(8.55227149289952,0.,0.800000000000001));
#362=CARTESIAN_POINT('',(6.46,0.,0.));
#363=CARTESIAN_POINT('',(3.25,0.,0.));
#364=CARTESIAN_POINT('',(4.8,0.,0.));
#365=CARTESIAN_POINT('',(1.8,0.,0.));
#366=CARTESIAN_POINT('',(0.,0.,0.));
#367=MECHANICAL_DESIGN_GEOMETRIC_PRESENTATION_REPRESENTATION('',(#141,#142,
#143,#144,#145,#146,#147,#148,#149,#150,#151,#152,#153),#368);
#368=(
GEOMETRIC_REPRESENTATION_CONTEXT(3)
GLOBAL_UNCERTAINTY_ASSIGNED_CONTEXT((#369))
GLOBAL_UNIT_ASSIGNED_CONTEXT((#372,#371,#370))
REPRESENTATION_CONTEXT('\X2\6EDA82B19AD8593487BA9489\X0\',
'TOP_LEVEL_ASSEMBLY_PART')
);
#369=UNCERTAINTY_MEASURE_WITH_UNIT(LENGTH_MEASURE(0.005),#372,
'DISTANCE_ACCURACY_VALUE','Maximum Tolerance applied to model');
#370=(
NAMED_UNIT(*)
SI_UNIT($,.STERADIAN.)
SOLID_ANGLE_UNIT()
);
#371=(
NAMED_UNIT(*)
PLANE_ANGLE_UNIT()
SI_UNIT($,.RADIAN.)
);
#372=(
LENGTH_UNIT()
NAMED_UNIT(*)
SI_UNIT(.MILLI.,.METRE.)
);
#373=PRODUCT_DEFINITION_SHAPE('','',#374);
#374=PRODUCT_DEFINITION('','',#376,#375);
#375=PRODUCT_DEFINITION_CONTEXT('',#382,'design');
#376=PRODUCT_DEFINITION_FORMATION_WITH_SPECIFIED_SOURCE('','',#378,
 .NOT_KNOWN.);
#377=PRODUCT_RELATED_PRODUCT_CATEGORY('','',(#378));
#378=PRODUCT('\X2\6EDA82B19AD8593487BA9489\X0\','\X2\6EDA82B19AD8593487BA9489\X0\',
'\X2\6EDA82B19AD8593487BA9489\X0\',(#380));
#379=PRODUCT_CATEGORY('','');
#380=PRODUCT_CONTEXT('',#382,'mechanical');
#381=APPLICATION_PROTOCOL_DEFINITION('international standard',
'automotive_design',2010,#382);
#382=APPLICATION_CONTEXT(
'core data for automotive mechanical design processes');
ENDSEC;
END-ISO-10303-21;
