ISO-10303-21;
HEADER;
/* Generated by software containing HOOPS Exchange Step
 * from HOOPS Exchange, Inc. (www.tiangong.cloud) 
 */

FILE_DESCRIPTION(
/* description */ ('Unknown'),
/* implementation_level */ '2;1');

FILE_NAME(
/* name */ '\X2\773C5B549489\X0\ GBT18981-2008',
/* time_stamp */ '2025-12-25T09:33:34+08:00',
/* author */ ('Unknown'),
/* organization */ ('Unknown'),
/* preprocessor_version */ 'ST-DEVELOPER v19.4',
/* originating_system */ 'TianGong',
/* authorisation */ 'Unknown');

FILE_SCHEMA (('AUTOMOTIVE_DESIGN {1 0 10303 214 3 1 1}'));
ENDSEC;

DATA;
#10=PROPERTY_DEFINITION_REPRESENTATION(#14,#12);
#11=PROPERTY_DEFINITION_REPRESENTATION(#15,#13);
#12=REPRESENTATION('',(#16),#179);
#13=REPRESENTATION('',(#17),#179);
#14=PROPERTY_DEFINITION('pmi validation property','',#184);
#15=PROPERTY_DEFINITION('pmi validation property','',#184);
#16=VALUE_REPRESENTATION_ITEM('number of annotations',COUNT_MEASURE(0.));
#17=VALUE_REPRESENTATION_ITEM('number of views',COUNT_MEASURE(0.));
#18=SHAPE_REPRESENTATION_RELATIONSHIP('','',#100,#19);
#19=ADVANCED_BREP_SHAPE_REPRESENTATION('',(#98),#179);
#20=VERTEX_LOOP('',#52);
#21=CONICAL_SURFACE('',#106,4.,0.5235987755983);
#22=CONICAL_SURFACE('',#110,2.25,0.523598775598299);
#23=B_SPLINE_CURVE_WITH_KNOTS('',3,(#139,#140,#141,#142,#143,#144,#145,
#146,#147,#148,#149,#150,#151),.UNSPECIFIED.,.T.,.F.,(1,1,1,1,1,1,1,1,1,
1,1,1,1,1,1,1,1),(-0.00317821307253754,-0.00158910653626877,-0.000794553268134384,
0.,0.00158910653626877,0.00317821307253754,0.00397276634067193,0.00476731960880632,
0.00635642614507509,0.00794553268134386,0.00953463921761263,0.0111237457538814,
0.0119182990220158,0.0127128522901502,0.0143019588264189,0.0158910653626877,
0.0166856186308221),.UNSPECIFIED.);
#24=B_SPLINE_CURVE_WITH_KNOTS('',3,(#153,#154,#155,#156,#157,#158,#159,
#160,#161,#162,#163,#164,#165),.UNSPECIFIED.,.T.,.F.,(1,1,1,1,1,1,1,1,1,
1,1,1,1,1,1,1,1),(-0.00317821307253754,-0.00158910653626877,-0.000794553268134384,
0.,0.00158910653626877,0.00317821307253754,0.00397276634067193,0.00476731960880631,
0.00635642614507508,0.00794553268134386,0.00953463921761263,0.0111237457538814,
0.0119182990220158,0.0127128522901502,0.0143019588264189,0.0158910653626877,
0.0166856186308221),.UNSPECIFIED.);
#25=CYLINDRICAL_SURFACE('',#104,4.);
#26=CYLINDRICAL_SURFACE('',#108,2.25);
#27=CYLINDRICAL_SURFACE('',#111,2.);
#28=ORIENTED_EDGE('',*,*,#40,.F.);
#29=ORIENTED_EDGE('',*,*,#41,.T.);
#30=ORIENTED_EDGE('',*,*,#42,.T.);
#31=ORIENTED_EDGE('',*,*,#43,.F.);
#32=ORIENTED_EDGE('',*,*,#40,.T.);
#33=ORIENTED_EDGE('',*,*,#44,.F.);
#34=ORIENTED_EDGE('',*,*,#43,.T.);
#35=ORIENTED_EDGE('',*,*,#45,.F.);
#36=ORIENTED_EDGE('',*,*,#44,.T.);
#37=ORIENTED_EDGE('',*,*,#45,.T.);
#38=ORIENTED_EDGE('',*,*,#42,.F.);
#39=ORIENTED_EDGE('',*,*,#41,.F.);
#40=EDGE_CURVE('',#46,#46,#53,.T.);
#41=EDGE_CURVE('',#47,#47,#23,.T.);
#42=EDGE_CURVE('',#48,#48,#24,.T.);
#43=EDGE_CURVE('',#49,#49,#54,.T.);
#44=EDGE_CURVE('',#50,#50,#55,.T.);
#45=EDGE_CURVE('',#51,#51,#56,.T.);
#46=VERTEX_POINT('',#137);
#47=VERTEX_POINT('',#152);
#48=VERTEX_POINT('',#166);
#49=VERTEX_POINT('',#168);
#50=VERTEX_POINT('',#171);
#51=VERTEX_POINT('',#174);
#52=VERTEX_POINT('',#176);
#53=CIRCLE('',#103,4.);
#54=CIRCLE('',#105,4.);
#55=CIRCLE('',#107,2.25);
#56=CIRCLE('',#109,2.25);
#57=EDGE_LOOP('',(#28));
#58=EDGE_LOOP('',(#29));
#59=EDGE_LOOP('',(#30));
#60=EDGE_LOOP('',(#31));
#61=EDGE_LOOP('',(#32));
#62=EDGE_LOOP('',(#33));
#63=EDGE_LOOP('',(#34));
#64=EDGE_LOOP('',(#35));
#65=EDGE_LOOP('',(#36));
#66=EDGE_LOOP('',(#37));
#67=EDGE_LOOP('',(#38));
#68=EDGE_LOOP('',(#39));
#69=FACE_BOUND('',#57,.T.);
#70=FACE_BOUND('',#58,.T.);
#71=FACE_BOUND('',#59,.T.);
#72=FACE_BOUND('',#60,.T.);
#73=FACE_BOUND('',#61,.T.);
#74=FACE_BOUND('',#62,.T.);
#75=FACE_BOUND('',#63,.T.);
#76=FACE_BOUND('',#64,.T.);
#77=FACE_BOUND('',#65,.T.);
#78=FACE_BOUND('',#20,.T.);
#79=FACE_BOUND('',#66,.T.);
#80=FACE_BOUND('',#67,.T.);
#81=FACE_BOUND('',#68,.T.);
#82=PLANE('',#102);
#83=ADVANCED_FACE('',(#69),#82,.F.);
#84=ADVANCED_FACE('',(#70,#71,#72,#73),#25,.T.);
#85=ADVANCED_FACE('',(#74,#75),#21,.T.);
#86=ADVANCED_FACE('',(#76,#77),#26,.T.);
#87=ADVANCED_FACE('',(#78,#79),#22,.T.);
#88=ADVANCED_FACE('',(#80,#81),#27,.F.);
#89=CLOSED_SHELL('',(#83,#84,#85,#86,#87,#88));
#90=STYLED_ITEM('',(#91),#98);
#91=PRESENTATION_STYLE_ASSIGNMENT((#92));
#92=SURFACE_STYLE_USAGE(.BOTH.,#93);
#93=SURFACE_SIDE_STYLE('',(#94));
#94=SURFACE_STYLE_FILL_AREA(#95);
#95=FILL_AREA_STYLE('',(#96));
#96=FILL_AREA_STYLE_COLOUR('',#97);
#97=COLOUR_RGB('',0.506983280181885,0.531564235687256,0.550000011920929);
#98=MANIFOLD_SOLID_BREP('',#89);
#99=SHAPE_DEFINITION_REPRESENTATION(#184,#100);
#100=SHAPE_REPRESENTATION('\X2\773C5B549489\X0\ GBT18981-2008',(#101),#179);
#101=AXIS2_PLACEMENT_3D('',#134,#112,#113);
#102=AXIS2_PLACEMENT_3D('',#135,#114,#115);
#103=AXIS2_PLACEMENT_3D('',#136,#116,#117);
#104=AXIS2_PLACEMENT_3D('',#138,#118,#119);
#105=AXIS2_PLACEMENT_3D('',#167,#120,#121);
#106=AXIS2_PLACEMENT_3D('',#169,#122,#123);
#107=AXIS2_PLACEMENT_3D('',#170,#124,#125);
#108=AXIS2_PLACEMENT_3D('',#172,#126,#127);
#109=AXIS2_PLACEMENT_3D('',#173,#128,#129);
#110=AXIS2_PLACEMENT_3D('',#175,#130,#131);
#111=AXIS2_PLACEMENT_3D('',#177,#132,#133);
#112=DIRECTION('',(0.,0.,1.));
#113=DIRECTION('',(1.,0.,0.));
#114=DIRECTION('',(-1.,0.,0.));
#115=DIRECTION('',(0.,0.,1.));
#116=DIRECTION('',(-1.,0.,0.));
#117=DIRECTION('',(0.,0.,1.));
#118=DIRECTION('',(-1.,0.,0.));
#119=DIRECTION('',(0.,0.,1.));
#120=DIRECTION('',(-1.,0.,0.));
#121=DIRECTION('',(0.,0.,1.));
#122=DIRECTION('',(1.,0.,0.));
#123=DIRECTION('',(0.,0.,-1.));
#124=DIRECTION('',(-1.,0.,0.));
#125=DIRECTION('',(0.,0.,1.));
#126=DIRECTION('',(-1.,0.,0.));
#127=DIRECTION('',(0.,0.,1.));
#128=DIRECTION('',(-1.,0.,0.));
#129=DIRECTION('',(0.,0.,1.));
#130=DIRECTION('',(1.,0.,0.));
#131=DIRECTION('',(0.,0.,-1.));
#132=DIRECTION('',(0.,0.,-1.));
#133=DIRECTION('',(-1.,0.,0.));
#134=CARTESIAN_POINT('',(0.,0.,0.));
#135=CARTESIAN_POINT('',(20.,0.,0.));
#136=CARTESIAN_POINT('',(20.,0.,0.));
#137=CARTESIAN_POINT('',(20.,0.,4.));
#138=CARTESIAN_POINT('',(0.,0.,0.));
#139=CARTESIAN_POINT('',(10.1109179763176,-0.800291911621188,3.94322257021996));
#140=CARTESIAN_POINT('',(9.88953158075578,0.270718551570091,4.05924926151585));
#141=CARTESIAN_POINT('',(10.4396258916099,1.56499259397513,3.75064379525756));
#142=CARTESIAN_POINT('',(11.7238018795551,2.10864890558988,3.39586720741667));
#143=CARTESIAN_POINT('',(12.7950920040336,1.89141679081952,3.52962473183629));
#144=CARTESIAN_POINT('',(13.6636175009419,1.31036158798262,3.81512533562397));
#145=CARTESIAN_POINT('',(14.2205418014613,0.00741553680308349,4.12375045993522));
#146=CARTESIAN_POINT('',(13.5655539558073,-1.56731522634907,3.75157475077596));
#147=CARTESIAN_POINT('',(12.0077964440212,-2.21816003271909,3.32188827947471));
#148=CARTESIAN_POINT('',(10.6953534506092,-1.66970010940709,3.67490046808187));
#149=CARTESIAN_POINT('',(10.1109179763176,-0.800291911621188,3.94322257021996));
#150=CARTESIAN_POINT('',(9.88953158075578,0.270718551570091,4.05924926151585));
#151=CARTESIAN_POINT('',(10.4396258916099,1.56499259397513,3.75064379525756));
#152=CARTESIAN_POINT('',(10.,0.,4.));
#153=CARTESIAN_POINT('',(10.1109179763176,0.80029191162119,-3.94322257021996));
#154=CARTESIAN_POINT('',(9.88953158075578,-0.270718551570092,-4.05924926151585));
#155=CARTESIAN_POINT('',(10.4396258916099,-1.56499259397513,-3.75064379525756));
#156=CARTESIAN_POINT('',(11.7238018795551,-2.10864890558988,-3.39586720741667));
#157=CARTESIAN_POINT('',(12.7950920040336,-1.89141679081952,-3.52962473183629));
#158=CARTESIAN_POINT('',(13.6636175009419,-1.31036158798262,-3.81512533562398));
#159=CARTESIAN_POINT('',(14.2205418014613,-0.00741553680308731,-4.12375045993522));
#160=CARTESIAN_POINT('',(13.5655539558073,1.56731522634907,-3.75157475077596));
#161=CARTESIAN_POINT('',(12.0077964440212,2.21816003271909,-3.32188827947471));
#162=CARTESIAN_POINT('',(10.6953534506092,1.6697001094071,-3.67490046808187));
#163=CARTESIAN_POINT('',(10.1109179763176,0.80029191162119,-3.94322257021996));
#164=CARTESIAN_POINT('',(9.88953158075578,-0.270718551570092,-4.05924926151585));
#165=CARTESIAN_POINT('',(10.4396258916099,-1.56499259397513,-3.75064379525756));
#166=CARTESIAN_POINT('',(10.,0.,-4.));
#167=CARTESIAN_POINT('',(3.03108891324553,0.,0.));
#168=CARTESIAN_POINT('',(3.03108891324553,0.,4.));
#169=CARTESIAN_POINT('',(3.03108891324553,0.,0.));
#170=CARTESIAN_POINT('',(0.,0.,0.));
#171=CARTESIAN_POINT('',(0.,0.,2.25));
#172=CARTESIAN_POINT('',(0.,0.,0.));
#173=CARTESIAN_POINT('',(-18.10288568297,0.,0.));
#174=CARTESIAN_POINT('',(-18.10288568297,0.,2.25));
#175=CARTESIAN_POINT('',(-18.10288568297,0.,0.));
#176=CARTESIAN_POINT('',(-22.,0.,0.));
#177=CARTESIAN_POINT('',(12.,0.,4.));
#178=MECHANICAL_DESIGN_GEOMETRIC_PRESENTATION_REPRESENTATION('',(#90),#179);
#179=(
GEOMETRIC_REPRESENTATION_CONTEXT(3)
GLOBAL_UNCERTAINTY_ASSIGNED_CONTEXT((#180))
GLOBAL_UNIT_ASSIGNED_CONTEXT((#183,#182,#181))
REPRESENTATION_CONTEXT('\X2\773C5B549489\X0\ GBT18981-2008',
'TOP_LEVEL_ASSEMBLY_PART')
);
#180=UNCERTAINTY_MEASURE_WITH_UNIT(LENGTH_MEASURE(0.005),#183,
'DISTANCE_ACCURACY_VALUE','Maximum Tolerance applied to model');
#181=(
NAMED_UNIT(*)
SI_UNIT($,.STERADIAN.)
SOLID_ANGLE_UNIT()
);
#182=(
NAMED_UNIT(*)
PLANE_ANGLE_UNIT()
SI_UNIT($,.RADIAN.)
);
#183=(
LENGTH_UNIT()
NAMED_UNIT(*)
SI_UNIT(.MILLI.,.METRE.)
);
#184=PRODUCT_DEFINITION_SHAPE('','',#185);
#185=PRODUCT_DEFINITION('','',#187,#186);
#186=PRODUCT_DEFINITION_CONTEXT('',#193,'design');
#187=PRODUCT_DEFINITION_FORMATION_WITH_SPECIFIED_SOURCE('','',#189,
 .NOT_KNOWN.);
#188=PRODUCT_RELATED_PRODUCT_CATEGORY('','',(#189));
#189=PRODUCT('\X2\773C5B549489\X0\ GBT18981-2008',
'\X2\773C5B549489\X0\ GBT18981-2008','\X2\773C5B549489\X0\ GBT18981-20
08',(#191));
#190=PRODUCT_CATEGORY('','');
#191=PRODUCT_CONTEXT('',#193,'mechanical');
#192=APPLICATION_PROTOCOL_DEFINITION('international standard',
'automotive_design',2010,#193);
#193=APPLICATION_CONTEXT(
'core data for automotive mechanical design processes');
ENDSEC;
END-ISO-10303-21;
