ISO-10303-21;
HEADER;
/* Generated by software containing HOOPS Exchange Step
 * from HOOPS Exchange, Inc. (www.tiangong.cloud) 
 */

FILE_DESCRIPTION(
/* description */ ('Unknown'),
/* implementation_level */ '2;1');

FILE_NAME(
/* name */ '\X2\53415B5776D8593481EA653B95017D2787BA9489\X0\',
/* time_stamp */ '2025-12-31T14:50:25+08:00',
/* author */ ('Unknown'),
/* organization */ ('Unknown'),
/* preprocessor_version */ 'ST-DEVELOPER v19.4',
/* originating_system */ 'TianGong',
/* authorisation */ 'Unknown');

FILE_SCHEMA (('AUTOMOTIVE_DESIGN {1 0 10303 214 3 1 1}'));
ENDSEC;

DATA;
#10=PROPERTY_DEFINITION_REPRESENTATION(#14,#12);
#11=PROPERTY_DEFINITION_REPRESENTATION(#15,#13);
#12=REPRESENTATION('',(#16),#813);
#13=REPRESENTATION('',(#17),#813);
#14=PROPERTY_DEFINITION('pmi validation property','',#818);
#15=PROPERTY_DEFINITION('pmi validation property','',#818);
#16=VALUE_REPRESENTATION_ITEM('number of annotations',COUNT_MEASURE(0.));
#17=VALUE_REPRESENTATION_ITEM('number of views',COUNT_MEASURE(0.));
#18=SHAPE_REPRESENTATION_RELATIONSHIP('','',#465,#19);
#19=ADVANCED_BREP_SHAPE_REPRESENTATION('',(#463),#813);
#20=TOROIDAL_SURFACE('',#508,1.09999999999999,0.1);
#21=B_SPLINE_CURVE_WITH_KNOTS('',3,(#719,#720,#721,#722,#723),
 .UNSPECIFIED.,.F.,.F.,(4,1,4),(2.16359058888763E-7,0.000946473996108804,
0.00189273163315872),.UNSPECIFIED.);
#22=B_SPLINE_CURVE_WITH_KNOTS('',3,(#727,#728,#729,#730,#731),
 .UNSPECIFIED.,.F.,.F.,(4,1,4),(2.16298237694016E-7,0.000946473592329145,
0.0018927308864206),.UNSPECIFIED.);
#23=B_SPLINE_CURVE_WITH_KNOTS('',3,(#735,#736,#737,#738,#739),
 .UNSPECIFIED.,.F.,.F.,(4,1,4),(2.95663740045783E-7,0.000946553281918244,
0.00189281090009644),.UNSPECIFIED.);
#24=B_SPLINE_CURVE_WITH_KNOTS('',3,(#745,#746,#747,#748,#749,#750,#751),
 .UNSPECIFIED.,.F.,.F.,(4,1,1,1,4),(2.91395922554684E-7,0.000544702346376071,
0.00108911329682959,0.0016335242472831,0.00217793519773662),
 .UNSPECIFIED.);
#25=B_SPLINE_CURVE_WITH_KNOTS('',3,(#757,#758,#759,#760,#761,#762,#763),
 .UNSPECIFIED.,.F.,.F.,(4,1,1,1,4),(2.81217571794137E-7,0.000544692077530069,
0.00108910293748834,0.00163351379744662,0.00217792465740489),
 .UNSPECIFIED.);
#26=B_SPLINE_CURVE_WITH_KNOTS('',3,(#771,#772,#773,#774,#775,#776,#777),
 .UNSPECIFIED.,.F.,.F.,(4,1,1,1,4),(2.9147786299794E-7,0.000544702429045039,
0.00108911338022708,0.00163352433140912,0.00217793528259116),
 .UNSPECIFIED.);
#27=CONICAL_SURFACE('',#492,1.,0.982793723247329);
#28=CONICAL_SURFACE('',#505,1.3,0.463647609000806);
#29=CYLINDRICAL_SURFACE('',#488,0.999999999999993);
#30=CYLINDRICAL_SURFACE('',#491,2.);
#31=CYLINDRICAL_SURFACE('',#496,3.55902133426895);
#32=CYLINDRICAL_SURFACE('',#497,3.55902133426894);
#33=CYLINDRICAL_SURFACE('',#498,1.3);
#34=CYLINDRICAL_SURFACE('',#500,3.55902133426891);
#35=CYLINDRICAL_SURFACE('',#501,1.3);
#36=CYLINDRICAL_SURFACE('',#503,1.3);
#37=LINE('',#681,#67);
#38=LINE('',#683,#68);
#39=LINE('',#685,#69);
#40=LINE('',#687,#70);
#41=LINE('',#690,#71);
#42=LINE('',#691,#72);
#43=LINE('',#693,#73);
#44=LINE('',#696,#74);
#45=LINE('',#697,#75);
#46=LINE('',#699,#76);
#47=LINE('',#701,#77);
#48=LINE('',#703,#78);
#49=LINE('',#741,#79);
#50=LINE('',#743,#80);
#51=LINE('',#753,#81);
#52=LINE('',#755,#82);
#53=LINE('',#767,#83);
#54=LINE('',#769,#84);
#55=LINE('',#788,#85);
#56=LINE('',#790,#86);
#57=LINE('',#792,#87);
#58=LINE('',#794,#88);
#59=LINE('',#796,#89);
#60=LINE('',#797,#90);
#61=LINE('',#799,#91);
#62=LINE('',#801,#92);
#63=LINE('',#803,#93);
#64=LINE('',#805,#94);
#65=LINE('',#808,#95);
#66=LINE('',#810,#96);
#67=VECTOR('',#550,1000.);
#68=VECTOR('',#551,1000.);
#69=VECTOR('',#552,1000.);
#70=VECTOR('',#555,1000.);
#71=VECTOR('',#556,1000.);
#72=VECTOR('',#557,1000.);
#73=VECTOR('',#560,1000.);
#74=VECTOR('',#561,1000.);
#75=VECTOR('',#562,1000.);
#76=VECTOR('',#565,1000.);
#77=VECTOR('',#566,1000.);
#78=VECTOR('',#567,1000.);
#79=VECTOR('',#592,1000.);
#80=VECTOR('',#593,1000.);
#81=VECTOR('',#596,1000.);
#82=VECTOR('',#597,1000.);
#83=VECTOR('',#604,1000.);
#84=VECTOR('',#605,1000.);
#85=VECTOR('',#624,1000.);
#86=VECTOR('',#627,1000.);
#87=VECTOR('',#630,1000.);
#88=VECTOR('',#631,1000.);
#89=VECTOR('',#632,1000.);
#90=VECTOR('',#633,1000.);
#91=VECTOR('',#634,1000.);
#92=VECTOR('',#635,1000.);
#93=VECTOR('',#638,1000.);
#94=VECTOR('',#641,1000.);
#95=VECTOR('',#646,1000.);
#96=VECTOR('',#649,1000.);
#97=PLANE('',#481);
#98=PLANE('',#482);
#99=PLANE('',#483);
#100=PLANE('',#484);
#101=PLANE('',#485);
#102=PLANE('',#507);
#103=PLANE('',#509);
#104=PLANE('',#510);
#105=PLANE('',#511);
#106=PLANE('',#512);
#107=PLANE('',#513);
#108=PLANE('',#514);
#109=PLANE('',#515);
#110=PLANE('',#516);
#111=PLANE('',#517);
#112=ORIENTED_EDGE('',*,*,#232,.T.);
#113=ORIENTED_EDGE('',*,*,#233,.T.);
#114=ORIENTED_EDGE('',*,*,#234,.T.);
#115=ORIENTED_EDGE('',*,*,#235,.T.);
#116=ORIENTED_EDGE('',*,*,#236,.T.);
#117=ORIENTED_EDGE('',*,*,#237,.T.);
#118=ORIENTED_EDGE('',*,*,#238,.T.);
#119=ORIENTED_EDGE('',*,*,#239,.T.);
#120=ORIENTED_EDGE('',*,*,#240,.T.);
#121=ORIENTED_EDGE('',*,*,#241,.T.);
#122=ORIENTED_EDGE('',*,*,#242,.T.);
#123=ORIENTED_EDGE('',*,*,#243,.T.);
#124=ORIENTED_EDGE('',*,*,#244,.T.);
#125=ORIENTED_EDGE('',*,*,#243,.F.);
#126=ORIENTED_EDGE('',*,*,#245,.T.);
#127=ORIENTED_EDGE('',*,*,#246,.T.);
#128=ORIENTED_EDGE('',*,*,#247,.T.);
#129=ORIENTED_EDGE('',*,*,#248,.T.);
#130=ORIENTED_EDGE('',*,*,#249,.T.);
#131=ORIENTED_EDGE('',*,*,#239,.F.);
#132=ORIENTED_EDGE('',*,*,#250,.F.);
#133=ORIENTED_EDGE('',*,*,#251,.T.);
#134=ORIENTED_EDGE('',*,*,#252,.T.);
#135=ORIENTED_EDGE('',*,*,#233,.F.);
#136=ORIENTED_EDGE('',*,*,#253,.F.);
#137=ORIENTED_EDGE('',*,*,#237,.F.);
#138=ORIENTED_EDGE('',*,*,#254,.T.);
#139=ORIENTED_EDGE('',*,*,#255,.T.);
#140=ORIENTED_EDGE('',*,*,#256,.T.);
#141=ORIENTED_EDGE('',*,*,#257,.T.);
#142=ORIENTED_EDGE('',*,*,#258,.F.);
#143=ORIENTED_EDGE('',*,*,#259,.T.);
#144=ORIENTED_EDGE('',*,*,#260,.T.);
#145=ORIENTED_EDGE('',*,*,#258,.T.);
#146=ORIENTED_EDGE('',*,*,#232,.F.);
#147=ORIENTED_EDGE('',*,*,#261,.T.);
#148=ORIENTED_EDGE('',*,*,#262,.F.);
#149=ORIENTED_EDGE('',*,*,#263,.T.);
#150=ORIENTED_EDGE('',*,*,#264,.F.);
#151=ORIENTED_EDGE('',*,*,#265,.T.);
#152=ORIENTED_EDGE('',*,*,#266,.F.);
#153=ORIENTED_EDGE('',*,*,#260,.F.);
#154=ORIENTED_EDGE('',*,*,#267,.T.);
#155=ORIENTED_EDGE('',*,*,#264,.T.);
#156=ORIENTED_EDGE('',*,*,#268,.F.);
#157=ORIENTED_EDGE('',*,*,#269,.T.);
#158=ORIENTED_EDGE('',*,*,#270,.T.);
#159=ORIENTED_EDGE('',*,*,#262,.T.);
#160=ORIENTED_EDGE('',*,*,#271,.F.);
#161=ORIENTED_EDGE('',*,*,#272,.T.);
#162=ORIENTED_EDGE('',*,*,#263,.F.);
#163=ORIENTED_EDGE('',*,*,#270,.F.);
#164=ORIENTED_EDGE('',*,*,#273,.T.);
#165=ORIENTED_EDGE('',*,*,#268,.T.);
#166=ORIENTED_EDGE('',*,*,#274,.T.);
#167=ORIENTED_EDGE('',*,*,#266,.T.);
#168=ORIENTED_EDGE('',*,*,#275,.F.);
#169=ORIENTED_EDGE('',*,*,#276,.T.);
#170=ORIENTED_EDGE('',*,*,#271,.T.);
#171=ORIENTED_EDGE('',*,*,#261,.F.);
#172=ORIENTED_EDGE('',*,*,#274,.F.);
#173=ORIENTED_EDGE('',*,*,#277,.T.);
#174=ORIENTED_EDGE('',*,*,#265,.F.);
#175=ORIENTED_EDGE('',*,*,#267,.F.);
#176=ORIENTED_EDGE('',*,*,#278,.T.);
#177=ORIENTED_EDGE('',*,*,#275,.T.);
#178=ORIENTED_EDGE('',*,*,#279,.T.);
#179=ORIENTED_EDGE('',*,*,#273,.F.);
#180=ORIENTED_EDGE('',*,*,#272,.F.);
#181=ORIENTED_EDGE('',*,*,#277,.F.);
#182=ORIENTED_EDGE('',*,*,#276,.F.);
#183=ORIENTED_EDGE('',*,*,#278,.F.);
#184=ORIENTED_EDGE('',*,*,#269,.F.);
#185=ORIENTED_EDGE('',*,*,#279,.F.);
#186=ORIENTED_EDGE('',*,*,#259,.F.);
#187=ORIENTED_EDGE('',*,*,#257,.F.);
#188=ORIENTED_EDGE('',*,*,#256,.F.);
#189=ORIENTED_EDGE('',*,*,#280,.T.);
#190=ORIENTED_EDGE('',*,*,#250,.T.);
#191=ORIENTED_EDGE('',*,*,#238,.F.);
#192=ORIENTED_EDGE('',*,*,#247,.F.);
#193=ORIENTED_EDGE('',*,*,#281,.T.);
#194=ORIENTED_EDGE('',*,*,#253,.T.);
#195=ORIENTED_EDGE('',*,*,#244,.F.);
#196=ORIENTED_EDGE('',*,*,#255,.F.);
#197=ORIENTED_EDGE('',*,*,#282,.F.);
#198=ORIENTED_EDGE('',*,*,#283,.F.);
#199=ORIENTED_EDGE('',*,*,#284,.F.);
#200=ORIENTED_EDGE('',*,*,#251,.F.);
#201=ORIENTED_EDGE('',*,*,#281,.F.);
#202=ORIENTED_EDGE('',*,*,#246,.F.);
#203=ORIENTED_EDGE('',*,*,#285,.F.);
#204=ORIENTED_EDGE('',*,*,#286,.F.);
#205=ORIENTED_EDGE('',*,*,#287,.F.);
#206=ORIENTED_EDGE('',*,*,#248,.F.);
#207=ORIENTED_EDGE('',*,*,#280,.F.);
#208=ORIENTED_EDGE('',*,*,#288,.F.);
#209=ORIENTED_EDGE('',*,*,#282,.T.);
#210=ORIENTED_EDGE('',*,*,#254,.F.);
#211=ORIENTED_EDGE('',*,*,#236,.F.);
#212=ORIENTED_EDGE('',*,*,#252,.F.);
#213=ORIENTED_EDGE('',*,*,#284,.T.);
#214=ORIENTED_EDGE('',*,*,#289,.T.);
#215=ORIENTED_EDGE('',*,*,#234,.F.);
#216=ORIENTED_EDGE('',*,*,#289,.F.);
#217=ORIENTED_EDGE('',*,*,#283,.T.);
#218=ORIENTED_EDGE('',*,*,#288,.T.);
#219=ORIENTED_EDGE('',*,*,#235,.F.);
#220=ORIENTED_EDGE('',*,*,#290,.F.);
#221=ORIENTED_EDGE('',*,*,#285,.T.);
#222=ORIENTED_EDGE('',*,*,#245,.F.);
#223=ORIENTED_EDGE('',*,*,#242,.F.);
#224=ORIENTED_EDGE('',*,*,#249,.F.);
#225=ORIENTED_EDGE('',*,*,#287,.T.);
#226=ORIENTED_EDGE('',*,*,#291,.T.);
#227=ORIENTED_EDGE('',*,*,#240,.F.);
#228=ORIENTED_EDGE('',*,*,#291,.F.);
#229=ORIENTED_EDGE('',*,*,#286,.T.);
#230=ORIENTED_EDGE('',*,*,#290,.T.);
#231=ORIENTED_EDGE('',*,*,#241,.F.);
#232=EDGE_CURVE('',#292,#292,#334,.T.);
#233=EDGE_CURVE('',#293,#294,#335,.F.);
#234=EDGE_CURVE('',#294,#295,#336,.F.);
#235=EDGE_CURVE('',#295,#296,#337,.F.);
#236=EDGE_CURVE('',#296,#297,#338,.F.);
#237=EDGE_CURVE('',#297,#298,#339,.F.);
#238=EDGE_CURVE('',#298,#299,#340,.F.);
#239=EDGE_CURVE('',#299,#300,#341,.F.);
#240=EDGE_CURVE('',#300,#301,#342,.F.);
#241=EDGE_CURVE('',#301,#302,#343,.F.);
#242=EDGE_CURVE('',#302,#303,#344,.F.);
#243=EDGE_CURVE('',#303,#304,#345,.F.);
#244=EDGE_CURVE('',#304,#293,#346,.F.);
#245=EDGE_CURVE('',#303,#305,#37,.T.);
#246=EDGE_CURVE('',#305,#306,#38,.T.);
#247=EDGE_CURVE('',#306,#304,#39,.T.);
#248=EDGE_CURVE('',#307,#308,#40,.T.);
#249=EDGE_CURVE('',#308,#300,#41,.T.);
#250=EDGE_CURVE('',#307,#299,#42,.T.);
#251=EDGE_CURVE('',#309,#310,#43,.T.);
#252=EDGE_CURVE('',#310,#294,#44,.T.);
#253=EDGE_CURVE('',#309,#293,#45,.T.);
#254=EDGE_CURVE('',#297,#311,#46,.T.);
#255=EDGE_CURVE('',#311,#312,#47,.T.);
#256=EDGE_CURVE('',#312,#298,#48,.T.);
#257=EDGE_CURVE('',#313,#313,#347,.F.);
#258=EDGE_CURVE('',#314,#314,#348,.T.);
#259=EDGE_CURVE('',#315,#315,#349,.T.);
#260=EDGE_CURVE('',#316,#316,#350,.T.);
#261=EDGE_CURVE('',#317,#318,#351,.T.);
#262=EDGE_CURVE('',#319,#318,#21,.T.);
#263=EDGE_CURVE('',#319,#320,#352,.T.);
#264=EDGE_CURVE('',#321,#320,#22,.T.);
#265=EDGE_CURVE('',#321,#322,#353,.T.);
#266=EDGE_CURVE('',#317,#322,#23,.T.);
#267=EDGE_CURVE('',#323,#321,#49,.T.);
#268=EDGE_CURVE('',#324,#320,#50,.T.);
#269=EDGE_CURVE('',#324,#323,#24,.T.);
#270=EDGE_CURVE('',#325,#319,#51,.T.);
#271=EDGE_CURVE('',#326,#318,#52,.T.);
#272=EDGE_CURVE('',#326,#325,#25,.T.);
#273=EDGE_CURVE('',#325,#324,#354,.T.);
#274=EDGE_CURVE('',#327,#317,#53,.T.);
#275=EDGE_CURVE('',#328,#322,#54,.T.);
#276=EDGE_CURVE('',#328,#327,#26,.T.);
#277=EDGE_CURVE('',#327,#326,#355,.T.);
#278=EDGE_CURVE('',#323,#328,#356,.T.);
#279=EDGE_CURVE('',#329,#329,#357,.T.);
#280=EDGE_CURVE('',#312,#307,#55,.T.);
#281=EDGE_CURVE('',#306,#309,#56,.T.);
#282=EDGE_CURVE('',#330,#311,#57,.T.);
#283=EDGE_CURVE('',#331,#330,#58,.T.);
#284=EDGE_CURVE('',#310,#331,#59,.T.);
#285=EDGE_CURVE('',#332,#305,#60,.T.);
#286=EDGE_CURVE('',#333,#332,#61,.T.);
#287=EDGE_CURVE('',#308,#333,#62,.T.);
#288=EDGE_CURVE('',#330,#296,#63,.T.);
#289=EDGE_CURVE('',#331,#295,#64,.T.);
#290=EDGE_CURVE('',#332,#302,#65,.T.);
#291=EDGE_CURVE('',#333,#301,#66,.T.);
#292=VERTEX_POINT('',#655);
#293=VERTEX_POINT('',#657);
#294=VERTEX_POINT('',#658);
#295=VERTEX_POINT('',#660);
#296=VERTEX_POINT('',#662);
#297=VERTEX_POINT('',#664);
#298=VERTEX_POINT('',#666);
#299=VERTEX_POINT('',#668);
#300=VERTEX_POINT('',#670);
#301=VERTEX_POINT('',#672);
#302=VERTEX_POINT('',#674);
#303=VERTEX_POINT('',#676);
#304=VERTEX_POINT('',#678);
#305=VERTEX_POINT('',#682);
#306=VERTEX_POINT('',#684);
#307=VERTEX_POINT('',#688);
#308=VERTEX_POINT('',#689);
#309=VERTEX_POINT('',#694);
#310=VERTEX_POINT('',#695);
#311=VERTEX_POINT('',#700);
#312=VERTEX_POINT('',#702);
#313=VERTEX_POINT('',#706);
#314=VERTEX_POINT('',#708);
#315=VERTEX_POINT('',#711);
#316=VERTEX_POINT('',#713);
#317=VERTEX_POINT('',#717);
#318=VERTEX_POINT('',#718);
#319=VERTEX_POINT('',#724);
#320=VERTEX_POINT('',#726);
#321=VERTEX_POINT('',#732);
#322=VERTEX_POINT('',#734);
#323=VERTEX_POINT('',#742);
#324=VERTEX_POINT('',#744);
#325=VERTEX_POINT('',#754);
#326=VERTEX_POINT('',#756);
#327=VERTEX_POINT('',#768);
#328=VERTEX_POINT('',#770);
#329=VERTEX_POINT('',#784);
#330=VERTEX_POINT('',#793);
#331=VERTEX_POINT('',#795);
#332=VERTEX_POINT('',#798);
#333=VERTEX_POINT('',#800);
#334=CIRCLE('',#468,2.);
#335=CIRCLE('',#469,3.19117435280494);
#336=CIRCLE('',#470,3.19117435280494);
#337=CIRCLE('',#471,3.0557323181195);
#338=CIRCLE('',#472,3.19117435280494);
#339=CIRCLE('',#473,3.19117435280494);
#340=CIRCLE('',#474,3.0557323181195);
#341=CIRCLE('',#475,3.19117435280494);
#342=CIRCLE('',#476,3.19117435280494);
#343=CIRCLE('',#477,3.0557323181195);
#344=CIRCLE('',#478,3.19117435280494);
#345=CIRCLE('',#479,3.19117435280494);
#346=CIRCLE('',#480,3.0557323181195);
#347=CIRCLE('',#486,1.09999999999999);
#348=CIRCLE('',#487,2.);
#349=CIRCLE('',#489,0.999999999999993);
#350=CIRCLE('',#490,0.999999999999993);
#351=CIRCLE('',#493,1.3);
#352=CIRCLE('',#494,1.3);
#353=CIRCLE('',#495,1.3);
#354=CIRCLE('',#499,1.3);
#355=CIRCLE('',#502,1.3);
#356=CIRCLE('',#504,1.3);
#357=CIRCLE('',#506,1.);
#358=EDGE_LOOP('',(#112));
#359=EDGE_LOOP('',(#113,#114,#115,#116,#117,#118,#119,#120,#121,#122,#123,
#124));
#360=EDGE_LOOP('',(#125,#126,#127,#128));
#361=EDGE_LOOP('',(#129,#130,#131,#132));
#362=EDGE_LOOP('',(#133,#134,#135,#136));
#363=EDGE_LOOP('',(#137,#138,#139,#140));
#364=EDGE_LOOP('',(#141));
#365=EDGE_LOOP('',(#142));
#366=EDGE_LOOP('',(#143));
#367=EDGE_LOOP('',(#144));
#368=EDGE_LOOP('',(#145));
#369=EDGE_LOOP('',(#146));
#370=EDGE_LOOP('',(#147,#148,#149,#150,#151,#152));
#371=EDGE_LOOP('',(#153));
#372=EDGE_LOOP('',(#154,#155,#156,#157));
#373=EDGE_LOOP('',(#158,#159,#160,#161));
#374=EDGE_LOOP('',(#162,#163,#164,#165));
#375=EDGE_LOOP('',(#166,#167,#168,#169));
#376=EDGE_LOOP('',(#170,#171,#172,#173));
#377=EDGE_LOOP('',(#174,#175,#176,#177));
#378=EDGE_LOOP('',(#178));
#379=EDGE_LOOP('',(#179,#180,#181,#182,#183,#184));
#380=EDGE_LOOP('',(#185));
#381=EDGE_LOOP('',(#186));
#382=EDGE_LOOP('',(#187));
#383=EDGE_LOOP('',(#188,#189,#190,#191));
#384=EDGE_LOOP('',(#192,#193,#194,#195));
#385=EDGE_LOOP('',(#196,#197,#198,#199,#200,#201,#202,#203,#204,#205,#206,
#207));
#386=EDGE_LOOP('',(#208,#209,#210,#211));
#387=EDGE_LOOP('',(#212,#213,#214,#215));
#388=EDGE_LOOP('',(#216,#217,#218,#219));
#389=EDGE_LOOP('',(#220,#221,#222,#223));
#390=EDGE_LOOP('',(#224,#225,#226,#227));
#391=EDGE_LOOP('',(#228,#229,#230,#231));
#392=FACE_BOUND('',#358,.T.);
#393=FACE_BOUND('',#359,.T.);
#394=FACE_BOUND('',#360,.T.);
#395=FACE_BOUND('',#361,.T.);
#396=FACE_BOUND('',#362,.T.);
#397=FACE_BOUND('',#363,.T.);
#398=FACE_BOUND('',#364,.T.);
#399=FACE_BOUND('',#365,.T.);
#400=FACE_BOUND('',#366,.T.);
#401=FACE_BOUND('',#367,.T.);
#402=FACE_BOUND('',#368,.T.);
#403=FACE_BOUND('',#369,.T.);
#404=FACE_BOUND('',#370,.T.);
#405=FACE_BOUND('',#371,.T.);
#406=FACE_BOUND('',#372,.T.);
#407=FACE_BOUND('',#373,.T.);
#408=FACE_BOUND('',#374,.T.);
#409=FACE_BOUND('',#375,.T.);
#410=FACE_BOUND('',#376,.T.);
#411=FACE_BOUND('',#377,.T.);
#412=FACE_BOUND('',#378,.T.);
#413=FACE_BOUND('',#379,.T.);
#414=FACE_BOUND('',#380,.T.);
#415=FACE_BOUND('',#381,.T.);
#416=FACE_BOUND('',#382,.T.);
#417=FACE_BOUND('',#383,.T.);
#418=FACE_BOUND('',#384,.T.);
#419=FACE_BOUND('',#385,.T.);
#420=FACE_BOUND('',#386,.T.);
#421=FACE_BOUND('',#387,.T.);
#422=FACE_BOUND('',#388,.T.);
#423=FACE_BOUND('',#389,.T.);
#424=FACE_BOUND('',#390,.T.);
#425=FACE_BOUND('',#391,.T.);
#426=SPHERICAL_SURFACE('',#467,3.2);
#427=ADVANCED_FACE('',(#392,#393),#426,.T.);
#428=ADVANCED_FACE('',(#394),#97,.T.);
#429=ADVANCED_FACE('',(#395),#98,.T.);
#430=ADVANCED_FACE('',(#396),#99,.T.);
#431=ADVANCED_FACE('',(#397),#100,.T.);
#432=ADVANCED_FACE('',(#398,#399),#101,.T.);
#433=ADVANCED_FACE('',(#400,#401),#29,.T.);
#434=ADVANCED_FACE('',(#402,#403),#30,.T.);
#435=ADVANCED_FACE('',(#404,#405),#27,.T.);
#436=ADVANCED_FACE('',(#406),#31,.T.);
#437=ADVANCED_FACE('',(#407),#32,.T.);
#438=ADVANCED_FACE('',(#408),#33,.T.);
#439=ADVANCED_FACE('',(#409),#34,.T.);
#440=ADVANCED_FACE('',(#410),#35,.T.);
#441=ADVANCED_FACE('',(#411),#36,.T.);
#442=ADVANCED_FACE('',(#412,#413),#28,.T.);
#443=ADVANCED_FACE('',(#414),#102,.F.);
#444=ADVANCED_FACE('',(#415,#416),#20,.F.);
#445=ADVANCED_FACE('',(#417),#103,.T.);
#446=ADVANCED_FACE('',(#418),#104,.T.);
#447=ADVANCED_FACE('',(#419),#105,.F.);
#448=ADVANCED_FACE('',(#420),#106,.T.);
#449=ADVANCED_FACE('',(#421),#107,.T.);
#450=ADVANCED_FACE('',(#422),#108,.T.);
#451=ADVANCED_FACE('',(#423),#109,.T.);
#452=ADVANCED_FACE('',(#424),#110,.T.);
#453=ADVANCED_FACE('',(#425),#111,.T.);
#454=CLOSED_SHELL('',(#427,#428,#429,#430,#431,#432,#433,#434,#435,#436,
#437,#438,#439,#440,#441,#442,#443,#444,#445,#446,#447,#448,#449,#450,#451,
#452,#453));
#455=STYLED_ITEM('',(#456),#463);
#456=PRESENTATION_STYLE_ASSIGNMENT((#457));
#457=SURFACE_STYLE_USAGE(.BOTH.,#458);
#458=SURFACE_SIDE_STYLE('',(#459));
#459=SURFACE_STYLE_FILL_AREA(#460);
#460=FILL_AREA_STYLE('',(#461));
#461=FILL_AREA_STYLE_COLOUR('',#462);
#462=COLOUR_RGB('',0.506983280181885,0.531564235687256,0.550000011920929);
#463=MANIFOLD_SOLID_BREP('',#454);
#464=SHAPE_DEFINITION_REPRESENTATION(#818,#465);
#465=SHAPE_REPRESENTATION('\X2\53415B5776D8593481EA653B95017D2787BA9489\X0\',
(#466),#813);
#466=AXIS2_PLACEMENT_3D('',#652,#518,#519);
#467=AXIS2_PLACEMENT_3D('',#653,#520,#521);
#468=AXIS2_PLACEMENT_3D('',#654,#522,#523);
#469=AXIS2_PLACEMENT_3D('',#656,#524,#525);
#470=AXIS2_PLACEMENT_3D('',#659,#526,#527);
#471=AXIS2_PLACEMENT_3D('',#661,#528,#529);
#472=AXIS2_PLACEMENT_3D('',#663,#530,#531);
#473=AXIS2_PLACEMENT_3D('',#665,#532,#533);
#474=AXIS2_PLACEMENT_3D('',#667,#534,#535);
#475=AXIS2_PLACEMENT_3D('',#669,#536,#537);
#476=AXIS2_PLACEMENT_3D('',#671,#538,#539);
#477=AXIS2_PLACEMENT_3D('',#673,#540,#541);
#478=AXIS2_PLACEMENT_3D('',#675,#542,#543);
#479=AXIS2_PLACEMENT_3D('',#677,#544,#545);
#480=AXIS2_PLACEMENT_3D('',#679,#546,#547);
#481=AXIS2_PLACEMENT_3D('',#680,#548,#549);
#482=AXIS2_PLACEMENT_3D('',#686,#553,#554);
#483=AXIS2_PLACEMENT_3D('',#692,#558,#559);
#484=AXIS2_PLACEMENT_3D('',#698,#563,#564);
#485=AXIS2_PLACEMENT_3D('',#704,#568,#569);
#486=AXIS2_PLACEMENT_3D('',#705,#570,#571);
#487=AXIS2_PLACEMENT_3D('',#707,#572,#573);
#488=AXIS2_PLACEMENT_3D('',#709,#574,#575);
#489=AXIS2_PLACEMENT_3D('',#710,#576,#577);
#490=AXIS2_PLACEMENT_3D('',#712,#578,#579);
#491=AXIS2_PLACEMENT_3D('',#714,#580,#581);
#492=AXIS2_PLACEMENT_3D('',#715,#582,#583);
#493=AXIS2_PLACEMENT_3D('',#716,#584,#585);
#494=AXIS2_PLACEMENT_3D('',#725,#586,#587);
#495=AXIS2_PLACEMENT_3D('',#733,#588,#589);
#496=AXIS2_PLACEMENT_3D('',#740,#590,#591);
#497=AXIS2_PLACEMENT_3D('',#752,#594,#595);
#498=AXIS2_PLACEMENT_3D('',#764,#598,#599);
#499=AXIS2_PLACEMENT_3D('',#765,#600,#601);
#500=AXIS2_PLACEMENT_3D('',#766,#602,#603);
#501=AXIS2_PLACEMENT_3D('',#778,#606,#607);
#502=AXIS2_PLACEMENT_3D('',#779,#608,#609);
#503=AXIS2_PLACEMENT_3D('',#780,#610,#611);
#504=AXIS2_PLACEMENT_3D('',#781,#612,#613);
#505=AXIS2_PLACEMENT_3D('',#782,#614,#615);
#506=AXIS2_PLACEMENT_3D('',#783,#616,#617);
#507=AXIS2_PLACEMENT_3D('',#785,#618,#619);
#508=AXIS2_PLACEMENT_3D('',#786,#620,#621);
#509=AXIS2_PLACEMENT_3D('',#787,#622,#623);
#510=AXIS2_PLACEMENT_3D('',#789,#625,#626);
#511=AXIS2_PLACEMENT_3D('',#791,#628,#629);
#512=AXIS2_PLACEMENT_3D('',#802,#636,#637);
#513=AXIS2_PLACEMENT_3D('',#804,#639,#640);
#514=AXIS2_PLACEMENT_3D('',#806,#642,#643);
#515=AXIS2_PLACEMENT_3D('',#807,#644,#645);
#516=AXIS2_PLACEMENT_3D('',#809,#647,#648);
#517=AXIS2_PLACEMENT_3D('',#811,#650,#651);
#518=DIRECTION('',(0.,0.,1.));
#519=DIRECTION('',(1.,0.,0.));
#520=DIRECTION('',(-1.,0.,0.));
#521=DIRECTION('',(0.,0.,1.));
#522=DIRECTION('',(-1.,0.,0.));
#523=DIRECTION('',(0.,0.,1.));
#524=DIRECTION('',(0.,-1.,1.42658180590198E-17));
#525=DIRECTION('',(0.,-1.42658180590198E-17,-1.));
#526=DIRECTION('',(0.,-1.42658180590198E-17,1.));
#527=DIRECTION('',(0.,-1.,-1.42658180590198E-17));
#528=DIRECTION('',(0.,-1.,0.));
#529=DIRECTION('',(0.,0.,-1.));
#530=DIRECTION('',(0.,1.14126544472158E-16,-1.));
#531=DIRECTION('',(0.,1.,1.14126544472158E-16));
#532=DIRECTION('',(0.,-1.,1.42658180590198E-17));
#533=DIRECTION('',(0.,-1.42658180590198E-17,-1.));
#534=DIRECTION('',(0.,0.,-1.));
#535=DIRECTION('',(-1.,0.,0.));
#536=DIRECTION('',(0.,1.,1.28392362531178E-16));
#537=DIRECTION('',(0.,-1.28392362531178E-16,1.));
#538=DIRECTION('',(0.,1.14126544472158E-16,-1.));
#539=DIRECTION('',(0.,1.,1.14126544472158E-16));
#540=DIRECTION('',(0.,1.,0.));
#541=DIRECTION('',(0.,0.,1.));
#542=DIRECTION('',(0.,-1.42658180590198E-17,1.));
#543=DIRECTION('',(0.,-1.,-1.42658180590198E-17));
#544=DIRECTION('',(0.,1.,1.28392362531178E-16));
#545=DIRECTION('',(0.,-1.28392362531178E-16,1.));
#546=DIRECTION('',(0.,0.,1.));
#547=DIRECTION('',(1.,0.,0.));
#548=DIRECTION('',(0.,1.,1.28392362531178E-16));
#549=DIRECTION('',(0.,-1.28392362531178E-16,1.));
#550=DIRECTION('',(1.,0.,0.));
#551=DIRECTION('',(7.86150514689734E-33,1.28392362531178E-16,-1.));
#552=DIRECTION('',(-1.,0.,0.));
#553=DIRECTION('',(0.,1.,1.28392362531178E-16));
#554=DIRECTION('',(0.,-1.28392362531178E-16,1.));
#555=DIRECTION('',(7.86150514689734E-33,1.28392362531178E-16,-1.));
#556=DIRECTION('',(-1.,0.,0.));
#557=DIRECTION('',(-1.,0.,0.));
#558=DIRECTION('',(0.,-1.,1.42658180590198E-17));
#559=DIRECTION('',(0.,-1.42658180590198E-17,-1.));
#560=DIRECTION('',(8.73500571877483E-34,1.42658180590198E-17,1.));
#561=DIRECTION('',(-1.,0.,0.));
#562=DIRECTION('',(-1.,0.,0.));
#563=DIRECTION('',(0.,-1.,1.42658180590198E-17));
#564=DIRECTION('',(0.,-1.42658180590198E-17,-1.));
#565=DIRECTION('',(1.,0.,0.));
#566=DIRECTION('',(8.73500571877483E-34,1.42658180590198E-17,1.));
#567=DIRECTION('',(-1.,0.,0.));
#568=DIRECTION('',(1.,0.,0.));
#569=DIRECTION('',(0.,0.,-1.));
#570=DIRECTION('',(1.,0.,0.));
#571=DIRECTION('',(0.,0.,-1.));
#572=DIRECTION('',(-1.,0.,0.));
#573=DIRECTION('',(0.,0.,1.));
#574=DIRECTION('',(-1.,0.,0.));
#575=DIRECTION('',(0.,0.,1.));
#576=DIRECTION('',(1.,0.,0.));
#577=DIRECTION('',(0.,0.,-1.));
#578=DIRECTION('',(-1.,0.,0.));
#579=DIRECTION('',(0.,0.,1.));
#580=DIRECTION('',(-1.,0.,0.));
#581=DIRECTION('',(0.,0.,1.));
#582=DIRECTION('',(1.,0.,0.));
#583=DIRECTION('',(0.,0.,-1.));
#584=DIRECTION('',(-1.,0.,0.));
#585=DIRECTION('',(0.,0.,1.));
#586=DIRECTION('',(-1.,0.,0.));
#587=DIRECTION('',(0.,0.,1.));
#588=DIRECTION('',(-1.,0.,0.));
#589=DIRECTION('',(0.,0.,1.));
#590=DIRECTION('',(-1.,0.,0.));
#591=DIRECTION('',(0.,0.,1.));
#592=DIRECTION('',(-1.,0.,0.));
#593=DIRECTION('',(-1.,0.,0.));
#594=DIRECTION('',(-1.,0.,0.));
#595=DIRECTION('',(0.,0.,1.));
#596=DIRECTION('',(-1.,0.,0.));
#597=DIRECTION('',(-1.,0.,0.));
#598=DIRECTION('',(-1.,0.,0.));
#599=DIRECTION('',(0.,0.,1.));
#600=DIRECTION('',(-1.,0.,0.));
#601=DIRECTION('',(0.,0.,1.));
#602=DIRECTION('',(-1.,0.,0.));
#603=DIRECTION('',(0.,0.,1.));
#604=DIRECTION('',(-1.,0.,0.));
#605=DIRECTION('',(-1.,0.,0.));
#606=DIRECTION('',(-1.,0.,0.));
#607=DIRECTION('',(0.,0.,1.));
#608=DIRECTION('',(-1.,0.,0.));
#609=DIRECTION('',(0.,0.,1.));
#610=DIRECTION('',(-1.,0.,0.));
#611=DIRECTION('',(0.,0.,1.));
#612=DIRECTION('',(-1.,0.,0.));
#613=DIRECTION('',(0.,0.,1.));
#614=DIRECTION('',(-1.,0.,0.));
#615=DIRECTION('',(0.,0.,1.));
#616=DIRECTION('',(-1.,0.,0.));
#617=DIRECTION('',(0.,0.,1.));
#618=DIRECTION('',(-1.,6.12303176911189E-17,0.));
#619=DIRECTION('',(-6.12303176911189E-17,-1.,0.));
#620=DIRECTION('',(1.,0.,0.));
#621=DIRECTION('',(0.,0.,-1.));
#622=DIRECTION('',(0.,0.,-1.));
#623=DIRECTION('',(-1.,0.,0.));
#624=DIRECTION('',(-6.12303176911189E-17,-1.,0.));
#625=DIRECTION('',(0.,0.,1.));
#626=DIRECTION('',(1.,0.,0.));
#627=DIRECTION('',(6.12303176911189E-17,1.,0.));
#628=DIRECTION('',(1.,-6.12303176911189E-17,0.));
#629=DIRECTION('',(6.12303176911189E-17,1.,0.));
#630=DIRECTION('',(-6.12303176911189E-17,-1.,-1.14126544472158E-16));
#631=DIRECTION('',(0.,0.,1.));
#632=DIRECTION('',(6.12303176911189E-17,1.,1.42658180590198E-17));
#633=DIRECTION('',(6.12303176911189E-17,1.,1.42658180590198E-17));
#634=DIRECTION('',(0.,0.,-1.));
#635=DIRECTION('',(-6.12303176911189E-17,-1.,-1.14126544472158E-16));
#636=DIRECTION('',(0.,1.14126544472158E-16,-1.));
#637=DIRECTION('',(0.,1.,1.14126544472158E-16));
#638=DIRECTION('',(-1.,0.,0.));
#639=DIRECTION('',(0.,-1.42658180590198E-17,1.));
#640=DIRECTION('',(0.,-1.,-1.42658180590198E-17));
#641=DIRECTION('',(-1.,0.,0.));
#642=DIRECTION('',(0.,-1.,0.));
#643=DIRECTION('',(0.,0.,-1.));
#644=DIRECTION('',(0.,-1.42658180590198E-17,1.));
#645=DIRECTION('',(0.,-1.,-1.42658180590198E-17));
#646=DIRECTION('',(-1.,0.,0.));
#647=DIRECTION('',(0.,1.14126544472158E-16,-1.));
#648=DIRECTION('',(0.,1.,1.14126544472158E-16));
#649=DIRECTION('',(-1.,0.,0.));
#650=DIRECTION('',(0.,1.,0.));
#651=DIRECTION('',(0.,0.,1.));
#652=CARTESIAN_POINT('',(0.,0.,0.));
#653=CARTESIAN_POINT('',(3.19117435280494,0.,0.));
#654=CARTESIAN_POINT('',(0.693175153445576,0.,0.));
#655=CARTESIAN_POINT('',(0.693175153445576,0.,2.));
#656=CARTESIAN_POINT('',(3.19117435280494,0.2375,-3.3881317890172E-18));
#657=CARTESIAN_POINT('',(0.144685595235002,0.2375,-0.95));
#658=CARTESIAN_POINT('',(0.00885012356618671,0.2375,-0.2375));
#659=CARTESIAN_POINT('',(3.19117435280494,3.3881317890172E-18,-0.2375));
#660=CARTESIAN_POINT('',(0.144685595235002,0.95,-0.2375));
#661=CARTESIAN_POINT('',(3.19117435280494,0.95,0.));
#662=CARTESIAN_POINT('',(0.144685595235002,0.95,0.2375));
#663=CARTESIAN_POINT('',(3.19117435280494,-2.71050543121376E-17,0.2375));
#664=CARTESIAN_POINT('',(0.00885012356618671,0.2375,0.2375));
#665=CARTESIAN_POINT('',(3.19117435280494,0.2375,-3.3881317890172E-18));
#666=CARTESIAN_POINT('',(0.144685595235002,0.2375,0.95));
#667=CARTESIAN_POINT('',(3.19117435280494,0.,0.95));
#668=CARTESIAN_POINT('',(0.144685595235002,-0.2375,0.95));
#669=CARTESIAN_POINT('',(3.19117435280494,-0.2375,-3.04931861011548E-17));
#670=CARTESIAN_POINT('',(0.00885012356618671,-0.2375,0.2375));
#671=CARTESIAN_POINT('',(3.19117435280494,-2.71050543121376E-17,0.2375));
#672=CARTESIAN_POINT('',(0.144685595235002,-0.95,0.2375));
#673=CARTESIAN_POINT('',(3.19117435280494,-0.95,0.));
#674=CARTESIAN_POINT('',(0.144685595235002,-0.95,-0.2375));
#675=CARTESIAN_POINT('',(3.19117435280494,3.3881317890172E-18,-0.2375));
#676=CARTESIAN_POINT('',(0.00885012356618671,-0.2375,-0.2375));
#677=CARTESIAN_POINT('',(3.19117435280494,-0.2375,-3.04931861011548E-17));
#678=CARTESIAN_POINT('',(0.144685595235002,-0.2375,-0.95));
#679=CARTESIAN_POINT('',(3.19117435280494,0.,-0.95));
#680=CARTESIAN_POINT('',(0.9,-0.2375,0.95));
#681=CARTESIAN_POINT('',(0.9,-0.2375,-0.2375));
#682=CARTESIAN_POINT('',(0.9,-0.2375,-0.2375));
#683=CARTESIAN_POINT('',(0.9,-0.2375,0.95));
#684=CARTESIAN_POINT('',(0.9,-0.2375,-0.95));
#685=CARTESIAN_POINT('',(0.9,-0.2375,-0.95));
#686=CARTESIAN_POINT('',(0.9,-0.2375,0.95));
#687=CARTESIAN_POINT('',(0.9,-0.2375,0.95));
#688=CARTESIAN_POINT('',(0.9,-0.2375,0.95));
#689=CARTESIAN_POINT('',(0.9,-0.2375,0.2375));
#690=CARTESIAN_POINT('',(0.9,-0.2375,0.2375));
#691=CARTESIAN_POINT('',(0.9,-0.2375,0.95));
#692=CARTESIAN_POINT('',(0.9,0.2375,-0.95));
#693=CARTESIAN_POINT('',(0.9,0.2375,-0.95));
#694=CARTESIAN_POINT('',(0.9,0.2375,-0.95));
#695=CARTESIAN_POINT('',(0.9,0.2375,-0.2375));
#696=CARTESIAN_POINT('',(0.9,0.2375,-0.2375));
#697=CARTESIAN_POINT('',(0.9,0.2375,-0.95));
#698=CARTESIAN_POINT('',(0.9,0.2375,-0.95));
#699=CARTESIAN_POINT('',(0.9,0.2375,0.2375));
#700=CARTESIAN_POINT('',(0.9,0.2375,0.2375));
#701=CARTESIAN_POINT('',(0.9,0.2375,-0.95));
#702=CARTESIAN_POINT('',(0.9,0.2375,0.95));
#703=CARTESIAN_POINT('',(0.9,0.2375,0.95));
#704=CARTESIAN_POINT('',(1.6,0.,2.));
#705=CARTESIAN_POINT('',(1.6,0.,0.));
#706=CARTESIAN_POINT('',(1.6,0.,-1.09999999999999));
#707=CARTESIAN_POINT('',(1.6,0.,0.));
#708=CARTESIAN_POINT('',(1.6,0.,2.));
#709=CARTESIAN_POINT('',(0.,0.,0.));
#710=CARTESIAN_POINT('',(1.7,0.,0.));
#711=CARTESIAN_POINT('',(1.7,0.,-0.999999999999993));
#712=CARTESIAN_POINT('',(2.4,0.,0.));
#713=CARTESIAN_POINT('',(2.4,0.,0.999999999999993));
#714=CARTESIAN_POINT('',(0.,0.,0.));
#715=CARTESIAN_POINT('',(2.4,0.,0.));
#716=CARTESIAN_POINT('',(2.6,0.,0.));
#717=CARTESIAN_POINT('',(2.6,-0.336464758633276,1.25570357417579));
#718=CARTESIAN_POINT('',(2.6,0.336464758633276,1.25570357417579));
#719=CARTESIAN_POINT('',(2.6,1.25570357417579,-0.336464758633278));
#720=CARTESIAN_POINT('',(2.49927056699547,1.1774049551854,-0.0448962180286994));
#721=CARTESIAN_POINT('',(2.35411991660699,0.937871595705867,0.541041289076322));
#722=CARTESIAN_POINT('',(2.4991563340053,0.550063170777304,1.04186848411291));
#723=CARTESIAN_POINT('',(2.6,0.336464758633277,1.25570357417579));
#724=CARTESIAN_POINT('',(2.6,1.25570357417579,-0.336464758633278));
#725=CARTESIAN_POINT('',(2.6,0.,0.));
#726=CARTESIAN_POINT('',(2.6,0.919238815542513,-0.919238815542511));
#727=CARTESIAN_POINT('',(2.6,-0.919238815542512,-0.919238815542513));
#728=CARTESIAN_POINT('',(2.49927060321391,-0.627583847807386,-0.997214464680821));
#729=CARTESIAN_POINT('',(2.35412001301065,-0.000380596558655956,-1.08274119729334));
#730=CARTESIAN_POINT('',(2.4991561051488,0.627252326617429,-0.997303098795955));
#731=CARTESIAN_POINT('',(2.6,0.919238815542513,-0.919238815542511));
#732=CARTESIAN_POINT('',(2.6,-0.919238815542512,-0.919238815542512));
#733=CARTESIAN_POINT('',(2.6,0.,0.));
#734=CARTESIAN_POINT('',(2.6,-1.25570357417579,-0.33646475863328));
#735=CARTESIAN_POINT('',(2.6,-0.336464758633275,1.25570357417579));
#736=CARTESIAN_POINT('',(2.49927094655702,-0.549820408291253,1.04211151559216));
#737=CARTESIAN_POINT('',(2.35411985614162,-0.937490901449521,0.541700764553226));
#738=CARTESIAN_POINT('',(2.49915607582057,-1.17731595934164,-0.0445648151429432));
#739=CARTESIAN_POINT('',(2.6,-1.25570357417579,-0.33646475863328));
#740=CARTESIAN_POINT('',(7.6,-2.27682456221956E-15,2.51902133426895));
#741=CARTESIAN_POINT('',(7.6,-0.919238815542512,-0.919238815542512));
#742=CARTESIAN_POINT('',(7.,-0.919238815542512,-0.919238815542512));
#743=CARTESIAN_POINT('',(7.6,0.919238815542513,-0.919238815542511));
#744=CARTESIAN_POINT('',(7.,0.919238815542513,-0.919238815542511));
#745=CARTESIAN_POINT('',(7.,0.919238815542512,-0.919238815542512));
#746=CARTESIAN_POINT('',(7.12905558569871,0.794681655852155,-0.952539895435312));
#747=CARTESIAN_POINT('',(7.37370806769774,0.53372367311771,-1.01028179672775));
#748=CARTESIAN_POINT('',(7.59292759194559,1.66786320914157E-5,-1.05481055683851));
#749=CARTESIAN_POINT('',(7.37458133552431,-0.532369514646705,-1.0104759286468));
#750=CARTESIAN_POINT('',(7.12911794031313,-0.794621474701342,-0.952555985215429));
#751=CARTESIAN_POINT('',(7.,-0.919238815542512,-0.919238815542513));
#752=CARTESIAN_POINT('',(7.6,-2.18153646815187,-1.25951066713447));
#753=CARTESIAN_POINT('',(7.6,1.25570357417579,-0.336464758633277));
#754=CARTESIAN_POINT('',(7.,1.25570357417579,-0.336464758633277));
#755=CARTESIAN_POINT('',(7.6,0.336464758633276,1.25570357417579));
#756=CARTESIAN_POINT('',(7.,0.336464758633278,1.25570357417579));
#757=CARTESIAN_POINT('',(7.,0.336464758633278,1.25570357417579));
#758=CARTESIAN_POINT('',(7.12905561750796,0.427582942097625,1.16448442712367));
#759=CARTESIAN_POINT('',(7.3737079674882,0.608067788271872,0.967359243917737));
#760=CARTESIAN_POINT('',(7.59292761821932,0.913484364782779,0.527419794000889));
#761=CARTESIAN_POINT('',(7.37458133050644,1.14128258930041,0.0441924243919658));
#762=CARTESIAN_POINT('',(7.12911794398479,1.2222484181228,-0.211884387333677));
#763=CARTESIAN_POINT('',(7.,1.25570357417579,-0.336464758633277));
#764=CARTESIAN_POINT('',(7.6,0.,0.));
#765=CARTESIAN_POINT('',(7.,0.,0.));
#766=CARTESIAN_POINT('',(7.6,2.18153646815185,-1.25951066713446));
#767=CARTESIAN_POINT('',(7.6,-0.336464758633275,1.25570357417579));
#768=CARTESIAN_POINT('',(7.,-0.336464758633276,1.25570357417579));
#769=CARTESIAN_POINT('',(7.6,-1.25570357417579,-0.336464758633278));
#770=CARTESIAN_POINT('',(7.,-1.25570357417579,-0.33646475863328));
#771=CARTESIAN_POINT('',(7.,-1.25570357417579,-0.33646475863328));
#772=CARTESIAN_POINT('',(7.12905558544264,-1.22226457555758,-0.211944554418866));
#773=CARTESIAN_POINT('',(7.3737080685045,-1.14179153721263,0.0429226397198074));
#774=CARTESIAN_POINT('',(7.59292759173407,-0.913501077358035,0.527390834826999));
#775=CARTESIAN_POINT('',(7.37458133556469,-0.608913066877692,0.96628348808849));
#776=CARTESIAN_POINT('',(7.12911794028357,-0.427626944351931,1.16444037611262));
#777=CARTESIAN_POINT('',(7.,-0.336464758633274,1.25570357417579));
#778=CARTESIAN_POINT('',(7.6,0.,0.));
#779=CARTESIAN_POINT('',(7.,0.,0.));
#780=CARTESIAN_POINT('',(7.6,0.,0.));
#781=CARTESIAN_POINT('',(7.,0.,0.));
#782=CARTESIAN_POINT('',(7.,0.,0.));
#783=CARTESIAN_POINT('',(7.6,0.,0.));
#784=CARTESIAN_POINT('',(7.6,0.,1.));
#785=CARTESIAN_POINT('',(7.6,-1.13841228110978E-15,1.25951066713447));
#786=CARTESIAN_POINT('',(1.7,0.,0.));
#787=CARTESIAN_POINT('',(0.9,0.2375,0.95));
#788=CARTESIAN_POINT('',(0.9,0.2375,0.95));
#789=CARTESIAN_POINT('',(0.9,-0.2375,-0.95));
#790=CARTESIAN_POINT('',(0.9,-0.2375,-0.95));
#791=CARTESIAN_POINT('',(0.9,0.,0.));
#792=CARTESIAN_POINT('',(0.9,0.95,0.2375));
#793=CARTESIAN_POINT('',(0.9,0.95,0.2375));
#794=CARTESIAN_POINT('',(0.9,0.95,-0.2375));
#795=CARTESIAN_POINT('',(0.9,0.95,-0.2375));
#796=CARTESIAN_POINT('',(0.9,-0.95,-0.2375));
#797=CARTESIAN_POINT('',(0.9,-0.95,-0.2375));
#798=CARTESIAN_POINT('',(0.9,-0.95,-0.2375));
#799=CARTESIAN_POINT('',(0.9,-0.95,0.2375));
#800=CARTESIAN_POINT('',(0.9,-0.95,0.2375));
#801=CARTESIAN_POINT('',(0.9,0.95,0.2375));
#802=CARTESIAN_POINT('',(0.9,0.95,0.2375));
#803=CARTESIAN_POINT('',(0.9,0.95,0.2375));
#804=CARTESIAN_POINT('',(0.9,-0.95,-0.2375));
#805=CARTESIAN_POINT('',(0.9,0.95,-0.2375));
#806=CARTESIAN_POINT('',(0.9,0.95,-0.2375));
#807=CARTESIAN_POINT('',(0.9,-0.95,-0.2375));
#808=CARTESIAN_POINT('',(0.9,-0.95,-0.2375));
#809=CARTESIAN_POINT('',(0.9,0.95,0.2375));
#810=CARTESIAN_POINT('',(0.9,-0.95,0.2375));
#811=CARTESIAN_POINT('',(0.9,-0.95,0.2375));
#812=MECHANICAL_DESIGN_GEOMETRIC_PRESENTATION_REPRESENTATION('',(#455),
#813);
#813=(
GEOMETRIC_REPRESENTATION_CONTEXT(3)
GLOBAL_UNCERTAINTY_ASSIGNED_CONTEXT((#814))
GLOBAL_UNIT_ASSIGNED_CONTEXT((#817,#816,#815))
REPRESENTATION_CONTEXT('\X2\53415B5776D8593481EA653B95017D2787BA9489\X0\',
'TOP_LEVEL_ASSEMBLY_PART')
);
#814=UNCERTAINTY_MEASURE_WITH_UNIT(LENGTH_MEASURE(0.005),#817,
'DISTANCE_ACCURACY_VALUE','Maximum Tolerance applied to model');
#815=(
NAMED_UNIT(*)
SI_UNIT($,.STERADIAN.)
SOLID_ANGLE_UNIT()
);
#816=(
NAMED_UNIT(*)
PLANE_ANGLE_UNIT()
SI_UNIT($,.RADIAN.)
);
#817=(
LENGTH_UNIT()
NAMED_UNIT(*)
SI_UNIT(.MILLI.,.METRE.)
);
#818=PRODUCT_DEFINITION_SHAPE('','',#819);
#819=PRODUCT_DEFINITION('','',#821,#820);
#820=PRODUCT_DEFINITION_CONTEXT('',#827,'design');
#821=PRODUCT_DEFINITION_FORMATION_WITH_SPECIFIED_SOURCE('','',#823,
 .NOT_KNOWN.);
#822=PRODUCT_RELATED_PRODUCT_CATEGORY('','',(#823));
#823=PRODUCT('\X2\53415B5776D8593481EA653B95017D2787BA9489\X0\',
'\X2\53415B5776D8593481EA653B95017D2787BA9489\X0\',
'\X2\53415B5776D8593481EA653B95017D2787BA9489\X0\',(#825));
#824=PRODUCT_CATEGORY('','');
#825=PRODUCT_CONTEXT('',#827,'mechanical');
#826=APPLICATION_PROTOCOL_DEFINITION('international standard',
'automotive_design',2010,#827);
#827=APPLICATION_CONTEXT(
'core data for automotive mechanical design processes');
ENDSEC;
END-ISO-10303-21;
