ISO-10303-21;
HEADER;
/* Generated by software containing HOOPS Exchange Step
 * from HOOPS Exchange, Inc. (www.tiangong.cloud) 
 */

FILE_DESCRIPTION(
/* description */ ('Unknown'),
/* implementation_level */ '2;1');

FILE_NAME(
/* name */ '\X2\53415B5769FD570667F1593487BA9489\X0\',
/* time_stamp */ '2025-11-13T14:16:56+08:00',
/* author */ ('Unknown'),
/* organization */ ('Unknown'),
/* preprocessor_version */ 'ST-DEVELOPER v19.4',
/* originating_system */ 'TianGong',
/* authorisation */ 'Unknown');

FILE_SCHEMA (('AUTOMOTIVE_DESIGN {1 0 10303 214 3 1 1}'));
ENDSEC;

DATA;
#10=PROPERTY_DEFINITION_REPRESENTATION(#14,#12);
#11=PROPERTY_DEFINITION_REPRESENTATION(#15,#13);
#12=REPRESENTATION('',(#16),#826);
#13=REPRESENTATION('',(#17),#826);
#14=PROPERTY_DEFINITION('pmi validation property','',#831);
#15=PROPERTY_DEFINITION('pmi validation property','',#831);
#16=VALUE_REPRESENTATION_ITEM('number of annotations',COUNT_MEASURE(0.));
#17=VALUE_REPRESENTATION_ITEM('number of views',COUNT_MEASURE(0.));
#18=SHAPE_REPRESENTATION_RELATIONSHIP('','',#565,#19);
#19=ADVANCED_BREP_SHAPE_REPRESENTATION('',(#563),#826);
#20=TOROIDAL_SURFACE('',#582,1.55,0.1);
#21=TOROIDAL_SURFACE('',#585,1.81762105344811,0.3);
#22=CONICAL_SURFACE('',#577,2.09252040565334,0.0872664625997169);
#23=CONICAL_SURFACE('',#584,1.45290102603574,0.241460645055979);
#24=LINE('',#729,#56);
#25=LINE('',#734,#57);
#26=LINE('',#736,#58);
#27=LINE('',#738,#59);
#28=LINE('',#742,#60);
#29=LINE('',#744,#61);
#30=LINE('',#746,#62);
#31=LINE('',#750,#63);
#32=LINE('',#752,#64);
#33=LINE('',#754,#65);
#34=LINE('',#758,#66);
#35=LINE('',#760,#67);
#36=LINE('',#777,#68);
#37=LINE('',#779,#69);
#38=LINE('',#781,#70);
#39=LINE('',#783,#71);
#40=LINE('',#785,#72);
#41=LINE('',#787,#73);
#42=LINE('',#789,#74);
#43=LINE('',#791,#75);
#44=LINE('',#793,#76);
#45=LINE('',#795,#77);
#46=LINE('',#797,#78);
#47=LINE('',#799,#79);
#48=LINE('',#801,#80);
#49=LINE('',#803,#81);
#50=LINE('',#805,#82);
#51=LINE('',#807,#83);
#52=LINE('',#809,#84);
#53=LINE('',#811,#85);
#54=LINE('',#813,#86);
#55=LINE('',#815,#87);
#56=VECTOR('',#619,1000.);
#57=VECTOR('',#622,1000.);
#58=VECTOR('',#623,1000.);
#59=VECTOR('',#624,1000.);
#60=VECTOR('',#627,1000.);
#61=VECTOR('',#628,1000.);
#62=VECTOR('',#629,1000.);
#63=VECTOR('',#632,1000.);
#64=VECTOR('',#633,1000.);
#65=VECTOR('',#634,1000.);
#66=VECTOR('',#637,1000.);
#67=VECTOR('',#638,1000.);
#68=VECTOR('',#661,1000.);
#69=VECTOR('',#662,1000.);
#70=VECTOR('',#665,1000.);
#71=VECTOR('',#666,1000.);
#72=VECTOR('',#669,1000.);
#73=VECTOR('',#670,1000.);
#74=VECTOR('',#673,1000.);
#75=VECTOR('',#676,1000.);
#76=VECTOR('',#677,1000.);
#77=VECTOR('',#680,1000.);
#78=VECTOR('',#681,1000.);
#79=VECTOR('',#684,1000.);
#80=VECTOR('',#687,1000.);
#81=VECTOR('',#688,1000.);
#82=VECTOR('',#691,1000.);
#83=VECTOR('',#692,1000.);
#84=VECTOR('',#695,1000.);
#85=VECTOR('',#698,1000.);
#86=VECTOR('',#699,1000.);
#87=VECTOR('',#702,1000.);
#88=PLANE('',#570);
#89=PLANE('',#571);
#90=PLANE('',#580);
#91=PLANE('',#586);
#92=PLANE('',#587);
#93=PLANE('',#588);
#94=PLANE('',#589);
#95=PLANE('',#590);
#96=PLANE('',#591);
#97=PLANE('',#592);
#98=PLANE('',#593);
#99=PLANE('',#594);
#100=PLANE('',#595);
#101=PLANE('',#596);
#102=PLANE('',#597);
#103=PLANE('',#598);
#104=ORIENTED_EDGE('',*,*,#198,.T.);
#105=ORIENTED_EDGE('',*,*,#199,.F.);
#106=ORIENTED_EDGE('',*,*,#198,.F.);
#107=ORIENTED_EDGE('',*,*,#200,.T.);
#108=ORIENTED_EDGE('',*,*,#201,.T.);
#109=ORIENTED_EDGE('',*,*,#202,.T.);
#110=ORIENTED_EDGE('',*,*,#203,.T.);
#111=ORIENTED_EDGE('',*,*,#204,.T.);
#112=ORIENTED_EDGE('',*,*,#205,.T.);
#113=ORIENTED_EDGE('',*,*,#206,.T.);
#114=ORIENTED_EDGE('',*,*,#207,.T.);
#115=ORIENTED_EDGE('',*,*,#208,.T.);
#116=ORIENTED_EDGE('',*,*,#209,.T.);
#117=ORIENTED_EDGE('',*,*,#210,.T.);
#118=ORIENTED_EDGE('',*,*,#211,.T.);
#119=ORIENTED_EDGE('',*,*,#212,.T.);
#120=ORIENTED_EDGE('',*,*,#213,.T.);
#121=ORIENTED_EDGE('',*,*,#214,.T.);
#122=ORIENTED_EDGE('',*,*,#215,.T.);
#123=ORIENTED_EDGE('',*,*,#216,.T.);
#124=ORIENTED_EDGE('',*,*,#217,.T.);
#125=ORIENTED_EDGE('',*,*,#218,.T.);
#126=ORIENTED_EDGE('',*,*,#219,.T.);
#127=ORIENTED_EDGE('',*,*,#218,.F.);
#128=ORIENTED_EDGE('',*,*,#220,.T.);
#129=ORIENTED_EDGE('',*,*,#219,.F.);
#130=ORIENTED_EDGE('',*,*,#199,.T.);
#131=ORIENTED_EDGE('',*,*,#220,.F.);
#132=ORIENTED_EDGE('',*,*,#217,.F.);
#133=ORIENTED_EDGE('',*,*,#216,.F.);
#134=ORIENTED_EDGE('',*,*,#202,.F.);
#135=ORIENTED_EDGE('',*,*,#221,.T.);
#136=ORIENTED_EDGE('',*,*,#222,.F.);
#137=ORIENTED_EDGE('',*,*,#223,.T.);
#138=ORIENTED_EDGE('',*,*,#224,.T.);
#139=ORIENTED_EDGE('',*,*,#200,.F.);
#140=ORIENTED_EDGE('',*,*,#223,.F.);
#141=ORIENTED_EDGE('',*,*,#215,.F.);
#142=ORIENTED_EDGE('',*,*,#225,.T.);
#143=ORIENTED_EDGE('',*,*,#226,.T.);
#144=ORIENTED_EDGE('',*,*,#214,.F.);
#145=ORIENTED_EDGE('',*,*,#227,.T.);
#146=ORIENTED_EDGE('',*,*,#225,.F.);
#147=ORIENTED_EDGE('',*,*,#228,.T.);
#148=ORIENTED_EDGE('',*,*,#229,.T.);
#149=ORIENTED_EDGE('',*,*,#212,.F.);
#150=ORIENTED_EDGE('',*,*,#228,.F.);
#151=ORIENTED_EDGE('',*,*,#211,.F.);
#152=ORIENTED_EDGE('',*,*,#230,.T.);
#153=ORIENTED_EDGE('',*,*,#231,.T.);
#154=ORIENTED_EDGE('',*,*,#210,.F.);
#155=ORIENTED_EDGE('',*,*,#232,.T.);
#156=ORIENTED_EDGE('',*,*,#230,.F.);
#157=ORIENTED_EDGE('',*,*,#233,.T.);
#158=ORIENTED_EDGE('',*,*,#234,.T.);
#159=ORIENTED_EDGE('',*,*,#208,.F.);
#160=ORIENTED_EDGE('',*,*,#233,.F.);
#161=ORIENTED_EDGE('',*,*,#207,.F.);
#162=ORIENTED_EDGE('',*,*,#235,.T.);
#163=ORIENTED_EDGE('',*,*,#236,.T.);
#164=ORIENTED_EDGE('',*,*,#206,.F.);
#165=ORIENTED_EDGE('',*,*,#237,.T.);
#166=ORIENTED_EDGE('',*,*,#235,.F.);
#167=ORIENTED_EDGE('',*,*,#238,.T.);
#168=ORIENTED_EDGE('',*,*,#239,.T.);
#169=ORIENTED_EDGE('',*,*,#204,.F.);
#170=ORIENTED_EDGE('',*,*,#238,.F.);
#171=ORIENTED_EDGE('',*,*,#203,.F.);
#172=ORIENTED_EDGE('',*,*,#222,.T.);
#173=ORIENTED_EDGE('',*,*,#240,.T.);
#174=ORIENTED_EDGE('',*,*,#231,.F.);
#175=ORIENTED_EDGE('',*,*,#241,.T.);
#176=ORIENTED_EDGE('',*,*,#236,.F.);
#177=ORIENTED_EDGE('',*,*,#242,.T.);
#178=ORIENTED_EDGE('',*,*,#240,.F.);
#179=ORIENTED_EDGE('',*,*,#243,.T.);
#180=ORIENTED_EDGE('',*,*,#226,.F.);
#181=ORIENTED_EDGE('',*,*,#244,.T.);
#182=ORIENTED_EDGE('',*,*,#213,.F.);
#183=ORIENTED_EDGE('',*,*,#229,.F.);
#184=ORIENTED_EDGE('',*,*,#244,.F.);
#185=ORIENTED_EDGE('',*,*,#227,.F.);
#186=ORIENTED_EDGE('',*,*,#205,.F.);
#187=ORIENTED_EDGE('',*,*,#239,.F.);
#188=ORIENTED_EDGE('',*,*,#242,.F.);
#189=ORIENTED_EDGE('',*,*,#237,.F.);
#190=ORIENTED_EDGE('',*,*,#209,.F.);
#191=ORIENTED_EDGE('',*,*,#234,.F.);
#192=ORIENTED_EDGE('',*,*,#241,.F.);
#193=ORIENTED_EDGE('',*,*,#232,.F.);
#194=ORIENTED_EDGE('',*,*,#201,.F.);
#195=ORIENTED_EDGE('',*,*,#224,.F.);
#196=ORIENTED_EDGE('',*,*,#243,.F.);
#197=ORIENTED_EDGE('',*,*,#221,.F.);
#198=EDGE_CURVE('',#245,#245,#276,.T.);
#199=EDGE_CURVE('',#246,#246,#277,.T.);
#200=EDGE_CURVE('',#247,#248,#24,.T.);
#201=EDGE_CURVE('',#248,#249,#278,.T.);
#202=EDGE_CURVE('',#249,#250,#25,.T.);
#203=EDGE_CURVE('',#250,#251,#26,.T.);
#204=EDGE_CURVE('',#251,#252,#27,.T.);
#205=EDGE_CURVE('',#252,#253,#279,.T.);
#206=EDGE_CURVE('',#253,#254,#28,.T.);
#207=EDGE_CURVE('',#254,#255,#29,.T.);
#208=EDGE_CURVE('',#255,#256,#30,.T.);
#209=EDGE_CURVE('',#256,#257,#280,.T.);
#210=EDGE_CURVE('',#257,#258,#31,.T.);
#211=EDGE_CURVE('',#258,#259,#32,.T.);
#212=EDGE_CURVE('',#259,#260,#33,.T.);
#213=EDGE_CURVE('',#260,#261,#281,.T.);
#214=EDGE_CURVE('',#261,#262,#34,.T.);
#215=EDGE_CURVE('',#262,#247,#35,.T.);
#216=EDGE_CURVE('',#263,#263,#282,.T.);
#217=EDGE_CURVE('',#264,#264,#283,.F.);
#218=EDGE_CURVE('',#265,#265,#284,.T.);
#219=EDGE_CURVE('',#266,#266,#285,.T.);
#220=EDGE_CURVE('',#267,#267,#286,.T.);
#221=EDGE_CURVE('',#249,#268,#36,.T.);
#222=EDGE_CURVE('',#250,#268,#37,.T.);
#223=EDGE_CURVE('',#247,#269,#38,.T.);
#224=EDGE_CURVE('',#269,#248,#39,.F.);
#225=EDGE_CURVE('',#262,#270,#40,.T.);
#226=EDGE_CURVE('',#270,#269,#41,.T.);
#227=EDGE_CURVE('',#261,#270,#42,.T.);
#228=EDGE_CURVE('',#259,#271,#43,.T.);
#229=EDGE_CURVE('',#271,#260,#44,.F.);
#230=EDGE_CURVE('',#258,#272,#45,.T.);
#231=EDGE_CURVE('',#272,#271,#46,.T.);
#232=EDGE_CURVE('',#257,#272,#47,.T.);
#233=EDGE_CURVE('',#255,#273,#48,.T.);
#234=EDGE_CURVE('',#273,#256,#49,.F.);
#235=EDGE_CURVE('',#254,#274,#50,.T.);
#236=EDGE_CURVE('',#274,#273,#51,.T.);
#237=EDGE_CURVE('',#253,#274,#52,.T.);
#238=EDGE_CURVE('',#251,#275,#53,.T.);
#239=EDGE_CURVE('',#275,#252,#54,.F.);
#240=EDGE_CURVE('',#268,#275,#55,.T.);
#241=EDGE_CURVE('',#272,#273,#287,.T.);
#242=EDGE_CURVE('',#274,#275,#288,.T.);
#243=EDGE_CURVE('',#268,#269,#289,.T.);
#244=EDGE_CURVE('',#270,#271,#290,.T.);
#245=VERTEX_POINT('',#724);
#246=VERTEX_POINT('',#726);
#247=VERTEX_POINT('',#730);
#248=VERTEX_POINT('',#731);
#249=VERTEX_POINT('',#733);
#250=VERTEX_POINT('',#735);
#251=VERTEX_POINT('',#737);
#252=VERTEX_POINT('',#739);
#253=VERTEX_POINT('',#741);
#254=VERTEX_POINT('',#743);
#255=VERTEX_POINT('',#745);
#256=VERTEX_POINT('',#747);
#257=VERTEX_POINT('',#749);
#258=VERTEX_POINT('',#751);
#259=VERTEX_POINT('',#753);
#260=VERTEX_POINT('',#755);
#261=VERTEX_POINT('',#757);
#262=VERTEX_POINT('',#759);
#263=VERTEX_POINT('',#762);
#264=VERTEX_POINT('',#765);
#265=VERTEX_POINT('',#767);
#266=VERTEX_POINT('',#770);
#267=VERTEX_POINT('',#773);
#268=VERTEX_POINT('',#778);
#269=VERTEX_POINT('',#782);
#270=VERTEX_POINT('',#786);
#271=VERTEX_POINT('',#792);
#272=VERTEX_POINT('',#796);
#273=VERTEX_POINT('',#802);
#274=VERTEX_POINT('',#806);
#275=VERTEX_POINT('',#812);
#276=CIRCLE('',#568,1.25);
#277=CIRCLE('',#569,1.25);
#278=CIRCLE('',#572,0.54);
#279=CIRCLE('',#573,0.54);
#280=CIRCLE('',#574,0.54);
#281=CIRCLE('',#575,0.54);
#282=CIRCLE('',#576,1.81762105344811);
#283=CIRCLE('',#578,2.11647946287563);
#284=CIRCLE('',#579,2.25);
#285=CIRCLE('',#581,1.55);
#286=CIRCLE('',#583,1.45290102603574);
#287=CIRCLE('',#599,0.54);
#288=CIRCLE('',#600,0.54);
#289=CIRCLE('',#601,0.54);
#290=CIRCLE('',#602,0.54);
#291=EDGE_LOOP('',(#104));
#292=EDGE_LOOP('',(#105));
#293=EDGE_LOOP('',(#106));
#294=EDGE_LOOP('',(#107,#108,#109,#110,#111,#112,#113,#114,#115,#116,#117,
#118,#119,#120,#121,#122));
#295=EDGE_LOOP('',(#123));
#296=EDGE_LOOP('',(#124));
#297=EDGE_LOOP('',(#125));
#298=EDGE_LOOP('',(#126));
#299=EDGE_LOOP('',(#127));
#300=EDGE_LOOP('',(#128));
#301=EDGE_LOOP('',(#129));
#302=EDGE_LOOP('',(#130));
#303=EDGE_LOOP('',(#131));
#304=EDGE_LOOP('',(#132));
#305=EDGE_LOOP('',(#133));
#306=EDGE_LOOP('',(#134,#135,#136));
#307=EDGE_LOOP('',(#137,#138,#139));
#308=EDGE_LOOP('',(#140,#141,#142,#143));
#309=EDGE_LOOP('',(#144,#145,#146));
#310=EDGE_LOOP('',(#147,#148,#149));
#311=EDGE_LOOP('',(#150,#151,#152,#153));
#312=EDGE_LOOP('',(#154,#155,#156));
#313=EDGE_LOOP('',(#157,#158,#159));
#314=EDGE_LOOP('',(#160,#161,#162,#163));
#315=EDGE_LOOP('',(#164,#165,#166));
#316=EDGE_LOOP('',(#167,#168,#169));
#317=EDGE_LOOP('',(#170,#171,#172,#173));
#318=EDGE_LOOP('',(#174,#175,#176,#177,#178,#179,#180,#181));
#319=EDGE_LOOP('',(#182,#183,#184,#185));
#320=EDGE_LOOP('',(#186,#187,#188,#189));
#321=EDGE_LOOP('',(#190,#191,#192,#193));
#322=EDGE_LOOP('',(#194,#195,#196,#197));
#323=FACE_BOUND('',#291,.T.);
#324=FACE_BOUND('',#292,.T.);
#325=FACE_BOUND('',#293,.T.);
#326=FACE_BOUND('',#294,.T.);
#327=FACE_BOUND('',#295,.T.);
#328=FACE_BOUND('',#296,.T.);
#329=FACE_BOUND('',#297,.T.);
#330=FACE_BOUND('',#298,.T.);
#331=FACE_BOUND('',#299,.T.);
#332=FACE_BOUND('',#300,.T.);
#333=FACE_BOUND('',#301,.T.);
#334=FACE_BOUND('',#302,.T.);
#335=FACE_BOUND('',#303,.T.);
#336=FACE_BOUND('',#304,.T.);
#337=FACE_BOUND('',#305,.T.);
#338=FACE_BOUND('',#306,.T.);
#339=FACE_BOUND('',#307,.T.);
#340=FACE_BOUND('',#308,.T.);
#341=FACE_BOUND('',#309,.T.);
#342=FACE_BOUND('',#310,.T.);
#343=FACE_BOUND('',#311,.T.);
#344=FACE_BOUND('',#312,.T.);
#345=FACE_BOUND('',#313,.T.);
#346=FACE_BOUND('',#314,.T.);
#347=FACE_BOUND('',#315,.T.);
#348=FACE_BOUND('',#316,.T.);
#349=FACE_BOUND('',#317,.T.);
#350=FACE_BOUND('',#318,.T.);
#351=FACE_BOUND('',#319,.T.);
#352=FACE_BOUND('',#320,.T.);
#353=FACE_BOUND('',#321,.T.);
#354=FACE_BOUND('',#322,.T.);
#355=CYLINDRICAL_SURFACE('',#567,1.25);
#356=CYLINDRICAL_SURFACE('',#603,0.54);
#357=CYLINDRICAL_SURFACE('',#604,0.54);
#358=CYLINDRICAL_SURFACE('',#605,0.54);
#359=CYLINDRICAL_SURFACE('',#606,0.54);
#360=STYLED_ITEM('',(#385),#537);
#361=STYLED_ITEM('',(#386),#538);
#362=STYLED_ITEM('',(#387),#539);
#363=STYLED_ITEM('',(#388),#540);
#364=STYLED_ITEM('',(#389),#541);
#365=STYLED_ITEM('',(#390),#542);
#366=STYLED_ITEM('',(#391),#543);
#367=STYLED_ITEM('',(#392),#544);
#368=STYLED_ITEM('',(#393),#545);
#369=STYLED_ITEM('',(#394),#546);
#370=STYLED_ITEM('',(#395),#547);
#371=STYLED_ITEM('',(#396),#548);
#372=STYLED_ITEM('',(#397),#549);
#373=STYLED_ITEM('',(#398),#550);
#374=STYLED_ITEM('',(#399),#551);
#375=STYLED_ITEM('',(#400),#552);
#376=STYLED_ITEM('',(#401),#553);
#377=STYLED_ITEM('',(#402),#554);
#378=STYLED_ITEM('',(#403),#555);
#379=STYLED_ITEM('',(#404),#556);
#380=STYLED_ITEM('',(#405),#557);
#381=STYLED_ITEM('',(#406),#558);
#382=STYLED_ITEM('',(#407),#559);
#383=STYLED_ITEM('',(#408),#560);
#384=STYLED_ITEM('',(#409),#561);
#385=PRESENTATION_STYLE_ASSIGNMENT((#410));
#386=PRESENTATION_STYLE_ASSIGNMENT((#411));
#387=PRESENTATION_STYLE_ASSIGNMENT((#412));
#388=PRESENTATION_STYLE_ASSIGNMENT((#413));
#389=PRESENTATION_STYLE_ASSIGNMENT((#414));
#390=PRESENTATION_STYLE_ASSIGNMENT((#415));
#391=PRESENTATION_STYLE_ASSIGNMENT((#416));
#392=PRESENTATION_STYLE_ASSIGNMENT((#417));
#393=PRESENTATION_STYLE_ASSIGNMENT((#418));
#394=PRESENTATION_STYLE_ASSIGNMENT((#419));
#395=PRESENTATION_STYLE_ASSIGNMENT((#420));
#396=PRESENTATION_STYLE_ASSIGNMENT((#421));
#397=PRESENTATION_STYLE_ASSIGNMENT((#422));
#398=PRESENTATION_STYLE_ASSIGNMENT((#423));
#399=PRESENTATION_STYLE_ASSIGNMENT((#424));
#400=PRESENTATION_STYLE_ASSIGNMENT((#425));
#401=PRESENTATION_STYLE_ASSIGNMENT((#426));
#402=PRESENTATION_STYLE_ASSIGNMENT((#427));
#403=PRESENTATION_STYLE_ASSIGNMENT((#428));
#404=PRESENTATION_STYLE_ASSIGNMENT((#429));
#405=PRESENTATION_STYLE_ASSIGNMENT((#430));
#406=PRESENTATION_STYLE_ASSIGNMENT((#431));
#407=PRESENTATION_STYLE_ASSIGNMENT((#432));
#408=PRESENTATION_STYLE_ASSIGNMENT((#433));
#409=PRESENTATION_STYLE_ASSIGNMENT((#434));
#410=SURFACE_STYLE_USAGE(.BOTH.,#435);
#411=SURFACE_STYLE_USAGE(.BOTH.,#436);
#412=SURFACE_STYLE_USAGE(.BOTH.,#437);
#413=SURFACE_STYLE_USAGE(.BOTH.,#438);
#414=SURFACE_STYLE_USAGE(.BOTH.,#439);
#415=SURFACE_STYLE_USAGE(.BOTH.,#440);
#416=SURFACE_STYLE_USAGE(.BOTH.,#441);
#417=SURFACE_STYLE_USAGE(.BOTH.,#442);
#418=SURFACE_STYLE_USAGE(.BOTH.,#443);
#419=SURFACE_STYLE_USAGE(.BOTH.,#444);
#420=SURFACE_STYLE_USAGE(.BOTH.,#445);
#421=SURFACE_STYLE_USAGE(.BOTH.,#446);
#422=SURFACE_STYLE_USAGE(.BOTH.,#447);
#423=SURFACE_STYLE_USAGE(.BOTH.,#448);
#424=SURFACE_STYLE_USAGE(.BOTH.,#449);
#425=SURFACE_STYLE_USAGE(.BOTH.,#450);
#426=SURFACE_STYLE_USAGE(.BOTH.,#451);
#427=SURFACE_STYLE_USAGE(.BOTH.,#452);
#428=SURFACE_STYLE_USAGE(.BOTH.,#453);
#429=SURFACE_STYLE_USAGE(.BOTH.,#454);
#430=SURFACE_STYLE_USAGE(.BOTH.,#455);
#431=SURFACE_STYLE_USAGE(.BOTH.,#456);
#432=SURFACE_STYLE_USAGE(.BOTH.,#457);
#433=SURFACE_STYLE_USAGE(.BOTH.,#458);
#434=SURFACE_STYLE_USAGE(.BOTH.,#459);
#435=SURFACE_SIDE_STYLE('',(#460));
#436=SURFACE_SIDE_STYLE('',(#461));
#437=SURFACE_SIDE_STYLE('',(#462));
#438=SURFACE_SIDE_STYLE('',(#463));
#439=SURFACE_SIDE_STYLE('',(#464));
#440=SURFACE_SIDE_STYLE('',(#465));
#441=SURFACE_SIDE_STYLE('',(#466));
#442=SURFACE_SIDE_STYLE('',(#467));
#443=SURFACE_SIDE_STYLE('',(#468));
#444=SURFACE_SIDE_STYLE('',(#469));
#445=SURFACE_SIDE_STYLE('',(#470));
#446=SURFACE_SIDE_STYLE('',(#471));
#447=SURFACE_SIDE_STYLE('',(#472));
#448=SURFACE_SIDE_STYLE('',(#473));
#449=SURFACE_SIDE_STYLE('',(#474));
#450=SURFACE_SIDE_STYLE('',(#475));
#451=SURFACE_SIDE_STYLE('',(#476));
#452=SURFACE_SIDE_STYLE('',(#477));
#453=SURFACE_SIDE_STYLE('',(#478));
#454=SURFACE_SIDE_STYLE('',(#479));
#455=SURFACE_SIDE_STYLE('',(#480));
#456=SURFACE_SIDE_STYLE('',(#481));
#457=SURFACE_SIDE_STYLE('',(#482));
#458=SURFACE_SIDE_STYLE('',(#483));
#459=SURFACE_SIDE_STYLE('',(#484));
#460=SURFACE_STYLE_FILL_AREA(#485);
#461=SURFACE_STYLE_FILL_AREA(#486);
#462=SURFACE_STYLE_FILL_AREA(#487);
#463=SURFACE_STYLE_FILL_AREA(#488);
#464=SURFACE_STYLE_FILL_AREA(#489);
#465=SURFACE_STYLE_FILL_AREA(#490);
#466=SURFACE_STYLE_FILL_AREA(#491);
#467=SURFACE_STYLE_FILL_AREA(#492);
#468=SURFACE_STYLE_FILL_AREA(#493);
#469=SURFACE_STYLE_FILL_AREA(#494);
#470=SURFACE_STYLE_FILL_AREA(#495);
#471=SURFACE_STYLE_FILL_AREA(#496);
#472=SURFACE_STYLE_FILL_AREA(#497);
#473=SURFACE_STYLE_FILL_AREA(#498);
#474=SURFACE_STYLE_FILL_AREA(#499);
#475=SURFACE_STYLE_FILL_AREA(#500);
#476=SURFACE_STYLE_FILL_AREA(#501);
#477=SURFACE_STYLE_FILL_AREA(#502);
#478=SURFACE_STYLE_FILL_AREA(#503);
#479=SURFACE_STYLE_FILL_AREA(#504);
#480=SURFACE_STYLE_FILL_AREA(#505);
#481=SURFACE_STYLE_FILL_AREA(#506);
#482=SURFACE_STYLE_FILL_AREA(#507);
#483=SURFACE_STYLE_FILL_AREA(#508);
#484=SURFACE_STYLE_FILL_AREA(#509);
#485=FILL_AREA_STYLE('',(#510));
#486=FILL_AREA_STYLE('',(#511));
#487=FILL_AREA_STYLE('',(#512));
#488=FILL_AREA_STYLE('',(#513));
#489=FILL_AREA_STYLE('',(#514));
#490=FILL_AREA_STYLE('',(#515));
#491=FILL_AREA_STYLE('',(#516));
#492=FILL_AREA_STYLE('',(#517));
#493=FILL_AREA_STYLE('',(#518));
#494=FILL_AREA_STYLE('',(#519));
#495=FILL_AREA_STYLE('',(#520));
#496=FILL_AREA_STYLE('',(#521));
#497=FILL_AREA_STYLE('',(#522));
#498=FILL_AREA_STYLE('',(#523));
#499=FILL_AREA_STYLE('',(#524));
#500=FILL_AREA_STYLE('',(#525));
#501=FILL_AREA_STYLE('',(#526));
#502=FILL_AREA_STYLE('',(#527));
#503=FILL_AREA_STYLE('',(#528));
#504=FILL_AREA_STYLE('',(#529));
#505=FILL_AREA_STYLE('',(#530));
#506=FILL_AREA_STYLE('',(#531));
#507=FILL_AREA_STYLE('',(#532));
#508=FILL_AREA_STYLE('',(#533));
#509=FILL_AREA_STYLE('',(#534));
#510=FILL_AREA_STYLE_COLOUR('',#535);
#511=FILL_AREA_STYLE_COLOUR('',#536);
#512=FILL_AREA_STYLE_COLOUR('',#536);
#513=FILL_AREA_STYLE_COLOUR('',#536);
#514=FILL_AREA_STYLE_COLOUR('',#536);
#515=FILL_AREA_STYLE_COLOUR('',#536);
#516=FILL_AREA_STYLE_COLOUR('',#536);
#517=FILL_AREA_STYLE_COLOUR('',#536);
#518=FILL_AREA_STYLE_COLOUR('',#536);
#519=FILL_AREA_STYLE_COLOUR('',#536);
#520=FILL_AREA_STYLE_COLOUR('',#536);
#521=FILL_AREA_STYLE_COLOUR('',#536);
#522=FILL_AREA_STYLE_COLOUR('',#536);
#523=FILL_AREA_STYLE_COLOUR('',#536);
#524=FILL_AREA_STYLE_COLOUR('',#536);
#525=FILL_AREA_STYLE_COLOUR('',#536);
#526=FILL_AREA_STYLE_COLOUR('',#536);
#527=FILL_AREA_STYLE_COLOUR('',#536);
#528=FILL_AREA_STYLE_COLOUR('',#536);
#529=FILL_AREA_STYLE_COLOUR('',#536);
#530=FILL_AREA_STYLE_COLOUR('',#536);
#531=FILL_AREA_STYLE_COLOUR('',#536);
#532=FILL_AREA_STYLE_COLOUR('',#536);
#533=FILL_AREA_STYLE_COLOUR('',#536);
#534=FILL_AREA_STYLE_COLOUR('',#536);
#535=COLOUR_RGB('',0.1875,0.75,0.581249892711639);
#536=COLOUR_RGB('',0.506983280181885,0.531564235687256,0.550000011920929);
#537=ADVANCED_FACE('',(#323,#324),#355,.T.);
#538=ADVANCED_FACE('',(#325),#88,.T.);
#539=ADVANCED_FACE('',(#326,#327),#89,.T.);
#540=ADVANCED_FACE('',(#328,#329),#22,.T.);
#541=ADVANCED_FACE('',(#330,#331),#90,.T.);
#542=ADVANCED_FACE('',(#332,#333),#20,.F.);
#543=ADVANCED_FACE('',(#334,#335),#23,.T.);
#544=ADVANCED_FACE('',(#336,#337),#21,.T.);
#545=ADVANCED_FACE('',(#338),#91,.F.);
#546=ADVANCED_FACE('',(#339),#92,.F.);
#547=ADVANCED_FACE('',(#340),#93,.F.);
#548=ADVANCED_FACE('',(#341),#94,.F.);
#549=ADVANCED_FACE('',(#342),#95,.F.);
#550=ADVANCED_FACE('',(#343),#96,.F.);
#551=ADVANCED_FACE('',(#344),#97,.F.);
#552=ADVANCED_FACE('',(#345),#98,.F.);
#553=ADVANCED_FACE('',(#346),#99,.F.);
#554=ADVANCED_FACE('',(#347),#100,.F.);
#555=ADVANCED_FACE('',(#348),#101,.F.);
#556=ADVANCED_FACE('',(#349),#102,.F.);
#557=ADVANCED_FACE('',(#350),#103,.F.);
#558=ADVANCED_FACE('',(#351),#356,.T.);
#559=ADVANCED_FACE('',(#352),#357,.T.);
#560=ADVANCED_FACE('',(#353),#358,.T.);
#561=ADVANCED_FACE('',(#354),#359,.T.);
#562=CLOSED_SHELL('',(#537,#538,#539,#540,#541,#542,#543,#544,#545,#546,
#547,#548,#549,#550,#551,#552,#553,#554,#555,#556,#557,#558,#559,#560,#561));
#563=MANIFOLD_SOLID_BREP('',#562);
#564=SHAPE_DEFINITION_REPRESENTATION(#831,#565);
#565=SHAPE_REPRESENTATION('\X2\53415B5769FD570667F1593487BA9489\X0\',(#566),
#826);
#566=AXIS2_PLACEMENT_3D('',#721,#607,#608);
#567=AXIS2_PLACEMENT_3D('',#722,#609,#610);
#568=AXIS2_PLACEMENT_3D('',#723,#611,#612);
#569=AXIS2_PLACEMENT_3D('',#725,#613,#614);
#570=AXIS2_PLACEMENT_3D('',#727,#615,#616);
#571=AXIS2_PLACEMENT_3D('',#728,#617,#618);
#572=AXIS2_PLACEMENT_3D('',#732,#620,#621);
#573=AXIS2_PLACEMENT_3D('',#740,#625,#626);
#574=AXIS2_PLACEMENT_3D('',#748,#630,#631);
#575=AXIS2_PLACEMENT_3D('',#756,#635,#636);
#576=AXIS2_PLACEMENT_3D('',#761,#639,#640);
#577=AXIS2_PLACEMENT_3D('',#763,#641,#642);
#578=AXIS2_PLACEMENT_3D('',#764,#643,#644);
#579=AXIS2_PLACEMENT_3D('',#766,#645,#646);
#580=AXIS2_PLACEMENT_3D('',#768,#647,#648);
#581=AXIS2_PLACEMENT_3D('',#769,#649,#650);
#582=AXIS2_PLACEMENT_3D('',#771,#651,#652);
#583=AXIS2_PLACEMENT_3D('',#772,#653,#654);
#584=AXIS2_PLACEMENT_3D('',#774,#655,#656);
#585=AXIS2_PLACEMENT_3D('',#775,#657,#658);
#586=AXIS2_PLACEMENT_3D('',#776,#659,#660);
#587=AXIS2_PLACEMENT_3D('',#780,#663,#664);
#588=AXIS2_PLACEMENT_3D('',#784,#667,#668);
#589=AXIS2_PLACEMENT_3D('',#788,#671,#672);
#590=AXIS2_PLACEMENT_3D('',#790,#674,#675);
#591=AXIS2_PLACEMENT_3D('',#794,#678,#679);
#592=AXIS2_PLACEMENT_3D('',#798,#682,#683);
#593=AXIS2_PLACEMENT_3D('',#800,#685,#686);
#594=AXIS2_PLACEMENT_3D('',#804,#689,#690);
#595=AXIS2_PLACEMENT_3D('',#808,#693,#694);
#596=AXIS2_PLACEMENT_3D('',#810,#696,#697);
#597=AXIS2_PLACEMENT_3D('',#814,#700,#701);
#598=AXIS2_PLACEMENT_3D('',#816,#703,#704);
#599=AXIS2_PLACEMENT_3D('',#817,#705,#706);
#600=AXIS2_PLACEMENT_3D('',#818,#707,#708);
#601=AXIS2_PLACEMENT_3D('',#819,#709,#710);
#602=AXIS2_PLACEMENT_3D('',#820,#711,#712);
#603=AXIS2_PLACEMENT_3D('',#821,#713,#714);
#604=AXIS2_PLACEMENT_3D('',#822,#715,#716);
#605=AXIS2_PLACEMENT_3D('',#823,#717,#718);
#606=AXIS2_PLACEMENT_3D('',#824,#719,#720);
#607=DIRECTION('',(0.,0.,1.));
#608=DIRECTION('',(1.,0.,0.));
#609=DIRECTION('',(-1.,0.,0.));
#610=DIRECTION('',(0.,0.,1.));
#611=DIRECTION('',(-1.,0.,0.));
#612=DIRECTION('',(0.,0.,1.));
#613=DIRECTION('',(-1.,0.,0.));
#614=DIRECTION('',(0.,0.,1.));
#615=DIRECTION('',(1.,0.,0.));
#616=DIRECTION('',(0.,0.,-1.));
#617=DIRECTION('',(-1.,0.,0.));
#618=DIRECTION('',(0.,0.,1.));
#619=DIRECTION('',(0.,-5.01945450224772E-17,-1.));
#620=DIRECTION('',(-1.,0.,0.));
#621=DIRECTION('',(0.,0.,1.));
#622=DIRECTION('',(0.,-1.,1.00389090044954E-16));
#623=DIRECTION('',(0.,0.,-1.));
#624=DIRECTION('',(0.,1.,-1.00389090044954E-16));
#625=DIRECTION('',(-1.,0.,0.));
#626=DIRECTION('',(0.,0.,1.));
#627=DIRECTION('',(0.,6.52529085292202E-16,-1.));
#628=DIRECTION('',(0.,1.,0.));
#629=DIRECTION('',(0.,0.,1.));
#630=DIRECTION('',(-1.,0.,0.));
#631=DIRECTION('',(0.,0.,1.));
#632=DIRECTION('',(0.,1.,-2.00778180089909E-16));
#633=DIRECTION('',(0.,0.,1.));
#634=DIRECTION('',(0.,-1.,-1.50583635067431E-16));
#635=DIRECTION('',(-1.,0.,0.));
#636=DIRECTION('',(0.,0.,1.));
#637=DIRECTION('',(0.,1.50583635067431E-16,1.));
#638=DIRECTION('',(0.,-1.,0.));
#639=DIRECTION('',(-1.,0.,0.));
#640=DIRECTION('',(0.,0.,1.));
#641=DIRECTION('',(1.,0.,0.));
#642=DIRECTION('',(0.,0.,-1.));
#643=DIRECTION('',(-1.,0.,0.));
#644=DIRECTION('',(0.,0.,1.));
#645=DIRECTION('',(-1.,0.,0.));
#646=DIRECTION('',(0.,0.,1.));
#647=DIRECTION('',(1.,0.,0.));
#648=DIRECTION('',(0.,0.,-1.));
#649=DIRECTION('',(-1.,0.,0.));
#650=DIRECTION('',(0.,0.,1.));
#651=DIRECTION('',(-1.,0.,0.));
#652=DIRECTION('',(0.,0.,1.));
#653=DIRECTION('',(-1.,0.,0.));
#654=DIRECTION('',(0.,0.,1.));
#655=DIRECTION('',(-1.,0.,0.));
#656=DIRECTION('',(0.,0.,1.));
#657=DIRECTION('',(-1.,0.,0.));
#658=DIRECTION('',(0.,0.,1.));
#659=DIRECTION('',(-4.51750905202294E-17,1.00389090044954E-16,1.));
#660=DIRECTION('',(0.,-1.,1.00389090044954E-16));
#661=DIRECTION('',(1.,0.,4.51750905202294E-17));
#662=DIRECTION('',(0.911921505175107,0.410364677328797,-4.11961365436292E-17));
#663=DIRECTION('',(-2.26754311501213E-33,-1.,5.01945450224772E-17));
#664=DIRECTION('',(0.,-5.01945450224772E-17,-1.));
#665=DIRECTION('',(0.911921505175107,-4.11961365436292E-17,-0.410364677328797));
#666=DIRECTION('',(1.,0.,4.51750905202294E-17));
#667=DIRECTION('',(0.410364677328797,0.,0.911921505175107));
#668=DIRECTION('',(0.911921505175107,0.,-0.410364677328797));
#669=DIRECTION('',(0.911921505175107,-4.11961365436292E-17,-0.410364677328797));
#670=DIRECTION('',(0.,-1.,0.));
#671=DIRECTION('',(0.,1.,-1.50583635067431E-16));
#672=DIRECTION('',(0.,1.50583635067431E-16,1.));
#673=DIRECTION('',(1.,0.,0.));
#674=DIRECTION('',(0.,-1.50583635067431E-16,1.));
#675=DIRECTION('',(0.,-1.,-1.50583635067431E-16));
#676=DIRECTION('',(0.911921505175107,-0.410364677328797,-8.23922730872585E-17));
#677=DIRECTION('',(1.,0.,0.));
#678=DIRECTION('',(0.410364677328797,0.911921505175107,0.));
#679=DIRECTION('',(-0.911921505175107,0.410364677328797,0.));
#680=DIRECTION('',(0.911921505175107,-0.410364677328797,8.23922730872585E-17));
#681=DIRECTION('',(0.,0.,1.));
#682=DIRECTION('',(0.,-2.00778180089909E-16,-1.));
#683=DIRECTION('',(0.,1.,-2.00778180089909E-16));
#684=DIRECTION('',(1.,0.,0.));
#685=DIRECTION('',(0.,1.,0.));
#686=DIRECTION('',(0.,0.,1.));
#687=DIRECTION('',(0.911921505175106,-4.11961365436292E-17,0.410364677328798));
#688=DIRECTION('',(1.,0.,0.));
#689=DIRECTION('',(0.410364677328798,0.,-0.911921505175107));
#690=DIRECTION('',(-0.911921505175107,0.,-0.410364677328798));
#691=DIRECTION('',(0.911921505175106,-2.88372955805405E-16,0.410364677328798));
#692=DIRECTION('',(0.,1.,4.01556360179817E-16));
#693=DIRECTION('',(0.,-1.,-6.52529085292202E-16));
#694=DIRECTION('',(0.,6.52529085292202E-16,-1.));
#695=DIRECTION('',(1.,0.,0.));
#696=DIRECTION('',(0.,-1.00389090044954E-16,-1.));
#697=DIRECTION('',(0.,1.,-1.00389090044954E-16));
#698=DIRECTION('',(0.911921505175107,0.410364677328797,-4.11961365436293E-17));
#699=DIRECTION('',(1.,0.,0.));
#700=DIRECTION('',(0.410364677328797,-0.911921505175107,0.));
#701=DIRECTION('',(0.911921505175107,0.410364677328797,0.));
#702=DIRECTION('',(0.,-6.02334540269726E-16,-1.));
#703=DIRECTION('',(1.,0.,0.));
#704=DIRECTION('',(0.,0.,-1.));
#705=DIRECTION('',(1.,0.,0.));
#706=DIRECTION('',(0.,0.,-1.));
#707=DIRECTION('',(1.,0.,0.));
#708=DIRECTION('',(0.,0.,-1.));
#709=DIRECTION('',(1.,0.,0.));
#710=DIRECTION('',(0.,0.,-1.));
#711=DIRECTION('',(1.,0.,0.));
#712=DIRECTION('',(0.,0.,-1.));
#713=DIRECTION('',(1.,0.,0.));
#714=DIRECTION('',(0.,0.,-1.));
#715=DIRECTION('',(1.,0.,0.));
#716=DIRECTION('',(0.,0.,-1.));
#717=DIRECTION('',(1.,0.,0.));
#718=DIRECTION('',(0.,0.,-1.));
#719=DIRECTION('',(1.,0.,4.51750905202294E-17));
#720=DIRECTION('',(4.51750905202294E-17,0.,-1.));
#721=CARTESIAN_POINT('',(0.,0.,0.));
#722=CARTESIAN_POINT('',(3.,0.,0.));
#723=CARTESIAN_POINT('',(3.,0.,0.));
#724=CARTESIAN_POINT('',(3.,0.,1.25));
#725=CARTESIAN_POINT('',(0.9,0.,0.));
#726=CARTESIAN_POINT('',(0.9,0.,1.25));
#727=CARTESIAN_POINT('',(3.,0.,1.25));
#728=CARTESIAN_POINT('',(-1.79999999999999,0.,0.));
#729=CARTESIAN_POINT('',(-1.79999999999999,-0.27,1.35));
#730=CARTESIAN_POINT('',(-1.79999999999999,-0.27,1.35));
#731=CARTESIAN_POINT('',(-1.79999999999999,-0.27,0.809999999999999));
#732=CARTESIAN_POINT('',(-1.79999999999999,-0.81,0.809999999999999));
#733=CARTESIAN_POINT('',(-1.79999999999999,-0.81,0.27));
#734=CARTESIAN_POINT('',(-1.79999999999999,-0.27,0.269999999999999));
#735=CARTESIAN_POINT('',(-1.79999999999999,-1.35,0.27));
#736=CARTESIAN_POINT('',(-1.79999999999999,-1.35,0.27));
#737=CARTESIAN_POINT('',(-1.79999999999999,-1.35,-0.27));
#738=CARTESIAN_POINT('',(-1.79999999999999,-1.35,-0.27));
#739=CARTESIAN_POINT('',(-1.79999999999999,-0.81,-0.27));
#740=CARTESIAN_POINT('',(-1.79999999999999,-0.81,-0.81));
#741=CARTESIAN_POINT('',(-1.79999999999999,-0.27,-0.809999999999999));
#742=CARTESIAN_POINT('',(-1.79999999999999,-0.27,-0.27));
#743=CARTESIAN_POINT('',(-1.79999999999999,-0.27,-1.35));
#744=CARTESIAN_POINT('',(-1.79999999999999,-0.27,-1.35));
#745=CARTESIAN_POINT('',(-1.79999999999999,0.27,-1.35));
#746=CARTESIAN_POINT('',(-1.79999999999999,0.27,-1.35));
#747=CARTESIAN_POINT('',(-1.79999999999999,0.27,-0.809999999999999));
#748=CARTESIAN_POINT('',(-1.79999999999999,0.809999999999999,-0.809999999999999));
#749=CARTESIAN_POINT('',(-1.79999999999999,0.81,-0.269999999999999));
#750=CARTESIAN_POINT('',(-1.79999999999999,0.27,-0.269999999999999));
#751=CARTESIAN_POINT('',(-1.79999999999999,1.35,-0.27));
#752=CARTESIAN_POINT('',(-1.79999999999999,1.35,-0.27));
#753=CARTESIAN_POINT('',(-1.79999999999999,1.35,0.27));
#754=CARTESIAN_POINT('',(-1.79999999999999,1.35,0.27));
#755=CARTESIAN_POINT('',(-1.79999999999999,0.809999999999999,0.27));
#756=CARTESIAN_POINT('',(-1.79999999999999,0.809999999999999,0.809999999999999));
#757=CARTESIAN_POINT('',(-1.79999999999999,0.27,0.809999999999999));
#758=CARTESIAN_POINT('',(-1.79999999999999,0.269999999999999,0.269999999999999));
#759=CARTESIAN_POINT('',(-1.79999999999999,0.27,1.35));
#760=CARTESIAN_POINT('',(-1.79999999999999,0.27,1.35));
#761=CARTESIAN_POINT('',(-1.79999999999999,0.,0.));
#762=CARTESIAN_POINT('',(-1.79999999999999,0.,1.81762105344811));
#763=CARTESIAN_POINT('',(-1.79999999999999,0.,0.));
#764=CARTESIAN_POINT('',(-1.52614672282429,0.,0.));
#765=CARTESIAN_POINT('',(-1.52614672282429,0.,2.11647946287563));
#766=CARTESIAN_POINT('',(0.,0.,0.));
#767=CARTESIAN_POINT('',(0.,0.,2.25));
#768=CARTESIAN_POINT('',(0.,0.,2.25));
#769=CARTESIAN_POINT('',(0.,0.,0.));
#770=CARTESIAN_POINT('',(0.,0.,1.55));
#771=CARTESIAN_POINT('',(0.1,0.,0.));
#772=CARTESIAN_POINT('',(0.0760878847634035,0.,0.));
#773=CARTESIAN_POINT('',(0.0760878847634035,0.,1.45290102603574));
#774=CARTESIAN_POINT('',(0.0760878847634035,0.,0.));
#775=CARTESIAN_POINT('',(-1.49999999999999,0.,0.));
#776=CARTESIAN_POINT('',(-1.21972744404619E-17,2.71050543121376E-17,0.269999999999999));
#777=CARTESIAN_POINT('',(-1.21972744404619E-17,-0.81,0.27));
#778=CARTESIAN_POINT('',(-0.599999999999995,-0.809999999999998,0.27));
#779=CARTESIAN_POINT('',(-1.79999999999999,-1.35,0.27));
#780=CARTESIAN_POINT('',(-6.12236641053275E-34,-0.27,1.35525271560688E-17));
#781=CARTESIAN_POINT('',(-1.79999999999999,-0.27,1.35));
#782=CARTESIAN_POINT('',(-0.599999999999995,-0.27,0.809999999999998));
#783=CARTESIAN_POINT('',(-3.65918233213858E-17,-0.27,0.81));
#784=CARTESIAN_POINT('',(0.202079002079002,0.,0.449064449064451));
#785=CARTESIAN_POINT('',(-1.79999999999999,0.27,1.35));
#786=CARTESIAN_POINT('',(-0.599999999999995,0.27,0.809999999999998));
#787=CARTESIAN_POINT('',(-0.599999999999995,0.27,0.809999999999998));
#788=CARTESIAN_POINT('',(0.,0.269999999999999,-4.06575814682064E-17));
#789=CARTESIAN_POINT('',(0.,0.269999999999999,0.809999999999999));
#790=CARTESIAN_POINT('',(0.,-4.06575814682064E-17,0.269999999999999));
#791=CARTESIAN_POINT('',(-1.79999999999999,1.35,0.27));
#792=CARTESIAN_POINT('',(-0.599999999999995,0.809999999999998,0.269999999999999));
#793=CARTESIAN_POINT('',(0.,0.809999999999999,0.269999999999999));
#794=CARTESIAN_POINT('',(0.202079002079002,0.449064449064451,0.));
#795=CARTESIAN_POINT('',(-1.79999999999999,1.35,-0.27));
#796=CARTESIAN_POINT('',(-0.599999999999995,0.809999999999998,-0.269999999999999));
#797=CARTESIAN_POINT('',(-0.599999999999995,0.809999999999998,-0.269999999999999));
#798=CARTESIAN_POINT('',(0.,-5.42101086242752E-17,-0.269999999999999));
#799=CARTESIAN_POINT('',(0.,0.81,-0.27));
#800=CARTESIAN_POINT('',(0.,0.27,0.));
#801=CARTESIAN_POINT('',(-1.79999999999999,0.27,-1.35));
#802=CARTESIAN_POINT('',(-0.599999999999995,0.27,-0.81));
#803=CARTESIAN_POINT('',(0.,0.27,-0.809999999999999));
#804=CARTESIAN_POINT('',(0.202079002079003,0.,-0.449064449064451));
#805=CARTESIAN_POINT('',(-1.79999999999999,-0.27,-1.35));
#806=CARTESIAN_POINT('',(-0.599999999999995,-0.27,-0.81));
#807=CARTESIAN_POINT('',(-0.599999999999995,-0.27,-0.81));
#808=CARTESIAN_POINT('',(0.,-0.27,-1.76182853028895E-16));
#809=CARTESIAN_POINT('',(0.,-0.27,-0.809999999999999));
#810=CARTESIAN_POINT('',(0.,-2.71050543121377E-17,-0.27));
#811=CARTESIAN_POINT('',(-1.79999999999999,-1.35,-0.27));
#812=CARTESIAN_POINT('',(-0.599999999999995,-0.809999999999999,-0.27));
#813=CARTESIAN_POINT('',(0.,-0.81,-0.27));
#814=CARTESIAN_POINT('',(0.202079002079002,-0.449064449064451,0.));
#815=CARTESIAN_POINT('',(-0.599999999999995,-0.809999999999998,0.27));
#816=CARTESIAN_POINT('',(-0.599999999999995,0.674999999999998,-0.135));
#817=CARTESIAN_POINT('',(-0.599999999999995,0.809999999999999,-0.809999999999999));
#818=CARTESIAN_POINT('',(-0.599999999999995,-0.81,-0.81));
#819=CARTESIAN_POINT('',(-0.599999999999995,-0.81,0.81));
#820=CARTESIAN_POINT('',(-0.599999999999995,0.809999999999999,0.809999999999999));
#821=CARTESIAN_POINT('',(0.,0.809999999999999,0.809999999999999));
#822=CARTESIAN_POINT('',(0.,-0.81,-0.81));
#823=CARTESIAN_POINT('',(0.,0.809999999999999,-0.809999999999999));
#824=CARTESIAN_POINT('',(-3.65918233213858E-17,-0.81,0.81));
#825=MECHANICAL_DESIGN_GEOMETRIC_PRESENTATION_REPRESENTATION('',(#360,#361,
#362,#363,#364,#365,#366,#367,#368,#369,#370,#371,#372,#373,#374,#375,#376,
#377,#378,#379,#380,#381,#382,#383,#384),#826);
#826=(
GEOMETRIC_REPRESENTATION_CONTEXT(3)
GLOBAL_UNCERTAINTY_ASSIGNED_CONTEXT((#827))
GLOBAL_UNIT_ASSIGNED_CONTEXT((#830,#829,#828))
REPRESENTATION_CONTEXT('\X2\53415B5769FD570667F1593487BA9489\X0\',
'TOP_LEVEL_ASSEMBLY_PART')
);
#827=UNCERTAINTY_MEASURE_WITH_UNIT(LENGTH_MEASURE(0.005),#830,
'DISTANCE_ACCURACY_VALUE','Maximum Tolerance applied to model');
#828=(
NAMED_UNIT(*)
SI_UNIT($,.STERADIAN.)
SOLID_ANGLE_UNIT()
);
#829=(
NAMED_UNIT(*)
PLANE_ANGLE_UNIT()
SI_UNIT($,.RADIAN.)
);
#830=(
LENGTH_UNIT()
NAMED_UNIT(*)
SI_UNIT(.MILLI.,.METRE.)
);
#831=PRODUCT_DEFINITION_SHAPE('','',#832);
#832=PRODUCT_DEFINITION('','',#834,#833);
#833=PRODUCT_DEFINITION_CONTEXT('',#840,'design');
#834=PRODUCT_DEFINITION_FORMATION_WITH_SPECIFIED_SOURCE('','',#836,
 .NOT_KNOWN.);
#835=PRODUCT_RELATED_PRODUCT_CATEGORY('','',(#836));
#836=PRODUCT('\X2\53415B5769FD570667F1593487BA9489\X0\',
'\X2\53415B5769FD570667F1593487BA9489\X0\','\X2\53415B5769FD570667F1593487BA9489\X0\',
(#838));
#837=PRODUCT_CATEGORY('','');
#838=PRODUCT_CONTEXT('',#840,'mechanical');
#839=APPLICATION_PROTOCOL_DEFINITION('international standard',
'automotive_design',2010,#840);
#840=APPLICATION_CONTEXT(
'core data for automotive mechanical design processes');
ENDSEC;
END-ISO-10303-21;
