ISO-10303-21;
HEADER;
/* Generated by software containing HOOPS Exchange Step
 * from HOOPS Exchange, Inc. (www.tiangong.cloud) 
 */

FILE_DESCRIPTION(
/* description */ ('Unknown'),
/* implementation_level */ '2;1');

FILE_NAME(
/* name */ '123',
/* time_stamp */ '2025-12-31T14:46:00+08:00',
/* author */ ('Unknown'),
/* organization */ ('Unknown'),
/* preprocessor_version */ 'ST-DEVELOPER v19.4',
/* originating_system */ 'TianGong',
/* authorisation */ 'Unknown');

FILE_SCHEMA (('AUTOMOTIVE_DESIGN {1 0 10303 214 3 1 1}'));
ENDSEC;

DATA;
#10=PROPERTY_DEFINITION_REPRESENTATION(#14,#12);
#11=PROPERTY_DEFINITION_REPRESENTATION(#15,#13);
#12=REPRESENTATION('',(#16),#423);
#13=REPRESENTATION('',(#17),#423);
#14=PROPERTY_DEFINITION('pmi validation property','',#428);
#15=PROPERTY_DEFINITION('pmi validation property','',#428);
#16=VALUE_REPRESENTATION_ITEM('number of annotations',COUNT_MEASURE(0.));
#17=VALUE_REPRESENTATION_ITEM('number of views',COUNT_MEASURE(0.));
#18=SHAPE_REPRESENTATION_RELATIONSHIP('','',#280,#19);
#19=ADVANCED_BREP_SHAPE_REPRESENTATION('',(#278),#423);
#20=TOROIDAL_SURFACE('',#300,0.999999999999993,0.2);
#21=VERTEX_LOOP('',#122);
#22=B_SPLINE_CURVE_WITH_KNOTS('',3,(#376,#377,#378,#379),.UNSPECIFIED.,
 .F.,.F.,(4,4),(0.00352484145656753,0.00426380154207523),.UNSPECIFIED.);
#23=B_SPLINE_CURVE_WITH_KNOTS('',3,(#383,#384,#385,#386),.UNSPECIFIED.,
 .F.,.F.,(4,4),(9.93680931607735E-7,0.00074061938448906),.UNSPECIFIED.);
#24=B_SPLINE_CURVE_WITH_KNOTS('',3,(#390,#391,#392,#393),.UNSPECIFIED.,
 .F.,.F.,(4,4),(0.00352484145656753,0.00426380154207523),.UNSPECIFIED.);
#25=B_SPLINE_CURVE_WITH_KNOTS('',3,(#397,#398,#399,#400),.UNSPECIFIED.,
 .F.,.F.,(4,4),(9.93680931607735E-7,0.000740619384489059),.UNSPECIFIED.);
#26=CONICAL_SURFACE('',#289,1.6,0.785398163397448);
#27=CONICAL_SURFACE('',#296,0.799999999999993,0.785398163397448);
#28=CYLINDRICAL_SURFACE('',#284,1.6);
#29=CYLINDRICAL_SURFACE('',#286,0.799999999999993);
#30=CYLINDRICAL_SURFACE('',#294,0.799999999999993);
#31=CYLINDRICAL_SURFACE('',#299,1.6);
#32=CIRCLE('',#283,1.6);
#33=CIRCLE('',#285,1.6);
#34=CIRCLE('',#287,0.799999999999993);
#35=CIRCLE('',#288,0.799999999999993);
#36=CIRCLE('',#290,1.07999999999999);
#37=CIRCLE('',#291,1.6);
#38=CIRCLE('',#292,1.07999999999999);
#39=CIRCLE('',#293,0.858578643762683);
#40=CIRCLE('',#295,0.799999999999993);
#41=CIRCLE('',#298,1.6);
#42=ORIENTED_EDGE('',*,*,#86,.F.);
#43=ORIENTED_EDGE('',*,*,#87,.T.);
#44=ORIENTED_EDGE('',*,*,#88,.F.);
#45=ORIENTED_EDGE('',*,*,#87,.F.);
#46=ORIENTED_EDGE('',*,*,#89,.F.);
#47=ORIENTED_EDGE('',*,*,#90,.T.);
#48=ORIENTED_EDGE('',*,*,#91,.T.);
#49=ORIENTED_EDGE('',*,*,#92,.T.);
#50=ORIENTED_EDGE('',*,*,#93,.F.);
#51=ORIENTED_EDGE('',*,*,#94,.T.);
#52=ORIENTED_EDGE('',*,*,#95,.F.);
#53=ORIENTED_EDGE('',*,*,#96,.F.);
#54=ORIENTED_EDGE('',*,*,#97,.F.);
#55=ORIENTED_EDGE('',*,*,#98,.T.);
#56=ORIENTED_EDGE('',*,*,#99,.F.);
#57=ORIENTED_EDGE('',*,*,#90,.F.);
#58=ORIENTED_EDGE('',*,*,#100,.T.);
#59=ORIENTED_EDGE('',*,*,#92,.F.);
#60=ORIENTED_EDGE('',*,*,#101,.T.);
#61=ORIENTED_EDGE('',*,*,#91,.F.);
#62=ORIENTED_EDGE('',*,*,#102,.F.);
#63=ORIENTED_EDGE('',*,*,#103,.T.);
#64=ORIENTED_EDGE('',*,*,#104,.F.);
#65=ORIENTED_EDGE('',*,*,#103,.F.);
#66=ORIENTED_EDGE('',*,*,#105,.F.);
#67=ORIENTED_EDGE('',*,*,#96,.T.);
#68=ORIENTED_EDGE('',*,*,#101,.F.);
#69=ORIENTED_EDGE('',*,*,#100,.F.);
#70=ORIENTED_EDGE('',*,*,#99,.T.);
#71=ORIENTED_EDGE('',*,*,#106,.F.);
#72=ORIENTED_EDGE('',*,*,#93,.T.);
#73=ORIENTED_EDGE('',*,*,#89,.T.);
#74=ORIENTED_EDGE('',*,*,#86,.T.);
#75=ORIENTED_EDGE('',*,*,#88,.T.);
#76=ORIENTED_EDGE('',*,*,#95,.T.);
#77=ORIENTED_EDGE('',*,*,#107,.F.);
#78=ORIENTED_EDGE('',*,*,#97,.T.);
#79=ORIENTED_EDGE('',*,*,#105,.T.);
#80=ORIENTED_EDGE('',*,*,#102,.T.);
#81=ORIENTED_EDGE('',*,*,#104,.T.);
#82=ORIENTED_EDGE('',*,*,#106,.T.);
#83=ORIENTED_EDGE('',*,*,#98,.F.);
#84=ORIENTED_EDGE('',*,*,#107,.T.);
#85=ORIENTED_EDGE('',*,*,#94,.F.);
#86=EDGE_CURVE('',#108,#109,#125,.T.);
#87=EDGE_CURVE('',#108,#109,#32,.T.);
#88=EDGE_CURVE('',#109,#110,#126,.F.);
#89=EDGE_CURVE('',#111,#108,#127,.T.);
#90=EDGE_CURVE('',#111,#110,#33,.T.);
#91=EDGE_CURVE('',#112,#112,#34,.T.);
#92=EDGE_CURVE('',#113,#113,#35,.T.);
#93=EDGE_CURVE('',#114,#111,#22,.T.);
#94=EDGE_CURVE('',#114,#115,#36,.F.);
#95=EDGE_CURVE('',#116,#115,#23,.T.);
#96=EDGE_CURVE('',#117,#116,#37,.T.);
#97=EDGE_CURVE('',#118,#117,#24,.T.);
#98=EDGE_CURVE('',#118,#119,#38,.F.);
#99=EDGE_CURVE('',#110,#119,#25,.T.);
#100=EDGE_CURVE('',#120,#120,#39,.T.);
#101=EDGE_CURVE('',#121,#121,#40,.F.);
#102=EDGE_CURVE('',#123,#124,#128,.T.);
#103=EDGE_CURVE('',#123,#124,#41,.T.);
#104=EDGE_CURVE('',#124,#116,#129,.F.);
#105=EDGE_CURVE('',#117,#123,#130,.T.);
#106=EDGE_CURVE('',#114,#119,#131,.T.);
#107=EDGE_CURVE('',#118,#115,#132,.T.);
#108=VERTEX_POINT('',#361);
#109=VERTEX_POINT('',#362);
#110=VERTEX_POINT('',#366);
#111=VERTEX_POINT('',#368);
#112=VERTEX_POINT('',#372);
#113=VERTEX_POINT('',#374);
#114=VERTEX_POINT('',#380);
#115=VERTEX_POINT('',#382);
#116=VERTEX_POINT('',#387);
#117=VERTEX_POINT('',#389);
#118=VERTEX_POINT('',#394);
#119=VERTEX_POINT('',#396);
#120=VERTEX_POINT('',#402);
#121=VERTEX_POINT('',#405);
#122=VERTEX_POINT('',#407);
#123=VERTEX_POINT('',#410);
#124=VERTEX_POINT('',#411);
#125=LINE('',#360,#133);
#126=LINE('',#365,#134);
#127=LINE('',#367,#135);
#128=LINE('',#409,#136);
#129=LINE('',#414,#137);
#130=LINE('',#415,#138);
#131=LINE('',#418,#139);
#132=LINE('',#420,#140);
#133=VECTOR('',#308,1000.);
#134=VECTOR('',#313,1000.);
#135=VECTOR('',#314,1000.);
#136=VECTOR('',#341,1000.);
#137=VECTOR('',#346,1000.);
#138=VECTOR('',#347,1000.);
#139=VECTOR('',#352,1000.);
#140=VECTOR('',#355,1000.);
#141=EDGE_LOOP('',(#42,#43));
#142=EDGE_LOOP('',(#44,#45,#46,#47));
#143=EDGE_LOOP('',(#48));
#144=EDGE_LOOP('',(#49));
#145=EDGE_LOOP('',(#50,#51,#52,#53,#54,#55,#56,#57));
#146=EDGE_LOOP('',(#58));
#147=EDGE_LOOP('',(#59));
#148=EDGE_LOOP('',(#60));
#149=EDGE_LOOP('',(#61));
#150=EDGE_LOOP('',(#62,#63));
#151=EDGE_LOOP('',(#64,#65,#66,#67));
#152=EDGE_LOOP('',(#68));
#153=EDGE_LOOP('',(#69));
#154=EDGE_LOOP('',(#70,#71,#72,#73,#74,#75));
#155=EDGE_LOOP('',(#76,#77,#78,#79,#80,#81));
#156=EDGE_LOOP('',(#82,#83,#84,#85));
#157=FACE_BOUND('',#141,.T.);
#158=FACE_BOUND('',#142,.T.);
#159=FACE_BOUND('',#143,.T.);
#160=FACE_BOUND('',#144,.T.);
#161=FACE_BOUND('',#145,.T.);
#162=FACE_BOUND('',#146,.T.);
#163=FACE_BOUND('',#147,.T.);
#164=FACE_BOUND('',#148,.T.);
#165=FACE_BOUND('',#21,.T.);
#166=FACE_BOUND('',#149,.T.);
#167=FACE_BOUND('',#150,.T.);
#168=FACE_BOUND('',#151,.T.);
#169=FACE_BOUND('',#152,.T.);
#170=FACE_BOUND('',#153,.T.);
#171=FACE_BOUND('',#154,.T.);
#172=FACE_BOUND('',#155,.T.);
#173=FACE_BOUND('',#156,.T.);
#174=PLANE('',#282);
#175=PLANE('',#297);
#176=PLANE('',#301);
#177=PLANE('',#302);
#178=PLANE('',#303);
#179=STYLED_ITEM('',(#191),#265);
#180=STYLED_ITEM('',(#192),#266);
#181=STYLED_ITEM('',(#193),#267);
#182=STYLED_ITEM('',(#194),#268);
#183=STYLED_ITEM('',(#195),#269);
#184=STYLED_ITEM('',(#196),#270);
#185=STYLED_ITEM('',(#197),#271);
#186=STYLED_ITEM('',(#198),#272);
#187=STYLED_ITEM('',(#199),#273);
#188=STYLED_ITEM('',(#200),#274);
#189=STYLED_ITEM('',(#201),#275);
#190=STYLED_ITEM('',(#202),#276);
#191=PRESENTATION_STYLE_ASSIGNMENT((#203));
#192=PRESENTATION_STYLE_ASSIGNMENT((#204));
#193=PRESENTATION_STYLE_ASSIGNMENT((#205));
#194=PRESENTATION_STYLE_ASSIGNMENT((#206));
#195=PRESENTATION_STYLE_ASSIGNMENT((#207));
#196=PRESENTATION_STYLE_ASSIGNMENT((#208));
#197=PRESENTATION_STYLE_ASSIGNMENT((#209));
#198=PRESENTATION_STYLE_ASSIGNMENT((#210));
#199=PRESENTATION_STYLE_ASSIGNMENT((#211));
#200=PRESENTATION_STYLE_ASSIGNMENT((#212));
#201=PRESENTATION_STYLE_ASSIGNMENT((#213));
#202=PRESENTATION_STYLE_ASSIGNMENT((#214));
#203=SURFACE_STYLE_USAGE(.BOTH.,#215);
#204=SURFACE_STYLE_USAGE(.BOTH.,#216);
#205=SURFACE_STYLE_USAGE(.BOTH.,#217);
#206=SURFACE_STYLE_USAGE(.BOTH.,#218);
#207=SURFACE_STYLE_USAGE(.BOTH.,#219);
#208=SURFACE_STYLE_USAGE(.BOTH.,#220);
#209=SURFACE_STYLE_USAGE(.BOTH.,#221);
#210=SURFACE_STYLE_USAGE(.BOTH.,#222);
#211=SURFACE_STYLE_USAGE(.BOTH.,#223);
#212=SURFACE_STYLE_USAGE(.BOTH.,#224);
#213=SURFACE_STYLE_USAGE(.BOTH.,#225);
#214=SURFACE_STYLE_USAGE(.BOTH.,#226);
#215=SURFACE_SIDE_STYLE('',(#227));
#216=SURFACE_SIDE_STYLE('',(#228));
#217=SURFACE_SIDE_STYLE('',(#229));
#218=SURFACE_SIDE_STYLE('',(#230));
#219=SURFACE_SIDE_STYLE('',(#231));
#220=SURFACE_SIDE_STYLE('',(#232));
#221=SURFACE_SIDE_STYLE('',(#233));
#222=SURFACE_SIDE_STYLE('',(#234));
#223=SURFACE_SIDE_STYLE('',(#235));
#224=SURFACE_SIDE_STYLE('',(#236));
#225=SURFACE_SIDE_STYLE('',(#237));
#226=SURFACE_SIDE_STYLE('',(#238));
#227=SURFACE_STYLE_FILL_AREA(#239);
#228=SURFACE_STYLE_FILL_AREA(#240);
#229=SURFACE_STYLE_FILL_AREA(#241);
#230=SURFACE_STYLE_FILL_AREA(#242);
#231=SURFACE_STYLE_FILL_AREA(#243);
#232=SURFACE_STYLE_FILL_AREA(#244);
#233=SURFACE_STYLE_FILL_AREA(#245);
#234=SURFACE_STYLE_FILL_AREA(#246);
#235=SURFACE_STYLE_FILL_AREA(#247);
#236=SURFACE_STYLE_FILL_AREA(#248);
#237=SURFACE_STYLE_FILL_AREA(#249);
#238=SURFACE_STYLE_FILL_AREA(#250);
#239=FILL_AREA_STYLE('',(#251));
#240=FILL_AREA_STYLE('',(#252));
#241=FILL_AREA_STYLE('',(#253));
#242=FILL_AREA_STYLE('',(#254));
#243=FILL_AREA_STYLE('',(#255));
#244=FILL_AREA_STYLE('',(#256));
#245=FILL_AREA_STYLE('',(#257));
#246=FILL_AREA_STYLE('',(#258));
#247=FILL_AREA_STYLE('',(#259));
#248=FILL_AREA_STYLE('',(#260));
#249=FILL_AREA_STYLE('',(#261));
#250=FILL_AREA_STYLE('',(#262));
#251=FILL_AREA_STYLE_COLOUR('',#263);
#252=FILL_AREA_STYLE_COLOUR('',#263);
#253=FILL_AREA_STYLE_COLOUR('',#264);
#254=FILL_AREA_STYLE_COLOUR('',#263);
#255=FILL_AREA_STYLE_COLOUR('',#263);
#256=FILL_AREA_STYLE_COLOUR('',#263);
#257=FILL_AREA_STYLE_COLOUR('',#263);
#258=FILL_AREA_STYLE_COLOUR('',#263);
#259=FILL_AREA_STYLE_COLOUR('',#263);
#260=FILL_AREA_STYLE_COLOUR('',#263);
#261=FILL_AREA_STYLE_COLOUR('',#263);
#262=FILL_AREA_STYLE_COLOUR('',#263);
#263=COLOUR_RGB('',0.506983280181885,0.531564235687256,0.550000011920929);
#264=COLOUR_RGB('',0.1875,0.75,0.581249892711639);
#265=ADVANCED_FACE('',(#157),#174,.T.);
#266=ADVANCED_FACE('',(#158),#28,.T.);
#267=ADVANCED_FACE('',(#159,#160),#29,.T.);
#268=ADVANCED_FACE('',(#161,#162),#26,.T.);
#269=ADVANCED_FACE('',(#163,#164),#30,.T.);
#270=ADVANCED_FACE('',(#165,#166),#27,.T.);
#271=ADVANCED_FACE('',(#167),#175,.T.);
#272=ADVANCED_FACE('',(#168),#31,.T.);
#273=ADVANCED_FACE('',(#169,#170),#20,.F.);
#274=ADVANCED_FACE('',(#171),#176,.F.);
#275=ADVANCED_FACE('',(#172),#177,.F.);
#276=ADVANCED_FACE('',(#173),#178,.T.);
#277=CLOSED_SHELL('',(#265,#266,#267,#268,#269,#270,#271,#272,#273,#274,
#275,#276));
#278=MANIFOLD_SOLID_BREP('',#277);
#279=SHAPE_DEFINITION_REPRESENTATION(#428,#280);
#280=SHAPE_REPRESENTATION('123',(#281),#423);
#281=AXIS2_PLACEMENT_3D('',#358,#304,#305);
#282=AXIS2_PLACEMENT_3D('',#359,#306,#307);
#283=AXIS2_PLACEMENT_3D('',#363,#309,#310);
#284=AXIS2_PLACEMENT_3D('',#364,#311,#312);
#285=AXIS2_PLACEMENT_3D('',#369,#315,#316);
#286=AXIS2_PLACEMENT_3D('',#370,#317,#318);
#287=AXIS2_PLACEMENT_3D('',#371,#319,#320);
#288=AXIS2_PLACEMENT_3D('',#373,#321,#322);
#289=AXIS2_PLACEMENT_3D('',#375,#323,#324);
#290=AXIS2_PLACEMENT_3D('',#381,#325,#326);
#291=AXIS2_PLACEMENT_3D('',#388,#327,#328);
#292=AXIS2_PLACEMENT_3D('',#395,#329,#330);
#293=AXIS2_PLACEMENT_3D('',#401,#331,#332);
#294=AXIS2_PLACEMENT_3D('',#403,#333,#334);
#295=AXIS2_PLACEMENT_3D('',#404,#335,#336);
#296=AXIS2_PLACEMENT_3D('',#406,#337,#338);
#297=AXIS2_PLACEMENT_3D('',#408,#339,#340);
#298=AXIS2_PLACEMENT_3D('',#412,#342,#343);
#299=AXIS2_PLACEMENT_3D('',#413,#344,#345);
#300=AXIS2_PLACEMENT_3D('',#416,#348,#349);
#301=AXIS2_PLACEMENT_3D('',#417,#350,#351);
#302=AXIS2_PLACEMENT_3D('',#419,#353,#354);
#303=AXIS2_PLACEMENT_3D('',#421,#356,#357);
#304=DIRECTION('',(0.,0.,1.));
#305=DIRECTION('',(1.,0.,0.));
#306=DIRECTION('',(-1.,0.,0.));
#307=DIRECTION('',(0.,0.,1.));
#308=DIRECTION('',(-6.12303176911189E-17,-1.,-1.35525271560688E-16));
#309=DIRECTION('',(-1.,0.,0.));
#310=DIRECTION('',(0.,0.,1.));
#311=DIRECTION('',(-1.,0.,0.));
#312=DIRECTION('',(0.,0.,1.));
#313=DIRECTION('',(-1.,0.,0.));
#314=DIRECTION('',(-1.,0.,0.));
#315=DIRECTION('',(-1.,0.,0.));
#316=DIRECTION('',(0.,0.,1.));
#317=DIRECTION('',(-1.,0.,0.));
#318=DIRECTION('',(0.,0.,1.));
#319=DIRECTION('',(-1.,0.,0.));
#320=DIRECTION('',(0.,0.,1.));
#321=DIRECTION('',(1.,0.,0.));
#322=DIRECTION('',(0.,0.,1.));
#323=DIRECTION('',(-1.,0.,0.));
#324=DIRECTION('',(0.,0.,1.));
#325=DIRECTION('',(-1.,6.12303176911189E-17,0.));
#326=DIRECTION('',(-6.12303176911189E-17,-1.,0.));
#327=DIRECTION('',(-1.,0.,0.));
#328=DIRECTION('',(0.,0.,1.));
#329=DIRECTION('',(-1.,6.12303176911189E-17,0.));
#330=DIRECTION('',(-6.12303176911189E-17,-1.,0.));
#331=DIRECTION('',(-1.,0.,0.));
#332=DIRECTION('',(0.,0.,1.));
#333=DIRECTION('',(-1.,0.,0.));
#334=DIRECTION('',(0.,0.,1.));
#335=DIRECTION('',(-1.,0.,0.));
#336=DIRECTION('',(0.,0.,1.));
#337=DIRECTION('',(-1.,0.,0.));
#338=DIRECTION('',(0.,0.,1.));
#339=DIRECTION('',(-1.,0.,0.));
#340=DIRECTION('',(0.,0.,1.));
#341=DIRECTION('',(6.12303176911189E-17,1.,0.));
#342=DIRECTION('',(-1.,0.,0.));
#343=DIRECTION('',(0.,0.,1.));
#344=DIRECTION('',(-1.,0.,0.));
#345=DIRECTION('',(0.,0.,1.));
#346=DIRECTION('',(-1.,0.,0.));
#347=DIRECTION('',(-1.,0.,0.));
#348=DIRECTION('',(-1.,0.,0.));
#349=DIRECTION('',(0.,0.,1.));
#350=DIRECTION('',(0.,1.35525271560688E-16,-1.));
#351=DIRECTION('',(0.,1.,1.35525271560688E-16));
#352=DIRECTION('',(-6.12303176911189E-17,-1.,-1.35525271560688E-16));
#353=DIRECTION('',(0.,0.,1.));
#354=DIRECTION('',(1.,0.,0.));
#355=DIRECTION('',(6.12303176911189E-17,1.,0.));
#356=DIRECTION('',(-1.,6.12303176911189E-17,0.));
#357=DIRECTION('',(-6.12303176911189E-17,-1.,0.));
#358=CARTESIAN_POINT('',(0.,0.,0.));
#359=CARTESIAN_POINT('',(0.,0.,0.));
#360=CARTESIAN_POINT('',(9.79685083057902E-17,1.6,-0.2));
#361=CARTESIAN_POINT('',(9.72001159849075E-17,1.58745078663875,-0.2));
#362=CARTESIAN_POINT('',(-9.72001159849075E-17,-1.58745078663875,-0.2));
#363=CARTESIAN_POINT('',(0.,0.,0.));
#364=CARTESIAN_POINT('',(0.,0.,0.));
#365=CARTESIAN_POINT('',(0.,-1.58745078663875,-0.2));
#366=CARTESIAN_POINT('',(0.199999999999992,-1.58745078663875,-0.2));
#367=CARTESIAN_POINT('',(0.,1.58745078663875,-0.2));
#368=CARTESIAN_POINT('',(0.199999999999992,1.58745078663875,-0.2));
#369=CARTESIAN_POINT('',(0.199999999999992,0.,0.));
#370=CARTESIAN_POINT('',(0.,0.,0.));
#371=CARTESIAN_POINT('',(7.20000000000001,0.,0.));
#372=CARTESIAN_POINT('',(7.20000000000001,0.,0.799999999999993));
#373=CARTESIAN_POINT('',(3.00000000000001,0.,0.));
#374=CARTESIAN_POINT('',(3.00000000000001,0.,0.799999999999993));
#375=CARTESIAN_POINT('',(0.199999999999992,0.,0.));
#376=CARTESIAN_POINT('',(0.72,1.06131993291372,-0.2));
#377=CARTESIAN_POINT('',(0.54717074857166,1.237191115348,-0.2));
#378=CARTESIAN_POINT('',(0.373671990047437,1.41240587411943,-0.2));
#379=CARTESIAN_POINT('',(0.199999999999991,1.58745078663876,-0.2));
#380=CARTESIAN_POINT('',(0.72,1.06131993291372,-0.2));
#381=CARTESIAN_POINT('',(0.72,-6.61287431064079E-17,0.));
#382=CARTESIAN_POINT('',(0.72,1.06131993291372,0.2));
#383=CARTESIAN_POINT('',(0.199999999999992,1.58745078663875,0.2));
#384=CARTESIAN_POINT('',(0.373676496833352,1.4124013317062,0.2));
#385=CARTESIAN_POINT('',(0.547177423825265,1.23718432260467,0.2));
#386=CARTESIAN_POINT('',(0.72,1.06131993291372,0.2));
#387=CARTESIAN_POINT('',(0.199999999999992,1.58745078663875,0.2));
#388=CARTESIAN_POINT('',(0.199999999999992,0.,0.));
#389=CARTESIAN_POINT('',(0.199999999999992,-1.58745078663875,0.2));
#390=CARTESIAN_POINT('',(0.72,-1.06131993291372,0.2));
#391=CARTESIAN_POINT('',(0.54717074857166,-1.237191115348,0.2));
#392=CARTESIAN_POINT('',(0.373671990047437,-1.41240587411943,0.2));
#393=CARTESIAN_POINT('',(0.199999999999992,-1.58745078663875,0.2));
#394=CARTESIAN_POINT('',(0.72,-1.06131993291372,0.2));
#395=CARTESIAN_POINT('',(0.72,-6.61287431064079E-17,0.));
#396=CARTESIAN_POINT('',(0.72,-1.06131993291372,-0.2));
#397=CARTESIAN_POINT('',(0.199999999999992,-1.58745078663875,-0.2));
#398=CARTESIAN_POINT('',(0.373676496833352,-1.4124013317062,-0.2));
#399=CARTESIAN_POINT('',(0.547177423825265,-1.23718432260467,-0.2));
#400=CARTESIAN_POINT('',(0.72,-1.06131993291372,-0.2));
#401=CARTESIAN_POINT('',(0.94142135623731,0.,0.));
#402=CARTESIAN_POINT('',(0.94142135623731,0.,0.858578643762683));
#403=CARTESIAN_POINT('',(0.,0.,0.));
#404=CARTESIAN_POINT('',(1.08284271247462,0.,0.));
#405=CARTESIAN_POINT('',(1.08284271247462,0.,0.799999999999993));
#406=CARTESIAN_POINT('',(7.20000000000001,0.,0.));
#407=CARTESIAN_POINT('',(8.,0.,0.));
#408=CARTESIAN_POINT('',(0.,0.,0.));
#409=CARTESIAN_POINT('',(-9.79685083057902E-17,-1.6,0.2));
#410=CARTESIAN_POINT('',(-9.72001159849075E-17,-1.58745078663875,0.2));
#411=CARTESIAN_POINT('',(9.72001159849075E-17,1.58745078663875,0.2));
#412=CARTESIAN_POINT('',(0.,0.,0.));
#413=CARTESIAN_POINT('',(0.,0.,0.));
#414=CARTESIAN_POINT('',(0.,1.58745078663875,0.2));
#415=CARTESIAN_POINT('',(0.,-1.58745078663875,0.2));
#416=CARTESIAN_POINT('',(1.08284271247462,0.,0.));
#417=CARTESIAN_POINT('',(0.72,1.6,-0.2));
#418=CARTESIAN_POINT('',(0.72,1.6,-0.2));
#419=CARTESIAN_POINT('',(0.72,-1.6,0.2));
#420=CARTESIAN_POINT('',(0.72,-1.6,0.2));
#421=CARTESIAN_POINT('',(0.72,0.,0.));
#422=MECHANICAL_DESIGN_GEOMETRIC_PRESENTATION_REPRESENTATION('',(#179,#180,
#181,#182,#183,#184,#185,#186,#187,#188,#189,#190),#423);
#423=(
GEOMETRIC_REPRESENTATION_CONTEXT(3)
GLOBAL_UNCERTAINTY_ASSIGNED_CONTEXT((#424))
GLOBAL_UNIT_ASSIGNED_CONTEXT((#427,#426,#425))
REPRESENTATION_CONTEXT('123','TOP_LEVEL_ASSEMBLY_PART')
);
#424=UNCERTAINTY_MEASURE_WITH_UNIT(LENGTH_MEASURE(0.005),#427,
'DISTANCE_ACCURACY_VALUE','Maximum Tolerance applied to model');
#425=(
NAMED_UNIT(*)
SI_UNIT($,.STERADIAN.)
SOLID_ANGLE_UNIT()
);
#426=(
NAMED_UNIT(*)
PLANE_ANGLE_UNIT()
SI_UNIT($,.RADIAN.)
);
#427=(
LENGTH_UNIT()
NAMED_UNIT(*)
SI_UNIT(.MILLI.,.METRE.)
);
#428=PRODUCT_DEFINITION_SHAPE('','',#429);
#429=PRODUCT_DEFINITION('','',#431,#430);
#430=PRODUCT_DEFINITION_CONTEXT('',#437,'design');
#431=PRODUCT_DEFINITION_FORMATION_WITH_SPECIFIED_SOURCE('','',#433,
 .NOT_KNOWN.);
#432=PRODUCT_RELATED_PRODUCT_CATEGORY('','',(#433));
#433=PRODUCT('123','123','123',(#435));
#434=PRODUCT_CATEGORY('','');
#435=PRODUCT_CONTEXT('',#437,'mechanical');
#436=APPLICATION_PROTOCOL_DEFINITION('international standard',
'automotive_design',2010,#437);
#437=APPLICATION_CONTEXT(
'core data for automotive mechanical design processes');
ENDSEC;
END-ISO-10303-21;
