ISO-10303-21;
HEADER;
/* Generated by software containing HOOPS Exchange Step
 * from HOOPS Exchange, Inc. (www.tiangong.cloud) 
 */

FILE_DESCRIPTION(
/* description */ ('Unknown'),
/* implementation_level */ '2;1');

FILE_NAME(
/* name */ '\X2\5F0069FD570667F159348F744F4D87BA9489\X0\',
/* time_stamp */ '2025-12-25T08:52:24+08:00',
/* author */ ('Unknown'),
/* organization */ ('Unknown'),
/* preprocessor_version */ 'ST-DEVELOPER v19.4',
/* originating_system */ 'TianGong',
/* authorisation */ 'Unknown');

FILE_SCHEMA (('AUTOMOTIVE_DESIGN {1 0 10303 214 3 1 1}'));
ENDSEC;

DATA;
#10=PROPERTY_DEFINITION_REPRESENTATION(#14,#12);
#11=PROPERTY_DEFINITION_REPRESENTATION(#15,#13);
#12=REPRESENTATION('',(#16),#369);
#13=REPRESENTATION('',(#17),#369);
#14=PROPERTY_DEFINITION('pmi validation property','',#374);
#15=PROPERTY_DEFINITION('pmi validation property','',#374);
#16=VALUE_REPRESENTATION_ITEM('number of annotations',COUNT_MEASURE(0.));
#17=VALUE_REPRESENTATION_ITEM('number of views',COUNT_MEASURE(0.));
#18=SHAPE_REPRESENTATION_RELATIONSHIP('','',#218,#19);
#19=ADVANCED_BREP_SHAPE_REPRESENTATION('',(#216),#369);
#20=TOROIDAL_SURFACE('',#245,1.33999999999999,0.1);
#21=TOROIDAL_SURFACE('',#246,0.849999999999993,0.3);
#22=TOROIDAL_SURFACE('',#247,0.849999999999993,0.3);
#23=SPHERICAL_SURFACE('',#225,1.08749999999998);
#24=CYLINDRICAL_SURFACE('',#222,0.749999999999993);
#25=CYLINDRICAL_SURFACE('',#228,1.75);
#26=CYLINDRICAL_SURFACE('',#234,1.23999999999999);
#27=CYLINDRICAL_SURFACE('',#239,0.549999999999993);
#28=CIRCLE('',#221,1.75);
#29=CIRCLE('',#223,0.749999999999993);
#30=CIRCLE('',#224,0.749999999999993);
#31=CIRCLE('',#227,1.75);
#32=CIRCLE('',#229,1.75);
#33=CIRCLE('',#230,1.75);
#34=CIRCLE('',#231,1.75);
#35=CIRCLE('',#233,1.33999999999999);
#36=CIRCLE('',#235,1.23999999999999);
#37=CIRCLE('',#236,1.23999999999999);
#38=CIRCLE('',#238,0.849999999999993);
#39=CIRCLE('',#240,0.549999999999993);
#40=CIRCLE('',#241,0.549999999999993);
#41=ORIENTED_EDGE('',*,*,#83,.F.);
#42=ORIENTED_EDGE('',*,*,#84,.T.);
#43=ORIENTED_EDGE('',*,*,#85,.T.);
#44=ORIENTED_EDGE('',*,*,#86,.F.);
#45=ORIENTED_EDGE('',*,*,#85,.F.);
#46=ORIENTED_EDGE('',*,*,#87,.F.);
#47=ORIENTED_EDGE('',*,*,#88,.T.);
#48=ORIENTED_EDGE('',*,*,#89,.F.);
#49=ORIENTED_EDGE('',*,*,#90,.T.);
#50=ORIENTED_EDGE('',*,*,#91,.F.);
#51=ORIENTED_EDGE('',*,*,#88,.F.);
#52=ORIENTED_EDGE('',*,*,#92,.F.);
#53=ORIENTED_EDGE('',*,*,#93,.T.);
#54=ORIENTED_EDGE('',*,*,#94,.F.);
#55=ORIENTED_EDGE('',*,*,#84,.F.);
#56=ORIENTED_EDGE('',*,*,#95,.T.);
#57=ORIENTED_EDGE('',*,*,#96,.T.);
#58=ORIENTED_EDGE('',*,*,#95,.F.);
#59=ORIENTED_EDGE('',*,*,#97,.T.);
#60=ORIENTED_EDGE('',*,*,#98,.T.);
#61=ORIENTED_EDGE('',*,*,#99,.T.);
#62=ORIENTED_EDGE('',*,*,#98,.F.);
#63=ORIENTED_EDGE('',*,*,#100,.T.);
#64=ORIENTED_EDGE('',*,*,#101,.T.);
#65=ORIENTED_EDGE('',*,*,#94,.T.);
#66=ORIENTED_EDGE('',*,*,#102,.F.);
#67=ORIENTED_EDGE('',*,*,#89,.T.);
#68=ORIENTED_EDGE('',*,*,#83,.T.);
#69=ORIENTED_EDGE('',*,*,#91,.T.);
#70=ORIENTED_EDGE('',*,*,#103,.F.);
#71=ORIENTED_EDGE('',*,*,#92,.T.);
#72=ORIENTED_EDGE('',*,*,#87,.T.);
#73=ORIENTED_EDGE('',*,*,#102,.T.);
#74=ORIENTED_EDGE('',*,*,#93,.F.);
#75=ORIENTED_EDGE('',*,*,#103,.T.);
#76=ORIENTED_EDGE('',*,*,#90,.F.);
#77=ORIENTED_EDGE('',*,*,#97,.F.);
#78=ORIENTED_EDGE('',*,*,#96,.F.);
#79=ORIENTED_EDGE('',*,*,#101,.F.);
#80=ORIENTED_EDGE('',*,*,#99,.F.);
#81=ORIENTED_EDGE('',*,*,#86,.T.);
#82=ORIENTED_EDGE('',*,*,#100,.F.);
#83=EDGE_CURVE('',#104,#105,#121,.T.);
#84=EDGE_CURVE('',#104,#105,#28,.T.);
#85=EDGE_CURVE('',#106,#106,#29,.T.);
#86=EDGE_CURVE('',#107,#107,#30,.T.);
#87=EDGE_CURVE('',#108,#109,#122,.T.);
#88=EDGE_CURVE('',#108,#109,#31,.T.);
#89=EDGE_CURVE('',#110,#104,#123,.T.);
#90=EDGE_CURVE('',#110,#111,#32,.F.);
#91=EDGE_CURVE('',#109,#111,#124,.F.);
#92=EDGE_CURVE('',#112,#108,#125,.T.);
#93=EDGE_CURVE('',#112,#113,#33,.F.);
#94=EDGE_CURVE('',#105,#113,#126,.F.);
#95=EDGE_CURVE('',#114,#114,#34,.T.);
#96=EDGE_CURVE('',#115,#115,#35,.F.);
#97=EDGE_CURVE('',#116,#116,#36,.T.);
#98=EDGE_CURVE('',#117,#117,#37,.T.);
#99=EDGE_CURVE('',#118,#118,#38,.F.);
#100=EDGE_CURVE('',#119,#119,#39,.F.);
#101=EDGE_CURVE('',#120,#120,#40,.T.);
#102=EDGE_CURVE('',#110,#113,#127,.T.);
#103=EDGE_CURVE('',#112,#111,#128,.T.);
#104=VERTEX_POINT('',#317);
#105=VERTEX_POINT('',#318);
#106=VERTEX_POINT('',#322);
#107=VERTEX_POINT('',#324);
#108=VERTEX_POINT('',#328);
#109=VERTEX_POINT('',#329);
#110=VERTEX_POINT('',#333);
#111=VERTEX_POINT('',#335);
#112=VERTEX_POINT('',#338);
#113=VERTEX_POINT('',#340);
#114=VERTEX_POINT('',#343);
#115=VERTEX_POINT('',#346);
#116=VERTEX_POINT('',#349);
#117=VERTEX_POINT('',#351);
#118=VERTEX_POINT('',#354);
#119=VERTEX_POINT('',#357);
#120=VERTEX_POINT('',#359);
#121=LINE('',#316,#129);
#122=LINE('',#327,#130);
#123=LINE('',#332,#131);
#124=LINE('',#336,#132);
#125=LINE('',#337,#133);
#126=LINE('',#341,#134);
#127=LINE('',#361,#135);
#128=LINE('',#363,#136);
#129=VECTOR('',#252,1000.);
#130=VECTOR('',#265,1000.);
#131=VECTOR('',#270,1000.);
#132=VECTOR('',#273,1000.);
#133=VECTOR('',#274,1000.);
#134=VECTOR('',#277,1000.);
#135=VECTOR('',#302,1000.);
#136=VECTOR('',#305,1000.);
#137=EDGE_LOOP('',(#41,#42));
#138=EDGE_LOOP('',(#43));
#139=EDGE_LOOP('',(#44));
#140=EDGE_LOOP('',(#45));
#141=EDGE_LOOP('',(#46,#47));
#142=EDGE_LOOP('',(#48,#49,#50,#51,#52,#53,#54,#55));
#143=EDGE_LOOP('',(#56));
#144=EDGE_LOOP('',(#57));
#145=EDGE_LOOP('',(#58));
#146=EDGE_LOOP('',(#59));
#147=EDGE_LOOP('',(#60));
#148=EDGE_LOOP('',(#61));
#149=EDGE_LOOP('',(#62));
#150=EDGE_LOOP('',(#63));
#151=EDGE_LOOP('',(#64));
#152=EDGE_LOOP('',(#65,#66,#67,#68));
#153=EDGE_LOOP('',(#69,#70,#71,#72));
#154=EDGE_LOOP('',(#73,#74,#75,#76));
#155=EDGE_LOOP('',(#77));
#156=EDGE_LOOP('',(#78));
#157=EDGE_LOOP('',(#79));
#158=EDGE_LOOP('',(#80));
#159=EDGE_LOOP('',(#81));
#160=EDGE_LOOP('',(#82));
#161=FACE_BOUND('',#137,.T.);
#162=FACE_BOUND('',#138,.T.);
#163=FACE_BOUND('',#139,.T.);
#164=FACE_BOUND('',#140,.T.);
#165=FACE_BOUND('',#141,.T.);
#166=FACE_BOUND('',#142,.T.);
#167=FACE_BOUND('',#143,.T.);
#168=FACE_BOUND('',#144,.T.);
#169=FACE_BOUND('',#145,.T.);
#170=FACE_BOUND('',#146,.T.);
#171=FACE_BOUND('',#147,.T.);
#172=FACE_BOUND('',#148,.T.);
#173=FACE_BOUND('',#149,.T.);
#174=FACE_BOUND('',#150,.T.);
#175=FACE_BOUND('',#151,.T.);
#176=FACE_BOUND('',#152,.T.);
#177=FACE_BOUND('',#153,.T.);
#178=FACE_BOUND('',#154,.T.);
#179=FACE_BOUND('',#155,.T.);
#180=FACE_BOUND('',#156,.T.);
#181=FACE_BOUND('',#157,.T.);
#182=FACE_BOUND('',#158,.T.);
#183=FACE_BOUND('',#159,.T.);
#184=FACE_BOUND('',#160,.T.);
#185=PLANE('',#220);
#186=PLANE('',#226);
#187=PLANE('',#232);
#188=PLANE('',#237);
#189=PLANE('',#242);
#190=PLANE('',#243);
#191=PLANE('',#244);
#192=ADVANCED_FACE('',(#161),#185,.T.);
#193=ADVANCED_FACE('',(#162,#163),#24,.T.);
#194=ADVANCED_FACE('',(#164),#23,.T.);
#195=ADVANCED_FACE('',(#165),#186,.T.);
#196=ADVANCED_FACE('',(#166,#167),#25,.T.);
#197=ADVANCED_FACE('',(#168,#169),#187,.T.);
#198=ADVANCED_FACE('',(#170,#171),#26,.T.);
#199=ADVANCED_FACE('',(#172,#173),#188,.T.);
#200=ADVANCED_FACE('',(#174,#175),#27,.T.);
#201=ADVANCED_FACE('',(#176),#189,.F.);
#202=ADVANCED_FACE('',(#177),#190,.F.);
#203=ADVANCED_FACE('',(#178),#191,.T.);
#204=ADVANCED_FACE('',(#179,#180),#20,.F.);
#205=ADVANCED_FACE('',(#181,#182),#21,.F.);
#206=ADVANCED_FACE('',(#183,#184),#22,.F.);
#207=CLOSED_SHELL('',(#192,#193,#194,#195,#196,#197,#198,#199,#200,#201,
#202,#203,#204,#205,#206));
#208=STYLED_ITEM('',(#209),#216);
#209=PRESENTATION_STYLE_ASSIGNMENT((#210));
#210=SURFACE_STYLE_USAGE(.BOTH.,#211);
#211=SURFACE_SIDE_STYLE('',(#212));
#212=SURFACE_STYLE_FILL_AREA(#213);
#213=FILL_AREA_STYLE('',(#214));
#214=FILL_AREA_STYLE_COLOUR('',#215);
#215=COLOUR_RGB('',0.506983280181885,0.531564235687256,0.550000011920929);
#216=MANIFOLD_SOLID_BREP('',#207);
#217=SHAPE_DEFINITION_REPRESENTATION(#374,#218);
#218=SHAPE_REPRESENTATION('\X2\5F0069FD570667F159348F744F4D87BA9489\X0\',
(#219),#369);
#219=AXIS2_PLACEMENT_3D('',#314,#248,#249);
#220=AXIS2_PLACEMENT_3D('',#315,#250,#251);
#221=AXIS2_PLACEMENT_3D('',#319,#253,#254);
#222=AXIS2_PLACEMENT_3D('',#320,#255,#256);
#223=AXIS2_PLACEMENT_3D('',#321,#257,#258);
#224=AXIS2_PLACEMENT_3D('',#323,#259,#260);
#225=AXIS2_PLACEMENT_3D('',#325,#261,#262);
#226=AXIS2_PLACEMENT_3D('',#326,#263,#264);
#227=AXIS2_PLACEMENT_3D('',#330,#266,#267);
#228=AXIS2_PLACEMENT_3D('',#331,#268,#269);
#229=AXIS2_PLACEMENT_3D('',#334,#271,#272);
#230=AXIS2_PLACEMENT_3D('',#339,#275,#276);
#231=AXIS2_PLACEMENT_3D('',#342,#278,#279);
#232=AXIS2_PLACEMENT_3D('',#344,#280,#281);
#233=AXIS2_PLACEMENT_3D('',#345,#282,#283);
#234=AXIS2_PLACEMENT_3D('',#347,#284,#285);
#235=AXIS2_PLACEMENT_3D('',#348,#286,#287);
#236=AXIS2_PLACEMENT_3D('',#350,#288,#289);
#237=AXIS2_PLACEMENT_3D('',#352,#290,#291);
#238=AXIS2_PLACEMENT_3D('',#353,#292,#293);
#239=AXIS2_PLACEMENT_3D('',#355,#294,#295);
#240=AXIS2_PLACEMENT_3D('',#356,#296,#297);
#241=AXIS2_PLACEMENT_3D('',#358,#298,#299);
#242=AXIS2_PLACEMENT_3D('',#360,#300,#301);
#243=AXIS2_PLACEMENT_3D('',#362,#303,#304);
#244=AXIS2_PLACEMENT_3D('',#364,#306,#307);
#245=AXIS2_PLACEMENT_3D('',#365,#308,#309);
#246=AXIS2_PLACEMENT_3D('',#366,#310,#311);
#247=AXIS2_PLACEMENT_3D('',#367,#312,#313);
#248=DIRECTION('',(0.,0.,1.));
#249=DIRECTION('',(1.,0.,0.));
#250=DIRECTION('',(-1.,0.,0.));
#251=DIRECTION('',(0.,0.,1.));
#252=DIRECTION('',(-6.12303176911189E-17,-1.,-1.54886024640786E-16));
#253=DIRECTION('',(-1.,0.,0.));
#254=DIRECTION('',(0.,0.,1.));
#255=DIRECTION('',(-1.,0.,0.));
#256=DIRECTION('',(0.,0.,1.));
#257=DIRECTION('',(-1.,0.,0.));
#258=DIRECTION('',(0.,0.,1.));
#259=DIRECTION('',(-1.,0.,0.));
#260=DIRECTION('',(0.,0.,1.));
#261=DIRECTION('',(-1.,0.,0.));
#262=DIRECTION('',(0.,0.,1.));
#263=DIRECTION('',(-1.,0.,0.));
#264=DIRECTION('',(0.,0.,1.));
#265=DIRECTION('',(6.12303176911189E-17,1.,0.));
#266=DIRECTION('',(-1.,0.,0.));
#267=DIRECTION('',(0.,0.,1.));
#268=DIRECTION('',(-1.,0.,0.));
#269=DIRECTION('',(0.,0.,1.));
#270=DIRECTION('',(-1.,0.,0.));
#271=DIRECTION('',(-1.,6.12303176911189E-17,0.));
#272=DIRECTION('',(-6.12303176911189E-17,-1.,0.));
#273=DIRECTION('',(-1.,0.,0.));
#274=DIRECTION('',(-1.,0.,0.));
#275=DIRECTION('',(-1.,6.12303176911189E-17,0.));
#276=DIRECTION('',(-6.12303176911189E-17,-1.,0.));
#277=DIRECTION('',(-1.,0.,0.));
#278=DIRECTION('',(-1.,0.,0.));
#279=DIRECTION('',(0.,0.,1.));
#280=DIRECTION('',(1.,0.,0.));
#281=DIRECTION('',(0.,0.,-1.));
#282=DIRECTION('',(1.,0.,0.));
#283=DIRECTION('',(0.,0.,-1.));
#284=DIRECTION('',(-1.,0.,0.));
#285=DIRECTION('',(0.,0.,1.));
#286=DIRECTION('',(1.,0.,0.));
#287=DIRECTION('',(0.,0.,-1.));
#288=DIRECTION('',(-1.,0.,0.));
#289=DIRECTION('',(0.,0.,1.));
#290=DIRECTION('',(1.,0.,0.));
#291=DIRECTION('',(0.,0.,-1.));
#292=DIRECTION('',(1.,0.,0.));
#293=DIRECTION('',(0.,0.,-1.));
#294=DIRECTION('',(-1.,0.,0.));
#295=DIRECTION('',(0.,0.,1.));
#296=DIRECTION('',(1.,0.,0.));
#297=DIRECTION('',(0.,0.,-1.));
#298=DIRECTION('',(1.,0.,0.));
#299=DIRECTION('',(0.,0.,-1.));
#300=DIRECTION('',(0.,1.54886024640786E-16,-1.));
#301=DIRECTION('',(0.,1.,1.54886024640786E-16));
#302=DIRECTION('',(-6.12303176911189E-17,-1.,-1.54886024640786E-16));
#303=DIRECTION('',(0.,0.,1.));
#304=DIRECTION('',(1.,0.,0.));
#305=DIRECTION('',(6.12303176911189E-17,1.,0.));
#306=DIRECTION('',(-1.,6.12303176911189E-17,0.));
#307=DIRECTION('',(-6.12303176911189E-17,-1.,0.));
#308=DIRECTION('',(1.,0.,0.));
#309=DIRECTION('',(0.,0.,-1.));
#310=DIRECTION('',(1.,0.,0.));
#311=DIRECTION('',(0.,0.,-1.));
#312=DIRECTION('',(1.,0.,0.));
#313=DIRECTION('',(0.,0.,-1.));
#314=CARTESIAN_POINT('',(0.,0.,0.));
#315=CARTESIAN_POINT('',(0.,0.,0.));
#316=CARTESIAN_POINT('',(1.07153055959458E-16,1.75,-0.2));
#317=CARTESIAN_POINT('',(1.06450980875089E-16,1.73853386507137,-0.2));
#318=CARTESIAN_POINT('',(-1.06450980875089E-16,-1.73853386507137,-0.2));
#319=CARTESIAN_POINT('',(0.,0.,0.));
#320=CARTESIAN_POINT('',(4.82,0.,0.));
#321=CARTESIAN_POINT('',(4.52,0.,0.));
#322=CARTESIAN_POINT('',(4.52,0.,0.749999999999993));
#323=CARTESIAN_POINT('',(3.32,0.,0.));
#324=CARTESIAN_POINT('',(3.32,0.,0.749999999999993));
#325=CARTESIAN_POINT('',(3.73250000000002,0.,0.));
#326=CARTESIAN_POINT('',(0.,0.,0.));
#327=CARTESIAN_POINT('',(-1.07153055959458E-16,-1.75,0.2));
#328=CARTESIAN_POINT('',(-1.06450980875089E-16,-1.73853386507137,0.2));
#329=CARTESIAN_POINT('',(1.06450980875089E-16,1.73853386507137,0.2));
#330=CARTESIAN_POINT('',(0.,0.,0.));
#331=CARTESIAN_POINT('',(4.82,0.,0.));
#332=CARTESIAN_POINT('',(4.82,1.73853386507137,-0.2));
#333=CARTESIAN_POINT('',(0.35,1.73853386507137,-0.2));
#334=CARTESIAN_POINT('',(0.35,0.,0.));
#335=CARTESIAN_POINT('',(0.35,1.73853386507137,0.2));
#336=CARTESIAN_POINT('',(4.82,1.73853386507137,0.2));
#337=CARTESIAN_POINT('',(4.82,-1.73853386507137,0.2));
#338=CARTESIAN_POINT('',(0.35,-1.73853386507137,0.2));
#339=CARTESIAN_POINT('',(0.35,0.,0.));
#340=CARTESIAN_POINT('',(0.35,-1.73853386507137,-0.2));
#341=CARTESIAN_POINT('',(4.82,-1.73853386507137,-0.2));
#342=CARTESIAN_POINT('',(1.32,0.,0.));
#343=CARTESIAN_POINT('',(1.32,0.,1.75));
#344=CARTESIAN_POINT('',(1.32,0.,1.23999999999999));
#345=CARTESIAN_POINT('',(1.32,0.,0.));
#346=CARTESIAN_POINT('',(1.32,0.,-1.33999999999999));
#347=CARTESIAN_POINT('',(4.82,0.,0.));
#348=CARTESIAN_POINT('',(1.42,0.,0.));
#349=CARTESIAN_POINT('',(1.42,0.,-1.23999999999999));
#350=CARTESIAN_POINT('',(2.32,0.,0.));
#351=CARTESIAN_POINT('',(2.32,0.,1.23999999999999));
#352=CARTESIAN_POINT('',(2.32,0.,1.23999999999999));
#353=CARTESIAN_POINT('',(2.32,0.,0.));
#354=CARTESIAN_POINT('',(2.32,0.,-0.849999999999993));
#355=CARTESIAN_POINT('',(4.82,0.,0.));
#356=CARTESIAN_POINT('',(3.03715728752538,0.,0.));
#357=CARTESIAN_POINT('',(3.03715728752538,0.,-0.549999999999993));
#358=CARTESIAN_POINT('',(2.62,0.,0.));
#359=CARTESIAN_POINT('',(2.62,0.,-0.549999999999993));
#360=CARTESIAN_POINT('',(0.35,1.75,-0.2));
#361=CARTESIAN_POINT('',(0.35,1.75,-0.2));
#362=CARTESIAN_POINT('',(0.35,-1.75,0.2));
#363=CARTESIAN_POINT('',(0.35,-1.75,0.2));
#364=CARTESIAN_POINT('',(0.35,0.,0.));
#365=CARTESIAN_POINT('',(1.42,0.,0.));
#366=CARTESIAN_POINT('',(2.62,0.,0.));
#367=CARTESIAN_POINT('',(3.03715728752538,0.,0.));
#368=MECHANICAL_DESIGN_GEOMETRIC_PRESENTATION_REPRESENTATION('',(#208),
#369);
#369=(
GEOMETRIC_REPRESENTATION_CONTEXT(3)
GLOBAL_UNCERTAINTY_ASSIGNED_CONTEXT((#370))
GLOBAL_UNIT_ASSIGNED_CONTEXT((#373,#372,#371))
REPRESENTATION_CONTEXT('\X2\5F0069FD570667F159348F744F4D87BA9489\X0\',
'TOP_LEVEL_ASSEMBLY_PART')
);
#370=UNCERTAINTY_MEASURE_WITH_UNIT(LENGTH_MEASURE(0.005),#373,
'DISTANCE_ACCURACY_VALUE','Maximum Tolerance applied to model');
#371=(
NAMED_UNIT(*)
SI_UNIT($,.STERADIAN.)
SOLID_ANGLE_UNIT()
);
#372=(
NAMED_UNIT(*)
PLANE_ANGLE_UNIT()
SI_UNIT($,.RADIAN.)
);
#373=(
LENGTH_UNIT()
NAMED_UNIT(*)
SI_UNIT(.MILLI.,.METRE.)
);
#374=PRODUCT_DEFINITION_SHAPE('','',#375);
#375=PRODUCT_DEFINITION('','',#377,#376);
#376=PRODUCT_DEFINITION_CONTEXT('',#383,'design');
#377=PRODUCT_DEFINITION_FORMATION_WITH_SPECIFIED_SOURCE('','',#379,
 .NOT_KNOWN.);
#378=PRODUCT_RELATED_PRODUCT_CATEGORY('','',(#379));
#379=PRODUCT('\X2\5F0069FD570667F159348F744F4D87BA9489\X0\',
'\X2\5F0069FD570667F159348F744F4D87BA9489\X0\',
'\X2\5F0069FD570667F159348F744F4D87BA9489\X0\',(#381));
#380=PRODUCT_CATEGORY('','');
#381=PRODUCT_CONTEXT('',#383,'mechanical');
#382=APPLICATION_PROTOCOL_DEFINITION('international standard',
'automotive_design',2010,#383);
#383=APPLICATION_CONTEXT(
'core data for automotive mechanical design processes');
ENDSEC;
END-ISO-10303-21;
