ISO-10303-21;
HEADER;
/* Generated by software containing HOOPS Exchange Step
 * from HOOPS Exchange, Inc. (www.tiangong.cloud) 
 */

FILE_DESCRIPTION(
/* description */ ('Unknown'),
/* implementation_level */ '2;1');

FILE_NAME(
/* name */ 
'\X2\53415B5769FD6C89593487BA9489548C95255F6295017D2757AB57087EC454084EF6\X0\ 
GBT9074.9-1988',
/* time_stamp */ '2025-12-31T14:52:01+08:00',
/* author */ ('Unknown'),
/* organization */ ('Unknown'),
/* preprocessor_version */ 'ST-DEVELOPER v19.4',
/* originating_system */ 'TianGong',
/* authorisation */ 'Unknown');

FILE_SCHEMA (('AUTOMOTIVE_DESIGN {1 0 10303 214 3 1 1}'));
ENDSEC;

DATA;
#10=PROPERTY_DEFINITION_REPRESENTATION(#14,#12);
#11=PROPERTY_DEFINITION_REPRESENTATION(#15,#13);
#12=REPRESENTATION('',(#16),#1837);
#13=REPRESENTATION('',(#17),#1837);
#14=PROPERTY_DEFINITION('pmi validation property','',#1842);
#15=PROPERTY_DEFINITION('pmi validation property','',#1842);
#16=VALUE_REPRESENTATION_ITEM('number of annotations',COUNT_MEASURE(0.));
#17=VALUE_REPRESENTATION_ITEM('number of views',COUNT_MEASURE(0.));
#18=SHAPE_REPRESENTATION_RELATIONSHIP('','',#1148,#19);
#19=ADVANCED_BREP_SHAPE_REPRESENTATION('',(#1146),#1837);
#20=B_SPLINE_SURFACE_WITH_KNOTS('',3,1,((#1567,#1568),(#1569,#1570),(#1571,
#1572),(#1573,#1574),(#1575,#1576),(#1577,#1578)),.RULED_SURF.,.F.,.F.,
 .F.,(4,2,4),(2,2),(0.,0.25,0.37725),(0.,1.),.UNSPECIFIED.);
#21=B_SPLINE_SURFACE_WITH_KNOTS('',3,1,((#1596,#1597),(#1598,#1599),(#1600,
#1601),(#1602,#1603),(#1604,#1605),(#1606,#1607)),.RULED_SURF.,.F.,.F.,
 .F.,(4,2,4),(2,2),(0.,0.25,0.37725),(0.,1.),.UNSPECIFIED.);
#22=B_SPLINE_SURFACE_WITH_KNOTS('',3,1,((#1625,#1626),(#1627,#1628),(#1629,
#1630),(#1631,#1632),(#1633,#1634),(#1635,#1636)),.RULED_SURF.,.F.,.F.,
 .F.,(4,2,4),(2,2),(0.62275,0.75,1.),(0.,1.),.UNSPECIFIED.);
#23=B_SPLINE_SURFACE_WITH_KNOTS('',3,1,((#1677,#1678),(#1679,#1680),(#1681,
#1682),(#1683,#1684)),.RULED_SURF.,.F.,.F.,.F.,(4,4),(2,2),(0.,1.),(0.,
1.),.PIECEWISE_BEZIER_KNOTS.);
#24=B_SPLINE_SURFACE_WITH_KNOTS('',3,1,((#1686,#1687),(#1688,#1689),(#1690,
#1691),(#1692,#1693)),.RULED_SURF.,.F.,.F.,.F.,(4,4),(2,2),(0.,1.),(0.,
1.),.PIECEWISE_BEZIER_KNOTS.);
#25=B_SPLINE_SURFACE_WITH_KNOTS('',3,1,((#1697,#1698),(#1699,#1700),(#1701,
#1702),(#1703,#1704),(#1705,#1706),(#1707,#1708)),.RULED_SURF.,.F.,.F.,
 .F.,(4,2,4),(2,2),(0.62275,0.75,1.),(0.,1.),.UNSPECIFIED.);
#26=B_SPLINE_SURFACE_WITH_KNOTS('',3,1,((#1753,#1754),(#1755,#1756),(#1757,
#1758),(#1759,#1760),(#1761,#1762),(#1763,#1764)),.RULED_SURF.,.F.,.F.,
 .F.,(4,2,4),(2,2),(0.,0.25,0.37725),(0.,1.),.UNSPECIFIED.);
#27=B_SPLINE_SURFACE_WITH_KNOTS('',3,1,((#1766,#1767),(#1768,#1769),(#1770,
#1771),(#1772,#1773),(#1774,#1775),(#1776,#1777)),.RULED_SURF.,.F.,.F.,
 .F.,(4,2,4),(2,2),(0.62275,0.75,1.),(0.,1.),.UNSPECIFIED.);
#28=B_SPLINE_SURFACE_WITH_KNOTS('',3,1,((#1779,#1780),(#1781,#1782),(#1783,
#1784),(#1785,#1786)),.RULED_SURF.,.F.,.F.,.F.,(4,4),(2,2),(0.,1.),(0.,
1.),.PIECEWISE_BEZIER_KNOTS.);
#29=B_SPLINE_SURFACE_WITH_KNOTS('',3,1,((#1787,#1788),(#1789,#1790),(#1791,
#1792),(#1793,#1794),(#1795,#1796),(#1797,#1798)),.RULED_SURF.,.F.,.F.,
 .F.,(4,2,4),(2,2),(0.62275,0.75,1.),(0.,1.),.UNSPECIFIED.);
#30=B_SPLINE_SURFACE_WITH_KNOTS('',3,1,((#1800,#1801),(#1802,#1803),(#1804,
#1805),(#1806,#1807),(#1808,#1809),(#1810,#1811)),.RULED_SURF.,.F.,.F.,
 .F.,(4,2,4),(2,2),(0.,0.25,0.37725),(0.,1.),.UNSPECIFIED.);
#31=B_SPLINE_SURFACE_WITH_KNOTS('',3,1,((#1813,#1814),(#1815,#1816),(#1817,
#1818),(#1819,#1820)),.RULED_SURF.,.F.,.F.,.F.,(4,4),(2,2),(0.,1.),(0.,
1.),.PIECEWISE_BEZIER_KNOTS.);
#32=CONICAL_SURFACE('',#1184,3.,0.785398163397447);
#33=CYLINDRICAL_SURFACE('',#1175,3.);
#34=CYLINDRICAL_SURFACE('',#1206,1.5);
#35=B_SPLINE_CURVE_WITH_KNOTS('',3,(#1424,#1425,#1426,#1427),
 .UNSPECIFIED.,.F.,.F.,(4,4),(0.00166916275071198,0.00206082523448867),
 .UNSPECIFIED.);
#36=B_SPLINE_CURVE_WITH_KNOTS('',3,(#1450,#1451,#1452,#1453),
 .UNSPECIFIED.,.F.,.F.,(4,4),(0.00166916275071198,0.00206082523448867),
 .UNSPECIFIED.);
#37=B_SPLINE_CURVE_WITH_KNOTS('',3,(#1476,#1477,#1478,#1479),
 .UNSPECIFIED.,.F.,.F.,(4,4),(0.00166916275071198,0.00206082523448867),
 .UNSPECIFIED.);
#38=B_SPLINE_CURVE_WITH_KNOTS('',3,(#1502,#1503,#1504,#1505),
 .UNSPECIFIED.,.F.,.F.,(4,4),(0.00166916275071198,0.00206082523448867),
 .UNSPECIFIED.);
#39=B_SPLINE_CURVE_WITH_KNOTS('',3,(#1528,#1529,#1530,#1531),
 .UNSPECIFIED.,.F.,.F.,(4,4),(0.00166916275071198,0.00206082523448867),
 .UNSPECIFIED.);
#40=B_SPLINE_CURVE_WITH_KNOTS('',3,(#1561,#1562,#1563,#1564),
 .UNSPECIFIED.,.F.,.F.,(4,4),(0.00166916275071198,0.00206082523448867),
 .UNSPECIFIED.);
#41=B_SPLINE_CURVE_WITH_KNOTS('',3,(#1579,#1580,#1581,#1582),
 .UNSPECIFIED.,.F.,.F.,(4,4),(0.,0.999999961476253),.UNSPECIFIED.);
#42=B_SPLINE_CURVE_WITH_KNOTS('',3,(#1585,#1586,#1587,#1588,#1589),
 .UNSPECIFIED.,.F.,.F.,(4,1,4),(0.,0.000624807112624997,0.00124961422524999),
 .UNSPECIFIED.);
#43=B_SPLINE_CURVE_WITH_KNOTS('',3,(#1608,#1609,#1610,#1611),
 .UNSPECIFIED.,.F.,.F.,(4,4),(0.,0.999999961476253),.UNSPECIFIED.);
#44=B_SPLINE_CURVE_WITH_KNOTS('',3,(#1614,#1615,#1616,#1617,#1618),
 .UNSPECIFIED.,.F.,.F.,(4,1,4),(0.,0.000624807112624997,0.00124961422524999),
 .UNSPECIFIED.);
#45=B_SPLINE_CURVE_WITH_KNOTS('',3,(#1637,#1638,#1639,#1640,#1641),
 .UNSPECIFIED.,.F.,.F.,(4,1,4),(0.,0.000624807112624997,0.00124961422524999),
 .UNSPECIFIED.);
#46=B_SPLINE_CURVE_WITH_KNOTS('',3,(#1644,#1645,#1646,#1647),
 .UNSPECIFIED.,.F.,.F.,(4,4),(0.,0.999999961458323),.UNSPECIFIED.);
#47=B_SPLINE_CURVE_WITH_KNOTS('',3,(#1651,#1652,#1653,#1654),
 .UNSPECIFIED.,.F.,.F.,(4,4),(0.839212741294196,0.935984410988405),
 .UNSPECIFIED.);
#48=B_SPLINE_CURVE_WITH_KNOTS('',3,(#1709,#1710,#1711,#1712,#1713),
 .UNSPECIFIED.,.F.,.F.,(4,1,4),(0.,0.000624807112624997,0.00124961422524999),
 .UNSPECIFIED.);
#49=B_SPLINE_CURVE_WITH_KNOTS('',3,(#1715,#1716,#1717,#1718),
 .UNSPECIFIED.,.F.,.F.,(4,4),(0.,0.999999961458323),.UNSPECIFIED.);
#50=B_SPLINE_CURVE_WITH_KNOTS('',3,(#1722,#1723,#1724,#1725),
 .UNSPECIFIED.,.F.,.F.,(4,4),(0.839212741279435,0.935984777397983),
 .UNSPECIFIED.);
#51=B_SPLINE_CURVE_WITH_KNOTS('',3,(#1735,#1736,#1737,#1738),
 .UNSPECIFIED.,.F.,.F.,(4,4),(0.214214173684091,0.311217711924169),
 .UNSPECIFIED.);
#52=B_SPLINE_CURVE_WITH_KNOTS('',3,(#1747,#1748,#1749,#1750),
 .UNSPECIFIED.,.F.,.F.,(4,4),(0.00127384271951907,0.00133192882683789),
 .UNSPECIFIED.);
#53=CIRCLE('',#1151,3.);
#54=CIRCLE('',#1156,3.);
#55=CIRCLE('',#1161,3.);
#56=CIRCLE('',#1166,3.);
#57=CIRCLE('',#1171,3.);
#58=CIRCLE('',#1176,3.);
#59=CIRCLE('',#1177,3.);
#60=CIRCLE('',#1178,3.);
#61=CIRCLE('',#1179,3.);
#62=CIRCLE('',#1180,3.);
#63=CIRCLE('',#1181,3.);
#64=CIRCLE('',#1182,3.);
#65=CIRCLE('',#1183,3.);
#66=CIRCLE('',#1185,1.5);
#67=CIRCLE('',#1186,0.24);
#68=CIRCLE('',#1187,0.24);
#69=CIRCLE('',#1188,0.24);
#70=CIRCLE('',#1189,0.24);
#71=CIRCLE('',#1191,0.24);
#72=CIRCLE('',#1192,0.24);
#73=CIRCLE('',#1193,0.24);
#74=CIRCLE('',#1194,0.24);
#75=CIRCLE('',#1196,0.24);
#76=CIRCLE('',#1197,0.24);
#77=CIRCLE('',#1198,0.24);
#78=CIRCLE('',#1199,0.24);
#79=CIRCLE('',#1200,0.24);
#80=CIRCLE('',#1201,0.24);
#81=CIRCLE('',#1202,0.24);
#82=CIRCLE('',#1203,0.24);
#83=CIRCLE('',#1205,1.5);
#84=ORIENTED_EDGE('',*,*,#330,.T.);
#85=ORIENTED_EDGE('',*,*,#331,.T.);
#86=ORIENTED_EDGE('',*,*,#332,.T.);
#87=ORIENTED_EDGE('',*,*,#333,.T.);
#88=ORIENTED_EDGE('',*,*,#334,.T.);
#89=ORIENTED_EDGE('',*,*,#333,.F.);
#90=ORIENTED_EDGE('',*,*,#335,.F.);
#91=ORIENTED_EDGE('',*,*,#336,.F.);
#92=ORIENTED_EDGE('',*,*,#337,.T.);
#93=ORIENTED_EDGE('',*,*,#330,.F.);
#94=ORIENTED_EDGE('',*,*,#334,.F.);
#95=ORIENTED_EDGE('',*,*,#338,.F.);
#96=ORIENTED_EDGE('',*,*,#339,.T.);
#97=ORIENTED_EDGE('',*,*,#340,.F.);
#98=ORIENTED_EDGE('',*,*,#335,.T.);
#99=ORIENTED_EDGE('',*,*,#332,.F.);
#100=ORIENTED_EDGE('',*,*,#341,.T.);
#101=ORIENTED_EDGE('',*,*,#342,.T.);
#102=ORIENTED_EDGE('',*,*,#343,.T.);
#103=ORIENTED_EDGE('',*,*,#344,.T.);
#104=ORIENTED_EDGE('',*,*,#345,.T.);
#105=ORIENTED_EDGE('',*,*,#344,.F.);
#106=ORIENTED_EDGE('',*,*,#346,.F.);
#107=ORIENTED_EDGE('',*,*,#347,.F.);
#108=ORIENTED_EDGE('',*,*,#348,.T.);
#109=ORIENTED_EDGE('',*,*,#341,.F.);
#110=ORIENTED_EDGE('',*,*,#345,.F.);
#111=ORIENTED_EDGE('',*,*,#349,.F.);
#112=ORIENTED_EDGE('',*,*,#350,.T.);
#113=ORIENTED_EDGE('',*,*,#351,.F.);
#114=ORIENTED_EDGE('',*,*,#346,.T.);
#115=ORIENTED_EDGE('',*,*,#343,.F.);
#116=ORIENTED_EDGE('',*,*,#352,.T.);
#117=ORIENTED_EDGE('',*,*,#353,.T.);
#118=ORIENTED_EDGE('',*,*,#354,.T.);
#119=ORIENTED_EDGE('',*,*,#355,.T.);
#120=ORIENTED_EDGE('',*,*,#356,.T.);
#121=ORIENTED_EDGE('',*,*,#355,.F.);
#122=ORIENTED_EDGE('',*,*,#357,.F.);
#123=ORIENTED_EDGE('',*,*,#358,.F.);
#124=ORIENTED_EDGE('',*,*,#359,.T.);
#125=ORIENTED_EDGE('',*,*,#352,.F.);
#126=ORIENTED_EDGE('',*,*,#356,.F.);
#127=ORIENTED_EDGE('',*,*,#360,.F.);
#128=ORIENTED_EDGE('',*,*,#361,.T.);
#129=ORIENTED_EDGE('',*,*,#362,.F.);
#130=ORIENTED_EDGE('',*,*,#357,.T.);
#131=ORIENTED_EDGE('',*,*,#354,.F.);
#132=ORIENTED_EDGE('',*,*,#363,.T.);
#133=ORIENTED_EDGE('',*,*,#364,.T.);
#134=ORIENTED_EDGE('',*,*,#365,.T.);
#135=ORIENTED_EDGE('',*,*,#366,.T.);
#136=ORIENTED_EDGE('',*,*,#367,.T.);
#137=ORIENTED_EDGE('',*,*,#366,.F.);
#138=ORIENTED_EDGE('',*,*,#368,.F.);
#139=ORIENTED_EDGE('',*,*,#369,.F.);
#140=ORIENTED_EDGE('',*,*,#370,.T.);
#141=ORIENTED_EDGE('',*,*,#363,.F.);
#142=ORIENTED_EDGE('',*,*,#367,.F.);
#143=ORIENTED_EDGE('',*,*,#371,.F.);
#144=ORIENTED_EDGE('',*,*,#372,.T.);
#145=ORIENTED_EDGE('',*,*,#373,.F.);
#146=ORIENTED_EDGE('',*,*,#368,.T.);
#147=ORIENTED_EDGE('',*,*,#365,.F.);
#148=ORIENTED_EDGE('',*,*,#374,.T.);
#149=ORIENTED_EDGE('',*,*,#375,.T.);
#150=ORIENTED_EDGE('',*,*,#376,.T.);
#151=ORIENTED_EDGE('',*,*,#377,.T.);
#152=ORIENTED_EDGE('',*,*,#378,.T.);
#153=ORIENTED_EDGE('',*,*,#377,.F.);
#154=ORIENTED_EDGE('',*,*,#379,.F.);
#155=ORIENTED_EDGE('',*,*,#380,.F.);
#156=ORIENTED_EDGE('',*,*,#381,.T.);
#157=ORIENTED_EDGE('',*,*,#374,.F.);
#158=ORIENTED_EDGE('',*,*,#378,.F.);
#159=ORIENTED_EDGE('',*,*,#382,.F.);
#160=ORIENTED_EDGE('',*,*,#383,.T.);
#161=ORIENTED_EDGE('',*,*,#384,.F.);
#162=ORIENTED_EDGE('',*,*,#379,.T.);
#163=ORIENTED_EDGE('',*,*,#376,.F.);
#164=ORIENTED_EDGE('',*,*,#385,.F.);
#165=ORIENTED_EDGE('',*,*,#386,.T.);
#166=ORIENTED_EDGE('',*,*,#339,.F.);
#167=ORIENTED_EDGE('',*,*,#331,.F.);
#168=ORIENTED_EDGE('',*,*,#337,.F.);
#169=ORIENTED_EDGE('',*,*,#387,.T.);
#170=ORIENTED_EDGE('',*,*,#350,.F.);
#171=ORIENTED_EDGE('',*,*,#342,.F.);
#172=ORIENTED_EDGE('',*,*,#348,.F.);
#173=ORIENTED_EDGE('',*,*,#388,.T.);
#174=ORIENTED_EDGE('',*,*,#361,.F.);
#175=ORIENTED_EDGE('',*,*,#353,.F.);
#176=ORIENTED_EDGE('',*,*,#359,.F.);
#177=ORIENTED_EDGE('',*,*,#389,.T.);
#178=ORIENTED_EDGE('',*,*,#372,.F.);
#179=ORIENTED_EDGE('',*,*,#364,.F.);
#180=ORIENTED_EDGE('',*,*,#370,.F.);
#181=ORIENTED_EDGE('',*,*,#390,.T.);
#182=ORIENTED_EDGE('',*,*,#383,.F.);
#183=ORIENTED_EDGE('',*,*,#375,.F.);
#184=ORIENTED_EDGE('',*,*,#381,.F.);
#185=ORIENTED_EDGE('',*,*,#391,.T.);
#186=ORIENTED_EDGE('',*,*,#392,.F.);
#187=ORIENTED_EDGE('',*,*,#393,.F.);
#188=ORIENTED_EDGE('',*,*,#394,.F.);
#189=ORIENTED_EDGE('',*,*,#395,.T.);
#190=ORIENTED_EDGE('',*,*,#386,.F.);
#191=ORIENTED_EDGE('',*,*,#396,.T.);
#192=ORIENTED_EDGE('',*,*,#397,.T.);
#193=ORIENTED_EDGE('',*,*,#398,.T.);
#194=ORIENTED_EDGE('',*,*,#391,.F.);
#195=ORIENTED_EDGE('',*,*,#382,.T.);
#196=ORIENTED_EDGE('',*,*,#380,.T.);
#197=ORIENTED_EDGE('',*,*,#384,.T.);
#198=ORIENTED_EDGE('',*,*,#390,.F.);
#199=ORIENTED_EDGE('',*,*,#371,.T.);
#200=ORIENTED_EDGE('',*,*,#369,.T.);
#201=ORIENTED_EDGE('',*,*,#373,.T.);
#202=ORIENTED_EDGE('',*,*,#389,.F.);
#203=ORIENTED_EDGE('',*,*,#360,.T.);
#204=ORIENTED_EDGE('',*,*,#358,.T.);
#205=ORIENTED_EDGE('',*,*,#362,.T.);
#206=ORIENTED_EDGE('',*,*,#388,.F.);
#207=ORIENTED_EDGE('',*,*,#349,.T.);
#208=ORIENTED_EDGE('',*,*,#347,.T.);
#209=ORIENTED_EDGE('',*,*,#351,.T.);
#210=ORIENTED_EDGE('',*,*,#387,.F.);
#211=ORIENTED_EDGE('',*,*,#338,.T.);
#212=ORIENTED_EDGE('',*,*,#336,.T.);
#213=ORIENTED_EDGE('',*,*,#340,.T.);
#214=ORIENTED_EDGE('',*,*,#399,.F.);
#215=ORIENTED_EDGE('',*,*,#400,.T.);
#216=ORIENTED_EDGE('',*,*,#401,.F.);
#217=ORIENTED_EDGE('',*,*,#402,.T.);
#218=ORIENTED_EDGE('',*,*,#403,.T.);
#219=ORIENTED_EDGE('',*,*,#404,.F.);
#220=ORIENTED_EDGE('',*,*,#405,.T.);
#221=ORIENTED_EDGE('',*,*,#406,.F.);
#222=ORIENTED_EDGE('',*,*,#407,.T.);
#223=ORIENTED_EDGE('',*,*,#408,.T.);
#224=ORIENTED_EDGE('',*,*,#409,.T.);
#225=ORIENTED_EDGE('',*,*,#410,.T.);
#226=ORIENTED_EDGE('',*,*,#411,.T.);
#227=ORIENTED_EDGE('',*,*,#412,.T.);
#228=ORIENTED_EDGE('',*,*,#413,.T.);
#229=ORIENTED_EDGE('',*,*,#414,.F.);
#230=ORIENTED_EDGE('',*,*,#415,.F.);
#231=ORIENTED_EDGE('',*,*,#416,.T.);
#232=ORIENTED_EDGE('',*,*,#417,.T.);
#233=ORIENTED_EDGE('',*,*,#418,.T.);
#234=ORIENTED_EDGE('',*,*,#419,.T.);
#235=ORIENTED_EDGE('',*,*,#406,.T.);
#236=ORIENTED_EDGE('',*,*,#420,.T.);
#237=ORIENTED_EDGE('',*,*,#421,.T.);
#238=ORIENTED_EDGE('',*,*,#422,.T.);
#239=ORIENTED_EDGE('',*,*,#415,.T.);
#240=ORIENTED_EDGE('',*,*,#423,.T.);
#241=ORIENTED_EDGE('',*,*,#401,.T.);
#242=ORIENTED_EDGE('',*,*,#424,.T.);
#243=ORIENTED_EDGE('',*,*,#385,.T.);
#244=ORIENTED_EDGE('',*,*,#425,.T.);
#245=ORIENTED_EDGE('',*,*,#402,.F.);
#246=ORIENTED_EDGE('',*,*,#423,.F.);
#247=ORIENTED_EDGE('',*,*,#414,.T.);
#248=ORIENTED_EDGE('',*,*,#407,.F.);
#249=ORIENTED_EDGE('',*,*,#419,.F.);
#250=ORIENTED_EDGE('',*,*,#426,.T.);
#251=ORIENTED_EDGE('',*,*,#427,.T.);
#252=ORIENTED_EDGE('',*,*,#428,.T.);
#253=ORIENTED_EDGE('',*,*,#429,.T.);
#254=ORIENTED_EDGE('',*,*,#430,.T.);
#255=ORIENTED_EDGE('',*,*,#431,.T.);
#256=ORIENTED_EDGE('',*,*,#432,.T.);
#257=ORIENTED_EDGE('',*,*,#426,.F.);
#258=ORIENTED_EDGE('',*,*,#418,.F.);
#259=ORIENTED_EDGE('',*,*,#403,.F.);
#260=ORIENTED_EDGE('',*,*,#425,.F.);
#261=ORIENTED_EDGE('',*,*,#413,.F.);
#262=ORIENTED_EDGE('',*,*,#412,.F.);
#263=ORIENTED_EDGE('',*,*,#411,.F.);
#264=ORIENTED_EDGE('',*,*,#433,.F.);
#265=ORIENTED_EDGE('',*,*,#434,.F.);
#266=ORIENTED_EDGE('',*,*,#435,.F.);
#267=ORIENTED_EDGE('',*,*,#436,.T.);
#268=ORIENTED_EDGE('',*,*,#437,.F.);
#269=ORIENTED_EDGE('',*,*,#408,.F.);
#270=ORIENTED_EDGE('',*,*,#427,.F.);
#271=ORIENTED_EDGE('',*,*,#432,.F.);
#272=ORIENTED_EDGE('',*,*,#431,.F.);
#273=ORIENTED_EDGE('',*,*,#430,.F.);
#274=ORIENTED_EDGE('',*,*,#438,.F.);
#275=ORIENTED_EDGE('',*,*,#439,.F.);
#276=ORIENTED_EDGE('',*,*,#440,.F.);
#277=ORIENTED_EDGE('',*,*,#441,.T.);
#278=ORIENTED_EDGE('',*,*,#442,.F.);
#279=ORIENTED_EDGE('',*,*,#409,.F.);
#280=ORIENTED_EDGE('',*,*,#422,.F.);
#281=ORIENTED_EDGE('',*,*,#443,.T.);
#282=ORIENTED_EDGE('',*,*,#433,.T.);
#283=ORIENTED_EDGE('',*,*,#410,.F.);
#284=ORIENTED_EDGE('',*,*,#404,.T.);
#285=ORIENTED_EDGE('',*,*,#437,.T.);
#286=ORIENTED_EDGE('',*,*,#436,.F.);
#287=ORIENTED_EDGE('',*,*,#435,.T.);
#288=ORIENTED_EDGE('',*,*,#444,.F.);
#289=ORIENTED_EDGE('',*,*,#420,.F.);
#290=ORIENTED_EDGE('',*,*,#405,.F.);
#291=ORIENTED_EDGE('',*,*,#434,.T.);
#292=ORIENTED_EDGE('',*,*,#443,.F.);
#293=ORIENTED_EDGE('',*,*,#421,.F.);
#294=ORIENTED_EDGE('',*,*,#444,.T.);
#295=ORIENTED_EDGE('',*,*,#399,.T.);
#296=ORIENTED_EDGE('',*,*,#442,.T.);
#297=ORIENTED_EDGE('',*,*,#441,.F.);
#298=ORIENTED_EDGE('',*,*,#440,.T.);
#299=ORIENTED_EDGE('',*,*,#445,.F.);
#300=ORIENTED_EDGE('',*,*,#424,.F.);
#301=ORIENTED_EDGE('',*,*,#400,.F.);
#302=ORIENTED_EDGE('',*,*,#428,.F.);
#303=ORIENTED_EDGE('',*,*,#417,.F.);
#304=ORIENTED_EDGE('',*,*,#446,.T.);
#305=ORIENTED_EDGE('',*,*,#438,.T.);
#306=ORIENTED_EDGE('',*,*,#429,.F.);
#307=ORIENTED_EDGE('',*,*,#446,.F.);
#308=ORIENTED_EDGE('',*,*,#416,.F.);
#309=ORIENTED_EDGE('',*,*,#445,.T.);
#310=ORIENTED_EDGE('',*,*,#439,.T.);
#311=ORIENTED_EDGE('',*,*,#447,.F.);
#312=ORIENTED_EDGE('',*,*,#395,.F.);
#313=ORIENTED_EDGE('',*,*,#447,.T.);
#314=ORIENTED_EDGE('',*,*,#448,.T.);
#315=ORIENTED_EDGE('',*,*,#393,.T.);
#316=ORIENTED_EDGE('',*,*,#449,.T.);
#317=ORIENTED_EDGE('',*,*,#450,.T.);
#318=ORIENTED_EDGE('',*,*,#451,.T.);
#319=ORIENTED_EDGE('',*,*,#450,.F.);
#320=ORIENTED_EDGE('',*,*,#452,.F.);
#321=ORIENTED_EDGE('',*,*,#397,.F.);
#322=ORIENTED_EDGE('',*,*,#394,.T.);
#323=ORIENTED_EDGE('',*,*,#448,.F.);
#324=ORIENTED_EDGE('',*,*,#451,.F.);
#325=ORIENTED_EDGE('',*,*,#396,.F.);
#326=ORIENTED_EDGE('',*,*,#392,.T.);
#327=ORIENTED_EDGE('',*,*,#398,.F.);
#328=ORIENTED_EDGE('',*,*,#452,.T.);
#329=ORIENTED_EDGE('',*,*,#449,.F.);
#330=EDGE_CURVE('',#453,#454,#540,.T.);
#331=EDGE_CURVE('',#454,#455,#53,.T.);
#332=EDGE_CURVE('',#455,#456,#541,.T.);
#333=EDGE_CURVE('',#456,#453,#542,.T.);
#334=EDGE_CURVE('',#457,#453,#543,.T.);
#335=EDGE_CURVE('',#458,#456,#544,.T.);
#336=EDGE_CURVE('',#457,#458,#35,.T.);
#337=EDGE_CURVE('',#459,#454,#545,.T.);
#338=EDGE_CURVE('',#459,#457,#546,.F.);
#339=EDGE_CURVE('',#455,#460,#547,.F.);
#340=EDGE_CURVE('',#458,#460,#548,.F.);
#341=EDGE_CURVE('',#461,#462,#549,.T.);
#342=EDGE_CURVE('',#462,#463,#54,.T.);
#343=EDGE_CURVE('',#463,#464,#550,.T.);
#344=EDGE_CURVE('',#464,#461,#551,.T.);
#345=EDGE_CURVE('',#465,#461,#552,.T.);
#346=EDGE_CURVE('',#466,#464,#553,.T.);
#347=EDGE_CURVE('',#465,#466,#36,.T.);
#348=EDGE_CURVE('',#467,#462,#554,.T.);
#349=EDGE_CURVE('',#467,#465,#555,.F.);
#350=EDGE_CURVE('',#463,#468,#556,.F.);
#351=EDGE_CURVE('',#466,#468,#557,.F.);
#352=EDGE_CURVE('',#469,#470,#558,.T.);
#353=EDGE_CURVE('',#470,#471,#55,.T.);
#354=EDGE_CURVE('',#471,#472,#559,.T.);
#355=EDGE_CURVE('',#472,#469,#560,.T.);
#356=EDGE_CURVE('',#473,#469,#561,.T.);
#357=EDGE_CURVE('',#474,#472,#562,.T.);
#358=EDGE_CURVE('',#473,#474,#37,.T.);
#359=EDGE_CURVE('',#475,#470,#563,.T.);
#360=EDGE_CURVE('',#475,#473,#564,.F.);
#361=EDGE_CURVE('',#471,#476,#565,.F.);
#362=EDGE_CURVE('',#474,#476,#566,.F.);
#363=EDGE_CURVE('',#477,#478,#567,.T.);
#364=EDGE_CURVE('',#478,#479,#56,.T.);
#365=EDGE_CURVE('',#479,#480,#568,.T.);
#366=EDGE_CURVE('',#480,#477,#569,.T.);
#367=EDGE_CURVE('',#481,#477,#570,.T.);
#368=EDGE_CURVE('',#482,#480,#571,.T.);
#369=EDGE_CURVE('',#481,#482,#38,.T.);
#370=EDGE_CURVE('',#483,#478,#572,.T.);
#371=EDGE_CURVE('',#483,#481,#573,.F.);
#372=EDGE_CURVE('',#479,#484,#574,.F.);
#373=EDGE_CURVE('',#482,#484,#575,.F.);
#374=EDGE_CURVE('',#485,#486,#576,.T.);
#375=EDGE_CURVE('',#486,#487,#57,.T.);
#376=EDGE_CURVE('',#487,#488,#577,.T.);
#377=EDGE_CURVE('',#488,#485,#578,.T.);
#378=EDGE_CURVE('',#489,#485,#579,.T.);
#379=EDGE_CURVE('',#490,#488,#580,.T.);
#380=EDGE_CURVE('',#489,#490,#39,.T.);
#381=EDGE_CURVE('',#491,#486,#581,.T.);
#382=EDGE_CURVE('',#491,#489,#582,.F.);
#383=EDGE_CURVE('',#487,#492,#583,.F.);
#384=EDGE_CURVE('',#490,#492,#584,.F.);
#385=EDGE_CURVE('',#493,#493,#58,.T.);
#386=EDGE_CURVE('',#494,#460,#59,.T.);
#387=EDGE_CURVE('',#459,#468,#60,.T.);
#388=EDGE_CURVE('',#467,#476,#61,.T.);
#389=EDGE_CURVE('',#475,#484,#62,.T.);
#390=EDGE_CURVE('',#483,#492,#63,.T.);
#391=EDGE_CURVE('',#491,#495,#64,.T.);
#392=EDGE_CURVE('',#496,#495,#585,.F.);
#393=EDGE_CURVE('',#497,#496,#65,.T.);
#394=EDGE_CURVE('',#494,#497,#586,.T.);
#395=EDGE_CURVE('',#498,#498,#66,.T.);
#396=EDGE_CURVE('',#494,#499,#587,.F.);
#397=EDGE_CURVE('',#499,#500,#40,.T.);
#398=EDGE_CURVE('',#500,#495,#588,.F.);
#399=EDGE_CURVE('',#501,#502,#41,.T.);
#400=EDGE_CURVE('',#501,#503,#42,.F.);
#401=EDGE_CURVE('',#504,#503,#589,.T.);
#402=EDGE_CURVE('',#504,#505,#590,.T.);
#403=EDGE_CURVE('',#505,#502,#67,.F.);
#404=EDGE_CURVE('',#506,#507,#43,.T.);
#405=EDGE_CURVE('',#506,#508,#44,.F.);
#406=EDGE_CURVE('',#509,#508,#591,.T.);
#407=EDGE_CURVE('',#509,#510,#592,.T.);
#408=EDGE_CURVE('',#510,#507,#68,.F.);
#409=EDGE_CURVE('',#511,#512,#45,.T.);
#410=EDGE_CURVE('',#512,#513,#46,.T.);
#411=EDGE_CURVE('',#513,#514,#69,.F.);
#412=EDGE_CURVE('',#514,#515,#47,.T.);
#413=EDGE_CURVE('',#515,#516,#70,.F.);
#414=EDGE_CURVE('',#517,#516,#593,.T.);
#415=EDGE_CURVE('',#511,#517,#594,.T.);
#416=EDGE_CURVE('',#518,#519,#595,.T.);
#417=EDGE_CURVE('',#519,#520,#596,.T.);
#418=EDGE_CURVE('',#520,#521,#597,.T.);
#419=EDGE_CURVE('',#521,#509,#598,.T.);
#420=EDGE_CURVE('',#508,#522,#599,.T.);
#421=EDGE_CURVE('',#522,#523,#600,.T.);
#422=EDGE_CURVE('',#523,#511,#601,.T.);
#423=EDGE_CURVE('',#517,#504,#602,.T.);
#424=EDGE_CURVE('',#503,#518,#603,.T.);
#425=EDGE_CURVE('',#516,#505,#71,.F.);
#426=EDGE_CURVE('',#521,#524,#604,.T.);
#427=EDGE_CURVE('',#524,#510,#72,.F.);
#428=EDGE_CURVE('',#520,#525,#48,.T.);
#429=EDGE_CURVE('',#525,#526,#49,.T.);
#430=EDGE_CURVE('',#526,#527,#73,.F.);
#431=EDGE_CURVE('',#527,#528,#50,.T.);
#432=EDGE_CURVE('',#528,#524,#74,.F.);
#433=EDGE_CURVE('',#529,#513,#75,.F.);
#434=EDGE_CURVE('',#530,#529,#76,.F.);
#435=EDGE_CURVE('',#531,#530,#77,.F.);
#436=EDGE_CURVE('',#531,#532,#51,.F.);
#437=EDGE_CURVE('',#507,#532,#78,.F.);
#438=EDGE_CURVE('',#533,#526,#79,.F.);
#439=EDGE_CURVE('',#534,#533,#80,.F.);
#440=EDGE_CURVE('',#535,#534,#81,.F.);
#441=EDGE_CURVE('',#535,#536,#52,.F.);
#442=EDGE_CURVE('',#502,#536,#82,.F.);
#443=EDGE_CURVE('',#523,#529,#605,.T.);
#444=EDGE_CURVE('',#522,#530,#606,.T.);
#445=EDGE_CURVE('',#518,#534,#607,.T.);
#446=EDGE_CURVE('',#519,#533,#608,.T.);
#447=EDGE_CURVE('',#537,#537,#83,.T.);
#448=EDGE_CURVE('',#538,#497,#609,.T.);
#449=EDGE_CURVE('',#496,#539,#610,.T.);
#450=EDGE_CURVE('',#539,#538,#611,.T.);
#451=EDGE_CURVE('',#499,#538,#612,.T.);
#452=EDGE_CURVE('',#500,#539,#613,.T.);
#453=VERTEX_POINT('',#1412);
#454=VERTEX_POINT('',#1413);
#455=VERTEX_POINT('',#1415);
#456=VERTEX_POINT('',#1417);
#457=VERTEX_POINT('',#1421);
#458=VERTEX_POINT('',#1423);
#459=VERTEX_POINT('',#1430);
#460=VERTEX_POINT('',#1434);
#461=VERTEX_POINT('',#1438);
#462=VERTEX_POINT('',#1439);
#463=VERTEX_POINT('',#1441);
#464=VERTEX_POINT('',#1443);
#465=VERTEX_POINT('',#1447);
#466=VERTEX_POINT('',#1449);
#467=VERTEX_POINT('',#1456);
#468=VERTEX_POINT('',#1460);
#469=VERTEX_POINT('',#1464);
#470=VERTEX_POINT('',#1465);
#471=VERTEX_POINT('',#1467);
#472=VERTEX_POINT('',#1469);
#473=VERTEX_POINT('',#1473);
#474=VERTEX_POINT('',#1475);
#475=VERTEX_POINT('',#1482);
#476=VERTEX_POINT('',#1486);
#477=VERTEX_POINT('',#1490);
#478=VERTEX_POINT('',#1491);
#479=VERTEX_POINT('',#1493);
#480=VERTEX_POINT('',#1495);
#481=VERTEX_POINT('',#1499);
#482=VERTEX_POINT('',#1501);
#483=VERTEX_POINT('',#1508);
#484=VERTEX_POINT('',#1512);
#485=VERTEX_POINT('',#1516);
#486=VERTEX_POINT('',#1517);
#487=VERTEX_POINT('',#1519);
#488=VERTEX_POINT('',#1521);
#489=VERTEX_POINT('',#1525);
#490=VERTEX_POINT('',#1527);
#491=VERTEX_POINT('',#1534);
#492=VERTEX_POINT('',#1538);
#493=VERTEX_POINT('',#1542);
#494=VERTEX_POINT('',#1544);
#495=VERTEX_POINT('',#1550);
#496=VERTEX_POINT('',#1552);
#497=VERTEX_POINT('',#1554);
#498=VERTEX_POINT('',#1558);
#499=VERTEX_POINT('',#1560);
#500=VERTEX_POINT('',#1565);
#501=VERTEX_POINT('',#1583);
#502=VERTEX_POINT('',#1584);
#503=VERTEX_POINT('',#1590);
#504=VERTEX_POINT('',#1592);
#505=VERTEX_POINT('',#1594);
#506=VERTEX_POINT('',#1612);
#507=VERTEX_POINT('',#1613);
#508=VERTEX_POINT('',#1619);
#509=VERTEX_POINT('',#1621);
#510=VERTEX_POINT('',#1623);
#511=VERTEX_POINT('',#1642);
#512=VERTEX_POINT('',#1643);
#513=VERTEX_POINT('',#1648);
#514=VERTEX_POINT('',#1650);
#515=VERTEX_POINT('',#1655);
#516=VERTEX_POINT('',#1657);
#517=VERTEX_POINT('',#1659);
#518=VERTEX_POINT('',#1663);
#519=VERTEX_POINT('',#1664);
#520=VERTEX_POINT('',#1666);
#521=VERTEX_POINT('',#1668);
#522=VERTEX_POINT('',#1671);
#523=VERTEX_POINT('',#1673);
#524=VERTEX_POINT('',#1695);
#525=VERTEX_POINT('',#1714);
#526=VERTEX_POINT('',#1719);
#527=VERTEX_POINT('',#1721);
#528=VERTEX_POINT('',#1726);
#529=VERTEX_POINT('',#1730);
#530=VERTEX_POINT('',#1732);
#531=VERTEX_POINT('',#1734);
#532=VERTEX_POINT('',#1739);
#533=VERTEX_POINT('',#1742);
#534=VERTEX_POINT('',#1744);
#535=VERTEX_POINT('',#1746);
#536=VERTEX_POINT('',#1751);
#537=VERTEX_POINT('',#1823);
#538=VERTEX_POINT('',#1827);
#539=VERTEX_POINT('',#1829);
#540=LINE('',#1411,#614);
#541=LINE('',#1416,#615);
#542=LINE('',#1418,#616);
#543=LINE('',#1420,#617);
#544=LINE('',#1422,#618);
#545=LINE('',#1429,#619);
#546=LINE('',#1431,#620);
#547=LINE('',#1433,#621);
#548=LINE('',#1435,#622);
#549=LINE('',#1437,#623);
#550=LINE('',#1442,#624);
#551=LINE('',#1444,#625);
#552=LINE('',#1446,#626);
#553=LINE('',#1448,#627);
#554=LINE('',#1455,#628);
#555=LINE('',#1457,#629);
#556=LINE('',#1459,#630);
#557=LINE('',#1461,#631);
#558=LINE('',#1463,#632);
#559=LINE('',#1468,#633);
#560=LINE('',#1470,#634);
#561=LINE('',#1472,#635);
#562=LINE('',#1474,#636);
#563=LINE('',#1481,#637);
#564=LINE('',#1483,#638);
#565=LINE('',#1485,#639);
#566=LINE('',#1487,#640);
#567=LINE('',#1489,#641);
#568=LINE('',#1494,#642);
#569=LINE('',#1496,#643);
#570=LINE('',#1498,#644);
#571=LINE('',#1500,#645);
#572=LINE('',#1507,#646);
#573=LINE('',#1509,#647);
#574=LINE('',#1511,#648);
#575=LINE('',#1513,#649);
#576=LINE('',#1515,#650);
#577=LINE('',#1520,#651);
#578=LINE('',#1522,#652);
#579=LINE('',#1524,#653);
#580=LINE('',#1526,#654);
#581=LINE('',#1533,#655);
#582=LINE('',#1535,#656);
#583=LINE('',#1537,#657);
#584=LINE('',#1539,#658);
#585=LINE('',#1551,#659);
#586=LINE('',#1555,#660);
#587=LINE('',#1559,#661);
#588=LINE('',#1566,#662);
#589=LINE('',#1591,#663);
#590=LINE('',#1593,#664);
#591=LINE('',#1620,#665);
#592=LINE('',#1622,#666);
#593=LINE('',#1658,#667);
#594=LINE('',#1660,#668);
#595=LINE('',#1662,#669);
#596=LINE('',#1665,#670);
#597=LINE('',#1667,#671);
#598=LINE('',#1669,#672);
#599=LINE('',#1670,#673);
#600=LINE('',#1672,#674);
#601=LINE('',#1674,#675);
#602=LINE('',#1675,#676);
#603=LINE('',#1676,#677);
#604=LINE('',#1694,#678);
#605=LINE('',#1765,#679);
#606=LINE('',#1778,#680);
#607=LINE('',#1799,#681);
#608=LINE('',#1812,#682);
#609=LINE('',#1826,#683);
#610=LINE('',#1828,#684);
#611=LINE('',#1830,#685);
#612=LINE('',#1832,#686);
#613=LINE('',#1833,#687);
#614=VECTOR('',#1215,1000.);
#615=VECTOR('',#1218,1000.);
#616=VECTOR('',#1219,1000.);
#617=VECTOR('',#1222,1000.);
#618=VECTOR('',#1223,1000.);
#619=VECTOR('',#1226,1000.);
#620=VECTOR('',#1227,1000.);
#621=VECTOR('',#1230,1000.);
#622=VECTOR('',#1231,1000.);
#623=VECTOR('',#1234,1000.);
#624=VECTOR('',#1237,1000.);
#625=VECTOR('',#1238,1000.);
#626=VECTOR('',#1241,1000.);
#627=VECTOR('',#1242,1000.);
#628=VECTOR('',#1245,1000.);
#629=VECTOR('',#1246,1000.);
#630=VECTOR('',#1249,1000.);
#631=VECTOR('',#1250,1000.);
#632=VECTOR('',#1253,1000.);
#633=VECTOR('',#1256,1000.);
#634=VECTOR('',#1257,1000.);
#635=VECTOR('',#1260,1000.);
#636=VECTOR('',#1261,1000.);
#637=VECTOR('',#1264,1000.);
#638=VECTOR('',#1265,1000.);
#639=VECTOR('',#1268,1000.);
#640=VECTOR('',#1269,1000.);
#641=VECTOR('',#1272,1000.);
#642=VECTOR('',#1275,1000.);
#643=VECTOR('',#1276,1000.);
#644=VECTOR('',#1279,1000.);
#645=VECTOR('',#1280,1000.);
#646=VECTOR('',#1283,1000.);
#647=VECTOR('',#1284,1000.);
#648=VECTOR('',#1287,1000.);
#649=VECTOR('',#1288,1000.);
#650=VECTOR('',#1291,1000.);
#651=VECTOR('',#1294,1000.);
#652=VECTOR('',#1295,1000.);
#653=VECTOR('',#1298,1000.);
#654=VECTOR('',#1299,1000.);
#655=VECTOR('',#1302,1000.);
#656=VECTOR('',#1303,1000.);
#657=VECTOR('',#1306,1000.);
#658=VECTOR('',#1307,1000.);
#659=VECTOR('',#1324,1000.);
#660=VECTOR('',#1327,1000.);
#661=VECTOR('',#1332,1000.);
#662=VECTOR('',#1333,1000.);
#663=VECTOR('',#1334,1000.);
#664=VECTOR('',#1335,1000.);
#665=VECTOR('',#1338,1000.);
#666=VECTOR('',#1339,1000.);
#667=VECTOR('',#1346,1000.);
#668=VECTOR('',#1347,1000.);
#669=VECTOR('',#1350,1000.);
#670=VECTOR('',#1351,1000.);
#671=VECTOR('',#1352,1000.);
#672=VECTOR('',#1353,1000.);
#673=VECTOR('',#1354,1000.);
#674=VECTOR('',#1355,1000.);
#675=VECTOR('',#1356,1000.);
#676=VECTOR('',#1357,1000.);
#677=VECTOR('',#1358,1000.);
#678=VECTOR('',#1361,1000.);
#679=VECTOR('',#1386,1000.);
#680=VECTOR('',#1387,1000.);
#681=VECTOR('',#1388,1000.);
#682=VECTOR('',#1389,1000.);
#683=VECTOR('',#1398,1000.);
#684=VECTOR('',#1399,1000.);
#685=VECTOR('',#1400,1000.);
#686=VECTOR('',#1403,1000.);
#687=VECTOR('',#1404,1000.);
#688=EDGE_LOOP('',(#84,#85,#86,#87));
#689=EDGE_LOOP('',(#88,#89,#90,#91));
#690=EDGE_LOOP('',(#92,#93,#94,#95));
#691=EDGE_LOOP('',(#96,#97,#98,#99));
#692=EDGE_LOOP('',(#100,#101,#102,#103));
#693=EDGE_LOOP('',(#104,#105,#106,#107));
#694=EDGE_LOOP('',(#108,#109,#110,#111));
#695=EDGE_LOOP('',(#112,#113,#114,#115));
#696=EDGE_LOOP('',(#116,#117,#118,#119));
#697=EDGE_LOOP('',(#120,#121,#122,#123));
#698=EDGE_LOOP('',(#124,#125,#126,#127));
#699=EDGE_LOOP('',(#128,#129,#130,#131));
#700=EDGE_LOOP('',(#132,#133,#134,#135));
#701=EDGE_LOOP('',(#136,#137,#138,#139));
#702=EDGE_LOOP('',(#140,#141,#142,#143));
#703=EDGE_LOOP('',(#144,#145,#146,#147));
#704=EDGE_LOOP('',(#148,#149,#150,#151));
#705=EDGE_LOOP('',(#152,#153,#154,#155));
#706=EDGE_LOOP('',(#156,#157,#158,#159));
#707=EDGE_LOOP('',(#160,#161,#162,#163));
#708=EDGE_LOOP('',(#164));
#709=EDGE_LOOP('',(#165,#166,#167,#168,#169,#170,#171,#172,#173,#174,#175,
#176,#177,#178,#179,#180,#181,#182,#183,#184,#185,#186,#187,#188));
#710=EDGE_LOOP('',(#189));
#711=EDGE_LOOP('',(#190,#191,#192,#193,#194,#195,#196,#197,#198,#199,#200,
#201,#202,#203,#204,#205,#206,#207,#208,#209,#210,#211,#212,#213));
#712=EDGE_LOOP('',(#214,#215,#216,#217,#218));
#713=EDGE_LOOP('',(#219,#220,#221,#222,#223));
#714=EDGE_LOOP('',(#224,#225,#226,#227,#228,#229,#230));
#715=EDGE_LOOP('',(#231,#232,#233,#234,#235,#236,#237,#238,#239,#240,#241,
#242));
#716=EDGE_LOOP('',(#243));
#717=EDGE_LOOP('',(#244,#245,#246,#247));
#718=EDGE_LOOP('',(#248,#249,#250,#251));
#719=EDGE_LOOP('',(#252,#253,#254,#255,#256,#257,#258));
#720=EDGE_LOOP('',(#259,#260,#261,#262,#263,#264,#265,#266,#267,#268,#269,
#270,#271,#272,#273,#274,#275,#276,#277,#278));
#721=EDGE_LOOP('',(#279,#280,#281,#282,#283));
#722=EDGE_LOOP('',(#284,#285,#286,#287,#288,#289,#290));
#723=EDGE_LOOP('',(#291,#292,#293,#294));
#724=EDGE_LOOP('',(#295,#296,#297,#298,#299,#300,#301));
#725=EDGE_LOOP('',(#302,#303,#304,#305,#306));
#726=EDGE_LOOP('',(#307,#308,#309,#310));
#727=EDGE_LOOP('',(#311));
#728=EDGE_LOOP('',(#312));
#729=EDGE_LOOP('',(#313));
#730=EDGE_LOOP('',(#314,#315,#316,#317));
#731=EDGE_LOOP('',(#318,#319,#320,#321));
#732=EDGE_LOOP('',(#322,#323,#324,#325));
#733=EDGE_LOOP('',(#326,#327,#328,#329));
#734=FACE_BOUND('',#688,.T.);
#735=FACE_BOUND('',#689,.T.);
#736=FACE_BOUND('',#690,.T.);
#737=FACE_BOUND('',#691,.T.);
#738=FACE_BOUND('',#692,.T.);
#739=FACE_BOUND('',#693,.T.);
#740=FACE_BOUND('',#694,.T.);
#741=FACE_BOUND('',#695,.T.);
#742=FACE_BOUND('',#696,.T.);
#743=FACE_BOUND('',#697,.T.);
#744=FACE_BOUND('',#698,.T.);
#745=FACE_BOUND('',#699,.T.);
#746=FACE_BOUND('',#700,.T.);
#747=FACE_BOUND('',#701,.T.);
#748=FACE_BOUND('',#702,.T.);
#749=FACE_BOUND('',#703,.T.);
#750=FACE_BOUND('',#704,.T.);
#751=FACE_BOUND('',#705,.T.);
#752=FACE_BOUND('',#706,.T.);
#753=FACE_BOUND('',#707,.T.);
#754=FACE_BOUND('',#708,.T.);
#755=FACE_BOUND('',#709,.T.);
#756=FACE_BOUND('',#710,.T.);
#757=FACE_BOUND('',#711,.T.);
#758=FACE_BOUND('',#712,.T.);
#759=FACE_BOUND('',#713,.T.);
#760=FACE_BOUND('',#714,.T.);
#761=FACE_BOUND('',#715,.T.);
#762=FACE_BOUND('',#716,.T.);
#763=FACE_BOUND('',#717,.T.);
#764=FACE_BOUND('',#718,.T.);
#765=FACE_BOUND('',#719,.T.);
#766=FACE_BOUND('',#720,.T.);
#767=FACE_BOUND('',#721,.T.);
#768=FACE_BOUND('',#722,.T.);
#769=FACE_BOUND('',#723,.T.);
#770=FACE_BOUND('',#724,.T.);
#771=FACE_BOUND('',#725,.T.);
#772=FACE_BOUND('',#726,.T.);
#773=FACE_BOUND('',#727,.T.);
#774=FACE_BOUND('',#728,.T.);
#775=FACE_BOUND('',#729,.T.);
#776=FACE_BOUND('',#730,.T.);
#777=FACE_BOUND('',#731,.T.);
#778=FACE_BOUND('',#732,.T.);
#779=FACE_BOUND('',#733,.T.);
#780=PLANE('',#1150);
#781=PLANE('',#1152);
#782=PLANE('',#1153);
#783=PLANE('',#1154);
#784=PLANE('',#1155);
#785=PLANE('',#1157);
#786=PLANE('',#1158);
#787=PLANE('',#1159);
#788=PLANE('',#1160);
#789=PLANE('',#1162);
#790=PLANE('',#1163);
#791=PLANE('',#1164);
#792=PLANE('',#1165);
#793=PLANE('',#1167);
#794=PLANE('',#1168);
#795=PLANE('',#1169);
#796=PLANE('',#1170);
#797=PLANE('',#1172);
#798=PLANE('',#1173);
#799=PLANE('',#1174);
#800=PLANE('',#1190);
#801=PLANE('',#1195);
#802=PLANE('',#1204);
#803=PLANE('',#1207);
#804=PLANE('',#1208);
#805=PLANE('',#1209);
#806=PLANE('',#1210);
#807=STYLED_ITEM('',(#849),#1103);
#808=STYLED_ITEM('',(#850),#1104);
#809=STYLED_ITEM('',(#851),#1105);
#810=STYLED_ITEM('',(#852),#1106);
#811=STYLED_ITEM('',(#853),#1107);
#812=STYLED_ITEM('',(#854),#1108);
#813=STYLED_ITEM('',(#855),#1109);
#814=STYLED_ITEM('',(#856),#1110);
#815=STYLED_ITEM('',(#857),#1111);
#816=STYLED_ITEM('',(#858),#1112);
#817=STYLED_ITEM('',(#859),#1113);
#818=STYLED_ITEM('',(#860),#1114);
#819=STYLED_ITEM('',(#861),#1115);
#820=STYLED_ITEM('',(#862),#1116);
#821=STYLED_ITEM('',(#863),#1117);
#822=STYLED_ITEM('',(#864),#1118);
#823=STYLED_ITEM('',(#865),#1119);
#824=STYLED_ITEM('',(#866),#1120);
#825=STYLED_ITEM('',(#867),#1121);
#826=STYLED_ITEM('',(#868),#1122);
#827=STYLED_ITEM('',(#869),#1123);
#828=STYLED_ITEM('',(#870),#1124);
#829=STYLED_ITEM('',(#871),#1125);
#830=STYLED_ITEM('',(#872),#1126);
#831=STYLED_ITEM('',(#873),#1127);
#832=STYLED_ITEM('',(#874),#1128);
#833=STYLED_ITEM('',(#875),#1129);
#834=STYLED_ITEM('',(#876),#1130);
#835=STYLED_ITEM('',(#877),#1131);
#836=STYLED_ITEM('',(#878),#1132);
#837=STYLED_ITEM('',(#879),#1133);
#838=STYLED_ITEM('',(#880),#1134);
#839=STYLED_ITEM('',(#881),#1135);
#840=STYLED_ITEM('',(#882),#1136);
#841=STYLED_ITEM('',(#883),#1137);
#842=STYLED_ITEM('',(#884),#1138);
#843=STYLED_ITEM('',(#885),#1139);
#844=STYLED_ITEM('',(#886),#1140);
#845=STYLED_ITEM('',(#887),#1141);
#846=STYLED_ITEM('',(#888),#1142);
#847=STYLED_ITEM('',(#889),#1143);
#848=STYLED_ITEM('',(#890),#1144);
#849=PRESENTATION_STYLE_ASSIGNMENT((#891));
#850=PRESENTATION_STYLE_ASSIGNMENT((#892));
#851=PRESENTATION_STYLE_ASSIGNMENT((#893));
#852=PRESENTATION_STYLE_ASSIGNMENT((#894));
#853=PRESENTATION_STYLE_ASSIGNMENT((#895));
#854=PRESENTATION_STYLE_ASSIGNMENT((#896));
#855=PRESENTATION_STYLE_ASSIGNMENT((#897));
#856=PRESENTATION_STYLE_ASSIGNMENT((#898));
#857=PRESENTATION_STYLE_ASSIGNMENT((#899));
#858=PRESENTATION_STYLE_ASSIGNMENT((#900));
#859=PRESENTATION_STYLE_ASSIGNMENT((#901));
#860=PRESENTATION_STYLE_ASSIGNMENT((#902));
#861=PRESENTATION_STYLE_ASSIGNMENT((#903));
#862=PRESENTATION_STYLE_ASSIGNMENT((#904));
#863=PRESENTATION_STYLE_ASSIGNMENT((#905));
#864=PRESENTATION_STYLE_ASSIGNMENT((#906));
#865=PRESENTATION_STYLE_ASSIGNMENT((#907));
#866=PRESENTATION_STYLE_ASSIGNMENT((#908));
#867=PRESENTATION_STYLE_ASSIGNMENT((#909));
#868=PRESENTATION_STYLE_ASSIGNMENT((#910));
#869=PRESENTATION_STYLE_ASSIGNMENT((#911));
#870=PRESENTATION_STYLE_ASSIGNMENT((#912));
#871=PRESENTATION_STYLE_ASSIGNMENT((#913));
#872=PRESENTATION_STYLE_ASSIGNMENT((#914));
#873=PRESENTATION_STYLE_ASSIGNMENT((#915));
#874=PRESENTATION_STYLE_ASSIGNMENT((#916));
#875=PRESENTATION_STYLE_ASSIGNMENT((#917));
#876=PRESENTATION_STYLE_ASSIGNMENT((#918));
#877=PRESENTATION_STYLE_ASSIGNMENT((#919));
#878=PRESENTATION_STYLE_ASSIGNMENT((#920));
#879=PRESENTATION_STYLE_ASSIGNMENT((#921));
#880=PRESENTATION_STYLE_ASSIGNMENT((#922));
#881=PRESENTATION_STYLE_ASSIGNMENT((#923));
#882=PRESENTATION_STYLE_ASSIGNMENT((#924));
#883=PRESENTATION_STYLE_ASSIGNMENT((#925));
#884=PRESENTATION_STYLE_ASSIGNMENT((#926));
#885=PRESENTATION_STYLE_ASSIGNMENT((#927));
#886=PRESENTATION_STYLE_ASSIGNMENT((#928));
#887=PRESENTATION_STYLE_ASSIGNMENT((#929));
#888=PRESENTATION_STYLE_ASSIGNMENT((#930));
#889=PRESENTATION_STYLE_ASSIGNMENT((#931));
#890=PRESENTATION_STYLE_ASSIGNMENT((#932));
#891=SURFACE_STYLE_USAGE(.BOTH.,#933);
#892=SURFACE_STYLE_USAGE(.BOTH.,#934);
#893=SURFACE_STYLE_USAGE(.BOTH.,#935);
#894=SURFACE_STYLE_USAGE(.BOTH.,#936);
#895=SURFACE_STYLE_USAGE(.BOTH.,#937);
#896=SURFACE_STYLE_USAGE(.BOTH.,#938);
#897=SURFACE_STYLE_USAGE(.BOTH.,#939);
#898=SURFACE_STYLE_USAGE(.BOTH.,#940);
#899=SURFACE_STYLE_USAGE(.BOTH.,#941);
#900=SURFACE_STYLE_USAGE(.BOTH.,#942);
#901=SURFACE_STYLE_USAGE(.BOTH.,#943);
#902=SURFACE_STYLE_USAGE(.BOTH.,#944);
#903=SURFACE_STYLE_USAGE(.BOTH.,#945);
#904=SURFACE_STYLE_USAGE(.BOTH.,#946);
#905=SURFACE_STYLE_USAGE(.BOTH.,#947);
#906=SURFACE_STYLE_USAGE(.BOTH.,#948);
#907=SURFACE_STYLE_USAGE(.BOTH.,#949);
#908=SURFACE_STYLE_USAGE(.BOTH.,#950);
#909=SURFACE_STYLE_USAGE(.BOTH.,#951);
#910=SURFACE_STYLE_USAGE(.BOTH.,#952);
#911=SURFACE_STYLE_USAGE(.BOTH.,#953);
#912=SURFACE_STYLE_USAGE(.BOTH.,#954);
#913=SURFACE_STYLE_USAGE(.BOTH.,#955);
#914=SURFACE_STYLE_USAGE(.BOTH.,#956);
#915=SURFACE_STYLE_USAGE(.BOTH.,#957);
#916=SURFACE_STYLE_USAGE(.BOTH.,#958);
#917=SURFACE_STYLE_USAGE(.BOTH.,#959);
#918=SURFACE_STYLE_USAGE(.BOTH.,#960);
#919=SURFACE_STYLE_USAGE(.BOTH.,#961);
#920=SURFACE_STYLE_USAGE(.BOTH.,#962);
#921=SURFACE_STYLE_USAGE(.BOTH.,#963);
#922=SURFACE_STYLE_USAGE(.BOTH.,#964);
#923=SURFACE_STYLE_USAGE(.BOTH.,#965);
#924=SURFACE_STYLE_USAGE(.BOTH.,#966);
#925=SURFACE_STYLE_USAGE(.BOTH.,#967);
#926=SURFACE_STYLE_USAGE(.BOTH.,#968);
#927=SURFACE_STYLE_USAGE(.BOTH.,#969);
#928=SURFACE_STYLE_USAGE(.BOTH.,#970);
#929=SURFACE_STYLE_USAGE(.BOTH.,#971);
#930=SURFACE_STYLE_USAGE(.BOTH.,#972);
#931=SURFACE_STYLE_USAGE(.BOTH.,#973);
#932=SURFACE_STYLE_USAGE(.BOTH.,#974);
#933=SURFACE_SIDE_STYLE('',(#975));
#934=SURFACE_SIDE_STYLE('',(#976));
#935=SURFACE_SIDE_STYLE('',(#977));
#936=SURFACE_SIDE_STYLE('',(#978));
#937=SURFACE_SIDE_STYLE('',(#979));
#938=SURFACE_SIDE_STYLE('',(#980));
#939=SURFACE_SIDE_STYLE('',(#981));
#940=SURFACE_SIDE_STYLE('',(#982));
#941=SURFACE_SIDE_STYLE('',(#983));
#942=SURFACE_SIDE_STYLE('',(#984));
#943=SURFACE_SIDE_STYLE('',(#985));
#944=SURFACE_SIDE_STYLE('',(#986));
#945=SURFACE_SIDE_STYLE('',(#987));
#946=SURFACE_SIDE_STYLE('',(#988));
#947=SURFACE_SIDE_STYLE('',(#989));
#948=SURFACE_SIDE_STYLE('',(#990));
#949=SURFACE_SIDE_STYLE('',(#991));
#950=SURFACE_SIDE_STYLE('',(#992));
#951=SURFACE_SIDE_STYLE('',(#993));
#952=SURFACE_SIDE_STYLE('',(#994));
#953=SURFACE_SIDE_STYLE('',(#995));
#954=SURFACE_SIDE_STYLE('',(#996));
#955=SURFACE_SIDE_STYLE('',(#997));
#956=SURFACE_SIDE_STYLE('',(#998));
#957=SURFACE_SIDE_STYLE('',(#999));
#958=SURFACE_SIDE_STYLE('',(#1000));
#959=SURFACE_SIDE_STYLE('',(#1001));
#960=SURFACE_SIDE_STYLE('',(#1002));
#961=SURFACE_SIDE_STYLE('',(#1003));
#962=SURFACE_SIDE_STYLE('',(#1004));
#963=SURFACE_SIDE_STYLE('',(#1005));
#964=SURFACE_SIDE_STYLE('',(#1006));
#965=SURFACE_SIDE_STYLE('',(#1007));
#966=SURFACE_SIDE_STYLE('',(#1008));
#967=SURFACE_SIDE_STYLE('',(#1009));
#968=SURFACE_SIDE_STYLE('',(#1010));
#969=SURFACE_SIDE_STYLE('',(#1011));
#970=SURFACE_SIDE_STYLE('',(#1012));
#971=SURFACE_SIDE_STYLE('',(#1013));
#972=SURFACE_SIDE_STYLE('',(#1014));
#973=SURFACE_SIDE_STYLE('',(#1015));
#974=SURFACE_SIDE_STYLE('',(#1016));
#975=SURFACE_STYLE_FILL_AREA(#1017);
#976=SURFACE_STYLE_FILL_AREA(#1018);
#977=SURFACE_STYLE_FILL_AREA(#1019);
#978=SURFACE_STYLE_FILL_AREA(#1020);
#979=SURFACE_STYLE_FILL_AREA(#1021);
#980=SURFACE_STYLE_FILL_AREA(#1022);
#981=SURFACE_STYLE_FILL_AREA(#1023);
#982=SURFACE_STYLE_FILL_AREA(#1024);
#983=SURFACE_STYLE_FILL_AREA(#1025);
#984=SURFACE_STYLE_FILL_AREA(#1026);
#985=SURFACE_STYLE_FILL_AREA(#1027);
#986=SURFACE_STYLE_FILL_AREA(#1028);
#987=SURFACE_STYLE_FILL_AREA(#1029);
#988=SURFACE_STYLE_FILL_AREA(#1030);
#989=SURFACE_STYLE_FILL_AREA(#1031);
#990=SURFACE_STYLE_FILL_AREA(#1032);
#991=SURFACE_STYLE_FILL_AREA(#1033);
#992=SURFACE_STYLE_FILL_AREA(#1034);
#993=SURFACE_STYLE_FILL_AREA(#1035);
#994=SURFACE_STYLE_FILL_AREA(#1036);
#995=SURFACE_STYLE_FILL_AREA(#1037);
#996=SURFACE_STYLE_FILL_AREA(#1038);
#997=SURFACE_STYLE_FILL_AREA(#1039);
#998=SURFACE_STYLE_FILL_AREA(#1040);
#999=SURFACE_STYLE_FILL_AREA(#1041);
#1000=SURFACE_STYLE_FILL_AREA(#1042);
#1001=SURFACE_STYLE_FILL_AREA(#1043);
#1002=SURFACE_STYLE_FILL_AREA(#1044);
#1003=SURFACE_STYLE_FILL_AREA(#1045);
#1004=SURFACE_STYLE_FILL_AREA(#1046);
#1005=SURFACE_STYLE_FILL_AREA(#1047);
#1006=SURFACE_STYLE_FILL_AREA(#1048);
#1007=SURFACE_STYLE_FILL_AREA(#1049);
#1008=SURFACE_STYLE_FILL_AREA(#1050);
#1009=SURFACE_STYLE_FILL_AREA(#1051);
#1010=SURFACE_STYLE_FILL_AREA(#1052);
#1011=SURFACE_STYLE_FILL_AREA(#1053);
#1012=SURFACE_STYLE_FILL_AREA(#1054);
#1013=SURFACE_STYLE_FILL_AREA(#1055);
#1014=SURFACE_STYLE_FILL_AREA(#1056);
#1015=SURFACE_STYLE_FILL_AREA(#1057);
#1016=SURFACE_STYLE_FILL_AREA(#1058);
#1017=FILL_AREA_STYLE('',(#1059));
#1018=FILL_AREA_STYLE('',(#1060));
#1019=FILL_AREA_STYLE('',(#1061));
#1020=FILL_AREA_STYLE('',(#1062));
#1021=FILL_AREA_STYLE('',(#1063));
#1022=FILL_AREA_STYLE('',(#1064));
#1023=FILL_AREA_STYLE('',(#1065));
#1024=FILL_AREA_STYLE('',(#1066));
#1025=FILL_AREA_STYLE('',(#1067));
#1026=FILL_AREA_STYLE('',(#1068));
#1027=FILL_AREA_STYLE('',(#1069));
#1028=FILL_AREA_STYLE('',(#1070));
#1029=FILL_AREA_STYLE('',(#1071));
#1030=FILL_AREA_STYLE('',(#1072));
#1031=FILL_AREA_STYLE('',(#1073));
#1032=FILL_AREA_STYLE('',(#1074));
#1033=FILL_AREA_STYLE('',(#1075));
#1034=FILL_AREA_STYLE('',(#1076));
#1035=FILL_AREA_STYLE('',(#1077));
#1036=FILL_AREA_STYLE('',(#1078));
#1037=FILL_AREA_STYLE('',(#1079));
#1038=FILL_AREA_STYLE('',(#1080));
#1039=FILL_AREA_STYLE('',(#1081));
#1040=FILL_AREA_STYLE('',(#1082));
#1041=FILL_AREA_STYLE('',(#1083));
#1042=FILL_AREA_STYLE('',(#1084));
#1043=FILL_AREA_STYLE('',(#1085));
#1044=FILL_AREA_STYLE('',(#1086));
#1045=FILL_AREA_STYLE('',(#1087));
#1046=FILL_AREA_STYLE('',(#1088));
#1047=FILL_AREA_STYLE('',(#1089));
#1048=FILL_AREA_STYLE('',(#1090));
#1049=FILL_AREA_STYLE('',(#1091));
#1050=FILL_AREA_STYLE('',(#1092));
#1051=FILL_AREA_STYLE('',(#1093));
#1052=FILL_AREA_STYLE('',(#1094));
#1053=FILL_AREA_STYLE('',(#1095));
#1054=FILL_AREA_STYLE('',(#1096));
#1055=FILL_AREA_STYLE('',(#1097));
#1056=FILL_AREA_STYLE('',(#1098));
#1057=FILL_AREA_STYLE('',(#1099));
#1058=FILL_AREA_STYLE('',(#1100));
#1059=FILL_AREA_STYLE_COLOUR('',#1101);
#1060=FILL_AREA_STYLE_COLOUR('',#1101);
#1061=FILL_AREA_STYLE_COLOUR('',#1101);
#1062=FILL_AREA_STYLE_COLOUR('',#1101);
#1063=FILL_AREA_STYLE_COLOUR('',#1101);
#1064=FILL_AREA_STYLE_COLOUR('',#1101);
#1065=FILL_AREA_STYLE_COLOUR('',#1101);
#1066=FILL_AREA_STYLE_COLOUR('',#1101);
#1067=FILL_AREA_STYLE_COLOUR('',#1101);
#1068=FILL_AREA_STYLE_COLOUR('',#1101);
#1069=FILL_AREA_STYLE_COLOUR('',#1101);
#1070=FILL_AREA_STYLE_COLOUR('',#1101);
#1071=FILL_AREA_STYLE_COLOUR('',#1101);
#1072=FILL_AREA_STYLE_COLOUR('',#1101);
#1073=FILL_AREA_STYLE_COLOUR('',#1101);
#1074=FILL_AREA_STYLE_COLOUR('',#1101);
#1075=FILL_AREA_STYLE_COLOUR('',#1101);
#1076=FILL_AREA_STYLE_COLOUR('',#1101);
#1077=FILL_AREA_STYLE_COLOUR('',#1101);
#1078=FILL_AREA_STYLE_COLOUR('',#1101);
#1079=FILL_AREA_STYLE_COLOUR('',#1101);
#1080=FILL_AREA_STYLE_COLOUR('',#1101);
#1081=FILL_AREA_STYLE_COLOUR('',#1101);
#1082=FILL_AREA_STYLE_COLOUR('',#1101);
#1083=FILL_AREA_STYLE_COLOUR('',#1101);
#1084=FILL_AREA_STYLE_COLOUR('',#1101);
#1085=FILL_AREA_STYLE_COLOUR('',#1101);
#1086=FILL_AREA_STYLE_COLOUR('',#1101);
#1087=FILL_AREA_STYLE_COLOUR('',#1101);
#1088=FILL_AREA_STYLE_COLOUR('',#1101);
#1089=FILL_AREA_STYLE_COLOUR('',#1101);
#1090=FILL_AREA_STYLE_COLOUR('',#1101);
#1091=FILL_AREA_STYLE_COLOUR('',#1101);
#1092=FILL_AREA_STYLE_COLOUR('',#1101);
#1093=FILL_AREA_STYLE_COLOUR('',#1101);
#1094=FILL_AREA_STYLE_COLOUR('',#1101);
#1095=FILL_AREA_STYLE_COLOUR('',#1101);
#1096=FILL_AREA_STYLE_COLOUR('',#1102);
#1097=FILL_AREA_STYLE_COLOUR('',#1101);
#1098=FILL_AREA_STYLE_COLOUR('',#1101);
#1099=FILL_AREA_STYLE_COLOUR('',#1101);
#1100=FILL_AREA_STYLE_COLOUR('',#1101);
#1101=COLOUR_RGB('',0.506983280181885,0.531564235687256,0.550000011920929);
#1102=COLOUR_RGB('',0.1875,0.75,0.581249892711639);
#1103=ADVANCED_FACE('',(#734),#780,.T.);
#1104=ADVANCED_FACE('',(#735),#781,.T.);
#1105=ADVANCED_FACE('',(#736),#782,.T.);
#1106=ADVANCED_FACE('',(#737),#783,.T.);
#1107=ADVANCED_FACE('',(#738),#784,.T.);
#1108=ADVANCED_FACE('',(#739),#785,.T.);
#1109=ADVANCED_FACE('',(#740),#786,.T.);
#1110=ADVANCED_FACE('',(#741),#787,.T.);
#1111=ADVANCED_FACE('',(#742),#788,.T.);
#1112=ADVANCED_FACE('',(#743),#789,.T.);
#1113=ADVANCED_FACE('',(#744),#790,.T.);
#1114=ADVANCED_FACE('',(#745),#791,.T.);
#1115=ADVANCED_FACE('',(#746),#792,.T.);
#1116=ADVANCED_FACE('',(#747),#793,.T.);
#1117=ADVANCED_FACE('',(#748),#794,.T.);
#1118=ADVANCED_FACE('',(#749),#795,.T.);
#1119=ADVANCED_FACE('',(#750),#796,.T.);
#1120=ADVANCED_FACE('',(#751),#797,.T.);
#1121=ADVANCED_FACE('',(#752),#798,.T.);
#1122=ADVANCED_FACE('',(#753),#799,.T.);
#1123=ADVANCED_FACE('',(#754,#755),#33,.T.);
#1124=ADVANCED_FACE('',(#756,#757),#32,.T.);
#1125=ADVANCED_FACE('',(#758),#20,.F.);
#1126=ADVANCED_FACE('',(#759),#21,.F.);
#1127=ADVANCED_FACE('',(#760),#22,.F.);
#1128=ADVANCED_FACE('',(#761,#762),#800,.F.);
#1129=ADVANCED_FACE('',(#763),#23,.F.);
#1130=ADVANCED_FACE('',(#764),#24,.F.);
#1131=ADVANCED_FACE('',(#765),#25,.F.);
#1132=ADVANCED_FACE('',(#766),#801,.T.);
#1133=ADVANCED_FACE('',(#767),#26,.F.);
#1134=ADVANCED_FACE('',(#768),#27,.F.);
#1135=ADVANCED_FACE('',(#769),#28,.F.);
#1136=ADVANCED_FACE('',(#770),#29,.F.);
#1137=ADVANCED_FACE('',(#771),#30,.F.);
#1138=ADVANCED_FACE('',(#772),#31,.F.);
#1139=ADVANCED_FACE('',(#773),#802,.F.);
#1140=ADVANCED_FACE('',(#774,#775),#34,.T.);
#1141=ADVANCED_FACE('',(#776),#803,.T.);
#1142=ADVANCED_FACE('',(#777),#804,.T.);
#1143=ADVANCED_FACE('',(#778),#805,.T.);
#1144=ADVANCED_FACE('',(#779),#806,.T.);
#1145=CLOSED_SHELL('',(#1103,#1104,#1105,#1106,#1107,#1108,#1109,#1110,
#1111,#1112,#1113,#1114,#1115,#1116,#1117,#1118,#1119,#1120,#1121,#1122,
#1123,#1124,#1125,#1126,#1127,#1128,#1129,#1130,#1131,#1132,#1133,#1134,
#1135,#1136,#1137,#1138,#1139,#1140,#1141,#1142,#1143,#1144));
#1146=MANIFOLD_SOLID_BREP('',#1145);
#1147=SHAPE_DEFINITION_REPRESENTATION(#1842,#1148);
#1148=SHAPE_REPRESENTATION(
'\X2\53415B5769FD6C89593487BA9489548C95255F6295017D2757AB57087EC454084EF6\X0\ 
GBT9074.9-1988',(#1149),#1837);
#1149=AXIS2_PLACEMENT_3D('',#1409,#1211,#1212);
#1150=AXIS2_PLACEMENT_3D('',#1410,#1213,#1214);
#1151=AXIS2_PLACEMENT_3D('',#1414,#1216,#1217);
#1152=AXIS2_PLACEMENT_3D('',#1419,#1220,#1221);
#1153=AXIS2_PLACEMENT_3D('',#1428,#1224,#1225);
#1154=AXIS2_PLACEMENT_3D('',#1432,#1228,#1229);
#1155=AXIS2_PLACEMENT_3D('',#1436,#1232,#1233);
#1156=AXIS2_PLACEMENT_3D('',#1440,#1235,#1236);
#1157=AXIS2_PLACEMENT_3D('',#1445,#1239,#1240);
#1158=AXIS2_PLACEMENT_3D('',#1454,#1243,#1244);
#1159=AXIS2_PLACEMENT_3D('',#1458,#1247,#1248);
#1160=AXIS2_PLACEMENT_3D('',#1462,#1251,#1252);
#1161=AXIS2_PLACEMENT_3D('',#1466,#1254,#1255);
#1162=AXIS2_PLACEMENT_3D('',#1471,#1258,#1259);
#1163=AXIS2_PLACEMENT_3D('',#1480,#1262,#1263);
#1164=AXIS2_PLACEMENT_3D('',#1484,#1266,#1267);
#1165=AXIS2_PLACEMENT_3D('',#1488,#1270,#1271);
#1166=AXIS2_PLACEMENT_3D('',#1492,#1273,#1274);
#1167=AXIS2_PLACEMENT_3D('',#1497,#1277,#1278);
#1168=AXIS2_PLACEMENT_3D('',#1506,#1281,#1282);
#1169=AXIS2_PLACEMENT_3D('',#1510,#1285,#1286);
#1170=AXIS2_PLACEMENT_3D('',#1514,#1289,#1290);
#1171=AXIS2_PLACEMENT_3D('',#1518,#1292,#1293);
#1172=AXIS2_PLACEMENT_3D('',#1523,#1296,#1297);
#1173=AXIS2_PLACEMENT_3D('',#1532,#1300,#1301);
#1174=AXIS2_PLACEMENT_3D('',#1536,#1304,#1305);
#1175=AXIS2_PLACEMENT_3D('',#1540,#1308,#1309);
#1176=AXIS2_PLACEMENT_3D('',#1541,#1310,#1311);
#1177=AXIS2_PLACEMENT_3D('',#1543,#1312,#1313);
#1178=AXIS2_PLACEMENT_3D('',#1545,#1314,#1315);
#1179=AXIS2_PLACEMENT_3D('',#1546,#1316,#1317);
#1180=AXIS2_PLACEMENT_3D('',#1547,#1318,#1319);
#1181=AXIS2_PLACEMENT_3D('',#1548,#1320,#1321);
#1182=AXIS2_PLACEMENT_3D('',#1549,#1322,#1323);
#1183=AXIS2_PLACEMENT_3D('',#1553,#1325,#1326);
#1184=AXIS2_PLACEMENT_3D('',#1556,#1328,#1329);
#1185=AXIS2_PLACEMENT_3D('',#1557,#1330,#1331);
#1186=AXIS2_PLACEMENT_3D('',#1595,#1336,#1337);
#1187=AXIS2_PLACEMENT_3D('',#1624,#1340,#1341);
#1188=AXIS2_PLACEMENT_3D('',#1649,#1342,#1343);
#1189=AXIS2_PLACEMENT_3D('',#1656,#1344,#1345);
#1190=AXIS2_PLACEMENT_3D('',#1661,#1348,#1349);
#1191=AXIS2_PLACEMENT_3D('',#1685,#1359,#1360);
#1192=AXIS2_PLACEMENT_3D('',#1696,#1362,#1363);
#1193=AXIS2_PLACEMENT_3D('',#1720,#1364,#1365);
#1194=AXIS2_PLACEMENT_3D('',#1727,#1366,#1367);
#1195=AXIS2_PLACEMENT_3D('',#1728,#1368,#1369);
#1196=AXIS2_PLACEMENT_3D('',#1729,#1370,#1371);
#1197=AXIS2_PLACEMENT_3D('',#1731,#1372,#1373);
#1198=AXIS2_PLACEMENT_3D('',#1733,#1374,#1375);
#1199=AXIS2_PLACEMENT_3D('',#1740,#1376,#1377);
#1200=AXIS2_PLACEMENT_3D('',#1741,#1378,#1379);
#1201=AXIS2_PLACEMENT_3D('',#1743,#1380,#1381);
#1202=AXIS2_PLACEMENT_3D('',#1745,#1382,#1383);
#1203=AXIS2_PLACEMENT_3D('',#1752,#1384,#1385);
#1204=AXIS2_PLACEMENT_3D('',#1821,#1390,#1391);
#1205=AXIS2_PLACEMENT_3D('',#1822,#1392,#1393);
#1206=AXIS2_PLACEMENT_3D('',#1824,#1394,#1395);
#1207=AXIS2_PLACEMENT_3D('',#1825,#1396,#1397);
#1208=AXIS2_PLACEMENT_3D('',#1831,#1401,#1402);
#1209=AXIS2_PLACEMENT_3D('',#1834,#1405,#1406);
#1210=AXIS2_PLACEMENT_3D('',#1835,#1407,#1408);
#1211=DIRECTION('',(0.,0.,1.));
#1212=DIRECTION('',(1.,0.,0.));
#1213=DIRECTION('',(1.,-3.06151588455593E-17,5.30270106023007E-17));
#1214=DIRECTION('',(6.12303176911189E-17,0.499999999999999,-0.866025403784439));
#1215=DIRECTION('',(5.33657381704454E-18,0.906307787036651,0.422618261740698));
#1216=DIRECTION('',(1.,-3.06151588455593E-17,5.30270106023007E-17));
#1217=DIRECTION('',(6.12303176911189E-17,0.499999999999999,-0.866025403784439));
#1218=DIRECTION('',(5.33657381704454E-18,-0.819152044288993,-0.573576436351045));
#1219=DIRECTION('',(6.12303176911189E-17,0.499999999999999,-0.866025403784439));
#1220=DIRECTION('',(0.,0.866025403784439,0.499999999999999));
#1221=DIRECTION('',(1.,0.,0.));
#1222=DIRECTION('',(-1.,0.,0.));
#1223=DIRECTION('',(-1.,0.,0.));
#1224=DIRECTION('',(0.,-0.422618261740698,0.906307787036651));
#1225=DIRECTION('',(0.,-0.906307787036651,-0.422618261740698));
#1226=DIRECTION('',(-1.,0.,0.));
#1227=DIRECTION('',(-0.707106781186548,0.640856382055788,0.298836238730119));
#1228=DIRECTION('',(0.,0.573576436351045,-0.819152044288993));
#1229=DIRECTION('',(0.,0.819152044288993,0.573576436351045));
#1230=DIRECTION('',(-1.,0.,0.));
#1231=DIRECTION('',(0.707106781186548,-0.579227965339569,-0.405579787672638));
#1232=DIRECTION('',(1.,3.06151588455595E-17,5.30270106023006E-17));
#1233=DIRECTION('',(6.12303176911189E-17,-0.500000000000001,-0.866025403784438));
#1234=DIRECTION('',(5.33657381704454E-18,0.819152044288991,-0.573576436351047));
#1235=DIRECTION('',(1.,3.06151588455595E-17,5.30270106023006E-17));
#1236=DIRECTION('',(6.12303176911189E-17,-0.500000000000001,-0.866025403784438));
#1237=DIRECTION('',(5.33657381704454E-18,-0.906307787036649,0.422618261740701));
#1238=DIRECTION('',(6.12303176911189E-17,-0.500000000000001,-0.866025403784438));
#1239=DIRECTION('',(0.,0.866025403784438,-0.500000000000001));
#1240=DIRECTION('',(1.,0.,0.));
#1241=DIRECTION('',(-1.,0.,0.));
#1242=DIRECTION('',(-1.,0.,0.));
#1243=DIRECTION('',(0.,0.573576436351047,0.819152044288991));
#1244=DIRECTION('',(0.,-0.819152044288991,0.573576436351047));
#1245=DIRECTION('',(-1.,0.,0.));
#1246=DIRECTION('',(-0.707106781186548,0.579227965339568,-0.405579787672639));
#1247=DIRECTION('',(0.,-0.422618261740701,-0.906307787036649));
#1248=DIRECTION('',(0.,0.906307787036649,-0.422618261740701));
#1249=DIRECTION('',(-1.,0.,0.));
#1250=DIRECTION('',(0.707106781186548,-0.640856382055788,0.29883623873012));
#1251=DIRECTION('',(1.,6.12303176911189E-17,-6.1881998061755E-32));
#1252=DIRECTION('',(6.12303176911189E-17,-1.,1.01064309961486E-15));
#1253=DIRECTION('',(5.33657381704454E-18,-0.0871557427476591,-0.996194698091745));
#1254=DIRECTION('',(1.,6.12303176911189E-17,-6.1881998061755E-32));
#1255=DIRECTION('',(6.12303176911189E-17,-1.,1.01064309961486E-15));
#1256=DIRECTION('',(5.33657381704454E-18,-0.0871557427476572,0.996194698091746));
#1257=DIRECTION('',(6.12303176911189E-17,-1.,1.01064309961486E-15));
#1258=DIRECTION('',(0.,-1.01064309961486E-15,-1.));
#1259=DIRECTION('',(1.,0.,0.));
#1260=DIRECTION('',(-1.,0.,0.));
#1261=DIRECTION('',(-1.,0.,0.));
#1262=DIRECTION('',(0.,0.996194698091745,-0.0871557427476591));
#1263=DIRECTION('',(0.,0.0871557427476591,0.996194698091745));
#1264=DIRECTION('',(-1.,0.,0.));
#1265=DIRECTION('',(-0.707106781186548,-0.06162841671622,-0.704416026402758));
#1266=DIRECTION('',(0.,-0.996194698091746,-0.0871557427476572));
#1267=DIRECTION('',(0.,0.0871557427476572,-0.996194698091746));
#1268=DIRECTION('',(-1.,0.,0.));
#1269=DIRECTION('',(0.707106781186548,-0.0616284167162186,0.704416026402758));
#1270=DIRECTION('',(1.,3.06151588455594E-17,-5.30270106023007E-17));
#1271=DIRECTION('',(6.12303176911189E-17,-0.499999999999999,0.866025403784439));
#1272=DIRECTION('',(5.33657381704454E-18,-0.90630778703665,-0.422618261740699));
#1273=DIRECTION('',(1.,3.06151588455594E-17,-5.30270106023007E-17));
#1274=DIRECTION('',(6.12303176911189E-17,-0.499999999999999,0.866025403784439));
#1275=DIRECTION('',(5.33657381704454E-18,0.819152044288992,0.573576436351045));
#1276=DIRECTION('',(6.12303176911189E-17,-0.499999999999999,0.866025403784439));
#1277=DIRECTION('',(0.,-0.866025403784439,-0.499999999999999));
#1278=DIRECTION('',(1.,0.,0.));
#1279=DIRECTION('',(-1.,0.,0.));
#1280=DIRECTION('',(-1.,0.,0.));
#1281=DIRECTION('',(0.,0.422618261740699,-0.90630778703665));
#1282=DIRECTION('',(0.,0.90630778703665,0.422618261740699));
#1283=DIRECTION('',(-1.,0.,0.));
#1284=DIRECTION('',(-0.707106781186548,-0.640856382055788,-0.298836238730119));
#1285=DIRECTION('',(0.,-0.573576436351045,0.819152044288992));
#1286=DIRECTION('',(0.,-0.819152044288992,-0.573576436351045));
#1287=DIRECTION('',(-1.,0.,0.));
#1288=DIRECTION('',(0.707106781186548,0.579227965339569,0.405579787672638));
#1289=DIRECTION('',(1.,-3.06151588455594E-17,-5.30270106023007E-17));
#1290=DIRECTION('',(6.12303176911189E-17,0.5,0.866025403784439));
#1291=DIRECTION('',(5.33657381704454E-18,-0.819152044288992,0.573576436351046));
#1292=DIRECTION('',(1.,-3.06151588455594E-17,-5.30270106023007E-17));
#1293=DIRECTION('',(6.12303176911189E-17,0.5,0.866025403784439));
#1294=DIRECTION('',(5.33657381704454E-18,0.90630778703665,-0.4226182617407));
#1295=DIRECTION('',(6.12303176911189E-17,0.5,0.866025403784439));
#1296=DIRECTION('',(0.,-0.866025403784439,0.5));
#1297=DIRECTION('',(1.,0.,0.));
#1298=DIRECTION('',(-1.,0.,0.));
#1299=DIRECTION('',(-1.,0.,0.));
#1300=DIRECTION('',(0.,-0.573576436351046,-0.819152044288992));
#1301=DIRECTION('',(0.,0.819152044288992,-0.573576436351046));
#1302=DIRECTION('',(-1.,0.,0.));
#1303=DIRECTION('',(-0.707106781186548,-0.579227965339569,0.405579787672638));
#1304=DIRECTION('',(0.,0.4226182617407,0.90630778703665));
#1305=DIRECTION('',(0.,-0.90630778703665,0.4226182617407));
#1306=DIRECTION('',(-1.,0.,0.));
#1307=DIRECTION('',(0.707106781186548,0.640856382055788,-0.29883623873012));
#1308=DIRECTION('',(-1.,0.,0.));
#1309=DIRECTION('',(0.,0.,1.));
#1310=DIRECTION('',(-1.,0.,0.));
#1311=DIRECTION('',(0.,0.,1.));
#1312=DIRECTION('',(-1.,0.,0.));
#1313=DIRECTION('',(0.,0.,1.));
#1314=DIRECTION('',(-1.,0.,0.));
#1315=DIRECTION('',(0.,0.,1.));
#1316=DIRECTION('',(-1.,0.,0.));
#1317=DIRECTION('',(0.,0.,1.));
#1318=DIRECTION('',(-1.,0.,0.));
#1319=DIRECTION('',(0.,0.,1.));
#1320=DIRECTION('',(-1.,0.,0.));
#1321=DIRECTION('',(0.,0.,1.));
#1322=DIRECTION('',(-1.,0.,0.));
#1323=DIRECTION('',(0.,0.,1.));
#1324=DIRECTION('',(-1.,0.,0.));
#1325=DIRECTION('',(1.,-6.12303176911189E-17,0.));
#1326=DIRECTION('',(6.12303176911189E-17,1.,0.));
#1327=DIRECTION('',(-1.,0.,0.));
#1328=DIRECTION('',(-1.,0.,0.));
#1329=DIRECTION('',(0.,0.,1.));
#1330=DIRECTION('',(-1.,0.,0.));
#1331=DIRECTION('',(0.,0.,1.));
#1332=DIRECTION('',(-0.707106781186548,0.0616284167162193,0.704416026402758));
#1333=DIRECTION('',(0.707106781186548,0.0616284167162193,-0.704416026402758));
#1334=DIRECTION('',(9.68129800497543E-33,1.58112816820803E-16,-1.));
#1335=DIRECTION('',(0.781804057179856,0.151226829275666,-0.604907317102666));
#1336=DIRECTION('',(-1.,6.12303176911189E-17,0.));
#1337=DIRECTION('',(6.12303176911189E-17,1.,0.));
#1338=DIRECTION('',(0.,0.,1.));
#1339=DIRECTION('',(0.781804057179856,-0.151226829275667,0.604907317102665));
#1340=DIRECTION('',(-1.,6.12303176911189E-17,0.));
#1341=DIRECTION('',(6.12303176911189E-17,1.,0.));
#1342=DIRECTION('',(-1.,6.12303176911189E-17,0.));
#1343=DIRECTION('',(6.12303176911189E-17,1.,0.));
#1344=DIRECTION('',(-1.,6.12303176911189E-17,0.));
#1345=DIRECTION('',(6.12303176911189E-17,1.,0.));
#1346=DIRECTION('',(0.780937865138258,-0.131344500840865,-0.61064283578223));
#1347=DIRECTION('',(0.,0.,1.));
#1348=DIRECTION('',(1.,0.,0.));
#1349=DIRECTION('',(0.,0.,-1.));
#1350=DIRECTION('',(0.,0.,-1.));
#1351=DIRECTION('',(6.12303176911189E-17,1.,2.25875452601147E-17));
#1352=DIRECTION('',(9.68129800497543E-33,1.58112816820803E-16,-1.));
#1353=DIRECTION('',(6.12303176911189E-17,1.,3.61400724161835E-16));
#1354=DIRECTION('',(6.12303176911189E-17,1.,2.25875452601147E-17));
#1355=DIRECTION('',(0.,0.,1.));
#1356=DIRECTION('',(-6.12303176911189E-17,-1.,-1.35525271560688E-16));
#1357=DIRECTION('',(-6.12303176911189E-17,-1.,3.61400724161835E-16));
#1358=DIRECTION('',(-6.12303176911189E-17,-1.,-1.35525271560688E-16));
#1359=DIRECTION('',(-1.,6.12303176911189E-17,0.));
#1360=DIRECTION('',(6.12303176911189E-17,1.,0.));
#1361=DIRECTION('',(0.780937865138259,0.131344500840865,0.610642835782229));
#1362=DIRECTION('',(-1.,6.12303176911189E-17,0.));
#1363=DIRECTION('',(6.12303176911189E-17,1.,0.));
#1364=DIRECTION('',(-1.,6.12303176911189E-17,0.));
#1365=DIRECTION('',(6.12303176911189E-17,1.,0.));
#1366=DIRECTION('',(-1.,6.12303176911189E-17,0.));
#1367=DIRECTION('',(6.12303176911189E-17,1.,0.));
#1368=DIRECTION('',(-1.,6.12303176911189E-17,0.));
#1369=DIRECTION('',(-6.12303176911189E-17,-1.,0.));
#1370=DIRECTION('',(-1.,6.12303176911189E-17,0.));
#1371=DIRECTION('',(6.12303176911189E-17,1.,0.));
#1372=DIRECTION('',(-1.,6.12303176911189E-17,0.));
#1373=DIRECTION('',(6.12303176911189E-17,1.,0.));
#1374=DIRECTION('',(-1.,6.12303176911189E-17,0.));
#1375=DIRECTION('',(6.12303176911189E-17,1.,0.));
#1376=DIRECTION('',(-1.,6.12303176911189E-17,0.));
#1377=DIRECTION('',(6.12303176911189E-17,1.,0.));
#1378=DIRECTION('',(-1.,6.12303176911189E-17,0.));
#1379=DIRECTION('',(6.12303176911189E-17,1.,0.));
#1380=DIRECTION('',(-1.,6.12303176911189E-17,0.));
#1381=DIRECTION('',(6.12303176911189E-17,1.,0.));
#1382=DIRECTION('',(-1.,6.12303176911189E-17,0.));
#1383=DIRECTION('',(6.12303176911189E-17,1.,0.));
#1384=DIRECTION('',(-1.,6.12303176911189E-17,0.));
#1385=DIRECTION('',(6.12303176911189E-17,1.,0.));
#1386=DIRECTION('',(0.781804057179856,-0.604907317102666,-0.151226829275667));
#1387=DIRECTION('',(0.780937865138259,-0.610642835782229,0.131344500840865));
#1388=DIRECTION('',(0.780937865138259,0.610642835782229,-0.131344500840865));
#1389=DIRECTION('',(0.781804057179856,0.604907317102666,0.151226829275666));
#1390=DIRECTION('',(-1.,0.,0.));
#1391=DIRECTION('',(0.,0.,1.));
#1392=DIRECTION('',(-1.,0.,0.));
#1393=DIRECTION('',(0.,0.,1.));
#1394=DIRECTION('',(-1.,0.,0.));
#1395=DIRECTION('',(0.,0.,1.));
#1396=DIRECTION('',(1.,-6.12303176911189E-17,0.));
#1397=DIRECTION('',(6.12303176911189E-17,1.,0.));
#1398=DIRECTION('',(5.33657381704454E-18,0.0871557427476581,0.996194698091746));
#1399=DIRECTION('',(5.33657381704454E-18,0.0871557427476582,-0.996194698091746));
#1400=DIRECTION('',(6.12303176911189E-17,1.,0.));
#1401=DIRECTION('',(0.,0.,1.));
#1402=DIRECTION('',(1.,0.,0.));
#1403=DIRECTION('',(-1.,0.,0.));
#1404=DIRECTION('',(-1.,0.,0.));
#1405=DIRECTION('',(0.,-0.996194698091746,0.0871557427476581));
#1406=DIRECTION('',(0.,-0.0871557427476581,-0.996194698091746));
#1407=DIRECTION('',(0.,0.996194698091746,0.0871557427476582));
#1408=DIRECTION('',(0.,-0.0871557427476582,0.996194698091746));
#1409=CARTESIAN_POINT('',(0.,0.,0.));
#1410=CARTESIAN_POINT('',(1.,-3.06151588455593E-17,5.30270106023007E-17));
#1411=CARTESIAN_POINT('',(1.,2.04698190498164,0.954523338397644));
#1412=CARTESIAN_POINT('',(1.,2.04698190498164,0.954523338397644));
#1413=CARTESIAN_POINT('',(1.,2.71892336110995,1.26785478522209));
#1414=CARTESIAN_POINT('',(1.,0.,0.));
#1415=CARTESIAN_POINT('',(1.,2.45745613286698,1.72072930905313));
#1416=CARTESIAN_POINT('',(1.,1.85013241204832,1.29547666160234));
#1417=CARTESIAN_POINT('',(1.,1.85013241204832,1.29547666160234));
#1418=CARTESIAN_POINT('',(1.,1.85013241204832,1.29547666160234));
#1419=CARTESIAN_POINT('',(22.7260158161842,1.85013241204832,1.29547666160234));
#1420=CARTESIAN_POINT('',(22.7260158161842,2.04698190498164,0.954523338397644));
#1421=CARTESIAN_POINT('',(2.30709079047671,2.04698190498165,0.954523338397645));
#1422=CARTESIAN_POINT('',(22.7260158161842,1.85013241204832,1.29547666160234));
#1423=CARTESIAN_POINT('',(2.30709079047671,1.85013241204832,1.29547666160234));
#1424=CARTESIAN_POINT('',(2.30709079047672,2.04698190498165,0.954523338397644));
#1425=CARTESIAN_POINT('',(2.31842385312737,1.98196574945727,1.06713462307866));
#1426=CARTESIAN_POINT('',(2.31855937566488,1.91592604093959,1.18151875354832));
#1427=CARTESIAN_POINT('',(2.30709079047672,1.85013241204832,1.29547666160234));
#1428=CARTESIAN_POINT('',(22.7260158161842,2.04698190498164,0.954523338397644));
#1429=CARTESIAN_POINT('',(0.,2.71892336110995,1.26785478522209));
#1430=CARTESIAN_POINT('',(1.56568542494924,2.71892336110995,1.26785478522209));
#1431=CARTESIAN_POINT('',(4.56568542494924,5.7275454688914E-17,-1.22827608955708E-16));
#1432=CARTESIAN_POINT('',(22.7260158161842,1.85013241204832,1.29547666160234));
#1433=CARTESIAN_POINT('',(0.,2.45745613286698,1.72072930905313));
#1434=CARTESIAN_POINT('',(1.56568542494924,2.45745613286698,1.72072930905313));
#1435=CARTESIAN_POINT('',(4.56568542494924,-1.55468204594574E-17,2.22031606503517E-17));
#1436=CARTESIAN_POINT('',(1.,3.06151588455595E-17,5.30270106023006E-17));
#1437=CARTESIAN_POINT('',(1.,1.85013241204831,-1.29547666160235));
#1438=CARTESIAN_POINT('',(1.,1.85013241204831,-1.29547666160235));
#1439=CARTESIAN_POINT('',(1.,2.45745613286697,-1.72072930905314));
#1440=CARTESIAN_POINT('',(1.,0.,0.));
#1441=CARTESIAN_POINT('',(1.,2.71892336110995,-1.2678547852221));
#1442=CARTESIAN_POINT('',(1.,2.04698190498164,-0.954523338397651));
#1443=CARTESIAN_POINT('',(1.,2.04698190498164,-0.954523338397651));
#1444=CARTESIAN_POINT('',(1.,2.04698190498164,-0.954523338397651));
#1445=CARTESIAN_POINT('',(22.7260158161842,2.04698190498164,-0.954523338397651));
#1446=CARTESIAN_POINT('',(22.7260158161842,1.85013241204831,-1.29547666160235));
#1447=CARTESIAN_POINT('',(2.30709079047671,1.85013241204831,-1.29547666160235));
#1448=CARTESIAN_POINT('',(22.7260158161842,2.04698190498164,-0.954523338397651));
#1449=CARTESIAN_POINT('',(2.30709079047671,2.04698190498164,-0.954523338397651));
#1450=CARTESIAN_POINT('',(2.30709079047672,1.85013241204831,-1.29547666160235));
#1451=CARTESIAN_POINT('',(2.31842385312737,1.91514856757269,-1.18286537692133));
#1452=CARTESIAN_POINT('',(2.31855937566488,1.98118827609037,-1.06848124645167));
#1453=CARTESIAN_POINT('',(2.30709079047672,2.04698190498164,-0.95452333839765));
#1454=CARTESIAN_POINT('',(22.7260158161842,1.85013241204831,-1.29547666160235));
#1455=CARTESIAN_POINT('',(0.,2.45745613286697,-1.72072930905314));
#1456=CARTESIAN_POINT('',(1.56568542494924,2.45745613286697,-1.72072930905314));
#1457=CARTESIAN_POINT('',(4.56568542494924,-7.77341022972874E-17,-1.11015803251758E-16));
#1458=CARTESIAN_POINT('',(22.7260158161842,2.04698190498164,-0.954523338397651));
#1459=CARTESIAN_POINT('',(0.,2.71892336110995,-1.2678547852221));
#1460=CARTESIAN_POINT('',(1.56568542494924,2.71892336110995,-1.2678547852221));
#1461=CARTESIAN_POINT('',(4.56568542494924,1.14550909377829E-17,2.45655217911416E-17));
#1462=CARTESIAN_POINT('',(1.,6.12303176911189E-17,-6.1881998061755E-32));
#1463=CARTESIAN_POINT('',(1.,-0.196849492933331,-2.24999999999999));
#1464=CARTESIAN_POINT('',(1.,-0.196849492933331,-2.24999999999999));
#1465=CARTESIAN_POINT('',(1.,-0.261467228242978,-2.98858409427524));
#1466=CARTESIAN_POINT('',(1.,0.,0.));
#1467=CARTESIAN_POINT('',(1.,0.261467228242971,-2.98858409427524));
#1468=CARTESIAN_POINT('',(1.,0.196849492933326,-2.24999999999999));
#1469=CARTESIAN_POINT('',(1.,0.196849492933326,-2.24999999999999));
#1470=CARTESIAN_POINT('',(1.,0.196849492933326,-2.24999999999999));
#1471=CARTESIAN_POINT('',(22.7260158161842,0.196849492933326,-2.24999999999999));
#1472=CARTESIAN_POINT('',(22.7260158161842,-0.196849492933331,-2.24999999999999));
#1473=CARTESIAN_POINT('',(2.30709079047671,-0.196849492933331,-2.24999999999999));
#1474=CARTESIAN_POINT('',(22.7260158161842,0.196849492933326,-2.24999999999999));
#1475=CARTESIAN_POINT('',(2.30709079047671,0.196849492933326,-2.24999999999999));
#1476=CARTESIAN_POINT('',(2.30709079047672,-0.196849492933331,-2.24999999999999));
#1477=CARTESIAN_POINT('',(2.31842385312737,-0.0668171818845818,-2.24999999999999));
#1478=CARTESIAN_POINT('',(2.31855937566488,0.0652622351507748,-2.24999999999999));
#1479=CARTESIAN_POINT('',(2.30709079047672,0.196849492933327,-2.24999999999999));
#1480=CARTESIAN_POINT('',(22.7260158161842,-0.196849492933331,-2.24999999999999));
#1481=CARTESIAN_POINT('',(0.,-0.261467228242978,-2.98858409427524));
#1482=CARTESIAN_POINT('',(1.56568542494924,-0.261467228242978,-2.98858409427524));
#1483=CARTESIAN_POINT('',(4.56568542494924,-1.35009556986201E-16,1.181180570395E-17));
#1484=CARTESIAN_POINT('',(22.7260158161842,0.196849492933326,-2.24999999999999));
#1485=CARTESIAN_POINT('',(0.,0.261467228242971,-2.98858409427524));
#1486=CARTESIAN_POINT('',(1.56568542494924,0.261467228242972,-2.98858409427524));
#1487=CARTESIAN_POINT('',(4.56568542494924,2.70019113972403E-17,2.36236114078994E-18));
#1488=CARTESIAN_POINT('',(1.,3.06151588455594E-17,-5.30270106023007E-17));
#1489=CARTESIAN_POINT('',(1.,-2.04698190498164,-0.954523338397647));
#1490=CARTESIAN_POINT('',(1.,-2.04698190498164,-0.954523338397647));
#1491=CARTESIAN_POINT('',(1.,-2.71892336110995,-1.2678547852221));
#1492=CARTESIAN_POINT('',(1.,0.,0.));
#1493=CARTESIAN_POINT('',(1.,-2.45745613286698,-1.72072930905314));
#1494=CARTESIAN_POINT('',(1.,-1.85013241204832,-1.29547666160234));
#1495=CARTESIAN_POINT('',(1.,-1.85013241204832,-1.29547666160234));
#1496=CARTESIAN_POINT('',(1.,-1.85013241204832,-1.29547666160234));
#1497=CARTESIAN_POINT('',(22.7260158161842,-1.85013241204832,-1.29547666160234));
#1498=CARTESIAN_POINT('',(22.7260158161842,-2.04698190498164,-0.954523338397647));
#1499=CARTESIAN_POINT('',(2.30709079047671,-2.04698190498164,-0.954523338397647));
#1500=CARTESIAN_POINT('',(22.7260158161842,-1.85013241204832,-1.29547666160234));
#1501=CARTESIAN_POINT('',(2.30709079047671,-1.85013241204832,-1.29547666160234));
#1502=CARTESIAN_POINT('',(2.30709079047672,-2.04698190498164,-0.954523338397646));
#1503=CARTESIAN_POINT('',(2.31842385312737,-1.98196574945727,-1.06713462307866));
#1504=CARTESIAN_POINT('',(2.31855937566488,-1.91592604093959,-1.18151875354832));
#1505=CARTESIAN_POINT('',(2.30709079047672,-1.85013241204832,-1.29547666160234));
#1506=CARTESIAN_POINT('',(22.7260158161842,-2.04698190498164,-0.954523338397647));
#1507=CARTESIAN_POINT('',(0.,-2.71892336110995,-1.2678547852221));
#1508=CARTESIAN_POINT('',(1.56568542494924,-2.71892336110995,-1.2678547852221));
#1509=CARTESIAN_POINT('',(4.56568542494924,-5.72754546889142E-17,1.22827608955708E-16));
#1510=CARTESIAN_POINT('',(22.7260158161842,-1.85013241204832,-1.29547666160234));
#1511=CARTESIAN_POINT('',(0.,-2.45745613286698,-1.72072930905314));
#1512=CARTESIAN_POINT('',(1.56568542494924,-2.45745613286698,-1.72072930905314));
#1513=CARTESIAN_POINT('',(4.56568542494924,1.55468204594574E-17,-2.22031606503517E-17));
#1514=CARTESIAN_POINT('',(1.,-3.06151588455594E-17,-5.30270106023007E-17));
#1515=CARTESIAN_POINT('',(1.,-1.85013241204831,1.29547666160234));
#1516=CARTESIAN_POINT('',(1.,-1.85013241204831,1.29547666160234));
#1517=CARTESIAN_POINT('',(1.,-2.45745613286697,1.72072930905314));
#1518=CARTESIAN_POINT('',(1.,0.,0.));
#1519=CARTESIAN_POINT('',(1.,-2.71892336110995,1.2678547852221));
#1520=CARTESIAN_POINT('',(1.,-2.04698190498164,0.954523338397648));
#1521=CARTESIAN_POINT('',(1.,-2.04698190498164,0.954523338397648));
#1522=CARTESIAN_POINT('',(1.,-2.04698190498164,0.954523338397648));
#1523=CARTESIAN_POINT('',(22.7260158161842,-2.04698190498164,0.954523338397648));
#1524=CARTESIAN_POINT('',(22.7260158161842,-1.85013241204831,1.29547666160234));
#1525=CARTESIAN_POINT('',(2.30709079047671,-1.85013241204832,1.29547666160234));
#1526=CARTESIAN_POINT('',(22.7260158161842,-2.04698190498164,0.954523338397648));
#1527=CARTESIAN_POINT('',(2.30709079047671,-2.04698190498164,0.954523338397649));
#1528=CARTESIAN_POINT('',(2.30709079047672,-1.85013241204831,1.29547666160234));
#1529=CARTESIAN_POINT('',(2.31842385312736,-1.91514856757269,1.18286537692133));
#1530=CARTESIAN_POINT('',(2.31855937566488,-1.98118827609037,1.06848124645167));
#1531=CARTESIAN_POINT('',(2.30709079047672,-2.04698190498164,0.954523338397647));
#1532=CARTESIAN_POINT('',(22.7260158161842,-1.85013241204831,1.29547666160234));
#1533=CARTESIAN_POINT('',(0.,-2.45745613286697,1.72072930905314));
#1534=CARTESIAN_POINT('',(1.56568542494924,-2.45745613286698,1.72072930905314));
#1535=CARTESIAN_POINT('',(4.56568542494924,7.77341022972872E-17,1.11015803251758E-16));
#1536=CARTESIAN_POINT('',(22.7260158161842,-2.04698190498164,0.954523338397648));
#1537=CARTESIAN_POINT('',(0.,-2.71892336110995,1.2678547852221));
#1538=CARTESIAN_POINT('',(1.56568542494924,-2.71892336110995,1.2678547852221));
#1539=CARTESIAN_POINT('',(4.56568542494924,-1.14550909377828E-17,-2.45655217911416E-17));
#1540=CARTESIAN_POINT('',(0.,0.,0.));
#1541=CARTESIAN_POINT('',(0.,0.,0.));
#1542=CARTESIAN_POINT('',(0.,0.,3.));
#1543=CARTESIAN_POINT('',(1.56568542494924,0.,0.));
#1544=CARTESIAN_POINT('',(1.56568542494924,0.261467228242975,2.98858409427524));
#1545=CARTESIAN_POINT('',(1.56568542494924,0.,0.));
#1546=CARTESIAN_POINT('',(1.56568542494924,0.,0.));
#1547=CARTESIAN_POINT('',(1.56568542494924,0.,0.));
#1548=CARTESIAN_POINT('',(1.56568542494924,0.,0.));
#1549=CARTESIAN_POINT('',(1.56568542494924,0.,0.));
#1550=CARTESIAN_POINT('',(1.56568542494924,-0.261467228242975,2.98858409427524));
#1551=CARTESIAN_POINT('',(0.,-0.261467228242975,2.98858409427524));
#1552=CARTESIAN_POINT('',(1.,-0.261467228242975,2.98858409427524));
#1553=CARTESIAN_POINT('',(1.,0.,0.));
#1554=CARTESIAN_POINT('',(1.,0.261467228242974,2.98858409427524));
#1555=CARTESIAN_POINT('',(0.,0.261467228242974,2.98858409427524));
#1556=CARTESIAN_POINT('',(1.56568542494924,0.,0.));
#1557=CARTESIAN_POINT('',(3.06568542494924,0.,0.));
#1558=CARTESIAN_POINT('',(3.06568542494924,0.,1.5));
#1559=CARTESIAN_POINT('',(4.56568542494924,1.35009556986201E-16,-1.18118057039498E-17));
#1560=CARTESIAN_POINT('',(2.30709079047671,0.196849492933328,2.24999999999999));
#1561=CARTESIAN_POINT('',(2.30709079047672,0.196849492933329,2.24999999999999));
#1562=CARTESIAN_POINT('',(2.31842385312737,0.0668171818845795,2.24999999999999));
#1563=CARTESIAN_POINT('',(2.31855937566488,-0.0652622351507772,2.24999999999999));
#1564=CARTESIAN_POINT('',(2.30709079047672,-0.196849492933329,2.24999999999999));
#1565=CARTESIAN_POINT('',(2.30709079047671,-0.196849492933328,2.24999999999999));
#1566=CARTESIAN_POINT('',(4.56568542494924,-2.70019113972403E-17,-2.36236114078997E-18));
#1567=CARTESIAN_POINT('',(-1.83690953073357E-17,-0.3,1.2));
#1568=CARTESIAN_POINT('',(1.25,-0.05820855000872,0.23283420003488));
#1569=CARTESIAN_POINT('',(-1.83690953073357E-17,-0.3,1.));
#1570=CARTESIAN_POINT('',(1.25,-0.107030057462684,0.220628823171389));
#1571=CARTESIAN_POINT('',(-1.83690953073357E-17,-0.3,0.800000000000001));
#1572=CARTESIAN_POINT('',(1.25,-0.151662549729331,0.19267872154516));
#1573=CARTESIAN_POINT('',(-1.83690953073357E-17,-0.3,0.498200000000001));
#1574=CARTESIAN_POINT('',(1.25,-0.200381618901629,0.134542951181729));
#1575=CARTESIAN_POINT('',(-1.83690953073357E-17,-0.3,0.396400000000001));
#1576=CARTESIAN_POINT('',(1.25,-0.213558826544896,0.112247752853769));
#1577=CARTESIAN_POINT('',(-1.83690953073357E-17,-0.3,0.294600000000001));
#1578=CARTESIAN_POINT('',(1.25,-0.222995269359941,0.0884686399403167));
#1579=CARTESIAN_POINT('',(1.23375929986687,-0.166285352213033,0.181675692989113));
#1580=CARTESIAN_POINT('',(1.23916721949187,-0.164877585735572,0.180178706597931));
#1581=CARTESIAN_POINT('',(1.24457513911686,-0.16345350073782,0.178626983465394));
#1582=CARTESIAN_POINT('',(1.24998305874185,-0.162012976703065,0.177020229968514));
#1583=CARTESIAN_POINT('',(1.23375929986687,-0.16628535221304,0.181675692989118));
#1584=CARTESIAN_POINT('',(1.25,-0.162025230496178,0.177033208909933));
#1585=CARTESIAN_POINT('',(-1.83690953073357E-17,-0.3,0.300000000000001));
#1586=CARTESIAN_POINT('',(0.20757335096238,-0.287128991852292,0.288830946184517));
#1587=CARTESIAN_POINT('',(0.620830049473397,-0.258431516705703,0.262447828284781));
#1588=CARTESIAN_POINT('',(1.03890721314717,-0.218752886416864,0.233851023975323));
#1589=CARTESIAN_POINT('',(1.23375929986687,-0.16628535221304,0.181675692989118));
#1590=CARTESIAN_POINT('',(-1.83690953073357E-17,-0.3,0.300000000000001));
#1591=CARTESIAN_POINT('',(-1.83690953073357E-17,-0.3,1.2));
#1592=CARTESIAN_POINT('',(-1.83690953073357E-17,-0.3,1.2));
#1593=CARTESIAN_POINT('',(0.625,-0.17910427500436,0.71641710001744));
#1594=CARTESIAN_POINT('',(1.25,-0.05820855000872,0.23283420003488));
#1595=CARTESIAN_POINT('',(1.25,0.,0.));
#1596=CARTESIAN_POINT('',(1.83690953073357E-17,0.3,-1.2));
#1597=CARTESIAN_POINT('',(1.25,0.0582085500087198,-0.23283420003488));
#1598=CARTESIAN_POINT('',(1.83690953073357E-17,0.3,-0.999999999999999));
#1599=CARTESIAN_POINT('',(1.25,0.107030057462684,-0.220628823171389));
#1600=CARTESIAN_POINT('',(1.83690953073357E-17,0.3,-0.799999999999999));
#1601=CARTESIAN_POINT('',(1.25,0.15166254972933,-0.19267872154516));
#1602=CARTESIAN_POINT('',(1.83690953073357E-17,0.3,-0.4982));
#1603=CARTESIAN_POINT('',(1.25,0.200381618901628,-0.13454295118173));
#1604=CARTESIAN_POINT('',(1.83690953073357E-17,0.3,-0.3964));
#1605=CARTESIAN_POINT('',(1.25,0.213558826544896,-0.112247752853769));
#1606=CARTESIAN_POINT('',(1.83690953073357E-17,0.3,-0.2946));
#1607=CARTESIAN_POINT('',(1.25,0.222995269359941,-0.0884686399403169));
#1608=CARTESIAN_POINT('',(1.23375929986687,0.166285352213032,-0.181675692989114));
#1609=CARTESIAN_POINT('',(1.23916721949186,0.164877585735574,-0.180178706597929));
#1610=CARTESIAN_POINT('',(1.24457513911686,0.163453500737827,-0.178626983465389));
#1611=CARTESIAN_POINT('',(1.24998305874185,0.162012976703075,-0.177020229968507));
#1612=CARTESIAN_POINT('',(1.23375929986687,0.166285352213039,-0.181675692989119));
#1613=CARTESIAN_POINT('',(1.25,0.162017840094002,-0.177025500032968));
#1614=CARTESIAN_POINT('',(1.83690953073357E-17,0.3,-0.3));
#1615=CARTESIAN_POINT('',(0.20757335096238,0.287128991852292,-0.288830946184517));
#1616=CARTESIAN_POINT('',(0.620830049473398,0.258431516705701,-0.262447828284782));
#1617=CARTESIAN_POINT('',(1.03890721314717,0.218752886416868,-0.233851023975319));
#1618=CARTESIAN_POINT('',(1.23375929986687,0.166285352213039,-0.181675692989119));
#1619=CARTESIAN_POINT('',(1.83690953073357E-17,0.3,-0.3));
#1620=CARTESIAN_POINT('',(1.83690953073357E-17,0.3,-1.2));
#1621=CARTESIAN_POINT('',(1.46952762458685E-17,0.3,-1.2));
#1622=CARTESIAN_POINT('',(0.625,0.17910427500436,-0.71641710001744));
#1623=CARTESIAN_POINT('',(1.25,0.0582085500087198,-0.23283420003488));
#1624=CARTESIAN_POINT('',(1.25,0.,0.));
#1625=CARTESIAN_POINT('',(1.83690953073357E-17,0.3,0.294600000000001));
#1626=CARTESIAN_POINT('',(1.25,0.23306579095347,0.0568676313647367));
#1627=CARTESIAN_POINT('',(1.83690953073357E-17,0.3,0.396400000000001));
#1628=CARTESIAN_POINT('',(1.25,0.226999148139244,0.081720971359935));
#1629=CARTESIAN_POINT('',(1.83690953073357E-17,0.3,0.498200000000001));
#1630=CARTESIAN_POINT('',(1.25,0.217022827933914,0.105620504931066));
#1631=CARTESIAN_POINT('',(1.83690953073357E-17,0.3,0.8));
#1632=CARTESIAN_POINT('',(1.25,0.176787445024304,0.169920034158594));
#1633=CARTESIAN_POINT('',(1.83690953073357E-17,0.3,1.));
#1634=CARTESIAN_POINT('',(1.25,0.136436372575132,0.203758747181556));
#1635=CARTESIAN_POINT('',(1.83690953073357E-17,0.3,1.2));
#1636=CARTESIAN_POINT('',(1.25,0.0897648028348394,0.222580951952368));
#1637=CARTESIAN_POINT('',(1.83690953073357E-17,0.3,0.300000000000001));
#1638=CARTESIAN_POINT('',(0.20757335096238,0.288830946184517,0.287128991852293));
#1639=CARTESIAN_POINT('',(0.620830049473397,0.262447828284783,0.258431516705701));
#1640=CARTESIAN_POINT('',(1.03890721314717,0.233851023975318,0.218752886416869));
#1641=CARTESIAN_POINT('',(1.23375929986687,0.181675692989119,0.16628535221304));
#1642=CARTESIAN_POINT('',(1.83690953073357E-17,0.3,0.300000000000001));
#1643=CARTESIAN_POINT('',(1.23375929986687,0.181675692989119,0.16628535221304));
#1644=CARTESIAN_POINT('',(1.23375929986687,0.181675692989119,0.16628535221304));
#1645=CARTESIAN_POINT('',(1.23916470357641,0.180143903043409,0.164932067014006));
#1646=CARTESIAN_POINT('',(1.24457010728594,0.178587710554722,0.163503987504327));
#1647=CARTESIAN_POINT('',(1.24997551099548,0.177006898126716,0.16200054220531));
#1648=CARTESIAN_POINT('',(1.25,0.177033360980038,0.16202506445081));
#1649=CARTESIAN_POINT('',(1.25,0.,0.));
#1650=CARTESIAN_POINT('',(1.25,0.17022321925517,0.169130651419506));
#1651=CARTESIAN_POINT('',(1.25,0.170248732525809,0.169156061394085));
#1652=CARTESIAN_POINT('',(1.25,0.156457050031046,0.183003809528096));
#1653=CARTESIAN_POINT('',(1.25,0.140972227360313,0.195259880792923));
#1654=CARTESIAN_POINT('',(1.25,0.12439796905577,0.205291865779618));
#1655=CARTESIAN_POINT('',(1.25,0.124373941581686,0.20525216899355));
#1656=CARTESIAN_POINT('',(1.25,0.,0.));
#1657=CARTESIAN_POINT('',(1.25,0.0897648028348394,0.222580951952368));
#1658=CARTESIAN_POINT('',(0.625,0.19488240141742,0.711290475976185));
#1659=CARTESIAN_POINT('',(5.80633631452887E-17,0.3,1.2));
#1660=CARTESIAN_POINT('',(1.83690953073357E-17,0.3,-1.2));
#1661=CARTESIAN_POINT('',(0.,0.,0.));
#1662=CARTESIAN_POINT('',(-7.34763812293426E-17,-1.2,0.3));
#1663=CARTESIAN_POINT('',(-1.02149191882894E-16,-1.2,0.3));
#1664=CARTESIAN_POINT('',(-3.7097061533764E-17,-1.2,-0.3));
#1665=CARTESIAN_POINT('',(-7.34763812293426E-17,-1.2,-0.3));
#1666=CARTESIAN_POINT('',(-1.83690953073357E-17,-0.3,-0.3));
#1667=CARTESIAN_POINT('',(-1.83690953073357E-17,-0.3,1.2));
#1668=CARTESIAN_POINT('',(-7.97474065949988E-17,-0.3,-1.2));
#1669=CARTESIAN_POINT('',(-1.83690953073356E-17,-0.3,-1.2));
#1670=CARTESIAN_POINT('',(-7.34763812293426E-17,-1.2,-0.3));
#1671=CARTESIAN_POINT('',(1.23833235332604E-16,1.2,-0.3));
#1672=CARTESIAN_POINT('',(7.34763812293427E-17,1.2,-0.3));
#1673=CARTESIAN_POINT('',(8.04651484331842E-17,1.2,0.300000000000001));
#1674=CARTESIAN_POINT('',(7.34763812293427E-17,1.2,0.300000000000001));
#1675=CARTESIAN_POINT('',(1.83690953073357E-17,0.3,1.2));
#1676=CARTESIAN_POINT('',(7.34763812293427E-17,1.2,0.300000000000001));
#1677=CARTESIAN_POINT('',(1.83690953073357E-17,0.3,1.2));
#1678=CARTESIAN_POINT('',(1.25,0.0897648028348394,0.222580951952368));
#1679=CARTESIAN_POINT('',(6.12303176911188E-18,0.1,1.2));
#1680=CARTESIAN_POINT('',(1.25,0.0430091114869339,0.241437082175719));
#1681=CARTESIAN_POINT('',(-6.1230317691119E-18,-0.1,1.2));
#1682=CARTESIAN_POINT('',(1.25,-0.00929904586392273,0.245061576071079));
#1683=CARTESIAN_POINT('',(-1.83690953073357E-17,-0.3,1.2));
#1684=CARTESIAN_POINT('',(1.25,-0.05820855000872,0.23283420003488));
#1685=CARTESIAN_POINT('',(1.25,0.,0.));
#1686=CARTESIAN_POINT('',(-1.83690953073356E-17,-0.3,-1.2));
#1687=CARTESIAN_POINT('',(1.25,-0.0897648028348397,-0.222580951952368));
#1688=CARTESIAN_POINT('',(-6.12303176911185E-18,-0.0999999999999995,-1.2));
#1689=CARTESIAN_POINT('',(1.25,-0.0430091114869343,-0.241437082175719));
#1690=CARTESIAN_POINT('',(6.12303176911188E-18,0.0999999999999998,-1.2));
#1691=CARTESIAN_POINT('',(1.25,0.00929904586392236,-0.245061576071079));
#1692=CARTESIAN_POINT('',(1.83690953073357E-17,0.3,-1.2));
#1693=CARTESIAN_POINT('',(1.25,0.0582085500087198,-0.23283420003488));
#1694=CARTESIAN_POINT('',(0.625,-0.19488240141742,-0.711290475976184));
#1695=CARTESIAN_POINT('',(1.25,-0.0897648028348397,-0.222580951952368));
#1696=CARTESIAN_POINT('',(1.25,0.,0.));
#1697=CARTESIAN_POINT('',(-1.83690953073357E-17,-0.3,-0.2946));
#1698=CARTESIAN_POINT('',(1.25,-0.23306579095347,-0.0568676313647367));
#1699=CARTESIAN_POINT('',(-1.83690953073357E-17,-0.3,-0.396399999999999));
#1700=CARTESIAN_POINT('',(1.25,-0.226999148139244,-0.0817209713599349));
#1701=CARTESIAN_POINT('',(-1.83690953073357E-17,-0.3,-0.498199999999999));
#1702=CARTESIAN_POINT('',(1.25,-0.217022827933914,-0.105620504931066));
#1703=CARTESIAN_POINT('',(-1.83690953073356E-17,-0.3,-0.799999999999999));
#1704=CARTESIAN_POINT('',(1.25,-0.176787445024304,-0.169920034158593));
#1705=CARTESIAN_POINT('',(-1.83690953073356E-17,-0.3,-1.));
#1706=CARTESIAN_POINT('',(1.25,-0.136436372575132,-0.203758747181556));
#1707=CARTESIAN_POINT('',(-1.83690953073356E-17,-0.3,-1.2));
#1708=CARTESIAN_POINT('',(1.25,-0.0897648028348397,-0.222580951952368));
#1709=CARTESIAN_POINT('',(-1.83690953073357E-17,-0.3,-0.3));
#1710=CARTESIAN_POINT('',(0.20757335096238,-0.288830946184517,-0.287128991852292));
#1711=CARTESIAN_POINT('',(0.620830049473397,-0.26244782828478,-0.258431516705704));
#1712=CARTESIAN_POINT('',(1.03890721314717,-0.233851023975324,-0.218752886416862));
#1713=CARTESIAN_POINT('',(1.23375929986687,-0.181675692989118,-0.16628535221304));
#1714=CARTESIAN_POINT('',(1.23375929986687,-0.181675692989118,-0.16628535221304));
#1715=CARTESIAN_POINT('',(1.23375929986687,-0.181675692989118,-0.16628535221304));
#1716=CARTESIAN_POINT('',(1.23916470357618,-0.180143903043712,-0.164932067013771));
#1717=CARTESIAN_POINT('',(1.2445701072855,-0.178587710555339,-0.163503987503882));
#1718=CARTESIAN_POINT('',(1.24997551099481,-0.177006898127658,-0.162000542204683));
#1719=CARTESIAN_POINT('',(1.25,-0.177025659955709,-0.162017665887769));
#1720=CARTESIAN_POINT('',(1.25,0.,0.));
#1721=CARTESIAN_POINT('',(1.25,-0.170223219261483,-0.169130651413168));
#1722=CARTESIAN_POINT('',(1.25,-0.170248732532123,-0.169156061387746));
#1723=CARTESIAN_POINT('',(1.25,-0.15645699781597,-0.183003861956454));
#1724=CARTESIAN_POINT('',(1.25,-0.140972111894108,-0.195259971871794));
#1725=CARTESIAN_POINT('',(1.25,-0.124397780788828,-0.205291979732781));
#1726=CARTESIAN_POINT('',(1.25,-0.124373753481735,-0.205252283138754));
#1727=CARTESIAN_POINT('',(1.25,0.,0.));
#1728=CARTESIAN_POINT('',(1.25,0.,0.));
#1729=CARTESIAN_POINT('',(1.25,0.,0.));
#1730=CARTESIAN_POINT('',(1.25,0.232787313194887,0.0581965996254609));
#1731=CARTESIAN_POINT('',(1.25,0.,0.));
#1732=CARTESIAN_POINT('',(1.25,0.222535995442962,-0.0897469115049111));
#1733=CARTESIAN_POINT('',(1.25,0.,0.));
#1734=CARTESIAN_POINT('',(1.25,0.205247457455446,-0.124371093169322));
#1735=CARTESIAN_POINT('',(1.25,0.169156676305815,-0.170248120101499));
#1736=CARTESIAN_POINT('',(1.25,0.183037562863791,-0.156423334713444));
#1737=CARTESIAN_POINT('',(1.25,0.195228542350628,-0.141004718148313));
#1738=CARTESIAN_POINT('',(1.25,0.205272978099473,-0.124386643461232));
#1739=CARTESIAN_POINT('',(1.25,0.16914040424062,-0.170232396834397));
#1740=CARTESIAN_POINT('',(1.25,0.,0.));
#1741=CARTESIAN_POINT('',(1.25,0.,0.));
#1742=CARTESIAN_POINT('',(1.25,-0.232787313194887,-0.0581965996254607));
#1743=CARTESIAN_POINT('',(1.25,0.,0.));
#1744=CARTESIAN_POINT('',(1.25,-0.222535995442962,0.089746911504911));
#1745=CARTESIAN_POINT('',(1.25,0.,0.));
#1746=CARTESIAN_POINT('',(1.25,-0.205247423574538,0.124371149279868));
#1747=CARTESIAN_POINT('',(1.24923074461188,-0.169361573039954,0.170416415636321));
#1748=CARTESIAN_POINT('',(1.24983146472781,-0.183039055677285,0.156492063387138));
#1749=CARTESIAN_POINT('',(1.24983683236189,-0.195152155366923,0.141089046112151));
#1750=CARTESIAN_POINT('',(1.25,-0.205212417232197,0.124350004468816));
#1751=CARTESIAN_POINT('',(1.25,-0.169140425386033,0.170232375772658));
#1752=CARTESIAN_POINT('',(1.25,0.,0.));
#1753=CARTESIAN_POINT('',(7.34763812293427E-17,1.2,0.300000000000001));
#1754=CARTESIAN_POINT('',(1.25,0.23283420003488,0.05820855000872));
#1755=CARTESIAN_POINT('',(6.12303176911189E-17,1.,0.300000000000001));
#1756=CARTESIAN_POINT('',(1.25,0.220628823171389,0.107030057462684));
#1757=CARTESIAN_POINT('',(4.89842541528951E-17,0.8,0.300000000000001));
#1758=CARTESIAN_POINT('',(1.25,0.19267872154516,0.151662549729331));
#1759=CARTESIAN_POINT('',(3.05049442737154E-17,0.4982,0.300000000000001));
#1760=CARTESIAN_POINT('',(1.25,0.134542951181729,0.200381618901628));
#1761=CARTESIAN_POINT('',(2.42716979327595E-17,0.3964,0.300000000000001));
#1762=CARTESIAN_POINT('',(1.25,0.112247752853769,0.213558826544896));
#1763=CARTESIAN_POINT('',(1.80384515918036E-17,0.2946,0.300000000000001));
#1764=CARTESIAN_POINT('',(1.25,0.0884686399403166,0.222995269359941));
#1765=CARTESIAN_POINT('',(0.625,0.71641710001744,0.17910427500436));
#1766=CARTESIAN_POINT('',(1.80384515918036E-17,0.2946,-0.3));
#1767=CARTESIAN_POINT('',(1.25,0.0568676313647368,-0.23306579095347));
#1768=CARTESIAN_POINT('',(2.42716979327595E-17,0.3964,-0.3));
#1769=CARTESIAN_POINT('',(1.25,0.0817209713599351,-0.226999148139244));
#1770=CARTESIAN_POINT('',(3.05049442737154E-17,0.4982,-0.3));
#1771=CARTESIAN_POINT('',(1.25,0.105620504931066,-0.217022827933914));
#1772=CARTESIAN_POINT('',(4.89842541528951E-17,0.8,-0.3));
#1773=CARTESIAN_POINT('',(1.25,0.169920034158594,-0.176787445024304));
#1774=CARTESIAN_POINT('',(6.12303176911189E-17,1.,-0.3));
#1775=CARTESIAN_POINT('',(1.25,0.203758747181556,-0.136436372575132));
#1776=CARTESIAN_POINT('',(7.34763812293427E-17,1.2,-0.3));
#1777=CARTESIAN_POINT('',(1.25,0.222580951952368,-0.0897648028348395));
#1778=CARTESIAN_POINT('',(0.625,0.711290475976184,-0.19488240141742));
#1779=CARTESIAN_POINT('',(7.34763812293427E-17,1.2,-0.3));
#1780=CARTESIAN_POINT('',(1.25,0.222580951952368,-0.0897648028348395));
#1781=CARTESIAN_POINT('',(7.34763812293427E-17,1.2,-0.0999999999999995));
#1782=CARTESIAN_POINT('',(1.25,0.241437082175719,-0.0430091114869342));
#1783=CARTESIAN_POINT('',(7.34763812293427E-17,1.2,0.100000000000001));
#1784=CARTESIAN_POINT('',(1.25,0.245061576071079,0.00929904586392235));
#1785=CARTESIAN_POINT('',(7.34763812293427E-17,1.2,0.300000000000001));
#1786=CARTESIAN_POINT('',(1.25,0.23283420003488,0.05820855000872));
#1787=CARTESIAN_POINT('',(-1.80384515918036E-17,-0.2946,0.300000000000001));
#1788=CARTESIAN_POINT('',(1.25,-0.056867631364737,0.23306579095347));
#1789=CARTESIAN_POINT('',(-2.42716979327595E-17,-0.3964,0.300000000000001));
#1790=CARTESIAN_POINT('',(1.25,-0.0817209713599353,0.226999148139244));
#1791=CARTESIAN_POINT('',(-3.05049442737154E-17,-0.4982,0.300000000000001));
#1792=CARTESIAN_POINT('',(1.25,-0.105620504931066,0.217022827933914));
#1793=CARTESIAN_POINT('',(-4.89842541528951E-17,-0.8,0.300000000000001));
#1794=CARTESIAN_POINT('',(1.25,-0.169920034158594,0.176787445024304));
#1795=CARTESIAN_POINT('',(-6.12303176911189E-17,-1.,0.3));
#1796=CARTESIAN_POINT('',(1.25,-0.203758747181556,0.136436372575132));
#1797=CARTESIAN_POINT('',(-7.34763812293426E-17,-1.2,0.3));
#1798=CARTESIAN_POINT('',(1.25,-0.222580951952368,0.0897648028348393));
#1799=CARTESIAN_POINT('',(0.625,-0.711290475976184,0.19488240141742));
#1800=CARTESIAN_POINT('',(-7.34763812293426E-17,-1.2,-0.3));
#1801=CARTESIAN_POINT('',(1.25,-0.23283420003488,-0.0582085500087202));
#1802=CARTESIAN_POINT('',(-6.12303176911189E-17,-1.,-0.3));
#1803=CARTESIAN_POINT('',(1.25,-0.220628823171388,-0.107030057462685));
#1804=CARTESIAN_POINT('',(-4.89842541528951E-17,-0.8,-0.3));
#1805=CARTESIAN_POINT('',(1.25,-0.19267872154516,-0.151662549729331));
#1806=CARTESIAN_POINT('',(-3.05049442737154E-17,-0.4982,-0.3));
#1807=CARTESIAN_POINT('',(1.25,-0.134542951181729,-0.200381618901629));
#1808=CARTESIAN_POINT('',(-2.42716979327595E-17,-0.3964,-0.3));
#1809=CARTESIAN_POINT('',(1.25,-0.112247752853769,-0.213558826544896));
#1810=CARTESIAN_POINT('',(-1.80384515918036E-17,-0.2946,-0.3));
#1811=CARTESIAN_POINT('',(1.25,-0.0884686399403167,-0.222995269359941));
#1812=CARTESIAN_POINT('',(0.625,-0.71641710001744,-0.17910427500436));
#1813=CARTESIAN_POINT('',(-7.34763812293426E-17,-1.2,0.3));
#1814=CARTESIAN_POINT('',(1.25,-0.222580951952368,0.0897648028348393));
#1815=CARTESIAN_POINT('',(-7.34763812293426E-17,-1.2,0.1));
#1816=CARTESIAN_POINT('',(1.25,-0.241437082175719,0.0430091114869338));
#1817=CARTESIAN_POINT('',(-7.34763812293426E-17,-1.2,-0.0999999999999994));
#1818=CARTESIAN_POINT('',(1.25,-0.245061576071079,-0.00929904586392275));
#1819=CARTESIAN_POINT('',(-7.34763812293426E-17,-1.2,-0.3));
#1820=CARTESIAN_POINT('',(1.25,-0.23283420003488,-0.0582085500087202));
#1821=CARTESIAN_POINT('',(20.,0.,0.));
#1822=CARTESIAN_POINT('',(20.,0.,0.));
#1823=CARTESIAN_POINT('',(20.,0.,1.5));
#1824=CARTESIAN_POINT('',(0.,0.,0.));
#1825=CARTESIAN_POINT('',(1.,-6.12303176911189E-17,0.));
#1826=CARTESIAN_POINT('',(1.,0.196849492933328,2.24999999999999));
#1827=CARTESIAN_POINT('',(1.,0.196849492933328,2.24999999999999));
#1828=CARTESIAN_POINT('',(1.,-0.196849492933328,2.24999999999999));
#1829=CARTESIAN_POINT('',(1.,-0.196849492933328,2.24999999999999));
#1830=CARTESIAN_POINT('',(1.,-0.196849492933328,2.24999999999999));
#1831=CARTESIAN_POINT('',(22.7260158161842,-0.196849492933328,2.24999999999999));
#1832=CARTESIAN_POINT('',(22.7260158161842,0.196849492933328,2.24999999999999));
#1833=CARTESIAN_POINT('',(22.7260158161842,-0.196849492933328,2.24999999999999));
#1834=CARTESIAN_POINT('',(22.7260158161842,0.196849492933328,2.24999999999999));
#1835=CARTESIAN_POINT('',(22.7260158161842,-0.196849492933328,2.24999999999999));
#1836=MECHANICAL_DESIGN_GEOMETRIC_PRESENTATION_REPRESENTATION('',(#807,
#808,#809,#810,#811,#812,#813,#814,#815,#816,#817,#818,#819,#820,#821,#822,
#823,#824,#825,#826,#827,#828,#829,#830,#831,#832,#833,#834,#835,#836,#837,
#838,#839,#840,#841,#842,#843,#844,#845,#846,#847,#848),#1837);
#1837=(
GEOMETRIC_REPRESENTATION_CONTEXT(3)
GLOBAL_UNCERTAINTY_ASSIGNED_CONTEXT((#1838))
GLOBAL_UNIT_ASSIGNED_CONTEXT((#1841,#1840,#1839))
REPRESENTATION_CONTEXT(
'\X2\53415B5769FD6C89593487BA9489548C95255F6295017D2757AB57087EC454084EF6\X0\ 
GBT9074.9-1988','TOP_LEVEL_ASSEMBLY_PART')
);
#1838=UNCERTAINTY_MEASURE_WITH_UNIT(LENGTH_MEASURE(0.005),#1841,
'DISTANCE_ACCURACY_VALUE','Maximum Tolerance applied to model');
#1839=(
NAMED_UNIT(*)
SI_UNIT($,.STERADIAN.)
SOLID_ANGLE_UNIT()
);
#1840=(
NAMED_UNIT(*)
PLANE_ANGLE_UNIT()
SI_UNIT($,.RADIAN.)
);
#1841=(
LENGTH_UNIT()
NAMED_UNIT(*)
SI_UNIT(.MILLI.,.METRE.)
);
#1842=PRODUCT_DEFINITION_SHAPE('','',#1843);
#1843=PRODUCT_DEFINITION('','',#1845,#1844);
#1844=PRODUCT_DEFINITION_CONTEXT('',#1851,'design');
#1845=PRODUCT_DEFINITION_FORMATION_WITH_SPECIFIED_SOURCE('','',#1847,
 .NOT_KNOWN.);
#1846=PRODUCT_RELATED_PRODUCT_CATEGORY('','',(#1847));
#1847=PRODUCT(
'\X2\53415B5769FD6C89593487BA9489548C95255F6295017D2757AB57087EC454084EF6\X0\ 
GBT9074.9-1988',
'\X2\53415B5769FD6C89593487BA9489548C95255F6295017D2757AB57087EC454084EF6\X0\ 
GBT9074.9-1988',
'\X2\53415B5769FD6C89593487BA9489548C95255F6295017D2757AB57087EC454084EF6\X0\ 
GBT9074.9-1988',(#1849));
#1848=PRODUCT_CATEGORY('','');
#1849=PRODUCT_CONTEXT('',#1851,'mechanical');
#1850=APPLICATION_PROTOCOL_DEFINITION('international standard',
'automotive_design',2010,#1851);
#1851=APPLICATION_CONTEXT(
'core data for automotive mechanical design processes');
ENDSEC;
END-ISO-10303-21;
