ISO-10303-21;
HEADER;
/* Generated by software containing HOOPS Exchange Step
 * from HOOPS Exchange, Inc. (www.tiangong.cloud) 
 */

FILE_DESCRIPTION(
/* description */ ('Unknown'),
/* implementation_level */ '2;1');

FILE_NAME(
/* name */ '\X2\5185516D89D282B15F62534A6C89593487BA9489\X0\',
/* time_stamp */ '2025-12-31T14:41:45+08:00',
/* author */ ('Unknown'),
/* organization */ ('Unknown'),
/* preprocessor_version */ 'ST-DEVELOPER v19.4',
/* originating_system */ 'TianGong',
/* authorisation */ 'Unknown');

FILE_SCHEMA (('AUTOMOTIVE_DESIGN {1 0 10303 214 3 1 1}'));
ENDSEC;

DATA;
#10=PROPERTY_DEFINITION_REPRESENTATION(#14,#12);
#11=PROPERTY_DEFINITION_REPRESENTATION(#15,#13);
#12=REPRESENTATION('',(#16),#925);
#13=REPRESENTATION('',(#17),#925);
#14=PROPERTY_DEFINITION('pmi validation property','',#930);
#15=PROPERTY_DEFINITION('pmi validation property','',#930);
#16=VALUE_REPRESENTATION_ITEM('number of annotations',COUNT_MEASURE(0.));
#17=VALUE_REPRESENTATION_ITEM('number of views',COUNT_MEASURE(0.));
#18=SHAPE_REPRESENTATION_RELATIONSHIP('','',#587,#19);
#19=ADVANCED_BREP_SHAPE_REPRESENTATION('',(#585),#925);
#20=TOROIDAL_SURFACE('',#656,1.5,0.5);
#21=LINE('',#875,#33);
#22=LINE('',#879,#34);
#23=LINE('',#881,#35);
#24=LINE('',#885,#36);
#25=LINE('',#889,#37);
#26=LINE('',#893,#38);
#27=LINE('',#897,#39);
#28=LINE('',#901,#40);
#29=LINE('',#905,#41);
#30=LINE('',#909,#42);
#31=LINE('',#913,#43);
#32=LINE('',#917,#44);
#33=VECTOR('',#745,1000.);
#34=VECTOR('',#748,1000.);
#35=VECTOR('',#751,1000.);
#36=VECTOR('',#756,1000.);
#37=VECTOR('',#761,1000.);
#38=VECTOR('',#766,1000.);
#39=VECTOR('',#771,1000.);
#40=VECTOR('',#776,1000.);
#41=VECTOR('',#781,1000.);
#42=VECTOR('',#786,1000.);
#43=VECTOR('',#791,1000.);
#44=VECTOR('',#796,1000.);
#45=CONICAL_SURFACE('',#629,2.10208200339544,0.785398163397448);
#46=SPHERICAL_SURFACE('',#625,4.);
#47=CYLINDRICAL_SURFACE('',#614,1.);
#48=CYLINDRICAL_SURFACE('',#617,1.);
#49=CYLINDRICAL_SURFACE('',#627,2.10208200339544);
#50=CYLINDRICAL_SURFACE('',#631,0.540530746674759);
#51=CYLINDRICAL_SURFACE('',#633,0.1125);
#52=CYLINDRICAL_SURFACE('',#635,0.540530746674759);
#53=CYLINDRICAL_SURFACE('',#637,0.1125);
#54=CYLINDRICAL_SURFACE('',#639,0.540530746674759);
#55=CYLINDRICAL_SURFACE('',#641,0.1125);
#56=CYLINDRICAL_SURFACE('',#643,0.540530746674759);
#57=CYLINDRICAL_SURFACE('',#645,0.1125);
#58=CYLINDRICAL_SURFACE('',#647,0.540530746674759);
#59=CYLINDRICAL_SURFACE('',#649,0.1125);
#60=CYLINDRICAL_SURFACE('',#651,0.540530746674759);
#61=CYLINDRICAL_SURFACE('',#653,0.1125);
#62=ORIENTED_EDGE('',*,*,#170,.F.);
#63=ORIENTED_EDGE('',*,*,#171,.F.);
#64=ORIENTED_EDGE('',*,*,#172,.F.);
#65=ORIENTED_EDGE('',*,*,#173,.T.);
#66=ORIENTED_EDGE('',*,*,#174,.F.);
#67=ORIENTED_EDGE('',*,*,#175,.T.);
#68=ORIENTED_EDGE('',*,*,#176,.F.);
#69=ORIENTED_EDGE('',*,*,#177,.F.);
#70=ORIENTED_EDGE('',*,*,#178,.F.);
#71=ORIENTED_EDGE('',*,*,#179,.T.);
#72=ORIENTED_EDGE('',*,*,#180,.F.);
#73=ORIENTED_EDGE('',*,*,#181,.F.);
#74=ORIENTED_EDGE('',*,*,#182,.F.);
#75=ORIENTED_EDGE('',*,*,#183,.T.);
#76=ORIENTED_EDGE('',*,*,#184,.F.);
#77=ORIENTED_EDGE('',*,*,#185,.F.);
#78=ORIENTED_EDGE('',*,*,#186,.F.);
#79=ORIENTED_EDGE('',*,*,#187,.T.);
#80=ORIENTED_EDGE('',*,*,#188,.F.);
#81=ORIENTED_EDGE('',*,*,#189,.F.);
#82=ORIENTED_EDGE('',*,*,#190,.T.);
#83=ORIENTED_EDGE('',*,*,#191,.T.);
#84=ORIENTED_EDGE('',*,*,#192,.T.);
#85=ORIENTED_EDGE('',*,*,#191,.F.);
#86=ORIENTED_EDGE('',*,*,#190,.F.);
#87=ORIENTED_EDGE('',*,*,#193,.F.);
#88=ORIENTED_EDGE('',*,*,#194,.T.);
#89=ORIENTED_EDGE('',*,*,#195,.F.);
#90=ORIENTED_EDGE('',*,*,#196,.F.);
#91=ORIENTED_EDGE('',*,*,#197,.T.);
#92=ORIENTED_EDGE('',*,*,#194,.F.);
#93=ORIENTED_EDGE('',*,*,#187,.F.);
#94=ORIENTED_EDGE('',*,*,#183,.F.);
#95=ORIENTED_EDGE('',*,*,#179,.F.);
#96=ORIENTED_EDGE('',*,*,#175,.F.);
#97=ORIENTED_EDGE('',*,*,#173,.F.);
#98=ORIENTED_EDGE('',*,*,#198,.T.);
#99=ORIENTED_EDGE('',*,*,#197,.F.);
#100=ORIENTED_EDGE('',*,*,#199,.T.);
#101=ORIENTED_EDGE('',*,*,#198,.F.);
#102=ORIENTED_EDGE('',*,*,#171,.T.);
#103=ORIENTED_EDGE('',*,*,#200,.F.);
#104=ORIENTED_EDGE('',*,*,#201,.F.);
#105=ORIENTED_EDGE('',*,*,#202,.T.);
#106=ORIENTED_EDGE('',*,*,#170,.T.);
#107=ORIENTED_EDGE('',*,*,#174,.T.);
#108=ORIENTED_EDGE('',*,*,#203,.F.);
#109=ORIENTED_EDGE('',*,*,#204,.F.);
#110=ORIENTED_EDGE('',*,*,#200,.T.);
#111=ORIENTED_EDGE('',*,*,#177,.T.);
#112=ORIENTED_EDGE('',*,*,#205,.F.);
#113=ORIENTED_EDGE('',*,*,#206,.F.);
#114=ORIENTED_EDGE('',*,*,#203,.T.);
#115=ORIENTED_EDGE('',*,*,#176,.T.);
#116=ORIENTED_EDGE('',*,*,#178,.T.);
#117=ORIENTED_EDGE('',*,*,#207,.F.);
#118=ORIENTED_EDGE('',*,*,#208,.F.);
#119=ORIENTED_EDGE('',*,*,#205,.T.);
#120=ORIENTED_EDGE('',*,*,#181,.T.);
#121=ORIENTED_EDGE('',*,*,#209,.F.);
#122=ORIENTED_EDGE('',*,*,#210,.F.);
#123=ORIENTED_EDGE('',*,*,#207,.T.);
#124=ORIENTED_EDGE('',*,*,#180,.T.);
#125=ORIENTED_EDGE('',*,*,#182,.T.);
#126=ORIENTED_EDGE('',*,*,#211,.F.);
#127=ORIENTED_EDGE('',*,*,#212,.F.);
#128=ORIENTED_EDGE('',*,*,#209,.T.);
#129=ORIENTED_EDGE('',*,*,#185,.T.);
#130=ORIENTED_EDGE('',*,*,#213,.F.);
#131=ORIENTED_EDGE('',*,*,#214,.F.);
#132=ORIENTED_EDGE('',*,*,#211,.T.);
#133=ORIENTED_EDGE('',*,*,#184,.T.);
#134=ORIENTED_EDGE('',*,*,#186,.T.);
#135=ORIENTED_EDGE('',*,*,#215,.F.);
#136=ORIENTED_EDGE('',*,*,#216,.F.);
#137=ORIENTED_EDGE('',*,*,#213,.T.);
#138=ORIENTED_EDGE('',*,*,#189,.T.);
#139=ORIENTED_EDGE('',*,*,#217,.F.);
#140=ORIENTED_EDGE('',*,*,#218,.F.);
#141=ORIENTED_EDGE('',*,*,#215,.T.);
#142=ORIENTED_EDGE('',*,*,#188,.T.);
#143=ORIENTED_EDGE('',*,*,#193,.T.);
#144=ORIENTED_EDGE('',*,*,#219,.F.);
#145=ORIENTED_EDGE('',*,*,#220,.F.);
#146=ORIENTED_EDGE('',*,*,#217,.T.);
#147=ORIENTED_EDGE('',*,*,#196,.T.);
#148=ORIENTED_EDGE('',*,*,#221,.F.);
#149=ORIENTED_EDGE('',*,*,#222,.F.);
#150=ORIENTED_EDGE('',*,*,#219,.T.);
#151=ORIENTED_EDGE('',*,*,#195,.T.);
#152=ORIENTED_EDGE('',*,*,#172,.T.);
#153=ORIENTED_EDGE('',*,*,#202,.F.);
#154=ORIENTED_EDGE('',*,*,#223,.F.);
#155=ORIENTED_EDGE('',*,*,#221,.T.);
#156=ORIENTED_EDGE('',*,*,#201,.T.);
#157=ORIENTED_EDGE('',*,*,#204,.T.);
#158=ORIENTED_EDGE('',*,*,#206,.T.);
#159=ORIENTED_EDGE('',*,*,#208,.T.);
#160=ORIENTED_EDGE('',*,*,#210,.T.);
#161=ORIENTED_EDGE('',*,*,#212,.T.);
#162=ORIENTED_EDGE('',*,*,#214,.T.);
#163=ORIENTED_EDGE('',*,*,#216,.T.);
#164=ORIENTED_EDGE('',*,*,#218,.T.);
#165=ORIENTED_EDGE('',*,*,#220,.T.);
#166=ORIENTED_EDGE('',*,*,#222,.T.);
#167=ORIENTED_EDGE('',*,*,#223,.T.);
#168=ORIENTED_EDGE('',*,*,#192,.F.);
#169=ORIENTED_EDGE('',*,*,#199,.F.);
#170=EDGE_CURVE('',#224,#225,#260,.T.);
#171=EDGE_CURVE('',#226,#224,#261,.T.);
#172=EDGE_CURVE('',#227,#226,#262,.T.);
#173=EDGE_CURVE('',#227,#225,#263,.T.);
#174=EDGE_CURVE('',#225,#228,#264,.T.);
#175=EDGE_CURVE('',#225,#229,#265,.T.);
#176=EDGE_CURVE('',#230,#229,#266,.T.);
#177=EDGE_CURVE('',#228,#230,#267,.T.);
#178=EDGE_CURVE('',#229,#231,#268,.T.);
#179=EDGE_CURVE('',#229,#232,#269,.T.);
#180=EDGE_CURVE('',#233,#232,#270,.T.);
#181=EDGE_CURVE('',#231,#233,#271,.T.);
#182=EDGE_CURVE('',#232,#234,#272,.T.);
#183=EDGE_CURVE('',#232,#235,#273,.T.);
#184=EDGE_CURVE('',#236,#235,#274,.T.);
#185=EDGE_CURVE('',#234,#236,#275,.T.);
#186=EDGE_CURVE('',#235,#237,#276,.T.);
#187=EDGE_CURVE('',#235,#238,#277,.T.);
#188=EDGE_CURVE('',#239,#238,#278,.T.);
#189=EDGE_CURVE('',#237,#239,#279,.T.);
#190=EDGE_CURVE('',#240,#240,#280,.T.);
#191=EDGE_CURVE('',#241,#241,#281,.T.);
#192=EDGE_CURVE('',#242,#242,#282,.F.);
#193=EDGE_CURVE('',#238,#243,#283,.T.);
#194=EDGE_CURVE('',#238,#227,#284,.T.);
#195=EDGE_CURVE('',#244,#227,#285,.T.);
#196=EDGE_CURVE('',#243,#244,#286,.T.);
#197=EDGE_CURVE('',#245,#245,#287,.T.);
#198=EDGE_CURVE('',#246,#246,#288,.T.);
#199=EDGE_CURVE('',#247,#247,#289,.T.);
#200=EDGE_CURVE('',#248,#224,#21,.T.);
#201=EDGE_CURVE('',#249,#248,#290,.T.);
#202=EDGE_CURVE('',#249,#226,#22,.T.);
#203=EDGE_CURVE('',#250,#228,#23,.T.);
#204=EDGE_CURVE('',#248,#250,#291,.T.);
#205=EDGE_CURVE('',#251,#230,#24,.T.);
#206=EDGE_CURVE('',#250,#251,#292,.T.);
#207=EDGE_CURVE('',#252,#231,#25,.T.);
#208=EDGE_CURVE('',#251,#252,#293,.T.);
#209=EDGE_CURVE('',#253,#233,#26,.T.);
#210=EDGE_CURVE('',#252,#253,#294,.T.);
#211=EDGE_CURVE('',#254,#234,#27,.T.);
#212=EDGE_CURVE('',#253,#254,#295,.T.);
#213=EDGE_CURVE('',#255,#236,#28,.T.);
#214=EDGE_CURVE('',#254,#255,#296,.T.);
#215=EDGE_CURVE('',#256,#237,#29,.T.);
#216=EDGE_CURVE('',#255,#256,#297,.T.);
#217=EDGE_CURVE('',#257,#239,#30,.T.);
#218=EDGE_CURVE('',#256,#257,#298,.T.);
#219=EDGE_CURVE('',#258,#243,#31,.T.);
#220=EDGE_CURVE('',#257,#258,#299,.T.);
#221=EDGE_CURVE('',#259,#244,#32,.T.);
#222=EDGE_CURVE('',#258,#259,#300,.T.);
#223=EDGE_CURVE('',#259,#249,#301,.T.);
#224=VERTEX_POINT('',#810);
#225=VERTEX_POINT('',#811);
#226=VERTEX_POINT('',#813);
#227=VERTEX_POINT('',#815);
#228=VERTEX_POINT('',#819);
#229=VERTEX_POINT('',#821);
#230=VERTEX_POINT('',#823);
#231=VERTEX_POINT('',#827);
#232=VERTEX_POINT('',#829);
#233=VERTEX_POINT('',#831);
#234=VERTEX_POINT('',#835);
#235=VERTEX_POINT('',#837);
#236=VERTEX_POINT('',#839);
#237=VERTEX_POINT('',#843);
#238=VERTEX_POINT('',#845);
#239=VERTEX_POINT('',#847);
#240=VERTEX_POINT('',#851);
#241=VERTEX_POINT('',#853);
#242=VERTEX_POINT('',#856);
#243=VERTEX_POINT('',#860);
#244=VERTEX_POINT('',#863);
#245=VERTEX_POINT('',#867);
#246=VERTEX_POINT('',#870);
#247=VERTEX_POINT('',#873);
#248=VERTEX_POINT('',#876);
#249=VERTEX_POINT('',#878);
#250=VERTEX_POINT('',#882);
#251=VERTEX_POINT('',#886);
#252=VERTEX_POINT('',#890);
#253=VERTEX_POINT('',#894);
#254=VERTEX_POINT('',#898);
#255=VERTEX_POINT('',#902);
#256=VERTEX_POINT('',#906);
#257=VERTEX_POINT('',#910);
#258=VERTEX_POINT('',#914);
#259=VERTEX_POINT('',#918);
#260=CIRCLE('',#590,0.1125);
#261=CIRCLE('',#591,0.540530746674759);
#262=CIRCLE('',#592,0.1125);
#263=CIRCLE('',#593,0.875);
#264=CIRCLE('',#595,0.1125);
#265=CIRCLE('',#596,0.875);
#266=CIRCLE('',#597,0.1125);
#267=CIRCLE('',#598,0.540530746674759);
#268=CIRCLE('',#600,0.1125);
#269=CIRCLE('',#601,0.875);
#270=CIRCLE('',#602,0.1125);
#271=CIRCLE('',#603,0.540530746674759);
#272=CIRCLE('',#605,0.1125);
#273=CIRCLE('',#606,0.875);
#274=CIRCLE('',#607,0.1125);
#275=CIRCLE('',#608,0.540530746674759);
#276=CIRCLE('',#610,0.1125);
#277=CIRCLE('',#611,0.875);
#278=CIRCLE('',#612,0.1125);
#279=CIRCLE('',#613,0.540530746674759);
#280=CIRCLE('',#615,1.);
#281=CIRCLE('',#616,1.);
#282=CIRCLE('',#618,1.);
#283=CIRCLE('',#621,0.1125);
#284=CIRCLE('',#622,0.875);
#285=CIRCLE('',#623,0.1125);
#286=CIRCLE('',#624,0.540530746674759);
#287=CIRCLE('',#626,2.10208200339543);
#288=CIRCLE('',#628,2.10208200339544);
#289=CIRCLE('',#630,1.14644660940673);
#290=CIRCLE('',#632,0.540530746674759);
#291=CIRCLE('',#634,0.1125);
#292=CIRCLE('',#636,0.540530746674759);
#293=CIRCLE('',#638,0.1125);
#294=CIRCLE('',#640,0.540530746674759);
#295=CIRCLE('',#642,0.1125);
#296=CIRCLE('',#644,0.540530746674759);
#297=CIRCLE('',#646,0.1125);
#298=CIRCLE('',#648,0.540530746674759);
#299=CIRCLE('',#650,0.1125);
#300=CIRCLE('',#652,0.540530746674759);
#301=CIRCLE('',#654,0.1125);
#302=EDGE_LOOP('',(#62,#63,#64,#65));
#303=EDGE_LOOP('',(#66,#67,#68,#69));
#304=EDGE_LOOP('',(#70,#71,#72,#73));
#305=EDGE_LOOP('',(#74,#75,#76,#77));
#306=EDGE_LOOP('',(#78,#79,#80,#81));
#307=EDGE_LOOP('',(#82));
#308=EDGE_LOOP('',(#83));
#309=EDGE_LOOP('',(#84));
#310=EDGE_LOOP('',(#85));
#311=EDGE_LOOP('',(#86));
#312=EDGE_LOOP('',(#87,#88,#89,#90));
#313=EDGE_LOOP('',(#91));
#314=EDGE_LOOP('',(#92,#93,#94,#95,#96,#97));
#315=EDGE_LOOP('',(#98));
#316=EDGE_LOOP('',(#99));
#317=EDGE_LOOP('',(#100));
#318=EDGE_LOOP('',(#101));
#319=EDGE_LOOP('',(#102,#103,#104,#105));
#320=EDGE_LOOP('',(#106,#107,#108,#109,#110));
#321=EDGE_LOOP('',(#111,#112,#113,#114));
#322=EDGE_LOOP('',(#115,#116,#117,#118,#119));
#323=EDGE_LOOP('',(#120,#121,#122,#123));
#324=EDGE_LOOP('',(#124,#125,#126,#127,#128));
#325=EDGE_LOOP('',(#129,#130,#131,#132));
#326=EDGE_LOOP('',(#133,#134,#135,#136,#137));
#327=EDGE_LOOP('',(#138,#139,#140,#141));
#328=EDGE_LOOP('',(#142,#143,#144,#145,#146));
#329=EDGE_LOOP('',(#147,#148,#149,#150));
#330=EDGE_LOOP('',(#151,#152,#153,#154,#155));
#331=EDGE_LOOP('',(#156,#157,#158,#159,#160,#161,#162,#163,#164,#165,#166,
#167));
#332=EDGE_LOOP('',(#168));
#333=EDGE_LOOP('',(#169));
#334=FACE_BOUND('',#302,.T.);
#335=FACE_BOUND('',#303,.T.);
#336=FACE_BOUND('',#304,.T.);
#337=FACE_BOUND('',#305,.T.);
#338=FACE_BOUND('',#306,.T.);
#339=FACE_BOUND('',#307,.T.);
#340=FACE_BOUND('',#308,.T.);
#341=FACE_BOUND('',#309,.T.);
#342=FACE_BOUND('',#310,.T.);
#343=FACE_BOUND('',#311,.T.);
#344=FACE_BOUND('',#312,.T.);
#345=FACE_BOUND('',#313,.T.);
#346=FACE_BOUND('',#314,.T.);
#347=FACE_BOUND('',#315,.T.);
#348=FACE_BOUND('',#316,.T.);
#349=FACE_BOUND('',#317,.T.);
#350=FACE_BOUND('',#318,.T.);
#351=FACE_BOUND('',#319,.T.);
#352=FACE_BOUND('',#320,.T.);
#353=FACE_BOUND('',#321,.T.);
#354=FACE_BOUND('',#322,.T.);
#355=FACE_BOUND('',#323,.T.);
#356=FACE_BOUND('',#324,.T.);
#357=FACE_BOUND('',#325,.T.);
#358=FACE_BOUND('',#326,.T.);
#359=FACE_BOUND('',#327,.T.);
#360=FACE_BOUND('',#328,.T.);
#361=FACE_BOUND('',#329,.T.);
#362=FACE_BOUND('',#330,.T.);
#363=FACE_BOUND('',#331,.T.);
#364=FACE_BOUND('',#332,.T.);
#365=FACE_BOUND('',#333,.T.);
#366=PLANE('',#589);
#367=PLANE('',#594);
#368=PLANE('',#599);
#369=PLANE('',#604);
#370=PLANE('',#609);
#371=PLANE('',#619);
#372=PLANE('',#620);
#373=PLANE('',#655);
#374=STYLED_ITEM('',(#400),#558);
#375=STYLED_ITEM('',(#401),#559);
#376=STYLED_ITEM('',(#402),#560);
#377=STYLED_ITEM('',(#403),#561);
#378=STYLED_ITEM('',(#404),#562);
#379=STYLED_ITEM('',(#405),#563);
#380=STYLED_ITEM('',(#406),#564);
#381=STYLED_ITEM('',(#407),#565);
#382=STYLED_ITEM('',(#408),#566);
#383=STYLED_ITEM('',(#409),#567);
#384=STYLED_ITEM('',(#410),#568);
#385=STYLED_ITEM('',(#411),#569);
#386=STYLED_ITEM('',(#412),#570);
#387=STYLED_ITEM('',(#413),#571);
#388=STYLED_ITEM('',(#414),#572);
#389=STYLED_ITEM('',(#415),#573);
#390=STYLED_ITEM('',(#416),#574);
#391=STYLED_ITEM('',(#417),#575);
#392=STYLED_ITEM('',(#418),#576);
#393=STYLED_ITEM('',(#419),#577);
#394=STYLED_ITEM('',(#420),#578);
#395=STYLED_ITEM('',(#421),#579);
#396=STYLED_ITEM('',(#422),#580);
#397=STYLED_ITEM('',(#423),#581);
#398=STYLED_ITEM('',(#424),#582);
#399=STYLED_ITEM('',(#425),#583);
#400=PRESENTATION_STYLE_ASSIGNMENT((#426));
#401=PRESENTATION_STYLE_ASSIGNMENT((#427));
#402=PRESENTATION_STYLE_ASSIGNMENT((#428));
#403=PRESENTATION_STYLE_ASSIGNMENT((#429));
#404=PRESENTATION_STYLE_ASSIGNMENT((#430));
#405=PRESENTATION_STYLE_ASSIGNMENT((#431));
#406=PRESENTATION_STYLE_ASSIGNMENT((#432));
#407=PRESENTATION_STYLE_ASSIGNMENT((#433));
#408=PRESENTATION_STYLE_ASSIGNMENT((#434));
#409=PRESENTATION_STYLE_ASSIGNMENT((#435));
#410=PRESENTATION_STYLE_ASSIGNMENT((#436));
#411=PRESENTATION_STYLE_ASSIGNMENT((#437));
#412=PRESENTATION_STYLE_ASSIGNMENT((#438));
#413=PRESENTATION_STYLE_ASSIGNMENT((#439));
#414=PRESENTATION_STYLE_ASSIGNMENT((#440));
#415=PRESENTATION_STYLE_ASSIGNMENT((#441));
#416=PRESENTATION_STYLE_ASSIGNMENT((#442));
#417=PRESENTATION_STYLE_ASSIGNMENT((#443));
#418=PRESENTATION_STYLE_ASSIGNMENT((#444));
#419=PRESENTATION_STYLE_ASSIGNMENT((#445));
#420=PRESENTATION_STYLE_ASSIGNMENT((#446));
#421=PRESENTATION_STYLE_ASSIGNMENT((#447));
#422=PRESENTATION_STYLE_ASSIGNMENT((#448));
#423=PRESENTATION_STYLE_ASSIGNMENT((#449));
#424=PRESENTATION_STYLE_ASSIGNMENT((#450));
#425=PRESENTATION_STYLE_ASSIGNMENT((#451));
#426=SURFACE_STYLE_USAGE(.BOTH.,#452);
#427=SURFACE_STYLE_USAGE(.BOTH.,#453);
#428=SURFACE_STYLE_USAGE(.BOTH.,#454);
#429=SURFACE_STYLE_USAGE(.BOTH.,#455);
#430=SURFACE_STYLE_USAGE(.BOTH.,#456);
#431=SURFACE_STYLE_USAGE(.BOTH.,#457);
#432=SURFACE_STYLE_USAGE(.BOTH.,#458);
#433=SURFACE_STYLE_USAGE(.BOTH.,#459);
#434=SURFACE_STYLE_USAGE(.BOTH.,#460);
#435=SURFACE_STYLE_USAGE(.BOTH.,#461);
#436=SURFACE_STYLE_USAGE(.BOTH.,#462);
#437=SURFACE_STYLE_USAGE(.BOTH.,#463);
#438=SURFACE_STYLE_USAGE(.BOTH.,#464);
#439=SURFACE_STYLE_USAGE(.BOTH.,#465);
#440=SURFACE_STYLE_USAGE(.BOTH.,#466);
#441=SURFACE_STYLE_USAGE(.BOTH.,#467);
#442=SURFACE_STYLE_USAGE(.BOTH.,#468);
#443=SURFACE_STYLE_USAGE(.BOTH.,#469);
#444=SURFACE_STYLE_USAGE(.BOTH.,#470);
#445=SURFACE_STYLE_USAGE(.BOTH.,#471);
#446=SURFACE_STYLE_USAGE(.BOTH.,#472);
#447=SURFACE_STYLE_USAGE(.BOTH.,#473);
#448=SURFACE_STYLE_USAGE(.BOTH.,#474);
#449=SURFACE_STYLE_USAGE(.BOTH.,#475);
#450=SURFACE_STYLE_USAGE(.BOTH.,#476);
#451=SURFACE_STYLE_USAGE(.BOTH.,#477);
#452=SURFACE_SIDE_STYLE('',(#478));
#453=SURFACE_SIDE_STYLE('',(#479));
#454=SURFACE_SIDE_STYLE('',(#480));
#455=SURFACE_SIDE_STYLE('',(#481));
#456=SURFACE_SIDE_STYLE('',(#482));
#457=SURFACE_SIDE_STYLE('',(#483));
#458=SURFACE_SIDE_STYLE('',(#484));
#459=SURFACE_SIDE_STYLE('',(#485));
#460=SURFACE_SIDE_STYLE('',(#486));
#461=SURFACE_SIDE_STYLE('',(#487));
#462=SURFACE_SIDE_STYLE('',(#488));
#463=SURFACE_SIDE_STYLE('',(#489));
#464=SURFACE_SIDE_STYLE('',(#490));
#465=SURFACE_SIDE_STYLE('',(#491));
#466=SURFACE_SIDE_STYLE('',(#492));
#467=SURFACE_SIDE_STYLE('',(#493));
#468=SURFACE_SIDE_STYLE('',(#494));
#469=SURFACE_SIDE_STYLE('',(#495));
#470=SURFACE_SIDE_STYLE('',(#496));
#471=SURFACE_SIDE_STYLE('',(#497));
#472=SURFACE_SIDE_STYLE('',(#498));
#473=SURFACE_SIDE_STYLE('',(#499));
#474=SURFACE_SIDE_STYLE('',(#500));
#475=SURFACE_SIDE_STYLE('',(#501));
#476=SURFACE_SIDE_STYLE('',(#502));
#477=SURFACE_SIDE_STYLE('',(#503));
#478=SURFACE_STYLE_FILL_AREA(#504);
#479=SURFACE_STYLE_FILL_AREA(#505);
#480=SURFACE_STYLE_FILL_AREA(#506);
#481=SURFACE_STYLE_FILL_AREA(#507);
#482=SURFACE_STYLE_FILL_AREA(#508);
#483=SURFACE_STYLE_FILL_AREA(#509);
#484=SURFACE_STYLE_FILL_AREA(#510);
#485=SURFACE_STYLE_FILL_AREA(#511);
#486=SURFACE_STYLE_FILL_AREA(#512);
#487=SURFACE_STYLE_FILL_AREA(#513);
#488=SURFACE_STYLE_FILL_AREA(#514);
#489=SURFACE_STYLE_FILL_AREA(#515);
#490=SURFACE_STYLE_FILL_AREA(#516);
#491=SURFACE_STYLE_FILL_AREA(#517);
#492=SURFACE_STYLE_FILL_AREA(#518);
#493=SURFACE_STYLE_FILL_AREA(#519);
#494=SURFACE_STYLE_FILL_AREA(#520);
#495=SURFACE_STYLE_FILL_AREA(#521);
#496=SURFACE_STYLE_FILL_AREA(#522);
#497=SURFACE_STYLE_FILL_AREA(#523);
#498=SURFACE_STYLE_FILL_AREA(#524);
#499=SURFACE_STYLE_FILL_AREA(#525);
#500=SURFACE_STYLE_FILL_AREA(#526);
#501=SURFACE_STYLE_FILL_AREA(#527);
#502=SURFACE_STYLE_FILL_AREA(#528);
#503=SURFACE_STYLE_FILL_AREA(#529);
#504=FILL_AREA_STYLE('',(#530));
#505=FILL_AREA_STYLE('',(#531));
#506=FILL_AREA_STYLE('',(#532));
#507=FILL_AREA_STYLE('',(#533));
#508=FILL_AREA_STYLE('',(#534));
#509=FILL_AREA_STYLE('',(#535));
#510=FILL_AREA_STYLE('',(#536));
#511=FILL_AREA_STYLE('',(#537));
#512=FILL_AREA_STYLE('',(#538));
#513=FILL_AREA_STYLE('',(#539));
#514=FILL_AREA_STYLE('',(#540));
#515=FILL_AREA_STYLE('',(#541));
#516=FILL_AREA_STYLE('',(#542));
#517=FILL_AREA_STYLE('',(#543));
#518=FILL_AREA_STYLE('',(#544));
#519=FILL_AREA_STYLE('',(#545));
#520=FILL_AREA_STYLE('',(#546));
#521=FILL_AREA_STYLE('',(#547));
#522=FILL_AREA_STYLE('',(#548));
#523=FILL_AREA_STYLE('',(#549));
#524=FILL_AREA_STYLE('',(#550));
#525=FILL_AREA_STYLE('',(#551));
#526=FILL_AREA_STYLE('',(#552));
#527=FILL_AREA_STYLE('',(#553));
#528=FILL_AREA_STYLE('',(#554));
#529=FILL_AREA_STYLE('',(#555));
#530=FILL_AREA_STYLE_COLOUR('',#556);
#531=FILL_AREA_STYLE_COLOUR('',#556);
#532=FILL_AREA_STYLE_COLOUR('',#556);
#533=FILL_AREA_STYLE_COLOUR('',#556);
#534=FILL_AREA_STYLE_COLOUR('',#556);
#535=FILL_AREA_STYLE_COLOUR('',#557);
#536=FILL_AREA_STYLE_COLOUR('',#556);
#537=FILL_AREA_STYLE_COLOUR('',#556);
#538=FILL_AREA_STYLE_COLOUR('',#556);
#539=FILL_AREA_STYLE_COLOUR('',#556);
#540=FILL_AREA_STYLE_COLOUR('',#556);
#541=FILL_AREA_STYLE_COLOUR('',#556);
#542=FILL_AREA_STYLE_COLOUR('',#556);
#543=FILL_AREA_STYLE_COLOUR('',#556);
#544=FILL_AREA_STYLE_COLOUR('',#556);
#545=FILL_AREA_STYLE_COLOUR('',#556);
#546=FILL_AREA_STYLE_COLOUR('',#556);
#547=FILL_AREA_STYLE_COLOUR('',#556);
#548=FILL_AREA_STYLE_COLOUR('',#556);
#549=FILL_AREA_STYLE_COLOUR('',#556);
#550=FILL_AREA_STYLE_COLOUR('',#556);
#551=FILL_AREA_STYLE_COLOUR('',#556);
#552=FILL_AREA_STYLE_COLOUR('',#556);
#553=FILL_AREA_STYLE_COLOUR('',#556);
#554=FILL_AREA_STYLE_COLOUR('',#556);
#555=FILL_AREA_STYLE_COLOUR('',#556);
#556=COLOUR_RGB('',0.506983280181885,0.531564235687256,0.550000011920929);
#557=COLOUR_RGB('',0.1875,0.75,0.581249892711639);
#558=ADVANCED_FACE('',(#334),#366,.T.);
#559=ADVANCED_FACE('',(#335),#367,.T.);
#560=ADVANCED_FACE('',(#336),#368,.T.);
#561=ADVANCED_FACE('',(#337),#369,.T.);
#562=ADVANCED_FACE('',(#338),#370,.T.);
#563=ADVANCED_FACE('',(#339,#340),#47,.T.);
#564=ADVANCED_FACE('',(#341,#342),#48,.T.);
#565=ADVANCED_FACE('',(#343),#371,.T.);
#566=ADVANCED_FACE('',(#344),#372,.T.);
#567=ADVANCED_FACE('',(#345,#346),#46,.T.);
#568=ADVANCED_FACE('',(#347,#348),#49,.T.);
#569=ADVANCED_FACE('',(#349,#350),#45,.T.);
#570=ADVANCED_FACE('',(#351),#50,.T.);
#571=ADVANCED_FACE('',(#352),#51,.F.);
#572=ADVANCED_FACE('',(#353),#52,.T.);
#573=ADVANCED_FACE('',(#354),#53,.F.);
#574=ADVANCED_FACE('',(#355),#54,.T.);
#575=ADVANCED_FACE('',(#356),#55,.F.);
#576=ADVANCED_FACE('',(#357),#56,.T.);
#577=ADVANCED_FACE('',(#358),#57,.F.);
#578=ADVANCED_FACE('',(#359),#58,.T.);
#579=ADVANCED_FACE('',(#360),#59,.F.);
#580=ADVANCED_FACE('',(#361),#60,.T.);
#581=ADVANCED_FACE('',(#362),#61,.F.);
#582=ADVANCED_FACE('',(#363),#373,.F.);
#583=ADVANCED_FACE('',(#364,#365),#20,.F.);
#584=CLOSED_SHELL('',(#558,#559,#560,#561,#562,#563,#564,#565,#566,#567,
#568,#569,#570,#571,#572,#573,#574,#575,#576,#577,#578,#579,#580,#581,#582,
#583));
#585=MANIFOLD_SOLID_BREP('',#584);
#586=SHAPE_DEFINITION_REPRESENTATION(#930,#587);
#587=SHAPE_REPRESENTATION('\X2\5185516D89D282B15F62534A6C89593487BA9489\X0\',
(#588),#925);
#588=AXIS2_PLACEMENT_3D('',#807,#657,#658);
#589=AXIS2_PLACEMENT_3D('',#808,#659,#660);
#590=AXIS2_PLACEMENT_3D('',#809,#661,#662);
#591=AXIS2_PLACEMENT_3D('',#812,#663,#664);
#592=AXIS2_PLACEMENT_3D('',#814,#665,#666);
#593=AXIS2_PLACEMENT_3D('',#816,#667,#668);
#594=AXIS2_PLACEMENT_3D('',#817,#669,#670);
#595=AXIS2_PLACEMENT_3D('',#818,#671,#672);
#596=AXIS2_PLACEMENT_3D('',#820,#673,#674);
#597=AXIS2_PLACEMENT_3D('',#822,#675,#676);
#598=AXIS2_PLACEMENT_3D('',#824,#677,#678);
#599=AXIS2_PLACEMENT_3D('',#825,#679,#680);
#600=AXIS2_PLACEMENT_3D('',#826,#681,#682);
#601=AXIS2_PLACEMENT_3D('',#828,#683,#684);
#602=AXIS2_PLACEMENT_3D('',#830,#685,#686);
#603=AXIS2_PLACEMENT_3D('',#832,#687,#688);
#604=AXIS2_PLACEMENT_3D('',#833,#689,#690);
#605=AXIS2_PLACEMENT_3D('',#834,#691,#692);
#606=AXIS2_PLACEMENT_3D('',#836,#693,#694);
#607=AXIS2_PLACEMENT_3D('',#838,#695,#696);
#608=AXIS2_PLACEMENT_3D('',#840,#697,#698);
#609=AXIS2_PLACEMENT_3D('',#841,#699,#700);
#610=AXIS2_PLACEMENT_3D('',#842,#701,#702);
#611=AXIS2_PLACEMENT_3D('',#844,#703,#704);
#612=AXIS2_PLACEMENT_3D('',#846,#705,#706);
#613=AXIS2_PLACEMENT_3D('',#848,#707,#708);
#614=AXIS2_PLACEMENT_3D('',#849,#709,#710);
#615=AXIS2_PLACEMENT_3D('',#850,#711,#712);
#616=AXIS2_PLACEMENT_3D('',#852,#713,#714);
#617=AXIS2_PLACEMENT_3D('',#854,#715,#716);
#618=AXIS2_PLACEMENT_3D('',#855,#717,#718);
#619=AXIS2_PLACEMENT_3D('',#857,#719,#720);
#620=AXIS2_PLACEMENT_3D('',#858,#721,#722);
#621=AXIS2_PLACEMENT_3D('',#859,#723,#724);
#622=AXIS2_PLACEMENT_3D('',#861,#725,#726);
#623=AXIS2_PLACEMENT_3D('',#862,#727,#728);
#624=AXIS2_PLACEMENT_3D('',#864,#729,#730);
#625=AXIS2_PLACEMENT_3D('',#865,#731,#732);
#626=AXIS2_PLACEMENT_3D('',#866,#733,#734);
#627=AXIS2_PLACEMENT_3D('',#868,#735,#736);
#628=AXIS2_PLACEMENT_3D('',#869,#737,#738);
#629=AXIS2_PLACEMENT_3D('',#871,#739,#740);
#630=AXIS2_PLACEMENT_3D('',#872,#741,#742);
#631=AXIS2_PLACEMENT_3D('',#874,#743,#744);
#632=AXIS2_PLACEMENT_3D('',#877,#746,#747);
#633=AXIS2_PLACEMENT_3D('',#880,#749,#750);
#634=AXIS2_PLACEMENT_3D('',#883,#752,#753);
#635=AXIS2_PLACEMENT_3D('',#884,#754,#755);
#636=AXIS2_PLACEMENT_3D('',#887,#757,#758);
#637=AXIS2_PLACEMENT_3D('',#888,#759,#760);
#638=AXIS2_PLACEMENT_3D('',#891,#762,#763);
#639=AXIS2_PLACEMENT_3D('',#892,#764,#765);
#640=AXIS2_PLACEMENT_3D('',#895,#767,#768);
#641=AXIS2_PLACEMENT_3D('',#896,#769,#770);
#642=AXIS2_PLACEMENT_3D('',#899,#772,#773);
#643=AXIS2_PLACEMENT_3D('',#900,#774,#775);
#644=AXIS2_PLACEMENT_3D('',#903,#777,#778);
#645=AXIS2_PLACEMENT_3D('',#904,#779,#780);
#646=AXIS2_PLACEMENT_3D('',#907,#782,#783);
#647=AXIS2_PLACEMENT_3D('',#908,#784,#785);
#648=AXIS2_PLACEMENT_3D('',#911,#787,#788);
#649=AXIS2_PLACEMENT_3D('',#912,#789,#790);
#650=AXIS2_PLACEMENT_3D('',#915,#792,#793);
#651=AXIS2_PLACEMENT_3D('',#916,#794,#795);
#652=AXIS2_PLACEMENT_3D('',#919,#797,#798);
#653=AXIS2_PLACEMENT_3D('',#920,#799,#800);
#654=AXIS2_PLACEMENT_3D('',#921,#801,#802);
#655=AXIS2_PLACEMENT_3D('',#922,#803,#804);
#656=AXIS2_PLACEMENT_3D('',#923,#805,#806);
#657=DIRECTION('',(0.,0.,1.));
#658=DIRECTION('',(1.,0.,0.));
#659=DIRECTION('',(-1.,0.,0.));
#660=DIRECTION('',(0.,0.,1.));
#661=DIRECTION('',(-1.,6.12303176911189E-17,0.));
#662=DIRECTION('',(6.12303176911189E-17,1.,0.));
#663=DIRECTION('',(1.,-6.12303176911189E-17,0.));
#664=DIRECTION('',(6.12303176911189E-17,1.,0.));
#665=DIRECTION('',(-1.,6.12303176911189E-17,0.));
#666=DIRECTION('',(-6.12303176911189E-17,-1.,0.));
#667=DIRECTION('',(-1.,0.,0.));
#668=DIRECTION('',(0.,0.,1.));
#669=DIRECTION('',(-1.,0.,0.));
#670=DIRECTION('',(0.,0.,1.));
#671=DIRECTION('',(-1.,6.12303176911189E-17,0.));
#672=DIRECTION('',(6.12303176911189E-17,1.,0.));
#673=DIRECTION('',(-1.,0.,0.));
#674=DIRECTION('',(0.,0.,1.));
#675=DIRECTION('',(-1.,6.12303176911189E-17,0.));
#676=DIRECTION('',(6.12303176911189E-17,1.,0.));
#677=DIRECTION('',(1.,-6.12303176911189E-17,0.));
#678=DIRECTION('',(6.12303176911189E-17,1.,0.));
#679=DIRECTION('',(-1.,0.,0.));
#680=DIRECTION('',(0.,0.,1.));
#681=DIRECTION('',(-1.,6.12303176911189E-17,0.));
#682=DIRECTION('',(6.12303176911189E-17,1.,0.));
#683=DIRECTION('',(-1.,0.,0.));
#684=DIRECTION('',(0.,0.,1.));
#685=DIRECTION('',(-1.,6.12303176911189E-17,0.));
#686=DIRECTION('',(6.12303176911189E-17,1.,0.));
#687=DIRECTION('',(1.,-6.12303176911189E-17,0.));
#688=DIRECTION('',(6.12303176911189E-17,1.,0.));
#689=DIRECTION('',(-1.,0.,0.));
#690=DIRECTION('',(0.,0.,1.));
#691=DIRECTION('',(-1.,6.12303176911189E-17,0.));
#692=DIRECTION('',(6.12303176911189E-17,1.,0.));
#693=DIRECTION('',(-1.,0.,0.));
#694=DIRECTION('',(0.,0.,1.));
#695=DIRECTION('',(-1.,6.12303176911189E-17,0.));
#696=DIRECTION('',(6.12303176911189E-17,1.,0.));
#697=DIRECTION('',(1.,-6.12303176911189E-17,0.));
#698=DIRECTION('',(-6.12303176911189E-17,-1.,0.));
#699=DIRECTION('',(-1.,0.,0.));
#700=DIRECTION('',(0.,0.,1.));
#701=DIRECTION('',(-1.,6.12303176911189E-17,0.));
#702=DIRECTION('',(6.12303176911189E-17,1.,0.));
#703=DIRECTION('',(-1.,0.,0.));
#704=DIRECTION('',(0.,0.,1.));
#705=DIRECTION('',(-1.,6.12303176911189E-17,0.));
#706=DIRECTION('',(6.12303176911189E-17,1.,0.));
#707=DIRECTION('',(1.,-6.12303176911189E-17,0.));
#708=DIRECTION('',(6.12303176911189E-17,1.,0.));
#709=DIRECTION('',(-1.,0.,0.));
#710=DIRECTION('',(0.,0.,1.));
#711=DIRECTION('',(-1.,0.,0.));
#712=DIRECTION('',(0.,0.,1.));
#713=DIRECTION('',(1.,0.,0.));
#714=DIRECTION('',(0.,0.,1.));
#715=DIRECTION('',(-1.,0.,0.));
#716=DIRECTION('',(0.,0.,1.));
#717=DIRECTION('',(-1.,0.,0.));
#718=DIRECTION('',(0.,0.,1.));
#719=DIRECTION('',(1.,0.,0.));
#720=DIRECTION('',(0.,0.,-1.));
#721=DIRECTION('',(-1.,0.,0.));
#722=DIRECTION('',(0.,0.,1.));
#723=DIRECTION('',(-1.,6.12303176911189E-17,0.));
#724=DIRECTION('',(6.12303176911189E-17,1.,0.));
#725=DIRECTION('',(-1.,0.,0.));
#726=DIRECTION('',(0.,0.,1.));
#727=DIRECTION('',(-1.,6.12303176911189E-17,0.));
#728=DIRECTION('',(-6.12303176911189E-17,-1.,0.));
#729=DIRECTION('',(1.,-6.12303176911189E-17,0.));
#730=DIRECTION('',(6.12303176911189E-17,1.,0.));
#731=DIRECTION('',(-1.,0.,0.));
#732=DIRECTION('',(0.,0.,1.));
#733=DIRECTION('',(-1.,0.,0.));
#734=DIRECTION('',(0.,0.,1.));
#735=DIRECTION('',(-1.,0.,0.));
#736=DIRECTION('',(0.,0.,1.));
#737=DIRECTION('',(-1.,0.,0.));
#738=DIRECTION('',(0.,0.,1.));
#739=DIRECTION('',(-1.,0.,0.));
#740=DIRECTION('',(0.,0.,1.));
#741=DIRECTION('',(-1.,0.,0.));
#742=DIRECTION('',(0.,0.,1.));
#743=DIRECTION('',(-1.,0.,0.));
#744=DIRECTION('',(0.,0.,1.));
#745=DIRECTION('',(-1.,0.,0.));
#746=DIRECTION('',(1.,-6.12303176911189E-17,0.));
#747=DIRECTION('',(6.12303176911189E-17,1.,0.));
#748=DIRECTION('',(-1.,0.,0.));
#749=DIRECTION('',(-1.,0.,0.));
#750=DIRECTION('',(0.,0.,1.));
#751=DIRECTION('',(-1.,0.,0.));
#752=DIRECTION('',(-1.,6.12303176911189E-17,0.));
#753=DIRECTION('',(-6.12303176911189E-17,-1.,0.));
#754=DIRECTION('',(-1.,0.,0.));
#755=DIRECTION('',(0.,0.,1.));
#756=DIRECTION('',(-1.,0.,0.));
#757=DIRECTION('',(1.,-6.12303176911189E-17,0.));
#758=DIRECTION('',(6.12303176911189E-17,1.,0.));
#759=DIRECTION('',(-1.,0.,0.));
#760=DIRECTION('',(0.,0.,1.));
#761=DIRECTION('',(-1.,0.,0.));
#762=DIRECTION('',(-1.,6.12303176911189E-17,0.));
#763=DIRECTION('',(6.12303176911189E-17,1.,0.));
#764=DIRECTION('',(-1.,0.,0.));
#765=DIRECTION('',(0.,0.,1.));
#766=DIRECTION('',(-1.,0.,0.));
#767=DIRECTION('',(1.,-6.12303176911189E-17,0.));
#768=DIRECTION('',(6.12303176911189E-17,1.,0.));
#769=DIRECTION('',(-1.,0.,0.));
#770=DIRECTION('',(0.,0.,1.));
#771=DIRECTION('',(-1.,0.,0.));
#772=DIRECTION('',(-1.,6.12303176911189E-17,0.));
#773=DIRECTION('',(6.12303176911189E-17,1.,0.));
#774=DIRECTION('',(-1.,0.,0.));
#775=DIRECTION('',(0.,0.,1.));
#776=DIRECTION('',(-1.,0.,0.));
#777=DIRECTION('',(1.,-6.12303176911189E-17,0.));
#778=DIRECTION('',(-6.12303176911189E-17,-1.,0.));
#779=DIRECTION('',(-1.,0.,0.));
#780=DIRECTION('',(0.,0.,1.));
#781=DIRECTION('',(-1.,0.,0.));
#782=DIRECTION('',(-1.,6.12303176911189E-17,0.));
#783=DIRECTION('',(6.12303176911189E-17,1.,0.));
#784=DIRECTION('',(-1.,0.,0.));
#785=DIRECTION('',(0.,0.,1.));
#786=DIRECTION('',(-1.,0.,0.));
#787=DIRECTION('',(1.,-6.12303176911189E-17,0.));
#788=DIRECTION('',(6.12303176911189E-17,1.,0.));
#789=DIRECTION('',(-1.,0.,0.));
#790=DIRECTION('',(0.,0.,1.));
#791=DIRECTION('',(-1.,0.,0.));
#792=DIRECTION('',(-1.,6.12303176911189E-17,0.));
#793=DIRECTION('',(6.12303176911189E-17,1.,0.));
#794=DIRECTION('',(-1.,0.,0.));
#795=DIRECTION('',(0.,0.,1.));
#796=DIRECTION('',(-1.,0.,0.));
#797=DIRECTION('',(1.,-6.12303176911189E-17,0.));
#798=DIRECTION('',(6.12303176911189E-17,1.,0.));
#799=DIRECTION('',(-1.,0.,0.));
#800=DIRECTION('',(0.,0.,1.));
#801=DIRECTION('',(-1.,6.12303176911189E-17,0.));
#802=DIRECTION('',(6.12303176911189E-17,1.,0.));
#803=DIRECTION('',(1.,-6.12303176911189E-17,0.));
#804=DIRECTION('',(6.12303176911189E-17,1.,0.));
#805=DIRECTION('',(-1.,0.,0.));
#806=DIRECTION('',(0.,0.,1.));
#807=CARTESIAN_POINT('',(0.,0.,0.));
#808=CARTESIAN_POINT('',(0.,0.,0.));
#809=CARTESIAN_POINT('',(4.04330955842543E-17,0.660344370385634,-0.38125));
#810=CARTESIAN_POINT('',(4.60256983022142E-17,0.751681520491115,-0.315570665269744));
#811=CARTESIAN_POINT('',(4.63986342770131E-17,0.757772228311384,-0.4375));
#812=CARTESIAN_POINT('',(7.28965758399404E-17,1.19053074667476,-1.0842021724855E-16));
#813=CARTESIAN_POINT('',(4.60256983022142E-17,0.751681520491115,0.315570665269745));
#814=CARTESIAN_POINT('',(4.04330955842543E-17,0.660344370385634,0.38125));
#815=CARTESIAN_POINT('',(4.63986342770131E-17,0.757772228311384,0.4375));
#816=CARTESIAN_POINT('',(0.,0.,0.));
#817=CARTESIAN_POINT('',(0.,0.,0.));
#818=CARTESIAN_POINT('',(4.04330955842543E-17,0.660344370385634,-0.38125));
#819=CARTESIAN_POINT('',(3.9746618164141E-17,0.649132973058312,-0.493189959665746));
#820=CARTESIAN_POINT('',(0.,0.,0.));
#821=CARTESIAN_POINT('',(0.,-3.37950869672717E-17,-0.875));
#822=CARTESIAN_POINT('',(0.,0.,-0.7625));
#823=CARTESIAN_POINT('',(6.27908013807329E-18,0.102548547432803,-0.808760624935491));
#824=CARTESIAN_POINT('',(3.64482879199702E-17,0.595265373337379,-1.0310298706068));
#825=CARTESIAN_POINT('',(0.,0.,0.));
#826=CARTESIAN_POINT('',(0.,0.,-0.7625));
#827=CARTESIAN_POINT('',(-6.27908013807329E-18,-0.102548547432803,-0.808760624935491));
#828=CARTESIAN_POINT('',(0.,0.,0.));
#829=CARTESIAN_POINT('',(-4.63986342770131E-17,-0.757772228311384,-0.4375));
#830=CARTESIAN_POINT('',(-4.04330955842543E-17,-0.660344370385634,-0.38125));
#831=CARTESIAN_POINT('',(-3.9746618164141E-17,-0.649132973058312,-0.493189959665746));
#832=CARTESIAN_POINT('',(-3.64482879199702E-17,-0.595265373337379,-1.0310298706068));
#833=CARTESIAN_POINT('',(0.,0.,0.));
#834=CARTESIAN_POINT('',(-4.04330955842543E-17,-0.660344370385634,-0.38125));
#835=CARTESIAN_POINT('',(-4.60256983022142E-17,-0.751681520491115,-0.315570665269745));
#836=CARTESIAN_POINT('',(0.,0.,0.));
#837=CARTESIAN_POINT('',(-4.63986342770131E-17,-0.757772228311384,0.4375));
#838=CARTESIAN_POINT('',(-4.04330955842543E-17,-0.660344370385634,0.38125));
#839=CARTESIAN_POINT('',(-4.60256983022143E-17,-0.751681520491115,0.315570665269745));
#840=CARTESIAN_POINT('',(-7.28965758399404E-17,-1.19053074667476,-1.0842021724855E-16));
#841=CARTESIAN_POINT('',(0.,0.,0.));
#842=CARTESIAN_POINT('',(-4.04330955842543E-17,-0.660344370385634,0.38125));
#843=CARTESIAN_POINT('',(-3.9746618164141E-17,-0.649132973058312,0.493189959665746));
#844=CARTESIAN_POINT('',(0.,0.,0.));
#845=CARTESIAN_POINT('',(-1.50463276905253E-33,-1.61628511606109E-17,0.875));
#846=CARTESIAN_POINT('',(0.,0.,0.7625));
#847=CARTESIAN_POINT('',(-6.27908013807329E-18,-0.102548547432803,0.808760624935491));
#848=CARTESIAN_POINT('',(-3.64482879199702E-17,-0.595265373337379,1.0310298706068));
#849=CARTESIAN_POINT('',(3.5,0.,0.));
#850=CARTESIAN_POINT('',(10.5,0.,0.));
#851=CARTESIAN_POINT('',(10.5,0.,1.));
#852=CARTESIAN_POINT('',(2.5,0.,0.));
#853=CARTESIAN_POINT('',(2.5,0.,1.));
#854=CARTESIAN_POINT('',(3.5,0.,0.));
#855=CARTESIAN_POINT('',(1.90710678118655,0.,0.));
#856=CARTESIAN_POINT('',(1.90710678118655,0.,1.));
#857=CARTESIAN_POINT('',(10.5,0.,1.));
#858=CARTESIAN_POINT('',(0.,0.,0.));
#859=CARTESIAN_POINT('',(0.,0.,0.7625));
#860=CARTESIAN_POINT('',(0.,0.102548547432803,0.808760624935491));
#861=CARTESIAN_POINT('',(0.,0.,0.));
#862=CARTESIAN_POINT('',(4.04330955842543E-17,0.660344370385634,0.38125));
#863=CARTESIAN_POINT('',(3.9746618164141E-17,0.649132973058312,0.493189959665746));
#864=CARTESIAN_POINT('',(3.64482879199702E-17,0.595265373337379,1.0310298706068));
#865=CARTESIAN_POINT('',(3.903123748999,0.,0.));
#866=CARTESIAN_POINT('',(0.499999999999995,0.,0.));
#867=CARTESIAN_POINT('',(0.499999999999995,0.,2.10208200339543));
#868=CARTESIAN_POINT('',(3.5,0.,0.));
#869=CARTESIAN_POINT('',(0.597917996604557,0.,0.));
#870=CARTESIAN_POINT('',(0.597917996604557,0.,2.10208200339544));
#871=CARTESIAN_POINT('',(0.597917996604557,0.,0.));
#872=CARTESIAN_POINT('',(1.55355339059327,0.,0.));
#873=CARTESIAN_POINT('',(1.55355339059327,0.,1.14644660940673));
#874=CARTESIAN_POINT('',(0.77,1.19053074667476,-1.0842021724855E-16));
#875=CARTESIAN_POINT('',(0.77,0.751681520491115,-0.315570665269744));
#876=CARTESIAN_POINT('',(0.77,0.751681520491115,-0.315570665269744));
#877=CARTESIAN_POINT('',(0.77,1.19053074667476,-1.0842021724855E-16));
#878=CARTESIAN_POINT('',(0.77,0.751681520491115,0.315570665269745));
#879=CARTESIAN_POINT('',(0.77,0.751681520491115,0.315570665269745));
#880=CARTESIAN_POINT('',(0.77,0.660344370385634,-0.38125));
#881=CARTESIAN_POINT('',(0.77,0.649132973058312,-0.493189959665746));
#882=CARTESIAN_POINT('',(0.77,0.649132973058312,-0.493189959665746));
#883=CARTESIAN_POINT('',(0.77,0.660344370385634,-0.38125));
#884=CARTESIAN_POINT('',(0.77,0.595265373337379,-1.0310298706068));
#885=CARTESIAN_POINT('',(0.77,0.102548547432803,-0.808760624935491));
#886=CARTESIAN_POINT('',(0.77,0.102548547432803,-0.808760624935491));
#887=CARTESIAN_POINT('',(0.77,0.595265373337379,-1.0310298706068));
#888=CARTESIAN_POINT('',(0.77,0.,-0.7625));
#889=CARTESIAN_POINT('',(0.77,-0.102548547432803,-0.808760624935491));
#890=CARTESIAN_POINT('',(0.77,-0.102548547432803,-0.808760624935491));
#891=CARTESIAN_POINT('',(0.77,0.,-0.7625));
#892=CARTESIAN_POINT('',(0.77,-0.595265373337379,-1.0310298706068));
#893=CARTESIAN_POINT('',(0.77,-0.649132973058312,-0.493189959665746));
#894=CARTESIAN_POINT('',(0.77,-0.649132973058312,-0.493189959665746));
#895=CARTESIAN_POINT('',(0.77,-0.595265373337379,-1.0310298706068));
#896=CARTESIAN_POINT('',(0.77,-0.660344370385634,-0.38125));
#897=CARTESIAN_POINT('',(0.77,-0.751681520491115,-0.315570665269745));
#898=CARTESIAN_POINT('',(0.77,-0.751681520491115,-0.315570665269745));
#899=CARTESIAN_POINT('',(0.77,-0.660344370385634,-0.38125));
#900=CARTESIAN_POINT('',(0.77,-1.19053074667476,-1.0842021724855E-16));
#901=CARTESIAN_POINT('',(0.77,-0.751681520491115,0.315570665269745));
#902=CARTESIAN_POINT('',(0.77,-0.751681520491115,0.315570665269745));
#903=CARTESIAN_POINT('',(0.77,-1.19053074667476,-1.0842021724855E-16));
#904=CARTESIAN_POINT('',(0.77,-0.660344370385634,0.38125));
#905=CARTESIAN_POINT('',(0.77,-0.649132973058312,0.493189959665746));
#906=CARTESIAN_POINT('',(0.77,-0.649132973058312,0.493189959665746));
#907=CARTESIAN_POINT('',(0.77,-0.660344370385634,0.38125));
#908=CARTESIAN_POINT('',(0.77,-0.595265373337379,1.0310298706068));
#909=CARTESIAN_POINT('',(0.77,-0.102548547432803,0.808760624935491));
#910=CARTESIAN_POINT('',(0.77,-0.102548547432803,0.808760624935491));
#911=CARTESIAN_POINT('',(0.77,-0.595265373337379,1.0310298706068));
#912=CARTESIAN_POINT('',(0.77,0.,0.7625));
#913=CARTESIAN_POINT('',(0.77,0.102548547432803,0.808760624935491));
#914=CARTESIAN_POINT('',(0.77,0.102548547432803,0.808760624935491));
#915=CARTESIAN_POINT('',(0.77,0.,0.7625));
#916=CARTESIAN_POINT('',(0.77,0.595265373337379,1.0310298706068));
#917=CARTESIAN_POINT('',(0.77,0.649132973058312,0.493189959665746));
#918=CARTESIAN_POINT('',(0.77,0.649132973058312,0.493189959665746));
#919=CARTESIAN_POINT('',(0.77,0.595265373337379,1.0310298706068));
#920=CARTESIAN_POINT('',(0.77,0.660344370385634,0.38125));
#921=CARTESIAN_POINT('',(0.77,0.660344370385634,0.38125));
#922=CARTESIAN_POINT('',(0.77,0.925437558530197,-0.190625));
#923=CARTESIAN_POINT('',(1.90710678118655,0.,0.));
#924=MECHANICAL_DESIGN_GEOMETRIC_PRESENTATION_REPRESENTATION('',(#374,#375,
#376,#377,#378,#379,#380,#381,#382,#383,#384,#385,#386,#387,#388,#389,#390,
#391,#392,#393,#394,#395,#396,#397,#398,#399),#925);
#925=(
GEOMETRIC_REPRESENTATION_CONTEXT(3)
GLOBAL_UNCERTAINTY_ASSIGNED_CONTEXT((#926))
GLOBAL_UNIT_ASSIGNED_CONTEXT((#929,#928,#927))
REPRESENTATION_CONTEXT('\X2\5185516D89D282B15F62534A6C89593487BA9489\X0\',
'TOP_LEVEL_ASSEMBLY_PART')
);
#926=UNCERTAINTY_MEASURE_WITH_UNIT(LENGTH_MEASURE(0.005),#929,
'DISTANCE_ACCURACY_VALUE','Maximum Tolerance applied to model');
#927=(
NAMED_UNIT(*)
SI_UNIT($,.STERADIAN.)
SOLID_ANGLE_UNIT()
);
#928=(
NAMED_UNIT(*)
PLANE_ANGLE_UNIT()
SI_UNIT($,.RADIAN.)
);
#929=(
LENGTH_UNIT()
NAMED_UNIT(*)
SI_UNIT(.MILLI.,.METRE.)
);
#930=PRODUCT_DEFINITION_SHAPE('','',#931);
#931=PRODUCT_DEFINITION('','',#933,#932);
#932=PRODUCT_DEFINITION_CONTEXT('',#939,'design');
#933=PRODUCT_DEFINITION_FORMATION_WITH_SPECIFIED_SOURCE('','',#935,
 .NOT_KNOWN.);
#934=PRODUCT_RELATED_PRODUCT_CATEGORY('','',(#935));
#935=PRODUCT('\X2\5185516D89D282B15F62534A6C89593487BA9489\X0\',
'\X2\5185516D89D282B15F62534A6C89593487BA9489\X0\',
'\X2\5185516D89D282B15F62534A6C89593487BA9489\X0\',(#937));
#936=PRODUCT_CATEGORY('','');
#937=PRODUCT_CONTEXT('',#939,'mechanical');
#938=APPLICATION_PROTOCOL_DEFINITION('international standard',
'automotive_design',2010,#939);
#939=APPLICATION_CONTEXT(
'core data for automotive mechanical design processes');
ENDSEC;
END-ISO-10303-21;
