ISO-10303-21;
HEADER;
/* Generated by software containing HOOPS Exchange Step
 * from HOOPS Exchange, Inc. (www.tiangong.cloud) 
 */

FILE_DESCRIPTION(
/* description */ ('Unknown'),
/* implementation_level */ '2;1');

FILE_NAME(
/* name */ 'tmpCD5C.tmp',
/* time_stamp */ '2025-01-10T15:06:12+08:00',
/* author */ ('Unknown'),
/* organization */ ('Unknown'),
/* preprocessor_version */ 'ST-DEVELOPER v18.104',
/* originating_system */ 'TianGong',
/* authorisation */ 'Unknown');

FILE_SCHEMA (('AUTOMOTIVE_DESIGN {1 0 10303 214 3 1 1}'));
ENDSEC;

DATA;
#10=PROPERTY_DEFINITION_REPRESENTATION(#14,#12);
#11=PROPERTY_DEFINITION_REPRESENTATION(#15,#13);
#12=REPRESENTATION('',(#16),#811);
#13=REPRESENTATION('',(#17),#811);
#14=PROPERTY_DEFINITION('pmi validation property','',#816);
#15=PROPERTY_DEFINITION('pmi validation property','',#816);
#16=VALUE_REPRESENTATION_ITEM('number of annotations',COUNT_MEASURE(0.));
#17=VALUE_REPRESENTATION_ITEM('number of views',COUNT_MEASURE(0.));
#18=SHAPE_REPRESENTATION_RELATIONSHIP('','',#535,#19);
#19=ADVANCED_BREP_SHAPE_REPRESENTATION('',(#533),#811);
#20=LINE('',#762,#40);
#21=LINE('',#764,#41);
#22=LINE('',#766,#42);
#23=LINE('',#768,#43);
#24=LINE('',#770,#44);
#25=LINE('',#772,#45);
#26=LINE('',#774,#46);
#27=LINE('',#776,#47);
#28=LINE('',#778,#48);
#29=LINE('',#780,#49);
#30=LINE('',#782,#50);
#31=LINE('',#784,#51);
#32=LINE('',#786,#52);
#33=LINE('',#788,#53);
#34=LINE('',#790,#54);
#35=LINE('',#792,#55);
#36=LINE('',#794,#56);
#37=LINE('',#796,#57);
#38=LINE('',#798,#58);
#39=LINE('',#800,#59);
#40=VECTOR('',#637,1000.);
#41=VECTOR('',#638,1000.);
#42=VECTOR('',#639,1000.);
#43=VECTOR('',#642,1000.);
#44=VECTOR('',#645,1000.);
#45=VECTOR('',#646,1000.);
#46=VECTOR('',#649,1000.);
#47=VECTOR('',#650,1000.);
#48=VECTOR('',#653,1000.);
#49=VECTOR('',#656,1000.);
#50=VECTOR('',#657,1000.);
#51=VECTOR('',#660,1000.);
#52=VECTOR('',#661,1000.);
#53=VECTOR('',#664,1000.);
#54=VECTOR('',#667,1000.);
#55=VECTOR('',#668,1000.);
#56=VECTOR('',#671,1000.);
#57=VECTOR('',#672,1000.);
#58=VECTOR('',#675,1000.);
#59=VECTOR('',#678,1000.);
#60=TOROIDAL_SURFACE('',#561,0.7,0.1);
#61=CONICAL_SURFACE('',#559,1.1,0.785398163397448);
#62=B_SPLINE_CURVE_WITH_KNOTS('',3,(#711,#712,#713,#714),.UNSPECIFIED.,
 .F.,.F.,(4,4),(0.,0.000471553749776879),.UNSPECIFIED.);
#63=B_SPLINE_CURVE_WITH_KNOTS('',3,(#722,#723,#724,#725),.UNSPECIFIED.,
 .F.,.F.,(4,4),(0.,0.000471553749776878),.UNSPECIFIED.);
#64=B_SPLINE_CURVE_WITH_KNOTS('',3,(#733,#734,#735,#736),.UNSPECIFIED.,
 .F.,.F.,(4,4),(0.,0.000471553749776878),.UNSPECIFIED.);
#65=B_SPLINE_CURVE_WITH_KNOTS('',3,(#744,#745,#746,#747),.UNSPECIFIED.,
 .F.,.F.,(4,4),(0.,0.000471553749776878),.UNSPECIFIED.);
#66=SPHERICAL_SURFACE('',#543,2.5);
#67=PLANE('',#542);
#68=PLANE('',#562);
#69=PLANE('',#563);
#70=PLANE('',#564);
#71=PLANE('',#565);
#72=PLANE('',#566);
#73=PLANE('',#567);
#74=PLANE('',#568);
#75=PLANE('',#569);
#76=PLANE('',#570);
#77=PLANE('',#571);
#78=PLANE('',#572);
#79=PLANE('',#573);
#80=PLANE('',#574);
#81=ORIENTED_EDGE('',*,*,#173,.T.);
#82=ORIENTED_EDGE('',*,*,#174,.T.);
#83=ORIENTED_EDGE('',*,*,#174,.F.);
#84=ORIENTED_EDGE('',*,*,#175,.T.);
#85=ORIENTED_EDGE('',*,*,#173,.F.);
#86=ORIENTED_EDGE('',*,*,#176,.F.);
#87=ORIENTED_EDGE('',*,*,#177,.T.);
#88=ORIENTED_EDGE('',*,*,#178,.F.);
#89=ORIENTED_EDGE('',*,*,#179,.F.);
#90=ORIENTED_EDGE('',*,*,#180,.F.);
#91=ORIENTED_EDGE('',*,*,#181,.T.);
#92=ORIENTED_EDGE('',*,*,#182,.F.);
#93=ORIENTED_EDGE('',*,*,#183,.F.);
#94=ORIENTED_EDGE('',*,*,#184,.F.);
#95=ORIENTED_EDGE('',*,*,#185,.T.);
#96=ORIENTED_EDGE('',*,*,#186,.F.);
#97=ORIENTED_EDGE('',*,*,#187,.F.);
#98=ORIENTED_EDGE('',*,*,#188,.F.);
#99=ORIENTED_EDGE('',*,*,#189,.T.);
#100=ORIENTED_EDGE('',*,*,#190,.F.);
#101=ORIENTED_EDGE('',*,*,#191,.F.);
#102=ORIENTED_EDGE('',*,*,#192,.T.);
#103=ORIENTED_EDGE('',*,*,#193,.T.);
#104=ORIENTED_EDGE('',*,*,#192,.F.);
#105=ORIENTED_EDGE('',*,*,#194,.T.);
#106=ORIENTED_EDGE('',*,*,#193,.F.);
#107=ORIENTED_EDGE('',*,*,#175,.F.);
#108=ORIENTED_EDGE('',*,*,#194,.F.);
#109=ORIENTED_EDGE('',*,*,#191,.T.);
#110=ORIENTED_EDGE('',*,*,#195,.T.);
#111=ORIENTED_EDGE('',*,*,#196,.T.);
#112=ORIENTED_EDGE('',*,*,#197,.F.);
#113=ORIENTED_EDGE('',*,*,#190,.T.);
#114=ORIENTED_EDGE('',*,*,#198,.T.);
#115=ORIENTED_EDGE('',*,*,#195,.F.);
#116=ORIENTED_EDGE('',*,*,#199,.T.);
#117=ORIENTED_EDGE('',*,*,#200,.T.);
#118=ORIENTED_EDGE('',*,*,#188,.T.);
#119=ORIENTED_EDGE('',*,*,#187,.T.);
#120=ORIENTED_EDGE('',*,*,#201,.T.);
#121=ORIENTED_EDGE('',*,*,#202,.T.);
#122=ORIENTED_EDGE('',*,*,#199,.F.);
#123=ORIENTED_EDGE('',*,*,#186,.T.);
#124=ORIENTED_EDGE('',*,*,#203,.T.);
#125=ORIENTED_EDGE('',*,*,#201,.F.);
#126=ORIENTED_EDGE('',*,*,#204,.T.);
#127=ORIENTED_EDGE('',*,*,#205,.T.);
#128=ORIENTED_EDGE('',*,*,#184,.T.);
#129=ORIENTED_EDGE('',*,*,#183,.T.);
#130=ORIENTED_EDGE('',*,*,#206,.T.);
#131=ORIENTED_EDGE('',*,*,#207,.T.);
#132=ORIENTED_EDGE('',*,*,#204,.F.);
#133=ORIENTED_EDGE('',*,*,#182,.T.);
#134=ORIENTED_EDGE('',*,*,#208,.T.);
#135=ORIENTED_EDGE('',*,*,#206,.F.);
#136=ORIENTED_EDGE('',*,*,#209,.T.);
#137=ORIENTED_EDGE('',*,*,#210,.T.);
#138=ORIENTED_EDGE('',*,*,#180,.T.);
#139=ORIENTED_EDGE('',*,*,#179,.T.);
#140=ORIENTED_EDGE('',*,*,#211,.T.);
#141=ORIENTED_EDGE('',*,*,#212,.T.);
#142=ORIENTED_EDGE('',*,*,#209,.F.);
#143=ORIENTED_EDGE('',*,*,#178,.T.);
#144=ORIENTED_EDGE('',*,*,#213,.T.);
#145=ORIENTED_EDGE('',*,*,#211,.F.);
#146=ORIENTED_EDGE('',*,*,#197,.T.);
#147=ORIENTED_EDGE('',*,*,#214,.T.);
#148=ORIENTED_EDGE('',*,*,#176,.T.);
#149=ORIENTED_EDGE('',*,*,#202,.F.);
#150=ORIENTED_EDGE('',*,*,#215,.T.);
#151=ORIENTED_EDGE('',*,*,#207,.F.);
#152=ORIENTED_EDGE('',*,*,#216,.T.);
#153=ORIENTED_EDGE('',*,*,#212,.F.);
#154=ORIENTED_EDGE('',*,*,#217,.T.);
#155=ORIENTED_EDGE('',*,*,#196,.F.);
#156=ORIENTED_EDGE('',*,*,#218,.T.);
#157=ORIENTED_EDGE('',*,*,#189,.F.);
#158=ORIENTED_EDGE('',*,*,#200,.F.);
#159=ORIENTED_EDGE('',*,*,#218,.F.);
#160=ORIENTED_EDGE('',*,*,#198,.F.);
#161=ORIENTED_EDGE('',*,*,#181,.F.);
#162=ORIENTED_EDGE('',*,*,#210,.F.);
#163=ORIENTED_EDGE('',*,*,#216,.F.);
#164=ORIENTED_EDGE('',*,*,#208,.F.);
#165=ORIENTED_EDGE('',*,*,#185,.F.);
#166=ORIENTED_EDGE('',*,*,#205,.F.);
#167=ORIENTED_EDGE('',*,*,#215,.F.);
#168=ORIENTED_EDGE('',*,*,#203,.F.);
#169=ORIENTED_EDGE('',*,*,#177,.F.);
#170=ORIENTED_EDGE('',*,*,#214,.F.);
#171=ORIENTED_EDGE('',*,*,#217,.F.);
#172=ORIENTED_EDGE('',*,*,#213,.F.);
#173=EDGE_CURVE('',#219,#219,#249,.T.);
#174=EDGE_CURVE('',#220,#220,#250,.T.);
#175=EDGE_CURVE('',#221,#221,#251,.F.);
#176=EDGE_CURVE('',#222,#223,#252,.F.);
#177=EDGE_CURVE('',#222,#224,#62,.T.);
#178=EDGE_CURVE('',#225,#224,#253,.F.);
#179=EDGE_CURVE('',#226,#225,#254,.F.);
#180=EDGE_CURVE('',#227,#226,#255,.F.);
#181=EDGE_CURVE('',#227,#228,#63,.T.);
#182=EDGE_CURVE('',#229,#228,#256,.F.);
#183=EDGE_CURVE('',#230,#229,#257,.F.);
#184=EDGE_CURVE('',#231,#230,#258,.F.);
#185=EDGE_CURVE('',#231,#232,#64,.T.);
#186=EDGE_CURVE('',#233,#232,#259,.F.);
#187=EDGE_CURVE('',#234,#233,#260,.F.);
#188=EDGE_CURVE('',#235,#234,#261,.F.);
#189=EDGE_CURVE('',#235,#236,#65,.T.);
#190=EDGE_CURVE('',#237,#236,#262,.F.);
#191=EDGE_CURVE('',#223,#237,#263,.F.);
#192=EDGE_CURVE('',#238,#238,#264,.T.);
#193=EDGE_CURVE('',#239,#239,#265,.T.);
#194=EDGE_CURVE('',#240,#240,#266,.T.);
#195=EDGE_CURVE('',#237,#241,#20,.T.);
#196=EDGE_CURVE('',#241,#242,#21,.F.);
#197=EDGE_CURVE('',#223,#242,#22,.T.);
#198=EDGE_CURVE('',#236,#241,#23,.T.);
#199=EDGE_CURVE('',#234,#243,#24,.T.);
#200=EDGE_CURVE('',#243,#235,#25,.F.);
#201=EDGE_CURVE('',#233,#244,#26,.T.);
#202=EDGE_CURVE('',#244,#243,#27,.F.);
#203=EDGE_CURVE('',#232,#244,#28,.T.);
#204=EDGE_CURVE('',#230,#245,#29,.T.);
#205=EDGE_CURVE('',#245,#231,#30,.F.);
#206=EDGE_CURVE('',#229,#246,#31,.T.);
#207=EDGE_CURVE('',#246,#245,#32,.F.);
#208=EDGE_CURVE('',#228,#246,#33,.T.);
#209=EDGE_CURVE('',#226,#247,#34,.T.);
#210=EDGE_CURVE('',#247,#227,#35,.F.);
#211=EDGE_CURVE('',#225,#248,#36,.T.);
#212=EDGE_CURVE('',#248,#247,#37,.F.);
#213=EDGE_CURVE('',#224,#248,#38,.T.);
#214=EDGE_CURVE('',#242,#222,#39,.F.);
#215=EDGE_CURVE('',#244,#245,#267,.F.);
#216=EDGE_CURVE('',#246,#247,#268,.F.);
#217=EDGE_CURVE('',#248,#242,#269,.F.);
#218=EDGE_CURVE('',#241,#243,#270,.F.);
#219=VERTEX_POINT('',#700);
#220=VERTEX_POINT('',#702);
#221=VERTEX_POINT('',#705);
#222=VERTEX_POINT('',#709);
#223=VERTEX_POINT('',#710);
#224=VERTEX_POINT('',#715);
#225=VERTEX_POINT('',#717);
#226=VERTEX_POINT('',#719);
#227=VERTEX_POINT('',#721);
#228=VERTEX_POINT('',#726);
#229=VERTEX_POINT('',#728);
#230=VERTEX_POINT('',#730);
#231=VERTEX_POINT('',#732);
#232=VERTEX_POINT('',#737);
#233=VERTEX_POINT('',#739);
#234=VERTEX_POINT('',#741);
#235=VERTEX_POINT('',#743);
#236=VERTEX_POINT('',#748);
#237=VERTEX_POINT('',#750);
#238=VERTEX_POINT('',#753);
#239=VERTEX_POINT('',#756);
#240=VERTEX_POINT('',#759);
#241=VERTEX_POINT('',#763);
#242=VERTEX_POINT('',#765);
#243=VERTEX_POINT('',#771);
#244=VERTEX_POINT('',#775);
#245=VERTEX_POINT('',#781);
#246=VERTEX_POINT('',#785);
#247=VERTEX_POINT('',#791);
#248=VERTEX_POINT('',#795);
#249=CIRCLE('',#538,0.6);
#250=CIRCLE('',#539,0.6);
#251=CIRCLE('',#541,0.6);
#252=CIRCLE('',#544,2.49549594269356);
#253=CIRCLE('',#545,2.49549594269356);
#254=CIRCLE('',#546,2.4824817254597);
#255=CIRCLE('',#547,2.49549594269356);
#256=CIRCLE('',#548,2.49549594269356);
#257=CIRCLE('',#549,2.4824817254597);
#258=CIRCLE('',#550,2.49549594269356);
#259=CIRCLE('',#551,2.49549594269356);
#260=CIRCLE('',#552,2.4824817254597);
#261=CIRCLE('',#553,2.49549594269356);
#262=CIRCLE('',#554,2.49549594269356);
#263=CIRCLE('',#555,2.4824817254597);
#264=CIRCLE('',#556,1.1);
#265=CIRCLE('',#558,1.1);
#266=CIRCLE('',#560,0.629289321881345);
#267=CIRCLE('',#575,0.3);
#268=CIRCLE('',#576,0.3);
#269=CIRCLE('',#577,0.3);
#270=CIRCLE('',#578,0.3);
#271=EDGE_LOOP('',(#81));
#272=EDGE_LOOP('',(#82));
#273=EDGE_LOOP('',(#83));
#274=EDGE_LOOP('',(#84));
#275=EDGE_LOOP('',(#85));
#276=EDGE_LOOP('',(#86,#87,#88,#89,#90,#91,#92,#93,#94,#95,#96,#97,#98,
#99,#100,#101));
#277=EDGE_LOOP('',(#102));
#278=EDGE_LOOP('',(#103));
#279=EDGE_LOOP('',(#104));
#280=EDGE_LOOP('',(#105));
#281=EDGE_LOOP('',(#106));
#282=EDGE_LOOP('',(#107));
#283=EDGE_LOOP('',(#108));
#284=EDGE_LOOP('',(#109,#110,#111,#112));
#285=EDGE_LOOP('',(#113,#114,#115));
#286=EDGE_LOOP('',(#116,#117,#118));
#287=EDGE_LOOP('',(#119,#120,#121,#122));
#288=EDGE_LOOP('',(#123,#124,#125));
#289=EDGE_LOOP('',(#126,#127,#128));
#290=EDGE_LOOP('',(#129,#130,#131,#132));
#291=EDGE_LOOP('',(#133,#134,#135));
#292=EDGE_LOOP('',(#136,#137,#138));
#293=EDGE_LOOP('',(#139,#140,#141,#142));
#294=EDGE_LOOP('',(#143,#144,#145));
#295=EDGE_LOOP('',(#146,#147,#148));
#296=EDGE_LOOP('',(#149,#150,#151,#152,#153,#154,#155,#156));
#297=EDGE_LOOP('',(#157,#158,#159,#160));
#298=EDGE_LOOP('',(#161,#162,#163,#164));
#299=EDGE_LOOP('',(#165,#166,#167,#168));
#300=EDGE_LOOP('',(#169,#170,#171,#172));
#301=FACE_BOUND('',#271,.T.);
#302=FACE_BOUND('',#272,.T.);
#303=FACE_BOUND('',#273,.T.);
#304=FACE_BOUND('',#274,.T.);
#305=FACE_BOUND('',#275,.T.);
#306=FACE_BOUND('',#276,.T.);
#307=FACE_BOUND('',#277,.T.);
#308=FACE_BOUND('',#278,.T.);
#309=FACE_BOUND('',#279,.T.);
#310=FACE_BOUND('',#280,.T.);
#311=FACE_BOUND('',#281,.T.);
#312=FACE_BOUND('',#282,.T.);
#313=FACE_BOUND('',#283,.T.);
#314=FACE_BOUND('',#284,.T.);
#315=FACE_BOUND('',#285,.T.);
#316=FACE_BOUND('',#286,.T.);
#317=FACE_BOUND('',#287,.T.);
#318=FACE_BOUND('',#288,.T.);
#319=FACE_BOUND('',#289,.T.);
#320=FACE_BOUND('',#290,.T.);
#321=FACE_BOUND('',#291,.T.);
#322=FACE_BOUND('',#292,.T.);
#323=FACE_BOUND('',#293,.T.);
#324=FACE_BOUND('',#294,.T.);
#325=FACE_BOUND('',#295,.T.);
#326=FACE_BOUND('',#296,.T.);
#327=FACE_BOUND('',#297,.T.);
#328=FACE_BOUND('',#298,.T.);
#329=FACE_BOUND('',#299,.T.);
#330=FACE_BOUND('',#300,.T.);
#331=CYLINDRICAL_SURFACE('',#537,0.6);
#332=CYLINDRICAL_SURFACE('',#540,0.6);
#333=CYLINDRICAL_SURFACE('',#557,1.1);
#334=CYLINDRICAL_SURFACE('',#579,0.3);
#335=CYLINDRICAL_SURFACE('',#580,0.3);
#336=CYLINDRICAL_SURFACE('',#581,0.3);
#337=CYLINDRICAL_SURFACE('',#582,0.3);
#338=STYLED_ITEM('',(#362),#508);
#339=STYLED_ITEM('',(#363),#509);
#340=STYLED_ITEM('',(#364),#510);
#341=STYLED_ITEM('',(#365),#511);
#342=STYLED_ITEM('',(#366),#512);
#343=STYLED_ITEM('',(#367),#513);
#344=STYLED_ITEM('',(#368),#514);
#345=STYLED_ITEM('',(#369),#515);
#346=STYLED_ITEM('',(#370),#516);
#347=STYLED_ITEM('',(#371),#517);
#348=STYLED_ITEM('',(#372),#518);
#349=STYLED_ITEM('',(#373),#519);
#350=STYLED_ITEM('',(#374),#520);
#351=STYLED_ITEM('',(#375),#521);
#352=STYLED_ITEM('',(#376),#522);
#353=STYLED_ITEM('',(#377),#523);
#354=STYLED_ITEM('',(#378),#524);
#355=STYLED_ITEM('',(#379),#525);
#356=STYLED_ITEM('',(#380),#526);
#357=STYLED_ITEM('',(#381),#527);
#358=STYLED_ITEM('',(#382),#528);
#359=STYLED_ITEM('',(#383),#529);
#360=STYLED_ITEM('',(#384),#530);
#361=STYLED_ITEM('',(#385),#531);
#362=PRESENTATION_STYLE_ASSIGNMENT((#386));
#363=PRESENTATION_STYLE_ASSIGNMENT((#387));
#364=PRESENTATION_STYLE_ASSIGNMENT((#388));
#365=PRESENTATION_STYLE_ASSIGNMENT((#389));
#366=PRESENTATION_STYLE_ASSIGNMENT((#390));
#367=PRESENTATION_STYLE_ASSIGNMENT((#391));
#368=PRESENTATION_STYLE_ASSIGNMENT((#392));
#369=PRESENTATION_STYLE_ASSIGNMENT((#393));
#370=PRESENTATION_STYLE_ASSIGNMENT((#394));
#371=PRESENTATION_STYLE_ASSIGNMENT((#395));
#372=PRESENTATION_STYLE_ASSIGNMENT((#396));
#373=PRESENTATION_STYLE_ASSIGNMENT((#397));
#374=PRESENTATION_STYLE_ASSIGNMENT((#398));
#375=PRESENTATION_STYLE_ASSIGNMENT((#399));
#376=PRESENTATION_STYLE_ASSIGNMENT((#400));
#377=PRESENTATION_STYLE_ASSIGNMENT((#401));
#378=PRESENTATION_STYLE_ASSIGNMENT((#402));
#379=PRESENTATION_STYLE_ASSIGNMENT((#403));
#380=PRESENTATION_STYLE_ASSIGNMENT((#404));
#381=PRESENTATION_STYLE_ASSIGNMENT((#405));
#382=PRESENTATION_STYLE_ASSIGNMENT((#406));
#383=PRESENTATION_STYLE_ASSIGNMENT((#407));
#384=PRESENTATION_STYLE_ASSIGNMENT((#408));
#385=PRESENTATION_STYLE_ASSIGNMENT((#409));
#386=SURFACE_STYLE_USAGE(.BOTH.,#410);
#387=SURFACE_STYLE_USAGE(.BOTH.,#411);
#388=SURFACE_STYLE_USAGE(.BOTH.,#412);
#389=SURFACE_STYLE_USAGE(.BOTH.,#413);
#390=SURFACE_STYLE_USAGE(.BOTH.,#414);
#391=SURFACE_STYLE_USAGE(.BOTH.,#415);
#392=SURFACE_STYLE_USAGE(.BOTH.,#416);
#393=SURFACE_STYLE_USAGE(.BOTH.,#417);
#394=SURFACE_STYLE_USAGE(.BOTH.,#418);
#395=SURFACE_STYLE_USAGE(.BOTH.,#419);
#396=SURFACE_STYLE_USAGE(.BOTH.,#420);
#397=SURFACE_STYLE_USAGE(.BOTH.,#421);
#398=SURFACE_STYLE_USAGE(.BOTH.,#422);
#399=SURFACE_STYLE_USAGE(.BOTH.,#423);
#400=SURFACE_STYLE_USAGE(.BOTH.,#424);
#401=SURFACE_STYLE_USAGE(.BOTH.,#425);
#402=SURFACE_STYLE_USAGE(.BOTH.,#426);
#403=SURFACE_STYLE_USAGE(.BOTH.,#427);
#404=SURFACE_STYLE_USAGE(.BOTH.,#428);
#405=SURFACE_STYLE_USAGE(.BOTH.,#429);
#406=SURFACE_STYLE_USAGE(.BOTH.,#430);
#407=SURFACE_STYLE_USAGE(.BOTH.,#431);
#408=SURFACE_STYLE_USAGE(.BOTH.,#432);
#409=SURFACE_STYLE_USAGE(.BOTH.,#433);
#410=SURFACE_SIDE_STYLE('',(#434));
#411=SURFACE_SIDE_STYLE('',(#435));
#412=SURFACE_SIDE_STYLE('',(#436));
#413=SURFACE_SIDE_STYLE('',(#437));
#414=SURFACE_SIDE_STYLE('',(#438));
#415=SURFACE_SIDE_STYLE('',(#439));
#416=SURFACE_SIDE_STYLE('',(#440));
#417=SURFACE_SIDE_STYLE('',(#441));
#418=SURFACE_SIDE_STYLE('',(#442));
#419=SURFACE_SIDE_STYLE('',(#443));
#420=SURFACE_SIDE_STYLE('',(#444));
#421=SURFACE_SIDE_STYLE('',(#445));
#422=SURFACE_SIDE_STYLE('',(#446));
#423=SURFACE_SIDE_STYLE('',(#447));
#424=SURFACE_SIDE_STYLE('',(#448));
#425=SURFACE_SIDE_STYLE('',(#449));
#426=SURFACE_SIDE_STYLE('',(#450));
#427=SURFACE_SIDE_STYLE('',(#451));
#428=SURFACE_SIDE_STYLE('',(#452));
#429=SURFACE_SIDE_STYLE('',(#453));
#430=SURFACE_SIDE_STYLE('',(#454));
#431=SURFACE_SIDE_STYLE('',(#455));
#432=SURFACE_SIDE_STYLE('',(#456));
#433=SURFACE_SIDE_STYLE('',(#457));
#434=SURFACE_STYLE_FILL_AREA(#458);
#435=SURFACE_STYLE_FILL_AREA(#459);
#436=SURFACE_STYLE_FILL_AREA(#460);
#437=SURFACE_STYLE_FILL_AREA(#461);
#438=SURFACE_STYLE_FILL_AREA(#462);
#439=SURFACE_STYLE_FILL_AREA(#463);
#440=SURFACE_STYLE_FILL_AREA(#464);
#441=SURFACE_STYLE_FILL_AREA(#465);
#442=SURFACE_STYLE_FILL_AREA(#466);
#443=SURFACE_STYLE_FILL_AREA(#467);
#444=SURFACE_STYLE_FILL_AREA(#468);
#445=SURFACE_STYLE_FILL_AREA(#469);
#446=SURFACE_STYLE_FILL_AREA(#470);
#447=SURFACE_STYLE_FILL_AREA(#471);
#448=SURFACE_STYLE_FILL_AREA(#472);
#449=SURFACE_STYLE_FILL_AREA(#473);
#450=SURFACE_STYLE_FILL_AREA(#474);
#451=SURFACE_STYLE_FILL_AREA(#475);
#452=SURFACE_STYLE_FILL_AREA(#476);
#453=SURFACE_STYLE_FILL_AREA(#477);
#454=SURFACE_STYLE_FILL_AREA(#478);
#455=SURFACE_STYLE_FILL_AREA(#479);
#456=SURFACE_STYLE_FILL_AREA(#480);
#457=SURFACE_STYLE_FILL_AREA(#481);
#458=FILL_AREA_STYLE('',(#482));
#459=FILL_AREA_STYLE('',(#483));
#460=FILL_AREA_STYLE('',(#484));
#461=FILL_AREA_STYLE('',(#485));
#462=FILL_AREA_STYLE('',(#486));
#463=FILL_AREA_STYLE('',(#487));
#464=FILL_AREA_STYLE('',(#488));
#465=FILL_AREA_STYLE('',(#489));
#466=FILL_AREA_STYLE('',(#490));
#467=FILL_AREA_STYLE('',(#491));
#468=FILL_AREA_STYLE('',(#492));
#469=FILL_AREA_STYLE('',(#493));
#470=FILL_AREA_STYLE('',(#494));
#471=FILL_AREA_STYLE('',(#495));
#472=FILL_AREA_STYLE('',(#496));
#473=FILL_AREA_STYLE('',(#497));
#474=FILL_AREA_STYLE('',(#498));
#475=FILL_AREA_STYLE('',(#499));
#476=FILL_AREA_STYLE('',(#500));
#477=FILL_AREA_STYLE('',(#501));
#478=FILL_AREA_STYLE('',(#502));
#479=FILL_AREA_STYLE('',(#503));
#480=FILL_AREA_STYLE('',(#504));
#481=FILL_AREA_STYLE('',(#505));
#482=FILL_AREA_STYLE_COLOUR('',#506);
#483=FILL_AREA_STYLE_COLOUR('',#507);
#484=FILL_AREA_STYLE_COLOUR('',#507);
#485=FILL_AREA_STYLE_COLOUR('',#507);
#486=FILL_AREA_STYLE_COLOUR('',#507);
#487=FILL_AREA_STYLE_COLOUR('',#507);
#488=FILL_AREA_STYLE_COLOUR('',#507);
#489=FILL_AREA_STYLE_COLOUR('',#507);
#490=FILL_AREA_STYLE_COLOUR('',#507);
#491=FILL_AREA_STYLE_COLOUR('',#507);
#492=FILL_AREA_STYLE_COLOUR('',#507);
#493=FILL_AREA_STYLE_COLOUR('',#507);
#494=FILL_AREA_STYLE_COLOUR('',#507);
#495=FILL_AREA_STYLE_COLOUR('',#507);
#496=FILL_AREA_STYLE_COLOUR('',#507);
#497=FILL_AREA_STYLE_COLOUR('',#507);
#498=FILL_AREA_STYLE_COLOUR('',#507);
#499=FILL_AREA_STYLE_COLOUR('',#507);
#500=FILL_AREA_STYLE_COLOUR('',#507);
#501=FILL_AREA_STYLE_COLOUR('',#507);
#502=FILL_AREA_STYLE_COLOUR('',#507);
#503=FILL_AREA_STYLE_COLOUR('',#507);
#504=FILL_AREA_STYLE_COLOUR('',#507);
#505=FILL_AREA_STYLE_COLOUR('',#507);
#506=COLOUR_RGB('',0.1875,0.75,0.581249892711639);
#507=COLOUR_RGB('',0.506983280181885,0.531564235687256,0.550000011920929);
#508=ADVANCED_FACE('',(#301,#302),#331,.T.);
#509=ADVANCED_FACE('',(#303,#304),#332,.T.);
#510=ADVANCED_FACE('',(#305),#67,.T.);
#511=ADVANCED_FACE('',(#306,#307),#66,.T.);
#512=ADVANCED_FACE('',(#308,#309),#333,.T.);
#513=ADVANCED_FACE('',(#310,#311),#61,.T.);
#514=ADVANCED_FACE('',(#312,#313),#60,.F.);
#515=ADVANCED_FACE('',(#314),#68,.F.);
#516=ADVANCED_FACE('',(#315),#69,.F.);
#517=ADVANCED_FACE('',(#316),#70,.F.);
#518=ADVANCED_FACE('',(#317),#71,.F.);
#519=ADVANCED_FACE('',(#318),#72,.F.);
#520=ADVANCED_FACE('',(#319),#73,.F.);
#521=ADVANCED_FACE('',(#320),#74,.F.);
#522=ADVANCED_FACE('',(#321),#75,.F.);
#523=ADVANCED_FACE('',(#322),#76,.F.);
#524=ADVANCED_FACE('',(#323),#77,.F.);
#525=ADVANCED_FACE('',(#324),#78,.F.);
#526=ADVANCED_FACE('',(#325),#79,.F.);
#527=ADVANCED_FACE('',(#326),#80,.T.);
#528=ADVANCED_FACE('',(#327),#334,.T.);
#529=ADVANCED_FACE('',(#328),#335,.T.);
#530=ADVANCED_FACE('',(#329),#336,.T.);
#531=ADVANCED_FACE('',(#330),#337,.T.);
#532=CLOSED_SHELL('',(#508,#509,#510,#511,#512,#513,#514,#515,#516,#517,
#518,#519,#520,#521,#522,#523,#524,#525,#526,#527,#528,#529,#530,#531));
#533=MANIFOLD_SOLID_BREP('',#532);
#534=SHAPE_DEFINITION_REPRESENTATION(#816,#535);
#535=SHAPE_REPRESENTATION('C\X2\578B\X0\-\X2\53415B5769FD534A6C89593487BA9489\X0\',
(#536),#811);
#536=AXIS2_PLACEMENT_3D('',#697,#583,#584);
#537=AXIS2_PLACEMENT_3D('',#698,#585,#586);
#538=AXIS2_PLACEMENT_3D('',#699,#587,#588);
#539=AXIS2_PLACEMENT_3D('',#701,#589,#590);
#540=AXIS2_PLACEMENT_3D('',#703,#591,#592);
#541=AXIS2_PLACEMENT_3D('',#704,#593,#594);
#542=AXIS2_PLACEMENT_3D('',#706,#595,#596);
#543=AXIS2_PLACEMENT_3D('',#707,#597,#598);
#544=AXIS2_PLACEMENT_3D('',#708,#599,#600);
#545=AXIS2_PLACEMENT_3D('',#716,#601,#602);
#546=AXIS2_PLACEMENT_3D('',#718,#603,#604);
#547=AXIS2_PLACEMENT_3D('',#720,#605,#606);
#548=AXIS2_PLACEMENT_3D('',#727,#607,#608);
#549=AXIS2_PLACEMENT_3D('',#729,#609,#610);
#550=AXIS2_PLACEMENT_3D('',#731,#611,#612);
#551=AXIS2_PLACEMENT_3D('',#738,#613,#614);
#552=AXIS2_PLACEMENT_3D('',#740,#615,#616);
#553=AXIS2_PLACEMENT_3D('',#742,#617,#618);
#554=AXIS2_PLACEMENT_3D('',#749,#619,#620);
#555=AXIS2_PLACEMENT_3D('',#751,#621,#622);
#556=AXIS2_PLACEMENT_3D('',#752,#623,#624);
#557=AXIS2_PLACEMENT_3D('',#754,#625,#626);
#558=AXIS2_PLACEMENT_3D('',#755,#627,#628);
#559=AXIS2_PLACEMENT_3D('',#757,#629,#630);
#560=AXIS2_PLACEMENT_3D('',#758,#631,#632);
#561=AXIS2_PLACEMENT_3D('',#760,#633,#634);
#562=AXIS2_PLACEMENT_3D('',#761,#635,#636);
#563=AXIS2_PLACEMENT_3D('',#767,#640,#641);
#564=AXIS2_PLACEMENT_3D('',#769,#643,#644);
#565=AXIS2_PLACEMENT_3D('',#773,#647,#648);
#566=AXIS2_PLACEMENT_3D('',#777,#651,#652);
#567=AXIS2_PLACEMENT_3D('',#779,#654,#655);
#568=AXIS2_PLACEMENT_3D('',#783,#658,#659);
#569=AXIS2_PLACEMENT_3D('',#787,#662,#663);
#570=AXIS2_PLACEMENT_3D('',#789,#665,#666);
#571=AXIS2_PLACEMENT_3D('',#793,#669,#670);
#572=AXIS2_PLACEMENT_3D('',#797,#673,#674);
#573=AXIS2_PLACEMENT_3D('',#799,#676,#677);
#574=AXIS2_PLACEMENT_3D('',#801,#679,#680);
#575=AXIS2_PLACEMENT_3D('',#802,#681,#682);
#576=AXIS2_PLACEMENT_3D('',#803,#683,#684);
#577=AXIS2_PLACEMENT_3D('',#804,#685,#686);
#578=AXIS2_PLACEMENT_3D('',#805,#687,#688);
#579=AXIS2_PLACEMENT_3D('',#806,#689,#690);
#580=AXIS2_PLACEMENT_3D('',#807,#691,#692);
#581=AXIS2_PLACEMENT_3D('',#808,#693,#694);
#582=AXIS2_PLACEMENT_3D('',#809,#695,#696);
#583=DIRECTION('',(0.,0.,1.));
#584=DIRECTION('',(1.,0.,0.));
#585=DIRECTION('',(-1.,0.,0.));
#586=DIRECTION('',(0.,0.,1.));
#587=DIRECTION('',(-1.,0.,0.));
#588=DIRECTION('',(0.,0.,1.));
#589=DIRECTION('',(1.,0.,0.));
#590=DIRECTION('',(0.,0.,1.));
#591=DIRECTION('',(-1.,0.,0.));
#592=DIRECTION('',(0.,0.,1.));
#593=DIRECTION('',(-1.,0.,0.));
#594=DIRECTION('',(0.,0.,1.));
#595=DIRECTION('',(1.,0.,0.));
#596=DIRECTION('',(0.,0.,-1.));
#597=DIRECTION('',(-1.,0.,0.));
#598=DIRECTION('',(0.,0.,-1.));
#599=DIRECTION('',(0.,-1.,0.));
#600=DIRECTION('',(0.,0.,-1.));
#601=DIRECTION('',(0.,4.51750905202293E-17,1.));
#602=DIRECTION('',(0.,-1.,4.51750905202293E-17));
#603=DIRECTION('',(0.393919298579168,-0.919145030018058,-3.32179679458278E-16));
#604=DIRECTION('',(0.919145030018058,0.393919298579168,0.));
#605=DIRECTION('',(3.87215061601966E-17,-2.37093012366745E-33,-1.));
#606=DIRECTION('',(-1.,0.,-3.87215061601966E-17));
#607=DIRECTION('',(0.,-1.,0.));
#608=DIRECTION('',(0.,0.,-1.));
#609=DIRECTION('',(0.393919298579168,-2.41198037966651E-17,-0.919145030018058));
#610=DIRECTION('',(-0.919145030018058,0.,-0.393919298579168));
#611=DIRECTION('',(0.,1.,-6.32451267283211E-16));
#612=DIRECTION('',(0.,6.32451267283211E-16,1.));
#613=DIRECTION('',(0.,0.,-1.));
#614=DIRECTION('',(-1.,0.,0.));
#615=DIRECTION('',(0.393919298579168,0.919145030018058,-3.32179679458278E-16));
#616=DIRECTION('',(-0.919145030018058,0.393919298579167,0.));
#617=DIRECTION('',(3.87215061601966E-17,-2.37093012366745E-33,1.));
#618=DIRECTION('',(1.,0.,-3.87215061601966E-17));
#619=DIRECTION('',(2.4489465642131E-32,1.,6.32451267283211E-16));
#620=DIRECTION('',(0.,-6.32451267283211E-16,1.));
#621=DIRECTION('',(0.393919298579168,-2.41198037966651E-17,0.919145030018058));
#622=DIRECTION('',(0.919145030018058,0.,-0.393919298579168));
#623=DIRECTION('',(-1.,0.,0.));
#624=DIRECTION('',(0.,0.,1.));
#625=DIRECTION('',(-1.,0.,0.));
#626=DIRECTION('',(0.,0.,1.));
#627=DIRECTION('',(-1.,0.,0.));
#628=DIRECTION('',(0.,0.,1.));
#629=DIRECTION('',(-1.,0.,0.));
#630=DIRECTION('',(0.,0.,1.));
#631=DIRECTION('',(-1.,0.,0.));
#632=DIRECTION('',(0.,0.,1.));
#633=DIRECTION('',(-1.,0.,0.));
#634=DIRECTION('',(0.,0.,1.));
#635=DIRECTION('',(0.393919298579168,-2.41198037966651E-17,0.919145030018058));
#636=DIRECTION('',(0.919145030018058,0.,-0.393919298579168));
#637=DIRECTION('',(0.919145030018058,2.1354407965175E-16,-0.393919298579168));
#638=DIRECTION('',(6.12303176911189E-17,1.,0.));
#639=DIRECTION('',(0.919145030018058,0.,-0.393919298579168));
#640=DIRECTION('',(2.4489465642131E-32,1.,6.32451267283211E-16));
#641=DIRECTION('',(0.,-6.32451267283211E-16,1.));
#642=DIRECTION('',(1.,0.,-3.87215061601966E-17));
#643=DIRECTION('',(3.87215061601966E-17,-2.37093012366745E-33,1.));
#644=DIRECTION('',(1.,0.,-3.87215061601966E-17));
#645=DIRECTION('',(0.919145030018058,-0.393919298579167,0.));
#646=DIRECTION('',(1.,0.,-3.87215061601966E-17));
#647=DIRECTION('',(0.393919298579168,0.919145030018058,-3.32179679458278E-16));
#648=DIRECTION('',(-0.919145030018058,0.393919298579167,0.));
#649=DIRECTION('',(0.919145030018058,-0.393919298579167,0.));
#650=DIRECTION('',(-1.10643405771148E-32,-1.80700362080917E-16,-1.));
#651=DIRECTION('',(0.,0.,-1.));
#652=DIRECTION('',(-1.,0.,0.));
#653=DIRECTION('',(1.,0.,0.));
#654=DIRECTION('',(0.,1.,-6.32451267283211E-16));
#655=DIRECTION('',(0.,6.32451267283211E-16,1.));
#656=DIRECTION('',(0.919145030018058,2.49134759593708E-16,0.393919298579168));
#657=DIRECTION('',(1.,0.,0.));
#658=DIRECTION('',(0.393919298579168,-2.41198037966651E-17,-0.919145030018058));
#659=DIRECTION('',(-0.919145030018058,0.,-0.393919298579168));
#660=DIRECTION('',(0.919145030018058,3.55906799419583E-17,0.393919298579168));
#661=DIRECTION('',(-6.12303176911189E-17,-1.,0.));
#662=DIRECTION('',(0.,-1.,0.));
#663=DIRECTION('',(0.,0.,-1.));
#664=DIRECTION('',(1.,0.,3.87215061601966E-17));
#665=DIRECTION('',(3.87215061601966E-17,-2.37093012366745E-33,-1.));
#666=DIRECTION('',(-1.,0.,-3.87215061601966E-17));
#667=DIRECTION('',(0.919145030018058,0.393919298579168,0.));
#668=DIRECTION('',(1.,0.,3.87215061601966E-17));
#669=DIRECTION('',(0.393919298579168,-0.919145030018058,-3.32179679458278E-16));
#670=DIRECTION('',(0.919145030018058,0.393919298579168,0.));
#671=DIRECTION('',(0.919145030018058,0.393919298579168,-7.11813598839166E-17));
#672=DIRECTION('',(-1.10643405771148E-32,-1.80700362080917E-16,1.));
#673=DIRECTION('',(0.,4.51750905202293E-17,1.));
#674=DIRECTION('',(0.,-1.,4.51750905202293E-17));
#675=DIRECTION('',(1.,0.,0.));
#676=DIRECTION('',(0.,-1.,0.));
#677=DIRECTION('',(0.,0.,-1.));
#678=DIRECTION('',(1.,0.,0.));
#679=DIRECTION('',(-1.,0.,0.));
#680=DIRECTION('',(0.,0.,1.));
#681=DIRECTION('',(-1.,0.,0.));
#682=DIRECTION('',(0.,0.,1.));
#683=DIRECTION('',(-1.,0.,0.));
#684=DIRECTION('',(0.,0.,1.));
#685=DIRECTION('',(-1.,0.,0.));
#686=DIRECTION('',(0.,0.,1.));
#687=DIRECTION('',(-1.,0.,0.));
#688=DIRECTION('',(0.,0.,1.));
#689=DIRECTION('',(1.,0.,-3.87215061601966E-17));
#690=DIRECTION('',(-3.87215061601966E-17,0.,-1.));
#691=DIRECTION('',(1.,0.,3.87215061601966E-17));
#692=DIRECTION('',(3.87215061601966E-17,0.,-1.));
#693=DIRECTION('',(1.,0.,0.));
#694=DIRECTION('',(0.,0.,-1.));
#695=DIRECTION('',(1.,0.,0.));
#696=DIRECTION('',(0.,0.,-1.));
#697=CARTESIAN_POINT('',(0.,0.,0.));
#698=CARTESIAN_POINT('',(1.85500556793564,0.,0.));
#699=CARTESIAN_POINT('',(1.85500556793564,0.,0.));
#700=CARTESIAN_POINT('',(1.85500556793564,0.,0.6));
#701=CARTESIAN_POINT('',(1.45500556793564,0.,0.));
#702=CARTESIAN_POINT('',(1.45500556793564,0.,0.6));
#703=CARTESIAN_POINT('',(1.85500556793564,0.,0.));
#704=CARTESIAN_POINT('',(0.996426924172944,0.,0.));
#705=CARTESIAN_POINT('',(0.996426924172944,0.,0.6));
#706=CARTESIAN_POINT('',(1.85500556793564,0.,0.6));
#707=CARTESIAN_POINT('',(2.5,0.,0.));
#708=CARTESIAN_POINT('',(2.5,-0.15,0.));
#709=CARTESIAN_POINT('',(0.0454124582732847,-0.15,0.45));
#710=CARTESIAN_POINT('',(0.106029098912625,-0.15,0.704558957608875));
#711=CARTESIAN_POINT('',(0.0454124582732847,-0.15,0.45));
#712=CARTESIAN_POINT('',(0.0166702059559278,-0.15,0.293221390090334));
#713=CARTESIAN_POINT('',(0.0166671307777855,-0.293204616103765,0.15));
#714=CARTESIAN_POINT('',(0.0454124582732845,-0.45,0.15));
#715=CARTESIAN_POINT('',(0.0454124582732847,-0.45,0.15));
#716=CARTESIAN_POINT('',(2.5,6.7762635780344E-18,0.15));
#717=CARTESIAN_POINT('',(0.106029098912625,-0.704558957608875,0.15));
#718=CARTESIAN_POINT('',(2.38362068965517,0.271551724137931,9.81389897508431E-17));
#719=CARTESIAN_POINT('',(0.106029098912626,-0.704558957608875,-0.15));
#720=CARTESIAN_POINT('',(2.5,-3.55639518550118E-34,-0.15));
#721=CARTESIAN_POINT('',(0.0454124582732847,-0.45,-0.15));
#722=CARTESIAN_POINT('',(0.0454124582732847,-0.45,-0.15));
#723=CARTESIAN_POINT('',(0.0166702059559278,-0.293221390090334,-0.15));
#724=CARTESIAN_POINT('',(0.0166671307777855,-0.15,-0.293204616103764));
#725=CARTESIAN_POINT('',(0.0454124582732844,-0.15,-0.45));
#726=CARTESIAN_POINT('',(0.0454124582732847,-0.15,-0.45));
#727=CARTESIAN_POINT('',(2.5,-0.15,0.));
#728=CARTESIAN_POINT('',(0.106029098912625,-0.15,-0.704558957608875));
#729=CARTESIAN_POINT('',(2.38362068965517,7.12594214508711E-18,0.271551724137931));
#730=CARTESIAN_POINT('',(0.106029098912626,0.15,-0.704558957608875));
#731=CARTESIAN_POINT('',(2.5,0.15,-9.48676900924818E-17));
#732=CARTESIAN_POINT('',(0.0454124582732847,0.15,-0.45));
#733=CARTESIAN_POINT('',(0.0454124582732847,0.15,-0.45));
#734=CARTESIAN_POINT('',(0.0166702059559278,0.15,-0.293221390090333));
#735=CARTESIAN_POINT('',(0.0166671307777856,0.293204616103764,-0.15));
#736=CARTESIAN_POINT('',(0.0454124582732845,0.45,-0.15));
#737=CARTESIAN_POINT('',(0.0454124582732847,0.45,-0.15));
#738=CARTESIAN_POINT('',(2.5,0.,-0.15));
#739=CARTESIAN_POINT('',(0.106029098912626,0.704558957608875,-0.15));
#740=CARTESIAN_POINT('',(2.38362068965517,-0.271551724137931,9.81389897508429E-17));
#741=CARTESIAN_POINT('',(0.106029098912626,0.704558957608874,0.15));
#742=CARTESIAN_POINT('',(2.5,-3.55639518550118E-34,0.15));
#743=CARTESIAN_POINT('',(0.0454124582732847,0.45,0.15));
#744=CARTESIAN_POINT('',(0.0454124582732847,0.45,0.15));
#745=CARTESIAN_POINT('',(0.0166702059559278,0.293221390090334,0.15));
#746=CARTESIAN_POINT('',(0.0166671307777855,0.15,0.293204616103764));
#747=CARTESIAN_POINT('',(0.0454124582732844,0.15,0.45));
#748=CARTESIAN_POINT('',(0.0454124582732847,0.15,0.45));
#749=CARTESIAN_POINT('',(2.5,0.15,9.48676900924818E-17));
#750=CARTESIAN_POINT('',(0.106029098912625,0.15,0.704558957608875));
#751=CARTESIAN_POINT('',(2.38362068965517,7.12594214508711E-18,-0.271551724137931));
#752=CARTESIAN_POINT('',(0.255005567935635,0.,0.));
#753=CARTESIAN_POINT('',(0.255005567935635,0.,1.1));
#754=CARTESIAN_POINT('',(1.85500556793564,0.,0.));
#755=CARTESIAN_POINT('',(0.455005567935635,0.,0.));
#756=CARTESIAN_POINT('',(0.455005567935635,0.,1.1));
#757=CARTESIAN_POINT('',(0.455005567935635,0.,0.));
#758=CARTESIAN_POINT('',(0.92571624605429,0.,0.));
#759=CARTESIAN_POINT('',(0.92571624605429,0.,0.629289321881345));
#760=CARTESIAN_POINT('',(0.996426924172944,0.,0.));
#761=CARTESIAN_POINT('',(0.271551724137931,-1.66271983385366E-17,0.633620689655172));
#762=CARTESIAN_POINT('',(9.18454765366782E-18,0.15,0.75));
#763=CARTESIAN_POINT('',(0.7,0.15,0.45));
#764=CARTESIAN_POINT('',(0.7,-0.15,0.45));
#765=CARTESIAN_POINT('',(0.7,-0.15,0.45));
#766=CARTESIAN_POINT('',(-9.18454765366784E-18,-0.15,0.75));
#767=CARTESIAN_POINT('',(3.67341984631965E-33,0.15,9.48676900924818E-17));
#768=CARTESIAN_POINT('',(1.74246777720885E-17,0.15,0.45));
#769=CARTESIAN_POINT('',(5.80822592402949E-18,-3.55639518550118E-34,0.15));
#770=CARTESIAN_POINT('',(4.59227382683391E-17,0.75,0.15));
#771=CARTESIAN_POINT('',(0.7,0.45,0.15));
#772=CARTESIAN_POINT('',(5.80822592402949E-18,0.45,0.15));
#773=CARTESIAN_POINT('',(0.271551724137931,0.633620689655173,-2.28990976085301E-16));
#774=CARTESIAN_POINT('',(4.59227382683391E-17,0.75,-0.15));
#775=CARTESIAN_POINT('',(0.7,0.45,-0.15));
#776=CARTESIAN_POINT('',(0.7,0.45,0.15));
#777=CARTESIAN_POINT('',(0.,0.,-0.15));
#778=CARTESIAN_POINT('',(0.,0.45,-0.15));
#779=CARTESIAN_POINT('',(0.,0.15,-9.48676900924818E-17));
#780=CARTESIAN_POINT('',(9.18454765366782E-18,0.15,-0.75));
#781=CARTESIAN_POINT('',(0.7,0.15,-0.45));
#782=CARTESIAN_POINT('',(0.,0.15,-0.45));
#783=CARTESIAN_POINT('',(0.271551724137931,-1.66271983385366E-17,-0.633620689655172));
#784=CARTESIAN_POINT('',(-9.18454765366784E-18,-0.15,-0.75));
#785=CARTESIAN_POINT('',(0.7,-0.15,-0.45));
#786=CARTESIAN_POINT('',(0.7,0.15,-0.45));
#787=CARTESIAN_POINT('',(0.,-0.15,0.));
#788=CARTESIAN_POINT('',(1.74246777720885E-17,-0.15,-0.45));
#789=CARTESIAN_POINT('',(5.80822592402949E-18,-3.55639518550118E-34,-0.15));
#790=CARTESIAN_POINT('',(-4.59227382683392E-17,-0.75,-0.15));
#791=CARTESIAN_POINT('',(0.7,-0.45,-0.15));
#792=CARTESIAN_POINT('',(5.80822592402949E-18,-0.45,-0.15));
#793=CARTESIAN_POINT('',(0.271551724137931,-0.633620689655173,-2.28990976085301E-16));
#794=CARTESIAN_POINT('',(-4.59227382683392E-17,-0.75,0.15));
#795=CARTESIAN_POINT('',(0.7,-0.45,0.15));
#796=CARTESIAN_POINT('',(0.7,-0.45,-0.15));
#797=CARTESIAN_POINT('',(0.,6.7762635780344E-18,0.15));
#798=CARTESIAN_POINT('',(0.,-0.45,0.15));
#799=CARTESIAN_POINT('',(0.,-0.15,0.));
#800=CARTESIAN_POINT('',(0.,-0.15,0.45));
#801=CARTESIAN_POINT('',(0.7,0.375,-0.075));
#802=CARTESIAN_POINT('',(0.7,0.45,-0.45));
#803=CARTESIAN_POINT('',(0.7,-0.45,-0.45));
#804=CARTESIAN_POINT('',(0.7,-0.45,0.45));
#805=CARTESIAN_POINT('',(0.7,0.45,0.45));
#806=CARTESIAN_POINT('',(1.74246777720885E-17,0.45,0.45));
#807=CARTESIAN_POINT('',(1.74246777720885E-17,-0.45,-0.45));
#808=CARTESIAN_POINT('',(0.,0.45,-0.45));
#809=CARTESIAN_POINT('',(0.,-0.45,0.45));
#810=MECHANICAL_DESIGN_GEOMETRIC_PRESENTATION_REPRESENTATION('',(#338,#339,
#340,#341,#342,#343,#344,#345,#346,#347,#348,#349,#350,#351,#352,#353,#354,
#355,#356,#357,#358,#359,#360,#361),#811);
#811=(
GEOMETRIC_REPRESENTATION_CONTEXT(3)
GLOBAL_UNCERTAINTY_ASSIGNED_CONTEXT((#812))
GLOBAL_UNIT_ASSIGNED_CONTEXT((#815,#814,#813))
REPRESENTATION_CONTEXT('C\X2\578B\X0\-\X2\53415B5769FD534A6C89593487BA9489\X0\',
'TOP_LEVEL_ASSEMBLY_PART')
);
#812=UNCERTAINTY_MEASURE_WITH_UNIT(LENGTH_MEASURE(0.005),#815,
'DISTANCE_ACCURACY_VALUE','Maximum Tolerance applied to model');
#813=(
NAMED_UNIT(*)
SI_UNIT($,.STERADIAN.)
SOLID_ANGLE_UNIT()
);
#814=(
NAMED_UNIT(*)
PLANE_ANGLE_UNIT()
SI_UNIT($,.RADIAN.)
);
#815=(
LENGTH_UNIT()
NAMED_UNIT(*)
SI_UNIT(.MILLI.,.METRE.)
);
#816=PRODUCT_DEFINITION_SHAPE('','',#817);
#817=PRODUCT_DEFINITION('','',#819,#818);
#818=PRODUCT_DEFINITION_CONTEXT('',#825,'design');
#819=PRODUCT_DEFINITION_FORMATION_WITH_SPECIFIED_SOURCE('','',#821,
 .NOT_KNOWN.);
#820=PRODUCT_RELATED_PRODUCT_CATEGORY('','',(#821));
#821=PRODUCT('C\X2\578B\X0\-\X2\53415B5769FD534A6C89593487BA9489\X0\',
'C\X2\578B\X0\-\X2\53415B5769FD534A6C89593487BA9489\X0\',
'C\X2\578B\X0\-\X2\53415B5769FD534A6C89593487BA9489\X0\',(#823));
#822=PRODUCT_CATEGORY('','');
#823=PRODUCT_CONTEXT('',#825,'mechanical');
#824=APPLICATION_PROTOCOL_DEFINITION('international standard',
'automotive_design',2010,#825);
#825=APPLICATION_CONTEXT(
'core data for automotive mechanical design processes');
ENDSEC;
END-ISO-10303-21;
