ISO-10303-21;
HEADER;
/* Generated by software containing HOOPS Exchange Step
 * from HOOPS Exchange, Inc. (www.tiangong.cloud) 
 */

FILE_DESCRIPTION(
/* description */ ('Unknown'),
/* implementation_level */ '2;1');

FILE_NAME(
/* name */ '\X2\5F0069FD5E737AEF7D275B9A87BA9489\X0\',
/* time_stamp */ '2025-10-10T16:09:27+08:00',
/* author */ ('Unknown'),
/* organization */ ('Unknown'),
/* preprocessor_version */ 'ST-DEVELOPER v19.4',
/* originating_system */ 'TianGong',
/* authorisation */ 'Unknown');

FILE_SCHEMA (('AUTOMOTIVE_DESIGN {1 0 10303 214 3 1 1}'));
ENDSEC;

DATA;
#10=PROPERTY_DEFINITION_REPRESENTATION(#14,#12);
#11=PROPERTY_DEFINITION_REPRESENTATION(#15,#13);
#12=REPRESENTATION('',(#16),#365);
#13=REPRESENTATION('',(#17),#365);
#14=PROPERTY_DEFINITION('pmi validation property','',#370);
#15=PROPERTY_DEFINITION('pmi validation property','',#370);
#16=VALUE_REPRESENTATION_ITEM('number of annotations',COUNT_MEASURE(0.));
#17=VALUE_REPRESENTATION_ITEM('number of views',COUNT_MEASURE(0.));
#18=SHAPE_REPRESENTATION_RELATIONSHIP('','',#241,#19);
#19=ADVANCED_BREP_SHAPE_REPRESENTATION('',(#239),#365);
#20=B_SPLINE_CURVE_WITH_KNOTS('',3,(#338,#339,#340,#341),.UNSPECIFIED.,
 .F.,.F.,(4,4),(9.96366994135645E-7,7.22146839964749E-5),.UNSPECIFIED.);
#21=B_SPLINE_CURVE_WITH_KNOTS('',3,(#342,#343,#344,#345),.UNSPECIFIED.,
 .F.,.F.,(4,4),(0.00148507161383259,0.00155560465348073),.UNSPECIFIED.);
#22=B_SPLINE_CURVE_WITH_KNOTS('',3,(#347,#348,#349,#350),.UNSPECIFIED.,
 .F.,.F.,(4,4),(9.96366994135528E-7,7.22146839964748E-5),.UNSPECIFIED.);
#23=B_SPLINE_CURVE_WITH_KNOTS('',3,(#351,#352,#353,#354),.UNSPECIFIED.,
 .F.,.F.,(4,4),(0.00148507161383259,0.00155560465348074),.UNSPECIFIED.);
#24=CONICAL_SURFACE('',#253,0.55,0.785398163397449);
#25=CONICAL_SURFACE('',#254,0.55,0.785398163397449);
#26=CONICAL_SURFACE('',#255,0.6,0.785398163397447);
#27=CYLINDRICAL_SURFACE('',#247,0.6);
#28=LINE('',#312,#36);
#29=LINE('',#317,#37);
#30=LINE('',#324,#38);
#31=LINE('',#328,#39);
#32=LINE('',#332,#40);
#33=LINE('',#336,#41);
#34=LINE('',#360,#42);
#35=LINE('',#362,#43);
#36=VECTOR('',#267,1000.);
#37=VECTOR('',#272,1000.);
#38=VECTOR('',#279,1000.);
#39=VECTOR('',#282,1000.);
#40=VECTOR('',#285,1000.);
#41=VECTOR('',#288,1000.);
#42=VECTOR('',#301,1000.);
#43=VECTOR('',#304,1000.);
#44=ORIENTED_EDGE('',*,*,#84,.T.);
#45=ORIENTED_EDGE('',*,*,#85,.T.);
#46=ORIENTED_EDGE('',*,*,#86,.T.);
#47=ORIENTED_EDGE('',*,*,#87,.T.);
#48=ORIENTED_EDGE('',*,*,#88,.T.);
#49=ORIENTED_EDGE('',*,*,#89,.F.);
#50=ORIENTED_EDGE('',*,*,#90,.T.);
#51=ORIENTED_EDGE('',*,*,#91,.T.);
#52=ORIENTED_EDGE('',*,*,#92,.T.);
#53=ORIENTED_EDGE('',*,*,#93,.F.);
#54=ORIENTED_EDGE('',*,*,#94,.T.);
#55=ORIENTED_EDGE('',*,*,#95,.T.);
#56=ORIENTED_EDGE('',*,*,#96,.T.);
#57=ORIENTED_EDGE('',*,*,#91,.F.);
#58=ORIENTED_EDGE('',*,*,#97,.T.);
#59=ORIENTED_EDGE('',*,*,#86,.F.);
#60=ORIENTED_EDGE('',*,*,#98,.T.);
#61=ORIENTED_EDGE('',*,*,#95,.F.);
#62=ORIENTED_EDGE('',*,*,#99,.T.);
#63=ORIENTED_EDGE('',*,*,#84,.F.);
#64=ORIENTED_EDGE('',*,*,#100,.T.);
#65=ORIENTED_EDGE('',*,*,#101,.T.);
#66=ORIENTED_EDGE('',*,*,#88,.F.);
#67=ORIENTED_EDGE('',*,*,#101,.F.);
#68=ORIENTED_EDGE('',*,*,#102,.T.);
#69=ORIENTED_EDGE('',*,*,#92,.F.);
#70=ORIENTED_EDGE('',*,*,#98,.F.);
#71=ORIENTED_EDGE('',*,*,#87,.F.);
#72=ORIENTED_EDGE('',*,*,#97,.F.);
#73=ORIENTED_EDGE('',*,*,#90,.F.);
#74=ORIENTED_EDGE('',*,*,#103,.T.);
#75=ORIENTED_EDGE('',*,*,#96,.F.);
#76=ORIENTED_EDGE('',*,*,#100,.F.);
#77=ORIENTED_EDGE('',*,*,#85,.F.);
#78=ORIENTED_EDGE('',*,*,#99,.F.);
#79=ORIENTED_EDGE('',*,*,#94,.F.);
#80=ORIENTED_EDGE('',*,*,#102,.F.);
#81=ORIENTED_EDGE('',*,*,#89,.T.);
#82=ORIENTED_EDGE('',*,*,#103,.F.);
#83=ORIENTED_EDGE('',*,*,#93,.T.);
#84=EDGE_CURVE('',#104,#105,#118,.T.);
#85=EDGE_CURVE('',#105,#104,#28,.T.);
#86=EDGE_CURVE('',#106,#107,#119,.T.);
#87=EDGE_CURVE('',#107,#106,#29,.T.);
#88=EDGE_CURVE('',#108,#108,#120,.T.);
#89=EDGE_CURVE('',#109,#110,#121,.F.);
#90=EDGE_CURVE('',#109,#111,#30,.T.);
#91=EDGE_CURVE('',#111,#112,#122,.F.);
#92=EDGE_CURVE('',#112,#113,#31,.F.);
#93=EDGE_CURVE('',#114,#113,#123,.F.);
#94=EDGE_CURVE('',#114,#115,#32,.T.);
#95=EDGE_CURVE('',#115,#116,#124,.F.);
#96=EDGE_CURVE('',#116,#110,#33,.F.);
#97=EDGE_CURVE('',#111,#107,#20,.T.);
#98=EDGE_CURVE('',#106,#112,#21,.T.);
#99=EDGE_CURVE('',#115,#105,#22,.T.);
#100=EDGE_CURVE('',#104,#116,#23,.T.);
#101=EDGE_CURVE('',#117,#117,#125,.T.);
#102=EDGE_CURVE('',#109,#113,#34,.T.);
#103=EDGE_CURVE('',#114,#110,#35,.T.);
#104=VERTEX_POINT('',#310);
#105=VERTEX_POINT('',#311);
#106=VERTEX_POINT('',#315);
#107=VERTEX_POINT('',#316);
#108=VERTEX_POINT('',#320);
#109=VERTEX_POINT('',#322);
#110=VERTEX_POINT('',#323);
#111=VERTEX_POINT('',#325);
#112=VERTEX_POINT('',#327);
#113=VERTEX_POINT('',#329);
#114=VERTEX_POINT('',#331);
#115=VERTEX_POINT('',#333);
#116=VERTEX_POINT('',#335);
#117=VERTEX_POINT('',#357);
#118=CIRCLE('',#244,0.55);
#119=CIRCLE('',#246,0.55);
#120=CIRCLE('',#248,0.6);
#121=CIRCLE('',#249,0.6);
#122=CIRCLE('',#250,0.6);
#123=CIRCLE('',#251,0.6);
#124=CIRCLE('',#252,0.6);
#125=CIRCLE('',#256,0.175);
#126=EDGE_LOOP('',(#44,#45));
#127=EDGE_LOOP('',(#46,#47));
#128=EDGE_LOOP('',(#48));
#129=EDGE_LOOP('',(#49,#50,#51,#52,#53,#54,#55,#56));
#130=EDGE_LOOP('',(#57,#58,#59,#60));
#131=EDGE_LOOP('',(#61,#62,#63,#64));
#132=EDGE_LOOP('',(#65));
#133=EDGE_LOOP('',(#66));
#134=EDGE_LOOP('',(#67));
#135=EDGE_LOOP('',(#68,#69,#70,#71,#72,#73));
#136=EDGE_LOOP('',(#74,#75,#76,#77,#78,#79));
#137=EDGE_LOOP('',(#80,#81,#82,#83));
#138=FACE_BOUND('',#126,.T.);
#139=FACE_BOUND('',#127,.T.);
#140=FACE_BOUND('',#128,.T.);
#141=FACE_BOUND('',#129,.T.);
#142=FACE_BOUND('',#130,.T.);
#143=FACE_BOUND('',#131,.T.);
#144=FACE_BOUND('',#132,.T.);
#145=FACE_BOUND('',#133,.T.);
#146=FACE_BOUND('',#134,.T.);
#147=FACE_BOUND('',#135,.T.);
#148=FACE_BOUND('',#136,.T.);
#149=FACE_BOUND('',#137,.T.);
#150=PLANE('',#243);
#151=PLANE('',#245);
#152=PLANE('',#257);
#153=PLANE('',#258);
#154=PLANE('',#259);
#155=PLANE('',#260);
#156=STYLED_ITEM('',(#166),#228);
#157=STYLED_ITEM('',(#167),#229);
#158=STYLED_ITEM('',(#168),#230);
#159=STYLED_ITEM('',(#169),#231);
#160=STYLED_ITEM('',(#170),#232);
#161=STYLED_ITEM('',(#171),#233);
#162=STYLED_ITEM('',(#172),#234);
#163=STYLED_ITEM('',(#173),#235);
#164=STYLED_ITEM('',(#174),#236);
#165=STYLED_ITEM('',(#175),#237);
#166=PRESENTATION_STYLE_ASSIGNMENT((#176));
#167=PRESENTATION_STYLE_ASSIGNMENT((#177));
#168=PRESENTATION_STYLE_ASSIGNMENT((#178));
#169=PRESENTATION_STYLE_ASSIGNMENT((#179));
#170=PRESENTATION_STYLE_ASSIGNMENT((#180));
#171=PRESENTATION_STYLE_ASSIGNMENT((#181));
#172=PRESENTATION_STYLE_ASSIGNMENT((#182));
#173=PRESENTATION_STYLE_ASSIGNMENT((#183));
#174=PRESENTATION_STYLE_ASSIGNMENT((#184));
#175=PRESENTATION_STYLE_ASSIGNMENT((#185));
#176=SURFACE_STYLE_USAGE(.BOTH.,#186);
#177=SURFACE_STYLE_USAGE(.BOTH.,#187);
#178=SURFACE_STYLE_USAGE(.BOTH.,#188);
#179=SURFACE_STYLE_USAGE(.BOTH.,#189);
#180=SURFACE_STYLE_USAGE(.BOTH.,#190);
#181=SURFACE_STYLE_USAGE(.BOTH.,#191);
#182=SURFACE_STYLE_USAGE(.BOTH.,#192);
#183=SURFACE_STYLE_USAGE(.BOTH.,#193);
#184=SURFACE_STYLE_USAGE(.BOTH.,#194);
#185=SURFACE_STYLE_USAGE(.BOTH.,#195);
#186=SURFACE_SIDE_STYLE('',(#196));
#187=SURFACE_SIDE_STYLE('',(#197));
#188=SURFACE_SIDE_STYLE('',(#198));
#189=SURFACE_SIDE_STYLE('',(#199));
#190=SURFACE_SIDE_STYLE('',(#200));
#191=SURFACE_SIDE_STYLE('',(#201));
#192=SURFACE_SIDE_STYLE('',(#202));
#193=SURFACE_SIDE_STYLE('',(#203));
#194=SURFACE_SIDE_STYLE('',(#204));
#195=SURFACE_SIDE_STYLE('',(#205));
#196=SURFACE_STYLE_FILL_AREA(#206);
#197=SURFACE_STYLE_FILL_AREA(#207);
#198=SURFACE_STYLE_FILL_AREA(#208);
#199=SURFACE_STYLE_FILL_AREA(#209);
#200=SURFACE_STYLE_FILL_AREA(#210);
#201=SURFACE_STYLE_FILL_AREA(#211);
#202=SURFACE_STYLE_FILL_AREA(#212);
#203=SURFACE_STYLE_FILL_AREA(#213);
#204=SURFACE_STYLE_FILL_AREA(#214);
#205=SURFACE_STYLE_FILL_AREA(#215);
#206=FILL_AREA_STYLE('',(#216));
#207=FILL_AREA_STYLE('',(#217));
#208=FILL_AREA_STYLE('',(#218));
#209=FILL_AREA_STYLE('',(#219));
#210=FILL_AREA_STYLE('',(#220));
#211=FILL_AREA_STYLE('',(#221));
#212=FILL_AREA_STYLE('',(#222));
#213=FILL_AREA_STYLE('',(#223));
#214=FILL_AREA_STYLE('',(#224));
#215=FILL_AREA_STYLE('',(#225));
#216=FILL_AREA_STYLE_COLOUR('',#226);
#217=FILL_AREA_STYLE_COLOUR('',#226);
#218=FILL_AREA_STYLE_COLOUR('',#227);
#219=FILL_AREA_STYLE_COLOUR('',#226);
#220=FILL_AREA_STYLE_COLOUR('',#226);
#221=FILL_AREA_STYLE_COLOUR('',#226);
#222=FILL_AREA_STYLE_COLOUR('',#226);
#223=FILL_AREA_STYLE_COLOUR('',#226);
#224=FILL_AREA_STYLE_COLOUR('',#226);
#225=FILL_AREA_STYLE_COLOUR('',#226);
#226=COLOUR_RGB('',0.506983280181885,0.531564235687256,0.550000011920929);
#227=COLOUR_RGB('',0.1875,0.75,0.581249892711639);
#228=ADVANCED_FACE('',(#138),#150,.T.);
#229=ADVANCED_FACE('',(#139),#151,.T.);
#230=ADVANCED_FACE('',(#140,#141),#27,.T.);
#231=ADVANCED_FACE('',(#142),#24,.T.);
#232=ADVANCED_FACE('',(#143),#25,.T.);
#233=ADVANCED_FACE('',(#144,#145),#26,.T.);
#234=ADVANCED_FACE('',(#146),#152,.T.);
#235=ADVANCED_FACE('',(#147),#153,.T.);
#236=ADVANCED_FACE('',(#148),#154,.T.);
#237=ADVANCED_FACE('',(#149),#155,.F.);
#238=CLOSED_SHELL('',(#228,#229,#230,#231,#232,#233,#234,#235,#236,#237));
#239=MANIFOLD_SOLID_BREP('',#238);
#240=SHAPE_DEFINITION_REPRESENTATION(#370,#241);
#241=SHAPE_REPRESENTATION('\X2\5F0069FD5E737AEF7D275B9A87BA9489\X0\',(#242),
#365);
#242=AXIS2_PLACEMENT_3D('',#307,#261,#262);
#243=AXIS2_PLACEMENT_3D('',#308,#263,#264);
#244=AXIS2_PLACEMENT_3D('',#309,#265,#266);
#245=AXIS2_PLACEMENT_3D('',#313,#268,#269);
#246=AXIS2_PLACEMENT_3D('',#314,#270,#271);
#247=AXIS2_PLACEMENT_3D('',#318,#273,#274);
#248=AXIS2_PLACEMENT_3D('',#319,#275,#276);
#249=AXIS2_PLACEMENT_3D('',#321,#277,#278);
#250=AXIS2_PLACEMENT_3D('',#326,#280,#281);
#251=AXIS2_PLACEMENT_3D('',#330,#283,#284);
#252=AXIS2_PLACEMENT_3D('',#334,#286,#287);
#253=AXIS2_PLACEMENT_3D('',#337,#289,#290);
#254=AXIS2_PLACEMENT_3D('',#346,#291,#292);
#255=AXIS2_PLACEMENT_3D('',#355,#293,#294);
#256=AXIS2_PLACEMENT_3D('',#356,#295,#296);
#257=AXIS2_PLACEMENT_3D('',#358,#297,#298);
#258=AXIS2_PLACEMENT_3D('',#359,#299,#300);
#259=AXIS2_PLACEMENT_3D('',#361,#302,#303);
#260=AXIS2_PLACEMENT_3D('',#363,#305,#306);
#261=DIRECTION('',(0.,0.,1.));
#262=DIRECTION('',(1.,0.,0.));
#263=DIRECTION('',(-1.,0.,0.));
#264=DIRECTION('',(0.,0.,1.));
#265=DIRECTION('',(-1.,0.,0.));
#266=DIRECTION('',(0.,0.,1.));
#267=DIRECTION('',(-6.12303176911189E-17,-1.,1.24231498930631E-16));
#268=DIRECTION('',(-1.,0.,0.));
#269=DIRECTION('',(0.,0.,1.));
#270=DIRECTION('',(-1.,0.,0.));
#271=DIRECTION('',(0.,0.,1.));
#272=DIRECTION('',(6.12303176911189E-17,1.,1.24231498930631E-16));
#273=DIRECTION('',(-1.,0.,0.));
#274=DIRECTION('',(0.,0.,1.));
#275=DIRECTION('',(-1.,0.,0.));
#276=DIRECTION('',(0.,0.,1.));
#277=DIRECTION('',(1.,-6.12303176911189E-17,0.));
#278=DIRECTION('',(6.12303176911189E-17,1.,0.));
#279=DIRECTION('',(-1.,0.,0.));
#280=DIRECTION('',(-1.,0.,0.));
#281=DIRECTION('',(0.,0.,1.));
#282=DIRECTION('',(-1.,0.,0.));
#283=DIRECTION('',(1.,-6.12303176911189E-17,0.));
#284=DIRECTION('',(6.12303176911189E-17,1.,0.));
#285=DIRECTION('',(-1.,0.,0.));
#286=DIRECTION('',(-1.,0.,0.));
#287=DIRECTION('',(0.,0.,1.));
#288=DIRECTION('',(-1.,0.,0.));
#289=DIRECTION('',(1.,0.,0.));
#290=DIRECTION('',(0.,0.,-1.));
#291=DIRECTION('',(1.,0.,0.));
#292=DIRECTION('',(0.,0.,-1.));
#293=DIRECTION('',(-1.,0.,0.));
#294=DIRECTION('',(0.,0.,1.));
#295=DIRECTION('',(-1.,0.,0.));
#296=DIRECTION('',(0.,0.,1.));
#297=DIRECTION('',(1.,0.,0.));
#298=DIRECTION('',(0.,0.,-1.));
#299=DIRECTION('',(0.,-1.24231498930631E-16,1.));
#300=DIRECTION('',(0.,-1.,-1.24231498930631E-16));
#301=DIRECTION('',(6.12303176911189E-17,1.,1.24231498930631E-16));
#302=DIRECTION('',(0.,-1.24231498930631E-16,-1.));
#303=DIRECTION('',(0.,1.,-1.24231498930631E-16));
#304=DIRECTION('',(-6.12303176911189E-17,-1.,1.24231498930631E-16));
#305=DIRECTION('',(1.,-6.12303176911189E-17,0.));
#306=DIRECTION('',(6.12303176911189E-17,1.,0.));
#307=CARTESIAN_POINT('',(0.,0.,0.));
#308=CARTESIAN_POINT('',(0.,0.,0.));
#309=CARTESIAN_POINT('',(0.,0.,0.));
#310=CARTESIAN_POINT('',(-3.31153575072419E-17,-0.540832691319599,0.0999999999999965));
#311=CARTESIAN_POINT('',(3.31153575072419E-17,0.540832691319599,0.0999999999999964));
#312=CARTESIAN_POINT('',(3.67381906146713E-17,0.6,0.0999999999999964));
#313=CARTESIAN_POINT('',(0.,0.,0.));
#314=CARTESIAN_POINT('',(0.,0.,0.));
#315=CARTESIAN_POINT('',(3.31153575072418E-17,0.540832691319598,-0.0999999999999999));
#316=CARTESIAN_POINT('',(-3.31153575072418E-17,-0.540832691319598,-0.1));
#317=CARTESIAN_POINT('',(-3.67381906146713E-17,-0.6,-0.1));
#318=CARTESIAN_POINT('',(2.,0.,0.));
#319=CARTESIAN_POINT('',(2.575,0.,0.));
#320=CARTESIAN_POINT('',(2.575,0.,0.6));
#321=CARTESIAN_POINT('',(0.4,0.,0.));
#322=CARTESIAN_POINT('',(0.4,-0.591607978309961,-0.1));
#323=CARTESIAN_POINT('',(0.4,-0.591607978309962,0.0999999999999965));
#324=CARTESIAN_POINT('',(2.,-0.591607978309961,-0.1));
#325=CARTESIAN_POINT('',(0.0499999999999999,-0.591607978309961,-0.1));
#326=CARTESIAN_POINT('',(0.0499999999999999,0.,0.));
#327=CARTESIAN_POINT('',(0.0499999999999999,0.591607978309961,-0.0999999999999999));
#328=CARTESIAN_POINT('',(2.,0.591607978309961,-0.0999999999999999));
#329=CARTESIAN_POINT('',(0.4,0.591607978309961,-0.0999999999999999));
#330=CARTESIAN_POINT('',(0.4,0.,0.));
#331=CARTESIAN_POINT('',(0.4,0.591607978309962,0.0999999999999964));
#332=CARTESIAN_POINT('',(2.,0.591607978309962,0.0999999999999964));
#333=CARTESIAN_POINT('',(0.0499999999999998,0.591607978309962,0.0999999999999964));
#334=CARTESIAN_POINT('',(0.0499999999999999,0.,0.));
#335=CARTESIAN_POINT('',(0.0499999999999999,-0.591607978309962,0.0999999999999966));
#336=CARTESIAN_POINT('',(2.,-0.591607978309962,0.0999999999999965));
#337=CARTESIAN_POINT('',(0.,0.,0.));
#338=CARTESIAN_POINT('',(0.0499999999999903,-0.59160797830997,-0.1));
#339=CARTESIAN_POINT('',(0.0333219463738228,-0.574693344730675,-0.1));
#340=CARTESIAN_POINT('',(0.0166542284529463,-0.557769214936118,-0.1));
#341=CARTESIAN_POINT('',(-5.76179752140297E-17,-0.540832691319598,-0.1));
#342=CARTESIAN_POINT('',(-1.16182560252394E-17,0.540832691319598,-0.0999999999999999));
#343=CARTESIAN_POINT('',(0.0166546125336348,0.557769605527113,-0.0999999999999999));
#344=CARTESIAN_POINT('',(0.0333222984802136,0.574693701831714,-0.0999999999999999));
#345=CARTESIAN_POINT('',(0.0499999999999994,0.591607978309961,-0.0999999999999999));
#346=CARTESIAN_POINT('',(0.,0.,0.));
#347=CARTESIAN_POINT('',(0.0499999999999903,0.591607978309971,0.0999999999999964));
#348=CARTESIAN_POINT('',(0.0333219463738229,0.574693344730676,0.0999999999999964));
#349=CARTESIAN_POINT('',(0.0166542284529463,0.557769214936119,0.0999999999999964));
#350=CARTESIAN_POINT('',(-7.12583640568913E-17,0.540832691319599,0.0999999999999964));
#351=CARTESIAN_POINT('',(-1.24783010185552E-17,-0.540832691319599,0.0999999999999965));
#352=CARTESIAN_POINT('',(0.0166546125336348,-0.557769605527113,0.0999999999999965));
#353=CARTESIAN_POINT('',(0.0333222984802136,-0.574693701831714,0.0999999999999965));
#354=CARTESIAN_POINT('',(0.0499999999999994,-0.591607978309962,0.0999999999999965));
#355=CARTESIAN_POINT('',(2.575,0.,0.));
#356=CARTESIAN_POINT('',(3.,0.,0.));
#357=CARTESIAN_POINT('',(3.,0.,0.175));
#358=CARTESIAN_POINT('',(3.,0.,0.175));
#359=CARTESIAN_POINT('',(0.4,-0.6,-0.1));
#360=CARTESIAN_POINT('',(0.4,-0.6,-0.1));
#361=CARTESIAN_POINT('',(0.4,0.6,0.0999999999999964));
#362=CARTESIAN_POINT('',(0.4,0.6,0.0999999999999964));
#363=CARTESIAN_POINT('',(0.4,0.,0.));
#364=MECHANICAL_DESIGN_GEOMETRIC_PRESENTATION_REPRESENTATION('',(#156,#157,
#158,#159,#160,#161,#162,#163,#164,#165),#365);
#365=(
GEOMETRIC_REPRESENTATION_CONTEXT(3)
GLOBAL_UNCERTAINTY_ASSIGNED_CONTEXT((#366))
GLOBAL_UNIT_ASSIGNED_CONTEXT((#369,#368,#367))
REPRESENTATION_CONTEXT('\X2\5F0069FD5E737AEF7D275B9A87BA9489\X0\',
'TOP_LEVEL_ASSEMBLY_PART')
);
#366=UNCERTAINTY_MEASURE_WITH_UNIT(LENGTH_MEASURE(0.005),#369,
'DISTANCE_ACCURACY_VALUE','Maximum Tolerance applied to model');
#367=(
NAMED_UNIT(*)
SI_UNIT($,.STERADIAN.)
SOLID_ANGLE_UNIT()
);
#368=(
NAMED_UNIT(*)
PLANE_ANGLE_UNIT()
SI_UNIT($,.RADIAN.)
);
#369=(
LENGTH_UNIT()
NAMED_UNIT(*)
SI_UNIT(.MILLI.,.METRE.)
);
#370=PRODUCT_DEFINITION_SHAPE('','',#371);
#371=PRODUCT_DEFINITION('','',#373,#372);
#372=PRODUCT_DEFINITION_CONTEXT('',#379,'design');
#373=PRODUCT_DEFINITION_FORMATION_WITH_SPECIFIED_SOURCE('','',#375,
 .NOT_KNOWN.);
#374=PRODUCT_RELATED_PRODUCT_CATEGORY('','',(#375));
#375=PRODUCT('\X2\5F0069FD5E737AEF7D275B9A87BA9489\X0\',
'\X2\5F0069FD5E737AEF7D275B9A87BA9489\X0\','\X2\5F0069FD5E737AEF7D275B9A87BA9489\X0\',
(#377));
#376=PRODUCT_CATEGORY('','');
#377=PRODUCT_CONTEXT('',#379,'mechanical');
#378=APPLICATION_PROTOCOL_DEFINITION('international standard',
'automotive_design',2010,#379);
#379=APPLICATION_CONTEXT(
'core data for automotive mechanical design processes');
ENDSEC;
END-ISO-10303-21;
