ISO-10303-21;
HEADER;
/* Generated by software containing HOOPS Exchange Step
 * from HOOPS Exchange, Inc. (www.tiangong.cloud) 
 */

FILE_DESCRIPTION(
/* description */ ('Unknown'),
/* implementation_level */ '2;1');

FILE_NAME(
/* name */ '\X2\5F0069FD51F97AEF7D275B9A87BA9489\X0\ GBT74-2018',
/* time_stamp */ '2025-12-25T09:05:41+08:00',
/* author */ ('Unknown'),
/* organization */ ('Unknown'),
/* preprocessor_version */ 'ST-DEVELOPER v19.4',
/* originating_system */ 'TianGong',
/* authorisation */ 'Unknown');

FILE_SCHEMA (('AUTOMOTIVE_DESIGN {1 0 10303 214 3 1 1}'));
ENDSEC;

DATA;
#10=PROPERTY_DEFINITION_REPRESENTATION(#14,#12);
#11=PROPERTY_DEFINITION_REPRESENTATION(#15,#13);
#12=REPRESENTATION('',(#16),#369);
#13=REPRESENTATION('',(#17),#369);
#14=PROPERTY_DEFINITION('pmi validation property','',#374);
#15=PROPERTY_DEFINITION('pmi validation property','',#374);
#16=VALUE_REPRESENTATION_ITEM('number of annotations',COUNT_MEASURE(0.));
#17=VALUE_REPRESENTATION_ITEM('number of views',COUNT_MEASURE(0.));
#18=SHAPE_REPRESENTATION_RELATIONSHIP('','',#244,#19);
#19=ADVANCED_BREP_SHAPE_REPRESENTATION('',(#242),#369);
#20=VERTEX_LOOP('',#119);
#21=B_SPLINE_CURVE_WITH_KNOTS('',3,(#341,#342,#343,#344),.UNSPECIFIED.,
 .F.,.F.,(4,4),(9.95644879963377E-7,0.000183284925694548),.UNSPECIFIED.);
#22=B_SPLINE_CURVE_WITH_KNOTS('',3,(#345,#346,#347,#348),.UNSPECIFIED.,
 .F.,.F.,(4,4),(0.00190976771336566,0.00209109327310674),.UNSPECIFIED.);
#23=B_SPLINE_CURVE_WITH_KNOTS('',3,(#350,#351,#352,#353),.UNSPECIFIED.,
 .F.,.F.,(4,4),(9.95644879963377E-7,0.000183284925694548),.UNSPECIFIED.);
#24=B_SPLINE_CURVE_WITH_KNOTS('',3,(#354,#355,#356,#357),.UNSPECIFIED.,
 .F.,.F.,(4,4),(0.00190976771336566,0.00209109327310674),.UNSPECIFIED.);
#25=CONICAL_SURFACE('',#256,0.672,0.785398163397448);
#26=CONICAL_SURFACE('',#257,0.672,0.785398163397448);
#27=CONICAL_SURFACE('',#258,0.275,1.0471975511966);
#28=CONICAL_SURFACE('',#260,0.8,0.785398163397448);
#29=CYLINDRICAL_SURFACE('',#250,0.8);
#30=LINE('',#315,#38);
#31=LINE('',#320,#39);
#32=LINE('',#327,#40);
#33=LINE('',#331,#41);
#34=LINE('',#335,#42);
#35=LINE('',#339,#43);
#36=LINE('',#364,#44);
#37=LINE('',#366,#45);
#38=VECTOR('',#270,1000.);
#39=VECTOR('',#275,1000.);
#40=VECTOR('',#282,1000.);
#41=VECTOR('',#285,1000.);
#42=VECTOR('',#288,1000.);
#43=VECTOR('',#291,1000.);
#44=VECTOR('',#304,1000.);
#45=VECTOR('',#307,1000.);
#46=ORIENTED_EDGE('',*,*,#86,.T.);
#47=ORIENTED_EDGE('',*,*,#87,.T.);
#48=ORIENTED_EDGE('',*,*,#88,.T.);
#49=ORIENTED_EDGE('',*,*,#89,.T.);
#50=ORIENTED_EDGE('',*,*,#90,.T.);
#51=ORIENTED_EDGE('',*,*,#91,.T.);
#52=ORIENTED_EDGE('',*,*,#92,.T.);
#53=ORIENTED_EDGE('',*,*,#93,.F.);
#54=ORIENTED_EDGE('',*,*,#94,.T.);
#55=ORIENTED_EDGE('',*,*,#95,.T.);
#56=ORIENTED_EDGE('',*,*,#96,.T.);
#57=ORIENTED_EDGE('',*,*,#97,.F.);
#58=ORIENTED_EDGE('',*,*,#98,.T.);
#59=ORIENTED_EDGE('',*,*,#91,.F.);
#60=ORIENTED_EDGE('',*,*,#99,.T.);
#61=ORIENTED_EDGE('',*,*,#86,.F.);
#62=ORIENTED_EDGE('',*,*,#100,.T.);
#63=ORIENTED_EDGE('',*,*,#95,.F.);
#64=ORIENTED_EDGE('',*,*,#101,.T.);
#65=ORIENTED_EDGE('',*,*,#88,.F.);
#66=ORIENTED_EDGE('',*,*,#102,.T.);
#67=ORIENTED_EDGE('',*,*,#103,.F.);
#68=ORIENTED_EDGE('',*,*,#103,.T.);
#69=ORIENTED_EDGE('',*,*,#90,.F.);
#70=ORIENTED_EDGE('',*,*,#104,.T.);
#71=ORIENTED_EDGE('',*,*,#92,.F.);
#72=ORIENTED_EDGE('',*,*,#100,.F.);
#73=ORIENTED_EDGE('',*,*,#87,.F.);
#74=ORIENTED_EDGE('',*,*,#99,.F.);
#75=ORIENTED_EDGE('',*,*,#98,.F.);
#76=ORIENTED_EDGE('',*,*,#105,.T.);
#77=ORIENTED_EDGE('',*,*,#96,.F.);
#78=ORIENTED_EDGE('',*,*,#102,.F.);
#79=ORIENTED_EDGE('',*,*,#89,.F.);
#80=ORIENTED_EDGE('',*,*,#101,.F.);
#81=ORIENTED_EDGE('',*,*,#94,.F.);
#82=ORIENTED_EDGE('',*,*,#105,.F.);
#83=ORIENTED_EDGE('',*,*,#93,.T.);
#84=ORIENTED_EDGE('',*,*,#104,.F.);
#85=ORIENTED_EDGE('',*,*,#97,.T.);
#86=EDGE_CURVE('',#106,#107,#121,.T.);
#87=EDGE_CURVE('',#107,#106,#30,.T.);
#88=EDGE_CURVE('',#108,#109,#122,.T.);
#89=EDGE_CURVE('',#109,#108,#31,.T.);
#90=EDGE_CURVE('',#110,#110,#123,.T.);
#91=EDGE_CURVE('',#111,#112,#124,.F.);
#92=EDGE_CURVE('',#112,#113,#32,.F.);
#93=EDGE_CURVE('',#114,#113,#125,.F.);
#94=EDGE_CURVE('',#114,#115,#33,.T.);
#95=EDGE_CURVE('',#115,#116,#126,.F.);
#96=EDGE_CURVE('',#116,#117,#34,.F.);
#97=EDGE_CURVE('',#118,#117,#127,.F.);
#98=EDGE_CURVE('',#118,#111,#35,.T.);
#99=EDGE_CURVE('',#111,#107,#21,.T.);
#100=EDGE_CURVE('',#106,#112,#22,.T.);
#101=EDGE_CURVE('',#115,#109,#23,.T.);
#102=EDGE_CURVE('',#108,#116,#24,.T.);
#103=EDGE_CURVE('',#120,#120,#128,.T.);
#104=EDGE_CURVE('',#118,#113,#36,.T.);
#105=EDGE_CURVE('',#114,#117,#37,.T.);
#106=VERTEX_POINT('',#313);
#107=VERTEX_POINT('',#314);
#108=VERTEX_POINT('',#318);
#109=VERTEX_POINT('',#319);
#110=VERTEX_POINT('',#323);
#111=VERTEX_POINT('',#325);
#112=VERTEX_POINT('',#326);
#113=VERTEX_POINT('',#328);
#114=VERTEX_POINT('',#330);
#115=VERTEX_POINT('',#332);
#116=VERTEX_POINT('',#334);
#117=VERTEX_POINT('',#336);
#118=VERTEX_POINT('',#338);
#119=VERTEX_POINT('',#359);
#120=VERTEX_POINT('',#361);
#121=CIRCLE('',#247,0.672);
#122=CIRCLE('',#249,0.672);
#123=CIRCLE('',#251,0.8);
#124=CIRCLE('',#252,0.8);
#125=CIRCLE('',#253,0.8);
#126=CIRCLE('',#254,0.8);
#127=CIRCLE('',#255,0.8);
#128=CIRCLE('',#259,0.275);
#129=EDGE_LOOP('',(#46,#47));
#130=EDGE_LOOP('',(#48,#49));
#131=EDGE_LOOP('',(#50));
#132=EDGE_LOOP('',(#51,#52,#53,#54,#55,#56,#57,#58));
#133=EDGE_LOOP('',(#59,#60,#61,#62));
#134=EDGE_LOOP('',(#63,#64,#65,#66));
#135=EDGE_LOOP('',(#67));
#136=EDGE_LOOP('',(#68));
#137=EDGE_LOOP('',(#69));
#138=EDGE_LOOP('',(#70,#71,#72,#73,#74,#75));
#139=EDGE_LOOP('',(#76,#77,#78,#79,#80,#81));
#140=EDGE_LOOP('',(#82,#83,#84,#85));
#141=FACE_BOUND('',#129,.T.);
#142=FACE_BOUND('',#130,.T.);
#143=FACE_BOUND('',#131,.T.);
#144=FACE_BOUND('',#132,.T.);
#145=FACE_BOUND('',#133,.T.);
#146=FACE_BOUND('',#134,.T.);
#147=FACE_BOUND('',#20,.T.);
#148=FACE_BOUND('',#135,.T.);
#149=FACE_BOUND('',#136,.T.);
#150=FACE_BOUND('',#137,.T.);
#151=FACE_BOUND('',#138,.T.);
#152=FACE_BOUND('',#139,.T.);
#153=FACE_BOUND('',#140,.T.);
#154=PLANE('',#246);
#155=PLANE('',#248);
#156=PLANE('',#261);
#157=PLANE('',#262);
#158=PLANE('',#263);
#159=STYLED_ITEM('',(#169),#231);
#160=STYLED_ITEM('',(#170),#232);
#161=STYLED_ITEM('',(#171),#233);
#162=STYLED_ITEM('',(#172),#234);
#163=STYLED_ITEM('',(#173),#235);
#164=STYLED_ITEM('',(#174),#236);
#165=STYLED_ITEM('',(#175),#237);
#166=STYLED_ITEM('',(#176),#238);
#167=STYLED_ITEM('',(#177),#239);
#168=STYLED_ITEM('',(#178),#240);
#169=PRESENTATION_STYLE_ASSIGNMENT((#179));
#170=PRESENTATION_STYLE_ASSIGNMENT((#180));
#171=PRESENTATION_STYLE_ASSIGNMENT((#181));
#172=PRESENTATION_STYLE_ASSIGNMENT((#182));
#173=PRESENTATION_STYLE_ASSIGNMENT((#183));
#174=PRESENTATION_STYLE_ASSIGNMENT((#184));
#175=PRESENTATION_STYLE_ASSIGNMENT((#185));
#176=PRESENTATION_STYLE_ASSIGNMENT((#186));
#177=PRESENTATION_STYLE_ASSIGNMENT((#187));
#178=PRESENTATION_STYLE_ASSIGNMENT((#188));
#179=SURFACE_STYLE_USAGE(.BOTH.,#189);
#180=SURFACE_STYLE_USAGE(.BOTH.,#190);
#181=SURFACE_STYLE_USAGE(.BOTH.,#191);
#182=SURFACE_STYLE_USAGE(.BOTH.,#192);
#183=SURFACE_STYLE_USAGE(.BOTH.,#193);
#184=SURFACE_STYLE_USAGE(.BOTH.,#194);
#185=SURFACE_STYLE_USAGE(.BOTH.,#195);
#186=SURFACE_STYLE_USAGE(.BOTH.,#196);
#187=SURFACE_STYLE_USAGE(.BOTH.,#197);
#188=SURFACE_STYLE_USAGE(.BOTH.,#198);
#189=SURFACE_SIDE_STYLE('',(#199));
#190=SURFACE_SIDE_STYLE('',(#200));
#191=SURFACE_SIDE_STYLE('',(#201));
#192=SURFACE_SIDE_STYLE('',(#202));
#193=SURFACE_SIDE_STYLE('',(#203));
#194=SURFACE_SIDE_STYLE('',(#204));
#195=SURFACE_SIDE_STYLE('',(#205));
#196=SURFACE_SIDE_STYLE('',(#206));
#197=SURFACE_SIDE_STYLE('',(#207));
#198=SURFACE_SIDE_STYLE('',(#208));
#199=SURFACE_STYLE_FILL_AREA(#209);
#200=SURFACE_STYLE_FILL_AREA(#210);
#201=SURFACE_STYLE_FILL_AREA(#211);
#202=SURFACE_STYLE_FILL_AREA(#212);
#203=SURFACE_STYLE_FILL_AREA(#213);
#204=SURFACE_STYLE_FILL_AREA(#214);
#205=SURFACE_STYLE_FILL_AREA(#215);
#206=SURFACE_STYLE_FILL_AREA(#216);
#207=SURFACE_STYLE_FILL_AREA(#217);
#208=SURFACE_STYLE_FILL_AREA(#218);
#209=FILL_AREA_STYLE('',(#219));
#210=FILL_AREA_STYLE('',(#220));
#211=FILL_AREA_STYLE('',(#221));
#212=FILL_AREA_STYLE('',(#222));
#213=FILL_AREA_STYLE('',(#223));
#214=FILL_AREA_STYLE('',(#224));
#215=FILL_AREA_STYLE('',(#225));
#216=FILL_AREA_STYLE('',(#226));
#217=FILL_AREA_STYLE('',(#227));
#218=FILL_AREA_STYLE('',(#228));
#219=FILL_AREA_STYLE_COLOUR('',#229);
#220=FILL_AREA_STYLE_COLOUR('',#229);
#221=FILL_AREA_STYLE_COLOUR('',#230);
#222=FILL_AREA_STYLE_COLOUR('',#229);
#223=FILL_AREA_STYLE_COLOUR('',#229);
#224=FILL_AREA_STYLE_COLOUR('',#229);
#225=FILL_AREA_STYLE_COLOUR('',#229);
#226=FILL_AREA_STYLE_COLOUR('',#229);
#227=FILL_AREA_STYLE_COLOUR('',#229);
#228=FILL_AREA_STYLE_COLOUR('',#229);
#229=COLOUR_RGB('',0.506983280181885,0.531564235687256,0.550000011920929);
#230=COLOUR_RGB('',0.1875,0.75,0.581249892711639);
#231=ADVANCED_FACE('',(#141),#154,.T.);
#232=ADVANCED_FACE('',(#142),#155,.T.);
#233=ADVANCED_FACE('',(#143,#144),#29,.T.);
#234=ADVANCED_FACE('',(#145),#25,.T.);
#235=ADVANCED_FACE('',(#146),#26,.T.);
#236=ADVANCED_FACE('',(#147,#148),#27,.F.);
#237=ADVANCED_FACE('',(#149,#150),#28,.T.);
#238=ADVANCED_FACE('',(#151),#156,.T.);
#239=ADVANCED_FACE('',(#152),#157,.T.);
#240=ADVANCED_FACE('',(#153),#158,.F.);
#241=CLOSED_SHELL('',(#231,#232,#233,#234,#235,#236,#237,#238,#239,#240));
#242=MANIFOLD_SOLID_BREP('',#241);
#243=SHAPE_DEFINITION_REPRESENTATION(#374,#244);
#244=SHAPE_REPRESENTATION('\X2\5F0069FD51F97AEF7D275B9A87BA9489\X0\ GB
T74-2018',(#245),#369);
#245=AXIS2_PLACEMENT_3D('',#310,#264,#265);
#246=AXIS2_PLACEMENT_3D('',#311,#266,#267);
#247=AXIS2_PLACEMENT_3D('',#312,#268,#269);
#248=AXIS2_PLACEMENT_3D('',#316,#271,#272);
#249=AXIS2_PLACEMENT_3D('',#317,#273,#274);
#250=AXIS2_PLACEMENT_3D('',#321,#276,#277);
#251=AXIS2_PLACEMENT_3D('',#322,#278,#279);
#252=AXIS2_PLACEMENT_3D('',#324,#280,#281);
#253=AXIS2_PLACEMENT_3D('',#329,#283,#284);
#254=AXIS2_PLACEMENT_3D('',#333,#286,#287);
#255=AXIS2_PLACEMENT_3D('',#337,#289,#290);
#256=AXIS2_PLACEMENT_3D('',#340,#292,#293);
#257=AXIS2_PLACEMENT_3D('',#349,#294,#295);
#258=AXIS2_PLACEMENT_3D('',#358,#296,#297);
#259=AXIS2_PLACEMENT_3D('',#360,#298,#299);
#260=AXIS2_PLACEMENT_3D('',#362,#300,#301);
#261=AXIS2_PLACEMENT_3D('',#363,#302,#303);
#262=AXIS2_PLACEMENT_3D('',#365,#305,#306);
#263=AXIS2_PLACEMENT_3D('',#367,#308,#309);
#264=DIRECTION('',(0.,0.,1.));
#265=DIRECTION('',(1.,0.,0.));
#266=DIRECTION('',(-1.,0.,0.));
#267=DIRECTION('',(0.,0.,1.));
#268=DIRECTION('',(-1.,0.,0.));
#269=DIRECTION('',(0.,0.,1.));
#270=DIRECTION('',(-6.12303176911189E-17,-1.,-1.01643953670516E-16));
#271=DIRECTION('',(-1.,0.,0.));
#272=DIRECTION('',(0.,0.,1.));
#273=DIRECTION('',(-1.,0.,0.));
#274=DIRECTION('',(0.,0.,1.));
#275=DIRECTION('',(6.12303176911189E-17,1.,0.));
#276=DIRECTION('',(-1.,0.,0.));
#277=DIRECTION('',(0.,0.,1.));
#278=DIRECTION('',(-1.,0.,0.));
#279=DIRECTION('',(0.,0.,1.));
#280=DIRECTION('',(-1.,0.,0.));
#281=DIRECTION('',(0.,0.,1.));
#282=DIRECTION('',(-1.,0.,0.));
#283=DIRECTION('',(1.,-6.12303176911189E-17,0.));
#284=DIRECTION('',(6.12303176911189E-17,1.,0.));
#285=DIRECTION('',(-1.,0.,0.));
#286=DIRECTION('',(-1.,0.,0.));
#287=DIRECTION('',(0.,0.,1.));
#288=DIRECTION('',(-1.,0.,0.));
#289=DIRECTION('',(1.,-6.12303176911189E-17,0.));
#290=DIRECTION('',(6.12303176911189E-17,1.,0.));
#291=DIRECTION('',(-1.,0.,0.));
#292=DIRECTION('',(1.,0.,0.));
#293=DIRECTION('',(0.,0.,-1.));
#294=DIRECTION('',(1.,0.,0.));
#295=DIRECTION('',(0.,0.,-1.));
#296=DIRECTION('',(1.,0.,0.));
#297=DIRECTION('',(0.,0.,-1.));
#298=DIRECTION('',(-1.,0.,0.));
#299=DIRECTION('',(0.,0.,1.));
#300=DIRECTION('',(-1.,0.,0.));
#301=DIRECTION('',(0.,0.,1.));
#302=DIRECTION('',(0.,1.01643953670516E-16,-1.));
#303=DIRECTION('',(0.,1.,1.01643953670516E-16));
#304=DIRECTION('',(-6.12303176911189E-17,-1.,-1.01643953670516E-16));
#305=DIRECTION('',(0.,0.,1.));
#306=DIRECTION('',(1.,0.,0.));
#307=DIRECTION('',(6.12303176911189E-17,1.,0.));
#308=DIRECTION('',(1.,-6.12303176911189E-17,0.));
#309=DIRECTION('',(6.12303176911189E-17,1.,0.));
#310=CARTESIAN_POINT('',(0.,0.,0.));
#311=CARTESIAN_POINT('',(0.,0.,0.));
#312=CARTESIAN_POINT('',(0.,0.,0.));
#313=CARTESIAN_POINT('',(-4.04286590373975E-17,-0.660271913684052,0.125));
#314=CARTESIAN_POINT('',(4.04286590373975E-17,0.660271913684052,0.125));
#315=CARTESIAN_POINT('',(4.89842541528951E-17,0.8,0.125));
#316=CARTESIAN_POINT('',(0.,0.,0.));
#317=CARTESIAN_POINT('',(0.,0.,0.));
#318=CARTESIAN_POINT('',(4.04286590373975E-17,0.660271913684052,-0.125));
#319=CARTESIAN_POINT('',(-4.04286590373975E-17,-0.660271913684052,-0.125));
#320=CARTESIAN_POINT('',(-4.89842541528951E-17,-0.8,-0.125));
#321=CARTESIAN_POINT('',(0.,0.,0.));
#322=CARTESIAN_POINT('',(1.475,0.,0.));
#323=CARTESIAN_POINT('',(1.475,0.,0.8));
#324=CARTESIAN_POINT('',(0.128,0.,0.));
#325=CARTESIAN_POINT('',(0.128,0.790174031463955,0.125));
#326=CARTESIAN_POINT('',(0.128,-0.790174031463955,0.125));
#327=CARTESIAN_POINT('',(0.,-0.790174031463955,0.125));
#328=CARTESIAN_POINT('',(0.56,-0.790174031463955,0.125));
#329=CARTESIAN_POINT('',(0.56,0.,0.));
#330=CARTESIAN_POINT('',(0.56,-0.790174031463955,-0.125));
#331=CARTESIAN_POINT('',(0.,-0.790174031463955,-0.125));
#332=CARTESIAN_POINT('',(0.128,-0.790174031463955,-0.125));
#333=CARTESIAN_POINT('',(0.128,0.,0.));
#334=CARTESIAN_POINT('',(0.128,0.790174031463955,-0.125));
#335=CARTESIAN_POINT('',(0.,0.790174031463955,-0.125));
#336=CARTESIAN_POINT('',(0.56,0.790174031463955,-0.125));
#337=CARTESIAN_POINT('',(0.56,0.,0.));
#338=CARTESIAN_POINT('',(0.56,0.790174031463955,0.125));
#339=CARTESIAN_POINT('',(0.,0.790174031463955,0.125));
#340=CARTESIAN_POINT('',(0.,0.,0.));
#341=CARTESIAN_POINT('',(0.127999999999996,0.790174031463959,0.125));
#342=CARTESIAN_POINT('',(0.0852800265434581,0.746922826787044,0.125));
#343=CARTESIAN_POINT('',(0.0426030468892943,0.703631697609838,0.125));
#344=CARTESIAN_POINT('',(1.29932625891035E-18,0.660271913684052,0.125));
#345=CARTESIAN_POINT('',(4.93518588834624E-17,-0.660271913684052,0.125));
#346=CARTESIAN_POINT('',(0.0426046732460469,-0.703633352854768,0.125));
#347=CARTESIAN_POINT('',(0.0852813929063169,-0.746924210140885,0.125));
#348=CARTESIAN_POINT('',(0.128000000000001,-0.790174031463956,0.125));
#349=CARTESIAN_POINT('',(0.,0.,0.));
#350=CARTESIAN_POINT('',(0.127999999999996,-0.790174031463959,-0.125));
#351=CARTESIAN_POINT('',(0.0852800265434581,-0.746922826787044,-0.125));
#352=CARTESIAN_POINT('',(0.0426030468892943,-0.703631697609838,-0.125));
#353=CARTESIAN_POINT('',(-9.51561010725531E-17,-0.660271913684052,-0.125));
#354=CARTESIAN_POINT('',(-4.35464770419084E-17,0.660271913684052,-0.125));
#355=CARTESIAN_POINT('',(0.0426046732460468,0.703633352854768,-0.125));
#356=CARTESIAN_POINT('',(0.0852813929063169,0.746924210140885,-0.125));
#357=CARTESIAN_POINT('',(0.128000000000001,0.790174031463956,-0.125));
#358=CARTESIAN_POINT('',(2.,0.,0.));
#359=CARTESIAN_POINT('',(1.84122867597285,0.,1.0842021724855E-16));
#360=CARTESIAN_POINT('',(2.,0.,0.));
#361=CARTESIAN_POINT('',(2.,0.,0.275));
#362=CARTESIAN_POINT('',(1.475,0.,0.));
#363=CARTESIAN_POINT('',(0.56,0.8,0.125));
#364=CARTESIAN_POINT('',(0.56,0.8,0.125));
#365=CARTESIAN_POINT('',(0.56,-0.8,-0.125));
#366=CARTESIAN_POINT('',(0.56,-0.8,-0.125));
#367=CARTESIAN_POINT('',(0.56,0.,0.));
#368=MECHANICAL_DESIGN_GEOMETRIC_PRESENTATION_REPRESENTATION('',(#159,#160,
#161,#162,#163,#164,#165,#166,#167,#168),#369);
#369=(
GEOMETRIC_REPRESENTATION_CONTEXT(3)
GLOBAL_UNCERTAINTY_ASSIGNED_CONTEXT((#370))
GLOBAL_UNIT_ASSIGNED_CONTEXT((#373,#372,#371))
REPRESENTATION_CONTEXT('\X2\5F0069FD51F97AEF7D275B9A87BA9489\X0\ GBT74
-2018','TOP_LEVEL_ASSEMBLY_PART')
);
#370=UNCERTAINTY_MEASURE_WITH_UNIT(LENGTH_MEASURE(0.005),#373,
'DISTANCE_ACCURACY_VALUE','Maximum Tolerance applied to model');
#371=(
NAMED_UNIT(*)
SI_UNIT($,.STERADIAN.)
SOLID_ANGLE_UNIT()
);
#372=(
NAMED_UNIT(*)
PLANE_ANGLE_UNIT()
SI_UNIT($,.RADIAN.)
);
#373=(
LENGTH_UNIT()
NAMED_UNIT(*)
SI_UNIT(.MILLI.,.METRE.)
);
#374=PRODUCT_DEFINITION_SHAPE('','',#375);
#375=PRODUCT_DEFINITION('','',#377,#376);
#376=PRODUCT_DEFINITION_CONTEXT('',#383,'design');
#377=PRODUCT_DEFINITION_FORMATION_WITH_SPECIFIED_SOURCE('','',#379,
 .NOT_KNOWN.);
#378=PRODUCT_RELATED_PRODUCT_CATEGORY('','',(#379));
#379=PRODUCT('\X2\5F0069FD51F97AEF7D275B9A87BA9489\X0\ GBT74-2018',
'\X2\5F0069FD51F97AEF7D275B9A87BA9489\X0\ GBT74-2018',
'\X2\5F0069FD51F97AEF7D275B9A87BA9489\X0\ GBT74-2018',(#381));
#380=PRODUCT_CATEGORY('','');
#381=PRODUCT_CONTEXT('',#383,'mechanical');
#382=APPLICATION_PROTOCOL_DEFINITION('international standard',
'automotive_design',2010,#383);
#383=APPLICATION_CONTEXT(
'core data for automotive mechanical design processes');
ENDSEC;
END-ISO-10303-21;
