ISO-10303-21;
HEADER;
/* Generated by software containing HOOPS Exchange Step
 * from HOOPS Exchange, Inc. (www.tiangong.cloud) 
 */

FILE_DESCRIPTION(
/* description */ ('Unknown'),
/* implementation_level */ '2;1');

FILE_NAME(
/* name */ 'yc',
/* time_stamp */ '2025-12-25T09:15:25+08:00',
/* author */ ('Unknown'),
/* organization */ ('Unknown'),
/* preprocessor_version */ 'ST-DEVELOPER v19.4',
/* originating_system */ 'TianGong',
/* authorisation */ 'Unknown');

FILE_SCHEMA (('AUTOMOTIVE_DESIGN {1 0 10303 214 3 1 1}'));
ENDSEC;

DATA;
#10=PROPERTY_DEFINITION_REPRESENTATION(#14,#12);
#11=PROPERTY_DEFINITION_REPRESENTATION(#15,#13);
#12=REPRESENTATION('',(#16),#464);
#13=REPRESENTATION('',(#17),#464);
#14=PROPERTY_DEFINITION('pmi validation property','',#469);
#15=PROPERTY_DEFINITION('pmi validation property','',#469);
#16=VALUE_REPRESENTATION_ITEM('number of annotations',COUNT_MEASURE(0.));
#17=VALUE_REPRESENTATION_ITEM('number of views',COUNT_MEASURE(0.));
#18=SHAPE_REPRESENTATION_RELATIONSHIP('','',#296,#19);
#19=ADVANCED_BREP_SHAPE_REPRESENTATION('',(#294),#464);
#20=TOROIDAL_SURFACE('',#315,1.2,0.1);
#21=LINE('',#418,#27);
#22=LINE('',#419,#28);
#23=LINE('',#427,#29);
#24=LINE('',#435,#30);
#25=LINE('',#443,#31);
#26=LINE('',#451,#32);
#27=VECTOR('',#336,1000.);
#28=VECTOR('',#337,1000.);
#29=VECTOR('',#340,1000.);
#30=VECTOR('',#343,1000.);
#31=VECTOR('',#346,1000.);
#32=VECTOR('',#349,1000.);
#33=B_SPLINE_CURVE_WITH_KNOTS('',3,(#374,#375,#376,#377,#378),
 .UNSPECIFIED.,.F.,.F.,(4,1,4),(2.54468946231999E-7,0.000954459713501852,
0.00190866495805747),.UNSPECIFIED.);
#34=B_SPLINE_CURVE_WITH_KNOTS('',3,(#381,#382,#383,#384,#385),
 .UNSPECIFIED.,.F.,.F.,(4,1,4),(2.54436168357602E-7,0.000954459749139155,
0.00190866506210995),.UNSPECIFIED.);
#35=B_SPLINE_CURVE_WITH_KNOTS('',3,(#387,#388,#389,#390,#391),
 .UNSPECIFIED.,.F.,.F.,(4,1,4),(0.00233872522000953,0.00330125194142992,
0.00426377866285032),.UNSPECIFIED.);
#36=B_SPLINE_CURVE_WITH_KNOTS('',3,(#393,#394,#395,#396,#397),
 .UNSPECIFIED.,.F.,.F.,(4,1,4),(2.54452555816539E-7,0.00095445974936748,
0.00190866504617914),.UNSPECIFIED.);
#37=B_SPLINE_CURVE_WITH_KNOTS('',3,(#399,#400,#401,#402,#403),
 .UNSPECIFIED.,.F.,.F.,(4,1,4),(2.54429093040113E-7,0.000954459678940704,
0.00190866492878837),.UNSPECIFIED.);
#38=B_SPLINE_CURVE_WITH_KNOTS('',3,(#405,#406,#407,#408,#409),
 .UNSPECIFIED.,.F.,.F.,(4,1,4),(0.00233872537155233,0.00330125217845003,
0.00426377898534773),.UNSPECIFIED.);
#39=B_SPLINE_CURVE_WITH_KNOTS('',3,(#411,#412,#413,#414,#415),
 .UNSPECIFIED.,.F.,.F.,(4,1,4),(2.54429093037936E-7,0.000954459678940695,
0.00190866492878835),.UNSPECIFIED.);
#40=B_SPLINE_CURVE_WITH_KNOTS('',3,(#421,#422,#423,#424,#425),
 .UNSPECIFIED.,.F.,.F.,(4,1,4),(0.00233872524276874,0.00330125206062647,
0.0042637788784842),.UNSPECIFIED.);
#41=B_SPLINE_CURVE_WITH_KNOTS('',3,(#429,#430,#431,#432,#433),
 .UNSPECIFIED.,.F.,.F.,(4,1,4),(2.54436168357902E-7,0.000954459681801313,
0.00190866492743427),.UNSPECIFIED.);
#42=B_SPLINE_CURVE_WITH_KNOTS('',3,(#437,#438,#439,#440,#441),
 .UNSPECIFIED.,.F.,.F.,(4,1,4),(2.54382180384333E-7,0.000954459696245096,
0.00190866501030981),.UNSPECIFIED.);
#43=B_SPLINE_CURVE_WITH_KNOTS('',3,(#445,#446,#447,#448,#449),
 .UNSPECIFIED.,.F.,.F.,(4,1,4),(0.00233872515613266,0.00330125187839971,
0.00426377860066675),.UNSPECIFIED.);
#44=B_SPLINE_CURVE_WITH_KNOTS('',3,(#453,#454,#455,#456,#457),
 .UNSPECIFIED.,.F.,.F.,(4,1,4),(2.54452555812104E-7,0.000954459738182194,
0.00190866502380858),.UNSPECIFIED.);
#45=CYLINDRICAL_SURFACE('',#303,1.1);
#46=VERTEX_LOOP('',#122);
#47=CONICAL_SURFACE('',#301,0.,0.502843210927861);
#48=CONICAL_SURFACE('',#305,1.50952088590744,0.785398163397448);
#49=CONICAL_SURFACE('',#312,1.84752088590744,0.785398163397448);
#50=ORIENTED_EDGE('',*,*,#96,.T.);
#51=ORIENTED_EDGE('',*,*,#97,.F.);
#52=ORIENTED_EDGE('',*,*,#98,.F.);
#53=ORIENTED_EDGE('',*,*,#99,.T.);
#54=ORIENTED_EDGE('',*,*,#98,.T.);
#55=ORIENTED_EDGE('',*,*,#100,.T.);
#56=ORIENTED_EDGE('',*,*,#101,.T.);
#57=ORIENTED_EDGE('',*,*,#102,.T.);
#58=ORIENTED_EDGE('',*,*,#103,.T.);
#59=ORIENTED_EDGE('',*,*,#104,.T.);
#60=ORIENTED_EDGE('',*,*,#105,.T.);
#61=ORIENTED_EDGE('',*,*,#97,.T.);
#62=ORIENTED_EDGE('',*,*,#106,.F.);
#63=ORIENTED_EDGE('',*,*,#107,.F.);
#64=ORIENTED_EDGE('',*,*,#104,.F.);
#65=ORIENTED_EDGE('',*,*,#108,.T.);
#66=ORIENTED_EDGE('',*,*,#109,.F.);
#67=ORIENTED_EDGE('',*,*,#110,.F.);
#68=ORIENTED_EDGE('',*,*,#105,.F.);
#69=ORIENTED_EDGE('',*,*,#107,.T.);
#70=ORIENTED_EDGE('',*,*,#111,.F.);
#71=ORIENTED_EDGE('',*,*,#112,.F.);
#72=ORIENTED_EDGE('',*,*,#100,.F.);
#73=ORIENTED_EDGE('',*,*,#110,.T.);
#74=ORIENTED_EDGE('',*,*,#113,.F.);
#75=ORIENTED_EDGE('',*,*,#114,.F.);
#76=ORIENTED_EDGE('',*,*,#101,.F.);
#77=ORIENTED_EDGE('',*,*,#112,.T.);
#78=ORIENTED_EDGE('',*,*,#115,.F.);
#79=ORIENTED_EDGE('',*,*,#116,.F.);
#80=ORIENTED_EDGE('',*,*,#102,.F.);
#81=ORIENTED_EDGE('',*,*,#114,.T.);
#82=ORIENTED_EDGE('',*,*,#117,.F.);
#83=ORIENTED_EDGE('',*,*,#108,.F.);
#84=ORIENTED_EDGE('',*,*,#103,.F.);
#85=ORIENTED_EDGE('',*,*,#116,.T.);
#86=ORIENTED_EDGE('',*,*,#118,.F.);
#87=ORIENTED_EDGE('',*,*,#117,.T.);
#88=ORIENTED_EDGE('',*,*,#115,.T.);
#89=ORIENTED_EDGE('',*,*,#113,.T.);
#90=ORIENTED_EDGE('',*,*,#111,.T.);
#91=ORIENTED_EDGE('',*,*,#109,.T.);
#92=ORIENTED_EDGE('',*,*,#106,.T.);
#93=ORIENTED_EDGE('',*,*,#118,.T.);
#94=ORIENTED_EDGE('',*,*,#96,.F.);
#95=ORIENTED_EDGE('',*,*,#99,.F.);
#96=EDGE_CURVE('',#119,#119,#137,.T.);
#97=EDGE_CURVE('',#120,#120,#138,.T.);
#98=EDGE_CURVE('',#121,#121,#139,.T.);
#99=EDGE_CURVE('',#123,#123,#140,.F.);
#100=EDGE_CURVE('',#124,#125,#33,.T.);
#101=EDGE_CURVE('',#125,#126,#34,.T.);
#102=EDGE_CURVE('',#126,#127,#35,.T.);
#103=EDGE_CURVE('',#127,#128,#36,.T.);
#104=EDGE_CURVE('',#128,#129,#37,.T.);
#105=EDGE_CURVE('',#129,#124,#38,.T.);
#106=EDGE_CURVE('',#130,#131,#39,.T.);
#107=EDGE_CURVE('',#129,#130,#21,.T.);
#108=EDGE_CURVE('',#128,#131,#22,.T.);
#109=EDGE_CURVE('',#132,#130,#40,.T.);
#110=EDGE_CURVE('',#124,#132,#23,.T.);
#111=EDGE_CURVE('',#133,#132,#41,.T.);
#112=EDGE_CURVE('',#125,#133,#24,.T.);
#113=EDGE_CURVE('',#134,#133,#42,.T.);
#114=EDGE_CURVE('',#126,#134,#25,.T.);
#115=EDGE_CURVE('',#135,#134,#43,.T.);
#116=EDGE_CURVE('',#127,#135,#26,.T.);
#117=EDGE_CURVE('',#131,#135,#44,.T.);
#118=EDGE_CURVE('',#136,#136,#141,.T.);
#119=VERTEX_POINT('',#363);
#120=VERTEX_POINT('',#365);
#121=VERTEX_POINT('',#368);
#122=VERTEX_POINT('',#369);
#123=VERTEX_POINT('',#372);
#124=VERTEX_POINT('',#379);
#125=VERTEX_POINT('',#380);
#126=VERTEX_POINT('',#386);
#127=VERTEX_POINT('',#392);
#128=VERTEX_POINT('',#398);
#129=VERTEX_POINT('',#404);
#130=VERTEX_POINT('',#416);
#131=VERTEX_POINT('',#417);
#132=VERTEX_POINT('',#426);
#133=VERTEX_POINT('',#434);
#134=VERTEX_POINT('',#442);
#135=VERTEX_POINT('',#450);
#136=VERTEX_POINT('',#460);
#137=CIRCLE('',#299,1.2);
#138=CIRCLE('',#300,1.50952088590744);
#139=CIRCLE('',#302,1.1);
#140=CIRCLE('',#304,1.1);
#141=CIRCLE('',#313,1.50952088590744);
#142=EDGE_LOOP('',(#50));
#143=EDGE_LOOP('',(#51));
#144=EDGE_LOOP('',(#52));
#145=EDGE_LOOP('',(#53));
#146=EDGE_LOOP('',(#54));
#147=EDGE_LOOP('',(#55,#56,#57,#58,#59,#60));
#148=EDGE_LOOP('',(#61));
#149=EDGE_LOOP('',(#62,#63,#64,#65));
#150=EDGE_LOOP('',(#66,#67,#68,#69));
#151=EDGE_LOOP('',(#70,#71,#72,#73));
#152=EDGE_LOOP('',(#74,#75,#76,#77));
#153=EDGE_LOOP('',(#78,#79,#80,#81));
#154=EDGE_LOOP('',(#82,#83,#84,#85));
#155=EDGE_LOOP('',(#86));
#156=EDGE_LOOP('',(#87,#88,#89,#90,#91,#92));
#157=EDGE_LOOP('',(#93));
#158=EDGE_LOOP('',(#94));
#159=EDGE_LOOP('',(#95));
#160=FACE_BOUND('',#142,.T.);
#161=FACE_BOUND('',#143,.T.);
#162=FACE_BOUND('',#144,.T.);
#163=FACE_BOUND('',#46,.T.);
#164=FACE_BOUND('',#145,.T.);
#165=FACE_BOUND('',#146,.T.);
#166=FACE_BOUND('',#147,.T.);
#167=FACE_BOUND('',#148,.T.);
#168=FACE_BOUND('',#149,.T.);
#169=FACE_BOUND('',#150,.T.);
#170=FACE_BOUND('',#151,.T.);
#171=FACE_BOUND('',#152,.T.);
#172=FACE_BOUND('',#153,.T.);
#173=FACE_BOUND('',#154,.T.);
#174=FACE_BOUND('',#155,.T.);
#175=FACE_BOUND('',#156,.T.);
#176=FACE_BOUND('',#157,.T.);
#177=FACE_BOUND('',#158,.T.);
#178=FACE_BOUND('',#159,.T.);
#179=PLANE('',#298);
#180=PLANE('',#306);
#181=PLANE('',#307);
#182=PLANE('',#308);
#183=PLANE('',#309);
#184=PLANE('',#310);
#185=PLANE('',#311);
#186=PLANE('',#314);
#187=STYLED_ITEM('',(#200),#280);
#188=STYLED_ITEM('',(#201),#281);
#189=STYLED_ITEM('',(#202),#282);
#190=STYLED_ITEM('',(#203),#283);
#191=STYLED_ITEM('',(#204),#284);
#192=STYLED_ITEM('',(#205),#285);
#193=STYLED_ITEM('',(#206),#286);
#194=STYLED_ITEM('',(#207),#287);
#195=STYLED_ITEM('',(#208),#288);
#196=STYLED_ITEM('',(#209),#289);
#197=STYLED_ITEM('',(#210),#290);
#198=STYLED_ITEM('',(#211),#291);
#199=STYLED_ITEM('',(#212),#292);
#200=PRESENTATION_STYLE_ASSIGNMENT((#213));
#201=PRESENTATION_STYLE_ASSIGNMENT((#214));
#202=PRESENTATION_STYLE_ASSIGNMENT((#215));
#203=PRESENTATION_STYLE_ASSIGNMENT((#216));
#204=PRESENTATION_STYLE_ASSIGNMENT((#217));
#205=PRESENTATION_STYLE_ASSIGNMENT((#218));
#206=PRESENTATION_STYLE_ASSIGNMENT((#219));
#207=PRESENTATION_STYLE_ASSIGNMENT((#220));
#208=PRESENTATION_STYLE_ASSIGNMENT((#221));
#209=PRESENTATION_STYLE_ASSIGNMENT((#222));
#210=PRESENTATION_STYLE_ASSIGNMENT((#223));
#211=PRESENTATION_STYLE_ASSIGNMENT((#224));
#212=PRESENTATION_STYLE_ASSIGNMENT((#225));
#213=SURFACE_STYLE_USAGE(.BOTH.,#226);
#214=SURFACE_STYLE_USAGE(.BOTH.,#227);
#215=SURFACE_STYLE_USAGE(.BOTH.,#228);
#216=SURFACE_STYLE_USAGE(.BOTH.,#229);
#217=SURFACE_STYLE_USAGE(.BOTH.,#230);
#218=SURFACE_STYLE_USAGE(.BOTH.,#231);
#219=SURFACE_STYLE_USAGE(.BOTH.,#232);
#220=SURFACE_STYLE_USAGE(.BOTH.,#233);
#221=SURFACE_STYLE_USAGE(.BOTH.,#234);
#222=SURFACE_STYLE_USAGE(.BOTH.,#235);
#223=SURFACE_STYLE_USAGE(.BOTH.,#236);
#224=SURFACE_STYLE_USAGE(.BOTH.,#237);
#225=SURFACE_STYLE_USAGE(.BOTH.,#238);
#226=SURFACE_SIDE_STYLE('',(#239));
#227=SURFACE_SIDE_STYLE('',(#240));
#228=SURFACE_SIDE_STYLE('',(#241));
#229=SURFACE_SIDE_STYLE('',(#242));
#230=SURFACE_SIDE_STYLE('',(#243));
#231=SURFACE_SIDE_STYLE('',(#244));
#232=SURFACE_SIDE_STYLE('',(#245));
#233=SURFACE_SIDE_STYLE('',(#246));
#234=SURFACE_SIDE_STYLE('',(#247));
#235=SURFACE_SIDE_STYLE('',(#248));
#236=SURFACE_SIDE_STYLE('',(#249));
#237=SURFACE_SIDE_STYLE('',(#250));
#238=SURFACE_SIDE_STYLE('',(#251));
#239=SURFACE_STYLE_FILL_AREA(#252);
#240=SURFACE_STYLE_FILL_AREA(#253);
#241=SURFACE_STYLE_FILL_AREA(#254);
#242=SURFACE_STYLE_FILL_AREA(#255);
#243=SURFACE_STYLE_FILL_AREA(#256);
#244=SURFACE_STYLE_FILL_AREA(#257);
#245=SURFACE_STYLE_FILL_AREA(#258);
#246=SURFACE_STYLE_FILL_AREA(#259);
#247=SURFACE_STYLE_FILL_AREA(#260);
#248=SURFACE_STYLE_FILL_AREA(#261);
#249=SURFACE_STYLE_FILL_AREA(#262);
#250=SURFACE_STYLE_FILL_AREA(#263);
#251=SURFACE_STYLE_FILL_AREA(#264);
#252=FILL_AREA_STYLE('',(#265));
#253=FILL_AREA_STYLE('',(#266));
#254=FILL_AREA_STYLE('',(#267));
#255=FILL_AREA_STYLE('',(#268));
#256=FILL_AREA_STYLE('',(#269));
#257=FILL_AREA_STYLE('',(#270));
#258=FILL_AREA_STYLE('',(#271));
#259=FILL_AREA_STYLE('',(#272));
#260=FILL_AREA_STYLE('',(#273));
#261=FILL_AREA_STYLE('',(#274));
#262=FILL_AREA_STYLE('',(#275));
#263=FILL_AREA_STYLE('',(#276));
#264=FILL_AREA_STYLE('',(#277));
#265=FILL_AREA_STYLE_COLOUR('',#278);
#266=FILL_AREA_STYLE_COLOUR('',#278);
#267=FILL_AREA_STYLE_COLOUR('',#279);
#268=FILL_AREA_STYLE_COLOUR('',#278);
#269=FILL_AREA_STYLE_COLOUR('',#278);
#270=FILL_AREA_STYLE_COLOUR('',#278);
#271=FILL_AREA_STYLE_COLOUR('',#278);
#272=FILL_AREA_STYLE_COLOUR('',#278);
#273=FILL_AREA_STYLE_COLOUR('',#278);
#274=FILL_AREA_STYLE_COLOUR('',#278);
#275=FILL_AREA_STYLE_COLOUR('',#278);
#276=FILL_AREA_STYLE_COLOUR('',#278);
#277=FILL_AREA_STYLE_COLOUR('',#278);
#278=COLOUR_RGB('',0.506983280181885,0.531564235687256,0.550000011920929);
#279=COLOUR_RGB('',0.1875,0.75,0.581249892711639);
#280=ADVANCED_FACE('',(#160,#161),#179,.F.);
#281=ADVANCED_FACE('',(#162,#163),#47,.T.);
#282=ADVANCED_FACE('',(#164,#165),#45,.T.);
#283=ADVANCED_FACE('',(#166,#167),#48,.T.);
#284=ADVANCED_FACE('',(#168),#180,.T.);
#285=ADVANCED_FACE('',(#169),#181,.T.);
#286=ADVANCED_FACE('',(#170),#182,.T.);
#287=ADVANCED_FACE('',(#171),#183,.T.);
#288=ADVANCED_FACE('',(#172),#184,.T.);
#289=ADVANCED_FACE('',(#173),#185,.T.);
#290=ADVANCED_FACE('',(#174,#175),#49,.T.);
#291=ADVANCED_FACE('',(#176),#186,.T.);
#292=ADVANCED_FACE('',(#177,#178),#20,.F.);
#293=CLOSED_SHELL('',(#280,#281,#282,#283,#284,#285,#286,#287,#288,#289,
#290,#291,#292));
#294=MANIFOLD_SOLID_BREP('',#293);
#295=SHAPE_DEFINITION_REPRESENTATION(#469,#296);
#296=SHAPE_REPRESENTATION('yc',(#297),#464);
#297=AXIS2_PLACEMENT_3D('',#360,#316,#317);
#298=AXIS2_PLACEMENT_3D('',#361,#318,#319);
#299=AXIS2_PLACEMENT_3D('',#362,#320,#321);
#300=AXIS2_PLACEMENT_3D('',#364,#322,#323);
#301=AXIS2_PLACEMENT_3D('',#366,#324,#325);
#302=AXIS2_PLACEMENT_3D('',#367,#326,#327);
#303=AXIS2_PLACEMENT_3D('',#370,#328,#329);
#304=AXIS2_PLACEMENT_3D('',#371,#330,#331);
#305=AXIS2_PLACEMENT_3D('',#373,#332,#333);
#306=AXIS2_PLACEMENT_3D('',#410,#334,#335);
#307=AXIS2_PLACEMENT_3D('',#420,#338,#339);
#308=AXIS2_PLACEMENT_3D('',#428,#341,#342);
#309=AXIS2_PLACEMENT_3D('',#436,#344,#345);
#310=AXIS2_PLACEMENT_3D('',#444,#347,#348);
#311=AXIS2_PLACEMENT_3D('',#452,#350,#351);
#312=AXIS2_PLACEMENT_3D('',#458,#352,#353);
#313=AXIS2_PLACEMENT_3D('',#459,#354,#355);
#314=AXIS2_PLACEMENT_3D('',#461,#356,#357);
#315=AXIS2_PLACEMENT_3D('',#462,#358,#359);
#316=DIRECTION('',(0.,0.,1.));
#317=DIRECTION('',(1.,0.,0.));
#318=DIRECTION('',(0.,-1.,0.));
#319=DIRECTION('',(0.,0.,-1.));
#320=DIRECTION('',(0.,-1.,0.));
#321=DIRECTION('',(0.,0.,-1.));
#322=DIRECTION('',(-6.12303176911189E-17,-1.,0.));
#323=DIRECTION('',(1.,-6.12303176911189E-17,0.));
#324=DIRECTION('',(-6.12303176911189E-17,-1.,0.));
#325=DIRECTION('',(1.,-6.12303176911189E-17,0.));
#326=DIRECTION('',(-6.12303176911189E-17,-1.,0.));
#327=DIRECTION('',(1.,-6.12303176911189E-17,0.));
#328=DIRECTION('',(-6.12303176911189E-17,-1.,0.));
#329=DIRECTION('',(1.,-6.12303176911189E-17,0.));
#330=DIRECTION('',(0.,-1.,0.));
#331=DIRECTION('',(0.,0.,-1.));
#332=DIRECTION('',(-6.12303176911189E-17,-1.,0.));
#333=DIRECTION('',(1.,-6.12303176911189E-17,0.));
#334=DIRECTION('',(-0.499999999999999,0.,-0.866025403784439));
#335=DIRECTION('',(-0.866025403784439,0.,0.499999999999999));
#336=DIRECTION('',(0.,-1.,0.));
#337=DIRECTION('',(0.,-1.,0.));
#338=DIRECTION('',(-1.,0.,1.20889376263974E-14));
#339=DIRECTION('',(1.20889376263974E-14,0.,1.));
#340=DIRECTION('',(0.,-1.,0.));
#341=DIRECTION('',(-0.500000019892055,0.,0.866025392299755));
#342=DIRECTION('',(0.866025392299755,0.,0.500000019892055));
#343=DIRECTION('',(0.,-1.,0.));
#344=DIRECTION('',(0.500000019892035,0.,0.866025392299767));
#345=DIRECTION('',(0.866025392299767,0.,-0.500000019892035));
#346=DIRECTION('',(0.,-1.,0.));
#347=DIRECTION('',(1.,0.,2.48820865314952E-14));
#348=DIRECTION('',(2.48820865314952E-14,0.,-1.));
#349=DIRECTION('',(0.,-1.,0.));
#350=DIRECTION('',(0.500000000000014,0.,-0.866025403784431));
#351=DIRECTION('',(-0.866025403784431,0.,-0.500000000000014));
#352=DIRECTION('',(6.12303176911189E-17,1.,0.));
#353=DIRECTION('',(-1.,6.12303176911189E-17,0.));
#354=DIRECTION('',(-6.12303176911189E-17,-1.,0.));
#355=DIRECTION('',(1.,-6.12303176911189E-17,0.));
#356=DIRECTION('',(0.,-1.,0.));
#357=DIRECTION('',(0.,0.,-1.));
#358=DIRECTION('',(0.,-1.,0.));
#359=DIRECTION('',(0.,0.,-1.));
#360=CARTESIAN_POINT('',(0.,0.,0.));
#361=CARTESIAN_POINT('',(0.,1.3,0.));
#362=CARTESIAN_POINT('',(8.57224447675664E-17,1.3,0.));
#363=CARTESIAN_POINT('',(8.57224447675664E-17,1.3,-1.2));
#364=CARTESIAN_POINT('',(7.95994129984545E-17,1.3,0.));
#365=CARTESIAN_POINT('',(1.50952088590744,1.3,0.));
#366=CARTESIAN_POINT('',(3.55135842608489E-16,5.8,0.));
#367=CARTESIAN_POINT('',(2.32675207226252E-16,3.8,0.));
#368=CARTESIAN_POINT('',(1.1,3.8,0.));
#369=CARTESIAN_POINT('',(3.55135842608489E-16,5.8,0.));
#370=CARTESIAN_POINT('',(7.95994129984547E-17,1.3,0.));
#371=CARTESIAN_POINT('',(8.57224447675664E-17,1.4,0.));
#372=CARTESIAN_POINT('',(8.57224447675664E-17,1.4,-1.1));
#373=CARTESIAN_POINT('',(7.95994129984545E-17,1.3,0.));
#374=CARTESIAN_POINT('',(-1.59999995301337,0.962000063878717,0.923760433330466));
#375=CARTESIAN_POINT('',(-1.34997864001517,1.10634992892563,1.06811031335023));
#376=CARTESIAN_POINT('',(-0.805156517070404,1.31225900804198,1.38266352937848));
#377=CARTESIAN_POINT('',(-0.25149571380881,1.10720112577038,1.70231976013762));
#378=CARTESIAN_POINT('',(1.55420636197426E-13,0.962000000000449,1.84752088590753));
#379=CARTESIAN_POINT('',(-1.5999999787818,0.962,0.92376051645567));
#380=CARTESIAN_POINT('',(5.89035656188564E-17,0.962,1.84752088590744));
#381=CARTESIAN_POINT('',(-2.93886809552984E-16,0.962000000000001,1.84752088590744));
#382=CARTESIAN_POINT('',(0.250021326376465,1.1063498877437,1.70317099816374));
#383=CARTESIAN_POINT('',(0.794843478193919,1.31225902273202,1.38861776546585));
#384=CARTESIAN_POINT('',(1.34850433048225,1.10720113694986,1.06896150640112));
#385=CARTESIAN_POINT('',(1.60000006365467,0.962000000000448,0.923760369451729));
#386=CARTESIAN_POINT('',(1.60000006365452,0.962,0.923760369451819));
#387=CARTESIAN_POINT('',(1.60000002121816,0.962000028474174,0.923760386005405));
#388=CARTESIAN_POINT('',(1.60000002121816,1.10502070068376,0.637719028360733));
#389=CARTESIAN_POINT('',(1.60000002121818,1.31380019683072,0.00193130473221916));
#390=CARTESIAN_POINT('',(1.60000002121819,1.10546060734589,-0.636839228261985));
#391=CARTESIAN_POINT('',(1.6000000212182,0.962000000000031,-0.923760442953696));
#392=CARTESIAN_POINT('',(1.6000000212182,0.962,-0.923760442953676));
#393=CARTESIAN_POINT('',(1.600000008334,0.962000031939329,-0.92376040139111));
#394=CARTESIAN_POINT('',(1.34997868248055,1.1063499157232,-1.06811028117575));
#395=CARTESIAN_POINT('',(0.805156530923432,1.3122590419795,-1.38266349703774));
#396=CARTESIAN_POINT('',(0.251495682029815,1.10720115545946,-1.70231973718623));
#397=CARTESIAN_POINT('',(-4.94961535564966E-8,0.962000020425179,-1.8475208654828));
#398=CARTESIAN_POINT('',(-4.24363417669826E-8,0.962,-1.84752086140682));
#399=CARTESIAN_POINT('',(-3.68803652368811E-8,0.962000021292881,-1.84752086461456));
#400=CARTESIAN_POINT('',(-0.250021353619603,1.10634989082448,-1.70317099009202));
#401=CARTESIAN_POINT('',(-0.794843480932259,1.31225898620028,-1.38861778822759));
#402=CARTESIAN_POINT('',(-1.34850430012342,1.10720112227465,-1.06896156522783));
#403=CARTESIAN_POINT('',(-1.60000002121832,0.962000000000449,-0.923760442953647));
#404=CARTESIAN_POINT('',(-1.60000002121817,0.962,-0.923760442953737));
#405=CARTESIAN_POINT('',(-1.59999997878183,0.962000028474159,-0.923760459507316));
#406=CARTESIAN_POINT('',(-1.59999997878182,1.10502072269041,-0.637719080609112));
#407=CARTESIAN_POINT('',(-1.59999997878181,1.31380026015205,-0.00193130292600551));
#408=CARTESIAN_POINT('',(-1.59999997878181,1.10546062844607,0.636839282393413));
#409=CARTESIAN_POINT('',(-1.5999999787818,0.962000000000031,0.923760516455691));
#410=CARTESIAN_POINT('',(-1.59999997878183,1.3,-0.923760467454369));
#411=CARTESIAN_POINT('',(-1.5999999843378,0.337999978707113,-0.923760464246624));
#412=CARTESIAN_POINT('',(-1.34997866759857,0.193650109175518,-1.06811033876917));
#413=CARTESIAN_POINT('',(-0.805156540285915,-0.0122589862002756,-1.38266354063359));
#414=CARTESIAN_POINT('',(-0.251495721094756,0.192798877725355,-1.70231976363335));
#415=CARTESIAN_POINT('',(1.40856051493947E-13,0.337999999999551,-1.84752088590753));
#416=CARTESIAN_POINT('',(-1.59999997878183,0.338,-0.923760467454369));
#417=CARTESIAN_POINT('',(-1.46263814048645E-14,0.338,-1.84752088590744));
#418=CARTESIAN_POINT('',(-1.59999997878183,1.3,-0.923760467454369));
#419=CARTESIAN_POINT('',(-4.24363417669826E-8,1.3,-1.84752086140682));
#420=CARTESIAN_POINT('',(-1.5999999787818,1.3,0.923760418453056));
#421=CARTESIAN_POINT('',(-1.5999999787818,0.338,0.92376051645567));
#422=CARTESIAN_POINT('',(-1.59999997878181,0.194979299129793,0.637719137475044));
#423=CARTESIAN_POINT('',(-1.59999997878181,-0.0138002625036732,0.00193136018962427));
#424=CARTESIAN_POINT('',(-1.59999997878182,0.194539354595516,-0.636839239840404));
#425=CARTESIAN_POINT('',(-1.59999997878183,0.337999981463564,-0.923760479382845));
#426=CARTESIAN_POINT('',(-1.5999999787818,0.338,0.92376051645567));
#427=CARTESIAN_POINT('',(-1.5999999787818,1.3,0.923760418453056));
#428=CARTESIAN_POINT('',(0.,1.3,1.84752088590744));
#429=CARTESIAN_POINT('',(1.04833057819776E-16,0.338,1.84752088590744));
#430=CARTESIAN_POINT('',(-0.250021308732567,0.193650122443001,1.70317100835044));
#431=CARTESIAN_POINT('',(-0.794843415228605,-0.0122590079143641,1.38861780181887));
#432=CARTESIAN_POINT('',(-1.34850423749157,0.192798823808988,1.06896156008928));
#433=CARTESIAN_POINT('',(-1.59999995752457,0.337999938725287,0.923760430725924));
#434=CARTESIAN_POINT('',(2.06958473795982E-17,0.338,1.84752088590744));
#435=CARTESIAN_POINT('',(0.,1.3,1.84752088590744));
#436=CARTESIAN_POINT('',(1.60000002121816,1.3,0.923760393952464));
#437=CARTESIAN_POINT('',(1.60000006365452,0.338,0.923760369451819));
#438=CARTESIAN_POINT('',(1.34997873641515,0.193650111758102,1.06811025769372));
#439=CARTESIAN_POINT('',(0.805156584452366,-0.0122590226604902,1.38266349047551));
#440=CARTESIAN_POINT('',(0.251495732571941,0.192798863396732,1.70231974930473));
#441=CARTESIAN_POINT('',(-1.55112567874327E-13,0.337999999999551,1.84752088590753));
#442=CARTESIAN_POINT('',(1.60000006365452,0.338,0.923760369451819));
#443=CARTESIAN_POINT('',(1.60000002121816,1.3,0.923760393952464));
#444=CARTESIAN_POINT('',(1.6000000212182,1.3,-0.923760393952413));
#445=CARTESIAN_POINT('',(1.6000000212182,0.338,-0.923760442953675));
#446=CARTESIAN_POINT('',(1.60000002121819,0.194979322541137,-0.637719088035949));
#447=CARTESIAN_POINT('',(1.60000002121818,-0.0138001968336257,-0.00193137268428468));
#448=CARTESIAN_POINT('',(1.60000002121816,0.19453936962368,0.636839169246971));
#449=CARTESIAN_POINT('',(1.60000002121816,0.337999972195347,0.923760387344531));
#450=CARTESIAN_POINT('',(1.6000000212182,0.338,-0.923760442953676));
#451=CARTESIAN_POINT('',(1.6000000212182,1.3,-0.923760393952413));
#452=CARTESIAN_POINT('',(-4.2436341661967E-8,1.3,-1.84752086140682));
#453=CARTESIAN_POINT('',(-2.95521439646276E-8,0.33799996806068,-1.84752085396812));
#454=CARTESIAN_POINT('',(0.250021293370536,0.193650085968886,-1.70317097587556));
#455=CARTESIAN_POINT('',(0.794843437393294,-0.012259039525783,-1.38861776436354));
#456=CARTESIAN_POINT('',(1.34850428131796,0.192798838037506,-1.06896152708387));
#457=CARTESIAN_POINT('',(1.60000001058968,0.337999969362448,-0.923760400088795));
#458=CARTESIAN_POINT('',(2.06958473795982E-17,0.338,0.));
#459=CARTESIAN_POINT('',(0.,0.,0.));
#460=CARTESIAN_POINT('',(1.50952088590744,-9.24284434054918E-17,0.));
#461=CARTESIAN_POINT('',(0.,0.,0.));
#462=CARTESIAN_POINT('',(8.57224447675664E-17,1.4,0.));
#463=MECHANICAL_DESIGN_GEOMETRIC_PRESENTATION_REPRESENTATION('',(#187,#188,
#189,#190,#191,#192,#193,#194,#195,#196,#197,#198,#199),#464);
#464=(
GEOMETRIC_REPRESENTATION_CONTEXT(3)
GLOBAL_UNCERTAINTY_ASSIGNED_CONTEXT((#465))
GLOBAL_UNIT_ASSIGNED_CONTEXT((#468,#467,#466))
REPRESENTATION_CONTEXT('yc','TOP_LEVEL_ASSEMBLY_PART')
);
#465=UNCERTAINTY_MEASURE_WITH_UNIT(LENGTH_MEASURE(0.005),#468,
'DISTANCE_ACCURACY_VALUE','Maximum Tolerance applied to model');
#466=(
NAMED_UNIT(*)
SI_UNIT($,.STERADIAN.)
SOLID_ANGLE_UNIT()
);
#467=(
NAMED_UNIT(*)
PLANE_ANGLE_UNIT()
SI_UNIT($,.RADIAN.)
);
#468=(
LENGTH_UNIT()
NAMED_UNIT(*)
SI_UNIT(.MILLI.,.METRE.)
);
#469=PRODUCT_DEFINITION_SHAPE('','',#470);
#470=PRODUCT_DEFINITION('','',#472,#471);
#471=PRODUCT_DEFINITION_CONTEXT('',#478,'design');
#472=PRODUCT_DEFINITION_FORMATION_WITH_SPECIFIED_SOURCE('','',#474,
 .NOT_KNOWN.);
#473=PRODUCT_RELATED_PRODUCT_CATEGORY('','',(#474));
#474=PRODUCT('yc','yc','yc',(#476));
#475=PRODUCT_CATEGORY('','');
#476=PRODUCT_CONTEXT('',#478,'mechanical');
#477=APPLICATION_PROTOCOL_DEFINITION('international standard',
'automotive_design',2010,#478);
#478=APPLICATION_CONTEXT(
'core data for automotive mechanical design processes');
ENDSEC;
END-ISO-10303-21;
