ISO-10303-21;
HEADER;
/* Generated by software containing HOOPS Exchange Step
 * from HOOPS Exchange, Inc. (www.tiangong.cloud) 
 */

FILE_DESCRIPTION(
/* description */ ('Unknown'),
/* implementation_level */ '2;1');

FILE_NAME(
/* name */ '\X2\5F0069FD957F570667F17AEF7D275B9A87BA9489\X0\',
/* time_stamp */ '2025-12-25T09:04:46+08:00',
/* author */ ('Unknown'),
/* organization */ ('Unknown'),
/* preprocessor_version */ 'ST-DEVELOPER v19.4',
/* originating_system */ 'TianGong',
/* authorisation */ 'Unknown');

FILE_SCHEMA (('AUTOMOTIVE_DESIGN {1 0 10303 214 3 1 1}'));
ENDSEC;

DATA;
#10=PROPERTY_DEFINITION_REPRESENTATION(#14,#12);
#11=PROPERTY_DEFINITION_REPRESENTATION(#15,#13);
#12=REPRESENTATION('',(#16),#446);
#13=REPRESENTATION('',(#17),#446);
#14=PROPERTY_DEFINITION('pmi validation property','',#451);
#15=PROPERTY_DEFINITION('pmi validation property','',#451);
#16=VALUE_REPRESENTATION_ITEM('number of annotations',COUNT_MEASURE(0.));
#17=VALUE_REPRESENTATION_ITEM('number of views',COUNT_MEASURE(0.));
#18=SHAPE_REPRESENTATION_RELATIONSHIP('','',#295,#19);
#19=ADVANCED_BREP_SHAPE_REPRESENTATION('',(#293),#446);
#20=TOROIDAL_SURFACE('',#319,0.336,0.064);
#21=TOROIDAL_SURFACE('',#320,0.464,0.064);
#22=CYLINDRICAL_SURFACE('',#303,0.4);
#23=CYLINDRICAL_SURFACE('',#309,0.8);
#24=LINE('',#396,#32);
#25=LINE('',#398,#33);
#26=LINE('',#413,#34);
#27=LINE('',#417,#35);
#28=LINE('',#421,#36);
#29=LINE('',#425,#37);
#30=LINE('',#439,#38);
#31=LINE('',#440,#39);
#32=VECTOR('',#331,1000.);
#33=VECTOR('',#334,1000.);
#34=VECTOR('',#351,1000.);
#35=VECTOR('',#354,1000.);
#36=VECTOR('',#357,1000.);
#37=VECTOR('',#360,1000.);
#38=VECTOR('',#369,1000.);
#39=VECTOR('',#370,1000.);
#40=PLANE('',#300);
#41=PLANE('',#301);
#42=PLANE('',#314);
#43=PLANE('',#316);
#44=PLANE('',#317);
#45=PLANE('',#318);
#46=B_SPLINE_CURVE_WITH_KNOTS('',3,(#384,#385,#386,#387),.UNSPECIFIED.,
 .F.,.F.,(4,4),(9.95644879963395E-7,0.000270993808092441),.UNSPECIFIED.);
#47=B_SPLINE_CURVE_WITH_KNOTS('',3,(#391,#392,#393,#394),.UNSPECIFIED.,
 .F.,.F.,(4,4),(0.00182252796658447,0.00209109327310673),.UNSPECIFIED.);
#48=B_SPLINE_CURVE_WITH_KNOTS('',3,(#427,#428,#429,#430),.UNSPECIFIED.,
 .F.,.F.,(4,4),(9.95644879963395E-7,0.000270993808092441),.UNSPECIFIED.);
#49=B_SPLINE_CURVE_WITH_KNOTS('',3,(#431,#432,#433,#434),.UNSPECIFIED.,
 .F.,.F.,(4,4),(0.00182252796658447,0.00209109327310674),.UNSPECIFIED.);
#50=ORIENTED_EDGE('',*,*,#96,.T.);
#51=ORIENTED_EDGE('',*,*,#97,.T.);
#52=ORIENTED_EDGE('',*,*,#98,.F.);
#53=ORIENTED_EDGE('',*,*,#99,.T.);
#54=ORIENTED_EDGE('',*,*,#100,.F.);
#55=ORIENTED_EDGE('',*,*,#98,.T.);
#56=ORIENTED_EDGE('',*,*,#101,.F.);
#57=ORIENTED_EDGE('',*,*,#102,.T.);
#58=ORIENTED_EDGE('',*,*,#103,.T.);
#59=ORIENTED_EDGE('',*,*,#104,.T.);
#60=ORIENTED_EDGE('',*,*,#105,.T.);
#61=ORIENTED_EDGE('',*,*,#106,.F.);
#62=ORIENTED_EDGE('',*,*,#96,.F.);
#63=ORIENTED_EDGE('',*,*,#107,.T.);
#64=ORIENTED_EDGE('',*,*,#108,.F.);
#65=ORIENTED_EDGE('',*,*,#109,.T.);
#66=ORIENTED_EDGE('',*,*,#110,.F.);
#67=ORIENTED_EDGE('',*,*,#111,.T.);
#68=ORIENTED_EDGE('',*,*,#112,.F.);
#69=ORIENTED_EDGE('',*,*,#113,.T.);
#70=ORIENTED_EDGE('',*,*,#106,.T.);
#71=ORIENTED_EDGE('',*,*,#110,.T.);
#72=ORIENTED_EDGE('',*,*,#114,.T.);
#73=ORIENTED_EDGE('',*,*,#102,.F.);
#74=ORIENTED_EDGE('',*,*,#115,.T.);
#75=ORIENTED_EDGE('',*,*,#116,.T.);
#76=ORIENTED_EDGE('',*,*,#117,.T.);
#77=ORIENTED_EDGE('',*,*,#108,.T.);
#78=ORIENTED_EDGE('',*,*,#118,.T.);
#79=ORIENTED_EDGE('',*,*,#112,.T.);
#80=ORIENTED_EDGE('',*,*,#118,.F.);
#81=ORIENTED_EDGE('',*,*,#107,.F.);
#82=ORIENTED_EDGE('',*,*,#99,.F.);
#83=ORIENTED_EDGE('',*,*,#100,.T.);
#84=ORIENTED_EDGE('',*,*,#97,.F.);
#85=ORIENTED_EDGE('',*,*,#113,.F.);
#86=ORIENTED_EDGE('',*,*,#117,.F.);
#87=ORIENTED_EDGE('',*,*,#111,.F.);
#88=ORIENTED_EDGE('',*,*,#115,.F.);
#89=ORIENTED_EDGE('',*,*,#101,.T.);
#90=ORIENTED_EDGE('',*,*,#114,.F.);
#91=ORIENTED_EDGE('',*,*,#109,.F.);
#92=ORIENTED_EDGE('',*,*,#116,.F.);
#93=ORIENTED_EDGE('',*,*,#104,.F.);
#94=ORIENTED_EDGE('',*,*,#103,.F.);
#95=ORIENTED_EDGE('',*,*,#105,.F.);
#96=EDGE_CURVE('',#119,#120,#136,.T.);
#97=EDGE_CURVE('',#120,#121,#46,.T.);
#98=EDGE_CURVE('',#122,#121,#137,.T.);
#99=EDGE_CURVE('',#122,#119,#47,.T.);
#100=EDGE_CURVE('',#122,#121,#24,.T.);
#101=EDGE_CURVE('',#123,#124,#25,.T.);
#102=EDGE_CURVE('',#123,#124,#138,.T.);
#103=EDGE_CURVE('',#125,#125,#139,.F.);
#104=EDGE_CURVE('',#126,#126,#140,.T.);
#105=EDGE_CURVE('',#127,#127,#141,.T.);
#106=EDGE_CURVE('',#128,#128,#142,.T.);
#107=EDGE_CURVE('',#119,#129,#26,.F.);
#108=EDGE_CURVE('',#130,#129,#143,.T.);
#109=EDGE_CURVE('',#130,#131,#27,.T.);
#110=EDGE_CURVE('',#132,#131,#144,.T.);
#111=EDGE_CURVE('',#132,#133,#28,.F.);
#112=EDGE_CURVE('',#134,#133,#145,.T.);
#113=EDGE_CURVE('',#134,#120,#29,.T.);
#114=EDGE_CURVE('',#131,#124,#48,.T.);
#115=EDGE_CURVE('',#123,#132,#49,.T.);
#116=EDGE_CURVE('',#135,#135,#146,.F.);
#117=EDGE_CURVE('',#133,#130,#30,.T.);
#118=EDGE_CURVE('',#129,#134,#31,.T.);
#119=VERTEX_POINT('',#382);
#120=VERTEX_POINT('',#383);
#121=VERTEX_POINT('',#388);
#122=VERTEX_POINT('',#390);
#123=VERTEX_POINT('',#399);
#124=VERTEX_POINT('',#400);
#125=VERTEX_POINT('',#404);
#126=VERTEX_POINT('',#406);
#127=VERTEX_POINT('',#409);
#128=VERTEX_POINT('',#411);
#129=VERTEX_POINT('',#414);
#130=VERTEX_POINT('',#416);
#131=VERTEX_POINT('',#418);
#132=VERTEX_POINT('',#420);
#133=VERTEX_POINT('',#422);
#134=VERTEX_POINT('',#424);
#135=VERTEX_POINT('',#437);
#136=CIRCLE('',#298,0.8);
#137=CIRCLE('',#299,0.6105625);
#138=CIRCLE('',#302,0.6105625);
#139=CIRCLE('',#304,0.4);
#140=CIRCLE('',#305,0.4);
#141=CIRCLE('',#307,0.418745166004061);
#142=CIRCLE('',#308,0.8);
#143=CIRCLE('',#310,0.8);
#144=CIRCLE('',#311,0.8);
#145=CIRCLE('',#312,0.8);
#146=CIRCLE('',#315,0.336);
#147=EDGE_LOOP('',(#50,#51,#52,#53));
#148=EDGE_LOOP('',(#54,#55));
#149=EDGE_LOOP('',(#56,#57));
#150=EDGE_LOOP('',(#58));
#151=EDGE_LOOP('',(#59));
#152=EDGE_LOOP('',(#60));
#153=EDGE_LOOP('',(#61));
#154=EDGE_LOOP('',(#62,#63,#64,#65,#66,#67,#68,#69));
#155=EDGE_LOOP('',(#70));
#156=EDGE_LOOP('',(#71,#72,#73,#74));
#157=EDGE_LOOP('',(#75));
#158=EDGE_LOOP('',(#76,#77,#78,#79));
#159=EDGE_LOOP('',(#80,#81,#82,#83,#84,#85));
#160=EDGE_LOOP('',(#86,#87,#88,#89,#90,#91));
#161=EDGE_LOOP('',(#92));
#162=EDGE_LOOP('',(#93));
#163=EDGE_LOOP('',(#94));
#164=EDGE_LOOP('',(#95));
#165=FACE_BOUND('',#147,.T.);
#166=FACE_BOUND('',#148,.T.);
#167=FACE_BOUND('',#149,.T.);
#168=FACE_BOUND('',#150,.T.);
#169=FACE_BOUND('',#151,.T.);
#170=FACE_BOUND('',#152,.T.);
#171=FACE_BOUND('',#153,.T.);
#172=FACE_BOUND('',#154,.T.);
#173=FACE_BOUND('',#155,.T.);
#174=FACE_BOUND('',#156,.T.);
#175=FACE_BOUND('',#157,.T.);
#176=FACE_BOUND('',#158,.T.);
#177=FACE_BOUND('',#159,.T.);
#178=FACE_BOUND('',#160,.T.);
#179=FACE_BOUND('',#161,.T.);
#180=FACE_BOUND('',#162,.T.);
#181=FACE_BOUND('',#163,.T.);
#182=FACE_BOUND('',#164,.T.);
#183=CONICAL_SURFACE('',#297,0.8,0.785398163397449);
#184=CONICAL_SURFACE('',#306,0.4,0.785398163397448);
#185=CONICAL_SURFACE('',#313,0.8,0.785398163397449);
#186=STYLED_ITEM('',(#199),#279);
#187=STYLED_ITEM('',(#200),#280);
#188=STYLED_ITEM('',(#201),#281);
#189=STYLED_ITEM('',(#202),#282);
#190=STYLED_ITEM('',(#203),#283);
#191=STYLED_ITEM('',(#204),#284);
#192=STYLED_ITEM('',(#205),#285);
#193=STYLED_ITEM('',(#206),#286);
#194=STYLED_ITEM('',(#207),#287);
#195=STYLED_ITEM('',(#208),#288);
#196=STYLED_ITEM('',(#209),#289);
#197=STYLED_ITEM('',(#210),#290);
#198=STYLED_ITEM('',(#211),#291);
#199=PRESENTATION_STYLE_ASSIGNMENT((#212));
#200=PRESENTATION_STYLE_ASSIGNMENT((#213));
#201=PRESENTATION_STYLE_ASSIGNMENT((#214));
#202=PRESENTATION_STYLE_ASSIGNMENT((#215));
#203=PRESENTATION_STYLE_ASSIGNMENT((#216));
#204=PRESENTATION_STYLE_ASSIGNMENT((#217));
#205=PRESENTATION_STYLE_ASSIGNMENT((#218));
#206=PRESENTATION_STYLE_ASSIGNMENT((#219));
#207=PRESENTATION_STYLE_ASSIGNMENT((#220));
#208=PRESENTATION_STYLE_ASSIGNMENT((#221));
#209=PRESENTATION_STYLE_ASSIGNMENT((#222));
#210=PRESENTATION_STYLE_ASSIGNMENT((#223));
#211=PRESENTATION_STYLE_ASSIGNMENT((#224));
#212=SURFACE_STYLE_USAGE(.BOTH.,#225);
#213=SURFACE_STYLE_USAGE(.BOTH.,#226);
#214=SURFACE_STYLE_USAGE(.BOTH.,#227);
#215=SURFACE_STYLE_USAGE(.BOTH.,#228);
#216=SURFACE_STYLE_USAGE(.BOTH.,#229);
#217=SURFACE_STYLE_USAGE(.BOTH.,#230);
#218=SURFACE_STYLE_USAGE(.BOTH.,#231);
#219=SURFACE_STYLE_USAGE(.BOTH.,#232);
#220=SURFACE_STYLE_USAGE(.BOTH.,#233);
#221=SURFACE_STYLE_USAGE(.BOTH.,#234);
#222=SURFACE_STYLE_USAGE(.BOTH.,#235);
#223=SURFACE_STYLE_USAGE(.BOTH.,#236);
#224=SURFACE_STYLE_USAGE(.BOTH.,#237);
#225=SURFACE_SIDE_STYLE('',(#238));
#226=SURFACE_SIDE_STYLE('',(#239));
#227=SURFACE_SIDE_STYLE('',(#240));
#228=SURFACE_SIDE_STYLE('',(#241));
#229=SURFACE_SIDE_STYLE('',(#242));
#230=SURFACE_SIDE_STYLE('',(#243));
#231=SURFACE_SIDE_STYLE('',(#244));
#232=SURFACE_SIDE_STYLE('',(#245));
#233=SURFACE_SIDE_STYLE('',(#246));
#234=SURFACE_SIDE_STYLE('',(#247));
#235=SURFACE_SIDE_STYLE('',(#248));
#236=SURFACE_SIDE_STYLE('',(#249));
#237=SURFACE_SIDE_STYLE('',(#250));
#238=SURFACE_STYLE_FILL_AREA(#251);
#239=SURFACE_STYLE_FILL_AREA(#252);
#240=SURFACE_STYLE_FILL_AREA(#253);
#241=SURFACE_STYLE_FILL_AREA(#254);
#242=SURFACE_STYLE_FILL_AREA(#255);
#243=SURFACE_STYLE_FILL_AREA(#256);
#244=SURFACE_STYLE_FILL_AREA(#257);
#245=SURFACE_STYLE_FILL_AREA(#258);
#246=SURFACE_STYLE_FILL_AREA(#259);
#247=SURFACE_STYLE_FILL_AREA(#260);
#248=SURFACE_STYLE_FILL_AREA(#261);
#249=SURFACE_STYLE_FILL_AREA(#262);
#250=SURFACE_STYLE_FILL_AREA(#263);
#251=FILL_AREA_STYLE('',(#264));
#252=FILL_AREA_STYLE('',(#265));
#253=FILL_AREA_STYLE('',(#266));
#254=FILL_AREA_STYLE('',(#267));
#255=FILL_AREA_STYLE('',(#268));
#256=FILL_AREA_STYLE('',(#269));
#257=FILL_AREA_STYLE('',(#270));
#258=FILL_AREA_STYLE('',(#271));
#259=FILL_AREA_STYLE('',(#272));
#260=FILL_AREA_STYLE('',(#273));
#261=FILL_AREA_STYLE('',(#274));
#262=FILL_AREA_STYLE('',(#275));
#263=FILL_AREA_STYLE('',(#276));
#264=FILL_AREA_STYLE_COLOUR('',#277);
#265=FILL_AREA_STYLE_COLOUR('',#277);
#266=FILL_AREA_STYLE_COLOUR('',#277);
#267=FILL_AREA_STYLE_COLOUR('',#277);
#268=FILL_AREA_STYLE_COLOUR('',#277);
#269=FILL_AREA_STYLE_COLOUR('',#278);
#270=FILL_AREA_STYLE_COLOUR('',#277);
#271=FILL_AREA_STYLE_COLOUR('',#277);
#272=FILL_AREA_STYLE_COLOUR('',#277);
#273=FILL_AREA_STYLE_COLOUR('',#277);
#274=FILL_AREA_STYLE_COLOUR('',#277);
#275=FILL_AREA_STYLE_COLOUR('',#277);
#276=FILL_AREA_STYLE_COLOUR('',#277);
#277=COLOUR_RGB('',0.506983280181885,0.531564235687256,0.550000011920929);
#278=COLOUR_RGB('',0.1875,0.75,0.581249892711639);
#279=ADVANCED_FACE('',(#165),#183,.T.);
#280=ADVANCED_FACE('',(#166),#40,.F.);
#281=ADVANCED_FACE('',(#167),#41,.F.);
#282=ADVANCED_FACE('',(#168,#169),#22,.T.);
#283=ADVANCED_FACE('',(#170,#171),#184,.T.);
#284=ADVANCED_FACE('',(#172,#173),#23,.T.);
#285=ADVANCED_FACE('',(#174),#185,.T.);
#286=ADVANCED_FACE('',(#175),#42,.F.);
#287=ADVANCED_FACE('',(#176),#43,.T.);
#288=ADVANCED_FACE('',(#177),#44,.F.);
#289=ADVANCED_FACE('',(#178),#45,.F.);
#290=ADVANCED_FACE('',(#179,#180),#20,.T.);
#291=ADVANCED_FACE('',(#181,#182),#21,.F.);
#292=CLOSED_SHELL('',(#279,#280,#281,#282,#283,#284,#285,#286,#287,#288,
#289,#290,#291));
#293=MANIFOLD_SOLID_BREP('',#292);
#294=SHAPE_DEFINITION_REPRESENTATION(#451,#295);
#295=SHAPE_REPRESENTATION('\X2\5F0069FD957F570667F17AEF7D275B9A87BA9489\X0\',
(#296),#446);
#296=AXIS2_PLACEMENT_3D('',#379,#321,#322);
#297=AXIS2_PLACEMENT_3D('',#380,#323,#324);
#298=AXIS2_PLACEMENT_3D('',#381,#325,#326);
#299=AXIS2_PLACEMENT_3D('',#389,#327,#328);
#300=AXIS2_PLACEMENT_3D('',#395,#329,#330);
#301=AXIS2_PLACEMENT_3D('',#397,#332,#333);
#302=AXIS2_PLACEMENT_3D('',#401,#335,#336);
#303=AXIS2_PLACEMENT_3D('',#402,#337,#338);
#304=AXIS2_PLACEMENT_3D('',#403,#339,#340);
#305=AXIS2_PLACEMENT_3D('',#405,#341,#342);
#306=AXIS2_PLACEMENT_3D('',#407,#343,#344);
#307=AXIS2_PLACEMENT_3D('',#408,#345,#346);
#308=AXIS2_PLACEMENT_3D('',#410,#347,#348);
#309=AXIS2_PLACEMENT_3D('',#412,#349,#350);
#310=AXIS2_PLACEMENT_3D('',#415,#352,#353);
#311=AXIS2_PLACEMENT_3D('',#419,#355,#356);
#312=AXIS2_PLACEMENT_3D('',#423,#358,#359);
#313=AXIS2_PLACEMENT_3D('',#426,#361,#362);
#314=AXIS2_PLACEMENT_3D('',#435,#363,#364);
#315=AXIS2_PLACEMENT_3D('',#436,#365,#366);
#316=AXIS2_PLACEMENT_3D('',#438,#367,#368);
#317=AXIS2_PLACEMENT_3D('',#441,#371,#372);
#318=AXIS2_PLACEMENT_3D('',#442,#373,#374);
#319=AXIS2_PLACEMENT_3D('',#443,#375,#376);
#320=AXIS2_PLACEMENT_3D('',#444,#377,#378);
#321=DIRECTION('',(0.,0.,1.));
#322=DIRECTION('',(1.,0.,0.));
#323=DIRECTION('',(1.,0.,0.));
#324=DIRECTION('',(0.,0.,-1.));
#325=DIRECTION('',(-1.,0.,0.));
#326=DIRECTION('',(0.,0.,1.));
#327=DIRECTION('',(-1.,0.,0.));
#328=DIRECTION('',(0.,0.,1.));
#329=DIRECTION('',(1.,0.,0.));
#330=DIRECTION('',(0.,0.,-1.));
#331=DIRECTION('',(0.,-1.,0.));
#332=DIRECTION('',(1.,0.,0.));
#333=DIRECTION('',(0.,0.,-1.));
#334=DIRECTION('',(0.,1.,-1.35525271560688E-16));
#335=DIRECTION('',(-1.,0.,0.));
#336=DIRECTION('',(0.,0.,1.));
#337=DIRECTION('',(-1.,0.,0.));
#338=DIRECTION('',(0.,0.,1.));
#339=DIRECTION('',(-1.,0.,0.));
#340=DIRECTION('',(0.,0.,1.));
#341=DIRECTION('',(-1.,0.,0.));
#342=DIRECTION('',(0.,0.,1.));
#343=DIRECTION('',(-1.,0.,0.));
#344=DIRECTION('',(0.,0.,1.));
#345=DIRECTION('',(-1.,0.,0.));
#346=DIRECTION('',(0.,0.,1.));
#347=DIRECTION('',(-1.,0.,0.));
#348=DIRECTION('',(0.,0.,1.));
#349=DIRECTION('',(-1.,0.,0.));
#350=DIRECTION('',(0.,0.,1.));
#351=DIRECTION('',(-1.,0.,0.));
#352=DIRECTION('',(-1.,0.,0.));
#353=DIRECTION('',(0.,0.,1.));
#354=DIRECTION('',(-1.,0.,0.));
#355=DIRECTION('',(-1.,0.,0.));
#356=DIRECTION('',(0.,0.,1.));
#357=DIRECTION('',(-1.,0.,0.));
#358=DIRECTION('',(-1.,0.,0.));
#359=DIRECTION('',(0.,0.,1.));
#360=DIRECTION('',(-1.,0.,0.));
#361=DIRECTION('',(1.,0.,0.));
#362=DIRECTION('',(0.,0.,-1.));
#363=DIRECTION('',(-1.,0.,0.));
#364=DIRECTION('',(0.,0.,1.));
#365=DIRECTION('',(-1.,0.,0.));
#366=DIRECTION('',(0.,0.,1.));
#367=DIRECTION('',(-1.,0.,0.));
#368=DIRECTION('',(0.,0.,1.));
#369=DIRECTION('',(0.,1.,-1.35525271560688E-16));
#370=DIRECTION('',(0.,-1.,0.));
#371=DIRECTION('',(0.,0.,-1.));
#372=DIRECTION('',(-1.,0.,0.));
#373=DIRECTION('',(0.,1.35525271560688E-16,1.));
#374=DIRECTION('',(0.,-1.,1.35525271560688E-16));
#375=DIRECTION('',(-1.,0.,0.));
#376=DIRECTION('',(0.,0.,1.));
#377=DIRECTION('',(-1.,0.,0.));
#378=DIRECTION('',(0.,0.,1.));
#379=CARTESIAN_POINT('',(0.,0.,0.));
#380=CARTESIAN_POINT('',(0.1894375,0.,0.));
#381=CARTESIAN_POINT('',(0.1894375,0.,0.));
#382=CARTESIAN_POINT('',(0.1894375,0.790174031463955,-0.125));
#383=CARTESIAN_POINT('',(0.1894375,-0.790174031463955,-0.125));
#384=CARTESIAN_POINT('',(0.189437499999996,-0.790174031463959,-0.125));
#385=CARTESIAN_POINT('',(0.126162718761031,-0.726112415952008,-0.125));
#386=CARTESIAN_POINT('',(0.0629761457318143,-0.661968889362152,-0.125));
#387=CARTESIAN_POINT('',(4.9106536722968E-17,-0.597629957755006,-0.125));
#388=CARTESIAN_POINT('',(0.,-0.597629957755006,-0.125));
#389=CARTESIAN_POINT('',(0.,0.,0.));
#390=CARTESIAN_POINT('',(0.,0.597629957755006,-0.125));
#391=CARTESIAN_POINT('',(-4.22552400277775E-17,0.597629957755006,-0.125));
#392=CARTESIAN_POINT('',(0.0629804751705121,0.661973312488671,-0.125));
#393=CARTESIAN_POINT('',(0.126166023961533,0.726115762253317,-0.125));
#394=CARTESIAN_POINT('',(0.1894375,0.790174031463956,-0.125));
#395=CARTESIAN_POINT('',(0.,0.,0.));
#396=CARTESIAN_POINT('',(0.,0.800000000000001,-0.125));
#397=CARTESIAN_POINT('',(0.,0.,0.));
#398=CARTESIAN_POINT('',(0.,-0.799999999999999,0.125));
#399=CARTESIAN_POINT('',(0.,-0.597629957755006,0.125));
#400=CARTESIAN_POINT('',(0.,0.597629957755006,0.125));
#401=CARTESIAN_POINT('',(0.,0.,0.));
#402=CARTESIAN_POINT('',(0.,0.,0.));
#403=CARTESIAN_POINT('',(1.72650966799188,0.,0.));
#404=CARTESIAN_POINT('',(1.72650966799188,0.,0.4));
#405=CARTESIAN_POINT('',(2.436,0.,0.));
#406=CARTESIAN_POINT('',(2.436,0.,0.4));
#407=CARTESIAN_POINT('',(1.7,0.,0.));
#408=CARTESIAN_POINT('',(1.68125483399594,0.,0.));
#409=CARTESIAN_POINT('',(1.68125483399594,0.,0.418745166004061));
#410=CARTESIAN_POINT('',(1.3,0.,0.));
#411=CARTESIAN_POINT('',(1.3,0.,0.8));
#412=CARTESIAN_POINT('',(0.,0.,0.));
#413=CARTESIAN_POINT('',(0.,0.790174031463955,-0.125));
#414=CARTESIAN_POINT('',(0.56,0.790174031463955,-0.125));
#415=CARTESIAN_POINT('',(0.56,0.,0.));
#416=CARTESIAN_POINT('',(0.56,0.790174031463956,0.125));
#417=CARTESIAN_POINT('',(0.,0.790174031463956,0.125));
#418=CARTESIAN_POINT('',(0.1894375,0.790174031463956,0.125));
#419=CARTESIAN_POINT('',(0.1894375,0.,0.));
#420=CARTESIAN_POINT('',(0.1894375,-0.790174031463956,0.125));
#421=CARTESIAN_POINT('',(0.,-0.790174031463956,0.125));
#422=CARTESIAN_POINT('',(0.56,-0.790174031463956,0.125));
#423=CARTESIAN_POINT('',(0.56,0.,0.));
#424=CARTESIAN_POINT('',(0.56,-0.790174031463955,-0.125));
#425=CARTESIAN_POINT('',(0.,-0.790174031463955,-0.125));
#426=CARTESIAN_POINT('',(0.1894375,0.,0.));
#427=CARTESIAN_POINT('',(0.189437499999996,0.790174031463959,0.125));
#428=CARTESIAN_POINT('',(0.126162718761031,0.726112415952008,0.125));
#429=CARTESIAN_POINT('',(0.0629761457318143,0.661968889362152,0.125));
#430=CARTESIAN_POINT('',(-4.17813798395743E-17,0.597629957755006,0.125));
#431=CARTESIAN_POINT('',(-5.03956997271158E-17,-0.597629957755006,0.125));
#432=CARTESIAN_POINT('',(0.0629804751705121,-0.661973312488671,0.125));
#433=CARTESIAN_POINT('',(0.126166023961533,-0.726115762253317,0.125));
#434=CARTESIAN_POINT('',(0.1894375,-0.790174031463956,0.125));
#435=CARTESIAN_POINT('',(2.5,0.,0.));
#436=CARTESIAN_POINT('',(2.5,0.,0.));
#437=CARTESIAN_POINT('',(2.5,0.,0.336));
#438=CARTESIAN_POINT('',(0.56,0.,0.));
#439=CARTESIAN_POINT('',(0.56,-0.799999999999999,0.125));
#440=CARTESIAN_POINT('',(0.56,0.800000000000001,-0.125));
#441=CARTESIAN_POINT('',(0.56,0.800000000000001,-0.125));
#442=CARTESIAN_POINT('',(0.56,-0.799999999999999,0.125));
#443=CARTESIAN_POINT('',(2.436,0.,0.));
#444=CARTESIAN_POINT('',(1.72650966799188,0.,0.));
#445=MECHANICAL_DESIGN_GEOMETRIC_PRESENTATION_REPRESENTATION('',(#186,#187,
#188,#189,#190,#191,#192,#193,#194,#195,#196,#197,#198),#446);
#446=(
GEOMETRIC_REPRESENTATION_CONTEXT(3)
GLOBAL_UNCERTAINTY_ASSIGNED_CONTEXT((#447))
GLOBAL_UNIT_ASSIGNED_CONTEXT((#450,#449,#448))
REPRESENTATION_CONTEXT('\X2\5F0069FD957F570667F17AEF7D275B9A87BA9489\X0\',
'TOP_LEVEL_ASSEMBLY_PART')
);
#447=UNCERTAINTY_MEASURE_WITH_UNIT(LENGTH_MEASURE(0.005),#450,
'DISTANCE_ACCURACY_VALUE','Maximum Tolerance applied to model');
#448=(
NAMED_UNIT(*)
SI_UNIT($,.STERADIAN.)
SOLID_ANGLE_UNIT()
);
#449=(
NAMED_UNIT(*)
PLANE_ANGLE_UNIT()
SI_UNIT($,.RADIAN.)
);
#450=(
LENGTH_UNIT()
NAMED_UNIT(*)
SI_UNIT(.MILLI.,.METRE.)
);
#451=PRODUCT_DEFINITION_SHAPE('','',#452);
#452=PRODUCT_DEFINITION('','',#454,#453);
#453=PRODUCT_DEFINITION_CONTEXT('',#460,'design');
#454=PRODUCT_DEFINITION_FORMATION_WITH_SPECIFIED_SOURCE('','',#456,
 .NOT_KNOWN.);
#455=PRODUCT_RELATED_PRODUCT_CATEGORY('','',(#456));
#456=PRODUCT('\X2\5F0069FD957F570667F17AEF7D275B9A87BA9489\X0\',
'\X2\5F0069FD957F570667F17AEF7D275B9A87BA9489\X0\',
'\X2\5F0069FD957F570667F17AEF7D275B9A87BA9489\X0\',(#458));
#457=PRODUCT_CATEGORY('','');
#458=PRODUCT_CONTEXT('',#460,'mechanical');
#459=APPLICATION_PROTOCOL_DEFINITION('international standard',
'automotive_design',2010,#460);
#460=APPLICATION_CONTEXT(
'core data for automotive mechanical design processes');
ENDSEC;
END-ISO-10303-21;
