ISO-10303-21;
HEADER;
/* Generated by software containing HOOPS Exchange Step
 * from HOOPS Exchange, Inc. (www.tiangong.cloud) 
 */

FILE_DESCRIPTION(
/* description */ ('Unknown'),
/* implementation_level */ '2;1');

FILE_NAME(
/* name */ 'tmpA327.tmp',
/* time_stamp */ '2025-01-19T18:28:43+08:00',
/* author */ ('Unknown'),
/* organization */ ('Unknown'),
/* preprocessor_version */ 'ST-DEVELOPER v18.104',
/* originating_system */ 'TianGong',
/* authorisation */ 'Unknown');

FILE_SCHEMA (('AUTOMOTIVE_DESIGN {1 0 10303 214 3 1 1}'));
ENDSEC;

DATA;
#10=PROPERTY_DEFINITION_REPRESENTATION(#14,#12);
#11=PROPERTY_DEFINITION_REPRESENTATION(#15,#13);
#12=REPRESENTATION('',(#16),#925);
#13=REPRESENTATION('',(#17),#925);
#14=PROPERTY_DEFINITION('pmi validation property','',#930);
#15=PROPERTY_DEFINITION('pmi validation property','',#930);
#16=VALUE_REPRESENTATION_ITEM('number of annotations',COUNT_MEASURE(0.));
#17=VALUE_REPRESENTATION_ITEM('number of views',COUNT_MEASURE(0.));
#18=SHAPE_REPRESENTATION_RELATIONSHIP('','',#631,#19);
#19=ADVANCED_BREP_SHAPE_REPRESENTATION('',(#629),#925);
#20=CONICAL_SURFACE('',#673,1.9,0.785398163397448);
#21=LINE('',#821,#61);
#22=LINE('',#826,#62);
#23=LINE('',#828,#63);
#24=LINE('',#830,#64);
#25=LINE('',#834,#65);
#26=LINE('',#836,#66);
#27=LINE('',#838,#67);
#28=LINE('',#842,#68);
#29=LINE('',#844,#69);
#30=LINE('',#846,#70);
#31=LINE('',#850,#71);
#32=LINE('',#852,#72);
#33=LINE('',#856,#73);
#34=LINE('',#858,#74);
#35=LINE('',#860,#75);
#36=LINE('',#865,#76);
#37=LINE('',#866,#77);
#38=LINE('',#868,#78);
#39=LINE('',#870,#79);
#40=LINE('',#872,#80);
#41=LINE('',#874,#81);
#42=LINE('',#876,#82);
#43=LINE('',#881,#83);
#44=LINE('',#882,#84);
#45=LINE('',#884,#85);
#46=LINE('',#886,#86);
#47=LINE('',#888,#87);
#48=LINE('',#890,#88);
#49=LINE('',#892,#89);
#50=LINE('',#897,#90);
#51=LINE('',#898,#91);
#52=LINE('',#900,#92);
#53=LINE('',#902,#93);
#54=LINE('',#904,#94);
#55=LINE('',#906,#95);
#56=LINE('',#908,#96);
#57=LINE('',#913,#97);
#58=LINE('',#914,#98);
#59=LINE('',#916,#99);
#60=LINE('',#918,#100);
#61=VECTOR('',#703,1000.);
#62=VECTOR('',#706,1000.);
#63=VECTOR('',#707,1000.);
#64=VECTOR('',#708,1000.);
#65=VECTOR('',#711,1000.);
#66=VECTOR('',#712,1000.);
#67=VECTOR('',#713,1000.);
#68=VECTOR('',#716,1000.);
#69=VECTOR('',#717,1000.);
#70=VECTOR('',#718,1000.);
#71=VECTOR('',#721,1000.);
#72=VECTOR('',#722,1000.);
#73=VECTOR('',#727,1000.);
#74=VECTOR('',#728,1000.);
#75=VECTOR('',#729,1000.);
#76=VECTOR('',#734,1000.);
#77=VECTOR('',#735,1000.);
#78=VECTOR('',#738,1000.);
#79=VECTOR('',#741,1000.);
#80=VECTOR('',#742,1000.);
#81=VECTOR('',#745,1000.);
#82=VECTOR('',#746,1000.);
#83=VECTOR('',#751,1000.);
#84=VECTOR('',#752,1000.);
#85=VECTOR('',#755,1000.);
#86=VECTOR('',#758,1000.);
#87=VECTOR('',#759,1000.);
#88=VECTOR('',#762,1000.);
#89=VECTOR('',#763,1000.);
#90=VECTOR('',#768,1000.);
#91=VECTOR('',#769,1000.);
#92=VECTOR('',#772,1000.);
#93=VECTOR('',#775,1000.);
#94=VECTOR('',#776,1000.);
#95=VECTOR('',#779,1000.);
#96=VECTOR('',#780,1000.);
#97=VECTOR('',#785,1000.);
#98=VECTOR('',#786,1000.);
#99=VECTOR('',#789,1000.);
#100=VECTOR('',#792,1000.);
#101=PLANE('',#636);
#102=PLANE('',#640);
#103=PLANE('',#644);
#104=PLANE('',#645);
#105=PLANE('',#651);
#106=PLANE('',#654);
#107=PLANE('',#655);
#108=PLANE('',#656);
#109=PLANE('',#659);
#110=PLANE('',#660);
#111=PLANE('',#661);
#112=PLANE('',#664);
#113=PLANE('',#665);
#114=PLANE('',#666);
#115=PLANE('',#669);
#116=PLANE('',#670);
#117=PLANE('',#674);
#118=ORIENTED_EDGE('',*,*,#230,.T.);
#119=ORIENTED_EDGE('',*,*,#231,.F.);
#120=ORIENTED_EDGE('',*,*,#232,.T.);
#121=ORIENTED_EDGE('',*,*,#230,.F.);
#122=ORIENTED_EDGE('',*,*,#233,.T.);
#123=ORIENTED_EDGE('',*,*,#232,.F.);
#124=ORIENTED_EDGE('',*,*,#233,.F.);
#125=ORIENTED_EDGE('',*,*,#234,.F.);
#126=ORIENTED_EDGE('',*,*,#235,.T.);
#127=ORIENTED_EDGE('',*,*,#231,.T.);
#128=ORIENTED_EDGE('',*,*,#235,.F.);
#129=ORIENTED_EDGE('',*,*,#236,.T.);
#130=ORIENTED_EDGE('',*,*,#237,.T.);
#131=ORIENTED_EDGE('',*,*,#238,.T.);
#132=ORIENTED_EDGE('',*,*,#239,.T.);
#133=ORIENTED_EDGE('',*,*,#240,.T.);
#134=ORIENTED_EDGE('',*,*,#241,.T.);
#135=ORIENTED_EDGE('',*,*,#242,.T.);
#136=ORIENTED_EDGE('',*,*,#243,.T.);
#137=ORIENTED_EDGE('',*,*,#244,.T.);
#138=ORIENTED_EDGE('',*,*,#245,.T.);
#139=ORIENTED_EDGE('',*,*,#246,.T.);
#140=ORIENTED_EDGE('',*,*,#247,.T.);
#141=ORIENTED_EDGE('',*,*,#248,.T.);
#142=ORIENTED_EDGE('',*,*,#249,.T.);
#143=ORIENTED_EDGE('',*,*,#250,.T.);
#144=ORIENTED_EDGE('',*,*,#251,.T.);
#145=ORIENTED_EDGE('',*,*,#252,.T.);
#146=ORIENTED_EDGE('',*,*,#253,.T.);
#147=ORIENTED_EDGE('',*,*,#254,.T.);
#148=ORIENTED_EDGE('',*,*,#255,.F.);
#149=ORIENTED_EDGE('',*,*,#251,.F.);
#150=ORIENTED_EDGE('',*,*,#256,.F.);
#151=ORIENTED_EDGE('',*,*,#257,.F.);
#152=ORIENTED_EDGE('',*,*,#249,.F.);
#153=ORIENTED_EDGE('',*,*,#258,.F.);
#154=ORIENTED_EDGE('',*,*,#257,.T.);
#155=ORIENTED_EDGE('',*,*,#259,.T.);
#156=ORIENTED_EDGE('',*,*,#253,.F.);
#157=ORIENTED_EDGE('',*,*,#250,.F.);
#158=ORIENTED_EDGE('',*,*,#260,.T.);
#159=ORIENTED_EDGE('',*,*,#261,.T.);
#160=ORIENTED_EDGE('',*,*,#258,.T.);
#161=ORIENTED_EDGE('',*,*,#248,.F.);
#162=ORIENTED_EDGE('',*,*,#262,.T.);
#163=ORIENTED_EDGE('',*,*,#263,.T.);
#164=ORIENTED_EDGE('',*,*,#260,.F.);
#165=ORIENTED_EDGE('',*,*,#247,.F.);
#166=ORIENTED_EDGE('',*,*,#264,.F.);
#167=ORIENTED_EDGE('',*,*,#265,.F.);
#168=ORIENTED_EDGE('',*,*,#245,.F.);
#169=ORIENTED_EDGE('',*,*,#266,.F.);
#170=ORIENTED_EDGE('',*,*,#265,.T.);
#171=ORIENTED_EDGE('',*,*,#267,.T.);
#172=ORIENTED_EDGE('',*,*,#262,.F.);
#173=ORIENTED_EDGE('',*,*,#246,.F.);
#174=ORIENTED_EDGE('',*,*,#268,.T.);
#175=ORIENTED_EDGE('',*,*,#269,.T.);
#176=ORIENTED_EDGE('',*,*,#266,.T.);
#177=ORIENTED_EDGE('',*,*,#244,.F.);
#178=ORIENTED_EDGE('',*,*,#270,.T.);
#179=ORIENTED_EDGE('',*,*,#271,.T.);
#180=ORIENTED_EDGE('',*,*,#268,.F.);
#181=ORIENTED_EDGE('',*,*,#243,.F.);
#182=ORIENTED_EDGE('',*,*,#272,.F.);
#183=ORIENTED_EDGE('',*,*,#273,.F.);
#184=ORIENTED_EDGE('',*,*,#241,.F.);
#185=ORIENTED_EDGE('',*,*,#274,.F.);
#186=ORIENTED_EDGE('',*,*,#273,.T.);
#187=ORIENTED_EDGE('',*,*,#275,.T.);
#188=ORIENTED_EDGE('',*,*,#270,.F.);
#189=ORIENTED_EDGE('',*,*,#242,.F.);
#190=ORIENTED_EDGE('',*,*,#276,.T.);
#191=ORIENTED_EDGE('',*,*,#277,.T.);
#192=ORIENTED_EDGE('',*,*,#274,.T.);
#193=ORIENTED_EDGE('',*,*,#240,.F.);
#194=ORIENTED_EDGE('',*,*,#278,.T.);
#195=ORIENTED_EDGE('',*,*,#279,.T.);
#196=ORIENTED_EDGE('',*,*,#276,.F.);
#197=ORIENTED_EDGE('',*,*,#239,.F.);
#198=ORIENTED_EDGE('',*,*,#280,.F.);
#199=ORIENTED_EDGE('',*,*,#281,.F.);
#200=ORIENTED_EDGE('',*,*,#237,.F.);
#201=ORIENTED_EDGE('',*,*,#282,.F.);
#202=ORIENTED_EDGE('',*,*,#281,.T.);
#203=ORIENTED_EDGE('',*,*,#283,.T.);
#204=ORIENTED_EDGE('',*,*,#278,.F.);
#205=ORIENTED_EDGE('',*,*,#238,.F.);
#206=ORIENTED_EDGE('',*,*,#255,.T.);
#207=ORIENTED_EDGE('',*,*,#284,.T.);
#208=ORIENTED_EDGE('',*,*,#282,.T.);
#209=ORIENTED_EDGE('',*,*,#236,.F.);
#210=ORIENTED_EDGE('',*,*,#285,.T.);
#211=ORIENTED_EDGE('',*,*,#252,.F.);
#212=ORIENTED_EDGE('',*,*,#285,.F.);
#213=ORIENTED_EDGE('',*,*,#234,.T.);
#214=ORIENTED_EDGE('',*,*,#275,.F.);
#215=ORIENTED_EDGE('',*,*,#272,.T.);
#216=ORIENTED_EDGE('',*,*,#277,.F.);
#217=ORIENTED_EDGE('',*,*,#279,.F.);
#218=ORIENTED_EDGE('',*,*,#283,.F.);
#219=ORIENTED_EDGE('',*,*,#280,.T.);
#220=ORIENTED_EDGE('',*,*,#284,.F.);
#221=ORIENTED_EDGE('',*,*,#254,.F.);
#222=ORIENTED_EDGE('',*,*,#259,.F.);
#223=ORIENTED_EDGE('',*,*,#256,.T.);
#224=ORIENTED_EDGE('',*,*,#261,.F.);
#225=ORIENTED_EDGE('',*,*,#263,.F.);
#226=ORIENTED_EDGE('',*,*,#267,.F.);
#227=ORIENTED_EDGE('',*,*,#264,.T.);
#228=ORIENTED_EDGE('',*,*,#269,.F.);
#229=ORIENTED_EDGE('',*,*,#271,.F.);
#230=EDGE_CURVE('',#286,#286,#326,.T.);
#231=EDGE_CURVE('',#287,#287,#327,.T.);
#232=EDGE_CURVE('',#288,#288,#328,.T.);
#233=EDGE_CURVE('',#289,#289,#329,.T.);
#234=EDGE_CURVE('',#290,#290,#330,.T.);
#235=EDGE_CURVE('',#291,#291,#331,.T.);
#236=EDGE_CURVE('',#292,#293,#21,.F.);
#237=EDGE_CURVE('',#293,#294,#332,.T.);
#238=EDGE_CURVE('',#294,#295,#22,.F.);
#239=EDGE_CURVE('',#295,#296,#23,.F.);
#240=EDGE_CURVE('',#296,#297,#24,.F.);
#241=EDGE_CURVE('',#297,#298,#333,.T.);
#242=EDGE_CURVE('',#298,#299,#25,.F.);
#243=EDGE_CURVE('',#299,#300,#26,.F.);
#244=EDGE_CURVE('',#300,#301,#27,.F.);
#245=EDGE_CURVE('',#301,#302,#334,.T.);
#246=EDGE_CURVE('',#302,#303,#28,.F.);
#247=EDGE_CURVE('',#303,#304,#29,.F.);
#248=EDGE_CURVE('',#304,#305,#30,.F.);
#249=EDGE_CURVE('',#305,#306,#335,.T.);
#250=EDGE_CURVE('',#306,#307,#31,.F.);
#251=EDGE_CURVE('',#307,#292,#32,.F.);
#252=EDGE_CURVE('',#308,#308,#336,.T.);
#253=EDGE_CURVE('',#307,#309,#33,.T.);
#254=EDGE_CURVE('',#309,#310,#34,.F.);
#255=EDGE_CURVE('',#292,#310,#35,.T.);
#256=EDGE_CURVE('',#311,#312,#337,.F.);
#257=EDGE_CURVE('',#306,#311,#36,.F.);
#258=EDGE_CURVE('',#312,#305,#37,.T.);
#259=EDGE_CURVE('',#311,#309,#38,.F.);
#260=EDGE_CURVE('',#304,#313,#39,.T.);
#261=EDGE_CURVE('',#313,#312,#40,.F.);
#262=EDGE_CURVE('',#303,#314,#41,.T.);
#263=EDGE_CURVE('',#314,#313,#42,.F.);
#264=EDGE_CURVE('',#315,#316,#338,.F.);
#265=EDGE_CURVE('',#302,#315,#43,.F.);
#266=EDGE_CURVE('',#316,#301,#44,.T.);
#267=EDGE_CURVE('',#315,#314,#45,.F.);
#268=EDGE_CURVE('',#300,#317,#46,.T.);
#269=EDGE_CURVE('',#317,#316,#47,.F.);
#270=EDGE_CURVE('',#299,#318,#48,.T.);
#271=EDGE_CURVE('',#318,#317,#49,.F.);
#272=EDGE_CURVE('',#319,#320,#339,.F.);
#273=EDGE_CURVE('',#298,#319,#50,.F.);
#274=EDGE_CURVE('',#320,#297,#51,.T.);
#275=EDGE_CURVE('',#319,#318,#52,.F.);
#276=EDGE_CURVE('',#296,#321,#53,.T.);
#277=EDGE_CURVE('',#321,#320,#54,.F.);
#278=EDGE_CURVE('',#295,#322,#55,.T.);
#279=EDGE_CURVE('',#322,#321,#56,.F.);
#280=EDGE_CURVE('',#323,#324,#340,.F.);
#281=EDGE_CURVE('',#294,#323,#57,.F.);
#282=EDGE_CURVE('',#324,#293,#58,.T.);
#283=EDGE_CURVE('',#323,#322,#59,.F.);
#284=EDGE_CURVE('',#310,#324,#60,.F.);
#285=EDGE_CURVE('',#325,#325,#341,.T.);
#286=VERTEX_POINT('',#804);
#287=VERTEX_POINT('',#806);
#288=VERTEX_POINT('',#809);
#289=VERTEX_POINT('',#812);
#290=VERTEX_POINT('',#816);
#291=VERTEX_POINT('',#818);
#292=VERTEX_POINT('',#822);
#293=VERTEX_POINT('',#823);
#294=VERTEX_POINT('',#825);
#295=VERTEX_POINT('',#827);
#296=VERTEX_POINT('',#829);
#297=VERTEX_POINT('',#831);
#298=VERTEX_POINT('',#833);
#299=VERTEX_POINT('',#835);
#300=VERTEX_POINT('',#837);
#301=VERTEX_POINT('',#839);
#302=VERTEX_POINT('',#841);
#303=VERTEX_POINT('',#843);
#304=VERTEX_POINT('',#845);
#305=VERTEX_POINT('',#847);
#306=VERTEX_POINT('',#849);
#307=VERTEX_POINT('',#851);
#308=VERTEX_POINT('',#854);
#309=VERTEX_POINT('',#857);
#310=VERTEX_POINT('',#859);
#311=VERTEX_POINT('',#863);
#312=VERTEX_POINT('',#864);
#313=VERTEX_POINT('',#871);
#314=VERTEX_POINT('',#875);
#315=VERTEX_POINT('',#879);
#316=VERTEX_POINT('',#880);
#317=VERTEX_POINT('',#887);
#318=VERTEX_POINT('',#891);
#319=VERTEX_POINT('',#895);
#320=VERTEX_POINT('',#896);
#321=VERTEX_POINT('',#903);
#322=VERTEX_POINT('',#907);
#323=VERTEX_POINT('',#911);
#324=VERTEX_POINT('',#912);
#325=VERTEX_POINT('',#921);
#326=CIRCLE('',#634,0.875);
#327=CIRCLE('',#635,0.875);
#328=CIRCLE('',#637,1.);
#329=CIRCLE('',#639,1.);
#330=CIRCLE('',#642,1.);
#331=CIRCLE('',#643,1.);
#332=CIRCLE('',#646,0.38);
#333=CIRCLE('',#647,0.38);
#334=CIRCLE('',#648,0.38);
#335=CIRCLE('',#649,0.38);
#336=CIRCLE('',#650,1.9);
#337=CIRCLE('',#653,0.38);
#338=CIRCLE('',#658,0.38);
#339=CIRCLE('',#663,0.38);
#340=CIRCLE('',#668,0.38);
#341=CIRCLE('',#672,1.9);
#342=EDGE_LOOP('',(#118));
#343=EDGE_LOOP('',(#119));
#344=EDGE_LOOP('',(#120));
#345=EDGE_LOOP('',(#121));
#346=EDGE_LOOP('',(#122));
#347=EDGE_LOOP('',(#123));
#348=EDGE_LOOP('',(#124));
#349=EDGE_LOOP('',(#125));
#350=EDGE_LOOP('',(#126));
#351=EDGE_LOOP('',(#127));
#352=EDGE_LOOP('',(#128));
#353=EDGE_LOOP('',(#129,#130,#131,#132,#133,#134,#135,#136,#137,#138,#139,
#140,#141,#142,#143,#144));
#354=EDGE_LOOP('',(#145));
#355=EDGE_LOOP('',(#146,#147,#148,#149));
#356=EDGE_LOOP('',(#150,#151,#152,#153));
#357=EDGE_LOOP('',(#154,#155,#156,#157));
#358=EDGE_LOOP('',(#158,#159,#160,#161));
#359=EDGE_LOOP('',(#162,#163,#164,#165));
#360=EDGE_LOOP('',(#166,#167,#168,#169));
#361=EDGE_LOOP('',(#170,#171,#172,#173));
#362=EDGE_LOOP('',(#174,#175,#176,#177));
#363=EDGE_LOOP('',(#178,#179,#180,#181));
#364=EDGE_LOOP('',(#182,#183,#184,#185));
#365=EDGE_LOOP('',(#186,#187,#188,#189));
#366=EDGE_LOOP('',(#190,#191,#192,#193));
#367=EDGE_LOOP('',(#194,#195,#196,#197));
#368=EDGE_LOOP('',(#198,#199,#200,#201));
#369=EDGE_LOOP('',(#202,#203,#204,#205));
#370=EDGE_LOOP('',(#206,#207,#208,#209));
#371=EDGE_LOOP('',(#210));
#372=EDGE_LOOP('',(#211));
#373=EDGE_LOOP('',(#212));
#374=EDGE_LOOP('',(#213));
#375=EDGE_LOOP('',(#214,#215,#216,#217,#218,#219,#220,#221,#222,#223,#224,
#225,#226,#227,#228,#229));
#376=FACE_BOUND('',#342,.T.);
#377=FACE_BOUND('',#343,.T.);
#378=FACE_BOUND('',#344,.T.);
#379=FACE_BOUND('',#345,.T.);
#380=FACE_BOUND('',#346,.T.);
#381=FACE_BOUND('',#347,.T.);
#382=FACE_BOUND('',#348,.T.);
#383=FACE_BOUND('',#349,.T.);
#384=FACE_BOUND('',#350,.T.);
#385=FACE_BOUND('',#351,.T.);
#386=FACE_BOUND('',#352,.T.);
#387=FACE_BOUND('',#353,.T.);
#388=FACE_BOUND('',#354,.T.);
#389=FACE_BOUND('',#355,.T.);
#390=FACE_BOUND('',#356,.T.);
#391=FACE_BOUND('',#357,.T.);
#392=FACE_BOUND('',#358,.T.);
#393=FACE_BOUND('',#359,.T.);
#394=FACE_BOUND('',#360,.T.);
#395=FACE_BOUND('',#361,.T.);
#396=FACE_BOUND('',#362,.T.);
#397=FACE_BOUND('',#363,.T.);
#398=FACE_BOUND('',#364,.T.);
#399=FACE_BOUND('',#365,.T.);
#400=FACE_BOUND('',#366,.T.);
#401=FACE_BOUND('',#367,.T.);
#402=FACE_BOUND('',#368,.T.);
#403=FACE_BOUND('',#369,.T.);
#404=FACE_BOUND('',#370,.T.);
#405=FACE_BOUND('',#371,.T.);
#406=FACE_BOUND('',#372,.T.);
#407=FACE_BOUND('',#373,.T.);
#408=FACE_BOUND('',#374,.T.);
#409=FACE_BOUND('',#375,.T.);
#410=CYLINDRICAL_SURFACE('',#633,0.875);
#411=CYLINDRICAL_SURFACE('',#638,1.);
#412=CYLINDRICAL_SURFACE('',#641,1.);
#413=CYLINDRICAL_SURFACE('',#652,0.38);
#414=CYLINDRICAL_SURFACE('',#657,0.38);
#415=CYLINDRICAL_SURFACE('',#662,0.38);
#416=CYLINDRICAL_SURFACE('',#667,0.38);
#417=CYLINDRICAL_SURFACE('',#671,1.9);
#418=STYLED_ITEM('',(#444),#602);
#419=STYLED_ITEM('',(#445),#603);
#420=STYLED_ITEM('',(#446),#604);
#421=STYLED_ITEM('',(#447),#605);
#422=STYLED_ITEM('',(#448),#606);
#423=STYLED_ITEM('',(#449),#607);
#424=STYLED_ITEM('',(#450),#608);
#425=STYLED_ITEM('',(#451),#609);
#426=STYLED_ITEM('',(#452),#610);
#427=STYLED_ITEM('',(#453),#611);
#428=STYLED_ITEM('',(#454),#612);
#429=STYLED_ITEM('',(#455),#613);
#430=STYLED_ITEM('',(#456),#614);
#431=STYLED_ITEM('',(#457),#615);
#432=STYLED_ITEM('',(#458),#616);
#433=STYLED_ITEM('',(#459),#617);
#434=STYLED_ITEM('',(#460),#618);
#435=STYLED_ITEM('',(#461),#619);
#436=STYLED_ITEM('',(#462),#620);
#437=STYLED_ITEM('',(#463),#621);
#438=STYLED_ITEM('',(#464),#622);
#439=STYLED_ITEM('',(#465),#623);
#440=STYLED_ITEM('',(#466),#624);
#441=STYLED_ITEM('',(#467),#625);
#442=STYLED_ITEM('',(#468),#626);
#443=STYLED_ITEM('',(#469),#627);
#444=PRESENTATION_STYLE_ASSIGNMENT((#470));
#445=PRESENTATION_STYLE_ASSIGNMENT((#471));
#446=PRESENTATION_STYLE_ASSIGNMENT((#472));
#447=PRESENTATION_STYLE_ASSIGNMENT((#473));
#448=PRESENTATION_STYLE_ASSIGNMENT((#474));
#449=PRESENTATION_STYLE_ASSIGNMENT((#475));
#450=PRESENTATION_STYLE_ASSIGNMENT((#476));
#451=PRESENTATION_STYLE_ASSIGNMENT((#477));
#452=PRESENTATION_STYLE_ASSIGNMENT((#478));
#453=PRESENTATION_STYLE_ASSIGNMENT((#479));
#454=PRESENTATION_STYLE_ASSIGNMENT((#480));
#455=PRESENTATION_STYLE_ASSIGNMENT((#481));
#456=PRESENTATION_STYLE_ASSIGNMENT((#482));
#457=PRESENTATION_STYLE_ASSIGNMENT((#483));
#458=PRESENTATION_STYLE_ASSIGNMENT((#484));
#459=PRESENTATION_STYLE_ASSIGNMENT((#485));
#460=PRESENTATION_STYLE_ASSIGNMENT((#486));
#461=PRESENTATION_STYLE_ASSIGNMENT((#487));
#462=PRESENTATION_STYLE_ASSIGNMENT((#488));
#463=PRESENTATION_STYLE_ASSIGNMENT((#489));
#464=PRESENTATION_STYLE_ASSIGNMENT((#490));
#465=PRESENTATION_STYLE_ASSIGNMENT((#491));
#466=PRESENTATION_STYLE_ASSIGNMENT((#492));
#467=PRESENTATION_STYLE_ASSIGNMENT((#493));
#468=PRESENTATION_STYLE_ASSIGNMENT((#494));
#469=PRESENTATION_STYLE_ASSIGNMENT((#495));
#470=SURFACE_STYLE_USAGE(.BOTH.,#496);
#471=SURFACE_STYLE_USAGE(.BOTH.,#497);
#472=SURFACE_STYLE_USAGE(.BOTH.,#498);
#473=SURFACE_STYLE_USAGE(.BOTH.,#499);
#474=SURFACE_STYLE_USAGE(.BOTH.,#500);
#475=SURFACE_STYLE_USAGE(.BOTH.,#501);
#476=SURFACE_STYLE_USAGE(.BOTH.,#502);
#477=SURFACE_STYLE_USAGE(.BOTH.,#503);
#478=SURFACE_STYLE_USAGE(.BOTH.,#504);
#479=SURFACE_STYLE_USAGE(.BOTH.,#505);
#480=SURFACE_STYLE_USAGE(.BOTH.,#506);
#481=SURFACE_STYLE_USAGE(.BOTH.,#507);
#482=SURFACE_STYLE_USAGE(.BOTH.,#508);
#483=SURFACE_STYLE_USAGE(.BOTH.,#509);
#484=SURFACE_STYLE_USAGE(.BOTH.,#510);
#485=SURFACE_STYLE_USAGE(.BOTH.,#511);
#486=SURFACE_STYLE_USAGE(.BOTH.,#512);
#487=SURFACE_STYLE_USAGE(.BOTH.,#513);
#488=SURFACE_STYLE_USAGE(.BOTH.,#514);
#489=SURFACE_STYLE_USAGE(.BOTH.,#515);
#490=SURFACE_STYLE_USAGE(.BOTH.,#516);
#491=SURFACE_STYLE_USAGE(.BOTH.,#517);
#492=SURFACE_STYLE_USAGE(.BOTH.,#518);
#493=SURFACE_STYLE_USAGE(.BOTH.,#519);
#494=SURFACE_STYLE_USAGE(.BOTH.,#520);
#495=SURFACE_STYLE_USAGE(.BOTH.,#521);
#496=SURFACE_SIDE_STYLE('',(#522));
#497=SURFACE_SIDE_STYLE('',(#523));
#498=SURFACE_SIDE_STYLE('',(#524));
#499=SURFACE_SIDE_STYLE('',(#525));
#500=SURFACE_SIDE_STYLE('',(#526));
#501=SURFACE_SIDE_STYLE('',(#527));
#502=SURFACE_SIDE_STYLE('',(#528));
#503=SURFACE_SIDE_STYLE('',(#529));
#504=SURFACE_SIDE_STYLE('',(#530));
#505=SURFACE_SIDE_STYLE('',(#531));
#506=SURFACE_SIDE_STYLE('',(#532));
#507=SURFACE_SIDE_STYLE('',(#533));
#508=SURFACE_SIDE_STYLE('',(#534));
#509=SURFACE_SIDE_STYLE('',(#535));
#510=SURFACE_SIDE_STYLE('',(#536));
#511=SURFACE_SIDE_STYLE('',(#537));
#512=SURFACE_SIDE_STYLE('',(#538));
#513=SURFACE_SIDE_STYLE('',(#539));
#514=SURFACE_SIDE_STYLE('',(#540));
#515=SURFACE_SIDE_STYLE('',(#541));
#516=SURFACE_SIDE_STYLE('',(#542));
#517=SURFACE_SIDE_STYLE('',(#543));
#518=SURFACE_SIDE_STYLE('',(#544));
#519=SURFACE_SIDE_STYLE('',(#545));
#520=SURFACE_SIDE_STYLE('',(#546));
#521=SURFACE_SIDE_STYLE('',(#547));
#522=SURFACE_STYLE_FILL_AREA(#548);
#523=SURFACE_STYLE_FILL_AREA(#549);
#524=SURFACE_STYLE_FILL_AREA(#550);
#525=SURFACE_STYLE_FILL_AREA(#551);
#526=SURFACE_STYLE_FILL_AREA(#552);
#527=SURFACE_STYLE_FILL_AREA(#553);
#528=SURFACE_STYLE_FILL_AREA(#554);
#529=SURFACE_STYLE_FILL_AREA(#555);
#530=SURFACE_STYLE_FILL_AREA(#556);
#531=SURFACE_STYLE_FILL_AREA(#557);
#532=SURFACE_STYLE_FILL_AREA(#558);
#533=SURFACE_STYLE_FILL_AREA(#559);
#534=SURFACE_STYLE_FILL_AREA(#560);
#535=SURFACE_STYLE_FILL_AREA(#561);
#536=SURFACE_STYLE_FILL_AREA(#562);
#537=SURFACE_STYLE_FILL_AREA(#563);
#538=SURFACE_STYLE_FILL_AREA(#564);
#539=SURFACE_STYLE_FILL_AREA(#565);
#540=SURFACE_STYLE_FILL_AREA(#566);
#541=SURFACE_STYLE_FILL_AREA(#567);
#542=SURFACE_STYLE_FILL_AREA(#568);
#543=SURFACE_STYLE_FILL_AREA(#569);
#544=SURFACE_STYLE_FILL_AREA(#570);
#545=SURFACE_STYLE_FILL_AREA(#571);
#546=SURFACE_STYLE_FILL_AREA(#572);
#547=SURFACE_STYLE_FILL_AREA(#573);
#548=FILL_AREA_STYLE('',(#574));
#549=FILL_AREA_STYLE('',(#575));
#550=FILL_AREA_STYLE('',(#576));
#551=FILL_AREA_STYLE('',(#577));
#552=FILL_AREA_STYLE('',(#578));
#553=FILL_AREA_STYLE('',(#579));
#554=FILL_AREA_STYLE('',(#580));
#555=FILL_AREA_STYLE('',(#581));
#556=FILL_AREA_STYLE('',(#582));
#557=FILL_AREA_STYLE('',(#583));
#558=FILL_AREA_STYLE('',(#584));
#559=FILL_AREA_STYLE('',(#585));
#560=FILL_AREA_STYLE('',(#586));
#561=FILL_AREA_STYLE('',(#587));
#562=FILL_AREA_STYLE('',(#588));
#563=FILL_AREA_STYLE('',(#589));
#564=FILL_AREA_STYLE('',(#590));
#565=FILL_AREA_STYLE('',(#591));
#566=FILL_AREA_STYLE('',(#592));
#567=FILL_AREA_STYLE('',(#593));
#568=FILL_AREA_STYLE('',(#594));
#569=FILL_AREA_STYLE('',(#595));
#570=FILL_AREA_STYLE('',(#596));
#571=FILL_AREA_STYLE('',(#597));
#572=FILL_AREA_STYLE('',(#598));
#573=FILL_AREA_STYLE('',(#599));
#574=FILL_AREA_STYLE_COLOUR('',#600);
#575=FILL_AREA_STYLE_COLOUR('',#600);
#576=FILL_AREA_STYLE_COLOUR('',#601);
#577=FILL_AREA_STYLE_COLOUR('',#600);
#578=FILL_AREA_STYLE_COLOUR('',#600);
#579=FILL_AREA_STYLE_COLOUR('',#600);
#580=FILL_AREA_STYLE_COLOUR('',#600);
#581=FILL_AREA_STYLE_COLOUR('',#600);
#582=FILL_AREA_STYLE_COLOUR('',#600);
#583=FILL_AREA_STYLE_COLOUR('',#600);
#584=FILL_AREA_STYLE_COLOUR('',#600);
#585=FILL_AREA_STYLE_COLOUR('',#600);
#586=FILL_AREA_STYLE_COLOUR('',#600);
#587=FILL_AREA_STYLE_COLOUR('',#600);
#588=FILL_AREA_STYLE_COLOUR('',#600);
#589=FILL_AREA_STYLE_COLOUR('',#600);
#590=FILL_AREA_STYLE_COLOUR('',#600);
#591=FILL_AREA_STYLE_COLOUR('',#600);
#592=FILL_AREA_STYLE_COLOUR('',#600);
#593=FILL_AREA_STYLE_COLOUR('',#600);
#594=FILL_AREA_STYLE_COLOUR('',#600);
#595=FILL_AREA_STYLE_COLOUR('',#600);
#596=FILL_AREA_STYLE_COLOUR('',#600);
#597=FILL_AREA_STYLE_COLOUR('',#600);
#598=FILL_AREA_STYLE_COLOUR('',#600);
#599=FILL_AREA_STYLE_COLOUR('',#600);
#600=COLOUR_RGB('',0.506983280181885,0.531564235687256,0.550000011920929);
#601=COLOUR_RGB('',0.1875,0.75,0.581249892711639);
#602=ADVANCED_FACE('',(#376,#377),#410,.T.);
#603=ADVANCED_FACE('',(#378,#379),#101,.T.);
#604=ADVANCED_FACE('',(#380,#381),#411,.T.);
#605=ADVANCED_FACE('',(#382),#102,.T.);
#606=ADVANCED_FACE('',(#383,#384),#412,.T.);
#607=ADVANCED_FACE('',(#385,#386),#103,.F.);
#608=ADVANCED_FACE('',(#387,#388),#104,.T.);
#609=ADVANCED_FACE('',(#389),#105,.T.);
#610=ADVANCED_FACE('',(#390),#413,.T.);
#611=ADVANCED_FACE('',(#391),#106,.T.);
#612=ADVANCED_FACE('',(#392),#107,.T.);
#613=ADVANCED_FACE('',(#393),#108,.T.);
#614=ADVANCED_FACE('',(#394),#414,.T.);
#615=ADVANCED_FACE('',(#395),#109,.T.);
#616=ADVANCED_FACE('',(#396),#110,.T.);
#617=ADVANCED_FACE('',(#397),#111,.T.);
#618=ADVANCED_FACE('',(#398),#415,.T.);
#619=ADVANCED_FACE('',(#399),#112,.T.);
#620=ADVANCED_FACE('',(#400),#113,.T.);
#621=ADVANCED_FACE('',(#401),#114,.T.);
#622=ADVANCED_FACE('',(#402),#416,.T.);
#623=ADVANCED_FACE('',(#403),#115,.T.);
#624=ADVANCED_FACE('',(#404),#116,.T.);
#625=ADVANCED_FACE('',(#405,#406),#417,.T.);
#626=ADVANCED_FACE('',(#407,#408),#20,.T.);
#627=ADVANCED_FACE('',(#409),#117,.T.);
#628=CLOSED_SHELL('',(#602,#603,#604,#605,#606,#607,#608,#609,#610,#611,
#612,#613,#614,#615,#616,#617,#618,#619,#620,#621,#622,#623,#624,#625,#626,
#627));
#629=MANIFOLD_SOLID_BREP('',#628);
#630=SHAPE_DEFINITION_REPRESENTATION(#930,#631);
#631=SHAPE_REPRESENTATION('\X2\53415B5769FD6C89593487BA9489\X0\8.8\X2\7EA7\X0\',
(#632),#925);
#632=AXIS2_PLACEMENT_3D('',#801,#675,#676);
#633=AXIS2_PLACEMENT_3D('',#802,#677,#678);
#634=AXIS2_PLACEMENT_3D('',#803,#679,#680);
#635=AXIS2_PLACEMENT_3D('',#805,#681,#682);
#636=AXIS2_PLACEMENT_3D('',#807,#683,#684);
#637=AXIS2_PLACEMENT_3D('',#808,#685,#686);
#638=AXIS2_PLACEMENT_3D('',#810,#687,#688);
#639=AXIS2_PLACEMENT_3D('',#811,#689,#690);
#640=AXIS2_PLACEMENT_3D('',#813,#691,#692);
#641=AXIS2_PLACEMENT_3D('',#814,#693,#694);
#642=AXIS2_PLACEMENT_3D('',#815,#695,#696);
#643=AXIS2_PLACEMENT_3D('',#817,#697,#698);
#644=AXIS2_PLACEMENT_3D('',#819,#699,#700);
#645=AXIS2_PLACEMENT_3D('',#820,#701,#702);
#646=AXIS2_PLACEMENT_3D('',#824,#704,#705);
#647=AXIS2_PLACEMENT_3D('',#832,#709,#710);
#648=AXIS2_PLACEMENT_3D('',#840,#714,#715);
#649=AXIS2_PLACEMENT_3D('',#848,#719,#720);
#650=AXIS2_PLACEMENT_3D('',#853,#723,#724);
#651=AXIS2_PLACEMENT_3D('',#855,#725,#726);
#652=AXIS2_PLACEMENT_3D('',#861,#730,#731);
#653=AXIS2_PLACEMENT_3D('',#862,#732,#733);
#654=AXIS2_PLACEMENT_3D('',#867,#736,#737);
#655=AXIS2_PLACEMENT_3D('',#869,#739,#740);
#656=AXIS2_PLACEMENT_3D('',#873,#743,#744);
#657=AXIS2_PLACEMENT_3D('',#877,#747,#748);
#658=AXIS2_PLACEMENT_3D('',#878,#749,#750);
#659=AXIS2_PLACEMENT_3D('',#883,#753,#754);
#660=AXIS2_PLACEMENT_3D('',#885,#756,#757);
#661=AXIS2_PLACEMENT_3D('',#889,#760,#761);
#662=AXIS2_PLACEMENT_3D('',#893,#764,#765);
#663=AXIS2_PLACEMENT_3D('',#894,#766,#767);
#664=AXIS2_PLACEMENT_3D('',#899,#770,#771);
#665=AXIS2_PLACEMENT_3D('',#901,#773,#774);
#666=AXIS2_PLACEMENT_3D('',#905,#777,#778);
#667=AXIS2_PLACEMENT_3D('',#909,#781,#782);
#668=AXIS2_PLACEMENT_3D('',#910,#783,#784);
#669=AXIS2_PLACEMENT_3D('',#915,#787,#788);
#670=AXIS2_PLACEMENT_3D('',#917,#790,#791);
#671=AXIS2_PLACEMENT_3D('',#919,#793,#794);
#672=AXIS2_PLACEMENT_3D('',#920,#795,#796);
#673=AXIS2_PLACEMENT_3D('',#922,#797,#798);
#674=AXIS2_PLACEMENT_3D('',#923,#799,#800);
#675=DIRECTION('',(0.,0.,1.));
#676=DIRECTION('',(1.,0.,0.));
#677=DIRECTION('',(-1.,0.,0.));
#678=DIRECTION('',(0.,0.,1.));
#679=DIRECTION('',(-1.,0.,0.));
#680=DIRECTION('',(0.,0.,1.));
#681=DIRECTION('',(-1.,0.,0.));
#682=DIRECTION('',(0.,0.,1.));
#683=DIRECTION('',(-1.,0.,0.));
#684=DIRECTION('',(0.,0.,1.));
#685=DIRECTION('',(-1.,0.,0.));
#686=DIRECTION('',(0.,0.,1.));
#687=DIRECTION('',(-1.,0.,0.));
#688=DIRECTION('',(0.,0.,1.));
#689=DIRECTION('',(-1.,0.,0.));
#690=DIRECTION('',(0.,0.,1.));
#691=DIRECTION('',(1.,0.,0.));
#692=DIRECTION('',(0.,0.,-1.));
#693=DIRECTION('',(1.,0.,0.));
#694=DIRECTION('',(0.,0.,-1.));
#695=DIRECTION('',(-1.,0.,0.));
#696=DIRECTION('',(0.,0.,1.));
#697=DIRECTION('',(-1.,6.12303176911189E-17,0.));
#698=DIRECTION('',(6.12303176911189E-17,1.,0.));
#699=DIRECTION('',(-1.,6.12303176911189E-17,0.));
#700=DIRECTION('',(-6.12303176911189E-17,-1.,0.));
#701=DIRECTION('',(-1.,0.,0.));
#702=DIRECTION('',(0.,0.,1.));
#703=DIRECTION('',(-4.3675028593874E-33,-7.13290902950987E-17,1.));
#704=DIRECTION('',(-1.,0.,0.));
#705=DIRECTION('',(0.,0.,1.));
#706=DIRECTION('',(6.12303176911189E-17,1.,-4.7077199594765E-15));
#707=DIRECTION('',(-6.98800457501979E-32,-1.14126544472157E-15,1.));
#708=DIRECTION('',(-6.12303176911189E-17,-1.,-7.13290902950986E-17));
#709=DIRECTION('',(-1.,0.,0.));
#710=DIRECTION('',(0.,0.,1.));
#711=DIRECTION('',(0.,0.,1.));
#712=DIRECTION('',(-6.12303176911189E-17,-1.,0.));
#713=DIRECTION('',(4.36750285938742E-33,7.13290902950991E-17,-1.));
#714=DIRECTION('',(-1.,0.,0.));
#715=DIRECTION('',(0.,0.,1.));
#716=DIRECTION('',(-6.12303176911189E-17,-1.,-1.426581805902E-16));
#717=DIRECTION('',(-2.27110148688143E-30,-3.70911269534511E-14,-1.));
#718=DIRECTION('',(6.12303176911189E-17,1.,-7.13290902950985E-17));
#719=DIRECTION('',(-1.,0.,0.));
#720=DIRECTION('',(0.,0.,1.));
#721=DIRECTION('',(6.55125428908113E-33,1.06993635442649E-16,-1.));
#722=DIRECTION('',(6.12303176911189E-17,1.,0.));
#723=DIRECTION('',(-1.,0.,0.));
#724=DIRECTION('',(0.,0.,1.));
#725=DIRECTION('',(-0.388972037040363,2.38168814009431E-17,-0.921249561411386));
#726=DIRECTION('',(-0.921249561411386,0.,0.388972037040363));
#727=DIRECTION('',(0.921249561411386,2.77450215523206E-17,-0.388972037040363));
#728=DIRECTION('',(6.12303176911189E-17,1.,3.08148791101958E-33));
#729=DIRECTION('',(0.921249561411385,2.77450215523206E-17,-0.388972037040364));
#730=DIRECTION('',(1.,0.,0.));
#731=DIRECTION('',(0.,0.,-1.));
#732=DIRECTION('',(-1.,6.12303176911189E-17,0.));
#733=DIRECTION('',(-6.12303176911189E-17,-1.,0.));
#734=DIRECTION('',(-1.,0.,0.));
#735=DIRECTION('',(-1.,0.,0.));
#736=DIRECTION('',(0.,-1.,-1.06993635442649E-16));
#737=DIRECTION('',(0.,1.06993635442649E-16,-1.));
#738=DIRECTION('',(6.55125428908113E-33,1.06993635442649E-16,-1.));
#739=DIRECTION('',(0.,-7.13290902950985E-17,-1.));
#740=DIRECTION('',(0.,1.,-7.13290902950985E-17));
#741=DIRECTION('',(0.921249561411385,-0.388972037040365,2.77450215523206E-17));
#742=DIRECTION('',(6.12303176911189E-17,1.,-7.13290902950985E-17));
#743=DIRECTION('',(-0.388972037040359,-0.921249561411387,3.41701844381209E-14));
#744=DIRECTION('',(0.921249561411387,-0.388972037040359,0.));
#745=DIRECTION('',(0.921249561411387,-0.388972037040359,-8.32350646569621E-17));
#746=DIRECTION('',(-2.27110148688143E-30,-3.70911269534511E-14,-1.));
#747=DIRECTION('',(1.,0.,0.));
#748=DIRECTION('',(0.,0.,-1.));
#749=DIRECTION('',(-1.,6.12303176911189E-17,0.));
#750=DIRECTION('',(-6.12303176911189E-17,-1.,0.));
#751=DIRECTION('',(-1.,0.,0.));
#752=DIRECTION('',(-1.,0.,0.));
#753=DIRECTION('',(0.,-1.426581805902E-16,1.));
#754=DIRECTION('',(0.,-1.,-1.426581805902E-16));
#755=DIRECTION('',(-6.12303176911189E-17,-1.,-1.426581805902E-16));
#756=DIRECTION('',(0.,-1.,-7.13290902950991E-17));
#757=DIRECTION('',(0.,7.13290902950991E-17,-1.));
#758=DIRECTION('',(0.921249561411386,-2.77450215523206E-17,0.388972037040363));
#759=DIRECTION('',(4.36750285938742E-33,7.13290902950991E-17,-1.));
#760=DIRECTION('',(-0.388972037040363,2.38168814009431E-17,0.921249561411386));
#761=DIRECTION('',(0.921249561411386,0.,0.388972037040363));
#762=DIRECTION('',(0.921249561411386,-2.77450215523206E-17,0.388972037040363));
#763=DIRECTION('',(-6.12303176911189E-17,-1.,3.08148791101958E-33));
#764=DIRECTION('',(1.,0.,0.));
#765=DIRECTION('',(0.,0.,-1.));
#766=DIRECTION('',(-1.,6.12303176911189E-17,0.));
#767=DIRECTION('',(-6.12303176911189E-17,-1.,0.));
#768=DIRECTION('',(-1.,0.,0.));
#769=DIRECTION('',(-1.,0.,0.));
#770=DIRECTION('',(0.,1.,0.));
#771=DIRECTION('',(0.,0.,1.));
#772=DIRECTION('',(0.,0.,1.));
#773=DIRECTION('',(0.,-7.13290902950986E-17,1.));
#774=DIRECTION('',(0.,-1.,-7.13290902950986E-17));
#775=DIRECTION('',(0.921249561411385,0.388972037040365,2.77450215523206E-17));
#776=DIRECTION('',(-6.12303176911189E-17,-1.,-7.13290902950986E-17));
#777=DIRECTION('',(-0.388972037040365,0.921249561411385,1.05139029040372E-15));
#778=DIRECTION('',(-0.921249561411385,-0.388972037040365,0.));
#779=DIRECTION('',(0.921249561411385,0.388972037040365,-1.85891644400548E-15));
#780=DIRECTION('',(-6.98800457501979E-32,-1.14126544472157E-15,1.));
#781=DIRECTION('',(1.,0.,0.));
#782=DIRECTION('',(0.,0.,-1.));
#783=DIRECTION('',(-1.,6.12303176911189E-17,0.));
#784=DIRECTION('',(-6.12303176911189E-17,-1.,0.));
#785=DIRECTION('',(-1.,0.,0.));
#786=DIRECTION('',(-1.,0.,0.));
#787=DIRECTION('',(0.,-4.7077199594765E-15,-1.));
#788=DIRECTION('',(0.,1.,-4.7077199594765E-15));
#789=DIRECTION('',(6.12303176911189E-17,1.,-4.7077199594765E-15));
#790=DIRECTION('',(0.,1.,7.13290902950987E-17));
#791=DIRECTION('',(0.,-7.13290902950987E-17,1.));
#792=DIRECTION('',(-4.3675028593874E-33,-7.13290902950987E-17,1.));
#793=DIRECTION('',(-1.,0.,0.));
#794=DIRECTION('',(0.,0.,1.));
#795=DIRECTION('',(-1.,0.,0.));
#796=DIRECTION('',(0.,0.,1.));
#797=DIRECTION('',(-1.,0.,0.));
#798=DIRECTION('',(0.,0.,1.));
#799=DIRECTION('',(-1.,6.12303176911189E-17,0.));
#800=DIRECTION('',(-6.12303176911189E-17,-1.,0.));
#801=CARTESIAN_POINT('',(0.,0.,0.));
#802=CARTESIAN_POINT('',(0.,0.,0.));
#803=CARTESIAN_POINT('',(2.2,0.,0.));
#804=CARTESIAN_POINT('',(2.2,0.,0.875));
#805=CARTESIAN_POINT('',(1.2,0.,0.));
#806=CARTESIAN_POINT('',(1.2,0.,0.875));
#807=CARTESIAN_POINT('',(2.2,0.,0.875));
#808=CARTESIAN_POINT('',(2.2,0.,0.));
#809=CARTESIAN_POINT('',(2.2,0.,1.));
#810=CARTESIAN_POINT('',(0.,0.,0.));
#811=CARTESIAN_POINT('',(3.,0.,0.));
#812=CARTESIAN_POINT('',(3.,0.,1.));
#813=CARTESIAN_POINT('',(3.,0.,1.));
#814=CARTESIAN_POINT('',(0.8,0.,0.));
#815=CARTESIAN_POINT('',(1.075,0.,0.));
#816=CARTESIAN_POINT('',(1.075,0.,1.));
#817=CARTESIAN_POINT('',(1.2,0.,0.));
#818=CARTESIAN_POINT('',(1.2,1.,0.));
#819=CARTESIAN_POINT('',(1.2,0.,0.));
#820=CARTESIAN_POINT('',(0.,0.,0.));
#821=CARTESIAN_POINT('',(-1.16337603613127E-17,-0.190000000000002,0.189999999999998));
#822=CARTESIAN_POINT('',(0.,-0.190000000000002,0.950000000000001));
#823=CARTESIAN_POINT('',(-1.16337603613127E-17,-0.190000000000002,0.57));
#824=CARTESIAN_POINT('',(0.,-0.570000000000002,0.57));
#825=CARTESIAN_POINT('',(-3.4901281083938E-17,-0.570000000000004,0.19));
#826=CARTESIAN_POINT('',(-5.81688018065633E-17,-0.950000000000007,0.190000000000002));
#827=CARTESIAN_POINT('',(-5.81688018065633E-17,-0.950000000000007,0.190000000000002));
#828=CARTESIAN_POINT('',(-5.81688018065633E-17,-0.950000000000006,-0.190000000000002));
#829=CARTESIAN_POINT('',(-5.81688018065633E-17,-0.950000000000006,-0.190000000000002));
#830=CARTESIAN_POINT('',(-1.16337603613127E-17,-0.190000000000002,-0.190000000000002));
#831=CARTESIAN_POINT('',(-3.49012810839379E-17,-0.570000000000002,-0.190000000000002));
#832=CARTESIAN_POINT('',(0.,-0.570000000000002,-0.570000000000002));
#833=CARTESIAN_POINT('',(-1.16337603613127E-17,-0.190000000000002,-0.570000000000002));
#834=CARTESIAN_POINT('',(-1.16337603613127E-17,-0.190000000000002,-0.950000000000001));
#835=CARTESIAN_POINT('',(-1.16337603613127E-17,-0.190000000000002,-0.950000000000001));
#836=CARTESIAN_POINT('',(1.16337603613127E-17,0.190000000000002,-0.950000000000001));
#837=CARTESIAN_POINT('',(1.16337603613127E-17,0.190000000000002,-0.950000000000001));
#838=CARTESIAN_POINT('',(1.16337603613127E-17,0.190000000000002,-0.190000000000002));
#839=CARTESIAN_POINT('',(1.16337603613127E-17,0.190000000000002,-0.570000000000002));
#840=CARTESIAN_POINT('',(0.,0.570000000000002,-0.570000000000002));
#841=CARTESIAN_POINT('',(3.49012810839378E-17,0.570000000000002,-0.190000000000002));
#842=CARTESIAN_POINT('',(5.81688018065625E-17,0.949999999999993,-0.190000000000002));
#843=CARTESIAN_POINT('',(5.81688018065625E-17,0.949999999999993,-0.190000000000002));
#844=CARTESIAN_POINT('',(5.81688018065633E-17,0.950000000000007,0.190000000000002));
#845=CARTESIAN_POINT('',(5.81688018065633E-17,0.950000000000007,0.190000000000002));
#846=CARTESIAN_POINT('',(1.16337603613127E-17,0.190000000000002,0.190000000000002));
#847=CARTESIAN_POINT('',(3.49012810839379E-17,0.570000000000002,0.190000000000002));
#848=CARTESIAN_POINT('',(0.,0.570000000000002,0.570000000000002));
#849=CARTESIAN_POINT('',(1.16337603613127E-17,0.190000000000002,0.570000000000002));
#850=CARTESIAN_POINT('',(1.16337603613127E-17,0.190000000000002,0.950000000000001));
#851=CARTESIAN_POINT('',(1.16337603613127E-17,0.190000000000002,0.950000000000001));
#852=CARTESIAN_POINT('',(-1.16337603613127E-17,-0.190000000000002,0.950000000000001));
#853=CARTESIAN_POINT('',(0.,0.,0.));
#854=CARTESIAN_POINT('',(0.,0.,1.9));
#855=CARTESIAN_POINT('',(0.340423302598491,-2.08442269675655E-17,0.806265716680638));
#856=CARTESIAN_POINT('',(1.16337603613127E-17,0.190000000000002,0.950000000000001));
#857=CARTESIAN_POINT('',(0.8,0.190000000000002,0.612222222222224));
#858=CARTESIAN_POINT('',(0.8,-4.89842541528951E-17,0.612222222222224));
#859=CARTESIAN_POINT('',(0.799999999999999,-0.190000000000002,0.612222222222222));
#860=CARTESIAN_POINT('',(-1.16337603613127E-17,-0.190000000000002,0.950000000000001));
#861=CARTESIAN_POINT('',(0.,0.570000000000002,0.570000000000002));
#862=CARTESIAN_POINT('',(0.8,0.570000000000002,0.570000000000002));
#863=CARTESIAN_POINT('',(0.8,0.190000000000002,0.570000000000002));
#864=CARTESIAN_POINT('',(0.8,0.570000000000002,0.190000000000002));
#865=CARTESIAN_POINT('',(0.,0.190000000000002,0.570000000000002));
#866=CARTESIAN_POINT('',(0.,0.570000000000002,0.190000000000002));
#867=CARTESIAN_POINT('',(0.,0.190000000000002,2.03287907341034E-17));
#868=CARTESIAN_POINT('',(0.8,0.190000000000002,2.03287907341034E-17));
#869=CARTESIAN_POINT('',(0.,1.35525271560689E-17,0.190000000000002));
#870=CARTESIAN_POINT('',(5.81688018065633E-17,0.950000000000007,0.190000000000002));
#871=CARTESIAN_POINT('',(0.8,0.612222222222227,0.190000000000002));
#872=CARTESIAN_POINT('',(0.8,-3.54317269968262E-17,0.190000000000002));
#873=CARTESIAN_POINT('',(0.340423302598488,0.80626571668064,-2.99053040556169E-14));
#874=CARTESIAN_POINT('',(5.81688018065625E-17,0.949999999999993,-0.190000000000002));
#875=CARTESIAN_POINT('',(0.799999999999998,0.61222222222222,-0.190000000000002));
#876=CARTESIAN_POINT('',(0.8,0.612222222222226,-2.27080121681685E-14));
#877=CARTESIAN_POINT('',(0.,0.570000000000002,-0.570000000000002));
#878=CARTESIAN_POINT('',(0.8,0.570000000000002,-0.570000000000002));
#879=CARTESIAN_POINT('',(0.8,0.570000000000002,-0.190000000000002));
#880=CARTESIAN_POINT('',(0.8,0.190000000000002,-0.570000000000002));
#881=CARTESIAN_POINT('',(0.,0.570000000000002,-0.190000000000002));
#882=CARTESIAN_POINT('',(0.,0.190000000000002,-0.570000000000002));
#883=CARTESIAN_POINT('',(0.,2.71050543121382E-17,-0.190000000000002));
#884=CARTESIAN_POINT('',(0.8,-2.18791998407569E-17,-0.190000000000002));
#885=CARTESIAN_POINT('',(0.,0.190000000000002,1.35525271560689E-17));
#886=CARTESIAN_POINT('',(1.16337603613127E-17,0.190000000000002,-0.950000000000001));
#887=CARTESIAN_POINT('',(0.8,0.190000000000002,-0.612222222222224));
#888=CARTESIAN_POINT('',(0.8,0.190000000000002,1.3552527156069E-17));
#889=CARTESIAN_POINT('',(0.340423302598491,-2.08442269675655E-17,-0.806265716680638));
#890=CARTESIAN_POINT('',(-1.16337603613127E-17,-0.190000000000002,-0.950000000000001));
#891=CARTESIAN_POINT('',(0.8,-0.190000000000002,-0.612222222222224));
#892=CARTESIAN_POINT('',(0.8,-4.89842541528951E-17,-0.612222222222224));
#893=CARTESIAN_POINT('',(0.,-0.570000000000002,-0.570000000000002));
#894=CARTESIAN_POINT('',(0.8,-0.570000000000002,-0.570000000000002));
#895=CARTESIAN_POINT('',(0.8,-0.190000000000002,-0.570000000000002));
#896=CARTESIAN_POINT('',(0.8,-0.570000000000002,-0.190000000000002));
#897=CARTESIAN_POINT('',(0.,-0.190000000000002,-0.570000000000002));
#898=CARTESIAN_POINT('',(0.,-0.570000000000002,-0.190000000000002));
#899=CARTESIAN_POINT('',(0.,-0.190000000000002,0.));
#900=CARTESIAN_POINT('',(0.8,-0.190000000000002,0.));
#901=CARTESIAN_POINT('',(0.,1.35525271560689E-17,-0.190000000000002));
#902=CARTESIAN_POINT('',(-5.81688018065633E-17,-0.950000000000006,-0.190000000000002));
#903=CARTESIAN_POINT('',(0.8,-0.612222222222226,-0.190000000000002));
#904=CARTESIAN_POINT('',(0.8,-3.54317269968262E-17,-0.190000000000002));
#905=CARTESIAN_POINT('',(0.340423302598495,-0.806265716680641,-9.20163201711289E-16));
#906=CARTESIAN_POINT('',(-5.81688018065633E-17,-0.950000000000007,0.190000000000002));
#907=CARTESIAN_POINT('',(0.8,-0.612222222222227,0.19));
#908=CARTESIAN_POINT('',(0.8,-0.612222222222227,-6.98708066712879E-16));
#909=CARTESIAN_POINT('',(0.,-0.570000000000002,0.57));
#910=CARTESIAN_POINT('',(0.8,-0.570000000000002,0.57));
#911=CARTESIAN_POINT('',(0.8,-0.570000000000004,0.19));
#912=CARTESIAN_POINT('',(0.8,-0.190000000000002,0.57));
#913=CARTESIAN_POINT('',(0.,-0.570000000000004,0.19));
#914=CARTESIAN_POINT('',(0.,-0.190000000000002,0.57));
#915=CARTESIAN_POINT('',(0.,8.94466792300523E-16,0.189999999999997));
#916=CARTESIAN_POINT('',(0.8,8.45482538147628E-16,0.189999999999997));
#917=CARTESIAN_POINT('',(0.,-0.190000000000002,-1.35525271560689E-17));
#918=CARTESIAN_POINT('',(0.8,-0.190000000000002,-1.35525271560689E-17));
#919=CARTESIAN_POINT('',(0.,0.,0.));
#920=CARTESIAN_POINT('',(0.175,0.,0.));
#921=CARTESIAN_POINT('',(0.175,0.,1.9));
#922=CARTESIAN_POINT('',(0.175,0.,0.));
#923=CARTESIAN_POINT('',(0.8,0.,0.));
#924=MECHANICAL_DESIGN_GEOMETRIC_PRESENTATION_REPRESENTATION('',(#418,#419,
#420,#421,#422,#423,#424,#425,#426,#427,#428,#429,#430,#431,#432,#433,#434,
#435,#436,#437,#438,#439,#440,#441,#442,#443),#925);
#925=(
GEOMETRIC_REPRESENTATION_CONTEXT(3)
GLOBAL_UNCERTAINTY_ASSIGNED_CONTEXT((#926))
GLOBAL_UNIT_ASSIGNED_CONTEXT((#929,#928,#927))
REPRESENTATION_CONTEXT('\X2\53415B5769FD6C89593487BA9489\X0\8.8\X2\7EA7\X0\',
'TOP_LEVEL_ASSEMBLY_PART')
);
#926=UNCERTAINTY_MEASURE_WITH_UNIT(LENGTH_MEASURE(0.005),#929,
'DISTANCE_ACCURACY_VALUE','Maximum Tolerance applied to model');
#927=(
NAMED_UNIT(*)
SI_UNIT($,.STERADIAN.)
SOLID_ANGLE_UNIT()
);
#928=(
NAMED_UNIT(*)
PLANE_ANGLE_UNIT()
SI_UNIT($,.RADIAN.)
);
#929=(
LENGTH_UNIT()
NAMED_UNIT(*)
SI_UNIT(.MILLI.,.METRE.)
);
#930=PRODUCT_DEFINITION_SHAPE('','',#931);
#931=PRODUCT_DEFINITION('','',#933,#932);
#932=PRODUCT_DEFINITION_CONTEXT('',#939,'design');
#933=PRODUCT_DEFINITION_FORMATION_WITH_SPECIFIED_SOURCE('','',#935,
 .NOT_KNOWN.);
#934=PRODUCT_RELATED_PRODUCT_CATEGORY('','',(#935));
#935=PRODUCT('\X2\53415B5769FD6C89593487BA9489\X0\8.8\X2\7EA7\X0\',
'\X2\53415B5769FD6C89593487BA9489\X0\8.8\X2\7EA7\X0\',
'\X2\53415B5769FD6C89593487BA9489\X0\8.8\X2\7EA7\X0\',(#937));
#936=PRODUCT_CATEGORY('','');
#937=PRODUCT_CONTEXT('',#939,'mechanical');
#938=APPLICATION_PROTOCOL_DEFINITION('international standard',
'automotive_design',2010,#939);
#939=APPLICATION_CONTEXT(
'core data for automotive mechanical design processes');
ENDSEC;
END-ISO-10303-21;
