ISO-10303-21;
HEADER;
/* Generated by software containing HOOPS Exchange Step
 * from HOOPS Exchange, Inc. (www.tiangong.cloud) 
 */

FILE_DESCRIPTION(
/* description */ ('Unknown'),
/* implementation_level */ '2;1');

FILE_NAME(
/* name */ '\X2\53415B5769FD6C89593481EA94BB81EA653B87BA9489\X0\ GBT15
856.2-2002',
/* time_stamp */ '2025-11-03T21:45:29+08:00',
/* author */ ('Unknown'),
/* organization */ ('Unknown'),
/* preprocessor_version */ 'ST-DEVELOPER v19.4',
/* originating_system */ 'TianGong',
/* authorisation */ 'Unknown');

FILE_SCHEMA (('AUTOMOTIVE_DESIGN {1 0 10303 214 3 1 1}'));
ENDSEC;

DATA;
#10=PROPERTY_DEFINITION_REPRESENTATION(#14,#12);
#11=PROPERTY_DEFINITION_REPRESENTATION(#15,#13);
#12=REPRESENTATION('',(#16),#553);
#13=REPRESENTATION('',(#17),#553);
#14=PROPERTY_DEFINITION('pmi validation property','',#558);
#15=PROPERTY_DEFINITION('pmi validation property','',#558);
#16=VALUE_REPRESENTATION_ITEM('number of annotations',COUNT_MEASURE(0.));
#17=VALUE_REPRESENTATION_ITEM('number of views',COUNT_MEASURE(0.));
#18=SHAPE_REPRESENTATION_RELATIONSHIP('','',#349,#19);
#19=ADVANCED_BREP_SHAPE_REPRESENTATION('',(#347),#553);
#20=TOROIDAL_SURFACE('',#363,2.64999999999999,1.2);
#21=VERTEX_LOOP('',#242);
#22=CYLINDRICAL_SURFACE('',#358,1.44999999999999);
#23=CYLINDRICAL_SURFACE('',#362,2.75);
#24=CONICAL_SURFACE('',#355,2.75,0.785398163397448);
#25=CONICAL_SURFACE('',#361,1.44999999999999,0.785398163397448);
#26=LINE('',#465,#62);
#27=LINE('',#468,#63);
#28=LINE('',#470,#64);
#29=LINE('',#472,#65);
#30=LINE('',#474,#66);
#31=LINE('',#476,#67);
#32=LINE('',#478,#68);
#33=LINE('',#480,#69);
#34=LINE('',#482,#70);
#35=LINE('',#484,#71);
#36=LINE('',#486,#72);
#37=LINE('',#488,#73);
#38=LINE('',#490,#74);
#39=LINE('',#493,#75);
#40=LINE('',#494,#76);
#41=LINE('',#496,#77);
#42=LINE('',#498,#78);
#43=LINE('',#500,#79);
#44=LINE('',#516,#80);
#45=LINE('',#518,#81);
#46=LINE('',#521,#82);
#47=LINE('',#522,#83);
#48=LINE('',#524,#84);
#49=LINE('',#526,#85);
#50=LINE('',#528,#86);
#51=LINE('',#530,#87);
#52=LINE('',#532,#88);
#53=LINE('',#534,#89);
#54=LINE('',#536,#90);
#55=LINE('',#537,#91);
#56=LINE('',#539,#92);
#57=LINE('',#541,#93);
#58=LINE('',#543,#94);
#59=LINE('',#545,#95);
#60=LINE('',#548,#96);
#61=LINE('',#550,#97);
#62=VECTOR('',#381,1000.);
#63=VECTOR('',#382,1000.);
#64=VECTOR('',#383,1000.);
#65=VECTOR('',#384,1000.);
#66=VECTOR('',#385,1000.);
#67=VECTOR('',#386,1000.);
#68=VECTOR('',#387,1000.);
#69=VECTOR('',#388,1000.);
#70=VECTOR('',#389,1000.);
#71=VECTOR('',#390,1000.);
#72=VECTOR('',#391,1000.);
#73=VECTOR('',#392,1000.);
#74=VECTOR('',#395,1000.);
#75=VECTOR('',#396,1000.);
#76=VECTOR('',#397,1000.);
#77=VECTOR('',#400,1000.);
#78=VECTOR('',#401,1000.);
#79=VECTOR('',#402,1000.);
#80=VECTOR('',#423,1000.);
#81=VECTOR('',#426,1000.);
#82=VECTOR('',#427,1000.);
#83=VECTOR('',#428,1000.);
#84=VECTOR('',#431,1000.);
#85=VECTOR('',#432,1000.);
#86=VECTOR('',#435,1000.);
#87=VECTOR('',#436,1000.);
#88=VECTOR('',#439,1000.);
#89=VECTOR('',#440,1000.);
#90=VECTOR('',#441,1000.);
#91=VECTOR('',#442,1000.);
#92=VECTOR('',#443,1000.);
#93=VECTOR('',#444,1000.);
#94=VECTOR('',#447,1000.);
#95=VECTOR('',#450,1000.);
#96=VECTOR('',#455,1000.);
#97=VECTOR('',#458,1000.);
#98=ORIENTED_EDGE('',*,*,#180,.T.);
#99=ORIENTED_EDGE('',*,*,#181,.T.);
#100=ORIENTED_EDGE('',*,*,#182,.T.);
#101=ORIENTED_EDGE('',*,*,#183,.T.);
#102=ORIENTED_EDGE('',*,*,#184,.T.);
#103=ORIENTED_EDGE('',*,*,#185,.T.);
#104=ORIENTED_EDGE('',*,*,#186,.T.);
#105=ORIENTED_EDGE('',*,*,#187,.T.);
#106=ORIENTED_EDGE('',*,*,#188,.T.);
#107=ORIENTED_EDGE('',*,*,#189,.T.);
#108=ORIENTED_EDGE('',*,*,#190,.T.);
#109=ORIENTED_EDGE('',*,*,#191,.T.);
#110=ORIENTED_EDGE('',*,*,#192,.T.);
#111=ORIENTED_EDGE('',*,*,#193,.T.);
#112=ORIENTED_EDGE('',*,*,#194,.T.);
#113=ORIENTED_EDGE('',*,*,#191,.F.);
#114=ORIENTED_EDGE('',*,*,#195,.T.);
#115=ORIENTED_EDGE('',*,*,#189,.F.);
#116=ORIENTED_EDGE('',*,*,#196,.T.);
#117=ORIENTED_EDGE('',*,*,#197,.T.);
#118=ORIENTED_EDGE('',*,*,#198,.F.);
#119=ORIENTED_EDGE('',*,*,#199,.T.);
#120=ORIENTED_EDGE('',*,*,#200,.F.);
#121=ORIENTED_EDGE('',*,*,#201,.T.);
#122=ORIENTED_EDGE('',*,*,#202,.T.);
#123=ORIENTED_EDGE('',*,*,#202,.F.);
#124=ORIENTED_EDGE('',*,*,#200,.T.);
#125=ORIENTED_EDGE('',*,*,#180,.F.);
#126=ORIENTED_EDGE('',*,*,#201,.F.);
#127=ORIENTED_EDGE('',*,*,#199,.F.);
#128=ORIENTED_EDGE('',*,*,#203,.T.);
#129=ORIENTED_EDGE('',*,*,#195,.F.);
#130=ORIENTED_EDGE('',*,*,#190,.F.);
#131=ORIENTED_EDGE('',*,*,#198,.T.);
#132=ORIENTED_EDGE('',*,*,#204,.T.);
#133=ORIENTED_EDGE('',*,*,#205,.T.);
#134=ORIENTED_EDGE('',*,*,#185,.F.);
#135=ORIENTED_EDGE('',*,*,#206,.T.);
#136=ORIENTED_EDGE('',*,*,#206,.F.);
#137=ORIENTED_EDGE('',*,*,#184,.F.);
#138=ORIENTED_EDGE('',*,*,#207,.T.);
#139=ORIENTED_EDGE('',*,*,#208,.T.);
#140=ORIENTED_EDGE('',*,*,#183,.F.);
#141=ORIENTED_EDGE('',*,*,#209,.T.);
#142=ORIENTED_EDGE('',*,*,#210,.T.);
#143=ORIENTED_EDGE('',*,*,#207,.F.);
#144=ORIENTED_EDGE('',*,*,#197,.F.);
#145=ORIENTED_EDGE('',*,*,#211,.F.);
#146=ORIENTED_EDGE('',*,*,#212,.F.);
#147=ORIENTED_EDGE('',*,*,#213,.F.);
#148=ORIENTED_EDGE('',*,*,#204,.F.);
#149=ORIENTED_EDGE('',*,*,#208,.F.);
#150=ORIENTED_EDGE('',*,*,#210,.F.);
#151=ORIENTED_EDGE('',*,*,#214,.F.);
#152=ORIENTED_EDGE('',*,*,#215,.F.);
#153=ORIENTED_EDGE('',*,*,#216,.F.);
#154=ORIENTED_EDGE('',*,*,#193,.F.);
#155=ORIENTED_EDGE('',*,*,#203,.F.);
#156=ORIENTED_EDGE('',*,*,#188,.F.);
#157=ORIENTED_EDGE('',*,*,#217,.T.);
#158=ORIENTED_EDGE('',*,*,#211,.T.);
#159=ORIENTED_EDGE('',*,*,#196,.F.);
#160=ORIENTED_EDGE('',*,*,#213,.T.);
#161=ORIENTED_EDGE('',*,*,#218,.F.);
#162=ORIENTED_EDGE('',*,*,#186,.F.);
#163=ORIENTED_EDGE('',*,*,#205,.F.);
#164=ORIENTED_EDGE('',*,*,#212,.T.);
#165=ORIENTED_EDGE('',*,*,#217,.F.);
#166=ORIENTED_EDGE('',*,*,#187,.F.);
#167=ORIENTED_EDGE('',*,*,#218,.T.);
#168=ORIENTED_EDGE('',*,*,#216,.T.);
#169=ORIENTED_EDGE('',*,*,#219,.F.);
#170=ORIENTED_EDGE('',*,*,#192,.F.);
#171=ORIENTED_EDGE('',*,*,#194,.F.);
#172=ORIENTED_EDGE('',*,*,#182,.F.);
#173=ORIENTED_EDGE('',*,*,#220,.T.);
#174=ORIENTED_EDGE('',*,*,#214,.T.);
#175=ORIENTED_EDGE('',*,*,#209,.F.);
#176=ORIENTED_EDGE('',*,*,#220,.F.);
#177=ORIENTED_EDGE('',*,*,#181,.F.);
#178=ORIENTED_EDGE('',*,*,#219,.T.);
#179=ORIENTED_EDGE('',*,*,#215,.T.);
#180=EDGE_CURVE('',#221,#221,#251,.T.);
#181=EDGE_CURVE('',#222,#223,#26,.T.);
#182=EDGE_CURVE('',#223,#224,#27,.T.);
#183=EDGE_CURVE('',#224,#225,#28,.F.);
#184=EDGE_CURVE('',#225,#226,#29,.F.);
#185=EDGE_CURVE('',#226,#227,#30,.F.);
#186=EDGE_CURVE('',#227,#228,#31,.T.);
#187=EDGE_CURVE('',#228,#229,#32,.T.);
#188=EDGE_CURVE('',#229,#230,#33,.T.);
#189=EDGE_CURVE('',#230,#231,#34,.F.);
#190=EDGE_CURVE('',#231,#232,#35,.F.);
#191=EDGE_CURVE('',#232,#233,#36,.F.);
#192=EDGE_CURVE('',#233,#222,#37,.T.);
#193=EDGE_CURVE('',#234,#235,#38,.T.);
#194=EDGE_CURVE('',#235,#233,#39,.F.);
#195=EDGE_CURVE('',#232,#234,#40,.T.);
#196=EDGE_CURVE('',#230,#236,#41,.F.);
#197=EDGE_CURVE('',#236,#237,#42,.T.);
#198=EDGE_CURVE('',#231,#237,#43,.T.);
#199=EDGE_CURVE('',#238,#238,#252,.T.);
#200=EDGE_CURVE('',#239,#239,#253,.T.);
#201=EDGE_CURVE('',#240,#240,#254,.F.);
#202=EDGE_CURVE('',#241,#241,#255,.T.);
#203=EDGE_CURVE('',#237,#234,#44,.T.);
#204=EDGE_CURVE('',#243,#244,#45,.T.);
#205=EDGE_CURVE('',#244,#227,#46,.F.);
#206=EDGE_CURVE('',#226,#243,#47,.T.);
#207=EDGE_CURVE('',#225,#245,#48,.T.);
#208=EDGE_CURVE('',#245,#243,#49,.T.);
#209=EDGE_CURVE('',#224,#246,#50,.F.);
#210=EDGE_CURVE('',#246,#245,#51,.T.);
#211=EDGE_CURVE('',#247,#236,#52,.T.);
#212=EDGE_CURVE('',#248,#247,#53,.T.);
#213=EDGE_CURVE('',#244,#248,#54,.T.);
#214=EDGE_CURVE('',#249,#246,#55,.T.);
#215=EDGE_CURVE('',#250,#249,#56,.T.);
#216=EDGE_CURVE('',#235,#250,#57,.T.);
#217=EDGE_CURVE('',#229,#247,#58,.T.);
#218=EDGE_CURVE('',#228,#248,#59,.T.);
#219=EDGE_CURVE('',#222,#250,#60,.T.);
#220=EDGE_CURVE('',#223,#249,#61,.T.);
#221=VERTEX_POINT('',#464);
#222=VERTEX_POINT('',#466);
#223=VERTEX_POINT('',#467);
#224=VERTEX_POINT('',#469);
#225=VERTEX_POINT('',#471);
#226=VERTEX_POINT('',#473);
#227=VERTEX_POINT('',#475);
#228=VERTEX_POINT('',#477);
#229=VERTEX_POINT('',#479);
#230=VERTEX_POINT('',#481);
#231=VERTEX_POINT('',#483);
#232=VERTEX_POINT('',#485);
#233=VERTEX_POINT('',#487);
#234=VERTEX_POINT('',#491);
#235=VERTEX_POINT('',#492);
#236=VERTEX_POINT('',#497);
#237=VERTEX_POINT('',#499);
#238=VERTEX_POINT('',#503);
#239=VERTEX_POINT('',#505);
#240=VERTEX_POINT('',#508);
#241=VERTEX_POINT('',#510);
#242=VERTEX_POINT('',#512);
#243=VERTEX_POINT('',#519);
#244=VERTEX_POINT('',#520);
#245=VERTEX_POINT('',#525);
#246=VERTEX_POINT('',#529);
#247=VERTEX_POINT('',#533);
#248=VERTEX_POINT('',#535);
#249=VERTEX_POINT('',#538);
#250=VERTEX_POINT('',#540);
#251=CIRCLE('',#352,2.75);
#252=CIRCLE('',#356,1.80147186257614);
#253=CIRCLE('',#357,2.75);
#254=CIRCLE('',#359,1.44999999999999);
#255=CIRCLE('',#360,1.44999999999999);
#256=EDGE_LOOP('',(#98));
#257=EDGE_LOOP('',(#99,#100,#101,#102,#103,#104,#105,#106,#107,#108,#109,
#110));
#258=EDGE_LOOP('',(#111,#112,#113,#114));
#259=EDGE_LOOP('',(#115,#116,#117,#118));
#260=EDGE_LOOP('',(#119));
#261=EDGE_LOOP('',(#120));
#262=EDGE_LOOP('',(#121));
#263=EDGE_LOOP('',(#122));
#264=EDGE_LOOP('',(#123));
#265=EDGE_LOOP('',(#124));
#266=EDGE_LOOP('',(#125));
#267=EDGE_LOOP('',(#126));
#268=EDGE_LOOP('',(#127));
#269=EDGE_LOOP('',(#128,#129,#130,#131));
#270=EDGE_LOOP('',(#132,#133,#134,#135));
#271=EDGE_LOOP('',(#136,#137,#138,#139));
#272=EDGE_LOOP('',(#140,#141,#142,#143));
#273=EDGE_LOOP('',(#144,#145,#146,#147,#148,#149,#150,#151,#152,#153,#154,
#155));
#274=EDGE_LOOP('',(#156,#157,#158,#159));
#275=EDGE_LOOP('',(#160,#161,#162,#163));
#276=EDGE_LOOP('',(#164,#165,#166,#167));
#277=EDGE_LOOP('',(#168,#169,#170,#171));
#278=EDGE_LOOP('',(#172,#173,#174,#175));
#279=EDGE_LOOP('',(#176,#177,#178,#179));
#280=FACE_BOUND('',#256,.T.);
#281=FACE_BOUND('',#257,.T.);
#282=FACE_BOUND('',#258,.T.);
#283=FACE_BOUND('',#259,.T.);
#284=FACE_BOUND('',#260,.T.);
#285=FACE_BOUND('',#261,.T.);
#286=FACE_BOUND('',#262,.T.);
#287=FACE_BOUND('',#263,.T.);
#288=FACE_BOUND('',#21,.T.);
#289=FACE_BOUND('',#264,.T.);
#290=FACE_BOUND('',#265,.T.);
#291=FACE_BOUND('',#266,.T.);
#292=FACE_BOUND('',#267,.T.);
#293=FACE_BOUND('',#268,.T.);
#294=FACE_BOUND('',#269,.T.);
#295=FACE_BOUND('',#270,.T.);
#296=FACE_BOUND('',#271,.T.);
#297=FACE_BOUND('',#272,.T.);
#298=FACE_BOUND('',#273,.T.);
#299=FACE_BOUND('',#274,.T.);
#300=FACE_BOUND('',#275,.T.);
#301=FACE_BOUND('',#276,.T.);
#302=FACE_BOUND('',#277,.T.);
#303=FACE_BOUND('',#278,.T.);
#304=FACE_BOUND('',#279,.T.);
#305=PLANE('',#351);
#306=PLANE('',#353);
#307=PLANE('',#354);
#308=PLANE('',#364);
#309=PLANE('',#365);
#310=PLANE('',#366);
#311=PLANE('',#367);
#312=PLANE('',#368);
#313=PLANE('',#369);
#314=PLANE('',#370);
#315=PLANE('',#371);
#316=PLANE('',#372);
#317=PLANE('',#373);
#318=PLANE('',#374);
#319=ADVANCED_FACE('',(#280,#281),#305,.T.);
#320=ADVANCED_FACE('',(#282),#306,.T.);
#321=ADVANCED_FACE('',(#283),#307,.T.);
#322=ADVANCED_FACE('',(#284,#285),#24,.T.);
#323=ADVANCED_FACE('',(#286,#287),#22,.T.);
#324=ADVANCED_FACE('',(#288,#289),#25,.T.);
#325=ADVANCED_FACE('',(#290,#291),#23,.T.);
#326=ADVANCED_FACE('',(#292,#293),#20,.F.);
#327=ADVANCED_FACE('',(#294),#308,.T.);
#328=ADVANCED_FACE('',(#295),#309,.T.);
#329=ADVANCED_FACE('',(#296),#310,.T.);
#330=ADVANCED_FACE('',(#297),#311,.T.);
#331=ADVANCED_FACE('',(#298),#312,.F.);
#332=ADVANCED_FACE('',(#299),#313,.F.);
#333=ADVANCED_FACE('',(#300),#314,.F.);
#334=ADVANCED_FACE('',(#301),#315,.F.);
#335=ADVANCED_FACE('',(#302),#316,.F.);
#336=ADVANCED_FACE('',(#303),#317,.F.);
#337=ADVANCED_FACE('',(#304),#318,.F.);
#338=CLOSED_SHELL('',(#319,#320,#321,#322,#323,#324,#325,#326,#327,#328,
#329,#330,#331,#332,#333,#334,#335,#336,#337));
#339=STYLED_ITEM('',(#340),#347);
#340=PRESENTATION_STYLE_ASSIGNMENT((#341));
#341=SURFACE_STYLE_USAGE(.BOTH.,#342);
#342=SURFACE_SIDE_STYLE('',(#343));
#343=SURFACE_STYLE_FILL_AREA(#344);
#344=FILL_AREA_STYLE('',(#345));
#345=FILL_AREA_STYLE_COLOUR('',#346);
#346=COLOUR_RGB('',0.506983280181885,0.531564235687256,0.550000011920929);
#347=MANIFOLD_SOLID_BREP('',#338);
#348=SHAPE_DEFINITION_REPRESENTATION(#558,#349);
#349=SHAPE_REPRESENTATION(
'\X2\53415B5769FD6C89593481EA94BB81EA653B87BA9489\X0\ GBT15856.2-2002',
(#350),#553);
#350=AXIS2_PLACEMENT_3D('',#461,#375,#376);
#351=AXIS2_PLACEMENT_3D('',#462,#377,#378);
#352=AXIS2_PLACEMENT_3D('',#463,#379,#380);
#353=AXIS2_PLACEMENT_3D('',#489,#393,#394);
#354=AXIS2_PLACEMENT_3D('',#495,#398,#399);
#355=AXIS2_PLACEMENT_3D('',#501,#403,#404);
#356=AXIS2_PLACEMENT_3D('',#502,#405,#406);
#357=AXIS2_PLACEMENT_3D('',#504,#407,#408);
#358=AXIS2_PLACEMENT_3D('',#506,#409,#410);
#359=AXIS2_PLACEMENT_3D('',#507,#411,#412);
#360=AXIS2_PLACEMENT_3D('',#509,#413,#414);
#361=AXIS2_PLACEMENT_3D('',#511,#415,#416);
#362=AXIS2_PLACEMENT_3D('',#513,#417,#418);
#363=AXIS2_PLACEMENT_3D('',#514,#419,#420);
#364=AXIS2_PLACEMENT_3D('',#515,#421,#422);
#365=AXIS2_PLACEMENT_3D('',#517,#424,#425);
#366=AXIS2_PLACEMENT_3D('',#523,#429,#430);
#367=AXIS2_PLACEMENT_3D('',#527,#433,#434);
#368=AXIS2_PLACEMENT_3D('',#531,#437,#438);
#369=AXIS2_PLACEMENT_3D('',#542,#445,#446);
#370=AXIS2_PLACEMENT_3D('',#544,#448,#449);
#371=AXIS2_PLACEMENT_3D('',#546,#451,#452);
#372=AXIS2_PLACEMENT_3D('',#547,#453,#454);
#373=AXIS2_PLACEMENT_3D('',#549,#456,#457);
#374=AXIS2_PLACEMENT_3D('',#551,#459,#460);
#375=DIRECTION('',(0.,0.,1.));
#376=DIRECTION('',(1.,0.,0.));
#377=DIRECTION('',(-1.,0.,0.));
#378=DIRECTION('',(0.,0.,1.));
#379=DIRECTION('',(-1.,0.,0.));
#380=DIRECTION('',(0.,0.,1.));
#381=DIRECTION('',(6.12303176911189E-17,1.,0.));
#382=DIRECTION('',(0.,0.,1.));
#383=DIRECTION('',(-6.12303176911189E-17,-1.,-1.18584612615602E-16));
#384=DIRECTION('',(0.,0.,-1.));
#385=DIRECTION('',(6.12303176911189E-17,1.,0.));
#386=DIRECTION('',(0.,0.,1.));
#387=DIRECTION('',(-6.12303176911189E-17,-1.,0.));
#388=DIRECTION('',(8.29825543283609E-33,1.35525271560688E-16,-1.));
#389=DIRECTION('',(6.12303176911189E-17,1.,0.));
#390=DIRECTION('',(0.,0.,1.));
#391=DIRECTION('',(-6.12303176911189E-17,-1.,-1.18584612615602E-16));
#392=DIRECTION('',(8.29825543283609E-33,1.35525271560688E-16,-1.));
#393=DIRECTION('',(-0.116841247567398,-1.10618152974601E-16,0.993150604322876));
#394=DIRECTION('',(0.993150604322876,0.,0.116841247567398));
#395=DIRECTION('',(6.12303176911189E-17,1.,0.));
#396=DIRECTION('',(0.986440050415621,0.116051770637132,0.116051770637132));
#397=DIRECTION('',(0.899735410842436,0.423404899219972,0.105851224804993));
#398=DIRECTION('',(-0.116841247567398,7.15422670797842E-18,-0.993150604322876));
#399=DIRECTION('',(-0.993150604322876,0.,0.116841247567398));
#400=DIRECTION('',(-0.986440050415621,-0.116051770637132,0.116051770637132));
#401=DIRECTION('',(-6.12303176911189E-17,-1.,-1.35525271560688E-16));
#402=DIRECTION('',(0.899735410842436,0.423404899219972,-0.105851224804993));
#403=DIRECTION('',(-1.,0.,0.));
#404=DIRECTION('',(0.,0.,1.));
#405=DIRECTION('',(-1.,0.,0.));
#406=DIRECTION('',(0.,0.,1.));
#407=DIRECTION('',(-1.,0.,0.));
#408=DIRECTION('',(0.,0.,1.));
#409=DIRECTION('',(-1.,0.,0.));
#410=DIRECTION('',(0.,0.,1.));
#411=DIRECTION('',(-1.,0.,0.));
#412=DIRECTION('',(0.,0.,1.));
#413=DIRECTION('',(-1.,0.,0.));
#414=DIRECTION('',(0.,0.,1.));
#415=DIRECTION('',(-1.,0.,0.));
#416=DIRECTION('',(0.,0.,1.));
#417=DIRECTION('',(-1.,0.,0.));
#418=DIRECTION('',(0.,0.,1.));
#419=DIRECTION('',(-1.,0.,0.));
#420=DIRECTION('',(0.,0.,1.));
#421=DIRECTION('',(-0.425797036329881,0.904818702200993,0.));
#422=DIRECTION('',(-0.904818702200993,-0.425797036329881,0.));
#423=DIRECTION('',(0.,0.,-1.));
#424=DIRECTION('',(-0.116841247567398,7.15422670797842E-18,-0.993150604322876));
#425=DIRECTION('',(-0.993150604322876,0.,0.116841247567398));
#426=DIRECTION('',(-6.12303176911189E-17,-1.,-1.35525271560688E-16));
#427=DIRECTION('',(0.986440050415621,-0.116051770637132,-0.116051770637132));
#428=DIRECTION('',(0.899735410842437,-0.423404899219972,-0.105851224804993));
#429=DIRECTION('',(-0.425797036329881,-0.904818702200994,0.));
#430=DIRECTION('',(0.904818702200994,-0.425797036329881,0.));
#431=DIRECTION('',(0.899735410842437,-0.423404899219972,0.105851224804993));
#432=DIRECTION('',(0.,0.,1.));
#433=DIRECTION('',(-0.116841247567398,-1.10618152974601E-16,0.993150604322876));
#434=DIRECTION('',(0.993150604322876,0.,0.116841247567398));
#435=DIRECTION('',(-0.986440050415621,0.116051770637132,-0.116051770637132));
#436=DIRECTION('',(6.12303176911189E-17,1.,0.));
#437=DIRECTION('',(1.,0.,0.));
#438=DIRECTION('',(0.,0.,-1.));
#439=DIRECTION('',(7.26097350373158E-33,1.18584612615602E-16,-1.));
#440=DIRECTION('',(-6.12303176911189E-17,-1.,0.));
#441=DIRECTION('',(-1.03728192910451E-33,-1.6940658945086E-17,1.));
#442=DIRECTION('',(-1.03728192910451E-33,-1.6940658945086E-17,1.));
#443=DIRECTION('',(6.12303176911189E-17,1.,0.));
#444=DIRECTION('',(7.26097350373158E-33,1.18584612615602E-16,-1.));
#445=DIRECTION('',(0.116841247567398,-0.993150604322876,-1.34597005351519E-16));
#446=DIRECTION('',(0.993150604322876,0.116841247567398,0.));
#447=DIRECTION('',(0.899735410842437,0.105851224804993,-0.423404899219972));
#448=DIRECTION('',(0.116841247567398,0.993150604322876,0.));
#449=DIRECTION('',(-0.993150604322876,0.116841247567398,0.));
#450=DIRECTION('',(0.899735410842437,-0.105851224804993,-0.423404899219972));
#451=DIRECTION('',(0.425797036329881,-2.60716878064155E-17,0.904818702200993));
#452=DIRECTION('',(0.904818702200993,0.,-0.425797036329881));
#453=DIRECTION('',(0.116841247567398,-0.993150604322876,-1.34597005351519E-16));
#454=DIRECTION('',(0.993150604322876,0.116841247567398,0.));
#455=DIRECTION('',(0.899735410842437,0.105851224804993,0.423404899219972));
#456=DIRECTION('',(0.116841247567398,0.993150604322876,0.));
#457=DIRECTION('',(-0.993150604322876,0.116841247567398,0.));
#458=DIRECTION('',(0.899735410842437,-0.105851224804993,0.423404899219972));
#459=DIRECTION('',(0.425797036329881,-2.60716878064155E-17,-0.904818702200993));
#460=DIRECTION('',(-0.904818702200993,0.,-0.425797036329881));
#461=CARTESIAN_POINT('',(0.,0.,0.));
#462=CARTESIAN_POINT('',(0.,0.,0.));
#463=CARTESIAN_POINT('',(0.,0.,0.));
#464=CARTESIAN_POINT('',(0.,0.,2.75));
#465=CARTESIAN_POINT('',(-2.44921270764475E-17,-0.4,-1.6));
#466=CARTESIAN_POINT('',(-2.44921270764475E-17,-0.4,-1.6));
#467=CARTESIAN_POINT('',(2.44921270764475E-17,0.4,-1.6));
#468=CARTESIAN_POINT('',(2.44921270764475E-17,0.4,-1.6));
#469=CARTESIAN_POINT('',(1.90223271162582E-17,0.4,-0.4));
#470=CARTESIAN_POINT('',(9.79685083057902E-17,1.6,-0.4));
#471=CARTESIAN_POINT('',(9.79685083057902E-17,1.6,-0.4));
#472=CARTESIAN_POINT('',(9.79685083057902E-17,1.6,0.4));
#473=CARTESIAN_POINT('',(9.79685083057902E-17,1.6,0.4));
#474=CARTESIAN_POINT('',(-9.79685083057902E-17,-1.6,0.4));
#475=CARTESIAN_POINT('',(3.93511178503614E-17,0.4,0.4));
#476=CARTESIAN_POINT('',(2.44921270764475E-17,0.4,-1.6));
#477=CARTESIAN_POINT('',(2.44921270764475E-17,0.4,1.6));
#478=CARTESIAN_POINT('',(2.44921270764475E-17,0.4,1.6));
#479=CARTESIAN_POINT('',(-2.44921270764475E-17,-0.4,1.6));
#480=CARTESIAN_POINT('',(-2.44921270764475E-17,-0.4,1.6));
#481=CARTESIAN_POINT('',(-1.90223271162582E-17,-0.4,0.4));
#482=CARTESIAN_POINT('',(-9.79685083057902E-17,-1.6,0.4));
#483=CARTESIAN_POINT('',(-9.79685083057902E-17,-1.6,0.4));
#484=CARTESIAN_POINT('',(-9.79685083057902E-17,-1.6,-0.4));
#485=CARTESIAN_POINT('',(0.,-1.6,-0.4));
#486=CARTESIAN_POINT('',(9.79685083057902E-17,1.6,-0.4));
#487=CARTESIAN_POINT('',(-1.22460635382238E-17,-0.4,-0.4));
#488=CARTESIAN_POINT('',(-2.44921270764475E-17,-0.4,1.6));
#489=CARTESIAN_POINT('',(0.0464163822525599,4.39441941903221E-17,-0.394539249146758));
#490=CARTESIAN_POINT('',(1.69999999999999,-0.8,-0.2));
#491=CARTESIAN_POINT('',(1.69999999999999,-0.8,-0.2));
#492=CARTESIAN_POINT('',(1.69999999999999,-0.2,-0.2));
#493=CARTESIAN_POINT('',(0.0915824915824919,-0.389225589225589,-0.389225589225589));
#494=CARTESIAN_POINT('',(-9.79685083057902E-17,-1.6,-0.4));
#495=CARTESIAN_POINT('',(0.0464163822525598,-2.84208983139665E-18,0.394539249146758));
#496=CARTESIAN_POINT('',(0.0915824915824918,-0.389225589225589,0.389225589225589));
#497=CARTESIAN_POINT('',(1.69999999999999,-0.2,0.2));
#498=CARTESIAN_POINT('',(1.69999999999999,0.8,0.2));
#499=CARTESIAN_POINT('',(1.69999999999999,-0.8,0.2));
#500=CARTESIAN_POINT('',(-9.79685083057902E-17,-1.6,0.4));
#501=CARTESIAN_POINT('',(0.399999999999993,0.,0.));
#502=CARTESIAN_POINT('',(1.34852813742386,0.,0.));
#503=CARTESIAN_POINT('',(1.34852813742386,0.,1.80147186257614));
#504=CARTESIAN_POINT('',(0.399999999999993,0.,0.));
#505=CARTESIAN_POINT('',(0.399999999999993,0.,2.75));
#506=CARTESIAN_POINT('',(0.,0.,0.));
#507=CARTESIAN_POINT('',(2.19705627484771,0.,0.));
#508=CARTESIAN_POINT('',(2.19705627484771,0.,1.44999999999999));
#509=CARTESIAN_POINT('',(14.55,0.,0.));
#510=CARTESIAN_POINT('',(14.55,0.,1.44999999999999));
#511=CARTESIAN_POINT('',(14.55,0.,0.));
#512=CARTESIAN_POINT('',(16.,0.,0.));
#513=CARTESIAN_POINT('',(0.,0.,0.));
#514=CARTESIAN_POINT('',(2.19705627484771,0.,0.));
#515=CARTESIAN_POINT('',(0.616430594900852,-1.3099150141643,0.));
#516=CARTESIAN_POINT('',(1.69999999999999,-0.8,0.2));
#517=CARTESIAN_POINT('',(0.0464163822525598,-2.84208983139665E-18,0.394539249146758));
#518=CARTESIAN_POINT('',(1.69999999999999,0.8,0.2));
#519=CARTESIAN_POINT('',(1.69999999999999,0.800000000000001,0.2));
#520=CARTESIAN_POINT('',(1.69999999999999,0.2,0.2));
#521=CARTESIAN_POINT('',(0.0915824915824919,0.389225589225589,0.389225589225589));
#522=CARTESIAN_POINT('',(9.79685083057902E-17,1.6,0.4));
#523=CARTESIAN_POINT('',(0.616430594900851,1.3099150141643,0.));
#524=CARTESIAN_POINT('',(9.79685083057902E-17,1.6,-0.4));
#525=CARTESIAN_POINT('',(1.69999999999999,0.800000000000001,-0.2));
#526=CARTESIAN_POINT('',(1.69999999999999,0.8,-0.2));
#527=CARTESIAN_POINT('',(0.0464163822525599,4.39441941903221E-17,-0.394539249146758));
#528=CARTESIAN_POINT('',(0.0915824915824919,0.389225589225589,-0.389225589225589));
#529=CARTESIAN_POINT('',(1.69999999999999,0.2,-0.2));
#530=CARTESIAN_POINT('',(1.69999999999999,-0.8,-0.2));
#531=CARTESIAN_POINT('',(1.69999999999999,0.4,-0.1));
#532=CARTESIAN_POINT('',(1.69999999999999,-0.2,0.799999999999999));
#533=CARTESIAN_POINT('',(1.69999999999999,-0.2,0.799999999999999));
#534=CARTESIAN_POINT('',(1.69999999999999,0.2,0.799999999999999));
#535=CARTESIAN_POINT('',(1.69999999999999,0.2,0.799999999999999));
#536=CARTESIAN_POINT('',(1.69999999999999,0.2,-0.8));
#537=CARTESIAN_POINT('',(1.69999999999999,0.2,-0.8));
#538=CARTESIAN_POINT('',(1.69999999999999,0.2,-0.8));
#539=CARTESIAN_POINT('',(1.69999999999999,-0.2,-0.8));
#540=CARTESIAN_POINT('',(1.69999999999999,-0.2,-0.8));
#541=CARTESIAN_POINT('',(1.69999999999999,-0.2,0.799999999999999));
#542=CARTESIAN_POINT('',(0.0464163822525599,-0.394539249146758,-5.34700388819643E-17));
#543=CARTESIAN_POINT('',(-2.44921270764475E-17,-0.4,1.6));
#544=CARTESIAN_POINT('',(0.0464163822525599,0.394539249146758,0.));
#545=CARTESIAN_POINT('',(2.44921270764475E-17,0.4,1.6));
#546=CARTESIAN_POINT('',(0.616430594900852,-3.77442411603045E-17,1.3099150141643));
#547=CARTESIAN_POINT('',(0.0464163822525599,-0.394539249146758,-5.34700388819643E-17));
#548=CARTESIAN_POINT('',(-2.44921270764475E-17,-0.4,-1.6));
#549=CARTESIAN_POINT('',(0.0464163822525599,0.394539249146758,0.));
#550=CARTESIAN_POINT('',(2.44921270764475E-17,0.4,-1.6));
#551=CARTESIAN_POINT('',(0.616430594900851,-3.77442411603045E-17,-1.3099150141643));
#552=MECHANICAL_DESIGN_GEOMETRIC_PRESENTATION_REPRESENTATION('',(#339),
#553);
#553=(
GEOMETRIC_REPRESENTATION_CONTEXT(3)
GLOBAL_UNCERTAINTY_ASSIGNED_CONTEXT((#554))
GLOBAL_UNIT_ASSIGNED_CONTEXT((#557,#556,#555))
REPRESENTATION_CONTEXT(
'\X2\53415B5769FD6C89593481EA94BB81EA653B87BA9489\X0\ GBT15856.2-2002',
'TOP_LEVEL_ASSEMBLY_PART')
);
#554=UNCERTAINTY_MEASURE_WITH_UNIT(LENGTH_MEASURE(0.005),#557,
'DISTANCE_ACCURACY_VALUE','Maximum Tolerance applied to model');
#555=(
NAMED_UNIT(*)
SI_UNIT($,.STERADIAN.)
SOLID_ANGLE_UNIT()
);
#556=(
NAMED_UNIT(*)
PLANE_ANGLE_UNIT()
SI_UNIT($,.RADIAN.)
);
#557=(
LENGTH_UNIT()
NAMED_UNIT(*)
SI_UNIT(.MILLI.,.METRE.)
);
#558=PRODUCT_DEFINITION_SHAPE('','',#559);
#559=PRODUCT_DEFINITION('','',#561,#560);
#560=PRODUCT_DEFINITION_CONTEXT('',#567,'design');
#561=PRODUCT_DEFINITION_FORMATION_WITH_SPECIFIED_SOURCE('','',#563,
 .NOT_KNOWN.);
#562=PRODUCT_RELATED_PRODUCT_CATEGORY('','',(#563));
#563=PRODUCT('\X2\53415B5769FD6C89593481EA94BB81EA653B87BA9489\X0\ GBT
15856.2-2002','\X2\53415B5769FD6C89593481EA94BB81EA653B87BA9489\X0\ GB
T15856.2-2002','\X2\53415B5769FD6C89593481EA94BB81EA653B87BA9489\X0\ G
BT15856.2-2002',(#565));
#564=PRODUCT_CATEGORY('','');
#565=PRODUCT_CONTEXT('',#567,'mechanical');
#566=APPLICATION_PROTOCOL_DEFINITION('international standard',
'automotive_design',2010,#567);
#567=APPLICATION_CONTEXT(
'core data for automotive mechanical design processes');
ENDSEC;
END-ISO-10303-21;
