ISO-10303-21;
HEADER;
/* Generated by software containing HOOPS Exchange Step
 * from HOOPS Exchange, Inc. (www.tiangong.cloud) 
 */

FILE_DESCRIPTION(
/* description */ ('Unknown'),
/* implementation_level */ '2;1');

FILE_NAME(
/* name */ 'tmp3C5C.tmp',
/* time_stamp */ '2025-01-13T09:22:56+08:00',
/* author */ ('Unknown'),
/* organization */ ('Unknown'),
/* preprocessor_version */ 'ST-DEVELOPER v18.104',
/* originating_system */ 'TianGong',
/* authorisation */ 'Unknown');

FILE_SCHEMA (('AUTOMOTIVE_DESIGN {1 0 10303 214 3 1 1}'));
ENDSEC;

DATA;
#10=PROPERTY_DEFINITION_REPRESENTATION(#14,#12);
#11=PROPERTY_DEFINITION_REPRESENTATION(#15,#13);
#12=REPRESENTATION('',(#16),#565);
#13=REPRESENTATION('',(#17),#565);
#14=PROPERTY_DEFINITION('pmi validation property','',#570);
#15=PROPERTY_DEFINITION('pmi validation property','',#570);
#16=VALUE_REPRESENTATION_ITEM('number of annotations',COUNT_MEASURE(0.));
#17=VALUE_REPRESENTATION_ITEM('number of views',COUNT_MEASURE(0.));
#18=SHAPE_REPRESENTATION_RELATIONSHIP('','',#337,#19);
#19=ADVANCED_BREP_SHAPE_REPRESENTATION('',(#335),#565);
#20=TOROIDAL_SURFACE('',#374,1.55,0.1);
#21=VERTEX_LOOP('',#235);
#22=CONICAL_SURFACE('',#363,1.45,0.785398163397449);
#23=CYLINDRICAL_SURFACE('',#360,1.45);
#24=CYLINDRICAL_SURFACE('',#364,2.8);
#25=LINE('',#502,#49);
#26=LINE('',#505,#50);
#27=LINE('',#506,#51);
#28=LINE('',#508,#52);
#29=LINE('',#510,#53);
#30=LINE('',#512,#54);
#31=LINE('',#514,#55);
#32=LINE('',#516,#56);
#33=LINE('',#518,#57);
#34=LINE('',#520,#58);
#35=LINE('',#523,#59);
#36=LINE('',#524,#60);
#37=LINE('',#539,#61);
#38=LINE('',#541,#62);
#39=LINE('',#543,#63);
#40=LINE('',#545,#64);
#41=LINE('',#547,#65);
#42=LINE('',#548,#66);
#43=LINE('',#550,#67);
#44=LINE('',#552,#68);
#45=LINE('',#554,#69);
#46=LINE('',#556,#70);
#47=LINE('',#559,#71);
#48=LINE('',#561,#72);
#49=VECTOR('',#407,1000.);
#50=VECTOR('',#408,1000.);
#51=VECTOR('',#409,1000.);
#52=VECTOR('',#412,1000.);
#53=VECTOR('',#413,1000.);
#54=VECTOR('',#414,1000.);
#55=VECTOR('',#417,1000.);
#56=VECTOR('',#418,1000.);
#57=VECTOR('',#419,1000.);
#58=VECTOR('',#422,1000.);
#59=VECTOR('',#423,1000.);
#60=VECTOR('',#424,1000.);
#61=VECTOR('',#443,1000.);
#62=VECTOR('',#446,1000.);
#63=VECTOR('',#449,1000.);
#64=VECTOR('',#450,1000.);
#65=VECTOR('',#451,1000.);
#66=VECTOR('',#452,1000.);
#67=VECTOR('',#453,1000.);
#68=VECTOR('',#454,1000.);
#69=VECTOR('',#457,1000.);
#70=VECTOR('',#460,1000.);
#71=VECTOR('',#465,1000.);
#72=VECTOR('',#468,1000.);
#73=PLANE('',#353);
#74=PLANE('',#354);
#75=PLANE('',#355);
#76=PLANE('',#356);
#77=PLANE('',#357);
#78=PLANE('',#365);
#79=PLANE('',#366);
#80=PLANE('',#367);
#81=PLANE('',#368);
#82=PLANE('',#369);
#83=PLANE('',#370);
#84=PLANE('',#371);
#85=PLANE('',#372);
#86=PLANE('',#373);
#87=ORIENTED_EDGE('',*,*,#169,.T.);
#88=ORIENTED_EDGE('',*,*,#170,.T.);
#89=ORIENTED_EDGE('',*,*,#171,.T.);
#90=ORIENTED_EDGE('',*,*,#172,.T.);
#91=ORIENTED_EDGE('',*,*,#173,.T.);
#92=ORIENTED_EDGE('',*,*,#174,.T.);
#93=ORIENTED_EDGE('',*,*,#175,.T.);
#94=ORIENTED_EDGE('',*,*,#176,.T.);
#95=ORIENTED_EDGE('',*,*,#177,.T.);
#96=ORIENTED_EDGE('',*,*,#178,.T.);
#97=ORIENTED_EDGE('',*,*,#179,.T.);
#98=ORIENTED_EDGE('',*,*,#180,.T.);
#99=ORIENTED_EDGE('',*,*,#181,.T.);
#100=ORIENTED_EDGE('',*,*,#182,.T.);
#101=ORIENTED_EDGE('',*,*,#183,.T.);
#102=ORIENTED_EDGE('',*,*,#170,.F.);
#103=ORIENTED_EDGE('',*,*,#184,.F.);
#104=ORIENTED_EDGE('',*,*,#174,.F.);
#105=ORIENTED_EDGE('',*,*,#185,.T.);
#106=ORIENTED_EDGE('',*,*,#186,.T.);
#107=ORIENTED_EDGE('',*,*,#187,.T.);
#108=ORIENTED_EDGE('',*,*,#180,.F.);
#109=ORIENTED_EDGE('',*,*,#188,.T.);
#110=ORIENTED_EDGE('',*,*,#189,.T.);
#111=ORIENTED_EDGE('',*,*,#190,.T.);
#112=ORIENTED_EDGE('',*,*,#191,.T.);
#113=ORIENTED_EDGE('',*,*,#192,.T.);
#114=ORIENTED_EDGE('',*,*,#176,.F.);
#115=ORIENTED_EDGE('',*,*,#193,.F.);
#116=ORIENTED_EDGE('',*,*,#194,.T.);
#117=ORIENTED_EDGE('',*,*,#195,.F.);
#118=ORIENTED_EDGE('',*,*,#196,.T.);
#119=ORIENTED_EDGE('',*,*,#197,.T.);
#120=ORIENTED_EDGE('',*,*,#197,.F.);
#121=ORIENTED_EDGE('',*,*,#195,.T.);
#122=ORIENTED_EDGE('',*,*,#169,.F.);
#123=ORIENTED_EDGE('',*,*,#190,.F.);
#124=ORIENTED_EDGE('',*,*,#198,.T.);
#125=ORIENTED_EDGE('',*,*,#184,.T.);
#126=ORIENTED_EDGE('',*,*,#181,.F.);
#127=ORIENTED_EDGE('',*,*,#187,.F.);
#128=ORIENTED_EDGE('',*,*,#199,.T.);
#129=ORIENTED_EDGE('',*,*,#193,.T.);
#130=ORIENTED_EDGE('',*,*,#175,.F.);
#131=ORIENTED_EDGE('',*,*,#186,.F.);
#132=ORIENTED_EDGE('',*,*,#200,.F.);
#133=ORIENTED_EDGE('',*,*,#201,.F.);
#134=ORIENTED_EDGE('',*,*,#202,.F.);
#135=ORIENTED_EDGE('',*,*,#182,.F.);
#136=ORIENTED_EDGE('',*,*,#198,.F.);
#137=ORIENTED_EDGE('',*,*,#189,.F.);
#138=ORIENTED_EDGE('',*,*,#203,.F.);
#139=ORIENTED_EDGE('',*,*,#204,.F.);
#140=ORIENTED_EDGE('',*,*,#205,.F.);
#141=ORIENTED_EDGE('',*,*,#191,.F.);
#142=ORIENTED_EDGE('',*,*,#199,.F.);
#143=ORIENTED_EDGE('',*,*,#206,.F.);
#144=ORIENTED_EDGE('',*,*,#203,.T.);
#145=ORIENTED_EDGE('',*,*,#188,.F.);
#146=ORIENTED_EDGE('',*,*,#179,.F.);
#147=ORIENTED_EDGE('',*,*,#192,.F.);
#148=ORIENTED_EDGE('',*,*,#205,.T.);
#149=ORIENTED_EDGE('',*,*,#207,.T.);
#150=ORIENTED_EDGE('',*,*,#177,.F.);
#151=ORIENTED_EDGE('',*,*,#207,.F.);
#152=ORIENTED_EDGE('',*,*,#204,.T.);
#153=ORIENTED_EDGE('',*,*,#206,.T.);
#154=ORIENTED_EDGE('',*,*,#178,.F.);
#155=ORIENTED_EDGE('',*,*,#183,.F.);
#156=ORIENTED_EDGE('',*,*,#202,.T.);
#157=ORIENTED_EDGE('',*,*,#208,.T.);
#158=ORIENTED_EDGE('',*,*,#171,.F.);
#159=ORIENTED_EDGE('',*,*,#209,.F.);
#160=ORIENTED_EDGE('',*,*,#200,.T.);
#161=ORIENTED_EDGE('',*,*,#185,.F.);
#162=ORIENTED_EDGE('',*,*,#173,.F.);
#163=ORIENTED_EDGE('',*,*,#208,.F.);
#164=ORIENTED_EDGE('',*,*,#201,.T.);
#165=ORIENTED_EDGE('',*,*,#209,.T.);
#166=ORIENTED_EDGE('',*,*,#172,.F.);
#167=ORIENTED_EDGE('',*,*,#196,.F.);
#168=ORIENTED_EDGE('',*,*,#194,.F.);
#169=EDGE_CURVE('',#210,#210,#240,.T.);
#170=EDGE_CURVE('',#211,#212,#241,.F.);
#171=EDGE_CURVE('',#212,#213,#242,.F.);
#172=EDGE_CURVE('',#213,#214,#243,.F.);
#173=EDGE_CURVE('',#214,#215,#244,.F.);
#174=EDGE_CURVE('',#215,#216,#245,.F.);
#175=EDGE_CURVE('',#216,#217,#246,.F.);
#176=EDGE_CURVE('',#217,#218,#247,.F.);
#177=EDGE_CURVE('',#218,#219,#248,.F.);
#178=EDGE_CURVE('',#219,#220,#249,.F.);
#179=EDGE_CURVE('',#220,#221,#250,.F.);
#180=EDGE_CURVE('',#221,#222,#251,.F.);
#181=EDGE_CURVE('',#222,#211,#252,.F.);
#182=EDGE_CURVE('',#223,#224,#25,.T.);
#183=EDGE_CURVE('',#224,#212,#26,.T.);
#184=EDGE_CURVE('',#223,#211,#27,.T.);
#185=EDGE_CURVE('',#215,#225,#28,.T.);
#186=EDGE_CURVE('',#225,#226,#29,.T.);
#187=EDGE_CURVE('',#226,#216,#30,.T.);
#188=EDGE_CURVE('',#221,#227,#31,.T.);
#189=EDGE_CURVE('',#227,#228,#32,.T.);
#190=EDGE_CURVE('',#228,#222,#33,.T.);
#191=EDGE_CURVE('',#229,#230,#34,.T.);
#192=EDGE_CURVE('',#230,#218,#35,.T.);
#193=EDGE_CURVE('',#229,#217,#36,.T.);
#194=EDGE_CURVE('',#231,#231,#253,.F.);
#195=EDGE_CURVE('',#232,#232,#254,.T.);
#196=EDGE_CURVE('',#233,#233,#255,.T.);
#197=EDGE_CURVE('',#234,#234,#256,.T.);
#198=EDGE_CURVE('',#228,#223,#37,.T.);
#199=EDGE_CURVE('',#226,#229,#38,.T.);
#200=EDGE_CURVE('',#236,#225,#39,.T.);
#201=EDGE_CURVE('',#237,#236,#40,.T.);
#202=EDGE_CURVE('',#224,#237,#41,.T.);
#203=EDGE_CURVE('',#238,#227,#42,.T.);
#204=EDGE_CURVE('',#239,#238,#43,.T.);
#205=EDGE_CURVE('',#230,#239,#44,.T.);
#206=EDGE_CURVE('',#238,#220,#45,.T.);
#207=EDGE_CURVE('',#239,#219,#46,.T.);
#208=EDGE_CURVE('',#237,#213,#47,.T.);
#209=EDGE_CURVE('',#236,#214,#48,.T.);
#210=VERTEX_POINT('',#476);
#211=VERTEX_POINT('',#478);
#212=VERTEX_POINT('',#479);
#213=VERTEX_POINT('',#481);
#214=VERTEX_POINT('',#483);
#215=VERTEX_POINT('',#485);
#216=VERTEX_POINT('',#487);
#217=VERTEX_POINT('',#489);
#218=VERTEX_POINT('',#491);
#219=VERTEX_POINT('',#493);
#220=VERTEX_POINT('',#495);
#221=VERTEX_POINT('',#497);
#222=VERTEX_POINT('',#499);
#223=VERTEX_POINT('',#503);
#224=VERTEX_POINT('',#504);
#225=VERTEX_POINT('',#509);
#226=VERTEX_POINT('',#511);
#227=VERTEX_POINT('',#515);
#228=VERTEX_POINT('',#517);
#229=VERTEX_POINT('',#521);
#230=VERTEX_POINT('',#522);
#231=VERTEX_POINT('',#527);
#232=VERTEX_POINT('',#529);
#233=VERTEX_POINT('',#532);
#234=VERTEX_POINT('',#534);
#235=VERTEX_POINT('',#536);
#236=VERTEX_POINT('',#544);
#237=VERTEX_POINT('',#546);
#238=VERTEX_POINT('',#549);
#239=VERTEX_POINT('',#551);
#240=CIRCLE('',#340,2.8);
#241=CIRCLE('',#341,4.98591766879478);
#242=CIRCLE('',#342,4.98591766879478);
#243=CIRCLE('',#343,4.76969600708473);
#244=CIRCLE('',#344,4.98591766879478);
#245=CIRCLE('',#345,4.98591766879478);
#246=CIRCLE('',#346,4.76969600708473);
#247=CIRCLE('',#347,4.98591766879478);
#248=CIRCLE('',#348,4.98591766879478);
#249=CIRCLE('',#349,4.76969600708473);
#250=CIRCLE('',#350,4.98591766879478);
#251=CIRCLE('',#351,4.98591766879478);
#252=CIRCLE('',#352,4.76969600708473);
#253=CIRCLE('',#358,1.55);
#254=CIRCLE('',#359,2.8);
#255=CIRCLE('',#361,1.45);
#256=CIRCLE('',#362,1.45);
#257=EDGE_LOOP('',(#87));
#258=EDGE_LOOP('',(#88,#89,#90,#91,#92,#93,#94,#95,#96,#97,#98,#99));
#259=EDGE_LOOP('',(#100,#101,#102,#103));
#260=EDGE_LOOP('',(#104,#105,#106,#107));
#261=EDGE_LOOP('',(#108,#109,#110,#111));
#262=EDGE_LOOP('',(#112,#113,#114,#115));
#263=EDGE_LOOP('',(#116));
#264=EDGE_LOOP('',(#117));
#265=EDGE_LOOP('',(#118));
#266=EDGE_LOOP('',(#119));
#267=EDGE_LOOP('',(#120));
#268=EDGE_LOOP('',(#121));
#269=EDGE_LOOP('',(#122));
#270=EDGE_LOOP('',(#123,#124,#125,#126));
#271=EDGE_LOOP('',(#127,#128,#129,#130));
#272=EDGE_LOOP('',(#131,#132,#133,#134,#135,#136,#137,#138,#139,#140,#141,
#142));
#273=EDGE_LOOP('',(#143,#144,#145,#146));
#274=EDGE_LOOP('',(#147,#148,#149,#150));
#275=EDGE_LOOP('',(#151,#152,#153,#154));
#276=EDGE_LOOP('',(#155,#156,#157,#158));
#277=EDGE_LOOP('',(#159,#160,#161,#162));
#278=EDGE_LOOP('',(#163,#164,#165,#166));
#279=EDGE_LOOP('',(#167));
#280=EDGE_LOOP('',(#168));
#281=FACE_BOUND('',#257,.T.);
#282=FACE_BOUND('',#258,.T.);
#283=FACE_BOUND('',#259,.T.);
#284=FACE_BOUND('',#260,.T.);
#285=FACE_BOUND('',#261,.T.);
#286=FACE_BOUND('',#262,.T.);
#287=FACE_BOUND('',#263,.T.);
#288=FACE_BOUND('',#264,.T.);
#289=FACE_BOUND('',#265,.T.);
#290=FACE_BOUND('',#266,.T.);
#291=FACE_BOUND('',#21,.T.);
#292=FACE_BOUND('',#267,.T.);
#293=FACE_BOUND('',#268,.T.);
#294=FACE_BOUND('',#269,.T.);
#295=FACE_BOUND('',#270,.T.);
#296=FACE_BOUND('',#271,.T.);
#297=FACE_BOUND('',#272,.T.);
#298=FACE_BOUND('',#273,.T.);
#299=FACE_BOUND('',#274,.T.);
#300=FACE_BOUND('',#275,.T.);
#301=FACE_BOUND('',#276,.T.);
#302=FACE_BOUND('',#277,.T.);
#303=FACE_BOUND('',#278,.T.);
#304=FACE_BOUND('',#279,.T.);
#305=FACE_BOUND('',#280,.T.);
#306=SPHERICAL_SURFACE('',#339,5.);
#307=ADVANCED_FACE('',(#281,#282),#306,.T.);
#308=ADVANCED_FACE('',(#283),#73,.T.);
#309=ADVANCED_FACE('',(#284),#74,.T.);
#310=ADVANCED_FACE('',(#285),#75,.T.);
#311=ADVANCED_FACE('',(#286),#76,.T.);
#312=ADVANCED_FACE('',(#287,#288),#77,.T.);
#313=ADVANCED_FACE('',(#289,#290),#23,.T.);
#314=ADVANCED_FACE('',(#291,#292),#22,.T.);
#315=ADVANCED_FACE('',(#293,#294),#24,.T.);
#316=ADVANCED_FACE('',(#295),#78,.T.);
#317=ADVANCED_FACE('',(#296),#79,.T.);
#318=ADVANCED_FACE('',(#297),#80,.F.);
#319=ADVANCED_FACE('',(#298),#81,.T.);
#320=ADVANCED_FACE('',(#299),#82,.T.);
#321=ADVANCED_FACE('',(#300),#83,.T.);
#322=ADVANCED_FACE('',(#301),#84,.T.);
#323=ADVANCED_FACE('',(#302),#85,.T.);
#324=ADVANCED_FACE('',(#303),#86,.T.);
#325=ADVANCED_FACE('',(#304,#305),#20,.F.);
#326=CLOSED_SHELL('',(#307,#308,#309,#310,#311,#312,#313,#314,#315,#316,
#317,#318,#319,#320,#321,#322,#323,#324,#325));
#327=STYLED_ITEM('',(#328),#335);
#328=PRESENTATION_STYLE_ASSIGNMENT((#329));
#329=SURFACE_STYLE_USAGE(.BOTH.,#330);
#330=SURFACE_SIDE_STYLE('',(#331));
#331=SURFACE_STYLE_FILL_AREA(#332);
#332=FILL_AREA_STYLE('',(#333));
#333=FILL_AREA_STYLE_COLOUR('',#334);
#334=COLOUR_RGB('',0.506983280181885,0.531564235687256,0.550000011920929);
#335=MANIFOLD_SOLID_BREP('',#326);
#336=SHAPE_DEFINITION_REPRESENTATION(#570,#337);
#337=SHAPE_REPRESENTATION(
'\X2\53415B5769FD76D8593481EA94BB81EA653B87BA9489\X0\ GBT15856.1-2002',
(#338),#565);
#338=AXIS2_PLACEMENT_3D('',#473,#375,#376);
#339=AXIS2_PLACEMENT_3D('',#474,#377,#378);
#340=AXIS2_PLACEMENT_3D('',#475,#379,#380);
#341=AXIS2_PLACEMENT_3D('',#477,#381,#382);
#342=AXIS2_PLACEMENT_3D('',#480,#383,#384);
#343=AXIS2_PLACEMENT_3D('',#482,#385,#386);
#344=AXIS2_PLACEMENT_3D('',#484,#387,#388);
#345=AXIS2_PLACEMENT_3D('',#486,#389,#390);
#346=AXIS2_PLACEMENT_3D('',#488,#391,#392);
#347=AXIS2_PLACEMENT_3D('',#490,#393,#394);
#348=AXIS2_PLACEMENT_3D('',#492,#395,#396);
#349=AXIS2_PLACEMENT_3D('',#494,#397,#398);
#350=AXIS2_PLACEMENT_3D('',#496,#399,#400);
#351=AXIS2_PLACEMENT_3D('',#498,#401,#402);
#352=AXIS2_PLACEMENT_3D('',#500,#403,#404);
#353=AXIS2_PLACEMENT_3D('',#501,#405,#406);
#354=AXIS2_PLACEMENT_3D('',#507,#410,#411);
#355=AXIS2_PLACEMENT_3D('',#513,#415,#416);
#356=AXIS2_PLACEMENT_3D('',#519,#420,#421);
#357=AXIS2_PLACEMENT_3D('',#525,#425,#426);
#358=AXIS2_PLACEMENT_3D('',#526,#427,#428);
#359=AXIS2_PLACEMENT_3D('',#528,#429,#430);
#360=AXIS2_PLACEMENT_3D('',#530,#431,#432);
#361=AXIS2_PLACEMENT_3D('',#531,#433,#434);
#362=AXIS2_PLACEMENT_3D('',#533,#435,#436);
#363=AXIS2_PLACEMENT_3D('',#535,#437,#438);
#364=AXIS2_PLACEMENT_3D('',#537,#439,#440);
#365=AXIS2_PLACEMENT_3D('',#538,#441,#442);
#366=AXIS2_PLACEMENT_3D('',#540,#444,#445);
#367=AXIS2_PLACEMENT_3D('',#542,#447,#448);
#368=AXIS2_PLACEMENT_3D('',#553,#455,#456);
#369=AXIS2_PLACEMENT_3D('',#555,#458,#459);
#370=AXIS2_PLACEMENT_3D('',#557,#461,#462);
#371=AXIS2_PLACEMENT_3D('',#558,#463,#464);
#372=AXIS2_PLACEMENT_3D('',#560,#466,#467);
#373=AXIS2_PLACEMENT_3D('',#562,#469,#470);
#374=AXIS2_PLACEMENT_3D('',#563,#471,#472);
#375=DIRECTION('',(0.,0.,1.));
#376=DIRECTION('',(1.,0.,0.));
#377=DIRECTION('',(-1.,0.,0.));
#378=DIRECTION('',(0.,0.,1.));
#379=DIRECTION('',(-1.,0.,0.));
#380=DIRECTION('',(0.,0.,1.));
#381=DIRECTION('',(0.,1.,1.26490253456642E-16));
#382=DIRECTION('',(0.,-1.26490253456642E-16,1.));
#383=DIRECTION('',(0.,1.26490253456642E-16,-1.));
#384=DIRECTION('',(0.,1.,1.26490253456642E-16));
#385=DIRECTION('',(0.,1.,0.));
#386=DIRECTION('',(0.,0.,1.));
#387=DIRECTION('',(0.,0.,1.));
#388=DIRECTION('',(1.,0.,0.));
#389=DIRECTION('',(0.,1.,1.26490253456642E-16));
#390=DIRECTION('',(0.,-1.26490253456642E-16,1.));
#391=DIRECTION('',(0.,0.,1.));
#392=DIRECTION('',(1.,0.,0.));
#393=DIRECTION('',(0.,-1.,1.80700362080917E-17));
#394=DIRECTION('',(0.,-1.80700362080917E-17,-1.));
#395=DIRECTION('',(0.,0.,1.));
#396=DIRECTION('',(1.,0.,0.));
#397=DIRECTION('',(0.,-1.,0.));
#398=DIRECTION('',(0.,0.,-1.));
#399=DIRECTION('',(0.,1.26490253456642E-16,-1.));
#400=DIRECTION('',(0.,1.,1.26490253456642E-16));
#401=DIRECTION('',(0.,-1.,1.80700362080917E-17));
#402=DIRECTION('',(0.,-1.80700362080917E-17,-1.));
#403=DIRECTION('',(0.,0.,-1.));
#404=DIRECTION('',(-1.,0.,0.));
#405=DIRECTION('',(0.,1.,1.26490253456642E-16));
#406=DIRECTION('',(0.,-1.26490253456642E-16,1.));
#407=DIRECTION('',(7.74503840398035E-33,1.26490253456642E-16,-1.));
#408=DIRECTION('',(-1.,0.,0.));
#409=DIRECTION('',(-1.,0.,0.));
#410=DIRECTION('',(0.,1.,1.26490253456642E-16));
#411=DIRECTION('',(0.,-1.26490253456642E-16,1.));
#412=DIRECTION('',(1.,0.,0.));
#413=DIRECTION('',(7.74503840398035E-33,1.26490253456642E-16,-1.));
#414=DIRECTION('',(-1.,0.,0.));
#415=DIRECTION('',(0.,-1.,1.80700362080917E-17));
#416=DIRECTION('',(0.,-1.80700362080917E-17,-1.));
#417=DIRECTION('',(1.,0.,0.));
#418=DIRECTION('',(1.10643405771148E-33,1.80700362080917E-17,1.));
#419=DIRECTION('',(-1.,0.,0.));
#420=DIRECTION('',(0.,-1.,1.80700362080917E-17));
#421=DIRECTION('',(0.,-1.80700362080917E-17,-1.));
#422=DIRECTION('',(1.10643405771148E-33,1.80700362080917E-17,1.));
#423=DIRECTION('',(-1.,0.,0.));
#424=DIRECTION('',(-1.,0.,0.));
#425=DIRECTION('',(1.,0.,0.));
#426=DIRECTION('',(0.,0.,-1.));
#427=DIRECTION('',(1.,0.,0.));
#428=DIRECTION('',(0.,0.,-1.));
#429=DIRECTION('',(-1.,0.,0.));
#430=DIRECTION('',(0.,0.,1.));
#431=DIRECTION('',(-1.,0.,0.));
#432=DIRECTION('',(0.,0.,1.));
#433=DIRECTION('',(1.,0.,0.));
#434=DIRECTION('',(0.,0.,-1.));
#435=DIRECTION('',(-1.,0.,0.));
#436=DIRECTION('',(0.,0.,1.));
#437=DIRECTION('',(-1.,0.,0.));
#438=DIRECTION('',(0.,0.,1.));
#439=DIRECTION('',(-1.,0.,0.));
#440=DIRECTION('',(0.,0.,1.));
#441=DIRECTION('',(0.,0.,-1.));
#442=DIRECTION('',(-1.,0.,0.));
#443=DIRECTION('',(-6.12303176911189E-17,-1.,0.));
#444=DIRECTION('',(0.,0.,1.));
#445=DIRECTION('',(1.,0.,0.));
#446=DIRECTION('',(6.12303176911189E-17,1.,0.));
#447=DIRECTION('',(1.,-6.12303176911189E-17,0.));
#448=DIRECTION('',(6.12303176911189E-17,1.,0.));
#449=DIRECTION('',(6.12303176911189E-17,1.,0.));
#450=DIRECTION('',(0.,0.,-1.));
#451=DIRECTION('',(-6.12303176911189E-17,-1.,-1.26490253456642E-16));
#452=DIRECTION('',(-6.12303176911189E-17,-1.,-1.26490253456642E-16));
#453=DIRECTION('',(0.,0.,1.));
#454=DIRECTION('',(6.12303176911189E-17,1.,0.));
#455=DIRECTION('',(0.,1.26490253456642E-16,-1.));
#456=DIRECTION('',(0.,1.,1.26490253456642E-16));
#457=DIRECTION('',(-1.,0.,0.));
#458=DIRECTION('',(0.,0.,1.));
#459=DIRECTION('',(1.,0.,0.));
#460=DIRECTION('',(-1.,0.,0.));
#461=DIRECTION('',(0.,-1.,0.));
#462=DIRECTION('',(0.,0.,-1.));
#463=DIRECTION('',(0.,1.26490253456642E-16,-1.));
#464=DIRECTION('',(0.,1.,1.26490253456642E-16));
#465=DIRECTION('',(-1.,0.,0.));
#466=DIRECTION('',(0.,0.,1.));
#467=DIRECTION('',(1.,0.,0.));
#468=DIRECTION('',(-1.,0.,0.));
#469=DIRECTION('',(0.,1.,0.));
#470=DIRECTION('',(0.,0.,1.));
#471=DIRECTION('',(1.,0.,0.));
#472=DIRECTION('',(0.,0.,-1.));
#473=CARTESIAN_POINT('',(0.,0.,0.));
#474=CARTESIAN_POINT('',(2.58591766879478,0.,0.));
#475=CARTESIAN_POINT('',(-1.55654536664682,0.,0.));
#476=CARTESIAN_POINT('',(-1.55654536664682,0.,2.8));
#477=CARTESIAN_POINT('',(2.58591766879478,-0.374999999999999,-4.74338450462408E-17));
#478=CARTESIAN_POINT('',(-2.16901398160778,-0.375,1.5));
#479=CARTESIAN_POINT('',(-2.38587778154305,-0.375,0.375000000000002));
#480=CARTESIAN_POINT('',(2.58591766879478,-4.74338450462411E-17,0.375000000000002));
#481=CARTESIAN_POINT('',(-2.16901398160778,-1.5,0.375000000000002));
#482=CARTESIAN_POINT('',(2.58591766879478,-1.5,0.));
#483=CARTESIAN_POINT('',(-2.16901398160778,-1.5,-0.375000000000002));
#484=CARTESIAN_POINT('',(2.58591766879478,0.,-0.375000000000002));
#485=CARTESIAN_POINT('',(-2.38587778154305,-0.374999999999999,-0.375000000000002));
#486=CARTESIAN_POINT('',(2.58591766879478,-0.374999999999999,-4.74338450462408E-17));
#487=CARTESIAN_POINT('',(-2.16901398160778,-0.374999999999999,-1.5));
#488=CARTESIAN_POINT('',(2.58591766879478,0.,-1.5));
#489=CARTESIAN_POINT('',(-2.16901398160778,0.375,-1.5));
#490=CARTESIAN_POINT('',(2.58591766879478,0.375,-6.77626357803441E-18));
#491=CARTESIAN_POINT('',(-2.38587778154305,0.375,-0.375000000000002));
#492=CARTESIAN_POINT('',(2.58591766879478,0.,-0.375000000000002));
#493=CARTESIAN_POINT('',(-2.16901398160778,1.5,-0.375000000000002));
#494=CARTESIAN_POINT('',(2.58591766879478,1.5,0.));
#495=CARTESIAN_POINT('',(-2.16901398160778,1.5,0.375000000000002));
#496=CARTESIAN_POINT('',(2.58591766879478,-4.74338450462411E-17,0.375000000000002));
#497=CARTESIAN_POINT('',(-2.38587778154305,0.375,0.375000000000002));
#498=CARTESIAN_POINT('',(2.58591766879478,0.375,-6.77626357803441E-18));
#499=CARTESIAN_POINT('',(-2.16901398160778,0.375,1.5));
#500=CARTESIAN_POINT('',(2.58591766879478,0.,1.5));
#501=CARTESIAN_POINT('',(-0.999999999999999,-0.375,1.5));
#502=CARTESIAN_POINT('',(-0.999999999999999,-0.375,1.5));
#503=CARTESIAN_POINT('',(-0.999999999999999,-0.375,1.5));
#504=CARTESIAN_POINT('',(-1.,-0.374999999999999,0.375000000000002));
#505=CARTESIAN_POINT('',(-0.999999999999999,-0.375,0.375000000000002));
#506=CARTESIAN_POINT('',(-0.999999999999999,-0.375,1.5));
#507=CARTESIAN_POINT('',(-0.999999999999999,-0.375,1.5));
#508=CARTESIAN_POINT('',(-0.999999999999999,-0.374999999999999,-0.375000000000002));
#509=CARTESIAN_POINT('',(-0.999999999999999,-0.374999999999999,-0.375000000000002));
#510=CARTESIAN_POINT('',(-0.999999999999999,-0.375,1.5));
#511=CARTESIAN_POINT('',(-0.999999999999999,-0.374999999999999,-1.5));
#512=CARTESIAN_POINT('',(-0.999999999999999,-0.374999999999999,-1.5));
#513=CARTESIAN_POINT('',(-0.999999999999999,0.375,-1.5));
#514=CARTESIAN_POINT('',(-0.999999999999999,0.375,0.375000000000002));
#515=CARTESIAN_POINT('',(-0.999999999999999,0.375,0.375000000000002));
#516=CARTESIAN_POINT('',(-0.999999999999999,0.375,-1.5));
#517=CARTESIAN_POINT('',(-0.999999999999999,0.375,1.5));
#518=CARTESIAN_POINT('',(-0.999999999999999,0.375,1.5));
#519=CARTESIAN_POINT('',(-0.999999999999999,0.375,-1.5));
#520=CARTESIAN_POINT('',(-0.999999999999999,0.375,-1.5));
#521=CARTESIAN_POINT('',(-0.999999999999999,0.375,-1.5));
#522=CARTESIAN_POINT('',(-0.999999999999999,0.375,-0.375000000000002));
#523=CARTESIAN_POINT('',(-0.999999999999999,0.375,-0.375000000000002));
#524=CARTESIAN_POINT('',(-0.999999999999999,0.375,-1.5));
#525=CARTESIAN_POINT('',(0.,0.,1.45));
#526=CARTESIAN_POINT('',(0.,0.,0.));
#527=CARTESIAN_POINT('',(0.,0.,-1.55));
#528=CARTESIAN_POINT('',(0.,0.,0.));
#529=CARTESIAN_POINT('',(0.,0.,2.8));
#530=CARTESIAN_POINT('',(0.,0.,0.));
#531=CARTESIAN_POINT('',(0.1,0.,0.));
#532=CARTESIAN_POINT('',(0.1,0.,-1.45));
#533=CARTESIAN_POINT('',(8.05,0.,0.));
#534=CARTESIAN_POINT('',(8.05,0.,1.45));
#535=CARTESIAN_POINT('',(8.05,0.,0.));
#536=CARTESIAN_POINT('',(9.5,0.,-2.16840434497101E-16));
#537=CARTESIAN_POINT('',(0.,0.,0.));
#538=CARTESIAN_POINT('',(-0.999999999999999,0.375,1.5));
#539=CARTESIAN_POINT('',(-0.999999999999999,0.375,1.5));
#540=CARTESIAN_POINT('',(-0.999999999999999,-0.374999999999999,-1.5));
#541=CARTESIAN_POINT('',(-0.999999999999999,-0.374999999999999,-1.5));
#542=CARTESIAN_POINT('',(-0.999999999999999,1.46952762458685E-16,0.));
#543=CARTESIAN_POINT('',(-0.999999999999999,-1.5,-0.375000000000002));
#544=CARTESIAN_POINT('',(-0.999999999999999,-1.5,-0.375000000000002));
#545=CARTESIAN_POINT('',(-0.999999999999999,-1.5,0.375000000000002));
#546=CARTESIAN_POINT('',(-0.999999999999999,-1.5,0.375000000000002));
#547=CARTESIAN_POINT('',(-0.999999999999999,1.5,0.375000000000002));
#548=CARTESIAN_POINT('',(-0.999999999999999,1.5,0.375000000000002));
#549=CARTESIAN_POINT('',(-0.999999999999999,1.5,0.375000000000002));
#550=CARTESIAN_POINT('',(-0.999999999999999,1.5,-0.375000000000002));
#551=CARTESIAN_POINT('',(-0.999999999999999,1.5,-0.375000000000002));
#552=CARTESIAN_POINT('',(-0.999999999999999,-1.5,-0.375000000000002));
#553=CARTESIAN_POINT('',(-0.999999999999999,1.5,0.375000000000002));
#554=CARTESIAN_POINT('',(-0.999999999999999,1.5,0.375000000000002));
#555=CARTESIAN_POINT('',(-0.999999999999999,-1.5,-0.375000000000002));
#556=CARTESIAN_POINT('',(-0.999999999999999,1.5,-0.375000000000002));
#557=CARTESIAN_POINT('',(-0.999999999999999,1.5,-0.375000000000002));
#558=CARTESIAN_POINT('',(-0.999999999999999,1.5,0.375000000000002));
#559=CARTESIAN_POINT('',(-0.999999999999999,-1.5,0.375000000000002));
#560=CARTESIAN_POINT('',(-0.999999999999999,-1.5,-0.375000000000002));
#561=CARTESIAN_POINT('',(-0.999999999999999,-1.5,-0.375000000000002));
#562=CARTESIAN_POINT('',(-0.999999999999999,-1.5,0.375000000000002));
#563=CARTESIAN_POINT('',(0.1,0.,0.));
#564=MECHANICAL_DESIGN_GEOMETRIC_PRESENTATION_REPRESENTATION('',(#327),
#565);
#565=(
GEOMETRIC_REPRESENTATION_CONTEXT(3)
GLOBAL_UNCERTAINTY_ASSIGNED_CONTEXT((#566))
GLOBAL_UNIT_ASSIGNED_CONTEXT((#569,#568,#567))
REPRESENTATION_CONTEXT(
'\X2\53415B5769FD76D8593481EA94BB81EA653B87BA9489\X0\ GBT15856.1-2002',
'TOP_LEVEL_ASSEMBLY_PART')
);
#566=UNCERTAINTY_MEASURE_WITH_UNIT(LENGTH_MEASURE(0.005),#569,
'DISTANCE_ACCURACY_VALUE','Maximum Tolerance applied to model');
#567=(
NAMED_UNIT(*)
SI_UNIT($,.STERADIAN.)
SOLID_ANGLE_UNIT()
);
#568=(
NAMED_UNIT(*)
PLANE_ANGLE_UNIT()
SI_UNIT($,.RADIAN.)
);
#569=(
LENGTH_UNIT()
NAMED_UNIT(*)
SI_UNIT(.MILLI.,.METRE.)
);
#570=PRODUCT_DEFINITION_SHAPE('','',#571);
#571=PRODUCT_DEFINITION('','',#573,#572);
#572=PRODUCT_DEFINITION_CONTEXT('',#579,'design');
#573=PRODUCT_DEFINITION_FORMATION_WITH_SPECIFIED_SOURCE('','',#575,
 .NOT_KNOWN.);
#574=PRODUCT_RELATED_PRODUCT_CATEGORY('','',(#575));
#575=PRODUCT('\X2\53415B5769FD76D8593481EA94BB81EA653B87BA9489\X0\ GBT
15856.1-2002','\X2\53415B5769FD76D8593481EA94BB81EA653B87BA9489\X0\ GB
T15856.1-2002','\X2\53415B5769FD76D8593481EA94BB81EA653B87BA9489\X0\ G
BT15856.1-2002',(#577));
#576=PRODUCT_CATEGORY('','');
#577=PRODUCT_CONTEXT('',#579,'mechanical');
#578=APPLICATION_PROTOCOL_DEFINITION('international standard',
'automotive_design',2010,#579);
#579=APPLICATION_CONTEXT(
'core data for automotive mechanical design processes');
ENDSEC;
END-ISO-10303-21;
