ISO-10303-21;
HEADER;
/* Generated by software containing HOOPS Exchange Step
 * from HOOPS Exchange, Inc. (www.tiangong.cloud) 
 */

FILE_DESCRIPTION(
/* description */ ('Unknown'),
/* implementation_level */ '2;1');

FILE_NAME(
/* name */ '\X2\516D89D259344E0D813151FA87BA9489\X0\',
/* time_stamp */ '2026-01-21T08:30:22+08:00',
/* author */ ('Unknown'),
/* organization */ ('Unknown'),
/* preprocessor_version */ 'ST-DEVELOPER v19.4',
/* originating_system */ 'TianGong',
/* authorisation */ 'Unknown');

FILE_SCHEMA (('AUTOMOTIVE_DESIGN {1 0 10303 214 3 1 1}'));
ENDSEC;

DATA;
#10=PROPERTY_DEFINITION_REPRESENTATION(#14,#12);
#11=PROPERTY_DEFINITION_REPRESENTATION(#15,#13);
#12=REPRESENTATION('',(#16),#694);
#13=REPRESENTATION('',(#17),#694);
#14=PROPERTY_DEFINITION('pmi validation property','',#699);
#15=PROPERTY_DEFINITION('pmi validation property','',#699);
#16=VALUE_REPRESENTATION_ITEM('number of annotations',COUNT_MEASURE(0.));
#17=VALUE_REPRESENTATION_ITEM('number of views',COUNT_MEASURE(0.));
#18=SHAPE_REPRESENTATION_RELATIONSHIP('','',#455,#19);
#19=ADVANCED_BREP_SHAPE_REPRESENTATION('',(#453),#694);
#20=TOROIDAL_SURFACE('',#489,3.15,0.4);
#21=TOROIDAL_SURFACE('',#490,3.15,0.4);
#22=CYLINDRICAL_SURFACE('',#482,2.75);
#23=CYLINDRICAL_SURFACE('',#488,4.);
#24=CONICAL_SURFACE('',#465,6.5,1.22173047639603);
#25=CONICAL_SURFACE('',#467,6.5,1.22173047639603);
#26=CONICAL_SURFACE('',#469,6.5,1.22173047639603);
#27=CONICAL_SURFACE('',#471,6.5,1.22173047639603);
#28=CONICAL_SURFACE('',#473,6.5,1.22173047639603);
#29=CONICAL_SURFACE('',#475,6.5,1.22173047639603);
#30=CONICAL_SURFACE('',#478,4.,0.785398163397448);
#31=CIRCLE('',#464,3.15);
#32=CIRCLE('',#466,6.5);
#33=CIRCLE('',#468,6.5);
#34=CIRCLE('',#470,6.5);
#35=CIRCLE('',#472,6.5);
#36=CIRCLE('',#474,6.5);
#37=CIRCLE('',#476,6.5);
#38=CIRCLE('',#479,1.5);
#39=CIRCLE('',#480,4.);
#40=CIRCLE('',#483,2.75);
#41=CIRCLE('',#484,2.75);
#42=CIRCLE('',#486,3.15);
#43=CIRCLE('',#487,4.);
#44=B_SPLINE_CURVE_WITH_KNOTS('',3,(#578,#579,#580,#581),.UNSPECIFIED.,
 .F.,.F.,(4,4),(2.30940107675419E-7,0.00375300768984025),.UNSPECIFIED.);
#45=B_SPLINE_CURVE_WITH_KNOTS('',3,(#583,#584,#585,#586),.UNSPECIFIED.,
 .F.,.F.,(4,4),(0.00375300768984025,0.00750578443957281),.UNSPECIFIED.);
#46=B_SPLINE_CURVE_WITH_KNOTS('',3,(#592,#593,#594,#595),.UNSPECIFIED.,
 .F.,.F.,(4,4),(2.30940107675961E-7,0.00375300768984023),.UNSPECIFIED.);
#47=B_SPLINE_CURVE_WITH_KNOTS('',3,(#597,#598,#599,#600),.UNSPECIFIED.,
 .F.,.F.,(4,4),(0.00375300768984023,0.00750578443957282),.UNSPECIFIED.);
#48=B_SPLINE_CURVE_WITH_KNOTS('',3,(#606,#607,#608,#609),.UNSPECIFIED.,
 .F.,.F.,(4,4),(0.00776923301469898,0.011516149254615),.UNSPECIFIED.);
#49=B_SPLINE_CURVE_WITH_KNOTS('',3,(#611,#612,#613,#614),.UNSPECIFIED.,
 .F.,.F.,(4,4),(0.011516149254615,0.0152974550696854),.UNSPECIFIED.);
#50=B_SPLINE_CURVE_WITH_KNOTS('',3,(#620,#621,#622,#623),.UNSPECIFIED.,
 .F.,.F.,(4,4),(2.30940107704575E-7,0.00375300768984024),.UNSPECIFIED.);
#51=B_SPLINE_CURVE_WITH_KNOTS('',3,(#625,#626,#627,#628),.UNSPECIFIED.,
 .F.,.F.,(4,4),(0.00375300768984024,0.00750578443957279),.UNSPECIFIED.);
#52=B_SPLINE_CURVE_WITH_KNOTS('',3,(#634,#635,#636,#637),.UNSPECIFIED.,
 .F.,.F.,(4,4),(2.30940107674137E-7,0.00375300768984024),.UNSPECIFIED.);
#53=B_SPLINE_CURVE_WITH_KNOTS('',3,(#639,#640,#641,#642),.UNSPECIFIED.,
 .F.,.F.,(4,4),(0.00375300768984024,0.00750578443957284),.UNSPECIFIED.);
#54=B_SPLINE_CURVE_WITH_KNOTS('',3,(#648,#649,#650,#651),.UNSPECIFIED.,
 .F.,.F.,(4,4),(0.00776923301469898,0.011516149254615),.UNSPECIFIED.);
#55=B_SPLINE_CURVE_WITH_KNOTS('',3,(#653,#654,#655,#656),.UNSPECIFIED.,
 .F.,.F.,(4,4),(0.011516149254615,0.0152974550696854),.UNSPECIFIED.);
#56=ORIENTED_EDGE('',*,*,#130,.F.);
#57=ORIENTED_EDGE('',*,*,#131,.T.);
#58=ORIENTED_EDGE('',*,*,#132,.T.);
#59=ORIENTED_EDGE('',*,*,#133,.T.);
#60=ORIENTED_EDGE('',*,*,#134,.F.);
#61=ORIENTED_EDGE('',*,*,#133,.F.);
#62=ORIENTED_EDGE('',*,*,#135,.T.);
#63=ORIENTED_EDGE('',*,*,#136,.T.);
#64=ORIENTED_EDGE('',*,*,#137,.T.);
#65=ORIENTED_EDGE('',*,*,#138,.F.);
#66=ORIENTED_EDGE('',*,*,#137,.F.);
#67=ORIENTED_EDGE('',*,*,#139,.T.);
#68=ORIENTED_EDGE('',*,*,#140,.T.);
#69=ORIENTED_EDGE('',*,*,#141,.T.);
#70=ORIENTED_EDGE('',*,*,#142,.F.);
#71=ORIENTED_EDGE('',*,*,#141,.F.);
#72=ORIENTED_EDGE('',*,*,#143,.T.);
#73=ORIENTED_EDGE('',*,*,#144,.T.);
#74=ORIENTED_EDGE('',*,*,#145,.T.);
#75=ORIENTED_EDGE('',*,*,#146,.F.);
#76=ORIENTED_EDGE('',*,*,#145,.F.);
#77=ORIENTED_EDGE('',*,*,#147,.T.);
#78=ORIENTED_EDGE('',*,*,#148,.T.);
#79=ORIENTED_EDGE('',*,*,#149,.T.);
#80=ORIENTED_EDGE('',*,*,#150,.F.);
#81=ORIENTED_EDGE('',*,*,#149,.F.);
#82=ORIENTED_EDGE('',*,*,#151,.T.);
#83=ORIENTED_EDGE('',*,*,#152,.T.);
#84=ORIENTED_EDGE('',*,*,#130,.T.);
#85=ORIENTED_EDGE('',*,*,#153,.F.);
#86=ORIENTED_EDGE('',*,*,#154,.T.);
#87=ORIENTED_EDGE('',*,*,#134,.T.);
#88=ORIENTED_EDGE('',*,*,#138,.T.);
#89=ORIENTED_EDGE('',*,*,#142,.T.);
#90=ORIENTED_EDGE('',*,*,#146,.T.);
#91=ORIENTED_EDGE('',*,*,#150,.T.);
#92=ORIENTED_EDGE('',*,*,#153,.T.);
#93=ORIENTED_EDGE('',*,*,#152,.F.);
#94=ORIENTED_EDGE('',*,*,#155,.F.);
#95=ORIENTED_EDGE('',*,*,#131,.F.);
#96=ORIENTED_EDGE('',*,*,#156,.F.);
#97=ORIENTED_EDGE('',*,*,#151,.F.);
#98=ORIENTED_EDGE('',*,*,#148,.F.);
#99=ORIENTED_EDGE('',*,*,#157,.F.);
#100=ORIENTED_EDGE('',*,*,#147,.F.);
#101=ORIENTED_EDGE('',*,*,#144,.F.);
#102=ORIENTED_EDGE('',*,*,#158,.F.);
#103=ORIENTED_EDGE('',*,*,#143,.F.);
#104=ORIENTED_EDGE('',*,*,#140,.F.);
#105=ORIENTED_EDGE('',*,*,#159,.F.);
#106=ORIENTED_EDGE('',*,*,#139,.F.);
#107=ORIENTED_EDGE('',*,*,#136,.F.);
#108=ORIENTED_EDGE('',*,*,#135,.F.);
#109=ORIENTED_EDGE('',*,*,#132,.F.);
#110=ORIENTED_EDGE('',*,*,#160,.F.);
#111=ORIENTED_EDGE('',*,*,#160,.T.);
#112=ORIENTED_EDGE('',*,*,#155,.T.);
#113=ORIENTED_EDGE('',*,*,#156,.T.);
#114=ORIENTED_EDGE('',*,*,#157,.T.);
#115=ORIENTED_EDGE('',*,*,#158,.T.);
#116=ORIENTED_EDGE('',*,*,#159,.T.);
#117=ORIENTED_EDGE('',*,*,#161,.T.);
#118=ORIENTED_EDGE('',*,*,#162,.F.);
#119=ORIENTED_EDGE('',*,*,#161,.F.);
#120=ORIENTED_EDGE('',*,*,#163,.T.);
#121=ORIENTED_EDGE('',*,*,#164,.T.);
#122=ORIENTED_EDGE('',*,*,#165,.T.);
#123=ORIENTED_EDGE('',*,*,#166,.T.);
#124=ORIENTED_EDGE('',*,*,#162,.T.);
#125=ORIENTED_EDGE('',*,*,#166,.F.);
#126=ORIENTED_EDGE('',*,*,#154,.F.);
#127=ORIENTED_EDGE('',*,*,#164,.F.);
#128=ORIENTED_EDGE('',*,*,#165,.F.);
#129=ORIENTED_EDGE('',*,*,#163,.F.);
#130=EDGE_CURVE('',#167,#168,#192,.T.);
#131=EDGE_CURVE('',#167,#169,#44,.T.);
#132=EDGE_CURVE('',#169,#170,#45,.T.);
#133=EDGE_CURVE('',#170,#171,#193,.T.);
#134=EDGE_CURVE('',#168,#171,#194,.T.);
#135=EDGE_CURVE('',#170,#172,#46,.T.);
#136=EDGE_CURVE('',#172,#173,#47,.T.);
#137=EDGE_CURVE('',#173,#174,#195,.T.);
#138=EDGE_CURVE('',#171,#174,#196,.T.);
#139=EDGE_CURVE('',#173,#175,#48,.T.);
#140=EDGE_CURVE('',#175,#176,#49,.T.);
#141=EDGE_CURVE('',#176,#177,#197,.T.);
#142=EDGE_CURVE('',#174,#177,#198,.T.);
#143=EDGE_CURVE('',#176,#178,#50,.T.);
#144=EDGE_CURVE('',#178,#179,#51,.T.);
#145=EDGE_CURVE('',#179,#180,#199,.T.);
#146=EDGE_CURVE('',#177,#180,#200,.T.);
#147=EDGE_CURVE('',#179,#181,#52,.T.);
#148=EDGE_CURVE('',#181,#182,#53,.T.);
#149=EDGE_CURVE('',#182,#183,#201,.T.);
#150=EDGE_CURVE('',#180,#183,#202,.T.);
#151=EDGE_CURVE('',#182,#184,#54,.T.);
#152=EDGE_CURVE('',#184,#167,#55,.T.);
#153=EDGE_CURVE('',#183,#168,#203,.T.);
#154=EDGE_CURVE('',#185,#185,#31,.F.);
#155=EDGE_CURVE('',#169,#184,#32,.T.);
#156=EDGE_CURVE('',#184,#181,#33,.T.);
#157=EDGE_CURVE('',#181,#178,#34,.T.);
#158=EDGE_CURVE('',#178,#175,#35,.T.);
#159=EDGE_CURVE('',#175,#172,#36,.T.);
#160=EDGE_CURVE('',#172,#169,#37,.T.);
#161=EDGE_CURVE('',#186,#186,#38,.T.);
#162=EDGE_CURVE('',#187,#187,#39,.T.);
#163=EDGE_CURVE('',#188,#188,#40,.T.);
#164=EDGE_CURVE('',#189,#189,#41,.T.);
#165=EDGE_CURVE('',#190,#190,#42,.F.);
#166=EDGE_CURVE('',#191,#191,#43,.T.);
#167=VERTEX_POINT('',#576);
#168=VERTEX_POINT('',#577);
#169=VERTEX_POINT('',#582);
#170=VERTEX_POINT('',#587);
#171=VERTEX_POINT('',#589);
#172=VERTEX_POINT('',#596);
#173=VERTEX_POINT('',#601);
#174=VERTEX_POINT('',#603);
#175=VERTEX_POINT('',#610);
#176=VERTEX_POINT('',#615);
#177=VERTEX_POINT('',#617);
#178=VERTEX_POINT('',#624);
#179=VERTEX_POINT('',#629);
#180=VERTEX_POINT('',#631);
#181=VERTEX_POINT('',#638);
#182=VERTEX_POINT('',#643);
#183=VERTEX_POINT('',#645);
#184=VERTEX_POINT('',#652);
#185=VERTEX_POINT('',#660);
#186=VERTEX_POINT('',#676);
#187=VERTEX_POINT('',#678);
#188=VERTEX_POINT('',#682);
#189=VERTEX_POINT('',#684);
#190=VERTEX_POINT('',#687);
#191=VERTEX_POINT('',#689);
#192=LINE('',#575,#204);
#193=LINE('',#588,#205);
#194=LINE('',#590,#206);
#195=LINE('',#602,#207);
#196=LINE('',#604,#208);
#197=LINE('',#616,#209);
#198=LINE('',#618,#210);
#199=LINE('',#630,#211);
#200=LINE('',#632,#212);
#201=LINE('',#644,#213);
#202=LINE('',#646,#214);
#203=LINE('',#657,#215);
#204=VECTOR('',#495,1000.);
#205=VECTOR('',#496,1000.);
#206=VECTOR('',#497,1000.);
#207=VECTOR('',#500,1000.);
#208=VECTOR('',#501,1000.);
#209=VECTOR('',#504,1000.);
#210=VECTOR('',#505,1000.);
#211=VECTOR('',#508,1000.);
#212=VECTOR('',#509,1000.);
#213=VECTOR('',#512,1000.);
#214=VECTOR('',#513,1000.);
#215=VECTOR('',#516,1000.);
#216=EDGE_LOOP('',(#56,#57,#58,#59,#60));
#217=EDGE_LOOP('',(#61,#62,#63,#64,#65));
#218=EDGE_LOOP('',(#66,#67,#68,#69,#70));
#219=EDGE_LOOP('',(#71,#72,#73,#74,#75));
#220=EDGE_LOOP('',(#76,#77,#78,#79,#80));
#221=EDGE_LOOP('',(#81,#82,#83,#84,#85));
#222=EDGE_LOOP('',(#86));
#223=EDGE_LOOP('',(#87,#88,#89,#90,#91,#92));
#224=EDGE_LOOP('',(#93,#94,#95));
#225=EDGE_LOOP('',(#96,#97,#98));
#226=EDGE_LOOP('',(#99,#100,#101));
#227=EDGE_LOOP('',(#102,#103,#104));
#228=EDGE_LOOP('',(#105,#106,#107));
#229=EDGE_LOOP('',(#108,#109,#110));
#230=EDGE_LOOP('',(#111,#112,#113,#114,#115,#116));
#231=EDGE_LOOP('',(#117));
#232=EDGE_LOOP('',(#118));
#233=EDGE_LOOP('',(#119));
#234=EDGE_LOOP('',(#120));
#235=EDGE_LOOP('',(#121));
#236=EDGE_LOOP('',(#122));
#237=EDGE_LOOP('',(#123));
#238=EDGE_LOOP('',(#124));
#239=EDGE_LOOP('',(#125));
#240=EDGE_LOOP('',(#126));
#241=EDGE_LOOP('',(#127));
#242=EDGE_LOOP('',(#128));
#243=EDGE_LOOP('',(#129));
#244=FACE_BOUND('',#216,.T.);
#245=FACE_BOUND('',#217,.T.);
#246=FACE_BOUND('',#218,.T.);
#247=FACE_BOUND('',#219,.T.);
#248=FACE_BOUND('',#220,.T.);
#249=FACE_BOUND('',#221,.T.);
#250=FACE_BOUND('',#222,.T.);
#251=FACE_BOUND('',#223,.T.);
#252=FACE_BOUND('',#224,.T.);
#253=FACE_BOUND('',#225,.T.);
#254=FACE_BOUND('',#226,.T.);
#255=FACE_BOUND('',#227,.T.);
#256=FACE_BOUND('',#228,.T.);
#257=FACE_BOUND('',#229,.T.);
#258=FACE_BOUND('',#230,.T.);
#259=FACE_BOUND('',#231,.T.);
#260=FACE_BOUND('',#232,.T.);
#261=FACE_BOUND('',#233,.T.);
#262=FACE_BOUND('',#234,.T.);
#263=FACE_BOUND('',#235,.T.);
#264=FACE_BOUND('',#236,.T.);
#265=FACE_BOUND('',#237,.T.);
#266=FACE_BOUND('',#238,.T.);
#267=FACE_BOUND('',#239,.T.);
#268=FACE_BOUND('',#240,.T.);
#269=FACE_BOUND('',#241,.T.);
#270=FACE_BOUND('',#242,.T.);
#271=FACE_BOUND('',#243,.T.);
#272=PLANE('',#457);
#273=PLANE('',#458);
#274=PLANE('',#459);
#275=PLANE('',#460);
#276=PLANE('',#461);
#277=PLANE('',#462);
#278=PLANE('',#463);
#279=PLANE('',#477);
#280=PLANE('',#481);
#281=PLANE('',#485);
#282=STYLED_ITEM('',(#303),#431);
#283=STYLED_ITEM('',(#304),#432);
#284=STYLED_ITEM('',(#305),#433);
#285=STYLED_ITEM('',(#306),#434);
#286=STYLED_ITEM('',(#307),#435);
#287=STYLED_ITEM('',(#308),#436);
#288=STYLED_ITEM('',(#309),#437);
#289=STYLED_ITEM('',(#310),#438);
#290=STYLED_ITEM('',(#311),#439);
#291=STYLED_ITEM('',(#312),#440);
#292=STYLED_ITEM('',(#313),#441);
#293=STYLED_ITEM('',(#314),#442);
#294=STYLED_ITEM('',(#315),#443);
#295=STYLED_ITEM('',(#316),#444);
#296=STYLED_ITEM('',(#317),#445);
#297=STYLED_ITEM('',(#318),#446);
#298=STYLED_ITEM('',(#319),#447);
#299=STYLED_ITEM('',(#320),#448);
#300=STYLED_ITEM('',(#321),#449);
#301=STYLED_ITEM('',(#322),#450);
#302=STYLED_ITEM('',(#323),#451);
#303=PRESENTATION_STYLE_ASSIGNMENT((#324));
#304=PRESENTATION_STYLE_ASSIGNMENT((#325));
#305=PRESENTATION_STYLE_ASSIGNMENT((#326));
#306=PRESENTATION_STYLE_ASSIGNMENT((#327));
#307=PRESENTATION_STYLE_ASSIGNMENT((#328));
#308=PRESENTATION_STYLE_ASSIGNMENT((#329));
#309=PRESENTATION_STYLE_ASSIGNMENT((#330));
#310=PRESENTATION_STYLE_ASSIGNMENT((#331));
#311=PRESENTATION_STYLE_ASSIGNMENT((#332));
#312=PRESENTATION_STYLE_ASSIGNMENT((#333));
#313=PRESENTATION_STYLE_ASSIGNMENT((#334));
#314=PRESENTATION_STYLE_ASSIGNMENT((#335));
#315=PRESENTATION_STYLE_ASSIGNMENT((#336));
#316=PRESENTATION_STYLE_ASSIGNMENT((#337));
#317=PRESENTATION_STYLE_ASSIGNMENT((#338));
#318=PRESENTATION_STYLE_ASSIGNMENT((#339));
#319=PRESENTATION_STYLE_ASSIGNMENT((#340));
#320=PRESENTATION_STYLE_ASSIGNMENT((#341));
#321=PRESENTATION_STYLE_ASSIGNMENT((#342));
#322=PRESENTATION_STYLE_ASSIGNMENT((#343));
#323=PRESENTATION_STYLE_ASSIGNMENT((#344));
#324=SURFACE_STYLE_USAGE(.BOTH.,#345);
#325=SURFACE_STYLE_USAGE(.BOTH.,#346);
#326=SURFACE_STYLE_USAGE(.BOTH.,#347);
#327=SURFACE_STYLE_USAGE(.BOTH.,#348);
#328=SURFACE_STYLE_USAGE(.BOTH.,#349);
#329=SURFACE_STYLE_USAGE(.BOTH.,#350);
#330=SURFACE_STYLE_USAGE(.BOTH.,#351);
#331=SURFACE_STYLE_USAGE(.BOTH.,#352);
#332=SURFACE_STYLE_USAGE(.BOTH.,#353);
#333=SURFACE_STYLE_USAGE(.BOTH.,#354);
#334=SURFACE_STYLE_USAGE(.BOTH.,#355);
#335=SURFACE_STYLE_USAGE(.BOTH.,#356);
#336=SURFACE_STYLE_USAGE(.BOTH.,#357);
#337=SURFACE_STYLE_USAGE(.BOTH.,#358);
#338=SURFACE_STYLE_USAGE(.BOTH.,#359);
#339=SURFACE_STYLE_USAGE(.BOTH.,#360);
#340=SURFACE_STYLE_USAGE(.BOTH.,#361);
#341=SURFACE_STYLE_USAGE(.BOTH.,#362);
#342=SURFACE_STYLE_USAGE(.BOTH.,#363);
#343=SURFACE_STYLE_USAGE(.BOTH.,#364);
#344=SURFACE_STYLE_USAGE(.BOTH.,#365);
#345=SURFACE_SIDE_STYLE('',(#366));
#346=SURFACE_SIDE_STYLE('',(#367));
#347=SURFACE_SIDE_STYLE('',(#368));
#348=SURFACE_SIDE_STYLE('',(#369));
#349=SURFACE_SIDE_STYLE('',(#370));
#350=SURFACE_SIDE_STYLE('',(#371));
#351=SURFACE_SIDE_STYLE('',(#372));
#352=SURFACE_SIDE_STYLE('',(#373));
#353=SURFACE_SIDE_STYLE('',(#374));
#354=SURFACE_SIDE_STYLE('',(#375));
#355=SURFACE_SIDE_STYLE('',(#376));
#356=SURFACE_SIDE_STYLE('',(#377));
#357=SURFACE_SIDE_STYLE('',(#378));
#358=SURFACE_SIDE_STYLE('',(#379));
#359=SURFACE_SIDE_STYLE('',(#380));
#360=SURFACE_SIDE_STYLE('',(#381));
#361=SURFACE_SIDE_STYLE('',(#382));
#362=SURFACE_SIDE_STYLE('',(#383));
#363=SURFACE_SIDE_STYLE('',(#384));
#364=SURFACE_SIDE_STYLE('',(#385));
#365=SURFACE_SIDE_STYLE('',(#386));
#366=SURFACE_STYLE_FILL_AREA(#387);
#367=SURFACE_STYLE_FILL_AREA(#388);
#368=SURFACE_STYLE_FILL_AREA(#389);
#369=SURFACE_STYLE_FILL_AREA(#390);
#370=SURFACE_STYLE_FILL_AREA(#391);
#371=SURFACE_STYLE_FILL_AREA(#392);
#372=SURFACE_STYLE_FILL_AREA(#393);
#373=SURFACE_STYLE_FILL_AREA(#394);
#374=SURFACE_STYLE_FILL_AREA(#395);
#375=SURFACE_STYLE_FILL_AREA(#396);
#376=SURFACE_STYLE_FILL_AREA(#397);
#377=SURFACE_STYLE_FILL_AREA(#398);
#378=SURFACE_STYLE_FILL_AREA(#399);
#379=SURFACE_STYLE_FILL_AREA(#400);
#380=SURFACE_STYLE_FILL_AREA(#401);
#381=SURFACE_STYLE_FILL_AREA(#402);
#382=SURFACE_STYLE_FILL_AREA(#403);
#383=SURFACE_STYLE_FILL_AREA(#404);
#384=SURFACE_STYLE_FILL_AREA(#405);
#385=SURFACE_STYLE_FILL_AREA(#406);
#386=SURFACE_STYLE_FILL_AREA(#407);
#387=FILL_AREA_STYLE('',(#408));
#388=FILL_AREA_STYLE('',(#409));
#389=FILL_AREA_STYLE('',(#410));
#390=FILL_AREA_STYLE('',(#411));
#391=FILL_AREA_STYLE('',(#412));
#392=FILL_AREA_STYLE('',(#413));
#393=FILL_AREA_STYLE('',(#414));
#394=FILL_AREA_STYLE('',(#415));
#395=FILL_AREA_STYLE('',(#416));
#396=FILL_AREA_STYLE('',(#417));
#397=FILL_AREA_STYLE('',(#418));
#398=FILL_AREA_STYLE('',(#419));
#399=FILL_AREA_STYLE('',(#420));
#400=FILL_AREA_STYLE('',(#421));
#401=FILL_AREA_STYLE('',(#422));
#402=FILL_AREA_STYLE('',(#423));
#403=FILL_AREA_STYLE('',(#424));
#404=FILL_AREA_STYLE('',(#425));
#405=FILL_AREA_STYLE('',(#426));
#406=FILL_AREA_STYLE('',(#427));
#407=FILL_AREA_STYLE('',(#428));
#408=FILL_AREA_STYLE_COLOUR('',#429);
#409=FILL_AREA_STYLE_COLOUR('',#429);
#410=FILL_AREA_STYLE_COLOUR('',#429);
#411=FILL_AREA_STYLE_COLOUR('',#429);
#412=FILL_AREA_STYLE_COLOUR('',#429);
#413=FILL_AREA_STYLE_COLOUR('',#429);
#414=FILL_AREA_STYLE_COLOUR('',#429);
#415=FILL_AREA_STYLE_COLOUR('',#429);
#416=FILL_AREA_STYLE_COLOUR('',#429);
#417=FILL_AREA_STYLE_COLOUR('',#429);
#418=FILL_AREA_STYLE_COLOUR('',#429);
#419=FILL_AREA_STYLE_COLOUR('',#429);
#420=FILL_AREA_STYLE_COLOUR('',#429);
#421=FILL_AREA_STYLE_COLOUR('',#429);
#422=FILL_AREA_STYLE_COLOUR('',#429);
#423=FILL_AREA_STYLE_COLOUR('',#429);
#424=FILL_AREA_STYLE_COLOUR('',#429);
#425=FILL_AREA_STYLE_COLOUR('',#429);
#426=FILL_AREA_STYLE_COLOUR('',#430);
#427=FILL_AREA_STYLE_COLOUR('',#429);
#428=FILL_AREA_STYLE_COLOUR('',#429);
#429=COLOUR_RGB('',0.506983280181885,0.531564235687256,0.550000011920929);
#430=COLOUR_RGB('',0.1875,0.75,0.581249892711639);
#431=ADVANCED_FACE('',(#244),#272,.T.);
#432=ADVANCED_FACE('',(#245),#273,.T.);
#433=ADVANCED_FACE('',(#246),#274,.T.);
#434=ADVANCED_FACE('',(#247),#275,.T.);
#435=ADVANCED_FACE('',(#248),#276,.T.);
#436=ADVANCED_FACE('',(#249),#277,.T.);
#437=ADVANCED_FACE('',(#250,#251),#278,.T.);
#438=ADVANCED_FACE('',(#252),#24,.T.);
#439=ADVANCED_FACE('',(#253),#25,.T.);
#440=ADVANCED_FACE('',(#254),#26,.T.);
#441=ADVANCED_FACE('',(#255),#27,.T.);
#442=ADVANCED_FACE('',(#256),#28,.T.);
#443=ADVANCED_FACE('',(#257),#29,.T.);
#444=ADVANCED_FACE('',(#258),#279,.F.);
#445=ADVANCED_FACE('',(#259,#260),#30,.T.);
#446=ADVANCED_FACE('',(#261),#280,.T.);
#447=ADVANCED_FACE('',(#262,#263),#22,.T.);
#448=ADVANCED_FACE('',(#264,#265),#281,.T.);
#449=ADVANCED_FACE('',(#266,#267),#23,.T.);
#450=ADVANCED_FACE('',(#268,#269),#20,.F.);
#451=ADVANCED_FACE('',(#270,#271),#21,.F.);
#452=CLOSED_SHELL('',(#431,#432,#433,#434,#435,#436,#437,#438,#439,#440,
#441,#442,#443,#444,#445,#446,#447,#448,#449,#450,#451));
#453=MANIFOLD_SOLID_BREP('',#452);
#454=SHAPE_DEFINITION_REPRESENTATION(#699,#455);
#455=SHAPE_REPRESENTATION('\X2\516D89D259344E0D813151FA87BA9489\X0\',(#456),
#694);
#456=AXIS2_PLACEMENT_3D('',#573,#491,#492);
#457=AXIS2_PLACEMENT_3D('',#574,#493,#494);
#458=AXIS2_PLACEMENT_3D('',#591,#498,#499);
#459=AXIS2_PLACEMENT_3D('',#605,#502,#503);
#460=AXIS2_PLACEMENT_3D('',#619,#506,#507);
#461=AXIS2_PLACEMENT_3D('',#633,#510,#511);
#462=AXIS2_PLACEMENT_3D('',#647,#514,#515);
#463=AXIS2_PLACEMENT_3D('',#658,#517,#518);
#464=AXIS2_PLACEMENT_3D('',#659,#519,#520);
#465=AXIS2_PLACEMENT_3D('',#661,#521,#522);
#466=AXIS2_PLACEMENT_3D('',#662,#523,#524);
#467=AXIS2_PLACEMENT_3D('',#663,#525,#526);
#468=AXIS2_PLACEMENT_3D('',#664,#527,#528);
#469=AXIS2_PLACEMENT_3D('',#665,#529,#530);
#470=AXIS2_PLACEMENT_3D('',#666,#531,#532);
#471=AXIS2_PLACEMENT_3D('',#667,#533,#534);
#472=AXIS2_PLACEMENT_3D('',#668,#535,#536);
#473=AXIS2_PLACEMENT_3D('',#669,#537,#538);
#474=AXIS2_PLACEMENT_3D('',#670,#539,#540);
#475=AXIS2_PLACEMENT_3D('',#671,#541,#542);
#476=AXIS2_PLACEMENT_3D('',#672,#543,#544);
#477=AXIS2_PLACEMENT_3D('',#673,#545,#546);
#478=AXIS2_PLACEMENT_3D('',#674,#547,#548);
#479=AXIS2_PLACEMENT_3D('',#675,#549,#550);
#480=AXIS2_PLACEMENT_3D('',#677,#551,#552);
#481=AXIS2_PLACEMENT_3D('',#679,#553,#554);
#482=AXIS2_PLACEMENT_3D('',#680,#555,#556);
#483=AXIS2_PLACEMENT_3D('',#681,#557,#558);
#484=AXIS2_PLACEMENT_3D('',#683,#559,#560);
#485=AXIS2_PLACEMENT_3D('',#685,#561,#562);
#486=AXIS2_PLACEMENT_3D('',#686,#563,#564);
#487=AXIS2_PLACEMENT_3D('',#688,#565,#566);
#488=AXIS2_PLACEMENT_3D('',#690,#567,#568);
#489=AXIS2_PLACEMENT_3D('',#691,#569,#570);
#490=AXIS2_PLACEMENT_3D('',#692,#571,#572);
#491=DIRECTION('',(0.,0.,1.));
#492=DIRECTION('',(1.,0.,0.));
#493=DIRECTION('',(0.,0.499999999999999,0.866025403784439));
#494=DIRECTION('',(0.,-0.866025403784439,0.499999999999999));
#495=DIRECTION('',(1.,0.,0.));
#496=DIRECTION('',(1.,0.,0.));
#497=DIRECTION('',(-5.30270106023007E-17,-0.866025403784439,0.499999999999999));
#498=DIRECTION('',(0.,-0.499999999999999,0.866025403784439));
#499=DIRECTION('',(0.,-0.866025403784439,-0.499999999999999));
#500=DIRECTION('',(1.,0.,0.));
#501=DIRECTION('',(-5.30270106023007E-17,-0.866025403784439,-0.499999999999999));
#502=DIRECTION('',(0.,-1.,3.46687984323961E-16));
#503=DIRECTION('',(0.,-3.46687984323961E-16,-1.));
#504=DIRECTION('',(1.,0.,0.));
#505=DIRECTION('',(-2.12278154198498E-32,-3.46687984323961E-16,-1.));
#506=DIRECTION('',(0.,-0.500000000000001,-0.866025403784438));
#507=DIRECTION('',(0.,0.866025403784438,-0.500000000000001));
#508=DIRECTION('',(1.,0.,0.));
#509=DIRECTION('',(5.30270106023006E-17,0.866025403784438,-0.500000000000001));
#510=DIRECTION('',(0.,0.499999999999998,-0.86602540378444));
#511=DIRECTION('',(0.,0.86602540378444,0.499999999999998));
#512=DIRECTION('',(1.,0.,0.));
#513=DIRECTION('',(5.30270106023007E-17,0.86602540378444,0.499999999999998));
#514=DIRECTION('',(0.,1.,0.));
#515=DIRECTION('',(0.,0.,1.));
#516=DIRECTION('',(0.,0.,1.));
#517=DIRECTION('',(1.,-6.12303176911189E-17,0.));
#518=DIRECTION('',(6.12303176911189E-17,1.,0.));
#519=DIRECTION('',(1.,-6.12303176911189E-17,0.));
#520=DIRECTION('',(6.12303176911189E-17,1.,0.));
#521=DIRECTION('',(1.,0.,0.));
#522=DIRECTION('',(0.,0.,-1.));
#523=DIRECTION('',(-1.,0.,0.));
#524=DIRECTION('',(0.,0.,1.));
#525=DIRECTION('',(1.,0.,0.));
#526=DIRECTION('',(0.,0.,-1.));
#527=DIRECTION('',(-1.,0.,0.));
#528=DIRECTION('',(0.,0.,1.));
#529=DIRECTION('',(1.,0.,0.));
#530=DIRECTION('',(0.,0.,-1.));
#531=DIRECTION('',(-1.,0.,0.));
#532=DIRECTION('',(0.,0.,1.));
#533=DIRECTION('',(1.,0.,0.));
#534=DIRECTION('',(0.,0.,-1.));
#535=DIRECTION('',(-1.,0.,0.));
#536=DIRECTION('',(0.,0.,1.));
#537=DIRECTION('',(1.,0.,0.));
#538=DIRECTION('',(0.,0.,-1.));
#539=DIRECTION('',(-1.,0.,0.));
#540=DIRECTION('',(0.,0.,1.));
#541=DIRECTION('',(1.,0.,0.));
#542=DIRECTION('',(0.,0.,-1.));
#543=DIRECTION('',(-1.,0.,0.));
#544=DIRECTION('',(0.,0.,1.));
#545=DIRECTION('',(1.,-6.12303176911189E-17,0.));
#546=DIRECTION('',(6.12303176911189E-17,1.,0.));
#547=DIRECTION('',(-1.,0.,0.));
#548=DIRECTION('',(0.,0.,1.));
#549=DIRECTION('',(-1.,0.,0.));
#550=DIRECTION('',(0.,0.,1.));
#551=DIRECTION('',(-1.,0.,0.));
#552=DIRECTION('',(0.,0.,1.));
#553=DIRECTION('',(1.,0.,0.));
#554=DIRECTION('',(0.,0.,-1.));
#555=DIRECTION('',(-1.,0.,0.));
#556=DIRECTION('',(0.,0.,1.));
#557=DIRECTION('',(-1.,0.,0.));
#558=DIRECTION('',(0.,0.,1.));
#559=DIRECTION('',(1.,-6.12303176911189E-17,0.));
#560=DIRECTION('',(6.12303176911189E-17,1.,0.));
#561=DIRECTION('',(-1.,0.,0.));
#562=DIRECTION('',(0.,0.,1.));
#563=DIRECTION('',(-1.,0.,0.));
#564=DIRECTION('',(0.,0.,1.));
#565=DIRECTION('',(-1.,0.,0.));
#566=DIRECTION('',(0.,0.,1.));
#567=DIRECTION('',(-1.,0.,0.));
#568=DIRECTION('',(0.,0.,1.));
#569=DIRECTION('',(1.,-6.12303176911189E-17,0.));
#570=DIRECTION('',(6.12303176911189E-17,1.,0.));
#571=DIRECTION('',(-1.,0.,0.));
#572=DIRECTION('',(0.,0.,1.));
#573=CARTESIAN_POINT('',(0.,0.,0.));
#574=CARTESIAN_POINT('',(-5.3,6.5,3.75277674973256));
#575=CARTESIAN_POINT('',(-5.3,6.5,3.75277674973256));
#576=CARTESIAN_POINT('',(-4.93400845723248,6.5,3.75277674973256));
#577=CARTESIAN_POINT('',(3.97997064992272E-16,6.5,3.75277674973256));
#578=CARTESIAN_POINT('',(-4.93400845723248,6.5,3.75277674973256));
#579=CARTESIAN_POINT('',(-5.16165829602397,5.41666666666666,4.37823954135465));
#580=CARTESIAN_POINT('',(-5.30000000000001,4.33333333333332,5.00370233297675));
#581=CARTESIAN_POINT('',(-5.30000000000001,3.24999999999999,5.62916512459884));
#582=CARTESIAN_POINT('',(-5.3,3.24999999999999,5.62916512459884));
#583=CARTESIAN_POINT('',(-5.30000000000001,3.24999999999999,5.62916512459884));
#584=CARTESIAN_POINT('',(-5.30000000000001,2.16666666666666,6.25462791622093));
#585=CARTESIAN_POINT('',(-5.16165829602397,1.08333333333333,6.88009070784303));
#586=CARTESIAN_POINT('',(-4.93400845723248,-8.93876798886543E-16,7.50555349946512));
#587=CARTESIAN_POINT('',(-4.93400845723248,0.,7.50555349946512));
#588=CARTESIAN_POINT('',(-5.3,0.,7.50555349946512));
#589=CARTESIAN_POINT('',(0.,0.,7.50555349946512));
#590=CARTESIAN_POINT('',(3.97997064992272E-16,6.5,3.75277674973256));
#591=CARTESIAN_POINT('',(-5.3,0.,7.50555349946512));
#592=CARTESIAN_POINT('',(-4.93400845723248,-7.19460384983592E-17,7.50555349946512));
#593=CARTESIAN_POINT('',(-5.16165829602397,-1.08333333333333,6.88009070784302));
#594=CARTESIAN_POINT('',(-5.30000000000001,-2.16666666666666,6.25462791622093));
#595=CARTESIAN_POINT('',(-5.30000000000001,-3.24999999999999,5.62916512459884));
#596=CARTESIAN_POINT('',(-5.3,-3.24999999999999,5.62916512459884));
#597=CARTESIAN_POINT('',(-5.30000000000001,-3.24999999999999,5.62916512459884));
#598=CARTESIAN_POINT('',(-5.30000000000001,-4.33333333333333,5.00370233297674));
#599=CARTESIAN_POINT('',(-5.16165829602397,-5.41666666666667,4.37823954135465));
#600=CARTESIAN_POINT('',(-4.93400845723248,-6.50000000000001,3.75277674973255));
#601=CARTESIAN_POINT('',(-4.93400845723248,-6.5,3.75277674973253));
#602=CARTESIAN_POINT('',(-5.3,-6.5,3.75277674973256));
#603=CARTESIAN_POINT('',(-3.97997064992272E-16,-6.5,3.75277674973256));
#604=CARTESIAN_POINT('',(0.,0.,7.50555349946512));
#605=CARTESIAN_POINT('',(-5.3,-6.5,3.75277674973256));
#606=CARTESIAN_POINT('',(-4.93400845723248,-6.5,3.75277674973253));
#607=CARTESIAN_POINT('',(-5.15777382812926,-6.5,2.52319614214297));
#608=CARTESIAN_POINT('',(-5.3,-6.5,1.26381592537805));
#609=CARTESIAN_POINT('',(-5.3,-6.5,1.94475171890204E-15));
#610=CARTESIAN_POINT('',(-5.3,-6.5,2.25347189810575E-15));
#611=CARTESIAN_POINT('',(-5.3,-6.5,1.94475171890204E-15));
#612=CARTESIAN_POINT('',(-5.3,-6.5,-1.27541535540641));
#613=CARTESIAN_POINT('',(-5.15793464796118,-6.5,-2.52231244442938));
#614=CARTESIAN_POINT('',(-4.93400845723248,-6.5,-3.75277674973257));
#615=CARTESIAN_POINT('',(-4.93400845723248,-6.49999999999998,-3.75277674973257));
#616=CARTESIAN_POINT('',(-5.3,-6.5,-3.75277674973256));
#617=CARTESIAN_POINT('',(-3.97997064992273E-16,-6.5,-3.75277674973256));
#618=CARTESIAN_POINT('',(-3.97997064992272E-16,-6.5,3.75277674973256));
#619=CARTESIAN_POINT('',(-5.3,-6.5,-3.75277674973256));
#620=CARTESIAN_POINT('',(-4.93400845723248,-6.49999999999998,-3.75277674973257));
#621=CARTESIAN_POINT('',(-5.16165829602397,-5.41666666666665,-4.37823954135466));
#622=CARTESIAN_POINT('',(-5.3,-4.33333333333333,-5.00370233297675));
#623=CARTESIAN_POINT('',(-5.3,-3.25,-5.62916512459884));
#624=CARTESIAN_POINT('',(-5.3,-3.25,-5.62916512459884));
#625=CARTESIAN_POINT('',(-5.3,-3.25,-5.62916512459884));
#626=CARTESIAN_POINT('',(-5.3,-2.16666666666668,-6.25462791622093));
#627=CARTESIAN_POINT('',(-5.16165829602397,-1.08333333333335,-6.88009070784302));
#628=CARTESIAN_POINT('',(-4.93400845723248,-2.73171717080106E-14,-7.50555349946512));
#629=CARTESIAN_POINT('',(-4.93400845723248,-2.64545330086463E-14,-7.50555349946512));
#630=CARTESIAN_POINT('',(-5.3,-2.42861286636753E-14,-7.50555349946512));
#631=CARTESIAN_POINT('',(-1.44444745829043E-30,-2.42861286636753E-14,-7.50555349946512));
#632=CARTESIAN_POINT('',(-3.97997064992273E-16,-6.5,-3.75277674973256));
#633=CARTESIAN_POINT('',(-5.3,-2.43945488808795E-14,-7.50555349946512));
#634=CARTESIAN_POINT('',(-4.93400845723248,-2.58224150002566E-14,-7.50555349946512));
#635=CARTESIAN_POINT('',(-5.16165829602397,1.08333333333331,-6.88009070784303));
#636=CARTESIAN_POINT('',(-5.30000000000001,2.16666666666664,-6.25462791622094));
#637=CARTESIAN_POINT('',(-5.30000000000001,3.24999999999998,-5.62916512459884));
#638=CARTESIAN_POINT('',(-5.3,3.24999999999998,-5.62916512459884));
#639=CARTESIAN_POINT('',(-5.30000000000001,3.24999999999998,-5.62916512459884));
#640=CARTESIAN_POINT('',(-5.30000000000001,4.33333333333332,-5.00370233297674));
#641=CARTESIAN_POINT('',(-5.16165829602397,5.41666666666667,-4.37823954135465));
#642=CARTESIAN_POINT('',(-4.93400845723248,6.50000000000001,-3.75277674973255));
#643=CARTESIAN_POINT('',(-4.93400845723248,6.5,-3.75277674973253));
#644=CARTESIAN_POINT('',(-5.3,6.5,-3.75277674973256));
#645=CARTESIAN_POINT('',(3.97997064992272E-16,6.5,-3.75277674973256));
#646=CARTESIAN_POINT('',(-1.49368597790778E-30,-2.43945488808795E-14,-7.50555349946512));
#647=CARTESIAN_POINT('',(-5.3,6.5,-3.75277674973256));
#648=CARTESIAN_POINT('',(-4.93400845723248,6.5,-3.75277674973253));
#649=CARTESIAN_POINT('',(-5.15777382812926,6.5,-2.52319614214297));
#650=CARTESIAN_POINT('',(-5.3,6.5,-1.26381592537805));
#651=CARTESIAN_POINT('',(-5.3,6.5,-5.62434525132174E-15));
#652=CARTESIAN_POINT('',(-5.3,6.5,0.));
#653=CARTESIAN_POINT('',(-5.3,6.5,-5.62434525132174E-15));
#654=CARTESIAN_POINT('',(-5.3,6.5,1.2754153554064));
#655=CARTESIAN_POINT('',(-5.15793464796118,6.5,2.52231244442938));
#656=CARTESIAN_POINT('',(-4.93400845723248,6.5,3.75277674973256));
#657=CARTESIAN_POINT('',(3.97997064992272E-16,6.5,-3.75277674973256));
#658=CARTESIAN_POINT('',(0.,0.,0.));
#659=CARTESIAN_POINT('',(0.,2.44921270764475E-17,0.));
#660=CARTESIAN_POINT('',(1.92875500727025E-16,3.15,0.));
#661=CARTESIAN_POINT('',(-5.3,0.,0.));
#662=CARTESIAN_POINT('',(-5.3,0.,0.));
#663=CARTESIAN_POINT('',(-5.3,0.,0.));
#664=CARTESIAN_POINT('',(-5.3,0.,0.));
#665=CARTESIAN_POINT('',(-5.3,0.,0.));
#666=CARTESIAN_POINT('',(-5.3,0.,0.));
#667=CARTESIAN_POINT('',(-5.3,0.,0.));
#668=CARTESIAN_POINT('',(-5.3,0.,0.));
#669=CARTESIAN_POINT('',(-5.3,0.,0.));
#670=CARTESIAN_POINT('',(-5.3,0.,0.));
#671=CARTESIAN_POINT('',(-5.3,0.,0.));
#672=CARTESIAN_POINT('',(-5.3,0.,0.));
#673=CARTESIAN_POINT('',(-5.3,0.,0.));
#674=CARTESIAN_POINT('',(22.5,0.,0.));
#675=CARTESIAN_POINT('',(25.,0.,0.));
#676=CARTESIAN_POINT('',(25.,0.,1.5));
#677=CARTESIAN_POINT('',(22.5,0.,0.));
#678=CARTESIAN_POINT('',(22.5,0.,4.));
#679=CARTESIAN_POINT('',(25.,0.,1.5));
#680=CARTESIAN_POINT('',(14.,0.,0.));
#681=CARTESIAN_POINT('',(12.6,0.,0.));
#682=CARTESIAN_POINT('',(12.6,0.,2.75));
#683=CARTESIAN_POINT('',(0.399999999999999,0.,0.));
#684=CARTESIAN_POINT('',(0.399999999999999,2.75,0.));
#685=CARTESIAN_POINT('',(13.,0.,2.75));
#686=CARTESIAN_POINT('',(13.,0.,0.));
#687=CARTESIAN_POINT('',(13.,0.,3.15));
#688=CARTESIAN_POINT('',(13.,0.,0.));
#689=CARTESIAN_POINT('',(13.,0.,4.));
#690=CARTESIAN_POINT('',(14.,0.,0.));
#691=CARTESIAN_POINT('',(0.399999999999999,0.,0.));
#692=CARTESIAN_POINT('',(12.6,0.,0.));
#693=MECHANICAL_DESIGN_GEOMETRIC_PRESENTATION_REPRESENTATION('',(#282,#283,
#284,#285,#286,#287,#288,#289,#290,#291,#292,#293,#294,#295,#296,#297,#298,
#299,#300,#301,#302),#694);
#694=(
GEOMETRIC_REPRESENTATION_CONTEXT(3)
GLOBAL_UNCERTAINTY_ASSIGNED_CONTEXT((#695))
GLOBAL_UNIT_ASSIGNED_CONTEXT((#698,#697,#696))
REPRESENTATION_CONTEXT('\X2\516D89D259344E0D813151FA87BA9489\X0\',
'TOP_LEVEL_ASSEMBLY_PART')
);
#695=UNCERTAINTY_MEASURE_WITH_UNIT(LENGTH_MEASURE(0.005),#698,
'DISTANCE_ACCURACY_VALUE','Maximum Tolerance applied to model');
#696=(
NAMED_UNIT(*)
SI_UNIT($,.STERADIAN.)
SOLID_ANGLE_UNIT()
);
#697=(
NAMED_UNIT(*)
PLANE_ANGLE_UNIT()
SI_UNIT($,.RADIAN.)
);
#698=(
LENGTH_UNIT()
NAMED_UNIT(*)
SI_UNIT(.MILLI.,.METRE.)
);
#699=PRODUCT_DEFINITION_SHAPE('','',#700);
#700=PRODUCT_DEFINITION('','',#702,#701);
#701=PRODUCT_DEFINITION_CONTEXT('',#708,'design');
#702=PRODUCT_DEFINITION_FORMATION_WITH_SPECIFIED_SOURCE('','',#704,
 .NOT_KNOWN.);
#703=PRODUCT_RELATED_PRODUCT_CATEGORY('','',(#704));
#704=PRODUCT('\X2\516D89D259344E0D813151FA87BA9489\X0\',
'\X2\516D89D259344E0D813151FA87BA9489\X0\','\X2\516D89D259344E0D813151FA87BA9489\X0\',
(#706));
#705=PRODUCT_CATEGORY('','');
#706=PRODUCT_CONTEXT('',#708,'mechanical');
#707=APPLICATION_PROTOCOL_DEFINITION('international standard',
'automotive_design',2010,#708);
#708=APPLICATION_CONTEXT(
'core data for automotive mechanical design processes');
ENDSEC;
END-ISO-10303-21;
