ISO-10303-21;
HEADER;
/* Generated by software containing HOOPS Exchange Step
 * from HOOPS Exchange, Inc. (www.tiangong.cloud) 
 */

FILE_DESCRIPTION(
/* description */ ('Unknown'),
/* implementation_level */ '2;1');

FILE_NAME(
/* name */ '\X2\5F0069FD57065934672887BA9489\X0\ GBT99-1986',
/* time_stamp */ '2025-12-31T14:46:10+08:00',
/* author */ ('Unknown'),
/* organization */ ('Unknown'),
/* preprocessor_version */ 'ST-DEVELOPER v19.4',
/* originating_system */ 'TianGong',
/* authorisation */ 'Unknown');

FILE_SCHEMA (('AUTOMOTIVE_DESIGN {1 0 10303 214 3 1 1}'));
ENDSEC;

DATA;
#10=PROPERTY_DEFINITION_REPRESENTATION(#14,#12);
#11=PROPERTY_DEFINITION_REPRESENTATION(#15,#13);
#12=REPRESENTATION('',(#16),#290);
#13=REPRESENTATION('',(#17),#290);
#14=PROPERTY_DEFINITION('pmi validation property','',#295);
#15=PROPERTY_DEFINITION('pmi validation property','',#295);
#16=VALUE_REPRESENTATION_ITEM('number of annotations',COUNT_MEASURE(0.));
#17=VALUE_REPRESENTATION_ITEM('number of views',COUNT_MEASURE(0.));
#18=SHAPE_REPRESENTATION_RELATIONSHIP('','',#192,#19);
#19=ADVANCED_BREP_SHAPE_REPRESENTATION('',(#190),#290);
#20=TOROIDAL_SURFACE('',#209,0.999999999999993,0.2);
#21=LINE('',#284,#23);
#22=LINE('',#286,#24);
#23=VECTOR('',#238,1000.);
#24=VECTOR('',#241,1000.);
#25=B_SPLINE_CURVE_WITH_KNOTS('',3,(#263,#264,#265,#266,#267,#268,#269),
 .UNSPECIFIED.,.F.,.F.,(4,1,1,1,4),(0.00822186583350662,0.0091571962716946,
0.0100925267098826,0.0110278571480705,0.0119631875862585),.UNSPECIFIED.);
#26=B_SPLINE_CURVE_WITH_KNOTS('',3,(#274,#275,#276,#277,#278,#279,#280),
 .UNSPECIFIED.,.F.,.F.,(4,1,1,1,4),(0.00822186583350663,0.0091571962716946,
0.0100925267098826,0.0110278571480705,0.0119631875862585),.UNSPECIFIED.);
#27=DEGENERATE_TOROIDAL_SURFACE('',#203,0.0111805582684411,1.6,.T.);
#28=VERTEX_LOOP('',#72);
#29=CONICAL_SURFACE('',#202,0.799999999999993,0.785398163397444);
#30=PLANE('',#197);
#31=PLANE('',#206);
#32=PLANE('',#207);
#33=PLANE('',#208);
#34=ORIENTED_EDGE('',*,*,#56,.T.);
#35=ORIENTED_EDGE('',*,*,#57,.T.);
#36=ORIENTED_EDGE('',*,*,#58,.T.);
#37=ORIENTED_EDGE('',*,*,#59,.F.);
#38=ORIENTED_EDGE('',*,*,#57,.F.);
#39=ORIENTED_EDGE('',*,*,#60,.T.);
#40=ORIENTED_EDGE('',*,*,#56,.F.);
#41=ORIENTED_EDGE('',*,*,#61,.F.);
#42=ORIENTED_EDGE('',*,*,#62,.F.);
#43=ORIENTED_EDGE('',*,*,#63,.F.);
#44=ORIENTED_EDGE('',*,*,#64,.F.);
#45=ORIENTED_EDGE('',*,*,#59,.T.);
#46=ORIENTED_EDGE('',*,*,#65,.T.);
#47=ORIENTED_EDGE('',*,*,#63,.T.);
#48=ORIENTED_EDGE('',*,*,#66,.T.);
#49=ORIENTED_EDGE('',*,*,#61,.T.);
#50=ORIENTED_EDGE('',*,*,#66,.F.);
#51=ORIENTED_EDGE('',*,*,#64,.T.);
#52=ORIENTED_EDGE('',*,*,#65,.F.);
#53=ORIENTED_EDGE('',*,*,#62,.T.);
#54=ORIENTED_EDGE('',*,*,#60,.F.);
#55=ORIENTED_EDGE('',*,*,#58,.F.);
#56=EDGE_CURVE('',#67,#67,#77,.T.);
#57=EDGE_CURVE('',#68,#68,#78,.T.);
#58=EDGE_CURVE('',#69,#69,#79,.F.);
#59=EDGE_CURVE('',#70,#70,#80,.T.);
#60=EDGE_CURVE('',#71,#71,#81,.T.);
#61=EDGE_CURVE('',#73,#74,#25,.T.);
#62=EDGE_CURVE('',#75,#73,#82,.F.);
#63=EDGE_CURVE('',#76,#75,#26,.T.);
#64=EDGE_CURVE('',#74,#76,#83,.F.);
#65=EDGE_CURVE('',#75,#76,#21,.T.);
#66=EDGE_CURVE('',#74,#73,#22,.T.);
#67=VERTEX_POINT('',#249);
#68=VERTEX_POINT('',#251);
#69=VERTEX_POINT('',#254);
#70=VERTEX_POINT('',#256);
#71=VERTEX_POINT('',#259);
#72=VERTEX_POINT('',#261);
#73=VERTEX_POINT('',#270);
#74=VERTEX_POINT('',#271);
#75=VERTEX_POINT('',#273);
#76=VERTEX_POINT('',#281);
#77=CIRCLE('',#195,0.799999999999993);
#78=CIRCLE('',#196,0.799999999999993);
#79=CIRCLE('',#198,0.999999999999993);
#80=CIRCLE('',#199,1.6);
#81=CIRCLE('',#201,0.799999999999993);
#82=CIRCLE('',#204,1.48243380285294);
#83=CIRCLE('',#205,1.48243380285294);
#84=EDGE_LOOP('',(#34));
#85=EDGE_LOOP('',(#35));
#86=EDGE_LOOP('',(#36));
#87=EDGE_LOOP('',(#37));
#88=EDGE_LOOP('',(#38));
#89=EDGE_LOOP('',(#39));
#90=EDGE_LOOP('',(#40));
#91=EDGE_LOOP('',(#41,#42,#43,#44));
#92=EDGE_LOOP('',(#45));
#93=EDGE_LOOP('',(#46,#47));
#94=EDGE_LOOP('',(#48,#49));
#95=EDGE_LOOP('',(#50,#51,#52,#53));
#96=EDGE_LOOP('',(#54));
#97=EDGE_LOOP('',(#55));
#98=FACE_BOUND('',#84,.T.);
#99=FACE_BOUND('',#85,.T.);
#100=FACE_BOUND('',#86,.T.);
#101=FACE_BOUND('',#87,.T.);
#102=FACE_BOUND('',#88,.T.);
#103=FACE_BOUND('',#89,.T.);
#104=FACE_BOUND('',#28,.T.);
#105=FACE_BOUND('',#90,.T.);
#106=FACE_BOUND('',#91,.T.);
#107=FACE_BOUND('',#92,.T.);
#108=FACE_BOUND('',#93,.T.);
#109=FACE_BOUND('',#94,.T.);
#110=FACE_BOUND('',#95,.T.);
#111=FACE_BOUND('',#96,.T.);
#112=FACE_BOUND('',#97,.T.);
#113=CYLINDRICAL_SURFACE('',#194,0.799999999999993);
#114=CYLINDRICAL_SURFACE('',#200,0.799999999999993);
#115=STYLED_ITEM('',(#124),#180);
#116=STYLED_ITEM('',(#125),#181);
#117=STYLED_ITEM('',(#126),#182);
#118=STYLED_ITEM('',(#127),#183);
#119=STYLED_ITEM('',(#128),#184);
#120=STYLED_ITEM('',(#129),#185);
#121=STYLED_ITEM('',(#130),#186);
#122=STYLED_ITEM('',(#131),#187);
#123=STYLED_ITEM('',(#132),#188);
#124=PRESENTATION_STYLE_ASSIGNMENT((#133));
#125=PRESENTATION_STYLE_ASSIGNMENT((#134));
#126=PRESENTATION_STYLE_ASSIGNMENT((#135));
#127=PRESENTATION_STYLE_ASSIGNMENT((#136));
#128=PRESENTATION_STYLE_ASSIGNMENT((#137));
#129=PRESENTATION_STYLE_ASSIGNMENT((#138));
#130=PRESENTATION_STYLE_ASSIGNMENT((#139));
#131=PRESENTATION_STYLE_ASSIGNMENT((#140));
#132=PRESENTATION_STYLE_ASSIGNMENT((#141));
#133=SURFACE_STYLE_USAGE(.BOTH.,#142);
#134=SURFACE_STYLE_USAGE(.BOTH.,#143);
#135=SURFACE_STYLE_USAGE(.BOTH.,#144);
#136=SURFACE_STYLE_USAGE(.BOTH.,#145);
#137=SURFACE_STYLE_USAGE(.BOTH.,#146);
#138=SURFACE_STYLE_USAGE(.BOTH.,#147);
#139=SURFACE_STYLE_USAGE(.BOTH.,#148);
#140=SURFACE_STYLE_USAGE(.BOTH.,#149);
#141=SURFACE_STYLE_USAGE(.BOTH.,#150);
#142=SURFACE_SIDE_STYLE('',(#151));
#143=SURFACE_SIDE_STYLE('',(#152));
#144=SURFACE_SIDE_STYLE('',(#153));
#145=SURFACE_SIDE_STYLE('',(#154));
#146=SURFACE_SIDE_STYLE('',(#155));
#147=SURFACE_SIDE_STYLE('',(#156));
#148=SURFACE_SIDE_STYLE('',(#157));
#149=SURFACE_SIDE_STYLE('',(#158));
#150=SURFACE_SIDE_STYLE('',(#159));
#151=SURFACE_STYLE_FILL_AREA(#160);
#152=SURFACE_STYLE_FILL_AREA(#161);
#153=SURFACE_STYLE_FILL_AREA(#162);
#154=SURFACE_STYLE_FILL_AREA(#163);
#155=SURFACE_STYLE_FILL_AREA(#164);
#156=SURFACE_STYLE_FILL_AREA(#165);
#157=SURFACE_STYLE_FILL_AREA(#166);
#158=SURFACE_STYLE_FILL_AREA(#167);
#159=SURFACE_STYLE_FILL_AREA(#168);
#160=FILL_AREA_STYLE('',(#169));
#161=FILL_AREA_STYLE('',(#170));
#162=FILL_AREA_STYLE('',(#171));
#163=FILL_AREA_STYLE('',(#172));
#164=FILL_AREA_STYLE('',(#173));
#165=FILL_AREA_STYLE('',(#174));
#166=FILL_AREA_STYLE('',(#175));
#167=FILL_AREA_STYLE('',(#176));
#168=FILL_AREA_STYLE('',(#177));
#169=FILL_AREA_STYLE_COLOUR('',#178);
#170=FILL_AREA_STYLE_COLOUR('',#179);
#171=FILL_AREA_STYLE_COLOUR('',#179);
#172=FILL_AREA_STYLE_COLOUR('',#179);
#173=FILL_AREA_STYLE_COLOUR('',#179);
#174=FILL_AREA_STYLE_COLOUR('',#179);
#175=FILL_AREA_STYLE_COLOUR('',#179);
#176=FILL_AREA_STYLE_COLOUR('',#179);
#177=FILL_AREA_STYLE_COLOUR('',#179);
#178=COLOUR_RGB('',0.1875,0.75,0.581249892711639);
#179=COLOUR_RGB('',0.506983280181885,0.531564235687256,0.550000011920929);
#180=ADVANCED_FACE('',(#98,#99),#113,.T.);
#181=ADVANCED_FACE('',(#100,#101),#30,.T.);
#182=ADVANCED_FACE('',(#102,#103),#114,.T.);
#183=ADVANCED_FACE('',(#104,#105),#29,.T.);
#184=ADVANCED_FACE('',(#106,#107),#27,.T.);
#185=ADVANCED_FACE('',(#108),#31,.F.);
#186=ADVANCED_FACE('',(#109),#32,.F.);
#187=ADVANCED_FACE('',(#110),#33,.T.);
#188=ADVANCED_FACE('',(#111,#112),#20,.F.);
#189=CLOSED_SHELL('',(#180,#181,#182,#183,#184,#185,#186,#187,#188));
#190=MANIFOLD_SOLID_BREP('',#189);
#191=SHAPE_DEFINITION_REPRESENTATION(#295,#192);
#192=SHAPE_REPRESENTATION('\X2\5F0069FD57065934672887BA9489\X0\ GBT99-
1986',(#193),#290);
#193=AXIS2_PLACEMENT_3D('',#246,#210,#211);
#194=AXIS2_PLACEMENT_3D('',#247,#212,#213);
#195=AXIS2_PLACEMENT_3D('',#248,#214,#215);
#196=AXIS2_PLACEMENT_3D('',#250,#216,#217);
#197=AXIS2_PLACEMENT_3D('',#252,#218,#219);
#198=AXIS2_PLACEMENT_3D('',#253,#220,#221);
#199=AXIS2_PLACEMENT_3D('',#255,#222,#223);
#200=AXIS2_PLACEMENT_3D('',#257,#224,#225);
#201=AXIS2_PLACEMENT_3D('',#258,#226,#227);
#202=AXIS2_PLACEMENT_3D('',#260,#228,#229);
#203=AXIS2_PLACEMENT_3D('',#262,#230,#231);
#204=AXIS2_PLACEMENT_3D('',#272,#232,#233);
#205=AXIS2_PLACEMENT_3D('',#282,#234,#235);
#206=AXIS2_PLACEMENT_3D('',#283,#236,#237);
#207=AXIS2_PLACEMENT_3D('',#285,#239,#240);
#208=AXIS2_PLACEMENT_3D('',#287,#242,#243);
#209=AXIS2_PLACEMENT_3D('',#288,#244,#245);
#210=DIRECTION('',(0.,0.,1.));
#211=DIRECTION('',(1.,0.,0.));
#212=DIRECTION('',(-1.,0.,0.));
#213=DIRECTION('',(0.,0.,1.));
#214=DIRECTION('',(-1.,0.,0.));
#215=DIRECTION('',(0.,0.,1.));
#216=DIRECTION('',(1.,0.,0.));
#217=DIRECTION('',(0.,0.,1.));
#218=DIRECTION('',(1.,0.,0.));
#219=DIRECTION('',(0.,0.,-1.));
#220=DIRECTION('',(1.,0.,0.));
#221=DIRECTION('',(0.,0.,-1.));
#222=DIRECTION('',(-1.,0.,0.));
#223=DIRECTION('',(0.,0.,1.));
#224=DIRECTION('',(-1.,0.,0.));
#225=DIRECTION('',(0.,0.,1.));
#226=DIRECTION('',(1.,0.,0.));
#227=DIRECTION('',(0.,0.,-1.));
#228=DIRECTION('',(-1.,0.,0.));
#229=DIRECTION('',(0.,0.,1.));
#230=DIRECTION('',(-1.,0.,0.));
#231=DIRECTION('',(0.,0.,1.));
#232=DIRECTION('',(1.,-6.12303176911189E-17,0.));
#233=DIRECTION('',(6.12303176911189E-17,1.,0.));
#234=DIRECTION('',(1.,-6.12303176911189E-17,0.));
#235=DIRECTION('',(6.12303176911189E-17,1.,0.));
#236=DIRECTION('',(0.,0.,-1.));
#237=DIRECTION('',(-1.,0.,0.));
#238=DIRECTION('',(6.12303176911189E-17,1.,0.));
#239=DIRECTION('',(0.,-1.35525271560688E-16,1.));
#240=DIRECTION('',(0.,-1.,-1.35525271560688E-16));
#241=DIRECTION('',(-6.12303176911189E-17,-1.,-1.35525271560688E-16));
#242=DIRECTION('',(-1.,0.,0.));
#243=DIRECTION('',(0.,0.,1.));
#244=DIRECTION('',(1.,0.,0.));
#245=DIRECTION('',(0.,0.,-1.));
#246=CARTESIAN_POINT('',(0.,0.,0.));
#247=CARTESIAN_POINT('',(0.,0.,0.));
#248=CARTESIAN_POINT('',(11.2,0.,0.));
#249=CARTESIAN_POINT('',(11.2,0.,0.799999999999993));
#250=CARTESIAN_POINT('',(4.,0.,0.));
#251=CARTESIAN_POINT('',(4.,0.,0.799999999999993));
#252=CARTESIAN_POINT('',(-1.76182853028894E-16,0.,0.799999999999993));
#253=CARTESIAN_POINT('',(-1.62630325872826E-16,0.,0.));
#254=CARTESIAN_POINT('',(-1.62630325872826E-16,0.,-0.999999999999993));
#255=CARTESIAN_POINT('',(-3.52365706057789E-16,0.,0.));
#256=CARTESIAN_POINT('',(-3.52365706057789E-16,0.,1.6));
#257=CARTESIAN_POINT('',(0.,0.,0.));
#258=CARTESIAN_POINT('',(0.2,0.,0.));
#259=CARTESIAN_POINT('',(0.2,0.,-0.799999999999993));
#260=CARTESIAN_POINT('',(11.2,0.,0.));
#261=CARTESIAN_POINT('',(12.,0.,0.));
#262=CARTESIAN_POINT('',(0.188819441731559,0.,0.));
#263=CARTESIAN_POINT('',(-0.440000000000005,-1.46888051925303,0.2));
#264=CARTESIAN_POINT('',(-0.72516444338473,-1.34587552685991,0.2));
#265=CARTESIAN_POINT('',(-1.21792478779743,-0.930957371213147,0.2));
#266=CARTESIAN_POINT('',(-1.49113078148818,8.7094409368788E-7,0.2));
#267=CARTESIAN_POINT('',(-1.21755208012445,0.93130560204214,0.2));
#268=CARTESIAN_POINT('',(-0.725634867287465,1.34567261064816,0.2));
#269=CARTESIAN_POINT('',(-0.440000000000003,1.46888051925302,0.2));
#270=CARTESIAN_POINT('',(-0.440000000000003,-1.46888051925302,0.2));
#271=CARTESIAN_POINT('',(-0.440000000000003,1.46888051925302,0.2));
#272=CARTESIAN_POINT('',(-0.440000000000003,3.85028141875756E-17,0.));
#273=CARTESIAN_POINT('',(-0.440000000000003,-1.46888051925302,-0.2));
#274=CARTESIAN_POINT('',(-0.440000000000005,1.46888051925303,-0.2));
#275=CARTESIAN_POINT('',(-0.725164443384731,1.34587552685991,-0.2));
#276=CARTESIAN_POINT('',(-1.21792478779743,0.930957371213147,-0.2));
#277=CARTESIAN_POINT('',(-1.49113078148817,-8.70944096314985E-7,-0.2));
#278=CARTESIAN_POINT('',(-1.21755208012445,-0.931305602042139,-0.2));
#279=CARTESIAN_POINT('',(-0.725634867287465,-1.34567261064816,-0.2));
#280=CARTESIAN_POINT('',(-0.440000000000004,-1.46888051925302,-0.2));
#281=CARTESIAN_POINT('',(-0.440000000000003,1.46888051925302,-0.2));
#282=CARTESIAN_POINT('',(-0.440000000000003,3.85028141875756E-17,0.));
#283=CARTESIAN_POINT('',(-1.4,-1.6,-0.2));
#284=CARTESIAN_POINT('',(-0.440000000000003,-1.6,-0.2));
#285=CARTESIAN_POINT('',(-1.4,1.6,0.2));
#286=CARTESIAN_POINT('',(-0.440000000000003,1.6,0.2));
#287=CARTESIAN_POINT('',(-0.440000000000003,0.,0.2));
#288=CARTESIAN_POINT('',(0.2,0.,0.));
#289=MECHANICAL_DESIGN_GEOMETRIC_PRESENTATION_REPRESENTATION('',(#115,#116,
#117,#118,#119,#120,#121,#122,#123),#290);
#290=(
GEOMETRIC_REPRESENTATION_CONTEXT(3)
GLOBAL_UNCERTAINTY_ASSIGNED_CONTEXT((#291))
GLOBAL_UNIT_ASSIGNED_CONTEXT((#294,#293,#292))
REPRESENTATION_CONTEXT('\X2\5F0069FD57065934672887BA9489\X0\ GBT99-198
6','TOP_LEVEL_ASSEMBLY_PART')
);
#291=UNCERTAINTY_MEASURE_WITH_UNIT(LENGTH_MEASURE(0.005),#294,
'DISTANCE_ACCURACY_VALUE','Maximum Tolerance applied to model');
#292=(
NAMED_UNIT(*)
SI_UNIT($,.STERADIAN.)
SOLID_ANGLE_UNIT()
);
#293=(
NAMED_UNIT(*)
PLANE_ANGLE_UNIT()
SI_UNIT($,.RADIAN.)
);
#294=(
LENGTH_UNIT()
NAMED_UNIT(*)
SI_UNIT(.MILLI.,.METRE.)
);
#295=PRODUCT_DEFINITION_SHAPE('','',#296);
#296=PRODUCT_DEFINITION('','',#298,#297);
#297=PRODUCT_DEFINITION_CONTEXT('',#304,'design');
#298=PRODUCT_DEFINITION_FORMATION_WITH_SPECIFIED_SOURCE('','',#300,
 .NOT_KNOWN.);
#299=PRODUCT_RELATED_PRODUCT_CATEGORY('','',(#300));
#300=PRODUCT('\X2\5F0069FD57065934672887BA9489\X0\ GBT99-1986',
'\X2\5F0069FD57065934672887BA9489\X0\ GBT99-1986',
'\X2\5F0069FD57065934672887BA9489\X0\ GBT99-1986',(#302));
#301=PRODUCT_CATEGORY('','');
#302=PRODUCT_CONTEXT('',#304,'mechanical');
#303=APPLICATION_PROTOCOL_DEFINITION('international standard',
'automotive_design',2010,#304);
#304=APPLICATION_CONTEXT(
'core data for automotive mechanical design processes');
ENDSEC;
END-ISO-10303-21;
