ISO-10303-21;
HEADER;
/* Generated by software containing HOOPS Exchange Step
 * from HOOPS Exchange, Inc. (www.tiangong.cloud) 
 */

FILE_DESCRIPTION(
/* description */ ('Unknown'),
/* implementation_level */ '2;1');

FILE_NAME(
/* name */ '\X2\5185516D89D295257AEF7D275B9A87BA9489\X0\',
/* time_stamp */ '2025-12-18T22:13:36+08:00',
/* author */ ('Unknown'),
/* organization */ ('Unknown'),
/* preprocessor_version */ 'ST-DEVELOPER v19.4',
/* originating_system */ 'TianGong',
/* authorisation */ 'Unknown');

FILE_SCHEMA (('AUTOMOTIVE_DESIGN {1 0 10303 214 3 1 1}'));
ENDSEC;

DATA;
#10=PROPERTY_DEFINITION_REPRESENTATION(#14,#12);
#11=PROPERTY_DEFINITION_REPRESENTATION(#15,#13);
#12=REPRESENTATION('',(#16),#409);
#13=REPRESENTATION('',(#17),#409);
#14=PROPERTY_DEFINITION('pmi validation property','',#414);
#15=PROPERTY_DEFINITION('pmi validation property','',#414);
#16=VALUE_REPRESENTATION_ITEM('number of annotations',COUNT_MEASURE(0.));
#17=VALUE_REPRESENTATION_ITEM('number of views',COUNT_MEASURE(0.));
#18=SHAPE_REPRESENTATION_RELATIONSHIP('','',#287,#19);
#19=ADVANCED_BREP_SHAPE_REPRESENTATION('',(#285),#409);
#20=CYLINDRICAL_SURFACE('',#295,0.800000000000001);
#21=CONICAL_SURFACE('',#291,0.8,1.0471975511966);
#22=CONICAL_SURFACE('',#297,0.750000000000001,0.785398163397449);
#23=LINE('',#361,#41);
#24=LINE('',#364,#42);
#25=LINE('',#366,#43);
#26=LINE('',#368,#44);
#27=LINE('',#370,#45);
#28=LINE('',#372,#46);
#29=LINE('',#384,#47);
#30=LINE('',#386,#48);
#31=LINE('',#388,#49);
#32=LINE('',#390,#50);
#33=LINE('',#392,#51);
#34=LINE('',#394,#52);
#35=LINE('',#396,#53);
#36=LINE('',#398,#54);
#37=LINE('',#400,#55);
#38=LINE('',#402,#56);
#39=LINE('',#404,#57);
#40=LINE('',#406,#58);
#41=VECTOR('',#311,1000.);
#42=VECTOR('',#312,1000.);
#43=VECTOR('',#313,1000.);
#44=VECTOR('',#314,1000.);
#45=VECTOR('',#315,1000.);
#46=VECTOR('',#316,1000.);
#47=VECTOR('',#333,1000.);
#48=VECTOR('',#334,1000.);
#49=VECTOR('',#335,1000.);
#50=VECTOR('',#338,1000.);
#51=VECTOR('',#339,1000.);
#52=VECTOR('',#342,1000.);
#53=VECTOR('',#343,1000.);
#54=VECTOR('',#346,1000.);
#55=VECTOR('',#347,1000.);
#56=VECTOR('',#350,1000.);
#57=VECTOR('',#351,1000.);
#58=VECTOR('',#354,1000.);
#59=ORIENTED_EDGE('',*,*,#103,.T.);
#60=ORIENTED_EDGE('',*,*,#104,.T.);
#61=ORIENTED_EDGE('',*,*,#105,.T.);
#62=ORIENTED_EDGE('',*,*,#106,.T.);
#63=ORIENTED_EDGE('',*,*,#107,.T.);
#64=ORIENTED_EDGE('',*,*,#108,.T.);
#65=ORIENTED_EDGE('',*,*,#109,.T.);
#66=ORIENTED_EDGE('',*,*,#110,.T.);
#67=ORIENTED_EDGE('',*,*,#111,.F.);
#68=ORIENTED_EDGE('',*,*,#110,.F.);
#69=ORIENTED_EDGE('',*,*,#112,.T.);
#70=ORIENTED_EDGE('',*,*,#111,.T.);
#71=ORIENTED_EDGE('',*,*,#112,.F.);
#72=ORIENTED_EDGE('',*,*,#103,.F.);
#73=ORIENTED_EDGE('',*,*,#105,.F.);
#74=ORIENTED_EDGE('',*,*,#113,.F.);
#75=ORIENTED_EDGE('',*,*,#114,.T.);
#76=ORIENTED_EDGE('',*,*,#115,.T.);
#77=ORIENTED_EDGE('',*,*,#106,.F.);
#78=ORIENTED_EDGE('',*,*,#115,.F.);
#79=ORIENTED_EDGE('',*,*,#116,.T.);
#80=ORIENTED_EDGE('',*,*,#117,.T.);
#81=ORIENTED_EDGE('',*,*,#107,.F.);
#82=ORIENTED_EDGE('',*,*,#117,.F.);
#83=ORIENTED_EDGE('',*,*,#118,.T.);
#84=ORIENTED_EDGE('',*,*,#119,.T.);
#85=ORIENTED_EDGE('',*,*,#108,.F.);
#86=ORIENTED_EDGE('',*,*,#119,.F.);
#87=ORIENTED_EDGE('',*,*,#120,.T.);
#88=ORIENTED_EDGE('',*,*,#121,.T.);
#89=ORIENTED_EDGE('',*,*,#109,.F.);
#90=ORIENTED_EDGE('',*,*,#121,.F.);
#91=ORIENTED_EDGE('',*,*,#122,.T.);
#92=ORIENTED_EDGE('',*,*,#123,.T.);
#93=ORIENTED_EDGE('',*,*,#104,.F.);
#94=ORIENTED_EDGE('',*,*,#123,.F.);
#95=ORIENTED_EDGE('',*,*,#124,.T.);
#96=ORIENTED_EDGE('',*,*,#113,.T.);
#97=ORIENTED_EDGE('',*,*,#114,.F.);
#98=ORIENTED_EDGE('',*,*,#124,.F.);
#99=ORIENTED_EDGE('',*,*,#122,.F.);
#100=ORIENTED_EDGE('',*,*,#120,.F.);
#101=ORIENTED_EDGE('',*,*,#118,.F.);
#102=ORIENTED_EDGE('',*,*,#116,.F.);
#103=EDGE_CURVE('',#125,#125,#141,.T.);
#104=EDGE_CURVE('',#126,#127,#23,.T.);
#105=EDGE_CURVE('',#127,#128,#24,.T.);
#106=EDGE_CURVE('',#128,#129,#25,.T.);
#107=EDGE_CURVE('',#129,#130,#26,.T.);
#108=EDGE_CURVE('',#130,#131,#27,.T.);
#109=EDGE_CURVE('',#131,#126,#28,.T.);
#110=EDGE_CURVE('',#132,#132,#142,.T.);
#111=EDGE_CURVE('',#133,#133,#143,.T.);
#112=EDGE_CURVE('',#134,#134,#144,.F.);
#113=EDGE_CURVE('',#135,#127,#29,.T.);
#114=EDGE_CURVE('',#135,#136,#30,.T.);
#115=EDGE_CURVE('',#136,#128,#31,.T.);
#116=EDGE_CURVE('',#136,#137,#32,.T.);
#117=EDGE_CURVE('',#137,#129,#33,.T.);
#118=EDGE_CURVE('',#137,#138,#34,.T.);
#119=EDGE_CURVE('',#138,#130,#35,.T.);
#120=EDGE_CURVE('',#138,#139,#36,.T.);
#121=EDGE_CURVE('',#139,#131,#37,.T.);
#122=EDGE_CURVE('',#139,#140,#38,.T.);
#123=EDGE_CURVE('',#140,#126,#39,.T.);
#124=EDGE_CURVE('',#140,#135,#40,.T.);
#125=VERTEX_POINT('',#360);
#126=VERTEX_POINT('',#362);
#127=VERTEX_POINT('',#363);
#128=VERTEX_POINT('',#365);
#129=VERTEX_POINT('',#367);
#130=VERTEX_POINT('',#369);
#131=VERTEX_POINT('',#371);
#132=VERTEX_POINT('',#375);
#133=VERTEX_POINT('',#377);
#134=VERTEX_POINT('',#381);
#135=VERTEX_POINT('',#385);
#136=VERTEX_POINT('',#387);
#137=VERTEX_POINT('',#391);
#138=VERTEX_POINT('',#395);
#139=VERTEX_POINT('',#399);
#140=VERTEX_POINT('',#403);
#141=CIRCLE('',#290,0.750000000000001);
#142=CIRCLE('',#292,0.2);
#143=CIRCLE('',#293,0.8);
#144=CIRCLE('',#296,0.800000000000001);
#145=EDGE_LOOP('',(#59));
#146=EDGE_LOOP('',(#60,#61,#62,#63,#64,#65));
#147=EDGE_LOOP('',(#66));
#148=EDGE_LOOP('',(#67));
#149=EDGE_LOOP('',(#68));
#150=EDGE_LOOP('',(#69));
#151=EDGE_LOOP('',(#70));
#152=EDGE_LOOP('',(#71));
#153=EDGE_LOOP('',(#72));
#154=EDGE_LOOP('',(#73,#74,#75,#76));
#155=EDGE_LOOP('',(#77,#78,#79,#80));
#156=EDGE_LOOP('',(#81,#82,#83,#84));
#157=EDGE_LOOP('',(#85,#86,#87,#88));
#158=EDGE_LOOP('',(#89,#90,#91,#92));
#159=EDGE_LOOP('',(#93,#94,#95,#96));
#160=EDGE_LOOP('',(#97,#98,#99,#100,#101,#102));
#161=FACE_BOUND('',#145,.T.);
#162=FACE_BOUND('',#146,.T.);
#163=FACE_BOUND('',#147,.T.);
#164=FACE_BOUND('',#148,.T.);
#165=FACE_BOUND('',#149,.T.);
#166=FACE_BOUND('',#150,.T.);
#167=FACE_BOUND('',#151,.T.);
#168=FACE_BOUND('',#152,.T.);
#169=FACE_BOUND('',#153,.T.);
#170=FACE_BOUND('',#154,.T.);
#171=FACE_BOUND('',#155,.T.);
#172=FACE_BOUND('',#156,.T.);
#173=FACE_BOUND('',#157,.T.);
#174=FACE_BOUND('',#158,.T.);
#175=FACE_BOUND('',#159,.T.);
#176=FACE_BOUND('',#160,.T.);
#177=PLANE('',#289);
#178=PLANE('',#294);
#179=PLANE('',#298);
#180=PLANE('',#299);
#181=PLANE('',#300);
#182=PLANE('',#301);
#183=PLANE('',#302);
#184=PLANE('',#303);
#185=PLANE('',#304);
#186=STYLED_ITEM('',(#198),#272);
#187=STYLED_ITEM('',(#199),#273);
#188=STYLED_ITEM('',(#200),#274);
#189=STYLED_ITEM('',(#201),#275);
#190=STYLED_ITEM('',(#202),#276);
#191=STYLED_ITEM('',(#203),#277);
#192=STYLED_ITEM('',(#204),#278);
#193=STYLED_ITEM('',(#205),#279);
#194=STYLED_ITEM('',(#206),#280);
#195=STYLED_ITEM('',(#207),#281);
#196=STYLED_ITEM('',(#208),#282);
#197=STYLED_ITEM('',(#209),#283);
#198=PRESENTATION_STYLE_ASSIGNMENT((#210));
#199=PRESENTATION_STYLE_ASSIGNMENT((#211));
#200=PRESENTATION_STYLE_ASSIGNMENT((#212));
#201=PRESENTATION_STYLE_ASSIGNMENT((#213));
#202=PRESENTATION_STYLE_ASSIGNMENT((#214));
#203=PRESENTATION_STYLE_ASSIGNMENT((#215));
#204=PRESENTATION_STYLE_ASSIGNMENT((#216));
#205=PRESENTATION_STYLE_ASSIGNMENT((#217));
#206=PRESENTATION_STYLE_ASSIGNMENT((#218));
#207=PRESENTATION_STYLE_ASSIGNMENT((#219));
#208=PRESENTATION_STYLE_ASSIGNMENT((#220));
#209=PRESENTATION_STYLE_ASSIGNMENT((#221));
#210=SURFACE_STYLE_USAGE(.BOTH.,#222);
#211=SURFACE_STYLE_USAGE(.BOTH.,#223);
#212=SURFACE_STYLE_USAGE(.BOTH.,#224);
#213=SURFACE_STYLE_USAGE(.BOTH.,#225);
#214=SURFACE_STYLE_USAGE(.BOTH.,#226);
#215=SURFACE_STYLE_USAGE(.BOTH.,#227);
#216=SURFACE_STYLE_USAGE(.BOTH.,#228);
#217=SURFACE_STYLE_USAGE(.BOTH.,#229);
#218=SURFACE_STYLE_USAGE(.BOTH.,#230);
#219=SURFACE_STYLE_USAGE(.BOTH.,#231);
#220=SURFACE_STYLE_USAGE(.BOTH.,#232);
#221=SURFACE_STYLE_USAGE(.BOTH.,#233);
#222=SURFACE_SIDE_STYLE('',(#234));
#223=SURFACE_SIDE_STYLE('',(#235));
#224=SURFACE_SIDE_STYLE('',(#236));
#225=SURFACE_SIDE_STYLE('',(#237));
#226=SURFACE_SIDE_STYLE('',(#238));
#227=SURFACE_SIDE_STYLE('',(#239));
#228=SURFACE_SIDE_STYLE('',(#240));
#229=SURFACE_SIDE_STYLE('',(#241));
#230=SURFACE_SIDE_STYLE('',(#242));
#231=SURFACE_SIDE_STYLE('',(#243));
#232=SURFACE_SIDE_STYLE('',(#244));
#233=SURFACE_SIDE_STYLE('',(#245));
#234=SURFACE_STYLE_FILL_AREA(#246);
#235=SURFACE_STYLE_FILL_AREA(#247);
#236=SURFACE_STYLE_FILL_AREA(#248);
#237=SURFACE_STYLE_FILL_AREA(#249);
#238=SURFACE_STYLE_FILL_AREA(#250);
#239=SURFACE_STYLE_FILL_AREA(#251);
#240=SURFACE_STYLE_FILL_AREA(#252);
#241=SURFACE_STYLE_FILL_AREA(#253);
#242=SURFACE_STYLE_FILL_AREA(#254);
#243=SURFACE_STYLE_FILL_AREA(#255);
#244=SURFACE_STYLE_FILL_AREA(#256);
#245=SURFACE_STYLE_FILL_AREA(#257);
#246=FILL_AREA_STYLE('',(#258));
#247=FILL_AREA_STYLE('',(#259));
#248=FILL_AREA_STYLE('',(#260));
#249=FILL_AREA_STYLE('',(#261));
#250=FILL_AREA_STYLE('',(#262));
#251=FILL_AREA_STYLE('',(#263));
#252=FILL_AREA_STYLE('',(#264));
#253=FILL_AREA_STYLE('',(#265));
#254=FILL_AREA_STYLE('',(#266));
#255=FILL_AREA_STYLE('',(#267));
#256=FILL_AREA_STYLE('',(#268));
#257=FILL_AREA_STYLE('',(#269));
#258=FILL_AREA_STYLE_COLOUR('',#270);
#259=FILL_AREA_STYLE_COLOUR('',#270);
#260=FILL_AREA_STYLE_COLOUR('',#270);
#261=FILL_AREA_STYLE_COLOUR('',#271);
#262=FILL_AREA_STYLE_COLOUR('',#270);
#263=FILL_AREA_STYLE_COLOUR('',#270);
#264=FILL_AREA_STYLE_COLOUR('',#270);
#265=FILL_AREA_STYLE_COLOUR('',#270);
#266=FILL_AREA_STYLE_COLOUR('',#270);
#267=FILL_AREA_STYLE_COLOUR('',#270);
#268=FILL_AREA_STYLE_COLOUR('',#270);
#269=FILL_AREA_STYLE_COLOUR('',#270);
#270=COLOUR_RGB('',0.506983280181885,0.531564235687256,0.550000011920929);
#271=COLOUR_RGB('',0.1875,0.75,0.581249892711639);
#272=ADVANCED_FACE('',(#161,#162),#177,.T.);
#273=ADVANCED_FACE('',(#163,#164),#21,.T.);
#274=ADVANCED_FACE('',(#165),#178,.T.);
#275=ADVANCED_FACE('',(#166,#167),#20,.T.);
#276=ADVANCED_FACE('',(#168,#169),#22,.T.);
#277=ADVANCED_FACE('',(#170),#179,.T.);
#278=ADVANCED_FACE('',(#171),#180,.T.);
#279=ADVANCED_FACE('',(#172),#181,.T.);
#280=ADVANCED_FACE('',(#173),#182,.T.);
#281=ADVANCED_FACE('',(#174),#183,.T.);
#282=ADVANCED_FACE('',(#175),#184,.T.);
#283=ADVANCED_FACE('',(#176),#185,.F.);
#284=CLOSED_SHELL('',(#272,#273,#274,#275,#276,#277,#278,#279,#280,#281,
#282,#283));
#285=MANIFOLD_SOLID_BREP('',#284);
#286=SHAPE_DEFINITION_REPRESENTATION(#414,#287);
#287=SHAPE_REPRESENTATION('\X2\5185516D89D295257AEF7D275B9A87BA9489\X0\',
(#288),#409);
#288=AXIS2_PLACEMENT_3D('',#357,#305,#306);
#289=AXIS2_PLACEMENT_3D('',#358,#307,#308);
#290=AXIS2_PLACEMENT_3D('',#359,#309,#310);
#291=AXIS2_PLACEMENT_3D('',#373,#317,#318);
#292=AXIS2_PLACEMENT_3D('',#374,#319,#320);
#293=AXIS2_PLACEMENT_3D('',#376,#321,#322);
#294=AXIS2_PLACEMENT_3D('',#378,#323,#324);
#295=AXIS2_PLACEMENT_3D('',#379,#325,#326);
#296=AXIS2_PLACEMENT_3D('',#380,#327,#328);
#297=AXIS2_PLACEMENT_3D('',#382,#329,#330);
#298=AXIS2_PLACEMENT_3D('',#383,#331,#332);
#299=AXIS2_PLACEMENT_3D('',#389,#336,#337);
#300=AXIS2_PLACEMENT_3D('',#393,#340,#341);
#301=AXIS2_PLACEMENT_3D('',#397,#344,#345);
#302=AXIS2_PLACEMENT_3D('',#401,#348,#349);
#303=AXIS2_PLACEMENT_3D('',#405,#352,#353);
#304=AXIS2_PLACEMENT_3D('',#407,#355,#356);
#305=DIRECTION('',(0.,0.,1.));
#306=DIRECTION('',(1.,0.,0.));
#307=DIRECTION('',(-1.,0.,0.));
#308=DIRECTION('',(0.,0.,1.));
#309=DIRECTION('',(-1.,0.,0.));
#310=DIRECTION('',(0.,0.,1.));
#311=DIRECTION('',(0.,0.,1.));
#312=DIRECTION('',(-5.30270106023006E-17,-0.866025403784438,0.500000000000001));
#313=DIRECTION('',(-5.30270106023006E-17,-0.866025403784438,-0.500000000000001));
#314=DIRECTION('',(-1.64262857415504E-32,-2.68270464060207E-16,-1.));
#315=DIRECTION('',(5.30270106023006E-17,0.866025403784438,-0.500000000000002));
#316=DIRECTION('',(5.30270106023007E-17,0.866025403784439,0.5));
#317=DIRECTION('',(-1.,0.,0.));
#318=DIRECTION('',(0.,0.,1.));
#319=DIRECTION('',(-1.,0.,0.));
#320=DIRECTION('',(0.,0.,1.));
#321=DIRECTION('',(-1.,0.,0.));
#322=DIRECTION('',(0.,0.,1.));
#323=DIRECTION('',(1.,0.,0.));
#324=DIRECTION('',(0.,0.,-1.));
#325=DIRECTION('',(-1.,0.,0.));
#326=DIRECTION('',(0.,0.,1.));
#327=DIRECTION('',(-1.,0.,0.));
#328=DIRECTION('',(0.,0.,1.));
#329=DIRECTION('',(1.,0.,0.));
#330=DIRECTION('',(0.,0.,-1.));
#331=DIRECTION('',(0.,-0.500000000000001,-0.866025403784438));
#332=DIRECTION('',(0.,0.866025403784438,-0.500000000000001));
#333=DIRECTION('',(-1.,0.,0.));
#334=DIRECTION('',(-5.30270106023006E-17,-0.866025403784438,0.500000000000001));
#335=DIRECTION('',(-1.,0.,0.));
#336=DIRECTION('',(0.,0.500000000000001,-0.866025403784438));
#337=DIRECTION('',(0.,0.866025403784438,0.500000000000001));
#338=DIRECTION('',(-5.30270106023006E-17,-0.866025403784438,-0.500000000000001));
#339=DIRECTION('',(-1.,0.,0.));
#340=DIRECTION('',(0.,1.,-2.68270464060207E-16));
#341=DIRECTION('',(0.,2.68270464060207E-16,1.));
#342=DIRECTION('',(-1.64262857415504E-32,-2.68270464060207E-16,-1.));
#343=DIRECTION('',(-1.,0.,0.));
#344=DIRECTION('',(0.,0.500000000000001,0.866025403784438));
#345=DIRECTION('',(0.,-0.866025403784438,0.500000000000002));
#346=DIRECTION('',(5.30270106023006E-17,0.866025403784438,-0.500000000000002));
#347=DIRECTION('',(-1.,0.,0.));
#348=DIRECTION('',(0.,-0.5,0.866025403784439));
#349=DIRECTION('',(0.,-0.866025403784439,-0.5));
#350=DIRECTION('',(5.30270106023007E-17,0.866025403784439,0.5));
#351=DIRECTION('',(-1.,0.,0.));
#352=DIRECTION('',(0.,-1.,0.));
#353=DIRECTION('',(0.,0.,-1.));
#354=DIRECTION('',(0.,0.,1.));
#355=DIRECTION('',(1.,-6.12303176911189E-17,0.));
#356=DIRECTION('',(6.12303176911189E-17,1.,0.));
#357=CARTESIAN_POINT('',(0.,0.,0.));
#358=CARTESIAN_POINT('',(0.,0.,0.));
#359=CARTESIAN_POINT('',(0.,0.,0.));
#360=CARTESIAN_POINT('',(0.,0.,0.750000000000001));
#361=CARTESIAN_POINT('',(2.14306111918916E-17,0.35,-0.202072594216369));
#362=CARTESIAN_POINT('',(2.14306111918916E-17,0.35,-0.202072594216369));
#363=CARTESIAN_POINT('',(0.,0.35,0.202072594216369));
#364=CARTESIAN_POINT('',(2.14306111918916E-17,0.35,0.202072594216369));
#365=CARTESIAN_POINT('',(0.,0.,0.404145188432738));
#366=CARTESIAN_POINT('',(0.,0.,0.404145188432738));
#367=CARTESIAN_POINT('',(-2.14306111918916E-17,-0.35,0.202072594216369));
#368=CARTESIAN_POINT('',(-2.14306111918916E-17,-0.35,0.202072594216369));
#369=CARTESIAN_POINT('',(-2.14306111918916E-17,-0.35,-0.202072594216369));
#370=CARTESIAN_POINT('',(-2.14306111918916E-17,-0.35,-0.202072594216369));
#371=CARTESIAN_POINT('',(-4.51389830715758E-32,-7.04731412115578E-16,-0.404145188432738));
#372=CARTESIAN_POINT('',(-4.75624450729782E-32,-7.7677932871279E-16,-0.404145188432738));
#373=CARTESIAN_POINT('',(2.65358983848622,0.,0.));
#374=CARTESIAN_POINT('',(3.,0.,0.));
#375=CARTESIAN_POINT('',(3.,0.,0.2));
#376=CARTESIAN_POINT('',(2.65358983848622,0.,0.));
#377=CARTESIAN_POINT('',(2.65358983848622,0.,0.8));
#378=CARTESIAN_POINT('',(3.,0.,0.2));
#379=CARTESIAN_POINT('',(2.,0.,0.));
#380=CARTESIAN_POINT('',(0.0499999999999999,0.,0.));
#381=CARTESIAN_POINT('',(0.0499999999999999,0.,0.800000000000001));
#382=CARTESIAN_POINT('',(0.,0.,0.));
#383=CARTESIAN_POINT('',(0.7,0.35,0.202072594216369));
#384=CARTESIAN_POINT('',(0.7,0.35,0.202072594216369));
#385=CARTESIAN_POINT('',(0.7,0.35,0.202072594216369));
#386=CARTESIAN_POINT('',(0.7,0.35,0.202072594216369));
#387=CARTESIAN_POINT('',(0.7,0.,0.404145188432738));
#388=CARTESIAN_POINT('',(0.7,0.,0.404145188432738));
#389=CARTESIAN_POINT('',(0.7,0.,0.404145188432738));
#390=CARTESIAN_POINT('',(0.7,0.,0.404145188432738));
#391=CARTESIAN_POINT('',(0.7,-0.35,0.202072594216369));
#392=CARTESIAN_POINT('',(0.7,-0.35,0.202072594216369));
#393=CARTESIAN_POINT('',(0.7,-0.35,0.202072594216369));
#394=CARTESIAN_POINT('',(0.7,-0.35,0.202072594216369));
#395=CARTESIAN_POINT('',(0.7,-0.35,-0.202072594216369));
#396=CARTESIAN_POINT('',(0.7,-0.35,-0.202072594216369));
#397=CARTESIAN_POINT('',(0.7,-0.35,-0.202072594216369));
#398=CARTESIAN_POINT('',(0.7,-0.35,-0.202072594216369));
#399=CARTESIAN_POINT('',(0.7,-7.04731412115578E-16,-0.404145188432738));
#400=CARTESIAN_POINT('',(0.7,-7.04731412115578E-16,-0.404145188432738));
#401=CARTESIAN_POINT('',(0.7,-7.7677932871279E-16,-0.404145188432738));
#402=CARTESIAN_POINT('',(0.7,-7.7677932871279E-16,-0.404145188432738));
#403=CARTESIAN_POINT('',(0.7,0.35,-0.202072594216369));
#404=CARTESIAN_POINT('',(0.7,0.35,-0.202072594216369));
#405=CARTESIAN_POINT('',(0.7,0.35,-0.202072594216369));
#406=CARTESIAN_POINT('',(0.7,0.35,-0.202072594216369));
#407=CARTESIAN_POINT('',(0.7,0.,0.));
#408=MECHANICAL_DESIGN_GEOMETRIC_PRESENTATION_REPRESENTATION('',(#186,#187,
#188,#189,#190,#191,#192,#193,#194,#195,#196,#197),#409);
#409=(
GEOMETRIC_REPRESENTATION_CONTEXT(3)
GLOBAL_UNCERTAINTY_ASSIGNED_CONTEXT((#410))
GLOBAL_UNIT_ASSIGNED_CONTEXT((#413,#412,#411))
REPRESENTATION_CONTEXT('\X2\5185516D89D295257AEF7D275B9A87BA9489\X0\',
'TOP_LEVEL_ASSEMBLY_PART')
);
#410=UNCERTAINTY_MEASURE_WITH_UNIT(LENGTH_MEASURE(0.005),#413,
'DISTANCE_ACCURACY_VALUE','Maximum Tolerance applied to model');
#411=(
NAMED_UNIT(*)
SI_UNIT($,.STERADIAN.)
SOLID_ANGLE_UNIT()
);
#412=(
NAMED_UNIT(*)
PLANE_ANGLE_UNIT()
SI_UNIT($,.RADIAN.)
);
#413=(
LENGTH_UNIT()
NAMED_UNIT(*)
SI_UNIT(.MILLI.,.METRE.)
);
#414=PRODUCT_DEFINITION_SHAPE('','',#415);
#415=PRODUCT_DEFINITION('','',#417,#416);
#416=PRODUCT_DEFINITION_CONTEXT('',#423,'design');
#417=PRODUCT_DEFINITION_FORMATION_WITH_SPECIFIED_SOURCE('','',#419,
 .NOT_KNOWN.);
#418=PRODUCT_RELATED_PRODUCT_CATEGORY('','',(#419));
#419=PRODUCT('\X2\5185516D89D295257AEF7D275B9A87BA9489\X0\',
'\X2\5185516D89D295257AEF7D275B9A87BA9489\X0\',
'\X2\5185516D89D295257AEF7D275B9A87BA9489\X0\',(#421));
#420=PRODUCT_CATEGORY('','');
#421=PRODUCT_CONTEXT('',#423,'mechanical');
#422=APPLICATION_PROTOCOL_DEFINITION('international standard',
'automotive_design',2010,#423);
#423=APPLICATION_CONTEXT(
'core data for automotive mechanical design processes');
ENDSEC;
END-ISO-10303-21;
