ISO-10303-21;
HEADER;
/* Generated by software containing HOOPS Exchange Step
 * from HOOPS Exchange, Inc. (www.tiangong.cloud) 
 */

FILE_DESCRIPTION(
/* description */ ('Unknown'),
/* implementation_level */ '2;1');

FILE_NAME(
/* name */ '\X2\5F0069FD570667F1593487BA9489\X0\',
/* time_stamp */ '2025-06-19T19:19:48+08:00',
/* author */ ('Unknown'),
/* organization */ ('Unknown'),
/* preprocessor_version */ 'ST-DEVELOPER v19.4',
/* originating_system */ 'TianGong',
/* authorisation */ 'Unknown');

FILE_SCHEMA (('AUTOMOTIVE_DESIGN {1 0 10303 214 3 1 1}'));
ENDSEC;

DATA;
#10=PROPERTY_DEFINITION_REPRESENTATION(#14,#12);
#11=PROPERTY_DEFINITION_REPRESENTATION(#15,#13);
#12=REPRESENTATION('',(#16),#450);
#13=REPRESENTATION('',(#17),#450);
#14=PROPERTY_DEFINITION('pmi validation property','',#455);
#15=PROPERTY_DEFINITION('pmi validation property','',#455);
#16=VALUE_REPRESENTATION_ITEM('number of annotations',COUNT_MEASURE(0.));
#17=VALUE_REPRESENTATION_ITEM('number of views',COUNT_MEASURE(0.));
#18=SHAPE_REPRESENTATION_RELATIONSHIP('','',#291,#19);
#19=ADVANCED_BREP_SHAPE_REPRESENTATION('',(#289),#450);
#20=CYLINDRICAL_SURFACE('',#305,0.8);
#21=CONICAL_SURFACE('',#299,1.40376247012148,0.0872664625997162);
#22=CONICAL_SURFACE('',#313,0.901325030024024,0.162970339750882);
#23=B_SPLINE_CURVE_WITH_KNOTS('',3,(#378,#379,#380,#381),.UNSPECIFIED.,
 .F.,.F.,(4,4),(0.000571853574968746,0.000720230373770997),
 .UNSPECIFIED.);
#24=B_SPLINE_CURVE_WITH_KNOTS('',3,(#385,#386,#387,#388),.UNSPECIFIED.,
 .F.,.F.,(4,4),(0.000370940031746094,0.000519457791968776),
 .UNSPECIFIED.);
#25=B_SPLINE_CURVE_WITH_KNOTS('',3,(#395,#396,#397,#398),.UNSPECIFIED.,
 .F.,.F.,(4,4),(0.00154849319026364,0.00190860638767623),.UNSPECIFIED.);
#26=B_SPLINE_CURVE_WITH_KNOTS('',3,(#402,#403,#404,#405),.UNSPECIFIED.,
 .F.,.F.,(4,4),(0.00154852152101584,0.00190863471769025),.UNSPECIFIED.);
#27=B_SPLINE_CURVE_WITH_KNOTS('',3,(#409,#410,#411,#412),.UNSPECIFIED.,
 .F.,.F.,(4,4),(0.0015485215210167,0.00190863471769025),.UNSPECIFIED.);
#28=B_SPLINE_CURVE_WITH_KNOTS('',3,(#416,#417,#418,#419),.UNSPECIFIED.,
 .F.,.F.,(4,4),(0.00154849319026364,0.00190860638767623),.UNSPECIFIED.);
#29=B_SPLINE_CURVE_WITH_KNOTS('',3,(#423,#424,#425,#426),.UNSPECIFIED.,
 .F.,.F.,(4,4),(0.000537798391507379,0.000686243177451659),
 .UNSPECIFIED.);
#30=B_SPLINE_CURVE_WITH_KNOTS('',3,(#427,#428,#429,#430),.UNSPECIFIED.,
 .F.,.F.,(4,4),(0.000109618340753997,0.000258194398807715),
 .UNSPECIFIED.);
#31=TOROIDAL_SURFACE('',#295,1.31212935271974,0.1);
#32=TOROIDAL_SURFACE('',#304,1.31212935271974,0.1);
#33=TOROIDAL_SURFACE('',#311,1.,0.1);
#34=CIRCLE('',#294,1.31212935271974);
#35=CIRCLE('',#296,1.41174882252892);
#36=CIRCLE('',#298,1.31212935271974);
#37=CIRCLE('',#300,1.44313236870815);
#38=CIRCLE('',#301,1.41174882252892);
#39=CIRCLE('',#302,1.44313236870815);
#40=CIRCLE('',#303,1.5);
#41=CIRCLE('',#306,0.8);
#42=CIRCLE('',#307,0.8);
#43=CIRCLE('',#310,1.);
#44=CIRCLE('',#312,0.901325030024024);
#45=ORIENTED_EDGE('',*,*,#91,.T.);
#46=ORIENTED_EDGE('',*,*,#92,.T.);
#47=ORIENTED_EDGE('',*,*,#93,.F.);
#48=ORIENTED_EDGE('',*,*,#94,.F.);
#49=ORIENTED_EDGE('',*,*,#95,.T.);
#50=ORIENTED_EDGE('',*,*,#92,.F.);
#51=ORIENTED_EDGE('',*,*,#96,.T.);
#52=ORIENTED_EDGE('',*,*,#97,.F.);
#53=ORIENTED_EDGE('',*,*,#98,.F.);
#54=ORIENTED_EDGE('',*,*,#99,.F.);
#55=ORIENTED_EDGE('',*,*,#100,.F.);
#56=ORIENTED_EDGE('',*,*,#101,.T.);
#57=ORIENTED_EDGE('',*,*,#102,.T.);
#58=ORIENTED_EDGE('',*,*,#103,.T.);
#59=ORIENTED_EDGE('',*,*,#104,.T.);
#60=ORIENTED_EDGE('',*,*,#94,.T.);
#61=ORIENTED_EDGE('',*,*,#105,.T.);
#62=ORIENTED_EDGE('',*,*,#106,.F.);
#63=ORIENTED_EDGE('',*,*,#96,.F.);
#64=ORIENTED_EDGE('',*,*,#107,.T.);
#65=ORIENTED_EDGE('',*,*,#101,.F.);
#66=ORIENTED_EDGE('',*,*,#108,.T.);
#67=ORIENTED_EDGE('',*,*,#109,.F.);
#68=ORIENTED_EDGE('',*,*,#108,.F.);
#69=ORIENTED_EDGE('',*,*,#110,.T.);
#70=ORIENTED_EDGE('',*,*,#105,.F.);
#71=ORIENTED_EDGE('',*,*,#111,.T.);
#72=ORIENTED_EDGE('',*,*,#110,.F.);
#73=ORIENTED_EDGE('',*,*,#109,.T.);
#74=ORIENTED_EDGE('',*,*,#111,.F.);
#75=ORIENTED_EDGE('',*,*,#112,.T.);
#76=ORIENTED_EDGE('',*,*,#99,.T.);
#77=ORIENTED_EDGE('',*,*,#113,.F.);
#78=ORIENTED_EDGE('',*,*,#103,.F.);
#79=ORIENTED_EDGE('',*,*,#113,.T.);
#80=ORIENTED_EDGE('',*,*,#98,.T.);
#81=ORIENTED_EDGE('',*,*,#93,.T.);
#82=ORIENTED_EDGE('',*,*,#91,.F.);
#83=ORIENTED_EDGE('',*,*,#95,.F.);
#84=ORIENTED_EDGE('',*,*,#104,.F.);
#85=ORIENTED_EDGE('',*,*,#107,.F.);
#86=ORIENTED_EDGE('',*,*,#97,.T.);
#87=ORIENTED_EDGE('',*,*,#106,.T.);
#88=ORIENTED_EDGE('',*,*,#100,.T.);
#89=ORIENTED_EDGE('',*,*,#112,.F.);
#90=ORIENTED_EDGE('',*,*,#102,.F.);
#91=EDGE_CURVE('',#114,#115,#131,.T.);
#92=EDGE_CURVE('',#115,#114,#34,.T.);
#93=EDGE_CURVE('',#116,#115,#23,.T.);
#94=EDGE_CURVE('',#117,#116,#35,.F.);
#95=EDGE_CURVE('',#117,#114,#24,.T.);
#96=EDGE_CURVE('',#118,#119,#36,.T.);
#97=EDGE_CURVE('',#118,#119,#132,.T.);
#98=EDGE_CURVE('',#120,#116,#25,.T.);
#99=EDGE_CURVE('',#121,#120,#37,.F.);
#100=EDGE_CURVE('',#122,#121,#26,.T.);
#101=EDGE_CURVE('',#122,#123,#38,.F.);
#102=EDGE_CURVE('',#123,#124,#27,.T.);
#103=EDGE_CURVE('',#124,#125,#39,.F.);
#104=EDGE_CURVE('',#125,#117,#28,.T.);
#105=EDGE_CURVE('',#126,#126,#40,.T.);
#106=EDGE_CURVE('',#119,#122,#29,.T.);
#107=EDGE_CURVE('',#118,#123,#30,.T.);
#108=EDGE_CURVE('',#127,#127,#41,.T.);
#109=EDGE_CURVE('',#128,#128,#42,.T.);
#110=EDGE_CURVE('',#129,#129,#43,.T.);
#111=EDGE_CURVE('',#130,#130,#44,.T.);
#112=EDGE_CURVE('',#124,#121,#133,.T.);
#113=EDGE_CURVE('',#125,#120,#134,.T.);
#114=VERTEX_POINT('',#374);
#115=VERTEX_POINT('',#375);
#116=VERTEX_POINT('',#382);
#117=VERTEX_POINT('',#384);
#118=VERTEX_POINT('',#391);
#119=VERTEX_POINT('',#392);
#120=VERTEX_POINT('',#399);
#121=VERTEX_POINT('',#401);
#122=VERTEX_POINT('',#406);
#123=VERTEX_POINT('',#408);
#124=VERTEX_POINT('',#413);
#125=VERTEX_POINT('',#415);
#126=VERTEX_POINT('',#421);
#127=VERTEX_POINT('',#433);
#128=VERTEX_POINT('',#435);
#129=VERTEX_POINT('',#439);
#130=VERTEX_POINT('',#442);
#131=LINE('',#373,#135);
#132=LINE('',#393,#136);
#133=LINE('',#445,#137);
#134=LINE('',#446,#138);
#135=VECTOR('',#321,1000.);
#136=VECTOR('',#332,1000.);
#137=VECTOR('',#365,1000.);
#138=VECTOR('',#366,1000.);
#139=EDGE_LOOP('',(#45,#46));
#140=EDGE_LOOP('',(#47,#48,#49,#50));
#141=EDGE_LOOP('',(#51,#52));
#142=EDGE_LOOP('',(#53,#54,#55,#56,#57,#58,#59,#60));
#143=EDGE_LOOP('',(#61));
#144=EDGE_LOOP('',(#62,#63,#64,#65));
#145=EDGE_LOOP('',(#66));
#146=EDGE_LOOP('',(#67));
#147=EDGE_LOOP('',(#68));
#148=EDGE_LOOP('',(#69));
#149=EDGE_LOOP('',(#70));
#150=EDGE_LOOP('',(#71));
#151=EDGE_LOOP('',(#72));
#152=EDGE_LOOP('',(#73));
#153=EDGE_LOOP('',(#74));
#154=EDGE_LOOP('',(#75,#76,#77,#78));
#155=EDGE_LOOP('',(#79,#80,#81,#82,#83,#84));
#156=EDGE_LOOP('',(#85,#86,#87,#88,#89,#90));
#157=FACE_BOUND('',#139,.T.);
#158=FACE_BOUND('',#140,.T.);
#159=FACE_BOUND('',#141,.T.);
#160=FACE_BOUND('',#142,.T.);
#161=FACE_BOUND('',#143,.T.);
#162=FACE_BOUND('',#144,.T.);
#163=FACE_BOUND('',#145,.T.);
#164=FACE_BOUND('',#146,.T.);
#165=FACE_BOUND('',#147,.T.);
#166=FACE_BOUND('',#148,.T.);
#167=FACE_BOUND('',#149,.T.);
#168=FACE_BOUND('',#150,.T.);
#169=FACE_BOUND('',#151,.T.);
#170=FACE_BOUND('',#152,.T.);
#171=FACE_BOUND('',#153,.T.);
#172=FACE_BOUND('',#154,.T.);
#173=FACE_BOUND('',#155,.T.);
#174=FACE_BOUND('',#156,.T.);
#175=PLANE('',#293);
#176=PLANE('',#297);
#177=PLANE('',#308);
#178=PLANE('',#309);
#179=PLANE('',#314);
#180=PLANE('',#315);
#181=PLANE('',#316);
#182=STYLED_ITEM('',(#195),#275);
#183=STYLED_ITEM('',(#196),#276);
#184=STYLED_ITEM('',(#197),#277);
#185=STYLED_ITEM('',(#198),#278);
#186=STYLED_ITEM('',(#199),#279);
#187=STYLED_ITEM('',(#200),#280);
#188=STYLED_ITEM('',(#201),#281);
#189=STYLED_ITEM('',(#202),#282);
#190=STYLED_ITEM('',(#203),#283);
#191=STYLED_ITEM('',(#204),#284);
#192=STYLED_ITEM('',(#205),#285);
#193=STYLED_ITEM('',(#206),#286);
#194=STYLED_ITEM('',(#207),#287);
#195=PRESENTATION_STYLE_ASSIGNMENT((#208));
#196=PRESENTATION_STYLE_ASSIGNMENT((#209));
#197=PRESENTATION_STYLE_ASSIGNMENT((#210));
#198=PRESENTATION_STYLE_ASSIGNMENT((#211));
#199=PRESENTATION_STYLE_ASSIGNMENT((#212));
#200=PRESENTATION_STYLE_ASSIGNMENT((#213));
#201=PRESENTATION_STYLE_ASSIGNMENT((#214));
#202=PRESENTATION_STYLE_ASSIGNMENT((#215));
#203=PRESENTATION_STYLE_ASSIGNMENT((#216));
#204=PRESENTATION_STYLE_ASSIGNMENT((#217));
#205=PRESENTATION_STYLE_ASSIGNMENT((#218));
#206=PRESENTATION_STYLE_ASSIGNMENT((#219));
#207=PRESENTATION_STYLE_ASSIGNMENT((#220));
#208=SURFACE_STYLE_USAGE(.BOTH.,#221);
#209=SURFACE_STYLE_USAGE(.BOTH.,#222);
#210=SURFACE_STYLE_USAGE(.BOTH.,#223);
#211=SURFACE_STYLE_USAGE(.BOTH.,#224);
#212=SURFACE_STYLE_USAGE(.BOTH.,#225);
#213=SURFACE_STYLE_USAGE(.BOTH.,#226);
#214=SURFACE_STYLE_USAGE(.BOTH.,#227);
#215=SURFACE_STYLE_USAGE(.BOTH.,#228);
#216=SURFACE_STYLE_USAGE(.BOTH.,#229);
#217=SURFACE_STYLE_USAGE(.BOTH.,#230);
#218=SURFACE_STYLE_USAGE(.BOTH.,#231);
#219=SURFACE_STYLE_USAGE(.BOTH.,#232);
#220=SURFACE_STYLE_USAGE(.BOTH.,#233);
#221=SURFACE_SIDE_STYLE('',(#234));
#222=SURFACE_SIDE_STYLE('',(#235));
#223=SURFACE_SIDE_STYLE('',(#236));
#224=SURFACE_SIDE_STYLE('',(#237));
#225=SURFACE_SIDE_STYLE('',(#238));
#226=SURFACE_SIDE_STYLE('',(#239));
#227=SURFACE_SIDE_STYLE('',(#240));
#228=SURFACE_SIDE_STYLE('',(#241));
#229=SURFACE_SIDE_STYLE('',(#242));
#230=SURFACE_SIDE_STYLE('',(#243));
#231=SURFACE_SIDE_STYLE('',(#244));
#232=SURFACE_SIDE_STYLE('',(#245));
#233=SURFACE_SIDE_STYLE('',(#246));
#234=SURFACE_STYLE_FILL_AREA(#247);
#235=SURFACE_STYLE_FILL_AREA(#248);
#236=SURFACE_STYLE_FILL_AREA(#249);
#237=SURFACE_STYLE_FILL_AREA(#250);
#238=SURFACE_STYLE_FILL_AREA(#251);
#239=SURFACE_STYLE_FILL_AREA(#252);
#240=SURFACE_STYLE_FILL_AREA(#253);
#241=SURFACE_STYLE_FILL_AREA(#254);
#242=SURFACE_STYLE_FILL_AREA(#255);
#243=SURFACE_STYLE_FILL_AREA(#256);
#244=SURFACE_STYLE_FILL_AREA(#257);
#245=SURFACE_STYLE_FILL_AREA(#258);
#246=SURFACE_STYLE_FILL_AREA(#259);
#247=FILL_AREA_STYLE('',(#260));
#248=FILL_AREA_STYLE('',(#261));
#249=FILL_AREA_STYLE('',(#262));
#250=FILL_AREA_STYLE('',(#263));
#251=FILL_AREA_STYLE('',(#264));
#252=FILL_AREA_STYLE('',(#265));
#253=FILL_AREA_STYLE('',(#266));
#254=FILL_AREA_STYLE('',(#267));
#255=FILL_AREA_STYLE('',(#268));
#256=FILL_AREA_STYLE('',(#269));
#257=FILL_AREA_STYLE('',(#270));
#258=FILL_AREA_STYLE('',(#271));
#259=FILL_AREA_STYLE('',(#272));
#260=FILL_AREA_STYLE_COLOUR('',#273);
#261=FILL_AREA_STYLE_COLOUR('',#273);
#262=FILL_AREA_STYLE_COLOUR('',#273);
#263=FILL_AREA_STYLE_COLOUR('',#273);
#264=FILL_AREA_STYLE_COLOUR('',#273);
#265=FILL_AREA_STYLE_COLOUR('',#274);
#266=FILL_AREA_STYLE_COLOUR('',#273);
#267=FILL_AREA_STYLE_COLOUR('',#273);
#268=FILL_AREA_STYLE_COLOUR('',#273);
#269=FILL_AREA_STYLE_COLOUR('',#273);
#270=FILL_AREA_STYLE_COLOUR('',#273);
#271=FILL_AREA_STYLE_COLOUR('',#273);
#272=FILL_AREA_STYLE_COLOUR('',#273);
#273=COLOUR_RGB('',0.506983280181885,0.531564235687256,0.550000011920929);
#274=COLOUR_RGB('',0.1875,0.75,0.581249892711639);
#275=ADVANCED_FACE('',(#157),#175,.T.);
#276=ADVANCED_FACE('',(#158),#31,.T.);
#277=ADVANCED_FACE('',(#159),#176,.T.);
#278=ADVANCED_FACE('',(#160,#161),#21,.T.);
#279=ADVANCED_FACE('',(#162),#32,.T.);
#280=ADVANCED_FACE('',(#163,#164),#20,.T.);
#281=ADVANCED_FACE('',(#165),#177,.T.);
#282=ADVANCED_FACE('',(#166,#167),#178,.T.);
#283=ADVANCED_FACE('',(#168,#169),#33,.F.);
#284=ADVANCED_FACE('',(#170,#171),#22,.T.);
#285=ADVANCED_FACE('',(#172),#179,.T.);
#286=ADVANCED_FACE('',(#173),#180,.T.);
#287=ADVANCED_FACE('',(#174),#181,.T.);
#288=CLOSED_SHELL('',(#275,#276,#277,#278,#279,#280,#281,#282,#283,#284,
#285,#286,#287));
#289=MANIFOLD_SOLID_BREP('',#288);
#290=SHAPE_DEFINITION_REPRESENTATION(#455,#291);
#291=SHAPE_REPRESENTATION('\X2\5F0069FD570667F1593487BA9489\X0\',(#292),
#450);
#292=AXIS2_PLACEMENT_3D('',#371,#317,#318);
#293=AXIS2_PLACEMENT_3D('',#372,#319,#320);
#294=AXIS2_PLACEMENT_3D('',#376,#322,#323);
#295=AXIS2_PLACEMENT_3D('',#377,#324,#325);
#296=AXIS2_PLACEMENT_3D('',#383,#326,#327);
#297=AXIS2_PLACEMENT_3D('',#389,#328,#329);
#298=AXIS2_PLACEMENT_3D('',#390,#330,#331);
#299=AXIS2_PLACEMENT_3D('',#394,#333,#334);
#300=AXIS2_PLACEMENT_3D('',#400,#335,#336);
#301=AXIS2_PLACEMENT_3D('',#407,#337,#338);
#302=AXIS2_PLACEMENT_3D('',#414,#339,#340);
#303=AXIS2_PLACEMENT_3D('',#420,#341,#342);
#304=AXIS2_PLACEMENT_3D('',#422,#343,#344);
#305=AXIS2_PLACEMENT_3D('',#431,#345,#346);
#306=AXIS2_PLACEMENT_3D('',#432,#347,#348);
#307=AXIS2_PLACEMENT_3D('',#434,#349,#350);
#308=AXIS2_PLACEMENT_3D('',#436,#351,#352);
#309=AXIS2_PLACEMENT_3D('',#437,#353,#354);
#310=AXIS2_PLACEMENT_3D('',#438,#355,#356);
#311=AXIS2_PLACEMENT_3D('',#440,#357,#358);
#312=AXIS2_PLACEMENT_3D('',#441,#359,#360);
#313=AXIS2_PLACEMENT_3D('',#443,#361,#362);
#314=AXIS2_PLACEMENT_3D('',#444,#363,#364);
#315=AXIS2_PLACEMENT_3D('',#447,#367,#368);
#316=AXIS2_PLACEMENT_3D('',#448,#369,#370);
#317=DIRECTION('',(0.,0.,1.));
#318=DIRECTION('',(1.,0.,0.));
#319=DIRECTION('',(-1.,0.,0.));
#320=DIRECTION('',(0.,0.,1.));
#321=DIRECTION('',(0.,-1.,0.));
#322=DIRECTION('',(-1.,0.,0.));
#323=DIRECTION('',(0.,0.,1.));
#324=DIRECTION('',(-1.,0.,0.));
#325=DIRECTION('',(0.,0.,1.));
#326=DIRECTION('',(-1.,0.,0.));
#327=DIRECTION('',(0.,0.,1.));
#328=DIRECTION('',(-1.,0.,0.));
#329=DIRECTION('',(0.,0.,1.));
#330=DIRECTION('',(-1.,0.,0.));
#331=DIRECTION('',(0.,0.,1.));
#332=DIRECTION('',(0.,-1.,0.));
#333=DIRECTION('',(1.,0.,0.));
#334=DIRECTION('',(0.,0.,-1.));
#335=DIRECTION('',(1.,0.,0.));
#336=DIRECTION('',(0.,0.,-1.));
#337=DIRECTION('',(-1.,0.,0.));
#338=DIRECTION('',(0.,0.,1.));
#339=DIRECTION('',(-1.,0.,0.));
#340=DIRECTION('',(0.,0.,1.));
#341=DIRECTION('',(-1.,0.,0.));
#342=DIRECTION('',(0.,0.,1.));
#343=DIRECTION('',(-1.,0.,0.));
#344=DIRECTION('',(0.,0.,1.));
#345=DIRECTION('',(-1.,0.,0.));
#346=DIRECTION('',(0.,0.,1.));
#347=DIRECTION('',(-1.,0.,0.));
#348=DIRECTION('',(0.,0.,1.));
#349=DIRECTION('',(-1.,0.,0.));
#350=DIRECTION('',(0.,0.,1.));
#351=DIRECTION('',(1.,0.,0.));
#352=DIRECTION('',(0.,0.,-1.));
#353=DIRECTION('',(1.,0.,0.));
#354=DIRECTION('',(0.,0.,-1.));
#355=DIRECTION('',(-1.,0.,0.));
#356=DIRECTION('',(0.,0.,1.));
#357=DIRECTION('',(-1.,0.,0.));
#358=DIRECTION('',(0.,0.,1.));
#359=DIRECTION('',(-1.,0.,0.));
#360=DIRECTION('',(0.,0.,1.));
#361=DIRECTION('',(-1.,0.,0.));
#362=DIRECTION('',(0.,0.,1.));
#363=DIRECTION('',(-1.,0.,0.));
#364=DIRECTION('',(0.,0.,1.));
#365=DIRECTION('',(0.,-1.,0.));
#366=DIRECTION('',(0.,-1.,0.));
#367=DIRECTION('',(-1.20466908053945E-16,0.,-1.));
#368=DIRECTION('',(-1.,0.,1.20466908053945E-16));
#369=DIRECTION('',(-1.20466908053945E-16,0.,1.));
#370=DIRECTION('',(1.,0.,1.20466908053945E-16));
#371=CARTESIAN_POINT('',(0.,0.,0.));
#372=CARTESIAN_POINT('',(-1.1,0.,0.));
#373=CARTESIAN_POINT('',(-1.1,7.43034319530397,0.2));
#374=CARTESIAN_POINT('',(-1.1,1.29679737749146,0.2));
#375=CARTESIAN_POINT('',(-1.1,-1.29679737749146,0.2));
#376=CARTESIAN_POINT('',(-1.1,0.,0.));
#377=CARTESIAN_POINT('',(-0.999999999999999,0.,0.));
#378=CARTESIAN_POINT('',(-1.00871557427476,-1.39751019241785,0.2));
#379=CARTESIAN_POINT('',(-1.05841878622013,-1.39311742016638,0.2));
#380=CARTESIAN_POINT('',(-1.1,-1.34636326664211,0.2));
#381=CARTESIAN_POINT('',(-1.1,-1.29679737749146,0.2));
#382=CARTESIAN_POINT('',(-1.00871557427476,-1.39751019241785,0.2));
#383=CARTESIAN_POINT('',(-1.00871557427476,0.,0.));
#384=CARTESIAN_POINT('',(-1.00871557427477,1.39751019241785,0.2));
#385=CARTESIAN_POINT('',(-1.00871557427477,1.39751019241785,0.2));
#386=CARTESIAN_POINT('',(-1.05870891057763,1.39309177896177,0.2));
#387=CARTESIAN_POINT('',(-1.1,1.34630538645138,0.2));
#388=CARTESIAN_POINT('',(-1.1,1.29679737749146,0.2));
#389=CARTESIAN_POINT('',(-1.1,0.,0.));
#390=CARTESIAN_POINT('',(-1.1,0.,0.));
#391=CARTESIAN_POINT('',(-1.1,1.29679737749149,-0.2));
#392=CARTESIAN_POINT('',(-1.1,-1.2967973774917,-0.2));
#393=CARTESIAN_POINT('',(-1.1,7.43034319530397,-0.2));
#394=CARTESIAN_POINT('',(-1.1,0.,0.));
#395=CARTESIAN_POINT('',(-0.65,-1.42920643491876,0.2));
#396=CARTESIAN_POINT('',(-0.769572059713258,-1.41864330314661,0.2));
#397=CARTESIAN_POINT('',(-0.889143922377027,-1.40807794073757,0.2));
#398=CARTESIAN_POINT('',(-1.00871557427477,-1.39751019241787,0.2));
#399=CARTESIAN_POINT('',(-0.65,-1.42920643491876,0.2));
#400=CARTESIAN_POINT('',(-0.65,0.,0.));
#401=CARTESIAN_POINT('',(-0.65,-1.42920643491876,-0.2));
#402=CARTESIAN_POINT('',(-1.00871557427474,-1.39751019241785,-0.2));
#403=CARTESIAN_POINT('',(-0.889143922587714,-1.40807794071893,-0.2));
#404=CARTESIAN_POINT('',(-0.769572059919293,-1.4186433031285,-0.2));
#405=CARTESIAN_POINT('',(-0.650000000000009,-1.42920643491886,-0.2));
#406=CARTESIAN_POINT('',(-1.00871557427476,-1.39751019241808,-0.2));
#407=CARTESIAN_POINT('',(-1.00871557427476,0.,0.));
#408=CARTESIAN_POINT('',(-1.00871557427442,1.39751019242411,-0.2));
#409=CARTESIAN_POINT('',(-1.00871557427388,1.39751019241793,-0.2));
#410=CARTESIAN_POINT('',(-0.889143922587139,1.40807794071898,-0.2));
#411=CARTESIAN_POINT('',(-0.769572059919005,1.41864330312853,-0.2));
#412=CARTESIAN_POINT('',(-0.650000000000008,1.42920643491886,-0.2));
#413=CARTESIAN_POINT('',(-0.65,1.42920643491876,-0.2));
#414=CARTESIAN_POINT('',(-0.65,0.,0.));
#415=CARTESIAN_POINT('',(-0.65,1.42920643491876,0.2));
#416=CARTESIAN_POINT('',(-0.65,1.42920643491876,0.2));
#417=CARTESIAN_POINT('',(-0.76957205971326,1.41864330314661,0.2));
#418=CARTESIAN_POINT('',(-0.889143922377031,1.40807794073757,0.2));
#419=CARTESIAN_POINT('',(-1.00871557427477,1.39751019241787,0.2));
#420=CARTESIAN_POINT('',(0.,0.,0.));
#421=CARTESIAN_POINT('',(0.,0.,1.5));
#422=CARTESIAN_POINT('',(-0.999999999999999,0.,0.));
#423=CARTESIAN_POINT('',(-1.1,-1.2967973774917,-0.2));
#424=CARTESIAN_POINT('',(-1.09999999999988,-1.34690241581235,-0.2));
#425=CARTESIAN_POINT('',(-1.05812702297991,-1.39314320621554,-0.2));
#426=CARTESIAN_POINT('',(-1.00871557427472,-1.39751019241786,-0.2));
#427=CARTESIAN_POINT('',(-1.1,1.29679737749149,-0.2));
#428=CARTESIAN_POINT('',(-1.09999999999998,1.3465160021249,-0.2));
#429=CARTESIAN_POINT('',(-1.05807951287751,1.3931474051612,-0.2));
#430=CARTESIAN_POINT('',(-1.00871557427367,1.39751019241795,-0.2));
#431=CARTESIAN_POINT('',(2.,0.,0.));
#432=CARTESIAN_POINT('',(5.,0.,0.));
#433=CARTESIAN_POINT('',(5.,0.,0.8));
#434=CARTESIAN_POINT('',(0.7,0.,0.));
#435=CARTESIAN_POINT('',(0.7,0.,0.8));
#436=CARTESIAN_POINT('',(5.,0.,0.8));
#437=CARTESIAN_POINT('',(0.,0.,1.5));
#438=CARTESIAN_POINT('',(0.,0.,0.));
#439=CARTESIAN_POINT('',(0.,0.,1.));
#440=CARTESIAN_POINT('',(0.1,0.,0.));
#441=CARTESIAN_POINT('',(0.083775010008008,0.,0.));
#442=CARTESIAN_POINT('',(0.083775010008008,0.,0.901325030024024));
#443=CARTESIAN_POINT('',(0.083775010008008,0.,0.));
#444=CARTESIAN_POINT('',(-0.65,7.43034319530397,0.2));
#445=CARTESIAN_POINT('',(-0.65,7.43034319530397,-0.2));
#446=CARTESIAN_POINT('',(-0.65,7.43034319530397,0.2));
#447=CARTESIAN_POINT('',(-1.1,7.43034319530397,0.2));
#448=CARTESIAN_POINT('',(-0.65,7.43034319530397,-0.2));
#449=MECHANICAL_DESIGN_GEOMETRIC_PRESENTATION_REPRESENTATION('',(#182,#183,
#184,#185,#186,#187,#188,#189,#190,#191,#192,#193,#194),#450);
#450=(
GEOMETRIC_REPRESENTATION_CONTEXT(3)
GLOBAL_UNCERTAINTY_ASSIGNED_CONTEXT((#451))
GLOBAL_UNIT_ASSIGNED_CONTEXT((#454,#453,#452))
REPRESENTATION_CONTEXT('\X2\5F0069FD570667F1593487BA9489\X0\',
'TOP_LEVEL_ASSEMBLY_PART')
);
#451=UNCERTAINTY_MEASURE_WITH_UNIT(LENGTH_MEASURE(0.005),#454,
'DISTANCE_ACCURACY_VALUE','Maximum Tolerance applied to model');
#452=(
NAMED_UNIT(*)
SI_UNIT($,.STERADIAN.)
SOLID_ANGLE_UNIT()
);
#453=(
NAMED_UNIT(*)
PLANE_ANGLE_UNIT()
SI_UNIT($,.RADIAN.)
);
#454=(
LENGTH_UNIT()
NAMED_UNIT(*)
SI_UNIT(.MILLI.,.METRE.)
);
#455=PRODUCT_DEFINITION_SHAPE('','',#456);
#456=PRODUCT_DEFINITION('','',#458,#457);
#457=PRODUCT_DEFINITION_CONTEXT('',#464,'design');
#458=PRODUCT_DEFINITION_FORMATION_WITH_SPECIFIED_SOURCE('','',#460,
 .NOT_KNOWN.);
#459=PRODUCT_RELATED_PRODUCT_CATEGORY('','',(#460));
#460=PRODUCT('\X2\5F0069FD570667F1593487BA9489\X0\',
'\X2\5F0069FD570667F1593487BA9489\X0\','\X2\5F0069FD570667F1593487BA9489\X0\',
(#462));
#461=PRODUCT_CATEGORY('','');
#462=PRODUCT_CONTEXT('',#464,'mechanical');
#463=APPLICATION_PROTOCOL_DEFINITION('international standard',
'automotive_design',2010,#464);
#464=APPLICATION_CONTEXT(
'core data for automotive mechanical design processes');
ENDSEC;
END-ISO-10303-21;
