ISO-10303-21;
HEADER;
/* Generated by software containing HOOPS Exchange Step
 * from HOOPS Exchange, Inc. (www.tiangong.cloud) 
 */

FILE_DESCRIPTION(
/* description */ ('Unknown'),
/* implementation_level */ '2;1');

FILE_NAME(
/* name */ 'S1',
/* time_stamp */ '2025-10-31T17:48:42+08:00',
/* author */ ('Unknown'),
/* organization */ ('Unknown'),
/* preprocessor_version */ 'ST-DEVELOPER v19.4',
/* originating_system */ 'TianGong',
/* authorisation */ 'Unknown');

FILE_SCHEMA (('AUTOMOTIVE_DESIGN {1 0 10303 214 3 1 1}'));
ENDSEC;

DATA;
#10=PROPERTY_DEFINITION_REPRESENTATION(#14,#12);
#11=PROPERTY_DEFINITION_REPRESENTATION(#15,#13);
#12=REPRESENTATION('',(#16),#575);
#13=REPRESENTATION('',(#17),#575);
#14=PROPERTY_DEFINITION('pmi validation property','',#584);
#15=PROPERTY_DEFINITION('pmi validation property','',#584);
#16=VALUE_REPRESENTATION_ITEM('number of annotations',COUNT_MEASURE(0.));
#17=VALUE_REPRESENTATION_ITEM('number of views',COUNT_MEASURE(0.));
#18=CONTEXT_DEPENDENT_SHAPE_REPRESENTATION(#22,#586);
#19=CONTEXT_DEPENDENT_SHAPE_REPRESENTATION(#23,#588);
#20=NEXT_ASSEMBLY_USAGE_OCCURRENCE('yc','yc','yc',#589,#590,'');
#21=NEXT_ASSEMBLY_USAGE_OCCURRENCE('\X2\9368E0A26E40\X0\','\X2\9368E0A26E40\X0\',
'\X2\9368E0A26E40\X0\',#589,#591,'');
#22=(
REPRESENTATION_RELATIONSHIP(' ',' ',#361,#362)
REPRESENTATION_RELATIONSHIP_WITH_TRANSFORMATION(#24)
SHAPE_REPRESENTATION_RELATIONSHIP()
);
#23=(
REPRESENTATION_RELATIONSHIP(' ',' ',#363,#362)
REPRESENTATION_RELATIONSHIP_WITH_TRANSFORMATION(#25)
SHAPE_REPRESENTATION_RELATIONSHIP()
);
#24=ITEM_DEFINED_TRANSFORMATION(' ',' ',#364,#383);
#25=ITEM_DEFINED_TRANSFORMATION(' ',' ',#364,#392);
#26=SHAPE_REPRESENTATION_RELATIONSHIP('','',#361,#28);
#27=SHAPE_REPRESENTATION_RELATIONSHIP('','',#363,#29);
#28=ADVANCED_BREP_SHAPE_REPRESENTATION('',(#356),#576);
#29=ADVANCED_BREP_SHAPE_REPRESENTATION('',(#357),#577);
#30=TOROIDAL_SURFACE('',#382,1.2,0.1);
#31=LINE('',#515,#37);
#32=LINE('',#516,#38);
#33=LINE('',#524,#39);
#34=LINE('',#532,#40);
#35=LINE('',#540,#41);
#36=LINE('',#548,#42);
#37=VECTOR('',#413,1000.);
#38=VECTOR('',#414,1000.);
#39=VECTOR('',#417,1000.);
#40=VECTOR('',#420,1000.);
#41=VECTOR('',#423,1000.);
#42=VECTOR('',#426,1000.);
#43=B_SPLINE_CURVE_WITH_KNOTS('',3,(#471,#472,#473,#474,#475),
 .UNSPECIFIED.,.F.,.F.,(4,1,4),(2.54468946231999E-7,0.000954459713501852,
0.00190866495805747),.UNSPECIFIED.);
#44=B_SPLINE_CURVE_WITH_KNOTS('',3,(#478,#479,#480,#481,#482),
 .UNSPECIFIED.,.F.,.F.,(4,1,4),(2.54436168357602E-7,0.000954459749139155,
0.00190866506210995),.UNSPECIFIED.);
#45=B_SPLINE_CURVE_WITH_KNOTS('',3,(#484,#485,#486,#487,#488),
 .UNSPECIFIED.,.F.,.F.,(4,1,4),(0.00233872522000953,0.00330125194142992,
0.00426377866285032),.UNSPECIFIED.);
#46=B_SPLINE_CURVE_WITH_KNOTS('',3,(#490,#491,#492,#493,#494),
 .UNSPECIFIED.,.F.,.F.,(4,1,4),(2.54452555816539E-7,0.00095445974936748,
0.00190866504617914),.UNSPECIFIED.);
#47=B_SPLINE_CURVE_WITH_KNOTS('',3,(#496,#497,#498,#499,#500),
 .UNSPECIFIED.,.F.,.F.,(4,1,4),(2.54429093040113E-7,0.000954459678940704,
0.00190866492878837),.UNSPECIFIED.);
#48=B_SPLINE_CURVE_WITH_KNOTS('',3,(#502,#503,#504,#505,#506),
 .UNSPECIFIED.,.F.,.F.,(4,1,4),(0.00233872537155233,0.00330125217845003,
0.00426377898534773),.UNSPECIFIED.);
#49=B_SPLINE_CURVE_WITH_KNOTS('',3,(#508,#509,#510,#511,#512),
 .UNSPECIFIED.,.F.,.F.,(4,1,4),(2.54429093037936E-7,0.000954459678940695,
0.00190866492878835),.UNSPECIFIED.);
#50=B_SPLINE_CURVE_WITH_KNOTS('',3,(#518,#519,#520,#521,#522),
 .UNSPECIFIED.,.F.,.F.,(4,1,4),(0.00233872524276874,0.00330125206062647,
0.0042637788784842),.UNSPECIFIED.);
#51=B_SPLINE_CURVE_WITH_KNOTS('',3,(#526,#527,#528,#529,#530),
 .UNSPECIFIED.,.F.,.F.,(4,1,4),(2.54436168357902E-7,0.000954459681801313,
0.00190866492743427),.UNSPECIFIED.);
#52=B_SPLINE_CURVE_WITH_KNOTS('',3,(#534,#535,#536,#537,#538),
 .UNSPECIFIED.,.F.,.F.,(4,1,4),(2.54382180384333E-7,0.000954459696245096,
0.00190866501030981),.UNSPECIFIED.);
#53=B_SPLINE_CURVE_WITH_KNOTS('',3,(#542,#543,#544,#545,#546),
 .UNSPECIFIED.,.F.,.F.,(4,1,4),(0.00233872515613266,0.00330125187839971,
0.00426377860066675),.UNSPECIFIED.);
#54=B_SPLINE_CURVE_WITH_KNOTS('',3,(#550,#551,#552,#553,#554),
 .UNSPECIFIED.,.F.,.F.,(4,1,4),(2.54452555812104E-7,0.000954459738182194,
0.00190866502380858),.UNSPECIFIED.);
#55=CYLINDRICAL_SURFACE('',#370,1.1);
#56=CYLINDRICAL_SURFACE('',#384,1.1);
#57=CYLINDRICAL_SURFACE('',#387,2.5);
#58=VERTEX_LOOP('',#146);
#59=CONICAL_SURFACE('',#368,0.,0.502843210927861);
#60=CONICAL_SURFACE('',#372,1.50952088590744,0.785398163397448);
#61=CONICAL_SURFACE('',#379,1.84752088590744,0.785398163397448);
#62=ORIENTED_EDGE('',*,*,#116,.T.);
#63=ORIENTED_EDGE('',*,*,#117,.F.);
#64=ORIENTED_EDGE('',*,*,#118,.F.);
#65=ORIENTED_EDGE('',*,*,#119,.T.);
#66=ORIENTED_EDGE('',*,*,#118,.T.);
#67=ORIENTED_EDGE('',*,*,#120,.T.);
#68=ORIENTED_EDGE('',*,*,#121,.T.);
#69=ORIENTED_EDGE('',*,*,#122,.T.);
#70=ORIENTED_EDGE('',*,*,#123,.T.);
#71=ORIENTED_EDGE('',*,*,#124,.T.);
#72=ORIENTED_EDGE('',*,*,#125,.T.);
#73=ORIENTED_EDGE('',*,*,#117,.T.);
#74=ORIENTED_EDGE('',*,*,#126,.F.);
#75=ORIENTED_EDGE('',*,*,#127,.F.);
#76=ORIENTED_EDGE('',*,*,#124,.F.);
#77=ORIENTED_EDGE('',*,*,#128,.T.);
#78=ORIENTED_EDGE('',*,*,#129,.F.);
#79=ORIENTED_EDGE('',*,*,#130,.F.);
#80=ORIENTED_EDGE('',*,*,#125,.F.);
#81=ORIENTED_EDGE('',*,*,#127,.T.);
#82=ORIENTED_EDGE('',*,*,#131,.F.);
#83=ORIENTED_EDGE('',*,*,#132,.F.);
#84=ORIENTED_EDGE('',*,*,#120,.F.);
#85=ORIENTED_EDGE('',*,*,#130,.T.);
#86=ORIENTED_EDGE('',*,*,#133,.F.);
#87=ORIENTED_EDGE('',*,*,#134,.F.);
#88=ORIENTED_EDGE('',*,*,#121,.F.);
#89=ORIENTED_EDGE('',*,*,#132,.T.);
#90=ORIENTED_EDGE('',*,*,#135,.F.);
#91=ORIENTED_EDGE('',*,*,#136,.F.);
#92=ORIENTED_EDGE('',*,*,#122,.F.);
#93=ORIENTED_EDGE('',*,*,#134,.T.);
#94=ORIENTED_EDGE('',*,*,#137,.F.);
#95=ORIENTED_EDGE('',*,*,#128,.F.);
#96=ORIENTED_EDGE('',*,*,#123,.F.);
#97=ORIENTED_EDGE('',*,*,#136,.T.);
#98=ORIENTED_EDGE('',*,*,#138,.F.);
#99=ORIENTED_EDGE('',*,*,#137,.T.);
#100=ORIENTED_EDGE('',*,*,#135,.T.);
#101=ORIENTED_EDGE('',*,*,#133,.T.);
#102=ORIENTED_EDGE('',*,*,#131,.T.);
#103=ORIENTED_EDGE('',*,*,#129,.T.);
#104=ORIENTED_EDGE('',*,*,#126,.T.);
#105=ORIENTED_EDGE('',*,*,#138,.T.);
#106=ORIENTED_EDGE('',*,*,#116,.F.);
#107=ORIENTED_EDGE('',*,*,#119,.F.);
#108=ORIENTED_EDGE('',*,*,#139,.T.);
#109=ORIENTED_EDGE('',*,*,#140,.F.);
#110=ORIENTED_EDGE('',*,*,#141,.F.);
#111=ORIENTED_EDGE('',*,*,#142,.T.);
#112=ORIENTED_EDGE('',*,*,#139,.F.);
#113=ORIENTED_EDGE('',*,*,#141,.T.);
#114=ORIENTED_EDGE('',*,*,#140,.T.);
#115=ORIENTED_EDGE('',*,*,#142,.F.);
#116=EDGE_CURVE('',#143,#143,#165,.T.);
#117=EDGE_CURVE('',#144,#144,#166,.T.);
#118=EDGE_CURVE('',#145,#145,#167,.T.);
#119=EDGE_CURVE('',#147,#147,#168,.F.);
#120=EDGE_CURVE('',#148,#149,#43,.T.);
#121=EDGE_CURVE('',#149,#150,#44,.T.);
#122=EDGE_CURVE('',#150,#151,#45,.T.);
#123=EDGE_CURVE('',#151,#152,#46,.T.);
#124=EDGE_CURVE('',#152,#153,#47,.T.);
#125=EDGE_CURVE('',#153,#148,#48,.T.);
#126=EDGE_CURVE('',#154,#155,#49,.T.);
#127=EDGE_CURVE('',#153,#154,#31,.T.);
#128=EDGE_CURVE('',#152,#155,#32,.T.);
#129=EDGE_CURVE('',#156,#154,#50,.T.);
#130=EDGE_CURVE('',#148,#156,#33,.T.);
#131=EDGE_CURVE('',#157,#156,#51,.T.);
#132=EDGE_CURVE('',#149,#157,#34,.T.);
#133=EDGE_CURVE('',#158,#157,#52,.T.);
#134=EDGE_CURVE('',#150,#158,#35,.T.);
#135=EDGE_CURVE('',#159,#158,#53,.T.);
#136=EDGE_CURVE('',#151,#159,#36,.T.);
#137=EDGE_CURVE('',#155,#159,#54,.T.);
#138=EDGE_CURVE('',#160,#160,#169,.T.);
#139=EDGE_CURVE('',#161,#161,#170,.T.);
#140=EDGE_CURVE('',#162,#162,#171,.T.);
#141=EDGE_CURVE('',#163,#163,#172,.T.);
#142=EDGE_CURVE('',#164,#164,#173,.T.);
#143=VERTEX_POINT('',#460);
#144=VERTEX_POINT('',#462);
#145=VERTEX_POINT('',#465);
#146=VERTEX_POINT('',#466);
#147=VERTEX_POINT('',#469);
#148=VERTEX_POINT('',#476);
#149=VERTEX_POINT('',#477);
#150=VERTEX_POINT('',#483);
#151=VERTEX_POINT('',#489);
#152=VERTEX_POINT('',#495);
#153=VERTEX_POINT('',#501);
#154=VERTEX_POINT('',#513);
#155=VERTEX_POINT('',#514);
#156=VERTEX_POINT('',#523);
#157=VERTEX_POINT('',#531);
#158=VERTEX_POINT('',#539);
#159=VERTEX_POINT('',#547);
#160=VERTEX_POINT('',#557);
#161=VERTEX_POINT('',#563);
#162=VERTEX_POINT('',#565);
#163=VERTEX_POINT('',#568);
#164=VERTEX_POINT('',#570);
#165=CIRCLE('',#366,1.2);
#166=CIRCLE('',#367,1.50952088590744);
#167=CIRCLE('',#369,1.1);
#168=CIRCLE('',#371,1.1);
#169=CIRCLE('',#380,1.50952088590744);
#170=CIRCLE('',#385,1.1);
#171=CIRCLE('',#386,1.1);
#172=CIRCLE('',#388,2.5);
#173=CIRCLE('',#389,2.5);
#174=EDGE_LOOP('',(#62));
#175=EDGE_LOOP('',(#63));
#176=EDGE_LOOP('',(#64));
#177=EDGE_LOOP('',(#65));
#178=EDGE_LOOP('',(#66));
#179=EDGE_LOOP('',(#67,#68,#69,#70,#71,#72));
#180=EDGE_LOOP('',(#73));
#181=EDGE_LOOP('',(#74,#75,#76,#77));
#182=EDGE_LOOP('',(#78,#79,#80,#81));
#183=EDGE_LOOP('',(#82,#83,#84,#85));
#184=EDGE_LOOP('',(#86,#87,#88,#89));
#185=EDGE_LOOP('',(#90,#91,#92,#93));
#186=EDGE_LOOP('',(#94,#95,#96,#97));
#187=EDGE_LOOP('',(#98));
#188=EDGE_LOOP('',(#99,#100,#101,#102,#103,#104));
#189=EDGE_LOOP('',(#105));
#190=EDGE_LOOP('',(#106));
#191=EDGE_LOOP('',(#107));
#192=EDGE_LOOP('',(#108));
#193=EDGE_LOOP('',(#109));
#194=EDGE_LOOP('',(#110));
#195=EDGE_LOOP('',(#111));
#196=EDGE_LOOP('',(#112));
#197=EDGE_LOOP('',(#113));
#198=EDGE_LOOP('',(#114));
#199=EDGE_LOOP('',(#115));
#200=FACE_BOUND('',#174,.T.);
#201=FACE_BOUND('',#175,.T.);
#202=FACE_BOUND('',#176,.T.);
#203=FACE_BOUND('',#58,.T.);
#204=FACE_BOUND('',#177,.T.);
#205=FACE_BOUND('',#178,.T.);
#206=FACE_BOUND('',#179,.T.);
#207=FACE_BOUND('',#180,.T.);
#208=FACE_BOUND('',#181,.T.);
#209=FACE_BOUND('',#182,.T.);
#210=FACE_BOUND('',#183,.T.);
#211=FACE_BOUND('',#184,.T.);
#212=FACE_BOUND('',#185,.T.);
#213=FACE_BOUND('',#186,.T.);
#214=FACE_BOUND('',#187,.T.);
#215=FACE_BOUND('',#188,.T.);
#216=FACE_BOUND('',#189,.T.);
#217=FACE_BOUND('',#190,.T.);
#218=FACE_BOUND('',#191,.T.);
#219=FACE_BOUND('',#192,.T.);
#220=FACE_BOUND('',#193,.T.);
#221=FACE_BOUND('',#194,.T.);
#222=FACE_BOUND('',#195,.T.);
#223=FACE_BOUND('',#196,.T.);
#224=FACE_BOUND('',#197,.T.);
#225=FACE_BOUND('',#198,.T.);
#226=FACE_BOUND('',#199,.T.);
#227=PLANE('',#365);
#228=PLANE('',#373);
#229=PLANE('',#374);
#230=PLANE('',#375);
#231=PLANE('',#376);
#232=PLANE('',#377);
#233=PLANE('',#378);
#234=PLANE('',#381);
#235=PLANE('',#390);
#236=PLANE('',#391);
#237=STYLED_ITEM('',(#251),#337);
#238=STYLED_ITEM('',(#252),#338);
#239=STYLED_ITEM('',(#253),#339);
#240=STYLED_ITEM('',(#254),#340);
#241=STYLED_ITEM('',(#255),#341);
#242=STYLED_ITEM('',(#256),#342);
#243=STYLED_ITEM('',(#257),#343);
#244=STYLED_ITEM('',(#258),#344);
#245=STYLED_ITEM('',(#259),#345);
#246=STYLED_ITEM('',(#260),#346);
#247=STYLED_ITEM('',(#261),#347);
#248=STYLED_ITEM('',(#262),#348);
#249=STYLED_ITEM('',(#263),#349);
#250=STYLED_ITEM('',(#264),#357);
#251=PRESENTATION_STYLE_ASSIGNMENT((#265));
#252=PRESENTATION_STYLE_ASSIGNMENT((#266));
#253=PRESENTATION_STYLE_ASSIGNMENT((#267));
#254=PRESENTATION_STYLE_ASSIGNMENT((#268));
#255=PRESENTATION_STYLE_ASSIGNMENT((#269));
#256=PRESENTATION_STYLE_ASSIGNMENT((#270));
#257=PRESENTATION_STYLE_ASSIGNMENT((#271));
#258=PRESENTATION_STYLE_ASSIGNMENT((#272));
#259=PRESENTATION_STYLE_ASSIGNMENT((#273));
#260=PRESENTATION_STYLE_ASSIGNMENT((#274));
#261=PRESENTATION_STYLE_ASSIGNMENT((#275));
#262=PRESENTATION_STYLE_ASSIGNMENT((#276));
#263=PRESENTATION_STYLE_ASSIGNMENT((#277));
#264=PRESENTATION_STYLE_ASSIGNMENT((#278));
#265=SURFACE_STYLE_USAGE(.BOTH.,#279);
#266=SURFACE_STYLE_USAGE(.BOTH.,#280);
#267=SURFACE_STYLE_USAGE(.BOTH.,#281);
#268=SURFACE_STYLE_USAGE(.BOTH.,#282);
#269=SURFACE_STYLE_USAGE(.BOTH.,#283);
#270=SURFACE_STYLE_USAGE(.BOTH.,#284);
#271=SURFACE_STYLE_USAGE(.BOTH.,#285);
#272=SURFACE_STYLE_USAGE(.BOTH.,#286);
#273=SURFACE_STYLE_USAGE(.BOTH.,#287);
#274=SURFACE_STYLE_USAGE(.BOTH.,#288);
#275=SURFACE_STYLE_USAGE(.BOTH.,#289);
#276=SURFACE_STYLE_USAGE(.BOTH.,#290);
#277=SURFACE_STYLE_USAGE(.BOTH.,#291);
#278=SURFACE_STYLE_USAGE(.BOTH.,#292);
#279=SURFACE_SIDE_STYLE('',(#293));
#280=SURFACE_SIDE_STYLE('',(#294));
#281=SURFACE_SIDE_STYLE('',(#295));
#282=SURFACE_SIDE_STYLE('',(#296));
#283=SURFACE_SIDE_STYLE('',(#297));
#284=SURFACE_SIDE_STYLE('',(#298));
#285=SURFACE_SIDE_STYLE('',(#299));
#286=SURFACE_SIDE_STYLE('',(#300));
#287=SURFACE_SIDE_STYLE('',(#301));
#288=SURFACE_SIDE_STYLE('',(#302));
#289=SURFACE_SIDE_STYLE('',(#303));
#290=SURFACE_SIDE_STYLE('',(#304));
#291=SURFACE_SIDE_STYLE('',(#305));
#292=SURFACE_SIDE_STYLE('',(#306));
#293=SURFACE_STYLE_FILL_AREA(#307);
#294=SURFACE_STYLE_FILL_AREA(#308);
#295=SURFACE_STYLE_FILL_AREA(#309);
#296=SURFACE_STYLE_FILL_AREA(#310);
#297=SURFACE_STYLE_FILL_AREA(#311);
#298=SURFACE_STYLE_FILL_AREA(#312);
#299=SURFACE_STYLE_FILL_AREA(#313);
#300=SURFACE_STYLE_FILL_AREA(#314);
#301=SURFACE_STYLE_FILL_AREA(#315);
#302=SURFACE_STYLE_FILL_AREA(#316);
#303=SURFACE_STYLE_FILL_AREA(#317);
#304=SURFACE_STYLE_FILL_AREA(#318);
#305=SURFACE_STYLE_FILL_AREA(#319);
#306=SURFACE_STYLE_FILL_AREA(#320);
#307=FILL_AREA_STYLE('',(#321));
#308=FILL_AREA_STYLE('',(#322));
#309=FILL_AREA_STYLE('',(#323));
#310=FILL_AREA_STYLE('',(#324));
#311=FILL_AREA_STYLE('',(#325));
#312=FILL_AREA_STYLE('',(#326));
#313=FILL_AREA_STYLE('',(#327));
#314=FILL_AREA_STYLE('',(#328));
#315=FILL_AREA_STYLE('',(#329));
#316=FILL_AREA_STYLE('',(#330));
#317=FILL_AREA_STYLE('',(#331));
#318=FILL_AREA_STYLE('',(#332));
#319=FILL_AREA_STYLE('',(#333));
#320=FILL_AREA_STYLE('',(#334));
#321=FILL_AREA_STYLE_COLOUR('',#335);
#322=FILL_AREA_STYLE_COLOUR('',#335);
#323=FILL_AREA_STYLE_COLOUR('',#336);
#324=FILL_AREA_STYLE_COLOUR('',#335);
#325=FILL_AREA_STYLE_COLOUR('',#335);
#326=FILL_AREA_STYLE_COLOUR('',#335);
#327=FILL_AREA_STYLE_COLOUR('',#335);
#328=FILL_AREA_STYLE_COLOUR('',#335);
#329=FILL_AREA_STYLE_COLOUR('',#335);
#330=FILL_AREA_STYLE_COLOUR('',#335);
#331=FILL_AREA_STYLE_COLOUR('',#335);
#332=FILL_AREA_STYLE_COLOUR('',#335);
#333=FILL_AREA_STYLE_COLOUR('',#335);
#334=FILL_AREA_STYLE_COLOUR('',#335);
#335=COLOUR_RGB('',0.506983280181885,0.531564235687256,0.550000011920929);
#336=COLOUR_RGB('',0.1875,0.75,0.581249892711639);
#337=ADVANCED_FACE('',(#200,#201),#227,.F.);
#338=ADVANCED_FACE('',(#202,#203),#59,.T.);
#339=ADVANCED_FACE('',(#204,#205),#55,.T.);
#340=ADVANCED_FACE('',(#206,#207),#60,.T.);
#341=ADVANCED_FACE('',(#208),#228,.T.);
#342=ADVANCED_FACE('',(#209),#229,.T.);
#343=ADVANCED_FACE('',(#210),#230,.T.);
#344=ADVANCED_FACE('',(#211),#231,.T.);
#345=ADVANCED_FACE('',(#212),#232,.T.);
#346=ADVANCED_FACE('',(#213),#233,.T.);
#347=ADVANCED_FACE('',(#214,#215),#61,.T.);
#348=ADVANCED_FACE('',(#216),#234,.T.);
#349=ADVANCED_FACE('',(#217,#218),#30,.F.);
#350=ADVANCED_FACE('',(#219,#220),#56,.F.);
#351=ADVANCED_FACE('',(#221,#222),#57,.T.);
#352=ADVANCED_FACE('',(#223,#224),#235,.T.);
#353=ADVANCED_FACE('',(#225,#226),#236,.F.);
#354=CLOSED_SHELL('',(#337,#338,#339,#340,#341,#342,#343,#344,#345,#346,
#347,#348,#349));
#355=CLOSED_SHELL('',(#350,#351,#352,#353));
#356=MANIFOLD_SOLID_BREP('',#354);
#357=MANIFOLD_SOLID_BREP('',#355);
#358=SHAPE_DEFINITION_REPRESENTATION(#585,#361);
#359=SHAPE_DEFINITION_REPRESENTATION(#584,#362);
#360=SHAPE_DEFINITION_REPRESENTATION(#587,#363);
#361=SHAPE_REPRESENTATION('yc',(#364),#576);
#362=SHAPE_REPRESENTATION('S1',(#364,#383,#392),#575);
#363=SHAPE_REPRESENTATION('\X2\57AB5708\X0\',(#364),#577);
#364=AXIS2_PLACEMENT_3D('',#457,#393,#394);
#365=AXIS2_PLACEMENT_3D('',#458,#395,#396);
#366=AXIS2_PLACEMENT_3D('',#459,#397,#398);
#367=AXIS2_PLACEMENT_3D('',#461,#399,#400);
#368=AXIS2_PLACEMENT_3D('',#463,#401,#402);
#369=AXIS2_PLACEMENT_3D('',#464,#403,#404);
#370=AXIS2_PLACEMENT_3D('',#467,#405,#406);
#371=AXIS2_PLACEMENT_3D('',#468,#407,#408);
#372=AXIS2_PLACEMENT_3D('',#470,#409,#410);
#373=AXIS2_PLACEMENT_3D('',#507,#411,#412);
#374=AXIS2_PLACEMENT_3D('',#517,#415,#416);
#375=AXIS2_PLACEMENT_3D('',#525,#418,#419);
#376=AXIS2_PLACEMENT_3D('',#533,#421,#422);
#377=AXIS2_PLACEMENT_3D('',#541,#424,#425);
#378=AXIS2_PLACEMENT_3D('',#549,#427,#428);
#379=AXIS2_PLACEMENT_3D('',#555,#429,#430);
#380=AXIS2_PLACEMENT_3D('',#556,#431,#432);
#381=AXIS2_PLACEMENT_3D('',#558,#433,#434);
#382=AXIS2_PLACEMENT_3D('',#559,#435,#436);
#383=AXIS2_PLACEMENT_3D('',#560,#437,#438);
#384=AXIS2_PLACEMENT_3D('',#561,#439,#440);
#385=AXIS2_PLACEMENT_3D('',#562,#441,#442);
#386=AXIS2_PLACEMENT_3D('',#564,#443,#444);
#387=AXIS2_PLACEMENT_3D('',#566,#445,#446);
#388=AXIS2_PLACEMENT_3D('',#567,#447,#448);
#389=AXIS2_PLACEMENT_3D('',#569,#449,#450);
#390=AXIS2_PLACEMENT_3D('',#571,#451,#452);
#391=AXIS2_PLACEMENT_3D('',#572,#453,#454);
#392=AXIS2_PLACEMENT_3D('',#573,#455,#456);
#393=DIRECTION('',(0.,0.,1.));
#394=DIRECTION('',(1.,0.,0.));
#395=DIRECTION('',(0.,-1.,0.));
#396=DIRECTION('',(0.,0.,-1.));
#397=DIRECTION('',(0.,-1.,0.));
#398=DIRECTION('',(0.,0.,-1.));
#399=DIRECTION('',(-6.12303176911189E-17,-1.,0.));
#400=DIRECTION('',(1.,-6.12303176911189E-17,0.));
#401=DIRECTION('',(-6.12303176911189E-17,-1.,0.));
#402=DIRECTION('',(1.,-6.12303176911189E-17,0.));
#403=DIRECTION('',(-6.12303176911189E-17,-1.,0.));
#404=DIRECTION('',(1.,-6.12303176911189E-17,0.));
#405=DIRECTION('',(-6.12303176911189E-17,-1.,0.));
#406=DIRECTION('',(1.,-6.12303176911189E-17,0.));
#407=DIRECTION('',(0.,-1.,0.));
#408=DIRECTION('',(0.,0.,-1.));
#409=DIRECTION('',(-6.12303176911189E-17,-1.,0.));
#410=DIRECTION('',(1.,-6.12303176911189E-17,0.));
#411=DIRECTION('',(-0.499999999999999,0.,-0.866025403784439));
#412=DIRECTION('',(-0.866025403784439,0.,0.499999999999999));
#413=DIRECTION('',(0.,-1.,0.));
#414=DIRECTION('',(0.,-1.,0.));
#415=DIRECTION('',(-1.,0.,1.20889376263974E-14));
#416=DIRECTION('',(1.20889376263974E-14,0.,1.));
#417=DIRECTION('',(0.,-1.,0.));
#418=DIRECTION('',(-0.500000019892055,0.,0.866025392299755));
#419=DIRECTION('',(0.866025392299755,0.,0.500000019892055));
#420=DIRECTION('',(0.,-1.,0.));
#421=DIRECTION('',(0.500000019892035,0.,0.866025392299767));
#422=DIRECTION('',(0.866025392299767,0.,-0.500000019892035));
#423=DIRECTION('',(0.,-1.,0.));
#424=DIRECTION('',(1.,0.,2.48820865314952E-14));
#425=DIRECTION('',(2.48820865314952E-14,0.,-1.));
#426=DIRECTION('',(0.,-1.,0.));
#427=DIRECTION('',(0.500000000000014,0.,-0.866025403784431));
#428=DIRECTION('',(-0.866025403784431,0.,-0.500000000000014));
#429=DIRECTION('',(6.12303176911189E-17,1.,0.));
#430=DIRECTION('',(-1.,6.12303176911189E-17,0.));
#431=DIRECTION('',(-6.12303176911189E-17,-1.,0.));
#432=DIRECTION('',(1.,-6.12303176911189E-17,0.));
#433=DIRECTION('',(0.,-1.,0.));
#434=DIRECTION('',(0.,0.,-1.));
#435=DIRECTION('',(0.,-1.,0.));
#436=DIRECTION('',(0.,0.,-1.));
#437=DIRECTION('',(2.29693623028743E-8,0.,1.));
#438=DIRECTION('',(1.,0.,-2.29693623028743E-8));
#439=DIRECTION('',(0.,-1.,0.));
#440=DIRECTION('',(0.,0.,-1.));
#441=DIRECTION('',(0.,1.,0.));
#442=DIRECTION('',(1.,0.,0.));
#443=DIRECTION('',(0.,1.,0.));
#444=DIRECTION('',(1.,0.,0.));
#445=DIRECTION('',(0.,-1.,0.));
#446=DIRECTION('',(0.,0.,-1.));
#447=DIRECTION('',(0.,1.,0.));
#448=DIRECTION('',(1.,0.,0.));
#449=DIRECTION('',(0.,1.,0.));
#450=DIRECTION('',(1.,0.,0.));
#451=DIRECTION('',(0.,1.,0.));
#452=DIRECTION('',(0.,0.,1.));
#453=DIRECTION('',(0.,1.,0.));
#454=DIRECTION('',(0.,0.,1.));
#455=DIRECTION('',(0.,0.,1.));
#456=DIRECTION('',(1.,0.,0.));
#457=CARTESIAN_POINT('',(0.,0.,0.));
#458=CARTESIAN_POINT('',(0.,1.3,0.));
#459=CARTESIAN_POINT('',(8.57224447675664E-17,1.3,0.));
#460=CARTESIAN_POINT('',(8.57224447675664E-17,1.3,-1.2));
#461=CARTESIAN_POINT('',(7.95994129984545E-17,1.3,0.));
#462=CARTESIAN_POINT('',(1.50952088590744,1.3,0.));
#463=CARTESIAN_POINT('',(1.05928449605636E-15,17.3,0.));
#464=CARTESIAN_POINT('',(9.36823860674119E-16,15.3,0.));
#465=CARTESIAN_POINT('',(1.1,15.3,0.));
#466=CARTESIAN_POINT('',(1.05928449605636E-15,17.3,0.));
#467=CARTESIAN_POINT('',(7.95994129984547E-17,1.3,0.));
#468=CARTESIAN_POINT('',(8.57224447675664E-17,1.4,0.));
#469=CARTESIAN_POINT('',(8.57224447675664E-17,1.4,-1.1));
#470=CARTESIAN_POINT('',(7.95994129984545E-17,1.3,0.));
#471=CARTESIAN_POINT('',(-1.59999995301337,0.962000063878717,0.923760433330466));
#472=CARTESIAN_POINT('',(-1.34997864001517,1.10634992892563,1.06811031335023));
#473=CARTESIAN_POINT('',(-0.805156517070404,1.31225900804198,1.38266352937848));
#474=CARTESIAN_POINT('',(-0.25149571380881,1.10720112577038,1.70231976013762));
#475=CARTESIAN_POINT('',(1.55420636197426E-13,0.962000000000449,1.84752088590753));
#476=CARTESIAN_POINT('',(-1.5999999787818,0.962,0.92376051645567));
#477=CARTESIAN_POINT('',(5.89035656188564E-17,0.962,1.84752088590744));
#478=CARTESIAN_POINT('',(-2.93886809552984E-16,0.962000000000001,1.84752088590744));
#479=CARTESIAN_POINT('',(0.250021326376465,1.1063498877437,1.70317099816374));
#480=CARTESIAN_POINT('',(0.794843478193919,1.31225902273202,1.38861776546585));
#481=CARTESIAN_POINT('',(1.34850433048225,1.10720113694986,1.06896150640112));
#482=CARTESIAN_POINT('',(1.60000006365467,0.962000000000448,0.923760369451729));
#483=CARTESIAN_POINT('',(1.60000006365452,0.962,0.923760369451819));
#484=CARTESIAN_POINT('',(1.60000002121816,0.962000028474174,0.923760386005405));
#485=CARTESIAN_POINT('',(1.60000002121816,1.10502070068376,0.637719028360733));
#486=CARTESIAN_POINT('',(1.60000002121818,1.31380019683072,0.00193130473221916));
#487=CARTESIAN_POINT('',(1.60000002121819,1.10546060734589,-0.636839228261985));
#488=CARTESIAN_POINT('',(1.6000000212182,0.962000000000031,-0.923760442953696));
#489=CARTESIAN_POINT('',(1.6000000212182,0.962,-0.923760442953676));
#490=CARTESIAN_POINT('',(1.600000008334,0.962000031939329,-0.92376040139111));
#491=CARTESIAN_POINT('',(1.34997868248055,1.1063499157232,-1.06811028117575));
#492=CARTESIAN_POINT('',(0.805156530923432,1.3122590419795,-1.38266349703774));
#493=CARTESIAN_POINT('',(0.251495682029815,1.10720115545946,-1.70231973718623));
#494=CARTESIAN_POINT('',(-4.94961535564966E-8,0.962000020425179,-1.8475208654828));
#495=CARTESIAN_POINT('',(-4.24363417669826E-8,0.962,-1.84752086140682));
#496=CARTESIAN_POINT('',(-3.68803652368811E-8,0.962000021292881,-1.84752086461456));
#497=CARTESIAN_POINT('',(-0.250021353619603,1.10634989082448,-1.70317099009202));
#498=CARTESIAN_POINT('',(-0.794843480932259,1.31225898620028,-1.38861778822759));
#499=CARTESIAN_POINT('',(-1.34850430012342,1.10720112227465,-1.06896156522783));
#500=CARTESIAN_POINT('',(-1.60000002121832,0.962000000000449,-0.923760442953647));
#501=CARTESIAN_POINT('',(-1.60000002121817,0.962,-0.923760442953737));
#502=CARTESIAN_POINT('',(-1.59999997878183,0.962000028474159,-0.923760459507316));
#503=CARTESIAN_POINT('',(-1.59999997878182,1.10502072269041,-0.637719080609112));
#504=CARTESIAN_POINT('',(-1.59999997878181,1.31380026015205,-0.00193130292600551));
#505=CARTESIAN_POINT('',(-1.59999997878181,1.10546062844607,0.636839282393413));
#506=CARTESIAN_POINT('',(-1.5999999787818,0.962000000000031,0.923760516455691));
#507=CARTESIAN_POINT('',(-1.59999997878183,1.3,-0.923760467454369));
#508=CARTESIAN_POINT('',(-1.5999999843378,0.337999978707113,-0.923760464246624));
#509=CARTESIAN_POINT('',(-1.34997866759857,0.193650109175518,-1.06811033876917));
#510=CARTESIAN_POINT('',(-0.805156540285915,-0.0122589862002756,-1.38266354063359));
#511=CARTESIAN_POINT('',(-0.251495721094756,0.192798877725355,-1.70231976363335));
#512=CARTESIAN_POINT('',(1.40856051493947E-13,0.337999999999551,-1.84752088590753));
#513=CARTESIAN_POINT('',(-1.59999997878183,0.338,-0.923760467454369));
#514=CARTESIAN_POINT('',(-1.46263814048645E-14,0.338,-1.84752088590744));
#515=CARTESIAN_POINT('',(-1.59999997878183,1.3,-0.923760467454369));
#516=CARTESIAN_POINT('',(-4.24363417669826E-8,1.3,-1.84752086140682));
#517=CARTESIAN_POINT('',(-1.5999999787818,1.3,0.923760418453056));
#518=CARTESIAN_POINT('',(-1.5999999787818,0.338,0.92376051645567));
#519=CARTESIAN_POINT('',(-1.59999997878181,0.194979299129793,0.637719137475044));
#520=CARTESIAN_POINT('',(-1.59999997878181,-0.0138002625036732,0.00193136018962427));
#521=CARTESIAN_POINT('',(-1.59999997878182,0.194539354595516,-0.636839239840404));
#522=CARTESIAN_POINT('',(-1.59999997878183,0.337999981463564,-0.923760479382845));
#523=CARTESIAN_POINT('',(-1.5999999787818,0.338,0.92376051645567));
#524=CARTESIAN_POINT('',(-1.5999999787818,1.3,0.923760418453056));
#525=CARTESIAN_POINT('',(0.,1.3,1.84752088590744));
#526=CARTESIAN_POINT('',(1.04833057819776E-16,0.338,1.84752088590744));
#527=CARTESIAN_POINT('',(-0.250021308732567,0.193650122443001,1.70317100835044));
#528=CARTESIAN_POINT('',(-0.794843415228605,-0.0122590079143641,1.38861780181887));
#529=CARTESIAN_POINT('',(-1.34850423749157,0.192798823808988,1.06896156008928));
#530=CARTESIAN_POINT('',(-1.59999995752457,0.337999938725287,0.923760430725924));
#531=CARTESIAN_POINT('',(2.06958473795982E-17,0.338,1.84752088590744));
#532=CARTESIAN_POINT('',(0.,1.3,1.84752088590744));
#533=CARTESIAN_POINT('',(1.60000002121816,1.3,0.923760393952464));
#534=CARTESIAN_POINT('',(1.60000006365452,0.338,0.923760369451819));
#535=CARTESIAN_POINT('',(1.34997873641515,0.193650111758102,1.06811025769372));
#536=CARTESIAN_POINT('',(0.805156584452366,-0.0122590226604902,1.38266349047551));
#537=CARTESIAN_POINT('',(0.251495732571941,0.192798863396732,1.70231974930473));
#538=CARTESIAN_POINT('',(-1.55112567874327E-13,0.337999999999551,1.84752088590753));
#539=CARTESIAN_POINT('',(1.60000006365452,0.338,0.923760369451819));
#540=CARTESIAN_POINT('',(1.60000002121816,1.3,0.923760393952464));
#541=CARTESIAN_POINT('',(1.6000000212182,1.3,-0.923760393952413));
#542=CARTESIAN_POINT('',(1.6000000212182,0.338,-0.923760442953675));
#543=CARTESIAN_POINT('',(1.60000002121819,0.194979322541137,-0.637719088035949));
#544=CARTESIAN_POINT('',(1.60000002121818,-0.0138001968336257,-0.00193137268428468));
#545=CARTESIAN_POINT('',(1.60000002121816,0.19453936962368,0.636839169246971));
#546=CARTESIAN_POINT('',(1.60000002121816,0.337999972195347,0.923760387344531));
#547=CARTESIAN_POINT('',(1.6000000212182,0.338,-0.923760442953676));
#548=CARTESIAN_POINT('',(1.6000000212182,1.3,-0.923760393952413));
#549=CARTESIAN_POINT('',(-4.2436341661967E-8,1.3,-1.84752086140682));
#550=CARTESIAN_POINT('',(-2.95521439646276E-8,0.33799996806068,-1.84752085396812));
#551=CARTESIAN_POINT('',(0.250021293370536,0.193650085968886,-1.70317097587556));
#552=CARTESIAN_POINT('',(0.794843437393294,-0.012259039525783,-1.38861776436354));
#553=CARTESIAN_POINT('',(1.34850428131796,0.192798838037506,-1.06896152708387));
#554=CARTESIAN_POINT('',(1.60000001058968,0.337999969362448,-0.923760400088795));
#555=CARTESIAN_POINT('',(2.06958473795982E-17,0.338,0.));
#556=CARTESIAN_POINT('',(0.,0.,0.));
#557=CARTESIAN_POINT('',(1.50952088590744,-9.24284434054918E-17,0.));
#558=CARTESIAN_POINT('',(0.,0.,0.));
#559=CARTESIAN_POINT('',(8.57224447675664E-17,1.4,0.));
#560=CARTESIAN_POINT('',(2.40741243048404E-32,0.,-5.52967283282311E-40));
#561=CARTESIAN_POINT('',(0.,1.,0.));
#562=CARTESIAN_POINT('',(0.,1.,0.));
#563=CARTESIAN_POINT('',(1.1,1.,0.));
#564=CARTESIAN_POINT('',(0.,0.,0.));
#565=CARTESIAN_POINT('',(1.1,0.,0.));
#566=CARTESIAN_POINT('',(0.,1.,0.));
#567=CARTESIAN_POINT('',(0.,1.,0.));
#568=CARTESIAN_POINT('',(2.5,1.,0.));
#569=CARTESIAN_POINT('',(0.,0.,0.));
#570=CARTESIAN_POINT('',(2.5,0.,0.));
#571=CARTESIAN_POINT('',(0.,1.,0.));
#572=CARTESIAN_POINT('',(0.,0.,0.));
#573=CARTESIAN_POINT('',(0.,1.3,0.));
#574=MECHANICAL_DESIGN_GEOMETRIC_PRESENTATION_REPRESENTATION('',(#237,#238,
#239,#240,#241,#242,#243,#244,#245,#246,#247,#248,#249,#250),#575);
#575=(
GEOMETRIC_REPRESENTATION_CONTEXT(3)
GLOBAL_UNCERTAINTY_ASSIGNED_CONTEXT((#578))
GLOBAL_UNIT_ASSIGNED_CONTEXT((#583,#582,#581))
REPRESENTATION_CONTEXT('S1','TOP_LEVEL_ASSEMBLY_PART')
);
#576=(
GEOMETRIC_REPRESENTATION_CONTEXT(3)
GLOBAL_UNCERTAINTY_ASSIGNED_CONTEXT((#579))
GLOBAL_UNIT_ASSIGNED_CONTEXT((#583,#582,#581))
REPRESENTATION_CONTEXT('yc','COMPONENT_PART')
);
#577=(
GEOMETRIC_REPRESENTATION_CONTEXT(3)
GLOBAL_UNCERTAINTY_ASSIGNED_CONTEXT((#580))
GLOBAL_UNIT_ASSIGNED_CONTEXT((#583,#582,#581))
REPRESENTATION_CONTEXT('\X2\57AB5708\X0\','COMPONENT_PART')
);
#578=UNCERTAINTY_MEASURE_WITH_UNIT(LENGTH_MEASURE(0.005),#583,
'DISTANCE_ACCURACY_VALUE','Maximum Tolerance applied to model');
#579=UNCERTAINTY_MEASURE_WITH_UNIT(LENGTH_MEASURE(0.005),#583,
'DISTANCE_ACCURACY_VALUE','Maximum Tolerance applied to model');
#580=UNCERTAINTY_MEASURE_WITH_UNIT(LENGTH_MEASURE(0.005),#583,
'DISTANCE_ACCURACY_VALUE','Maximum Tolerance applied to model');
#581=(
NAMED_UNIT(*)
SI_UNIT($,.STERADIAN.)
SOLID_ANGLE_UNIT()
);
#582=(
NAMED_UNIT(*)
PLANE_ANGLE_UNIT()
SI_UNIT($,.RADIAN.)
);
#583=(
LENGTH_UNIT()
NAMED_UNIT(*)
SI_UNIT(.MILLI.,.METRE.)
);
#584=PRODUCT_DEFINITION_SHAPE('','',#589);
#585=PRODUCT_DEFINITION_SHAPE('','',#590);
#586=PRODUCT_DEFINITION_SHAPE(' ','NAUO PRDDFN',#20);
#587=PRODUCT_DEFINITION_SHAPE('','',#591);
#588=PRODUCT_DEFINITION_SHAPE(' ','NAUO PRDDFN',#21);
#589=PRODUCT_DEFINITION('','',#595,#592);
#590=PRODUCT_DEFINITION('','',#596,#593);
#591=PRODUCT_DEFINITION('','',#597,#594);
#592=PRODUCT_DEFINITION_CONTEXT('',#611,'design');
#593=PRODUCT_DEFINITION_CONTEXT('',#611,'design');
#594=PRODUCT_DEFINITION_CONTEXT('',#611,'design');
#595=PRODUCT_DEFINITION_FORMATION_WITH_SPECIFIED_SOURCE('','',#601,
 .NOT_KNOWN.);
#596=PRODUCT_DEFINITION_FORMATION_WITH_SPECIFIED_SOURCE('','',#602,
 .NOT_KNOWN.);
#597=PRODUCT_DEFINITION_FORMATION_WITH_SPECIFIED_SOURCE('','',#603,
 .NOT_KNOWN.);
#598=PRODUCT_RELATED_PRODUCT_CATEGORY('','',(#601));
#599=PRODUCT_RELATED_PRODUCT_CATEGORY('','',(#602));
#600=PRODUCT_RELATED_PRODUCT_CATEGORY('','',(#603));
#601=PRODUCT('S1','S1','S1',(#607));
#602=PRODUCT('yc','yc','yc',(#608));
#603=PRODUCT('\X2\57AB5708\X0\','\X2\57AB5708\X0\','\X2\57AB5708\X0\',(#609));
#604=PRODUCT_CATEGORY('','');
#605=PRODUCT_CATEGORY('','');
#606=PRODUCT_CATEGORY('','');
#607=PRODUCT_CONTEXT('',#611,'mechanical');
#608=PRODUCT_CONTEXT('',#611,'mechanical');
#609=PRODUCT_CONTEXT('',#611,'mechanical');
#610=APPLICATION_PROTOCOL_DEFINITION('international standard',
'automotive_design',2010,#611);
#611=APPLICATION_CONTEXT(
'core data for automotive mechanical design processes');
ENDSEC;
END-ISO-10303-21;
