ISO-10303-21;
HEADER;
/* Generated by software containing HOOPS Exchange Step
 * from HOOPS Exchange, Inc. (www.tiangong.cloud) 
 */

FILE_DESCRIPTION(
/* description */ ('Unknown'),
/* implementation_level */ '2;1');

FILE_NAME(
/* name */ '\X2\7A8197625BF9710A73AF677F5F0F677E595794A252367BA16CD55170\X0\a',

/* time_stamp */ '2025-07-26T16:55:29+08:00',
/* author */ ('Unknown'),
/* organization */ ('Unknown'),
/* preprocessor_version */ 'ST-DEVELOPER v19.4',
/* originating_system */ 'TianGong',
/* authorisation */ 'Unknown');

FILE_SCHEMA (('AUTOMOTIVE_DESIGN {1 0 10303 214 3 1 1}'));
ENDSEC;

DATA;
#10=PROPERTY_DEFINITION_REPRESENTATION(#14,#12);
#11=PROPERTY_DEFINITION_REPRESENTATION(#15,#13);
#12=REPRESENTATION('',(#16),#413);
#13=REPRESENTATION('',(#17),#413);
#14=PROPERTY_DEFINITION('pmi validation property','',#418);
#15=PROPERTY_DEFINITION('pmi validation property','',#418);
#16=VALUE_REPRESENTATION_ITEM('number of annotations',COUNT_MEASURE(0.));
#17=VALUE_REPRESENTATION_ITEM('number of views',COUNT_MEASURE(0.));
#18=SHAPE_REPRESENTATION_RELATIONSHIP('','',#243,#19);
#19=ADVANCED_BREP_SHAPE_REPRESENTATION('',(#241),#413);
#20=PLANE('',#257);
#21=PLANE('',#263);
#22=PLANE('',#268);
#23=PLANE('',#274);
#24=PLANE('',#278);
#25=CONICAL_SURFACE('',#254,15.5,0.785398163397448);
#26=CONICAL_SURFACE('',#270,14.,0.307567108405333);
#27=ORIENTED_EDGE('',*,*,#67,.T.);
#28=ORIENTED_EDGE('',*,*,#68,.F.);
#29=ORIENTED_EDGE('',*,*,#69,.T.);
#30=ORIENTED_EDGE('',*,*,#70,.F.);
#31=ORIENTED_EDGE('',*,*,#71,.T.);
#32=ORIENTED_EDGE('',*,*,#72,.F.);
#33=ORIENTED_EDGE('',*,*,#73,.F.);
#34=ORIENTED_EDGE('',*,*,#74,.T.);
#35=ORIENTED_EDGE('',*,*,#75,.F.);
#36=ORIENTED_EDGE('',*,*,#67,.F.);
#37=ORIENTED_EDGE('',*,*,#69,.F.);
#38=ORIENTED_EDGE('',*,*,#71,.F.);
#39=ORIENTED_EDGE('',*,*,#76,.F.);
#40=ORIENTED_EDGE('',*,*,#77,.F.);
#41=ORIENTED_EDGE('',*,*,#78,.F.);
#42=ORIENTED_EDGE('',*,*,#77,.T.);
#43=ORIENTED_EDGE('',*,*,#68,.T.);
#44=ORIENTED_EDGE('',*,*,#70,.T.);
#45=ORIENTED_EDGE('',*,*,#72,.T.);
#46=ORIENTED_EDGE('',*,*,#79,.T.);
#47=ORIENTED_EDGE('',*,*,#80,.F.);
#48=ORIENTED_EDGE('',*,*,#78,.T.);
#49=ORIENTED_EDGE('',*,*,#74,.F.);
#50=ORIENTED_EDGE('',*,*,#80,.T.);
#51=ORIENTED_EDGE('',*,*,#76,.T.);
#52=ORIENTED_EDGE('',*,*,#79,.F.);
#53=ORIENTED_EDGE('',*,*,#81,.F.);
#54=ORIENTED_EDGE('',*,*,#73,.T.);
#55=ORIENTED_EDGE('',*,*,#82,.F.);
#56=ORIENTED_EDGE('',*,*,#81,.T.);
#57=ORIENTED_EDGE('',*,*,#83,.F.);
#58=ORIENTED_EDGE('',*,*,#82,.T.);
#59=ORIENTED_EDGE('',*,*,#84,.F.);
#60=ORIENTED_EDGE('',*,*,#83,.T.);
#61=ORIENTED_EDGE('',*,*,#85,.F.);
#62=ORIENTED_EDGE('',*,*,#84,.T.);
#63=ORIENTED_EDGE('',*,*,#86,.F.);
#64=ORIENTED_EDGE('',*,*,#85,.T.);
#65=ORIENTED_EDGE('',*,*,#75,.T.);
#66=ORIENTED_EDGE('',*,*,#86,.T.);
#67=EDGE_CURVE('',#87,#87,#107,.F.);
#68=EDGE_CURVE('',#88,#88,#108,.T.);
#69=EDGE_CURVE('',#89,#89,#109,.F.);
#70=EDGE_CURVE('',#90,#90,#110,.T.);
#71=EDGE_CURVE('',#91,#91,#111,.F.);
#72=EDGE_CURVE('',#92,#92,#112,.T.);
#73=EDGE_CURVE('',#93,#93,#113,.T.);
#74=EDGE_CURVE('',#94,#94,#114,.T.);
#75=EDGE_CURVE('',#95,#95,#115,.F.);
#76=EDGE_CURVE('',#96,#96,#116,.F.);
#77=EDGE_CURVE('',#97,#97,#117,.T.);
#78=EDGE_CURVE('',#98,#98,#118,.T.);
#79=EDGE_CURVE('',#99,#99,#119,.T.);
#80=EDGE_CURVE('',#100,#100,#120,.T.);
#81=EDGE_CURVE('',#101,#101,#121,.T.);
#82=EDGE_CURVE('',#102,#102,#122,.T.);
#83=EDGE_CURVE('',#103,#103,#123,.T.);
#84=EDGE_CURVE('',#104,#104,#124,.T.);
#85=EDGE_CURVE('',#105,#105,#125,.T.);
#86=EDGE_CURVE('',#106,#106,#126,.T.);
#87=VERTEX_POINT('',#358);
#88=VERTEX_POINT('',#360);
#89=VERTEX_POINT('',#363);
#90=VERTEX_POINT('',#365);
#91=VERTEX_POINT('',#368);
#92=VERTEX_POINT('',#370);
#93=VERTEX_POINT('',#373);
#94=VERTEX_POINT('',#375);
#95=VERTEX_POINT('',#378);
#96=VERTEX_POINT('',#380);
#97=VERTEX_POINT('',#382);
#98=VERTEX_POINT('',#385);
#99=VERTEX_POINT('',#388);
#100=VERTEX_POINT('',#390);
#101=VERTEX_POINT('',#395);
#102=VERTEX_POINT('',#398);
#103=VERTEX_POINT('',#401);
#104=VERTEX_POINT('',#404);
#105=VERTEX_POINT('',#407);
#106=VERTEX_POINT('',#410);
#107=CIRCLE('',#246,7.);
#108=CIRCLE('',#247,7.);
#109=CIRCLE('',#249,7.);
#110=CIRCLE('',#250,7.);
#111=CIRCLE('',#252,7.);
#112=CIRCLE('',#253,7.);
#113=CIRCLE('',#255,18.5);
#114=CIRCLE('',#256,15.5);
#115=CIRCLE('',#258,20.);
#116=CIRCLE('',#259,7.);
#117=CIRCLE('',#260,45.);
#118=CIRCLE('',#262,45.);
#119=CIRCLE('',#264,7.);
#120=CIRCLE('',#265,15.5);
#121=CIRCLE('',#269,14.);
#122=CIRCLE('',#271,8.6);
#123=CIRCLE('',#273,8.6);
#124=CIRCLE('',#275,6.8);
#125=CIRCLE('',#277,6.80000000000001);
#126=CIRCLE('',#279,20.);
#127=EDGE_LOOP('',(#27));
#128=EDGE_LOOP('',(#28));
#129=EDGE_LOOP('',(#29));
#130=EDGE_LOOP('',(#30));
#131=EDGE_LOOP('',(#31));
#132=EDGE_LOOP('',(#32));
#133=EDGE_LOOP('',(#33));
#134=EDGE_LOOP('',(#34));
#135=EDGE_LOOP('',(#35));
#136=EDGE_LOOP('',(#36));
#137=EDGE_LOOP('',(#37));
#138=EDGE_LOOP('',(#38));
#139=EDGE_LOOP('',(#39));
#140=EDGE_LOOP('',(#40));
#141=EDGE_LOOP('',(#41));
#142=EDGE_LOOP('',(#42));
#143=EDGE_LOOP('',(#43));
#144=EDGE_LOOP('',(#44));
#145=EDGE_LOOP('',(#45));
#146=EDGE_LOOP('',(#46));
#147=EDGE_LOOP('',(#47));
#148=EDGE_LOOP('',(#48));
#149=EDGE_LOOP('',(#49));
#150=EDGE_LOOP('',(#50));
#151=EDGE_LOOP('',(#51));
#152=EDGE_LOOP('',(#52));
#153=EDGE_LOOP('',(#53));
#154=EDGE_LOOP('',(#54));
#155=EDGE_LOOP('',(#55));
#156=EDGE_LOOP('',(#56));
#157=EDGE_LOOP('',(#57));
#158=EDGE_LOOP('',(#58));
#159=EDGE_LOOP('',(#59));
#160=EDGE_LOOP('',(#60));
#161=EDGE_LOOP('',(#61));
#162=EDGE_LOOP('',(#62));
#163=EDGE_LOOP('',(#63));
#164=EDGE_LOOP('',(#64));
#165=EDGE_LOOP('',(#65));
#166=EDGE_LOOP('',(#66));
#167=FACE_BOUND('',#127,.T.);
#168=FACE_BOUND('',#128,.T.);
#169=FACE_BOUND('',#129,.T.);
#170=FACE_BOUND('',#130,.T.);
#171=FACE_BOUND('',#131,.T.);
#172=FACE_BOUND('',#132,.T.);
#173=FACE_BOUND('',#133,.T.);
#174=FACE_BOUND('',#134,.T.);
#175=FACE_BOUND('',#135,.T.);
#176=FACE_BOUND('',#136,.T.);
#177=FACE_BOUND('',#137,.T.);
#178=FACE_BOUND('',#138,.T.);
#179=FACE_BOUND('',#139,.T.);
#180=FACE_BOUND('',#140,.T.);
#181=FACE_BOUND('',#141,.T.);
#182=FACE_BOUND('',#142,.T.);
#183=FACE_BOUND('',#143,.T.);
#184=FACE_BOUND('',#144,.T.);
#185=FACE_BOUND('',#145,.T.);
#186=FACE_BOUND('',#146,.T.);
#187=FACE_BOUND('',#147,.T.);
#188=FACE_BOUND('',#148,.T.);
#189=FACE_BOUND('',#149,.T.);
#190=FACE_BOUND('',#150,.T.);
#191=FACE_BOUND('',#151,.T.);
#192=FACE_BOUND('',#152,.T.);
#193=FACE_BOUND('',#153,.T.);
#194=FACE_BOUND('',#154,.T.);
#195=FACE_BOUND('',#155,.T.);
#196=FACE_BOUND('',#156,.T.);
#197=FACE_BOUND('',#157,.T.);
#198=FACE_BOUND('',#158,.T.);
#199=FACE_BOUND('',#159,.T.);
#200=FACE_BOUND('',#160,.T.);
#201=FACE_BOUND('',#161,.T.);
#202=FACE_BOUND('',#162,.T.);
#203=FACE_BOUND('',#163,.T.);
#204=FACE_BOUND('',#164,.T.);
#205=FACE_BOUND('',#165,.T.);
#206=FACE_BOUND('',#166,.T.);
#207=CYLINDRICAL_SURFACE('',#245,7.);
#208=CYLINDRICAL_SURFACE('',#248,7.);
#209=CYLINDRICAL_SURFACE('',#251,7.);
#210=CYLINDRICAL_SURFACE('',#261,45.);
#211=CYLINDRICAL_SURFACE('',#266,15.5);
#212=CYLINDRICAL_SURFACE('',#267,7.);
#213=CYLINDRICAL_SURFACE('',#272,8.6);
#214=CYLINDRICAL_SURFACE('',#276,6.80000000000001);
#215=CYLINDRICAL_SURFACE('',#280,20.);
#216=ADVANCED_FACE('',(#167,#168),#207,.F.);
#217=ADVANCED_FACE('',(#169,#170),#208,.F.);
#218=ADVANCED_FACE('',(#171,#172),#209,.F.);
#219=ADVANCED_FACE('',(#173,#174),#25,.F.);
#220=ADVANCED_FACE('',(#175,#176,#177,#178,#179,#180),#20,.F.);
#221=ADVANCED_FACE('',(#181,#182),#210,.T.);
#222=ADVANCED_FACE('',(#183,#184,#185,#186,#187,#188),#21,.F.);
#223=ADVANCED_FACE('',(#189,#190),#211,.F.);
#224=ADVANCED_FACE('',(#191,#192),#212,.F.);
#225=ADVANCED_FACE('',(#193,#194),#22,.F.);
#226=ADVANCED_FACE('',(#195,#196),#26,.T.);
#227=ADVANCED_FACE('',(#197,#198),#213,.T.);
#228=ADVANCED_FACE('',(#199,#200),#23,.F.);
#229=ADVANCED_FACE('',(#201,#202),#214,.F.);
#230=ADVANCED_FACE('',(#203,#204),#24,.F.);
#231=ADVANCED_FACE('',(#205,#206),#215,.T.);
#232=CLOSED_SHELL('',(#216,#217,#218,#219,#220,#221,#222,#223,#224,#225,
#226,#227,#228,#229,#230,#231));
#233=STYLED_ITEM('',(#234),#241);
#234=PRESENTATION_STYLE_ASSIGNMENT((#235));
#235=SURFACE_STYLE_USAGE(.BOTH.,#236);
#236=SURFACE_SIDE_STYLE('',(#237));
#237=SURFACE_STYLE_FILL_AREA(#238);
#238=FILL_AREA_STYLE('',(#239));
#239=FILL_AREA_STYLE_COLOUR('',#240);
#240=COLOUR_RGB('',0.506983280181885,0.531564235687256,0.550000011920929);
#241=MANIFOLD_SOLID_BREP('',#232);
#242=SHAPE_DEFINITION_REPRESENTATION(#418,#243);
#243=SHAPE_REPRESENTATION('\X2\7A8197625BF9710A73AF677F5F0F677E595794A252367BA16CD55170\X0\a',
(#244),#413);
#244=AXIS2_PLACEMENT_3D('',#355,#281,#282);
#245=AXIS2_PLACEMENT_3D('',#356,#283,#284);
#246=AXIS2_PLACEMENT_3D('',#357,#285,#286);
#247=AXIS2_PLACEMENT_3D('',#359,#287,#288);
#248=AXIS2_PLACEMENT_3D('',#361,#289,#290);
#249=AXIS2_PLACEMENT_3D('',#362,#291,#292);
#250=AXIS2_PLACEMENT_3D('',#364,#293,#294);
#251=AXIS2_PLACEMENT_3D('',#366,#295,#296);
#252=AXIS2_PLACEMENT_3D('',#367,#297,#298);
#253=AXIS2_PLACEMENT_3D('',#369,#299,#300);
#254=AXIS2_PLACEMENT_3D('',#371,#301,#302);
#255=AXIS2_PLACEMENT_3D('',#372,#303,#304);
#256=AXIS2_PLACEMENT_3D('',#374,#305,#306);
#257=AXIS2_PLACEMENT_3D('',#376,#307,#308);
#258=AXIS2_PLACEMENT_3D('',#377,#309,#310);
#259=AXIS2_PLACEMENT_3D('',#379,#311,#312);
#260=AXIS2_PLACEMENT_3D('',#381,#313,#314);
#261=AXIS2_PLACEMENT_3D('',#383,#315,#316);
#262=AXIS2_PLACEMENT_3D('',#384,#317,#318);
#263=AXIS2_PLACEMENT_3D('',#386,#319,#320);
#264=AXIS2_PLACEMENT_3D('',#387,#321,#322);
#265=AXIS2_PLACEMENT_3D('',#389,#323,#324);
#266=AXIS2_PLACEMENT_3D('',#391,#325,#326);
#267=AXIS2_PLACEMENT_3D('',#392,#327,#328);
#268=AXIS2_PLACEMENT_3D('',#393,#329,#330);
#269=AXIS2_PLACEMENT_3D('',#394,#331,#332);
#270=AXIS2_PLACEMENT_3D('',#396,#333,#334);
#271=AXIS2_PLACEMENT_3D('',#397,#335,#336);
#272=AXIS2_PLACEMENT_3D('',#399,#337,#338);
#273=AXIS2_PLACEMENT_3D('',#400,#339,#340);
#274=AXIS2_PLACEMENT_3D('',#402,#341,#342);
#275=AXIS2_PLACEMENT_3D('',#403,#343,#344);
#276=AXIS2_PLACEMENT_3D('',#405,#345,#346);
#277=AXIS2_PLACEMENT_3D('',#406,#347,#348);
#278=AXIS2_PLACEMENT_3D('',#408,#349,#350);
#279=AXIS2_PLACEMENT_3D('',#409,#351,#352);
#280=AXIS2_PLACEMENT_3D('',#411,#353,#354);
#281=DIRECTION('',(0.,0.,1.));
#282=DIRECTION('',(1.,0.,0.));
#283=DIRECTION('',(0.,0.,1.));
#284=DIRECTION('',(-1.60812264967664E-16,1.,0.));
#285=DIRECTION('',(0.,0.,1.));
#286=DIRECTION('',(-1.60812264967664E-16,1.,0.));
#287=DIRECTION('',(0.,0.,-1.));
#288=DIRECTION('',(-1.60812264967664E-16,1.,0.));
#289=DIRECTION('',(0.,0.,1.));
#290=DIRECTION('',(-1.,1.22464679914735E-16,0.));
#291=DIRECTION('',(0.,0.,1.));
#292=DIRECTION('',(-1.,1.22464679914735E-16,0.));
#293=DIRECTION('',(0.,0.,-1.));
#294=DIRECTION('',(-1.,1.22464679914735E-16,0.));
#295=DIRECTION('',(0.,0.,1.));
#296=DIRECTION('',(-1.83697019872103E-16,-1.,0.));
#297=DIRECTION('',(0.,0.,1.));
#298=DIRECTION('',(-1.83697019872103E-16,-1.,0.));
#299=DIRECTION('',(0.,0.,-1.));
#300=DIRECTION('',(-1.83697019872103E-16,-1.,0.));
#301=DIRECTION('',(0.,0.,-1.));
#302=DIRECTION('',(-1.,0.,0.));
#303=DIRECTION('',(0.,0.,1.));
#304=DIRECTION('',(1.,0.,0.));
#305=DIRECTION('',(0.,0.,1.));
#306=DIRECTION('',(1.,0.,0.));
#307=DIRECTION('',(0.,0.,1.));
#308=DIRECTION('',(1.,0.,0.));
#309=DIRECTION('',(0.,0.,1.));
#310=DIRECTION('',(1.,0.,0.));
#311=DIRECTION('',(0.,0.,1.));
#312=DIRECTION('',(1.,0.,0.));
#313=DIRECTION('',(0.,0.,1.));
#314=DIRECTION('',(1.,0.,0.));
#315=DIRECTION('',(0.,0.,1.));
#316=DIRECTION('',(1.,0.,0.));
#317=DIRECTION('',(0.,0.,1.));
#318=DIRECTION('',(1.,0.,0.));
#319=DIRECTION('',(0.,0.,-1.));
#320=DIRECTION('',(-1.,0.,0.));
#321=DIRECTION('',(0.,0.,-1.));
#322=DIRECTION('',(1.,0.,0.));
#323=DIRECTION('',(0.,0.,1.));
#324=DIRECTION('',(1.,0.,0.));
#325=DIRECTION('',(0.,0.,1.));
#326=DIRECTION('',(1.,0.,0.));
#327=DIRECTION('',(0.,0.,1.));
#328=DIRECTION('',(1.,0.,0.));
#329=DIRECTION('',(0.,0.,-1.));
#330=DIRECTION('',(-1.,0.,0.));
#331=DIRECTION('',(0.,0.,1.));
#332=DIRECTION('',(1.,0.,0.));
#333=DIRECTION('',(0.,0.,-1.));
#334=DIRECTION('',(-1.,0.,0.));
#335=DIRECTION('',(0.,0.,1.));
#336=DIRECTION('',(1.,0.,0.));
#337=DIRECTION('',(0.,0.,1.));
#338=DIRECTION('',(1.,0.,0.));
#339=DIRECTION('',(0.,0.,1.));
#340=DIRECTION('',(1.,0.,0.));
#341=DIRECTION('',(0.,0.,-1.));
#342=DIRECTION('',(-1.,0.,0.));
#343=DIRECTION('',(0.,0.,1.));
#344=DIRECTION('',(1.,0.,0.));
#345=DIRECTION('',(0.,0.,1.));
#346=DIRECTION('',(1.,0.,0.));
#347=DIRECTION('',(0.,0.,1.));
#348=DIRECTION('',(1.,0.,0.));
#349=DIRECTION('',(0.,0.,1.));
#350=DIRECTION('',(1.,0.,0.));
#351=DIRECTION('',(0.,0.,1.));
#352=DIRECTION('',(1.,0.,0.));
#353=DIRECTION('',(0.,0.,1.));
#354=DIRECTION('',(1.,0.,0.));
#355=CARTESIAN_POINT('',(0.,0.,0.));
#356=CARTESIAN_POINT('',(-30.,-4.82436794902991E-15,-102.046866420073));
#357=CARTESIAN_POINT('',(-30.,-4.82436794902991E-15,12.));
#358=CARTESIAN_POINT('',(-30.,6.99999999999999,12.));
#359=CARTESIAN_POINT('',(-30.,-4.82436794902991E-15,26.));
#360=CARTESIAN_POINT('',(-30.,6.99999999999999,26.));
#361=CARTESIAN_POINT('',(-3.67394039744206E-15,-30.,-102.046866420073));
#362=CARTESIAN_POINT('',(-3.67394039744206E-15,-30.,12.));
#363=CARTESIAN_POINT('',(-7.,-30.,12.));
#364=CARTESIAN_POINT('',(-3.67394039744206E-15,-30.,26.));
#365=CARTESIAN_POINT('',(-7.,-30.,26.));
#366=CARTESIAN_POINT('',(30.,-5.51091059616309E-15,-102.046866420073));
#367=CARTESIAN_POINT('',(30.,-5.51091059616309E-15,12.));
#368=CARTESIAN_POINT('',(30.,-7.00000000000001,12.));
#369=CARTESIAN_POINT('',(30.,-5.51091059616309E-15,26.));
#370=CARTESIAN_POINT('',(30.,-7.00000000000001,26.));
#371=CARTESIAN_POINT('',(0.,0.,15.));
#372=CARTESIAN_POINT('',(0.,0.,12.));
#373=CARTESIAN_POINT('',(18.5,0.,12.));
#374=CARTESIAN_POINT('',(0.,0.,15.));
#375=CARTESIAN_POINT('',(15.5,0.,15.));
#376=CARTESIAN_POINT('',(18.5,0.,12.));
#377=CARTESIAN_POINT('',(0.,0.,12.));
#378=CARTESIAN_POINT('',(20.,0.,12.));
#379=CARTESIAN_POINT('',(0.,30.,12.));
#380=CARTESIAN_POINT('',(7.,30.,12.));
#381=CARTESIAN_POINT('',(0.,0.,12.));
#382=CARTESIAN_POINT('',(45.,0.,12.));
#383=CARTESIAN_POINT('',(0.,0.,0.));
#384=CARTESIAN_POINT('',(0.,0.,26.));
#385=CARTESIAN_POINT('',(45.,0.,26.));
#386=CARTESIAN_POINT('',(45.,0.,26.));
#387=CARTESIAN_POINT('',(0.,30.,26.));
#388=CARTESIAN_POINT('',(7.,30.,26.));
#389=CARTESIAN_POINT('',(0.,0.,26.));
#390=CARTESIAN_POINT('',(15.5,0.,26.));
#391=CARTESIAN_POINT('',(0.,0.,0.));
#392=CARTESIAN_POINT('',(0.,30.,-102.046866420073));
#393=CARTESIAN_POINT('',(20.,0.,12.));
#394=CARTESIAN_POINT('',(0.,0.,12.));
#395=CARTESIAN_POINT('',(14.,0.,12.));
#396=CARTESIAN_POINT('',(0.,0.,12.));
#397=CARTESIAN_POINT('',(0.,0.,29.));
#398=CARTESIAN_POINT('',(8.6,0.,29.));
#399=CARTESIAN_POINT('',(0.,0.,0.));
#400=CARTESIAN_POINT('',(0.,0.,35.));
#401=CARTESIAN_POINT('',(8.6,0.,35.));
#402=CARTESIAN_POINT('',(8.6,0.,35.));
#403=CARTESIAN_POINT('',(0.,0.,35.));
#404=CARTESIAN_POINT('',(6.8,0.,35.));
#405=CARTESIAN_POINT('',(0.,0.,0.));
#406=CARTESIAN_POINT('',(0.,0.,0.));
#407=CARTESIAN_POINT('',(6.80000000000001,0.,0.));
#408=CARTESIAN_POINT('',(6.80000000000001,0.,0.));
#409=CARTESIAN_POINT('',(0.,0.,0.));
#410=CARTESIAN_POINT('',(20.,0.,0.));
#411=CARTESIAN_POINT('',(0.,0.,0.));
#412=MECHANICAL_DESIGN_GEOMETRIC_PRESENTATION_REPRESENTATION('',(#233),
#413);
#413=(
GEOMETRIC_REPRESENTATION_CONTEXT(3)
GLOBAL_UNCERTAINTY_ASSIGNED_CONTEXT((#414))
GLOBAL_UNIT_ASSIGNED_CONTEXT((#417,#416,#415))
REPRESENTATION_CONTEXT('\X2\7A8197625BF9710A73AF677F5F0F677E595794A252367BA16CD55170\X0\a',
'TOP_LEVEL_ASSEMBLY_PART')
);
#414=UNCERTAINTY_MEASURE_WITH_UNIT(LENGTH_MEASURE(0.005),#417,
'DISTANCE_ACCURACY_VALUE','Maximum Tolerance applied to model');
#415=(
NAMED_UNIT(*)
SI_UNIT($,.STERADIAN.)
SOLID_ANGLE_UNIT()
);
#416=(
NAMED_UNIT(*)
PLANE_ANGLE_UNIT()
SI_UNIT($,.RADIAN.)
);
#417=(
LENGTH_UNIT()
NAMED_UNIT(*)
SI_UNIT(.MILLI.,.METRE.)
);
#418=PRODUCT_DEFINITION_SHAPE('','',#419);
#419=PRODUCT_DEFINITION('','',#421,#420);
#420=PRODUCT_DEFINITION_CONTEXT('',#427,'design');
#421=PRODUCT_DEFINITION_FORMATION_WITH_SPECIFIED_SOURCE('','',#423,
 .NOT_KNOWN.);
#422=PRODUCT_RELATED_PRODUCT_CATEGORY('','',(#423));
#423=PRODUCT('\X2\7A8197625BF9710A73AF677F5F0F677E595794A252367BA16CD55170\X0\a',
'\X2\7A8197625BF9710A73AF677F5F0F677E595794A252367BA16CD55170\X0\a',
'\X2\7A8197625BF9710A73AF677F5F0F677E595794A252367BA16CD55170\X0\a',(#425));
#424=PRODUCT_CATEGORY('','');
#425=PRODUCT_CONTEXT('',#427,'mechanical');
#426=APPLICATION_PROTOCOL_DEFINITION('international standard',
'automotive_design',2010,#427);
#427=APPLICATION_CONTEXT(
'core data for automotive mechanical design processes');
ENDSEC;
END-ISO-10303-21;
