ISO-10303-21;
HEADER;
/* Generated by software containing HOOPS Exchange Step
 * from HOOPS Exchange, Inc. (www.tiangong.cloud) 
 */

FILE_DESCRIPTION(
/* description */ ('Unknown'),
/* implementation_level */ '2;1');

FILE_NAME(
/* name */ '\X2\51F997625BF9710A94A252367BA16CD55170\X0\',
/* time_stamp */ '2025-10-14T20:05:30+08:00',
/* author */ ('Unknown'),
/* organization */ ('Unknown'),
/* preprocessor_version */ 'ST-DEVELOPER v19.4',
/* originating_system */ 'TianGong',
/* authorisation */ 'Unknown');

FILE_SCHEMA (('AUTOMOTIVE_DESIGN {1 0 10303 214 3 1 1}'));
ENDSEC;

DATA;
#10=PROPERTY_DEFINITION_REPRESENTATION(#14,#12);
#11=PROPERTY_DEFINITION_REPRESENTATION(#15,#13);
#12=REPRESENTATION('',(#16),#453);
#13=REPRESENTATION('',(#17),#453);
#14=PROPERTY_DEFINITION('pmi validation property','',#458);
#15=PROPERTY_DEFINITION('pmi validation property','',#458);
#16=VALUE_REPRESENTATION_ITEM('number of annotations',COUNT_MEASURE(0.));
#17=VALUE_REPRESENTATION_ITEM('number of views',COUNT_MEASURE(0.));
#18=SHAPE_REPRESENTATION_RELATIONSHIP('','',#265,#19);
#19=ADVANCED_BREP_SHAPE_REPRESENTATION('',(#263),#453);
#20=TOROIDAL_SURFACE('',#302,12.6,4.);
#21=TOROIDAL_SURFACE('',#303,16.8113056817877,4.);
#22=CONICAL_SURFACE('',#287,14.,0.345555580581712);
#23=CONICAL_SURFACE('',#298,8.025,0.785398163397448);
#24=CONICAL_SURFACE('',#299,22.,0.785398163397447);
#25=PLANE('',#279);
#26=PLANE('',#285);
#27=PLANE('',#293);
#28=PLANE('',#301);
#29=PLANE('',#306);
#30=ORIENTED_EDGE('',*,*,#74,.F.);
#31=ORIENTED_EDGE('',*,*,#75,.T.);
#32=ORIENTED_EDGE('',*,*,#76,.F.);
#33=ORIENTED_EDGE('',*,*,#77,.T.);
#34=ORIENTED_EDGE('',*,*,#78,.F.);
#35=ORIENTED_EDGE('',*,*,#79,.T.);
#36=ORIENTED_EDGE('',*,*,#80,.F.);
#37=ORIENTED_EDGE('',*,*,#81,.T.);
#38=ORIENTED_EDGE('',*,*,#82,.T.);
#39=ORIENTED_EDGE('',*,*,#83,.F.);
#40=ORIENTED_EDGE('',*,*,#84,.F.);
#41=ORIENTED_EDGE('',*,*,#85,.T.);
#42=ORIENTED_EDGE('',*,*,#86,.T.);
#43=ORIENTED_EDGE('',*,*,#74,.T.);
#44=ORIENTED_EDGE('',*,*,#76,.T.);
#45=ORIENTED_EDGE('',*,*,#78,.T.);
#46=ORIENTED_EDGE('',*,*,#84,.T.);
#47=ORIENTED_EDGE('',*,*,#80,.T.);
#48=ORIENTED_EDGE('',*,*,#87,.T.);
#49=ORIENTED_EDGE('',*,*,#88,.T.);
#50=ORIENTED_EDGE('',*,*,#89,.T.);
#51=ORIENTED_EDGE('',*,*,#90,.T.);
#52=ORIENTED_EDGE('',*,*,#91,.T.);
#53=ORIENTED_EDGE('',*,*,#92,.F.);
#54=ORIENTED_EDGE('',*,*,#93,.F.);
#55=ORIENTED_EDGE('',*,*,#92,.T.);
#56=ORIENTED_EDGE('',*,*,#90,.F.);
#57=ORIENTED_EDGE('',*,*,#91,.F.);
#58=ORIENTED_EDGE('',*,*,#83,.T.);
#59=ORIENTED_EDGE('',*,*,#94,.F.);
#60=ORIENTED_EDGE('',*,*,#94,.T.);
#61=ORIENTED_EDGE('',*,*,#85,.F.);
#62=ORIENTED_EDGE('',*,*,#75,.F.);
#63=ORIENTED_EDGE('',*,*,#77,.F.);
#64=ORIENTED_EDGE('',*,*,#79,.F.);
#65=ORIENTED_EDGE('',*,*,#81,.F.);
#66=ORIENTED_EDGE('',*,*,#88,.F.);
#67=ORIENTED_EDGE('',*,*,#89,.F.);
#68=ORIENTED_EDGE('',*,*,#86,.F.);
#69=ORIENTED_EDGE('',*,*,#87,.F.);
#70=ORIENTED_EDGE('',*,*,#95,.T.);
#71=ORIENTED_EDGE('',*,*,#82,.F.);
#72=ORIENTED_EDGE('',*,*,#93,.T.);
#73=ORIENTED_EDGE('',*,*,#95,.F.);
#74=EDGE_CURVE('',#96,#96,#118,.T.);
#75=EDGE_CURVE('',#97,#97,#119,.T.);
#76=EDGE_CURVE('',#98,#98,#120,.T.);
#77=EDGE_CURVE('',#99,#99,#121,.T.);
#78=EDGE_CURVE('',#100,#100,#122,.T.);
#79=EDGE_CURVE('',#101,#101,#123,.T.);
#80=EDGE_CURVE('',#102,#102,#124,.T.);
#81=EDGE_CURVE('',#103,#103,#125,.T.);
#82=EDGE_CURVE('',#104,#104,#126,.T.);
#83=EDGE_CURVE('',#105,#105,#127,.T.);
#84=EDGE_CURVE('',#106,#106,#128,.T.);
#85=EDGE_CURVE('',#107,#107,#129,.T.);
#86=EDGE_CURVE('',#108,#108,#130,.T.);
#87=EDGE_CURVE('',#109,#109,#131,.F.);
#88=EDGE_CURVE('',#110,#110,#132,.T.);
#89=EDGE_CURVE('',#111,#111,#133,.T.);
#90=EDGE_CURVE('',#112,#112,#134,.T.);
#91=EDGE_CURVE('',#113,#113,#135,.F.);
#92=EDGE_CURVE('',#114,#114,#136,.T.);
#93=EDGE_CURVE('',#115,#115,#137,.T.);
#94=EDGE_CURVE('',#116,#116,#138,.T.);
#95=EDGE_CURVE('',#117,#117,#139,.T.);
#96=VERTEX_POINT('',#392);
#97=VERTEX_POINT('',#394);
#98=VERTEX_POINT('',#397);
#99=VERTEX_POINT('',#399);
#100=VERTEX_POINT('',#402);
#101=VERTEX_POINT('',#404);
#102=VERTEX_POINT('',#407);
#103=VERTEX_POINT('',#409);
#104=VERTEX_POINT('',#412);
#105=VERTEX_POINT('',#414);
#106=VERTEX_POINT('',#417);
#107=VERTEX_POINT('',#419);
#108=VERTEX_POINT('',#422);
#109=VERTEX_POINT('',#425);
#110=VERTEX_POINT('',#427);
#111=VERTEX_POINT('',#430);
#112=VERTEX_POINT('',#432);
#113=VERTEX_POINT('',#435);
#114=VERTEX_POINT('',#437);
#115=VERTEX_POINT('',#440);
#116=VERTEX_POINT('',#444);
#117=VERTEX_POINT('',#450);
#118=CIRCLE('',#268,7.);
#119=CIRCLE('',#269,7.);
#120=CIRCLE('',#271,7.);
#121=CIRCLE('',#272,7.);
#122=CIRCLE('',#274,7.);
#123=CIRCLE('',#275,7.);
#124=CIRCLE('',#277,45.);
#125=CIRCLE('',#278,45.);
#126=CIRCLE('',#280,17.5);
#127=CIRCLE('',#281,20.);
#128=CIRCLE('',#283,7.);
#129=CIRCLE('',#284,7.);
#130=CIRCLE('',#286,16.8113056817877);
#131=CIRCLE('',#288,13.0477560343127);
#132=CIRCLE('',#289,8.8364503525251);
#133=CIRCLE('',#291,8.6);
#134=CIRCLE('',#292,8.6);
#135=CIRCLE('',#294,8.025);
#136=CIRCLE('',#295,6.3);
#137=CIRCLE('',#297,6.30000000000001);
#138=CIRCLE('',#300,22.);
#139=CIRCLE('',#305,17.5);
#140=EDGE_LOOP('',(#30));
#141=EDGE_LOOP('',(#31));
#142=EDGE_LOOP('',(#32));
#143=EDGE_LOOP('',(#33));
#144=EDGE_LOOP('',(#34));
#145=EDGE_LOOP('',(#35));
#146=EDGE_LOOP('',(#36));
#147=EDGE_LOOP('',(#37));
#148=EDGE_LOOP('',(#38));
#149=EDGE_LOOP('',(#39));
#150=EDGE_LOOP('',(#40));
#151=EDGE_LOOP('',(#41));
#152=EDGE_LOOP('',(#42));
#153=EDGE_LOOP('',(#43));
#154=EDGE_LOOP('',(#44));
#155=EDGE_LOOP('',(#45));
#156=EDGE_LOOP('',(#46));
#157=EDGE_LOOP('',(#47));
#158=EDGE_LOOP('',(#48));
#159=EDGE_LOOP('',(#49));
#160=EDGE_LOOP('',(#50));
#161=EDGE_LOOP('',(#51));
#162=EDGE_LOOP('',(#52));
#163=EDGE_LOOP('',(#53));
#164=EDGE_LOOP('',(#54));
#165=EDGE_LOOP('',(#55));
#166=EDGE_LOOP('',(#56));
#167=EDGE_LOOP('',(#57));
#168=EDGE_LOOP('',(#58));
#169=EDGE_LOOP('',(#59));
#170=EDGE_LOOP('',(#60));
#171=EDGE_LOOP('',(#61));
#172=EDGE_LOOP('',(#62));
#173=EDGE_LOOP('',(#63));
#174=EDGE_LOOP('',(#64));
#175=EDGE_LOOP('',(#65));
#176=EDGE_LOOP('',(#66));
#177=EDGE_LOOP('',(#67));
#178=EDGE_LOOP('',(#68));
#179=EDGE_LOOP('',(#69));
#180=EDGE_LOOP('',(#70));
#181=EDGE_LOOP('',(#71));
#182=EDGE_LOOP('',(#72));
#183=EDGE_LOOP('',(#73));
#184=FACE_BOUND('',#140,.T.);
#185=FACE_BOUND('',#141,.T.);
#186=FACE_BOUND('',#142,.T.);
#187=FACE_BOUND('',#143,.T.);
#188=FACE_BOUND('',#144,.T.);
#189=FACE_BOUND('',#145,.T.);
#190=FACE_BOUND('',#146,.T.);
#191=FACE_BOUND('',#147,.T.);
#192=FACE_BOUND('',#148,.T.);
#193=FACE_BOUND('',#149,.T.);
#194=FACE_BOUND('',#150,.T.);
#195=FACE_BOUND('',#151,.T.);
#196=FACE_BOUND('',#152,.T.);
#197=FACE_BOUND('',#153,.T.);
#198=FACE_BOUND('',#154,.T.);
#199=FACE_BOUND('',#155,.T.);
#200=FACE_BOUND('',#156,.T.);
#201=FACE_BOUND('',#157,.T.);
#202=FACE_BOUND('',#158,.T.);
#203=FACE_BOUND('',#159,.T.);
#204=FACE_BOUND('',#160,.T.);
#205=FACE_BOUND('',#161,.T.);
#206=FACE_BOUND('',#162,.T.);
#207=FACE_BOUND('',#163,.T.);
#208=FACE_BOUND('',#164,.T.);
#209=FACE_BOUND('',#165,.T.);
#210=FACE_BOUND('',#166,.T.);
#211=FACE_BOUND('',#167,.T.);
#212=FACE_BOUND('',#168,.T.);
#213=FACE_BOUND('',#169,.T.);
#214=FACE_BOUND('',#170,.T.);
#215=FACE_BOUND('',#171,.T.);
#216=FACE_BOUND('',#172,.T.);
#217=FACE_BOUND('',#173,.T.);
#218=FACE_BOUND('',#174,.T.);
#219=FACE_BOUND('',#175,.T.);
#220=FACE_BOUND('',#176,.T.);
#221=FACE_BOUND('',#177,.T.);
#222=FACE_BOUND('',#178,.T.);
#223=FACE_BOUND('',#179,.T.);
#224=FACE_BOUND('',#180,.T.);
#225=FACE_BOUND('',#181,.T.);
#226=FACE_BOUND('',#182,.T.);
#227=FACE_BOUND('',#183,.T.);
#228=CYLINDRICAL_SURFACE('',#267,7.);
#229=CYLINDRICAL_SURFACE('',#270,7.);
#230=CYLINDRICAL_SURFACE('',#273,7.);
#231=CYLINDRICAL_SURFACE('',#276,45.);
#232=CYLINDRICAL_SURFACE('',#282,7.);
#233=CYLINDRICAL_SURFACE('',#290,8.6);
#234=CYLINDRICAL_SURFACE('',#296,6.30000000000001);
#235=CYLINDRICAL_SURFACE('',#304,17.5);
#236=ADVANCED_FACE('',(#184,#185),#228,.F.);
#237=ADVANCED_FACE('',(#186,#187),#229,.F.);
#238=ADVANCED_FACE('',(#188,#189),#230,.F.);
#239=ADVANCED_FACE('',(#190,#191),#231,.T.);
#240=ADVANCED_FACE('',(#192,#193),#25,.F.);
#241=ADVANCED_FACE('',(#194,#195),#232,.F.);
#242=ADVANCED_FACE('',(#196,#197,#198,#199,#200,#201),#26,.F.);
#243=ADVANCED_FACE('',(#202,#203),#22,.T.);
#244=ADVANCED_FACE('',(#204,#205),#233,.T.);
#245=ADVANCED_FACE('',(#206,#207),#27,.F.);
#246=ADVANCED_FACE('',(#208,#209),#234,.F.);
#247=ADVANCED_FACE('',(#210,#211),#23,.T.);
#248=ADVANCED_FACE('',(#212,#213),#24,.T.);
#249=ADVANCED_FACE('',(#214,#215,#216,#217,#218,#219),#28,.T.);
#250=ADVANCED_FACE('',(#220,#221),#20,.F.);
#251=ADVANCED_FACE('',(#222,#223),#21,.F.);
#252=ADVANCED_FACE('',(#224,#225),#235,.F.);
#253=ADVANCED_FACE('',(#226,#227),#29,.F.);
#254=CLOSED_SHELL('',(#236,#237,#238,#239,#240,#241,#242,#243,#244,#245,
#246,#247,#248,#249,#250,#251,#252,#253));
#255=STYLED_ITEM('',(#256),#263);
#256=PRESENTATION_STYLE_ASSIGNMENT((#257));
#257=SURFACE_STYLE_USAGE(.BOTH.,#258);
#258=SURFACE_SIDE_STYLE('',(#259));
#259=SURFACE_STYLE_FILL_AREA(#260);
#260=FILL_AREA_STYLE('',(#261));
#261=FILL_AREA_STYLE_COLOUR('',#262);
#262=COLOUR_RGB('',0.506983280181885,0.531564235687256,0.550000011920929);
#263=MANIFOLD_SOLID_BREP('',#254);
#264=SHAPE_DEFINITION_REPRESENTATION(#458,#265);
#265=SHAPE_REPRESENTATION('\X2\51F997625BF9710A94A252367BA16CD55170\X0\',
(#266),#453);
#266=AXIS2_PLACEMENT_3D('',#389,#307,#308);
#267=AXIS2_PLACEMENT_3D('',#390,#309,#310);
#268=AXIS2_PLACEMENT_3D('',#391,#311,#312);
#269=AXIS2_PLACEMENT_3D('',#393,#313,#314);
#270=AXIS2_PLACEMENT_3D('',#395,#315,#316);
#271=AXIS2_PLACEMENT_3D('',#396,#317,#318);
#272=AXIS2_PLACEMENT_3D('',#398,#319,#320);
#273=AXIS2_PLACEMENT_3D('',#400,#321,#322);
#274=AXIS2_PLACEMENT_3D('',#401,#323,#324);
#275=AXIS2_PLACEMENT_3D('',#403,#325,#326);
#276=AXIS2_PLACEMENT_3D('',#405,#327,#328);
#277=AXIS2_PLACEMENT_3D('',#406,#329,#330);
#278=AXIS2_PLACEMENT_3D('',#408,#331,#332);
#279=AXIS2_PLACEMENT_3D('',#410,#333,#334);
#280=AXIS2_PLACEMENT_3D('',#411,#335,#336);
#281=AXIS2_PLACEMENT_3D('',#413,#337,#338);
#282=AXIS2_PLACEMENT_3D('',#415,#339,#340);
#283=AXIS2_PLACEMENT_3D('',#416,#341,#342);
#284=AXIS2_PLACEMENT_3D('',#418,#343,#344);
#285=AXIS2_PLACEMENT_3D('',#420,#345,#346);
#286=AXIS2_PLACEMENT_3D('',#421,#347,#348);
#287=AXIS2_PLACEMENT_3D('',#423,#349,#350);
#288=AXIS2_PLACEMENT_3D('',#424,#351,#352);
#289=AXIS2_PLACEMENT_3D('',#426,#353,#354);
#290=AXIS2_PLACEMENT_3D('',#428,#355,#356);
#291=AXIS2_PLACEMENT_3D('',#429,#357,#358);
#292=AXIS2_PLACEMENT_3D('',#431,#359,#360);
#293=AXIS2_PLACEMENT_3D('',#433,#361,#362);
#294=AXIS2_PLACEMENT_3D('',#434,#363,#364);
#295=AXIS2_PLACEMENT_3D('',#436,#365,#366);
#296=AXIS2_PLACEMENT_3D('',#438,#367,#368);
#297=AXIS2_PLACEMENT_3D('',#439,#369,#370);
#298=AXIS2_PLACEMENT_3D('',#441,#371,#372);
#299=AXIS2_PLACEMENT_3D('',#442,#373,#374);
#300=AXIS2_PLACEMENT_3D('',#443,#375,#376);
#301=AXIS2_PLACEMENT_3D('',#445,#377,#378);
#302=AXIS2_PLACEMENT_3D('',#446,#379,#380);
#303=AXIS2_PLACEMENT_3D('',#447,#381,#382);
#304=AXIS2_PLACEMENT_3D('',#448,#383,#384);
#305=AXIS2_PLACEMENT_3D('',#449,#385,#386);
#306=AXIS2_PLACEMENT_3D('',#451,#387,#388);
#307=DIRECTION('',(0.,0.,1.));
#308=DIRECTION('',(1.,0.,0.));
#309=DIRECTION('',(0.,0.,1.));
#310=DIRECTION('',(7.27366154732462E-16,1.,0.));
#311=DIRECTION('',(0.,0.,-1.));
#312=DIRECTION('',(7.27366154732462E-16,1.,0.));
#313=DIRECTION('',(0.,0.,-1.));
#314=DIRECTION('',(-1.,0.,0.));
#315=DIRECTION('',(0.,0.,1.));
#316=DIRECTION('',(-1.,1.22464679914735E-16,0.));
#317=DIRECTION('',(0.,0.,-1.));
#318=DIRECTION('',(-1.,1.22464679914735E-16,0.));
#319=DIRECTION('',(0.,0.,-1.));
#320=DIRECTION('',(-1.,0.,0.));
#321=DIRECTION('',(0.,0.,1.));
#322=DIRECTION('',(-1.83697019872103E-16,-1.,0.));
#323=DIRECTION('',(0.,0.,-1.));
#324=DIRECTION('',(-1.83697019872103E-16,-1.,0.));
#325=DIRECTION('',(0.,0.,-1.));
#326=DIRECTION('',(-1.,0.,0.));
#327=DIRECTION('',(0.,0.,1.));
#328=DIRECTION('',(1.,0.,0.));
#329=DIRECTION('',(0.,0.,1.));
#330=DIRECTION('',(1.,0.,0.));
#331=DIRECTION('',(0.,0.,1.));
#332=DIRECTION('',(1.,0.,0.));
#333=DIRECTION('',(0.,0.,1.));
#334=DIRECTION('',(1.,0.,0.));
#335=DIRECTION('',(0.,0.,1.));
#336=DIRECTION('',(0.,-1.,0.));
#337=DIRECTION('',(0.,0.,1.));
#338=DIRECTION('',(1.,0.,0.));
#339=DIRECTION('',(0.,0.,1.));
#340=DIRECTION('',(1.,0.,0.));
#341=DIRECTION('',(0.,0.,-1.));
#342=DIRECTION('',(1.,0.,0.));
#343=DIRECTION('',(0.,0.,-1.));
#344=DIRECTION('',(-1.,0.,0.));
#345=DIRECTION('',(0.,0.,-1.));
#346=DIRECTION('',(-1.,0.,0.));
#347=DIRECTION('',(0.,0.,-1.));
#348=DIRECTION('',(-1.,0.,0.));
#349=DIRECTION('',(0.,0.,-1.));
#350=DIRECTION('',(-1.,0.,0.));
#351=DIRECTION('',(0.,0.,-1.));
#352=DIRECTION('',(-1.,0.,0.));
#353=DIRECTION('',(0.,0.,-1.));
#354=DIRECTION('',(-1.,0.,0.));
#355=DIRECTION('',(0.,0.,1.));
#356=DIRECTION('',(1.,0.,0.));
#357=DIRECTION('',(0.,0.,1.));
#358=DIRECTION('',(1.,0.,0.));
#359=DIRECTION('',(0.,0.,-1.));
#360=DIRECTION('',(-1.,0.,0.));
#361=DIRECTION('',(0.,0.,-1.));
#362=DIRECTION('',(-1.,0.,0.));
#363=DIRECTION('',(0.,0.,-1.));
#364=DIRECTION('',(-1.,0.,0.));
#365=DIRECTION('',(0.,0.,1.));
#366=DIRECTION('',(1.,0.,0.));
#367=DIRECTION('',(0.,0.,1.));
#368=DIRECTION('',(1.,0.,0.));
#369=DIRECTION('',(0.,0.,1.));
#370=DIRECTION('',(0.,-1.,0.));
#371=DIRECTION('',(0.,0.,-1.));
#372=DIRECTION('',(-1.,0.,0.));
#373=DIRECTION('',(0.,0.,1.));
#374=DIRECTION('',(1.,0.,0.));
#375=DIRECTION('',(0.,0.,1.));
#376=DIRECTION('',(1.,0.,0.));
#377=DIRECTION('',(0.,0.,-1.));
#378=DIRECTION('',(-1.,0.,0.));
#379=DIRECTION('',(0.,0.,1.));
#380=DIRECTION('',(1.,0.,0.));
#381=DIRECTION('',(0.,0.,-1.));
#382=DIRECTION('',(-1.,0.,0.));
#383=DIRECTION('',(0.,0.,-1.));
#384=DIRECTION('',(-1.,0.,0.));
#385=DIRECTION('',(0.,0.,1.));
#386=DIRECTION('',(0.,-1.,0.));
#387=DIRECTION('',(0.,0.,1.));
#388=DIRECTION('',(1.,0.,0.));
#389=CARTESIAN_POINT('',(0.,0.,0.));
#390=CARTESIAN_POINT('',(-30.,2.18209846419738E-14,-118.003787824441));
#391=CARTESIAN_POINT('',(-30.,2.18209846419738E-14,14.));
#392=CARTESIAN_POINT('',(-30.,7.00000000000002,14.));
#393=CARTESIAN_POINT('',(-30.,2.18209846419738E-14,2.));
#394=CARTESIAN_POINT('',(-37.,2.18209846419738E-14,2.));
#395=CARTESIAN_POINT('',(-3.67394039744206E-15,-30.,-118.003787824441));
#396=CARTESIAN_POINT('',(-3.67394039744206E-15,-30.,14.));
#397=CARTESIAN_POINT('',(-7.,-30.,14.));
#398=CARTESIAN_POINT('',(-3.67394039744206E-15,-30.,2.));
#399=CARTESIAN_POINT('',(-7.,-30.,2.));
#400=CARTESIAN_POINT('',(30.,-5.51091059616309E-15,-118.003787824441));
#401=CARTESIAN_POINT('',(30.,-5.51091059616309E-15,14.));
#402=CARTESIAN_POINT('',(30.,-7.00000000000001,14.));
#403=CARTESIAN_POINT('',(30.,-5.51091059616309E-15,2.));
#404=CARTESIAN_POINT('',(23.,-5.51091059616309E-15,2.));
#405=CARTESIAN_POINT('',(0.,0.,0.));
#406=CARTESIAN_POINT('',(0.,0.,14.));
#407=CARTESIAN_POINT('',(45.,0.,14.));
#408=CARTESIAN_POINT('',(0.,0.,2.));
#409=CARTESIAN_POINT('',(45.,0.,2.));
#410=CARTESIAN_POINT('',(6.30000000000001,0.,0.));
#411=CARTESIAN_POINT('',(0.,0.,-1.73472347597681E-15));
#412=CARTESIAN_POINT('',(0.,-17.5,-1.73472347597681E-15));
#413=CARTESIAN_POINT('',(0.,0.,0.));
#414=CARTESIAN_POINT('',(20.,0.,0.));
#415=CARTESIAN_POINT('',(0.,30.,-118.003787824441));
#416=CARTESIAN_POINT('',(0.,30.,14.));
#417=CARTESIAN_POINT('',(7.,30.,14.));
#418=CARTESIAN_POINT('',(0.,30.,2.));
#419=CARTESIAN_POINT('',(-7.,30.,2.));
#420=CARTESIAN_POINT('',(45.,0.,14.));
#421=CARTESIAN_POINT('',(0.,0.,14.));
#422=CARTESIAN_POINT('',(-16.8113056817877,0.,14.));
#423=CARTESIAN_POINT('',(0.,0.,14.));
#424=CARTESIAN_POINT('',(0.,0.,16.645122126909));
#425=CARTESIAN_POINT('',(-13.0477560343127,0.,16.645122126909));
#426=CARTESIAN_POINT('',(0.,0.,28.3431934652081));
#427=CARTESIAN_POINT('',(-8.8364503525251,0.,28.3431934652081));
#428=CARTESIAN_POINT('',(0.,0.,0.));
#429=CARTESIAN_POINT('',(0.,0.,29.698071338299));
#430=CARTESIAN_POINT('',(8.6,0.,29.698071338299));
#431=CARTESIAN_POINT('',(0.,0.,34.425));
#432=CARTESIAN_POINT('',(-8.6,0.,34.425));
#433=CARTESIAN_POINT('',(8.6,0.,35.));
#434=CARTESIAN_POINT('',(0.,0.,35.));
#435=CARTESIAN_POINT('',(-8.025,0.,35.));
#436=CARTESIAN_POINT('',(0.,0.,35.));
#437=CARTESIAN_POINT('',(6.3,0.,35.));
#438=CARTESIAN_POINT('',(0.,0.,0.));
#439=CARTESIAN_POINT('',(0.,0.,4.));
#440=CARTESIAN_POINT('',(0.,-6.30000000000001,4.));
#441=CARTESIAN_POINT('',(0.,0.,35.));
#442=CARTESIAN_POINT('',(0.,0.,2.));
#443=CARTESIAN_POINT('',(0.,0.,2.));
#444=CARTESIAN_POINT('',(22.,0.,2.));
#445=CARTESIAN_POINT('',(2.75536429610035E-15,45.,2.));
#446=CARTESIAN_POINT('',(0.,0.,29.698071338299));
#447=CARTESIAN_POINT('',(0.,0.,18.));
#448=CARTESIAN_POINT('',(0.,0.,4.));
#449=CARTESIAN_POINT('',(0.,0.,4.));
#450=CARTESIAN_POINT('',(0.,-17.5,4.));
#451=CARTESIAN_POINT('',(0.,0.,4.));
#452=MECHANICAL_DESIGN_GEOMETRIC_PRESENTATION_REPRESENTATION('',(#255),
#453);
#453=(
GEOMETRIC_REPRESENTATION_CONTEXT(3)
GLOBAL_UNCERTAINTY_ASSIGNED_CONTEXT((#454))
GLOBAL_UNIT_ASSIGNED_CONTEXT((#457,#456,#455))
REPRESENTATION_CONTEXT('\X2\51F997625BF9710A94A252367BA16CD55170\X0\',
'TOP_LEVEL_ASSEMBLY_PART')
);
#454=UNCERTAINTY_MEASURE_WITH_UNIT(LENGTH_MEASURE(0.005),#457,
'DISTANCE_ACCURACY_VALUE','Maximum Tolerance applied to model');
#455=(
NAMED_UNIT(*)
SI_UNIT($,.STERADIAN.)
SOLID_ANGLE_UNIT()
);
#456=(
NAMED_UNIT(*)
PLANE_ANGLE_UNIT()
SI_UNIT($,.RADIAN.)
);
#457=(
LENGTH_UNIT()
NAMED_UNIT(*)
SI_UNIT(.MILLI.,.METRE.)
);
#458=PRODUCT_DEFINITION_SHAPE('','',#459);
#459=PRODUCT_DEFINITION('','',#461,#460);
#460=PRODUCT_DEFINITION_CONTEXT('',#467,'design');
#461=PRODUCT_DEFINITION_FORMATION_WITH_SPECIFIED_SOURCE('','',#463,
 .NOT_KNOWN.);
#462=PRODUCT_RELATED_PRODUCT_CATEGORY('','',(#463));
#463=PRODUCT('\X2\51F997625BF9710A94A252367BA16CD55170\X0\',
'\X2\51F997625BF9710A94A252367BA16CD55170\X0\',
'\X2\51F997625BF9710A94A252367BA16CD55170\X0\',(#465));
#464=PRODUCT_CATEGORY('','');
#465=PRODUCT_CONTEXT('',#467,'mechanical');
#466=APPLICATION_PROTOCOL_DEFINITION('international standard',
'automotive_design',2010,#467);
#467=APPLICATION_CONTEXT(
'core data for automotive mechanical design processes');
ENDSEC;
END-ISO-10303-21;
