ISO-10303-21;
HEADER;
/* Generated by software containing HOOPS Exchange Step
 * from HOOPS Exchange, Inc. (www.tiangong.cloud) 
 */

FILE_DESCRIPTION(
/* description */ ('Unknown'),
/* implementation_level */ '2;1');

FILE_NAME(
/* name */ '\X2\73AF8FDE63A597625BF9710A73AF5E269888677E595794A252367BA16CD55170\X0\',

/* time_stamp */ '2025-10-14T20:04:19+08:00',
/* author */ ('Unknown'),
/* organization */ ('Unknown'),
/* preprocessor_version */ 'ST-DEVELOPER v19.4',
/* originating_system */ 'TianGong',
/* authorisation */ 'Unknown');

FILE_SCHEMA (('AUTOMOTIVE_DESIGN {1 0 10303 214 3 1 1}'));
ENDSEC;

DATA;
#10=PROPERTY_DEFINITION_REPRESENTATION(#14,#12);
#11=PROPERTY_DEFINITION_REPRESENTATION(#15,#13);
#12=REPRESENTATION('',(#16),#689);
#13=REPRESENTATION('',(#17),#689);
#14=PROPERTY_DEFINITION('pmi validation property','',#694);
#15=PROPERTY_DEFINITION('pmi validation property','',#694);
#16=VALUE_REPRESENTATION_ITEM('number of annotations',COUNT_MEASURE(0.));
#17=VALUE_REPRESENTATION_ITEM('number of views',COUNT_MEASURE(0.));
#18=SHAPE_REPRESENTATION_RELATIONSHIP('','',#400,#19);
#19=ADVANCED_BREP_SHAPE_REPRESENTATION('',(#398),#689);
#20=TOROIDAL_SURFACE('',#450,97.9850764681125,0.8);
#21=TOROIDAL_SURFACE('',#454,95.6949235318875,0.8);
#22=TOROIDAL_SURFACE('',#461,100.,4.);
#23=TOROIDAL_SURFACE('',#462,72.7,13.);
#24=CONICAL_SURFACE('',#448,101.21,0.401425727958692);
#25=CONICAL_SURFACE('',#456,94.9585196491256,0.401425727958695);
#26=PLANE('',#423);
#27=PLANE('',#431);
#28=PLANE('',#435);
#29=PLANE('',#441);
#30=PLANE('',#446);
#31=PLANE('',#452);
#32=PLANE('',#458);
#33=ORIENTED_EDGE('',*,*,#103,.F.);
#34=ORIENTED_EDGE('',*,*,#104,.F.);
#35=ORIENTED_EDGE('',*,*,#105,.F.);
#36=ORIENTED_EDGE('',*,*,#106,.F.);
#37=ORIENTED_EDGE('',*,*,#107,.F.);
#38=ORIENTED_EDGE('',*,*,#108,.F.);
#39=ORIENTED_EDGE('',*,*,#109,.F.);
#40=ORIENTED_EDGE('',*,*,#110,.F.);
#41=ORIENTED_EDGE('',*,*,#111,.F.);
#42=ORIENTED_EDGE('',*,*,#112,.F.);
#43=ORIENTED_EDGE('',*,*,#113,.F.);
#44=ORIENTED_EDGE('',*,*,#114,.F.);
#45=ORIENTED_EDGE('',*,*,#115,.F.);
#46=ORIENTED_EDGE('',*,*,#116,.F.);
#47=ORIENTED_EDGE('',*,*,#117,.T.);
#48=ORIENTED_EDGE('',*,*,#118,.F.);
#49=ORIENTED_EDGE('',*,*,#119,.T.);
#50=ORIENTED_EDGE('',*,*,#117,.F.);
#51=ORIENTED_EDGE('',*,*,#120,.T.);
#52=ORIENTED_EDGE('',*,*,#121,.T.);
#53=ORIENTED_EDGE('',*,*,#122,.T.);
#54=ORIENTED_EDGE('',*,*,#121,.F.);
#55=ORIENTED_EDGE('',*,*,#123,.T.);
#56=ORIENTED_EDGE('',*,*,#122,.F.);
#57=ORIENTED_EDGE('',*,*,#103,.T.);
#58=ORIENTED_EDGE('',*,*,#105,.T.);
#59=ORIENTED_EDGE('',*,*,#107,.T.);
#60=ORIENTED_EDGE('',*,*,#109,.T.);
#61=ORIENTED_EDGE('',*,*,#111,.T.);
#62=ORIENTED_EDGE('',*,*,#113,.T.);
#63=ORIENTED_EDGE('',*,*,#115,.T.);
#64=ORIENTED_EDGE('',*,*,#124,.T.);
#65=ORIENTED_EDGE('',*,*,#125,.T.);
#66=ORIENTED_EDGE('',*,*,#126,.T.);
#67=ORIENTED_EDGE('',*,*,#127,.T.);
#68=ORIENTED_EDGE('',*,*,#126,.F.);
#69=ORIENTED_EDGE('',*,*,#104,.T.);
#70=ORIENTED_EDGE('',*,*,#106,.T.);
#71=ORIENTED_EDGE('',*,*,#108,.T.);
#72=ORIENTED_EDGE('',*,*,#110,.T.);
#73=ORIENTED_EDGE('',*,*,#112,.T.);
#74=ORIENTED_EDGE('',*,*,#114,.T.);
#75=ORIENTED_EDGE('',*,*,#116,.T.);
#76=ORIENTED_EDGE('',*,*,#128,.T.);
#77=ORIENTED_EDGE('',*,*,#129,.T.);
#78=ORIENTED_EDGE('',*,*,#127,.F.);
#79=ORIENTED_EDGE('',*,*,#130,.T.);
#80=ORIENTED_EDGE('',*,*,#129,.F.);
#81=ORIENTED_EDGE('',*,*,#131,.T.);
#82=ORIENTED_EDGE('',*,*,#130,.F.);
#83=ORIENTED_EDGE('',*,*,#132,.T.);
#84=ORIENTED_EDGE('',*,*,#131,.F.);
#85=ORIENTED_EDGE('',*,*,#133,.T.);
#86=ORIENTED_EDGE('',*,*,#132,.F.);
#87=ORIENTED_EDGE('',*,*,#134,.T.);
#88=ORIENTED_EDGE('',*,*,#133,.F.);
#89=ORIENTED_EDGE('',*,*,#135,.T.);
#90=ORIENTED_EDGE('',*,*,#134,.F.);
#91=ORIENTED_EDGE('',*,*,#136,.T.);
#92=ORIENTED_EDGE('',*,*,#135,.F.);
#93=ORIENTED_EDGE('',*,*,#137,.T.);
#94=ORIENTED_EDGE('',*,*,#136,.F.);
#95=ORIENTED_EDGE('',*,*,#118,.T.);
#96=ORIENTED_EDGE('',*,*,#137,.F.);
#97=ORIENTED_EDGE('',*,*,#125,.F.);
#98=ORIENTED_EDGE('',*,*,#123,.F.);
#99=ORIENTED_EDGE('',*,*,#120,.F.);
#100=ORIENTED_EDGE('',*,*,#119,.F.);
#101=ORIENTED_EDGE('',*,*,#124,.F.);
#102=ORIENTED_EDGE('',*,*,#128,.F.);
#103=EDGE_CURVE('',#138,#138,#173,.T.);
#104=EDGE_CURVE('',#139,#139,#174,.F.);
#105=EDGE_CURVE('',#140,#140,#175,.T.);
#106=EDGE_CURVE('',#141,#141,#176,.F.);
#107=EDGE_CURVE('',#142,#142,#177,.T.);
#108=EDGE_CURVE('',#143,#143,#178,.F.);
#109=EDGE_CURVE('',#144,#144,#179,.T.);
#110=EDGE_CURVE('',#145,#145,#180,.F.);
#111=EDGE_CURVE('',#146,#146,#181,.T.);
#112=EDGE_CURVE('',#147,#147,#182,.F.);
#113=EDGE_CURVE('',#148,#148,#183,.T.);
#114=EDGE_CURVE('',#149,#149,#184,.F.);
#115=EDGE_CURVE('',#150,#150,#185,.T.);
#116=EDGE_CURVE('',#151,#151,#186,.F.);
#117=EDGE_CURVE('',#152,#152,#187,.T.);
#118=EDGE_CURVE('',#153,#153,#188,.T.);
#119=EDGE_CURVE('',#154,#154,#189,.T.);
#120=EDGE_CURVE('',#155,#155,#190,.T.);
#121=EDGE_CURVE('',#156,#156,#191,.T.);
#122=EDGE_CURVE('',#157,#157,#192,.T.);
#123=EDGE_CURVE('',#158,#158,#193,.T.);
#124=EDGE_CURVE('',#159,#159,#194,.T.);
#125=EDGE_CURVE('',#160,#160,#195,.F.);
#126=EDGE_CURVE('',#161,#161,#196,.T.);
#127=EDGE_CURVE('',#162,#162,#197,.T.);
#128=EDGE_CURVE('',#163,#163,#198,.F.);
#129=EDGE_CURVE('',#164,#164,#199,.T.);
#130=EDGE_CURVE('',#165,#165,#200,.T.);
#131=EDGE_CURVE('',#166,#166,#201,.T.);
#132=EDGE_CURVE('',#167,#167,#202,.T.);
#133=EDGE_CURVE('',#168,#168,#203,.T.);
#134=EDGE_CURVE('',#169,#169,#204,.T.);
#135=EDGE_CURVE('',#170,#170,#205,.T.);
#136=EDGE_CURVE('',#171,#171,#206,.T.);
#137=EDGE_CURVE('',#172,#172,#207,.T.);
#138=VERTEX_POINT('',#593);
#139=VERTEX_POINT('',#595);
#140=VERTEX_POINT('',#598);
#141=VERTEX_POINT('',#600);
#142=VERTEX_POINT('',#603);
#143=VERTEX_POINT('',#605);
#144=VERTEX_POINT('',#608);
#145=VERTEX_POINT('',#610);
#146=VERTEX_POINT('',#613);
#147=VERTEX_POINT('',#615);
#148=VERTEX_POINT('',#618);
#149=VERTEX_POINT('',#620);
#150=VERTEX_POINT('',#623);
#151=VERTEX_POINT('',#625);
#152=VERTEX_POINT('',#628);
#153=VERTEX_POINT('',#630);
#154=VERTEX_POINT('',#633);
#155=VERTEX_POINT('',#636);
#156=VERTEX_POINT('',#638);
#157=VERTEX_POINT('',#641);
#158=VERTEX_POINT('',#644);
#159=VERTEX_POINT('',#647);
#160=VERTEX_POINT('',#649);
#161=VERTEX_POINT('',#651);
#162=VERTEX_POINT('',#654);
#163=VERTEX_POINT('',#657);
#164=VERTEX_POINT('',#659);
#165=VERTEX_POINT('',#662);
#166=VERTEX_POINT('',#665);
#167=VERTEX_POINT('',#668);
#168=VERTEX_POINT('',#671);
#169=VERTEX_POINT('',#674);
#170=VERTEX_POINT('',#677);
#171=VERTEX_POINT('',#680);
#172=VERTEX_POINT('',#683);
#173=CIRCLE('',#403,11.);
#174=CIRCLE('',#404,11.);
#175=CIRCLE('',#406,11.);
#176=CIRCLE('',#407,11.);
#177=CIRCLE('',#409,11.);
#178=CIRCLE('',#410,11.);
#179=CIRCLE('',#412,11.);
#180=CIRCLE('',#413,11.);
#181=CIRCLE('',#415,11.);
#182=CIRCLE('',#416,11.);
#183=CIRCLE('',#418,11.);
#184=CIRCLE('',#419,11.);
#185=CIRCLE('',#421,11.);
#186=CIRCLE('',#422,11.);
#187=CIRCLE('',#424,84.15);
#188=CIRCLE('',#425,56.1);
#189=CIRCLE('',#427,84.15);
#190=CIRCLE('',#429,85.7);
#191=CIRCLE('',#430,85.7);
#192=CIRCLE('',#432,96.);
#193=CIRCLE('',#434,96.);
#194=CIRCLE('',#436,11.);
#195=CIRCLE('',#437,100.);
#196=CIRCLE('',#438,140.);
#197=CIRCLE('',#440,140.);
#198=CIRCLE('',#442,11.);
#199=CIRCLE('',#443,109.5);
#200=CIRCLE('',#445,109.5);
#201=CIRCLE('',#447,101.21);
#202=CIRCLE('',#449,98.7214803508744);
#203=CIRCLE('',#451,97.9850764681125);
#204=CIRCLE('',#453,95.6949235318875);
#205=CIRCLE('',#455,94.9585196491256);
#206=CIRCLE('',#457,92.47);
#207=CIRCLE('',#459,56.1);
#208=EDGE_LOOP('',(#33));
#209=EDGE_LOOP('',(#34));
#210=EDGE_LOOP('',(#35));
#211=EDGE_LOOP('',(#36));
#212=EDGE_LOOP('',(#37));
#213=EDGE_LOOP('',(#38));
#214=EDGE_LOOP('',(#39));
#215=EDGE_LOOP('',(#40));
#216=EDGE_LOOP('',(#41));
#217=EDGE_LOOP('',(#42));
#218=EDGE_LOOP('',(#43));
#219=EDGE_LOOP('',(#44));
#220=EDGE_LOOP('',(#45));
#221=EDGE_LOOP('',(#46));
#222=EDGE_LOOP('',(#47));
#223=EDGE_LOOP('',(#48));
#224=EDGE_LOOP('',(#49));
#225=EDGE_LOOP('',(#50));
#226=EDGE_LOOP('',(#51));
#227=EDGE_LOOP('',(#52));
#228=EDGE_LOOP('',(#53));
#229=EDGE_LOOP('',(#54));
#230=EDGE_LOOP('',(#55));
#231=EDGE_LOOP('',(#56));
#232=EDGE_LOOP('',(#57));
#233=EDGE_LOOP('',(#58));
#234=EDGE_LOOP('',(#59));
#235=EDGE_LOOP('',(#60));
#236=EDGE_LOOP('',(#61));
#237=EDGE_LOOP('',(#62));
#238=EDGE_LOOP('',(#63));
#239=EDGE_LOOP('',(#64));
#240=EDGE_LOOP('',(#65));
#241=EDGE_LOOP('',(#66));
#242=EDGE_LOOP('',(#67));
#243=EDGE_LOOP('',(#68));
#244=EDGE_LOOP('',(#69));
#245=EDGE_LOOP('',(#70));
#246=EDGE_LOOP('',(#71));
#247=EDGE_LOOP('',(#72));
#248=EDGE_LOOP('',(#73));
#249=EDGE_LOOP('',(#74));
#250=EDGE_LOOP('',(#75));
#251=EDGE_LOOP('',(#76));
#252=EDGE_LOOP('',(#77));
#253=EDGE_LOOP('',(#78));
#254=EDGE_LOOP('',(#79));
#255=EDGE_LOOP('',(#80));
#256=EDGE_LOOP('',(#81));
#257=EDGE_LOOP('',(#82));
#258=EDGE_LOOP('',(#83));
#259=EDGE_LOOP('',(#84));
#260=EDGE_LOOP('',(#85));
#261=EDGE_LOOP('',(#86));
#262=EDGE_LOOP('',(#87));
#263=EDGE_LOOP('',(#88));
#264=EDGE_LOOP('',(#89));
#265=EDGE_LOOP('',(#90));
#266=EDGE_LOOP('',(#91));
#267=EDGE_LOOP('',(#92));
#268=EDGE_LOOP('',(#93));
#269=EDGE_LOOP('',(#94));
#270=EDGE_LOOP('',(#95));
#271=EDGE_LOOP('',(#96));
#272=EDGE_LOOP('',(#97));
#273=EDGE_LOOP('',(#98));
#274=EDGE_LOOP('',(#99));
#275=EDGE_LOOP('',(#100));
#276=EDGE_LOOP('',(#101));
#277=EDGE_LOOP('',(#102));
#278=FACE_BOUND('',#208,.T.);
#279=FACE_BOUND('',#209,.T.);
#280=FACE_BOUND('',#210,.T.);
#281=FACE_BOUND('',#211,.T.);
#282=FACE_BOUND('',#212,.T.);
#283=FACE_BOUND('',#213,.T.);
#284=FACE_BOUND('',#214,.T.);
#285=FACE_BOUND('',#215,.T.);
#286=FACE_BOUND('',#216,.T.);
#287=FACE_BOUND('',#217,.T.);
#288=FACE_BOUND('',#218,.T.);
#289=FACE_BOUND('',#219,.T.);
#290=FACE_BOUND('',#220,.T.);
#291=FACE_BOUND('',#221,.T.);
#292=FACE_BOUND('',#222,.T.);
#293=FACE_BOUND('',#223,.T.);
#294=FACE_BOUND('',#224,.T.);
#295=FACE_BOUND('',#225,.T.);
#296=FACE_BOUND('',#226,.T.);
#297=FACE_BOUND('',#227,.T.);
#298=FACE_BOUND('',#228,.T.);
#299=FACE_BOUND('',#229,.T.);
#300=FACE_BOUND('',#230,.T.);
#301=FACE_BOUND('',#231,.T.);
#302=FACE_BOUND('',#232,.T.);
#303=FACE_BOUND('',#233,.T.);
#304=FACE_BOUND('',#234,.T.);
#305=FACE_BOUND('',#235,.T.);
#306=FACE_BOUND('',#236,.T.);
#307=FACE_BOUND('',#237,.T.);
#308=FACE_BOUND('',#238,.T.);
#309=FACE_BOUND('',#239,.T.);
#310=FACE_BOUND('',#240,.T.);
#311=FACE_BOUND('',#241,.T.);
#312=FACE_BOUND('',#242,.T.);
#313=FACE_BOUND('',#243,.T.);
#314=FACE_BOUND('',#244,.T.);
#315=FACE_BOUND('',#245,.T.);
#316=FACE_BOUND('',#246,.T.);
#317=FACE_BOUND('',#247,.T.);
#318=FACE_BOUND('',#248,.T.);
#319=FACE_BOUND('',#249,.T.);
#320=FACE_BOUND('',#250,.T.);
#321=FACE_BOUND('',#251,.T.);
#322=FACE_BOUND('',#252,.T.);
#323=FACE_BOUND('',#253,.T.);
#324=FACE_BOUND('',#254,.T.);
#325=FACE_BOUND('',#255,.T.);
#326=FACE_BOUND('',#256,.T.);
#327=FACE_BOUND('',#257,.T.);
#328=FACE_BOUND('',#258,.T.);
#329=FACE_BOUND('',#259,.T.);
#330=FACE_BOUND('',#260,.T.);
#331=FACE_BOUND('',#261,.T.);
#332=FACE_BOUND('',#262,.T.);
#333=FACE_BOUND('',#263,.T.);
#334=FACE_BOUND('',#264,.T.);
#335=FACE_BOUND('',#265,.T.);
#336=FACE_BOUND('',#266,.T.);
#337=FACE_BOUND('',#267,.T.);
#338=FACE_BOUND('',#268,.T.);
#339=FACE_BOUND('',#269,.T.);
#340=FACE_BOUND('',#270,.T.);
#341=FACE_BOUND('',#271,.T.);
#342=FACE_BOUND('',#272,.T.);
#343=FACE_BOUND('',#273,.T.);
#344=FACE_BOUND('',#274,.T.);
#345=FACE_BOUND('',#275,.T.);
#346=FACE_BOUND('',#276,.T.);
#347=FACE_BOUND('',#277,.T.);
#348=CYLINDRICAL_SURFACE('',#402,11.);
#349=CYLINDRICAL_SURFACE('',#405,11.);
#350=CYLINDRICAL_SURFACE('',#408,11.);
#351=CYLINDRICAL_SURFACE('',#411,11.);
#352=CYLINDRICAL_SURFACE('',#414,11.);
#353=CYLINDRICAL_SURFACE('',#417,11.);
#354=CYLINDRICAL_SURFACE('',#420,11.);
#355=CYLINDRICAL_SURFACE('',#426,84.15);
#356=CYLINDRICAL_SURFACE('',#428,85.7);
#357=CYLINDRICAL_SURFACE('',#433,96.);
#358=CYLINDRICAL_SURFACE('',#439,140.);
#359=CYLINDRICAL_SURFACE('',#444,109.5);
#360=CYLINDRICAL_SURFACE('',#460,56.1);
#361=CYLINDRICAL_SURFACE('',#463,11.);
#362=ADVANCED_FACE('',(#278,#279),#348,.F.);
#363=ADVANCED_FACE('',(#280,#281),#349,.F.);
#364=ADVANCED_FACE('',(#282,#283),#350,.F.);
#365=ADVANCED_FACE('',(#284,#285),#351,.F.);
#366=ADVANCED_FACE('',(#286,#287),#352,.F.);
#367=ADVANCED_FACE('',(#288,#289),#353,.F.);
#368=ADVANCED_FACE('',(#290,#291),#354,.F.);
#369=ADVANCED_FACE('',(#292,#293),#26,.T.);
#370=ADVANCED_FACE('',(#294,#295),#355,.T.);
#371=ADVANCED_FACE('',(#296,#297),#356,.F.);
#372=ADVANCED_FACE('',(#298,#299),#27,.T.);
#373=ADVANCED_FACE('',(#300,#301),#357,.T.);
#374=ADVANCED_FACE('',(#302,#303,#304,#305,#306,#307,#308,#309,#310,#311),
#28,.T.);
#375=ADVANCED_FACE('',(#312,#313),#358,.T.);
#376=ADVANCED_FACE('',(#314,#315,#316,#317,#318,#319,#320,#321,#322,#323),
#29,.T.);
#377=ADVANCED_FACE('',(#324,#325),#359,.T.);
#378=ADVANCED_FACE('',(#326,#327),#30,.T.);
#379=ADVANCED_FACE('',(#328,#329),#24,.F.);
#380=ADVANCED_FACE('',(#330,#331),#20,.F.);
#381=ADVANCED_FACE('',(#332,#333),#31,.T.);
#382=ADVANCED_FACE('',(#334,#335),#21,.F.);
#383=ADVANCED_FACE('',(#336,#337),#25,.T.);
#384=ADVANCED_FACE('',(#338,#339),#32,.T.);
#385=ADVANCED_FACE('',(#340,#341),#360,.F.);
#386=ADVANCED_FACE('',(#342,#343),#22,.F.);
#387=ADVANCED_FACE('',(#344,#345),#23,.F.);
#388=ADVANCED_FACE('',(#346,#347),#361,.F.);
#389=CLOSED_SHELL('',(#362,#363,#364,#365,#366,#367,#368,#369,#370,#371,
#372,#373,#374,#375,#376,#377,#378,#379,#380,#381,#382,#383,#384,#385,#386,
#387,#388));
#390=STYLED_ITEM('',(#391),#398);
#391=PRESENTATION_STYLE_ASSIGNMENT((#392));
#392=SURFACE_STYLE_USAGE(.BOTH.,#393);
#393=SURFACE_SIDE_STYLE('',(#394));
#394=SURFACE_STYLE_FILL_AREA(#395);
#395=FILL_AREA_STYLE('',(#396));
#396=FILL_AREA_STYLE_COLOUR('',#397);
#397=COLOUR_RGB('',0.506983280181885,0.531564235687256,0.550000011920929);
#398=MANIFOLD_SOLID_BREP('',#389);
#399=SHAPE_DEFINITION_REPRESENTATION(#694,#400);
#400=SHAPE_REPRESENTATION(
'\X2\73AF8FDE63A597625BF9710A73AF5E269888677E595794A252367BA16CD55170\X0\',
(#401),#689);
#401=AXIS2_PLACEMENT_3D('',#590,#464,#465);
#402=AXIS2_PLACEMENT_3D('',#591,#466,#467);
#403=AXIS2_PLACEMENT_3D('',#592,#468,#469);
#404=AXIS2_PLACEMENT_3D('',#594,#470,#471);
#405=AXIS2_PLACEMENT_3D('',#596,#472,#473);
#406=AXIS2_PLACEMENT_3D('',#597,#474,#475);
#407=AXIS2_PLACEMENT_3D('',#599,#476,#477);
#408=AXIS2_PLACEMENT_3D('',#601,#478,#479);
#409=AXIS2_PLACEMENT_3D('',#602,#480,#481);
#410=AXIS2_PLACEMENT_3D('',#604,#482,#483);
#411=AXIS2_PLACEMENT_3D('',#606,#484,#485);
#412=AXIS2_PLACEMENT_3D('',#607,#486,#487);
#413=AXIS2_PLACEMENT_3D('',#609,#488,#489);
#414=AXIS2_PLACEMENT_3D('',#611,#490,#491);
#415=AXIS2_PLACEMENT_3D('',#612,#492,#493);
#416=AXIS2_PLACEMENT_3D('',#614,#494,#495);
#417=AXIS2_PLACEMENT_3D('',#616,#496,#497);
#418=AXIS2_PLACEMENT_3D('',#617,#498,#499);
#419=AXIS2_PLACEMENT_3D('',#619,#500,#501);
#420=AXIS2_PLACEMENT_3D('',#621,#502,#503);
#421=AXIS2_PLACEMENT_3D('',#622,#504,#505);
#422=AXIS2_PLACEMENT_3D('',#624,#506,#507);
#423=AXIS2_PLACEMENT_3D('',#626,#508,#509);
#424=AXIS2_PLACEMENT_3D('',#627,#510,#511);
#425=AXIS2_PLACEMENT_3D('',#629,#512,#513);
#426=AXIS2_PLACEMENT_3D('',#631,#514,#515);
#427=AXIS2_PLACEMENT_3D('',#632,#516,#517);
#428=AXIS2_PLACEMENT_3D('',#634,#518,#519);
#429=AXIS2_PLACEMENT_3D('',#635,#520,#521);
#430=AXIS2_PLACEMENT_3D('',#637,#522,#523);
#431=AXIS2_PLACEMENT_3D('',#639,#524,#525);
#432=AXIS2_PLACEMENT_3D('',#640,#526,#527);
#433=AXIS2_PLACEMENT_3D('',#642,#528,#529);
#434=AXIS2_PLACEMENT_3D('',#643,#530,#531);
#435=AXIS2_PLACEMENT_3D('',#645,#532,#533);
#436=AXIS2_PLACEMENT_3D('',#646,#534,#535);
#437=AXIS2_PLACEMENT_3D('',#648,#536,#537);
#438=AXIS2_PLACEMENT_3D('',#650,#538,#539);
#439=AXIS2_PLACEMENT_3D('',#652,#540,#541);
#440=AXIS2_PLACEMENT_3D('',#653,#542,#543);
#441=AXIS2_PLACEMENT_3D('',#655,#544,#545);
#442=AXIS2_PLACEMENT_3D('',#656,#546,#547);
#443=AXIS2_PLACEMENT_3D('',#658,#548,#549);
#444=AXIS2_PLACEMENT_3D('',#660,#550,#551);
#445=AXIS2_PLACEMENT_3D('',#661,#552,#553);
#446=AXIS2_PLACEMENT_3D('',#663,#554,#555);
#447=AXIS2_PLACEMENT_3D('',#664,#556,#557);
#448=AXIS2_PLACEMENT_3D('',#666,#558,#559);
#449=AXIS2_PLACEMENT_3D('',#667,#560,#561);
#450=AXIS2_PLACEMENT_3D('',#669,#562,#563);
#451=AXIS2_PLACEMENT_3D('',#670,#564,#565);
#452=AXIS2_PLACEMENT_3D('',#672,#566,#567);
#453=AXIS2_PLACEMENT_3D('',#673,#568,#569);
#454=AXIS2_PLACEMENT_3D('',#675,#570,#571);
#455=AXIS2_PLACEMENT_3D('',#676,#572,#573);
#456=AXIS2_PLACEMENT_3D('',#678,#574,#575);
#457=AXIS2_PLACEMENT_3D('',#679,#576,#577);
#458=AXIS2_PLACEMENT_3D('',#681,#578,#579);
#459=AXIS2_PLACEMENT_3D('',#682,#580,#581);
#460=AXIS2_PLACEMENT_3D('',#684,#582,#583);
#461=AXIS2_PLACEMENT_3D('',#685,#584,#585);
#462=AXIS2_PLACEMENT_3D('',#686,#586,#587);
#463=AXIS2_PLACEMENT_3D('',#687,#588,#589);
#464=DIRECTION('',(0.,0.,1.));
#465=DIRECTION('',(1.,0.,0.));
#466=DIRECTION('',(0.,0.,1.));
#467=DIRECTION('',(0.707106781186547,0.707106781186548,0.));
#468=DIRECTION('',(0.,0.,-1.));
#469=DIRECTION('',(0.707106781186547,0.707106781186548,0.));
#470=DIRECTION('',(0.,0.,-1.));
#471=DIRECTION('',(-0.707106781186547,-0.707106781186548,0.));
#472=DIRECTION('',(0.,0.,1.));
#473=DIRECTION('',(-1.60812264967664E-16,1.,0.));
#474=DIRECTION('',(0.,0.,-1.));
#475=DIRECTION('',(-1.60812264967664E-16,1.,0.));
#476=DIRECTION('',(0.,0.,-1.));
#477=DIRECTION('',(1.60812264967664E-16,-1.,0.));
#478=DIRECTION('',(0.,0.,1.));
#479=DIRECTION('',(-0.707106781186548,0.707106781186547,0.));
#480=DIRECTION('',(0.,0.,-1.));
#481=DIRECTION('',(-0.707106781186548,0.707106781186547,0.));
#482=DIRECTION('',(0.,0.,-1.));
#483=DIRECTION('',(0.707106781186548,-0.707106781186547,0.));
#484=DIRECTION('',(0.,0.,1.));
#485=DIRECTION('',(-1.,1.22464679914735E-16,0.));
#486=DIRECTION('',(0.,0.,-1.));
#487=DIRECTION('',(-1.,1.22464679914735E-16,0.));
#488=DIRECTION('',(0.,0.,-1.));
#489=DIRECTION('',(1.,-1.22464679914735E-16,0.));
#490=DIRECTION('',(0.,0.,1.));
#491=DIRECTION('',(-0.707106781186548,-0.707106781186547,0.));
#492=DIRECTION('',(0.,0.,-1.));
#493=DIRECTION('',(-0.707106781186548,-0.707106781186547,0.));
#494=DIRECTION('',(0.,0.,-1.));
#495=DIRECTION('',(0.707106781186548,0.707106781186547,0.));
#496=DIRECTION('',(0.,0.,1.));
#497=DIRECTION('',(-1.83697019872103E-16,-1.,0.));
#498=DIRECTION('',(0.,0.,-1.));
#499=DIRECTION('',(-1.83697019872103E-16,-1.,0.));
#500=DIRECTION('',(0.,0.,-1.));
#501=DIRECTION('',(1.83697019872103E-16,1.,0.));
#502=DIRECTION('',(0.,0.,1.));
#503=DIRECTION('',(0.707106781186547,-0.707106781186548,0.));
#504=DIRECTION('',(0.,0.,-1.));
#505=DIRECTION('',(0.707106781186547,-0.707106781186548,0.));
#506=DIRECTION('',(0.,0.,-1.));
#507=DIRECTION('',(-0.707106781186547,0.707106781186548,0.));
#508=DIRECTION('',(0.,0.,1.));
#509=DIRECTION('',(1.,0.,0.));
#510=DIRECTION('',(0.,0.,1.));
#511=DIRECTION('',(1.,0.,0.));
#512=DIRECTION('',(0.,0.,1.));
#513=DIRECTION('',(1.,0.,0.));
#514=DIRECTION('',(0.,0.,1.));
#515=DIRECTION('',(1.,0.,0.));
#516=DIRECTION('',(0.,0.,1.));
#517=DIRECTION('',(1.,0.,0.));
#518=DIRECTION('',(0.,0.,1.));
#519=DIRECTION('',(1.,0.,0.));
#520=DIRECTION('',(0.,0.,-1.));
#521=DIRECTION('',(-1.,0.,0.));
#522=DIRECTION('',(0.,0.,1.));
#523=DIRECTION('',(1.,0.,0.));
#524=DIRECTION('',(0.,0.,1.));
#525=DIRECTION('',(1.,0.,0.));
#526=DIRECTION('',(0.,0.,1.));
#527=DIRECTION('',(1.,0.,0.));
#528=DIRECTION('',(0.,0.,1.));
#529=DIRECTION('',(1.,0.,0.));
#530=DIRECTION('',(0.,0.,1.));
#531=DIRECTION('',(1.,0.,0.));
#532=DIRECTION('',(0.,0.,1.));
#533=DIRECTION('',(1.,0.,0.));
#534=DIRECTION('',(0.,0.,-1.));
#535=DIRECTION('',(1.,0.,0.));
#536=DIRECTION('',(0.,0.,1.));
#537=DIRECTION('',(1.,0.,0.));
#538=DIRECTION('',(0.,0.,1.));
#539=DIRECTION('',(1.,0.,0.));
#540=DIRECTION('',(0.,0.,1.));
#541=DIRECTION('',(1.,0.,0.));
#542=DIRECTION('',(0.,0.,1.));
#543=DIRECTION('',(1.,0.,0.));
#544=DIRECTION('',(0.,0.,-1.));
#545=DIRECTION('',(-1.,0.,0.));
#546=DIRECTION('',(0.,0.,-1.));
#547=DIRECTION('',(-1.,0.,0.));
#548=DIRECTION('',(0.,0.,1.));
#549=DIRECTION('',(1.,0.,0.));
#550=DIRECTION('',(0.,0.,1.));
#551=DIRECTION('',(1.,0.,0.));
#552=DIRECTION('',(0.,0.,1.));
#553=DIRECTION('',(1.,0.,0.));
#554=DIRECTION('',(0.,0.,-1.));
#555=DIRECTION('',(-1.,0.,0.));
#556=DIRECTION('',(0.,0.,1.));
#557=DIRECTION('',(1.,0.,0.));
#558=DIRECTION('',(0.,0.,-1.));
#559=DIRECTION('',(-1.,0.,0.));
#560=DIRECTION('',(0.,0.,1.));
#561=DIRECTION('',(1.,0.,0.));
#562=DIRECTION('',(0.,0.,1.));
#563=DIRECTION('',(1.,0.,0.));
#564=DIRECTION('',(0.,0.,1.));
#565=DIRECTION('',(1.,0.,0.));
#566=DIRECTION('',(0.,0.,-1.));
#567=DIRECTION('',(-1.,0.,0.));
#568=DIRECTION('',(0.,0.,1.));
#569=DIRECTION('',(1.,0.,0.));
#570=DIRECTION('',(0.,0.,1.));
#571=DIRECTION('',(1.,0.,0.));
#572=DIRECTION('',(0.,0.,1.));
#573=DIRECTION('',(1.,0.,0.));
#574=DIRECTION('',(0.,0.,1.));
#575=DIRECTION('',(1.,0.,0.));
#576=DIRECTION('',(0.,0.,1.));
#577=DIRECTION('',(1.,0.,0.));
#578=DIRECTION('',(0.,0.,-1.));
#579=DIRECTION('',(-1.,0.,0.));
#580=DIRECTION('',(0.,0.,1.));
#581=DIRECTION('',(1.,0.,0.));
#582=DIRECTION('',(0.,0.,1.));
#583=DIRECTION('',(1.,0.,0.));
#584=DIRECTION('',(0.,0.,1.));
#585=DIRECTION('',(1.,0.,0.));
#586=DIRECTION('',(0.,0.,-1.));
#587=DIRECTION('',(-1.,0.,0.));
#588=DIRECTION('',(0.,0.,1.));
#589=DIRECTION('',(1.,0.,0.));
#590=CARTESIAN_POINT('',(0.,0.,0.));
#591=CARTESIAN_POINT('',(-85.312433150157,85.3124331501569,-371.153810084939));
#592=CARTESIAN_POINT('',(-85.312433150157,85.3124331501569,34.925));
#593=CARTESIAN_POINT('',(-77.5342585571049,93.090607743209,34.925));
#594=CARTESIAN_POINT('',(-85.312433150157,85.3124331501569,9.52500000000001));
#595=CARTESIAN_POINT('',(-93.090607743209,77.5342585571049,9.52500000000001));
#596=CARTESIAN_POINT('',(-120.65,-1.94019997683486E-14,-371.153810084939));
#597=CARTESIAN_POINT('',(-120.65,-1.94019997683486E-14,34.925));
#598=CARTESIAN_POINT('',(-120.65,11.,34.925));
#599=CARTESIAN_POINT('',(-120.65,-1.94019997683486E-14,9.52500000000001));
#600=CARTESIAN_POINT('',(-120.65,-11.,9.52500000000001));
#601=CARTESIAN_POINT('',(-85.3124331501569,-85.312433150157,-371.153810084939));
#602=CARTESIAN_POINT('',(-85.3124331501569,-85.312433150157,34.925));
#603=CARTESIAN_POINT('',(-93.090607743209,-77.534258557105,34.925));
#604=CARTESIAN_POINT('',(-85.3124331501569,-85.312433150157,9.52500000000001));
#605=CARTESIAN_POINT('',(-77.5342585571049,-93.090607743209,9.52500000000001));
#606=CARTESIAN_POINT('',(-1.47753636317128E-14,-120.65,-371.153810084939));
#607=CARTESIAN_POINT('',(-1.47753636317128E-14,-120.65,34.925));
#608=CARTESIAN_POINT('',(-11.,-120.65,34.925));
#609=CARTESIAN_POINT('',(-1.47753636317128E-14,-120.65,9.52500000000001));
#610=CARTESIAN_POINT('',(11.,-120.65,9.52500000000001));
#611=CARTESIAN_POINT('',(85.312433150157,-85.312433150157,-371.153810084939));
#612=CARTESIAN_POINT('',(85.312433150157,-85.312433150157,34.925));
#613=CARTESIAN_POINT('',(77.5342585571049,-93.090607743209,34.925));
#614=CARTESIAN_POINT('',(85.312433150157,-85.312433150157,9.52500000000001));
#615=CARTESIAN_POINT('',(93.090607743209,-77.5342585571049,9.52500000000001));
#616=CARTESIAN_POINT('',(120.65,-2.21630454475692E-14,-371.153810084939));
#617=CARTESIAN_POINT('',(120.65,-2.21630454475692E-14,34.925));
#618=CARTESIAN_POINT('',(120.65,-11.,34.925));
#619=CARTESIAN_POINT('',(120.65,-2.21630454475692E-14,9.52500000000001));
#620=CARTESIAN_POINT('',(120.65,11.,9.52500000000001));
#621=CARTESIAN_POINT('',(85.312433150157,85.3124331501569,-371.153810084939));
#622=CARTESIAN_POINT('',(85.312433150157,85.3124331501569,34.925));
#623=CARTESIAN_POINT('',(93.090607743209,77.5342585571049,34.925));
#624=CARTESIAN_POINT('',(85.312433150157,85.3124331501569,9.52500000000001));
#625=CARTESIAN_POINT('',(77.5342585571049,93.090607743209,9.52500000000001));
#626=CARTESIAN_POINT('',(56.1,0.,90.));
#627=CARTESIAN_POINT('',(0.,0.,90.));
#628=CARTESIAN_POINT('',(84.15,0.,90.));
#629=CARTESIAN_POINT('',(0.,0.,90.));
#630=CARTESIAN_POINT('',(56.1,0.,90.));
#631=CARTESIAN_POINT('',(0.,0.,0.));
#632=CARTESIAN_POINT('',(0.,0.,9.52500000000001));
#633=CARTESIAN_POINT('',(84.15,0.,9.52500000000001));
#634=CARTESIAN_POINT('',(0.,0.,0.));
#635=CARTESIAN_POINT('',(0.,0.,15.6810945411844));
#636=CARTESIAN_POINT('',(-85.7,0.,15.6810945411844));
#637=CARTESIAN_POINT('',(0.,0.,49.525));
#638=CARTESIAN_POINT('',(85.7,0.,49.525));
#639=CARTESIAN_POINT('',(85.7,0.,49.525));
#640=CARTESIAN_POINT('',(0.,0.,49.525));
#641=CARTESIAN_POINT('',(96.,0.,49.525));
#642=CARTESIAN_POINT('',(0.,0.,0.));
#643=CARTESIAN_POINT('',(0.,0.,38.925));
#644=CARTESIAN_POINT('',(96.,0.,38.925));
#645=CARTESIAN_POINT('',(96.,0.,34.925));
#646=CARTESIAN_POINT('',(0.,120.65,34.925));
#647=CARTESIAN_POINT('',(11.,120.65,34.925));
#648=CARTESIAN_POINT('',(0.,0.,34.925));
#649=CARTESIAN_POINT('',(100.,0.,34.925));
#650=CARTESIAN_POINT('',(0.,0.,34.925));
#651=CARTESIAN_POINT('',(140.,0.,34.925));
#652=CARTESIAN_POINT('',(0.,0.,0.));
#653=CARTESIAN_POINT('',(0.,0.,9.52500000000001));
#654=CARTESIAN_POINT('',(140.,0.,9.52500000000001));
#655=CARTESIAN_POINT('',(140.,0.,9.52500000000001));
#656=CARTESIAN_POINT('',(0.,120.65,9.52500000000001));
#657=CARTESIAN_POINT('',(-11.,120.65,9.52500000000001));
#658=CARTESIAN_POINT('',(0.,0.,9.52500000000001));
#659=CARTESIAN_POINT('',(109.5,0.,9.52500000000001));
#660=CARTESIAN_POINT('',(0.,0.,0.));
#661=CARTESIAN_POINT('',(0.,0.,1.04083408558608E-14));
#662=CARTESIAN_POINT('',(109.5,0.,1.04083408558608E-14));
#663=CARTESIAN_POINT('',(109.5,0.,7.0167130055062E-15));
#664=CARTESIAN_POINT('',(0.,0.,3.62508515515156E-15));
#665=CARTESIAN_POINT('',(101.21,0.,3.62508515515156E-15));
#666=CARTESIAN_POINT('',(0.,0.,3.62508515515156E-15));
#667=CARTESIAN_POINT('',(0.,0.,5.86258490279143));
#668=CARTESIAN_POINT('',(98.7214803508744,0.,5.86258490279143));
#669=CARTESIAN_POINT('',(0.,0.,5.55000000000001));
#670=CARTESIAN_POINT('',(0.,0.,6.35000000000001));
#671=CARTESIAN_POINT('',(97.9850764681125,0.,6.35000000000001));
#672=CARTESIAN_POINT('',(95.6949235318875,0.,6.35000000000001));
#673=CARTESIAN_POINT('',(0.,0.,6.35));
#674=CARTESIAN_POINT('',(95.6949235318875,0.,6.35));
#675=CARTESIAN_POINT('',(0.,0.,5.55));
#676=CARTESIAN_POINT('',(0.,0.,5.86258490279142));
#677=CARTESIAN_POINT('',(94.9585196491256,0.,5.86258490279142));
#678=CARTESIAN_POINT('',(0.,0.,5.86258490279142));
#679=CARTESIAN_POINT('',(0.,0.,1.29476393912298E-14));
#680=CARTESIAN_POINT('',(92.47,0.,1.29476393912298E-14));
#681=CARTESIAN_POINT('',(92.47,0.,3.75438578821188E-15));
#682=CARTESIAN_POINT('',(0.,0.,-5.438867814806E-15));
#683=CARTESIAN_POINT('',(56.1,0.,-5.438867814806E-15));
#684=CARTESIAN_POINT('',(0.,0.,0.));
#685=CARTESIAN_POINT('',(0.,0.,38.925));
#686=CARTESIAN_POINT('',(0.,0.,15.6810945411844));
#687=CARTESIAN_POINT('',(0.,120.65,-371.153810084939));
#688=MECHANICAL_DESIGN_GEOMETRIC_PRESENTATION_REPRESENTATION('',(#390),
#689);
#689=(
GEOMETRIC_REPRESENTATION_CONTEXT(3)
GLOBAL_UNCERTAINTY_ASSIGNED_CONTEXT((#690))
GLOBAL_UNIT_ASSIGNED_CONTEXT((#693,#692,#691))
REPRESENTATION_CONTEXT(
'\X2\73AF8FDE63A597625BF9710A73AF5E269888677E595794A252367BA16CD55170\X0\',
'TOP_LEVEL_ASSEMBLY_PART')
);
#690=UNCERTAINTY_MEASURE_WITH_UNIT(LENGTH_MEASURE(0.005),#693,
'DISTANCE_ACCURACY_VALUE','Maximum Tolerance applied to model');
#691=(
NAMED_UNIT(*)
SI_UNIT($,.STERADIAN.)
SOLID_ANGLE_UNIT()
);
#692=(
NAMED_UNIT(*)
PLANE_ANGLE_UNIT()
SI_UNIT($,.RADIAN.)
);
#693=(
LENGTH_UNIT()
NAMED_UNIT(*)
SI_UNIT(.MILLI.,.METRE.)
);
#694=PRODUCT_DEFINITION_SHAPE('','',#695);
#695=PRODUCT_DEFINITION('','',#697,#696);
#696=PRODUCT_DEFINITION_CONTEXT('',#703,'design');
#697=PRODUCT_DEFINITION_FORMATION_WITH_SPECIFIED_SOURCE('','',#699,
 .NOT_KNOWN.);
#698=PRODUCT_RELATED_PRODUCT_CATEGORY('','',(#699));
#699=PRODUCT('\X2\73AF8FDE63A597625BF9710A73AF5E269888677E595794A252367BA16CD55170\X0\',
'\X2\73AF8FDE63A597625BF9710A73AF5E269888677E595794A252367BA16CD55170\X0\',
'\X2\73AF8FDE63A597625BF9710A73AF5E269888677E595794A252367BA16CD55170\X0\',
(#701));
#700=PRODUCT_CATEGORY('','');
#701=PRODUCT_CONTEXT('',#703,'mechanical');
#702=APPLICATION_PROTOCOL_DEFINITION('international standard',
'automotive_design',2010,#703);
#703=APPLICATION_CONTEXT(
'core data for automotive mechanical design processes');
ENDSEC;
END-ISO-10303-21;
