ISO-10303-21;
HEADER;
/* Generated by software containing HOOPS Exchange Step
 * from HOOPS Exchange, Inc. (www.tiangong.cloud) 
 */

FILE_DESCRIPTION(
/* description */ ('Unknown'),
/* implementation_level */ '2;1');

FILE_NAME(
/* name */ '\X2\7A8197625E269888627F63D2710A94A252367BA16CD55170\X0\',
/* time_stamp */ '2025-07-26T16:05:45+08:00',
/* author */ ('Unknown'),
/* organization */ ('Unknown'),
/* preprocessor_version */ 'ST-DEVELOPER v19.4',
/* originating_system */ 'TianGong',
/* authorisation */ 'Unknown');

FILE_SCHEMA (('AUTOMOTIVE_DESIGN {1 0 10303 214 3 1 1}'));
ENDSEC;

DATA;
#10=PROPERTY_DEFINITION_REPRESENTATION(#14,#12);
#11=PROPERTY_DEFINITION_REPRESENTATION(#15,#13);
#12=REPRESENTATION('',(#16),#393);
#13=REPRESENTATION('',(#17),#393);
#14=PROPERTY_DEFINITION('pmi validation property','',#398);
#15=PROPERTY_DEFINITION('pmi validation property','',#398);
#16=VALUE_REPRESENTATION_ITEM('number of annotations',COUNT_MEASURE(0.));
#17=VALUE_REPRESENTATION_ITEM('number of views',COUNT_MEASURE(0.));
#18=SHAPE_REPRESENTATION_RELATIONSHIP('','',#232,#19);
#19=ADVANCED_BREP_SHAPE_REPRESENTATION('',(#230),#393);
#20=CONICAL_SURFACE('',#249,27.5,0.785398163397447);
#21=CONICAL_SURFACE('',#267,25.2,0.785398163397448);
#22=PLANE('',#246);
#23=PLANE('',#251);
#24=PLANE('',#255);
#25=PLANE('',#259);
#26=PLANE('',#264);
#27=ORIENTED_EDGE('',*,*,#65,.F.);
#28=ORIENTED_EDGE('',*,*,#66,.F.);
#29=ORIENTED_EDGE('',*,*,#67,.F.);
#30=ORIENTED_EDGE('',*,*,#68,.F.);
#31=ORIENTED_EDGE('',*,*,#69,.F.);
#32=ORIENTED_EDGE('',*,*,#70,.F.);
#33=ORIENTED_EDGE('',*,*,#71,.T.);
#34=ORIENTED_EDGE('',*,*,#72,.F.);
#35=ORIENTED_EDGE('',*,*,#66,.T.);
#36=ORIENTED_EDGE('',*,*,#68,.T.);
#37=ORIENTED_EDGE('',*,*,#70,.T.);
#38=ORIENTED_EDGE('',*,*,#73,.T.);
#39=ORIENTED_EDGE('',*,*,#74,.T.);
#40=ORIENTED_EDGE('',*,*,#71,.F.);
#41=ORIENTED_EDGE('',*,*,#75,.T.);
#42=ORIENTED_EDGE('',*,*,#74,.F.);
#43=ORIENTED_EDGE('',*,*,#76,.T.);
#44=ORIENTED_EDGE('',*,*,#75,.F.);
#45=ORIENTED_EDGE('',*,*,#77,.T.);
#46=ORIENTED_EDGE('',*,*,#76,.F.);
#47=ORIENTED_EDGE('',*,*,#78,.T.);
#48=ORIENTED_EDGE('',*,*,#77,.F.);
#49=ORIENTED_EDGE('',*,*,#79,.T.);
#50=ORIENTED_EDGE('',*,*,#78,.F.);
#51=ORIENTED_EDGE('',*,*,#80,.T.);
#52=ORIENTED_EDGE('',*,*,#79,.F.);
#53=ORIENTED_EDGE('',*,*,#81,.T.);
#54=ORIENTED_EDGE('',*,*,#82,.T.);
#55=ORIENTED_EDGE('',*,*,#65,.T.);
#56=ORIENTED_EDGE('',*,*,#67,.T.);
#57=ORIENTED_EDGE('',*,*,#69,.T.);
#58=ORIENTED_EDGE('',*,*,#83,.T.);
#59=ORIENTED_EDGE('',*,*,#72,.T.);
#60=ORIENTED_EDGE('',*,*,#82,.F.);
#61=ORIENTED_EDGE('',*,*,#83,.F.);
#62=ORIENTED_EDGE('',*,*,#73,.F.);
#63=ORIENTED_EDGE('',*,*,#81,.F.);
#64=ORIENTED_EDGE('',*,*,#80,.F.);
#65=EDGE_CURVE('',#84,#84,#103,.T.);
#66=EDGE_CURVE('',#85,#85,#104,.F.);
#67=EDGE_CURVE('',#86,#86,#105,.T.);
#68=EDGE_CURVE('',#87,#87,#106,.F.);
#69=EDGE_CURVE('',#88,#88,#107,.T.);
#70=EDGE_CURVE('',#89,#89,#108,.F.);
#71=EDGE_CURVE('',#90,#90,#109,.T.);
#72=EDGE_CURVE('',#91,#91,#110,.T.);
#73=EDGE_CURVE('',#92,#92,#111,.F.);
#74=EDGE_CURVE('',#93,#93,#112,.T.);
#75=EDGE_CURVE('',#94,#94,#113,.T.);
#76=EDGE_CURVE('',#95,#95,#114,.T.);
#77=EDGE_CURVE('',#96,#96,#115,.T.);
#78=EDGE_CURVE('',#97,#97,#116,.T.);
#79=EDGE_CURVE('',#98,#98,#117,.T.);
#80=EDGE_CURVE('',#99,#99,#118,.T.);
#81=EDGE_CURVE('',#100,#100,#119,.F.);
#82=EDGE_CURVE('',#101,#101,#120,.T.);
#83=EDGE_CURVE('',#102,#102,#121,.T.);
#84=VERTEX_POINT('',#341);
#85=VERTEX_POINT('',#343);
#86=VERTEX_POINT('',#346);
#87=VERTEX_POINT('',#348);
#88=VERTEX_POINT('',#351);
#89=VERTEX_POINT('',#353);
#90=VERTEX_POINT('',#356);
#91=VERTEX_POINT('',#358);
#92=VERTEX_POINT('',#361);
#93=VERTEX_POINT('',#363);
#94=VERTEX_POINT('',#366);
#95=VERTEX_POINT('',#369);
#96=VERTEX_POINT('',#372);
#97=VERTEX_POINT('',#375);
#98=VERTEX_POINT('',#378);
#99=VERTEX_POINT('',#381);
#100=VERTEX_POINT('',#384);
#101=VERTEX_POINT('',#386);
#102=VERTEX_POINT('',#389);
#103=CIRCLE('',#235,9.);
#104=CIRCLE('',#236,9.);
#105=CIRCLE('',#238,9.);
#106=CIRCLE('',#239,9.);
#107=CIRCLE('',#241,9.);
#108=CIRCLE('',#242,9.);
#109=CIRCLE('',#244,62.5);
#110=CIRCLE('',#245,62.5);
#111=CIRCLE('',#247,9.);
#112=CIRCLE('',#248,27.5);
#113=CIRCLE('',#250,25.5);
#114=CIRCLE('',#252,13.25);
#115=CIRCLE('',#254,13.25);
#116=CIRCLE('',#256,17.25);
#117=CIRCLE('',#258,17.25);
#118=CIRCLE('',#260,25.2);
#119=CIRCLE('',#262,27.);
#120=CIRCLE('',#263,27.);
#121=CIRCLE('',#265,9.);
#122=EDGE_LOOP('',(#27));
#123=EDGE_LOOP('',(#28));
#124=EDGE_LOOP('',(#29));
#125=EDGE_LOOP('',(#30));
#126=EDGE_LOOP('',(#31));
#127=EDGE_LOOP('',(#32));
#128=EDGE_LOOP('',(#33));
#129=EDGE_LOOP('',(#34));
#130=EDGE_LOOP('',(#35));
#131=EDGE_LOOP('',(#36));
#132=EDGE_LOOP('',(#37));
#133=EDGE_LOOP('',(#38));
#134=EDGE_LOOP('',(#39));
#135=EDGE_LOOP('',(#40));
#136=EDGE_LOOP('',(#41));
#137=EDGE_LOOP('',(#42));
#138=EDGE_LOOP('',(#43));
#139=EDGE_LOOP('',(#44));
#140=EDGE_LOOP('',(#45));
#141=EDGE_LOOP('',(#46));
#142=EDGE_LOOP('',(#47));
#143=EDGE_LOOP('',(#48));
#144=EDGE_LOOP('',(#49));
#145=EDGE_LOOP('',(#50));
#146=EDGE_LOOP('',(#51));
#147=EDGE_LOOP('',(#52));
#148=EDGE_LOOP('',(#53));
#149=EDGE_LOOP('',(#54));
#150=EDGE_LOOP('',(#55));
#151=EDGE_LOOP('',(#56));
#152=EDGE_LOOP('',(#57));
#153=EDGE_LOOP('',(#58));
#154=EDGE_LOOP('',(#59));
#155=EDGE_LOOP('',(#60));
#156=EDGE_LOOP('',(#61));
#157=EDGE_LOOP('',(#62));
#158=EDGE_LOOP('',(#63));
#159=EDGE_LOOP('',(#64));
#160=FACE_BOUND('',#122,.T.);
#161=FACE_BOUND('',#123,.T.);
#162=FACE_BOUND('',#124,.T.);
#163=FACE_BOUND('',#125,.T.);
#164=FACE_BOUND('',#126,.T.);
#165=FACE_BOUND('',#127,.T.);
#166=FACE_BOUND('',#128,.T.);
#167=FACE_BOUND('',#129,.T.);
#168=FACE_BOUND('',#130,.T.);
#169=FACE_BOUND('',#131,.T.);
#170=FACE_BOUND('',#132,.T.);
#171=FACE_BOUND('',#133,.T.);
#172=FACE_BOUND('',#134,.T.);
#173=FACE_BOUND('',#135,.T.);
#174=FACE_BOUND('',#136,.T.);
#175=FACE_BOUND('',#137,.T.);
#176=FACE_BOUND('',#138,.T.);
#177=FACE_BOUND('',#139,.T.);
#178=FACE_BOUND('',#140,.T.);
#179=FACE_BOUND('',#141,.T.);
#180=FACE_BOUND('',#142,.T.);
#181=FACE_BOUND('',#143,.T.);
#182=FACE_BOUND('',#144,.T.);
#183=FACE_BOUND('',#145,.T.);
#184=FACE_BOUND('',#146,.T.);
#185=FACE_BOUND('',#147,.T.);
#186=FACE_BOUND('',#148,.T.);
#187=FACE_BOUND('',#149,.T.);
#188=FACE_BOUND('',#150,.T.);
#189=FACE_BOUND('',#151,.T.);
#190=FACE_BOUND('',#152,.T.);
#191=FACE_BOUND('',#153,.T.);
#192=FACE_BOUND('',#154,.T.);
#193=FACE_BOUND('',#155,.T.);
#194=FACE_BOUND('',#156,.T.);
#195=FACE_BOUND('',#157,.T.);
#196=FACE_BOUND('',#158,.T.);
#197=FACE_BOUND('',#159,.T.);
#198=CYLINDRICAL_SURFACE('',#234,9.);
#199=CYLINDRICAL_SURFACE('',#237,9.);
#200=CYLINDRICAL_SURFACE('',#240,9.);
#201=CYLINDRICAL_SURFACE('',#243,62.5);
#202=CYLINDRICAL_SURFACE('',#253,13.25);
#203=CYLINDRICAL_SURFACE('',#257,17.25);
#204=CYLINDRICAL_SURFACE('',#261,27.);
#205=CYLINDRICAL_SURFACE('',#266,9.);
#206=ADVANCED_FACE('',(#160,#161),#198,.F.);
#207=ADVANCED_FACE('',(#162,#163),#199,.F.);
#208=ADVANCED_FACE('',(#164,#165),#200,.F.);
#209=ADVANCED_FACE('',(#166,#167),#201,.T.);
#210=ADVANCED_FACE('',(#168,#169,#170,#171,#172,#173),#22,.T.);
#211=ADVANCED_FACE('',(#174,#175),#20,.T.);
#212=ADVANCED_FACE('',(#176,#177),#23,.T.);
#213=ADVANCED_FACE('',(#178,#179),#202,.F.);
#214=ADVANCED_FACE('',(#180,#181),#24,.T.);
#215=ADVANCED_FACE('',(#182,#183),#203,.F.);
#216=ADVANCED_FACE('',(#184,#185),#25,.T.);
#217=ADVANCED_FACE('',(#186,#187),#204,.T.);
#218=ADVANCED_FACE('',(#188,#189,#190,#191,#192,#193),#26,.T.);
#219=ADVANCED_FACE('',(#194,#195),#205,.F.);
#220=ADVANCED_FACE('',(#196,#197),#21,.T.);
#221=CLOSED_SHELL('',(#206,#207,#208,#209,#210,#211,#212,#213,#214,#215,
#216,#217,#218,#219,#220));
#222=STYLED_ITEM('',(#223),#230);
#223=PRESENTATION_STYLE_ASSIGNMENT((#224));
#224=SURFACE_STYLE_USAGE(.BOTH.,#225);
#225=SURFACE_SIDE_STYLE('',(#226));
#226=SURFACE_STYLE_FILL_AREA(#227);
#227=FILL_AREA_STYLE('',(#228));
#228=FILL_AREA_STYLE_COLOUR('',#229);
#229=COLOUR_RGB('',0.506983280181885,0.531564235687256,0.550000011920929);
#230=MANIFOLD_SOLID_BREP('',#221);
#231=SHAPE_DEFINITION_REPRESENTATION(#398,#232);
#232=SHAPE_REPRESENTATION('\X2\7A8197625E269888627F63D2710A94A252367BA16CD55170\X0\',
(#233),#393);
#233=AXIS2_PLACEMENT_3D('',#338,#268,#269);
#234=AXIS2_PLACEMENT_3D('',#339,#270,#271);
#235=AXIS2_PLACEMENT_3D('',#340,#272,#273);
#236=AXIS2_PLACEMENT_3D('',#342,#274,#275);
#237=AXIS2_PLACEMENT_3D('',#344,#276,#277);
#238=AXIS2_PLACEMENT_3D('',#345,#278,#279);
#239=AXIS2_PLACEMENT_3D('',#347,#280,#281);
#240=AXIS2_PLACEMENT_3D('',#349,#282,#283);
#241=AXIS2_PLACEMENT_3D('',#350,#284,#285);
#242=AXIS2_PLACEMENT_3D('',#352,#286,#287);
#243=AXIS2_PLACEMENT_3D('',#354,#288,#289);
#244=AXIS2_PLACEMENT_3D('',#355,#290,#291);
#245=AXIS2_PLACEMENT_3D('',#357,#292,#293);
#246=AXIS2_PLACEMENT_3D('',#359,#294,#295);
#247=AXIS2_PLACEMENT_3D('',#360,#296,#297);
#248=AXIS2_PLACEMENT_3D('',#362,#298,#299);
#249=AXIS2_PLACEMENT_3D('',#364,#300,#301);
#250=AXIS2_PLACEMENT_3D('',#365,#302,#303);
#251=AXIS2_PLACEMENT_3D('',#367,#304,#305);
#252=AXIS2_PLACEMENT_3D('',#368,#306,#307);
#253=AXIS2_PLACEMENT_3D('',#370,#308,#309);
#254=AXIS2_PLACEMENT_3D('',#371,#310,#311);
#255=AXIS2_PLACEMENT_3D('',#373,#312,#313);
#256=AXIS2_PLACEMENT_3D('',#374,#314,#315);
#257=AXIS2_PLACEMENT_3D('',#376,#316,#317);
#258=AXIS2_PLACEMENT_3D('',#377,#318,#319);
#259=AXIS2_PLACEMENT_3D('',#379,#320,#321);
#260=AXIS2_PLACEMENT_3D('',#380,#322,#323);
#261=AXIS2_PLACEMENT_3D('',#382,#324,#325);
#262=AXIS2_PLACEMENT_3D('',#383,#326,#327);
#263=AXIS2_PLACEMENT_3D('',#385,#328,#329);
#264=AXIS2_PLACEMENT_3D('',#387,#330,#331);
#265=AXIS2_PLACEMENT_3D('',#388,#332,#333);
#266=AXIS2_PLACEMENT_3D('',#390,#334,#335);
#267=AXIS2_PLACEMENT_3D('',#391,#336,#337);
#268=DIRECTION('',(0.,0.,1.));
#269=DIRECTION('',(1.,0.,0.));
#270=DIRECTION('',(0.,0.,1.));
#271=DIRECTION('',(-1.60812264967664E-16,1.,0.));
#272=DIRECTION('',(0.,0.,-1.));
#273=DIRECTION('',(-1.60812264967664E-16,1.,0.));
#274=DIRECTION('',(0.,0.,-1.));
#275=DIRECTION('',(1.60812264967664E-16,-1.,0.));
#276=DIRECTION('',(0.,0.,1.));
#277=DIRECTION('',(-1.,1.22464679914735E-16,0.));
#278=DIRECTION('',(0.,0.,-1.));
#279=DIRECTION('',(-1.,1.22464679914735E-16,0.));
#280=DIRECTION('',(0.,0.,-1.));
#281=DIRECTION('',(1.,-1.22464679914735E-16,0.));
#282=DIRECTION('',(0.,0.,1.));
#283=DIRECTION('',(-1.83697019872103E-16,-1.,0.));
#284=DIRECTION('',(0.,0.,-1.));
#285=DIRECTION('',(-1.83697019872103E-16,-1.,0.));
#286=DIRECTION('',(0.,0.,-1.));
#287=DIRECTION('',(1.83697019872103E-16,1.,0.));
#288=DIRECTION('',(0.,0.,1.));
#289=DIRECTION('',(1.,0.,0.));
#290=DIRECTION('',(0.,0.,1.));
#291=DIRECTION('',(1.,0.,0.));
#292=DIRECTION('',(0.,0.,1.));
#293=DIRECTION('',(1.,0.,0.));
#294=DIRECTION('',(0.,0.,-1.));
#295=DIRECTION('',(-1.,0.,0.));
#296=DIRECTION('',(0.,0.,-1.));
#297=DIRECTION('',(-1.,0.,0.));
#298=DIRECTION('',(0.,0.,1.));
#299=DIRECTION('',(1.,0.,0.));
#300=DIRECTION('',(0.,0.,1.));
#301=DIRECTION('',(1.,0.,0.));
#302=DIRECTION('',(0.,0.,1.));
#303=DIRECTION('',(1.,0.,0.));
#304=DIRECTION('',(0.,0.,-1.));
#305=DIRECTION('',(-1.,0.,0.));
#306=DIRECTION('',(0.,0.,1.));
#307=DIRECTION('',(1.,0.,0.));
#308=DIRECTION('',(0.,0.,1.));
#309=DIRECTION('',(1.,0.,0.));
#310=DIRECTION('',(0.,0.,1.));
#311=DIRECTION('',(1.,0.,0.));
#312=DIRECTION('',(0.,0.,1.));
#313=DIRECTION('',(1.,0.,0.));
#314=DIRECTION('',(0.,0.,1.));
#315=DIRECTION('',(1.,0.,0.));
#316=DIRECTION('',(0.,0.,1.));
#317=DIRECTION('',(1.,0.,0.));
#318=DIRECTION('',(0.,0.,1.));
#319=DIRECTION('',(1.,0.,0.));
#320=DIRECTION('',(0.,0.,1.));
#321=DIRECTION('',(1.,0.,0.));
#322=DIRECTION('',(0.,0.,1.));
#323=DIRECTION('',(1.,0.,0.));
#324=DIRECTION('',(0.,0.,1.));
#325=DIRECTION('',(1.,0.,0.));
#326=DIRECTION('',(0.,0.,1.));
#327=DIRECTION('',(1.,0.,0.));
#328=DIRECTION('',(0.,0.,1.));
#329=DIRECTION('',(1.,0.,0.));
#330=DIRECTION('',(0.,0.,1.));
#331=DIRECTION('',(1.,0.,0.));
#332=DIRECTION('',(0.,0.,-1.));
#333=DIRECTION('',(1.,0.,0.));
#334=DIRECTION('',(0.,0.,1.));
#335=DIRECTION('',(1.,0.,0.));
#336=DIRECTION('',(0.,0.,-1.));
#337=DIRECTION('',(-1.,0.,0.));
#338=CARTESIAN_POINT('',(0.,0.,0.));
#339=CARTESIAN_POINT('',(-44.5,-7.15614579106103E-15,-161.326731782472));
#340=CARTESIAN_POINT('',(-44.5,-7.15614579106103E-15,17.5));
#341=CARTESIAN_POINT('',(-44.5,8.99999999999999,17.5));
#342=CARTESIAN_POINT('',(-44.5,-7.15614579106103E-15,2.));
#343=CARTESIAN_POINT('',(-44.5,-9.00000000000001,2.));
#344=CARTESIAN_POINT('',(-5.44967825620572E-15,-44.5,-161.326731782472));
#345=CARTESIAN_POINT('',(-5.44967825620572E-15,-44.5,17.5));
#346=CARTESIAN_POINT('',(-9.00000000000001,-44.5,17.5));
#347=CARTESIAN_POINT('',(-5.44967825620572E-15,-44.5,2.));
#348=CARTESIAN_POINT('',(9.,-44.5,2.));
#349=CARTESIAN_POINT('',(44.5,-8.17451738430858E-15,-161.326731782472));
#350=CARTESIAN_POINT('',(44.5,-8.17451738430858E-15,17.5));
#351=CARTESIAN_POINT('',(44.5,-9.00000000000001,17.5));
#352=CARTESIAN_POINT('',(44.5,-8.17451738430858E-15,2.));
#353=CARTESIAN_POINT('',(44.5,8.99999999999999,2.));
#354=CARTESIAN_POINT('',(0.,0.,0.));
#355=CARTESIAN_POINT('',(0.,0.,2.00000000000001));
#356=CARTESIAN_POINT('',(62.5,0.,2.00000000000001));
#357=CARTESIAN_POINT('',(0.,0.,17.5));
#358=CARTESIAN_POINT('',(62.5,0.,17.5));
#359=CARTESIAN_POINT('',(62.5,0.,2.));
#360=CARTESIAN_POINT('',(0.,44.5,2.));
#361=CARTESIAN_POINT('',(-9.,44.5,2.));
#362=CARTESIAN_POINT('',(0.,0.,2.));
#363=CARTESIAN_POINT('',(27.5,0.,2.));
#364=CARTESIAN_POINT('',(0.,0.,2.));
#365=CARTESIAN_POINT('',(0.,0.,8.67361737988404E-16));
#366=CARTESIAN_POINT('',(25.5,0.,8.67361737988404E-16));
#367=CARTESIAN_POINT('',(25.5,0.,-3.16415295483552E-16));
#368=CARTESIAN_POINT('',(0.,0.,-1.50019232895551E-15));
#369=CARTESIAN_POINT('',(13.25,0.,-1.50019232895551E-15));
#370=CARTESIAN_POINT('',(0.,0.,0.));
#371=CARTESIAN_POINT('',(0.,0.,12.75));
#372=CARTESIAN_POINT('',(13.25,0.,12.75));
#373=CARTESIAN_POINT('',(13.25,0.,12.75));
#374=CARTESIAN_POINT('',(0.,0.,12.75));
#375=CARTESIAN_POINT('',(17.25,0.,12.75));
#376=CARTESIAN_POINT('',(0.,0.,0.));
#377=CARTESIAN_POINT('',(0.,0.,27.));
#378=CARTESIAN_POINT('',(17.25,0.,27.));
#379=CARTESIAN_POINT('',(17.25,0.,27.));
#380=CARTESIAN_POINT('',(0.,0.,27.));
#381=CARTESIAN_POINT('',(25.2,0.,27.));
#382=CARTESIAN_POINT('',(0.,0.,0.));
#383=CARTESIAN_POINT('',(0.,0.,25.2));
#384=CARTESIAN_POINT('',(27.,0.,25.2));
#385=CARTESIAN_POINT('',(0.,0.,17.5));
#386=CARTESIAN_POINT('',(27.,0.,17.5));
#387=CARTESIAN_POINT('',(27.,0.,17.5));
#388=CARTESIAN_POINT('',(0.,44.5,17.5));
#389=CARTESIAN_POINT('',(9.,44.5,17.5));
#390=CARTESIAN_POINT('',(0.,44.5,-161.326731782472));
#391=CARTESIAN_POINT('',(0.,0.,27.));
#392=MECHANICAL_DESIGN_GEOMETRIC_PRESENTATION_REPRESENTATION('',(#222),
#393);
#393=(
GEOMETRIC_REPRESENTATION_CONTEXT(3)
GLOBAL_UNCERTAINTY_ASSIGNED_CONTEXT((#394))
GLOBAL_UNIT_ASSIGNED_CONTEXT((#397,#396,#395))
REPRESENTATION_CONTEXT('\X2\7A8197625E269888627F63D2710A94A252367BA16CD55170\X0\',
'TOP_LEVEL_ASSEMBLY_PART')
);
#394=UNCERTAINTY_MEASURE_WITH_UNIT(LENGTH_MEASURE(0.005),#397,
'DISTANCE_ACCURACY_VALUE','Maximum Tolerance applied to model');
#395=(
NAMED_UNIT(*)
SI_UNIT($,.STERADIAN.)
SOLID_ANGLE_UNIT()
);
#396=(
NAMED_UNIT(*)
PLANE_ANGLE_UNIT()
SI_UNIT($,.RADIAN.)
);
#397=(
LENGTH_UNIT()
NAMED_UNIT(*)
SI_UNIT(.MILLI.,.METRE.)
);
#398=PRODUCT_DEFINITION_SHAPE('','',#399);
#399=PRODUCT_DEFINITION('','',#401,#400);
#400=PRODUCT_DEFINITION_CONTEXT('',#407,'design');
#401=PRODUCT_DEFINITION_FORMATION_WITH_SPECIFIED_SOURCE('','',#403,
 .NOT_KNOWN.);
#402=PRODUCT_RELATED_PRODUCT_CATEGORY('','',(#403));
#403=PRODUCT('\X2\7A8197625E269888627F63D2710A94A252367BA16CD55170\X0\',
'\X2\7A8197625E269888627F63D2710A94A252367BA16CD55170\X0\',
'\X2\7A8197625E269888627F63D2710A94A252367BA16CD55170\X0\',(#405));
#404=PRODUCT_CATEGORY('','');
#405=PRODUCT_CONTEXT('',#407,'mechanical');
#406=APPLICATION_PROTOCOL_DEFINITION('international standard',
'automotive_design',2010,#407);
#407=APPLICATION_CONTEXT(
'core data for automotive mechanical design processes');
ENDSEC;
END-ISO-10303-21;
