ISO-10303-21;
HEADER;
/* Generated by software containing HOOPS Exchange Step
 * from HOOPS Exchange, Inc. (www.tiangong.cloud) 
 */

FILE_DESCRIPTION(
/* description */ ('Unknown'),
/* implementation_level */ '2;1');

FILE_NAME(
/* name */ '\X2\94DC540891D15BF9710A73AF677E5957677F5F0F94A26CD55170\X0\ 
GBT15530.5-2008',
/* time_stamp */ '2025-10-14T20:02:39+08:00',
/* author */ ('Unknown'),
/* organization */ ('Unknown'),
/* preprocessor_version */ 'ST-DEVELOPER v19.4',
/* originating_system */ 'TianGong',
/* authorisation */ 'Unknown');

FILE_SCHEMA (('AUTOMOTIVE_DESIGN {1 0 10303 214 3 1 1}'));
ENDSEC;

DATA;
#10=PROPERTY_DEFINITION_REPRESENTATION(#14,#12);
#11=PROPERTY_DEFINITION_REPRESENTATION(#15,#13);
#12=REPRESENTATION('',(#16),#293);
#13=REPRESENTATION('',(#17),#293);
#14=PROPERTY_DEFINITION('pmi validation property','',#298);
#15=PROPERTY_DEFINITION('pmi validation property','',#298);
#16=VALUE_REPRESENTATION_ITEM('number of annotations',COUNT_MEASURE(0.));
#17=VALUE_REPRESENTATION_ITEM('number of views',COUNT_MEASURE(0.));
#18=SHAPE_REPRESENTATION_RELATIONSHIP('','',#177,#19);
#19=ADVANCED_BREP_SHAPE_REPRESENTATION('',(#175),#293);
#20=PLANE('',#191);
#21=PLANE('',#194);
#22=PLANE('',#199);
#23=ORIENTED_EDGE('',*,*,#51,.F.);
#24=ORIENTED_EDGE('',*,*,#52,.T.);
#25=ORIENTED_EDGE('',*,*,#53,.F.);
#26=ORIENTED_EDGE('',*,*,#54,.T.);
#27=ORIENTED_EDGE('',*,*,#55,.F.);
#28=ORIENTED_EDGE('',*,*,#56,.T.);
#29=ORIENTED_EDGE('',*,*,#57,.T.);
#30=ORIENTED_EDGE('',*,*,#58,.F.);
#31=ORIENTED_EDGE('',*,*,#51,.T.);
#32=ORIENTED_EDGE('',*,*,#53,.T.);
#33=ORIENTED_EDGE('',*,*,#55,.T.);
#34=ORIENTED_EDGE('',*,*,#59,.T.);
#35=ORIENTED_EDGE('',*,*,#60,.T.);
#36=ORIENTED_EDGE('',*,*,#57,.F.);
#37=ORIENTED_EDGE('',*,*,#52,.F.);
#38=ORIENTED_EDGE('',*,*,#54,.F.);
#39=ORIENTED_EDGE('',*,*,#56,.F.);
#40=ORIENTED_EDGE('',*,*,#61,.F.);
#41=ORIENTED_EDGE('',*,*,#62,.F.);
#42=ORIENTED_EDGE('',*,*,#58,.T.);
#43=ORIENTED_EDGE('',*,*,#63,.F.);
#44=ORIENTED_EDGE('',*,*,#62,.T.);
#45=ORIENTED_EDGE('',*,*,#64,.T.);
#46=ORIENTED_EDGE('',*,*,#63,.T.);
#47=ORIENTED_EDGE('',*,*,#60,.F.);
#48=ORIENTED_EDGE('',*,*,#64,.F.);
#49=ORIENTED_EDGE('',*,*,#59,.F.);
#50=ORIENTED_EDGE('',*,*,#61,.T.);
#51=EDGE_CURVE('',#65,#65,#79,.T.);
#52=EDGE_CURVE('',#66,#66,#80,.T.);
#53=EDGE_CURVE('',#67,#67,#81,.T.);
#54=EDGE_CURVE('',#68,#68,#82,.T.);
#55=EDGE_CURVE('',#69,#69,#83,.T.);
#56=EDGE_CURVE('',#70,#70,#84,.T.);
#57=EDGE_CURVE('',#71,#71,#85,.T.);
#58=EDGE_CURVE('',#72,#72,#86,.T.);
#59=EDGE_CURVE('',#73,#73,#87,.T.);
#60=EDGE_CURVE('',#74,#74,#88,.T.);
#61=EDGE_CURVE('',#75,#75,#89,.T.);
#62=EDGE_CURVE('',#76,#76,#90,.T.);
#63=EDGE_CURVE('',#77,#77,#91,.T.);
#64=EDGE_CURVE('',#78,#78,#92,.F.);
#65=VERTEX_POINT('',#256);
#66=VERTEX_POINT('',#258);
#67=VERTEX_POINT('',#261);
#68=VERTEX_POINT('',#263);
#69=VERTEX_POINT('',#266);
#70=VERTEX_POINT('',#268);
#71=VERTEX_POINT('',#271);
#72=VERTEX_POINT('',#273);
#73=VERTEX_POINT('',#276);
#74=VERTEX_POINT('',#278);
#75=VERTEX_POINT('',#281);
#76=VERTEX_POINT('',#283);
#77=VERTEX_POINT('',#286);
#78=VERTEX_POINT('',#289);
#79=CIRCLE('',#180,5.5);
#80=CIRCLE('',#181,5.5);
#81=CIRCLE('',#183,5.5);
#82=CIRCLE('',#184,5.5);
#83=CIRCLE('',#186,5.5);
#84=CIRCLE('',#187,5.5);
#85=CIRCLE('',#189,45.);
#86=CIRCLE('',#190,45.);
#87=CIRCLE('',#192,5.5);
#88=CIRCLE('',#193,14.);
#89=CIRCLE('',#195,5.5);
#90=CIRCLE('',#196,24.);
#91=CIRCLE('',#198,24.);
#92=CIRCLE('',#200,14.);
#93=EDGE_LOOP('',(#23));
#94=EDGE_LOOP('',(#24));
#95=EDGE_LOOP('',(#25));
#96=EDGE_LOOP('',(#26));
#97=EDGE_LOOP('',(#27));
#98=EDGE_LOOP('',(#28));
#99=EDGE_LOOP('',(#29));
#100=EDGE_LOOP('',(#30));
#101=EDGE_LOOP('',(#31));
#102=EDGE_LOOP('',(#32));
#103=EDGE_LOOP('',(#33));
#104=EDGE_LOOP('',(#34));
#105=EDGE_LOOP('',(#35));
#106=EDGE_LOOP('',(#36));
#107=EDGE_LOOP('',(#37));
#108=EDGE_LOOP('',(#38));
#109=EDGE_LOOP('',(#39));
#110=EDGE_LOOP('',(#40));
#111=EDGE_LOOP('',(#41));
#112=EDGE_LOOP('',(#42));
#113=EDGE_LOOP('',(#43));
#114=EDGE_LOOP('',(#44));
#115=EDGE_LOOP('',(#45));
#116=EDGE_LOOP('',(#46));
#117=EDGE_LOOP('',(#47));
#118=EDGE_LOOP('',(#48));
#119=EDGE_LOOP('',(#49));
#120=EDGE_LOOP('',(#50));
#121=FACE_BOUND('',#93,.T.);
#122=FACE_BOUND('',#94,.T.);
#123=FACE_BOUND('',#95,.T.);
#124=FACE_BOUND('',#96,.T.);
#125=FACE_BOUND('',#97,.T.);
#126=FACE_BOUND('',#98,.T.);
#127=FACE_BOUND('',#99,.T.);
#128=FACE_BOUND('',#100,.T.);
#129=FACE_BOUND('',#101,.T.);
#130=FACE_BOUND('',#102,.T.);
#131=FACE_BOUND('',#103,.T.);
#132=FACE_BOUND('',#104,.T.);
#133=FACE_BOUND('',#105,.T.);
#134=FACE_BOUND('',#106,.T.);
#135=FACE_BOUND('',#107,.T.);
#136=FACE_BOUND('',#108,.T.);
#137=FACE_BOUND('',#109,.T.);
#138=FACE_BOUND('',#110,.T.);
#139=FACE_BOUND('',#111,.T.);
#140=FACE_BOUND('',#112,.T.);
#141=FACE_BOUND('',#113,.T.);
#142=FACE_BOUND('',#114,.T.);
#143=FACE_BOUND('',#115,.T.);
#144=FACE_BOUND('',#116,.T.);
#145=FACE_BOUND('',#117,.T.);
#146=FACE_BOUND('',#118,.T.);
#147=FACE_BOUND('',#119,.T.);
#148=FACE_BOUND('',#120,.T.);
#149=CYLINDRICAL_SURFACE('',#179,5.5);
#150=CYLINDRICAL_SURFACE('',#182,5.5);
#151=CYLINDRICAL_SURFACE('',#185,5.5);
#152=CYLINDRICAL_SURFACE('',#188,45.);
#153=CYLINDRICAL_SURFACE('',#197,24.);
#154=CYLINDRICAL_SURFACE('',#201,14.);
#155=CYLINDRICAL_SURFACE('',#202,5.5);
#156=ADVANCED_FACE('',(#121,#122),#149,.F.);
#157=ADVANCED_FACE('',(#123,#124),#150,.F.);
#158=ADVANCED_FACE('',(#125,#126),#151,.F.);
#159=ADVANCED_FACE('',(#127,#128),#152,.T.);
#160=ADVANCED_FACE('',(#129,#130,#131,#132,#133,#134),#20,.F.);
#161=ADVANCED_FACE('',(#135,#136,#137,#138,#139,#140),#21,.T.);
#162=ADVANCED_FACE('',(#141,#142),#153,.T.);
#163=ADVANCED_FACE('',(#143,#144),#22,.T.);
#164=ADVANCED_FACE('',(#145,#146),#154,.F.);
#165=ADVANCED_FACE('',(#147,#148),#155,.F.);
#166=CLOSED_SHELL('',(#156,#157,#158,#159,#160,#161,#162,#163,#164,#165));
#167=STYLED_ITEM('',(#168),#175);
#168=PRESENTATION_STYLE_ASSIGNMENT((#169));
#169=SURFACE_STYLE_USAGE(.BOTH.,#170);
#170=SURFACE_SIDE_STYLE('',(#171));
#171=SURFACE_STYLE_FILL_AREA(#172);
#172=FILL_AREA_STYLE('',(#173));
#173=FILL_AREA_STYLE_COLOUR('',#174);
#174=COLOUR_RGB('',0.506983280181885,0.531564235687256,0.550000011920929);
#175=MANIFOLD_SOLID_BREP('',#166);
#176=SHAPE_DEFINITION_REPRESENTATION(#298,#177);
#177=SHAPE_REPRESENTATION(
'\X2\94DC540891D15BF9710A73AF677E5957677F5F0F94A26CD55170\X0\ GBT15530.
5-2008',(#178),#293);
#178=AXIS2_PLACEMENT_3D('',#253,#203,#204);
#179=AXIS2_PLACEMENT_3D('',#254,#205,#206);
#180=AXIS2_PLACEMENT_3D('',#255,#207,#208);
#181=AXIS2_PLACEMENT_3D('',#257,#209,#210);
#182=AXIS2_PLACEMENT_3D('',#259,#211,#212);
#183=AXIS2_PLACEMENT_3D('',#260,#213,#214);
#184=AXIS2_PLACEMENT_3D('',#262,#215,#216);
#185=AXIS2_PLACEMENT_3D('',#264,#217,#218);
#186=AXIS2_PLACEMENT_3D('',#265,#219,#220);
#187=AXIS2_PLACEMENT_3D('',#267,#221,#222);
#188=AXIS2_PLACEMENT_3D('',#269,#223,#224);
#189=AXIS2_PLACEMENT_3D('',#270,#225,#226);
#190=AXIS2_PLACEMENT_3D('',#272,#227,#228);
#191=AXIS2_PLACEMENT_3D('',#274,#229,#230);
#192=AXIS2_PLACEMENT_3D('',#275,#231,#232);
#193=AXIS2_PLACEMENT_3D('',#277,#233,#234);
#194=AXIS2_PLACEMENT_3D('',#279,#235,#236);
#195=AXIS2_PLACEMENT_3D('',#280,#237,#238);
#196=AXIS2_PLACEMENT_3D('',#282,#239,#240);
#197=AXIS2_PLACEMENT_3D('',#284,#241,#242);
#198=AXIS2_PLACEMENT_3D('',#285,#243,#244);
#199=AXIS2_PLACEMENT_3D('',#287,#245,#246);
#200=AXIS2_PLACEMENT_3D('',#288,#247,#248);
#201=AXIS2_PLACEMENT_3D('',#290,#249,#250);
#202=AXIS2_PLACEMENT_3D('',#291,#251,#252);
#203=DIRECTION('',(0.,0.,1.));
#204=DIRECTION('',(1.,0.,0.));
#205=DIRECTION('',(0.,0.,-1.));
#206=DIRECTION('',(1.60812264967664E-16,-1.,0.));
#207=DIRECTION('',(0.,0.,-1.));
#208=DIRECTION('',(1.60812264967664E-16,-1.,0.));
#209=DIRECTION('',(0.,0.,-1.));
#210=DIRECTION('',(-1.60812264967664E-16,1.,0.));
#211=DIRECTION('',(0.,0.,-1.));
#212=DIRECTION('',(1.,-1.22464679914735E-16,0.));
#213=DIRECTION('',(0.,0.,-1.));
#214=DIRECTION('',(1.,-1.22464679914735E-16,0.));
#215=DIRECTION('',(0.,0.,-1.));
#216=DIRECTION('',(-1.,1.22464679914735E-16,0.));
#217=DIRECTION('',(0.,0.,-1.));
#218=DIRECTION('',(1.83697019872103E-16,1.,0.));
#219=DIRECTION('',(0.,0.,-1.));
#220=DIRECTION('',(1.83697019872103E-16,1.,0.));
#221=DIRECTION('',(0.,0.,-1.));
#222=DIRECTION('',(-1.83697019872103E-16,-1.,0.));
#223=DIRECTION('',(0.,0.,-1.));
#224=DIRECTION('',(-1.,0.,0.));
#225=DIRECTION('',(0.,0.,-1.));
#226=DIRECTION('',(1.,0.,0.));
#227=DIRECTION('',(0.,0.,-1.));
#228=DIRECTION('',(1.,0.,0.));
#229=DIRECTION('',(0.,0.,-1.));
#230=DIRECTION('',(-1.,0.,0.));
#231=DIRECTION('',(0.,0.,-1.));
#232=DIRECTION('',(-1.,0.,0.));
#233=DIRECTION('',(0.,0.,-1.));
#234=DIRECTION('',(-1.,0.,0.));
#235=DIRECTION('',(0.,0.,-1.));
#236=DIRECTION('',(-1.,0.,0.));
#237=DIRECTION('',(0.,0.,-1.));
#238=DIRECTION('',(1.,0.,0.));
#239=DIRECTION('',(0.,0.,-1.));
#240=DIRECTION('',(1.,0.,0.));
#241=DIRECTION('',(0.,0.,1.));
#242=DIRECTION('',(1.,0.,0.));
#243=DIRECTION('',(0.,0.,-1.));
#244=DIRECTION('',(1.,0.,0.));
#245=DIRECTION('',(0.,0.,-1.));
#246=DIRECTION('',(-1.,0.,0.));
#247=DIRECTION('',(0.,0.,-1.));
#248=DIRECTION('',(-1.,0.,0.));
#249=DIRECTION('',(0.,0.,-1.));
#250=DIRECTION('',(-1.,0.,0.));
#251=DIRECTION('',(0.,0.,-1.));
#252=DIRECTION('',(-1.,0.,0.));
#253=CARTESIAN_POINT('',(0.,0.,0.));
#254=CARTESIAN_POINT('',(-5.22639861144907E-15,32.5,128.160056179763));
#255=CARTESIAN_POINT('',(-5.22639861144907E-15,32.5,9.99999999999999));
#256=CARTESIAN_POINT('',(-4.34193115412692E-15,27.,9.99999999999999));
#257=CARTESIAN_POINT('',(-5.22639861144907E-15,32.5,0.));
#258=CARTESIAN_POINT('',(-6.11086606877122E-15,38.,0.));
#259=CARTESIAN_POINT('',(-32.5,3.9801020972289E-15,128.160056179763));
#260=CARTESIAN_POINT('',(-32.5,3.9801020972289E-15,9.99999999999999));
#261=CARTESIAN_POINT('',(-27.,3.30654635769786E-15,9.99999999999999));
#262=CARTESIAN_POINT('',(-32.5,3.9801020972289E-15,0.));
#263=CARTESIAN_POINT('',(-38.,4.65365783675994E-15,0.));
#264=CARTESIAN_POINT('',(-5.97015314584335E-15,-32.5,128.160056179763));
#265=CARTESIAN_POINT('',(-5.97015314584335E-15,-32.5,9.99999999999999));
#266=CARTESIAN_POINT('',(-4.95981953654678E-15,-27.,9.99999999999999));
#267=CARTESIAN_POINT('',(-5.97015314584335E-15,-32.5,0.));
#268=CARTESIAN_POINT('',(-6.98048675513991E-15,-38.,0.));
#269=CARTESIAN_POINT('',(0.,0.,10.));
#270=CARTESIAN_POINT('',(0.,0.,10.));
#271=CARTESIAN_POINT('',(45.,0.,10.));
#272=CARTESIAN_POINT('',(0.,0.,0.));
#273=CARTESIAN_POINT('',(45.,0.,0.));
#274=CARTESIAN_POINT('',(0.,0.,10.));
#275=CARTESIAN_POINT('',(32.5,0.,9.99999999999999));
#276=CARTESIAN_POINT('',(27.,0.,9.99999999999999));
#277=CARTESIAN_POINT('',(0.,0.,9.99999999999999));
#278=CARTESIAN_POINT('',(-14.,0.,9.99999999999999));
#279=CARTESIAN_POINT('',(0.,0.,0.));
#280=CARTESIAN_POINT('',(32.5,0.,0.));
#281=CARTESIAN_POINT('',(38.,0.,0.));
#282=CARTESIAN_POINT('',(0.,0.,0.));
#283=CARTESIAN_POINT('',(24.,0.,0.));
#284=CARTESIAN_POINT('',(0.,0.,-5.));
#285=CARTESIAN_POINT('',(0.,0.,-5.));
#286=CARTESIAN_POINT('',(24.,0.,-5.));
#287=CARTESIAN_POINT('',(0.,0.,-5.));
#288=CARTESIAN_POINT('',(0.,0.,-5.));
#289=CARTESIAN_POINT('',(-14.,0.,-5.));
#290=CARTESIAN_POINT('',(0.,0.,128.160056179763));
#291=CARTESIAN_POINT('',(32.5,0.,128.160056179763));
#292=MECHANICAL_DESIGN_GEOMETRIC_PRESENTATION_REPRESENTATION('',(#167),
#293);
#293=(
GEOMETRIC_REPRESENTATION_CONTEXT(3)
GLOBAL_UNCERTAINTY_ASSIGNED_CONTEXT((#294))
GLOBAL_UNIT_ASSIGNED_CONTEXT((#297,#296,#295))
REPRESENTATION_CONTEXT(
'\X2\94DC540891D15BF9710A73AF677E5957677F5F0F94A26CD55170\X0\ GBT15530.
5-2008','TOP_LEVEL_ASSEMBLY_PART')
);
#294=UNCERTAINTY_MEASURE_WITH_UNIT(LENGTH_MEASURE(0.005),#297,
'DISTANCE_ACCURACY_VALUE','Maximum Tolerance applied to model');
#295=(
NAMED_UNIT(*)
SI_UNIT($,.STERADIAN.)
SOLID_ANGLE_UNIT()
);
#296=(
NAMED_UNIT(*)
PLANE_ANGLE_UNIT()
SI_UNIT($,.RADIAN.)
);
#297=(
LENGTH_UNIT()
NAMED_UNIT(*)
SI_UNIT(.MILLI.,.METRE.)
);
#298=PRODUCT_DEFINITION_SHAPE('','',#299);
#299=PRODUCT_DEFINITION('','',#301,#300);
#300=PRODUCT_DEFINITION_CONTEXT('',#307,'design');
#301=PRODUCT_DEFINITION_FORMATION_WITH_SPECIFIED_SOURCE('','',#303,
 .NOT_KNOWN.);
#302=PRODUCT_RELATED_PRODUCT_CATEGORY('','',(#303));
#303=PRODUCT('\X2\94DC540891D15BF9710A73AF677E5957677F5F0F94A26CD55170\X0\ 
GBT15530.5-2008',
'\X2\94DC540891D15BF9710A73AF677E5957677F5F0F94A26CD55170\X0\ GBT15530.
5-2008','\X2\94DC540891D15BF9710A73AF677E5957677F5F0F94A26CD55170\X0\ 
GBT15530.5-2008',(#305));
#304=PRODUCT_CATEGORY('','');
#305=PRODUCT_CONTEXT('',#307,'mechanical');
#306=APPLICATION_PROTOCOL_DEFINITION('international standard',
'automotive_design',2010,#307);
#307=APPLICATION_CONTEXT(
'core data for automotive mechanical design processes');
ENDSEC;
END-ISO-10303-21;
