ISO-10303-21;
HEADER;
/* Generated by software containing HOOPS Exchange Step
 * from HOOPS Exchange, Inc. (www.tiangong.cloud) 
 */

FILE_DESCRIPTION(
/* description */ ('Unknown'),
/* implementation_level */ '2;1');

FILE_NAME(
/* name */ '\X2\73AF8FDE63A597625E2698885E73710A94A252367BA16CD55170\X0\',

/* time_stamp */ '2025-07-26T16:45:54+08:00',
/* author */ ('Unknown'),
/* organization */ ('Unknown'),
/* preprocessor_version */ 'ST-DEVELOPER v19.4',
/* originating_system */ 'TianGong',
/* authorisation */ 'Unknown');

FILE_SCHEMA (('AUTOMOTIVE_DESIGN {1 0 10303 214 3 1 1}'));
ENDSEC;

DATA;
#10=PROPERTY_DEFINITION_REPRESENTATION(#14,#12);
#11=PROPERTY_DEFINITION_REPRESENTATION(#15,#13);
#12=REPRESENTATION('',(#16),#413);
#13=REPRESENTATION('',(#17),#413);
#14=PROPERTY_DEFINITION('pmi validation property','',#418);
#15=PROPERTY_DEFINITION('pmi validation property','',#418);
#16=VALUE_REPRESENTATION_ITEM('number of annotations',COUNT_MEASURE(0.));
#17=VALUE_REPRESENTATION_ITEM('number of views',COUNT_MEASURE(0.));
#18=SHAPE_REPRESENTATION_RELATIONSHIP('','',#243,#19);
#19=ADVANCED_BREP_SHAPE_REPRESENTATION('',(#241),#413);
#20=TOROIDAL_SURFACE('',#280,34.4909918853871,5.);
#21=CONICAL_SURFACE('',#272,32.945,0.401425727958695);
#22=CONICAL_SURFACE('',#276,26.900415082931,0.4014257279587);
#23=PLANE('',#257);
#24=PLANE('',#259);
#25=PLANE('',#265);
#26=PLANE('',#270);
#27=PLANE('',#274);
#28=PLANE('',#278);
#29=ORIENTED_EDGE('',*,*,#69,.F.);
#30=ORIENTED_EDGE('',*,*,#70,.F.);
#31=ORIENTED_EDGE('',*,*,#71,.F.);
#32=ORIENTED_EDGE('',*,*,#72,.F.);
#33=ORIENTED_EDGE('',*,*,#73,.F.);
#34=ORIENTED_EDGE('',*,*,#74,.F.);
#35=ORIENTED_EDGE('',*,*,#75,.T.);
#36=ORIENTED_EDGE('',*,*,#76,.F.);
#37=ORIENTED_EDGE('',*,*,#77,.T.);
#38=ORIENTED_EDGE('',*,*,#75,.F.);
#39=ORIENTED_EDGE('',*,*,#78,.T.);
#40=ORIENTED_EDGE('',*,*,#69,.T.);
#41=ORIENTED_EDGE('',*,*,#71,.T.);
#42=ORIENTED_EDGE('',*,*,#73,.T.);
#43=ORIENTED_EDGE('',*,*,#79,.T.);
#44=ORIENTED_EDGE('',*,*,#80,.T.);
#45=ORIENTED_EDGE('',*,*,#81,.T.);
#46=ORIENTED_EDGE('',*,*,#80,.F.);
#47=ORIENTED_EDGE('',*,*,#70,.T.);
#48=ORIENTED_EDGE('',*,*,#72,.T.);
#49=ORIENTED_EDGE('',*,*,#74,.T.);
#50=ORIENTED_EDGE('',*,*,#82,.T.);
#51=ORIENTED_EDGE('',*,*,#83,.T.);
#52=ORIENTED_EDGE('',*,*,#81,.F.);
#53=ORIENTED_EDGE('',*,*,#84,.T.);
#54=ORIENTED_EDGE('',*,*,#83,.F.);
#55=ORIENTED_EDGE('',*,*,#85,.T.);
#56=ORIENTED_EDGE('',*,*,#84,.F.);
#57=ORIENTED_EDGE('',*,*,#86,.T.);
#58=ORIENTED_EDGE('',*,*,#85,.F.);
#59=ORIENTED_EDGE('',*,*,#87,.T.);
#60=ORIENTED_EDGE('',*,*,#86,.F.);
#61=ORIENTED_EDGE('',*,*,#88,.T.);
#62=ORIENTED_EDGE('',*,*,#87,.F.);
#63=ORIENTED_EDGE('',*,*,#76,.T.);
#64=ORIENTED_EDGE('',*,*,#88,.F.);
#65=ORIENTED_EDGE('',*,*,#79,.F.);
#66=ORIENTED_EDGE('',*,*,#82,.F.);
#67=ORIENTED_EDGE('',*,*,#78,.F.);
#68=ORIENTED_EDGE('',*,*,#77,.F.);
#69=EDGE_CURVE('',#89,#89,#109,.T.);
#70=EDGE_CURVE('',#90,#90,#110,.F.);
#71=EDGE_CURVE('',#91,#91,#111,.T.);
#72=EDGE_CURVE('',#92,#92,#112,.F.);
#73=EDGE_CURVE('',#93,#93,#113,.T.);
#74=EDGE_CURVE('',#94,#94,#114,.F.);
#75=EDGE_CURVE('',#95,#95,#115,.T.);
#76=EDGE_CURVE('',#96,#96,#116,.T.);
#77=EDGE_CURVE('',#97,#97,#117,.T.);
#78=EDGE_CURVE('',#98,#98,#118,.F.);
#79=EDGE_CURVE('',#99,#99,#119,.T.);
#80=EDGE_CURVE('',#100,#100,#120,.T.);
#81=EDGE_CURVE('',#101,#101,#121,.T.);
#82=EDGE_CURVE('',#102,#102,#122,.F.);
#83=EDGE_CURVE('',#103,#103,#123,.T.);
#84=EDGE_CURVE('',#104,#104,#124,.T.);
#85=EDGE_CURVE('',#105,#105,#125,.T.);
#86=EDGE_CURVE('',#106,#106,#126,.T.);
#87=EDGE_CURVE('',#107,#107,#127,.T.);
#88=EDGE_CURVE('',#108,#108,#128,.T.);
#89=VERTEX_POINT('',#358);
#90=VERTEX_POINT('',#360);
#91=VERTEX_POINT('',#363);
#92=VERTEX_POINT('',#365);
#93=VERTEX_POINT('',#368);
#94=VERTEX_POINT('',#370);
#95=VERTEX_POINT('',#373);
#96=VERTEX_POINT('',#375);
#97=VERTEX_POINT('',#378);
#98=VERTEX_POINT('',#381);
#99=VERTEX_POINT('',#383);
#100=VERTEX_POINT('',#385);
#101=VERTEX_POINT('',#388);
#102=VERTEX_POINT('',#391);
#103=VERTEX_POINT('',#393);
#104=VERTEX_POINT('',#396);
#105=VERTEX_POINT('',#399);
#106=VERTEX_POINT('',#402);
#107=VERTEX_POINT('',#405);
#108=VERTEX_POINT('',#408);
#109=CIRCLE('',#246,8.);
#110=CIRCLE('',#247,8.);
#111=CIRCLE('',#249,8.);
#112=CIRCLE('',#250,8.);
#113=CIRCLE('',#252,8.);
#114=CIRCLE('',#253,8.);
#115=CIRCLE('',#255,21.75);
#116=CIRCLE('',#256,21.75);
#117=CIRCLE('',#258,29.5);
#118=CIRCLE('',#260,34.4909918853871);
#119=CIRCLE('',#261,8.);
#120=CIRCLE('',#262,57.5);
#121=CIRCLE('',#264,57.5);
#122=CIRCLE('',#266,8.);
#123=CIRCLE('',#267,36.25);
#124=CIRCLE('',#269,36.25);
#125=CIRCLE('',#271,32.945);
#126=CIRCLE('',#273,30.249584917069);
#127=CIRCLE('',#275,26.900415082931);
#128=CIRCLE('',#277,24.205);
#129=EDGE_LOOP('',(#29));
#130=EDGE_LOOP('',(#30));
#131=EDGE_LOOP('',(#31));
#132=EDGE_LOOP('',(#32));
#133=EDGE_LOOP('',(#33));
#134=EDGE_LOOP('',(#34));
#135=EDGE_LOOP('',(#35));
#136=EDGE_LOOP('',(#36));
#137=EDGE_LOOP('',(#37));
#138=EDGE_LOOP('',(#38));
#139=EDGE_LOOP('',(#39));
#140=EDGE_LOOP('',(#40));
#141=EDGE_LOOP('',(#41));
#142=EDGE_LOOP('',(#42));
#143=EDGE_LOOP('',(#43));
#144=EDGE_LOOP('',(#44));
#145=EDGE_LOOP('',(#45));
#146=EDGE_LOOP('',(#46));
#147=EDGE_LOOP('',(#47));
#148=EDGE_LOOP('',(#48));
#149=EDGE_LOOP('',(#49));
#150=EDGE_LOOP('',(#50));
#151=EDGE_LOOP('',(#51));
#152=EDGE_LOOP('',(#52));
#153=EDGE_LOOP('',(#53));
#154=EDGE_LOOP('',(#54));
#155=EDGE_LOOP('',(#55));
#156=EDGE_LOOP('',(#56));
#157=EDGE_LOOP('',(#57));
#158=EDGE_LOOP('',(#58));
#159=EDGE_LOOP('',(#59));
#160=EDGE_LOOP('',(#60));
#161=EDGE_LOOP('',(#61));
#162=EDGE_LOOP('',(#62));
#163=EDGE_LOOP('',(#63));
#164=EDGE_LOOP('',(#64));
#165=EDGE_LOOP('',(#65));
#166=EDGE_LOOP('',(#66));
#167=EDGE_LOOP('',(#67));
#168=EDGE_LOOP('',(#68));
#169=FACE_BOUND('',#129,.T.);
#170=FACE_BOUND('',#130,.T.);
#171=FACE_BOUND('',#131,.T.);
#172=FACE_BOUND('',#132,.T.);
#173=FACE_BOUND('',#133,.T.);
#174=FACE_BOUND('',#134,.T.);
#175=FACE_BOUND('',#135,.T.);
#176=FACE_BOUND('',#136,.T.);
#177=FACE_BOUND('',#137,.T.);
#178=FACE_BOUND('',#138,.T.);
#179=FACE_BOUND('',#139,.T.);
#180=FACE_BOUND('',#140,.T.);
#181=FACE_BOUND('',#141,.T.);
#182=FACE_BOUND('',#142,.T.);
#183=FACE_BOUND('',#143,.T.);
#184=FACE_BOUND('',#144,.T.);
#185=FACE_BOUND('',#145,.T.);
#186=FACE_BOUND('',#146,.T.);
#187=FACE_BOUND('',#147,.T.);
#188=FACE_BOUND('',#148,.T.);
#189=FACE_BOUND('',#149,.T.);
#190=FACE_BOUND('',#150,.T.);
#191=FACE_BOUND('',#151,.T.);
#192=FACE_BOUND('',#152,.T.);
#193=FACE_BOUND('',#153,.T.);
#194=FACE_BOUND('',#154,.T.);
#195=FACE_BOUND('',#155,.T.);
#196=FACE_BOUND('',#156,.T.);
#197=FACE_BOUND('',#157,.T.);
#198=FACE_BOUND('',#158,.T.);
#199=FACE_BOUND('',#159,.T.);
#200=FACE_BOUND('',#160,.T.);
#201=FACE_BOUND('',#161,.T.);
#202=FACE_BOUND('',#162,.T.);
#203=FACE_BOUND('',#163,.T.);
#204=FACE_BOUND('',#164,.T.);
#205=FACE_BOUND('',#165,.T.);
#206=FACE_BOUND('',#166,.T.);
#207=FACE_BOUND('',#167,.T.);
#208=FACE_BOUND('',#168,.T.);
#209=CYLINDRICAL_SURFACE('',#245,8.);
#210=CYLINDRICAL_SURFACE('',#248,8.);
#211=CYLINDRICAL_SURFACE('',#251,8.);
#212=CYLINDRICAL_SURFACE('',#254,21.75);
#213=CYLINDRICAL_SURFACE('',#263,57.5);
#214=CYLINDRICAL_SURFACE('',#268,36.25);
#215=CYLINDRICAL_SURFACE('',#279,8.);
#216=ADVANCED_FACE('',(#169,#170),#209,.F.);
#217=ADVANCED_FACE('',(#171,#172),#210,.F.);
#218=ADVANCED_FACE('',(#173,#174),#211,.F.);
#219=ADVANCED_FACE('',(#175,#176),#212,.F.);
#220=ADVANCED_FACE('',(#177,#178),#23,.T.);
#221=ADVANCED_FACE('',(#179,#180,#181,#182,#183,#184),#24,.T.);
#222=ADVANCED_FACE('',(#185,#186),#213,.T.);
#223=ADVANCED_FACE('',(#187,#188,#189,#190,#191,#192),#25,.T.);
#224=ADVANCED_FACE('',(#193,#194),#214,.T.);
#225=ADVANCED_FACE('',(#195,#196),#26,.T.);
#226=ADVANCED_FACE('',(#197,#198),#21,.F.);
#227=ADVANCED_FACE('',(#199,#200),#27,.T.);
#228=ADVANCED_FACE('',(#201,#202),#22,.T.);
#229=ADVANCED_FACE('',(#203,#204),#28,.T.);
#230=ADVANCED_FACE('',(#205,#206),#215,.F.);
#231=ADVANCED_FACE('',(#207,#208),#20,.F.);
#232=CLOSED_SHELL('',(#216,#217,#218,#219,#220,#221,#222,#223,#224,#225,
#226,#227,#228,#229,#230,#231));
#233=STYLED_ITEM('',(#234),#241);
#234=PRESENTATION_STYLE_ASSIGNMENT((#235));
#235=SURFACE_STYLE_USAGE(.BOTH.,#236);
#236=SURFACE_SIDE_STYLE('',(#237));
#237=SURFACE_STYLE_FILL_AREA(#238);
#238=FILL_AREA_STYLE('',(#239));
#239=FILL_AREA_STYLE_COLOUR('',#240);
#240=COLOUR_RGB('',0.506983280181885,0.531564235687256,0.550000011920929);
#241=MANIFOLD_SOLID_BREP('',#232);
#242=SHAPE_DEFINITION_REPRESENTATION(#418,#243);
#243=SHAPE_REPRESENTATION('\X2\73AF8FDE63A597625E2698885E73710A94A252367BA16CD55170\X0\',
(#244),#413);
#244=AXIS2_PLACEMENT_3D('',#355,#281,#282);
#245=AXIS2_PLACEMENT_3D('',#356,#283,#284);
#246=AXIS2_PLACEMENT_3D('',#357,#285,#286);
#247=AXIS2_PLACEMENT_3D('',#359,#287,#288);
#248=AXIS2_PLACEMENT_3D('',#361,#289,#290);
#249=AXIS2_PLACEMENT_3D('',#362,#291,#292);
#250=AXIS2_PLACEMENT_3D('',#364,#293,#294);
#251=AXIS2_PLACEMENT_3D('',#366,#295,#296);
#252=AXIS2_PLACEMENT_3D('',#367,#297,#298);
#253=AXIS2_PLACEMENT_3D('',#369,#299,#300);
#254=AXIS2_PLACEMENT_3D('',#371,#301,#302);
#255=AXIS2_PLACEMENT_3D('',#372,#303,#304);
#256=AXIS2_PLACEMENT_3D('',#374,#305,#306);
#257=AXIS2_PLACEMENT_3D('',#376,#307,#308);
#258=AXIS2_PLACEMENT_3D('',#377,#309,#310);
#259=AXIS2_PLACEMENT_3D('',#379,#311,#312);
#260=AXIS2_PLACEMENT_3D('',#380,#313,#314);
#261=AXIS2_PLACEMENT_3D('',#382,#315,#316);
#262=AXIS2_PLACEMENT_3D('',#384,#317,#318);
#263=AXIS2_PLACEMENT_3D('',#386,#319,#320);
#264=AXIS2_PLACEMENT_3D('',#387,#321,#322);
#265=AXIS2_PLACEMENT_3D('',#389,#323,#324);
#266=AXIS2_PLACEMENT_3D('',#390,#325,#326);
#267=AXIS2_PLACEMENT_3D('',#392,#327,#328);
#268=AXIS2_PLACEMENT_3D('',#394,#329,#330);
#269=AXIS2_PLACEMENT_3D('',#395,#331,#332);
#270=AXIS2_PLACEMENT_3D('',#397,#333,#334);
#271=AXIS2_PLACEMENT_3D('',#398,#335,#336);
#272=AXIS2_PLACEMENT_3D('',#400,#337,#338);
#273=AXIS2_PLACEMENT_3D('',#401,#339,#340);
#274=AXIS2_PLACEMENT_3D('',#403,#341,#342);
#275=AXIS2_PLACEMENT_3D('',#404,#343,#344);
#276=AXIS2_PLACEMENT_3D('',#406,#345,#346);
#277=AXIS2_PLACEMENT_3D('',#407,#347,#348);
#278=AXIS2_PLACEMENT_3D('',#409,#349,#350);
#279=AXIS2_PLACEMENT_3D('',#410,#351,#352);
#280=AXIS2_PLACEMENT_3D('',#411,#353,#354);
#281=DIRECTION('',(0.,0.,1.));
#282=DIRECTION('',(1.,0.,0.));
#283=DIRECTION('',(0.,0.,1.));
#284=DIRECTION('',(7.27366154732462E-16,1.,0.));
#285=DIRECTION('',(0.,0.,-1.));
#286=DIRECTION('',(7.27366154732462E-16,1.,0.));
#287=DIRECTION('',(0.,0.,-1.));
#288=DIRECTION('',(-7.27366154732462E-16,-1.,0.));
#289=DIRECTION('',(0.,0.,1.));
#290=DIRECTION('',(-1.,1.22464679914735E-16,0.));
#291=DIRECTION('',(0.,0.,-1.));
#292=DIRECTION('',(-1.,1.22464679914735E-16,0.));
#293=DIRECTION('',(0.,0.,-1.));
#294=DIRECTION('',(1.,-1.22464679914735E-16,0.));
#295=DIRECTION('',(0.,0.,1.));
#296=DIRECTION('',(-1.83697019872103E-16,-1.,0.));
#297=DIRECTION('',(0.,0.,-1.));
#298=DIRECTION('',(-1.83697019872103E-16,-1.,0.));
#299=DIRECTION('',(0.,0.,-1.));
#300=DIRECTION('',(1.83697019872103E-16,1.,0.));
#301=DIRECTION('',(0.,0.,1.));
#302=DIRECTION('',(1.,0.,0.));
#303=DIRECTION('',(0.,0.,1.));
#304=DIRECTION('',(1.,0.,0.));
#305=DIRECTION('',(0.,0.,1.));
#306=DIRECTION('',(1.,0.,0.));
#307=DIRECTION('',(0.,0.,1.));
#308=DIRECTION('',(1.,0.,0.));
#309=DIRECTION('',(0.,0.,1.));
#310=DIRECTION('',(1.,0.,0.));
#311=DIRECTION('',(0.,0.,1.));
#312=DIRECTION('',(1.,0.,0.));
#313=DIRECTION('',(0.,0.,1.));
#314=DIRECTION('',(1.,0.,0.));
#315=DIRECTION('',(0.,0.,-1.));
#316=DIRECTION('',(1.,0.,0.));
#317=DIRECTION('',(0.,0.,1.));
#318=DIRECTION('',(1.,0.,0.));
#319=DIRECTION('',(0.,0.,1.));
#320=DIRECTION('',(1.,0.,0.));
#321=DIRECTION('',(0.,0.,1.));
#322=DIRECTION('',(1.,0.,0.));
#323=DIRECTION('',(0.,0.,-1.));
#324=DIRECTION('',(-1.,0.,0.));
#325=DIRECTION('',(0.,0.,-1.));
#326=DIRECTION('',(-1.,0.,0.));
#327=DIRECTION('',(0.,0.,1.));
#328=DIRECTION('',(1.,0.,0.));
#329=DIRECTION('',(0.,0.,1.));
#330=DIRECTION('',(1.,0.,0.));
#331=DIRECTION('',(0.,0.,1.));
#332=DIRECTION('',(1.,0.,0.));
#333=DIRECTION('',(0.,0.,-1.));
#334=DIRECTION('',(-1.,0.,0.));
#335=DIRECTION('',(0.,0.,1.));
#336=DIRECTION('',(1.,0.,0.));
#337=DIRECTION('',(0.,0.,-1.));
#338=DIRECTION('',(-1.,0.,0.));
#339=DIRECTION('',(0.,0.,1.));
#340=DIRECTION('',(1.,0.,0.));
#341=DIRECTION('',(0.,0.,-1.));
#342=DIRECTION('',(-1.,0.,0.));
#343=DIRECTION('',(0.,0.,1.));
#344=DIRECTION('',(1.,0.,0.));
#345=DIRECTION('',(0.,0.,1.));
#346=DIRECTION('',(1.,0.,0.));
#347=DIRECTION('',(0.,0.,1.));
#348=DIRECTION('',(1.,0.,0.));
#349=DIRECTION('',(0.,0.,-1.));
#350=DIRECTION('',(-1.,0.,0.));
#351=DIRECTION('',(0.,0.,1.));
#352=DIRECTION('',(1.,0.,0.));
#353=DIRECTION('',(0.,0.,1.));
#354=DIRECTION('',(1.,0.,0.));
#355=CARTESIAN_POINT('',(0.,0.,0.));
#356=CARTESIAN_POINT('',(-44.45,3.23314255778579E-14,-143.948367245851));
#357=CARTESIAN_POINT('',(-44.45,3.23314255778579E-14,20.65));
#358=CARTESIAN_POINT('',(-44.45,8.00000000000003,20.65));
#359=CARTESIAN_POINT('',(-44.45,3.23314255778579E-14,6.34999999999999));
#360=CARTESIAN_POINT('',(-44.45,-7.99999999999997,6.34999999999999));
#361=CARTESIAN_POINT('',(-5.44355502220999E-15,-44.45,-143.948367245851));
#362=CARTESIAN_POINT('',(-5.44355502220999E-15,-44.45,20.65));
#363=CARTESIAN_POINT('',(-8.00000000000001,-44.45,20.65));
#364=CARTESIAN_POINT('',(-5.44355502220999E-15,-44.45,6.34999999999999));
#365=CARTESIAN_POINT('',(7.99999999999999,-44.45,6.34999999999999));
#366=CARTESIAN_POINT('',(44.45,-8.16533253331498E-15,-143.948367245851));
#367=CARTESIAN_POINT('',(44.45,-8.16533253331498E-15,20.65));
#368=CARTESIAN_POINT('',(44.45,-8.00000000000001,20.65));
#369=CARTESIAN_POINT('',(44.45,-8.16533253331498E-15,6.34999999999999));
#370=CARTESIAN_POINT('',(44.45,7.99999999999999,6.34999999999999));
#371=CARTESIAN_POINT('',(0.,0.,0.));
#372=CARTESIAN_POINT('',(0.,0.,25.35));
#373=CARTESIAN_POINT('',(21.75,0.,25.35));
#374=CARTESIAN_POINT('',(0.,0.,0.));
#375=CARTESIAN_POINT('',(21.75,0.,0.));
#376=CARTESIAN_POINT('',(21.75,0.,25.35));
#377=CARTESIAN_POINT('',(0.,0.,25.35));
#378=CARTESIAN_POINT('',(29.5,0.,25.35));
#379=CARTESIAN_POINT('',(29.5,0.,20.65));
#380=CARTESIAN_POINT('',(0.,0.,20.65));
#381=CARTESIAN_POINT('',(34.4909918853871,0.,20.65));
#382=CARTESIAN_POINT('',(0.,44.45,20.65));
#383=CARTESIAN_POINT('',(8.,44.45,20.65));
#384=CARTESIAN_POINT('',(0.,0.,20.65));
#385=CARTESIAN_POINT('',(57.5,0.,20.65));
#386=CARTESIAN_POINT('',(0.,0.,0.));
#387=CARTESIAN_POINT('',(0.,0.,6.34999999999999));
#388=CARTESIAN_POINT('',(57.5,0.,6.34999999999999));
#389=CARTESIAN_POINT('',(57.5,0.,6.35));
#390=CARTESIAN_POINT('',(0.,44.45,6.34999999999999));
#391=CARTESIAN_POINT('',(-8.,44.45,6.34999999999999));
#392=CARTESIAN_POINT('',(0.,0.,6.35));
#393=CARTESIAN_POINT('',(36.25,0.,6.35));
#394=CARTESIAN_POINT('',(0.,0.,0.));
#395=CARTESIAN_POINT('',(0.,0.,0.));
#396=CARTESIAN_POINT('',(36.25,0.,0.));
#397=CARTESIAN_POINT('',(36.25,0.,7.26073756029063E-16));
#398=CARTESIAN_POINT('',(0.,0.,1.45214751205813E-15));
#399=CARTESIAN_POINT('',(32.945,0.,1.45214751205813E-15));
#400=CARTESIAN_POINT('',(0.,0.,1.45214751205813E-15));
#401=CARTESIAN_POINT('',(0.,0.,6.35));
#402=CARTESIAN_POINT('',(30.249584917069,0.,6.35));
#403=CARTESIAN_POINT('',(30.249584917069,0.,6.34999999999996));
#404=CARTESIAN_POINT('',(0.,0.,6.34999999999993));
#405=CARTESIAN_POINT('',(26.900415082931,0.,6.34999999999993));
#406=CARTESIAN_POINT('',(0.,0.,6.34999999999993));
#407=CARTESIAN_POINT('',(0.,0.,1.73472347597681E-15));
#408=CARTESIAN_POINT('',(24.205,0.,1.73472347597681E-15));
#409=CARTESIAN_POINT('',(24.205,0.,8.67361737988404E-16));
#410=CARTESIAN_POINT('',(0.,44.45,-143.948367245851));
#411=CARTESIAN_POINT('',(0.,0.,25.65));
#412=MECHANICAL_DESIGN_GEOMETRIC_PRESENTATION_REPRESENTATION('',(#233),
#413);
#413=(
GEOMETRIC_REPRESENTATION_CONTEXT(3)
GLOBAL_UNCERTAINTY_ASSIGNED_CONTEXT((#414))
GLOBAL_UNIT_ASSIGNED_CONTEXT((#417,#416,#415))
REPRESENTATION_CONTEXT('\X2\73AF8FDE63A597625E2698885E73710A94A252367BA16CD55170\X0\',
'TOP_LEVEL_ASSEMBLY_PART')
);
#414=UNCERTAINTY_MEASURE_WITH_UNIT(LENGTH_MEASURE(0.005),#417,
'DISTANCE_ACCURACY_VALUE','Maximum Tolerance applied to model');
#415=(
NAMED_UNIT(*)
SI_UNIT($,.STERADIAN.)
SOLID_ANGLE_UNIT()
);
#416=(
NAMED_UNIT(*)
PLANE_ANGLE_UNIT()
SI_UNIT($,.RADIAN.)
);
#417=(
LENGTH_UNIT()
NAMED_UNIT(*)
SI_UNIT(.MILLI.,.METRE.)
);
#418=PRODUCT_DEFINITION_SHAPE('','',#419);
#419=PRODUCT_DEFINITION('','',#421,#420);
#420=PRODUCT_DEFINITION_CONTEXT('',#427,'design');
#421=PRODUCT_DEFINITION_FORMATION_WITH_SPECIFIED_SOURCE('','',#423,
 .NOT_KNOWN.);
#422=PRODUCT_RELATED_PRODUCT_CATEGORY('','',(#423));
#423=PRODUCT('\X2\73AF8FDE63A597625E2698885E73710A94A252367BA16CD55170\X0\',
'\X2\73AF8FDE63A597625E2698885E73710A94A252367BA16CD55170\X0\',
'\X2\73AF8FDE63A597625E2698885E73710A94A252367BA16CD55170\X0\',(#425));
#424=PRODUCT_CATEGORY('','');
#425=PRODUCT_CONTEXT('',#427,'mechanical');
#426=APPLICATION_PROTOCOL_DEFINITION('international standard',
'automotive_design',2010,#427);
#427=APPLICATION_CONTEXT(
'core data for automotive mechanical design processes');
ENDSEC;
END-ISO-10303-21;
