ISO-10303-21;
HEADER;
/* Generated by software containing HOOPS Exchange Step
 * from HOOPS Exchange, Inc. (www.tiangong.cloud) 
 */

FILE_DESCRIPTION(
/* description */ ('Unknown'),
/* implementation_level */ '2;1');

FILE_NAME(
/* name */ '\X2\7A819762FF08\X0\RF\X2\FF09677F5F0F5E73710A94A252367BA16CD55170\X0\',

/* time_stamp */ '2026-01-30T15:57:10+08:00',
/* author */ ('Unknown'),
/* organization */ ('Unknown'),
/* preprocessor_version */ 'ST-DEVELOPER v19.4',
/* originating_system */ 'TianGong',
/* authorisation */ 'Unknown');

FILE_SCHEMA (('AUTOMOTIVE_DESIGN {1 0 10303 214 3 1 1}'));
ENDSEC;

DATA;
#10=PROPERTY_DEFINITION_REPRESENTATION(#14,#12);
#11=PROPERTY_DEFINITION_REPRESENTATION(#15,#13);
#12=REPRESENTATION('',(#16),#1427);
#13=REPRESENTATION('',(#17),#1427);
#14=PROPERTY_DEFINITION('pmi validation property','',#1432);
#15=PROPERTY_DEFINITION('pmi validation property','',#1432);
#16=VALUE_REPRESENTATION_ITEM('number of annotations',COUNT_MEASURE(0.));
#17=VALUE_REPRESENTATION_ITEM('number of views',COUNT_MEASURE(0.));
#18=SHAPE_REPRESENTATION_RELATIONSHIP('','',#796,#19);
#19=ADVANCED_BREP_SHAPE_REPRESENTATION('',(#794),#1427);
#20=CONICAL_SURFACE('',#936,665.,0.832981266674392);
#21=PLANE('',#897);
#22=PLANE('',#931);
#23=PLANE('',#934);
#24=ORIENTED_EDGE('',*,*,#226,.F.);
#25=ORIENTED_EDGE('',*,*,#227,.F.);
#26=ORIENTED_EDGE('',*,*,#228,.F.);
#27=ORIENTED_EDGE('',*,*,#229,.F.);
#28=ORIENTED_EDGE('',*,*,#230,.F.);
#29=ORIENTED_EDGE('',*,*,#231,.F.);
#30=ORIENTED_EDGE('',*,*,#232,.F.);
#31=ORIENTED_EDGE('',*,*,#233,.F.);
#32=ORIENTED_EDGE('',*,*,#234,.F.);
#33=ORIENTED_EDGE('',*,*,#235,.F.);
#34=ORIENTED_EDGE('',*,*,#236,.F.);
#35=ORIENTED_EDGE('',*,*,#237,.F.);
#36=ORIENTED_EDGE('',*,*,#238,.F.);
#37=ORIENTED_EDGE('',*,*,#239,.F.);
#38=ORIENTED_EDGE('',*,*,#240,.F.);
#39=ORIENTED_EDGE('',*,*,#241,.F.);
#40=ORIENTED_EDGE('',*,*,#242,.F.);
#41=ORIENTED_EDGE('',*,*,#243,.F.);
#42=ORIENTED_EDGE('',*,*,#244,.F.);
#43=ORIENTED_EDGE('',*,*,#245,.F.);
#44=ORIENTED_EDGE('',*,*,#246,.F.);
#45=ORIENTED_EDGE('',*,*,#247,.F.);
#46=ORIENTED_EDGE('',*,*,#248,.F.);
#47=ORIENTED_EDGE('',*,*,#249,.F.);
#48=ORIENTED_EDGE('',*,*,#250,.F.);
#49=ORIENTED_EDGE('',*,*,#251,.F.);
#50=ORIENTED_EDGE('',*,*,#252,.F.);
#51=ORIENTED_EDGE('',*,*,#253,.F.);
#52=ORIENTED_EDGE('',*,*,#254,.F.);
#53=ORIENTED_EDGE('',*,*,#255,.F.);
#54=ORIENTED_EDGE('',*,*,#256,.F.);
#55=ORIENTED_EDGE('',*,*,#257,.F.);
#56=ORIENTED_EDGE('',*,*,#258,.F.);
#57=ORIENTED_EDGE('',*,*,#259,.F.);
#58=ORIENTED_EDGE('',*,*,#260,.F.);
#59=ORIENTED_EDGE('',*,*,#261,.F.);
#60=ORIENTED_EDGE('',*,*,#262,.F.);
#61=ORIENTED_EDGE('',*,*,#263,.F.);
#62=ORIENTED_EDGE('',*,*,#264,.F.);
#63=ORIENTED_EDGE('',*,*,#265,.F.);
#64=ORIENTED_EDGE('',*,*,#266,.F.);
#65=ORIENTED_EDGE('',*,*,#267,.F.);
#66=ORIENTED_EDGE('',*,*,#268,.F.);
#67=ORIENTED_EDGE('',*,*,#269,.F.);
#68=ORIENTED_EDGE('',*,*,#270,.F.);
#69=ORIENTED_EDGE('',*,*,#271,.F.);
#70=ORIENTED_EDGE('',*,*,#272,.F.);
#71=ORIENTED_EDGE('',*,*,#273,.F.);
#72=ORIENTED_EDGE('',*,*,#274,.F.);
#73=ORIENTED_EDGE('',*,*,#275,.F.);
#74=ORIENTED_EDGE('',*,*,#276,.F.);
#75=ORIENTED_EDGE('',*,*,#277,.F.);
#76=ORIENTED_EDGE('',*,*,#278,.F.);
#77=ORIENTED_EDGE('',*,*,#279,.F.);
#78=ORIENTED_EDGE('',*,*,#280,.F.);
#79=ORIENTED_EDGE('',*,*,#281,.F.);
#80=ORIENTED_EDGE('',*,*,#282,.F.);
#81=ORIENTED_EDGE('',*,*,#283,.F.);
#82=ORIENTED_EDGE('',*,*,#284,.F.);
#83=ORIENTED_EDGE('',*,*,#285,.F.);
#84=ORIENTED_EDGE('',*,*,#286,.F.);
#85=ORIENTED_EDGE('',*,*,#287,.F.);
#86=ORIENTED_EDGE('',*,*,#288,.F.);
#87=ORIENTED_EDGE('',*,*,#289,.T.);
#88=ORIENTED_EDGE('',*,*,#290,.T.);
#89=ORIENTED_EDGE('',*,*,#291,.F.);
#90=ORIENTED_EDGE('',*,*,#240,.T.);
#91=ORIENTED_EDGE('',*,*,#292,.T.);
#92=ORIENTED_EDGE('',*,*,#238,.T.);
#93=ORIENTED_EDGE('',*,*,#293,.T.);
#94=ORIENTED_EDGE('',*,*,#236,.T.);
#95=ORIENTED_EDGE('',*,*,#294,.T.);
#96=ORIENTED_EDGE('',*,*,#234,.T.);
#97=ORIENTED_EDGE('',*,*,#295,.T.);
#98=ORIENTED_EDGE('',*,*,#232,.T.);
#99=ORIENTED_EDGE('',*,*,#296,.T.);
#100=ORIENTED_EDGE('',*,*,#230,.T.);
#101=ORIENTED_EDGE('',*,*,#297,.T.);
#102=ORIENTED_EDGE('',*,*,#228,.T.);
#103=ORIENTED_EDGE('',*,*,#298,.T.);
#104=ORIENTED_EDGE('',*,*,#226,.T.);
#105=ORIENTED_EDGE('',*,*,#299,.T.);
#106=ORIENTED_EDGE('',*,*,#300,.T.);
#107=ORIENTED_EDGE('',*,*,#301,.T.);
#108=ORIENTED_EDGE('',*,*,#286,.T.);
#109=ORIENTED_EDGE('',*,*,#302,.T.);
#110=ORIENTED_EDGE('',*,*,#284,.T.);
#111=ORIENTED_EDGE('',*,*,#303,.T.);
#112=ORIENTED_EDGE('',*,*,#282,.T.);
#113=ORIENTED_EDGE('',*,*,#304,.T.);
#114=ORIENTED_EDGE('',*,*,#280,.T.);
#115=ORIENTED_EDGE('',*,*,#305,.T.);
#116=ORIENTED_EDGE('',*,*,#278,.T.);
#117=ORIENTED_EDGE('',*,*,#306,.T.);
#118=ORIENTED_EDGE('',*,*,#276,.T.);
#119=ORIENTED_EDGE('',*,*,#307,.T.);
#120=ORIENTED_EDGE('',*,*,#274,.T.);
#121=ORIENTED_EDGE('',*,*,#308,.T.);
#122=ORIENTED_EDGE('',*,*,#272,.T.);
#123=ORIENTED_EDGE('',*,*,#309,.T.);
#124=ORIENTED_EDGE('',*,*,#270,.T.);
#125=ORIENTED_EDGE('',*,*,#310,.T.);
#126=ORIENTED_EDGE('',*,*,#268,.T.);
#127=ORIENTED_EDGE('',*,*,#311,.T.);
#128=ORIENTED_EDGE('',*,*,#266,.T.);
#129=ORIENTED_EDGE('',*,*,#312,.T.);
#130=ORIENTED_EDGE('',*,*,#264,.T.);
#131=ORIENTED_EDGE('',*,*,#313,.T.);
#132=ORIENTED_EDGE('',*,*,#262,.T.);
#133=ORIENTED_EDGE('',*,*,#314,.T.);
#134=ORIENTED_EDGE('',*,*,#260,.T.);
#135=ORIENTED_EDGE('',*,*,#315,.T.);
#136=ORIENTED_EDGE('',*,*,#258,.T.);
#137=ORIENTED_EDGE('',*,*,#316,.T.);
#138=ORIENTED_EDGE('',*,*,#256,.T.);
#139=ORIENTED_EDGE('',*,*,#317,.T.);
#140=ORIENTED_EDGE('',*,*,#254,.T.);
#141=ORIENTED_EDGE('',*,*,#318,.T.);
#142=ORIENTED_EDGE('',*,*,#252,.T.);
#143=ORIENTED_EDGE('',*,*,#319,.T.);
#144=ORIENTED_EDGE('',*,*,#250,.T.);
#145=ORIENTED_EDGE('',*,*,#320,.T.);
#146=ORIENTED_EDGE('',*,*,#248,.T.);
#147=ORIENTED_EDGE('',*,*,#321,.T.);
#148=ORIENTED_EDGE('',*,*,#246,.T.);
#149=ORIENTED_EDGE('',*,*,#322,.T.);
#150=ORIENTED_EDGE('',*,*,#244,.T.);
#151=ORIENTED_EDGE('',*,*,#323,.T.);
#152=ORIENTED_EDGE('',*,*,#242,.T.);
#153=ORIENTED_EDGE('',*,*,#324,.T.);
#154=ORIENTED_EDGE('',*,*,#290,.F.);
#155=ORIENTED_EDGE('',*,*,#227,.T.);
#156=ORIENTED_EDGE('',*,*,#229,.T.);
#157=ORIENTED_EDGE('',*,*,#231,.T.);
#158=ORIENTED_EDGE('',*,*,#233,.T.);
#159=ORIENTED_EDGE('',*,*,#235,.T.);
#160=ORIENTED_EDGE('',*,*,#237,.T.);
#161=ORIENTED_EDGE('',*,*,#239,.T.);
#162=ORIENTED_EDGE('',*,*,#241,.T.);
#163=ORIENTED_EDGE('',*,*,#243,.T.);
#164=ORIENTED_EDGE('',*,*,#245,.T.);
#165=ORIENTED_EDGE('',*,*,#247,.T.);
#166=ORIENTED_EDGE('',*,*,#249,.T.);
#167=ORIENTED_EDGE('',*,*,#251,.T.);
#168=ORIENTED_EDGE('',*,*,#253,.T.);
#169=ORIENTED_EDGE('',*,*,#255,.T.);
#170=ORIENTED_EDGE('',*,*,#257,.T.);
#171=ORIENTED_EDGE('',*,*,#259,.T.);
#172=ORIENTED_EDGE('',*,*,#261,.T.);
#173=ORIENTED_EDGE('',*,*,#263,.T.);
#174=ORIENTED_EDGE('',*,*,#265,.T.);
#175=ORIENTED_EDGE('',*,*,#267,.T.);
#176=ORIENTED_EDGE('',*,*,#269,.T.);
#177=ORIENTED_EDGE('',*,*,#271,.T.);
#178=ORIENTED_EDGE('',*,*,#273,.T.);
#179=ORIENTED_EDGE('',*,*,#275,.T.);
#180=ORIENTED_EDGE('',*,*,#277,.T.);
#181=ORIENTED_EDGE('',*,*,#279,.T.);
#182=ORIENTED_EDGE('',*,*,#281,.T.);
#183=ORIENTED_EDGE('',*,*,#283,.T.);
#184=ORIENTED_EDGE('',*,*,#285,.T.);
#185=ORIENTED_EDGE('',*,*,#287,.T.);
#186=ORIENTED_EDGE('',*,*,#325,.T.);
#187=ORIENTED_EDGE('',*,*,#289,.F.);
#188=ORIENTED_EDGE('',*,*,#291,.T.);
#189=ORIENTED_EDGE('',*,*,#300,.F.);
#190=ORIENTED_EDGE('',*,*,#325,.F.);
#191=ORIENTED_EDGE('',*,*,#326,.F.);
#192=ORIENTED_EDGE('',*,*,#288,.T.);
#193=ORIENTED_EDGE('',*,*,#292,.F.);
#194=ORIENTED_EDGE('',*,*,#324,.F.);
#195=ORIENTED_EDGE('',*,*,#323,.F.);
#196=ORIENTED_EDGE('',*,*,#322,.F.);
#197=ORIENTED_EDGE('',*,*,#321,.F.);
#198=ORIENTED_EDGE('',*,*,#320,.F.);
#199=ORIENTED_EDGE('',*,*,#319,.F.);
#200=ORIENTED_EDGE('',*,*,#318,.F.);
#201=ORIENTED_EDGE('',*,*,#317,.F.);
#202=ORIENTED_EDGE('',*,*,#316,.F.);
#203=ORIENTED_EDGE('',*,*,#315,.F.);
#204=ORIENTED_EDGE('',*,*,#314,.F.);
#205=ORIENTED_EDGE('',*,*,#313,.F.);
#206=ORIENTED_EDGE('',*,*,#312,.F.);
#207=ORIENTED_EDGE('',*,*,#311,.F.);
#208=ORIENTED_EDGE('',*,*,#310,.F.);
#209=ORIENTED_EDGE('',*,*,#309,.F.);
#210=ORIENTED_EDGE('',*,*,#308,.F.);
#211=ORIENTED_EDGE('',*,*,#307,.F.);
#212=ORIENTED_EDGE('',*,*,#306,.F.);
#213=ORIENTED_EDGE('',*,*,#305,.F.);
#214=ORIENTED_EDGE('',*,*,#304,.F.);
#215=ORIENTED_EDGE('',*,*,#303,.F.);
#216=ORIENTED_EDGE('',*,*,#302,.F.);
#217=ORIENTED_EDGE('',*,*,#301,.F.);
#218=ORIENTED_EDGE('',*,*,#299,.F.);
#219=ORIENTED_EDGE('',*,*,#298,.F.);
#220=ORIENTED_EDGE('',*,*,#297,.F.);
#221=ORIENTED_EDGE('',*,*,#296,.F.);
#222=ORIENTED_EDGE('',*,*,#295,.F.);
#223=ORIENTED_EDGE('',*,*,#294,.F.);
#224=ORIENTED_EDGE('',*,*,#293,.F.);
#225=ORIENTED_EDGE('',*,*,#326,.T.);
#226=EDGE_CURVE('',#327,#327,#396,.T.);
#227=EDGE_CURVE('',#328,#328,#397,.F.);
#228=EDGE_CURVE('',#329,#329,#398,.T.);
#229=EDGE_CURVE('',#330,#330,#399,.F.);
#230=EDGE_CURVE('',#331,#331,#400,.T.);
#231=EDGE_CURVE('',#332,#332,#401,.F.);
#232=EDGE_CURVE('',#333,#333,#402,.T.);
#233=EDGE_CURVE('',#334,#334,#403,.F.);
#234=EDGE_CURVE('',#335,#335,#404,.T.);
#235=EDGE_CURVE('',#336,#336,#405,.F.);
#236=EDGE_CURVE('',#337,#337,#406,.T.);
#237=EDGE_CURVE('',#338,#338,#407,.F.);
#238=EDGE_CURVE('',#339,#339,#408,.T.);
#239=EDGE_CURVE('',#340,#340,#409,.F.);
#240=EDGE_CURVE('',#341,#341,#410,.T.);
#241=EDGE_CURVE('',#342,#342,#411,.F.);
#242=EDGE_CURVE('',#343,#343,#412,.T.);
#243=EDGE_CURVE('',#344,#344,#413,.F.);
#244=EDGE_CURVE('',#345,#345,#414,.T.);
#245=EDGE_CURVE('',#346,#346,#415,.F.);
#246=EDGE_CURVE('',#347,#347,#416,.T.);
#247=EDGE_CURVE('',#348,#348,#417,.F.);
#248=EDGE_CURVE('',#349,#349,#418,.T.);
#249=EDGE_CURVE('',#350,#350,#419,.F.);
#250=EDGE_CURVE('',#351,#351,#420,.T.);
#251=EDGE_CURVE('',#352,#352,#421,.F.);
#252=EDGE_CURVE('',#353,#353,#422,.T.);
#253=EDGE_CURVE('',#354,#354,#423,.F.);
#254=EDGE_CURVE('',#355,#355,#424,.T.);
#255=EDGE_CURVE('',#356,#356,#425,.F.);
#256=EDGE_CURVE('',#357,#357,#426,.T.);
#257=EDGE_CURVE('',#358,#358,#427,.F.);
#258=EDGE_CURVE('',#359,#359,#428,.T.);
#259=EDGE_CURVE('',#360,#360,#429,.F.);
#260=EDGE_CURVE('',#361,#361,#430,.T.);
#261=EDGE_CURVE('',#362,#362,#431,.F.);
#262=EDGE_CURVE('',#363,#363,#432,.T.);
#263=EDGE_CURVE('',#364,#364,#433,.F.);
#264=EDGE_CURVE('',#365,#365,#434,.T.);
#265=EDGE_CURVE('',#366,#366,#435,.F.);
#266=EDGE_CURVE('',#367,#367,#436,.T.);
#267=EDGE_CURVE('',#368,#368,#437,.F.);
#268=EDGE_CURVE('',#369,#369,#438,.T.);
#269=EDGE_CURVE('',#370,#370,#439,.F.);
#270=EDGE_CURVE('',#371,#371,#440,.T.);
#271=EDGE_CURVE('',#372,#372,#441,.F.);
#272=EDGE_CURVE('',#373,#373,#442,.T.);
#273=EDGE_CURVE('',#374,#374,#443,.F.);
#274=EDGE_CURVE('',#375,#375,#444,.T.);
#275=EDGE_CURVE('',#376,#376,#445,.F.);
#276=EDGE_CURVE('',#377,#377,#446,.T.);
#277=EDGE_CURVE('',#378,#378,#447,.F.);
#278=EDGE_CURVE('',#379,#379,#448,.T.);
#279=EDGE_CURVE('',#380,#380,#449,.F.);
#280=EDGE_CURVE('',#381,#381,#450,.T.);
#281=EDGE_CURVE('',#382,#382,#451,.F.);
#282=EDGE_CURVE('',#383,#383,#452,.T.);
#283=EDGE_CURVE('',#384,#384,#453,.F.);
#284=EDGE_CURVE('',#385,#385,#454,.T.);
#285=EDGE_CURVE('',#386,#386,#455,.F.);
#286=EDGE_CURVE('',#387,#387,#456,.T.);
#287=EDGE_CURVE('',#388,#388,#457,.F.);
#288=EDGE_CURVE('',#389,#389,#458,.T.);
#289=EDGE_CURVE('',#390,#390,#459,.T.);
#290=EDGE_CURVE('',#391,#391,#460,.T.);
#291=EDGE_CURVE('',#392,#392,#461,.T.);
#292=EDGE_CURVE('',#341,#339,#462,.T.);
#293=EDGE_CURVE('',#339,#337,#463,.T.);
#294=EDGE_CURVE('',#337,#335,#464,.T.);
#295=EDGE_CURVE('',#335,#333,#465,.T.);
#296=EDGE_CURVE('',#333,#331,#466,.T.);
#297=EDGE_CURVE('',#331,#329,#467,.T.);
#298=EDGE_CURVE('',#329,#327,#468,.T.);
#299=EDGE_CURVE('',#327,#393,#469,.T.);
#300=EDGE_CURVE('',#393,#393,#470,.T.);
#301=EDGE_CURVE('',#393,#387,#471,.T.);
#302=EDGE_CURVE('',#387,#385,#472,.T.);
#303=EDGE_CURVE('',#385,#383,#473,.T.);
#304=EDGE_CURVE('',#383,#381,#474,.T.);
#305=EDGE_CURVE('',#381,#379,#475,.T.);
#306=EDGE_CURVE('',#379,#377,#476,.T.);
#307=EDGE_CURVE('',#377,#375,#477,.T.);
#308=EDGE_CURVE('',#375,#373,#478,.T.);
#309=EDGE_CURVE('',#373,#371,#479,.T.);
#310=EDGE_CURVE('',#371,#369,#480,.T.);
#311=EDGE_CURVE('',#369,#367,#481,.T.);
#312=EDGE_CURVE('',#367,#365,#482,.T.);
#313=EDGE_CURVE('',#365,#363,#483,.T.);
#314=EDGE_CURVE('',#363,#361,#484,.T.);
#315=EDGE_CURVE('',#361,#359,#485,.T.);
#316=EDGE_CURVE('',#359,#357,#486,.T.);
#317=EDGE_CURVE('',#357,#355,#487,.T.);
#318=EDGE_CURVE('',#355,#353,#488,.T.);
#319=EDGE_CURVE('',#353,#351,#489,.T.);
#320=EDGE_CURVE('',#351,#349,#490,.T.);
#321=EDGE_CURVE('',#349,#347,#491,.T.);
#322=EDGE_CURVE('',#347,#345,#492,.T.);
#323=EDGE_CURVE('',#345,#343,#493,.T.);
#324=EDGE_CURVE('',#343,#341,#494,.T.);
#325=EDGE_CURVE('',#394,#394,#495,.F.);
#326=EDGE_CURVE('',#395,#395,#496,.T.);
#327=VERTEX_POINT('',#1220);
#328=VERTEX_POINT('',#1222);
#329=VERTEX_POINT('',#1225);
#330=VERTEX_POINT('',#1227);
#331=VERTEX_POINT('',#1230);
#332=VERTEX_POINT('',#1232);
#333=VERTEX_POINT('',#1235);
#334=VERTEX_POINT('',#1237);
#335=VERTEX_POINT('',#1240);
#336=VERTEX_POINT('',#1242);
#337=VERTEX_POINT('',#1245);
#338=VERTEX_POINT('',#1247);
#339=VERTEX_POINT('',#1250);
#340=VERTEX_POINT('',#1252);
#341=VERTEX_POINT('',#1255);
#342=VERTEX_POINT('',#1257);
#343=VERTEX_POINT('',#1260);
#344=VERTEX_POINT('',#1262);
#345=VERTEX_POINT('',#1265);
#346=VERTEX_POINT('',#1267);
#347=VERTEX_POINT('',#1270);
#348=VERTEX_POINT('',#1272);
#349=VERTEX_POINT('',#1275);
#350=VERTEX_POINT('',#1277);
#351=VERTEX_POINT('',#1280);
#352=VERTEX_POINT('',#1282);
#353=VERTEX_POINT('',#1285);
#354=VERTEX_POINT('',#1287);
#355=VERTEX_POINT('',#1290);
#356=VERTEX_POINT('',#1292);
#357=VERTEX_POINT('',#1295);
#358=VERTEX_POINT('',#1297);
#359=VERTEX_POINT('',#1300);
#360=VERTEX_POINT('',#1302);
#361=VERTEX_POINT('',#1305);
#362=VERTEX_POINT('',#1307);
#363=VERTEX_POINT('',#1310);
#364=VERTEX_POINT('',#1312);
#365=VERTEX_POINT('',#1315);
#366=VERTEX_POINT('',#1317);
#367=VERTEX_POINT('',#1320);
#368=VERTEX_POINT('',#1322);
#369=VERTEX_POINT('',#1325);
#370=VERTEX_POINT('',#1327);
#371=VERTEX_POINT('',#1330);
#372=VERTEX_POINT('',#1332);
#373=VERTEX_POINT('',#1335);
#374=VERTEX_POINT('',#1337);
#375=VERTEX_POINT('',#1340);
#376=VERTEX_POINT('',#1342);
#377=VERTEX_POINT('',#1345);
#378=VERTEX_POINT('',#1347);
#379=VERTEX_POINT('',#1350);
#380=VERTEX_POINT('',#1352);
#381=VERTEX_POINT('',#1355);
#382=VERTEX_POINT('',#1357);
#383=VERTEX_POINT('',#1360);
#384=VERTEX_POINT('',#1362);
#385=VERTEX_POINT('',#1365);
#386=VERTEX_POINT('',#1367);
#387=VERTEX_POINT('',#1370);
#388=VERTEX_POINT('',#1372);
#389=VERTEX_POINT('',#1375);
#390=VERTEX_POINT('',#1377);
#391=VERTEX_POINT('',#1380);
#392=VERTEX_POINT('',#1382);
#393=VERTEX_POINT('',#1392);
#394=VERTEX_POINT('',#1420);
#395=VERTEX_POINT('',#1424);
#396=CIRCLE('',#799,19.5);
#397=CIRCLE('',#800,19.5);
#398=CIRCLE('',#802,19.5);
#399=CIRCLE('',#803,19.5);
#400=CIRCLE('',#805,19.5);
#401=CIRCLE('',#806,19.5);
#402=CIRCLE('',#808,19.5);
#403=CIRCLE('',#809,19.5);
#404=CIRCLE('',#811,19.5);
#405=CIRCLE('',#812,19.5);
#406=CIRCLE('',#814,19.5);
#407=CIRCLE('',#815,19.5);
#408=CIRCLE('',#817,19.5);
#409=CIRCLE('',#818,19.5);
#410=CIRCLE('',#820,19.5);
#411=CIRCLE('',#821,19.5);
#412=CIRCLE('',#823,19.5);
#413=CIRCLE('',#824,19.5);
#414=CIRCLE('',#826,19.5);
#415=CIRCLE('',#827,19.5);
#416=CIRCLE('',#829,19.5);
#417=CIRCLE('',#830,19.5);
#418=CIRCLE('',#832,19.5);
#419=CIRCLE('',#833,19.5);
#420=CIRCLE('',#835,19.5);
#421=CIRCLE('',#836,19.5);
#422=CIRCLE('',#838,19.5);
#423=CIRCLE('',#839,19.5);
#424=CIRCLE('',#841,19.5);
#425=CIRCLE('',#842,19.5);
#426=CIRCLE('',#844,19.5);
#427=CIRCLE('',#845,19.5);
#428=CIRCLE('',#847,19.5);
#429=CIRCLE('',#848,19.5);
#430=CIRCLE('',#850,19.5);
#431=CIRCLE('',#851,19.5);
#432=CIRCLE('',#853,19.5);
#433=CIRCLE('',#854,19.5);
#434=CIRCLE('',#856,19.5);
#435=CIRCLE('',#857,19.5);
#436=CIRCLE('',#859,19.5);
#437=CIRCLE('',#860,19.5);
#438=CIRCLE('',#862,19.5);
#439=CIRCLE('',#863,19.5);
#440=CIRCLE('',#865,19.5);
#441=CIRCLE('',#866,19.5);
#442=CIRCLE('',#868,19.5);
#443=CIRCLE('',#869,19.5);
#444=CIRCLE('',#871,19.5);
#445=CIRCLE('',#872,19.5);
#446=CIRCLE('',#874,19.5);
#447=CIRCLE('',#875,19.5);
#448=CIRCLE('',#877,19.5);
#449=CIRCLE('',#878,19.5);
#450=CIRCLE('',#880,19.5);
#451=CIRCLE('',#881,19.5);
#452=CIRCLE('',#883,19.5);
#453=CIRCLE('',#884,19.5);
#454=CIRCLE('',#886,19.5);
#455=CIRCLE('',#887,19.5);
#456=CIRCLE('',#889,19.5);
#457=CIRCLE('',#890,19.5);
#458=CIRCLE('',#892,611.5);
#459=CIRCLE('',#893,611.5);
#460=CIRCLE('',#895,727.5);
#461=CIRCLE('',#896,727.5);
#462=CIRCLE('',#898,670.5);
#463=CIRCLE('',#899,670.5);
#464=CIRCLE('',#900,670.5);
#465=CIRCLE('',#901,670.5);
#466=CIRCLE('',#902,670.5);
#467=CIRCLE('',#903,670.5);
#468=CIRCLE('',#904,670.5);
#469=CIRCLE('',#905,670.5);
#470=CIRCLE('',#906,19.5);
#471=CIRCLE('',#907,670.5);
#472=CIRCLE('',#908,670.5);
#473=CIRCLE('',#909,670.5);
#474=CIRCLE('',#910,670.5);
#475=CIRCLE('',#911,670.5);
#476=CIRCLE('',#912,670.5);
#477=CIRCLE('',#913,670.5);
#478=CIRCLE('',#914,670.5);
#479=CIRCLE('',#915,670.5);
#480=CIRCLE('',#916,670.5);
#481=CIRCLE('',#917,670.5);
#482=CIRCLE('',#918,670.5);
#483=CIRCLE('',#919,670.5);
#484=CIRCLE('',#920,670.5);
#485=CIRCLE('',#921,670.5);
#486=CIRCLE('',#922,670.5);
#487=CIRCLE('',#923,670.5);
#488=CIRCLE('',#924,670.5);
#489=CIRCLE('',#925,670.5);
#490=CIRCLE('',#926,670.5);
#491=CIRCLE('',#927,670.5);
#492=CIRCLE('',#928,670.5);
#493=CIRCLE('',#929,670.5);
#494=CIRCLE('',#930,670.5);
#495=CIRCLE('',#932,19.5);
#496=CIRCLE('',#935,665.);
#497=EDGE_LOOP('',(#24));
#498=EDGE_LOOP('',(#25));
#499=EDGE_LOOP('',(#26));
#500=EDGE_LOOP('',(#27));
#501=EDGE_LOOP('',(#28));
#502=EDGE_LOOP('',(#29));
#503=EDGE_LOOP('',(#30));
#504=EDGE_LOOP('',(#31));
#505=EDGE_LOOP('',(#32));
#506=EDGE_LOOP('',(#33));
#507=EDGE_LOOP('',(#34));
#508=EDGE_LOOP('',(#35));
#509=EDGE_LOOP('',(#36));
#510=EDGE_LOOP('',(#37));
#511=EDGE_LOOP('',(#38));
#512=EDGE_LOOP('',(#39));
#513=EDGE_LOOP('',(#40));
#514=EDGE_LOOP('',(#41));
#515=EDGE_LOOP('',(#42));
#516=EDGE_LOOP('',(#43));
#517=EDGE_LOOP('',(#44));
#518=EDGE_LOOP('',(#45));
#519=EDGE_LOOP('',(#46));
#520=EDGE_LOOP('',(#47));
#521=EDGE_LOOP('',(#48));
#522=EDGE_LOOP('',(#49));
#523=EDGE_LOOP('',(#50));
#524=EDGE_LOOP('',(#51));
#525=EDGE_LOOP('',(#52));
#526=EDGE_LOOP('',(#53));
#527=EDGE_LOOP('',(#54));
#528=EDGE_LOOP('',(#55));
#529=EDGE_LOOP('',(#56));
#530=EDGE_LOOP('',(#57));
#531=EDGE_LOOP('',(#58));
#532=EDGE_LOOP('',(#59));
#533=EDGE_LOOP('',(#60));
#534=EDGE_LOOP('',(#61));
#535=EDGE_LOOP('',(#62));
#536=EDGE_LOOP('',(#63));
#537=EDGE_LOOP('',(#64));
#538=EDGE_LOOP('',(#65));
#539=EDGE_LOOP('',(#66));
#540=EDGE_LOOP('',(#67));
#541=EDGE_LOOP('',(#68));
#542=EDGE_LOOP('',(#69));
#543=EDGE_LOOP('',(#70));
#544=EDGE_LOOP('',(#71));
#545=EDGE_LOOP('',(#72));
#546=EDGE_LOOP('',(#73));
#547=EDGE_LOOP('',(#74));
#548=EDGE_LOOP('',(#75));
#549=EDGE_LOOP('',(#76));
#550=EDGE_LOOP('',(#77));
#551=EDGE_LOOP('',(#78));
#552=EDGE_LOOP('',(#79));
#553=EDGE_LOOP('',(#80));
#554=EDGE_LOOP('',(#81));
#555=EDGE_LOOP('',(#82));
#556=EDGE_LOOP('',(#83));
#557=EDGE_LOOP('',(#84));
#558=EDGE_LOOP('',(#85));
#559=EDGE_LOOP('',(#86));
#560=EDGE_LOOP('',(#87));
#561=EDGE_LOOP('',(#88));
#562=EDGE_LOOP('',(#89));
#563=EDGE_LOOP('',(#90,#91,#92,#93,#94,#95,#96,#97,#98,#99,#100,#101,#102,
#103,#104,#105,#106,#107,#108,#109,#110,#111,#112,#113,#114,#115,#116,#117,
#118,#119,#120,#121,#122,#123,#124,#125,#126,#127,#128,#129,#130,#131,#132,
#133,#134,#135,#136,#137,#138,#139,#140,#141,#142,#143,#144,#145,#146,#147,
#148,#149,#150,#151,#152,#153));
#564=EDGE_LOOP('',(#154));
#565=EDGE_LOOP('',(#155));
#566=EDGE_LOOP('',(#156));
#567=EDGE_LOOP('',(#157));
#568=EDGE_LOOP('',(#158));
#569=EDGE_LOOP('',(#159));
#570=EDGE_LOOP('',(#160));
#571=EDGE_LOOP('',(#161));
#572=EDGE_LOOP('',(#162));
#573=EDGE_LOOP('',(#163));
#574=EDGE_LOOP('',(#164));
#575=EDGE_LOOP('',(#165));
#576=EDGE_LOOP('',(#166));
#577=EDGE_LOOP('',(#167));
#578=EDGE_LOOP('',(#168));
#579=EDGE_LOOP('',(#169));
#580=EDGE_LOOP('',(#170));
#581=EDGE_LOOP('',(#171));
#582=EDGE_LOOP('',(#172));
#583=EDGE_LOOP('',(#173));
#584=EDGE_LOOP('',(#174));
#585=EDGE_LOOP('',(#175));
#586=EDGE_LOOP('',(#176));
#587=EDGE_LOOP('',(#177));
#588=EDGE_LOOP('',(#178));
#589=EDGE_LOOP('',(#179));
#590=EDGE_LOOP('',(#180));
#591=EDGE_LOOP('',(#181));
#592=EDGE_LOOP('',(#182));
#593=EDGE_LOOP('',(#183));
#594=EDGE_LOOP('',(#184));
#595=EDGE_LOOP('',(#185));
#596=EDGE_LOOP('',(#186));
#597=EDGE_LOOP('',(#187));
#598=EDGE_LOOP('',(#188));
#599=EDGE_LOOP('',(#189));
#600=EDGE_LOOP('',(#190));
#601=EDGE_LOOP('',(#191));
#602=EDGE_LOOP('',(#192));
#603=EDGE_LOOP('',(#193,#194,#195,#196,#197,#198,#199,#200,#201,#202,#203,
#204,#205,#206,#207,#208,#209,#210,#211,#212,#213,#214,#215,#216,#217,#218,
#219,#220,#221,#222,#223,#224));
#604=EDGE_LOOP('',(#225));
#605=FACE_BOUND('',#497,.T.);
#606=FACE_BOUND('',#498,.T.);
#607=FACE_BOUND('',#499,.T.);
#608=FACE_BOUND('',#500,.T.);
#609=FACE_BOUND('',#501,.T.);
#610=FACE_BOUND('',#502,.T.);
#611=FACE_BOUND('',#503,.T.);
#612=FACE_BOUND('',#504,.T.);
#613=FACE_BOUND('',#505,.T.);
#614=FACE_BOUND('',#506,.T.);
#615=FACE_BOUND('',#507,.T.);
#616=FACE_BOUND('',#508,.T.);
#617=FACE_BOUND('',#509,.T.);
#618=FACE_BOUND('',#510,.T.);
#619=FACE_BOUND('',#511,.T.);
#620=FACE_BOUND('',#512,.T.);
#621=FACE_BOUND('',#513,.T.);
#622=FACE_BOUND('',#514,.T.);
#623=FACE_BOUND('',#515,.T.);
#624=FACE_BOUND('',#516,.T.);
#625=FACE_BOUND('',#517,.T.);
#626=FACE_BOUND('',#518,.T.);
#627=FACE_BOUND('',#519,.T.);
#628=FACE_BOUND('',#520,.T.);
#629=FACE_BOUND('',#521,.T.);
#630=FACE_BOUND('',#522,.T.);
#631=FACE_BOUND('',#523,.T.);
#632=FACE_BOUND('',#524,.T.);
#633=FACE_BOUND('',#525,.T.);
#634=FACE_BOUND('',#526,.T.);
#635=FACE_BOUND('',#527,.T.);
#636=FACE_BOUND('',#528,.T.);
#637=FACE_BOUND('',#529,.T.);
#638=FACE_BOUND('',#530,.T.);
#639=FACE_BOUND('',#531,.T.);
#640=FACE_BOUND('',#532,.T.);
#641=FACE_BOUND('',#533,.T.);
#642=FACE_BOUND('',#534,.T.);
#643=FACE_BOUND('',#535,.T.);
#644=FACE_BOUND('',#536,.T.);
#645=FACE_BOUND('',#537,.T.);
#646=FACE_BOUND('',#538,.T.);
#647=FACE_BOUND('',#539,.T.);
#648=FACE_BOUND('',#540,.T.);
#649=FACE_BOUND('',#541,.T.);
#650=FACE_BOUND('',#542,.T.);
#651=FACE_BOUND('',#543,.T.);
#652=FACE_BOUND('',#544,.T.);
#653=FACE_BOUND('',#545,.T.);
#654=FACE_BOUND('',#546,.T.);
#655=FACE_BOUND('',#547,.T.);
#656=FACE_BOUND('',#548,.T.);
#657=FACE_BOUND('',#549,.T.);
#658=FACE_BOUND('',#550,.T.);
#659=FACE_BOUND('',#551,.T.);
#660=FACE_BOUND('',#552,.T.);
#661=FACE_BOUND('',#553,.T.);
#662=FACE_BOUND('',#554,.T.);
#663=FACE_BOUND('',#555,.T.);
#664=FACE_BOUND('',#556,.T.);
#665=FACE_BOUND('',#557,.T.);
#666=FACE_BOUND('',#558,.T.);
#667=FACE_BOUND('',#559,.T.);
#668=FACE_BOUND('',#560,.T.);
#669=FACE_BOUND('',#561,.T.);
#670=FACE_BOUND('',#562,.T.);
#671=FACE_BOUND('',#563,.T.);
#672=FACE_BOUND('',#564,.T.);
#673=FACE_BOUND('',#565,.T.);
#674=FACE_BOUND('',#566,.T.);
#675=FACE_BOUND('',#567,.T.);
#676=FACE_BOUND('',#568,.T.);
#677=FACE_BOUND('',#569,.T.);
#678=FACE_BOUND('',#570,.T.);
#679=FACE_BOUND('',#571,.T.);
#680=FACE_BOUND('',#572,.T.);
#681=FACE_BOUND('',#573,.T.);
#682=FACE_BOUND('',#574,.T.);
#683=FACE_BOUND('',#575,.T.);
#684=FACE_BOUND('',#576,.T.);
#685=FACE_BOUND('',#577,.T.);
#686=FACE_BOUND('',#578,.T.);
#687=FACE_BOUND('',#579,.T.);
#688=FACE_BOUND('',#580,.T.);
#689=FACE_BOUND('',#581,.T.);
#690=FACE_BOUND('',#582,.T.);
#691=FACE_BOUND('',#583,.T.);
#692=FACE_BOUND('',#584,.T.);
#693=FACE_BOUND('',#585,.T.);
#694=FACE_BOUND('',#586,.T.);
#695=FACE_BOUND('',#587,.T.);
#696=FACE_BOUND('',#588,.T.);
#697=FACE_BOUND('',#589,.T.);
#698=FACE_BOUND('',#590,.T.);
#699=FACE_BOUND('',#591,.T.);
#700=FACE_BOUND('',#592,.T.);
#701=FACE_BOUND('',#593,.T.);
#702=FACE_BOUND('',#594,.T.);
#703=FACE_BOUND('',#595,.T.);
#704=FACE_BOUND('',#596,.T.);
#705=FACE_BOUND('',#597,.T.);
#706=FACE_BOUND('',#598,.T.);
#707=FACE_BOUND('',#599,.T.);
#708=FACE_BOUND('',#600,.T.);
#709=FACE_BOUND('',#601,.T.);
#710=FACE_BOUND('',#602,.T.);
#711=FACE_BOUND('',#603,.T.);
#712=FACE_BOUND('',#604,.T.);
#713=CYLINDRICAL_SURFACE('',#798,19.5);
#714=CYLINDRICAL_SURFACE('',#801,19.5);
#715=CYLINDRICAL_SURFACE('',#804,19.5);
#716=CYLINDRICAL_SURFACE('',#807,19.5);
#717=CYLINDRICAL_SURFACE('',#810,19.5);
#718=CYLINDRICAL_SURFACE('',#813,19.5);
#719=CYLINDRICAL_SURFACE('',#816,19.5);
#720=CYLINDRICAL_SURFACE('',#819,19.5);
#721=CYLINDRICAL_SURFACE('',#822,19.5);
#722=CYLINDRICAL_SURFACE('',#825,19.5);
#723=CYLINDRICAL_SURFACE('',#828,19.5);
#724=CYLINDRICAL_SURFACE('',#831,19.5);
#725=CYLINDRICAL_SURFACE('',#834,19.5);
#726=CYLINDRICAL_SURFACE('',#837,19.5);
#727=CYLINDRICAL_SURFACE('',#840,19.5);
#728=CYLINDRICAL_SURFACE('',#843,19.5);
#729=CYLINDRICAL_SURFACE('',#846,19.5);
#730=CYLINDRICAL_SURFACE('',#849,19.5);
#731=CYLINDRICAL_SURFACE('',#852,19.5);
#732=CYLINDRICAL_SURFACE('',#855,19.5);
#733=CYLINDRICAL_SURFACE('',#858,19.5);
#734=CYLINDRICAL_SURFACE('',#861,19.5);
#735=CYLINDRICAL_SURFACE('',#864,19.5);
#736=CYLINDRICAL_SURFACE('',#867,19.5);
#737=CYLINDRICAL_SURFACE('',#870,19.5);
#738=CYLINDRICAL_SURFACE('',#873,19.5);
#739=CYLINDRICAL_SURFACE('',#876,19.5);
#740=CYLINDRICAL_SURFACE('',#879,19.5);
#741=CYLINDRICAL_SURFACE('',#882,19.5);
#742=CYLINDRICAL_SURFACE('',#885,19.5);
#743=CYLINDRICAL_SURFACE('',#888,19.5);
#744=CYLINDRICAL_SURFACE('',#891,611.5);
#745=CYLINDRICAL_SURFACE('',#894,727.5);
#746=CYLINDRICAL_SURFACE('',#933,19.5);
#747=ADVANCED_FACE('',(#605,#606),#713,.F.);
#748=ADVANCED_FACE('',(#607,#608),#714,.F.);
#749=ADVANCED_FACE('',(#609,#610),#715,.F.);
#750=ADVANCED_FACE('',(#611,#612),#716,.F.);
#751=ADVANCED_FACE('',(#613,#614),#717,.F.);
#752=ADVANCED_FACE('',(#615,#616),#718,.F.);
#753=ADVANCED_FACE('',(#617,#618),#719,.F.);
#754=ADVANCED_FACE('',(#619,#620),#720,.F.);
#755=ADVANCED_FACE('',(#621,#622),#721,.F.);
#756=ADVANCED_FACE('',(#623,#624),#722,.F.);
#757=ADVANCED_FACE('',(#625,#626),#723,.F.);
#758=ADVANCED_FACE('',(#627,#628),#724,.F.);
#759=ADVANCED_FACE('',(#629,#630),#725,.F.);
#760=ADVANCED_FACE('',(#631,#632),#726,.F.);
#761=ADVANCED_FACE('',(#633,#634),#727,.F.);
#762=ADVANCED_FACE('',(#635,#636),#728,.F.);
#763=ADVANCED_FACE('',(#637,#638),#729,.F.);
#764=ADVANCED_FACE('',(#639,#640),#730,.F.);
#765=ADVANCED_FACE('',(#641,#642),#731,.F.);
#766=ADVANCED_FACE('',(#643,#644),#732,.F.);
#767=ADVANCED_FACE('',(#645,#646),#733,.F.);
#768=ADVANCED_FACE('',(#647,#648),#734,.F.);
#769=ADVANCED_FACE('',(#649,#650),#735,.F.);
#770=ADVANCED_FACE('',(#651,#652),#736,.F.);
#771=ADVANCED_FACE('',(#653,#654),#737,.F.);
#772=ADVANCED_FACE('',(#655,#656),#738,.F.);
#773=ADVANCED_FACE('',(#657,#658),#739,.F.);
#774=ADVANCED_FACE('',(#659,#660),#740,.F.);
#775=ADVANCED_FACE('',(#661,#662),#741,.F.);
#776=ADVANCED_FACE('',(#663,#664),#742,.F.);
#777=ADVANCED_FACE('',(#665,#666),#743,.F.);
#778=ADVANCED_FACE('',(#667,#668),#744,.F.);
#779=ADVANCED_FACE('',(#669,#670),#745,.T.);
#780=ADVANCED_FACE('',(#671,#672),#21,.F.);
#781=ADVANCED_FACE('',(#673,#674,#675,#676,#677,#678,#679,#680,#681,#682,
#683,#684,#685,#686,#687,#688,#689,#690,#691,#692,#693,#694,#695,#696,#697,
#698,#699,#700,#701,#702,#703,#704,#705,#706),#22,.T.);
#782=ADVANCED_FACE('',(#707,#708),#746,.F.);
#783=ADVANCED_FACE('',(#709,#710),#23,.F.);
#784=ADVANCED_FACE('',(#711,#712),#20,.T.);
#785=CLOSED_SHELL('',(#747,#748,#749,#750,#751,#752,#753,#754,#755,#756,
#757,#758,#759,#760,#761,#762,#763,#764,#765,#766,#767,#768,#769,#770,#771,
#772,#773,#774,#775,#776,#777,#778,#779,#780,#781,#782,#783,#784));
#786=STYLED_ITEM('',(#787),#794);
#787=PRESENTATION_STYLE_ASSIGNMENT((#788));
#788=SURFACE_STYLE_USAGE(.BOTH.,#789);
#789=SURFACE_SIDE_STYLE('',(#790));
#790=SURFACE_STYLE_FILL_AREA(#791);
#791=FILL_AREA_STYLE('',(#792));
#792=FILL_AREA_STYLE_COLOUR('',#793);
#793=COLOUR_RGB('',0.506983280181885,0.531564235687256,0.550000011920929);
#794=MANIFOLD_SOLID_BREP('',#785);
#795=SHAPE_DEFINITION_REPRESENTATION(#1432,#796);
#796=SHAPE_REPRESENTATION('\X2\7A819762FF08\X0\RF\X2\FF09677F5F0F5E73710A94A252367BA16CD55170\X0\',
(#797),#1427);
#797=AXIS2_PLACEMENT_3D('',#1217,#937,#938);
#798=AXIS2_PLACEMENT_3D('',#1218,#939,#940);
#799=AXIS2_PLACEMENT_3D('',#1219,#941,#942);
#800=AXIS2_PLACEMENT_3D('',#1221,#943,#944);
#801=AXIS2_PLACEMENT_3D('',#1223,#945,#946);
#802=AXIS2_PLACEMENT_3D('',#1224,#947,#948);
#803=AXIS2_PLACEMENT_3D('',#1226,#949,#950);
#804=AXIS2_PLACEMENT_3D('',#1228,#951,#952);
#805=AXIS2_PLACEMENT_3D('',#1229,#953,#954);
#806=AXIS2_PLACEMENT_3D('',#1231,#955,#956);
#807=AXIS2_PLACEMENT_3D('',#1233,#957,#958);
#808=AXIS2_PLACEMENT_3D('',#1234,#959,#960);
#809=AXIS2_PLACEMENT_3D('',#1236,#961,#962);
#810=AXIS2_PLACEMENT_3D('',#1238,#963,#964);
#811=AXIS2_PLACEMENT_3D('',#1239,#965,#966);
#812=AXIS2_PLACEMENT_3D('',#1241,#967,#968);
#813=AXIS2_PLACEMENT_3D('',#1243,#969,#970);
#814=AXIS2_PLACEMENT_3D('',#1244,#971,#972);
#815=AXIS2_PLACEMENT_3D('',#1246,#973,#974);
#816=AXIS2_PLACEMENT_3D('',#1248,#975,#976);
#817=AXIS2_PLACEMENT_3D('',#1249,#977,#978);
#818=AXIS2_PLACEMENT_3D('',#1251,#979,#980);
#819=AXIS2_PLACEMENT_3D('',#1253,#981,#982);
#820=AXIS2_PLACEMENT_3D('',#1254,#983,#984);
#821=AXIS2_PLACEMENT_3D('',#1256,#985,#986);
#822=AXIS2_PLACEMENT_3D('',#1258,#987,#988);
#823=AXIS2_PLACEMENT_3D('',#1259,#989,#990);
#824=AXIS2_PLACEMENT_3D('',#1261,#991,#992);
#825=AXIS2_PLACEMENT_3D('',#1263,#993,#994);
#826=AXIS2_PLACEMENT_3D('',#1264,#995,#996);
#827=AXIS2_PLACEMENT_3D('',#1266,#997,#998);
#828=AXIS2_PLACEMENT_3D('',#1268,#999,#1000);
#829=AXIS2_PLACEMENT_3D('',#1269,#1001,#1002);
#830=AXIS2_PLACEMENT_3D('',#1271,#1003,#1004);
#831=AXIS2_PLACEMENT_3D('',#1273,#1005,#1006);
#832=AXIS2_PLACEMENT_3D('',#1274,#1007,#1008);
#833=AXIS2_PLACEMENT_3D('',#1276,#1009,#1010);
#834=AXIS2_PLACEMENT_3D('',#1278,#1011,#1012);
#835=AXIS2_PLACEMENT_3D('',#1279,#1013,#1014);
#836=AXIS2_PLACEMENT_3D('',#1281,#1015,#1016);
#837=AXIS2_PLACEMENT_3D('',#1283,#1017,#1018);
#838=AXIS2_PLACEMENT_3D('',#1284,#1019,#1020);
#839=AXIS2_PLACEMENT_3D('',#1286,#1021,#1022);
#840=AXIS2_PLACEMENT_3D('',#1288,#1023,#1024);
#841=AXIS2_PLACEMENT_3D('',#1289,#1025,#1026);
#842=AXIS2_PLACEMENT_3D('',#1291,#1027,#1028);
#843=AXIS2_PLACEMENT_3D('',#1293,#1029,#1030);
#844=AXIS2_PLACEMENT_3D('',#1294,#1031,#1032);
#845=AXIS2_PLACEMENT_3D('',#1296,#1033,#1034);
#846=AXIS2_PLACEMENT_3D('',#1298,#1035,#1036);
#847=AXIS2_PLACEMENT_3D('',#1299,#1037,#1038);
#848=AXIS2_PLACEMENT_3D('',#1301,#1039,#1040);
#849=AXIS2_PLACEMENT_3D('',#1303,#1041,#1042);
#850=AXIS2_PLACEMENT_3D('',#1304,#1043,#1044);
#851=AXIS2_PLACEMENT_3D('',#1306,#1045,#1046);
#852=AXIS2_PLACEMENT_3D('',#1308,#1047,#1048);
#853=AXIS2_PLACEMENT_3D('',#1309,#1049,#1050);
#854=AXIS2_PLACEMENT_3D('',#1311,#1051,#1052);
#855=AXIS2_PLACEMENT_3D('',#1313,#1053,#1054);
#856=AXIS2_PLACEMENT_3D('',#1314,#1055,#1056);
#857=AXIS2_PLACEMENT_3D('',#1316,#1057,#1058);
#858=AXIS2_PLACEMENT_3D('',#1318,#1059,#1060);
#859=AXIS2_PLACEMENT_3D('',#1319,#1061,#1062);
#860=AXIS2_PLACEMENT_3D('',#1321,#1063,#1064);
#861=AXIS2_PLACEMENT_3D('',#1323,#1065,#1066);
#862=AXIS2_PLACEMENT_3D('',#1324,#1067,#1068);
#863=AXIS2_PLACEMENT_3D('',#1326,#1069,#1070);
#864=AXIS2_PLACEMENT_3D('',#1328,#1071,#1072);
#865=AXIS2_PLACEMENT_3D('',#1329,#1073,#1074);
#866=AXIS2_PLACEMENT_3D('',#1331,#1075,#1076);
#867=AXIS2_PLACEMENT_3D('',#1333,#1077,#1078);
#868=AXIS2_PLACEMENT_3D('',#1334,#1079,#1080);
#869=AXIS2_PLACEMENT_3D('',#1336,#1081,#1082);
#870=AXIS2_PLACEMENT_3D('',#1338,#1083,#1084);
#871=AXIS2_PLACEMENT_3D('',#1339,#1085,#1086);
#872=AXIS2_PLACEMENT_3D('',#1341,#1087,#1088);
#873=AXIS2_PLACEMENT_3D('',#1343,#1089,#1090);
#874=AXIS2_PLACEMENT_3D('',#1344,#1091,#1092);
#875=AXIS2_PLACEMENT_3D('',#1346,#1093,#1094);
#876=AXIS2_PLACEMENT_3D('',#1348,#1095,#1096);
#877=AXIS2_PLACEMENT_3D('',#1349,#1097,#1098);
#878=AXIS2_PLACEMENT_3D('',#1351,#1099,#1100);
#879=AXIS2_PLACEMENT_3D('',#1353,#1101,#1102);
#880=AXIS2_PLACEMENT_3D('',#1354,#1103,#1104);
#881=AXIS2_PLACEMENT_3D('',#1356,#1105,#1106);
#882=AXIS2_PLACEMENT_3D('',#1358,#1107,#1108);
#883=AXIS2_PLACEMENT_3D('',#1359,#1109,#1110);
#884=AXIS2_PLACEMENT_3D('',#1361,#1111,#1112);
#885=AXIS2_PLACEMENT_3D('',#1363,#1113,#1114);
#886=AXIS2_PLACEMENT_3D('',#1364,#1115,#1116);
#887=AXIS2_PLACEMENT_3D('',#1366,#1117,#1118);
#888=AXIS2_PLACEMENT_3D('',#1368,#1119,#1120);
#889=AXIS2_PLACEMENT_3D('',#1369,#1121,#1122);
#890=AXIS2_PLACEMENT_3D('',#1371,#1123,#1124);
#891=AXIS2_PLACEMENT_3D('',#1373,#1125,#1126);
#892=AXIS2_PLACEMENT_3D('',#1374,#1127,#1128);
#893=AXIS2_PLACEMENT_3D('',#1376,#1129,#1130);
#894=AXIS2_PLACEMENT_3D('',#1378,#1131,#1132);
#895=AXIS2_PLACEMENT_3D('',#1379,#1133,#1134);
#896=AXIS2_PLACEMENT_3D('',#1381,#1135,#1136);
#897=AXIS2_PLACEMENT_3D('',#1383,#1137,#1138);
#898=AXIS2_PLACEMENT_3D('',#1384,#1139,#1140);
#899=AXIS2_PLACEMENT_3D('',#1385,#1141,#1142);
#900=AXIS2_PLACEMENT_3D('',#1386,#1143,#1144);
#901=AXIS2_PLACEMENT_3D('',#1387,#1145,#1146);
#902=AXIS2_PLACEMENT_3D('',#1388,#1147,#1148);
#903=AXIS2_PLACEMENT_3D('',#1389,#1149,#1150);
#904=AXIS2_PLACEMENT_3D('',#1390,#1151,#1152);
#905=AXIS2_PLACEMENT_3D('',#1391,#1153,#1154);
#906=AXIS2_PLACEMENT_3D('',#1393,#1155,#1156);
#907=AXIS2_PLACEMENT_3D('',#1394,#1157,#1158);
#908=AXIS2_PLACEMENT_3D('',#1395,#1159,#1160);
#909=AXIS2_PLACEMENT_3D('',#1396,#1161,#1162);
#910=AXIS2_PLACEMENT_3D('',#1397,#1163,#1164);
#911=AXIS2_PLACEMENT_3D('',#1398,#1165,#1166);
#912=AXIS2_PLACEMENT_3D('',#1399,#1167,#1168);
#913=AXIS2_PLACEMENT_3D('',#1400,#1169,#1170);
#914=AXIS2_PLACEMENT_3D('',#1401,#1171,#1172);
#915=AXIS2_PLACEMENT_3D('',#1402,#1173,#1174);
#916=AXIS2_PLACEMENT_3D('',#1403,#1175,#1176);
#917=AXIS2_PLACEMENT_3D('',#1404,#1177,#1178);
#918=AXIS2_PLACEMENT_3D('',#1405,#1179,#1180);
#919=AXIS2_PLACEMENT_3D('',#1406,#1181,#1182);
#920=AXIS2_PLACEMENT_3D('',#1407,#1183,#1184);
#921=AXIS2_PLACEMENT_3D('',#1408,#1185,#1186);
#922=AXIS2_PLACEMENT_3D('',#1409,#1187,#1188);
#923=AXIS2_PLACEMENT_3D('',#1410,#1189,#1190);
#924=AXIS2_PLACEMENT_3D('',#1411,#1191,#1192);
#925=AXIS2_PLACEMENT_3D('',#1412,#1193,#1194);
#926=AXIS2_PLACEMENT_3D('',#1413,#1195,#1196);
#927=AXIS2_PLACEMENT_3D('',#1414,#1197,#1198);
#928=AXIS2_PLACEMENT_3D('',#1415,#1199,#1200);
#929=AXIS2_PLACEMENT_3D('',#1416,#1201,#1202);
#930=AXIS2_PLACEMENT_3D('',#1417,#1203,#1204);
#931=AXIS2_PLACEMENT_3D('',#1418,#1205,#1206);
#932=AXIS2_PLACEMENT_3D('',#1419,#1207,#1208);
#933=AXIS2_PLACEMENT_3D('',#1421,#1209,#1210);
#934=AXIS2_PLACEMENT_3D('',#1422,#1211,#1212);
#935=AXIS2_PLACEMENT_3D('',#1423,#1213,#1214);
#936=AXIS2_PLACEMENT_3D('',#1425,#1215,#1216);
#937=DIRECTION('',(0.,0.,1.));
#938=DIRECTION('',(1.,0.,0.));
#939=DIRECTION('',(0.,0.,1.));
#940=DIRECTION('',(0.980785280403231,0.195090322016126,0.));
#941=DIRECTION('',(0.,0.,-1.));
#942=DIRECTION('',(0.980785280403231,0.195090322016126,0.));
#943=DIRECTION('',(0.,0.,-1.));
#944=DIRECTION('',(-0.980785280403231,-0.195090322016126,0.));
#945=DIRECTION('',(0.,0.,1.));
#946=DIRECTION('',(0.923879532511288,0.382683432365088,0.));
#947=DIRECTION('',(0.,0.,-1.));
#948=DIRECTION('',(0.923879532511288,0.382683432365088,0.));
#949=DIRECTION('',(0.,0.,-1.));
#950=DIRECTION('',(-0.923879532511288,-0.382683432365088,0.));
#951=DIRECTION('',(0.,0.,1.));
#952=DIRECTION('',(0.831469612302546,0.555570233019601,0.));
#953=DIRECTION('',(0.,0.,-1.));
#954=DIRECTION('',(0.831469612302546,0.555570233019601,0.));
#955=DIRECTION('',(0.,0.,-1.));
#956=DIRECTION('',(-0.831469612302546,-0.555570233019601,0.));
#957=DIRECTION('',(0.,0.,1.));
#958=DIRECTION('',(0.707106781186549,0.707106781186546,0.));
#959=DIRECTION('',(0.,0.,-1.));
#960=DIRECTION('',(0.707106781186549,0.707106781186546,0.));
#961=DIRECTION('',(0.,0.,-1.));
#962=DIRECTION('',(-0.707106781186549,-0.707106781186546,0.));
#963=DIRECTION('',(0.,0.,1.));
#964=DIRECTION('',(0.555570233019603,0.831469612302544,0.));
#965=DIRECTION('',(0.,0.,-1.));
#966=DIRECTION('',(0.555570233019603,0.831469612302544,0.));
#967=DIRECTION('',(0.,0.,-1.));
#968=DIRECTION('',(-0.555570233019603,-0.831469612302544,0.));
#969=DIRECTION('',(0.,0.,1.));
#970=DIRECTION('',(0.382683432365091,0.923879532511286,0.));
#971=DIRECTION('',(0.,0.,-1.));
#972=DIRECTION('',(0.382683432365091,0.923879532511286,0.));
#973=DIRECTION('',(0.,0.,-1.));
#974=DIRECTION('',(-0.382683432365091,-0.923879532511286,0.));
#975=DIRECTION('',(0.,0.,1.));
#976=DIRECTION('',(0.195090322016129,0.98078528040323,0.));
#977=DIRECTION('',(0.,0.,-1.));
#978=DIRECTION('',(0.195090322016129,0.98078528040323,0.));
#979=DIRECTION('',(0.,0.,-1.));
#980=DIRECTION('',(-0.195090322016129,-0.98078528040323,0.));
#981=DIRECTION('',(0.,0.,1.));
#982=DIRECTION('',(7.27366154732462E-16,1.,0.));
#983=DIRECTION('',(0.,0.,-1.));
#984=DIRECTION('',(7.27366154732462E-16,1.,0.));
#985=DIRECTION('',(0.,0.,-1.));
#986=DIRECTION('',(-7.27366154732462E-16,-1.,0.));
#987=DIRECTION('',(0.,0.,1.));
#988=DIRECTION('',(-0.195090322016128,0.980785280403231,0.));
#989=DIRECTION('',(0.,0.,-1.));
#990=DIRECTION('',(-0.195090322016128,0.980785280403231,0.));
#991=DIRECTION('',(0.,0.,-1.));
#992=DIRECTION('',(0.195090322016128,-0.980785280403231,0.));
#993=DIRECTION('',(0.,0.,1.));
#994=DIRECTION('',(-0.38268343236509,0.923879532511287,0.));
#995=DIRECTION('',(0.,0.,-1.));
#996=DIRECTION('',(-0.38268343236509,0.923879532511287,0.));
#997=DIRECTION('',(0.,0.,-1.));
#998=DIRECTION('',(0.38268343236509,-0.923879532511287,0.));
#999=DIRECTION('',(0.,0.,1.));
#1000=DIRECTION('',(-0.555570233019602,0.831469612302545,0.));
#1001=DIRECTION('',(0.,0.,-1.));
#1002=DIRECTION('',(-0.555570233019602,0.831469612302545,0.));
#1003=DIRECTION('',(0.,0.,-1.));
#1004=DIRECTION('',(0.555570233019602,-0.831469612302545,0.));
#1005=DIRECTION('',(0.,0.,1.));
#1006=DIRECTION('',(-0.707106781186548,0.707106781186547,0.));
#1007=DIRECTION('',(0.,0.,-1.));
#1008=DIRECTION('',(-0.707106781186548,0.707106781186547,0.));
#1009=DIRECTION('',(0.,0.,-1.));
#1010=DIRECTION('',(0.707106781186548,-0.707106781186547,0.));
#1011=DIRECTION('',(0.,0.,1.));
#1012=DIRECTION('',(-0.831469612302546,0.555570233019602,0.));
#1013=DIRECTION('',(0.,0.,-1.));
#1014=DIRECTION('',(-0.831469612302546,0.555570233019602,0.));
#1015=DIRECTION('',(0.,0.,-1.));
#1016=DIRECTION('',(0.831469612302546,-0.555570233019602,0.));
#1017=DIRECTION('',(0.,0.,1.));
#1018=DIRECTION('',(-0.923879532511287,0.382683432365089,0.));
#1019=DIRECTION('',(0.,0.,-1.));
#1020=DIRECTION('',(-0.923879532511287,0.382683432365089,0.));
#1021=DIRECTION('',(0.,0.,-1.));
#1022=DIRECTION('',(0.923879532511287,-0.382683432365089,0.));
#1023=DIRECTION('',(0.,0.,1.));
#1024=DIRECTION('',(-0.98078528040323,0.195090322016128,0.));
#1025=DIRECTION('',(0.,0.,-1.));
#1026=DIRECTION('',(-0.98078528040323,0.195090322016128,0.));
#1027=DIRECTION('',(0.,0.,-1.));
#1028=DIRECTION('',(0.98078528040323,-0.195090322016128,0.));
#1029=DIRECTION('',(0.,0.,1.));
#1030=DIRECTION('',(-1.,1.22464679914735E-16,0.));
#1031=DIRECTION('',(0.,0.,-1.));
#1032=DIRECTION('',(-1.,1.22464679914735E-16,0.));
#1033=DIRECTION('',(0.,0.,-1.));
#1034=DIRECTION('',(1.,-1.22464679914735E-16,0.));
#1035=DIRECTION('',(0.,0.,1.));
#1036=DIRECTION('',(-0.98078528040323,-0.195090322016128,0.));
#1037=DIRECTION('',(0.,0.,-1.));
#1038=DIRECTION('',(-0.98078528040323,-0.195090322016128,0.));
#1039=DIRECTION('',(0.,0.,-1.));
#1040=DIRECTION('',(0.98078528040323,0.195090322016128,0.));
#1041=DIRECTION('',(0.,0.,1.));
#1042=DIRECTION('',(-0.923879532511287,-0.38268343236509,0.));
#1043=DIRECTION('',(0.,0.,-1.));
#1044=DIRECTION('',(-0.923879532511287,-0.38268343236509,0.));
#1045=DIRECTION('',(0.,0.,-1.));
#1046=DIRECTION('',(0.923879532511287,0.38268343236509,0.));
#1047=DIRECTION('',(0.,0.,1.));
#1048=DIRECTION('',(-0.831469612302545,-0.555570233019602,0.));
#1049=DIRECTION('',(0.,0.,-1.));
#1050=DIRECTION('',(-0.831469612302545,-0.555570233019602,0.));
#1051=DIRECTION('',(0.,0.,-1.));
#1052=DIRECTION('',(0.831469612302545,0.555570233019602,0.));
#1053=DIRECTION('',(0.,0.,1.));
#1054=DIRECTION('',(-0.707106781186548,-0.707106781186547,0.));
#1055=DIRECTION('',(0.,0.,-1.));
#1056=DIRECTION('',(-0.707106781186548,-0.707106781186547,0.));
#1057=DIRECTION('',(0.,0.,-1.));
#1058=DIRECTION('',(0.707106781186548,0.707106781186547,0.));
#1059=DIRECTION('',(0.,0.,1.));
#1060=DIRECTION('',(-0.555570233019602,-0.831469612302545,0.));
#1061=DIRECTION('',(0.,0.,-1.));
#1062=DIRECTION('',(-0.555570233019602,-0.831469612302545,0.));
#1063=DIRECTION('',(0.,0.,-1.));
#1064=DIRECTION('',(0.555570233019602,0.831469612302545,0.));
#1065=DIRECTION('',(0.,0.,1.));
#1066=DIRECTION('',(-0.38268343236509,-0.923879532511287,0.));
#1067=DIRECTION('',(0.,0.,-1.));
#1068=DIRECTION('',(-0.38268343236509,-0.923879532511287,0.));
#1069=DIRECTION('',(0.,0.,-1.));
#1070=DIRECTION('',(0.38268343236509,0.923879532511287,0.));
#1071=DIRECTION('',(0.,0.,1.));
#1072=DIRECTION('',(-0.195090322016129,-0.98078528040323,0.));
#1073=DIRECTION('',(0.,0.,-1.));
#1074=DIRECTION('',(-0.195090322016129,-0.98078528040323,0.));
#1075=DIRECTION('',(0.,0.,-1.));
#1076=DIRECTION('',(0.195090322016129,0.98078528040323,0.));
#1077=DIRECTION('',(0.,0.,1.));
#1078=DIRECTION('',(-1.83697019872103E-16,-1.,0.));
#1079=DIRECTION('',(0.,0.,-1.));
#1080=DIRECTION('',(-1.83697019872103E-16,-1.,0.));
#1081=DIRECTION('',(0.,0.,-1.));
#1082=DIRECTION('',(1.83697019872103E-16,1.,0.));
#1083=DIRECTION('',(0.,0.,1.));
#1084=DIRECTION('',(0.195090322016128,-0.98078528040323,0.));
#1085=DIRECTION('',(0.,0.,-1.));
#1086=DIRECTION('',(0.195090322016128,-0.98078528040323,0.));
#1087=DIRECTION('',(0.,0.,-1.));
#1088=DIRECTION('',(-0.195090322016128,0.98078528040323,0.));
#1089=DIRECTION('',(0.,0.,1.));
#1090=DIRECTION('',(0.38268343236509,-0.923879532511287,0.));
#1091=DIRECTION('',(0.,0.,-1.));
#1092=DIRECTION('',(0.38268343236509,-0.923879532511287,0.));
#1093=DIRECTION('',(0.,0.,-1.));
#1094=DIRECTION('',(-0.38268343236509,0.923879532511287,0.));
#1095=DIRECTION('',(0.,0.,1.));
#1096=DIRECTION('',(0.555570233019602,-0.831469612302545,0.));
#1097=DIRECTION('',(0.,0.,-1.));
#1098=DIRECTION('',(0.555570233019602,-0.831469612302545,0.));
#1099=DIRECTION('',(0.,0.,-1.));
#1100=DIRECTION('',(-0.555570233019602,0.831469612302545,0.));
#1101=DIRECTION('',(0.,0.,1.));
#1102=DIRECTION('',(0.707106781186547,-0.707106781186548,0.));
#1103=DIRECTION('',(0.,0.,-1.));
#1104=DIRECTION('',(0.707106781186547,-0.707106781186548,0.));
#1105=DIRECTION('',(0.,0.,-1.));
#1106=DIRECTION('',(-0.707106781186547,0.707106781186548,0.));
#1107=DIRECTION('',(0.,0.,1.));
#1108=DIRECTION('',(0.831469612302545,-0.555570233019602,0.));
#1109=DIRECTION('',(0.,0.,-1.));
#1110=DIRECTION('',(0.831469612302545,-0.555570233019602,0.));
#1111=DIRECTION('',(0.,0.,-1.));
#1112=DIRECTION('',(-0.831469612302545,0.555570233019602,0.));
#1113=DIRECTION('',(0.,0.,1.));
#1114=DIRECTION('',(0.923879532511287,-0.38268343236509,0.));
#1115=DIRECTION('',(0.,0.,-1.));
#1116=DIRECTION('',(0.923879532511287,-0.38268343236509,0.));
#1117=DIRECTION('',(0.,0.,-1.));
#1118=DIRECTION('',(-0.923879532511287,0.38268343236509,0.));
#1119=DIRECTION('',(0.,0.,1.));
#1120=DIRECTION('',(0.98078528040323,-0.195090322016129,0.));
#1121=DIRECTION('',(0.,0.,-1.));
#1122=DIRECTION('',(0.98078528040323,-0.195090322016129,0.));
#1123=DIRECTION('',(0.,0.,-1.));
#1124=DIRECTION('',(-0.98078528040323,0.195090322016129,0.));
#1125=DIRECTION('',(0.,0.,-1.));
#1126=DIRECTION('',(-1.,0.,0.));
#1127=DIRECTION('',(0.,0.,-1.));
#1128=DIRECTION('',(-1.,0.,0.));
#1129=DIRECTION('',(0.,0.,-1.));
#1130=DIRECTION('',(1.,0.,0.));
#1131=DIRECTION('',(0.,0.,-1.));
#1132=DIRECTION('',(-1.,0.,0.));
#1133=DIRECTION('',(0.,0.,-1.));
#1134=DIRECTION('',(1.,0.,0.));
#1135=DIRECTION('',(0.,0.,-1.));
#1136=DIRECTION('',(1.,0.,0.));
#1137=DIRECTION('',(0.,0.,-1.));
#1138=DIRECTION('',(-1.,0.,0.));
#1139=DIRECTION('',(0.,0.,-1.));
#1140=DIRECTION('',(-1.,0.,0.));
#1141=DIRECTION('',(0.,0.,-1.));
#1142=DIRECTION('',(-1.,0.,0.));
#1143=DIRECTION('',(0.,0.,-1.));
#1144=DIRECTION('',(-1.,0.,0.));
#1145=DIRECTION('',(0.,0.,-1.));
#1146=DIRECTION('',(-1.,0.,0.));
#1147=DIRECTION('',(0.,0.,-1.));
#1148=DIRECTION('',(-1.,0.,0.));
#1149=DIRECTION('',(0.,0.,-1.));
#1150=DIRECTION('',(-1.,0.,0.));
#1151=DIRECTION('',(0.,0.,-1.));
#1152=DIRECTION('',(-1.,0.,0.));
#1153=DIRECTION('',(0.,0.,-1.));
#1154=DIRECTION('',(-1.,0.,0.));
#1155=DIRECTION('',(0.,0.,-1.));
#1156=DIRECTION('',(1.,0.,0.));
#1157=DIRECTION('',(0.,0.,-1.));
#1158=DIRECTION('',(-1.,0.,0.));
#1159=DIRECTION('',(0.,0.,-1.));
#1160=DIRECTION('',(-1.,0.,0.));
#1161=DIRECTION('',(0.,0.,-1.));
#1162=DIRECTION('',(-1.,0.,0.));
#1163=DIRECTION('',(0.,0.,-1.));
#1164=DIRECTION('',(-1.,0.,0.));
#1165=DIRECTION('',(0.,0.,-1.));
#1166=DIRECTION('',(-1.,0.,0.));
#1167=DIRECTION('',(0.,0.,-1.));
#1168=DIRECTION('',(-1.,0.,0.));
#1169=DIRECTION('',(0.,0.,-1.));
#1170=DIRECTION('',(-1.,0.,0.));
#1171=DIRECTION('',(0.,0.,-1.));
#1172=DIRECTION('',(-1.,0.,0.));
#1173=DIRECTION('',(0.,0.,-1.));
#1174=DIRECTION('',(-1.,0.,0.));
#1175=DIRECTION('',(0.,0.,-1.));
#1176=DIRECTION('',(-1.,0.,0.));
#1177=DIRECTION('',(0.,0.,-1.));
#1178=DIRECTION('',(-1.,0.,0.));
#1179=DIRECTION('',(0.,0.,-1.));
#1180=DIRECTION('',(-1.,0.,0.));
#1181=DIRECTION('',(0.,0.,-1.));
#1182=DIRECTION('',(-1.,0.,0.));
#1183=DIRECTION('',(0.,0.,-1.));
#1184=DIRECTION('',(-1.,0.,0.));
#1185=DIRECTION('',(0.,0.,-1.));
#1186=DIRECTION('',(-1.,0.,0.));
#1187=DIRECTION('',(0.,0.,-1.));
#1188=DIRECTION('',(-1.,0.,0.));
#1189=DIRECTION('',(0.,0.,-1.));
#1190=DIRECTION('',(-1.,0.,0.));
#1191=DIRECTION('',(0.,0.,-1.));
#1192=DIRECTION('',(-1.,0.,0.));
#1193=DIRECTION('',(0.,0.,-1.));
#1194=DIRECTION('',(-1.,0.,0.));
#1195=DIRECTION('',(0.,0.,-1.));
#1196=DIRECTION('',(-1.,0.,0.));
#1197=DIRECTION('',(0.,0.,-1.));
#1198=DIRECTION('',(-1.,0.,0.));
#1199=DIRECTION('',(0.,0.,-1.));
#1200=DIRECTION('',(-1.,0.,0.));
#1201=DIRECTION('',(0.,0.,-1.));
#1202=DIRECTION('',(-1.,0.,0.));
#1203=DIRECTION('',(0.,0.,-1.));
#1204=DIRECTION('',(-1.,0.,0.));
#1205=DIRECTION('',(0.,0.,-1.));
#1206=DIRECTION('',(-1.,0.,0.));
#1207=DIRECTION('',(0.,0.,-1.));
#1208=DIRECTION('',(-1.,0.,0.));
#1209=DIRECTION('',(0.,0.,1.));
#1210=DIRECTION('',(1.,0.,0.));
#1211=DIRECTION('',(0.,0.,-1.));
#1212=DIRECTION('',(-1.,0.,0.));
#1213=DIRECTION('',(0.,0.,-1.));
#1214=DIRECTION('',(-1.,0.,0.));
#1215=DIRECTION('',(0.,0.,-1.));
#1216=DIRECTION('',(-1.,0.,0.));
#1217=CARTESIAN_POINT('',(0.,0.,0.));
#1218=CARTESIAN_POINT('',(-134.612322191127,676.741843478229,-1981.15856601671));
#1219=CARTESIAN_POINT('',(-134.612322191127,676.741843478229,78.));
#1220=CARTESIAN_POINT('',(-130.808060911813,657.616530510366,77.9999999999996));
#1221=CARTESIAN_POINT('',(-134.612322191127,676.741843478229,0.));
#1222=CARTESIAN_POINT('',(-153.73763515899,672.937582198915,0.));
#1223=CARTESIAN_POINT('',(-264.051568331911,637.476877432788,-1981.15856601671));
#1224=CARTESIAN_POINT('',(-264.051568331911,637.476877432788,78.));
#1225=CARTESIAN_POINT('',(-256.589241400791,619.461226548818,77.9999999999996));
#1226=CARTESIAN_POINT('',(-264.051568331911,637.476877432788,0.));
#1227=CARTESIAN_POINT('',(-282.067219215881,630.014550501669,0.));
#1228=CARTESIAN_POINT('',(-383.343460783525,573.714032488757,-1981.15856601671));
#1229=CARTESIAN_POINT('',(-383.343460783525,573.714032488757,78.));
#1230=CARTESIAN_POINT('',(-372.509841239642,557.500375048857,77.9999999999996));
#1231=CARTESIAN_POINT('',(-383.343460783525,573.714032488757,0.));
#1232=CARTESIAN_POINT('',(-399.557118223424,562.880412944875,0.));
#1233=CARTESIAN_POINT('',(-487.903679018717,487.903679018719,-1981.15856601671));
#1234=CARTESIAN_POINT('',(-487.903679018717,487.903679018719,78.));
#1235=CARTESIAN_POINT('',(-474.11509678558,474.115096785581,77.9999999999996));
#1236=CARTESIAN_POINT('',(-487.903679018717,487.903679018719,0.));
#1237=CARTESIAN_POINT('',(-501.692261251855,474.115096785581,0.));
#1238=CARTESIAN_POINT('',(-573.714032488756,383.343460783526,-1981.15856601671));
#1239=CARTESIAN_POINT('',(-573.714032488756,383.343460783526,78.));
#1240=CARTESIAN_POINT('',(-557.500375048856,372.509841239644,77.9999999999996));
#1241=CARTESIAN_POINT('',(-573.714032488756,383.343460783526,0.));
#1242=CARTESIAN_POINT('',(-584.547652032638,367.129803343627,0.));
#1243=CARTESIAN_POINT('',(-637.476877432788,264.051568331913,-1981.15856601671));
#1244=CARTESIAN_POINT('',(-637.476877432788,264.051568331913,78.));
#1245=CARTESIAN_POINT('',(-619.461226548818,256.589241400793,77.9999999999996));
#1246=CARTESIAN_POINT('',(-637.476877432788,264.051568331913,0.));
#1247=CARTESIAN_POINT('',(-644.939204363907,246.035917447943,0.));
#1248=CARTESIAN_POINT('',(-676.741843478229,134.612322191129,-1981.15856601671));
#1249=CARTESIAN_POINT('',(-676.741843478229,134.612322191129,78.));
#1250=CARTESIAN_POINT('',(-657.616530510366,130.808060911815,77.9999999999996));
#1251=CARTESIAN_POINT('',(-676.741843478229,134.612322191129,0.));
#1252=CARTESIAN_POINT('',(-680.546104757544,115.487009223266,0.));
#1253=CARTESIAN_POINT('',(-690.,5.01882646765399E-13,-1981.15856601671));
#1254=CARTESIAN_POINT('',(-690.,5.01882646765399E-13,78.));
#1255=CARTESIAN_POINT('',(-670.5,5.01882646765399E-13,78.));
#1256=CARTESIAN_POINT('',(-690.,5.01882646765399E-13,0.));
#1257=CARTESIAN_POINT('',(-690.,-19.4999999999995,0.));
#1258=CARTESIAN_POINT('',(-676.741843478229,-134.612322191128,-1981.15856601671));
#1259=CARTESIAN_POINT('',(-676.741843478229,-134.612322191128,78.));
#1260=CARTESIAN_POINT('',(-657.616530510366,-130.808060911814,77.9999999999996));
#1261=CARTESIAN_POINT('',(-676.741843478229,-134.612322191128,0.));
#1262=CARTESIAN_POINT('',(-672.937582198915,-153.737635158991,0.));
#1263=CARTESIAN_POINT('',(-637.476877432788,-264.051568331912,-1981.15856601671));
#1264=CARTESIAN_POINT('',(-637.476877432788,-264.051568331912,78.));
#1265=CARTESIAN_POINT('',(-619.461226548818,-256.589241400793,77.9999999999996));
#1266=CARTESIAN_POINT('',(-637.476877432788,-264.051568331912,0.));
#1267=CARTESIAN_POINT('',(-630.014550501669,-282.067219215882,0.));
#1268=CARTESIAN_POINT('',(-573.714032488756,-383.343460783526,-1981.15856601671));
#1269=CARTESIAN_POINT('',(-573.714032488756,-383.343460783526,78.));
#1270=CARTESIAN_POINT('',(-557.500375048857,-372.509841239643,77.9999999999998));
#1271=CARTESIAN_POINT('',(-573.714032488756,-383.343460783526,0.));
#1272=CARTESIAN_POINT('',(-562.880412944874,-399.557118223425,0.));
#1273=CARTESIAN_POINT('',(-487.903679018718,-487.903679018718,-1981.15856601671));
#1274=CARTESIAN_POINT('',(-487.903679018718,-487.903679018718,78.));
#1275=CARTESIAN_POINT('',(-474.11509678558,-474.11509678558,77.9999999999996));
#1276=CARTESIAN_POINT('',(-487.903679018718,-487.903679018718,0.));
#1277=CARTESIAN_POINT('',(-474.11509678558,-501.692261251856,0.));
#1278=CARTESIAN_POINT('',(-383.343460783525,-573.714032488757,-1981.15856601671));
#1279=CARTESIAN_POINT('',(-383.343460783525,-573.714032488757,78.));
#1280=CARTESIAN_POINT('',(-372.509841239643,-557.500375048857,77.9999999999996));
#1281=CARTESIAN_POINT('',(-383.343460783525,-573.714032488757,0.));
#1282=CARTESIAN_POINT('',(-367.129803343626,-584.547652032639,0.));
#1283=CARTESIAN_POINT('',(-264.051568331912,-637.476877432788,-1981.15856601671));
#1284=CARTESIAN_POINT('',(-264.051568331912,-637.476877432788,78.));
#1285=CARTESIAN_POINT('',(-256.589241400793,-619.461226548818,77.9999999999996));
#1286=CARTESIAN_POINT('',(-264.051568331912,-637.476877432788,0.));
#1287=CARTESIAN_POINT('',(-246.035917447942,-644.939204363907,0.));
#1288=CARTESIAN_POINT('',(-134.612322191128,-676.741843478229,-1981.15856601671));
#1289=CARTESIAN_POINT('',(-134.612322191128,-676.741843478229,78.));
#1290=CARTESIAN_POINT('',(-130.808060911814,-657.616530510366,77.9999999999996));
#1291=CARTESIAN_POINT('',(-134.612322191128,-676.741843478229,0.));
#1292=CARTESIAN_POINT('',(-115.487009223265,-680.546104757544,0.));
#1293=CARTESIAN_POINT('',(-8.45006291411674E-14,-690.,-1981.15856601671));
#1294=CARTESIAN_POINT('',(-8.45006291411674E-14,-690.,78.));
#1295=CARTESIAN_POINT('',(-8.211256788283E-14,-670.5,77.9999999999996));
#1296=CARTESIAN_POINT('',(-8.45006291411674E-14,-690.,0.));
#1297=CARTESIAN_POINT('',(19.4999999999999,-690.,0.));
#1298=CARTESIAN_POINT('',(134.612322191129,-676.741843478229,-1981.15856601671));
#1299=CARTESIAN_POINT('',(134.612322191129,-676.741843478229,78.));
#1300=CARTESIAN_POINT('',(130.808060911814,-657.616530510366,77.9999999999996));
#1301=CARTESIAN_POINT('',(134.612322191129,-676.741843478229,0.));
#1302=CARTESIAN_POINT('',(153.737635158992,-672.937582198915,0.));
#1303=CARTESIAN_POINT('',(264.051568331912,-637.476877432788,-1981.15856601671));
#1304=CARTESIAN_POINT('',(264.051568331912,-637.476877432788,78.));
#1305=CARTESIAN_POINT('',(256.589241400793,-619.461226548818,77.9999999999996));
#1306=CARTESIAN_POINT('',(264.051568331912,-637.476877432788,0.));
#1307=CARTESIAN_POINT('',(282.067219215882,-630.014550501669,0.));
#1308=CARTESIAN_POINT('',(383.343460783525,-573.714032488756,-1981.15856601671));
#1309=CARTESIAN_POINT('',(383.343460783525,-573.714032488756,78.));
#1310=CARTESIAN_POINT('',(372.509841239643,-557.500375048857,77.9999999999998));
#1311=CARTESIAN_POINT('',(383.343460783525,-573.714032488756,0.));
#1312=CARTESIAN_POINT('',(399.557118223425,-562.880412944874,0.));
#1313=CARTESIAN_POINT('',(487.903679018718,-487.903679018718,-1981.15856601671));
#1314=CARTESIAN_POINT('',(487.903679018718,-487.903679018718,78.));
#1315=CARTESIAN_POINT('',(474.11509678558,-474.11509678558,77.9999999999996));
#1316=CARTESIAN_POINT('',(487.903679018718,-487.903679018718,0.));
#1317=CARTESIAN_POINT('',(501.692261251855,-474.11509678558,0.));
#1318=CARTESIAN_POINT('',(573.714032488756,-383.343460783526,-1981.15856601671));
#1319=CARTESIAN_POINT('',(573.714032488756,-383.343460783526,78.));
#1320=CARTESIAN_POINT('',(557.500375048857,-372.509841239643,77.9999999999996));
#1321=CARTESIAN_POINT('',(573.714032488756,-383.343460783526,0.));
#1322=CARTESIAN_POINT('',(584.547652032639,-367.129803343626,0.));
#1323=CARTESIAN_POINT('',(637.476877432788,-264.051568331912,-1981.15856601671));
#1324=CARTESIAN_POINT('',(637.476877432788,-264.051568331912,78.));
#1325=CARTESIAN_POINT('',(619.461226548818,-256.589241400793,77.9999999999996));
#1326=CARTESIAN_POINT('',(637.476877432788,-264.051568331912,0.));
#1327=CARTESIAN_POINT('',(644.939204363907,-246.035917447942,0.));
#1328=CARTESIAN_POINT('',(676.741843478229,-134.612322191129,-1981.15856601671));
#1329=CARTESIAN_POINT('',(676.741843478229,-134.612322191129,78.));
#1330=CARTESIAN_POINT('',(657.616530510366,-130.808060911814,77.9999999999996));
#1331=CARTESIAN_POINT('',(676.741843478229,-134.612322191129,0.));
#1332=CARTESIAN_POINT('',(680.546104757544,-115.487009223266,0.));
#1333=CARTESIAN_POINT('',(690.,-1.26750943711751E-13,-1981.15856601671));
#1334=CARTESIAN_POINT('',(690.,-1.26750943711751E-13,78.));
#1335=CARTESIAN_POINT('',(670.5,-1.23168851824245E-13,77.9999999999996));
#1336=CARTESIAN_POINT('',(690.,-1.26750943711751E-13,0.));
#1337=CARTESIAN_POINT('',(690.,19.4999999999999,0.));
#1338=CARTESIAN_POINT('',(676.741843478229,134.612322191129,-1981.15856601671));
#1339=CARTESIAN_POINT('',(676.741843478229,134.612322191129,78.));
#1340=CARTESIAN_POINT('',(657.616530510366,130.808060911814,77.9999999999996));
#1341=CARTESIAN_POINT('',(676.741843478229,134.612322191129,0.));
#1342=CARTESIAN_POINT('',(672.937582198915,153.737635158992,0.));
#1343=CARTESIAN_POINT('',(637.476877432788,264.051568331912,-1981.15856601671));
#1344=CARTESIAN_POINT('',(637.476877432788,264.051568331912,78.));
#1345=CARTESIAN_POINT('',(619.461226548818,256.589241400793,77.9999999999996));
#1346=CARTESIAN_POINT('',(637.476877432788,264.051568331912,0.));
#1347=CARTESIAN_POINT('',(630.014550501669,282.067219215882,0.));
#1348=CARTESIAN_POINT('',(573.714032488756,383.343460783525,-1981.15856601671));
#1349=CARTESIAN_POINT('',(573.714032488756,383.343460783525,78.));
#1350=CARTESIAN_POINT('',(557.500375048857,372.509841239643,77.9999999999996));
#1351=CARTESIAN_POINT('',(573.714032488756,383.343460783525,0.));
#1352=CARTESIAN_POINT('',(562.880412944874,399.557118223425,0.));
#1353=CARTESIAN_POINT('',(487.903679018718,487.903679018718,-1981.15856601671));
#1354=CARTESIAN_POINT('',(487.903679018718,487.903679018718,78.));
#1355=CARTESIAN_POINT('',(474.11509678558,474.11509678558,77.9999999999996));
#1356=CARTESIAN_POINT('',(487.903679018718,487.903679018718,0.));
#1357=CARTESIAN_POINT('',(474.11509678558,501.692261251855,0.));
#1358=CARTESIAN_POINT('',(383.343460783526,573.714032488756,-1981.15856601671));
#1359=CARTESIAN_POINT('',(383.343460783526,573.714032488756,78.));
#1360=CARTESIAN_POINT('',(372.509841239643,557.500375048857,77.9999999999996));
#1361=CARTESIAN_POINT('',(383.343460783526,573.714032488756,0.));
#1362=CARTESIAN_POINT('',(367.129803343626,584.547652032639,0.));
#1363=CARTESIAN_POINT('',(264.051568331912,637.476877432788,-1981.15856601671));
#1364=CARTESIAN_POINT('',(264.051568331912,637.476877432788,78.));
#1365=CARTESIAN_POINT('',(256.589241400793,619.461226548818,77.9999999999996));
#1366=CARTESIAN_POINT('',(264.051568331912,637.476877432788,0.));
#1367=CARTESIAN_POINT('',(246.035917447942,644.939204363907,0.));
#1368=CARTESIAN_POINT('',(134.612322191129,676.741843478229,-1981.15856601671));
#1369=CARTESIAN_POINT('',(134.612322191129,676.741843478229,78.));
#1370=CARTESIAN_POINT('',(130.808060911814,657.616530510366,77.9999999999996));
#1371=CARTESIAN_POINT('',(134.612322191129,676.741843478229,0.));
#1372=CARTESIAN_POINT('',(115.487009223266,680.546104757544,0.));
#1373=CARTESIAN_POINT('',(0.,0.,78.));
#1374=CARTESIAN_POINT('',(0.,0.,82.9999999999999));
#1375=CARTESIAN_POINT('',(-611.5,0.,82.9999999999999));
#1376=CARTESIAN_POINT('',(0.,0.,0.));
#1377=CARTESIAN_POINT('',(611.5,0.,0.));
#1378=CARTESIAN_POINT('',(0.,0.,78.));
#1379=CARTESIAN_POINT('',(0.,0.,78.));
#1380=CARTESIAN_POINT('',(727.5,0.,78.));
#1381=CARTESIAN_POINT('',(0.,0.,0.));
#1382=CARTESIAN_POINT('',(727.5,0.,0.));
#1383=CARTESIAN_POINT('',(0.,0.,78.));
#1384=CARTESIAN_POINT('',(0.,0.,77.9999999999997));
#1385=CARTESIAN_POINT('',(0.,0.,77.9999999999997));
#1386=CARTESIAN_POINT('',(0.,0.,77.9999999999997));
#1387=CARTESIAN_POINT('',(0.,0.,77.9999999999997));
#1388=CARTESIAN_POINT('',(0.,0.,77.9999999999997));
#1389=CARTESIAN_POINT('',(0.,0.,77.9999999999997));
#1390=CARTESIAN_POINT('',(0.,0.,77.9999999999997));
#1391=CARTESIAN_POINT('',(0.,0.,77.9999999999997));
#1392=CARTESIAN_POINT('',(0.,670.5,77.9999999999996));
#1393=CARTESIAN_POINT('',(0.,690.,78.));
#1394=CARTESIAN_POINT('',(0.,0.,77.9999999999997));
#1395=CARTESIAN_POINT('',(0.,0.,77.9999999999997));
#1396=CARTESIAN_POINT('',(0.,0.,77.9999999999997));
#1397=CARTESIAN_POINT('',(0.,0.,77.9999999999997));
#1398=CARTESIAN_POINT('',(0.,0.,77.9999999999997));
#1399=CARTESIAN_POINT('',(0.,0.,77.9999999999997));
#1400=CARTESIAN_POINT('',(0.,0.,77.9999999999997));
#1401=CARTESIAN_POINT('',(0.,0.,77.9999999999997));
#1402=CARTESIAN_POINT('',(0.,0.,77.9999999999997));
#1403=CARTESIAN_POINT('',(0.,0.,77.9999999999997));
#1404=CARTESIAN_POINT('',(0.,0.,77.9999999999997));
#1405=CARTESIAN_POINT('',(0.,0.,77.9999999999997));
#1406=CARTESIAN_POINT('',(0.,0.,77.9999999999997));
#1407=CARTESIAN_POINT('',(0.,0.,77.9999999999997));
#1408=CARTESIAN_POINT('',(0.,0.,77.9999999999997));
#1409=CARTESIAN_POINT('',(0.,0.,77.9999999999997));
#1410=CARTESIAN_POINT('',(0.,0.,77.9999999999997));
#1411=CARTESIAN_POINT('',(0.,0.,77.9999999999997));
#1412=CARTESIAN_POINT('',(0.,0.,77.9999999999997));
#1413=CARTESIAN_POINT('',(0.,0.,77.9999999999997));
#1414=CARTESIAN_POINT('',(0.,0.,77.9999999999997));
#1415=CARTESIAN_POINT('',(0.,0.,77.9999999999997));
#1416=CARTESIAN_POINT('',(0.,0.,77.9999999999997));
#1417=CARTESIAN_POINT('',(0.,0.,77.9999999999997));
#1418=CARTESIAN_POINT('',(0.,0.,0.));
#1419=CARTESIAN_POINT('',(0.,690.,0.));
#1420=CARTESIAN_POINT('',(-19.5,690.,0.));
#1421=CARTESIAN_POINT('',(0.,690.,-1981.15856601671));
#1422=CARTESIAN_POINT('',(-611.5,0.,83.));
#1423=CARTESIAN_POINT('',(0.,0.,83.));
#1424=CARTESIAN_POINT('',(-665.,0.,83.));
#1425=CARTESIAN_POINT('',(0.,0.,83.));
#1426=MECHANICAL_DESIGN_GEOMETRIC_PRESENTATION_REPRESENTATION('',(#786),
#1427);
#1427=(
GEOMETRIC_REPRESENTATION_CONTEXT(3)
GLOBAL_UNCERTAINTY_ASSIGNED_CONTEXT((#1428))
GLOBAL_UNIT_ASSIGNED_CONTEXT((#1431,#1430,#1429))
REPRESENTATION_CONTEXT('\X2\7A819762FF08\X0\RF\X2\FF09677F5F0F5E73710A94A252367BA16CD55170\X0\',
'TOP_LEVEL_ASSEMBLY_PART')
);
#1428=UNCERTAINTY_MEASURE_WITH_UNIT(LENGTH_MEASURE(0.005),#1431,
'DISTANCE_ACCURACY_VALUE','Maximum Tolerance applied to model');
#1429=(
NAMED_UNIT(*)
SI_UNIT($,.STERADIAN.)
SOLID_ANGLE_UNIT()
);
#1430=(
NAMED_UNIT(*)
PLANE_ANGLE_UNIT()
SI_UNIT($,.RADIAN.)
);
#1431=(
LENGTH_UNIT()
NAMED_UNIT(*)
SI_UNIT(.MILLI.,.METRE.)
);
#1432=PRODUCT_DEFINITION_SHAPE('','',#1433);
#1433=PRODUCT_DEFINITION('','',#1435,#1434);
#1434=PRODUCT_DEFINITION_CONTEXT('',#1441,'design');
#1435=PRODUCT_DEFINITION_FORMATION_WITH_SPECIFIED_SOURCE('','',#1437,
 .NOT_KNOWN.);
#1436=PRODUCT_RELATED_PRODUCT_CATEGORY('','',(#1437));
#1437=PRODUCT('\X2\7A819762FF08\X0\RF\X2\FF09677F5F0F5E73710A94A252367BA16CD55170\X0\',
'\X2\7A819762FF08\X0\RF\X2\FF09677F5F0F5E73710A94A252367BA16CD55170\X0\',
'\X2\7A819762FF08\X0\RF\X2\FF09677F5F0F5E73710A94A252367BA16CD55170\X0\',
(#1439));
#1438=PRODUCT_CATEGORY('','');
#1439=PRODUCT_CONTEXT('',#1441,'mechanical');
#1440=APPLICATION_PROTOCOL_DEFINITION('international standard',
'automotive_design',2010,#1441);
#1441=APPLICATION_CONTEXT(
'core data for automotive mechanical design processes');
ENDSEC;
END-ISO-10303-21;
