ISO-10303-21;
HEADER;
/* Generated by software containing HOOPS Exchange Step
 * from HOOPS Exchange, Inc. (www.tiangong.cloud) 
 */

FILE_DESCRIPTION(
/* description */ ('Unknown'),
/* implementation_level */ '2;1');

FILE_NAME(
/* name */ '\X2\94DC540891D15E73710A73AF677E5957677F5F0F94A26CD55170\X0\ 
GBT15530.6-2008',
/* time_stamp */ '2025-10-14T20:02:15+08:00',
/* author */ ('Unknown'),
/* organization */ ('Unknown'),
/* preprocessor_version */ 'ST-DEVELOPER v19.4',
/* originating_system */ 'TianGong',
/* authorisation */ 'Unknown');

FILE_SCHEMA (('AUTOMOTIVE_DESIGN {1 0 10303 214 3 1 1}'));
ENDSEC;

DATA;
#10=PROPERTY_DEFINITION_REPRESENTATION(#14,#12);
#11=PROPERTY_DEFINITION_REPRESENTATION(#15,#13);
#12=REPRESENTATION('',(#16),#493);
#13=REPRESENTATION('',(#17),#493);
#14=PROPERTY_DEFINITION('pmi validation property','',#498);
#15=PROPERTY_DEFINITION('pmi validation property','',#498);
#16=VALUE_REPRESENTATION_ITEM('number of annotations',COUNT_MEASURE(0.));
#17=VALUE_REPRESENTATION_ITEM('number of views',COUNT_MEASURE(0.));
#18=SHAPE_REPRESENTATION_RELATIONSHIP('','',#287,#19);
#19=ADVANCED_BREP_SHAPE_REPRESENTATION('',(#285),#493);
#20=CONICAL_SURFACE('',#317,10.25,0.157768737595954);
#21=CONICAL_SURFACE('',#328,10.,0.157768737595954);
#22=TOROIDAL_SURFACE('',#310,13.,2.);
#23=TOROIDAL_SURFACE('',#331,13.,3.);
#24=TOROIDAL_SURFACE('',#332,11.5,3.);
#25=PLANE('',#304);
#26=PLANE('',#306);
#27=PLANE('',#312);
#28=PLANE('',#321);
#29=ORIENTED_EDGE('',*,*,#77,.F.);
#30=ORIENTED_EDGE('',*,*,#78,.T.);
#31=ORIENTED_EDGE('',*,*,#79,.F.);
#32=ORIENTED_EDGE('',*,*,#80,.T.);
#33=ORIENTED_EDGE('',*,*,#81,.F.);
#34=ORIENTED_EDGE('',*,*,#82,.T.);
#35=ORIENTED_EDGE('',*,*,#83,.T.);
#36=ORIENTED_EDGE('',*,*,#84,.F.);
#37=ORIENTED_EDGE('',*,*,#85,.T.);
#38=ORIENTED_EDGE('',*,*,#86,.F.);
#39=ORIENTED_EDGE('',*,*,#77,.T.);
#40=ORIENTED_EDGE('',*,*,#79,.T.);
#41=ORIENTED_EDGE('',*,*,#81,.T.);
#42=ORIENTED_EDGE('',*,*,#87,.T.);
#43=ORIENTED_EDGE('',*,*,#84,.T.);
#44=ORIENTED_EDGE('',*,*,#85,.F.);
#45=ORIENTED_EDGE('',*,*,#88,.F.);
#46=ORIENTED_EDGE('',*,*,#78,.F.);
#47=ORIENTED_EDGE('',*,*,#80,.F.);
#48=ORIENTED_EDGE('',*,*,#82,.F.);
#49=ORIENTED_EDGE('',*,*,#89,.F.);
#50=ORIENTED_EDGE('',*,*,#86,.T.);
#51=ORIENTED_EDGE('',*,*,#87,.F.);
#52=ORIENTED_EDGE('',*,*,#89,.T.);
#53=ORIENTED_EDGE('',*,*,#90,.F.);
#54=ORIENTED_EDGE('',*,*,#83,.F.);
#55=ORIENTED_EDGE('',*,*,#91,.T.);
#56=ORIENTED_EDGE('',*,*,#92,.F.);
#57=ORIENTED_EDGE('',*,*,#93,.T.);
#58=ORIENTED_EDGE('',*,*,#91,.F.);
#59=ORIENTED_EDGE('',*,*,#94,.T.);
#60=ORIENTED_EDGE('',*,*,#93,.F.);
#61=ORIENTED_EDGE('',*,*,#95,.T.);
#62=ORIENTED_EDGE('',*,*,#94,.F.);
#63=ORIENTED_EDGE('',*,*,#96,.T.);
#64=ORIENTED_EDGE('',*,*,#97,.T.);
#65=ORIENTED_EDGE('',*,*,#88,.T.);
#66=ORIENTED_EDGE('',*,*,#97,.F.);
#67=ORIENTED_EDGE('',*,*,#98,.T.);
#68=ORIENTED_EDGE('',*,*,#99,.T.);
#69=ORIENTED_EDGE('',*,*,#100,.T.);
#70=ORIENTED_EDGE('',*,*,#99,.F.);
#71=ORIENTED_EDGE('',*,*,#92,.T.);
#72=ORIENTED_EDGE('',*,*,#100,.F.);
#73=ORIENTED_EDGE('',*,*,#98,.F.);
#74=ORIENTED_EDGE('',*,*,#90,.T.);
#75=ORIENTED_EDGE('',*,*,#96,.F.);
#76=ORIENTED_EDGE('',*,*,#95,.F.);
#77=EDGE_CURVE('',#101,#101,#125,.T.);
#78=EDGE_CURVE('',#102,#102,#126,.T.);
#79=EDGE_CURVE('',#103,#103,#127,.T.);
#80=EDGE_CURVE('',#104,#104,#128,.T.);
#81=EDGE_CURVE('',#105,#105,#129,.T.);
#82=EDGE_CURVE('',#106,#106,#130,.T.);
#83=EDGE_CURVE('',#107,#107,#131,.T.);
#84=EDGE_CURVE('',#108,#108,#132,.T.);
#85=EDGE_CURVE('',#109,#109,#133,.T.);
#86=EDGE_CURVE('',#110,#110,#134,.T.);
#87=EDGE_CURVE('',#111,#111,#135,.T.);
#88=EDGE_CURVE('',#112,#112,#136,.T.);
#89=EDGE_CURVE('',#113,#113,#137,.T.);
#90=EDGE_CURVE('',#114,#114,#138,.F.);
#91=EDGE_CURVE('',#115,#115,#139,.T.);
#92=EDGE_CURVE('',#116,#116,#140,.T.);
#93=EDGE_CURVE('',#117,#117,#141,.T.);
#94=EDGE_CURVE('',#118,#118,#142,.T.);
#95=EDGE_CURVE('',#119,#119,#143,.T.);
#96=EDGE_CURVE('',#120,#120,#144,.F.);
#97=EDGE_CURVE('',#121,#121,#145,.T.);
#98=EDGE_CURVE('',#122,#122,#146,.T.);
#99=EDGE_CURVE('',#123,#123,#147,.T.);
#100=EDGE_CURVE('',#124,#124,#148,.T.);
#101=VERTEX_POINT('',#426);
#102=VERTEX_POINT('',#428);
#103=VERTEX_POINT('',#431);
#104=VERTEX_POINT('',#433);
#105=VERTEX_POINT('',#436);
#106=VERTEX_POINT('',#438);
#107=VERTEX_POINT('',#441);
#108=VERTEX_POINT('',#443);
#109=VERTEX_POINT('',#446);
#110=VERTEX_POINT('',#448);
#111=VERTEX_POINT('',#451);
#112=VERTEX_POINT('',#454);
#113=VERTEX_POINT('',#456);
#114=VERTEX_POINT('',#460);
#115=VERTEX_POINT('',#463);
#116=VERTEX_POINT('',#465);
#117=VERTEX_POINT('',#468);
#118=VERTEX_POINT('',#471);
#119=VERTEX_POINT('',#474);
#120=VERTEX_POINT('',#477);
#121=VERTEX_POINT('',#479);
#122=VERTEX_POINT('',#483);
#123=VERTEX_POINT('',#485);
#124=VERTEX_POINT('',#488);
#125=CIRCLE('',#290,5.5);
#126=CIRCLE('',#291,5.5);
#127=CIRCLE('',#293,5.5);
#128=CIRCLE('',#294,5.5);
#129=CIRCLE('',#296,5.5);
#130=CIRCLE('',#297,5.5);
#131=CIRCLE('',#299,11.);
#132=CIRCLE('',#300,11.);
#133=CIRCLE('',#302,40.);
#134=CIRCLE('',#303,40.);
#135=CIRCLE('',#305,5.5);
#136=CIRCLE('',#307,19.);
#137=CIRCLE('',#308,5.5);
#138=CIRCLE('',#311,13.);
#139=CIRCLE('',#313,10.25);
#140=CIRCLE('',#314,11.75);
#141=CIRCLE('',#316,10.25);
#142=CIRCLE('',#318,8.5);
#143=CIRCLE('',#320,8.5);
#144=CIRCLE('',#322,11.5);
#145=CIRCLE('',#323,19.);
#146=CIRCLE('',#326,10.);
#147=CIRCLE('',#327,10.);
#148=CIRCLE('',#329,11.75);
#149=EDGE_LOOP('',(#29));
#150=EDGE_LOOP('',(#30));
#151=EDGE_LOOP('',(#31));
#152=EDGE_LOOP('',(#32));
#153=EDGE_LOOP('',(#33));
#154=EDGE_LOOP('',(#34));
#155=EDGE_LOOP('',(#35));
#156=EDGE_LOOP('',(#36));
#157=EDGE_LOOP('',(#37));
#158=EDGE_LOOP('',(#38));
#159=EDGE_LOOP('',(#39));
#160=EDGE_LOOP('',(#40));
#161=EDGE_LOOP('',(#41));
#162=EDGE_LOOP('',(#42));
#163=EDGE_LOOP('',(#43));
#164=EDGE_LOOP('',(#44));
#165=EDGE_LOOP('',(#45));
#166=EDGE_LOOP('',(#46));
#167=EDGE_LOOP('',(#47));
#168=EDGE_LOOP('',(#48));
#169=EDGE_LOOP('',(#49));
#170=EDGE_LOOP('',(#50));
#171=EDGE_LOOP('',(#51));
#172=EDGE_LOOP('',(#52));
#173=EDGE_LOOP('',(#53));
#174=EDGE_LOOP('',(#54));
#175=EDGE_LOOP('',(#55));
#176=EDGE_LOOP('',(#56));
#177=EDGE_LOOP('',(#57));
#178=EDGE_LOOP('',(#58));
#179=EDGE_LOOP('',(#59));
#180=EDGE_LOOP('',(#60));
#181=EDGE_LOOP('',(#61));
#182=EDGE_LOOP('',(#62));
#183=EDGE_LOOP('',(#63));
#184=EDGE_LOOP('',(#64));
#185=EDGE_LOOP('',(#65));
#186=EDGE_LOOP('',(#66));
#187=EDGE_LOOP('',(#67));
#188=EDGE_LOOP('',(#68));
#189=EDGE_LOOP('',(#69));
#190=EDGE_LOOP('',(#70));
#191=EDGE_LOOP('',(#71));
#192=EDGE_LOOP('',(#72));
#193=EDGE_LOOP('',(#73));
#194=EDGE_LOOP('',(#74));
#195=EDGE_LOOP('',(#75));
#196=EDGE_LOOP('',(#76));
#197=FACE_BOUND('',#149,.T.);
#198=FACE_BOUND('',#150,.T.);
#199=FACE_BOUND('',#151,.T.);
#200=FACE_BOUND('',#152,.T.);
#201=FACE_BOUND('',#153,.T.);
#202=FACE_BOUND('',#154,.T.);
#203=FACE_BOUND('',#155,.T.);
#204=FACE_BOUND('',#156,.T.);
#205=FACE_BOUND('',#157,.T.);
#206=FACE_BOUND('',#158,.T.);
#207=FACE_BOUND('',#159,.T.);
#208=FACE_BOUND('',#160,.T.);
#209=FACE_BOUND('',#161,.T.);
#210=FACE_BOUND('',#162,.T.);
#211=FACE_BOUND('',#163,.T.);
#212=FACE_BOUND('',#164,.T.);
#213=FACE_BOUND('',#165,.T.);
#214=FACE_BOUND('',#166,.T.);
#215=FACE_BOUND('',#167,.T.);
#216=FACE_BOUND('',#168,.T.);
#217=FACE_BOUND('',#169,.T.);
#218=FACE_BOUND('',#170,.T.);
#219=FACE_BOUND('',#171,.T.);
#220=FACE_BOUND('',#172,.T.);
#221=FACE_BOUND('',#173,.T.);
#222=FACE_BOUND('',#174,.T.);
#223=FACE_BOUND('',#175,.T.);
#224=FACE_BOUND('',#176,.T.);
#225=FACE_BOUND('',#177,.T.);
#226=FACE_BOUND('',#178,.T.);
#227=FACE_BOUND('',#179,.T.);
#228=FACE_BOUND('',#180,.T.);
#229=FACE_BOUND('',#181,.T.);
#230=FACE_BOUND('',#182,.T.);
#231=FACE_BOUND('',#183,.T.);
#232=FACE_BOUND('',#184,.T.);
#233=FACE_BOUND('',#185,.T.);
#234=FACE_BOUND('',#186,.T.);
#235=FACE_BOUND('',#187,.T.);
#236=FACE_BOUND('',#188,.T.);
#237=FACE_BOUND('',#189,.T.);
#238=FACE_BOUND('',#190,.T.);
#239=FACE_BOUND('',#191,.T.);
#240=FACE_BOUND('',#192,.T.);
#241=FACE_BOUND('',#193,.T.);
#242=FACE_BOUND('',#194,.T.);
#243=FACE_BOUND('',#195,.T.);
#244=FACE_BOUND('',#196,.T.);
#245=CYLINDRICAL_SURFACE('',#289,5.5);
#246=CYLINDRICAL_SURFACE('',#292,5.5);
#247=CYLINDRICAL_SURFACE('',#295,5.5);
#248=CYLINDRICAL_SURFACE('',#298,11.);
#249=CYLINDRICAL_SURFACE('',#301,40.);
#250=CYLINDRICAL_SURFACE('',#309,5.5);
#251=CYLINDRICAL_SURFACE('',#315,10.25);
#252=CYLINDRICAL_SURFACE('',#319,8.5);
#253=CYLINDRICAL_SURFACE('',#324,19.);
#254=CYLINDRICAL_SURFACE('',#325,10.);
#255=CYLINDRICAL_SURFACE('',#330,11.75);
#256=ADVANCED_FACE('',(#197,#198),#245,.F.);
#257=ADVANCED_FACE('',(#199,#200),#246,.F.);
#258=ADVANCED_FACE('',(#201,#202),#247,.F.);
#259=ADVANCED_FACE('',(#203,#204),#248,.F.);
#260=ADVANCED_FACE('',(#205,#206),#249,.T.);
#261=ADVANCED_FACE('',(#207,#208,#209,#210,#211,#212),#25,.F.);
#262=ADVANCED_FACE('',(#213,#214,#215,#216,#217,#218),#26,.T.);
#263=ADVANCED_FACE('',(#219,#220),#250,.F.);
#264=ADVANCED_FACE('',(#221,#222),#22,.T.);
#265=ADVANCED_FACE('',(#223,#224),#27,.T.);
#266=ADVANCED_FACE('',(#225,#226),#251,.F.);
#267=ADVANCED_FACE('',(#227,#228),#20,.F.);
#268=ADVANCED_FACE('',(#229,#230),#252,.F.);
#269=ADVANCED_FACE('',(#231,#232),#28,.T.);
#270=ADVANCED_FACE('',(#233,#234),#253,.T.);
#271=ADVANCED_FACE('',(#235,#236),#254,.T.);
#272=ADVANCED_FACE('',(#237,#238),#21,.T.);
#273=ADVANCED_FACE('',(#239,#240),#255,.T.);
#274=ADVANCED_FACE('',(#241,#242),#23,.F.);
#275=ADVANCED_FACE('',(#243,#244),#24,.T.);
#276=CLOSED_SHELL('',(#256,#257,#258,#259,#260,#261,#262,#263,#264,#265,
#266,#267,#268,#269,#270,#271,#272,#273,#274,#275));
#277=STYLED_ITEM('',(#278),#285);
#278=PRESENTATION_STYLE_ASSIGNMENT((#279));
#279=SURFACE_STYLE_USAGE(.BOTH.,#280);
#280=SURFACE_SIDE_STYLE('',(#281));
#281=SURFACE_STYLE_FILL_AREA(#282);
#282=FILL_AREA_STYLE('',(#283));
#283=FILL_AREA_STYLE_COLOUR('',#284);
#284=COLOUR_RGB('',0.506983280181885,0.531564235687256,0.550000011920929);
#285=MANIFOLD_SOLID_BREP('',#276);
#286=SHAPE_DEFINITION_REPRESENTATION(#498,#287);
#287=SHAPE_REPRESENTATION(
'\X2\94DC540891D15E73710A73AF677E5957677F5F0F94A26CD55170\X0\ GBT15530.
6-2008',(#288),#493);
#288=AXIS2_PLACEMENT_3D('',#423,#333,#334);
#289=AXIS2_PLACEMENT_3D('',#424,#335,#336);
#290=AXIS2_PLACEMENT_3D('',#425,#337,#338);
#291=AXIS2_PLACEMENT_3D('',#427,#339,#340);
#292=AXIS2_PLACEMENT_3D('',#429,#341,#342);
#293=AXIS2_PLACEMENT_3D('',#430,#343,#344);
#294=AXIS2_PLACEMENT_3D('',#432,#345,#346);
#295=AXIS2_PLACEMENT_3D('',#434,#347,#348);
#296=AXIS2_PLACEMENT_3D('',#435,#349,#350);
#297=AXIS2_PLACEMENT_3D('',#437,#351,#352);
#298=AXIS2_PLACEMENT_3D('',#439,#353,#354);
#299=AXIS2_PLACEMENT_3D('',#440,#355,#356);
#300=AXIS2_PLACEMENT_3D('',#442,#357,#358);
#301=AXIS2_PLACEMENT_3D('',#444,#359,#360);
#302=AXIS2_PLACEMENT_3D('',#445,#361,#362);
#303=AXIS2_PLACEMENT_3D('',#447,#363,#364);
#304=AXIS2_PLACEMENT_3D('',#449,#365,#366);
#305=AXIS2_PLACEMENT_3D('',#450,#367,#368);
#306=AXIS2_PLACEMENT_3D('',#452,#369,#370);
#307=AXIS2_PLACEMENT_3D('',#453,#371,#372);
#308=AXIS2_PLACEMENT_3D('',#455,#373,#374);
#309=AXIS2_PLACEMENT_3D('',#457,#375,#376);
#310=AXIS2_PLACEMENT_3D('',#458,#377,#378);
#311=AXIS2_PLACEMENT_3D('',#459,#379,#380);
#312=AXIS2_PLACEMENT_3D('',#461,#381,#382);
#313=AXIS2_PLACEMENT_3D('',#462,#383,#384);
#314=AXIS2_PLACEMENT_3D('',#464,#385,#386);
#315=AXIS2_PLACEMENT_3D('',#466,#387,#388);
#316=AXIS2_PLACEMENT_3D('',#467,#389,#390);
#317=AXIS2_PLACEMENT_3D('',#469,#391,#392);
#318=AXIS2_PLACEMENT_3D('',#470,#393,#394);
#319=AXIS2_PLACEMENT_3D('',#472,#395,#396);
#320=AXIS2_PLACEMENT_3D('',#473,#397,#398);
#321=AXIS2_PLACEMENT_3D('',#475,#399,#400);
#322=AXIS2_PLACEMENT_3D('',#476,#401,#402);
#323=AXIS2_PLACEMENT_3D('',#478,#403,#404);
#324=AXIS2_PLACEMENT_3D('',#480,#405,#406);
#325=AXIS2_PLACEMENT_3D('',#481,#407,#408);
#326=AXIS2_PLACEMENT_3D('',#482,#409,#410);
#327=AXIS2_PLACEMENT_3D('',#484,#411,#412);
#328=AXIS2_PLACEMENT_3D('',#486,#413,#414);
#329=AXIS2_PLACEMENT_3D('',#487,#415,#416);
#330=AXIS2_PLACEMENT_3D('',#489,#417,#418);
#331=AXIS2_PLACEMENT_3D('',#490,#419,#420);
#332=AXIS2_PLACEMENT_3D('',#491,#421,#422);
#333=DIRECTION('',(0.,0.,1.));
#334=DIRECTION('',(1.,0.,0.));
#335=DIRECTION('',(0.,0.,-1.));
#336=DIRECTION('',(1.60812264967664E-16,-1.,0.));
#337=DIRECTION('',(0.,0.,-1.));
#338=DIRECTION('',(1.60812264967664E-16,-1.,0.));
#339=DIRECTION('',(0.,0.,-1.));
#340=DIRECTION('',(-1.60812264967664E-16,1.,0.));
#341=DIRECTION('',(0.,0.,-1.));
#342=DIRECTION('',(1.,-1.22464679914735E-16,0.));
#343=DIRECTION('',(0.,0.,-1.));
#344=DIRECTION('',(1.,-1.22464679914735E-16,0.));
#345=DIRECTION('',(0.,0.,-1.));
#346=DIRECTION('',(-1.,1.22464679914735E-16,0.));
#347=DIRECTION('',(0.,0.,-1.));
#348=DIRECTION('',(1.83697019872103E-16,1.,0.));
#349=DIRECTION('',(0.,0.,-1.));
#350=DIRECTION('',(1.83697019872103E-16,1.,0.));
#351=DIRECTION('',(0.,0.,-1.));
#352=DIRECTION('',(-1.83697019872103E-16,-1.,0.));
#353=DIRECTION('',(0.,0.,-1.));
#354=DIRECTION('',(-1.,0.,0.));
#355=DIRECTION('',(0.,0.,-1.));
#356=DIRECTION('',(-1.,0.,0.));
#357=DIRECTION('',(0.,0.,-1.));
#358=DIRECTION('',(1.,0.,0.));
#359=DIRECTION('',(0.,0.,-1.));
#360=DIRECTION('',(-1.,0.,0.));
#361=DIRECTION('',(0.,0.,-1.));
#362=DIRECTION('',(1.,0.,0.));
#363=DIRECTION('',(0.,0.,-1.));
#364=DIRECTION('',(1.,0.,0.));
#365=DIRECTION('',(0.,0.,-1.));
#366=DIRECTION('',(-1.,0.,0.));
#367=DIRECTION('',(0.,0.,-1.));
#368=DIRECTION('',(-1.,0.,0.));
#369=DIRECTION('',(0.,0.,-1.));
#370=DIRECTION('',(-1.,0.,0.));
#371=DIRECTION('',(0.,0.,-1.));
#372=DIRECTION('',(-1.,0.,0.));
#373=DIRECTION('',(0.,0.,-1.));
#374=DIRECTION('',(1.,0.,0.));
#375=DIRECTION('',(0.,0.,-1.));
#376=DIRECTION('',(-1.,0.,0.));
#377=DIRECTION('',(0.,0.,-1.));
#378=DIRECTION('',(-1.,0.,0.));
#379=DIRECTION('',(0.,0.,-1.));
#380=DIRECTION('',(-1.,0.,0.));
#381=DIRECTION('',(0.,0.,1.));
#382=DIRECTION('',(1.,0.,0.));
#383=DIRECTION('',(0.,0.,-1.));
#384=DIRECTION('',(-1.,0.,0.));
#385=DIRECTION('',(0.,0.,-1.));
#386=DIRECTION('',(-1.,0.,0.));
#387=DIRECTION('',(0.,0.,-1.));
#388=DIRECTION('',(-1.,0.,0.));
#389=DIRECTION('',(0.,0.,-1.));
#390=DIRECTION('',(-1.,0.,0.));
#391=DIRECTION('',(0.,0.,1.));
#392=DIRECTION('',(1.,0.,0.));
#393=DIRECTION('',(0.,0.,-1.));
#394=DIRECTION('',(-1.,0.,0.));
#395=DIRECTION('',(0.,0.,-1.));
#396=DIRECTION('',(-1.,0.,0.));
#397=DIRECTION('',(0.,0.,-1.));
#398=DIRECTION('',(-1.,0.,0.));
#399=DIRECTION('',(0.,0.,-1.));
#400=DIRECTION('',(-1.,0.,0.));
#401=DIRECTION('',(0.,0.,-1.));
#402=DIRECTION('',(-1.,0.,0.));
#403=DIRECTION('',(0.,0.,-1.));
#404=DIRECTION('',(-1.,0.,0.));
#405=DIRECTION('',(0.,0.,-1.));
#406=DIRECTION('',(-1.,0.,0.));
#407=DIRECTION('',(0.,0.,-1.));
#408=DIRECTION('',(-1.,0.,0.));
#409=DIRECTION('',(0.,0.,1.));
#410=DIRECTION('',(1.,0.,0.));
#411=DIRECTION('',(0.,0.,-1.));
#412=DIRECTION('',(-1.,0.,0.));
#413=DIRECTION('',(0.,0.,1.));
#414=DIRECTION('',(1.,0.,0.));
#415=DIRECTION('',(0.,0.,-1.));
#416=DIRECTION('',(-1.,0.,0.));
#417=DIRECTION('',(0.,0.,-1.));
#418=DIRECTION('',(-1.,0.,0.));
#419=DIRECTION('',(0.,0.,1.));
#420=DIRECTION('',(1.,0.,0.));
#421=DIRECTION('',(0.,0.,-1.));
#422=DIRECTION('',(-1.,0.,0.));
#423=CARTESIAN_POINT('',(0.,0.,0.));
#424=CARTESIAN_POINT('',(-27.5,-4.42233728661075E-15,113.578166916005));
#425=CARTESIAN_POINT('',(-27.5,-4.42233728661075E-15,9.99999999999999));
#426=CARTESIAN_POINT('',(-27.5,-5.5,9.99999999999999));
#427=CARTESIAN_POINT('',(-27.5,-4.42233728661075E-15,0.));
#428=CARTESIAN_POINT('',(-27.5,5.5,0.));
#429=CARTESIAN_POINT('',(-3.36777869765522E-15,-27.5,113.578166916005));
#430=CARTESIAN_POINT('',(-3.36777869765522E-15,-27.5,9.99999999999999));
#431=CARTESIAN_POINT('',(5.5,-27.5,9.99999999999999));
#432=CARTESIAN_POINT('',(-3.36777869765522E-15,-27.5,0.));
#433=CARTESIAN_POINT('',(-5.5,-27.5,0.));
#434=CARTESIAN_POINT('',(27.5,-5.05166804648283E-15,113.578166916005));
#435=CARTESIAN_POINT('',(27.5,-5.05166804648283E-15,9.99999999999999));
#436=CARTESIAN_POINT('',(27.5,5.49999999999999,9.99999999999999));
#437=CARTESIAN_POINT('',(27.5,-5.05166804648283E-15,0.));
#438=CARTESIAN_POINT('',(27.5,-5.50000000000001,0.));
#439=CARTESIAN_POINT('',(0.,0.,10.));
#440=CARTESIAN_POINT('',(0.,0.,2.));
#441=CARTESIAN_POINT('',(-11.,0.,2.));
#442=CARTESIAN_POINT('',(0.,0.,10.));
#443=CARTESIAN_POINT('',(11.,0.,10.));
#444=CARTESIAN_POINT('',(0.,0.,10.));
#445=CARTESIAN_POINT('',(0.,0.,10.));
#446=CARTESIAN_POINT('',(40.,0.,10.));
#447=CARTESIAN_POINT('',(0.,0.,0.));
#448=CARTESIAN_POINT('',(40.,0.,0.));
#449=CARTESIAN_POINT('',(0.,0.,10.));
#450=CARTESIAN_POINT('',(0.,27.5,9.99999999999999));
#451=CARTESIAN_POINT('',(-5.5,27.5,9.99999999999999));
#452=CARTESIAN_POINT('',(0.,0.,0.));
#453=CARTESIAN_POINT('',(0.,0.,0.));
#454=CARTESIAN_POINT('',(-19.,0.,0.));
#455=CARTESIAN_POINT('',(0.,27.5,0.));
#456=CARTESIAN_POINT('',(5.5,27.5,0.));
#457=CARTESIAN_POINT('',(0.,27.5,113.578166916005));
#458=CARTESIAN_POINT('',(0.,0.,2.));
#459=CARTESIAN_POINT('',(0.,0.,0.));
#460=CARTESIAN_POINT('',(-13.,0.,0.));
#461=CARTESIAN_POINT('',(-11.75,0.,45.));
#462=CARTESIAN_POINT('',(0.,0.,45.));
#463=CARTESIAN_POINT('',(-10.25,0.,45.));
#464=CARTESIAN_POINT('',(0.,0.,45.));
#465=CARTESIAN_POINT('',(-11.75,0.,45.));
#466=CARTESIAN_POINT('',(0.,0.,0.));
#467=CARTESIAN_POINT('',(0.,0.,32.));
#468=CARTESIAN_POINT('',(-10.25,0.,32.));
#469=CARTESIAN_POINT('',(0.,0.,32.));
#470=CARTESIAN_POINT('',(0.,0.,21.));
#471=CARTESIAN_POINT('',(-8.5,0.,21.));
#472=CARTESIAN_POINT('',(0.,0.,0.));
#473=CARTESIAN_POINT('',(0.,0.,1.5));
#474=CARTESIAN_POINT('',(-8.5,0.,1.5));
#475=CARTESIAN_POINT('',(-19.,0.,-1.5));
#476=CARTESIAN_POINT('',(0.,0.,-1.5));
#477=CARTESIAN_POINT('',(-11.5,0.,-1.5));
#478=CARTESIAN_POINT('',(0.,0.,-1.5));
#479=CARTESIAN_POINT('',(-19.,0.,-1.5));
#480=CARTESIAN_POINT('',(0.,0.,0.));
#481=CARTESIAN_POINT('',(0.,0.,0.));
#482=CARTESIAN_POINT('',(0.,0.,3.));
#483=CARTESIAN_POINT('',(10.,0.,3.));
#484=CARTESIAN_POINT('',(0.,0.,21.));
#485=CARTESIAN_POINT('',(-10.,0.,21.));
#486=CARTESIAN_POINT('',(0.,0.,21.));
#487=CARTESIAN_POINT('',(0.,0.,32.));
#488=CARTESIAN_POINT('',(-11.75,0.,32.));
#489=CARTESIAN_POINT('',(0.,0.,0.));
#490=CARTESIAN_POINT('',(0.,0.,3.));
#491=CARTESIAN_POINT('',(0.,0.,1.5));
#492=MECHANICAL_DESIGN_GEOMETRIC_PRESENTATION_REPRESENTATION('',(#277),
#493);
#493=(
GEOMETRIC_REPRESENTATION_CONTEXT(3)
GLOBAL_UNCERTAINTY_ASSIGNED_CONTEXT((#494))
GLOBAL_UNIT_ASSIGNED_CONTEXT((#497,#496,#495))
REPRESENTATION_CONTEXT(
'\X2\94DC540891D15E73710A73AF677E5957677F5F0F94A26CD55170\X0\ GBT15530.
6-2008','TOP_LEVEL_ASSEMBLY_PART')
);
#494=UNCERTAINTY_MEASURE_WITH_UNIT(LENGTH_MEASURE(0.005),#497,
'DISTANCE_ACCURACY_VALUE','Maximum Tolerance applied to model');
#495=(
NAMED_UNIT(*)
SI_UNIT($,.STERADIAN.)
SOLID_ANGLE_UNIT()
);
#496=(
NAMED_UNIT(*)
PLANE_ANGLE_UNIT()
SI_UNIT($,.RADIAN.)
);
#497=(
LENGTH_UNIT()
NAMED_UNIT(*)
SI_UNIT(.MILLI.,.METRE.)
);
#498=PRODUCT_DEFINITION_SHAPE('','',#499);
#499=PRODUCT_DEFINITION('','',#501,#500);
#500=PRODUCT_DEFINITION_CONTEXT('',#507,'design');
#501=PRODUCT_DEFINITION_FORMATION_WITH_SPECIFIED_SOURCE('','',#503,
 .NOT_KNOWN.);
#502=PRODUCT_RELATED_PRODUCT_CATEGORY('','',(#503));
#503=PRODUCT('\X2\94DC540891D15E73710A73AF677E5957677F5F0F94A26CD55170\X0\ 
GBT15530.6-2008',
'\X2\94DC540891D15E73710A73AF677E5957677F5F0F94A26CD55170\X0\ GBT15530.
6-2008','\X2\94DC540891D15E73710A73AF677E5957677F5F0F94A26CD55170\X0\ 
GBT15530.6-2008',(#505));
#504=PRODUCT_CATEGORY('','');
#505=PRODUCT_CONTEXT('',#507,'mechanical');
#506=APPLICATION_PROTOCOL_DEFINITION('international standard',
'automotive_design',2010,#507);
#507=APPLICATION_CONTEXT(
'core data for automotive mechanical design processes');
ENDSEC;
END-ISO-10303-21;
