ISO-10303-21;
HEADER;
/* Generated by software containing HOOPS Exchange Step
 * from HOOPS Exchange, Inc. (www.tiangong.cloud) 
 */

FILE_DESCRIPTION(
/* description */ ('Unknown'),
/* implementation_level */ '2;1');

FILE_NAME(
/* name */ '\X2\7BA17AEF7FFB8FB973AF677F5F0F677E595794A252367BA16CD55170\X0\',

/* time_stamp */ '2025-07-19T09:19:29+08:00',
/* author */ ('Unknown'),
/* organization */ ('Unknown'),
/* preprocessor_version */ 'ST-DEVELOPER v19.4',
/* originating_system */ 'TianGong',
/* authorisation */ 'Unknown');

FILE_SCHEMA (('AUTOMOTIVE_DESIGN {1 0 10303 214 3 1 1}'));
ENDSEC;

DATA;
#10=PROPERTY_DEFINITION_REPRESENTATION(#14,#12);
#11=PROPERTY_DEFINITION_REPRESENTATION(#15,#13);
#12=REPRESENTATION('',(#16),#433);
#13=REPRESENTATION('',(#17),#433);
#14=PROPERTY_DEFINITION('pmi validation property','',#438);
#15=PROPERTY_DEFINITION('pmi validation property','',#438);
#16=VALUE_REPRESENTATION_ITEM('number of annotations',COUNT_MEASURE(0.));
#17=VALUE_REPRESENTATION_ITEM('number of views',COUNT_MEASURE(0.));
#18=SHAPE_REPRESENTATION_RELATIONSHIP('','',#254,#19);
#19=ADVANCED_BREP_SHAPE_REPRESENTATION('',(#252),#433);
#20=TOROIDAL_SURFACE('',#286,18.85,2.);
#21=TOROIDAL_SURFACE('',#291,16.85,2.);
#22=PLANE('',#270);
#23=PLANE('',#276);
#24=PLANE('',#279);
#25=PLANE('',#281);
#26=PLANE('',#289);
#27=CONICAL_SURFACE('',#268,19.,0.785398163397449);
#28=ORIENTED_EDGE('',*,*,#70,.T.);
#29=ORIENTED_EDGE('',*,*,#71,.F.);
#30=ORIENTED_EDGE('',*,*,#72,.T.);
#31=ORIENTED_EDGE('',*,*,#73,.F.);
#32=ORIENTED_EDGE('',*,*,#74,.T.);
#33=ORIENTED_EDGE('',*,*,#75,.F.);
#34=ORIENTED_EDGE('',*,*,#76,.F.);
#35=ORIENTED_EDGE('',*,*,#77,.T.);
#36=ORIENTED_EDGE('',*,*,#78,.F.);
#37=ORIENTED_EDGE('',*,*,#76,.T.);
#38=ORIENTED_EDGE('',*,*,#79,.T.);
#39=ORIENTED_EDGE('',*,*,#70,.F.);
#40=ORIENTED_EDGE('',*,*,#72,.F.);
#41=ORIENTED_EDGE('',*,*,#74,.F.);
#42=ORIENTED_EDGE('',*,*,#80,.F.);
#43=ORIENTED_EDGE('',*,*,#81,.F.);
#44=ORIENTED_EDGE('',*,*,#82,.F.);
#45=ORIENTED_EDGE('',*,*,#81,.T.);
#46=ORIENTED_EDGE('',*,*,#71,.T.);
#47=ORIENTED_EDGE('',*,*,#73,.T.);
#48=ORIENTED_EDGE('',*,*,#75,.T.);
#49=ORIENTED_EDGE('',*,*,#83,.T.);
#50=ORIENTED_EDGE('',*,*,#77,.F.);
#51=ORIENTED_EDGE('',*,*,#82,.T.);
#52=ORIENTED_EDGE('',*,*,#80,.T.);
#53=ORIENTED_EDGE('',*,*,#83,.F.);
#54=ORIENTED_EDGE('',*,*,#78,.T.);
#55=ORIENTED_EDGE('',*,*,#84,.F.);
#56=ORIENTED_EDGE('',*,*,#85,.T.);
#57=ORIENTED_EDGE('',*,*,#86,.F.);
#58=ORIENTED_EDGE('',*,*,#87,.T.);
#59=ORIENTED_EDGE('',*,*,#85,.F.);
#60=ORIENTED_EDGE('',*,*,#84,.T.);
#61=ORIENTED_EDGE('',*,*,#87,.F.);
#62=ORIENTED_EDGE('',*,*,#88,.T.);
#63=ORIENTED_EDGE('',*,*,#79,.F.);
#64=ORIENTED_EDGE('',*,*,#89,.T.);
#65=ORIENTED_EDGE('',*,*,#88,.F.);
#66=ORIENTED_EDGE('',*,*,#90,.T.);
#67=ORIENTED_EDGE('',*,*,#89,.F.);
#68=ORIENTED_EDGE('',*,*,#86,.T.);
#69=ORIENTED_EDGE('',*,*,#90,.F.);
#70=EDGE_CURVE('',#91,#91,#112,.F.);
#71=EDGE_CURVE('',#92,#92,#113,.T.);
#72=EDGE_CURVE('',#93,#93,#114,.F.);
#73=EDGE_CURVE('',#94,#94,#115,.T.);
#74=EDGE_CURVE('',#95,#95,#116,.F.);
#75=EDGE_CURVE('',#96,#96,#117,.T.);
#76=EDGE_CURVE('',#97,#97,#118,.T.);
#77=EDGE_CURVE('',#98,#98,#119,.T.);
#78=EDGE_CURVE('',#99,#99,#120,.T.);
#79=EDGE_CURVE('',#100,#100,#121,.T.);
#80=EDGE_CURVE('',#101,#101,#122,.F.);
#81=EDGE_CURVE('',#102,#102,#123,.T.);
#82=EDGE_CURVE('',#103,#103,#124,.T.);
#83=EDGE_CURVE('',#104,#104,#125,.T.);
#84=EDGE_CURVE('',#105,#105,#126,.T.);
#85=EDGE_CURVE('',#106,#106,#127,.T.);
#86=EDGE_CURVE('',#107,#107,#128,.T.);
#87=EDGE_CURVE('',#108,#108,#129,.T.);
#88=EDGE_CURVE('',#109,#109,#130,.T.);
#89=EDGE_CURVE('',#110,#110,#131,.T.);
#90=EDGE_CURVE('',#111,#111,#132,.T.);
#91=VERTEX_POINT('',#375);
#92=VERTEX_POINT('',#377);
#93=VERTEX_POINT('',#380);
#94=VERTEX_POINT('',#382);
#95=VERTEX_POINT('',#385);
#96=VERTEX_POINT('',#387);
#97=VERTEX_POINT('',#390);
#98=VERTEX_POINT('',#392);
#99=VERTEX_POINT('',#395);
#100=VERTEX_POINT('',#398);
#101=VERTEX_POINT('',#400);
#102=VERTEX_POINT('',#402);
#103=VERTEX_POINT('',#405);
#104=VERTEX_POINT('',#408);
#105=VERTEX_POINT('',#412);
#106=VERTEX_POINT('',#415);
#107=VERTEX_POINT('',#417);
#108=VERTEX_POINT('',#420);
#109=VERTEX_POINT('',#424);
#110=VERTEX_POINT('',#427);
#111=VERTEX_POINT('',#430);
#112=CIRCLE('',#257,5.5);
#113=CIRCLE('',#258,5.5);
#114=CIRCLE('',#260,5.5);
#115=CIRCLE('',#261,5.5);
#116=CIRCLE('',#263,5.5);
#117=CIRCLE('',#264,5.5);
#118=CIRCLE('',#266,19.);
#119=CIRCLE('',#267,19.);
#120=CIRCLE('',#269,23.);
#121=CIRCLE('',#271,30.);
#122=CIRCLE('',#272,5.5);
#123=CIRCLE('',#273,50.);
#124=CIRCLE('',#275,50.);
#125=CIRCLE('',#277,5.5);
#126=CIRCLE('',#280,18.85);
#127=CIRCLE('',#282,16.85);
#128=CIRCLE('',#283,14.85);
#129=CIRCLE('',#285,16.85);
#130=CIRCLE('',#288,30.);
#131=CIRCLE('',#290,16.85);
#132=CIRCLE('',#292,14.85);
#133=EDGE_LOOP('',(#28));
#134=EDGE_LOOP('',(#29));
#135=EDGE_LOOP('',(#30));
#136=EDGE_LOOP('',(#31));
#137=EDGE_LOOP('',(#32));
#138=EDGE_LOOP('',(#33));
#139=EDGE_LOOP('',(#34));
#140=EDGE_LOOP('',(#35));
#141=EDGE_LOOP('',(#36));
#142=EDGE_LOOP('',(#37));
#143=EDGE_LOOP('',(#38));
#144=EDGE_LOOP('',(#39));
#145=EDGE_LOOP('',(#40));
#146=EDGE_LOOP('',(#41));
#147=EDGE_LOOP('',(#42));
#148=EDGE_LOOP('',(#43));
#149=EDGE_LOOP('',(#44));
#150=EDGE_LOOP('',(#45));
#151=EDGE_LOOP('',(#46));
#152=EDGE_LOOP('',(#47));
#153=EDGE_LOOP('',(#48));
#154=EDGE_LOOP('',(#49));
#155=EDGE_LOOP('',(#50));
#156=EDGE_LOOP('',(#51));
#157=EDGE_LOOP('',(#52));
#158=EDGE_LOOP('',(#53));
#159=EDGE_LOOP('',(#54));
#160=EDGE_LOOP('',(#55));
#161=EDGE_LOOP('',(#56));
#162=EDGE_LOOP('',(#57));
#163=EDGE_LOOP('',(#58));
#164=EDGE_LOOP('',(#59));
#165=EDGE_LOOP('',(#60));
#166=EDGE_LOOP('',(#61));
#167=EDGE_LOOP('',(#62));
#168=EDGE_LOOP('',(#63));
#169=EDGE_LOOP('',(#64));
#170=EDGE_LOOP('',(#65));
#171=EDGE_LOOP('',(#66));
#172=EDGE_LOOP('',(#67));
#173=EDGE_LOOP('',(#68));
#174=EDGE_LOOP('',(#69));
#175=FACE_BOUND('',#133,.T.);
#176=FACE_BOUND('',#134,.T.);
#177=FACE_BOUND('',#135,.T.);
#178=FACE_BOUND('',#136,.T.);
#179=FACE_BOUND('',#137,.T.);
#180=FACE_BOUND('',#138,.T.);
#181=FACE_BOUND('',#139,.T.);
#182=FACE_BOUND('',#140,.T.);
#183=FACE_BOUND('',#141,.T.);
#184=FACE_BOUND('',#142,.T.);
#185=FACE_BOUND('',#143,.T.);
#186=FACE_BOUND('',#144,.T.);
#187=FACE_BOUND('',#145,.T.);
#188=FACE_BOUND('',#146,.T.);
#189=FACE_BOUND('',#147,.T.);
#190=FACE_BOUND('',#148,.T.);
#191=FACE_BOUND('',#149,.T.);
#192=FACE_BOUND('',#150,.T.);
#193=FACE_BOUND('',#151,.T.);
#194=FACE_BOUND('',#152,.T.);
#195=FACE_BOUND('',#153,.T.);
#196=FACE_BOUND('',#154,.T.);
#197=FACE_BOUND('',#155,.T.);
#198=FACE_BOUND('',#156,.T.);
#199=FACE_BOUND('',#157,.T.);
#200=FACE_BOUND('',#158,.T.);
#201=FACE_BOUND('',#159,.T.);
#202=FACE_BOUND('',#160,.T.);
#203=FACE_BOUND('',#161,.T.);
#204=FACE_BOUND('',#162,.T.);
#205=FACE_BOUND('',#163,.T.);
#206=FACE_BOUND('',#164,.T.);
#207=FACE_BOUND('',#165,.T.);
#208=FACE_BOUND('',#166,.T.);
#209=FACE_BOUND('',#167,.T.);
#210=FACE_BOUND('',#168,.T.);
#211=FACE_BOUND('',#169,.T.);
#212=FACE_BOUND('',#170,.T.);
#213=FACE_BOUND('',#171,.T.);
#214=FACE_BOUND('',#172,.T.);
#215=FACE_BOUND('',#173,.T.);
#216=FACE_BOUND('',#174,.T.);
#217=CYLINDRICAL_SURFACE('',#256,5.5);
#218=CYLINDRICAL_SURFACE('',#259,5.5);
#219=CYLINDRICAL_SURFACE('',#262,5.5);
#220=CYLINDRICAL_SURFACE('',#265,19.);
#221=CYLINDRICAL_SURFACE('',#274,50.);
#222=CYLINDRICAL_SURFACE('',#278,5.5);
#223=CYLINDRICAL_SURFACE('',#284,16.85);
#224=CYLINDRICAL_SURFACE('',#287,30.);
#225=CYLINDRICAL_SURFACE('',#293,14.85);
#226=ADVANCED_FACE('',(#175,#176),#217,.F.);
#227=ADVANCED_FACE('',(#177,#178),#218,.F.);
#228=ADVANCED_FACE('',(#179,#180),#219,.F.);
#229=ADVANCED_FACE('',(#181,#182),#220,.F.);
#230=ADVANCED_FACE('',(#183,#184),#27,.F.);
#231=ADVANCED_FACE('',(#185,#186,#187,#188,#189,#190),#22,.F.);
#232=ADVANCED_FACE('',(#191,#192),#221,.T.);
#233=ADVANCED_FACE('',(#193,#194,#195,#196,#197,#198),#23,.F.);
#234=ADVANCED_FACE('',(#199,#200),#222,.F.);
#235=ADVANCED_FACE('',(#201,#202),#24,.T.);
#236=ADVANCED_FACE('',(#203,#204),#25,.T.);
#237=ADVANCED_FACE('',(#205,#206),#223,.T.);
#238=ADVANCED_FACE('',(#207,#208),#20,.F.);
#239=ADVANCED_FACE('',(#209,#210),#224,.T.);
#240=ADVANCED_FACE('',(#211,#212),#26,.T.);
#241=ADVANCED_FACE('',(#213,#214),#21,.T.);
#242=ADVANCED_FACE('',(#215,#216),#225,.F.);
#243=CLOSED_SHELL('',(#226,#227,#228,#229,#230,#231,#232,#233,#234,#235,
#236,#237,#238,#239,#240,#241,#242));
#244=STYLED_ITEM('',(#245),#252);
#245=PRESENTATION_STYLE_ASSIGNMENT((#246));
#246=SURFACE_STYLE_USAGE(.BOTH.,#247);
#247=SURFACE_SIDE_STYLE('',(#248));
#248=SURFACE_STYLE_FILL_AREA(#249);
#249=FILL_AREA_STYLE('',(#250));
#250=FILL_AREA_STYLE_COLOUR('',#251);
#251=COLOUR_RGB('',0.506983280181885,0.531564235687256,0.550000011920929);
#252=MANIFOLD_SOLID_BREP('',#243);
#253=SHAPE_DEFINITION_REPRESENTATION(#438,#254);
#254=SHAPE_REPRESENTATION('\X2\7BA17AEF7FFB8FB973AF677F5F0F677E595794A252367BA16CD55170\X0\',
(#255),#433);
#255=AXIS2_PLACEMENT_3D('',#372,#294,#295);
#256=AXIS2_PLACEMENT_3D('',#373,#296,#297);
#257=AXIS2_PLACEMENT_3D('',#374,#298,#299);
#258=AXIS2_PLACEMENT_3D('',#376,#300,#301);
#259=AXIS2_PLACEMENT_3D('',#378,#302,#303);
#260=AXIS2_PLACEMENT_3D('',#379,#304,#305);
#261=AXIS2_PLACEMENT_3D('',#381,#306,#307);
#262=AXIS2_PLACEMENT_3D('',#383,#308,#309);
#263=AXIS2_PLACEMENT_3D('',#384,#310,#311);
#264=AXIS2_PLACEMENT_3D('',#386,#312,#313);
#265=AXIS2_PLACEMENT_3D('',#388,#314,#315);
#266=AXIS2_PLACEMENT_3D('',#389,#316,#317);
#267=AXIS2_PLACEMENT_3D('',#391,#318,#319);
#268=AXIS2_PLACEMENT_3D('',#393,#320,#321);
#269=AXIS2_PLACEMENT_3D('',#394,#322,#323);
#270=AXIS2_PLACEMENT_3D('',#396,#324,#325);
#271=AXIS2_PLACEMENT_3D('',#397,#326,#327);
#272=AXIS2_PLACEMENT_3D('',#399,#328,#329);
#273=AXIS2_PLACEMENT_3D('',#401,#330,#331);
#274=AXIS2_PLACEMENT_3D('',#403,#332,#333);
#275=AXIS2_PLACEMENT_3D('',#404,#334,#335);
#276=AXIS2_PLACEMENT_3D('',#406,#336,#337);
#277=AXIS2_PLACEMENT_3D('',#407,#338,#339);
#278=AXIS2_PLACEMENT_3D('',#409,#340,#341);
#279=AXIS2_PLACEMENT_3D('',#410,#342,#343);
#280=AXIS2_PLACEMENT_3D('',#411,#344,#345);
#281=AXIS2_PLACEMENT_3D('',#413,#346,#347);
#282=AXIS2_PLACEMENT_3D('',#414,#348,#349);
#283=AXIS2_PLACEMENT_3D('',#416,#350,#351);
#284=AXIS2_PLACEMENT_3D('',#418,#352,#353);
#285=AXIS2_PLACEMENT_3D('',#419,#354,#355);
#286=AXIS2_PLACEMENT_3D('',#421,#356,#357);
#287=AXIS2_PLACEMENT_3D('',#422,#358,#359);
#288=AXIS2_PLACEMENT_3D('',#423,#360,#361);
#289=AXIS2_PLACEMENT_3D('',#425,#362,#363);
#290=AXIS2_PLACEMENT_3D('',#426,#364,#365);
#291=AXIS2_PLACEMENT_3D('',#428,#366,#367);
#292=AXIS2_PLACEMENT_3D('',#429,#368,#369);
#293=AXIS2_PLACEMENT_3D('',#431,#370,#371);
#294=DIRECTION('',(0.,0.,1.));
#295=DIRECTION('',(1.,0.,0.));
#296=DIRECTION('',(0.,0.,1.));
#297=DIRECTION('',(-1.60812264967664E-16,1.,0.));
#298=DIRECTION('',(0.,0.,1.));
#299=DIRECTION('',(-1.60812264967664E-16,1.,0.));
#300=DIRECTION('',(0.,0.,-1.));
#301=DIRECTION('',(-1.60812264967664E-16,1.,0.));
#302=DIRECTION('',(0.,0.,1.));
#303=DIRECTION('',(-1.,1.22464679914735E-16,0.));
#304=DIRECTION('',(0.,0.,1.));
#305=DIRECTION('',(-1.,1.22464679914735E-16,0.));
#306=DIRECTION('',(0.,0.,-1.));
#307=DIRECTION('',(-1.,1.22464679914735E-16,0.));
#308=DIRECTION('',(0.,0.,1.));
#309=DIRECTION('',(-1.83697019872103E-16,-1.,0.));
#310=DIRECTION('',(0.,0.,1.));
#311=DIRECTION('',(-1.83697019872103E-16,-1.,0.));
#312=DIRECTION('',(0.,0.,-1.));
#313=DIRECTION('',(-1.83697019872103E-16,-1.,0.));
#314=DIRECTION('',(0.,0.,1.));
#315=DIRECTION('',(1.,0.,0.));
#316=DIRECTION('',(0.,0.,1.));
#317=DIRECTION('',(1.,0.,0.));
#318=DIRECTION('',(0.,0.,1.));
#319=DIRECTION('',(1.,0.,0.));
#320=DIRECTION('',(0.,0.,-1.));
#321=DIRECTION('',(-1.,0.,0.));
#322=DIRECTION('',(0.,0.,1.));
#323=DIRECTION('',(1.,0.,0.));
#324=DIRECTION('',(0.,0.,1.));
#325=DIRECTION('',(1.,0.,0.));
#326=DIRECTION('',(0.,0.,1.));
#327=DIRECTION('',(1.,0.,0.));
#328=DIRECTION('',(0.,0.,1.));
#329=DIRECTION('',(1.,0.,0.));
#330=DIRECTION('',(0.,0.,1.));
#331=DIRECTION('',(1.,0.,0.));
#332=DIRECTION('',(0.,0.,1.));
#333=DIRECTION('',(1.,0.,0.));
#334=DIRECTION('',(0.,0.,1.));
#335=DIRECTION('',(1.,0.,0.));
#336=DIRECTION('',(0.,0.,-1.));
#337=DIRECTION('',(-1.,0.,0.));
#338=DIRECTION('',(0.,0.,-1.));
#339=DIRECTION('',(1.,0.,0.));
#340=DIRECTION('',(0.,0.,1.));
#341=DIRECTION('',(1.,0.,0.));
#342=DIRECTION('',(0.,0.,1.));
#343=DIRECTION('',(1.,0.,0.));
#344=DIRECTION('',(0.,0.,1.));
#345=DIRECTION('',(1.,0.,0.));
#346=DIRECTION('',(0.,0.,1.));
#347=DIRECTION('',(1.,0.,0.));
#348=DIRECTION('',(0.,0.,1.));
#349=DIRECTION('',(1.,0.,0.));
#350=DIRECTION('',(0.,0.,1.));
#351=DIRECTION('',(1.,0.,0.));
#352=DIRECTION('',(0.,0.,1.));
#353=DIRECTION('',(1.,0.,0.));
#354=DIRECTION('',(0.,0.,1.));
#355=DIRECTION('',(1.,0.,0.));
#356=DIRECTION('',(0.,0.,1.));
#357=DIRECTION('',(1.,0.,0.));
#358=DIRECTION('',(0.,0.,1.));
#359=DIRECTION('',(1.,0.,0.));
#360=DIRECTION('',(0.,0.,1.));
#361=DIRECTION('',(1.,0.,0.));
#362=DIRECTION('',(0.,0.,-1.));
#363=DIRECTION('',(-1.,0.,0.));
#364=DIRECTION('',(0.,0.,1.));
#365=DIRECTION('',(1.,0.,0.));
#366=DIRECTION('',(0.,0.,1.));
#367=DIRECTION('',(1.,0.,0.));
#368=DIRECTION('',(0.,0.,1.));
#369=DIRECTION('',(1.,0.,0.));
#370=DIRECTION('',(0.,0.,1.));
#371=DIRECTION('',(1.,0.,0.));
#372=CARTESIAN_POINT('',(0.,0.,0.));
#373=CARTESIAN_POINT('',(-37.5,-6.03045993628739E-15,-128.112631387924));
#374=CARTESIAN_POINT('',(-37.5,-6.03045993628739E-15,0.));
#375=CARTESIAN_POINT('',(-37.5,5.49999999999999,0.));
#376=CARTESIAN_POINT('',(-37.5,-6.03045993628739E-15,14.));
#377=CARTESIAN_POINT('',(-37.5,5.49999999999999,14.));
#378=CARTESIAN_POINT('',(-4.59242549680257E-15,-37.5,-128.112631387924));
#379=CARTESIAN_POINT('',(-4.59242549680257E-15,-37.5,0.));
#380=CARTESIAN_POINT('',(-5.5,-37.5,0.));
#381=CARTESIAN_POINT('',(-4.59242549680257E-15,-37.5,14.));
#382=CARTESIAN_POINT('',(-5.5,-37.5,14.));
#383=CARTESIAN_POINT('',(37.5,-6.88863824520386E-15,-128.112631387924));
#384=CARTESIAN_POINT('',(37.5,-6.88863824520386E-15,0.));
#385=CARTESIAN_POINT('',(37.5,-5.50000000000001,0.));
#386=CARTESIAN_POINT('',(37.5,-6.88863824520386E-15,14.));
#387=CARTESIAN_POINT('',(37.5,-5.50000000000001,14.));
#388=CARTESIAN_POINT('',(0.,0.,54.));
#389=CARTESIAN_POINT('',(0.,0.,4.));
#390=CARTESIAN_POINT('',(19.,0.,4.));
#391=CARTESIAN_POINT('',(0.,0.,14.));
#392=CARTESIAN_POINT('',(19.,0.,14.));
#393=CARTESIAN_POINT('',(0.,0.,4.));
#394=CARTESIAN_POINT('',(0.,0.,0.));
#395=CARTESIAN_POINT('',(23.,0.,0.));
#396=CARTESIAN_POINT('',(23.,0.,0.));
#397=CARTESIAN_POINT('',(0.,0.,0.));
#398=CARTESIAN_POINT('',(30.,0.,0.));
#399=CARTESIAN_POINT('',(0.,37.5,0.));
#400=CARTESIAN_POINT('',(5.5,37.5,0.));
#401=CARTESIAN_POINT('',(0.,0.,0.));
#402=CARTESIAN_POINT('',(50.,0.,0.));
#403=CARTESIAN_POINT('',(0.,0.,54.));
#404=CARTESIAN_POINT('',(0.,0.,14.));
#405=CARTESIAN_POINT('',(50.,0.,14.));
#406=CARTESIAN_POINT('',(50.,0.,14.));
#407=CARTESIAN_POINT('',(0.,37.5,14.));
#408=CARTESIAN_POINT('',(5.5,37.5,14.));
#409=CARTESIAN_POINT('',(0.,37.5,-128.112631387924));
#410=CARTESIAN_POINT('',(18.85,0.,1.30104260698261E-15));
#411=CARTESIAN_POINT('',(0.,0.,2.60208521396521E-15));
#412=CARTESIAN_POINT('',(18.85,0.,2.60208521396521E-15));
#413=CARTESIAN_POINT('',(14.85,0.,7.));
#414=CARTESIAN_POINT('',(0.,0.,7.));
#415=CARTESIAN_POINT('',(16.85,0.,7.));
#416=CARTESIAN_POINT('',(0.,0.,7.));
#417=CARTESIAN_POINT('',(14.85,0.,7.));
#418=CARTESIAN_POINT('',(0.,0.,0.));
#419=CARTESIAN_POINT('',(0.,0.,2.));
#420=CARTESIAN_POINT('',(16.85,0.,2.));
#421=CARTESIAN_POINT('',(0.,0.,2.));
#422=CARTESIAN_POINT('',(0.,0.,0.));
#423=CARTESIAN_POINT('',(0.,0.,-3.));
#424=CARTESIAN_POINT('',(30.,0.,-3.));
#425=CARTESIAN_POINT('',(30.,0.,-3.));
#426=CARTESIAN_POINT('',(0.,0.,-3.));
#427=CARTESIAN_POINT('',(16.85,0.,-3.));
#428=CARTESIAN_POINT('',(0.,0.,-1.));
#429=CARTESIAN_POINT('',(0.,0.,-1.));
#430=CARTESIAN_POINT('',(14.85,0.,-1.));
#431=CARTESIAN_POINT('',(0.,0.,0.));
#432=MECHANICAL_DESIGN_GEOMETRIC_PRESENTATION_REPRESENTATION('',(#244),
#433);
#433=(
GEOMETRIC_REPRESENTATION_CONTEXT(3)
GLOBAL_UNCERTAINTY_ASSIGNED_CONTEXT((#434))
GLOBAL_UNIT_ASSIGNED_CONTEXT((#437,#436,#435))
REPRESENTATION_CONTEXT('\X2\7BA17AEF7FFB8FB973AF677F5F0F677E595794A252367BA16CD55170\X0\',
'TOP_LEVEL_ASSEMBLY_PART')
);
#434=UNCERTAINTY_MEASURE_WITH_UNIT(LENGTH_MEASURE(0.005),#437,
'DISTANCE_ACCURACY_VALUE','Maximum Tolerance applied to model');
#435=(
NAMED_UNIT(*)
SI_UNIT($,.STERADIAN.)
SOLID_ANGLE_UNIT()
);
#436=(
NAMED_UNIT(*)
PLANE_ANGLE_UNIT()
SI_UNIT($,.RADIAN.)
);
#437=(
LENGTH_UNIT()
NAMED_UNIT(*)
SI_UNIT(.MILLI.,.METRE.)
);
#438=PRODUCT_DEFINITION_SHAPE('','',#439);
#439=PRODUCT_DEFINITION('','',#441,#440);
#440=PRODUCT_DEFINITION_CONTEXT('',#447,'design');
#441=PRODUCT_DEFINITION_FORMATION_WITH_SPECIFIED_SOURCE('','',#443,
 .NOT_KNOWN.);
#442=PRODUCT_RELATED_PRODUCT_CATEGORY('','',(#443));
#443=PRODUCT('\X2\7BA17AEF7FFB8FB973AF677F5F0F677E595794A252367BA16CD55170\X0\',
'\X2\7BA17AEF7FFB8FB973AF677F5F0F677E595794A252367BA16CD55170\X0\',
'\X2\7BA17AEF7FFB8FB973AF677F5F0F677E595794A252367BA16CD55170\X0\',(#445));
#444=PRODUCT_CATEGORY('','');
#445=PRODUCT_CONTEXT('',#447,'mechanical');
#446=APPLICATION_PROTOCOL_DEFINITION('international standard',
'automotive_design',2010,#447);
#447=APPLICATION_CONTEXT(
'core data for automotive mechanical design processes');
ENDSEC;
END-ISO-10303-21;
