ISO-10303-21;
HEADER;
/* Generated by software containing HOOPS Exchange Step
 * from HOOPS Exchange, Inc. (www.tiangong.cloud) 
 */

FILE_DESCRIPTION(
/* description */ ('Unknown'),
/* implementation_level */ '2;1');

FILE_NAME(
/* name */ '\X2\73AF8FDE63A597625BF9710A94A252367BA16CD55170\X0\',
/* time_stamp */ '2025-03-29T15:46:32+08:00',
/* author */ ('Unknown'),
/* organization */ ('Unknown'),
/* preprocessor_version */ 'ST-DEVELOPER v19.4',
/* originating_system */ 'TianGong',
/* authorisation */ 'Unknown');

FILE_SCHEMA (('AUTOMOTIVE_DESIGN {1 0 10303 214 3 1 1}'));
ENDSEC;

DATA;
#10=PROPERTY_DEFINITION_REPRESENTATION(#14,#12);
#11=PROPERTY_DEFINITION_REPRESENTATION(#15,#13);
#12=REPRESENTATION('',(#16),#513);
#13=REPRESENTATION('',(#17),#513);
#14=PROPERTY_DEFINITION('pmi validation property','',#518);
#15=PROPERTY_DEFINITION('pmi validation property','',#518);
#16=VALUE_REPRESENTATION_ITEM('number of annotations',COUNT_MEASURE(0.));
#17=VALUE_REPRESENTATION_ITEM('number of views',COUNT_MEASURE(0.));
#18=SHAPE_REPRESENTATION_RELATIONSHIP('','',#298,#19);
#19=ADVANCED_BREP_SHAPE_REPRESENTATION('',(#296),#513);
#20=TOROIDAL_SURFACE('',#336,18.711405245681,0.8);
#21=TOROIDAL_SURFACE('',#340,16.288594754319,0.8);
#22=TOROIDAL_SURFACE('',#343,19.8806389930234,4.);
#23=CONICAL_SURFACE('',#319,10.65,0.32253982021539);
#24=CONICAL_SURFACE('',#334,22.,0.401425727958695);
#25=CONICAL_SURFACE('',#342,15.552190871557,0.401425727958696);
#26=CONICAL_SURFACE('',#344,8.65,0.785398163397447);
#27=PLANE('',#309);
#28=PLANE('',#314);
#29=PLANE('',#321);
#30=PLANE('',#327);
#31=PLANE('',#332);
#32=PLANE('',#338);
#33=ORIENTED_EDGE('',*,*,#83,.F.);
#34=ORIENTED_EDGE('',*,*,#84,.F.);
#35=ORIENTED_EDGE('',*,*,#85,.F.);
#36=ORIENTED_EDGE('',*,*,#86,.F.);
#37=ORIENTED_EDGE('',*,*,#87,.F.);
#38=ORIENTED_EDGE('',*,*,#88,.F.);
#39=ORIENTED_EDGE('',*,*,#89,.T.);
#40=ORIENTED_EDGE('',*,*,#90,.F.);
#41=ORIENTED_EDGE('',*,*,#91,.T.);
#42=ORIENTED_EDGE('',*,*,#89,.F.);
#43=ORIENTED_EDGE('',*,*,#92,.T.);
#44=ORIENTED_EDGE('',*,*,#91,.F.);
#45=ORIENTED_EDGE('',*,*,#93,.T.);
#46=ORIENTED_EDGE('',*,*,#94,.T.);
#47=ORIENTED_EDGE('',*,*,#95,.T.);
#48=ORIENTED_EDGE('',*,*,#94,.F.);
#49=ORIENTED_EDGE('',*,*,#83,.T.);
#50=ORIENTED_EDGE('',*,*,#85,.T.);
#51=ORIENTED_EDGE('',*,*,#87,.T.);
#52=ORIENTED_EDGE('',*,*,#96,.T.);
#53=ORIENTED_EDGE('',*,*,#97,.T.);
#54=ORIENTED_EDGE('',*,*,#98,.T.);
#55=ORIENTED_EDGE('',*,*,#99,.T.);
#56=ORIENTED_EDGE('',*,*,#98,.F.);
#57=ORIENTED_EDGE('',*,*,#84,.T.);
#58=ORIENTED_EDGE('',*,*,#86,.T.);
#59=ORIENTED_EDGE('',*,*,#88,.T.);
#60=ORIENTED_EDGE('',*,*,#100,.T.);
#61=ORIENTED_EDGE('',*,*,#101,.T.);
#62=ORIENTED_EDGE('',*,*,#99,.F.);
#63=ORIENTED_EDGE('',*,*,#102,.T.);
#64=ORIENTED_EDGE('',*,*,#101,.F.);
#65=ORIENTED_EDGE('',*,*,#103,.T.);
#66=ORIENTED_EDGE('',*,*,#102,.F.);
#67=ORIENTED_EDGE('',*,*,#104,.T.);
#68=ORIENTED_EDGE('',*,*,#103,.F.);
#69=ORIENTED_EDGE('',*,*,#105,.T.);
#70=ORIENTED_EDGE('',*,*,#104,.F.);
#71=ORIENTED_EDGE('',*,*,#106,.T.);
#72=ORIENTED_EDGE('',*,*,#105,.F.);
#73=ORIENTED_EDGE('',*,*,#107,.T.);
#74=ORIENTED_EDGE('',*,*,#106,.F.);
#75=ORIENTED_EDGE('',*,*,#90,.T.);
#76=ORIENTED_EDGE('',*,*,#107,.F.);
#77=ORIENTED_EDGE('',*,*,#97,.F.);
#78=ORIENTED_EDGE('',*,*,#95,.F.);
#79=ORIENTED_EDGE('',*,*,#93,.F.);
#80=ORIENTED_EDGE('',*,*,#92,.F.);
#81=ORIENTED_EDGE('',*,*,#96,.F.);
#82=ORIENTED_EDGE('',*,*,#100,.F.);
#83=EDGE_CURVE('',#108,#108,#133,.T.);
#84=EDGE_CURVE('',#109,#109,#134,.F.);
#85=EDGE_CURVE('',#110,#110,#135,.T.);
#86=EDGE_CURVE('',#111,#111,#136,.F.);
#87=EDGE_CURVE('',#112,#112,#137,.T.);
#88=EDGE_CURVE('',#113,#113,#138,.F.);
#89=EDGE_CURVE('',#114,#114,#139,.T.);
#90=EDGE_CURVE('',#115,#115,#140,.T.);
#91=EDGE_CURVE('',#116,#116,#141,.T.);
#92=EDGE_CURVE('',#117,#117,#142,.T.);
#93=EDGE_CURVE('',#118,#118,#143,.F.);
#94=EDGE_CURVE('',#119,#119,#144,.T.);
#95=EDGE_CURVE('',#120,#120,#145,.F.);
#96=EDGE_CURVE('',#121,#121,#146,.T.);
#97=EDGE_CURVE('',#122,#122,#147,.F.);
#98=EDGE_CURVE('',#123,#123,#148,.T.);
#99=EDGE_CURVE('',#124,#124,#149,.T.);
#100=EDGE_CURVE('',#125,#125,#150,.F.);
#101=EDGE_CURVE('',#126,#126,#151,.T.);
#102=EDGE_CURVE('',#127,#127,#152,.T.);
#103=EDGE_CURVE('',#128,#128,#153,.T.);
#104=EDGE_CURVE('',#129,#129,#154,.T.);
#105=EDGE_CURVE('',#130,#130,#155,.T.);
#106=EDGE_CURVE('',#131,#131,#156,.T.);
#107=EDGE_CURVE('',#132,#132,#157,.T.);
#108=VERTEX_POINT('',#443);
#109=VERTEX_POINT('',#445);
#110=VERTEX_POINT('',#448);
#111=VERTEX_POINT('',#450);
#112=VERTEX_POINT('',#453);
#113=VERTEX_POINT('',#455);
#114=VERTEX_POINT('',#458);
#115=VERTEX_POINT('',#460);
#116=VERTEX_POINT('',#463);
#117=VERTEX_POINT('',#466);
#118=VERTEX_POINT('',#469);
#119=VERTEX_POINT('',#471);
#120=VERTEX_POINT('',#474);
#121=VERTEX_POINT('',#477);
#122=VERTEX_POINT('',#479);
#123=VERTEX_POINT('',#481);
#124=VERTEX_POINT('',#484);
#125=VERTEX_POINT('',#487);
#126=VERTEX_POINT('',#489);
#127=VERTEX_POINT('',#492);
#128=VERTEX_POINT('',#495);
#129=VERTEX_POINT('',#498);
#130=VERTEX_POINT('',#501);
#131=VERTEX_POINT('',#504);
#132=VERTEX_POINT('',#507);
#133=CIRCLE('',#301,7.);
#134=CIRCLE('',#302,7.);
#135=CIRCLE('',#304,7.);
#136=CIRCLE('',#305,7.);
#137=CIRCLE('',#307,7.);
#138=CIRCLE('',#308,7.);
#139=CIRCLE('',#310,7.45);
#140=CIRCLE('',#311,13.);
#141=CIRCLE('',#313,7.45);
#142=CIRCLE('',#315,8.65);
#143=CIRCLE('',#317,10.65);
#144=CIRCLE('',#318,10.65);
#145=CIRCLE('',#320,16.0869053337308);
#146=CIRCLE('',#322,7.);
#147=CIRCLE('',#323,19.8806389930234);
#148=CIRCLE('',#324,52.5);
#149=CIRCLE('',#326,52.5);
#150=CIRCLE('',#328,7.);
#151=CIRCLE('',#329,27.5);
#152=CIRCLE('',#331,27.5);
#153=CIRCLE('',#333,22.);
#154=CIRCLE('',#335,19.447809128443);
#155=CIRCLE('',#337,18.711405245681);
#156=CIRCLE('',#339,16.288594754319);
#157=CIRCLE('',#341,15.552190871557);
#158=EDGE_LOOP('',(#33));
#159=EDGE_LOOP('',(#34));
#160=EDGE_LOOP('',(#35));
#161=EDGE_LOOP('',(#36));
#162=EDGE_LOOP('',(#37));
#163=EDGE_LOOP('',(#38));
#164=EDGE_LOOP('',(#39));
#165=EDGE_LOOP('',(#40));
#166=EDGE_LOOP('',(#41));
#167=EDGE_LOOP('',(#42));
#168=EDGE_LOOP('',(#43));
#169=EDGE_LOOP('',(#44));
#170=EDGE_LOOP('',(#45));
#171=EDGE_LOOP('',(#46));
#172=EDGE_LOOP('',(#47));
#173=EDGE_LOOP('',(#48));
#174=EDGE_LOOP('',(#49));
#175=EDGE_LOOP('',(#50));
#176=EDGE_LOOP('',(#51));
#177=EDGE_LOOP('',(#52));
#178=EDGE_LOOP('',(#53));
#179=EDGE_LOOP('',(#54));
#180=EDGE_LOOP('',(#55));
#181=EDGE_LOOP('',(#56));
#182=EDGE_LOOP('',(#57));
#183=EDGE_LOOP('',(#58));
#184=EDGE_LOOP('',(#59));
#185=EDGE_LOOP('',(#60));
#186=EDGE_LOOP('',(#61));
#187=EDGE_LOOP('',(#62));
#188=EDGE_LOOP('',(#63));
#189=EDGE_LOOP('',(#64));
#190=EDGE_LOOP('',(#65));
#191=EDGE_LOOP('',(#66));
#192=EDGE_LOOP('',(#67));
#193=EDGE_LOOP('',(#68));
#194=EDGE_LOOP('',(#69));
#195=EDGE_LOOP('',(#70));
#196=EDGE_LOOP('',(#71));
#197=EDGE_LOOP('',(#72));
#198=EDGE_LOOP('',(#73));
#199=EDGE_LOOP('',(#74));
#200=EDGE_LOOP('',(#75));
#201=EDGE_LOOP('',(#76));
#202=EDGE_LOOP('',(#77));
#203=EDGE_LOOP('',(#78));
#204=EDGE_LOOP('',(#79));
#205=EDGE_LOOP('',(#80));
#206=EDGE_LOOP('',(#81));
#207=EDGE_LOOP('',(#82));
#208=FACE_BOUND('',#158,.T.);
#209=FACE_BOUND('',#159,.T.);
#210=FACE_BOUND('',#160,.T.);
#211=FACE_BOUND('',#161,.T.);
#212=FACE_BOUND('',#162,.T.);
#213=FACE_BOUND('',#163,.T.);
#214=FACE_BOUND('',#164,.T.);
#215=FACE_BOUND('',#165,.T.);
#216=FACE_BOUND('',#166,.T.);
#217=FACE_BOUND('',#167,.T.);
#218=FACE_BOUND('',#168,.T.);
#219=FACE_BOUND('',#169,.T.);
#220=FACE_BOUND('',#170,.T.);
#221=FACE_BOUND('',#171,.T.);
#222=FACE_BOUND('',#172,.T.);
#223=FACE_BOUND('',#173,.T.);
#224=FACE_BOUND('',#174,.T.);
#225=FACE_BOUND('',#175,.T.);
#226=FACE_BOUND('',#176,.T.);
#227=FACE_BOUND('',#177,.T.);
#228=FACE_BOUND('',#178,.T.);
#229=FACE_BOUND('',#179,.T.);
#230=FACE_BOUND('',#180,.T.);
#231=FACE_BOUND('',#181,.T.);
#232=FACE_BOUND('',#182,.T.);
#233=FACE_BOUND('',#183,.T.);
#234=FACE_BOUND('',#184,.T.);
#235=FACE_BOUND('',#185,.T.);
#236=FACE_BOUND('',#186,.T.);
#237=FACE_BOUND('',#187,.T.);
#238=FACE_BOUND('',#188,.T.);
#239=FACE_BOUND('',#189,.T.);
#240=FACE_BOUND('',#190,.T.);
#241=FACE_BOUND('',#191,.T.);
#242=FACE_BOUND('',#192,.T.);
#243=FACE_BOUND('',#193,.T.);
#244=FACE_BOUND('',#194,.T.);
#245=FACE_BOUND('',#195,.T.);
#246=FACE_BOUND('',#196,.T.);
#247=FACE_BOUND('',#197,.T.);
#248=FACE_BOUND('',#198,.T.);
#249=FACE_BOUND('',#199,.T.);
#250=FACE_BOUND('',#200,.T.);
#251=FACE_BOUND('',#201,.T.);
#252=FACE_BOUND('',#202,.T.);
#253=FACE_BOUND('',#203,.T.);
#254=FACE_BOUND('',#204,.T.);
#255=FACE_BOUND('',#205,.T.);
#256=FACE_BOUND('',#206,.T.);
#257=FACE_BOUND('',#207,.T.);
#258=CYLINDRICAL_SURFACE('',#300,7.);
#259=CYLINDRICAL_SURFACE('',#303,7.);
#260=CYLINDRICAL_SURFACE('',#306,7.);
#261=CYLINDRICAL_SURFACE('',#312,7.45);
#262=CYLINDRICAL_SURFACE('',#316,10.65);
#263=CYLINDRICAL_SURFACE('',#325,52.5);
#264=CYLINDRICAL_SURFACE('',#330,27.5);
#265=CYLINDRICAL_SURFACE('',#345,7.);
#266=ADVANCED_FACE('',(#208,#209),#258,.F.);
#267=ADVANCED_FACE('',(#210,#211),#259,.F.);
#268=ADVANCED_FACE('',(#212,#213),#260,.F.);
#269=ADVANCED_FACE('',(#214,#215),#27,.T.);
#270=ADVANCED_FACE('',(#216,#217),#261,.F.);
#271=ADVANCED_FACE('',(#218,#219),#28,.T.);
#272=ADVANCED_FACE('',(#220,#221),#262,.T.);
#273=ADVANCED_FACE('',(#222,#223),#23,.T.);
#274=ADVANCED_FACE('',(#224,#225,#226,#227,#228,#229),#29,.T.);
#275=ADVANCED_FACE('',(#230,#231),#263,.T.);
#276=ADVANCED_FACE('',(#232,#233,#234,#235,#236,#237),#30,.T.);
#277=ADVANCED_FACE('',(#238,#239),#264,.T.);
#278=ADVANCED_FACE('',(#240,#241),#31,.T.);
#279=ADVANCED_FACE('',(#242,#243),#24,.F.);
#280=ADVANCED_FACE('',(#244,#245),#20,.F.);
#281=ADVANCED_FACE('',(#246,#247),#32,.T.);
#282=ADVANCED_FACE('',(#248,#249),#21,.F.);
#283=ADVANCED_FACE('',(#250,#251),#25,.T.);
#284=ADVANCED_FACE('',(#252,#253),#22,.F.);
#285=ADVANCED_FACE('',(#254,#255),#26,.T.);
#286=ADVANCED_FACE('',(#256,#257),#265,.F.);
#287=CLOSED_SHELL('',(#266,#267,#268,#269,#270,#271,#272,#273,#274,#275,
#276,#277,#278,#279,#280,#281,#282,#283,#284,#285,#286));
#288=STYLED_ITEM('',(#289),#296);
#289=PRESENTATION_STYLE_ASSIGNMENT((#290));
#290=SURFACE_STYLE_USAGE(.BOTH.,#291);
#291=SURFACE_SIDE_STYLE('',(#292));
#292=SURFACE_STYLE_FILL_AREA(#293);
#293=FILL_AREA_STYLE('',(#294));
#294=FILL_AREA_STYLE_COLOUR('',#295);
#295=COLOUR_RGB('',0.506983280181885,0.531564235687256,0.550000011920929);
#296=MANIFOLD_SOLID_BREP('',#287);
#297=SHAPE_DEFINITION_REPRESENTATION(#518,#298);
#298=SHAPE_REPRESENTATION('\X2\73AF8FDE63A597625BF9710A94A252367BA16CD55170\X0\',
(#299),#513);
#299=AXIS2_PLACEMENT_3D('',#440,#346,#347);
#300=AXIS2_PLACEMENT_3D('',#441,#348,#349);
#301=AXIS2_PLACEMENT_3D('',#442,#350,#351);
#302=AXIS2_PLACEMENT_3D('',#444,#352,#353);
#303=AXIS2_PLACEMENT_3D('',#446,#354,#355);
#304=AXIS2_PLACEMENT_3D('',#447,#356,#357);
#305=AXIS2_PLACEMENT_3D('',#449,#358,#359);
#306=AXIS2_PLACEMENT_3D('',#451,#360,#361);
#307=AXIS2_PLACEMENT_3D('',#452,#362,#363);
#308=AXIS2_PLACEMENT_3D('',#454,#364,#365);
#309=AXIS2_PLACEMENT_3D('',#456,#366,#367);
#310=AXIS2_PLACEMENT_3D('',#457,#368,#369);
#311=AXIS2_PLACEMENT_3D('',#459,#370,#371);
#312=AXIS2_PLACEMENT_3D('',#461,#372,#373);
#313=AXIS2_PLACEMENT_3D('',#462,#374,#375);
#314=AXIS2_PLACEMENT_3D('',#464,#376,#377);
#315=AXIS2_PLACEMENT_3D('',#465,#378,#379);
#316=AXIS2_PLACEMENT_3D('',#467,#380,#381);
#317=AXIS2_PLACEMENT_3D('',#468,#382,#383);
#318=AXIS2_PLACEMENT_3D('',#470,#384,#385);
#319=AXIS2_PLACEMENT_3D('',#472,#386,#387);
#320=AXIS2_PLACEMENT_3D('',#473,#388,#389);
#321=AXIS2_PLACEMENT_3D('',#475,#390,#391);
#322=AXIS2_PLACEMENT_3D('',#476,#392,#393);
#323=AXIS2_PLACEMENT_3D('',#478,#394,#395);
#324=AXIS2_PLACEMENT_3D('',#480,#396,#397);
#325=AXIS2_PLACEMENT_3D('',#482,#398,#399);
#326=AXIS2_PLACEMENT_3D('',#483,#400,#401);
#327=AXIS2_PLACEMENT_3D('',#485,#402,#403);
#328=AXIS2_PLACEMENT_3D('',#486,#404,#405);
#329=AXIS2_PLACEMENT_3D('',#488,#406,#407);
#330=AXIS2_PLACEMENT_3D('',#490,#408,#409);
#331=AXIS2_PLACEMENT_3D('',#491,#410,#411);
#332=AXIS2_PLACEMENT_3D('',#493,#412,#413);
#333=AXIS2_PLACEMENT_3D('',#494,#414,#415);
#334=AXIS2_PLACEMENT_3D('',#496,#416,#417);
#335=AXIS2_PLACEMENT_3D('',#497,#418,#419);
#336=AXIS2_PLACEMENT_3D('',#499,#420,#421);
#337=AXIS2_PLACEMENT_3D('',#500,#422,#423);
#338=AXIS2_PLACEMENT_3D('',#502,#424,#425);
#339=AXIS2_PLACEMENT_3D('',#503,#426,#427);
#340=AXIS2_PLACEMENT_3D('',#505,#428,#429);
#341=AXIS2_PLACEMENT_3D('',#506,#430,#431);
#342=AXIS2_PLACEMENT_3D('',#508,#432,#433);
#343=AXIS2_PLACEMENT_3D('',#509,#434,#435);
#344=AXIS2_PLACEMENT_3D('',#510,#436,#437);
#345=AXIS2_PLACEMENT_3D('',#511,#438,#439);
#346=DIRECTION('',(0.,0.,1.));
#347=DIRECTION('',(1.,0.,0.));
#348=DIRECTION('',(0.,0.,1.));
#349=DIRECTION('',(-1.60812264967664E-16,1.,0.));
#350=DIRECTION('',(0.,0.,-1.));
#351=DIRECTION('',(-1.60812264967664E-16,1.,0.));
#352=DIRECTION('',(0.,0.,-1.));
#353=DIRECTION('',(1.60812264967664E-16,-1.,0.));
#354=DIRECTION('',(0.,0.,1.));
#355=DIRECTION('',(-1.,1.22464679914735E-16,0.));
#356=DIRECTION('',(0.,0.,-1.));
#357=DIRECTION('',(-1.,1.22464679914735E-16,0.));
#358=DIRECTION('',(0.,0.,-1.));
#359=DIRECTION('',(1.,-1.22464679914735E-16,0.));
#360=DIRECTION('',(0.,0.,1.));
#361=DIRECTION('',(-1.83697019872103E-16,-1.,0.));
#362=DIRECTION('',(0.,0.,-1.));
#363=DIRECTION('',(-1.83697019872103E-16,-1.,0.));
#364=DIRECTION('',(0.,0.,-1.));
#365=DIRECTION('',(1.83697019872103E-16,1.,0.));
#366=DIRECTION('',(0.,0.,-1.));
#367=DIRECTION('',(-1.,0.,0.));
#368=DIRECTION('',(0.,0.,1.));
#369=DIRECTION('',(1.,0.,0.));
#370=DIRECTION('',(0.,0.,1.));
#371=DIRECTION('',(1.,0.,0.));
#372=DIRECTION('',(0.,0.,1.));
#373=DIRECTION('',(1.,0.,0.));
#374=DIRECTION('',(0.,0.,1.));
#375=DIRECTION('',(1.,0.,0.));
#376=DIRECTION('',(0.,0.,1.));
#377=DIRECTION('',(1.,0.,0.));
#378=DIRECTION('',(0.,0.,1.));
#379=DIRECTION('',(1.,0.,0.));
#380=DIRECTION('',(0.,0.,1.));
#381=DIRECTION('',(1.,0.,0.));
#382=DIRECTION('',(0.,0.,1.));
#383=DIRECTION('',(1.,0.,0.));
#384=DIRECTION('',(0.,0.,1.));
#385=DIRECTION('',(1.,0.,0.));
#386=DIRECTION('',(0.,0.,-1.));
#387=DIRECTION('',(-1.,0.,0.));
#388=DIRECTION('',(0.,0.,-1.));
#389=DIRECTION('',(-1.,0.,0.));
#390=DIRECTION('',(0.,0.,1.));
#391=DIRECTION('',(1.,0.,0.));
#392=DIRECTION('',(0.,0.,-1.));
#393=DIRECTION('',(1.,0.,0.));
#394=DIRECTION('',(0.,0.,1.));
#395=DIRECTION('',(1.,0.,0.));
#396=DIRECTION('',(0.,0.,1.));
#397=DIRECTION('',(1.,0.,0.));
#398=DIRECTION('',(0.,0.,1.));
#399=DIRECTION('',(1.,0.,0.));
#400=DIRECTION('',(0.,0.,1.));
#401=DIRECTION('',(1.,0.,0.));
#402=DIRECTION('',(0.,0.,-1.));
#403=DIRECTION('',(-1.,0.,0.));
#404=DIRECTION('',(0.,0.,-1.));
#405=DIRECTION('',(-1.,0.,0.));
#406=DIRECTION('',(0.,0.,1.));
#407=DIRECTION('',(1.,0.,0.));
#408=DIRECTION('',(0.,0.,1.));
#409=DIRECTION('',(1.,0.,0.));
#410=DIRECTION('',(0.,0.,1.));
#411=DIRECTION('',(1.,0.,0.));
#412=DIRECTION('',(0.,0.,-1.));
#413=DIRECTION('',(-1.,0.,0.));
#414=DIRECTION('',(0.,0.,1.));
#415=DIRECTION('',(1.,0.,0.));
#416=DIRECTION('',(0.,0.,-1.));
#417=DIRECTION('',(-1.,0.,0.));
#418=DIRECTION('',(0.,0.,1.));
#419=DIRECTION('',(1.,0.,0.));
#420=DIRECTION('',(0.,0.,1.));
#421=DIRECTION('',(1.,0.,0.));
#422=DIRECTION('',(0.,0.,1.));
#423=DIRECTION('',(1.,0.,0.));
#424=DIRECTION('',(0.,0.,-1.));
#425=DIRECTION('',(-1.,0.,0.));
#426=DIRECTION('',(0.,0.,1.));
#427=DIRECTION('',(1.,0.,0.));
#428=DIRECTION('',(0.,0.,1.));
#429=DIRECTION('',(1.,0.,0.));
#430=DIRECTION('',(0.,0.,1.));
#431=DIRECTION('',(1.,0.,0.));
#432=DIRECTION('',(0.,0.,1.));
#433=DIRECTION('',(1.,0.,0.));
#434=DIRECTION('',(0.,0.,1.));
#435=DIRECTION('',(1.,0.,0.));
#436=DIRECTION('',(0.,0.,-1.));
#437=DIRECTION('',(-1.,0.,0.));
#438=DIRECTION('',(0.,0.,1.));
#439=DIRECTION('',(1.,0.,0.));
#440=CARTESIAN_POINT('',(0.,0.,0.));
#441=CARTESIAN_POINT('',(-37.5,-6.03045993628739E-15,-130.669494495592));
#442=CARTESIAN_POINT('',(-37.5,-6.03045993628739E-15,26.5));
#443=CARTESIAN_POINT('',(-37.5,6.99999999999999,26.5));
#444=CARTESIAN_POINT('',(-37.5,-6.03045993628739E-15,6.50000000000001));
#445=CARTESIAN_POINT('',(-37.5,-7.00000000000001,6.50000000000001));
#446=CARTESIAN_POINT('',(-4.59242549680257E-15,-37.5,-130.669494495592));
#447=CARTESIAN_POINT('',(-4.59242549680257E-15,-37.5,26.5));
#448=CARTESIAN_POINT('',(-7.,-37.5,26.5));
#449=CARTESIAN_POINT('',(-4.59242549680257E-15,-37.5,6.50000000000001));
#450=CARTESIAN_POINT('',(7.,-37.5,6.50000000000001));
#451=CARTESIAN_POINT('',(37.5,-6.88863824520386E-15,-130.669494495592));
#452=CARTESIAN_POINT('',(37.5,-6.88863824520386E-15,26.5));
#453=CARTESIAN_POINT('',(37.5,-7.00000000000001,26.5));
#454=CARTESIAN_POINT('',(37.5,-6.88863824520386E-15,6.50000000000001));
#455=CARTESIAN_POINT('',(37.5,6.99999999999999,6.50000000000001));
#456=CARTESIAN_POINT('',(13.,0.,-7.73520355757592E-16));
#457=CARTESIAN_POINT('',(0.,0.,0.));
#458=CARTESIAN_POINT('',(7.45,0.,0.));
#459=CARTESIAN_POINT('',(0.,0.,0.));
#460=CARTESIAN_POINT('',(13.,0.,0.));
#461=CARTESIAN_POINT('',(0.,0.,54.));
#462=CARTESIAN_POINT('',(0.,0.,51.5));
#463=CARTESIAN_POINT('',(7.45,0.,51.5));
#464=CARTESIAN_POINT('',(7.45,0.,51.5));
#465=CARTESIAN_POINT('',(0.,0.,51.5));
#466=CARTESIAN_POINT('',(8.65,0.,51.5));
#467=CARTESIAN_POINT('',(0.,0.,54.));
#468=CARTESIAN_POINT('',(0.,0.,49.5));
#469=CARTESIAN_POINT('',(10.65,0.,49.5));
#470=CARTESIAN_POINT('',(0.,0.,45.5));
#471=CARTESIAN_POINT('',(10.65,0.,45.5));
#472=CARTESIAN_POINT('',(0.,0.,45.5));
#473=CARTESIAN_POINT('',(0.,0.,29.2320942770259));
#474=CARTESIAN_POINT('',(-16.0869053337308,0.,29.2320942770259));
#475=CARTESIAN_POINT('',(17.,0.,26.5));
#476=CARTESIAN_POINT('',(0.,37.5,26.5));
#477=CARTESIAN_POINT('',(7.,37.5,26.5));
#478=CARTESIAN_POINT('',(0.,0.,26.5));
#479=CARTESIAN_POINT('',(19.8806389930234,0.,26.5));
#480=CARTESIAN_POINT('',(0.,0.,26.5));
#481=CARTESIAN_POINT('',(52.5,0.,26.5));
#482=CARTESIAN_POINT('',(0.,0.,54.));
#483=CARTESIAN_POINT('',(0.,0.,6.50000000000001));
#484=CARTESIAN_POINT('',(52.5,0.,6.50000000000001));
#485=CARTESIAN_POINT('',(52.5,0.,6.5));
#486=CARTESIAN_POINT('',(0.,37.5,6.50000000000001));
#487=CARTESIAN_POINT('',(-7.,37.5,6.50000000000001));
#488=CARTESIAN_POINT('',(0.,0.,6.5));
#489=CARTESIAN_POINT('',(27.5,0.,6.5));
#490=CARTESIAN_POINT('',(0.,0.,54.));
#491=CARTESIAN_POINT('',(0.,0.,0.));
#492=CARTESIAN_POINT('',(27.5,0.,0.));
#493=CARTESIAN_POINT('',(27.5,0.,8.67361737988404E-16));
#494=CARTESIAN_POINT('',(0.,0.,0.));
#495=CARTESIAN_POINT('',(22.,0.,0.));
#496=CARTESIAN_POINT('',(0.,0.,0.));
#497=CARTESIAN_POINT('',(0.,0.,6.01258490279142));
#498=CARTESIAN_POINT('',(19.447809128443,0.,6.01258490279142));
#499=CARTESIAN_POINT('',(0.,0.,5.7));
#500=CARTESIAN_POINT('',(0.,0.,6.5));
#501=CARTESIAN_POINT('',(18.711405245681,0.,6.5));
#502=CARTESIAN_POINT('',(18.711405245681,0.,6.5));
#503=CARTESIAN_POINT('',(0.,0.,6.5));
#504=CARTESIAN_POINT('',(16.288594754319,0.,6.5));
#505=CARTESIAN_POINT('',(0.,0.,5.7));
#506=CARTESIAN_POINT('',(0.,0.,6.01258490279142));
#507=CARTESIAN_POINT('',(15.552190871557,0.,6.01258490279142));
#508=CARTESIAN_POINT('',(0.,0.,6.01258490279142));
#509=CARTESIAN_POINT('',(0.,0.,30.5));
#510=CARTESIAN_POINT('',(0.,0.,51.5));
#511=CARTESIAN_POINT('',(0.,37.5,-130.669494495592));
#512=MECHANICAL_DESIGN_GEOMETRIC_PRESENTATION_REPRESENTATION('',(#288),
#513);
#513=(
GEOMETRIC_REPRESENTATION_CONTEXT(3)
GLOBAL_UNCERTAINTY_ASSIGNED_CONTEXT((#514))
GLOBAL_UNIT_ASSIGNED_CONTEXT((#517,#516,#515))
REPRESENTATION_CONTEXT('\X2\73AF8FDE63A597625BF9710A94A252367BA16CD55170\X0\',
'TOP_LEVEL_ASSEMBLY_PART')
);
#514=UNCERTAINTY_MEASURE_WITH_UNIT(LENGTH_MEASURE(0.005),#517,
'DISTANCE_ACCURACY_VALUE','Maximum Tolerance applied to model');
#515=(
NAMED_UNIT(*)
SI_UNIT($,.STERADIAN.)
SOLID_ANGLE_UNIT()
);
#516=(
NAMED_UNIT(*)
PLANE_ANGLE_UNIT()
SI_UNIT($,.RADIAN.)
);
#517=(
LENGTH_UNIT()
NAMED_UNIT(*)
SI_UNIT(.MILLI.,.METRE.)
);
#518=PRODUCT_DEFINITION_SHAPE('','',#519);
#519=PRODUCT_DEFINITION('','',#521,#520);
#520=PRODUCT_DEFINITION_CONTEXT('',#527,'design');
#521=PRODUCT_DEFINITION_FORMATION_WITH_SPECIFIED_SOURCE('','',#523,
 .NOT_KNOWN.);
#522=PRODUCT_RELATED_PRODUCT_CATEGORY('','',(#523));
#523=PRODUCT('\X2\73AF8FDE63A597625BF9710A94A252367BA16CD55170\X0\',
'\X2\73AF8FDE63A597625BF9710A94A252367BA16CD55170\X0\',
'\X2\73AF8FDE63A597625BF9710A94A252367BA16CD55170\X0\',(#525));
#524=PRODUCT_CATEGORY('','');
#525=PRODUCT_CONTEXT('',#527,'mechanical');
#526=APPLICATION_PROTOCOL_DEFINITION('international standard',
'automotive_design',2010,#527);
#527=APPLICATION_CONTEXT(
'core data for automotive mechanical design processes');
ENDSEC;
END-ISO-10303-21;
