ISO-10303-21;
HEADER;
/* Generated by software containing HOOPS Exchange Step
 * from HOOPS Exchange, Inc. (www.tiangong.cloud) 
 */

FILE_DESCRIPTION(
/* description */ ('Unknown'),
/* implementation_level */ '2;1');

FILE_NAME(
/* name */ '\X2\7A819762\X0\(RF)\X2\65744F5394A252367BA16CD55170\X0\',
/* time_stamp */ '2026-01-12T10:05:34+08:00',
/* author */ ('Unknown'),
/* organization */ ('Unknown'),
/* preprocessor_version */ 'ST-DEVELOPER v19.4',
/* originating_system */ 'TianGong',
/* authorisation */ 'Unknown');

FILE_SCHEMA (('AUTOMOTIVE_DESIGN {1 0 10303 214 3 1 1}'));
ENDSEC;

DATA;
#10=PROPERTY_DEFINITION_REPRESENTATION(#14,#12);
#11=PROPERTY_DEFINITION_REPRESENTATION(#15,#13);
#12=REPRESENTATION('',(#16),#438);
#13=REPRESENTATION('',(#17),#438);
#14=PROPERTY_DEFINITION('pmi validation property','',#443);
#15=PROPERTY_DEFINITION('pmi validation property','',#443);
#16=VALUE_REPRESENTATION_ITEM('number of annotations',COUNT_MEASURE(0.));
#17=VALUE_REPRESENTATION_ITEM('number of views',COUNT_MEASURE(0.));
#18=SHAPE_REPRESENTATION_RELATIONSHIP('','',#295,#19);
#19=ADVANCED_BREP_SHAPE_REPRESENTATION('',(#293),#438);
#20=TOROIDAL_SURFACE('',#324,14.,4.);
#21=CONICAL_SURFACE('',#314,17.5,0.523598775598299);
#22=PLANE('',#309);
#23=PLANE('',#311);
#24=PLANE('',#316);
#25=PLANE('',#321);
#26=ORIENTED_EDGE('',*,*,#60,.T.);
#27=ORIENTED_EDGE('',*,*,#61,.T.);
#28=ORIENTED_EDGE('',*,*,#62,.T.);
#29=ORIENTED_EDGE('',*,*,#63,.T.);
#30=ORIENTED_EDGE('',*,*,#64,.T.);
#31=ORIENTED_EDGE('',*,*,#65,.T.);
#32=ORIENTED_EDGE('',*,*,#66,.T.);
#33=ORIENTED_EDGE('',*,*,#67,.F.);
#34=ORIENTED_EDGE('',*,*,#68,.T.);
#35=ORIENTED_EDGE('',*,*,#66,.F.);
#36=ORIENTED_EDGE('',*,*,#69,.T.);
#37=ORIENTED_EDGE('',*,*,#70,.T.);
#38=ORIENTED_EDGE('',*,*,#71,.T.);
#39=ORIENTED_EDGE('',*,*,#70,.F.);
#40=ORIENTED_EDGE('',*,*,#61,.F.);
#41=ORIENTED_EDGE('',*,*,#63,.F.);
#42=ORIENTED_EDGE('',*,*,#65,.F.);
#43=ORIENTED_EDGE('',*,*,#72,.F.);
#44=ORIENTED_EDGE('',*,*,#73,.T.);
#45=ORIENTED_EDGE('',*,*,#71,.F.);
#46=ORIENTED_EDGE('',*,*,#74,.T.);
#47=ORIENTED_EDGE('',*,*,#73,.F.);
#48=ORIENTED_EDGE('',*,*,#60,.F.);
#49=ORIENTED_EDGE('',*,*,#62,.F.);
#50=ORIENTED_EDGE('',*,*,#64,.F.);
#51=ORIENTED_EDGE('',*,*,#75,.F.);
#52=ORIENTED_EDGE('',*,*,#76,.T.);
#53=ORIENTED_EDGE('',*,*,#74,.F.);
#54=ORIENTED_EDGE('',*,*,#67,.T.);
#55=ORIENTED_EDGE('',*,*,#76,.F.);
#56=ORIENTED_EDGE('',*,*,#75,.T.);
#57=ORIENTED_EDGE('',*,*,#72,.T.);
#58=ORIENTED_EDGE('',*,*,#69,.F.);
#59=ORIENTED_EDGE('',*,*,#68,.F.);
#60=EDGE_CURVE('',#77,#77,#94,.T.);
#61=EDGE_CURVE('',#78,#78,#95,.T.);
#62=EDGE_CURVE('',#79,#79,#96,.T.);
#63=EDGE_CURVE('',#80,#80,#97,.T.);
#64=EDGE_CURVE('',#81,#81,#98,.T.);
#65=EDGE_CURVE('',#82,#82,#99,.T.);
#66=EDGE_CURVE('',#83,#83,#100,.T.);
#67=EDGE_CURVE('',#84,#84,#101,.T.);
#68=EDGE_CURVE('',#85,#85,#102,.F.);
#69=EDGE_CURVE('',#86,#86,#103,.T.);
#70=EDGE_CURVE('',#87,#87,#104,.T.);
#71=EDGE_CURVE('',#88,#88,#105,.T.);
#72=EDGE_CURVE('',#89,#89,#106,.T.);
#73=EDGE_CURVE('',#90,#90,#107,.T.);
#74=EDGE_CURVE('',#91,#91,#108,.T.);
#75=EDGE_CURVE('',#92,#92,#109,.T.);
#76=EDGE_CURVE('',#93,#93,#110,.T.);
#77=VERTEX_POINT('',#392);
#78=VERTEX_POINT('',#394);
#79=VERTEX_POINT('',#397);
#80=VERTEX_POINT('',#399);
#81=VERTEX_POINT('',#402);
#82=VERTEX_POINT('',#404);
#83=VERTEX_POINT('',#407);
#84=VERTEX_POINT('',#409);
#85=VERTEX_POINT('',#412);
#86=VERTEX_POINT('',#415);
#87=VERTEX_POINT('',#417);
#88=VERTEX_POINT('',#420);
#89=VERTEX_POINT('',#423);
#90=VERTEX_POINT('',#425);
#91=VERTEX_POINT('',#428);
#92=VERTEX_POINT('',#431);
#93=VERTEX_POINT('',#433);
#94=CIRCLE('',#298,5.5);
#95=CIRCLE('',#299,5.5);
#96=CIRCLE('',#301,5.5);
#97=CIRCLE('',#302,5.5);
#98=CIRCLE('',#304,5.5);
#99=CIRCLE('',#305,5.5);
#100=CIRCLE('',#307,10.);
#101=CIRCLE('',#308,10.);
#102=CIRCLE('',#310,5.);
#103=CIRCLE('',#312,5.);
#104=CIRCLE('',#313,17.5);
#105=CIRCLE('',#315,18.6547005383792);
#106=CIRCLE('',#317,5.5);
#107=CIRCLE('',#318,37.5);
#108=CIRCLE('',#320,37.5);
#109=CIRCLE('',#322,5.5);
#110=CIRCLE('',#323,14.);
#111=EDGE_LOOP('',(#26));
#112=EDGE_LOOP('',(#27));
#113=EDGE_LOOP('',(#28));
#114=EDGE_LOOP('',(#29));
#115=EDGE_LOOP('',(#30));
#116=EDGE_LOOP('',(#31));
#117=EDGE_LOOP('',(#32));
#118=EDGE_LOOP('',(#33));
#119=EDGE_LOOP('',(#34));
#120=EDGE_LOOP('',(#35));
#121=EDGE_LOOP('',(#36));
#122=EDGE_LOOP('',(#37));
#123=EDGE_LOOP('',(#38));
#124=EDGE_LOOP('',(#39));
#125=EDGE_LOOP('',(#40));
#126=EDGE_LOOP('',(#41));
#127=EDGE_LOOP('',(#42));
#128=EDGE_LOOP('',(#43));
#129=EDGE_LOOP('',(#44));
#130=EDGE_LOOP('',(#45));
#131=EDGE_LOOP('',(#46));
#132=EDGE_LOOP('',(#47));
#133=EDGE_LOOP('',(#48));
#134=EDGE_LOOP('',(#49));
#135=EDGE_LOOP('',(#50));
#136=EDGE_LOOP('',(#51));
#137=EDGE_LOOP('',(#52));
#138=EDGE_LOOP('',(#53));
#139=EDGE_LOOP('',(#54));
#140=EDGE_LOOP('',(#55));
#141=EDGE_LOOP('',(#56));
#142=EDGE_LOOP('',(#57));
#143=EDGE_LOOP('',(#58));
#144=EDGE_LOOP('',(#59));
#145=FACE_BOUND('',#111,.T.);
#146=FACE_BOUND('',#112,.T.);
#147=FACE_BOUND('',#113,.T.);
#148=FACE_BOUND('',#114,.T.);
#149=FACE_BOUND('',#115,.T.);
#150=FACE_BOUND('',#116,.T.);
#151=FACE_BOUND('',#117,.T.);
#152=FACE_BOUND('',#118,.T.);
#153=FACE_BOUND('',#119,.T.);
#154=FACE_BOUND('',#120,.T.);
#155=FACE_BOUND('',#121,.T.);
#156=FACE_BOUND('',#122,.T.);
#157=FACE_BOUND('',#123,.T.);
#158=FACE_BOUND('',#124,.T.);
#159=FACE_BOUND('',#125,.T.);
#160=FACE_BOUND('',#126,.T.);
#161=FACE_BOUND('',#127,.T.);
#162=FACE_BOUND('',#128,.T.);
#163=FACE_BOUND('',#129,.T.);
#164=FACE_BOUND('',#130,.T.);
#165=FACE_BOUND('',#131,.T.);
#166=FACE_BOUND('',#132,.T.);
#167=FACE_BOUND('',#133,.T.);
#168=FACE_BOUND('',#134,.T.);
#169=FACE_BOUND('',#135,.T.);
#170=FACE_BOUND('',#136,.T.);
#171=FACE_BOUND('',#137,.T.);
#172=FACE_BOUND('',#138,.T.);
#173=FACE_BOUND('',#139,.T.);
#174=FACE_BOUND('',#140,.T.);
#175=FACE_BOUND('',#141,.T.);
#176=FACE_BOUND('',#142,.T.);
#177=FACE_BOUND('',#143,.T.);
#178=FACE_BOUND('',#144,.T.);
#179=CYLINDRICAL_SURFACE('',#297,5.5);
#180=CYLINDRICAL_SURFACE('',#300,5.5);
#181=CYLINDRICAL_SURFACE('',#303,5.5);
#182=CYLINDRICAL_SURFACE('',#306,10.);
#183=CYLINDRICAL_SURFACE('',#319,37.5);
#184=CYLINDRICAL_SURFACE('',#325,5.5);
#185=CYLINDRICAL_SURFACE('',#326,5.);
#186=STYLED_ITEM('',(#199),#279);
#187=STYLED_ITEM('',(#200),#280);
#188=STYLED_ITEM('',(#201),#281);
#189=STYLED_ITEM('',(#202),#282);
#190=STYLED_ITEM('',(#203),#283);
#191=STYLED_ITEM('',(#204),#284);
#192=STYLED_ITEM('',(#205),#285);
#193=STYLED_ITEM('',(#206),#286);
#194=STYLED_ITEM('',(#207),#287);
#195=STYLED_ITEM('',(#208),#288);
#196=STYLED_ITEM('',(#209),#289);
#197=STYLED_ITEM('',(#210),#290);
#198=STYLED_ITEM('',(#211),#291);
#199=PRESENTATION_STYLE_ASSIGNMENT((#212));
#200=PRESENTATION_STYLE_ASSIGNMENT((#213));
#201=PRESENTATION_STYLE_ASSIGNMENT((#214));
#202=PRESENTATION_STYLE_ASSIGNMENT((#215));
#203=PRESENTATION_STYLE_ASSIGNMENT((#216));
#204=PRESENTATION_STYLE_ASSIGNMENT((#217));
#205=PRESENTATION_STYLE_ASSIGNMENT((#218));
#206=PRESENTATION_STYLE_ASSIGNMENT((#219));
#207=PRESENTATION_STYLE_ASSIGNMENT((#220));
#208=PRESENTATION_STYLE_ASSIGNMENT((#221));
#209=PRESENTATION_STYLE_ASSIGNMENT((#222));
#210=PRESENTATION_STYLE_ASSIGNMENT((#223));
#211=PRESENTATION_STYLE_ASSIGNMENT((#224));
#212=SURFACE_STYLE_USAGE(.BOTH.,#225);
#213=SURFACE_STYLE_USAGE(.BOTH.,#226);
#214=SURFACE_STYLE_USAGE(.BOTH.,#227);
#215=SURFACE_STYLE_USAGE(.BOTH.,#228);
#216=SURFACE_STYLE_USAGE(.BOTH.,#229);
#217=SURFACE_STYLE_USAGE(.BOTH.,#230);
#218=SURFACE_STYLE_USAGE(.BOTH.,#231);
#219=SURFACE_STYLE_USAGE(.BOTH.,#232);
#220=SURFACE_STYLE_USAGE(.BOTH.,#233);
#221=SURFACE_STYLE_USAGE(.BOTH.,#234);
#222=SURFACE_STYLE_USAGE(.BOTH.,#235);
#223=SURFACE_STYLE_USAGE(.BOTH.,#236);
#224=SURFACE_STYLE_USAGE(.BOTH.,#237);
#225=SURFACE_SIDE_STYLE('',(#238));
#226=SURFACE_SIDE_STYLE('',(#239));
#227=SURFACE_SIDE_STYLE('',(#240));
#228=SURFACE_SIDE_STYLE('',(#241));
#229=SURFACE_SIDE_STYLE('',(#242));
#230=SURFACE_SIDE_STYLE('',(#243));
#231=SURFACE_SIDE_STYLE('',(#244));
#232=SURFACE_SIDE_STYLE('',(#245));
#233=SURFACE_SIDE_STYLE('',(#246));
#234=SURFACE_SIDE_STYLE('',(#247));
#235=SURFACE_SIDE_STYLE('',(#248));
#236=SURFACE_SIDE_STYLE('',(#249));
#237=SURFACE_SIDE_STYLE('',(#250));
#238=SURFACE_STYLE_FILL_AREA(#251);
#239=SURFACE_STYLE_FILL_AREA(#252);
#240=SURFACE_STYLE_FILL_AREA(#253);
#241=SURFACE_STYLE_FILL_AREA(#254);
#242=SURFACE_STYLE_FILL_AREA(#255);
#243=SURFACE_STYLE_FILL_AREA(#256);
#244=SURFACE_STYLE_FILL_AREA(#257);
#245=SURFACE_STYLE_FILL_AREA(#258);
#246=SURFACE_STYLE_FILL_AREA(#259);
#247=SURFACE_STYLE_FILL_AREA(#260);
#248=SURFACE_STYLE_FILL_AREA(#261);
#249=SURFACE_STYLE_FILL_AREA(#262);
#250=SURFACE_STYLE_FILL_AREA(#263);
#251=FILL_AREA_STYLE('',(#264));
#252=FILL_AREA_STYLE('',(#265));
#253=FILL_AREA_STYLE('',(#266));
#254=FILL_AREA_STYLE('',(#267));
#255=FILL_AREA_STYLE('',(#268));
#256=FILL_AREA_STYLE('',(#269));
#257=FILL_AREA_STYLE('',(#270));
#258=FILL_AREA_STYLE('',(#271));
#259=FILL_AREA_STYLE('',(#272));
#260=FILL_AREA_STYLE('',(#273));
#261=FILL_AREA_STYLE('',(#274));
#262=FILL_AREA_STYLE('',(#275));
#263=FILL_AREA_STYLE('',(#276));
#264=FILL_AREA_STYLE_COLOUR('',#277);
#265=FILL_AREA_STYLE_COLOUR('',#277);
#266=FILL_AREA_STYLE_COLOUR('',#277);
#267=FILL_AREA_STYLE_COLOUR('',#278);
#268=FILL_AREA_STYLE_COLOUR('',#278);
#269=FILL_AREA_STYLE_COLOUR('',#278);
#270=FILL_AREA_STYLE_COLOUR('',#278);
#271=FILL_AREA_STYLE_COLOUR('',#278);
#272=FILL_AREA_STYLE_COLOUR('',#278);
#273=FILL_AREA_STYLE_COLOUR('',#278);
#274=FILL_AREA_STYLE_COLOUR('',#278);
#275=FILL_AREA_STYLE_COLOUR('',#277);
#276=FILL_AREA_STYLE_COLOUR('',#278);
#277=COLOUR_RGB('',0.1875,0.75,0.581249892711639);
#278=COLOUR_RGB('',0.506983280181885,0.531564235687256,0.550000011920929);
#279=ADVANCED_FACE('',(#145,#146),#179,.F.);
#280=ADVANCED_FACE('',(#147,#148),#180,.F.);
#281=ADVANCED_FACE('',(#149,#150),#181,.F.);
#282=ADVANCED_FACE('',(#151,#152),#182,.T.);
#283=ADVANCED_FACE('',(#153,#154),#22,.T.);
#284=ADVANCED_FACE('',(#155,#156),#23,.T.);
#285=ADVANCED_FACE('',(#157,#158),#21,.T.);
#286=ADVANCED_FACE('',(#159,#160,#161,#162,#163,#164),#24,.T.);
#287=ADVANCED_FACE('',(#165,#166),#183,.T.);
#288=ADVANCED_FACE('',(#167,#168,#169,#170,#171,#172),#25,.T.);
#289=ADVANCED_FACE('',(#173,#174),#20,.F.);
#290=ADVANCED_FACE('',(#175,#176),#184,.F.);
#291=ADVANCED_FACE('',(#177,#178),#185,.F.);
#292=CLOSED_SHELL('',(#279,#280,#281,#282,#283,#284,#285,#286,#287,#288,
#289,#290,#291));
#293=MANIFOLD_SOLID_BREP('',#292);
#294=SHAPE_DEFINITION_REPRESENTATION(#443,#295);
#295=SHAPE_REPRESENTATION('\X2\7A819762\X0\(RF)\X2\65744F5394A252367BA16CD55170\X0\',
(#296),#438);
#296=AXIS2_PLACEMENT_3D('',#389,#327,#328);
#297=AXIS2_PLACEMENT_3D('',#390,#329,#330);
#298=AXIS2_PLACEMENT_3D('',#391,#331,#332);
#299=AXIS2_PLACEMENT_3D('',#393,#333,#334);
#300=AXIS2_PLACEMENT_3D('',#395,#335,#336);
#301=AXIS2_PLACEMENT_3D('',#396,#337,#338);
#302=AXIS2_PLACEMENT_3D('',#398,#339,#340);
#303=AXIS2_PLACEMENT_3D('',#400,#341,#342);
#304=AXIS2_PLACEMENT_3D('',#401,#343,#344);
#305=AXIS2_PLACEMENT_3D('',#403,#345,#346);
#306=AXIS2_PLACEMENT_3D('',#405,#347,#348);
#307=AXIS2_PLACEMENT_3D('',#406,#349,#350);
#308=AXIS2_PLACEMENT_3D('',#408,#351,#352);
#309=AXIS2_PLACEMENT_3D('',#410,#353,#354);
#310=AXIS2_PLACEMENT_3D('',#411,#355,#356);
#311=AXIS2_PLACEMENT_3D('',#413,#357,#358);
#312=AXIS2_PLACEMENT_3D('',#414,#359,#360);
#313=AXIS2_PLACEMENT_3D('',#416,#361,#362);
#314=AXIS2_PLACEMENT_3D('',#418,#363,#364);
#315=AXIS2_PLACEMENT_3D('',#419,#365,#366);
#316=AXIS2_PLACEMENT_3D('',#421,#367,#368);
#317=AXIS2_PLACEMENT_3D('',#422,#369,#370);
#318=AXIS2_PLACEMENT_3D('',#424,#371,#372);
#319=AXIS2_PLACEMENT_3D('',#426,#373,#374);
#320=AXIS2_PLACEMENT_3D('',#427,#375,#376);
#321=AXIS2_PLACEMENT_3D('',#429,#377,#378);
#322=AXIS2_PLACEMENT_3D('',#430,#379,#380);
#323=AXIS2_PLACEMENT_3D('',#432,#381,#382);
#324=AXIS2_PLACEMENT_3D('',#434,#383,#384);
#325=AXIS2_PLACEMENT_3D('',#435,#385,#386);
#326=AXIS2_PLACEMENT_3D('',#436,#387,#388);
#327=DIRECTION('',(0.,0.,1.));
#328=DIRECTION('',(1.,0.,0.));
#329=DIRECTION('',(0.,0.,1.));
#330=DIRECTION('',(2.07057777052232E-9,1.,0.));
#331=DIRECTION('',(0.,0.,1.));
#332=DIRECTION('',(2.07057777052232E-9,1.,0.));
#333=DIRECTION('',(0.,0.,-1.));
#334=DIRECTION('',(-2.07057777052232E-9,-1.,0.));
#335=DIRECTION('',(0.,0.,1.));
#336=DIRECTION('',(-1.,-1.38038348563449E-9,0.));
#337=DIRECTION('',(0.,0.,1.));
#338=DIRECTION('',(-1.,-1.38038348563449E-9,0.));
#339=DIRECTION('',(0.,0.,-1.));
#340=DIRECTION('',(1.,1.38038348563449E-9,0.));
#341=DIRECTION('',(-1.41357987718737E-15,-1.41357987621174E-15,1.));
#342=DIRECTION('',(-6.90188955817307E-10,-1.,-1.41357987718737E-15));
#343=DIRECTION('',(-1.41357987718737E-15,-1.41357987621174E-15,1.));
#344=DIRECTION('',(-6.90188955817307E-10,-1.,-1.41357987718737E-15));
#345=DIRECTION('',(1.41357987718737E-15,1.41357987621174E-15,-1.));
#346=DIRECTION('',(6.90188955817307E-10,1.,1.41357987718737E-15));
#347=DIRECTION('',(0.,0.,-1.));
#348=DIRECTION('',(-1.,0.,0.));
#349=DIRECTION('',(0.,0.,-1.));
#350=DIRECTION('',(-1.,0.,0.));
#351=DIRECTION('',(0.,0.,-1.));
#352=DIRECTION('',(-1.,0.,0.));
#353=DIRECTION('',(0.,0.,1.));
#354=DIRECTION('',(1.,0.,0.));
#355=DIRECTION('',(0.,0.,1.));
#356=DIRECTION('',(1.,0.,0.));
#357=DIRECTION('',(0.,0.,-1.));
#358=DIRECTION('',(-1.,0.,0.));
#359=DIRECTION('',(0.,0.,1.));
#360=DIRECTION('',(1.,0.,0.));
#361=DIRECTION('',(0.,0.,-1.));
#362=DIRECTION('',(-1.,0.,0.));
#363=DIRECTION('',(0.,0.,1.));
#364=DIRECTION('',(1.,0.,0.));
#365=DIRECTION('',(0.,0.,-1.));
#366=DIRECTION('',(-1.,0.,0.));
#367=DIRECTION('',(0.,0.,-1.));
#368=DIRECTION('',(-1.,0.,0.));
#369=DIRECTION('',(0.,0.,-1.));
#370=DIRECTION('',(-1.,0.,0.));
#371=DIRECTION('',(0.,0.,-1.));
#372=DIRECTION('',(-1.,0.,0.));
#373=DIRECTION('',(0.,0.,-1.));
#374=DIRECTION('',(-1.,0.,0.));
#375=DIRECTION('',(0.,0.,-1.));
#376=DIRECTION('',(-1.,0.,0.));
#377=DIRECTION('',(0.,0.,1.));
#378=DIRECTION('',(1.,0.,0.));
#379=DIRECTION('',(0.,0.,1.));
#380=DIRECTION('',(1.,0.,0.));
#381=DIRECTION('',(0.,0.,-1.));
#382=DIRECTION('',(-1.,0.,0.));
#383=DIRECTION('',(0.,0.,-1.));
#384=DIRECTION('',(-1.,0.,0.));
#385=DIRECTION('',(0.,0.,1.));
#386=DIRECTION('',(1.,0.,0.));
#387=DIRECTION('',(0.,0.,-1.));
#388=DIRECTION('',(-1.,0.,0.));
#389=CARTESIAN_POINT('',(0.,0.,0.));
#390=CARTESIAN_POINT('',(-5.1764444263058E-8,-25.,-140.807067899361));
#391=CARTESIAN_POINT('',(-5.1764444263058E-8,-25.,12.));
#392=CARTESIAN_POINT('',(-4.03762665251852E-8,-19.5,12.));
#393=CARTESIAN_POINT('',(-5.1764444263058E-8,-25.,2.));
#394=CARTESIAN_POINT('',(-6.31526220009307E-8,-30.5,2.));
#395=CARTESIAN_POINT('',(25.,3.45095871408623E-8,-140.807067899361));
#396=CARTESIAN_POINT('',(25.,3.45095871408623E-8,12.));
#397=CARTESIAN_POINT('',(19.5,2.69174779698726E-8,12.));
#398=CARTESIAN_POINT('',(25.,3.45095871408623E-8,2.));
#399=CARTESIAN_POINT('',(30.5,4.2101696311852E-8,2.));
#400=CARTESIAN_POINT('',(1.72549229374704E-8,25.0000000000002,-140.807067899361));
#401=CARTESIAN_POINT('',(1.72547069324742E-8,25.,12.));
#402=CARTESIAN_POINT('',(1.3458667675479E-8,19.5,12.));
#403=CARTESIAN_POINT('',(1.72547210682729E-8,25.,2.00000000000004));
#404=CARTESIAN_POINT('',(2.10507603252681E-8,30.5,2.00000000000004));
#405=CARTESIAN_POINT('',(0.,0.,0.));
#406=CARTESIAN_POINT('',(0.,0.,110.));
#407=CARTESIAN_POINT('',(-10.,0.,110.));
#408=CARTESIAN_POINT('',(0.,0.,16.));
#409=CARTESIAN_POINT('',(-10.,0.,16.));
#410=CARTESIAN_POINT('',(-10.,0.,110.));
#411=CARTESIAN_POINT('',(0.,0.,110.));
#412=CARTESIAN_POINT('',(5.,0.,110.));
#413=CARTESIAN_POINT('',(0.,0.,0.));
#414=CARTESIAN_POINT('',(0.,0.,0.));
#415=CARTESIAN_POINT('',(5.,0.,0.));
#416=CARTESIAN_POINT('',(0.,0.,0.));
#417=CARTESIAN_POINT('',(-17.5,0.,0.));
#418=CARTESIAN_POINT('',(0.,0.,0.));
#419=CARTESIAN_POINT('',(0.,0.,2.));
#420=CARTESIAN_POINT('',(-18.6547005383792,0.,2.));
#421=CARTESIAN_POINT('',(-18.6547005383792,0.,2.));
#422=CARTESIAN_POINT('',(-25.,0.,2.));
#423=CARTESIAN_POINT('',(-30.5,0.,2.));
#424=CARTESIAN_POINT('',(0.,0.,2.));
#425=CARTESIAN_POINT('',(-37.5,0.,2.));
#426=CARTESIAN_POINT('',(0.,0.,0.));
#427=CARTESIAN_POINT('',(0.,0.,12.));
#428=CARTESIAN_POINT('',(-37.5,0.,12.));
#429=CARTESIAN_POINT('',(-37.5,0.,12.));
#430=CARTESIAN_POINT('',(-25.,0.,12.));
#431=CARTESIAN_POINT('',(-19.5,0.,12.));
#432=CARTESIAN_POINT('',(0.,0.,12.));
#433=CARTESIAN_POINT('',(-14.,0.,12.));
#434=CARTESIAN_POINT('',(0.,0.,16.));
#435=CARTESIAN_POINT('',(-25.,0.,-140.807067899361));
#436=CARTESIAN_POINT('',(0.,0.,152.807067899361));
#437=MECHANICAL_DESIGN_GEOMETRIC_PRESENTATION_REPRESENTATION('',(#186,#187,
#188,#189,#190,#191,#192,#193,#194,#195,#196,#197,#198),#438);
#438=(
GEOMETRIC_REPRESENTATION_CONTEXT(3)
GLOBAL_UNCERTAINTY_ASSIGNED_CONTEXT((#439))
GLOBAL_UNIT_ASSIGNED_CONTEXT((#442,#441,#440))
REPRESENTATION_CONTEXT('\X2\7A819762\X0\(RF)\X2\65744F5394A252367BA16CD55170\X0\',
'TOP_LEVEL_ASSEMBLY_PART')
);
#439=UNCERTAINTY_MEASURE_WITH_UNIT(LENGTH_MEASURE(0.005),#442,
'DISTANCE_ACCURACY_VALUE','Maximum Tolerance applied to model');
#440=(
NAMED_UNIT(*)
SI_UNIT($,.STERADIAN.)
SOLID_ANGLE_UNIT()
);
#441=(
NAMED_UNIT(*)
PLANE_ANGLE_UNIT()
SI_UNIT($,.RADIAN.)
);
#442=(
LENGTH_UNIT()
NAMED_UNIT(*)
SI_UNIT(.MILLI.,.METRE.)
);
#443=PRODUCT_DEFINITION_SHAPE('','',#444);
#444=PRODUCT_DEFINITION('','',#446,#445);
#445=PRODUCT_DEFINITION_CONTEXT('',#452,'design');
#446=PRODUCT_DEFINITION_FORMATION_WITH_SPECIFIED_SOURCE('','',#448,
 .NOT_KNOWN.);
#447=PRODUCT_RELATED_PRODUCT_CATEGORY('','',(#448));
#448=PRODUCT('\X2\7A819762\X0\(RF)\X2\65744F5394A252367BA16CD55170\X0\',
'\X2\7A819762\X0\(RF)\X2\65744F5394A252367BA16CD55170\X0\',
'\X2\7A819762\X0\(RF)\X2\65744F5394A252367BA16CD55170\X0\',(#450));
#449=PRODUCT_CATEGORY('','');
#450=PRODUCT_CONTEXT('',#452,'mechanical');
#451=APPLICATION_PROTOCOL_DEFINITION('international standard',
'automotive_design',2010,#452);
#452=APPLICATION_CONTEXT(
'core data for automotive mechanical design processes');
ENDSEC;
END-ISO-10303-21;
