ISO-10303-21;
HEADER;
/* Generated by software containing HOOPS Exchange Step
 * from HOOPS Exchange, Inc. (www.tiangong.cloud) 
 */

FILE_DESCRIPTION(
/* description */ ('Unknown'),
/* implementation_level */ '2;1');

FILE_NAME(
/* name */ '\X2\73AF8FDE63A597625E269888627F63D2710A94A252367BA16CD55170\X0\',

/* time_stamp */ '2025-10-14T20:06:27+08:00',
/* author */ ('Unknown'),
/* organization */ ('Unknown'),
/* preprocessor_version */ 'ST-DEVELOPER v19.4',
/* originating_system */ 'TianGong',
/* authorisation */ 'Unknown');

FILE_SCHEMA (('AUTOMOTIVE_DESIGN {1 0 10303 214 3 1 1}'));
ENDSEC;

DATA;
#10=PROPERTY_DEFINITION_REPRESENTATION(#14,#12);
#11=PROPERTY_DEFINITION_REPRESENTATION(#15,#13);
#12=REPRESENTATION('',(#16),#513);
#13=REPRESENTATION('',(#17),#513);
#14=PROPERTY_DEFINITION('pmi validation property','',#518);
#15=PROPERTY_DEFINITION('pmi validation property','',#518);
#16=VALUE_REPRESENTATION_ITEM('number of annotations',COUNT_MEASURE(0.));
#17=VALUE_REPRESENTATION_ITEM('number of views',COUNT_MEASURE(0.));
#18=SHAPE_REPRESENTATION_RELATIONSHIP('','',#298,#19);
#19=ADVANCED_BREP_SHAPE_REPRESENTATION('',(#296),#513);
#20=TOROIDAL_SURFACE('',#337,23.711405245681,0.8);
#21=TOROIDAL_SURFACE('',#341,21.288594754319,0.8);
#22=TOROIDAL_SURFACE('',#344,30.,4.);
#23=CONICAL_SURFACE('',#335,27.,0.401425727958693);
#24=CONICAL_SURFACE('',#343,20.552190871557,0.401425727958695);
#25=PLANE('',#309);
#26=PLANE('',#314);
#27=PLANE('',#318);
#28=PLANE('',#322);
#29=PLANE('',#328);
#30=PLANE('',#333);
#31=PLANE('',#339);
#32=ORIENTED_EDGE('',*,*,#82,.F.);
#33=ORIENTED_EDGE('',*,*,#83,.F.);
#34=ORIENTED_EDGE('',*,*,#84,.F.);
#35=ORIENTED_EDGE('',*,*,#85,.F.);
#36=ORIENTED_EDGE('',*,*,#86,.F.);
#37=ORIENTED_EDGE('',*,*,#87,.F.);
#38=ORIENTED_EDGE('',*,*,#88,.T.);
#39=ORIENTED_EDGE('',*,*,#89,.F.);
#40=ORIENTED_EDGE('',*,*,#90,.T.);
#41=ORIENTED_EDGE('',*,*,#88,.F.);
#42=ORIENTED_EDGE('',*,*,#91,.T.);
#43=ORIENTED_EDGE('',*,*,#90,.F.);
#44=ORIENTED_EDGE('',*,*,#92,.T.);
#45=ORIENTED_EDGE('',*,*,#91,.F.);
#46=ORIENTED_EDGE('',*,*,#93,.T.);
#47=ORIENTED_EDGE('',*,*,#92,.F.);
#48=ORIENTED_EDGE('',*,*,#94,.T.);
#49=ORIENTED_EDGE('',*,*,#93,.F.);
#50=ORIENTED_EDGE('',*,*,#82,.T.);
#51=ORIENTED_EDGE('',*,*,#84,.T.);
#52=ORIENTED_EDGE('',*,*,#86,.T.);
#53=ORIENTED_EDGE('',*,*,#95,.T.);
#54=ORIENTED_EDGE('',*,*,#96,.T.);
#55=ORIENTED_EDGE('',*,*,#97,.T.);
#56=ORIENTED_EDGE('',*,*,#98,.T.);
#57=ORIENTED_EDGE('',*,*,#97,.F.);
#58=ORIENTED_EDGE('',*,*,#83,.T.);
#59=ORIENTED_EDGE('',*,*,#85,.T.);
#60=ORIENTED_EDGE('',*,*,#87,.T.);
#61=ORIENTED_EDGE('',*,*,#99,.T.);
#62=ORIENTED_EDGE('',*,*,#100,.T.);
#63=ORIENTED_EDGE('',*,*,#98,.F.);
#64=ORIENTED_EDGE('',*,*,#101,.T.);
#65=ORIENTED_EDGE('',*,*,#100,.F.);
#66=ORIENTED_EDGE('',*,*,#102,.T.);
#67=ORIENTED_EDGE('',*,*,#101,.F.);
#68=ORIENTED_EDGE('',*,*,#103,.T.);
#69=ORIENTED_EDGE('',*,*,#102,.F.);
#70=ORIENTED_EDGE('',*,*,#104,.T.);
#71=ORIENTED_EDGE('',*,*,#103,.F.);
#72=ORIENTED_EDGE('',*,*,#105,.T.);
#73=ORIENTED_EDGE('',*,*,#104,.F.);
#74=ORIENTED_EDGE('',*,*,#106,.T.);
#75=ORIENTED_EDGE('',*,*,#105,.F.);
#76=ORIENTED_EDGE('',*,*,#89,.T.);
#77=ORIENTED_EDGE('',*,*,#106,.F.);
#78=ORIENTED_EDGE('',*,*,#96,.F.);
#79=ORIENTED_EDGE('',*,*,#94,.F.);
#80=ORIENTED_EDGE('',*,*,#95,.F.);
#81=ORIENTED_EDGE('',*,*,#99,.F.);
#82=EDGE_CURVE('',#107,#107,#132,.T.);
#83=EDGE_CURVE('',#108,#108,#133,.F.);
#84=EDGE_CURVE('',#109,#109,#134,.T.);
#85=EDGE_CURVE('',#110,#110,#135,.F.);
#86=EDGE_CURVE('',#111,#111,#136,.T.);
#87=EDGE_CURVE('',#112,#112,#137,.F.);
#88=EDGE_CURVE('',#113,#113,#138,.T.);
#89=EDGE_CURVE('',#114,#114,#139,.T.);
#90=EDGE_CURVE('',#115,#115,#140,.T.);
#91=EDGE_CURVE('',#116,#116,#141,.T.);
#92=EDGE_CURVE('',#117,#117,#142,.T.);
#93=EDGE_CURVE('',#118,#118,#143,.T.);
#94=EDGE_CURVE('',#119,#119,#144,.T.);
#95=EDGE_CURVE('',#120,#120,#145,.T.);
#96=EDGE_CURVE('',#121,#121,#146,.F.);
#97=EDGE_CURVE('',#122,#122,#147,.T.);
#98=EDGE_CURVE('',#123,#123,#148,.T.);
#99=EDGE_CURVE('',#124,#124,#149,.F.);
#100=EDGE_CURVE('',#125,#125,#150,.T.);
#101=EDGE_CURVE('',#126,#126,#151,.T.);
#102=EDGE_CURVE('',#127,#127,#152,.T.);
#103=EDGE_CURVE('',#128,#128,#153,.T.);
#104=EDGE_CURVE('',#129,#129,#154,.T.);
#105=EDGE_CURVE('',#130,#130,#155,.T.);
#106=EDGE_CURVE('',#131,#131,#156,.T.);
#107=VERTEX_POINT('',#443);
#108=VERTEX_POINT('',#445);
#109=VERTEX_POINT('',#448);
#110=VERTEX_POINT('',#450);
#111=VERTEX_POINT('',#453);
#112=VERTEX_POINT('',#455);
#113=VERTEX_POINT('',#458);
#114=VERTEX_POINT('',#460);
#115=VERTEX_POINT('',#463);
#116=VERTEX_POINT('',#466);
#117=VERTEX_POINT('',#469);
#118=VERTEX_POINT('',#472);
#119=VERTEX_POINT('',#475);
#120=VERTEX_POINT('',#478);
#121=VERTEX_POINT('',#480);
#122=VERTEX_POINT('',#482);
#123=VERTEX_POINT('',#485);
#124=VERTEX_POINT('',#488);
#125=VERTEX_POINT('',#490);
#126=VERTEX_POINT('',#493);
#127=VERTEX_POINT('',#496);
#128=VERTEX_POINT('',#499);
#129=VERTEX_POINT('',#502);
#130=VERTEX_POINT('',#505);
#131=VERTEX_POINT('',#508);
#132=CIRCLE('',#301,9.);
#133=CIRCLE('',#302,9.);
#134=CIRCLE('',#304,9.);
#135=CIRCLE('',#305,9.);
#136=CIRCLE('',#307,9.);
#137=CIRCLE('',#308,9.);
#138=CIRCLE('',#310,10.5);
#139=CIRCLE('',#311,18.);
#140=CIRCLE('',#313,10.5);
#141=CIRCLE('',#315,13.75);
#142=CIRCLE('',#317,13.75);
#143=CIRCLE('',#319,26.);
#144=CIRCLE('',#321,26.);
#145=CIRCLE('',#323,9.);
#146=CIRCLE('',#324,30.);
#147=CIRCLE('',#325,65.);
#148=CIRCLE('',#327,65.);
#149=CIRCLE('',#329,9.);
#150=CIRCLE('',#330,34.);
#151=CIRCLE('',#332,34.);
#152=CIRCLE('',#334,27.);
#153=CIRCLE('',#336,24.447809128443);
#154=CIRCLE('',#338,23.711405245681);
#155=CIRCLE('',#340,21.288594754319);
#156=CIRCLE('',#342,20.552190871557);
#157=EDGE_LOOP('',(#32));
#158=EDGE_LOOP('',(#33));
#159=EDGE_LOOP('',(#34));
#160=EDGE_LOOP('',(#35));
#161=EDGE_LOOP('',(#36));
#162=EDGE_LOOP('',(#37));
#163=EDGE_LOOP('',(#38));
#164=EDGE_LOOP('',(#39));
#165=EDGE_LOOP('',(#40));
#166=EDGE_LOOP('',(#41));
#167=EDGE_LOOP('',(#42));
#168=EDGE_LOOP('',(#43));
#169=EDGE_LOOP('',(#44));
#170=EDGE_LOOP('',(#45));
#171=EDGE_LOOP('',(#46));
#172=EDGE_LOOP('',(#47));
#173=EDGE_LOOP('',(#48));
#174=EDGE_LOOP('',(#49));
#175=EDGE_LOOP('',(#50));
#176=EDGE_LOOP('',(#51));
#177=EDGE_LOOP('',(#52));
#178=EDGE_LOOP('',(#53));
#179=EDGE_LOOP('',(#54));
#180=EDGE_LOOP('',(#55));
#181=EDGE_LOOP('',(#56));
#182=EDGE_LOOP('',(#57));
#183=EDGE_LOOP('',(#58));
#184=EDGE_LOOP('',(#59));
#185=EDGE_LOOP('',(#60));
#186=EDGE_LOOP('',(#61));
#187=EDGE_LOOP('',(#62));
#188=EDGE_LOOP('',(#63));
#189=EDGE_LOOP('',(#64));
#190=EDGE_LOOP('',(#65));
#191=EDGE_LOOP('',(#66));
#192=EDGE_LOOP('',(#67));
#193=EDGE_LOOP('',(#68));
#194=EDGE_LOOP('',(#69));
#195=EDGE_LOOP('',(#70));
#196=EDGE_LOOP('',(#71));
#197=EDGE_LOOP('',(#72));
#198=EDGE_LOOP('',(#73));
#199=EDGE_LOOP('',(#74));
#200=EDGE_LOOP('',(#75));
#201=EDGE_LOOP('',(#76));
#202=EDGE_LOOP('',(#77));
#203=EDGE_LOOP('',(#78));
#204=EDGE_LOOP('',(#79));
#205=EDGE_LOOP('',(#80));
#206=EDGE_LOOP('',(#81));
#207=FACE_BOUND('',#157,.T.);
#208=FACE_BOUND('',#158,.T.);
#209=FACE_BOUND('',#159,.T.);
#210=FACE_BOUND('',#160,.T.);
#211=FACE_BOUND('',#161,.T.);
#212=FACE_BOUND('',#162,.T.);
#213=FACE_BOUND('',#163,.T.);
#214=FACE_BOUND('',#164,.T.);
#215=FACE_BOUND('',#165,.T.);
#216=FACE_BOUND('',#166,.T.);
#217=FACE_BOUND('',#167,.T.);
#218=FACE_BOUND('',#168,.T.);
#219=FACE_BOUND('',#169,.T.);
#220=FACE_BOUND('',#170,.T.);
#221=FACE_BOUND('',#171,.T.);
#222=FACE_BOUND('',#172,.T.);
#223=FACE_BOUND('',#173,.T.);
#224=FACE_BOUND('',#174,.T.);
#225=FACE_BOUND('',#175,.T.);
#226=FACE_BOUND('',#176,.T.);
#227=FACE_BOUND('',#177,.T.);
#228=FACE_BOUND('',#178,.T.);
#229=FACE_BOUND('',#179,.T.);
#230=FACE_BOUND('',#180,.T.);
#231=FACE_BOUND('',#181,.T.);
#232=FACE_BOUND('',#182,.T.);
#233=FACE_BOUND('',#183,.T.);
#234=FACE_BOUND('',#184,.T.);
#235=FACE_BOUND('',#185,.T.);
#236=FACE_BOUND('',#186,.T.);
#237=FACE_BOUND('',#187,.T.);
#238=FACE_BOUND('',#188,.T.);
#239=FACE_BOUND('',#189,.T.);
#240=FACE_BOUND('',#190,.T.);
#241=FACE_BOUND('',#191,.T.);
#242=FACE_BOUND('',#192,.T.);
#243=FACE_BOUND('',#193,.T.);
#244=FACE_BOUND('',#194,.T.);
#245=FACE_BOUND('',#195,.T.);
#246=FACE_BOUND('',#196,.T.);
#247=FACE_BOUND('',#197,.T.);
#248=FACE_BOUND('',#198,.T.);
#249=FACE_BOUND('',#199,.T.);
#250=FACE_BOUND('',#200,.T.);
#251=FACE_BOUND('',#201,.T.);
#252=FACE_BOUND('',#202,.T.);
#253=FACE_BOUND('',#203,.T.);
#254=FACE_BOUND('',#204,.T.);
#255=FACE_BOUND('',#205,.T.);
#256=FACE_BOUND('',#206,.T.);
#257=CYLINDRICAL_SURFACE('',#300,9.);
#258=CYLINDRICAL_SURFACE('',#303,9.);
#259=CYLINDRICAL_SURFACE('',#306,9.);
#260=CYLINDRICAL_SURFACE('',#312,10.5);
#261=CYLINDRICAL_SURFACE('',#316,13.75);
#262=CYLINDRICAL_SURFACE('',#320,26.);
#263=CYLINDRICAL_SURFACE('',#326,65.);
#264=CYLINDRICAL_SURFACE('',#331,34.);
#265=CYLINDRICAL_SURFACE('',#345,9.);
#266=ADVANCED_FACE('',(#207,#208),#257,.F.);
#267=ADVANCED_FACE('',(#209,#210),#258,.F.);
#268=ADVANCED_FACE('',(#211,#212),#259,.F.);
#269=ADVANCED_FACE('',(#213,#214),#25,.T.);
#270=ADVANCED_FACE('',(#215,#216),#260,.F.);
#271=ADVANCED_FACE('',(#217,#218),#26,.T.);
#272=ADVANCED_FACE('',(#219,#220),#261,.F.);
#273=ADVANCED_FACE('',(#221,#222),#27,.T.);
#274=ADVANCED_FACE('',(#223,#224),#262,.T.);
#275=ADVANCED_FACE('',(#225,#226,#227,#228,#229,#230),#28,.T.);
#276=ADVANCED_FACE('',(#231,#232),#263,.T.);
#277=ADVANCED_FACE('',(#233,#234,#235,#236,#237,#238),#29,.T.);
#278=ADVANCED_FACE('',(#239,#240),#264,.T.);
#279=ADVANCED_FACE('',(#241,#242),#30,.T.);
#280=ADVANCED_FACE('',(#243,#244),#23,.F.);
#281=ADVANCED_FACE('',(#245,#246),#20,.F.);
#282=ADVANCED_FACE('',(#247,#248),#31,.T.);
#283=ADVANCED_FACE('',(#249,#250),#21,.F.);
#284=ADVANCED_FACE('',(#251,#252),#24,.T.);
#285=ADVANCED_FACE('',(#253,#254),#22,.F.);
#286=ADVANCED_FACE('',(#255,#256),#265,.F.);
#287=CLOSED_SHELL('',(#266,#267,#268,#269,#270,#271,#272,#273,#274,#275,
#276,#277,#278,#279,#280,#281,#282,#283,#284,#285,#286));
#288=STYLED_ITEM('',(#289),#296);
#289=PRESENTATION_STYLE_ASSIGNMENT((#290));
#290=SURFACE_STYLE_USAGE(.BOTH.,#291);
#291=SURFACE_SIDE_STYLE('',(#292));
#292=SURFACE_STYLE_FILL_AREA(#293);
#293=FILL_AREA_STYLE('',(#294));
#294=FILL_AREA_STYLE_COLOUR('',#295);
#295=COLOUR_RGB('',0.506983280181885,0.531564235687256,0.550000011920929);
#296=MANIFOLD_SOLID_BREP('',#287);
#297=SHAPE_DEFINITION_REPRESENTATION(#518,#298);
#298=SHAPE_REPRESENTATION('\X2\73AF8FDE63A597625E269888627F63D2710A94A252367BA16CD55170\X0\',
(#299),#513);
#299=AXIS2_PLACEMENT_3D('',#440,#346,#347);
#300=AXIS2_PLACEMENT_3D('',#441,#348,#349);
#301=AXIS2_PLACEMENT_3D('',#442,#350,#351);
#302=AXIS2_PLACEMENT_3D('',#444,#352,#353);
#303=AXIS2_PLACEMENT_3D('',#446,#354,#355);
#304=AXIS2_PLACEMENT_3D('',#447,#356,#357);
#305=AXIS2_PLACEMENT_3D('',#449,#358,#359);
#306=AXIS2_PLACEMENT_3D('',#451,#360,#361);
#307=AXIS2_PLACEMENT_3D('',#452,#362,#363);
#308=AXIS2_PLACEMENT_3D('',#454,#364,#365);
#309=AXIS2_PLACEMENT_3D('',#456,#366,#367);
#310=AXIS2_PLACEMENT_3D('',#457,#368,#369);
#311=AXIS2_PLACEMENT_3D('',#459,#370,#371);
#312=AXIS2_PLACEMENT_3D('',#461,#372,#373);
#313=AXIS2_PLACEMENT_3D('',#462,#374,#375);
#314=AXIS2_PLACEMENT_3D('',#464,#376,#377);
#315=AXIS2_PLACEMENT_3D('',#465,#378,#379);
#316=AXIS2_PLACEMENT_3D('',#467,#380,#381);
#317=AXIS2_PLACEMENT_3D('',#468,#382,#383);
#318=AXIS2_PLACEMENT_3D('',#470,#384,#385);
#319=AXIS2_PLACEMENT_3D('',#471,#386,#387);
#320=AXIS2_PLACEMENT_3D('',#473,#388,#389);
#321=AXIS2_PLACEMENT_3D('',#474,#390,#391);
#322=AXIS2_PLACEMENT_3D('',#476,#392,#393);
#323=AXIS2_PLACEMENT_3D('',#477,#394,#395);
#324=AXIS2_PLACEMENT_3D('',#479,#396,#397);
#325=AXIS2_PLACEMENT_3D('',#481,#398,#399);
#326=AXIS2_PLACEMENT_3D('',#483,#400,#401);
#327=AXIS2_PLACEMENT_3D('',#484,#402,#403);
#328=AXIS2_PLACEMENT_3D('',#486,#404,#405);
#329=AXIS2_PLACEMENT_3D('',#487,#406,#407);
#330=AXIS2_PLACEMENT_3D('',#489,#408,#409);
#331=AXIS2_PLACEMENT_3D('',#491,#410,#411);
#332=AXIS2_PLACEMENT_3D('',#492,#412,#413);
#333=AXIS2_PLACEMENT_3D('',#494,#414,#415);
#334=AXIS2_PLACEMENT_3D('',#495,#416,#417);
#335=AXIS2_PLACEMENT_3D('',#497,#418,#419);
#336=AXIS2_PLACEMENT_3D('',#498,#420,#421);
#337=AXIS2_PLACEMENT_3D('',#500,#422,#423);
#338=AXIS2_PLACEMENT_3D('',#501,#424,#425);
#339=AXIS2_PLACEMENT_3D('',#503,#426,#427);
#340=AXIS2_PLACEMENT_3D('',#504,#428,#429);
#341=AXIS2_PLACEMENT_3D('',#506,#430,#431);
#342=AXIS2_PLACEMENT_3D('',#507,#432,#433);
#343=AXIS2_PLACEMENT_3D('',#509,#434,#435);
#344=AXIS2_PLACEMENT_3D('',#510,#436,#437);
#345=AXIS2_PLACEMENT_3D('',#511,#438,#439);
#346=DIRECTION('',(0.,0.,1.));
#347=DIRECTION('',(1.,0.,0.));
#348=DIRECTION('',(0.,0.,1.));
#349=DIRECTION('',(-1.60812264967664E-16,1.,0.));
#350=DIRECTION('',(0.,0.,-1.));
#351=DIRECTION('',(-1.60812264967664E-16,1.,0.));
#352=DIRECTION('',(0.,0.,-1.));
#353=DIRECTION('',(1.60812264967664E-16,-1.,0.));
#354=DIRECTION('',(0.,0.,1.));
#355=DIRECTION('',(-1.,1.22464679914735E-16,0.));
#356=DIRECTION('',(0.,0.,-1.));
#357=DIRECTION('',(-1.,1.22464679914735E-16,0.));
#358=DIRECTION('',(0.,0.,-1.));
#359=DIRECTION('',(1.,-1.22464679914735E-16,0.));
#360=DIRECTION('',(0.,0.,1.));
#361=DIRECTION('',(-1.83697019872103E-16,-1.,0.));
#362=DIRECTION('',(0.,0.,-1.));
#363=DIRECTION('',(-1.83697019872103E-16,-1.,0.));
#364=DIRECTION('',(0.,0.,-1.));
#365=DIRECTION('',(1.83697019872103E-16,1.,0.));
#366=DIRECTION('',(0.,0.,-1.));
#367=DIRECTION('',(-1.,0.,0.));
#368=DIRECTION('',(0.,0.,1.));
#369=DIRECTION('',(1.,0.,0.));
#370=DIRECTION('',(0.,0.,1.));
#371=DIRECTION('',(1.,0.,0.));
#372=DIRECTION('',(0.,0.,1.));
#373=DIRECTION('',(1.,0.,0.));
#374=DIRECTION('',(0.,0.,1.));
#375=DIRECTION('',(1.,0.,0.));
#376=DIRECTION('',(0.,0.,1.));
#377=DIRECTION('',(1.,0.,0.));
#378=DIRECTION('',(0.,0.,1.));
#379=DIRECTION('',(1.,0.,0.));
#380=DIRECTION('',(0.,0.,1.));
#381=DIRECTION('',(1.,0.,0.));
#382=DIRECTION('',(0.,0.,1.));
#383=DIRECTION('',(1.,0.,0.));
#384=DIRECTION('',(0.,0.,1.));
#385=DIRECTION('',(1.,0.,0.));
#386=DIRECTION('',(0.,0.,1.));
#387=DIRECTION('',(1.,0.,0.));
#388=DIRECTION('',(0.,0.,1.));
#389=DIRECTION('',(1.,0.,0.));
#390=DIRECTION('',(0.,0.,1.));
#391=DIRECTION('',(1.,0.,0.));
#392=DIRECTION('',(0.,0.,1.));
#393=DIRECTION('',(1.,0.,0.));
#394=DIRECTION('',(0.,0.,-1.));
#395=DIRECTION('',(1.,0.,0.));
#396=DIRECTION('',(0.,0.,1.));
#397=DIRECTION('',(1.,0.,0.));
#398=DIRECTION('',(0.,0.,1.));
#399=DIRECTION('',(1.,0.,0.));
#400=DIRECTION('',(0.,0.,1.));
#401=DIRECTION('',(1.,0.,0.));
#402=DIRECTION('',(0.,0.,1.));
#403=DIRECTION('',(1.,0.,0.));
#404=DIRECTION('',(0.,0.,-1.));
#405=DIRECTION('',(-1.,0.,0.));
#406=DIRECTION('',(0.,0.,-1.));
#407=DIRECTION('',(-1.,0.,0.));
#408=DIRECTION('',(0.,0.,1.));
#409=DIRECTION('',(1.,0.,0.));
#410=DIRECTION('',(0.,0.,1.));
#411=DIRECTION('',(1.,0.,0.));
#412=DIRECTION('',(0.,0.,1.));
#413=DIRECTION('',(1.,0.,0.));
#414=DIRECTION('',(0.,0.,-1.));
#415=DIRECTION('',(-1.,0.,0.));
#416=DIRECTION('',(0.,0.,1.));
#417=DIRECTION('',(1.,0.,0.));
#418=DIRECTION('',(0.,0.,-1.));
#419=DIRECTION('',(-1.,0.,0.));
#420=DIRECTION('',(0.,0.,1.));
#421=DIRECTION('',(1.,0.,0.));
#422=DIRECTION('',(0.,0.,1.));
#423=DIRECTION('',(1.,0.,0.));
#424=DIRECTION('',(0.,0.,1.));
#425=DIRECTION('',(1.,0.,0.));
#426=DIRECTION('',(0.,0.,-1.));
#427=DIRECTION('',(-1.,0.,0.));
#428=DIRECTION('',(0.,0.,1.));
#429=DIRECTION('',(1.,0.,0.));
#430=DIRECTION('',(0.,0.,1.));
#431=DIRECTION('',(1.,0.,0.));
#432=DIRECTION('',(0.,0.,1.));
#433=DIRECTION('',(1.,0.,0.));
#434=DIRECTION('',(0.,0.,1.));
#435=DIRECTION('',(1.,0.,0.));
#436=DIRECTION('',(0.,0.,1.));
#437=DIRECTION('',(1.,0.,0.));
#438=DIRECTION('',(0.,0.,1.));
#439=DIRECTION('',(1.,0.,0.));
#440=CARTESIAN_POINT('',(0.,0.,0.));
#441=CARTESIAN_POINT('',(-45.,-7.23655192354486E-15,-158.935989073603));
#442=CARTESIAN_POINT('',(-45.,-7.23655192354486E-15,28.5));
#443=CARTESIAN_POINT('',(-45.,8.99999999999999,28.5));
#444=CARTESIAN_POINT('',(-45.,-7.23655192354486E-15,6.50000000000001));
#445=CARTESIAN_POINT('',(-45.,-9.00000000000001,6.50000000000001));
#446=CARTESIAN_POINT('',(-5.51091059616309E-15,-45.,-158.935989073603));
#447=CARTESIAN_POINT('',(-5.51091059616309E-15,-45.,28.5));
#448=CARTESIAN_POINT('',(-9.00000000000001,-45.,28.5));
#449=CARTESIAN_POINT('',(-5.51091059616309E-15,-45.,6.50000000000001));
#450=CARTESIAN_POINT('',(9.,-45.,6.50000000000001));
#451=CARTESIAN_POINT('',(45.,-8.26636589424463E-15,-158.935989073603));
#452=CARTESIAN_POINT('',(45.,-8.26636589424463E-15,28.5));
#453=CARTESIAN_POINT('',(45.,-9.00000000000001,28.5));
#454=CARTESIAN_POINT('',(45.,-8.26636589424463E-15,6.50000000000001));
#455=CARTESIAN_POINT('',(45.,8.99999999999999,6.50000000000001));
#456=CARTESIAN_POINT('',(18.,0.,-1.53080849893419E-16));
#457=CARTESIAN_POINT('',(0.,0.,0.));
#458=CARTESIAN_POINT('',(10.5,0.,0.));
#459=CARTESIAN_POINT('',(0.,0.,0.));
#460=CARTESIAN_POINT('',(18.,0.,0.));
#461=CARTESIAN_POINT('',(0.,0.,54.));
#462=CARTESIAN_POINT('',(0.,0.,25.5));
#463=CARTESIAN_POINT('',(10.5,0.,25.5));
#464=CARTESIAN_POINT('',(10.5,0.,25.5));
#465=CARTESIAN_POINT('',(0.,0.,25.5));
#466=CARTESIAN_POINT('',(13.75,0.,25.5));
#467=CARTESIAN_POINT('',(0.,0.,54.));
#468=CARTESIAN_POINT('',(0.,0.,36.5));
#469=CARTESIAN_POINT('',(13.75,0.,36.5));
#470=CARTESIAN_POINT('',(13.75,0.,36.5));
#471=CARTESIAN_POINT('',(0.,0.,36.5));
#472=CARTESIAN_POINT('',(26.,0.,36.5));
#473=CARTESIAN_POINT('',(0.,0.,54.));
#474=CARTESIAN_POINT('',(0.,0.,32.5));
#475=CARTESIAN_POINT('',(26.,0.,32.5));
#476=CARTESIAN_POINT('',(26.,0.,28.5));
#477=CARTESIAN_POINT('',(0.,45.,28.5));
#478=CARTESIAN_POINT('',(9.,45.,28.5));
#479=CARTESIAN_POINT('',(0.,0.,28.5));
#480=CARTESIAN_POINT('',(30.,0.,28.5));
#481=CARTESIAN_POINT('',(0.,0.,28.5));
#482=CARTESIAN_POINT('',(65.,0.,28.5));
#483=CARTESIAN_POINT('',(0.,0.,54.));
#484=CARTESIAN_POINT('',(0.,0.,6.50000000000001));
#485=CARTESIAN_POINT('',(65.,0.,6.50000000000001));
#486=CARTESIAN_POINT('',(65.,0.,6.5));
#487=CARTESIAN_POINT('',(0.,45.,6.50000000000001));
#488=CARTESIAN_POINT('',(-9.,45.,6.50000000000001));
#489=CARTESIAN_POINT('',(0.,0.,6.5));
#490=CARTESIAN_POINT('',(34.,0.,6.5));
#491=CARTESIAN_POINT('',(0.,0.,54.));
#492=CARTESIAN_POINT('',(0.,0.,0.));
#493=CARTESIAN_POINT('',(34.,0.,0.));
#494=CARTESIAN_POINT('',(34.,0.,4.33680868994202E-16));
#495=CARTESIAN_POINT('',(0.,0.,0.));
#496=CARTESIAN_POINT('',(27.,0.,0.));
#497=CARTESIAN_POINT('',(0.,0.,0.));
#498=CARTESIAN_POINT('',(0.,0.,6.01258490279142));
#499=CARTESIAN_POINT('',(24.447809128443,0.,6.01258490279142));
#500=CARTESIAN_POINT('',(0.,0.,5.7));
#501=CARTESIAN_POINT('',(0.,0.,6.50000000000001));
#502=CARTESIAN_POINT('',(23.711405245681,0.,6.50000000000001));
#503=CARTESIAN_POINT('',(21.288594754319,0.,6.5));
#504=CARTESIAN_POINT('',(0.,0.,6.5));
#505=CARTESIAN_POINT('',(21.288594754319,0.,6.5));
#506=CARTESIAN_POINT('',(0.,0.,5.7));
#507=CARTESIAN_POINT('',(0.,0.,6.01258490279142));
#508=CARTESIAN_POINT('',(20.552190871557,0.,6.01258490279142));
#509=CARTESIAN_POINT('',(0.,0.,6.01258490279142));
#510=CARTESIAN_POINT('',(0.,0.,32.5));
#511=CARTESIAN_POINT('',(0.,45.,-158.935989073603));
#512=MECHANICAL_DESIGN_GEOMETRIC_PRESENTATION_REPRESENTATION('',(#288),
#513);
#513=(
GEOMETRIC_REPRESENTATION_CONTEXT(3)
GLOBAL_UNCERTAINTY_ASSIGNED_CONTEXT((#514))
GLOBAL_UNIT_ASSIGNED_CONTEXT((#517,#516,#515))
REPRESENTATION_CONTEXT('\X2\73AF8FDE63A597625E269888627F63D2710A94A252367BA16CD55170\X0\',
'TOP_LEVEL_ASSEMBLY_PART')
);
#514=UNCERTAINTY_MEASURE_WITH_UNIT(LENGTH_MEASURE(0.005),#517,
'DISTANCE_ACCURACY_VALUE','Maximum Tolerance applied to model');
#515=(
NAMED_UNIT(*)
SI_UNIT($,.STERADIAN.)
SOLID_ANGLE_UNIT()
);
#516=(
NAMED_UNIT(*)
PLANE_ANGLE_UNIT()
SI_UNIT($,.RADIAN.)
);
#517=(
LENGTH_UNIT()
NAMED_UNIT(*)
SI_UNIT(.MILLI.,.METRE.)
);
#518=PRODUCT_DEFINITION_SHAPE('','',#519);
#519=PRODUCT_DEFINITION('','',#521,#520);
#520=PRODUCT_DEFINITION_CONTEXT('',#527,'design');
#521=PRODUCT_DEFINITION_FORMATION_WITH_SPECIFIED_SOURCE('','',#523,
 .NOT_KNOWN.);
#522=PRODUCT_RELATED_PRODUCT_CATEGORY('','',(#523));
#523=PRODUCT('\X2\73AF8FDE63A597625E269888627F63D2710A94A252367BA16CD55170\X0\',
'\X2\73AF8FDE63A597625E269888627F63D2710A94A252367BA16CD55170\X0\',
'\X2\73AF8FDE63A597625E269888627F63D2710A94A252367BA16CD55170\X0\',(#525));
#524=PRODUCT_CATEGORY('','');
#525=PRODUCT_CONTEXT('',#527,'mechanical');
#526=APPLICATION_PROTOCOL_DEFINITION('international standard',
'automotive_design',2010,#527);
#527=APPLICATION_CONTEXT(
'core data for automotive mechanical design processes');
ENDSEC;
END-ISO-10303-21;
