ISO-10303-21;
HEADER;
FILE_DESCRIPTION (( 'STEP AP203' ),
    '1' );
FILE_NAME ('1.STEP',
    '2012-06-13T06:13:25',
    ( 'User' ),
    ( 'Microsoft' ),
    'SwSTEP 2.0',
    'SolidWorks 2006104',
    '' );
FILE_SCHEMA (( 'CONFIG_CONTROL_DESIGN' ));
ENDSEC;

DATA;
#1 = EDGE_CURVE ( 'NONE', #125, #83, #275, .T. ) ;
#2 = ADVANCED_FACE ( 'NONE', ( #333, #274 ), #268, .T. ) ;
#3 = ORIENTED_EDGE ( 'NONE', *, *, #118, .F. ) ;
#4 = ORIENTED_EDGE ( 'NONE', *, *, #105, .F. ) ;
#5 = ORIENTED_EDGE ( 'NONE', *, *, #13, .T. ) ;
#6 = EDGE_LOOP ( 'NONE', ( #98, #99, #100, #134 ) ) ;
#7 = EDGE_LOOP ( 'NONE', ( #101, #102 ) ) ;
#8 = EDGE_LOOP ( 'NONE', ( #39, #9, #22, #53 ) ) ;
#9 = ORIENTED_EDGE ( 'NONE', *, *, #33, .T. ) ;
#10 = EDGE_CURVE ( 'NONE', #14, #15, #326, .T. ) ;
#11 = ADVANCED_FACE ( 'NONE', ( #291 ), #281, .F. ) ;
#12 = MANIFOLD_SOLID_BREP ( 'NONE', #70 ) ;
#13 = EDGE_CURVE ( 'NONE', #56, #14, #267, .T. ) ;
#14 = VERTEX_POINT ( 'NONE', #290 ) ;
#15 = VERTEX_POINT ( 'NONE', #282 ) ;
#16 = ADVANCED_FACE ( 'NONE', ( #335 ), #334, .T. ) ;
#17 = EDGE_LOOP ( 'NONE', ( #18, #32, #36, #24 ) ) ;
#18 = ORIENTED_EDGE ( 'NONE', *, *, #27, .T. ) ;
#19 = EDGE_CURVE ( 'NONE', #42, #43, #271, .T. ) ;
#20 = VERTEX_POINT ( 'NONE', #314 ) ;
#21 = EDGE_CURVE ( 'NONE', #20, #42, #270, .T. ) ;
#22 = ORIENTED_EDGE ( 'NONE', *, *, #28, .F. ) ;
#23 = ORIENTED_EDGE ( 'NONE', *, *, #13, .F. ) ;
#24 = ORIENTED_EDGE ( 'NONE', *, *, #21, .F. ) ;
#25 = VERTEX_POINT ( 'NONE', #336 ) ;
#26 = EDGE_LOOP ( 'NONE', ( #40, #41, #31, #23 ) ) ;
#27 = EDGE_CURVE ( 'NONE', #20, #25, #328, .T. ) ;
#28 = EDGE_CURVE ( 'NONE', #56, #51, #297, .T. ) ;
#29 = ADVANCED_FACE ( 'NONE', ( #298 ), #320, .F. ) ;
#30 = ADVANCED_FACE ( 'NONE', ( #284 ), #315, .F. ) ;
#31 = ORIENTED_EDGE ( 'NONE', *, *, #10, .F. ) ;
#32 = ORIENTED_EDGE ( 'NONE', *, *, #59, .T. ) ;
#33 = EDGE_CURVE ( 'NONE', #15, #51, #309, .T. ) ;
#34 = EDGE_LOOP ( 'NONE', ( #37, #38, #50, #47 ) ) ;
#35 = EDGE_CURVE ( 'NONE', #51, #15, #198, .T. ) ;
#36 = ORIENTED_EDGE ( 'NONE', *, *, #19, .F. ) ;
#37 = ORIENTED_EDGE ( 'NONE', *, *, #35, .F. ) ;
#38 = ORIENTED_EDGE ( 'NONE', *, *, #44, .T. ) ;
#39 = ORIENTED_EDGE ( 'NONE', *, *, #10, .T. ) ;
#40 = ORIENTED_EDGE ( 'NONE', *, *, #28, .T. ) ;
#41 = ORIENTED_EDGE ( 'NONE', *, *, #35, .T. ) ;
#42 = VERTEX_POINT ( 'NONE', #223 ) ;
#43 = VERTEX_POINT ( 'NONE', #231 ) ;
#44 = EDGE_CURVE ( 'NONE', #51, #58, #224, .T. ) ;
#45 = ADVANCED_FACE ( 'NONE', ( #202 ), #213, .T. ) ;
#46 = EDGE_LOOP ( 'NONE', ( #73, #86, #124, #120 ) ) ;
#47 = ORIENTED_EDGE ( 'NONE', *, *, #57, .F. ) ;
#48 = ADVANCED_FACE ( 'NONE', ( #205 ), #204, .F. ) ;
#49 = ORIENTED_EDGE ( 'NONE', *, *, #68, .F. ) ;
#50 = ORIENTED_EDGE ( 'NONE', *, *, #54, .T. ) ;
#51 = VERTEX_POINT ( 'NONE', #207 ) ;
#52 = EDGE_CURVE ( 'NONE', #14, #56, #208, .T. ) ;
#53 = ORIENTED_EDGE ( 'NONE', *, *, #52, .F. ) ;
#54 = EDGE_CURVE ( 'NONE', #58, #55, #220, .T. ) ;
#55 = VERTEX_POINT ( 'NONE', #197 ) ;
#56 = VERTEX_POINT ( 'NONE', #217 ) ;
#57 = EDGE_CURVE ( 'NONE', #15, #55, #141, .T. ) ;
#58 = VERTEX_POINT ( 'NONE', #362 ) ;
#59 = EDGE_CURVE ( 'NONE', #25, #43, #341, .T. ) ;
#60 = EDGE_LOOP ( 'NONE', ( #67, #71 ) ) ;
#61 = ORIENTED_EDGE ( 'NONE', *, *, #111, .T. ) ;
#62 = ORIENTED_EDGE ( 'NONE', *, *, #68, .T. ) ;
#63 = ORIENTED_EDGE ( 'NONE', *, *, #19, .T. ) ;
#64 = ADVANCED_FACE ( 'NONE', ( #358 ), #349, .T. ) ;
#65 = EDGE_LOOP ( 'NONE', ( #69, #61, #66, #49 ) ) ;
#66 = ORIENTED_EDGE ( 'NONE', *, *, #21, .T. ) ;
#67 = ORIENTED_EDGE ( 'NONE', *, *, #133, .F. ) ;
#68 = EDGE_CURVE ( 'NONE', #43, #42, #355, .T. ) ;
#69 = ORIENTED_EDGE ( 'NONE', *, *, #59, .F. ) ;
#70 = CLOSED_SHELL ( 'NONE', ( #88, #119, #16, #107, #64, #108, #77, #130, #45, #29, #11, #2, #48, #30 ) ) ;
#71 = ORIENTED_EDGE ( 'NONE', *, *, #54, .F. ) ;
#72 = VERTEX_POINT ( 'NONE', #340 ) ;
#73 = ORIENTED_EDGE ( 'NONE', *, *, #74, .T. ) ;
#74 = EDGE_CURVE ( 'NONE', #87, #72, #360, .T. ) ;
#75 = VERTEX_POINT ( 'NONE', #370 ) ;
#76 = ORIENTED_EDGE ( 'NONE', *, *, #118, .T. ) ;
#77 = ADVANCED_FACE ( 'NONE', ( #374, #366 ), #357, .T. ) ;
#78 = ORIENTED_EDGE ( 'NONE', *, *, #111, .F. ) ;
#79 = VERTEX_POINT ( 'NONE', #373 ) ;
#80 = EDGE_LOOP ( 'NONE', ( #63, #62 ) ) ;
#81 = ORIENTED_EDGE ( 'NONE', *, *, #84, .T. ) ;
#82 = EDGE_CURVE ( 'NONE', #87, #83, #348, .T. ) ;
#83 = VERTEX_POINT ( 'NONE', #363 ) ;
#84 = EDGE_CURVE ( 'NONE', #83, #125, #143, .T. ) ;
#85 = EDGE_CURVE ( 'NONE', #72, #125, #438, .T. ) ;
#86 = ORIENTED_EDGE ( 'NONE', *, *, #85, .T. ) ;
#87 = VERTEX_POINT ( 'NONE', #417 ) ;
#88 = ADVANCED_FACE ( 'NONE', ( #399, #447 ), #424, .T. ) ;
#89 = ORIENTED_EDGE ( 'NONE', *, *, #91, .F. ) ;
#90 = EDGE_LOOP ( 'NONE', ( #121, #78 ) ) ;
#91 = EDGE_CURVE ( 'NONE', #79, #116, #408, .T. ) ;
#92 = VERTEX_POINT ( 'NONE', #411 ) ;
#93 = ORIENTED_EDGE ( 'NONE', *, *, #1, .T. ) ;
#94 = EDGE_CURVE ( 'NONE', #92, #79, #383, .T. ) ;
#95 = ORIENTED_EDGE ( 'NONE', *, *, #96, .T. ) ;
#96 = EDGE_CURVE ( 'NONE', #92, #75, #391, .T. ) ;
#97 = ORIENTED_EDGE ( 'NONE', *, *, #131, .T. ) ;
#98 = ORIENTED_EDGE ( 'NONE', *, *, #33, .F. ) ;
#99 = ORIENTED_EDGE ( 'NONE', *, *, #57, .T. ) ;
#100 = ORIENTED_EDGE ( 'NONE', *, *, #133, .T. ) ;
#101 = ORIENTED_EDGE ( 'NONE', *, *, #74, .F. ) ;
#102 = ORIENTED_EDGE ( 'NONE', *, *, #131, .F. ) ;
#103 = ORIENTED_EDGE ( 'NONE', *, *, #91, .T. ) ;
#104 = ORIENTED_EDGE ( 'NONE', *, *, #96, .F. ) ;
#105 = EDGE_CURVE ( 'NONE', #116, #75, #414, .T. ) ;
#106 = ORIENTED_EDGE ( 'NONE', *, *, #114, .F. ) ;
#107 = ADVANCED_FACE ( 'NONE', ( #390 ), #435, .F. ) ;
#108 = ADVANCED_FACE ( 'NONE', ( #436, #379 ), #409, .T. ) ;
#109 = EDGE_LOOP ( 'NONE', ( #104, #106, #103, #110 ) ) ;
#110 = ORIENTED_EDGE ( 'NONE', *, *, #105, .T. ) ;
#111 = EDGE_CURVE ( 'NONE', #25, #20, #394, .T. ) ;
#112 = EDGE_LOOP ( 'NONE', ( #81, #93 ) ) ;
#113 = ORIENTED_EDGE ( 'NONE', *, *, #114, .T. ) ;
#114 = EDGE_CURVE ( 'NONE', #79, #92, #398, .T. ) ;
#115 = ORIENTED_EDGE ( 'NONE', *, *, #94, .T. ) ;
#116 = VERTEX_POINT ( 'NONE', #410 ) ;
#117 = EDGE_LOOP ( 'NONE', ( #113, #115 ) ) ;
#118 = EDGE_CURVE ( 'NONE', #75, #116, #445, .T. ) ;
#119 = ADVANCED_FACE ( 'NONE', ( #446 ), #375, .F. ) ;
#120 = ORIENTED_EDGE ( 'NONE', *, *, #82, .F. ) ;
#121 = ORIENTED_EDGE ( 'NONE', *, *, #27, .F. ) ;
#122 = ORIENTED_EDGE ( 'NONE', *, *, #94, .F. ) ;
#123 = EDGE_LOOP ( 'NONE', ( #122, #95, #76, #89 ) ) ;
#124 = ORIENTED_EDGE ( 'NONE', *, *, #84, .F. ) ;
#125 = VERTEX_POINT ( 'NONE', #458 ) ;
#126 = ORIENTED_EDGE ( 'NONE', *, *, #1, .F. ) ;
#127 = EDGE_LOOP ( 'NONE', ( #136, #97, #129, #126 ) ) ;
#128 = EDGE_LOOP ( 'NONE', ( #135, #5 ) ) ;
#129 = ORIENTED_EDGE ( 'NONE', *, *, #82, .T. ) ;
#130 = ADVANCED_FACE ( 'NONE', ( #421 ), #419, .T. ) ;
#131 = EDGE_CURVE ( 'NONE', #72, #87, #389, .T. ) ;
#132 = EDGE_LOOP ( 'NONE', ( #4, #3 ) ) ;
#133 = EDGE_CURVE ( 'NONE', #55, #58, #443, .T. ) ;
#134 = ORIENTED_EDGE ( 'NONE', *, *, #44, .F. ) ;
#135 = ORIENTED_EDGE ( 'NONE', *, *, #52, .T. ) ;
#136 = ORIENTED_EDGE ( 'NONE', *, *, #85, .F. ) ;
#137 = DIRECTION ( 'NONE',  ( 0.0000000000000000000, -1.000000000000000000, 0.0000000000000000000 ) ) ;
#138 = DIRECTION ( 'NONE',  ( 0.0000000000000000000, 0.0000000000000000000, -1.000000000000000000 ) ) ;
#139 = CARTESIAN_POINT ( 'NONE',  ( 0.0000000000000000000, 0.0000000000000000000, -9.369738352191983900 ) ) ;
#140 = AXIS2_PLACEMENT_3D ( 'NONE', #139, #150, #146 ) ;
#141 = CIRCLE ( 'NONE', #140, 2.600000000000000100 ) ;
#142 = CARTESIAN_POINT ( 'NONE',  ( 0.0000000000000000000, -4.000000000000000000, 0.0000000000000000000 ) ) ;
#143 = CIRCLE ( 'NONE', #149, 6.099999999999999600 ) ;
#144 = DIRECTION ( 'NONE',  ( 0.0000000000000000000, 0.0000000000000000000, -1.000000000000000000 ) ) ;
#145 = DIRECTION ( 'NONE',  ( 0.0000000000000000000, -1.000000000000000000, 0.0000000000000000000 ) ) ;
#146 = DIRECTION ( 'NONE',  ( 0.0000000000000000000, 0.0000000000000000000, 1.000000000000000000 ) ) ;
#147 = APPLICATION_PROTOCOL_DEFINITION ( 'international standard', 'config_control_design', 1994, #148 ) ;
#148 = APPLICATION_CONTEXT ( 'configuration controlled 3d designs of mechanical parts and assemblies' ) ;
#149 = AXIS2_PLACEMENT_3D ( 'NONE', #142, #145, #144 ) ;
#150 = DIRECTION ( 'NONE',  ( -1.000000000000000000, 0.0000000000000000000, 0.0000000000000000000 ) ) ;
#151 = CARTESIAN_POINT ( 'NONE',  ( 0.0000000000000000000, 0.0000000000000000000, 0.0000000000000000000 ) ) ;
#152 = DIRECTION ( 'NONE',  ( 0.0000000000000000000, 0.0000000000000000000, 1.000000000000000000 ) ) ;
#153 = DIRECTION ( 'NONE',  ( 1.000000000000000000, 0.0000000000000000000, 0.0000000000000000000 ) ) ;
#154 = MECHANICAL_CONTEXT ( 'NONE', #148, 'mechanical' ) ;
#155 = PERSON ( 'UNSPECIFIED', 'UNSPECIFIED', 'UNSPECIFIED', ('UNSPECIFIED'), ('UNSPECIFIED'), ('UNSPECIFIED') ) ;
#156 = APPROVAL_DATE_TIME ( #157, #174 ) ;
#157 = DATE_AND_TIME ( #159, #160 ) ;
#158 = PRODUCT ( '1', '1', '', ( #154 ) ) ;
#159 = CALENDAR_DATE ( 2012, 13, 6 ) ;
#160 = LOCAL_TIME ( 14, 13, 25.00000000000000000, #194 ) ;
#161 = PERSON_AND_ORGANIZATION ( #155, #185 ) ;
#162 = APPLICATION_PROTOCOL_DEFINITION ( 'international standard', 'config_control_design', 1994, #186 ) ;
#163 = APPROVAL_STATUS ( 'not_yet_approved' ) ;
#164 = CC_DESIGN_DATE_AND_TIME_ASSIGNMENT ( #166, #165, ( #189 ) ) ;
#165 = DATE_TIME_ROLE ( 'creation_date' ) ;
#166 = DATE_AND_TIME ( #167, #168 ) ;
#167 = CALENDAR_DATE ( 2012, 13, 6 ) ;
#168 = LOCAL_TIME ( 14, 13, 25.00000000000000000, #176 ) ;
#169 = CC_DESIGN_PERSON_AND_ORGANIZATION_ASSIGNMENT ( #191, #170, ( #189 ) ) ;
#170 = PERSON_AND_ORGANIZATION_ROLE ( 'creator' ) ;
#171 = APPROVAL_DATE_TIME ( #181, #190 ) ;
#172 = APPROVAL_PERSON_ORGANIZATION ( #161, #190, #177 ) ;
#173 = APPROVAL_ROLE ( '' ) ;
#174 = APPROVAL ( #175, 'UNSPECIFIED' ) ;
#175 = APPROVAL_STATUS ( 'not_yet_approved' ) ;
#176 = COORDINATED_UNIVERSAL_TIME_OFFSET ( 8, 0, .AHEAD. ) ;
#177 = APPROVAL_ROLE ( '' ) ;
#178 = PERSON_AND_ORGANIZATION_ROLE ( 'design_owner' ) ;
#179 = CALENDAR_DATE ( 2012, 13, 6 ) ;
#180 = LOCAL_TIME ( 14, 13, 25.00000000000000000, #182 ) ;
#181 = DATE_AND_TIME ( #179, #180 ) ;
#182 = COORDINATED_UNIVERSAL_TIME_OFFSET ( 8, 0, .AHEAD. ) ;
#183 = PERSON_AND_ORGANIZATION ( #155, #185 ) ;
#184 = PRODUCT_DEFINITION_FORMATION_WITH_SPECIFIED_SOURCE ( 'ANY', '', #158, .NOT_KNOWN. ) ;
#185 = ORGANIZATION ( 'UNSPECIFIED', 'UNSPECIFIED', '' ) ;
#186 = APPLICATION_CONTEXT ( 'configuration controlled 3d designs of mechanical parts and assemblies' ) ;
#187 = PERSON_AND_ORGANIZATION ( #155, #185 ) ;
#188 = CC_DESIGN_PERSON_AND_ORGANIZATION_ASSIGNMENT ( #187, #178, ( #158 ) ) ;
#189 = PRODUCT_DEFINITION ( 'UNKNOWN', '', #184, #193 ) ;
#190 = APPROVAL ( #163, 'UNSPECIFIED' ) ;
#191 = PERSON_AND_ORGANIZATION ( #155, #185 ) ;
#192 = CC_DESIGN_APPROVAL ( #190, ( #189 ) ) ;
#193 = DESIGN_CONTEXT ( 'detailed design', #186, 'design' ) ;
#194 = COORDINATED_UNIVERSAL_TIME_OFFSET ( 8, 0, .AHEAD. ) ;
#195 = APPROVAL_PERSON_ORGANIZATION ( #183, #174, #173 ) ;
#196 = AXIS2_PLACEMENT_3D ( 'NONE', #216, #233, #230 ) ;
#197 = CARTESIAN_POINT ( 'NONE',  ( 0.0000000000000000000, 1.950000000000000000, -7.650000000000000400 ) ) ;
#198 = CIRCLE ( 'NONE', #196, 6.769738352191985200 ) ;
#199 = CARTESIAN_POINT ( 'NONE',  ( 0.0000000000000000000, -1.950000000000000000, 0.0000000000000000000 ) ) ;
#200 = DIRECTION ( 'NONE',  ( 0.0000000000000000000, 0.0000000000000000000, -1.000000000000000000 ) ) ;
#201 = AXIS2_PLACEMENT_3D ( 'NONE', #222, #221, #203 ) ;
#202 = FACE_OUTER_BOUND ( 'NONE', #46, .T. ) ;
#203 = DIRECTION ( 'NONE',  ( -1.224606353822377300E-016, 0.0000000000000000000, -1.000000000000000000 ) ) ;
#204 = TOROIDAL_SURFACE ( 'NONE', #226, 9.369738352191983900, 2.600000000000000100 ) ;
#205 = FACE_OUTER_BOUND ( 'NONE', #26, .T. ) ;
#206 = CARTESIAN_POINT ( 'NONE',  ( 0.0000000000000000000, 0.0000000000000000000, 0.0000000000000000000 ) ) ;
#207 = CARTESIAN_POINT ( 'NONE',  ( 8.290264599809334600E-016, 3.183976519938180700E-016, 6.769738352191985200 ) ) ;
#208 = CIRCLE ( 'NONE', #229, 7.650000000000000400 ) ;
#209 = DIRECTION ( 'NONE',  ( 0.0000000000000000000, 0.0000000000000000000, -1.000000000000000000 ) ) ;
#210 = DIRECTION ( 'NONE',  ( 0.0000000000000000000, -1.000000000000000000, 0.0000000000000000000 ) ) ;
#211 = DIRECTION ( 'NONE',  ( 0.0000000000000000000, 0.0000000000000000000, -1.000000000000000000 ) ) ;
#212 = DIRECTION ( 'NONE',  ( 0.0000000000000000000, -1.000000000000000000, 0.0000000000000000000 ) ) ;
#213 = CYLINDRICAL_SURFACE ( 'NONE', #215, 6.099999999999999600 ) ;
#214 = CARTESIAN_POINT ( 'NONE',  ( 0.0000000000000000000, 0.0000000000000000000, 0.0000000000000000000 ) ) ;
#215 = AXIS2_PLACEMENT_3D ( 'NONE', #214, #212, #211 ) ;
#216 = CARTESIAN_POINT ( 'NONE',  ( 0.0000000000000000000, 3.183976519938180700E-016, 0.0000000000000000000 ) ) ;
#217 = CARTESIAN_POINT ( 'NONE',  ( 9.368238606741185200E-016, -1.950000000000000000, 7.650000000000000400 ) ) ;
#218 = CARTESIAN_POINT ( 'NONE',  ( 0.0000000000000000000, 1.950000000000000200, 0.0000000000000000000 ) ) ;
#219 = AXIS2_PLACEMENT_3D ( 'NONE', #218, #228, #227 ) ;
#220 = CIRCLE ( 'NONE', #219, 7.650000000000000400 ) ;
#221 = DIRECTION ( 'NONE',  ( 1.000000000000000000, 0.0000000000000000000, -1.224606353822377300E-016 ) ) ;
#222 = CARTESIAN_POINT ( 'NONE',  ( 1.147424111974751600E-015, 0.0000000000000000000, 9.369738352191983900 ) ) ;
#223 = CARTESIAN_POINT ( 'NONE',  ( 0.0000000000000000000, 1.950000000000000000, -6.099999999999999600 ) ) ;
#224 = CIRCLE ( 'NONE', #201, 2.600000000000000100 ) ;
#225 = DIRECTION ( 'NONE',  ( 0.0000000000000000000, -1.000000000000000000, 0.0000000000000000000 ) ) ;
#226 = AXIS2_PLACEMENT_3D ( 'NONE', #206, #225, #200 ) ;
#227 = DIRECTION ( 'NONE',  ( 0.0000000000000000000, 0.0000000000000000000, -1.000000000000000000 ) ) ;
#228 = DIRECTION ( 'NONE',  ( 0.0000000000000000000, -1.000000000000000000, 0.0000000000000000000 ) ) ;
#229 = AXIS2_PLACEMENT_3D ( 'NONE', #199, #210, #209 ) ;
#230 = DIRECTION ( 'NONE',  ( 0.0000000000000000000, 0.0000000000000000000, -1.000000000000000000 ) ) ;
#231 = CARTESIAN_POINT ( 'NONE',  ( 7.470098758316501100E-016, 1.950000000000000000, 6.099999999999999600 ) ) ;
#232 = CC_DESIGN_APPROVAL ( #174, ( #184 ) ) ;
#233 = DIRECTION ( 'NONE',  ( 0.0000000000000000000, -1.000000000000000000, 0.0000000000000000000 ) ) ;
#234 = PERSON_AND_ORGANIZATION ( #155, #185 ) ;
#235 = CC_DESIGN_PERSON_AND_ORGANIZATION_ASSIGNMENT ( #234, #238, ( #184 ) ) ;
#236 = SECURITY_CLASSIFICATION ( '', '', #237 ) ;
#237 = SECURITY_CLASSIFICATION_LEVEL ( 'unclassified' ) ;
#238 = PERSON_AND_ORGANIZATION_ROLE ( 'creator' ) ;
#239 = PERSON_AND_ORGANIZATION ( #155, #185 ) ;
#240 = CC_DESIGN_PERSON_AND_ORGANIZATION_ASSIGNMENT ( #239, #241, ( #184 ) ) ;
#241 = PERSON_AND_ORGANIZATION_ROLE ( 'design_supplier' ) ;
#242 = CC_DESIGN_PERSON_AND_ORGANIZATION_ASSIGNMENT ( #244, #243, ( #236 ) ) ;
#243 = PERSON_AND_ORGANIZATION_ROLE ( 'classification_officer' ) ;
#244 = PERSON_AND_ORGANIZATION ( #155, #185 ) ;
#245 = APPROVAL_PERSON_ORGANIZATION ( #253, #262, #250 ) ;
#246 = COORDINATED_UNIVERSAL_TIME_OFFSET ( 8, 0, .AHEAD. ) ;
#247 = CC_DESIGN_APPROVAL ( #262, ( #236 ) ) ;
#248 = SHAPE_DEFINITION_REPRESENTATION ( #264, #425 ) ;
#249 = APPROVAL_STATUS ( 'not_yet_approved' ) ;
#250 = APPROVAL_ROLE ( '' ) ;
#251 = CALENDAR_DATE ( 2012, 13, 6 ) ;
#252 = APPROVAL_DATE_TIME ( #259, #262 ) ;
#253 = PERSON_AND_ORGANIZATION ( #155, #185 ) ;
#254 = CALENDAR_DATE ( 2012, 13, 6 ) ;
#255 = DATE_AND_TIME ( #254, #260 ) ;
#256 = PRODUCT_RELATED_PRODUCT_CATEGORY ( 'detail', '', ( #158 ) ) ;
#257 = CC_DESIGN_DATE_AND_TIME_ASSIGNMENT ( #255, #263, ( #236 ) ) ;
#258 = COORDINATED_UNIVERSAL_TIME_OFFSET ( 8, 0, .AHEAD. ) ;
#259 = DATE_AND_TIME ( #251, #265 ) ;
#260 = LOCAL_TIME ( 14, 13, 25.00000000000000000, #246 ) ;
#261 = CC_DESIGN_SECURITY_CLASSIFICATION ( #236, ( #184 ) ) ;
#262 = APPROVAL ( #249, 'UNSPECIFIED' ) ;
#263 = DATE_TIME_ROLE ( 'classification_date' ) ;
#264 = PRODUCT_DEFINITION_SHAPE ( 'NONE', 'NONE',  #189 ) ;
#265 = LOCAL_TIME ( 14, 13, 25.00000000000000000, #258 ) ;
#266 = AXIS2_PLACEMENT_3D ( 'NONE', #288, #293, #283 ) ;
#267 = CIRCLE ( 'NONE', #266, 7.650000000000000400 ) ;
#268 = PLANE ( 'NONE',  #323 ) ;
#269 = CARTESIAN_POINT ( 'NONE',  ( 0.0000000000000000000, 0.0000000000000000000, -6.099999999999999600 ) ) ;
#270 = LINE ( 'NONE', #269, #338 ) ;
#271 = CIRCLE ( 'NONE', #313, 6.099999999999999600 ) ;
#272 = CARTESIAN_POINT ( 'NONE',  ( 0.0000000000000000000, 0.0000000000000000000, 0.0000000000000000000 ) ) ;
#273 = AXIS2_PLACEMENT_3D ( 'NONE', #272, #330, #329 ) ;
#274 = FACE_BOUND ( 'NONE', #7, .T. ) ;
#275 = CIRCLE ( 'NONE', #332, 6.099999999999999600 ) ;
#276 = CARTESIAN_POINT ( 'NONE',  ( 6.099999999999999600, -1.950000000000000000, 0.0000000000000000000 ) ) ;
#277 = DIRECTION ( 'NONE',  ( 0.0000000000000000000, -1.000000000000000000, 0.0000000000000000000 ) ) ;
#278 = DIRECTION ( 'NONE',  ( 0.0000000000000000000, 0.0000000000000000000, -1.000000000000000000 ) ) ;
#279 = DIRECTION ( 'NONE',  ( 0.0000000000000000000, -1.000000000000000000, 0.0000000000000000000 ) ) ;
#280 = CARTESIAN_POINT ( 'NONE',  ( 0.0000000000000000000, 4.000000000000000000, 0.0000000000000000000 ) ) ;
#281 = TOROIDAL_SURFACE ( 'NONE', #273, 9.369738352191983900, 2.600000000000000100 ) ;
#282 = CARTESIAN_POINT ( 'NONE',  ( 0.0000000000000000000, 3.183976519938180700E-016, -6.769738352191985200 ) ) ;
#283 = DIRECTION ( 'NONE',  ( 0.0000000000000000000, 0.0000000000000000000, -1.000000000000000000 ) ) ;
#284 = FACE_OUTER_BOUND ( 'NONE', #8, .T. ) ;
#285 = CARTESIAN_POINT ( 'NONE',  ( 0.0000000000000000000, 0.0000000000000000000, 0.0000000000000000000 ) ) ;
#286 = DIRECTION ( 'NONE',  ( -1.224606353822377300E-016, 0.0000000000000000000, -1.000000000000000000 ) ) ;
#287 = DIRECTION ( 'NONE',  ( 0.0000000000000000000, 0.0000000000000000000, 1.000000000000000000 ) ) ;
#288 = CARTESIAN_POINT ( 'NONE',  ( 0.0000000000000000000, -1.950000000000000000, 0.0000000000000000000 ) ) ;
#289 = CARTESIAN_POINT ( 'NONE',  ( 0.0000000000000000000, 0.0000000000000000000, 0.0000000000000000000 ) ) ;
#290 = CARTESIAN_POINT ( 'NONE',  ( 0.0000000000000000000, -1.950000000000000000, -7.650000000000000400 ) ) ;
#291 = FACE_OUTER_BOUND ( 'NONE', #6, .T. ) ;
#292 = AXIS2_PLACEMENT_3D ( 'NONE', #322, #321, #287 ) ;
#293 = DIRECTION ( 'NONE',  ( 0.0000000000000000000, -1.000000000000000000, 0.0000000000000000000 ) ) ;
#294 = DIRECTION ( 'NONE',  ( 1.000000000000000000, 0.0000000000000000000, -1.224606353822377300E-016 ) ) ;
#295 = CARTESIAN_POINT ( 'NONE',  ( 1.147424111974751600E-015, 0.0000000000000000000, 9.369738352191983900 ) ) ;
#296 = AXIS2_PLACEMENT_3D ( 'NONE', #295, #294, #286 ) ;
#297 = CIRCLE ( 'NONE', #296, 2.600000000000000100 ) ;
#298 = FACE_OUTER_BOUND ( 'NONE', #34, .T. ) ;
#299 = DIRECTION ( 'NONE',  ( 0.0000000000000000000, 0.0000000000000000000, -1.000000000000000000 ) ) ;
#300 = DIRECTION ( 'NONE',  ( 0.0000000000000000000, -1.000000000000000000, 0.0000000000000000000 ) ) ;
#301 = CARTESIAN_POINT ( 'NONE',  ( 0.0000000000000000000, 1.950000000000000000, 0.0000000000000000000 ) ) ;
#302 = DIRECTION ( 'NONE',  ( 0.0000000000000000000, -1.000000000000000000, 0.0000000000000000000 ) ) ;
#303 = DIRECTION ( 'NONE',  ( 0.0000000000000000000, 0.0000000000000000000, -1.000000000000000000 ) ) ;
#304 = DIRECTION ( 'NONE',  ( 0.0000000000000000000, -1.000000000000000000, 0.0000000000000000000 ) ) ;
#305 = AXIS2_PLACEMENT_3D ( 'NONE', #289, #304, #306 ) ;
#306 = DIRECTION ( 'NONE',  ( 0.0000000000000000000, 0.0000000000000000000, -1.000000000000000000 ) ) ;
#307 = CARTESIAN_POINT ( 'NONE',  ( 0.0000000000000000000, 3.183976519938180700E-016, 0.0000000000000000000 ) ) ;
#308 = AXIS2_PLACEMENT_3D ( 'NONE', #307, #137, #138 ) ;
#309 = CIRCLE ( 'NONE', #308, 6.769738352191985200 ) ;
#310 = DIRECTION ( 'NONE',  ( 0.0000000000000000000, 0.0000000000000000000, -1.000000000000000000 ) ) ;
#311 = DIRECTION ( 'NONE',  ( 0.0000000000000000000, -1.000000000000000000, 0.0000000000000000000 ) ) ;
#312 = CARTESIAN_POINT ( 'NONE',  ( 0.0000000000000000000, 0.0000000000000000000, 0.0000000000000000000 ) ) ;
#313 = AXIS2_PLACEMENT_3D ( 'NONE', #301, #300, #299 ) ;
#314 = CARTESIAN_POINT ( 'NONE',  ( 0.0000000000000000000, 4.000000000000000000, -6.099999999999999600 ) ) ;
#315 = TOROIDAL_SURFACE ( 'NONE', #316, 9.369738352191983900, 2.600000000000000100 ) ;
#316 = AXIS2_PLACEMENT_3D ( 'NONE', #312, #311, #310 ) ;
#317 = DIRECTION ( 'NONE',  ( 0.0000000000000000000, 0.0000000000000000000, -1.000000000000000000 ) ) ;
#318 = DIRECTION ( 'NONE',  ( 0.0000000000000000000, -1.000000000000000000, 0.0000000000000000000 ) ) ;
#319 = AXIS2_PLACEMENT_3D ( 'NONE', #285, #318, #317 ) ;
#320 = TOROIDAL_SURFACE ( 'NONE', #319, 9.369738352191983900, 2.600000000000000100 ) ;
#321 = DIRECTION ( 'NONE',  ( -1.000000000000000000, 0.0000000000000000000, 0.0000000000000000000 ) ) ;
#322 = CARTESIAN_POINT ( 'NONE',  ( 0.0000000000000000000, 0.0000000000000000000, -9.369738352191983900 ) ) ;
#323 = AXIS2_PLACEMENT_3D ( 'NONE', #276, #277, #331 ) ;
#324 = CARTESIAN_POINT ( 'NONE',  ( 0.0000000000000000000, -4.000000000000000000, 0.0000000000000000000 ) ) ;
#325 = AXIS2_PLACEMENT_3D ( 'NONE', #151, #152, #153 ) ;
#326 = CIRCLE ( 'NONE', #292, 2.600000000000000100 ) ;
#327 = AXIS2_PLACEMENT_3D ( 'NONE', #280, #279, #278 ) ;
#328 = CIRCLE ( 'NONE', #327, 6.099999999999999600 ) ;
#329 = DIRECTION ( 'NONE',  ( 0.0000000000000000000, 0.0000000000000000000, -1.000000000000000000 ) ) ;
#330 = DIRECTION ( 'NONE',  ( 0.0000000000000000000, -1.000000000000000000, 0.0000000000000000000 ) ) ;
#331 = DIRECTION ( 'NONE',  ( 0.0000000000000000000, 0.0000000000000000000, -1.000000000000000000 ) ) ;
#332 = AXIS2_PLACEMENT_3D ( 'NONE', #324, #302, #303 ) ;
#333 = FACE_OUTER_BOUND ( 'NONE', #128, .T. ) ;
#334 = CYLINDRICAL_SURFACE ( 'NONE', #305, 6.099999999999999600 ) ;
#335 = FACE_OUTER_BOUND ( 'NONE', #17, .T. ) ;
#336 = CARTESIAN_POINT ( 'NONE',  ( 7.470098758316501100E-016, 4.000000000000000000, 6.099999999999999600 ) ) ;
#337 = DIRECTION ( 'NONE',  ( 0.0000000000000000000, -1.000000000000000000, 0.0000000000000000000 ) ) ;
#338 = VECTOR ( 'NONE', #337, 1000.000000000000000 ) ;
#339 = DIRECTION ( 'NONE',  ( 0.0000000000000000000, -1.000000000000000000, 0.0000000000000000000 ) ) ;
#340 = CARTESIAN_POINT ( 'NONE',  ( 7.470098758316501100E-016, -1.950000000000000000, 6.099999999999999600 ) ) ;
#341 = LINE ( 'NONE', #361, #353 ) ;
#342 = AXIS2_PLACEMENT_3D ( 'NONE', #372, #339, #367 ) ;
#343 = DIRECTION ( 'NONE',  ( 0.0000000000000000000, -1.000000000000000000, 0.0000000000000000000 ) ) ;
#344 = DIRECTION ( 'NONE',  ( 0.0000000000000000000, 0.0000000000000000000, -1.000000000000000000 ) ) ;
#345 = DIRECTION ( 'NONE',  ( 0.0000000000000000000, 1.000000000000000000, 0.0000000000000000000 ) ) ;
#346 = CARTESIAN_POINT ( 'NONE',  ( 6.099999999999999600, 1.950000000000000000, 0.0000000000000000000 ) ) ;
#347 = CARTESIAN_POINT ( 'NONE',  ( 0.0000000000000000000, 0.0000000000000000000, -6.099999999999999600 ) ) ;
#348 = LINE ( 'NONE', #347, #365 ) ;
#349 = CYLINDRICAL_SURFACE ( 'NONE', #371, 6.099999999999999600 ) ;
#350 = DIRECTION ( 'NONE',  ( 0.0000000000000000000, -1.000000000000000000, 0.0000000000000000000 ) ) ;
#351 = CARTESIAN_POINT ( 'NONE',  ( 0.0000000000000000000, -1.950000000000000000, 0.0000000000000000000 ) ) ;
#352 = DIRECTION ( 'NONE',  ( 0.0000000000000000000, 0.0000000000000000000, 1.000000000000000000 ) ) ;
#353 = VECTOR ( 'NONE', #369, 1000.000000000000000 ) ;
#354 = DIRECTION ( 'NONE',  ( 0.0000000000000000000, 0.0000000000000000000, -1.000000000000000000 ) ) ;
#355 = CIRCLE ( 'NONE', #342, 6.099999999999999600 ) ;
#356 = AXIS2_PLACEMENT_3D ( 'NONE', #346, #345, #352 ) ;
#357 = PLANE ( 'NONE',  #356 ) ;
#358 = FACE_OUTER_BOUND ( 'NONE', #65, .T. ) ;
#359 = AXIS2_PLACEMENT_3D ( 'NONE', #351, #350, #344 ) ;
#360 = CIRCLE ( 'NONE', #359, 6.099999999999999600 ) ;
#361 = CARTESIAN_POINT ( 'NONE',  ( 7.470098758316501100E-016, 0.0000000000000000000, 6.099999999999999600 ) ) ;
#362 = CARTESIAN_POINT ( 'NONE',  ( 9.368238606741185200E-016, 1.950000000000000000, 7.650000000000000400 ) ) ;
#363 = CARTESIAN_POINT ( 'NONE',  ( 0.0000000000000000000, -4.000000000000000000, -6.099999999999999600 ) ) ;
#364 = DIRECTION ( 'NONE',  ( 0.0000000000000000000, -1.000000000000000000, 0.0000000000000000000 ) ) ;
#365 = VECTOR ( 'NONE', #364, 1000.000000000000000 ) ;
#366 = FACE_OUTER_BOUND ( 'NONE', #60, .T. ) ;
#367 = DIRECTION ( 'NONE',  ( 0.0000000000000000000, 0.0000000000000000000, -1.000000000000000000 ) ) ;
#368 = CARTESIAN_POINT ( 'NONE',  ( 0.0000000000000000000, 0.0000000000000000000, 0.0000000000000000000 ) ) ;
#369 = DIRECTION ( 'NONE',  ( 0.0000000000000000000, -1.000000000000000000, 0.0000000000000000000 ) ) ;
#370 = CARTESIAN_POINT ( 'NONE',  ( 6.123031769111886300E-016, -4.000000000000000000, 5.000000000000000000 ) ) ;
#371 = AXIS2_PLACEMENT_3D ( 'NONE', #368, #343, #354 ) ;
#372 = CARTESIAN_POINT ( 'NONE',  ( 0.0000000000000000000, 1.950000000000000000, 0.0000000000000000000 ) ) ;
#373 = CARTESIAN_POINT ( 'NONE',  ( 0.0000000000000000000, 4.000000000000000000, -5.000000000000000000 ) ) ;
#374 = FACE_BOUND ( 'NONE', #80, .T. ) ;
#375 = CYLINDRICAL_SURFACE ( 'NONE', #457, 5.000000000000000000 ) ;
#376 = CARTESIAN_POINT ( 'NONE',  ( 7.470098758316501100E-016, 0.0000000000000000000, 6.099999999999999600 ) ) ;
#377 = AXIS2_PLACEMENT_3D ( 'NONE', #382, #381, #380 ) ;
#378 = CARTESIAN_POINT ( 'NONE',  ( 0.0000000000000000000, 4.000000000000000000, 0.0000000000000000000 ) ) ;
#379 = FACE_BOUND ( 'NONE', #132, .T. ) ;
#380 = DIRECTION ( 'NONE',  ( 0.0000000000000000000, 0.0000000000000000000, -1.000000000000000000 ) ) ;
#381 = DIRECTION ( 'NONE',  ( 0.0000000000000000000, -1.000000000000000000, 0.0000000000000000000 ) ) ;
#382 = CARTESIAN_POINT ( 'NONE',  ( 5.000000000000000000, -4.000000000000000000, 0.0000000000000000000 ) ) ;
#383 = CIRCLE ( 'NONE', #451, 5.000000000000000000 ) ;
#384 = DIRECTION ( 'NONE',  ( 0.0000000000000000000, 0.0000000000000000000, -1.000000000000000000 ) ) ;
#385 = DIRECTION ( 'NONE',  ( 0.0000000000000000000, -1.000000000000000000, 0.0000000000000000000 ) ) ;
#386 = DIRECTION ( 'NONE',  ( 0.0000000000000000000, -1.000000000000000000, 0.0000000000000000000 ) ) ;
#387 = CARTESIAN_POINT ( 'NONE',  ( 0.0000000000000000000, -1.950000000000000000, 0.0000000000000000000 ) ) ;
#388 = AXIS2_PLACEMENT_3D ( 'NONE', #387, #386, #444 ) ;
#389 = CIRCLE ( 'NONE', #388, 6.099999999999999600 ) ;
#390 = FACE_OUTER_BOUND ( 'NONE', #109, .T. ) ;
#391 = LINE ( 'NONE', #460, #461 ) ;
#392 = DIRECTION ( 'NONE',  ( 0.0000000000000000000, 0.0000000000000000000, -1.000000000000000000 ) ) ;
#393 = AXIS2_PLACEMENT_3D ( 'NONE', #378, #401, #400 ) ;
#394 = CIRCLE ( 'NONE', #393, 6.099999999999999600 ) ;
#395 = DIRECTION ( 'NONE',  ( 0.0000000000000000000, 0.0000000000000000000, -1.000000000000000000 ) ) ;
#396 = DIRECTION ( 'NONE',  ( 0.0000000000000000000, -1.000000000000000000, 0.0000000000000000000 ) ) ;
#397 = AXIS2_PLACEMENT_3D ( 'NONE', #437, #396, #395 ) ;
#398 = CIRCLE ( 'NONE', #397, 5.000000000000000000 ) ;
#399 = FACE_BOUND ( 'NONE', #117, .T. ) ;
#400 = DIRECTION ( 'NONE',  ( 0.0000000000000000000, 0.0000000000000000000, -1.000000000000000000 ) ) ;
#401 = DIRECTION ( 'NONE',  ( 0.0000000000000000000, -1.000000000000000000, 0.0000000000000000000 ) ) ;
#402 = DIRECTION ( 'NONE',  ( 0.0000000000000000000, -1.000000000000000000, 0.0000000000000000000 ) ) ;
#403 = AXIS2_PLACEMENT_3D ( 'NONE', #432, #385, #384 ) ;
#404 = DIRECTION ( 'NONE',  ( 0.0000000000000000000, 0.0000000000000000000, -1.000000000000000000 ) ) ;
#405 = DIRECTION ( 'NONE',  ( 0.0000000000000000000, -1.000000000000000000, 0.0000000000000000000 ) ) ;
#406 = CARTESIAN_POINT ( 'NONE',  ( 0.0000000000000000000, -4.000000000000000000, 0.0000000000000000000 ) ) ;
#407 = AXIS2_PLACEMENT_3D ( 'NONE', #406, #405, #404 ) ;
#408 = LINE ( 'NONE', #463, #462 ) ;
#409 = PLANE ( 'NONE',  #377 ) ;
#410 = CARTESIAN_POINT ( 'NONE',  ( 0.0000000000000000000, -4.000000000000000000, -5.000000000000000000 ) ) ;
#411 = CARTESIAN_POINT ( 'NONE',  ( 6.123031769111886300E-016, 4.000000000000000000, 5.000000000000000000 ) ) ;
#412 = CARTESIAN_POINT ( 'NONE',  ( 0.0000000000000000000, -4.000000000000000000, 0.0000000000000000000 ) ) ;
#413 = AXIS2_PLACEMENT_3D ( 'NONE', #412, #434, #433 ) ;
#414 = CIRCLE ( 'NONE', #413, 5.000000000000000000 ) ;
#415 = DIRECTION ( 'NONE',  ( 0.0000000000000000000, 0.0000000000000000000, 1.000000000000000000 ) ) ;
#416 = DIRECTION ( 'NONE',  ( 0.0000000000000000000, 1.000000000000000000, 0.0000000000000000000 ) ) ;
#417 = CARTESIAN_POINT ( 'NONE',  ( 0.0000000000000000000, -1.950000000000000000, -6.099999999999999600 ) ) ;
#418 = CARTESIAN_POINT ( 'NONE',  ( 0.0000000000000000000, 0.0000000000000000000, 0.0000000000000000000 ) ) ;
#419 = CYLINDRICAL_SURFACE ( 'NONE', #423, 6.099999999999999600 ) ;
#420 = DIRECTION ( 'NONE',  ( 0.0000000000000000000, -1.000000000000000000, 0.0000000000000000000 ) ) ;
#421 = FACE_OUTER_BOUND ( 'NONE', #127, .T. ) ;
#422 = DIRECTION ( 'NONE',  ( 0.0000000000000000000, 0.0000000000000000000, -1.000000000000000000 ) ) ;
#423 = AXIS2_PLACEMENT_3D ( 'NONE', #418, #420, #422 ) ;
#424 = PLANE ( 'NONE',  #453 ) ;
#425 = ADVANCED_BREP_SHAPE_REPRESENTATION ( '1', ( #12, #325 ), #426 ) ;
#426 =( GEOMETRIC_REPRESENTATION_CONTEXT ( 3 ) GLOBAL_UNCERTAINTY_ASSIGNED_CONTEXT ( ( #427 ) ) GLOBAL_UNIT_ASSIGNED_CONTEXT ( ( #430, #429, #428 ) ) REPRESENTATION_CONTEXT ( 'NONE', 'WORKASPACE' ) );
#427 = UNCERTAINTY_MEASURE_WITH_UNIT (LENGTH_MEASURE( 1.000000000000000100E-005 ), #430, 'distance_accuracy_value', 'NONE');
#428 =( NAMED_UNIT ( * ) SI_UNIT ( $, .STERADIAN. ) SOLID_ANGLE_UNIT ( ) );
#429 =( NAMED_UNIT ( * ) PLANE_ANGLE_UNIT ( ) SI_UNIT ( $, .RADIAN. ) );
#430 =( LENGTH_UNIT ( ) NAMED_UNIT ( * ) SI_UNIT ( .MILLI., .METRE. ) );
#431 = DIRECTION ( 'NONE',  ( 0.0000000000000000000, -1.000000000000000000, 0.0000000000000000000 ) ) ;
#432 = CARTESIAN_POINT ( 'NONE',  ( 0.0000000000000000000, 0.0000000000000000000, 0.0000000000000000000 ) ) ;
#433 = DIRECTION ( 'NONE',  ( 0.0000000000000000000, 0.0000000000000000000, -1.000000000000000000 ) ) ;
#434 = DIRECTION ( 'NONE',  ( 0.0000000000000000000, -1.000000000000000000, 0.0000000000000000000 ) ) ;
#435 = CYLINDRICAL_SURFACE ( 'NONE', #403, 5.000000000000000000 ) ;
#436 = FACE_OUTER_BOUND ( 'NONE', #112, .T. ) ;
#437 = CARTESIAN_POINT ( 'NONE',  ( 0.0000000000000000000, 4.000000000000000000, 0.0000000000000000000 ) ) ;
#438 = LINE ( 'NONE', #376, #448 ) ;
#439 = DIRECTION ( 'NONE',  ( 0.0000000000000000000, 0.0000000000000000000, -1.000000000000000000 ) ) ;
#440 = DIRECTION ( 'NONE',  ( 0.0000000000000000000, -1.000000000000000000, 0.0000000000000000000 ) ) ;
#441 = CARTESIAN_POINT ( 'NONE',  ( 0.0000000000000000000, 1.950000000000000200, 0.0000000000000000000 ) ) ;
#442 = AXIS2_PLACEMENT_3D ( 'NONE', #441, #440, #439 ) ;
#443 = CIRCLE ( 'NONE', #442, 7.650000000000000400 ) ;
#444 = DIRECTION ( 'NONE',  ( 0.0000000000000000000, 0.0000000000000000000, -1.000000000000000000 ) ) ;
#445 = CIRCLE ( 'NONE', #407, 5.000000000000000000 ) ;
#446 = FACE_OUTER_BOUND ( 'NONE', #123, .T. ) ;
#447 = FACE_OUTER_BOUND ( 'NONE', #90, .T. ) ;
#448 = VECTOR ( 'NONE', #431, 1000.000000000000000 ) ;
#449 = DIRECTION ( 'NONE',  ( 0.0000000000000000000, -1.000000000000000000, 0.0000000000000000000 ) ) ;
#450 = CARTESIAN_POINT ( 'NONE',  ( 0.0000000000000000000, 4.000000000000000000, 0.0000000000000000000 ) ) ;
#451 = AXIS2_PLACEMENT_3D ( 'NONE', #450, #449, #392 ) ;
#452 = CARTESIAN_POINT ( 'NONE',  ( 5.000000000000000000, 4.000000000000000000, 0.0000000000000000000 ) ) ;
#453 = AXIS2_PLACEMENT_3D ( 'NONE', #452, #416, #415 ) ;
#454 = DIRECTION ( 'NONE',  ( 0.0000000000000000000, 0.0000000000000000000, -1.000000000000000000 ) ) ;
#455 = DIRECTION ( 'NONE',  ( 0.0000000000000000000, -1.000000000000000000, 0.0000000000000000000 ) ) ;
#456 = CARTESIAN_POINT ( 'NONE',  ( 0.0000000000000000000, 0.0000000000000000000, 0.0000000000000000000 ) ) ;
#457 = AXIS2_PLACEMENT_3D ( 'NONE', #456, #455, #454 ) ;
#458 = CARTESIAN_POINT ( 'NONE',  ( 7.470098758316501100E-016, -4.000000000000000000, 6.099999999999999600 ) ) ;
#459 = DIRECTION ( 'NONE',  ( 0.0000000000000000000, -1.000000000000000000, 0.0000000000000000000 ) ) ;
#460 = CARTESIAN_POINT ( 'NONE',  ( 6.123031769111886300E-016, 0.0000000000000000000, 5.000000000000000000 ) ) ;
#461 = VECTOR ( 'NONE', #459, 1000.000000000000000 ) ;
#462 = VECTOR ( 'NONE', #402, 1000.000000000000000 ) ;
#463 = CARTESIAN_POINT ( 'NONE',  ( 0.0000000000000000000, 0.0000000000000000000, -5.000000000000000000 ) ) ;
ENDSEC;
END-ISO-10303-21;
