ISO-10303-21;
HEADER;
/* Generated by software containing HOOPS Exchange Step
 * from HOOPS Exchange, Inc. (www.tiangong.cloud) 
 */

FILE_DESCRIPTION(
/* description */ ('Unknown'),
/* implementation_level */ '2;1');

FILE_NAME(
/* name */ '\X2\7A819762FF08\X0\RF\X2\FF09677F5F0F5E73710A94A252367BA16CD55170\X0\',

/* time_stamp */ '2026-01-30T15:56:49+08:00',
/* author */ ('Unknown'),
/* organization */ ('Unknown'),
/* preprocessor_version */ 'ST-DEVELOPER v19.4',
/* originating_system */ 'TianGong',
/* authorisation */ 'Unknown');

FILE_SCHEMA (('AUTOMOTIVE_DESIGN {1 0 10303 214 3 1 1}'));
ENDSEC;

DATA;
#10=PROPERTY_DEFINITION_REPRESENTATION(#14,#12);
#11=PROPERTY_DEFINITION_REPRESENTATION(#15,#13);
#12=REPRESENTATION('',(#16),#1267);
#13=REPRESENTATION('',(#17),#1267);
#14=PROPERTY_DEFINITION('pmi validation property','',#1272);
#15=PROPERTY_DEFINITION('pmi validation property','',#1272);
#16=VALUE_REPRESENTATION_ITEM('number of annotations',COUNT_MEASURE(0.));
#17=VALUE_REPRESENTATION_ITEM('number of views',COUNT_MEASURE(0.));
#18=SHAPE_REPRESENTATION_RELATIONSHIP('','',#708,#19);
#19=ADVANCED_BREP_SHAPE_REPRESENTATION('',(#706),#1267);
#20=CONICAL_SURFACE('',#832,555.,0.950546840812068);
#21=PLANE('',#797);
#22=PLANE('',#827);
#23=PLANE('',#830);
#24=ORIENTED_EDGE('',*,*,#202,.F.);
#25=ORIENTED_EDGE('',*,*,#203,.F.);
#26=ORIENTED_EDGE('',*,*,#204,.F.);
#27=ORIENTED_EDGE('',*,*,#205,.F.);
#28=ORIENTED_EDGE('',*,*,#206,.F.);
#29=ORIENTED_EDGE('',*,*,#207,.F.);
#30=ORIENTED_EDGE('',*,*,#208,.F.);
#31=ORIENTED_EDGE('',*,*,#209,.F.);
#32=ORIENTED_EDGE('',*,*,#210,.F.);
#33=ORIENTED_EDGE('',*,*,#211,.F.);
#34=ORIENTED_EDGE('',*,*,#212,.F.);
#35=ORIENTED_EDGE('',*,*,#213,.F.);
#36=ORIENTED_EDGE('',*,*,#214,.F.);
#37=ORIENTED_EDGE('',*,*,#215,.F.);
#38=ORIENTED_EDGE('',*,*,#216,.F.);
#39=ORIENTED_EDGE('',*,*,#217,.F.);
#40=ORIENTED_EDGE('',*,*,#218,.F.);
#41=ORIENTED_EDGE('',*,*,#219,.F.);
#42=ORIENTED_EDGE('',*,*,#220,.F.);
#43=ORIENTED_EDGE('',*,*,#221,.F.);
#44=ORIENTED_EDGE('',*,*,#222,.F.);
#45=ORIENTED_EDGE('',*,*,#223,.F.);
#46=ORIENTED_EDGE('',*,*,#224,.F.);
#47=ORIENTED_EDGE('',*,*,#225,.F.);
#48=ORIENTED_EDGE('',*,*,#226,.F.);
#49=ORIENTED_EDGE('',*,*,#227,.F.);
#50=ORIENTED_EDGE('',*,*,#228,.F.);
#51=ORIENTED_EDGE('',*,*,#229,.F.);
#52=ORIENTED_EDGE('',*,*,#230,.F.);
#53=ORIENTED_EDGE('',*,*,#231,.F.);
#54=ORIENTED_EDGE('',*,*,#232,.F.);
#55=ORIENTED_EDGE('',*,*,#233,.F.);
#56=ORIENTED_EDGE('',*,*,#234,.F.);
#57=ORIENTED_EDGE('',*,*,#235,.F.);
#58=ORIENTED_EDGE('',*,*,#236,.F.);
#59=ORIENTED_EDGE('',*,*,#237,.F.);
#60=ORIENTED_EDGE('',*,*,#238,.F.);
#61=ORIENTED_EDGE('',*,*,#239,.F.);
#62=ORIENTED_EDGE('',*,*,#240,.F.);
#63=ORIENTED_EDGE('',*,*,#241,.F.);
#64=ORIENTED_EDGE('',*,*,#242,.F.);
#65=ORIENTED_EDGE('',*,*,#243,.F.);
#66=ORIENTED_EDGE('',*,*,#244,.F.);
#67=ORIENTED_EDGE('',*,*,#245,.F.);
#68=ORIENTED_EDGE('',*,*,#246,.F.);
#69=ORIENTED_EDGE('',*,*,#247,.F.);
#70=ORIENTED_EDGE('',*,*,#248,.F.);
#71=ORIENTED_EDGE('',*,*,#249,.F.);
#72=ORIENTED_EDGE('',*,*,#250,.F.);
#73=ORIENTED_EDGE('',*,*,#251,.F.);
#74=ORIENTED_EDGE('',*,*,#252,.F.);
#75=ORIENTED_EDGE('',*,*,#253,.F.);
#76=ORIENTED_EDGE('',*,*,#254,.F.);
#77=ORIENTED_EDGE('',*,*,#255,.F.);
#78=ORIENTED_EDGE('',*,*,#256,.F.);
#79=ORIENTED_EDGE('',*,*,#257,.T.);
#80=ORIENTED_EDGE('',*,*,#258,.T.);
#81=ORIENTED_EDGE('',*,*,#259,.F.);
#82=ORIENTED_EDGE('',*,*,#214,.T.);
#83=ORIENTED_EDGE('',*,*,#260,.T.);
#84=ORIENTED_EDGE('',*,*,#212,.T.);
#85=ORIENTED_EDGE('',*,*,#261,.T.);
#86=ORIENTED_EDGE('',*,*,#210,.T.);
#87=ORIENTED_EDGE('',*,*,#262,.T.);
#88=ORIENTED_EDGE('',*,*,#208,.T.);
#89=ORIENTED_EDGE('',*,*,#263,.T.);
#90=ORIENTED_EDGE('',*,*,#206,.T.);
#91=ORIENTED_EDGE('',*,*,#264,.T.);
#92=ORIENTED_EDGE('',*,*,#204,.T.);
#93=ORIENTED_EDGE('',*,*,#265,.T.);
#94=ORIENTED_EDGE('',*,*,#202,.T.);
#95=ORIENTED_EDGE('',*,*,#266,.T.);
#96=ORIENTED_EDGE('',*,*,#267,.T.);
#97=ORIENTED_EDGE('',*,*,#268,.T.);
#98=ORIENTED_EDGE('',*,*,#254,.T.);
#99=ORIENTED_EDGE('',*,*,#269,.T.);
#100=ORIENTED_EDGE('',*,*,#252,.T.);
#101=ORIENTED_EDGE('',*,*,#270,.T.);
#102=ORIENTED_EDGE('',*,*,#250,.T.);
#103=ORIENTED_EDGE('',*,*,#271,.T.);
#104=ORIENTED_EDGE('',*,*,#248,.T.);
#105=ORIENTED_EDGE('',*,*,#272,.T.);
#106=ORIENTED_EDGE('',*,*,#246,.T.);
#107=ORIENTED_EDGE('',*,*,#273,.T.);
#108=ORIENTED_EDGE('',*,*,#244,.T.);
#109=ORIENTED_EDGE('',*,*,#274,.T.);
#110=ORIENTED_EDGE('',*,*,#242,.T.);
#111=ORIENTED_EDGE('',*,*,#275,.T.);
#112=ORIENTED_EDGE('',*,*,#240,.T.);
#113=ORIENTED_EDGE('',*,*,#276,.T.);
#114=ORIENTED_EDGE('',*,*,#238,.T.);
#115=ORIENTED_EDGE('',*,*,#277,.T.);
#116=ORIENTED_EDGE('',*,*,#236,.T.);
#117=ORIENTED_EDGE('',*,*,#278,.T.);
#118=ORIENTED_EDGE('',*,*,#234,.T.);
#119=ORIENTED_EDGE('',*,*,#279,.T.);
#120=ORIENTED_EDGE('',*,*,#232,.T.);
#121=ORIENTED_EDGE('',*,*,#280,.T.);
#122=ORIENTED_EDGE('',*,*,#230,.T.);
#123=ORIENTED_EDGE('',*,*,#281,.T.);
#124=ORIENTED_EDGE('',*,*,#228,.T.);
#125=ORIENTED_EDGE('',*,*,#282,.T.);
#126=ORIENTED_EDGE('',*,*,#226,.T.);
#127=ORIENTED_EDGE('',*,*,#283,.T.);
#128=ORIENTED_EDGE('',*,*,#224,.T.);
#129=ORIENTED_EDGE('',*,*,#284,.T.);
#130=ORIENTED_EDGE('',*,*,#222,.T.);
#131=ORIENTED_EDGE('',*,*,#285,.T.);
#132=ORIENTED_EDGE('',*,*,#220,.T.);
#133=ORIENTED_EDGE('',*,*,#286,.T.);
#134=ORIENTED_EDGE('',*,*,#218,.T.);
#135=ORIENTED_EDGE('',*,*,#287,.T.);
#136=ORIENTED_EDGE('',*,*,#216,.T.);
#137=ORIENTED_EDGE('',*,*,#288,.T.);
#138=ORIENTED_EDGE('',*,*,#258,.F.);
#139=ORIENTED_EDGE('',*,*,#203,.T.);
#140=ORIENTED_EDGE('',*,*,#205,.T.);
#141=ORIENTED_EDGE('',*,*,#207,.T.);
#142=ORIENTED_EDGE('',*,*,#209,.T.);
#143=ORIENTED_EDGE('',*,*,#211,.T.);
#144=ORIENTED_EDGE('',*,*,#213,.T.);
#145=ORIENTED_EDGE('',*,*,#215,.T.);
#146=ORIENTED_EDGE('',*,*,#217,.T.);
#147=ORIENTED_EDGE('',*,*,#219,.T.);
#148=ORIENTED_EDGE('',*,*,#221,.T.);
#149=ORIENTED_EDGE('',*,*,#223,.T.);
#150=ORIENTED_EDGE('',*,*,#225,.T.);
#151=ORIENTED_EDGE('',*,*,#227,.T.);
#152=ORIENTED_EDGE('',*,*,#229,.T.);
#153=ORIENTED_EDGE('',*,*,#231,.T.);
#154=ORIENTED_EDGE('',*,*,#233,.T.);
#155=ORIENTED_EDGE('',*,*,#235,.T.);
#156=ORIENTED_EDGE('',*,*,#237,.T.);
#157=ORIENTED_EDGE('',*,*,#239,.T.);
#158=ORIENTED_EDGE('',*,*,#241,.T.);
#159=ORIENTED_EDGE('',*,*,#243,.T.);
#160=ORIENTED_EDGE('',*,*,#245,.T.);
#161=ORIENTED_EDGE('',*,*,#247,.T.);
#162=ORIENTED_EDGE('',*,*,#249,.T.);
#163=ORIENTED_EDGE('',*,*,#251,.T.);
#164=ORIENTED_EDGE('',*,*,#253,.T.);
#165=ORIENTED_EDGE('',*,*,#255,.T.);
#166=ORIENTED_EDGE('',*,*,#289,.T.);
#167=ORIENTED_EDGE('',*,*,#257,.F.);
#168=ORIENTED_EDGE('',*,*,#259,.T.);
#169=ORIENTED_EDGE('',*,*,#267,.F.);
#170=ORIENTED_EDGE('',*,*,#289,.F.);
#171=ORIENTED_EDGE('',*,*,#290,.F.);
#172=ORIENTED_EDGE('',*,*,#256,.T.);
#173=ORIENTED_EDGE('',*,*,#260,.F.);
#174=ORIENTED_EDGE('',*,*,#288,.F.);
#175=ORIENTED_EDGE('',*,*,#287,.F.);
#176=ORIENTED_EDGE('',*,*,#286,.F.);
#177=ORIENTED_EDGE('',*,*,#285,.F.);
#178=ORIENTED_EDGE('',*,*,#284,.F.);
#179=ORIENTED_EDGE('',*,*,#283,.F.);
#180=ORIENTED_EDGE('',*,*,#282,.F.);
#181=ORIENTED_EDGE('',*,*,#281,.F.);
#182=ORIENTED_EDGE('',*,*,#280,.F.);
#183=ORIENTED_EDGE('',*,*,#279,.F.);
#184=ORIENTED_EDGE('',*,*,#278,.F.);
#185=ORIENTED_EDGE('',*,*,#277,.F.);
#186=ORIENTED_EDGE('',*,*,#276,.F.);
#187=ORIENTED_EDGE('',*,*,#275,.F.);
#188=ORIENTED_EDGE('',*,*,#274,.F.);
#189=ORIENTED_EDGE('',*,*,#273,.F.);
#190=ORIENTED_EDGE('',*,*,#272,.F.);
#191=ORIENTED_EDGE('',*,*,#271,.F.);
#192=ORIENTED_EDGE('',*,*,#270,.F.);
#193=ORIENTED_EDGE('',*,*,#269,.F.);
#194=ORIENTED_EDGE('',*,*,#268,.F.);
#195=ORIENTED_EDGE('',*,*,#266,.F.);
#196=ORIENTED_EDGE('',*,*,#265,.F.);
#197=ORIENTED_EDGE('',*,*,#264,.F.);
#198=ORIENTED_EDGE('',*,*,#263,.F.);
#199=ORIENTED_EDGE('',*,*,#262,.F.);
#200=ORIENTED_EDGE('',*,*,#261,.F.);
#201=ORIENTED_EDGE('',*,*,#290,.T.);
#202=EDGE_CURVE('',#291,#291,#352,.T.);
#203=EDGE_CURVE('',#292,#292,#353,.F.);
#204=EDGE_CURVE('',#293,#293,#354,.T.);
#205=EDGE_CURVE('',#294,#294,#355,.F.);
#206=EDGE_CURVE('',#295,#295,#356,.T.);
#207=EDGE_CURVE('',#296,#296,#357,.F.);
#208=EDGE_CURVE('',#297,#297,#358,.T.);
#209=EDGE_CURVE('',#298,#298,#359,.F.);
#210=EDGE_CURVE('',#299,#299,#360,.T.);
#211=EDGE_CURVE('',#300,#300,#361,.F.);
#212=EDGE_CURVE('',#301,#301,#362,.T.);
#213=EDGE_CURVE('',#302,#302,#363,.F.);
#214=EDGE_CURVE('',#303,#303,#364,.T.);
#215=EDGE_CURVE('',#304,#304,#365,.F.);
#216=EDGE_CURVE('',#305,#305,#366,.T.);
#217=EDGE_CURVE('',#306,#306,#367,.F.);
#218=EDGE_CURVE('',#307,#307,#368,.T.);
#219=EDGE_CURVE('',#308,#308,#369,.F.);
#220=EDGE_CURVE('',#309,#309,#370,.T.);
#221=EDGE_CURVE('',#310,#310,#371,.F.);
#222=EDGE_CURVE('',#311,#311,#372,.T.);
#223=EDGE_CURVE('',#312,#312,#373,.F.);
#224=EDGE_CURVE('',#313,#313,#374,.T.);
#225=EDGE_CURVE('',#314,#314,#375,.F.);
#226=EDGE_CURVE('',#315,#315,#376,.T.);
#227=EDGE_CURVE('',#316,#316,#377,.F.);
#228=EDGE_CURVE('',#317,#317,#378,.T.);
#229=EDGE_CURVE('',#318,#318,#379,.F.);
#230=EDGE_CURVE('',#319,#319,#380,.T.);
#231=EDGE_CURVE('',#320,#320,#381,.F.);
#232=EDGE_CURVE('',#321,#321,#382,.T.);
#233=EDGE_CURVE('',#322,#322,#383,.F.);
#234=EDGE_CURVE('',#323,#323,#384,.T.);
#235=EDGE_CURVE('',#324,#324,#385,.F.);
#236=EDGE_CURVE('',#325,#325,#386,.T.);
#237=EDGE_CURVE('',#326,#326,#387,.F.);
#238=EDGE_CURVE('',#327,#327,#388,.T.);
#239=EDGE_CURVE('',#328,#328,#389,.F.);
#240=EDGE_CURVE('',#329,#329,#390,.T.);
#241=EDGE_CURVE('',#330,#330,#391,.F.);
#242=EDGE_CURVE('',#331,#331,#392,.T.);
#243=EDGE_CURVE('',#332,#332,#393,.F.);
#244=EDGE_CURVE('',#333,#333,#394,.T.);
#245=EDGE_CURVE('',#334,#334,#395,.F.);
#246=EDGE_CURVE('',#335,#335,#396,.T.);
#247=EDGE_CURVE('',#336,#336,#397,.F.);
#248=EDGE_CURVE('',#337,#337,#398,.T.);
#249=EDGE_CURVE('',#338,#338,#399,.F.);
#250=EDGE_CURVE('',#339,#339,#400,.T.);
#251=EDGE_CURVE('',#340,#340,#401,.F.);
#252=EDGE_CURVE('',#341,#341,#402,.T.);
#253=EDGE_CURVE('',#342,#342,#403,.F.);
#254=EDGE_CURVE('',#343,#343,#404,.T.);
#255=EDGE_CURVE('',#344,#344,#405,.F.);
#256=EDGE_CURVE('',#345,#345,#406,.T.);
#257=EDGE_CURVE('',#346,#346,#407,.T.);
#258=EDGE_CURVE('',#347,#347,#408,.T.);
#259=EDGE_CURVE('',#348,#348,#409,.T.);
#260=EDGE_CURVE('',#303,#301,#410,.T.);
#261=EDGE_CURVE('',#301,#299,#411,.T.);
#262=EDGE_CURVE('',#299,#297,#412,.T.);
#263=EDGE_CURVE('',#297,#295,#413,.T.);
#264=EDGE_CURVE('',#295,#293,#414,.T.);
#265=EDGE_CURVE('',#293,#291,#415,.T.);
#266=EDGE_CURVE('',#291,#349,#416,.T.);
#267=EDGE_CURVE('',#349,#349,#417,.T.);
#268=EDGE_CURVE('',#349,#343,#418,.T.);
#269=EDGE_CURVE('',#343,#341,#419,.T.);
#270=EDGE_CURVE('',#341,#339,#420,.T.);
#271=EDGE_CURVE('',#339,#337,#421,.T.);
#272=EDGE_CURVE('',#337,#335,#422,.T.);
#273=EDGE_CURVE('',#335,#333,#423,.T.);
#274=EDGE_CURVE('',#333,#331,#424,.T.);
#275=EDGE_CURVE('',#331,#329,#425,.T.);
#276=EDGE_CURVE('',#329,#327,#426,.T.);
#277=EDGE_CURVE('',#327,#325,#427,.T.);
#278=EDGE_CURVE('',#325,#323,#428,.T.);
#279=EDGE_CURVE('',#323,#321,#429,.T.);
#280=EDGE_CURVE('',#321,#319,#430,.T.);
#281=EDGE_CURVE('',#319,#317,#431,.T.);
#282=EDGE_CURVE('',#317,#315,#432,.T.);
#283=EDGE_CURVE('',#315,#313,#433,.T.);
#284=EDGE_CURVE('',#313,#311,#434,.T.);
#285=EDGE_CURVE('',#311,#309,#435,.T.);
#286=EDGE_CURVE('',#309,#307,#436,.T.);
#287=EDGE_CURVE('',#307,#305,#437,.T.);
#288=EDGE_CURVE('',#305,#303,#438,.T.);
#289=EDGE_CURVE('',#350,#350,#439,.F.);
#290=EDGE_CURVE('',#351,#351,#440,.T.);
#291=VERTEX_POINT('',#1084);
#292=VERTEX_POINT('',#1086);
#293=VERTEX_POINT('',#1089);
#294=VERTEX_POINT('',#1091);
#295=VERTEX_POINT('',#1094);
#296=VERTEX_POINT('',#1096);
#297=VERTEX_POINT('',#1099);
#298=VERTEX_POINT('',#1101);
#299=VERTEX_POINT('',#1104);
#300=VERTEX_POINT('',#1106);
#301=VERTEX_POINT('',#1109);
#302=VERTEX_POINT('',#1111);
#303=VERTEX_POINT('',#1114);
#304=VERTEX_POINT('',#1116);
#305=VERTEX_POINT('',#1119);
#306=VERTEX_POINT('',#1121);
#307=VERTEX_POINT('',#1124);
#308=VERTEX_POINT('',#1126);
#309=VERTEX_POINT('',#1129);
#310=VERTEX_POINT('',#1131);
#311=VERTEX_POINT('',#1134);
#312=VERTEX_POINT('',#1136);
#313=VERTEX_POINT('',#1139);
#314=VERTEX_POINT('',#1141);
#315=VERTEX_POINT('',#1144);
#316=VERTEX_POINT('',#1146);
#317=VERTEX_POINT('',#1149);
#318=VERTEX_POINT('',#1151);
#319=VERTEX_POINT('',#1154);
#320=VERTEX_POINT('',#1156);
#321=VERTEX_POINT('',#1159);
#322=VERTEX_POINT('',#1161);
#323=VERTEX_POINT('',#1164);
#324=VERTEX_POINT('',#1166);
#325=VERTEX_POINT('',#1169);
#326=VERTEX_POINT('',#1171);
#327=VERTEX_POINT('',#1174);
#328=VERTEX_POINT('',#1176);
#329=VERTEX_POINT('',#1179);
#330=VERTEX_POINT('',#1181);
#331=VERTEX_POINT('',#1184);
#332=VERTEX_POINT('',#1186);
#333=VERTEX_POINT('',#1189);
#334=VERTEX_POINT('',#1191);
#335=VERTEX_POINT('',#1194);
#336=VERTEX_POINT('',#1196);
#337=VERTEX_POINT('',#1199);
#338=VERTEX_POINT('',#1201);
#339=VERTEX_POINT('',#1204);
#340=VERTEX_POINT('',#1206);
#341=VERTEX_POINT('',#1209);
#342=VERTEX_POINT('',#1211);
#343=VERTEX_POINT('',#1214);
#344=VERTEX_POINT('',#1216);
#345=VERTEX_POINT('',#1219);
#346=VERTEX_POINT('',#1221);
#347=VERTEX_POINT('',#1224);
#348=VERTEX_POINT('',#1226);
#349=VERTEX_POINT('',#1235);
#350=VERTEX_POINT('',#1260);
#351=VERTEX_POINT('',#1264);
#352=CIRCLE('',#711,18.);
#353=CIRCLE('',#712,18.);
#354=CIRCLE('',#714,18.);
#355=CIRCLE('',#715,18.);
#356=CIRCLE('',#717,18.);
#357=CIRCLE('',#718,18.);
#358=CIRCLE('',#720,18.);
#359=CIRCLE('',#721,18.);
#360=CIRCLE('',#723,18.);
#361=CIRCLE('',#724,18.);
#362=CIRCLE('',#726,18.);
#363=CIRCLE('',#727,18.);
#364=CIRCLE('',#729,18.);
#365=CIRCLE('',#730,18.);
#366=CIRCLE('',#732,18.);
#367=CIRCLE('',#733,18.);
#368=CIRCLE('',#735,18.);
#369=CIRCLE('',#736,18.);
#370=CIRCLE('',#738,18.);
#371=CIRCLE('',#739,18.);
#372=CIRCLE('',#741,18.);
#373=CIRCLE('',#742,18.);
#374=CIRCLE('',#744,18.);
#375=CIRCLE('',#745,18.);
#376=CIRCLE('',#747,18.);
#377=CIRCLE('',#748,18.);
#378=CIRCLE('',#750,18.);
#379=CIRCLE('',#751,18.);
#380=CIRCLE('',#753,18.);
#381=CIRCLE('',#754,18.);
#382=CIRCLE('',#756,18.);
#383=CIRCLE('',#757,18.);
#384=CIRCLE('',#759,18.);
#385=CIRCLE('',#760,18.);
#386=CIRCLE('',#762,18.);
#387=CIRCLE('',#763,18.);
#388=CIRCLE('',#765,18.);
#389=CIRCLE('',#766,18.);
#390=CIRCLE('',#768,18.);
#391=CIRCLE('',#769,18.);
#392=CIRCLE('',#771,18.);
#393=CIRCLE('',#772,18.);
#394=CIRCLE('',#774,18.);
#395=CIRCLE('',#775,18.);
#396=CIRCLE('',#777,18.);
#397=CIRCLE('',#778,18.);
#398=CIRCLE('',#780,18.);
#399=CIRCLE('',#781,18.);
#400=CIRCLE('',#783,18.);
#401=CIRCLE('',#784,18.);
#402=CIRCLE('',#786,18.);
#403=CIRCLE('',#787,18.);
#404=CIRCLE('',#789,18.);
#405=CIRCLE('',#790,18.);
#406=CIRCLE('',#792,510.);
#407=CIRCLE('',#793,510.);
#408=CIRCLE('',#795,615.);
#409=CIRCLE('',#796,615.);
#410=CIRCLE('',#798,562.);
#411=CIRCLE('',#799,562.);
#412=CIRCLE('',#800,562.);
#413=CIRCLE('',#801,562.);
#414=CIRCLE('',#802,562.);
#415=CIRCLE('',#803,562.);
#416=CIRCLE('',#804,562.);
#417=CIRCLE('',#805,18.);
#418=CIRCLE('',#806,562.);
#419=CIRCLE('',#807,562.);
#420=CIRCLE('',#808,562.);
#421=CIRCLE('',#809,562.);
#422=CIRCLE('',#810,562.);
#423=CIRCLE('',#811,562.);
#424=CIRCLE('',#812,562.);
#425=CIRCLE('',#813,562.);
#426=CIRCLE('',#814,562.);
#427=CIRCLE('',#815,562.);
#428=CIRCLE('',#816,562.);
#429=CIRCLE('',#817,562.);
#430=CIRCLE('',#818,562.);
#431=CIRCLE('',#819,562.);
#432=CIRCLE('',#820,562.);
#433=CIRCLE('',#821,562.);
#434=CIRCLE('',#822,562.);
#435=CIRCLE('',#823,562.);
#436=CIRCLE('',#824,562.);
#437=CIRCLE('',#825,562.);
#438=CIRCLE('',#826,562.);
#439=CIRCLE('',#828,18.);
#440=CIRCLE('',#831,555.);
#441=EDGE_LOOP('',(#24));
#442=EDGE_LOOP('',(#25));
#443=EDGE_LOOP('',(#26));
#444=EDGE_LOOP('',(#27));
#445=EDGE_LOOP('',(#28));
#446=EDGE_LOOP('',(#29));
#447=EDGE_LOOP('',(#30));
#448=EDGE_LOOP('',(#31));
#449=EDGE_LOOP('',(#32));
#450=EDGE_LOOP('',(#33));
#451=EDGE_LOOP('',(#34));
#452=EDGE_LOOP('',(#35));
#453=EDGE_LOOP('',(#36));
#454=EDGE_LOOP('',(#37));
#455=EDGE_LOOP('',(#38));
#456=EDGE_LOOP('',(#39));
#457=EDGE_LOOP('',(#40));
#458=EDGE_LOOP('',(#41));
#459=EDGE_LOOP('',(#42));
#460=EDGE_LOOP('',(#43));
#461=EDGE_LOOP('',(#44));
#462=EDGE_LOOP('',(#45));
#463=EDGE_LOOP('',(#46));
#464=EDGE_LOOP('',(#47));
#465=EDGE_LOOP('',(#48));
#466=EDGE_LOOP('',(#49));
#467=EDGE_LOOP('',(#50));
#468=EDGE_LOOP('',(#51));
#469=EDGE_LOOP('',(#52));
#470=EDGE_LOOP('',(#53));
#471=EDGE_LOOP('',(#54));
#472=EDGE_LOOP('',(#55));
#473=EDGE_LOOP('',(#56));
#474=EDGE_LOOP('',(#57));
#475=EDGE_LOOP('',(#58));
#476=EDGE_LOOP('',(#59));
#477=EDGE_LOOP('',(#60));
#478=EDGE_LOOP('',(#61));
#479=EDGE_LOOP('',(#62));
#480=EDGE_LOOP('',(#63));
#481=EDGE_LOOP('',(#64));
#482=EDGE_LOOP('',(#65));
#483=EDGE_LOOP('',(#66));
#484=EDGE_LOOP('',(#67));
#485=EDGE_LOOP('',(#68));
#486=EDGE_LOOP('',(#69));
#487=EDGE_LOOP('',(#70));
#488=EDGE_LOOP('',(#71));
#489=EDGE_LOOP('',(#72));
#490=EDGE_LOOP('',(#73));
#491=EDGE_LOOP('',(#74));
#492=EDGE_LOOP('',(#75));
#493=EDGE_LOOP('',(#76));
#494=EDGE_LOOP('',(#77));
#495=EDGE_LOOP('',(#78));
#496=EDGE_LOOP('',(#79));
#497=EDGE_LOOP('',(#80));
#498=EDGE_LOOP('',(#81));
#499=EDGE_LOOP('',(#82,#83,#84,#85,#86,#87,#88,#89,#90,#91,#92,#93,#94,
#95,#96,#97,#98,#99,#100,#101,#102,#103,#104,#105,#106,#107,#108,#109,#110,
#111,#112,#113,#114,#115,#116,#117,#118,#119,#120,#121,#122,#123,#124,#125,
#126,#127,#128,#129,#130,#131,#132,#133,#134,#135,#136,#137));
#500=EDGE_LOOP('',(#138));
#501=EDGE_LOOP('',(#139));
#502=EDGE_LOOP('',(#140));
#503=EDGE_LOOP('',(#141));
#504=EDGE_LOOP('',(#142));
#505=EDGE_LOOP('',(#143));
#506=EDGE_LOOP('',(#144));
#507=EDGE_LOOP('',(#145));
#508=EDGE_LOOP('',(#146));
#509=EDGE_LOOP('',(#147));
#510=EDGE_LOOP('',(#148));
#511=EDGE_LOOP('',(#149));
#512=EDGE_LOOP('',(#150));
#513=EDGE_LOOP('',(#151));
#514=EDGE_LOOP('',(#152));
#515=EDGE_LOOP('',(#153));
#516=EDGE_LOOP('',(#154));
#517=EDGE_LOOP('',(#155));
#518=EDGE_LOOP('',(#156));
#519=EDGE_LOOP('',(#157));
#520=EDGE_LOOP('',(#158));
#521=EDGE_LOOP('',(#159));
#522=EDGE_LOOP('',(#160));
#523=EDGE_LOOP('',(#161));
#524=EDGE_LOOP('',(#162));
#525=EDGE_LOOP('',(#163));
#526=EDGE_LOOP('',(#164));
#527=EDGE_LOOP('',(#165));
#528=EDGE_LOOP('',(#166));
#529=EDGE_LOOP('',(#167));
#530=EDGE_LOOP('',(#168));
#531=EDGE_LOOP('',(#169));
#532=EDGE_LOOP('',(#170));
#533=EDGE_LOOP('',(#171));
#534=EDGE_LOOP('',(#172));
#535=EDGE_LOOP('',(#173,#174,#175,#176,#177,#178,#179,#180,#181,#182,#183,
#184,#185,#186,#187,#188,#189,#190,#191,#192,#193,#194,#195,#196,#197,#198,
#199,#200));
#536=EDGE_LOOP('',(#201));
#537=FACE_BOUND('',#441,.T.);
#538=FACE_BOUND('',#442,.T.);
#539=FACE_BOUND('',#443,.T.);
#540=FACE_BOUND('',#444,.T.);
#541=FACE_BOUND('',#445,.T.);
#542=FACE_BOUND('',#446,.T.);
#543=FACE_BOUND('',#447,.T.);
#544=FACE_BOUND('',#448,.T.);
#545=FACE_BOUND('',#449,.T.);
#546=FACE_BOUND('',#450,.T.);
#547=FACE_BOUND('',#451,.T.);
#548=FACE_BOUND('',#452,.T.);
#549=FACE_BOUND('',#453,.T.);
#550=FACE_BOUND('',#454,.T.);
#551=FACE_BOUND('',#455,.T.);
#552=FACE_BOUND('',#456,.T.);
#553=FACE_BOUND('',#457,.T.);
#554=FACE_BOUND('',#458,.T.);
#555=FACE_BOUND('',#459,.T.);
#556=FACE_BOUND('',#460,.T.);
#557=FACE_BOUND('',#461,.T.);
#558=FACE_BOUND('',#462,.T.);
#559=FACE_BOUND('',#463,.T.);
#560=FACE_BOUND('',#464,.T.);
#561=FACE_BOUND('',#465,.T.);
#562=FACE_BOUND('',#466,.T.);
#563=FACE_BOUND('',#467,.T.);
#564=FACE_BOUND('',#468,.T.);
#565=FACE_BOUND('',#469,.T.);
#566=FACE_BOUND('',#470,.T.);
#567=FACE_BOUND('',#471,.T.);
#568=FACE_BOUND('',#472,.T.);
#569=FACE_BOUND('',#473,.T.);
#570=FACE_BOUND('',#474,.T.);
#571=FACE_BOUND('',#475,.T.);
#572=FACE_BOUND('',#476,.T.);
#573=FACE_BOUND('',#477,.T.);
#574=FACE_BOUND('',#478,.T.);
#575=FACE_BOUND('',#479,.T.);
#576=FACE_BOUND('',#480,.T.);
#577=FACE_BOUND('',#481,.T.);
#578=FACE_BOUND('',#482,.T.);
#579=FACE_BOUND('',#483,.T.);
#580=FACE_BOUND('',#484,.T.);
#581=FACE_BOUND('',#485,.T.);
#582=FACE_BOUND('',#486,.T.);
#583=FACE_BOUND('',#487,.T.);
#584=FACE_BOUND('',#488,.T.);
#585=FACE_BOUND('',#489,.T.);
#586=FACE_BOUND('',#490,.T.);
#587=FACE_BOUND('',#491,.T.);
#588=FACE_BOUND('',#492,.T.);
#589=FACE_BOUND('',#493,.T.);
#590=FACE_BOUND('',#494,.T.);
#591=FACE_BOUND('',#495,.T.);
#592=FACE_BOUND('',#496,.T.);
#593=FACE_BOUND('',#497,.T.);
#594=FACE_BOUND('',#498,.T.);
#595=FACE_BOUND('',#499,.T.);
#596=FACE_BOUND('',#500,.T.);
#597=FACE_BOUND('',#501,.T.);
#598=FACE_BOUND('',#502,.T.);
#599=FACE_BOUND('',#503,.T.);
#600=FACE_BOUND('',#504,.T.);
#601=FACE_BOUND('',#505,.T.);
#602=FACE_BOUND('',#506,.T.);
#603=FACE_BOUND('',#507,.T.);
#604=FACE_BOUND('',#508,.T.);
#605=FACE_BOUND('',#509,.T.);
#606=FACE_BOUND('',#510,.T.);
#607=FACE_BOUND('',#511,.T.);
#608=FACE_BOUND('',#512,.T.);
#609=FACE_BOUND('',#513,.T.);
#610=FACE_BOUND('',#514,.T.);
#611=FACE_BOUND('',#515,.T.);
#612=FACE_BOUND('',#516,.T.);
#613=FACE_BOUND('',#517,.T.);
#614=FACE_BOUND('',#518,.T.);
#615=FACE_BOUND('',#519,.T.);
#616=FACE_BOUND('',#520,.T.);
#617=FACE_BOUND('',#521,.T.);
#618=FACE_BOUND('',#522,.T.);
#619=FACE_BOUND('',#523,.T.);
#620=FACE_BOUND('',#524,.T.);
#621=FACE_BOUND('',#525,.T.);
#622=FACE_BOUND('',#526,.T.);
#623=FACE_BOUND('',#527,.T.);
#624=FACE_BOUND('',#528,.T.);
#625=FACE_BOUND('',#529,.T.);
#626=FACE_BOUND('',#530,.T.);
#627=FACE_BOUND('',#531,.T.);
#628=FACE_BOUND('',#532,.T.);
#629=FACE_BOUND('',#533,.T.);
#630=FACE_BOUND('',#534,.T.);
#631=FACE_BOUND('',#535,.T.);
#632=FACE_BOUND('',#536,.T.);
#633=CYLINDRICAL_SURFACE('',#710,18.);
#634=CYLINDRICAL_SURFACE('',#713,18.);
#635=CYLINDRICAL_SURFACE('',#716,18.);
#636=CYLINDRICAL_SURFACE('',#719,18.);
#637=CYLINDRICAL_SURFACE('',#722,18.);
#638=CYLINDRICAL_SURFACE('',#725,18.);
#639=CYLINDRICAL_SURFACE('',#728,18.);
#640=CYLINDRICAL_SURFACE('',#731,18.);
#641=CYLINDRICAL_SURFACE('',#734,18.);
#642=CYLINDRICAL_SURFACE('',#737,18.);
#643=CYLINDRICAL_SURFACE('',#740,18.);
#644=CYLINDRICAL_SURFACE('',#743,18.);
#645=CYLINDRICAL_SURFACE('',#746,18.);
#646=CYLINDRICAL_SURFACE('',#749,18.);
#647=CYLINDRICAL_SURFACE('',#752,18.);
#648=CYLINDRICAL_SURFACE('',#755,18.);
#649=CYLINDRICAL_SURFACE('',#758,18.);
#650=CYLINDRICAL_SURFACE('',#761,18.);
#651=CYLINDRICAL_SURFACE('',#764,18.);
#652=CYLINDRICAL_SURFACE('',#767,18.);
#653=CYLINDRICAL_SURFACE('',#770,18.);
#654=CYLINDRICAL_SURFACE('',#773,18.);
#655=CYLINDRICAL_SURFACE('',#776,18.);
#656=CYLINDRICAL_SURFACE('',#779,18.);
#657=CYLINDRICAL_SURFACE('',#782,18.);
#658=CYLINDRICAL_SURFACE('',#785,18.);
#659=CYLINDRICAL_SURFACE('',#788,18.);
#660=CYLINDRICAL_SURFACE('',#791,510.);
#661=CYLINDRICAL_SURFACE('',#794,615.);
#662=CYLINDRICAL_SURFACE('',#829,18.);
#663=ADVANCED_FACE('',(#537,#538),#633,.F.);
#664=ADVANCED_FACE('',(#539,#540),#634,.F.);
#665=ADVANCED_FACE('',(#541,#542),#635,.F.);
#666=ADVANCED_FACE('',(#543,#544),#636,.F.);
#667=ADVANCED_FACE('',(#545,#546),#637,.F.);
#668=ADVANCED_FACE('',(#547,#548),#638,.F.);
#669=ADVANCED_FACE('',(#549,#550),#639,.F.);
#670=ADVANCED_FACE('',(#551,#552),#640,.F.);
#671=ADVANCED_FACE('',(#553,#554),#641,.F.);
#672=ADVANCED_FACE('',(#555,#556),#642,.F.);
#673=ADVANCED_FACE('',(#557,#558),#643,.F.);
#674=ADVANCED_FACE('',(#559,#560),#644,.F.);
#675=ADVANCED_FACE('',(#561,#562),#645,.F.);
#676=ADVANCED_FACE('',(#563,#564),#646,.F.);
#677=ADVANCED_FACE('',(#565,#566),#647,.F.);
#678=ADVANCED_FACE('',(#567,#568),#648,.F.);
#679=ADVANCED_FACE('',(#569,#570),#649,.F.);
#680=ADVANCED_FACE('',(#571,#572),#650,.F.);
#681=ADVANCED_FACE('',(#573,#574),#651,.F.);
#682=ADVANCED_FACE('',(#575,#576),#652,.F.);
#683=ADVANCED_FACE('',(#577,#578),#653,.F.);
#684=ADVANCED_FACE('',(#579,#580),#654,.F.);
#685=ADVANCED_FACE('',(#581,#582),#655,.F.);
#686=ADVANCED_FACE('',(#583,#584),#656,.F.);
#687=ADVANCED_FACE('',(#585,#586),#657,.F.);
#688=ADVANCED_FACE('',(#587,#588),#658,.F.);
#689=ADVANCED_FACE('',(#589,#590),#659,.F.);
#690=ADVANCED_FACE('',(#591,#592),#660,.F.);
#691=ADVANCED_FACE('',(#593,#594),#661,.T.);
#692=ADVANCED_FACE('',(#595,#596),#21,.F.);
#693=ADVANCED_FACE('',(#597,#598,#599,#600,#601,#602,#603,#604,#605,#606,
#607,#608,#609,#610,#611,#612,#613,#614,#615,#616,#617,#618,#619,#620,#621,
#622,#623,#624,#625,#626),#22,.T.);
#694=ADVANCED_FACE('',(#627,#628),#662,.F.);
#695=ADVANCED_FACE('',(#629,#630),#23,.F.);
#696=ADVANCED_FACE('',(#631,#632),#20,.T.);
#697=CLOSED_SHELL('',(#663,#664,#665,#666,#667,#668,#669,#670,#671,#672,
#673,#674,#675,#676,#677,#678,#679,#680,#681,#682,#683,#684,#685,#686,#687,
#688,#689,#690,#691,#692,#693,#694,#695,#696));
#698=STYLED_ITEM('',(#699),#706);
#699=PRESENTATION_STYLE_ASSIGNMENT((#700));
#700=SURFACE_STYLE_USAGE(.BOTH.,#701);
#701=SURFACE_SIDE_STYLE('',(#702));
#702=SURFACE_STYLE_FILL_AREA(#703);
#703=FILL_AREA_STYLE('',(#704));
#704=FILL_AREA_STYLE_COLOUR('',#705);
#705=COLOUR_RGB('',0.506983280181885,0.531564235687256,0.550000011920929);
#706=MANIFOLD_SOLID_BREP('',#697);
#707=SHAPE_DEFINITION_REPRESENTATION(#1272,#708);
#708=SHAPE_REPRESENTATION('\X2\7A819762FF08\X0\RF\X2\FF09677F5F0F5E73710A94A252367BA16CD55170\X0\',
(#709),#1267);
#709=AXIS2_PLACEMENT_3D('',#1081,#833,#834);
#710=AXIS2_PLACEMENT_3D('',#1082,#835,#836);
#711=AXIS2_PLACEMENT_3D('',#1083,#837,#838);
#712=AXIS2_PLACEMENT_3D('',#1085,#839,#840);
#713=AXIS2_PLACEMENT_3D('',#1087,#841,#842);
#714=AXIS2_PLACEMENT_3D('',#1088,#843,#844);
#715=AXIS2_PLACEMENT_3D('',#1090,#845,#846);
#716=AXIS2_PLACEMENT_3D('',#1092,#847,#848);
#717=AXIS2_PLACEMENT_3D('',#1093,#849,#850);
#718=AXIS2_PLACEMENT_3D('',#1095,#851,#852);
#719=AXIS2_PLACEMENT_3D('',#1097,#853,#854);
#720=AXIS2_PLACEMENT_3D('',#1098,#855,#856);
#721=AXIS2_PLACEMENT_3D('',#1100,#857,#858);
#722=AXIS2_PLACEMENT_3D('',#1102,#859,#860);
#723=AXIS2_PLACEMENT_3D('',#1103,#861,#862);
#724=AXIS2_PLACEMENT_3D('',#1105,#863,#864);
#725=AXIS2_PLACEMENT_3D('',#1107,#865,#866);
#726=AXIS2_PLACEMENT_3D('',#1108,#867,#868);
#727=AXIS2_PLACEMENT_3D('',#1110,#869,#870);
#728=AXIS2_PLACEMENT_3D('',#1112,#871,#872);
#729=AXIS2_PLACEMENT_3D('',#1113,#873,#874);
#730=AXIS2_PLACEMENT_3D('',#1115,#875,#876);
#731=AXIS2_PLACEMENT_3D('',#1117,#877,#878);
#732=AXIS2_PLACEMENT_3D('',#1118,#879,#880);
#733=AXIS2_PLACEMENT_3D('',#1120,#881,#882);
#734=AXIS2_PLACEMENT_3D('',#1122,#883,#884);
#735=AXIS2_PLACEMENT_3D('',#1123,#885,#886);
#736=AXIS2_PLACEMENT_3D('',#1125,#887,#888);
#737=AXIS2_PLACEMENT_3D('',#1127,#889,#890);
#738=AXIS2_PLACEMENT_3D('',#1128,#891,#892);
#739=AXIS2_PLACEMENT_3D('',#1130,#893,#894);
#740=AXIS2_PLACEMENT_3D('',#1132,#895,#896);
#741=AXIS2_PLACEMENT_3D('',#1133,#897,#898);
#742=AXIS2_PLACEMENT_3D('',#1135,#899,#900);
#743=AXIS2_PLACEMENT_3D('',#1137,#901,#902);
#744=AXIS2_PLACEMENT_3D('',#1138,#903,#904);
#745=AXIS2_PLACEMENT_3D('',#1140,#905,#906);
#746=AXIS2_PLACEMENT_3D('',#1142,#907,#908);
#747=AXIS2_PLACEMENT_3D('',#1143,#909,#910);
#748=AXIS2_PLACEMENT_3D('',#1145,#911,#912);
#749=AXIS2_PLACEMENT_3D('',#1147,#913,#914);
#750=AXIS2_PLACEMENT_3D('',#1148,#915,#916);
#751=AXIS2_PLACEMENT_3D('',#1150,#917,#918);
#752=AXIS2_PLACEMENT_3D('',#1152,#919,#920);
#753=AXIS2_PLACEMENT_3D('',#1153,#921,#922);
#754=AXIS2_PLACEMENT_3D('',#1155,#923,#924);
#755=AXIS2_PLACEMENT_3D('',#1157,#925,#926);
#756=AXIS2_PLACEMENT_3D('',#1158,#927,#928);
#757=AXIS2_PLACEMENT_3D('',#1160,#929,#930);
#758=AXIS2_PLACEMENT_3D('',#1162,#931,#932);
#759=AXIS2_PLACEMENT_3D('',#1163,#933,#934);
#760=AXIS2_PLACEMENT_3D('',#1165,#935,#936);
#761=AXIS2_PLACEMENT_3D('',#1167,#937,#938);
#762=AXIS2_PLACEMENT_3D('',#1168,#939,#940);
#763=AXIS2_PLACEMENT_3D('',#1170,#941,#942);
#764=AXIS2_PLACEMENT_3D('',#1172,#943,#944);
#765=AXIS2_PLACEMENT_3D('',#1173,#945,#946);
#766=AXIS2_PLACEMENT_3D('',#1175,#947,#948);
#767=AXIS2_PLACEMENT_3D('',#1177,#949,#950);
#768=AXIS2_PLACEMENT_3D('',#1178,#951,#952);
#769=AXIS2_PLACEMENT_3D('',#1180,#953,#954);
#770=AXIS2_PLACEMENT_3D('',#1182,#955,#956);
#771=AXIS2_PLACEMENT_3D('',#1183,#957,#958);
#772=AXIS2_PLACEMENT_3D('',#1185,#959,#960);
#773=AXIS2_PLACEMENT_3D('',#1187,#961,#962);
#774=AXIS2_PLACEMENT_3D('',#1188,#963,#964);
#775=AXIS2_PLACEMENT_3D('',#1190,#965,#966);
#776=AXIS2_PLACEMENT_3D('',#1192,#967,#968);
#777=AXIS2_PLACEMENT_3D('',#1193,#969,#970);
#778=AXIS2_PLACEMENT_3D('',#1195,#971,#972);
#779=AXIS2_PLACEMENT_3D('',#1197,#973,#974);
#780=AXIS2_PLACEMENT_3D('',#1198,#975,#976);
#781=AXIS2_PLACEMENT_3D('',#1200,#977,#978);
#782=AXIS2_PLACEMENT_3D('',#1202,#979,#980);
#783=AXIS2_PLACEMENT_3D('',#1203,#981,#982);
#784=AXIS2_PLACEMENT_3D('',#1205,#983,#984);
#785=AXIS2_PLACEMENT_3D('',#1207,#985,#986);
#786=AXIS2_PLACEMENT_3D('',#1208,#987,#988);
#787=AXIS2_PLACEMENT_3D('',#1210,#989,#990);
#788=AXIS2_PLACEMENT_3D('',#1212,#991,#992);
#789=AXIS2_PLACEMENT_3D('',#1213,#993,#994);
#790=AXIS2_PLACEMENT_3D('',#1215,#995,#996);
#791=AXIS2_PLACEMENT_3D('',#1217,#997,#998);
#792=AXIS2_PLACEMENT_3D('',#1218,#999,#1000);
#793=AXIS2_PLACEMENT_3D('',#1220,#1001,#1002);
#794=AXIS2_PLACEMENT_3D('',#1222,#1003,#1004);
#795=AXIS2_PLACEMENT_3D('',#1223,#1005,#1006);
#796=AXIS2_PLACEMENT_3D('',#1225,#1007,#1008);
#797=AXIS2_PLACEMENT_3D('',#1227,#1009,#1010);
#798=AXIS2_PLACEMENT_3D('',#1228,#1011,#1012);
#799=AXIS2_PLACEMENT_3D('',#1229,#1013,#1014);
#800=AXIS2_PLACEMENT_3D('',#1230,#1015,#1016);
#801=AXIS2_PLACEMENT_3D('',#1231,#1017,#1018);
#802=AXIS2_PLACEMENT_3D('',#1232,#1019,#1020);
#803=AXIS2_PLACEMENT_3D('',#1233,#1021,#1022);
#804=AXIS2_PLACEMENT_3D('',#1234,#1023,#1024);
#805=AXIS2_PLACEMENT_3D('',#1236,#1025,#1026);
#806=AXIS2_PLACEMENT_3D('',#1237,#1027,#1028);
#807=AXIS2_PLACEMENT_3D('',#1238,#1029,#1030);
#808=AXIS2_PLACEMENT_3D('',#1239,#1031,#1032);
#809=AXIS2_PLACEMENT_3D('',#1240,#1033,#1034);
#810=AXIS2_PLACEMENT_3D('',#1241,#1035,#1036);
#811=AXIS2_PLACEMENT_3D('',#1242,#1037,#1038);
#812=AXIS2_PLACEMENT_3D('',#1243,#1039,#1040);
#813=AXIS2_PLACEMENT_3D('',#1244,#1041,#1042);
#814=AXIS2_PLACEMENT_3D('',#1245,#1043,#1044);
#815=AXIS2_PLACEMENT_3D('',#1246,#1045,#1046);
#816=AXIS2_PLACEMENT_3D('',#1247,#1047,#1048);
#817=AXIS2_PLACEMENT_3D('',#1248,#1049,#1050);
#818=AXIS2_PLACEMENT_3D('',#1249,#1051,#1052);
#819=AXIS2_PLACEMENT_3D('',#1250,#1053,#1054);
#820=AXIS2_PLACEMENT_3D('',#1251,#1055,#1056);
#821=AXIS2_PLACEMENT_3D('',#1252,#1057,#1058);
#822=AXIS2_PLACEMENT_3D('',#1253,#1059,#1060);
#823=AXIS2_PLACEMENT_3D('',#1254,#1061,#1062);
#824=AXIS2_PLACEMENT_3D('',#1255,#1063,#1064);
#825=AXIS2_PLACEMENT_3D('',#1256,#1065,#1066);
#826=AXIS2_PLACEMENT_3D('',#1257,#1067,#1068);
#827=AXIS2_PLACEMENT_3D('',#1258,#1069,#1070);
#828=AXIS2_PLACEMENT_3D('',#1259,#1071,#1072);
#829=AXIS2_PLACEMENT_3D('',#1261,#1073,#1074);
#830=AXIS2_PLACEMENT_3D('',#1262,#1075,#1076);
#831=AXIS2_PLACEMENT_3D('',#1263,#1077,#1078);
#832=AXIS2_PLACEMENT_3D('',#1265,#1079,#1080);
#833=DIRECTION('',(0.,0.,1.));
#834=DIRECTION('',(1.,0.,0.));
#835=DIRECTION('',(0.,0.,1.));
#836=DIRECTION('',(0.974927912181824,0.222520933956315,0.));
#837=DIRECTION('',(0.,0.,-1.));
#838=DIRECTION('',(0.974927912181824,0.222520933956315,0.));
#839=DIRECTION('',(0.,0.,-1.));
#840=DIRECTION('',(-0.974927912181824,-0.222520933956315,0.));
#841=DIRECTION('',(0.,0.,1.));
#842=DIRECTION('',(0.900968867902419,0.433883739117558,0.));
#843=DIRECTION('',(0.,0.,-1.));
#844=DIRECTION('',(0.900968867902419,0.433883739117558,0.));
#845=DIRECTION('',(0.,0.,-1.));
#846=DIRECTION('',(-0.900968867902419,-0.433883739117558,0.));
#847=DIRECTION('',(0.,0.,1.));
#848=DIRECTION('',(0.78183148246803,0.623489801858734,0.));
#849=DIRECTION('',(0.,0.,-1.));
#850=DIRECTION('',(0.78183148246803,0.623489801858734,0.));
#851=DIRECTION('',(0.,0.,-1.));
#852=DIRECTION('',(-0.78183148246803,-0.623489801858734,0.));
#853=DIRECTION('',(0.,0.,1.));
#854=DIRECTION('',(0.623489801858733,0.78183148246803,0.));
#855=DIRECTION('',(0.,0.,-1.));
#856=DIRECTION('',(0.623489801858733,0.78183148246803,0.));
#857=DIRECTION('',(0.,0.,-1.));
#858=DIRECTION('',(-0.623489801858733,-0.78183148246803,0.));
#859=DIRECTION('',(0.,0.,1.));
#860=DIRECTION('',(0.433883739117558,0.900968867902419,0.));
#861=DIRECTION('',(0.,0.,-1.));
#862=DIRECTION('',(0.433883739117558,0.900968867902419,0.));
#863=DIRECTION('',(0.,0.,-1.));
#864=DIRECTION('',(-0.433883739117558,-0.900968867902419,0.));
#865=DIRECTION('',(0.,0.,1.));
#866=DIRECTION('',(0.222520933956314,0.974927912181824,0.));
#867=DIRECTION('',(0.,0.,-1.));
#868=DIRECTION('',(0.222520933956314,0.974927912181824,0.));
#869=DIRECTION('',(0.,0.,-1.));
#870=DIRECTION('',(-0.222520933956314,-0.974927912181824,0.));
#871=DIRECTION('',(0.,0.,1.));
#872=DIRECTION('',(-1.60812264967664E-16,1.,0.));
#873=DIRECTION('',(0.,0.,-1.));
#874=DIRECTION('',(-1.60812264967664E-16,1.,0.));
#875=DIRECTION('',(0.,0.,-1.));
#876=DIRECTION('',(1.60812264967664E-16,-1.,0.));
#877=DIRECTION('',(0.,0.,1.));
#878=DIRECTION('',(-0.222520933956315,0.974927912181824,0.));
#879=DIRECTION('',(0.,0.,-1.));
#880=DIRECTION('',(-0.222520933956315,0.974927912181824,0.));
#881=DIRECTION('',(0.,0.,-1.));
#882=DIRECTION('',(0.222520933956315,-0.974927912181824,0.));
#883=DIRECTION('',(0.,0.,1.));
#884=DIRECTION('',(-0.433883739117558,0.900968867902419,0.));
#885=DIRECTION('',(0.,0.,-1.));
#886=DIRECTION('',(-0.433883739117558,0.900968867902419,0.));
#887=DIRECTION('',(0.,0.,-1.));
#888=DIRECTION('',(0.433883739117558,-0.900968867902419,0.));
#889=DIRECTION('',(0.,0.,1.));
#890=DIRECTION('',(-0.623489801858734,0.78183148246803,0.));
#891=DIRECTION('',(0.,0.,-1.));
#892=DIRECTION('',(-0.623489801858734,0.78183148246803,0.));
#893=DIRECTION('',(0.,0.,-1.));
#894=DIRECTION('',(0.623489801858734,-0.78183148246803,0.));
#895=DIRECTION('',(0.,0.,1.));
#896=DIRECTION('',(-0.78183148246803,0.623489801858733,0.));
#897=DIRECTION('',(0.,0.,-1.));
#898=DIRECTION('',(-0.78183148246803,0.623489801858733,0.));
#899=DIRECTION('',(0.,0.,-1.));
#900=DIRECTION('',(0.78183148246803,-0.623489801858733,0.));
#901=DIRECTION('',(0.,0.,1.));
#902=DIRECTION('',(-0.900968867902419,0.433883739117558,0.));
#903=DIRECTION('',(0.,0.,-1.));
#904=DIRECTION('',(-0.900968867902419,0.433883739117558,0.));
#905=DIRECTION('',(0.,0.,-1.));
#906=DIRECTION('',(0.900968867902419,-0.433883739117558,0.));
#907=DIRECTION('',(0.,0.,1.));
#908=DIRECTION('',(-0.974927912181824,0.222520933956314,0.));
#909=DIRECTION('',(0.,0.,-1.));
#910=DIRECTION('',(-0.974927912181824,0.222520933956314,0.));
#911=DIRECTION('',(0.,0.,-1.));
#912=DIRECTION('',(0.974927912181824,-0.222520933956314,0.));
#913=DIRECTION('',(0.,0.,1.));
#914=DIRECTION('',(-1.,1.22464679914735E-16,0.));
#915=DIRECTION('',(0.,0.,-1.));
#916=DIRECTION('',(-1.,1.22464679914735E-16,0.));
#917=DIRECTION('',(0.,0.,-1.));
#918=DIRECTION('',(1.,-1.22464679914735E-16,0.));
#919=DIRECTION('',(0.,0.,1.));
#920=DIRECTION('',(-0.974927912181824,-0.222520933956314,0.));
#921=DIRECTION('',(0.,0.,-1.));
#922=DIRECTION('',(-0.974927912181824,-0.222520933956314,0.));
#923=DIRECTION('',(0.,0.,-1.));
#924=DIRECTION('',(0.974927912181824,0.222520933956314,0.));
#925=DIRECTION('',(0.,0.,1.));
#926=DIRECTION('',(-0.900968867902419,-0.433883739117558,0.));
#927=DIRECTION('',(0.,0.,-1.));
#928=DIRECTION('',(-0.900968867902419,-0.433883739117558,0.));
#929=DIRECTION('',(0.,0.,-1.));
#930=DIRECTION('',(0.900968867902419,0.433883739117558,0.));
#931=DIRECTION('',(0.,0.,1.));
#932=DIRECTION('',(-0.78183148246803,-0.623489801858733,0.));
#933=DIRECTION('',(0.,0.,-1.));
#934=DIRECTION('',(-0.78183148246803,-0.623489801858733,0.));
#935=DIRECTION('',(0.,0.,-1.));
#936=DIRECTION('',(0.78183148246803,0.623489801858733,0.));
#937=DIRECTION('',(0.,0.,1.));
#938=DIRECTION('',(-0.623489801858734,-0.78183148246803,0.));
#939=DIRECTION('',(0.,0.,-1.));
#940=DIRECTION('',(-0.623489801858734,-0.78183148246803,0.));
#941=DIRECTION('',(0.,0.,-1.));
#942=DIRECTION('',(0.623489801858734,0.78183148246803,0.));
#943=DIRECTION('',(0.,0.,1.));
#944=DIRECTION('',(-0.433883739117558,-0.900968867902419,0.));
#945=DIRECTION('',(0.,0.,-1.));
#946=DIRECTION('',(-0.433883739117558,-0.900968867902419,0.));
#947=DIRECTION('',(0.,0.,-1.));
#948=DIRECTION('',(0.433883739117558,0.900968867902419,0.));
#949=DIRECTION('',(0.,0.,1.));
#950=DIRECTION('',(-0.222520933956315,-0.974927912181824,0.));
#951=DIRECTION('',(0.,0.,-1.));
#952=DIRECTION('',(-0.222520933956315,-0.974927912181824,0.));
#953=DIRECTION('',(0.,0.,-1.));
#954=DIRECTION('',(0.222520933956315,0.974927912181824,0.));
#955=DIRECTION('',(0.,0.,1.));
#956=DIRECTION('',(-1.83697019872103E-16,-1.,0.));
#957=DIRECTION('',(0.,0.,-1.));
#958=DIRECTION('',(-1.83697019872103E-16,-1.,0.));
#959=DIRECTION('',(0.,0.,-1.));
#960=DIRECTION('',(1.83697019872103E-16,1.,0.));
#961=DIRECTION('',(0.,0.,1.));
#962=DIRECTION('',(0.222520933956314,-0.974927912181824,0.));
#963=DIRECTION('',(0.,0.,-1.));
#964=DIRECTION('',(0.222520933956314,-0.974927912181824,0.));
#965=DIRECTION('',(0.,0.,-1.));
#966=DIRECTION('',(-0.222520933956314,0.974927912181824,0.));
#967=DIRECTION('',(0.,0.,1.));
#968=DIRECTION('',(0.433883739117558,-0.900968867902419,0.));
#969=DIRECTION('',(0.,0.,-1.));
#970=DIRECTION('',(0.433883739117558,-0.900968867902419,0.));
#971=DIRECTION('',(0.,0.,-1.));
#972=DIRECTION('',(-0.433883739117558,0.900968867902419,0.));
#973=DIRECTION('',(0.,0.,1.));
#974=DIRECTION('',(0.623489801858733,-0.78183148246803,0.));
#975=DIRECTION('',(0.,0.,-1.));
#976=DIRECTION('',(0.623489801858733,-0.78183148246803,0.));
#977=DIRECTION('',(0.,0.,-1.));
#978=DIRECTION('',(-0.623489801858733,0.78183148246803,0.));
#979=DIRECTION('',(0.,0.,1.));
#980=DIRECTION('',(0.78183148246803,-0.623489801858734,0.));
#981=DIRECTION('',(0.,0.,-1.));
#982=DIRECTION('',(0.78183148246803,-0.623489801858734,0.));
#983=DIRECTION('',(0.,0.,-1.));
#984=DIRECTION('',(-0.78183148246803,0.623489801858734,0.));
#985=DIRECTION('',(0.,0.,1.));
#986=DIRECTION('',(0.900968867902419,-0.433883739117558,0.));
#987=DIRECTION('',(0.,0.,-1.));
#988=DIRECTION('',(0.900968867902419,-0.433883739117558,0.));
#989=DIRECTION('',(0.,0.,-1.));
#990=DIRECTION('',(-0.900968867902419,0.433883739117558,0.));
#991=DIRECTION('',(0.,0.,1.));
#992=DIRECTION('',(0.974927912181824,-0.222520933956315,0.));
#993=DIRECTION('',(0.,0.,-1.));
#994=DIRECTION('',(0.974927912181824,-0.222520933956315,0.));
#995=DIRECTION('',(0.,0.,-1.));
#996=DIRECTION('',(-0.974927912181824,0.222520933956315,0.));
#997=DIRECTION('',(0.,0.,-1.));
#998=DIRECTION('',(-1.,0.,0.));
#999=DIRECTION('',(0.,0.,-1.));
#1000=DIRECTION('',(-1.,0.,0.));
#1001=DIRECTION('',(0.,0.,-1.));
#1002=DIRECTION('',(1.,0.,0.));
#1003=DIRECTION('',(0.,0.,-1.));
#1004=DIRECTION('',(-1.,0.,0.));
#1005=DIRECTION('',(0.,0.,-1.));
#1006=DIRECTION('',(1.,0.,0.));
#1007=DIRECTION('',(0.,0.,-1.));
#1008=DIRECTION('',(1.,0.,0.));
#1009=DIRECTION('',(0.,0.,-1.));
#1010=DIRECTION('',(-1.,0.,0.));
#1011=DIRECTION('',(0.,0.,-1.));
#1012=DIRECTION('',(-1.,0.,0.));
#1013=DIRECTION('',(0.,0.,-1.));
#1014=DIRECTION('',(-1.,0.,0.));
#1015=DIRECTION('',(0.,0.,-1.));
#1016=DIRECTION('',(-1.,0.,0.));
#1017=DIRECTION('',(0.,0.,-1.));
#1018=DIRECTION('',(-1.,0.,0.));
#1019=DIRECTION('',(0.,0.,-1.));
#1020=DIRECTION('',(-1.,0.,0.));
#1021=DIRECTION('',(0.,0.,-1.));
#1022=DIRECTION('',(-1.,0.,0.));
#1023=DIRECTION('',(0.,0.,-1.));
#1024=DIRECTION('',(-1.,0.,0.));
#1025=DIRECTION('',(0.,0.,-1.));
#1026=DIRECTION('',(1.,0.,0.));
#1027=DIRECTION('',(0.,0.,-1.));
#1028=DIRECTION('',(-1.,0.,0.));
#1029=DIRECTION('',(0.,0.,-1.));
#1030=DIRECTION('',(-1.,0.,0.));
#1031=DIRECTION('',(0.,0.,-1.));
#1032=DIRECTION('',(-1.,0.,0.));
#1033=DIRECTION('',(0.,0.,-1.));
#1034=DIRECTION('',(-1.,0.,0.));
#1035=DIRECTION('',(0.,0.,-1.));
#1036=DIRECTION('',(-1.,0.,0.));
#1037=DIRECTION('',(0.,0.,-1.));
#1038=DIRECTION('',(-1.,0.,0.));
#1039=DIRECTION('',(0.,0.,-1.));
#1040=DIRECTION('',(-1.,0.,0.));
#1041=DIRECTION('',(0.,0.,-1.));
#1042=DIRECTION('',(-1.,0.,0.));
#1043=DIRECTION('',(0.,0.,-1.));
#1044=DIRECTION('',(-1.,0.,0.));
#1045=DIRECTION('',(0.,0.,-1.));
#1046=DIRECTION('',(-1.,0.,0.));
#1047=DIRECTION('',(0.,0.,-1.));
#1048=DIRECTION('',(-1.,0.,0.));
#1049=DIRECTION('',(0.,0.,-1.));
#1050=DIRECTION('',(-1.,0.,0.));
#1051=DIRECTION('',(0.,0.,-1.));
#1052=DIRECTION('',(-1.,0.,0.));
#1053=DIRECTION('',(0.,0.,-1.));
#1054=DIRECTION('',(-1.,0.,0.));
#1055=DIRECTION('',(0.,0.,-1.));
#1056=DIRECTION('',(-1.,0.,0.));
#1057=DIRECTION('',(0.,0.,-1.));
#1058=DIRECTION('',(-1.,0.,0.));
#1059=DIRECTION('',(0.,0.,-1.));
#1060=DIRECTION('',(-1.,0.,0.));
#1061=DIRECTION('',(0.,0.,-1.));
#1062=DIRECTION('',(-1.,0.,0.));
#1063=DIRECTION('',(0.,0.,-1.));
#1064=DIRECTION('',(-1.,0.,0.));
#1065=DIRECTION('',(0.,0.,-1.));
#1066=DIRECTION('',(-1.,0.,0.));
#1067=DIRECTION('',(0.,0.,-1.));
#1068=DIRECTION('',(-1.,0.,0.));
#1069=DIRECTION('',(0.,0.,-1.));
#1070=DIRECTION('',(-1.,0.,0.));
#1071=DIRECTION('',(0.,0.,-1.));
#1072=DIRECTION('',(-1.,0.,0.));
#1073=DIRECTION('',(0.,0.,1.));
#1074=DIRECTION('',(1.,0.,0.));
#1075=DIRECTION('',(0.,0.,-1.));
#1076=DIRECTION('',(-1.,0.,0.));
#1077=DIRECTION('',(0.,0.,-1.));
#1078=DIRECTION('',(-1.,0.,0.));
#1079=DIRECTION('',(0.,0.,-1.));
#1080=DIRECTION('',(-1.,0.,0.));
#1081=CARTESIAN_POINT('',(0.,0.,0.));
#1082=CARTESIAN_POINT('',(-129.062141694662,565.458189065458,-1675.69669960048));
#1083=CARTESIAN_POINT('',(-129.062141694662,565.458189065458,65.));
#1084=CARTESIAN_POINT('',(-125.056764883449,547.909486646185,65.));
#1085=CARTESIAN_POINT('',(-129.062141694662,565.458189065458,0.));
#1086=CARTESIAN_POINT('',(-146.610844113935,561.452812254244,0.));
#1087=CARTESIAN_POINT('',(-251.652568688184,522.561943383403,-1675.69669960048));
#1088=CARTESIAN_POINT('',(-251.652568688184,522.561943383403,65.));
#1089=CARTESIAN_POINT('',(-243.842661384068,506.34450376116,65.));
#1090=CARTESIAN_POINT('',(-251.652568688184,522.561943383403,0.));
#1091=CARTESIAN_POINT('',(-267.870008310427,514.752036079287,0.));
#1092=CARTESIAN_POINT('',(-361.624085078066,453.462259831457,-1675.69669960048));
#1093=CARTESIAN_POINT('',(-361.624085078066,453.462259831457,65.));
#1094=CARTESIAN_POINT('',(-350.401268644608,439.389293147033,65.));
#1095=CARTESIAN_POINT('',(-361.624085078066,453.462259831457,0.));
#1096=CARTESIAN_POINT('',(-375.69705176249,442.239443398,0.));
#1097=CARTESIAN_POINT('',(-453.462259831457,361.624085078065,-1675.69669960048));
#1098=CARTESIAN_POINT('',(-453.462259831457,361.624085078065,65.));
#1099=CARTESIAN_POINT('',(-439.389293147033,350.401268644608,65.));
#1100=CARTESIAN_POINT('',(-453.462259831457,361.624085078065,0.));
#1101=CARTESIAN_POINT('',(-464.685076264915,347.551118393641,0.));
#1102=CARTESIAN_POINT('',(-522.561943383403,251.652568688184,-1675.69669960048));
#1103=CARTESIAN_POINT('',(-522.561943383403,251.652568688184,65.));
#1104=CARTESIAN_POINT('',(-506.34450376116,243.842661384068,65.));
#1105=CARTESIAN_POINT('',(-522.561943383403,251.652568688184,0.));
#1106=CARTESIAN_POINT('',(-530.371850687519,235.43512906594,0.));
#1107=CARTESIAN_POINT('',(-565.458189065458,129.062141694662,-1675.69669960048));
#1108=CARTESIAN_POINT('',(-565.458189065458,129.062141694662,65.));
#1109=CARTESIAN_POINT('',(-547.909486646185,125.056764883449,65.));
#1110=CARTESIAN_POINT('',(-565.458189065458,129.062141694662,0.));
#1111=CARTESIAN_POINT('',(-569.463565876671,111.513439275389,0.));
#1112=CARTESIAN_POINT('',(-580.,-9.32711136812449E-14,-1675.69669960048));
#1113=CARTESIAN_POINT('',(-580.,-9.32711136812449E-14,65.));
#1114=CARTESIAN_POINT('',(-562.,-9.0376492911827E-14,65.));
#1115=CARTESIAN_POINT('',(-580.,-9.32711136812449E-14,0.));
#1116=CARTESIAN_POINT('',(-580.,-18.0000000000001,0.));
#1117=CARTESIAN_POINT('',(-565.458189065458,-129.062141694662,-1675.69669960048));
#1118=CARTESIAN_POINT('',(-565.458189065458,-129.062141694662,65.));
#1119=CARTESIAN_POINT('',(-547.909486646185,-125.056764883449,65.));
#1120=CARTESIAN_POINT('',(-565.458189065458,-129.062141694662,0.));
#1121=CARTESIAN_POINT('',(-561.452812254244,-146.610844113935,0.));
#1122=CARTESIAN_POINT('',(-522.561943383403,-251.652568688184,-1675.69669960048));
#1123=CARTESIAN_POINT('',(-522.561943383403,-251.652568688184,65.));
#1124=CARTESIAN_POINT('',(-506.344503761159,-243.842661384068,65.));
#1125=CARTESIAN_POINT('',(-522.561943383403,-251.652568688184,0.));
#1126=CARTESIAN_POINT('',(-514.752036079287,-267.870008310427,0.));
#1127=CARTESIAN_POINT('',(-453.462259831457,-361.624085078066,-1675.69669960048));
#1128=CARTESIAN_POINT('',(-453.462259831457,-361.624085078066,65.));
#1129=CARTESIAN_POINT('',(-439.389293147033,-350.401268644608,65.));
#1130=CARTESIAN_POINT('',(-453.462259831457,-361.624085078066,0.));
#1131=CARTESIAN_POINT('',(-442.239443398,-375.69705176249,0.));
#1132=CARTESIAN_POINT('',(-361.624085078065,-453.462259831457,-1675.69669960048));
#1133=CARTESIAN_POINT('',(-361.624085078065,-453.462259831457,65.));
#1134=CARTESIAN_POINT('',(-350.401268644608,-439.389293147033,65.));
#1135=CARTESIAN_POINT('',(-361.624085078065,-453.462259831457,0.));
#1136=CARTESIAN_POINT('',(-347.551118393641,-464.685076264915,0.));
#1137=CARTESIAN_POINT('',(-251.652568688184,-522.561943383403,-1675.69669960048));
#1138=CARTESIAN_POINT('',(-251.652568688184,-522.561943383403,65.));
#1139=CARTESIAN_POINT('',(-243.842661384068,-506.34450376116,65.));
#1140=CARTESIAN_POINT('',(-251.652568688184,-522.561943383403,0.));
#1141=CARTESIAN_POINT('',(-235.43512906594,-530.371850687519,0.));
#1142=CARTESIAN_POINT('',(-129.062141694662,-565.458189065458,-1675.69669960048));
#1143=CARTESIAN_POINT('',(-129.062141694662,-565.458189065458,65.));
#1144=CARTESIAN_POINT('',(-125.056764883448,-547.909486646185,65.));
#1145=CARTESIAN_POINT('',(-129.062141694662,-565.458189065458,0.));
#1146=CARTESIAN_POINT('',(-111.513439275389,-569.463565876671,0.));
#1147=CARTESIAN_POINT('',(-7.10295143505465E-14,-580.,-1675.69669960048));
#1148=CARTESIAN_POINT('',(-7.10295143505465E-14,-580.,65.));
#1149=CARTESIAN_POINT('',(-6.88251501120812E-14,-562.,65.));
#1150=CARTESIAN_POINT('',(-7.10295143505465E-14,-580.,0.));
#1151=CARTESIAN_POINT('',(17.9999999999999,-580.,0.));
#1152=CARTESIAN_POINT('',(129.062141694662,-565.458189065458,-1675.69669960048));
#1153=CARTESIAN_POINT('',(129.062141694662,-565.458189065458,65.));
#1154=CARTESIAN_POINT('',(125.056764883449,-547.909486646185,65.));
#1155=CARTESIAN_POINT('',(129.062141694662,-565.458189065458,0.));
#1156=CARTESIAN_POINT('',(146.610844113935,-561.452812254244,0.));
#1157=CARTESIAN_POINT('',(251.652568688184,-522.561943383403,-1675.69669960048));
#1158=CARTESIAN_POINT('',(251.652568688184,-522.561943383403,65.));
#1159=CARTESIAN_POINT('',(243.842661384068,-506.34450376116,65.));
#1160=CARTESIAN_POINT('',(251.652568688184,-522.561943383403,0.));
#1161=CARTESIAN_POINT('',(267.870008310427,-514.752036079287,0.));
#1162=CARTESIAN_POINT('',(361.624085078065,-453.462259831457,-1675.69669960048));
#1163=CARTESIAN_POINT('',(361.624085078065,-453.462259831457,65.));
#1164=CARTESIAN_POINT('',(350.401268644608,-439.389293147033,65.));
#1165=CARTESIAN_POINT('',(361.624085078065,-453.462259831457,0.));
#1166=CARTESIAN_POINT('',(375.69705176249,-442.239443398,0.));
#1167=CARTESIAN_POINT('',(453.462259831457,-361.624085078066,-1675.69669960048));
#1168=CARTESIAN_POINT('',(453.462259831457,-361.624085078066,65.));
#1169=CARTESIAN_POINT('',(439.389293147033,-350.401268644608,65.));
#1170=CARTESIAN_POINT('',(453.462259831457,-361.624085078066,0.));
#1171=CARTESIAN_POINT('',(464.685076264914,-347.551118393641,0.));
#1172=CARTESIAN_POINT('',(522.561943383403,-251.652568688184,-1675.69669960048));
#1173=CARTESIAN_POINT('',(522.561943383403,-251.652568688184,65.));
#1174=CARTESIAN_POINT('',(506.34450376116,-243.842661384068,65.));
#1175=CARTESIAN_POINT('',(522.561943383403,-251.652568688184,0.));
#1176=CARTESIAN_POINT('',(530.371850687519,-235.43512906594,0.));
#1177=CARTESIAN_POINT('',(565.458189065458,-129.062141694662,-1675.69669960048));
#1178=CARTESIAN_POINT('',(565.458189065458,-129.062141694662,65.));
#1179=CARTESIAN_POINT('',(547.909486646185,-125.056764883449,65.));
#1180=CARTESIAN_POINT('',(565.458189065458,-129.062141694662,0.));
#1181=CARTESIAN_POINT('',(569.463565876671,-111.51343927539,0.));
#1182=CARTESIAN_POINT('',(580.,-1.0654427152582E-13,-1675.69669960048));
#1183=CARTESIAN_POINT('',(580.,-1.0654427152582E-13,65.));
#1184=CARTESIAN_POINT('',(562.,-1.03237725168122E-13,65.));
#1185=CARTESIAN_POINT('',(580.,-1.0654427152582E-13,0.));
#1186=CARTESIAN_POINT('',(580.,17.9999999999999,0.));
#1187=CARTESIAN_POINT('',(565.458189065458,129.062141694662,-1675.69669960048));
#1188=CARTESIAN_POINT('',(565.458189065458,129.062141694662,65.));
#1189=CARTESIAN_POINT('',(547.909486646185,125.056764883449,65.));
#1190=CARTESIAN_POINT('',(565.458189065458,129.062141694662,0.));
#1191=CARTESIAN_POINT('',(561.452812254244,146.610844113935,0.));
#1192=CARTESIAN_POINT('',(522.561943383403,251.652568688184,-1675.69669960048));
#1193=CARTESIAN_POINT('',(522.561943383403,251.652568688184,65.));
#1194=CARTESIAN_POINT('',(506.34450376116,243.842661384068,65.));
#1195=CARTESIAN_POINT('',(522.561943383403,251.652568688184,0.));
#1196=CARTESIAN_POINT('',(514.752036079287,267.870008310427,0.));
#1197=CARTESIAN_POINT('',(453.462259831457,361.624085078065,-1675.69669960048));
#1198=CARTESIAN_POINT('',(453.462259831457,361.624085078065,65.));
#1199=CARTESIAN_POINT('',(439.389293147033,350.401268644608,65.));
#1200=CARTESIAN_POINT('',(453.462259831457,361.624085078065,0.));
#1201=CARTESIAN_POINT('',(442.239443398,375.69705176249,0.));
#1202=CARTESIAN_POINT('',(361.624085078066,453.462259831457,-1675.69669960048));
#1203=CARTESIAN_POINT('',(361.624085078066,453.462259831457,65.));
#1204=CARTESIAN_POINT('',(350.401268644608,439.389293147033,65.));
#1205=CARTESIAN_POINT('',(361.624085078066,453.462259831457,0.));
#1206=CARTESIAN_POINT('',(347.551118393641,464.685076264914,0.));
#1207=CARTESIAN_POINT('',(251.652568688184,522.561943383403,-1675.69669960048));
#1208=CARTESIAN_POINT('',(251.652568688184,522.561943383403,65.));
#1209=CARTESIAN_POINT('',(243.842661384068,506.34450376116,65.));
#1210=CARTESIAN_POINT('',(251.652568688184,522.561943383403,0.));
#1211=CARTESIAN_POINT('',(235.43512906594,530.371850687519,0.));
#1212=CARTESIAN_POINT('',(129.062141694662,565.458189065458,-1675.69669960048));
#1213=CARTESIAN_POINT('',(129.062141694662,565.458189065458,65.));
#1214=CARTESIAN_POINT('',(125.056764883449,547.909486646185,65.));
#1215=CARTESIAN_POINT('',(129.062141694662,565.458189065458,0.));
#1216=CARTESIAN_POINT('',(111.51343927539,569.463565876671,0.));
#1217=CARTESIAN_POINT('',(0.,0.,65.));
#1218=CARTESIAN_POINT('',(0.,0.,69.9999999999999));
#1219=CARTESIAN_POINT('',(-510.,0.,69.9999999999999));
#1220=CARTESIAN_POINT('',(0.,0.,0.));
#1221=CARTESIAN_POINT('',(510.,0.,0.));
#1222=CARTESIAN_POINT('',(0.,0.,65.));
#1223=CARTESIAN_POINT('',(0.,0.,65.));
#1224=CARTESIAN_POINT('',(615.,0.,65.));
#1225=CARTESIAN_POINT('',(0.,0.,0.));
#1226=CARTESIAN_POINT('',(615.,0.,0.));
#1227=CARTESIAN_POINT('',(0.,0.,65.));
#1228=CARTESIAN_POINT('',(0.,0.,65.));
#1229=CARTESIAN_POINT('',(0.,0.,65.));
#1230=CARTESIAN_POINT('',(0.,0.,65.));
#1231=CARTESIAN_POINT('',(0.,0.,65.));
#1232=CARTESIAN_POINT('',(0.,0.,65.));
#1233=CARTESIAN_POINT('',(0.,0.,65.));
#1234=CARTESIAN_POINT('',(0.,0.,65.));
#1235=CARTESIAN_POINT('',(0.,562.,65.));
#1236=CARTESIAN_POINT('',(0.,580.,65.));
#1237=CARTESIAN_POINT('',(0.,0.,65.));
#1238=CARTESIAN_POINT('',(0.,0.,65.));
#1239=CARTESIAN_POINT('',(0.,0.,65.));
#1240=CARTESIAN_POINT('',(0.,0.,65.));
#1241=CARTESIAN_POINT('',(0.,0.,65.));
#1242=CARTESIAN_POINT('',(0.,0.,65.));
#1243=CARTESIAN_POINT('',(0.,0.,65.));
#1244=CARTESIAN_POINT('',(0.,0.,65.));
#1245=CARTESIAN_POINT('',(0.,0.,65.));
#1246=CARTESIAN_POINT('',(0.,0.,65.));
#1247=CARTESIAN_POINT('',(0.,0.,65.));
#1248=CARTESIAN_POINT('',(0.,0.,65.));
#1249=CARTESIAN_POINT('',(0.,0.,65.));
#1250=CARTESIAN_POINT('',(0.,0.,65.));
#1251=CARTESIAN_POINT('',(0.,0.,65.));
#1252=CARTESIAN_POINT('',(0.,0.,65.));
#1253=CARTESIAN_POINT('',(0.,0.,65.));
#1254=CARTESIAN_POINT('',(0.,0.,65.));
#1255=CARTESIAN_POINT('',(0.,0.,65.));
#1256=CARTESIAN_POINT('',(0.,0.,65.));
#1257=CARTESIAN_POINT('',(0.,0.,65.));
#1258=CARTESIAN_POINT('',(0.,0.,0.));
#1259=CARTESIAN_POINT('',(0.,580.,0.));
#1260=CARTESIAN_POINT('',(-18.,580.,0.));
#1261=CARTESIAN_POINT('',(0.,580.,-1675.69669960048));
#1262=CARTESIAN_POINT('',(-510.,0.,70.));
#1263=CARTESIAN_POINT('',(0.,0.,70.));
#1264=CARTESIAN_POINT('',(-555.,0.,70.));
#1265=CARTESIAN_POINT('',(0.,0.,70.));
#1266=MECHANICAL_DESIGN_GEOMETRIC_PRESENTATION_REPRESENTATION('',(#698),
#1267);
#1267=(
GEOMETRIC_REPRESENTATION_CONTEXT(3)
GLOBAL_UNCERTAINTY_ASSIGNED_CONTEXT((#1268))
GLOBAL_UNIT_ASSIGNED_CONTEXT((#1271,#1270,#1269))
REPRESENTATION_CONTEXT('\X2\7A819762FF08\X0\RF\X2\FF09677F5F0F5E73710A94A252367BA16CD55170\X0\',
'TOP_LEVEL_ASSEMBLY_PART')
);
#1268=UNCERTAINTY_MEASURE_WITH_UNIT(LENGTH_MEASURE(0.005),#1271,
'DISTANCE_ACCURACY_VALUE','Maximum Tolerance applied to model');
#1269=(
NAMED_UNIT(*)
SI_UNIT($,.STERADIAN.)
SOLID_ANGLE_UNIT()
);
#1270=(
NAMED_UNIT(*)
PLANE_ANGLE_UNIT()
SI_UNIT($,.RADIAN.)
);
#1271=(
LENGTH_UNIT()
NAMED_UNIT(*)
SI_UNIT(.MILLI.,.METRE.)
);
#1272=PRODUCT_DEFINITION_SHAPE('','',#1273);
#1273=PRODUCT_DEFINITION('','',#1275,#1274);
#1274=PRODUCT_DEFINITION_CONTEXT('',#1281,'design');
#1275=PRODUCT_DEFINITION_FORMATION_WITH_SPECIFIED_SOURCE('','',#1277,
 .NOT_KNOWN.);
#1276=PRODUCT_RELATED_PRODUCT_CATEGORY('','',(#1277));
#1277=PRODUCT('\X2\7A819762FF08\X0\RF\X2\FF09677F5F0F5E73710A94A252367BA16CD55170\X0\',
'\X2\7A819762FF08\X0\RF\X2\FF09677F5F0F5E73710A94A252367BA16CD55170\X0\',
'\X2\7A819762FF08\X0\RF\X2\FF09677F5F0F5E73710A94A252367BA16CD55170\X0\',
(#1279));
#1278=PRODUCT_CATEGORY('','');
#1279=PRODUCT_CONTEXT('',#1281,'mechanical');
#1280=APPLICATION_PROTOCOL_DEFINITION('international standard',
'automotive_design',2010,#1281);
#1281=APPLICATION_CONTEXT(
'core data for automotive mechanical design processes');
ENDSEC;
END-ISO-10303-21;
