ISO-10303-21;
HEADER;
/* Generated by software containing HOOPS Exchange Step
 * from HOOPS Exchange, Inc. (www.tiangong.cloud) 
 */

FILE_DESCRIPTION(
/* description */ ('Unknown'),
/* implementation_level */ '2;1');

FILE_NAME(
/* name */ 'B',
/* time_stamp */ '2025-10-14T19:59:36+08:00',
/* author */ ('Unknown'),
/* organization */ ('Unknown'),
/* preprocessor_version */ 'ST-DEVELOPER v19.4',
/* originating_system */ 'TianGong',
/* authorisation */ 'Unknown');

FILE_SCHEMA (('AUTOMOTIVE_DESIGN {1 0 10303 214 3 1 1}'));
ENDSEC;

DATA;
#10=PROPERTY_DEFINITION_REPRESENTATION(#14,#12);
#11=PROPERTY_DEFINITION_REPRESENTATION(#15,#13);
#12=REPRESENTATION('',(#16),#353);
#13=REPRESENTATION('',(#17),#353);
#14=PROPERTY_DEFINITION('pmi validation property','',#358);
#15=PROPERTY_DEFINITION('pmi validation property','',#358);
#16=VALUE_REPRESENTATION_ITEM('number of annotations',COUNT_MEASURE(0.));
#17=VALUE_REPRESENTATION_ITEM('number of views',COUNT_MEASURE(0.));
#18=SHAPE_REPRESENTATION_RELATIONSHIP('','',#210,#19);
#19=ADVANCED_BREP_SHAPE_REPRESENTATION('',(#208),#353);
#20=CONICAL_SURFACE('',#241,5.9,0.0449696618523276);
#21=TOROIDAL_SURFACE('',#240,17.,3.);
#22=PLANE('',#224);
#23=PLANE('',#227);
#24=PLANE('',#232);
#25=PLANE('',#237);
#26=ORIENTED_EDGE('',*,*,#60,.F.);
#27=ORIENTED_EDGE('',*,*,#61,.F.);
#28=ORIENTED_EDGE('',*,*,#62,.F.);
#29=ORIENTED_EDGE('',*,*,#63,.F.);
#30=ORIENTED_EDGE('',*,*,#64,.F.);
#31=ORIENTED_EDGE('',*,*,#65,.F.);
#32=ORIENTED_EDGE('',*,*,#66,.T.);
#33=ORIENTED_EDGE('',*,*,#67,.F.);
#34=ORIENTED_EDGE('',*,*,#68,.T.);
#35=ORIENTED_EDGE('',*,*,#60,.T.);
#36=ORIENTED_EDGE('',*,*,#62,.T.);
#37=ORIENTED_EDGE('',*,*,#64,.T.);
#38=ORIENTED_EDGE('',*,*,#69,.T.);
#39=ORIENTED_EDGE('',*,*,#66,.F.);
#40=ORIENTED_EDGE('',*,*,#61,.T.);
#41=ORIENTED_EDGE('',*,*,#63,.T.);
#42=ORIENTED_EDGE('',*,*,#65,.T.);
#43=ORIENTED_EDGE('',*,*,#70,.T.);
#44=ORIENTED_EDGE('',*,*,#71,.F.);
#45=ORIENTED_EDGE('',*,*,#67,.T.);
#46=ORIENTED_EDGE('',*,*,#72,.F.);
#47=ORIENTED_EDGE('',*,*,#71,.T.);
#48=ORIENTED_EDGE('',*,*,#73,.F.);
#49=ORIENTED_EDGE('',*,*,#72,.T.);
#50=ORIENTED_EDGE('',*,*,#74,.T.);
#51=ORIENTED_EDGE('',*,*,#75,.T.);
#52=ORIENTED_EDGE('',*,*,#76,.T.);
#53=ORIENTED_EDGE('',*,*,#75,.F.);
#54=ORIENTED_EDGE('',*,*,#69,.F.);
#55=ORIENTED_EDGE('',*,*,#70,.F.);
#56=ORIENTED_EDGE('',*,*,#74,.F.);
#57=ORIENTED_EDGE('',*,*,#68,.F.);
#58=ORIENTED_EDGE('',*,*,#73,.T.);
#59=ORIENTED_EDGE('',*,*,#76,.F.);
#60=EDGE_CURVE('',#77,#77,#94,.T.);
#61=EDGE_CURVE('',#78,#78,#95,.F.);
#62=EDGE_CURVE('',#79,#79,#96,.T.);
#63=EDGE_CURVE('',#80,#80,#97,.F.);
#64=EDGE_CURVE('',#81,#81,#98,.T.);
#65=EDGE_CURVE('',#82,#82,#99,.F.);
#66=EDGE_CURVE('',#83,#83,#100,.T.);
#67=EDGE_CURVE('',#84,#84,#101,.T.);
#68=EDGE_CURVE('',#85,#85,#102,.T.);
#69=EDGE_CURVE('',#86,#86,#103,.T.);
#70=EDGE_CURVE('',#87,#87,#104,.F.);
#71=EDGE_CURVE('',#88,#88,#105,.T.);
#72=EDGE_CURVE('',#89,#89,#106,.T.);
#73=EDGE_CURVE('',#90,#90,#107,.F.);
#74=EDGE_CURVE('',#91,#91,#108,.F.);
#75=EDGE_CURVE('',#92,#92,#109,.T.);
#76=EDGE_CURVE('',#93,#93,#110,.T.);
#77=VERTEX_POINT('',#307);
#78=VERTEX_POINT('',#309);
#79=VERTEX_POINT('',#312);
#80=VERTEX_POINT('',#314);
#81=VERTEX_POINT('',#317);
#82=VERTEX_POINT('',#319);
#83=VERTEX_POINT('',#322);
#84=VERTEX_POINT('',#324);
#85=VERTEX_POINT('',#327);
#86=VERTEX_POINT('',#329);
#87=VERTEX_POINT('',#332);
#88=VERTEX_POINT('',#334);
#89=VERTEX_POINT('',#337);
#90=VERTEX_POINT('',#340);
#91=VERTEX_POINT('',#343);
#92=VERTEX_POINT('',#345);
#93=VERTEX_POINT('',#348);
#94=CIRCLE('',#213,7.);
#95=CIRCLE('',#214,7.);
#96=CIRCLE('',#216,7.);
#97=CIRCLE('',#217,7.);
#98=CIRCLE('',#219,7.);
#99=CIRCLE('',#220,7.);
#100=CIRCLE('',#222,45.);
#101=CIRCLE('',#223,45.);
#102=CIRCLE('',#225,17.);
#103=CIRCLE('',#226,7.);
#104=CIRCLE('',#228,7.);
#105=CIRCLE('',#229,20.5);
#106=CIRCLE('',#231,20.5);
#107=CIRCLE('',#233,5.);
#108=CIRCLE('',#235,14.);
#109=CIRCLE('',#236,14.);
#110=CIRCLE('',#238,5.9);
#111=EDGE_LOOP('',(#26));
#112=EDGE_LOOP('',(#27));
#113=EDGE_LOOP('',(#28));
#114=EDGE_LOOP('',(#29));
#115=EDGE_LOOP('',(#30));
#116=EDGE_LOOP('',(#31));
#117=EDGE_LOOP('',(#32));
#118=EDGE_LOOP('',(#33));
#119=EDGE_LOOP('',(#34));
#120=EDGE_LOOP('',(#35));
#121=EDGE_LOOP('',(#36));
#122=EDGE_LOOP('',(#37));
#123=EDGE_LOOP('',(#38));
#124=EDGE_LOOP('',(#39));
#125=EDGE_LOOP('',(#40));
#126=EDGE_LOOP('',(#41));
#127=EDGE_LOOP('',(#42));
#128=EDGE_LOOP('',(#43));
#129=EDGE_LOOP('',(#44));
#130=EDGE_LOOP('',(#45));
#131=EDGE_LOOP('',(#46));
#132=EDGE_LOOP('',(#47));
#133=EDGE_LOOP('',(#48));
#134=EDGE_LOOP('',(#49));
#135=EDGE_LOOP('',(#50));
#136=EDGE_LOOP('',(#51));
#137=EDGE_LOOP('',(#52));
#138=EDGE_LOOP('',(#53));
#139=EDGE_LOOP('',(#54));
#140=EDGE_LOOP('',(#55));
#141=EDGE_LOOP('',(#56));
#142=EDGE_LOOP('',(#57));
#143=EDGE_LOOP('',(#58));
#144=EDGE_LOOP('',(#59));
#145=FACE_BOUND('',#111,.T.);
#146=FACE_BOUND('',#112,.T.);
#147=FACE_BOUND('',#113,.T.);
#148=FACE_BOUND('',#114,.T.);
#149=FACE_BOUND('',#115,.T.);
#150=FACE_BOUND('',#116,.T.);
#151=FACE_BOUND('',#117,.T.);
#152=FACE_BOUND('',#118,.T.);
#153=FACE_BOUND('',#119,.T.);
#154=FACE_BOUND('',#120,.T.);
#155=FACE_BOUND('',#121,.T.);
#156=FACE_BOUND('',#122,.T.);
#157=FACE_BOUND('',#123,.T.);
#158=FACE_BOUND('',#124,.T.);
#159=FACE_BOUND('',#125,.T.);
#160=FACE_BOUND('',#126,.T.);
#161=FACE_BOUND('',#127,.T.);
#162=FACE_BOUND('',#128,.T.);
#163=FACE_BOUND('',#129,.T.);
#164=FACE_BOUND('',#130,.T.);
#165=FACE_BOUND('',#131,.T.);
#166=FACE_BOUND('',#132,.T.);
#167=FACE_BOUND('',#133,.T.);
#168=FACE_BOUND('',#134,.T.);
#169=FACE_BOUND('',#135,.T.);
#170=FACE_BOUND('',#136,.T.);
#171=FACE_BOUND('',#137,.T.);
#172=FACE_BOUND('',#138,.T.);
#173=FACE_BOUND('',#139,.T.);
#174=FACE_BOUND('',#140,.T.);
#175=FACE_BOUND('',#141,.T.);
#176=FACE_BOUND('',#142,.T.);
#177=FACE_BOUND('',#143,.T.);
#178=FACE_BOUND('',#144,.T.);
#179=CYLINDRICAL_SURFACE('',#212,7.);
#180=CYLINDRICAL_SURFACE('',#215,7.);
#181=CYLINDRICAL_SURFACE('',#218,7.);
#182=CYLINDRICAL_SURFACE('',#221,45.);
#183=CYLINDRICAL_SURFACE('',#230,20.5);
#184=CYLINDRICAL_SURFACE('',#234,14.);
#185=CYLINDRICAL_SURFACE('',#239,7.);
#186=ADVANCED_FACE('',(#145,#146),#179,.F.);
#187=ADVANCED_FACE('',(#147,#148),#180,.F.);
#188=ADVANCED_FACE('',(#149,#150),#181,.F.);
#189=ADVANCED_FACE('',(#151,#152),#182,.T.);
#190=ADVANCED_FACE('',(#153,#154,#155,#156,#157,#158),#22,.F.);
#191=ADVANCED_FACE('',(#159,#160,#161,#162,#163,#164),#23,.T.);
#192=ADVANCED_FACE('',(#165,#166),#183,.T.);
#193=ADVANCED_FACE('',(#167,#168),#24,.T.);
#194=ADVANCED_FACE('',(#169,#170),#184,.T.);
#195=ADVANCED_FACE('',(#171,#172),#25,.F.);
#196=ADVANCED_FACE('',(#173,#174),#185,.F.);
#197=ADVANCED_FACE('',(#175,#176),#21,.F.);
#198=ADVANCED_FACE('',(#177,#178),#20,.F.);
#199=CLOSED_SHELL('',(#186,#187,#188,#189,#190,#191,#192,#193,#194,#195,
#196,#197,#198));
#200=STYLED_ITEM('',(#201),#208);
#201=PRESENTATION_STYLE_ASSIGNMENT((#202));
#202=SURFACE_STYLE_USAGE(.BOTH.,#203);
#203=SURFACE_SIDE_STYLE('',(#204));
#204=SURFACE_STYLE_FILL_AREA(#205);
#205=FILL_AREA_STYLE('',(#206));
#206=FILL_AREA_STYLE_COLOUR('',#207);
#207=COLOUR_RGB('',0.506983280181885,0.531564235687256,0.550000011920929);
#208=MANIFOLD_SOLID_BREP('',#199);
#209=SHAPE_DEFINITION_REPRESENTATION(#358,#210);
#210=SHAPE_REPRESENTATION('B',(#211),#353);
#211=AXIS2_PLACEMENT_3D('',#304,#242,#243);
#212=AXIS2_PLACEMENT_3D('',#305,#244,#245);
#213=AXIS2_PLACEMENT_3D('',#306,#246,#247);
#214=AXIS2_PLACEMENT_3D('',#308,#248,#249);
#215=AXIS2_PLACEMENT_3D('',#310,#250,#251);
#216=AXIS2_PLACEMENT_3D('',#311,#252,#253);
#217=AXIS2_PLACEMENT_3D('',#313,#254,#255);
#218=AXIS2_PLACEMENT_3D('',#315,#256,#257);
#219=AXIS2_PLACEMENT_3D('',#316,#258,#259);
#220=AXIS2_PLACEMENT_3D('',#318,#260,#261);
#221=AXIS2_PLACEMENT_3D('',#320,#262,#263);
#222=AXIS2_PLACEMENT_3D('',#321,#264,#265);
#223=AXIS2_PLACEMENT_3D('',#323,#266,#267);
#224=AXIS2_PLACEMENT_3D('',#325,#268,#269);
#225=AXIS2_PLACEMENT_3D('',#326,#270,#271);
#226=AXIS2_PLACEMENT_3D('',#328,#272,#273);
#227=AXIS2_PLACEMENT_3D('',#330,#274,#275);
#228=AXIS2_PLACEMENT_3D('',#331,#276,#277);
#229=AXIS2_PLACEMENT_3D('',#333,#278,#279);
#230=AXIS2_PLACEMENT_3D('',#335,#280,#281);
#231=AXIS2_PLACEMENT_3D('',#336,#282,#283);
#232=AXIS2_PLACEMENT_3D('',#338,#284,#285);
#233=AXIS2_PLACEMENT_3D('',#339,#286,#287);
#234=AXIS2_PLACEMENT_3D('',#341,#288,#289);
#235=AXIS2_PLACEMENT_3D('',#342,#290,#291);
#236=AXIS2_PLACEMENT_3D('',#344,#292,#293);
#237=AXIS2_PLACEMENT_3D('',#346,#294,#295);
#238=AXIS2_PLACEMENT_3D('',#347,#296,#297);
#239=AXIS2_PLACEMENT_3D('',#349,#298,#299);
#240=AXIS2_PLACEMENT_3D('',#350,#300,#301);
#241=AXIS2_PLACEMENT_3D('',#351,#302,#303);
#242=DIRECTION('',(0.,0.,1.));
#243=DIRECTION('',(1.,0.,0.));
#244=DIRECTION('',(0.,0.,1.));
#245=DIRECTION('',(2.07057421780864E-9,1.,0.));
#246=DIRECTION('',(0.,0.,-1.));
#247=DIRECTION('',(2.07057421780864E-9,1.,0.));
#248=DIRECTION('',(0.,0.,-1.));
#249=DIRECTION('',(-2.07057421780864E-9,-1.,0.));
#250=DIRECTION('',(0.,0.,1.));
#251=DIRECTION('',(-1.,-1.3803794888316E-9,0.));
#252=DIRECTION('',(0.,0.,-1.));
#253=DIRECTION('',(-1.,-1.3803794888316E-9,0.));
#254=DIRECTION('',(0.,0.,-1.));
#255=DIRECTION('',(1.,1.3803794888316E-9,0.));
#256=DIRECTION('',(0.,0.,1.));
#257=DIRECTION('',(-6.9019450693243E-10,-1.,0.));
#258=DIRECTION('',(0.,0.,-1.));
#259=DIRECTION('',(-6.9019450693243E-10,-1.,0.));
#260=DIRECTION('',(0.,0.,-1.));
#261=DIRECTION('',(6.9019450693243E-10,1.,0.));
#262=DIRECTION('',(0.,0.,-1.));
#263=DIRECTION('',(-1.,0.,0.));
#264=DIRECTION('',(0.,0.,-1.));
#265=DIRECTION('',(1.,0.,0.));
#266=DIRECTION('',(0.,0.,-1.));
#267=DIRECTION('',(1.,0.,0.));
#268=DIRECTION('',(0.,0.,-1.));
#269=DIRECTION('',(-1.,0.,0.));
#270=DIRECTION('',(0.,0.,-1.));
#271=DIRECTION('',(-1.,0.,0.));
#272=DIRECTION('',(0.,0.,-1.));
#273=DIRECTION('',(1.,0.,0.));
#274=DIRECTION('',(0.,0.,-1.));
#275=DIRECTION('',(-1.,0.,0.));
#276=DIRECTION('',(0.,0.,-1.));
#277=DIRECTION('',(-1.,0.,0.));
#278=DIRECTION('',(0.,0.,-1.));
#279=DIRECTION('',(1.,0.,0.));
#280=DIRECTION('',(0.,0.,1.));
#281=DIRECTION('',(1.,0.,0.));
#282=DIRECTION('',(0.,0.,-1.));
#283=DIRECTION('',(1.,0.,0.));
#284=DIRECTION('',(0.,0.,-1.));
#285=DIRECTION('',(-1.,0.,0.));
#286=DIRECTION('',(0.,0.,1.));
#287=DIRECTION('',(0.,1.,0.));
#288=DIRECTION('',(0.,0.,-1.));
#289=DIRECTION('',(-1.,0.,0.));
#290=DIRECTION('',(0.,0.,-1.));
#291=DIRECTION('',(-1.,0.,0.));
#292=DIRECTION('',(0.,0.,-1.));
#293=DIRECTION('',(1.,0.,0.));
#294=DIRECTION('',(0.,0.,-1.));
#295=DIRECTION('',(-1.,0.,0.));
#296=DIRECTION('',(0.,0.,-1.));
#297=DIRECTION('',(1.,0.,0.));
#298=DIRECTION('',(0.,0.,1.));
#299=DIRECTION('',(1.,0.,0.));
#300=DIRECTION('',(0.,0.,-1.));
#301=DIRECTION('',(-1.,0.,0.));
#302=DIRECTION('',(0.,0.,1.));
#303=DIRECTION('',(1.,0.,0.));
#304=CARTESIAN_POINT('',(0.,0.,0.));
#305=CARTESIAN_POINT('',(-30.,6.21172265342592E-8,-116.840987267251));
#306=CARTESIAN_POINT('',(-30.,6.21172265342592E-8,12.));
#307=CARTESIAN_POINT('',(-29.999999985506,7.00000006211723,12.));
#308=CARTESIAN_POINT('',(-30.,6.21172265342592E-8,0.));
#309=CARTESIAN_POINT('',(-30.000000014494,-6.99999993788277,0.));
#310=CARTESIAN_POINT('',(4.14113846649481E-8,-30.,-116.840987267251));
#311=CARTESIAN_POINT('',(4.14113846649481E-8,-30.,12.));
#312=CARTESIAN_POINT('',(-6.99999995858862,-30.0000000096627,12.));
#313=CARTESIAN_POINT('',(4.14113846649481E-8,-30.,0.));
#314=CARTESIAN_POINT('',(7.00000004141138,-29.9999999903373,0.));
#315=CARTESIAN_POINT('',(30.,-2.07058352079729E-8,-116.840987267251));
#316=CARTESIAN_POINT('',(30.,-2.07058352079729E-8,12.));
#317=CARTESIAN_POINT('',(29.9999999951686,-7.00000002070584,12.));
#318=CARTESIAN_POINT('',(30.,-2.07058352079729E-8,0.));
#319=CARTESIAN_POINT('',(30.0000000048314,6.99999997929416,0.));
#320=CARTESIAN_POINT('',(0.,0.,12.));
#321=CARTESIAN_POINT('',(0.,0.,12.));
#322=CARTESIAN_POINT('',(45.,0.,12.));
#323=CARTESIAN_POINT('',(0.,0.,0.));
#324=CARTESIAN_POINT('',(45.,0.,0.));
#325=CARTESIAN_POINT('',(0.,0.,12.));
#326=CARTESIAN_POINT('',(0.,0.523049327354252,12.));
#327=CARTESIAN_POINT('',(-17.,0.523049327354252,12.));
#328=CARTESIAN_POINT('',(0.,30.,12.));
#329=CARTESIAN_POINT('',(7.,30.,12.));
#330=CARTESIAN_POINT('',(0.,0.,0.));
#331=CARTESIAN_POINT('',(0.,30.,0.));
#332=CARTESIAN_POINT('',(-7.,30.,0.));
#333=CARTESIAN_POINT('',(0.,0.,0.));
#334=CARTESIAN_POINT('',(20.5,0.,0.));
#335=CARTESIAN_POINT('',(0.,0.,-2.));
#336=CARTESIAN_POINT('',(0.,0.,-2.));
#337=CARTESIAN_POINT('',(20.5,0.,-2.));
#338=CARTESIAN_POINT('',(0.,0.,-2.));
#339=CARTESIAN_POINT('',(0.,0.,-2.));
#340=CARTESIAN_POINT('',(0.,5.,-2.));
#341=CARTESIAN_POINT('',(0.,0.523049327354252,18.));
#342=CARTESIAN_POINT('',(0.,0.523049327354252,15.));
#343=CARTESIAN_POINT('',(-14.,0.523049327354252,15.));
#344=CARTESIAN_POINT('',(0.,0.523049327354252,18.));
#345=CARTESIAN_POINT('',(14.,0.523049327354252,18.));
#346=CARTESIAN_POINT('',(0.,0.523049327354252,18.));
#347=CARTESIAN_POINT('',(0.,0.,18.));
#348=CARTESIAN_POINT('',(5.9,0.,18.));
#349=CARTESIAN_POINT('',(0.,30.,-116.840987267251));
#350=CARTESIAN_POINT('',(0.,0.523049327354252,15.));
#351=CARTESIAN_POINT('',(0.,0.,18.));
#352=MECHANICAL_DESIGN_GEOMETRIC_PRESENTATION_REPRESENTATION('',(#200),
#353);
#353=(
GEOMETRIC_REPRESENTATION_CONTEXT(3)
GLOBAL_UNCERTAINTY_ASSIGNED_CONTEXT((#354))
GLOBAL_UNIT_ASSIGNED_CONTEXT((#357,#356,#355))
REPRESENTATION_CONTEXT('B','TOP_LEVEL_ASSEMBLY_PART')
);
#354=UNCERTAINTY_MEASURE_WITH_UNIT(LENGTH_MEASURE(0.005),#357,
'DISTANCE_ACCURACY_VALUE','Maximum Tolerance applied to model');
#355=(
NAMED_UNIT(*)
SI_UNIT($,.STERADIAN.)
SOLID_ANGLE_UNIT()
);
#356=(
NAMED_UNIT(*)
PLANE_ANGLE_UNIT()
SI_UNIT($,.RADIAN.)
);
#357=(
LENGTH_UNIT()
NAMED_UNIT(*)
SI_UNIT(.MILLI.,.METRE.)
);
#358=PRODUCT_DEFINITION_SHAPE('','',#359);
#359=PRODUCT_DEFINITION('','',#361,#360);
#360=PRODUCT_DEFINITION_CONTEXT('',#367,'design');
#361=PRODUCT_DEFINITION_FORMATION_WITH_SPECIFIED_SOURCE('','',#363,
 .NOT_KNOWN.);
#362=PRODUCT_RELATED_PRODUCT_CATEGORY('','',(#363));
#363=PRODUCT('B','B','B',(#365));
#364=PRODUCT_CATEGORY('','');
#365=PRODUCT_CONTEXT('',#367,'mechanical');
#366=APPLICATION_PROTOCOL_DEFINITION('international standard',
'automotive_design',2010,#367);
#367=APPLICATION_CONTEXT(
'core data for automotive mechanical design processes');
ENDSEC;
END-ISO-10303-21;
