ISO-10303-21;
HEADER;
/* Generated by software containing HOOPS Exchange Step
 * from HOOPS Exchange, Inc. (www.tiangong.cloud) 
 */

FILE_DESCRIPTION(
/* description */ ('Unknown'),
/* implementation_level */ '2;1');

FILE_NAME(
/* name */ '\X2\7A819762FF08\X0\RF\X2\FF09677F5F0F5E73710A94A252367BA16CD55170\X0\',

/* time_stamp */ '2025-09-22T13:38:06+08:00',
/* author */ ('Unknown'),
/* organization */ ('Unknown'),
/* preprocessor_version */ 'ST-DEVELOPER v19.4',
/* originating_system */ 'TianGong',
/* authorisation */ 'Unknown');

FILE_SCHEMA (('AUTOMOTIVE_DESIGN {1 0 10303 214 3 1 1}'));
ENDSEC;

DATA;
#10=PROPERTY_DEFINITION_REPRESENTATION(#14,#12);
#11=PROPERTY_DEFINITION_REPRESENTATION(#15,#13);
#12=REPRESENTATION('',(#16),#307);
#13=REPRESENTATION('',(#17),#307);
#14=PROPERTY_DEFINITION('pmi validation property','',#312);
#15=PROPERTY_DEFINITION('pmi validation property','',#312);
#16=VALUE_REPRESENTATION_ITEM('number of annotations',COUNT_MEASURE(0.));
#17=VALUE_REPRESENTATION_ITEM('number of views',COUNT_MEASURE(0.));
#18=SHAPE_REPRESENTATION_RELATIONSHIP('','',#180,#19);
#19=ADVANCED_BREP_SHAPE_REPRESENTATION('',(#178),#307);
#20=CONICAL_SURFACE('',#208,45.,0.78539816339745);
#21=PLANE('',#197);
#22=PLANE('',#203);
#23=PLANE('',#206);
#24=ORIENTED_EDGE('',*,*,#58,.F.);
#25=ORIENTED_EDGE('',*,*,#59,.F.);
#26=ORIENTED_EDGE('',*,*,#60,.F.);
#27=ORIENTED_EDGE('',*,*,#61,.F.);
#28=ORIENTED_EDGE('',*,*,#62,.F.);
#29=ORIENTED_EDGE('',*,*,#63,.F.);
#30=ORIENTED_EDGE('',*,*,#64,.F.);
#31=ORIENTED_EDGE('',*,*,#65,.T.);
#32=ORIENTED_EDGE('',*,*,#66,.T.);
#33=ORIENTED_EDGE('',*,*,#67,.F.);
#34=ORIENTED_EDGE('',*,*,#58,.T.);
#35=ORIENTED_EDGE('',*,*,#68,.T.);
#36=ORIENTED_EDGE('',*,*,#69,.T.);
#37=ORIENTED_EDGE('',*,*,#70,.T.);
#38=ORIENTED_EDGE('',*,*,#62,.T.);
#39=ORIENTED_EDGE('',*,*,#71,.T.);
#40=ORIENTED_EDGE('',*,*,#60,.T.);
#41=ORIENTED_EDGE('',*,*,#72,.T.);
#42=ORIENTED_EDGE('',*,*,#66,.F.);
#43=ORIENTED_EDGE('',*,*,#59,.T.);
#44=ORIENTED_EDGE('',*,*,#61,.T.);
#45=ORIENTED_EDGE('',*,*,#63,.T.);
#46=ORIENTED_EDGE('',*,*,#73,.T.);
#47=ORIENTED_EDGE('',*,*,#65,.F.);
#48=ORIENTED_EDGE('',*,*,#67,.T.);
#49=ORIENTED_EDGE('',*,*,#69,.F.);
#50=ORIENTED_EDGE('',*,*,#73,.F.);
#51=ORIENTED_EDGE('',*,*,#74,.F.);
#52=ORIENTED_EDGE('',*,*,#64,.T.);
#53=ORIENTED_EDGE('',*,*,#68,.F.);
#54=ORIENTED_EDGE('',*,*,#72,.F.);
#55=ORIENTED_EDGE('',*,*,#71,.F.);
#56=ORIENTED_EDGE('',*,*,#70,.F.);
#57=ORIENTED_EDGE('',*,*,#74,.T.);
#58=EDGE_CURVE('',#75,#75,#88,.T.);
#59=EDGE_CURVE('',#76,#76,#89,.F.);
#60=EDGE_CURVE('',#77,#77,#90,.T.);
#61=EDGE_CURVE('',#78,#78,#91,.F.);
#62=EDGE_CURVE('',#79,#79,#92,.T.);
#63=EDGE_CURVE('',#80,#80,#93,.F.);
#64=EDGE_CURVE('',#81,#81,#94,.T.);
#65=EDGE_CURVE('',#82,#82,#95,.T.);
#66=EDGE_CURVE('',#83,#83,#96,.T.);
#67=EDGE_CURVE('',#84,#84,#97,.T.);
#68=EDGE_CURVE('',#75,#85,#98,.T.);
#69=EDGE_CURVE('',#85,#85,#99,.T.);
#70=EDGE_CURVE('',#85,#79,#100,.T.);
#71=EDGE_CURVE('',#79,#77,#101,.T.);
#72=EDGE_CURVE('',#77,#75,#102,.T.);
#73=EDGE_CURVE('',#86,#86,#103,.F.);
#74=EDGE_CURVE('',#87,#87,#104,.T.);
#75=VERTEX_POINT('',#268);
#76=VERTEX_POINT('',#270);
#77=VERTEX_POINT('',#273);
#78=VERTEX_POINT('',#275);
#79=VERTEX_POINT('',#278);
#80=VERTEX_POINT('',#280);
#81=VERTEX_POINT('',#283);
#82=VERTEX_POINT('',#285);
#83=VERTEX_POINT('',#288);
#84=VERTEX_POINT('',#290);
#85=VERTEX_POINT('',#293);
#86=VERTEX_POINT('',#300);
#87=VERTEX_POINT('',#304);
#88=CIRCLE('',#183,7.);
#89=CIRCLE('',#184,7.);
#90=CIRCLE('',#186,7.);
#91=CIRCLE('',#187,7.);
#92=CIRCLE('',#189,7.);
#93=CIRCLE('',#190,7.);
#94=CIRCLE('',#192,30.75);
#95=CIRCLE('',#193,30.75);
#96=CIRCLE('',#195,70.);
#97=CIRCLE('',#196,70.);
#98=CIRCLE('',#198,48.);
#99=CIRCLE('',#199,7.);
#100=CIRCLE('',#200,48.);
#101=CIRCLE('',#201,48.);
#102=CIRCLE('',#202,48.);
#103=CIRCLE('',#204,7.);
#104=CIRCLE('',#207,45.);
#105=EDGE_LOOP('',(#24));
#106=EDGE_LOOP('',(#25));
#107=EDGE_LOOP('',(#26));
#108=EDGE_LOOP('',(#27));
#109=EDGE_LOOP('',(#28));
#110=EDGE_LOOP('',(#29));
#111=EDGE_LOOP('',(#30));
#112=EDGE_LOOP('',(#31));
#113=EDGE_LOOP('',(#32));
#114=EDGE_LOOP('',(#33));
#115=EDGE_LOOP('',(#34,#35,#36,#37,#38,#39,#40,#41));
#116=EDGE_LOOP('',(#42));
#117=EDGE_LOOP('',(#43));
#118=EDGE_LOOP('',(#44));
#119=EDGE_LOOP('',(#45));
#120=EDGE_LOOP('',(#46));
#121=EDGE_LOOP('',(#47));
#122=EDGE_LOOP('',(#48));
#123=EDGE_LOOP('',(#49));
#124=EDGE_LOOP('',(#50));
#125=EDGE_LOOP('',(#51));
#126=EDGE_LOOP('',(#52));
#127=EDGE_LOOP('',(#53,#54,#55,#56));
#128=EDGE_LOOP('',(#57));
#129=FACE_BOUND('',#105,.T.);
#130=FACE_BOUND('',#106,.T.);
#131=FACE_BOUND('',#107,.T.);
#132=FACE_BOUND('',#108,.T.);
#133=FACE_BOUND('',#109,.T.);
#134=FACE_BOUND('',#110,.T.);
#135=FACE_BOUND('',#111,.T.);
#136=FACE_BOUND('',#112,.T.);
#137=FACE_BOUND('',#113,.T.);
#138=FACE_BOUND('',#114,.T.);
#139=FACE_BOUND('',#115,.T.);
#140=FACE_BOUND('',#116,.T.);
#141=FACE_BOUND('',#117,.T.);
#142=FACE_BOUND('',#118,.T.);
#143=FACE_BOUND('',#119,.T.);
#144=FACE_BOUND('',#120,.T.);
#145=FACE_BOUND('',#121,.T.);
#146=FACE_BOUND('',#122,.T.);
#147=FACE_BOUND('',#123,.T.);
#148=FACE_BOUND('',#124,.T.);
#149=FACE_BOUND('',#125,.T.);
#150=FACE_BOUND('',#126,.T.);
#151=FACE_BOUND('',#127,.T.);
#152=FACE_BOUND('',#128,.T.);
#153=CYLINDRICAL_SURFACE('',#182,7.);
#154=CYLINDRICAL_SURFACE('',#185,7.);
#155=CYLINDRICAL_SURFACE('',#188,7.);
#156=CYLINDRICAL_SURFACE('',#191,30.75);
#157=CYLINDRICAL_SURFACE('',#194,70.);
#158=CYLINDRICAL_SURFACE('',#205,7.);
#159=ADVANCED_FACE('',(#129,#130),#153,.F.);
#160=ADVANCED_FACE('',(#131,#132),#154,.F.);
#161=ADVANCED_FACE('',(#133,#134),#155,.F.);
#162=ADVANCED_FACE('',(#135,#136),#156,.F.);
#163=ADVANCED_FACE('',(#137,#138),#157,.T.);
#164=ADVANCED_FACE('',(#139,#140),#21,.F.);
#165=ADVANCED_FACE('',(#141,#142,#143,#144,#145,#146),#22,.T.);
#166=ADVANCED_FACE('',(#147,#148),#158,.F.);
#167=ADVANCED_FACE('',(#149,#150),#23,.F.);
#168=ADVANCED_FACE('',(#151,#152),#20,.T.);
#169=CLOSED_SHELL('',(#159,#160,#161,#162,#163,#164,#165,#166,#167,#168));
#170=STYLED_ITEM('',(#171),#178);
#171=PRESENTATION_STYLE_ASSIGNMENT((#172));
#172=SURFACE_STYLE_USAGE(.BOTH.,#173);
#173=SURFACE_SIDE_STYLE('',(#174));
#174=SURFACE_STYLE_FILL_AREA(#175);
#175=FILL_AREA_STYLE('',(#176));
#176=FILL_AREA_STYLE_COLOUR('',#177);
#177=COLOUR_RGB('',0.506983280181885,0.531564235687256,0.550000011920929);
#178=MANIFOLD_SOLID_BREP('',#169);
#179=SHAPE_DEFINITION_REPRESENTATION(#312,#180);
#180=SHAPE_REPRESENTATION('\X2\7A819762FF08\X0\RF\X2\FF09677F5F0F5E73710A94A252367BA16CD55170\X0\',
(#181),#307);
#181=AXIS2_PLACEMENT_3D('',#265,#209,#210);
#182=AXIS2_PLACEMENT_3D('',#266,#211,#212);
#183=AXIS2_PLACEMENT_3D('',#267,#213,#214);
#184=AXIS2_PLACEMENT_3D('',#269,#215,#216);
#185=AXIS2_PLACEMENT_3D('',#271,#217,#218);
#186=AXIS2_PLACEMENT_3D('',#272,#219,#220);
#187=AXIS2_PLACEMENT_3D('',#274,#221,#222);
#188=AXIS2_PLACEMENT_3D('',#276,#223,#224);
#189=AXIS2_PLACEMENT_3D('',#277,#225,#226);
#190=AXIS2_PLACEMENT_3D('',#279,#227,#228);
#191=AXIS2_PLACEMENT_3D('',#281,#229,#230);
#192=AXIS2_PLACEMENT_3D('',#282,#231,#232);
#193=AXIS2_PLACEMENT_3D('',#284,#233,#234);
#194=AXIS2_PLACEMENT_3D('',#286,#235,#236);
#195=AXIS2_PLACEMENT_3D('',#287,#237,#238);
#196=AXIS2_PLACEMENT_3D('',#289,#239,#240);
#197=AXIS2_PLACEMENT_3D('',#291,#241,#242);
#198=AXIS2_PLACEMENT_3D('',#292,#243,#244);
#199=AXIS2_PLACEMENT_3D('',#294,#245,#246);
#200=AXIS2_PLACEMENT_3D('',#295,#247,#248);
#201=AXIS2_PLACEMENT_3D('',#296,#249,#250);
#202=AXIS2_PLACEMENT_3D('',#297,#251,#252);
#203=AXIS2_PLACEMENT_3D('',#298,#253,#254);
#204=AXIS2_PLACEMENT_3D('',#299,#255,#256);
#205=AXIS2_PLACEMENT_3D('',#301,#257,#258);
#206=AXIS2_PLACEMENT_3D('',#302,#259,#260);
#207=AXIS2_PLACEMENT_3D('',#303,#261,#262);
#208=AXIS2_PLACEMENT_3D('',#305,#263,#264);
#209=DIRECTION('',(0.,0.,1.));
#210=DIRECTION('',(1.,0.,0.));
#211=DIRECTION('',(0.,0.,1.));
#212=DIRECTION('',(-1.60812264967664E-16,1.,0.));
#213=DIRECTION('',(0.,0.,-1.));
#214=DIRECTION('',(-1.60812264967664E-16,1.,0.));
#215=DIRECTION('',(0.,0.,-1.));
#216=DIRECTION('',(1.60812264967664E-16,-1.,0.));
#217=DIRECTION('',(0.,0.,1.));
#218=DIRECTION('',(-1.,1.22464679914735E-16,0.));
#219=DIRECTION('',(0.,0.,-1.));
#220=DIRECTION('',(-1.,1.22464679914735E-16,0.));
#221=DIRECTION('',(0.,0.,-1.));
#222=DIRECTION('',(1.,-1.22464679914735E-16,0.));
#223=DIRECTION('',(0.,0.,1.));
#224=DIRECTION('',(-1.83697019872103E-16,-1.,0.));
#225=DIRECTION('',(0.,0.,-1.));
#226=DIRECTION('',(-1.83697019872103E-16,-1.,0.));
#227=DIRECTION('',(0.,0.,-1.));
#228=DIRECTION('',(1.83697019872103E-16,1.,0.));
#229=DIRECTION('',(0.,0.,-1.));
#230=DIRECTION('',(-1.,0.,0.));
#231=DIRECTION('',(0.,0.,-1.));
#232=DIRECTION('',(-1.,0.,0.));
#233=DIRECTION('',(0.,0.,-1.));
#234=DIRECTION('',(1.,0.,0.));
#235=DIRECTION('',(0.,0.,-1.));
#236=DIRECTION('',(-1.,0.,0.));
#237=DIRECTION('',(0.,0.,-1.));
#238=DIRECTION('',(1.,0.,0.));
#239=DIRECTION('',(0.,0.,-1.));
#240=DIRECTION('',(1.,0.,0.));
#241=DIRECTION('',(0.,0.,-1.));
#242=DIRECTION('',(-1.,0.,0.));
#243=DIRECTION('',(0.,0.,-1.));
#244=DIRECTION('',(-1.,0.,0.));
#245=DIRECTION('',(0.,0.,-1.));
#246=DIRECTION('',(1.,0.,0.));
#247=DIRECTION('',(0.,0.,-1.));
#248=DIRECTION('',(-1.,0.,0.));
#249=DIRECTION('',(0.,0.,-1.));
#250=DIRECTION('',(-1.,0.,0.));
#251=DIRECTION('',(0.,0.,-1.));
#252=DIRECTION('',(-1.,0.,0.));
#253=DIRECTION('',(0.,0.,-1.));
#254=DIRECTION('',(-1.,0.,0.));
#255=DIRECTION('',(0.,0.,-1.));
#256=DIRECTION('',(-1.,0.,0.));
#257=DIRECTION('',(0.,0.,1.));
#258=DIRECTION('',(1.,0.,0.));
#259=DIRECTION('',(0.,0.,-1.));
#260=DIRECTION('',(-1.,0.,0.));
#261=DIRECTION('',(0.,0.,-1.));
#262=DIRECTION('',(-1.,0.,0.));
#263=DIRECTION('',(0.,0.,-1.));
#264=DIRECTION('',(-1.,0.,0.));
#265=CARTESIAN_POINT('',(0.,0.,0.));
#266=CARTESIAN_POINT('',(-55.,-8.8446745732215E-15,-185.416229174934));
#267=CARTESIAN_POINT('',(-55.,-8.8446745732215E-15,13.));
#268=CARTESIAN_POINT('',(-48.,-7.71898871844786E-15,13.));
#269=CARTESIAN_POINT('',(-55.,-8.8446745732215E-15,0.));
#270=CARTESIAN_POINT('',(-55.,-7.00000000000001,0.));
#271=CARTESIAN_POINT('',(-6.73555739531044E-15,-55.,-185.416229174934));
#272=CARTESIAN_POINT('',(-6.73555739531044E-15,-55.,13.));
#273=CARTESIAN_POINT('',(-5.8783046359073E-15,-48.,13.));
#274=CARTESIAN_POINT('',(-6.73555739531044E-15,-55.,0.));
#275=CARTESIAN_POINT('',(6.99999999999999,-55.,0.));
#276=CARTESIAN_POINT('',(55.,-1.01033360929657E-14,-185.416229174934));
#277=CARTESIAN_POINT('',(55.,-1.01033360929657E-14,13.));
#278=CARTESIAN_POINT('',(48.,-8.81745695386094E-15,13.));
#279=CARTESIAN_POINT('',(55.,-1.01033360929657E-14,0.));
#280=CARTESIAN_POINT('',(55.,6.99999999999999,0.));
#281=CARTESIAN_POINT('',(0.,0.,13.));
#282=CARTESIAN_POINT('',(0.,0.,16.));
#283=CARTESIAN_POINT('',(-30.75,0.,16.));
#284=CARTESIAN_POINT('',(0.,0.,0.));
#285=CARTESIAN_POINT('',(30.75,0.,0.));
#286=CARTESIAN_POINT('',(0.,0.,13.));
#287=CARTESIAN_POINT('',(0.,0.,13.));
#288=CARTESIAN_POINT('',(70.,0.,13.));
#289=CARTESIAN_POINT('',(0.,0.,0.));
#290=CARTESIAN_POINT('',(70.,0.,0.));
#291=CARTESIAN_POINT('',(0.,0.,13.));
#292=CARTESIAN_POINT('',(0.,0.,13.));
#293=CARTESIAN_POINT('',(0.,48.,13.));
#294=CARTESIAN_POINT('',(0.,55.,13.));
#295=CARTESIAN_POINT('',(0.,0.,13.));
#296=CARTESIAN_POINT('',(0.,0.,13.));
#297=CARTESIAN_POINT('',(0.,0.,13.));
#298=CARTESIAN_POINT('',(0.,0.,0.));
#299=CARTESIAN_POINT('',(0.,55.,0.));
#300=CARTESIAN_POINT('',(-7.,55.,0.));
#301=CARTESIAN_POINT('',(0.,55.,-185.416229174934));
#302=CARTESIAN_POINT('',(-30.75,0.,16.));
#303=CARTESIAN_POINT('',(0.,0.,16.));
#304=CARTESIAN_POINT('',(-45.,0.,16.));
#305=CARTESIAN_POINT('',(0.,0.,16.));
#306=MECHANICAL_DESIGN_GEOMETRIC_PRESENTATION_REPRESENTATION('',(#170),
#307);
#307=(
GEOMETRIC_REPRESENTATION_CONTEXT(3)
GLOBAL_UNCERTAINTY_ASSIGNED_CONTEXT((#308))
GLOBAL_UNIT_ASSIGNED_CONTEXT((#311,#310,#309))
REPRESENTATION_CONTEXT('\X2\7A819762FF08\X0\RF\X2\FF09677F5F0F5E73710A94A252367BA16CD55170\X0\',
'TOP_LEVEL_ASSEMBLY_PART')
);
#308=UNCERTAINTY_MEASURE_WITH_UNIT(LENGTH_MEASURE(0.005),#311,
'DISTANCE_ACCURACY_VALUE','Maximum Tolerance applied to model');
#309=(
NAMED_UNIT(*)
SI_UNIT($,.STERADIAN.)
SOLID_ANGLE_UNIT()
);
#310=(
NAMED_UNIT(*)
PLANE_ANGLE_UNIT()
SI_UNIT($,.RADIAN.)
);
#311=(
LENGTH_UNIT()
NAMED_UNIT(*)
SI_UNIT(.MILLI.,.METRE.)
);
#312=PRODUCT_DEFINITION_SHAPE('','',#313);
#313=PRODUCT_DEFINITION('','',#315,#314);
#314=PRODUCT_DEFINITION_CONTEXT('',#321,'design');
#315=PRODUCT_DEFINITION_FORMATION_WITH_SPECIFIED_SOURCE('','',#317,
 .NOT_KNOWN.);
#316=PRODUCT_RELATED_PRODUCT_CATEGORY('','',(#317));
#317=PRODUCT('\X2\7A819762FF08\X0\RF\X2\FF09677F5F0F5E73710A94A252367BA16CD55170\X0\',
'\X2\7A819762FF08\X0\RF\X2\FF09677F5F0F5E73710A94A252367BA16CD55170\X0\',
'\X2\7A819762FF08\X0\RF\X2\FF09677F5F0F5E73710A94A252367BA16CD55170\X0\',
(#319));
#318=PRODUCT_CATEGORY('','');
#319=PRODUCT_CONTEXT('',#321,'mechanical');
#320=APPLICATION_PROTOCOL_DEFINITION('international standard',
'automotive_design',2010,#321);
#321=APPLICATION_CONTEXT(
'core data for automotive mechanical design processes');
ENDSEC;
END-ISO-10303-21;
