ISO-10303-21;
HEADER;
/* Generated by software containing HOOPS Exchange Step
 * from HOOPS Exchange, Inc. (www.tiangong.cloud) 
 */

FILE_DESCRIPTION(
/* description */ ('Unknown'),
/* implementation_level */ '2;1');

FILE_NAME(
/* name */ '\X2\7A8197626CD5517076D6\X0\',
/* time_stamp */ '2025-09-24T14:16:08+08:00',
/* author */ ('Unknown'),
/* organization */ ('Unknown'),
/* preprocessor_version */ 'ST-DEVELOPER v19.4',
/* originating_system */ 'TianGong',
/* authorisation */ 'Unknown');

FILE_SCHEMA (('AUTOMOTIVE_DESIGN {1 0 10303 214 3 1 1}'));
ENDSEC;

DATA;
#10=PROPERTY_DEFINITION_REPRESENTATION(#14,#12);
#11=PROPERTY_DEFINITION_REPRESENTATION(#15,#13);
#12=REPRESENTATION('',(#16),#273);
#13=REPRESENTATION('',(#17),#273);
#14=PROPERTY_DEFINITION('pmi validation property','',#278);
#15=PROPERTY_DEFINITION('pmi validation property','',#278);
#16=VALUE_REPRESENTATION_ITEM('number of annotations',COUNT_MEASURE(0.));
#17=VALUE_REPRESENTATION_ITEM('number of views',COUNT_MEASURE(0.));
#18=SHAPE_REPRESENTATION_RELATIONSHIP('','',#160,#19);
#19=ADVANCED_BREP_SHAPE_REPRESENTATION('',(#158),#273);
#20=CONICAL_SURFACE('',#178,17.5,0.785398163397449);
#21=PLANE('',#174);
#22=PLANE('',#176);
#23=PLANE('',#183);
#24=ORIENTED_EDGE('',*,*,#54,.F.);
#25=ORIENTED_EDGE('',*,*,#55,.F.);
#26=ORIENTED_EDGE('',*,*,#56,.F.);
#27=ORIENTED_EDGE('',*,*,#57,.F.);
#28=ORIENTED_EDGE('',*,*,#58,.F.);
#29=ORIENTED_EDGE('',*,*,#59,.F.);
#30=ORIENTED_EDGE('',*,*,#60,.T.);
#31=ORIENTED_EDGE('',*,*,#61,.F.);
#32=ORIENTED_EDGE('',*,*,#55,.T.);
#33=ORIENTED_EDGE('',*,*,#57,.T.);
#34=ORIENTED_EDGE('',*,*,#59,.T.);
#35=ORIENTED_EDGE('',*,*,#62,.T.);
#36=ORIENTED_EDGE('',*,*,#60,.F.);
#37=ORIENTED_EDGE('',*,*,#63,.T.);
#38=ORIENTED_EDGE('',*,*,#64,.T.);
#39=ORIENTED_EDGE('',*,*,#65,.T.);
#40=ORIENTED_EDGE('',*,*,#66,.T.);
#41=ORIENTED_EDGE('',*,*,#67,.T.);
#42=ORIENTED_EDGE('',*,*,#63,.F.);
#43=ORIENTED_EDGE('',*,*,#61,.T.);
#44=ORIENTED_EDGE('',*,*,#64,.F.);
#45=ORIENTED_EDGE('',*,*,#68,.T.);
#46=ORIENTED_EDGE('',*,*,#67,.F.);
#47=ORIENTED_EDGE('',*,*,#58,.T.);
#48=ORIENTED_EDGE('',*,*,#66,.F.);
#49=ORIENTED_EDGE('',*,*,#56,.T.);
#50=ORIENTED_EDGE('',*,*,#65,.F.);
#51=ORIENTED_EDGE('',*,*,#54,.T.);
#52=ORIENTED_EDGE('',*,*,#68,.F.);
#53=ORIENTED_EDGE('',*,*,#62,.F.);
#54=EDGE_CURVE('',#69,#69,#80,.T.);
#55=EDGE_CURVE('',#70,#70,#81,.F.);
#56=EDGE_CURVE('',#71,#71,#82,.T.);
#57=EDGE_CURVE('',#72,#72,#83,.F.);
#58=EDGE_CURVE('',#73,#73,#84,.T.);
#59=EDGE_CURVE('',#74,#74,#85,.F.);
#60=EDGE_CURVE('',#75,#75,#86,.T.);
#61=EDGE_CURVE('',#76,#76,#87,.T.);
#62=EDGE_CURVE('',#77,#77,#88,.F.);
#63=EDGE_CURVE('',#78,#78,#89,.T.);
#64=EDGE_CURVE('',#79,#69,#90,.T.);
#65=EDGE_CURVE('',#69,#71,#91,.T.);
#66=EDGE_CURVE('',#71,#73,#92,.T.);
#67=EDGE_CURVE('',#73,#79,#93,.T.);
#68=EDGE_CURVE('',#79,#79,#94,.T.);
#69=VERTEX_POINT('',#239);
#70=VERTEX_POINT('',#241);
#71=VERTEX_POINT('',#244);
#72=VERTEX_POINT('',#246);
#73=VERTEX_POINT('',#249);
#74=VERTEX_POINT('',#251);
#75=VERTEX_POINT('',#254);
#76=VERTEX_POINT('',#256);
#77=VERTEX_POINT('',#259);
#78=VERTEX_POINT('',#262);
#79=VERTEX_POINT('',#265);
#80=CIRCLE('',#163,5.5);
#81=CIRCLE('',#164,5.5);
#82=CIRCLE('',#166,5.5);
#83=CIRCLE('',#167,5.5);
#84=CIRCLE('',#169,5.5);
#85=CIRCLE('',#170,5.5);
#86=CIRCLE('',#172,37.5);
#87=CIRCLE('',#173,37.5);
#88=CIRCLE('',#175,5.5);
#89=CIRCLE('',#177,17.5);
#90=CIRCLE('',#179,19.5);
#91=CIRCLE('',#180,19.5);
#92=CIRCLE('',#181,19.5);
#93=CIRCLE('',#182,19.5);
#94=CIRCLE('',#184,5.5);
#95=EDGE_LOOP('',(#24));
#96=EDGE_LOOP('',(#25));
#97=EDGE_LOOP('',(#26));
#98=EDGE_LOOP('',(#27));
#99=EDGE_LOOP('',(#28));
#100=EDGE_LOOP('',(#29));
#101=EDGE_LOOP('',(#30));
#102=EDGE_LOOP('',(#31));
#103=EDGE_LOOP('',(#32));
#104=EDGE_LOOP('',(#33));
#105=EDGE_LOOP('',(#34));
#106=EDGE_LOOP('',(#35));
#107=EDGE_LOOP('',(#36));
#108=EDGE_LOOP('',(#37));
#109=EDGE_LOOP('',(#38,#39,#40,#41));
#110=EDGE_LOOP('',(#42));
#111=EDGE_LOOP('',(#43));
#112=EDGE_LOOP('',(#44,#45,#46,#47,#48,#49,#50,#51));
#113=EDGE_LOOP('',(#52));
#114=EDGE_LOOP('',(#53));
#115=FACE_BOUND('',#95,.T.);
#116=FACE_BOUND('',#96,.T.);
#117=FACE_BOUND('',#97,.T.);
#118=FACE_BOUND('',#98,.T.);
#119=FACE_BOUND('',#99,.T.);
#120=FACE_BOUND('',#100,.T.);
#121=FACE_BOUND('',#101,.T.);
#122=FACE_BOUND('',#102,.T.);
#123=FACE_BOUND('',#103,.T.);
#124=FACE_BOUND('',#104,.T.);
#125=FACE_BOUND('',#105,.T.);
#126=FACE_BOUND('',#106,.T.);
#127=FACE_BOUND('',#107,.T.);
#128=FACE_BOUND('',#108,.T.);
#129=FACE_BOUND('',#109,.T.);
#130=FACE_BOUND('',#110,.T.);
#131=FACE_BOUND('',#111,.T.);
#132=FACE_BOUND('',#112,.T.);
#133=FACE_BOUND('',#113,.T.);
#134=FACE_BOUND('',#114,.T.);
#135=CYLINDRICAL_SURFACE('',#162,5.5);
#136=CYLINDRICAL_SURFACE('',#165,5.5);
#137=CYLINDRICAL_SURFACE('',#168,5.5);
#138=CYLINDRICAL_SURFACE('',#171,37.5);
#139=CYLINDRICAL_SURFACE('',#185,5.5);
#140=ADVANCED_FACE('',(#115,#116),#135,.F.);
#141=ADVANCED_FACE('',(#117,#118),#136,.F.);
#142=ADVANCED_FACE('',(#119,#120),#137,.F.);
#143=ADVANCED_FACE('',(#121,#122),#138,.T.);
#144=ADVANCED_FACE('',(#123,#124,#125,#126,#127),#21,.T.);
#145=ADVANCED_FACE('',(#128),#22,.T.);
#146=ADVANCED_FACE('',(#129,#130),#20,.T.);
#147=ADVANCED_FACE('',(#131,#132),#23,.T.);
#148=ADVANCED_FACE('',(#133,#134),#139,.F.);
#149=CLOSED_SHELL('',(#140,#141,#142,#143,#144,#145,#146,#147,#148));
#150=STYLED_ITEM('',(#151),#158);
#151=PRESENTATION_STYLE_ASSIGNMENT((#152));
#152=SURFACE_STYLE_USAGE(.BOTH.,#153);
#153=SURFACE_SIDE_STYLE('',(#154));
#154=SURFACE_STYLE_FILL_AREA(#155);
#155=FILL_AREA_STYLE('',(#156));
#156=FILL_AREA_STYLE_COLOUR('',#157);
#157=COLOUR_RGB('',0.506983280181885,0.531564235687256,0.550000011920929);
#158=MANIFOLD_SOLID_BREP('',#149);
#159=SHAPE_DEFINITION_REPRESENTATION(#278,#160);
#160=SHAPE_REPRESENTATION('\X2\7A8197626CD5517076D6\X0\',(#161),#273);
#161=AXIS2_PLACEMENT_3D('',#236,#186,#187);
#162=AXIS2_PLACEMENT_3D('',#237,#188,#189);
#163=AXIS2_PLACEMENT_3D('',#238,#190,#191);
#164=AXIS2_PLACEMENT_3D('',#240,#192,#193);
#165=AXIS2_PLACEMENT_3D('',#242,#194,#195);
#166=AXIS2_PLACEMENT_3D('',#243,#196,#197);
#167=AXIS2_PLACEMENT_3D('',#245,#198,#199);
#168=AXIS2_PLACEMENT_3D('',#247,#200,#201);
#169=AXIS2_PLACEMENT_3D('',#248,#202,#203);
#170=AXIS2_PLACEMENT_3D('',#250,#204,#205);
#171=AXIS2_PLACEMENT_3D('',#252,#206,#207);
#172=AXIS2_PLACEMENT_3D('',#253,#208,#209);
#173=AXIS2_PLACEMENT_3D('',#255,#210,#211);
#174=AXIS2_PLACEMENT_3D('',#257,#212,#213);
#175=AXIS2_PLACEMENT_3D('',#258,#214,#215);
#176=AXIS2_PLACEMENT_3D('',#260,#216,#217);
#177=AXIS2_PLACEMENT_3D('',#261,#218,#219);
#178=AXIS2_PLACEMENT_3D('',#263,#220,#221);
#179=AXIS2_PLACEMENT_3D('',#264,#222,#223);
#180=AXIS2_PLACEMENT_3D('',#266,#224,#225);
#181=AXIS2_PLACEMENT_3D('',#267,#226,#227);
#182=AXIS2_PLACEMENT_3D('',#268,#228,#229);
#183=AXIS2_PLACEMENT_3D('',#269,#230,#231);
#184=AXIS2_PLACEMENT_3D('',#270,#232,#233);
#185=AXIS2_PLACEMENT_3D('',#271,#234,#235);
#186=DIRECTION('',(0.,0.,1.));
#187=DIRECTION('',(1.,0.,0.));
#188=DIRECTION('',(0.,0.,-1.));
#189=DIRECTION('',(1.60812264967664E-16,1.,0.));
#190=DIRECTION('',(0.,0.,1.));
#191=DIRECTION('',(-1.60812264967664E-16,-1.,0.));
#192=DIRECTION('',(0.,0.,1.));
#193=DIRECTION('',(-1.60812264967664E-16,-1.,0.));
#194=DIRECTION('',(0.,0.,-1.));
#195=DIRECTION('',(1.,1.22464679914735E-16,0.));
#196=DIRECTION('',(0.,0.,1.));
#197=DIRECTION('',(-1.,-1.22464679914735E-16,0.));
#198=DIRECTION('',(0.,0.,1.));
#199=DIRECTION('',(-1.,-1.22464679914735E-16,0.));
#200=DIRECTION('',(0.,0.,-1.));
#201=DIRECTION('',(1.83697019872103E-16,-1.,0.));
#202=DIRECTION('',(0.,0.,1.));
#203=DIRECTION('',(-1.83697019872103E-16,1.,0.));
#204=DIRECTION('',(0.,0.,1.));
#205=DIRECTION('',(-1.83697019872103E-16,1.,0.));
#206=DIRECTION('',(0.,0.,-1.));
#207=DIRECTION('',(-1.,0.,0.));
#208=DIRECTION('',(0.,0.,-1.));
#209=DIRECTION('',(-1.,0.,0.));
#210=DIRECTION('',(0.,0.,-1.));
#211=DIRECTION('',(-1.,0.,0.));
#212=DIRECTION('',(0.,0.,1.));
#213=DIRECTION('',(1.,0.,0.));
#214=DIRECTION('',(0.,0.,1.));
#215=DIRECTION('',(1.,0.,0.));
#216=DIRECTION('',(0.,0.,-1.));
#217=DIRECTION('',(-1.,0.,0.));
#218=DIRECTION('',(0.,0.,-1.));
#219=DIRECTION('',(-1.,0.,0.));
#220=DIRECTION('',(0.,0.,1.));
#221=DIRECTION('',(1.,0.,0.));
#222=DIRECTION('',(0.,0.,-1.));
#223=DIRECTION('',(-1.,0.,0.));
#224=DIRECTION('',(0.,0.,-1.));
#225=DIRECTION('',(-1.,0.,0.));
#226=DIRECTION('',(0.,0.,-1.));
#227=DIRECTION('',(-1.,0.,0.));
#228=DIRECTION('',(0.,0.,-1.));
#229=DIRECTION('',(-1.,0.,0.));
#230=DIRECTION('',(0.,0.,-1.));
#231=DIRECTION('',(-1.,0.,0.));
#232=DIRECTION('',(0.,0.,1.));
#233=DIRECTION('',(1.,0.,0.));
#234=DIRECTION('',(0.,0.,-1.));
#235=DIRECTION('',(-1.,0.,0.));
#236=CARTESIAN_POINT('',(0.,0.,0.));
#237=CARTESIAN_POINT('',(-25.,4.02030662419159E-15,96.7426812479432));
#238=CARTESIAN_POINT('',(-25.,4.02030662419159E-15,-10.));
#239=CARTESIAN_POINT('',(-19.5,3.13583916686944E-15,-10.));
#240=CARTESIAN_POINT('',(-25.,4.02030662419159E-15,0.));
#241=CARTESIAN_POINT('',(-25.,-5.5,0.));
#242=CARTESIAN_POINT('',(-3.06161699786838E-15,25.,96.7426812479432));
#243=CARTESIAN_POINT('',(-3.06161699786838E-15,25.,-10.));
#244=CARTESIAN_POINT('',(-2.38806125833734E-15,19.5,-10.));
#245=CARTESIAN_POINT('',(-3.06161699786838E-15,25.,0.));
#246=CARTESIAN_POINT('',(-5.5,25.,0.));
#247=CARTESIAN_POINT('',(25.,4.59242549680257E-15,96.7426812479432));
#248=CARTESIAN_POINT('',(25.,4.59242549680257E-15,-10.));
#249=CARTESIAN_POINT('',(19.5,3.58209188750601E-15,-10.));
#250=CARTESIAN_POINT('',(25.,4.59242549680257E-15,0.));
#251=CARTESIAN_POINT('',(25.,5.5,0.));
#252=CARTESIAN_POINT('',(0.,0.,0.));
#253=CARTESIAN_POINT('',(0.,0.,0.));
#254=CARTESIAN_POINT('',(-37.5,0.,0.));
#255=CARTESIAN_POINT('',(0.,0.,-10.));
#256=CARTESIAN_POINT('',(-37.5,0.,-10.));
#257=CARTESIAN_POINT('',(-37.5,0.,0.));
#258=CARTESIAN_POINT('',(0.,-25.,0.));
#259=CARTESIAN_POINT('',(5.5,-25.,0.));
#260=CARTESIAN_POINT('',(0.,0.,-12.));
#261=CARTESIAN_POINT('',(0.,0.,-12.));
#262=CARTESIAN_POINT('',(-17.5,0.,-12.));
#263=CARTESIAN_POINT('',(0.,0.,-12.));
#264=CARTESIAN_POINT('',(0.,0.,-10.));
#265=CARTESIAN_POINT('',(0.,-19.5,-10.));
#266=CARTESIAN_POINT('',(0.,0.,-10.));
#267=CARTESIAN_POINT('',(0.,0.,-10.));
#268=CARTESIAN_POINT('',(0.,0.,-10.));
#269=CARTESIAN_POINT('',(-37.5,0.,-10.));
#270=CARTESIAN_POINT('',(0.,-25.,-10.));
#271=CARTESIAN_POINT('',(0.,-25.,96.7426812479432));
#272=MECHANICAL_DESIGN_GEOMETRIC_PRESENTATION_REPRESENTATION('',(#150),
#273);
#273=(
GEOMETRIC_REPRESENTATION_CONTEXT(3)
GLOBAL_UNCERTAINTY_ASSIGNED_CONTEXT((#274))
GLOBAL_UNIT_ASSIGNED_CONTEXT((#277,#276,#275))
REPRESENTATION_CONTEXT('\X2\7A8197626CD5517076D6\X0\',
'TOP_LEVEL_ASSEMBLY_PART')
);
#274=UNCERTAINTY_MEASURE_WITH_UNIT(LENGTH_MEASURE(0.005),#277,
'DISTANCE_ACCURACY_VALUE','Maximum Tolerance applied to model');
#275=(
NAMED_UNIT(*)
SI_UNIT($,.STERADIAN.)
SOLID_ANGLE_UNIT()
);
#276=(
NAMED_UNIT(*)
PLANE_ANGLE_UNIT()
SI_UNIT($,.RADIAN.)
);
#277=(
LENGTH_UNIT()
NAMED_UNIT(*)
SI_UNIT(.MILLI.,.METRE.)
);
#278=PRODUCT_DEFINITION_SHAPE('','',#279);
#279=PRODUCT_DEFINITION('','',#281,#280);
#280=PRODUCT_DEFINITION_CONTEXT('',#287,'design');
#281=PRODUCT_DEFINITION_FORMATION_WITH_SPECIFIED_SOURCE('','',#283,
 .NOT_KNOWN.);
#282=PRODUCT_RELATED_PRODUCT_CATEGORY('','',(#283));
#283=PRODUCT('\X2\7A8197626CD5517076D6\X0\','\X2\7A8197626CD5517076D6\X0\',
'\X2\7A8197626CD5517076D6\X0\',(#285));
#284=PRODUCT_CATEGORY('','');
#285=PRODUCT_CONTEXT('',#287,'mechanical');
#286=APPLICATION_PROTOCOL_DEFINITION('international standard',
'automotive_design',2010,#287);
#287=APPLICATION_CONTEXT(
'core data for automotive mechanical design processes');
ENDSEC;
END-ISO-10303-21;
