ISO-10303-21;
HEADER;
/* Generated by software containing HOOPS Exchange Step
 * from HOOPS Exchange, Inc. (www.tiangong.cloud) 
 */

FILE_DESCRIPTION(
/* description */ ('Unknown'),
/* implementation_level */ '2;1');

FILE_NAME(
/* name */ '\X2\7F207ED55F0F57AB7247\X0\_\X2\592776F45F8478B394A27BA16CD5517075285E265185591673AF578B\X0\',

/* time_stamp */ '2026-01-12T10:10:09+08:00',
/* author */ ('Unknown'),
/* organization */ ('Unknown'),
/* preprocessor_version */ 'ST-DEVELOPER v19.4',
/* originating_system */ 'TianGong',
/* authorisation */ 'Unknown');

FILE_SCHEMA (('AUTOMOTIVE_DESIGN {1 0 10303 214 3 1 1}'));
ENDSEC;

DATA;
#10=PROPERTY_DEFINITION_REPRESENTATION(#14,#12);
#11=PROPERTY_DEFINITION_REPRESENTATION(#15,#13);
#12=REPRESENTATION('',(#16),#277);
#13=REPRESENTATION('',(#17),#277);
#14=PROPERTY_DEFINITION('pmi validation property','',#282);
#15=PROPERTY_DEFINITION('pmi validation property','',#282);
#16=VALUE_REPRESENTATION_ITEM('number of annotations',COUNT_MEASURE(0.));
#17=VALUE_REPRESENTATION_ITEM('number of views',COUNT_MEASURE(0.));
#18=SHAPE_REPRESENTATION_RELATIONSHIP('','',#163,#19);
#19=ADVANCED_BREP_SHAPE_REPRESENTATION('',(#161),#277);
#20=CYLINDRICAL_SURFACE('',#177,479.5);
#21=CYLINDRICAL_SURFACE('',#188,393.5);
#22=PLANE('',#172);
#23=PLANE('',#174);
#24=PLANE('',#179);
#25=PLANE('',#186);
#26=ORIENTED_EDGE('',*,*,#50,.F.);
#27=ORIENTED_EDGE('',*,*,#51,.T.);
#28=ORIENTED_EDGE('',*,*,#52,.T.);
#29=ORIENTED_EDGE('',*,*,#53,.F.);
#30=ORIENTED_EDGE('',*,*,#52,.F.);
#31=ORIENTED_EDGE('',*,*,#50,.T.);
#32=ORIENTED_EDGE('',*,*,#54,.T.);
#33=ORIENTED_EDGE('',*,*,#53,.T.);
#34=ORIENTED_EDGE('',*,*,#55,.F.);
#35=ORIENTED_EDGE('',*,*,#56,.F.);
#36=ORIENTED_EDGE('',*,*,#57,.F.);
#37=ORIENTED_EDGE('',*,*,#55,.T.);
#38=ORIENTED_EDGE('',*,*,#51,.F.);
#39=ORIENTED_EDGE('',*,*,#57,.T.);
#40=ORIENTED_EDGE('',*,*,#58,.T.);
#41=ORIENTED_EDGE('',*,*,#56,.T.);
#42=ORIENTED_EDGE('',*,*,#59,.F.);
#43=ORIENTED_EDGE('',*,*,#58,.F.);
#44=ORIENTED_EDGE('',*,*,#59,.T.);
#45=ORIENTED_EDGE('',*,*,#60,.F.);
#46=ORIENTED_EDGE('',*,*,#61,.F.);
#47=ORIENTED_EDGE('',*,*,#60,.T.);
#48=ORIENTED_EDGE('',*,*,#54,.F.);
#49=ORIENTED_EDGE('',*,*,#61,.T.);
#50=EDGE_CURVE('',#62,#62,#74,.T.);
#51=EDGE_CURVE('',#63,#63,#75,.F.);
#52=EDGE_CURVE('',#64,#64,#76,.F.);
#53=EDGE_CURVE('',#65,#65,#77,.F.);
#54=EDGE_CURVE('',#66,#66,#78,.T.);
#55=EDGE_CURVE('',#67,#67,#79,.T.);
#56=EDGE_CURVE('',#68,#68,#80,.F.);
#57=EDGE_CURVE('',#69,#69,#81,.T.);
#58=EDGE_CURVE('',#70,#70,#82,.T.);
#59=EDGE_CURVE('',#71,#71,#83,.F.);
#60=EDGE_CURVE('',#72,#72,#84,.F.);
#61=EDGE_CURVE('',#73,#73,#85,.T.);
#62=VERTEX_POINT('',#242);
#63=VERTEX_POINT('',#244);
#64=VERTEX_POINT('',#247);
#65=VERTEX_POINT('',#249);
#66=VERTEX_POINT('',#253);
#67=VERTEX_POINT('',#256);
#68=VERTEX_POINT('',#258);
#69=VERTEX_POINT('',#261);
#70=VERTEX_POINT('',#265);
#71=VERTEX_POINT('',#268);
#72=VERTEX_POINT('',#271);
#73=VERTEX_POINT('',#274);
#74=CIRCLE('',#166,426.24985847068);
#75=CIRCLE('',#167,427.20051817834);
#76=CIRCLE('',#169,403.027331296205);
#77=CIRCLE('',#170,403.649962185539);
#78=CIRCLE('',#173,393.5);
#79=CIRCLE('',#175,479.5);
#80=CIRCLE('',#176,427.20051817834);
#81=CIRCLE('',#178,479.5);
#82=CIRCLE('',#181,426.24985847068);
#83=CIRCLE('',#183,403.027331296205);
#84=CIRCLE('',#185,403.649962185539);
#85=CIRCLE('',#187,393.5);
#86=EDGE_LOOP('',(#26));
#87=EDGE_LOOP('',(#27));
#88=EDGE_LOOP('',(#28));
#89=EDGE_LOOP('',(#29));
#90=EDGE_LOOP('',(#30));
#91=EDGE_LOOP('',(#31));
#92=EDGE_LOOP('',(#32));
#93=EDGE_LOOP('',(#33));
#94=EDGE_LOOP('',(#34));
#95=EDGE_LOOP('',(#35));
#96=EDGE_LOOP('',(#36));
#97=EDGE_LOOP('',(#37));
#98=EDGE_LOOP('',(#38));
#99=EDGE_LOOP('',(#39));
#100=EDGE_LOOP('',(#40));
#101=EDGE_LOOP('',(#41));
#102=EDGE_LOOP('',(#42));
#103=EDGE_LOOP('',(#43));
#104=EDGE_LOOP('',(#44));
#105=EDGE_LOOP('',(#45));
#106=EDGE_LOOP('',(#46));
#107=EDGE_LOOP('',(#47));
#108=EDGE_LOOP('',(#48));
#109=EDGE_LOOP('',(#49));
#110=FACE_BOUND('',#86,.T.);
#111=FACE_BOUND('',#87,.T.);
#112=FACE_BOUND('',#88,.T.);
#113=FACE_BOUND('',#89,.T.);
#114=FACE_BOUND('',#90,.T.);
#115=FACE_BOUND('',#91,.T.);
#116=FACE_BOUND('',#92,.T.);
#117=FACE_BOUND('',#93,.T.);
#118=FACE_BOUND('',#94,.T.);
#119=FACE_BOUND('',#95,.T.);
#120=FACE_BOUND('',#96,.T.);
#121=FACE_BOUND('',#97,.T.);
#122=FACE_BOUND('',#98,.T.);
#123=FACE_BOUND('',#99,.T.);
#124=FACE_BOUND('',#100,.T.);
#125=FACE_BOUND('',#101,.T.);
#126=FACE_BOUND('',#102,.T.);
#127=FACE_BOUND('',#103,.T.);
#128=FACE_BOUND('',#104,.T.);
#129=FACE_BOUND('',#105,.T.);
#130=FACE_BOUND('',#106,.T.);
#131=FACE_BOUND('',#107,.T.);
#132=FACE_BOUND('',#108,.T.);
#133=FACE_BOUND('',#109,.T.);
#134=CONICAL_SURFACE('',#165,426.24985847068,0.713893388862406);
#135=CONICAL_SURFACE('',#168,404.499824528823,0.523598775598321);
#136=CONICAL_SURFACE('',#171,0.,1.56998142359483);
#137=CONICAL_SURFACE('',#180,428.5,0.713893388862456);
#138=CONICAL_SURFACE('',#182,426.24985847068,1.56998142359483);
#139=CONICAL_SURFACE('',#184,402.999824528823,0.523598775598247);
#140=ADVANCED_FACE('',(#110,#111),#134,.T.);
#141=ADVANCED_FACE('',(#112,#113),#135,.F.);
#142=ADVANCED_FACE('',(#114,#115),#136,.F.);
#143=ADVANCED_FACE('',(#116,#117),#22,.F.);
#144=ADVANCED_FACE('',(#118,#119),#23,.F.);
#145=ADVANCED_FACE('',(#120,#121),#20,.T.);
#146=ADVANCED_FACE('',(#122,#123),#24,.F.);
#147=ADVANCED_FACE('',(#124,#125),#137,.T.);
#148=ADVANCED_FACE('',(#126,#127),#138,.F.);
#149=ADVANCED_FACE('',(#128,#129),#139,.F.);
#150=ADVANCED_FACE('',(#130,#131),#25,.F.);
#151=ADVANCED_FACE('',(#132,#133),#21,.F.);
#152=CLOSED_SHELL('',(#140,#141,#142,#143,#144,#145,#146,#147,#148,#149,
#150,#151));
#153=STYLED_ITEM('',(#154),#161);
#154=PRESENTATION_STYLE_ASSIGNMENT((#155));
#155=SURFACE_STYLE_USAGE(.BOTH.,#156);
#156=SURFACE_SIDE_STYLE('',(#157));
#157=SURFACE_STYLE_FILL_AREA(#158);
#158=FILL_AREA_STYLE('',(#159));
#159=FILL_AREA_STYLE_COLOUR('',#160);
#160=COLOUR_RGB('',0.506983280181885,0.531564235687256,0.550000011920929);
#161=MANIFOLD_SOLID_BREP('',#152);
#162=SHAPE_DEFINITION_REPRESENTATION(#282,#163);
#163=SHAPE_REPRESENTATION(
'\X2\7F207ED55F0F57AB7247\X0\_\X2\592776F45F8478B394A27BA16CD5517075285E265185591673AF578B\X0\',
(#164),#277);
#164=AXIS2_PLACEMENT_3D('',#239,#189,#190);
#165=AXIS2_PLACEMENT_3D('',#240,#191,#192);
#166=AXIS2_PLACEMENT_3D('',#241,#193,#194);
#167=AXIS2_PLACEMENT_3D('',#243,#195,#196);
#168=AXIS2_PLACEMENT_3D('',#245,#197,#198);
#169=AXIS2_PLACEMENT_3D('',#246,#199,#200);
#170=AXIS2_PLACEMENT_3D('',#248,#201,#202);
#171=AXIS2_PLACEMENT_3D('',#250,#203,#204);
#172=AXIS2_PLACEMENT_3D('',#251,#205,#206);
#173=AXIS2_PLACEMENT_3D('',#252,#207,#208);
#174=AXIS2_PLACEMENT_3D('',#254,#209,#210);
#175=AXIS2_PLACEMENT_3D('',#255,#211,#212);
#176=AXIS2_PLACEMENT_3D('',#257,#213,#214);
#177=AXIS2_PLACEMENT_3D('',#259,#215,#216);
#178=AXIS2_PLACEMENT_3D('',#260,#217,#218);
#179=AXIS2_PLACEMENT_3D('',#262,#219,#220);
#180=AXIS2_PLACEMENT_3D('',#263,#221,#222);
#181=AXIS2_PLACEMENT_3D('',#264,#223,#224);
#182=AXIS2_PLACEMENT_3D('',#266,#225,#226);
#183=AXIS2_PLACEMENT_3D('',#267,#227,#228);
#184=AXIS2_PLACEMENT_3D('',#269,#229,#230);
#185=AXIS2_PLACEMENT_3D('',#270,#231,#232);
#186=AXIS2_PLACEMENT_3D('',#272,#233,#234);
#187=AXIS2_PLACEMENT_3D('',#273,#235,#236);
#188=AXIS2_PLACEMENT_3D('',#275,#237,#238);
#189=DIRECTION('',(0.,0.,1.));
#190=DIRECTION('',(1.,0.,0.));
#191=DIRECTION('',(3.74927562856021E-33,6.12323399573677E-17,-1.));
#192=DIRECTION('',(0.,1.,6.12323399573677E-17));
#193=DIRECTION('',(-3.74927562856021E-33,-6.12323399573677E-17,1.));
#194=DIRECTION('',(0.,-1.,-6.12323399573677E-17));
#195=DIRECTION('',(1.83697019872103E-16,0.,-1.));
#196=DIRECTION('',(-1.,0.,-1.83697019872103E-16));
#197=DIRECTION('',(0.,0.,-1.));
#198=DIRECTION('',(-1.,0.,0.));
#199=DIRECTION('',(0.,0.,-1.));
#200=DIRECTION('',(-1.,0.,0.));
#201=DIRECTION('',(1.83697019872103E-16,0.,-1.));
#202=DIRECTION('',(-1.,0.,-1.83697019872103E-16));
#203=DIRECTION('',(-3.74927562856021E-33,-6.12323399573677E-17,1.));
#204=DIRECTION('',(0.,-1.,-6.12323399573677E-17));
#205=DIRECTION('',(1.83697019872103E-16,0.,-1.));
#206=DIRECTION('',(-1.,0.,-1.83697019872103E-16));
#207=DIRECTION('',(0.,0.,-1.));
#208=DIRECTION('',(-1.,0.,0.));
#209=DIRECTION('',(-1.83697019872103E-16,0.,1.));
#210=DIRECTION('',(1.,0.,1.83697019872103E-16));
#211=DIRECTION('',(-1.83697019872103E-16,0.,1.));
#212=DIRECTION('',(1.,0.,1.83697019872103E-16));
#213=DIRECTION('',(-1.83697019872103E-16,0.,1.));
#214=DIRECTION('',(1.,0.,1.83697019872103E-16));
#215=DIRECTION('',(-1.83697019872103E-16,0.,1.));
#216=DIRECTION('',(1.,0.,1.83697019872103E-16));
#217=DIRECTION('',(-1.83697019872103E-16,0.,1.));
#218=DIRECTION('',(1.,0.,1.83697019872103E-16));
#219=DIRECTION('',(1.83697019872103E-16,0.,-1.));
#220=DIRECTION('',(-1.,0.,-1.83697019872103E-16));
#221=DIRECTION('',(-3.74927562856021E-33,-6.12323399573677E-17,1.));
#222=DIRECTION('',(0.,-1.,-6.12323399573677E-17));
#223=DIRECTION('',(-3.74927562856021E-33,-6.12323399573677E-17,1.));
#224=DIRECTION('',(0.,-1.,-6.12323399573677E-17));
#225=DIRECTION('',(3.74927562856021E-33,6.12323399573677E-17,-1.));
#226=DIRECTION('',(0.,1.,6.12323399573677E-17));
#227=DIRECTION('',(0.,0.,1.));
#228=DIRECTION('',(1.,0.,0.));
#229=DIRECTION('',(0.,0.,1.));
#230=DIRECTION('',(1.,0.,0.));
#231=DIRECTION('',(-1.83697019872103E-16,0.,1.));
#232=DIRECTION('',(1.,0.,1.83697019872103E-16));
#233=DIRECTION('',(-1.83697019872103E-16,0.,1.));
#234=DIRECTION('',(1.,0.,1.83697019872103E-16));
#235=DIRECTION('',(0.,0.,-1.));
#236=DIRECTION('',(-1.,0.,0.));
#237=DIRECTION('',(0.,0.,-1.));
#238=DIRECTION('',(-1.,0.,0.));
#239=CARTESIAN_POINT('',(0.,0.,0.));
#240=CARTESIAN_POINT('',(-9.73819024175932E-33,-1.5904196824332E-16,2.59735245058496));
#241=CARTESIAN_POINT('',(-9.73819024175932E-33,-1.5904196824332E-16,2.59735245058496));
#242=CARTESIAN_POINT('',(-9.73819024175932E-33,-426.24985847068,2.59735245058493));
#243=CARTESIAN_POINT('',(-7.16733415568585E-14,-1.5904196824332E-16,1.49999999999996));
#244=CARTESIAN_POINT('',(-427.20051817834,-1.5904196824332E-16,1.49999999999988));
#245=CARTESIAN_POINT('',(0.,0.,0.0279952419926202));
#246=CARTESIAN_POINT('',(-9.66723851523416E-33,-1.57883200345314E-16,2.57842833468782));
#247=CARTESIAN_POINT('',(-403.027331296205,-1.57883200345314E-16,2.57842833468782));
#248=CARTESIAN_POINT('',(-4.28101155006249E-14,0.,1.49999999999996));
#249=CARTESIAN_POINT('',(-403.649962185539,0.,1.49999999999988));
#250=CARTESIAN_POINT('',(-8.43587016426048E-33,-1.37772764904077E-16,2.25));
#251=CARTESIAN_POINT('',(-2.75545529808146E-16,0.,1.49999999999996));
#252=CARTESIAN_POINT('',(0.,0.,1.5));
#253=CARTESIAN_POINT('',(-393.5,0.,1.5));
#254=CARTESIAN_POINT('',(2.75545529808163E-16,0.,-1.50000000000004));
#255=CARTESIAN_POINT('',(2.75545529808171E-16,0.,-1.50000000000009));
#256=CARTESIAN_POINT('',(479.5,0.,-1.5));
#257=CARTESIAN_POINT('',(7.16475325983906E-14,1.63704045272915E-30,-1.50000000000004));
#258=CARTESIAN_POINT('',(427.20051817834,1.63704045272915E-30,-1.49999999999997));
#259=CARTESIAN_POINT('',(-2.75545529808155E-16,0.,1.5));
#260=CARTESIAN_POINT('',(-2.75545529808138E-16,0.,1.49999999999991));
#261=CARTESIAN_POINT('',(479.5,0.,1.5));
#262=CARTESIAN_POINT('',(-2.75545529808146E-16,0.,1.49999999999996));
#263=CARTESIAN_POINT('',(9.88922942734112E-47,1.63704045272915E-30,-2.64545330086463E-14));
#264=CARTESIAN_POINT('',(9.73819024175854E-33,1.59041968243307E-16,-2.59735245058475));
#265=CARTESIAN_POINT('',(9.73819024175854E-33,-426.24985847068,-2.59735245058477));
#266=CARTESIAN_POINT('',(9.73819024175854E-33,1.59041968243307E-16,-2.59735245058475));
#267=CARTESIAN_POINT('',(9.66723851523346E-33,1.57883200345303E-16,-2.57842833468764));
#268=CARTESIAN_POINT('',(403.027331296205,1.57883200345303E-16,-2.57842833468764));
#269=CARTESIAN_POINT('',(0.,0.,-2.62607145334606));
#270=CARTESIAN_POINT('',(4.28101155006176E-14,0.,-1.50000000000004));
#271=CARTESIAN_POINT('',(403.649962185539,0.,-1.49999999999997));
#272=CARTESIAN_POINT('',(2.75545529808163E-16,0.,-1.50000000000004));
#273=CARTESIAN_POINT('',(0.,0.,-1.50000000000005));
#274=CARTESIAN_POINT('',(-393.5,0.,-1.50000000000005));
#275=CARTESIAN_POINT('',(0.,0.,0.));
#276=MECHANICAL_DESIGN_GEOMETRIC_PRESENTATION_REPRESENTATION('',(#153),
#277);
#277=(
GEOMETRIC_REPRESENTATION_CONTEXT(3)
GLOBAL_UNCERTAINTY_ASSIGNED_CONTEXT((#278))
GLOBAL_UNIT_ASSIGNED_CONTEXT((#281,#280,#279))
REPRESENTATION_CONTEXT(
'\X2\7F207ED55F0F57AB7247\X0\_\X2\592776F45F8478B394A27BA16CD5517075285E265185591673AF578B\X0\',
'TOP_LEVEL_ASSEMBLY_PART')
);
#278=UNCERTAINTY_MEASURE_WITH_UNIT(LENGTH_MEASURE(0.005),#281,
'DISTANCE_ACCURACY_VALUE','Maximum Tolerance applied to model');
#279=(
NAMED_UNIT(*)
SI_UNIT($,.STERADIAN.)
SOLID_ANGLE_UNIT()
);
#280=(
NAMED_UNIT(*)
PLANE_ANGLE_UNIT()
SI_UNIT($,.RADIAN.)
);
#281=(
LENGTH_UNIT()
NAMED_UNIT(*)
SI_UNIT(.MILLI.,.METRE.)
);
#282=PRODUCT_DEFINITION_SHAPE('','',#283);
#283=PRODUCT_DEFINITION('','',#285,#284);
#284=PRODUCT_DEFINITION_CONTEXT('',#291,'design');
#285=PRODUCT_DEFINITION_FORMATION_WITH_SPECIFIED_SOURCE('','',#287,
 .NOT_KNOWN.);
#286=PRODUCT_RELATED_PRODUCT_CATEGORY('','',(#287));
#287=PRODUCT(
'\X2\7F207ED55F0F57AB7247\X0\_\X2\592776F45F8478B394A27BA16CD5517075285E265185591673AF578B\X0\',
'\X2\7F207ED55F0F57AB7247\X0\_\X2\592776F45F8478B394A27BA16CD5517075285E265185591673AF578B\X0\',
'\X2\7F207ED55F0F57AB7247\X0\_\X2\592776F45F8478B394A27BA16CD5517075285E265185591673AF578B\X0\',
(#289));
#288=PRODUCT_CATEGORY('','');
#289=PRODUCT_CONTEXT('',#291,'mechanical');
#290=APPLICATION_PROTOCOL_DEFINITION('international standard',
'automotive_design',2010,#291);
#291=APPLICATION_CONTEXT(
'core data for automotive mechanical design processes');
ENDSEC;
END-ISO-10303-21;
