ISO-10303-21;
HEADER;
/* Generated by software containing HOOPS Exchange Step
 * from HOOPS Exchange, Inc. (www.tiangong.cloud) 
 */

FILE_DESCRIPTION(
/* description */ ('Unknown'),
/* implementation_level */ '2;1');

FILE_NAME(
/* name */ '\X2\7A819762FF08\X0\RF\X2\FF09677F5F0F5E73710A94A252367BA16CD55170\X0\',

/* time_stamp */ '2026-01-30T15:50:59+08:00',
/* author */ ('Unknown'),
/* organization */ ('Unknown'),
/* preprocessor_version */ 'ST-DEVELOPER v19.4',
/* originating_system */ 'TianGong',
/* authorisation */ 'Unknown');

FILE_SCHEMA (('AUTOMOTIVE_DESIGN {1 0 10303 214 3 1 1}'));
ENDSEC;

DATA;
#10=PROPERTY_DEFINITION_REPRESENTATION(#14,#12);
#11=PROPERTY_DEFINITION_REPRESENTATION(#15,#13);
#12=REPRESENTATION('',(#16),#1747);
#13=REPRESENTATION('',(#17),#1747);
#14=PROPERTY_DEFINITION('pmi validation property','',#1752);
#15=PROPERTY_DEFINITION('pmi validation property','',#1752);
#16=VALUE_REPRESENTATION_ITEM('number of annotations',COUNT_MEASURE(0.));
#17=VALUE_REPRESENTATION_ITEM('number of views',COUNT_MEASURE(0.));
#18=SHAPE_REPRESENTATION_RELATIONSHIP('','',#972,#19);
#19=ADVANCED_BREP_SHAPE_REPRESENTATION('',(#970),#1747);
#20=CONICAL_SURFACE('',#1144,855.,0.950546840812075);
#21=PLANE('',#1097);
#22=PLANE('',#1139);
#23=PLANE('',#1142);
#24=ORIENTED_EDGE('',*,*,#274,.F.);
#25=ORIENTED_EDGE('',*,*,#275,.F.);
#26=ORIENTED_EDGE('',*,*,#276,.F.);
#27=ORIENTED_EDGE('',*,*,#277,.F.);
#28=ORIENTED_EDGE('',*,*,#278,.F.);
#29=ORIENTED_EDGE('',*,*,#279,.F.);
#30=ORIENTED_EDGE('',*,*,#280,.F.);
#31=ORIENTED_EDGE('',*,*,#281,.F.);
#32=ORIENTED_EDGE('',*,*,#282,.F.);
#33=ORIENTED_EDGE('',*,*,#283,.F.);
#34=ORIENTED_EDGE('',*,*,#284,.F.);
#35=ORIENTED_EDGE('',*,*,#285,.F.);
#36=ORIENTED_EDGE('',*,*,#286,.F.);
#37=ORIENTED_EDGE('',*,*,#287,.F.);
#38=ORIENTED_EDGE('',*,*,#288,.F.);
#39=ORIENTED_EDGE('',*,*,#289,.F.);
#40=ORIENTED_EDGE('',*,*,#290,.F.);
#41=ORIENTED_EDGE('',*,*,#291,.F.);
#42=ORIENTED_EDGE('',*,*,#292,.F.);
#43=ORIENTED_EDGE('',*,*,#293,.F.);
#44=ORIENTED_EDGE('',*,*,#294,.F.);
#45=ORIENTED_EDGE('',*,*,#295,.F.);
#46=ORIENTED_EDGE('',*,*,#296,.F.);
#47=ORIENTED_EDGE('',*,*,#297,.F.);
#48=ORIENTED_EDGE('',*,*,#298,.F.);
#49=ORIENTED_EDGE('',*,*,#299,.F.);
#50=ORIENTED_EDGE('',*,*,#300,.F.);
#51=ORIENTED_EDGE('',*,*,#301,.F.);
#52=ORIENTED_EDGE('',*,*,#302,.F.);
#53=ORIENTED_EDGE('',*,*,#303,.F.);
#54=ORIENTED_EDGE('',*,*,#304,.F.);
#55=ORIENTED_EDGE('',*,*,#305,.F.);
#56=ORIENTED_EDGE('',*,*,#306,.F.);
#57=ORIENTED_EDGE('',*,*,#307,.F.);
#58=ORIENTED_EDGE('',*,*,#308,.F.);
#59=ORIENTED_EDGE('',*,*,#309,.F.);
#60=ORIENTED_EDGE('',*,*,#310,.F.);
#61=ORIENTED_EDGE('',*,*,#311,.F.);
#62=ORIENTED_EDGE('',*,*,#312,.F.);
#63=ORIENTED_EDGE('',*,*,#313,.F.);
#64=ORIENTED_EDGE('',*,*,#314,.F.);
#65=ORIENTED_EDGE('',*,*,#315,.F.);
#66=ORIENTED_EDGE('',*,*,#316,.F.);
#67=ORIENTED_EDGE('',*,*,#317,.F.);
#68=ORIENTED_EDGE('',*,*,#318,.F.);
#69=ORIENTED_EDGE('',*,*,#319,.F.);
#70=ORIENTED_EDGE('',*,*,#320,.F.);
#71=ORIENTED_EDGE('',*,*,#321,.F.);
#72=ORIENTED_EDGE('',*,*,#322,.F.);
#73=ORIENTED_EDGE('',*,*,#323,.F.);
#74=ORIENTED_EDGE('',*,*,#324,.F.);
#75=ORIENTED_EDGE('',*,*,#325,.F.);
#76=ORIENTED_EDGE('',*,*,#326,.F.);
#77=ORIENTED_EDGE('',*,*,#327,.F.);
#78=ORIENTED_EDGE('',*,*,#328,.F.);
#79=ORIENTED_EDGE('',*,*,#329,.F.);
#80=ORIENTED_EDGE('',*,*,#330,.F.);
#81=ORIENTED_EDGE('',*,*,#331,.F.);
#82=ORIENTED_EDGE('',*,*,#332,.F.);
#83=ORIENTED_EDGE('',*,*,#333,.F.);
#84=ORIENTED_EDGE('',*,*,#334,.F.);
#85=ORIENTED_EDGE('',*,*,#335,.F.);
#86=ORIENTED_EDGE('',*,*,#336,.F.);
#87=ORIENTED_EDGE('',*,*,#337,.F.);
#88=ORIENTED_EDGE('',*,*,#338,.F.);
#89=ORIENTED_EDGE('',*,*,#339,.F.);
#90=ORIENTED_EDGE('',*,*,#340,.F.);
#91=ORIENTED_EDGE('',*,*,#341,.F.);
#92=ORIENTED_EDGE('',*,*,#342,.F.);
#93=ORIENTED_EDGE('',*,*,#343,.F.);
#94=ORIENTED_EDGE('',*,*,#344,.F.);
#95=ORIENTED_EDGE('',*,*,#345,.F.);
#96=ORIENTED_EDGE('',*,*,#346,.F.);
#97=ORIENTED_EDGE('',*,*,#347,.F.);
#98=ORIENTED_EDGE('',*,*,#348,.F.);
#99=ORIENTED_EDGE('',*,*,#349,.F.);
#100=ORIENTED_EDGE('',*,*,#350,.F.);
#101=ORIENTED_EDGE('',*,*,#351,.F.);
#102=ORIENTED_EDGE('',*,*,#352,.F.);
#103=ORIENTED_EDGE('',*,*,#353,.T.);
#104=ORIENTED_EDGE('',*,*,#354,.T.);
#105=ORIENTED_EDGE('',*,*,#355,.F.);
#106=ORIENTED_EDGE('',*,*,#292,.T.);
#107=ORIENTED_EDGE('',*,*,#356,.T.);
#108=ORIENTED_EDGE('',*,*,#290,.T.);
#109=ORIENTED_EDGE('',*,*,#357,.T.);
#110=ORIENTED_EDGE('',*,*,#288,.T.);
#111=ORIENTED_EDGE('',*,*,#358,.T.);
#112=ORIENTED_EDGE('',*,*,#286,.T.);
#113=ORIENTED_EDGE('',*,*,#359,.T.);
#114=ORIENTED_EDGE('',*,*,#284,.T.);
#115=ORIENTED_EDGE('',*,*,#360,.T.);
#116=ORIENTED_EDGE('',*,*,#282,.T.);
#117=ORIENTED_EDGE('',*,*,#361,.T.);
#118=ORIENTED_EDGE('',*,*,#280,.T.);
#119=ORIENTED_EDGE('',*,*,#362,.T.);
#120=ORIENTED_EDGE('',*,*,#278,.T.);
#121=ORIENTED_EDGE('',*,*,#363,.T.);
#122=ORIENTED_EDGE('',*,*,#276,.T.);
#123=ORIENTED_EDGE('',*,*,#364,.T.);
#124=ORIENTED_EDGE('',*,*,#274,.T.);
#125=ORIENTED_EDGE('',*,*,#365,.T.);
#126=ORIENTED_EDGE('',*,*,#366,.T.);
#127=ORIENTED_EDGE('',*,*,#367,.T.);
#128=ORIENTED_EDGE('',*,*,#350,.T.);
#129=ORIENTED_EDGE('',*,*,#368,.T.);
#130=ORIENTED_EDGE('',*,*,#348,.T.);
#131=ORIENTED_EDGE('',*,*,#369,.T.);
#132=ORIENTED_EDGE('',*,*,#346,.T.);
#133=ORIENTED_EDGE('',*,*,#370,.T.);
#134=ORIENTED_EDGE('',*,*,#344,.T.);
#135=ORIENTED_EDGE('',*,*,#371,.T.);
#136=ORIENTED_EDGE('',*,*,#342,.T.);
#137=ORIENTED_EDGE('',*,*,#372,.T.);
#138=ORIENTED_EDGE('',*,*,#340,.T.);
#139=ORIENTED_EDGE('',*,*,#373,.T.);
#140=ORIENTED_EDGE('',*,*,#338,.T.);
#141=ORIENTED_EDGE('',*,*,#374,.T.);
#142=ORIENTED_EDGE('',*,*,#336,.T.);
#143=ORIENTED_EDGE('',*,*,#375,.T.);
#144=ORIENTED_EDGE('',*,*,#334,.T.);
#145=ORIENTED_EDGE('',*,*,#376,.T.);
#146=ORIENTED_EDGE('',*,*,#332,.T.);
#147=ORIENTED_EDGE('',*,*,#377,.T.);
#148=ORIENTED_EDGE('',*,*,#330,.T.);
#149=ORIENTED_EDGE('',*,*,#378,.T.);
#150=ORIENTED_EDGE('',*,*,#328,.T.);
#151=ORIENTED_EDGE('',*,*,#379,.T.);
#152=ORIENTED_EDGE('',*,*,#326,.T.);
#153=ORIENTED_EDGE('',*,*,#380,.T.);
#154=ORIENTED_EDGE('',*,*,#324,.T.);
#155=ORIENTED_EDGE('',*,*,#381,.T.);
#156=ORIENTED_EDGE('',*,*,#322,.T.);
#157=ORIENTED_EDGE('',*,*,#382,.T.);
#158=ORIENTED_EDGE('',*,*,#320,.T.);
#159=ORIENTED_EDGE('',*,*,#383,.T.);
#160=ORIENTED_EDGE('',*,*,#318,.T.);
#161=ORIENTED_EDGE('',*,*,#384,.T.);
#162=ORIENTED_EDGE('',*,*,#316,.T.);
#163=ORIENTED_EDGE('',*,*,#385,.T.);
#164=ORIENTED_EDGE('',*,*,#314,.T.);
#165=ORIENTED_EDGE('',*,*,#386,.T.);
#166=ORIENTED_EDGE('',*,*,#312,.T.);
#167=ORIENTED_EDGE('',*,*,#387,.T.);
#168=ORIENTED_EDGE('',*,*,#310,.T.);
#169=ORIENTED_EDGE('',*,*,#388,.T.);
#170=ORIENTED_EDGE('',*,*,#308,.T.);
#171=ORIENTED_EDGE('',*,*,#389,.T.);
#172=ORIENTED_EDGE('',*,*,#306,.T.);
#173=ORIENTED_EDGE('',*,*,#390,.T.);
#174=ORIENTED_EDGE('',*,*,#304,.T.);
#175=ORIENTED_EDGE('',*,*,#391,.T.);
#176=ORIENTED_EDGE('',*,*,#302,.T.);
#177=ORIENTED_EDGE('',*,*,#392,.T.);
#178=ORIENTED_EDGE('',*,*,#300,.T.);
#179=ORIENTED_EDGE('',*,*,#393,.T.);
#180=ORIENTED_EDGE('',*,*,#298,.T.);
#181=ORIENTED_EDGE('',*,*,#394,.T.);
#182=ORIENTED_EDGE('',*,*,#296,.T.);
#183=ORIENTED_EDGE('',*,*,#395,.T.);
#184=ORIENTED_EDGE('',*,*,#294,.T.);
#185=ORIENTED_EDGE('',*,*,#396,.T.);
#186=ORIENTED_EDGE('',*,*,#354,.F.);
#187=ORIENTED_EDGE('',*,*,#275,.T.);
#188=ORIENTED_EDGE('',*,*,#277,.T.);
#189=ORIENTED_EDGE('',*,*,#279,.T.);
#190=ORIENTED_EDGE('',*,*,#281,.T.);
#191=ORIENTED_EDGE('',*,*,#283,.T.);
#192=ORIENTED_EDGE('',*,*,#285,.T.);
#193=ORIENTED_EDGE('',*,*,#287,.T.);
#194=ORIENTED_EDGE('',*,*,#289,.T.);
#195=ORIENTED_EDGE('',*,*,#291,.T.);
#196=ORIENTED_EDGE('',*,*,#293,.T.);
#197=ORIENTED_EDGE('',*,*,#295,.T.);
#198=ORIENTED_EDGE('',*,*,#297,.T.);
#199=ORIENTED_EDGE('',*,*,#299,.T.);
#200=ORIENTED_EDGE('',*,*,#301,.T.);
#201=ORIENTED_EDGE('',*,*,#303,.T.);
#202=ORIENTED_EDGE('',*,*,#305,.T.);
#203=ORIENTED_EDGE('',*,*,#307,.T.);
#204=ORIENTED_EDGE('',*,*,#309,.T.);
#205=ORIENTED_EDGE('',*,*,#311,.T.);
#206=ORIENTED_EDGE('',*,*,#313,.T.);
#207=ORIENTED_EDGE('',*,*,#315,.T.);
#208=ORIENTED_EDGE('',*,*,#317,.T.);
#209=ORIENTED_EDGE('',*,*,#319,.T.);
#210=ORIENTED_EDGE('',*,*,#321,.T.);
#211=ORIENTED_EDGE('',*,*,#323,.T.);
#212=ORIENTED_EDGE('',*,*,#325,.T.);
#213=ORIENTED_EDGE('',*,*,#327,.T.);
#214=ORIENTED_EDGE('',*,*,#329,.T.);
#215=ORIENTED_EDGE('',*,*,#331,.T.);
#216=ORIENTED_EDGE('',*,*,#333,.T.);
#217=ORIENTED_EDGE('',*,*,#335,.T.);
#218=ORIENTED_EDGE('',*,*,#337,.T.);
#219=ORIENTED_EDGE('',*,*,#339,.T.);
#220=ORIENTED_EDGE('',*,*,#341,.T.);
#221=ORIENTED_EDGE('',*,*,#343,.T.);
#222=ORIENTED_EDGE('',*,*,#345,.T.);
#223=ORIENTED_EDGE('',*,*,#347,.T.);
#224=ORIENTED_EDGE('',*,*,#349,.T.);
#225=ORIENTED_EDGE('',*,*,#351,.T.);
#226=ORIENTED_EDGE('',*,*,#397,.T.);
#227=ORIENTED_EDGE('',*,*,#353,.F.);
#228=ORIENTED_EDGE('',*,*,#355,.T.);
#229=ORIENTED_EDGE('',*,*,#366,.F.);
#230=ORIENTED_EDGE('',*,*,#397,.F.);
#231=ORIENTED_EDGE('',*,*,#398,.F.);
#232=ORIENTED_EDGE('',*,*,#352,.T.);
#233=ORIENTED_EDGE('',*,*,#356,.F.);
#234=ORIENTED_EDGE('',*,*,#396,.F.);
#235=ORIENTED_EDGE('',*,*,#395,.F.);
#236=ORIENTED_EDGE('',*,*,#394,.F.);
#237=ORIENTED_EDGE('',*,*,#393,.F.);
#238=ORIENTED_EDGE('',*,*,#392,.F.);
#239=ORIENTED_EDGE('',*,*,#391,.F.);
#240=ORIENTED_EDGE('',*,*,#390,.F.);
#241=ORIENTED_EDGE('',*,*,#389,.F.);
#242=ORIENTED_EDGE('',*,*,#388,.F.);
#243=ORIENTED_EDGE('',*,*,#387,.F.);
#244=ORIENTED_EDGE('',*,*,#386,.F.);
#245=ORIENTED_EDGE('',*,*,#385,.F.);
#246=ORIENTED_EDGE('',*,*,#384,.F.);
#247=ORIENTED_EDGE('',*,*,#383,.F.);
#248=ORIENTED_EDGE('',*,*,#382,.F.);
#249=ORIENTED_EDGE('',*,*,#381,.F.);
#250=ORIENTED_EDGE('',*,*,#380,.F.);
#251=ORIENTED_EDGE('',*,*,#379,.F.);
#252=ORIENTED_EDGE('',*,*,#378,.F.);
#253=ORIENTED_EDGE('',*,*,#377,.F.);
#254=ORIENTED_EDGE('',*,*,#376,.F.);
#255=ORIENTED_EDGE('',*,*,#375,.F.);
#256=ORIENTED_EDGE('',*,*,#374,.F.);
#257=ORIENTED_EDGE('',*,*,#373,.F.);
#258=ORIENTED_EDGE('',*,*,#372,.F.);
#259=ORIENTED_EDGE('',*,*,#371,.F.);
#260=ORIENTED_EDGE('',*,*,#370,.F.);
#261=ORIENTED_EDGE('',*,*,#369,.F.);
#262=ORIENTED_EDGE('',*,*,#368,.F.);
#263=ORIENTED_EDGE('',*,*,#367,.F.);
#264=ORIENTED_EDGE('',*,*,#365,.F.);
#265=ORIENTED_EDGE('',*,*,#364,.F.);
#266=ORIENTED_EDGE('',*,*,#363,.F.);
#267=ORIENTED_EDGE('',*,*,#362,.F.);
#268=ORIENTED_EDGE('',*,*,#361,.F.);
#269=ORIENTED_EDGE('',*,*,#360,.F.);
#270=ORIENTED_EDGE('',*,*,#359,.F.);
#271=ORIENTED_EDGE('',*,*,#358,.F.);
#272=ORIENTED_EDGE('',*,*,#357,.F.);
#273=ORIENTED_EDGE('',*,*,#398,.T.);
#274=EDGE_CURVE('',#399,#399,#484,.T.);
#275=EDGE_CURVE('',#400,#400,#485,.F.);
#276=EDGE_CURVE('',#401,#401,#486,.T.);
#277=EDGE_CURVE('',#402,#402,#487,.F.);
#278=EDGE_CURVE('',#403,#403,#488,.T.);
#279=EDGE_CURVE('',#404,#404,#489,.F.);
#280=EDGE_CURVE('',#405,#405,#490,.T.);
#281=EDGE_CURVE('',#406,#406,#491,.F.);
#282=EDGE_CURVE('',#407,#407,#492,.T.);
#283=EDGE_CURVE('',#408,#408,#493,.F.);
#284=EDGE_CURVE('',#409,#409,#494,.T.);
#285=EDGE_CURVE('',#410,#410,#495,.F.);
#286=EDGE_CURVE('',#411,#411,#496,.T.);
#287=EDGE_CURVE('',#412,#412,#497,.F.);
#288=EDGE_CURVE('',#413,#413,#498,.T.);
#289=EDGE_CURVE('',#414,#414,#499,.F.);
#290=EDGE_CURVE('',#415,#415,#500,.T.);
#291=EDGE_CURVE('',#416,#416,#501,.F.);
#292=EDGE_CURVE('',#417,#417,#502,.T.);
#293=EDGE_CURVE('',#418,#418,#503,.F.);
#294=EDGE_CURVE('',#419,#419,#504,.T.);
#295=EDGE_CURVE('',#420,#420,#505,.F.);
#296=EDGE_CURVE('',#421,#421,#506,.T.);
#297=EDGE_CURVE('',#422,#422,#507,.F.);
#298=EDGE_CURVE('',#423,#423,#508,.T.);
#299=EDGE_CURVE('',#424,#424,#509,.F.);
#300=EDGE_CURVE('',#425,#425,#510,.T.);
#301=EDGE_CURVE('',#426,#426,#511,.F.);
#302=EDGE_CURVE('',#427,#427,#512,.T.);
#303=EDGE_CURVE('',#428,#428,#513,.F.);
#304=EDGE_CURVE('',#429,#429,#514,.T.);
#305=EDGE_CURVE('',#430,#430,#515,.F.);
#306=EDGE_CURVE('',#431,#431,#516,.T.);
#307=EDGE_CURVE('',#432,#432,#517,.F.);
#308=EDGE_CURVE('',#433,#433,#518,.T.);
#309=EDGE_CURVE('',#434,#434,#519,.F.);
#310=EDGE_CURVE('',#435,#435,#520,.T.);
#311=EDGE_CURVE('',#436,#436,#521,.F.);
#312=EDGE_CURVE('',#437,#437,#522,.T.);
#313=EDGE_CURVE('',#438,#438,#523,.F.);
#314=EDGE_CURVE('',#439,#439,#524,.T.);
#315=EDGE_CURVE('',#440,#440,#525,.F.);
#316=EDGE_CURVE('',#441,#441,#526,.T.);
#317=EDGE_CURVE('',#442,#442,#527,.F.);
#318=EDGE_CURVE('',#443,#443,#528,.T.);
#319=EDGE_CURVE('',#444,#444,#529,.F.);
#320=EDGE_CURVE('',#445,#445,#530,.T.);
#321=EDGE_CURVE('',#446,#446,#531,.F.);
#322=EDGE_CURVE('',#447,#447,#532,.T.);
#323=EDGE_CURVE('',#448,#448,#533,.F.);
#324=EDGE_CURVE('',#449,#449,#534,.T.);
#325=EDGE_CURVE('',#450,#450,#535,.F.);
#326=EDGE_CURVE('',#451,#451,#536,.T.);
#327=EDGE_CURVE('',#452,#452,#537,.F.);
#328=EDGE_CURVE('',#453,#453,#538,.T.);
#329=EDGE_CURVE('',#454,#454,#539,.F.);
#330=EDGE_CURVE('',#455,#455,#540,.T.);
#331=EDGE_CURVE('',#456,#456,#541,.F.);
#332=EDGE_CURVE('',#457,#457,#542,.T.);
#333=EDGE_CURVE('',#458,#458,#543,.F.);
#334=EDGE_CURVE('',#459,#459,#544,.T.);
#335=EDGE_CURVE('',#460,#460,#545,.F.);
#336=EDGE_CURVE('',#461,#461,#546,.T.);
#337=EDGE_CURVE('',#462,#462,#547,.F.);
#338=EDGE_CURVE('',#463,#463,#548,.T.);
#339=EDGE_CURVE('',#464,#464,#549,.F.);
#340=EDGE_CURVE('',#465,#465,#550,.T.);
#341=EDGE_CURVE('',#466,#466,#551,.F.);
#342=EDGE_CURVE('',#467,#467,#552,.T.);
#343=EDGE_CURVE('',#468,#468,#553,.F.);
#344=EDGE_CURVE('',#469,#469,#554,.T.);
#345=EDGE_CURVE('',#470,#470,#555,.F.);
#346=EDGE_CURVE('',#471,#471,#556,.T.);
#347=EDGE_CURVE('',#472,#472,#557,.F.);
#348=EDGE_CURVE('',#473,#473,#558,.T.);
#349=EDGE_CURVE('',#474,#474,#559,.F.);
#350=EDGE_CURVE('',#475,#475,#560,.T.);
#351=EDGE_CURVE('',#476,#476,#561,.F.);
#352=EDGE_CURVE('',#477,#477,#562,.T.);
#353=EDGE_CURVE('',#478,#478,#563,.T.);
#354=EDGE_CURVE('',#479,#479,#564,.T.);
#355=EDGE_CURVE('',#480,#480,#565,.T.);
#356=EDGE_CURVE('',#417,#415,#566,.T.);
#357=EDGE_CURVE('',#415,#413,#567,.T.);
#358=EDGE_CURVE('',#413,#411,#568,.T.);
#359=EDGE_CURVE('',#411,#409,#569,.T.);
#360=EDGE_CURVE('',#409,#407,#570,.T.);
#361=EDGE_CURVE('',#407,#405,#571,.T.);
#362=EDGE_CURVE('',#405,#403,#572,.T.);
#363=EDGE_CURVE('',#403,#401,#573,.T.);
#364=EDGE_CURVE('',#401,#399,#574,.T.);
#365=EDGE_CURVE('',#399,#481,#575,.T.);
#366=EDGE_CURVE('',#481,#481,#576,.T.);
#367=EDGE_CURVE('',#481,#475,#577,.T.);
#368=EDGE_CURVE('',#475,#473,#578,.T.);
#369=EDGE_CURVE('',#473,#471,#579,.T.);
#370=EDGE_CURVE('',#471,#469,#580,.T.);
#371=EDGE_CURVE('',#469,#467,#581,.T.);
#372=EDGE_CURVE('',#467,#465,#582,.T.);
#373=EDGE_CURVE('',#465,#463,#583,.T.);
#374=EDGE_CURVE('',#463,#461,#584,.T.);
#375=EDGE_CURVE('',#461,#459,#585,.T.);
#376=EDGE_CURVE('',#459,#457,#586,.T.);
#377=EDGE_CURVE('',#457,#455,#587,.T.);
#378=EDGE_CURVE('',#455,#453,#588,.T.);
#379=EDGE_CURVE('',#453,#451,#589,.T.);
#380=EDGE_CURVE('',#451,#449,#590,.T.);
#381=EDGE_CURVE('',#449,#447,#591,.T.);
#382=EDGE_CURVE('',#447,#445,#592,.T.);
#383=EDGE_CURVE('',#445,#443,#593,.T.);
#384=EDGE_CURVE('',#443,#441,#594,.T.);
#385=EDGE_CURVE('',#441,#439,#595,.T.);
#386=EDGE_CURVE('',#439,#437,#596,.T.);
#387=EDGE_CURVE('',#437,#435,#597,.T.);
#388=EDGE_CURVE('',#435,#433,#598,.T.);
#389=EDGE_CURVE('',#433,#431,#599,.T.);
#390=EDGE_CURVE('',#431,#429,#600,.T.);
#391=EDGE_CURVE('',#429,#427,#601,.T.);
#392=EDGE_CURVE('',#427,#425,#602,.T.);
#393=EDGE_CURVE('',#425,#423,#603,.T.);
#394=EDGE_CURVE('',#423,#421,#604,.T.);
#395=EDGE_CURVE('',#421,#419,#605,.T.);
#396=EDGE_CURVE('',#419,#417,#606,.T.);
#397=EDGE_CURVE('',#482,#482,#607,.F.);
#398=EDGE_CURVE('',#483,#483,#608,.T.);
#399=VERTEX_POINT('',#1492);
#400=VERTEX_POINT('',#1494);
#401=VERTEX_POINT('',#1497);
#402=VERTEX_POINT('',#1499);
#403=VERTEX_POINT('',#1502);
#404=VERTEX_POINT('',#1504);
#405=VERTEX_POINT('',#1507);
#406=VERTEX_POINT('',#1509);
#407=VERTEX_POINT('',#1512);
#408=VERTEX_POINT('',#1514);
#409=VERTEX_POINT('',#1517);
#410=VERTEX_POINT('',#1519);
#411=VERTEX_POINT('',#1522);
#412=VERTEX_POINT('',#1524);
#413=VERTEX_POINT('',#1527);
#414=VERTEX_POINT('',#1529);
#415=VERTEX_POINT('',#1532);
#416=VERTEX_POINT('',#1534);
#417=VERTEX_POINT('',#1537);
#418=VERTEX_POINT('',#1539);
#419=VERTEX_POINT('',#1542);
#420=VERTEX_POINT('',#1544);
#421=VERTEX_POINT('',#1547);
#422=VERTEX_POINT('',#1549);
#423=VERTEX_POINT('',#1552);
#424=VERTEX_POINT('',#1554);
#425=VERTEX_POINT('',#1557);
#426=VERTEX_POINT('',#1559);
#427=VERTEX_POINT('',#1562);
#428=VERTEX_POINT('',#1564);
#429=VERTEX_POINT('',#1567);
#430=VERTEX_POINT('',#1569);
#431=VERTEX_POINT('',#1572);
#432=VERTEX_POINT('',#1574);
#433=VERTEX_POINT('',#1577);
#434=VERTEX_POINT('',#1579);
#435=VERTEX_POINT('',#1582);
#436=VERTEX_POINT('',#1584);
#437=VERTEX_POINT('',#1587);
#438=VERTEX_POINT('',#1589);
#439=VERTEX_POINT('',#1592);
#440=VERTEX_POINT('',#1594);
#441=VERTEX_POINT('',#1597);
#442=VERTEX_POINT('',#1599);
#443=VERTEX_POINT('',#1602);
#444=VERTEX_POINT('',#1604);
#445=VERTEX_POINT('',#1607);
#446=VERTEX_POINT('',#1609);
#447=VERTEX_POINT('',#1612);
#448=VERTEX_POINT('',#1614);
#449=VERTEX_POINT('',#1617);
#450=VERTEX_POINT('',#1619);
#451=VERTEX_POINT('',#1622);
#452=VERTEX_POINT('',#1624);
#453=VERTEX_POINT('',#1627);
#454=VERTEX_POINT('',#1629);
#455=VERTEX_POINT('',#1632);
#456=VERTEX_POINT('',#1634);
#457=VERTEX_POINT('',#1637);
#458=VERTEX_POINT('',#1639);
#459=VERTEX_POINT('',#1642);
#460=VERTEX_POINT('',#1644);
#461=VERTEX_POINT('',#1647);
#462=VERTEX_POINT('',#1649);
#463=VERTEX_POINT('',#1652);
#464=VERTEX_POINT('',#1654);
#465=VERTEX_POINT('',#1657);
#466=VERTEX_POINT('',#1659);
#467=VERTEX_POINT('',#1662);
#468=VERTEX_POINT('',#1664);
#469=VERTEX_POINT('',#1667);
#470=VERTEX_POINT('',#1669);
#471=VERTEX_POINT('',#1672);
#472=VERTEX_POINT('',#1674);
#473=VERTEX_POINT('',#1677);
#474=VERTEX_POINT('',#1679);
#475=VERTEX_POINT('',#1682);
#476=VERTEX_POINT('',#1684);
#477=VERTEX_POINT('',#1687);
#478=VERTEX_POINT('',#1689);
#479=VERTEX_POINT('',#1692);
#480=VERTEX_POINT('',#1694);
#481=VERTEX_POINT('',#1706);
#482=VERTEX_POINT('',#1740);
#483=VERTEX_POINT('',#1744);
#484=CIRCLE('',#975,18.);
#485=CIRCLE('',#976,18.);
#486=CIRCLE('',#978,18.);
#487=CIRCLE('',#979,18.);
#488=CIRCLE('',#981,18.);
#489=CIRCLE('',#982,18.);
#490=CIRCLE('',#984,18.);
#491=CIRCLE('',#985,18.);
#492=CIRCLE('',#987,18.);
#493=CIRCLE('',#988,18.);
#494=CIRCLE('',#990,18.);
#495=CIRCLE('',#991,18.);
#496=CIRCLE('',#993,18.);
#497=CIRCLE('',#994,18.);
#498=CIRCLE('',#996,18.);
#499=CIRCLE('',#997,18.);
#500=CIRCLE('',#999,18.);
#501=CIRCLE('',#1000,18.);
#502=CIRCLE('',#1002,18.);
#503=CIRCLE('',#1003,18.);
#504=CIRCLE('',#1005,18.);
#505=CIRCLE('',#1006,18.);
#506=CIRCLE('',#1008,18.);
#507=CIRCLE('',#1009,18.);
#508=CIRCLE('',#1011,18.);
#509=CIRCLE('',#1012,18.);
#510=CIRCLE('',#1014,18.);
#511=CIRCLE('',#1015,18.);
#512=CIRCLE('',#1017,18.);
#513=CIRCLE('',#1018,18.);
#514=CIRCLE('',#1020,18.);
#515=CIRCLE('',#1021,18.);
#516=CIRCLE('',#1023,18.);
#517=CIRCLE('',#1024,18.);
#518=CIRCLE('',#1026,18.);
#519=CIRCLE('',#1027,18.);
#520=CIRCLE('',#1029,18.);
#521=CIRCLE('',#1030,18.);
#522=CIRCLE('',#1032,18.);
#523=CIRCLE('',#1033,18.);
#524=CIRCLE('',#1035,18.);
#525=CIRCLE('',#1036,18.);
#526=CIRCLE('',#1038,18.);
#527=CIRCLE('',#1039,18.);
#528=CIRCLE('',#1041,18.);
#529=CIRCLE('',#1042,18.);
#530=CIRCLE('',#1044,18.);
#531=CIRCLE('',#1045,18.);
#532=CIRCLE('',#1047,18.);
#533=CIRCLE('',#1048,18.);
#534=CIRCLE('',#1050,18.);
#535=CIRCLE('',#1051,18.);
#536=CIRCLE('',#1053,18.);
#537=CIRCLE('',#1054,18.);
#538=CIRCLE('',#1056,18.);
#539=CIRCLE('',#1057,18.);
#540=CIRCLE('',#1059,18.);
#541=CIRCLE('',#1060,18.);
#542=CIRCLE('',#1062,18.);
#543=CIRCLE('',#1063,18.);
#544=CIRCLE('',#1065,18.);
#545=CIRCLE('',#1066,18.);
#546=CIRCLE('',#1068,18.);
#547=CIRCLE('',#1069,18.);
#548=CIRCLE('',#1071,18.);
#549=CIRCLE('',#1072,18.);
#550=CIRCLE('',#1074,18.);
#551=CIRCLE('',#1075,18.);
#552=CIRCLE('',#1077,18.);
#553=CIRCLE('',#1078,18.);
#554=CIRCLE('',#1080,18.);
#555=CIRCLE('',#1081,18.);
#556=CIRCLE('',#1083,18.);
#557=CIRCLE('',#1084,18.);
#558=CIRCLE('',#1086,18.);
#559=CIRCLE('',#1087,18.);
#560=CIRCLE('',#1089,18.);
#561=CIRCLE('',#1090,18.);
#562=CIRCLE('',#1092,815.);
#563=CIRCLE('',#1093,815.);
#564=CIRCLE('',#1095,915.);
#565=CIRCLE('',#1096,915.);
#566=CIRCLE('',#1098,862.);
#567=CIRCLE('',#1099,862.);
#568=CIRCLE('',#1100,862.);
#569=CIRCLE('',#1101,862.);
#570=CIRCLE('',#1102,862.);
#571=CIRCLE('',#1103,862.);
#572=CIRCLE('',#1104,862.);
#573=CIRCLE('',#1105,862.);
#574=CIRCLE('',#1106,862.);
#575=CIRCLE('',#1107,862.);
#576=CIRCLE('',#1108,18.);
#577=CIRCLE('',#1109,862.);
#578=CIRCLE('',#1110,862.);
#579=CIRCLE('',#1111,862.);
#580=CIRCLE('',#1112,862.);
#581=CIRCLE('',#1113,862.);
#582=CIRCLE('',#1114,862.);
#583=CIRCLE('',#1115,862.);
#584=CIRCLE('',#1116,862.);
#585=CIRCLE('',#1117,862.);
#586=CIRCLE('',#1118,862.);
#587=CIRCLE('',#1119,862.);
#588=CIRCLE('',#1120,862.);
#589=CIRCLE('',#1121,862.);
#590=CIRCLE('',#1122,862.);
#591=CIRCLE('',#1123,862.);
#592=CIRCLE('',#1124,862.);
#593=CIRCLE('',#1125,862.);
#594=CIRCLE('',#1126,862.);
#595=CIRCLE('',#1127,862.);
#596=CIRCLE('',#1128,862.);
#597=CIRCLE('',#1129,862.);
#598=CIRCLE('',#1130,862.);
#599=CIRCLE('',#1131,862.);
#600=CIRCLE('',#1132,862.);
#601=CIRCLE('',#1133,862.);
#602=CIRCLE('',#1134,862.);
#603=CIRCLE('',#1135,862.);
#604=CIRCLE('',#1136,862.);
#605=CIRCLE('',#1137,862.);
#606=CIRCLE('',#1138,862.);
#607=CIRCLE('',#1140,18.);
#608=CIRCLE('',#1143,855.);
#609=EDGE_LOOP('',(#24));
#610=EDGE_LOOP('',(#25));
#611=EDGE_LOOP('',(#26));
#612=EDGE_LOOP('',(#27));
#613=EDGE_LOOP('',(#28));
#614=EDGE_LOOP('',(#29));
#615=EDGE_LOOP('',(#30));
#616=EDGE_LOOP('',(#31));
#617=EDGE_LOOP('',(#32));
#618=EDGE_LOOP('',(#33));
#619=EDGE_LOOP('',(#34));
#620=EDGE_LOOP('',(#35));
#621=EDGE_LOOP('',(#36));
#622=EDGE_LOOP('',(#37));
#623=EDGE_LOOP('',(#38));
#624=EDGE_LOOP('',(#39));
#625=EDGE_LOOP('',(#40));
#626=EDGE_LOOP('',(#41));
#627=EDGE_LOOP('',(#42));
#628=EDGE_LOOP('',(#43));
#629=EDGE_LOOP('',(#44));
#630=EDGE_LOOP('',(#45));
#631=EDGE_LOOP('',(#46));
#632=EDGE_LOOP('',(#47));
#633=EDGE_LOOP('',(#48));
#634=EDGE_LOOP('',(#49));
#635=EDGE_LOOP('',(#50));
#636=EDGE_LOOP('',(#51));
#637=EDGE_LOOP('',(#52));
#638=EDGE_LOOP('',(#53));
#639=EDGE_LOOP('',(#54));
#640=EDGE_LOOP('',(#55));
#641=EDGE_LOOP('',(#56));
#642=EDGE_LOOP('',(#57));
#643=EDGE_LOOP('',(#58));
#644=EDGE_LOOP('',(#59));
#645=EDGE_LOOP('',(#60));
#646=EDGE_LOOP('',(#61));
#647=EDGE_LOOP('',(#62));
#648=EDGE_LOOP('',(#63));
#649=EDGE_LOOP('',(#64));
#650=EDGE_LOOP('',(#65));
#651=EDGE_LOOP('',(#66));
#652=EDGE_LOOP('',(#67));
#653=EDGE_LOOP('',(#68));
#654=EDGE_LOOP('',(#69));
#655=EDGE_LOOP('',(#70));
#656=EDGE_LOOP('',(#71));
#657=EDGE_LOOP('',(#72));
#658=EDGE_LOOP('',(#73));
#659=EDGE_LOOP('',(#74));
#660=EDGE_LOOP('',(#75));
#661=EDGE_LOOP('',(#76));
#662=EDGE_LOOP('',(#77));
#663=EDGE_LOOP('',(#78));
#664=EDGE_LOOP('',(#79));
#665=EDGE_LOOP('',(#80));
#666=EDGE_LOOP('',(#81));
#667=EDGE_LOOP('',(#82));
#668=EDGE_LOOP('',(#83));
#669=EDGE_LOOP('',(#84));
#670=EDGE_LOOP('',(#85));
#671=EDGE_LOOP('',(#86));
#672=EDGE_LOOP('',(#87));
#673=EDGE_LOOP('',(#88));
#674=EDGE_LOOP('',(#89));
#675=EDGE_LOOP('',(#90));
#676=EDGE_LOOP('',(#91));
#677=EDGE_LOOP('',(#92));
#678=EDGE_LOOP('',(#93));
#679=EDGE_LOOP('',(#94));
#680=EDGE_LOOP('',(#95));
#681=EDGE_LOOP('',(#96));
#682=EDGE_LOOP('',(#97));
#683=EDGE_LOOP('',(#98));
#684=EDGE_LOOP('',(#99));
#685=EDGE_LOOP('',(#100));
#686=EDGE_LOOP('',(#101));
#687=EDGE_LOOP('',(#102));
#688=EDGE_LOOP('',(#103));
#689=EDGE_LOOP('',(#104));
#690=EDGE_LOOP('',(#105));
#691=EDGE_LOOP('',(#106,#107,#108,#109,#110,#111,#112,#113,#114,#115,#116,
#117,#118,#119,#120,#121,#122,#123,#124,#125,#126,#127,#128,#129,#130,#131,
#132,#133,#134,#135,#136,#137,#138,#139,#140,#141,#142,#143,#144,#145,#146,
#147,#148,#149,#150,#151,#152,#153,#154,#155,#156,#157,#158,#159,#160,#161,
#162,#163,#164,#165,#166,#167,#168,#169,#170,#171,#172,#173,#174,#175,#176,
#177,#178,#179,#180,#181,#182,#183,#184,#185));
#692=EDGE_LOOP('',(#186));
#693=EDGE_LOOP('',(#187));
#694=EDGE_LOOP('',(#188));
#695=EDGE_LOOP('',(#189));
#696=EDGE_LOOP('',(#190));
#697=EDGE_LOOP('',(#191));
#698=EDGE_LOOP('',(#192));
#699=EDGE_LOOP('',(#193));
#700=EDGE_LOOP('',(#194));
#701=EDGE_LOOP('',(#195));
#702=EDGE_LOOP('',(#196));
#703=EDGE_LOOP('',(#197));
#704=EDGE_LOOP('',(#198));
#705=EDGE_LOOP('',(#199));
#706=EDGE_LOOP('',(#200));
#707=EDGE_LOOP('',(#201));
#708=EDGE_LOOP('',(#202));
#709=EDGE_LOOP('',(#203));
#710=EDGE_LOOP('',(#204));
#711=EDGE_LOOP('',(#205));
#712=EDGE_LOOP('',(#206));
#713=EDGE_LOOP('',(#207));
#714=EDGE_LOOP('',(#208));
#715=EDGE_LOOP('',(#209));
#716=EDGE_LOOP('',(#210));
#717=EDGE_LOOP('',(#211));
#718=EDGE_LOOP('',(#212));
#719=EDGE_LOOP('',(#213));
#720=EDGE_LOOP('',(#214));
#721=EDGE_LOOP('',(#215));
#722=EDGE_LOOP('',(#216));
#723=EDGE_LOOP('',(#217));
#724=EDGE_LOOP('',(#218));
#725=EDGE_LOOP('',(#219));
#726=EDGE_LOOP('',(#220));
#727=EDGE_LOOP('',(#221));
#728=EDGE_LOOP('',(#222));
#729=EDGE_LOOP('',(#223));
#730=EDGE_LOOP('',(#224));
#731=EDGE_LOOP('',(#225));
#732=EDGE_LOOP('',(#226));
#733=EDGE_LOOP('',(#227));
#734=EDGE_LOOP('',(#228));
#735=EDGE_LOOP('',(#229));
#736=EDGE_LOOP('',(#230));
#737=EDGE_LOOP('',(#231));
#738=EDGE_LOOP('',(#232));
#739=EDGE_LOOP('',(#233,#234,#235,#236,#237,#238,#239,#240,#241,#242,#243,
#244,#245,#246,#247,#248,#249,#250,#251,#252,#253,#254,#255,#256,#257,#258,
#259,#260,#261,#262,#263,#264,#265,#266,#267,#268,#269,#270,#271,#272));
#740=EDGE_LOOP('',(#273));
#741=FACE_BOUND('',#609,.T.);
#742=FACE_BOUND('',#610,.T.);
#743=FACE_BOUND('',#611,.T.);
#744=FACE_BOUND('',#612,.T.);
#745=FACE_BOUND('',#613,.T.);
#746=FACE_BOUND('',#614,.T.);
#747=FACE_BOUND('',#615,.T.);
#748=FACE_BOUND('',#616,.T.);
#749=FACE_BOUND('',#617,.T.);
#750=FACE_BOUND('',#618,.T.);
#751=FACE_BOUND('',#619,.T.);
#752=FACE_BOUND('',#620,.T.);
#753=FACE_BOUND('',#621,.T.);
#754=FACE_BOUND('',#622,.T.);
#755=FACE_BOUND('',#623,.T.);
#756=FACE_BOUND('',#624,.T.);
#757=FACE_BOUND('',#625,.T.);
#758=FACE_BOUND('',#626,.T.);
#759=FACE_BOUND('',#627,.T.);
#760=FACE_BOUND('',#628,.T.);
#761=FACE_BOUND('',#629,.T.);
#762=FACE_BOUND('',#630,.T.);
#763=FACE_BOUND('',#631,.T.);
#764=FACE_BOUND('',#632,.T.);
#765=FACE_BOUND('',#633,.T.);
#766=FACE_BOUND('',#634,.T.);
#767=FACE_BOUND('',#635,.T.);
#768=FACE_BOUND('',#636,.T.);
#769=FACE_BOUND('',#637,.T.);
#770=FACE_BOUND('',#638,.T.);
#771=FACE_BOUND('',#639,.T.);
#772=FACE_BOUND('',#640,.T.);
#773=FACE_BOUND('',#641,.T.);
#774=FACE_BOUND('',#642,.T.);
#775=FACE_BOUND('',#643,.T.);
#776=FACE_BOUND('',#644,.T.);
#777=FACE_BOUND('',#645,.T.);
#778=FACE_BOUND('',#646,.T.);
#779=FACE_BOUND('',#647,.T.);
#780=FACE_BOUND('',#648,.T.);
#781=FACE_BOUND('',#649,.T.);
#782=FACE_BOUND('',#650,.T.);
#783=FACE_BOUND('',#651,.T.);
#784=FACE_BOUND('',#652,.T.);
#785=FACE_BOUND('',#653,.T.);
#786=FACE_BOUND('',#654,.T.);
#787=FACE_BOUND('',#655,.T.);
#788=FACE_BOUND('',#656,.T.);
#789=FACE_BOUND('',#657,.T.);
#790=FACE_BOUND('',#658,.T.);
#791=FACE_BOUND('',#659,.T.);
#792=FACE_BOUND('',#660,.T.);
#793=FACE_BOUND('',#661,.T.);
#794=FACE_BOUND('',#662,.T.);
#795=FACE_BOUND('',#663,.T.);
#796=FACE_BOUND('',#664,.T.);
#797=FACE_BOUND('',#665,.T.);
#798=FACE_BOUND('',#666,.T.);
#799=FACE_BOUND('',#667,.T.);
#800=FACE_BOUND('',#668,.T.);
#801=FACE_BOUND('',#669,.T.);
#802=FACE_BOUND('',#670,.T.);
#803=FACE_BOUND('',#671,.T.);
#804=FACE_BOUND('',#672,.T.);
#805=FACE_BOUND('',#673,.T.);
#806=FACE_BOUND('',#674,.T.);
#807=FACE_BOUND('',#675,.T.);
#808=FACE_BOUND('',#676,.T.);
#809=FACE_BOUND('',#677,.T.);
#810=FACE_BOUND('',#678,.T.);
#811=FACE_BOUND('',#679,.T.);
#812=FACE_BOUND('',#680,.T.);
#813=FACE_BOUND('',#681,.T.);
#814=FACE_BOUND('',#682,.T.);
#815=FACE_BOUND('',#683,.T.);
#816=FACE_BOUND('',#684,.T.);
#817=FACE_BOUND('',#685,.T.);
#818=FACE_BOUND('',#686,.T.);
#819=FACE_BOUND('',#687,.T.);
#820=FACE_BOUND('',#688,.T.);
#821=FACE_BOUND('',#689,.T.);
#822=FACE_BOUND('',#690,.T.);
#823=FACE_BOUND('',#691,.T.);
#824=FACE_BOUND('',#692,.T.);
#825=FACE_BOUND('',#693,.T.);
#826=FACE_BOUND('',#694,.T.);
#827=FACE_BOUND('',#695,.T.);
#828=FACE_BOUND('',#696,.T.);
#829=FACE_BOUND('',#697,.T.);
#830=FACE_BOUND('',#698,.T.);
#831=FACE_BOUND('',#699,.T.);
#832=FACE_BOUND('',#700,.T.);
#833=FACE_BOUND('',#701,.T.);
#834=FACE_BOUND('',#702,.T.);
#835=FACE_BOUND('',#703,.T.);
#836=FACE_BOUND('',#704,.T.);
#837=FACE_BOUND('',#705,.T.);
#838=FACE_BOUND('',#706,.T.);
#839=FACE_BOUND('',#707,.T.);
#840=FACE_BOUND('',#708,.T.);
#841=FACE_BOUND('',#709,.T.);
#842=FACE_BOUND('',#710,.T.);
#843=FACE_BOUND('',#711,.T.);
#844=FACE_BOUND('',#712,.T.);
#845=FACE_BOUND('',#713,.T.);
#846=FACE_BOUND('',#714,.T.);
#847=FACE_BOUND('',#715,.T.);
#848=FACE_BOUND('',#716,.T.);
#849=FACE_BOUND('',#717,.T.);
#850=FACE_BOUND('',#718,.T.);
#851=FACE_BOUND('',#719,.T.);
#852=FACE_BOUND('',#720,.T.);
#853=FACE_BOUND('',#721,.T.);
#854=FACE_BOUND('',#722,.T.);
#855=FACE_BOUND('',#723,.T.);
#856=FACE_BOUND('',#724,.T.);
#857=FACE_BOUND('',#725,.T.);
#858=FACE_BOUND('',#726,.T.);
#859=FACE_BOUND('',#727,.T.);
#860=FACE_BOUND('',#728,.T.);
#861=FACE_BOUND('',#729,.T.);
#862=FACE_BOUND('',#730,.T.);
#863=FACE_BOUND('',#731,.T.);
#864=FACE_BOUND('',#732,.T.);
#865=FACE_BOUND('',#733,.T.);
#866=FACE_BOUND('',#734,.T.);
#867=FACE_BOUND('',#735,.T.);
#868=FACE_BOUND('',#736,.T.);
#869=FACE_BOUND('',#737,.T.);
#870=FACE_BOUND('',#738,.T.);
#871=FACE_BOUND('',#739,.T.);
#872=FACE_BOUND('',#740,.T.);
#873=CYLINDRICAL_SURFACE('',#974,18.);
#874=CYLINDRICAL_SURFACE('',#977,18.);
#875=CYLINDRICAL_SURFACE('',#980,18.);
#876=CYLINDRICAL_SURFACE('',#983,18.);
#877=CYLINDRICAL_SURFACE('',#986,18.);
#878=CYLINDRICAL_SURFACE('',#989,18.);
#879=CYLINDRICAL_SURFACE('',#992,18.);
#880=CYLINDRICAL_SURFACE('',#995,18.);
#881=CYLINDRICAL_SURFACE('',#998,18.);
#882=CYLINDRICAL_SURFACE('',#1001,18.);
#883=CYLINDRICAL_SURFACE('',#1004,18.);
#884=CYLINDRICAL_SURFACE('',#1007,18.);
#885=CYLINDRICAL_SURFACE('',#1010,18.);
#886=CYLINDRICAL_SURFACE('',#1013,18.);
#887=CYLINDRICAL_SURFACE('',#1016,18.);
#888=CYLINDRICAL_SURFACE('',#1019,18.);
#889=CYLINDRICAL_SURFACE('',#1022,18.);
#890=CYLINDRICAL_SURFACE('',#1025,18.);
#891=CYLINDRICAL_SURFACE('',#1028,18.);
#892=CYLINDRICAL_SURFACE('',#1031,18.);
#893=CYLINDRICAL_SURFACE('',#1034,18.);
#894=CYLINDRICAL_SURFACE('',#1037,18.);
#895=CYLINDRICAL_SURFACE('',#1040,18.);
#896=CYLINDRICAL_SURFACE('',#1043,18.);
#897=CYLINDRICAL_SURFACE('',#1046,18.);
#898=CYLINDRICAL_SURFACE('',#1049,18.);
#899=CYLINDRICAL_SURFACE('',#1052,18.);
#900=CYLINDRICAL_SURFACE('',#1055,18.);
#901=CYLINDRICAL_SURFACE('',#1058,18.);
#902=CYLINDRICAL_SURFACE('',#1061,18.);
#903=CYLINDRICAL_SURFACE('',#1064,18.);
#904=CYLINDRICAL_SURFACE('',#1067,18.);
#905=CYLINDRICAL_SURFACE('',#1070,18.);
#906=CYLINDRICAL_SURFACE('',#1073,18.);
#907=CYLINDRICAL_SURFACE('',#1076,18.);
#908=CYLINDRICAL_SURFACE('',#1079,18.);
#909=CYLINDRICAL_SURFACE('',#1082,18.);
#910=CYLINDRICAL_SURFACE('',#1085,18.);
#911=CYLINDRICAL_SURFACE('',#1088,18.);
#912=CYLINDRICAL_SURFACE('',#1091,815.);
#913=CYLINDRICAL_SURFACE('',#1094,915.);
#914=CYLINDRICAL_SURFACE('',#1141,18.);
#915=ADVANCED_FACE('',(#741,#742),#873,.F.);
#916=ADVANCED_FACE('',(#743,#744),#874,.F.);
#917=ADVANCED_FACE('',(#745,#746),#875,.F.);
#918=ADVANCED_FACE('',(#747,#748),#876,.F.);
#919=ADVANCED_FACE('',(#749,#750),#877,.F.);
#920=ADVANCED_FACE('',(#751,#752),#878,.F.);
#921=ADVANCED_FACE('',(#753,#754),#879,.F.);
#922=ADVANCED_FACE('',(#755,#756),#880,.F.);
#923=ADVANCED_FACE('',(#757,#758),#881,.F.);
#924=ADVANCED_FACE('',(#759,#760),#882,.F.);
#925=ADVANCED_FACE('',(#761,#762),#883,.F.);
#926=ADVANCED_FACE('',(#763,#764),#884,.F.);
#927=ADVANCED_FACE('',(#765,#766),#885,.F.);
#928=ADVANCED_FACE('',(#767,#768),#886,.F.);
#929=ADVANCED_FACE('',(#769,#770),#887,.F.);
#930=ADVANCED_FACE('',(#771,#772),#888,.F.);
#931=ADVANCED_FACE('',(#773,#774),#889,.F.);
#932=ADVANCED_FACE('',(#775,#776),#890,.F.);
#933=ADVANCED_FACE('',(#777,#778),#891,.F.);
#934=ADVANCED_FACE('',(#779,#780),#892,.F.);
#935=ADVANCED_FACE('',(#781,#782),#893,.F.);
#936=ADVANCED_FACE('',(#783,#784),#894,.F.);
#937=ADVANCED_FACE('',(#785,#786),#895,.F.);
#938=ADVANCED_FACE('',(#787,#788),#896,.F.);
#939=ADVANCED_FACE('',(#789,#790),#897,.F.);
#940=ADVANCED_FACE('',(#791,#792),#898,.F.);
#941=ADVANCED_FACE('',(#793,#794),#899,.F.);
#942=ADVANCED_FACE('',(#795,#796),#900,.F.);
#943=ADVANCED_FACE('',(#797,#798),#901,.F.);
#944=ADVANCED_FACE('',(#799,#800),#902,.F.);
#945=ADVANCED_FACE('',(#801,#802),#903,.F.);
#946=ADVANCED_FACE('',(#803,#804),#904,.F.);
#947=ADVANCED_FACE('',(#805,#806),#905,.F.);
#948=ADVANCED_FACE('',(#807,#808),#906,.F.);
#949=ADVANCED_FACE('',(#809,#810),#907,.F.);
#950=ADVANCED_FACE('',(#811,#812),#908,.F.);
#951=ADVANCED_FACE('',(#813,#814),#909,.F.);
#952=ADVANCED_FACE('',(#815,#816),#910,.F.);
#953=ADVANCED_FACE('',(#817,#818),#911,.F.);
#954=ADVANCED_FACE('',(#819,#820),#912,.F.);
#955=ADVANCED_FACE('',(#821,#822),#913,.T.);
#956=ADVANCED_FACE('',(#823,#824),#21,.F.);
#957=ADVANCED_FACE('',(#825,#826,#827,#828,#829,#830,#831,#832,#833,#834,
#835,#836,#837,#838,#839,#840,#841,#842,#843,#844,#845,#846,#847,#848,#849,
#850,#851,#852,#853,#854,#855,#856,#857,#858,#859,#860,#861,#862,#863,#864,
#865,#866),#22,.T.);
#958=ADVANCED_FACE('',(#867,#868),#914,.F.);
#959=ADVANCED_FACE('',(#869,#870),#23,.F.);
#960=ADVANCED_FACE('',(#871,#872),#20,.T.);
#961=CLOSED_SHELL('',(#915,#916,#917,#918,#919,#920,#921,#922,#923,#924,
#925,#926,#927,#928,#929,#930,#931,#932,#933,#934,#935,#936,#937,#938,#939,
#940,#941,#942,#943,#944,#945,#946,#947,#948,#949,#950,#951,#952,#953,#954,
#955,#956,#957,#958,#959,#960));
#962=STYLED_ITEM('',(#963),#970);
#963=PRESENTATION_STYLE_ASSIGNMENT((#964));
#964=SURFACE_STYLE_USAGE(.BOTH.,#965);
#965=SURFACE_SIDE_STYLE('',(#966));
#966=SURFACE_STYLE_FILL_AREA(#967);
#967=FILL_AREA_STYLE('',(#968));
#968=FILL_AREA_STYLE_COLOUR('',#969);
#969=COLOUR_RGB('',0.506983280181885,0.531564235687256,0.550000011920929);
#970=MANIFOLD_SOLID_BREP('',#961);
#971=SHAPE_DEFINITION_REPRESENTATION(#1752,#972);
#972=SHAPE_REPRESENTATION('\X2\7A819762FF08\X0\RF\X2\FF09677F5F0F5E73710A94A252367BA16CD55170\X0\',
(#973),#1747);
#973=AXIS2_PLACEMENT_3D('',#1489,#1145,#1146);
#974=AXIS2_PLACEMENT_3D('',#1490,#1147,#1148);
#975=AXIS2_PLACEMENT_3D('',#1491,#1149,#1150);
#976=AXIS2_PLACEMENT_3D('',#1493,#1151,#1152);
#977=AXIS2_PLACEMENT_3D('',#1495,#1153,#1154);
#978=AXIS2_PLACEMENT_3D('',#1496,#1155,#1156);
#979=AXIS2_PLACEMENT_3D('',#1498,#1157,#1158);
#980=AXIS2_PLACEMENT_3D('',#1500,#1159,#1160);
#981=AXIS2_PLACEMENT_3D('',#1501,#1161,#1162);
#982=AXIS2_PLACEMENT_3D('',#1503,#1163,#1164);
#983=AXIS2_PLACEMENT_3D('',#1505,#1165,#1166);
#984=AXIS2_PLACEMENT_3D('',#1506,#1167,#1168);
#985=AXIS2_PLACEMENT_3D('',#1508,#1169,#1170);
#986=AXIS2_PLACEMENT_3D('',#1510,#1171,#1172);
#987=AXIS2_PLACEMENT_3D('',#1511,#1173,#1174);
#988=AXIS2_PLACEMENT_3D('',#1513,#1175,#1176);
#989=AXIS2_PLACEMENT_3D('',#1515,#1177,#1178);
#990=AXIS2_PLACEMENT_3D('',#1516,#1179,#1180);
#991=AXIS2_PLACEMENT_3D('',#1518,#1181,#1182);
#992=AXIS2_PLACEMENT_3D('',#1520,#1183,#1184);
#993=AXIS2_PLACEMENT_3D('',#1521,#1185,#1186);
#994=AXIS2_PLACEMENT_3D('',#1523,#1187,#1188);
#995=AXIS2_PLACEMENT_3D('',#1525,#1189,#1190);
#996=AXIS2_PLACEMENT_3D('',#1526,#1191,#1192);
#997=AXIS2_PLACEMENT_3D('',#1528,#1193,#1194);
#998=AXIS2_PLACEMENT_3D('',#1530,#1195,#1196);
#999=AXIS2_PLACEMENT_3D('',#1531,#1197,#1198);
#1000=AXIS2_PLACEMENT_3D('',#1533,#1199,#1200);
#1001=AXIS2_PLACEMENT_3D('',#1535,#1201,#1202);
#1002=AXIS2_PLACEMENT_3D('',#1536,#1203,#1204);
#1003=AXIS2_PLACEMENT_3D('',#1538,#1205,#1206);
#1004=AXIS2_PLACEMENT_3D('',#1540,#1207,#1208);
#1005=AXIS2_PLACEMENT_3D('',#1541,#1209,#1210);
#1006=AXIS2_PLACEMENT_3D('',#1543,#1211,#1212);
#1007=AXIS2_PLACEMENT_3D('',#1545,#1213,#1214);
#1008=AXIS2_PLACEMENT_3D('',#1546,#1215,#1216);
#1009=AXIS2_PLACEMENT_3D('',#1548,#1217,#1218);
#1010=AXIS2_PLACEMENT_3D('',#1550,#1219,#1220);
#1011=AXIS2_PLACEMENT_3D('',#1551,#1221,#1222);
#1012=AXIS2_PLACEMENT_3D('',#1553,#1223,#1224);
#1013=AXIS2_PLACEMENT_3D('',#1555,#1225,#1226);
#1014=AXIS2_PLACEMENT_3D('',#1556,#1227,#1228);
#1015=AXIS2_PLACEMENT_3D('',#1558,#1229,#1230);
#1016=AXIS2_PLACEMENT_3D('',#1560,#1231,#1232);
#1017=AXIS2_PLACEMENT_3D('',#1561,#1233,#1234);
#1018=AXIS2_PLACEMENT_3D('',#1563,#1235,#1236);
#1019=AXIS2_PLACEMENT_3D('',#1565,#1237,#1238);
#1020=AXIS2_PLACEMENT_3D('',#1566,#1239,#1240);
#1021=AXIS2_PLACEMENT_3D('',#1568,#1241,#1242);
#1022=AXIS2_PLACEMENT_3D('',#1570,#1243,#1244);
#1023=AXIS2_PLACEMENT_3D('',#1571,#1245,#1246);
#1024=AXIS2_PLACEMENT_3D('',#1573,#1247,#1248);
#1025=AXIS2_PLACEMENT_3D('',#1575,#1249,#1250);
#1026=AXIS2_PLACEMENT_3D('',#1576,#1251,#1252);
#1027=AXIS2_PLACEMENT_3D('',#1578,#1253,#1254);
#1028=AXIS2_PLACEMENT_3D('',#1580,#1255,#1256);
#1029=AXIS2_PLACEMENT_3D('',#1581,#1257,#1258);
#1030=AXIS2_PLACEMENT_3D('',#1583,#1259,#1260);
#1031=AXIS2_PLACEMENT_3D('',#1585,#1261,#1262);
#1032=AXIS2_PLACEMENT_3D('',#1586,#1263,#1264);
#1033=AXIS2_PLACEMENT_3D('',#1588,#1265,#1266);
#1034=AXIS2_PLACEMENT_3D('',#1590,#1267,#1268);
#1035=AXIS2_PLACEMENT_3D('',#1591,#1269,#1270);
#1036=AXIS2_PLACEMENT_3D('',#1593,#1271,#1272);
#1037=AXIS2_PLACEMENT_3D('',#1595,#1273,#1274);
#1038=AXIS2_PLACEMENT_3D('',#1596,#1275,#1276);
#1039=AXIS2_PLACEMENT_3D('',#1598,#1277,#1278);
#1040=AXIS2_PLACEMENT_3D('',#1600,#1279,#1280);
#1041=AXIS2_PLACEMENT_3D('',#1601,#1281,#1282);
#1042=AXIS2_PLACEMENT_3D('',#1603,#1283,#1284);
#1043=AXIS2_PLACEMENT_3D('',#1605,#1285,#1286);
#1044=AXIS2_PLACEMENT_3D('',#1606,#1287,#1288);
#1045=AXIS2_PLACEMENT_3D('',#1608,#1289,#1290);
#1046=AXIS2_PLACEMENT_3D('',#1610,#1291,#1292);
#1047=AXIS2_PLACEMENT_3D('',#1611,#1293,#1294);
#1048=AXIS2_PLACEMENT_3D('',#1613,#1295,#1296);
#1049=AXIS2_PLACEMENT_3D('',#1615,#1297,#1298);
#1050=AXIS2_PLACEMENT_3D('',#1616,#1299,#1300);
#1051=AXIS2_PLACEMENT_3D('',#1618,#1301,#1302);
#1052=AXIS2_PLACEMENT_3D('',#1620,#1303,#1304);
#1053=AXIS2_PLACEMENT_3D('',#1621,#1305,#1306);
#1054=AXIS2_PLACEMENT_3D('',#1623,#1307,#1308);
#1055=AXIS2_PLACEMENT_3D('',#1625,#1309,#1310);
#1056=AXIS2_PLACEMENT_3D('',#1626,#1311,#1312);
#1057=AXIS2_PLACEMENT_3D('',#1628,#1313,#1314);
#1058=AXIS2_PLACEMENT_3D('',#1630,#1315,#1316);
#1059=AXIS2_PLACEMENT_3D('',#1631,#1317,#1318);
#1060=AXIS2_PLACEMENT_3D('',#1633,#1319,#1320);
#1061=AXIS2_PLACEMENT_3D('',#1635,#1321,#1322);
#1062=AXIS2_PLACEMENT_3D('',#1636,#1323,#1324);
#1063=AXIS2_PLACEMENT_3D('',#1638,#1325,#1326);
#1064=AXIS2_PLACEMENT_3D('',#1640,#1327,#1328);
#1065=AXIS2_PLACEMENT_3D('',#1641,#1329,#1330);
#1066=AXIS2_PLACEMENT_3D('',#1643,#1331,#1332);
#1067=AXIS2_PLACEMENT_3D('',#1645,#1333,#1334);
#1068=AXIS2_PLACEMENT_3D('',#1646,#1335,#1336);
#1069=AXIS2_PLACEMENT_3D('',#1648,#1337,#1338);
#1070=AXIS2_PLACEMENT_3D('',#1650,#1339,#1340);
#1071=AXIS2_PLACEMENT_3D('',#1651,#1341,#1342);
#1072=AXIS2_PLACEMENT_3D('',#1653,#1343,#1344);
#1073=AXIS2_PLACEMENT_3D('',#1655,#1345,#1346);
#1074=AXIS2_PLACEMENT_3D('',#1656,#1347,#1348);
#1075=AXIS2_PLACEMENT_3D('',#1658,#1349,#1350);
#1076=AXIS2_PLACEMENT_3D('',#1660,#1351,#1352);
#1077=AXIS2_PLACEMENT_3D('',#1661,#1353,#1354);
#1078=AXIS2_PLACEMENT_3D('',#1663,#1355,#1356);
#1079=AXIS2_PLACEMENT_3D('',#1665,#1357,#1358);
#1080=AXIS2_PLACEMENT_3D('',#1666,#1359,#1360);
#1081=AXIS2_PLACEMENT_3D('',#1668,#1361,#1362);
#1082=AXIS2_PLACEMENT_3D('',#1670,#1363,#1364);
#1083=AXIS2_PLACEMENT_3D('',#1671,#1365,#1366);
#1084=AXIS2_PLACEMENT_3D('',#1673,#1367,#1368);
#1085=AXIS2_PLACEMENT_3D('',#1675,#1369,#1370);
#1086=AXIS2_PLACEMENT_3D('',#1676,#1371,#1372);
#1087=AXIS2_PLACEMENT_3D('',#1678,#1373,#1374);
#1088=AXIS2_PLACEMENT_3D('',#1680,#1375,#1376);
#1089=AXIS2_PLACEMENT_3D('',#1681,#1377,#1378);
#1090=AXIS2_PLACEMENT_3D('',#1683,#1379,#1380);
#1091=AXIS2_PLACEMENT_3D('',#1685,#1381,#1382);
#1092=AXIS2_PLACEMENT_3D('',#1686,#1383,#1384);
#1093=AXIS2_PLACEMENT_3D('',#1688,#1385,#1386);
#1094=AXIS2_PLACEMENT_3D('',#1690,#1387,#1388);
#1095=AXIS2_PLACEMENT_3D('',#1691,#1389,#1390);
#1096=AXIS2_PLACEMENT_3D('',#1693,#1391,#1392);
#1097=AXIS2_PLACEMENT_3D('',#1695,#1393,#1394);
#1098=AXIS2_PLACEMENT_3D('',#1696,#1395,#1396);
#1099=AXIS2_PLACEMENT_3D('',#1697,#1397,#1398);
#1100=AXIS2_PLACEMENT_3D('',#1698,#1399,#1400);
#1101=AXIS2_PLACEMENT_3D('',#1699,#1401,#1402);
#1102=AXIS2_PLACEMENT_3D('',#1700,#1403,#1404);
#1103=AXIS2_PLACEMENT_3D('',#1701,#1405,#1406);
#1104=AXIS2_PLACEMENT_3D('',#1702,#1407,#1408);
#1105=AXIS2_PLACEMENT_3D('',#1703,#1409,#1410);
#1106=AXIS2_PLACEMENT_3D('',#1704,#1411,#1412);
#1107=AXIS2_PLACEMENT_3D('',#1705,#1413,#1414);
#1108=AXIS2_PLACEMENT_3D('',#1707,#1415,#1416);
#1109=AXIS2_PLACEMENT_3D('',#1708,#1417,#1418);
#1110=AXIS2_PLACEMENT_3D('',#1709,#1419,#1420);
#1111=AXIS2_PLACEMENT_3D('',#1710,#1421,#1422);
#1112=AXIS2_PLACEMENT_3D('',#1711,#1423,#1424);
#1113=AXIS2_PLACEMENT_3D('',#1712,#1425,#1426);
#1114=AXIS2_PLACEMENT_3D('',#1713,#1427,#1428);
#1115=AXIS2_PLACEMENT_3D('',#1714,#1429,#1430);
#1116=AXIS2_PLACEMENT_3D('',#1715,#1431,#1432);
#1117=AXIS2_PLACEMENT_3D('',#1716,#1433,#1434);
#1118=AXIS2_PLACEMENT_3D('',#1717,#1435,#1436);
#1119=AXIS2_PLACEMENT_3D('',#1718,#1437,#1438);
#1120=AXIS2_PLACEMENT_3D('',#1719,#1439,#1440);
#1121=AXIS2_PLACEMENT_3D('',#1720,#1441,#1442);
#1122=AXIS2_PLACEMENT_3D('',#1721,#1443,#1444);
#1123=AXIS2_PLACEMENT_3D('',#1722,#1445,#1446);
#1124=AXIS2_PLACEMENT_3D('',#1723,#1447,#1448);
#1125=AXIS2_PLACEMENT_3D('',#1724,#1449,#1450);
#1126=AXIS2_PLACEMENT_3D('',#1725,#1451,#1452);
#1127=AXIS2_PLACEMENT_3D('',#1726,#1453,#1454);
#1128=AXIS2_PLACEMENT_3D('',#1727,#1455,#1456);
#1129=AXIS2_PLACEMENT_3D('',#1728,#1457,#1458);
#1130=AXIS2_PLACEMENT_3D('',#1729,#1459,#1460);
#1131=AXIS2_PLACEMENT_3D('',#1730,#1461,#1462);
#1132=AXIS2_PLACEMENT_3D('',#1731,#1463,#1464);
#1133=AXIS2_PLACEMENT_3D('',#1732,#1465,#1466);
#1134=AXIS2_PLACEMENT_3D('',#1733,#1467,#1468);
#1135=AXIS2_PLACEMENT_3D('',#1734,#1469,#1470);
#1136=AXIS2_PLACEMENT_3D('',#1735,#1471,#1472);
#1137=AXIS2_PLACEMENT_3D('',#1736,#1473,#1474);
#1138=AXIS2_PLACEMENT_3D('',#1737,#1475,#1476);
#1139=AXIS2_PLACEMENT_3D('',#1738,#1477,#1478);
#1140=AXIS2_PLACEMENT_3D('',#1739,#1479,#1480);
#1141=AXIS2_PLACEMENT_3D('',#1741,#1481,#1482);
#1142=AXIS2_PLACEMENT_3D('',#1742,#1483,#1484);
#1143=AXIS2_PLACEMENT_3D('',#1743,#1485,#1486);
#1144=AXIS2_PLACEMENT_3D('',#1745,#1487,#1488);
#1145=DIRECTION('',(0.,0.,1.));
#1146=DIRECTION('',(1.,0.,0.));
#1147=DIRECTION('',(0.,0.,1.));
#1148=DIRECTION('',(0.987688340595138,0.156434465040231,0.));
#1149=DIRECTION('',(0.,0.,-1.));
#1150=DIRECTION('',(0.987688340595138,0.156434465040231,0.));
#1151=DIRECTION('',(0.,0.,-1.));
#1152=DIRECTION('',(-0.987688340595138,-0.156434465040231,0.));
#1153=DIRECTION('',(0.,0.,1.));
#1154=DIRECTION('',(0.951056516295154,0.309016994374948,0.));
#1155=DIRECTION('',(0.,0.,-1.));
#1156=DIRECTION('',(0.951056516295154,0.309016994374948,0.));
#1157=DIRECTION('',(0.,0.,-1.));
#1158=DIRECTION('',(-0.951056516295154,-0.309016994374948,0.));
#1159=DIRECTION('',(0.,0.,1.));
#1160=DIRECTION('',(0.891006524188368,0.453990499739547,0.));
#1161=DIRECTION('',(0.,0.,-1.));
#1162=DIRECTION('',(0.891006524188368,0.453990499739547,0.));
#1163=DIRECTION('',(0.,0.,-1.));
#1164=DIRECTION('',(-0.891006524188368,-0.453990499739547,0.));
#1165=DIRECTION('',(0.,0.,1.));
#1166=DIRECTION('',(0.809016994374947,0.587785252292473,0.));
#1167=DIRECTION('',(0.,0.,-1.));
#1168=DIRECTION('',(0.809016994374947,0.587785252292473,0.));
#1169=DIRECTION('',(0.,0.,-1.));
#1170=DIRECTION('',(-0.809016994374947,-0.587785252292473,0.));
#1171=DIRECTION('',(0.,0.,1.));
#1172=DIRECTION('',(0.707106781186547,0.707106781186548,0.));
#1173=DIRECTION('',(0.,0.,-1.));
#1174=DIRECTION('',(0.707106781186547,0.707106781186548,0.));
#1175=DIRECTION('',(0.,0.,-1.));
#1176=DIRECTION('',(-0.707106781186547,-0.707106781186548,0.));
#1177=DIRECTION('',(0.,0.,1.));
#1178=DIRECTION('',(0.587785252292473,0.809016994374948,0.));
#1179=DIRECTION('',(0.,0.,-1.));
#1180=DIRECTION('',(0.587785252292473,0.809016994374948,0.));
#1181=DIRECTION('',(0.,0.,-1.));
#1182=DIRECTION('',(-0.587785252292473,-0.809016994374948,0.));
#1183=DIRECTION('',(0.,0.,1.));
#1184=DIRECTION('',(0.453990499739547,0.891006524188368,0.));
#1185=DIRECTION('',(0.,0.,-1.));
#1186=DIRECTION('',(0.453990499739547,0.891006524188368,0.));
#1187=DIRECTION('',(0.,0.,-1.));
#1188=DIRECTION('',(-0.453990499739547,-0.891006524188368,0.));
#1189=DIRECTION('',(0.,0.,1.));
#1190=DIRECTION('',(0.309016994374947,0.951056516295154,0.));
#1191=DIRECTION('',(0.,0.,-1.));
#1192=DIRECTION('',(0.309016994374947,0.951056516295154,0.));
#1193=DIRECTION('',(0.,0.,-1.));
#1194=DIRECTION('',(-0.309016994374947,-0.951056516295154,0.));
#1195=DIRECTION('',(0.,0.,1.));
#1196=DIRECTION('',(0.156434465040231,0.987688340595138,0.));
#1197=DIRECTION('',(0.,0.,-1.));
#1198=DIRECTION('',(0.156434465040231,0.987688340595138,0.));
#1199=DIRECTION('',(0.,0.,-1.));
#1200=DIRECTION('',(-0.156434465040231,-0.987688340595138,0.));
#1201=DIRECTION('',(0.,0.,1.));
#1202=DIRECTION('',(-1.60812264967664E-16,1.,0.));
#1203=DIRECTION('',(0.,0.,-1.));
#1204=DIRECTION('',(-1.60812264967664E-16,1.,0.));
#1205=DIRECTION('',(0.,0.,-1.));
#1206=DIRECTION('',(1.60812264967664E-16,-1.,0.));
#1207=DIRECTION('',(0.,0.,1.));
#1208=DIRECTION('',(-0.156434465040231,0.987688340595138,0.));
#1209=DIRECTION('',(0.,0.,-1.));
#1210=DIRECTION('',(-0.156434465040231,0.987688340595138,0.));
#1211=DIRECTION('',(0.,0.,-1.));
#1212=DIRECTION('',(0.156434465040231,-0.987688340595138,0.));
#1213=DIRECTION('',(0.,0.,1.));
#1214=DIRECTION('',(-0.309016994374948,0.951056516295154,0.));
#1215=DIRECTION('',(0.,0.,-1.));
#1216=DIRECTION('',(-0.309016994374948,0.951056516295154,0.));
#1217=DIRECTION('',(0.,0.,-1.));
#1218=DIRECTION('',(0.309016994374948,-0.951056516295154,0.));
#1219=DIRECTION('',(0.,0.,1.));
#1220=DIRECTION('',(-0.453990499739547,0.891006524188368,0.));
#1221=DIRECTION('',(0.,0.,-1.));
#1222=DIRECTION('',(-0.453990499739547,0.891006524188368,0.));
#1223=DIRECTION('',(0.,0.,-1.));
#1224=DIRECTION('',(0.453990499739547,-0.891006524188368,0.));
#1225=DIRECTION('',(0.,0.,1.));
#1226=DIRECTION('',(-0.587785252292473,0.809016994374947,0.));
#1227=DIRECTION('',(0.,0.,-1.));
#1228=DIRECTION('',(-0.587785252292473,0.809016994374947,0.));
#1229=DIRECTION('',(0.,0.,-1.));
#1230=DIRECTION('',(0.587785252292473,-0.809016994374947,0.));
#1231=DIRECTION('',(0.,0.,1.));
#1232=DIRECTION('',(-0.707106781186548,0.707106781186547,0.));
#1233=DIRECTION('',(0.,0.,-1.));
#1234=DIRECTION('',(-0.707106781186548,0.707106781186547,0.));
#1235=DIRECTION('',(0.,0.,-1.));
#1236=DIRECTION('',(0.707106781186548,-0.707106781186547,0.));
#1237=DIRECTION('',(0.,0.,1.));
#1238=DIRECTION('',(-0.809016994374947,0.587785252292473,0.));
#1239=DIRECTION('',(0.,0.,-1.));
#1240=DIRECTION('',(-0.809016994374947,0.587785252292473,0.));
#1241=DIRECTION('',(0.,0.,-1.));
#1242=DIRECTION('',(0.809016994374947,-0.587785252292473,0.));
#1243=DIRECTION('',(0.,0.,1.));
#1244=DIRECTION('',(-0.891006524188368,0.453990499739546,0.));
#1245=DIRECTION('',(0.,0.,-1.));
#1246=DIRECTION('',(-0.891006524188368,0.453990499739546,0.));
#1247=DIRECTION('',(0.,0.,-1.));
#1248=DIRECTION('',(0.891006524188368,-0.453990499739546,0.));
#1249=DIRECTION('',(0.,0.,1.));
#1250=DIRECTION('',(-0.951056516295154,0.309016994374947,0.));
#1251=DIRECTION('',(0.,0.,-1.));
#1252=DIRECTION('',(-0.951056516295154,0.309016994374947,0.));
#1253=DIRECTION('',(0.,0.,-1.));
#1254=DIRECTION('',(0.951056516295154,-0.309016994374947,0.));
#1255=DIRECTION('',(0.,0.,1.));
#1256=DIRECTION('',(-0.987688340595138,0.156434465040231,0.));
#1257=DIRECTION('',(0.,0.,-1.));
#1258=DIRECTION('',(-0.987688340595138,0.156434465040231,0.));
#1259=DIRECTION('',(0.,0.,-1.));
#1260=DIRECTION('',(0.987688340595138,-0.156434465040231,0.));
#1261=DIRECTION('',(0.,0.,1.));
#1262=DIRECTION('',(-1.,1.22464679914735E-16,0.));
#1263=DIRECTION('',(0.,0.,-1.));
#1264=DIRECTION('',(-1.,1.22464679914735E-16,0.));
#1265=DIRECTION('',(0.,0.,-1.));
#1266=DIRECTION('',(1.,-1.22464679914735E-16,0.));
#1267=DIRECTION('',(0.,0.,1.));
#1268=DIRECTION('',(-0.987688340595138,-0.156434465040231,0.));
#1269=DIRECTION('',(0.,0.,-1.));
#1270=DIRECTION('',(-0.987688340595138,-0.156434465040231,0.));
#1271=DIRECTION('',(0.,0.,-1.));
#1272=DIRECTION('',(0.987688340595138,0.156434465040231,0.));
#1273=DIRECTION('',(0.,0.,1.));
#1274=DIRECTION('',(-0.951056516295154,-0.309016994374947,0.));
#1275=DIRECTION('',(0.,0.,-1.));
#1276=DIRECTION('',(-0.951056516295154,-0.309016994374947,0.));
#1277=DIRECTION('',(0.,0.,-1.));
#1278=DIRECTION('',(0.951056516295154,0.309016994374947,0.));
#1279=DIRECTION('',(0.,0.,1.));
#1280=DIRECTION('',(-0.891006524188368,-0.453990499739547,0.));
#1281=DIRECTION('',(0.,0.,-1.));
#1282=DIRECTION('',(-0.891006524188368,-0.453990499739547,0.));
#1283=DIRECTION('',(0.,0.,-1.));
#1284=DIRECTION('',(0.891006524188368,0.453990499739547,0.));
#1285=DIRECTION('',(0.,0.,1.));
#1286=DIRECTION('',(-0.809016994374947,-0.587785252292473,0.));
#1287=DIRECTION('',(0.,0.,-1.));
#1288=DIRECTION('',(-0.809016994374947,-0.587785252292473,0.));
#1289=DIRECTION('',(0.,0.,-1.));
#1290=DIRECTION('',(0.809016994374947,0.587785252292473,0.));
#1291=DIRECTION('',(0.,0.,1.));
#1292=DIRECTION('',(-0.707106781186548,-0.707106781186547,0.));
#1293=DIRECTION('',(0.,0.,-1.));
#1294=DIRECTION('',(-0.707106781186548,-0.707106781186547,0.));
#1295=DIRECTION('',(0.,0.,-1.));
#1296=DIRECTION('',(0.707106781186548,0.707106781186547,0.));
#1297=DIRECTION('',(0.,0.,1.));
#1298=DIRECTION('',(-0.587785252292473,-0.809016994374947,0.));
#1299=DIRECTION('',(0.,0.,-1.));
#1300=DIRECTION('',(-0.587785252292473,-0.809016994374947,0.));
#1301=DIRECTION('',(0.,0.,-1.));
#1302=DIRECTION('',(0.587785252292473,0.809016994374947,0.));
#1303=DIRECTION('',(0.,0.,1.));
#1304=DIRECTION('',(-0.453990499739547,-0.891006524188368,0.));
#1305=DIRECTION('',(0.,0.,-1.));
#1306=DIRECTION('',(-0.453990499739547,-0.891006524188368,0.));
#1307=DIRECTION('',(0.,0.,-1.));
#1308=DIRECTION('',(0.453990499739547,0.891006524188368,0.));
#1309=DIRECTION('',(0.,0.,1.));
#1310=DIRECTION('',(-0.309016994374948,-0.951056516295154,0.));
#1311=DIRECTION('',(0.,0.,-1.));
#1312=DIRECTION('',(-0.309016994374948,-0.951056516295154,0.));
#1313=DIRECTION('',(0.,0.,-1.));
#1314=DIRECTION('',(0.309016994374948,0.951056516295154,0.));
#1315=DIRECTION('',(0.,0.,1.));
#1316=DIRECTION('',(-0.156434465040231,-0.987688340595138,0.));
#1317=DIRECTION('',(0.,0.,-1.));
#1318=DIRECTION('',(-0.156434465040231,-0.987688340595138,0.));
#1319=DIRECTION('',(0.,0.,-1.));
#1320=DIRECTION('',(0.156434465040231,0.987688340595138,0.));
#1321=DIRECTION('',(0.,0.,1.));
#1322=DIRECTION('',(-1.83697019872103E-16,-1.,0.));
#1323=DIRECTION('',(0.,0.,-1.));
#1324=DIRECTION('',(-1.83697019872103E-16,-1.,0.));
#1325=DIRECTION('',(0.,0.,-1.));
#1326=DIRECTION('',(1.83697019872103E-16,1.,0.));
#1327=DIRECTION('',(0.,0.,1.));
#1328=DIRECTION('',(0.156434465040231,-0.987688340595138,0.));
#1329=DIRECTION('',(0.,0.,-1.));
#1330=DIRECTION('',(0.156434465040231,-0.987688340595138,0.));
#1331=DIRECTION('',(0.,0.,-1.));
#1332=DIRECTION('',(-0.156434465040231,0.987688340595138,0.));
#1333=DIRECTION('',(0.,0.,1.));
#1334=DIRECTION('',(0.309016994374947,-0.951056516295154,0.));
#1335=DIRECTION('',(0.,0.,-1.));
#1336=DIRECTION('',(0.309016994374947,-0.951056516295154,0.));
#1337=DIRECTION('',(0.,0.,-1.));
#1338=DIRECTION('',(-0.309016994374947,0.951056516295154,0.));
#1339=DIRECTION('',(0.,0.,1.));
#1340=DIRECTION('',(0.453990499739547,-0.891006524188368,0.));
#1341=DIRECTION('',(0.,0.,-1.));
#1342=DIRECTION('',(0.453990499739547,-0.891006524188368,0.));
#1343=DIRECTION('',(0.,0.,-1.));
#1344=DIRECTION('',(-0.453990499739547,0.891006524188368,0.));
#1345=DIRECTION('',(0.,0.,1.));
#1346=DIRECTION('',(0.587785252292473,-0.809016994374948,0.));
#1347=DIRECTION('',(0.,0.,-1.));
#1348=DIRECTION('',(0.587785252292473,-0.809016994374948,0.));
#1349=DIRECTION('',(0.,0.,-1.));
#1350=DIRECTION('',(-0.587785252292473,0.809016994374948,0.));
#1351=DIRECTION('',(0.,0.,1.));
#1352=DIRECTION('',(0.707106781186547,-0.707106781186548,0.));
#1353=DIRECTION('',(0.,0.,-1.));
#1354=DIRECTION('',(0.707106781186547,-0.707106781186548,0.));
#1355=DIRECTION('',(0.,0.,-1.));
#1356=DIRECTION('',(-0.707106781186547,0.707106781186548,0.));
#1357=DIRECTION('',(0.,0.,1.));
#1358=DIRECTION('',(0.809016994374947,-0.587785252292473,0.));
#1359=DIRECTION('',(0.,0.,-1.));
#1360=DIRECTION('',(0.809016994374947,-0.587785252292473,0.));
#1361=DIRECTION('',(0.,0.,-1.));
#1362=DIRECTION('',(-0.809016994374947,0.587785252292473,0.));
#1363=DIRECTION('',(0.,0.,1.));
#1364=DIRECTION('',(0.891006524188368,-0.453990499739547,0.));
#1365=DIRECTION('',(0.,0.,-1.));
#1366=DIRECTION('',(0.891006524188368,-0.453990499739547,0.));
#1367=DIRECTION('',(0.,0.,-1.));
#1368=DIRECTION('',(-0.891006524188368,0.453990499739547,0.));
#1369=DIRECTION('',(0.,0.,1.));
#1370=DIRECTION('',(0.951056516295154,-0.309016994374948,0.));
#1371=DIRECTION('',(0.,0.,-1.));
#1372=DIRECTION('',(0.951056516295154,-0.309016994374948,0.));
#1373=DIRECTION('',(0.,0.,-1.));
#1374=DIRECTION('',(-0.951056516295154,0.309016994374948,0.));
#1375=DIRECTION('',(0.,0.,1.));
#1376=DIRECTION('',(0.987688340595138,-0.156434465040231,0.));
#1377=DIRECTION('',(0.,0.,-1.));
#1378=DIRECTION('',(0.987688340595138,-0.156434465040231,0.));
#1379=DIRECTION('',(0.,0.,-1.));
#1380=DIRECTION('',(-0.987688340595138,0.156434465040231,0.));
#1381=DIRECTION('',(0.,0.,-1.));
#1382=DIRECTION('',(-1.,0.,0.));
#1383=DIRECTION('',(0.,0.,-1.));
#1384=DIRECTION('',(-1.,0.,0.));
#1385=DIRECTION('',(0.,0.,-1.));
#1386=DIRECTION('',(1.,0.,0.));
#1387=DIRECTION('',(0.,0.,-1.));
#1388=DIRECTION('',(-1.,0.,0.));
#1389=DIRECTION('',(0.,0.,-1.));
#1390=DIRECTION('',(1.,0.,0.));
#1391=DIRECTION('',(0.,0.,-1.));
#1392=DIRECTION('',(1.,0.,0.));
#1393=DIRECTION('',(0.,0.,-1.));
#1394=DIRECTION('',(-1.,0.,0.));
#1395=DIRECTION('',(0.,0.,-1.));
#1396=DIRECTION('',(-1.,0.,0.));
#1397=DIRECTION('',(0.,0.,-1.));
#1398=DIRECTION('',(-1.,0.,0.));
#1399=DIRECTION('',(0.,0.,-1.));
#1400=DIRECTION('',(-1.,0.,0.));
#1401=DIRECTION('',(0.,0.,-1.));
#1402=DIRECTION('',(-1.,0.,0.));
#1403=DIRECTION('',(0.,0.,-1.));
#1404=DIRECTION('',(-1.,0.,0.));
#1405=DIRECTION('',(0.,0.,-1.));
#1406=DIRECTION('',(-1.,0.,0.));
#1407=DIRECTION('',(0.,0.,-1.));
#1408=DIRECTION('',(-1.,0.,0.));
#1409=DIRECTION('',(0.,0.,-1.));
#1410=DIRECTION('',(-1.,0.,0.));
#1411=DIRECTION('',(0.,0.,-1.));
#1412=DIRECTION('',(-1.,0.,0.));
#1413=DIRECTION('',(0.,0.,-1.));
#1414=DIRECTION('',(-1.,0.,0.));
#1415=DIRECTION('',(0.,0.,-1.));
#1416=DIRECTION('',(1.,0.,0.));
#1417=DIRECTION('',(0.,0.,-1.));
#1418=DIRECTION('',(-1.,0.,0.));
#1419=DIRECTION('',(0.,0.,-1.));
#1420=DIRECTION('',(-1.,0.,0.));
#1421=DIRECTION('',(0.,0.,-1.));
#1422=DIRECTION('',(-1.,0.,0.));
#1423=DIRECTION('',(0.,0.,-1.));
#1424=DIRECTION('',(-1.,0.,0.));
#1425=DIRECTION('',(0.,0.,-1.));
#1426=DIRECTION('',(-1.,0.,0.));
#1427=DIRECTION('',(0.,0.,-1.));
#1428=DIRECTION('',(-1.,0.,0.));
#1429=DIRECTION('',(0.,0.,-1.));
#1430=DIRECTION('',(-1.,0.,0.));
#1431=DIRECTION('',(0.,0.,-1.));
#1432=DIRECTION('',(-1.,0.,0.));
#1433=DIRECTION('',(0.,0.,-1.));
#1434=DIRECTION('',(-1.,0.,0.));
#1435=DIRECTION('',(0.,0.,-1.));
#1436=DIRECTION('',(-1.,0.,0.));
#1437=DIRECTION('',(0.,0.,-1.));
#1438=DIRECTION('',(-1.,0.,0.));
#1439=DIRECTION('',(0.,0.,-1.));
#1440=DIRECTION('',(-1.,0.,0.));
#1441=DIRECTION('',(0.,0.,-1.));
#1442=DIRECTION('',(-1.,0.,0.));
#1443=DIRECTION('',(0.,0.,-1.));
#1444=DIRECTION('',(-1.,0.,0.));
#1445=DIRECTION('',(0.,0.,-1.));
#1446=DIRECTION('',(-1.,0.,0.));
#1447=DIRECTION('',(0.,0.,-1.));
#1448=DIRECTION('',(-1.,0.,0.));
#1449=DIRECTION('',(0.,0.,-1.));
#1450=DIRECTION('',(-1.,0.,0.));
#1451=DIRECTION('',(0.,0.,-1.));
#1452=DIRECTION('',(-1.,0.,0.));
#1453=DIRECTION('',(0.,0.,-1.));
#1454=DIRECTION('',(-1.,0.,0.));
#1455=DIRECTION('',(0.,0.,-1.));
#1456=DIRECTION('',(-1.,0.,0.));
#1457=DIRECTION('',(0.,0.,-1.));
#1458=DIRECTION('',(-1.,0.,0.));
#1459=DIRECTION('',(0.,0.,-1.));
#1460=DIRECTION('',(-1.,0.,0.));
#1461=DIRECTION('',(0.,0.,-1.));
#1462=DIRECTION('',(-1.,0.,0.));
#1463=DIRECTION('',(0.,0.,-1.));
#1464=DIRECTION('',(-1.,0.,0.));
#1465=DIRECTION('',(0.,0.,-1.));
#1466=DIRECTION('',(-1.,0.,0.));
#1467=DIRECTION('',(0.,0.,-1.));
#1468=DIRECTION('',(-1.,0.,0.));
#1469=DIRECTION('',(0.,0.,-1.));
#1470=DIRECTION('',(-1.,0.,0.));
#1471=DIRECTION('',(0.,0.,-1.));
#1472=DIRECTION('',(-1.,0.,0.));
#1473=DIRECTION('',(0.,0.,-1.));
#1474=DIRECTION('',(-1.,0.,0.));
#1475=DIRECTION('',(0.,0.,-1.));
#1476=DIRECTION('',(-1.,0.,0.));
#1477=DIRECTION('',(0.,0.,-1.));
#1478=DIRECTION('',(-1.,0.,0.));
#1479=DIRECTION('',(0.,0.,-1.));
#1480=DIRECTION('',(-1.,0.,0.));
#1481=DIRECTION('',(0.,0.,1.));
#1482=DIRECTION('',(1.,0.,0.));
#1483=DIRECTION('',(0.,0.,-1.));
#1484=DIRECTION('',(-1.,0.,0.));
#1485=DIRECTION('',(0.,0.,-1.));
#1486=DIRECTION('',(-1.,0.,0.));
#1487=DIRECTION('',(0.,0.,-1.));
#1488=DIRECTION('',(-1.,0.,0.));
#1489=CARTESIAN_POINT('',(0.,0.,0.));
#1490=CARTESIAN_POINT('',(-137.662329235403,869.165739723721,-2514.09733304872));
#1491=CARTESIAN_POINT('',(-137.662329235403,869.165739723721,75.));
#1492=CARTESIAN_POINT('',(-134.846508864679,851.387349593009,75.0000000000002));
#1493=CARTESIAN_POINT('',(-137.662329235403,869.165739723721,0.));
#1494=CARTESIAN_POINT('',(-155.440719366116,866.349919352997,0.));
#1495=CARTESIAN_POINT('',(-271.934955049954,836.929734339735,-2514.09733304872));
#1496=CARTESIAN_POINT('',(-271.934955049954,836.929734339735,75.));
#1497=CARTESIAN_POINT('',(-266.372649151205,819.810717046422,75.0000000000002));
#1498=CARTESIAN_POINT('',(-271.934955049954,836.929734339735,0.));
#1499=CARTESIAN_POINT('',(-289.053972343267,831.367428440986,0.));
#1500=CARTESIAN_POINT('',(-399.511639770801,784.085741285764,-2514.09733304872));
#1501=CARTESIAN_POINT('',(-399.511639770801,784.085741285764,75.));
#1502=CARTESIAN_POINT('',(-391.339810775489,768.047623850373,75.0000000000002));
#1503=CARTESIAN_POINT('',(-399.511639770801,784.085741285764,0.));
#1504=CARTESIAN_POINT('',(-415.549757206192,775.913912290452,0.));
#1505=CARTESIAN_POINT('',(-517.251022017376,711.934955049954,-2514.09733304872));
#1506=CARTESIAN_POINT('',(-517.251022017376,711.934955049954,75.));
#1507=CARTESIAN_POINT('',(-506.670887476112,697.372649151205,75.0000000000002));
#1508=CARTESIAN_POINT('',(-517.251022017376,711.934955049954,0.));
#1509=CARTESIAN_POINT('',(-531.813327916126,701.354820508689,0.));
#1510=CARTESIAN_POINT('',(-622.253967444162,622.253967444162,-2514.09733304872));
#1511=CARTESIAN_POINT('',(-622.253967444162,622.253967444162,75.));
#1512=CARTESIAN_POINT('',(-609.526045382804,609.526045382804,75.0000000000002));
#1513=CARTESIAN_POINT('',(-622.253967444162,622.253967444162,0.));
#1514=CARTESIAN_POINT('',(-634.98188950552,609.526045382804,0.));
#1515=CARTESIAN_POINT('',(-711.934955049954,517.251022017376,-2514.09733304872));
#1516=CARTESIAN_POINT('',(-711.934955049954,517.251022017376,75.));
#1517=CARTESIAN_POINT('',(-697.372649151205,506.670887476112,75.0000000000002));
#1518=CARTESIAN_POINT('',(-711.934955049954,517.251022017376,0.));
#1519=CARTESIAN_POINT('',(-722.515089591218,502.688716118627,0.));
#1520=CARTESIAN_POINT('',(-784.085741285764,399.511639770801,-2514.09733304872));
#1521=CARTESIAN_POINT('',(-784.085741285764,399.511639770801,75.));
#1522=CARTESIAN_POINT('',(-768.047623850373,391.339810775489,75.0000000000002));
#1523=CARTESIAN_POINT('',(-784.085741285764,399.511639770801,0.));
#1524=CARTESIAN_POINT('',(-792.257570281076,383.47352233541,0.));
#1525=CARTESIAN_POINT('',(-836.929734339735,271.934955049954,-2514.09733304872));
#1526=CARTESIAN_POINT('',(-836.929734339735,271.934955049954,75.));
#1527=CARTESIAN_POINT('',(-819.810717046422,266.372649151205,75.0000000000002));
#1528=CARTESIAN_POINT('',(-836.929734339735,271.934955049954,0.));
#1529=CARTESIAN_POINT('',(-842.492040238484,254.815937756641,0.));
#1530=CARTESIAN_POINT('',(-869.165739723721,137.662329235403,-2514.09733304872));
#1531=CARTESIAN_POINT('',(-869.165739723721,137.662329235403,75.));
#1532=CARTESIAN_POINT('',(-851.387349593009,134.846508864679,75.0000000000002));
#1533=CARTESIAN_POINT('',(-869.165739723721,137.662329235403,0.));
#1534=CARTESIAN_POINT('',(-871.981560094445,119.883939104691,0.));
#1535=CARTESIAN_POINT('',(-880.,-1.41514793171544E-13,-2514.09733304872));
#1536=CARTESIAN_POINT('',(-880.,-1.41514793171544E-13,75.));
#1537=CARTESIAN_POINT('',(-862.,-1.41514793171544E-13,75.));
#1538=CARTESIAN_POINT('',(-880.,-1.41514793171544E-13,0.));
#1539=CARTESIAN_POINT('',(-880.,-18.0000000000001,0.));
#1540=CARTESIAN_POINT('',(-869.165739723721,-137.662329235403,-2514.09733304872));
#1541=CARTESIAN_POINT('',(-869.165739723721,-137.662329235403,75.));
#1542=CARTESIAN_POINT('',(-851.387349593009,-134.846508864679,75.0000000000002));
#1543=CARTESIAN_POINT('',(-869.165739723721,-137.662329235403,0.));
#1544=CARTESIAN_POINT('',(-866.349919352997,-155.440719366116,0.));
#1545=CARTESIAN_POINT('',(-836.929734339735,-271.934955049954,-2514.09733304872));
#1546=CARTESIAN_POINT('',(-836.929734339735,-271.934955049954,75.));
#1547=CARTESIAN_POINT('',(-819.810717046422,-266.372649151205,75.0000000000002));
#1548=CARTESIAN_POINT('',(-836.929734339735,-271.934955049954,0.));
#1549=CARTESIAN_POINT('',(-831.367428440986,-289.053972343267,0.));
#1550=CARTESIAN_POINT('',(-784.085741285764,-399.511639770801,-2514.09733304872));
#1551=CARTESIAN_POINT('',(-784.085741285764,-399.511639770801,75.));
#1552=CARTESIAN_POINT('',(-768.047623850373,-391.33981077549,75.0000000000002));
#1553=CARTESIAN_POINT('',(-784.085741285764,-399.511639770801,0.));
#1554=CARTESIAN_POINT('',(-775.913912290452,-415.549757206192,0.));
#1555=CARTESIAN_POINT('',(-711.934955049953,-517.251022017377,-2514.09733304872));
#1556=CARTESIAN_POINT('',(-711.934955049953,-517.251022017377,75.));
#1557=CARTESIAN_POINT('',(-697.372649151204,-506.670887476112,75.0000000000002));
#1558=CARTESIAN_POINT('',(-711.934955049953,-517.251022017377,0.));
#1559=CARTESIAN_POINT('',(-701.354820508689,-531.813327916126,0.));
#1560=CARTESIAN_POINT('',(-622.253967444162,-622.253967444162,-2514.09733304872));
#1561=CARTESIAN_POINT('',(-622.253967444162,-622.253967444162,75.));
#1562=CARTESIAN_POINT('',(-609.526045382804,-609.526045382804,75.0000000000002));
#1563=CARTESIAN_POINT('',(-622.253967444162,-622.253967444162,0.));
#1564=CARTESIAN_POINT('',(-609.526045382804,-634.98188950552,0.));
#1565=CARTESIAN_POINT('',(-517.251022017376,-711.934955049954,-2514.09733304872));
#1566=CARTESIAN_POINT('',(-517.251022017376,-711.934955049954,75.));
#1567=CARTESIAN_POINT('',(-506.670887476112,-697.372649151205,75.0000000000002));
#1568=CARTESIAN_POINT('',(-517.251022017376,-711.934955049954,0.));
#1569=CARTESIAN_POINT('',(-502.688716118627,-722.515089591218,0.));
#1570=CARTESIAN_POINT('',(-399.511639770801,-784.085741285764,-2514.09733304872));
#1571=CARTESIAN_POINT('',(-399.511639770801,-784.085741285764,75.));
#1572=CARTESIAN_POINT('',(-391.339810775489,-768.047623850373,75.0000000000002));
#1573=CARTESIAN_POINT('',(-399.511639770801,-784.085741285764,0.));
#1574=CARTESIAN_POINT('',(-383.47352233541,-792.257570281076,0.));
#1575=CARTESIAN_POINT('',(-271.934955049953,-836.929734339735,-2514.09733304872));
#1576=CARTESIAN_POINT('',(-271.934955049953,-836.929734339735,75.));
#1577=CARTESIAN_POINT('',(-266.372649151204,-819.810717046422,75.0000000000002));
#1578=CARTESIAN_POINT('',(-271.934955049953,-836.929734339735,0.));
#1579=CARTESIAN_POINT('',(-254.815937756641,-842.492040238484,0.));
#1580=CARTESIAN_POINT('',(-137.662329235403,-869.165739723721,-2514.09733304872));
#1581=CARTESIAN_POINT('',(-137.662329235403,-869.165739723721,75.));
#1582=CARTESIAN_POINT('',(-134.846508864679,-851.387349593009,75.0000000000002));
#1583=CARTESIAN_POINT('',(-137.662329235403,-869.165739723721,0.));
#1584=CARTESIAN_POINT('',(-119.88393910469,-871.981560094445,0.));
#1585=CARTESIAN_POINT('',(-1.07768918324967E-13,-880.,-2514.09733304872));
#1586=CARTESIAN_POINT('',(-1.07768918324967E-13,-880.,75.));
#1587=CARTESIAN_POINT('',(-1.05564554086502E-13,-862.,75.0000000000002));
#1588=CARTESIAN_POINT('',(-1.07768918324967E-13,-880.,0.));
#1589=CARTESIAN_POINT('',(17.9999999999999,-880.,0.));
#1590=CARTESIAN_POINT('',(137.662329235403,-869.165739723721,-2514.09733304872));
#1591=CARTESIAN_POINT('',(137.662329235403,-869.165739723721,75.));
#1592=CARTESIAN_POINT('',(134.846508864679,-851.387349593009,75.0000000000002));
#1593=CARTESIAN_POINT('',(137.662329235403,-869.165739723721,0.));
#1594=CARTESIAN_POINT('',(155.440719366116,-866.349919352997,0.));
#1595=CARTESIAN_POINT('',(271.934955049954,-836.929734339735,-2514.09733304872));
#1596=CARTESIAN_POINT('',(271.934955049954,-836.929734339735,75.));
#1597=CARTESIAN_POINT('',(266.372649151205,-819.810717046422,75.0000000000002));
#1598=CARTESIAN_POINT('',(271.934955049954,-836.929734339735,0.));
#1599=CARTESIAN_POINT('',(289.053972343266,-831.367428440986,0.));
#1600=CARTESIAN_POINT('',(399.511639770801,-784.085741285764,-2514.09733304872));
#1601=CARTESIAN_POINT('',(399.511639770801,-784.085741285764,75.));
#1602=CARTESIAN_POINT('',(391.339810775489,-768.047623850373,75.0000000000002));
#1603=CARTESIAN_POINT('',(399.511639770801,-784.085741285764,0.));
#1604=CARTESIAN_POINT('',(415.549757206192,-775.913912290452,0.));
#1605=CARTESIAN_POINT('',(517.251022017376,-711.934955049954,-2514.09733304872));
#1606=CARTESIAN_POINT('',(517.251022017376,-711.934955049954,75.));
#1607=CARTESIAN_POINT('',(506.670887476112,-697.372649151205,75.0000000000002));
#1608=CARTESIAN_POINT('',(517.251022017376,-711.934955049954,0.));
#1609=CARTESIAN_POINT('',(531.813327916125,-701.354820508689,0.));
#1610=CARTESIAN_POINT('',(622.253967444162,-622.253967444162,-2514.09733304872));
#1611=CARTESIAN_POINT('',(622.253967444162,-622.253967444162,75.));
#1612=CARTESIAN_POINT('',(609.526045382804,-609.526045382804,75.0000000000002));
#1613=CARTESIAN_POINT('',(622.253967444162,-622.253967444162,0.));
#1614=CARTESIAN_POINT('',(634.98188950552,-609.526045382804,0.));
#1615=CARTESIAN_POINT('',(711.934955049954,-517.251022017376,-2514.09733304872));
#1616=CARTESIAN_POINT('',(711.934955049954,-517.251022017376,75.));
#1617=CARTESIAN_POINT('',(697.372649151205,-506.670887476112,75.0000000000002));
#1618=CARTESIAN_POINT('',(711.934955049954,-517.251022017376,0.));
#1619=CARTESIAN_POINT('',(722.515089591218,-502.688716118627,0.));
#1620=CARTESIAN_POINT('',(784.085741285764,-399.511639770801,-2514.09733304872));
#1621=CARTESIAN_POINT('',(784.085741285764,-399.511639770801,75.));
#1622=CARTESIAN_POINT('',(768.047623850373,-391.339810775489,75.0000000000002));
#1623=CARTESIAN_POINT('',(784.085741285764,-399.511639770801,0.));
#1624=CARTESIAN_POINT('',(792.257570281076,-383.473522335411,0.));
#1625=CARTESIAN_POINT('',(836.929734339735,-271.934955049954,-2514.09733304872));
#1626=CARTESIAN_POINT('',(836.929734339735,-271.934955049954,75.));
#1627=CARTESIAN_POINT('',(819.810717046422,-266.372649151205,75.0000000000002));
#1628=CARTESIAN_POINT('',(836.929734339735,-271.934955049954,0.));
#1629=CARTESIAN_POINT('',(842.492040238484,-254.815937756641,0.));
#1630=CARTESIAN_POINT('',(869.165739723721,-137.662329235403,-2514.09733304872));
#1631=CARTESIAN_POINT('',(869.165739723721,-137.662329235403,75.));
#1632=CARTESIAN_POINT('',(851.387349593009,-134.846508864679,75.0000000000002));
#1633=CARTESIAN_POINT('',(869.165739723721,-137.662329235403,0.));
#1634=CARTESIAN_POINT('',(871.981560094445,-119.883939104691,0.));
#1635=CARTESIAN_POINT('',(880.,-1.61653377487451E-13,-2514.09733304872));
#1636=CARTESIAN_POINT('',(880.,-1.61653377487451E-13,75.));
#1637=CARTESIAN_POINT('',(862.,-1.58346831129753E-13,75.0000000000002));
#1638=CARTESIAN_POINT('',(880.,-1.61653377487451E-13,0.));
#1639=CARTESIAN_POINT('',(880.,17.9999999999998,0.));
#1640=CARTESIAN_POINT('',(869.165739723721,137.662329235403,-2514.09733304872));
#1641=CARTESIAN_POINT('',(869.165739723721,137.662329235403,75.));
#1642=CARTESIAN_POINT('',(851.387349593009,134.846508864679,75.0000000000002));
#1643=CARTESIAN_POINT('',(869.165739723721,137.662329235403,0.));
#1644=CARTESIAN_POINT('',(866.349919352997,155.440719366115,0.));
#1645=CARTESIAN_POINT('',(836.929734339735,271.934955049954,-2514.09733304872));
#1646=CARTESIAN_POINT('',(836.929734339735,271.934955049954,75.));
#1647=CARTESIAN_POINT('',(819.810717046422,266.372649151204,75.0000000000002));
#1648=CARTESIAN_POINT('',(836.929734339735,271.934955049954,0.));
#1649=CARTESIAN_POINT('',(831.367428440986,289.053972343266,0.));
#1650=CARTESIAN_POINT('',(784.085741285764,399.511639770801,-2514.09733304872));
#1651=CARTESIAN_POINT('',(784.085741285764,399.511639770801,75.));
#1652=CARTESIAN_POINT('',(768.047623850373,391.339810775489,75.0000000000002));
#1653=CARTESIAN_POINT('',(784.085741285764,399.511639770801,0.));
#1654=CARTESIAN_POINT('',(775.913912290452,415.549757206192,0.));
#1655=CARTESIAN_POINT('',(711.934955049954,517.251022017376,-2514.09733304872));
#1656=CARTESIAN_POINT('',(711.934955049954,517.251022017376,75.));
#1657=CARTESIAN_POINT('',(697.372649151205,506.670887476112,75.0000000000002));
#1658=CARTESIAN_POINT('',(711.934955049954,517.251022017376,0.));
#1659=CARTESIAN_POINT('',(701.354820508689,531.813327916125,0.));
#1660=CARTESIAN_POINT('',(622.253967444162,622.253967444162,-2514.09733304872));
#1661=CARTESIAN_POINT('',(622.253967444162,622.253967444162,75.));
#1662=CARTESIAN_POINT('',(609.526045382804,609.526045382804,75.0000000000002));
#1663=CARTESIAN_POINT('',(622.253967444162,622.253967444162,0.));
#1664=CARTESIAN_POINT('',(609.526045382804,634.98188950552,0.));
#1665=CARTESIAN_POINT('',(517.251022017377,711.934955049954,-2514.09733304872));
#1666=CARTESIAN_POINT('',(517.251022017377,711.934955049954,75.));
#1667=CARTESIAN_POINT('',(506.670887476112,697.372649151205,75.0000000000002));
#1668=CARTESIAN_POINT('',(517.251022017377,711.934955049954,0.));
#1669=CARTESIAN_POINT('',(502.688716118628,722.515089591218,0.));
#1670=CARTESIAN_POINT('',(399.511639770801,784.085741285764,-2514.09733304872));
#1671=CARTESIAN_POINT('',(399.511639770801,784.085741285764,75.));
#1672=CARTESIAN_POINT('',(391.339810775489,768.047623850373,75.0000000000002));
#1673=CARTESIAN_POINT('',(399.511639770801,784.085741285764,0.));
#1674=CARTESIAN_POINT('',(383.473522335411,792.257570281076,0.));
#1675=CARTESIAN_POINT('',(271.934955049954,836.929734339735,-2514.09733304872));
#1676=CARTESIAN_POINT('',(271.934955049954,836.929734339735,75.));
#1677=CARTESIAN_POINT('',(266.372649151205,819.810717046422,75.0000000000002));
#1678=CARTESIAN_POINT('',(271.934955049954,836.929734339735,0.));
#1679=CARTESIAN_POINT('',(254.815937756641,842.492040238484,0.));
#1680=CARTESIAN_POINT('',(137.662329235403,869.165739723721,-2514.09733304872));
#1681=CARTESIAN_POINT('',(137.662329235403,869.165739723721,75.));
#1682=CARTESIAN_POINT('',(134.846508864679,851.387349593009,75.0000000000002));
#1683=CARTESIAN_POINT('',(137.662329235403,869.165739723721,0.));
#1684=CARTESIAN_POINT('',(119.883939104691,871.981560094445,0.));
#1685=CARTESIAN_POINT('',(0.,0.,75.));
#1686=CARTESIAN_POINT('',(0.,0.,79.9999999999999));
#1687=CARTESIAN_POINT('',(-815.,0.,79.9999999999999));
#1688=CARTESIAN_POINT('',(0.,0.,0.));
#1689=CARTESIAN_POINT('',(815.,0.,0.));
#1690=CARTESIAN_POINT('',(0.,0.,75.));
#1691=CARTESIAN_POINT('',(0.,0.,75.));
#1692=CARTESIAN_POINT('',(915.,0.,75.));
#1693=CARTESIAN_POINT('',(0.,0.,0.));
#1694=CARTESIAN_POINT('',(915.,0.,0.));
#1695=CARTESIAN_POINT('',(0.,0.,75.));
#1696=CARTESIAN_POINT('',(0.,0.,75.));
#1697=CARTESIAN_POINT('',(0.,0.,75.));
#1698=CARTESIAN_POINT('',(0.,0.,75.));
#1699=CARTESIAN_POINT('',(0.,0.,75.));
#1700=CARTESIAN_POINT('',(0.,0.,75.));
#1701=CARTESIAN_POINT('',(0.,0.,75.));
#1702=CARTESIAN_POINT('',(0.,0.,75.));
#1703=CARTESIAN_POINT('',(0.,0.,75.));
#1704=CARTESIAN_POINT('',(0.,0.,75.));
#1705=CARTESIAN_POINT('',(0.,0.,75.));
#1706=CARTESIAN_POINT('',(0.,862.,75.0000000000002));
#1707=CARTESIAN_POINT('',(0.,880.,75.));
#1708=CARTESIAN_POINT('',(0.,0.,75.));
#1709=CARTESIAN_POINT('',(0.,0.,75.));
#1710=CARTESIAN_POINT('',(0.,0.,75.));
#1711=CARTESIAN_POINT('',(0.,0.,75.));
#1712=CARTESIAN_POINT('',(0.,0.,75.));
#1713=CARTESIAN_POINT('',(0.,0.,75.));
#1714=CARTESIAN_POINT('',(0.,0.,75.));
#1715=CARTESIAN_POINT('',(0.,0.,75.));
#1716=CARTESIAN_POINT('',(0.,0.,75.));
#1717=CARTESIAN_POINT('',(0.,0.,75.));
#1718=CARTESIAN_POINT('',(0.,0.,75.));
#1719=CARTESIAN_POINT('',(0.,0.,75.));
#1720=CARTESIAN_POINT('',(0.,0.,75.));
#1721=CARTESIAN_POINT('',(0.,0.,75.));
#1722=CARTESIAN_POINT('',(0.,0.,75.));
#1723=CARTESIAN_POINT('',(0.,0.,75.));
#1724=CARTESIAN_POINT('',(0.,0.,75.));
#1725=CARTESIAN_POINT('',(0.,0.,75.));
#1726=CARTESIAN_POINT('',(0.,0.,75.));
#1727=CARTESIAN_POINT('',(0.,0.,75.));
#1728=CARTESIAN_POINT('',(0.,0.,75.));
#1729=CARTESIAN_POINT('',(0.,0.,75.));
#1730=CARTESIAN_POINT('',(0.,0.,75.));
#1731=CARTESIAN_POINT('',(0.,0.,75.));
#1732=CARTESIAN_POINT('',(0.,0.,75.));
#1733=CARTESIAN_POINT('',(0.,0.,75.));
#1734=CARTESIAN_POINT('',(0.,0.,75.));
#1735=CARTESIAN_POINT('',(0.,0.,75.));
#1736=CARTESIAN_POINT('',(0.,0.,75.));
#1737=CARTESIAN_POINT('',(0.,0.,75.));
#1738=CARTESIAN_POINT('',(0.,0.,0.));
#1739=CARTESIAN_POINT('',(0.,880.,0.));
#1740=CARTESIAN_POINT('',(-18.,880.,0.));
#1741=CARTESIAN_POINT('',(0.,880.,-2514.09733304872));
#1742=CARTESIAN_POINT('',(-815.,0.,80.));
#1743=CARTESIAN_POINT('',(0.,0.,80.));
#1744=CARTESIAN_POINT('',(-855.,0.,80.));
#1745=CARTESIAN_POINT('',(0.,0.,80.));
#1746=MECHANICAL_DESIGN_GEOMETRIC_PRESENTATION_REPRESENTATION('',(#962),
#1747);
#1747=(
GEOMETRIC_REPRESENTATION_CONTEXT(3)
GLOBAL_UNCERTAINTY_ASSIGNED_CONTEXT((#1748))
GLOBAL_UNIT_ASSIGNED_CONTEXT((#1751,#1750,#1749))
REPRESENTATION_CONTEXT('\X2\7A819762FF08\X0\RF\X2\FF09677F5F0F5E73710A94A252367BA16CD55170\X0\',
'TOP_LEVEL_ASSEMBLY_PART')
);
#1748=UNCERTAINTY_MEASURE_WITH_UNIT(LENGTH_MEASURE(0.005),#1751,
'DISTANCE_ACCURACY_VALUE','Maximum Tolerance applied to model');
#1749=(
NAMED_UNIT(*)
SI_UNIT($,.STERADIAN.)
SOLID_ANGLE_UNIT()
);
#1750=(
NAMED_UNIT(*)
PLANE_ANGLE_UNIT()
SI_UNIT($,.RADIAN.)
);
#1751=(
LENGTH_UNIT()
NAMED_UNIT(*)
SI_UNIT(.MILLI.,.METRE.)
);
#1752=PRODUCT_DEFINITION_SHAPE('','',#1753);
#1753=PRODUCT_DEFINITION('','',#1755,#1754);
#1754=PRODUCT_DEFINITION_CONTEXT('',#1761,'design');
#1755=PRODUCT_DEFINITION_FORMATION_WITH_SPECIFIED_SOURCE('','',#1757,
 .NOT_KNOWN.);
#1756=PRODUCT_RELATED_PRODUCT_CATEGORY('','',(#1757));
#1757=PRODUCT('\X2\7A819762FF08\X0\RF\X2\FF09677F5F0F5E73710A94A252367BA16CD55170\X0\',
'\X2\7A819762FF08\X0\RF\X2\FF09677F5F0F5E73710A94A252367BA16CD55170\X0\',
'\X2\7A819762FF08\X0\RF\X2\FF09677F5F0F5E73710A94A252367BA16CD55170\X0\',
(#1759));
#1758=PRODUCT_CATEGORY('','');
#1759=PRODUCT_CONTEXT('',#1761,'mechanical');
#1760=APPLICATION_PROTOCOL_DEFINITION('international standard',
'automotive_design',2010,#1761);
#1761=APPLICATION_CONTEXT(
'core data for automotive mechanical design processes');
ENDSEC;
END-ISO-10303-21;
