ISO-10303-21;
HEADER;
/* Generated by software containing HOOPS Exchange Step
 * from HOOPS Exchange, Inc. (www.tiangong.cloud) 
 */

FILE_DESCRIPTION(
/* description */ ('Unknown'),
/* implementation_level */ '2;1');

FILE_NAME(
/* name */ 'A\X2\5E739762\X0\',
/* time_stamp */ '2025-10-14T19:59:00+08:00',
/* author */ ('Unknown'),
/* organization */ ('Unknown'),
/* preprocessor_version */ 'ST-DEVELOPER v19.4',
/* originating_system */ 'TianGong',
/* authorisation */ 'Unknown');

FILE_SCHEMA (('AUTOMOTIVE_DESIGN {1 0 10303 214 3 1 1}'));
ENDSEC;

DATA;
#10=PROPERTY_DEFINITION_REPRESENTATION(#14,#12);
#11=PROPERTY_DEFINITION_REPRESENTATION(#15,#13);
#12=REPRESENTATION('',(#16),#337);
#13=REPRESENTATION('',(#17),#337);
#14=PROPERTY_DEFINITION('pmi validation property','',#342);
#15=PROPERTY_DEFINITION('pmi validation property','',#342);
#16=VALUE_REPRESENTATION_ITEM('number of annotations',COUNT_MEASURE(0.));
#17=VALUE_REPRESENTATION_ITEM('number of views',COUNT_MEASURE(0.));
#18=SHAPE_REPRESENTATION_RELATIONSHIP('','',#196,#19);
#19=ADVANCED_BREP_SHAPE_REPRESENTATION('',(#194),#337);
#20=TOROIDAL_SURFACE('',#227,40.,3.);
#21=CYLINDRICAL_SURFACE('',#201,37.);
#22=CYLINDRICAL_SURFACE('',#213,70.);
#23=CYLINDRICAL_SURFACE('',#216,5.5);
#24=CYLINDRICAL_SURFACE('',#219,5.5);
#25=CYLINDRICAL_SURFACE('',#222,7.);
#26=CYLINDRICAL_SURFACE('',#223,5.5);
#27=CYLINDRICAL_SURFACE('',#226,5.);
#28=ORIENTED_EDGE('',*,*,#58,.T.);
#29=ORIENTED_EDGE('',*,*,#59,.F.);
#30=ORIENTED_EDGE('',*,*,#60,.T.);
#31=ORIENTED_EDGE('',*,*,#61,.T.);
#32=ORIENTED_EDGE('',*,*,#62,.T.);
#33=ORIENTED_EDGE('',*,*,#61,.F.);
#34=ORIENTED_EDGE('',*,*,#63,.F.);
#35=ORIENTED_EDGE('',*,*,#64,.F.);
#36=ORIENTED_EDGE('',*,*,#65,.F.);
#37=ORIENTED_EDGE('',*,*,#66,.F.);
#38=ORIENTED_EDGE('',*,*,#67,.F.);
#39=ORIENTED_EDGE('',*,*,#68,.T.);
#40=ORIENTED_EDGE('',*,*,#59,.T.);
#41=ORIENTED_EDGE('',*,*,#68,.F.);
#42=ORIENTED_EDGE('',*,*,#69,.T.);
#43=ORIENTED_EDGE('',*,*,#67,.T.);
#44=ORIENTED_EDGE('',*,*,#69,.F.);
#45=ORIENTED_EDGE('',*,*,#70,.T.);
#46=ORIENTED_EDGE('',*,*,#66,.T.);
#47=ORIENTED_EDGE('',*,*,#70,.F.);
#48=ORIENTED_EDGE('',*,*,#71,.T.);
#49=ORIENTED_EDGE('',*,*,#65,.T.);
#50=ORIENTED_EDGE('',*,*,#71,.F.);
#51=ORIENTED_EDGE('',*,*,#64,.T.);
#52=ORIENTED_EDGE('',*,*,#72,.F.);
#53=ORIENTED_EDGE('',*,*,#72,.T.);
#54=ORIENTED_EDGE('',*,*,#63,.T.);
#55=ORIENTED_EDGE('',*,*,#62,.F.);
#56=ORIENTED_EDGE('',*,*,#60,.F.);
#57=ORIENTED_EDGE('',*,*,#58,.F.);
#58=EDGE_CURVE('',#73,#73,#88,.F.);
#59=EDGE_CURVE('',#74,#74,#89,.T.);
#60=EDGE_CURVE('',#75,#75,#90,.T.);
#61=EDGE_CURVE('',#76,#76,#91,.T.);
#62=EDGE_CURVE('',#77,#77,#92,.T.);
#63=EDGE_CURVE('',#78,#78,#93,.T.);
#64=EDGE_CURVE('',#79,#79,#94,.T.);
#65=EDGE_CURVE('',#80,#80,#95,.T.);
#66=EDGE_CURVE('',#81,#81,#96,.T.);
#67=EDGE_CURVE('',#82,#82,#97,.T.);
#68=EDGE_CURVE('',#83,#83,#98,.T.);
#69=EDGE_CURVE('',#84,#84,#99,.T.);
#70=EDGE_CURVE('',#85,#85,#100,.T.);
#71=EDGE_CURVE('',#86,#86,#101,.T.);
#72=EDGE_CURVE('',#87,#87,#102,.T.);
#73=VERTEX_POINT('',#293);
#74=VERTEX_POINT('',#295);
#75=VERTEX_POINT('',#298);
#76=VERTEX_POINT('',#300);
#77=VERTEX_POINT('',#303);
#78=VERTEX_POINT('',#306);
#79=VERTEX_POINT('',#308);
#80=VERTEX_POINT('',#310);
#81=VERTEX_POINT('',#312);
#82=VERTEX_POINT('',#314);
#83=VERTEX_POINT('',#316);
#84=VERTEX_POINT('',#320);
#85=VERTEX_POINT('',#324);
#86=VERTEX_POINT('',#328);
#87=VERTEX_POINT('',#332);
#88=CIRCLE('',#199,40.);
#89=CIRCLE('',#200,70.);
#90=CIRCLE('',#202,37.);
#91=CIRCLE('',#203,37.);
#92=CIRCLE('',#205,5.);
#93=CIRCLE('',#207,5.);
#94=CIRCLE('',#208,5.5);
#95=CIRCLE('',#209,7.);
#96=CIRCLE('',#210,5.5);
#97=CIRCLE('',#211,5.5);
#98=CIRCLE('',#212,70.);
#99=CIRCLE('',#215,5.5);
#100=CIRCLE('',#218,5.5);
#101=CIRCLE('',#221,7.);
#102=CIRCLE('',#224,5.5);
#103=EDGE_LOOP('',(#28));
#104=EDGE_LOOP('',(#29));
#105=EDGE_LOOP('',(#30));
#106=EDGE_LOOP('',(#31));
#107=EDGE_LOOP('',(#32));
#108=EDGE_LOOP('',(#33));
#109=EDGE_LOOP('',(#34));
#110=EDGE_LOOP('',(#35));
#111=EDGE_LOOP('',(#36));
#112=EDGE_LOOP('',(#37));
#113=EDGE_LOOP('',(#38));
#114=EDGE_LOOP('',(#39));
#115=EDGE_LOOP('',(#40));
#116=EDGE_LOOP('',(#41));
#117=EDGE_LOOP('',(#42));
#118=EDGE_LOOP('',(#43));
#119=EDGE_LOOP('',(#44));
#120=EDGE_LOOP('',(#45));
#121=EDGE_LOOP('',(#46));
#122=EDGE_LOOP('',(#47));
#123=EDGE_LOOP('',(#48));
#124=EDGE_LOOP('',(#49));
#125=EDGE_LOOP('',(#50));
#126=EDGE_LOOP('',(#51));
#127=EDGE_LOOP('',(#52));
#128=EDGE_LOOP('',(#53));
#129=EDGE_LOOP('',(#54));
#130=EDGE_LOOP('',(#55));
#131=EDGE_LOOP('',(#56));
#132=EDGE_LOOP('',(#57));
#133=FACE_BOUND('',#103,.T.);
#134=FACE_BOUND('',#104,.T.);
#135=FACE_BOUND('',#105,.T.);
#136=FACE_BOUND('',#106,.T.);
#137=FACE_BOUND('',#107,.T.);
#138=FACE_BOUND('',#108,.T.);
#139=FACE_BOUND('',#109,.T.);
#140=FACE_BOUND('',#110,.T.);
#141=FACE_BOUND('',#111,.T.);
#142=FACE_BOUND('',#112,.T.);
#143=FACE_BOUND('',#113,.T.);
#144=FACE_BOUND('',#114,.T.);
#145=FACE_BOUND('',#115,.T.);
#146=FACE_BOUND('',#116,.T.);
#147=FACE_BOUND('',#117,.T.);
#148=FACE_BOUND('',#118,.T.);
#149=FACE_BOUND('',#119,.T.);
#150=FACE_BOUND('',#120,.T.);
#151=FACE_BOUND('',#121,.T.);
#152=FACE_BOUND('',#122,.T.);
#153=FACE_BOUND('',#123,.T.);
#154=FACE_BOUND('',#124,.T.);
#155=FACE_BOUND('',#125,.T.);
#156=FACE_BOUND('',#126,.T.);
#157=FACE_BOUND('',#127,.T.);
#158=FACE_BOUND('',#128,.T.);
#159=FACE_BOUND('',#129,.T.);
#160=FACE_BOUND('',#130,.T.);
#161=FACE_BOUND('',#131,.T.);
#162=FACE_BOUND('',#132,.T.);
#163=PLANE('',#198);
#164=PLANE('',#204);
#165=PLANE('',#206);
#166=PLANE('',#214);
#167=PLANE('',#217);
#168=PLANE('',#220);
#169=PLANE('',#225);
#170=ADVANCED_FACE('',(#133,#134),#163,.T.);
#171=ADVANCED_FACE('',(#135,#136),#21,.T.);
#172=ADVANCED_FACE('',(#137,#138),#164,.T.);
#173=ADVANCED_FACE('',(#139,#140,#141,#142,#143,#144),#165,.T.);
#174=ADVANCED_FACE('',(#145,#146),#22,.T.);
#175=ADVANCED_FACE('',(#147),#166,.T.);
#176=ADVANCED_FACE('',(#148,#149),#23,.F.);
#177=ADVANCED_FACE('',(#150),#167,.T.);
#178=ADVANCED_FACE('',(#151,#152),#24,.F.);
#179=ADVANCED_FACE('',(#153),#168,.T.);
#180=ADVANCED_FACE('',(#154,#155),#25,.F.);
#181=ADVANCED_FACE('',(#156,#157),#26,.F.);
#182=ADVANCED_FACE('',(#158),#169,.T.);
#183=ADVANCED_FACE('',(#159,#160),#27,.F.);
#184=ADVANCED_FACE('',(#161,#162),#20,.F.);
#185=CLOSED_SHELL('',(#170,#171,#172,#173,#174,#175,#176,#177,#178,#179,
#180,#181,#182,#183,#184));
#186=STYLED_ITEM('',(#187),#194);
#187=PRESENTATION_STYLE_ASSIGNMENT((#188));
#188=SURFACE_STYLE_USAGE(.BOTH.,#189);
#189=SURFACE_SIDE_STYLE('',(#190));
#190=SURFACE_STYLE_FILL_AREA(#191);
#191=FILL_AREA_STYLE('',(#192));
#192=FILL_AREA_STYLE_COLOUR('',#193);
#193=COLOUR_RGB('',0.506983280181885,0.531564235687256,0.550000011920929);
#194=MANIFOLD_SOLID_BREP('',#185);
#195=SHAPE_DEFINITION_REPRESENTATION(#342,#196);
#196=SHAPE_REPRESENTATION('A\X2\5E739762\X0\',(#197),#337);
#197=AXIS2_PLACEMENT_3D('',#290,#228,#229);
#198=AXIS2_PLACEMENT_3D('',#291,#230,#231);
#199=AXIS2_PLACEMENT_3D('',#292,#232,#233);
#200=AXIS2_PLACEMENT_3D('',#294,#234,#235);
#201=AXIS2_PLACEMENT_3D('',#296,#236,#237);
#202=AXIS2_PLACEMENT_3D('',#297,#238,#239);
#203=AXIS2_PLACEMENT_3D('',#299,#240,#241);
#204=AXIS2_PLACEMENT_3D('',#301,#242,#243);
#205=AXIS2_PLACEMENT_3D('',#302,#244,#245);
#206=AXIS2_PLACEMENT_3D('',#304,#246,#247);
#207=AXIS2_PLACEMENT_3D('',#305,#248,#249);
#208=AXIS2_PLACEMENT_3D('',#307,#250,#251);
#209=AXIS2_PLACEMENT_3D('',#309,#252,#253);
#210=AXIS2_PLACEMENT_3D('',#311,#254,#255);
#211=AXIS2_PLACEMENT_3D('',#313,#256,#257);
#212=AXIS2_PLACEMENT_3D('',#315,#258,#259);
#213=AXIS2_PLACEMENT_3D('',#317,#260,#261);
#214=AXIS2_PLACEMENT_3D('',#318,#262,#263);
#215=AXIS2_PLACEMENT_3D('',#319,#264,#265);
#216=AXIS2_PLACEMENT_3D('',#321,#266,#267);
#217=AXIS2_PLACEMENT_3D('',#322,#268,#269);
#218=AXIS2_PLACEMENT_3D('',#323,#270,#271);
#219=AXIS2_PLACEMENT_3D('',#325,#272,#273);
#220=AXIS2_PLACEMENT_3D('',#326,#274,#275);
#221=AXIS2_PLACEMENT_3D('',#327,#276,#277);
#222=AXIS2_PLACEMENT_3D('',#329,#278,#279);
#223=AXIS2_PLACEMENT_3D('',#330,#280,#281);
#224=AXIS2_PLACEMENT_3D('',#331,#282,#283);
#225=AXIS2_PLACEMENT_3D('',#333,#284,#285);
#226=AXIS2_PLACEMENT_3D('',#334,#286,#287);
#227=AXIS2_PLACEMENT_3D('',#335,#288,#289);
#228=DIRECTION('',(0.,0.,1.));
#229=DIRECTION('',(1.,0.,0.));
#230=DIRECTION('',(0.,0.,1.));
#231=DIRECTION('',(1.,0.,0.));
#232=DIRECTION('',(0.,0.,1.));
#233=DIRECTION('',(1.,0.,0.));
#234=DIRECTION('',(0.,0.,-1.));
#235=DIRECTION('',(-1.,0.,0.));
#236=DIRECTION('',(0.,0.,-1.));
#237=DIRECTION('',(-1.,0.,0.));
#238=DIRECTION('',(0.,0.,1.));
#239=DIRECTION('',(1.,0.,0.));
#240=DIRECTION('',(0.,0.,-1.));
#241=DIRECTION('',(-1.,0.,0.));
#242=DIRECTION('',(0.,0.,1.));
#243=DIRECTION('',(1.,0.,0.));
#244=DIRECTION('',(0.,0.,-1.));
#245=DIRECTION('',(1.,0.,0.));
#246=DIRECTION('',(0.,0.,-1.));
#247=DIRECTION('',(-1.,0.,0.));
#248=DIRECTION('',(0.,0.,-1.));
#249=DIRECTION('',(1.,0.,0.));
#250=DIRECTION('',(0.,0.,-1.));
#251=DIRECTION('',(1.,0.,0.));
#252=DIRECTION('',(0.,0.,-1.));
#253=DIRECTION('',(1.,0.,0.));
#254=DIRECTION('',(0.,0.,-1.));
#255=DIRECTION('',(1.,0.,0.));
#256=DIRECTION('',(0.,0.,-1.));
#257=DIRECTION('',(1.,0.,0.));
#258=DIRECTION('',(0.,0.,-1.));
#259=DIRECTION('',(-1.,0.,0.));
#260=DIRECTION('',(0.,0.,-1.));
#261=DIRECTION('',(-1.,0.,0.));
#262=DIRECTION('',(0.,0.,-1.));
#263=DIRECTION('',(-1.,0.,0.));
#264=DIRECTION('',(0.,0.,-1.));
#265=DIRECTION('',(1.,0.,0.));
#266=DIRECTION('',(0.,0.,1.));
#267=DIRECTION('',(1.,0.,0.));
#268=DIRECTION('',(0.,0.,-1.));
#269=DIRECTION('',(-1.,0.,0.));
#270=DIRECTION('',(0.,0.,-1.));
#271=DIRECTION('',(1.,0.,0.));
#272=DIRECTION('',(0.,0.,1.));
#273=DIRECTION('',(1.,0.,0.));
#274=DIRECTION('',(0.,0.,-1.));
#275=DIRECTION('',(-1.,0.,0.));
#276=DIRECTION('',(0.,0.,-1.));
#277=DIRECTION('',(1.,0.,0.));
#278=DIRECTION('',(0.,0.,1.));
#279=DIRECTION('',(1.,0.,0.));
#280=DIRECTION('',(0.,0.,1.));
#281=DIRECTION('',(1.,0.,0.));
#282=DIRECTION('',(0.,0.,-1.));
#283=DIRECTION('',(1.,0.,0.));
#284=DIRECTION('',(0.,0.,-1.));
#285=DIRECTION('',(-1.,0.,0.));
#286=DIRECTION('',(0.,0.,1.));
#287=DIRECTION('',(1.,0.,0.));
#288=DIRECTION('',(0.,0.,1.));
#289=DIRECTION('',(1.,0.,0.));
#290=CARTESIAN_POINT('',(0.,0.,0.));
#291=CARTESIAN_POINT('',(-70.,0.,16.));
#292=CARTESIAN_POINT('',(0.,0.,16.));
#293=CARTESIAN_POINT('',(40.,0.,16.));
#294=CARTESIAN_POINT('',(0.,0.,16.));
#295=CARTESIAN_POINT('',(-70.,0.,16.));
#296=CARTESIAN_POINT('',(0.,0.,-54.));
#297=CARTESIAN_POINT('',(0.,0.,19.));
#298=CARTESIAN_POINT('',(37.,0.,19.));
#299=CARTESIAN_POINT('',(0.,0.,50.));
#300=CARTESIAN_POINT('',(-37.,0.,50.));
#301=CARTESIAN_POINT('',(-37.,0.,50.));
#302=CARTESIAN_POINT('',(0.,0.,50.));
#303=CARTESIAN_POINT('',(5.,0.,50.));
#304=CARTESIAN_POINT('',(0.,0.,-4.28626379701574E-15));
#305=CARTESIAN_POINT('',(0.,0.,-6.93889390390723E-15));
#306=CARTESIAN_POINT('',(5.,0.,-6.93889390390723E-15));
#307=CARTESIAN_POINT('',(-25.,0.,-6.93889390390723E-15));
#308=CARTESIAN_POINT('',(-19.5,0.,-6.93889390390723E-15));
#309=CARTESIAN_POINT('',(0.,25.,-6.93889390390723E-15));
#310=CARTESIAN_POINT('',(7.,25.,-6.93889390390723E-15));
#311=CARTESIAN_POINT('',(0.,-25.,-6.93889390390723E-15));
#312=CARTESIAN_POINT('',(5.5,-25.,-6.93889390390723E-15));
#313=CARTESIAN_POINT('',(25.,0.,-6.93889390390723E-15));
#314=CARTESIAN_POINT('',(30.5,0.,-6.93889390390723E-15));
#315=CARTESIAN_POINT('',(0.,0.,-6.93889390390723E-15));
#316=CARTESIAN_POINT('',(-70.,0.,-6.93889390390723E-15));
#317=CARTESIAN_POINT('',(0.,0.,-54.));
#318=CARTESIAN_POINT('',(25.,0.,16.));
#319=CARTESIAN_POINT('',(25.,0.,16.));
#320=CARTESIAN_POINT('',(30.5,0.,16.));
#321=CARTESIAN_POINT('',(25.,0.,-6.93889390390723E-15));
#322=CARTESIAN_POINT('',(0.,-25.,16.));
#323=CARTESIAN_POINT('',(0.,-25.,16.));
#324=CARTESIAN_POINT('',(5.5,-25.,16.));
#325=CARTESIAN_POINT('',(0.,-25.,-6.93889390390723E-15));
#326=CARTESIAN_POINT('',(0.,25.,16.));
#327=CARTESIAN_POINT('',(0.,25.,16.));
#328=CARTESIAN_POINT('',(7.,25.,16.));
#329=CARTESIAN_POINT('',(0.,25.,-6.93889390390723E-15));
#330=CARTESIAN_POINT('',(-25.,0.,-6.93889390390723E-15));
#331=CARTESIAN_POINT('',(-25.,0.,16.));
#332=CARTESIAN_POINT('',(-19.5,0.,16.));
#333=CARTESIAN_POINT('',(-25.,0.,16.));
#334=CARTESIAN_POINT('',(0.,0.,-6.93889390390723E-15));
#335=CARTESIAN_POINT('',(0.,0.,19.));
#336=MECHANICAL_DESIGN_GEOMETRIC_PRESENTATION_REPRESENTATION('',(#186),
#337);
#337=(
GEOMETRIC_REPRESENTATION_CONTEXT(3)
GLOBAL_UNCERTAINTY_ASSIGNED_CONTEXT((#338))
GLOBAL_UNIT_ASSIGNED_CONTEXT((#341,#340,#339))
REPRESENTATION_CONTEXT('A\X2\5E739762\X0\','TOP_LEVEL_ASSEMBLY_PART')
);
#338=UNCERTAINTY_MEASURE_WITH_UNIT(LENGTH_MEASURE(0.005),#341,
'DISTANCE_ACCURACY_VALUE','Maximum Tolerance applied to model');
#339=(
NAMED_UNIT(*)
SI_UNIT($,.STERADIAN.)
SOLID_ANGLE_UNIT()
);
#340=(
NAMED_UNIT(*)
PLANE_ANGLE_UNIT()
SI_UNIT($,.RADIAN.)
);
#341=(
LENGTH_UNIT()
NAMED_UNIT(*)
SI_UNIT(.MILLI.,.METRE.)
);
#342=PRODUCT_DEFINITION_SHAPE('','',#343);
#343=PRODUCT_DEFINITION('','',#345,#344);
#344=PRODUCT_DEFINITION_CONTEXT('',#351,'design');
#345=PRODUCT_DEFINITION_FORMATION_WITH_SPECIFIED_SOURCE('','',#347,
 .NOT_KNOWN.);
#346=PRODUCT_RELATED_PRODUCT_CATEGORY('','',(#347));
#347=PRODUCT('A\X2\5E739762\X0\','A\X2\5E739762\X0\','A\X2\5E739762\X0\',
(#349));
#348=PRODUCT_CATEGORY('','');
#349=PRODUCT_CONTEXT('',#351,'mechanical');
#350=APPLICATION_PROTOCOL_DEFINITION('international standard',
'automotive_design',2010,#351);
#351=APPLICATION_CONTEXT(
'core data for automotive mechanical design processes');
ENDSEC;
END-ISO-10303-21;
