ISO-10303-21;
HEADER;
/* Generated by software containing HOOPS Exchange Step
 * from HOOPS Exchange, Inc. (www.tiangong.cloud) 
 */

FILE_DESCRIPTION(
/* description */ ('Unknown'),
/* implementation_level */ '2;1');

FILE_NAME(
/* name */ 'M\X2\FF0851F89762FF09\X0\',
/* time_stamp */ '2025-10-14T19:58:50+08:00',
/* author */ ('Unknown'),
/* organization */ ('Unknown'),
/* preprocessor_version */ 'ST-DEVELOPER v19.4',
/* originating_system */ 'TianGong',
/* authorisation */ 'Unknown');

FILE_SCHEMA (('AUTOMOTIVE_DESIGN {1 0 10303 214 3 1 1}'));
ENDSEC;

DATA;
#10=PROPERTY_DEFINITION_REPRESENTATION(#14,#12);
#11=PROPERTY_DEFINITION_REPRESENTATION(#15,#13);
#12=REPRESENTATION('',(#16),#259);
#13=REPRESENTATION('',(#17),#259);
#14=PROPERTY_DEFINITION('pmi validation property','',#264);
#15=PROPERTY_DEFINITION('pmi validation property','',#264);
#16=VALUE_REPRESENTATION_ITEM('number of annotations',COUNT_MEASURE(0.));
#17=VALUE_REPRESENTATION_ITEM('number of views',COUNT_MEASURE(0.));
#18=SHAPE_REPRESENTATION_RELATIONSHIP('','',#157,#19);
#19=ADVANCED_BREP_SHAPE_REPRESENTATION('',(#155),#259);
#20=PLANE('',#171);
#21=PLANE('',#173);
#22=PLANE('',#178);
#23=ORIENTED_EDGE('',*,*,#47,.F.);
#24=ORIENTED_EDGE('',*,*,#48,.F.);
#25=ORIENTED_EDGE('',*,*,#49,.F.);
#26=ORIENTED_EDGE('',*,*,#50,.F.);
#27=ORIENTED_EDGE('',*,*,#51,.F.);
#28=ORIENTED_EDGE('',*,*,#52,.F.);
#29=ORIENTED_EDGE('',*,*,#53,.T.);
#30=ORIENTED_EDGE('',*,*,#54,.F.);
#31=ORIENTED_EDGE('',*,*,#47,.T.);
#32=ORIENTED_EDGE('',*,*,#49,.T.);
#33=ORIENTED_EDGE('',*,*,#51,.T.);
#34=ORIENTED_EDGE('',*,*,#55,.T.);
#35=ORIENTED_EDGE('',*,*,#53,.F.);
#36=ORIENTED_EDGE('',*,*,#48,.T.);
#37=ORIENTED_EDGE('',*,*,#50,.T.);
#38=ORIENTED_EDGE('',*,*,#52,.T.);
#39=ORIENTED_EDGE('',*,*,#56,.T.);
#40=ORIENTED_EDGE('',*,*,#57,.T.);
#41=ORIENTED_EDGE('',*,*,#54,.T.);
#42=ORIENTED_EDGE('',*,*,#58,.T.);
#43=ORIENTED_EDGE('',*,*,#57,.F.);
#44=ORIENTED_EDGE('',*,*,#58,.F.);
#45=ORIENTED_EDGE('',*,*,#55,.F.);
#46=ORIENTED_EDGE('',*,*,#56,.F.);
#47=EDGE_CURVE('',#59,#59,#71,.T.);
#48=EDGE_CURVE('',#60,#60,#72,.F.);
#49=EDGE_CURVE('',#61,#61,#73,.T.);
#50=EDGE_CURVE('',#62,#62,#74,.F.);
#51=EDGE_CURVE('',#63,#63,#75,.T.);
#52=EDGE_CURVE('',#64,#64,#76,.F.);
#53=EDGE_CURVE('',#65,#65,#77,.T.);
#54=EDGE_CURVE('',#66,#66,#78,.T.);
#55=EDGE_CURVE('',#67,#67,#79,.T.);
#56=EDGE_CURVE('',#68,#68,#80,.F.);
#57=EDGE_CURVE('',#69,#69,#81,.T.);
#58=EDGE_CURVE('',#70,#70,#82,.T.);
#59=VERTEX_POINT('',#227);
#60=VERTEX_POINT('',#229);
#61=VERTEX_POINT('',#232);
#62=VERTEX_POINT('',#234);
#63=VERTEX_POINT('',#237);
#64=VERTEX_POINT('',#239);
#65=VERTEX_POINT('',#242);
#66=VERTEX_POINT('',#244);
#67=VERTEX_POINT('',#247);
#68=VERTEX_POINT('',#250);
#69=VERTEX_POINT('',#252);
#70=VERTEX_POINT('',#255);
#71=CIRCLE('',#160,7.);
#72=CIRCLE('',#161,7.);
#73=CIRCLE('',#163,7.);
#74=CIRCLE('',#164,7.);
#75=CIRCLE('',#166,7.);
#76=CIRCLE('',#167,7.);
#77=CIRCLE('',#169,52.5);
#78=CIRCLE('',#170,52.5);
#79=CIRCLE('',#172,7.);
#80=CIRCLE('',#174,7.);
#81=CIRCLE('',#175,25.);
#82=CIRCLE('',#177,25.);
#83=EDGE_LOOP('',(#23));
#84=EDGE_LOOP('',(#24));
#85=EDGE_LOOP('',(#25));
#86=EDGE_LOOP('',(#26));
#87=EDGE_LOOP('',(#27));
#88=EDGE_LOOP('',(#28));
#89=EDGE_LOOP('',(#29));
#90=EDGE_LOOP('',(#30));
#91=EDGE_LOOP('',(#31));
#92=EDGE_LOOP('',(#32));
#93=EDGE_LOOP('',(#33));
#94=EDGE_LOOP('',(#34));
#95=EDGE_LOOP('',(#35));
#96=EDGE_LOOP('',(#36));
#97=EDGE_LOOP('',(#37));
#98=EDGE_LOOP('',(#38));
#99=EDGE_LOOP('',(#39));
#100=EDGE_LOOP('',(#40));
#101=EDGE_LOOP('',(#41));
#102=EDGE_LOOP('',(#42));
#103=EDGE_LOOP('',(#43));
#104=EDGE_LOOP('',(#44));
#105=EDGE_LOOP('',(#45));
#106=EDGE_LOOP('',(#46));
#107=FACE_BOUND('',#83,.T.);
#108=FACE_BOUND('',#84,.T.);
#109=FACE_BOUND('',#85,.T.);
#110=FACE_BOUND('',#86,.T.);
#111=FACE_BOUND('',#87,.T.);
#112=FACE_BOUND('',#88,.T.);
#113=FACE_BOUND('',#89,.T.);
#114=FACE_BOUND('',#90,.T.);
#115=FACE_BOUND('',#91,.T.);
#116=FACE_BOUND('',#92,.T.);
#117=FACE_BOUND('',#93,.T.);
#118=FACE_BOUND('',#94,.T.);
#119=FACE_BOUND('',#95,.T.);
#120=FACE_BOUND('',#96,.T.);
#121=FACE_BOUND('',#97,.T.);
#122=FACE_BOUND('',#98,.T.);
#123=FACE_BOUND('',#99,.T.);
#124=FACE_BOUND('',#100,.T.);
#125=FACE_BOUND('',#101,.T.);
#126=FACE_BOUND('',#102,.T.);
#127=FACE_BOUND('',#103,.T.);
#128=FACE_BOUND('',#104,.T.);
#129=FACE_BOUND('',#105,.T.);
#130=FACE_BOUND('',#106,.T.);
#131=CYLINDRICAL_SURFACE('',#159,7.);
#132=CYLINDRICAL_SURFACE('',#162,7.);
#133=CYLINDRICAL_SURFACE('',#165,7.);
#134=CYLINDRICAL_SURFACE('',#168,52.5);
#135=CYLINDRICAL_SURFACE('',#176,25.);
#136=CYLINDRICAL_SURFACE('',#179,7.);
#137=ADVANCED_FACE('',(#107,#108),#131,.F.);
#138=ADVANCED_FACE('',(#109,#110),#132,.F.);
#139=ADVANCED_FACE('',(#111,#112),#133,.F.);
#140=ADVANCED_FACE('',(#113,#114),#134,.T.);
#141=ADVANCED_FACE('',(#115,#116,#117,#118,#119),#20,.F.);
#142=ADVANCED_FACE('',(#120,#121,#122,#123,#124,#125),#21,.T.);
#143=ADVANCED_FACE('',(#126,#127),#135,.T.);
#144=ADVANCED_FACE('',(#128),#22,.F.);
#145=ADVANCED_FACE('',(#129,#130),#136,.F.);
#146=CLOSED_SHELL('',(#137,#138,#139,#140,#141,#142,#143,#144,#145));
#147=STYLED_ITEM('',(#148),#155);
#148=PRESENTATION_STYLE_ASSIGNMENT((#149));
#149=SURFACE_STYLE_USAGE(.BOTH.,#150);
#150=SURFACE_SIDE_STYLE('',(#151));
#151=SURFACE_STYLE_FILL_AREA(#152);
#152=FILL_AREA_STYLE('',(#153));
#153=FILL_AREA_STYLE_COLOUR('',#154);
#154=COLOUR_RGB('',0.331739127635956,0.340869575738907,0.349999994039536);
#155=MANIFOLD_SOLID_BREP('',#146);
#156=SHAPE_DEFINITION_REPRESENTATION(#264,#157);
#157=SHAPE_REPRESENTATION('M\X2\FF0851F89762FF09\X0\',(#158),#259);
#158=AXIS2_PLACEMENT_3D('',#224,#180,#181);
#159=AXIS2_PLACEMENT_3D('',#225,#182,#183);
#160=AXIS2_PLACEMENT_3D('',#226,#184,#185);
#161=AXIS2_PLACEMENT_3D('',#228,#186,#187);
#162=AXIS2_PLACEMENT_3D('',#230,#188,#189);
#163=AXIS2_PLACEMENT_3D('',#231,#190,#191);
#164=AXIS2_PLACEMENT_3D('',#233,#192,#193);
#165=AXIS2_PLACEMENT_3D('',#235,#194,#195);
#166=AXIS2_PLACEMENT_3D('',#236,#196,#197);
#167=AXIS2_PLACEMENT_3D('',#238,#198,#199);
#168=AXIS2_PLACEMENT_3D('',#240,#200,#201);
#169=AXIS2_PLACEMENT_3D('',#241,#202,#203);
#170=AXIS2_PLACEMENT_3D('',#243,#204,#205);
#171=AXIS2_PLACEMENT_3D('',#245,#206,#207);
#172=AXIS2_PLACEMENT_3D('',#246,#208,#209);
#173=AXIS2_PLACEMENT_3D('',#248,#210,#211);
#174=AXIS2_PLACEMENT_3D('',#249,#212,#213);
#175=AXIS2_PLACEMENT_3D('',#251,#214,#215);
#176=AXIS2_PLACEMENT_3D('',#253,#216,#217);
#177=AXIS2_PLACEMENT_3D('',#254,#218,#219);
#178=AXIS2_PLACEMENT_3D('',#256,#220,#221);
#179=AXIS2_PLACEMENT_3D('',#257,#222,#223);
#180=DIRECTION('',(0.,0.,1.));
#181=DIRECTION('',(1.,0.,0.));
#182=DIRECTION('',(0.,0.,1.));
#183=DIRECTION('',(-1.60812264967664E-16,1.,0.));
#184=DIRECTION('',(0.,0.,-1.));
#185=DIRECTION('',(1.,1.60812264967664E-16,0.));
#186=DIRECTION('',(0.,0.,-1.));
#187=DIRECTION('',(1.60812264967664E-16,-1.,0.));
#188=DIRECTION('',(0.,0.,1.));
#189=DIRECTION('',(-1.,1.22464679914735E-16,0.));
#190=DIRECTION('',(0.,0.,-1.));
#191=DIRECTION('',(1.22464679914735E-16,1.,0.));
#192=DIRECTION('',(0.,0.,-1.));
#193=DIRECTION('',(1.,-1.22464679914735E-16,0.));
#194=DIRECTION('',(0.,0.,1.));
#195=DIRECTION('',(-1.83697019872103E-16,-1.,0.));
#196=DIRECTION('',(0.,0.,-1.));
#197=DIRECTION('',(-1.,1.83697019872103E-16,0.));
#198=DIRECTION('',(0.,0.,-1.));
#199=DIRECTION('',(1.83697019872103E-16,1.,0.));
#200=DIRECTION('',(0.,0.,-1.));
#201=DIRECTION('',(-1.,0.,0.));
#202=DIRECTION('',(0.,0.,-1.));
#203=DIRECTION('',(1.,0.,0.));
#204=DIRECTION('',(0.,0.,-1.));
#205=DIRECTION('',(1.,0.,0.));
#206=DIRECTION('',(0.,0.,-1.));
#207=DIRECTION('',(-1.,0.,0.));
#208=DIRECTION('',(0.,0.,-1.));
#209=DIRECTION('',(0.,-1.,0.));
#210=DIRECTION('',(0.,0.,-1.));
#211=DIRECTION('',(-1.,0.,0.));
#212=DIRECTION('',(0.,0.,-1.));
#213=DIRECTION('',(-1.,0.,0.));
#214=DIRECTION('',(0.,0.,1.));
#215=DIRECTION('',(1.,0.,0.));
#216=DIRECTION('',(0.,0.,1.));
#217=DIRECTION('',(1.,0.,0.));
#218=DIRECTION('',(0.,0.,1.));
#219=DIRECTION('',(1.,0.,0.));
#220=DIRECTION('',(0.,0.,1.));
#221=DIRECTION('',(1.,0.,0.));
#222=DIRECTION('',(0.,0.,1.));
#223=DIRECTION('',(1.,0.,0.));
#224=CARTESIAN_POINT('',(0.,0.,0.));
#225=CARTESIAN_POINT('',(-37.5,-1.062288543309E-14,-136.079410347815));
#226=CARTESIAN_POINT('',(-37.5,-1.062288543309E-14,13.5));
#227=CARTESIAN_POINT('',(-30.5,-9.49719957831632E-15,13.5));
#228=CARTESIAN_POINT('',(-37.5,-1.062288543309E-14,0.));
#229=CARTESIAN_POINT('',(-37.5,-7.00000000000001,0.));
#230=CARTESIAN_POINT('',(0.,-37.5,-136.079410347815));
#231=CARTESIAN_POINT('',(0.,-37.5,13.5));
#232=CARTESIAN_POINT('',(8.57252759403147E-16,-30.5,13.5));
#233=CARTESIAN_POINT('',(0.,-37.5,0.));
#234=CARTESIAN_POINT('',(7.,-37.5,0.));
#235=CARTESIAN_POINT('',(37.5,-2.29621274840129E-15,-136.079410347815));
#236=CARTESIAN_POINT('',(37.5,-2.29621274840129E-15,13.5));
#237=CARTESIAN_POINT('',(30.5,-1.01033360929657E-15,13.5));
#238=CARTESIAN_POINT('',(37.5,-2.29621274840129E-15,0.));
#239=CARTESIAN_POINT('',(37.5,7.,0.));
#240=CARTESIAN_POINT('',(0.,0.,13.5));
#241=CARTESIAN_POINT('',(0.,0.,13.5));
#242=CARTESIAN_POINT('',(52.5,0.,13.5));
#243=CARTESIAN_POINT('',(0.,0.,0.));
#244=CARTESIAN_POINT('',(52.5,0.,0.));
#245=CARTESIAN_POINT('',(0.,0.,13.5));
#246=CARTESIAN_POINT('',(-4.59242549680257E-15,37.5,13.5));
#247=CARTESIAN_POINT('',(-4.59242549680257E-15,30.5,13.5));
#248=CARTESIAN_POINT('',(0.,0.,0.));
#249=CARTESIAN_POINT('',(-4.59242549680257E-15,37.5,0.));
#250=CARTESIAN_POINT('',(-7.,37.5,0.));
#251=CARTESIAN_POINT('',(0.,0.,0.));
#252=CARTESIAN_POINT('',(25.,0.,0.));
#253=CARTESIAN_POINT('',(0.,0.,-4.5));
#254=CARTESIAN_POINT('',(0.,0.,-4.5));
#255=CARTESIAN_POINT('',(25.,0.,-4.5));
#256=CARTESIAN_POINT('',(0.,0.,-4.5));
#257=CARTESIAN_POINT('',(-4.59242549680257E-15,37.5,-136.079410347815));
#258=MECHANICAL_DESIGN_GEOMETRIC_PRESENTATION_REPRESENTATION('',(#147),
#259);
#259=(
GEOMETRIC_REPRESENTATION_CONTEXT(3)
GLOBAL_UNCERTAINTY_ASSIGNED_CONTEXT((#260))
GLOBAL_UNIT_ASSIGNED_CONTEXT((#263,#262,#261))
REPRESENTATION_CONTEXT('M\X2\FF0851F89762FF09\X0\',
'TOP_LEVEL_ASSEMBLY_PART')
);
#260=UNCERTAINTY_MEASURE_WITH_UNIT(LENGTH_MEASURE(0.005),#263,
'DISTANCE_ACCURACY_VALUE','Maximum Tolerance applied to model');
#261=(
NAMED_UNIT(*)
SI_UNIT($,.STERADIAN.)
SOLID_ANGLE_UNIT()
);
#262=(
NAMED_UNIT(*)
PLANE_ANGLE_UNIT()
SI_UNIT($,.RADIAN.)
);
#263=(
LENGTH_UNIT()
NAMED_UNIT(*)
SI_UNIT(.MILLI.,.METRE.)
);
#264=PRODUCT_DEFINITION_SHAPE('','',#265);
#265=PRODUCT_DEFINITION('','',#267,#266);
#266=PRODUCT_DEFINITION_CONTEXT('',#273,'design');
#267=PRODUCT_DEFINITION_FORMATION_WITH_SPECIFIED_SOURCE('','',#269,
 .NOT_KNOWN.);
#268=PRODUCT_RELATED_PRODUCT_CATEGORY('','',(#269));
#269=PRODUCT('M\X2\FF0851F89762FF09\X0\','M\X2\FF0851F89762FF09\X0\',
'M\X2\FF0851F89762FF09\X0\',(#271));
#270=PRODUCT_CATEGORY('','');
#271=PRODUCT_CONTEXT('',#273,'mechanical');
#272=APPLICATION_PROTOCOL_DEFINITION('international standard',
'automotive_design',2010,#273);
#273=APPLICATION_CONTEXT(
'core data for automotive mechanical design processes');
ENDSEC;
END-ISO-10303-21;
