ISO-10303-21;
HEADER;
/* Generated by software containing HOOPS Exchange Step
 * from HOOPS Exchange, Inc. (www.tiangong.cloud) 
 */

FILE_DESCRIPTION(
/* description */ ('Unknown'),
/* implementation_level */ '2;1');

FILE_NAME(
/* name */ '\X2\7A819762FF08\X0\RF\X2\FF09677F5F0F5E73710A94A252367BA16CD55170\X0\',

/* time_stamp */ '2025-12-02T15:27:49+08:00',
/* author */ ('Unknown'),
/* organization */ ('Unknown'),
/* preprocessor_version */ 'ST-DEVELOPER v19.4',
/* originating_system */ 'TianGong',
/* authorisation */ 'Unknown');

FILE_SCHEMA (('AUTOMOTIVE_DESIGN {1 0 10303 214 3 1 1}'));
ENDSEC;

DATA;
#10=PROPERTY_DEFINITION_REPRESENTATION(#14,#12);
#11=PROPERTY_DEFINITION_REPRESENTATION(#15,#13);
#12=REPRESENTATION('',(#16),#627);
#13=REPRESENTATION('',(#17),#627);
#14=PROPERTY_DEFINITION('pmi validation property','',#632);
#15=PROPERTY_DEFINITION('pmi validation property','',#632);
#16=VALUE_REPRESENTATION_ITEM('number of annotations',COUNT_MEASURE(0.));
#17=VALUE_REPRESENTATION_ITEM('number of views',COUNT_MEASURE(0.));
#18=SHAPE_REPRESENTATION_RELATIONSHIP('','',#356,#19);
#19=ADVANCED_BREP_SHAPE_REPRESENTATION('',(#354),#627);
#20=CONICAL_SURFACE('',#416,207.5,0.785398163397445);
#21=PLANE('',#397);
#22=PLANE('',#411);
#23=PLANE('',#414);
#24=ORIENTED_EDGE('',*,*,#106,.F.);
#25=ORIENTED_EDGE('',*,*,#107,.F.);
#26=ORIENTED_EDGE('',*,*,#108,.F.);
#27=ORIENTED_EDGE('',*,*,#109,.F.);
#28=ORIENTED_EDGE('',*,*,#110,.F.);
#29=ORIENTED_EDGE('',*,*,#111,.F.);
#30=ORIENTED_EDGE('',*,*,#112,.F.);
#31=ORIENTED_EDGE('',*,*,#113,.F.);
#32=ORIENTED_EDGE('',*,*,#114,.F.);
#33=ORIENTED_EDGE('',*,*,#115,.F.);
#34=ORIENTED_EDGE('',*,*,#116,.F.);
#35=ORIENTED_EDGE('',*,*,#117,.F.);
#36=ORIENTED_EDGE('',*,*,#118,.F.);
#37=ORIENTED_EDGE('',*,*,#119,.F.);
#38=ORIENTED_EDGE('',*,*,#120,.F.);
#39=ORIENTED_EDGE('',*,*,#121,.F.);
#40=ORIENTED_EDGE('',*,*,#122,.F.);
#41=ORIENTED_EDGE('',*,*,#123,.F.);
#42=ORIENTED_EDGE('',*,*,#124,.F.);
#43=ORIENTED_EDGE('',*,*,#125,.F.);
#44=ORIENTED_EDGE('',*,*,#126,.F.);
#45=ORIENTED_EDGE('',*,*,#127,.F.);
#46=ORIENTED_EDGE('',*,*,#128,.F.);
#47=ORIENTED_EDGE('',*,*,#129,.T.);
#48=ORIENTED_EDGE('',*,*,#130,.T.);
#49=ORIENTED_EDGE('',*,*,#131,.F.);
#50=ORIENTED_EDGE('',*,*,#110,.T.);
#51=ORIENTED_EDGE('',*,*,#132,.T.);
#52=ORIENTED_EDGE('',*,*,#108,.T.);
#53=ORIENTED_EDGE('',*,*,#133,.T.);
#54=ORIENTED_EDGE('',*,*,#106,.T.);
#55=ORIENTED_EDGE('',*,*,#134,.T.);
#56=ORIENTED_EDGE('',*,*,#135,.T.);
#57=ORIENTED_EDGE('',*,*,#136,.T.);
#58=ORIENTED_EDGE('',*,*,#126,.T.);
#59=ORIENTED_EDGE('',*,*,#137,.T.);
#60=ORIENTED_EDGE('',*,*,#124,.T.);
#61=ORIENTED_EDGE('',*,*,#138,.T.);
#62=ORIENTED_EDGE('',*,*,#122,.T.);
#63=ORIENTED_EDGE('',*,*,#139,.T.);
#64=ORIENTED_EDGE('',*,*,#120,.T.);
#65=ORIENTED_EDGE('',*,*,#140,.T.);
#66=ORIENTED_EDGE('',*,*,#118,.T.);
#67=ORIENTED_EDGE('',*,*,#141,.T.);
#68=ORIENTED_EDGE('',*,*,#116,.T.);
#69=ORIENTED_EDGE('',*,*,#142,.T.);
#70=ORIENTED_EDGE('',*,*,#114,.T.);
#71=ORIENTED_EDGE('',*,*,#143,.T.);
#72=ORIENTED_EDGE('',*,*,#112,.T.);
#73=ORIENTED_EDGE('',*,*,#144,.T.);
#74=ORIENTED_EDGE('',*,*,#130,.F.);
#75=ORIENTED_EDGE('',*,*,#107,.T.);
#76=ORIENTED_EDGE('',*,*,#109,.T.);
#77=ORIENTED_EDGE('',*,*,#111,.T.);
#78=ORIENTED_EDGE('',*,*,#113,.T.);
#79=ORIENTED_EDGE('',*,*,#115,.T.);
#80=ORIENTED_EDGE('',*,*,#117,.T.);
#81=ORIENTED_EDGE('',*,*,#119,.T.);
#82=ORIENTED_EDGE('',*,*,#121,.T.);
#83=ORIENTED_EDGE('',*,*,#123,.T.);
#84=ORIENTED_EDGE('',*,*,#125,.T.);
#85=ORIENTED_EDGE('',*,*,#127,.T.);
#86=ORIENTED_EDGE('',*,*,#145,.T.);
#87=ORIENTED_EDGE('',*,*,#129,.F.);
#88=ORIENTED_EDGE('',*,*,#131,.T.);
#89=ORIENTED_EDGE('',*,*,#135,.F.);
#90=ORIENTED_EDGE('',*,*,#145,.F.);
#91=ORIENTED_EDGE('',*,*,#146,.F.);
#92=ORIENTED_EDGE('',*,*,#128,.T.);
#93=ORIENTED_EDGE('',*,*,#132,.F.);
#94=ORIENTED_EDGE('',*,*,#144,.F.);
#95=ORIENTED_EDGE('',*,*,#143,.F.);
#96=ORIENTED_EDGE('',*,*,#142,.F.);
#97=ORIENTED_EDGE('',*,*,#141,.F.);
#98=ORIENTED_EDGE('',*,*,#140,.F.);
#99=ORIENTED_EDGE('',*,*,#139,.F.);
#100=ORIENTED_EDGE('',*,*,#138,.F.);
#101=ORIENTED_EDGE('',*,*,#137,.F.);
#102=ORIENTED_EDGE('',*,*,#136,.F.);
#103=ORIENTED_EDGE('',*,*,#134,.F.);
#104=ORIENTED_EDGE('',*,*,#133,.F.);
#105=ORIENTED_EDGE('',*,*,#146,.T.);
#106=EDGE_CURVE('',#147,#147,#176,.T.);
#107=EDGE_CURVE('',#148,#148,#177,.F.);
#108=EDGE_CURVE('',#149,#149,#178,.T.);
#109=EDGE_CURVE('',#150,#150,#179,.F.);
#110=EDGE_CURVE('',#151,#151,#180,.T.);
#111=EDGE_CURVE('',#152,#152,#181,.F.);
#112=EDGE_CURVE('',#153,#153,#182,.T.);
#113=EDGE_CURVE('',#154,#154,#183,.F.);
#114=EDGE_CURVE('',#155,#155,#184,.T.);
#115=EDGE_CURVE('',#156,#156,#185,.F.);
#116=EDGE_CURVE('',#157,#157,#186,.T.);
#117=EDGE_CURVE('',#158,#158,#187,.F.);
#118=EDGE_CURVE('',#159,#159,#188,.T.);
#119=EDGE_CURVE('',#160,#160,#189,.F.);
#120=EDGE_CURVE('',#161,#161,#190,.T.);
#121=EDGE_CURVE('',#162,#162,#191,.F.);
#122=EDGE_CURVE('',#163,#163,#192,.T.);
#123=EDGE_CURVE('',#164,#164,#193,.F.);
#124=EDGE_CURVE('',#165,#165,#194,.T.);
#125=EDGE_CURVE('',#166,#166,#195,.F.);
#126=EDGE_CURVE('',#167,#167,#196,.T.);
#127=EDGE_CURVE('',#168,#168,#197,.F.);
#128=EDGE_CURVE('',#169,#169,#198,.T.);
#129=EDGE_CURVE('',#170,#170,#199,.T.);
#130=EDGE_CURVE('',#171,#171,#200,.T.);
#131=EDGE_CURVE('',#172,#172,#201,.T.);
#132=EDGE_CURVE('',#151,#149,#202,.T.);
#133=EDGE_CURVE('',#149,#147,#203,.T.);
#134=EDGE_CURVE('',#147,#173,#204,.T.);
#135=EDGE_CURVE('',#173,#173,#205,.T.);
#136=EDGE_CURVE('',#173,#167,#206,.T.);
#137=EDGE_CURVE('',#167,#165,#207,.T.);
#138=EDGE_CURVE('',#165,#163,#208,.T.);
#139=EDGE_CURVE('',#163,#161,#209,.T.);
#140=EDGE_CURVE('',#161,#159,#210,.T.);
#141=EDGE_CURVE('',#159,#157,#211,.T.);
#142=EDGE_CURVE('',#157,#155,#212,.T.);
#143=EDGE_CURVE('',#155,#153,#213,.T.);
#144=EDGE_CURVE('',#153,#151,#214,.T.);
#145=EDGE_CURVE('',#174,#174,#215,.F.);
#146=EDGE_CURVE('',#175,#175,#216,.T.);
#147=VERTEX_POINT('',#540);
#148=VERTEX_POINT('',#542);
#149=VERTEX_POINT('',#545);
#150=VERTEX_POINT('',#547);
#151=VERTEX_POINT('',#550);
#152=VERTEX_POINT('',#552);
#153=VERTEX_POINT('',#555);
#154=VERTEX_POINT('',#557);
#155=VERTEX_POINT('',#560);
#156=VERTEX_POINT('',#562);
#157=VERTEX_POINT('',#565);
#158=VERTEX_POINT('',#567);
#159=VERTEX_POINT('',#570);
#160=VERTEX_POINT('',#572);
#161=VERTEX_POINT('',#575);
#162=VERTEX_POINT('',#577);
#163=VERTEX_POINT('',#580);
#164=VERTEX_POINT('',#582);
#165=VERTEX_POINT('',#585);
#166=VERTEX_POINT('',#587);
#167=VERTEX_POINT('',#590);
#168=VERTEX_POINT('',#592);
#169=VERTEX_POINT('',#595);
#170=VERTEX_POINT('',#597);
#171=VERTEX_POINT('',#600);
#172=VERTEX_POINT('',#602);
#173=VERTEX_POINT('',#607);
#174=VERTEX_POINT('',#620);
#175=VERTEX_POINT('',#624);
#176=CIRCLE('',#359,11.);
#177=CIRCLE('',#360,11.);
#178=CIRCLE('',#362,11.);
#179=CIRCLE('',#363,11.);
#180=CIRCLE('',#365,11.);
#181=CIRCLE('',#366,11.);
#182=CIRCLE('',#368,11.);
#183=CIRCLE('',#369,11.);
#184=CIRCLE('',#371,11.);
#185=CIRCLE('',#372,11.);
#186=CIRCLE('',#374,11.);
#187=CIRCLE('',#375,11.);
#188=CIRCLE('',#377,11.);
#189=CIRCLE('',#378,11.);
#190=CIRCLE('',#380,11.);
#191=CIRCLE('',#381,11.);
#192=CIRCLE('',#383,11.);
#193=CIRCLE('',#384,11.);
#194=CIRCLE('',#386,11.);
#195=CIRCLE('',#387,11.);
#196=CIRCLE('',#389,11.);
#197=CIRCLE('',#390,11.);
#198=CIRCLE('',#392,179.75);
#199=CIRCLE('',#393,179.75);
#200=CIRCLE('',#395,245.);
#201=CIRCLE('',#396,245.);
#202=CIRCLE('',#398,211.5);
#203=CIRCLE('',#399,211.5);
#204=CIRCLE('',#400,211.5);
#205=CIRCLE('',#401,11.);
#206=CIRCLE('',#402,211.5);
#207=CIRCLE('',#403,211.5);
#208=CIRCLE('',#404,211.5);
#209=CIRCLE('',#405,211.5);
#210=CIRCLE('',#406,211.5);
#211=CIRCLE('',#407,211.5);
#212=CIRCLE('',#408,211.5);
#213=CIRCLE('',#409,211.5);
#214=CIRCLE('',#410,211.5);
#215=CIRCLE('',#412,11.);
#216=CIRCLE('',#415,207.5);
#217=EDGE_LOOP('',(#24));
#218=EDGE_LOOP('',(#25));
#219=EDGE_LOOP('',(#26));
#220=EDGE_LOOP('',(#27));
#221=EDGE_LOOP('',(#28));
#222=EDGE_LOOP('',(#29));
#223=EDGE_LOOP('',(#30));
#224=EDGE_LOOP('',(#31));
#225=EDGE_LOOP('',(#32));
#226=EDGE_LOOP('',(#33));
#227=EDGE_LOOP('',(#34));
#228=EDGE_LOOP('',(#35));
#229=EDGE_LOOP('',(#36));
#230=EDGE_LOOP('',(#37));
#231=EDGE_LOOP('',(#38));
#232=EDGE_LOOP('',(#39));
#233=EDGE_LOOP('',(#40));
#234=EDGE_LOOP('',(#41));
#235=EDGE_LOOP('',(#42));
#236=EDGE_LOOP('',(#43));
#237=EDGE_LOOP('',(#44));
#238=EDGE_LOOP('',(#45));
#239=EDGE_LOOP('',(#46));
#240=EDGE_LOOP('',(#47));
#241=EDGE_LOOP('',(#48));
#242=EDGE_LOOP('',(#49));
#243=EDGE_LOOP('',(#50,#51,#52,#53,#54,#55,#56,#57,#58,#59,#60,#61,#62,
#63,#64,#65,#66,#67,#68,#69,#70,#71,#72,#73));
#244=EDGE_LOOP('',(#74));
#245=EDGE_LOOP('',(#75));
#246=EDGE_LOOP('',(#76));
#247=EDGE_LOOP('',(#77));
#248=EDGE_LOOP('',(#78));
#249=EDGE_LOOP('',(#79));
#250=EDGE_LOOP('',(#80));
#251=EDGE_LOOP('',(#81));
#252=EDGE_LOOP('',(#82));
#253=EDGE_LOOP('',(#83));
#254=EDGE_LOOP('',(#84));
#255=EDGE_LOOP('',(#85));
#256=EDGE_LOOP('',(#86));
#257=EDGE_LOOP('',(#87));
#258=EDGE_LOOP('',(#88));
#259=EDGE_LOOP('',(#89));
#260=EDGE_LOOP('',(#90));
#261=EDGE_LOOP('',(#91));
#262=EDGE_LOOP('',(#92));
#263=EDGE_LOOP('',(#93,#94,#95,#96,#97,#98,#99,#100,#101,#102,#103,#104));
#264=EDGE_LOOP('',(#105));
#265=FACE_BOUND('',#217,.T.);
#266=FACE_BOUND('',#218,.T.);
#267=FACE_BOUND('',#219,.T.);
#268=FACE_BOUND('',#220,.T.);
#269=FACE_BOUND('',#221,.T.);
#270=FACE_BOUND('',#222,.T.);
#271=FACE_BOUND('',#223,.T.);
#272=FACE_BOUND('',#224,.T.);
#273=FACE_BOUND('',#225,.T.);
#274=FACE_BOUND('',#226,.T.);
#275=FACE_BOUND('',#227,.T.);
#276=FACE_BOUND('',#228,.T.);
#277=FACE_BOUND('',#229,.T.);
#278=FACE_BOUND('',#230,.T.);
#279=FACE_BOUND('',#231,.T.);
#280=FACE_BOUND('',#232,.T.);
#281=FACE_BOUND('',#233,.T.);
#282=FACE_BOUND('',#234,.T.);
#283=FACE_BOUND('',#235,.T.);
#284=FACE_BOUND('',#236,.T.);
#285=FACE_BOUND('',#237,.T.);
#286=FACE_BOUND('',#238,.T.);
#287=FACE_BOUND('',#239,.T.);
#288=FACE_BOUND('',#240,.T.);
#289=FACE_BOUND('',#241,.T.);
#290=FACE_BOUND('',#242,.T.);
#291=FACE_BOUND('',#243,.T.);
#292=FACE_BOUND('',#244,.T.);
#293=FACE_BOUND('',#245,.T.);
#294=FACE_BOUND('',#246,.T.);
#295=FACE_BOUND('',#247,.T.);
#296=FACE_BOUND('',#248,.T.);
#297=FACE_BOUND('',#249,.T.);
#298=FACE_BOUND('',#250,.T.);
#299=FACE_BOUND('',#251,.T.);
#300=FACE_BOUND('',#252,.T.);
#301=FACE_BOUND('',#253,.T.);
#302=FACE_BOUND('',#254,.T.);
#303=FACE_BOUND('',#255,.T.);
#304=FACE_BOUND('',#256,.T.);
#305=FACE_BOUND('',#257,.T.);
#306=FACE_BOUND('',#258,.T.);
#307=FACE_BOUND('',#259,.T.);
#308=FACE_BOUND('',#260,.T.);
#309=FACE_BOUND('',#261,.T.);
#310=FACE_BOUND('',#262,.T.);
#311=FACE_BOUND('',#263,.T.);
#312=FACE_BOUND('',#264,.T.);
#313=CYLINDRICAL_SURFACE('',#358,11.);
#314=CYLINDRICAL_SURFACE('',#361,11.);
#315=CYLINDRICAL_SURFACE('',#364,11.);
#316=CYLINDRICAL_SURFACE('',#367,11.);
#317=CYLINDRICAL_SURFACE('',#370,11.);
#318=CYLINDRICAL_SURFACE('',#373,11.);
#319=CYLINDRICAL_SURFACE('',#376,11.);
#320=CYLINDRICAL_SURFACE('',#379,11.);
#321=CYLINDRICAL_SURFACE('',#382,11.);
#322=CYLINDRICAL_SURFACE('',#385,11.);
#323=CYLINDRICAL_SURFACE('',#388,11.);
#324=CYLINDRICAL_SURFACE('',#391,179.75);
#325=CYLINDRICAL_SURFACE('',#394,245.);
#326=CYLINDRICAL_SURFACE('',#413,11.);
#327=ADVANCED_FACE('',(#265,#266),#313,.F.);
#328=ADVANCED_FACE('',(#267,#268),#314,.F.);
#329=ADVANCED_FACE('',(#269,#270),#315,.F.);
#330=ADVANCED_FACE('',(#271,#272),#316,.F.);
#331=ADVANCED_FACE('',(#273,#274),#317,.F.);
#332=ADVANCED_FACE('',(#275,#276),#318,.F.);
#333=ADVANCED_FACE('',(#277,#278),#319,.F.);
#334=ADVANCED_FACE('',(#279,#280),#320,.F.);
#335=ADVANCED_FACE('',(#281,#282),#321,.F.);
#336=ADVANCED_FACE('',(#283,#284),#322,.F.);
#337=ADVANCED_FACE('',(#285,#286),#323,.F.);
#338=ADVANCED_FACE('',(#287,#288),#324,.F.);
#339=ADVANCED_FACE('',(#289,#290),#325,.T.);
#340=ADVANCED_FACE('',(#291,#292),#21,.F.);
#341=ADVANCED_FACE('',(#293,#294,#295,#296,#297,#298,#299,#300,#301,#302,
#303,#304,#305,#306),#22,.T.);
#342=ADVANCED_FACE('',(#307,#308),#326,.F.);
#343=ADVANCED_FACE('',(#309,#310),#23,.F.);
#344=ADVANCED_FACE('',(#311,#312),#20,.T.);
#345=CLOSED_SHELL('',(#327,#328,#329,#330,#331,#332,#333,#334,#335,#336,
#337,#338,#339,#340,#341,#342,#343,#344));
#346=STYLED_ITEM('',(#347),#354);
#347=PRESENTATION_STYLE_ASSIGNMENT((#348));
#348=SURFACE_STYLE_USAGE(.BOTH.,#349);
#349=SURFACE_SIDE_STYLE('',(#350));
#350=SURFACE_STYLE_FILL_AREA(#351);
#351=FILL_AREA_STYLE('',(#352));
#352=FILL_AREA_STYLE_COLOUR('',#353);
#353=COLOUR_RGB('',0.506983280181885,0.531564235687256,0.550000011920929);
#354=MANIFOLD_SOLID_BREP('',#345);
#355=SHAPE_DEFINITION_REPRESENTATION(#632,#356);
#356=SHAPE_REPRESENTATION('\X2\7A819762FF08\X0\RF\X2\FF09677F5F0F5E73710A94A252367BA16CD55170\X0\',
(#357),#627);
#357=AXIS2_PLACEMENT_3D('',#537,#417,#418);
#358=AXIS2_PLACEMENT_3D('',#538,#419,#420);
#359=AXIS2_PLACEMENT_3D('',#539,#421,#422);
#360=AXIS2_PLACEMENT_3D('',#541,#423,#424);
#361=AXIS2_PLACEMENT_3D('',#543,#425,#426);
#362=AXIS2_PLACEMENT_3D('',#544,#427,#428);
#363=AXIS2_PLACEMENT_3D('',#546,#429,#430);
#364=AXIS2_PLACEMENT_3D('',#548,#431,#432);
#365=AXIS2_PLACEMENT_3D('',#549,#433,#434);
#366=AXIS2_PLACEMENT_3D('',#551,#435,#436);
#367=AXIS2_PLACEMENT_3D('',#553,#437,#438);
#368=AXIS2_PLACEMENT_3D('',#554,#439,#440);
#369=AXIS2_PLACEMENT_3D('',#556,#441,#442);
#370=AXIS2_PLACEMENT_3D('',#558,#443,#444);
#371=AXIS2_PLACEMENT_3D('',#559,#445,#446);
#372=AXIS2_PLACEMENT_3D('',#561,#447,#448);
#373=AXIS2_PLACEMENT_3D('',#563,#449,#450);
#374=AXIS2_PLACEMENT_3D('',#564,#451,#452);
#375=AXIS2_PLACEMENT_3D('',#566,#453,#454);
#376=AXIS2_PLACEMENT_3D('',#568,#455,#456);
#377=AXIS2_PLACEMENT_3D('',#569,#457,#458);
#378=AXIS2_PLACEMENT_3D('',#571,#459,#460);
#379=AXIS2_PLACEMENT_3D('',#573,#461,#462);
#380=AXIS2_PLACEMENT_3D('',#574,#463,#464);
#381=AXIS2_PLACEMENT_3D('',#576,#465,#466);
#382=AXIS2_PLACEMENT_3D('',#578,#467,#468);
#383=AXIS2_PLACEMENT_3D('',#579,#469,#470);
#384=AXIS2_PLACEMENT_3D('',#581,#471,#472);
#385=AXIS2_PLACEMENT_3D('',#583,#473,#474);
#386=AXIS2_PLACEMENT_3D('',#584,#475,#476);
#387=AXIS2_PLACEMENT_3D('',#586,#477,#478);
#388=AXIS2_PLACEMENT_3D('',#588,#479,#480);
#389=AXIS2_PLACEMENT_3D('',#589,#481,#482);
#390=AXIS2_PLACEMENT_3D('',#591,#483,#484);
#391=AXIS2_PLACEMENT_3D('',#593,#485,#486);
#392=AXIS2_PLACEMENT_3D('',#594,#487,#488);
#393=AXIS2_PLACEMENT_3D('',#596,#489,#490);
#394=AXIS2_PLACEMENT_3D('',#598,#491,#492);
#395=AXIS2_PLACEMENT_3D('',#599,#493,#494);
#396=AXIS2_PLACEMENT_3D('',#601,#495,#496);
#397=AXIS2_PLACEMENT_3D('',#603,#497,#498);
#398=AXIS2_PLACEMENT_3D('',#604,#499,#500);
#399=AXIS2_PLACEMENT_3D('',#605,#501,#502);
#400=AXIS2_PLACEMENT_3D('',#606,#503,#504);
#401=AXIS2_PLACEMENT_3D('',#608,#505,#506);
#402=AXIS2_PLACEMENT_3D('',#609,#507,#508);
#403=AXIS2_PLACEMENT_3D('',#610,#509,#510);
#404=AXIS2_PLACEMENT_3D('',#611,#511,#512);
#405=AXIS2_PLACEMENT_3D('',#612,#513,#514);
#406=AXIS2_PLACEMENT_3D('',#613,#515,#516);
#407=AXIS2_PLACEMENT_3D('',#614,#517,#518);
#408=AXIS2_PLACEMENT_3D('',#615,#519,#520);
#409=AXIS2_PLACEMENT_3D('',#616,#521,#522);
#410=AXIS2_PLACEMENT_3D('',#617,#523,#524);
#411=AXIS2_PLACEMENT_3D('',#618,#525,#526);
#412=AXIS2_PLACEMENT_3D('',#619,#527,#528);
#413=AXIS2_PLACEMENT_3D('',#621,#529,#530);
#414=AXIS2_PLACEMENT_3D('',#622,#531,#532);
#415=AXIS2_PLACEMENT_3D('',#623,#533,#534);
#416=AXIS2_PLACEMENT_3D('',#625,#535,#536);
#417=DIRECTION('',(0.,0.,1.));
#418=DIRECTION('',(1.,0.,0.));
#419=DIRECTION('',(0.,0.,1.));
#420=DIRECTION('',(0.866025403784438,0.500000000000001,0.));
#421=DIRECTION('',(0.,0.,-1.));
#422=DIRECTION('',(0.866025403784438,0.500000000000001,0.));
#423=DIRECTION('',(0.,0.,-1.));
#424=DIRECTION('',(-0.866025403784438,-0.500000000000001,0.));
#425=DIRECTION('',(0.,0.,1.));
#426=DIRECTION('',(0.499999999999999,0.866025403784439,0.));
#427=DIRECTION('',(0.,0.,-1.));
#428=DIRECTION('',(0.499999999999999,0.866025403784439,0.));
#429=DIRECTION('',(0.,0.,-1.));
#430=DIRECTION('',(-0.499999999999999,-0.866025403784439,0.));
#431=DIRECTION('',(0.,0.,1.));
#432=DIRECTION('',(-1.04899068466779E-15,1.,0.));
#433=DIRECTION('',(0.,0.,-1.));
#434=DIRECTION('',(-1.04899068466779E-15,1.,0.));
#435=DIRECTION('',(0.,0.,-1.));
#436=DIRECTION('',(1.04899068466779E-15,-1.,0.));
#437=DIRECTION('',(0.,0.,1.));
#438=DIRECTION('',(-0.500000000000001,0.866025403784438,0.));
#439=DIRECTION('',(0.,0.,-1.));
#440=DIRECTION('',(-0.500000000000001,0.866025403784438,0.));
#441=DIRECTION('',(0.,0.,-1.));
#442=DIRECTION('',(0.500000000000001,-0.866025403784438,0.));
#443=DIRECTION('',(0.,0.,1.));
#444=DIRECTION('',(-0.866025403784439,0.499999999999999,0.));
#445=DIRECTION('',(0.,0.,-1.));
#446=DIRECTION('',(-0.866025403784439,0.499999999999999,0.));
#447=DIRECTION('',(0.,0.,-1.));
#448=DIRECTION('',(0.866025403784439,-0.499999999999999,0.));
#449=DIRECTION('',(0.,0.,1.));
#450=DIRECTION('',(-1.,-3.21624529935327E-16,0.));
#451=DIRECTION('',(0.,0.,-1.));
#452=DIRECTION('',(-1.,-3.21624529935327E-16,0.));
#453=DIRECTION('',(0.,0.,-1.));
#454=DIRECTION('',(1.,3.21624529935327E-16,0.));
#455=DIRECTION('',(0.,0.,1.));
#456=DIRECTION('',(-0.866025403784439,-0.5,0.));
#457=DIRECTION('',(0.,0.,-1.));
#458=DIRECTION('',(-0.866025403784439,-0.5,0.));
#459=DIRECTION('',(0.,0.,-1.));
#460=DIRECTION('',(0.866025403784439,0.5,0.));
#461=DIRECTION('',(0.,0.,1.));
#462=DIRECTION('',(-0.5,-0.866025403784439,0.));
#463=DIRECTION('',(0.,0.,-1.));
#464=DIRECTION('',(-0.5,-0.866025403784439,0.));
#465=DIRECTION('',(0.,0.,-1.));
#466=DIRECTION('',(0.5,0.866025403784439,0.));
#467=DIRECTION('',(0.,0.,1.));
#468=DIRECTION('',(-1.83697019872103E-16,-1.,0.));
#469=DIRECTION('',(0.,0.,-1.));
#470=DIRECTION('',(-1.83697019872103E-16,-1.,0.));
#471=DIRECTION('',(0.,0.,-1.));
#472=DIRECTION('',(1.83697019872103E-16,1.,0.));
#473=DIRECTION('',(0.,0.,1.));
#474=DIRECTION('',(0.5,-0.866025403784439,0.));
#475=DIRECTION('',(0.,0.,-1.));
#476=DIRECTION('',(0.5,-0.866025403784439,0.));
#477=DIRECTION('',(0.,0.,-1.));
#478=DIRECTION('',(-0.5,0.866025403784439,0.));
#479=DIRECTION('',(0.,0.,1.));
#480=DIRECTION('',(0.866025403784439,-0.5,0.));
#481=DIRECTION('',(0.,0.,-1.));
#482=DIRECTION('',(0.866025403784439,-0.5,0.));
#483=DIRECTION('',(0.,0.,-1.));
#484=DIRECTION('',(-0.866025403784439,0.5,0.));
#485=DIRECTION('',(0.,0.,-1.));
#486=DIRECTION('',(-1.,0.,0.));
#487=DIRECTION('',(0.,0.,-1.));
#488=DIRECTION('',(-1.,0.,0.));
#489=DIRECTION('',(0.,0.,-1.));
#490=DIRECTION('',(1.,0.,0.));
#491=DIRECTION('',(0.,0.,-1.));
#492=DIRECTION('',(-1.,0.,0.));
#493=DIRECTION('',(0.,0.,-1.));
#494=DIRECTION('',(1.,0.,0.));
#495=DIRECTION('',(0.,0.,-1.));
#496=DIRECTION('',(1.,0.,0.));
#497=DIRECTION('',(0.,0.,-1.));
#498=DIRECTION('',(-1.,0.,0.));
#499=DIRECTION('',(0.,0.,-1.));
#500=DIRECTION('',(-1.,0.,0.));
#501=DIRECTION('',(0.,0.,-1.));
#502=DIRECTION('',(-1.,0.,0.));
#503=DIRECTION('',(0.,0.,-1.));
#504=DIRECTION('',(-1.,0.,0.));
#505=DIRECTION('',(0.,0.,-1.));
#506=DIRECTION('',(1.,0.,0.));
#507=DIRECTION('',(0.,0.,-1.));
#508=DIRECTION('',(-1.,0.,0.));
#509=DIRECTION('',(0.,0.,-1.));
#510=DIRECTION('',(-1.,0.,0.));
#511=DIRECTION('',(0.,0.,-1.));
#512=DIRECTION('',(-1.,0.,0.));
#513=DIRECTION('',(0.,0.,-1.));
#514=DIRECTION('',(-1.,0.,0.));
#515=DIRECTION('',(0.,0.,-1.));
#516=DIRECTION('',(-1.,0.,0.));
#517=DIRECTION('',(0.,0.,-1.));
#518=DIRECTION('',(-1.,0.,0.));
#519=DIRECTION('',(0.,0.,-1.));
#520=DIRECTION('',(-1.,0.,0.));
#521=DIRECTION('',(0.,0.,-1.));
#522=DIRECTION('',(-1.,0.,0.));
#523=DIRECTION('',(0.,0.,-1.));
#524=DIRECTION('',(-1.,0.,0.));
#525=DIRECTION('',(0.,0.,-1.));
#526=DIRECTION('',(-1.,0.,0.));
#527=DIRECTION('',(0.,0.,-1.));
#528=DIRECTION('',(-1.,0.,0.));
#529=DIRECTION('',(0.,0.,1.));
#530=DIRECTION('',(1.,0.,0.));
#531=DIRECTION('',(0.,0.,-1.));
#532=DIRECTION('',(-1.,0.,0.));
#533=DIRECTION('',(0.,0.,-1.));
#534=DIRECTION('',(-1.,0.,0.));
#535=DIRECTION('',(0.,0.,-1.));
#536=DIRECTION('',(-1.,0.,0.));
#537=CARTESIAN_POINT('',(0.,0.,0.));
#538=CARTESIAN_POINT('',(-111.25,192.690652342037,-671.313781775611));
#539=CARTESIAN_POINT('',(-111.25,192.690652342037,22.));
#540=CARTESIAN_POINT('',(-105.75,183.164372900409,22.));
#541=CARTESIAN_POINT('',(-111.25,192.690652342037,0.));
#542=CARTESIAN_POINT('',(-120.776279441629,187.190652342037,0.));
#543=CARTESIAN_POINT('',(-192.690652342038,111.25,-671.313781775611));
#544=CARTESIAN_POINT('',(-192.690652342038,111.25,22.));
#545=CARTESIAN_POINT('',(-183.164372900409,105.75,22.));
#546=CARTESIAN_POINT('',(-192.690652342038,111.25,0.));
#547=CARTESIAN_POINT('',(-198.190652342038,101.723720558371,0.));
#548=CARTESIAN_POINT('',(-222.5,-2.33400427338583E-13,-671.313781775611));
#549=CARTESIAN_POINT('',(-222.5,-2.33400427338583E-13,22.));
#550=CARTESIAN_POINT('',(-211.5,-2.21861529807237E-13,22.));
#551=CARTESIAN_POINT('',(-222.5,-2.33400427338583E-13,0.));
#552=CARTESIAN_POINT('',(-222.5,-11.0000000000002,0.));
#553=CARTESIAN_POINT('',(-192.690652342037,-111.25,-671.313781775611));
#554=CARTESIAN_POINT('',(-192.690652342037,-111.25,22.));
#555=CARTESIAN_POINT('',(-183.164372900409,-105.75,22.));
#556=CARTESIAN_POINT('',(-192.690652342037,-111.25,0.));
#557=CARTESIAN_POINT('',(-187.190652342037,-120.776279441629,0.));
#558=CARTESIAN_POINT('',(-111.25,-192.690652342038,-671.313781775611));
#559=CARTESIAN_POINT('',(-111.25,-192.690652342038,22.));
#560=CARTESIAN_POINT('',(-105.75,-183.164372900409,22.));
#561=CARTESIAN_POINT('',(-111.25,-192.690652342038,0.));
#562=CARTESIAN_POINT('',(-101.723720558371,-198.190652342038,0.));
#563=CARTESIAN_POINT('',(7.15614579106103E-14,-222.5,-671.313781775611));
#564=CARTESIAN_POINT('',(7.15614579106103E-14,-222.5,22.));
#565=CARTESIAN_POINT('',(6.80235880813217E-14,-211.5,22.));
#566=CARTESIAN_POINT('',(7.15614579106103E-14,-222.5,0.));
#567=CARTESIAN_POINT('',(11.0000000000001,-222.5,0.));
#568=CARTESIAN_POINT('',(111.25,-192.690652342038,-671.313781775611));
#569=CARTESIAN_POINT('',(111.25,-192.690652342038,22.));
#570=CARTESIAN_POINT('',(105.75,-183.164372900409,22.));
#571=CARTESIAN_POINT('',(111.25,-192.690652342038,0.));
#572=CARTESIAN_POINT('',(120.776279441629,-187.190652342038,0.));
#573=CARTESIAN_POINT('',(192.690652342038,-111.25,-671.313781775611));
#574=CARTESIAN_POINT('',(192.690652342038,-111.25,22.));
#575=CARTESIAN_POINT('',(183.164372900409,-105.75,22.));
#576=CARTESIAN_POINT('',(192.690652342038,-111.25,0.));
#577=CARTESIAN_POINT('',(198.190652342038,-101.723720558371,0.));
#578=CARTESIAN_POINT('',(222.5,-4.08725869215429E-14,-671.313781775611));
#579=CARTESIAN_POINT('',(222.5,-4.08725869215429E-14,22.));
#580=CARTESIAN_POINT('',(211.5,-3.88519197029498E-14,22.));
#581=CARTESIAN_POINT('',(222.5,-4.08725869215429E-14,0.));
#582=CARTESIAN_POINT('',(222.5,11.,0.));
#583=CARTESIAN_POINT('',(192.690652342038,111.25,-671.313781775611));
#584=CARTESIAN_POINT('',(192.690652342038,111.25,22.));
#585=CARTESIAN_POINT('',(183.164372900409,105.75,22.));
#586=CARTESIAN_POINT('',(192.690652342038,111.25,0.));
#587=CARTESIAN_POINT('',(187.190652342038,120.776279441629,0.));
#588=CARTESIAN_POINT('',(111.25,192.690652342038,-671.313781775611));
#589=CARTESIAN_POINT('',(111.25,192.690652342038,22.));
#590=CARTESIAN_POINT('',(105.75,183.164372900409,22.));
#591=CARTESIAN_POINT('',(111.25,192.690652342038,0.));
#592=CARTESIAN_POINT('',(101.723720558371,198.190652342038,0.));
#593=CARTESIAN_POINT('',(0.,0.,22.));
#594=CARTESIAN_POINT('',(0.,0.,26.));
#595=CARTESIAN_POINT('',(-179.75,0.,26.));
#596=CARTESIAN_POINT('',(0.,0.,0.));
#597=CARTESIAN_POINT('',(179.75,0.,0.));
#598=CARTESIAN_POINT('',(0.,0.,22.));
#599=CARTESIAN_POINT('',(0.,0.,22.));
#600=CARTESIAN_POINT('',(245.,0.,22.));
#601=CARTESIAN_POINT('',(0.,0.,0.));
#602=CARTESIAN_POINT('',(245.,0.,0.));
#603=CARTESIAN_POINT('',(0.,0.,22.));
#604=CARTESIAN_POINT('',(0.,0.,22.));
#605=CARTESIAN_POINT('',(0.,0.,22.));
#606=CARTESIAN_POINT('',(0.,0.,22.));
#607=CARTESIAN_POINT('',(0.,211.5,22.));
#608=CARTESIAN_POINT('',(0.,222.5,22.));
#609=CARTESIAN_POINT('',(0.,0.,22.));
#610=CARTESIAN_POINT('',(0.,0.,22.));
#611=CARTESIAN_POINT('',(0.,0.,22.));
#612=CARTESIAN_POINT('',(0.,0.,22.));
#613=CARTESIAN_POINT('',(0.,0.,22.));
#614=CARTESIAN_POINT('',(0.,0.,22.));
#615=CARTESIAN_POINT('',(0.,0.,22.));
#616=CARTESIAN_POINT('',(0.,0.,22.));
#617=CARTESIAN_POINT('',(0.,0.,22.));
#618=CARTESIAN_POINT('',(0.,0.,0.));
#619=CARTESIAN_POINT('',(0.,222.5,0.));
#620=CARTESIAN_POINT('',(-11.,222.5,0.));
#621=CARTESIAN_POINT('',(0.,222.5,-671.313781775611));
#622=CARTESIAN_POINT('',(-179.75,0.,26.));
#623=CARTESIAN_POINT('',(0.,0.,26.));
#624=CARTESIAN_POINT('',(-207.5,0.,26.));
#625=CARTESIAN_POINT('',(0.,0.,26.));
#626=MECHANICAL_DESIGN_GEOMETRIC_PRESENTATION_REPRESENTATION('',(#346),
#627);
#627=(
GEOMETRIC_REPRESENTATION_CONTEXT(3)
GLOBAL_UNCERTAINTY_ASSIGNED_CONTEXT((#628))
GLOBAL_UNIT_ASSIGNED_CONTEXT((#631,#630,#629))
REPRESENTATION_CONTEXT('\X2\7A819762FF08\X0\RF\X2\FF09677F5F0F5E73710A94A252367BA16CD55170\X0\',
'TOP_LEVEL_ASSEMBLY_PART')
);
#628=UNCERTAINTY_MEASURE_WITH_UNIT(LENGTH_MEASURE(0.005),#631,
'DISTANCE_ACCURACY_VALUE','Maximum Tolerance applied to model');
#629=(
NAMED_UNIT(*)
SI_UNIT($,.STERADIAN.)
SOLID_ANGLE_UNIT()
);
#630=(
NAMED_UNIT(*)
PLANE_ANGLE_UNIT()
SI_UNIT($,.RADIAN.)
);
#631=(
LENGTH_UNIT()
NAMED_UNIT(*)
SI_UNIT(.MILLI.,.METRE.)
);
#632=PRODUCT_DEFINITION_SHAPE('','',#633);
#633=PRODUCT_DEFINITION('','',#635,#634);
#634=PRODUCT_DEFINITION_CONTEXT('',#641,'design');
#635=PRODUCT_DEFINITION_FORMATION_WITH_SPECIFIED_SOURCE('','',#637,
 .NOT_KNOWN.);
#636=PRODUCT_RELATED_PRODUCT_CATEGORY('','',(#637));
#637=PRODUCT('\X2\7A819762FF08\X0\RF\X2\FF09677F5F0F5E73710A94A252367BA16CD55170\X0\',
'\X2\7A819762FF08\X0\RF\X2\FF09677F5F0F5E73710A94A252367BA16CD55170\X0\',
'\X2\7A819762FF08\X0\RF\X2\FF09677F5F0F5E73710A94A252367BA16CD55170\X0\',
(#639));
#638=PRODUCT_CATEGORY('','');
#639=PRODUCT_CONTEXT('',#641,'mechanical');
#640=APPLICATION_PROTOCOL_DEFINITION('international standard',
'automotive_design',2010,#641);
#641=APPLICATION_CONTEXT(
'core data for automotive mechanical design processes');
ENDSEC;
END-ISO-10303-21;
