ISO-10303-21;
HEADER;
/* Generated by software containing HOOPS Exchange Step
 * from HOOPS Exchange, Inc. (www.tiangong.cloud) 
 */

FILE_DESCRIPTION(
/* description */ ('Unknown'),
/* implementation_level */ '2;1');

FILE_NAME(
/* name */ '\X2\5E739762\X0\(FF)\X2\65744F5394A252367BA16CD55170\X0\',
/* time_stamp */ '2026-01-12T10:04:52+08:00',
/* author */ ('Unknown'),
/* organization */ ('Unknown'),
/* preprocessor_version */ 'ST-DEVELOPER v19.4',
/* originating_system */ 'TianGong',
/* authorisation */ 'Unknown');

FILE_SCHEMA (('AUTOMOTIVE_DESIGN {1 0 10303 214 3 1 1}'));
ENDSEC;

DATA;
#10=PROPERTY_DEFINITION_REPRESENTATION(#14,#12);
#11=PROPERTY_DEFINITION_REPRESENTATION(#15,#13);
#12=REPRESENTATION('',(#16),#384);
#13=REPRESENTATION('',(#17),#384);
#14=PROPERTY_DEFINITION('pmi validation property','',#389);
#15=PROPERTY_DEFINITION('pmi validation property','',#389);
#16=VALUE_REPRESENTATION_ITEM('number of annotations',COUNT_MEASURE(0.));
#17=VALUE_REPRESENTATION_ITEM('number of views',COUNT_MEASURE(0.));
#18=SHAPE_REPRESENTATION_RELATIONSHIP('','',#259,#19);
#19=ADVANCED_BREP_SHAPE_REPRESENTATION('',(#257),#384);
#20=TOROIDAL_SURFACE('',#284,14.,4.);
#21=PLANE('',#273);
#22=PLANE('',#275);
#23=PLANE('',#281);
#24=ORIENTED_EDGE('',*,*,#54,.T.);
#25=ORIENTED_EDGE('',*,*,#55,.T.);
#26=ORIENTED_EDGE('',*,*,#56,.T.);
#27=ORIENTED_EDGE('',*,*,#57,.T.);
#28=ORIENTED_EDGE('',*,*,#58,.T.);
#29=ORIENTED_EDGE('',*,*,#59,.T.);
#30=ORIENTED_EDGE('',*,*,#60,.T.);
#31=ORIENTED_EDGE('',*,*,#61,.F.);
#32=ORIENTED_EDGE('',*,*,#62,.F.);
#33=ORIENTED_EDGE('',*,*,#60,.F.);
#34=ORIENTED_EDGE('',*,*,#63,.F.);
#35=ORIENTED_EDGE('',*,*,#55,.F.);
#36=ORIENTED_EDGE('',*,*,#57,.F.);
#37=ORIENTED_EDGE('',*,*,#59,.F.);
#38=ORIENTED_EDGE('',*,*,#64,.F.);
#39=ORIENTED_EDGE('',*,*,#65,.T.);
#40=ORIENTED_EDGE('',*,*,#66,.T.);
#41=ORIENTED_EDGE('',*,*,#65,.F.);
#42=ORIENTED_EDGE('',*,*,#54,.F.);
#43=ORIENTED_EDGE('',*,*,#56,.F.);
#44=ORIENTED_EDGE('',*,*,#58,.F.);
#45=ORIENTED_EDGE('',*,*,#67,.F.);
#46=ORIENTED_EDGE('',*,*,#68,.T.);
#47=ORIENTED_EDGE('',*,*,#66,.F.);
#48=ORIENTED_EDGE('',*,*,#61,.T.);
#49=ORIENTED_EDGE('',*,*,#68,.F.);
#50=ORIENTED_EDGE('',*,*,#67,.T.);
#51=ORIENTED_EDGE('',*,*,#64,.T.);
#52=ORIENTED_EDGE('',*,*,#63,.T.);
#53=ORIENTED_EDGE('',*,*,#62,.T.);
#54=EDGE_CURVE('',#69,#69,#84,.T.);
#55=EDGE_CURVE('',#70,#70,#85,.T.);
#56=EDGE_CURVE('',#71,#71,#86,.T.);
#57=EDGE_CURVE('',#72,#72,#87,.T.);
#58=EDGE_CURVE('',#73,#73,#88,.T.);
#59=EDGE_CURVE('',#74,#74,#89,.T.);
#60=EDGE_CURVE('',#75,#75,#90,.T.);
#61=EDGE_CURVE('',#76,#76,#91,.T.);
#62=EDGE_CURVE('',#77,#77,#92,.T.);
#63=EDGE_CURVE('',#78,#78,#93,.T.);
#64=EDGE_CURVE('',#79,#79,#94,.T.);
#65=EDGE_CURVE('',#80,#80,#95,.T.);
#66=EDGE_CURVE('',#81,#81,#96,.T.);
#67=EDGE_CURVE('',#82,#82,#97,.T.);
#68=EDGE_CURVE('',#83,#83,#98,.T.);
#69=VERTEX_POINT('',#344);
#70=VERTEX_POINT('',#346);
#71=VERTEX_POINT('',#349);
#72=VERTEX_POINT('',#351);
#73=VERTEX_POINT('',#354);
#74=VERTEX_POINT('',#356);
#75=VERTEX_POINT('',#359);
#76=VERTEX_POINT('',#361);
#77=VERTEX_POINT('',#364);
#78=VERTEX_POINT('',#367);
#79=VERTEX_POINT('',#369);
#80=VERTEX_POINT('',#371);
#81=VERTEX_POINT('',#374);
#82=VERTEX_POINT('',#377);
#83=VERTEX_POINT('',#379);
#84=CIRCLE('',#262,5.5);
#85=CIRCLE('',#263,5.5);
#86=CIRCLE('',#265,5.5);
#87=CIRCLE('',#266,5.5);
#88=CIRCLE('',#268,5.5);
#89=CIRCLE('',#269,5.5);
#90=CIRCLE('',#271,10.);
#91=CIRCLE('',#272,10.);
#92=CIRCLE('',#274,5.);
#93=CIRCLE('',#276,5.);
#94=CIRCLE('',#277,5.5);
#95=CIRCLE('',#278,37.5);
#96=CIRCLE('',#280,37.5);
#97=CIRCLE('',#282,5.5);
#98=CIRCLE('',#283,14.);
#99=EDGE_LOOP('',(#24));
#100=EDGE_LOOP('',(#25));
#101=EDGE_LOOP('',(#26));
#102=EDGE_LOOP('',(#27));
#103=EDGE_LOOP('',(#28));
#104=EDGE_LOOP('',(#29));
#105=EDGE_LOOP('',(#30));
#106=EDGE_LOOP('',(#31));
#107=EDGE_LOOP('',(#32));
#108=EDGE_LOOP('',(#33));
#109=EDGE_LOOP('',(#34));
#110=EDGE_LOOP('',(#35));
#111=EDGE_LOOP('',(#36));
#112=EDGE_LOOP('',(#37));
#113=EDGE_LOOP('',(#38));
#114=EDGE_LOOP('',(#39));
#115=EDGE_LOOP('',(#40));
#116=EDGE_LOOP('',(#41));
#117=EDGE_LOOP('',(#42));
#118=EDGE_LOOP('',(#43));
#119=EDGE_LOOP('',(#44));
#120=EDGE_LOOP('',(#45));
#121=EDGE_LOOP('',(#46));
#122=EDGE_LOOP('',(#47));
#123=EDGE_LOOP('',(#48));
#124=EDGE_LOOP('',(#49));
#125=EDGE_LOOP('',(#50));
#126=EDGE_LOOP('',(#51));
#127=EDGE_LOOP('',(#52));
#128=EDGE_LOOP('',(#53));
#129=FACE_BOUND('',#99,.T.);
#130=FACE_BOUND('',#100,.T.);
#131=FACE_BOUND('',#101,.T.);
#132=FACE_BOUND('',#102,.T.);
#133=FACE_BOUND('',#103,.T.);
#134=FACE_BOUND('',#104,.T.);
#135=FACE_BOUND('',#105,.T.);
#136=FACE_BOUND('',#106,.T.);
#137=FACE_BOUND('',#107,.T.);
#138=FACE_BOUND('',#108,.T.);
#139=FACE_BOUND('',#109,.T.);
#140=FACE_BOUND('',#110,.T.);
#141=FACE_BOUND('',#111,.T.);
#142=FACE_BOUND('',#112,.T.);
#143=FACE_BOUND('',#113,.T.);
#144=FACE_BOUND('',#114,.T.);
#145=FACE_BOUND('',#115,.T.);
#146=FACE_BOUND('',#116,.T.);
#147=FACE_BOUND('',#117,.T.);
#148=FACE_BOUND('',#118,.T.);
#149=FACE_BOUND('',#119,.T.);
#150=FACE_BOUND('',#120,.T.);
#151=FACE_BOUND('',#121,.T.);
#152=FACE_BOUND('',#122,.T.);
#153=FACE_BOUND('',#123,.T.);
#154=FACE_BOUND('',#124,.T.);
#155=FACE_BOUND('',#125,.T.);
#156=FACE_BOUND('',#126,.T.);
#157=FACE_BOUND('',#127,.T.);
#158=FACE_BOUND('',#128,.T.);
#159=CYLINDRICAL_SURFACE('',#261,5.5);
#160=CYLINDRICAL_SURFACE('',#264,5.5);
#161=CYLINDRICAL_SURFACE('',#267,5.5);
#162=CYLINDRICAL_SURFACE('',#270,10.);
#163=CYLINDRICAL_SURFACE('',#279,37.5);
#164=CYLINDRICAL_SURFACE('',#285,5.5);
#165=CYLINDRICAL_SURFACE('',#286,5.);
#166=STYLED_ITEM('',(#177),#245);
#167=STYLED_ITEM('',(#178),#246);
#168=STYLED_ITEM('',(#179),#247);
#169=STYLED_ITEM('',(#180),#248);
#170=STYLED_ITEM('',(#181),#249);
#171=STYLED_ITEM('',(#182),#250);
#172=STYLED_ITEM('',(#183),#251);
#173=STYLED_ITEM('',(#184),#252);
#174=STYLED_ITEM('',(#185),#253);
#175=STYLED_ITEM('',(#186),#254);
#176=STYLED_ITEM('',(#187),#255);
#177=PRESENTATION_STYLE_ASSIGNMENT((#188));
#178=PRESENTATION_STYLE_ASSIGNMENT((#189));
#179=PRESENTATION_STYLE_ASSIGNMENT((#190));
#180=PRESENTATION_STYLE_ASSIGNMENT((#191));
#181=PRESENTATION_STYLE_ASSIGNMENT((#192));
#182=PRESENTATION_STYLE_ASSIGNMENT((#193));
#183=PRESENTATION_STYLE_ASSIGNMENT((#194));
#184=PRESENTATION_STYLE_ASSIGNMENT((#195));
#185=PRESENTATION_STYLE_ASSIGNMENT((#196));
#186=PRESENTATION_STYLE_ASSIGNMENT((#197));
#187=PRESENTATION_STYLE_ASSIGNMENT((#198));
#188=SURFACE_STYLE_USAGE(.BOTH.,#199);
#189=SURFACE_STYLE_USAGE(.BOTH.,#200);
#190=SURFACE_STYLE_USAGE(.BOTH.,#201);
#191=SURFACE_STYLE_USAGE(.BOTH.,#202);
#192=SURFACE_STYLE_USAGE(.BOTH.,#203);
#193=SURFACE_STYLE_USAGE(.BOTH.,#204);
#194=SURFACE_STYLE_USAGE(.BOTH.,#205);
#195=SURFACE_STYLE_USAGE(.BOTH.,#206);
#196=SURFACE_STYLE_USAGE(.BOTH.,#207);
#197=SURFACE_STYLE_USAGE(.BOTH.,#208);
#198=SURFACE_STYLE_USAGE(.BOTH.,#209);
#199=SURFACE_SIDE_STYLE('',(#210));
#200=SURFACE_SIDE_STYLE('',(#211));
#201=SURFACE_SIDE_STYLE('',(#212));
#202=SURFACE_SIDE_STYLE('',(#213));
#203=SURFACE_SIDE_STYLE('',(#214));
#204=SURFACE_SIDE_STYLE('',(#215));
#205=SURFACE_SIDE_STYLE('',(#216));
#206=SURFACE_SIDE_STYLE('',(#217));
#207=SURFACE_SIDE_STYLE('',(#218));
#208=SURFACE_SIDE_STYLE('',(#219));
#209=SURFACE_SIDE_STYLE('',(#220));
#210=SURFACE_STYLE_FILL_AREA(#221);
#211=SURFACE_STYLE_FILL_AREA(#222);
#212=SURFACE_STYLE_FILL_AREA(#223);
#213=SURFACE_STYLE_FILL_AREA(#224);
#214=SURFACE_STYLE_FILL_AREA(#225);
#215=SURFACE_STYLE_FILL_AREA(#226);
#216=SURFACE_STYLE_FILL_AREA(#227);
#217=SURFACE_STYLE_FILL_AREA(#228);
#218=SURFACE_STYLE_FILL_AREA(#229);
#219=SURFACE_STYLE_FILL_AREA(#230);
#220=SURFACE_STYLE_FILL_AREA(#231);
#221=FILL_AREA_STYLE('',(#232));
#222=FILL_AREA_STYLE('',(#233));
#223=FILL_AREA_STYLE('',(#234));
#224=FILL_AREA_STYLE('',(#235));
#225=FILL_AREA_STYLE('',(#236));
#226=FILL_AREA_STYLE('',(#237));
#227=FILL_AREA_STYLE('',(#238));
#228=FILL_AREA_STYLE('',(#239));
#229=FILL_AREA_STYLE('',(#240));
#230=FILL_AREA_STYLE('',(#241));
#231=FILL_AREA_STYLE('',(#242));
#232=FILL_AREA_STYLE_COLOUR('',#243);
#233=FILL_AREA_STYLE_COLOUR('',#243);
#234=FILL_AREA_STYLE_COLOUR('',#243);
#235=FILL_AREA_STYLE_COLOUR('',#244);
#236=FILL_AREA_STYLE_COLOUR('',#244);
#237=FILL_AREA_STYLE_COLOUR('',#244);
#238=FILL_AREA_STYLE_COLOUR('',#244);
#239=FILL_AREA_STYLE_COLOUR('',#244);
#240=FILL_AREA_STYLE_COLOUR('',#244);
#241=FILL_AREA_STYLE_COLOUR('',#243);
#242=FILL_AREA_STYLE_COLOUR('',#244);
#243=COLOUR_RGB('',0.1875,0.75,0.581249892711639);
#244=COLOUR_RGB('',0.506983280181885,0.531564235687256,0.550000011920929);
#245=ADVANCED_FACE('',(#129,#130),#159,.F.);
#246=ADVANCED_FACE('',(#131,#132),#160,.F.);
#247=ADVANCED_FACE('',(#133,#134),#161,.F.);
#248=ADVANCED_FACE('',(#135,#136),#162,.T.);
#249=ADVANCED_FACE('',(#137,#138),#21,.T.);
#250=ADVANCED_FACE('',(#139,#140,#141,#142,#143,#144),#22,.T.);
#251=ADVANCED_FACE('',(#145,#146),#163,.T.);
#252=ADVANCED_FACE('',(#147,#148,#149,#150,#151,#152),#23,.T.);
#253=ADVANCED_FACE('',(#153,#154),#20,.F.);
#254=ADVANCED_FACE('',(#155,#156),#164,.F.);
#255=ADVANCED_FACE('',(#157,#158),#165,.F.);
#256=CLOSED_SHELL('',(#245,#246,#247,#248,#249,#250,#251,#252,#253,#254,
#255));
#257=MANIFOLD_SOLID_BREP('',#256);
#258=SHAPE_DEFINITION_REPRESENTATION(#389,#259);
#259=SHAPE_REPRESENTATION('\X2\5E739762\X0\(FF)\X2\65744F5394A252367BA16CD55170\X0\',
(#260),#384);
#260=AXIS2_PLACEMENT_3D('',#341,#287,#288);
#261=AXIS2_PLACEMENT_3D('',#342,#289,#290);
#262=AXIS2_PLACEMENT_3D('',#343,#291,#292);
#263=AXIS2_PLACEMENT_3D('',#345,#293,#294);
#264=AXIS2_PLACEMENT_3D('',#347,#295,#296);
#265=AXIS2_PLACEMENT_3D('',#348,#297,#298);
#266=AXIS2_PLACEMENT_3D('',#350,#299,#300);
#267=AXIS2_PLACEMENT_3D('',#352,#301,#302);
#268=AXIS2_PLACEMENT_3D('',#353,#303,#304);
#269=AXIS2_PLACEMENT_3D('',#355,#305,#306);
#270=AXIS2_PLACEMENT_3D('',#357,#307,#308);
#271=AXIS2_PLACEMENT_3D('',#358,#309,#310);
#272=AXIS2_PLACEMENT_3D('',#360,#311,#312);
#273=AXIS2_PLACEMENT_3D('',#362,#313,#314);
#274=AXIS2_PLACEMENT_3D('',#363,#315,#316);
#275=AXIS2_PLACEMENT_3D('',#365,#317,#318);
#276=AXIS2_PLACEMENT_3D('',#366,#319,#320);
#277=AXIS2_PLACEMENT_3D('',#368,#321,#322);
#278=AXIS2_PLACEMENT_3D('',#370,#323,#324);
#279=AXIS2_PLACEMENT_3D('',#372,#325,#326);
#280=AXIS2_PLACEMENT_3D('',#373,#327,#328);
#281=AXIS2_PLACEMENT_3D('',#375,#329,#330);
#282=AXIS2_PLACEMENT_3D('',#376,#331,#332);
#283=AXIS2_PLACEMENT_3D('',#378,#333,#334);
#284=AXIS2_PLACEMENT_3D('',#380,#335,#336);
#285=AXIS2_PLACEMENT_3D('',#381,#337,#338);
#286=AXIS2_PLACEMENT_3D('',#382,#339,#340);
#287=DIRECTION('',(0.,0.,1.));
#288=DIRECTION('',(1.,0.,0.));
#289=DIRECTION('',(0.,0.,1.));
#290=DIRECTION('',(2.07057777052232E-9,1.,0.));
#291=DIRECTION('',(0.,0.,1.));
#292=DIRECTION('',(2.07057777052232E-9,1.,0.));
#293=DIRECTION('',(0.,0.,-1.));
#294=DIRECTION('',(-2.07057777052232E-9,-1.,0.));
#295=DIRECTION('',(0.,0.,1.));
#296=DIRECTION('',(-1.,-1.38038348563449E-9,0.));
#297=DIRECTION('',(0.,0.,1.));
#298=DIRECTION('',(-1.,-1.38038348563449E-9,0.));
#299=DIRECTION('',(0.,0.,-1.));
#300=DIRECTION('',(1.,1.38038348563449E-9,0.));
#301=DIRECTION('',(-1.41357987718737E-15,-1.41357987621174E-15,1.));
#302=DIRECTION('',(-6.90188955817307E-10,-1.,-1.41357987718737E-15));
#303=DIRECTION('',(-1.41357987718737E-15,-1.41357987621174E-15,1.));
#304=DIRECTION('',(-6.90188955817307E-10,-1.,-1.41357987718737E-15));
#305=DIRECTION('',(1.41357987718737E-15,1.41357987621174E-15,-1.));
#306=DIRECTION('',(6.90188955817307E-10,1.,1.41357987718737E-15));
#307=DIRECTION('',(0.,0.,-1.));
#308=DIRECTION('',(-1.,0.,0.));
#309=DIRECTION('',(0.,0.,-1.));
#310=DIRECTION('',(-1.,0.,0.));
#311=DIRECTION('',(0.,0.,-1.));
#312=DIRECTION('',(-1.,0.,0.));
#313=DIRECTION('',(0.,0.,1.));
#314=DIRECTION('',(1.,0.,0.));
#315=DIRECTION('',(0.,0.,1.));
#316=DIRECTION('',(1.,0.,0.));
#317=DIRECTION('',(0.,0.,-1.));
#318=DIRECTION('',(-1.,0.,0.));
#319=DIRECTION('',(0.,0.,-1.));
#320=DIRECTION('',(1.,0.,0.));
#321=DIRECTION('',(0.,0.,-1.));
#322=DIRECTION('',(-1.,0.,0.));
#323=DIRECTION('',(0.,0.,-1.));
#324=DIRECTION('',(-1.,0.,0.));
#325=DIRECTION('',(0.,0.,-1.));
#326=DIRECTION('',(-1.,0.,0.));
#327=DIRECTION('',(0.,0.,-1.));
#328=DIRECTION('',(-1.,0.,0.));
#329=DIRECTION('',(0.,0.,1.));
#330=DIRECTION('',(1.,0.,0.));
#331=DIRECTION('',(0.,0.,1.));
#332=DIRECTION('',(1.,0.,0.));
#333=DIRECTION('',(0.,0.,-1.));
#334=DIRECTION('',(-1.,0.,0.));
#335=DIRECTION('',(0.,0.,-1.));
#336=DIRECTION('',(-1.,0.,0.));
#337=DIRECTION('',(0.,0.,1.));
#338=DIRECTION('',(1.,0.,0.));
#339=DIRECTION('',(0.,0.,-1.));
#340=DIRECTION('',(-1.,0.,0.));
#341=CARTESIAN_POINT('',(0.,0.,0.));
#342=CARTESIAN_POINT('',(-5.1764444263058E-8,-25.,-140.807067899361));
#343=CARTESIAN_POINT('',(-5.1764444263058E-8,-25.,12.));
#344=CARTESIAN_POINT('',(-4.03762665251852E-8,-19.5,12.));
#345=CARTESIAN_POINT('',(-5.1764444263058E-8,-25.,0.));
#346=CARTESIAN_POINT('',(-6.31526220009307E-8,-30.5,0.));
#347=CARTESIAN_POINT('',(25.,3.45095871408623E-8,-140.807067899361));
#348=CARTESIAN_POINT('',(25.,3.45095871408623E-8,12.));
#349=CARTESIAN_POINT('',(19.5,2.69174779698726E-8,12.));
#350=CARTESIAN_POINT('',(25.,3.45095871408623E-8,0.));
#351=CARTESIAN_POINT('',(30.5,4.2101696311852E-8,0.));
#352=CARTESIAN_POINT('',(1.72549229374704E-8,25.0000000000002,-140.807067899361));
#353=CARTESIAN_POINT('',(1.72547069324742E-8,25.,12.));
#354=CARTESIAN_POINT('',(1.3458667675479E-8,19.5,12.));
#355=CARTESIAN_POINT('',(1.72547238954327E-8,25.,3.53394969296843E-14));
#356=CARTESIAN_POINT('',(2.10507631524279E-8,30.5,4.31141862542149E-14));
#357=CARTESIAN_POINT('',(0.,0.,0.));
#358=CARTESIAN_POINT('',(0.,0.,110.));
#359=CARTESIAN_POINT('',(-10.,0.,110.));
#360=CARTESIAN_POINT('',(0.,0.,16.));
#361=CARTESIAN_POINT('',(-10.,0.,16.));
#362=CARTESIAN_POINT('',(-10.,0.,110.));
#363=CARTESIAN_POINT('',(0.,0.,110.));
#364=CARTESIAN_POINT('',(5.,0.,110.));
#365=CARTESIAN_POINT('',(0.,0.,-2.38524477946811E-15));
#366=CARTESIAN_POINT('',(0.,0.,0.));
#367=CARTESIAN_POINT('',(5.,0.,0.));
#368=CARTESIAN_POINT('',(-25.,0.,0.));
#369=CARTESIAN_POINT('',(-30.5,0.,0.));
#370=CARTESIAN_POINT('',(0.,0.,-4.77048955893622E-15));
#371=CARTESIAN_POINT('',(-37.5,0.,-4.77048955893622E-15));
#372=CARTESIAN_POINT('',(0.,0.,0.));
#373=CARTESIAN_POINT('',(0.,0.,12.));
#374=CARTESIAN_POINT('',(-37.5,0.,12.));
#375=CARTESIAN_POINT('',(-37.5,0.,12.));
#376=CARTESIAN_POINT('',(-25.,0.,12.));
#377=CARTESIAN_POINT('',(-19.5,0.,12.));
#378=CARTESIAN_POINT('',(0.,0.,12.));
#379=CARTESIAN_POINT('',(-14.,0.,12.));
#380=CARTESIAN_POINT('',(0.,0.,16.));
#381=CARTESIAN_POINT('',(-25.,0.,-140.807067899361));
#382=CARTESIAN_POINT('',(0.,0.,152.807067899361));
#383=MECHANICAL_DESIGN_GEOMETRIC_PRESENTATION_REPRESENTATION('',(#166,#167,
#168,#169,#170,#171,#172,#173,#174,#175,#176),#384);
#384=(
GEOMETRIC_REPRESENTATION_CONTEXT(3)
GLOBAL_UNCERTAINTY_ASSIGNED_CONTEXT((#385))
GLOBAL_UNIT_ASSIGNED_CONTEXT((#388,#387,#386))
REPRESENTATION_CONTEXT('\X2\5E739762\X0\(FF)\X2\65744F5394A252367BA16CD55170\X0\',
'TOP_LEVEL_ASSEMBLY_PART')
);
#385=UNCERTAINTY_MEASURE_WITH_UNIT(LENGTH_MEASURE(0.005),#388,
'DISTANCE_ACCURACY_VALUE','Maximum Tolerance applied to model');
#386=(
NAMED_UNIT(*)
SI_UNIT($,.STERADIAN.)
SOLID_ANGLE_UNIT()
);
#387=(
NAMED_UNIT(*)
PLANE_ANGLE_UNIT()
SI_UNIT($,.RADIAN.)
);
#388=(
LENGTH_UNIT()
NAMED_UNIT(*)
SI_UNIT(.MILLI.,.METRE.)
);
#389=PRODUCT_DEFINITION_SHAPE('','',#390);
#390=PRODUCT_DEFINITION('','',#392,#391);
#391=PRODUCT_DEFINITION_CONTEXT('',#398,'design');
#392=PRODUCT_DEFINITION_FORMATION_WITH_SPECIFIED_SOURCE('','',#394,
 .NOT_KNOWN.);
#393=PRODUCT_RELATED_PRODUCT_CATEGORY('','',(#394));
#394=PRODUCT('\X2\5E739762\X0\(FF)\X2\65744F5394A252367BA16CD55170\X0\',
'\X2\5E739762\X0\(FF)\X2\65744F5394A252367BA16CD55170\X0\',
'\X2\5E739762\X0\(FF)\X2\65744F5394A252367BA16CD55170\X0\',(#396));
#395=PRODUCT_CATEGORY('','');
#396=PRODUCT_CONTEXT('',#398,'mechanical');
#397=APPLICATION_PROTOCOL_DEFINITION('international standard',
'automotive_design',2010,#398);
#398=APPLICATION_CONTEXT(
'core data for automotive mechanical design processes');
ENDSEC;
END-ISO-10303-21;
