ISO-10303-21;
HEADER;
/* Generated by software containing HOOPS Exchange Step
 * from HOOPS Exchange, Inc. (www.tiangong.cloud) 
 */

FILE_DESCRIPTION(
/* description */ ('Unknown'),
/* implementation_level */ '2;1');

FILE_NAME(
/* name */ '\X2\7F207ED55F0F57AB7247\X0\_\X2\592776F45F8478B394A27BA16CD5517075285E26591673AF578B\X0\',

/* time_stamp */ '2025-10-16T17:32:19+08:00',
/* author */ ('Unknown'),
/* organization */ ('Unknown'),
/* preprocessor_version */ 'ST-DEVELOPER v19.4',
/* originating_system */ 'TianGong',
/* authorisation */ 'Unknown');

FILE_SCHEMA (('AUTOMOTIVE_DESIGN {1 0 10303 214 3 1 1}'));
ENDSEC;

DATA;
#10=PROPERTY_DEFINITION_REPRESENTATION(#14,#12);
#11=PROPERTY_DEFINITION_REPRESENTATION(#15,#13);
#12=REPRESENTATION('',(#16),#177);
#13=REPRESENTATION('',(#17),#177);
#14=PROPERTY_DEFINITION('pmi validation property','',#182);
#15=PROPERTY_DEFINITION('pmi validation property','',#182);
#16=VALUE_REPRESENTATION_ITEM('number of annotations',COUNT_MEASURE(0.));
#17=VALUE_REPRESENTATION_ITEM('number of views',COUNT_MEASURE(0.));
#18=SHAPE_REPRESENTATION_RELATIONSHIP('','',#108,#19);
#19=ADVANCED_BREP_SHAPE_REPRESENTATION('',(#106),#177);
#20=PLANE('',#118);
#21=PLANE('',#119);
#22=CYLINDRICAL_SURFACE('',#115,385.);
#23=ORIENTED_EDGE('',*,*,#37,.F.);
#24=ORIENTED_EDGE('',*,*,#38,.T.);
#25=ORIENTED_EDGE('',*,*,#39,.F.);
#26=ORIENTED_EDGE('',*,*,#38,.F.);
#27=ORIENTED_EDGE('',*,*,#40,.T.);
#28=ORIENTED_EDGE('',*,*,#41,.F.);
#29=ORIENTED_EDGE('',*,*,#39,.T.);
#30=ORIENTED_EDGE('',*,*,#40,.F.);
#31=ORIENTED_EDGE('',*,*,#42,.F.);
#32=ORIENTED_EDGE('',*,*,#41,.T.);
#33=ORIENTED_EDGE('',*,*,#43,.F.);
#34=ORIENTED_EDGE('',*,*,#37,.T.);
#35=ORIENTED_EDGE('',*,*,#42,.T.);
#36=ORIENTED_EDGE('',*,*,#43,.T.);
#37=EDGE_CURVE('',#44,#44,#51,.T.);
#38=EDGE_CURVE('',#45,#45,#52,.T.);
#39=EDGE_CURVE('',#46,#46,#53,.F.);
#40=EDGE_CURVE('',#47,#47,#54,.T.);
#41=EDGE_CURVE('',#48,#48,#55,.T.);
#42=EDGE_CURVE('',#49,#49,#56,.T.);
#43=EDGE_CURVE('',#50,#50,#57,.T.);
#44=VERTEX_POINT('',#157);
#45=VERTEX_POINT('',#159);
#46=VERTEX_POINT('',#162);
#47=VERTEX_POINT('',#165);
#48=VERTEX_POINT('',#167);
#49=VERTEX_POINT('',#171);
#50=VERTEX_POINT('',#174);
#51=CIRCLE('',#111,336.499831191693);
#52=CIRCLE('',#112,353.249822788902);
#53=CIRCLE('',#114,353.555599675093);
#54=CIRCLE('',#116,385.);
#55=CIRCLE('',#117,385.);
#56=CIRCLE('',#120,336.694431604688);
#57=CIRCLE('',#122,337.993469710364);
#58=EDGE_LOOP('',(#23));
#59=EDGE_LOOP('',(#24));
#60=EDGE_LOOP('',(#25));
#61=EDGE_LOOP('',(#26));
#62=EDGE_LOOP('',(#27));
#63=EDGE_LOOP('',(#28));
#64=EDGE_LOOP('',(#29));
#65=EDGE_LOOP('',(#30));
#66=EDGE_LOOP('',(#31));
#67=EDGE_LOOP('',(#32));
#68=EDGE_LOOP('',(#33));
#69=EDGE_LOOP('',(#34));
#70=EDGE_LOOP('',(#35));
#71=EDGE_LOOP('',(#36));
#72=FACE_BOUND('',#58,.T.);
#73=FACE_BOUND('',#59,.T.);
#74=FACE_BOUND('',#60,.T.);
#75=FACE_BOUND('',#61,.T.);
#76=FACE_BOUND('',#62,.T.);
#77=FACE_BOUND('',#63,.T.);
#78=FACE_BOUND('',#64,.T.);
#79=FACE_BOUND('',#65,.T.);
#80=FACE_BOUND('',#66,.T.);
#81=FACE_BOUND('',#67,.T.);
#82=FACE_BOUND('',#68,.T.);
#83=FACE_BOUND('',#69,.T.);
#84=FACE_BOUND('',#70,.T.);
#85=FACE_BOUND('',#71,.T.);
#86=CONICAL_SURFACE('',#110,0.,1.56979466896772);
#87=CONICAL_SURFACE('',#113,353.249822788902,0.712667709487058);
#88=CONICAL_SURFACE('',#121,336.499831191693,0.523598775598291);
#89=CONICAL_SURFACE('',#123,337.993469710364,0.523598775598275);
#90=ADVANCED_FACE('',(#72,#73),#86,.F.);
#91=ADVANCED_FACE('',(#74,#75),#87,.T.);
#92=ADVANCED_FACE('',(#76,#77),#22,.T.);
#93=ADVANCED_FACE('',(#78,#79),#20,.T.);
#94=ADVANCED_FACE('',(#80,#81),#21,.T.);
#95=ADVANCED_FACE('',(#82,#83),#88,.F.);
#96=ADVANCED_FACE('',(#84,#85),#89,.F.);
#97=CLOSED_SHELL('',(#90,#91,#92,#93,#94,#95,#96));
#98=STYLED_ITEM('',(#99),#106);
#99=PRESENTATION_STYLE_ASSIGNMENT((#100));
#100=SURFACE_STYLE_USAGE(.BOTH.,#101);
#101=SURFACE_SIDE_STYLE('',(#102));
#102=SURFACE_STYLE_FILL_AREA(#103);
#103=FILL_AREA_STYLE('',(#104));
#104=FILL_AREA_STYLE_COLOUR('',#105);
#105=COLOUR_RGB('',0.506983280181885,0.531564235687256,0.550000011920929);
#106=MANIFOLD_SOLID_BREP('',#97);
#107=SHAPE_DEFINITION_REPRESENTATION(#182,#108);
#108=SHAPE_REPRESENTATION(
'\X2\7F207ED55F0F57AB7247\X0\_\X2\592776F45F8478B394A27BA16CD5517075285E26591673AF578B\X0\',
(#109),#177);
#109=AXIS2_PLACEMENT_3D('',#154,#124,#125);
#110=AXIS2_PLACEMENT_3D('',#155,#126,#127);
#111=AXIS2_PLACEMENT_3D('',#156,#128,#129);
#112=AXIS2_PLACEMENT_3D('',#158,#130,#131);
#113=AXIS2_PLACEMENT_3D('',#160,#132,#133);
#114=AXIS2_PLACEMENT_3D('',#161,#134,#135);
#115=AXIS2_PLACEMENT_3D('',#163,#136,#137);
#116=AXIS2_PLACEMENT_3D('',#164,#138,#139);
#117=AXIS2_PLACEMENT_3D('',#166,#140,#141);
#118=AXIS2_PLACEMENT_3D('',#168,#142,#143);
#119=AXIS2_PLACEMENT_3D('',#169,#144,#145);
#120=AXIS2_PLACEMENT_3D('',#170,#146,#147);
#121=AXIS2_PLACEMENT_3D('',#172,#148,#149);
#122=AXIS2_PLACEMENT_3D('',#173,#150,#151);
#123=AXIS2_PLACEMENT_3D('',#175,#152,#153);
#124=DIRECTION('',(0.,0.,1.));
#125=DIRECTION('',(1.,0.,0.));
#126=DIRECTION('',(0.,0.,1.));
#127=DIRECTION('',(1.,0.,0.));
#128=DIRECTION('',(0.,0.,1.));
#129=DIRECTION('',(1.,0.,0.));
#130=DIRECTION('',(0.,0.,1.));
#131=DIRECTION('',(1.,0.,0.));
#132=DIRECTION('',(0.,0.,-1.));
#133=DIRECTION('',(-1.,0.,0.));
#134=DIRECTION('',(-1.12478268856806E-32,-1.83697019872103E-16,1.));
#135=DIRECTION('',(0.,-1.,-1.83697019872103E-16));
#136=DIRECTION('',(1.12478268856806E-32,1.83697019872103E-16,-1.));
#137=DIRECTION('',(0.,1.,1.83697019872103E-16));
#138=DIRECTION('',(1.12478268856806E-32,1.83697019872103E-16,-1.));
#139=DIRECTION('',(0.,1.,1.83697019872103E-16));
#140=DIRECTION('',(1.12478268856806E-32,1.83697019872103E-16,-1.));
#141=DIRECTION('',(0.,1.,1.83697019872103E-16));
#142=DIRECTION('',(-1.12478268856806E-32,-1.83697019872103E-16,1.));
#143=DIRECTION('',(0.,-1.,-1.83697019872103E-16));
#144=DIRECTION('',(0.,0.,-1.));
#145=DIRECTION('',(-1.,0.,0.));
#146=DIRECTION('',(0.,0.,-1.));
#147=DIRECTION('',(-1.,0.,0.));
#148=DIRECTION('',(0.,0.,-1.));
#149=DIRECTION('',(-1.,0.,0.));
#150=DIRECTION('',(0.,0.,1.));
#151=DIRECTION('',(1.,0.,0.));
#152=DIRECTION('',(0.,0.,1.));
#153=DIRECTION('',(1.,0.,0.));
#154=CARTESIAN_POINT('',(0.,0.,0.));
#155=CARTESIAN_POINT('',(0.,0.,4.5));
#156=CARTESIAN_POINT('',(-2.53076104927814E-32,-4.13318294712232E-16,4.83705780248117));
#157=CARTESIAN_POINT('',(336.499831191693,-4.13318294712232E-16,4.83705780248117));
#158=CARTESIAN_POINT('',(0.,0.,4.85383556828079));
#159=CARTESIAN_POINT('',(353.249822788902,0.,4.85383556828079));
#160=CARTESIAN_POINT('',(0.,0.,4.85383556828079));
#161=CARTESIAN_POINT('',(3.9798812180187E-33,-5.61258585882371E-14,4.5));
#162=CARTESIAN_POINT('',(3.9798812180187E-33,-353.555599675093,4.49999999999994));
#163=CARTESIAN_POINT('',(1.6871740328521E-32,2.75545529808154E-16,0.750000000000001));
#164=CARTESIAN_POINT('',(-2.53076104927819E-32,-4.13318294712239E-16,4.50000000000004));
#165=CARTESIAN_POINT('',(-2.53076104927819E-32,385.,4.50000000000011));
#166=CARTESIAN_POINT('',(2.5307610492781E-32,4.13318294712224E-16,3.94649590784724E-14));
#167=CARTESIAN_POINT('',(2.5307610492781E-32,385.,1.10188311729232E-13));
#168=CARTESIAN_POINT('',(-2.35736723110808E-14,-385.,4.49999999999993));
#169=CARTESIAN_POINT('',(353.25,0.,4.33680868994202E-16));
#170=CARTESIAN_POINT('',(-2.53076104927814E-32,-4.13318294712232E-16,4.33680868994202E-16));
#171=CARTESIAN_POINT('',(-336.694431604688,-4.13318294712232E-16,4.33680868994202E-16));
#172=CARTESIAN_POINT('',(-2.53076104927814E-32,-4.13318294712232E-16,4.83705780248117));
#173=CARTESIAN_POINT('',(-2.53076104927814E-32,-4.13318294712232E-16,2.25000000000005));
#174=CARTESIAN_POINT('',(337.993469710364,-4.13318294712232E-16,2.25000000000005));
#175=CARTESIAN_POINT('',(-2.53076104927814E-32,-4.13318294712232E-16,2.25000000000005));
#176=MECHANICAL_DESIGN_GEOMETRIC_PRESENTATION_REPRESENTATION('',(#98),#177);
#177=(
GEOMETRIC_REPRESENTATION_CONTEXT(3)
GLOBAL_UNCERTAINTY_ASSIGNED_CONTEXT((#178))
GLOBAL_UNIT_ASSIGNED_CONTEXT((#181,#180,#179))
REPRESENTATION_CONTEXT(
'\X2\7F207ED55F0F57AB7247\X0\_\X2\592776F45F8478B394A27BA16CD5517075285E26591673AF578B\X0\',
'TOP_LEVEL_ASSEMBLY_PART')
);
#178=UNCERTAINTY_MEASURE_WITH_UNIT(LENGTH_MEASURE(0.005),#181,
'DISTANCE_ACCURACY_VALUE','Maximum Tolerance applied to model');
#179=(
NAMED_UNIT(*)
SI_UNIT($,.STERADIAN.)
SOLID_ANGLE_UNIT()
);
#180=(
NAMED_UNIT(*)
PLANE_ANGLE_UNIT()
SI_UNIT($,.RADIAN.)
);
#181=(
LENGTH_UNIT()
NAMED_UNIT(*)
SI_UNIT(.MILLI.,.METRE.)
);
#182=PRODUCT_DEFINITION_SHAPE('','',#183);
#183=PRODUCT_DEFINITION('','',#185,#184);
#184=PRODUCT_DEFINITION_CONTEXT('',#191,'design');
#185=PRODUCT_DEFINITION_FORMATION_WITH_SPECIFIED_SOURCE('','',#187,
 .NOT_KNOWN.);
#186=PRODUCT_RELATED_PRODUCT_CATEGORY('','',(#187));
#187=PRODUCT('\X2\7F207ED55F0F57AB7247\X0\_\X2\592776F45F8478B394A27BA16CD5517075285E26591673AF578B\X0\',
'\X2\7F207ED55F0F57AB7247\X0\_\X2\592776F45F8478B394A27BA16CD5517075285E26591673AF578B\X0\',
'\X2\7F207ED55F0F57AB7247\X0\_\X2\592776F45F8478B394A27BA16CD5517075285E26591673AF578B\X0\',
(#189));
#188=PRODUCT_CATEGORY('','');
#189=PRODUCT_CONTEXT('',#191,'mechanical');
#190=APPLICATION_PROTOCOL_DEFINITION('international standard',
'automotive_design',2010,#191);
#191=APPLICATION_CONTEXT(
'core data for automotive mechanical design processes');
ENDSEC;
END-ISO-10303-21;
