ISO-10303-21;
HEADER;
/* Generated by software containing HOOPS Exchange Step
 * from HOOPS Exchange, Inc. (www.tiangong.cloud) 
 */

FILE_DESCRIPTION(
/* description */ ('Unknown'),
/* implementation_level */ '2;1');

FILE_NAME(
/* name */ '\X2\5E7397625BF9710A94A252367BA16CD55170\X0\',
/* time_stamp */ '2025-02-24T07:32:24+08:00',
/* author */ ('Unknown'),
/* organization */ ('Unknown'),
/* preprocessor_version */ 'ST-DEVELOPER v19.4',
/* originating_system */ 'TianGong',
/* authorisation */ 'Unknown');

FILE_SCHEMA (('AUTOMOTIVE_DESIGN {1 0 10303 214 3 1 1}'));
ENDSEC;

DATA;
#10=PROPERTY_DEFINITION_REPRESENTATION(#14,#12);
#11=PROPERTY_DEFINITION_REPRESENTATION(#15,#13);
#12=REPRESENTATION('',(#16),#373);
#13=REPRESENTATION('',(#17),#373);
#14=PROPERTY_DEFINITION('pmi validation property','',#378);
#15=PROPERTY_DEFINITION('pmi validation property','',#378);
#16=VALUE_REPRESENTATION_ITEM('number of annotations',COUNT_MEASURE(0.));
#17=VALUE_REPRESENTATION_ITEM('number of views',COUNT_MEASURE(0.));
#18=SHAPE_REPRESENTATION_RELATIONSHIP('','',#221,#19);
#19=ADVANCED_BREP_SHAPE_REPRESENTATION('',(#219),#373);
#20=TOROIDAL_SURFACE('',#253,12.6,4.);
#21=TOROIDAL_SURFACE('',#254,15.6100800907993,4.);
#22=CONICAL_SURFACE('',#238,13.,0.414506874584786);
#23=CONICAL_SURFACE('',#251,8.1,0.785398163397448);
#24=PLANE('',#235);
#25=PLANE('',#244);
#26=PLANE('',#249);
#27=ORIENTED_EDGE('',*,*,#63,.T.);
#28=ORIENTED_EDGE('',*,*,#64,.F.);
#29=ORIENTED_EDGE('',*,*,#65,.T.);
#30=ORIENTED_EDGE('',*,*,#66,.F.);
#31=ORIENTED_EDGE('',*,*,#67,.T.);
#32=ORIENTED_EDGE('',*,*,#68,.F.);
#33=ORIENTED_EDGE('',*,*,#69,.F.);
#34=ORIENTED_EDGE('',*,*,#70,.T.);
#35=ORIENTED_EDGE('',*,*,#71,.T.);
#36=ORIENTED_EDGE('',*,*,#64,.T.);
#37=ORIENTED_EDGE('',*,*,#66,.T.);
#38=ORIENTED_EDGE('',*,*,#68,.T.);
#39=ORIENTED_EDGE('',*,*,#72,.T.);
#40=ORIENTED_EDGE('',*,*,#69,.T.);
#41=ORIENTED_EDGE('',*,*,#73,.T.);
#42=ORIENTED_EDGE('',*,*,#74,.T.);
#43=ORIENTED_EDGE('',*,*,#75,.T.);
#44=ORIENTED_EDGE('',*,*,#76,.T.);
#45=ORIENTED_EDGE('',*,*,#77,.T.);
#46=ORIENTED_EDGE('',*,*,#78,.F.);
#47=ORIENTED_EDGE('',*,*,#79,.F.);
#48=ORIENTED_EDGE('',*,*,#78,.T.);
#49=ORIENTED_EDGE('',*,*,#63,.F.);
#50=ORIENTED_EDGE('',*,*,#65,.F.);
#51=ORIENTED_EDGE('',*,*,#67,.F.);
#52=ORIENTED_EDGE('',*,*,#80,.F.);
#53=ORIENTED_EDGE('',*,*,#70,.F.);
#54=ORIENTED_EDGE('',*,*,#79,.T.);
#55=ORIENTED_EDGE('',*,*,#76,.F.);
#56=ORIENTED_EDGE('',*,*,#77,.F.);
#57=ORIENTED_EDGE('',*,*,#80,.T.);
#58=ORIENTED_EDGE('',*,*,#72,.F.);
#59=ORIENTED_EDGE('',*,*,#74,.F.);
#60=ORIENTED_EDGE('',*,*,#75,.F.);
#61=ORIENTED_EDGE('',*,*,#71,.F.);
#62=ORIENTED_EDGE('',*,*,#73,.F.);
#63=EDGE_CURVE('',#81,#81,#99,.F.);
#64=EDGE_CURVE('',#82,#82,#100,.T.);
#65=EDGE_CURVE('',#83,#83,#101,.F.);
#66=EDGE_CURVE('',#84,#84,#102,.T.);
#67=EDGE_CURVE('',#85,#85,#103,.F.);
#68=EDGE_CURVE('',#86,#86,#104,.T.);
#69=EDGE_CURVE('',#87,#87,#105,.T.);
#70=EDGE_CURVE('',#88,#88,#106,.T.);
#71=EDGE_CURVE('',#89,#89,#107,.T.);
#72=EDGE_CURVE('',#90,#90,#108,.T.);
#73=EDGE_CURVE('',#91,#91,#109,.F.);
#74=EDGE_CURVE('',#92,#92,#110,.T.);
#75=EDGE_CURVE('',#93,#93,#111,.T.);
#76=EDGE_CURVE('',#94,#94,#112,.T.);
#77=EDGE_CURVE('',#95,#95,#113,.F.);
#78=EDGE_CURVE('',#96,#96,#114,.T.);
#79=EDGE_CURVE('',#97,#97,#115,.T.);
#80=EDGE_CURVE('',#98,#98,#116,.F.);
#81=VERTEX_POINT('',#324);
#82=VERTEX_POINT('',#326);
#83=VERTEX_POINT('',#329);
#84=VERTEX_POINT('',#331);
#85=VERTEX_POINT('',#334);
#86=VERTEX_POINT('',#336);
#87=VERTEX_POINT('',#339);
#88=VERTEX_POINT('',#341);
#89=VERTEX_POINT('',#344);
#90=VERTEX_POINT('',#346);
#91=VERTEX_POINT('',#349);
#92=VERTEX_POINT('',#351);
#93=VERTEX_POINT('',#354);
#94=VERTEX_POINT('',#356);
#95=VERTEX_POINT('',#359);
#96=VERTEX_POINT('',#361);
#97=VERTEX_POINT('',#364);
#98=VERTEX_POINT('',#367);
#99=CIRCLE('',#224,5.5);
#100=CIRCLE('',#225,5.5);
#101=CIRCLE('',#227,5.5);
#102=CIRCLE('',#228,5.5);
#103=CIRCLE('',#230,5.5);
#104=CIRCLE('',#231,5.5);
#105=CIRCLE('',#233,37.5);
#106=CIRCLE('',#234,37.5);
#107=CIRCLE('',#236,15.6100800907993);
#108=CIRCLE('',#237,5.5);
#109=CIRCLE('',#239,11.9488199611082);
#110=CIRCLE('',#240,8.93873987030894);
#111=CIRCLE('',#242,8.6);
#112=CIRCLE('',#243,8.6);
#113=CIRCLE('',#245,8.1);
#114=CIRCLE('',#246,6.6);
#115=CIRCLE('',#248,6.60000000000001);
#116=CIRCLE('',#250,5.5);
#117=EDGE_LOOP('',(#27));
#118=EDGE_LOOP('',(#28));
#119=EDGE_LOOP('',(#29));
#120=EDGE_LOOP('',(#30));
#121=EDGE_LOOP('',(#31));
#122=EDGE_LOOP('',(#32));
#123=EDGE_LOOP('',(#33));
#124=EDGE_LOOP('',(#34));
#125=EDGE_LOOP('',(#35));
#126=EDGE_LOOP('',(#36));
#127=EDGE_LOOP('',(#37));
#128=EDGE_LOOP('',(#38));
#129=EDGE_LOOP('',(#39));
#130=EDGE_LOOP('',(#40));
#131=EDGE_LOOP('',(#41));
#132=EDGE_LOOP('',(#42));
#133=EDGE_LOOP('',(#43));
#134=EDGE_LOOP('',(#44));
#135=EDGE_LOOP('',(#45));
#136=EDGE_LOOP('',(#46));
#137=EDGE_LOOP('',(#47));
#138=EDGE_LOOP('',(#48));
#139=EDGE_LOOP('',(#49));
#140=EDGE_LOOP('',(#50));
#141=EDGE_LOOP('',(#51));
#142=EDGE_LOOP('',(#52));
#143=EDGE_LOOP('',(#53));
#144=EDGE_LOOP('',(#54));
#145=EDGE_LOOP('',(#55));
#146=EDGE_LOOP('',(#56));
#147=EDGE_LOOP('',(#57));
#148=EDGE_LOOP('',(#58));
#149=EDGE_LOOP('',(#59));
#150=EDGE_LOOP('',(#60));
#151=EDGE_LOOP('',(#61));
#152=EDGE_LOOP('',(#62));
#153=FACE_BOUND('',#117,.T.);
#154=FACE_BOUND('',#118,.T.);
#155=FACE_BOUND('',#119,.T.);
#156=FACE_BOUND('',#120,.T.);
#157=FACE_BOUND('',#121,.T.);
#158=FACE_BOUND('',#122,.T.);
#159=FACE_BOUND('',#123,.T.);
#160=FACE_BOUND('',#124,.T.);
#161=FACE_BOUND('',#125,.T.);
#162=FACE_BOUND('',#126,.T.);
#163=FACE_BOUND('',#127,.T.);
#164=FACE_BOUND('',#128,.T.);
#165=FACE_BOUND('',#129,.T.);
#166=FACE_BOUND('',#130,.T.);
#167=FACE_BOUND('',#131,.T.);
#168=FACE_BOUND('',#132,.T.);
#169=FACE_BOUND('',#133,.T.);
#170=FACE_BOUND('',#134,.T.);
#171=FACE_BOUND('',#135,.T.);
#172=FACE_BOUND('',#136,.T.);
#173=FACE_BOUND('',#137,.T.);
#174=FACE_BOUND('',#138,.T.);
#175=FACE_BOUND('',#139,.T.);
#176=FACE_BOUND('',#140,.T.);
#177=FACE_BOUND('',#141,.T.);
#178=FACE_BOUND('',#142,.T.);
#179=FACE_BOUND('',#143,.T.);
#180=FACE_BOUND('',#144,.T.);
#181=FACE_BOUND('',#145,.T.);
#182=FACE_BOUND('',#146,.T.);
#183=FACE_BOUND('',#147,.T.);
#184=FACE_BOUND('',#148,.T.);
#185=FACE_BOUND('',#149,.T.);
#186=FACE_BOUND('',#150,.T.);
#187=FACE_BOUND('',#151,.T.);
#188=FACE_BOUND('',#152,.T.);
#189=CYLINDRICAL_SURFACE('',#223,5.5);
#190=CYLINDRICAL_SURFACE('',#226,5.5);
#191=CYLINDRICAL_SURFACE('',#229,5.5);
#192=CYLINDRICAL_SURFACE('',#232,37.5);
#193=CYLINDRICAL_SURFACE('',#241,8.6);
#194=CYLINDRICAL_SURFACE('',#247,6.60000000000001);
#195=CYLINDRICAL_SURFACE('',#252,5.5);
#196=ADVANCED_FACE('',(#153,#154),#189,.F.);
#197=ADVANCED_FACE('',(#155,#156),#190,.F.);
#198=ADVANCED_FACE('',(#157,#158),#191,.F.);
#199=ADVANCED_FACE('',(#159,#160),#192,.T.);
#200=ADVANCED_FACE('',(#161,#162,#163,#164,#165,#166),#24,.F.);
#201=ADVANCED_FACE('',(#167,#168),#22,.T.);
#202=ADVANCED_FACE('',(#169,#170),#193,.T.);
#203=ADVANCED_FACE('',(#171,#172),#25,.F.);
#204=ADVANCED_FACE('',(#173,#174),#194,.F.);
#205=ADVANCED_FACE('',(#175,#176,#177,#178,#179,#180),#26,.F.);
#206=ADVANCED_FACE('',(#181,#182),#23,.T.);
#207=ADVANCED_FACE('',(#183,#184),#195,.F.);
#208=ADVANCED_FACE('',(#185,#186),#20,.F.);
#209=ADVANCED_FACE('',(#187,#188),#21,.F.);
#210=CLOSED_SHELL('',(#196,#197,#198,#199,#200,#201,#202,#203,#204,#205,
#206,#207,#208,#209));
#211=STYLED_ITEM('',(#212),#219);
#212=PRESENTATION_STYLE_ASSIGNMENT((#213));
#213=SURFACE_STYLE_USAGE(.BOTH.,#214);
#214=SURFACE_SIDE_STYLE('',(#215));
#215=SURFACE_STYLE_FILL_AREA(#216);
#216=FILL_AREA_STYLE('',(#217));
#217=FILL_AREA_STYLE_COLOUR('',#218);
#218=COLOUR_RGB('',0.506983280181885,0.531564235687256,0.550000011920929);
#219=MANIFOLD_SOLID_BREP('',#210);
#220=SHAPE_DEFINITION_REPRESENTATION(#378,#221);
#221=SHAPE_REPRESENTATION('\X2\5E7397625BF9710A94A252367BA16CD55170\X0\',
(#222),#373);
#222=AXIS2_PLACEMENT_3D('',#321,#255,#256);
#223=AXIS2_PLACEMENT_3D('',#322,#257,#258);
#224=AXIS2_PLACEMENT_3D('',#323,#259,#260);
#225=AXIS2_PLACEMENT_3D('',#325,#261,#262);
#226=AXIS2_PLACEMENT_3D('',#327,#263,#264);
#227=AXIS2_PLACEMENT_3D('',#328,#265,#266);
#228=AXIS2_PLACEMENT_3D('',#330,#267,#268);
#229=AXIS2_PLACEMENT_3D('',#332,#269,#270);
#230=AXIS2_PLACEMENT_3D('',#333,#271,#272);
#231=AXIS2_PLACEMENT_3D('',#335,#273,#274);
#232=AXIS2_PLACEMENT_3D('',#337,#275,#276);
#233=AXIS2_PLACEMENT_3D('',#338,#277,#278);
#234=AXIS2_PLACEMENT_3D('',#340,#279,#280);
#235=AXIS2_PLACEMENT_3D('',#342,#281,#282);
#236=AXIS2_PLACEMENT_3D('',#343,#283,#284);
#237=AXIS2_PLACEMENT_3D('',#345,#285,#286);
#238=AXIS2_PLACEMENT_3D('',#347,#287,#288);
#239=AXIS2_PLACEMENT_3D('',#348,#289,#290);
#240=AXIS2_PLACEMENT_3D('',#350,#291,#292);
#241=AXIS2_PLACEMENT_3D('',#352,#293,#294);
#242=AXIS2_PLACEMENT_3D('',#353,#295,#296);
#243=AXIS2_PLACEMENT_3D('',#355,#297,#298);
#244=AXIS2_PLACEMENT_3D('',#357,#299,#300);
#245=AXIS2_PLACEMENT_3D('',#358,#301,#302);
#246=AXIS2_PLACEMENT_3D('',#360,#303,#304);
#247=AXIS2_PLACEMENT_3D('',#362,#305,#306);
#248=AXIS2_PLACEMENT_3D('',#363,#307,#308);
#249=AXIS2_PLACEMENT_3D('',#365,#309,#310);
#250=AXIS2_PLACEMENT_3D('',#366,#311,#312);
#251=AXIS2_PLACEMENT_3D('',#368,#313,#314);
#252=AXIS2_PLACEMENT_3D('',#369,#315,#316);
#253=AXIS2_PLACEMENT_3D('',#370,#317,#318);
#254=AXIS2_PLACEMENT_3D('',#371,#319,#320);
#255=DIRECTION('',(0.,0.,1.));
#256=DIRECTION('',(1.,0.,0.));
#257=DIRECTION('',(0.,0.,1.));
#258=DIRECTION('',(7.27366154732462E-16,1.,0.));
#259=DIRECTION('',(0.,0.,1.));
#260=DIRECTION('',(7.27366154732462E-16,1.,0.));
#261=DIRECTION('',(0.,0.,-1.));
#262=DIRECTION('',(7.27366154732462E-16,1.,0.));
#263=DIRECTION('',(0.,0.,1.));
#264=DIRECTION('',(-1.,1.22464679914735E-16,0.));
#265=DIRECTION('',(0.,0.,1.));
#266=DIRECTION('',(-1.,1.22464679914735E-16,0.));
#267=DIRECTION('',(0.,0.,-1.));
#268=DIRECTION('',(-1.,1.22464679914735E-16,0.));
#269=DIRECTION('',(0.,0.,1.));
#270=DIRECTION('',(-1.83697019872103E-16,-1.,0.));
#271=DIRECTION('',(0.,0.,1.));
#272=DIRECTION('',(-1.83697019872103E-16,-1.,0.));
#273=DIRECTION('',(0.,0.,-1.));
#274=DIRECTION('',(-1.83697019872103E-16,-1.,0.));
#275=DIRECTION('',(0.,0.,1.));
#276=DIRECTION('',(1.,0.,0.));
#277=DIRECTION('',(0.,0.,1.));
#278=DIRECTION('',(1.,0.,0.));
#279=DIRECTION('',(0.,0.,1.));
#280=DIRECTION('',(1.,0.,0.));
#281=DIRECTION('',(0.,0.,-1.));
#282=DIRECTION('',(-1.,0.,0.));
#283=DIRECTION('',(0.,0.,-1.));
#284=DIRECTION('',(-1.,0.,0.));
#285=DIRECTION('',(0.,0.,-1.));
#286=DIRECTION('',(1.,0.,0.));
#287=DIRECTION('',(0.,0.,-1.));
#288=DIRECTION('',(-1.,0.,0.));
#289=DIRECTION('',(0.,0.,-1.));
#290=DIRECTION('',(-1.,0.,0.));
#291=DIRECTION('',(0.,0.,-1.));
#292=DIRECTION('',(-1.,0.,0.));
#293=DIRECTION('',(0.,0.,1.));
#294=DIRECTION('',(1.,0.,0.));
#295=DIRECTION('',(0.,0.,1.));
#296=DIRECTION('',(1.,0.,0.));
#297=DIRECTION('',(0.,0.,-1.));
#298=DIRECTION('',(-1.,0.,0.));
#299=DIRECTION('',(0.,0.,-1.));
#300=DIRECTION('',(-1.,0.,0.));
#301=DIRECTION('',(0.,0.,-1.));
#302=DIRECTION('',(-1.,0.,0.));
#303=DIRECTION('',(0.,0.,1.));
#304=DIRECTION('',(1.,0.,0.));
#305=DIRECTION('',(0.,0.,1.));
#306=DIRECTION('',(1.,0.,0.));
#307=DIRECTION('',(0.,0.,1.));
#308=DIRECTION('',(1.,0.,0.));
#309=DIRECTION('',(0.,0.,1.));
#310=DIRECTION('',(1.,0.,0.));
#311=DIRECTION('',(0.,0.,1.));
#312=DIRECTION('',(1.,0.,0.));
#313=DIRECTION('',(0.,0.,-1.));
#314=DIRECTION('',(-1.,0.,0.));
#315=DIRECTION('',(0.,0.,1.));
#316=DIRECTION('',(1.,0.,0.));
#317=DIRECTION('',(0.,0.,1.));
#318=DIRECTION('',(1.,0.,0.));
#319=DIRECTION('',(0.,0.,-1.));
#320=DIRECTION('',(-1.,0.,0.));
#321=CARTESIAN_POINT('',(0.,0.,0.));
#322=CARTESIAN_POINT('',(-25.,1.81841538683115E-14,-97.6995897895703));
#323=CARTESIAN_POINT('',(-25.,1.81841538683115E-14,0.));
#324=CARTESIAN_POINT('',(-25.,5.50000000000002,0.));
#325=CARTESIAN_POINT('',(-25.,1.81841538683115E-14,12.));
#326=CARTESIAN_POINT('',(-25.,5.50000000000002,12.));
#327=CARTESIAN_POINT('',(-3.06161699786838E-15,-25.,-97.6995897895703));
#328=CARTESIAN_POINT('',(-3.06161699786838E-15,-25.,0.));
#329=CARTESIAN_POINT('',(-5.5,-25.,0.));
#330=CARTESIAN_POINT('',(-3.06161699786838E-15,-25.,12.));
#331=CARTESIAN_POINT('',(-5.5,-25.,12.));
#332=CARTESIAN_POINT('',(25.,-4.59242549680257E-15,-97.6995897895703));
#333=CARTESIAN_POINT('',(25.,-4.59242549680257E-15,0.));
#334=CARTESIAN_POINT('',(25.,-5.5,0.));
#335=CARTESIAN_POINT('',(25.,-4.59242549680257E-15,12.));
#336=CARTESIAN_POINT('',(25.,-5.5,12.));
#337=CARTESIAN_POINT('',(0.,0.,0.));
#338=CARTESIAN_POINT('',(0.,0.,12.));
#339=CARTESIAN_POINT('',(37.5,0.,12.));
#340=CARTESIAN_POINT('',(0.,0.,0.));
#341=CARTESIAN_POINT('',(37.5,0.,0.));
#342=CARTESIAN_POINT('',(37.5,0.,12.));
#343=CARTESIAN_POINT('',(0.,0.,12.));
#344=CARTESIAN_POINT('',(-15.6100800907993,0.,12.));
#345=CARTESIAN_POINT('',(0.,25.,12.));
#346=CARTESIAN_POINT('',(5.5,25.,12.));
#347=CARTESIAN_POINT('',(0.,0.,12.));
#348=CARTESIAN_POINT('',(0.,0.,14.3890455429359));
#349=CARTESIAN_POINT('',(-11.9488199611082,0.,14.3890455429359));
#350=CARTESIAN_POINT('',(0.,0.,21.2301366583888));
#351=CARTESIAN_POINT('',(-8.93873987030894,0.,21.2301366583888));
#352=CARTESIAN_POINT('',(0.,0.,0.));
#353=CARTESIAN_POINT('',(0.,0.,22.8410911154528));
#354=CARTESIAN_POINT('',(8.6,0.,22.8410911154528));
#355=CARTESIAN_POINT('',(0.,0.,27.5));
#356=CARTESIAN_POINT('',(-8.6,0.,27.5));
#357=CARTESIAN_POINT('',(8.6,0.,28.));
#358=CARTESIAN_POINT('',(0.,0.,28.));
#359=CARTESIAN_POINT('',(-8.1,0.,28.));
#360=CARTESIAN_POINT('',(0.,0.,28.));
#361=CARTESIAN_POINT('',(6.6,0.,28.));
#362=CARTESIAN_POINT('',(0.,0.,0.));
#363=CARTESIAN_POINT('',(0.,0.,-3.46944695195361E-15));
#364=CARTESIAN_POINT('',(6.60000000000001,0.,-3.46944695195361E-15));
#365=CARTESIAN_POINT('',(6.60000000000001,0.,-1.73472347597681E-15));
#366=CARTESIAN_POINT('',(0.,25.,0.));
#367=CARTESIAN_POINT('',(5.5,25.,0.));
#368=CARTESIAN_POINT('',(0.,0.,28.));
#369=CARTESIAN_POINT('',(0.,25.,-97.6995897895703));
#370=CARTESIAN_POINT('',(0.,0.,22.8410911154528));
#371=CARTESIAN_POINT('',(0.,0.,16.));
#372=MECHANICAL_DESIGN_GEOMETRIC_PRESENTATION_REPRESENTATION('',(#211),
#373);
#373=(
GEOMETRIC_REPRESENTATION_CONTEXT(3)
GLOBAL_UNCERTAINTY_ASSIGNED_CONTEXT((#374))
GLOBAL_UNIT_ASSIGNED_CONTEXT((#377,#376,#375))
REPRESENTATION_CONTEXT('\X2\5E7397625BF9710A94A252367BA16CD55170\X0\',
'TOP_LEVEL_ASSEMBLY_PART')
);
#374=UNCERTAINTY_MEASURE_WITH_UNIT(LENGTH_MEASURE(0.005),#377,
'DISTANCE_ACCURACY_VALUE','Maximum Tolerance applied to model');
#375=(
NAMED_UNIT(*)
SI_UNIT($,.STERADIAN.)
SOLID_ANGLE_UNIT()
);
#376=(
NAMED_UNIT(*)
PLANE_ANGLE_UNIT()
SI_UNIT($,.RADIAN.)
);
#377=(
LENGTH_UNIT()
NAMED_UNIT(*)
SI_UNIT(.MILLI.,.METRE.)
);
#378=PRODUCT_DEFINITION_SHAPE('','',#379);
#379=PRODUCT_DEFINITION('','',#381,#380);
#380=PRODUCT_DEFINITION_CONTEXT('',#387,'design');
#381=PRODUCT_DEFINITION_FORMATION_WITH_SPECIFIED_SOURCE('','',#383,
 .NOT_KNOWN.);
#382=PRODUCT_RELATED_PRODUCT_CATEGORY('','',(#383));
#383=PRODUCT('\X2\5E7397625BF9710A94A252367BA16CD55170\X0\',
'\X2\5E7397625BF9710A94A252367BA16CD55170\X0\',
'\X2\5E7397625BF9710A94A252367BA16CD55170\X0\',(#385));
#384=PRODUCT_CATEGORY('','');
#385=PRODUCT_CONTEXT('',#387,'mechanical');
#386=APPLICATION_PROTOCOL_DEFINITION('international standard',
'automotive_design',2010,#387);
#387=APPLICATION_CONTEXT(
'core data for automotive mechanical design processes');
ENDSEC;
END-ISO-10303-21;
